<meta message track_name name='Das wohltemperierte Klavier I - Praeludium und Fuge 2 in c-Moll BWV 847' time=0>
<meta message copyright text='Copyright © 1997 von Bernd Krüger.' time=0>
<meta message text text='Johann Sebastian Bach' time=0>
<meta message text text='Fertiggestellt am 5.11.97\n' time=0>
<meta message text text="Pan's auf Standard am 18.1.98\n" time=0>
<meta message text text='Normierung: 23.12.2002\n' time=0>
<meta message text text='Update am 26.9.2004\n' time=0>
<meta message text text='Dauer: 3:09 Minuten\n' time=0>
<meta message time_signature numerator=4 denominator=4 clocks_per_click=24 notated_32nd_notes_per_beat=8 time=0>
<meta message key_signature key='Eb' time=0>
<meta message set_tempo tempo=489796 time=0>
<meta message marker text='Prelude' time=0>
program_change channel=0 program=0 time=0
control_change channel=0 control=7 value=100 time=0
control_change channel=0 control=10 value=64 time=0
control_change channel=0 control=91 value=127 time=0
control_change channel=0 control=91 value=127 time=0
program_change channel=0 program=0 time=0
control_change channel=0 control=7 value=100 time=0
control_change channel=0 control=10 value=64 time=0
control_change channel=0 control=91 value=127 time=0
control_change channel=0 control=64 value=0 time=0
program_change channel=0 program=0 time=0
control_change channel=0 control=7 value=100 time=0
control_change channel=0 control=10 value=64 time=0
program_change channel=0 program=0 time=0
control_change channel=0 control=7 value=100 time=0
control_change channel=0 control=10 value=64 time=0
program_change channel=0 program=0 time=0
control_change channel=0 control=7 value=100 time=0
control_change channel=0 control=10 value=64 time=0
<meta message text text='bdca426d104a26ac9dcb070447587523' time=1>
note_on channel=0 note=72 velocity=96 time=2
note_on channel=0 note=48 velocity=88 time=0
<meta message set_tempo tempo=451128 time=57>
note_on channel=0 note=63 velocity=80 time=61
note_on channel=0 note=55 velocity=73 time=2
note_on channel=0 note=48 velocity=0 time=20
note_on channel=0 note=72 velocity=0 time=0
note_on channel=0 note=62 velocity=77 time=97
note_on channel=0 note=53 velocity=72 time=2
note_on channel=0 note=63 velocity=0 time=19
note_on channel=0 note=55 velocity=0 time=2
<meta message set_tempo tempo=476190 time=97>
note_on channel=0 note=63 velocity=77 time=0
note_on channel=0 note=55 velocity=72 time=2
note_on channel=0 note=62 velocity=0 time=18
note_on channel=0 note=53 velocity=0 time=2
<meta message set_tempo tempo=470588 time=98>
note_on channel=0 note=51 velocity=80 time=1
note_on channel=0 note=60 velocity=80 time=2
note_on channel=0 note=63 velocity=0 time=17
note_on channel=0 note=55 velocity=0 time=2
<meta message set_tempo tempo=452830 time=98>
note_on channel=0 note=55 velocity=72 time=0
note_on channel=0 note=63 velocity=76 time=2
note_on channel=0 note=51 velocity=0 time=19
note_on channel=0 note=60 velocity=0 time=2
note_on channel=0 note=62 velocity=76 time=99
note_on channel=0 note=53 velocity=73 time=1
note_on channel=0 note=55 velocity=0 time=17
note_on channel=0 note=63 velocity=0 time=2
note_on channel=0 note=63 velocity=76 time=97
note_on channel=0 note=55 velocity=73 time=0
<meta message set_tempo tempo=476190 time=1>
note_on channel=0 note=62 velocity=0 time=22
note_on channel=0 note=53 velocity=0 time=1
note_on channel=0 note=63 velocity=0 time=96
note_on channel=0 note=55 velocity=0 time=0
<meta message set_tempo tempo=485830 time=1>
note_on channel=0 note=72 velocity=96 time=3
note_on channel=0 note=48 velocity=88 time=0
note_on channel=0 note=55 velocity=74 time=116
<meta message set_tempo tempo=449438 time=1>
note_on channel=0 note=63 velocity=80 time=2
note_on channel=0 note=48 velocity=0 time=21
note_on channel=0 note=72 velocity=0 time=0
note_on channel=0 note=53 velocity=74 time=96
note_on channel=0 note=62 velocity=78 time=2
note_on channel=0 note=55 velocity=0 time=18
note_on channel=0 note=63 velocity=0 time=3
note_on channel=0 note=63 velocity=78 time=97
<meta message set_tempo tempo=466926 time=1>
note_on channel=0 note=55 velocity=72 time=1
note_on channel=0 note=53 velocity=0 time=18
note_on channel=0 note=62 velocity=0 time=2
note_on channel=0 note=60 velocity=80 time=97
<meta message set_tempo tempo=470588 time=2>
note_on channel=0 note=51 velocity=80 time=3
note_on channel=0 note=63 velocity=0 time=16
note_on channel=0 note=55 velocity=0 time=2
note_on channel=0 note=63 velocity=78 time=97
note_on channel=0 note=55 velocity=73 time=0
<meta message set_tempo tempo=431655 time=2>
note_on channel=0 note=60 velocity=0 time=18
note_on channel=0 note=51 velocity=0 time=5
note_on channel=0 note=53 velocity=73 time=95
<meta message set_tempo tempo=431655 time=2>
note_on channel=0 note=62 velocity=77 time=0
note_on channel=0 note=63 velocity=0 time=18
note_on channel=0 note=55 velocity=0 time=0
note_on channel=0 note=63 velocity=77 time=100
<meta message set_tempo tempo=487805 time=2>
note_on channel=0 note=55 velocity=73 time=1
note_on channel=0 note=53 velocity=0 time=17
note_on channel=0 note=62 velocity=0 time=2
note_on channel=0 note=63 velocity=0 time=98
note_on channel=0 note=68 velocity=96 time=0
<meta message set_tempo tempo=476190 time=2>
note_on channel=0 note=48 velocity=88 time=0
note_on channel=0 note=55 velocity=0 time=1
note_on channel=0 note=56 velocity=73 time=117
<meta message set_tempo tempo=452830 time=2>
note_on channel=0 note=65 velocity=80 time=3
note_on channel=0 note=68 velocity=0 time=15
note_on channel=0 note=48 velocity=0 time=2
note_on channel=0 note=55 velocity=73 time=99
note_on channel=0 note=64 velocity=76 time=1
note_on channel=0 note=56 velocity=0 time=18
note_on channel=0 note=65 velocity=0 time=5
note_on channel=0 note=65 velocity=76 time=95
<meta message set_tempo tempo=466926 time=2>
note_on channel=0 note=56 velocity=73 time=3
note_on channel=0 note=55 velocity=0 time=16
note_on channel=0 note=64 velocity=0 time=1
note_on channel=0 note=60 velocity=80 time=98
note_on channel=0 note=53 velocity=80 time=1
<meta message set_tempo tempo=472441 time=1>
note_on channel=0 note=65 velocity=0 time=18
note_on channel=0 note=56 velocity=0 time=5
note_on channel=0 note=65 velocity=76 time=95
note_on channel=0 note=56 velocity=73 time=0
<meta message set_tempo tempo=451128 time=2>
note_on channel=0 note=60 velocity=0 time=18
note_on channel=0 note=53 velocity=0 time=1
note_on channel=0 note=55 velocity=73 time=99
note_on channel=0 note=64 velocity=76 time=2
note_on channel=0 note=65 velocity=0 time=18
note_on channel=0 note=56 velocity=0 time=0
<meta message set_tempo tempo=476190 time=102>
note_on channel=0 note=65 velocity=76 time=1
note_on channel=0 note=56 velocity=73 time=2
note_on channel=0 note=55 velocity=0 time=15
note_on channel=0 note=64 velocity=0 time=2
note_on channel=0 note=48 velocity=88 time=98
<meta message set_tempo tempo=472441 time=2>
note_on channel=0 note=65 velocity=0 time=1
note_on channel=0 note=68 velocity=96 time=0
note_on channel=0 note=56 velocity=0 time=2
note_on channel=0 note=56 velocity=74 time=115
<meta message set_tempo tempo=456274 time=2>
note_on channel=0 note=65 velocity=80 time=1
note_on channel=0 note=48 velocity=0 time=17
note_on channel=0 note=68 velocity=0 time=3
note_on channel=0 note=55 velocity=72 time=97
note_on channel=0 note=64 velocity=77 time=3
note_on channel=0 note=56 velocity=0 time=17
note_on channel=0 note=65 velocity=0 time=3
note_on channel=0 note=65 velocity=77 time=97
<meta message set_tempo tempo=481928 time=2>
note_on channel=0 note=56 velocity=72 time=0
note_on channel=0 note=55 velocity=0 time=18
note_on channel=0 note=64 velocity=0 time=3
<meta message set_tempo tempo=461538 time=99>
note_on channel=0 note=60 velocity=80 time=1
note_on channel=0 note=53 velocity=80 time=2
note_on channel=0 note=65 velocity=0 time=15
note_on channel=0 note=56 velocity=0 time=2
<meta message set_tempo tempo=451128 time=100>
note_on channel=0 note=65 velocity=76 time=0
note_on channel=0 note=56 velocity=74 time=0
note_on channel=0 note=60 velocity=0 time=21
note_on channel=0 note=53 velocity=0 time=2
note_on channel=0 note=64 velocity=76 time=97
note_on channel=0 note=55 velocity=74 time=0
note_on channel=0 note=65 velocity=0 time=20
note_on channel=0 note=56 velocity=0 time=0
note_on channel=0 note=65 velocity=76 time=98
<meta message set_tempo tempo=483871 time=2>
note_on channel=0 note=56 velocity=74 time=3
note_on channel=0 note=64 velocity=0 time=17
note_on channel=0 note=55 velocity=0 time=0
note_on channel=0 note=65 velocity=0 time=98
<meta message set_tempo tempo=472441 time=2>
note_on channel=0 note=71 velocity=96 time=1
note_on channel=0 note=56 velocity=0 time=2
note_on channel=0 note=48 velocity=88 time=0
<meta message set_tempo tempo=447761 time=117>
note_on channel=0 note=56 velocity=74 time=1
note_on channel=0 note=65 velocity=80 time=1
note_on channel=0 note=71 velocity=0 time=19
note_on channel=0 note=48 velocity=0 time=2
note_on channel=0 note=63 velocity=76 time=99
note_on channel=0 note=55 velocity=74 time=1
note_on channel=0 note=56 velocity=0 time=18
note_on channel=0 note=65 velocity=0 time=1
<meta message set_tempo tempo=472441 time=98>
note_on channel=0 note=65 velocity=75 time=1
note_on channel=0 note=56 velocity=74 time=1
note_on channel=0 note=63 velocity=0 time=20
note_on channel=0 note=55 velocity=0 time=1
note_on channel=0 note=62 velocity=80 time=96
<meta message set_tempo tempo=461538 time=1>
note_on channel=0 note=53 velocity=80 time=0
note_on channel=0 note=65 velocity=0 time=21
note_on channel=0 note=56 velocity=0 time=1
note_on channel=0 note=56 velocity=74 time=97
<meta message set_tempo tempo=449438 time=1>
note_on channel=0 note=65 velocity=76 time=3
note_on channel=0 note=62 velocity=0 time=16
note_on channel=0 note=53 velocity=0 time=1
note_on channel=0 note=55 velocity=74 time=98
note_on channel=0 note=63 velocity=76 time=4
note_on channel=0 note=56 velocity=0 time=17
note_on channel=0 note=65 velocity=0 time=4
<meta message set_tempo tempo=468750 time=97>
note_on channel=0 note=56 velocity=73 time=1
note_on channel=0 note=65 velocity=76 time=2
note_on channel=0 note=55 velocity=0 time=15
note_on channel=0 note=63 velocity=0 time=4
<meta message set_tempo tempo=474308 time=98>
note_on channel=0 note=56 velocity=0 time=1
note_on channel=0 note=65 velocity=0 time=2
note_on channel=0 note=71 velocity=96 time=0
note_on channel=0 note=48 velocity=88 time=0
<meta message set_tempo tempo=449438 time=117>
note_on channel=0 note=56 velocity=75 time=0
note_on channel=0 note=65 velocity=80 time=1
note_on channel=0 note=48 velocity=0 time=22
note_on channel=0 note=71 velocity=0 time=0
note_on channel=0 note=63 velocity=76 time=95
note_on channel=0 note=55 velocity=75 time=1
note_on channel=0 note=56 velocity=0 time=21
note_on channel=0 note=65 velocity=0 time=1
<meta message set_tempo tempo=476190 time=99>
note_on channel=0 note=65 velocity=80 time=0
note_on channel=0 note=56 velocity=75 time=1
note_on channel=0 note=63 velocity=0 time=17
note_on channel=0 note=55 velocity=0 time=1
note_on channel=0 note=62 velocity=80 time=100
note_on channel=0 note=53 velocity=80 time=0
<meta message set_tempo tempo=466926 time=1>
note_on channel=0 note=65 velocity=0 time=20
note_on channel=0 note=56 velocity=0 time=1
<meta message set_tempo tempo=451128 time=99>
note_on channel=0 note=56 velocity=74 time=2
note_on channel=0 note=65 velocity=77 time=1
note_on channel=0 note=62 velocity=0 time=16
note_on channel=0 note=53 velocity=0 time=0
note_on channel=0 note=63 velocity=77 time=100
note_on channel=0 note=55 velocity=74 time=4
note_on channel=0 note=56 velocity=0 time=19
note_on channel=0 note=65 velocity=0 time=1
<meta message set_tempo tempo=483871 time=97>
note_on channel=0 note=56 velocity=74 time=0
note_on channel=0 note=65 velocity=77 time=2
note_on channel=0 note=63 velocity=0 time=17
note_on channel=0 note=55 velocity=0 time=4
<meta message set_tempo tempo=502092 time=97>
note_on channel=0 note=56 velocity=0 time=0
note_on channel=0 note=65 velocity=0 time=2
note_on channel=0 note=72 velocity=96 time=1
note_on channel=0 note=48 velocity=88 time=0
note_on channel=0 note=51 velocity=75 time=115
<meta message set_tempo tempo=442804 time=2>
note_on channel=0 note=67 velocity=80 time=3
note_on channel=0 note=48 velocity=0 time=20
note_on channel=0 note=72 velocity=0 time=0
note_on channel=0 note=65 velocity=75 time=100
note_on channel=0 note=50 velocity=75 time=0
note_on channel=0 note=51 velocity=0 time=15
note_on channel=0 note=67 velocity=0 time=5
<meta message set_tempo tempo=468750 time=97>
note_on channel=0 note=67 velocity=75 time=1
note_on channel=0 note=51 velocity=75 time=0
note_on channel=0 note=65 velocity=0 time=22
note_on channel=0 note=50 velocity=0 time=0
<meta message set_tempo tempo=478088 time=97>
note_on channel=0 note=63 velocity=80 time=0
note_on channel=0 note=55 velocity=80 time=2
note_on channel=0 note=67 velocity=0 time=19
note_on channel=0 note=51 velocity=0 time=0
note_on channel=0 note=67 velocity=76 time=98
<meta message set_tempo tempo=428571 time=1>
note_on channel=0 note=51 velocity=75 time=1
note_on channel=0 note=63 velocity=0 time=19
note_on channel=0 note=55 velocity=0 time=2
note_on channel=0 note=50 velocity=75 time=96
note_on channel=0 note=65 velocity=76 time=1
<meta message set_tempo tempo=425532 time=1>
note_on channel=0 note=67 velocity=0 time=19
note_on channel=0 note=51 velocity=0 time=2
note_on channel=0 note=51 velocity=75 time=98
<meta message set_tempo tempo=468750 time=1>
note_on channel=0 note=67 velocity=76 time=3
note_on channel=0 note=50 velocity=0 time=15
note_on channel=0 note=65 velocity=0 time=1
note_on channel=0 note=72 velocity=96 time=99
note_on channel=0 note=51 velocity=0 time=1
<meta message set_tempo tempo=480000 time=1>
note_on channel=0 note=48 velocity=88 time=0
note_on channel=0 note=67 velocity=0 time=3
note_on channel=0 note=51 velocity=75 time=115
<meta message set_tempo tempo=444444 time=2>
note_on channel=0 note=67 velocity=80 time=0
note_on channel=0 note=72 velocity=0 time=18
note_on channel=0 note=48 velocity=0 time=2
note_on channel=0 note=65 velocity=75 time=98
note_on channel=0 note=50 velocity=75 time=2
note_on channel=0 note=51 velocity=0 time=18
note_on channel=0 note=67 velocity=0 time=2
note_on channel=0 note=51 velocity=75 time=98
<meta message set_tempo tempo=487805 time=2>
note_on channel=0 note=67 velocity=75 time=2
note_on channel=0 note=65 velocity=0 time=16
note_on channel=0 note=50 velocity=0 time=2
note_on channel=0 note=63 velocity=80 time=98
<meta message set_tempo tempo=478088 time=2>
note_on channel=0 note=55 velocity=80 time=1
note_on channel=0 note=51 velocity=0 time=17
note_on channel=0 note=67 velocity=0 time=4
note_on channel=0 note=67 velocity=76 time=96
<meta message set_tempo tempo=447761 time=2>
note_on channel=0 note=51 velocity=75 time=3
note_on channel=0 note=63 velocity=0 time=15
note_on channel=0 note=55 velocity=0 time=3
note_on channel=0 note=50 velocity=75 time=97
<meta message set_tempo tempo=430108 time=2>
note_on channel=0 note=65 velocity=76 time=3
note_on channel=0 note=67 velocity=0 time=15
note_on channel=0 note=51 velocity=0 time=5
note_on channel=0 note=67 velocity=76 time=96
<meta message set_tempo tempo=506329 time=1>
note_on channel=0 note=51 velocity=75 time=2
note_on channel=0 note=50 velocity=0 time=16
note_on channel=0 note=65 velocity=0 time=5
note_on channel=0 note=67 velocity=0 time=96
note_on channel=0 note=75 velocity=96 time=0
<meta message set_tempo tempo=515021 time=1>
note_on channel=0 note=48 velocity=88 time=1
note_on channel=0 note=51 velocity=0 time=1
<meta message set_tempo tempo=452830 time=118>
note_on channel=0 note=68 velocity=80 time=1
note_on channel=0 note=60 velocity=75 time=1
note_on channel=0 note=75 velocity=0 time=17
note_on channel=0 note=48 velocity=0 time=2
note_on channel=0 note=67 velocity=76 time=101
note_on channel=0 note=58 velocity=75 time=0
note_on channel=0 note=68 velocity=0 time=19
note_on channel=0 note=60 velocity=0 time=1
<meta message set_tempo tempo=485830 time=98>
note_on channel=0 note=60 velocity=75 time=1
note_on channel=0 note=68 velocity=76 time=2
note_on channel=0 note=67 velocity=0 time=19
note_on channel=0 note=58 velocity=0 time=0
<meta message set_tempo tempo=474308 time=98>
note_on channel=0 note=63 velocity=80 time=2
note_on channel=0 note=56 velocity=80 time=0
note_on channel=0 note=60 velocity=0 time=19
note_on channel=0 note=68 velocity=0 time=2
note_on channel=0 note=60 velocity=75 time=95
<meta message set_tempo tempo=449438 time=2>
note_on channel=0 note=68 velocity=75 time=0
note_on channel=0 note=63 velocity=0 time=22
note_on channel=0 note=56 velocity=0 time=0
note_on channel=0 note=67 velocity=75 time=97
note_on channel=0 note=58 velocity=75 time=3
note_on channel=0 note=60 velocity=0 time=16
note_on channel=0 note=68 velocity=0 time=2
<meta message set_tempo tempo=487805 time=100>
note_on channel=0 note=68 velocity=76 time=2
note_on channel=0 note=60 velocity=74 time=0
note_on channel=0 note=67 velocity=0 time=17
note_on channel=0 note=58 velocity=0 time=3
<meta message set_tempo tempo=476190 time=78>
<meta message set_tempo tempo=478088 time=20>
note_on channel=0 note=75 velocity=96 time=0
note_on channel=0 note=68 velocity=0 time=2
note_on channel=0 note=60 velocity=0 time=0
note_on channel=0 note=48 velocity=88 time=0
note_on channel=0 note=60 velocity=76 time=116
<meta message set_tempo tempo=452830 time=2>
note_on channel=0 note=68 velocity=80 time=0
note_on channel=0 note=75 velocity=0 time=20
note_on channel=0 note=48 velocity=0 time=2
note_on channel=0 note=67 velocity=75 time=101
note_on channel=0 note=58 velocity=76 time=0
note_on channel=0 note=60 velocity=0 time=15
note_on channel=0 note=68 velocity=0 time=2
<meta message set_tempo tempo=472441 time=100>
note_on channel=0 note=60 velocity=76 time=1
note_on channel=0 note=68 velocity=75 time=1
note_on channel=0 note=67 velocity=0 time=21
note_on channel=0 note=58 velocity=0 time=0
note_on channel=0 note=63 velocity=80 time=95
<meta message set_tempo tempo=474308 time=2>
note_on channel=0 note=56 velocity=80 time=2
note_on channel=0 note=60 velocity=0 time=19
note_on channel=0 note=68 velocity=0 time=1
note_on channel=0 note=60 velocity=75 time=96
<meta message set_tempo tempo=446097 time=2>
note_on channel=0 note=68 velocity=75 time=1
note_on channel=0 note=63 velocity=0 time=17
note_on channel=0 note=56 velocity=0 time=4
note_on channel=0 note=67 velocity=76 time=98
note_on channel=0 note=58 velocity=75 time=1
note_on channel=0 note=60 velocity=0 time=17
note_on channel=0 note=68 velocity=0 time=3
<meta message set_tempo tempo=485830 time=99>
note_on channel=0 note=68 velocity=76 time=2
note_on channel=0 note=60 velocity=75 time=1
note_on channel=0 note=67 velocity=0 time=17
note_on channel=0 note=58 velocity=0 time=1
note_on channel=0 note=48 velocity=88 time=97
<meta message set_tempo tempo=485830 time=2>
note_on channel=0 note=74 velocity=96 time=1
note_on channel=0 note=68 velocity=0 time=1
note_on channel=0 note=60 velocity=0 time=1
<meta message set_tempo tempo=512821 time=17>
note_on channel=0 note=57 velocity=76 time=99
<meta message set_tempo tempo=442804 time=1>
note_on channel=0 note=66 velocity=80 time=1
note_on channel=0 note=48 velocity=0 time=17
note_on channel=0 note=74 velocity=0 time=3
note_on channel=0 note=55 velocity=76 time=97
note_on channel=0 note=64 velocity=76 time=2
note_on channel=0 note=57 velocity=0 time=19
note_on channel=0 note=66 velocity=0 time=2
note_on channel=0 note=66 velocity=76 time=97
<meta message set_tempo tempo=483871 time=2>
note_on channel=0 note=57 velocity=76 time=3
note_on channel=0 note=55 velocity=0 time=15
note_on channel=0 note=64 velocity=0 time=2
note_on channel=0 note=62 velocity=80 time=99
<meta message set_tempo tempo=480000 time=1>
note_on channel=0 note=54 velocity=80 time=1
note_on channel=0 note=66 velocity=0 time=17
note_on channel=0 note=57 velocity=0 time=5
note_on channel=0 note=57 velocity=75 time=96
<meta message set_tempo tempo=434783 time=1>
note_on channel=0 note=66 velocity=76 time=0
note_on channel=0 note=62 velocity=0 time=19
note_on channel=0 note=54 velocity=0 time=2
<meta message set_tempo tempo=428571 time=99>
note_on channel=0 note=64 velocity=76 time=2
note_on channel=0 note=55 velocity=75 time=1
note_on channel=0 note=57 velocity=0 time=16
note_on channel=0 note=66 velocity=0 time=1
<meta message set_tempo tempo=468750 time=100>
note_on channel=0 note=57 velocity=75 time=0
note_on channel=0 note=66 velocity=76 time=1
note_on channel=0 note=64 velocity=0 time=21
note_on channel=0 note=55 velocity=0 time=1
<meta message set_tempo tempo=480000 time=97>
note_on channel=0 note=57 velocity=0 time=0
note_on channel=0 note=66 velocity=0 time=1
note_on channel=0 note=48 velocity=88 time=1
note_on channel=0 note=74 velocity=96 time=1
<meta message set_tempo tempo=463320 time=17>
note_on channel=0 note=57 velocity=75 time=99
<meta message set_tempo tempo=441176 time=1>
note_on channel=0 note=66 velocity=80 time=2
note_on channel=0 note=48 velocity=0 time=20
note_on channel=0 note=74 velocity=0 time=1
note_on channel=0 note=55 velocity=75 time=95
note_on channel=0 note=64 velocity=75 time=2
note_on channel=0 note=57 velocity=0 time=19
note_on channel=0 note=66 velocity=0 time=3
note_on channel=0 note=66 velocity=75 time=97
note_on channel=0 note=57 velocity=75 time=0
<meta message set_tempo tempo=465116 time=1>
note_on channel=0 note=55 velocity=0 time=18
note_on channel=0 note=64 velocity=0 time=2
<meta message set_tempo tempo=465116 time=100>
note_on channel=0 note=62 velocity=80 time=1
note_on channel=0 note=54 velocity=80 time=0
note_on channel=0 note=66 velocity=0 time=18
note_on channel=0 note=57 velocity=0 time=0
<meta message set_tempo tempo=436364 time=101>
note_on channel=0 note=66 velocity=76 time=0
note_on channel=0 note=57 velocity=74 time=3
note_on channel=0 note=62 velocity=0 time=18
note_on channel=0 note=54 velocity=0 time=0
note_on channel=0 note=64 velocity=77 time=97
note_on channel=0 note=55 velocity=74 time=0
note_on channel=0 note=66 velocity=0 time=22
note_on channel=0 note=57 velocity=0 time=3
<meta message set_tempo tempo=480000 time=97>
note_on channel=0 note=66 velocity=77 time=2
note_on channel=0 note=57 velocity=74 time=1
note_on channel=0 note=64 velocity=0 time=15
note_on channel=0 note=55 velocity=0 time=0
<meta message set_tempo tempo=502092 time=102>
note_on channel=0 note=46 velocity=88 time=0
note_on channel=0 note=74 velocity=96 time=1
note_on channel=0 note=66 velocity=0 time=1
note_on channel=0 note=57 velocity=0 time=1
note_on channel=0 note=67 velocity=80 time=115
note_on channel=0 note=58 velocity=75 time=0
<meta message set_tempo tempo=439560 time=2>
note_on channel=0 note=46 velocity=0 time=20
note_on channel=0 note=74 velocity=0 time=1
note_on channel=0 note=57 velocity=75 time=101
note_on channel=0 note=66 velocity=75 time=1
note_on channel=0 note=67 velocity=0 time=15
note_on channel=0 note=58 velocity=0 time=0
note_on channel=0 note=67 velocity=75 time=100
note_on channel=0 note=58 velocity=75 time=1
<meta message set_tempo tempo=481928 time=1>
note_on channel=0 note=57 velocity=0 time=22
note_on channel=0 note=66 velocity=0 time=1
<meta message set_tempo tempo=463320 time=97>
note_on channel=0 note=62 velocity=80 time=3
note_on channel=0 note=55 velocity=80 time=0
note_on channel=0 note=67 velocity=0 time=15
note_on channel=0 note=58 velocity=0 time=1
<meta message set_tempo tempo=441176 time=101>
note_on channel=0 note=67 velocity=75 time=2
note_on channel=0 note=58 velocity=74 time=0
note_on channel=0 note=62 velocity=0 time=21
note_on channel=0 note=55 velocity=0 time=0
note_on channel=0 note=66 velocity=75 time=96
note_on channel=0 note=57 velocity=74 time=4
note_on channel=0 note=67 velocity=0 time=19
note_on channel=0 note=58 velocity=0 time=0
note_on channel=0 note=58 velocity=74 time=97
<meta message set_tempo tempo=472441 time=1>
note_on channel=0 note=67 velocity=75 time=0
note_on channel=0 note=66 velocity=0 time=19
note_on channel=0 note=57 velocity=0 time=4
note_on channel=0 note=74 velocity=96 time=95
note_on channel=0 note=58 velocity=0 time=1
<meta message set_tempo tempo=468750 time=1>
note_on channel=0 note=67 velocity=0 time=0
note_on channel=0 note=46 velocity=88 time=0
note_on channel=0 note=58 velocity=74 time=118
<meta message set_tempo tempo=441176 time=2>
note_on channel=0 note=67 velocity=80 time=3
note_on channel=0 note=74 velocity=0 time=15
note_on channel=0 note=46 velocity=0 time=2
note_on channel=0 note=66 velocity=76 time=102
note_on channel=0 note=57 velocity=74 time=0
note_on channel=0 note=58 velocity=0 time=16
note_on channel=0 note=67 velocity=0 time=5
note_on channel=0 note=67 velocity=77 time=95
note_on channel=0 note=58 velocity=74 time=0
<meta message set_tempo tempo=465116 time=2>
<meta message set_tempo tempo=465116 time=20>
note_on channel=0 note=66 velocity=0 time=2
note_on channel=0 note=57 velocity=0 time=0
<meta message set_tempo tempo=465116 time=98>
note_on channel=0 note=55 velocity=80 time=0
note_on channel=0 note=62 velocity=80 time=3
note_on channel=0 note=67 velocity=0 time=15
note_on channel=0 note=58 velocity=0 time=0
note_on channel=0 note=58 velocity=74 time=101
<meta message set_tempo tempo=428571 time=1>
note_on channel=0 note=67 velocity=75 time=2
note_on channel=0 note=55 velocity=0 time=18
note_on channel=0 note=62 velocity=0 time=3
note_on channel=0 note=66 velocity=75 time=98
note_on channel=0 note=57 velocity=74 time=2
note_on channel=0 note=58 velocity=0 time=16
note_on channel=0 note=67 velocity=0 time=3
note_on channel=0 note=58 velocity=74 time=96
note_on channel=0 note=67 velocity=74 time=1
<meta message set_tempo tempo=483871 time=1>
note_on channel=0 note=66 velocity=0 time=21
note_on channel=0 note=57 velocity=0 time=2
note_on channel=0 note=58 velocity=0 time=95
note_on channel=0 note=67 velocity=0 time=1
note_on channel=0 note=72 velocity=96 time=0
note_on channel=0 note=46 velocity=88 time=0
<meta message set_tempo tempo=480000 time=1>
note_on channel=0 note=55 velocity=75 time=119
<meta message set_tempo tempo=428571 time=1>
note_on channel=0 note=64 velocity=80 time=2
note_on channel=0 note=46 velocity=0 time=17
note_on channel=0 note=72 velocity=0 time=0
note_on channel=0 note=53 velocity=75 time=100
note_on channel=0 note=62 velocity=76 time=1
note_on channel=0 note=55 velocity=0 time=19
note_on channel=0 note=64 velocity=0 time=3
note_on channel=0 note=64 velocity=76 time=96
note_on channel=0 note=55 velocity=75 time=0
<meta message set_tempo tempo=465116 time=2>
note_on channel=0 note=53 velocity=0 time=19
note_on channel=0 note=62 velocity=0 time=1
<meta message set_tempo tempo=470588 time=100>
note_on channel=0 note=60 velocity=80 time=1
note_on channel=0 note=52 velocity=80 time=0
note_on channel=0 note=64 velocity=0 time=17
note_on channel=0 note=55 velocity=0 time=0
<meta message set_tempo tempo=444444 time=102>
note_on channel=0 note=64 velocity=76 time=2
note_on channel=0 note=55 velocity=74 time=1
note_on channel=0 note=60 velocity=0 time=18
note_on channel=0 note=52 velocity=0 time=0
note_on channel=0 note=62 velocity=76 time=99
note_on channel=0 note=53 velocity=74 time=3
note_on channel=0 note=64 velocity=0 time=19
note_on channel=0 note=55 velocity=0 time=1
note_on channel=0 note=64 velocity=75 time=96
note_on channel=0 note=55 velocity=74 time=0
<meta message set_tempo tempo=468750 time=1>
note_on channel=0 note=62 velocity=0 time=20
note_on channel=0 note=53 velocity=0 time=3
note_on channel=0 note=64 velocity=0 time=96
note_on channel=0 note=55 velocity=0 time=0
<meta message set_tempo tempo=461538 time=1>
note_on channel=0 note=72 velocity=96 time=1
note_on channel=0 note=46 velocity=88 time=1
<meta message set_tempo tempo=437956 time=118>
note_on channel=0 note=55 velocity=73 time=1
note_on channel=0 note=64 velocity=80 time=1
note_on channel=0 note=72 velocity=0 time=19
note_on channel=0 note=46 velocity=0 time=1
note_on channel=0 note=53 velocity=73 time=99
note_on channel=0 note=62 velocity=76 time=1
note_on channel=0 note=55 velocity=0 time=19
note_on channel=0 note=64 velocity=0 time=1
<meta message set_tempo tempo=465116 time=98>
note_on channel=0 note=64 velocity=76 time=2
note_on channel=0 note=55 velocity=73 time=1
note_on channel=0 note=53 velocity=0 time=18
note_on channel=0 note=62 velocity=0 time=1
<meta message set_tempo tempo=463320 time=98>
note_on channel=0 note=60 velocity=80 time=0
note_on channel=0 note=52 velocity=80 time=0
note_on channel=0 note=64 velocity=0 time=22
note_on channel=0 note=55 velocity=0 time=1
note_on channel=0 note=64 velocity=75 time=95
<meta message set_tempo tempo=439560 time=2>
note_on channel=0 note=55 velocity=73 time=3
note_on channel=0 note=60 velocity=0 time=17
note_on channel=0 note=52 velocity=0 time=0
note_on channel=0 note=62 velocity=75 time=100
note_on channel=0 note=53 velocity=73 time=1
note_on channel=0 note=64 velocity=0 time=17
note_on channel=0 note=55 velocity=0 time=5
note_on channel=0 note=55 velocity=73 time=95
<meta message set_tempo tempo=481928 time=2>
note_on channel=0 note=64 velocity=75 time=3
note_on channel=0 note=62 velocity=0 time=17
note_on channel=0 note=53 velocity=0 time=1
note_on channel=0 note=55 velocity=0 time=97
note_on channel=0 note=72 velocity=96 time=0
<meta message set_tempo tempo=517241 time=2>
note_on channel=0 note=44 velocity=88 time=1
note_on channel=0 note=64 velocity=0 time=2
<meta message set_tempo tempo=442804 time=117>
note_on channel=0 note=65 velocity=80 time=1
note_on channel=0 note=56 velocity=73 time=0
note_on channel=0 note=72 velocity=0 time=17
note_on channel=0 note=44 velocity=0 time=3
note_on channel=0 note=55 velocity=73 time=99
note_on channel=0 note=64 velocity=76 time=1
note_on channel=0 note=65 velocity=0 time=20
note_on channel=0 note=56 velocity=0 time=0
<meta message set_tempo tempo=465116 time=99>
note_on channel=0 note=65 velocity=76 time=0
note_on channel=0 note=56 velocity=73 time=3
note_on channel=0 note=55 velocity=0 time=17
note_on channel=0 note=64 velocity=0 time=1
note_on channel=0 note=60 velocity=80 time=97
<meta message set_tempo tempo=465116 time=2>
note_on channel=0 note=53 velocity=80 time=1
note_on channel=0 note=65 velocity=0 time=19
note_on channel=0 note=56 velocity=0 time=3
<meta message set_tempo tempo=441176 time=97>
note_on channel=0 note=56 velocity=73 time=1
note_on channel=0 note=65 velocity=74 time=2
note_on channel=0 note=60 velocity=0 time=15
note_on channel=0 note=53 velocity=0 time=3
note_on channel=0 note=55 velocity=73 time=100
note_on channel=0 note=64 velocity=74 time=2
note_on channel=0 note=56 velocity=0 time=18
note_on channel=0 note=65 velocity=0 time=2
note_on channel=0 note=56 velocity=74 time=96
<meta message set_tempo tempo=481928 time=1>
note_on channel=0 note=65 velocity=74 time=1
note_on channel=0 note=55 velocity=0 time=20
note_on channel=0 note=64 velocity=0 time=2
note_on channel=0 note=56 velocity=0 time=96
<meta message set_tempo tempo=481928 time=1>
note_on channel=0 note=72 velocity=96 time=0
note_on channel=0 note=44 velocity=88 time=0
note_on channel=0 note=65 velocity=0 time=1
<meta message set_tempo tempo=444444 time=119>
note_on channel=0 note=65 velocity=80 time=0
note_on channel=0 note=56 velocity=75 time=0
note_on channel=0 note=44 velocity=0 time=20
note_on channel=0 note=72 velocity=0 time=0
note_on channel=0 note=55 velocity=76 time=98
note_on channel=0 note=64 velocity=75 time=2
note_on channel=0 note=65 velocity=0 time=20
note_on channel=0 note=56 velocity=0 time=0
<meta message set_tempo tempo=468750 time=100>
note_on channel=0 note=56 velocity=74 time=2
note_on channel=0 note=65 velocity=75 time=1
note_on channel=0 note=55 velocity=0 time=15
note_on channel=0 note=64 velocity=0 time=2
note_on channel=0 note=60 velocity=80 time=99
note_on channel=0 note=53 velocity=80 time=0
<meta message set_tempo tempo=468750 time=1>
note_on channel=0 note=56 velocity=0 time=22
note_on channel=0 note=65 velocity=0 time=1
note_on channel=0 note=56 velocity=74 time=95
<meta message set_tempo tempo=433213 time=2>
note_on channel=0 note=65 velocity=75 time=0
note_on channel=0 note=60 velocity=0 time=19
note_on channel=0 note=53 velocity=0 time=0
note_on channel=0 note=64 velocity=75 time=100
note_on channel=0 note=55 velocity=74 time=1
note_on channel=0 note=56 velocity=0 time=18
note_on channel=0 note=65 velocity=0 time=2
<meta message set_tempo tempo=493827 time=100>
note_on channel=0 note=56 velocity=74 time=1
note_on channel=0 note=65 velocity=75 time=2
note_on channel=0 note=64 velocity=0 time=16
note_on channel=0 note=55 velocity=0 time=1
note_on channel=0 note=44 velocity=88 time=98
note_on channel=0 note=70 velocity=96 time=1
<meta message set_tempo tempo=517241 time=1>
note_on channel=0 note=56 velocity=0 time=1
note_on channel=0 note=65 velocity=0 time=2
note_on channel=0 note=50 velocity=75 time=116
<meta message set_tempo tempo=441176 time=1>
note_on channel=0 note=65 velocity=80 time=2
note_on channel=0 note=44 velocity=0 time=16
note_on channel=0 note=70 velocity=0 time=1
note_on channel=0 note=48 velocity=75 time=99
note_on channel=0 note=63 velocity=76 time=3
note_on channel=0 note=50 velocity=0 time=18
note_on channel=0 note=65 velocity=0 time=3
note_on channel=0 note=65 velocity=76 time=97
<meta message set_tempo tempo=465116 time=1>
note_on channel=0 note=50 velocity=75 time=1
note_on channel=0 note=48 velocity=0 time=17
note_on channel=0 note=63 velocity=0 time=3
<meta message set_tempo tempo=461538 time=99>
note_on channel=0 note=53 velocity=79 time=0
note_on channel=0 note=62 velocity=79 time=2
note_on channel=0 note=65 velocity=0 time=17
note_on channel=0 note=50 velocity=0 time=2
<meta message set_tempo tempo=449438 time=99>
note_on channel=0 note=50 velocity=74 time=1
note_on channel=0 note=65 velocity=75 time=2
note_on channel=0 note=53 velocity=0 time=17
note_on channel=0 note=62 velocity=0 time=2
note_on channel=0 note=63 velocity=74 time=98
note_on channel=0 note=48 velocity=74 time=2
note_on channel=0 note=50 velocity=0 time=19
note_on channel=0 note=65 velocity=0 time=2
<meta message set_tempo tempo=466926 time=97>
note_on channel=0 note=50 velocity=74 time=0
note_on channel=0 note=65 velocity=74 time=1
note_on channel=0 note=63 velocity=0 time=19
note_on channel=0 note=48 velocity=0 time=2
<meta message set_tempo tempo=466926 time=98>
note_on channel=0 note=50 velocity=0 time=0
note_on channel=0 note=65 velocity=0 time=1
note_on channel=0 note=44 velocity=86 time=1
note_on channel=0 note=70 velocity=94 time=1
note_on channel=0 note=65 velocity=78 time=115
<meta message set_tempo tempo=451128 time=2>
note_on channel=0 note=50 velocity=73 time=0
note_on channel=0 note=44 velocity=0 time=22
note_on channel=0 note=70 velocity=0 time=1
note_on channel=0 note=63 velocity=74 time=100
note_on channel=0 note=48 velocity=72 time=0
note_on channel=0 note=65 velocity=0 time=15
note_on channel=0 note=50 velocity=0 time=2
<meta message set_tempo tempo=463320 time=100>
note_on channel=0 note=65 velocity=74 time=1
note_on channel=0 note=50 velocity=77 time=0
note_on channel=0 note=63 velocity=0 time=22
note_on channel=0 note=48 velocity=0 time=0
note_on channel=0 note=62 velocity=77 time=95
note_on channel=0 note=53 velocity=77 time=1
<meta message set_tempo tempo=461538 time=1>
note_on channel=0 note=65 velocity=0 time=21
note_on channel=0 note=50 velocity=0 time=0
<meta message set_tempo tempo=447761 time=99>
note_on channel=0 note=65 velocity=76 time=1
note_on channel=0 note=50 velocity=72 time=2
note_on channel=0 note=62 velocity=0 time=15
note_on channel=0 note=53 velocity=0 time=1
note_on channel=0 note=63 velocity=73 time=100
note_on channel=0 note=48 velocity=72 time=4
note_on channel=0 note=65 velocity=0 time=18
note_on channel=0 note=50 velocity=0 time=2
<meta message set_tempo tempo=465116 time=97>
note_on channel=0 note=50 velocity=72 time=0
note_on channel=0 note=65 velocity=72 time=3
note_on channel=0 note=63 velocity=0 time=16
note_on channel=0 note=48 velocity=0 time=4
<meta message set_tempo tempo=506329 time=97>
note_on channel=0 note=50 velocity=0 time=0
note_on channel=0 note=70 velocity=91 time=1
note_on channel=0 note=65 velocity=0 time=2
note_on channel=0 note=43 velocity=83 time=0
note_on channel=0 note=51 velocity=72 time=116
<meta message set_tempo tempo=446097 time=1>
note_on channel=0 note=67 velocity=76 time=1
note_on channel=0 note=70 velocity=0 time=20
note_on channel=0 note=43 velocity=0 time=2
note_on channel=0 note=65 velocity=72 time=96
note_on channel=0 note=50 velocity=72 time=4
note_on channel=0 note=51 velocity=0 time=16
note_on channel=0 note=67 velocity=0 time=2
<meta message set_tempo tempo=468750 time=99>
note_on channel=0 note=51 velocity=72 time=1
note_on channel=0 note=67 velocity=72 time=2
note_on channel=0 note=65 velocity=0 time=16
note_on channel=0 note=50 velocity=0 time=4
note_on channel=0 note=63 velocity=75 time=95
<meta message set_tempo tempo=470588 time=2>
note_on channel=0 note=55 velocity=75 time=0
note_on channel=0 note=51 velocity=0 time=21
note_on channel=0 note=67 velocity=0 time=2
note_on channel=0 note=67 velocity=72 time=95
<meta message set_tempo tempo=446097 time=2>
note_on channel=0 note=51 velocity=70 time=1
note_on channel=0 note=63 velocity=0 time=17
note_on channel=0 note=55 velocity=0 time=2
note_on channel=0 note=65 velocity=72 time=102
note_on channel=0 note=50 velocity=70 time=0
note_on channel=0 note=67 velocity=0 time=16
note_on channel=0 note=51 velocity=0 time=3
note_on channel=0 note=51 velocity=70 time=97
note_on channel=0 note=67 velocity=71 time=1
<meta message set_tempo tempo=468750 time=1>
note_on channel=0 note=65 velocity=0 time=22
note_on channel=0 note=50 velocity=0 time=0
note_on channel=0 note=51 velocity=0 time=96
note_on channel=0 note=67 velocity=0 time=1
note_on channel=0 note=43 velocity=81 time=0
<meta message set_tempo tempo=468750 time=1>
note_on channel=0 note=70 velocity=89 time=3
note_on channel=0 note=67 velocity=74 time=116
note_on channel=0 note=51 velocity=69 time=0
note_on channel=0 note=43 velocity=0 time=20
<meta message set_tempo tempo=451128 time=1>
note_on channel=0 note=70 velocity=0 time=3
note_on channel=0 note=65 velocity=69 time=97
note_on channel=0 note=50 velocity=69 time=0
note_on channel=0 note=67 velocity=0 time=19
note_on channel=0 note=51 velocity=0 time=0
note_on channel=0 note=67 velocity=69 time=99
<meta message set_tempo tempo=468750 time=2>
note_on channel=0 note=51 velocity=69 time=3
note_on channel=0 note=65 velocity=0 time=17
note_on channel=0 note=50 velocity=0 time=0
<meta message set_tempo tempo=461538 time=100>
note_on channel=0 note=63 velocity=73 time=2
note_on channel=0 note=55 velocity=73 time=0
note_on channel=0 note=67 velocity=0 time=16
note_on channel=0 note=51 velocity=0 time=5
<meta message set_tempo tempo=451128 time=97>
note_on channel=0 note=51 velocity=67 time=2
note_on channel=0 note=67 velocity=68 time=1
note_on channel=0 note=63 velocity=0 time=19
note_on channel=0 note=55 velocity=0 time=0
note_on channel=0 note=65 velocity=68 time=100
note_on channel=0 note=50 velocity=66 time=1
note_on channel=0 note=51 velocity=0 time=19
note_on channel=0 note=67 velocity=0 time=1
<meta message set_tempo tempo=481928 time=97>
note_on channel=0 note=51 velocity=66 time=0
note_on channel=0 note=67 velocity=68 time=1
note_on channel=0 note=65 velocity=0 time=21
note_on channel=0 note=50 velocity=0 time=1
<meta message set_tempo tempo=517241 time=97>
note_on channel=0 note=51 velocity=0 time=0
note_on channel=0 note=48 velocity=79 time=0
note_on channel=0 note=67 velocity=0 time=1
note_on channel=0 note=68 velocity=86 time=1
note_on channel=0 note=67 velocity=72 time=117
<meta message set_tempo tempo=446097 time=1>
note_on channel=0 note=51 velocity=69 time=3
note_on channel=0 note=48 velocity=0 time=17
note_on channel=0 note=68 velocity=0 time=2
note_on channel=0 note=65 velocity=68 time=96
note_on channel=0 note=50 velocity=69 time=1
note_on channel=0 note=67 velocity=0 time=20
note_on channel=0 note=51 velocity=0 time=4
note_on channel=0 note=67 velocity=68 time=95
<meta message set_tempo tempo=470588 time=2>
note_on channel=0 note=51 velocity=65 time=0
note_on channel=0 note=65 velocity=0 time=18
note_on channel=0 note=50 velocity=0 time=1
note_on channel=0 note=63 velocity=71 time=99
<meta message set_tempo tempo=470588 time=2>
note_on channel=0 note=56 velocity=71 time=1
note_on channel=0 note=67 velocity=0 time=17
note_on channel=0 note=51 velocity=0 time=2
<meta message set_tempo tempo=451128 time=100>
note_on channel=0 note=51 velocity=65 time=0
note_on channel=0 note=67 velocity=67 time=2
note_on channel=0 note=63 velocity=0 time=16
note_on channel=0 note=56 velocity=0 time=3
note_on channel=0 note=50 velocity=63 time=101
note_on channel=0 note=65 velocity=67 time=1
note_on channel=0 note=51 velocity=0 time=17
note_on channel=0 note=67 velocity=0 time=2
note_on channel=0 note=67 velocity=66 time=97
<meta message set_tempo tempo=470588 time=1>
note_on channel=0 note=51 velocity=63 time=2
note_on channel=0 note=50 velocity=0 time=20
note_on channel=0 note=65 velocity=0 time=1
note_on channel=0 note=68 velocity=84 time=95
note_on channel=0 note=67 velocity=0 time=1
<meta message set_tempo tempo=472441 time=1>
note_on channel=0 note=51 velocity=0 time=2
note_on channel=0 note=48 velocity=77 time=0
<meta message set_tempo tempo=456274 time=118>
note_on channel=0 note=67 velocity=70 time=1
note_on channel=0 note=51 velocity=64 time=1
note_on channel=0 note=68 velocity=0 time=16
note_on channel=0 note=48 velocity=0 time=4
note_on channel=0 note=65 velocity=65 time=96
note_on channel=0 note=50 velocity=64 time=0
note_on channel=0 note=67 velocity=0 time=23
note_on channel=0 note=51 velocity=0 time=1
note_on channel=0 note=67 velocity=65 time=96
note_on channel=0 note=51 velocity=64 time=1
<meta message set_tempo tempo=468750 time=1>
note_on channel=0 note=65 velocity=0 time=18
note_on channel=0 note=50 velocity=0 time=0
<meta message set_tempo tempo=468750 time=2>
note_on channel=0 note=56 velocity=69 time=99
<meta message set_tempo tempo=461538 time=1>
note_on channel=0 note=63 velocity=69 time=0
note_on channel=0 note=67 velocity=0 time=18
note_on channel=0 note=51 velocity=0 time=1
<meta message set_tempo tempo=431655 time=101>
note_on channel=0 note=67 velocity=63 time=2
note_on channel=0 note=51 velocity=61 time=0
note_on channel=0 note=56 velocity=0 time=17
note_on channel=0 note=63 velocity=0 time=1
note_on channel=0 note=65 velocity=63 time=102
note_on channel=0 note=50 velocity=61 time=1
note_on channel=0 note=67 velocity=0 time=19
note_on channel=0 note=51 velocity=0 time=0
<meta message set_tempo tempo=493827 time=98>
note_on channel=0 note=51 velocity=61 time=0
note_on channel=0 note=67 velocity=63 time=1
note_on channel=0 note=65 velocity=0 time=21
note_on channel=0 note=50 velocity=0 time=1
<meta message set_tempo tempo=489796 time=77>
note_on channel=0 note=68 velocity=81 time=18
<meta message set_tempo tempo=510638 time=2>
note_on channel=0 note=51 velocity=0 time=0
note_on channel=0 note=67 velocity=0 time=1
note_on channel=0 note=50 velocity=74 time=0
note_on channel=0 note=53 velocity=59 time=117
<meta message set_tempo tempo=436364 time=2>
note_on channel=0 note=62 velocity=68 time=0
note_on channel=0 note=68 velocity=0 time=18
note_on channel=0 note=50 velocity=0 time=3
note_on channel=0 note=60 velocity=64 time=98
note_on channel=0 note=51 velocity=60 time=4
note_on channel=0 note=53 velocity=0 time=15
note_on channel=0 note=62 velocity=0 time=2
note_on channel=0 note=53 velocity=59 time=99
<meta message set_tempo tempo=466926 time=1>
note_on channel=0 note=62 velocity=64 time=2
note_on channel=0 note=60 velocity=0 time=17
note_on channel=0 note=51 velocity=0 time=4
note_on channel=0 note=58 velocity=67 time=96
<meta message set_tempo tempo=465116 time=1>
note_on channel=0 note=56 velocity=66 time=1
note_on channel=0 note=53 velocity=0 time=18
note_on channel=0 note=62 velocity=0 time=3
<meta message set_tempo tempo=439560 time=98>
note_on channel=0 note=62 velocity=61 time=0
note_on channel=0 note=53 velocity=59 time=1
note_on channel=0 note=58 velocity=0 time=18
note_on channel=0 note=56 velocity=0 time=2
note_on channel=0 note=60 velocity=61 time=98
note_on channel=0 note=51 velocity=59 time=1
note_on channel=0 note=62 velocity=0 time=20
note_on channel=0 note=53 velocity=0 time=1
<meta message set_tempo tempo=465116 time=99>
note_on channel=0 note=62 velocity=61 time=1
note_on channel=0 note=53 velocity=59 time=1
note_on channel=0 note=60 velocity=0 time=17
note_on channel=0 note=51 velocity=0 time=1
<meta message set_tempo tempo=465116 time=80>
note_on channel=0 note=50 velocity=73 time=18
<meta message set_tempo tempo=470588 time=2>
note_on channel=0 note=62 velocity=0 time=1
note_on channel=0 note=68 velocity=79 time=0
note_on channel=0 note=53 velocity=0 time=1
note_on channel=0 note=53 velocity=56 time=116
<meta message set_tempo tempo=449438 time=2>
note_on channel=0 note=62 velocity=60 time=1
note_on channel=0 note=50 velocity=0 time=17
note_on channel=0 note=68 velocity=0 time=3
note_on channel=0 note=60 velocity=57 time=97
note_on channel=0 note=51 velocity=55 time=0
note_on channel=0 note=53 velocity=0 time=20
note_on channel=0 note=62 velocity=0 time=3
note_on channel=0 note=53 velocity=55 time=97
<meta message set_tempo tempo=466926 time=2>
note_on channel=0 note=62 velocity=57 time=1
note_on channel=0 note=60 velocity=0 time=17
note_on channel=0 note=51 velocity=0 time=0
<meta message set_tempo tempo=468750 time=102>
note_on channel=0 note=56 velocity=61 time=0
note_on channel=0 note=58 velocity=60 time=3
note_on channel=0 note=53 velocity=0 time=15
note_on channel=0 note=62 velocity=0 time=3
note_on channel=0 note=53 velocity=56 time=98
<meta message set_tempo tempo=442804 time=1>
note_on channel=0 note=62 velocity=54 time=2
note_on channel=0 note=56 velocity=0 time=18
note_on channel=0 note=58 velocity=0 time=3
note_on channel=0 note=51 velocity=56 time=99
note_on channel=0 note=60 velocity=54 time=1
note_on channel=0 note=53 velocity=0 time=16
note_on channel=0 note=62 velocity=0 time=3
note_on channel=0 note=53 velocity=56 time=96
note_on channel=0 note=62 velocity=55 time=1
<meta message set_tempo tempo=493827 time=1>
note_on channel=0 note=51 velocity=0 time=22
note_on channel=0 note=60 velocity=0 time=1
note_on channel=0 note=53 velocity=0 time=95
note_on channel=0 note=62 velocity=0 time=1
<meta message set_tempo tempo=515021 time=1>
note_on channel=0 note=67 velocity=76 time=0
note_on channel=0 note=51 velocity=70 time=0
note_on channel=0 note=55 velocity=53 time=118
note_on channel=0 note=58 velocity=58 time=1
<meta message set_tempo tempo=442804 time=1>
note_on channel=0 note=51 velocity=0 time=20
note_on channel=0 note=67 velocity=0 time=0
note_on channel=0 note=53 velocity=53 time=102
note_on channel=0 note=56 velocity=54 time=1
note_on channel=0 note=55 velocity=0 time=15
note_on channel=0 note=58 velocity=0 time=1
<meta message set_tempo tempo=483871 time=101>
note_on channel=0 note=58 velocity=54 time=0
note_on channel=0 note=55 velocity=53 time=2
note_on channel=0 note=53 velocity=0 time=20
note_on channel=0 note=56 velocity=0 time=1
note_on channel=0 note=56 velocity=57 time=96
<meta message set_tempo tempo=470588 time=1>
note_on channel=0 note=63 velocity=64 time=3
note_on channel=0 note=58 velocity=0 time=17
note_on channel=0 note=55 velocity=0 time=2
note_on channel=0 note=58 velocity=54 time=96
<meta message set_tempo tempo=441176 time=2>
note_on channel=0 note=55 velocity=53 time=2
note_on channel=0 note=56 velocity=0 time=17
note_on channel=0 note=63 velocity=0 time=4
note_on channel=0 note=56 velocity=54 time=98
note_on channel=0 note=53 velocity=53 time=0
note_on channel=0 note=58 velocity=0 time=17
note_on channel=0 note=55 velocity=0 time=4
note_on channel=0 note=58 velocity=54 time=96
<meta message set_tempo tempo=476190 time=2>
note_on channel=0 note=55 velocity=53 time=1
note_on channel=0 note=56 velocity=0 time=20
note_on channel=0 note=53 velocity=0 time=0
note_on channel=0 note=58 velocity=0 time=97
<meta message set_tempo tempo=474308 time=2>
note_on channel=0 note=67 velocity=76 time=0
note_on channel=0 note=55 velocity=0 time=1
note_on channel=0 note=51 velocity=70 time=0
note_on channel=0 note=55 velocity=53 time=117
<meta message set_tempo tempo=436364 time=2>
note_on channel=0 note=58 velocity=57 time=3
note_on channel=0 note=67 velocity=0 time=17
note_on channel=0 note=51 velocity=0 time=1
note_on channel=0 note=56 velocity=53 time=97
note_on channel=0 note=53 velocity=53 time=3
note_on channel=0 note=55 velocity=0 time=17
note_on channel=0 note=58 velocity=0 time=5
note_on channel=0 note=55 velocity=53 time=95
<meta message set_tempo tempo=470588 time=2>
note_on channel=0 note=58 velocity=53 time=3
note_on channel=0 note=56 velocity=0 time=15
note_on channel=0 note=53 velocity=0 time=3
note_on channel=0 note=63 velocity=57 time=98
<meta message set_tempo tempo=476190 time=1>
note_on channel=0 note=56 velocity=56 time=3
note_on channel=0 note=55 velocity=0 time=15
note_on channel=0 note=58 velocity=0 time=5
note_on channel=0 note=58 velocity=53 time=96
<meta message set_tempo tempo=436364 time=1>
note_on channel=0 note=55 velocity=52 time=0
note_on channel=0 note=63 velocity=0 time=19
note_on channel=0 note=56 velocity=0 time=4
note_on channel=0 note=56 velocity=53 time=99
note_on channel=0 note=53 velocity=52 time=1
note_on channel=0 note=58 velocity=0 time=16
note_on channel=0 note=55 velocity=0 time=1
<meta message set_tempo tempo=483871 time=100>
note_on channel=0 note=58 velocity=53 time=0
note_on channel=0 note=55 velocity=52 time=2
note_on channel=0 note=56 velocity=0 time=20
note_on channel=0 note=53 velocity=0 time=1
note_on channel=0 note=65 velocity=76 time=96
<meta message set_tempo tempo=519481 time=1>
note_on channel=0 note=58 velocity=0 time=0
note_on channel=0 note=51 velocity=70 time=1
note_on channel=0 note=55 velocity=0 time=1
<meta message set_tempo tempo=427046 time=118>
note_on channel=0 note=60 velocity=58 time=1
note_on channel=0 note=57 velocity=52 time=1
note_on channel=0 note=65 velocity=0 time=17
note_on channel=0 note=51 velocity=0 time=2
note_on channel=0 note=58 velocity=53 time=100
note_on channel=0 note=55 velocity=52 time=1
note_on channel=0 note=60 velocity=0 time=19
note_on channel=0 note=57 velocity=0 time=1
<meta message set_tempo tempo=466926 time=98>
note_on channel=0 note=60 velocity=53 time=0
note_on channel=0 note=57 velocity=52 time=0
note_on channel=0 note=58 velocity=0 time=21
note_on channel=0 note=55 velocity=0 time=1
note_on channel=0 note=57 velocity=0 time=96
<meta message set_tempo tempo=463320 time=2>
note_on channel=0 note=57 velocity=58 time=0
note_on channel=0 note=53 velocity=55 time=0
note_on channel=0 note=60 velocity=0 time=20
note_on channel=0 note=57 velocity=52 time=98
<meta message set_tempo tempo=451128 time=2>
note_on channel=0 note=60 velocity=53 time=1
note_on channel=0 note=53 velocity=0 time=19
note_on channel=0 note=57 velocity=0 time=0
note_on channel=0 note=58 velocity=53 time=101
note_on channel=0 note=55 velocity=52 time=1
note_on channel=0 note=57 velocity=0 time=16
note_on channel=0 note=60 velocity=0 time=3
note_on channel=0 note=57 velocity=52 time=98
<meta message set_tempo tempo=468750 time=1>
note_on channel=0 note=60 velocity=53 time=3
<meta message set_tempo tempo=468750 time=17>
note_on channel=0 note=58 velocity=0 time=1
note_on channel=0 note=55 velocity=0 time=1
note_on channel=0 note=51 velocity=70 time=96
note_on channel=0 note=57 velocity=0 time=1
<meta message set_tempo tempo=468750 time=1>
note_on channel=0 note=65 velocity=76 time=2
note_on channel=0 note=60 velocity=0 time=1
note_on channel=0 note=57 velocity=51 time=116
<meta message set_tempo tempo=446097 time=1>
note_on channel=0 note=60 velocity=59 time=1
note_on channel=0 note=51 velocity=0 time=17
note_on channel=0 note=65 velocity=0 time=4
note_on channel=0 note=58 velocity=54 time=100
note_on channel=0 note=55 velocity=51 time=0
note_on channel=0 note=57 velocity=0 time=17
note_on channel=0 note=60 velocity=0 time=2
note_on channel=0 note=57 velocity=51 time=98
<meta message set_tempo tempo=463320 time=1>
note_on channel=0 note=60 velocity=54 time=1
note_on channel=0 note=58 velocity=0 time=21
note_on channel=0 note=55 velocity=0 time=0
note_on channel=0 note=57 velocity=0 time=95
note_on channel=0 note=53 velocity=56 time=2
<meta message set_tempo tempo=463320 time=1>
note_on channel=0 note=57 velocity=59 time=0
note_on channel=0 note=60 velocity=0 time=21
note_on channel=0 note=60 velocity=54 time=98
<meta message set_tempo tempo=447761 time=1>
note_on channel=0 note=57 velocity=51 time=0
note_on channel=0 note=53 velocity=0 time=19
note_on channel=0 note=57 velocity=0 time=1
note_on channel=0 note=55 velocity=51 time=98
note_on channel=0 note=58 velocity=54 time=4
note_on channel=0 note=60 velocity=0 time=17
note_on channel=0 note=57 velocity=0 time=1
<meta message set_tempo tempo=500000 time=100>
note_on channel=0 note=57 velocity=51 time=0
note_on channel=0 note=60 velocity=53 time=1
note_on channel=0 note=55 velocity=0 time=17
note_on channel=0 note=58 velocity=0 time=4
<meta message set_tempo tempo=538117 time=98>
note_on channel=0 note=57 velocity=0 time=0
note_on channel=0 note=60 velocity=0 time=1
note_on channel=0 note=50 velocity=70 time=0
note_on channel=0 note=65 velocity=76 time=2
note_on channel=0 note=62 velocity=60 time=116
<meta message set_tempo tempo=439560 time=1>
note_on channel=0 note=53 velocity=52 time=1
note_on channel=0 note=50 velocity=0 time=20
note_on channel=0 note=65 velocity=0 time=2
note_on channel=0 note=60 velocity=55 time=96
note_on channel=0 note=51 velocity=52 time=3
note_on channel=0 note=62 velocity=0 time=17
note_on channel=0 note=53 velocity=0 time=2
<meta message set_tempo tempo=466926 time=99>
note_on channel=0 note=53 velocity=52 time=0
note_on channel=0 note=62 velocity=55 time=1
note_on channel=0 note=60 velocity=0 time=18
note_on channel=0 note=51 velocity=0 time=3
<meta message set_tempo tempo=465116 time=98>
note_on channel=0 note=56 velocity=58 time=0
note_on channel=0 note=59 velocity=60 time=2
note_on channel=0 note=53 velocity=0 time=18
note_on channel=0 note=62 velocity=0 time=1
<meta message set_tempo tempo=449438 time=99>
note_on channel=0 note=62 velocity=55 time=1
note_on channel=0 note=53 velocity=52 time=2
note_on channel=0 note=56 velocity=0 time=17
note_on channel=0 note=59 velocity=0 time=2
note_on channel=0 note=60 velocity=55 time=98
note_on channel=0 note=51 velocity=52 time=3
note_on channel=0 note=62 velocity=0 time=18
note_on channel=0 note=53 velocity=0 time=2
<meta message set_tempo tempo=493827 time=97>
note_on channel=0 note=62 velocity=55 time=0
note_on channel=0 note=53 velocity=52 time=1
note_on channel=0 note=60 velocity=0 time=19
note_on channel=0 note=51 velocity=0 time=3
note_on channel=0 note=65 velocity=76 time=95
<meta message set_tempo tempo=493827 time=2>
note_on channel=0 note=62 velocity=0 time=0
note_on channel=0 note=53 velocity=0 time=1
note_on channel=0 note=50 velocity=70 time=2
note_on channel=0 note=53 velocity=54 time=115
<meta message set_tempo tempo=444444 time=2>
note_on channel=0 note=62 velocity=60 time=2
note_on channel=0 note=65 velocity=0 time=16
note_on channel=0 note=50 velocity=0 time=5
note_on channel=0 note=60 velocity=56 time=98
note_on channel=0 note=51 velocity=54 time=0
note_on channel=0 note=53 velocity=0 time=17
note_on channel=0 note=62 velocity=0 time=4
<meta message set_tempo tempo=465116 time=98>
note_on channel=0 note=62 velocity=56 time=1
note_on channel=0 note=53 velocity=54 time=2
note_on channel=0 note=60 velocity=0 time=18
note_on channel=0 note=51 velocity=0 time=0
<meta message set_tempo tempo=463320 time=99>
note_on channel=0 note=56 velocity=60 time=0
note_on channel=0 note=59 velocity=60 time=2
note_on channel=0 note=62 velocity=0 time=19
note_on channel=0 note=53 velocity=0 time=2
note_on channel=0 note=53 velocity=53 time=96
<meta message set_tempo tempo=431655 time=1>
note_on channel=0 note=62 velocity=55 time=2
note_on channel=0 note=56 velocity=0 time=18
note_on channel=0 note=59 velocity=0 time=2
note_on channel=0 note=60 velocity=55 time=96
note_on channel=0 note=51 velocity=54 time=1
note_on channel=0 note=53 velocity=0 time=20
note_on channel=0 note=62 velocity=0 time=3
note_on channel=0 note=53 velocity=54 time=96
<meta message set_tempo tempo=495868 time=2>
note_on channel=0 note=62 velocity=55 time=1
note_on channel=0 note=60 velocity=0 time=17
note_on channel=0 note=51 velocity=0 time=1
note_on channel=0 note=53 velocity=0 time=99
<meta message set_tempo tempo=521739 time=2>
note_on channel=0 note=62 velocity=0 time=1
note_on channel=0 note=48 velocity=70 time=0
note_on channel=0 note=65 velocity=76 time=2
<meta message set_tempo tempo=442804 time=117>
note_on channel=0 note=53 velocity=52 time=0
note_on channel=0 note=62 velocity=61 time=3
note_on channel=0 note=48 velocity=0 time=18
note_on channel=0 note=65 velocity=0 time=2
note_on channel=0 note=52 velocity=52 time=95
note_on channel=0 note=60 velocity=52 time=3
note_on channel=0 note=53 velocity=0 time=19
note_on channel=0 note=62 velocity=0 time=3
note_on channel=0 note=53 velocity=52 time=95
<meta message set_tempo tempo=465116 time=2>
note_on channel=0 note=62 velocity=54 time=2
note_on channel=0 note=52 velocity=0 time=16
note_on channel=0 note=60 velocity=0 time=3
note_on channel=0 note=59 velocity=61 time=97
<meta message set_tempo tempo=465116 time=2>
note_on channel=0 note=56 velocity=60 time=0
note_on channel=0 note=53 velocity=0 time=18
note_on channel=0 note=62 velocity=0 time=4
<meta message set_tempo tempo=446097 time=98>
note_on channel=0 note=62 velocity=55 time=2
note_on channel=0 note=53 velocity=53 time=1
note_on channel=0 note=59 velocity=0 time=15
note_on channel=0 note=56 velocity=0 time=2
note_on channel=0 note=60 velocity=55 time=103
note_on channel=0 note=52 velocity=53 time=0
note_on channel=0 note=62 velocity=0 time=19
note_on channel=0 note=53 velocity=0 time=1
note_on channel=0 note=62 velocity=55 time=96
<meta message set_tempo tempo=474308 time=1>
note_on channel=0 note=53 velocity=53 time=0
note_on channel=0 note=60 velocity=0 time=23
note_on channel=0 note=52 velocity=0 time=0
note_on channel=0 note=62 velocity=0 time=96
<meta message set_tempo tempo=468750 time=1>
note_on channel=0 note=53 velocity=0 time=0
note_on channel=0 note=65 velocity=76 time=1
note_on channel=0 note=48 velocity=70 time=1
note_on channel=0 note=62 velocity=61 time=117
<meta message set_tempo tempo=451128 time=1>
note_on channel=0 note=53 velocity=53 time=1
note_on channel=0 note=65 velocity=0 time=20
note_on channel=0 note=48 velocity=0 time=1
note_on channel=0 note=60 velocity=55 time=97
note_on channel=0 note=52 velocity=53 time=3
note_on channel=0 note=62 velocity=0 time=17
note_on channel=0 note=53 velocity=0 time=2
note_on channel=0 note=62 velocity=55 time=97
<meta message set_tempo tempo=472441 time=2>
note_on channel=0 note=53 velocity=53 time=3
note_on channel=0 note=60 velocity=0 time=16
note_on channel=0 note=52 velocity=0 time=3
<meta message set_tempo tempo=470588 time=98>
note_on channel=0 note=56 velocity=60 time=1
note_on channel=0 note=59 velocity=61 time=2
note_on channel=0 note=62 velocity=0 time=15
note_on channel=0 note=53 velocity=0 time=5
<meta message set_tempo tempo=451128 time=97>
note_on channel=0 note=53 velocity=53 time=1
note_on channel=0 note=62 velocity=54 time=2
note_on channel=0 note=56 velocity=0 time=18
note_on channel=0 note=59 velocity=0 time=2
note_on channel=0 note=52 velocity=53 time=95
note_on channel=0 note=60 velocity=54 time=4
note_on channel=0 note=53 velocity=0 time=19
note_on channel=0 note=62 velocity=0 time=2
note_on channel=0 note=62 velocity=54 time=95
<meta message set_tempo tempo=489796 time=2>
note_on channel=0 note=53 velocity=53 time=2
note_on channel=0 note=52 velocity=0 time=16
note_on channel=0 note=60 velocity=0 time=4
note_on channel=0 note=62 velocity=0 time=96
note_on channel=0 note=63 velocity=76 time=1
<meta message set_tempo tempo=519481 time=1>
note_on channel=0 note=48 velocity=70 time=0
note_on channel=0 note=53 velocity=0 time=2
note_on channel=0 note=60 velocity=61 time=116
<meta message set_tempo tempo=439560 time=2>
note_on channel=0 note=51 velocity=54 time=1
note_on channel=0 note=63 velocity=0 time=18
note_on channel=0 note=48 velocity=0 time=1
note_on channel=0 note=59 velocity=61 time=98
note_on channel=0 note=50 velocity=54 time=3
note_on channel=0 note=60 velocity=0 time=17
note_on channel=0 note=51 velocity=0 time=3
<meta message set_tempo tempo=461538 time=99>
note_on channel=0 note=60 velocity=55 time=1
note_on channel=0 note=51 velocity=54 time=0
note_on channel=0 note=59 velocity=0 time=17
note_on channel=0 note=50 velocity=0 time=3
<meta message set_tempo tempo=472441 time=99>
note_on channel=0 note=55 velocity=61 time=2
note_on channel=0 note=53 velocity=60 time=0
note_on channel=0 note=60 velocity=0 time=19
note_on channel=0 note=51 velocity=0 time=0
<meta message set_tempo tempo=441176 time=99>
note_on channel=0 note=60 velocity=55 time=1
note_on channel=0 note=51 velocity=54 time=1
note_on channel=0 note=55 velocity=0 time=20
note_on channel=0 note=53 velocity=0 time=0
note_on channel=0 note=59 velocity=55 time=98
note_on channel=0 note=50 velocity=54 time=0
note_on channel=0 note=60 velocity=0 time=21
note_on channel=0 note=51 velocity=0 time=1
note_on channel=0 note=51 velocity=54 time=96
<meta message set_tempo tempo=487805 time=2>
note_on channel=0 note=60 velocity=55 time=0
note_on channel=0 note=59 velocity=0 time=20
note_on channel=0 note=50 velocity=0 time=0
note_on channel=0 note=51 velocity=0 time=98
note_on channel=0 note=63 velocity=76 time=1
note_on channel=0 note=46 velocity=70 time=0
<meta message set_tempo tempo=489796 time=1>
note_on channel=0 note=60 velocity=0 time=0
<meta message set_tempo tempo=437956 time=120>
note_on channel=0 note=60 velocity=61 time=0
note_on channel=0 note=51 velocity=54 time=0
note_on channel=0 note=46 velocity=0 time=19
note_on channel=0 note=63 velocity=0 time=0
note_on channel=0 note=50 velocity=54 time=100
note_on channel=0 note=59 velocity=55 time=2
note_on channel=0 note=60 velocity=0 time=19
note_on channel=0 note=51 velocity=0 time=0
note_on channel=0 note=60 velocity=55 time=98
<meta message set_tempo tempo=463320 time=2>
note_on channel=0 note=51 velocity=54 time=2
note_on channel=0 note=50 velocity=0 time=17
note_on channel=0 note=59 velocity=0 time=2
note_on channel=0 note=55 velocity=61 time=98
<meta message set_tempo tempo=463320 time=1>
note_on channel=0 note=53 velocity=61 time=0
note_on channel=0 note=60 velocity=0 time=18
note_on channel=0 note=51 velocity=0 time=4
<meta message set_tempo tempo=447761 time=98>
note_on channel=0 note=60 velocity=55 time=2
note_on channel=0 note=51 velocity=53 time=1
note_on channel=0 note=55 velocity=0 time=16
note_on channel=0 note=53 velocity=0 time=1
note_on channel=0 note=50 velocity=53 time=98
note_on channel=0 note=59 velocity=55 time=1
note_on channel=0 note=60 velocity=0 time=23
note_on channel=0 note=51 velocity=0 time=1
<meta message set_tempo tempo=487805 time=97>
note_on channel=0 note=60 velocity=56 time=2
note_on channel=0 note=51 velocity=53 time=0
note_on channel=0 note=50 velocity=0 time=16
note_on channel=0 note=59 velocity=0 time=1
<meta message set_tempo tempo=510638 time=101>
note_on channel=0 note=44 velocity=70 time=1
note_on channel=0 note=60 velocity=0 time=1
note_on channel=0 note=51 velocity=0 time=0
note_on channel=0 note=53 velocity=76 time=1
<meta message set_tempo tempo=425532 time=117>
note_on channel=0 note=63 velocity=64 time=3
note_on channel=0 note=48 velocity=54 time=0
note_on channel=0 note=44 velocity=0 time=18
note_on channel=0 note=53 velocity=0 time=2
note_on channel=0 note=47 velocity=53 time=96
note_on channel=0 note=62 velocity=57 time=3
note_on channel=0 note=63 velocity=0 time=21
note_on channel=0 note=48 velocity=0 time=0
<meta message set_tempo tempo=465116 time=77>
note_on channel=0 note=63 velocity=57 time=19
<meta message set_tempo tempo=465116 time=1>
note_on channel=0 note=48 velocity=53 time=1
note_on channel=0 note=47 velocity=0 time=18
note_on channel=0 note=62 velocity=0 time=3
<meta message set_tempo tempo=474308 time=98>
note_on channel=0 note=65 velocity=64 time=3
note_on channel=0 note=50 velocity=64 time=0
note_on channel=0 note=63 velocity=0 time=16
note_on channel=0 note=48 velocity=0 time=2
note_on channel=0 note=63 velocity=58 time=97
<meta message set_tempo tempo=442804 time=2>
note_on channel=0 note=48 velocity=54 time=2
note_on channel=0 note=65 velocity=0 time=21
note_on channel=0 note=50 velocity=0 time=0
note_on channel=0 note=62 velocity=58 time=95
note_on channel=0 note=47 velocity=54 time=5
note_on channel=0 note=63 velocity=0 time=15
note_on channel=0 note=48 velocity=0 time=4
note_on channel=0 note=48 velocity=54 time=97
<meta message set_tempo tempo=472441 time=1>
note_on channel=0 note=63 velocity=58 time=2
note_on channel=0 note=62 velocity=0 time=16
note_on channel=0 note=47 velocity=0 time=5
note_on channel=0 note=48 velocity=0 time=96
<meta message set_tempo tempo=472441 time=1>
note_on channel=0 note=53 velocity=76 time=1
note_on channel=0 note=63 velocity=0 time=1
note_on channel=0 note=44 velocity=70 time=1
<meta message set_tempo tempo=446097 time=117>
note_on channel=0 note=63 velocity=64 time=1
note_on channel=0 note=48 velocity=55 time=1
note_on channel=0 note=53 velocity=0 time=19
note_on channel=0 note=44 velocity=0 time=2
note_on channel=0 note=62 velocity=57 time=100
note_on channel=0 note=47 velocity=55 time=0
note_on channel=0 note=63 velocity=0 time=18
note_on channel=0 note=48 velocity=0 time=1
note_on channel=0 note=63 velocity=59 time=96
<meta message set_tempo tempo=468750 time=2>
note_on channel=0 note=48 velocity=55 time=3
note_on channel=0 note=62 velocity=0 time=20
note_on channel=0 note=47 velocity=0 time=0
note_on channel=0 note=65 velocity=64 time=100
note_on channel=0 note=50 velocity=64 time=0
note_on channel=0 note=63 velocity=0 time=15
note_on channel=0 note=48 velocity=0 time=5
<meta message set_tempo tempo=447761 time=97>
note_on channel=0 note=63 velocity=57 time=1
note_on channel=0 note=48 velocity=56 time=0
note_on channel=0 note=65 velocity=0 time=22
note_on channel=0 note=50 velocity=0 time=0
note_on channel=0 note=62 velocity=57 time=96
note_on channel=0 note=47 velocity=56 time=0
note_on channel=0 note=63 velocity=0 time=22
note_on channel=0 note=48 velocity=0 time=0
note_on channel=0 note=63 velocity=57 time=97
<meta message set_tempo tempo=491803 time=2>
note_on channel=0 note=48 velocity=56 time=1
note_on channel=0 note=62 velocity=0 time=18
note_on channel=0 note=47 velocity=0 time=0
note_on channel=0 note=63 velocity=0 time=99
note_on channel=0 note=45 velocity=70 time=1
<meta message set_tempo tempo=524017 time=1>
note_on channel=0 note=48 velocity=0 time=1
note_on channel=0 note=54 velocity=76 time=0
note_on channel=0 note=60 velocity=64 time=118
note_on channel=0 note=51 velocity=56 time=0
<meta message set_tempo tempo=433213 time=1>
note_on channel=0 note=45 velocity=0 time=19
note_on channel=0 note=54 velocity=0 time=2
note_on channel=0 note=59 velocity=57 time=98
note_on channel=0 note=50 velocity=56 time=3
note_on channel=0 note=60 velocity=0 time=17
note_on channel=0 note=51 velocity=0 time=0
<meta message set_tempo tempo=489796 time=101>
note_on channel=0 note=51 velocity=56 time=2
note_on channel=0 note=60 velocity=58 time=1
note_on channel=0 note=59 velocity=0 time=16
note_on channel=0 note=50 velocity=0 time=3
note_on channel=0 note=48 velocity=64 time=97
<meta message set_tempo tempo=476190 time=1>
note_on channel=0 note=63 velocity=64 time=1
note_on channel=0 note=51 velocity=0 time=21
note_on channel=0 note=60 velocity=0 time=1
<meta message set_tempo tempo=439560 time=97>
note_on channel=0 note=60 velocity=58 time=1
note_on channel=0 note=51 velocity=56 time=1
note_on channel=0 note=48 velocity=0 time=17
note_on channel=0 note=63 velocity=0 time=2
note_on channel=0 note=59 velocity=58 time=97
note_on channel=0 note=50 velocity=56 time=2
note_on channel=0 note=60 velocity=0 time=21
note_on channel=0 note=51 velocity=0 time=1
note_on channel=0 note=51 velocity=56 time=96
<meta message set_tempo tempo=489796 time=2>
note_on channel=0 note=60 velocity=58 time=0
note_on channel=0 note=59 velocity=0 time=18
note_on channel=0 note=50 velocity=0 time=2
note_on channel=0 note=51 velocity=0 time=98
<meta message set_tempo tempo=487805 time=2>
note_on channel=0 note=60 velocity=0 time=0
note_on channel=0 note=54 velocity=76 time=0
note_on channel=0 note=45 velocity=70 time=2
<meta message set_tempo tempo=439560 time=118>
note_on channel=0 note=60 velocity=64 time=0
note_on channel=0 note=51 velocity=57 time=3
note_on channel=0 note=54 velocity=0 time=17
note_on channel=0 note=45 velocity=0 time=2
note_on channel=0 note=50 velocity=58 time=96
note_on channel=0 note=59 velocity=58 time=4
note_on channel=0 note=60 velocity=0 time=18
note_on channel=0 note=51 velocity=0 time=3
note_on channel=0 note=51 velocity=58 time=96
<meta message set_tempo tempo=466926 time=1>
note_on channel=0 note=60 velocity=58 time=1
note_on channel=0 note=50 velocity=0 time=17
note_on channel=0 note=59 velocity=0 time=4
<meta message set_tempo tempo=466926 time=98>
note_on channel=0 note=63 velocity=64 time=0
note_on channel=0 note=48 velocity=64 time=1
note_on channel=0 note=51 velocity=0 time=18
note_on channel=0 note=60 velocity=0 time=2
<meta message set_tempo tempo=434783 time=99>
note_on channel=0 note=51 velocity=56 time=0
note_on channel=0 note=60 velocity=58 time=2
note_on channel=0 note=63 velocity=0 time=18
note_on channel=0 note=48 velocity=0 time=1
note_on channel=0 note=59 velocity=58 time=100
note_on channel=0 note=50 velocity=56 time=1
note_on channel=0 note=51 velocity=0 time=18
note_on channel=0 note=60 velocity=0 time=2
note_on channel=0 note=51 velocity=56 time=97
<meta message set_tempo tempo=493827 time=1>
note_on channel=0 note=60 velocity=58 time=1
note_on channel=0 note=59 velocity=0 time=20
note_on channel=0 note=50 velocity=0 time=1
note_on channel=0 note=51 velocity=0 time=97
<meta message set_tempo tempo=512821 time=1>
note_on channel=0 note=63 velocity=76 time=0
note_on channel=0 note=60 velocity=0 time=1
note_on channel=0 note=43 velocity=70 time=1
note_on channel=0 note=60 velocity=64 time=116
<meta message set_tempo tempo=442804 time=2>
note_on channel=0 note=51 velocity=56 time=3
note_on channel=0 note=63 velocity=0 time=17
note_on channel=0 note=43 velocity=0 time=2
note_on channel=0 note=50 velocity=56 time=96
note_on channel=0 note=59 velocity=58 time=4
note_on channel=0 note=60 velocity=0 time=16
note_on channel=0 note=51 velocity=0 time=5
note_on channel=0 note=60 velocity=58 time=95
<meta message set_tempo tempo=468750 time=2>
note_on channel=0 note=51 velocity=56 time=1
note_on channel=0 note=50 velocity=0 time=17
note_on channel=0 note=59 velocity=0 time=4
<meta message set_tempo tempo=472441 time=98>
note_on channel=0 note=55 velocity=63 time=1
note_on channel=0 note=53 velocity=64 time=1
note_on channel=0 note=60 velocity=0 time=16
note_on channel=0 note=51 velocity=0 time=3
note_on channel=0 note=51 velocity=56 time=98
<meta message set_tempo tempo=442804 time=1>
note_on channel=0 note=60 velocity=57 time=3
note_on channel=0 note=55 velocity=0 time=18
note_on channel=0 note=53 velocity=0 time=1
note_on channel=0 note=50 velocity=56 time=96
note_on channel=0 note=59 velocity=57 time=2
note_on channel=0 note=51 velocity=0 time=19
note_on channel=0 note=60 velocity=0 time=4
note_on channel=0 note=51 velocity=56 time=96
<meta message set_tempo tempo=472441 time=1>
note_on channel=0 note=60 velocity=57 time=2
note_on channel=0 note=50 velocity=0 time=16
note_on channel=0 note=59 velocity=0 time=2
note_on channel=0 note=51 velocity=0 time=99
<meta message set_tempo tempo=474308 time=1>
note_on channel=0 note=63 velocity=76 time=0
note_on channel=0 note=60 velocity=0 time=2
note_on channel=0 note=43 velocity=70 time=0
<meta message set_tempo tempo=446097 time=118>
note_on channel=0 note=60 velocity=58 time=0
note_on channel=0 note=51 velocity=57 time=3
note_on channel=0 note=63 velocity=0 time=17
note_on channel=0 note=43 velocity=0 time=2
note_on channel=0 note=50 velocity=57 time=99
note_on channel=0 note=59 velocity=58 time=1
note_on channel=0 note=60 velocity=0 time=18
note_on channel=0 note=51 velocity=0 time=3
<meta message set_tempo tempo=468750 time=97>
note_on channel=0 note=51 velocity=57 time=0
note_on channel=0 note=60 velocity=58 time=1
note_on channel=0 note=50 velocity=0 time=20
note_on channel=0 note=59 velocity=0 time=1
<meta message set_tempo tempo=478088 time=98>
note_on channel=0 note=55 velocity=63 time=0
note_on channel=0 note=53 velocity=64 time=2
note_on channel=0 note=51 velocity=0 time=18
note_on channel=0 note=60 velocity=0 time=1
note_on channel=0 note=51 velocity=57 time=98
<meta message set_tempo tempo=446097 time=1>
note_on channel=0 note=60 velocity=57 time=3
note_on channel=0 note=55 velocity=0 time=17
note_on channel=0 note=53 velocity=0 time=2
note_on channel=0 note=59 velocity=58 time=99
note_on channel=0 note=50 velocity=57 time=0
note_on channel=0 note=51 velocity=0 time=18
note_on channel=0 note=60 velocity=0 time=4
note_on channel=0 note=60 velocity=58 time=96
note_on channel=0 note=51 velocity=57 time=0
<meta message set_tempo tempo=489796 time=1>
note_on channel=0 note=59 velocity=0 time=21
note_on channel=0 note=50 velocity=0 time=0
note_on channel=0 note=60 velocity=0 time=98
note_on channel=0 note=51 velocity=0 time=0
note_on channel=0 note=43 velocity=70 time=0
<meta message set_tempo tempo=515021 time=1>
note_on channel=0 note=66 velocity=76 time=0
note_on channel=0 note=60 velocity=64 time=118
<meta message set_tempo tempo=442804 time=2>
note_on channel=0 note=51 velocity=56 time=3
note_on channel=0 note=43 velocity=0 time=16
note_on channel=0 note=66 velocity=0 time=1
note_on channel=0 note=50 velocity=56 time=99
note_on channel=0 note=59 velocity=57 time=3
note_on channel=0 note=60 velocity=0 time=16
note_on channel=0 note=51 velocity=0 time=5
note_on channel=0 note=51 velocity=56 time=95
<meta message set_tempo tempo=468750 time=2>
note_on channel=0 note=60 velocity=58 time=3
note_on channel=0 note=50 velocity=0 time=16
note_on channel=0 note=59 velocity=0 time=3
<meta message set_tempo tempo=468750 time=98>
note_on channel=0 note=57 velocity=63 time=1
note_on channel=0 note=48 velocity=64 time=1
note_on channel=0 note=51 velocity=0 time=16
note_on channel=0 note=60 velocity=0 time=5
note_on channel=0 note=60 velocity=57 time=95
note_on channel=0 note=51 velocity=56 time=0
<meta message set_tempo tempo=449438 time=2>
note_on channel=0 note=57 velocity=0 time=21
note_on channel=0 note=48 velocity=0 time=1
note_on channel=0 note=50 velocity=56 time=96
note_on channel=0 note=59 velocity=57 time=1
note_on channel=0 note=60 velocity=0 time=19
note_on channel=0 note=51 velocity=0 time=0
note_on channel=0 note=60 velocity=57 time=100
note_on channel=0 note=51 velocity=56 time=0
<meta message set_tempo tempo=487805 time=2>
note_on channel=0 note=50 velocity=0 time=18
note_on channel=0 note=59 velocity=0 time=1
note_on channel=0 note=60 velocity=0 time=99
note_on channel=0 note=51 velocity=0 time=0
<meta message set_tempo tempo=468750 time=2>
note_on channel=0 note=43 velocity=71 time=0
note_on channel=0 note=66 velocity=76 time=1
note_on channel=0 note=60 velocity=64 time=117
<meta message set_tempo tempo=433213 time=2>
note_on channel=0 note=51 velocity=56 time=1
note_on channel=0 note=43 velocity=0 time=19
note_on channel=0 note=66 velocity=0 time=1
note_on channel=0 note=50 velocity=56 time=99
note_on channel=0 note=59 velocity=57 time=3
note_on channel=0 note=60 velocity=0 time=15
note_on channel=0 note=51 velocity=0 time=3
<meta message set_tempo tempo=466926 time=99>
note_on channel=0 note=51 velocity=56 time=0
note_on channel=0 note=60 velocity=57 time=3
note_on channel=0 note=50 velocity=0 time=17
note_on channel=0 note=59 velocity=0 time=3
<meta message set_tempo tempo=466926 time=97>
note_on channel=0 note=48 velocity=65 time=0
note_on channel=0 note=57 velocity=64 time=1
note_on channel=0 note=51 velocity=0 time=19
note_on channel=0 note=60 velocity=0 time=3
note_on channel=0 note=51 velocity=56 time=95
<meta message set_tempo tempo=446097 time=2>
note_on channel=0 note=60 velocity=58 time=2
note_on channel=0 note=48 velocity=0 time=18
note_on channel=0 note=57 velocity=0 time=1
note_on channel=0 note=50 velocity=57 time=100
note_on channel=0 note=59 velocity=58 time=2
note_on channel=0 note=51 velocity=0 time=15
note_on channel=0 note=60 velocity=0 time=4
note_on channel=0 note=60 velocity=58 time=96
<meta message set_tempo tempo=487805 time=2>
note_on channel=0 note=51 velocity=57 time=2
note_on channel=0 note=50 velocity=0 time=19
note_on channel=0 note=59 velocity=0 time=2
note_on channel=0 note=60 velocity=0 time=95
note_on channel=0 note=67 velocity=79 time=0
<meta message set_tempo tempo=510638 time=2>
note_on channel=0 note=43 velocity=73 time=0
note_on channel=0 note=51 velocity=0 time=2
<meta message set_tempo tempo=431655 time=118>
note_on channel=0 note=51 velocity=58 time=1
note_on channel=0 note=60 velocity=65 time=1
note_on channel=0 note=67 velocity=0 time=16
note_on channel=0 note=43 velocity=0 time=2
note_on channel=0 note=59 velocity=57 time=101
note_on channel=0 note=50 velocity=58 time=2
note_on channel=0 note=51 velocity=0 time=18
note_on channel=0 note=60 velocity=0 time=1
note_on channel=0 note=60 velocity=58 time=97
<meta message set_tempo tempo=466926 time=1>
note_on channel=0 note=51 velocity=58 time=1
note_on channel=0 note=59 velocity=0 time=20
note_on channel=0 note=50 velocity=0 time=2
note_on channel=0 note=62 velocity=66 time=95
<meta message set_tempo tempo=466926 time=2>
note_on channel=0 note=53 velocity=66 time=1
note_on channel=0 note=60 velocity=0 time=18
note_on channel=0 note=51 velocity=0 time=2
note_on channel=0 note=51 velocity=58 time=97
note_on channel=0 note=60 velocity=58 time=1
<meta message set_tempo tempo=434783 time=1>
note_on channel=0 note=62 velocity=0 time=18
note_on channel=0 note=53 velocity=0 time=3
note_on channel=0 note=50 velocity=58 time=99
note_on channel=0 note=59 velocity=58 time=1
note_on channel=0 note=51 velocity=0 time=17
note_on channel=0 note=60 velocity=0 time=1
note_on channel=0 note=51 velocity=58 time=100
<meta message set_tempo tempo=491803 time=1>
note_on channel=0 note=60 velocity=58 time=0
note_on channel=0 note=50 velocity=0 time=20
note_on channel=0 note=59 velocity=0 time=1
<meta message set_tempo tempo=489796 time=79>
note_on channel=0 note=51 velocity=0 time=19
note_on channel=0 note=67 velocity=79 time=0
<meta message set_tempo tempo=483871 time=1>
note_on channel=0 note=60 velocity=0 time=0
note_on channel=0 note=43 velocity=73 time=0
<meta message set_tempo tempo=436364 time=120>
note_on channel=0 note=60 velocity=67 time=0
note_on channel=0 note=51 velocity=58 time=3
note_on channel=0 note=67 velocity=0 time=16
note_on channel=0 note=43 velocity=0 time=1
note_on channel=0 note=50 velocity=58 time=100
note_on channel=0 note=59 velocity=58 time=1
note_on channel=0 note=60 velocity=0 time=19
note_on channel=0 note=51 velocity=0 time=3
note_on channel=0 note=51 velocity=58 time=95
<meta message set_tempo tempo=483871 time=2>
note_on channel=0 note=60 velocity=58 time=2
note_on channel=0 note=50 velocity=0 time=18
note_on channel=0 note=59 velocity=0 time=1
<meta message set_tempo tempo=465116 time=99>
note_on channel=0 note=53 velocity=67 time=1
note_on channel=0 note=62 velocity=67 time=1
note_on channel=0 note=51 velocity=0 time=16
note_on channel=0 note=60 velocity=0 time=4
<meta message set_tempo tempo=446097 time=98>
note_on channel=0 note=60 velocity=59 time=1
note_on channel=0 note=51 velocity=58 time=1
note_on channel=0 note=53 velocity=0 time=19
note_on channel=0 note=62 velocity=0 time=1
note_on channel=0 note=59 velocity=59 time=99
note_on channel=0 note=50 velocity=58 time=1
note_on channel=0 note=60 velocity=0 time=19
note_on channel=0 note=51 velocity=0 time=1
<meta message set_tempo tempo=485830 time=98>
note_on channel=0 note=60 velocity=59 time=2
note_on channel=0 note=51 velocity=58 time=1
note_on channel=0 note=59 velocity=0 time=18
note_on channel=0 note=50 velocity=0 time=1
<meta message set_tempo tempo=474308 time=98>
note_on channel=0 note=60 velocity=0 time=2
note_on channel=0 note=51 velocity=0 time=1
note_on channel=0 note=68 velocity=80 time=0
note_on channel=0 note=43 velocity=75 time=0
note_on channel=0 note=60 velocity=67 time=115
note_on channel=0 note=51 velocity=59 time=1
<meta message set_tempo tempo=431655 time=1>
note_on channel=0 note=43 velocity=0 time=23
note_on channel=0 note=68 velocity=0 time=0
note_on channel=0 note=59 velocity=61 time=98
note_on channel=0 note=50 velocity=59 time=2
note_on channel=0 note=60 velocity=0 time=15
note_on channel=0 note=51 velocity=0 time=1
<meta message set_tempo tempo=465116 time=101>
note_on channel=0 note=60 velocity=61 time=0
note_on channel=0 note=51 velocity=59 time=1
note_on channel=0 note=59 velocity=0 time=20
note_on channel=0 note=50 velocity=0 time=2
note_on channel=0 note=62 velocity=68 time=96
<meta message set_tempo tempo=478088 time=1>
note_on channel=0 note=53 velocity=68 time=2
note_on channel=0 note=60 velocity=0 time=18
note_on channel=0 note=51 velocity=0 time=1
note_on channel=0 note=60 velocity=60 time=97
<meta message set_tempo tempo=446097 time=2>
note_on channel=0 note=51 velocity=58 time=2
note_on channel=0 note=62 velocity=0 time=17
note_on channel=0 note=53 velocity=0 time=3
note_on channel=0 note=50 velocity=58 time=100
note_on channel=0 note=59 velocity=60 time=1
note_on channel=0 note=60 velocity=0 time=15
note_on channel=0 note=51 velocity=0 time=4
note_on channel=0 note=60 velocity=60 time=96
<meta message set_tempo tempo=466926 time=2>
note_on channel=0 note=51 velocity=59 time=3
note_on channel=0 note=50 velocity=0 time=19
note_on channel=0 note=59 velocity=0 time=1
note_on channel=0 note=60 velocity=0 time=95
<meta message set_tempo tempo=470588 time=2>
note_on channel=0 note=68 velocity=83 time=0
note_on channel=0 note=51 velocity=0 time=3
note_on channel=0 note=43 velocity=75 time=0
<meta message set_tempo tempo=441176 time=117>
note_on channel=0 note=60 velocity=69 time=1
note_on channel=0 note=51 velocity=60 time=2
note_on channel=0 note=68 velocity=0 time=17
note_on channel=0 note=43 velocity=0 time=3
note_on channel=0 note=59 velocity=62 time=96
note_on channel=0 note=50 velocity=60 time=2
note_on channel=0 note=60 velocity=0 time=20
note_on channel=0 note=51 velocity=0 time=2
<meta message set_tempo tempo=472441 time=97>
note_on channel=0 note=51 velocity=60 time=0
note_on channel=0 note=60 velocity=62 time=1
note_on channel=0 note=59 velocity=0 time=18
note_on channel=0 note=50 velocity=0 time=2
note_on channel=0 note=53 velocity=69 time=97
note_on channel=0 note=62 velocity=69 time=1
<meta message set_tempo tempo=474308 time=1>
note_on channel=0 note=51 velocity=0 time=20
note_on channel=0 note=60 velocity=0 time=1
note_on channel=0 note=60 velocity=61 time=98
<meta message set_tempo tempo=444444 time=1>
note_on channel=0 note=51 velocity=61 time=0
note_on channel=0 note=53 velocity=0 time=18
note_on channel=0 note=62 velocity=0 time=1
note_on channel=0 note=59 velocity=61 time=99
note_on channel=0 note=50 velocity=61 time=4
note_on channel=0 note=60 velocity=0 time=17
note_on channel=0 note=51 velocity=0 time=1
<meta message set_tempo tempo=487805 time=100>
note_on channel=0 note=51 velocity=61 time=0
note_on channel=0 note=60 velocity=61 time=2
note_on channel=0 note=59 velocity=0 time=16
note_on channel=0 note=50 velocity=0 time=4
<meta message set_tempo tempo=526316 time=98>
note_on channel=0 note=51 velocity=0 time=0
note_on channel=0 note=43 velocity=65 time=0
note_on channel=0 note=60 velocity=0 time=2
<meta message set_tempo tempo=495868 time=118>
note_on channel=0 note=47 velocity=68 time=0
note_on channel=0 note=43 velocity=0 time=20
<meta message set_tempo tempo=463320 time=100>
note_on channel=0 note=50 velocity=71 time=0
note_on channel=0 note=47 velocity=0 time=20
<meta message set_tempo tempo=459770 time=100>
note_on channel=0 note=53 velocity=74 time=0
note_on channel=0 note=50 velocity=0 time=20
note_on channel=0 note=56 velocity=74 time=100
note_on channel=0 note=53 velocity=0 time=20
note_on channel=0 note=53 velocity=70 time=100
note_on channel=0 note=56 velocity=0 time=20
note_on channel=0 note=52 velocity=70 time=100
note_on channel=0 note=53 velocity=0 time=20
note_on channel=0 note=53 velocity=70 time=100
note_on channel=0 note=52 velocity=0 time=20
note_on channel=0 note=59 velocity=74 time=100
note_on channel=0 note=53 velocity=0 time=20
note_on channel=0 note=53 velocity=70 time=100
note_on channel=0 note=59 velocity=0 time=20
<meta message set_tempo tempo=468750 time=100>
note_on channel=0 note=62 velocity=74 time=0
note_on channel=0 note=53 velocity=0 time=20
note_on channel=0 note=59 velocity=70 time=100
note_on channel=0 note=62 velocity=0 time=20
note_on channel=0 note=56 velocity=72 time=100
note_on channel=0 note=59 velocity=0 time=20
note_on channel=0 note=53 velocity=71 time=100
note_on channel=0 note=56 velocity=0 time=20
note_on channel=0 note=52 velocity=70 time=100
note_on channel=0 note=53 velocity=0 time=20
note_on channel=0 note=53 velocity=69 time=100
note_on channel=0 note=52 velocity=0 time=20
<meta message set_tempo tempo=497925 time=100>
note_on channel=0 note=53 velocity=0 time=0
note_on channel=0 note=43 velocity=64 time=0
<meta message set_tempo tempo=483871 time=120>
note_on channel=0 note=48 velocity=66 time=0
note_on channel=0 note=43 velocity=0 time=20
<meta message set_tempo tempo=470588 time=100>
note_on channel=0 note=51 velocity=68 time=0
note_on channel=0 note=48 velocity=0 time=20
<meta message set_tempo tempo=459770 time=100>
note_on channel=0 note=55 velocity=72 time=0
note_on channel=0 note=51 velocity=0 time=20
note_on channel=0 note=60 velocity=75 time=100
note_on channel=0 note=55 velocity=0 time=20
note_on channel=0 note=55 velocity=70 time=100
note_on channel=0 note=60 velocity=0 time=20
note_on channel=0 note=54 velocity=70 time=100
note_on channel=0 note=55 velocity=0 time=20
note_on channel=0 note=55 velocity=70 time=100
note_on channel=0 note=54 velocity=0 time=20
note_on channel=0 note=63 velocity=74 time=100
note_on channel=0 note=55 velocity=0 time=20
note_on channel=0 note=60 velocity=70 time=100
note_on channel=0 note=63 velocity=0 time=20
<meta message set_tempo tempo=466926 time=100>
note_on channel=0 note=67 velocity=74 time=0
note_on channel=0 note=60 velocity=0 time=20
note_on channel=0 note=63 velocity=70 time=100
note_on channel=0 note=67 velocity=0 time=20
note_on channel=0 note=60 velocity=74 time=100
note_on channel=0 note=63 velocity=0 time=20
note_on channel=0 note=56 velocity=70 time=100
note_on channel=0 note=60 velocity=0 time=20
note_on channel=0 note=55 velocity=72 time=100
note_on channel=0 note=56 velocity=0 time=20
note_on channel=0 note=56 velocity=70 time=100
note_on channel=0 note=55 velocity=0 time=20
<meta message set_tempo tempo=481928 time=100>
note_on channel=0 note=56 velocity=0 time=0
note_on channel=0 note=43 velocity=67 time=0
<meta message set_tempo tempo=480000 time=20>
<meta message set_tempo tempo=478088 time=20>
<meta message set_tempo tempo=476190 time=20>
<meta message set_tempo tempo=474308 time=20>
<meta message set_tempo tempo=472441 time=20>
<meta message set_tempo tempo=470588 time=20>
note_on channel=0 note=45 velocity=70 time=0
<meta message set_tempo tempo=468750 time=20>
note_on channel=0 note=43 velocity=0 time=0
<meta message set_tempo tempo=466926 time=20>
<meta message set_tempo tempo=465116 time=20>
<meta message set_tempo tempo=463320 time=20>
<meta message set_tempo tempo=461538 time=20>
<meta message set_tempo tempo=458015 time=20>
note_on channel=0 note=54 velocity=70 time=0
note_on channel=0 note=45 velocity=0 time=20
note_on channel=0 note=60 velocity=71 time=100
note_on channel=0 note=54 velocity=0 time=20
note_on channel=0 note=63 velocity=75 time=100
note_on channel=0 note=60 velocity=0 time=20
note_on channel=0 note=60 velocity=70 time=100
note_on channel=0 note=63 velocity=0 time=20
note_on channel=0 note=59 velocity=70 time=100
note_on channel=0 note=60 velocity=0 time=20
note_on channel=0 note=60 velocity=70 time=100
note_on channel=0 note=59 velocity=0 time=20
note_on channel=0 note=66 velocity=74 time=100
note_on channel=0 note=60 velocity=0 time=20
note_on channel=0 note=60 velocity=70 time=100
note_on channel=0 note=66 velocity=0 time=20
note_on channel=0 note=69 velocity=74 time=100
note_on channel=0 note=60 velocity=0 time=20
note_on channel=0 note=66 velocity=70 time=100
note_on channel=0 note=69 velocity=0 time=20
note_on channel=0 note=63 velocity=73 time=100
note_on channel=0 note=66 velocity=0 time=20
note_on channel=0 note=60 velocity=70 time=100
note_on channel=0 note=63 velocity=0 time=20
note_on channel=0 note=59 velocity=70 time=100
note_on channel=0 note=60 velocity=0 time=20
note_on channel=0 note=60 velocity=70 time=100
note_on channel=0 note=59 velocity=0 time=20
<meta message set_tempo tempo=389610 time=100>
<meta message marker text='Presto' time=0>
note_on channel=0 note=60 velocity=0 time=0
note_on channel=0 note=43 velocity=67 time=0
note_on channel=0 note=74 velocity=67 time=120
note_on channel=0 note=72 velocity=65 time=120
note_on channel=0 note=74 velocity=0 time=20
note_on channel=0 note=74 velocity=65 time=100
note_on channel=0 note=72 velocity=0 time=20
<meta message set_tempo tempo=379747 time=100>
note_on channel=0 note=75 velocity=72 time=0
note_on channel=0 note=74 velocity=0 time=20
note_on channel=0 note=72 velocity=67 time=100
note_on channel=0 note=75 velocity=0 time=20
note_on channel=0 note=71 velocity=63 time=100
note_on channel=0 note=72 velocity=0 time=20
note_on channel=0 note=72 velocity=63 time=100
note_on channel=0 note=71 velocity=0 time=20
note_on channel=0 note=69 velocity=73 time=100
note_on channel=0 note=72 velocity=0 time=20
note_on channel=0 note=72 velocity=67 time=100
note_on channel=0 note=69 velocity=0 time=20
note_on channel=0 note=71 velocity=64 time=100
note_on channel=0 note=72 velocity=0 time=20
note_on channel=0 note=72 velocity=64 time=100
note_on channel=0 note=71 velocity=0 time=20
<meta message set_tempo tempo=373832 time=100>
note_on channel=0 note=74 velocity=67 time=0
note_on channel=0 note=72 velocity=0 time=20
note_on channel=0 note=71 velocity=64 time=100
note_on channel=0 note=74 velocity=0 time=20
note_on channel=0 note=69 velocity=64 time=100
note_on channel=0 note=71 velocity=0 time=20
<meta message set_tempo tempo=397351 time=100>
note_on channel=0 note=71 velocity=64 time=0
note_on channel=0 note=69 velocity=0 time=20
<meta message set_tempo tempo=404040 time=100>
note_on channel=0 note=71 velocity=0 time=0
note_on channel=0 note=67 velocity=75 time=0
<meta message set_tempo tempo=379747 time=120>
note_on channel=0 note=43 velocity=0 time=0
note_on channel=0 note=71 velocity=67 time=0
note_on channel=0 note=62 velocity=60 time=0
note_on channel=0 note=67 velocity=0 time=20
note_on channel=0 note=69 velocity=64 time=100
note_on channel=0 note=60 velocity=60 time=0
note_on channel=0 note=62 velocity=0 time=20
note_on channel=0 note=71 velocity=0 time=0
note_on channel=0 note=71 velocity=64 time=100
note_on channel=0 note=62 velocity=61 time=0
note_on channel=0 note=69 velocity=0 time=20
note_on channel=0 note=60 velocity=0 time=0
<meta message set_tempo tempo=372671 time=100>
note_on channel=0 note=72 velocity=70 time=0
note_on channel=0 note=63 velocity=70 time=0
note_on channel=0 note=71 velocity=0 time=20
note_on channel=0 note=62 velocity=0 time=0
note_on channel=0 note=69 velocity=64 time=100
note_on channel=0 note=60 velocity=67 time=0
note_on channel=0 note=72 velocity=0 time=20
note_on channel=0 note=63 velocity=0 time=0
note_on channel=0 note=67 velocity=64 time=100
note_on channel=0 note=59 velocity=60 time=0
note_on channel=0 note=69 velocity=0 time=20
note_on channel=0 note=60 velocity=0 time=0
note_on channel=0 note=69 velocity=65 time=100
note_on channel=0 note=60 velocity=60 time=0
<meta message set_tempo tempo=385852 time=20>
note_on channel=0 note=67 velocity=0 time=0
note_on channel=0 note=59 velocity=0 time=0
<meta message set_tempo tempo=379747 time=100>
note_on channel=0 note=69 velocity=0 time=0
note_on channel=0 note=60 velocity=0 time=0
note_on channel=0 note=66 velocity=75 time=0
note_on channel=0 note=57 velocity=75 time=0
note_on channel=0 note=69 velocity=67 time=120
note_on channel=0 note=60 velocity=61 time=0
note_on channel=0 note=57 velocity=0 time=20
note_on channel=0 note=66 velocity=0 time=0
note_on channel=0 note=67 velocity=64 time=100
note_on channel=0 note=59 velocity=61 time=0
note_on channel=0 note=69 velocity=0 time=20
note_on channel=0 note=60 velocity=0 time=0
note_on channel=0 note=69 velocity=64 time=100
note_on channel=0 note=60 velocity=61 time=0
note_on channel=0 note=67 velocity=0 time=20
note_on channel=0 note=59 velocity=0 time=0
<meta message set_tempo tempo=373832 time=100>
note_on channel=0 note=71 velocity=70 time=0
note_on channel=0 note=62 velocity=70 time=0
note_on channel=0 note=69 velocity=0 time=20
note_on channel=0 note=60 velocity=0 time=0
note_on channel=0 note=67 velocity=65 time=100
note_on channel=0 note=59 velocity=61 time=0
note_on channel=0 note=71 velocity=0 time=20
note_on channel=0 note=62 velocity=0 time=0
note_on channel=0 note=66 velocity=65 time=100
note_on channel=0 note=57 velocity=61 time=0
note_on channel=0 note=67 velocity=0 time=20
note_on channel=0 note=59 velocity=0 time=0
<meta message set_tempo tempo=400000 time=100>
note_on channel=0 note=67 velocity=65 time=0
note_on channel=0 note=59 velocity=61 time=0
note_on channel=0 note=66 velocity=0 time=20
note_on channel=0 note=57 velocity=0 time=0
<meta message set_tempo tempo=415225 time=100>
note_on channel=0 note=67 velocity=0 time=0
note_on channel=0 note=59 velocity=0 time=0
note_on channel=0 note=62 velocity=75 time=0
note_on channel=0 note=55 velocity=74 time=0
<meta message set_tempo tempo=378549 time=120>
note_on channel=0 note=79 velocity=70 time=0
note_on channel=0 note=59 velocity=61 time=0
note_on channel=0 note=55 velocity=0 time=20
note_on channel=0 note=62 velocity=0 time=0
note_on channel=0 note=77 velocity=67 time=100
note_on channel=0 note=57 velocity=61 time=0
note_on channel=0 note=79 velocity=0 time=20
note_on channel=0 note=59 velocity=0 time=0
note_on channel=0 note=79 velocity=67 time=100
note_on channel=0 note=59 velocity=61 time=0
note_on channel=0 note=77 velocity=0 time=20
note_on channel=0 note=57 velocity=0 time=0
<meta message set_tempo tempo=373832 time=100>
note_on channel=0 note=80 velocity=73 time=0
note_on channel=0 note=60 velocity=71 time=0
note_on channel=0 note=79 velocity=0 time=20
note_on channel=0 note=59 velocity=0 time=0
note_on channel=0 note=77 velocity=68 time=100
note_on channel=0 note=56 velocity=61 time=0
note_on channel=0 note=80 velocity=0 time=20
note_on channel=0 note=60 velocity=0 time=0
note_on channel=0 note=75 velocity=68 time=100
note_on channel=0 note=55 velocity=61 time=0
note_on channel=0 note=77 velocity=0 time=20
note_on channel=0 note=56 velocity=0 time=0
<meta message set_tempo tempo=387097 time=100>
note_on channel=0 note=77 velocity=68 time=0
note_on channel=0 note=56 velocity=61 time=0
note_on channel=0 note=75 velocity=0 time=20
note_on channel=0 note=55 velocity=0 time=0
<meta message set_tempo tempo=378549 time=100>
note_on channel=0 note=77 velocity=0 time=0
note_on channel=0 note=56 velocity=0 time=0
note_on channel=0 note=74 velocity=77 time=0
note_on channel=0 note=53 velocity=74 time=0
note_on channel=0 note=77 velocity=70 time=120
note_on channel=0 note=57 velocity=63 time=0
note_on channel=0 note=53 velocity=0 time=20
note_on channel=0 note=74 velocity=0 time=0
note_on channel=0 note=75 velocity=66 time=100
note_on channel=0 note=55 velocity=63 time=0
note_on channel=0 note=77 velocity=0 time=20
note_on channel=0 note=57 velocity=0 time=0
note_on channel=0 note=77 velocity=66 time=100
note_on channel=0 note=57 velocity=63 time=0
note_on channel=0 note=75 velocity=0 time=20
note_on channel=0 note=55 velocity=0 time=0
<meta message set_tempo tempo=375000 time=100>
note_on channel=0 note=79 velocity=73 time=0
note_on channel=0 note=59 velocity=71 time=0
note_on channel=0 note=77 velocity=0 time=20
note_on channel=0 note=57 velocity=0 time=0
note_on channel=0 note=75 velocity=67 time=100
note_on channel=0 note=55 velocity=62 time=0
note_on channel=0 note=79 velocity=0 time=20
note_on channel=0 note=59 velocity=0 time=0
note_on channel=0 note=74 velocity=67 time=100
note_on channel=0 note=53 velocity=62 time=0
note_on channel=0 note=75 velocity=0 time=20
note_on channel=0 note=55 velocity=0 time=0
<meta message set_tempo tempo=397351 time=100>
note_on channel=0 note=75 velocity=68 time=0
note_on channel=0 note=55 velocity=62 time=0
note_on channel=0 note=74 velocity=0 time=20
note_on channel=0 note=53 velocity=0 time=0
<meta message set_tempo tempo=400000 time=100>
note_on channel=0 note=75 velocity=0 time=0
note_on channel=0 note=55 velocity=0 time=0
note_on channel=0 note=72 velocity=75 time=0
note_on channel=0 note=51 velocity=76 time=0
<meta message set_tempo tempo=377358 time=120>
note_on channel=0 note=75 velocity=67 time=0
note_on channel=0 note=67 velocity=63 time=0
note_on channel=0 note=51 velocity=0 time=20
note_on channel=0 note=72 velocity=0 time=0
note_on channel=0 note=74 velocity=65 time=100
note_on channel=0 note=65 velocity=63 time=0
note_on channel=0 note=75 velocity=0 time=20
note_on channel=0 note=67 velocity=0 time=0
note_on channel=0 note=75 velocity=67 time=100
note_on channel=0 note=67 velocity=63 time=0
note_on channel=0 note=74 velocity=0 time=20
note_on channel=0 note=65 velocity=0 time=0
<meta message set_tempo tempo=373832 time=100>
note_on channel=0 note=77 velocity=71 time=0
note_on channel=0 note=68 velocity=71 time=0
note_on channel=0 note=75 velocity=0 time=20
note_on channel=0 note=67 velocity=0 time=0
note_on channel=0 note=74 velocity=65 time=100
note_on channel=0 note=65 velocity=63 time=0
note_on channel=0 note=77 velocity=0 time=20
note_on channel=0 note=68 velocity=0 time=0
note_on channel=0 note=72 velocity=65 time=100
note_on channel=0 note=63 velocity=63 time=0
note_on channel=0 note=74 velocity=0 time=20
note_on channel=0 note=65 velocity=0 time=0
<meta message set_tempo tempo=387097 time=100>
note_on channel=0 note=74 velocity=65 time=0
note_on channel=0 note=65 velocity=63 time=0
note_on channel=0 note=72 velocity=0 time=20
note_on channel=0 note=63 velocity=0 time=0
<meta message set_tempo tempo=378549 time=100>
note_on channel=0 note=74 velocity=0 time=0
note_on channel=0 note=65 velocity=0 time=0
note_on channel=0 note=71 velocity=75 time=0
note_on channel=0 note=62 velocity=76 time=0
note_on channel=0 note=74 velocity=67 time=120
note_on channel=0 note=65 velocity=64 time=0
note_on channel=0 note=62 velocity=0 time=20
note_on channel=0 note=71 velocity=0 time=0
note_on channel=0 note=72 velocity=65 time=100
note_on channel=0 note=63 velocity=65 time=0
note_on channel=0 note=74 velocity=0 time=20
note_on channel=0 note=65 velocity=0 time=0
note_on channel=0 note=74 velocity=67 time=100
note_on channel=0 note=65 velocity=63 time=0
note_on channel=0 note=72 velocity=0 time=20
note_on channel=0 note=63 velocity=0 time=0
<meta message set_tempo tempo=373832 time=100>
note_on channel=0 note=75 velocity=71 time=0
note_on channel=0 note=67 velocity=71 time=0
note_on channel=0 note=74 velocity=0 time=20
note_on channel=0 note=65 velocity=0 time=0
note_on channel=0 note=72 velocity=65 time=100
note_on channel=0 note=63 velocity=63 time=0
note_on channel=0 note=75 velocity=0 time=20
note_on channel=0 note=67 velocity=0 time=0
note_on channel=0 note=71 velocity=65 time=100
note_on channel=0 note=62 velocity=62 time=0
note_on channel=0 note=72 velocity=0 time=20
note_on channel=0 note=63 velocity=0 time=0
<meta message set_tempo tempo=400000 time=100>
note_on channel=0 note=72 velocity=65 time=0
note_on channel=0 note=63 velocity=62 time=0
note_on channel=0 note=71 velocity=0 time=20
note_on channel=0 note=62 velocity=0 time=0
<meta message set_tempo tempo=406780 time=100>
note_on channel=0 note=72 velocity=0 time=0
note_on channel=0 note=63 velocity=0 time=0
note_on channel=0 note=67 velocity=75 time=0
note_on channel=0 note=60 velocity=74 time=0
<meta message set_tempo tempo=384615 time=120>
note_on channel=0 note=72 velocity=67 time=0
note_on channel=0 note=63 velocity=63 time=0
note_on channel=0 note=60 velocity=0 time=20
note_on channel=0 note=67 velocity=0 time=0
note_on channel=0 note=71 velocity=64 time=100
note_on channel=0 note=62 velocity=63 time=0
note_on channel=0 note=72 velocity=0 time=20
note_on channel=0 note=63 velocity=0 time=0
note_on channel=0 note=72 velocity=65 time=100
note_on channel=0 note=63 velocity=63 time=0
note_on channel=0 note=71 velocity=0 time=20
note_on channel=0 note=62 velocity=0 time=0
<meta message set_tempo tempo=382166 time=100>
note_on channel=0 note=68 velocity=80 time=0
note_on channel=0 note=65 velocity=77 time=0
note_on channel=0 note=72 velocity=0 time=20
note_on channel=0 note=63 velocity=0 time=0
note_on channel=0 note=77 velocity=65 time=100
note_on channel=0 note=62 velocity=60 time=0
note_on channel=0 note=68 velocity=0 time=20
note_on channel=0 note=65 velocity=0 time=0
note_on channel=0 note=75 velocity=65 time=100
note_on channel=0 note=60 velocity=60 time=0
note_on channel=0 note=77 velocity=0 time=20
note_on channel=0 note=62 velocity=0 time=0
<meta message set_tempo tempo=389610 time=100>
note_on channel=0 note=77 velocity=64 time=0
note_on channel=0 note=62 velocity=61 time=0
note_on channel=0 note=75 velocity=0 time=20
note_on channel=0 note=60 velocity=0 time=0
<meta message set_tempo tempo=384615 time=100>
note_on channel=0 note=77 velocity=0 time=0
note_on channel=0 note=62 velocity=0 time=0
note_on channel=0 note=67 velocity=80 time=0
note_on channel=0 note=63 velocity=77 time=0
note_on channel=0 note=75 velocity=67 time=120
note_on channel=0 note=60 velocity=62 time=0
note_on channel=0 note=63 velocity=0 time=20
note_on channel=0 note=67 velocity=0 time=0
note_on channel=0 note=74 velocity=65 time=100
note_on channel=0 note=59 velocity=63 time=0
note_on channel=0 note=75 velocity=0 time=20
note_on channel=0 note=60 velocity=0 time=0
note_on channel=0 note=75 velocity=67 time=100
note_on channel=0 note=60 velocity=63 time=0
note_on channel=0 note=74 velocity=0 time=20
note_on channel=0 note=59 velocity=0 time=0
<meta message set_tempo tempo=382166 time=100>
note_on channel=0 note=65 velocity=81 time=0
note_on channel=0 note=62 velocity=77 time=0
note_on channel=0 note=75 velocity=0 time=20
note_on channel=0 note=60 velocity=0 time=0
note_on channel=0 note=74 velocity=65 time=100
note_on channel=0 note=59 velocity=63 time=0
note_on channel=0 note=65 velocity=0 time=20
note_on channel=0 note=62 velocity=0 time=0
note_on channel=0 note=72 velocity=65 time=100
note_on channel=0 note=57 velocity=63 time=0
note_on channel=0 note=74 velocity=0 time=20
note_on channel=0 note=59 velocity=0 time=0
<meta message set_tempo tempo=392157 time=100>
note_on channel=0 note=74 velocity=65 time=0
note_on channel=0 note=59 velocity=62 time=0
note_on channel=0 note=72 velocity=0 time=20
note_on channel=0 note=57 velocity=0 time=0
<meta message set_tempo tempo=392157 time=100>
note_on channel=0 note=74 velocity=0 time=0
note_on channel=0 note=59 velocity=0 time=0
note_on channel=0 note=63 velocity=81 time=0
note_on channel=0 note=60 velocity=77 time=0
note_on channel=0 note=72 velocity=67 time=120
note_on channel=0 note=63 velocity=60 time=0
note_on channel=0 note=60 velocity=0 time=20
note_on channel=0 note=63 velocity=0 time=0
note_on channel=0 note=71 velocity=65 time=100
note_on channel=0 note=62 velocity=60 time=0
note_on channel=0 note=72 velocity=0 time=20
note_on channel=0 note=63 velocity=0 time=0
note_on channel=0 note=72 velocity=67 time=100
note_on channel=0 note=63 velocity=61 time=0
note_on channel=0 note=71 velocity=0 time=20
note_on channel=0 note=62 velocity=0 time=0
note_on channel=0 note=68 velocity=81 time=100
note_on channel=0 note=53 velocity=77 time=0
note_on channel=0 note=72 velocity=0 time=20
note_on channel=0 note=63 velocity=0 time=0
note_on channel=0 note=65 velocity=66 time=100
note_on channel=0 note=62 velocity=62 time=0
note_on channel=0 note=68 velocity=0 time=20
note_on channel=0 note=53 velocity=0 time=0
note_on channel=0 note=63 velocity=66 time=100
note_on channel=0 note=60 velocity=62 time=0
note_on channel=0 note=65 velocity=0 time=20
note_on channel=0 note=62 velocity=0 time=0
note_on channel=0 note=65 velocity=66 time=100
note_on channel=0 note=62 velocity=62 time=0
note_on channel=0 note=63 velocity=0 time=20
note_on channel=0 note=60 velocity=0 time=0
<meta message set_tempo tempo=415225 time=100>
note_on channel=0 note=65 velocity=0 time=0
note_on channel=0 note=62 velocity=0 time=0
note_on channel=0 note=67 velocity=81 time=0
note_on channel=0 note=51 velocity=77 time=0
note_on channel=0 note=63 velocity=67 time=120
note_on channel=0 note=60 velocity=62 time=0
note_on channel=0 note=51 velocity=0 time=20
note_on channel=0 note=67 velocity=0 time=0
note_on channel=0 note=62 velocity=65 time=100
note_on channel=0 note=59 velocity=62 time=0
note_on channel=0 note=63 velocity=0 time=20
note_on channel=0 note=60 velocity=0 time=0
note_on channel=0 note=63 velocity=65 time=100
note_on channel=0 note=60 velocity=62 time=0
note_on channel=0 note=62 velocity=0 time=20
note_on channel=0 note=59 velocity=0 time=0
<meta message set_tempo tempo=442804 time=100>
note_on channel=0 note=65 velocity=81 time=0
note_on channel=0 note=50 velocity=77 time=0
note_on channel=0 note=63 velocity=0 time=20
note_on channel=0 note=60 velocity=0 time=0
note_on channel=0 note=62 velocity=66 time=100
note_on channel=0 note=59 velocity=61 time=0
note_on channel=0 note=65 velocity=0 time=20
note_on channel=0 note=50 velocity=0 time=0
note_on channel=0 note=60 velocity=66 time=100
note_on channel=0 note=57 velocity=61 time=0
note_on channel=0 note=62 velocity=0 time=20
note_on channel=0 note=59 velocity=0 time=0
note_on channel=0 note=62 velocity=67 time=100
note_on channel=0 note=59 velocity=61 time=0
note_on channel=0 note=60 velocity=0 time=20
note_on channel=0 note=57 velocity=0 time=0
<meta message set_tempo tempo=1967213 time=100>
<meta message marker text='Adagio' time=0>
note_on channel=0 note=62 velocity=0 time=0
note_on channel=0 note=59 velocity=0 time=0
note_on channel=0 note=48 velocity=67 time=0
note_on channel=0 note=55 velocity=67 time=15
note_on channel=0 note=58 velocity=67 time=15
note_on channel=0 note=60 velocity=67 time=15
note_on channel=0 note=64 velocity=67 time=15
note_on channel=0 note=64 velocity=0 time=240
note_on channel=0 note=60 velocity=58 time=0
note_on channel=0 note=60 velocity=0 time=60
note_on channel=0 note=62 velocity=60 time=0
note_on channel=0 note=62 velocity=0 time=60
note_on channel=0 note=64 velocity=63 time=0
note_on channel=0 note=64 velocity=0 time=60
note_on channel=0 note=60 velocity=0 time=0
note_on channel=0 note=48 velocity=0 time=0
note_on channel=0 note=55 velocity=0 time=0
note_on channel=0 note=58 velocity=0 time=0
note_on channel=0 note=65 velocity=66 time=0
note_on channel=0 note=65 velocity=0 time=30
note_on channel=0 note=67 velocity=67 time=0
note_on channel=0 note=67 velocity=0 time=30
note_on channel=0 note=68 velocity=68 time=0
note_on channel=0 note=68 velocity=0 time=30
note_on channel=0 note=70 velocity=68 time=0
note_on channel=0 note=70 velocity=0 time=30
note_on channel=0 note=72 velocity=66 time=0
note_on channel=0 note=72 velocity=0 time=30
note_on channel=0 note=70 velocity=65 time=0
note_on channel=0 note=70 velocity=0 time=30
note_on channel=0 note=68 velocity=64 time=0
note_on channel=0 note=68 velocity=0 time=30
note_on channel=0 note=67 velocity=63 time=0
note_on channel=0 note=67 velocity=0 time=30
note_on channel=0 note=65 velocity=62 time=0
note_on channel=0 note=65 velocity=0 time=120
note_on channel=0 note=67 velocity=67 time=0
note_on channel=0 note=67 velocity=0 time=60
note_on channel=0 note=64 velocity=67 time=0
note_on channel=0 note=64 velocity=0 time=60
note_on channel=0 note=48 velocity=67 time=0
note_on channel=0 note=53 velocity=67 time=15
note_on channel=0 note=56 velocity=67 time=15
note_on channel=0 note=60 velocity=67 time=15
note_on channel=0 note=65 velocity=80 time=15
note_on channel=0 note=65 velocity=0 time=20
note_on channel=0 note=64 velocity=70 time=0
note_on channel=0 note=64 velocity=0 time=20
note_on channel=0 note=65 velocity=78 time=0
note_on channel=0 note=65 velocity=0 time=200
note_on channel=0 note=67 velocity=67 time=0
note_on channel=0 note=67 velocity=0 time=60
note_on channel=0 note=65 velocity=64 time=0
note_on channel=0 note=65 velocity=0 time=60
note_on channel=0 note=64 velocity=64 time=0
note_on channel=0 note=64 velocity=0 time=60
note_on channel=0 note=60 velocity=0 time=0
note_on channel=0 note=48 velocity=0 time=0
note_on channel=0 note=53 velocity=0 time=0
note_on channel=0 note=56 velocity=0 time=0
note_on channel=0 note=65 velocity=65 time=0
note_on channel=0 note=65 velocity=0 time=60
note_on channel=0 note=67 velocity=65 time=0
note_on channel=0 note=67 velocity=0 time=60
note_on channel=0 note=68 velocity=67 time=0
note_on channel=0 note=68 velocity=0 time=60
note_on channel=0 note=67 velocity=67 time=0
note_on channel=0 note=67 velocity=0 time=60
note_on channel=0 note=65 velocity=66 time=0
note_on channel=0 note=65 velocity=0 time=30
note_on channel=0 note=63 velocity=65 time=0
note_on channel=0 note=63 velocity=0 time=30
note_on channel=0 note=62 velocity=64 time=0
note_on channel=0 note=62 velocity=0 time=30
note_on channel=0 note=63 velocity=65 time=0
note_on channel=0 note=63 velocity=0 time=30
note_on channel=0 note=65 velocity=68 time=0
note_on channel=0 note=65 velocity=0 time=30
note_on channel=0 note=62 velocity=63 time=0
note_on channel=0 note=62 velocity=0 time=30
note_on channel=0 note=63 velocity=65 time=0
note_on channel=0 note=63 velocity=0 time=30
note_on channel=0 note=65 velocity=67 time=0
<meta message set_tempo tempo=456274 time=30>
<meta message marker text='Allegro' time=0>
note_on channel=0 note=65 velocity=0 time=0
note_on channel=0 note=59 velocity=67 time=0
note_on channel=0 note=36 velocity=60 time=120
note_on channel=0 note=47 velocity=65 time=120
note_on channel=0 note=36 velocity=0 time=20
note_on channel=0 note=59 velocity=0 time=100
note_on channel=0 note=50 velocity=69 time=0
<meta message set_tempo tempo=427046 time=120>
note_on channel=0 note=53 velocity=69 time=0
note_on channel=0 note=50 velocity=0 time=20
note_on channel=0 note=56 velocity=72 time=100
note_on channel=0 note=53 velocity=0 time=20
note_on channel=0 note=55 velocity=71 time=100
note_on channel=0 note=56 velocity=0 time=20
note_on channel=0 note=53 velocity=69 time=100
note_on channel=0 note=55 velocity=0 time=20
note_on channel=0 note=59 velocity=72 time=100
note_on channel=0 note=53 velocity=0 time=20
note_on channel=0 note=53 velocity=67 time=100
note_on channel=0 note=59 velocity=0 time=20
note_on channel=0 note=62 velocity=74 time=100
note_on channel=0 note=53 velocity=0 time=20
note_on channel=0 note=53 velocity=67 time=100
note_on channel=0 note=62 velocity=0 time=20
<meta message set_tempo tempo=422535 time=100>
note_on channel=0 note=59 velocity=70 time=0
note_on channel=0 note=53 velocity=0 time=20
note_on channel=0 note=56 velocity=69 time=100
note_on channel=0 note=59 velocity=0 time=20
note_on channel=0 note=55 velocity=68 time=100
note_on channel=0 note=56 velocity=0 time=20
<meta message set_tempo tempo=436364 time=100>
note_on channel=0 note=53 velocity=67 time=0
note_on channel=0 note=55 velocity=0 time=20
<meta message set_tempo tempo=465116 time=100>
note_on channel=0 note=53 velocity=0 time=0
note_on channel=0 note=47 velocity=0 time=0
note_on channel=0 note=52 velocity=72 time=0
<meta message set_tempo tempo=428571 time=120>
note_on channel=0 note=61 velocity=67 time=0
note_on channel=0 note=52 velocity=0 time=20
note_on channel=0 note=58 velocity=67 time=100
note_on channel=0 note=61 velocity=0 time=20
note_on channel=0 note=55 velocity=67 time=100
note_on channel=0 note=58 velocity=0 time=20
<meta message set_tempo tempo=425532 time=80>
note_on channel=0 note=60 velocity=72 time=20
note_on channel=0 note=55 velocity=0 time=20
note_on channel=0 note=56 velocity=67 time=100
note_on channel=0 note=60 velocity=0 time=20
note_on channel=0 note=53 velocity=67 time=100
note_on channel=0 note=56 velocity=0 time=20
<meta message set_tempo tempo=433213 time=100>
note_on channel=0 note=56 velocity=67 time=0
note_on channel=0 note=53 velocity=0 time=20
<meta message set_tempo tempo=428571 time=100>
note_on channel=0 note=55 velocity=72 time=0
note_on channel=0 note=56 velocity=0 time=20
note_on channel=0 note=58 velocity=67 time=100
note_on channel=0 note=55 velocity=0 time=20
<meta message set_tempo tempo=419580 time=100>
note_on channel=0 note=55 velocity=67 time=0
note_on channel=0 note=58 velocity=0 time=20
<meta message set_tempo tempo=437956 time=100>
note_on channel=0 note=52 velocity=67 time=0
note_on channel=0 note=55 velocity=0 time=20
<meta message set_tempo tempo=446097 time=100>
note_on channel=0 note=56 velocity=72 time=0
note_on channel=0 note=52 velocity=0 time=20
<meta message set_tempo tempo=428571 time=100>
note_on channel=0 note=53 velocity=67 time=0
note_on channel=0 note=56 velocity=0 time=20
<meta message set_tempo tempo=419580 time=100>
note_on channel=0 note=50 velocity=67 time=0
note_on channel=0 note=53 velocity=0 time=20
<meta message set_tempo tempo=437956 time=100>
note_on channel=0 note=53 velocity=67 time=0
note_on channel=0 note=50 velocity=0 time=20
<meta message set_tempo tempo=437956 time=100>
note_on channel=0 note=52 velocity=71 time=0
note_on channel=0 note=53 velocity=0 time=20
<meta message set_tempo tempo=428571 time=100>
note_on channel=0 note=55 velocity=67 time=0
note_on channel=0 note=52 velocity=0 time=20
<meta message set_tempo tempo=419580 time=100>
note_on channel=0 note=52 velocity=67 time=0
note_on channel=0 note=55 velocity=0 time=20
<meta message set_tempo tempo=439560 time=100>
note_on channel=0 note=48 velocity=67 time=0
note_on channel=0 note=52 velocity=0 time=20
<meta message set_tempo tempo=428571 time=100>
note_on channel=0 note=53 velocity=73 time=0
note_on channel=0 note=48 velocity=0 time=20
note_on channel=0 note=50 velocity=67 time=100
note_on channel=0 note=53 velocity=0 time=20
<meta message set_tempo tempo=418118 time=100>
note_on channel=0 note=47 velocity=67 time=0
note_on channel=0 note=50 velocity=0 time=20
<meta message set_tempo tempo=437956 time=100>
note_on channel=0 note=50 velocity=67 time=0
note_on channel=0 note=47 velocity=0 time=20
<meta message set_tempo tempo=447761 time=100>
note_on channel=0 note=50 velocity=0 time=0
note_on channel=0 note=36 velocity=72 time=0
note_on channel=0 note=43 velocity=67 time=120
<meta message set_tempo tempo=430108 time=120>
note_on channel=0 note=48 velocity=67 time=0
note_on channel=0 note=43 velocity=0 time=20
note_on channel=0 note=50 velocity=67 time=100
note_on channel=0 note=52 velocity=68 time=120
note_on channel=0 note=50 velocity=0 time=20
note_on channel=0 note=55 velocity=67 time=100
note_on channel=0 note=52 velocity=0 time=20
note_on channel=0 note=58 velocity=71 time=100
note_on channel=0 note=55 velocity=0 time=20
note_on channel=0 note=55 velocity=67 time=100
note_on channel=0 note=58 velocity=0 time=20
<meta message set_tempo tempo=439560 time=100>
note_on channel=0 note=56 velocity=68 time=0
note_on channel=0 note=55 velocity=0 time=20
note_on channel=0 note=60 velocity=65 time=100
note_on channel=0 note=56 velocity=0 time=20
<meta message set_tempo tempo=461538 time=100>
note_on channel=0 note=65 velocity=68 time=0
note_on channel=0 note=60 velocity=0 time=20
note_on channel=0 note=62 velocity=67 time=100
note_on channel=0 note=65 velocity=0 time=20
<meta message set_tempo tempo=517241 time=100>
note_on channel=0 note=65 velocity=64 time=0
note_on channel=0 note=62 velocity=0 time=20
note_on channel=0 note=68 velocity=59 time=100
note_on channel=0 note=65 velocity=0 time=20
<meta message set_tempo tempo=568720 time=100>
note_on channel=0 note=72 velocity=62 time=0
note_on channel=0 note=68 velocity=0 time=20
note_on channel=0 note=71 velocity=57 time=100
note_on channel=0 note=72 velocity=0 time=20
<meta message set_tempo tempo=655738 time=100>
note_on channel=0 note=72 velocity=59 time=0
note_on channel=0 note=71 velocity=0 time=20
<meta message set_tempo tempo=727273 time=100>
note_on channel=0 note=67 velocity=54 time=0
note_on channel=0 note=72 velocity=0 time=20
<meta message set_tempo tempo=794702 time=100>
note_on channel=0 note=65 velocity=52 time=0
note_on channel=0 note=67 velocity=0 time=20
<meta message set_tempo tempo=1904762 time=100>
note_on channel=0 note=62 velocity=49 time=0
note_on channel=0 note=65 velocity=0 time=20
<meta message set_tempo tempo=2400000 time=100>
note_on channel=0 note=64 velocity=42 time=0
note_on channel=0 note=62 velocity=0 time=20
<meta message set_tempo tempo=7500000 time=340>
note_on channel=0 note=36 velocity=0 time=0
note_on channel=0 note=48 velocity=0 time=0
note_on channel=0 note=64 velocity=0 time=0
<meta message set_tempo tempo=827016 time=120>
<meta message marker text='Fuga' time=0>
control_change channel=0 control=91 value=127 time=0
control_change channel=0 control=91 value=127 time=0
control_change channel=0 control=91 value=127 time=0
note_on channel=0 note=72 velocity=81 time=240
note_on channel=0 note=72 velocity=0 time=120
note_on channel=0 note=71 velocity=81 time=0
note_on channel=0 note=71 velocity=0 time=120
note_on channel=0 note=72 velocity=86 time=0
note_on channel=0 note=72 velocity=0 time=120
<meta message set_tempo tempo=852878 time=120>
note_on channel=0 note=67 velocity=71 time=0
<meta message set_tempo tempo=827016 time=240>
note_on channel=0 note=67 velocity=0 time=0
note_on channel=0 note=68 velocity=72 time=0
note_on channel=0 note=68 velocity=0 time=120
note_on channel=0 note=72 velocity=81 time=120
note_on channel=0 note=72 velocity=0 time=120
note_on channel=0 note=71 velocity=81 time=0
note_on channel=0 note=71 velocity=0 time=120
note_on channel=0 note=72 velocity=86 time=0
note_on channel=0 note=72 velocity=0 time=120
note_on channel=0 note=74 velocity=76 time=120
note_on channel=0 note=74 velocity=0 time=240
note_on channel=0 note=67 velocity=73 time=0
note_on channel=0 note=67 velocity=0 time=120
note_on channel=0 note=72 velocity=81 time=120
note_on channel=0 note=72 velocity=0 time=120
note_on channel=0 note=71 velocity=81 time=0
note_on channel=0 note=71 velocity=0 time=120
note_on channel=0 note=72 velocity=86 time=0
note_on channel=0 note=72 velocity=0 time=120
note_on channel=0 note=74 velocity=77 time=120
note_on channel=0 note=74 velocity=0 time=120
<meta message set_tempo tempo=847458 time=120>
note_on channel=0 note=65 velocity=75 time=0
note_on channel=0 note=65 velocity=0 time=120
note_on channel=0 note=67 velocity=75 time=0
note_on channel=0 note=67 velocity=0 time=120
note_on channel=0 note=68 velocity=81 time=0
<meta message set_tempo tempo=827016 time=240>
<meta message set_tempo tempo=827016 time=240>
note_on channel=0 note=68 velocity=0 time=0
note_on channel=0 note=67 velocity=73 time=0
note_on channel=0 note=67 velocity=0 time=120
note_on channel=0 note=65 velocity=71 time=0
note_on channel=0 note=65 velocity=0 time=120
control_change channel=0 control=91 value=127 time=0
note_on channel=0 note=63 velocity=75 time=0
note_on channel=0 note=63 velocity=0 time=60
note_on channel=0 note=72 velocity=71 time=60
note_on channel=0 note=72 velocity=0 time=120
note_on channel=0 note=79 velocity=81 time=0
note_on channel=0 note=71 velocity=62 time=0
note_on channel=0 note=71 velocity=0 time=120
note_on channel=0 note=79 velocity=0 time=0
note_on channel=0 note=78 velocity=81 time=0
note_on channel=0 note=68 velocity=62 time=0
note_on channel=0 note=68 velocity=0 time=120
note_on channel=0 note=78 velocity=0 time=0
note_on channel=0 note=79 velocity=86 time=0
note_on channel=0 note=67 velocity=62 time=0
note_on channel=0 note=67 velocity=0 time=120
note_on channel=0 note=79 velocity=0 time=0
note_on channel=0 note=65 velocity=62 time=0
note_on channel=0 note=65 velocity=0 time=120
note_on channel=0 note=72 velocity=71 time=0
note_on channel=0 note=63 velocity=62 time=0
note_on channel=0 note=63 velocity=0 time=120
note_on channel=0 note=62 velocity=62 time=0
note_on channel=0 note=62 velocity=0 time=120
note_on channel=0 note=72 velocity=0 time=0
note_on channel=0 note=75 velocity=72 time=0
note_on channel=0 note=60 velocity=67 time=0
note_on channel=0 note=60 velocity=0 time=120
note_on channel=0 note=75 velocity=0 time=0
note_on channel=0 note=79 velocity=81 time=120
note_on channel=0 note=75 velocity=65 time=0
note_on channel=0 note=79 velocity=0 time=120
note_on channel=0 note=78 velocity=81 time=0
note_on channel=0 note=78 velocity=0 time=120
note_on channel=0 note=75 velocity=0 time=0
note_on channel=0 note=79 velocity=86 time=0
note_on channel=0 note=74 velocity=65 time=0
note_on channel=0 note=79 velocity=0 time=120
note_on channel=0 note=74 velocity=0 time=120
note_on channel=0 note=81 velocity=76 time=0
note_on channel=0 note=72 velocity=65 time=0
note_on channel=0 note=72 velocity=0 time=240
note_on channel=0 note=81 velocity=0 time=0
note_on channel=0 note=74 velocity=73 time=0
note_on channel=0 note=70 velocity=68 time=0
note_on channel=0 note=70 velocity=0 time=120
note_on channel=0 note=74 velocity=0 time=0
note_on channel=0 note=79 velocity=81 time=120
note_on channel=0 note=69 velocity=63 time=0
note_on channel=0 note=79 velocity=0 time=120
note_on channel=0 note=78 velocity=81 time=0
note_on channel=0 note=78 velocity=0 time=120
note_on channel=0 note=69 velocity=0 time=0
note_on channel=0 note=79 velocity=86 time=0
note_on channel=0 note=70 velocity=67 time=0
note_on channel=0 note=79 velocity=0 time=120
note_on channel=0 note=70 velocity=0 time=120
note_on channel=0 note=81 velocity=77 time=0
note_on channel=0 note=72 velocity=62 time=0
note_on channel=0 note=72 velocity=0 time=238
<meta message set_tempo tempo=858124 time=2>
note_on channel=0 note=81 velocity=0 time=0
note_on channel=0 note=72 velocity=75 time=0
note_on channel=0 note=66 velocity=67 time=0
note_on channel=0 note=72 velocity=0 time=120
note_on channel=0 note=74 velocity=75 time=0
note_on channel=0 note=74 velocity=0 time=120
note_on channel=0 note=66 velocity=0 time=0
note_on channel=0 note=75 velocity=81 time=0
note_on channel=0 note=67 velocity=62 time=0
<meta message set_tempo tempo=827016 time=240>
note_on channel=0 note=67 velocity=0 time=0
note_on channel=0 note=69 velocity=66 time=0
<meta message set_tempo tempo=827016 time=240>
note_on channel=0 note=69 velocity=0 time=0
note_on channel=0 note=75 velocity=0 time=0
note_on channel=0 note=74 velocity=73 time=0
note_on channel=0 note=66 velocity=63 time=0
note_on channel=0 note=74 velocity=0 time=120
note_on channel=0 note=72 velocity=73 time=0
note_on channel=0 note=72 velocity=0 time=120
note_on channel=0 note=66 velocity=0 time=0
note_on channel=0 note=70 velocity=78 time=0
control_change channel=0 control=91 value=127 time=0
note_on channel=0 note=67 velocity=69 time=0
note_on channel=0 note=70 velocity=0 time=120
note_on channel=0 note=75 velocity=81 time=120
note_on channel=0 note=75 velocity=0 time=120
note_on channel=0 note=74 velocity=81 time=0
note_on channel=0 note=74 velocity=0 time=120
note_on channel=0 note=67 velocity=0 time=0
note_on channel=0 note=75 velocity=86 time=0
note_on channel=0 note=75 velocity=0 time=120
note_on channel=0 note=60 velocity=70 time=0
note_on channel=0 note=60 velocity=0 time=120
note_on channel=0 note=67 velocity=71 time=0
note_on channel=0 note=62 velocity=72 time=0
note_on channel=0 note=62 velocity=0 time=120
note_on channel=0 note=63 velocity=74 time=0
note_on channel=0 note=63 velocity=0 time=120
note_on channel=0 note=67 velocity=0 time=0
note_on channel=0 note=68 velocity=72 time=0
note_on channel=0 note=65 velocity=75 time=0
note_on channel=0 note=65 velocity=0 time=120
note_on channel=0 note=68 velocity=0 time=0
note_on channel=0 note=67 velocity=75 time=0
note_on channel=0 note=67 velocity=0 time=120
note_on channel=0 note=77 velocity=81 time=0
note_on channel=0 note=68 velocity=79 time=0
note_on channel=0 note=77 velocity=0 time=120
note_on channel=0 note=75 velocity=81 time=0
note_on channel=0 note=75 velocity=0 time=120
note_on channel=0 note=77 velocity=86 time=0
note_on channel=0 note=77 velocity=0 time=120
note_on channel=0 note=68 velocity=0 time=0
note_on channel=0 note=62 velocity=71 time=0
note_on channel=0 note=62 velocity=0 time=120
note_on channel=0 note=69 velocity=76 time=0
note_on channel=0 note=63 velocity=73 time=0
note_on channel=0 note=63 velocity=0 time=120
note_on channel=0 note=65 velocity=74 time=0
note_on channel=0 note=65 velocity=0 time=120
note_on channel=0 note=69 velocity=0 time=0
note_on channel=0 note=70 velocity=78 time=0
control_change channel=0 control=91 value=127 time=0
note_on channel=0 note=67 velocity=76 time=0
note_on channel=0 note=67 velocity=0 time=120
note_on channel=0 note=70 velocity=0 time=0
note_on channel=0 note=69 velocity=77 time=0
note_on channel=0 note=69 velocity=0 time=120
note_on channel=0 note=79 velocity=81 time=0
note_on channel=0 note=70 velocity=79 time=0
note_on channel=0 note=79 velocity=0 time=120
note_on channel=0 note=77 velocity=81 time=0
note_on channel=0 note=77 velocity=0 time=120
note_on channel=0 note=79 velocity=86 time=0
note_on channel=0 note=79 velocity=0 time=120
note_on channel=0 note=70 velocity=0 time=0
note_on channel=0 note=63 velocity=69 time=0
note_on channel=0 note=63 velocity=0 time=120
note_on channel=0 note=71 velocity=71 time=0
note_on channel=0 note=65 velocity=71 time=0
note_on channel=0 note=65 velocity=0 time=120
note_on channel=0 note=67 velocity=73 time=0
note_on channel=0 note=67 velocity=0 time=120
note_on channel=0 note=71 velocity=0 time=0
note_on channel=0 note=72 velocity=72 time=0
note_on channel=0 note=68 velocity=74 time=0
note_on channel=0 note=68 velocity=0 time=120
note_on channel=0 note=72 velocity=0 time=0
note_on channel=0 note=67 velocity=73 time=0
note_on channel=0 note=67 velocity=0 time=120
note_on channel=0 note=74 velocity=81 time=0
note_on channel=0 note=65 velocity=72 time=0
note_on channel=0 note=65 velocity=0 time=120
note_on channel=0 note=74 velocity=0 time=0
note_on channel=0 note=75 velocity=81 time=0
note_on channel=0 note=63 velocity=71 time=0
note_on channel=0 note=63 velocity=0 time=120
note_on channel=0 note=75 velocity=0 time=0
note_on channel=0 note=77 velocity=86 time=0
note_on channel=0 note=62 velocity=70 time=0
note_on channel=0 note=62 velocity=0 time=120
note_on channel=0 note=72 velocity=78 time=120
note_on channel=0 note=72 velocity=0 time=120
note_on channel=0 note=71 velocity=78 time=0
note_on channel=0 note=71 velocity=0 time=120
note_on channel=0 note=72 velocity=83 time=0
control_change channel=0 control=91 value=127 time=0
note_on channel=0 note=72 velocity=0 time=120
note_on channel=0 note=77 velocity=0 time=120
note_on channel=0 note=75 velocity=71 time=0
note_on channel=0 note=60 velocity=81 time=0
note_on channel=0 note=60 velocity=0 time=120
note_on channel=0 note=75 velocity=0 time=0
note_on channel=0 note=74 velocity=71 time=0
note_on channel=0 note=59 velocity=81 time=0
note_on channel=0 note=59 velocity=0 time=120
note_on channel=0 note=74 velocity=0 time=0
note_on channel=0 note=72 velocity=70 time=0
note_on channel=0 note=60 velocity=86 time=0
note_on channel=0 note=60 velocity=0 time=120
note_on channel=0 note=72 velocity=0 time=0
note_on channel=0 note=70 velocity=69 time=0
<meta message set_tempo tempo=863682 time=120>
note_on channel=0 note=70 velocity=0 time=0
note_on channel=0 note=68 velocity=69 time=0
note_on channel=0 note=55 velocity=71 time=0
note_on channel=0 note=68 velocity=0 time=120
note_on channel=0 note=67 velocity=68 time=0
<meta message set_tempo tempo=827016 time=120>
note_on channel=0 note=67 velocity=0 time=0
note_on channel=0 note=55 velocity=0 time=0
note_on channel=0 note=65 velocity=68 time=0
note_on channel=0 note=56 velocity=72 time=0
note_on channel=0 note=56 velocity=0 time=120
note_on channel=0 note=65 velocity=0 time=0
note_on channel=0 note=80 velocity=74 time=120
note_on channel=0 note=77 velocity=74 time=0
note_on channel=0 note=60 velocity=81 time=0
note_on channel=0 note=60 velocity=0 time=120
note_on channel=0 note=59 velocity=81 time=0
note_on channel=0 note=59 velocity=0 time=120
note_on channel=0 note=77 velocity=0 time=0
note_on channel=0 note=80 velocity=0 time=0
note_on channel=0 note=79 velocity=73 time=0
note_on channel=0 note=75 velocity=73 time=0
note_on channel=0 note=60 velocity=86 time=0
note_on channel=0 note=60 velocity=0 time=120
note_on channel=0 note=75 velocity=0 time=120
note_on channel=0 note=79 velocity=0 time=0
note_on channel=0 note=77 velocity=73 time=0
note_on channel=0 note=74 velocity=72 time=0
note_on channel=0 note=62 velocity=76 time=0
note_on channel=0 note=62 velocity=0 time=240
note_on channel=0 note=74 velocity=0 time=0
note_on channel=0 note=77 velocity=0 time=0
note_on channel=0 note=75 velocity=72 time=0
note_on channel=0 note=55 velocity=73 time=0
note_on channel=0 note=55 velocity=0 time=120
note_on channel=0 note=75 velocity=0 time=0
note_on channel=0 note=74 velocity=74 time=120
note_on channel=0 note=68 velocity=73 time=0
note_on channel=0 note=60 velocity=81 time=0
note_on channel=0 note=60 velocity=0 time=120
note_on channel=0 note=59 velocity=81 time=0
note_on channel=0 note=59 velocity=0 time=120
note_on channel=0 note=68 velocity=0 time=0
note_on channel=0 note=74 velocity=0 time=0
note_on channel=0 note=75 velocity=74 time=0
note_on channel=0 note=67 velocity=73 time=0
note_on channel=0 note=60 velocity=86 time=0
note_on channel=0 note=60 velocity=0 time=120
note_on channel=0 note=67 velocity=0 time=120
note_on channel=0 note=75 velocity=0 time=0
note_on channel=0 note=77 velocity=74 time=0
note_on channel=0 note=65 velocity=73 time=0
note_on channel=0 note=62 velocity=77 time=0
note_on channel=0 note=62 velocity=0 time=120
<meta message set_tempo tempo=858124 time=120>
note_on channel=0 note=65 velocity=0 time=0
note_on channel=0 note=77 velocity=0 time=0
note_on channel=0 note=71 velocity=81 time=0
note_on channel=0 note=67 velocity=75 time=0
note_on channel=0 note=53 velocity=72 time=0
note_on channel=0 note=53 velocity=0 time=120
note_on channel=0 note=67 velocity=0 time=0
note_on channel=0 note=71 velocity=0 time=0
note_on channel=0 note=55 velocity=72 time=0
note_on channel=0 note=55 velocity=0 time=120
note_on channel=0 note=72 velocity=77 time=0
note_on channel=0 note=65 velocity=78 time=0
note_on channel=0 note=56 velocity=74 time=0
note_on channel=0 note=65 velocity=0 time=120
note_on channel=0 note=63 velocity=78 time=0
<meta message set_tempo tempo=827016 time=120>
note_on channel=0 note=63 velocity=0 time=0
note_on channel=0 note=72 velocity=0 time=0
note_on channel=0 note=74 velocity=77 time=0
note_on channel=0 note=65 velocity=84 time=0
note_on channel=0 note=65 velocity=0 time=120
<meta message set_tempo tempo=827016 time=120>
note_on channel=0 note=74 velocity=0 time=0
note_on channel=0 note=56 velocity=0 time=0
note_on channel=0 note=71 velocity=77 time=0
note_on channel=0 note=62 velocity=76 time=0
note_on channel=0 note=55 velocity=73 time=0
note_on channel=0 note=55 velocity=0 time=120
note_on channel=0 note=53 velocity=73 time=0
note_on channel=0 note=53 velocity=0 time=120
note_on channel=0 note=62 velocity=0 time=0
note_on channel=0 note=71 velocity=0 time=0
note_on channel=0 note=72 velocity=81 time=0
control_change channel=0 control=91 value=127 time=0
note_on channel=0 note=67 velocity=82 time=0
note_on channel=0 note=51 velocity=72 time=0
note_on channel=0 note=51 velocity=0 time=60
note_on channel=0 note=60 velocity=75 time=60
note_on channel=0 note=60 velocity=0 time=120
note_on channel=0 note=72 velocity=0 time=0
note_on channel=0 note=79 velocity=81 time=0
note_on channel=0 note=59 velocity=74 time=0
note_on channel=0 note=59 velocity=0 time=120
note_on channel=0 note=79 velocity=0 time=0
note_on channel=0 note=78 velocity=81 time=0
note_on channel=0 note=57 velocity=73 time=0
note_on channel=0 note=57 velocity=0 time=120
note_on channel=0 note=78 velocity=0 time=0
note_on channel=0 note=67 velocity=0 time=0
note_on channel=0 note=79 velocity=86 time=0
note_on channel=0 note=55 velocity=72 time=0
note_on channel=0 note=55 velocity=0 time=120
note_on channel=0 note=79 velocity=0 time=0
note_on channel=0 note=53 velocity=70 time=0
<meta message set_tempo tempo=847458 time=120>
note_on channel=0 note=53 velocity=0 time=0
note_on channel=0 note=74 velocity=71 time=0
note_on channel=0 note=71 velocity=72 time=0
note_on channel=0 note=51 velocity=69 time=0
note_on channel=0 note=51 velocity=0 time=120
note_on channel=0 note=50 velocity=68 time=0
note_on channel=0 note=50 velocity=0 time=120
note_on channel=0 note=71 velocity=0 time=0
note_on channel=0 note=74 velocity=0 time=0
note_on channel=0 note=75 velocity=72 time=0
note_on channel=0 note=72 velocity=72 time=0
note_on channel=0 note=48 velocity=67 time=0
note_on channel=0 note=48 velocity=0 time=120
note_on channel=0 note=72 velocity=0 time=0
note_on channel=0 note=50 velocity=70 time=0
<meta message set_tempo tempo=827016 time=120>
note_on channel=0 note=50 velocity=0 time=0
note_on channel=0 note=72 velocity=82 time=0
note_on channel=0 note=51 velocity=71 time=0
note_on channel=0 note=51 velocity=0 time=120
note_on channel=0 note=72 velocity=0 time=0
note_on channel=0 note=71 velocity=82 time=0
note_on channel=0 note=50 velocity=70 time=0
note_on channel=0 note=50 velocity=0 time=120
note_on channel=0 note=71 velocity=0 time=0
note_on channel=0 note=75 velocity=0 time=0
note_on channel=0 note=72 velocity=87 time=0
note_on channel=0 note=48 velocity=67 time=0
note_on channel=0 note=48 velocity=0 time=120
note_on channel=0 note=72 velocity=0 time=0
note_on channel=0 note=46 velocity=71 time=0
<meta message set_tempo tempo=858124 time=120>
note_on channel=0 note=46 velocity=0 time=0
note_on channel=0 note=76 velocity=72 time=0
note_on channel=0 note=67 velocity=73 time=0
note_on channel=0 note=44 velocity=70 time=0
note_on channel=0 note=44 velocity=0 time=120
note_on channel=0 note=43 velocity=68 time=0
note_on channel=0 note=43 velocity=0 time=120
note_on channel=0 note=67 velocity=0 time=0
note_on channel=0 note=76 velocity=0 time=0
note_on channel=0 note=77 velocity=81 time=0
control_change channel=0 control=91 value=127 time=0
note_on channel=0 note=68 velocity=73 time=0
note_on channel=0 note=41 velocity=67 time=0
note_on channel=0 note=41 velocity=0 time=60
note_on channel=0 note=77 velocity=0 time=60
note_on channel=0 note=58 velocity=74 time=0
<meta message set_tempo tempo=827016 time=120>
note_on channel=0 note=58 velocity=0 time=0
note_on channel=0 note=77 velocity=81 time=0
note_on channel=0 note=56 velocity=74 time=0
note_on channel=0 note=56 velocity=0 time=120
note_on channel=0 note=77 velocity=0 time=0
note_on channel=0 note=76 velocity=81 time=0
note_on channel=0 note=55 velocity=73 time=0
note_on channel=0 note=55 velocity=0 time=120
note_on channel=0 note=76 velocity=0 time=0
note_on channel=0 note=68 velocity=0 time=0
note_on channel=0 note=77 velocity=86 time=0
note_on channel=0 note=53 velocity=72 time=0
note_on channel=0 note=53 velocity=0 time=120
note_on channel=0 note=77 velocity=0 time=0
note_on channel=0 note=51 velocity=72 time=0
note_on channel=0 note=51 velocity=0 time=120
note_on channel=0 note=72 velocity=71 time=0
note_on channel=0 note=69 velocity=71 time=0
note_on channel=0 note=50 velocity=71 time=0
note_on channel=0 note=50 velocity=0 time=120
note_on channel=0 note=48 velocity=70 time=0
note_on channel=0 note=48 velocity=0 time=120
note_on channel=0 note=69 velocity=0 time=0
note_on channel=0 note=72 velocity=0 time=0
note_on channel=0 note=74 velocity=72 time=0
note_on channel=0 note=70 velocity=71 time=0
note_on channel=0 note=46 velocity=70 time=0
note_on channel=0 note=46 velocity=0 time=120
note_on channel=0 note=70 velocity=0 time=0
note_on channel=0 note=48 velocity=71 time=0
note_on channel=0 note=48 velocity=0 time=120
note_on channel=0 note=70 velocity=82 time=0
note_on channel=0 note=50 velocity=71 time=0
note_on channel=0 note=50 velocity=0 time=120
note_on channel=0 note=70 velocity=0 time=0
note_on channel=0 note=69 velocity=82 time=0
note_on channel=0 note=48 velocity=73 time=0
note_on channel=0 note=48 velocity=0 time=120
note_on channel=0 note=69 velocity=0 time=0
note_on channel=0 note=74 velocity=0 time=0
note_on channel=0 note=70 velocity=86 time=0
note_on channel=0 note=46 velocity=71 time=0
note_on channel=0 note=46 velocity=0 time=120
note_on channel=0 note=70 velocity=0 time=0
note_on channel=0 note=44 velocity=70 time=0
<meta message set_tempo tempo=858124 time=120>
note_on channel=0 note=44 velocity=0 time=0
note_on channel=0 note=74 velocity=72 time=0
note_on channel=0 note=65 velocity=75 time=0
note_on channel=0 note=43 velocity=68 time=0
note_on channel=0 note=43 velocity=0 time=120
note_on channel=0 note=41 velocity=66 time=0
note_on channel=0 note=41 velocity=0 time=120
note_on channel=0 note=65 velocity=0 time=0
note_on channel=0 note=74 velocity=0 time=0
note_on channel=0 note=75 velocity=81 time=0
control_change channel=0 control=91 value=127 time=0
note_on channel=0 note=67 velocity=75 time=0
note_on channel=0 note=39 velocity=65 time=0
note_on channel=0 note=39 velocity=0 time=60
note_on channel=0 note=75 velocity=0 time=60
note_on channel=0 note=56 velocity=75 time=0
<meta message set_tempo tempo=827016 time=120>
note_on channel=0 note=56 velocity=0 time=0
note_on channel=0 note=75 velocity=81 time=0
note_on channel=0 note=55 velocity=74 time=0
note_on channel=0 note=55 velocity=0 time=120
note_on channel=0 note=75 velocity=0 time=0
note_on channel=0 note=74 velocity=81 time=0
note_on channel=0 note=53 velocity=73 time=0
note_on channel=0 note=53 velocity=0 time=120
note_on channel=0 note=74 velocity=0 time=0
note_on channel=0 note=67 velocity=0 time=0
note_on channel=0 note=75 velocity=86 time=0
note_on channel=0 note=51 velocity=72 time=0
note_on channel=0 note=51 velocity=0 time=120
note_on channel=0 note=75 velocity=0 time=0
note_on channel=0 note=49 velocity=71 time=0
note_on channel=0 note=49 velocity=0 time=120
note_on channel=0 note=70 velocity=71 time=0
note_on channel=0 note=67 velocity=74 time=0
note_on channel=0 note=48 velocity=70 time=0
note_on channel=0 note=48 velocity=0 time=120
note_on channel=0 note=46 velocity=69 time=0
note_on channel=0 note=46 velocity=0 time=120
note_on channel=0 note=67 velocity=0 time=0
note_on channel=0 note=70 velocity=0 time=0
note_on channel=0 note=72 velocity=76 time=0
control_change channel=0 control=91 value=127 time=0
note_on channel=0 note=68 velocity=74 time=0
note_on channel=0 note=44 velocity=68 time=0
note_on channel=0 note=44 velocity=0 time=120
note_on channel=0 note=68 velocity=0 time=0
note_on channel=0 note=72 velocity=0 time=0
<meta message set_tempo tempo=842342 time=120>
note_on channel=0 note=75 velocity=81 time=0
note_on channel=0 note=68 velocity=75 time=0
note_on channel=0 note=60 velocity=75 time=0
note_on channel=0 note=75 velocity=0 time=120
note_on channel=0 note=74 velocity=81 time=0
note_on channel=0 note=74 velocity=0 time=120
note_on channel=0 note=60 velocity=0 time=0
note_on channel=0 note=68 velocity=0 time=0
note_on channel=0 note=75 velocity=86 time=0
note_on channel=0 note=67 velocity=74 time=0
note_on channel=0 note=58 velocity=74 time=0
note_on channel=0 note=75 velocity=0 time=120
note_on channel=0 note=58 velocity=0 time=120
note_on channel=0 note=67 velocity=0 time=0
note_on channel=0 note=77 velocity=81 time=0
note_on channel=0 note=65 velocity=72 time=0
note_on channel=0 note=56 velocity=72 time=0
note_on channel=0 note=56 velocity=0 time=240
note_on channel=0 note=65 velocity=0 time=0
note_on channel=0 note=77 velocity=0 time=0
note_on channel=0 note=70 velocity=81 time=0
control_change channel=0 control=91 value=127 time=0
note_on channel=0 note=55 velocity=72 time=0
note_on channel=0 note=55 velocity=0 time=120
note_on channel=0 note=70 velocity=0 time=0
<meta message set_tempo tempo=842342 time=120>
note_on channel=0 note=75 velocity=81 time=0
note_on channel=0 note=56 velocity=66 time=0
note_on channel=0 note=53 velocity=66 time=0
note_on channel=0 note=75 velocity=0 time=120
note_on channel=0 note=74 velocity=81 time=0
note_on channel=0 note=74 velocity=0 time=120
note_on channel=0 note=53 velocity=0 time=0
note_on channel=0 note=56 velocity=0 time=0
note_on channel=0 note=75 velocity=86 time=0
note_on channel=0 note=58 velocity=69 time=0
note_on channel=0 note=55 velocity=69 time=0
note_on channel=0 note=55 velocity=0 time=240
note_on channel=0 note=58 velocity=0 time=0
note_on channel=0 note=75 velocity=0 time=0
note_on channel=0 note=77 velocity=81 time=0
note_on channel=0 note=60 velocity=71 time=0
note_on channel=0 note=56 velocity=71 time=0
note_on channel=0 note=56 velocity=0 time=180
note_on channel=0 note=60 velocity=0 time=0
note_on channel=0 note=77 velocity=0 time=0
<meta message set_tempo tempo=858124 time=60>
note_on channel=0 note=68 velocity=75 time=0
note_on channel=0 note=50 velocity=65 time=0
note_on channel=0 note=68 velocity=0 time=120
note_on channel=0 note=70 velocity=75 time=0
note_on channel=0 note=70 velocity=0 time=120
note_on channel=0 note=50 velocity=0 time=0
note_on channel=0 note=72 velocity=81 time=0
note_on channel=0 note=56 velocity=73 time=0
note_on channel=0 note=51 velocity=69 time=0
note_on channel=0 note=56 velocity=0 time=120
note_on channel=0 note=55 velocity=73 time=0
<meta message set_tempo tempo=837287 time=120>
note_on channel=0 note=55 velocity=0 time=0
note_on channel=0 note=51 velocity=0 time=0
note_on channel=0 note=56 velocity=78 time=0
note_on channel=0 note=53 velocity=72 time=0
note_on channel=0 note=56 velocity=0 time=120
note_on channel=0 note=53 velocity=0 time=120
note_on channel=0 note=72 velocity=0 time=0
note_on channel=0 note=70 velocity=76 time=0
note_on channel=0 note=53 velocity=72 time=0
note_on channel=0 note=50 velocity=68 time=0
note_on channel=0 note=70 velocity=0 time=120
note_on channel=0 note=68 velocity=76 time=0
note_on channel=0 note=68 velocity=0 time=120
note_on channel=0 note=50 velocity=0 time=0
note_on channel=0 note=53 velocity=0 time=0
note_on channel=0 note=67 velocity=72 time=0
note_on channel=0 note=58 velocity=71 time=0
note_on channel=0 note=51 velocity=67 time=0
note_on channel=0 note=67 velocity=0 time=60
note_on channel=0 note=51 velocity=0 time=60
note_on channel=0 note=58 velocity=0 time=0
note_on channel=0 note=63 velocity=69 time=0
<meta message set_tempo tempo=827016 time=120>
note_on channel=0 note=63 velocity=0 time=0
note_on channel=0 note=65 velocity=70 time=0
note_on channel=0 note=60 velocity=65 time=0
note_on channel=0 note=56 velocity=56 time=0
note_on channel=0 note=65 velocity=0 time=120
note_on channel=0 note=67 velocity=71 time=0
note_on channel=0 note=67 velocity=0 time=120
note_on channel=0 note=56 velocity=0 time=0
note_on channel=0 note=60 velocity=0 time=0
note_on channel=0 note=68 velocity=72 time=0
note_on channel=0 note=58 velocity=63 time=0
note_on channel=0 note=55 velocity=55 time=0
note_on channel=0 note=68 velocity=0 time=120
note_on channel=0 note=70 velocity=74 time=0
note_on channel=0 note=70 velocity=0 time=120
note_on channel=0 note=55 velocity=0 time=0
note_on channel=0 note=58 velocity=0 time=0
note_on channel=0 note=72 velocity=75 time=0
note_on channel=0 note=56 velocity=61 time=0
note_on channel=0 note=53 velocity=53 time=0
note_on channel=0 note=72 velocity=0 time=120
note_on channel=0 note=74 velocity=76 time=0
note_on channel=0 note=74 velocity=0 time=120
note_on channel=0 note=53 velocity=0 time=0
note_on channel=0 note=56 velocity=0 time=0
note_on channel=0 note=75 velocity=77 time=0
note_on channel=0 note=58 velocity=57 time=0
note_on channel=0 note=55 velocity=55 time=0
note_on channel=0 note=55 velocity=0 time=120
note_on channel=0 note=58 velocity=0 time=0
note_on channel=0 note=75 velocity=0 time=0
note_on channel=0 note=74 velocity=76 time=0
note_on channel=0 note=74 velocity=0 time=120
note_on channel=0 note=72 velocity=75 time=0
note_on channel=0 note=55 velocity=68 time=0
note_on channel=0 note=53 velocity=56 time=0
note_on channel=0 note=72 velocity=0 time=120
note_on channel=0 note=74 velocity=75 time=0
note_on channel=0 note=74 velocity=0 time=120
note_on channel=0 note=53 velocity=0 time=0
note_on channel=0 note=55 velocity=0 time=0
note_on channel=0 note=75 velocity=77 time=0
note_on channel=0 note=53 velocity=66 time=0
note_on channel=0 note=50 velocity=55 time=0
note_on channel=0 note=75 velocity=0 time=120
note_on channel=0 note=77 velocity=80 time=0
note_on channel=0 note=77 velocity=0 time=120
note_on channel=0 note=50 velocity=0 time=0
note_on channel=0 note=53 velocity=0 time=0
note_on channel=0 note=79 velocity=82 time=0
note_on channel=0 note=51 velocity=65 time=0
note_on channel=0 note=48 velocity=52 time=0
note_on channel=0 note=79 velocity=0 time=120
note_on channel=0 note=81 velocity=85 time=0
note_on channel=0 note=81 velocity=0 time=120
note_on channel=0 note=48 velocity=0 time=0
note_on channel=0 note=51 velocity=0 time=0
note_on channel=0 note=82 velocity=88 time=0
note_on channel=0 note=53 velocity=63 time=0
note_on channel=0 note=50 velocity=50 time=0
note_on channel=0 note=82 velocity=0 time=60
note_on channel=0 note=50 velocity=0 time=60
note_on channel=0 note=53 velocity=0 time=0
note_on channel=0 note=65 velocity=67 time=0
note_on channel=0 note=65 velocity=0 time=120
note_on channel=0 note=67 velocity=68 time=0
note_on channel=0 note=61 velocity=71 time=0
note_on channel=0 note=58 velocity=54 time=0
note_on channel=0 note=67 velocity=0 time=120
note_on channel=0 note=68 velocity=69 time=0
note_on channel=0 note=68 velocity=0 time=120
note_on channel=0 note=58 velocity=0 time=0
note_on channel=0 note=61 velocity=0 time=0
note_on channel=0 note=70 velocity=71 time=0
note_on channel=0 note=60 velocity=69 time=0
note_on channel=0 note=56 velocity=52 time=0
note_on channel=0 note=70 velocity=0 time=120
note_on channel=0 note=72 velocity=72 time=0
note_on channel=0 note=72 velocity=0 time=120
note_on channel=0 note=56 velocity=0 time=0
note_on channel=0 note=60 velocity=0 time=0
note_on channel=0 note=74 velocity=73 time=0
note_on channel=0 note=58 velocity=67 time=0
note_on channel=0 note=55 velocity=51 time=0
note_on channel=0 note=74 velocity=0 time=120
note_on channel=0 note=76 velocity=74 time=0
note_on channel=0 note=76 velocity=0 time=120
note_on channel=0 note=55 velocity=0 time=0
note_on channel=0 note=58 velocity=0 time=0
note_on channel=0 note=77 velocity=76 time=0
note_on channel=0 note=60 velocity=65 time=0
note_on channel=0 note=56 velocity=54 time=0
note_on channel=0 note=56 velocity=0 time=120
note_on channel=0 note=60 velocity=0 time=0
note_on channel=0 note=77 velocity=0 time=0
note_on channel=0 note=75 velocity=75 time=0
note_on channel=0 note=75 velocity=0 time=120
note_on channel=0 note=74 velocity=73 time=0
note_on channel=0 note=56 velocity=68 time=0
note_on channel=0 note=53 velocity=55 time=0
note_on channel=0 note=74 velocity=0 time=120
note_on channel=0 note=75 velocity=76 time=0
note_on channel=0 note=75 velocity=0 time=120
note_on channel=0 note=53 velocity=0 time=0
note_on channel=0 note=56 velocity=0 time=0
note_on channel=0 note=77 velocity=75 time=0
note_on channel=0 note=55 velocity=67 time=0
note_on channel=0 note=51 velocity=52 time=0
note_on channel=0 note=77 velocity=0 time=120
note_on channel=0 note=79 velocity=78 time=0
note_on channel=0 note=79 velocity=0 time=120
note_on channel=0 note=51 velocity=0 time=0
note_on channel=0 note=55 velocity=0 time=0
note_on channel=0 note=81 velocity=81 time=0
note_on channel=0 note=53 velocity=65 time=0
note_on channel=0 note=50 velocity=48 time=0
note_on channel=0 note=81 velocity=0 time=120
note_on channel=0 note=83 velocity=84 time=0
note_on channel=0 note=83 velocity=0 time=120
note_on channel=0 note=50 velocity=0 time=0
note_on channel=0 note=53 velocity=0 time=0
note_on channel=0 note=84 velocity=87 time=0
note_on channel=0 note=55 velocity=64 time=0
note_on channel=0 note=51 velocity=63 time=0
note_on channel=0 note=51 velocity=0 time=120
note_on channel=0 note=55 velocity=0 time=0
note_on channel=0 note=84 velocity=0 time=0
note_on channel=0 note=83 velocity=82 time=120
note_on channel=0 note=67 velocity=80 time=0
note_on channel=0 note=67 velocity=0 time=120
note_on channel=0 note=83 velocity=0 time=0
note_on channel=0 note=81 velocity=80 time=0
note_on channel=0 note=66 velocity=80 time=0
note_on channel=0 note=66 velocity=0 time=120
note_on channel=0 note=81 velocity=0 time=0
note_on channel=0 note=79 velocity=79 time=0
note_on channel=0 note=67 velocity=88 time=0
note_on channel=0 note=67 velocity=0 time=120
note_on channel=0 note=79 velocity=0 time=0
note_on channel=0 note=77 velocity=78 time=0
note_on channel=0 note=77 velocity=0 time=120
note_on channel=0 note=75 velocity=77 time=0
note_on channel=0 note=60 velocity=74 time=0
note_on channel=0 note=75 velocity=0 time=120
note_on channel=0 note=74 velocity=76 time=0
note_on channel=0 note=74 velocity=0 time=120
note_on channel=0 note=60 velocity=0 time=0
note_on channel=0 note=72 velocity=75 time=0
note_on channel=0 note=63 velocity=74 time=0
note_on channel=0 note=63 velocity=0 time=120
note_on channel=0 note=72 velocity=0 time=0
<meta message set_tempo tempo=852878 time=120>
note_on channel=0 note=75 velocity=73 time=0
note_on channel=0 note=67 velocity=80 time=0
note_on channel=0 note=48 velocity=59 time=0
note_on channel=0 note=67 velocity=0 time=120
note_on channel=0 note=66 velocity=80 time=0
note_on channel=0 note=66 velocity=0 time=120
note_on channel=0 note=48 velocity=0 time=0
note_on channel=0 note=75 velocity=0 time=0
note_on channel=0 note=74 velocity=71 time=0
note_on channel=0 note=67 velocity=87 time=0
note_on channel=0 note=46 velocity=58 time=0
note_on channel=0 note=46 velocity=0 time=240
note_on channel=0 note=67 velocity=0 time=0
note_on channel=0 note=74 velocity=0 time=0
note_on channel=0 note=72 velocity=70 time=0
note_on channel=0 note=69 velocity=77 time=0
note_on channel=0 note=45 velocity=56 time=0
note_on channel=0 note=45 velocity=0 time=240
note_on channel=0 note=69 velocity=0 time=0
note_on channel=0 note=72 velocity=0 time=0
note_on channel=0 note=70 velocity=68 time=0
note_on channel=0 note=62 velocity=76 time=0
note_on channel=0 note=62 velocity=0 time=120
note_on channel=0 note=70 velocity=0 time=0
note_on channel=0 note=69 velocity=67 time=120
note_on channel=0 note=67 velocity=80 time=0
note_on channel=0 note=51 velocity=57 time=0
note_on channel=0 note=67 velocity=0 time=120
note_on channel=0 note=66 velocity=80 time=0
note_on channel=0 note=66 velocity=0 time=120
note_on channel=0 note=51 velocity=0 time=0
note_on channel=0 note=69 velocity=0 time=0
note_on channel=0 note=70 velocity=68 time=0
note_on channel=0 note=67 velocity=86 time=0
note_on channel=0 note=50 velocity=56 time=0
note_on channel=0 note=50 velocity=0 time=240
note_on channel=0 note=67 velocity=0 time=0
note_on channel=0 note=70 velocity=0 time=0
note_on channel=0 note=72 velocity=72 time=0
note_on channel=0 note=69 velocity=79 time=0
note_on channel=0 note=48 velocity=55 time=0
note_on channel=0 note=48 velocity=0 time=180
note_on channel=0 note=69 velocity=0 time=0
note_on channel=0 note=72 velocity=0 time=0
<meta message set_tempo tempo=869565 time=60>
note_on channel=0 note=66 velocity=67 time=0
note_on channel=0 note=60 velocity=73 time=0
note_on channel=0 note=50 velocity=59 time=0
note_on channel=0 note=60 velocity=0 time=120
note_on channel=0 note=62 velocity=73 time=0
note_on channel=0 note=62 velocity=0 time=120
note_on channel=0 note=50 velocity=0 time=0
note_on channel=0 note=66 velocity=0 time=0
note_on channel=0 note=67 velocity=67 time=0
note_on channel=0 note=63 velocity=80 time=0
note_on channel=0 note=48 velocity=58 time=0
note_on channel=0 note=48 velocity=0 time=120
note_on channel=0 note=46 velocity=58 time=0
<meta message set_tempo tempo=863309 time=120>
note_on channel=0 note=46 velocity=0 time=0
note_on channel=0 note=67 velocity=0 time=0
note_on channel=0 note=69 velocity=70 time=0
note_on channel=0 note=48 velocity=58 time=0
<meta message set_tempo tempo=858124 time=240>
note_on channel=0 note=48 velocity=0 time=0
note_on channel=0 note=69 velocity=0 time=0
note_on channel=0 note=63 velocity=0 time=0
note_on channel=0 note=66 velocity=65 time=0
note_on channel=0 note=62 velocity=77 time=0
note_on channel=0 note=50 velocity=56 time=0
note_on channel=0 note=62 velocity=0 time=120
note_on channel=0 note=60 velocity=77 time=0
note_on channel=0 note=60 velocity=0 time=120
note_on channel=0 note=50 velocity=0 time=0
note_on channel=0 note=66 velocity=0 time=0
note_on channel=0 note=67 velocity=71 time=0
note_on channel=0 note=58 velocity=75 time=0
note_on channel=0 note=43 velocity=63 time=0
note_on channel=0 note=43 velocity=0 time=120
note_on channel=0 note=58 velocity=0 time=0
note_on channel=0 note=67 velocity=0 time=0
<meta message set_tempo tempo=827016 time=120>
note_on channel=0 note=74 velocity=72 time=0
note_on channel=0 note=58 velocity=70 time=0
note_on channel=0 note=58 velocity=0 time=120
note_on channel=0 note=74 velocity=0 time=0
note_on channel=0 note=72 velocity=72 time=0
note_on channel=0 note=57 velocity=70 time=0
note_on channel=0 note=57 velocity=0 time=120
note_on channel=0 note=72 velocity=0 time=0
note_on channel=0 note=74 velocity=76 time=0
note_on channel=0 note=58 velocity=73 time=0
note_on channel=0 note=58 velocity=0 time=120
note_on channel=0 note=62 velocity=67 time=0
<meta message set_tempo tempo=842342 time=120>
note_on channel=0 note=62 velocity=0 time=0
note_on channel=0 note=74 velocity=0 time=0
note_on channel=0 note=64 velocity=69 time=0
note_on channel=0 note=50 velocity=58 time=0
note_on channel=0 note=50 velocity=0 time=120
note_on channel=0 note=64 velocity=0 time=0
note_on channel=0 note=66 velocity=71 time=0
note_on channel=0 note=66 velocity=0 time=120
note_on channel=0 note=67 velocity=73 time=0
note_on channel=0 note=51 velocity=63 time=0
note_on channel=0 note=51 velocity=0 time=120
note_on channel=0 note=67 velocity=0 time=0
note_on channel=0 note=69 velocity=75 time=0
<meta message set_tempo tempo=827016 time=120>
note_on channel=0 note=69 velocity=0 time=0
note_on channel=0 note=76 velocity=77 time=0
note_on channel=0 note=70 velocity=77 time=0
note_on channel=0 note=60 velocity=69 time=0
note_on channel=0 note=60 velocity=0 time=120
note_on channel=0 note=76 velocity=0 time=0
note_on channel=0 note=74 velocity=77 time=0
note_on channel=0 note=59 velocity=69 time=0
note_on channel=0 note=59 velocity=0 time=120
note_on channel=0 note=74 velocity=0 time=0
note_on channel=0 note=76 velocity=81 time=0
note_on channel=0 note=60 velocity=73 time=0
note_on channel=0 note=60 velocity=0 time=120
note_on channel=0 note=70 velocity=0 time=0
note_on channel=0 note=64 velocity=73 time=0
<meta message set_tempo tempo=852878 time=120>
note_on channel=0 note=64 velocity=0 time=0
note_on channel=0 note=76 velocity=0 time=0
note_on channel=0 note=65 velocity=75 time=0
note_on channel=0 note=52 velocity=58 time=0
note_on channel=0 note=52 velocity=0 time=120
note_on channel=0 note=65 velocity=0 time=0
note_on channel=0 note=67 velocity=77 time=0
note_on channel=0 note=67 velocity=0 time=120
note_on channel=0 note=69 velocity=79 time=0
note_on channel=0 note=53 velocity=63 time=0
note_on channel=0 note=53 velocity=0 time=120
note_on channel=0 note=69 velocity=0 time=0
note_on channel=0 note=70 velocity=79 time=0
<meta message set_tempo tempo=827016 time=120>
note_on channel=0 note=70 velocity=0 time=0
note_on channel=0 note=78 velocity=84 time=0
note_on channel=0 note=72 velocity=83 time=0
note_on channel=0 note=62 velocity=75 time=0
note_on channel=0 note=62 velocity=0 time=120
note_on channel=0 note=78 velocity=0 time=0
note_on channel=0 note=76 velocity=84 time=0
note_on channel=0 note=60 velocity=75 time=0
note_on channel=0 note=60 velocity=0 time=120
note_on channel=0 note=76 velocity=0 time=0
note_on channel=0 note=78 velocity=89 time=0
note_on channel=0 note=62 velocity=80 time=0
note_on channel=0 note=62 velocity=0 time=120
note_on channel=0 note=72 velocity=0 time=0
note_on channel=0 note=66 velocity=75 time=0
<meta message set_tempo tempo=842342 time=120>
note_on channel=0 note=66 velocity=0 time=0
note_on channel=0 note=78 velocity=0 time=0
note_on channel=0 note=67 velocity=78 time=0
note_on channel=0 note=54 velocity=63 time=0
note_on channel=0 note=54 velocity=0 time=120
note_on channel=0 note=67 velocity=0 time=0
note_on channel=0 note=69 velocity=80 time=0
note_on channel=0 note=69 velocity=0 time=120
note_on channel=0 note=70 velocity=83 time=0
note_on channel=0 note=55 velocity=65 time=0
note_on channel=0 note=55 velocity=0 time=120
<meta message set_tempo tempo=827016 time=120>
note_on channel=0 note=70 velocity=0 time=0
note_on channel=0 note=67 velocity=72 time=0
note_on channel=0 note=63 velocity=71 time=0
note_on channel=0 note=63 velocity=0 time=120
note_on channel=0 note=67 velocity=0 time=0
note_on channel=0 note=65 velocity=72 time=0
note_on channel=0 note=62 velocity=71 time=0
note_on channel=0 note=62 velocity=0 time=120
note_on channel=0 note=65 velocity=0 time=0
note_on channel=0 note=67 velocity=77 time=0
note_on channel=0 note=63 velocity=74 time=0
note_on channel=0 note=63 velocity=0 time=120
note_on channel=0 note=67 velocity=0 time=0
note_on channel=0 note=43 velocity=54 time=0
<meta message set_tempo tempo=837287 time=120>
note_on channel=0 note=43 velocity=0 time=0
note_on channel=0 note=55 velocity=64 time=0
note_on channel=0 note=45 velocity=57 time=0
note_on channel=0 note=45 velocity=0 time=120
note_on channel=0 note=55 velocity=0 time=0
note_on channel=0 note=47 velocity=59 time=0
note_on channel=0 note=47 velocity=0 time=120
note_on channel=0 note=56 velocity=64 time=0
note_on channel=0 note=48 velocity=62 time=0
note_on channel=0 note=48 velocity=0 time=120
note_on channel=0 note=56 velocity=0 time=0
note_on channel=0 note=50 velocity=64 time=0
<meta message set_tempo tempo=827016 time=120>
note_on channel=0 note=50 velocity=0 time=0
note_on channel=0 note=69 velocity=71 time=0
note_on channel=0 note=65 velocity=72 time=0
note_on channel=0 note=51 velocity=66 time=0
note_on channel=0 note=65 velocity=0 time=120
note_on channel=0 note=69 velocity=0 time=0
note_on channel=0 note=67 velocity=71 time=0
note_on channel=0 note=63 velocity=72 time=0
note_on channel=0 note=63 velocity=0 time=120
note_on channel=0 note=67 velocity=0 time=0
note_on channel=0 note=69 velocity=76 time=0
note_on channel=0 note=65 velocity=76 time=0
note_on channel=0 note=65 velocity=0 time=120
note_on channel=0 note=69 velocity=0 time=0
note_on channel=0 note=51 velocity=0 time=0
note_on channel=0 note=45 velocity=58 time=0
note_on channel=0 note=45 velocity=0 time=120
note_on channel=0 note=57 velocity=64 time=0
note_on channel=0 note=46 velocity=60 time=0
note_on channel=0 note=46 velocity=0 time=120
note_on channel=0 note=57 velocity=0 time=0
note_on channel=0 note=48 velocity=63 time=0
note_on channel=0 note=48 velocity=0 time=120
note_on channel=0 note=58 velocity=64 time=0
note_on channel=0 note=50 velocity=65 time=0
note_on channel=0 note=50 velocity=0 time=120
note_on channel=0 note=58 velocity=0 time=0
note_on channel=0 note=51 velocity=67 time=0
note_on channel=0 note=51 velocity=0 time=120
note_on channel=0 note=71 velocity=71 time=0
note_on channel=0 note=67 velocity=72 time=0
note_on channel=0 note=53 velocity=70 time=0
note_on channel=0 note=67 velocity=0 time=120
note_on channel=0 note=71 velocity=0 time=0
note_on channel=0 note=69 velocity=71 time=0
note_on channel=0 note=65 velocity=72 time=0
note_on channel=0 note=65 velocity=0 time=120
note_on channel=0 note=69 velocity=0 time=0
note_on channel=0 note=71 velocity=76 time=0
note_on channel=0 note=67 velocity=75 time=0
note_on channel=0 note=67 velocity=0 time=120
note_on channel=0 note=71 velocity=0 time=0
note_on channel=0 note=53 velocity=0 time=0
note_on channel=0 note=47 velocity=59 time=0
<meta message set_tempo tempo=847458 time=120>
note_on channel=0 note=47 velocity=0 time=0
note_on channel=0 note=59 velocity=64 time=0
note_on channel=0 note=48 velocity=62 time=0
note_on channel=0 note=48 velocity=0 time=120
note_on channel=0 note=59 velocity=0 time=0
note_on channel=0 note=50 velocity=64 time=0
note_on channel=0 note=50 velocity=0 time=120
control_change channel=0 control=91 value=127 time=0
note_on channel=0 note=60 velocity=69 time=0
note_on channel=0 note=51 velocity=67 time=0
note_on channel=0 note=60 velocity=0 time=60
note_on channel=0 note=51 velocity=0 time=60
note_on channel=0 note=65 velocity=68 time=0
<meta message set_tempo tempo=827016 time=120>
note_on channel=0 note=65 velocity=0 time=0
note_on channel=0 note=72 velocity=81 time=0
note_on channel=0 note=63 velocity=67 time=0
note_on channel=0 note=63 velocity=0 time=120
note_on channel=0 note=72 velocity=0 time=0
note_on channel=0 note=71 velocity=81 time=0
note_on channel=0 note=62 velocity=66 time=0
note_on channel=0 note=62 velocity=0 time=120
note_on channel=0 note=71 velocity=0 time=0
note_on channel=0 note=72 velocity=86 time=0
note_on channel=0 note=60 velocity=66 time=0
note_on channel=0 note=60 velocity=0 time=120
note_on channel=0 note=72 velocity=0 time=0
note_on channel=0 note=58 velocity=65 time=0
note_on channel=0 note=58 velocity=0 time=120
note_on channel=0 note=67 velocity=71 time=0
note_on channel=0 note=56 velocity=64 time=0
note_on channel=0 note=52 velocity=61 time=0
note_on channel=0 note=56 velocity=0 time=120
note_on channel=0 note=55 velocity=63 time=0
note_on channel=0 note=55 velocity=0 time=120
note_on channel=0 note=52 velocity=0 time=0
note_on channel=0 note=67 velocity=0 time=0
note_on channel=0 note=68 velocity=72 time=0
note_on channel=0 note=53 velocity=62 time=0
note_on channel=0 note=56 velocity=66 time=0
note_on channel=0 note=56 velocity=0 time=120
note_on channel=0 note=53 velocity=0 time=0
note_on channel=0 note=68 velocity=0 time=0
note_on channel=0 note=72 velocity=81 time=120
note_on channel=0 note=68 velocity=64 time=0
note_on channel=0 note=41 velocity=60 time=0
note_on channel=0 note=72 velocity=0 time=120
note_on channel=0 note=71 velocity=81 time=0
note_on channel=0 note=71 velocity=0 time=120
note_on channel=0 note=41 velocity=0 time=0
note_on channel=0 note=68 velocity=0 time=0
note_on channel=0 note=72 velocity=86 time=0
note_on channel=0 note=67 velocity=68 time=0
note_on channel=0 note=39 velocity=59 time=0
note_on channel=0 note=72 velocity=0 time=120
<meta message set_tempo tempo=852878 time=120>
note_on channel=0 note=39 velocity=0 time=0
note_on channel=0 note=67 velocity=0 time=0
note_on channel=0 note=74 velocity=76 time=0
note_on channel=0 note=65 velocity=68 time=0
note_on channel=0 note=38 velocity=58 time=0
note_on channel=0 note=38 velocity=0 time=240
note_on channel=0 note=65 velocity=0 time=0
note_on channel=0 note=74 velocity=0 time=0
note_on channel=0 note=67 velocity=73 time=0
note_on channel=0 note=63 velocity=66 time=0
note_on channel=0 note=63 velocity=0 time=120
note_on channel=0 note=67 velocity=0 time=0
<meta message set_tempo tempo=827016 time=120>
note_on channel=0 note=72 velocity=81 time=0
note_on channel=0 note=62 velocity=64 time=0
note_on channel=0 note=44 velocity=61 time=0
note_on channel=0 note=72 velocity=0 time=120
note_on channel=0 note=71 velocity=81 time=0
note_on channel=0 note=71 velocity=0 time=120
note_on channel=0 note=44 velocity=0 time=0
note_on channel=0 note=62 velocity=0 time=0
note_on channel=0 note=72 velocity=86 time=0
note_on channel=0 note=63 velocity=64 time=0
note_on channel=0 note=43 velocity=59 time=0
note_on channel=0 note=72 velocity=0 time=120
note_on channel=0 note=43 velocity=0 time=120
note_on channel=0 note=63 velocity=0 time=0
note_on channel=0 note=74 velocity=77 time=0
note_on channel=0 note=65 velocity=64 time=0
note_on channel=0 note=41 velocity=57 time=0
note_on channel=0 note=74 velocity=0 time=120
note_on channel=0 note=65 velocity=0 time=118
<meta message set_tempo tempo=842342 time=2>
note_on channel=0 note=41 velocity=0 time=0
note_on channel=0 note=65 velocity=75 time=0
note_on channel=0 note=59 velocity=69 time=0
note_on channel=0 note=43 velocity=56 time=0
note_on channel=0 note=43 velocity=0 time=120
note_on channel=0 note=59 velocity=0 time=0
note_on channel=0 note=65 velocity=0 time=0
note_on channel=0 note=67 velocity=75 time=0
note_on channel=0 note=67 velocity=0 time=120
note_on channel=0 note=68 velocity=81 time=0
note_on channel=0 note=60 velocity=64 time=0
note_on channel=0 note=41 velocity=62 time=0
note_on channel=0 note=41 velocity=0 time=120
note_on channel=0 note=39 velocity=62 time=0
<meta message set_tempo tempo=827016 time=120>
note_on channel=0 note=39 velocity=0 time=0
note_on channel=0 note=60 velocity=0 time=0
note_on channel=0 note=62 velocity=67 time=0
note_on channel=0 note=41 velocity=67 time=0
note_on channel=0 note=41 velocity=0 time=120
note_on channel=0 note=62 velocity=0 time=120
note_on channel=0 note=68 velocity=0 time=0
note_on channel=0 note=67 velocity=73 time=0
note_on channel=0 note=59 velocity=59 time=0
note_on channel=0 note=43 velocity=55 time=0
note_on channel=0 note=43 velocity=0 time=120
note_on channel=0 note=67 velocity=0 time=0
note_on channel=0 note=65 velocity=73 time=0
note_on channel=0 note=65 velocity=0 time=120
note_on channel=0 note=59 velocity=0 time=0
note_on channel=0 note=63 velocity=73 time=0
control_change channel=0 control=91 value=127 time=0
note_on channel=0 note=60 velocity=66 time=0
note_on channel=0 note=48 velocity=58 time=0
note_on channel=0 note=48 velocity=0 time=120
note_on channel=0 note=63 velocity=0 time=0
note_on channel=0 note=50 velocity=58 time=0
note_on channel=0 note=50 velocity=0 time=120
note_on channel=0 note=72 velocity=81 time=0
note_on channel=0 note=51 velocity=59 time=0
note_on channel=0 note=51 velocity=0 time=120
note_on channel=0 note=72 velocity=0 time=0
note_on channel=0 note=71 velocity=81 time=0
note_on channel=0 note=50 velocity=58 time=0
<meta message set_tempo tempo=852878 time=120>
note_on channel=0 note=50 velocity=0 time=0
note_on channel=0 note=71 velocity=0 time=0
note_on channel=0 note=60 velocity=0 time=0
note_on channel=0 note=72 velocity=86 time=0
note_on channel=0 note=48 velocity=57 time=0
note_on channel=0 note=48 velocity=0 time=120
note_on channel=0 note=72 velocity=0 time=0
note_on channel=0 note=46 velocity=57 time=0
<meta message set_tempo tempo=827016 time=120>
note_on channel=0 note=46 velocity=0 time=0
note_on channel=0 note=67 velocity=71 time=0
note_on channel=0 note=64 velocity=64 time=0
note_on channel=0 note=44 velocity=56 time=0
note_on channel=0 note=44 velocity=0 time=120
note_on channel=0 note=43 velocity=55 time=0
note_on channel=0 note=43 velocity=0 time=120
note_on channel=0 note=64 velocity=0 time=0
note_on channel=0 note=67 velocity=0 time=0
note_on channel=0 note=68 velocity=72 time=0
note_on channel=0 note=65 velocity=64 time=0
note_on channel=0 note=41 velocity=54 time=0
note_on channel=0 note=41 velocity=0 time=60
note_on channel=0 note=65 velocity=0 time=60
note_on channel=0 note=58 velocity=59 time=0
note_on channel=0 note=58 velocity=0 time=120
note_on channel=0 note=65 velocity=82 time=0
note_on channel=0 note=56 velocity=59 time=0
note_on channel=0 note=56 velocity=0 time=120
note_on channel=0 note=65 velocity=0 time=0
note_on channel=0 note=64 velocity=82 time=0
note_on channel=0 note=55 velocity=58 time=0
note_on channel=0 note=55 velocity=0 time=120
note_on channel=0 note=64 velocity=0 time=0
note_on channel=0 note=68 velocity=0 time=0
note_on channel=0 note=65 velocity=84 time=0
note_on channel=0 note=53 velocity=57 time=0
note_on channel=0 note=53 velocity=0 time=120
note_on channel=0 note=65 velocity=0 time=0
note_on channel=0 note=51 velocity=57 time=0
note_on channel=0 note=51 velocity=0 time=120
note_on channel=0 note=69 velocity=72 time=0
note_on channel=0 note=60 velocity=72 time=0
note_on channel=0 note=50 velocity=56 time=0
note_on channel=0 note=50 velocity=0 time=120
note_on channel=0 note=48 velocity=55 time=0
note_on channel=0 note=48 velocity=0 time=120
note_on channel=0 note=60 velocity=0 time=0
note_on channel=0 note=69 velocity=0 time=0
note_on channel=0 note=70 velocity=73 time=0
control_change channel=0 control=91 value=127 time=0
note_on channel=0 note=62 velocity=72 time=0
note_on channel=0 note=46 velocity=55 time=0
note_on channel=0 note=46 velocity=0 time=120
note_on channel=0 note=70 velocity=0 time=0
note_on channel=0 note=48 velocity=57 time=0
note_on channel=0 note=48 velocity=0 time=120
note_on channel=0 note=70 velocity=81 time=0
note_on channel=0 note=50 velocity=60 time=0
note_on channel=0 note=50 velocity=0 time=120
note_on channel=0 note=70 velocity=0 time=0
note_on channel=0 note=69 velocity=81 time=0
note_on channel=0 note=48 velocity=59 time=0
<meta message set_tempo tempo=852878 time=120>
note_on channel=0 note=48 velocity=0 time=0
note_on channel=0 note=69 velocity=0 time=0
note_on channel=0 note=62 velocity=0 time=0
note_on channel=0 note=70 velocity=86 time=0
note_on channel=0 note=46 velocity=58 time=0
note_on channel=0 note=46 velocity=0 time=120
note_on channel=0 note=70 velocity=0 time=0
note_on channel=0 note=44 velocity=57 time=0
<meta message set_tempo tempo=827016 time=120>
note_on channel=0 note=44 velocity=0 time=0
note_on channel=0 note=65 velocity=71 time=0
note_on channel=0 note=62 velocity=69 time=0
note_on channel=0 note=43 velocity=57 time=0
note_on channel=0 note=43 velocity=0 time=120
note_on channel=0 note=41 velocity=56 time=0
note_on channel=0 note=41 velocity=0 time=120
note_on channel=0 note=62 velocity=0 time=0
note_on channel=0 note=65 velocity=0 time=0
note_on channel=0 note=67 velocity=72 time=0
note_on channel=0 note=63 velocity=69 time=0
note_on channel=0 note=39 velocity=55 time=0
note_on channel=0 note=39 velocity=0 time=60
note_on channel=0 note=63 velocity=0 time=60
note_on channel=0 note=56 velocity=61 time=0
note_on channel=0 note=56 velocity=0 time=120
note_on channel=0 note=63 velocity=79 time=0
note_on channel=0 note=55 velocity=60 time=0
note_on channel=0 note=55 velocity=0 time=120
note_on channel=0 note=63 velocity=0 time=0
note_on channel=0 note=62 velocity=79 time=0
note_on channel=0 note=53 velocity=60 time=0
note_on channel=0 note=53 velocity=0 time=120
note_on channel=0 note=62 velocity=0 time=0
note_on channel=0 note=67 velocity=0 time=0
note_on channel=0 note=63 velocity=84 time=0
note_on channel=0 note=51 velocity=59 time=0
note_on channel=0 note=51 velocity=0 time=120
note_on channel=0 note=63 velocity=0 time=0
note_on channel=0 note=50 velocity=58 time=0
note_on channel=0 note=50 velocity=0 time=120
note_on channel=0 note=67 velocity=72 time=0
note_on channel=0 note=58 velocity=73 time=0
note_on channel=0 note=48 velocity=57 time=0
note_on channel=0 note=48 velocity=0 time=120
note_on channel=0 note=46 velocity=57 time=0
note_on channel=0 note=46 velocity=0 time=120
note_on channel=0 note=58 velocity=0 time=0
note_on channel=0 note=60 velocity=73 time=0
note_on channel=0 note=44 velocity=56 time=0
note_on channel=0 note=44 velocity=0 time=120
note_on channel=0 note=46 velocity=57 time=0
note_on channel=0 note=46 velocity=0 time=120
note_on channel=0 note=67 velocity=0 time=0
note_on channel=0 note=68 velocity=71 time=0
note_on channel=0 note=48 velocity=60 time=0
note_on channel=0 note=48 velocity=0 time=120
note_on channel=0 note=68 velocity=0 time=0
note_on channel=0 note=70 velocity=72 time=0
note_on channel=0 note=46 velocity=58 time=0
note_on channel=0 note=46 velocity=0 time=120
note_on channel=0 note=70 velocity=0 time=0
note_on channel=0 note=72 velocity=74 time=0
note_on channel=0 note=44 velocity=58 time=0
note_on channel=0 note=44 velocity=0 time=120
note_on channel=0 note=72 velocity=0 time=0
note_on channel=0 note=71 velocity=72 time=0
note_on channel=0 note=43 velocity=57 time=0
note_on channel=0 note=43 velocity=0 time=120
note_on channel=0 note=71 velocity=0 time=0
note_on channel=0 note=72 velocity=76 time=0
note_on channel=0 note=41 velocity=57 time=0
note_on channel=0 note=41 velocity=0 time=120
note_on channel=0 note=72 velocity=0 time=0
note_on channel=0 note=68 velocity=72 time=0
note_on channel=0 note=39 velocity=56 time=0
note_on channel=0 note=39 velocity=0 time=120
note_on channel=0 note=68 velocity=0 time=0
note_on channel=0 note=65 velocity=76 time=0
note_on channel=0 note=38 velocity=56 time=0
note_on channel=0 note=38 velocity=0 time=60
note_on channel=0 note=55 velocity=56 time=60
note_on channel=0 note=55 velocity=0 time=120
note_on channel=0 note=60 velocity=0 time=0
note_on channel=0 note=62 velocity=72 time=0
note_on channel=0 note=53 velocity=60 time=0
note_on channel=0 note=53 velocity=0 time=120
note_on channel=0 note=62 velocity=0 time=0
note_on channel=0 note=63 velocity=73 time=0
note_on channel=0 note=51 velocity=59 time=0
note_on channel=0 note=51 velocity=0 time=120
note_on channel=0 note=63 velocity=0 time=0
note_on channel=0 note=65 velocity=75 time=0
note_on channel=0 note=50 velocity=59 time=0
note_on channel=0 note=50 velocity=0 time=120
note_on channel=0 note=65 velocity=0 time=0
note_on channel=0 note=63 velocity=73 time=0
note_on channel=0 note=48 velocity=58 time=0
note_on channel=0 note=48 velocity=0 time=120
note_on channel=0 note=63 velocity=0 time=0
note_on channel=0 note=65 velocity=75 time=0
note_on channel=0 note=47 velocity=57 time=0
note_on channel=0 note=47 velocity=0 time=120
note_on channel=0 note=65 velocity=0 time=0
note_on channel=0 note=62 velocity=73 time=0
note_on channel=0 note=45 velocity=56 time=0
note_on channel=0 note=45 velocity=0 time=120
note_on channel=0 note=62 velocity=0 time=0
note_on channel=0 note=59 velocity=75 time=0
note_on channel=0 note=43 velocity=55 time=0
note_on channel=0 note=59 velocity=0 time=120
note_on channel=0 note=65 velocity=0 time=120
note_on channel=0 note=74 velocity=80 time=0
note_on channel=0 note=74 velocity=0 time=120
note_on channel=0 note=72 velocity=80 time=0
note_on channel=0 note=72 velocity=0 time=120
note_on channel=0 note=43 velocity=0 time=0
note_on channel=0 note=74 velocity=86 time=0
note_on channel=0 note=74 velocity=0 time=120
<meta message set_tempo tempo=858124 time=120>
note_on channel=0 note=65 velocity=73 time=0
note_on channel=0 note=59 velocity=63 time=0
<meta message set_tempo tempo=827016 time=240>
note_on channel=0 note=59 velocity=0 time=0
note_on channel=0 note=65 velocity=0 time=0
note_on channel=0 note=63 velocity=73 time=0
note_on channel=0 note=60 velocity=63 time=0
note_on channel=0 note=60 velocity=0 time=120
note_on channel=0 note=63 velocity=0 time=0
note_on channel=0 note=43 velocity=49 time=0
note_on channel=0 note=43 velocity=0 time=120
note_on channel=0 note=75 velocity=80 time=0
note_on channel=0 note=45 velocity=51 time=0
note_on channel=0 note=45 velocity=0 time=120
note_on channel=0 note=75 velocity=0 time=0
note_on channel=0 note=74 velocity=80 time=0
note_on channel=0 note=47 velocity=52 time=0
note_on channel=0 note=47 velocity=0 time=120
note_on channel=0 note=74 velocity=0 time=0
note_on channel=0 note=75 velocity=84 time=0
note_on channel=0 note=48 velocity=54 time=0
note_on channel=0 note=48 velocity=0 time=120
note_on channel=0 note=75 velocity=0 time=0
note_on channel=0 note=50 velocity=55 time=0
note_on channel=0 note=50 velocity=0 time=120
note_on channel=0 note=67 velocity=73 time=0
note_on channel=0 note=63 velocity=65 time=0
note_on channel=0 note=51 velocity=57 time=0
note_on channel=0 note=51 velocity=0 time=120
note_on channel=0 note=53 velocity=58 time=0
note_on channel=0 note=53 velocity=0 time=120
note_on channel=0 note=63 velocity=0 time=0
note_on channel=0 note=67 velocity=0 time=0
note_on channel=0 note=65 velocity=73 time=0
note_on channel=0 note=62 velocity=65 time=0
note_on channel=0 note=55 velocity=60 time=0
note_on channel=0 note=55 velocity=0 time=120
note_on channel=0 note=62 velocity=0 time=0
note_on channel=0 note=65 velocity=0 time=0
note_on channel=0 note=53 velocity=57 time=0
note_on channel=0 note=53 velocity=0 time=120
note_on channel=0 note=77 velocity=82 time=0
note_on channel=0 note=56 velocity=62 time=0
note_on channel=0 note=56 velocity=0 time=120
note_on channel=0 note=77 velocity=0 time=0
note_on channel=0 note=75 velocity=82 time=0
note_on channel=0 note=55 velocity=61 time=0
note_on channel=0 note=55 velocity=0 time=120
note_on channel=0 note=75 velocity=0 time=0
note_on channel=0 note=77 velocity=88 time=0
note_on channel=0 note=53 velocity=60 time=0
note_on channel=0 note=53 velocity=0 time=120
note_on channel=0 note=77 velocity=0 time=0
note_on channel=0 note=51 velocity=59 time=0
note_on channel=0 note=51 velocity=0 time=120
note_on channel=0 note=68 velocity=77 time=0
note_on channel=0 note=65 velocity=70 time=0
note_on channel=0 note=50 velocity=58 time=0
note_on channel=0 note=50 velocity=0 time=120
note_on channel=0 note=48 velocity=57 time=0
note_on channel=0 note=48 velocity=0 time=120
note_on channel=0 note=68 velocity=0 time=0
note_on channel=0 note=67 velocity=77 time=0
note_on channel=0 note=47 velocity=56 time=0
note_on channel=0 note=67 velocity=0 time=60
note_on channel=0 note=47 velocity=0 time=60
note_on channel=0 note=77 velocity=81 time=0
note_on channel=0 note=77 velocity=0 time=120
note_on channel=0 note=65 velocity=0 time=0
note_on channel=0 note=75 velocity=80 time=0
note_on channel=0 note=48 velocity=77 time=0
note_on channel=0 note=48 velocity=0 time=120
note_on channel=0 note=75 velocity=0 time=0
note_on channel=0 note=74 velocity=79 time=0
note_on channel=0 note=47 velocity=77 time=0
note_on channel=0 note=47 velocity=0 time=120
note_on channel=0 note=74 velocity=0 time=0
note_on channel=0 note=72 velocity=78 time=0
note_on channel=0 note=48 velocity=80 time=0
note_on channel=0 note=48 velocity=0 time=120
note_on channel=0 note=72 velocity=0 time=0
note_on channel=0 note=71 velocity=77 time=0
note_on channel=0 note=71 velocity=0 time=120
note_on channel=0 note=69 velocity=76 time=0
note_on channel=0 note=65 velocity=67 time=0
note_on channel=0 note=43 velocity=71 time=0
note_on channel=0 note=69 velocity=0 time=120
note_on channel=0 note=67 velocity=75 time=0
<meta message set_tempo tempo=874636 time=120>
note_on channel=0 note=67 velocity=0 time=0
note_on channel=0 note=43 velocity=0 time=0
note_on channel=0 note=65 velocity=0 time=0
note_on channel=0 note=72 velocity=73 time=0
note_on channel=0 note=63 velocity=65 time=0
note_on channel=0 note=44 velocity=71 time=0
note_on channel=0 note=44 velocity=0 time=120
note_on channel=0 note=63 velocity=0 time=0
note_on channel=0 note=72 velocity=0 time=0
note_on channel=0 note=77 velocity=78 time=120
note_on channel=0 note=68 velocity=66 time=0
note_on channel=0 note=48 velocity=78 time=0
note_on channel=0 note=48 velocity=0 time=120
note_on channel=0 note=47 velocity=78 time=0
note_on channel=0 note=47 velocity=0 time=120
note_on channel=0 note=68 velocity=0 time=0
note_on channel=0 note=77 velocity=0 time=0
note_on channel=0 note=75 velocity=76 time=0
note_on channel=0 note=67 velocity=65 time=0
note_on channel=0 note=48 velocity=81 time=0
note_on channel=0 note=48 velocity=0 time=120
note_on channel=0 note=67 velocity=0 time=120
note_on channel=0 note=75 velocity=0 time=0
note_on channel=0 note=74 velocity=73 time=0
note_on channel=0 note=65 velocity=64 time=0
note_on channel=0 note=50 velocity=75 time=0
<meta message set_tempo tempo=934725 time=240>
note_on channel=0 note=50 velocity=0 time=0
note_on channel=0 note=65 velocity=0 time=0
note_on channel=0 note=74 velocity=0 time=0
note_on channel=0 note=63 velocity=71 time=0
note_on channel=0 note=43 velocity=71 time=0
note_on channel=0 note=43 velocity=0 time=120
note_on channel=0 note=63 velocity=0 time=0
<meta message set_tempo tempo=903751 time=120>
note_on channel=0 note=68 velocity=76 time=0
note_on channel=0 note=62 velocity=69 time=0
note_on channel=0 note=48 velocity=77 time=0
note_on channel=0 note=48 velocity=0 time=120
note_on channel=0 note=47 velocity=77 time=0
<meta message set_tempo tempo=947418 time=120>
note_on channel=0 note=47 velocity=0 time=0
note_on channel=0 note=62 velocity=0 time=0
note_on channel=0 note=68 velocity=0 time=0
note_on channel=0 note=67 velocity=74 time=0
note_on channel=0 note=63 velocity=67 time=0
note_on channel=0 note=48 velocity=80 time=0
note_on channel=0 note=48 velocity=0 time=120
note_on channel=0 note=63 velocity=0 time=120
note_on channel=0 note=67 velocity=0 time=0
note_on channel=0 note=65 velocity=71 time=0
note_on channel=0 note=50 velocity=71 time=0
note_on channel=0 note=50 velocity=0 time=120
<meta message set_tempo tempo=996016 time=120>
note_on channel=0 note=65 velocity=0 time=0
note_on channel=0 note=67 velocity=73 time=0
note_on channel=0 note=59 velocity=69 time=0
note_on channel=0 note=41 velocity=74 time=0
note_on channel=0 note=41 velocity=0 time=120
note_on channel=0 note=59 velocity=0 time=0
note_on channel=0 note=67 velocity=0 time=0
note_on channel=0 note=43 velocity=74 time=0
<meta message set_tempo tempo=1026167 time=120>
note_on channel=0 note=43 velocity=0 time=0
note_on channel=0 note=65 velocity=76 time=0
note_on channel=0 note=60 velocity=65 time=0
note_on channel=0 note=44 velocity=78 time=0
note_on channel=0 note=65 velocity=0 time=120
note_on channel=0 note=63 velocity=76 time=0
note_on channel=0 note=63 velocity=0 time=120
note_on channel=0 note=60 velocity=0 time=0
note_on channel=0 note=65 velocity=81 time=0
note_on channel=0 note=62 velocity=69 time=0
note_on channel=0 note=62 velocity=0 time=120
note_on channel=0 note=65 velocity=0 time=0
<meta message set_tempo tempo=1109467 time=120>
note_on channel=0 note=44 velocity=0 time=0
note_on channel=0 note=62 velocity=73 time=0
note_on channel=0 note=59 velocity=65 time=0
note_on channel=0 note=43 velocity=73 time=0
note_on channel=0 note=43 velocity=0 time=120
note_on channel=0 note=41 velocity=73 time=0
<meta message set_tempo tempo=1218522 time=120>
note_on channel=0 note=41 velocity=0 time=0
note_on channel=0 note=59 velocity=0 time=0
note_on channel=0 note=62 velocity=0 time=0
note_on channel=0 note=68 velocity=89 time=0
note_on channel=0 note=59 velocity=88 time=0
note_on channel=0 note=39 velocity=69 time=0
note_on channel=0 note=59 velocity=0 time=240
note_on channel=0 note=68 velocity=0 time=0
note_on channel=0 note=67 velocity=76 time=0
note_on channel=0 note=60 velocity=62 time=0
note_on channel=0 note=60 velocity=0 time=240
note_on channel=0 note=67 velocity=0 time=0
note_on channel=0 note=39 velocity=0 time=0
note_on channel=0 note=69 velocity=78 time=240
note_on channel=0 note=60 velocity=68 time=0
note_on channel=0 note=51 velocity=57 time=0
note_on channel=0 note=51 velocity=0 time=240
note_on channel=0 note=60 velocity=0 time=0
note_on channel=0 note=69 velocity=0 time=0
note_on channel=0 note=71 velocity=82 time=0
note_on channel=0 note=65 velocity=75 time=0
note_on channel=0 note=50 velocity=61 time=0
note_on channel=0 note=65 velocity=0 time=120
note_on channel=0 note=62 velocity=72 time=0
note_on channel=0 note=62 velocity=0 time=120
note_on channel=0 note=50 velocity=0 time=0
note_on channel=0 note=71 velocity=0 time=0
note_on channel=0 note=72 velocity=80 time=0
note_on channel=0 note=63 velocity=77 time=0
note_on channel=0 note=48 velocity=57 time=0
note_on channel=0 note=63 velocity=0 time=120
note_on channel=0 note=60 velocity=71 time=0
<meta message set_tempo tempo=1252087 time=120>
note_on channel=0 note=48 velocity=0 time=0
note_on channel=0 note=72 velocity=0 time=0
note_on channel=0 note=65 velocity=76 time=0
note_on channel=0 note=55 velocity=69 time=0
<meta message set_tempo tempo=1263690 time=40>
<meta message set_tempo tempo=1275781 time=40>
<meta message set_tempo tempo=1287277 time=40>
note_on channel=0 note=65 velocity=0 time=0
note_on channel=0 note=63 velocity=75 time=0
<meta message set_tempo tempo=1300108 time=40>
<meta message set_tempo tempo=1312336 time=20>
<meta message set_tempo tempo=1325088 time=40>
note_on channel=0 note=63 velocity=0 time=20
note_on channel=0 note=55 velocity=0 time=0
note_on channel=0 note=60 velocity=0 time=0
note_on channel=0 note=62 velocity=75 time=0
note_on channel=0 note=59 velocity=74 time=0
note_on channel=0 note=43 velocity=64 time=0
<meta message set_tempo tempo=1338091 time=20>
<meta message set_tempo tempo=1351047 time=40>
<meta message set_tempo tempo=1364877 time=20>
<meta message set_tempo tempo=1728111 time=40>
note_on channel=0 note=62 velocity=0 time=0
note_on channel=0 note=60 velocity=74 time=0
<meta message set_tempo tempo=1176240 time=120>
note_on channel=0 note=60 velocity=0 time=0
note_on channel=0 note=43 velocity=0 time=0
note_on channel=0 note=59 velocity=0 time=0
note_on channel=0 note=60 velocity=81 time=0
note_on channel=0 note=48 velocity=82 time=0
note_on channel=0 note=36 velocity=82 time=0
<meta message set_tempo tempo=1057828 time=240>
note_on channel=0 note=60 velocity=0 time=0
note_on channel=0 note=72 velocity=81 time=0
note_on channel=0 note=72 velocity=0 time=120
note_on channel=0 note=71 velocity=81 time=0
<meta message set_tempo tempo=967742 time=120>
note_on channel=0 note=71 velocity=0 time=0
note_on channel=0 note=72 velocity=87 time=0
note_on channel=0 note=72 velocity=0 time=120
note_on channel=0 note=67 velocity=77 time=120
note_on channel=0 note=64 velocity=65 time=0
note_on channel=0 note=64 velocity=0 time=240
note_on channel=0 note=67 velocity=0 time=0
note_on channel=0 note=68 velocity=77 time=0
note_on channel=0 note=65 velocity=66 time=0
note_on channel=0 note=65 velocity=0 time=120
note_on channel=0 note=68 velocity=0 time=0
<meta message set_tempo tempo=989120 time=120>
note_on channel=0 note=72 velocity=80 time=0
note_on channel=0 note=72 velocity=0 time=120
note_on channel=0 note=71 velocity=80 time=0
note_on channel=0 note=71 velocity=0 time=120
note_on channel=0 note=72 velocity=86 time=0
note_on channel=0 note=72 velocity=0 time=240
note_on channel=0 note=74 velocity=74 time=0
note_on channel=0 note=71 velocity=45 time=0
note_on channel=0 note=68 velocity=45 time=0
note_on channel=0 note=65 velocity=45 time=0
<meta message set_tempo tempo=989120 time=240>
note_on channel=0 note=65 velocity=0 time=0
note_on channel=0 note=71 velocity=0 time=0
note_on channel=0 note=74 velocity=0 time=0
note_on channel=0 note=68 velocity=0 time=0
note_on channel=0 note=67 velocity=76 time=0
note_on channel=0 note=65 velocity=60 time=0
note_on channel=0 note=65 velocity=0 time=120
note_on channel=0 note=67 velocity=0 time=0
<meta message set_tempo tempo=1018330 time=120>
note_on channel=0 note=72 velocity=79 time=0
note_on channel=0 note=63 velocity=64 time=0
note_on channel=0 note=63 velocity=0 time=120
note_on channel=0 note=72 velocity=0 time=0
note_on channel=0 note=71 velocity=79 time=0
note_on channel=0 note=62 velocity=64 time=0
<meta message set_tempo tempo=1049685 time=120>
note_on channel=0 note=62 velocity=0 time=0
note_on channel=0 note=71 velocity=0 time=0
note_on channel=0 note=72 velocity=86 time=0
note_on channel=0 note=63 velocity=69 time=0
note_on channel=0 note=63 velocity=0 time=240
note_on channel=0 note=72 velocity=0 time=0
note_on channel=0 note=74 velocity=78 time=0
note_on channel=0 note=68 velocity=57 time=0
note_on channel=0 note=65 velocity=57 time=0
<meta message set_tempo tempo=1146789 time=220>
note_on channel=0 note=65 velocity=0 time=0
note_on channel=0 note=74 velocity=0 time=0
note_on channel=0 note=68 velocity=0 time=0
<meta message set_tempo tempo=1263690 time=20>
note_on channel=0 note=65 velocity=56 time=0
note_on channel=0 note=59 velocity=53 time=0
note_on channel=0 note=62 velocity=53 time=0
note_on channel=0 note=65 velocity=0 time=120
note_on channel=0 note=67 velocity=56 time=0
<meta message set_tempo tempo=1287277 time=120>
note_on channel=0 note=67 velocity=0 time=0
note_on channel=0 note=62 velocity=0 time=0
note_on channel=0 note=59 velocity=0 time=0
note_on channel=0 note=68 velocity=60 time=0
<meta message set_tempo tempo=1338091 time=240>
note_on channel=0 note=59 velocity=46 time=0
note_on channel=0 note=62 velocity=46 time=0
<meta message set_tempo tempo=1728111 time=240>
note_on channel=0 note=62 velocity=0 time=0
note_on channel=0 note=68 velocity=0 time=0
note_on channel=0 note=59 velocity=0 time=0
note_on channel=0 note=67 velocity=47 time=0
<meta message set_tempo tempo=2677376 time=120>
note_on channel=0 note=67 velocity=0 time=0
note_on channel=0 note=65 velocity=45 time=0
note_on channel=0 note=65 velocity=0 time=120
note_on channel=0 note=64 velocity=43 time=0
note_on channel=0 note=55 velocity=36 time=0
note_on channel=0 note=60 velocity=36 time=0
<meta message set_tempo tempo=2352941 time=960>
<meta message marker text='Fine' time=0>
note_on channel=0 note=60 velocity=0 time=0
note_on channel=0 note=64 velocity=0 time=0
note_on channel=0 note=36 velocity=0 time=0
note_on channel=0 note=48 velocity=0 time=0
note_on channel=0 note=55 velocity=0 time=0
<meta message end_of_track time=0>
