<meta message track_name name='Präludium und Fuge in D-Dur, BWV 850' time=0>
<meta message copyright text='Copyright © 1997  Bernd Krueger.' time=0>
<meta message text text='Bach' time=0>
<meta message text text='Fertiggestellt am 12.11.97\n' time=0>
<meta message text text="Pan's auf Standard am 18.1.98\n" time=0>
<meta message text text='Normierung: 23.12.2002\n' time=0>
<meta message text text='Update am 29.9.2004\n' time=0>
<meta message text text='Dauer: 2:53 Minuten\n' time=0>
<meta message time_signature numerator=4 denominator=4 clocks_per_click=24 notated_32nd_notes_per_beat=8 time=0>
<meta message key_signature key='D' time=0>
<meta message set_tempo tempo=431655 time=0>
<meta message marker text='Praeludium' time=0>
program_change channel=0 program=0 time=0
control_change channel=0 control=7 value=100 time=0
control_change channel=0 control=10 value=64 time=0
control_change channel=0 control=91 value=127 time=0
<meta message text text='bdca426d104a26ac9dcb070447587523' time=0>
control_change channel=0 control=91 value=127 time=0
program_change channel=0 program=0 time=0
control_change channel=0 control=7 value=100 time=0
control_change channel=0 control=10 value=64 time=0
control_change channel=0 control=91 value=127 time=0
note_on channel=0 note=50 velocity=47 time=0
control_change channel=0 control=64 value=0 time=0
program_change channel=0 program=0 time=0
control_change channel=0 control=7 value=100 time=0
control_change channel=0 control=10 value=64 time=0
program_change channel=0 program=0 time=0
control_change channel=0 control=7 value=100 time=0
control_change channel=0 control=10 value=64 time=0
program_change channel=0 program=0 time=0
control_change channel=0 control=7 value=100 time=0
control_change channel=0 control=10 value=64 time=0
program_change channel=0 program=0 time=0
control_change channel=0 control=7 value=100 time=0
control_change channel=0 control=10 value=64 time=0
<meta message set_tempo tempo=416667 time=120>
note_on channel=0 note=74 velocity=57 time=0
note_on channel=0 note=50 velocity=0 time=60
note_on channel=0 note=76 velocity=57 time=60
note_on channel=0 note=74 velocity=0 time=20
note_on channel=0 note=78 velocity=57 time=100
note_on channel=0 note=76 velocity=0 time=20
note_on channel=0 note=69 velocity=60 time=100
note_on channel=0 note=62 velocity=40 time=0
note_on channel=0 note=78 velocity=0 time=20
note_on channel=0 note=69 velocity=0 time=100
note_on channel=0 note=78 velocity=57 time=0
note_on channel=0 note=62 velocity=0 time=60
note_on channel=0 note=76 velocity=57 time=60
note_on channel=0 note=78 velocity=0 time=20
note_on channel=0 note=74 velocity=57 time=100
note_on channel=0 note=76 velocity=0 time=20
note_on channel=0 note=81 velocity=62 time=100
note_on channel=0 note=54 velocity=45 time=0
note_on channel=0 note=74 velocity=0 time=20
<meta message set_tempo tempo=416667 time=100>
note_on channel=0 note=81 velocity=0 time=0
note_on channel=0 note=74 velocity=58 time=0
note_on channel=0 note=54 velocity=0 time=60
note_on channel=0 note=76 velocity=58 time=60
note_on channel=0 note=74 velocity=0 time=20
note_on channel=0 note=78 velocity=58 time=100
note_on channel=0 note=76 velocity=0 time=20
note_on channel=0 note=69 velocity=61 time=100
note_on channel=0 note=62 velocity=40 time=0
note_on channel=0 note=78 velocity=0 time=20
note_on channel=0 note=69 velocity=0 time=100
note_on channel=0 note=78 velocity=57 time=0
note_on channel=0 note=62 velocity=0 time=60
note_on channel=0 note=76 velocity=57 time=60
note_on channel=0 note=78 velocity=0 time=20
note_on channel=0 note=74 velocity=57 time=100
note_on channel=0 note=76 velocity=0 time=20
<meta message set_tempo tempo=416667 time=100>
note_on channel=0 note=79 velocity=60 time=0
note_on channel=0 note=52 velocity=46 time=0
note_on channel=0 note=74 velocity=0 time=20
note_on channel=0 note=79 velocity=0 time=100
note_on channel=0 note=76 velocity=58 time=0
note_on channel=0 note=52 velocity=0 time=60
note_on channel=0 note=78 velocity=58 time=60
note_on channel=0 note=76 velocity=0 time=20
note_on channel=0 note=79 velocity=58 time=100
note_on channel=0 note=78 velocity=0 time=20
<meta message set_tempo tempo=416667 time=100>
note_on channel=0 note=71 velocity=60 time=0
note_on channel=0 note=62 velocity=42 time=0
note_on channel=0 note=79 velocity=0 time=20
note_on channel=0 note=71 velocity=0 time=100
note_on channel=0 note=74 velocity=58 time=0
<meta message set_tempo tempo=418118 time=40>
note_on channel=0 note=62 velocity=0 time=20
note_on channel=0 note=73 velocity=58 time=60
note_on channel=0 note=74 velocity=0 time=20
<meta message set_tempo tempo=419580 time=60>
note_on channel=0 note=71 velocity=58 time=40
note_on channel=0 note=73 velocity=0 time=20
<meta message set_tempo tempo=421053 time=80>
<meta message set_tempo tempo=425532 time=20>
note_on channel=0 note=73 velocity=61 time=0
note_on channel=0 note=57 velocity=45 time=0
note_on channel=0 note=71 velocity=0 time=20
<meta message set_tempo tempo=416667 time=100>
note_on channel=0 note=73 velocity=0 time=0
note_on channel=0 note=76 velocity=58 time=0
note_on channel=0 note=57 velocity=0 time=60
note_on channel=0 note=78 velocity=58 time=60
note_on channel=0 note=76 velocity=0 time=20
note_on channel=0 note=79 velocity=58 time=100
note_on channel=0 note=78 velocity=0 time=20
note_on channel=0 note=69 velocity=60 time=100
note_on channel=0 note=61 velocity=41 time=0
note_on channel=0 note=79 velocity=0 time=20
<meta message set_tempo tempo=410959 time=100>
note_on channel=0 note=69 velocity=0 time=0
note_on channel=0 note=79 velocity=58 time=0
note_on channel=0 note=61 velocity=0 time=60
note_on channel=0 note=78 velocity=58 time=60
note_on channel=0 note=79 velocity=0 time=20
<meta message set_tempo tempo=425532 time=100>
note_on channel=0 note=76 velocity=58 time=0
note_on channel=0 note=78 velocity=0 time=20
<meta message set_tempo tempo=416667 time=100>
note_on channel=0 note=78 velocity=62 time=0
note_on channel=0 note=50 velocity=45 time=0
note_on channel=0 note=76 velocity=0 time=20
note_on channel=0 note=78 velocity=0 time=100
note_on channel=0 note=74 velocity=57 time=0
note_on channel=0 note=50 velocity=0 time=60
note_on channel=0 note=76 velocity=56 time=60
note_on channel=0 note=74 velocity=0 time=20
note_on channel=0 note=78 velocity=56 time=100
note_on channel=0 note=76 velocity=0 time=20
note_on channel=0 note=69 velocity=61 time=100
note_on channel=0 note=62 velocity=40 time=0
note_on channel=0 note=78 velocity=0 time=20
<meta message set_tempo tempo=418118 time=100>
note_on channel=0 note=69 velocity=0 time=0
note_on channel=0 note=73 velocity=56 time=0
note_on channel=0 note=62 velocity=0 time=60
<meta message set_tempo tempo=416667 time=20>
note_on channel=0 note=71 velocity=56 time=40
note_on channel=0 note=73 velocity=0 time=20
<meta message set_tempo tempo=415225 time=20>
<meta message set_tempo tempo=413793 time=80>
note_on channel=0 note=69 velocity=56 time=0
note_on channel=0 note=71 velocity=0 time=20
<meta message set_tempo tempo=412371 time=60>
note_on channel=0 note=71 velocity=62 time=40
note_on channel=0 note=50 velocity=44 time=0
note_on channel=0 note=69 velocity=0 time=20
<meta message set_tempo tempo=410959 time=20>
<meta message set_tempo tempo=409556 time=80>
note_on channel=0 note=71 velocity=0 time=0
note_on channel=0 note=74 velocity=56 time=0
note_on channel=0 note=50 velocity=0 time=60
note_on channel=0 note=76 velocity=56 time=60
note_on channel=0 note=74 velocity=0 time=20
note_on channel=0 note=78 velocity=56 time=100
note_on channel=0 note=76 velocity=0 time=20
<meta message set_tempo tempo=418118 time=100>
note_on channel=0 note=71 velocity=61 time=0
note_on channel=0 note=62 velocity=42 time=0
note_on channel=0 note=78 velocity=0 time=20
<meta message set_tempo tempo=409556 time=100>
note_on channel=0 note=71 velocity=0 time=0
note_on channel=0 note=81 velocity=56 time=0
note_on channel=0 note=62 velocity=0 time=60
note_on channel=0 note=80 velocity=56 time=60
note_on channel=0 note=81 velocity=0 time=20
note_on channel=0 note=78 velocity=56 time=100
note_on channel=0 note=80 velocity=0 time=20
<meta message set_tempo tempo=424028 time=100>
note_on channel=0 note=80 velocity=61 time=0
note_on channel=0 note=50 velocity=45 time=0
note_on channel=0 note=78 velocity=0 time=20
<meta message set_tempo tempo=415225 time=100>
note_on channel=0 note=80 velocity=0 time=0
note_on channel=0 note=76 velocity=56 time=0
<meta message set_tempo tempo=409556 time=20>
note_on channel=0 note=50 velocity=0 time=40
note_on channel=0 note=78 velocity=56 time=60
note_on channel=0 note=76 velocity=0 time=20
note_on channel=0 note=80 velocity=56 time=100
note_on channel=0 note=78 velocity=0 time=20
<meta message set_tempo tempo=410959 time=60>
note_on channel=0 note=71 velocity=60 time=40
note_on channel=0 note=56 velocity=42 time=0
note_on channel=0 note=80 velocity=0 time=20
note_on channel=0 note=71 velocity=0 time=100
note_on channel=0 note=74 velocity=56 time=0
note_on channel=0 note=56 velocity=0 time=60
<meta message set_tempo tempo=412371 time=60>
note_on channel=0 note=73 velocity=56 time=0
note_on channel=0 note=74 velocity=0 time=20
note_on channel=0 note=71 velocity=56 time=100
note_on channel=0 note=73 velocity=0 time=20
note_on channel=0 note=69 velocity=60 time=100
note_on channel=0 note=49 velocity=45 time=0
note_on channel=0 note=71 velocity=0 time=20
<meta message set_tempo tempo=413793 time=20>
<meta message set_tempo tempo=424028 time=80>
note_on channel=0 note=69 velocity=0 time=0
note_on channel=0 note=73 velocity=56 time=0
note_on channel=0 note=49 velocity=0 time=60
note_on channel=0 note=74 velocity=56 time=60
note_on channel=0 note=73 velocity=0 time=20
note_on channel=0 note=76 velocity=56 time=100
note_on channel=0 note=74 velocity=0 time=20
note_on channel=0 note=66 velocity=60 time=100
note_on channel=0 note=57 velocity=42 time=0
note_on channel=0 note=76 velocity=0 time=20
<meta message set_tempo tempo=413793 time=100>
note_on channel=0 note=66 velocity=0 time=0
note_on channel=0 note=76 velocity=56 time=0
note_on channel=0 note=57 velocity=0 time=60
note_on channel=0 note=74 velocity=56 time=60
note_on channel=0 note=76 velocity=0 time=20
<meta message set_tempo tempo=425532 time=100>
note_on channel=0 note=73 velocity=56 time=0
note_on channel=0 note=74 velocity=0 time=20
<meta message set_tempo tempo=416667 time=100>
note_on channel=0 note=74 velocity=60 time=0
note_on channel=0 note=47 velocity=46 time=0
note_on channel=0 note=73 velocity=0 time=20
note_on channel=0 note=74 velocity=0 time=100
note_on channel=0 note=71 velocity=56 time=0
note_on channel=0 note=47 velocity=0 time=60
note_on channel=0 note=73 velocity=56 time=60
note_on channel=0 note=71 velocity=0 time=20
note_on channel=0 note=74 velocity=56 time=100
note_on channel=0 note=73 velocity=0 time=20
<meta message set_tempo tempo=416667 time=100>
note_on channel=0 note=66 velocity=60 time=0
note_on channel=0 note=57 velocity=39 time=0
note_on channel=0 note=74 velocity=0 time=20
note_on channel=0 note=66 velocity=0 time=100
note_on channel=0 note=69 velocity=55 time=0
<meta message set_tempo tempo=418118 time=40>
note_on channel=0 note=57 velocity=0 time=20
note_on channel=0 note=68 velocity=55 time=60
note_on channel=0 note=69 velocity=0 time=20
<meta message set_tempo tempo=419580 time=60>
note_on channel=0 note=66 velocity=54 time=40
note_on channel=0 note=68 velocity=0 time=20
<meta message set_tempo tempo=421053 time=100>
note_on channel=0 note=68 velocity=59 time=0
note_on channel=0 note=52 velocity=44 time=0
note_on channel=0 note=66 velocity=0 time=20
note_on channel=0 note=68 velocity=0 time=100
note_on channel=0 note=71 velocity=54 time=0
note_on channel=0 note=52 velocity=0 time=60
note_on channel=0 note=73 velocity=54 time=60
note_on channel=0 note=71 velocity=0 time=20
note_on channel=0 note=74 velocity=54 time=100
note_on channel=0 note=73 velocity=0 time=20
note_on channel=0 note=64 velocity=59 time=100
note_on channel=0 note=56 velocity=38 time=0
note_on channel=0 note=74 velocity=0 time=20
<meta message set_tempo tempo=413793 time=100>
note_on channel=0 note=64 velocity=0 time=0
note_on channel=0 note=74 velocity=53 time=0
note_on channel=0 note=56 velocity=0 time=60
note_on channel=0 note=73 velocity=53 time=60
note_on channel=0 note=74 velocity=0 time=20
note_on channel=0 note=71 velocity=53 time=100
note_on channel=0 note=73 velocity=0 time=20
<meta message set_tempo tempo=428571 time=100>
note_on channel=0 note=73 velocity=57 time=0
note_on channel=0 note=45 velocity=42 time=0
note_on channel=0 note=71 velocity=0 time=20
<meta message set_tempo tempo=415225 time=100>
note_on channel=0 note=73 velocity=0 time=0
note_on channel=0 note=69 velocity=54 time=0
note_on channel=0 note=45 velocity=0 time=60
note_on channel=0 note=71 velocity=54 time=60
note_on channel=0 note=69 velocity=0 time=20
note_on channel=0 note=73 velocity=54 time=100
note_on channel=0 note=71 velocity=0 time=20
note_on channel=0 note=64 velocity=56 time=100
note_on channel=0 note=57 velocity=39 time=0
note_on channel=0 note=73 velocity=0 time=20
<meta message set_tempo tempo=419580 time=100>
note_on channel=0 note=64 velocity=0 time=0
note_on channel=0 note=67 velocity=53 time=0
note_on channel=0 note=57 velocity=0 time=60
note_on channel=0 note=66 velocity=53 time=60
note_on channel=0 note=67 velocity=0 time=20
note_on channel=0 note=64 velocity=53 time=100
note_on channel=0 note=66 velocity=0 time=20
<meta message set_tempo tempo=412371 time=100>
note_on channel=0 note=66 velocity=55 time=0
note_on channel=0 note=45 velocity=41 time=0
note_on channel=0 note=64 velocity=0 time=20
note_on channel=0 note=66 velocity=0 time=100
note_on channel=0 note=69 velocity=53 time=0
note_on channel=0 note=45 velocity=0 time=60
note_on channel=0 note=71 velocity=52 time=60
note_on channel=0 note=69 velocity=0 time=20
note_on channel=0 note=73 velocity=52 time=100
note_on channel=0 note=71 velocity=0 time=20
note_on channel=0 note=66 velocity=55 time=100
note_on channel=0 note=57 velocity=36 time=0
note_on channel=0 note=73 velocity=0 time=20
<meta message set_tempo tempo=422535 time=100>
note_on channel=0 note=66 velocity=0 time=0
note_on channel=0 note=76 velocity=51 time=0
note_on channel=0 note=57 velocity=0 time=60
note_on channel=0 note=75 velocity=51 time=60
note_on channel=0 note=76 velocity=0 time=20
note_on channel=0 note=73 velocity=51 time=100
note_on channel=0 note=75 velocity=0 time=20
note_on channel=0 note=75 velocity=54 time=100
note_on channel=0 note=45 velocity=39 time=0
note_on channel=0 note=73 velocity=0 time=20
<meta message set_tempo tempo=415225 time=100>
note_on channel=0 note=75 velocity=0 time=0
note_on channel=0 note=71 velocity=51 time=0
note_on channel=0 note=45 velocity=0 time=60
note_on channel=0 note=73 velocity=51 time=60
note_on channel=0 note=71 velocity=0 time=20
note_on channel=0 note=75 velocity=51 time=100
note_on channel=0 note=73 velocity=0 time=20
note_on channel=0 note=66 velocity=54 time=100
note_on channel=0 note=51 velocity=36 time=0
note_on channel=0 note=75 velocity=0 time=20
note_on channel=0 note=66 velocity=0 time=100
note_on channel=0 note=69 velocity=52 time=0
note_on channel=0 note=51 velocity=0 time=60
note_on channel=0 note=67 velocity=52 time=60
note_on channel=0 note=69 velocity=0 time=20
note_on channel=0 note=66 velocity=52 time=100
note_on channel=0 note=67 velocity=0 time=20
<meta message set_tempo tempo=413793 time=100>
note_on channel=0 note=64 velocity=55 time=0
note_on channel=0 note=43 velocity=41 time=0
note_on channel=0 note=66 velocity=0 time=20
<meta message set_tempo tempo=412371 time=80>
note_on channel=0 note=64 velocity=0 time=20
note_on channel=0 note=67 velocity=53 time=0
note_on channel=0 note=43 velocity=0 time=60
<meta message set_tempo tempo=410959 time=20>
note_on channel=0 note=69 velocity=53 time=40
note_on channel=0 note=67 velocity=0 time=20
<meta message set_tempo tempo=409556 time=40>
note_on channel=0 note=71 velocity=53 time=60
note_on channel=0 note=69 velocity=0 time=20
<meta message set_tempo tempo=408163 time=20>
<meta message set_tempo tempo=406780 time=80>
note_on channel=0 note=61 velocity=57 time=0
note_on channel=0 note=52 velocity=38 time=0
note_on channel=0 note=71 velocity=0 time=20
<meta message set_tempo tempo=409556 time=100>
note_on channel=0 note=61 velocity=0 time=0
note_on channel=0 note=74 velocity=54 time=0
note_on channel=0 note=52 velocity=0 time=60
note_on channel=0 note=73 velocity=54 time=60
note_on channel=0 note=74 velocity=0 time=20
note_on channel=0 note=71 velocity=54 time=100
note_on channel=0 note=73 velocity=0 time=20
note_on channel=0 note=70 velocity=57 time=100
note_on channel=0 note=42 velocity=44 time=0
note_on channel=0 note=71 velocity=0 time=20
<meta message set_tempo tempo=416667 time=100>
note_on channel=0 note=70 velocity=0 time=0
note_on channel=0 note=64 velocity=55 time=0
note_on channel=0 note=42 velocity=0 time=60
note_on channel=0 note=66 velocity=55 time=60
note_on channel=0 note=64 velocity=0 time=20
note_on channel=0 note=67 velocity=55 time=100
note_on channel=0 note=66 velocity=0 time=20
<meta message set_tempo tempo=416667 time=80>
note_on channel=0 note=61 velocity=59 time=20
note_on channel=0 note=54 velocity=39 time=0
note_on channel=0 note=67 velocity=0 time=20
<meta message set_tempo tempo=415225 time=100>
note_on channel=0 note=61 velocity=0 time=0
note_on channel=0 note=67 velocity=55 time=0
note_on channel=0 note=54 velocity=0 time=60
note_on channel=0 note=66 velocity=56 time=60
<meta message set_tempo tempo=413793 time=20>
note_on channel=0 note=67 velocity=0 time=0
note_on channel=0 note=64 velocity=56 time=100
note_on channel=0 note=66 velocity=0 time=20
<meta message set_tempo tempo=412371 time=20>
note_on channel=0 note=62 velocity=61 time=80
note_on channel=0 note=42 velocity=46 time=0
note_on channel=0 note=64 velocity=0 time=20
<meta message set_tempo tempo=410959 time=20>
<meta message set_tempo tempo=409556 time=80>
note_on channel=0 note=62 velocity=0 time=0
note_on channel=0 note=71 velocity=57 time=0
note_on channel=0 note=42 velocity=0 time=60
note_on channel=0 note=73 velocity=57 time=60
note_on channel=0 note=71 velocity=0 time=20
note_on channel=0 note=74 velocity=57 time=100
note_on channel=0 note=73 velocity=0 time=20
note_on channel=0 note=66 velocity=62 time=100
note_on channel=0 note=54 velocity=41 time=0
note_on channel=0 note=74 velocity=0 time=20
note_on channel=0 note=66 velocity=0 time=100
note_on channel=0 note=69 velocity=58 time=0
note_on channel=0 note=54 velocity=0 time=60
note_on channel=0 note=68 velocity=58 time=60
note_on channel=0 note=69 velocity=0 time=20
note_on channel=0 note=66 velocity=58 time=100
note_on channel=0 note=68 velocity=0 time=20
note_on channel=0 note=65 velocity=63 time=100
note_on channel=0 note=42 velocity=46 time=0
note_on channel=0 note=66 velocity=0 time=20
<meta message set_tempo tempo=416667 time=100>
note_on channel=0 note=65 velocity=0 time=0
note_on channel=0 note=68 velocity=58 time=0
note_on channel=0 note=42 velocity=0 time=60
note_on channel=0 note=69 velocity=59 time=60
note_on channel=0 note=68 velocity=0 time=20
note_on channel=0 note=71 velocity=59 time=100
note_on channel=0 note=69 velocity=0 time=20
note_on channel=0 note=65 velocity=63 time=100
note_on channel=0 note=54 velocity=42 time=0
note_on channel=0 note=71 velocity=0 time=20
note_on channel=0 note=65 velocity=0 time=100
note_on channel=0 note=74 velocity=59 time=0
note_on channel=0 note=54 velocity=0 time=60
note_on channel=0 note=73 velocity=59 time=60
note_on channel=0 note=74 velocity=0 time=20
note_on channel=0 note=71 velocity=60 time=100
note_on channel=0 note=73 velocity=0 time=20
note_on channel=0 note=80 velocity=63 time=100
note_on channel=0 note=42 velocity=47 time=0
note_on channel=0 note=71 velocity=0 time=20
<meta message set_tempo tempo=408163 time=100>
note_on channel=0 note=80 velocity=0 time=0
note_on channel=0 note=77 velocity=60 time=0
note_on channel=0 note=42 velocity=0 time=60
note_on channel=0 note=78 velocity=60 time=60
note_on channel=0 note=77 velocity=0 time=20
note_on channel=0 note=80 velocity=60 time=100
note_on channel=0 note=78 velocity=0 time=20
<meta message set_tempo tempo=424028 time=100>
note_on channel=0 note=73 velocity=65 time=0
note_on channel=0 note=54 velocity=42 time=0
note_on channel=0 note=80 velocity=0 time=20
<meta message set_tempo tempo=421053 time=100>
note_on channel=0 note=73 velocity=0 time=0
note_on channel=0 note=83 velocity=61 time=0
note_on channel=0 note=54 velocity=0 time=60
note_on channel=0 note=81 velocity=62 time=60
note_on channel=0 note=83 velocity=0 time=20
note_on channel=0 note=80 velocity=62 time=100
note_on channel=0 note=81 velocity=0 time=20
note_on channel=0 note=81 velocity=67 time=100
note_on channel=0 note=42 velocity=49 time=0
note_on channel=0 note=80 velocity=0 time=20
<meta message set_tempo tempo=408163 time=100>
note_on channel=0 note=81 velocity=0 time=0
note_on channel=0 note=78 velocity=62 time=0
note_on channel=0 note=42 velocity=0 time=60
note_on channel=0 note=80 velocity=62 time=60
note_on channel=0 note=78 velocity=0 time=20
note_on channel=0 note=81 velocity=62 time=100
note_on channel=0 note=80 velocity=0 time=20
<meta message set_tempo tempo=408163 time=100>
note_on channel=0 note=73 velocity=67 time=0
note_on channel=0 note=54 velocity=44 time=0
note_on channel=0 note=81 velocity=0 time=20
note_on channel=0 note=73 velocity=0 time=100
note_on channel=0 note=76 velocity=62 time=0
note_on channel=0 note=54 velocity=0 time=60
<meta message set_tempo tempo=406780 time=60>
note_on channel=0 note=75 velocity=62 time=0
note_on channel=0 note=76 velocity=0 time=20
note_on channel=0 note=73 velocity=62 time=100
note_on channel=0 note=75 velocity=0 time=20
<meta message set_tempo tempo=405405 time=100>
note_on channel=0 note=75 velocity=67 time=0
note_on channel=0 note=47 velocity=49 time=0
note_on channel=0 note=73 velocity=0 time=20
note_on channel=0 note=75 velocity=0 time=100
note_on channel=0 note=78 velocity=62 time=0
note_on channel=0 note=47 velocity=0 time=60
<meta message set_tempo tempo=404040 time=60>
note_on channel=0 note=79 velocity=62 time=0
note_on channel=0 note=78 velocity=0 time=20
note_on channel=0 note=81 velocity=62 time=100
note_on channel=0 note=79 velocity=0 time=20
<meta message set_tempo tempo=402685 time=80>
<meta message set_tempo tempo=424028 time=20>
note_on channel=0 note=71 velocity=67 time=0
note_on channel=0 note=51 velocity=45 time=0
note_on channel=0 note=81 velocity=0 time=20
<meta message set_tempo tempo=408163 time=100>
note_on channel=0 note=71 velocity=0 time=0
note_on channel=0 note=81 velocity=62 time=0
note_on channel=0 note=51 velocity=0 time=60
<meta message set_tempo tempo=409556 time=20>
note_on channel=0 note=79 velocity=62 time=40
<meta message set_tempo tempo=410959 time=20>
note_on channel=0 note=81 velocity=0 time=0
<meta message set_tempo tempo=412371 time=60>
note_on channel=0 note=78 velocity=62 time=40
<meta message set_tempo tempo=413793 time=20>
note_on channel=0 note=79 velocity=0 time=0
<meta message set_tempo tempo=415225 time=60>
note_on channel=0 note=79 velocity=67 time=40
note_on channel=0 note=40 velocity=48 time=0
<meta message set_tempo tempo=416667 time=20>
note_on channel=0 note=78 velocity=0 time=0
<meta message set_tempo tempo=415225 time=100>
note_on channel=0 note=79 velocity=0 time=0
note_on channel=0 note=76 velocity=62 time=0
note_on channel=0 note=40 velocity=0 time=60
note_on channel=0 note=78 velocity=62 time=60
note_on channel=0 note=76 velocity=0 time=20
note_on channel=0 note=79 velocity=62 time=100
note_on channel=0 note=78 velocity=0 time=20
<meta message set_tempo tempo=415225 time=100>
note_on channel=0 note=71 velocity=66 time=0
note_on channel=0 note=52 velocity=45 time=0
note_on channel=0 note=79 velocity=0 time=20
note_on channel=0 note=71 velocity=0 time=100
note_on channel=0 note=74 velocity=62 time=0
<meta message set_tempo tempo=416667 time=40>
note_on channel=0 note=52 velocity=0 time=20
note_on channel=0 note=72 velocity=62 time=60
note_on channel=0 note=74 velocity=0 time=20
<meta message set_tempo tempo=418118 time=60>
note_on channel=0 note=71 velocity=62 time=40
note_on channel=0 note=72 velocity=0 time=20
<meta message set_tempo tempo=419580 time=80>
note_on channel=0 note=72 velocity=66 time=20
note_on channel=0 note=40 velocity=48 time=0
note_on channel=0 note=71 velocity=0 time=20
<meta message set_tempo tempo=412371 time=100>
note_on channel=0 note=72 velocity=0 time=0
note_on channel=0 note=75 velocity=62 time=0
note_on channel=0 note=40 velocity=0 time=60
note_on channel=0 note=76 velocity=62 time=60
note_on channel=0 note=75 velocity=0 time=20
note_on channel=0 note=78 velocity=62 time=100
note_on channel=0 note=76 velocity=0 time=20
note_on channel=0 note=69 velocity=66 time=100
note_on channel=0 note=51 velocity=48 time=0
note_on channel=0 note=78 velocity=0 time=20
<meta message set_tempo tempo=418118 time=100>
note_on channel=0 note=69 velocity=0 time=0
note_on channel=0 note=72 velocity=62 time=0
note_on channel=0 note=51 velocity=0 time=60
note_on channel=0 note=71 velocity=62 time=60
note_on channel=0 note=72 velocity=0 time=20
note_on channel=0 note=69 velocity=62 time=100
note_on channel=0 note=71 velocity=0 time=20
<meta message set_tempo tempo=422535 time=100>
note_on channel=0 note=67 velocity=66 time=0
note_on channel=0 note=40 velocity=48 time=0
note_on channel=0 note=69 velocity=0 time=20
note_on channel=0 note=67 velocity=0 time=100
note_on channel=0 note=76 velocity=62 time=0
note_on channel=0 note=40 velocity=0 time=60
note_on channel=0 note=78 velocity=62 time=60
note_on channel=0 note=76 velocity=0 time=20
note_on channel=0 note=79 velocity=61 time=100
note_on channel=0 note=78 velocity=0 time=20
note_on channel=0 note=71 velocity=66 time=100
note_on channel=0 note=52 velocity=45 time=0
note_on channel=0 note=79 velocity=0 time=20
<meta message set_tempo tempo=415225 time=100>
note_on channel=0 note=71 velocity=0 time=0
note_on channel=0 note=74 velocity=62 time=0
note_on channel=0 note=52 velocity=0 time=60
note_on channel=0 note=73 velocity=62 time=60
note_on channel=0 note=74 velocity=0 time=20
note_on channel=0 note=71 velocity=62 time=100
note_on channel=0 note=73 velocity=0 time=20
note_on channel=0 note=73 velocity=66 time=100
note_on channel=0 note=45 velocity=48 time=0
note_on channel=0 note=71 velocity=0 time=20
<meta message set_tempo tempo=418118 time=100>
note_on channel=0 note=73 velocity=0 time=0
note_on channel=0 note=76 velocity=62 time=0
note_on channel=0 note=45 velocity=0 time=60
note_on channel=0 note=78 velocity=62 time=60
note_on channel=0 note=76 velocity=0 time=20
note_on channel=0 note=79 velocity=62 time=100
note_on channel=0 note=78 velocity=0 time=20
note_on channel=0 note=69 velocity=64 time=100
note_on channel=0 note=49 velocity=45 time=0
note_on channel=0 note=79 velocity=0 time=20
<meta message set_tempo tempo=410959 time=100>
note_on channel=0 note=69 velocity=0 time=0
note_on channel=0 note=79 velocity=62 time=0
note_on channel=0 note=49 velocity=0 time=60
note_on channel=0 note=78 velocity=62 time=60
note_on channel=0 note=79 velocity=0 time=20
note_on channel=0 note=76 velocity=62 time=100
note_on channel=0 note=78 velocity=0 time=20
<meta message set_tempo tempo=409556 time=100>
note_on channel=0 note=78 velocity=67 time=0
note_on channel=0 note=38 velocity=48 time=0
note_on channel=0 note=76 velocity=0 time=20
note_on channel=0 note=78 velocity=0 time=100
note_on channel=0 note=74 velocity=62 time=0
<meta message set_tempo tempo=410959 time=40>
note_on channel=0 note=38 velocity=0 time=20
note_on channel=0 note=76 velocity=62 time=60
note_on channel=0 note=74 velocity=0 time=20
<meta message set_tempo tempo=412371 time=60>
note_on channel=0 note=78 velocity=62 time=40
note_on channel=0 note=76 velocity=0 time=20
<meta message set_tempo tempo=413793 time=80>
note_on channel=0 note=69 velocity=65 time=20
note_on channel=0 note=50 velocity=44 time=0
note_on channel=0 note=78 velocity=0 time=20
<meta message set_tempo tempo=415225 time=100>
note_on channel=0 note=69 velocity=0 time=0
note_on channel=0 note=72 velocity=61 time=0
note_on channel=0 note=50 velocity=0 time=60
note_on channel=0 note=71 velocity=60 time=60
note_on channel=0 note=72 velocity=0 time=20
note_on channel=0 note=69 velocity=60 time=100
note_on channel=0 note=71 velocity=0 time=20
note_on channel=0 note=71 velocity=65 time=100
note_on channel=0 note=38 velocity=47 time=0
note_on channel=0 note=69 velocity=0 time=20
<meta message set_tempo tempo=410959 time=100>
note_on channel=0 note=71 velocity=0 time=0
note_on channel=0 note=67 velocity=59 time=0
note_on channel=0 note=38 velocity=0 time=60
note_on channel=0 note=69 velocity=59 time=60
note_on channel=0 note=67 velocity=0 time=20
note_on channel=0 note=71 velocity=59 time=100
note_on channel=0 note=69 velocity=0 time=20
<meta message set_tempo tempo=419580 time=100>
note_on channel=0 note=61 velocity=64 time=0
note_on channel=0 note=50 velocity=40 time=0
note_on channel=0 note=71 velocity=0 time=20
<meta message set_tempo tempo=412371 time=100>
note_on channel=0 note=61 velocity=0 time=0
note_on channel=0 note=71 velocity=58 time=0
note_on channel=0 note=50 velocity=0 time=60
note_on channel=0 note=69 velocity=58 time=60
note_on channel=0 note=71 velocity=0 time=20
note_on channel=0 note=67 velocity=58 time=100
note_on channel=0 note=69 velocity=0 time=20
note_on channel=0 note=66 velocity=63 time=100
note_on channel=0 note=38 velocity=45 time=0
note_on channel=0 note=67 velocity=0 time=20
<meta message set_tempo tempo=416667 time=100>
note_on channel=0 note=66 velocity=0 time=0
note_on channel=0 note=62 velocity=57 time=0
note_on channel=0 note=38 velocity=0 time=60
note_on channel=0 note=64 velocity=57 time=60
note_on channel=0 note=62 velocity=0 time=20
note_on channel=0 note=66 velocity=57 time=100
note_on channel=0 note=64 velocity=0 time=20
note_on channel=0 note=57 velocity=62 time=100
note_on channel=0 note=50 velocity=41 time=0
note_on channel=0 note=66 velocity=0 time=20
<meta message set_tempo tempo=409556 time=100>
note_on channel=0 note=57 velocity=0 time=0
note_on channel=0 note=60 velocity=57 time=0
note_on channel=0 note=50 velocity=0 time=60
note_on channel=0 note=59 velocity=56 time=60
note_on channel=0 note=60 velocity=0 time=20
note_on channel=0 note=57 velocity=56 time=100
note_on channel=0 note=59 velocity=0 time=20
note_on channel=0 note=59 velocity=61 time=100
note_on channel=0 note=38 velocity=44 time=0
note_on channel=0 note=57 velocity=0 time=20
note_on channel=0 note=59 velocity=0 time=100
note_on channel=0 note=62 velocity=56 time=0
note_on channel=0 note=38 velocity=0 time=60
note_on channel=0 note=64 velocity=56 time=60
note_on channel=0 note=62 velocity=0 time=20
note_on channel=0 note=66 velocity=55 time=100
note_on channel=0 note=64 velocity=0 time=20
note_on channel=0 note=59 velocity=60 time=100
note_on channel=0 note=50 velocity=38 time=0
note_on channel=0 note=66 velocity=0 time=20
<meta message set_tempo tempo=419580 time=100>
note_on channel=0 note=59 velocity=0 time=0
note_on channel=0 note=69 velocity=54 time=0
note_on channel=0 note=50 velocity=0 time=60
note_on channel=0 note=68 velocity=54 time=60
note_on channel=0 note=69 velocity=0 time=20
note_on channel=0 note=66 velocity=54 time=100
note_on channel=0 note=68 velocity=0 time=20
note_on channel=0 note=68 velocity=58 time=100
note_on channel=0 note=38 velocity=42 time=0
note_on channel=0 note=66 velocity=0 time=20
<meta message set_tempo tempo=416667 time=100>
note_on channel=0 note=68 velocity=0 time=0
note_on channel=0 note=64 velocity=54 time=0
<meta message set_tempo tempo=416667 time=20>
note_on channel=0 note=38 velocity=0 time=40
note_on channel=0 note=66 velocity=53 time=60
note_on channel=0 note=64 velocity=0 time=20
note_on channel=0 note=68 velocity=53 time=100
note_on channel=0 note=66 velocity=0 time=20
<meta message set_tempo tempo=415225 time=80>
note_on channel=0 note=59 velocity=57 time=20
note_on channel=0 note=56 velocity=38 time=0
note_on channel=0 note=68 velocity=0 time=20
note_on channel=0 note=59 velocity=0 time=100
note_on channel=0 note=62 velocity=53 time=0
note_on channel=0 note=56 velocity=0 time=60
note_on channel=0 note=60 velocity=53 time=60
note_on channel=0 note=62 velocity=0 time=20
<meta message set_tempo tempo=413793 time=20>
note_on channel=0 note=59 velocity=52 time=80
note_on channel=0 note=60 velocity=0 time=20
note_on channel=0 note=57 velocity=56 time=100
note_on channel=0 note=48 velocity=41 time=0
note_on channel=0 note=59 velocity=0 time=20
<meta message set_tempo tempo=412371 time=80>
<meta message set_tempo tempo=412371 time=20>
note_on channel=0 note=57 velocity=0 time=0
note_on channel=0 note=60 velocity=52 time=0
note_on channel=0 note=48 velocity=0 time=60
note_on channel=0 note=62 velocity=52 time=60
note_on channel=0 note=60 velocity=0 time=20
note_on channel=0 note=64 velocity=52 time=100
note_on channel=0 note=62 velocity=0 time=20
note_on channel=0 note=57 velocity=55 time=100
note_on channel=0 note=54 velocity=37 time=0
note_on channel=0 note=64 velocity=0 time=20
<meta message set_tempo tempo=419580 time=100>
note_on channel=0 note=57 velocity=0 time=0
note_on channel=0 note=67 velocity=51 time=0
note_on channel=0 note=54 velocity=0 time=60
note_on channel=0 note=66 velocity=50 time=60
note_on channel=0 note=67 velocity=0 time=20
note_on channel=0 note=64 velocity=50 time=100
note_on channel=0 note=66 velocity=0 time=20
note_on channel=0 note=63 velocity=54 time=100
note_on channel=0 note=47 velocity=40 time=0
note_on channel=0 note=64 velocity=0 time=20
<meta message set_tempo tempo=412371 time=100>
note_on channel=0 note=63 velocity=0 time=0
note_on channel=0 note=57 velocity=50 time=0
note_on channel=0 note=47 velocity=0 time=60
note_on channel=0 note=59 velocity=50 time=60
note_on channel=0 note=57 velocity=0 time=20
note_on channel=0 note=60 velocity=50 time=100
note_on channel=0 note=59 velocity=0 time=20
note_on channel=0 note=57 velocity=54 time=100
note_on channel=0 note=51 velocity=37 time=0
note_on channel=0 note=60 velocity=0 time=20
note_on channel=0 note=57 velocity=0 time=100
note_on channel=0 note=60 velocity=50 time=0
note_on channel=0 note=51 velocity=0 time=60
note_on channel=0 note=59 velocity=50 time=60
note_on channel=0 note=60 velocity=0 time=20
note_on channel=0 note=57 velocity=50 time=100
note_on channel=0 note=59 velocity=0 time=20
note_on channel=0 note=55 velocity=54 time=100
note_on channel=0 note=52 velocity=41 time=0
note_on channel=0 note=57 velocity=0 time=20
<meta message set_tempo tempo=421053 time=100>
note_on channel=0 note=55 velocity=0 time=0
note_on channel=0 note=64 velocity=50 time=0
note_on channel=0 note=52 velocity=0 time=60
note_on channel=0 note=66 velocity=50 time=60
note_on channel=0 note=64 velocity=0 time=20
note_on channel=0 note=67 velocity=50 time=100
note_on channel=0 note=66 velocity=0 time=20
note_on channel=0 note=59 velocity=54 time=100
note_on channel=0 note=55 velocity=36 time=0
note_on channel=0 note=67 velocity=0 time=20
<meta message set_tempo tempo=412371 time=100>
note_on channel=0 note=59 velocity=0 time=0
note_on channel=0 note=62 velocity=50 time=0
note_on channel=0 note=55 velocity=0 time=60
<meta message set_tempo tempo=413793 time=60>
note_on channel=0 note=61 velocity=50 time=0
note_on channel=0 note=62 velocity=0 time=20
<meta message set_tempo tempo=415225 time=100>
note_on channel=0 note=59 velocity=50 time=0
note_on channel=0 note=61 velocity=0 time=20
<meta message set_tempo tempo=416667 time=100>
note_on channel=0 note=58 velocity=54 time=0
note_on channel=0 note=47 velocity=41 time=0
note_on channel=0 note=59 velocity=0 time=20
<meta message set_tempo tempo=418118 time=80>
<meta message set_tempo tempo=410959 time=20>
note_on channel=0 note=58 velocity=0 time=0
note_on channel=0 note=61 velocity=50 time=0
note_on channel=0 note=47 velocity=0 time=60
note_on channel=0 note=62 velocity=50 time=60
note_on channel=0 note=61 velocity=0 time=20
note_on channel=0 note=64 velocity=50 time=100
note_on channel=0 note=62 velocity=0 time=20
note_on channel=0 note=58 velocity=54 time=100
note_on channel=0 note=52 velocity=37 time=0
note_on channel=0 note=64 velocity=0 time=20
note_on channel=0 note=58 velocity=0 time=100
note_on channel=0 note=67 velocity=50 time=0
note_on channel=0 note=52 velocity=0 time=60
note_on channel=0 note=66 velocity=50 time=60
note_on channel=0 note=67 velocity=0 time=20
note_on channel=0 note=64 velocity=51 time=100
note_on channel=0 note=66 velocity=0 time=20
note_on channel=0 note=73 velocity=55 time=100
note_on channel=0 note=55 velocity=42 time=0
note_on channel=0 note=64 velocity=0 time=20
note_on channel=0 note=73 velocity=0 time=100
note_on channel=0 note=70 velocity=51 time=0
note_on channel=0 note=55 velocity=0 time=60
note_on channel=0 note=71 velocity=52 time=60
note_on channel=0 note=70 velocity=0 time=20
note_on channel=0 note=73 velocity=52 time=100
note_on channel=0 note=71 velocity=0 time=20
note_on channel=0 note=66 velocity=55 time=100
note_on channel=0 note=58 velocity=37 time=0
note_on channel=0 note=73 velocity=0 time=20
<meta message set_tempo tempo=419580 time=100>
note_on channel=0 note=66 velocity=0 time=0
note_on channel=0 note=76 velocity=52 time=0
note_on channel=0 note=58 velocity=0 time=60
note_on channel=0 note=74 velocity=52 time=60
note_on channel=0 note=76 velocity=0 time=20
note_on channel=0 note=73 velocity=52 time=100
note_on channel=0 note=74 velocity=0 time=20
note_on channel=0 note=74 velocity=57 time=100
note_on channel=0 note=47 velocity=43 time=0
note_on channel=0 note=73 velocity=0 time=20
<meta message set_tempo tempo=412371 time=100>
note_on channel=0 note=74 velocity=0 time=0
note_on channel=0 note=71 velocity=53 time=0
note_on channel=0 note=47 velocity=0 time=60
note_on channel=0 note=73 velocity=53 time=60
note_on channel=0 note=71 velocity=0 time=20
note_on channel=0 note=74 velocity=53 time=100
note_on channel=0 note=73 velocity=0 time=20
note_on channel=0 note=66 velocity=58 time=100
note_on channel=0 note=59 velocity=38 time=0
note_on channel=0 note=74 velocity=0 time=20
note_on channel=0 note=66 velocity=0 time=100
note_on channel=0 note=69 velocity=53 time=0
note_on channel=0 note=59 velocity=0 time=60
note_on channel=0 note=68 velocity=53 time=60
note_on channel=0 note=69 velocity=0 time=20
note_on channel=0 note=66 velocity=54 time=100
note_on channel=0 note=68 velocity=0 time=20
note_on channel=0 note=68 velocity=59 time=100
note_on channel=0 note=52 velocity=44 time=0
note_on channel=0 note=66 velocity=0 time=20
<meta message set_tempo tempo=412371 time=60>
note_on channel=0 note=68 velocity=0 time=40
note_on channel=0 note=71 velocity=54 time=0
<meta message set_tempo tempo=410959 time=40>
note_on channel=0 note=52 velocity=0 time=20
<meta message set_tempo tempo=409556 time=60>
note_on channel=0 note=72 velocity=54 time=0
note_on channel=0 note=71 velocity=0 time=20
<meta message set_tempo tempo=408163 time=60>
note_on channel=0 note=74 velocity=54 time=40
note_on channel=0 note=72 velocity=0 time=20
<meta message set_tempo tempo=406780 time=20>
<meta message set_tempo tempo=415225 time=80>
note_on channel=0 note=64 velocity=59 time=0
note_on channel=0 note=56 velocity=39 time=0
note_on channel=0 note=74 velocity=0 time=20
<meta message set_tempo tempo=418118 time=100>
note_on channel=0 note=64 velocity=0 time=0
note_on channel=0 note=74 velocity=55 time=0
note_on channel=0 note=56 velocity=0 time=60
note_on channel=0 note=72 velocity=55 time=60
note_on channel=0 note=74 velocity=0 time=20
note_on channel=0 note=71 velocity=55 time=100
note_on channel=0 note=72 velocity=0 time=20
note_on channel=0 note=72 velocity=61 time=100
note_on channel=0 note=45 velocity=46 time=0
note_on channel=0 note=71 velocity=0 time=20
<meta message set_tempo tempo=412371 time=100>
note_on channel=0 note=72 velocity=0 time=0
note_on channel=0 note=69 velocity=55 time=0
note_on channel=0 note=45 velocity=0 time=60
note_on channel=0 note=71 velocity=54 time=60
note_on channel=0 note=69 velocity=0 time=20
note_on channel=0 note=72 velocity=53 time=100
note_on channel=0 note=71 velocity=0 time=20
note_on channel=0 note=64 velocity=59 time=100
note_on channel=0 note=57 velocity=40 time=0
note_on channel=0 note=72 velocity=0 time=20
<meta message set_tempo tempo=410959 time=80>
note_on channel=0 note=64 velocity=0 time=20
note_on channel=0 note=67 velocity=52 time=0
note_on channel=0 note=57 velocity=0 time=60
<meta message set_tempo tempo=409556 time=40>
note_on channel=0 note=66 velocity=52 time=20
note_on channel=0 note=67 velocity=0 time=20
<meta message set_tempo tempo=408163 time=80>
note_on channel=0 note=64 velocity=51 time=20
note_on channel=0 note=66 velocity=0 time=20
<meta message set_tempo tempo=406780 time=80>
note_on channel=0 note=66 velocity=56 time=20
note_on channel=0 note=50 velocity=43 time=0
note_on channel=0 note=64 velocity=0 time=20
<meta message set_tempo tempo=408163 time=40>
<meta message set_tempo tempo=409556 time=60>
note_on channel=0 note=66 velocity=0 time=0
note_on channel=0 note=69 velocity=50 time=0
note_on channel=0 note=50 velocity=0 time=60
<meta message set_tempo tempo=410959 time=20>
note_on channel=0 note=71 velocity=50 time=40
<meta message set_tempo tempo=412371 time=20>
note_on channel=0 note=69 velocity=0 time=0
<meta message set_tempo tempo=413793 time=80>
note_on channel=0 note=72 velocity=49 time=20
note_on channel=0 note=71 velocity=0 time=20
<meta message set_tempo tempo=415225 time=20>
<meta message set_tempo tempo=416667 time=60>
note_on channel=0 note=62 velocity=54 time=20
note_on channel=0 note=54 velocity=36 time=0
note_on channel=0 note=72 velocity=0 time=20
note_on channel=0 note=62 velocity=0 time=100
note_on channel=0 note=72 velocity=48 time=0
note_on channel=0 note=54 velocity=0 time=60
note_on channel=0 note=71 velocity=47 time=60
note_on channel=0 note=72 velocity=0 time=20
note_on channel=0 note=69 velocity=47 time=100
note_on channel=0 note=71 velocity=0 time=20
note_on channel=0 note=71 velocity=51 time=100
note_on channel=0 note=43 velocity=39 time=0
note_on channel=0 note=69 velocity=0 time=20
<meta message set_tempo tempo=410959 time=100>
note_on channel=0 note=71 velocity=0 time=0
note_on channel=0 note=67 velocity=46 time=0
note_on channel=0 note=43 velocity=0 time=60
note_on channel=0 note=69 velocity=46 time=60
note_on channel=0 note=67 velocity=0 time=20
note_on channel=0 note=71 velocity=46 time=100
note_on channel=0 note=69 velocity=0 time=20
<meta message set_tempo tempo=421053 time=100>
note_on channel=0 note=62 velocity=51 time=0
note_on channel=0 note=55 velocity=34 time=0
note_on channel=0 note=71 velocity=0 time=20
<meta message set_tempo tempo=425532 time=100>
note_on channel=0 note=62 velocity=0 time=0
note_on channel=0 note=71 velocity=46 time=0
note_on channel=0 note=55 velocity=0 time=60
note_on channel=0 note=69 velocity=46 time=60
note_on channel=0 note=71 velocity=0 time=20
note_on channel=0 note=67 velocity=46 time=100
<meta message set_tempo tempo=418118 time=20>
note_on channel=0 note=69 velocity=0 time=0
<meta message set_tempo tempo=419580 time=60>
note_on channel=0 note=74 velocity=51 time=40
note_on channel=0 note=47 velocity=39 time=0
note_on channel=0 note=67 velocity=0 time=20
<meta message set_tempo tempo=413793 time=100>
note_on channel=0 note=74 velocity=0 time=0
note_on channel=0 note=67 velocity=46 time=0
note_on channel=0 note=47 velocity=0 time=60
<meta message set_tempo tempo=413793 time=20>
note_on channel=0 note=69 velocity=46 time=40
note_on channel=0 note=67 velocity=0 time=20
<meta message set_tempo tempo=415225 time=80>
note_on channel=0 note=71 velocity=46 time=20
note_on channel=0 note=69 velocity=0 time=20
<meta message set_tempo tempo=416667 time=80>
note_on channel=0 note=62 velocity=51 time=20
note_on channel=0 note=55 velocity=35 time=0
note_on channel=0 note=71 velocity=0 time=20
<meta message set_tempo tempo=418118 time=80>
<meta message set_tempo tempo=422535 time=20>
note_on channel=0 note=62 velocity=0 time=0
note_on channel=0 note=71 velocity=46 time=0
note_on channel=0 note=55 velocity=0 time=60
note_on channel=0 note=69 velocity=46 time=60
note_on channel=0 note=71 velocity=0 time=20
note_on channel=0 note=67 velocity=46 time=100
note_on channel=0 note=69 velocity=0 time=20
note_on channel=0 note=72 velocity=51 time=100
note_on channel=0 note=45 velocity=39 time=0
note_on channel=0 note=67 velocity=0 time=20
<meta message set_tempo tempo=421053 time=20>
<meta message set_tempo tempo=416667 time=80>
note_on channel=0 note=72 velocity=0 time=0
note_on channel=0 note=69 velocity=48 time=0
note_on channel=0 note=45 velocity=0 time=60
note_on channel=0 note=71 velocity=48 time=60
note_on channel=0 note=69 velocity=0 time=20
note_on channel=0 note=72 velocity=48 time=100
note_on channel=0 note=71 velocity=0 time=20
note_on channel=0 note=64 velocity=51 time=100
note_on channel=0 note=55 velocity=34 time=0
note_on channel=0 note=72 velocity=0 time=20
note_on channel=0 note=64 velocity=0 time=100
note_on channel=0 note=67 velocity=48 time=0
note_on channel=0 note=55 velocity=0 time=60
note_on channel=0 note=66 velocity=48 time=60
note_on channel=0 note=67 velocity=0 time=20
note_on channel=0 note=64 velocity=48 time=100
note_on channel=0 note=66 velocity=0 time=20
note_on channel=0 note=66 velocity=51 time=100
note_on channel=0 note=50 velocity=39 time=0
note_on channel=0 note=64 velocity=0 time=20
<meta message set_tempo tempo=412371 time=100>
note_on channel=0 note=66 velocity=0 time=0
note_on channel=0 note=69 velocity=48 time=0
note_on channel=0 note=50 velocity=0 time=60
note_on channel=0 note=71 velocity=48 time=60
note_on channel=0 note=69 velocity=0 time=20
note_on channel=0 note=72 velocity=48 time=100
note_on channel=0 note=71 velocity=0 time=20
note_on channel=0 note=62 velocity=51 time=100
note_on channel=0 note=54 velocity=34 time=0
note_on channel=0 note=72 velocity=0 time=20
<meta message set_tempo tempo=419580 time=100>
note_on channel=0 note=62 velocity=0 time=0
note_on channel=0 note=72 velocity=48 time=0
note_on channel=0 note=54 velocity=0 time=60
note_on channel=0 note=71 velocity=48 time=60
note_on channel=0 note=72 velocity=0 time=20
note_on channel=0 note=69 velocity=48 time=100
note_on channel=0 note=71 velocity=0 time=20
note_on channel=0 note=71 velocity=51 time=100
note_on channel=0 note=43 velocity=39 time=0
note_on channel=0 note=69 velocity=0 time=20
<meta message set_tempo tempo=415225 time=100>
note_on channel=0 note=71 velocity=0 time=0
note_on channel=0 note=67 velocity=48 time=0
note_on channel=0 note=43 velocity=0 time=60
note_on channel=0 note=69 velocity=48 time=60
note_on channel=0 note=67 velocity=0 time=20
note_on channel=0 note=71 velocity=48 time=100
note_on channel=0 note=69 velocity=0 time=20
note_on channel=0 note=62 velocity=51 time=100
note_on channel=0 note=55 velocity=34 time=0
note_on channel=0 note=71 velocity=0 time=20
note_on channel=0 note=62 velocity=0 time=100
note_on channel=0 note=66 velocity=48 time=0
note_on channel=0 note=55 velocity=0 time=60
note_on channel=0 note=64 velocity=48 time=60
note_on channel=0 note=66 velocity=0 time=20
note_on channel=0 note=62 velocity=48 time=100
note_on channel=0 note=64 velocity=0 time=20
<meta message set_tempo tempo=413793 time=100>
note_on channel=0 note=64 velocity=51 time=0
note_on channel=0 note=43 velocity=39 time=0
note_on channel=0 note=62 velocity=0 time=20
note_on channel=0 note=64 velocity=0 time=100
note_on channel=0 note=67 velocity=48 time=0
<meta message set_tempo tempo=412371 time=60>
note_on channel=0 note=43 velocity=0 time=0
note_on channel=0 note=69 velocity=48 time=60
note_on channel=0 note=67 velocity=0 time=20
<meta message set_tempo tempo=410959 time=80>
note_on channel=0 note=71 velocity=48 time=20
note_on channel=0 note=69 velocity=0 time=20
note_on channel=0 note=64 velocity=51 time=100
note_on channel=0 note=55 velocity=34 time=0
<meta message set_tempo tempo=409556 time=20>
note_on channel=0 note=71 velocity=0 time=0
<meta message set_tempo tempo=409556 time=100>
note_on channel=0 note=64 velocity=0 time=0
note_on channel=0 note=74 velocity=48 time=0
note_on channel=0 note=55 velocity=0 time=60
note_on channel=0 note=73 velocity=48 time=60
note_on channel=0 note=74 velocity=0 time=20
note_on channel=0 note=71 velocity=48 time=100
note_on channel=0 note=73 velocity=0 time=20
note_on channel=0 note=73 velocity=51 time=100
note_on channel=0 note=43 velocity=39 time=0
note_on channel=0 note=71 velocity=0 time=20
note_on channel=0 note=73 velocity=0 time=100
note_on channel=0 note=69 velocity=48 time=0
note_on channel=0 note=43 velocity=0 time=60
note_on channel=0 note=71 velocity=48 time=60
note_on channel=0 note=69 velocity=0 time=20
note_on channel=0 note=73 velocity=48 time=100
note_on channel=0 note=71 velocity=0 time=20
note_on channel=0 note=64 velocity=51 time=100
note_on channel=0 note=49 velocity=34 time=0
note_on channel=0 note=73 velocity=0 time=20
note_on channel=0 note=64 velocity=0 time=100
note_on channel=0 note=67 velocity=49 time=0
note_on channel=0 note=49 velocity=0 time=60
note_on channel=0 note=66 velocity=49 time=60
note_on channel=0 note=67 velocity=0 time=20
note_on channel=0 note=64 velocity=49 time=100
note_on channel=0 note=66 velocity=0 time=20
<meta message set_tempo tempo=408163 time=100>
note_on channel=0 note=62 velocity=52 time=0
note_on channel=0 note=42 velocity=39 time=0
note_on channel=0 note=64 velocity=0 time=20
note_on channel=0 note=62 velocity=0 time=100
note_on channel=0 note=66 velocity=49 time=0
<meta message set_tempo tempo=409556 time=40>
note_on channel=0 note=42 velocity=0 time=20
note_on channel=0 note=67 velocity=49 time=60
note_on channel=0 note=66 velocity=0 time=20
<meta message set_tempo tempo=410959 time=60>
note_on channel=0 note=69 velocity=49 time=40
note_on channel=0 note=67 velocity=0 time=20
<meta message set_tempo tempo=412371 time=100>
note_on channel=0 note=59 velocity=53 time=0
note_on channel=0 note=50 velocity=34 time=0
note_on channel=0 note=69 velocity=0 time=20
<meta message set_tempo tempo=419580 time=100>
note_on channel=0 note=59 velocity=0 time=0
note_on channel=0 note=69 velocity=49 time=0
note_on channel=0 note=50 velocity=0 time=60
note_on channel=0 note=67 velocity=49 time=60
note_on channel=0 note=69 velocity=0 time=20
note_on channel=0 note=66 velocity=49 time=100
note_on channel=0 note=67 velocity=0 time=20
note_on channel=0 note=67 velocity=53 time=100
note_on channel=0 note=40 velocity=40 time=0
note_on channel=0 note=66 velocity=0 time=20
note_on channel=0 note=67 velocity=0 time=100
note_on channel=0 note=64 velocity=49 time=0
note_on channel=0 note=40 velocity=0 time=60
note_on channel=0 note=66 velocity=49 time=60
note_on channel=0 note=64 velocity=0 time=20
note_on channel=0 note=67 velocity=49 time=100
note_on channel=0 note=66 velocity=0 time=20
note_on channel=0 note=59 velocity=54 time=100
note_on channel=0 note=50 velocity=35 time=0
note_on channel=0 note=67 velocity=0 time=20
<meta message set_tempo tempo=415225 time=100>
note_on channel=0 note=59 velocity=0 time=0
note_on channel=0 note=62 velocity=49 time=0
note_on channel=0 note=50 velocity=0 time=60
note_on channel=0 note=61 velocity=50 time=60
note_on channel=0 note=62 velocity=0 time=20
note_on channel=0 note=59 velocity=50 time=100
note_on channel=0 note=61 velocity=0 time=20
note_on channel=0 note=61 velocity=54 time=100
note_on channel=0 note=45 velocity=42 time=0
note_on channel=0 note=59 velocity=0 time=20
note_on channel=0 note=61 velocity=0 time=100
note_on channel=0 note=64 velocity=50 time=0
note_on channel=0 note=45 velocity=0 time=60
note_on channel=0 note=66 velocity=50 time=60
note_on channel=0 note=64 velocity=0 time=20
note_on channel=0 note=67 velocity=50 time=100
note_on channel=0 note=66 velocity=0 time=20
note_on channel=0 note=57 velocity=55 time=100
note_on channel=0 note=49 velocity=36 time=0
note_on channel=0 note=67 velocity=0 time=20
<meta message set_tempo tempo=419580 time=100>
note_on channel=0 note=57 velocity=0 time=0
note_on channel=0 note=67 velocity=50 time=0
note_on channel=0 note=49 velocity=0 time=60
note_on channel=0 note=66 velocity=51 time=60
note_on channel=0 note=67 velocity=0 time=20
note_on channel=0 note=64 velocity=51 time=100
note_on channel=0 note=66 velocity=0 time=20
note_on channel=0 note=66 velocity=55 time=100
note_on channel=0 note=38 velocity=43 time=0
note_on channel=0 note=64 velocity=0 time=20
<meta message set_tempo tempo=415225 time=100>
note_on channel=0 note=66 velocity=0 time=0
note_on channel=0 note=62 velocity=51 time=0
note_on channel=0 note=38 velocity=0 time=60
note_on channel=0 note=64 velocity=51 time=60
note_on channel=0 note=62 velocity=0 time=20
note_on channel=0 note=66 velocity=52 time=100
note_on channel=0 note=64 velocity=0 time=20
<meta message set_tempo tempo=413793 time=100>
note_on channel=0 note=57 velocity=56 time=0
note_on channel=0 note=50 velocity=38 time=0
note_on channel=0 note=66 velocity=0 time=20
note_on channel=0 note=57 velocity=0 time=100
note_on channel=0 note=66 velocity=52 time=0
<meta message set_tempo tempo=412371 time=60>
note_on channel=0 note=50 velocity=0 time=0
note_on channel=0 note=64 velocity=52 time=60
note_on channel=0 note=66 velocity=0 time=20
<meta message set_tempo tempo=410959 time=100>
note_on channel=0 note=62 velocity=52 time=0
note_on channel=0 note=64 velocity=0 time=20
note_on channel=0 note=69 velocity=57 time=100
note_on channel=0 note=42 velocity=44 time=0
note_on channel=0 note=62 velocity=0 time=20
<meta message set_tempo tempo=409556 time=20>
<meta message set_tempo tempo=409556 time=80>
note_on channel=0 note=69 velocity=0 time=0
note_on channel=0 note=66 velocity=52 time=0
note_on channel=0 note=42 velocity=0 time=60
note_on channel=0 note=67 velocity=52 time=60
note_on channel=0 note=66 velocity=0 time=20
note_on channel=0 note=69 velocity=53 time=100
note_on channel=0 note=67 velocity=0 time=20
note_on channel=0 note=62 velocity=57 time=100
note_on channel=0 note=57 velocity=39 time=0
note_on channel=0 note=69 velocity=0 time=20
<meta message set_tempo tempo=419580 time=100>
note_on channel=0 note=62 velocity=0 time=0
note_on channel=0 note=72 velocity=53 time=0
note_on channel=0 note=57 velocity=0 time=60
note_on channel=0 note=71 velocity=53 time=60
note_on channel=0 note=72 velocity=0 time=20
note_on channel=0 note=69 velocity=53 time=100
note_on channel=0 note=71 velocity=0 time=20
note_on channel=0 note=71 velocity=58 time=100
note_on channel=0 note=43 velocity=45 time=0
note_on channel=0 note=69 velocity=0 time=20
<meta message set_tempo tempo=413793 time=100>
note_on channel=0 note=71 velocity=0 time=0
note_on channel=0 note=67 velocity=53 time=0
note_on channel=0 note=43 velocity=0 time=60
note_on channel=0 note=69 velocity=53 time=60
note_on channel=0 note=67 velocity=0 time=20
note_on channel=0 note=71 velocity=53 time=100
note_on channel=0 note=69 velocity=0 time=20
note_on channel=0 note=62 velocity=58 time=100
note_on channel=0 note=55 velocity=40 time=0
note_on channel=0 note=71 velocity=0 time=20
<meta message set_tempo tempo=410959 time=100>
note_on channel=0 note=62 velocity=0 time=0
note_on channel=0 note=71 velocity=54 time=0
note_on channel=0 note=55 velocity=0 time=60
note_on channel=0 note=69 velocity=54 time=60
note_on channel=0 note=71 velocity=0 time=20
note_on channel=0 note=67 velocity=54 time=100
note_on channel=0 note=69 velocity=0 time=20
note_on channel=0 note=74 velocity=59 time=100
note_on channel=0 note=47 velocity=46 time=0
note_on channel=0 note=67 velocity=0 time=20
note_on channel=0 note=74 velocity=0 time=100
note_on channel=0 note=71 velocity=54 time=0
note_on channel=0 note=47 velocity=0 time=60
note_on channel=0 note=73 velocity=54 time=60
note_on channel=0 note=71 velocity=0 time=20
note_on channel=0 note=74 velocity=54 time=100
note_on channel=0 note=73 velocity=0 time=20
<meta message set_tempo tempo=408163 time=100>
note_on channel=0 note=68 velocity=60 time=0
note_on channel=0 note=62 velocity=41 time=0
note_on channel=0 note=74 velocity=0 time=20
<meta message set_tempo tempo=418118 time=100>
note_on channel=0 note=68 velocity=0 time=0
note_on channel=0 note=77 velocity=55 time=0
note_on channel=0 note=62 velocity=0 time=60
note_on channel=0 note=76 velocity=55 time=60
note_on channel=0 note=77 velocity=0 time=20
note_on channel=0 note=74 velocity=55 time=100
note_on channel=0 note=76 velocity=0 time=20
note_on channel=0 note=73 velocity=60 time=100
note_on channel=0 note=45 velocity=47 time=0
note_on channel=0 note=74 velocity=0 time=20
note_on channel=0 note=73 velocity=0 time=100
note_on channel=0 note=69 velocity=56 time=0
note_on channel=0 note=71 velocity=56 time=120
note_on channel=0 note=69 velocity=0 time=20
note_on channel=0 note=73 velocity=56 time=100
note_on channel=0 note=71 velocity=0 time=20
note_on channel=0 note=64 velocity=60 time=100
note_on channel=0 note=55 velocity=41 time=0
note_on channel=0 note=73 velocity=0 time=20
<meta message set_tempo tempo=413793 time=100>
note_on channel=0 note=64 velocity=0 time=0
note_on channel=0 note=67 velocity=56 time=0
note_on channel=0 note=55 velocity=0 time=60
note_on channel=0 note=66 velocity=56 time=60
note_on channel=0 note=67 velocity=0 time=20
note_on channel=0 note=64 velocity=56 time=100
note_on channel=0 note=66 velocity=0 time=20
note_on channel=0 note=69 velocity=60 time=100
note_on channel=0 note=54 velocity=47 time=0
note_on channel=0 note=64 velocity=0 time=20
<meta message set_tempo tempo=421053 time=100>
note_on channel=0 note=69 velocity=0 time=0
note_on channel=0 note=74 velocity=56 time=0
note_on channel=0 note=54 velocity=0 time=60
note_on channel=0 note=76 velocity=56 time=60
note_on channel=0 note=74 velocity=0 time=20
note_on channel=0 note=78 velocity=56 time=100
note_on channel=0 note=76 velocity=0 time=20
note_on channel=0 note=71 velocity=61 time=100
note_on channel=0 note=50 velocity=41 time=0
note_on channel=0 note=78 velocity=0 time=20
<meta message set_tempo tempo=412371 time=100>
note_on channel=0 note=71 velocity=0 time=0
note_on channel=0 note=81 velocity=56 time=0
note_on channel=0 note=50 velocity=0 time=60
note_on channel=0 note=79 velocity=56 time=60
note_on channel=0 note=81 velocity=0 time=20
note_on channel=0 note=78 velocity=56 time=100
note_on channel=0 note=79 velocity=0 time=20
note_on channel=0 note=79 velocity=61 time=100
note_on channel=0 note=52 velocity=47 time=0
note_on channel=0 note=78 velocity=0 time=20
<meta message set_tempo tempo=422535 time=100>
note_on channel=0 note=79 velocity=0 time=0
note_on channel=0 note=73 velocity=56 time=0
note_on channel=0 note=52 velocity=0 time=60
note_on channel=0 note=74 velocity=56 time=60
note_on channel=0 note=73 velocity=0 time=20
note_on channel=0 note=76 velocity=56 time=100
note_on channel=0 note=74 velocity=0 time=20
note_on channel=0 note=69 velocity=61 time=100
note_on channel=0 note=49 velocity=41 time=0
note_on channel=0 note=76 velocity=0 time=20
<meta message set_tempo tempo=410959 time=100>
note_on channel=0 note=69 velocity=0 time=0
note_on channel=0 note=79 velocity=56 time=0
note_on channel=0 note=49 velocity=0 time=60
note_on channel=0 note=78 velocity=56 time=60
note_on channel=0 note=79 velocity=0 time=20
note_on channel=0 note=76 velocity=56 time=100
note_on channel=0 note=78 velocity=0 time=20
note_on channel=0 note=78 velocity=61 time=100
note_on channel=0 note=50 velocity=47 time=0
note_on channel=0 note=76 velocity=0 time=20
<meta message set_tempo tempo=418118 time=100>
note_on channel=0 note=78 velocity=0 time=0
note_on channel=0 note=71 velocity=56 time=0
note_on channel=0 note=50 velocity=0 time=60
note_on channel=0 note=73 velocity=56 time=60
note_on channel=0 note=71 velocity=0 time=20
note_on channel=0 note=74 velocity=56 time=100
note_on channel=0 note=73 velocity=0 time=20
note_on channel=0 note=68 velocity=61 time=100
note_on channel=0 note=47 velocity=41 time=0
note_on channel=0 note=74 velocity=0 time=20
<meta message set_tempo tempo=416667 time=100>
note_on channel=0 note=68 velocity=0 time=0
note_on channel=0 note=78 velocity=56 time=0
note_on channel=0 note=47 velocity=0 time=60
note_on channel=0 note=76 velocity=56 time=60
note_on channel=0 note=78 velocity=0 time=20
note_on channel=0 note=74 velocity=56 time=100
note_on channel=0 note=76 velocity=0 time=20
note_on channel=0 note=73 velocity=60 time=100
note_on channel=0 note=74 velocity=0 time=20
note_on channel=0 note=73 velocity=0 time=100
note_on channel=0 note=67 velocity=56 time=0
note_on channel=0 note=52 velocity=51 time=0
note_on channel=0 note=69 velocity=56 time=120
note_on channel=0 note=54 velocity=50 time=0
note_on channel=0 note=52 velocity=0 time=20
note_on channel=0 note=67 velocity=0 time=0
note_on channel=0 note=70 velocity=56 time=100
note_on channel=0 note=55 velocity=50 time=0
note_on channel=0 note=54 velocity=0 time=20
note_on channel=0 note=69 velocity=0 time=0
note_on channel=0 note=64 velocity=60 time=100
note_on channel=0 note=49 velocity=54 time=0
note_on channel=0 note=55 velocity=0 time=20
note_on channel=0 note=70 velocity=0 time=0
note_on channel=0 note=49 velocity=0 time=100
note_on channel=0 note=64 velocity=0 time=0
note_on channel=0 note=67 velocity=56 time=0
note_on channel=0 note=52 velocity=50 time=0
note_on channel=0 note=65 velocity=56 time=120
note_on channel=0 note=50 velocity=50 time=0
note_on channel=0 note=52 velocity=0 time=20
note_on channel=0 note=67 velocity=0 time=0
note_on channel=0 note=64 velocity=56 time=100
note_on channel=0 note=49 velocity=50 time=0
note_on channel=0 note=50 velocity=0 time=20
note_on channel=0 note=65 velocity=0 time=0
note_on channel=0 note=65 velocity=60 time=100
note_on channel=0 note=50 velocity=54 time=0
note_on channel=0 note=49 velocity=0 time=20
note_on channel=0 note=64 velocity=0 time=0
<meta message set_tempo tempo=419580 time=100>
note_on channel=0 note=50 velocity=0 time=0
note_on channel=0 note=65 velocity=0 time=0
note_on channel=0 note=74 velocity=56 time=0
note_on channel=0 note=53 velocity=51 time=0
note_on channel=0 note=76 velocity=62 time=120
note_on channel=0 note=55 velocity=53 time=0
note_on channel=0 note=53 velocity=0 time=20
note_on channel=0 note=74 velocity=0 time=0
note_on channel=0 note=77 velocity=58 time=100
note_on channel=0 note=57 velocity=53 time=0
note_on channel=0 note=55 velocity=0 time=20
note_on channel=0 note=76 velocity=0 time=0
note_on channel=0 note=73 velocity=60 time=100
note_on channel=0 note=52 velocity=54 time=0
note_on channel=0 note=57 velocity=0 time=20
note_on channel=0 note=77 velocity=0 time=0
<meta message set_tempo tempo=410959 time=100>
note_on channel=0 note=52 velocity=0 time=0
note_on channel=0 note=73 velocity=0 time=0
note_on channel=0 note=76 velocity=56 time=0
note_on channel=0 note=55 velocity=50 time=0
note_on channel=0 note=74 velocity=56 time=120
note_on channel=0 note=53 velocity=50 time=0
note_on channel=0 note=55 velocity=0 time=20
note_on channel=0 note=76 velocity=0 time=0
note_on channel=0 note=73 velocity=56 time=100
note_on channel=0 note=52 velocity=50 time=0
note_on channel=0 note=53 velocity=0 time=20
note_on channel=0 note=74 velocity=0 time=0
<meta message set_tempo tempo=419580 time=100>
note_on channel=0 note=45 velocity=0 time=0
note_on channel=0 note=74 velocity=60 time=0
note_on channel=0 note=53 velocity=55 time=0
note_on channel=0 note=52 velocity=0 time=20
note_on channel=0 note=73 velocity=0 time=0
<meta message set_tempo tempo=410959 time=100>
note_on channel=0 note=74 velocity=0 time=0
note_on channel=0 note=53 velocity=0 time=0
note_on channel=0 note=82 velocity=66 time=0
note_on channel=0 note=50 velocity=50 time=0
<meta message set_tempo tempo=410959 time=20>
note_on channel=0 note=81 velocity=65 time=100
note_on channel=0 note=52 velocity=50 time=0
<meta message set_tempo tempo=409556 time=20>
note_on channel=0 note=50 velocity=0 time=0
note_on channel=0 note=82 velocity=0 time=0
<meta message set_tempo tempo=410959 time=40>
<meta message set_tempo tempo=412371 time=40>
note_on channel=0 note=79 velocity=64 time=20
note_on channel=0 note=53 velocity=50 time=0
<meta message set_tempo tempo=413793 time=20>
note_on channel=0 note=81 velocity=0 time=0
note_on channel=0 note=52 velocity=0 time=0
<meta message set_tempo tempo=415225 time=40>
<meta message set_tempo tempo=416667 time=40>
note_on channel=0 note=77 velocity=62 time=20
note_on channel=0 note=45 velocity=51 time=0
<meta message set_tempo tempo=418118 time=20>
note_on channel=0 note=79 velocity=0 time=0
note_on channel=0 note=53 velocity=0 time=0
<meta message set_tempo tempo=419580 time=40>
<meta message set_tempo tempo=421053 time=40>
note_on channel=0 note=77 velocity=0 time=20
note_on channel=0 note=45 velocity=0 time=0
note_on channel=0 note=76 velocity=61 time=0
note_on channel=0 note=48 velocity=52 time=0
<meta message set_tempo tempo=422535 time=20>
<meta message set_tempo tempo=424028 time=40>
<meta message set_tempo tempo=425532 time=40>
note_on channel=0 note=74 velocity=60 time=20
note_on channel=0 note=46 velocity=54 time=0
<meta message set_tempo tempo=427046 time=20>
note_on channel=0 note=48 velocity=0 time=0
note_on channel=0 note=76 velocity=0 time=0
<meta message set_tempo tempo=428571 time=40>
<meta message set_tempo tempo=430108 time=40>
note_on channel=0 note=73 velocity=58 time=20
note_on channel=0 note=45 velocity=56 time=0
<meta message set_tempo tempo=431655 time=20>
note_on channel=0 note=74 velocity=0 time=0
note_on channel=0 note=46 velocity=0 time=0
<meta message set_tempo tempo=433213 time=40>
<meta message set_tempo tempo=434783 time=40>
<meta message set_tempo tempo=418118 time=20>
note_on channel=0 note=74 velocity=60 time=0
note_on channel=0 note=44 velocity=58 time=0
note_on channel=0 note=73 velocity=0 time=20
note_on channel=0 note=45 velocity=0 time=0
<meta message set_tempo tempo=413793 time=100>
note_on channel=0 note=74 velocity=0 time=0
note_on channel=0 note=77 velocity=62 time=0
note_on channel=0 note=76 velocity=61 time=120
note_on channel=0 note=77 velocity=0 time=20
note_on channel=0 note=74 velocity=60 time=100
note_on channel=0 note=76 velocity=0 time=20
note_on channel=0 note=83 velocity=65 time=100
note_on channel=0 note=74 velocity=0 time=20
<meta message set_tempo tempo=410959 time=100>
note_on channel=0 note=83 velocity=0 time=0
note_on channel=0 note=80 velocity=61 time=0
note_on channel=0 note=81 velocity=63 time=120
note_on channel=0 note=80 velocity=0 time=20
note_on channel=0 note=83 velocity=66 time=100
note_on channel=0 note=81 velocity=0 time=20
note_on channel=0 note=77 velocity=68 time=100
note_on channel=0 note=83 velocity=0 time=20
note_on channel=0 note=77 velocity=0 time=100
note_on channel=0 note=74 velocity=61 time=0
note_on channel=0 note=76 velocity=61 time=120
note_on channel=0 note=74 velocity=0 time=20
note_on channel=0 note=77 velocity=61 time=100
note_on channel=0 note=76 velocity=0 time=20
note_on channel=0 note=71 velocity=65 time=100
note_on channel=0 note=77 velocity=0 time=20
note_on channel=0 note=71 velocity=0 time=100
note_on channel=0 note=68 velocity=59 time=0
note_on channel=0 note=69 velocity=59 time=120
note_on channel=0 note=68 velocity=0 time=20
note_on channel=0 note=71 velocity=59 time=100
note_on channel=0 note=69 velocity=0 time=20
<meta message set_tempo tempo=409556 time=100>
note_on channel=0 note=64 velocity=61 time=0
note_on channel=0 note=71 velocity=0 time=20
<meta message set_tempo tempo=410959 time=80>
note_on channel=0 note=64 velocity=0 time=20
note_on channel=0 note=66 velocity=55 time=0
<meta message set_tempo tempo=412371 time=80>
note_on channel=0 note=68 velocity=57 time=40
note_on channel=0 note=66 velocity=0 time=20
<meta message set_tempo tempo=413793 time=40>
note_on channel=0 note=69 velocity=59 time=60
note_on channel=0 note=68 velocity=0 time=20
<meta message set_tempo tempo=415225 time=20>
<meta message set_tempo tempo=416667 time=80>
note_on channel=0 note=71 velocity=60 time=0
note_on channel=0 note=69 velocity=0 time=20
<meta message set_tempo tempo=418118 time=80>
note_on channel=0 note=73 velocity=62 time=20
note_on channel=0 note=71 velocity=0 time=20
<meta message set_tempo tempo=419580 time=60>
note_on channel=0 note=74 velocity=64 time=40
note_on channel=0 note=73 velocity=0 time=20
<meta message set_tempo tempo=421053 time=40>
note_on channel=0 note=76 velocity=65 time=60
note_on channel=0 note=74 velocity=0 time=20
<meta message set_tempo tempo=422535 time=20>
<meta message set_tempo tempo=436364 time=80>
note_on channel=0 note=44 velocity=0 time=0
note_on channel=0 note=77 velocity=71 time=0
note_on channel=0 note=45 velocity=60 time=0
note_on channel=0 note=76 velocity=0 time=20
note_on channel=0 note=73 velocity=57 time=100
note_on channel=0 note=73 velocity=0 time=120
note_on channel=0 note=74 velocity=57 time=0
note_on channel=0 note=57 velocity=50 time=0
note_on channel=0 note=74 velocity=0 time=120
note_on channel=0 note=69 velocity=57 time=0
<meta message set_tempo tempo=454545 time=120>
note_on channel=0 note=69 velocity=0 time=0
note_on channel=0 note=57 velocity=0 time=0
note_on channel=0 note=70 velocity=57 time=0
note_on channel=0 note=55 velocity=50 time=0
note_on channel=0 note=70 velocity=0 time=120
note_on channel=0 note=67 velocity=57 time=0
<meta message set_tempo tempo=456274 time=120>
note_on channel=0 note=67 velocity=0 time=0
note_on channel=0 note=55 velocity=0 time=0
note_on channel=0 note=77 velocity=0 time=0
note_on channel=0 note=76 velocity=71 time=0
note_on channel=0 note=49 velocity=50 time=0
<meta message set_tempo tempo=458015 time=80>
note_on channel=0 note=67 velocity=57 time=40
<meta message set_tempo tempo=459770 time=20>
<meta message set_tempo tempo=461538 time=60>
<meta message set_tempo tempo=461538 time=20>
note_on channel=0 note=67 velocity=0 time=20
note_on channel=0 note=49 velocity=0 time=0
note_on channel=0 note=69 velocity=57 time=0
note_on channel=0 note=53 velocity=55 time=0
<meta message set_tempo tempo=463320 time=20>
<meta message set_tempo tempo=465116 time=40>
<meta message set_tempo tempo=466926 time=40>
note_on channel=0 note=69 velocity=0 time=20
note_on channel=0 note=65 velocity=57 time=0
<meta message set_tempo tempo=468750 time=20>
<meta message set_tempo tempo=470588 time=40>
<meta message set_tempo tempo=472441 time=40>
note_on channel=0 note=65 velocity=0 time=20
note_on channel=0 note=53 velocity=0 time=0
note_on channel=0 note=76 velocity=0 time=0
note_on channel=0 note=74 velocity=71 time=0
note_on channel=0 note=50 velocity=50 time=0
<meta message set_tempo tempo=474308 time=20>
<meta message set_tempo tempo=476190 time=40>
<meta message set_tempo tempo=478088 time=40>
note_on channel=0 note=65 velocity=56 time=20
<meta message set_tempo tempo=480000 time=20>
<meta message set_tempo tempo=481928 time=40>
<meta message set_tempo tempo=483871 time=40>
note_on channel=0 note=65 velocity=0 time=20
note_on channel=0 note=50 velocity=0 time=0
note_on channel=0 note=67 velocity=57 time=0
note_on channel=0 note=52 velocity=53 time=0
<meta message set_tempo tempo=485830 time=20>
<meta message set_tempo tempo=487805 time=20>
<meta message set_tempo tempo=489796 time=20>
<meta message set_tempo tempo=491803 time=20>
<meta message set_tempo tempo=493827 time=20>
note_on channel=0 note=67 velocity=0 time=20
note_on channel=0 note=64 velocity=57 time=0
<meta message set_tempo tempo=495868 time=20>
<meta message set_tempo tempo=497925 time=20>
<meta message set_tempo tempo=500000 time=20>
<meta message set_tempo tempo=502092 time=20>
<meta message set_tempo tempo=504202 time=20>
<meta message set_tempo tempo=571429 time=20>
note_on channel=0 note=64 velocity=0 time=0
note_on channel=0 note=52 velocity=0 time=0
note_on channel=0 note=74 velocity=0 time=0
note_on channel=0 note=73 velocity=69 time=0
note_on channel=0 note=55 velocity=50 time=0
note_on channel=0 note=64 velocity=56 time=120
<meta message set_tempo tempo=524017 time=80>
<meta message set_tempo tempo=526316 time=20>
<meta message set_tempo tempo=833333 time=20>
note_on channel=0 note=64 velocity=0 time=0
note_on channel=0 note=45 velocity=0 time=0
note_on channel=0 note=73 velocity=0 time=0
note_on channel=0 note=55 velocity=0 time=0
note_on channel=0 note=45 velocity=44 time=0
note_on channel=0 note=50 velocity=45 time=30
note_on channel=0 note=53 velocity=48 time=30
note_on channel=0 note=56 velocity=49 time=30
note_on channel=0 note=59 velocity=52 time=30
note_on channel=0 note=62 velocity=52 time=30
note_on channel=0 note=65 velocity=57 time=30
note_on channel=0 note=68 velocity=60 time=30
note_on channel=0 note=71 velocity=64 time=30
note_on channel=0 note=74 velocity=68 time=30
<meta message set_tempo tempo=655738 time=210>
note_on channel=0 note=71 velocity=0 time=0
note_on channel=0 note=68 velocity=0 time=0
note_on channel=0 note=56 velocity=0 time=0
note_on channel=0 note=65 velocity=0 time=0
note_on channel=0 note=59 velocity=0 time=0
note_on channel=0 note=50 velocity=0 time=0
note_on channel=0 note=53 velocity=0 time=0
note_on channel=0 note=45 velocity=0 time=0
note_on channel=0 note=62 velocity=0 time=0
note_on channel=0 note=74 velocity=0 time=60
note_on channel=0 note=73 velocity=53 time=0
note_on channel=0 note=73 velocity=0 time=60
note_on channel=0 note=71 velocity=53 time=0
note_on channel=0 note=71 velocity=0 time=60
note_on channel=0 note=69 velocity=52 time=0
<meta message set_tempo tempo=652174 time=20>
note_on channel=0 note=69 velocity=0 time=40
note_on channel=0 note=68 velocity=52 time=0
<meta message set_tempo tempo=648649 time=60>
note_on channel=0 note=68 velocity=0 time=0
note_on channel=0 note=66 velocity=51 time=0
note_on channel=0 note=66 velocity=0 time=60
note_on channel=0 note=64 velocity=51 time=0
<meta message set_tempo tempo=645161 time=20>
note_on channel=0 note=64 velocity=0 time=40
note_on channel=0 note=66 velocity=50 time=0
<meta message set_tempo tempo=641711 time=40>
note_on channel=0 note=66 velocity=0 time=20
note_on channel=0 note=68 velocity=47 time=0
<meta message set_tempo tempo=638298 time=20>
<meta message set_tempo tempo=634921 time=40>
note_on channel=0 note=68 velocity=0 time=0
note_on channel=0 note=69 velocity=48 time=0
<meta message set_tempo tempo=631579 time=40>
note_on channel=0 note=69 velocity=0 time=20
note_on channel=0 note=71 velocity=49 time=0
<meta message set_tempo tempo=628272 time=20>
<meta message set_tempo tempo=625000 time=40>
note_on channel=0 note=71 velocity=0 time=0
note_on channel=0 note=73 velocity=50 time=0
<meta message set_tempo tempo=621762 time=40>
note_on channel=0 note=73 velocity=0 time=20
note_on channel=0 note=74 velocity=51 time=0
<meta message set_tempo tempo=618557 time=20>
<meta message set_tempo tempo=615385 time=40>
note_on channel=0 note=74 velocity=0 time=0
note_on channel=0 note=76 velocity=51 time=0
<meta message set_tempo tempo=612245 time=40>
note_on channel=0 note=76 velocity=0 time=20
note_on channel=0 note=77 velocity=52 time=0
<meta message set_tempo tempo=609137 time=20>
<meta message set_tempo tempo=606061 time=40>
note_on channel=0 note=77 velocity=0 time=0
note_on channel=0 note=76 velocity=53 time=0
<meta message set_tempo tempo=603015 time=40>
<meta message set_tempo tempo=600000 time=20>
note_on channel=0 note=76 velocity=0 time=0
note_on channel=0 note=74 velocity=54 time=0
note_on channel=0 note=74 velocity=0 time=60
note_on channel=0 note=73 velocity=53 time=0
note_on channel=0 note=73 velocity=0 time=60
note_on channel=0 note=71 velocity=52 time=0
note_on channel=0 note=71 velocity=0 time=60
note_on channel=0 note=69 velocity=52 time=0
note_on channel=0 note=69 velocity=0 time=60
note_on channel=0 note=68 velocity=51 time=0
note_on channel=0 note=68 velocity=0 time=60
note_on channel=0 note=66 velocity=51 time=0
note_on channel=0 note=66 velocity=0 time=60
note_on channel=0 note=64 velocity=50 time=0
note_on channel=0 note=64 velocity=0 time=60
note_on channel=0 note=62 velocity=49 time=0
<meta message set_tempo tempo=833333 time=60>
note_on channel=0 note=62 velocity=0 time=0
note_on channel=0 note=61 velocity=58 time=0
note_on channel=0 note=64 velocity=58 time=30
note_on channel=0 note=67 velocity=58 time=30
note_on channel=0 note=70 velocity=58 time=30
note_on channel=0 note=73 velocity=58 time=30
note_on channel=0 note=76 velocity=58 time=30
note_on channel=0 note=79 velocity=58 time=30
note_on channel=0 note=82 velocity=58 time=30
note_on channel=0 note=82 velocity=0 time=30
note_on channel=0 note=61 velocity=0 time=0
note_on channel=0 note=73 velocity=0 time=0
note_on channel=0 note=64 velocity=0 time=0
note_on channel=0 note=67 velocity=0 time=0
note_on channel=0 note=70 velocity=0 time=0
note_on channel=0 note=76 velocity=0 time=0
note_on channel=0 note=79 velocity=0 time=0
note_on channel=0 note=62 velocity=62 time=240
note_on channel=0 note=65 velocity=62 time=30
note_on channel=0 note=68 velocity=62 time=30
note_on channel=0 note=71 velocity=62 time=30
note_on channel=0 note=74 velocity=63 time=30
note_on channel=0 note=77 velocity=63 time=30
note_on channel=0 note=80 velocity=63 time=30
note_on channel=0 note=83 velocity=63 time=30
note_on channel=0 note=83 velocity=0 time=30
note_on channel=0 note=62 velocity=0 time=0
note_on channel=0 note=74 velocity=0 time=0
note_on channel=0 note=65 velocity=0 time=0
note_on channel=0 note=68 velocity=0 time=0
note_on channel=0 note=71 velocity=0 time=0
note_on channel=0 note=77 velocity=0 time=0
note_on channel=0 note=80 velocity=0 time=0
<meta message set_tempo tempo=754717 time=240>
note_on channel=0 note=69 velocity=58 time=0
note_on channel=0 note=64 velocity=58 time=0
note_on channel=0 note=74 velocity=69 time=0
note_on channel=0 note=45 velocity=57 time=0
note_on channel=0 note=52 velocity=68 time=0
note_on channel=0 note=57 velocity=68 time=0
<meta message set_tempo tempo=816327 time=480>
note_on channel=0 note=52 velocity=0 time=0
note_on channel=0 note=74 velocity=0 time=0
note_on channel=0 note=73 velocity=65 time=0
note_on channel=0 note=55 velocity=63 time=0
note_on channel=0 note=55 velocity=0 time=480
note_on channel=0 note=57 velocity=0 time=0
note_on channel=0 note=64 velocity=0 time=0
note_on channel=0 note=69 velocity=0 time=0
note_on channel=0 note=73 velocity=0 time=0
note_on channel=0 note=45 velocity=0 time=0
note_on channel=0 note=74 velocity=71 time=0
note_on channel=0 note=69 velocity=60 time=0
note_on channel=0 note=66 velocity=60 time=0
note_on channel=0 note=50 velocity=57 time=0
note_on channel=0 note=57 velocity=68 time=0
note_on channel=0 note=54 velocity=57 time=0
<meta message set_tempo tempo=2000000 time=1440>
note_on channel=0 note=54 velocity=0 time=0
note_on channel=0 note=69 velocity=0 time=0
note_on channel=0 note=66 velocity=0 time=0
note_on channel=0 note=74 velocity=0 time=0
note_on channel=0 note=57 velocity=0 time=0
note_on channel=0 note=50 velocity=0 time=0
<meta message set_tempo tempo=1000000 time=480>
<meta message marker text='Fuga' time=0>
control_change channel=0 control=91 value=127 time=0
control_change channel=0 control=91 value=127 time=0
control_change channel=0 control=91 value=127 time=0
control_change channel=0 control=91 value=127 time=0
note_on channel=0 note=50 velocity=66 time=480
note_on channel=0 note=50 velocity=0 time=60
note_on channel=0 note=52 velocity=66 time=0
note_on channel=0 note=52 velocity=0 time=60
note_on channel=0 note=54 velocity=66 time=0
note_on channel=0 note=54 velocity=0 time=60
note_on channel=0 note=55 velocity=66 time=0
note_on channel=0 note=55 velocity=0 time=60
note_on channel=0 note=54 velocity=66 time=0
note_on channel=0 note=54 velocity=0 time=60
note_on channel=0 note=52 velocity=66 time=0
note_on channel=0 note=52 velocity=0 time=60
note_on channel=0 note=54 velocity=66 time=0
note_on channel=0 note=54 velocity=0 time=60
note_on channel=0 note=50 velocity=66 time=0
note_on channel=0 note=50 velocity=0 time=60
note_on channel=0 note=59 velocity=71 time=0
note_on channel=0 note=59 velocity=0 time=360
note_on channel=0 note=59 velocity=67 time=0
note_on channel=0 note=59 velocity=0 time=120
note_on channel=0 note=57 velocity=72 time=0
note_on channel=0 note=57 velocity=0 time=360
note_on channel=0 note=55 velocity=66 time=0
note_on channel=0 note=55 velocity=0 time=120
note_on channel=0 note=54 velocity=67 time=0
note_on channel=0 note=54 velocity=0 time=360
note_on channel=0 note=55 velocity=61 time=0
note_on channel=0 note=55 velocity=0 time=120
note_on channel=0 note=57 velocity=66 time=0
note_on channel=0 note=54 velocity=60 time=0
note_on channel=0 note=57 velocity=0 time=60
note_on channel=0 note=59 velocity=66 time=0
note_on channel=0 note=59 velocity=0 time=60
note_on channel=0 note=61 velocity=66 time=0
note_on channel=0 note=61 velocity=0 time=60
note_on channel=0 note=62 velocity=66 time=0
note_on channel=0 note=62 velocity=0 time=60
note_on channel=0 note=61 velocity=66 time=0
note_on channel=0 note=61 velocity=0 time=60
note_on channel=0 note=59 velocity=66 time=0
note_on channel=0 note=59 velocity=0 time=60
note_on channel=0 note=54 velocity=0 time=0
note_on channel=0 note=61 velocity=66 time=0
note_on channel=0 note=52 velocity=57 time=0
note_on channel=0 note=61 velocity=0 time=60
note_on channel=0 note=57 velocity=66 time=0
note_on channel=0 note=57 velocity=0 time=60
note_on channel=0 note=52 velocity=0 time=0
note_on channel=0 note=66 velocity=71 time=0
note_on channel=0 note=50 velocity=60 time=0
note_on channel=0 note=66 velocity=0 time=360
note_on channel=0 note=66 velocity=66 time=0
note_on channel=0 note=66 velocity=0 time=120
note_on channel=0 note=50 velocity=0 time=0
note_on channel=0 note=64 velocity=71 time=0
note_on channel=0 note=52 velocity=56 time=0
note_on channel=0 note=64 velocity=0 time=360
note_on channel=0 note=62 velocity=66 time=0
note_on channel=0 note=62 velocity=0 time=120
note_on channel=0 note=52 velocity=0 time=0
note_on channel=0 note=61 velocity=73 time=0
note_on channel=0 note=45 velocity=62 time=0
note_on channel=0 note=45 velocity=0 time=360
note_on channel=0 note=52 velocity=56 time=0
note_on channel=0 note=52 velocity=0 time=40
note_on channel=0 note=54 velocity=56 time=0
note_on channel=0 note=54 velocity=0 time=40
note_on channel=0 note=55 velocity=56 time=0
note_on channel=0 note=55 velocity=0 time=40
note_on channel=0 note=61 velocity=0 time=0
note_on channel=0 note=66 velocity=72 time=0
note_on channel=0 note=57 velocity=63 time=0
note_on channel=0 note=66 velocity=0 time=360
note_on channel=0 note=66 velocity=68 time=0
note_on channel=0 note=66 velocity=0 time=120
note_on channel=0 note=59 velocity=73 time=0
note_on channel=0 note=59 velocity=0 time=360
note_on channel=0 note=59 velocity=67 time=0
note_on channel=0 note=59 velocity=0 time=40
note_on channel=0 note=61 velocity=67 time=0
note_on channel=0 note=61 velocity=0 time=40
note_on channel=0 note=62 velocity=67 time=0
note_on channel=0 note=62 velocity=0 time=40
note_on channel=0 note=57 velocity=0 time=0
note_on channel=0 note=64 velocity=71 time=0
note_on channel=0 note=55 velocity=56 time=0
note_on channel=0 note=64 velocity=0 time=120
note_on channel=0 note=62 velocity=67 time=0
note_on channel=0 note=62 velocity=0 time=120
note_on channel=0 note=64 velocity=72 time=0
note_on channel=0 note=64 velocity=0 time=120
note_on channel=0 note=61 velocity=67 time=0
note_on channel=0 note=61 velocity=0 time=120
note_on channel=0 note=57 velocity=73 time=0
note_on channel=0 note=55 velocity=0 time=360
note_on channel=0 note=54 velocity=54 time=0
note_on channel=0 note=54 velocity=0 time=60
note_on channel=0 note=52 velocity=54 time=0
note_on channel=0 note=52 velocity=0 time=60
note_on channel=0 note=57 velocity=0 time=0
note_on channel=0 note=62 velocity=68 time=0
note_on channel=0 note=62 velocity=67 time=0
note_on channel=0 note=54 velocity=59 time=0
note_on channel=0 note=62 velocity=0 time=60
note_on channel=0 note=64 velocity=68 time=0
note_on channel=0 note=64 velocity=0 time=60
note_on channel=0 note=66 velocity=68 time=0
note_on channel=0 note=66 velocity=0 time=60
note_on channel=0 note=67 velocity=68 time=0
note_on channel=0 note=67 velocity=0 time=60
note_on channel=0 note=66 velocity=68 time=0
note_on channel=0 note=66 velocity=0 time=60
note_on channel=0 note=64 velocity=68 time=0
note_on channel=0 note=64 velocity=0 time=60
note_on channel=0 note=54 velocity=0 time=0
note_on channel=0 note=66 velocity=68 time=0
note_on channel=0 note=54 velocity=56 time=0
note_on channel=0 note=66 velocity=0 time=60
note_on channel=0 note=62 velocity=68 time=0
note_on channel=0 note=62 velocity=0 time=60
note_on channel=0 note=54 velocity=0 time=0
note_on channel=0 note=71 velocity=73 time=0
note_on channel=0 note=55 velocity=60 time=0
note_on channel=0 note=55 velocity=0 time=360
note_on channel=0 note=71 velocity=0 time=0
note_on channel=0 note=71 velocity=68 time=0
note_on channel=0 note=52 velocity=56 time=0
note_on channel=0 note=52 velocity=0 time=120
note_on channel=0 note=71 velocity=0 time=0
note_on channel=0 note=62 velocity=0 time=0
note_on channel=0 note=69 velocity=72 time=0
note_on channel=0 note=61 velocity=58 time=0
note_on channel=0 note=57 velocity=60 time=0
note_on channel=0 note=57 velocity=0 time=360
note_on channel=0 note=69 velocity=0 time=0
note_on channel=0 note=67 velocity=69 time=0
note_on channel=0 note=45 velocity=56 time=0
note_on channel=0 note=45 velocity=0 time=120
note_on channel=0 note=67 velocity=0 time=0
note_on channel=0 note=61 velocity=0 time=0
note_on channel=0 note=66 velocity=73 time=0
note_on channel=0 note=62 velocity=63 time=0
note_on channel=0 note=50 velocity=60 time=0
note_on channel=0 note=50 velocity=0 time=360
note_on channel=0 note=66 velocity=0 time=0
note_on channel=0 note=68 velocity=68 time=0
note_on channel=0 note=52 velocity=56 time=0
note_on channel=0 note=52 velocity=0 time=120
note_on channel=0 note=68 velocity=0 time=0
note_on channel=0 note=62 velocity=0 time=0
note_on channel=0 note=69 velocity=71 time=0
note_on channel=0 note=69 velocity=73 time=0
note_on channel=0 note=61 velocity=63 time=0
note_on channel=0 note=54 velocity=60 time=0
note_on channel=0 note=69 velocity=0 time=60
note_on channel=0 note=71 velocity=71 time=0
note_on channel=0 note=71 velocity=0 time=60
note_on channel=0 note=73 velocity=71 time=0
note_on channel=0 note=73 velocity=0 time=60
note_on channel=0 note=74 velocity=71 time=0
note_on channel=0 note=74 velocity=0 time=60
note_on channel=0 note=73 velocity=71 time=0
note_on channel=0 note=73 velocity=0 time=60
note_on channel=0 note=71 velocity=71 time=0
note_on channel=0 note=71 velocity=0 time=60
note_on channel=0 note=54 velocity=0 time=0
note_on channel=0 note=73 velocity=71 time=0
note_on channel=0 note=52 velocity=56 time=0
note_on channel=0 note=73 velocity=0 time=60
note_on channel=0 note=69 velocity=71 time=0
note_on channel=0 note=69 velocity=0 time=60
note_on channel=0 note=52 velocity=0 time=0
note_on channel=0 note=61 velocity=0 time=0
note_on channel=0 note=78 velocity=75 time=0
note_on channel=0 note=59 velocity=63 time=0
note_on channel=0 note=54 velocity=60 time=0
note_on channel=0 note=54 velocity=0 time=360
note_on channel=0 note=78 velocity=0 time=0
note_on channel=0 note=78 velocity=71 time=0
note_on channel=0 note=50 velocity=56 time=0
note_on channel=0 note=50 velocity=0 time=120
note_on channel=0 note=78 velocity=0 time=0
note_on channel=0 note=69 velocity=0 time=0
note_on channel=0 note=76 velocity=76 time=0
note_on channel=0 note=68 velocity=67 time=0
note_on channel=0 note=52 velocity=62 time=0
note_on channel=0 note=76 velocity=0 time=360
note_on channel=0 note=74 velocity=71 time=0
note_on channel=0 note=74 velocity=0 time=120
note_on channel=0 note=52 velocity=0 time=0
note_on channel=0 note=68 velocity=0 time=0
note_on channel=0 note=59 velocity=0 time=0
note_on channel=0 note=73 velocity=75 time=0
note_on channel=0 note=69 velocity=72 time=0
note_on channel=0 note=57 velocity=63 time=0
note_on channel=0 note=45 velocity=63 time=0
note_on channel=0 note=73 velocity=0 time=360
note_on channel=0 note=76 velocity=69 time=0
note_on channel=0 note=76 velocity=0 time=40
note_on channel=0 note=78 velocity=69 time=0
note_on channel=0 note=78 velocity=0 time=40
note_on channel=0 note=79 velocity=69 time=0
note_on channel=0 note=79 velocity=0 time=40
note_on channel=0 note=45 velocity=0 time=0
note_on channel=0 note=57 velocity=0 time=0
note_on channel=0 note=69 velocity=0 time=0
note_on channel=0 note=81 velocity=76 time=0
note_on channel=0 note=73 velocity=65 time=0
note_on channel=0 note=66 velocity=71 time=0
note_on channel=0 note=66 velocity=0 time=60
note_on channel=0 note=67 velocity=71 time=0
note_on channel=0 note=67 velocity=0 time=60
note_on channel=0 note=69 velocity=71 time=0
note_on channel=0 note=69 velocity=0 time=60
note_on channel=0 note=71 velocity=71 time=0
note_on channel=0 note=71 velocity=0 time=60
note_on channel=0 note=69 velocity=71 time=0
note_on channel=0 note=69 velocity=0 time=60
note_on channel=0 note=67 velocity=71 time=0
note_on channel=0 note=67 velocity=0 time=60
note_on channel=0 note=81 velocity=0 time=0
note_on channel=0 note=81 velocity=72 time=0
note_on channel=0 note=69 velocity=71 time=0
note_on channel=0 note=69 velocity=0 time=60
note_on channel=0 note=66 velocity=71 time=0
note_on channel=0 note=66 velocity=0 time=60
note_on channel=0 note=81 velocity=0 time=0
note_on channel=0 note=73 velocity=0 time=0
note_on channel=0 note=81 velocity=76 time=0
note_on channel=0 note=74 velocity=65 time=0
note_on channel=0 note=71 velocity=78 time=0
note_on channel=0 note=81 velocity=0 time=360
note_on channel=0 note=74 velocity=70 time=0
note_on channel=0 note=74 velocity=0 time=40
note_on channel=0 note=76 velocity=70 time=0
note_on channel=0 note=76 velocity=0 time=40
note_on channel=0 note=78 velocity=70 time=0
note_on channel=0 note=78 velocity=0 time=40
note_on channel=0 note=71 velocity=0 time=0
note_on channel=0 note=74 velocity=0 time=0
note_on channel=0 note=79 velocity=74 time=0
note_on channel=0 note=74 velocity=65 time=0
note_on channel=0 note=64 velocity=71 time=0
note_on channel=0 note=64 velocity=0 time=60
note_on channel=0 note=66 velocity=71 time=0
note_on channel=0 note=66 velocity=0 time=60
note_on channel=0 note=67 velocity=71 time=0
note_on channel=0 note=67 velocity=0 time=60
note_on channel=0 note=69 velocity=71 time=0
note_on channel=0 note=69 velocity=0 time=60
note_on channel=0 note=67 velocity=71 time=0
note_on channel=0 note=67 velocity=0 time=60
note_on channel=0 note=66 velocity=71 time=0
note_on channel=0 note=66 velocity=0 time=60
note_on channel=0 note=79 velocity=0 time=0
note_on channel=0 note=79 velocity=70 time=0
note_on channel=0 note=67 velocity=71 time=0
note_on channel=0 note=67 velocity=0 time=60
note_on channel=0 note=64 velocity=71 time=0
note_on channel=0 note=64 velocity=0 time=60
note_on channel=0 note=79 velocity=0 time=0
note_on channel=0 note=74 velocity=0 time=0
note_on channel=0 note=79 velocity=73 time=0
note_on channel=0 note=73 velocity=66 time=0
note_on channel=0 note=69 velocity=77 time=0
note_on channel=0 note=73 velocity=0 time=360
note_on channel=0 note=76 velocity=72 time=0
note_on channel=0 note=76 velocity=0 time=40
note_on channel=0 note=74 velocity=72 time=0
note_on channel=0 note=74 velocity=0 time=40
note_on channel=0 note=73 velocity=72 time=0
note_on channel=0 note=73 velocity=0 time=40
note_on channel=0 note=69 velocity=0 time=0
note_on channel=0 note=79 velocity=0 time=0
note_on channel=0 note=78 velocity=74 time=0
note_on channel=0 note=74 velocity=77 time=0
note_on channel=0 note=69 velocity=60 time=0
note_on channel=0 note=38 velocity=66 time=0
note_on channel=0 note=38 velocity=0 time=60
note_on channel=0 note=40 velocity=66 time=0
note_on channel=0 note=40 velocity=0 time=60
note_on channel=0 note=42 velocity=66 time=0
note_on channel=0 note=42 velocity=0 time=60
note_on channel=0 note=43 velocity=66 time=0
note_on channel=0 note=43 velocity=0 time=60
note_on channel=0 note=42 velocity=66 time=0
note_on channel=0 note=42 velocity=0 time=60
note_on channel=0 note=40 velocity=66 time=0
note_on channel=0 note=40 velocity=0 time=60
note_on channel=0 note=69 velocity=0 time=0
note_on channel=0 note=74 velocity=0 time=0
note_on channel=0 note=78 velocity=0 time=0
note_on channel=0 note=76 velocity=69 time=0
note_on channel=0 note=73 velocity=69 time=0
note_on channel=0 note=67 velocity=57 time=0
note_on channel=0 note=42 velocity=66 time=0
note_on channel=0 note=42 velocity=0 time=60
note_on channel=0 note=38 velocity=66 time=0
note_on channel=0 note=38 velocity=0 time=60
note_on channel=0 note=67 velocity=0 time=0
note_on channel=0 note=73 velocity=0 time=0
note_on channel=0 note=76 velocity=0 time=0
note_on channel=0 note=74 velocity=74 time=0
note_on channel=0 note=71 velocity=74 time=0
note_on channel=0 note=66 velocity=60 time=0
note_on channel=0 note=47 velocity=72 time=0
note_on channel=0 note=47 velocity=0 time=360
note_on channel=0 note=66 velocity=0 time=0
note_on channel=0 note=74 velocity=0 time=0
note_on channel=0 note=76 velocity=71 time=0
note_on channel=0 note=67 velocity=57 time=0
note_on channel=0 note=47 velocity=66 time=0
note_on channel=0 note=47 velocity=0 time=120
note_on channel=0 note=71 velocity=0 time=0
note_on channel=0 note=76 velocity=0 time=0
note_on channel=0 note=67 velocity=0 time=0
note_on channel=0 note=73 velocity=75 time=0
note_on channel=0 note=69 velocity=65 time=0
note_on channel=0 note=64 velocity=60 time=0
note_on channel=0 note=45 velocity=71 time=0
note_on channel=0 note=45 velocity=0 time=360
note_on channel=0 note=73 velocity=0 time=0
note_on channel=0 note=73 velocity=73 time=0
note_on channel=0 note=43 velocity=66 time=0
note_on channel=0 note=43 velocity=0 time=120
note_on channel=0 note=69 velocity=0 time=0
note_on channel=0 note=64 velocity=0 time=0
note_on channel=0 note=73 velocity=0 time=0
note_on channel=0 note=73 velocity=73 time=0
note_on channel=0 note=69 velocity=65 time=0
note_on channel=0 note=62 velocity=64 time=0
note_on channel=0 note=42 velocity=72 time=0
note_on channel=0 note=42 velocity=0 time=360
note_on channel=0 note=50 velocity=66 time=0
note_on channel=0 note=50 velocity=0 time=40
note_on channel=0 note=52 velocity=66 time=0
note_on channel=0 note=52 velocity=0 time=40
note_on channel=0 note=54 velocity=66 time=0
note_on channel=0 note=54 velocity=0 time=40
note_on channel=0 note=62 velocity=0 time=0
note_on channel=0 note=69 velocity=0 time=0
note_on channel=0 note=73 velocity=0 time=0
note_on channel=0 note=71 velocity=73 time=0
note_on channel=0 note=71 velocity=65 time=0
note_on channel=0 note=62 velocity=60 time=0
note_on channel=0 note=55 velocity=72 time=0
note_on channel=0 note=71 velocity=0 time=60
note_on channel=0 note=73 velocity=73 time=0
note_on channel=0 note=73 velocity=0 time=60
note_on channel=0 note=74 velocity=73 time=0
note_on channel=0 note=74 velocity=0 time=60
note_on channel=0 note=76 velocity=73 time=0
note_on channel=0 note=76 velocity=0 time=60
note_on channel=0 note=74 velocity=73 time=0
note_on channel=0 note=74 velocity=0 time=60
note_on channel=0 note=73 velocity=73 time=0
note_on channel=0 note=73 velocity=0 time=60
note_on channel=0 note=55 velocity=0 time=0
note_on channel=0 note=74 velocity=73 time=0
note_on channel=0 note=54 velocity=66 time=0
note_on channel=0 note=74 velocity=0 time=60
note_on channel=0 note=71 velocity=70 time=0
note_on channel=0 note=71 velocity=0 time=60
note_on channel=0 note=54 velocity=0 time=0
note_on channel=0 note=62 velocity=0 time=0
note_on channel=0 note=79 velocity=78 time=0
note_on channel=0 note=61 velocity=60 time=0
note_on channel=0 note=55 velocity=72 time=0
note_on channel=0 note=55 velocity=0 time=360
note_on channel=0 note=79 velocity=0 time=0
note_on channel=0 note=79 velocity=73 time=0
note_on channel=0 note=52 velocity=66 time=0
note_on channel=0 note=52 velocity=0 time=120
note_on channel=0 note=79 velocity=0 time=0
note_on channel=0 note=71 velocity=0 time=0
note_on channel=0 note=78 velocity=76 time=0
note_on channel=0 note=70 velocity=61 time=0
note_on channel=0 note=54 velocity=71 time=0
note_on channel=0 note=78 velocity=0 time=360
note_on channel=0 note=76 velocity=73 time=0
note_on channel=0 note=76 velocity=0 time=120
note_on channel=0 note=54 velocity=0 time=0
note_on channel=0 note=70 velocity=0 time=0
note_on channel=0 note=61 velocity=0 time=0
note_on channel=0 note=74 velocity=76 time=0
note_on channel=0 note=71 velocity=65 time=0
note_on channel=0 note=59 velocity=60 time=0
note_on channel=0 note=47 velocity=66 time=0
note_on channel=0 note=47 velocity=0 time=60
note_on channel=0 note=49 velocity=66 time=0
note_on channel=0 note=49 velocity=0 time=60
note_on channel=0 note=50 velocity=66 time=0
note_on channel=0 note=50 velocity=0 time=60
note_on channel=0 note=52 velocity=66 time=0
note_on channel=0 note=52 velocity=0 time=60
note_on channel=0 note=50 velocity=66 time=0
note_on channel=0 note=50 velocity=0 time=60
note_on channel=0 note=49 velocity=66 time=0
note_on channel=0 note=49 velocity=0 time=60
note_on channel=0 note=50 velocity=66 time=0
note_on channel=0 note=50 velocity=0 time=60
note_on channel=0 note=47 velocity=66 time=0
note_on channel=0 note=47 velocity=0 time=60
note_on channel=0 note=59 velocity=0 time=0
note_on channel=0 note=71 velocity=0 time=0
note_on channel=0 note=74 velocity=0 time=0
note_on channel=0 note=83 velocity=72 time=0
note_on channel=0 note=56 velocity=73 time=0
note_on channel=0 note=83 velocity=0 time=120
note_on channel=0 note=81 velocity=70 time=0
note_on channel=0 note=81 velocity=0 time=120
note_on channel=0 note=56 velocity=0 time=0
note_on channel=0 note=83 velocity=72 time=0
note_on channel=0 note=83 velocity=0 time=120
note_on channel=0 note=80 velocity=69 time=0
note_on channel=0 note=80 velocity=0 time=120
note_on channel=0 note=80 velocity=71 time=0
note_on channel=0 note=74 velocity=55 time=0
note_on channel=0 note=71 velocity=54 time=0
note_on channel=0 note=80 velocity=0 time=120
note_on channel=0 note=78 velocity=69 time=0
note_on channel=0 note=78 velocity=0 time=120
note_on channel=0 note=80 velocity=72 time=0
note_on channel=0 note=80 velocity=0 time=120
note_on channel=0 note=71 velocity=0 time=0
note_on channel=0 note=74 velocity=0 time=0
note_on channel=0 note=76 velocity=67 time=0
note_on channel=0 note=71 velocity=52 time=0
note_on channel=0 note=68 velocity=50 time=0
note_on channel=0 note=68 velocity=0 time=120
note_on channel=0 note=71 velocity=0 time=0
note_on channel=0 note=76 velocity=0 time=0
note_on channel=0 note=76 velocity=69 time=0
note_on channel=0 note=71 velocity=55 time=0
note_on channel=0 note=68 velocity=54 time=0
note_on channel=0 note=76 velocity=0 time=120
note_on channel=0 note=74 velocity=67 time=0
note_on channel=0 note=74 velocity=0 time=120
note_on channel=0 note=76 velocity=68 time=0
note_on channel=0 note=76 velocity=0 time=120
note_on channel=0 note=68 velocity=0 time=0
note_on channel=0 note=71 velocity=0 time=0
note_on channel=0 note=73 velocity=64 time=0
note_on channel=0 note=69 velocity=52 time=0
note_on channel=0 note=64 velocity=50 time=0
note_on channel=0 note=64 velocity=0 time=120
note_on channel=0 note=69 velocity=0 time=0
note_on channel=0 note=73 velocity=0 time=0
note_on channel=0 note=73 velocity=64 time=0
note_on channel=0 note=69 velocity=55 time=0
note_on channel=0 note=64 velocity=54 time=0
note_on channel=0 note=45 velocity=66 time=0
note_on channel=0 note=45 velocity=0 time=60
note_on channel=0 note=47 velocity=66 time=0
note_on channel=0 note=47 velocity=0 time=60
note_on channel=0 note=49 velocity=66 time=0
note_on channel=0 note=49 velocity=0 time=60
note_on channel=0 note=50 velocity=66 time=0
note_on channel=0 note=50 velocity=0 time=60
note_on channel=0 note=49 velocity=66 time=0
note_on channel=0 note=49 velocity=0 time=60
note_on channel=0 note=47 velocity=66 time=0
note_on channel=0 note=47 velocity=0 time=60
note_on channel=0 note=49 velocity=66 time=0
note_on channel=0 note=49 velocity=0 time=60
note_on channel=0 note=45 velocity=66 time=0
note_on channel=0 note=45 velocity=0 time=60
note_on channel=0 note=64 velocity=0 time=0
note_on channel=0 note=69 velocity=0 time=0
note_on channel=0 note=73 velocity=0 time=0
note_on channel=0 note=81 velocity=72 time=0
note_on channel=0 note=54 velocity=73 time=0
note_on channel=0 note=81 velocity=0 time=120
note_on channel=0 note=79 velocity=70 time=0
note_on channel=0 note=79 velocity=0 time=120
note_on channel=0 note=54 velocity=0 time=0
note_on channel=0 note=81 velocity=72 time=0
note_on channel=0 note=81 velocity=0 time=120
note_on channel=0 note=78 velocity=69 time=0
note_on channel=0 note=78 velocity=0 time=120
note_on channel=0 note=78 velocity=71 time=0
note_on channel=0 note=72 velocity=55 time=0
note_on channel=0 note=69 velocity=54 time=0
note_on channel=0 note=78 velocity=0 time=120
note_on channel=0 note=76 velocity=69 time=0
note_on channel=0 note=76 velocity=0 time=120
note_on channel=0 note=78 velocity=72 time=0
note_on channel=0 note=78 velocity=0 time=120
note_on channel=0 note=69 velocity=0 time=0
note_on channel=0 note=72 velocity=0 time=0
note_on channel=0 note=74 velocity=67 time=0
note_on channel=0 note=69 velocity=52 time=0
note_on channel=0 note=66 velocity=50 time=0
note_on channel=0 note=66 velocity=0 time=120
note_on channel=0 note=69 velocity=0 time=0
note_on channel=0 note=74 velocity=0 time=0
note_on channel=0 note=74 velocity=69 time=0
note_on channel=0 note=69 velocity=55 time=0
note_on channel=0 note=66 velocity=54 time=0
note_on channel=0 note=74 velocity=0 time=120
note_on channel=0 note=72 velocity=67 time=0
note_on channel=0 note=72 velocity=0 time=120
note_on channel=0 note=74 velocity=68 time=0
note_on channel=0 note=74 velocity=0 time=120
note_on channel=0 note=66 velocity=0 time=0
note_on channel=0 note=69 velocity=0 time=0
note_on channel=0 note=71 velocity=64 time=0
note_on channel=0 note=67 velocity=52 time=0
note_on channel=0 note=62 velocity=50 time=0
note_on channel=0 note=62 velocity=0 time=120
note_on channel=0 note=67 velocity=0 time=0
note_on channel=0 note=71 velocity=0 time=0
note_on channel=0 note=71 velocity=64 time=0
note_on channel=0 note=67 velocity=55 time=0
note_on channel=0 note=62 velocity=54 time=0
note_on channel=0 note=43 velocity=63 time=0
note_on channel=0 note=43 velocity=0 time=60
note_on channel=0 note=45 velocity=63 time=0
note_on channel=0 note=45 velocity=0 time=60
note_on channel=0 note=47 velocity=63 time=0
note_on channel=0 note=47 velocity=0 time=60
note_on channel=0 note=48 velocity=63 time=0
note_on channel=0 note=48 velocity=0 time=60
note_on channel=0 note=47 velocity=63 time=0
note_on channel=0 note=47 velocity=0 time=60
note_on channel=0 note=45 velocity=63 time=0
note_on channel=0 note=45 velocity=0 time=60
note_on channel=0 note=47 velocity=63 time=0
note_on channel=0 note=47 velocity=0 time=60
note_on channel=0 note=43 velocity=63 time=0
note_on channel=0 note=67 velocity=0 time=58
note_on channel=0 note=71 velocity=0 time=2
note_on channel=0 note=62 velocity=0 time=0
note_on channel=0 note=43 velocity=0 time=0
note_on channel=0 note=67 velocity=72 time=0
note_on channel=0 note=52 velocity=68 time=0
note_on channel=0 note=67 velocity=0 time=60
note_on channel=0 note=69 velocity=72 time=0
note_on channel=0 note=69 velocity=0 time=60
note_on channel=0 note=71 velocity=72 time=0
note_on channel=0 note=71 velocity=0 time=60
note_on channel=0 note=72 velocity=72 time=0
note_on channel=0 note=72 velocity=0 time=60
note_on channel=0 note=71 velocity=72 time=0
note_on channel=0 note=71 velocity=0 time=60
note_on channel=0 note=69 velocity=72 time=0
note_on channel=0 note=69 velocity=0 time=60
note_on channel=0 note=52 velocity=0 time=0
note_on channel=0 note=71 velocity=72 time=0
note_on channel=0 note=50 velocity=60 time=0
note_on channel=0 note=71 velocity=0 time=60
note_on channel=0 note=67 velocity=72 time=0
note_on channel=0 note=67 velocity=0 time=60
note_on channel=0 note=50 velocity=0 time=0
note_on channel=0 note=76 velocity=76 time=0
note_on channel=0 note=48 velocity=66 time=0
note_on channel=0 note=76 velocity=0 time=360
note_on channel=0 note=76 velocity=71 time=0
note_on channel=0 note=76 velocity=0 time=120
note_on channel=0 note=48 velocity=0 time=0
note_on channel=0 note=74 velocity=75 time=0
note_on channel=0 note=50 velocity=60 time=0
note_on channel=0 note=74 velocity=0 time=360
note_on channel=0 note=72 velocity=71 time=0
note_on channel=0 note=72 velocity=0 time=120
note_on channel=0 note=50 velocity=0 time=0
note_on channel=0 note=71 velocity=75 time=0
note_on channel=0 note=55 velocity=66 time=0
note_on channel=0 note=55 velocity=0 time=360
note_on channel=0 note=71 velocity=0 time=0
note_on channel=0 note=73 velocity=71 time=0
note_on channel=0 note=57 velocity=49 time=0
note_on channel=0 note=57 velocity=0 time=120
note_on channel=0 note=73 velocity=0 time=0
note_on channel=0 note=74 velocity=74 time=0
note_on channel=0 note=62 velocity=67 time=0
note_on channel=0 note=59 velocity=54 time=0
note_on channel=0 note=62 velocity=0 time=60
note_on channel=0 note=64 velocity=67 time=0
note_on channel=0 note=64 velocity=0 time=60
note_on channel=0 note=66 velocity=67 time=0
note_on channel=0 note=66 velocity=0 time=60
note_on channel=0 note=67 velocity=67 time=0
note_on channel=0 note=67 velocity=0 time=60
note_on channel=0 note=66 velocity=67 time=0
note_on channel=0 note=66 velocity=0 time=60
note_on channel=0 note=64 velocity=67 time=0
note_on channel=0 note=64 velocity=0 time=60
note_on channel=0 note=59 velocity=0 time=0
note_on channel=0 note=66 velocity=67 time=0
note_on channel=0 note=57 velocity=49 time=0
note_on channel=0 note=66 velocity=0 time=60
note_on channel=0 note=62 velocity=67 time=0
note_on channel=0 note=62 velocity=0 time=60
note_on channel=0 note=57 velocity=0 time=0
note_on channel=0 note=71 velocity=73 time=0
note_on channel=0 note=55 velocity=54 time=0
note_on channel=0 note=55 velocity=0 time=360
note_on channel=0 note=71 velocity=0 time=0
note_on channel=0 note=71 velocity=67 time=0
note_on channel=0 note=52 velocity=48 time=0
note_on channel=0 note=52 velocity=0 time=120
note_on channel=0 note=71 velocity=0 time=0
note_on channel=0 note=74 velocity=0 time=0
note_on channel=0 note=73 velocity=71 time=0
note_on channel=0 note=69 velocity=73 time=0
note_on channel=0 note=57 velocity=54 time=0
note_on channel=0 note=57 velocity=0 time=360
note_on channel=0 note=69 velocity=0 time=0
note_on channel=0 note=67 velocity=67 time=0
note_on channel=0 note=45 velocity=51 time=0
note_on channel=0 note=45 velocity=0 time=120
note_on channel=0 note=67 velocity=0 time=0
note_on channel=0 note=73 velocity=0 time=0
note_on channel=0 note=74 velocity=72 time=0
note_on channel=0 note=66 velocity=72 time=0
note_on channel=0 note=47 velocity=61 time=0
note_on channel=0 note=47 velocity=0 time=60
note_on channel=0 note=49 velocity=61 time=0
note_on channel=0 note=49 velocity=0 time=60
note_on channel=0 note=50 velocity=61 time=0
note_on channel=0 note=50 velocity=0 time=60
note_on channel=0 note=52 velocity=59 time=0
note_on channel=0 note=52 velocity=0 time=60
note_on channel=0 note=50 velocity=61 time=0
note_on channel=0 note=50 velocity=0 time=60
note_on channel=0 note=49 velocity=61 time=0
note_on channel=0 note=49 velocity=0 time=60
note_on channel=0 note=66 velocity=0 time=0
note_on channel=0 note=69 velocity=55 time=0
note_on channel=0 note=50 velocity=61 time=0
note_on channel=0 note=50 velocity=0 time=60
note_on channel=0 note=47 velocity=61 time=0
note_on channel=0 note=47 velocity=0 time=60
note_on channel=0 note=69 velocity=0 time=0
note_on channel=0 note=74 velocity=0 time=0
note_on channel=0 note=74 velocity=71 time=0
note_on channel=0 note=74 velocity=61 time=0
note_on channel=0 note=59 velocity=65 time=0
note_on channel=0 note=74 velocity=0 time=60
note_on channel=0 note=76 velocity=71 time=0
note_on channel=0 note=76 velocity=0 time=60
note_on channel=0 note=78 velocity=71 time=0
note_on channel=0 note=78 velocity=0 time=60
note_on channel=0 note=79 velocity=71 time=0
note_on channel=0 note=79 velocity=0 time=60
note_on channel=0 note=78 velocity=71 time=0
note_on channel=0 note=78 velocity=0 time=60
note_on channel=0 note=76 velocity=71 time=0
note_on channel=0 note=76 velocity=0 time=60
note_on channel=0 note=59 velocity=0 time=0
note_on channel=0 note=78 velocity=71 time=0
note_on channel=0 note=57 velocity=50 time=0
note_on channel=0 note=78 velocity=0 time=60
note_on channel=0 note=74 velocity=71 time=0
note_on channel=0 note=74 velocity=0 time=60
note_on channel=0 note=57 velocity=0 time=0
note_on channel=0 note=83 velocity=76 time=0
note_on channel=0 note=55 velocity=53 time=0
note_on channel=0 note=55 velocity=0 time=360
note_on channel=0 note=83 velocity=0 time=0
note_on channel=0 note=83 velocity=71 time=0
note_on channel=0 note=52 velocity=48 time=0
note_on channel=0 note=52 velocity=0 time=120
note_on channel=0 note=83 velocity=0 time=0
note_on channel=0 note=74 velocity=0 time=0
note_on channel=0 note=81 velocity=76 time=0
note_on channel=0 note=72 velocity=61 time=0
note_on channel=0 note=57 velocity=53 time=0
note_on channel=0 note=57 velocity=0 time=360
note_on channel=0 note=81 velocity=0 time=0
note_on channel=0 note=79 velocity=71 time=0
note_on channel=0 note=45 velocity=48 time=0
note_on channel=0 note=45 velocity=0 time=120
note_on channel=0 note=79 velocity=0 time=0
note_on channel=0 note=78 velocity=76 time=0
note_on channel=0 note=50 velocity=56 time=0
note_on channel=0 note=78 velocity=0 time=360
note_on channel=0 note=74 velocity=71 time=0
note_on channel=0 note=74 velocity=0 time=40
note_on channel=0 note=76 velocity=71 time=0
note_on channel=0 note=76 velocity=0 time=40
note_on channel=0 note=78 velocity=71 time=0
note_on channel=0 note=78 velocity=0 time=40
note_on channel=0 note=50 velocity=0 time=0
note_on channel=0 note=72 velocity=0 time=0
note_on channel=0 note=79 velocity=76 time=0
note_on channel=0 note=71 velocity=61 time=0
note_on channel=0 note=55 velocity=65 time=0
note_on channel=0 note=52 velocity=52 time=0
note_on channel=0 note=55 velocity=0 time=60
note_on channel=0 note=57 velocity=65 time=0
note_on channel=0 note=57 velocity=0 time=60
note_on channel=0 note=59 velocity=65 time=0
note_on channel=0 note=59 velocity=0 time=60
note_on channel=0 note=60 velocity=65 time=0
note_on channel=0 note=60 velocity=0 time=60
note_on channel=0 note=59 velocity=65 time=0
note_on channel=0 note=59 velocity=0 time=60
note_on channel=0 note=57 velocity=65 time=0
note_on channel=0 note=57 velocity=0 time=60
note_on channel=0 note=79 velocity=0 time=0
note_on channel=0 note=79 velocity=73 time=0
note_on channel=0 note=59 velocity=65 time=0
note_on channel=0 note=59 velocity=0 time=60
note_on channel=0 note=55 velocity=65 time=0
note_on channel=0 note=55 velocity=0 time=60
note_on channel=0 note=79 velocity=0 time=0
note_on channel=0 note=71 velocity=0 time=0
note_on channel=0 note=52 velocity=0 time=0
note_on channel=0 note=79 velocity=75 time=0
note_on channel=0 note=69 velocity=61 time=0
note_on channel=0 note=64 velocity=70 time=0
note_on channel=0 note=60 velocity=52 time=0
note_on channel=0 note=60 velocity=0 time=360
note_on channel=0 note=64 velocity=0 time=0
note_on channel=0 note=79 velocity=0 time=0
note_on channel=0 note=81 velocity=73 time=0
note_on channel=0 note=64 velocity=66 time=0
note_on channel=0 note=57 velocity=52 time=0
note_on channel=0 note=57 velocity=0 time=120
note_on channel=0 note=64 velocity=0 time=0
note_on channel=0 note=81 velocity=0 time=0
note_on channel=0 note=78 velocity=76 time=0
note_on channel=0 note=62 velocity=70 time=0
note_on channel=0 note=62 velocity=0 time=360
note_on channel=0 note=78 velocity=0 time=0
note_on channel=0 note=78 velocity=72 time=0
note_on channel=0 note=60 velocity=66 time=0
note_on channel=0 note=50 velocity=52 time=0
note_on channel=0 note=50 velocity=0 time=120
note_on channel=0 note=69 velocity=0 time=0
note_on channel=0 note=78 velocity=0 time=0
note_on channel=0 note=60 velocity=0 time=0
note_on channel=0 note=78 velocity=72 time=0
note_on channel=0 note=67 velocity=61 time=0
note_on channel=0 note=59 velocity=71 time=0
note_on channel=0 note=55 velocity=57 time=0
note_on channel=0 note=78 velocity=0 time=360
note_on channel=0 note=76 velocity=67 time=0
note_on channel=0 note=76 velocity=0 time=60
note_on channel=0 note=75 velocity=67 time=0
note_on channel=0 note=75 velocity=0 time=60
note_on channel=0 note=67 velocity=0 time=0
note_on channel=0 note=59 velocity=0 time=0
note_on channel=0 note=55 velocity=0 time=0
note_on channel=0 note=76 velocity=73 time=0
note_on channel=0 note=71 velocity=61 time=0
note_on channel=0 note=67 velocity=58 time=0
note_on channel=0 note=40 velocity=66 time=0
note_on channel=0 note=40 velocity=0 time=60
note_on channel=0 note=42 velocity=66 time=0
note_on channel=0 note=42 velocity=0 time=60
note_on channel=0 note=43 velocity=66 time=0
note_on channel=0 note=43 velocity=0 time=60
note_on channel=0 note=45 velocity=66 time=0
note_on channel=0 note=45 velocity=0 time=60
note_on channel=0 note=43 velocity=66 time=0
note_on channel=0 note=43 velocity=0 time=60
note_on channel=0 note=42 velocity=66 time=0
note_on channel=0 note=42 velocity=0 time=60
note_on channel=0 note=43 velocity=66 time=0
note_on channel=0 note=43 velocity=0 time=60
note_on channel=0 note=40 velocity=66 time=0
note_on channel=0 note=40 velocity=0 time=60
note_on channel=0 note=67 velocity=0 time=0
note_on channel=0 note=71 velocity=0 time=0
note_on channel=0 note=69 velocity=61 time=0
note_on channel=0 note=66 velocity=58 time=0
note_on channel=0 note=48 velocity=72 time=0
note_on channel=0 note=48 velocity=0 time=360
note_on channel=0 note=76 velocity=0 time=0
note_on channel=0 note=75 velocity=67 time=0
note_on channel=0 note=48 velocity=57 time=0
note_on channel=0 note=48 velocity=0 time=120
note_on channel=0 note=75 velocity=0 time=0
note_on channel=0 note=76 velocity=72 time=0
note_on channel=0 note=47 velocity=61 time=0
note_on channel=0 note=47 velocity=0 time=360
note_on channel=0 note=76 velocity=0 time=0
note_on channel=0 note=78 velocity=66 time=0
note_on channel=0 note=45 velocity=56 time=0
note_on channel=0 note=45 velocity=0 time=120
note_on channel=0 note=78 velocity=0 time=0
note_on channel=0 note=71 velocity=71 time=0
note_on channel=0 note=43 velocity=61 time=0
note_on channel=0 note=43 velocity=0 time=360
note_on channel=0 note=71 velocity=0 time=0
note_on channel=0 note=72 velocity=64 time=0
note_on channel=0 note=42 velocity=56 time=0
note_on channel=0 note=72 velocity=0 time=60
note_on channel=0 note=69 velocity=64 time=0
note_on channel=0 note=69 velocity=0 time=60
note_on channel=0 note=42 velocity=0 time=0
note_on channel=0 note=66 velocity=0 time=0
note_on channel=0 note=69 velocity=0 time=0
note_on channel=0 note=71 velocity=67 time=0
note_on channel=0 note=67 velocity=60 time=0
note_on channel=0 note=64 velocity=61 time=0
note_on channel=0 note=43 velocity=60 time=0
note_on channel=0 note=43 velocity=0 time=360
note_on channel=0 note=71 velocity=0 time=0
note_on channel=0 note=67 velocity=0 time=0
note_on channel=0 note=64 velocity=0 time=0
note_on channel=0 note=72 velocity=62 time=0
note_on channel=0 note=64 velocity=55 time=0
note_on channel=0 note=54 velocity=57 time=0
note_on channel=0 note=45 velocity=55 time=0
note_on channel=0 note=64 velocity=0 time=119
<meta message set_tempo tempo=1025641 time=1>
note_on channel=0 note=72 velocity=0 time=0
note_on channel=0 note=54 velocity=0 time=0
note_on channel=0 note=45 velocity=0 time=0
note_on channel=0 note=67 velocity=68 time=0
note_on channel=0 note=64 velocity=60 time=0
note_on channel=0 note=55 velocity=60 time=0
note_on channel=0 note=47 velocity=60 time=0
note_on channel=0 note=55 velocity=0 time=360
note_on channel=0 note=57 velocity=57 time=0
<meta message set_tempo tempo=1071429 time=120>
note_on channel=0 note=57 velocity=0 time=0
note_on channel=0 note=67 velocity=0 time=0
note_on channel=0 note=64 velocity=0 time=0
note_on channel=0 note=66 velocity=64 time=0
note_on channel=0 note=63 velocity=55 time=0
note_on channel=0 note=59 velocity=60 time=0
note_on channel=0 note=59 velocity=0 time=360
note_on channel=0 note=57 velocity=57 time=0
<meta message set_tempo tempo=1000000 time=120>
note_on channel=0 note=57 velocity=0 time=0
note_on channel=0 note=63 velocity=0 time=0
note_on channel=0 note=66 velocity=0 time=0
note_on channel=0 note=47 velocity=0 time=0
note_on channel=0 note=64 velocity=63 time=0
note_on channel=0 note=64 velocity=61 time=0
note_on channel=0 note=55 velocity=60 time=0
note_on channel=0 note=52 velocity=61 time=0
note_on channel=0 note=64 velocity=0 time=60
note_on channel=0 note=66 velocity=63 time=0
note_on channel=0 note=66 velocity=0 time=60
note_on channel=0 note=67 velocity=63 time=0
note_on channel=0 note=67 velocity=0 time=60
note_on channel=0 note=69 velocity=63 time=0
note_on channel=0 note=69 velocity=0 time=60
note_on channel=0 note=67 velocity=63 time=0
note_on channel=0 note=67 velocity=0 time=60
note_on channel=0 note=66 velocity=63 time=0
note_on channel=0 note=66 velocity=0 time=60
note_on channel=0 note=67 velocity=63 time=0
note_on channel=0 note=67 velocity=0 time=60
note_on channel=0 note=64 velocity=63 time=0
note_on channel=0 note=64 velocity=0 time=60
note_on channel=0 note=52 velocity=0 time=0
note_on channel=0 note=55 velocity=0 time=0
note_on channel=0 note=64 velocity=0 time=0
note_on channel=0 note=79 velocity=69 time=0
note_on channel=0 note=59 velocity=55 time=0
note_on channel=0 note=59 velocity=0 time=120
note_on channel=0 note=57 velocity=51 time=0
note_on channel=0 note=57 velocity=0 time=120
note_on channel=0 note=79 velocity=0 time=0
note_on channel=0 note=59 velocity=55 time=0
note_on channel=0 note=59 velocity=0 time=120
note_on channel=0 note=55 velocity=51 time=0
note_on channel=0 note=55 velocity=0 time=120
note_on channel=0 note=64 velocity=57 time=0
note_on channel=0 note=59 velocity=57 time=0
note_on channel=0 note=55 velocity=55 time=0
note_on channel=0 note=55 velocity=0 time=120
note_on channel=0 note=54 velocity=51 time=0
note_on channel=0 note=54 velocity=0 time=120
note_on channel=0 note=55 velocity=55 time=0
<meta message set_tempo tempo=975610 time=120>
note_on channel=0 note=55 velocity=0 time=0
note_on channel=0 note=59 velocity=0 time=0
note_on channel=0 note=64 velocity=0 time=0
note_on channel=0 note=61 velocity=53 time=0
note_on channel=0 note=55 velocity=53 time=0
note_on channel=0 note=52 velocity=50 time=0
note_on channel=0 note=55 velocity=0 time=119
note_on channel=0 note=61 velocity=0 time=0
note_on channel=0 note=52 velocity=0 time=1
note_on channel=0 note=61 velocity=57 time=0
note_on channel=0 note=55 velocity=57 time=0
note_on channel=0 note=52 velocity=55 time=0
note_on channel=0 note=52 velocity=0 time=120
note_on channel=0 note=50 velocity=50 time=0
note_on channel=0 note=50 velocity=0 time=120
note_on channel=0 note=52 velocity=55 time=0
<meta message set_tempo tempo=1061947 time=120>
note_on channel=0 note=52 velocity=0 time=0
note_on channel=0 note=55 velocity=0 time=0
note_on channel=0 note=61 velocity=0 time=0
note_on channel=0 note=57 velocity=53 time=0
note_on channel=0 note=52 velocity=53 time=0
note_on channel=0 note=49 velocity=50 time=0
<meta message set_tempo tempo=1000000 time=120>
note_on channel=0 note=49 velocity=0 time=0
note_on channel=0 note=52 velocity=0 time=0
note_on channel=0 note=57 velocity=0 time=0
note_on channel=0 note=69 velocity=63 time=0
note_on channel=0 note=57 velocity=57 time=0
note_on channel=0 note=52 velocity=57 time=0
note_on channel=0 note=49 velocity=55 time=0
note_on channel=0 note=69 velocity=0 time=60
note_on channel=0 note=71 velocity=63 time=0
note_on channel=0 note=71 velocity=0 time=60
note_on channel=0 note=73 velocity=63 time=0
note_on channel=0 note=73 velocity=0 time=60
note_on channel=0 note=74 velocity=63 time=0
note_on channel=0 note=74 velocity=0 time=60
note_on channel=0 note=73 velocity=63 time=0
note_on channel=0 note=73 velocity=0 time=60
note_on channel=0 note=71 velocity=63 time=0
note_on channel=0 note=71 velocity=0 time=60
note_on channel=0 note=73 velocity=63 time=0
note_on channel=0 note=73 velocity=0 time=60
note_on channel=0 note=69 velocity=63 time=0
note_on channel=0 note=69 velocity=0 time=60
note_on channel=0 note=49 velocity=0 time=0
note_on channel=0 note=52 velocity=0 time=0
note_on channel=0 note=57 velocity=0 time=0
note_on channel=0 note=78 velocity=68 time=0
note_on channel=0 note=57 velocity=55 time=0
note_on channel=0 note=57 velocity=0 time=120
note_on channel=0 note=55 velocity=50 time=0
note_on channel=0 note=55 velocity=0 time=120
note_on channel=0 note=78 velocity=0 time=0
note_on channel=0 note=57 velocity=55 time=0
note_on channel=0 note=57 velocity=0 time=120
note_on channel=0 note=54 velocity=50 time=0
note_on channel=0 note=54 velocity=0 time=120
note_on channel=0 note=62 velocity=57 time=0
note_on channel=0 note=57 velocity=57 time=0
note_on channel=0 note=54 velocity=55 time=0
note_on channel=0 note=54 velocity=0 time=120
note_on channel=0 note=52 velocity=50 time=0
note_on channel=0 note=52 velocity=0 time=120
note_on channel=0 note=54 velocity=55 time=0
note_on channel=0 note=54 velocity=0 time=120
note_on channel=0 note=57 velocity=0 time=0
note_on channel=0 note=62 velocity=0 time=0
note_on channel=0 note=59 velocity=53 time=0
note_on channel=0 note=54 velocity=54 time=0
note_on channel=0 note=50 velocity=50 time=0
<meta message set_tempo tempo=1000000 time=20>
note_on channel=0 note=54 velocity=0 time=99
note_on channel=0 note=59 velocity=0 time=0
note_on channel=0 note=50 velocity=0 time=1
note_on channel=0 note=59 velocity=57 time=0
note_on channel=0 note=54 velocity=57 time=0
note_on channel=0 note=50 velocity=55 time=0
<meta message set_tempo tempo=991736 time=20>
note_on channel=0 note=50 velocity=0 time=100
note_on channel=0 note=49 velocity=50 time=0
<meta message set_tempo tempo=983607 time=20>
note_on channel=0 note=49 velocity=0 time=100
note_on channel=0 note=50 velocity=55 time=0
<meta message set_tempo tempo=975610 time=20>
<meta message set_tempo tempo=1025641 time=100>
note_on channel=0 note=50 velocity=0 time=0
note_on channel=0 note=54 velocity=0 time=0
note_on channel=0 note=59 velocity=0 time=0
note_on channel=0 note=55 velocity=52 time=0
note_on channel=0 note=50 velocity=54 time=0
note_on channel=0 note=47 velocity=51 time=0
<meta message set_tempo tempo=1000000 time=120>
note_on channel=0 note=47 velocity=0 time=0
note_on channel=0 note=50 velocity=0 time=0
note_on channel=0 note=55 velocity=0 time=0
note_on channel=0 note=67 velocity=64 time=0
note_on channel=0 note=55 velocity=57 time=0
note_on channel=0 note=50 velocity=57 time=0
note_on channel=0 note=47 velocity=55 time=0
note_on channel=0 note=67 velocity=0 time=60
note_on channel=0 note=69 velocity=64 time=0
note_on channel=0 note=69 velocity=0 time=60
note_on channel=0 note=71 velocity=64 time=0
note_on channel=0 note=71 velocity=0 time=60
note_on channel=0 note=72 velocity=64 time=0
note_on channel=0 note=72 velocity=0 time=60
note_on channel=0 note=71 velocity=64 time=0
note_on channel=0 note=71 velocity=0 time=60
note_on channel=0 note=69 velocity=64 time=0
note_on channel=0 note=69 velocity=0 time=60
note_on channel=0 note=71 velocity=64 time=0
note_on channel=0 note=71 velocity=0 time=60
note_on channel=0 note=67 velocity=64 time=0
note_on channel=0 note=67 velocity=0 time=60
note_on channel=0 note=47 velocity=0 time=0
note_on channel=0 note=50 velocity=0 time=0
note_on channel=0 note=55 velocity=0 time=0
note_on channel=0 note=76 velocity=69 time=0
note_on channel=0 note=55 velocity=55 time=0
note_on channel=0 note=55 velocity=0 time=120
note_on channel=0 note=54 velocity=51 time=0
note_on channel=0 note=54 velocity=0 time=120
note_on channel=0 note=76 velocity=0 time=0
note_on channel=0 note=55 velocity=55 time=0
<meta message set_tempo tempo=983607 time=120>
note_on channel=0 note=55 velocity=0 time=0
note_on channel=0 note=52 velocity=51 time=0
note_on channel=0 note=52 velocity=0 time=120
note_on channel=0 note=61 velocity=57 time=0
note_on channel=0 note=55 velocity=57 time=0
note_on channel=0 note=52 velocity=55 time=0
note_on channel=0 note=52 velocity=0 time=120
note_on channel=0 note=50 velocity=51 time=0
note_on channel=0 note=50 velocity=0 time=120
note_on channel=0 note=52 velocity=55 time=0
note_on channel=0 note=52 velocity=0 time=120
note_on channel=0 note=55 velocity=0 time=0
note_on channel=0 note=61 velocity=0 time=0
note_on channel=0 note=57 velocity=55 time=0
note_on channel=0 note=52 velocity=54 time=0
note_on channel=0 note=49 velocity=51 time=0
note_on channel=0 note=52 velocity=0 time=119
note_on channel=0 note=57 velocity=0 time=0
note_on channel=0 note=49 velocity=0 time=1
note_on channel=0 note=57 velocity=57 time=0
note_on channel=0 note=52 velocity=57 time=0
note_on channel=0 note=49 velocity=55 time=0
note_on channel=0 note=49 velocity=0 time=120
note_on channel=0 note=47 velocity=51 time=0
note_on channel=0 note=47 velocity=0 time=120
note_on channel=0 note=49 velocity=55 time=0
<meta message set_tempo tempo=1043478 time=120>
note_on channel=0 note=49 velocity=0 time=0
note_on channel=0 note=52 velocity=0 time=0
note_on channel=0 note=57 velocity=0 time=0
note_on channel=0 note=54 velocity=54 time=0
note_on channel=0 note=49 velocity=54 time=0
note_on channel=0 note=45 velocity=51 time=0
note_on channel=0 note=49 velocity=0 time=119
note_on channel=0 note=54 velocity=0 time=0
<meta message set_tempo tempo=1000000 time=1>
note_on channel=0 note=45 velocity=0 time=0
note_on channel=0 note=66 velocity=64 time=0
note_on channel=0 note=54 velocity=51 time=0
note_on channel=0 note=49 velocity=51 time=0
note_on channel=0 note=45 velocity=49 time=0
note_on channel=0 note=66 velocity=0 time=60
note_on channel=0 note=67 velocity=64 time=0
note_on channel=0 note=67 velocity=0 time=60
note_on channel=0 note=69 velocity=64 time=0
note_on channel=0 note=69 velocity=0 time=60
note_on channel=0 note=71 velocity=64 time=0
note_on channel=0 note=71 velocity=0 time=60
note_on channel=0 note=69 velocity=64 time=0
note_on channel=0 note=69 velocity=0 time=60
note_on channel=0 note=67 velocity=64 time=0
note_on channel=0 note=67 velocity=0 time=60
note_on channel=0 note=69 velocity=64 time=0
note_on channel=0 note=69 velocity=0 time=60
note_on channel=0 note=66 velocity=64 time=0
note_on channel=0 note=66 velocity=0 time=60
note_on channel=0 note=45 velocity=0 time=0
note_on channel=0 note=49 velocity=0 time=0
note_on channel=0 note=54 velocity=0 time=0
note_on channel=0 note=74 velocity=69 time=0
note_on channel=0 note=59 velocity=62 time=0
note_on channel=0 note=59 velocity=0 time=60
note_on channel=0 note=61 velocity=62 time=0
note_on channel=0 note=61 velocity=0 time=60
note_on channel=0 note=62 velocity=62 time=0
note_on channel=0 note=62 velocity=0 time=60
note_on channel=0 note=64 velocity=62 time=0
note_on channel=0 note=64 velocity=0 time=60
note_on channel=0 note=62 velocity=62 time=0
note_on channel=0 note=62 velocity=0 time=60
note_on channel=0 note=61 velocity=62 time=0
note_on channel=0 note=61 velocity=0 time=60
note_on channel=0 note=74 velocity=0 time=0
note_on channel=0 note=74 velocity=64 time=0
note_on channel=0 note=62 velocity=62 time=0
note_on channel=0 note=62 velocity=0 time=60
note_on channel=0 note=59 velocity=62 time=0
note_on channel=0 note=59 velocity=0 time=60
note_on channel=0 note=74 velocity=0 time=0
note_on channel=0 note=74 velocity=68 time=0
note_on channel=0 note=67 velocity=67 time=0
note_on channel=0 note=52 velocity=59 time=0
note_on channel=0 note=52 velocity=0 time=60
note_on channel=0 note=54 velocity=59 time=0
note_on channel=0 note=54 velocity=0 time=60
note_on channel=0 note=55 velocity=59 time=0
note_on channel=0 note=55 velocity=0 time=60
note_on channel=0 note=57 velocity=59 time=0
note_on channel=0 note=57 velocity=0 time=60
note_on channel=0 note=55 velocity=59 time=0
note_on channel=0 note=55 velocity=0 time=60
note_on channel=0 note=54 velocity=59 time=0
note_on channel=0 note=54 velocity=0 time=60
note_on channel=0 note=74 velocity=0 time=0
note_on channel=0 note=76 velocity=64 time=0
note_on channel=0 note=55 velocity=59 time=0
note_on channel=0 note=55 velocity=0 time=60
note_on channel=0 note=52 velocity=59 time=0
note_on channel=0 note=52 velocity=0 time=60
note_on channel=0 note=76 velocity=0 time=0
note_on channel=0 note=73 velocity=68 time=0
note_on channel=0 note=57 velocity=63 time=0
note_on channel=0 note=73 velocity=0 time=40
note_on channel=0 note=74 velocity=60 time=0
note_on channel=0 note=59 velocity=60 time=20
note_on channel=0 note=74 velocity=0 time=20
note_on channel=0 note=73 velocity=68 time=0
note_on channel=0 note=59 velocity=0 time=40
note_on channel=0 note=61 velocity=60 time=0
note_on channel=0 note=61 velocity=0 time=60
note_on channel=0 note=62 velocity=60 time=0
note_on channel=0 note=62 velocity=0 time=60
note_on channel=0 note=61 velocity=60 time=0
note_on channel=0 note=61 velocity=0 time=60
note_on channel=0 note=59 velocity=60 time=0
note_on channel=0 note=59 velocity=0 time=60
note_on channel=0 note=73 velocity=0 time=0
note_on channel=0 note=74 velocity=64 time=0
note_on channel=0 note=61 velocity=60 time=0
note_on channel=0 note=61 velocity=0 time=60
note_on channel=0 note=74 velocity=0 time=0
note_on channel=0 note=76 velocity=64 time=0
note_on channel=0 note=57 velocity=60 time=0
note_on channel=0 note=57 velocity=0 time=60
note_on channel=0 note=67 velocity=0 time=0
note_on channel=0 note=57 velocity=0 time=0
note_on channel=0 note=76 velocity=0 time=0
note_on channel=0 note=78 velocity=69 time=0
note_on channel=0 note=66 velocity=65 time=0
note_on channel=0 note=62 velocity=65 time=0
note_on channel=0 note=50 velocity=62 time=0
note_on channel=0 note=50 velocity=0 time=60
note_on channel=0 note=52 velocity=62 time=0
note_on channel=0 note=52 velocity=0 time=60
note_on channel=0 note=54 velocity=62 time=0
note_on channel=0 note=54 velocity=0 time=60
note_on channel=0 note=55 velocity=62 time=0
note_on channel=0 note=55 velocity=0 time=60
note_on channel=0 note=54 velocity=62 time=0
note_on channel=0 note=54 velocity=0 time=60
note_on channel=0 note=52 velocity=62 time=0
note_on channel=0 note=52 velocity=0 time=60
note_on channel=0 note=54 velocity=62 time=0
note_on channel=0 note=54 velocity=0 time=60
note_on channel=0 note=50 velocity=62 time=0
note_on channel=0 note=50 velocity=0 time=60
note_on channel=0 note=62 velocity=0 time=0
note_on channel=0 note=66 velocity=0 time=0
note_on channel=0 note=78 velocity=0 time=0
note_on channel=0 note=83 velocity=72 time=0
note_on channel=0 note=55 velocity=65 time=0
note_on channel=0 note=83 velocity=0 time=120
note_on channel=0 note=81 velocity=70 time=0
note_on channel=0 note=81 velocity=0 time=120
note_on channel=0 note=55 velocity=0 time=0
note_on channel=0 note=83 velocity=72 time=0
<meta message set_tempo tempo=991736 time=120>
note_on channel=0 note=83 velocity=0 time=0
note_on channel=0 note=79 velocity=69 time=0
note_on channel=0 note=79 velocity=0 time=120
note_on channel=0 note=79 velocity=71 time=0
note_on channel=0 note=74 velocity=55 time=0
note_on channel=0 note=71 velocity=54 time=0
note_on channel=0 note=79 velocity=0 time=120
note_on channel=0 note=78 velocity=69 time=0
note_on channel=0 note=78 velocity=0 time=120
note_on channel=0 note=79 velocity=72 time=0
<meta message set_tempo tempo=983607 time=120>
note_on channel=0 note=79 velocity=0 time=0
note_on channel=0 note=71 velocity=0 time=0
note_on channel=0 note=74 velocity=0 time=0
note_on channel=0 note=76 velocity=67 time=0
note_on channel=0 note=71 velocity=52 time=0
note_on channel=0 note=67 velocity=50 time=0
note_on channel=0 note=67 velocity=0 time=119
note_on channel=0 note=71 velocity=0 time=0
note_on channel=0 note=76 velocity=0 time=1
note_on channel=0 note=76 velocity=69 time=0
note_on channel=0 note=71 velocity=55 time=0
note_on channel=0 note=67 velocity=54 time=0
<meta message set_tempo tempo=975610 time=120>
note_on channel=0 note=76 velocity=0 time=0
note_on channel=0 note=74 velocity=67 time=0
<meta message set_tempo tempo=983607 time=120>
note_on channel=0 note=74 velocity=0 time=0
note_on channel=0 note=76 velocity=68 time=0
<meta message set_tempo tempo=991736 time=120>
note_on channel=0 note=76 velocity=0 time=0
note_on channel=0 note=67 velocity=0 time=0
note_on channel=0 note=71 velocity=0 time=0
note_on channel=0 note=73 velocity=64 time=0
note_on channel=0 note=69 velocity=52 time=0
note_on channel=0 note=64 velocity=50 time=0
note_on channel=0 note=69 velocity=0 time=119
<meta message set_tempo tempo=1000000 time=1>
note_on channel=0 note=64 velocity=0 time=0
note_on channel=0 note=73 velocity=0 time=0
note_on channel=0 note=73 velocity=68 time=0
note_on channel=0 note=64 velocity=55 time=0
note_on channel=0 note=69 velocity=55 time=0
note_on channel=0 note=55 velocity=54 time=0
note_on channel=0 note=43 velocity=54 time=0
note_on channel=0 note=43 velocity=0 time=480
note_on channel=0 note=69 velocity=0 time=0
note_on channel=0 note=73 velocity=0 time=0
note_on channel=0 note=64 velocity=0 time=0
note_on channel=0 note=55 velocity=0 time=0
note_on channel=0 note=74 velocity=64 time=0
note_on channel=0 note=69 velocity=49 time=0
note_on channel=0 note=66 velocity=48 time=0
note_on channel=0 note=54 velocity=62 time=0
note_on channel=0 note=54 velocity=0 time=60
note_on channel=0 note=55 velocity=62 time=0
note_on channel=0 note=55 velocity=0 time=60
note_on channel=0 note=57 velocity=62 time=0
note_on channel=0 note=57 velocity=0 time=60
note_on channel=0 note=55 velocity=62 time=0
note_on channel=0 note=55 velocity=0 time=60
note_on channel=0 note=54 velocity=62 time=0
note_on channel=0 note=54 velocity=0 time=60
note_on channel=0 note=52 velocity=62 time=0
note_on channel=0 note=52 velocity=0 time=60
note_on channel=0 note=66 velocity=0 time=0
note_on channel=0 note=69 velocity=0 time=0
note_on channel=0 note=74 velocity=0 time=0
note_on channel=0 note=74 velocity=61 time=0
note_on channel=0 note=69 velocity=46 time=0
note_on channel=0 note=66 velocity=45 time=0
note_on channel=0 note=50 velocity=62 time=0
note_on channel=0 note=50 velocity=0 time=60
note_on channel=0 note=49 velocity=62 time=0
note_on channel=0 note=49 velocity=0 time=60
note_on channel=0 note=66 velocity=0 time=0
note_on channel=0 note=69 velocity=0 time=0
note_on channel=0 note=74 velocity=0 time=0
note_on channel=0 note=74 velocity=66 time=0
note_on channel=0 note=71 velocity=49 time=0
note_on channel=0 note=66 velocity=48 time=0
note_on channel=0 note=47 velocity=62 time=0
note_on channel=0 note=47 velocity=0 time=60
note_on channel=0 note=49 velocity=62 time=0
note_on channel=0 note=49 velocity=0 time=60
note_on channel=0 note=50 velocity=62 time=0
note_on channel=0 note=50 velocity=0 time=60
note_on channel=0 note=49 velocity=62 time=0
note_on channel=0 note=49 velocity=0 time=60
note_on channel=0 note=47 velocity=62 time=0
note_on channel=0 note=47 velocity=0 time=60
note_on channel=0 note=45 velocity=62 time=0
note_on channel=0 note=45 velocity=0 time=60
note_on channel=0 note=66 velocity=0 time=0
note_on channel=0 note=71 velocity=0 time=0
note_on channel=0 note=74 velocity=0 time=0
note_on channel=0 note=76 velocity=61 time=0
note_on channel=0 note=71 velocity=46 time=0
note_on channel=0 note=67 velocity=45 time=0
note_on channel=0 note=47 velocity=62 time=0
note_on channel=0 note=47 velocity=0 time=60
note_on channel=0 note=43 velocity=62 time=0
<meta message set_tempo tempo=1052632 time=60>
note_on channel=0 note=43 velocity=0 time=0
note_on channel=0 note=67 velocity=0 time=0
note_on channel=0 note=71 velocity=0 time=0
note_on channel=0 note=76 velocity=0 time=0
note_on channel=0 note=73 velocity=66 time=0
note_on channel=0 note=69 velocity=49 time=0
note_on channel=0 note=64 velocity=48 time=0
note_on channel=0 note=45 velocity=66 time=0
note_on channel=0 note=73 velocity=0 time=40
note_on channel=0 note=74 velocity=66 time=0
note_on channel=0 note=74 velocity=0 time=40
note_on channel=0 note=73 velocity=66 time=0
note_on channel=0 note=73 velocity=0 time=40
note_on channel=0 note=74 velocity=66 time=0
note_on channel=0 note=74 velocity=0 time=40
note_on channel=0 note=73 velocity=66 time=0
note_on channel=0 note=73 velocity=0 time=40
note_on channel=0 note=74 velocity=66 time=0
note_on channel=0 note=74 velocity=0 time=40
note_on channel=0 note=73 velocity=66 time=0
<meta message set_tempo tempo=1188119 time=120>
note_on channel=0 note=73 velocity=0 time=0
note_on channel=0 note=45 velocity=0 time=0
note_on channel=0 note=74 velocity=61 time=0
note_on channel=0 note=45 velocity=62 time=0
<meta message set_tempo tempo=1000000 time=120>
note_on channel=0 note=45 velocity=0 time=0
note_on channel=0 note=69 velocity=0 time=0
note_on channel=0 note=64 velocity=0 time=0
note_on channel=0 note=74 velocity=0 time=0
note_on channel=0 note=74 velocity=64 time=0
note_on channel=0 note=69 velocity=49 time=0
note_on channel=0 note=66 velocity=48 time=0
note_on channel=0 note=38 velocity=66 time=0
note_on channel=0 note=38 velocity=0 time=360
note_on channel=0 note=50 velocity=62 time=0
note_on channel=0 note=50 velocity=0 time=40
note_on channel=0 note=52 velocity=62 time=0
note_on channel=0 note=52 velocity=0 time=40
note_on channel=0 note=54 velocity=62 time=0
note_on channel=0 note=54 velocity=0 time=40
note_on channel=0 note=66 velocity=0 time=0
note_on channel=0 note=69 velocity=0 time=0
note_on channel=0 note=74 velocity=0 time=0
note_on channel=0 note=71 velocity=64 time=0
note_on channel=0 note=55 velocity=66 time=0
note_on channel=0 note=71 velocity=0 time=60
note_on channel=0 note=73 velocity=64 time=0
note_on channel=0 note=73 velocity=0 time=60
note_on channel=0 note=74 velocity=64 time=0
note_on channel=0 note=74 velocity=0 time=60
note_on channel=0 note=76 velocity=64 time=0
note_on channel=0 note=76 velocity=0 time=60
note_on channel=0 note=74 velocity=64 time=0
note_on channel=0 note=74 velocity=0 time=60
note_on channel=0 note=73 velocity=64 time=0
note_on channel=0 note=73 velocity=0 time=60
note_on channel=0 note=74 velocity=64 time=0
note_on channel=0 note=74 velocity=0 time=60
note_on channel=0 note=71 velocity=64 time=0
note_on channel=0 note=71 velocity=0 time=60
note_on channel=0 note=55 velocity=0 time=0
note_on channel=0 note=76 velocity=64 time=0
note_on channel=0 note=71 velocity=49 time=0
note_on channel=0 note=64 velocity=48 time=0
note_on channel=0 note=49 velocity=60 time=0
note_on channel=0 note=49 velocity=0 time=60
note_on channel=0 note=50 velocity=61 time=0
note_on channel=0 note=50 velocity=0 time=60
note_on channel=0 note=52 velocity=61 time=0
note_on channel=0 note=52 velocity=0 time=60
note_on channel=0 note=54 velocity=59 time=0
note_on channel=0 note=54 velocity=0 time=60
note_on channel=0 note=52 velocity=61 time=0
note_on channel=0 note=52 velocity=0 time=60
note_on channel=0 note=50 velocity=61 time=0
note_on channel=0 note=50 velocity=0 time=60
note_on channel=0 note=52 velocity=61 time=0
note_on channel=0 note=52 velocity=0 time=60
note_on channel=0 note=49 velocity=61 time=0
note_on channel=0 note=49 velocity=0 time=60
note_on channel=0 note=64 velocity=0 time=0
note_on channel=0 note=71 velocity=0 time=0
note_on channel=0 note=76 velocity=0 time=0
note_on channel=0 note=69 velocity=64 time=0
note_on channel=0 note=54 velocity=64 time=0
note_on channel=0 note=69 velocity=0 time=60
note_on channel=0 note=71 velocity=64 time=0
note_on channel=0 note=71 velocity=0 time=60
note_on channel=0 note=73 velocity=64 time=0
note_on channel=0 note=73 velocity=0 time=60
note_on channel=0 note=74 velocity=64 time=0
note_on channel=0 note=74 velocity=0 time=60
note_on channel=0 note=73 velocity=64 time=0
note_on channel=0 note=73 velocity=0 time=60
note_on channel=0 note=71 velocity=64 time=0
note_on channel=0 note=71 velocity=0 time=60
note_on channel=0 note=73 velocity=64 time=0
note_on channel=0 note=73 velocity=0 time=60
note_on channel=0 note=69 velocity=64 time=0
note_on channel=0 note=69 velocity=0 time=60
note_on channel=0 note=54 velocity=0 time=0
note_on channel=0 note=74 velocity=72 time=0
note_on channel=0 note=69 velocity=49 time=0
note_on channel=0 note=62 velocity=48 time=0
note_on channel=0 note=47 velocity=67 time=0
note_on channel=0 note=47 velocity=0 time=60
note_on channel=0 note=49 velocity=67 time=0
note_on channel=0 note=49 velocity=0 time=60
note_on channel=0 note=50 velocity=67 time=0
note_on channel=0 note=50 velocity=0 time=60
note_on channel=0 note=52 velocity=67 time=0
note_on channel=0 note=52 velocity=0 time=60
note_on channel=0 note=50 velocity=67 time=0
note_on channel=0 note=50 velocity=0 time=60
note_on channel=0 note=49 velocity=67 time=0
note_on channel=0 note=49 velocity=0 time=60
note_on channel=0 note=50 velocity=67 time=0
note_on channel=0 note=50 velocity=0 time=60
note_on channel=0 note=47 velocity=67 time=0
note_on channel=0 note=47 velocity=0 time=60
note_on channel=0 note=62 velocity=0 time=0
note_on channel=0 note=69 velocity=0 time=0
note_on channel=0 note=74 velocity=0 time=0
note_on channel=0 note=67 velocity=64 time=0
note_on channel=0 note=52 velocity=60 time=0
note_on channel=0 note=52 velocity=0 time=60
note_on channel=0 note=67 velocity=0 time=0
note_on channel=0 note=69 velocity=64 time=0
note_on channel=0 note=54 velocity=60 time=0
note_on channel=0 note=54 velocity=0 time=60
note_on channel=0 note=69 velocity=0 time=0
note_on channel=0 note=71 velocity=64 time=0
note_on channel=0 note=55 velocity=60 time=0
note_on channel=0 note=55 velocity=0 time=60
note_on channel=0 note=71 velocity=0 time=0
note_on channel=0 note=72 velocity=65 time=0
note_on channel=0 note=57 velocity=60 time=0
note_on channel=0 note=57 velocity=0 time=60
note_on channel=0 note=72 velocity=0 time=0
note_on channel=0 note=71 velocity=65 time=0
note_on channel=0 note=55 velocity=60 time=0
note_on channel=0 note=55 velocity=0 time=60
note_on channel=0 note=71 velocity=0 time=0
note_on channel=0 note=69 velocity=66 time=0
note_on channel=0 note=54 velocity=61 time=0
note_on channel=0 note=54 velocity=0 time=60
note_on channel=0 note=69 velocity=0 time=0
note_on channel=0 note=71 velocity=66 time=0
note_on channel=0 note=55 velocity=61 time=0
note_on channel=0 note=55 velocity=0 time=60
note_on channel=0 note=71 velocity=0 time=0
note_on channel=0 note=67 velocity=66 time=0
note_on channel=0 note=52 velocity=61 time=0
<meta message set_tempo tempo=1000000 time=60>
note_on channel=0 note=52 velocity=0 time=0
note_on channel=0 note=67 velocity=0 time=0
note_on channel=0 note=73 velocity=66 time=0
note_on channel=0 note=57 velocity=62 time=0
note_on channel=0 note=57 velocity=0 time=60
note_on channel=0 note=73 velocity=0 time=0
note_on channel=0 note=74 velocity=66 time=0
note_on channel=0 note=59 velocity=62 time=0
note_on channel=0 note=59 velocity=0 time=60
note_on channel=0 note=74 velocity=0 time=0
note_on channel=0 note=76 velocity=67 time=0
note_on channel=0 note=61 velocity=62 time=0
note_on channel=0 note=61 velocity=0 time=60
note_on channel=0 note=76 velocity=0 time=0
note_on channel=0 note=78 velocity=67 time=0
note_on channel=0 note=62 velocity=62 time=0
note_on channel=0 note=62 velocity=0 time=60
note_on channel=0 note=78 velocity=0 time=0
note_on channel=0 note=76 velocity=68 time=0
note_on channel=0 note=61 velocity=63 time=0
<meta message set_tempo tempo=991736 time=40>
note_on channel=0 note=61 velocity=0 time=20
note_on channel=0 note=76 velocity=0 time=0
note_on channel=0 note=74 velocity=68 time=0
note_on channel=0 note=59 velocity=63 time=0
note_on channel=0 note=59 velocity=0 time=60
note_on channel=0 note=74 velocity=0 time=0
note_on channel=0 note=76 velocity=68 time=0
note_on channel=0 note=61 velocity=63 time=0
note_on channel=0 note=61 velocity=0 time=60
note_on channel=0 note=76 velocity=0 time=0
note_on channel=0 note=73 velocity=69 time=0
note_on channel=0 note=57 velocity=64 time=0
note_on channel=0 note=57 velocity=0 time=60
note_on channel=0 note=73 velocity=0 time=0
note_on channel=0 note=78 velocity=69 time=0
note_on channel=0 note=62 velocity=64 time=0
note_on channel=0 note=62 velocity=0 time=60
note_on channel=0 note=78 velocity=0 time=0
note_on channel=0 note=79 velocity=69 time=0
note_on channel=0 note=64 velocity=64 time=0
<meta message set_tempo tempo=983607 time=20>
note_on channel=0 note=64 velocity=0 time=40
note_on channel=0 note=79 velocity=0 time=0
note_on channel=0 note=81 velocity=69 time=0
note_on channel=0 note=66 velocity=64 time=0
note_on channel=0 note=66 velocity=0 time=60
note_on channel=0 note=81 velocity=0 time=0
note_on channel=0 note=83 velocity=69 time=0
note_on channel=0 note=67 velocity=64 time=0
note_on channel=0 note=67 velocity=0 time=60
note_on channel=0 note=83 velocity=0 time=0
note_on channel=0 note=81 velocity=70 time=0
note_on channel=0 note=66 velocity=65 time=0
note_on channel=0 note=66 velocity=0 time=60
note_on channel=0 note=81 velocity=0 time=0
note_on channel=0 note=79 velocity=70 time=0
note_on channel=0 note=64 velocity=65 time=0
<meta message set_tempo tempo=975610 time=40>
<meta message set_tempo tempo=1034483 time=20>
note_on channel=0 note=64 velocity=0 time=0
note_on channel=0 note=79 velocity=0 time=0
note_on channel=0 note=81 velocity=71 time=0
note_on channel=0 note=66 velocity=66 time=0
note_on channel=0 note=66 velocity=0 time=60
note_on channel=0 note=81 velocity=0 time=0
note_on channel=0 note=78 velocity=71 time=0
note_on channel=0 note=62 velocity=66 time=0
<meta message set_tempo tempo=1000000 time=60>
note_on channel=0 note=62 velocity=0 time=0
note_on channel=0 note=78 velocity=0 time=0
note_on channel=0 note=83 velocity=77 time=0
note_on channel=0 note=67 velocity=72 time=0
note_on channel=0 note=67 velocity=0 time=360
note_on channel=0 note=83 velocity=0 time=0
note_on channel=0 note=73 velocity=72 time=0
note_on channel=0 note=69 velocity=70 time=0
note_on channel=0 note=64 velocity=69 time=0
note_on channel=0 note=55 velocity=69 time=0
note_on channel=0 note=55 velocity=0 time=120
note_on channel=0 note=73 velocity=0 time=0
note_on channel=0 note=69 velocity=0 time=0
note_on channel=0 note=64 velocity=0 time=0
note_on channel=0 note=74 velocity=77 time=0
note_on channel=0 note=69 velocity=72 time=0
note_on channel=0 note=66 velocity=72 time=0
note_on channel=0 note=54 velocity=72 time=0
note_on channel=0 note=54 velocity=0 time=360
note_on channel=0 note=74 velocity=0 time=0
note_on channel=0 note=69 velocity=0 time=0
note_on channel=0 note=66 velocity=0 time=0
note_on channel=0 note=76 velocity=72 time=0
note_on channel=0 note=73 velocity=70 time=0
note_on channel=0 note=67 velocity=69 time=0
note_on channel=0 note=52 velocity=69 time=0
note_on channel=0 note=52 velocity=0 time=120
note_on channel=0 note=76 velocity=0 time=0
note_on channel=0 note=73 velocity=0 time=0
note_on channel=0 note=67 velocity=0 time=0
note_on channel=0 note=78 velocity=78 time=0
note_on channel=0 note=74 velocity=72 time=0
note_on channel=0 note=69 velocity=72 time=0
note_on channel=0 note=50 velocity=72 time=0
<meta message set_tempo tempo=1025641 time=360>
note_on channel=0 note=50 velocity=0 time=0
note_on channel=0 note=78 velocity=0 time=0
note_on channel=0 note=74 velocity=0 time=0
note_on channel=0 note=69 velocity=0 time=0
note_on channel=0 note=66 velocity=72 time=0
note_on channel=0 note=62 velocity=70 time=0
note_on channel=0 note=57 velocity=68 time=0
note_on channel=0 note=48 velocity=69 time=0
note_on channel=0 note=62 velocity=0 time=119
note_on channel=0 note=66 velocity=0 time=1
note_on channel=0 note=57 velocity=0 time=0
note_on channel=0 note=48 velocity=0 time=0
note_on channel=0 note=67 velocity=77 time=0
note_on channel=0 note=62 velocity=72 time=0
note_on channel=0 note=59 velocity=72 time=0
note_on channel=0 note=47 velocity=72 time=0
note_on channel=0 note=47 velocity=0 time=360
note_on channel=0 note=67 velocity=0 time=0
note_on channel=0 note=62 velocity=0 time=0
note_on channel=0 note=59 velocity=0 time=0
note_on channel=0 note=69 velocity=72 time=0
note_on channel=0 note=66 velocity=69 time=0
note_on channel=0 note=60 velocity=68 time=0
note_on channel=0 note=45 velocity=68 time=0
note_on channel=0 note=45 velocity=0 time=120
note_on channel=0 note=69 velocity=0 time=0
note_on channel=0 note=66 velocity=0 time=0
note_on channel=0 note=60 velocity=0 time=0
note_on channel=0 note=71 velocity=76 time=0
note_on channel=0 note=67 velocity=72 time=0
note_on channel=0 note=62 velocity=72 time=0
note_on channel=0 note=43 velocity=72 time=0
note_on channel=0 note=43 velocity=0 time=360
note_on channel=0 note=71 velocity=0 time=0
note_on channel=0 note=67 velocity=0 time=0
note_on channel=0 note=62 velocity=0 time=0
note_on channel=0 note=71 velocity=72 time=0
note_on channel=0 note=62 velocity=69 time=0
note_on channel=0 note=67 velocity=68 time=0
note_on channel=0 note=42 velocity=68 time=0
note_on channel=0 note=42 velocity=0 time=120
note_on channel=0 note=71 velocity=0 time=0
note_on channel=0 note=62 velocity=0 time=0
note_on channel=0 note=67 velocity=0 time=0
note_on channel=0 note=73 velocity=76 time=0
note_on channel=0 note=64 velocity=72 time=0
note_on channel=0 note=67 velocity=72 time=0
note_on channel=0 note=40 velocity=72 time=0
<meta message set_tempo tempo=1081081 time=360>
note_on channel=0 note=40 velocity=0 time=0
note_on channel=0 note=73 velocity=0 time=0
note_on channel=0 note=64 velocity=0 time=0
note_on channel=0 note=67 velocity=0 time=0
note_on channel=0 note=74 velocity=72 time=0
note_on channel=0 note=66 velocity=69 time=0
note_on channel=0 note=69 velocity=68 time=0
note_on channel=0 note=38 velocity=68 time=0
note_on channel=0 note=66 velocity=0 time=118
<meta message set_tempo tempo=1132075 time=2>
note_on channel=0 note=74 velocity=0 time=0
note_on channel=0 note=69 velocity=0 time=0
note_on channel=0 note=38 velocity=0 time=0
note_on channel=0 note=66 velocity=77 time=0
note_on channel=0 note=62 velocity=72 time=0
note_on channel=0 note=57 velocity=72 time=0
note_on channel=0 note=45 velocity=72 time=0
<meta message set_tempo tempo=1176471 time=480>
note_on channel=0 note=57 velocity=0 time=0
note_on channel=0 note=66 velocity=0 time=0
note_on channel=0 note=62 velocity=0 time=0
note_on channel=0 note=64 velocity=76 time=0
note_on channel=0 note=61 velocity=72 time=0
note_on channel=0 note=55 velocity=72 time=0
note_on channel=0 note=55 velocity=0 time=480
note_on channel=0 note=45 velocity=0 time=0
note_on channel=0 note=64 velocity=0 time=0
note_on channel=0 note=61 velocity=0 time=0
note_on channel=0 note=62 velocity=76 time=0
note_on channel=0 note=57 velocity=72 time=0
note_on channel=0 note=54 velocity=70 time=0
note_on channel=0 note=38 velocity=66 time=0
<meta message marker text='Fine' time=1920>
note_on channel=0 note=38 velocity=0 time=0
note_on channel=0 note=62 velocity=0 time=0
note_on channel=0 note=57 velocity=0 time=0
note_on channel=0 note=54 velocity=0 time=0
<meta message end_of_track time=0>
