<meta message track_name name='Sonate Nr. 23 Op. 57' time=0>
<meta message track_name name='Appassionata' time=0>
<meta message copyright text='Copyright © 2001 by Bernd Krueger' time=0>
<meta message text text='Ludwig van Beethoven' time=0>
<meta message text text='Allegro assai' time=0>
<meta message text text='Fertiggestellt am 26.9.2001\n' time=0>
<meta message text text='Update am 23.10.01\n' time=0>
<meta message text text='Normierung: 23.12.2002\n' time=0>
<meta message text text='Update am 21.7.2012\n' time=0>
<meta message text text='Dauer: 9:22 Minuten\n' time=0>
<meta message smpte_offset frame_rate=25 hours=32 minutes=0 seconds=3 frames=0 sub_frames=0 time=0>
<meta message time_signature numerator=12 denominator=8 clocks_per_click=12 notated_32nd_notes_per_beat=8 time=0>
<meta message key_signature key='Ab' time=0>
<meta message set_tempo tempo=361816 time=0>
program_change channel=0 program=0 time=0
control_change channel=0 control=7 value=100 time=0
control_change channel=0 control=10 value=64 time=0
<meta message text text='bdca426d104a26ac9dcb070447587523' time=0>
control_change channel=0 control=91 value=127 time=0
program_change channel=0 program=0 time=0
control_change channel=0 control=7 value=100 time=0
control_change channel=0 control=10 value=64 time=0
control_change channel=0 control=64 value=0 time=14
<meta message set_tempo tempo=383779 time=2146>
note_on channel=0 note=60 velocity=35 time=0
note_on channel=0 note=36 velocity=27 time=0
<meta message set_tempo tempo=435667 time=240>
<meta message set_tempo tempo=546398 time=360>
note_on channel=0 note=36 velocity=0 time=0
note_on channel=0 note=60 velocity=0 time=0
note_on channel=0 note=56 velocity=31 time=0
note_on channel=0 note=32 velocity=25 time=0
<meta message set_tempo tempo=370966 time=120>
note_on channel=0 note=32 velocity=0 time=0
note_on channel=0 note=56 velocity=0 time=0
note_on channel=0 note=53 velocity=28 time=0
note_on channel=0 note=29 velocity=22 time=0
note_on channel=0 note=29 velocity=0 time=2160
note_on channel=0 note=53 velocity=0 time=0
note_on channel=0 note=56 velocity=35 time=0
note_on channel=0 note=32 velocity=27 time=0
<meta message set_tempo tempo=389130 time=240>
<meta message set_tempo tempo=429707 time=360>
note_on channel=0 note=32 velocity=0 time=0
note_on channel=0 note=56 velocity=0 time=0
note_on channel=0 note=60 velocity=30 time=0
note_on channel=0 note=36 velocity=24 time=0
<meta message set_tempo tempo=352195 time=120>
note_on channel=0 note=36 velocity=0 time=0
note_on channel=0 note=60 velocity=0 time=0
note_on channel=0 note=65 velocity=35 time=0
note_on channel=0 note=41 velocity=27 time=0
<meta message set_tempo tempo=370966 time=720>
note_on channel=0 note=41 velocity=0 time=0
note_on channel=0 note=65 velocity=0 time=0
note_on channel=0 note=68 velocity=35 time=0
note_on channel=0 note=44 velocity=27 time=0
<meta message set_tempo tempo=376813 time=240>
<meta message set_tempo tempo=406201 time=360>
note_on channel=0 note=44 velocity=0 time=0
note_on channel=0 note=68 velocity=0 time=0
note_on channel=0 note=72 velocity=30 time=0
note_on channel=0 note=48 velocity=24 time=0
<meta message set_tempo tempo=370966 time=120>
note_on channel=0 note=48 velocity=0 time=0
note_on channel=0 note=72 velocity=0 time=0
note_on channel=0 note=77 velocity=35 time=0
note_on channel=0 note=53 velocity=27 time=0
<meta message set_tempo tempo=391901 time=480>
note_on channel=0 note=53 velocity=0 time=230
note_on channel=0 note=77 velocity=0 time=0
<meta message set_tempo tempo=370966 time=10>
note_on channel=0 note=65 velocity=33 time=0
note_on channel=0 note=56 velocity=26 time=0
note_on channel=0 note=56 velocity=0 time=720
note_on channel=0 note=65 velocity=0 time=0
note_on channel=0 note=72 velocity=35 time=0
note_on channel=0 note=55 velocity=26 time=0
note_on channel=0 note=60 velocity=26 time=0
note_on channel=0 note=52 velocity=26 time=0
control_change channel=0 control=64 value=127 time=309
<meta message set_tempo tempo=397483 time=891>
note_on channel=0 note=72 velocity=0 time=0
note_on channel=0 note=74 velocity=33 time=0
note_on channel=0 note=74 velocity=0 time=180
note_on channel=0 note=72 velocity=31 time=0
<meta message set_tempo tempo=346821 time=60>
note_on channel=0 note=72 velocity=0 time=0
note_on channel=0 note=55 velocity=0 time=0
note_on channel=0 note=60 velocity=0 time=0
note_on channel=0 note=52 velocity=0 time=0
note_on channel=0 note=74 velocity=32 time=0
note_on channel=0 note=53 velocity=26 time=0
note_on channel=0 note=59 velocity=26 time=0
note_on channel=0 note=56 velocity=26 time=0
control_change channel=0 control=64 value=0 time=12
<meta message set_tempo tempo=345821 time=28>
<meta message set_tempo tempo=344828 time=40>
note_on channel=0 note=74 velocity=0 time=0
note_on channel=0 note=76 velocity=28 time=0
<meta message set_tempo tempo=343840 time=20>
control_change channel=0 control=64 value=127 time=0
<meta message set_tempo tempo=342857 time=40>
note_on channel=0 note=76 velocity=0 time=20
note_on channel=0 note=74 velocity=32 time=0
<meta message set_tempo tempo=341880 time=20>
<meta message set_tempo tempo=340909 time=20>
<meta message set_tempo tempo=339943 time=40>
note_on channel=0 note=74 velocity=0 time=0
note_on channel=0 note=76 velocity=28 time=0
<meta message set_tempo tempo=338983 time=40>
<meta message set_tempo tempo=338028 time=20>
note_on channel=0 note=76 velocity=0 time=20
note_on channel=0 note=74 velocity=32 time=0
<meta message set_tempo tempo=337079 time=20>
<meta message set_tempo tempo=336134 time=40>
<meta message set_tempo tempo=335196 time=20>
note_on channel=0 note=74 velocity=0 time=0
note_on channel=0 note=76 velocity=29 time=0
<meta message set_tempo tempo=334262 time=40>
<meta message set_tempo tempo=333333 time=20>
<meta message set_tempo tempo=334262 time=20>
note_on channel=0 note=76 velocity=0 time=0
note_on channel=0 note=74 velocity=32 time=0
<meta message set_tempo tempo=335196 time=40>
note_on channel=0 note=74 velocity=0 time=40
note_on channel=0 note=76 velocity=28 time=0
<meta message set_tempo tempo=336134 time=40>
<meta message set_tempo tempo=337079 time=40>
note_on channel=0 note=76 velocity=0 time=0
note_on channel=0 note=74 velocity=31 time=0
<meta message set_tempo tempo=338028 time=40>
note_on channel=0 note=74 velocity=0 time=40
note_on channel=0 note=76 velocity=29 time=0
<meta message set_tempo tempo=338983 time=40>
<meta message set_tempo tempo=339943 time=40>
note_on channel=0 note=76 velocity=0 time=0
note_on channel=0 note=74 velocity=27 time=0
<meta message set_tempo tempo=340909 time=40>
note_on channel=0 note=74 velocity=0 time=40
note_on channel=0 note=76 velocity=32 time=0
<meta message set_tempo tempo=341880 time=40>
<meta message set_tempo tempo=341880 time=20>
<meta message set_tempo tempo=347826 time=20>
note_on channel=0 note=76 velocity=0 time=0
note_on channel=0 note=74 velocity=27 time=0
<meta message set_tempo tempo=353982 time=20>
<meta message set_tempo tempo=360360 time=20>
<meta message set_tempo tempo=366972 time=20>
<meta message set_tempo tempo=373832 time=20>
<meta message set_tempo tempo=382166 time=20>
<meta message set_tempo tempo=421556 time=20>
note_on channel=0 note=74 velocity=0 time=0
note_on channel=0 note=72 velocity=28 time=0
note_on channel=0 note=72 velocity=0 time=120
note_on channel=0 note=76 velocity=31 time=0
<meta message set_tempo tempo=461858 time=120>
note_on channel=0 note=76 velocity=0 time=0
note_on channel=0 note=74 velocity=28 time=0
note_on channel=0 note=74 velocity=0 time=120
note_on channel=0 note=56 velocity=0 time=0
note_on channel=0 note=59 velocity=0 time=0
note_on channel=0 note=53 velocity=0 time=0
note_on channel=0 note=72 velocity=35 time=0
note_on channel=0 note=55 velocity=22 time=0
note_on channel=0 note=52 velocity=19 time=0
note_on channel=0 note=60 velocity=26 time=0
control_change channel=0 control=64 value=0 time=8
note_on channel=0 note=60 velocity=0 time=472
note_on channel=0 note=72 velocity=0 time=0
note_on channel=0 note=55 velocity=0 time=0
note_on channel=0 note=52 velocity=0 time=0
<meta message set_tempo tempo=383779 time=1680>
note_on channel=0 note=61 velocity=35 time=0
note_on channel=0 note=37 velocity=27 time=0
<meta message set_tempo tempo=408497 time=240>
<meta message set_tempo tempo=544119 time=360>
note_on channel=0 note=37 velocity=0 time=0
note_on channel=0 note=61 velocity=0 time=0
note_on channel=0 note=58 velocity=31 time=0
note_on channel=0 note=34 velocity=25 time=0
<meta message set_tempo tempo=370966 time=120>
note_on channel=0 note=34 velocity=0 time=0
note_on channel=0 note=58 velocity=0 time=0
note_on channel=0 note=54 velocity=28 time=0
note_on channel=0 note=30 velocity=22 time=0
<meta message set_tempo tempo=383779 time=1440>
note_on channel=0 note=30 velocity=0 time=720
note_on channel=0 note=54 velocity=0 time=0
note_on channel=0 note=58 velocity=35 time=0
note_on channel=0 note=34 velocity=27 time=0
<meta message set_tempo tempo=396170 time=240>
<meta message set_tempo tempo=429707 time=360>
note_on channel=0 note=34 velocity=0 time=0
note_on channel=0 note=58 velocity=0 time=0
note_on channel=0 note=61 velocity=30 time=0
note_on channel=0 note=37 velocity=24 time=0
<meta message set_tempo tempo=352195 time=120>
note_on channel=0 note=37 velocity=0 time=0
note_on channel=0 note=61 velocity=0 time=0
note_on channel=0 note=66 velocity=35 time=0
note_on channel=0 note=42 velocity=27 time=0
<meta message set_tempo tempo=370966 time=720>
note_on channel=0 note=42 velocity=0 time=0
note_on channel=0 note=66 velocity=0 time=0
note_on channel=0 note=70 velocity=35 time=0
note_on channel=0 note=46 velocity=27 time=0
<meta message set_tempo tempo=373576 time=240>
<meta message set_tempo tempo=406201 time=360>
note_on channel=0 note=46 velocity=0 time=0
note_on channel=0 note=70 velocity=0 time=0
note_on channel=0 note=73 velocity=30 time=0
note_on channel=0 note=49 velocity=24 time=0
<meta message set_tempo tempo=370966 time=120>
note_on channel=0 note=49 velocity=0 time=0
note_on channel=0 note=73 velocity=0 time=0
note_on channel=0 note=78 velocity=34 time=0
note_on channel=0 note=54 velocity=29 time=0
<meta message set_tempo tempo=391901 time=480>
<meta message set_tempo tempo=370966 time=240>
note_on channel=0 note=54 velocity=0 time=0
note_on channel=0 note=78 velocity=0 time=0
note_on channel=0 note=66 velocity=33 time=0
note_on channel=0 note=58 velocity=26 time=0
note_on channel=0 note=58 velocity=0 time=720
note_on channel=0 note=66 velocity=0 time=0
note_on channel=0 note=73 velocity=35 time=0
note_on channel=0 note=53 velocity=26 time=0
note_on channel=0 note=61 velocity=26 time=0
note_on channel=0 note=56 velocity=26 time=0
control_change channel=0 control=64 value=127 time=328
<meta message set_tempo tempo=397483 time=872>
note_on channel=0 note=73 velocity=0 time=0
note_on channel=0 note=75 velocity=32 time=0
note_on channel=0 note=75 velocity=0 time=180
note_on channel=0 note=73 velocity=31 time=0
<meta message set_tempo tempo=347826 time=40>
<meta message set_tempo tempo=353982 time=20>
note_on channel=0 note=73 velocity=0 time=0
note_on channel=0 note=53 velocity=0 time=0
note_on channel=0 note=61 velocity=0 time=0
note_on channel=0 note=56 velocity=0 time=0
note_on channel=0 note=75 velocity=30 time=0
note_on channel=0 note=57 velocity=26 time=0
note_on channel=0 note=60 velocity=26 time=0
note_on channel=0 note=54 velocity=26 time=0
control_change channel=0 control=64 value=0 time=11
<meta message set_tempo tempo=352941 time=29>
<meta message set_tempo tempo=351906 time=20>
<meta message set_tempo tempo=350877 time=20>
note_on channel=0 note=75 velocity=0 time=0
note_on channel=0 note=77 velocity=27 time=0
control_change channel=0 control=64 value=127 time=12
<meta message set_tempo tempo=349854 time=8>
<meta message set_tempo tempo=348837 time=20>
<meta message set_tempo tempo=347826 time=20>
<meta message set_tempo tempo=346821 time=20>
note_on channel=0 note=77 velocity=0 time=0
note_on channel=0 note=75 velocity=30 time=0
<meta message set_tempo tempo=345821 time=40>
<meta message set_tempo tempo=344828 time=20>
<meta message set_tempo tempo=343840 time=20>
note_on channel=0 note=75 velocity=0 time=0
note_on channel=0 note=77 velocity=27 time=0
<meta message set_tempo tempo=342857 time=20>
<meta message set_tempo tempo=341880 time=20>
<meta message set_tempo tempo=340909 time=20>
<meta message set_tempo tempo=339943 time=20>
note_on channel=0 note=77 velocity=0 time=0
note_on channel=0 note=75 velocity=30 time=0
<meta message set_tempo tempo=338983 time=40>
<meta message set_tempo tempo=338028 time=20>
<meta message set_tempo tempo=337079 time=20>
note_on channel=0 note=75 velocity=0 time=0
note_on channel=0 note=77 velocity=27 time=0
<meta message set_tempo tempo=336134 time=20>
<meta message set_tempo tempo=335196 time=20>
<meta message set_tempo tempo=334262 time=20>
<meta message set_tempo tempo=333333 time=20>
note_on channel=0 note=77 velocity=0 time=0
note_on channel=0 note=75 velocity=29 time=0
<meta message set_tempo tempo=334262 time=20>
<meta message set_tempo tempo=333333 time=20>
note_on channel=0 note=75 velocity=0 time=40
note_on channel=0 note=77 velocity=27 time=0
<meta message set_tempo tempo=334262 time=40>
<meta message set_tempo tempo=335196 time=40>
note_on channel=0 note=77 velocity=0 time=0
note_on channel=0 note=75 velocity=29 time=0
<meta message set_tempo tempo=336134 time=40>
<meta message set_tempo tempo=337079 time=40>
note_on channel=0 note=75 velocity=0 time=0
note_on channel=0 note=77 velocity=28 time=0
<meta message set_tempo tempo=338028 time=80>
note_on channel=0 note=77 velocity=0 time=0
note_on channel=0 note=75 velocity=30 time=0
<meta message set_tempo tempo=338983 time=40>
<meta message set_tempo tempo=339943 time=40>
note_on channel=0 note=75 velocity=0 time=0
note_on channel=0 note=77 velocity=28 time=0
<meta message set_tempo tempo=341880 time=20>
<meta message set_tempo tempo=345821 time=20>
<meta message set_tempo tempo=350877 time=20>
<meta message set_tempo tempo=355030 time=20>
note_on channel=0 note=77 velocity=0 time=0
note_on channel=0 note=75 velocity=26 time=0
<meta message set_tempo tempo=360360 time=20>
<meta message set_tempo tempo=365854 time=20>
<meta message set_tempo tempo=370370 time=20>
<meta message set_tempo tempo=376176 time=20>
<meta message set_tempo tempo=382166 time=20>
<meta message set_tempo tempo=421556 time=20>
note_on channel=0 note=75 velocity=0 time=0
note_on channel=0 note=73 velocity=28 time=0
note_on channel=0 note=73 velocity=0 time=120
note_on channel=0 note=77 velocity=31 time=0
<meta message set_tempo tempo=461858 time=120>
note_on channel=0 note=77 velocity=0 time=0
note_on channel=0 note=75 velocity=29 time=0
<meta message set_tempo tempo=372532 time=120>
note_on channel=0 note=75 velocity=0 time=0
note_on channel=0 note=54 velocity=0 time=0
note_on channel=0 note=60 velocity=0 time=0
note_on channel=0 note=57 velocity=0 time=0
note_on channel=0 note=73 velocity=35 time=0
note_on channel=0 note=53 velocity=19 time=0
note_on channel=0 note=56 velocity=22 time=0
note_on channel=0 note=61 velocity=26 time=0
control_change channel=0 control=64 value=0 time=9
note_on channel=0 note=61 velocity=0 time=471
note_on channel=0 note=73 velocity=0 time=0
note_on channel=0 note=53 velocity=0 time=0
note_on channel=0 note=56 velocity=0 time=0
<meta message set_tempo tempo=370416 time=2400>
note_on channel=0 note=72 velocity=35 time=0
note_on channel=0 note=67 velocity=26 time=0
note_on channel=0 note=64 velocity=26 time=0
control_change channel=0 control=64 value=127 time=289
<meta message set_tempo tempo=397483 time=911>
note_on channel=0 note=72 velocity=0 time=0
note_on channel=0 note=74 velocity=42 time=0
note_on channel=0 note=74 velocity=0 time=180
note_on channel=0 note=72 velocity=38 time=0
<meta message set_tempo tempo=338983 time=60>
note_on channel=0 note=72 velocity=0 time=0
note_on channel=0 note=64 velocity=0 time=0
note_on channel=0 note=67 velocity=0 time=0
note_on channel=0 note=74 velocity=43 time=0
note_on channel=0 note=68 velocity=26 time=0
note_on channel=0 note=71 velocity=26 time=0
note_on channel=0 note=65 velocity=26 time=0
control_change channel=0 control=64 value=0 time=7
control_change channel=0 control=64 value=127 time=62
<meta message set_tempo tempo=338028 time=11>
note_on channel=0 note=74 velocity=0 time=0
note_on channel=0 note=76 velocity=35 time=0
<meta message set_tempo tempo=337079 time=80>
note_on channel=0 note=76 velocity=0 time=0
note_on channel=0 note=74 velocity=40 time=0
<meta message set_tempo tempo=336134 time=40>
note_on channel=0 note=74 velocity=0 time=40
note_on channel=0 note=76 velocity=36 time=0
<meta message set_tempo tempo=335196 time=40>
<meta message set_tempo tempo=334262 time=40>
note_on channel=0 note=76 velocity=0 time=0
note_on channel=0 note=74 velocity=39 time=0
<meta message set_tempo tempo=333333 time=80>
note_on channel=0 note=74 velocity=0 time=0
note_on channel=0 note=76 velocity=36 time=0
<meta message set_tempo tempo=332410 time=40>
note_on channel=0 note=76 velocity=0 time=40
note_on channel=0 note=74 velocity=41 time=0
<meta message set_tempo tempo=333333 time=40>
<meta message set_tempo tempo=334262 time=40>
note_on channel=0 note=74 velocity=0 time=0
note_on channel=0 note=76 velocity=37 time=0
<meta message set_tempo tempo=335196 time=80>
note_on channel=0 note=76 velocity=0 time=0
note_on channel=0 note=74 velocity=40 time=0
<meta message set_tempo tempo=336134 time=40>
<meta message set_tempo tempo=337079 time=40>
note_on channel=0 note=74 velocity=0 time=0
note_on channel=0 note=76 velocity=35 time=0
<meta message set_tempo tempo=337079 time=20>
<meta message set_tempo tempo=338028 time=60>
note_on channel=0 note=76 velocity=0 time=0
note_on channel=0 note=74 velocity=31 time=0
<meta message set_tempo tempo=338983 time=40>
<meta message set_tempo tempo=339943 time=40>
note_on channel=0 note=74 velocity=0 time=0
note_on channel=0 note=76 velocity=37 time=0
<meta message set_tempo tempo=343840 time=20>
<meta message set_tempo tempo=347826 time=20>
<meta message set_tempo tempo=351906 time=20>
<meta message set_tempo tempo=356083 time=20>
note_on channel=0 note=76 velocity=0 time=0
note_on channel=0 note=74 velocity=33 time=0
<meta message set_tempo tempo=361446 time=20>
<meta message set_tempo tempo=365854 time=20>
<meta message set_tempo tempo=370370 time=20>
<meta message set_tempo tempo=375000 time=20>
<meta message set_tempo tempo=380952 time=20>
<meta message set_tempo tempo=421556 time=20>
note_on channel=0 note=74 velocity=0 time=0
note_on channel=0 note=72 velocity=33 time=0
note_on channel=0 note=72 velocity=0 time=120
note_on channel=0 note=76 velocity=37 time=0
<meta message set_tempo tempo=461858 time=120>
note_on channel=0 note=76 velocity=0 time=0
note_on channel=0 note=74 velocity=33 time=0
<meta message set_tempo tempo=345085 time=120>
note_on channel=0 note=74 velocity=0 time=0
note_on channel=0 note=65 velocity=0 time=0
note_on channel=0 note=71 velocity=0 time=0
note_on channel=0 note=68 velocity=0 time=0
note_on channel=0 note=72 velocity=35 time=0
note_on channel=0 note=64 velocity=22 time=0
note_on channel=0 note=67 velocity=26 time=0
control_change channel=0 control=64 value=0 time=0
note_on channel=0 note=67 velocity=0 time=480
note_on channel=0 note=64 velocity=0 time=0
note_on channel=0 note=72 velocity=0 time=0
<meta message set_tempo tempo=397351 time=240>
note_on channel=0 note=37 velocity=27 time=0
<meta message set_tempo tempo=376176 time=40>
note_on channel=0 note=37 velocity=0 time=80
<meta message set_tempo tempo=380952 time=120>
note_on channel=0 note=37 velocity=26 time=0
note_on channel=0 note=37 velocity=0 time=120
<meta message set_tempo tempo=385852 time=120>
note_on channel=0 note=37 velocity=26 time=0
note_on channel=0 note=37 velocity=0 time=120
<meta message set_tempo tempo=372532 time=120>
note_on channel=0 note=36 velocity=26 time=0
note_on channel=0 note=36 velocity=0 time=240
<meta message set_tempo tempo=370416 time=1200>
note_on channel=0 note=76 velocity=35 time=0
note_on channel=0 note=67 velocity=26 time=0
note_on channel=0 note=73 velocity=26 time=0
note_on channel=0 note=70 velocity=26 time=0
control_change channel=0 control=64 value=127 time=353
<meta message set_tempo tempo=397483 time=847>
note_on channel=0 note=76 velocity=0 time=0
note_on channel=0 note=77 velocity=38 time=0
<meta message set_tempo tempo=378549 time=220>
<meta message set_tempo tempo=334262 time=20>
note_on channel=0 note=77 velocity=0 time=0
note_on channel=0 note=70 velocity=0 time=0
note_on channel=0 note=73 velocity=0 time=0
note_on channel=0 note=67 velocity=0 time=0
note_on channel=0 note=77 velocity=39 time=0
note_on channel=0 note=70 velocity=26 time=0
note_on channel=0 note=73 velocity=26 time=0
note_on channel=0 note=68 velocity=26 time=0
control_change channel=0 control=64 value=0 time=12
<meta message set_tempo tempo=333333 time=68>
note_on channel=0 note=77 velocity=0 time=0
note_on channel=0 note=79 velocity=34 time=0
control_change channel=0 control=64 value=127 time=8
<meta message set_tempo tempo=332410 time=72>
note_on channel=0 note=79 velocity=0 time=0
note_on channel=0 note=77 velocity=39 time=0
<meta message set_tempo tempo=331492 time=80>
note_on channel=0 note=77 velocity=0 time=0
note_on channel=0 note=79 velocity=35 time=0
<meta message set_tempo tempo=330579 time=80>
note_on channel=0 note=79 velocity=0 time=0
note_on channel=0 note=77 velocity=39 time=0
<meta message set_tempo tempo=329670 time=80>
note_on channel=0 note=77 velocity=0 time=0
note_on channel=0 note=79 velocity=35 time=0
<meta message set_tempo tempo=328767 time=80>
note_on channel=0 note=79 velocity=0 time=0
note_on channel=0 note=77 velocity=39 time=0
<meta message set_tempo tempo=329670 time=80>
note_on channel=0 note=77 velocity=0 time=0
note_on channel=0 note=79 velocity=35 time=0
<meta message set_tempo tempo=330579 time=80>
note_on channel=0 note=79 velocity=0 time=0
note_on channel=0 note=77 velocity=39 time=0
<meta message set_tempo tempo=331492 time=40>
note_on channel=0 note=77 velocity=0 time=40
note_on channel=0 note=79 velocity=36 time=0
<meta message set_tempo tempo=332410 time=40>
note_on channel=0 note=79 velocity=0 time=40
note_on channel=0 note=77 velocity=33 time=0
<meta message set_tempo tempo=333333 time=40>
<meta message set_tempo tempo=334262 time=40>
note_on channel=0 note=77 velocity=0 time=0
note_on channel=0 note=79 velocity=39 time=0
<meta message set_tempo tempo=335196 time=80>
note_on channel=0 note=79 velocity=0 time=0
note_on channel=0 note=77 velocity=33 time=0
<meta message set_tempo tempo=336134 time=40>
<meta message set_tempo tempo=421556 time=80>
note_on channel=0 note=77 velocity=0 time=0
note_on channel=0 note=76 velocity=34 time=0
note_on channel=0 note=76 velocity=0 time=120
note_on channel=0 note=79 velocity=40 time=0
<meta message set_tempo tempo=461858 time=120>
note_on channel=0 note=79 velocity=0 time=0
note_on channel=0 note=77 velocity=35 time=0
<meta message set_tempo tempo=346001 time=120>
note_on channel=0 note=77 velocity=0 time=0
note_on channel=0 note=68 velocity=0 time=0
note_on channel=0 note=73 velocity=0 time=0
note_on channel=0 note=70 velocity=0 time=0
note_on channel=0 note=76 velocity=35 time=0
note_on channel=0 note=67 velocity=22 time=0
note_on channel=0 note=70 velocity=22 time=0
note_on channel=0 note=73 velocity=26 time=0
control_change channel=0 control=64 value=0 time=15
note_on channel=0 note=73 velocity=0 time=465
note_on channel=0 note=76 velocity=0 time=0
note_on channel=0 note=67 velocity=0 time=0
note_on channel=0 note=70 velocity=0 time=0
<meta message set_tempo tempo=378549 time=240>
note_on channel=0 note=37 velocity=27 time=0
note_on channel=0 note=37 velocity=0 time=120
<meta message set_tempo tempo=382166 time=120>
note_on channel=0 note=37 velocity=26 time=0
note_on channel=0 note=37 velocity=0 time=120
<meta message set_tempo tempo=388350 time=120>
note_on channel=0 note=37 velocity=26 time=0
note_on channel=0 note=37 velocity=0 time=120
<meta message set_tempo tempo=371471 time=120>
note_on channel=0 note=36 velocity=26 time=0
note_on channel=0 note=36 velocity=0 time=240
<meta message set_tempo tempo=492975 time=480>
note_on channel=0 note=76 velocity=35 time=0
note_on channel=0 note=79 velocity=35 time=0
note_on channel=0 note=79 velocity=0 time=240
note_on channel=0 note=76 velocity=0 time=0
note_on channel=0 note=79 velocity=31 time=0
note_on channel=0 note=76 velocity=31 time=0
<meta message set_tempo tempo=535189 time=240>
note_on channel=0 note=76 velocity=0 time=0
note_on channel=0 note=79 velocity=0 time=0
note_on channel=0 note=76 velocity=35 time=0
note_on channel=0 note=79 velocity=35 time=0
<meta message set_tempo tempo=446097 time=240>
note_on channel=0 note=79 velocity=0 time=0
note_on channel=0 note=76 velocity=0 time=0
note_on channel=0 note=79 velocity=35 time=0
note_on channel=0 note=82 velocity=35 time=0
note_on channel=0 note=82 velocity=0 time=480
note_on channel=0 note=79 velocity=0 time=0
<meta message set_tempo tempo=530879 time=240>
note_on channel=0 note=37 velocity=27 time=0
<meta message set_tempo tempo=558036 time=240>
note_on channel=0 note=37 velocity=0 time=0
note_on channel=0 note=37 velocity=26 time=0
<meta message set_tempo tempo=604290 time=240>
note_on channel=0 note=37 velocity=0 time=0
note_on channel=0 note=37 velocity=26 time=0
note_on channel=0 note=37 velocity=0 time=240
note_on channel=0 note=36 velocity=26 time=0
<meta message set_tempo tempo=588235 time=240>
note_on channel=0 note=36 velocity=0 time=240
<meta message set_tempo tempo=476190 time=240>
note_on channel=0 note=82 velocity=83 time=0
note_on channel=0 note=79 velocity=83 time=0
<meta message set_tempo tempo=497925 time=240>
note_on channel=0 note=79 velocity=0 time=0
note_on channel=0 note=82 velocity=0 time=0
note_on channel=0 note=82 velocity=77 time=0
note_on channel=0 note=79 velocity=77 time=0
<meta message set_tempo tempo=524017 time=240>
note_on channel=0 note=79 velocity=0 time=0
note_on channel=0 note=82 velocity=0 time=0
note_on channel=0 note=79 velocity=83 time=0
note_on channel=0 note=82 velocity=83 time=0
<meta message set_tempo tempo=331492 time=240>
note_on channel=0 note=82 velocity=0 time=0
note_on channel=0 note=79 velocity=0 time=0
note_on channel=0 note=88 velocity=85 time=0
control_change channel=0 control=64 value=127 time=52
note_on channel=0 note=88 velocity=0 time=68
note_on channel=0 note=82 velocity=76 time=0
<meta message set_tempo tempo=330579 time=80>
note_on channel=0 note=82 velocity=0 time=40
note_on channel=0 note=91 velocity=85 time=0
<meta message set_tempo tempo=329670 time=120>
note_on channel=0 note=91 velocity=0 time=0
note_on channel=0 note=88 velocity=75 time=0
note_on channel=0 note=88 velocity=0 time=120
note_on channel=0 note=94 velocity=85 time=0
<meta message set_tempo tempo=328767 time=80>
note_on channel=0 note=94 velocity=0 time=40
note_on channel=0 note=91 velocity=76 time=0
<meta message set_tempo tempo=327869 time=120>
note_on channel=0 note=91 velocity=0 time=0
note_on channel=0 note=88 velocity=85 time=0
note_on channel=0 note=88 velocity=0 time=120
note_on channel=0 note=91 velocity=76 time=0
<meta message set_tempo tempo=326975 time=80>
note_on channel=0 note=91 velocity=0 time=40
note_on channel=0 note=82 velocity=83 time=0
<meta message set_tempo tempo=326087 time=120>
note_on channel=0 note=82 velocity=0 time=0
note_on channel=0 note=88 velocity=75 time=0
note_on channel=0 note=88 velocity=0 time=120
note_on channel=0 note=79 velocity=83 time=0
<meta message set_tempo tempo=325203 time=80>
note_on channel=0 note=79 velocity=0 time=40
note_on channel=0 note=82 velocity=74 time=0
<meta message set_tempo tempo=324324 time=120>
note_on channel=0 note=82 velocity=0 time=0
note_on channel=0 note=76 velocity=81 time=0
note_on channel=0 note=76 velocity=0 time=120
note_on channel=0 note=79 velocity=74 time=0
note_on channel=0 note=79 velocity=0 time=120
note_on channel=0 note=70 velocity=81 time=0
note_on channel=0 note=70 velocity=0 time=120
note_on channel=0 note=76 velocity=71 time=0
note_on channel=0 note=76 velocity=0 time=120
note_on channel=0 note=67 velocity=80 time=0
note_on channel=0 note=67 velocity=0 time=120
note_on channel=0 note=70 velocity=73 time=0
note_on channel=0 note=70 velocity=0 time=120
note_on channel=0 note=64 velocity=80 time=0
note_on channel=0 note=64 velocity=0 time=120
note_on channel=0 note=67 velocity=70 time=0
note_on channel=0 note=67 velocity=0 time=120
note_on channel=0 note=58 velocity=79 time=0
note_on channel=0 note=58 velocity=0 time=120
note_on channel=0 note=64 velocity=71 time=0
note_on channel=0 note=64 velocity=0 time=120
note_on channel=0 note=55 velocity=75 time=0
note_on channel=0 note=55 velocity=0 time=120
note_on channel=0 note=58 velocity=63 time=0
<meta message set_tempo tempo=324324 time=80>
note_on channel=0 note=58 velocity=0 time=40
note_on channel=0 note=52 velocity=75 time=0
<meta message set_tempo tempo=325203 time=80>
note_on channel=0 note=52 velocity=0 time=40
note_on channel=0 note=55 velocity=64 time=0
<meta message set_tempo tempo=326087 time=40>
<meta message set_tempo tempo=340909 time=80>
note_on channel=0 note=55 velocity=0 time=0
note_on channel=0 note=46 velocity=75 time=0
<meta message set_tempo tempo=393443 time=120>
note_on channel=0 note=46 velocity=0 time=0
note_on channel=0 note=52 velocity=60 time=0
<meta message set_tempo tempo=329670 time=120>
note_on channel=0 note=52 velocity=0 time=0
note_on channel=0 note=31 velocity=73 time=0
<meta message set_tempo tempo=329670 time=40>
<meta message set_tempo tempo=330579 time=80>
note_on channel=0 note=31 velocity=0 time=0
note_on channel=0 note=34 velocity=67 time=0
<meta message set_tempo tempo=331492 time=120>
note_on channel=0 note=34 velocity=0 time=0
note_on channel=0 note=40 velocity=77 time=0
<meta message set_tempo tempo=332410 time=80>
note_on channel=0 note=40 velocity=0 time=40
note_on channel=0 note=43 velocity=67 time=0
<meta message set_tempo tempo=333333 time=40>
note_on channel=0 note=43 velocity=0 time=80
note_on channel=0 note=46 velocity=77 time=0
<meta message set_tempo tempo=334262 time=40>
<meta message set_tempo tempo=335196 time=80>
note_on channel=0 note=46 velocity=0 time=0
note_on channel=0 note=49 velocity=67 time=0
<meta message set_tempo tempo=336134 time=80>
note_on channel=0 note=49 velocity=0 time=40
note_on channel=0 note=52 velocity=82 time=0
<meta message set_tempo tempo=337079 time=40>
note_on channel=0 note=52 velocity=0 time=80
note_on channel=0 note=55 velocity=73 time=0
<meta message set_tempo tempo=338028 time=40>
<meta message set_tempo tempo=338983 time=80>
note_on channel=0 note=55 velocity=0 time=0
note_on channel=0 note=58 velocity=89 time=0
<meta message set_tempo tempo=339943 time=80>
<meta message set_tempo tempo=340909 time=80>
<meta message set_tempo tempo=349854 time=40>
control_change channel=0 control=64 value=0 time=0
<meta message set_tempo tempo=489796 time=40>
note_on channel=0 note=58 velocity=0 time=0
note_on channel=0 note=41 velocity=72 time=480
note_on channel=0 note=29 velocity=72 time=0
note_on channel=0 note=56 velocity=86 time=0
note_on channel=0 note=61 velocity=86 time=0
note_on channel=0 note=49 velocity=86 time=0
control_change channel=0 control=64 value=127 time=86
<meta message set_tempo tempo=641711 time=154>
note_on channel=0 note=49 velocity=0 time=0
note_on channel=0 note=56 velocity=0 time=0
note_on channel=0 note=41 velocity=0 time=0
note_on channel=0 note=29 velocity=0 time=0
note_on channel=0 note=61 velocity=0 time=0
control_change channel=0 control=64 value=0 time=137
<meta message set_tempo tempo=545455 time=343>
note_on channel=0 note=40 velocity=40 time=0
note_on channel=0 note=52 velocity=48 time=0
note_on channel=0 note=48 velocity=40 time=0
note_on channel=0 note=60 velocity=48 time=0
note_on channel=0 note=55 velocity=48 time=0
note_on channel=0 note=55 velocity=0 time=2100
note_on channel=0 note=48 velocity=0 time=0
note_on channel=0 note=40 velocity=0 time=0
note_on channel=0 note=52 velocity=0 time=0
note_on channel=0 note=60 velocity=0 time=0
note_on channel=0 note=60 velocity=35 time=60
note_on channel=0 note=36 velocity=27 time=0
<meta message set_tempo tempo=351206 time=220>
<meta message set_tempo tempo=382166 time=240>
note_on channel=0 note=36 velocity=0 time=140
note_on channel=0 note=60 velocity=0 time=0
note_on channel=0 note=56 velocity=31 time=0
note_on channel=0 note=32 velocity=25 time=0
<meta message set_tempo tempo=447761 time=120>
note_on channel=0 note=32 velocity=0 time=0
note_on channel=0 note=56 velocity=0 time=0
note_on channel=0 note=53 velocity=103 time=0
note_on channel=0 note=29 velocity=81 time=0
control_change channel=0 control=64 value=127 time=226
<meta message set_tempo tempo=326975 time=14>
note_on channel=0 note=29 velocity=0 time=0
note_on channel=0 note=53 velocity=0 time=0
note_on channel=0 note=60 velocity=85 time=0
note_on channel=0 note=65 velocity=101 time=0
note_on channel=0 note=56 velocity=75 time=0
note_on channel=0 note=53 velocity=75 time=0
note_on channel=0 note=32 velocity=61 time=240
note_on channel=0 note=29 velocity=61 time=0
note_on channel=0 note=41 velocity=81 time=0
note_on channel=0 note=36 velocity=69 time=0
note_on channel=0 note=53 velocity=0 time=235
note_on channel=0 note=56 velocity=0 time=0
note_on channel=0 note=60 velocity=0 time=0
note_on channel=0 note=65 velocity=0 time=0
note_on channel=0 note=60 velocity=72 time=5
note_on channel=0 note=56 velocity=72 time=0
note_on channel=0 note=65 velocity=81 time=0
note_on channel=0 note=68 velocity=96 time=0
note_on channel=0 note=32 velocity=0 time=235
note_on channel=0 note=41 velocity=0 time=0
note_on channel=0 note=36 velocity=0 time=0
note_on channel=0 note=29 velocity=0 time=0
note_on channel=0 note=32 velocity=57 time=5
note_on channel=0 note=36 velocity=64 time=0
note_on channel=0 note=41 velocity=76 time=0
note_on channel=0 note=29 velocity=57 time=0
note_on channel=0 note=60 velocity=0 time=235
note_on channel=0 note=65 velocity=0 time=0
note_on channel=0 note=68 velocity=0 time=0
note_on channel=0 note=56 velocity=0 time=0
note_on channel=0 note=60 velocity=71 time=5
note_on channel=0 note=72 velocity=96 time=0
note_on channel=0 note=65 velocity=71 time=0
note_on channel=0 note=68 velocity=79 time=0
note_on channel=0 note=32 velocity=0 time=235
note_on channel=0 note=41 velocity=0 time=0
note_on channel=0 note=29 velocity=0 time=0
note_on channel=0 note=36 velocity=0 time=0
note_on channel=0 note=32 velocity=55 time=5
note_on channel=0 note=36 velocity=63 time=0
note_on channel=0 note=41 velocity=73 time=0
note_on channel=0 note=29 velocity=55 time=0
note_on channel=0 note=60 velocity=0 time=235
note_on channel=0 note=65 velocity=0 time=0
note_on channel=0 note=68 velocity=0 time=0
note_on channel=0 note=72 velocity=0 time=0
note_on channel=0 note=72 velocity=80 time=5
note_on channel=0 note=77 velocity=95 time=0
note_on channel=0 note=65 velocity=72 time=0
note_on channel=0 note=68 velocity=72 time=0
note_on channel=0 note=32 velocity=0 time=235
note_on channel=0 note=41 velocity=0 time=0
note_on channel=0 note=29 velocity=0 time=0
note_on channel=0 note=36 velocity=0 time=0
note_on channel=0 note=32 velocity=61 time=5
note_on channel=0 note=29 velocity=61 time=0
note_on channel=0 note=41 velocity=81 time=0
note_on channel=0 note=36 velocity=69 time=0
note_on channel=0 note=72 velocity=0 time=235
note_on channel=0 note=65 velocity=0 time=0
note_on channel=0 note=68 velocity=0 time=0
note_on channel=0 note=77 velocity=0 time=0
note_on channel=0 note=77 velocity=86 time=5
note_on channel=0 note=68 velocity=76 time=0
note_on channel=0 note=72 velocity=76 time=0
note_on channel=0 note=80 velocity=103 time=0
note_on channel=0 note=32 velocity=0 time=235
note_on channel=0 note=41 velocity=0 time=0
note_on channel=0 note=36 velocity=0 time=0
note_on channel=0 note=29 velocity=0 time=0
note_on channel=0 note=32 velocity=55 time=5
note_on channel=0 note=36 velocity=63 time=0
note_on channel=0 note=41 velocity=73 time=0
note_on channel=0 note=29 velocity=55 time=0
note_on channel=0 note=77 velocity=0 time=235
note_on channel=0 note=72 velocity=0 time=0
note_on channel=0 note=80 velocity=0 time=0
note_on channel=0 note=68 velocity=0 time=0
<meta message set_tempo tempo=357143 time=5>
note_on channel=0 note=77 velocity=78 time=0
note_on channel=0 note=84 velocity=94 time=0
note_on channel=0 note=80 velocity=78 time=0
note_on channel=0 note=72 velocity=71 time=0
note_on channel=0 note=32 velocity=0 time=235
note_on channel=0 note=41 velocity=0 time=0
note_on channel=0 note=29 velocity=0 time=0
note_on channel=0 note=36 velocity=0 time=0
note_on channel=0 note=77 velocity=0 time=3
note_on channel=0 note=72 velocity=0 time=0
note_on channel=0 note=84 velocity=0 time=0
note_on channel=0 note=80 velocity=0 time=0
note_on channel=0 note=89 velocity=103 time=2
note_on channel=0 note=77 velocity=76 time=0
note_on channel=0 note=84 velocity=86 time=0
note_on channel=0 note=80 velocity=86 time=0
note_on channel=0 note=29 velocity=61 time=0
note_on channel=0 note=36 velocity=69 time=0
note_on channel=0 note=41 velocity=81 time=0
note_on channel=0 note=32 velocity=61 time=0
control_change channel=0 control=64 value=0 time=2012
<meta message set_tempo tempo=353982 time=148>
note_on channel=0 note=32 velocity=0 time=0
note_on channel=0 note=89 velocity=0 time=0
note_on channel=0 note=29 velocity=0 time=0
note_on channel=0 note=77 velocity=0 time=0
note_on channel=0 note=84 velocity=0 time=0
note_on channel=0 note=80 velocity=0 time=0
note_on channel=0 note=36 velocity=0 time=0
note_on channel=0 note=41 velocity=0 time=0
note_on channel=0 note=56 velocity=41 time=0
note_on channel=0 note=32 velocity=33 time=0
<meta message set_tempo tempo=356125 time=240>
<meta message set_tempo tempo=393236 time=360>
note_on channel=0 note=32 velocity=0 time=0
note_on channel=0 note=56 velocity=0 time=0
note_on channel=0 note=60 velocity=35 time=0
note_on channel=0 note=36 velocity=28 time=0
<meta message set_tempo tempo=322321 time=120>
note_on channel=0 note=36 velocity=0 time=0
note_on channel=0 note=60 velocity=0 time=0
note_on channel=0 note=65 velocity=39 time=0
note_on channel=0 note=41 velocity=33 time=0
<meta message set_tempo tempo=339501 time=720>
note_on channel=0 note=41 velocity=0 time=0
note_on channel=0 note=65 velocity=0 time=0
note_on channel=0 note=68 velocity=41 time=0
note_on channel=0 note=44 velocity=33 time=0
<meta message set_tempo tempo=344828 time=240>
<meta message set_tempo tempo=371724 time=360>
note_on channel=0 note=44 velocity=0 time=0
note_on channel=0 note=68 velocity=0 time=0
note_on channel=0 note=72 velocity=36 time=0
note_on channel=0 note=48 velocity=28 time=0
<meta message set_tempo tempo=339501 time=120>
note_on channel=0 note=48 velocity=0 time=0
note_on channel=0 note=72 velocity=0 time=0
note_on channel=0 note=77 velocity=39 time=0
note_on channel=0 note=53 velocity=33 time=0
<meta message set_tempo tempo=358637 time=480>
note_on channel=0 note=53 velocity=0 time=235
note_on channel=0 note=77 velocity=0 time=0
<meta message set_tempo tempo=339501 time=5>
note_on channel=0 note=65 velocity=39 time=0
note_on channel=0 note=41 velocity=30 time=0
<meta message set_tempo tempo=372671 time=480>
<meta message set_tempo tempo=447761 time=240>
note_on channel=0 note=41 velocity=0 time=0
note_on channel=0 note=65 velocity=0 time=0
note_on channel=0 note=60 velocity=103 time=0
note_on channel=0 note=55 velocity=81 time=0
note_on channel=0 note=52 velocity=81 time=0
control_change channel=0 control=64 value=127 time=57
<meta message set_tempo tempo=326975 time=183>
note_on channel=0 note=52 velocity=0 time=0
note_on channel=0 note=55 velocity=0 time=0
note_on channel=0 note=60 velocity=0 time=0
note_on channel=0 note=60 velocity=85 time=0
note_on channel=0 note=64 velocity=101 time=0
note_on channel=0 note=55 velocity=75 time=0
note_on channel=0 note=43 velocity=69 time=240
note_on channel=0 note=48 velocity=81 time=0
note_on channel=0 note=40 velocity=61 time=0
note_on channel=0 note=55 velocity=0 time=235
note_on channel=0 note=60 velocity=0 time=0
note_on channel=0 note=64 velocity=0 time=0
note_on channel=0 note=64 velocity=81 time=5
note_on channel=0 note=67 velocity=96 time=0
note_on channel=0 note=60 velocity=72 time=0
note_on channel=0 note=43 velocity=0 time=235
note_on channel=0 note=40 velocity=0 time=0
note_on channel=0 note=48 velocity=0 time=0
note_on channel=0 note=40 velocity=57 time=5
note_on channel=0 note=48 velocity=76 time=0
note_on channel=0 note=43 velocity=64 time=0
note_on channel=0 note=64 velocity=0 time=235
note_on channel=0 note=60 velocity=0 time=0
note_on channel=0 note=67 velocity=0 time=0
note_on channel=0 note=72 velocity=96 time=5
note_on channel=0 note=64 velocity=71 time=0
note_on channel=0 note=67 velocity=79 time=0
note_on channel=0 note=40 velocity=0 time=235
note_on channel=0 note=43 velocity=0 time=0
note_on channel=0 note=48 velocity=0 time=0
note_on channel=0 note=43 velocity=63 time=5
note_on channel=0 note=40 velocity=55 time=0
note_on channel=0 note=48 velocity=73 time=0
note_on channel=0 note=72 velocity=0 time=235
note_on channel=0 note=67 velocity=0 time=0
note_on channel=0 note=64 velocity=0 time=0
note_on channel=0 note=76 velocity=95 time=5
note_on channel=0 note=67 velocity=72 time=0
note_on channel=0 note=72 velocity=80 time=0
note_on channel=0 note=43 velocity=0 time=235
note_on channel=0 note=48 velocity=0 time=0
note_on channel=0 note=40 velocity=0 time=0
note_on channel=0 note=40 velocity=61 time=5
note_on channel=0 note=48 velocity=81 time=0
note_on channel=0 note=43 velocity=69 time=0
note_on channel=0 note=76 velocity=0 time=235
note_on channel=0 note=72 velocity=0 time=0
note_on channel=0 note=67 velocity=0 time=0
note_on channel=0 note=79 velocity=103 time=5
note_on channel=0 note=72 velocity=76 time=0
note_on channel=0 note=76 velocity=86 time=0
note_on channel=0 note=40 velocity=0 time=235
note_on channel=0 note=43 velocity=0 time=0
note_on channel=0 note=48 velocity=0 time=0
note_on channel=0 note=43 velocity=63 time=5
note_on channel=0 note=48 velocity=73 time=0
note_on channel=0 note=40 velocity=55 time=0
note_on channel=0 note=79 velocity=0 time=235
note_on channel=0 note=76 velocity=0 time=0
note_on channel=0 note=72 velocity=0 time=0
<meta message set_tempo tempo=606061 time=5>
note_on channel=0 note=84 velocity=94 time=0
note_on channel=0 note=76 velocity=78 time=0
note_on channel=0 note=79 velocity=78 time=0
note_on channel=0 note=43 velocity=0 time=235
note_on channel=0 note=40 velocity=0 time=0
note_on channel=0 note=48 velocity=0 time=0
note_on channel=0 note=84 velocity=0 time=3
note_on channel=0 note=76 velocity=0 time=0
note_on channel=0 note=79 velocity=0 time=0
<meta message set_tempo tempo=338983 time=2>
note_on channel=0 note=72 velocity=41 time=0
note_on channel=0 note=67 velocity=30 time=0
note_on channel=0 note=64 velocity=30 time=0
control_change channel=0 control=64 value=0 time=0
control_change channel=0 control=64 value=127 time=307
<meta message set_tempo tempo=363769 time=893>
note_on channel=0 note=72 velocity=0 time=0
note_on channel=0 note=74 velocity=45 time=0
control_change channel=0 control=64 value=0 time=18
<meta message set_tempo tempo=341783 time=222>
note_on channel=0 note=74 velocity=0 time=0
note_on channel=0 note=64 velocity=0 time=0
note_on channel=0 note=67 velocity=0 time=0
note_on channel=0 note=74 velocity=39 time=0
note_on channel=0 note=68 velocity=30 time=0
note_on channel=0 note=71 velocity=30 time=0
note_on channel=0 note=65 velocity=30 time=0
control_change channel=0 control=64 value=127 time=74
<meta message set_tempo tempo=340638 time=6>
note_on channel=0 note=74 velocity=0 time=0
note_on channel=0 note=76 velocity=35 time=0
<meta message set_tempo tempo=339501 time=80>
note_on channel=0 note=74 velocity=39 time=0
note_on channel=0 note=76 velocity=0 time=40
<meta message set_tempo tempo=338371 time=40>
note_on channel=0 note=74 velocity=0 time=0
note_on channel=0 note=76 velocity=36 time=0
<meta message set_tempo tempo=337268 time=80>
note_on channel=0 note=76 velocity=0 time=0
note_on channel=0 note=74 velocity=38 time=0
<meta message set_tempo tempo=336134 time=80>
note_on channel=0 note=74 velocity=0 time=0
note_on channel=0 note=76 velocity=36 time=0
<meta message set_tempo tempo=335027 time=80>
note_on channel=0 note=76 velocity=0 time=0
note_on channel=0 note=74 velocity=38 time=0
<meta message set_tempo tempo=333946 time=60>
<meta message set_tempo tempo=328551 time=20>
note_on channel=0 note=74 velocity=0 time=0
note_on channel=0 note=76 velocity=36 time=0
<meta message set_tempo tempo=333946 time=20>
<meta message set_tempo tempo=335027 time=40>
<meta message set_tempo tempo=336134 time=20>
note_on channel=0 note=76 velocity=0 time=0
note_on channel=0 note=74 velocity=39 time=0
<meta message set_tempo tempo=337268 time=40>
<meta message set_tempo tempo=338371 time=20>
<meta message set_tempo tempo=339501 time=20>
note_on channel=0 note=74 velocity=0 time=0
note_on channel=0 note=76 velocity=37 time=0
<meta message set_tempo tempo=340638 time=40>
<meta message set_tempo tempo=341783 time=20>
<meta message set_tempo tempo=342936 time=20>
note_on channel=0 note=76 velocity=0 time=0
note_on channel=0 note=74 velocity=35 time=0
<meta message set_tempo tempo=344096 time=40>
<meta message set_tempo tempo=345244 time=20>
<meta message set_tempo tempo=346420 time=20>
note_on channel=0 note=74 velocity=0 time=0
note_on channel=0 note=76 velocity=39 time=0
<meta message set_tempo tempo=347625 time=40>
<meta message set_tempo tempo=348817 time=20>
<meta message set_tempo tempo=349997 time=20>
note_on channel=0 note=76 velocity=0 time=0
note_on channel=0 note=74 velocity=35 time=0
<meta message set_tempo tempo=385802 time=120>
note_on channel=0 note=74 velocity=0 time=0
note_on channel=0 note=72 velocity=36 time=0
note_on channel=0 note=72 velocity=0 time=120
note_on channel=0 note=76 velocity=41 time=0
<meta message set_tempo tempo=422624 time=120>
note_on channel=0 note=76 velocity=0 time=0
note_on channel=0 note=74 velocity=38 time=0
<meta message set_tempo tempo=447761 time=120>
note_on channel=0 note=74 velocity=0 time=0
note_on channel=0 note=68 velocity=0 time=0
note_on channel=0 note=71 velocity=0 time=0
note_on channel=0 note=65 velocity=0 time=0
note_on channel=0 note=60 velocity=103 time=0
note_on channel=0 note=55 velocity=81 time=0
note_on channel=0 note=52 velocity=81 time=0
control_change channel=0 control=64 value=0 time=13
control_change channel=0 control=64 value=127 time=193
note_on channel=0 note=52 velocity=0 time=32
note_on channel=0 note=55 velocity=0 time=0
note_on channel=0 note=60 velocity=0 time=0
<meta message set_tempo tempo=326975 time=2>
note_on channel=0 note=60 velocity=85 time=0
note_on channel=0 note=64 velocity=101 time=0
note_on channel=0 note=55 velocity=75 time=0
note_on channel=0 note=43 velocity=69 time=240
note_on channel=0 note=48 velocity=81 time=0
note_on channel=0 note=40 velocity=61 time=0
note_on channel=0 note=55 velocity=0 time=235
note_on channel=0 note=60 velocity=0 time=0
note_on channel=0 note=64 velocity=0 time=0
note_on channel=0 note=60 velocity=72 time=5
note_on channel=0 note=64 velocity=81 time=0
note_on channel=0 note=67 velocity=96 time=0
note_on channel=0 note=43 velocity=0 time=235
note_on channel=0 note=40 velocity=0 time=0
note_on channel=0 note=48 velocity=0 time=0
note_on channel=0 note=40 velocity=57 time=5
note_on channel=0 note=48 velocity=76 time=0
note_on channel=0 note=43 velocity=64 time=0
note_on channel=0 note=60 velocity=0 time=235
note_on channel=0 note=67 velocity=0 time=0
note_on channel=0 note=64 velocity=0 time=0
note_on channel=0 note=64 velocity=71 time=5
note_on channel=0 note=67 velocity=79 time=0
note_on channel=0 note=72 velocity=96 time=0
note_on channel=0 note=40 velocity=0 time=235
note_on channel=0 note=43 velocity=0 time=0
note_on channel=0 note=48 velocity=0 time=0
note_on channel=0 note=43 velocity=63 time=5
note_on channel=0 note=40 velocity=55 time=0
note_on channel=0 note=48 velocity=73 time=0
note_on channel=0 note=64 velocity=0 time=235
note_on channel=0 note=72 velocity=0 time=0
note_on channel=0 note=67 velocity=0 time=0
note_on channel=0 note=67 velocity=72 time=5
note_on channel=0 note=72 velocity=80 time=0
note_on channel=0 note=76 velocity=95 time=0
note_on channel=0 note=43 velocity=0 time=235
note_on channel=0 note=48 velocity=0 time=0
note_on channel=0 note=40 velocity=0 time=0
note_on channel=0 note=40 velocity=61 time=5
note_on channel=0 note=48 velocity=81 time=0
note_on channel=0 note=43 velocity=69 time=0
note_on channel=0 note=67 velocity=0 time=235
note_on channel=0 note=76 velocity=0 time=0
note_on channel=0 note=72 velocity=0 time=0
note_on channel=0 note=72 velocity=76 time=5
note_on channel=0 note=76 velocity=86 time=0
note_on channel=0 note=79 velocity=103 time=0
note_on channel=0 note=40 velocity=0 time=235
note_on channel=0 note=43 velocity=0 time=0
note_on channel=0 note=48 velocity=0 time=0
note_on channel=0 note=43 velocity=63 time=5
note_on channel=0 note=48 velocity=73 time=0
note_on channel=0 note=40 velocity=55 time=0
note_on channel=0 note=72 velocity=0 time=235
note_on channel=0 note=79 velocity=0 time=0
note_on channel=0 note=76 velocity=0 time=0
<meta message set_tempo tempo=603015 time=5>
note_on channel=0 note=76 velocity=78 time=0
note_on channel=0 note=84 velocity=94 time=0
note_on channel=0 note=79 velocity=78 time=0
note_on channel=0 note=43 velocity=0 time=235
note_on channel=0 note=40 velocity=0 time=0
note_on channel=0 note=48 velocity=0 time=0
note_on channel=0 note=76 velocity=0 time=3
note_on channel=0 note=84 velocity=0 time=0
note_on channel=0 note=79 velocity=0 time=0
<meta message set_tempo tempo=338983 time=2>
note_on channel=0 note=72 velocity=48 time=0
note_on channel=0 note=67 velocity=36 time=0
note_on channel=0 note=64 velocity=36 time=0
control_change channel=0 control=64 value=0 time=16
control_change channel=0 control=64 value=127 time=267
<meta message set_tempo tempo=363769 time=917>
note_on channel=0 note=72 velocity=0 time=0
note_on channel=0 note=73 velocity=52 time=0
note_on channel=0 note=73 velocity=0 time=180
note_on channel=0 note=72 velocity=48 time=0
<meta message set_tempo tempo=341783 time=60>
note_on channel=0 note=72 velocity=0 time=0
note_on channel=0 note=64 velocity=0 time=0
note_on channel=0 note=67 velocity=0 time=0
note_on channel=0 note=73 velocity=46 time=0
note_on channel=0 note=67 velocity=36 time=0
note_on channel=0 note=63 velocity=36 time=0
control_change channel=0 control=64 value=0 time=11
control_change channel=0 control=64 value=127 time=63
<meta message set_tempo tempo=340638 time=6>
note_on channel=0 note=73 velocity=0 time=0
note_on channel=0 note=75 velocity=41 time=0
<meta message set_tempo tempo=339501 time=80>
note_on channel=0 note=75 velocity=0 time=0
note_on channel=0 note=73 velocity=46 time=0
<meta message set_tempo tempo=338371 time=80>
note_on channel=0 note=73 velocity=0 time=0
note_on channel=0 note=75 velocity=41 time=0
<meta message set_tempo tempo=337268 time=80>
note_on channel=0 note=75 velocity=0 time=0
note_on channel=0 note=73 velocity=44 time=0
<meta message set_tempo tempo=336134 time=80>
note_on channel=0 note=73 velocity=0 time=0
note_on channel=0 note=75 velocity=41 time=0
<meta message set_tempo tempo=335027 time=80>
note_on channel=0 note=75 velocity=0 time=0
note_on channel=0 note=73 velocity=46 time=0
<meta message set_tempo tempo=333946 time=60>
<meta message set_tempo tempo=328551 time=20>
note_on channel=0 note=73 velocity=0 time=0
note_on channel=0 note=75 velocity=42 time=0
<meta message set_tempo tempo=333946 time=20>
<meta message set_tempo tempo=335027 time=40>
<meta message set_tempo tempo=336134 time=20>
note_on channel=0 note=75 velocity=0 time=0
note_on channel=0 note=73 velocity=46 time=0
<meta message set_tempo tempo=337268 time=40>
<meta message set_tempo tempo=338371 time=20>
<meta message set_tempo tempo=339501 time=20>
note_on channel=0 note=73 velocity=0 time=0
note_on channel=0 note=75 velocity=43 time=0
<meta message set_tempo tempo=340638 time=40>
<meta message set_tempo tempo=341783 time=20>
<meta message set_tempo tempo=342936 time=20>
<meta message set_tempo tempo=344096 time=40>
note_on channel=0 note=75 velocity=0 time=0
note_on channel=0 note=73 velocity=40 time=0
<meta message set_tempo tempo=345244 time=20>
<meta message set_tempo tempo=346420 time=20>
<meta message set_tempo tempo=347625 time=40>
<meta message set_tempo tempo=348817 time=20>
<meta message set_tempo tempo=349997 time=20>
note_on channel=0 note=73 velocity=0 time=0
note_on channel=0 note=75 velocity=46 time=0
<meta message set_tempo tempo=385802 time=120>
note_on channel=0 note=75 velocity=0 time=0
note_on channel=0 note=73 velocity=42 time=0
note_on channel=0 note=73 velocity=0 time=120
note_on channel=0 note=72 velocity=48 time=0
<meta message set_tempo tempo=422624 time=120>
note_on channel=0 note=72 velocity=0 time=0
note_on channel=0 note=73 velocity=44 time=0
<meta message set_tempo tempo=327869 time=120>
note_on channel=0 note=73 velocity=0 time=0
note_on channel=0 note=79 velocity=58 time=0
note_on channel=0 note=82 velocity=58 time=0
control_change channel=0 control=64 value=0 time=11
<meta message set_tempo tempo=325203 time=229>
note_on channel=0 note=63 velocity=0 time=0
note_on channel=0 note=67 velocity=0 time=0
note_on channel=0 note=75 velocity=36 time=0
note_on channel=0 note=75 velocity=0 time=220
note_on channel=0 note=75 velocity=36 time=20
note_on channel=0 note=75 velocity=0 time=220
<meta message set_tempo tempo=327869 time=20>
note_on channel=0 note=79 velocity=0 time=0
note_on channel=0 note=82 velocity=0 time=0
note_on channel=0 note=75 velocity=39 time=0
note_on channel=0 note=75 velocity=0 time=220
note_on channel=0 note=75 velocity=37 time=20
note_on channel=0 note=75 velocity=0 time=220
note_on channel=0 note=75 velocity=36 time=20
note_on channel=0 note=75 velocity=0 time=220
<meta message set_tempo tempo=327869 time=20>
note_on channel=0 note=75 velocity=39 time=0
note_on channel=0 note=75 velocity=0 time=220
<meta message set_tempo tempo=325203 time=20>
note_on channel=0 note=75 velocity=35 time=0
note_on channel=0 note=75 velocity=0 time=220
note_on channel=0 note=75 velocity=35 time=20
note_on channel=0 note=75 velocity=0 time=220
<meta message set_tempo tempo=327869 time=20>
note_on channel=0 note=75 velocity=39 time=0
note_on channel=0 note=75 velocity=0 time=220
note_on channel=0 note=75 velocity=36 time=20
note_on channel=0 note=75 velocity=0 time=220
note_on channel=0 note=75 velocity=36 time=20
note_on channel=0 note=75 velocity=0 time=220
<meta message set_tempo tempo=327869 time=20>
note_on channel=0 note=83 velocity=56 time=0
note_on channel=0 note=80 velocity=56 time=0
<meta message set_tempo tempo=323450 time=240>
note_on channel=0 note=75 velocity=38 time=0
note_on channel=0 note=75 velocity=0 time=220
note_on channel=0 note=75 velocity=38 time=20
note_on channel=0 note=75 velocity=0 time=220
<meta message set_tempo tempo=327869 time=20>
note_on channel=0 note=80 velocity=0 time=0
note_on channel=0 note=83 velocity=0 time=0
note_on channel=0 note=71 velocity=39 time=0
note_on channel=0 note=68 velocity=39 time=0
note_on channel=0 note=68 velocity=0 time=240
note_on channel=0 note=71 velocity=0 time=0
note_on channel=0 note=75 velocity=37 time=0
note_on channel=0 note=75 velocity=0 time=220
note_on channel=0 note=75 velocity=37 time=20
note_on channel=0 note=75 velocity=0 time=220
<meta message set_tempo tempo=327869 time=20>
note_on channel=0 note=75 velocity=41 time=0
note_on channel=0 note=75 velocity=0 time=220
<meta message set_tempo tempo=325203 time=20>
note_on channel=0 note=75 velocity=37 time=0
note_on channel=0 note=75 velocity=0 time=220
note_on channel=0 note=75 velocity=38 time=20
note_on channel=0 note=75 velocity=0 time=220
<meta message set_tempo tempo=327869 time=20>
note_on channel=0 note=75 velocity=46 time=0
note_on channel=0 note=75 velocity=0 time=220
note_on channel=0 note=75 velocity=40 time=20
note_on channel=0 note=75 velocity=0 time=220
note_on channel=0 note=75 velocity=40 time=20
note_on channel=0 note=75 velocity=0 time=220
<meta message set_tempo tempo=327869 time=20>
note_on channel=0 note=88 velocity=75 time=0
note_on channel=0 note=80 velocity=75 time=0
note_on channel=0 note=83 velocity=75 time=0
<meta message set_tempo tempo=325203 time=240>
note_on channel=0 note=75 velocity=38 time=0
note_on channel=0 note=75 velocity=0 time=220
note_on channel=0 note=75 velocity=38 time=20
note_on channel=0 note=75 velocity=0 time=220
<meta message set_tempo tempo=325203 time=20>
note_on channel=0 note=68 velocity=40 time=0
note_on channel=0 note=71 velocity=40 time=0
note_on channel=0 note=71 velocity=0 time=240
note_on channel=0 note=68 velocity=0 time=0
note_on channel=0 note=75 velocity=37 time=0
note_on channel=0 note=75 velocity=0 time=220
note_on channel=0 note=75 velocity=37 time=20
note_on channel=0 note=75 velocity=0 time=220
<meta message set_tempo tempo=327869 time=20>
note_on channel=0 note=68 velocity=37 time=0
note_on channel=0 note=71 velocity=37 time=0
note_on channel=0 note=71 velocity=0 time=240
note_on channel=0 note=68 velocity=0 time=0
note_on channel=0 note=75 velocity=37 time=0
note_on channel=0 note=75 velocity=0 time=220
note_on channel=0 note=75 velocity=37 time=20
note_on channel=0 note=75 velocity=0 time=220
<meta message set_tempo tempo=327869 time=20>
note_on channel=0 note=68 velocity=37 time=0
note_on channel=0 note=71 velocity=37 time=0
note_on channel=0 note=71 velocity=0 time=240
note_on channel=0 note=68 velocity=0 time=0
note_on channel=0 note=75 velocity=37 time=0
note_on channel=0 note=75 velocity=0 time=220
note_on channel=0 note=75 velocity=37 time=20
note_on channel=0 note=75 velocity=0 time=220
<meta message set_tempo tempo=327869 time=20>
note_on channel=0 note=88 velocity=0 time=0
note_on channel=0 note=80 velocity=0 time=0
note_on channel=0 note=83 velocity=0 time=0
note_on channel=0 note=82 velocity=52 time=0
note_on channel=0 note=87 velocity=52 time=0
note_on channel=0 note=79 velocity=52 time=0
note_on channel=0 note=67 velocity=39 time=0
note_on channel=0 note=70 velocity=39 time=0
<meta message set_tempo tempo=326087 time=240>
note_on channel=0 note=70 velocity=0 time=0
note_on channel=0 note=67 velocity=0 time=0
note_on channel=0 note=63 velocity=37 time=0
note_on channel=0 note=63 velocity=0 time=220
note_on channel=0 note=79 velocity=0 time=20
note_on channel=0 note=87 velocity=0 time=0
note_on channel=0 note=82 velocity=0 time=0
note_on channel=0 note=63 velocity=37 time=0
note_on channel=0 note=63 velocity=0 time=220
<meta message set_tempo tempo=327869 time=20>
note_on channel=0 note=63 velocity=38 time=0
note_on channel=0 note=63 velocity=0 time=220
note_on channel=0 note=63 velocity=37 time=20
note_on channel=0 note=63 velocity=0 time=220
note_on channel=0 note=63 velocity=37 time=20
note_on channel=0 note=63 velocity=0 time=220
<meta message set_tempo tempo=327869 time=20>
note_on channel=0 note=63 velocity=37 time=0
note_on channel=0 note=63 velocity=0 time=220
<meta message set_tempo tempo=325203 time=20>
note_on channel=0 note=63 velocity=37 time=0
note_on channel=0 note=63 velocity=0 time=220
note_on channel=0 note=63 velocity=37 time=20
note_on channel=0 note=63 velocity=0 time=220
<meta message set_tempo tempo=327869 time=20>
note_on channel=0 note=79 velocity=56 time=0
note_on channel=0 note=82 velocity=56 time=0
note_on channel=0 note=63 velocity=38 time=0
note_on channel=0 note=63 velocity=0 time=220
<meta message set_tempo tempo=319149 time=20>
note_on channel=0 note=63 velocity=37 time=0
note_on channel=0 note=63 velocity=0 time=220
note_on channel=0 note=63 velocity=37 time=20
<meta message set_tempo tempo=396040 time=120>
note_on channel=0 note=82 velocity=0 time=0
note_on channel=0 note=79 velocity=0 time=0
note_on channel=0 note=82 velocity=52 time=0
note_on channel=0 note=79 velocity=52 time=0
note_on channel=0 note=63 velocity=0 time=100
<meta message set_tempo tempo=327869 time=20>
note_on channel=0 note=79 velocity=0 time=0
note_on channel=0 note=82 velocity=0 time=0
note_on channel=0 note=83 velocity=58 time=0
note_on channel=0 note=80 velocity=58 time=0
note_on channel=0 note=63 velocity=39 time=0
note_on channel=0 note=63 velocity=0 time=220
note_on channel=0 note=63 velocity=37 time=20
note_on channel=0 note=63 velocity=0 time=220
<meta message set_tempo tempo=321716 time=20>
note_on channel=0 note=80 velocity=0 time=0
note_on channel=0 note=83 velocity=0 time=0
note_on channel=0 note=79 velocity=52 time=0
note_on channel=0 note=82 velocity=52 time=0
note_on channel=0 note=63 velocity=37 time=0
note_on channel=0 note=63 velocity=0 time=220
note_on channel=0 note=82 velocity=0 time=20
note_on channel=0 note=79 velocity=0 time=0
note_on channel=0 note=63 velocity=38 time=0
note_on channel=0 note=63 velocity=0 time=220
note_on channel=0 note=63 velocity=37 time=20
note_on channel=0 note=63 velocity=0 time=220
<meta message set_tempo tempo=327869 time=20>
note_on channel=0 note=70 velocity=50 time=0
note_on channel=0 note=67 velocity=50 time=0
note_on channel=0 note=63 velocity=37 time=0
note_on channel=0 note=63 velocity=0 time=220
<meta message set_tempo tempo=325203 time=20>
note_on channel=0 note=67 velocity=0 time=0
note_on channel=0 note=70 velocity=0 time=0
note_on channel=0 note=63 velocity=38 time=0
note_on channel=0 note=63 velocity=0 time=220
note_on channel=0 note=63 velocity=39 time=20
note_on channel=0 note=63 velocity=0 time=220
note_on channel=0 note=58 velocity=49 time=20
note_on channel=0 note=55 velocity=49 time=0
note_on channel=0 note=63 velocity=37 time=0
note_on channel=0 note=63 velocity=0 time=220
note_on channel=0 note=55 velocity=0 time=20
note_on channel=0 note=58 velocity=0 time=0
note_on channel=0 note=58 velocity=44 time=0
note_on channel=0 note=61 velocity=44 time=0
<meta message set_tempo tempo=328767 time=240>
note_on channel=0 note=61 velocity=0 time=0
note_on channel=0 note=58 velocity=0 time=0
note_on channel=0 note=63 velocity=37 time=0
note_on channel=0 note=63 velocity=0 time=220
<meta message set_tempo tempo=320856 time=20>
note_on channel=0 note=63 velocity=37 time=0
note_on channel=0 note=79 velocity=58 time=120
note_on channel=0 note=82 velocity=58 time=0
<meta message set_tempo tempo=392157 time=40>
note_on channel=0 note=63 velocity=0 time=60
<meta message set_tempo tempo=327869 time=20>
note_on channel=0 note=82 velocity=0 time=0
note_on channel=0 note=79 velocity=0 time=0
note_on channel=0 note=85 velocity=61 time=0
note_on channel=0 note=82 velocity=61 time=0
note_on channel=0 note=63 velocity=39 time=0
note_on channel=0 note=63 velocity=0 time=220
note_on channel=0 note=63 velocity=37 time=20
note_on channel=0 note=63 velocity=0 time=220
<meta message set_tempo tempo=322581 time=20>
note_on channel=0 note=82 velocity=0 time=0
note_on channel=0 note=85 velocity=0 time=0
note_on channel=0 note=83 velocity=52 time=0
note_on channel=0 note=80 velocity=52 time=0
note_on channel=0 note=63 velocity=37 time=0
note_on channel=0 note=63 velocity=0 time=220
note_on channel=0 note=80 velocity=0 time=20
note_on channel=0 note=83 velocity=0 time=0
note_on channel=0 note=63 velocity=37 time=0
note_on channel=0 note=63 velocity=0 time=220
note_on channel=0 note=63 velocity=37 time=20
note_on channel=0 note=63 velocity=0 time=220
<meta message set_tempo tempo=327869 time=20>
note_on channel=0 note=71 velocity=49 time=0
note_on channel=0 note=68 velocity=49 time=0
note_on channel=0 note=63 velocity=37 time=0
note_on channel=0 note=63 velocity=0 time=220
note_on channel=0 note=68 velocity=0 time=20
note_on channel=0 note=71 velocity=0 time=0
note_on channel=0 note=63 velocity=38 time=0
note_on channel=0 note=63 velocity=0 time=220
<meta message set_tempo tempo=324324 time=20>
note_on channel=0 note=63 velocity=37 time=0
note_on channel=0 note=63 velocity=0 time=220
note_on channel=0 note=59 velocity=47 time=20
note_on channel=0 note=56 velocity=47 time=0
note_on channel=0 note=63 velocity=37 time=0
note_on channel=0 note=63 velocity=0 time=220
note_on channel=0 note=56 velocity=0 time=15
note_on channel=0 note=59 velocity=0 time=0
note_on channel=0 note=59 velocity=48 time=5
note_on channel=0 note=56 velocity=44 time=0
<meta message set_tempo tempo=328767 time=240>
note_on channel=0 note=56 velocity=0 time=0
note_on channel=0 note=59 velocity=0 time=0
note_on channel=0 note=63 velocity=37 time=0
note_on channel=0 note=63 velocity=0 time=220
note_on channel=0 note=63 velocity=37 time=20
<meta message set_tempo tempo=406780 time=120>
note_on channel=0 note=80 velocity=52 time=0
note_on channel=0 note=83 velocity=52 time=0
note_on channel=0 note=63 velocity=0 time=100
<meta message set_tempo tempo=327869 time=20>
note_on channel=0 note=83 velocity=0 time=0
note_on channel=0 note=80 velocity=0 time=0
note_on channel=0 note=80 velocity=75 time=0
note_on channel=0 note=88 velocity=75 time=0
note_on channel=0 note=83 velocity=75 time=0
<meta message set_tempo tempo=325203 time=240>
note_on channel=0 note=63 velocity=38 time=0
note_on channel=0 note=63 velocity=0 time=220
note_on channel=0 note=63 velocity=38 time=20
note_on channel=0 note=63 velocity=0 time=220
<meta message set_tempo tempo=327869 time=20>
note_on channel=0 note=56 velocity=40 time=0
note_on channel=0 note=59 velocity=40 time=0
note_on channel=0 note=59 velocity=0 time=240
note_on channel=0 note=56 velocity=0 time=0
note_on channel=0 note=63 velocity=37 time=0
note_on channel=0 note=63 velocity=0 time=220
note_on channel=0 note=63 velocity=37 time=20
note_on channel=0 note=63 velocity=0 time=220
<meta message set_tempo tempo=327869 time=20>
note_on channel=0 note=59 velocity=37 time=0
note_on channel=0 note=56 velocity=37 time=0
note_on channel=0 note=56 velocity=0 time=240
note_on channel=0 note=59 velocity=0 time=0
note_on channel=0 note=63 velocity=37 time=0
note_on channel=0 note=63 velocity=0 time=220
note_on channel=0 note=63 velocity=37 time=20
note_on channel=0 note=63 velocity=0 time=220
<meta message set_tempo tempo=327869 time=20>
note_on channel=0 note=59 velocity=36 time=0
note_on channel=0 note=56 velocity=36 time=0
note_on channel=0 note=56 velocity=0 time=240
note_on channel=0 note=59 velocity=0 time=0
note_on channel=0 note=63 velocity=37 time=0
note_on channel=0 note=63 velocity=0 time=220
note_on channel=0 note=63 velocity=37 time=20
note_on channel=0 note=63 velocity=0 time=220
note_on channel=0 note=80 velocity=0 time=20
note_on channel=0 note=88 velocity=0 time=0
note_on channel=0 note=83 velocity=0 time=0
note_on channel=0 note=79 velocity=61 time=0
note_on channel=0 note=87 velocity=61 time=0
note_on channel=0 note=82 velocity=61 time=0
<meta message set_tempo tempo=325203 time=240>
note_on channel=0 note=63 velocity=38 time=0
note_on channel=0 note=63 velocity=0 time=220
note_on channel=0 note=79 velocity=0 time=20
note_on channel=0 note=87 velocity=0 time=0
note_on channel=0 note=82 velocity=0 time=0
note_on channel=0 note=63 velocity=38 time=0
note_on channel=0 note=63 velocity=0 time=220
<meta message set_tempo tempo=327869 time=20>
note_on channel=0 note=58 velocity=40 time=0
note_on channel=0 note=55 velocity=40 time=0
note_on channel=0 note=55 velocity=0 time=240
note_on channel=0 note=58 velocity=0 time=0
note_on channel=0 note=63 velocity=37 time=0
note_on channel=0 note=63 velocity=0 time=220
note_on channel=0 note=63 velocity=37 time=20
note_on channel=0 note=63 velocity=0 time=220
<meta message set_tempo tempo=327869 time=20>
note_on channel=0 note=75 velocity=52 time=0
note_on channel=0 note=66 velocity=52 time=0
note_on channel=0 note=69 velocity=52 time=0
<meta message set_tempo tempo=325203 time=240>
note_on channel=0 note=63 velocity=37 time=0
note_on channel=0 note=63 velocity=0 time=220
note_on channel=0 note=63 velocity=37 time=20
note_on channel=0 note=63 velocity=0 time=220
<meta message set_tempo tempo=327869 time=20>
note_on channel=0 note=54 velocity=36 time=0
note_on channel=0 note=57 velocity=36 time=0
note_on channel=0 note=57 velocity=0 time=240
note_on channel=0 note=54 velocity=0 time=0
note_on channel=0 note=63 velocity=37 time=0
note_on channel=0 note=63 velocity=0 time=220
note_on channel=0 note=63 velocity=37 time=20
note_on channel=0 note=63 velocity=0 time=220
<meta message set_tempo tempo=332410 time=20>
note_on channel=0 note=75 velocity=0 time=0
note_on channel=0 note=66 velocity=0 time=0
note_on channel=0 note=69 velocity=0 time=0
note_on channel=0 note=74 velocity=52 time=0
note_on channel=0 note=65 velocity=52 time=0
note_on channel=0 note=68 velocity=52 time=0
<meta message set_tempo tempo=328767 time=240>
note_on channel=0 note=63 velocity=37 time=0
note_on channel=0 note=63 velocity=0 time=220
note_on channel=0 note=74 velocity=0 time=20
note_on channel=0 note=65 velocity=0 time=0
note_on channel=0 note=68 velocity=0 time=0
note_on channel=0 note=63 velocity=36 time=0
note_on channel=0 note=63 velocity=0 time=220
<meta message set_tempo tempo=333333 time=20>
note_on channel=0 note=56 velocity=38 time=0
note_on channel=0 note=53 velocity=38 time=0
note_on channel=0 note=53 velocity=0 time=240
note_on channel=0 note=56 velocity=0 time=0
note_on channel=0 note=63 velocity=34 time=0
note_on channel=0 note=63 velocity=0 time=220
note_on channel=0 note=63 velocity=34 time=20
note_on channel=0 note=63 velocity=0 time=220
<meta message set_tempo tempo=335196 time=20>
note_on channel=0 note=73 velocity=46 time=0
note_on channel=0 note=64 velocity=46 time=0
note_on channel=0 note=67 velocity=46 time=0
<meta message set_tempo tempo=329670 time=240>
note_on channel=0 note=63 velocity=32 time=0
note_on channel=0 note=63 velocity=0 time=220
note_on channel=0 note=73 velocity=0 time=20
note_on channel=0 note=64 velocity=0 time=0
note_on channel=0 note=67 velocity=0 time=0
note_on channel=0 note=63 velocity=32 time=0
note_on channel=0 note=63 velocity=0 time=220
note_on channel=0 note=52 velocity=30 time=20
note_on channel=0 note=55 velocity=30 time=0
note_on channel=0 note=55 velocity=0 time=240
note_on channel=0 note=52 velocity=0 time=0
note_on channel=0 note=63 velocity=31 time=0
note_on channel=0 note=63 velocity=0 time=220
<meta message set_tempo tempo=345821 time=20>
note_on channel=0 note=63 velocity=30 time=0
note_on channel=0 note=63 velocity=0 time=220
<meta message set_tempo tempo=335196 time=20>
note_on channel=0 note=73 velocity=41 time=0
note_on channel=0 note=63 velocity=41 time=0
note_on channel=0 note=67 velocity=41 time=0
note_on channel=0 note=51 velocity=25 time=240
note_on channel=0 note=51 velocity=0 time=220
<meta message set_tempo tempo=336134 time=20>
note_on channel=0 note=51 velocity=26 time=0
note_on channel=0 note=51 velocity=0 time=220
note_on channel=0 note=67 velocity=0 time=20
note_on channel=0 note=63 velocity=0 time=0
note_on channel=0 note=73 velocity=0 time=0
note_on channel=0 note=51 velocity=28 time=0
note_on channel=0 note=51 velocity=0 time=220
<meta message set_tempo tempo=337079 time=20>
note_on channel=0 note=51 velocity=26 time=0
note_on channel=0 note=51 velocity=0 time=220
note_on channel=0 note=51 velocity=26 time=20
note_on channel=0 note=51 velocity=0 time=220
<meta message set_tempo tempo=338028 time=20>
note_on channel=0 note=51 velocity=28 time=0
note_on channel=0 note=51 velocity=0 time=220
note_on channel=0 note=51 velocity=26 time=20
note_on channel=0 note=51 velocity=0 time=220
<meta message set_tempo tempo=338983 time=20>
note_on channel=0 note=51 velocity=26 time=0
note_on channel=0 note=51 velocity=0 time=220
note_on channel=0 note=51 velocity=28 time=20
note_on channel=0 note=51 velocity=0 time=220
<meta message set_tempo tempo=339943 time=20>
note_on channel=0 note=51 velocity=26 time=0
note_on channel=0 note=51 velocity=0 time=220
note_on channel=0 note=51 velocity=27 time=20
note_on channel=0 note=51 velocity=0 time=220
<meta message set_tempo tempo=361446 time=20>
note_on channel=0 note=58 velocity=41 time=0
note_on channel=0 note=61 velocity=41 time=0
note_on channel=0 note=55 velocity=41 time=0
<meta message set_tempo tempo=340909 time=200>
note_on channel=0 note=39 velocity=25 time=40
note_on channel=0 note=39 velocity=0 time=220
note_on channel=0 note=39 velocity=26 time=20
<meta message set_tempo tempo=341880 time=80>
note_on channel=0 note=39 velocity=0 time=140
note_on channel=0 note=55 velocity=0 time=20
note_on channel=0 note=61 velocity=0 time=0
note_on channel=0 note=58 velocity=0 time=0
note_on channel=0 note=39 velocity=28 time=0
<meta message set_tempo tempo=342857 time=200>
note_on channel=0 note=39 velocity=0 time=20
note_on channel=0 note=39 velocity=26 time=20
note_on channel=0 note=39 velocity=0 time=220
note_on channel=0 note=39 velocity=26 time=20
<meta message set_tempo tempo=343840 time=80>
note_on channel=0 note=39 velocity=0 time=140
note_on channel=0 note=39 velocity=28 time=20
<meta message set_tempo tempo=344828 time=200>
note_on channel=0 note=39 velocity=0 time=20
note_on channel=0 note=39 velocity=26 time=20
<meta message set_tempo tempo=345821 time=40>
<meta message set_tempo tempo=346821 time=80>
<meta message set_tempo tempo=347826 time=40>
note_on channel=0 note=39 velocity=0 time=60
<meta message set_tempo tempo=348837 time=20>
note_on channel=0 note=39 velocity=26 time=0
<meta message set_tempo tempo=349854 time=80>
<meta message set_tempo tempo=350877 time=40>
<meta message set_tempo tempo=351906 time=80>
note_on channel=0 note=39 velocity=0 time=20
note_on channel=0 note=39 velocity=28 time=20
<meta message set_tempo tempo=352941 time=40>
<meta message set_tempo tempo=353982 time=40>
<meta message set_tempo tempo=355030 time=80>
note_on channel=0 note=39 velocity=0 time=60
<meta message set_tempo tempo=356083 time=20>
note_on channel=0 note=39 velocity=26 time=0
<meta message set_tempo tempo=357143 time=40>
<meta message set_tempo tempo=358209 time=80>
<meta message set_tempo tempo=359281 time=80>
note_on channel=0 note=39 velocity=0 time=20
<meta message set_tempo tempo=360360 time=20>
note_on channel=0 note=39 velocity=27 time=0
<meta message set_tempo tempo=361446 time=80>
<meta message set_tempo tempo=362538 time=80>
<meta message set_tempo tempo=363636 time=40>
note_on channel=0 note=39 velocity=0 time=20
<meta message set_tempo tempo=381874 time=20>
note_on channel=0 note=32 velocity=28 time=0
control_change channel=0 control=64 value=127 time=226
<meta message set_tempo tempo=363218 time=14>
note_on channel=0 note=32 velocity=0 time=0
note_on channel=0 note=44 velocity=25 time=0
note_on channel=0 note=36 velocity=20 time=0
note_on channel=0 note=39 velocity=20 time=0
note_on channel=0 note=39 velocity=0 time=240
note_on channel=0 note=36 velocity=0 time=0
note_on channel=0 note=44 velocity=0 time=0
note_on channel=0 note=32 velocity=26 time=0
note_on channel=0 note=32 velocity=0 time=240
note_on channel=0 note=44 velocity=28 time=0
note_on channel=0 note=36 velocity=22 time=0
note_on channel=0 note=39 velocity=22 time=0
note_on channel=0 note=39 velocity=0 time=240
note_on channel=0 note=36 velocity=0 time=0
note_on channel=0 note=44 velocity=0 time=0
note_on channel=0 note=32 velocity=26 time=0
note_on channel=0 note=32 velocity=0 time=240
note_on channel=0 note=44 velocity=26 time=0
note_on channel=0 note=36 velocity=20 time=0
note_on channel=0 note=39 velocity=20 time=0
note_on channel=0 note=39 velocity=0 time=240
note_on channel=0 note=36 velocity=0 time=0
note_on channel=0 note=44 velocity=0 time=0
note_on channel=0 note=32 velocity=28 time=0
note_on channel=0 note=32 velocity=0 time=240
note_on channel=0 note=44 velocity=26 time=0
note_on channel=0 note=39 velocity=20 time=0
note_on channel=0 note=36 velocity=20 time=0
note_on channel=0 note=36 velocity=0 time=240
note_on channel=0 note=39 velocity=0 time=0
note_on channel=0 note=44 velocity=0 time=0
note_on channel=0 note=32 velocity=26 time=0
note_on channel=0 note=32 velocity=0 time=240
note_on channel=0 note=60 velocity=44 time=0
note_on channel=0 note=36 velocity=22 time=0
note_on channel=0 note=48 velocity=40 time=0
note_on channel=0 note=44 velocity=28 time=0
note_on channel=0 note=39 velocity=22 time=0
<meta message set_tempo tempo=381874 time=240>
note_on channel=0 note=39 velocity=0 time=0
note_on channel=0 note=36 velocity=0 time=0
note_on channel=0 note=44 velocity=0 time=0
note_on channel=0 note=32 velocity=26 time=0
note_on channel=0 note=32 velocity=0 time=240
note_on channel=0 note=36 velocity=21 time=0
note_on channel=0 note=39 velocity=21 time=0
note_on channel=0 note=44 velocity=27 time=0
<meta message set_tempo tempo=484301 time=120>
note_on channel=0 note=48 velocity=0 time=0
note_on channel=0 note=60 velocity=0 time=0
note_on channel=0 note=63 velocity=40 time=0
note_on channel=0 note=51 velocity=37 time=0
<meta message set_tempo tempo=339501 time=120>
note_on channel=0 note=51 velocity=0 time=0
note_on channel=0 note=39 velocity=0 time=0
note_on channel=0 note=44 velocity=0 time=0
note_on channel=0 note=36 velocity=0 time=0
note_on channel=0 note=63 velocity=0 time=0
note_on channel=0 note=56 velocity=38 time=0
note_on channel=0 note=68 velocity=41 time=0
note_on channel=0 note=32 velocity=28 time=0
control_change channel=0 control=64 value=0 time=15
<meta message set_tempo tempo=343466 time=25>
control_change channel=0 control=64 value=127 time=130
note_on channel=0 note=32 velocity=0 time=70
note_on channel=0 note=44 velocity=25 time=0
note_on channel=0 note=36 velocity=20 time=0
note_on channel=0 note=39 velocity=20 time=0
note_on channel=0 note=39 velocity=0 time=240
note_on channel=0 note=44 velocity=0 time=0
note_on channel=0 note=36 velocity=0 time=0
note_on channel=0 note=32 velocity=26 time=0
<meta message set_tempo tempo=360101 time=240>
note_on channel=0 note=32 velocity=0 time=0
note_on channel=0 note=68 velocity=0 time=0
note_on channel=0 note=56 velocity=0 time=0
note_on channel=0 note=72 velocity=44 time=0
note_on channel=0 note=60 velocity=40 time=0
note_on channel=0 note=44 velocity=28 time=0
note_on channel=0 note=36 velocity=22 time=0
note_on channel=0 note=39 velocity=22 time=0
<meta message set_tempo tempo=367444 time=240>
note_on channel=0 note=39 velocity=0 time=0
note_on channel=0 note=44 velocity=0 time=0
note_on channel=0 note=36 velocity=0 time=0
note_on channel=0 note=32 velocity=26 time=0
note_on channel=0 note=32 velocity=0 time=240
note_on channel=0 note=36 velocity=20 time=0
note_on channel=0 note=39 velocity=20 time=0
note_on channel=0 note=44 velocity=26 time=0
<meta message set_tempo tempo=419933 time=120>
note_on channel=0 note=60 velocity=0 time=0
note_on channel=0 note=72 velocity=0 time=0
note_on channel=0 note=56 velocity=36 time=0
note_on channel=0 note=68 velocity=39 time=0
note_on channel=0 note=68 velocity=0 time=120
note_on channel=0 note=39 velocity=0 time=0
note_on channel=0 note=44 velocity=0 time=0
note_on channel=0 note=36 velocity=0 time=0
note_on channel=0 note=56 velocity=0 time=0
note_on channel=0 note=67 velocity=41 time=0
note_on channel=0 note=55 velocity=38 time=0
note_on channel=0 note=34 velocity=28 time=0
control_change channel=0 control=64 value=0 time=21
<meta message set_tempo tempo=350120 time=19>
control_change channel=0 control=64 value=127 time=116
note_on channel=0 note=34 velocity=0 time=84
note_on channel=0 note=46 velocity=26 time=0
note_on channel=0 note=39 velocity=20 time=0
note_on channel=0 note=37 velocity=20 time=0
note_on channel=0 note=37 velocity=0 time=240
note_on channel=0 note=46 velocity=0 time=0
note_on channel=0 note=39 velocity=0 time=0
note_on channel=0 note=34 velocity=26 time=0
<meta message set_tempo tempo=357058 time=240>
note_on channel=0 note=34 velocity=0 time=0
note_on channel=0 note=55 velocity=0 time=0
note_on channel=0 note=67 velocity=0 time=0
note_on channel=0 note=58 velocity=40 time=0
note_on channel=0 note=70 velocity=44 time=0
note_on channel=0 note=39 velocity=22 time=0
note_on channel=0 note=46 velocity=28 time=0
note_on channel=0 note=37 velocity=22 time=0
<meta message set_tempo tempo=375117 time=240>
note_on channel=0 note=37 velocity=0 time=0
note_on channel=0 note=39 velocity=0 time=0
note_on channel=0 note=46 velocity=0 time=0
note_on channel=0 note=34 velocity=26 time=0
note_on channel=0 note=34 velocity=0 time=240
note_on channel=0 note=37 velocity=21 time=0
note_on channel=0 note=46 velocity=27 time=0
note_on channel=0 note=39 velocity=21 time=0
<meta message set_tempo tempo=451433 time=120>
note_on channel=0 note=70 velocity=0 time=0
note_on channel=0 note=58 velocity=0 time=0
note_on channel=0 note=55 velocity=36 time=0
note_on channel=0 note=67 velocity=39 time=0
<meta message set_tempo tempo=343466 time=120>
note_on channel=0 note=67 velocity=0 time=0
note_on channel=0 note=46 velocity=0 time=0
note_on channel=0 note=39 velocity=0 time=0
note_on channel=0 note=37 velocity=0 time=0
note_on channel=0 note=55 velocity=0 time=0
note_on channel=0 note=68 velocity=41 time=0
note_on channel=0 note=56 velocity=38 time=0
note_on channel=0 note=36 velocity=28 time=0
control_change channel=0 control=64 value=0 time=10
control_change channel=0 control=64 value=127 time=117
note_on channel=0 note=36 velocity=0 time=113
note_on channel=0 note=39 velocity=20 time=0
note_on channel=0 note=44 velocity=20 time=0
note_on channel=0 note=48 velocity=25 time=0
note_on channel=0 note=48 velocity=0 time=240
note_on channel=0 note=39 velocity=0 time=0
note_on channel=0 note=44 velocity=0 time=0
note_on channel=0 note=36 velocity=26 time=0
<meta message set_tempo tempo=353066 time=240>
note_on channel=0 note=36 velocity=0 time=0
note_on channel=0 note=56 velocity=0 time=0
note_on channel=0 note=68 velocity=0 time=0
note_on channel=0 note=63 velocity=40 time=0
note_on channel=0 note=39 velocity=22 time=0
note_on channel=0 note=51 velocity=40 time=0
note_on channel=0 note=44 velocity=22 time=0
note_on channel=0 note=48 velocity=28 time=0
note_on channel=0 note=48 velocity=0 time=240
note_on channel=0 note=39 velocity=0 time=0
note_on channel=0 note=44 velocity=0 time=0
note_on channel=0 note=36 velocity=26 time=0
note_on channel=0 note=36 velocity=0 time=240
note_on channel=0 note=44 velocity=20 time=0
note_on channel=0 note=48 velocity=26 time=0
note_on channel=0 note=39 velocity=20 time=0
note_on channel=0 note=39 velocity=0 time=240
note_on channel=0 note=44 velocity=0 time=0
note_on channel=0 note=48 velocity=0 time=0
note_on channel=0 note=36 velocity=28 time=0
note_on channel=0 note=36 velocity=0 time=240
note_on channel=0 note=39 velocity=20 time=0
note_on channel=0 note=44 velocity=20 time=0
note_on channel=0 note=48 velocity=26 time=0
note_on channel=0 note=48 velocity=0 time=240
note_on channel=0 note=39 velocity=0 time=0
note_on channel=0 note=44 velocity=0 time=0
note_on channel=0 note=36 velocity=26 time=0
note_on channel=0 note=36 velocity=0 time=240
note_on channel=0 note=51 velocity=0 time=0
note_on channel=0 note=63 velocity=0 time=0
note_on channel=0 note=65 velocity=44 time=0
note_on channel=0 note=53 velocity=40 time=0
note_on channel=0 note=44 velocity=28 time=0
control_change channel=0 control=64 value=0 time=14
control_change channel=0 control=64 value=127 time=64
<meta message set_tempo tempo=375117 time=162>
note_on channel=0 note=44 velocity=0 time=0
note_on channel=0 note=37 velocity=26 time=0
note_on channel=0 note=37 velocity=0 time=240
note_on channel=0 note=44 velocity=27 time=0
<meta message set_tempo tempo=449809 time=120>
note_on channel=0 note=53 velocity=0 time=0
note_on channel=0 note=65 velocity=0 time=0
note_on channel=0 note=61 velocity=40 time=0
note_on channel=0 note=49 velocity=37 time=0
<meta message set_tempo tempo=342544 time=120>
note_on channel=0 note=49 velocity=0 time=0
note_on channel=0 note=61 velocity=0 time=0
note_on channel=0 note=44 velocity=0 time=0
note_on channel=0 note=60 velocity=44 time=0
note_on channel=0 note=48 velocity=40 time=0
note_on channel=0 note=39 velocity=28 time=0
control_change channel=0 control=64 value=0 time=10
control_change channel=0 control=64 value=127 time=131
note_on channel=0 note=39 velocity=0 time=99
note_on channel=0 note=44 velocity=25 time=0
note_on channel=0 note=44 velocity=0 time=240
note_on channel=0 note=39 velocity=26 time=0
<meta message set_tempo tempo=361141 time=240>
note_on channel=0 note=39 velocity=0 time=0
note_on channel=0 note=48 velocity=0 time=0
note_on channel=0 note=60 velocity=0 time=0
note_on channel=0 note=63 velocity=44 time=0
note_on channel=0 note=44 velocity=28 time=0
note_on channel=0 note=51 velocity=40 time=0
<meta message set_tempo tempo=368505 time=240>
note_on channel=0 note=44 velocity=0 time=0
note_on channel=0 note=39 velocity=25 time=0
note_on channel=0 note=39 velocity=0 time=240
note_on channel=0 note=44 velocity=25 time=0
<meta message set_tempo tempo=419933 time=120>
note_on channel=0 note=51 velocity=0 time=0
note_on channel=0 note=63 velocity=0 time=0
note_on channel=0 note=60 velocity=39 time=0
note_on channel=0 note=48 velocity=36 time=0
note_on channel=0 note=48 velocity=0 time=120
note_on channel=0 note=60 velocity=0 time=0
note_on channel=0 note=44 velocity=0 time=0
note_on channel=0 note=58 velocity=44 time=0
note_on channel=0 note=46 velocity=40 time=0
note_on channel=0 note=39 velocity=28 time=0
control_change channel=0 control=64 value=0 time=2
<meta message set_tempo tempo=350120 time=38>
control_change channel=0 control=64 value=127 time=59
note_on channel=0 note=39 velocity=0 time=141
note_on channel=0 note=43 velocity=25 time=0
note_on channel=0 note=43 velocity=0 time=240
note_on channel=0 note=39 velocity=25 time=0
<meta message set_tempo tempo=357058 time=240>
note_on channel=0 note=39 velocity=0 time=0
note_on channel=0 note=46 velocity=0 time=0
note_on channel=0 note=58 velocity=0 time=0
note_on channel=0 note=63 velocity=44 time=0
note_on channel=0 note=51 velocity=40 time=0
note_on channel=0 note=43 velocity=28 time=0
<meta message set_tempo tempo=384197 time=240>
note_on channel=0 note=43 velocity=0 time=0
note_on channel=0 note=39 velocity=25 time=0
note_on channel=0 note=39 velocity=0 time=240
note_on channel=0 note=43 velocity=25 time=0
<meta message set_tempo tempo=471624 time=120>
note_on channel=0 note=51 velocity=0 time=0
note_on channel=0 note=63 velocity=0 time=0
note_on channel=0 note=61 velocity=39 time=0
note_on channel=0 note=49 velocity=36 time=0
<meta message set_tempo tempo=367444 time=120>
note_on channel=0 note=49 velocity=0 time=0
note_on channel=0 note=61 velocity=0 time=0
note_on channel=0 note=43 velocity=0 time=0
note_on channel=0 note=60 velocity=42 time=0
note_on channel=0 note=44 velocity=28 time=0
control_change channel=0 control=64 value=0 time=11
control_change channel=0 control=64 value=127 time=130
note_on channel=0 note=44 velocity=0 time=99
note_on channel=0 note=56 velocity=25 time=0
note_on channel=0 note=48 velocity=20 time=0
note_on channel=0 note=51 velocity=20 time=0
note_on channel=0 note=51 velocity=0 time=240
note_on channel=0 note=48 velocity=0 time=0
note_on channel=0 note=56 velocity=0 time=0
note_on channel=0 note=44 velocity=27 time=0
<meta message set_tempo tempo=359088 time=240>
note_on channel=0 note=44 velocity=0 time=0
note_on channel=0 note=60 velocity=0 time=0
note_on channel=0 note=63 velocity=42 time=0
note_on channel=0 note=56 velocity=29 time=0
note_on channel=0 note=48 velocity=23 time=0
note_on channel=0 note=51 velocity=23 time=0
note_on channel=0 note=51 velocity=0 time=240
note_on channel=0 note=48 velocity=0 time=0
note_on channel=0 note=56 velocity=0 time=0
note_on channel=0 note=44 velocity=28 time=0
note_on channel=0 note=44 velocity=0 time=240
note_on channel=0 note=56 velocity=29 time=0
note_on channel=0 note=48 velocity=22 time=0
note_on channel=0 note=51 velocity=22 time=0
note_on channel=0 note=51 velocity=0 time=240
note_on channel=0 note=48 velocity=0 time=0
note_on channel=0 note=56 velocity=0 time=0
note_on channel=0 note=44 velocity=32 time=0
note_on channel=0 note=44 velocity=0 time=240
note_on channel=0 note=56 velocity=31 time=0
note_on channel=0 note=51 velocity=24 time=0
note_on channel=0 note=48 velocity=24 time=0
note_on channel=0 note=48 velocity=0 time=240
note_on channel=0 note=51 velocity=0 time=0
note_on channel=0 note=56 velocity=0 time=0
note_on channel=0 note=44 velocity=31 time=0
note_on channel=0 note=44 velocity=0 time=240
note_on channel=0 note=63 velocity=0 time=0
note_on channel=0 note=72 velocity=55 time=0
note_on channel=0 note=48 velocity=27 time=0
note_on channel=0 note=51 velocity=27 time=0
note_on channel=0 note=56 velocity=35 time=0
note_on channel=0 note=60 velocity=51 time=0
<meta message set_tempo tempo=375117 time=240>
note_on channel=0 note=56 velocity=0 time=0
note_on channel=0 note=51 velocity=0 time=0
note_on channel=0 note=48 velocity=0 time=0
note_on channel=0 note=44 velocity=33 time=0
note_on channel=0 note=44 velocity=0 time=240
note_on channel=0 note=48 velocity=27 time=0
note_on channel=0 note=51 velocity=27 time=0
note_on channel=0 note=56 velocity=34 time=0
<meta message set_tempo tempo=486145 time=120>
note_on channel=0 note=72 velocity=0 time=0
note_on channel=0 note=60 velocity=0 time=0
note_on channel=0 note=75 velocity=53 time=0
note_on channel=0 note=63 velocity=49 time=0
<meta message set_tempo tempo=354045 time=120>
note_on channel=0 note=63 velocity=0 time=0
note_on channel=0 note=51 velocity=0 time=0
note_on channel=0 note=56 velocity=0 time=0
note_on channel=0 note=48 velocity=0 time=0
note_on channel=0 note=75 velocity=0 time=0
note_on channel=0 note=80 velocity=56 time=0
note_on channel=0 note=68 velocity=51 time=0
note_on channel=0 note=44 velocity=37 time=0
control_change channel=0 control=64 value=0 time=11
control_change channel=0 control=64 value=127 time=81
note_on channel=0 note=44 velocity=0 time=148
note_on channel=0 note=56 velocity=34 time=0
note_on channel=0 note=51 velocity=27 time=0
note_on channel=0 note=48 velocity=27 time=0
note_on channel=0 note=48 velocity=0 time=240
note_on channel=0 note=56 velocity=0 time=0
note_on channel=0 note=51 velocity=0 time=0
note_on channel=0 note=44 velocity=36 time=0
<meta message set_tempo tempo=357590 time=240>
note_on channel=0 note=44 velocity=0 time=0
note_on channel=0 note=68 velocity=0 time=0
note_on channel=0 note=80 velocity=0 time=0
note_on channel=0 note=72 velocity=57 time=0
note_on channel=0 note=84 velocity=62 time=0
note_on channel=0 note=56 velocity=39 time=0
note_on channel=0 note=51 velocity=30 time=0
note_on channel=0 note=48 velocity=30 time=0
<meta message set_tempo tempo=363218 time=240>
note_on channel=0 note=48 velocity=0 time=0
note_on channel=0 note=56 velocity=0 time=0
note_on channel=0 note=51 velocity=0 time=0
note_on channel=0 note=44 velocity=37 time=0
note_on channel=0 note=44 velocity=0 time=240
note_on channel=0 note=48 velocity=29 time=0
note_on channel=0 note=56 velocity=38 time=0
note_on channel=0 note=51 velocity=29 time=0
<meta message set_tempo tempo=419933 time=120>
note_on channel=0 note=84 velocity=0 time=0
note_on channel=0 note=72 velocity=0 time=0
note_on channel=0 note=80 velocity=58 time=0
note_on channel=0 note=68 velocity=53 time=0
note_on channel=0 note=68 velocity=0 time=120
note_on channel=0 note=56 velocity=0 time=0
note_on channel=0 note=51 velocity=0 time=0
note_on channel=0 note=48 velocity=0 time=0
note_on channel=0 note=80 velocity=0 time=0
note_on channel=0 note=67 velocity=57 time=0
note_on channel=0 note=79 velocity=61 time=0
note_on channel=0 note=46 velocity=40 time=0
control_change channel=0 control=64 value=0 time=16
<meta message set_tempo tempo=350120 time=24>
control_change channel=0 control=64 value=127 time=87
note_on channel=0 note=46 velocity=0 time=113
note_on channel=0 note=58 velocity=38 time=0
note_on channel=0 note=51 velocity=29 time=0
note_on channel=0 note=49 velocity=29 time=0
note_on channel=0 note=49 velocity=0 time=240
note_on channel=0 note=58 velocity=0 time=0
note_on channel=0 note=51 velocity=0 time=0
note_on channel=0 note=46 velocity=39 time=0
<meta message set_tempo tempo=366367 time=240>
note_on channel=0 note=46 velocity=0 time=0
note_on channel=0 note=79 velocity=0 time=0
note_on channel=0 note=67 velocity=0 time=0
note_on channel=0 note=70 velocity=62 time=0
note_on channel=0 note=82 velocity=68 time=0
note_on channel=0 note=51 velocity=34 time=0
note_on channel=0 note=58 velocity=42 time=0
note_on channel=0 note=49 velocity=34 time=0
<meta message set_tempo tempo=375117 time=240>
note_on channel=0 note=49 velocity=0 time=0
note_on channel=0 note=51 velocity=0 time=0
note_on channel=0 note=58 velocity=0 time=0
note_on channel=0 note=46 velocity=40 time=0
note_on channel=0 note=46 velocity=0 time=240
note_on channel=0 note=49 velocity=33 time=0
note_on channel=0 note=58 velocity=42 time=0
note_on channel=0 note=51 velocity=33 time=0
<meta message set_tempo tempo=542986 time=120>
note_on channel=0 note=82 velocity=0 time=0
note_on channel=0 note=70 velocity=0 time=0
note_on channel=0 note=79 velocity=63 time=0
note_on channel=0 note=67 velocity=58 time=0
<meta message set_tempo tempo=359088 time=120>
note_on channel=0 note=67 velocity=0 time=0
note_on channel=0 note=58 velocity=0 time=0
note_on channel=0 note=51 velocity=0 time=0
note_on channel=0 note=49 velocity=0 time=0
note_on channel=0 note=79 velocity=0 time=0
note_on channel=0 note=68 velocity=51 time=0
note_on channel=0 note=80 velocity=57 time=0
note_on channel=0 note=60 velocity=36 time=0
note_on channel=0 note=51 velocity=28 time=0
note_on channel=0 note=48 velocity=28 time=0
note_on channel=0 note=56 velocity=36 time=0
control_change channel=0 control=64 value=0 time=10
control_change channel=0 control=64 value=127 time=310
<meta message set_tempo tempo=347242 time=400>
note_on channel=0 note=80 velocity=0 time=0
note_on channel=0 note=68 velocity=0 time=0
note_on channel=0 note=63 velocity=45 time=0
note_on channel=0 note=75 velocity=52 time=0
<meta message set_tempo tempo=362538 time=2160>
note_on channel=0 note=75 velocity=0 time=0
note_on channel=0 note=56 velocity=0 time=0
note_on channel=0 note=60 velocity=0 time=0
note_on channel=0 note=51 velocity=0 time=0
note_on channel=0 note=63 velocity=0 time=0
note_on channel=0 note=48 velocity=0 time=0
note_on channel=0 note=76 velocity=85 time=0
note_on channel=0 note=64 velocity=72 time=0
note_on channel=0 note=56 velocity=59 time=0
note_on channel=0 note=49 velocity=50 time=0
note_on channel=0 note=52 velocity=50 time=0
control_change channel=0 control=64 value=0 time=12
control_change channel=0 control=64 value=127 time=228
<meta message set_tempo tempo=328767 time=480>
note_on channel=0 note=56 velocity=0 time=0
note_on channel=0 note=76 velocity=0 time=0
note_on channel=0 note=64 velocity=0 time=0
note_on channel=0 note=61 velocity=69 time=0
note_on channel=0 note=73 velocity=81 time=0
note_on channel=0 note=57 velocity=57 time=0
control_change channel=0 control=64 value=0 time=20
control_change channel=0 control=64 value=127 time=320
<meta message set_tempo tempo=334262 time=1820>
note_on channel=0 note=57 velocity=0 time=0
note_on channel=0 note=61 velocity=0 time=0
note_on channel=0 note=52 velocity=0 time=0
note_on channel=0 note=49 velocity=0 time=0
note_on channel=0 note=73 velocity=0 time=0
note_on channel=0 note=71 velocity=58 time=0
note_on channel=0 note=56 velocity=36 time=0
note_on channel=0 note=51 velocity=28 time=0
note_on channel=0 note=59 velocity=36 time=0
control_change channel=0 control=64 value=0 time=14
control_change channel=0 control=64 value=127 time=215
<meta message set_tempo tempo=345821 time=1931>
note_on channel=0 note=71 velocity=0 time=0
note_on channel=0 note=70 velocity=51 time=0
<meta message set_tempo tempo=396040 time=480>
note_on channel=0 note=70 velocity=0 time=0
note_on channel=0 note=68 velocity=49 time=0
control_change channel=0 control=64 value=0 time=14
note_on channel=0 note=68 velocity=0 time=166
note_on channel=0 note=69 velocity=38 time=0
<meta message set_tempo tempo=360360 time=40>
note_on channel=0 note=69 velocity=0 time=20
note_on channel=0 note=59 velocity=0 time=0
note_on channel=0 note=51 velocity=0 time=0
note_on channel=0 note=56 velocity=0 time=0
note_on channel=0 note=70 velocity=44 time=0
note_on channel=0 note=55 velocity=31 time=0
note_on channel=0 note=61 velocity=31 time=0
note_on channel=0 note=51 velocity=25 time=0
<meta message set_tempo tempo=359281 time=20>
<meta message set_tempo tempo=358209 time=40>
control_change channel=0 control=64 value=127 time=37
<meta message set_tempo tempo=357143 time=3>
note_on channel=0 note=70 velocity=0 time=20
note_on channel=0 note=71 velocity=38 time=0
<meta message set_tempo tempo=356083 time=20>
<meta message set_tempo tempo=355030 time=40>
<meta message set_tempo tempo=353982 time=40>
<meta message set_tempo tempo=350877 time=20>
note_on channel=0 note=71 velocity=0 time=0
note_on channel=0 note=70 velocity=46 time=0
<meta message set_tempo tempo=349854 time=20>
<meta message set_tempo tempo=348837 time=20>
<meta message set_tempo tempo=347826 time=20>
<meta message set_tempo tempo=349854 time=60>
note_on channel=0 note=70 velocity=0 time=0
note_on channel=0 note=71 velocity=40 time=0
<meta message set_tempo tempo=350877 time=20>
<meta message set_tempo tempo=352941 time=20>
<meta message set_tempo tempo=353982 time=20>
<meta message set_tempo tempo=355030 time=20>
note_on channel=0 note=71 velocity=0 time=40
note_on channel=0 note=70 velocity=47 time=0
<meta message set_tempo tempo=353982 time=20>
<meta message set_tempo tempo=351906 time=20>
<meta message set_tempo tempo=350877 time=20>
<meta message set_tempo tempo=349854 time=20>
<meta message set_tempo tempo=348837 time=12>
<meta message set_tempo tempo=347826 time=12>
<meta message set_tempo tempo=346821 time=16>
note_on channel=0 note=70 velocity=0 time=0
note_on channel=0 note=71 velocity=40 time=0
<meta message set_tempo tempo=345821 time=12>
<meta message set_tempo tempo=344828 time=12>
<meta message set_tempo tempo=343840 time=28>
<meta message set_tempo tempo=345821 time=52>
<meta message set_tempo tempo=346821 time=16>
note_on channel=0 note=71 velocity=0 time=0
note_on channel=0 note=70 velocity=48 time=0
<meta message set_tempo tempo=347826 time=12>
<meta message set_tempo tempo=345821 time=12>
<meta message set_tempo tempo=342857 time=16>
<meta message set_tempo tempo=341880 time=24>
<meta message set_tempo tempo=340909 time=28>
<meta message set_tempo tempo=342857 time=28>
note_on channel=0 note=70 velocity=0 time=0
note_on channel=0 note=71 velocity=41 time=0
<meta message set_tempo tempo=339943 time=24>
<meta message set_tempo tempo=338983 time=16>
<meta message set_tempo tempo=338028 time=12>
<meta message set_tempo tempo=337079 time=12>
<meta message set_tempo tempo=338983 time=28>
<meta message set_tempo tempo=340909 time=12>
<meta message set_tempo tempo=341880 time=16>
note_on channel=0 note=71 velocity=0 time=0
note_on channel=0 note=70 velocity=49 time=0
<meta message set_tempo tempo=339943 time=92>
<meta message set_tempo tempo=337079 time=12>
note_on channel=0 note=70 velocity=0 time=16
note_on channel=0 note=71 velocity=42 time=0
<meta message set_tempo tempo=338028 time=12>
<meta message set_tempo tempo=337079 time=28>
<meta message set_tempo tempo=336134 time=24>
<meta message set_tempo tempo=337079 time=40>
<meta message set_tempo tempo=339943 time=16>
note_on channel=0 note=71 velocity=0 time=0
note_on channel=0 note=70 velocity=50 time=0
<meta message set_tempo tempo=340909 time=12>
<meta message set_tempo tempo=338983 time=68>
<meta message set_tempo tempo=338028 time=24>
note_on channel=0 note=70 velocity=0 time=16
note_on channel=0 note=71 velocity=42 time=0
<meta message set_tempo tempo=337079 time=12>
<meta message set_tempo tempo=338028 time=28>
<meta message set_tempo tempo=339943 time=12>
<meta message set_tempo tempo=341880 time=12>
<meta message set_tempo tempo=340909 time=56>
note_on channel=0 note=71 velocity=0 time=0
note_on channel=0 note=70 velocity=51 time=0
<meta message set_tempo tempo=339943 time=12>
<meta message set_tempo tempo=338983 time=12>
<meta message set_tempo tempo=338028 time=56>
<meta message set_tempo tempo=341880 time=12>
<meta message set_tempo tempo=343840 time=12>
note_on channel=0 note=70 velocity=0 time=16
note_on channel=0 note=71 velocity=44 time=0
<meta message set_tempo tempo=342857 time=24>
<meta message set_tempo tempo=341880 time=16>
<meta message set_tempo tempo=340909 time=24>
<meta message set_tempo tempo=339943 time=16>
<meta message set_tempo tempo=338983 time=12>
note_on channel=0 note=71 velocity=0 time=28
note_on channel=0 note=70 velocity=51 time=0
<meta message set_tempo tempo=339943 time=24>
<meta message set_tempo tempo=342857 time=28>
<meta message set_tempo tempo=343840 time=12>
<meta message set_tempo tempo=342857 time=40>
note_on channel=0 note=70 velocity=0 time=16
note_on channel=0 note=71 velocity=45 time=0
<meta message set_tempo tempo=341880 time=12>
<meta message set_tempo tempo=340909 time=12>
<meta message set_tempo tempo=341880 time=68>
<meta message set_tempo tempo=342857 time=12>
<meta message set_tempo tempo=343840 time=16>
note_on channel=0 note=71 velocity=0 time=0
note_on channel=0 note=70 velocity=52 time=0
<meta message set_tempo tempo=342857 time=104>
note_on channel=0 note=70 velocity=0 time=16
note_on channel=0 note=71 velocity=46 time=0
<meta message set_tempo tempo=341880 time=12>
<meta message set_tempo tempo=338983 time=12>
<meta message set_tempo tempo=339943 time=40>
<meta message set_tempo tempo=341880 time=16>
<meta message set_tempo tempo=342857 time=24>
<meta message set_tempo tempo=344828 time=16>
note_on channel=0 note=71 velocity=0 time=0
note_on channel=0 note=70 velocity=53 time=0
<meta message set_tempo tempo=346821 time=40>
<meta message set_tempo tempo=347826 time=12>
<meta message set_tempo tempo=345821 time=40>
<meta message set_tempo tempo=344828 time=12>
<meta message set_tempo tempo=342857 time=16>
note_on channel=0 note=70 velocity=0 time=0
note_on channel=0 note=71 velocity=48 time=0
<meta message set_tempo tempo=341880 time=12>
<meta message set_tempo tempo=343840 time=40>
<meta message set_tempo tempo=344828 time=12>
<meta message set_tempo tempo=345821 time=16>
note_on channel=0 note=71 velocity=0 time=40
note_on channel=0 note=70 velocity=55 time=0
<meta message set_tempo tempo=344828 time=12>
<meta message set_tempo tempo=343840 time=12>
<meta message set_tempo tempo=344828 time=68>
<meta message set_tempo tempo=345821 time=12>
<meta message set_tempo tempo=346821 time=16>
note_on channel=0 note=70 velocity=0 time=0
note_on channel=0 note=71 velocity=48 time=0
<meta message set_tempo tempo=351906 time=120>
note_on channel=0 note=71 velocity=0 time=0
note_on channel=0 note=70 velocity=56 time=0
<meta message set_tempo tempo=350877 time=20>
<meta message set_tempo tempo=349854 time=20>
<meta message set_tempo tempo=348837 time=40>
<meta message set_tempo tempo=349854 time=40>
note_on channel=0 note=70 velocity=0 time=0
note_on channel=0 note=71 velocity=48 time=0
<meta message set_tempo tempo=350877 time=20>
<meta message set_tempo tempo=351906 time=20>
<meta message set_tempo tempo=352941 time=20>
<meta message set_tempo tempo=600000 time=60>
note_on channel=0 note=71 velocity=0 time=0
note_on channel=0 note=51 velocity=0 time=0
note_on channel=0 note=61 velocity=0 time=0
note_on channel=0 note=55 velocity=0 time=0
note_on channel=0 note=76 velocity=46 time=0
control_change channel=0 control=64 value=0 time=14
<meta message set_tempo tempo=359281 time=6>
<meta message set_tempo tempo=358209 time=40>
<meta message set_tempo tempo=349854 time=4>
<meta message set_tempo tempo=348837 time=16>
<meta message set_tempo tempo=347826 time=12>
control_change channel=0 control=64 value=127 time=11
<meta message set_tempo tempo=346821 time=1>
<meta message set_tempo tempo=345821 time=16>
note_on channel=0 note=76 velocity=0 time=0
note_on channel=0 note=75 velocity=39 time=0
<meta message set_tempo tempo=344828 time=12>
<meta message set_tempo tempo=345821 time=40>
<meta message set_tempo tempo=346821 time=28>
<meta message set_tempo tempo=348837 time=24>
note_on channel=0 note=75 velocity=0 time=16
note_on channel=0 note=76 velocity=46 time=0
<meta message set_tempo tempo=347826 time=24>
<meta message set_tempo tempo=344828 time=16>
<meta message set_tempo tempo=343840 time=12>
<meta message set_tempo tempo=341880 time=28>
<meta message set_tempo tempo=340909 time=12>
<meta message set_tempo tempo=341880 time=28>
note_on channel=0 note=76 velocity=0 time=0
note_on channel=0 note=75 velocity=40 time=0
<meta message set_tempo tempo=343840 time=12>
<meta message set_tempo tempo=345821 time=12>
<meta message set_tempo tempo=343840 time=68>
<meta message set_tempo tempo=341880 time=28>
note_on channel=0 note=75 velocity=0 time=0
note_on channel=0 note=76 velocity=48 time=0
<meta message set_tempo tempo=339943 time=12>
<meta message set_tempo tempo=338983 time=12>
<meta message set_tempo tempo=339943 time=40>
<meta message set_tempo tempo=340909 time=16>
<meta message set_tempo tempo=341880 time=12>
<meta message set_tempo tempo=342857 time=12>
note_on channel=0 note=76 velocity=0 time=16
note_on channel=0 note=75 velocity=41 time=0
<meta message set_tempo tempo=341880 time=40>
<meta message set_tempo tempo=338983 time=12>
<meta message set_tempo tempo=338028 time=12>
<meta message set_tempo tempo=337079 time=16>
<meta message set_tempo tempo=336134 time=12>
<meta message set_tempo tempo=338028 time=28>
note_on channel=0 note=75 velocity=0 time=0
note_on channel=0 note=76 velocity=50 time=0
<meta message set_tempo tempo=338983 time=12>
<meta message set_tempo tempo=339943 time=12>
<meta message set_tempo tempo=340909 time=28>
<meta message set_tempo tempo=339943 time=52>
<meta message set_tempo tempo=338983 time=16>
note_on channel=0 note=76 velocity=0 time=0
note_on channel=0 note=75 velocity=44 time=0
<meta message set_tempo tempo=337079 time=12>
<meta message set_tempo tempo=336134 time=12>
<meta message set_tempo tempo=335196 time=16>
<meta message set_tempo tempo=336134 time=24>
<meta message set_tempo tempo=338028 time=16>
note_on channel=0 note=75 velocity=0 time=40
note_on channel=0 note=76 velocity=51 time=0
<meta message set_tempo tempo=337079 time=24>
<meta message set_tempo tempo=336134 time=16>
<meta message set_tempo tempo=335196 time=64>
note_on channel=0 note=76 velocity=0 time=16
note_on channel=0 note=75 velocity=45 time=0
<meta message set_tempo tempo=338028 time=12>
<meta message set_tempo tempo=337079 time=80>
<meta message set_tempo tempo=336134 time=12>
note_on channel=0 note=75 velocity=0 time=16
note_on channel=0 note=76 velocity=53 time=0
<meta message set_tempo tempo=337079 time=64>
<meta message set_tempo tempo=338028 time=16>
<meta message set_tempo tempo=338983 time=12>
note_on channel=0 note=76 velocity=0 time=28
note_on channel=0 note=75 velocity=47 time=0
<meta message set_tempo tempo=338028 time=40>
<meta message set_tempo tempo=337079 time=24>
note_on channel=0 note=75 velocity=0 time=56
note_on channel=0 note=76 velocity=56 time=0
<meta message set_tempo tempo=336134 time=12>
<meta message set_tempo tempo=338983 time=52>
<meta message set_tempo tempo=339943 time=40>
note_on channel=0 note=76 velocity=0 time=16
note_on channel=0 note=75 velocity=48 time=0
<meta message set_tempo tempo=338983 time=104>
note_on channel=0 note=75 velocity=0 time=16
note_on channel=0 note=76 velocity=56 time=0
<meta message set_tempo tempo=338028 time=40>
<meta message set_tempo tempo=339943 time=40>
<meta message set_tempo tempo=340909 time=12>
note_on channel=0 note=76 velocity=0 time=28
note_on channel=0 note=75 velocity=47 time=0
<meta message set_tempo tempo=339943 time=24>
<meta message set_tempo tempo=338983 time=40>
note_on channel=0 note=75 velocity=0 time=56
note_on channel=0 note=76 velocity=56 time=0
<meta message set_tempo tempo=340909 time=24>
<meta message set_tempo tempo=341880 time=16>
<meta message set_tempo tempo=340909 time=64>
<meta message set_tempo tempo=339943 time=16>
note_on channel=0 note=76 velocity=0 time=0
note_on channel=0 note=75 velocity=48 time=0
<meta message set_tempo tempo=341880 time=80>
<meta message set_tempo tempo=342857 time=12>
note_on channel=0 note=75 velocity=0 time=28
note_on channel=0 note=76 velocity=56 time=0
<meta message set_tempo tempo=341880 time=64>
note_on channel=0 note=76 velocity=0 time=56
note_on channel=0 note=75 velocity=49 time=0
<meta message set_tempo tempo=342857 time=12>
<meta message set_tempo tempo=344828 time=12>
<meta message set_tempo tempo=345821 time=16>
<meta message set_tempo tempo=344828 time=24>
<meta message set_tempo tempo=343840 time=16>
<meta message set_tempo tempo=342857 time=12>
<meta message set_tempo tempo=341880 time=28>
note_on channel=0 note=75 velocity=0 time=0
note_on channel=0 note=76 velocity=56 time=0
<meta message set_tempo tempo=340909 time=12>
<meta message set_tempo tempo=339943 time=40>
<meta message set_tempo tempo=341880 time=28>
<meta message set_tempo tempo=347826 time=12>
<meta message set_tempo tempo=349854 time=12>
note_on channel=0 note=76 velocity=0 time=16
note_on channel=0 note=75 velocity=49 time=0
<meta message set_tempo tempo=348837 time=40>
<meta message set_tempo tempo=346821 time=12>
<meta message set_tempo tempo=345821 time=12>
<meta message set_tempo tempo=344828 time=16>
<meta message set_tempo tempo=343840 time=12>
<meta message set_tempo tempo=344828 time=28>
note_on channel=0 note=75 velocity=0 time=0
note_on channel=0 note=74 velocity=56 time=0
<meta message set_tempo tempo=345821 time=12>
<meta message set_tempo tempo=347826 time=12>
<meta message set_tempo tempo=348837 time=16>
<meta message set_tempo tempo=348837 time=40>
<meta message set_tempo tempo=349854 time=40>
note_on channel=0 note=74 velocity=0 time=0
note_on channel=0 note=75 velocity=48 time=0
<meta message set_tempo tempo=600000 time=120>
note_on channel=0 note=75 velocity=0 time=0
note_on channel=0 note=88 velocity=55 time=0
control_change channel=0 control=64 value=0 time=9
<meta message set_tempo tempo=359281 time=11>
<meta message set_tempo tempo=350877 time=32>
<meta message set_tempo tempo=349854 time=12>
<meta message set_tempo tempo=347826 time=16>
<meta message set_tempo tempo=345821 time=12>
control_change channel=0 control=64 value=127 time=11
<meta message set_tempo tempo=344828 time=1>
note_on channel=0 note=88 velocity=0 time=16
note_on channel=0 note=87 velocity=46 time=0
<meta message set_tempo tempo=346821 time=24>
<meta message set_tempo tempo=343840 time=56>
<meta message set_tempo tempo=340909 time=12>
<meta message set_tempo tempo=338983 time=12>
<meta message set_tempo tempo=338028 time=16>
note_on channel=0 note=87 velocity=0 time=0
note_on channel=0 note=88 velocity=55 time=0
<meta message set_tempo tempo=338983 time=24>
<meta message set_tempo tempo=339943 time=16>
<meta message set_tempo tempo=340909 time=12>
<meta message set_tempo tempo=339943 time=28>
<meta message set_tempo tempo=338028 time=12>
<meta message set_tempo tempo=336134 time=12>
<meta message set_tempo tempo=334262 time=16>
note_on channel=0 note=88 velocity=0 time=0
note_on channel=0 note=87 velocity=48 time=0
<meta message set_tempo tempo=333333 time=12>
<meta message set_tempo tempo=332410 time=12>
<meta message set_tempo tempo=334262 time=16>
<meta message set_tempo tempo=335196 time=12>
<meta message set_tempo tempo=337079 time=12>
<meta message set_tempo tempo=338983 time=16>
<meta message set_tempo tempo=338028 time=24>
note_on channel=0 note=87 velocity=0 time=16
note_on channel=0 note=88 velocity=57 time=0
<meta message set_tempo tempo=337079 time=12>
<meta message set_tempo tempo=335196 time=12>
<meta message set_tempo tempo=334262 time=16>
<meta message set_tempo tempo=333333 time=12>
<meta message set_tempo tempo=327869 time=12>
<meta message set_tempo tempo=326975 time=28>
<meta message set_tempo tempo=326087 time=12>
<meta message set_tempo tempo=325203 time=16>
note_on channel=0 note=88 velocity=0 time=0
note_on channel=0 note=87 velocity=50 time=0
<meta message set_tempo tempo=326087 time=40>
<meta message set_tempo tempo=329670 time=12>
<meta message set_tempo tempo=330579 time=12>
<meta message set_tempo tempo=328767 time=56>
note_on channel=0 note=87 velocity=0 time=0
note_on channel=0 note=88 velocity=60 time=0
<meta message set_tempo tempo=327869 time=12>
<meta message set_tempo tempo=326975 time=12>
<meta message set_tempo tempo=324324 time=16>
<meta message set_tempo tempo=323450 time=12>
<meta message set_tempo tempo=325203 time=52>
<meta message set_tempo tempo=326087 time=16>
note_on channel=0 note=88 velocity=0 time=0
note_on channel=0 note=87 velocity=51 time=0
<meta message set_tempo tempo=326975 time=12>
<meta message set_tempo tempo=325203 time=80>
<meta message set_tempo tempo=324324 time=12>
<meta message set_tempo tempo=323450 time=16>
note_on channel=0 note=87 velocity=0 time=0
note_on channel=0 note=88 velocity=62 time=0
<meta message set_tempo tempo=322581 time=12>
<meta message set_tempo tempo=324324 time=40>
<meta message set_tempo tempo=326087 time=28>
note_on channel=0 note=88 velocity=0 time=40
note_on channel=0 note=87 velocity=52 time=0
<meta message set_tempo tempo=324324 time=12>
<meta message set_tempo tempo=322581 time=12>
<meta message set_tempo tempo=324324 time=56>
<meta message set_tempo tempo=325203 time=12>
note_on channel=0 note=87 velocity=0 time=28
note_on channel=0 note=88 velocity=63 time=0
<meta message set_tempo tempo=324324 time=12>
<meta message set_tempo tempo=323450 time=12>
<meta message set_tempo tempo=324324 time=68>
<meta message set_tempo tempo=326087 time=12>
<meta message set_tempo tempo=326975 time=16>
note_on channel=0 note=88 velocity=0 time=0
note_on channel=0 note=87 velocity=55 time=0
<meta message set_tempo tempo=325203 time=40>
<meta message set_tempo tempo=322581 time=12>
<meta message set_tempo tempo=324324 time=52>
note_on channel=0 note=87 velocity=0 time=16
note_on channel=0 note=88 velocity=67 time=0
<meta message set_tempo tempo=326975 time=12>
<meta message set_tempo tempo=327869 time=12>
<meta message set_tempo tempo=326975 time=80>
<meta message set_tempo tempo=325203 time=16>
note_on channel=0 note=88 velocity=0 time=0
note_on channel=0 note=87 velocity=56 time=0
<meta message set_tempo tempo=324324 time=12>
<meta message set_tempo tempo=323450 time=12>
<meta message set_tempo tempo=322581 time=16>
<meta message set_tempo tempo=323450 time=24>
<meta message set_tempo tempo=326087 time=16>
<meta message set_tempo tempo=326975 time=12>
<meta message set_tempo tempo=327869 time=12>
note_on channel=0 note=87 velocity=0 time=16
note_on channel=0 note=88 velocity=68 time=0
<meta message set_tempo tempo=326975 time=12>
<meta message set_tempo tempo=325203 time=12>
<meta message set_tempo tempo=323450 time=16>
<meta message set_tempo tempo=325203 time=80>
note_on channel=0 note=88 velocity=0 time=0
note_on channel=0 note=87 velocity=57 time=0
<meta message set_tempo tempo=326087 time=24>
<meta message set_tempo tempo=328767 time=16>
<meta message set_tempo tempo=330579 time=12>
<meta message set_tempo tempo=328767 time=40>
note_on channel=0 note=87 velocity=0 time=28
note_on channel=0 note=88 velocity=67 time=0
<meta message set_tempo tempo=329670 time=64>
<meta message set_tempo tempo=338983 time=28>
<meta message set_tempo tempo=338028 time=12>
<meta message set_tempo tempo=337079 time=16>
note_on channel=0 note=88 velocity=0 time=0
note_on channel=0 note=87 velocity=56 time=0
<meta message set_tempo tempo=335196 time=12>
<meta message set_tempo tempo=337079 time=52>
<meta message set_tempo tempo=338028 time=16>
<meta message set_tempo tempo=338983 time=24>
note_on channel=0 note=87 velocity=0 time=16
note_on channel=0 note=88 velocity=67 time=0
<meta message set_tempo tempo=337079 time=40>
<meta message set_tempo tempo=338028 time=80>
note_on channel=0 note=88 velocity=0 time=0
note_on channel=0 note=87 velocity=58 time=0
<meta message set_tempo tempo=340909 time=12>
<meta message set_tempo tempo=341880 time=12>
<meta message set_tempo tempo=340909 time=68>
<meta message set_tempo tempo=339943 time=12>
note_on channel=0 note=87 velocity=0 time=16
note_on channel=0 note=88 velocity=67 time=0
<meta message set_tempo tempo=341880 time=12>
<meta message set_tempo tempo=342857 time=28>
<meta message set_tempo tempo=344828 time=12>
<meta message set_tempo tempo=345821 time=12>
<meta message set_tempo tempo=346821 time=40>
note_on channel=0 note=88 velocity=0 time=16
note_on channel=0 note=87 velocity=58 time=0
<meta message set_tempo tempo=345821 time=24>
<meta message set_tempo tempo=344828 time=16>
<meta message set_tempo tempo=342857 time=12>
<meta message set_tempo tempo=345821 time=52>
<meta message set_tempo tempo=351906 time=16>
note_on channel=0 note=87 velocity=0 time=0
note_on channel=0 note=86 velocity=67 time=0
<meta message set_tempo tempo=350877 time=20>
<meta message set_tempo tempo=349854 time=20>
<meta message set_tempo tempo=348837 time=40>
<meta message set_tempo tempo=349854 time=40>
note_on channel=0 note=86 velocity=0 time=0
note_on channel=0 note=87 velocity=56 time=0
<meta message set_tempo tempo=361446 time=120>
note_on channel=0 note=87 velocity=0 time=0
note_on channel=0 note=88 velocity=64 time=0
control_change channel=0 control=64 value=0 time=9
note_on channel=0 note=88 velocity=0 time=231
note_on channel=0 note=87 velocity=55 time=0
note_on channel=0 note=87 velocity=0 time=240
note_on channel=0 note=85 velocity=48 time=0
note_on channel=0 note=85 velocity=0 time=240
note_on channel=0 note=83 velocity=49 time=0
note_on channel=0 note=83 velocity=0 time=240
note_on channel=0 note=82 velocity=48 time=0
note_on channel=0 note=82 velocity=0 time=240
note_on channel=0 note=80 velocity=48 time=0
note_on channel=0 note=80 velocity=0 time=240
note_on channel=0 note=79 velocity=49 time=0
note_on channel=0 note=79 velocity=0 time=240
note_on channel=0 note=78 velocity=47 time=0
note_on channel=0 note=78 velocity=0 time=240
note_on channel=0 note=76 velocity=47 time=0
note_on channel=0 note=76 velocity=0 time=240
note_on channel=0 note=75 velocity=48 time=0
note_on channel=0 note=75 velocity=0 time=240
note_on channel=0 note=73 velocity=48 time=0
note_on channel=0 note=73 velocity=0 time=240
note_on channel=0 note=71 velocity=45 time=0
<meta message set_tempo tempo=360360 time=220>
note_on channel=0 note=71 velocity=0 time=20
note_on channel=0 note=70 velocity=48 time=0
<meta message set_tempo tempo=361446 time=80>
<meta message set_tempo tempo=362538 time=80>
note_on channel=0 note=70 velocity=0 time=80
note_on channel=0 note=68 velocity=44 time=0
<meta message set_tempo tempo=363636 time=20>
<meta message set_tempo tempo=364742 time=80>
<meta message set_tempo tempo=365854 time=100>
note_on channel=0 note=68 velocity=0 time=40
note_on channel=0 note=67 velocity=44 time=0
<meta message set_tempo tempo=366972 time=40>
<meta message set_tempo tempo=368098 time=100>
<meta message set_tempo tempo=369231 time=80>
note_on channel=0 note=67 velocity=0 time=20
note_on channel=0 note=66 velocity=45 time=0
<meta message set_tempo tempo=370370 time=80>
<meta message set_tempo tempo=371517 time=80>
<meta message set_tempo tempo=372671 time=80>
note_on channel=0 note=66 velocity=0 time=0
note_on channel=0 note=64 velocity=45 time=0
note_on channel=0 note=64 velocity=0 time=240
note_on channel=0 note=63 velocity=45 time=0
note_on channel=0 note=63 velocity=0 time=240
note_on channel=0 note=61 velocity=45 time=0
note_on channel=0 note=61 velocity=0 time=240
note_on channel=0 note=59 velocity=44 time=0
note_on channel=0 note=59 velocity=0 time=240
note_on channel=0 note=58 velocity=42 time=0
note_on channel=0 note=58 velocity=0 time=240
note_on channel=0 note=56 velocity=42 time=0
note_on channel=0 note=56 velocity=0 time=240
note_on channel=0 note=55 velocity=41 time=0
note_on channel=0 note=55 velocity=0 time=240
note_on channel=0 note=54 velocity=39 time=0
<meta message set_tempo tempo=371517 time=240>
note_on channel=0 note=54 velocity=0 time=0
note_on channel=0 note=52 velocity=42 time=0
<meta message set_tempo tempo=372671 time=240>
note_on channel=0 note=52 velocity=0 time=0
note_on channel=0 note=51 velocity=41 time=0
<meta message set_tempo tempo=373832 time=240>
note_on channel=0 note=51 velocity=0 time=0
note_on channel=0 note=49 velocity=41 time=0
<meta message set_tempo tempo=375000 time=240>
note_on channel=0 note=49 velocity=0 time=0
note_on channel=0 note=47 velocity=40 time=0
<meta message set_tempo tempo=376176 time=240>
note_on channel=0 note=47 velocity=0 time=0
note_on channel=0 note=46 velocity=39 time=0
<meta message set_tempo tempo=377358 time=240>
note_on channel=0 note=46 velocity=0 time=0
note_on channel=0 note=44 velocity=39 time=0
<meta message set_tempo tempo=378549 time=220>
note_on channel=0 note=44 velocity=0 time=20
note_on channel=0 note=43 velocity=42 time=0
note_on channel=0 note=43 velocity=0 time=240
note_on channel=0 note=42 velocity=41 time=0
note_on channel=0 note=42 velocity=0 time=240
note_on channel=0 note=41 velocity=41 time=0
note_on channel=0 note=41 velocity=0 time=240
note_on channel=0 note=39 velocity=41 time=0
note_on channel=0 note=39 velocity=0 time=240
note_on channel=0 note=37 velocity=41 time=0
<meta message set_tempo tempo=401338 time=240>
note_on channel=0 note=37 velocity=0 time=0
note_on channel=0 note=35 velocity=41 time=0
<meta message set_tempo tempo=385852 time=240>
note_on channel=0 note=35 velocity=0 time=0
note_on channel=0 note=34 velocity=42 time=0
note_on channel=0 note=34 velocity=0 time=240
note_on channel=0 note=35 velocity=42 time=0
note_on channel=0 note=35 velocity=0 time=240
note_on channel=0 note=37 velocity=42 time=0
note_on channel=0 note=37 velocity=0 time=240
note_on channel=0 note=39 velocity=42 time=0
note_on channel=0 note=39 velocity=0 time=240
note_on channel=0 note=40 velocity=41 time=0
<meta message set_tempo tempo=402685 time=240>
note_on channel=0 note=40 velocity=0 time=0
note_on channel=0 note=39 velocity=39 time=0
note_on channel=0 note=39 velocity=0 time=240
note_on channel=0 note=37 velocity=42 time=0
<meta message set_tempo tempo=385852 time=20>
<meta message set_tempo tempo=385852 time=20>
<meta message set_tempo tempo=387097 time=120>
<meta message set_tempo tempo=388350 time=80>
note_on channel=0 note=37 velocity=0 time=0
note_on channel=0 note=35 velocity=40 time=0
<meta message set_tempo tempo=389610 time=80>
<meta message set_tempo tempo=390879 time=80>
<meta message set_tempo tempo=392157 time=80>
note_on channel=0 note=35 velocity=0 time=0
note_on channel=0 note=34 velocity=40 time=0
<meta message set_tempo tempo=393443 time=80>
<meta message set_tempo tempo=394737 time=120>
note_on channel=0 note=34 velocity=0 time=40
note_on channel=0 note=39 velocity=45 time=0
<meta message set_tempo tempo=396040 time=40>
<meta message set_tempo tempo=397351 time=80>
<meta message set_tempo tempo=398671 time=80>
note_on channel=0 note=39 velocity=0 time=40
note_on channel=0 note=37 velocity=42 time=0
<meta message set_tempo tempo=400000 time=40>
<meta message set_tempo tempo=401338 time=80>
<meta message set_tempo tempo=402685 time=80>
<meta message set_tempo tempo=419580 time=40>
note_on channel=0 note=37 velocity=0 time=0
note_on channel=0 note=39 velocity=40 time=0
<meta message set_tempo tempo=365787 time=240>
note_on channel=0 note=39 velocity=0 time=0
note_on channel=0 note=56 velocity=83 time=0
note_on channel=0 note=32 velocity=64 time=0
control_change channel=0 control=64 value=127 time=34
note_on channel=0 note=32 velocity=0 time=86
note_on channel=0 note=56 velocity=0 time=0
note_on channel=0 note=51 velocity=66 time=0
note_on channel=0 note=39 velocity=52 time=0
note_on channel=0 note=39 velocity=0 time=120
note_on channel=0 note=51 velocity=0 time=0
note_on channel=0 note=47 velocity=66 time=0
note_on channel=0 note=44 velocity=52 time=0
note_on channel=0 note=44 velocity=0 time=120
note_on channel=0 note=47 velocity=0 time=0
note_on channel=0 note=51 velocity=66 time=0
note_on channel=0 note=39 velocity=52 time=0
<meta message set_tempo tempo=388979 time=120>
note_on channel=0 note=39 velocity=0 time=0
note_on channel=0 note=51 velocity=0 time=0
note_on channel=0 note=56 velocity=80 time=0
note_on channel=0 note=32 velocity=58 time=0
note_on channel=0 note=32 velocity=0 time=120
note_on channel=0 note=56 velocity=0 time=0
note_on channel=0 note=51 velocity=64 time=0
note_on channel=0 note=39 velocity=51 time=0
control_change channel=0 control=64 value=0 time=23
<meta message set_tempo tempo=366972 time=97>
note_on channel=0 note=39 velocity=0 time=0
note_on channel=0 note=51 velocity=0 time=0
note_on channel=0 note=59 velocity=84 time=0
note_on channel=0 note=32 velocity=68 time=0
control_change channel=0 control=64 value=127 time=40
note_on channel=0 note=32 velocity=0 time=80
note_on channel=0 note=59 velocity=0 time=0
note_on channel=0 note=51 velocity=66 time=0
note_on channel=0 note=39 velocity=52 time=0
control_change channel=0 control=64 value=0 time=51
note_on channel=0 note=39 velocity=0 time=69
note_on channel=0 note=51 velocity=0 time=0
note_on channel=0 note=58 velocity=83 time=0
note_on channel=0 note=32 velocity=64 time=0
control_change channel=0 control=64 value=127 time=57
note_on channel=0 note=32 velocity=0 time=63
note_on channel=0 note=58 velocity=0 time=0
note_on channel=0 note=51 velocity=66 time=0
note_on channel=0 note=39 velocity=52 time=0
control_change channel=0 control=64 value=0 time=46
<meta message set_tempo tempo=374719 time=74>
note_on channel=0 note=39 velocity=0 time=0
note_on channel=0 note=51 velocity=0 time=0
note_on channel=0 note=56 velocity=81 time=0
note_on channel=0 note=32 velocity=62 time=0
control_change channel=0 control=64 value=127 time=51
note_on channel=0 note=32 velocity=0 time=69
note_on channel=0 note=56 velocity=0 time=0
note_on channel=0 note=51 velocity=66 time=0
note_on channel=0 note=39 velocity=52 time=0
control_change channel=0 control=64 value=0 time=34
<meta message set_tempo tempo=361468 time=86>
note_on channel=0 note=39 velocity=0 time=0
note_on channel=0 note=51 velocity=0 time=0
note_on channel=0 note=56 velocity=83 time=0
note_on channel=0 note=32 velocity=64 time=0
control_change channel=0 control=64 value=127 time=63
note_on channel=0 note=32 velocity=0 time=57
note_on channel=0 note=56 velocity=0 time=0
note_on channel=0 note=51 velocity=63 time=0
note_on channel=0 note=39 velocity=52 time=0
note_on channel=0 note=39 velocity=0 time=120
note_on channel=0 note=51 velocity=0 time=0
note_on channel=0 note=47 velocity=63 time=0
note_on channel=0 note=44 velocity=52 time=0
note_on channel=0 note=44 velocity=0 time=120
note_on channel=0 note=47 velocity=0 time=0
note_on channel=0 note=51 velocity=63 time=0
note_on channel=0 note=39 velocity=52 time=0
<meta message set_tempo tempo=383656 time=120>
note_on channel=0 note=39 velocity=0 time=0
note_on channel=0 note=51 velocity=0 time=0
note_on channel=0 note=56 velocity=79 time=0
note_on channel=0 note=32 velocity=58 time=0
note_on channel=0 note=32 velocity=0 time=120
note_on channel=0 note=56 velocity=0 time=0
note_on channel=0 note=51 velocity=62 time=0
note_on channel=0 note=39 velocity=51 time=0
control_change channel=0 control=64 value=0 time=51
<meta message set_tempo tempo=364742 time=69>
note_on channel=0 note=39 velocity=0 time=0
note_on channel=0 note=51 velocity=0 time=0
note_on channel=0 note=59 velocity=83 time=0
note_on channel=0 note=32 velocity=68 time=0
control_change channel=0 control=64 value=127 time=69
note_on channel=0 note=32 velocity=0 time=51
note_on channel=0 note=59 velocity=0 time=0
note_on channel=0 note=51 velocity=63 time=0
note_on channel=0 note=39 velocity=52 time=0
control_change channel=0 control=64 value=0 time=80
note_on channel=0 note=39 velocity=0 time=40
note_on channel=0 note=51 velocity=0 time=0
note_on channel=0 note=58 velocity=80 time=0
note_on channel=0 note=32 velocity=64 time=0
control_change channel=0 control=64 value=127 time=57
note_on channel=0 note=32 velocity=0 time=63
note_on channel=0 note=58 velocity=0 time=0
note_on channel=0 note=51 velocity=66 time=0
note_on channel=0 note=39 velocity=52 time=0
control_change channel=0 control=64 value=0 time=57
<meta message set_tempo tempo=390345 time=63>
note_on channel=0 note=39 velocity=0 time=0
note_on channel=0 note=51 velocity=0 time=0
note_on channel=0 note=56 velocity=80 time=0
note_on channel=0 note=32 velocity=62 time=0
control_change channel=0 control=64 value=127 time=40
note_on channel=0 note=32 velocity=0 time=80
note_on channel=0 note=56 velocity=0 time=0
note_on channel=0 note=51 velocity=64 time=0
note_on channel=0 note=39 velocity=52 time=0
control_change channel=0 control=64 value=0 time=63
<meta message set_tempo tempo=361468 time=57>
note_on channel=0 note=39 velocity=0 time=0
note_on channel=0 note=51 velocity=0 time=0
note_on channel=0 note=64 velocity=83 time=0
note_on channel=0 note=32 velocity=64 time=0
control_change channel=0 control=64 value=127 time=34
note_on channel=0 note=32 velocity=0 time=86
note_on channel=0 note=64 velocity=0 time=0
note_on channel=0 note=59 velocity=66 time=0
note_on channel=0 note=40 velocity=52 time=0
note_on channel=0 note=40 velocity=0 time=120
note_on channel=0 note=59 velocity=0 time=0
note_on channel=0 note=56 velocity=66 time=0
note_on channel=0 note=44 velocity=52 time=0
note_on channel=0 note=44 velocity=0 time=120
note_on channel=0 note=56 velocity=0 time=0
note_on channel=0 note=59 velocity=66 time=0
note_on channel=0 note=40 velocity=52 time=0
<meta message set_tempo tempo=388979 time=120>
note_on channel=0 note=40 velocity=0 time=0
note_on channel=0 note=59 velocity=0 time=0
note_on channel=0 note=64 velocity=80 time=0
note_on channel=0 note=32 velocity=58 time=0
note_on channel=0 note=32 velocity=0 time=120
note_on channel=0 note=64 velocity=0 time=0
note_on channel=0 note=59 velocity=64 time=0
note_on channel=0 note=40 velocity=51 time=0
control_change channel=0 control=64 value=0 time=23
<meta message set_tempo tempo=366972 time=97>
note_on channel=0 note=40 velocity=0 time=0
note_on channel=0 note=59 velocity=0 time=0
note_on channel=0 note=68 velocity=84 time=0
note_on channel=0 note=32 velocity=68 time=0
control_change channel=0 control=64 value=127 time=40
note_on channel=0 note=32 velocity=0 time=80
note_on channel=0 note=68 velocity=0 time=0
note_on channel=0 note=59 velocity=66 time=0
note_on channel=0 note=40 velocity=52 time=0
control_change channel=0 control=64 value=0 time=51
note_on channel=0 note=40 velocity=0 time=69
note_on channel=0 note=59 velocity=0 time=0
note_on channel=0 note=66 velocity=83 time=0
note_on channel=0 note=32 velocity=64 time=0
control_change channel=0 control=64 value=127 time=57
note_on channel=0 note=32 velocity=0 time=63
note_on channel=0 note=66 velocity=0 time=0
note_on channel=0 note=59 velocity=66 time=0
note_on channel=0 note=40 velocity=52 time=0
control_change channel=0 control=64 value=0 time=46
<meta message set_tempo tempo=374719 time=74>
note_on channel=0 note=40 velocity=0 time=0
note_on channel=0 note=59 velocity=0 time=0
note_on channel=0 note=64 velocity=81 time=0
note_on channel=0 note=32 velocity=62 time=0
control_change channel=0 control=64 value=127 time=51
note_on channel=0 note=32 velocity=0 time=69
note_on channel=0 note=64 velocity=0 time=0
note_on channel=0 note=59 velocity=66 time=0
note_on channel=0 note=40 velocity=52 time=0
control_change channel=0 control=64 value=0 time=34
<meta message set_tempo tempo=361468 time=86>
note_on channel=0 note=40 velocity=0 time=0
note_on channel=0 note=59 velocity=0 time=0
note_on channel=0 note=64 velocity=83 time=0
note_on channel=0 note=32 velocity=64 time=0
control_change channel=0 control=64 value=127 time=63
note_on channel=0 note=32 velocity=0 time=57
note_on channel=0 note=64 velocity=0 time=0
note_on channel=0 note=59 velocity=63 time=0
note_on channel=0 note=40 velocity=52 time=0
note_on channel=0 note=40 velocity=0 time=120
note_on channel=0 note=59 velocity=0 time=0
note_on channel=0 note=56 velocity=63 time=0
note_on channel=0 note=44 velocity=52 time=0
note_on channel=0 note=44 velocity=0 time=120
note_on channel=0 note=56 velocity=0 time=0
note_on channel=0 note=59 velocity=63 time=0
note_on channel=0 note=40 velocity=52 time=0
<meta message set_tempo tempo=383656 time=120>
note_on channel=0 note=40 velocity=0 time=0
note_on channel=0 note=59 velocity=0 time=0
note_on channel=0 note=64 velocity=80 time=0
note_on channel=0 note=32 velocity=58 time=0
note_on channel=0 note=32 velocity=0 time=120
note_on channel=0 note=64 velocity=0 time=0
note_on channel=0 note=59 velocity=62 time=0
note_on channel=0 note=40 velocity=51 time=0
control_change channel=0 control=64 value=0 time=51
<meta message set_tempo tempo=366972 time=69>
note_on channel=0 note=40 velocity=0 time=0
note_on channel=0 note=59 velocity=0 time=0
note_on channel=0 note=68 velocity=83 time=0
note_on channel=0 note=32 velocity=68 time=0
control_change channel=0 control=64 value=127 time=69
note_on channel=0 note=32 velocity=0 time=51
note_on channel=0 note=68 velocity=0 time=0
note_on channel=0 note=59 velocity=63 time=0
note_on channel=0 note=40 velocity=52 time=0
control_change channel=0 control=64 value=0 time=80
note_on channel=0 note=40 velocity=0 time=40
note_on channel=0 note=59 velocity=0 time=0
note_on channel=0 note=66 velocity=80 time=0
note_on channel=0 note=32 velocity=64 time=0
control_change channel=0 control=64 value=127 time=57
note_on channel=0 note=32 velocity=0 time=63
note_on channel=0 note=66 velocity=0 time=0
note_on channel=0 note=59 velocity=66 time=0
note_on channel=0 note=40 velocity=52 time=0
control_change channel=0 control=64 value=0 time=57
<meta message set_tempo tempo=379771 time=63>
note_on channel=0 note=40 velocity=0 time=0
note_on channel=0 note=59 velocity=0 time=0
note_on channel=0 note=64 velocity=80 time=0
note_on channel=0 note=32 velocity=62 time=0
control_change channel=0 control=64 value=127 time=40
note_on channel=0 note=32 velocity=0 time=80
note_on channel=0 note=64 velocity=0 time=0
note_on channel=0 note=59 velocity=64 time=0
note_on channel=0 note=40 velocity=52 time=0
control_change channel=0 control=64 value=0 time=63
<meta message set_tempo tempo=361468 time=57>
note_on channel=0 note=40 velocity=0 time=0
note_on channel=0 note=59 velocity=0 time=0
note_on channel=0 note=73 velocity=92 time=0
note_on channel=0 note=33 velocity=90 time=0
note_on channel=0 note=45 velocity=106 time=0
control_change channel=0 control=64 value=127 time=17
<meta message set_tempo tempo=359131 time=3>
<meta message set_tempo tempo=358059 time=20>
<meta message set_tempo tempo=356952 time=20>
<meta message set_tempo tempo=355893 time=20>
note_on channel=0 note=73 velocity=0 time=40
note_on channel=0 note=76 velocity=67 time=0
<meta message set_tempo tempo=358059 time=20>
<meta message set_tempo tempo=360209 time=20>
<meta message set_tempo tempo=362428 time=20>
<meta message set_tempo tempo=361315 time=40>
<meta message set_tempo tempo=360209 time=20>
note_on channel=0 note=76 velocity=0 time=0
note_on channel=0 note=73 velocity=77 time=0
<meta message set_tempo tempo=358059 time=40>
<meta message set_tempo tempo=356952 time=20>
<meta message set_tempo tempo=358059 time=20>
<meta message set_tempo tempo=361315 time=20>
<meta message set_tempo tempo=363548 time=20>
note_on channel=0 note=73 velocity=0 time=0
note_on channel=0 note=76 velocity=67 time=0
<meta message set_tempo tempo=364631 time=40>
<meta message set_tempo tempo=365787 time=20>
<meta message set_tempo tempo=364631 time=20>
<meta message set_tempo tempo=363548 time=20>
<meta message set_tempo tempo=361315 time=20>
note_on channel=0 note=76 velocity=0 time=0
note_on channel=0 note=73 velocity=74 time=0
<meta message set_tempo tempo=360209 time=20>
<meta message set_tempo tempo=358059 time=40>
<meta message set_tempo tempo=356952 time=20>
<meta message set_tempo tempo=355893 time=20>
note_on channel=0 note=73 velocity=0 time=20
note_on channel=0 note=76 velocity=67 time=0
<meta message set_tempo tempo=356952 time=20>
<meta message set_tempo tempo=359131 time=20>
<meta message set_tempo tempo=360209 time=20>
<meta message set_tempo tempo=361315 time=20>
note_on channel=0 note=76 velocity=0 time=40
note_on channel=0 note=73 velocity=73 time=0
<meta message set_tempo tempo=360209 time=40>
<meta message set_tempo tempo=359131 time=20>
<meta message set_tempo tempo=358059 time=20>
note_on channel=0 note=73 velocity=0 time=40
note_on channel=0 note=76 velocity=67 time=0
<meta message set_tempo tempo=360209 time=40>
<meta message set_tempo tempo=361315 time=20>
<meta message set_tempo tempo=362428 time=20>
note_on channel=0 note=76 velocity=0 time=40
note_on channel=0 note=73 velocity=73 time=0
<meta message set_tempo tempo=361315 time=40>
<meta message set_tempo tempo=360209 time=20>
<meta message set_tempo tempo=358059 time=40>
<meta message set_tempo tempo=356952 time=20>
note_on channel=0 note=73 velocity=0 time=0
note_on channel=0 note=76 velocity=67 time=0
<meta message set_tempo tempo=359131 time=60>
<meta message set_tempo tempo=361315 time=20>
<meta message set_tempo tempo=363548 time=20>
note_on channel=0 note=76 velocity=0 time=20
note_on channel=0 note=73 velocity=73 time=0
<meta message set_tempo tempo=362428 time=40>
note_on channel=0 note=73 velocity=0 time=80
note_on channel=0 note=76 velocity=67 time=0
<meta message set_tempo tempo=361315 time=40>
<meta message set_tempo tempo=360209 time=40>
<meta message set_tempo tempo=358059 time=20>
note_on channel=0 note=76 velocity=0 time=20
note_on channel=0 note=73 velocity=73 time=0
<meta message set_tempo tempo=359131 time=40>
<meta message set_tempo tempo=360209 time=20>
<meta message set_tempo tempo=362428 time=20>
note_on channel=0 note=73 velocity=0 time=40
note_on channel=0 note=76 velocity=67 time=0
<meta message set_tempo tempo=361315 time=40>
<meta message set_tempo tempo=360209 time=20>
<meta message set_tempo tempo=359131 time=40>
<meta message set_tempo tempo=356952 time=20>
note_on channel=0 note=76 velocity=0 time=0
note_on channel=0 note=73 velocity=73 time=0
<meta message set_tempo tempo=355893 time=40>
<meta message set_tempo tempo=354820 time=40>
<meta message set_tempo tempo=360209 time=20>
note_on channel=0 note=73 velocity=0 time=20
note_on channel=0 note=76 velocity=67 time=0
<meta message set_tempo tempo=361315 time=20>
<meta message set_tempo tempo=363548 time=20>
<meta message set_tempo tempo=362428 time=40>
<meta message set_tempo tempo=360209 time=40>
note_on channel=0 note=76 velocity=0 time=0
note_on channel=0 note=73 velocity=72 time=0
<meta message set_tempo tempo=359131 time=20>
<meta message set_tempo tempo=358059 time=20>
<meta message set_tempo tempo=356952 time=40>
<meta message set_tempo tempo=358059 time=40>
note_on channel=0 note=73 velocity=0 time=0
note_on channel=0 note=76 velocity=67 time=0
<meta message set_tempo tempo=359131 time=20>
<meta message set_tempo tempo=361315 time=20>
<meta message set_tempo tempo=365787 time=80>
note_on channel=0 note=76 velocity=0 time=0
note_on channel=0 note=45 velocity=0 time=0
note_on channel=0 note=33 velocity=0 time=0
note_on channel=0 note=73 velocity=95 time=0
note_on channel=0 note=46 velocity=88 time=0
note_on channel=0 note=34 velocity=74 time=0
control_change channel=0 control=64 value=0 time=13
control_change channel=0 control=64 value=127 time=73
note_on channel=0 note=73 velocity=0 time=34
note_on channel=0 note=76 velocity=78 time=0
note_on channel=0 note=76 velocity=0 time=120
note_on channel=0 note=34 velocity=0 time=0
note_on channel=0 note=46 velocity=0 time=0
note_on channel=0 note=70 velocity=89 time=0
note_on channel=0 note=37 velocity=72 time=0
note_on channel=0 note=70 velocity=0 time=120
note_on channel=0 note=73 velocity=78 time=0
<meta message set_tempo tempo=373855 time=120>
note_on channel=0 note=73 velocity=0 time=0
note_on channel=0 note=37 velocity=0 time=0
note_on channel=0 note=67 velocity=84 time=0
note_on channel=0 note=40 velocity=82 time=0
note_on channel=0 note=67 velocity=0 time=120
note_on channel=0 note=70 velocity=77 time=0
<meta message set_tempo tempo=361315 time=120>
note_on channel=0 note=70 velocity=0 time=0
note_on channel=0 note=40 velocity=0 time=0
note_on channel=0 note=64 velocity=82 time=0
note_on channel=0 note=43 velocity=95 time=0
control_change channel=0 control=64 value=0 time=20
control_change channel=0 control=64 value=127 time=43
note_on channel=0 note=64 velocity=0 time=57
note_on channel=0 note=67 velocity=70 time=0
note_on channel=0 note=67 velocity=0 time=120
note_on channel=0 note=43 velocity=0 time=0
note_on channel=0 note=61 velocity=81 time=0
note_on channel=0 note=46 velocity=82 time=0
note_on channel=0 note=61 velocity=0 time=120
note_on channel=0 note=64 velocity=71 time=0
note_on channel=0 note=64 velocity=0 time=120
note_on channel=0 note=46 velocity=0 time=0
note_on channel=0 note=58 velocity=82 time=0
note_on channel=0 note=49 velocity=82 time=0
note_on channel=0 note=58 velocity=0 time=120
note_on channel=0 note=61 velocity=68 time=0
note_on channel=0 note=61 velocity=0 time=120
note_on channel=0 note=49 velocity=0 time=0
note_on channel=0 note=56 velocity=81 time=0
note_on channel=0 note=52 velocity=85 time=0
control_change channel=0 control=64 value=0 time=8
control_change channel=0 control=64 value=127 time=61
note_on channel=0 note=56 velocity=0 time=51
note_on channel=0 note=58 velocity=70 time=0
note_on channel=0 note=52 velocity=0 time=110
note_on channel=0 note=58 velocity=0 time=10
note_on channel=0 note=61 velocity=80 time=0
note_on channel=0 note=52 velocity=83 time=0
note_on channel=0 note=61 velocity=0 time=120
note_on channel=0 note=58 velocity=70 time=0
note_on channel=0 note=52 velocity=0 time=110
<meta message set_tempo tempo=388576 time=10>
note_on channel=0 note=58 velocity=0 time=0
note_on channel=0 note=56 velocity=80 time=0
note_on channel=0 note=52 velocity=83 time=0
note_on channel=0 note=56 velocity=0 time=120
note_on channel=0 note=58 velocity=69 time=0
note_on channel=0 note=52 velocity=0 time=110
<meta message set_tempo tempo=361315 time=10>
note_on channel=0 note=58 velocity=0 time=0
note_on channel=0 note=52 velocity=97 time=0
control_change channel=0 control=64 value=0 time=12
control_change channel=0 control=64 value=127 time=80
note_on channel=0 note=56 velocity=70 time=28
note_on channel=0 note=56 velocity=0 time=120
note_on channel=0 note=61 velocity=80 time=0
note_on channel=0 note=61 velocity=0 time=120
note_on channel=0 note=58 velocity=69 time=0
note_on channel=0 note=58 velocity=0 time=120
note_on channel=0 note=56 velocity=77 time=0
note_on channel=0 note=56 velocity=0 time=120
note_on channel=0 note=61 velocity=70 time=0
note_on channel=0 note=61 velocity=0 time=120
note_on channel=0 note=52 velocity=0 time=0
note_on channel=0 note=51 velocity=89 time=0
control_change channel=0 control=64 value=0 time=20
control_change channel=0 control=64 value=127 time=72
note_on channel=0 note=55 velocity=69 time=28
note_on channel=0 note=55 velocity=0 time=120
note_on channel=0 note=61 velocity=80 time=0
note_on channel=0 note=61 velocity=0 time=120
note_on channel=0 note=58 velocity=69 time=0
note_on channel=0 note=58 velocity=0 time=120
note_on channel=0 note=55 velocity=78 time=0
note_on channel=0 note=55 velocity=0 time=120
note_on channel=0 note=61 velocity=69 time=0
<meta message set_tempo tempo=365787 time=120>
note_on channel=0 note=61 velocity=0 time=0
note_on channel=0 note=51 velocity=0 time=0
note_on channel=0 note=68 velocity=83 time=0
note_on channel=0 note=44 velocity=64 time=0
control_change channel=0 control=64 value=0 time=0
control_change channel=0 control=64 value=127 time=97
note_on channel=0 note=44 velocity=0 time=23
note_on channel=0 note=68 velocity=0 time=0
note_on channel=0 note=63 velocity=66 time=0
note_on channel=0 note=51 velocity=52 time=0
note_on channel=0 note=51 velocity=0 time=120
note_on channel=0 note=63 velocity=0 time=0
note_on channel=0 note=59 velocity=66 time=0
note_on channel=0 note=56 velocity=52 time=0
note_on channel=0 note=56 velocity=0 time=120
note_on channel=0 note=59 velocity=0 time=0
note_on channel=0 note=63 velocity=66 time=0
note_on channel=0 note=51 velocity=52 time=0
<meta message set_tempo tempo=388979 time=120>
note_on channel=0 note=51 velocity=0 time=0
note_on channel=0 note=63 velocity=0 time=0
note_on channel=0 note=68 velocity=80 time=0
note_on channel=0 note=44 velocity=58 time=0
note_on channel=0 note=44 velocity=0 time=120
note_on channel=0 note=68 velocity=0 time=0
note_on channel=0 note=63 velocity=64 time=0
note_on channel=0 note=51 velocity=51 time=0
control_change channel=0 control=64 value=0 time=63
<meta message set_tempo tempo=361468 time=57>
note_on channel=0 note=51 velocity=0 time=0
note_on channel=0 note=63 velocity=0 time=0
note_on channel=0 note=71 velocity=84 time=0
note_on channel=0 note=44 velocity=68 time=0
<meta message set_tempo tempo=365854 time=40>
control_change channel=0 control=64 value=127 time=0
note_on channel=0 note=44 velocity=0 time=80
note_on channel=0 note=71 velocity=0 time=0
note_on channel=0 note=63 velocity=66 time=0
note_on channel=0 note=51 velocity=52 time=0
control_change channel=0 control=64 value=0 time=51
note_on channel=0 note=51 velocity=0 time=69
note_on channel=0 note=63 velocity=0 time=0
note_on channel=0 note=70 velocity=83 time=0
note_on channel=0 note=44 velocity=64 time=0
control_change channel=0 control=64 value=127 time=57
note_on channel=0 note=44 velocity=0 time=63
note_on channel=0 note=70 velocity=0 time=0
note_on channel=0 note=63 velocity=66 time=0
note_on channel=0 note=51 velocity=52 time=0
control_change channel=0 control=64 value=0 time=46
<meta message set_tempo tempo=374719 time=74>
note_on channel=0 note=51 velocity=0 time=0
note_on channel=0 note=63 velocity=0 time=0
note_on channel=0 note=68 velocity=81 time=0
note_on channel=0 note=44 velocity=62 time=0
control_change channel=0 control=64 value=127 time=51
note_on channel=0 note=44 velocity=0 time=69
note_on channel=0 note=68 velocity=0 time=0
note_on channel=0 note=63 velocity=66 time=0
note_on channel=0 note=51 velocity=52 time=0
control_change channel=0 control=64 value=0 time=34
<meta message set_tempo tempo=361468 time=86>
note_on channel=0 note=51 velocity=0 time=0
note_on channel=0 note=63 velocity=0 time=0
note_on channel=0 note=68 velocity=83 time=0
note_on channel=0 note=44 velocity=64 time=0
control_change channel=0 control=64 value=127 time=63
note_on channel=0 note=44 velocity=0 time=57
note_on channel=0 note=68 velocity=0 time=0
note_on channel=0 note=63 velocity=63 time=0
note_on channel=0 note=51 velocity=52 time=0
note_on channel=0 note=51 velocity=0 time=120
note_on channel=0 note=63 velocity=0 time=0
note_on channel=0 note=59 velocity=63 time=0
note_on channel=0 note=56 velocity=52 time=0
note_on channel=0 note=56 velocity=0 time=120
note_on channel=0 note=59 velocity=0 time=0
note_on channel=0 note=63 velocity=63 time=0
note_on channel=0 note=51 velocity=52 time=0
<meta message set_tempo tempo=383656 time=120>
note_on channel=0 note=51 velocity=0 time=0
note_on channel=0 note=63 velocity=0 time=0
note_on channel=0 note=68 velocity=80 time=0
note_on channel=0 note=44 velocity=58 time=0
note_on channel=0 note=44 velocity=0 time=120
note_on channel=0 note=68 velocity=0 time=0
note_on channel=0 note=63 velocity=62 time=0
note_on channel=0 note=51 velocity=51 time=0
control_change channel=0 control=64 value=0 time=51
<meta message set_tempo tempo=365854 time=69>
note_on channel=0 note=51 velocity=0 time=0
note_on channel=0 note=63 velocity=0 time=0
note_on channel=0 note=71 velocity=83 time=0
note_on channel=0 note=44 velocity=68 time=0
control_change channel=0 control=64 value=127 time=69
note_on channel=0 note=44 velocity=0 time=51
note_on channel=0 note=71 velocity=0 time=0
note_on channel=0 note=63 velocity=63 time=0
note_on channel=0 note=51 velocity=52 time=0
control_change channel=0 control=64 value=0 time=80
note_on channel=0 note=51 velocity=0 time=40
note_on channel=0 note=63 velocity=0 time=0
note_on channel=0 note=70 velocity=80 time=0
note_on channel=0 note=44 velocity=64 time=0
control_change channel=0 control=64 value=127 time=57
note_on channel=0 note=44 velocity=0 time=63
note_on channel=0 note=70 velocity=0 time=0
note_on channel=0 note=63 velocity=66 time=0
note_on channel=0 note=51 velocity=52 time=0
control_change channel=0 control=64 value=0 time=57
<meta message set_tempo tempo=390345 time=63>
note_on channel=0 note=51 velocity=0 time=0
note_on channel=0 note=63 velocity=0 time=0
note_on channel=0 note=68 velocity=80 time=0
note_on channel=0 note=44 velocity=62 time=0
control_change channel=0 control=64 value=127 time=40
note_on channel=0 note=44 velocity=0 time=80
note_on channel=0 note=68 velocity=0 time=0
note_on channel=0 note=63 velocity=64 time=0
note_on channel=0 note=51 velocity=52 time=0
control_change channel=0 control=64 value=0 time=63
<meta message set_tempo tempo=361468 time=57>
note_on channel=0 note=51 velocity=0 time=0
note_on channel=0 note=63 velocity=0 time=0
note_on channel=0 note=76 velocity=83 time=0
note_on channel=0 note=44 velocity=64 time=0
control_change channel=0 control=64 value=127 time=34
note_on channel=0 note=44 velocity=0 time=86
note_on channel=0 note=76 velocity=0 time=0
note_on channel=0 note=71 velocity=66 time=0
note_on channel=0 note=52 velocity=52 time=0
note_on channel=0 note=52 velocity=0 time=120
note_on channel=0 note=71 velocity=0 time=0
note_on channel=0 note=68 velocity=66 time=0
note_on channel=0 note=56 velocity=52 time=0
note_on channel=0 note=56 velocity=0 time=120
note_on channel=0 note=68 velocity=0 time=0
note_on channel=0 note=71 velocity=66 time=0
note_on channel=0 note=52 velocity=52 time=0
<meta message set_tempo tempo=388979 time=120>
note_on channel=0 note=52 velocity=0 time=0
note_on channel=0 note=71 velocity=0 time=0
note_on channel=0 note=76 velocity=80 time=0
note_on channel=0 note=44 velocity=58 time=0
note_on channel=0 note=44 velocity=0 time=120
note_on channel=0 note=76 velocity=0 time=0
note_on channel=0 note=71 velocity=64 time=0
note_on channel=0 note=52 velocity=51 time=0
control_change channel=0 control=64 value=0 time=23
<meta message set_tempo tempo=365854 time=97>
note_on channel=0 note=52 velocity=0 time=0
note_on channel=0 note=71 velocity=0 time=0
note_on channel=0 note=80 velocity=84 time=0
note_on channel=0 note=44 velocity=68 time=0
control_change channel=0 control=64 value=127 time=40
note_on channel=0 note=44 velocity=0 time=80
note_on channel=0 note=80 velocity=0 time=0
note_on channel=0 note=71 velocity=66 time=0
note_on channel=0 note=52 velocity=52 time=0
control_change channel=0 control=64 value=0 time=51
note_on channel=0 note=52 velocity=0 time=69
note_on channel=0 note=71 velocity=0 time=0
note_on channel=0 note=78 velocity=83 time=0
note_on channel=0 note=44 velocity=64 time=0
control_change channel=0 control=64 value=127 time=57
note_on channel=0 note=44 velocity=0 time=63
note_on channel=0 note=78 velocity=0 time=0
note_on channel=0 note=71 velocity=66 time=0
note_on channel=0 note=52 velocity=52 time=0
control_change channel=0 control=64 value=0 time=46
<meta message set_tempo tempo=374719 time=74>
note_on channel=0 note=52 velocity=0 time=0
note_on channel=0 note=71 velocity=0 time=0
note_on channel=0 note=76 velocity=81 time=0
note_on channel=0 note=44 velocity=62 time=0
control_change channel=0 control=64 value=127 time=51
note_on channel=0 note=44 velocity=0 time=69
note_on channel=0 note=76 velocity=0 time=0
note_on channel=0 note=71 velocity=66 time=0
note_on channel=0 note=52 velocity=52 time=0
control_change channel=0 control=64 value=0 time=34
<meta message set_tempo tempo=361468 time=86>
note_on channel=0 note=52 velocity=0 time=0
note_on channel=0 note=71 velocity=0 time=0
note_on channel=0 note=76 velocity=83 time=0
note_on channel=0 note=44 velocity=64 time=0
control_change channel=0 control=64 value=127 time=63
note_on channel=0 note=44 velocity=0 time=57
note_on channel=0 note=76 velocity=0 time=0
note_on channel=0 note=71 velocity=63 time=0
note_on channel=0 note=52 velocity=52 time=0
note_on channel=0 note=52 velocity=0 time=120
note_on channel=0 note=71 velocity=0 time=0
note_on channel=0 note=68 velocity=63 time=0
note_on channel=0 note=56 velocity=52 time=0
note_on channel=0 note=56 velocity=0 time=120
note_on channel=0 note=68 velocity=0 time=0
note_on channel=0 note=71 velocity=63 time=0
note_on channel=0 note=52 velocity=52 time=0
<meta message set_tempo tempo=383656 time=120>
note_on channel=0 note=52 velocity=0 time=0
note_on channel=0 note=71 velocity=0 time=0
note_on channel=0 note=76 velocity=80 time=0
note_on channel=0 note=44 velocity=58 time=0
note_on channel=0 note=44 velocity=0 time=120
note_on channel=0 note=76 velocity=0 time=0
note_on channel=0 note=71 velocity=62 time=0
note_on channel=0 note=52 velocity=51 time=0
control_change channel=0 control=64 value=0 time=51
<meta message set_tempo tempo=365854 time=69>
note_on channel=0 note=52 velocity=0 time=0
note_on channel=0 note=71 velocity=0 time=0
note_on channel=0 note=80 velocity=83 time=0
note_on channel=0 note=44 velocity=68 time=0
control_change channel=0 control=64 value=127 time=69
note_on channel=0 note=44 velocity=0 time=51
note_on channel=0 note=80 velocity=0 time=0
note_on channel=0 note=71 velocity=63 time=0
note_on channel=0 note=52 velocity=52 time=0
control_change channel=0 control=64 value=0 time=80
note_on channel=0 note=52 velocity=0 time=40
note_on channel=0 note=71 velocity=0 time=0
note_on channel=0 note=78 velocity=80 time=0
note_on channel=0 note=44 velocity=64 time=0
control_change channel=0 control=64 value=127 time=57
note_on channel=0 note=44 velocity=0 time=63
note_on channel=0 note=78 velocity=0 time=0
note_on channel=0 note=71 velocity=66 time=0
note_on channel=0 note=52 velocity=52 time=0
control_change channel=0 control=64 value=0 time=57
<meta message set_tempo tempo=379771 time=63>
note_on channel=0 note=52 velocity=0 time=0
note_on channel=0 note=71 velocity=0 time=0
note_on channel=0 note=76 velocity=80 time=0
note_on channel=0 note=44 velocity=62 time=0
control_change channel=0 control=64 value=127 time=40
note_on channel=0 note=44 velocity=0 time=80
note_on channel=0 note=76 velocity=0 time=0
note_on channel=0 note=71 velocity=64 time=0
note_on channel=0 note=52 velocity=52 time=0
control_change channel=0 control=64 value=0 time=63
<meta message set_tempo tempo=361468 time=57>
note_on channel=0 note=52 velocity=0 time=0
note_on channel=0 note=71 velocity=0 time=0
note_on channel=0 note=85 velocity=94 time=0
note_on channel=0 note=57 velocity=106 time=0
note_on channel=0 note=45 velocity=90 time=0
<meta message set_tempo tempo=359131 time=20>
<meta message set_tempo tempo=358059 time=20>
<meta message set_tempo tempo=356952 time=20>
control_change channel=0 control=64 value=127 time=15
<meta message set_tempo tempo=355893 time=5>
note_on channel=0 note=85 velocity=0 time=40
note_on channel=0 note=88 velocity=77 time=0
<meta message set_tempo tempo=358059 time=20>
<meta message set_tempo tempo=360209 time=20>
<meta message set_tempo tempo=362428 time=20>
<meta message set_tempo tempo=361315 time=40>
<meta message set_tempo tempo=360209 time=20>
note_on channel=0 note=88 velocity=0 time=0
note_on channel=0 note=85 velocity=78 time=0
<meta message set_tempo tempo=358059 time=40>
<meta message set_tempo tempo=356952 time=20>
<meta message set_tempo tempo=358059 time=20>
<meta message set_tempo tempo=361315 time=20>
<meta message set_tempo tempo=363548 time=20>
note_on channel=0 note=85 velocity=0 time=0
note_on channel=0 note=88 velocity=69 time=0
<meta message set_tempo tempo=364631 time=40>
<meta message set_tempo tempo=365787 time=20>
<meta message set_tempo tempo=364631 time=20>
<meta message set_tempo tempo=363548 time=20>
<meta message set_tempo tempo=361315 time=20>
note_on channel=0 note=88 velocity=0 time=0
note_on channel=0 note=85 velocity=75 time=0
<meta message set_tempo tempo=360209 time=20>
<meta message set_tempo tempo=358059 time=40>
<meta message set_tempo tempo=356952 time=20>
<meta message set_tempo tempo=355893 time=20>
note_on channel=0 note=85 velocity=0 time=20
note_on channel=0 note=88 velocity=69 time=0
<meta message set_tempo tempo=356952 time=20>
<meta message set_tempo tempo=359131 time=20>
<meta message set_tempo tempo=360209 time=20>
<meta message set_tempo tempo=361315 time=20>
note_on channel=0 note=88 velocity=0 time=40
note_on channel=0 note=85 velocity=75 time=0
<meta message set_tempo tempo=360209 time=40>
<meta message set_tempo tempo=359131 time=20>
<meta message set_tempo tempo=358059 time=20>
note_on channel=0 note=85 velocity=0 time=40
note_on channel=0 note=88 velocity=69 time=0
<meta message set_tempo tempo=360209 time=40>
<meta message set_tempo tempo=361315 time=20>
<meta message set_tempo tempo=362428 time=20>
note_on channel=0 note=88 velocity=0 time=40
note_on channel=0 note=85 velocity=74 time=0
<meta message set_tempo tempo=361315 time=40>
<meta message set_tempo tempo=360209 time=20>
<meta message set_tempo tempo=358059 time=40>
<meta message set_tempo tempo=356952 time=20>
note_on channel=0 note=85 velocity=0 time=0
note_on channel=0 note=88 velocity=69 time=0
<meta message set_tempo tempo=359131 time=60>
<meta message set_tempo tempo=361315 time=20>
<meta message set_tempo tempo=363548 time=20>
note_on channel=0 note=88 velocity=0 time=20
note_on channel=0 note=85 velocity=71 time=0
<meta message set_tempo tempo=362428 time=40>
note_on channel=0 note=85 velocity=0 time=80
note_on channel=0 note=88 velocity=69 time=0
<meta message set_tempo tempo=361315 time=40>
<meta message set_tempo tempo=360209 time=40>
<meta message set_tempo tempo=358059 time=20>
note_on channel=0 note=88 velocity=0 time=20
note_on channel=0 note=85 velocity=71 time=0
<meta message set_tempo tempo=359131 time=40>
<meta message set_tempo tempo=360209 time=20>
<meta message set_tempo tempo=362428 time=20>
note_on channel=0 note=85 velocity=0 time=40
note_on channel=0 note=88 velocity=69 time=0
<meta message set_tempo tempo=361315 time=40>
<meta message set_tempo tempo=360209 time=20>
<meta message set_tempo tempo=359131 time=40>
<meta message set_tempo tempo=356952 time=20>
note_on channel=0 note=88 velocity=0 time=0
note_on channel=0 note=85 velocity=71 time=0
<meta message set_tempo tempo=355893 time=40>
<meta message set_tempo tempo=354820 time=40>
<meta message set_tempo tempo=360209 time=20>
note_on channel=0 note=85 velocity=0 time=20
note_on channel=0 note=88 velocity=69 time=0
<meta message set_tempo tempo=361315 time=20>
<meta message set_tempo tempo=363548 time=20>
<meta message set_tempo tempo=362428 time=40>
<meta message set_tempo tempo=360209 time=40>
note_on channel=0 note=88 velocity=0 time=0
note_on channel=0 note=85 velocity=73 time=0
<meta message set_tempo tempo=359131 time=20>
<meta message set_tempo tempo=358059 time=20>
<meta message set_tempo tempo=356952 time=40>
<meta message set_tempo tempo=358059 time=40>
note_on channel=0 note=85 velocity=0 time=0
note_on channel=0 note=88 velocity=69 time=0
<meta message set_tempo tempo=359131 time=20>
<meta message set_tempo tempo=361315 time=20>
<meta message set_tempo tempo=365787 time=80>
note_on channel=0 note=88 velocity=0 time=0
note_on channel=0 note=45 velocity=0 time=0
note_on channel=0 note=57 velocity=0 time=0
note_on channel=0 note=85 velocity=76 time=0
note_on channel=0 note=46 velocity=59 time=0
note_on channel=0 note=58 velocity=88 time=0
control_change channel=0 control=64 value=0 time=9
control_change channel=0 control=64 value=127 time=83
note_on channel=0 note=85 velocity=0 time=28
note_on channel=0 note=88 velocity=69 time=0
note_on channel=0 note=88 velocity=0 time=120
note_on channel=0 note=58 velocity=0 time=0
note_on channel=0 note=46 velocity=0 time=0
note_on channel=0 note=85 velocity=77 time=0
note_on channel=0 note=61 velocity=72 time=0
note_on channel=0 note=49 velocity=58 time=0
note_on channel=0 note=85 velocity=0 time=120
note_on channel=0 note=88 velocity=69 time=0
<meta message set_tempo tempo=373855 time=120>
note_on channel=0 note=88 velocity=0 time=0
note_on channel=0 note=49 velocity=0 time=0
note_on channel=0 note=61 velocity=0 time=0
note_on channel=0 note=85 velocity=77 time=0
note_on channel=0 note=64 velocity=82 time=0
note_on channel=0 note=52 velocity=63 time=0
note_on channel=0 note=85 velocity=0 time=120
note_on channel=0 note=88 velocity=69 time=0
<meta message set_tempo tempo=361315 time=120>
note_on channel=0 note=88 velocity=0 time=0
note_on channel=0 note=52 velocity=0 time=0
note_on channel=0 note=64 velocity=0 time=0
note_on channel=0 note=85 velocity=82 time=0
note_on channel=0 note=67 velocity=95 time=0
note_on channel=0 note=55 velocity=75 time=0
control_change channel=0 control=64 value=0 time=11
control_change channel=0 control=64 value=127 time=64
note_on channel=0 note=85 velocity=0 time=45
note_on channel=0 note=88 velocity=70 time=0
note_on channel=0 note=88 velocity=0 time=120
note_on channel=0 note=55 velocity=0 time=0
note_on channel=0 note=67 velocity=0 time=0
note_on channel=0 note=82 velocity=81 time=0
note_on channel=0 note=70 velocity=82 time=0
note_on channel=0 note=58 velocity=63 time=0
note_on channel=0 note=82 velocity=0 time=120
note_on channel=0 note=85 velocity=71 time=0
note_on channel=0 note=85 velocity=0 time=120
note_on channel=0 note=58 velocity=0 time=0
note_on channel=0 note=70 velocity=0 time=0
note_on channel=0 note=80 velocity=82 time=0
note_on channel=0 note=73 velocity=82 time=0
note_on channel=0 note=61 velocity=63 time=0
note_on channel=0 note=80 velocity=0 time=120
note_on channel=0 note=82 velocity=68 time=0
note_on channel=0 note=82 velocity=0 time=120
note_on channel=0 note=61 velocity=0 time=0
note_on channel=0 note=73 velocity=0 time=0
note_on channel=0 note=80 velocity=81 time=0
note_on channel=0 note=64 velocity=68 time=0
note_on channel=0 note=76 velocity=85 time=0
control_change channel=0 control=64 value=0 time=16
control_change channel=0 control=64 value=127 time=87
note_on channel=0 note=80 velocity=0 time=17
note_on channel=0 note=82 velocity=70 time=0
note_on channel=0 note=76 velocity=0 time=110
note_on channel=0 note=64 velocity=0 time=0
note_on channel=0 note=82 velocity=0 time=10
note_on channel=0 note=85 velocity=80 time=0
note_on channel=0 note=76 velocity=83 time=0
note_on channel=0 note=64 velocity=64 time=0
note_on channel=0 note=85 velocity=0 time=120
note_on channel=0 note=82 velocity=70 time=0
note_on channel=0 note=64 velocity=0 time=110
note_on channel=0 note=76 velocity=0 time=0
<meta message set_tempo tempo=388576 time=10>
note_on channel=0 note=82 velocity=0 time=0
note_on channel=0 note=80 velocity=80 time=0
note_on channel=0 note=76 velocity=83 time=0
note_on channel=0 note=64 velocity=64 time=0
note_on channel=0 note=80 velocity=0 time=120
note_on channel=0 note=82 velocity=69 time=0
note_on channel=0 note=64 velocity=0 time=110
note_on channel=0 note=76 velocity=0 time=0
<meta message set_tempo tempo=361315 time=10>
note_on channel=0 note=82 velocity=0 time=0
note_on channel=0 note=64 velocity=80 time=0
note_on channel=0 note=76 velocity=102 time=0
control_change channel=0 control=64 value=0 time=14
control_change channel=0 control=64 value=127 time=89
note_on channel=0 note=80 velocity=72 time=17
note_on channel=0 note=80 velocity=0 time=120
note_on channel=0 note=85 velocity=77 time=0
note_on channel=0 note=85 velocity=0 time=120
note_on channel=0 note=82 velocity=70 time=0
note_on channel=0 note=82 velocity=0 time=120
note_on channel=0 note=80 velocity=74 time=0
note_on channel=0 note=80 velocity=0 time=120
note_on channel=0 note=85 velocity=69 time=0
note_on channel=0 note=85 velocity=0 time=120
note_on channel=0 note=76 velocity=0 time=0
note_on channel=0 note=64 velocity=0 time=0
note_on channel=0 note=75 velocity=86 time=0
note_on channel=0 note=63 velocity=69 time=0
control_change channel=0 control=64 value=0 time=16
control_change channel=0 control=64 value=127 time=76
note_on channel=0 note=79 velocity=67 time=28
note_on channel=0 note=79 velocity=0 time=120
note_on channel=0 note=85 velocity=71 time=0
note_on channel=0 note=85 velocity=0 time=120
note_on channel=0 note=82 velocity=64 time=0
<meta message set_tempo tempo=372787 time=120>
note_on channel=0 note=82 velocity=0 time=0
note_on channel=0 note=79 velocity=68 time=0
note_on channel=0 note=79 velocity=0 time=120
note_on channel=0 note=85 velocity=62 time=0
<meta message set_tempo tempo=361315 time=120>
note_on channel=0 note=85 velocity=0 time=0
note_on channel=0 note=63 velocity=0 time=0
note_on channel=0 note=75 velocity=0 time=0
note_on channel=0 note=68 velocity=102 time=0
control_change channel=0 control=64 value=0 time=12
control_change channel=0 control=64 value=127 time=80
note_on channel=0 note=76 velocity=72 time=28
note_on channel=0 note=76 velocity=0 time=120
note_on channel=0 note=85 velocity=78 time=0
note_on channel=0 note=85 velocity=0 time=120
note_on channel=0 note=82 velocity=70 time=0
note_on channel=0 note=82 velocity=0 time=120
note_on channel=0 note=76 velocity=77 time=0
note_on channel=0 note=76 velocity=0 time=120
note_on channel=0 note=85 velocity=69 time=0
note_on channel=0 note=85 velocity=0 time=120
note_on channel=0 note=68 velocity=0 time=0
note_on channel=0 note=67 velocity=86 time=0
control_change channel=0 control=64 value=0 time=12
control_change channel=0 control=64 value=127 time=63
note_on channel=0 note=75 velocity=67 time=45
note_on channel=0 note=75 velocity=0 time=120
note_on channel=0 note=85 velocity=74 time=0
note_on channel=0 note=85 velocity=0 time=120
note_on channel=0 note=82 velocity=64 time=0
<meta message set_tempo tempo=371586 time=120>
note_on channel=0 note=82 velocity=0 time=0
note_on channel=0 note=75 velocity=70 time=0
note_on channel=0 note=75 velocity=0 time=120
note_on channel=0 note=85 velocity=62 time=0
<meta message set_tempo tempo=361315 time=120>
note_on channel=0 note=85 velocity=0 time=0
note_on channel=0 note=67 velocity=0 time=0
note_on channel=0 note=76 velocity=102 time=0
control_change channel=0 control=64 value=0 time=8
control_change channel=0 control=64 value=127 time=95
note_on channel=0 note=80 velocity=72 time=17
note_on channel=0 note=80 velocity=0 time=120
note_on channel=0 note=85 velocity=78 time=0
note_on channel=0 note=85 velocity=0 time=120
note_on channel=0 note=82 velocity=70 time=0
note_on channel=0 note=82 velocity=0 time=120
note_on channel=0 note=80 velocity=76 time=0
note_on channel=0 note=80 velocity=0 time=120
note_on channel=0 note=85 velocity=69 time=0
note_on channel=0 note=85 velocity=0 time=120
note_on channel=0 note=76 velocity=0 time=0
note_on channel=0 note=75 velocity=86 time=0
control_change channel=0 control=64 value=0 time=17
control_change channel=0 control=64 value=127 time=75
note_on channel=0 note=79 velocity=67 time=28
note_on channel=0 note=79 velocity=0 time=120
note_on channel=0 note=85 velocity=73 time=0
note_on channel=0 note=85 velocity=0 time=120
note_on channel=0 note=82 velocity=64 time=0
note_on channel=0 note=82 velocity=0 time=120
note_on channel=0 note=79 velocity=70 time=0
note_on channel=0 note=79 velocity=0 time=120
note_on channel=0 note=85 velocity=62 time=0
<meta message set_tempo tempo=359928 time=120>
note_on channel=0 note=85 velocity=0 time=0
note_on channel=0 note=75 velocity=0 time=0
note_on channel=0 note=74 velocity=97 time=0
control_change channel=0 control=64 value=0 time=20
control_change channel=0 control=64 value=127 time=77
note_on channel=0 note=77 velocity=91 time=23
<meta message set_tempo tempo=358809 time=40>
note_on channel=0 note=80 velocity=97 time=80
<meta message set_tempo tempo=357696 time=40>
note_on channel=0 note=83 velocity=79 time=80
<meta message set_tempo tempo=356591 time=80>
note_on channel=0 note=83 velocity=0 time=40
note_on channel=0 note=86 velocity=83 time=0
<meta message set_tempo tempo=355471 time=80>
note_on channel=0 note=86 velocity=0 time=40
note_on channel=0 note=89 velocity=74 time=0
<meta message set_tempo tempo=354380 time=80>
note_on channel=0 note=89 velocity=0 time=40
note_on channel=0 note=92 velocity=85 time=0
<meta message set_tempo tempo=353294 time=120>
note_on channel=0 note=92 velocity=0 time=0
note_on channel=0 note=89 velocity=81 time=0
<meta message set_tempo tempo=352216 time=120>
note_on channel=0 note=89 velocity=0 time=0
note_on channel=0 note=86 velocity=86 time=0
note_on channel=0 note=86 velocity=0 time=120
note_on channel=0 note=95 velocity=83 time=0
<meta message set_tempo tempo=351124 time=40>
note_on channel=0 note=95 velocity=0 time=80
note_on channel=0 note=94 velocity=86 time=0
<meta message set_tempo tempo=350058 time=40>
note_on channel=0 note=94 velocity=0 time=80
note_on channel=0 note=92 velocity=78 time=0
<meta message set_tempo tempo=349000 time=40>
note_on channel=0 note=92 velocity=0 time=80
note_on channel=0 note=74 velocity=0 time=0
note_on channel=0 note=77 velocity=0 time=0
note_on channel=0 note=80 velocity=0 time=0
note_on channel=0 note=91 velocity=83 time=0
note_on channel=0 note=75 velocity=85 time=0
control_change channel=0 control=64 value=0 time=11
note_on channel=0 note=91 velocity=0 time=109
note_on channel=0 note=94 velocity=81 time=0
note_on channel=0 note=79 velocity=77 time=0
control_change channel=0 control=64 value=127 time=0
note_on channel=0 note=94 velocity=0 time=120
note_on channel=0 note=92 velocity=84 time=0
note_on channel=0 note=92 velocity=0 time=120
note_on channel=0 note=91 velocity=82 time=0
<meta message set_tempo tempo=350058 time=120>
note_on channel=0 note=91 velocity=0 time=0
note_on channel=0 note=88 velocity=81 time=0
note_on channel=0 note=88 velocity=0 time=120
note_on channel=0 note=87 velocity=74 time=0
note_on channel=0 note=87 velocity=0 time=120
note_on channel=0 note=85 velocity=78 time=0
<meta message set_tempo tempo=351124 time=40>
note_on channel=0 note=85 velocity=0 time=80
note_on channel=0 note=88 velocity=75 time=0
note_on channel=0 note=88 velocity=0 time=120
note_on channel=0 note=87 velocity=74 time=0
<meta message set_tempo tempo=352216 time=40>
note_on channel=0 note=87 velocity=0 time=80
note_on channel=0 note=85 velocity=72 time=0
note_on channel=0 note=85 velocity=0 time=120
note_on channel=0 note=83 velocity=71 time=0
<meta message set_tempo tempo=353294 time=80>
<meta message set_tempo tempo=443328 time=40>
note_on channel=0 note=83 velocity=0 time=0
note_on channel=0 note=82 velocity=66 time=0
<meta message set_tempo tempo=371517 time=120>
note_on channel=0 note=82 velocity=0 time=0
note_on channel=0 note=79 velocity=0 time=0
note_on channel=0 note=75 velocity=0 time=0
note_on channel=0 note=68 velocity=45 time=0
note_on channel=0 note=71 velocity=45 time=0
control_change channel=0 control=64 value=0 time=9
<meta message set_tempo tempo=370370 time=71>
control_change channel=0 control=64 value=127 time=6
note_on channel=0 note=80 velocity=42 time=34
<meta message set_tempo tempo=348837 time=120>
note_on channel=0 note=80 velocity=0 time=0
note_on channel=0 note=83 velocity=45 time=0
note_on channel=0 note=83 velocity=0 time=120
note_on channel=0 note=87 velocity=47 time=0
note_on channel=0 note=87 velocity=0 time=120
note_on channel=0 note=92 velocity=49 time=0
note_on channel=0 note=92 velocity=0 time=120
note_on channel=0 note=80 velocity=45 time=0
<meta message set_tempo tempo=356083 time=120>
note_on channel=0 note=80 velocity=0 time=0
note_on channel=0 note=71 velocity=0 time=0
note_on channel=0 note=68 velocity=0 time=0
note_on channel=0 note=73 velocity=44 time=0
note_on channel=0 note=76 velocity=44 time=0
control_change channel=0 control=64 value=0 time=12
control_change channel=0 control=64 value=127 time=85
<meta message set_tempo tempo=348837 time=143>
note_on channel=0 note=92 velocity=49 time=120
note_on channel=0 note=92 velocity=0 time=120
note_on channel=0 note=80 velocity=45 time=0
note_on channel=0 note=80 velocity=0 time=120
note_on channel=0 note=92 velocity=49 time=0
<meta message set_tempo tempo=356083 time=120>
note_on channel=0 note=92 velocity=0 time=0
note_on channel=0 note=76 velocity=0 time=0
note_on channel=0 note=73 velocity=0 time=0
note_on channel=0 note=71 velocity=45 time=0
note_on channel=0 note=75 velocity=45 time=0
control_change channel=0 control=64 value=0 time=24
control_change channel=0 control=64 value=127 time=96
<meta message set_tempo tempo=347826 time=120>
note_on channel=0 note=92 velocity=48 time=120
note_on channel=0 note=92 velocity=0 time=120
note_on channel=0 note=80 velocity=45 time=0
note_on channel=0 note=80 velocity=0 time=120
note_on channel=0 note=92 velocity=48 time=0
<meta message set_tempo tempo=332410 time=120>
note_on channel=0 note=92 velocity=0 time=0
note_on channel=0 note=75 velocity=0 time=0
note_on channel=0 note=71 velocity=0 time=0
note_on channel=0 note=75 velocity=60 time=0
note_on channel=0 note=70 velocity=60 time=0
note_on channel=0 note=73 velocity=60 time=0
control_change channel=0 control=64 value=0 time=17
control_change channel=0 control=64 value=127 time=80
<meta message set_tempo tempo=347826 time=143>
note_on channel=0 note=91 velocity=48 time=120
note_on channel=0 note=91 velocity=0 time=120
note_on channel=0 note=79 velocity=45 time=0
note_on channel=0 note=79 velocity=0 time=120
note_on channel=0 note=91 velocity=49 time=0
<meta message set_tempo tempo=371517 time=120>
note_on channel=0 note=91 velocity=0 time=0
note_on channel=0 note=75 velocity=0 time=0
note_on channel=0 note=70 velocity=0 time=0
note_on channel=0 note=73 velocity=0 time=0
note_on channel=0 note=68 velocity=45 time=0
note_on channel=0 note=71 velocity=45 time=0
control_change channel=0 control=64 value=0 time=8
<meta message set_tempo tempo=370370 time=72>
control_change channel=0 control=64 value=127 time=17
note_on channel=0 note=80 velocity=42 time=23
<meta message set_tempo tempo=348837 time=120>
note_on channel=0 note=80 velocity=0 time=0
note_on channel=0 note=83 velocity=45 time=0
note_on channel=0 note=83 velocity=0 time=120
note_on channel=0 note=87 velocity=47 time=0
note_on channel=0 note=87 velocity=0 time=120
note_on channel=0 note=92 velocity=49 time=0
note_on channel=0 note=92 velocity=0 time=120
note_on channel=0 note=80 velocity=45 time=0
<meta message set_tempo tempo=356083 time=120>
note_on channel=0 note=80 velocity=0 time=0
note_on channel=0 note=71 velocity=0 time=0
note_on channel=0 note=68 velocity=0 time=0
note_on channel=0 note=61 velocity=44 time=0
note_on channel=0 note=64 velocity=44 time=0
control_change channel=0 control=64 value=0 time=12
control_change channel=0 control=64 value=127 time=68
<meta message set_tempo tempo=348837 time=160>
note_on channel=0 note=80 velocity=49 time=120
note_on channel=0 note=80 velocity=0 time=120
note_on channel=0 note=68 velocity=45 time=0
note_on channel=0 note=68 velocity=0 time=120
note_on channel=0 note=80 velocity=49 time=0
<meta message set_tempo tempo=356083 time=120>
note_on channel=0 note=80 velocity=0 time=0
note_on channel=0 note=64 velocity=0 time=0
note_on channel=0 note=61 velocity=0 time=0
note_on channel=0 note=59 velocity=45 time=0
note_on channel=0 note=63 velocity=45 time=0
control_change channel=0 control=64 value=0 time=12
control_change channel=0 control=64 value=127 time=57
<meta message set_tempo tempo=347826 time=171>
note_on channel=0 note=80 velocity=48 time=120
note_on channel=0 note=80 velocity=0 time=120
note_on channel=0 note=68 velocity=45 time=0
note_on channel=0 note=68 velocity=0 time=120
note_on channel=0 note=80 velocity=48 time=0
<meta message set_tempo tempo=332410 time=120>
note_on channel=0 note=80 velocity=0 time=0
note_on channel=0 note=63 velocity=0 time=0
note_on channel=0 note=59 velocity=0 time=0
note_on channel=0 note=58 velocity=60 time=0
note_on channel=0 note=61 velocity=60 time=0
note_on channel=0 note=63 velocity=60 time=0
control_change channel=0 control=64 value=0 time=11
control_change channel=0 control=64 value=127 time=86
<meta message set_tempo tempo=347826 time=143>
note_on channel=0 note=79 velocity=48 time=120
note_on channel=0 note=79 velocity=0 time=120
note_on channel=0 note=67 velocity=45 time=0
note_on channel=0 note=67 velocity=0 time=120
note_on channel=0 note=79 velocity=49 time=0
<meta message set_tempo tempo=371517 time=120>
note_on channel=0 note=79 velocity=0 time=0
note_on channel=0 note=58 velocity=0 time=0
note_on channel=0 note=61 velocity=0 time=0
note_on channel=0 note=63 velocity=0 time=0
note_on channel=0 note=59 velocity=45 time=0
note_on channel=0 note=56 velocity=45 time=0
control_change channel=0 control=64 value=0 time=16
<meta message set_tempo tempo=370370 time=64>
note_on channel=0 note=80 velocity=42 time=40
control_change channel=0 control=64 value=127 time=12
<meta message set_tempo tempo=348837 time=108>
note_on channel=0 note=80 velocity=0 time=0
note_on channel=0 note=83 velocity=45 time=0
note_on channel=0 note=83 velocity=0 time=120
note_on channel=0 note=87 velocity=47 time=0
note_on channel=0 note=87 velocity=0 time=120
note_on channel=0 note=92 velocity=49 time=0
note_on channel=0 note=92 velocity=0 time=120
note_on channel=0 note=80 velocity=45 time=0
<meta message set_tempo tempo=356083 time=120>
note_on channel=0 note=80 velocity=0 time=0
note_on channel=0 note=56 velocity=0 time=0
note_on channel=0 note=59 velocity=0 time=0
note_on channel=0 note=52 velocity=44 time=0
note_on channel=0 note=49 velocity=44 time=0
control_change channel=0 control=64 value=0 time=12
control_change channel=0 control=64 value=127 time=68
<meta message set_tempo tempo=348837 time=160>
note_on channel=0 note=92 velocity=49 time=120
note_on channel=0 note=92 velocity=0 time=120
note_on channel=0 note=80 velocity=45 time=0
note_on channel=0 note=80 velocity=0 time=120
note_on channel=0 note=92 velocity=49 time=0
<meta message set_tempo tempo=356083 time=120>
note_on channel=0 note=92 velocity=0 time=0
note_on channel=0 note=49 velocity=0 time=0
note_on channel=0 note=52 velocity=0 time=0
note_on channel=0 note=51 velocity=45 time=0
note_on channel=0 note=47 velocity=45 time=0
control_change channel=0 control=64 value=0 time=14
control_change channel=0 control=64 value=127 time=101
<meta message set_tempo tempo=347826 time=125>
note_on channel=0 note=92 velocity=48 time=120
note_on channel=0 note=92 velocity=0 time=120
note_on channel=0 note=80 velocity=45 time=0
note_on channel=0 note=80 velocity=0 time=120
note_on channel=0 note=92 velocity=48 time=0
<meta message set_tempo tempo=332410 time=120>
note_on channel=0 note=92 velocity=0 time=0
note_on channel=0 note=47 velocity=0 time=0
note_on channel=0 note=51 velocity=0 time=0
note_on channel=0 note=51 velocity=60 time=0
note_on channel=0 note=49 velocity=60 time=0
note_on channel=0 note=46 velocity=60 time=0
control_change channel=0 control=64 value=0 time=14
control_change channel=0 control=64 value=127 time=83
<meta message set_tempo tempo=347826 time=143>
note_on channel=0 note=91 velocity=48 time=120
<meta message set_tempo tempo=373832 time=120>
note_on channel=0 note=91 velocity=0 time=0
note_on channel=0 note=79 velocity=45 time=0
note_on channel=0 note=79 velocity=0 time=120
note_on channel=0 note=91 velocity=49 time=0
<meta message set_tempo tempo=347826 time=120>
note_on channel=0 note=91 velocity=0 time=0
note_on channel=0 note=51 velocity=0 time=0
note_on channel=0 note=49 velocity=0 time=0
note_on channel=0 note=46 velocity=0 time=0
note_on channel=0 note=92 velocity=48 time=0
note_on channel=0 note=44 velocity=48 time=0
control_change channel=0 control=64 value=0 time=12
<meta message set_tempo tempo=351906 time=28>
control_change channel=0 control=64 value=127 time=40
note_on channel=0 note=92 velocity=0 time=40
note_on channel=0 note=87 velocity=45 time=0
<meta message set_tempo tempo=352941 time=40>
note_on channel=0 note=87 velocity=0 time=80
note_on channel=0 note=83 velocity=44 time=0
<meta message set_tempo tempo=353982 time=40>
note_on channel=0 note=83 velocity=0 time=80
note_on channel=0 note=87 velocity=39 time=0
<meta message set_tempo tempo=355030 time=40>
note_on channel=0 note=87 velocity=0 time=80
note_on channel=0 note=92 velocity=42 time=0
<meta message set_tempo tempo=356083 time=40>
note_on channel=0 note=92 velocity=0 time=80
note_on channel=0 note=87 velocity=39 time=0
<meta message set_tempo tempo=357143 time=40>
note_on channel=0 note=87 velocity=0 time=80
note_on channel=0 note=83 velocity=46 time=0
<meta message set_tempo tempo=358209 time=40>
note_on channel=0 note=83 velocity=0 time=80
note_on channel=0 note=87 velocity=41 time=0
<meta message set_tempo tempo=359281 time=40>
<meta message set_tempo tempo=360360 time=80>
note_on channel=0 note=87 velocity=0 time=0
note_on channel=0 note=92 velocity=41 time=0
note_on channel=0 note=92 velocity=0 time=120
note_on channel=0 note=87 velocity=37 time=0
<meta message set_tempo tempo=396040 time=120>
note_on channel=0 note=87 velocity=0 time=0
note_on channel=0 note=83 velocity=40 time=0
note_on channel=0 note=83 velocity=0 time=120
note_on channel=0 note=87 velocity=36 time=0
<meta message set_tempo tempo=415225 time=100>
note_on channel=0 note=87 velocity=0 time=20
note_on channel=0 note=44 velocity=0 time=0
note_on channel=0 note=92 velocity=42 time=0
note_on channel=0 note=39 velocity=38 time=0
<meta message set_tempo tempo=416667 time=20>
<meta message set_tempo tempo=418118 time=40>
<meta message set_tempo tempo=419580 time=40>
note_on channel=0 note=92 velocity=0 time=20
note_on channel=0 note=87 velocity=39 time=0
<meta message set_tempo tempo=421053 time=20>
<meta message set_tempo tempo=422535 time=40>
<meta message set_tempo tempo=424028 time=40>
note_on channel=0 note=87 velocity=0 time=20
note_on channel=0 note=83 velocity=39 time=0
<meta message set_tempo tempo=425532 time=20>
<meta message set_tempo tempo=427046 time=40>
<meta message set_tempo tempo=428571 time=40>
note_on channel=0 note=83 velocity=0 time=20
note_on channel=0 note=87 velocity=35 time=0
<meta message set_tempo tempo=430108 time=20>
<meta message set_tempo tempo=431655 time=40>
<meta message set_tempo tempo=433213 time=40>
note_on channel=0 note=87 velocity=0 time=20
note_on channel=0 note=92 velocity=38 time=0
<meta message set_tempo tempo=434783 time=20>
<meta message set_tempo tempo=436364 time=40>
<meta message set_tempo tempo=439560 time=40>
note_on channel=0 note=92 velocity=0 time=20
note_on channel=0 note=87 velocity=34 time=0
<meta message set_tempo tempo=441176 time=20>
<meta message set_tempo tempo=442804 time=40>
<meta message set_tempo tempo=444444 time=40>
note_on channel=0 note=87 velocity=0 time=20
note_on channel=0 note=39 velocity=0 time=0
note_on channel=0 note=92 velocity=39 time=0
note_on channel=0 note=35 velocity=30 time=0
<meta message set_tempo tempo=446097 time=20>
<meta message set_tempo tempo=447761 time=40>
<meta message set_tempo tempo=449438 time=40>
note_on channel=0 note=92 velocity=0 time=20
note_on channel=0 note=87 velocity=35 time=0
<meta message set_tempo tempo=451128 time=20>
<meta message set_tempo tempo=452830 time=40>
<meta message set_tempo tempo=454545 time=40>
note_on channel=0 note=87 velocity=0 time=20
note_on channel=0 note=92 velocity=37 time=0
<meta message set_tempo tempo=456274 time=20>
<meta message set_tempo tempo=458015 time=40>
<meta message set_tempo tempo=459770 time=40>
note_on channel=0 note=92 velocity=0 time=20
note_on channel=0 note=87 velocity=31 time=0
<meta message set_tempo tempo=461538 time=20>
<meta message set_tempo tempo=465116 time=40>
<meta message set_tempo tempo=465116 time=20>
<meta message set_tempo tempo=470588 time=20>
<meta message set_tempo tempo=463320 time=20>
note_on channel=0 note=87 velocity=0 time=0
note_on channel=0 note=92 velocity=36 time=0
<meta message set_tempo tempo=466926 time=20>
<meta message set_tempo tempo=470588 time=20>
<meta message set_tempo tempo=474308 time=20>
<meta message set_tempo tempo=480000 time=20>
<meta message set_tempo tempo=483871 time=20>
<meta message set_tempo tempo=487805 time=20>
note_on channel=0 note=92 velocity=0 time=0
note_on channel=0 note=87 velocity=30 time=0
<meta message set_tempo tempo=491803 time=20>
<meta message set_tempo tempo=497925 time=20>
<meta message set_tempo tempo=372671 time=80>
note_on channel=0 note=87 velocity=0 time=0
note_on channel=0 note=35 velocity=0 time=0
note_on channel=0 note=92 velocity=33 time=0
note_on channel=0 note=32 velocity=27 time=0
control_change channel=0 control=64 value=0 time=12
control_change channel=0 control=64 value=127 time=257
control_change channel=0 control=64 value=0 time=1186
<meta message set_tempo tempo=381752 time=705>
note_on channel=0 note=32 velocity=0 time=0
note_on channel=0 note=92 velocity=0 time=0
note_on channel=0 note=59 velocity=35 time=0
note_on channel=0 note=47 velocity=27 time=0
<meta message set_tempo tempo=433338 time=240>
<meta message set_tempo tempo=543478 time=360>
note_on channel=0 note=47 velocity=0 time=0
note_on channel=0 note=59 velocity=0 time=0
note_on channel=0 note=56 velocity=31 time=0
note_on channel=0 note=44 velocity=25 time=0
<meta message set_tempo tempo=369004 time=120>
note_on channel=0 note=44 velocity=0 time=0
note_on channel=0 note=56 velocity=0 time=0
note_on channel=0 note=51 velocity=28 time=0
note_on channel=0 note=39 velocity=22 time=0
note_on channel=0 note=39 velocity=0 time=2160
note_on channel=0 note=51 velocity=0 time=0
note_on channel=0 note=59 velocity=35 time=0
note_on channel=0 note=47 velocity=27 time=0
<meta message set_tempo tempo=433338 time=240>
<meta message set_tempo tempo=543478 time=360>
note_on channel=0 note=47 velocity=0 time=0
note_on channel=0 note=59 velocity=0 time=0
note_on channel=0 note=56 velocity=31 time=0
note_on channel=0 note=44 velocity=25 time=0
<meta message key_signature key='C' time=120>
<meta message set_tempo tempo=369004 time=0>
note_on channel=0 note=44 velocity=0 time=0
note_on channel=0 note=56 velocity=0 time=0
note_on channel=0 note=52 velocity=28 time=0
note_on channel=0 note=40 velocity=22 time=0
<meta message set_tempo tempo=381752 time=1440>
note_on channel=0 note=40 velocity=0 time=720
note_on channel=0 note=52 velocity=0 time=0
note_on channel=0 note=56 velocity=35 time=0
note_on channel=0 note=44 velocity=27 time=0
<meta message set_tempo tempo=387072 time=240>
<meta message set_tempo tempo=427442 time=360>
note_on channel=0 note=44 velocity=0 time=0
note_on channel=0 note=56 velocity=0 time=0
note_on channel=0 note=59 velocity=30 time=0
note_on channel=0 note=47 velocity=24 time=0
<meta message set_tempo tempo=350324 time=120>
note_on channel=0 note=47 velocity=0 time=0
note_on channel=0 note=59 velocity=0 time=0
note_on channel=0 note=64 velocity=35 time=0
note_on channel=0 note=52 velocity=27 time=0
<meta message set_tempo tempo=369004 time=720>
note_on channel=0 note=52 velocity=0 time=0
note_on channel=0 note=64 velocity=0 time=0
note_on channel=0 note=68 velocity=36 time=0
note_on channel=0 note=56 velocity=28 time=0
<meta message set_tempo tempo=374813 time=240>
<meta message set_tempo tempo=404068 time=360>
note_on channel=0 note=56 velocity=0 time=0
note_on channel=0 note=68 velocity=0 time=0
note_on channel=0 note=71 velocity=31 time=0
note_on channel=0 note=59 velocity=25 time=0
<meta message set_tempo tempo=369004 time=120>
note_on channel=0 note=59 velocity=0 time=0
note_on channel=0 note=71 velocity=0 time=0
note_on channel=0 note=76 velocity=36 time=0
note_on channel=0 note=64 velocity=28 time=0
<meta message set_tempo tempo=389838 time=480>
note_on channel=0 note=64 velocity=0 time=235
note_on channel=0 note=76 velocity=0 time=0
<meta message set_tempo tempo=369004 time=5>
note_on channel=0 note=64 velocity=34 time=0
note_on channel=0 note=52 velocity=27 time=0
note_on channel=0 note=52 velocity=0 time=720
note_on channel=0 note=64 velocity=0 time=0
note_on channel=0 note=71 velocity=35 time=0
note_on channel=0 note=54 velocity=26 time=0
note_on channel=0 note=51 velocity=26 time=0
note_on channel=0 note=59 velocity=26 time=0
control_change channel=0 control=64 value=127 time=343
<meta message set_tempo tempo=395387 time=857>
note_on channel=0 note=71 velocity=0 time=0
note_on channel=0 note=73 velocity=33 time=0
note_on channel=0 note=73 velocity=0 time=180
note_on channel=0 note=71 velocity=34 time=0
<meta message set_tempo tempo=342857 time=40>
note_on channel=0 note=71 velocity=0 time=20
note_on channel=0 note=54 velocity=0 time=0
note_on channel=0 note=51 velocity=0 time=0
note_on channel=0 note=59 velocity=0 time=0
note_on channel=0 note=73 velocity=31 time=0
note_on channel=0 note=52 velocity=26 time=0
note_on channel=0 note=58 velocity=26 time=0
note_on channel=0 note=55 velocity=26 time=0
control_change channel=0 control=64 value=0 time=17
<meta message set_tempo tempo=341880 time=3>
<meta message set_tempo tempo=340909 time=40>
control_change channel=0 control=64 value=127 time=12
note_on channel=0 note=73 velocity=0 time=8
note_on channel=0 note=75 velocity=27 time=0
<meta message set_tempo tempo=339943 time=20>
<meta message set_tempo tempo=338983 time=40>
note_on channel=0 note=75 velocity=0 time=20
note_on channel=0 note=73 velocity=31 time=0
<meta message set_tempo tempo=338028 time=20>
<meta message set_tempo tempo=337079 time=40>
note_on channel=0 note=73 velocity=0 time=20
note_on channel=0 note=75 velocity=27 time=0
<meta message set_tempo tempo=336134 time=20>
<meta message set_tempo tempo=335196 time=40>
note_on channel=0 note=75 velocity=0 time=20
note_on channel=0 note=73 velocity=31 time=0
<meta message set_tempo tempo=334262 time=20>
<meta message set_tempo tempo=333333 time=40>
note_on channel=0 note=73 velocity=0 time=20
note_on channel=0 note=75 velocity=28 time=0
<meta message set_tempo tempo=332410 time=20>
<meta message set_tempo tempo=331492 time=20>
<meta message set_tempo tempo=328767 time=40>
note_on channel=0 note=75 velocity=0 time=0
note_on channel=0 note=73 velocity=31 time=0
<meta message set_tempo tempo=329670 time=40>
<meta message set_tempo tempo=330579 time=40>
note_on channel=0 note=73 velocity=0 time=0
note_on channel=0 note=75 velocity=27 time=0
<meta message set_tempo tempo=331492 time=40>
<meta message set_tempo tempo=332410 time=40>
note_on channel=0 note=75 velocity=0 time=0
note_on channel=0 note=73 velocity=31 time=0
<meta message set_tempo tempo=334262 time=40>
<meta message set_tempo tempo=335196 time=40>
note_on channel=0 note=73 velocity=0 time=0
note_on channel=0 note=75 velocity=28 time=0
<meta message set_tempo tempo=336134 time=40>
<meta message set_tempo tempo=337079 time=40>
note_on channel=0 note=75 velocity=0 time=0
note_on channel=0 note=73 velocity=26 time=0
<meta message set_tempo tempo=338983 time=40>
<meta message set_tempo tempo=339943 time=40>
note_on channel=0 note=73 velocity=0 time=0
note_on channel=0 note=75 velocity=31 time=0
<meta message set_tempo tempo=340909 time=40>
<meta message set_tempo tempo=342857 time=40>
note_on channel=0 note=75 velocity=0 time=0
note_on channel=0 note=73 velocity=26 time=0
<meta message set_tempo tempo=421556 time=120>
note_on channel=0 note=73 velocity=0 time=0
note_on channel=0 note=71 velocity=30 time=0
note_on channel=0 note=71 velocity=0 time=120
note_on channel=0 note=75 velocity=35 time=0
<meta message set_tempo tempo=461858 time=120>
note_on channel=0 note=75 velocity=0 time=0
note_on channel=0 note=73 velocity=31 time=0
<meta message set_tempo tempo=372671 time=120>
note_on channel=0 note=73 velocity=0 time=0
note_on channel=0 note=55 velocity=0 time=0
note_on channel=0 note=58 velocity=0 time=0
note_on channel=0 note=52 velocity=0 time=0
note_on channel=0 note=71 velocity=35 time=0
note_on channel=0 note=54 velocity=22 time=0
note_on channel=0 note=51 velocity=19 time=0
note_on channel=0 note=59 velocity=26 time=0
control_change channel=0 control=64 value=0 time=17
note_on channel=0 note=59 velocity=0 time=463
note_on channel=0 note=71 velocity=0 time=0
note_on channel=0 note=54 velocity=0 time=0
note_on channel=0 note=51 velocity=0 time=0
<meta message set_tempo tempo=368596 time=2400>
note_on channel=0 note=78 velocity=35 time=0
note_on channel=0 note=73 velocity=26 time=0
note_on channel=0 note=69 velocity=26 time=0
control_change channel=0 control=64 value=127 time=311
<meta message set_tempo tempo=395387 time=889>
note_on channel=0 note=78 velocity=0 time=0
note_on channel=0 note=80 velocity=35 time=0
<meta message set_tempo tempo=338028 time=240>
note_on channel=0 note=80 velocity=0 time=0
note_on channel=0 note=69 velocity=0 time=0
note_on channel=0 note=73 velocity=0 time=0
note_on channel=0 note=77 velocity=35 time=0
note_on channel=0 note=80 velocity=44 time=0
note_on channel=0 note=71 velocity=28 time=0
note_on channel=0 note=74 velocity=28 time=0
control_change channel=0 control=64 value=0 time=18
control_change channel=0 control=64 value=127 time=46
<meta message set_tempo tempo=337079 time=16>
note_on channel=0 note=80 velocity=0 time=0
note_on channel=0 note=81 velocity=35 time=0
<meta message set_tempo tempo=336134 time=40>
<meta message set_tempo tempo=335196 time=40>
note_on channel=0 note=81 velocity=0 time=0
note_on channel=0 note=80 velocity=40 time=0
<meta message set_tempo tempo=334262 time=40>
<meta message set_tempo tempo=333333 time=40>
note_on channel=0 note=80 velocity=0 time=0
note_on channel=0 note=81 velocity=36 time=0
<meta message set_tempo tempo=332410 time=80>
note_on channel=0 note=81 velocity=0 time=0
note_on channel=0 note=80 velocity=39 time=0
<meta message set_tempo tempo=331492 time=40>
<meta message set_tempo tempo=330579 time=40>
note_on channel=0 note=80 velocity=0 time=0
note_on channel=0 note=81 velocity=36 time=0
<meta message set_tempo tempo=329670 time=40>
<meta message set_tempo tempo=328767 time=40>
note_on channel=0 note=81 velocity=0 time=0
note_on channel=0 note=80 velocity=38 time=0
<meta message set_tempo tempo=329670 time=80>
note_on channel=0 note=80 velocity=0 time=0
note_on channel=0 note=81 velocity=34 time=0
<meta message set_tempo tempo=330579 time=40>
<meta message set_tempo tempo=331492 time=40>
note_on channel=0 note=81 velocity=0 time=0
note_on channel=0 note=80 velocity=37 time=0
<meta message set_tempo tempo=332410 time=40>
<meta message set_tempo tempo=333333 time=40>
note_on channel=0 note=80 velocity=0 time=0
note_on channel=0 note=81 velocity=35 time=0
<meta message set_tempo tempo=334262 time=80>
note_on channel=0 note=81 velocity=0 time=0
note_on channel=0 note=80 velocity=31 time=0
<meta message set_tempo tempo=335196 time=40>
<meta message set_tempo tempo=336134 time=40>
note_on channel=0 note=80 velocity=0 time=0
note_on channel=0 note=81 velocity=36 time=0
<meta message set_tempo tempo=337079 time=40>
<meta message set_tempo tempo=338028 time=40>
note_on channel=0 note=81 velocity=0 time=0
note_on channel=0 note=80 velocity=33 time=0
<meta message set_tempo tempo=421556 time=120>
note_on channel=0 note=80 velocity=0 time=0
note_on channel=0 note=78 velocity=33 time=0
note_on channel=0 note=78 velocity=0 time=120
note_on channel=0 note=81 velocity=37 time=0
<meta message set_tempo tempo=461858 time=120>
note_on channel=0 note=81 velocity=0 time=0
note_on channel=0 note=80 velocity=33 time=0
<meta message set_tempo tempo=372671 time=120>
note_on channel=0 note=80 velocity=0 time=0
note_on channel=0 note=74 velocity=0 time=0
note_on channel=0 note=71 velocity=0 time=0
note_on channel=0 note=77 velocity=0 time=0
note_on channel=0 note=78 velocity=35 time=0
note_on channel=0 note=69 velocity=22 time=0
note_on channel=0 note=73 velocity=26 time=0
control_change channel=0 control=64 value=0 time=7
note_on channel=0 note=73 velocity=0 time=473
note_on channel=0 note=69 velocity=0 time=0
note_on channel=0 note=78 velocity=0 time=0
<meta message set_tempo tempo=380952 time=2400>
note_on channel=0 note=64 velocity=35 time=0
note_on channel=0 note=59 velocity=26 time=0
note_on channel=0 note=56 velocity=26 time=0
control_change channel=0 control=64 value=127 time=289
<meta message set_tempo tempo=395387 time=911>
note_on channel=0 note=64 velocity=0 time=0
note_on channel=0 note=66 velocity=35 time=0
control_change channel=0 control=64 value=0 time=24
<meta message set_tempo tempo=335196 time=216>
note_on channel=0 note=66 velocity=0 time=0
note_on channel=0 note=56 velocity=0 time=0
note_on channel=0 note=59 velocity=0 time=0
note_on channel=0 note=63 velocity=35 time=0
note_on channel=0 note=66 velocity=44 time=0
note_on channel=0 note=57 velocity=28 time=0
note_on channel=0 note=60 velocity=28 time=0
<meta message set_tempo tempo=334262 time=80>
note_on channel=0 note=66 velocity=0 time=0
note_on channel=0 note=68 velocity=35 time=0
control_change channel=0 control=64 value=127 time=0
<meta message set_tempo tempo=333333 time=80>
note_on channel=0 note=68 velocity=0 time=0
note_on channel=0 note=66 velocity=40 time=0
<meta message set_tempo tempo=332410 time=80>
note_on channel=0 note=66 velocity=0 time=0
note_on channel=0 note=68 velocity=36 time=0
<meta message set_tempo tempo=331492 time=80>
note_on channel=0 note=68 velocity=0 time=0
note_on channel=0 note=66 velocity=39 time=0
<meta message set_tempo tempo=330579 time=80>
note_on channel=0 note=66 velocity=0 time=0
note_on channel=0 note=68 velocity=36 time=0
<meta message set_tempo tempo=329670 time=80>
note_on channel=0 note=68 velocity=0 time=0
note_on channel=0 note=66 velocity=39 time=0
<meta message set_tempo tempo=328767 time=40>
note_on channel=0 note=66 velocity=0 time=40
note_on channel=0 note=68 velocity=35 time=0
<meta message set_tempo tempo=329670 time=40>
note_on channel=0 note=68 velocity=0 time=40
note_on channel=0 note=66 velocity=39 time=0
<meta message set_tempo tempo=330579 time=40>
note_on channel=0 note=66 velocity=0 time=40
note_on channel=0 note=68 velocity=35 time=0
<meta message set_tempo tempo=331492 time=40>
note_on channel=0 note=68 velocity=0 time=40
note_on channel=0 note=66 velocity=31 time=0
<meta message set_tempo tempo=332410 time=40>
note_on channel=0 note=66 velocity=0 time=40
note_on channel=0 note=68 velocity=36 time=0
<meta message set_tempo tempo=333333 time=40>
<meta message set_tempo tempo=381146 time=20>
<meta message set_tempo tempo=382458 time=20>
note_on channel=0 note=68 velocity=0 time=0
note_on channel=0 note=66 velocity=33 time=0
<meta message set_tempo tempo=421556 time=120>
note_on channel=0 note=66 velocity=0 time=0
note_on channel=0 note=64 velocity=33 time=0
note_on channel=0 note=64 velocity=0 time=120
note_on channel=0 note=68 velocity=37 time=0
<meta message set_tempo tempo=461858 time=120>
note_on channel=0 note=68 velocity=0 time=0
note_on channel=0 note=66 velocity=33 time=0
<meta message set_tempo tempo=361446 time=120>
note_on channel=0 note=66 velocity=0 time=0
note_on channel=0 note=60 velocity=0 time=0
note_on channel=0 note=57 velocity=0 time=0
note_on channel=0 note=63 velocity=0 time=0
note_on channel=0 note=64 velocity=35 time=0
note_on channel=0 note=56 velocity=22 time=0
note_on channel=0 note=59 velocity=26 time=0
control_change channel=0 control=64 value=0 time=9
<meta message set_tempo tempo=365854 time=711>
note_on channel=0 note=59 velocity=0 time=0
note_on channel=0 note=56 velocity=0 time=0
note_on channel=0 note=64 velocity=0 time=0
note_on channel=0 note=57 velocity=45 time=0
note_on channel=0 note=61 velocity=45 time=0
note_on channel=0 note=69 velocity=53 time=0
note_on channel=0 note=42 velocity=44 time=0
control_change channel=0 control=64 value=127 time=183
note_on channel=0 note=42 velocity=0 time=1257
note_on channel=0 note=57 velocity=0 time=0
note_on channel=0 note=61 velocity=0 time=0
note_on channel=0 note=69 velocity=0 time=0
note_on channel=0 note=57 velocity=36 time=0
note_on channel=0 note=61 velocity=36 time=0
note_on channel=0 note=66 velocity=44 time=0
note_on channel=0 note=45 velocity=40 time=0
control_change channel=0 control=64 value=0 time=13
control_change channel=0 control=64 value=127 time=107
<meta message set_tempo tempo=386374 time=360>
note_on channel=0 note=66 velocity=0 time=120
note_on channel=0 note=68 velocity=39 time=0
<meta message set_tempo tempo=370897 time=120>
note_on channel=0 note=68 velocity=0 time=0
note_on channel=0 note=45 velocity=0 time=0
note_on channel=0 note=61 velocity=0 time=0
note_on channel=0 note=57 velocity=0 time=0
note_on channel=0 note=64 velocity=42 time=0
note_on channel=0 note=56 velocity=35 time=0
note_on channel=0 note=59 velocity=35 time=0
note_on channel=0 note=47 velocity=35 time=0
control_change channel=0 control=64 value=0 time=17
control_change channel=0 control=64 value=127 time=263
note_on channel=0 note=47 velocity=0 time=1160
note_on channel=0 note=64 velocity=0 time=0
note_on channel=0 note=56 velocity=0 time=0
note_on channel=0 note=59 velocity=0 time=0
note_on channel=0 note=63 velocity=36 time=0
note_on channel=0 note=57 velocity=30 time=0
note_on channel=0 note=54 velocity=30 time=0
note_on channel=0 note=35 velocity=30 time=0
control_change channel=0 control=64 value=0 time=20
control_change channel=0 control=64 value=127 time=280
<meta message set_tempo tempo=368596 time=1140>
note_on channel=0 note=35 velocity=0 time=0
note_on channel=0 note=63 velocity=0 time=0
note_on channel=0 note=57 velocity=0 time=0
note_on channel=0 note=54 velocity=0 time=0
note_on channel=0 note=76 velocity=35 time=0
note_on channel=0 note=71 velocity=26 time=0
note_on channel=0 note=68 velocity=26 time=0
control_change channel=0 control=64 value=0 time=6
control_change channel=0 control=64 value=127 time=174
<meta message set_tempo tempo=395387 time=1020>
note_on channel=0 note=76 velocity=0 time=0
note_on channel=0 note=78 velocity=35 time=0
control_change channel=0 control=64 value=0 time=23
<meta message set_tempo tempo=337079 time=217>
note_on channel=0 note=78 velocity=0 time=0
note_on channel=0 note=68 velocity=0 time=0
note_on channel=0 note=71 velocity=0 time=0
note_on channel=0 note=78 velocity=36 time=0
note_on channel=0 note=75 velocity=29 time=0
note_on channel=0 note=69 velocity=28 time=0
note_on channel=0 note=72 velocity=28 time=0
control_change channel=0 control=64 value=127 time=60
<meta message set_tempo tempo=336134 time=20>
note_on channel=0 note=78 velocity=0 time=0
note_on channel=0 note=80 velocity=33 time=0
<meta message set_tempo tempo=335196 time=40>
<meta message set_tempo tempo=334262 time=40>
note_on channel=0 note=80 velocity=0 time=0
note_on channel=0 note=78 velocity=36 time=0
<meta message set_tempo tempo=333333 time=40>
note_on channel=0 note=78 velocity=0 time=40
note_on channel=0 note=80 velocity=34 time=0
<meta message set_tempo tempo=332410 time=40>
<meta message set_tempo tempo=331492 time=40>
note_on channel=0 note=80 velocity=0 time=0
note_on channel=0 note=78 velocity=36 time=0
<meta message set_tempo tempo=330579 time=40>
<meta message set_tempo tempo=329670 time=40>
note_on channel=0 note=78 velocity=0 time=0
note_on channel=0 note=80 velocity=34 time=0
<meta message set_tempo tempo=328767 time=40>
note_on channel=0 note=80 velocity=0 time=40
note_on channel=0 note=78 velocity=36 time=0
<meta message set_tempo tempo=329670 time=40>
note_on channel=0 note=78 velocity=0 time=40
note_on channel=0 note=80 velocity=32 time=0
<meta message set_tempo tempo=330579 time=40>
<meta message set_tempo tempo=331492 time=40>
note_on channel=0 note=80 velocity=0 time=0
note_on channel=0 note=78 velocity=36 time=0
<meta message set_tempo tempo=332410 time=80>
note_on channel=0 note=78 velocity=0 time=0
note_on channel=0 note=80 velocity=33 time=0
<meta message set_tempo tempo=333333 time=80>
note_on channel=0 note=80 velocity=0 time=0
note_on channel=0 note=78 velocity=30 time=0
<meta message set_tempo tempo=334262 time=40>
note_on channel=0 note=78 velocity=0 time=40
note_on channel=0 note=80 velocity=34 time=0
<meta message set_tempo tempo=335196 time=40>
<meta message set_tempo tempo=336134 time=40>
note_on channel=0 note=80 velocity=0 time=0
note_on channel=0 note=78 velocity=31 time=0
<meta message set_tempo tempo=419346 time=120>
note_on channel=0 note=78 velocity=0 time=0
note_on channel=0 note=76 velocity=33 time=0
note_on channel=0 note=76 velocity=0 time=120
note_on channel=0 note=80 velocity=37 time=0
<meta message set_tempo tempo=459383 time=120>
note_on channel=0 note=80 velocity=0 time=0
note_on channel=0 note=78 velocity=33 time=0
<meta message set_tempo tempo=360859 time=120>
note_on channel=0 note=78 velocity=0 time=0
note_on channel=0 note=72 velocity=0 time=0
note_on channel=0 note=69 velocity=0 time=0
note_on channel=0 note=75 velocity=0 time=0
note_on channel=0 note=76 velocity=35 time=0
note_on channel=0 note=68 velocity=22 time=0
note_on channel=0 note=71 velocity=26 time=0
control_change channel=0 control=64 value=0 time=11
<meta message set_tempo tempo=366367 time=709>
note_on channel=0 note=71 velocity=0 time=0
note_on channel=0 note=68 velocity=0 time=0
note_on channel=0 note=76 velocity=0 time=0
note_on channel=0 note=69 velocity=45 time=0
note_on channel=0 note=73 velocity=45 time=0
note_on channel=0 note=81 velocity=53 time=0
note_on channel=0 note=66 velocity=44 time=0
note_on channel=0 note=54 velocity=38 time=0
control_change channel=0 control=64 value=127 time=212
note_on channel=0 note=54 velocity=0 time=1228
note_on channel=0 note=81 velocity=0 time=0
note_on channel=0 note=69 velocity=0 time=0
note_on channel=0 note=73 velocity=0 time=0
note_on channel=0 note=66 velocity=0 time=0
note_on channel=0 note=69 velocity=36 time=0
note_on channel=0 note=73 velocity=36 time=0
note_on channel=0 note=78 velocity=44 time=0
note_on channel=0 note=57 velocity=40 time=0
control_change channel=0 control=64 value=0 time=12
control_change channel=0 control=64 value=127 time=91
<meta message set_tempo tempo=386374 time=377>
note_on channel=0 note=78 velocity=0 time=120
note_on channel=0 note=80 velocity=39 time=0
<meta message set_tempo tempo=370897 time=120>
note_on channel=0 note=80 velocity=0 time=0
note_on channel=0 note=57 velocity=0 time=0
note_on channel=0 note=73 velocity=0 time=0
note_on channel=0 note=69 velocity=0 time=0
note_on channel=0 note=68 velocity=35 time=0
note_on channel=0 note=76 velocity=42 time=0
note_on channel=0 note=71 velocity=35 time=0
note_on channel=0 note=59 velocity=35 time=0
control_change channel=0 control=64 value=0 time=17
control_change channel=0 control=64 value=127 time=216
note_on channel=0 note=59 velocity=0 time=1207
note_on channel=0 note=68 velocity=0 time=0
note_on channel=0 note=76 velocity=0 time=0
note_on channel=0 note=71 velocity=0 time=0
note_on channel=0 note=75 velocity=36 time=0
note_on channel=0 note=69 velocity=30 time=0
note_on channel=0 note=66 velocity=30 time=0
note_on channel=0 note=47 velocity=30 time=0
control_change channel=0 control=64 value=0 time=13
control_change channel=0 control=64 value=127 time=157
note_on channel=0 note=47 velocity=0 time=310
note_on channel=0 note=75 velocity=0 time=0
note_on channel=0 note=69 velocity=0 time=0
note_on channel=0 note=66 velocity=0 time=0
control_change channel=0 control=64 value=0 time=50
<meta message set_tempo tempo=356655 time=190>
note_on channel=0 note=47 velocity=83 time=0
<meta message set_tempo tempo=369231 time=240>
<meta message set_tempo tempo=402685 time=360>
note_on channel=0 note=47 velocity=0 time=0
note_on channel=0 note=43 velocity=75 time=0
<meta message set_tempo tempo=343564 time=120>
note_on channel=0 note=43 velocity=0 time=0
note_on channel=0 note=71 velocity=70 time=0
note_on channel=0 note=40 velocity=80 time=0
<meta message set_tempo tempo=341491 time=12>
<meta message set_tempo tempo=340445 time=40>
note_on channel=0 note=71 velocity=0 time=68
note_on channel=0 note=67 velocity=61 time=0
<meta message set_tempo tempo=341491 time=12>
control_change channel=0 control=64 value=127 time=2
<meta message set_tempo tempo=343564 time=10>
<meta message set_tempo tempo=344630 time=16>
<meta message set_tempo tempo=342524 time=64>
<meta message set_tempo tempo=341491 time=16>
note_on channel=0 note=67 velocity=0 time=0
note_on channel=0 note=71 velocity=70 time=0
<meta message set_tempo tempo=340445 time=12>
<meta message set_tempo tempo=339424 time=28>
<meta message set_tempo tempo=338390 time=12>
<meta message set_tempo tempo=337382 time=28>
<meta message set_tempo tempo=339424 time=12>
<meta message set_tempo tempo=342524 time=12>
<meta message set_tempo tempo=343564 time=16>
note_on channel=0 note=71 velocity=0 time=0
note_on channel=0 note=67 velocity=60 time=0
<meta message set_tempo tempo=344630 time=12>
<meta message set_tempo tempo=346741 time=12>
<meta message set_tempo tempo=345682 time=68>
<meta message set_tempo tempo=344630 time=12>
<meta message set_tempo tempo=342524 time=16>
note_on channel=0 note=67 velocity=0 time=0
note_on channel=0 note=71 velocity=70 time=0
<meta message set_tempo tempo=341491 time=12>
<meta message set_tempo tempo=339424 time=12>
<meta message set_tempo tempo=338390 time=16>
<meta message set_tempo tempo=337382 time=24>
<meta message set_tempo tempo=340445 time=40>
<meta message set_tempo tempo=342524 time=16>
note_on channel=0 note=71 velocity=0 time=0
note_on channel=0 note=67 velocity=61 time=0
<meta message set_tempo tempo=344630 time=12>
<meta message set_tempo tempo=345682 time=28>
<meta message set_tempo tempo=347826 time=12>
<meta message set_tempo tempo=346741 time=40>
<meta message set_tempo tempo=345682 time=28>
note_on channel=0 note=67 velocity=0 time=0
note_on channel=0 note=71 velocity=70 time=0
<meta message set_tempo tempo=344630 time=24>
<meta message set_tempo tempo=342524 time=16>
<meta message set_tempo tempo=341491 time=24>
<meta message set_tempo tempo=340445 time=28>
<meta message set_tempo tempo=338390 time=12>
note_on channel=0 note=71 velocity=0 time=16
note_on channel=0 note=67 velocity=60 time=0
<meta message set_tempo tempo=339424 time=24>
<meta message set_tempo tempo=344630 time=28>
<meta message set_tempo tempo=345682 time=40>
<meta message set_tempo tempo=347826 time=12>
note_on channel=0 note=67 velocity=0 time=16
note_on channel=0 note=71 velocity=70 time=0
<meta message set_tempo tempo=346741 time=12>
<meta message set_tempo tempo=345682 time=12>
<meta message set_tempo tempo=344630 time=28>
<meta message set_tempo tempo=342524 time=12>
<meta message set_tempo tempo=341491 time=28>
<meta message set_tempo tempo=340445 time=28>
note_on channel=0 note=71 velocity=0 time=0
note_on channel=0 note=67 velocity=60 time=0
<meta message set_tempo tempo=339424 time=40>
<meta message set_tempo tempo=338390 time=24>
<meta message set_tempo tempo=339424 time=16>
<meta message set_tempo tempo=341491 time=24>
<meta message set_tempo tempo=344630 time=16>
note_on channel=0 note=67 velocity=0 time=0
note_on channel=0 note=71 velocity=70 time=0
<meta message set_tempo tempo=343564 time=64>
<meta message set_tempo tempo=342524 time=28>
<meta message set_tempo tempo=341491 time=28>
note_on channel=0 note=71 velocity=0 time=0
note_on channel=0 note=67 velocity=59 time=0
<meta message set_tempo tempo=340445 time=24>
<meta message set_tempo tempo=346741 time=56>
<meta message set_tempo tempo=353274 time=24>
note_on channel=0 note=67 velocity=0 time=16
note_on channel=0 note=71 velocity=70 time=0
<meta message set_tempo tempo=355513 time=12>
<meta message set_tempo tempo=353274 time=52>
<meta message set_tempo tempo=351083 time=16>
<meta message set_tempo tempo=348898 time=24>
<meta message set_tempo tempo=347826 time=16>
note_on channel=0 note=71 velocity=0 time=0
note_on channel=0 note=67 velocity=61 time=0
<meta message set_tempo tempo=344630 time=12>
<meta message set_tempo tempo=343564 time=28>
<meta message set_tempo tempo=342524 time=12>
note_on channel=0 note=67 velocity=0 time=68
note_on channel=0 note=71 velocity=70 time=0
<meta message set_tempo tempo=341491 time=12>
<meta message set_tempo tempo=340445 time=12>
<meta message set_tempo tempo=341491 time=16>
<meta message set_tempo tempo=347826 time=24>
<meta message set_tempo tempo=355513 time=16>
<meta message set_tempo tempo=354400 time=40>
note_on channel=0 note=71 velocity=0 time=0
note_on channel=0 note=67 velocity=60 time=0
<meta message set_tempo tempo=352175 time=12>
<meta message set_tempo tempo=349977 time=12>
<meta message set_tempo tempo=347826 time=28>
<meta message set_tempo tempo=346741 time=12>
<meta message set_tempo tempo=345682 time=16>
<meta message set_tempo tempo=344630 time=24>
note_on channel=0 note=67 velocity=0 time=16
note_on channel=0 note=71 velocity=70 time=0
<meta message set_tempo tempo=342524 time=12>
<meta message set_tempo tempo=343564 time=68>
<meta message set_tempo tempo=345682 time=24>
note_on channel=0 note=71 velocity=0 time=16
note_on channel=0 note=67 velocity=61 time=0
<meta message set_tempo tempo=344630 time=64>
<meta message set_tempo tempo=342524 time=16>
<meta message set_tempo tempo=341491 time=12>
note_on channel=0 note=67 velocity=0 time=28
note_on channel=0 note=40 velocity=0 time=0
note_on channel=0 note=71 velocity=70 time=0
note_on channel=0 note=43 velocity=81 time=0
<meta message set_tempo tempo=340445 time=12>
<meta message set_tempo tempo=342524 time=28>
<meta message set_tempo tempo=348898 time=24>
<meta message set_tempo tempo=351083 time=16>
<meta message set_tempo tempo=349977 time=12>
note_on channel=0 note=71 velocity=0 time=28
note_on channel=0 note=67 velocity=60 time=0
<meta message set_tempo tempo=347826 time=52>
<meta message set_tempo tempo=346741 time=28>
<meta message set_tempo tempo=345682 time=12>
<meta message set_tempo tempo=344630 time=12>
<meta message set_tempo tempo=337382 time=16>
note_on channel=0 note=67 velocity=0 time=0
note_on channel=0 note=71 velocity=70 time=0
note_on channel=0 note=71 velocity=0 time=120
note_on channel=0 note=67 velocity=60 time=0
note_on channel=0 note=67 velocity=0 time=120
note_on channel=0 note=71 velocity=70 time=0
<meta message set_tempo tempo=344630 time=120>
note_on channel=0 note=71 velocity=0 time=0
note_on channel=0 note=43 velocity=0 time=0
note_on channel=0 note=67 velocity=59 time=0
note_on channel=0 note=47 velocity=73 time=0
<meta message set_tempo tempo=327547 time=120>
note_on channel=0 note=47 velocity=0 time=0
note_on channel=0 note=67 velocity=0 time=0
note_on channel=0 note=71 velocity=70 time=0
note_on channel=0 note=52 velocity=81 time=0
<meta message set_tempo tempo=327547 time=12>
<meta message set_tempo tempo=325645 time=12>
<meta message set_tempo tempo=324710 time=16>
<meta message set_tempo tempo=323764 time=24>
<meta message set_tempo tempo=324710 time=56>
note_on channel=0 note=71 velocity=0 time=0
note_on channel=0 note=67 velocity=61 time=0
<meta message set_tempo tempo=326584 time=12>
<meta message set_tempo tempo=328497 time=12>
<meta message set_tempo tempo=327547 time=40>
<meta message set_tempo tempo=326584 time=16>
<meta message set_tempo tempo=324710 time=12>
<meta message set_tempo tempo=322841 time=28>
note_on channel=0 note=67 velocity=0 time=0
note_on channel=0 note=71 velocity=70 time=0
<meta message set_tempo tempo=323764 time=12>
<meta message set_tempo tempo=326584 time=28>
<meta message set_tempo tempo=325645 time=80>
note_on channel=0 note=71 velocity=0 time=0
note_on channel=0 note=67 velocity=60 time=0
<meta message set_tempo tempo=324710 time=24>
<meta message set_tempo tempo=322841 time=16>
<meta message set_tempo tempo=328497 time=40>
<meta message set_tempo tempo=329453 time=12>
<meta message set_tempo tempo=328497 time=12>
<meta message set_tempo tempo=326584 time=16>
note_on channel=0 note=67 velocity=0 time=0
note_on channel=0 note=71 velocity=70 time=0
<meta message set_tempo tempo=325645 time=12>
<meta message set_tempo tempo=324710 time=12>
<meta message set_tempo tempo=323764 time=16>
<meta message set_tempo tempo=326584 time=12>
<meta message set_tempo tempo=328497 time=12>
<meta message set_tempo tempo=329453 time=16>
<meta message set_tempo tempo=328497 time=40>
note_on channel=0 note=71 velocity=0 time=0
note_on channel=0 note=67 velocity=61 time=0
<meta message set_tempo tempo=326584 time=12>
<meta message set_tempo tempo=325645 time=28>
<meta message set_tempo tempo=327547 time=12>
<meta message set_tempo tempo=328497 time=12>
<meta message set_tempo tempo=336379 time=56>
note_on channel=0 note=67 velocity=0 time=0
note_on channel=0 note=52 velocity=0 time=0
note_on channel=0 note=71 velocity=70 time=0
note_on channel=0 note=55 velocity=83 time=0
note_on channel=0 note=71 velocity=0 time=120
note_on channel=0 note=67 velocity=60 time=0
<meta message set_tempo tempo=340445 time=120>
note_on channel=0 note=67 velocity=0 time=0
note_on channel=0 note=71 velocity=70 time=0
<meta message set_tempo tempo=345682 time=12>
<meta message set_tempo tempo=344630 time=40>
<meta message set_tempo tempo=343564 time=28>
<meta message set_tempo tempo=342524 time=24>
note_on channel=0 note=71 velocity=0 time=16
note_on channel=0 note=67 velocity=60 time=0
<meta message set_tempo tempo=343564 time=12>
<meta message set_tempo tempo=345682 time=12>
<meta message set_tempo tempo=344630 time=40>
<meta message set_tempo tempo=343564 time=16>
<meta message set_tempo tempo=341491 time=12>
note_on channel=0 note=67 velocity=0 time=28
note_on channel=0 note=71 velocity=70 time=0
<meta message set_tempo tempo=342524 time=12>
<meta message set_tempo tempo=344630 time=12>
<meta message set_tempo tempo=346741 time=28>
<meta message set_tempo tempo=345682 time=28>
<meta message set_tempo tempo=364786 time=40>
note_on channel=0 note=71 velocity=0 time=0
note_on channel=0 note=55 velocity=0 time=0
note_on channel=0 note=67 velocity=59 time=0
note_on channel=0 note=59 velocity=73 time=0
<meta message set_tempo tempo=338390 time=120>
note_on channel=0 note=59 velocity=0 time=0
note_on channel=0 note=67 velocity=0 time=0
note_on channel=0 note=71 velocity=70 time=0
note_on channel=0 note=64 velocity=82 time=0
note_on channel=0 note=71 velocity=0 time=120
note_on channel=0 note=67 velocity=61 time=0
note_on channel=0 note=67 velocity=0 time=120
note_on channel=0 note=71 velocity=70 time=0
note_on channel=0 note=71 velocity=0 time=120
note_on channel=0 note=67 velocity=60 time=0
note_on channel=0 note=67 velocity=0 time=120
note_on channel=0 note=71 velocity=70 time=0
note_on channel=0 note=71 velocity=0 time=120
note_on channel=0 note=67 velocity=61 time=0
<meta message set_tempo tempo=334262 time=120>
note_on channel=0 note=67 velocity=0 time=0
note_on channel=0 note=64 velocity=0 time=0
note_on channel=0 note=71 velocity=70 time=0
note_on channel=0 note=64 velocity=79 time=0
note_on channel=0 note=71 velocity=0 time=120
note_on channel=0 note=67 velocity=60 time=0
note_on channel=0 note=67 velocity=0 time=120
note_on channel=0 note=71 velocity=70 time=0
note_on channel=0 note=71 velocity=0 time=120
note_on channel=0 note=67 velocity=60 time=0
<meta message set_tempo tempo=338028 time=120>
note_on channel=0 note=67 velocity=0 time=0
note_on channel=0 note=71 velocity=70 time=0
note_on channel=0 note=71 velocity=0 time=120
note_on channel=0 note=67 velocity=59 time=0
<meta message set_tempo tempo=325203 time=120>
note_on channel=0 note=67 velocity=0 time=0
note_on channel=0 note=64 velocity=0 time=0
note_on channel=0 note=65 velocity=83 time=0
control_change channel=0 control=64 value=0 time=0
control_change channel=0 control=64 value=127 time=46
note_on channel=0 note=65 velocity=0 time=98
note_on channel=0 note=67 velocity=67 time=0
note_on channel=0 note=67 velocity=0 time=144
note_on channel=0 note=71 velocity=70 time=0
note_on channel=0 note=71 velocity=0 time=144
note_on channel=0 note=67 velocity=68 time=0
<meta message set_tempo tempo=338028 time=88>
note_on channel=0 note=67 velocity=0 time=56
note_on channel=0 note=65 velocity=68 time=0
<meta message set_tempo tempo=334262 time=144>
note_on channel=0 note=65 velocity=0 time=0
note_on channel=0 note=62 velocity=81 time=0
control_change channel=0 control=64 value=0 time=19
control_change channel=0 control=64 value=127 time=45
note_on channel=0 note=62 velocity=0 time=80
note_on channel=0 note=65 velocity=67 time=0
note_on channel=0 note=65 velocity=0 time=144
note_on channel=0 note=67 velocity=70 time=0
note_on channel=0 note=67 velocity=0 time=144
note_on channel=0 note=65 velocity=68 time=0
<meta message set_tempo tempo=336379 time=48>
note_on channel=0 note=65 velocity=0 time=96
note_on channel=0 note=62 velocity=68 time=0
<meta message set_tempo tempo=332373 time=144>
note_on channel=0 note=62 velocity=0 time=0
note_on channel=0 note=59 velocity=77 time=0
control_change channel=0 control=64 value=0 time=14
control_change channel=0 control=64 value=127 time=46
note_on channel=0 note=59 velocity=0 time=84
note_on channel=0 note=62 velocity=62 time=0
note_on channel=0 note=62 velocity=0 time=144
note_on channel=0 note=65 velocity=67 time=0
note_on channel=0 note=65 velocity=0 time=144
note_on channel=0 note=62 velocity=63 time=0
note_on channel=0 note=62 velocity=0 time=144
note_on channel=0 note=59 velocity=63 time=0
note_on channel=0 note=59 velocity=0 time=144
note_on channel=0 note=71 velocity=89 time=0
note_on channel=0 note=55 velocity=70 time=0
control_change channel=0 control=64 value=0 time=19
control_change channel=0 control=64 value=127 time=52
note_on channel=0 note=55 velocity=0 time=73
note_on channel=0 note=59 velocity=59 time=0
note_on channel=0 note=59 velocity=0 time=144
note_on channel=0 note=62 velocity=62 time=0
note_on channel=0 note=62 velocity=0 time=144
note_on channel=0 note=59 velocity=60 time=0
note_on channel=0 note=59 velocity=0 time=144
note_on channel=0 note=55 velocity=60 time=0
<meta message set_tempo tempo=343564 time=24>
note_on channel=0 note=71 velocity=0 time=0
note_on channel=0 note=74 velocity=80 time=0
<meta message set_tempo tempo=327547 time=120>
note_on channel=0 note=74 velocity=0 time=0
note_on channel=0 note=55 velocity=0 time=0
note_on channel=0 note=79 velocity=89 time=0
note_on channel=0 note=53 velocity=70 time=0
control_change channel=0 control=64 value=0 time=11
<meta message set_tempo tempo=327547 time=1>
<meta message set_tempo tempo=325645 time=12>
<meta message set_tempo tempo=324710 time=16>
<meta message set_tempo tempo=323764 time=24>
control_change channel=0 control=64 value=127 time=3
<meta message set_tempo tempo=324710 time=53>
<meta message set_tempo tempo=326584 time=12>
<meta message set_tempo tempo=328497 time=12>
note_on channel=0 note=53 velocity=0 time=0
note_on channel=0 note=55 velocity=59 time=0
<meta message set_tempo tempo=327547 time=40>
<meta message set_tempo tempo=326584 time=16>
<meta message set_tempo tempo=324710 time=12>
<meta message set_tempo tempo=322841 time=28>
<meta message set_tempo tempo=323764 time=12>
<meta message set_tempo tempo=326584 time=28>
note_on channel=0 note=55 velocity=0 time=8
note_on channel=0 note=59 velocity=62 time=0
<meta message set_tempo tempo=325645 time=72>
<meta message set_tempo tempo=324710 time=24>
<meta message set_tempo tempo=322841 time=16>
note_on channel=0 note=59 velocity=0 time=32
note_on channel=0 note=55 velocity=60 time=0
<meta message set_tempo tempo=328497 time=8>
<meta message set_tempo tempo=329453 time=12>
<meta message set_tempo tempo=328497 time=12>
<meta message set_tempo tempo=326584 time=16>
<meta message set_tempo tempo=325645 time=12>
<meta message set_tempo tempo=324710 time=12>
<meta message set_tempo tempo=323764 time=16>
<meta message set_tempo tempo=326584 time=12>
<meta message set_tempo tempo=328497 time=12>
<meta message set_tempo tempo=329453 time=16>
note_on channel=0 note=55 velocity=0 time=16
note_on channel=0 note=53 velocity=60 time=0
<meta message set_tempo tempo=328497 time=24>
<meta message set_tempo tempo=326584 time=12>
<meta message set_tempo tempo=325645 time=28>
<meta message set_tempo tempo=327547 time=12>
<meta message set_tempo tempo=328497 time=12>
<meta message set_tempo tempo=339424 time=56>
note_on channel=0 note=53 velocity=0 time=0
note_on channel=0 note=79 velocity=0 time=0
note_on channel=0 note=83 velocity=91 time=0
note_on channel=0 note=50 velocity=70 time=0
note_on channel=0 note=50 velocity=0 time=144
note_on channel=0 note=53 velocity=59 time=0
<meta message set_tempo tempo=346741 time=96>
<meta message set_tempo tempo=345682 time=12>
note_on channel=0 note=53 velocity=0 time=36
note_on channel=0 note=55 velocity=62 time=0
<meta message set_tempo tempo=344630 time=4>
<meta message set_tempo tempo=343564 time=28>
<meta message set_tempo tempo=342524 time=24>
<meta message set_tempo tempo=343564 time=28>
<meta message set_tempo tempo=345682 time=12>
<meta message set_tempo tempo=344630 time=40>
note_on channel=0 note=55 velocity=0 time=8
note_on channel=0 note=53 velocity=60 time=0
<meta message set_tempo tempo=343564 time=8>
<meta message set_tempo tempo=341491 time=12>
<meta message set_tempo tempo=342524 time=40>
<meta message set_tempo tempo=344630 time=12>
<meta message set_tempo tempo=346741 time=28>
<meta message set_tempo tempo=345682 time=28>
note_on channel=0 note=53 velocity=0 time=16
note_on channel=0 note=50 velocity=60 time=0
<meta message set_tempo tempo=364786 time=24>
note_on channel=0 note=83 velocity=0 time=0
note_on channel=0 note=86 velocity=80 time=0
<meta message set_tempo tempo=334262 time=120>
note_on channel=0 note=86 velocity=0 time=0
note_on channel=0 note=50 velocity=0 time=0
note_on channel=0 note=79 velocity=82 time=0
note_on channel=0 note=91 velocity=90 time=0
note_on channel=0 note=47 velocity=70 time=0
control_change channel=0 control=64 value=0 time=12
control_change channel=0 control=64 value=127 time=62
note_on channel=0 note=47 velocity=0 time=46
note_on channel=0 note=50 velocity=59 time=0
note_on channel=0 note=50 velocity=0 time=120
note_on channel=0 note=53 velocity=60 time=0
note_on channel=0 note=53 velocity=0 time=120
note_on channel=0 note=50 velocity=66 time=0
<meta message set_tempo tempo=347826 time=120>
note_on channel=0 note=50 velocity=0 time=0
note_on channel=0 note=47 velocity=59 time=0
note_on channel=0 note=47 velocity=0 time=120
note_on channel=0 note=43 velocity=60 time=0
<meta message set_tempo tempo=330579 time=120>
note_on channel=0 note=43 velocity=0 time=0
note_on channel=0 note=91 velocity=0 time=0
note_on channel=0 note=79 velocity=0 time=0
note_on channel=0 note=91 velocity=86 time=0
note_on channel=0 note=79 velocity=79 time=0
note_on channel=0 note=41 velocity=70 time=0
note_on channel=0 note=41 velocity=0 time=120
note_on channel=0 note=43 velocity=60 time=0
note_on channel=0 note=43 velocity=0 time=120
note_on channel=0 note=47 velocity=60 time=0
note_on channel=0 note=47 velocity=0 time=120
note_on channel=0 note=43 velocity=66 time=0
<meta message set_tempo tempo=337079 time=120>
note_on channel=0 note=43 velocity=0 time=0
note_on channel=0 note=41 velocity=66 time=0
note_on channel=0 note=41 velocity=0 time=120
note_on channel=0 note=38 velocity=60 time=0
note_on channel=0 note=38 velocity=0 time=120
note_on channel=0 note=79 velocity=0 time=0
note_on channel=0 note=91 velocity=0 time=0
note_on channel=0 note=79 velocity=91 time=0
note_on channel=0 note=91 velocity=91 time=0
note_on channel=0 note=36 velocity=80 time=0
control_change channel=0 control=64 value=0 time=14
<meta message set_tempo tempo=320993 time=6>
control_change channel=0 control=64 value=127 time=40
note_on channel=0 note=91 velocity=0 time=84
note_on channel=0 note=79 velocity=0 time=0
note_on channel=0 note=87 velocity=73 time=0
note_on channel=0 note=87 velocity=0 time=144
note_on channel=0 note=91 velocity=77 time=0
note_on channel=0 note=91 velocity=0 time=144
note_on channel=0 note=87 velocity=74 time=0
note_on channel=0 note=87 velocity=0 time=144
note_on channel=0 note=84 velocity=74 time=0
<meta message set_tempo tempo=329453 time=144>
note_on channel=0 note=84 velocity=0 time=0
note_on channel=0 note=79 velocity=91 time=0
note_on channel=0 note=79 velocity=0 time=144
note_on channel=0 note=84 velocity=73 time=0
note_on channel=0 note=84 velocity=0 time=144
note_on channel=0 note=87 velocity=77 time=0
note_on channel=0 note=87 velocity=0 time=144
note_on channel=0 note=84 velocity=74 time=0
note_on channel=0 note=84 velocity=0 time=144
note_on channel=0 note=79 velocity=74 time=0
note_on channel=0 note=79 velocity=0 time=144
note_on channel=0 note=75 velocity=91 time=0
note_on channel=0 note=75 velocity=0 time=144
note_on channel=0 note=79 velocity=73 time=0
note_on channel=0 note=79 velocity=0 time=144
note_on channel=0 note=84 velocity=77 time=0
note_on channel=0 note=84 velocity=0 time=144
note_on channel=0 note=79 velocity=74 time=0
note_on channel=0 note=79 velocity=0 time=144
note_on channel=0 note=75 velocity=74 time=0
note_on channel=0 note=75 velocity=0 time=144
note_on channel=0 note=36 velocity=0 time=0
note_on channel=0 note=72 velocity=91 time=0
note_on channel=0 note=39 velocity=81 time=0
control_change channel=0 control=64 value=0 time=14
control_change channel=0 control=64 value=127 time=57
note_on channel=0 note=72 velocity=0 time=73
note_on channel=0 note=75 velocity=73 time=0
note_on channel=0 note=75 velocity=0 time=144
note_on channel=0 note=79 velocity=77 time=0
note_on channel=0 note=79 velocity=0 time=144
note_on channel=0 note=75 velocity=74 time=0
note_on channel=0 note=75 velocity=0 time=144
note_on channel=0 note=72 velocity=74 time=0
<meta message set_tempo tempo=361272 time=24>
note_on channel=0 note=39 velocity=0 time=0
note_on channel=0 note=43 velocity=73 time=0
<meta message set_tempo tempo=327547 time=120>
note_on channel=0 note=43 velocity=0 time=0
note_on channel=0 note=72 velocity=0 time=0
note_on channel=0 note=67 velocity=91 time=0
note_on channel=0 note=48 velocity=81 time=0
<meta message set_tempo tempo=327547 time=12>
control_change channel=0 control=64 value=0 time=3
<meta message set_tempo tempo=325645 time=9>
<meta message set_tempo tempo=324710 time=16>
control_change channel=0 control=64 value=127 time=3
<meta message set_tempo tempo=323764 time=21>
<meta message set_tempo tempo=324710 time=56>
<meta message set_tempo tempo=326584 time=12>
<meta message set_tempo tempo=328497 time=12>
note_on channel=0 note=67 velocity=0 time=0
note_on channel=0 note=72 velocity=73 time=0
<meta message set_tempo tempo=327547 time=40>
<meta message set_tempo tempo=326584 time=16>
<meta message set_tempo tempo=324710 time=12>
<meta message set_tempo tempo=322841 time=28>
<meta message set_tempo tempo=323764 time=12>
<meta message set_tempo tempo=326584 time=28>
note_on channel=0 note=72 velocity=0 time=8
note_on channel=0 note=75 velocity=77 time=0
<meta message set_tempo tempo=325645 time=72>
<meta message set_tempo tempo=324710 time=24>
<meta message set_tempo tempo=322841 time=16>
note_on channel=0 note=75 velocity=0 time=32
note_on channel=0 note=72 velocity=74 time=0
<meta message set_tempo tempo=328497 time=8>
<meta message set_tempo tempo=329453 time=12>
<meta message set_tempo tempo=328497 time=12>
<meta message set_tempo tempo=326584 time=16>
<meta message set_tempo tempo=325645 time=12>
<meta message set_tempo tempo=324710 time=12>
<meta message set_tempo tempo=323764 time=16>
<meta message set_tempo tempo=326584 time=12>
<meta message set_tempo tempo=328497 time=12>
<meta message set_tempo tempo=329453 time=16>
note_on channel=0 note=72 velocity=0 time=16
note_on channel=0 note=67 velocity=74 time=0
<meta message set_tempo tempo=328497 time=24>
<meta message set_tempo tempo=326584 time=12>
<meta message set_tempo tempo=325645 time=28>
<meta message set_tempo tempo=327547 time=12>
<meta message set_tempo tempo=328497 time=12>
<meta message set_tempo tempo=339424 time=56>
note_on channel=0 note=67 velocity=0 time=0
note_on channel=0 note=48 velocity=0 time=0
note_on channel=0 note=63 velocity=91 time=0
note_on channel=0 note=51 velocity=83 time=0
note_on channel=0 note=63 velocity=0 time=144
note_on channel=0 note=67 velocity=73 time=0
<meta message set_tempo tempo=346741 time=96>
<meta message set_tempo tempo=345682 time=12>
note_on channel=0 note=67 velocity=0 time=36
note_on channel=0 note=72 velocity=77 time=0
<meta message set_tempo tempo=344630 time=4>
<meta message set_tempo tempo=343564 time=28>
<meta message set_tempo tempo=342524 time=24>
<meta message set_tempo tempo=343564 time=28>
<meta message set_tempo tempo=345682 time=12>
<meta message set_tempo tempo=344630 time=40>
note_on channel=0 note=72 velocity=0 time=8
note_on channel=0 note=67 velocity=74 time=0
<meta message set_tempo tempo=343564 time=8>
<meta message set_tempo tempo=341491 time=12>
<meta message set_tempo tempo=342524 time=40>
<meta message set_tempo tempo=344630 time=12>
<meta message set_tempo tempo=346741 time=28>
<meta message set_tempo tempo=345682 time=28>
note_on channel=0 note=67 velocity=0 time=16
note_on channel=0 note=63 velocity=74 time=0
<meta message set_tempo tempo=364786 time=24>
note_on channel=0 note=51 velocity=0 time=0
note_on channel=0 note=55 velocity=73 time=0
<meta message set_tempo tempo=332410 time=120>
note_on channel=0 note=55 velocity=0 time=0
note_on channel=0 note=63 velocity=0 time=0
note_on channel=0 note=63 velocity=91 time=0
note_on channel=0 note=60 velocity=82 time=0
control_change channel=0 control=64 value=0 time=4
control_change channel=0 control=64 value=127 time=109
note_on channel=0 note=63 velocity=0 time=31
note_on channel=0 note=67 velocity=73 time=0
note_on channel=0 note=67 velocity=0 time=144
note_on channel=0 note=72 velocity=77 time=0
note_on channel=0 note=72 velocity=0 time=144
note_on channel=0 note=67 velocity=74 time=0
note_on channel=0 note=67 velocity=0 time=144
note_on channel=0 note=63 velocity=74 time=0
<meta message set_tempo tempo=333370 time=144>
note_on channel=0 note=63 velocity=0 time=0
note_on channel=0 note=60 velocity=0 time=0
note_on channel=0 note=63 velocity=91 time=0
note_on channel=0 note=60 velocity=79 time=0
note_on channel=0 note=63 velocity=0 time=144
note_on channel=0 note=67 velocity=73 time=0
note_on channel=0 note=67 velocity=0 time=144
note_on channel=0 note=72 velocity=77 time=0
note_on channel=0 note=72 velocity=0 time=144
note_on channel=0 note=67 velocity=74 time=0
<meta message set_tempo tempo=338028 time=48>
note_on channel=0 note=67 velocity=0 time=96
note_on channel=0 note=63 velocity=74 time=0
control_change channel=0 control=64 value=0 time=88
<meta message set_tempo tempo=325645 time=56>
note_on channel=0 note=63 velocity=0 time=0
note_on channel=0 note=60 velocity=0 time=0
note_on channel=0 note=61 velocity=83 time=0
control_change channel=0 control=64 value=0 time=7
control_change channel=0 control=64 value=127 time=57
note_on channel=0 note=61 velocity=0 time=80
note_on channel=0 note=63 velocity=67 time=0
note_on channel=0 note=63 velocity=0 time=144
note_on channel=0 note=67 velocity=70 time=0
note_on channel=0 note=67 velocity=0 time=144
note_on channel=0 note=63 velocity=68 time=0
<meta message set_tempo tempo=339424 time=48>
note_on channel=0 note=63 velocity=0 time=96
note_on channel=0 note=61 velocity=68 time=0
<meta message set_tempo tempo=333370 time=144>
note_on channel=0 note=61 velocity=0 time=0
note_on channel=0 note=58 velocity=81 time=0
note_on channel=0 note=58 velocity=0 time=144
note_on channel=0 note=61 velocity=67 time=0
note_on channel=0 note=61 velocity=0 time=144
note_on channel=0 note=63 velocity=70 time=0
note_on channel=0 note=63 velocity=0 time=144
note_on channel=0 note=61 velocity=68 time=0
<meta message set_tempo tempo=336379 time=48>
note_on channel=0 note=61 velocity=0 time=96
note_on channel=0 note=58 velocity=68 time=0
<meta message set_tempo tempo=332373 time=144>
note_on channel=0 note=58 velocity=0 time=0
note_on channel=0 note=55 velocity=77 time=0
note_on channel=0 note=55 velocity=0 time=144
note_on channel=0 note=58 velocity=62 time=0
note_on channel=0 note=58 velocity=0 time=144
note_on channel=0 note=61 velocity=67 time=0
note_on channel=0 note=61 velocity=0 time=144
note_on channel=0 note=58 velocity=63 time=0
note_on channel=0 note=58 velocity=0 time=144
note_on channel=0 note=55 velocity=63 time=0
<meta message set_tempo tempo=327869 time=144>
note_on channel=0 note=55 velocity=0 time=0
note_on channel=0 note=67 velocity=89 time=0
note_on channel=0 note=51 velocity=70 time=0
control_change channel=0 control=64 value=0 time=19
control_change channel=0 control=64 value=127 time=38
note_on channel=0 note=51 velocity=0 time=87
note_on channel=0 note=55 velocity=59 time=0
note_on channel=0 note=55 velocity=0 time=144
note_on channel=0 note=58 velocity=62 time=0
note_on channel=0 note=58 velocity=0 time=144
note_on channel=0 note=55 velocity=60 time=0
note_on channel=0 note=55 velocity=0 time=144
note_on channel=0 note=51 velocity=60 time=0
<meta message set_tempo tempo=345821 time=24>
note_on channel=0 note=67 velocity=0 time=0
note_on channel=0 note=70 velocity=80 time=0
<meta message set_tempo tempo=327547 time=120>
note_on channel=0 note=70 velocity=0 time=0
note_on channel=0 note=51 velocity=0 time=0
note_on channel=0 note=75 velocity=89 time=0
note_on channel=0 note=49 velocity=70 time=0
<meta message set_tempo tempo=327547 time=12>
control_change channel=0 control=64 value=0 time=9
<meta message set_tempo tempo=325645 time=3>
<meta message set_tempo tempo=324710 time=16>
<meta message set_tempo tempo=323764 time=24>
control_change channel=0 control=64 value=127 time=10
<meta message set_tempo tempo=324710 time=46>
<meta message set_tempo tempo=326584 time=12>
<meta message set_tempo tempo=328497 time=12>
note_on channel=0 note=49 velocity=0 time=0
note_on channel=0 note=51 velocity=59 time=0
<meta message set_tempo tempo=327547 time=40>
<meta message set_tempo tempo=326584 time=16>
<meta message set_tempo tempo=324710 time=12>
<meta message set_tempo tempo=322841 time=28>
<meta message set_tempo tempo=323764 time=12>
<meta message set_tempo tempo=326584 time=28>
note_on channel=0 note=51 velocity=0 time=8
note_on channel=0 note=55 velocity=62 time=0
<meta message set_tempo tempo=325645 time=72>
<meta message set_tempo tempo=324710 time=24>
<meta message set_tempo tempo=322841 time=16>
note_on channel=0 note=55 velocity=0 time=32
note_on channel=0 note=51 velocity=60 time=0
<meta message set_tempo tempo=328497 time=8>
<meta message set_tempo tempo=329453 time=12>
<meta message set_tempo tempo=328497 time=12>
<meta message set_tempo tempo=326584 time=16>
<meta message set_tempo tempo=325645 time=12>
<meta message set_tempo tempo=324710 time=12>
<meta message set_tempo tempo=323764 time=16>
<meta message set_tempo tempo=326584 time=12>
<meta message set_tempo tempo=328497 time=12>
<meta message set_tempo tempo=329453 time=16>
note_on channel=0 note=51 velocity=0 time=16
note_on channel=0 note=49 velocity=60 time=0
<meta message set_tempo tempo=328497 time=24>
<meta message set_tempo tempo=326584 time=12>
<meta message set_tempo tempo=325645 time=28>
<meta message set_tempo tempo=327547 time=12>
<meta message set_tempo tempo=328497 time=12>
<meta message set_tempo tempo=339424 time=56>
note_on channel=0 note=49 velocity=0 time=0
note_on channel=0 note=75 velocity=0 time=0
note_on channel=0 note=79 velocity=91 time=0
note_on channel=0 note=46 velocity=70 time=0
note_on channel=0 note=46 velocity=0 time=144
note_on channel=0 note=49 velocity=59 time=0
<meta message set_tempo tempo=346741 time=96>
<meta message set_tempo tempo=345682 time=12>
note_on channel=0 note=49 velocity=0 time=36
note_on channel=0 note=51 velocity=62 time=0
<meta message set_tempo tempo=344630 time=4>
<meta message set_tempo tempo=343564 time=28>
<meta message set_tempo tempo=342524 time=24>
<meta message set_tempo tempo=343564 time=28>
<meta message set_tempo tempo=345682 time=12>
<meta message set_tempo tempo=344630 time=40>
note_on channel=0 note=51 velocity=0 time=8
note_on channel=0 note=49 velocity=60 time=0
<meta message set_tempo tempo=343564 time=8>
<meta message set_tempo tempo=341491 time=12>
<meta message set_tempo tempo=342524 time=40>
<meta message set_tempo tempo=344630 time=12>
<meta message set_tempo tempo=346741 time=28>
<meta message set_tempo tempo=345682 time=28>
note_on channel=0 note=49 velocity=0 time=16
note_on channel=0 note=46 velocity=60 time=0
<meta message set_tempo tempo=364786 time=24>
note_on channel=0 note=79 velocity=0 time=0
note_on channel=0 note=82 velocity=80 time=0
<meta message set_tempo tempo=337079 time=120>
note_on channel=0 note=82 velocity=0 time=0
note_on channel=0 note=46 velocity=0 time=0
note_on channel=0 note=75 velocity=82 time=0
note_on channel=0 note=87 velocity=90 time=0
note_on channel=0 note=43 velocity=70 time=0
control_change channel=0 control=64 value=0 time=17
control_change channel=0 control=64 value=127 time=57
note_on channel=0 note=43 velocity=0 time=46
note_on channel=0 note=46 velocity=59 time=0
note_on channel=0 note=46 velocity=0 time=120
note_on channel=0 note=49 velocity=60 time=0
note_on channel=0 note=49 velocity=0 time=120
note_on channel=0 note=46 velocity=66 time=0
<meta message set_tempo tempo=349854 time=120>
note_on channel=0 note=46 velocity=0 time=0
note_on channel=0 note=43 velocity=59 time=0
note_on channel=0 note=43 velocity=0 time=120
note_on channel=0 note=39 velocity=60 time=0
<meta message set_tempo tempo=333333 time=120>
note_on channel=0 note=39 velocity=0 time=0
note_on channel=0 note=87 velocity=0 time=0
note_on channel=0 note=75 velocity=0 time=0
note_on channel=0 note=75 velocity=79 time=0
note_on channel=0 note=87 velocity=86 time=0
note_on channel=0 note=37 velocity=70 time=0
note_on channel=0 note=37 velocity=0 time=120
note_on channel=0 note=39 velocity=60 time=0
note_on channel=0 note=39 velocity=0 time=120
note_on channel=0 note=43 velocity=60 time=0
note_on channel=0 note=43 velocity=0 time=120
note_on channel=0 note=39 velocity=66 time=0
note_on channel=0 note=39 velocity=0 time=120
note_on channel=0 note=37 velocity=66 time=0
<meta message set_tempo tempo=349854 time=120>
note_on channel=0 note=37 velocity=0 time=0
note_on channel=0 note=34 velocity=60 time=0
<meta message set_tempo tempo=330579 time=120>
note_on channel=0 note=34 velocity=0 time=0
note_on channel=0 note=87 velocity=0 time=0
note_on channel=0 note=75 velocity=0 time=0
note_on channel=0 note=87 velocity=100 time=0
note_on channel=0 note=32 velocity=80 time=0
control_change channel=0 control=64 value=0 time=7
control_change channel=0 control=64 value=127 time=60
note_on channel=0 note=87 velocity=0 time=77
note_on channel=0 note=92 velocity=80 time=0
<meta message set_tempo tempo=323450 time=96>
note_on channel=0 note=92 velocity=0 time=48
note_on channel=0 note=96 velocity=83 time=0
note_on channel=0 note=96 velocity=0 time=144
note_on channel=0 note=92 velocity=81 time=0
note_on channel=0 note=92 velocity=0 time=144
note_on channel=0 note=87 velocity=80 time=0
<meta message set_tempo tempo=326087 time=144>
note_on channel=0 note=87 velocity=0 time=0
note_on channel=0 note=84 velocity=97 time=0
note_on channel=0 note=84 velocity=0 time=144
note_on channel=0 note=87 velocity=78 time=0
note_on channel=0 note=87 velocity=0 time=144
note_on channel=0 note=92 velocity=81 time=0
note_on channel=0 note=92 velocity=0 time=144
note_on channel=0 note=87 velocity=79 time=0
note_on channel=0 note=87 velocity=0 time=144
note_on channel=0 note=84 velocity=75 time=0
<meta message set_tempo tempo=327869 time=144>
note_on channel=0 note=84 velocity=0 time=0
note_on channel=0 note=80 velocity=95 time=0
note_on channel=0 note=80 velocity=0 time=144
note_on channel=0 note=84 velocity=77 time=0
note_on channel=0 note=84 velocity=0 time=144
note_on channel=0 note=87 velocity=79 time=0
note_on channel=0 note=87 velocity=0 time=144
note_on channel=0 note=84 velocity=77 time=0
note_on channel=0 note=84 velocity=0 time=144
note_on channel=0 note=80 velocity=77 time=0
note_on channel=0 note=80 velocity=0 time=144
note_on channel=0 note=32 velocity=0 time=0
note_on channel=0 note=75 velocity=93 time=0
note_on channel=0 note=36 velocity=81 time=0
control_change channel=0 control=64 value=0 time=18
control_change channel=0 control=64 value=127 time=74
note_on channel=0 note=75 velocity=0 time=52
note_on channel=0 note=80 velocity=74 time=0
note_on channel=0 note=80 velocity=0 time=144
note_on channel=0 note=84 velocity=78 time=0
note_on channel=0 note=84 velocity=0 time=144
note_on channel=0 note=80 velocity=74 time=0
note_on channel=0 note=80 velocity=0 time=144
note_on channel=0 note=75 velocity=74 time=0
<meta message set_tempo tempo=361272 time=24>
note_on channel=0 note=36 velocity=0 time=0
note_on channel=0 note=39 velocity=73 time=0
<meta message set_tempo tempo=327547 time=120>
note_on channel=0 note=39 velocity=0 time=0
note_on channel=0 note=75 velocity=0 time=0
note_on channel=0 note=72 velocity=91 time=0
note_on channel=0 note=44 velocity=81 time=0
<meta message set_tempo tempo=327547 time=12>
control_change channel=0 control=64 value=0 time=1
<meta message set_tempo tempo=325645 time=11>
<meta message set_tempo tempo=324710 time=16>
control_change channel=0 control=64 value=127 time=20
<meta message set_tempo tempo=323764 time=4>
<meta message set_tempo tempo=324710 time=56>
<meta message set_tempo tempo=326584 time=12>
<meta message set_tempo tempo=328497 time=12>
note_on channel=0 note=72 velocity=0 time=0
note_on channel=0 note=75 velocity=73 time=0
<meta message set_tempo tempo=327547 time=40>
<meta message set_tempo tempo=326584 time=16>
<meta message set_tempo tempo=324710 time=12>
<meta message set_tempo tempo=322841 time=28>
<meta message set_tempo tempo=323764 time=12>
<meta message set_tempo tempo=326584 time=28>
note_on channel=0 note=75 velocity=0 time=8
note_on channel=0 note=80 velocity=77 time=0
<meta message set_tempo tempo=325645 time=72>
<meta message set_tempo tempo=324710 time=24>
<meta message set_tempo tempo=322841 time=16>
note_on channel=0 note=80 velocity=0 time=32
note_on channel=0 note=75 velocity=74 time=0
<meta message set_tempo tempo=328497 time=8>
<meta message set_tempo tempo=329453 time=12>
<meta message set_tempo tempo=328497 time=12>
<meta message set_tempo tempo=326584 time=16>
<meta message set_tempo tempo=325645 time=12>
<meta message set_tempo tempo=324710 time=12>
<meta message set_tempo tempo=323764 time=16>
<meta message set_tempo tempo=326584 time=12>
<meta message set_tempo tempo=328497 time=12>
<meta message set_tempo tempo=329453 time=16>
note_on channel=0 note=75 velocity=0 time=16
note_on channel=0 note=72 velocity=74 time=0
<meta message set_tempo tempo=328497 time=24>
<meta message set_tempo tempo=326584 time=12>
<meta message set_tempo tempo=325645 time=28>
<meta message set_tempo tempo=327547 time=12>
<meta message set_tempo tempo=328497 time=12>
<meta message set_tempo tempo=339424 time=56>
note_on channel=0 note=72 velocity=0 time=0
note_on channel=0 note=44 velocity=0 time=0
note_on channel=0 note=68 velocity=91 time=0
note_on channel=0 note=48 velocity=83 time=0
note_on channel=0 note=68 velocity=0 time=144
note_on channel=0 note=72 velocity=73 time=0
<meta message set_tempo tempo=346741 time=96>
<meta message set_tempo tempo=345682 time=12>
note_on channel=0 note=72 velocity=0 time=36
note_on channel=0 note=75 velocity=77 time=0
<meta message set_tempo tempo=344630 time=4>
<meta message set_tempo tempo=343564 time=28>
<meta message set_tempo tempo=342524 time=24>
<meta message set_tempo tempo=343564 time=28>
<meta message set_tempo tempo=345682 time=12>
<meta message set_tempo tempo=344630 time=40>
note_on channel=0 note=75 velocity=0 time=8
note_on channel=0 note=72 velocity=74 time=0
<meta message set_tempo tempo=343564 time=8>
<meta message set_tempo tempo=341491 time=12>
<meta message set_tempo tempo=342524 time=40>
<meta message set_tempo tempo=344630 time=12>
<meta message set_tempo tempo=346741 time=28>
<meta message set_tempo tempo=345682 time=28>
note_on channel=0 note=72 velocity=0 time=16
note_on channel=0 note=68 velocity=74 time=0
<meta message set_tempo tempo=364786 time=24>
note_on channel=0 note=48 velocity=0 time=0
note_on channel=0 note=51 velocity=73 time=0
<meta message set_tempo tempo=326975 time=120>
note_on channel=0 note=51 velocity=0 time=0
note_on channel=0 note=68 velocity=0 time=0
note_on channel=0 note=63 velocity=91 time=0
note_on channel=0 note=56 velocity=82 time=0
control_change channel=0 control=64 value=0 time=20
control_change channel=0 control=64 value=127 time=54
note_on channel=0 note=63 velocity=0 time=70
note_on channel=0 note=68 velocity=73 time=0
note_on channel=0 note=68 velocity=0 time=144
note_on channel=0 note=72 velocity=77 time=0
note_on channel=0 note=72 velocity=0 time=144
note_on channel=0 note=68 velocity=74 time=0
note_on channel=0 note=68 velocity=0 time=144
note_on channel=0 note=63 velocity=74 time=0
<meta message set_tempo tempo=333370 time=144>
note_on channel=0 note=63 velocity=0 time=0
note_on channel=0 note=56 velocity=0 time=0
note_on channel=0 note=60 velocity=91 time=0
note_on channel=0 note=56 velocity=79 time=0
note_on channel=0 note=60 velocity=0 time=144
note_on channel=0 note=63 velocity=73 time=0
note_on channel=0 note=63 velocity=0 time=144
note_on channel=0 note=68 velocity=77 time=0
note_on channel=0 note=68 velocity=0 time=144
note_on channel=0 note=63 velocity=74 time=0
note_on channel=0 note=63 velocity=0 time=144
note_on channel=0 note=60 velocity=74 time=0
<meta message set_tempo tempo=325645 time=144>
note_on channel=0 note=60 velocity=0 time=0
note_on channel=0 note=56 velocity=0 time=0
note_on channel=0 note=66 velocity=83 time=0
note_on channel=0 note=57 velocity=83 time=0
control_change channel=0 control=64 value=0 time=7
control_change channel=0 control=64 value=127 time=60
note_on channel=0 note=57 velocity=0 time=77
note_on channel=0 note=60 velocity=67 time=0
note_on channel=0 note=60 velocity=0 time=144
note_on channel=0 note=63 velocity=70 time=0
note_on channel=0 note=63 velocity=0 time=144
note_on channel=0 note=60 velocity=68 time=0
<meta message set_tempo tempo=339424 time=48>
note_on channel=0 note=60 velocity=0 time=96
note_on channel=0 note=57 velocity=68 time=0
<meta message set_tempo tempo=333370 time=144>
note_on channel=0 note=57 velocity=0 time=0
note_on channel=0 note=54 velocity=81 time=0
note_on channel=0 note=54 velocity=0 time=144
note_on channel=0 note=57 velocity=67 time=0
note_on channel=0 note=57 velocity=0 time=144
note_on channel=0 note=60 velocity=70 time=0
note_on channel=0 note=60 velocity=0 time=144
note_on channel=0 note=57 velocity=68 time=0
<meta message set_tempo tempo=336379 time=48>
note_on channel=0 note=57 velocity=0 time=96
note_on channel=0 note=54 velocity=68 time=0
<meta message set_tempo tempo=332373 time=144>
note_on channel=0 note=54 velocity=0 time=0
note_on channel=0 note=51 velocity=77 time=0
note_on channel=0 note=51 velocity=0 time=144
note_on channel=0 note=54 velocity=62 time=0
note_on channel=0 note=54 velocity=0 time=144
note_on channel=0 note=57 velocity=67 time=0
note_on channel=0 note=57 velocity=0 time=144
note_on channel=0 note=54 velocity=63 time=0
<meta message set_tempo tempo=326087 time=48>
note_on channel=0 note=54 velocity=0 time=96
note_on channel=0 note=51 velocity=63 time=0
<meta message set_tempo tempo=334262 time=144>
note_on channel=0 note=51 velocity=0 time=0
note_on channel=0 note=66 velocity=0 time=0
note_on channel=0 note=72 velocity=89 time=0
note_on channel=0 note=48 velocity=70 time=0
control_change channel=0 control=64 value=0 time=19
control_change channel=0 control=64 value=127 time=48
note_on channel=0 note=48 velocity=0 time=77
note_on channel=0 note=51 velocity=59 time=0
note_on channel=0 note=51 velocity=0 time=144
note_on channel=0 note=54 velocity=62 time=0
note_on channel=0 note=54 velocity=0 time=144
note_on channel=0 note=51 velocity=60 time=0
note_on channel=0 note=51 velocity=0 time=144
note_on channel=0 note=48 velocity=60 time=0
<meta message set_tempo tempo=366972 time=24>
note_on channel=0 note=72 velocity=0 time=0
note_on channel=0 note=75 velocity=85 time=0
<meta message key_signature key='Ab' time=120>
<meta message set_tempo tempo=327547 time=0>
note_on channel=0 note=75 velocity=0 time=0
note_on channel=0 note=48 velocity=0 time=0
note_on channel=0 note=78 velocity=92 time=0
note_on channel=0 note=45 velocity=70 time=0
<meta message set_tempo tempo=327547 time=12>
control_change channel=0 control=64 value=0 time=7
<meta message set_tempo tempo=325645 time=5>
<meta message set_tempo tempo=324710 time=16>
<meta message set_tempo tempo=323764 time=24>
control_change channel=0 control=64 value=127 time=24
<meta message set_tempo tempo=324710 time=32>
<meta message set_tempo tempo=326584 time=12>
<meta message set_tempo tempo=328497 time=12>
note_on channel=0 note=45 velocity=0 time=0
note_on channel=0 note=48 velocity=59 time=0
<meta message set_tempo tempo=327547 time=40>
<meta message set_tempo tempo=326584 time=16>
<meta message set_tempo tempo=324710 time=12>
<meta message set_tempo tempo=322841 time=28>
<meta message set_tempo tempo=323764 time=12>
<meta message set_tempo tempo=326584 time=28>
note_on channel=0 note=48 velocity=0 time=8
note_on channel=0 note=51 velocity=62 time=0
<meta message set_tempo tempo=325645 time=72>
<meta message set_tempo tempo=324710 time=24>
<meta message set_tempo tempo=322841 time=16>
note_on channel=0 note=51 velocity=0 time=32
note_on channel=0 note=48 velocity=60 time=0
<meta message set_tempo tempo=328497 time=8>
<meta message set_tempo tempo=329453 time=12>
<meta message set_tempo tempo=328497 time=12>
<meta message set_tempo tempo=326584 time=16>
<meta message set_tempo tempo=325645 time=12>
<meta message set_tempo tempo=324710 time=12>
<meta message set_tempo tempo=323764 time=16>
<meta message set_tempo tempo=326584 time=12>
<meta message set_tempo tempo=328497 time=12>
<meta message set_tempo tempo=329453 time=16>
note_on channel=0 note=48 velocity=0 time=16
note_on channel=0 note=45 velocity=60 time=0
<meta message set_tempo tempo=328497 time=24>
<meta message set_tempo tempo=326584 time=12>
<meta message set_tempo tempo=325645 time=28>
<meta message set_tempo tempo=327547 time=12>
<meta message set_tempo tempo=328497 time=12>
<meta message set_tempo tempo=339424 time=56>
note_on channel=0 note=45 velocity=0 time=0
note_on channel=0 note=78 velocity=0 time=0
note_on channel=0 note=84 velocity=95 time=0
note_on channel=0 note=42 velocity=70 time=0
note_on channel=0 note=42 velocity=0 time=144
note_on channel=0 note=45 velocity=59 time=0
<meta message set_tempo tempo=346741 time=96>
<meta message set_tempo tempo=345682 time=12>
note_on channel=0 note=45 velocity=0 time=36
note_on channel=0 note=48 velocity=62 time=0
<meta message set_tempo tempo=344630 time=4>
<meta message set_tempo tempo=343564 time=28>
<meta message set_tempo tempo=342524 time=24>
<meta message set_tempo tempo=343564 time=28>
<meta message set_tempo tempo=345682 time=12>
<meta message set_tempo tempo=344630 time=40>
note_on channel=0 note=48 velocity=0 time=8
note_on channel=0 note=45 velocity=60 time=0
<meta message set_tempo tempo=343564 time=8>
<meta message set_tempo tempo=341491 time=12>
<meta message set_tempo tempo=342524 time=40>
<meta message set_tempo tempo=344630 time=12>
<meta message set_tempo tempo=346741 time=28>
<meta message set_tempo tempo=345682 time=28>
note_on channel=0 note=45 velocity=0 time=16
note_on channel=0 note=42 velocity=60 time=0
<meta message set_tempo tempo=398671 time=24>
note_on channel=0 note=84 velocity=0 time=0
note_on channel=0 note=87 velocity=84 time=0
<meta message set_tempo tempo=345006 time=120>
note_on channel=0 note=87 velocity=0 time=0
note_on channel=0 note=42 velocity=0 time=0
note_on channel=0 note=90 velocity=96 time=0
note_on channel=0 note=39 velocity=70 time=0
control_change channel=0 control=64 value=0 time=13
control_change channel=0 control=64 value=127 time=65
note_on channel=0 note=39 velocity=0 time=42
note_on channel=0 note=42 velocity=59 time=0
note_on channel=0 note=42 velocity=0 time=120
note_on channel=0 note=45 velocity=60 time=0
note_on channel=0 note=45 velocity=0 time=120
note_on channel=0 note=42 velocity=66 time=0
<meta message set_tempo tempo=364454 time=120>
note_on channel=0 note=42 velocity=0 time=0
note_on channel=0 note=39 velocity=59 time=0
note_on channel=0 note=39 velocity=0 time=120
note_on channel=0 note=36 velocity=60 time=0
<meta message set_tempo tempo=345006 time=120>
note_on channel=0 note=36 velocity=0 time=0
note_on channel=0 note=90 velocity=0 time=0
note_on channel=0 note=90 velocity=93 time=0
note_on channel=0 note=33 velocity=70 time=0
note_on channel=0 note=33 velocity=0 time=120
note_on channel=0 note=36 velocity=60 time=0
note_on channel=0 note=36 velocity=0 time=120
note_on channel=0 note=39 velocity=60 time=0
note_on channel=0 note=39 velocity=0 time=120
note_on channel=0 note=42 velocity=66 time=0
note_on channel=0 note=42 velocity=0 time=120
note_on channel=0 note=39 velocity=66 time=0
note_on channel=0 note=39 velocity=0 time=120
note_on channel=0 note=36 velocity=60 time=0
<meta message set_tempo tempo=335196 time=120>
note_on channel=0 note=36 velocity=0 time=0
note_on channel=0 note=90 velocity=0 time=0
note_on channel=0 note=90 velocity=105 time=0
note_on channel=0 note=32 velocity=70 time=0
control_change channel=0 control=64 value=0 time=22
control_change channel=0 control=64 value=127 time=47
note_on channel=0 note=32 velocity=0 time=51
note_on channel=0 note=36 velocity=60 time=0
note_on channel=0 note=36 velocity=0 time=120
note_on channel=0 note=39 velocity=60 time=0
note_on channel=0 note=39 velocity=0 time=120
note_on channel=0 note=42 velocity=66 time=0
note_on channel=0 note=42 velocity=0 time=120
note_on channel=0 note=39 velocity=66 time=0
note_on channel=0 note=39 velocity=0 time=120
note_on channel=0 note=36 velocity=60 time=0
note_on channel=0 note=36 velocity=0 time=120
note_on channel=0 note=33 velocity=70 time=0
control_change channel=0 control=64 value=0 time=17
control_change channel=0 control=64 value=127 time=69
note_on channel=0 note=33 velocity=0 time=34
note_on channel=0 note=36 velocity=60 time=0
<meta message set_tempo tempo=344828 time=120>
note_on channel=0 note=36 velocity=0 time=0
note_on channel=0 note=90 velocity=0 time=0
note_on channel=0 note=90 velocity=77 time=0
note_on channel=0 note=39 velocity=60 time=0
note_on channel=0 note=39 velocity=0 time=120
note_on channel=0 note=90 velocity=0 time=0
note_on channel=0 note=87 velocity=76 time=0
note_on channel=0 note=42 velocity=66 time=0
note_on channel=0 note=42 velocity=0 time=120
note_on channel=0 note=87 velocity=0 time=0
note_on channel=0 note=84 velocity=75 time=0
note_on channel=0 note=39 velocity=66 time=0
note_on channel=0 note=39 velocity=0 time=120
note_on channel=0 note=84 velocity=0 time=0
note_on channel=0 note=78 velocity=75 time=0
note_on channel=0 note=36 velocity=60 time=0
<meta message set_tempo tempo=334262 time=120>
note_on channel=0 note=36 velocity=0 time=0
note_on channel=0 note=78 velocity=0 time=0
note_on channel=0 note=90 velocity=103 time=0
note_on channel=0 note=32 velocity=70 time=0
control_change channel=0 control=64 value=0 time=9
control_change channel=0 control=64 value=127 time=100
note_on channel=0 note=32 velocity=0 time=11
note_on channel=0 note=36 velocity=60 time=0
note_on channel=0 note=36 velocity=0 time=120
note_on channel=0 note=39 velocity=60 time=0
note_on channel=0 note=39 velocity=0 time=120
note_on channel=0 note=42 velocity=66 time=0
note_on channel=0 note=42 velocity=0 time=120
note_on channel=0 note=39 velocity=66 time=0
note_on channel=0 note=39 velocity=0 time=120
note_on channel=0 note=36 velocity=60 time=0
note_on channel=0 note=36 velocity=0 time=120
note_on channel=0 note=33 velocity=70 time=0
control_change channel=0 control=64 value=0 time=21
control_change channel=0 control=64 value=127 time=76
note_on channel=0 note=33 velocity=0 time=23
note_on channel=0 note=36 velocity=60 time=0
<meta message set_tempo tempo=341880 time=120>
note_on channel=0 note=36 velocity=0 time=0
note_on channel=0 note=90 velocity=0 time=0
note_on channel=0 note=78 velocity=77 time=0
note_on channel=0 note=39 velocity=60 time=0
note_on channel=0 note=39 velocity=0 time=120
note_on channel=0 note=78 velocity=0 time=0
note_on channel=0 note=75 velocity=76 time=0
note_on channel=0 note=42 velocity=66 time=0
note_on channel=0 note=42 velocity=0 time=120
note_on channel=0 note=75 velocity=0 time=0
note_on channel=0 note=72 velocity=75 time=0
note_on channel=0 note=39 velocity=66 time=0
note_on channel=0 note=39 velocity=0 time=120
note_on channel=0 note=72 velocity=0 time=0
note_on channel=0 note=66 velocity=75 time=0
note_on channel=0 note=36 velocity=60 time=0
<meta message set_tempo tempo=335196 time=120>
note_on channel=0 note=36 velocity=0 time=0
note_on channel=0 note=66 velocity=0 time=0
note_on channel=0 note=78 velocity=94 time=0
note_on channel=0 note=32 velocity=70 time=0
control_change channel=0 control=64 value=0 time=7
control_change channel=0 control=64 value=127 time=62
note_on channel=0 note=32 velocity=0 time=51
note_on channel=0 note=36 velocity=60 time=0
note_on channel=0 note=36 velocity=0 time=120
note_on channel=0 note=39 velocity=60 time=0
note_on channel=0 note=39 velocity=0 time=120
note_on channel=0 note=42 velocity=60 time=0
note_on channel=0 note=42 velocity=0 time=120
note_on channel=0 note=39 velocity=66 time=0
note_on channel=0 note=39 velocity=0 time=120
note_on channel=0 note=36 velocity=60 time=0
note_on channel=0 note=36 velocity=0 time=120
note_on channel=0 note=33 velocity=70 time=0
control_change channel=0 control=64 value=0 time=19
control_change channel=0 control=64 value=127 time=78
note_on channel=0 note=33 velocity=0 time=23
note_on channel=0 note=36 velocity=60 time=0
<meta message set_tempo tempo=344828 time=120>
note_on channel=0 note=36 velocity=0 time=0
note_on channel=0 note=78 velocity=0 time=0
note_on channel=0 note=66 velocity=72 time=0
note_on channel=0 note=39 velocity=60 time=0
note_on channel=0 note=39 velocity=0 time=120
note_on channel=0 note=66 velocity=0 time=0
note_on channel=0 note=63 velocity=71 time=0
note_on channel=0 note=42 velocity=61 time=0
note_on channel=0 note=42 velocity=0 time=120
note_on channel=0 note=63 velocity=0 time=0
note_on channel=0 note=60 velocity=69 time=0
note_on channel=0 note=39 velocity=66 time=0
note_on channel=0 note=39 velocity=0 time=120
note_on channel=0 note=60 velocity=0 time=0
note_on channel=0 note=54 velocity=69 time=0
note_on channel=0 note=36 velocity=60 time=0
<meta message set_tempo tempo=334262 time=120>
note_on channel=0 note=36 velocity=0 time=0
note_on channel=0 note=54 velocity=0 time=0
note_on channel=0 note=66 velocity=91 time=0
note_on channel=0 note=32 velocity=70 time=0
control_change channel=0 control=64 value=0 time=9
control_change channel=0 control=64 value=127 time=71
note_on channel=0 note=32 velocity=0 time=40
note_on channel=0 note=36 velocity=60 time=0
<meta message set_tempo tempo=344828 time=120>
note_on channel=0 note=36 velocity=0 time=0
note_on channel=0 note=66 velocity=0 time=0
note_on channel=0 note=66 velocity=74 time=0
note_on channel=0 note=39 velocity=60 time=0
note_on channel=0 note=39 velocity=0 time=120
note_on channel=0 note=66 velocity=0 time=0
note_on channel=0 note=63 velocity=70 time=0
note_on channel=0 note=42 velocity=61 time=0
note_on channel=0 note=42 velocity=0 time=120
note_on channel=0 note=63 velocity=0 time=0
note_on channel=0 note=60 velocity=70 time=0
note_on channel=0 note=39 velocity=66 time=0
note_on channel=0 note=39 velocity=0 time=120
note_on channel=0 note=60 velocity=0 time=0
note_on channel=0 note=54 velocity=69 time=0
note_on channel=0 note=36 velocity=60 time=0
<meta message set_tempo tempo=336134 time=120>
note_on channel=0 note=36 velocity=0 time=0
note_on channel=0 note=54 velocity=0 time=0
note_on channel=0 note=66 velocity=89 time=0
note_on channel=0 note=33 velocity=70 time=0
control_change channel=0 control=64 value=0 time=18
control_change channel=0 control=64 value=127 time=62
note_on channel=0 note=33 velocity=0 time=40
note_on channel=0 note=36 velocity=60 time=0
<meta message set_tempo tempo=345821 time=120>
note_on channel=0 note=36 velocity=0 time=0
note_on channel=0 note=66 velocity=0 time=0
note_on channel=0 note=66 velocity=74 time=0
note_on channel=0 note=39 velocity=60 time=0
note_on channel=0 note=39 velocity=0 time=120
note_on channel=0 note=66 velocity=0 time=0
note_on channel=0 note=63 velocity=72 time=0
note_on channel=0 note=42 velocity=60 time=0
note_on channel=0 note=42 velocity=0 time=120
note_on channel=0 note=63 velocity=0 time=0
note_on channel=0 note=60 velocity=72 time=0
note_on channel=0 note=39 velocity=66 time=0
note_on channel=0 note=39 velocity=0 time=120
note_on channel=0 note=60 velocity=0 time=0
note_on channel=0 note=54 velocity=71 time=0
note_on channel=0 note=36 velocity=60 time=0
<meta message set_tempo tempo=337079 time=120>
note_on channel=0 note=36 velocity=0 time=0
note_on channel=0 note=54 velocity=0 time=0
note_on channel=0 note=66 velocity=84 time=0
note_on channel=0 note=32 velocity=60 time=0
note_on channel=0 note=44 velocity=60 time=0
control_change channel=0 control=64 value=0 time=8
<meta message set_tempo tempo=325203 time=232>
note_on channel=0 note=44 velocity=0 time=0
note_on channel=0 note=32 velocity=0 time=0
note_on channel=0 note=56 velocity=36 time=0
note_on channel=0 note=56 velocity=0 time=220
note_on channel=0 note=56 velocity=36 time=20
note_on channel=0 note=56 velocity=0 time=220
<meta message set_tempo tempo=327869 time=20>
note_on channel=0 note=66 velocity=0 time=0
note_on channel=0 note=56 velocity=39 time=0
note_on channel=0 note=56 velocity=0 time=220
note_on channel=0 note=56 velocity=37 time=20
note_on channel=0 note=56 velocity=0 time=220
note_on channel=0 note=56 velocity=36 time=20
note_on channel=0 note=56 velocity=0 time=220
<meta message set_tempo tempo=327869 time=20>
note_on channel=0 note=56 velocity=39 time=0
note_on channel=0 note=56 velocity=0 time=220
<meta message set_tempo tempo=325203 time=20>
note_on channel=0 note=56 velocity=35 time=0
note_on channel=0 note=56 velocity=0 time=220
note_on channel=0 note=56 velocity=35 time=20
note_on channel=0 note=56 velocity=0 time=220
<meta message set_tempo tempo=327869 time=20>
note_on channel=0 note=56 velocity=39 time=0
note_on channel=0 note=56 velocity=0 time=220
note_on channel=0 note=56 velocity=36 time=20
note_on channel=0 note=56 velocity=0 time=220
note_on channel=0 note=56 velocity=36 time=20
note_on channel=0 note=56 velocity=0 time=220
<meta message set_tempo tempo=337079 time=20>
note_on channel=0 note=63 velocity=58 time=0
note_on channel=0 note=60 velocity=58 time=0
<meta message set_tempo tempo=325203 time=240>
note_on channel=0 note=56 velocity=36 time=0
note_on channel=0 note=56 velocity=0 time=220
note_on channel=0 note=56 velocity=36 time=20
note_on channel=0 note=56 velocity=0 time=220
<meta message set_tempo tempo=327869 time=20>
note_on channel=0 note=60 velocity=0 time=0
note_on channel=0 note=63 velocity=0 time=0
note_on channel=0 note=56 velocity=39 time=0
note_on channel=0 note=56 velocity=0 time=220
note_on channel=0 note=56 velocity=37 time=20
note_on channel=0 note=56 velocity=0 time=220
note_on channel=0 note=56 velocity=36 time=20
note_on channel=0 note=56 velocity=0 time=220
<meta message set_tempo tempo=327869 time=20>
note_on channel=0 note=72 velocity=59 time=0
note_on channel=0 note=75 velocity=59 time=0
note_on channel=0 note=54 velocity=39 time=0
<meta message set_tempo tempo=325203 time=240>
note_on channel=0 note=54 velocity=0 time=0
note_on channel=0 note=56 velocity=35 time=0
note_on channel=0 note=56 velocity=0 time=220
note_on channel=0 note=56 velocity=35 time=20
note_on channel=0 note=56 velocity=0 time=220
<meta message set_tempo tempo=327869 time=20>
note_on channel=0 note=75 velocity=0 time=0
note_on channel=0 note=72 velocity=0 time=0
note_on channel=0 note=56 velocity=39 time=0
note_on channel=0 note=56 velocity=0 time=220
note_on channel=0 note=56 velocity=36 time=20
note_on channel=0 note=56 velocity=0 time=220
note_on channel=0 note=56 velocity=36 time=20
note_on channel=0 note=56 velocity=0 time=220
<meta message set_tempo tempo=337079 time=20>
note_on channel=0 note=65 velocity=55 time=0
note_on channel=0 note=61 velocity=55 time=0
<meta message set_tempo tempo=325203 time=240>
note_on channel=0 note=56 velocity=36 time=0
note_on channel=0 note=56 velocity=0 time=220
note_on channel=0 note=56 velocity=36 time=20
note_on channel=0 note=56 velocity=0 time=220
<meta message set_tempo tempo=327869 time=20>
note_on channel=0 note=61 velocity=0 time=0
note_on channel=0 note=65 velocity=0 time=0
note_on channel=0 note=56 velocity=39 time=0
note_on channel=0 note=56 velocity=0 time=220
note_on channel=0 note=56 velocity=37 time=20
note_on channel=0 note=56 velocity=0 time=220
note_on channel=0 note=56 velocity=36 time=20
note_on channel=0 note=56 velocity=0 time=220
<meta message set_tempo tempo=327869 time=20>
note_on channel=0 note=73 velocity=58 time=0
note_on channel=0 note=77 velocity=58 time=0
note_on channel=0 note=53 velocity=39 time=0
<meta message set_tempo tempo=325203 time=240>
note_on channel=0 note=53 velocity=0 time=0
note_on channel=0 note=56 velocity=35 time=0
note_on channel=0 note=56 velocity=0 time=220
note_on channel=0 note=56 velocity=35 time=20
note_on channel=0 note=56 velocity=0 time=220
<meta message set_tempo tempo=327869 time=20>
note_on channel=0 note=77 velocity=0 time=0
note_on channel=0 note=73 velocity=0 time=0
note_on channel=0 note=56 velocity=39 time=0
note_on channel=0 note=56 velocity=0 time=220
note_on channel=0 note=56 velocity=36 time=20
note_on channel=0 note=56 velocity=0 time=220
note_on channel=0 note=56 velocity=36 time=20
note_on channel=0 note=56 velocity=0 time=220
<meta message set_tempo tempo=327869 time=20>
note_on channel=0 note=61 velocity=61 time=0
note_on channel=0 note=70 velocity=61 time=0
note_on channel=0 note=65 velocity=61 time=0
<meta message set_tempo tempo=325203 time=240>
note_on channel=0 note=56 velocity=38 time=0
note_on channel=0 note=56 velocity=0 time=220
note_on channel=0 note=56 velocity=38 time=20
note_on channel=0 note=56 velocity=0 time=220
<meta message set_tempo tempo=325203 time=20>
note_on channel=0 note=53 velocity=40 time=0
note_on channel=0 note=49 velocity=40 time=0
note_on channel=0 note=49 velocity=0 time=240
note_on channel=0 note=53 velocity=0 time=0
note_on channel=0 note=56 velocity=37 time=0
note_on channel=0 note=56 velocity=0 time=220
note_on channel=0 note=56 velocity=37 time=20
note_on channel=0 note=56 velocity=0 time=220
<meta message set_tempo tempo=327869 time=20>
note_on channel=0 note=49 velocity=37 time=0
note_on channel=0 note=53 velocity=37 time=0
note_on channel=0 note=53 velocity=0 time=240
note_on channel=0 note=49 velocity=0 time=0
note_on channel=0 note=56 velocity=37 time=0
note_on channel=0 note=56 velocity=0 time=220
note_on channel=0 note=56 velocity=37 time=20
note_on channel=0 note=56 velocity=0 time=220
<meta message set_tempo tempo=327869 time=20>
note_on channel=0 note=49 velocity=37 time=0
note_on channel=0 note=53 velocity=37 time=0
note_on channel=0 note=53 velocity=0 time=240
note_on channel=0 note=49 velocity=0 time=0
note_on channel=0 note=56 velocity=37 time=0
note_on channel=0 note=56 velocity=0 time=220
note_on channel=0 note=56 velocity=37 time=20
note_on channel=0 note=56 velocity=0 time=220
<meta message set_tempo tempo=327869 time=20>
note_on channel=0 note=61 velocity=0 time=0
note_on channel=0 note=70 velocity=0 time=0
note_on channel=0 note=65 velocity=0 time=0
note_on channel=0 note=60 velocity=52 time=0
note_on channel=0 note=63 velocity=52 time=0
note_on channel=0 note=68 velocity=52 time=0
note_on channel=0 note=48 velocity=39 time=0
note_on channel=0 note=51 velocity=39 time=0
<meta message set_tempo tempo=326087 time=240>
note_on channel=0 note=51 velocity=0 time=0
note_on channel=0 note=48 velocity=0 time=0
note_on channel=0 note=56 velocity=37 time=0
note_on channel=0 note=56 velocity=0 time=220
note_on channel=0 note=68 velocity=0 time=20
note_on channel=0 note=63 velocity=0 time=0
note_on channel=0 note=60 velocity=0 time=0
note_on channel=0 note=56 velocity=37 time=0
note_on channel=0 note=56 velocity=0 time=220
<meta message set_tempo tempo=327869 time=20>
note_on channel=0 note=56 velocity=38 time=0
note_on channel=0 note=56 velocity=0 time=220
note_on channel=0 note=56 velocity=37 time=20
note_on channel=0 note=56 velocity=0 time=220
note_on channel=0 note=56 velocity=37 time=20
note_on channel=0 note=56 velocity=0 time=220
<meta message set_tempo tempo=327869 time=20>
note_on channel=0 note=56 velocity=37 time=0
note_on channel=0 note=56 velocity=0 time=220
<meta message set_tempo tempo=325203 time=20>
note_on channel=0 note=56 velocity=37 time=0
note_on channel=0 note=56 velocity=0 time=220
note_on channel=0 note=56 velocity=37 time=20
note_on channel=0 note=56 velocity=0 time=220
<meta message set_tempo tempo=327869 time=20>
note_on channel=0 note=60 velocity=55 time=0
note_on channel=0 note=63 velocity=55 time=0
note_on channel=0 note=56 velocity=38 time=0
note_on channel=0 note=56 velocity=0 time=220
<meta message set_tempo tempo=319149 time=20>
note_on channel=0 note=56 velocity=37 time=0
note_on channel=0 note=56 velocity=0 time=220
note_on channel=0 note=56 velocity=37 time=20
<meta message set_tempo tempo=396040 time=120>
note_on channel=0 note=63 velocity=0 time=0
note_on channel=0 note=60 velocity=0 time=0
note_on channel=0 note=60 velocity=50 time=0
note_on channel=0 note=63 velocity=50 time=0
note_on channel=0 note=56 velocity=0 time=100
<meta message set_tempo tempo=327869 time=20>
note_on channel=0 note=63 velocity=0 time=0
note_on channel=0 note=60 velocity=0 time=0
note_on channel=0 note=61 velocity=55 time=0
note_on channel=0 note=65 velocity=55 time=0
note_on channel=0 note=56 velocity=39 time=0
note_on channel=0 note=56 velocity=0 time=220
note_on channel=0 note=56 velocity=37 time=20
note_on channel=0 note=56 velocity=0 time=220
<meta message set_tempo tempo=321716 time=20>
note_on channel=0 note=65 velocity=0 time=0
note_on channel=0 note=61 velocity=0 time=0
note_on channel=0 note=60 velocity=50 time=0
note_on channel=0 note=63 velocity=50 time=0
note_on channel=0 note=56 velocity=37 time=0
note_on channel=0 note=56 velocity=0 time=220
note_on channel=0 note=63 velocity=0 time=20
note_on channel=0 note=60 velocity=0 time=0
note_on channel=0 note=56 velocity=38 time=0
note_on channel=0 note=56 velocity=0 time=220
note_on channel=0 note=56 velocity=37 time=20
note_on channel=0 note=56 velocity=0 time=220
<meta message set_tempo tempo=327869 time=20>
note_on channel=0 note=72 velocity=58 time=0
note_on channel=0 note=75 velocity=58 time=0
note_on channel=0 note=56 velocity=37 time=0
note_on channel=0 note=56 velocity=0 time=220
<meta message set_tempo tempo=325203 time=20>
note_on channel=0 note=75 velocity=0 time=0
note_on channel=0 note=72 velocity=0 time=0
note_on channel=0 note=56 velocity=38 time=0
note_on channel=0 note=56 velocity=0 time=220
note_on channel=0 note=56 velocity=39 time=20
note_on channel=0 note=56 velocity=0 time=220
note_on channel=0 note=87 velocity=56 time=20
note_on channel=0 note=84 velocity=56 time=0
note_on channel=0 note=84 velocity=0 time=240
note_on channel=0 note=87 velocity=0 time=0
note_on channel=0 note=54 velocity=44 time=0
note_on channel=0 note=51 velocity=44 time=0
<meta message set_tempo tempo=328767 time=240>
note_on channel=0 note=51 velocity=0 time=0
note_on channel=0 note=54 velocity=0 time=0
note_on channel=0 note=56 velocity=37 time=0
note_on channel=0 note=56 velocity=0 time=220
<meta message set_tempo tempo=320856 time=20>
note_on channel=0 note=56 velocity=37 time=0
note_on channel=0 note=60 velocity=53 time=120
note_on channel=0 note=63 velocity=53 time=0
<meta message set_tempo tempo=392157 time=40>
note_on channel=0 note=56 velocity=0 time=60
<meta message set_tempo tempo=327869 time=20>
note_on channel=0 note=63 velocity=0 time=0
note_on channel=0 note=60 velocity=0 time=0
note_on channel=0 note=63 velocity=57 time=0
note_on channel=0 note=66 velocity=57 time=0
note_on channel=0 note=56 velocity=39 time=0
note_on channel=0 note=56 velocity=0 time=220
note_on channel=0 note=56 velocity=37 time=20
note_on channel=0 note=56 velocity=0 time=220
<meta message set_tempo tempo=322581 time=20>
note_on channel=0 note=66 velocity=0 time=0
note_on channel=0 note=63 velocity=0 time=0
note_on channel=0 note=65 velocity=52 time=0
note_on channel=0 note=61 velocity=52 time=0
note_on channel=0 note=56 velocity=37 time=0
note_on channel=0 note=56 velocity=0 time=220
note_on channel=0 note=61 velocity=0 time=20
note_on channel=0 note=65 velocity=0 time=0
note_on channel=0 note=56 velocity=37 time=0
note_on channel=0 note=56 velocity=0 time=220
note_on channel=0 note=56 velocity=37 time=20
note_on channel=0 note=56 velocity=0 time=220
<meta message set_tempo tempo=327869 time=20>
note_on channel=0 note=73 velocity=60 time=0
note_on channel=0 note=77 velocity=60 time=0
note_on channel=0 note=56 velocity=37 time=0
note_on channel=0 note=56 velocity=0 time=220
note_on channel=0 note=77 velocity=0 time=20
note_on channel=0 note=73 velocity=0 time=0
note_on channel=0 note=56 velocity=38 time=0
note_on channel=0 note=56 velocity=0 time=220
<meta message set_tempo tempo=324324 time=20>
note_on channel=0 note=56 velocity=37 time=0
note_on channel=0 note=56 velocity=0 time=220
note_on channel=0 note=89 velocity=56 time=20
note_on channel=0 note=85 velocity=56 time=0
note_on channel=0 note=56 velocity=37 time=0
note_on channel=0 note=56 velocity=0 time=220
note_on channel=0 note=85 velocity=0 time=15
note_on channel=0 note=89 velocity=0 time=0
note_on channel=0 note=49 velocity=44 time=5
note_on channel=0 note=53 velocity=48 time=0
<meta message set_tempo tempo=328767 time=240>
note_on channel=0 note=53 velocity=0 time=0
note_on channel=0 note=49 velocity=0 time=0
note_on channel=0 note=56 velocity=37 time=0
note_on channel=0 note=56 velocity=0 time=220
note_on channel=0 note=56 velocity=37 time=20
<meta message set_tempo tempo=406780 time=120>
note_on channel=0 note=65 velocity=52 time=0
note_on channel=0 note=61 velocity=52 time=0
note_on channel=0 note=56 velocity=0 time=100
<meta message set_tempo tempo=327869 time=20>
note_on channel=0 note=61 velocity=0 time=0
note_on channel=0 note=65 velocity=0 time=0
note_on channel=0 note=61 velocity=61 time=0
note_on channel=0 note=65 velocity=61 time=0
note_on channel=0 note=70 velocity=61 time=0
<meta message set_tempo tempo=325203 time=240>
note_on channel=0 note=56 velocity=38 time=0
note_on channel=0 note=56 velocity=0 time=220
note_on channel=0 note=56 velocity=38 time=20
note_on channel=0 note=56 velocity=0 time=220
<meta message set_tempo tempo=327869 time=20>
note_on channel=0 note=53 velocity=40 time=0
note_on channel=0 note=49 velocity=40 time=0
note_on channel=0 note=49 velocity=0 time=240
note_on channel=0 note=53 velocity=0 time=0
note_on channel=0 note=56 velocity=37 time=0
note_on channel=0 note=56 velocity=0 time=220
note_on channel=0 note=56 velocity=37 time=20
note_on channel=0 note=56 velocity=0 time=220
<meta message set_tempo tempo=327869 time=20>
note_on channel=0 note=49 velocity=37 time=0
note_on channel=0 note=53 velocity=37 time=0
note_on channel=0 note=53 velocity=0 time=240
note_on channel=0 note=49 velocity=0 time=0
note_on channel=0 note=56 velocity=37 time=0
note_on channel=0 note=56 velocity=0 time=220
note_on channel=0 note=56 velocity=37 time=20
note_on channel=0 note=56 velocity=0 time=220
<meta message set_tempo tempo=327869 time=20>
note_on channel=0 note=49 velocity=36 time=0
note_on channel=0 note=53 velocity=36 time=0
note_on channel=0 note=53 velocity=0 time=240
note_on channel=0 note=49 velocity=0 time=0
note_on channel=0 note=56 velocity=37 time=0
note_on channel=0 note=56 velocity=0 time=220
note_on channel=0 note=56 velocity=37 time=20
note_on channel=0 note=56 velocity=0 time=220
note_on channel=0 note=61 velocity=0 time=20
note_on channel=0 note=65 velocity=0 time=0
note_on channel=0 note=70 velocity=0 time=0
note_on channel=0 note=60 velocity=56 time=0
note_on channel=0 note=63 velocity=56 time=0
note_on channel=0 note=68 velocity=56 time=0
<meta message set_tempo tempo=325203 time=240>
note_on channel=0 note=56 velocity=38 time=0
note_on channel=0 note=56 velocity=0 time=220
note_on channel=0 note=60 velocity=0 time=20
note_on channel=0 note=63 velocity=0 time=0
note_on channel=0 note=68 velocity=0 time=0
note_on channel=0 note=56 velocity=38 time=0
note_on channel=0 note=56 velocity=0 time=220
<meta message set_tempo tempo=327869 time=20>
note_on channel=0 note=51 velocity=40 time=0
note_on channel=0 note=48 velocity=40 time=0
note_on channel=0 note=48 velocity=0 time=240
note_on channel=0 note=51 velocity=0 time=0
note_on channel=0 note=56 velocity=37 time=0
note_on channel=0 note=56 velocity=0 time=220
note_on channel=0 note=56 velocity=37 time=20
note_on channel=0 note=56 velocity=0 time=220
<meta message set_tempo tempo=327869 time=20>
note_on channel=0 note=61 velocity=52 time=0
note_on channel=0 note=64 velocity=52 time=0
note_on channel=0 note=69 velocity=52 time=0
<meta message set_tempo tempo=325203 time=240>
note_on channel=0 note=56 velocity=37 time=0
note_on channel=0 note=56 velocity=0 time=220
note_on channel=0 note=56 velocity=37 time=20
note_on channel=0 note=56 velocity=0 time=220
<meta message set_tempo tempo=327869 time=20>
note_on channel=0 note=49 velocity=36 time=0
note_on channel=0 note=52 velocity=36 time=0
note_on channel=0 note=52 velocity=0 time=240
note_on channel=0 note=49 velocity=0 time=0
note_on channel=0 note=56 velocity=37 time=0
note_on channel=0 note=56 velocity=0 time=220
note_on channel=0 note=56 velocity=37 time=20
note_on channel=0 note=56 velocity=0 time=220
<meta message set_tempo tempo=327869 time=20>
note_on channel=0 note=61 velocity=0 time=0
note_on channel=0 note=64 velocity=0 time=0
note_on channel=0 note=69 velocity=0 time=0
note_on channel=0 note=60 velocity=57 time=0
note_on channel=0 note=68 velocity=57 time=0
note_on channel=0 note=63 velocity=57 time=0
<meta message set_tempo tempo=325203 time=240>
note_on channel=0 note=56 velocity=38 time=0
note_on channel=0 note=56 velocity=0 time=220
note_on channel=0 note=60 velocity=0 time=20
note_on channel=0 note=68 velocity=0 time=0
note_on channel=0 note=63 velocity=0 time=0
note_on channel=0 note=56 velocity=38 time=0
note_on channel=0 note=56 velocity=0 time=220
<meta message set_tempo tempo=327869 time=20>
note_on channel=0 note=51 velocity=40 time=0
note_on channel=0 note=48 velocity=40 time=0
note_on channel=0 note=48 velocity=0 time=240
note_on channel=0 note=51 velocity=0 time=0
note_on channel=0 note=56 velocity=37 time=0
note_on channel=0 note=56 velocity=0 time=220
note_on channel=0 note=56 velocity=37 time=20
note_on channel=0 note=56 velocity=0 time=220
<meta message set_tempo tempo=327869 time=20>
note_on channel=0 note=73 velocity=58 time=0
note_on channel=0 note=81 velocity=58 time=0
note_on channel=0 note=76 velocity=58 time=0
<meta message set_tempo tempo=325203 time=240>
note_on channel=0 note=56 velocity=37 time=0
note_on channel=0 note=56 velocity=0 time=220
note_on channel=0 note=56 velocity=37 time=20
note_on channel=0 note=56 velocity=0 time=220
<meta message set_tempo tempo=327869 time=20>
note_on channel=0 note=49 velocity=36 time=0
note_on channel=0 note=52 velocity=36 time=0
note_on channel=0 note=52 velocity=0 time=240
note_on channel=0 note=49 velocity=0 time=0
note_on channel=0 note=56 velocity=37 time=0
note_on channel=0 note=56 velocity=0 time=220
note_on channel=0 note=56 velocity=37 time=20
note_on channel=0 note=56 velocity=0 time=220
note_on channel=0 note=73 velocity=0 time=20
note_on channel=0 note=81 velocity=0 time=0
note_on channel=0 note=76 velocity=0 time=0
note_on channel=0 note=75 velocity=56 time=0
note_on channel=0 note=80 velocity=56 time=0
note_on channel=0 note=72 velocity=56 time=0
<meta message set_tempo tempo=328767 time=240>
note_on channel=0 note=56 velocity=37 time=0
note_on channel=0 note=56 velocity=0 time=220
note_on channel=0 note=75 velocity=0 time=20
note_on channel=0 note=80 velocity=0 time=0
note_on channel=0 note=72 velocity=0 time=0
note_on channel=0 note=56 velocity=36 time=0
note_on channel=0 note=56 velocity=0 time=220
<meta message set_tempo tempo=333333 time=20>
note_on channel=0 note=51 velocity=38 time=0
note_on channel=0 note=48 velocity=38 time=0
note_on channel=0 note=48 velocity=0 time=240
note_on channel=0 note=51 velocity=0 time=0
note_on channel=0 note=56 velocity=34 time=0
note_on channel=0 note=56 velocity=0 time=220
note_on channel=0 note=56 velocity=34 time=20
note_on channel=0 note=56 velocity=0 time=220
<meta message set_tempo tempo=335196 time=20>
note_on channel=0 note=62 velocity=46 time=0
note_on channel=0 note=59 velocity=46 time=0
note_on channel=0 note=68 velocity=46 time=0
<meta message set_tempo tempo=329670 time=240>
note_on channel=0 note=56 velocity=32 time=0
note_on channel=0 note=56 velocity=0 time=220
note_on channel=0 note=62 velocity=0 time=20
note_on channel=0 note=59 velocity=0 time=0
note_on channel=0 note=68 velocity=0 time=0
note_on channel=0 note=56 velocity=32 time=0
note_on channel=0 note=56 velocity=0 time=220
note_on channel=0 note=47 velocity=30 time=20
note_on channel=0 note=50 velocity=30 time=0
note_on channel=0 note=50 velocity=0 time=240
note_on channel=0 note=47 velocity=0 time=0
note_on channel=0 note=56 velocity=31 time=0
note_on channel=0 note=56 velocity=0 time=220
<meta message set_tempo tempo=345821 time=20>
note_on channel=0 note=56 velocity=30 time=0
note_on channel=0 note=56 velocity=0 time=220
<meta message set_tempo tempo=330579 time=20>
note_on channel=0 note=61 velocity=44 time=0
note_on channel=0 note=58 velocity=44 time=0
note_on channel=0 note=67 velocity=44 time=0
<meta message set_tempo tempo=334262 time=240>
note_on channel=0 note=56 velocity=31 time=0
note_on channel=0 note=56 velocity=0 time=220
note_on channel=0 note=61 velocity=0 time=20
note_on channel=0 note=58 velocity=0 time=0
note_on channel=0 note=67 velocity=0 time=0
note_on channel=0 note=56 velocity=30 time=0
note_on channel=0 note=56 velocity=0 time=220
<meta message set_tempo tempo=333333 time=20>
note_on channel=0 note=49 velocity=32 time=0
note_on channel=0 note=46 velocity=32 time=0
note_on channel=0 note=46 velocity=0 time=240
note_on channel=0 note=49 velocity=0 time=0
note_on channel=0 note=56 velocity=28 time=0
note_on channel=0 note=56 velocity=0 time=220
<meta message set_tempo tempo=342857 time=20>
note_on channel=0 note=56 velocity=28 time=0
note_on channel=0 note=56 velocity=0 time=220
<meta message set_tempo tempo=338028 time=20>
note_on channel=0 note=57 velocity=39 time=0
note_on channel=0 note=60 velocity=39 time=0
note_on channel=0 note=66 velocity=39 time=0
<meta message set_tempo tempo=335196 time=240>
note_on channel=0 note=56 velocity=27 time=0
<meta message set_tempo tempo=333333 time=40>
<meta message set_tempo tempo=334262 time=160>
note_on channel=0 note=56 velocity=0 time=20
note_on channel=0 note=57 velocity=0 time=20
note_on channel=0 note=60 velocity=0 time=0
note_on channel=0 note=66 velocity=0 time=0
note_on channel=0 note=56 velocity=27 time=0
<meta message set_tempo tempo=335196 time=80>
<meta message set_tempo tempo=336134 time=120>
note_on channel=0 note=56 velocity=0 time=20
note_on channel=0 note=48 velocity=25 time=20
note_on channel=0 note=45 velocity=25 time=0
<meta message set_tempo tempo=337079 time=80>
<meta message set_tempo tempo=338028 time=120>
note_on channel=0 note=45 velocity=0 time=40
note_on channel=0 note=48 velocity=0 time=0
note_on channel=0 note=56 velocity=26 time=0
<meta message set_tempo tempo=338983 time=80>
<meta message set_tempo tempo=339943 time=120>
note_on channel=0 note=56 velocity=0 time=20
<meta message set_tempo tempo=345821 time=20>
note_on channel=0 note=56 velocity=25 time=0
note_on channel=0 note=56 velocity=0 time=220
<meta message set_tempo tempo=350877 time=20>
note_on channel=0 note=66 velocity=47 time=0
note_on channel=0 note=60 velocity=47 time=0
note_on channel=0 note=56 velocity=47 time=0
<meta message set_tempo tempo=343840 time=240>
note_on channel=0 note=44 velocity=44 time=0
<meta message set_tempo tempo=342857 time=40>
note_on channel=0 note=56 velocity=0 time=200
note_on channel=0 note=66 velocity=0 time=0
note_on channel=0 note=60 velocity=0 time=0
note_on channel=0 note=43 velocity=39 time=0
<meta message set_tempo tempo=341880 time=200>
note_on channel=0 note=43 velocity=0 time=40
note_on channel=0 note=44 velocity=0 time=0
note_on channel=0 note=44 velocity=44 time=0
note_on channel=0 note=46 velocity=41 time=240
<meta message set_tempo tempo=340909 time=80>
note_on channel=0 note=46 velocity=0 time=160
note_on channel=0 note=44 velocity=0 time=0
note_on channel=0 note=44 velocity=45 time=0
<meta message set_tempo tempo=339943 time=200>
<meta message set_tempo tempo=337079 time=40>
note_on channel=0 note=75 velocity=67 time=0
note_on channel=0 note=42 velocity=41 time=0
<meta message set_tempo tempo=330579 time=240>
note_on channel=0 note=42 velocity=0 time=0
note_on channel=0 note=75 velocity=0 time=0
note_on channel=0 note=44 velocity=0 time=0
note_on channel=0 note=77 velocity=61 time=0
note_on channel=0 note=44 velocity=41 time=0
note_on channel=0 note=77 velocity=0 time=240
note_on channel=0 note=75 velocity=59 time=0
note_on channel=0 note=42 velocity=48 time=0
<meta message set_tempo tempo=337079 time=240>
note_on channel=0 note=42 velocity=0 time=0
note_on channel=0 note=75 velocity=0 time=0
note_on channel=0 note=73 velocity=69 time=0
note_on channel=0 note=41 velocity=42 time=0
<meta message set_tempo tempo=330579 time=240>
note_on channel=0 note=41 velocity=0 time=0
note_on channel=0 note=73 velocity=0 time=0
note_on channel=0 note=75 velocity=66 time=0
note_on channel=0 note=42 velocity=42 time=0
note_on channel=0 note=42 velocity=0 time=240
note_on channel=0 note=75 velocity=0 time=0
note_on channel=0 note=73 velocity=64 time=0
note_on channel=0 note=41 velocity=47 time=0
<meta message set_tempo tempo=348837 time=240>
note_on channel=0 note=41 velocity=0 time=0
note_on channel=0 note=73 velocity=0 time=0
note_on channel=0 note=44 velocity=0 time=0
note_on channel=0 note=72 velocity=70 time=0
note_on channel=0 note=39 velocity=55 time=0
<meta message set_tempo tempo=339943 time=240>
note_on channel=0 note=39 velocity=0 time=0
note_on channel=0 note=72 velocity=0 time=0
note_on channel=0 note=78 velocity=66 time=0
note_on channel=0 note=44 velocity=48 time=0
note_on channel=0 note=78 velocity=0 time=240
note_on channel=0 note=43 velocity=42 time=0
note_on channel=0 note=43 velocity=0 time=240
note_on channel=0 note=44 velocity=0 time=0
note_on channel=0 note=44 velocity=48 time=0
note_on channel=0 note=46 velocity=45 time=240
note_on channel=0 note=46 velocity=0 time=240
note_on channel=0 note=44 velocity=0 time=0
note_on channel=0 note=44 velocity=49 time=0
<meta message set_tempo tempo=334262 time=240>
note_on channel=0 note=78 velocity=73 time=0
note_on channel=0 note=39 velocity=46 time=0
<meta message set_tempo tempo=329670 time=240>
note_on channel=0 note=39 velocity=0 time=0
note_on channel=0 note=78 velocity=0 time=0
note_on channel=0 note=80 velocity=70 time=0
note_on channel=0 note=41 velocity=46 time=0
note_on channel=0 note=41 velocity=0 time=240
note_on channel=0 note=80 velocity=0 time=0
note_on channel=0 note=78 velocity=70 time=0
note_on channel=0 note=39 velocity=50 time=0
<meta message set_tempo tempo=334262 time=240>
note_on channel=0 note=39 velocity=0 time=0
note_on channel=0 note=78 velocity=0 time=0
note_on channel=0 note=77 velocity=74 time=0
note_on channel=0 note=37 velocity=47 time=0
<meta message set_tempo tempo=329670 time=240>
note_on channel=0 note=37 velocity=0 time=0
note_on channel=0 note=77 velocity=0 time=0
note_on channel=0 note=78 velocity=71 time=0
note_on channel=0 note=39 velocity=47 time=0
note_on channel=0 note=39 velocity=0 time=240
note_on channel=0 note=78 velocity=0 time=0
note_on channel=0 note=77 velocity=68 time=0
note_on channel=0 note=37 velocity=51 time=0
<meta message set_tempo tempo=344828 time=240>
note_on channel=0 note=37 velocity=0 time=0
note_on channel=0 note=77 velocity=0 time=0
note_on channel=0 note=44 velocity=0 time=0
note_on channel=0 note=75 velocity=81 time=0
note_on channel=0 note=36 velocity=57 time=0
<meta message set_tempo tempo=338028 time=240>
note_on channel=0 note=36 velocity=0 time=0
note_on channel=0 note=75 velocity=0 time=0
note_on channel=0 note=87 velocity=72 time=0
note_on channel=0 note=44 velocity=52 time=0
note_on channel=0 note=87 velocity=0 time=240
note_on channel=0 note=43 velocity=47 time=0
note_on channel=0 note=43 velocity=0 time=240
note_on channel=0 note=44 velocity=0 time=0
note_on channel=0 note=44 velocity=52 time=0
note_on channel=0 note=46 velocity=49 time=240
note_on channel=0 note=46 velocity=0 time=240
note_on channel=0 note=44 velocity=0 time=0
note_on channel=0 note=44 velocity=53 time=0
<meta message set_tempo tempo=334262 time=240>
note_on channel=0 note=87 velocity=83 time=0
note_on channel=0 note=36 velocity=50 time=0
note_on channel=0 note=36 velocity=0 time=240
note_on channel=0 note=87 velocity=0 time=0
note_on channel=0 note=89 velocity=77 time=0
note_on channel=0 note=37 velocity=50 time=0
note_on channel=0 note=37 velocity=0 time=240
note_on channel=0 note=89 velocity=0 time=0
note_on channel=0 note=87 velocity=73 time=0
note_on channel=0 note=36 velocity=54 time=0
note_on channel=0 note=36 velocity=0 time=240
note_on channel=0 note=87 velocity=0 time=0
note_on channel=0 note=85 velocity=77 time=0
note_on channel=0 note=34 velocity=50 time=0
note_on channel=0 note=34 velocity=0 time=240
note_on channel=0 note=85 velocity=0 time=0
note_on channel=0 note=87 velocity=75 time=0
note_on channel=0 note=36 velocity=51 time=0
<meta message set_tempo tempo=342857 time=240>
note_on channel=0 note=36 velocity=0 time=0
note_on channel=0 note=87 velocity=0 time=0
note_on channel=0 note=85 velocity=73 time=0
note_on channel=0 note=34 velocity=51 time=0
<meta message set_tempo tempo=339943 time=240>
note_on channel=0 note=34 velocity=0 time=0
note_on channel=0 note=85 velocity=0 time=0
note_on channel=0 note=44 velocity=0 time=0
note_on channel=0 note=84 velocity=76 time=0
note_on channel=0 note=32 velocity=55 time=0
<meta message set_tempo tempo=336134 time=240>
note_on channel=0 note=32 velocity=0 time=0
note_on channel=0 note=84 velocity=0 time=0
note_on channel=0 note=85 velocity=75 time=0
note_on channel=0 note=31 velocity=49 time=0
note_on channel=0 note=31 velocity=0 time=240
note_on channel=0 note=85 velocity=0 time=0
note_on channel=0 note=84 velocity=72 time=0
note_on channel=0 note=32 velocity=49 time=0
note_on channel=0 note=32 velocity=0 time=240
note_on channel=0 note=84 velocity=0 time=0
note_on channel=0 note=82 velocity=76 time=0
note_on channel=0 note=34 velocity=53 time=0
note_on channel=0 note=34 velocity=0 time=240
note_on channel=0 note=82 velocity=0 time=0
note_on channel=0 note=84 velocity=73 time=0
note_on channel=0 note=32 velocity=46 time=0
<meta message set_tempo tempo=330579 time=240>
note_on channel=0 note=32 velocity=0 time=0
note_on channel=0 note=84 velocity=0 time=0
note_on channel=0 note=82 velocity=69 time=0
note_on channel=0 note=34 velocity=45 time=0
<meta message set_tempo tempo=336134 time=200>
note_on channel=0 note=34 velocity=0 time=40
note_on channel=0 note=82 velocity=0 time=0
note_on channel=0 note=80 velocity=74 time=0
note_on channel=0 note=35 velocity=50 time=0
<meta message set_tempo tempo=337079 time=80>
<meta message set_tempo tempo=338028 time=120>
note_on channel=0 note=35 velocity=0 time=40
note_on channel=0 note=80 velocity=0 time=0
note_on channel=0 note=82 velocity=70 time=0
note_on channel=0 note=34 velocity=44 time=0
<meta message set_tempo tempo=338983 time=80>
<meta message set_tempo tempo=339943 time=120>
note_on channel=0 note=34 velocity=0 time=40
note_on channel=0 note=82 velocity=0 time=0
note_on channel=0 note=80 velocity=67 time=0
note_on channel=0 note=35 velocity=42 time=0
<meta message set_tempo tempo=340909 time=80>
<meta message set_tempo tempo=341880 time=120>
note_on channel=0 note=35 velocity=0 time=40
note_on channel=0 note=80 velocity=0 time=0
note_on channel=0 note=78 velocity=72 time=0
note_on channel=0 note=36 velocity=47 time=0
<meta message set_tempo tempo=342857 time=80>
<meta message set_tempo tempo=343840 time=120>
note_on channel=0 note=36 velocity=0 time=40
note_on channel=0 note=78 velocity=0 time=0
note_on channel=0 note=80 velocity=66 time=0
note_on channel=0 note=35 velocity=40 time=0
<meta message set_tempo tempo=344828 time=80>
<meta message set_tempo tempo=345821 time=120>
note_on channel=0 note=35 velocity=0 time=40
note_on channel=0 note=80 velocity=0 time=0
note_on channel=0 note=78 velocity=63 time=0
note_on channel=0 note=36 velocity=40 time=0
<meta message set_tempo tempo=346821 time=80>
<meta message set_tempo tempo=347826 time=80>
<meta message set_tempo tempo=381874 time=80>
note_on channel=0 note=36 velocity=0 time=0
note_on channel=0 note=78 velocity=0 time=0
note_on channel=0 note=77 velocity=73 time=0
note_on channel=0 note=37 velocity=36 time=0
control_change channel=0 control=64 value=127 time=141
<meta message set_tempo tempo=363218 time=99>
note_on channel=0 note=37 velocity=0 time=0
note_on channel=0 note=49 velocity=32 time=0
note_on channel=0 note=41 velocity=26 time=0
note_on channel=0 note=44 velocity=26 time=0
note_on channel=0 note=44 velocity=0 time=240
note_on channel=0 note=77 velocity=0 time=0
note_on channel=0 note=49 velocity=0 time=0
note_on channel=0 note=41 velocity=0 time=0
note_on channel=0 note=37 velocity=33 time=0
note_on channel=0 note=37 velocity=0 time=240
note_on channel=0 note=49 velocity=36 time=0
note_on channel=0 note=41 velocity=28 time=0
note_on channel=0 note=44 velocity=28 time=0
note_on channel=0 note=44 velocity=0 time=240
note_on channel=0 note=41 velocity=0 time=0
note_on channel=0 note=49 velocity=0 time=0
note_on channel=0 note=37 velocity=33 time=0
note_on channel=0 note=37 velocity=0 time=240
note_on channel=0 note=49 velocity=33 time=0
note_on channel=0 note=44 velocity=26 time=0
note_on channel=0 note=41 velocity=26 time=0
note_on channel=0 note=41 velocity=0 time=240
note_on channel=0 note=44 velocity=0 time=0
note_on channel=0 note=49 velocity=0 time=0
note_on channel=0 note=37 velocity=36 time=0
control_change channel=0 control=64 value=0 time=21
control_change channel=0 control=64 value=127 time=71
note_on channel=0 note=37 velocity=0 time=148
note_on channel=0 note=49 velocity=33 time=0
note_on channel=0 note=41 velocity=26 time=0
note_on channel=0 note=44 velocity=26 time=0
note_on channel=0 note=44 velocity=0 time=240
note_on channel=0 note=41 velocity=0 time=0
note_on channel=0 note=49 velocity=0 time=0
note_on channel=0 note=37 velocity=33 time=0
note_on channel=0 note=37 velocity=0 time=240
note_on channel=0 note=65 velocity=55 time=0
note_on channel=0 note=53 velocity=44 time=0
note_on channel=0 note=44 velocity=28 time=0
note_on channel=0 note=41 velocity=28 time=0
note_on channel=0 note=49 velocity=36 time=0
<meta message set_tempo tempo=381874 time=240>
note_on channel=0 note=49 velocity=0 time=0
note_on channel=0 note=44 velocity=0 time=0
note_on channel=0 note=41 velocity=0 time=0
note_on channel=0 note=37 velocity=33 time=0
note_on channel=0 note=37 velocity=0 time=240
note_on channel=0 note=49 velocity=35 time=0
note_on channel=0 note=41 velocity=27 time=0
note_on channel=0 note=44 velocity=27 time=0
<meta message set_tempo tempo=484301 time=120>
note_on channel=0 note=53 velocity=0 time=0
note_on channel=0 note=65 velocity=0 time=0
note_on channel=0 note=68 velocity=49 time=0
note_on channel=0 note=56 velocity=39 time=0
<meta message set_tempo tempo=339501 time=120>
note_on channel=0 note=56 velocity=0 time=0
note_on channel=0 note=41 velocity=0 time=0
note_on channel=0 note=44 velocity=0 time=0
note_on channel=0 note=49 velocity=0 time=0
note_on channel=0 note=68 velocity=0 time=0
note_on channel=0 note=73 velocity=53 time=0
note_on channel=0 note=61 velocity=49 time=0
note_on channel=0 note=37 velocity=36 time=0
control_change channel=0 control=64 value=0 time=12
<meta message set_tempo tempo=343466 time=28>
control_change channel=0 control=64 value=127 time=64
note_on channel=0 note=37 velocity=0 time=136
note_on channel=0 note=49 velocity=32 time=0
note_on channel=0 note=44 velocity=26 time=0
note_on channel=0 note=41 velocity=26 time=0
note_on channel=0 note=41 velocity=0 time=240
note_on channel=0 note=49 velocity=0 time=0
note_on channel=0 note=44 velocity=0 time=0
note_on channel=0 note=37 velocity=33 time=0
<meta message set_tempo tempo=360101 time=240>
note_on channel=0 note=37 velocity=0 time=0
note_on channel=0 note=61 velocity=0 time=0
note_on channel=0 note=73 velocity=0 time=0
note_on channel=0 note=77 velocity=57 time=0
note_on channel=0 note=65 velocity=52 time=0
note_on channel=0 note=49 velocity=36 time=0
note_on channel=0 note=44 velocity=28 time=0
note_on channel=0 note=41 velocity=28 time=0
<meta message set_tempo tempo=367444 time=240>
note_on channel=0 note=41 velocity=0 time=0
note_on channel=0 note=49 velocity=0 time=0
note_on channel=0 note=44 velocity=0 time=0
note_on channel=0 note=37 velocity=33 time=0
note_on channel=0 note=37 velocity=0 time=240
note_on channel=0 note=41 velocity=26 time=0
note_on channel=0 note=49 velocity=33 time=0
note_on channel=0 note=44 velocity=26 time=0
<meta message set_tempo tempo=419933 time=120>
note_on channel=0 note=65 velocity=0 time=0
note_on channel=0 note=77 velocity=0 time=0
note_on channel=0 note=73 velocity=50 time=0
note_on channel=0 note=61 velocity=46 time=0
note_on channel=0 note=61 velocity=0 time=120
note_on channel=0 note=49 velocity=0 time=0
note_on channel=0 note=44 velocity=0 time=0
note_on channel=0 note=41 velocity=0 time=0
note_on channel=0 note=73 velocity=0 time=0
note_on channel=0 note=72 velocity=53 time=0
note_on channel=0 note=60 velocity=49 time=0
note_on channel=0 note=39 velocity=36 time=0
control_change channel=0 control=64 value=0 time=15
<meta message set_tempo tempo=350120 time=25>
control_change channel=0 control=64 value=127 time=135
note_on channel=0 note=39 velocity=0 time=65
note_on channel=0 note=51 velocity=33 time=0
note_on channel=0 note=42 velocity=26 time=0
note_on channel=0 note=44 velocity=26 time=0
note_on channel=0 note=44 velocity=0 time=240
note_on channel=0 note=51 velocity=0 time=0
note_on channel=0 note=42 velocity=0 time=0
note_on channel=0 note=39 velocity=33 time=0
<meta message set_tempo tempo=357058 time=240>
note_on channel=0 note=39 velocity=0 time=0
note_on channel=0 note=60 velocity=0 time=0
note_on channel=0 note=72 velocity=0 time=0
note_on channel=0 note=63 velocity=52 time=0
note_on channel=0 note=75 velocity=57 time=0
note_on channel=0 note=44 velocity=28 time=0
note_on channel=0 note=42 velocity=28 time=0
note_on channel=0 note=51 velocity=36 time=0
<meta message set_tempo tempo=375117 time=240>
note_on channel=0 note=51 velocity=0 time=0
note_on channel=0 note=44 velocity=0 time=0
note_on channel=0 note=42 velocity=0 time=0
note_on channel=0 note=39 velocity=33 time=0
note_on channel=0 note=39 velocity=0 time=240
note_on channel=0 note=42 velocity=27 time=0
note_on channel=0 note=44 velocity=27 time=0
note_on channel=0 note=51 velocity=35 time=0
<meta message set_tempo tempo=451433 time=120>
note_on channel=0 note=75 velocity=0 time=0
note_on channel=0 note=63 velocity=0 time=0
note_on channel=0 note=60 velocity=46 time=0
note_on channel=0 note=72 velocity=50 time=0
<meta message set_tempo tempo=343466 time=120>
note_on channel=0 note=72 velocity=0 time=0
note_on channel=0 note=44 velocity=0 time=0
note_on channel=0 note=51 velocity=0 time=0
note_on channel=0 note=42 velocity=0 time=0
note_on channel=0 note=60 velocity=0 time=0
note_on channel=0 note=73 velocity=53 time=0
note_on channel=0 note=61 velocity=49 time=0
note_on channel=0 note=41 velocity=36 time=0
control_change channel=0 control=64 value=0 time=8
control_change channel=0 control=64 value=127 time=67
note_on channel=0 note=41 velocity=0 time=165
note_on channel=0 note=44 velocity=26 time=0
note_on channel=0 note=53 velocity=32 time=0
note_on channel=0 note=49 velocity=26 time=0
note_on channel=0 note=49 velocity=0 time=240
note_on channel=0 note=44 velocity=0 time=0
note_on channel=0 note=53 velocity=0 time=0
note_on channel=0 note=41 velocity=33 time=0
<meta message set_tempo tempo=353066 time=240>
note_on channel=0 note=41 velocity=0 time=0
note_on channel=0 note=61 velocity=0 time=0
note_on channel=0 note=73 velocity=0 time=0
note_on channel=0 note=56 velocity=52 time=0
note_on channel=0 note=68 velocity=52 time=0
note_on channel=0 note=53 velocity=36 time=0
note_on channel=0 note=49 velocity=28 time=0
note_on channel=0 note=44 velocity=28 time=0
note_on channel=0 note=44 velocity=0 time=240
note_on channel=0 note=53 velocity=0 time=0
note_on channel=0 note=49 velocity=0 time=0
note_on channel=0 note=41 velocity=33 time=0
note_on channel=0 note=41 velocity=0 time=240
note_on channel=0 note=44 velocity=26 time=0
note_on channel=0 note=53 velocity=33 time=0
note_on channel=0 note=49 velocity=26 time=0
note_on channel=0 note=49 velocity=0 time=240
note_on channel=0 note=44 velocity=0 time=0
note_on channel=0 note=53 velocity=0 time=0
note_on channel=0 note=41 velocity=36 time=0
note_on channel=0 note=41 velocity=0 time=240
note_on channel=0 note=53 velocity=33 time=0
note_on channel=0 note=44 velocity=26 time=0
note_on channel=0 note=49 velocity=26 time=0
note_on channel=0 note=49 velocity=0 time=240
note_on channel=0 note=53 velocity=0 time=0
note_on channel=0 note=44 velocity=0 time=0
note_on channel=0 note=41 velocity=33 time=0
note_on channel=0 note=41 velocity=0 time=240
note_on channel=0 note=68 velocity=0 time=0
note_on channel=0 note=56 velocity=0 time=0
note_on channel=0 note=58 velocity=52 time=0
note_on channel=0 note=70 velocity=57 time=0
note_on channel=0 note=49 velocity=28 time=0
note_on channel=0 note=54 velocity=36 time=0
note_on channel=0 note=51 velocity=28 time=0
control_change channel=0 control=64 value=0 time=19
control_change channel=0 control=64 value=127 time=90
<meta message set_tempo tempo=375117 time=131>
note_on channel=0 note=51 velocity=0 time=0
note_on channel=0 note=49 velocity=0 time=0
note_on channel=0 note=54 velocity=0 time=0
note_on channel=0 note=42 velocity=33 time=0
note_on channel=0 note=42 velocity=0 time=240
note_on channel=0 note=49 velocity=27 time=0
note_on channel=0 note=54 velocity=35 time=0
note_on channel=0 note=51 velocity=27 time=0
<meta message set_tempo tempo=449809 time=120>
note_on channel=0 note=70 velocity=0 time=0
note_on channel=0 note=58 velocity=0 time=0
note_on channel=0 note=66 velocity=53 time=0
<meta message set_tempo tempo=342544 time=120>
note_on channel=0 note=66 velocity=0 time=0
note_on channel=0 note=51 velocity=0 time=0
note_on channel=0 note=49 velocity=0 time=0
note_on channel=0 note=54 velocity=0 time=0
note_on channel=0 note=65 velocity=59 time=0
note_on channel=0 note=44 velocity=37 time=0
control_change channel=0 control=64 value=0 time=10
control_change channel=0 control=64 value=127 time=96
note_on channel=0 note=44 velocity=0 time=134
note_on channel=0 note=49 velocity=27 time=0
note_on channel=0 note=56 velocity=33 time=0
note_on channel=0 note=53 velocity=27 time=0
note_on channel=0 note=53 velocity=0 time=240
note_on channel=0 note=56 velocity=0 time=0
note_on channel=0 note=49 velocity=0 time=0
note_on channel=0 note=44 velocity=34 time=0
<meta message set_tempo tempo=361141 time=240>
note_on channel=0 note=44 velocity=0 time=0
note_on channel=0 note=65 velocity=0 time=0
note_on channel=0 note=68 velocity=61 time=0
note_on channel=0 note=49 velocity=30 time=0
note_on channel=0 note=56 velocity=38 time=0
note_on channel=0 note=53 velocity=30 time=0
<meta message set_tempo tempo=368505 time=240>
note_on channel=0 note=53 velocity=0 time=0
note_on channel=0 note=56 velocity=0 time=0
note_on channel=0 note=49 velocity=0 time=0
note_on channel=0 note=44 velocity=34 time=0
note_on channel=0 note=44 velocity=0 time=240
note_on channel=0 note=49 velocity=28 time=0
note_on channel=0 note=56 velocity=35 time=0
note_on channel=0 note=53 velocity=28 time=0
<meta message set_tempo tempo=419933 time=120>
note_on channel=0 note=68 velocity=0 time=0
note_on channel=0 note=65 velocity=55 time=0
note_on channel=0 note=65 velocity=0 time=120
note_on channel=0 note=53 velocity=0 time=0
note_on channel=0 note=56 velocity=0 time=0
note_on channel=0 note=49 velocity=0 time=0
note_on channel=0 note=63 velocity=63 time=0
note_on channel=0 note=44 velocity=40 time=0
control_change channel=0 control=64 value=0 time=14
<meta message set_tempo tempo=350120 time=26>
control_change channel=0 control=64 value=127 time=73
note_on channel=0 note=44 velocity=0 time=127
note_on channel=0 note=48 velocity=29 time=0
note_on channel=0 note=56 velocity=36 time=0
note_on channel=0 note=51 velocity=29 time=0
note_on channel=0 note=51 velocity=0 time=240
note_on channel=0 note=56 velocity=0 time=0
note_on channel=0 note=48 velocity=0 time=0
note_on channel=0 note=44 velocity=36 time=0
<meta message set_tempo tempo=357058 time=240>
note_on channel=0 note=44 velocity=0 time=0
note_on channel=0 note=63 velocity=0 time=0
note_on channel=0 note=66 velocity=66 time=0
note_on channel=0 note=48 velocity=32 time=0
note_on channel=0 note=56 velocity=41 time=0
note_on channel=0 note=51 velocity=32 time=0
<meta message set_tempo tempo=384197 time=240>
note_on channel=0 note=51 velocity=0 time=0
note_on channel=0 note=56 velocity=0 time=0
note_on channel=0 note=48 velocity=0 time=0
note_on channel=0 note=44 velocity=37 time=0
note_on channel=0 note=44 velocity=0 time=240
note_on channel=0 note=48 velocity=30 time=0
note_on channel=0 note=56 velocity=37 time=0
note_on channel=0 note=51 velocity=30 time=0
<meta message set_tempo tempo=471624 time=120>
note_on channel=0 note=66 velocity=0 time=0
note_on channel=0 note=63 velocity=59 time=0
<meta message set_tempo tempo=367444 time=120>
note_on channel=0 note=63 velocity=0 time=0
note_on channel=0 note=51 velocity=0 time=0
note_on channel=0 note=56 velocity=0 time=0
note_on channel=0 note=48 velocity=0 time=0
note_on channel=0 note=60 velocity=72 time=0
note_on channel=0 note=45 velocity=51 time=0
control_change channel=0 control=64 value=0 time=0
control_change channel=0 control=64 value=127 time=78
control_change channel=0 control=64 value=127 time=7
note_on channel=0 note=45 velocity=0 time=155
note_on channel=0 note=48 velocity=33 time=0
note_on channel=0 note=53 velocity=33 time=0
note_on channel=0 note=57 velocity=41 time=0
note_on channel=0 note=57 velocity=0 time=240
note_on channel=0 note=53 velocity=0 time=0
note_on channel=0 note=48 velocity=0 time=0
note_on channel=0 note=45 velocity=45 time=0
<meta message set_tempo tempo=359088 time=240>
note_on channel=0 note=45 velocity=0 time=0
note_on channel=0 note=60 velocity=0 time=0
note_on channel=0 note=65 velocity=63 time=0
note_on channel=0 note=48 velocity=29 time=0
note_on channel=0 note=53 velocity=29 time=0
note_on channel=0 note=57 velocity=38 time=0
note_on channel=0 note=57 velocity=0 time=240
note_on channel=0 note=53 velocity=0 time=0
note_on channel=0 note=48 velocity=0 time=0
note_on channel=0 note=45 velocity=36 time=0
note_on channel=0 note=45 velocity=0 time=240
note_on channel=0 note=48 velocity=28 time=0
note_on channel=0 note=53 velocity=28 time=0
note_on channel=0 note=57 velocity=38 time=0
note_on channel=0 note=57 velocity=0 time=240
note_on channel=0 note=53 velocity=0 time=0
note_on channel=0 note=48 velocity=0 time=0
note_on channel=0 note=45 velocity=39 time=0
note_on channel=0 note=45 velocity=0 time=240
note_on channel=0 note=48 velocity=28 time=0
note_on channel=0 note=53 velocity=28 time=0
note_on channel=0 note=57 velocity=36 time=0
note_on channel=0 note=57 velocity=0 time=240
note_on channel=0 note=53 velocity=0 time=0
note_on channel=0 note=48 velocity=0 time=0
note_on channel=0 note=45 velocity=39 time=0
note_on channel=0 note=45 velocity=0 time=240
note_on channel=0 note=65 velocity=0 time=0
note_on channel=0 note=73 velocity=60 time=0
note_on channel=0 note=61 velocity=56 time=0
note_on channel=0 note=53 velocity=27 time=0
note_on channel=0 note=58 velocity=35 time=0
note_on channel=0 note=49 velocity=27 time=0
control_change channel=0 control=64 value=0 time=17
control_change channel=0 control=64 value=127 time=68
<meta message set_tempo tempo=375117 time=155>
note_on channel=0 note=49 velocity=0 time=0
note_on channel=0 note=53 velocity=0 time=0
note_on channel=0 note=58 velocity=0 time=0
note_on channel=0 note=46 velocity=33 time=0
note_on channel=0 note=46 velocity=0 time=240
note_on channel=0 note=49 velocity=27 time=0
note_on channel=0 note=53 velocity=27 time=0
note_on channel=0 note=58 velocity=34 time=0
<meta message set_tempo tempo=486145 time=120>
note_on channel=0 note=61 velocity=0 time=0
note_on channel=0 note=73 velocity=0 time=0
note_on channel=0 note=77 velocity=58 time=0
note_on channel=0 note=65 velocity=53 time=0
<meta message set_tempo tempo=354045 time=120>
note_on channel=0 note=65 velocity=0 time=0
note_on channel=0 note=53 velocity=0 time=0
note_on channel=0 note=58 velocity=0 time=0
note_on channel=0 note=49 velocity=0 time=0
note_on channel=0 note=77 velocity=0 time=0
note_on channel=0 note=82 velocity=60 time=0
note_on channel=0 note=70 velocity=51 time=0
note_on channel=0 note=46 velocity=37 time=0
control_change channel=0 control=64 value=0 time=10
control_change channel=0 control=64 value=127 time=110
note_on channel=0 note=46 velocity=0 time=120
note_on channel=0 note=49 velocity=27 time=0
note_on channel=0 note=53 velocity=27 time=0
note_on channel=0 note=58 velocity=34 time=0
note_on channel=0 note=58 velocity=0 time=240
note_on channel=0 note=49 velocity=0 time=0
note_on channel=0 note=53 velocity=0 time=0
note_on channel=0 note=46 velocity=36 time=0
<meta message set_tempo tempo=357590 time=240>
note_on channel=0 note=46 velocity=0 time=0
note_on channel=0 note=70 velocity=0 time=0
note_on channel=0 note=82 velocity=0 time=0
note_on channel=0 note=85 velocity=62 time=0
note_on channel=0 note=73 velocity=57 time=0
note_on channel=0 note=49 velocity=30 time=0
note_on channel=0 note=53 velocity=30 time=0
note_on channel=0 note=58 velocity=39 time=0
<meta message set_tempo tempo=363218 time=240>
note_on channel=0 note=58 velocity=0 time=0
note_on channel=0 note=49 velocity=0 time=0
note_on channel=0 note=53 velocity=0 time=0
note_on channel=0 note=46 velocity=37 time=0
note_on channel=0 note=46 velocity=0 time=240
note_on channel=0 note=53 velocity=29 time=0
note_on channel=0 note=58 velocity=38 time=0
note_on channel=0 note=49 velocity=29 time=0
<meta message set_tempo tempo=419933 time=120>
note_on channel=0 note=73 velocity=0 time=0
note_on channel=0 note=85 velocity=0 time=0
note_on channel=0 note=70 velocity=53 time=0
note_on channel=0 note=82 velocity=58 time=0
note_on channel=0 note=82 velocity=0 time=120
note_on channel=0 note=58 velocity=0 time=0
note_on channel=0 note=49 velocity=0 time=0
note_on channel=0 note=53 velocity=0 time=0
note_on channel=0 note=70 velocity=0 time=0
note_on channel=0 note=81 velocity=61 time=0
note_on channel=0 note=69 velocity=57 time=0
note_on channel=0 note=48 velocity=40 time=0
control_change channel=0 control=64 value=0 time=19
<meta message set_tempo tempo=350120 time=21>
control_change channel=0 control=64 value=127 time=130
note_on channel=0 note=48 velocity=0 time=70
note_on channel=0 note=51 velocity=29 time=0
note_on channel=0 note=53 velocity=29 time=0
note_on channel=0 note=60 velocity=38 time=0
note_on channel=0 note=60 velocity=0 time=240
note_on channel=0 note=51 velocity=0 time=0
note_on channel=0 note=53 velocity=0 time=0
note_on channel=0 note=48 velocity=39 time=0
<meta message set_tempo tempo=366367 time=240>
note_on channel=0 note=48 velocity=0 time=0
note_on channel=0 note=69 velocity=0 time=0
note_on channel=0 note=81 velocity=0 time=0
note_on channel=0 note=72 velocity=59 time=0
note_on channel=0 note=84 velocity=65 time=0
note_on channel=0 note=51 velocity=34 time=0
note_on channel=0 note=60 velocity=42 time=0
note_on channel=0 note=53 velocity=34 time=0
<meta message set_tempo tempo=375117 time=240>
note_on channel=0 note=53 velocity=0 time=0
note_on channel=0 note=51 velocity=0 time=0
note_on channel=0 note=60 velocity=0 time=0
note_on channel=0 note=48 velocity=40 time=0
note_on channel=0 note=48 velocity=0 time=240
note_on channel=0 note=53 velocity=33 time=0
note_on channel=0 note=60 velocity=42 time=0
note_on channel=0 note=51 velocity=33 time=0
<meta message set_tempo tempo=542986 time=120>
note_on channel=0 note=84 velocity=0 time=0
note_on channel=0 note=72 velocity=0 time=0
note_on channel=0 note=69 velocity=58 time=0
note_on channel=0 note=81 velocity=63 time=0
<meta message set_tempo tempo=354045 time=120>
note_on channel=0 note=81 velocity=0 time=0
note_on channel=0 note=60 velocity=0 time=0
note_on channel=0 note=51 velocity=0 time=0
note_on channel=0 note=53 velocity=0 time=0
note_on channel=0 note=69 velocity=0 time=0
note_on channel=0 note=70 velocity=51 time=0
note_on channel=0 note=82 velocity=57 time=0
note_on channel=0 note=49 velocity=37 time=0
control_change channel=0 control=64 value=0 time=11
control_change channel=0 control=64 value=127 time=60
note_on channel=0 note=49 velocity=0 time=169
note_on channel=0 note=53 velocity=27 time=0
note_on channel=0 note=58 velocity=27 time=0
note_on channel=0 note=61 velocity=34 time=0
note_on channel=0 note=61 velocity=0 time=240
note_on channel=0 note=53 velocity=0 time=0
note_on channel=0 note=58 velocity=0 time=0
note_on channel=0 note=49 velocity=36 time=0
<meta message set_tempo tempo=357590 time=240>
note_on channel=0 note=49 velocity=0 time=0
note_on channel=0 note=82 velocity=0 time=0
note_on channel=0 note=70 velocity=0 time=0
note_on channel=0 note=77 velocity=52 time=0
note_on channel=0 note=65 velocity=52 time=0
note_on channel=0 note=53 velocity=30 time=0
note_on channel=0 note=58 velocity=30 time=0
note_on channel=0 note=61 velocity=39 time=0
<meta message set_tempo tempo=363218 time=240>
note_on channel=0 note=61 velocity=0 time=0
note_on channel=0 note=53 velocity=0 time=0
note_on channel=0 note=58 velocity=0 time=0
note_on channel=0 note=49 velocity=37 time=0
note_on channel=0 note=49 velocity=0 time=240
note_on channel=0 note=58 velocity=29 time=0
note_on channel=0 note=61 velocity=38 time=0
note_on channel=0 note=53 velocity=29 time=0
<meta message set_tempo tempo=419933 time=120>
note_on channel=0 note=53 velocity=0 time=120
note_on channel=0 note=58 velocity=0 time=0
note_on channel=0 note=61 velocity=0 time=0
note_on channel=0 note=49 velocity=40 time=0
<meta message set_tempo tempo=350120 time=40>
note_on channel=0 note=49 velocity=0 time=200
note_on channel=0 note=53 velocity=29 time=0
note_on channel=0 note=58 velocity=29 time=0
note_on channel=0 note=61 velocity=38 time=0
note_on channel=0 note=61 velocity=0 time=240
note_on channel=0 note=53 velocity=0 time=0
note_on channel=0 note=58 velocity=0 time=0
note_on channel=0 note=49 velocity=39 time=0
note_on channel=0 note=49 velocity=0 time=240
note_on channel=0 note=65 velocity=0 time=0
note_on channel=0 note=77 velocity=0 time=0
note_on channel=0 note=78 velocity=68 time=0
note_on channel=0 note=66 velocity=62 time=0
note_on channel=0 note=54 velocity=28 time=0
note_on channel=0 note=63 velocity=36 time=0
note_on channel=0 note=58 velocity=28 time=0
control_change channel=0 control=64 value=0 time=18
control_change channel=0 control=64 value=127 time=60
<meta message set_tempo tempo=375117 time=162>
note_on channel=0 note=58 velocity=0 time=0
note_on channel=0 note=54 velocity=0 time=0
note_on channel=0 note=63 velocity=0 time=0
note_on channel=0 note=51 velocity=33 time=0
note_on channel=0 note=51 velocity=0 time=240
note_on channel=0 note=54 velocity=27 time=0
note_on channel=0 note=63 velocity=35 time=0
note_on channel=0 note=58 velocity=27 time=0
<meta message set_tempo tempo=449809 time=120>
note_on channel=0 note=78 velocity=0 time=0
note_on channel=0 note=75 velocity=63 time=0
<meta message set_tempo tempo=342544 time=120>
note_on channel=0 note=75 velocity=0 time=0
note_on channel=0 note=58 velocity=0 time=0
note_on channel=0 note=66 velocity=0 time=0
note_on channel=0 note=54 velocity=0 time=0
note_on channel=0 note=63 velocity=0 time=0
note_on channel=0 note=73 velocity=70 time=0
note_on channel=0 note=53 velocity=37 time=0
control_change channel=0 control=64 value=0 time=7
control_change channel=0 control=64 value=127 time=113
note_on channel=0 note=53 velocity=0 time=120
note_on channel=0 note=58 velocity=27 time=0
note_on channel=0 note=65 velocity=33 time=0
note_on channel=0 note=61 velocity=27 time=0
note_on channel=0 note=61 velocity=0 time=240
note_on channel=0 note=65 velocity=0 time=0
note_on channel=0 note=58 velocity=0 time=0
note_on channel=0 note=53 velocity=34 time=0
<meta message set_tempo tempo=361141 time=240>
note_on channel=0 note=53 velocity=0 time=0
note_on channel=0 note=73 velocity=0 time=0
note_on channel=0 note=77 velocity=67 time=0
note_on channel=0 note=58 velocity=30 time=0
note_on channel=0 note=65 velocity=38 time=0
note_on channel=0 note=61 velocity=30 time=0
<meta message set_tempo tempo=368505 time=240>
note_on channel=0 note=61 velocity=0 time=0
note_on channel=0 note=65 velocity=0 time=0
note_on channel=0 note=58 velocity=0 time=0
note_on channel=0 note=53 velocity=34 time=0
note_on channel=0 note=53 velocity=0 time=240
note_on channel=0 note=61 velocity=28 time=0
note_on channel=0 note=65 velocity=35 time=0
note_on channel=0 note=58 velocity=28 time=0
<meta message set_tempo tempo=419933 time=120>
note_on channel=0 note=77 velocity=0 time=0
note_on channel=0 note=73 velocity=61 time=0
note_on channel=0 note=73 velocity=0 time=120
note_on channel=0 note=58 velocity=0 time=0
note_on channel=0 note=65 velocity=0 time=0
note_on channel=0 note=61 velocity=0 time=0
note_on channel=0 note=72 velocity=70 time=0
note_on channel=0 note=53 velocity=40 time=0
control_change channel=0 control=64 value=0 time=15
<meta message set_tempo tempo=350120 time=25>
control_change channel=0 control=64 value=127 time=87
note_on channel=0 note=53 velocity=0 time=113
note_on channel=0 note=60 velocity=29 time=0
note_on channel=0 note=57 velocity=29 time=0
note_on channel=0 note=63 velocity=37 time=0
note_on channel=0 note=63 velocity=0 time=240
note_on channel=0 note=57 velocity=0 time=0
note_on channel=0 note=60 velocity=0 time=0
note_on channel=0 note=53 velocity=37 time=0
<meta message set_tempo tempo=357058 time=240>
note_on channel=0 note=53 velocity=0 time=0
note_on channel=0 note=72 velocity=0 time=0
note_on channel=0 note=75 velocity=71 time=0
note_on channel=0 note=60 velocity=33 time=0
note_on channel=0 note=57 velocity=33 time=0
note_on channel=0 note=63 velocity=42 time=0
<meta message set_tempo tempo=384197 time=240>
note_on channel=0 note=63 velocity=0 time=0
note_on channel=0 note=57 velocity=0 time=0
note_on channel=0 note=60 velocity=0 time=0
note_on channel=0 note=53 velocity=38 time=0
note_on channel=0 note=53 velocity=0 time=240
note_on channel=0 note=60 velocity=31 time=0
note_on channel=0 note=57 velocity=31 time=0
note_on channel=0 note=63 velocity=38 time=0
<meta message set_tempo tempo=471624 time=120>
note_on channel=0 note=75 velocity=0 time=0
note_on channel=0 note=72 velocity=67 time=0
<meta message set_tempo tempo=367444 time=120>
note_on channel=0 note=72 velocity=0 time=0
note_on channel=0 note=63 velocity=0 time=0
note_on channel=0 note=57 velocity=0 time=0
note_on channel=0 note=60 velocity=0 time=0
note_on channel=0 note=70 velocity=78 time=0
note_on channel=0 note=54 velocity=53 time=0
control_change channel=0 control=64 value=0 time=12
control_change channel=0 control=64 value=127 time=108
note_on channel=0 note=54 velocity=0 time=120
note_on channel=0 note=66 velocity=43 time=0
note_on channel=0 note=61 velocity=34 time=0
note_on channel=0 note=58 velocity=34 time=0
note_on channel=0 note=58 velocity=0 time=240
note_on channel=0 note=61 velocity=0 time=0
note_on channel=0 note=66 velocity=0 time=0
note_on channel=0 note=54 velocity=47 time=0
<meta message set_tempo tempo=359088 time=240>
note_on channel=0 note=54 velocity=0 time=0
note_on channel=0 note=70 velocity=0 time=0
note_on channel=0 note=73 velocity=73 time=0
note_on channel=0 note=66 velocity=46 time=0
note_on channel=0 note=61 velocity=35 time=0
note_on channel=0 note=58 velocity=35 time=0
note_on channel=0 note=58 velocity=0 time=240
note_on channel=0 note=61 velocity=0 time=0
note_on channel=0 note=66 velocity=0 time=0
note_on channel=0 note=54 velocity=43 time=0
note_on channel=0 note=54 velocity=0 time=240
note_on channel=0 note=66 velocity=46 time=0
note_on channel=0 note=61 velocity=34 time=0
note_on channel=0 note=58 velocity=34 time=0
note_on channel=0 note=58 velocity=0 time=240
note_on channel=0 note=61 velocity=0 time=0
note_on channel=0 note=66 velocity=0 time=0
note_on channel=0 note=54 velocity=47 time=0
note_on channel=0 note=54 velocity=0 time=240
note_on channel=0 note=66 velocity=44 time=0
note_on channel=0 note=61 velocity=34 time=0
note_on channel=0 note=58 velocity=34 time=0
note_on channel=0 note=58 velocity=0 time=240
note_on channel=0 note=61 velocity=0 time=0
note_on channel=0 note=66 velocity=0 time=0
note_on channel=0 note=54 velocity=47 time=0
note_on channel=0 note=54 velocity=0 time=240
note_on channel=0 note=73 velocity=0 time=0
note_on channel=0 note=70 velocity=73 time=0
note_on channel=0 note=82 velocity=79 time=0
note_on channel=0 note=58 velocity=35 time=0
note_on channel=0 note=61 velocity=35 time=0
note_on channel=0 note=66 velocity=46 time=0
control_change channel=0 control=64 value=0 time=17
control_change channel=0 control=64 value=127 time=139
<meta message set_tempo tempo=375117 time=84>
note_on channel=0 note=66 velocity=0 time=0
note_on channel=0 note=58 velocity=0 time=0
note_on channel=0 note=61 velocity=0 time=0
note_on channel=0 note=54 velocity=42 time=0
<meta message set_tempo tempo=363636 time=40>
note_on channel=0 note=54 velocity=0 time=200
note_on channel=0 note=66 velocity=44 time=0
note_on channel=0 note=58 velocity=35 time=0
note_on channel=0 note=61 velocity=35 time=0
<meta message set_tempo tempo=415225 time=120>
note_on channel=0 note=82 velocity=0 time=0
note_on channel=0 note=70 velocity=0 time=0
note_on channel=0 note=85 velocity=75 time=0
note_on channel=0 note=73 velocity=69 time=0
<meta message set_tempo tempo=354045 time=120>
note_on channel=0 note=73 velocity=0 time=0
note_on channel=0 note=58 velocity=0 time=0
note_on channel=0 note=61 velocity=0 time=0
note_on channel=0 note=66 velocity=0 time=0
note_on channel=0 note=85 velocity=0 time=0
note_on channel=0 note=78 velocity=71 time=0
note_on channel=0 note=90 velocity=80 time=0
note_on channel=0 note=54 velocity=48 time=0
control_change channel=0 control=64 value=0 time=7
control_change channel=0 control=64 value=127 time=110
note_on channel=0 note=54 velocity=0 time=123
note_on channel=0 note=66 velocity=44 time=0
note_on channel=0 note=61 velocity=35 time=0
note_on channel=0 note=58 velocity=35 time=0
note_on channel=0 note=58 velocity=0 time=240
note_on channel=0 note=66 velocity=0 time=0
note_on channel=0 note=61 velocity=0 time=0
note_on channel=0 note=54 velocity=47 time=0
<meta message set_tempo tempo=357590 time=240>
note_on channel=0 note=54 velocity=0 time=0
note_on channel=0 note=90 velocity=0 time=0
note_on channel=0 note=78 velocity=0 time=0
note_on channel=0 note=82 velocity=74 time=0
note_on channel=0 note=94 velocity=81 time=0
note_on channel=0 note=66 velocity=50 time=0
note_on channel=0 note=61 velocity=39 time=0
note_on channel=0 note=58 velocity=39 time=0
<meta message set_tempo tempo=363218 time=240>
note_on channel=0 note=58 velocity=0 time=0
note_on channel=0 note=66 velocity=0 time=0
note_on channel=0 note=61 velocity=0 time=0
note_on channel=0 note=54 velocity=48 time=0
note_on channel=0 note=54 velocity=0 time=240
note_on channel=0 note=58 velocity=37 time=0
note_on channel=0 note=66 velocity=49 time=0
note_on channel=0 note=61 velocity=37 time=0
<meta message set_tempo tempo=419933 time=120>
note_on channel=0 note=94 velocity=0 time=0
note_on channel=0 note=82 velocity=0 time=0
note_on channel=0 note=90 velocity=75 time=0
note_on channel=0 note=78 velocity=69 time=0
note_on channel=0 note=78 velocity=0 time=120
note_on channel=0 note=66 velocity=0 time=0
note_on channel=0 note=61 velocity=0 time=0
note_on channel=0 note=58 velocity=0 time=0
note_on channel=0 note=90 velocity=0 time=0
note_on channel=0 note=77 velocity=74 time=0
note_on channel=0 note=89 velocity=80 time=0
note_on channel=0 note=56 velocity=52 time=0
control_change channel=0 control=64 value=0 time=19
<meta message set_tempo tempo=350120 time=21>
control_change channel=0 control=64 value=127 time=90
note_on channel=0 note=56 velocity=0 time=110
note_on channel=0 note=68 velocity=49 time=0
note_on channel=0 note=59 velocity=37 time=0
note_on channel=0 note=61 velocity=37 time=0
note_on channel=0 note=61 velocity=0 time=240
note_on channel=0 note=68 velocity=0 time=0
note_on channel=0 note=59 velocity=0 time=0
note_on channel=0 note=56 velocity=50 time=0
<meta message set_tempo tempo=360360 time=240>
note_on channel=0 note=56 velocity=0 time=0
note_on channel=0 note=89 velocity=0 time=0
note_on channel=0 note=77 velocity=0 time=0
note_on channel=0 note=80 velocity=77 time=0
note_on channel=0 note=92 velocity=85 time=0
note_on channel=0 note=61 velocity=44 time=0
note_on channel=0 note=68 velocity=55 time=0
note_on channel=0 note=59 velocity=44 time=0
<meta message set_tempo tempo=370370 time=240>
note_on channel=0 note=59 velocity=0 time=0
note_on channel=0 note=61 velocity=0 time=0
note_on channel=0 note=68 velocity=0 time=0
note_on channel=0 note=56 velocity=52 time=0
note_on channel=0 note=56 velocity=0 time=240
note_on channel=0 note=59 velocity=42 time=0
note_on channel=0 note=68 velocity=55 time=0
note_on channel=0 note=61 velocity=42 time=0
<meta message set_tempo tempo=437956 time=120>
note_on channel=0 note=92 velocity=0 time=0
note_on channel=0 note=80 velocity=0 time=0
note_on channel=0 note=77 velocity=75 time=0
note_on channel=0 note=89 velocity=82 time=0
<meta message set_tempo tempo=354045 time=120>
note_on channel=0 note=89 velocity=0 time=0
note_on channel=0 note=68 velocity=0 time=0
note_on channel=0 note=61 velocity=0 time=0
note_on channel=0 note=59 velocity=0 time=0
note_on channel=0 note=77 velocity=0 time=0
note_on channel=0 note=78 velocity=80 time=0
note_on channel=0 note=90 velocity=89 time=0
note_on channel=0 note=58 velocity=48 time=0
control_change channel=0 control=64 value=0 time=8
control_change channel=0 control=64 value=127 time=175
note_on channel=0 note=58 velocity=0 time=57
note_on channel=0 note=70 velocity=44 time=0
note_on channel=0 note=61 velocity=35 time=0
note_on channel=0 note=66 velocity=35 time=0
note_on channel=0 note=66 velocity=0 time=240
note_on channel=0 note=70 velocity=0 time=0
note_on channel=0 note=61 velocity=0 time=0
note_on channel=0 note=58 velocity=47 time=0
<meta message set_tempo tempo=357590 time=240>
note_on channel=0 note=58 velocity=0 time=0
note_on channel=0 note=90 velocity=0 time=0
note_on channel=0 note=78 velocity=0 time=0
note_on channel=0 note=73 velocity=68 time=0
note_on channel=0 note=85 velocity=81 time=0
note_on channel=0 note=70 velocity=42 time=0
note_on channel=0 note=61 velocity=33 time=0
note_on channel=0 note=66 velocity=33 time=0
<meta message set_tempo tempo=363218 time=240>
note_on channel=0 note=66 velocity=0 time=0
note_on channel=0 note=70 velocity=0 time=0
note_on channel=0 note=61 velocity=0 time=0
note_on channel=0 note=58 velocity=40 time=0
note_on channel=0 note=58 velocity=0 time=240
note_on channel=0 note=61 velocity=33 time=0
note_on channel=0 note=66 velocity=33 time=0
note_on channel=0 note=70 velocity=44 time=0
<meta message set_tempo tempo=347826 time=240>
note_on channel=0 note=70 velocity=0 time=0
note_on channel=0 note=61 velocity=0 time=0
note_on channel=0 note=66 velocity=0 time=0
note_on channel=0 note=58 velocity=50 time=0
<meta message set_tempo tempo=346821 time=160>
note_on channel=0 note=58 velocity=0 time=80
note_on channel=0 note=70 velocity=49 time=0
note_on channel=0 note=66 velocity=37 time=0
note_on channel=0 note=61 velocity=37 time=0
<meta message set_tempo tempo=345821 time=80>
<meta message set_tempo tempo=344828 time=120>
note_on channel=0 note=61 velocity=0 time=40
note_on channel=0 note=70 velocity=0 time=0
note_on channel=0 note=66 velocity=0 time=0
note_on channel=0 note=58 velocity=52 time=0
<meta message set_tempo tempo=343840 time=120>
note_on channel=0 note=58 velocity=0 time=120
note_on channel=0 note=66 velocity=38 time=0
note_on channel=0 note=70 velocity=51 time=0
note_on channel=0 note=61 velocity=38 time=0
<meta message set_tempo tempo=342857 time=40>
<meta message set_tempo tempo=341880 time=120>
<meta message set_tempo tempo=375117 time=80>
note_on channel=0 note=61 velocity=0 time=0
note_on channel=0 note=66 velocity=0 time=0
note_on channel=0 note=70 velocity=0 time=0
note_on channel=0 note=58 velocity=48 time=0
note_on channel=0 note=58 velocity=0 time=240
note_on channel=0 note=66 velocity=41 time=0
note_on channel=0 note=70 velocity=55 time=0
note_on channel=0 note=61 velocity=41 time=0
<meta message set_tempo tempo=467545 time=120>
<meta message set_tempo tempo=354045 time=120>
note_on channel=0 note=61 velocity=0 time=0
note_on channel=0 note=66 velocity=0 time=0
note_on channel=0 note=73 velocity=0 time=0
note_on channel=0 note=85 velocity=0 time=0
note_on channel=0 note=70 velocity=0 time=0
note_on channel=0 note=90 velocity=89 time=0
note_on channel=0 note=78 velocity=80 time=0
note_on channel=0 note=59 velocity=57 time=0
control_change channel=0 control=64 value=0 time=80
control_change channel=0 control=64 value=127 time=103
note_on channel=0 note=59 velocity=0 time=57
note_on channel=0 note=71 velocity=44 time=0
note_on channel=0 note=62 velocity=35 time=0
note_on channel=0 note=66 velocity=35 time=0
note_on channel=0 note=66 velocity=0 time=240
note_on channel=0 note=71 velocity=0 time=0
note_on channel=0 note=62 velocity=0 time=0
note_on channel=0 note=59 velocity=47 time=0
<meta message set_tempo tempo=357590 time=240>
note_on channel=0 note=59 velocity=0 time=0
note_on channel=0 note=78 velocity=0 time=0
note_on channel=0 note=90 velocity=0 time=0
note_on channel=0 note=86 velocity=83 time=0
note_on channel=0 note=74 velocity=70 time=0
note_on channel=0 note=71 velocity=42 time=0
note_on channel=0 note=62 velocity=33 time=0
note_on channel=0 note=66 velocity=33 time=0
<meta message set_tempo tempo=363218 time=240>
note_on channel=0 note=66 velocity=0 time=0
note_on channel=0 note=71 velocity=0 time=0
note_on channel=0 note=62 velocity=0 time=0
note_on channel=0 note=59 velocity=40 time=0
note_on channel=0 note=59 velocity=0 time=240
note_on channel=0 note=62 velocity=33 time=0
note_on channel=0 note=66 velocity=33 time=0
note_on channel=0 note=71 velocity=44 time=0
<meta message set_tempo tempo=349854 time=240>
note_on channel=0 note=71 velocity=0 time=0
note_on channel=0 note=62 velocity=0 time=0
note_on channel=0 note=66 velocity=0 time=0
note_on channel=0 note=59 velocity=50 time=0
<meta message set_tempo tempo=348837 time=80>
<meta message set_tempo tempo=347826 time=40>
<meta message set_tempo tempo=346821 time=40>
<meta message set_tempo tempo=345821 time=40>
note_on channel=0 note=59 velocity=0 time=40
note_on channel=0 note=71 velocity=49 time=0
note_on channel=0 note=66 velocity=37 time=0
note_on channel=0 note=62 velocity=37 time=0
<meta message set_tempo tempo=344828 time=40>
<meta message set_tempo tempo=343840 time=40>
<meta message set_tempo tempo=342857 time=40>
<meta message set_tempo tempo=341880 time=40>
<meta message set_tempo tempo=340909 time=40>
note_on channel=0 note=62 velocity=0 time=40
note_on channel=0 note=71 velocity=0 time=0
note_on channel=0 note=66 velocity=0 time=0
note_on channel=0 note=59 velocity=53 time=0
<meta message set_tempo tempo=339943 time=40>
<meta message set_tempo tempo=338983 time=40>
<meta message set_tempo tempo=338028 time=40>
<meta message set_tempo tempo=337079 time=40>
<meta message set_tempo tempo=336134 time=40>
note_on channel=0 note=59 velocity=0 time=40
note_on channel=0 note=66 velocity=38 time=0
note_on channel=0 note=71 velocity=52 time=0
note_on channel=0 note=62 velocity=38 time=0
<meta message set_tempo tempo=335196 time=40>
<meta message set_tempo tempo=334262 time=40>
<meta message set_tempo tempo=333333 time=40>
<meta message set_tempo tempo=332410 time=40>
<meta message set_tempo tempo=331492 time=40>
<meta message set_tempo tempo=345821 time=20>
<meta message set_tempo tempo=375117 time=20>
note_on channel=0 note=62 velocity=0 time=0
note_on channel=0 note=66 velocity=0 time=0
note_on channel=0 note=71 velocity=0 time=0
note_on channel=0 note=59 velocity=49 time=0
note_on channel=0 note=59 velocity=0 time=240
note_on channel=0 note=66 velocity=42 time=0
note_on channel=0 note=71 velocity=56 time=0
note_on channel=0 note=62 velocity=42 time=0
<meta message set_tempo tempo=458610 time=120>
<meta message set_tempo tempo=349854 time=120>
note_on channel=0 note=62 velocity=0 time=0
note_on channel=0 note=66 velocity=0 time=0
note_on channel=0 note=86 velocity=0 time=0
note_on channel=0 note=74 velocity=0 time=0
note_on channel=0 note=71 velocity=0 time=0
note_on channel=0 note=79 velocity=96 time=0
note_on channel=0 note=91 velocity=96 time=0
note_on channel=0 note=59 velocity=60 time=0
control_change channel=0 control=64 value=0 time=7
control_change channel=0 control=64 value=127 time=199
note_on channel=0 note=59 velocity=0 time=34
note_on channel=0 note=62 velocity=36 time=0
note_on channel=0 note=67 velocity=36 time=0
note_on channel=0 note=71 velocity=46 time=0
note_on channel=0 note=71 velocity=0 time=240
note_on channel=0 note=62 velocity=0 time=0
note_on channel=0 note=67 velocity=0 time=0
note_on channel=0 note=59 velocity=49 time=0
<meta message set_tempo tempo=357590 time=240>
note_on channel=0 note=59 velocity=0 time=0
note_on channel=0 note=91 velocity=0 time=0
note_on channel=0 note=79 velocity=0 time=0
note_on channel=0 note=74 velocity=74 time=0
note_on channel=0 note=86 velocity=89 time=0
note_on channel=0 note=62 velocity=34 time=0
note_on channel=0 note=67 velocity=34 time=0
note_on channel=0 note=71 velocity=45 time=0
<meta message set_tempo tempo=363218 time=240>
note_on channel=0 note=71 velocity=0 time=0
note_on channel=0 note=62 velocity=0 time=0
note_on channel=0 note=67 velocity=0 time=0
note_on channel=0 note=59 velocity=42 time=0
note_on channel=0 note=59 velocity=0 time=240
note_on channel=0 note=67 velocity=35 time=0
note_on channel=0 note=71 velocity=47 time=0
note_on channel=0 note=62 velocity=35 time=0
<meta message set_tempo tempo=344828 time=240>
note_on channel=0 note=62 velocity=0 time=0
note_on channel=0 note=67 velocity=0 time=0
note_on channel=0 note=71 velocity=0 time=0
note_on channel=0 note=59 velocity=53 time=0
<meta message set_tempo tempo=343840 time=80>
<meta message set_tempo tempo=342857 time=40>
<meta message set_tempo tempo=341880 time=80>
<meta message set_tempo tempo=340909 time=40>
note_on channel=0 note=59 velocity=0 time=0
note_on channel=0 note=62 velocity=39 time=0
note_on channel=0 note=67 velocity=39 time=0
note_on channel=0 note=71 velocity=51 time=0
<meta message set_tempo tempo=339943 time=40>
<meta message set_tempo tempo=338983 time=80>
<meta message set_tempo tempo=338028 time=40>
<meta message set_tempo tempo=337079 time=40>
note_on channel=0 note=71 velocity=0 time=40
note_on channel=0 note=62 velocity=0 time=0
note_on channel=0 note=67 velocity=0 time=0
note_on channel=0 note=59 velocity=56 time=0
<meta message set_tempo tempo=336134 time=40>
<meta message set_tempo tempo=335196 time=40>
<meta message set_tempo tempo=334262 time=40>
<meta message set_tempo tempo=333333 time=80>
<meta message set_tempo tempo=332410 time=40>
note_on channel=0 note=59 velocity=0 time=0
note_on channel=0 note=62 velocity=40 time=0
note_on channel=0 note=71 velocity=55 time=0
note_on channel=0 note=67 velocity=40 time=0
<meta message set_tempo tempo=331492 time=40>
<meta message set_tempo tempo=330579 time=80>
<meta message set_tempo tempo=329670 time=40>
<meta message set_tempo tempo=328767 time=40>
<meta message set_tempo tempo=375117 time=40>
note_on channel=0 note=67 velocity=0 time=0
note_on channel=0 note=62 velocity=0 time=0
note_on channel=0 note=71 velocity=0 time=0
note_on channel=0 note=59 velocity=51 time=0
note_on channel=0 note=59 velocity=0 time=240
note_on channel=0 note=62 velocity=44 time=0
note_on channel=0 note=71 velocity=59 time=0
note_on channel=0 note=67 velocity=44 time=0
<meta message set_tempo tempo=458610 time=120>
<meta message set_tempo tempo=348837 time=120>
note_on channel=0 note=67 velocity=0 time=0
note_on channel=0 note=62 velocity=0 time=0
note_on channel=0 note=74 velocity=0 time=0
note_on channel=0 note=86 velocity=0 time=0
note_on channel=0 note=71 velocity=0 time=0
note_on channel=0 note=79 velocity=102 time=0
note_on channel=0 note=91 velocity=102 time=0
note_on channel=0 note=60 velocity=64 time=0
control_change channel=0 control=64 value=0 time=10
control_change channel=0 control=64 value=127 time=116
note_on channel=0 note=60 velocity=0 time=114
note_on channel=0 note=64 velocity=38 time=0
note_on channel=0 note=67 velocity=38 time=0
note_on channel=0 note=72 velocity=48 time=0
note_on channel=0 note=72 velocity=0 time=240
note_on channel=0 note=64 velocity=0 time=0
note_on channel=0 note=67 velocity=0 time=0
note_on channel=0 note=60 velocity=51 time=0
<meta message set_tempo tempo=357590 time=240>
note_on channel=0 note=60 velocity=0 time=0
note_on channel=0 note=91 velocity=0 time=0
note_on channel=0 note=79 velocity=0 time=0
note_on channel=0 note=88 velocity=94 time=0
note_on channel=0 note=76 velocity=80 time=0
note_on channel=0 note=64 velocity=37 time=0
note_on channel=0 note=67 velocity=37 time=0
note_on channel=0 note=72 velocity=48 time=0
<meta message set_tempo tempo=363218 time=240>
note_on channel=0 note=72 velocity=0 time=0
note_on channel=0 note=64 velocity=0 time=0
note_on channel=0 note=67 velocity=0 time=0
note_on channel=0 note=60 velocity=47 time=0
note_on channel=0 note=60 velocity=0 time=240
note_on channel=0 note=67 velocity=37 time=0
note_on channel=0 note=72 velocity=50 time=0
note_on channel=0 note=64 velocity=37 time=0
<meta message set_tempo tempo=343840 time=240>
note_on channel=0 note=64 velocity=0 time=0
note_on channel=0 note=67 velocity=0 time=0
note_on channel=0 note=72 velocity=0 time=0
note_on channel=0 note=60 velocity=57 time=0
<meta message set_tempo tempo=342857 time=80>
<meta message set_tempo tempo=341880 time=40>
<meta message set_tempo tempo=340909 time=40>
<meta message set_tempo tempo=339943 time=40>
note_on channel=0 note=60 velocity=0 time=40
note_on channel=0 note=64 velocity=41 time=0
note_on channel=0 note=67 velocity=41 time=0
note_on channel=0 note=72 velocity=55 time=0
<meta message set_tempo tempo=338983 time=40>
<meta message set_tempo tempo=338028 time=40>
<meta message set_tempo tempo=337079 time=40>
<meta message set_tempo tempo=336134 time=40>
<meta message set_tempo tempo=335196 time=40>
note_on channel=0 note=72 velocity=0 time=40
note_on channel=0 note=64 velocity=0 time=0
note_on channel=0 note=67 velocity=0 time=0
note_on channel=0 note=60 velocity=59 time=0
<meta message set_tempo tempo=334262 time=40>
<meta message set_tempo tempo=333333 time=40>
<meta message set_tempo tempo=332410 time=40>
<meta message set_tempo tempo=331492 time=40>
<meta message set_tempo tempo=330579 time=40>
note_on channel=0 note=60 velocity=0 time=40
note_on channel=0 note=64 velocity=44 time=0
note_on channel=0 note=72 velocity=58 time=0
note_on channel=0 note=67 velocity=44 time=0
<meta message set_tempo tempo=329670 time=40>
<meta message set_tempo tempo=328767 time=40>
<meta message set_tempo tempo=327869 time=40>
<meta message set_tempo tempo=326975 time=40>
<meta message set_tempo tempo=326087 time=40>
<meta message set_tempo tempo=342857 time=20>
<meta message set_tempo tempo=366972 time=20>
note_on channel=0 note=67 velocity=0 time=0
note_on channel=0 note=64 velocity=0 time=0
note_on channel=0 note=72 velocity=0 time=0
note_on channel=0 note=60 velocity=55 time=0
note_on channel=0 note=60 velocity=0 time=240
note_on channel=0 note=64 velocity=47 time=0
note_on channel=0 note=72 velocity=61 time=0
note_on channel=0 note=67 velocity=47 time=0
<meta message set_tempo tempo=460370 time=120>
<meta message set_tempo tempo=327869 time=120>
note_on channel=0 note=67 velocity=0 time=0
note_on channel=0 note=64 velocity=0 time=0
note_on channel=0 note=88 velocity=0 time=0
note_on channel=0 note=76 velocity=0 time=0
note_on channel=0 note=72 velocity=0 time=0
note_on channel=0 note=61 velocity=102 time=0
control_change channel=0 control=64 value=0 time=9
control_change channel=0 control=64 value=127 time=60
note_on channel=0 note=64 velocity=78 time=51
note_on channel=0 note=67 velocity=78 time=120
note_on channel=0 note=70 velocity=78 time=120
<meta message set_tempo tempo=373832 time=120>
note_on channel=0 note=73 velocity=78 time=0
<meta message set_tempo tempo=329670 time=240>
note_on channel=0 note=79 velocity=75 time=0
note_on channel=0 note=82 velocity=71 time=120
note_on channel=0 note=85 velocity=70 time=120
note_on channel=0 note=85 velocity=0 time=120
note_on channel=0 note=88 velocity=70 time=0
note_on channel=0 note=82 velocity=0 time=120
note_on channel=0 note=91 velocity=73 time=0
<meta message set_tempo tempo=373832 time=120>
note_on channel=0 note=91 velocity=0 time=0
note_on channel=0 note=88 velocity=0 time=0
note_on channel=0 note=79 velocity=0 time=0
note_on channel=0 note=79 velocity=71 time=0
<meta message set_tempo tempo=330579 time=120>
note_on channel=0 note=79 velocity=0 time=0
note_on channel=0 note=73 velocity=0 time=0
note_on channel=0 note=67 velocity=0 time=0
note_on channel=0 note=70 velocity=0 time=0
note_on channel=0 note=64 velocity=0 time=0
note_on channel=0 note=61 velocity=0 time=0
note_on channel=0 note=64 velocity=101 time=0
control_change channel=0 control=64 value=0 time=12
control_change channel=0 control=64 value=127 time=91
note_on channel=0 note=67 velocity=78 time=17
note_on channel=0 note=70 velocity=78 time=120
note_on channel=0 note=73 velocity=78 time=120
<meta message set_tempo tempo=372671 time=120>
note_on channel=0 note=76 velocity=79 time=0
<meta message set_tempo tempo=329670 time=240>
note_on channel=0 note=79 velocity=77 time=0
note_on channel=0 note=82 velocity=72 time=120
note_on channel=0 note=85 velocity=72 time=120
note_on channel=0 note=85 velocity=0 time=120
note_on channel=0 note=88 velocity=70 time=0
note_on channel=0 note=82 velocity=0 time=120
note_on channel=0 note=91 velocity=74 time=0
<meta message set_tempo tempo=373832 time=120>
note_on channel=0 note=91 velocity=0 time=0
note_on channel=0 note=88 velocity=0 time=0
note_on channel=0 note=79 velocity=0 time=0
note_on channel=0 note=79 velocity=72 time=0
<meta message set_tempo tempo=330579 time=120>
note_on channel=0 note=79 velocity=0 time=0
note_on channel=0 note=76 velocity=0 time=0
note_on channel=0 note=70 velocity=0 time=0
note_on channel=0 note=73 velocity=0 time=0
note_on channel=0 note=67 velocity=0 time=0
note_on channel=0 note=64 velocity=0 time=0
note_on channel=0 note=67 velocity=101 time=0
control_change channel=0 control=64 value=0 time=8
control_change channel=0 control=64 value=127 time=84
note_on channel=0 note=70 velocity=84 time=28
note_on channel=0 note=73 velocity=84 time=120
note_on channel=0 note=76 velocity=84 time=120
<meta message set_tempo tempo=324324 time=80>
<meta message set_tempo tempo=329670 time=280>
note_on channel=0 note=79 velocity=77 time=0
note_on channel=0 note=82 velocity=71 time=120
note_on channel=0 note=85 velocity=71 time=120
note_on channel=0 note=85 velocity=0 time=120
note_on channel=0 note=88 velocity=70 time=0
<meta message set_tempo tempo=333333 time=120>
note_on channel=0 note=82 velocity=0 time=0
note_on channel=0 note=91 velocity=76 time=0
note_on channel=0 note=91 velocity=0 time=120
note_on channel=0 note=88 velocity=0 time=0
note_on channel=0 note=79 velocity=0 time=0
note_on channel=0 note=79 velocity=71 time=0
<meta message set_tempo tempo=321716 time=120>
note_on channel=0 note=79 velocity=0 time=0
note_on channel=0 note=76 velocity=0 time=0
note_on channel=0 note=67 velocity=0 time=0
note_on channel=0 note=70 velocity=0 time=0
note_on channel=0 note=73 velocity=0 time=0
note_on channel=0 note=70 velocity=100 time=0
control_change channel=0 control=64 value=0 time=26
control_change channel=0 control=64 value=127 time=83
note_on channel=0 note=73 velocity=84 time=11
note_on channel=0 note=76 velocity=86 time=120
<meta message set_tempo tempo=315789 time=240>
<meta message set_tempo tempo=336134 time=240>
note_on channel=0 note=79 velocity=77 time=0
note_on channel=0 note=82 velocity=71 time=120
note_on channel=0 note=85 velocity=73 time=120
note_on channel=0 note=85 velocity=0 time=120
note_on channel=0 note=88 velocity=70 time=0
note_on channel=0 note=82 velocity=0 time=120
note_on channel=0 note=91 velocity=76 time=0
<meta message set_tempo tempo=373832 time=120>
note_on channel=0 note=91 velocity=0 time=0
note_on channel=0 note=88 velocity=0 time=0
note_on channel=0 note=79 velocity=0 time=0
note_on channel=0 note=79 velocity=71 time=0
<meta message set_tempo tempo=328767 time=120>
note_on channel=0 note=79 velocity=0 time=0
note_on channel=0 note=73 velocity=0 time=0
note_on channel=0 note=76 velocity=0 time=0
note_on channel=0 note=70 velocity=0 time=0
note_on channel=0 note=73 velocity=96 time=0
control_change channel=0 control=64 value=0 time=10
<meta message set_tempo tempo=325203 time=30>
control_change channel=0 control=64 value=127 time=35
note_on channel=0 note=76 velocity=84 time=45
note_on channel=0 note=82 velocity=77 time=120
note_on channel=0 note=79 velocity=84 time=0
note_on channel=0 note=85 velocity=71 time=120
note_on channel=0 note=88 velocity=74 time=120
<meta message set_tempo tempo=334262 time=120>
note_on channel=0 note=88 velocity=0 time=0
note_on channel=0 note=91 velocity=70 time=0
<meta message set_tempo tempo=325203 time=120>
note_on channel=0 note=91 velocity=0 time=0
note_on channel=0 note=85 velocity=0 time=0
note_on channel=0 note=82 velocity=0 time=0
note_on channel=0 note=73 velocity=0 time=0
note_on channel=0 note=76 velocity=0 time=0
note_on channel=0 note=79 velocity=0 time=0
note_on channel=0 note=76 velocity=98 time=0
control_change channel=0 control=64 value=0 time=14
control_change channel=0 control=64 value=127 time=78
note_on channel=0 note=79 velocity=84 time=28
note_on channel=0 note=85 velocity=77 time=120
note_on channel=0 note=82 velocity=84 time=0
note_on channel=0 note=88 velocity=72 time=120
note_on channel=0 note=91 velocity=74 time=120
<meta message set_tempo tempo=333333 time=120>
note_on channel=0 note=91 velocity=0 time=0
note_on channel=0 note=94 velocity=70 time=0
<meta message set_tempo tempo=326087 time=120>
note_on channel=0 note=94 velocity=0 time=0
note_on channel=0 note=88 velocity=0 time=0
note_on channel=0 note=85 velocity=0 time=0
note_on channel=0 note=76 velocity=0 time=0
note_on channel=0 note=79 velocity=0 time=0
note_on channel=0 note=82 velocity=0 time=0
note_on channel=0 note=79 velocity=100 time=0
control_change channel=0 control=64 value=0 time=11
control_change channel=0 control=64 value=127 time=104
note_on channel=0 note=79 velocity=0 time=5
note_on channel=0 note=82 velocity=84 time=0
note_on channel=0 note=82 velocity=0 time=120
note_on channel=0 note=85 velocity=84 time=0
note_on channel=0 note=85 velocity=0 time=120
note_on channel=0 note=88 velocity=73 time=0
note_on channel=0 note=88 velocity=0 time=120
note_on channel=0 note=91 velocity=74 time=0
<meta message set_tempo tempo=334262 time=120>
note_on channel=0 note=91 velocity=0 time=0
note_on channel=0 note=94 velocity=73 time=0
<meta message set_tempo tempo=326087 time=120>
note_on channel=0 note=94 velocity=0 time=0
note_on channel=0 note=82 velocity=100 time=0
note_on channel=0 note=82 velocity=0 time=120
note_on channel=0 note=85 velocity=84 time=0
note_on channel=0 note=85 velocity=0 time=120
note_on channel=0 note=88 velocity=84 time=0
note_on channel=0 note=88 velocity=0 time=120
note_on channel=0 note=88 velocity=73 time=0
note_on channel=0 note=88 velocity=0 time=120
note_on channel=0 note=91 velocity=74 time=0
<meta message set_tempo tempo=342857 time=120>
note_on channel=0 note=91 velocity=0 time=0
note_on channel=0 note=94 velocity=73 time=0
<meta message set_tempo tempo=322581 time=120>
note_on channel=0 note=94 velocity=0 time=0
note_on channel=0 note=85 velocity=102 time=0
control_change channel=0 control=64 value=0 time=11
control_change channel=0 control=64 value=127 time=86
note_on channel=0 note=85 velocity=0 time=23
note_on channel=0 note=88 velocity=84 time=0
note_on channel=0 note=88 velocity=0 time=114
note_on channel=0 note=88 velocity=77 time=6
note_on channel=0 note=88 velocity=0 time=120
note_on channel=0 note=91 velocity=75 time=0
note_on channel=0 note=91 velocity=0 time=120
note_on channel=0 note=94 velocity=74 time=0
<meta message set_tempo tempo=318302 time=240>
note_on channel=0 note=94 velocity=0 time=0
note_on channel=0 note=82 velocity=97 time=0
note_on channel=0 note=82 velocity=0 time=120
note_on channel=0 note=85 velocity=84 time=0
note_on channel=0 note=85 velocity=0 time=114
note_on channel=0 note=85 velocity=77 time=6
<meta message set_tempo tempo=317460 time=40>
note_on channel=0 note=85 velocity=0 time=80
note_on channel=0 note=88 velocity=75 time=0
note_on channel=0 note=88 velocity=0 time=120
note_on channel=0 note=91 velocity=74 time=0
<meta message set_tempo tempo=316623 time=80>
note_on channel=0 note=91 velocity=0 time=160
note_on channel=0 note=79 velocity=96 time=0
<meta message set_tempo tempo=315789 time=120>
note_on channel=0 note=79 velocity=0 time=0
note_on channel=0 note=82 velocity=84 time=0
note_on channel=0 note=82 velocity=0 time=114
note_on channel=0 note=82 velocity=77 time=6
note_on channel=0 note=82 velocity=0 time=120
note_on channel=0 note=85 velocity=75 time=0
<meta message set_tempo tempo=314961 time=40>
note_on channel=0 note=85 velocity=0 time=80
note_on channel=0 note=88 velocity=74 time=0
<meta message set_tempo tempo=314136 time=200>
note_on channel=0 note=88 velocity=0 time=40
note_on channel=0 note=76 velocity=96 time=0
note_on channel=0 note=76 velocity=0 time=120
note_on channel=0 note=79 velocity=84 time=0
note_on channel=0 note=79 velocity=0 time=114
<meta message set_tempo tempo=313316 time=6>
note_on channel=0 note=79 velocity=77 time=0
note_on channel=0 note=79 velocity=0 time=120
note_on channel=0 note=82 velocity=75 time=0
note_on channel=0 note=82 velocity=0 time=120
note_on channel=0 note=85 velocity=74 time=0
<meta message set_tempo tempo=312500 time=40>
note_on channel=0 note=85 velocity=0 time=200
note_on channel=0 note=73 velocity=96 time=0
control_change channel=0 control=64 value=0 time=8
<meta message set_tempo tempo=311688 time=72>
control_change channel=0 control=64 value=127 time=0
note_on channel=0 note=73 velocity=0 time=40
note_on channel=0 note=76 velocity=84 time=0
note_on channel=0 note=76 velocity=0 time=114
note_on channel=0 note=76 velocity=77 time=6
<meta message set_tempo tempo=310881 time=120>
note_on channel=0 note=76 velocity=0 time=0
note_on channel=0 note=79 velocity=72 time=0
note_on channel=0 note=79 velocity=0 time=120
note_on channel=0 note=82 velocity=74 time=0
<meta message set_tempo tempo=310078 time=160>
note_on channel=0 note=82 velocity=0 time=80
note_on channel=0 note=70 velocity=96 time=0
note_on channel=0 note=70 velocity=0 time=120
note_on channel=0 note=73 velocity=84 time=0
<meta message set_tempo tempo=309278 time=80>
note_on channel=0 note=73 velocity=0 time=34
<meta message set_tempo tempo=310881 time=6>
note_on channel=0 note=73 velocity=77 time=0
note_on channel=0 note=73 velocity=0 time=120
note_on channel=0 note=76 velocity=75 time=0
note_on channel=0 note=76 velocity=0 time=120
note_on channel=0 note=79 velocity=74 time=0
note_on channel=0 note=79 velocity=0 time=240
note_on channel=0 note=67 velocity=96 time=0
note_on channel=0 note=67 velocity=0 time=120
note_on channel=0 note=70 velocity=84 time=0
note_on channel=0 note=70 velocity=0 time=114
note_on channel=0 note=70 velocity=77 time=6
note_on channel=0 note=70 velocity=0 time=120
note_on channel=0 note=73 velocity=75 time=0
note_on channel=0 note=73 velocity=0 time=120
note_on channel=0 note=76 velocity=74 time=0
note_on channel=0 note=76 velocity=0 time=240
note_on channel=0 note=64 velocity=96 time=0
note_on channel=0 note=64 velocity=0 time=120
note_on channel=0 note=67 velocity=84 time=0
note_on channel=0 note=67 velocity=0 time=114
note_on channel=0 note=67 velocity=77 time=6
note_on channel=0 note=67 velocity=0 time=120
note_on channel=0 note=70 velocity=75 time=0
note_on channel=0 note=70 velocity=0 time=120
note_on channel=0 note=73 velocity=74 time=0
note_on channel=0 note=73 velocity=0 time=240
note_on channel=0 note=61 velocity=91 time=0
control_change channel=0 control=64 value=0 time=16
control_change channel=0 control=64 value=127 time=87
note_on channel=0 note=61 velocity=0 time=17
note_on channel=0 note=64 velocity=80 time=0
note_on channel=0 note=64 velocity=0 time=114
note_on channel=0 note=64 velocity=72 time=6
note_on channel=0 note=64 velocity=0 time=120
note_on channel=0 note=67 velocity=71 time=0
note_on channel=0 note=67 velocity=0 time=120
note_on channel=0 note=70 velocity=70 time=0
note_on channel=0 note=70 velocity=0 time=240
note_on channel=0 note=58 velocity=91 time=0
note_on channel=0 note=58 velocity=0 time=120
note_on channel=0 note=61 velocity=80 time=0
note_on channel=0 note=61 velocity=0 time=114
note_on channel=0 note=61 velocity=72 time=6
note_on channel=0 note=61 velocity=0 time=120
note_on channel=0 note=64 velocity=71 time=0
note_on channel=0 note=64 velocity=0 time=120
note_on channel=0 note=67 velocity=70 time=0
note_on channel=0 note=67 velocity=0 time=240
note_on channel=0 note=55 velocity=91 time=0
note_on channel=0 note=55 velocity=0 time=120
note_on channel=0 note=58 velocity=80 time=0
note_on channel=0 note=58 velocity=0 time=114
note_on channel=0 note=58 velocity=72 time=6
note_on channel=0 note=58 velocity=0 time=120
note_on channel=0 note=61 velocity=71 time=0
note_on channel=0 note=61 velocity=0 time=120
note_on channel=0 note=64 velocity=70 time=0
note_on channel=0 note=64 velocity=0 time=240
note_on channel=0 note=52 velocity=91 time=0
note_on channel=0 note=52 velocity=0 time=120
note_on channel=0 note=55 velocity=80 time=0
note_on channel=0 note=55 velocity=0 time=114
note_on channel=0 note=55 velocity=72 time=6
note_on channel=0 note=55 velocity=0 time=120
note_on channel=0 note=58 velocity=71 time=0
note_on channel=0 note=58 velocity=0 time=120
note_on channel=0 note=61 velocity=70 time=0
<meta message set_tempo tempo=311688 time=120>
<meta message set_tempo tempo=312500 time=120>
note_on channel=0 note=61 velocity=0 time=0
note_on channel=0 note=49 velocity=91 time=0
control_change channel=0 control=64 value=0 time=12
<meta message set_tempo tempo=313316 time=68>
control_change channel=0 control=64 value=127 time=17
note_on channel=0 note=49 velocity=0 time=23
note_on channel=0 note=52 velocity=80 time=0
<meta message set_tempo tempo=314136 time=40>
note_on channel=0 note=52 velocity=0 time=74
<meta message set_tempo tempo=314961 time=6>
note_on channel=0 note=52 velocity=72 time=0
<meta message set_tempo tempo=315789 time=80>
note_on channel=0 note=52 velocity=0 time=40
note_on channel=0 note=55 velocity=71 time=0
<meta message set_tempo tempo=316623 time=40>
<meta message set_tempo tempo=317460 time=80>
note_on channel=0 note=55 velocity=0 time=0
note_on channel=0 note=58 velocity=70 time=0
<meta message set_tempo tempo=318302 time=80>
<meta message set_tempo tempo=319149 time=80>
<meta message set_tempo tempo=320000 time=80>
note_on channel=0 note=58 velocity=0 time=0
note_on channel=0 note=46 velocity=91 time=0
<meta message set_tempo tempo=320856 time=80>
note_on channel=0 note=46 velocity=0 time=40
note_on channel=0 note=49 velocity=80 time=0
<meta message set_tempo tempo=321716 time=80>
note_on channel=0 note=49 velocity=0 time=34
note_on channel=0 note=49 velocity=72 time=6
<meta message set_tempo tempo=322581 time=40>
<meta message set_tempo tempo=323450 time=80>
note_on channel=0 note=49 velocity=0 time=0
note_on channel=0 note=52 velocity=71 time=0
<meta message set_tempo tempo=324324 time=80>
note_on channel=0 note=52 velocity=0 time=40
note_on channel=0 note=55 velocity=70 time=0
<meta message set_tempo tempo=325203 time=40>
<meta message set_tempo tempo=326087 time=80>
<meta message set_tempo tempo=326975 time=80>
note_on channel=0 note=55 velocity=0 time=40
note_on channel=0 note=43 velocity=91 time=0
<meta message set_tempo tempo=327869 time=40>
<meta message set_tempo tempo=328767 time=80>
note_on channel=0 note=43 velocity=0 time=0
note_on channel=0 note=46 velocity=80 time=0
<meta message set_tempo tempo=329670 time=80>
note_on channel=0 note=46 velocity=0 time=34
note_on channel=0 note=46 velocity=72 time=6
<meta message set_tempo tempo=330579 time=40>
note_on channel=0 note=46 velocity=0 time=80
note_on channel=0 note=49 velocity=71 time=0
<meta message set_tempo tempo=331492 time=40>
<meta message set_tempo tempo=332410 time=80>
note_on channel=0 note=49 velocity=0 time=0
note_on channel=0 note=52 velocity=70 time=0
<meta message set_tempo tempo=333333 time=80>
<meta message set_tempo tempo=334262 time=80>
<meta message set_tempo tempo=335196 time=80>
note_on channel=0 note=52 velocity=0 time=0
note_on channel=0 note=40 velocity=91 time=0
<meta message set_tempo tempo=336134 time=80>
note_on channel=0 note=40 velocity=0 time=40
note_on channel=0 note=43 velocity=80 time=0
<meta message set_tempo tempo=337079 time=40>
note_on channel=0 note=43 velocity=0 time=74
<meta message set_tempo tempo=338028 time=6>
note_on channel=0 note=43 velocity=72 time=0
<meta message set_tempo tempo=338983 time=80>
note_on channel=0 note=43 velocity=0 time=40
note_on channel=0 note=46 velocity=71 time=0
<meta message set_tempo tempo=339943 time=40>
<meta message set_tempo tempo=340909 time=80>
note_on channel=0 note=46 velocity=0 time=0
note_on channel=0 note=49 velocity=70 time=0
<meta message set_tempo tempo=339943 time=40>
<meta message set_tempo tempo=338028 time=80>
<meta message set_tempo tempo=341880 time=40>
<meta message set_tempo tempo=359604 time=80>
note_on channel=0 note=49 velocity=0 time=0
note_on channel=0 note=46 velocity=71 time=0
note_on channel=0 note=43 velocity=71 time=0
note_on channel=0 note=37 velocity=104 time=0
control_change channel=0 control=64 value=0 time=12
control_change channel=0 control=64 value=127 time=63
note_on channel=0 note=43 velocity=0 time=45
note_on channel=0 note=46 velocity=0 time=0
note_on channel=0 note=52 velocity=63 time=0
note_on channel=0 note=52 velocity=0 time=120
note_on channel=0 note=46 velocity=71 time=0
note_on channel=0 note=43 velocity=71 time=0
note_on channel=0 note=43 velocity=0 time=120
note_on channel=0 note=46 velocity=0 time=0
note_on channel=0 note=52 velocity=63 time=0
note_on channel=0 note=52 velocity=0 time=120
note_on channel=0 note=37 velocity=0 time=0
note_on channel=0 note=46 velocity=71 time=0
note_on channel=0 note=43 velocity=71 time=0
note_on channel=0 note=43 velocity=0 time=120
note_on channel=0 note=46 velocity=0 time=0
note_on channel=0 note=52 velocity=63 time=0
<meta message set_tempo tempo=351906 time=120>
note_on channel=0 note=52 velocity=0 time=0
note_on channel=0 note=46 velocity=71 time=0
note_on channel=0 note=43 velocity=71 time=0
note_on channel=0 note=73 velocity=106 time=0
control_change channel=0 control=64 value=0 time=8
control_change channel=0 control=64 value=127 time=89
note_on channel=0 note=43 velocity=0 time=23
note_on channel=0 note=46 velocity=0 time=0
note_on channel=0 note=52 velocity=63 time=0
note_on channel=0 note=52 velocity=0 time=120
note_on channel=0 note=73 velocity=0 time=0
note_on channel=0 note=46 velocity=71 time=0
note_on channel=0 note=43 velocity=71 time=0
note_on channel=0 note=73 velocity=100 time=0
note_on channel=0 note=43 velocity=0 time=120
note_on channel=0 note=46 velocity=0 time=0
note_on channel=0 note=52 velocity=63 time=0
note_on channel=0 note=52 velocity=0 time=120
note_on channel=0 note=73 velocity=0 time=0
note_on channel=0 note=43 velocity=71 time=0
note_on channel=0 note=46 velocity=71 time=0
note_on channel=0 note=73 velocity=100 time=0
note_on channel=0 note=46 velocity=0 time=120
note_on channel=0 note=43 velocity=0 time=0
note_on channel=0 note=52 velocity=63 time=0
note_on channel=0 note=52 velocity=0 time=120
note_on channel=0 note=73 velocity=0 time=0
note_on channel=0 note=46 velocity=71 time=0
note_on channel=0 note=43 velocity=71 time=0
note_on channel=0 note=73 velocity=105 time=0
note_on channel=0 note=43 velocity=0 time=120
note_on channel=0 note=46 velocity=0 time=0
note_on channel=0 note=52 velocity=63 time=0
note_on channel=0 note=52 velocity=0 time=120
note_on channel=0 note=43 velocity=71 time=0
note_on channel=0 note=46 velocity=71 time=0
note_on channel=0 note=46 velocity=0 time=120
note_on channel=0 note=43 velocity=0 time=0
note_on channel=0 note=52 velocity=63 time=0
<meta message set_tempo tempo=360729 time=120>
note_on channel=0 note=52 velocity=0 time=0
note_on channel=0 note=73 velocity=0 time=0
note_on channel=0 note=46 velocity=71 time=0
note_on channel=0 note=43 velocity=71 time=0
note_on channel=0 note=43 velocity=0 time=120
note_on channel=0 note=46 velocity=0 time=0
note_on channel=0 note=52 velocity=63 time=0
control_change channel=0 control=64 value=0 time=103
<meta message set_tempo tempo=351906 time=17>
note_on channel=0 note=52 velocity=0 time=0
note_on channel=0 note=46 velocity=71 time=0
note_on channel=0 note=43 velocity=71 time=0
note_on channel=0 note=37 velocity=98 time=0
control_change channel=0 control=64 value=127 time=75
note_on channel=0 note=43 velocity=0 time=45
note_on channel=0 note=46 velocity=0 time=0
note_on channel=0 note=52 velocity=63 time=0
note_on channel=0 note=52 velocity=0 time=120
note_on channel=0 note=37 velocity=0 time=0
note_on channel=0 note=46 velocity=71 time=0
note_on channel=0 note=43 velocity=71 time=0
note_on channel=0 note=37 velocity=93 time=0
note_on channel=0 note=43 velocity=0 time=120
note_on channel=0 note=46 velocity=0 time=0
note_on channel=0 note=52 velocity=63 time=0
note_on channel=0 note=52 velocity=0 time=120
note_on channel=0 note=37 velocity=0 time=0
note_on channel=0 note=43 velocity=71 time=0
note_on channel=0 note=46 velocity=71 time=0
note_on channel=0 note=37 velocity=93 time=0
note_on channel=0 note=46 velocity=0 time=120
note_on channel=0 note=43 velocity=0 time=0
note_on channel=0 note=52 velocity=63 time=0
<meta message set_tempo tempo=359604 time=120>
note_on channel=0 note=52 velocity=0 time=0
note_on channel=0 note=37 velocity=0 time=0
note_on channel=0 note=43 velocity=71 time=0
note_on channel=0 note=46 velocity=71 time=0
note_on channel=0 note=37 velocity=100 time=0
control_change channel=0 control=64 value=0 time=18
control_change channel=0 control=64 value=127 time=57
note_on channel=0 note=46 velocity=0 time=45
note_on channel=0 note=43 velocity=0 time=0
note_on channel=0 note=52 velocity=63 time=0
note_on channel=0 note=52 velocity=0 time=120
note_on channel=0 note=46 velocity=71 time=0
note_on channel=0 note=43 velocity=71 time=0
note_on channel=0 note=43 velocity=0 time=120
note_on channel=0 note=46 velocity=0 time=0
note_on channel=0 note=52 velocity=63 time=0
note_on channel=0 note=52 velocity=0 time=120
note_on channel=0 note=37 velocity=0 time=0
note_on channel=0 note=43 velocity=71 time=0
note_on channel=0 note=46 velocity=71 time=0
note_on channel=0 note=46 velocity=0 time=120
note_on channel=0 note=43 velocity=0 time=0
note_on channel=0 note=52 velocity=63 time=0
<meta message set_tempo tempo=351906 time=120>
note_on channel=0 note=52 velocity=0 time=0
note_on channel=0 note=43 velocity=71 time=0
note_on channel=0 note=46 velocity=71 time=0
note_on channel=0 note=73 velocity=106 time=0
control_change channel=0 control=64 value=0 time=23
note_on channel=0 note=46 velocity=0 time=97
note_on channel=0 note=43 velocity=0 time=0
note_on channel=0 note=52 velocity=63 time=0
control_change channel=0 control=64 value=127 time=6
note_on channel=0 note=52 velocity=0 time=114
note_on channel=0 note=73 velocity=0 time=0
note_on channel=0 note=46 velocity=71 time=0
note_on channel=0 note=43 velocity=71 time=0
note_on channel=0 note=73 velocity=100 time=0
note_on channel=0 note=43 velocity=0 time=120
note_on channel=0 note=46 velocity=0 time=0
note_on channel=0 note=52 velocity=63 time=0
note_on channel=0 note=52 velocity=0 time=120
note_on channel=0 note=73 velocity=0 time=0
note_on channel=0 note=43 velocity=71 time=0
note_on channel=0 note=46 velocity=71 time=0
note_on channel=0 note=73 velocity=100 time=0
note_on channel=0 note=46 velocity=0 time=120
note_on channel=0 note=43 velocity=0 time=0
note_on channel=0 note=52 velocity=63 time=0
note_on channel=0 note=52 velocity=0 time=120
note_on channel=0 note=73 velocity=0 time=0
note_on channel=0 note=43 velocity=71 time=0
note_on channel=0 note=46 velocity=71 time=0
note_on channel=0 note=73 velocity=105 time=0
note_on channel=0 note=46 velocity=0 time=120
note_on channel=0 note=43 velocity=0 time=0
note_on channel=0 note=52 velocity=63 time=0
note_on channel=0 note=52 velocity=0 time=120
note_on channel=0 note=43 velocity=71 time=0
note_on channel=0 note=46 velocity=71 time=0
note_on channel=0 note=46 velocity=0 time=120
note_on channel=0 note=43 velocity=0 time=0
note_on channel=0 note=52 velocity=63 time=0
<meta message set_tempo tempo=360729 time=120>
note_on channel=0 note=52 velocity=0 time=0
note_on channel=0 note=73 velocity=0 time=0
note_on channel=0 note=43 velocity=71 time=0
note_on channel=0 note=46 velocity=71 time=0
note_on channel=0 note=46 velocity=0 time=120
note_on channel=0 note=43 velocity=0 time=0
note_on channel=0 note=52 velocity=63 time=0
<meta message set_tempo tempo=351906 time=120>
note_on channel=0 note=52 velocity=0 time=0
note_on channel=0 note=46 velocity=71 time=0
note_on channel=0 note=43 velocity=71 time=0
note_on channel=0 note=37 velocity=98 time=0
control_change channel=0 control=64 value=0 time=23
control_change channel=0 control=64 value=127 time=57
note_on channel=0 note=43 velocity=0 time=40
note_on channel=0 note=46 velocity=0 time=0
note_on channel=0 note=52 velocity=63 time=0
note_on channel=0 note=52 velocity=0 time=120
note_on channel=0 note=37 velocity=0 time=0
note_on channel=0 note=43 velocity=71 time=0
note_on channel=0 note=46 velocity=71 time=0
note_on channel=0 note=37 velocity=93 time=0
note_on channel=0 note=46 velocity=0 time=120
note_on channel=0 note=43 velocity=0 time=0
note_on channel=0 note=52 velocity=63 time=0
note_on channel=0 note=52 velocity=0 time=120
note_on channel=0 note=37 velocity=0 time=0
note_on channel=0 note=46 velocity=71 time=0
note_on channel=0 note=43 velocity=71 time=0
note_on channel=0 note=37 velocity=93 time=0
note_on channel=0 note=43 velocity=0 time=120
note_on channel=0 note=46 velocity=0 time=0
note_on channel=0 note=52 velocity=63 time=0
<meta message set_tempo tempo=359604 time=120>
note_on channel=0 note=52 velocity=0 time=0
note_on channel=0 note=37 velocity=0 time=0
note_on channel=0 note=46 velocity=71 time=0
note_on channel=0 note=43 velocity=71 time=0
note_on channel=0 note=36 velocity=100 time=0
control_change channel=0 control=64 value=0 time=11
control_change channel=0 control=64 value=127 time=46
note_on channel=0 note=43 velocity=0 time=63
note_on channel=0 note=46 velocity=0 time=0
note_on channel=0 note=52 velocity=63 time=0
note_on channel=0 note=52 velocity=0 time=120
note_on channel=0 note=43 velocity=71 time=0
note_on channel=0 note=46 velocity=71 time=0
note_on channel=0 note=46 velocity=0 time=120
note_on channel=0 note=43 velocity=0 time=0
note_on channel=0 note=52 velocity=63 time=0
note_on channel=0 note=52 velocity=0 time=120
note_on channel=0 note=36 velocity=0 time=0
note_on channel=0 note=43 velocity=71 time=0
note_on channel=0 note=46 velocity=71 time=0
note_on channel=0 note=46 velocity=0 time=120
note_on channel=0 note=43 velocity=0 time=0
note_on channel=0 note=52 velocity=63 time=0
<meta message set_tempo tempo=351906 time=120>
note_on channel=0 note=52 velocity=0 time=0
note_on channel=0 note=46 velocity=71 time=0
note_on channel=0 note=43 velocity=71 time=0
note_on channel=0 note=73 velocity=106 time=0
control_change channel=0 control=64 value=0 time=12
control_change channel=0 control=64 value=127 time=74
note_on channel=0 note=43 velocity=0 time=34
note_on channel=0 note=46 velocity=0 time=0
note_on channel=0 note=52 velocity=63 time=0
note_on channel=0 note=52 velocity=0 time=120
note_on channel=0 note=73 velocity=0 time=0
note_on channel=0 note=43 velocity=71 time=0
note_on channel=0 note=46 velocity=71 time=0
note_on channel=0 note=73 velocity=100 time=0
note_on channel=0 note=46 velocity=0 time=120
note_on channel=0 note=43 velocity=0 time=0
note_on channel=0 note=52 velocity=63 time=0
note_on channel=0 note=52 velocity=0 time=120
note_on channel=0 note=73 velocity=0 time=0
note_on channel=0 note=46 velocity=71 time=0
note_on channel=0 note=43 velocity=71 time=0
note_on channel=0 note=73 velocity=100 time=0
note_on channel=0 note=43 velocity=0 time=120
note_on channel=0 note=46 velocity=0 time=0
note_on channel=0 note=52 velocity=63 time=0
note_on channel=0 note=52 velocity=0 time=120
note_on channel=0 note=73 velocity=0 time=0
note_on channel=0 note=46 velocity=71 time=0
note_on channel=0 note=43 velocity=71 time=0
note_on channel=0 note=72 velocity=105 time=0
note_on channel=0 note=43 velocity=0 time=120
note_on channel=0 note=46 velocity=0 time=0
note_on channel=0 note=52 velocity=63 time=0
note_on channel=0 note=52 velocity=0 time=120
note_on channel=0 note=43 velocity=71 time=0
note_on channel=0 note=46 velocity=71 time=0
note_on channel=0 note=46 velocity=0 time=120
note_on channel=0 note=43 velocity=0 time=0
note_on channel=0 note=52 velocity=63 time=0
<meta message set_tempo tempo=360729 time=120>
note_on channel=0 note=52 velocity=0 time=0
note_on channel=0 note=72 velocity=0 time=0
note_on channel=0 note=43 velocity=71 time=0
note_on channel=0 note=46 velocity=71 time=0
note_on channel=0 note=46 velocity=0 time=120
note_on channel=0 note=43 velocity=0 time=0
note_on channel=0 note=52 velocity=63 time=0
<meta message set_tempo tempo=351906 time=120>
note_on channel=0 note=52 velocity=0 time=0
note_on channel=0 note=46 velocity=71 time=0
note_on channel=0 note=43 velocity=71 time=0
note_on channel=0 note=37 velocity=98 time=0
control_change channel=0 control=64 value=0 time=24
control_change channel=0 control=64 value=127 time=85
note_on channel=0 note=43 velocity=0 time=11
note_on channel=0 note=46 velocity=0 time=0
note_on channel=0 note=52 velocity=63 time=0
note_on channel=0 note=52 velocity=0 time=120
note_on channel=0 note=37 velocity=0 time=0
note_on channel=0 note=43 velocity=71 time=0
note_on channel=0 note=46 velocity=71 time=0
note_on channel=0 note=37 velocity=93 time=0
note_on channel=0 note=46 velocity=0 time=120
note_on channel=0 note=43 velocity=0 time=0
note_on channel=0 note=52 velocity=63 time=0
note_on channel=0 note=52 velocity=0 time=120
note_on channel=0 note=37 velocity=0 time=0
note_on channel=0 note=43 velocity=71 time=0
note_on channel=0 note=46 velocity=71 time=0
note_on channel=0 note=37 velocity=93 time=0
note_on channel=0 note=46 velocity=0 time=120
note_on channel=0 note=43 velocity=0 time=0
note_on channel=0 note=52 velocity=63 time=0
<meta message set_tempo tempo=359604 time=120>
note_on channel=0 note=52 velocity=0 time=0
note_on channel=0 note=37 velocity=0 time=0
note_on channel=0 note=43 velocity=71 time=0
note_on channel=0 note=46 velocity=71 time=0
note_on channel=0 note=36 velocity=100 time=0
control_change channel=0 control=64 value=0 time=10
control_change channel=0 control=64 value=127 time=59
note_on channel=0 note=46 velocity=0 time=51
note_on channel=0 note=43 velocity=0 time=0
note_on channel=0 note=52 velocity=63 time=0
note_on channel=0 note=52 velocity=0 time=120
note_on channel=0 note=43 velocity=71 time=0
note_on channel=0 note=46 velocity=71 time=0
note_on channel=0 note=46 velocity=0 time=120
note_on channel=0 note=43 velocity=0 time=0
note_on channel=0 note=52 velocity=63 time=0
note_on channel=0 note=52 velocity=0 time=120
note_on channel=0 note=36 velocity=0 time=0
note_on channel=0 note=43 velocity=71 time=0
note_on channel=0 note=46 velocity=71 time=0
note_on channel=0 note=46 velocity=0 time=120
note_on channel=0 note=43 velocity=0 time=0
note_on channel=0 note=52 velocity=63 time=0
<meta message set_tempo tempo=351906 time=120>
note_on channel=0 note=52 velocity=0 time=0
note_on channel=0 note=46 velocity=71 time=0
note_on channel=0 note=43 velocity=71 time=0
note_on channel=0 note=73 velocity=106 time=0
control_change channel=0 control=64 value=0 time=17
control_change channel=0 control=64 value=127 time=75
note_on channel=0 note=43 velocity=0 time=28
note_on channel=0 note=46 velocity=0 time=0
note_on channel=0 note=52 velocity=63 time=0
note_on channel=0 note=52 velocity=0 time=120
note_on channel=0 note=73 velocity=0 time=0
note_on channel=0 note=43 velocity=71 time=0
note_on channel=0 note=46 velocity=71 time=0
note_on channel=0 note=73 velocity=100 time=0
note_on channel=0 note=46 velocity=0 time=120
note_on channel=0 note=43 velocity=0 time=0
note_on channel=0 note=52 velocity=63 time=0
note_on channel=0 note=52 velocity=0 time=120
note_on channel=0 note=73 velocity=0 time=0
note_on channel=0 note=46 velocity=71 time=0
note_on channel=0 note=43 velocity=71 time=0
note_on channel=0 note=73 velocity=100 time=0
note_on channel=0 note=43 velocity=0 time=120
note_on channel=0 note=46 velocity=0 time=0
note_on channel=0 note=52 velocity=63 time=0
note_on channel=0 note=52 velocity=0 time=120
note_on channel=0 note=73 velocity=0 time=0
note_on channel=0 note=46 velocity=71 time=0
note_on channel=0 note=43 velocity=71 time=0
note_on channel=0 note=72 velocity=105 time=0
note_on channel=0 note=43 velocity=0 time=120
note_on channel=0 note=46 velocity=0 time=0
note_on channel=0 note=52 velocity=63 time=0
note_on channel=0 note=52 velocity=0 time=120
note_on channel=0 note=43 velocity=71 time=0
note_on channel=0 note=46 velocity=71 time=0
note_on channel=0 note=46 velocity=0 time=120
note_on channel=0 note=43 velocity=0 time=0
note_on channel=0 note=52 velocity=63 time=0
<meta message set_tempo tempo=360729 time=120>
note_on channel=0 note=52 velocity=0 time=0
note_on channel=0 note=72 velocity=0 time=0
note_on channel=0 note=43 velocity=71 time=0
note_on channel=0 note=46 velocity=71 time=0
note_on channel=0 note=46 velocity=0 time=120
note_on channel=0 note=43 velocity=0 time=0
note_on channel=0 note=52 velocity=63 time=0
<meta message set_tempo tempo=386274 time=120>
note_on channel=0 note=52 velocity=0 time=0
note_on channel=0 note=43 velocity=71 time=0
note_on channel=0 note=46 velocity=71 time=0
note_on channel=0 note=37 velocity=110 time=0
control_change channel=0 control=64 value=0 time=15
control_change channel=0 control=64 value=127 time=77
note_on channel=0 note=46 velocity=0 time=28
note_on channel=0 note=43 velocity=0 time=0
note_on channel=0 note=52 velocity=63 time=0
note_on channel=0 note=52 velocity=0 time=120
note_on channel=0 note=37 velocity=0 time=0
note_on channel=0 note=46 velocity=71 time=0
note_on channel=0 note=43 velocity=71 time=0
note_on channel=0 note=37 velocity=105 time=0
note_on channel=0 note=43 velocity=0 time=120
note_on channel=0 note=46 velocity=0 time=0
note_on channel=0 note=52 velocity=63 time=0
<meta message set_tempo tempo=407249 time=120>
note_on channel=0 note=52 velocity=0 time=0
note_on channel=0 note=37 velocity=0 time=0
note_on channel=0 note=43 velocity=71 time=0
note_on channel=0 note=46 velocity=71 time=0
note_on channel=0 note=37 velocity=105 time=0
note_on channel=0 note=46 velocity=0 time=120
note_on channel=0 note=43 velocity=0 time=0
note_on channel=0 note=52 velocity=63 time=0
<meta message set_tempo tempo=366972 time=120>
note_on channel=0 note=52 velocity=0 time=0
note_on channel=0 note=37 velocity=0 time=0
note_on channel=0 note=43 velocity=65 time=0
note_on channel=0 note=52 velocity=65 time=0
note_on channel=0 note=46 velocity=65 time=0
note_on channel=0 note=36 velocity=59 time=0
control_change channel=0 control=64 value=0 time=18
note_on channel=0 note=36 velocity=0 time=202
note_on channel=0 note=36 velocity=30 time=20
note_on channel=0 note=36 velocity=0 time=220
note_on channel=0 note=46 velocity=0 time=20
note_on channel=0 note=52 velocity=0 time=0
note_on channel=0 note=43 velocity=0 time=0
note_on channel=0 note=36 velocity=30 time=0
note_on channel=0 note=36 velocity=0 time=220
note_on channel=0 note=36 velocity=32 time=20
note_on channel=0 note=36 velocity=0 time=220
note_on channel=0 note=36 velocity=27 time=20
note_on channel=0 note=36 velocity=0 time=220
note_on channel=0 note=36 velocity=27 time=20
note_on channel=0 note=36 velocity=0 time=220
note_on channel=0 note=36 velocity=30 time=20
note_on channel=0 note=36 velocity=0 time=220
note_on channel=0 note=36 velocity=24 time=20
note_on channel=0 note=36 velocity=0 time=220
note_on channel=0 note=36 velocity=24 time=20
note_on channel=0 note=36 velocity=0 time=220
note_on channel=0 note=36 velocity=28 time=20
note_on channel=0 note=36 velocity=0 time=220
note_on channel=0 note=36 velocity=22 time=20
note_on channel=0 note=36 velocity=0 time=220
note_on channel=0 note=36 velocity=22 time=20
note_on channel=0 note=36 velocity=0 time=220
<meta message set_tempo tempo=366972 time=20>
note_on channel=0 note=36 velocity=24 time=0
note_on channel=0 note=36 velocity=0 time=220
note_on channel=0 note=36 velocity=22 time=20
note_on channel=0 note=36 velocity=0 time=220
note_on channel=0 note=36 velocity=22 time=20
note_on channel=0 note=36 velocity=0 time=220
note_on channel=0 note=36 velocity=24 time=20
note_on channel=0 note=36 velocity=0 time=220
note_on channel=0 note=36 velocity=20 time=20
note_on channel=0 note=36 velocity=0 time=220
note_on channel=0 note=36 velocity=20 time=20
note_on channel=0 note=36 velocity=0 time=220
note_on channel=0 note=36 velocity=23 time=20
note_on channel=0 note=36 velocity=0 time=220
note_on channel=0 note=36 velocity=18 time=20
note_on channel=0 note=36 velocity=0 time=220
note_on channel=0 note=36 velocity=23 time=20
note_on channel=0 note=36 velocity=0 time=220
note_on channel=0 note=48 velocity=27 time=20
note_on channel=0 note=60 velocity=35 time=0
note_on channel=0 note=36 velocity=23 time=0
note_on channel=0 note=36 velocity=0 time=220
note_on channel=0 note=36 velocity=20 time=20
note_on channel=0 note=36 velocity=0 time=220
note_on channel=0 note=36 velocity=22 time=20
note_on channel=0 note=60 velocity=0 time=120
note_on channel=0 note=48 velocity=0 time=0
note_on channel=0 note=56 velocity=31 time=0
note_on channel=0 note=44 velocity=25 time=0
note_on channel=0 note=36 velocity=0 time=100
note_on channel=0 note=44 velocity=0 time=20
note_on channel=0 note=56 velocity=0 time=0
note_on channel=0 note=41 velocity=22 time=0
note_on channel=0 note=53 velocity=28 time=0
note_on channel=0 note=36 velocity=23 time=0
note_on channel=0 note=36 velocity=0 time=220
note_on channel=0 note=36 velocity=20 time=20
note_on channel=0 note=36 velocity=0 time=220
note_on channel=0 note=36 velocity=22 time=20
note_on channel=0 note=36 velocity=0 time=220
note_on channel=0 note=36 velocity=23 time=20
note_on channel=0 note=36 velocity=0 time=220
note_on channel=0 note=36 velocity=20 time=20
note_on channel=0 note=36 velocity=0 time=220
note_on channel=0 note=36 velocity=22 time=20
note_on channel=0 note=36 velocity=0 time=220
<meta message set_tempo tempo=381219 time=20>
note_on channel=0 note=36 velocity=23 time=0
note_on channel=0 note=36 velocity=0 time=220
note_on channel=0 note=36 velocity=20 time=20
note_on channel=0 note=36 velocity=0 time=220
note_on channel=0 note=36 velocity=22 time=20
note_on channel=0 note=36 velocity=0 time=220
note_on channel=0 note=53 velocity=0 time=20
note_on channel=0 note=41 velocity=0 time=0
note_on channel=0 note=56 velocity=35 time=0
note_on channel=0 note=44 velocity=27 time=0
note_on channel=0 note=36 velocity=23 time=0
note_on channel=0 note=36 velocity=0 time=220
<meta message set_tempo tempo=386548 time=20>
note_on channel=0 note=36 velocity=20 time=0
note_on channel=0 note=36 velocity=0 time=220
note_on channel=0 note=36 velocity=22 time=20
<meta message set_tempo tempo=426834 time=120>
note_on channel=0 note=44 velocity=0 time=0
note_on channel=0 note=56 velocity=0 time=0
note_on channel=0 note=48 velocity=24 time=0
note_on channel=0 note=60 velocity=30 time=0
note_on channel=0 note=36 velocity=0 time=100
<meta message set_tempo tempo=349854 time=20>
note_on channel=0 note=60 velocity=0 time=0
note_on channel=0 note=48 velocity=0 time=0
note_on channel=0 note=65 velocity=35 time=0
note_on channel=0 note=53 velocity=27 time=0
note_on channel=0 note=36 velocity=23 time=0
note_on channel=0 note=36 velocity=0 time=220
note_on channel=0 note=36 velocity=20 time=20
note_on channel=0 note=36 velocity=0 time=220
note_on channel=0 note=36 velocity=22 time=20
note_on channel=0 note=36 velocity=0 time=220
<meta message set_tempo tempo=368505 time=20>
note_on channel=0 note=53 velocity=0 time=0
note_on channel=0 note=65 velocity=0 time=0
note_on channel=0 note=68 velocity=36 time=0
note_on channel=0 note=56 velocity=28 time=0
note_on channel=0 note=36 velocity=23 time=0
note_on channel=0 note=36 velocity=0 time=220
<meta message set_tempo tempo=374298 time=20>
note_on channel=0 note=36 velocity=20 time=0
note_on channel=0 note=36 velocity=0 time=220
note_on channel=0 note=36 velocity=22 time=20
<meta message set_tempo tempo=403497 time=120>
note_on channel=0 note=56 velocity=0 time=0
note_on channel=0 note=68 velocity=0 time=0
note_on channel=0 note=72 velocity=31 time=0
note_on channel=0 note=60 velocity=25 time=0
note_on channel=0 note=36 velocity=0 time=100
<meta message set_tempo tempo=368505 time=20>
note_on channel=0 note=60 velocity=0 time=0
note_on channel=0 note=72 velocity=0 time=0
note_on channel=0 note=77 velocity=40 time=0
note_on channel=0 note=65 velocity=31 time=0
note_on channel=0 note=36 velocity=23 time=0
note_on channel=0 note=36 velocity=0 time=220
note_on channel=0 note=36 velocity=20 time=20
note_on channel=0 note=36 velocity=0 time=220
<meta message set_tempo tempo=389282 time=20>
note_on channel=0 note=36 velocity=22 time=0
note_on channel=0 note=36 velocity=0 time=220
note_on channel=0 note=65 velocity=0 time=15
note_on channel=0 note=77 velocity=0 time=0
<meta message set_tempo tempo=368505 time=5>
note_on channel=0 note=65 velocity=33 time=0
note_on channel=0 note=53 velocity=26 time=0
note_on channel=0 note=36 velocity=23 time=0
note_on channel=0 note=36 velocity=0 time=220
note_on channel=0 note=36 velocity=20 time=20
note_on channel=0 note=36 velocity=0 time=220
note_on channel=0 note=36 velocity=22 time=20
note_on channel=0 note=36 velocity=0 time=220
note_on channel=0 note=53 velocity=0 time=20
note_on channel=0 note=65 velocity=0 time=0
note_on channel=0 note=67 velocity=26 time=0
note_on channel=0 note=64 velocity=26 time=0
note_on channel=0 note=72 velocity=35 time=0
note_on channel=0 note=36 velocity=23 time=0
control_change channel=0 control=64 value=127 time=92
note_on channel=0 note=36 velocity=0 time=128
note_on channel=0 note=36 velocity=20 time=20
note_on channel=0 note=36 velocity=0 time=220
note_on channel=0 note=36 velocity=22 time=20
note_on channel=0 note=36 velocity=0 time=220
note_on channel=0 note=36 velocity=23 time=20
note_on channel=0 note=36 velocity=0 time=220
note_on channel=0 note=36 velocity=20 time=20
note_on channel=0 note=36 velocity=0 time=220
<meta message set_tempo tempo=394841 time=20>
note_on channel=0 note=72 velocity=0 time=0
note_on channel=0 note=74 velocity=33 time=0
note_on channel=0 note=36 velocity=22 time=0
note_on channel=0 note=36 velocity=0 time=220
<meta message set_tempo tempo=335196 time=20>
note_on channel=0 note=67 velocity=0 time=0
note_on channel=0 note=64 velocity=0 time=0
note_on channel=0 note=74 velocity=0 time=0
note_on channel=0 note=65 velocity=26 time=0
note_on channel=0 note=71 velocity=26 time=0
note_on channel=0 note=74 velocity=33 time=0
note_on channel=0 note=36 velocity=23 time=0
control_change channel=0 control=64 value=0 time=12
control_change channel=0 control=64 value=127 time=57
<meta message set_tempo tempo=334262 time=11>
note_on channel=0 note=74 velocity=0 time=0
note_on channel=0 note=76 velocity=29 time=0
<meta message set_tempo tempo=333333 time=80>
note_on channel=0 note=76 velocity=0 time=0
note_on channel=0 note=74 velocity=33 time=0
note_on channel=0 note=36 velocity=0 time=60
<meta message set_tempo tempo=332410 time=20>
note_on channel=0 note=74 velocity=0 time=0
note_on channel=0 note=76 velocity=29 time=0
note_on channel=0 note=36 velocity=20 time=0
<meta message set_tempo tempo=331492 time=40>
note_on channel=0 note=76 velocity=0 time=40
note_on channel=0 note=74 velocity=33 time=0
<meta message set_tempo tempo=330579 time=40>
note_on channel=0 note=74 velocity=0 time=40
note_on channel=0 note=76 velocity=30 time=0
<meta message set_tempo tempo=329670 time=40>
note_on channel=0 note=36 velocity=0 time=20
<meta message set_tempo tempo=328767 time=20>
note_on channel=0 note=76 velocity=0 time=0
note_on channel=0 note=74 velocity=33 time=0
note_on channel=0 note=36 velocity=22 time=0
<meta message set_tempo tempo=329670 time=80>
note_on channel=0 note=74 velocity=0 time=0
note_on channel=0 note=76 velocity=29 time=0
<meta message set_tempo tempo=330579 time=40>
note_on channel=0 note=76 velocity=0 time=40
note_on channel=0 note=74 velocity=33 time=0
<meta message set_tempo tempo=331492 time=40>
note_on channel=0 note=36 velocity=0 time=20
<meta message set_tempo tempo=332410 time=20>
note_on channel=0 note=74 velocity=0 time=0
note_on channel=0 note=76 velocity=30 time=0
note_on channel=0 note=36 velocity=23 time=0
<meta message set_tempo tempo=333333 time=40>
note_on channel=0 note=76 velocity=0 time=40
note_on channel=0 note=74 velocity=28 time=0
<meta message set_tempo tempo=334262 time=40>
<meta message set_tempo tempo=335196 time=40>
note_on channel=0 note=74 velocity=0 time=0
note_on channel=0 note=76 velocity=33 time=0
<meta message set_tempo tempo=336134 time=40>
<meta message set_tempo tempo=378621 time=20>
note_on channel=0 note=36 velocity=0 time=0
<meta message set_tempo tempo=379891 time=20>
note_on channel=0 note=76 velocity=0 time=0
note_on channel=0 note=74 velocity=28 time=0
note_on channel=0 note=36 velocity=20 time=0
<meta message set_tempo tempo=418760 time=120>
note_on channel=0 note=74 velocity=0 time=0
note_on channel=0 note=72 velocity=30 time=0
note_on channel=0 note=36 velocity=0 time=100
note_on channel=0 note=72 velocity=0 time=20
note_on channel=0 note=76 velocity=35 time=0
note_on channel=0 note=36 velocity=22 time=0
<meta message set_tempo tempo=458751 time=120>
note_on channel=0 note=76 velocity=0 time=0
note_on channel=0 note=74 velocity=31 time=0
note_on channel=0 note=36 velocity=0 time=100
<meta message set_tempo tempo=373832 time=20>
note_on channel=0 note=65 velocity=0 time=0
note_on channel=0 note=71 velocity=0 time=0
note_on channel=0 note=74 velocity=0 time=0
note_on channel=0 note=72 velocity=35 time=0
note_on channel=0 note=64 velocity=19 time=0
note_on channel=0 note=67 velocity=22 time=0
note_on channel=0 note=36 velocity=23 time=0
control_change channel=0 control=64 value=0 time=7
note_on channel=0 note=36 velocity=0 time=213
note_on channel=0 note=36 velocity=20 time=20
note_on channel=0 note=36 velocity=0 time=220
note_on channel=0 note=67 velocity=0 time=20
note_on channel=0 note=64 velocity=0 time=0
note_on channel=0 note=72 velocity=0 time=0
note_on channel=0 note=36 velocity=22 time=0
note_on channel=0 note=36 velocity=0 time=220
note_on channel=0 note=36 velocity=23 time=20
note_on channel=0 note=36 velocity=0 time=220
note_on channel=0 note=36 velocity=20 time=20
note_on channel=0 note=36 velocity=0 time=220
note_on channel=0 note=36 velocity=22 time=20
note_on channel=0 note=36 velocity=0 time=220
<meta message set_tempo tempo=423042 time=20>
note_on channel=0 note=36 velocity=23 time=0
note_on channel=0 note=36 velocity=0 time=220
<meta message set_tempo tempo=388777 time=20>
note_on channel=0 note=37 velocity=20 time=0
note_on channel=0 note=37 velocity=0 time=220
note_on channel=0 note=37 velocity=22 time=20
note_on channel=0 note=37 velocity=0 time=220
<meta message set_tempo tempo=381219 time=20>
note_on channel=0 note=61 velocity=35 time=0
note_on channel=0 note=49 velocity=27 time=0
note_on channel=0 note=37 velocity=23 time=0
note_on channel=0 note=37 velocity=0 time=220
<meta message set_tempo tempo=405762 time=20>
note_on channel=0 note=37 velocity=20 time=0
note_on channel=0 note=37 velocity=0 time=220
note_on channel=0 note=37 velocity=22 time=20
<meta message set_tempo tempo=540492 time=120>
note_on channel=0 note=49 velocity=0 time=0
note_on channel=0 note=61 velocity=0 time=0
note_on channel=0 note=58 velocity=31 time=0
note_on channel=0 note=46 velocity=25 time=0
note_on channel=0 note=37 velocity=0 time=100
<meta message set_tempo tempo=368505 time=20>
note_on channel=0 note=46 velocity=0 time=0
note_on channel=0 note=58 velocity=0 time=0
note_on channel=0 note=54 velocity=28 time=0
note_on channel=0 note=42 velocity=22 time=0
note_on channel=0 note=37 velocity=23 time=0
note_on channel=0 note=37 velocity=0 time=220
note_on channel=0 note=37 velocity=20 time=20
note_on channel=0 note=37 velocity=0 time=220
note_on channel=0 note=37 velocity=22 time=20
note_on channel=0 note=37 velocity=0 time=220
note_on channel=0 note=37 velocity=23 time=20
note_on channel=0 note=37 velocity=0 time=220
note_on channel=0 note=37 velocity=20 time=20
note_on channel=0 note=37 velocity=0 time=220
note_on channel=0 note=37 velocity=22 time=20
note_on channel=0 note=37 velocity=0 time=220
<meta message set_tempo tempo=381219 time=20>
note_on channel=0 note=37 velocity=23 time=0
note_on channel=0 note=37 velocity=0 time=220
note_on channel=0 note=37 velocity=20 time=20
note_on channel=0 note=37 velocity=0 time=220
note_on channel=0 note=37 velocity=22 time=20
note_on channel=0 note=37 velocity=0 time=220
note_on channel=0 note=42 velocity=0 time=20
note_on channel=0 note=54 velocity=0 time=0
note_on channel=0 note=46 velocity=27 time=0
note_on channel=0 note=58 velocity=35 time=0
note_on channel=0 note=37 velocity=23 time=0
note_on channel=0 note=37 velocity=0 time=220
<meta message set_tempo tempo=393520 time=20>
note_on channel=0 note=37 velocity=20 time=0
note_on channel=0 note=37 velocity=0 time=220
note_on channel=0 note=37 velocity=22 time=20
<meta message set_tempo tempo=426834 time=120>
note_on channel=0 note=58 velocity=0 time=0
note_on channel=0 note=46 velocity=0 time=0
note_on channel=0 note=61 velocity=30 time=0
note_on channel=0 note=49 velocity=24 time=0
note_on channel=0 note=37 velocity=0 time=100
<meta message set_tempo tempo=349854 time=20>
note_on channel=0 note=49 velocity=0 time=0
note_on channel=0 note=61 velocity=0 time=0
note_on channel=0 note=54 velocity=27 time=0
note_on channel=0 note=66 velocity=35 time=0
note_on channel=0 note=37 velocity=23 time=0
note_on channel=0 note=37 velocity=0 time=220
note_on channel=0 note=37 velocity=20 time=20
note_on channel=0 note=37 velocity=0 time=220
note_on channel=0 note=37 velocity=22 time=20
note_on channel=0 note=37 velocity=0 time=220
<meta message set_tempo tempo=368505 time=20>
note_on channel=0 note=66 velocity=0 time=0
note_on channel=0 note=54 velocity=0 time=0
note_on channel=0 note=70 velocity=36 time=0
note_on channel=0 note=58 velocity=28 time=0
note_on channel=0 note=37 velocity=23 time=0
note_on channel=0 note=37 velocity=0 time=220
<meta message set_tempo tempo=371080 time=20>
note_on channel=0 note=37 velocity=20 time=0
note_on channel=0 note=37 velocity=0 time=220
note_on channel=0 note=37 velocity=22 time=20
<meta message set_tempo tempo=403497 time=120>
note_on channel=0 note=58 velocity=0 time=0
note_on channel=0 note=70 velocity=0 time=0
note_on channel=0 note=61 velocity=25 time=0
note_on channel=0 note=73 velocity=31 time=0
note_on channel=0 note=37 velocity=0 time=100
<meta message set_tempo tempo=368505 time=20>
note_on channel=0 note=73 velocity=0 time=0
note_on channel=0 note=61 velocity=0 time=0
note_on channel=0 note=78 velocity=40 time=0
note_on channel=0 note=66 velocity=31 time=0
note_on channel=0 note=37 velocity=23 time=0
note_on channel=0 note=37 velocity=0 time=220
note_on channel=0 note=37 velocity=20 time=20
note_on channel=0 note=37 velocity=0 time=220
<meta message set_tempo tempo=389282 time=20>
note_on channel=0 note=37 velocity=22 time=0
note_on channel=0 note=37 velocity=0 time=220
<meta message set_tempo tempo=368505 time=20>
note_on channel=0 note=66 velocity=0 time=0
note_on channel=0 note=78 velocity=0 time=0
note_on channel=0 note=54 velocity=26 time=0
note_on channel=0 note=66 velocity=33 time=0
note_on channel=0 note=37 velocity=23 time=0
note_on channel=0 note=37 velocity=0 time=220
note_on channel=0 note=37 velocity=20 time=20
note_on channel=0 note=37 velocity=0 time=220
note_on channel=0 note=37 velocity=22 time=20
note_on channel=0 note=37 velocity=0 time=220
note_on channel=0 note=66 velocity=0 time=20
note_on channel=0 note=54 velocity=0 time=0
note_on channel=0 note=65 velocity=26 time=0
note_on channel=0 note=68 velocity=26 time=0
note_on channel=0 note=73 velocity=35 time=0
note_on channel=0 note=37 velocity=23 time=0
control_change channel=0 control=64 value=127 time=120
note_on channel=0 note=37 velocity=0 time=100
note_on channel=0 note=37 velocity=20 time=20
note_on channel=0 note=37 velocity=0 time=220
note_on channel=0 note=37 velocity=22 time=20
note_on channel=0 note=37 velocity=0 time=220
note_on channel=0 note=37 velocity=23 time=20
note_on channel=0 note=37 velocity=0 time=220
note_on channel=0 note=37 velocity=20 time=20
note_on channel=0 note=37 velocity=0 time=220
<meta message set_tempo tempo=394841 time=20>
note_on channel=0 note=73 velocity=0 time=0
note_on channel=0 note=75 velocity=33 time=0
note_on channel=0 note=37 velocity=22 time=0
note_on channel=0 note=37 velocity=0 time=220
<meta message set_tempo tempo=337079 time=20>
note_on channel=0 note=65 velocity=0 time=0
note_on channel=0 note=68 velocity=0 time=0
note_on channel=0 note=75 velocity=0 time=0
note_on channel=0 note=75 velocity=28 time=0
note_on channel=0 note=66 velocity=26 time=0
note_on channel=0 note=72 velocity=26 time=0
note_on channel=0 note=37 velocity=23 time=0
control_change channel=0 control=64 value=0 time=14
control_change channel=0 control=64 value=127 time=64
<meta message set_tempo tempo=336134 time=2>
note_on channel=0 note=75 velocity=0 time=0
note_on channel=0 note=77 velocity=25 time=0
<meta message set_tempo tempo=335196 time=80>
note_on channel=0 note=77 velocity=0 time=0
note_on channel=0 note=75 velocity=28 time=0
<meta message set_tempo tempo=334262 time=40>
note_on channel=0 note=37 velocity=0 time=20
note_on channel=0 note=75 velocity=0 time=20
note_on channel=0 note=77 velocity=25 time=0
note_on channel=0 note=37 velocity=20 time=0
<meta message set_tempo tempo=333333 time=40>
note_on channel=0 note=77 velocity=0 time=40
note_on channel=0 note=75 velocity=28 time=0
<meta message set_tempo tempo=332410 time=40>
<meta message set_tempo tempo=331492 time=40>
note_on channel=0 note=75 velocity=0 time=0
note_on channel=0 note=77 velocity=25 time=0
note_on channel=0 note=37 velocity=0 time=60
<meta message set_tempo tempo=330579 time=20>
note_on channel=0 note=77 velocity=0 time=0
note_on channel=0 note=75 velocity=29 time=0
note_on channel=0 note=37 velocity=22 time=0
<meta message set_tempo tempo=329670 time=40>
note_on channel=0 note=75 velocity=0 time=40
note_on channel=0 note=77 velocity=25 time=0
<meta message set_tempo tempo=330579 time=40>
<meta message set_tempo tempo=331492 time=40>
note_on channel=0 note=77 velocity=0 time=0
note_on channel=0 note=75 velocity=29 time=0
<meta message set_tempo tempo=332410 time=40>
note_on channel=0 note=37 velocity=0 time=20
<meta message set_tempo tempo=333333 time=20>
note_on channel=0 note=75 velocity=0 time=0
note_on channel=0 note=77 velocity=26 time=0
note_on channel=0 note=37 velocity=23 time=0
<meta message set_tempo tempo=334262 time=40>
<meta message set_tempo tempo=335196 time=40>
note_on channel=0 note=77 velocity=0 time=0
note_on channel=0 note=75 velocity=29 time=0
<meta message set_tempo tempo=336134 time=40>
<meta message set_tempo tempo=337079 time=40>
note_on channel=0 note=75 velocity=0 time=0
note_on channel=0 note=77 velocity=27 time=0
<meta message set_tempo tempo=338028 time=40>
<meta message set_tempo tempo=378621 time=20>
note_on channel=0 note=37 velocity=0 time=0
<meta message set_tempo tempo=379891 time=20>
note_on channel=0 note=77 velocity=0 time=0
note_on channel=0 note=75 velocity=24 time=0
note_on channel=0 note=37 velocity=20 time=0
<meta message set_tempo tempo=418760 time=120>
note_on channel=0 note=75 velocity=0 time=0
note_on channel=0 note=73 velocity=30 time=0
note_on channel=0 note=37 velocity=0 time=100
note_on channel=0 note=73 velocity=0 time=20
note_on channel=0 note=77 velocity=35 time=0
note_on channel=0 note=37 velocity=22 time=0
<meta message set_tempo tempo=458751 time=120>
note_on channel=0 note=77 velocity=0 time=0
note_on channel=0 note=75 velocity=31 time=0
note_on channel=0 note=37 velocity=0 time=100
<meta message set_tempo tempo=370028 time=20>
note_on channel=0 note=66 velocity=0 time=0
note_on channel=0 note=72 velocity=0 time=0
note_on channel=0 note=75 velocity=0 time=0
note_on channel=0 note=73 velocity=35 time=0
note_on channel=0 note=65 velocity=19 time=0
note_on channel=0 note=68 velocity=22 time=0
note_on channel=0 note=37 velocity=23 time=0
control_change channel=0 control=64 value=0 time=10
note_on channel=0 note=37 velocity=0 time=210
note_on channel=0 note=41 velocity=20 time=20
note_on channel=0 note=35 velocity=15 time=0
note_on channel=0 note=35 velocity=0 time=220
note_on channel=0 note=41 velocity=0 time=0
note_on channel=0 note=68 velocity=0 time=20
note_on channel=0 note=65 velocity=0 time=0
note_on channel=0 note=73 velocity=0 time=0
note_on channel=0 note=41 velocity=22 time=0
note_on channel=0 note=35 velocity=16 time=0
note_on channel=0 note=35 velocity=0 time=220
note_on channel=0 note=41 velocity=0 time=0
note_on channel=0 note=41 velocity=23 time=20
note_on channel=0 note=35 velocity=17 time=0
note_on channel=0 note=35 velocity=0 time=220
note_on channel=0 note=41 velocity=0 time=0
note_on channel=0 note=41 velocity=20 time=20
note_on channel=0 note=35 velocity=15 time=0
note_on channel=0 note=35 velocity=0 time=220
note_on channel=0 note=41 velocity=0 time=0
note_on channel=0 note=41 velocity=22 time=20
note_on channel=0 note=35 velocity=16 time=0
note_on channel=0 note=35 velocity=0 time=220
note_on channel=0 note=41 velocity=0 time=0
note_on channel=0 note=41 velocity=23 time=20
note_on channel=0 note=35 velocity=17 time=0
note_on channel=0 note=35 velocity=0 time=220
note_on channel=0 note=41 velocity=0 time=0
note_on channel=0 note=35 velocity=15 time=20
note_on channel=0 note=41 velocity=20 time=0
note_on channel=0 note=41 velocity=0 time=220
note_on channel=0 note=35 velocity=0 time=0
note_on channel=0 note=35 velocity=16 time=20
note_on channel=0 note=41 velocity=22 time=0
note_on channel=0 note=41 velocity=0 time=220
note_on channel=0 note=35 velocity=0 time=0
note_on channel=0 note=35 velocity=17 time=20
note_on channel=0 note=41 velocity=23 time=0
note_on channel=0 note=41 velocity=0 time=220
note_on channel=0 note=35 velocity=0 time=0
note_on channel=0 note=35 velocity=15 time=20
note_on channel=0 note=41 velocity=20 time=0
note_on channel=0 note=41 velocity=0 time=220
note_on channel=0 note=35 velocity=0 time=0
note_on channel=0 note=35 velocity=16 time=20
note_on channel=0 note=41 velocity=22 time=0
note_on channel=0 note=41 velocity=0 time=220
note_on channel=0 note=35 velocity=0 time=0
<meta message set_tempo tempo=367940 time=20>
note_on channel=0 note=72 velocity=35 time=0
note_on channel=0 note=40 velocity=26 time=0
control_change channel=0 control=64 value=127 time=49
note_on channel=0 note=36 velocity=20 time=191
note_on channel=0 note=36 velocity=0 time=220
note_on channel=0 note=36 velocity=22 time=20
note_on channel=0 note=36 velocity=0 time=220
note_on channel=0 note=36 velocity=23 time=20
note_on channel=0 note=36 velocity=0 time=220
note_on channel=0 note=36 velocity=20 time=20
note_on channel=0 note=36 velocity=0 time=220
<meta message set_tempo tempo=394841 time=20>
note_on channel=0 note=72 velocity=0 time=0
note_on channel=0 note=74 velocity=38 time=0
note_on channel=0 note=36 velocity=22 time=0
note_on channel=0 note=74 velocity=0 time=180
note_on channel=0 note=72 velocity=38 time=0
note_on channel=0 note=36 velocity=0 time=40
<meta message set_tempo tempo=337079 time=20>
note_on channel=0 note=72 velocity=0 time=0
note_on channel=0 note=40 velocity=0 time=0
note_on channel=0 note=74 velocity=37 time=0
note_on channel=0 note=41 velocity=26 time=0
control_change channel=0 control=64 value=0 time=17
control_change channel=0 control=64 value=127 time=43
<meta message set_tempo tempo=336134 time=20>
note_on channel=0 note=74 velocity=0 time=0
note_on channel=0 note=76 velocity=32 time=0
<meta message set_tempo tempo=335196 time=80>
note_on channel=0 note=76 velocity=0 time=0
note_on channel=0 note=74 velocity=37 time=0
<meta message set_tempo tempo=334262 time=80>
note_on channel=0 note=74 velocity=0 time=0
note_on channel=0 note=76 velocity=33 time=0
note_on channel=0 note=36 velocity=20 time=0
<meta message set_tempo tempo=333333 time=40>
note_on channel=0 note=76 velocity=0 time=40
note_on channel=0 note=74 velocity=37 time=0
<meta message set_tempo tempo=332410 time=40>
note_on channel=0 note=74 velocity=0 time=40
note_on channel=0 note=76 velocity=33 time=0
<meta message set_tempo tempo=331492 time=40>
note_on channel=0 note=36 velocity=0 time=20
<meta message set_tempo tempo=330579 time=20>
note_on channel=0 note=76 velocity=0 time=0
note_on channel=0 note=74 velocity=37 time=0
note_on channel=0 note=36 velocity=22 time=0
<meta message set_tempo tempo=331492 time=80>
note_on channel=0 note=74 velocity=0 time=0
note_on channel=0 note=76 velocity=33 time=0
<meta message set_tempo tempo=332410 time=80>
note_on channel=0 note=76 velocity=0 time=0
note_on channel=0 note=74 velocity=37 time=0
note_on channel=0 note=36 velocity=0 time=60
<meta message set_tempo tempo=333333 time=20>
note_on channel=0 note=74 velocity=0 time=0
note_on channel=0 note=76 velocity=34 time=0
note_on channel=0 note=36 velocity=23 time=0
<meta message set_tempo tempo=334262 time=80>
note_on channel=0 note=76 velocity=0 time=0
note_on channel=0 note=74 velocity=31 time=0
<meta message set_tempo tempo=335196 time=80>
note_on channel=0 note=74 velocity=0 time=0
note_on channel=0 note=76 velocity=37 time=0
note_on channel=0 note=36 velocity=0 time=60
<meta message set_tempo tempo=336134 time=20>
note_on channel=0 note=76 velocity=0 time=0
note_on channel=0 note=74 velocity=31 time=0
note_on channel=0 note=36 velocity=20 time=0
<meta message set_tempo tempo=337079 time=40>
<meta message set_tempo tempo=418760 time=80>
note_on channel=0 note=74 velocity=0 time=0
note_on channel=0 note=72 velocity=34 time=0
note_on channel=0 note=36 velocity=0 time=100
note_on channel=0 note=72 velocity=0 time=20
note_on channel=0 note=76 velocity=40 time=0
note_on channel=0 note=36 velocity=22 time=0
<meta message set_tempo tempo=458751 time=120>
note_on channel=0 note=76 velocity=0 time=0
note_on channel=0 note=74 velocity=35 time=0
note_on channel=0 note=36 velocity=0 time=100
<meta message set_tempo tempo=378549 time=20>
note_on channel=0 note=74 velocity=0 time=0
note_on channel=0 note=41 velocity=0 time=0
note_on channel=0 note=72 velocity=35 time=0
note_on channel=0 note=40 velocity=26 time=0
control_change channel=0 control=64 value=0 time=4
note_on channel=0 note=40 velocity=0 time=216
note_on channel=0 note=36 velocity=20 time=20
note_on channel=0 note=36 velocity=0 time=220
note_on channel=0 note=72 velocity=0 time=20
note_on channel=0 note=36 velocity=22 time=0
note_on channel=0 note=36 velocity=0 time=220
<meta message set_tempo tempo=383387 time=20>
note_on channel=0 note=49 velocity=27 time=0
note_on channel=0 note=36 velocity=23 time=0
note_on channel=0 note=36 velocity=0 time=220
note_on channel=0 note=49 velocity=0 time=0
<meta message set_tempo tempo=392157 time=20>
note_on channel=0 note=36 velocity=20 time=0
note_on channel=0 note=49 velocity=26 time=0
note_on channel=0 note=49 velocity=0 time=220
note_on channel=0 note=36 velocity=0 time=0
<meta message set_tempo tempo=406780 time=20>
note_on channel=0 note=49 velocity=26 time=0
note_on channel=0 note=36 velocity=22 time=0
note_on channel=0 note=36 velocity=0 time=220
note_on channel=0 note=49 velocity=0 time=0
<meta message set_tempo tempo=370028 time=20>
note_on channel=0 note=48 velocity=26 time=0
note_on channel=0 note=36 velocity=26 time=0
note_on channel=0 note=36 velocity=0 time=220
note_on channel=0 note=36 velocity=20 time=20
note_on channel=0 note=36 velocity=0 time=220
note_on channel=0 note=48 velocity=0 time=20
note_on channel=0 note=36 velocity=22 time=0
note_on channel=0 note=36 velocity=0 time=220
note_on channel=0 note=36 velocity=23 time=20
note_on channel=0 note=36 velocity=0 time=220
note_on channel=0 note=36 velocity=20 time=20
note_on channel=0 note=36 velocity=0 time=220
note_on channel=0 note=36 velocity=22 time=20
note_on channel=0 note=36 velocity=0 time=220
<meta message set_tempo tempo=367940 time=20>
note_on channel=0 note=76 velocity=40 time=0
note_on channel=0 note=43 velocity=26 time=0
control_change channel=0 control=64 value=127 time=120
note_on channel=0 note=36 velocity=20 time=120
note_on channel=0 note=36 velocity=0 time=220
note_on channel=0 note=36 velocity=22 time=20
note_on channel=0 note=36 velocity=0 time=220
note_on channel=0 note=36 velocity=23 time=20
note_on channel=0 note=36 velocity=0 time=220
note_on channel=0 note=36 velocity=20 time=20
note_on channel=0 note=36 velocity=0 time=220
<meta message set_tempo tempo=394841 time=20>
note_on channel=0 note=76 velocity=0 time=0
note_on channel=0 note=77 velocity=38 time=0
note_on channel=0 note=36 velocity=22 time=0
note_on channel=0 note=77 velocity=0 time=180
note_on channel=0 note=76 velocity=38 time=0
note_on channel=0 note=36 velocity=0 time=40
<meta message set_tempo tempo=337079 time=20>
note_on channel=0 note=76 velocity=0 time=0
note_on channel=0 note=43 velocity=0 time=0
note_on channel=0 note=77 velocity=37 time=0
note_on channel=0 note=44 velocity=26 time=0
control_change channel=0 control=64 value=0 time=18
<meta message set_tempo tempo=336134 time=62>
note_on channel=0 note=77 velocity=0 time=0
note_on channel=0 note=79 velocity=32 time=0
control_change channel=0 control=64 value=127 time=8
<meta message set_tempo tempo=335196 time=72>
note_on channel=0 note=79 velocity=0 time=0
note_on channel=0 note=77 velocity=37 time=0
<meta message set_tempo tempo=334262 time=80>
note_on channel=0 note=77 velocity=0 time=0
note_on channel=0 note=79 velocity=33 time=0
note_on channel=0 note=36 velocity=20 time=0
<meta message set_tempo tempo=333333 time=80>
note_on channel=0 note=79 velocity=0 time=0
note_on channel=0 note=77 velocity=37 time=0
<meta message set_tempo tempo=332410 time=80>
note_on channel=0 note=77 velocity=0 time=0
note_on channel=0 note=79 velocity=33 time=0
<meta message set_tempo tempo=331492 time=40>
note_on channel=0 note=36 velocity=0 time=20
note_on channel=0 note=79 velocity=0 time=20
note_on channel=0 note=77 velocity=37 time=0
note_on channel=0 note=36 velocity=22 time=0
<meta message set_tempo tempo=332410 time=40>
note_on channel=0 note=77 velocity=0 time=40
note_on channel=0 note=79 velocity=33 time=0
<meta message set_tempo tempo=333333 time=40>
note_on channel=0 note=79 velocity=0 time=40
note_on channel=0 note=77 velocity=37 time=0
<meta message set_tempo tempo=334262 time=40>
note_on channel=0 note=36 velocity=0 time=20
note_on channel=0 note=77 velocity=0 time=20
note_on channel=0 note=79 velocity=34 time=0
note_on channel=0 note=36 velocity=23 time=0
<meta message set_tempo tempo=335196 time=40>
note_on channel=0 note=79 velocity=0 time=40
note_on channel=0 note=77 velocity=31 time=0
<meta message set_tempo tempo=336134 time=40>
note_on channel=0 note=77 velocity=0 time=40
note_on channel=0 note=79 velocity=37 time=0
<meta message set_tempo tempo=337079 time=40>
note_on channel=0 note=36 velocity=0 time=20
<meta message set_tempo tempo=338028 time=20>
note_on channel=0 note=79 velocity=0 time=0
note_on channel=0 note=77 velocity=31 time=0
note_on channel=0 note=36 velocity=20 time=0
<meta message set_tempo tempo=418760 time=120>
note_on channel=0 note=77 velocity=0 time=0
note_on channel=0 note=76 velocity=34 time=0
note_on channel=0 note=36 velocity=0 time=100
note_on channel=0 note=76 velocity=0 time=20
note_on channel=0 note=79 velocity=40 time=0
note_on channel=0 note=36 velocity=22 time=0
<meta message set_tempo tempo=458751 time=120>
note_on channel=0 note=79 velocity=0 time=0
note_on channel=0 note=77 velocity=35 time=0
note_on channel=0 note=36 velocity=0 time=100
<meta message set_tempo tempo=368098 time=20>
note_on channel=0 note=77 velocity=0 time=0
note_on channel=0 note=44 velocity=0 time=0
note_on channel=0 note=76 velocity=35 time=0
note_on channel=0 note=43 velocity=26 time=0
control_change channel=0 control=64 value=0 time=9
note_on channel=0 note=43 velocity=0 time=211
note_on channel=0 note=36 velocity=20 time=20
note_on channel=0 note=36 velocity=0 time=220
note_on channel=0 note=76 velocity=0 time=20
note_on channel=0 note=36 velocity=22 time=0
note_on channel=0 note=36 velocity=0 time=220
<meta message set_tempo tempo=384615 time=20>
note_on channel=0 note=36 velocity=23 time=0
note_on channel=0 note=49 velocity=27 time=0
note_on channel=0 note=49 velocity=0 time=220
note_on channel=0 note=36 velocity=0 time=0
<meta message set_tempo tempo=394737 time=20>
note_on channel=0 note=49 velocity=26 time=0
note_on channel=0 note=36 velocity=20 time=0
note_on channel=0 note=36 velocity=0 time=220
note_on channel=0 note=49 velocity=0 time=0
<meta message set_tempo tempo=406780 time=20>
note_on channel=0 note=49 velocity=26 time=0
note_on channel=0 note=36 velocity=22 time=0
note_on channel=0 note=36 velocity=0 time=220
note_on channel=0 note=49 velocity=0 time=0
<meta message set_tempo tempo=368981 time=20>
note_on channel=0 note=48 velocity=26 time=0
note_on channel=0 note=36 velocity=26 time=0
note_on channel=0 note=36 velocity=0 time=220
note_on channel=0 note=36 velocity=20 time=20
note_on channel=0 note=36 velocity=0 time=220
note_on channel=0 note=48 velocity=0 time=20
note_on channel=0 note=36 velocity=22 time=0
note_on channel=0 note=36 velocity=0 time=220
<meta message set_tempo tempo=383387 time=20>
note_on channel=0 note=76 velocity=35 time=0
note_on channel=0 note=79 velocity=35 time=0
note_on channel=0 note=36 velocity=23 time=0
note_on channel=0 note=36 velocity=0 time=220
<meta message set_tempo tempo=398671 time=20>
note_on channel=0 note=79 velocity=0 time=0
note_on channel=0 note=76 velocity=0 time=0
note_on channel=0 note=76 velocity=31 time=0
note_on channel=0 note=79 velocity=31 time=0
note_on channel=0 note=36 velocity=20 time=0
note_on channel=0 note=36 velocity=0 time=220
<meta message set_tempo tempo=412371 time=20>
note_on channel=0 note=79 velocity=0 time=0
note_on channel=0 note=76 velocity=0 time=0
note_on channel=0 note=79 velocity=35 time=0
note_on channel=0 note=76 velocity=35 time=0
note_on channel=0 note=36 velocity=22 time=0
note_on channel=0 note=36 velocity=0 time=220
<meta message set_tempo tempo=370370 time=20>
note_on channel=0 note=76 velocity=0 time=0
note_on channel=0 note=79 velocity=0 time=0
note_on channel=0 note=82 velocity=35 time=0
note_on channel=0 note=79 velocity=35 time=0
note_on channel=0 note=36 velocity=26 time=0
note_on channel=0 note=36 velocity=0 time=220
note_on channel=0 note=36 velocity=20 time=20
note_on channel=0 note=36 velocity=0 time=220
note_on channel=0 note=79 velocity=0 time=20
note_on channel=0 note=82 velocity=0 time=0
note_on channel=0 note=36 velocity=22 time=0
note_on channel=0 note=36 velocity=0 time=220
<meta message set_tempo tempo=388350 time=20>
note_on channel=0 note=49 velocity=27 time=0
note_on channel=0 note=36 velocity=23 time=0
note_on channel=0 note=36 velocity=0 time=220
note_on channel=0 note=49 velocity=0 time=0
<meta message set_tempo tempo=398671 time=20>
note_on channel=0 note=36 velocity=20 time=0
note_on channel=0 note=49 velocity=26 time=0
note_on channel=0 note=49 velocity=0 time=220
note_on channel=0 note=36 velocity=0 time=0
<meta message set_tempo tempo=415225 time=20>
note_on channel=0 note=36 velocity=22 time=0
note_on channel=0 note=49 velocity=26 time=0
note_on channel=0 note=49 velocity=0 time=220
note_on channel=0 note=36 velocity=0 time=0
<meta message set_tempo tempo=373832 time=20>
note_on channel=0 note=48 velocity=26 time=0
note_on channel=0 note=36 velocity=26 time=0
note_on channel=0 note=36 velocity=0 time=220
<meta message set_tempo tempo=371517 time=20>
note_on channel=0 note=36 velocity=20 time=0
note_on channel=0 note=36 velocity=0 time=220
note_on channel=0 note=48 velocity=0 time=20
note_on channel=0 note=36 velocity=22 time=0
note_on channel=0 note=36 velocity=0 time=220
<meta message set_tempo tempo=390879 time=20>
note_on channel=0 note=79 velocity=66 time=0
note_on channel=0 note=82 velocity=66 time=0
note_on channel=0 note=36 velocity=43 time=0
note_on channel=0 note=36 velocity=0 time=220
<meta message set_tempo tempo=401338 time=20>
note_on channel=0 note=82 velocity=0 time=0
note_on channel=0 note=79 velocity=0 time=0
note_on channel=0 note=79 velocity=62 time=0
note_on channel=0 note=82 velocity=62 time=0
note_on channel=0 note=36 velocity=38 time=0
note_on channel=0 note=36 velocity=0 time=220
<meta message set_tempo tempo=410959 time=20>
note_on channel=0 note=82 velocity=0 time=0
note_on channel=0 note=79 velocity=0 time=0
note_on channel=0 note=82 velocity=68 time=0
note_on channel=0 note=79 velocity=68 time=0
note_on channel=0 note=36 velocity=41 time=0
note_on channel=0 note=36 velocity=0 time=220
<meta message set_tempo tempo=331492 time=20>
note_on channel=0 note=79 velocity=0 time=0
note_on channel=0 note=82 velocity=0 time=0
note_on channel=0 note=88 velocity=71 time=0
note_on channel=0 note=36 velocity=50 time=0
control_change channel=0 control=64 value=127 time=75
note_on channel=0 note=88 velocity=0 time=45
note_on channel=0 note=82 velocity=64 time=0
<meta message set_tempo tempo=330579 time=80>
note_on channel=0 note=36 velocity=0 time=20
note_on channel=0 note=82 velocity=0 time=20
note_on channel=0 note=91 velocity=72 time=0
note_on channel=0 note=36 velocity=40 time=0
<meta message set_tempo tempo=329670 time=120>
note_on channel=0 note=91 velocity=0 time=0
note_on channel=0 note=88 velocity=64 time=0
note_on channel=0 note=36 velocity=0 time=100
note_on channel=0 note=88 velocity=0 time=20
note_on channel=0 note=94 velocity=73 time=0
note_on channel=0 note=36 velocity=43 time=0
<meta message set_tempo tempo=328767 time=80>
note_on channel=0 note=94 velocity=0 time=40
note_on channel=0 note=91 velocity=66 time=0
note_on channel=0 note=36 velocity=0 time=100
<meta message set_tempo tempo=327869 time=20>
note_on channel=0 note=91 velocity=0 time=0
note_on channel=0 note=88 velocity=74 time=0
note_on channel=0 note=36 velocity=47 time=0
note_on channel=0 note=88 velocity=0 time=120
note_on channel=0 note=91 velocity=67 time=0
<meta message set_tempo tempo=326975 time=80>
note_on channel=0 note=36 velocity=0 time=20
note_on channel=0 note=91 velocity=0 time=20
note_on channel=0 note=82 velocity=74 time=0
note_on channel=0 note=36 velocity=43 time=0
<meta message set_tempo tempo=326087 time=120>
note_on channel=0 note=82 velocity=0 time=0
note_on channel=0 note=88 velocity=68 time=0
note_on channel=0 note=36 velocity=0 time=100
note_on channel=0 note=88 velocity=0 time=20
note_on channel=0 note=79 velocity=75 time=0
note_on channel=0 note=36 velocity=45 time=0
<meta message set_tempo tempo=325203 time=80>
note_on channel=0 note=79 velocity=0 time=40
note_on channel=0 note=82 velocity=68 time=0
note_on channel=0 note=36 velocity=0 time=100
<meta message set_tempo tempo=324324 time=20>
note_on channel=0 note=82 velocity=0 time=0
note_on channel=0 note=76 velocity=75 time=0
note_on channel=0 note=36 velocity=55 time=0
note_on channel=0 note=76 velocity=0 time=120
note_on channel=0 note=79 velocity=69 time=0
note_on channel=0 note=36 velocity=0 time=100
note_on channel=0 note=79 velocity=0 time=20
note_on channel=0 note=70 velocity=76 time=0
note_on channel=0 note=36 velocity=45 time=0
note_on channel=0 note=70 velocity=0 time=120
note_on channel=0 note=76 velocity=67 time=0
note_on channel=0 note=36 velocity=0 time=100
note_on channel=0 note=76 velocity=0 time=20
note_on channel=0 note=67 velocity=76 time=0
note_on channel=0 note=36 velocity=48 time=0
note_on channel=0 note=67 velocity=0 time=120
note_on channel=0 note=70 velocity=70 time=0
note_on channel=0 note=36 velocity=0 time=100
note_on channel=0 note=70 velocity=0 time=20
note_on channel=0 note=64 velocity=77 time=0
note_on channel=0 note=36 velocity=52 time=0
note_on channel=0 note=64 velocity=0 time=120
note_on channel=0 note=67 velocity=68 time=0
note_on channel=0 note=36 velocity=0 time=100
note_on channel=0 note=67 velocity=0 time=20
note_on channel=0 note=58 velocity=78 time=0
note_on channel=0 note=36 velocity=47 time=0
note_on channel=0 note=58 velocity=0 time=120
note_on channel=0 note=64 velocity=71 time=0
note_on channel=0 note=36 velocity=0 time=100
note_on channel=0 note=64 velocity=0 time=20
note_on channel=0 note=55 velocity=75 time=0
note_on channel=0 note=36 velocity=50 time=0
note_on channel=0 note=55 velocity=0 time=120
note_on channel=0 note=58 velocity=63 time=0
<meta message set_tempo tempo=324324 time=80>
note_on channel=0 note=36 velocity=0 time=20
note_on channel=0 note=58 velocity=0 time=20
note_on channel=0 note=36 velocity=61 time=0
note_on channel=0 note=52 velocity=76 time=0
<meta message set_tempo tempo=325203 time=80>
note_on channel=0 note=52 velocity=0 time=40
note_on channel=0 note=55 velocity=65 time=0
<meta message set_tempo tempo=326087 time=40>
note_on channel=0 note=36 velocity=0 time=60
<meta message set_tempo tempo=340909 time=20>
note_on channel=0 note=55 velocity=0 time=0
note_on channel=0 note=36 velocity=49 time=0
note_on channel=0 note=46 velocity=77 time=0
<meta message set_tempo tempo=393443 time=120>
note_on channel=0 note=46 velocity=0 time=0
note_on channel=0 note=52 velocity=62 time=0
note_on channel=0 note=36 velocity=0 time=100
<meta message set_tempo tempo=329670 time=20>
note_on channel=0 note=52 velocity=0 time=0
note_on channel=0 note=43 velocity=76 time=0
note_on channel=0 note=36 velocity=52 time=0
<meta message set_tempo tempo=329670 time=40>
<meta message set_tempo tempo=330579 time=80>
note_on channel=0 note=43 velocity=0 time=0
note_on channel=0 note=46 velocity=69 time=0
note_on channel=0 note=36 velocity=0 time=100
<meta message set_tempo tempo=331492 time=20>
note_on channel=0 note=46 velocity=0 time=0
note_on channel=0 note=36 velocity=57 time=0
note_on channel=0 note=49 velocity=80 time=0
<meta message set_tempo tempo=332410 time=80>
note_on channel=0 note=49 velocity=0 time=40
note_on channel=0 note=46 velocity=70 time=0
<meta message set_tempo tempo=333333 time=40>
note_on channel=0 note=36 velocity=0 time=60
note_on channel=0 note=46 velocity=0 time=20
note_on channel=0 note=52 velocity=81 time=0
note_on channel=0 note=36 velocity=51 time=0
<meta message set_tempo tempo=334262 time=40>
<meta message set_tempo tempo=335196 time=80>
note_on channel=0 note=52 velocity=0 time=0
note_on channel=0 note=49 velocity=71 time=0
<meta message set_tempo tempo=336134 time=80>
note_on channel=0 note=36 velocity=0 time=20
note_on channel=0 note=49 velocity=0 time=20
note_on channel=0 note=36 velocity=54 time=0
note_on channel=0 note=55 velocity=86 time=0
<meta message set_tempo tempo=337079 time=40>
note_on channel=0 note=55 velocity=0 time=80
note_on channel=0 note=52 velocity=78 time=0
<meta message set_tempo tempo=338028 time=40>
note_on channel=0 note=36 velocity=0 time=60
<meta message set_tempo tempo=338983 time=20>
note_on channel=0 note=52 velocity=0 time=0
note_on channel=0 note=58 velocity=94 time=0
note_on channel=0 note=43 velocity=66 time=0
note_on channel=0 note=31 velocity=61 time=0
control_change channel=0 control=64 value=0 time=17
<meta message set_tempo tempo=339943 time=63>
control_change channel=0 control=64 value=127 time=23
<meta message set_tempo tempo=340909 time=57>
<meta message set_tempo tempo=349854 time=40>
<meta message set_tempo tempo=489796 time=40>
note_on channel=0 note=31 velocity=0 time=0
note_on channel=0 note=43 velocity=0 time=0
note_on channel=0 note=58 velocity=0 time=0
note_on channel=0 note=36 velocity=58 time=0
control_change channel=0 control=64 value=0 time=57
note_on channel=0 note=36 velocity=0 time=183
note_on channel=0 note=36 velocity=57 time=0
<meta message set_tempo tempo=533381 time=240>
note_on channel=0 note=36 velocity=0 time=0
note_on channel=0 note=49 velocity=93 time=0
note_on channel=0 note=61 velocity=93 time=0
note_on channel=0 note=56 velocity=93 time=0
note_on channel=0 note=41 velocity=68 time=0
note_on channel=0 note=29 velocity=62 time=0
control_change channel=0 control=64 value=127 time=46
<meta message set_tempo tempo=641711 time=194>
note_on channel=0 note=29 velocity=0 time=0
note_on channel=0 note=56 velocity=0 time=0
note_on channel=0 note=49 velocity=0 time=0
note_on channel=0 note=61 velocity=0 time=0
note_on channel=0 note=41 velocity=0 time=0
note_on channel=0 note=36 velocity=78 time=0
control_change channel=0 control=64 value=0 time=57
<meta message set_tempo tempo=693722 time=183>
note_on channel=0 note=36 velocity=0 time=0
note_on channel=0 note=36 velocity=66 time=0
<meta message set_tempo tempo=545455 time=240>
note_on channel=0 note=36 velocity=0 time=0
note_on channel=0 note=52 velocity=48 time=0
note_on channel=0 note=36 velocity=40 time=0
note_on channel=0 note=60 velocity=48 time=0
note_on channel=0 note=40 velocity=40 time=0
note_on channel=0 note=55 velocity=48 time=0
note_on channel=0 note=55 velocity=0 time=2100
note_on channel=0 note=60 velocity=0 time=0
note_on channel=0 note=52 velocity=0 time=0
note_on channel=0 note=36 velocity=0 time=0
note_on channel=0 note=40 velocity=0 time=0
<meta message set_tempo tempo=600000 time=60>
note_on channel=0 note=60 velocity=35 time=0
note_on channel=0 note=36 velocity=27 time=0
<meta message set_tempo tempo=351206 time=220>
<meta message set_tempo tempo=382166 time=240>
note_on channel=0 note=36 velocity=0 time=140
note_on channel=0 note=60 velocity=0 time=0
note_on channel=0 note=57 velocity=31 time=0
note_on channel=0 note=33 velocity=25 time=0
<meta message set_tempo tempo=447761 time=120>
note_on channel=0 note=33 velocity=0 time=0
note_on channel=0 note=57 velocity=0 time=0
note_on channel=0 note=53 velocity=103 time=0
note_on channel=0 note=29 velocity=81 time=0
control_change channel=0 control=64 value=127 time=229
note_on channel=0 note=53 velocity=0 time=9
<meta message set_tempo tempo=326975 time=2>
note_on channel=0 note=29 velocity=0 time=0
note_on channel=0 note=57 velocity=75 time=0
note_on channel=0 note=53 velocity=75 time=0
note_on channel=0 note=60 velocity=85 time=0
note_on channel=0 note=65 velocity=101 time=0
note_on channel=0 note=33 velocity=61 time=240
note_on channel=0 note=29 velocity=61 time=0
note_on channel=0 note=41 velocity=81 time=0
note_on channel=0 note=36 velocity=69 time=0
note_on channel=0 note=65 velocity=0 time=235
note_on channel=0 note=60 velocity=0 time=0
note_on channel=0 note=57 velocity=0 time=0
note_on channel=0 note=53 velocity=0 time=0
note_on channel=0 note=60 velocity=72 time=5
note_on channel=0 note=65 velocity=81 time=0
note_on channel=0 note=69 velocity=96 time=0
note_on channel=0 note=57 velocity=72 time=0
note_on channel=0 note=33 velocity=0 time=235
note_on channel=0 note=41 velocity=0 time=0
note_on channel=0 note=36 velocity=0 time=0
note_on channel=0 note=29 velocity=0 time=0
note_on channel=0 note=33 velocity=57 time=5
note_on channel=0 note=36 velocity=64 time=0
note_on channel=0 note=41 velocity=76 time=0
note_on channel=0 note=29 velocity=57 time=0
note_on channel=0 note=60 velocity=0 time=235
note_on channel=0 note=69 velocity=0 time=0
note_on channel=0 note=57 velocity=0 time=0
note_on channel=0 note=65 velocity=0 time=0
note_on channel=0 note=60 velocity=71 time=5
note_on channel=0 note=65 velocity=71 time=0
note_on channel=0 note=72 velocity=96 time=0
note_on channel=0 note=69 velocity=79 time=0
note_on channel=0 note=33 velocity=0 time=235
note_on channel=0 note=41 velocity=0 time=0
note_on channel=0 note=29 velocity=0 time=0
note_on channel=0 note=36 velocity=0 time=0
note_on channel=0 note=33 velocity=55 time=5
note_on channel=0 note=29 velocity=55 time=0
note_on channel=0 note=41 velocity=73 time=0
note_on channel=0 note=36 velocity=63 time=0
note_on channel=0 note=60 velocity=0 time=235
note_on channel=0 note=72 velocity=0 time=0
note_on channel=0 note=69 velocity=0 time=0
note_on channel=0 note=65 velocity=0 time=0
note_on channel=0 note=69 velocity=72 time=5
note_on channel=0 note=77 velocity=95 time=0
note_on channel=0 note=72 velocity=80 time=0
note_on channel=0 note=65 velocity=72 time=0
note_on channel=0 note=33 velocity=0 time=235
note_on channel=0 note=41 velocity=0 time=0
note_on channel=0 note=36 velocity=0 time=0
note_on channel=0 note=29 velocity=0 time=0
note_on channel=0 note=33 velocity=61 time=5
note_on channel=0 note=36 velocity=69 time=0
note_on channel=0 note=41 velocity=81 time=0
note_on channel=0 note=29 velocity=61 time=0
note_on channel=0 note=69 velocity=0 time=235
note_on channel=0 note=72 velocity=0 time=0
note_on channel=0 note=65 velocity=0 time=0
note_on channel=0 note=77 velocity=0 time=0
note_on channel=0 note=77 velocity=86 time=5
note_on channel=0 note=69 velocity=76 time=0
note_on channel=0 note=72 velocity=76 time=0
note_on channel=0 note=81 velocity=103 time=0
note_on channel=0 note=33 velocity=0 time=235
note_on channel=0 note=41 velocity=0 time=0
note_on channel=0 note=29 velocity=0 time=0
note_on channel=0 note=36 velocity=0 time=0
note_on channel=0 note=33 velocity=55 time=5
note_on channel=0 note=29 velocity=55 time=0
note_on channel=0 note=41 velocity=73 time=0
note_on channel=0 note=36 velocity=63 time=0
note_on channel=0 note=77 velocity=0 time=235
note_on channel=0 note=72 velocity=0 time=0
note_on channel=0 note=81 velocity=0 time=0
note_on channel=0 note=69 velocity=0 time=0
<meta message set_tempo tempo=357143 time=5>
note_on channel=0 note=77 velocity=78 time=0
note_on channel=0 note=84 velocity=94 time=0
note_on channel=0 note=72 velocity=71 time=0
note_on channel=0 note=81 velocity=78 time=0
note_on channel=0 note=33 velocity=0 time=235
note_on channel=0 note=41 velocity=0 time=0
note_on channel=0 note=36 velocity=0 time=0
note_on channel=0 note=29 velocity=0 time=0
note_on channel=0 note=77 velocity=0 time=3
note_on channel=0 note=81 velocity=0 time=0
note_on channel=0 note=84 velocity=0 time=0
note_on channel=0 note=72 velocity=0 time=0
note_on channel=0 note=81 velocity=86 time=2
note_on channel=0 note=84 velocity=86 time=0
note_on channel=0 note=89 velocity=103 time=0
note_on channel=0 note=77 velocity=76 time=0
note_on channel=0 note=29 velocity=61 time=0
note_on channel=0 note=33 velocity=61 time=0
note_on channel=0 note=36 velocity=69 time=0
note_on channel=0 note=41 velocity=81 time=0
control_change channel=0 control=64 value=0 time=1723
<meta message set_tempo tempo=353982 time=437>
note_on channel=0 note=41 velocity=0 time=0
note_on channel=0 note=81 velocity=0 time=0
note_on channel=0 note=29 velocity=0 time=0
note_on channel=0 note=84 velocity=0 time=0
note_on channel=0 note=89 velocity=0 time=0
note_on channel=0 note=77 velocity=0 time=0
note_on channel=0 note=33 velocity=0 time=0
note_on channel=0 note=36 velocity=0 time=0
note_on channel=0 note=57 velocity=41 time=0
note_on channel=0 note=33 velocity=33 time=0
<meta message set_tempo tempo=356125 time=240>
<meta message set_tempo tempo=393236 time=360>
note_on channel=0 note=33 velocity=0 time=0
note_on channel=0 note=57 velocity=0 time=0
note_on channel=0 note=60 velocity=35 time=0
note_on channel=0 note=36 velocity=28 time=0
<meta message set_tempo tempo=322321 time=120>
note_on channel=0 note=36 velocity=0 time=0
note_on channel=0 note=60 velocity=0 time=0
note_on channel=0 note=65 velocity=40 time=0
note_on channel=0 note=41 velocity=34 time=0
<meta message set_tempo tempo=339501 time=720>
note_on channel=0 note=41 velocity=0 time=0
note_on channel=0 note=65 velocity=0 time=0
note_on channel=0 note=69 velocity=43 time=0
note_on channel=0 note=45 velocity=34 time=0
<meta message set_tempo tempo=344828 time=240>
<meta message set_tempo tempo=371724 time=360>
note_on channel=0 note=45 velocity=0 time=0
note_on channel=0 note=69 velocity=0 time=0
note_on channel=0 note=72 velocity=37 time=0
note_on channel=0 note=48 velocity=29 time=0
<meta message set_tempo tempo=339501 time=120>
note_on channel=0 note=48 velocity=0 time=0
note_on channel=0 note=72 velocity=0 time=0
note_on channel=0 note=77 velocity=40 time=0
note_on channel=0 note=53 velocity=34 time=0
<meta message set_tempo tempo=358637 time=480>
note_on channel=0 note=53 velocity=0 time=235
note_on channel=0 note=77 velocity=0 time=0
<meta message set_tempo tempo=339501 time=5>
note_on channel=0 note=65 velocity=40 time=0
note_on channel=0 note=41 velocity=31 time=0
<meta message set_tempo tempo=372671 time=480>
<meta message set_tempo tempo=447761 time=240>
note_on channel=0 note=41 velocity=0 time=0
note_on channel=0 note=65 velocity=0 time=0
note_on channel=0 note=60 velocity=103 time=0
note_on channel=0 note=52 velocity=81 time=0
note_on channel=0 note=55 velocity=81 time=0
control_change channel=0 control=64 value=127 time=80
note_on channel=0 note=55 velocity=0 time=158
note_on channel=0 note=52 velocity=0 time=0
note_on channel=0 note=60 velocity=0 time=0
<meta message set_tempo tempo=326975 time=2>
note_on channel=0 note=60 velocity=85 time=0
note_on channel=0 note=64 velocity=101 time=0
note_on channel=0 note=55 velocity=75 time=0
note_on channel=0 note=40 velocity=61 time=240
note_on channel=0 note=48 velocity=81 time=0
note_on channel=0 note=43 velocity=69 time=0
note_on channel=0 note=55 velocity=0 time=235
note_on channel=0 note=60 velocity=0 time=0
note_on channel=0 note=64 velocity=0 time=0
note_on channel=0 note=60 velocity=72 time=5
note_on channel=0 note=67 velocity=96 time=0
note_on channel=0 note=64 velocity=81 time=0
note_on channel=0 note=40 velocity=0 time=235
note_on channel=0 note=43 velocity=0 time=0
note_on channel=0 note=48 velocity=0 time=0
note_on channel=0 note=43 velocity=64 time=5
note_on channel=0 note=40 velocity=57 time=0
note_on channel=0 note=48 velocity=76 time=0
note_on channel=0 note=60 velocity=0 time=235
note_on channel=0 note=64 velocity=0 time=0
note_on channel=0 note=67 velocity=0 time=0
note_on channel=0 note=67 velocity=81 time=5
note_on channel=0 note=72 velocity=98 time=0
note_on channel=0 note=64 velocity=72 time=0
note_on channel=0 note=43 velocity=0 time=235
note_on channel=0 note=48 velocity=0 time=0
note_on channel=0 note=40 velocity=0 time=0
note_on channel=0 note=40 velocity=55 time=5
note_on channel=0 note=48 velocity=73 time=0
note_on channel=0 note=43 velocity=63 time=0
note_on channel=0 note=67 velocity=0 time=235
note_on channel=0 note=64 velocity=0 time=0
note_on channel=0 note=72 velocity=0 time=0
note_on channel=0 note=76 velocity=95 time=5
note_on channel=0 note=67 velocity=72 time=0
note_on channel=0 note=72 velocity=80 time=0
note_on channel=0 note=40 velocity=0 time=235
note_on channel=0 note=43 velocity=0 time=0
note_on channel=0 note=48 velocity=0 time=0
note_on channel=0 note=43 velocity=69 time=5
note_on channel=0 note=48 velocity=81 time=0
note_on channel=0 note=40 velocity=61 time=0
note_on channel=0 note=76 velocity=0 time=235
note_on channel=0 note=72 velocity=0 time=0
note_on channel=0 note=67 velocity=0 time=0
note_on channel=0 note=79 velocity=103 time=5
note_on channel=0 note=72 velocity=76 time=0
note_on channel=0 note=76 velocity=86 time=0
note_on channel=0 note=43 velocity=0 time=235
note_on channel=0 note=40 velocity=0 time=0
note_on channel=0 note=48 velocity=0 time=0
note_on channel=0 note=40 velocity=55 time=5
note_on channel=0 note=48 velocity=73 time=0
note_on channel=0 note=43 velocity=63 time=0
note_on channel=0 note=79 velocity=0 time=235
note_on channel=0 note=76 velocity=0 time=0
note_on channel=0 note=72 velocity=0 time=0
<meta message set_tempo tempo=606061 time=5>
note_on channel=0 note=84 velocity=94 time=0
note_on channel=0 note=76 velocity=78 time=0
note_on channel=0 note=79 velocity=78 time=0
note_on channel=0 note=40 velocity=0 time=235
note_on channel=0 note=43 velocity=0 time=0
note_on channel=0 note=48 velocity=0 time=0
note_on channel=0 note=84 velocity=0 time=3
note_on channel=0 note=76 velocity=0 time=0
note_on channel=0 note=79 velocity=0 time=0
<meta message set_tempo tempo=338983 time=2>
note_on channel=0 note=72 velocity=41 time=0
note_on channel=0 note=64 velocity=30 time=0
note_on channel=0 note=67 velocity=30 time=0
control_change channel=0 control=64 value=0 time=9
control_change channel=0 control=64 value=127 time=267
<meta message set_tempo tempo=363769 time=924>
note_on channel=0 note=72 velocity=0 time=0
note_on channel=0 note=74 velocity=45 time=0
<meta message set_tempo tempo=341783 time=240>
note_on channel=0 note=74 velocity=0 time=0
note_on channel=0 note=67 velocity=0 time=0
note_on channel=0 note=64 velocity=0 time=0
note_on channel=0 note=74 velocity=38 time=0
note_on channel=0 note=65 velocity=30 time=0
note_on channel=0 note=71 velocity=30 time=0
note_on channel=0 note=68 velocity=30 time=0
control_change channel=0 control=64 value=0 time=12
control_change channel=0 control=64 value=127 time=62
<meta message set_tempo tempo=340638 time=6>
note_on channel=0 note=74 velocity=0 time=0
note_on channel=0 note=76 velocity=35 time=0
<meta message set_tempo tempo=339501 time=80>
note_on channel=0 note=74 velocity=38 time=0
note_on channel=0 note=76 velocity=0 time=40
<meta message set_tempo tempo=338371 time=40>
note_on channel=0 note=74 velocity=0 time=0
note_on channel=0 note=76 velocity=36 time=0
<meta message set_tempo tempo=337268 time=80>
note_on channel=0 note=76 velocity=0 time=0
note_on channel=0 note=74 velocity=39 time=0
<meta message set_tempo tempo=336134 time=80>
note_on channel=0 note=74 velocity=0 time=0
note_on channel=0 note=76 velocity=36 time=0
<meta message set_tempo tempo=335027 time=80>
note_on channel=0 note=76 velocity=0 time=0
note_on channel=0 note=74 velocity=38 time=0
<meta message set_tempo tempo=333946 time=60>
<meta message set_tempo tempo=328551 time=20>
note_on channel=0 note=74 velocity=0 time=0
note_on channel=0 note=76 velocity=36 time=0
<meta message set_tempo tempo=333946 time=20>
<meta message set_tempo tempo=335027 time=40>
<meta message set_tempo tempo=336134 time=20>
note_on channel=0 note=76 velocity=0 time=0
note_on channel=0 note=74 velocity=39 time=0
<meta message set_tempo tempo=337268 time=40>
<meta message set_tempo tempo=338371 time=20>
<meta message set_tempo tempo=339501 time=20>
note_on channel=0 note=74 velocity=0 time=0
note_on channel=0 note=76 velocity=37 time=0
<meta message set_tempo tempo=340638 time=40>
<meta message set_tempo tempo=341783 time=20>
<meta message set_tempo tempo=342936 time=20>
note_on channel=0 note=76 velocity=0 time=0
note_on channel=0 note=74 velocity=35 time=0
<meta message set_tempo tempo=344096 time=40>
<meta message set_tempo tempo=345244 time=20>
<meta message set_tempo tempo=346420 time=20>
note_on channel=0 note=74 velocity=0 time=0
note_on channel=0 note=76 velocity=39 time=0
<meta message set_tempo tempo=347625 time=40>
<meta message set_tempo tempo=348817 time=20>
<meta message set_tempo tempo=349997 time=20>
note_on channel=0 note=76 velocity=0 time=0
note_on channel=0 note=74 velocity=35 time=0
<meta message set_tempo tempo=385802 time=120>
note_on channel=0 note=74 velocity=0 time=0
note_on channel=0 note=72 velocity=36 time=0
note_on channel=0 note=72 velocity=0 time=120
note_on channel=0 note=76 velocity=41 time=0
<meta message set_tempo tempo=422624 time=120>
note_on channel=0 note=76 velocity=0 time=0
note_on channel=0 note=74 velocity=38 time=0
<meta message set_tempo tempo=447761 time=120>
note_on channel=0 note=74 velocity=0 time=0
note_on channel=0 note=65 velocity=0 time=0
note_on channel=0 note=71 velocity=0 time=0
note_on channel=0 note=68 velocity=0 time=0
note_on channel=0 note=60 velocity=103 time=0
note_on channel=0 note=55 velocity=81 time=0
note_on channel=0 note=52 velocity=81 time=0
control_change channel=0 control=64 value=0 time=7
note_on channel=0 note=52 velocity=0 time=231
note_on channel=0 note=55 velocity=0 time=0
note_on channel=0 note=60 velocity=0 time=0
<meta message set_tempo tempo=326975 time=2>
note_on channel=0 note=64 velocity=101 time=0
note_on channel=0 note=60 velocity=85 time=0
note_on channel=0 note=55 velocity=75 time=0
control_change channel=0 control=64 value=127 time=12
note_on channel=0 note=43 velocity=69 time=228
note_on channel=0 note=40 velocity=61 time=0
note_on channel=0 note=48 velocity=81 time=0
note_on channel=0 note=55 velocity=0 time=235
note_on channel=0 note=64 velocity=0 time=0
note_on channel=0 note=60 velocity=0 time=0
note_on channel=0 note=64 velocity=81 time=5
note_on channel=0 note=67 velocity=96 time=0
note_on channel=0 note=60 velocity=72 time=0
note_on channel=0 note=43 velocity=0 time=235
note_on channel=0 note=48 velocity=0 time=0
note_on channel=0 note=40 velocity=0 time=0
note_on channel=0 note=40 velocity=57 time=5
note_on channel=0 note=48 velocity=76 time=0
note_on channel=0 note=43 velocity=64 time=0
note_on channel=0 note=64 velocity=0 time=235
note_on channel=0 note=60 velocity=0 time=0
note_on channel=0 note=67 velocity=0 time=0
note_on channel=0 note=72 velocity=98 time=5
note_on channel=0 note=64 velocity=72 time=0
note_on channel=0 note=67 velocity=81 time=0
note_on channel=0 note=40 velocity=0 time=235
note_on channel=0 note=43 velocity=0 time=0
note_on channel=0 note=48 velocity=0 time=0
note_on channel=0 note=43 velocity=63 time=5
note_on channel=0 note=48 velocity=73 time=0
note_on channel=0 note=40 velocity=55 time=0
note_on channel=0 note=72 velocity=0 time=235
note_on channel=0 note=67 velocity=0 time=0
note_on channel=0 note=64 velocity=0 time=0
note_on channel=0 note=76 velocity=95 time=5
note_on channel=0 note=67 velocity=72 time=0
note_on channel=0 note=72 velocity=80 time=0
note_on channel=0 note=43 velocity=0 time=235
note_on channel=0 note=40 velocity=0 time=0
note_on channel=0 note=48 velocity=0 time=0
note_on channel=0 note=40 velocity=61 time=5
note_on channel=0 note=48 velocity=81 time=0
note_on channel=0 note=43 velocity=69 time=0
note_on channel=0 note=76 velocity=0 time=235
note_on channel=0 note=72 velocity=0 time=0
note_on channel=0 note=67 velocity=0 time=0
note_on channel=0 note=79 velocity=103 time=5
note_on channel=0 note=72 velocity=76 time=0
note_on channel=0 note=76 velocity=86 time=0
note_on channel=0 note=40 velocity=0 time=235
note_on channel=0 note=43 velocity=0 time=0
note_on channel=0 note=48 velocity=0 time=0
note_on channel=0 note=43 velocity=63 time=5
note_on channel=0 note=48 velocity=73 time=0
note_on channel=0 note=40 velocity=55 time=0
note_on channel=0 note=79 velocity=0 time=235
note_on channel=0 note=76 velocity=0 time=0
note_on channel=0 note=72 velocity=0 time=0
<meta message set_tempo tempo=603015 time=5>
note_on channel=0 note=76 velocity=78 time=0
note_on channel=0 note=84 velocity=94 time=0
note_on channel=0 note=79 velocity=78 time=0
note_on channel=0 note=43 velocity=0 time=235
note_on channel=0 note=40 velocity=0 time=0
note_on channel=0 note=48 velocity=0 time=0
note_on channel=0 note=76 velocity=0 time=3
note_on channel=0 note=84 velocity=0 time=0
note_on channel=0 note=79 velocity=0 time=0
<meta message set_tempo tempo=338983 time=2>
note_on channel=0 note=72 velocity=41 time=0
note_on channel=0 note=67 velocity=30 time=0
note_on channel=0 note=64 velocity=30 time=0
control_change channel=0 control=64 value=0 time=12
control_change channel=0 control=64 value=127 time=283
<meta message set_tempo tempo=363769 time=905>
note_on channel=0 note=72 velocity=0 time=0
note_on channel=0 note=74 velocity=45 time=0
control_change channel=0 control=64 value=0 time=20
<meta message set_tempo tempo=341783 time=220>
note_on channel=0 note=74 velocity=0 time=0
note_on channel=0 note=64 velocity=0 time=0
note_on channel=0 note=67 velocity=0 time=0
note_on channel=0 note=74 velocity=44 time=0
note_on channel=0 note=68 velocity=29 time=0
note_on channel=0 note=65 velocity=30 time=0
control_change channel=0 control=64 value=127 time=63
<meta message set_tempo tempo=340638 time=17>
note_on channel=0 note=74 velocity=0 time=0
note_on channel=0 note=76 velocity=39 time=0
<meta message set_tempo tempo=339501 time=80>
note_on channel=0 note=76 velocity=0 time=0
note_on channel=0 note=74 velocity=42 time=0
<meta message set_tempo tempo=338371 time=80>
note_on channel=0 note=74 velocity=0 time=0
note_on channel=0 note=76 velocity=37 time=0
<meta message set_tempo tempo=337268 time=80>
note_on channel=0 note=76 velocity=0 time=0
note_on channel=0 note=74 velocity=41 time=0
<meta message set_tempo tempo=336134 time=80>
note_on channel=0 note=74 velocity=0 time=0
note_on channel=0 note=76 velocity=36 time=0
<meta message set_tempo tempo=335027 time=80>
note_on channel=0 note=76 velocity=0 time=0
note_on channel=0 note=74 velocity=40 time=0
<meta message set_tempo tempo=333946 time=60>
<meta message set_tempo tempo=328551 time=20>
note_on channel=0 note=74 velocity=0 time=0
note_on channel=0 note=76 velocity=37 time=0
<meta message set_tempo tempo=333946 time=20>
<meta message set_tempo tempo=335027 time=40>
<meta message set_tempo tempo=336134 time=20>
note_on channel=0 note=76 velocity=0 time=0
note_on channel=0 note=74 velocity=41 time=0
<meta message set_tempo tempo=337268 time=40>
<meta message set_tempo tempo=338371 time=20>
<meta message set_tempo tempo=339501 time=20>
note_on channel=0 note=74 velocity=0 time=0
note_on channel=0 note=76 velocity=38 time=0
<meta message set_tempo tempo=340638 time=40>
<meta message set_tempo tempo=341783 time=20>
<meta message set_tempo tempo=342936 time=20>
<meta message set_tempo tempo=344096 time=40>
note_on channel=0 note=76 velocity=0 time=0
note_on channel=0 note=74 velocity=37 time=0
<meta message set_tempo tempo=345244 time=20>
<meta message set_tempo tempo=346420 time=20>
<meta message set_tempo tempo=347625 time=40>
<meta message set_tempo tempo=348817 time=20>
<meta message set_tempo tempo=349997 time=20>
note_on channel=0 note=74 velocity=0 time=0
note_on channel=0 note=76 velocity=42 time=0
<meta message set_tempo tempo=385802 time=120>
note_on channel=0 note=76 velocity=0 time=0
note_on channel=0 note=74 velocity=41 time=0
note_on channel=0 note=74 velocity=0 time=120
note_on channel=0 note=72 velocity=48 time=0
<meta message set_tempo tempo=422624 time=120>
note_on channel=0 note=72 velocity=0 time=0
note_on channel=0 note=74 velocity=44 time=0
<meta message set_tempo tempo=447761 time=120>
note_on channel=0 note=74 velocity=0 time=0
note_on channel=0 note=65 velocity=0 time=0
note_on channel=0 note=68 velocity=0 time=0
note_on channel=0 note=55 velocity=81 time=0
note_on channel=0 note=64 velocity=103 time=0
note_on channel=0 note=58 velocity=81 time=0
control_change channel=0 control=64 value=0 time=7
control_change channel=0 control=64 value=127 time=176
note_on channel=0 note=58 velocity=0 time=55
note_on channel=0 note=64 velocity=0 time=0
note_on channel=0 note=55 velocity=0 time=0
<meta message set_tempo tempo=326975 time=2>
note_on channel=0 note=64 velocity=85 time=0
note_on channel=0 note=58 velocity=85 time=0
note_on channel=0 note=67 velocity=101 time=0
note_on channel=0 note=43 velocity=61 time=240
note_on channel=0 note=52 velocity=81 time=0
note_on channel=0 note=46 velocity=69 time=0
note_on channel=0 note=67 velocity=0 time=235
note_on channel=0 note=64 velocity=0 time=0
note_on channel=0 note=58 velocity=0 time=0
note_on channel=0 note=67 velocity=81 time=5
note_on channel=0 note=70 velocity=96 time=0
note_on channel=0 note=64 velocity=72 time=0
note_on channel=0 note=43 velocity=0 time=235
note_on channel=0 note=46 velocity=0 time=0
note_on channel=0 note=52 velocity=0 time=0
note_on channel=0 note=46 velocity=64 time=5
note_on channel=0 note=43 velocity=57 time=0
note_on channel=0 note=52 velocity=76 time=0
note_on channel=0 note=67 velocity=0 time=235
note_on channel=0 note=64 velocity=0 time=0
note_on channel=0 note=70 velocity=0 time=0
note_on channel=0 note=70 velocity=85 time=5
note_on channel=0 note=76 velocity=101 time=0
note_on channel=0 note=67 velocity=75 time=0
note_on channel=0 note=46 velocity=0 time=235
note_on channel=0 note=52 velocity=0 time=0
note_on channel=0 note=43 velocity=0 time=0
note_on channel=0 note=43 velocity=55 time=5
note_on channel=0 note=52 velocity=73 time=0
note_on channel=0 note=46 velocity=63 time=0
note_on channel=0 note=70 velocity=0 time=235
note_on channel=0 note=67 velocity=0 time=0
note_on channel=0 note=76 velocity=0 time=0
note_on channel=0 note=70 velocity=72 time=5
note_on channel=0 note=79 velocity=95 time=0
note_on channel=0 note=76 velocity=80 time=0
note_on channel=0 note=43 velocity=0 time=235
note_on channel=0 note=46 velocity=0 time=0
note_on channel=0 note=52 velocity=0 time=0
note_on channel=0 note=46 velocity=69 time=5
note_on channel=0 note=52 velocity=81 time=0
note_on channel=0 note=43 velocity=61 time=0
note_on channel=0 note=70 velocity=0 time=235
note_on channel=0 note=76 velocity=0 time=0
note_on channel=0 note=79 velocity=0 time=0
note_on channel=0 note=76 velocity=76 time=5
note_on channel=0 note=82 velocity=103 time=0
note_on channel=0 note=79 velocity=86 time=0
note_on channel=0 note=46 velocity=0 time=235
note_on channel=0 note=43 velocity=0 time=0
note_on channel=0 note=52 velocity=0 time=0
note_on channel=0 note=43 velocity=55 time=5
note_on channel=0 note=52 velocity=73 time=0
note_on channel=0 note=46 velocity=63 time=0
note_on channel=0 note=76 velocity=0 time=235
note_on channel=0 note=79 velocity=0 time=0
note_on channel=0 note=82 velocity=0 time=0
<meta message set_tempo tempo=603015 time=5>
note_on channel=0 note=79 velocity=78 time=0
note_on channel=0 note=88 velocity=94 time=0
note_on channel=0 note=82 velocity=78 time=0
note_on channel=0 note=43 velocity=0 time=235
note_on channel=0 note=46 velocity=0 time=0
note_on channel=0 note=52 velocity=0 time=0
note_on channel=0 note=79 velocity=0 time=3
note_on channel=0 note=88 velocity=0 time=0
note_on channel=0 note=82 velocity=0 time=0
<meta message set_tempo tempo=338983 time=2>
note_on channel=0 note=76 velocity=48 time=0
note_on channel=0 note=67 velocity=36 time=0
note_on channel=0 note=70 velocity=36 time=0
control_change channel=0 control=64 value=0 time=10
control_change channel=0 control=64 value=127 time=322
<meta message set_tempo tempo=363769 time=868>
note_on channel=0 note=76 velocity=0 time=0
note_on channel=0 note=77 velocity=52 time=0
control_change channel=0 control=64 value=0 time=22
<meta message set_tempo tempo=341783 time=218>
note_on channel=0 note=77 velocity=0 time=0
note_on channel=0 note=70 velocity=0 time=0
note_on channel=0 note=67 velocity=0 time=0
note_on channel=0 note=77 velocity=46 time=0
note_on channel=0 note=68 velocity=36 time=0
note_on channel=0 note=72 velocity=36 time=0
<meta message set_tempo tempo=340638 time=80>
note_on channel=0 note=77 velocity=0 time=0
note_on channel=0 note=79 velocity=41 time=0
control_change channel=0 control=64 value=127 time=8
<meta message set_tempo tempo=339501 time=72>
note_on channel=0 note=79 velocity=0 time=0
note_on channel=0 note=77 velocity=46 time=0
<meta message set_tempo tempo=338371 time=80>
note_on channel=0 note=77 velocity=0 time=0
note_on channel=0 note=79 velocity=41 time=0
<meta message set_tempo tempo=337268 time=80>
note_on channel=0 note=79 velocity=0 time=0
note_on channel=0 note=77 velocity=46 time=0
<meta message set_tempo tempo=336134 time=80>
note_on channel=0 note=77 velocity=0 time=0
note_on channel=0 note=79 velocity=41 time=0
<meta message set_tempo tempo=335027 time=80>
note_on channel=0 note=79 velocity=0 time=0
note_on channel=0 note=77 velocity=46 time=0
<meta message set_tempo tempo=333946 time=60>
<meta message set_tempo tempo=328551 time=20>
note_on channel=0 note=77 velocity=0 time=0
note_on channel=0 note=79 velocity=42 time=0
<meta message set_tempo tempo=333946 time=20>
<meta message set_tempo tempo=335027 time=40>
<meta message set_tempo tempo=336134 time=20>
note_on channel=0 note=79 velocity=0 time=0
note_on channel=0 note=77 velocity=46 time=0
<meta message set_tempo tempo=337268 time=40>
<meta message set_tempo tempo=338371 time=20>
<meta message set_tempo tempo=339501 time=20>
note_on channel=0 note=77 velocity=0 time=0
note_on channel=0 note=79 velocity=43 time=0
<meta message set_tempo tempo=340638 time=40>
<meta message set_tempo tempo=341783 time=20>
<meta message set_tempo tempo=342936 time=20>
<meta message set_tempo tempo=344096 time=40>
note_on channel=0 note=79 velocity=0 time=0
note_on channel=0 note=77 velocity=40 time=0
<meta message set_tempo tempo=345244 time=20>
<meta message set_tempo tempo=346420 time=20>
<meta message set_tempo tempo=347625 time=40>
<meta message set_tempo tempo=348817 time=20>
<meta message set_tempo tempo=349997 time=20>
note_on channel=0 note=77 velocity=0 time=0
note_on channel=0 note=79 velocity=46 time=0
<meta message set_tempo tempo=385802 time=120>
note_on channel=0 note=79 velocity=0 time=0
note_on channel=0 note=77 velocity=42 time=0
note_on channel=0 note=77 velocity=0 time=120
note_on channel=0 note=76 velocity=48 time=0
<meta message set_tempo tempo=422624 time=120>
note_on channel=0 note=76 velocity=0 time=0
note_on channel=0 note=77 velocity=44 time=0
<meta message set_tempo tempo=447761 time=120>
note_on channel=0 note=77 velocity=0 time=0
note_on channel=0 note=72 velocity=0 time=0
note_on channel=0 note=68 velocity=0 time=0
note_on channel=0 note=67 velocity=103 time=0
note_on channel=0 note=64 velocity=81 time=0
control_change channel=0 control=64 value=0 time=8
control_change channel=0 control=64 value=127 time=174
note_on channel=0 note=64 velocity=0 time=56
note_on channel=0 note=67 velocity=0 time=0
<meta message set_tempo tempo=326975 time=2>
note_on channel=0 note=76 velocity=101 time=0
note_on channel=0 note=73 velocity=85 time=0
note_on channel=0 note=46 velocity=61 time=240
note_on channel=0 note=52 velocity=69 time=0
note_on channel=0 note=55 velocity=81 time=0
note_on channel=0 note=49 velocity=61 time=0
note_on channel=0 note=73 velocity=0 time=235
note_on channel=0 note=76 velocity=0 time=0
note_on channel=0 note=76 velocity=81 time=5
note_on channel=0 note=79 velocity=96 time=0
note_on channel=0 note=55 velocity=0 time=235
note_on channel=0 note=46 velocity=0 time=0
note_on channel=0 note=52 velocity=0 time=0
note_on channel=0 note=49 velocity=0 time=0
note_on channel=0 note=58 velocity=57 time=5
note_on channel=0 note=64 velocity=64 time=0
note_on channel=0 note=61 velocity=57 time=0
note_on channel=0 note=67 velocity=76 time=0
note_on channel=0 note=79 velocity=0 time=235
note_on channel=0 note=76 velocity=0 time=0
note_on channel=0 note=82 velocity=101 time=5
note_on channel=0 note=79 velocity=85 time=0
note_on channel=0 note=61 velocity=0 time=235
note_on channel=0 note=58 velocity=0 time=0
note_on channel=0 note=64 velocity=0 time=0
note_on channel=0 note=67 velocity=0 time=0
note_on channel=0 note=58 velocity=55 time=5
note_on channel=0 note=64 velocity=63 time=0
note_on channel=0 note=67 velocity=73 time=0
note_on channel=0 note=61 velocity=55 time=0
note_on channel=0 note=79 velocity=0 time=235
note_on channel=0 note=82 velocity=0 time=0
note_on channel=0 note=82 velocity=80 time=5
note_on channel=0 note=85 velocity=95 time=0
note_on channel=0 note=67 velocity=0 time=235
note_on channel=0 note=58 velocity=0 time=0
note_on channel=0 note=64 velocity=0 time=0
note_on channel=0 note=61 velocity=0 time=0
note_on channel=0 note=61 velocity=61 time=5
note_on channel=0 note=64 velocity=69 time=0
note_on channel=0 note=67 velocity=81 time=0
note_on channel=0 note=58 velocity=61 time=0
note_on channel=0 note=85 velocity=0 time=235
note_on channel=0 note=82 velocity=0 time=0
note_on channel=0 note=85 velocity=86 time=5
note_on channel=0 note=88 velocity=103 time=0
note_on channel=0 note=67 velocity=0 time=235
note_on channel=0 note=61 velocity=0 time=0
note_on channel=0 note=64 velocity=0 time=0
note_on channel=0 note=58 velocity=0 time=0
note_on channel=0 note=61 velocity=55 time=5
note_on channel=0 note=58 velocity=55 time=0
note_on channel=0 note=67 velocity=73 time=0
note_on channel=0 note=64 velocity=63 time=0
note_on channel=0 note=88 velocity=0 time=235
note_on channel=0 note=85 velocity=0 time=0
<meta message set_tempo tempo=603015 time=5>
note_on channel=0 note=88 velocity=78 time=0
note_on channel=0 note=91 velocity=94 time=0
note_on channel=0 note=67 velocity=0 time=235
note_on channel=0 note=61 velocity=0 time=0
note_on channel=0 note=58 velocity=0 time=0
note_on channel=0 note=64 velocity=0 time=0
note_on channel=0 note=91 velocity=0 time=3
note_on channel=0 note=88 velocity=0 time=0
<meta message set_tempo tempo=338983 time=2>
note_on channel=0 note=79 velocity=79 time=0
note_on channel=0 note=76 velocity=59 time=0
note_on channel=0 note=70 velocity=59 time=0
note_on channel=0 note=73 velocity=59 time=0
control_change channel=0 control=64 value=0 time=17
control_change channel=0 control=64 value=127 time=280
<meta message set_tempo tempo=372694 time=903>
note_on channel=0 note=79 velocity=0 time=0
note_on channel=0 note=80 velocity=87 time=0
<meta message set_tempo tempo=365876 time=231>
note_on channel=0 note=80 velocity=0 time=9
note_on channel=0 note=73 velocity=0 time=0
note_on channel=0 note=70 velocity=0 time=0
note_on channel=0 note=76 velocity=0 time=0
note_on channel=0 note=77 velocity=64 time=0
note_on channel=0 note=80 velocity=76 time=0
note_on channel=0 note=71 velocity=59 time=0
note_on channel=0 note=74 velocity=59 time=0
<meta message set_tempo tempo=363658 time=10>
control_change channel=0 control=64 value=0 time=3
<meta message set_tempo tempo=360382 time=17>
<meta message set_tempo tempo=357164 time=19>
<meta message set_tempo tempo=355051 time=19>
<meta message set_tempo tempo=351927 time=19>
<meta message set_tempo tempo=348857 time=19>
note_on channel=0 note=80 velocity=0 time=14
note_on channel=0 note=82 velocity=68 time=0
<meta message set_tempo tempo=346841 time=6>
<meta message set_tempo tempo=343859 time=19>
control_change channel=0 control=64 value=127 time=3
<meta message set_tempo tempo=340928 time=16>
<meta message set_tempo tempo=341880 time=36>
<meta message set_tempo tempo=340909 time=40>
note_on channel=0 note=82 velocity=0 time=0
note_on channel=0 note=80 velocity=76 time=0
<meta message set_tempo tempo=339943 time=40>
<meta message set_tempo tempo=338983 time=40>
<meta message set_tempo tempo=338028 time=40>
note_on channel=0 note=80 velocity=0 time=0
note_on channel=0 note=82 velocity=68 time=0
<meta message set_tempo tempo=337079 time=40>
<meta message set_tempo tempo=336134 time=40>
<meta message set_tempo tempo=334262 time=40>
note_on channel=0 note=82 velocity=0 time=0
note_on channel=0 note=80 velocity=76 time=0
<meta message set_tempo tempo=333946 time=60>
<meta message set_tempo tempo=328551 time=20>
<meta message set_tempo tempo=333946 time=20>
note_on channel=0 note=80 velocity=0 time=20
note_on channel=0 note=82 velocity=68 time=0
<meta message set_tempo tempo=335027 time=20>
<meta message set_tempo tempo=336134 time=20>
<meta message set_tempo tempo=337268 time=40>
<meta message set_tempo tempo=338371 time=20>
<meta message set_tempo tempo=339501 time=20>
note_on channel=0 note=82 velocity=0 time=0
note_on channel=0 note=80 velocity=76 time=0
<meta message set_tempo tempo=340638 time=40>
<meta message set_tempo tempo=341783 time=20>
<meta message set_tempo tempo=342936 time=20>
<meta message set_tempo tempo=344096 time=40>
note_on channel=0 note=80 velocity=0 time=0
note_on channel=0 note=82 velocity=67 time=0
<meta message set_tempo tempo=345244 time=20>
<meta message set_tempo tempo=346420 time=20>
<meta message set_tempo tempo=347625 time=40>
<meta message set_tempo tempo=348817 time=20>
<meta message set_tempo tempo=349997 time=20>
note_on channel=0 note=82 velocity=0 time=0
note_on channel=0 note=80 velocity=67 time=0
<meta message set_tempo tempo=385802 time=120>
note_on channel=0 note=80 velocity=0 time=0
note_on channel=0 note=79 velocity=70 time=0
note_on channel=0 note=79 velocity=0 time=120
note_on channel=0 note=82 velocity=79 time=0
<meta message set_tempo tempo=422624 time=120>
note_on channel=0 note=82 velocity=0 time=0
note_on channel=0 note=80 velocity=73 time=0
<meta message set_tempo tempo=327869 time=120>
note_on channel=0 note=80 velocity=0 time=0
note_on channel=0 note=74 velocity=0 time=0
note_on channel=0 note=71 velocity=0 time=0
note_on channel=0 note=77 velocity=0 time=0
note_on channel=0 note=76 velocity=58 time=0
note_on channel=0 note=79 velocity=58 time=0
note_on channel=0 note=60 velocity=39 time=0
control_change channel=0 control=64 value=0 time=21
<meta message set_tempo tempo=325203 time=219>
note_on channel=0 note=60 velocity=0 time=0
note_on channel=0 note=72 velocity=36 time=0
note_on channel=0 note=72 velocity=0 time=220
note_on channel=0 note=72 velocity=36 time=20
note_on channel=0 note=72 velocity=0 time=220
<meta message set_tempo tempo=327869 time=20>
note_on channel=0 note=79 velocity=0 time=0
note_on channel=0 note=76 velocity=0 time=0
note_on channel=0 note=72 velocity=39 time=0
note_on channel=0 note=72 velocity=0 time=220
note_on channel=0 note=72 velocity=37 time=20
note_on channel=0 note=72 velocity=0 time=220
note_on channel=0 note=72 velocity=36 time=20
note_on channel=0 note=72 velocity=0 time=220
<meta message set_tempo tempo=327869 time=20>
note_on channel=0 note=72 velocity=39 time=0
note_on channel=0 note=72 velocity=0 time=220
<meta message set_tempo tempo=325203 time=20>
note_on channel=0 note=72 velocity=35 time=0
note_on channel=0 note=72 velocity=0 time=220
note_on channel=0 note=72 velocity=35 time=20
note_on channel=0 note=72 velocity=0 time=220
<meta message set_tempo tempo=327869 time=20>
note_on channel=0 note=72 velocity=39 time=0
note_on channel=0 note=72 velocity=0 time=220
note_on channel=0 note=72 velocity=36 time=20
note_on channel=0 note=72 velocity=0 time=220
note_on channel=0 note=72 velocity=36 time=20
note_on channel=0 note=72 velocity=0 time=220
<meta message set_tempo tempo=327869 time=20>
note_on channel=0 note=77 velocity=56 time=0
note_on channel=0 note=80 velocity=56 time=0
<meta message set_tempo tempo=323450 time=240>
note_on channel=0 note=72 velocity=38 time=0
note_on channel=0 note=72 velocity=0 time=220
note_on channel=0 note=72 velocity=38 time=20
note_on channel=0 note=72 velocity=0 time=220
<meta message set_tempo tempo=327869 time=20>
note_on channel=0 note=80 velocity=0 time=0
note_on channel=0 note=77 velocity=0 time=0
note_on channel=0 note=68 velocity=39 time=0
note_on channel=0 note=65 velocity=39 time=0
note_on channel=0 note=65 velocity=0 time=240
note_on channel=0 note=68 velocity=0 time=0
note_on channel=0 note=72 velocity=37 time=0
note_on channel=0 note=72 velocity=0 time=220
note_on channel=0 note=72 velocity=37 time=20
note_on channel=0 note=72 velocity=0 time=220
<meta message set_tempo tempo=327869 time=20>
note_on channel=0 note=72 velocity=41 time=0
note_on channel=0 note=72 velocity=0 time=220
<meta message set_tempo tempo=325203 time=20>
note_on channel=0 note=72 velocity=37 time=0
note_on channel=0 note=72 velocity=0 time=220
note_on channel=0 note=72 velocity=38 time=20
note_on channel=0 note=72 velocity=0 time=220
<meta message set_tempo tempo=327869 time=20>
note_on channel=0 note=72 velocity=46 time=0
note_on channel=0 note=72 velocity=0 time=220
note_on channel=0 note=72 velocity=40 time=20
note_on channel=0 note=72 velocity=0 time=220
note_on channel=0 note=72 velocity=40 time=20
note_on channel=0 note=72 velocity=0 time=220
<meta message set_tempo tempo=327869 time=20>
note_on channel=0 note=80 velocity=75 time=0
note_on channel=0 note=77 velocity=75 time=0
note_on channel=0 note=85 velocity=75 time=0
<meta message set_tempo tempo=325203 time=240>
note_on channel=0 note=72 velocity=38 time=0
note_on channel=0 note=72 velocity=0 time=220
note_on channel=0 note=72 velocity=38 time=20
note_on channel=0 note=72 velocity=0 time=220
<meta message set_tempo tempo=325203 time=20>
note_on channel=0 note=68 velocity=40 time=0
note_on channel=0 note=65 velocity=40 time=0
note_on channel=0 note=65 velocity=0 time=240
note_on channel=0 note=68 velocity=0 time=0
note_on channel=0 note=72 velocity=37 time=0
note_on channel=0 note=72 velocity=0 time=220
note_on channel=0 note=72 velocity=37 time=20
note_on channel=0 note=72 velocity=0 time=220
<meta message set_tempo tempo=327869 time=20>
note_on channel=0 note=65 velocity=37 time=0
note_on channel=0 note=68 velocity=37 time=0
note_on channel=0 note=68 velocity=0 time=240
note_on channel=0 note=65 velocity=0 time=0
note_on channel=0 note=72 velocity=37 time=0
note_on channel=0 note=72 velocity=0 time=220
note_on channel=0 note=72 velocity=37 time=20
note_on channel=0 note=72 velocity=0 time=220
<meta message set_tempo tempo=327869 time=20>
note_on channel=0 note=65 velocity=37 time=0
note_on channel=0 note=68 velocity=37 time=0
note_on channel=0 note=68 velocity=0 time=240
note_on channel=0 note=65 velocity=0 time=0
note_on channel=0 note=72 velocity=37 time=0
note_on channel=0 note=72 velocity=0 time=220
note_on channel=0 note=72 velocity=37 time=20
note_on channel=0 note=72 velocity=0 time=220
<meta message set_tempo tempo=327869 time=20>
note_on channel=0 note=80 velocity=0 time=0
note_on channel=0 note=77 velocity=0 time=0
note_on channel=0 note=85 velocity=0 time=0
note_on channel=0 note=79 velocity=52 time=0
note_on channel=0 note=76 velocity=52 time=0
note_on channel=0 note=84 velocity=52 time=0
note_on channel=0 note=64 velocity=39 time=0
note_on channel=0 note=67 velocity=39 time=0
<meta message set_tempo tempo=326087 time=240>
note_on channel=0 note=67 velocity=0 time=0
note_on channel=0 note=64 velocity=0 time=0
note_on channel=0 note=60 velocity=37 time=0
note_on channel=0 note=60 velocity=0 time=220
note_on channel=0 note=84 velocity=0 time=20
note_on channel=0 note=76 velocity=0 time=0
note_on channel=0 note=79 velocity=0 time=0
note_on channel=0 note=60 velocity=37 time=0
note_on channel=0 note=60 velocity=0 time=220
<meta message set_tempo tempo=327869 time=20>
note_on channel=0 note=60 velocity=38 time=0
note_on channel=0 note=60 velocity=0 time=220
note_on channel=0 note=60 velocity=37 time=20
note_on channel=0 note=60 velocity=0 time=220
note_on channel=0 note=60 velocity=37 time=20
note_on channel=0 note=60 velocity=0 time=220
<meta message set_tempo tempo=327869 time=20>
note_on channel=0 note=60 velocity=37 time=0
note_on channel=0 note=60 velocity=0 time=220
<meta message set_tempo tempo=325203 time=20>
note_on channel=0 note=60 velocity=37 time=0
note_on channel=0 note=60 velocity=0 time=220
note_on channel=0 note=60 velocity=37 time=20
note_on channel=0 note=60 velocity=0 time=220
<meta message set_tempo tempo=327869 time=20>
note_on channel=0 note=76 velocity=56 time=0
note_on channel=0 note=79 velocity=56 time=0
note_on channel=0 note=60 velocity=38 time=0
note_on channel=0 note=60 velocity=0 time=220
<meta message set_tempo tempo=319149 time=20>
note_on channel=0 note=60 velocity=37 time=0
note_on channel=0 note=60 velocity=0 time=220
note_on channel=0 note=60 velocity=37 time=20
<meta message set_tempo tempo=396040 time=120>
note_on channel=0 note=79 velocity=0 time=0
note_on channel=0 note=76 velocity=0 time=0
note_on channel=0 note=79 velocity=52 time=0
note_on channel=0 note=76 velocity=52 time=0
note_on channel=0 note=60 velocity=0 time=100
<meta message set_tempo tempo=327869 time=20>
note_on channel=0 note=76 velocity=0 time=0
note_on channel=0 note=79 velocity=0 time=0
note_on channel=0 note=80 velocity=58 time=0
note_on channel=0 note=77 velocity=58 time=0
note_on channel=0 note=60 velocity=39 time=0
note_on channel=0 note=60 velocity=0 time=220
note_on channel=0 note=60 velocity=37 time=20
note_on channel=0 note=60 velocity=0 time=220
<meta message set_tempo tempo=321716 time=20>
note_on channel=0 note=77 velocity=0 time=0
note_on channel=0 note=80 velocity=0 time=0
note_on channel=0 note=79 velocity=52 time=0
note_on channel=0 note=76 velocity=52 time=0
note_on channel=0 note=60 velocity=37 time=0
note_on channel=0 note=60 velocity=0 time=220
note_on channel=0 note=76 velocity=0 time=20
note_on channel=0 note=79 velocity=0 time=0
note_on channel=0 note=60 velocity=38 time=0
note_on channel=0 note=60 velocity=0 time=220
note_on channel=0 note=60 velocity=37 time=20
note_on channel=0 note=60 velocity=0 time=220
<meta message set_tempo tempo=327869 time=20>
note_on channel=0 note=67 velocity=50 time=0
note_on channel=0 note=64 velocity=50 time=0
note_on channel=0 note=60 velocity=37 time=0
note_on channel=0 note=60 velocity=0 time=220
<meta message set_tempo tempo=325203 time=20>
note_on channel=0 note=64 velocity=0 time=0
note_on channel=0 note=67 velocity=0 time=0
note_on channel=0 note=60 velocity=38 time=0
note_on channel=0 note=60 velocity=0 time=220
note_on channel=0 note=60 velocity=39 time=20
note_on channel=0 note=60 velocity=0 time=220
note_on channel=0 note=55 velocity=49 time=20
note_on channel=0 note=52 velocity=49 time=0
note_on channel=0 note=60 velocity=37 time=0
note_on channel=0 note=60 velocity=0 time=220
note_on channel=0 note=52 velocity=0 time=20
note_on channel=0 note=55 velocity=0 time=0
note_on channel=0 note=55 velocity=44 time=0
note_on channel=0 note=58 velocity=44 time=0
<meta message set_tempo tempo=328767 time=240>
note_on channel=0 note=58 velocity=0 time=0
note_on channel=0 note=55 velocity=0 time=0
note_on channel=0 note=60 velocity=37 time=0
note_on channel=0 note=60 velocity=0 time=220
<meta message set_tempo tempo=320856 time=20>
note_on channel=0 note=60 velocity=37 time=0
note_on channel=0 note=79 velocity=58 time=120
note_on channel=0 note=76 velocity=58 time=0
<meta message set_tempo tempo=392157 time=40>
note_on channel=0 note=60 velocity=0 time=60
<meta message set_tempo tempo=327869 time=20>
note_on channel=0 note=76 velocity=0 time=0
note_on channel=0 note=79 velocity=0 time=0
note_on channel=0 note=82 velocity=61 time=0
note_on channel=0 note=79 velocity=61 time=0
note_on channel=0 note=60 velocity=39 time=0
note_on channel=0 note=60 velocity=0 time=220
note_on channel=0 note=60 velocity=37 time=20
note_on channel=0 note=60 velocity=0 time=220
<meta message set_tempo tempo=322581 time=20>
note_on channel=0 note=79 velocity=0 time=0
note_on channel=0 note=82 velocity=0 time=0
note_on channel=0 note=77 velocity=52 time=0
note_on channel=0 note=80 velocity=52 time=0
note_on channel=0 note=60 velocity=37 time=0
note_on channel=0 note=60 velocity=0 time=220
note_on channel=0 note=80 velocity=0 time=20
note_on channel=0 note=77 velocity=0 time=0
note_on channel=0 note=60 velocity=37 time=0
note_on channel=0 note=60 velocity=0 time=220
note_on channel=0 note=60 velocity=37 time=20
note_on channel=0 note=60 velocity=0 time=220
<meta message set_tempo tempo=327869 time=20>
note_on channel=0 note=65 velocity=49 time=0
note_on channel=0 note=68 velocity=49 time=0
note_on channel=0 note=60 velocity=37 time=0
note_on channel=0 note=60 velocity=0 time=220
note_on channel=0 note=68 velocity=0 time=20
note_on channel=0 note=65 velocity=0 time=0
note_on channel=0 note=60 velocity=38 time=0
note_on channel=0 note=60 velocity=0 time=220
<meta message set_tempo tempo=324324 time=20>
note_on channel=0 note=60 velocity=37 time=0
note_on channel=0 note=60 velocity=0 time=220
note_on channel=0 note=53 velocity=47 time=20
note_on channel=0 note=56 velocity=47 time=0
note_on channel=0 note=60 velocity=37 time=0
note_on channel=0 note=60 velocity=0 time=220
note_on channel=0 note=56 velocity=0 time=15
note_on channel=0 note=53 velocity=0 time=0
note_on channel=0 note=56 velocity=48 time=5
note_on channel=0 note=53 velocity=44 time=0
<meta message set_tempo tempo=328767 time=240>
note_on channel=0 note=53 velocity=0 time=0
note_on channel=0 note=56 velocity=0 time=0
note_on channel=0 note=60 velocity=37 time=0
note_on channel=0 note=60 velocity=0 time=220
note_on channel=0 note=60 velocity=37 time=20
<meta message set_tempo tempo=406780 time=120>
note_on channel=0 note=77 velocity=52 time=0
note_on channel=0 note=80 velocity=52 time=0
note_on channel=0 note=60 velocity=0 time=100
<meta message set_tempo tempo=327869 time=20>
note_on channel=0 note=80 velocity=0 time=0
note_on channel=0 note=77 velocity=0 time=0
note_on channel=0 note=80 velocity=75 time=0
note_on channel=0 note=77 velocity=75 time=0
note_on channel=0 note=85 velocity=75 time=0
<meta message set_tempo tempo=325203 time=240>
note_on channel=0 note=60 velocity=38 time=0
note_on channel=0 note=60 velocity=0 time=220
note_on channel=0 note=60 velocity=38 time=20
note_on channel=0 note=60 velocity=0 time=220
<meta message set_tempo tempo=327869 time=20>
note_on channel=0 note=53 velocity=40 time=0
note_on channel=0 note=56 velocity=40 time=0
note_on channel=0 note=56 velocity=0 time=240
note_on channel=0 note=53 velocity=0 time=0
note_on channel=0 note=60 velocity=37 time=0
note_on channel=0 note=60 velocity=0 time=220
note_on channel=0 note=60 velocity=37 time=20
note_on channel=0 note=60 velocity=0 time=220
<meta message set_tempo tempo=327869 time=20>
note_on channel=0 note=56 velocity=37 time=0
note_on channel=0 note=53 velocity=37 time=0
note_on channel=0 note=53 velocity=0 time=240
note_on channel=0 note=56 velocity=0 time=0
note_on channel=0 note=60 velocity=37 time=0
note_on channel=0 note=60 velocity=0 time=220
note_on channel=0 note=60 velocity=37 time=20
note_on channel=0 note=60 velocity=0 time=220
<meta message set_tempo tempo=327869 time=20>
note_on channel=0 note=56 velocity=36 time=0
note_on channel=0 note=53 velocity=36 time=0
note_on channel=0 note=53 velocity=0 time=240
note_on channel=0 note=56 velocity=0 time=0
note_on channel=0 note=60 velocity=37 time=0
note_on channel=0 note=60 velocity=0 time=220
note_on channel=0 note=60 velocity=37 time=20
note_on channel=0 note=60 velocity=0 time=220
note_on channel=0 note=80 velocity=0 time=20
note_on channel=0 note=77 velocity=0 time=0
note_on channel=0 note=85 velocity=0 time=0
note_on channel=0 note=79 velocity=61 time=0
note_on channel=0 note=76 velocity=61 time=0
note_on channel=0 note=84 velocity=61 time=0
<meta message set_tempo tempo=325203 time=240>
note_on channel=0 note=60 velocity=38 time=0
note_on channel=0 note=60 velocity=0 time=220
note_on channel=0 note=79 velocity=0 time=20
note_on channel=0 note=76 velocity=0 time=0
note_on channel=0 note=84 velocity=0 time=0
note_on channel=0 note=60 velocity=38 time=0
note_on channel=0 note=60 velocity=0 time=220
<meta message set_tempo tempo=327869 time=20>
note_on channel=0 note=52 velocity=40 time=0
note_on channel=0 note=55 velocity=40 time=0
note_on channel=0 note=55 velocity=0 time=240
note_on channel=0 note=52 velocity=0 time=0
note_on channel=0 note=60 velocity=37 time=0
note_on channel=0 note=60 velocity=0 time=220
note_on channel=0 note=60 velocity=37 time=20
note_on channel=0 note=60 velocity=0 time=220
<meta message set_tempo tempo=327869 time=20>
note_on channel=0 note=66 velocity=52 time=0
note_on channel=0 note=63 velocity=52 time=0
note_on channel=0 note=72 velocity=52 time=0
<meta message set_tempo tempo=325203 time=240>
note_on channel=0 note=60 velocity=37 time=0
note_on channel=0 note=60 velocity=0 time=220
note_on channel=0 note=60 velocity=37 time=20
note_on channel=0 note=60 velocity=0 time=220
<meta message set_tempo tempo=327869 time=20>
note_on channel=0 note=54 velocity=36 time=0
note_on channel=0 note=51 velocity=36 time=0
note_on channel=0 note=51 velocity=0 time=240
note_on channel=0 note=54 velocity=0 time=0
note_on channel=0 note=60 velocity=37 time=0
note_on channel=0 note=60 velocity=0 time=220
note_on channel=0 note=60 velocity=37 time=20
note_on channel=0 note=60 velocity=0 time=220
<meta message set_tempo tempo=332410 time=20>
note_on channel=0 note=66 velocity=0 time=0
note_on channel=0 note=63 velocity=0 time=0
note_on channel=0 note=72 velocity=0 time=0
note_on channel=0 note=65 velocity=52 time=0
note_on channel=0 note=71 velocity=52 time=0
note_on channel=0 note=62 velocity=52 time=0
<meta message set_tempo tempo=328767 time=240>
note_on channel=0 note=60 velocity=37 time=0
note_on channel=0 note=60 velocity=0 time=220
note_on channel=0 note=65 velocity=0 time=20
note_on channel=0 note=71 velocity=0 time=0
note_on channel=0 note=62 velocity=0 time=0
note_on channel=0 note=60 velocity=36 time=0
note_on channel=0 note=60 velocity=0 time=220
<meta message set_tempo tempo=333333 time=20>
note_on channel=0 note=50 velocity=38 time=0
note_on channel=0 note=53 velocity=38 time=0
note_on channel=0 note=53 velocity=0 time=240
note_on channel=0 note=50 velocity=0 time=0
note_on channel=0 note=60 velocity=34 time=0
note_on channel=0 note=60 velocity=0 time=220
note_on channel=0 note=60 velocity=34 time=20
note_on channel=0 note=60 velocity=0 time=220
<meta message set_tempo tempo=335196 time=20>
note_on channel=0 note=61 velocity=46 time=0
note_on channel=0 note=70 velocity=46 time=0
note_on channel=0 note=65 velocity=46 time=0
<meta message set_tempo tempo=329670 time=240>
note_on channel=0 note=60 velocity=32 time=0
note_on channel=0 note=60 velocity=0 time=220
note_on channel=0 note=61 velocity=0 time=20
note_on channel=0 note=70 velocity=0 time=0
note_on channel=0 note=65 velocity=0 time=0
note_on channel=0 note=60 velocity=32 time=0
note_on channel=0 note=60 velocity=0 time=220
note_on channel=0 note=53 velocity=30 time=20
note_on channel=0 note=49 velocity=30 time=0
note_on channel=0 note=49 velocity=0 time=240
note_on channel=0 note=53 velocity=0 time=0
note_on channel=0 note=60 velocity=31 time=0
note_on channel=0 note=60 velocity=0 time=220
<meta message set_tempo tempo=345821 time=20>
note_on channel=0 note=60 velocity=30 time=0
note_on channel=0 note=60 velocity=0 time=220
<meta message set_tempo tempo=335196 time=20>
note_on channel=0 note=60 velocity=41 time=0
note_on channel=0 note=68 velocity=41 time=0
note_on channel=0 note=65 velocity=41 time=0
note_on channel=0 note=48 velocity=25 time=240
note_on channel=0 note=48 velocity=0 time=220
<meta message set_tempo tempo=336134 time=20>
note_on channel=0 note=48 velocity=26 time=0
note_on channel=0 note=48 velocity=0 time=220
note_on channel=0 note=65 velocity=0 time=20
note_on channel=0 note=68 velocity=0 time=0
note_on channel=0 note=60 velocity=0 time=0
note_on channel=0 note=48 velocity=28 time=0
note_on channel=0 note=48 velocity=0 time=220
<meta message set_tempo tempo=337079 time=20>
note_on channel=0 note=48 velocity=26 time=0
note_on channel=0 note=48 velocity=0 time=220
note_on channel=0 note=48 velocity=26 time=20
note_on channel=0 note=48 velocity=0 time=220
<meta message set_tempo tempo=338028 time=20>
note_on channel=0 note=48 velocity=28 time=0
note_on channel=0 note=48 velocity=0 time=220
note_on channel=0 note=48 velocity=26 time=20
note_on channel=0 note=48 velocity=0 time=220
<meta message set_tempo tempo=338983 time=20>
note_on channel=0 note=48 velocity=26 time=0
note_on channel=0 note=48 velocity=0 time=220
note_on channel=0 note=48 velocity=28 time=20
note_on channel=0 note=48 velocity=0 time=220
<meta message set_tempo tempo=339943 time=20>
note_on channel=0 note=48 velocity=26 time=0
note_on channel=0 note=48 velocity=0 time=220
note_on channel=0 note=48 velocity=27 time=20
note_on channel=0 note=48 velocity=0 time=220
<meta message set_tempo tempo=361446 time=20>
note_on channel=0 note=55 velocity=41 time=0
note_on channel=0 note=46 velocity=41 time=0
note_on channel=0 note=52 velocity=41 time=0
note_on channel=0 note=48 velocity=41 time=0
<meta message set_tempo tempo=340909 time=200>
note_on channel=0 note=36 velocity=25 time=40
note_on channel=0 note=36 velocity=0 time=240
note_on channel=0 note=36 velocity=26 time=0
<meta message set_tempo tempo=341880 time=80>
note_on channel=0 note=36 velocity=0 time=160
note_on channel=0 note=48 velocity=0 time=0
note_on channel=0 note=55 velocity=0 time=0
note_on channel=0 note=46 velocity=0 time=0
note_on channel=0 note=52 velocity=0 time=0
note_on channel=0 note=36 velocity=28 time=0
<meta message set_tempo tempo=342857 time=200>
note_on channel=0 note=36 velocity=0 time=40
note_on channel=0 note=36 velocity=26 time=0
note_on channel=0 note=36 velocity=0 time=240
note_on channel=0 note=36 velocity=26 time=0
<meta message set_tempo tempo=343840 time=80>
note_on channel=0 note=36 velocity=0 time=160
note_on channel=0 note=36 velocity=28 time=0
<meta message set_tempo tempo=344828 time=200>
note_on channel=0 note=36 velocity=0 time=40
note_on channel=0 note=36 velocity=26 time=0
<meta message set_tempo tempo=345821 time=40>
<meta message set_tempo tempo=346821 time=80>
<meta message set_tempo tempo=347826 time=40>
<meta message set_tempo tempo=348837 time=80>
note_on channel=0 note=36 velocity=0 time=0
note_on channel=0 note=36 velocity=26 time=0
<meta message set_tempo tempo=349854 time=80>
<meta message set_tempo tempo=350877 time=40>
<meta message set_tempo tempo=351906 time=80>
note_on channel=0 note=36 velocity=0 time=40
note_on channel=0 note=36 velocity=28 time=0
<meta message set_tempo tempo=352941 time=40>
<meta message set_tempo tempo=353982 time=40>
<meta message set_tempo tempo=355030 time=80>
<meta message set_tempo tempo=356083 time=80>
note_on channel=0 note=36 velocity=0 time=0
note_on channel=0 note=36 velocity=26 time=0
<meta message set_tempo tempo=357143 time=40>
<meta message set_tempo tempo=358209 time=80>
<meta message set_tempo tempo=359281 time=80>
<meta message set_tempo tempo=360360 time=40>
note_on channel=0 note=36 velocity=0 time=0
note_on channel=0 note=36 velocity=27 time=0
<meta message set_tempo tempo=361446 time=80>
<meta message set_tempo tempo=362538 time=80>
<meta message set_tempo tempo=363636 time=40>
<meta message set_tempo tempo=381874 time=40>
note_on channel=0 note=36 velocity=0 time=0
note_on channel=0 note=29 velocity=28 time=0
control_change channel=0 control=64 value=127 time=205
<meta message set_tempo tempo=363218 time=35>
note_on channel=0 note=29 velocity=0 time=0
note_on channel=0 note=33 velocity=20 time=0
note_on channel=0 note=36 velocity=20 time=0
note_on channel=0 note=41 velocity=25 time=0
note_on channel=0 note=41 velocity=0 time=240
note_on channel=0 note=36 velocity=0 time=0
note_on channel=0 note=33 velocity=0 time=0
note_on channel=0 note=29 velocity=26 time=0
note_on channel=0 note=29 velocity=0 time=240
note_on channel=0 note=33 velocity=22 time=0
note_on channel=0 note=36 velocity=22 time=0
note_on channel=0 note=41 velocity=28 time=0
note_on channel=0 note=41 velocity=0 time=240
note_on channel=0 note=36 velocity=0 time=0
note_on channel=0 note=33 velocity=0 time=0
note_on channel=0 note=29 velocity=26 time=0
note_on channel=0 note=29 velocity=0 time=240
note_on channel=0 note=33 velocity=20 time=0
note_on channel=0 note=36 velocity=20 time=0
note_on channel=0 note=41 velocity=26 time=0
note_on channel=0 note=41 velocity=0 time=240
note_on channel=0 note=36 velocity=0 time=0
note_on channel=0 note=33 velocity=0 time=0
note_on channel=0 note=29 velocity=28 time=0
control_change channel=0 control=64 value=0 time=16
control_change channel=0 control=64 value=127 time=140
note_on channel=0 note=29 velocity=0 time=84
note_on channel=0 note=33 velocity=20 time=0
note_on channel=0 note=36 velocity=20 time=0
note_on channel=0 note=41 velocity=26 time=0
note_on channel=0 note=41 velocity=0 time=240
note_on channel=0 note=36 velocity=0 time=0
note_on channel=0 note=33 velocity=0 time=0
note_on channel=0 note=29 velocity=26 time=0
note_on channel=0 note=29 velocity=0 time=240
note_on channel=0 note=57 velocity=44 time=0
note_on channel=0 note=45 velocity=40 time=0
note_on channel=0 note=36 velocity=22 time=0
note_on channel=0 note=33 velocity=22 time=0
note_on channel=0 note=41 velocity=28 time=0
<meta message set_tempo tempo=381874 time=240>
note_on channel=0 note=41 velocity=0 time=0
note_on channel=0 note=36 velocity=0 time=0
note_on channel=0 note=33 velocity=0 time=0
note_on channel=0 note=29 velocity=26 time=0
note_on channel=0 note=29 velocity=0 time=240
note_on channel=0 note=41 velocity=27 time=0
note_on channel=0 note=33 velocity=21 time=0
note_on channel=0 note=36 velocity=21 time=0
<meta message set_tempo tempo=484301 time=120>
note_on channel=0 note=45 velocity=0 time=0
note_on channel=0 note=57 velocity=0 time=0
note_on channel=0 note=60 velocity=40 time=0
note_on channel=0 note=48 velocity=37 time=0
<meta message set_tempo tempo=339501 time=120>
note_on channel=0 note=48 velocity=0 time=0
note_on channel=0 note=33 velocity=0 time=0
note_on channel=0 note=36 velocity=0 time=0
note_on channel=0 note=41 velocity=0 time=0
note_on channel=0 note=60 velocity=0 time=0
note_on channel=0 note=53 velocity=38 time=0
note_on channel=0 note=65 velocity=41 time=0
note_on channel=0 note=29 velocity=28 time=0
control_change channel=0 control=64 value=0 time=8
<meta message set_tempo tempo=343466 time=32>
control_change channel=0 control=64 value=127 time=59
note_on channel=0 note=29 velocity=0 time=141
note_on channel=0 note=33 velocity=20 time=0
note_on channel=0 note=36 velocity=20 time=0
note_on channel=0 note=41 velocity=25 time=0
note_on channel=0 note=41 velocity=0 time=240
note_on channel=0 note=33 velocity=0 time=0
note_on channel=0 note=36 velocity=0 time=0
note_on channel=0 note=29 velocity=26 time=0
<meta message set_tempo tempo=360101 time=240>
note_on channel=0 note=29 velocity=0 time=0
note_on channel=0 note=65 velocity=0 time=0
note_on channel=0 note=53 velocity=0 time=0
note_on channel=0 note=57 velocity=40 time=0
note_on channel=0 note=69 velocity=44 time=0
note_on channel=0 note=41 velocity=28 time=0
note_on channel=0 note=36 velocity=22 time=0
note_on channel=0 note=33 velocity=22 time=0
<meta message set_tempo tempo=367444 time=240>
note_on channel=0 note=33 velocity=0 time=0
note_on channel=0 note=41 velocity=0 time=0
note_on channel=0 note=36 velocity=0 time=0
note_on channel=0 note=29 velocity=26 time=0
note_on channel=0 note=29 velocity=0 time=240
note_on channel=0 note=36 velocity=20 time=0
note_on channel=0 note=41 velocity=26 time=0
note_on channel=0 note=33 velocity=20 time=0
<meta message set_tempo tempo=419933 time=120>
note_on channel=0 note=69 velocity=0 time=0
note_on channel=0 note=57 velocity=0 time=0
note_on channel=0 note=65 velocity=39 time=0
note_on channel=0 note=53 velocity=36 time=0
note_on channel=0 note=53 velocity=0 time=120
note_on channel=0 note=41 velocity=0 time=0
note_on channel=0 note=33 velocity=0 time=0
note_on channel=0 note=36 velocity=0 time=0
note_on channel=0 note=65 velocity=0 time=0
note_on channel=0 note=64 velocity=41 time=0
note_on channel=0 note=52 velocity=38 time=0
note_on channel=0 note=31 velocity=28 time=0
control_change channel=0 control=64 value=0 time=19
<meta message set_tempo tempo=350120 time=21>
control_change channel=0 control=64 value=127 time=101
note_on channel=0 note=31 velocity=0 time=99
note_on channel=0 note=34 velocity=20 time=0
note_on channel=0 note=40 velocity=20 time=0
note_on channel=0 note=43 velocity=26 time=0
note_on channel=0 note=43 velocity=0 time=240
note_on channel=0 note=34 velocity=0 time=0
note_on channel=0 note=40 velocity=0 time=0
note_on channel=0 note=31 velocity=26 time=0
<meta message set_tempo tempo=357058 time=240>
note_on channel=0 note=31 velocity=0 time=0
note_on channel=0 note=52 velocity=0 time=0
note_on channel=0 note=64 velocity=0 time=0
note_on channel=0 note=67 velocity=44 time=0
note_on channel=0 note=55 velocity=40 time=0
note_on channel=0 note=34 velocity=22 time=0
note_on channel=0 note=43 velocity=28 time=0
note_on channel=0 note=40 velocity=22 time=0
<meta message set_tempo tempo=375117 time=240>
note_on channel=0 note=40 velocity=0 time=0
note_on channel=0 note=34 velocity=0 time=0
note_on channel=0 note=43 velocity=0 time=0
note_on channel=0 note=31 velocity=26 time=0
note_on channel=0 note=31 velocity=0 time=240
note_on channel=0 note=40 velocity=21 time=0
note_on channel=0 note=43 velocity=27 time=0
note_on channel=0 note=34 velocity=21 time=0
<meta message set_tempo tempo=451433 time=120>
note_on channel=0 note=55 velocity=0 time=0
note_on channel=0 note=67 velocity=0 time=0
note_on channel=0 note=64 velocity=39 time=0
note_on channel=0 note=52 velocity=36 time=0
<meta message set_tempo tempo=343466 time=120>
note_on channel=0 note=52 velocity=0 time=0
note_on channel=0 note=43 velocity=0 time=0
note_on channel=0 note=34 velocity=0 time=0
note_on channel=0 note=40 velocity=0 time=0
note_on channel=0 note=64 velocity=0 time=0
note_on channel=0 note=53 velocity=38 time=0
note_on channel=0 note=65 velocity=41 time=0
note_on channel=0 note=33 velocity=28 time=0
control_change channel=0 control=64 value=0 time=17
control_change channel=0 control=64 value=127 time=139
note_on channel=0 note=33 velocity=0 time=84
note_on channel=0 note=41 velocity=20 time=0
note_on channel=0 note=45 velocity=25 time=0
note_on channel=0 note=36 velocity=20 time=0
note_on channel=0 note=36 velocity=0 time=240
note_on channel=0 note=41 velocity=0 time=0
note_on channel=0 note=45 velocity=0 time=0
note_on channel=0 note=33 velocity=26 time=0
<meta message set_tempo tempo=353066 time=240>
note_on channel=0 note=33 velocity=0 time=0
note_on channel=0 note=65 velocity=0 time=0
note_on channel=0 note=53 velocity=0 time=0
note_on channel=0 note=60 velocity=40 time=0
note_on channel=0 note=48 velocity=40 time=0
note_on channel=0 note=45 velocity=28 time=0
note_on channel=0 note=41 velocity=22 time=0
note_on channel=0 note=36 velocity=22 time=0
note_on channel=0 note=36 velocity=0 time=240
note_on channel=0 note=45 velocity=0 time=0
note_on channel=0 note=41 velocity=0 time=0
note_on channel=0 note=33 velocity=26 time=0
note_on channel=0 note=33 velocity=0 time=240
note_on channel=0 note=36 velocity=20 time=0
note_on channel=0 note=45 velocity=26 time=0
note_on channel=0 note=41 velocity=20 time=0
note_on channel=0 note=41 velocity=0 time=240
note_on channel=0 note=36 velocity=0 time=0
note_on channel=0 note=45 velocity=0 time=0
note_on channel=0 note=33 velocity=28 time=0
control_change channel=0 control=64 value=0 time=17
control_change channel=0 control=64 value=127 time=103
note_on channel=0 note=33 velocity=0 time=120
note_on channel=0 note=45 velocity=26 time=0
note_on channel=0 note=36 velocity=20 time=0
note_on channel=0 note=41 velocity=20 time=0
note_on channel=0 note=41 velocity=0 time=240
note_on channel=0 note=45 velocity=0 time=0
note_on channel=0 note=36 velocity=0 time=0
note_on channel=0 note=33 velocity=26 time=0
note_on channel=0 note=33 velocity=0 time=240
note_on channel=0 note=48 velocity=0 time=0
note_on channel=0 note=60 velocity=0 time=0
note_on channel=0 note=62 velocity=44 time=0
note_on channel=0 note=41 velocity=28 time=0
note_on channel=0 note=50 velocity=40 time=0
<meta message set_tempo tempo=375117 time=240>
note_on channel=0 note=41 velocity=0 time=0
note_on channel=0 note=34 velocity=26 time=0
note_on channel=0 note=34 velocity=0 time=240
note_on channel=0 note=41 velocity=27 time=0
<meta message set_tempo tempo=449809 time=120>
note_on channel=0 note=50 velocity=0 time=0
note_on channel=0 note=62 velocity=0 time=0
note_on channel=0 note=58 velocity=40 time=0
note_on channel=0 note=46 velocity=37 time=0
<meta message set_tempo tempo=342544 time=120>
note_on channel=0 note=46 velocity=0 time=0
note_on channel=0 note=58 velocity=0 time=0
note_on channel=0 note=41 velocity=0 time=0
note_on channel=0 note=57 velocity=44 time=0
note_on channel=0 note=45 velocity=40 time=0
note_on channel=0 note=36 velocity=28 time=0
control_change channel=0 control=64 value=0 time=7
control_change channel=0 control=64 value=127 time=120
note_on channel=0 note=36 velocity=0 time=113
note_on channel=0 note=41 velocity=25 time=0
note_on channel=0 note=41 velocity=0 time=240
note_on channel=0 note=36 velocity=26 time=0
<meta message set_tempo tempo=361141 time=240>
note_on channel=0 note=36 velocity=0 time=0
note_on channel=0 note=45 velocity=0 time=0
note_on channel=0 note=57 velocity=0 time=0
note_on channel=0 note=60 velocity=44 time=0
note_on channel=0 note=41 velocity=28 time=0
note_on channel=0 note=48 velocity=40 time=0
<meta message set_tempo tempo=368505 time=240>
note_on channel=0 note=41 velocity=0 time=0
note_on channel=0 note=36 velocity=25 time=0
note_on channel=0 note=36 velocity=0 time=240
note_on channel=0 note=41 velocity=25 time=0
<meta message set_tempo tempo=419933 time=120>
note_on channel=0 note=48 velocity=0 time=0
note_on channel=0 note=60 velocity=0 time=0
note_on channel=0 note=57 velocity=39 time=0
note_on channel=0 note=45 velocity=36 time=0
note_on channel=0 note=45 velocity=0 time=120
note_on channel=0 note=57 velocity=0 time=0
note_on channel=0 note=41 velocity=0 time=0
note_on channel=0 note=55 velocity=44 time=0
note_on channel=0 note=43 velocity=40 time=0
note_on channel=0 note=36 velocity=28 time=0
control_change channel=0 control=64 value=0 time=11
<meta message set_tempo tempo=350120 time=29>
control_change channel=0 control=64 value=127 time=66
note_on channel=0 note=36 velocity=0 time=134
note_on channel=0 note=40 velocity=25 time=0
note_on channel=0 note=40 velocity=0 time=240
note_on channel=0 note=36 velocity=25 time=0
<meta message set_tempo tempo=357058 time=240>
note_on channel=0 note=36 velocity=0 time=0
note_on channel=0 note=43 velocity=0 time=0
note_on channel=0 note=55 velocity=0 time=0
note_on channel=0 note=60 velocity=44 time=0
note_on channel=0 note=48 velocity=40 time=0
note_on channel=0 note=40 velocity=28 time=0
<meta message set_tempo tempo=384197 time=240>
note_on channel=0 note=40 velocity=0 time=0
note_on channel=0 note=36 velocity=25 time=0
note_on channel=0 note=36 velocity=0 time=240
note_on channel=0 note=40 velocity=25 time=0
<meta message set_tempo tempo=471624 time=120>
note_on channel=0 note=48 velocity=0 time=0
note_on channel=0 note=60 velocity=0 time=0
note_on channel=0 note=58 velocity=39 time=0
note_on channel=0 note=46 velocity=36 time=0
<meta message set_tempo tempo=367444 time=120>
note_on channel=0 note=46 velocity=0 time=0
note_on channel=0 note=58 velocity=0 time=0
note_on channel=0 note=40 velocity=0 time=0
note_on channel=0 note=57 velocity=42 time=0
note_on channel=0 note=41 velocity=28 time=0
control_change channel=0 control=64 value=0 time=13
control_change channel=0 control=64 value=127 time=128
note_on channel=0 note=41 velocity=0 time=99
note_on channel=0 note=45 velocity=20 time=0
note_on channel=0 note=48 velocity=20 time=0
note_on channel=0 note=53 velocity=25 time=0
note_on channel=0 note=53 velocity=0 time=240
note_on channel=0 note=48 velocity=0 time=0
note_on channel=0 note=45 velocity=0 time=0
note_on channel=0 note=41 velocity=27 time=0
<meta message set_tempo tempo=359088 time=240>
note_on channel=0 note=41 velocity=0 time=0
note_on channel=0 note=57 velocity=0 time=0
note_on channel=0 note=60 velocity=42 time=0
note_on channel=0 note=45 velocity=23 time=0
note_on channel=0 note=48 velocity=23 time=0
note_on channel=0 note=53 velocity=29 time=0
note_on channel=0 note=53 velocity=0 time=240
note_on channel=0 note=48 velocity=0 time=0
note_on channel=0 note=45 velocity=0 time=0
note_on channel=0 note=41 velocity=28 time=0
note_on channel=0 note=41 velocity=0 time=240
note_on channel=0 note=45 velocity=22 time=0
note_on channel=0 note=48 velocity=22 time=0
note_on channel=0 note=53 velocity=29 time=0
note_on channel=0 note=53 velocity=0 time=240
note_on channel=0 note=48 velocity=0 time=0
note_on channel=0 note=45 velocity=0 time=0
note_on channel=0 note=41 velocity=32 time=0
control_change channel=0 control=64 value=0 time=16
control_change channel=0 control=64 value=127 time=125
note_on channel=0 note=41 velocity=0 time=99
note_on channel=0 note=45 velocity=24 time=0
note_on channel=0 note=48 velocity=24 time=0
note_on channel=0 note=53 velocity=31 time=0
note_on channel=0 note=53 velocity=0 time=240
note_on channel=0 note=48 velocity=0 time=0
note_on channel=0 note=45 velocity=0 time=0
note_on channel=0 note=41 velocity=31 time=0
note_on channel=0 note=41 velocity=0 time=240
note_on channel=0 note=60 velocity=0 time=0
note_on channel=0 note=69 velocity=55 time=0
note_on channel=0 note=57 velocity=51 time=0
note_on channel=0 note=48 velocity=27 time=0
note_on channel=0 note=45 velocity=27 time=0
note_on channel=0 note=53 velocity=35 time=0
<meta message set_tempo tempo=375117 time=240>
note_on channel=0 note=53 velocity=0 time=0
note_on channel=0 note=48 velocity=0 time=0
note_on channel=0 note=45 velocity=0 time=0
note_on channel=0 note=41 velocity=33 time=0
note_on channel=0 note=41 velocity=0 time=240
note_on channel=0 note=53 velocity=34 time=0
note_on channel=0 note=45 velocity=27 time=0
note_on channel=0 note=48 velocity=27 time=0
<meta message set_tempo tempo=486145 time=120>
note_on channel=0 note=57 velocity=0 time=0
note_on channel=0 note=69 velocity=0 time=0
note_on channel=0 note=72 velocity=53 time=0
note_on channel=0 note=60 velocity=49 time=0
<meta message set_tempo tempo=354045 time=120>
note_on channel=0 note=60 velocity=0 time=0
note_on channel=0 note=45 velocity=0 time=0
note_on channel=0 note=48 velocity=0 time=0
note_on channel=0 note=53 velocity=0 time=0
note_on channel=0 note=72 velocity=0 time=0
note_on channel=0 note=65 velocity=51 time=0
note_on channel=0 note=77 velocity=56 time=0
note_on channel=0 note=41 velocity=37 time=0
control_change channel=0 control=64 value=0 time=17
control_change channel=0 control=64 value=127 time=89
note_on channel=0 note=41 velocity=0 time=134
note_on channel=0 note=45 velocity=27 time=0
note_on channel=0 note=48 velocity=27 time=0
note_on channel=0 note=53 velocity=34 time=0
note_on channel=0 note=53 velocity=0 time=240
note_on channel=0 note=45 velocity=0 time=0
note_on channel=0 note=48 velocity=0 time=0
note_on channel=0 note=41 velocity=36 time=0
<meta message set_tempo tempo=357590 time=240>
note_on channel=0 note=41 velocity=0 time=0
note_on channel=0 note=77 velocity=0 time=0
note_on channel=0 note=65 velocity=0 time=0
note_on channel=0 note=81 velocity=62 time=0
note_on channel=0 note=69 velocity=57 time=0
note_on channel=0 note=45 velocity=30 time=0
note_on channel=0 note=48 velocity=30 time=0
note_on channel=0 note=53 velocity=39 time=0
<meta message set_tempo tempo=363218 time=240>
note_on channel=0 note=53 velocity=0 time=0
note_on channel=0 note=45 velocity=0 time=0
note_on channel=0 note=48 velocity=0 time=0
note_on channel=0 note=41 velocity=37 time=0
note_on channel=0 note=41 velocity=0 time=240
note_on channel=0 note=48 velocity=29 time=0
note_on channel=0 note=53 velocity=38 time=0
note_on channel=0 note=45 velocity=29 time=0
<meta message set_tempo tempo=419933 time=120>
note_on channel=0 note=69 velocity=0 time=0
note_on channel=0 note=81 velocity=0 time=0
note_on channel=0 note=77 velocity=58 time=0
note_on channel=0 note=65 velocity=53 time=0
note_on channel=0 note=65 velocity=0 time=120
note_on channel=0 note=53 velocity=0 time=0
note_on channel=0 note=45 velocity=0 time=0
note_on channel=0 note=48 velocity=0 time=0
note_on channel=0 note=77 velocity=0 time=0
note_on channel=0 note=76 velocity=61 time=0
note_on channel=0 note=64 velocity=57 time=0
note_on channel=0 note=43 velocity=40 time=0
control_change channel=0 control=64 value=0 time=21
<meta message set_tempo tempo=350120 time=19>
control_change channel=0 control=64 value=127 time=123
note_on channel=0 note=43 velocity=0 time=77
note_on channel=0 note=46 velocity=29 time=0
note_on channel=0 note=48 velocity=29 time=0
note_on channel=0 note=55 velocity=38 time=0
note_on channel=0 note=55 velocity=0 time=240
note_on channel=0 note=46 velocity=0 time=0
note_on channel=0 note=48 velocity=0 time=0
note_on channel=0 note=43 velocity=39 time=0
<meta message set_tempo tempo=366367 time=240>
note_on channel=0 note=43 velocity=0 time=0
note_on channel=0 note=64 velocity=0 time=0
note_on channel=0 note=76 velocity=0 time=0
note_on channel=0 note=79 velocity=68 time=0
note_on channel=0 note=67 velocity=62 time=0
note_on channel=0 note=46 velocity=34 time=0
note_on channel=0 note=55 velocity=42 time=0
note_on channel=0 note=48 velocity=34 time=0
<meta message set_tempo tempo=375117 time=240>
note_on channel=0 note=48 velocity=0 time=0
note_on channel=0 note=46 velocity=0 time=0
note_on channel=0 note=55 velocity=0 time=0
note_on channel=0 note=43 velocity=40 time=0
note_on channel=0 note=43 velocity=0 time=240
note_on channel=0 note=48 velocity=33 time=0
note_on channel=0 note=55 velocity=42 time=0
note_on channel=0 note=46 velocity=33 time=0
<meta message set_tempo tempo=542986 time=120>
note_on channel=0 note=67 velocity=0 time=0
note_on channel=0 note=79 velocity=0 time=0
note_on channel=0 note=76 velocity=63 time=0
note_on channel=0 note=64 velocity=58 time=0
<meta message set_tempo tempo=359088 time=120>
note_on channel=0 note=64 velocity=0 time=0
note_on channel=0 note=55 velocity=0 time=0
note_on channel=0 note=46 velocity=0 time=0
note_on channel=0 note=48 velocity=0 time=0
note_on channel=0 note=76 velocity=0 time=0
note_on channel=0 note=77 velocity=57 time=0
note_on channel=0 note=65 velocity=51 time=0
note_on channel=0 note=57 velocity=36 time=0
note_on channel=0 note=48 velocity=28 time=0
note_on channel=0 note=45 velocity=28 time=0
note_on channel=0 note=53 velocity=36 time=0
control_change channel=0 control=64 value=0 time=0
control_change channel=0 control=64 value=127 time=440
<meta message set_tempo tempo=347242 time=280>
note_on channel=0 note=65 velocity=0 time=0
note_on channel=0 note=77 velocity=0 time=0
note_on channel=0 note=60 velocity=48 time=0
note_on channel=0 note=72 velocity=52 time=0
<meta message set_tempo tempo=362538 time=2160>
note_on channel=0 note=72 velocity=0 time=0
note_on channel=0 note=53 velocity=0 time=0
note_on channel=0 note=57 velocity=0 time=0
note_on channel=0 note=48 velocity=0 time=0
note_on channel=0 note=60 velocity=0 time=0
note_on channel=0 note=45 velocity=0 time=0
note_on channel=0 note=61 velocity=72 time=0
note_on channel=0 note=73 velocity=85 time=0
note_on channel=0 note=49 velocity=50 time=0
note_on channel=0 note=53 velocity=59 time=0
note_on channel=0 note=46 velocity=50 time=0
control_change channel=0 control=64 value=0 time=7
control_change channel=0 control=64 value=127 time=233
<meta message set_tempo tempo=328767 time=480>
note_on channel=0 note=53 velocity=0 time=0
note_on channel=0 note=73 velocity=0 time=0
note_on channel=0 note=61 velocity=0 time=0
note_on channel=0 note=58 velocity=69 time=0
note_on channel=0 note=70 velocity=81 time=0
note_on channel=0 note=54 velocity=57 time=0
control_change channel=0 control=64 value=0 time=20
control_change channel=0 control=64 value=127 time=240
<meta message set_tempo tempo=334262 time=1900>
note_on channel=0 note=54 velocity=0 time=0
note_on channel=0 note=58 velocity=0 time=0
note_on channel=0 note=46 velocity=0 time=0
note_on channel=0 note=49 velocity=0 time=0
note_on channel=0 note=70 velocity=0 time=0
note_on channel=0 note=68 velocity=58 time=0
note_on channel=0 note=48 velocity=28 time=0
note_on channel=0 note=56 velocity=36 time=0
note_on channel=0 note=53 velocity=36 time=0
control_change channel=0 control=64 value=0 time=11
control_change channel=0 control=64 value=127 time=187
<meta message set_tempo tempo=345821 time=1962>
note_on channel=0 note=68 velocity=0 time=0
note_on channel=0 note=67 velocity=51 time=0
<meta message set_tempo tempo=396040 time=480>
note_on channel=0 note=67 velocity=0 time=0
note_on channel=0 note=65 velocity=49 time=0
<meta message set_tempo tempo=360360 time=220>
note_on channel=0 note=65 velocity=0 time=20
note_on channel=0 note=48 velocity=0 time=0
note_on channel=0 note=56 velocity=0 time=0
note_on channel=0 note=53 velocity=0 time=0
note_on channel=0 note=67 velocity=46 time=0
note_on channel=0 note=48 velocity=25 time=0
note_on channel=0 note=52 velocity=31 time=0
note_on channel=0 note=58 velocity=31 time=0
control_change channel=0 control=64 value=0 time=9
<meta message set_tempo tempo=359281 time=11>
<meta message set_tempo tempo=358209 time=40>
control_change channel=0 control=64 value=127 time=32
<meta message set_tempo tempo=357143 time=8>
note_on channel=0 note=67 velocity=0 time=20
note_on channel=0 note=68 velocity=39 time=0
<meta message set_tempo tempo=356083 time=20>
<meta message set_tempo tempo=355030 time=40>
<meta message set_tempo tempo=353982 time=40>
<meta message set_tempo tempo=350877 time=20>
note_on channel=0 note=68 velocity=0 time=0
note_on channel=0 note=67 velocity=46 time=0
<meta message set_tempo tempo=349854 time=20>
<meta message set_tempo tempo=348837 time=20>
<meta message set_tempo tempo=347826 time=20>
<meta message set_tempo tempo=349854 time=60>
note_on channel=0 note=67 velocity=0 time=0
note_on channel=0 note=68 velocity=40 time=0
<meta message set_tempo tempo=350877 time=20>
<meta message set_tempo tempo=352941 time=20>
<meta message set_tempo tempo=353982 time=20>
<meta message set_tempo tempo=355030 time=20>
note_on channel=0 note=68 velocity=0 time=40
note_on channel=0 note=67 velocity=47 time=0
<meta message set_tempo tempo=353982 time=20>
<meta message set_tempo tempo=351906 time=20>
<meta message set_tempo tempo=350877 time=20>
<meta message set_tempo tempo=349854 time=20>
<meta message set_tempo tempo=348837 time=12>
<meta message set_tempo tempo=347826 time=12>
<meta message set_tempo tempo=346821 time=16>
note_on channel=0 note=67 velocity=0 time=0
note_on channel=0 note=68 velocity=40 time=0
<meta message set_tempo tempo=345821 time=12>
<meta message set_tempo tempo=344828 time=12>
<meta message set_tempo tempo=343840 time=28>
<meta message set_tempo tempo=345821 time=52>
<meta message set_tempo tempo=346821 time=16>
note_on channel=0 note=68 velocity=0 time=0
note_on channel=0 note=67 velocity=48 time=0
<meta message set_tempo tempo=347826 time=12>
<meta message set_tempo tempo=345821 time=12>
<meta message set_tempo tempo=342857 time=16>
<meta message set_tempo tempo=341880 time=24>
<meta message set_tempo tempo=340909 time=28>
<meta message set_tempo tempo=342857 time=28>
note_on channel=0 note=67 velocity=0 time=0
note_on channel=0 note=68 velocity=41 time=0
<meta message set_tempo tempo=339943 time=24>
<meta message set_tempo tempo=338983 time=16>
<meta message set_tempo tempo=338028 time=12>
<meta message set_tempo tempo=337079 time=12>
<meta message set_tempo tempo=338983 time=28>
<meta message set_tempo tempo=340909 time=12>
<meta message set_tempo tempo=341880 time=16>
note_on channel=0 note=68 velocity=0 time=0
note_on channel=0 note=67 velocity=49 time=0
<meta message set_tempo tempo=339943 time=92>
<meta message set_tempo tempo=337079 time=12>
note_on channel=0 note=67 velocity=0 time=16
note_on channel=0 note=68 velocity=42 time=0
<meta message set_tempo tempo=338028 time=12>
<meta message set_tempo tempo=337079 time=28>
<meta message set_tempo tempo=336134 time=24>
<meta message set_tempo tempo=337079 time=40>
<meta message set_tempo tempo=339943 time=16>
note_on channel=0 note=68 velocity=0 time=0
note_on channel=0 note=67 velocity=50 time=0
<meta message set_tempo tempo=340909 time=12>
<meta message set_tempo tempo=338983 time=68>
<meta message set_tempo tempo=338028 time=24>
note_on channel=0 note=67 velocity=0 time=16
note_on channel=0 note=68 velocity=42 time=0
<meta message set_tempo tempo=337079 time=12>
<meta message set_tempo tempo=338028 time=28>
<meta message set_tempo tempo=339943 time=12>
<meta message set_tempo tempo=341880 time=12>
<meta message set_tempo tempo=340909 time=56>
note_on channel=0 note=68 velocity=0 time=0
note_on channel=0 note=67 velocity=51 time=0
<meta message set_tempo tempo=339943 time=12>
<meta message set_tempo tempo=338983 time=12>
<meta message set_tempo tempo=338028 time=56>
<meta message set_tempo tempo=341880 time=12>
<meta message set_tempo tempo=343840 time=12>
note_on channel=0 note=67 velocity=0 time=16
note_on channel=0 note=68 velocity=44 time=0
<meta message set_tempo tempo=342857 time=24>
<meta message set_tempo tempo=341880 time=16>
<meta message set_tempo tempo=340909 time=24>
<meta message set_tempo tempo=339943 time=16>
<meta message set_tempo tempo=338983 time=12>
note_on channel=0 note=68 velocity=0 time=28
note_on channel=0 note=67 velocity=51 time=0
<meta message set_tempo tempo=339943 time=24>
<meta message set_tempo tempo=342857 time=28>
<meta message set_tempo tempo=343840 time=12>
<meta message set_tempo tempo=342857 time=40>
note_on channel=0 note=67 velocity=0 time=16
note_on channel=0 note=68 velocity=45 time=0
<meta message set_tempo tempo=341880 time=12>
<meta message set_tempo tempo=340909 time=12>
<meta message set_tempo tempo=341880 time=68>
<meta message set_tempo tempo=342857 time=12>
<meta message set_tempo tempo=343840 time=16>
note_on channel=0 note=68 velocity=0 time=0
note_on channel=0 note=67 velocity=52 time=0
<meta message set_tempo tempo=342857 time=104>
note_on channel=0 note=67 velocity=0 time=16
note_on channel=0 note=68 velocity=46 time=0
<meta message set_tempo tempo=341880 time=12>
<meta message set_tempo tempo=338983 time=12>
<meta message set_tempo tempo=339943 time=40>
<meta message set_tempo tempo=341880 time=16>
<meta message set_tempo tempo=342857 time=24>
<meta message set_tempo tempo=344828 time=16>
note_on channel=0 note=68 velocity=0 time=0
note_on channel=0 note=67 velocity=53 time=0
<meta message set_tempo tempo=346821 time=40>
<meta message set_tempo tempo=347826 time=12>
<meta message set_tempo tempo=345821 time=40>
<meta message set_tempo tempo=344828 time=12>
<meta message set_tempo tempo=342857 time=16>
note_on channel=0 note=67 velocity=0 time=0
note_on channel=0 note=68 velocity=48 time=0
<meta message set_tempo tempo=341880 time=12>
<meta message set_tempo tempo=343840 time=40>
<meta message set_tempo tempo=344828 time=12>
<meta message set_tempo tempo=345821 time=16>
note_on channel=0 note=68 velocity=0 time=40
note_on channel=0 note=67 velocity=55 time=0
<meta message set_tempo tempo=344828 time=12>
<meta message set_tempo tempo=343840 time=12>
<meta message set_tempo tempo=344828 time=68>
<meta message set_tempo tempo=345821 time=12>
<meta message set_tempo tempo=346821 time=16>
note_on channel=0 note=67 velocity=0 time=0
note_on channel=0 note=68 velocity=48 time=0
<meta message set_tempo tempo=351906 time=120>
note_on channel=0 note=68 velocity=0 time=0
note_on channel=0 note=67 velocity=56 time=0
<meta message set_tempo tempo=350877 time=20>
<meta message set_tempo tempo=349854 time=20>
<meta message set_tempo tempo=348837 time=40>
<meta message set_tempo tempo=349854 time=40>
note_on channel=0 note=67 velocity=0 time=0
note_on channel=0 note=68 velocity=48 time=0
<meta message set_tempo tempo=350877 time=20>
<meta message set_tempo tempo=351906 time=20>
<meta message set_tempo tempo=352941 time=20>
<meta message set_tempo tempo=600000 time=60>
note_on channel=0 note=68 velocity=0 time=0
note_on channel=0 note=58 velocity=0 time=0
note_on channel=0 note=52 velocity=0 time=0
note_on channel=0 note=48 velocity=0 time=0
note_on channel=0 note=73 velocity=46 time=0
control_change channel=0 control=64 value=0 time=16
<meta message set_tempo tempo=359281 time=4>
<meta message set_tempo tempo=358209 time=40>
<meta message set_tempo tempo=349854 time=4>
control_change channel=0 control=64 value=127 time=11
<meta message set_tempo tempo=348837 time=5>
<meta message set_tempo tempo=347826 time=12>
<meta message set_tempo tempo=346821 time=12>
<meta message set_tempo tempo=345821 time=16>
note_on channel=0 note=73 velocity=0 time=0
note_on channel=0 note=72 velocity=39 time=0
<meta message set_tempo tempo=344828 time=12>
<meta message set_tempo tempo=345821 time=40>
<meta message set_tempo tempo=346821 time=28>
<meta message set_tempo tempo=348837 time=24>
note_on channel=0 note=72 velocity=0 time=16
note_on channel=0 note=73 velocity=46 time=0
<meta message set_tempo tempo=347826 time=24>
<meta message set_tempo tempo=344828 time=16>
<meta message set_tempo tempo=343840 time=12>
<meta message set_tempo tempo=341880 time=28>
<meta message set_tempo tempo=340909 time=12>
<meta message set_tempo tempo=341880 time=28>
note_on channel=0 note=73 velocity=0 time=0
note_on channel=0 note=72 velocity=40 time=0
<meta message set_tempo tempo=343840 time=12>
<meta message set_tempo tempo=345821 time=12>
<meta message set_tempo tempo=343840 time=68>
<meta message set_tempo tempo=341880 time=28>
note_on channel=0 note=72 velocity=0 time=0
note_on channel=0 note=73 velocity=48 time=0
<meta message set_tempo tempo=339943 time=12>
<meta message set_tempo tempo=338983 time=12>
<meta message set_tempo tempo=339943 time=40>
<meta message set_tempo tempo=340909 time=16>
<meta message set_tempo tempo=341880 time=12>
<meta message set_tempo tempo=342857 time=12>
note_on channel=0 note=73 velocity=0 time=16
note_on channel=0 note=72 velocity=41 time=0
<meta message set_tempo tempo=341880 time=40>
<meta message set_tempo tempo=338983 time=12>
<meta message set_tempo tempo=338028 time=12>
<meta message set_tempo tempo=337079 time=16>
<meta message set_tempo tempo=336134 time=12>
<meta message set_tempo tempo=338028 time=28>
note_on channel=0 note=72 velocity=0 time=0
note_on channel=0 note=73 velocity=50 time=0
<meta message set_tempo tempo=338983 time=12>
<meta message set_tempo tempo=339943 time=12>
<meta message set_tempo tempo=340909 time=28>
<meta message set_tempo tempo=339943 time=52>
<meta message set_tempo tempo=338983 time=16>
note_on channel=0 note=73 velocity=0 time=0
note_on channel=0 note=72 velocity=44 time=0
<meta message set_tempo tempo=337079 time=12>
<meta message set_tempo tempo=336134 time=12>
<meta message set_tempo tempo=335196 time=16>
<meta message set_tempo tempo=336134 time=24>
<meta message set_tempo tempo=338028 time=16>
note_on channel=0 note=72 velocity=0 time=40
note_on channel=0 note=73 velocity=51 time=0
<meta message set_tempo tempo=337079 time=24>
<meta message set_tempo tempo=336134 time=16>
<meta message set_tempo tempo=335196 time=64>
note_on channel=0 note=73 velocity=0 time=16
note_on channel=0 note=72 velocity=45 time=0
<meta message set_tempo tempo=338028 time=12>
<meta message set_tempo tempo=337079 time=80>
<meta message set_tempo tempo=336134 time=12>
note_on channel=0 note=72 velocity=0 time=16
note_on channel=0 note=73 velocity=53 time=0
<meta message set_tempo tempo=337079 time=64>
<meta message set_tempo tempo=338028 time=16>
<meta message set_tempo tempo=338983 time=12>
note_on channel=0 note=73 velocity=0 time=28
note_on channel=0 note=72 velocity=47 time=0
<meta message set_tempo tempo=338028 time=40>
<meta message set_tempo tempo=337079 time=24>
note_on channel=0 note=72 velocity=0 time=56
note_on channel=0 note=73 velocity=56 time=0
<meta message set_tempo tempo=336134 time=12>
<meta message set_tempo tempo=338983 time=52>
<meta message set_tempo tempo=339943 time=40>
note_on channel=0 note=73 velocity=0 time=16
note_on channel=0 note=72 velocity=48 time=0
<meta message set_tempo tempo=338983 time=104>
note_on channel=0 note=72 velocity=0 time=16
note_on channel=0 note=73 velocity=56 time=0
<meta message set_tempo tempo=338028 time=40>
<meta message set_tempo tempo=339943 time=40>
<meta message set_tempo tempo=340909 time=12>
note_on channel=0 note=73 velocity=0 time=28
note_on channel=0 note=72 velocity=47 time=0
<meta message set_tempo tempo=339943 time=24>
<meta message set_tempo tempo=338983 time=40>
note_on channel=0 note=72 velocity=0 time=56
note_on channel=0 note=73 velocity=56 time=0
<meta message set_tempo tempo=340909 time=24>
<meta message set_tempo tempo=341880 time=16>
<meta message set_tempo tempo=340909 time=64>
<meta message set_tempo tempo=339943 time=16>
note_on channel=0 note=73 velocity=0 time=0
note_on channel=0 note=72 velocity=48 time=0
<meta message set_tempo tempo=341880 time=80>
<meta message set_tempo tempo=342857 time=12>
note_on channel=0 note=72 velocity=0 time=28
note_on channel=0 note=73 velocity=56 time=0
<meta message set_tempo tempo=341880 time=64>
note_on channel=0 note=73 velocity=0 time=56
note_on channel=0 note=72 velocity=49 time=0
<meta message set_tempo tempo=342857 time=12>
<meta message set_tempo tempo=344828 time=12>
<meta message set_tempo tempo=345821 time=16>
<meta message set_tempo tempo=344828 time=24>
<meta message set_tempo tempo=343840 time=16>
<meta message set_tempo tempo=342857 time=12>
<meta message set_tempo tempo=341880 time=28>
note_on channel=0 note=72 velocity=0 time=0
note_on channel=0 note=73 velocity=56 time=0
<meta message set_tempo tempo=340909 time=12>
<meta message set_tempo tempo=339943 time=40>
<meta message set_tempo tempo=341880 time=28>
<meta message set_tempo tempo=347826 time=12>
<meta message set_tempo tempo=349854 time=12>
note_on channel=0 note=73 velocity=0 time=16
note_on channel=0 note=72 velocity=49 time=0
<meta message set_tempo tempo=348837 time=40>
<meta message set_tempo tempo=346821 time=12>
<meta message set_tempo tempo=345821 time=12>
<meta message set_tempo tempo=344828 time=16>
<meta message set_tempo tempo=343840 time=12>
<meta message set_tempo tempo=344828 time=28>
note_on channel=0 note=72 velocity=0 time=0
note_on channel=0 note=71 velocity=56 time=0
<meta message set_tempo tempo=345821 time=12>
<meta message set_tempo tempo=347826 time=12>
<meta message set_tempo tempo=348837 time=16>
<meta message set_tempo tempo=348837 time=40>
<meta message set_tempo tempo=349854 time=40>
note_on channel=0 note=71 velocity=0 time=0
note_on channel=0 note=72 velocity=48 time=0
<meta message set_tempo tempo=600000 time=120>
note_on channel=0 note=72 velocity=0 time=0
note_on channel=0 note=85 velocity=49 time=0
control_change channel=0 control=64 value=0 time=11
<meta message set_tempo tempo=359281 time=9>
<meta message set_tempo tempo=350877 time=32>
<meta message set_tempo tempo=349854 time=12>
<meta message set_tempo tempo=347826 time=16>
control_change channel=0 control=64 value=127 time=12
<meta message set_tempo tempo=345821 time=0>
<meta message set_tempo tempo=344828 time=12>
note_on channel=0 note=85 velocity=0 time=16
note_on channel=0 note=84 velocity=41 time=0
<meta message set_tempo tempo=346821 time=24>
<meta message set_tempo tempo=343840 time=56>
<meta message set_tempo tempo=340909 time=12>
<meta message set_tempo tempo=338983 time=12>
<meta message set_tempo tempo=338028 time=16>
note_on channel=0 note=84 velocity=0 time=0
note_on channel=0 note=85 velocity=49 time=0
<meta message set_tempo tempo=338983 time=24>
<meta message set_tempo tempo=339943 time=16>
<meta message set_tempo tempo=340909 time=12>
<meta message set_tempo tempo=339943 time=28>
<meta message set_tempo tempo=338028 time=12>
<meta message set_tempo tempo=336134 time=12>
<meta message set_tempo tempo=334262 time=16>
note_on channel=0 note=85 velocity=0 time=0
note_on channel=0 note=84 velocity=43 time=0
<meta message set_tempo tempo=333333 time=12>
<meta message set_tempo tempo=332410 time=12>
<meta message set_tempo tempo=334262 time=16>
<meta message set_tempo tempo=335196 time=12>
<meta message set_tempo tempo=337079 time=12>
<meta message set_tempo tempo=338983 time=16>
<meta message set_tempo tempo=338028 time=24>
note_on channel=0 note=84 velocity=0 time=16
note_on channel=0 note=85 velocity=51 time=0
<meta message set_tempo tempo=337079 time=12>
<meta message set_tempo tempo=335196 time=12>
<meta message set_tempo tempo=334262 time=16>
<meta message set_tempo tempo=333333 time=12>
<meta message set_tempo tempo=327869 time=12>
<meta message set_tempo tempo=326975 time=28>
<meta message set_tempo tempo=326087 time=12>
<meta message set_tempo tempo=325203 time=16>
note_on channel=0 note=85 velocity=0 time=0
note_on channel=0 note=84 velocity=45 time=0
<meta message set_tempo tempo=326087 time=40>
<meta message set_tempo tempo=329670 time=12>
<meta message set_tempo tempo=330579 time=12>
<meta message set_tempo tempo=328767 time=56>
note_on channel=0 note=84 velocity=0 time=0
note_on channel=0 note=85 velocity=54 time=0
<meta message set_tempo tempo=327869 time=12>
<meta message set_tempo tempo=326975 time=12>
<meta message set_tempo tempo=324324 time=16>
<meta message set_tempo tempo=323450 time=12>
<meta message set_tempo tempo=325203 time=52>
<meta message set_tempo tempo=326087 time=16>
note_on channel=0 note=85 velocity=0 time=0
note_on channel=0 note=84 velocity=45 time=0
<meta message set_tempo tempo=326975 time=12>
<meta message set_tempo tempo=325203 time=80>
<meta message set_tempo tempo=324324 time=12>
<meta message set_tempo tempo=323450 time=16>
note_on channel=0 note=84 velocity=0 time=0
note_on channel=0 note=85 velocity=55 time=0
<meta message set_tempo tempo=322581 time=12>
<meta message set_tempo tempo=324324 time=40>
<meta message set_tempo tempo=326087 time=28>
note_on channel=0 note=85 velocity=0 time=40
note_on channel=0 note=84 velocity=46 time=0
<meta message set_tempo tempo=324324 time=12>
<meta message set_tempo tempo=322581 time=12>
<meta message set_tempo tempo=324324 time=56>
<meta message set_tempo tempo=325203 time=12>
note_on channel=0 note=84 velocity=0 time=28
note_on channel=0 note=85 velocity=56 time=0
<meta message set_tempo tempo=324324 time=12>
<meta message set_tempo tempo=323450 time=12>
<meta message set_tempo tempo=324324 time=68>
<meta message set_tempo tempo=326087 time=12>
<meta message set_tempo tempo=326975 time=16>
note_on channel=0 note=85 velocity=0 time=0
note_on channel=0 note=84 velocity=49 time=0
<meta message set_tempo tempo=325203 time=40>
<meta message set_tempo tempo=322581 time=12>
<meta message set_tempo tempo=324324 time=52>
note_on channel=0 note=84 velocity=0 time=16
note_on channel=0 note=85 velocity=60 time=0
<meta message set_tempo tempo=326975 time=12>
<meta message set_tempo tempo=327869 time=12>
<meta message set_tempo tempo=326975 time=80>
<meta message set_tempo tempo=325203 time=16>
note_on channel=0 note=85 velocity=0 time=0
note_on channel=0 note=84 velocity=49 time=0
<meta message set_tempo tempo=324324 time=12>
<meta message set_tempo tempo=323450 time=12>
<meta message set_tempo tempo=322581 time=16>
<meta message set_tempo tempo=323450 time=24>
<meta message set_tempo tempo=326087 time=16>
<meta message set_tempo tempo=326975 time=12>
<meta message set_tempo tempo=327869 time=12>
note_on channel=0 note=84 velocity=0 time=16
note_on channel=0 note=85 velocity=58 time=0
<meta message set_tempo tempo=326975 time=12>
<meta message set_tempo tempo=325203 time=12>
<meta message set_tempo tempo=323450 time=16>
<meta message set_tempo tempo=325203 time=80>
note_on channel=0 note=85 velocity=0 time=0
note_on channel=0 note=84 velocity=48 time=0
<meta message set_tempo tempo=326087 time=24>
<meta message set_tempo tempo=328767 time=16>
<meta message set_tempo tempo=330579 time=12>
<meta message set_tempo tempo=328767 time=40>
note_on channel=0 note=84 velocity=0 time=28
note_on channel=0 note=85 velocity=55 time=0
<meta message set_tempo tempo=329670 time=64>
<meta message set_tempo tempo=338983 time=28>
<meta message set_tempo tempo=338028 time=12>
<meta message set_tempo tempo=337079 time=16>
note_on channel=0 note=85 velocity=0 time=0
note_on channel=0 note=84 velocity=45 time=0
<meta message set_tempo tempo=335196 time=12>
<meta message set_tempo tempo=337079 time=52>
<meta message set_tempo tempo=338028 time=16>
<meta message set_tempo tempo=338983 time=24>
note_on channel=0 note=84 velocity=0 time=16
note_on channel=0 note=85 velocity=54 time=0
<meta message set_tempo tempo=337079 time=40>
<meta message set_tempo tempo=338028 time=80>
note_on channel=0 note=85 velocity=0 time=0
note_on channel=0 note=84 velocity=45 time=0
<meta message set_tempo tempo=340909 time=12>
<meta message set_tempo tempo=341880 time=12>
<meta message set_tempo tempo=340909 time=68>
<meta message set_tempo tempo=339943 time=12>
note_on channel=0 note=84 velocity=0 time=16
note_on channel=0 note=85 velocity=52 time=0
<meta message set_tempo tempo=341880 time=12>
<meta message set_tempo tempo=342857 time=28>
<meta message set_tempo tempo=344828 time=12>
<meta message set_tempo tempo=345821 time=12>
<meta message set_tempo tempo=346821 time=40>
note_on channel=0 note=85 velocity=0 time=16
note_on channel=0 note=84 velocity=44 time=0
<meta message set_tempo tempo=345821 time=24>
<meta message set_tempo tempo=344828 time=16>
<meta message set_tempo tempo=342857 time=12>
<meta message set_tempo tempo=345821 time=52>
<meta message set_tempo tempo=353982 time=16>
note_on channel=0 note=84 velocity=0 time=0
note_on channel=0 note=83 velocity=50 time=0
<meta message set_tempo tempo=362538 time=12>
<meta message set_tempo tempo=378549 time=108>
note_on channel=0 note=83 velocity=0 time=0
note_on channel=0 note=84 velocity=40 time=0
<meta message set_tempo tempo=361446 time=120>
note_on channel=0 note=84 velocity=0 time=0
note_on channel=0 note=85 velocity=47 time=0
control_change channel=0 control=64 value=0 time=15
note_on channel=0 note=85 velocity=0 time=225
note_on channel=0 note=84 velocity=47 time=0
note_on channel=0 note=84 velocity=0 time=240
note_on channel=0 note=82 velocity=45 time=0
note_on channel=0 note=82 velocity=0 time=240
note_on channel=0 note=80 velocity=42 time=0
note_on channel=0 note=80 velocity=0 time=240
note_on channel=0 note=79 velocity=43 time=0
note_on channel=0 note=79 velocity=0 time=240
note_on channel=0 note=78 velocity=42 time=0
note_on channel=0 note=78 velocity=0 time=240
note_on channel=0 note=77 velocity=42 time=0
note_on channel=0 note=77 velocity=0 time=240
note_on channel=0 note=76 velocity=42 time=0
note_on channel=0 note=76 velocity=0 time=240
note_on channel=0 note=75 velocity=42 time=0
note_on channel=0 note=75 velocity=0 time=240
note_on channel=0 note=73 velocity=42 time=0
note_on channel=0 note=73 velocity=0 time=240
note_on channel=0 note=72 velocity=41 time=0
note_on channel=0 note=72 velocity=0 time=240
note_on channel=0 note=70 velocity=41 time=0
<meta message set_tempo tempo=360360 time=220>
<meta message set_tempo tempo=327869 time=20>
note_on channel=0 note=70 velocity=0 time=0
note_on channel=0 note=68 velocity=41 time=0
<meta message set_tempo tempo=361446 time=80>
<meta message set_tempo tempo=362538 time=80>
note_on channel=0 note=68 velocity=0 time=80
note_on channel=0 note=67 velocity=39 time=0
<meta message set_tempo tempo=363636 time=20>
<meta message set_tempo tempo=364742 time=80>
<meta message set_tempo tempo=365854 time=100>
note_on channel=0 note=67 velocity=0 time=40
note_on channel=0 note=66 velocity=39 time=0
<meta message set_tempo tempo=366972 time=40>
<meta message set_tempo tempo=368098 time=100>
<meta message set_tempo tempo=369231 time=80>
note_on channel=0 note=66 velocity=0 time=20
note_on channel=0 note=65 velocity=38 time=0
<meta message set_tempo tempo=370370 time=80>
<meta message set_tempo tempo=371517 time=80>
<meta message set_tempo tempo=372671 time=80>
note_on channel=0 note=65 velocity=0 time=0
note_on channel=0 note=64 velocity=37 time=0
note_on channel=0 note=64 velocity=0 time=240
note_on channel=0 note=63 velocity=36 time=0
note_on channel=0 note=63 velocity=0 time=240
note_on channel=0 note=61 velocity=36 time=0
note_on channel=0 note=61 velocity=0 time=240
note_on channel=0 note=60 velocity=36 time=0
note_on channel=0 note=60 velocity=0 time=240
note_on channel=0 note=58 velocity=35 time=0
note_on channel=0 note=58 velocity=0 time=240
note_on channel=0 note=56 velocity=34 time=0
note_on channel=0 note=56 velocity=0 time=240
note_on channel=0 note=55 velocity=35 time=0
note_on channel=0 note=55 velocity=0 time=240
note_on channel=0 note=54 velocity=33 time=0
<meta message set_tempo tempo=371517 time=240>
note_on channel=0 note=54 velocity=0 time=0
note_on channel=0 note=53 velocity=34 time=0
<meta message set_tempo tempo=372671 time=240>
note_on channel=0 note=53 velocity=0 time=0
note_on channel=0 note=52 velocity=33 time=0
<meta message set_tempo tempo=373832 time=240>
note_on channel=0 note=52 velocity=0 time=0
note_on channel=0 note=51 velocity=33 time=0
<meta message set_tempo tempo=375000 time=240>
note_on channel=0 note=51 velocity=0 time=0
note_on channel=0 note=49 velocity=33 time=0
<meta message set_tempo tempo=376176 time=240>
note_on channel=0 note=49 velocity=0 time=0
note_on channel=0 note=48 velocity=32 time=0
<meta message set_tempo tempo=377358 time=240>
note_on channel=0 note=48 velocity=0 time=0
note_on channel=0 note=46 velocity=32 time=0
<meta message set_tempo tempo=378549 time=220>
note_on channel=0 note=46 velocity=0 time=20
note_on channel=0 note=44 velocity=34 time=0
note_on channel=0 note=44 velocity=0 time=240
note_on channel=0 note=43 velocity=33 time=0
note_on channel=0 note=43 velocity=0 time=240
note_on channel=0 note=42 velocity=33 time=0
note_on channel=0 note=42 velocity=0 time=240
note_on channel=0 note=41 velocity=33 time=0
note_on channel=0 note=41 velocity=0 time=240
note_on channel=0 note=40 velocity=33 time=0
<meta message set_tempo tempo=401338 time=240>
note_on channel=0 note=40 velocity=0 time=0
note_on channel=0 note=39 velocity=33 time=0
<meta message set_tempo tempo=385852 time=240>
note_on channel=0 note=39 velocity=0 time=0
note_on channel=0 note=37 velocity=34 time=0
note_on channel=0 note=37 velocity=0 time=240
note_on channel=0 note=36 velocity=34 time=0
note_on channel=0 note=36 velocity=0 time=240
note_on channel=0 note=34 velocity=34 time=0
note_on channel=0 note=34 velocity=0 time=240
note_on channel=0 note=32 velocity=34 time=0
note_on channel=0 note=32 velocity=0 time=240
note_on channel=0 note=31 velocity=33 time=0
<meta message set_tempo tempo=402685 time=240>
note_on channel=0 note=31 velocity=0 time=0
note_on channel=0 note=32 velocity=31 time=0
note_on channel=0 note=32 velocity=0 time=240
note_on channel=0 note=34 velocity=34 time=0
<meta message set_tempo tempo=385852 time=20>
<meta message set_tempo tempo=385852 time=20>
<meta message set_tempo tempo=387097 time=120>
<meta message set_tempo tempo=388350 time=80>
note_on channel=0 note=34 velocity=0 time=0
note_on channel=0 note=36 velocity=33 time=0
<meta message set_tempo tempo=389610 time=80>
<meta message set_tempo tempo=390879 time=80>
<meta message set_tempo tempo=392157 time=80>
note_on channel=0 note=36 velocity=0 time=0
note_on channel=0 note=35 velocity=33 time=0
<meta message set_tempo tempo=393443 time=80>
<meta message set_tempo tempo=394737 time=120>
note_on channel=0 note=35 velocity=0 time=40
note_on channel=0 note=36 velocity=36 time=0
<meta message set_tempo tempo=396040 time=40>
<meta message set_tempo tempo=397351 time=80>
<meta message set_tempo tempo=398671 time=80>
note_on channel=0 note=36 velocity=0 time=40
note_on channel=0 note=35 velocity=34 time=0
<meta message set_tempo tempo=400000 time=40>
<meta message set_tempo tempo=401338 time=80>
<meta message set_tempo tempo=402685 time=80>
<meta message set_tempo tempo=419580 time=40>
note_on channel=0 note=35 velocity=0 time=0
note_on channel=0 note=36 velocity=33 time=0
<meta message set_tempo tempo=365319 time=240>
note_on channel=0 note=36 velocity=0 time=0
note_on channel=0 note=53 velocity=83 time=0
note_on channel=0 note=29 velocity=64 time=0
control_change channel=0 control=64 value=127 time=34
note_on channel=0 note=29 velocity=0 time=86
note_on channel=0 note=53 velocity=0 time=0
note_on channel=0 note=48 velocity=66 time=0
note_on channel=0 note=36 velocity=52 time=0
note_on channel=0 note=36 velocity=0 time=120
note_on channel=0 note=48 velocity=0 time=0
note_on channel=0 note=44 velocity=66 time=0
note_on channel=0 note=41 velocity=52 time=0
note_on channel=0 note=41 velocity=0 time=120
note_on channel=0 note=44 velocity=0 time=0
note_on channel=0 note=48 velocity=66 time=0
note_on channel=0 note=36 velocity=52 time=0
<meta message set_tempo tempo=388500 time=120>
note_on channel=0 note=36 velocity=0 time=0
note_on channel=0 note=48 velocity=0 time=0
note_on channel=0 note=53 velocity=72 time=0
note_on channel=0 note=29 velocity=58 time=0
note_on channel=0 note=29 velocity=0 time=120
note_on channel=0 note=53 velocity=0 time=0
note_on channel=0 note=48 velocity=64 time=0
note_on channel=0 note=36 velocity=51 time=0
control_change channel=0 control=64 value=0 time=23
<meta message set_tempo tempo=365854 time=97>
note_on channel=0 note=36 velocity=0 time=0
note_on channel=0 note=48 velocity=0 time=0
note_on channel=0 note=56 velocity=84 time=0
note_on channel=0 note=29 velocity=68 time=0
control_change channel=0 control=64 value=127 time=40
note_on channel=0 note=29 velocity=0 time=80
note_on channel=0 note=56 velocity=0 time=0
note_on channel=0 note=48 velocity=66 time=0
note_on channel=0 note=36 velocity=52 time=0
control_change channel=0 control=64 value=0 time=51
note_on channel=0 note=36 velocity=0 time=69
note_on channel=0 note=48 velocity=0 time=0
note_on channel=0 note=55 velocity=83 time=0
note_on channel=0 note=29 velocity=64 time=0
control_change channel=0 control=64 value=127 time=57
note_on channel=0 note=29 velocity=0 time=63
note_on channel=0 note=55 velocity=0 time=0
note_on channel=0 note=48 velocity=66 time=0
note_on channel=0 note=36 velocity=52 time=0
control_change channel=0 control=64 value=0 time=46
<meta message set_tempo tempo=374228 time=74>
note_on channel=0 note=36 velocity=0 time=0
note_on channel=0 note=48 velocity=0 time=0
note_on channel=0 note=53 velocity=81 time=0
note_on channel=0 note=29 velocity=62 time=0
control_change channel=0 control=64 value=127 time=51
note_on channel=0 note=29 velocity=0 time=69
note_on channel=0 note=53 velocity=0 time=0
note_on channel=0 note=48 velocity=66 time=0
note_on channel=0 note=36 velocity=52 time=0
control_change channel=0 control=64 value=0 time=34
<meta message set_tempo tempo=361011 time=86>
note_on channel=0 note=36 velocity=0 time=0
note_on channel=0 note=48 velocity=0 time=0
note_on channel=0 note=53 velocity=83 time=0
note_on channel=0 note=29 velocity=64 time=0
control_change channel=0 control=64 value=127 time=63
note_on channel=0 note=29 velocity=0 time=57
note_on channel=0 note=53 velocity=0 time=0
note_on channel=0 note=48 velocity=63 time=0
note_on channel=0 note=36 velocity=52 time=0
note_on channel=0 note=36 velocity=0 time=120
note_on channel=0 note=48 velocity=0 time=0
note_on channel=0 note=44 velocity=63 time=0
note_on channel=0 note=41 velocity=52 time=0
note_on channel=0 note=41 velocity=0 time=120
note_on channel=0 note=44 velocity=0 time=0
note_on channel=0 note=48 velocity=63 time=0
note_on channel=0 note=36 velocity=52 time=0
<meta message set_tempo tempo=383166 time=120>
note_on channel=0 note=36 velocity=0 time=0
note_on channel=0 note=48 velocity=0 time=0
note_on channel=0 note=53 velocity=66 time=0
note_on channel=0 note=29 velocity=58 time=0
note_on channel=0 note=29 velocity=0 time=120
note_on channel=0 note=53 velocity=0 time=0
note_on channel=0 note=48 velocity=62 time=0
note_on channel=0 note=36 velocity=51 time=0
control_change channel=0 control=64 value=0 time=51
<meta message set_tempo tempo=365854 time=69>
note_on channel=0 note=36 velocity=0 time=0
note_on channel=0 note=48 velocity=0 time=0
note_on channel=0 note=56 velocity=83 time=0
note_on channel=0 note=29 velocity=68 time=0
control_change channel=0 control=64 value=127 time=69
note_on channel=0 note=29 velocity=0 time=51
note_on channel=0 note=56 velocity=0 time=0
note_on channel=0 note=48 velocity=63 time=0
note_on channel=0 note=36 velocity=52 time=0
control_change channel=0 control=64 value=0 time=80
note_on channel=0 note=36 velocity=0 time=40
note_on channel=0 note=48 velocity=0 time=0
note_on channel=0 note=55 velocity=80 time=0
note_on channel=0 note=29 velocity=64 time=0
control_change channel=0 control=64 value=127 time=57
note_on channel=0 note=29 velocity=0 time=63
note_on channel=0 note=55 velocity=0 time=0
note_on channel=0 note=48 velocity=66 time=0
note_on channel=0 note=36 velocity=52 time=0
control_change channel=0 control=64 value=0 time=57
<meta message set_tempo tempo=389838 time=63>
note_on channel=0 note=36 velocity=0 time=0
note_on channel=0 note=48 velocity=0 time=0
note_on channel=0 note=53 velocity=80 time=0
note_on channel=0 note=29 velocity=62 time=0
control_change channel=0 control=64 value=127 time=40
note_on channel=0 note=29 velocity=0 time=80
note_on channel=0 note=53 velocity=0 time=0
note_on channel=0 note=48 velocity=64 time=0
note_on channel=0 note=36 velocity=52 time=0
control_change channel=0 control=64 value=0 time=63
<meta message set_tempo tempo=361011 time=57>
note_on channel=0 note=36 velocity=0 time=0
note_on channel=0 note=48 velocity=0 time=0
note_on channel=0 note=61 velocity=83 time=0
note_on channel=0 note=29 velocity=64 time=0
control_change channel=0 control=64 value=127 time=34
note_on channel=0 note=29 velocity=0 time=86
note_on channel=0 note=61 velocity=0 time=0
note_on channel=0 note=56 velocity=66 time=0
note_on channel=0 note=37 velocity=52 time=0
note_on channel=0 note=37 velocity=0 time=120
note_on channel=0 note=56 velocity=0 time=0
note_on channel=0 note=53 velocity=66 time=0
note_on channel=0 note=41 velocity=52 time=0
note_on channel=0 note=41 velocity=0 time=120
note_on channel=0 note=53 velocity=0 time=0
note_on channel=0 note=56 velocity=66 time=0
note_on channel=0 note=37 velocity=52 time=0
<meta message set_tempo tempo=388500 time=120>
note_on channel=0 note=37 velocity=0 time=0
note_on channel=0 note=56 velocity=0 time=0
note_on channel=0 note=61 velocity=77 time=0
note_on channel=0 note=29 velocity=58 time=0
note_on channel=0 note=29 velocity=0 time=120
note_on channel=0 note=61 velocity=0 time=0
note_on channel=0 note=56 velocity=64 time=0
note_on channel=0 note=37 velocity=51 time=0
control_change channel=0 control=64 value=0 time=49
<meta message set_tempo tempo=364742 time=71>
note_on channel=0 note=37 velocity=0 time=0
note_on channel=0 note=56 velocity=0 time=0
note_on channel=0 note=65 velocity=84 time=0
note_on channel=0 note=29 velocity=68 time=0
control_change channel=0 control=64 value=127 time=40
note_on channel=0 note=29 velocity=0 time=80
note_on channel=0 note=65 velocity=0 time=0
note_on channel=0 note=56 velocity=66 time=0
note_on channel=0 note=37 velocity=52 time=0
control_change channel=0 control=64 value=0 time=51
note_on channel=0 note=37 velocity=0 time=69
note_on channel=0 note=56 velocity=0 time=0
note_on channel=0 note=63 velocity=83 time=0
note_on channel=0 note=29 velocity=64 time=0
control_change channel=0 control=64 value=127 time=57
note_on channel=0 note=29 velocity=0 time=63
note_on channel=0 note=63 velocity=0 time=0
note_on channel=0 note=56 velocity=66 time=0
note_on channel=0 note=37 velocity=52 time=0
control_change channel=0 control=64 value=0 time=46
<meta message set_tempo tempo=374228 time=74>
note_on channel=0 note=37 velocity=0 time=0
note_on channel=0 note=56 velocity=0 time=0
note_on channel=0 note=61 velocity=81 time=0
note_on channel=0 note=29 velocity=62 time=0
control_change channel=0 control=64 value=127 time=51
note_on channel=0 note=29 velocity=0 time=69
note_on channel=0 note=61 velocity=0 time=0
note_on channel=0 note=56 velocity=66 time=0
note_on channel=0 note=37 velocity=52 time=0
control_change channel=0 control=64 value=0 time=34
<meta message set_tempo tempo=361011 time=86>
note_on channel=0 note=37 velocity=0 time=0
note_on channel=0 note=56 velocity=0 time=0
note_on channel=0 note=61 velocity=83 time=0
note_on channel=0 note=29 velocity=64 time=0
control_change channel=0 control=64 value=127 time=63
note_on channel=0 note=29 velocity=0 time=57
note_on channel=0 note=61 velocity=0 time=0
note_on channel=0 note=56 velocity=63 time=0
note_on channel=0 note=37 velocity=52 time=0
note_on channel=0 note=37 velocity=0 time=120
note_on channel=0 note=56 velocity=0 time=0
note_on channel=0 note=53 velocity=63 time=0
note_on channel=0 note=41 velocity=52 time=0
note_on channel=0 note=41 velocity=0 time=120
note_on channel=0 note=53 velocity=0 time=0
note_on channel=0 note=56 velocity=63 time=0
note_on channel=0 note=37 velocity=52 time=0
<meta message set_tempo tempo=383166 time=120>
note_on channel=0 note=37 velocity=0 time=0
note_on channel=0 note=56 velocity=0 time=0
note_on channel=0 note=61 velocity=75 time=0
note_on channel=0 note=29 velocity=58 time=0
note_on channel=0 note=29 velocity=0 time=120
note_on channel=0 note=61 velocity=0 time=0
note_on channel=0 note=56 velocity=62 time=0
note_on channel=0 note=37 velocity=51 time=0
control_change channel=0 control=64 value=0 time=51
<meta message set_tempo tempo=365854 time=69>
note_on channel=0 note=37 velocity=0 time=0
note_on channel=0 note=56 velocity=0 time=0
note_on channel=0 note=65 velocity=83 time=0
note_on channel=0 note=29 velocity=68 time=0
control_change channel=0 control=64 value=127 time=69
note_on channel=0 note=29 velocity=0 time=51
note_on channel=0 note=65 velocity=0 time=0
note_on channel=0 note=56 velocity=63 time=0
note_on channel=0 note=37 velocity=52 time=0
control_change channel=0 control=64 value=0 time=80
note_on channel=0 note=37 velocity=0 time=40
note_on channel=0 note=56 velocity=0 time=0
note_on channel=0 note=63 velocity=80 time=0
note_on channel=0 note=29 velocity=64 time=0
control_change channel=0 control=64 value=127 time=57
note_on channel=0 note=29 velocity=0 time=63
note_on channel=0 note=63 velocity=0 time=0
note_on channel=0 note=56 velocity=66 time=0
note_on channel=0 note=37 velocity=52 time=0
control_change channel=0 control=64 value=0 time=57
<meta message set_tempo tempo=379291 time=63>
note_on channel=0 note=37 velocity=0 time=0
note_on channel=0 note=56 velocity=0 time=0
note_on channel=0 note=61 velocity=80 time=0
note_on channel=0 note=29 velocity=62 time=0
control_change channel=0 control=64 value=127 time=40
note_on channel=0 note=29 velocity=0 time=80
note_on channel=0 note=61 velocity=0 time=0
note_on channel=0 note=56 velocity=64 time=0
note_on channel=0 note=37 velocity=52 time=0
control_change channel=0 control=64 value=0 time=63
<meta message set_tempo tempo=361011 time=57>
note_on channel=0 note=37 velocity=0 time=0
note_on channel=0 note=56 velocity=0 time=0
note_on channel=0 note=70 velocity=93 time=0
note_on channel=0 note=42 velocity=107 time=0
note_on channel=0 note=30 velocity=91 time=0
control_change channel=0 control=64 value=127 time=11
<meta message set_tempo tempo=358680 time=9>
<meta message set_tempo tempo=357590 time=20>
<meta message set_tempo tempo=356506 time=20>
<meta message set_tempo tempo=355450 time=20>
control_change channel=0 control=64 value=127 time=17
note_on channel=0 note=70 velocity=0 time=23
note_on channel=0 note=73 velocity=74 time=0
<meta message set_tempo tempo=357590 time=20>
<meta message set_tempo tempo=359755 time=20>
<meta message set_tempo tempo=361947 time=20>
<meta message set_tempo tempo=360859 time=40>
<meta message set_tempo tempo=359755 time=20>
note_on channel=0 note=73 velocity=0 time=0
note_on channel=0 note=70 velocity=76 time=0
<meta message set_tempo tempo=357590 time=40>
<meta message set_tempo tempo=356506 time=20>
<meta message set_tempo tempo=357590 time=20>
<meta message set_tempo tempo=360859 time=20>
<meta message set_tempo tempo=363086 time=20>
note_on channel=0 note=70 velocity=0 time=0
note_on channel=0 note=73 velocity=67 time=0
<meta message set_tempo tempo=364188 time=40>
<meta message set_tempo tempo=365319 time=20>
<meta message set_tempo tempo=364188 time=20>
<meta message set_tempo tempo=363086 time=20>
<meta message set_tempo tempo=360859 time=20>
note_on channel=0 note=73 velocity=0 time=0
note_on channel=0 note=70 velocity=72 time=0
<meta message set_tempo tempo=359755 time=20>
<meta message set_tempo tempo=357590 time=40>
<meta message set_tempo tempo=356506 time=20>
<meta message set_tempo tempo=355450 time=20>
note_on channel=0 note=70 velocity=0 time=20
note_on channel=0 note=73 velocity=67 time=0
<meta message set_tempo tempo=356506 time=20>
<meta message set_tempo tempo=358680 time=20>
<meta message set_tempo tempo=359755 time=20>
<meta message set_tempo tempo=360859 time=20>
note_on channel=0 note=73 velocity=0 time=40
note_on channel=0 note=70 velocity=72 time=0
<meta message set_tempo tempo=359755 time=40>
<meta message set_tempo tempo=358680 time=20>
<meta message set_tempo tempo=357590 time=20>
note_on channel=0 note=70 velocity=0 time=40
note_on channel=0 note=73 velocity=67 time=0
<meta message set_tempo tempo=359755 time=40>
<meta message set_tempo tempo=360859 time=20>
<meta message set_tempo tempo=361947 time=20>
note_on channel=0 note=73 velocity=0 time=40
note_on channel=0 note=70 velocity=72 time=0
<meta message set_tempo tempo=360859 time=40>
<meta message set_tempo tempo=359755 time=20>
<meta message set_tempo tempo=357590 time=40>
<meta message set_tempo tempo=356506 time=20>
note_on channel=0 note=70 velocity=0 time=0
note_on channel=0 note=73 velocity=67 time=0
<meta message set_tempo tempo=358680 time=60>
<meta message set_tempo tempo=360859 time=20>
<meta message set_tempo tempo=363086 time=20>
note_on channel=0 note=73 velocity=0 time=20
note_on channel=0 note=70 velocity=72 time=0
<meta message set_tempo tempo=361947 time=40>
note_on channel=0 note=70 velocity=0 time=80
note_on channel=0 note=73 velocity=67 time=0
<meta message set_tempo tempo=360859 time=40>
<meta message set_tempo tempo=359755 time=40>
<meta message set_tempo tempo=357590 time=20>
note_on channel=0 note=73 velocity=0 time=20
note_on channel=0 note=70 velocity=76 time=0
<meta message set_tempo tempo=358680 time=40>
<meta message set_tempo tempo=359755 time=20>
<meta message set_tempo tempo=361947 time=20>
note_on channel=0 note=70 velocity=0 time=40
note_on channel=0 note=73 velocity=67 time=0
<meta message set_tempo tempo=360859 time=40>
<meta message set_tempo tempo=359755 time=20>
<meta message set_tempo tempo=358680 time=40>
<meta message set_tempo tempo=356506 time=20>
note_on channel=0 note=73 velocity=0 time=0
note_on channel=0 note=70 velocity=76 time=0
<meta message set_tempo tempo=355450 time=40>
<meta message set_tempo tempo=354380 time=40>
<meta message set_tempo tempo=359755 time=20>
note_on channel=0 note=70 velocity=0 time=20
note_on channel=0 note=73 velocity=67 time=0
<meta message set_tempo tempo=360859 time=20>
<meta message set_tempo tempo=363086 time=20>
<meta message set_tempo tempo=361947 time=40>
<meta message set_tempo tempo=359755 time=40>
note_on channel=0 note=73 velocity=0 time=0
note_on channel=0 note=70 velocity=76 time=0
<meta message set_tempo tempo=358680 time=20>
<meta message set_tempo tempo=357590 time=20>
<meta message set_tempo tempo=356506 time=40>
<meta message set_tempo tempo=357590 time=40>
note_on channel=0 note=70 velocity=0 time=0
note_on channel=0 note=73 velocity=67 time=0
<meta message set_tempo tempo=358680 time=20>
<meta message set_tempo tempo=360859 time=20>
<meta message set_tempo tempo=365319 time=80>
note_on channel=0 note=73 velocity=0 time=0
note_on channel=0 note=30 velocity=0 time=0
note_on channel=0 note=42 velocity=0 time=0
note_on channel=0 note=70 velocity=95 time=0
note_on channel=0 note=31 velocity=74 time=0
note_on channel=0 note=43 velocity=88 time=0
control_change channel=0 control=64 value=0 time=15
control_change channel=0 control=64 value=127 time=94
note_on channel=0 note=70 velocity=0 time=11
note_on channel=0 note=73 velocity=78 time=0
note_on channel=0 note=73 velocity=0 time=120
note_on channel=0 note=43 velocity=0 time=0
note_on channel=0 note=31 velocity=0 time=0
note_on channel=0 note=67 velocity=89 time=0
note_on channel=0 note=34 velocity=72 time=0
note_on channel=0 note=67 velocity=0 time=120
note_on channel=0 note=70 velocity=78 time=0
<meta message set_tempo tempo=373390 time=120>
note_on channel=0 note=70 velocity=0 time=0
note_on channel=0 note=34 velocity=0 time=0
note_on channel=0 note=64 velocity=84 time=0
note_on channel=0 note=37 velocity=82 time=0
note_on channel=0 note=64 velocity=0 time=120
note_on channel=0 note=67 velocity=77 time=0
<meta message set_tempo tempo=360859 time=120>
note_on channel=0 note=67 velocity=0 time=0
note_on channel=0 note=37 velocity=0 time=0
note_on channel=0 note=61 velocity=82 time=0
note_on channel=0 note=40 velocity=95 time=0
note_on channel=0 note=61 velocity=0 time=120
note_on channel=0 note=64 velocity=70 time=0
note_on channel=0 note=64 velocity=0 time=120
note_on channel=0 note=40 velocity=0 time=0
note_on channel=0 note=58 velocity=81 time=0
note_on channel=0 note=43 velocity=82 time=0
note_on channel=0 note=58 velocity=0 time=120
note_on channel=0 note=61 velocity=71 time=0
note_on channel=0 note=61 velocity=0 time=120
note_on channel=0 note=43 velocity=0 time=0
note_on channel=0 note=55 velocity=82 time=0
note_on channel=0 note=46 velocity=82 time=0
note_on channel=0 note=55 velocity=0 time=120
note_on channel=0 note=58 velocity=68 time=0
note_on channel=0 note=58 velocity=0 time=120
note_on channel=0 note=46 velocity=0 time=0
note_on channel=0 note=53 velocity=81 time=0
note_on channel=0 note=49 velocity=85 time=0
control_change channel=0 control=64 value=0 time=21
note_on channel=0 note=53 velocity=0 time=99
note_on channel=0 note=55 velocity=70 time=0
control_change channel=0 control=64 value=127 time=0
note_on channel=0 note=49 velocity=0 time=110
note_on channel=0 note=55 velocity=0 time=10
note_on channel=0 note=58 velocity=80 time=0
note_on channel=0 note=49 velocity=83 time=0
note_on channel=0 note=58 velocity=0 time=120
note_on channel=0 note=55 velocity=70 time=0
note_on channel=0 note=49 velocity=0 time=110
<meta message set_tempo tempo=388073 time=10>
note_on channel=0 note=55 velocity=0 time=0
note_on channel=0 note=53 velocity=80 time=0
note_on channel=0 note=49 velocity=83 time=0
note_on channel=0 note=53 velocity=0 time=120
note_on channel=0 note=55 velocity=69 time=0
note_on channel=0 note=49 velocity=0 time=110
<meta message set_tempo tempo=360859 time=10>
note_on channel=0 note=55 velocity=0 time=0
note_on channel=0 note=49 velocity=97 time=0
control_change channel=0 control=64 value=0 time=18
note_on channel=0 note=53 velocity=70 time=102
control_change channel=0 control=64 value=127 time=0
note_on channel=0 note=53 velocity=0 time=120
note_on channel=0 note=58 velocity=80 time=0
note_on channel=0 note=58 velocity=0 time=120
note_on channel=0 note=55 velocity=69 time=0
note_on channel=0 note=55 velocity=0 time=120
note_on channel=0 note=53 velocity=77 time=0
note_on channel=0 note=53 velocity=0 time=120
note_on channel=0 note=58 velocity=70 time=0
note_on channel=0 note=58 velocity=0 time=120
note_on channel=0 note=49 velocity=0 time=0
note_on channel=0 note=48 velocity=89 time=0
control_change channel=0 control=64 value=0 time=19
note_on channel=0 note=52 velocity=69 time=101
control_change channel=0 control=64 value=127 time=12
note_on channel=0 note=52 velocity=0 time=108
note_on channel=0 note=58 velocity=80 time=0
note_on channel=0 note=58 velocity=0 time=120
note_on channel=0 note=55 velocity=69 time=0
note_on channel=0 note=55 velocity=0 time=120
note_on channel=0 note=52 velocity=78 time=0
note_on channel=0 note=52 velocity=0 time=120
note_on channel=0 note=58 velocity=69 time=0
<meta message set_tempo tempo=365319 time=120>
note_on channel=0 note=58 velocity=0 time=0
note_on channel=0 note=48 velocity=0 time=0
note_on channel=0 note=65 velocity=83 time=0
note_on channel=0 note=41 velocity=64 time=0
control_change channel=0 control=64 value=0 time=0
control_change channel=0 control=64 value=127 time=34
note_on channel=0 note=41 velocity=0 time=86
note_on channel=0 note=65 velocity=0 time=0
note_on channel=0 note=60 velocity=66 time=0
note_on channel=0 note=48 velocity=52 time=0
note_on channel=0 note=48 velocity=0 time=120
note_on channel=0 note=60 velocity=0 time=0
note_on channel=0 note=56 velocity=66 time=0
note_on channel=0 note=53 velocity=52 time=0
note_on channel=0 note=53 velocity=0 time=120
note_on channel=0 note=56 velocity=0 time=0
note_on channel=0 note=60 velocity=66 time=0
note_on channel=0 note=48 velocity=52 time=0
<meta message set_tempo tempo=388500 time=120>
note_on channel=0 note=48 velocity=0 time=0
note_on channel=0 note=60 velocity=0 time=0
note_on channel=0 note=65 velocity=80 time=0
note_on channel=0 note=41 velocity=58 time=0
note_on channel=0 note=41 velocity=0 time=120
note_on channel=0 note=65 velocity=0 time=0
note_on channel=0 note=60 velocity=64 time=0
note_on channel=0 note=48 velocity=51 time=0
control_change channel=0 control=64 value=0 time=23
<meta message set_tempo tempo=364742 time=97>
note_on channel=0 note=48 velocity=0 time=0
note_on channel=0 note=60 velocity=0 time=0
note_on channel=0 note=68 velocity=84 time=0
note_on channel=0 note=41 velocity=68 time=0
control_change channel=0 control=64 value=127 time=40
note_on channel=0 note=41 velocity=0 time=80
note_on channel=0 note=68 velocity=0 time=0
note_on channel=0 note=60 velocity=66 time=0
note_on channel=0 note=48 velocity=52 time=0
control_change channel=0 control=64 value=0 time=51
note_on channel=0 note=48 velocity=0 time=69
note_on channel=0 note=60 velocity=0 time=0
note_on channel=0 note=67 velocity=83 time=0
note_on channel=0 note=41 velocity=64 time=0
control_change channel=0 control=64 value=127 time=57
note_on channel=0 note=41 velocity=0 time=63
note_on channel=0 note=67 velocity=0 time=0
note_on channel=0 note=60 velocity=66 time=0
note_on channel=0 note=48 velocity=52 time=0
control_change channel=0 control=64 value=0 time=46
<meta message set_tempo tempo=374228 time=74>
note_on channel=0 note=48 velocity=0 time=0
note_on channel=0 note=60 velocity=0 time=0
note_on channel=0 note=65 velocity=81 time=0
note_on channel=0 note=41 velocity=62 time=0
control_change channel=0 control=64 value=127 time=51
note_on channel=0 note=41 velocity=0 time=69
note_on channel=0 note=65 velocity=0 time=0
note_on channel=0 note=60 velocity=66 time=0
note_on channel=0 note=48 velocity=52 time=0
control_change channel=0 control=64 value=0 time=34
<meta message set_tempo tempo=361011 time=86>
note_on channel=0 note=48 velocity=0 time=0
note_on channel=0 note=60 velocity=0 time=0
note_on channel=0 note=65 velocity=83 time=0
note_on channel=0 note=41 velocity=64 time=0
control_change channel=0 control=64 value=127 time=63
note_on channel=0 note=41 velocity=0 time=57
note_on channel=0 note=65 velocity=0 time=0
note_on channel=0 note=60 velocity=63 time=0
note_on channel=0 note=48 velocity=52 time=0
note_on channel=0 note=48 velocity=0 time=120
note_on channel=0 note=60 velocity=0 time=0
note_on channel=0 note=56 velocity=63 time=0
note_on channel=0 note=53 velocity=52 time=0
note_on channel=0 note=53 velocity=0 time=120
note_on channel=0 note=56 velocity=0 time=0
note_on channel=0 note=60 velocity=63 time=0
note_on channel=0 note=48 velocity=52 time=0
<meta message set_tempo tempo=383166 time=120>
note_on channel=0 note=48 velocity=0 time=0
note_on channel=0 note=60 velocity=0 time=0
note_on channel=0 note=65 velocity=80 time=0
note_on channel=0 note=41 velocity=58 time=0
note_on channel=0 note=41 velocity=0 time=120
note_on channel=0 note=65 velocity=0 time=0
note_on channel=0 note=60 velocity=62 time=0
note_on channel=0 note=48 velocity=51 time=0
control_change channel=0 control=64 value=0 time=51
<meta message set_tempo tempo=365854 time=69>
note_on channel=0 note=48 velocity=0 time=0
note_on channel=0 note=60 velocity=0 time=0
note_on channel=0 note=68 velocity=83 time=0
note_on channel=0 note=41 velocity=68 time=0
control_change channel=0 control=64 value=127 time=69
note_on channel=0 note=41 velocity=0 time=51
note_on channel=0 note=68 velocity=0 time=0
note_on channel=0 note=60 velocity=63 time=0
note_on channel=0 note=48 velocity=52 time=0
control_change channel=0 control=64 value=0 time=80
note_on channel=0 note=48 velocity=0 time=40
note_on channel=0 note=60 velocity=0 time=0
note_on channel=0 note=67 velocity=80 time=0
note_on channel=0 note=41 velocity=64 time=0
control_change channel=0 control=64 value=127 time=57
note_on channel=0 note=41 velocity=0 time=63
note_on channel=0 note=67 velocity=0 time=0
note_on channel=0 note=60 velocity=66 time=0
note_on channel=0 note=48 velocity=52 time=0
control_change channel=0 control=64 value=0 time=57
<meta message set_tempo tempo=389838 time=63>
note_on channel=0 note=48 velocity=0 time=0
note_on channel=0 note=60 velocity=0 time=0
note_on channel=0 note=65 velocity=80 time=0
note_on channel=0 note=41 velocity=62 time=0
control_change channel=0 control=64 value=127 time=40
note_on channel=0 note=41 velocity=0 time=80
note_on channel=0 note=65 velocity=0 time=0
note_on channel=0 note=60 velocity=64 time=0
note_on channel=0 note=48 velocity=52 time=0
control_change channel=0 control=64 value=0 time=63
<meta message set_tempo tempo=361011 time=57>
note_on channel=0 note=48 velocity=0 time=0
note_on channel=0 note=60 velocity=0 time=0
note_on channel=0 note=73 velocity=83 time=0
note_on channel=0 note=41 velocity=64 time=0
control_change channel=0 control=64 value=127 time=34
note_on channel=0 note=41 velocity=0 time=86
note_on channel=0 note=73 velocity=0 time=0
note_on channel=0 note=68 velocity=66 time=0
note_on channel=0 note=49 velocity=52 time=0
note_on channel=0 note=49 velocity=0 time=120
note_on channel=0 note=68 velocity=0 time=0
note_on channel=0 note=65 velocity=66 time=0
note_on channel=0 note=53 velocity=52 time=0
note_on channel=0 note=53 velocity=0 time=120
note_on channel=0 note=65 velocity=0 time=0
note_on channel=0 note=68 velocity=66 time=0
note_on channel=0 note=49 velocity=52 time=0
<meta message set_tempo tempo=388500 time=120>
note_on channel=0 note=49 velocity=0 time=0
note_on channel=0 note=68 velocity=0 time=0
note_on channel=0 note=73 velocity=80 time=0
note_on channel=0 note=41 velocity=58 time=0
note_on channel=0 note=41 velocity=0 time=120
note_on channel=0 note=73 velocity=0 time=0
note_on channel=0 note=68 velocity=64 time=0
note_on channel=0 note=49 velocity=51 time=0
control_change channel=0 control=64 value=0 time=23
<meta message set_tempo tempo=365854 time=97>
note_on channel=0 note=49 velocity=0 time=0
note_on channel=0 note=68 velocity=0 time=0
note_on channel=0 note=77 velocity=84 time=0
note_on channel=0 note=41 velocity=68 time=0
control_change channel=0 control=64 value=127 time=40
note_on channel=0 note=41 velocity=0 time=80
note_on channel=0 note=77 velocity=0 time=0
note_on channel=0 note=68 velocity=66 time=0
note_on channel=0 note=49 velocity=52 time=0
control_change channel=0 control=64 value=0 time=51
note_on channel=0 note=49 velocity=0 time=69
note_on channel=0 note=68 velocity=0 time=0
note_on channel=0 note=75 velocity=83 time=0
note_on channel=0 note=41 velocity=64 time=0
control_change channel=0 control=64 value=127 time=57
note_on channel=0 note=41 velocity=0 time=63
note_on channel=0 note=75 velocity=0 time=0
note_on channel=0 note=68 velocity=66 time=0
note_on channel=0 note=49 velocity=52 time=0
control_change channel=0 control=64 value=0 time=46
<meta message set_tempo tempo=374228 time=74>
note_on channel=0 note=49 velocity=0 time=0
note_on channel=0 note=68 velocity=0 time=0
note_on channel=0 note=73 velocity=81 time=0
note_on channel=0 note=41 velocity=62 time=0
control_change channel=0 control=64 value=127 time=51
note_on channel=0 note=41 velocity=0 time=69
note_on channel=0 note=73 velocity=0 time=0
note_on channel=0 note=68 velocity=66 time=0
note_on channel=0 note=49 velocity=52 time=0
control_change channel=0 control=64 value=0 time=34
<meta message set_tempo tempo=361011 time=86>
note_on channel=0 note=49 velocity=0 time=0
note_on channel=0 note=68 velocity=0 time=0
note_on channel=0 note=73 velocity=83 time=0
note_on channel=0 note=41 velocity=64 time=0
control_change channel=0 control=64 value=127 time=63
note_on channel=0 note=41 velocity=0 time=57
note_on channel=0 note=73 velocity=0 time=0
note_on channel=0 note=68 velocity=63 time=0
note_on channel=0 note=49 velocity=52 time=0
note_on channel=0 note=49 velocity=0 time=120
note_on channel=0 note=68 velocity=0 time=0
note_on channel=0 note=65 velocity=63 time=0
note_on channel=0 note=53 velocity=52 time=0
note_on channel=0 note=53 velocity=0 time=120
note_on channel=0 note=65 velocity=0 time=0
note_on channel=0 note=68 velocity=63 time=0
note_on channel=0 note=49 velocity=52 time=0
<meta message set_tempo tempo=383166 time=120>
note_on channel=0 note=49 velocity=0 time=0
note_on channel=0 note=68 velocity=0 time=0
note_on channel=0 note=73 velocity=80 time=0
note_on channel=0 note=41 velocity=58 time=0
note_on channel=0 note=41 velocity=0 time=120
note_on channel=0 note=73 velocity=0 time=0
note_on channel=0 note=68 velocity=62 time=0
note_on channel=0 note=49 velocity=51 time=0
control_change channel=0 control=64 value=0 time=51
<meta message set_tempo tempo=364742 time=69>
note_on channel=0 note=49 velocity=0 time=0
note_on channel=0 note=68 velocity=0 time=0
note_on channel=0 note=77 velocity=83 time=0
note_on channel=0 note=41 velocity=68 time=0
control_change channel=0 control=64 value=127 time=69
note_on channel=0 note=41 velocity=0 time=51
note_on channel=0 note=77 velocity=0 time=0
note_on channel=0 note=68 velocity=63 time=0
note_on channel=0 note=49 velocity=52 time=0
control_change channel=0 control=64 value=0 time=80
note_on channel=0 note=49 velocity=0 time=40
note_on channel=0 note=68 velocity=0 time=0
note_on channel=0 note=75 velocity=80 time=0
note_on channel=0 note=41 velocity=64 time=0
control_change channel=0 control=64 value=127 time=57
note_on channel=0 note=41 velocity=0 time=63
note_on channel=0 note=75 velocity=0 time=0
note_on channel=0 note=68 velocity=66 time=0
note_on channel=0 note=49 velocity=52 time=0
control_change channel=0 control=64 value=0 time=57
<meta message set_tempo tempo=379291 time=63>
note_on channel=0 note=49 velocity=0 time=0
note_on channel=0 note=68 velocity=0 time=0
note_on channel=0 note=73 velocity=80 time=0
note_on channel=0 note=41 velocity=62 time=0
control_change channel=0 control=64 value=127 time=40
note_on channel=0 note=41 velocity=0 time=80
note_on channel=0 note=73 velocity=0 time=0
note_on channel=0 note=68 velocity=64 time=0
note_on channel=0 note=49 velocity=52 time=0
control_change channel=0 control=64 value=0 time=63
<meta message set_tempo tempo=361011 time=57>
note_on channel=0 note=49 velocity=0 time=0
note_on channel=0 note=68 velocity=0 time=0
note_on channel=0 note=82 velocity=93 time=0
note_on channel=0 note=42 velocity=90 time=0
note_on channel=0 note=54 velocity=106 time=0
<meta message set_tempo tempo=358680 time=20>
<meta message set_tempo tempo=357590 time=20>
<meta message set_tempo tempo=356506 time=20>
<meta message set_tempo tempo=355450 time=20>
control_change channel=0 control=64 value=127 time=5
note_on channel=0 note=82 velocity=0 time=35
note_on channel=0 note=85 velocity=75 time=0
<meta message set_tempo tempo=357590 time=20>
<meta message set_tempo tempo=359755 time=20>
<meta message set_tempo tempo=361947 time=20>
<meta message set_tempo tempo=360859 time=40>
<meta message set_tempo tempo=359755 time=20>
note_on channel=0 note=85 velocity=0 time=0
note_on channel=0 note=82 velocity=80 time=0
<meta message set_tempo tempo=357590 time=40>
<meta message set_tempo tempo=356506 time=20>
<meta message set_tempo tempo=357590 time=20>
<meta message set_tempo tempo=360859 time=20>
<meta message set_tempo tempo=363086 time=20>
note_on channel=0 note=82 velocity=0 time=0
note_on channel=0 note=85 velocity=69 time=0
<meta message set_tempo tempo=364188 time=40>
<meta message set_tempo tempo=365319 time=20>
<meta message set_tempo tempo=364188 time=20>
<meta message set_tempo tempo=363086 time=20>
<meta message set_tempo tempo=360859 time=20>
note_on channel=0 note=85 velocity=0 time=0
note_on channel=0 note=82 velocity=77 time=0
<meta message set_tempo tempo=359755 time=20>
<meta message set_tempo tempo=357590 time=40>
<meta message set_tempo tempo=356506 time=20>
<meta message set_tempo tempo=355450 time=20>
note_on channel=0 note=82 velocity=0 time=20
note_on channel=0 note=85 velocity=69 time=0
<meta message set_tempo tempo=356506 time=20>
<meta message set_tempo tempo=358680 time=20>
<meta message set_tempo tempo=359755 time=20>
<meta message set_tempo tempo=360859 time=20>
note_on channel=0 note=85 velocity=0 time=40
note_on channel=0 note=82 velocity=78 time=0
<meta message set_tempo tempo=359755 time=40>
<meta message set_tempo tempo=358680 time=20>
<meta message set_tempo tempo=357590 time=20>
note_on channel=0 note=82 velocity=0 time=40
note_on channel=0 note=85 velocity=69 time=0
<meta message set_tempo tempo=359755 time=40>
<meta message set_tempo tempo=360859 time=20>
<meta message set_tempo tempo=361947 time=20>
note_on channel=0 note=85 velocity=0 time=40
note_on channel=0 note=82 velocity=74 time=0
<meta message set_tempo tempo=360859 time=40>
<meta message set_tempo tempo=359755 time=20>
<meta message set_tempo tempo=357590 time=40>
<meta message set_tempo tempo=356506 time=20>
note_on channel=0 note=82 velocity=0 time=0
note_on channel=0 note=85 velocity=69 time=0
<meta message set_tempo tempo=358680 time=60>
<meta message set_tempo tempo=360859 time=20>
<meta message set_tempo tempo=363086 time=20>
note_on channel=0 note=85 velocity=0 time=20
note_on channel=0 note=82 velocity=74 time=0
<meta message set_tempo tempo=361947 time=40>
note_on channel=0 note=82 velocity=0 time=80
note_on channel=0 note=85 velocity=69 time=0
<meta message set_tempo tempo=360859 time=40>
<meta message set_tempo tempo=359755 time=40>
<meta message set_tempo tempo=357590 time=20>
note_on channel=0 note=85 velocity=0 time=20
note_on channel=0 note=82 velocity=74 time=0
<meta message set_tempo tempo=358680 time=40>
<meta message set_tempo tempo=359755 time=20>
<meta message set_tempo tempo=361947 time=20>
note_on channel=0 note=82 velocity=0 time=40
note_on channel=0 note=85 velocity=69 time=0
<meta message set_tempo tempo=360859 time=40>
<meta message set_tempo tempo=359755 time=20>
<meta message set_tempo tempo=358680 time=40>
<meta message set_tempo tempo=356506 time=20>
note_on channel=0 note=85 velocity=0 time=0
note_on channel=0 note=82 velocity=74 time=0
<meta message set_tempo tempo=355450 time=40>
<meta message set_tempo tempo=354380 time=40>
<meta message set_tempo tempo=359755 time=20>
note_on channel=0 note=82 velocity=0 time=20
note_on channel=0 note=85 velocity=69 time=0
<meta message set_tempo tempo=360859 time=20>
<meta message set_tempo tempo=363086 time=20>
<meta message set_tempo tempo=361947 time=40>
<meta message set_tempo tempo=359755 time=40>
note_on channel=0 note=85 velocity=0 time=0
note_on channel=0 note=82 velocity=74 time=0
<meta message set_tempo tempo=358680 time=20>
<meta message set_tempo tempo=357590 time=20>
<meta message set_tempo tempo=356506 time=40>
<meta message set_tempo tempo=357590 time=40>
note_on channel=0 note=82 velocity=0 time=0
note_on channel=0 note=85 velocity=69 time=0
<meta message set_tempo tempo=358680 time=20>
<meta message set_tempo tempo=360859 time=20>
<meta message set_tempo tempo=365319 time=80>
note_on channel=0 note=85 velocity=0 time=0
note_on channel=0 note=54 velocity=0 time=0
note_on channel=0 note=42 velocity=0 time=0
note_on channel=0 note=82 velocity=75 time=0
note_on channel=0 note=55 velocity=88 time=0
note_on channel=0 note=43 velocity=59 time=0
control_change channel=0 control=64 value=0 time=14
control_change channel=0 control=64 value=127 time=92
note_on channel=0 note=82 velocity=0 time=14
note_on channel=0 note=85 velocity=69 time=0
note_on channel=0 note=85 velocity=0 time=120
note_on channel=0 note=43 velocity=0 time=0
note_on channel=0 note=55 velocity=0 time=0
note_on channel=0 note=82 velocity=77 time=0
note_on channel=0 note=46 velocity=58 time=0
note_on channel=0 note=58 velocity=72 time=0
note_on channel=0 note=82 velocity=0 time=120
note_on channel=0 note=85 velocity=69 time=0
<meta message set_tempo tempo=373390 time=120>
note_on channel=0 note=85 velocity=0 time=0
note_on channel=0 note=58 velocity=0 time=0
note_on channel=0 note=46 velocity=0 time=0
note_on channel=0 note=82 velocity=77 time=0
note_on channel=0 note=49 velocity=63 time=0
note_on channel=0 note=61 velocity=82 time=0
note_on channel=0 note=82 velocity=0 time=120
note_on channel=0 note=85 velocity=69 time=0
<meta message set_tempo tempo=360859 time=120>
note_on channel=0 note=85 velocity=0 time=0
note_on channel=0 note=61 velocity=0 time=0
note_on channel=0 note=49 velocity=0 time=0
note_on channel=0 note=82 velocity=82 time=0
note_on channel=0 note=64 velocity=95 time=0
note_on channel=0 note=52 velocity=75 time=0
control_change channel=0 control=64 value=0 time=6
control_change channel=0 control=64 value=127 time=63
note_on channel=0 note=82 velocity=0 time=51
note_on channel=0 note=85 velocity=70 time=0
note_on channel=0 note=85 velocity=0 time=120
note_on channel=0 note=52 velocity=0 time=0
note_on channel=0 note=64 velocity=0 time=0
note_on channel=0 note=79 velocity=81 time=0
note_on channel=0 note=55 velocity=63 time=0
note_on channel=0 note=67 velocity=82 time=0
note_on channel=0 note=79 velocity=0 time=120
note_on channel=0 note=82 velocity=71 time=0
note_on channel=0 note=82 velocity=0 time=120
note_on channel=0 note=67 velocity=0 time=0
note_on channel=0 note=55 velocity=0 time=0
note_on channel=0 note=77 velocity=82 time=0
note_on channel=0 note=58 velocity=63 time=0
note_on channel=0 note=70 velocity=82 time=0
note_on channel=0 note=77 velocity=0 time=120
note_on channel=0 note=79 velocity=68 time=0
note_on channel=0 note=79 velocity=0 time=120
note_on channel=0 note=70 velocity=0 time=0
note_on channel=0 note=58 velocity=0 time=0
note_on channel=0 note=77 velocity=81 time=0
note_on channel=0 note=73 velocity=85 time=0
note_on channel=0 note=61 velocity=68 time=0
control_change channel=0 control=64 value=0 time=17
control_change channel=0 control=64 value=127 time=69
note_on channel=0 note=77 velocity=0 time=34
note_on channel=0 note=79 velocity=70 time=0
note_on channel=0 note=61 velocity=0 time=110
note_on channel=0 note=73 velocity=0 time=0
note_on channel=0 note=79 velocity=0 time=10
note_on channel=0 note=82 velocity=80 time=0
note_on channel=0 note=61 velocity=64 time=0
note_on channel=0 note=73 velocity=83 time=0
note_on channel=0 note=82 velocity=0 time=120
note_on channel=0 note=79 velocity=70 time=0
note_on channel=0 note=73 velocity=0 time=110
note_on channel=0 note=61 velocity=0 time=0
<meta message set_tempo tempo=388073 time=10>
note_on channel=0 note=79 velocity=0 time=0
note_on channel=0 note=77 velocity=80 time=0
note_on channel=0 note=61 velocity=64 time=0
note_on channel=0 note=73 velocity=83 time=0
note_on channel=0 note=77 velocity=0 time=120
note_on channel=0 note=79 velocity=69 time=0
note_on channel=0 note=73 velocity=0 time=110
note_on channel=0 note=61 velocity=0 time=0
<meta message set_tempo tempo=360859 time=10>
note_on channel=0 note=79 velocity=0 time=0
note_on channel=0 note=73 velocity=102 time=0
note_on channel=0 note=61 velocity=80 time=0
control_change channel=0 control=64 value=0 time=14
control_change channel=0 control=64 value=127 time=101
note_on channel=0 note=77 velocity=72 time=5
note_on channel=0 note=77 velocity=0 time=120
note_on channel=0 note=82 velocity=82 time=0
note_on channel=0 note=82 velocity=0 time=120
note_on channel=0 note=79 velocity=70 time=0
note_on channel=0 note=79 velocity=0 time=120
note_on channel=0 note=77 velocity=77 time=0
note_on channel=0 note=77 velocity=0 time=120
note_on channel=0 note=82 velocity=69 time=0
note_on channel=0 note=82 velocity=0 time=120
note_on channel=0 note=61 velocity=0 time=0
note_on channel=0 note=73 velocity=0 time=0
note_on channel=0 note=60 velocity=69 time=0
note_on channel=0 note=72 velocity=86 time=0
control_change channel=0 control=64 value=0 time=16
note_on channel=0 note=76 velocity=67 time=104
control_change channel=0 control=64 value=127 time=6
note_on channel=0 note=76 velocity=0 time=114
note_on channel=0 note=82 velocity=75 time=0
note_on channel=0 note=82 velocity=0 time=120
note_on channel=0 note=79 velocity=64 time=0
<meta message set_tempo tempo=372324 time=120>
note_on channel=0 note=79 velocity=0 time=0
note_on channel=0 note=76 velocity=72 time=0
note_on channel=0 note=76 velocity=0 time=120
note_on channel=0 note=82 velocity=62 time=0
<meta message set_tempo tempo=360859 time=120>
note_on channel=0 note=82 velocity=0 time=0
note_on channel=0 note=72 velocity=0 time=0
note_on channel=0 note=60 velocity=0 time=0
note_on channel=0 note=65 velocity=102 time=0
control_change channel=0 control=64 value=0 time=19
note_on channel=0 note=73 velocity=72 time=101
control_change channel=0 control=64 value=127 time=6
note_on channel=0 note=73 velocity=0 time=114
note_on channel=0 note=82 velocity=82 time=0
note_on channel=0 note=82 velocity=0 time=120
note_on channel=0 note=79 velocity=70 time=0
note_on channel=0 note=79 velocity=0 time=120
note_on channel=0 note=73 velocity=77 time=0
note_on channel=0 note=73 velocity=0 time=120
note_on channel=0 note=82 velocity=69 time=0
note_on channel=0 note=82 velocity=0 time=120
note_on channel=0 note=65 velocity=0 time=0
note_on channel=0 note=64 velocity=86 time=0
control_change channel=0 control=64 value=0 time=15
control_change channel=0 control=64 value=127 time=88
note_on channel=0 note=72 velocity=67 time=17
note_on channel=0 note=72 velocity=0 time=120
note_on channel=0 note=82 velocity=75 time=0
note_on channel=0 note=82 velocity=0 time=120
note_on channel=0 note=79 velocity=64 time=0
<meta message set_tempo tempo=371103 time=120>
note_on channel=0 note=79 velocity=0 time=0
note_on channel=0 note=72 velocity=72 time=0
note_on channel=0 note=72 velocity=0 time=120
note_on channel=0 note=82 velocity=62 time=0
<meta message set_tempo tempo=360859 time=120>
note_on channel=0 note=82 velocity=0 time=0
note_on channel=0 note=64 velocity=0 time=0
note_on channel=0 note=73 velocity=102 time=0
control_change channel=0 control=64 value=0 time=19
control_change channel=0 control=64 value=127 time=78
note_on channel=0 note=77 velocity=72 time=23
note_on channel=0 note=77 velocity=0 time=120
note_on channel=0 note=82 velocity=82 time=0
note_on channel=0 note=82 velocity=0 time=120
note_on channel=0 note=79 velocity=70 time=0
note_on channel=0 note=79 velocity=0 time=120
note_on channel=0 note=77 velocity=77 time=0
note_on channel=0 note=77 velocity=0 time=120
note_on channel=0 note=82 velocity=69 time=0
note_on channel=0 note=82 velocity=0 time=120
note_on channel=0 note=73 velocity=0 time=0
note_on channel=0 note=72 velocity=86 time=0
control_change channel=0 control=64 value=0 time=12
control_change channel=0 control=64 value=127 time=80
note_on channel=0 note=76 velocity=67 time=28
note_on channel=0 note=76 velocity=0 time=120
note_on channel=0 note=82 velocity=75 time=0
note_on channel=0 note=82 velocity=0 time=120
note_on channel=0 note=79 velocity=64 time=0
note_on channel=0 note=79 velocity=0 time=120
note_on channel=0 note=76 velocity=72 time=0
note_on channel=0 note=76 velocity=0 time=120
note_on channel=0 note=82 velocity=62 time=0
<meta message set_tempo tempo=359475 time=120>
note_on channel=0 note=82 velocity=0 time=0
note_on channel=0 note=72 velocity=0 time=0
note_on channel=0 note=71 velocity=97 time=0
control_change channel=0 control=64 value=0 time=6
control_change channel=0 control=64 value=127 time=97
note_on channel=0 note=74 velocity=91 time=17
<meta message set_tempo tempo=358359 time=40>
note_on channel=0 note=77 velocity=95 time=80
<meta message set_tempo tempo=357249 time=40>
note_on channel=0 note=80 velocity=87 time=80
<meta message set_tempo tempo=356125 time=80>
note_on channel=0 note=83 velocity=83 time=40
<meta message set_tempo tempo=355030 time=80>
note_on channel=0 note=83 velocity=0 time=40
note_on channel=0 note=86 velocity=79 time=0
<meta message set_tempo tempo=353941 time=80>
note_on channel=0 note=86 velocity=0 time=40
note_on channel=0 note=89 velocity=87 time=0
<meta message set_tempo tempo=352837 time=120>
note_on channel=0 note=89 velocity=0 time=0
note_on channel=0 note=86 velocity=79 time=0
<meta message set_tempo tempo=351762 time=120>
note_on channel=0 note=86 velocity=0 time=0
note_on channel=0 note=83 velocity=86 time=0
note_on channel=0 note=83 velocity=0 time=120
note_on channel=0 note=92 velocity=83 time=0
<meta message set_tempo tempo=350693 time=40>
note_on channel=0 note=92 velocity=0 time=80
note_on channel=0 note=91 velocity=84 time=0
<meta message set_tempo tempo=349610 time=40>
note_on channel=0 note=91 velocity=0 time=80
note_on channel=0 note=89 velocity=79 time=0
<meta message set_tempo tempo=348554 time=40>
note_on channel=0 note=89 velocity=0 time=80
note_on channel=0 note=80 velocity=0 time=0
note_on channel=0 note=71 velocity=0 time=0
note_on channel=0 note=74 velocity=0 time=0
note_on channel=0 note=77 velocity=0 time=0
note_on channel=0 note=88 velocity=79 time=0
note_on channel=0 note=72 velocity=85 time=0
control_change channel=0 control=64 value=0 time=13
control_change channel=0 control=64 value=127 time=73
note_on channel=0 note=88 velocity=0 time=34
note_on channel=0 note=91 velocity=74 time=0
note_on channel=0 note=76 velocity=77 time=0
note_on channel=0 note=91 velocity=0 time=120
note_on channel=0 note=89 velocity=79 time=0
note_on channel=0 note=79 velocity=77 time=0
note_on channel=0 note=89 velocity=0 time=120
note_on channel=0 note=88 velocity=72 time=0
<meta message set_tempo tempo=349610 time=120>
note_on channel=0 note=88 velocity=0 time=0
note_on channel=0 note=85 velocity=73 time=0
note_on channel=0 note=85 velocity=0 time=120
note_on channel=0 note=84 velocity=72 time=0
note_on channel=0 note=84 velocity=0 time=120
note_on channel=0 note=82 velocity=78 time=0
<meta message set_tempo tempo=350693 time=40>
note_on channel=0 note=82 velocity=0 time=80
note_on channel=0 note=85 velocity=73 time=0
note_on channel=0 note=85 velocity=0 time=120
note_on channel=0 note=84 velocity=75 time=0
<meta message set_tempo tempo=351762 time=40>
note_on channel=0 note=84 velocity=0 time=80
note_on channel=0 note=82 velocity=72 time=0
note_on channel=0 note=82 velocity=0 time=120
note_on channel=0 note=80 velocity=71 time=0
<meta message set_tempo tempo=352837 time=80>
<meta message set_tempo tempo=442772 time=40>
note_on channel=0 note=80 velocity=0 time=0
note_on channel=0 note=79 velocity=70 time=0
<meta message set_tempo tempo=371517 time=120>
note_on channel=0 note=79 velocity=0 time=0
note_on channel=0 note=79 velocity=0 time=0
note_on channel=0 note=76 velocity=0 time=0
note_on channel=0 note=72 velocity=0 time=0
note_on channel=0 note=68 velocity=41 time=0
note_on channel=0 note=65 velocity=41 time=0
control_change channel=0 control=64 value=0 time=9
<meta message set_tempo tempo=370370 time=71>
control_change channel=0 control=64 value=127 time=0
note_on channel=0 note=77 velocity=39 time=40
<meta message set_tempo tempo=348837 time=120>
note_on channel=0 note=77 velocity=0 time=0
note_on channel=0 note=80 velocity=41 time=0
note_on channel=0 note=80 velocity=0 time=120
note_on channel=0 note=84 velocity=43 time=0
note_on channel=0 note=84 velocity=0 time=120
note_on channel=0 note=89 velocity=45 time=0
note_on channel=0 note=89 velocity=0 time=120
note_on channel=0 note=77 velocity=41 time=0
<meta message set_tempo tempo=356083 time=120>
note_on channel=0 note=77 velocity=0 time=0
note_on channel=0 note=65 velocity=0 time=0
note_on channel=0 note=68 velocity=0 time=0
note_on channel=0 note=73 velocity=40 time=0
note_on channel=0 note=70 velocity=40 time=0
control_change channel=0 control=64 value=0 time=17
control_change channel=0 control=64 value=127 time=92
<meta message set_tempo tempo=348837 time=131>
note_on channel=0 note=89 velocity=45 time=120
note_on channel=0 note=89 velocity=0 time=120
note_on channel=0 note=77 velocity=41 time=0
note_on channel=0 note=77 velocity=0 time=120
note_on channel=0 note=89 velocity=45 time=0
<meta message set_tempo tempo=356083 time=120>
note_on channel=0 note=89 velocity=0 time=0
note_on channel=0 note=70 velocity=0 time=0
note_on channel=0 note=73 velocity=0 time=0
note_on channel=0 note=72 velocity=41 time=0
note_on channel=0 note=68 velocity=41 time=0
control_change channel=0 control=64 value=0 time=12
control_change channel=0 control=64 value=127 time=80
<meta message set_tempo tempo=347826 time=148>
note_on channel=0 note=89 velocity=44 time=120
note_on channel=0 note=89 velocity=0 time=120
note_on channel=0 note=77 velocity=41 time=0
note_on channel=0 note=77 velocity=0 time=120
note_on channel=0 note=89 velocity=44 time=0
<meta message set_tempo tempo=332410 time=120>
note_on channel=0 note=89 velocity=0 time=0
note_on channel=0 note=68 velocity=0 time=0
note_on channel=0 note=72 velocity=0 time=0
note_on channel=0 note=72 velocity=55 time=0
note_on channel=0 note=70 velocity=55 time=0
note_on channel=0 note=67 velocity=55 time=0
control_change channel=0 control=64 value=0 time=17
control_change channel=0 control=64 value=127 time=86
<meta message set_tempo tempo=347826 time=137>
note_on channel=0 note=88 velocity=44 time=120
note_on channel=0 note=88 velocity=0 time=120
note_on channel=0 note=76 velocity=41 time=0
note_on channel=0 note=76 velocity=0 time=120
note_on channel=0 note=88 velocity=45 time=0
<meta message set_tempo tempo=371517 time=120>
note_on channel=0 note=88 velocity=0 time=0
note_on channel=0 note=72 velocity=0 time=0
note_on channel=0 note=70 velocity=0 time=0
note_on channel=0 note=67 velocity=0 time=0
note_on channel=0 note=65 velocity=41 time=0
note_on channel=0 note=68 velocity=41 time=0
control_change channel=0 control=64 value=0 time=6
<meta message set_tempo tempo=370370 time=74>
control_change channel=0 control=64 value=127 time=12
note_on channel=0 note=77 velocity=39 time=28
<meta message set_tempo tempo=348837 time=120>
note_on channel=0 note=77 velocity=0 time=0
note_on channel=0 note=80 velocity=41 time=0
note_on channel=0 note=80 velocity=0 time=120
note_on channel=0 note=84 velocity=43 time=0
note_on channel=0 note=84 velocity=0 time=120
note_on channel=0 note=89 velocity=45 time=0
note_on channel=0 note=89 velocity=0 time=120
note_on channel=0 note=77 velocity=41 time=0
<meta message set_tempo tempo=356083 time=120>
note_on channel=0 note=77 velocity=0 time=0
note_on channel=0 note=68 velocity=0 time=0
note_on channel=0 note=65 velocity=0 time=0
note_on channel=0 note=58 velocity=40 time=0
note_on channel=0 note=61 velocity=40 time=0
control_change channel=0 control=64 value=0 time=12
control_change channel=0 control=64 value=127 time=103
<meta message set_tempo tempo=348837 time=125>
note_on channel=0 note=77 velocity=45 time=120
note_on channel=0 note=77 velocity=0 time=120
note_on channel=0 note=65 velocity=41 time=0
note_on channel=0 note=65 velocity=0 time=120
note_on channel=0 note=77 velocity=45 time=0
<meta message set_tempo tempo=356083 time=120>
note_on channel=0 note=77 velocity=0 time=0
note_on channel=0 note=61 velocity=0 time=0
note_on channel=0 note=58 velocity=0 time=0
note_on channel=0 note=56 velocity=41 time=0
note_on channel=0 note=60 velocity=41 time=0
control_change channel=0 control=64 value=0 time=15
control_change channel=0 control=64 value=127 time=105
<meta message set_tempo tempo=347826 time=120>
note_on channel=0 note=77 velocity=44 time=120
note_on channel=0 note=77 velocity=0 time=120
note_on channel=0 note=65 velocity=41 time=0
note_on channel=0 note=65 velocity=0 time=120
note_on channel=0 note=77 velocity=44 time=0
<meta message set_tempo tempo=332410 time=120>
note_on channel=0 note=77 velocity=0 time=0
note_on channel=0 note=60 velocity=0 time=0
note_on channel=0 note=56 velocity=0 time=0
note_on channel=0 note=60 velocity=55 time=0
note_on channel=0 note=58 velocity=55 time=0
note_on channel=0 note=55 velocity=55 time=0
control_change channel=0 control=64 value=0 time=19
control_change channel=0 control=64 value=127 time=90
<meta message set_tempo tempo=347826 time=131>
note_on channel=0 note=76 velocity=44 time=120
note_on channel=0 note=76 velocity=0 time=120
note_on channel=0 note=64 velocity=41 time=0
note_on channel=0 note=64 velocity=0 time=120
note_on channel=0 note=76 velocity=45 time=0
<meta message set_tempo tempo=371517 time=120>
note_on channel=0 note=76 velocity=0 time=0
note_on channel=0 note=60 velocity=0 time=0
note_on channel=0 note=58 velocity=0 time=0
note_on channel=0 note=55 velocity=0 time=0
note_on channel=0 note=53 velocity=41 time=0
note_on channel=0 note=56 velocity=41 time=0
control_change channel=0 control=64 value=0 time=19
<meta message set_tempo tempo=370370 time=61>
control_change channel=0 control=64 value=127 time=0
note_on channel=0 note=77 velocity=39 time=40
<meta message set_tempo tempo=348837 time=120>
note_on channel=0 note=77 velocity=0 time=0
note_on channel=0 note=80 velocity=41 time=0
note_on channel=0 note=80 velocity=0 time=120
note_on channel=0 note=84 velocity=43 time=0
note_on channel=0 note=84 velocity=0 time=120
note_on channel=0 note=89 velocity=45 time=0
note_on channel=0 note=89 velocity=0 time=120
note_on channel=0 note=77 velocity=41 time=0
<meta message set_tempo tempo=356083 time=120>
note_on channel=0 note=77 velocity=0 time=0
note_on channel=0 note=56 velocity=0 time=0
note_on channel=0 note=53 velocity=0 time=0
note_on channel=0 note=46 velocity=40 time=0
note_on channel=0 note=49 velocity=40 time=0
control_change channel=0 control=64 value=0 time=13
control_change channel=0 control=64 value=127 time=73
<meta message set_tempo tempo=348837 time=154>
note_on channel=0 note=89 velocity=45 time=120
note_on channel=0 note=89 velocity=0 time=120
note_on channel=0 note=77 velocity=41 time=0
note_on channel=0 note=77 velocity=0 time=120
note_on channel=0 note=89 velocity=45 time=0
<meta message set_tempo tempo=356083 time=120>
note_on channel=0 note=89 velocity=0 time=0
note_on channel=0 note=49 velocity=0 time=0
note_on channel=0 note=46 velocity=0 time=0
note_on channel=0 note=44 velocity=41 time=0
note_on channel=0 note=48 velocity=41 time=0
control_change channel=0 control=64 value=0 time=18
control_change channel=0 control=64 value=127 time=74
<meta message set_tempo tempo=347826 time=148>
note_on channel=0 note=89 velocity=44 time=120
note_on channel=0 note=89 velocity=0 time=120
note_on channel=0 note=77 velocity=41 time=0
note_on channel=0 note=77 velocity=0 time=120
note_on channel=0 note=89 velocity=44 time=0
<meta message set_tempo tempo=332410 time=120>
note_on channel=0 note=89 velocity=0 time=0
note_on channel=0 note=48 velocity=0 time=0
note_on channel=0 note=44 velocity=0 time=0
note_on channel=0 note=43 velocity=55 time=0
note_on channel=0 note=46 velocity=55 time=0
note_on channel=0 note=48 velocity=55 time=0
control_change channel=0 control=64 value=0 time=12
control_change channel=0 control=64 value=127 time=85
<meta message set_tempo tempo=347826 time=143>
note_on channel=0 note=88 velocity=44 time=120
<meta message set_tempo tempo=373832 time=120>
note_on channel=0 note=88 velocity=0 time=0
note_on channel=0 note=76 velocity=41 time=0
note_on channel=0 note=76 velocity=0 time=120
note_on channel=0 note=88 velocity=45 time=0
<meta message set_tempo tempo=347826 time=120>
note_on channel=0 note=88 velocity=0 time=0
note_on channel=0 note=43 velocity=0 time=0
note_on channel=0 note=46 velocity=0 time=0
note_on channel=0 note=48 velocity=0 time=0
note_on channel=0 note=89 velocity=44 time=0
note_on channel=0 note=41 velocity=44 time=0
control_change channel=0 control=64 value=0 time=10
<meta message set_tempo tempo=351906 time=30>
control_change channel=0 control=64 value=127 time=45
note_on channel=0 note=89 velocity=0 time=35
note_on channel=0 note=84 velocity=41 time=0
<meta message set_tempo tempo=352941 time=40>
note_on channel=0 note=84 velocity=0 time=80
note_on channel=0 note=80 velocity=40 time=0
<meta message set_tempo tempo=353982 time=40>
note_on channel=0 note=80 velocity=0 time=80
note_on channel=0 note=84 velocity=36 time=0
<meta message set_tempo tempo=355030 time=40>
note_on channel=0 note=84 velocity=0 time=80
note_on channel=0 note=89 velocity=39 time=0
<meta message set_tempo tempo=356083 time=40>
note_on channel=0 note=89 velocity=0 time=80
note_on channel=0 note=84 velocity=36 time=0
<meta message set_tempo tempo=357143 time=40>
note_on channel=0 note=84 velocity=0 time=80
note_on channel=0 note=80 velocity=42 time=0
<meta message set_tempo tempo=358209 time=40>
note_on channel=0 note=80 velocity=0 time=80
note_on channel=0 note=84 velocity=38 time=0
<meta message set_tempo tempo=359281 time=40>
<meta message set_tempo tempo=360360 time=80>
note_on channel=0 note=84 velocity=0 time=0
note_on channel=0 note=89 velocity=38 time=0
note_on channel=0 note=89 velocity=0 time=120
note_on channel=0 note=84 velocity=34 time=0
<meta message set_tempo tempo=396040 time=120>
note_on channel=0 note=84 velocity=0 time=0
note_on channel=0 note=80 velocity=37 time=0
note_on channel=0 note=80 velocity=0 time=120
note_on channel=0 note=84 velocity=33 time=0
<meta message set_tempo tempo=415225 time=100>
<meta message set_tempo tempo=402685 time=20>
note_on channel=0 note=84 velocity=0 time=0
note_on channel=0 note=41 velocity=0 time=0
note_on channel=0 note=89 velocity=39 time=0
note_on channel=0 note=36 velocity=36 time=0
<meta message set_tempo tempo=404040 time=60>
<meta message set_tempo tempo=405405 time=40>
note_on channel=0 note=89 velocity=0 time=20
note_on channel=0 note=84 velocity=36 time=0
<meta message set_tempo tempo=406780 time=20>
<meta message set_tempo tempo=408163 time=60>
<meta message set_tempo tempo=409556 time=40>
note_on channel=0 note=84 velocity=0 time=0
note_on channel=0 note=80 velocity=36 time=0
<meta message set_tempo tempo=410959 time=40>
<meta message set_tempo tempo=412371 time=60>
note_on channel=0 note=80 velocity=0 time=20
note_on channel=0 note=84 velocity=32 time=0
<meta message set_tempo tempo=413793 time=20>
<meta message set_tempo tempo=415225 time=40>
<meta message set_tempo tempo=416667 time=60>
note_on channel=0 note=84 velocity=0 time=0
note_on channel=0 note=89 velocity=35 time=0
<meta message set_tempo tempo=418118 time=40>
<meta message set_tempo tempo=419580 time=40>
note_on channel=0 note=89 velocity=0 time=40
note_on channel=0 note=84 velocity=31 time=0
<meta message set_tempo tempo=421053 time=20>
<meta message set_tempo tempo=422535 time=40>
<meta message set_tempo tempo=424028 time=40>
note_on channel=0 note=84 velocity=0 time=20
note_on channel=0 note=36 velocity=0 time=0
note_on channel=0 note=89 velocity=36 time=0
note_on channel=0 note=32 velocity=30 time=0
<meta message set_tempo tempo=425532 time=40>
<meta message set_tempo tempo=427046 time=40>
<meta message set_tempo tempo=428571 time=40>
note_on channel=0 note=89 velocity=0 time=0
note_on channel=0 note=84 velocity=34 time=0
<meta message set_tempo tempo=430108 time=60>
<meta message set_tempo tempo=431655 time=40>
note_on channel=0 note=84 velocity=0 time=20
note_on channel=0 note=89 velocity=34 time=0
<meta message set_tempo tempo=433213 time=20>
<meta message set_tempo tempo=434783 time=60>
<meta message set_tempo tempo=436364 time=40>
note_on channel=0 note=89 velocity=0 time=0
note_on channel=0 note=84 velocity=30 time=0
<meta message set_tempo tempo=437956 time=40>
<meta message set_tempo tempo=439560 time=60>
note_on channel=0 note=84 velocity=0 time=20
note_on channel=0 note=89 velocity=33 time=0
<meta message set_tempo tempo=441176 time=20>
<meta message set_tempo tempo=442804 time=40>
<meta message set_tempo tempo=444444 time=60>
note_on channel=0 note=89 velocity=0 time=0
note_on channel=0 note=84 velocity=30 time=0
<meta message set_tempo tempo=446097 time=40>
<meta message set_tempo tempo=447761 time=40>
<meta message set_tempo tempo=405405 time=20>
note_on channel=0 note=84 velocity=0 time=20
note_on channel=0 note=32 velocity=0 time=0
note_on channel=0 note=89 velocity=38 time=0
note_on channel=0 note=29 velocity=24 time=0
<meta message set_tempo tempo=404040 time=40>
<meta message set_tempo tempo=402685 time=40>
<meta message set_tempo tempo=401338 time=40>
note_on channel=0 note=89 velocity=0 time=0
note_on channel=0 note=84 velocity=30 time=0
<meta message set_tempo tempo=400000 time=60>
<meta message set_tempo tempo=398671 time=40>
note_on channel=0 note=84 velocity=0 time=20
note_on channel=0 note=80 velocity=37 time=0
<meta message set_tempo tempo=397351 time=20>
<meta message set_tempo tempo=396040 time=60>
<meta message set_tempo tempo=394737 time=40>
note_on channel=0 note=80 velocity=0 time=0
note_on channel=0 note=84 velocity=30 time=0
<meta message set_tempo tempo=393443 time=40>
<meta message set_tempo tempo=392157 time=60>
note_on channel=0 note=84 velocity=0 time=20
note_on channel=0 note=89 velocity=33 time=0
<meta message set_tempo tempo=390879 time=20>
<meta message set_tempo tempo=389610 time=40>
<meta message set_tempo tempo=388350 time=60>
note_on channel=0 note=89 velocity=0 time=0
note_on channel=0 note=84 velocity=30 time=0
<meta message set_tempo tempo=387097 time=40>
<meta message set_tempo tempo=385852 time=40>
<meta message set_tempo tempo=384615 time=40>
note_on channel=0 note=84 velocity=0 time=0
note_on channel=0 note=80 velocity=36 time=0
note_on channel=0 note=80 velocity=0 time=120
note_on channel=0 note=84 velocity=30 time=0
note_on channel=0 note=84 velocity=0 time=120
note_on channel=0 note=89 velocity=35 time=0
note_on channel=0 note=89 velocity=0 time=120
note_on channel=0 note=84 velocity=30 time=0
note_on channel=0 note=84 velocity=0 time=120
note_on channel=0 note=80 velocity=31 time=0
note_on channel=0 note=80 velocity=0 time=120
note_on channel=0 note=84 velocity=30 time=0
<meta message set_tempo tempo=381219 time=120>
note_on channel=0 note=84 velocity=0 time=0
note_on channel=0 note=89 velocity=38 time=0
note_on channel=0 note=89 velocity=0 time=120
note_on channel=0 note=84 velocity=30 time=0
note_on channel=0 note=84 velocity=0 time=120
note_on channel=0 note=80 velocity=33 time=0
note_on channel=0 note=80 velocity=0 time=120
note_on channel=0 note=84 velocity=29 time=0
note_on channel=0 note=84 velocity=0 time=120
note_on channel=0 note=89 velocity=33 time=0
note_on channel=0 note=89 velocity=0 time=120
note_on channel=0 note=84 velocity=28 time=0
note_on channel=0 note=84 velocity=0 time=120
note_on channel=0 note=29 velocity=0 time=0
note_on channel=0 note=89 velocity=37 time=0
note_on channel=0 note=32 velocity=29 time=0
control_change channel=0 control=64 value=0 time=14
note_on channel=0 note=89 velocity=0 time=106
note_on channel=0 note=84 velocity=33 time=0
control_change channel=0 control=64 value=127 time=28
<meta message set_tempo tempo=386548 time=92>
note_on channel=0 note=84 velocity=0 time=0
note_on channel=0 note=80 velocity=34 time=0
note_on channel=0 note=80 velocity=0 time=120
note_on channel=0 note=84 velocity=29 time=0
note_on channel=0 note=84 velocity=0 time=120
note_on channel=0 note=89 velocity=33 time=0
<meta message set_tempo tempo=426834 time=120>
note_on channel=0 note=89 velocity=0 time=0
note_on channel=0 note=32 velocity=0 time=0
note_on channel=0 note=84 velocity=29 time=0
note_on channel=0 note=36 velocity=26 time=0
<meta message set_tempo tempo=360360 time=120>
note_on channel=0 note=36 velocity=0 time=0
note_on channel=0 note=84 velocity=0 time=0
note_on channel=0 note=89 velocity=38 time=0
note_on channel=0 note=41 velocity=29 time=0
control_change channel=0 control=64 value=0 time=10
<meta message set_tempo tempo=359281 time=50>
control_change channel=0 control=64 value=127 time=39
<meta message set_tempo tempo=358209 time=1>
note_on channel=0 note=89 velocity=0 time=20
note_on channel=0 note=84 velocity=30 time=0
<meta message set_tempo tempo=357143 time=20>
<meta message set_tempo tempo=356083 time=40>
<meta message set_tempo tempo=355030 time=60>
note_on channel=0 note=84 velocity=0 time=0
note_on channel=0 note=80 velocity=37 time=0
<meta message set_tempo tempo=353982 time=40>
<meta message set_tempo tempo=352941 time=40>
<meta message set_tempo tempo=351906 time=40>
note_on channel=0 note=80 velocity=0 time=0
note_on channel=0 note=84 velocity=30 time=0
<meta message set_tempo tempo=350877 time=60>
<meta message set_tempo tempo=349854 time=40>
note_on channel=0 note=84 velocity=0 time=20
note_on channel=0 note=89 velocity=33 time=0
<meta message set_tempo tempo=348837 time=20>
<meta message set_tempo tempo=347826 time=40>
note_on channel=0 note=89 velocity=0 time=60
note_on channel=0 note=84 velocity=30 time=0
<meta message set_tempo tempo=368505 time=120>
note_on channel=0 note=84 velocity=0 time=0
note_on channel=0 note=41 velocity=0 time=0
note_on channel=0 note=89 velocity=36 time=0
note_on channel=0 note=44 velocity=29 time=0
note_on channel=0 note=89 velocity=0 time=120
note_on channel=0 note=84 velocity=30 time=0
<meta message set_tempo tempo=374298 time=120>
note_on channel=0 note=84 velocity=0 time=0
note_on channel=0 note=80 velocity=35 time=0
note_on channel=0 note=80 velocity=0 time=120
note_on channel=0 note=84 velocity=30 time=0
note_on channel=0 note=84 velocity=0 time=120
note_on channel=0 note=89 velocity=31 time=0
<meta message set_tempo tempo=403497 time=120>
note_on channel=0 note=89 velocity=0 time=0
note_on channel=0 note=44 velocity=0 time=0
note_on channel=0 note=84 velocity=30 time=0
note_on channel=0 note=48 velocity=26 time=0
<meta message set_tempo tempo=368505 time=120>
note_on channel=0 note=48 velocity=0 time=0
note_on channel=0 note=84 velocity=0 time=0
note_on channel=0 note=89 velocity=38 time=0
note_on channel=0 note=53 velocity=29 time=0
control_change channel=0 control=64 value=0 time=10
control_change channel=0 control=64 value=127 time=103
note_on channel=0 note=89 velocity=0 time=7
note_on channel=0 note=84 velocity=30 time=0
note_on channel=0 note=84 velocity=0 time=120
note_on channel=0 note=80 velocity=33 time=0
note_on channel=0 note=80 velocity=0 time=120
note_on channel=0 note=84 velocity=29 time=0
<meta message set_tempo tempo=389282 time=120>
note_on channel=0 note=84 velocity=0 time=0
note_on channel=0 note=89 velocity=33 time=0
note_on channel=0 note=89 velocity=0 time=120
note_on channel=0 note=84 velocity=28 time=0
<meta message set_tempo tempo=368505 time=120>
note_on channel=0 note=84 velocity=0 time=0
note_on channel=0 note=53 velocity=0 time=0
note_on channel=0 note=89 velocity=37 time=0
note_on channel=0 note=41 velocity=28 time=0
note_on channel=0 note=89 velocity=0 time=120
note_on channel=0 note=84 velocity=33 time=0
note_on channel=0 note=84 velocity=0 time=120
note_on channel=0 note=80 velocity=34 time=0
note_on channel=0 note=80 velocity=0 time=120
note_on channel=0 note=84 velocity=29 time=0
note_on channel=0 note=84 velocity=0 time=120
note_on channel=0 note=89 velocity=33 time=0
note_on channel=0 note=89 velocity=0 time=120
note_on channel=0 note=84 velocity=29 time=0
<meta message set_tempo tempo=366972 time=120>
note_on channel=0 note=84 velocity=0 time=0
note_on channel=0 note=41 velocity=0 time=0
note_on channel=0 note=87 velocity=38 time=0
note_on channel=0 note=42 velocity=34 time=0
control_change channel=0 control=64 value=0 time=9
control_change channel=0 control=64 value=127 time=90
note_on channel=0 note=87 velocity=0 time=21
note_on channel=0 note=84 velocity=30 time=0
<meta message set_tempo tempo=365854 time=20>
note_on channel=0 note=84 velocity=0 time=100
note_on channel=0 note=80 velocity=37 time=0
<meta message set_tempo tempo=364742 time=40>
note_on channel=0 note=80 velocity=0 time=80
note_on channel=0 note=84 velocity=30 time=0
<meta message set_tempo tempo=363636 time=40>
note_on channel=0 note=84 velocity=0 time=80
note_on channel=0 note=87 velocity=33 time=0
<meta message set_tempo tempo=362538 time=60>
note_on channel=0 note=87 velocity=0 time=60
note_on channel=0 note=84 velocity=30 time=0
<meta message set_tempo tempo=361446 time=60>
note_on channel=0 note=84 velocity=0 time=60
note_on channel=0 note=80 velocity=36 time=0
<meta message set_tempo tempo=362538 time=40>
note_on channel=0 note=80 velocity=0 time=80
note_on channel=0 note=84 velocity=30 time=0
<meta message set_tempo tempo=363636 time=20>
<meta message set_tempo tempo=364742 time=80>
note_on channel=0 note=84 velocity=0 time=20
note_on channel=0 note=87 velocity=35 time=0
<meta message set_tempo tempo=365854 time=80>
note_on channel=0 note=87 velocity=0 time=40
note_on channel=0 note=84 velocity=30 time=0
<meta message set_tempo tempo=366972 time=60>
note_on channel=0 note=84 velocity=0 time=60
note_on channel=0 note=80 velocity=31 time=0
<meta message set_tempo tempo=368098 time=20>
<meta message set_tempo tempo=369231 time=100>
note_on channel=0 note=80 velocity=0 time=0
note_on channel=0 note=84 velocity=30 time=0
<meta message set_tempo tempo=370370 time=80>
<meta message set_tempo tempo=370370 time=20>
note_on channel=0 note=84 velocity=0 time=20
note_on channel=0 note=87 velocity=38 time=0
<meta message set_tempo tempo=371517 time=120>
note_on channel=0 note=87 velocity=0 time=0
note_on channel=0 note=84 velocity=30 time=0
<meta message set_tempo tempo=372671 time=120>
note_on channel=0 note=84 velocity=0 time=0
note_on channel=0 note=80 velocity=33 time=0
<meta message set_tempo tempo=373832 time=120>
note_on channel=0 note=80 velocity=0 time=0
note_on channel=0 note=84 velocity=29 time=0
note_on channel=0 note=84 velocity=0 time=120
note_on channel=0 note=87 velocity=33 time=0
<meta message set_tempo tempo=375000 time=20>
note_on channel=0 note=87 velocity=0 time=100
note_on channel=0 note=84 velocity=28 time=0
<meta message set_tempo tempo=376176 time=20>
note_on channel=0 note=84 velocity=0 time=100
note_on channel=0 note=42 velocity=0 time=0
note_on channel=0 note=87 velocity=37 time=0
note_on channel=0 note=48 velocity=33 time=0
<meta message set_tempo tempo=377358 time=20>
control_change channel=0 control=64 value=0 time=1
note_on channel=0 note=87 velocity=0 time=99
note_on channel=0 note=84 velocity=33 time=0
<meta message set_tempo tempo=378549 time=20>
control_change channel=0 control=64 value=127 time=8
<meta message set_tempo tempo=386548 time=92>
note_on channel=0 note=84 velocity=0 time=0
note_on channel=0 note=80 velocity=34 time=0
note_on channel=0 note=80 velocity=0 time=120
note_on channel=0 note=84 velocity=29 time=0
note_on channel=0 note=84 velocity=0 time=120
note_on channel=0 note=87 velocity=33 time=0
<meta message set_tempo tempo=426834 time=120>
note_on channel=0 note=87 velocity=0 time=0
note_on channel=0 note=48 velocity=0 time=0
note_on channel=0 note=84 velocity=29 time=0
note_on channel=0 note=51 velocity=28 time=0
<meta message set_tempo tempo=360360 time=100>
note_on channel=0 note=51 velocity=0 time=20
note_on channel=0 note=84 velocity=0 time=0
note_on channel=0 note=87 velocity=38 time=0
note_on channel=0 note=54 velocity=33 time=0
control_change channel=0 control=64 value=0 time=9
<meta message set_tempo tempo=359281 time=31>
<meta message set_tempo tempo=358209 time=60>
control_change channel=0 control=64 value=127 time=6
note_on channel=0 note=87 velocity=0 time=14
note_on channel=0 note=84 velocity=30 time=0
<meta message set_tempo tempo=357143 time=40>
<meta message set_tempo tempo=356083 time=60>
note_on channel=0 note=84 velocity=0 time=20
note_on channel=0 note=80 velocity=37 time=0
<meta message set_tempo tempo=355030 time=40>
<meta message set_tempo tempo=353982 time=60>
note_on channel=0 note=80 velocity=0 time=20
note_on channel=0 note=84 velocity=30 time=0
<meta message set_tempo tempo=352941 time=40>
<meta message set_tempo tempo=351906 time=60>
note_on channel=0 note=84 velocity=0 time=20
note_on channel=0 note=87 velocity=33 time=0
<meta message set_tempo tempo=350877 time=40>
<meta message set_tempo tempo=349854 time=60>
note_on channel=0 note=87 velocity=0 time=20
note_on channel=0 note=84 velocity=30 time=0
<meta message set_tempo tempo=348837 time=40>
<meta message set_tempo tempo=368505 time=80>
note_on channel=0 note=84 velocity=0 time=0
note_on channel=0 note=54 velocity=0 time=0
note_on channel=0 note=87 velocity=36 time=0
note_on channel=0 note=60 velocity=33 time=0
note_on channel=0 note=87 velocity=0 time=120
note_on channel=0 note=84 velocity=30 time=0
<meta message set_tempo tempo=374298 time=120>
note_on channel=0 note=84 velocity=0 time=0
note_on channel=0 note=80 velocity=35 time=0
note_on channel=0 note=80 velocity=0 time=120
note_on channel=0 note=84 velocity=30 time=0
note_on channel=0 note=84 velocity=0 time=120
note_on channel=0 note=87 velocity=31 time=0
<meta message set_tempo tempo=403497 time=120>
note_on channel=0 note=87 velocity=0 time=0
note_on channel=0 note=60 velocity=0 time=0
note_on channel=0 note=84 velocity=30 time=0
note_on channel=0 note=63 velocity=28 time=0
<meta message set_tempo tempo=368505 time=120>
note_on channel=0 note=63 velocity=0 time=0
note_on channel=0 note=84 velocity=0 time=0
note_on channel=0 note=87 velocity=38 time=0
note_on channel=0 note=66 velocity=33 time=0
control_change channel=0 control=64 value=0 time=13
note_on channel=0 note=87 velocity=0 time=107
note_on channel=0 note=84 velocity=30 time=0
control_change channel=0 control=64 value=127 time=14
note_on channel=0 note=84 velocity=0 time=106
note_on channel=0 note=80 velocity=33 time=0
note_on channel=0 note=80 velocity=0 time=120
note_on channel=0 note=84 velocity=29 time=0
<meta message set_tempo tempo=389282 time=120>
note_on channel=0 note=84 velocity=0 time=0
note_on channel=0 note=87 velocity=33 time=0
note_on channel=0 note=87 velocity=0 time=120
note_on channel=0 note=84 velocity=28 time=0
<meta message set_tempo tempo=368505 time=120>
note_on channel=0 note=84 velocity=0 time=0
note_on channel=0 note=66 velocity=0 time=0
note_on channel=0 note=87 velocity=37 time=0
note_on channel=0 note=54 velocity=30 time=0
note_on channel=0 note=87 velocity=0 time=120
note_on channel=0 note=84 velocity=33 time=0
note_on channel=0 note=84 velocity=0 time=120
note_on channel=0 note=80 velocity=34 time=0
note_on channel=0 note=80 velocity=0 time=120
note_on channel=0 note=84 velocity=29 time=0
note_on channel=0 note=84 velocity=0 time=120
note_on channel=0 note=87 velocity=33 time=0
note_on channel=0 note=87 velocity=0 time=120
note_on channel=0 note=84 velocity=29 time=0
<meta message set_tempo tempo=356083 time=100>
note_on channel=0 note=84 velocity=0 time=20
note_on channel=0 note=54 velocity=0 time=0
note_on channel=0 note=89 velocity=38 time=0
note_on channel=0 note=53 velocity=33 time=0
control_change channel=0 control=64 value=0 time=9
<meta message set_tempo tempo=355030 time=31>
<meta message set_tempo tempo=353982 time=40>
control_change channel=0 control=64 value=127 time=19
note_on channel=0 note=89 velocity=0 time=21
note_on channel=0 note=85 velocity=30 time=0
<meta message set_tempo tempo=352941 time=20>
<meta message set_tempo tempo=351906 time=40>
<meta message set_tempo tempo=350877 time=40>
note_on channel=0 note=85 velocity=0 time=20
note_on channel=0 note=80 velocity=37 time=0
<meta message set_tempo tempo=349854 time=40>
<meta message set_tempo tempo=348837 time=40>
<meta message set_tempo tempo=347826 time=40>
note_on channel=0 note=80 velocity=0 time=0
note_on channel=0 note=85 velocity=30 time=0
note_on channel=0 note=85 velocity=0 time=120
note_on channel=0 note=89 velocity=33 time=0
note_on channel=0 note=89 velocity=0 time=120
note_on channel=0 note=85 velocity=31 time=0
<meta message set_tempo tempo=368505 time=120>
note_on channel=0 note=85 velocity=0 time=0
note_on channel=0 note=53 velocity=0 time=0
note_on channel=0 note=89 velocity=37 time=0
note_on channel=0 note=56 velocity=34 time=0
note_on channel=0 note=89 velocity=0 time=120
note_on channel=0 note=85 velocity=30 time=0
<meta message set_tempo tempo=374298 time=120>
note_on channel=0 note=85 velocity=0 time=0
note_on channel=0 note=80 velocity=36 time=0
note_on channel=0 note=80 velocity=0 time=120
note_on channel=0 note=85 velocity=31 time=0
note_on channel=0 note=85 velocity=0 time=120
note_on channel=0 note=89 velocity=34 time=0
<meta message set_tempo tempo=403497 time=120>
note_on channel=0 note=89 velocity=0 time=0
note_on channel=0 note=56 velocity=0 time=0
note_on channel=0 note=85 velocity=33 time=0
note_on channel=0 note=61 velocity=30 time=0
<meta message set_tempo tempo=368505 time=120>
note_on channel=0 note=61 velocity=0 time=0
note_on channel=0 note=85 velocity=0 time=0
note_on channel=0 note=89 velocity=40 time=0
note_on channel=0 note=65 velocity=36 time=0
note_on channel=0 note=89 velocity=0 time=120
note_on channel=0 note=85 velocity=33 time=0
note_on channel=0 note=85 velocity=0 time=120
note_on channel=0 note=80 velocity=35 time=0
note_on channel=0 note=80 velocity=0 time=120
note_on channel=0 note=85 velocity=31 time=0
<meta message set_tempo tempo=389282 time=120>
note_on channel=0 note=85 velocity=0 time=0
note_on channel=0 note=89 velocity=35 time=0
note_on channel=0 note=89 velocity=0 time=120
note_on channel=0 note=85 velocity=30 time=0
<meta message set_tempo tempo=368505 time=120>
note_on channel=0 note=85 velocity=0 time=0
note_on channel=0 note=65 velocity=0 time=0
note_on channel=0 note=89 velocity=40 time=0
note_on channel=0 note=53 velocity=35 time=0
<meta message set_tempo tempo=368098 time=20>
<meta message set_tempo tempo=366972 time=80>
note_on channel=0 note=89 velocity=0 time=20
note_on channel=0 note=85 velocity=36 time=0
<meta message set_tempo tempo=365854 time=40>
<meta message set_tempo tempo=364742 time=80>
note_on channel=0 note=85 velocity=0 time=0
note_on channel=0 note=80 velocity=37 time=0
<meta message set_tempo tempo=363636 time=60>
<meta message set_tempo tempo=362538 time=60>
note_on channel=0 note=80 velocity=0 time=0
note_on channel=0 note=85 velocity=33 time=0
<meta message set_tempo tempo=363636 time=100>
note_on channel=0 note=85 velocity=0 time=20
note_on channel=0 note=89 velocity=36 time=0
<meta message set_tempo tempo=364742 time=60>
note_on channel=0 note=89 velocity=0 time=60
note_on channel=0 note=85 velocity=33 time=0
<meta message set_tempo tempo=365854 time=20>
<meta message set_tempo tempo=366972 time=80>
<meta message set_tempo tempo=368505 time=20>
note_on channel=0 note=85 velocity=0 time=0
note_on channel=0 note=53 velocity=0 time=0
note_on channel=0 note=90 velocity=40 time=0
note_on channel=0 note=51 velocity=40 time=0
control_change channel=0 control=64 value=0 time=17
control_change channel=0 control=64 value=127 time=40
note_on channel=0 note=90 velocity=0 time=63
note_on channel=0 note=84 velocity=35 time=0
<meta message set_tempo tempo=374298 time=120>
note_on channel=0 note=84 velocity=0 time=0
note_on channel=0 note=80 velocity=40 time=0
note_on channel=0 note=80 velocity=0 time=120
note_on channel=0 note=84 velocity=35 time=0
note_on channel=0 note=84 velocity=0 time=120
note_on channel=0 note=90 velocity=37 time=0
<meta message set_tempo tempo=403497 time=120>
note_on channel=0 note=90 velocity=0 time=0
note_on channel=0 note=51 velocity=0 time=0
note_on channel=0 note=84 velocity=36 time=0
note_on channel=0 note=54 velocity=36 time=0
<meta message set_tempo tempo=368505 time=120>
note_on channel=0 note=54 velocity=0 time=0
note_on channel=0 note=84 velocity=0 time=0
note_on channel=0 note=90 velocity=42 time=0
note_on channel=0 note=56 velocity=42 time=0
note_on channel=0 note=90 velocity=0 time=120
note_on channel=0 note=84 velocity=35 time=0
<meta message set_tempo tempo=374298 time=120>
note_on channel=0 note=84 velocity=0 time=0
note_on channel=0 note=80 velocity=41 time=0
note_on channel=0 note=80 velocity=0 time=120
note_on channel=0 note=84 velocity=37 time=0
note_on channel=0 note=84 velocity=0 time=120
note_on channel=0 note=90 velocity=38 time=0
<meta message set_tempo tempo=403497 time=120>
note_on channel=0 note=90 velocity=0 time=0
note_on channel=0 note=56 velocity=0 time=0
note_on channel=0 note=84 velocity=37 time=0
note_on channel=0 note=60 velocity=38 time=0
<meta message set_tempo tempo=368505 time=120>
note_on channel=0 note=60 velocity=0 time=0
note_on channel=0 note=84 velocity=0 time=0
note_on channel=0 note=90 velocity=44 time=0
note_on channel=0 note=63 velocity=44 time=0
note_on channel=0 note=90 velocity=0 time=120
note_on channel=0 note=84 velocity=36 time=0
<meta message set_tempo tempo=374298 time=120>
note_on channel=0 note=84 velocity=0 time=0
note_on channel=0 note=80 velocity=44 time=0
note_on channel=0 note=80 velocity=0 time=120
note_on channel=0 note=84 velocity=38 time=0
note_on channel=0 note=84 velocity=0 time=120
note_on channel=0 note=90 velocity=39 time=0
<meta message set_tempo tempo=403497 time=120>
note_on channel=0 note=90 velocity=0 time=0
note_on channel=0 note=63 velocity=0 time=0
note_on channel=0 note=84 velocity=38 time=0
note_on channel=0 note=66 velocity=39 time=0
<meta message set_tempo tempo=368505 time=120>
note_on channel=0 note=66 velocity=0 time=0
note_on channel=0 note=84 velocity=0 time=0
note_on channel=0 note=90 velocity=45 time=0
note_on channel=0 note=68 velocity=47 time=0
note_on channel=0 note=90 velocity=0 time=120
note_on channel=0 note=87 velocity=38 time=0
<meta message set_tempo tempo=374298 time=120>
note_on channel=0 note=87 velocity=0 time=0
note_on channel=0 note=80 velocity=44 time=0
note_on channel=0 note=80 velocity=0 time=120
note_on channel=0 note=87 velocity=39 time=0
note_on channel=0 note=87 velocity=0 time=120
note_on channel=0 note=90 velocity=39 time=0
<meta message set_tempo tempo=427046 time=120>
note_on channel=0 note=90 velocity=0 time=0
note_on channel=0 note=68 velocity=0 time=0
note_on channel=0 note=87 velocity=39 time=0
note_on channel=0 note=72 velocity=42 time=0
<meta message set_tempo tempo=381874 time=120>
note_on channel=0 note=72 velocity=0 time=0
note_on channel=0 note=87 velocity=0 time=0
note_on channel=0 note=89 velocity=55 time=0
note_on channel=0 note=61 velocity=33 time=0
control_change channel=0 control=64 value=0 time=10
control_change channel=0 control=64 value=127 time=117
<meta message set_tempo tempo=363218 time=113>
note_on channel=0 note=61 velocity=0 time=0
note_on channel=0 note=65 velocity=24 time=0
note_on channel=0 note=68 velocity=24 time=0
note_on channel=0 note=73 velocity=30 time=0
note_on channel=0 note=73 velocity=0 time=240
note_on channel=0 note=89 velocity=0 time=0
note_on channel=0 note=65 velocity=0 time=0
note_on channel=0 note=68 velocity=0 time=0
note_on channel=0 note=61 velocity=31 time=0
note_on channel=0 note=61 velocity=0 time=240
note_on channel=0 note=65 velocity=26 time=0
note_on channel=0 note=68 velocity=26 time=0
note_on channel=0 note=73 velocity=33 time=0
note_on channel=0 note=73 velocity=0 time=240
note_on channel=0 note=68 velocity=0 time=0
note_on channel=0 note=65 velocity=0 time=0
note_on channel=0 note=61 velocity=31 time=0
note_on channel=0 note=61 velocity=0 time=240
note_on channel=0 note=65 velocity=24 time=0
note_on channel=0 note=68 velocity=24 time=0
note_on channel=0 note=73 velocity=31 time=0
note_on channel=0 note=73 velocity=0 time=240
note_on channel=0 note=68 velocity=0 time=0
note_on channel=0 note=65 velocity=0 time=0
note_on channel=0 note=61 velocity=33 time=0
control_change channel=0 control=64 value=0 time=21
control_change channel=0 control=64 value=127 time=120
note_on channel=0 note=61 velocity=0 time=99
note_on channel=0 note=65 velocity=24 time=0
note_on channel=0 note=68 velocity=24 time=0
note_on channel=0 note=73 velocity=31 time=0
note_on channel=0 note=73 velocity=0 time=240
note_on channel=0 note=68 velocity=0 time=0
note_on channel=0 note=65 velocity=0 time=0
note_on channel=0 note=61 velocity=31 time=0
note_on channel=0 note=61 velocity=0 time=240
note_on channel=0 note=77 velocity=62 time=0
note_on channel=0 note=65 velocity=26 time=0
note_on channel=0 note=73 velocity=33 time=0
note_on channel=0 note=68 velocity=26 time=0
<meta message set_tempo tempo=381874 time=240>
note_on channel=0 note=68 velocity=0 time=0
note_on channel=0 note=73 velocity=0 time=0
note_on channel=0 note=65 velocity=0 time=0
note_on channel=0 note=61 velocity=31 time=0
note_on channel=0 note=61 velocity=0 time=240
note_on channel=0 note=65 velocity=25 time=0
note_on channel=0 note=68 velocity=25 time=0
note_on channel=0 note=73 velocity=32 time=0
<meta message set_tempo tempo=484301 time=120>
note_on channel=0 note=77 velocity=0 time=0
note_on channel=0 note=80 velocity=57 time=0
<meta message set_tempo tempo=339501 time=120>
note_on channel=0 note=80 velocity=0 time=0
note_on channel=0 note=73 velocity=0 time=0
note_on channel=0 note=68 velocity=0 time=0
note_on channel=0 note=65 velocity=0 time=0
note_on channel=0 note=85 velocity=66 time=0
note_on channel=0 note=61 velocity=33 time=0
control_change channel=0 control=64 value=0 time=14
<meta message set_tempo tempo=343466 time=26>
control_change channel=0 control=64 value=127 time=96
note_on channel=0 note=61 velocity=0 time=104
note_on channel=0 note=65 velocity=24 time=0
note_on channel=0 note=68 velocity=24 time=0
note_on channel=0 note=73 velocity=30 time=0
note_on channel=0 note=73 velocity=0 time=240
note_on channel=0 note=68 velocity=0 time=0
note_on channel=0 note=65 velocity=0 time=0
note_on channel=0 note=61 velocity=31 time=0
<meta message set_tempo tempo=360101 time=240>
note_on channel=0 note=61 velocity=0 time=0
note_on channel=0 note=85 velocity=0 time=0
note_on channel=0 note=89 velocity=62 time=0
note_on channel=0 note=65 velocity=26 time=0
note_on channel=0 note=68 velocity=26 time=0
note_on channel=0 note=73 velocity=33 time=0
<meta message set_tempo tempo=367444 time=240>
note_on channel=0 note=73 velocity=0 time=0
note_on channel=0 note=68 velocity=0 time=0
note_on channel=0 note=65 velocity=0 time=0
note_on channel=0 note=61 velocity=31 time=0
note_on channel=0 note=61 velocity=0 time=240
note_on channel=0 note=68 velocity=24 time=0
note_on channel=0 note=73 velocity=31 time=0
note_on channel=0 note=65 velocity=24 time=0
<meta message set_tempo tempo=419933 time=120>
note_on channel=0 note=89 velocity=0 time=0
note_on channel=0 note=85 velocity=55 time=0
note_on channel=0 note=85 velocity=0 time=120
note_on channel=0 note=65 velocity=0 time=0
note_on channel=0 note=73 velocity=0 time=0
note_on channel=0 note=68 velocity=0 time=0
note_on channel=0 note=84 velocity=63 time=0
note_on channel=0 note=63 velocity=33 time=0
control_change channel=0 control=64 value=0 time=18
<meta message set_tempo tempo=350120 time=22>
control_change channel=0 control=64 value=127 time=83
note_on channel=0 note=63 velocity=0 time=117
note_on channel=0 note=66 velocity=24 time=0
note_on channel=0 note=68 velocity=24 time=0
note_on channel=0 note=75 velocity=31 time=0
note_on channel=0 note=75 velocity=0 time=240
note_on channel=0 note=68 velocity=0 time=0
note_on channel=0 note=66 velocity=0 time=0
note_on channel=0 note=63 velocity=31 time=0
<meta message set_tempo tempo=357058 time=240>
note_on channel=0 note=63 velocity=0 time=0
note_on channel=0 note=84 velocity=0 time=0
note_on channel=0 note=87 velocity=66 time=0
note_on channel=0 note=68 velocity=26 time=0
note_on channel=0 note=66 velocity=26 time=0
note_on channel=0 note=75 velocity=33 time=0
<meta message set_tempo tempo=375117 time=240>
note_on channel=0 note=75 velocity=0 time=0
note_on channel=0 note=66 velocity=0 time=0
note_on channel=0 note=68 velocity=0 time=0
note_on channel=0 note=63 velocity=31 time=0
note_on channel=0 note=63 velocity=0 time=240
note_on channel=0 note=66 velocity=25 time=0
note_on channel=0 note=68 velocity=25 time=0
note_on channel=0 note=75 velocity=32 time=0
<meta message set_tempo tempo=451433 time=120>
note_on channel=0 note=87 velocity=0 time=0
note_on channel=0 note=84 velocity=55 time=0
<meta message set_tempo tempo=343466 time=120>
note_on channel=0 note=84 velocity=0 time=0
note_on channel=0 note=75 velocity=0 time=0
note_on channel=0 note=68 velocity=0 time=0
note_on channel=0 note=66 velocity=0 time=0
note_on channel=0 note=85 velocity=66 time=0
note_on channel=0 note=65 velocity=33 time=0
control_change channel=0 control=64 value=0 time=12
control_change channel=0 control=64 value=127 time=122
note_on channel=0 note=65 velocity=0 time=106
note_on channel=0 note=68 velocity=24 time=0
note_on channel=0 note=77 velocity=30 time=0
note_on channel=0 note=73 velocity=24 time=0
note_on channel=0 note=73 velocity=0 time=240
note_on channel=0 note=77 velocity=0 time=0
note_on channel=0 note=68 velocity=0 time=0
note_on channel=0 note=65 velocity=31 time=0
<meta message set_tempo tempo=353066 time=240>
note_on channel=0 note=65 velocity=0 time=0
note_on channel=0 note=85 velocity=0 time=0
note_on channel=0 note=80 velocity=59 time=0
note_on channel=0 note=77 velocity=33 time=0
note_on channel=0 note=73 velocity=26 time=0
note_on channel=0 note=68 velocity=26 time=0
note_on channel=0 note=68 velocity=0 time=240
note_on channel=0 note=73 velocity=0 time=0
note_on channel=0 note=77 velocity=0 time=0
note_on channel=0 note=65 velocity=31 time=0
note_on channel=0 note=65 velocity=0 time=240
note_on channel=0 note=68 velocity=24 time=0
note_on channel=0 note=77 velocity=31 time=0
note_on channel=0 note=73 velocity=24 time=0
note_on channel=0 note=73 velocity=0 time=240
note_on channel=0 note=77 velocity=0 time=0
note_on channel=0 note=68 velocity=0 time=0
note_on channel=0 note=65 velocity=33 time=0
note_on channel=0 note=65 velocity=0 time=240
note_on channel=0 note=77 velocity=31 time=0
note_on channel=0 note=68 velocity=24 time=0
note_on channel=0 note=73 velocity=24 time=0
note_on channel=0 note=73 velocity=0 time=240
note_on channel=0 note=68 velocity=0 time=0
note_on channel=0 note=77 velocity=0 time=0
note_on channel=0 note=65 velocity=31 time=0
note_on channel=0 note=65 velocity=0 time=240
note_on channel=0 note=80 velocity=0 time=0
note_on channel=0 note=77 velocity=68 time=0
note_on channel=0 note=73 velocity=36 time=0
note_on channel=0 note=68 velocity=36 time=0
<meta message set_tempo tempo=375117 time=240>
note_on channel=0 note=68 velocity=0 time=0
note_on channel=0 note=73 velocity=0 time=0
note_on channel=0 note=68 velocity=34 time=0
note_on channel=0 note=68 velocity=0 time=240
note_on channel=0 note=68 velocity=35 time=0
note_on channel=0 note=73 velocity=35 time=0
<meta message set_tempo tempo=449809 time=120>
note_on channel=0 note=77 velocity=0 time=0
note_on channel=0 note=80 velocity=62 time=0
<meta message set_tempo tempo=342544 time=120>
note_on channel=0 note=80 velocity=0 time=0
note_on channel=0 note=73 velocity=0 time=0
note_on channel=0 note=68 velocity=0 time=0
note_on channel=0 note=85 velocity=71 time=0
note_on channel=0 note=65 velocity=36 time=0
control_change channel=0 control=64 value=0 time=11
control_change channel=0 control=64 value=127 time=109
note_on channel=0 note=65 velocity=0 time=120
note_on channel=0 note=68 velocity=26 time=0
note_on channel=0 note=73 velocity=26 time=0
note_on channel=0 note=77 velocity=33 time=0
note_on channel=0 note=77 velocity=0 time=240
note_on channel=0 note=73 velocity=0 time=0
note_on channel=0 note=68 velocity=0 time=0
note_on channel=0 note=65 velocity=34 time=0
<meta message set_tempo tempo=361141 time=240>
note_on channel=0 note=65 velocity=0 time=0
note_on channel=0 note=85 velocity=0 time=0
note_on channel=0 note=89 velocity=74 time=0
note_on channel=0 note=73 velocity=29 time=0
note_on channel=0 note=68 velocity=29 time=0
note_on channel=0 note=77 velocity=37 time=0
<meta message set_tempo tempo=368505 time=240>
note_on channel=0 note=77 velocity=0 time=0
note_on channel=0 note=68 velocity=0 time=0
note_on channel=0 note=73 velocity=0 time=0
note_on channel=0 note=65 velocity=35 time=0
note_on channel=0 note=65 velocity=0 time=240
note_on channel=0 note=77 velocity=36 time=0
note_on channel=0 note=73 velocity=27 time=0
note_on channel=0 note=68 velocity=27 time=0
<meta message set_tempo tempo=419933 time=120>
note_on channel=0 note=89 velocity=0 time=0
note_on channel=0 note=85 velocity=64 time=0
note_on channel=0 note=85 velocity=0 time=120
note_on channel=0 note=68 velocity=0 time=0
note_on channel=0 note=73 velocity=0 time=0
note_on channel=0 note=77 velocity=0 time=0
note_on channel=0 note=84 velocity=75 time=0
note_on channel=0 note=66 velocity=39 time=0
control_change channel=0 control=64 value=0 time=20
<meta message set_tempo tempo=350120 time=20>
control_change channel=0 control=64 value=127 time=123
note_on channel=0 note=66 velocity=0 time=77
note_on channel=0 note=69 velocity=28 time=0
note_on channel=0 note=75 velocity=37 time=0
note_on channel=0 note=72 velocity=28 time=0
note_on channel=0 note=72 velocity=0 time=240
note_on channel=0 note=75 velocity=0 time=0
note_on channel=0 note=69 velocity=0 time=0
note_on channel=0 note=66 velocity=38 time=0
<meta message set_tempo tempo=357058 time=240>
note_on channel=0 note=66 velocity=0 time=0
note_on channel=0 note=84 velocity=0 time=0
note_on channel=0 note=87 velocity=80 time=0
note_on channel=0 note=75 velocity=40 time=0
note_on channel=0 note=69 velocity=40 time=0
note_on channel=0 note=72 velocity=40 time=0
<meta message set_tempo tempo=384197 time=240>
note_on channel=0 note=72 velocity=0 time=0
note_on channel=0 note=69 velocity=0 time=0
note_on channel=0 note=75 velocity=0 time=0
note_on channel=0 note=66 velocity=38 time=0
note_on channel=0 note=66 velocity=0 time=240
note_on channel=0 note=75 velocity=40 time=0
note_on channel=0 note=69 velocity=40 time=0
note_on channel=0 note=72 velocity=40 time=0
<meta message set_tempo tempo=471624 time=120>
note_on channel=0 note=87 velocity=0 time=0
note_on channel=0 note=84 velocity=71 time=0
<meta message set_tempo tempo=347826 time=120>
note_on channel=0 note=84 velocity=0 time=0
note_on channel=0 note=72 velocity=0 time=0
note_on channel=0 note=69 velocity=0 time=0
note_on channel=0 note=75 velocity=0 time=0
note_on channel=0 note=83 velocity=85 time=0
note_on channel=0 note=65 velocity=49 time=0
control_change channel=0 control=64 value=0 time=9
control_change channel=0 control=64 value=127 time=97
note_on channel=0 note=65 velocity=0 time=134
note_on channel=0 note=74 velocity=39 time=0
note_on channel=0 note=71 velocity=30 time=0
note_on channel=0 note=68 velocity=30 time=0
note_on channel=0 note=68 velocity=0 time=240
note_on channel=0 note=71 velocity=0 time=0
note_on channel=0 note=74 velocity=0 time=0
note_on channel=0 note=65 velocity=41 time=0
<meta message set_tempo tempo=359088 time=240>
note_on channel=0 note=65 velocity=0 time=0
note_on channel=0 note=83 velocity=0 time=0
note_on channel=0 note=86 velocity=95 time=0
note_on channel=0 note=68 velocity=35 time=0
note_on channel=0 note=74 velocity=44 time=0
note_on channel=0 note=71 velocity=35 time=0
note_on channel=0 note=71 velocity=0 time=240
note_on channel=0 note=74 velocity=0 time=0
note_on channel=0 note=68 velocity=0 time=0
note_on channel=0 note=65 velocity=42 time=0
note_on channel=0 note=65 velocity=0 time=240
note_on channel=0 note=68 velocity=34 time=0
note_on channel=0 note=74 velocity=44 time=0
note_on channel=0 note=71 velocity=34 time=0
note_on channel=0 note=71 velocity=0 time=240
note_on channel=0 note=74 velocity=0 time=0
note_on channel=0 note=68 velocity=0 time=0
note_on channel=0 note=65 velocity=49 time=0
note_on channel=0 note=65 velocity=0 time=240
note_on channel=0 note=68 velocity=36 time=0
note_on channel=0 note=71 velocity=36 time=0
note_on channel=0 note=74 velocity=48 time=0
note_on channel=0 note=74 velocity=0 time=240
note_on channel=0 note=71 velocity=0 time=0
note_on channel=0 note=68 velocity=0 time=0
note_on channel=0 note=65 velocity=48 time=0
note_on channel=0 note=65 velocity=0 time=240
note_on channel=0 note=86 velocity=0 time=0
note_on channel=0 note=86 velocity=84 time=0
note_on channel=0 note=71 velocity=41 time=0
note_on channel=0 note=68 velocity=41 time=0
note_on channel=0 note=74 velocity=55 time=0
<meta message set_tempo tempo=365854 time=240>
note_on channel=0 note=74 velocity=0 time=0
note_on channel=0 note=68 velocity=0 time=0
note_on channel=0 note=71 velocity=0 time=0
note_on channel=0 note=65 velocity=50 time=0
note_on channel=0 note=65 velocity=0 time=240
note_on channel=0 note=74 velocity=52 time=0
note_on channel=0 note=68 velocity=41 time=0
note_on channel=0 note=71 velocity=41 time=0
<meta message set_tempo tempo=486145 time=120>
note_on channel=0 note=86 velocity=0 time=0
note_on channel=0 note=83 velocity=79 time=0
<meta message set_tempo tempo=348837 time=120>
note_on channel=0 note=83 velocity=0 time=0
note_on channel=0 note=71 velocity=0 time=0
note_on channel=0 note=68 velocity=0 time=0
note_on channel=0 note=74 velocity=0 time=0
note_on channel=0 note=84 velocity=85 time=0
note_on channel=0 note=64 velocity=54 time=0
control_change channel=0 control=64 value=0 time=8
control_change channel=0 control=64 value=127 time=105
note_on channel=0 note=64 velocity=0 time=127
note_on channel=0 note=76 velocity=47 time=0
note_on channel=0 note=72 velocity=37 time=0
note_on channel=0 note=67 velocity=37 time=0
note_on channel=0 note=67 velocity=0 time=240
note_on channel=0 note=72 velocity=0 time=0
note_on channel=0 note=76 velocity=0 time=0
note_on channel=0 note=64 velocity=51 time=0
<meta message set_tempo tempo=359088 time=240>
note_on channel=0 note=64 velocity=0 time=0
note_on channel=0 note=84 velocity=0 time=0
note_on channel=0 note=88 velocity=97 time=0
note_on channel=0 note=67 velocity=42 time=0
note_on channel=0 note=76 velocity=53 time=0
note_on channel=0 note=72 velocity=42 time=0
note_on channel=0 note=72 velocity=0 time=240
note_on channel=0 note=76 velocity=0 time=0
note_on channel=0 note=67 velocity=0 time=0
note_on channel=0 note=64 velocity=47 time=0
note_on channel=0 note=64 velocity=0 time=240
note_on channel=0 note=67 velocity=41 time=0
note_on channel=0 note=76 velocity=52 time=0
note_on channel=0 note=72 velocity=41 time=0
note_on channel=0 note=72 velocity=0 time=240
note_on channel=0 note=76 velocity=0 time=0
note_on channel=0 note=67 velocity=0 time=0
note_on channel=0 note=64 velocity=49 time=0
note_on channel=0 note=64 velocity=0 time=240
note_on channel=0 note=67 velocity=43 time=0
note_on channel=0 note=72 velocity=43 time=0
note_on channel=0 note=76 velocity=54 time=0
note_on channel=0 note=76 velocity=0 time=240
note_on channel=0 note=72 velocity=0 time=0
note_on channel=0 note=67 velocity=0 time=0
note_on channel=0 note=64 velocity=48 time=0
note_on channel=0 note=64 velocity=0 time=240
note_on channel=0 note=88 velocity=0 time=0
note_on channel=0 note=91 velocity=84 time=0
note_on channel=0 note=79 velocity=71 time=0
note_on channel=0 note=72 velocity=41 time=0
note_on channel=0 note=67 velocity=41 time=0
note_on channel=0 note=76 velocity=55 time=0
<meta message set_tempo tempo=363636 time=240>
note_on channel=0 note=76 velocity=0 time=0
note_on channel=0 note=72 velocity=0 time=0
note_on channel=0 note=67 velocity=0 time=0
note_on channel=0 note=64 velocity=50 time=0
note_on channel=0 note=64 velocity=0 time=240
note_on channel=0 note=76 velocity=52 time=0
note_on channel=0 note=67 velocity=41 time=0
note_on channel=0 note=72 velocity=41 time=0
<meta message set_tempo tempo=486145 time=120>
note_on channel=0 note=79 velocity=0 time=0
note_on channel=0 note=91 velocity=0 time=0
note_on channel=0 note=77 velocity=67 time=0
note_on channel=0 note=89 velocity=79 time=0
<meta message set_tempo tempo=348837 time=120>
note_on channel=0 note=89 velocity=0 time=0
note_on channel=0 note=67 velocity=0 time=0
note_on channel=0 note=72 velocity=0 time=0
note_on channel=0 note=76 velocity=0 time=0
note_on channel=0 note=77 velocity=0 time=0
note_on channel=0 note=88 velocity=85 time=0
note_on channel=0 note=76 velocity=72 time=0
note_on channel=0 note=58 velocity=54 time=0
control_change channel=0 control=64 value=0 time=14
control_change channel=0 control=64 value=127 time=78
note_on channel=0 note=58 velocity=0 time=148
note_on channel=0 note=67 velocity=47 time=0
note_on channel=0 note=64 velocity=37 time=0
note_on channel=0 note=61 velocity=37 time=0
note_on channel=0 note=61 velocity=0 time=240
note_on channel=0 note=67 velocity=0 time=0
note_on channel=0 note=64 velocity=0 time=0
note_on channel=0 note=58 velocity=51 time=0
<meta message set_tempo tempo=359088 time=240>
note_on channel=0 note=58 velocity=0 time=0
note_on channel=0 note=76 velocity=0 time=0
note_on channel=0 note=88 velocity=0 time=0
note_on channel=0 note=79 velocity=79 time=0
note_on channel=0 note=91 velocity=93 time=0
note_on channel=0 note=61 velocity=42 time=0
note_on channel=0 note=67 velocity=53 time=0
note_on channel=0 note=64 velocity=42 time=0
note_on channel=0 note=64 velocity=0 time=240
note_on channel=0 note=61 velocity=0 time=0
note_on channel=0 note=67 velocity=0 time=0
note_on channel=0 note=58 velocity=47 time=0
note_on channel=0 note=58 velocity=0 time=240
note_on channel=0 note=61 velocity=41 time=0
note_on channel=0 note=67 velocity=52 time=0
note_on channel=0 note=64 velocity=41 time=0
note_on channel=0 note=64 velocity=0 time=240
note_on channel=0 note=61 velocity=0 time=0
note_on channel=0 note=67 velocity=0 time=0
note_on channel=0 note=58 velocity=49 time=0
note_on channel=0 note=58 velocity=0 time=240
note_on channel=0 note=64 velocity=43 time=0
note_on channel=0 note=67 velocity=54 time=0
note_on channel=0 note=61 velocity=43 time=0
note_on channel=0 note=61 velocity=0 time=240
note_on channel=0 note=64 velocity=0 time=0
note_on channel=0 note=67 velocity=0 time=0
note_on channel=0 note=58 velocity=48 time=0
note_on channel=0 note=58 velocity=0 time=240
note_on channel=0 note=91 velocity=0 time=0
note_on channel=0 note=79 velocity=0 time=0
note_on channel=0 note=79 velocity=74 time=0
note_on channel=0 note=91 velocity=88 time=0
note_on channel=0 note=61 velocity=43 time=0
note_on channel=0 note=67 velocity=57 time=0
note_on channel=0 note=64 velocity=43 time=0
<meta message set_tempo tempo=363636 time=240>
note_on channel=0 note=64 velocity=0 time=0
note_on channel=0 note=61 velocity=0 time=0
note_on channel=0 note=67 velocity=0 time=0
note_on channel=0 note=58 velocity=52 time=0
note_on channel=0 note=58 velocity=0 time=240
note_on channel=0 note=61 velocity=43 time=0
note_on channel=0 note=64 velocity=43 time=0
note_on channel=0 note=67 velocity=54 time=0
<meta message set_tempo tempo=486145 time=120>
note_on channel=0 note=91 velocity=0 time=0
note_on channel=0 note=79 velocity=0 time=0
note_on channel=0 note=76 velocity=70 time=0
note_on channel=0 note=88 velocity=82 time=0
<meta message set_tempo tempo=348837 time=120>
note_on channel=0 note=88 velocity=0 time=0
note_on channel=0 note=64 velocity=0 time=0
note_on channel=0 note=67 velocity=0 time=0
note_on channel=0 note=61 velocity=0 time=0
note_on channel=0 note=76 velocity=0 time=0
note_on channel=0 note=89 velocity=89 time=0
note_on channel=0 note=77 velocity=75 time=0
note_on channel=0 note=56 velocity=56 time=0
control_change channel=0 control=64 value=0 time=12
control_change channel=0 control=64 value=127 time=80
note_on channel=0 note=56 velocity=0 time=148
note_on channel=0 note=60 velocity=38 time=0
note_on channel=0 note=65 velocity=38 time=0
note_on channel=0 note=68 velocity=49 time=0
note_on channel=0 note=68 velocity=0 time=240
note_on channel=0 note=60 velocity=0 time=0
note_on channel=0 note=65 velocity=0 time=0
note_on channel=0 note=56 velocity=53 time=0
<meta message set_tempo tempo=359088 time=240>
note_on channel=0 note=56 velocity=0 time=0
note_on channel=0 note=77 velocity=0 time=0
note_on channel=0 note=89 velocity=0 time=0
note_on channel=0 note=92 velocity=96 time=0
note_on channel=0 note=80 velocity=81 time=0
note_on channel=0 note=65 velocity=44 time=0
note_on channel=0 note=68 velocity=55 time=0
note_on channel=0 note=60 velocity=44 time=0
note_on channel=0 note=60 velocity=0 time=240
note_on channel=0 note=65 velocity=0 time=0
note_on channel=0 note=68 velocity=0 time=0
note_on channel=0 note=56 velocity=49 time=0
note_on channel=0 note=56 velocity=0 time=240
note_on channel=0 note=65 velocity=43 time=0
note_on channel=0 note=68 velocity=54 time=0
note_on channel=0 note=60 velocity=43 time=0
note_on channel=0 note=60 velocity=0 time=240
note_on channel=0 note=65 velocity=0 time=0
note_on channel=0 note=68 velocity=0 time=0
note_on channel=0 note=56 velocity=51 time=0
note_on channel=0 note=56 velocity=0 time=240
note_on channel=0 note=65 velocity=45 time=0
note_on channel=0 note=68 velocity=56 time=0
note_on channel=0 note=60 velocity=45 time=0
note_on channel=0 note=60 velocity=0 time=240
note_on channel=0 note=65 velocity=0 time=0
note_on channel=0 note=68 velocity=0 time=0
note_on channel=0 note=56 velocity=50 time=0
note_on channel=0 note=56 velocity=0 time=240
note_on channel=0 note=80 velocity=0 time=0
note_on channel=0 note=92 velocity=0 time=0
note_on channel=0 note=92 velocity=88 time=0
note_on channel=0 note=80 velocity=74 time=0
note_on channel=0 note=60 velocity=43 time=0
note_on channel=0 note=68 velocity=57 time=0
note_on channel=0 note=65 velocity=43 time=0
<meta message set_tempo tempo=375117 time=240>
note_on channel=0 note=65 velocity=0 time=0
note_on channel=0 note=60 velocity=0 time=0
note_on channel=0 note=68 velocity=0 time=0
note_on channel=0 note=56 velocity=52 time=0
note_on channel=0 note=56 velocity=0 time=240
note_on channel=0 note=60 velocity=43 time=0
note_on channel=0 note=65 velocity=43 time=0
note_on channel=0 note=68 velocity=54 time=0
<meta message set_tempo tempo=486145 time=120>
note_on channel=0 note=80 velocity=0 time=0
note_on channel=0 note=92 velocity=0 time=0
note_on channel=0 note=89 velocity=82 time=0
note_on channel=0 note=77 velocity=70 time=0
<meta message set_tempo tempo=454545 time=120>
note_on channel=0 note=77 velocity=0 time=0
note_on channel=0 note=65 velocity=0 time=0
note_on channel=0 note=68 velocity=0 time=0
note_on channel=0 note=60 velocity=0 time=0
note_on channel=0 note=89 velocity=0 time=0
note_on channel=0 note=34 velocity=101 time=0
note_on channel=0 note=46 velocity=101 time=0
control_change channel=0 control=64 value=0 time=15
control_change channel=0 control=64 value=127 time=94
<meta message set_tempo tempo=344175 time=11>
note_on channel=0 note=61 velocity=80 time=0
<meta message set_tempo tempo=343151 time=60>
<meta message set_tempo tempo=342095 time=40>
note_on channel=0 note=61 velocity=0 time=20
note_on channel=0 note=46 velocity=0 time=0
note_on channel=0 note=34 velocity=0 time=0
note_on channel=0 note=58 velocity=77 time=0
<meta message set_tempo tempo=341045 time=20>
<meta message set_tempo tempo=340020 time=40>
<meta message set_tempo tempo=338983 time=40>
note_on channel=0 note=58 velocity=0 time=20
note_on channel=0 note=66 velocity=72 time=0
<meta message set_tempo tempo=337971 time=20>
<meta message set_tempo tempo=336946 time=40>
<meta message set_tempo tempo=335946 time=40>
<meta message set_tempo tempo=335027 time=20>
note_on channel=0 note=66 velocity=0 time=0
note_on channel=0 note=49 velocity=75 time=0
<meta message set_tempo tempo=364299 time=120>
note_on channel=0 note=49 velocity=0 time=0
note_on channel=0 note=54 velocity=69 time=0
<meta message set_tempo tempo=334020 time=120>
note_on channel=0 note=54 velocity=0 time=0
note_on channel=0 note=58 velocity=86 time=0
note_on channel=0 note=66 velocity=75 time=120
note_on channel=0 note=66 velocity=0 time=120
note_on channel=0 note=58 velocity=0 time=0
note_on channel=0 note=61 velocity=78 time=0
note_on channel=0 note=61 velocity=0 time=120
note_on channel=0 note=70 velocity=73 time=0
note_on channel=0 note=70 velocity=0 time=120
note_on channel=0 note=54 velocity=75 time=0
<meta message set_tempo tempo=369094 time=120>
note_on channel=0 note=54 velocity=0 time=0
note_on channel=0 note=58 velocity=73 time=0
<meta message set_tempo tempo=334020 time=120>
note_on channel=0 note=58 velocity=0 time=0
note_on channel=0 note=61 velocity=86 time=0
note_on channel=0 note=70 velocity=74 time=120
note_on channel=0 note=70 velocity=0 time=120
note_on channel=0 note=61 velocity=0 time=0
note_on channel=0 note=66 velocity=80 time=0
note_on channel=0 note=66 velocity=0 time=120
note_on channel=0 note=73 velocity=74 time=0
note_on channel=0 note=73 velocity=0 time=120
note_on channel=0 note=58 velocity=78 time=0
<meta message set_tempo tempo=365475 time=120>
note_on channel=0 note=58 velocity=0 time=0
note_on channel=0 note=61 velocity=73 time=0
<meta message set_tempo tempo=331987 time=120>
note_on channel=0 note=61 velocity=0 time=0
note_on channel=0 note=66 velocity=84 time=0
note_on channel=0 note=73 velocity=75 time=120
note_on channel=0 note=73 velocity=0 time=120
note_on channel=0 note=66 velocity=0 time=0
note_on channel=0 note=70 velocity=80 time=0
note_on channel=0 note=70 velocity=0 time=120
note_on channel=0 note=78 velocity=72 time=0
note_on channel=0 note=78 velocity=0 time=120
note_on channel=0 note=61 velocity=77 time=0
<meta message set_tempo tempo=366681 time=120>
note_on channel=0 note=61 velocity=0 time=0
note_on channel=0 note=66 velocity=71 time=0
<meta message set_tempo tempo=331987 time=120>
note_on channel=0 note=66 velocity=0 time=0
note_on channel=0 note=70 velocity=81 time=0
note_on channel=0 note=78 velocity=74 time=120
note_on channel=0 note=78 velocity=0 time=120
note_on channel=0 note=70 velocity=0 time=0
note_on channel=0 note=73 velocity=77 time=0
note_on channel=0 note=73 velocity=0 time=120
note_on channel=0 note=82 velocity=72 time=0
note_on channel=0 note=82 velocity=0 time=120
note_on channel=0 note=66 velocity=75 time=0
<meta message set_tempo tempo=366681 time=120>
note_on channel=0 note=66 velocity=0 time=0
note_on channel=0 note=70 velocity=74 time=0
<meta message set_tempo tempo=331987 time=120>
note_on channel=0 note=70 velocity=0 time=0
note_on channel=0 note=73 velocity=81 time=0
note_on channel=0 note=82 velocity=71 time=120
note_on channel=0 note=82 velocity=0 time=120
note_on channel=0 note=73 velocity=0 time=0
note_on channel=0 note=78 velocity=75 time=0
note_on channel=0 note=78 velocity=0 time=120
note_on channel=0 note=85 velocity=73 time=0
note_on channel=0 note=85 velocity=0 time=120
note_on channel=0 note=70 velocity=75 time=0
<meta message set_tempo tempo=363108 time=120>
note_on channel=0 note=70 velocity=0 time=0
note_on channel=0 note=73 velocity=73 time=0
<meta message set_tempo tempo=334020 time=120>
note_on channel=0 note=73 velocity=0 time=0
note_on channel=0 note=78 velocity=84 time=0
note_on channel=0 note=85 velocity=74 time=120
note_on channel=0 note=85 velocity=0 time=120
note_on channel=0 note=78 velocity=0 time=0
note_on channel=0 note=82 velocity=80 time=0
note_on channel=0 note=82 velocity=0 time=120
note_on channel=0 note=90 velocity=74 time=0
note_on channel=0 note=90 velocity=0 time=120
note_on channel=0 note=73 velocity=75 time=0
<meta message set_tempo tempo=367895 time=120>
note_on channel=0 note=73 velocity=0 time=0
note_on channel=0 note=78 velocity=74 time=0
<meta message set_tempo tempo=335027 time=120>
note_on channel=0 note=78 velocity=0 time=0
note_on channel=0 note=82 velocity=83 time=0
<meta message set_tempo tempo=337098 time=40>
<meta message set_tempo tempo=339194 time=40>
<meta message set_tempo tempo=341297 time=40>
<meta message set_tempo tempo=343446 time=40>
<meta message set_tempo tempo=345622 time=40>
<meta message set_tempo tempo=347826 time=40>
note_on channel=0 note=82 velocity=0 time=0
note_on channel=0 note=90 velocity=82 time=0
<meta message set_tempo tempo=351165 time=40>
<meta message set_tempo tempo=353419 time=40>
<meta message set_tempo tempo=355703 time=40>
note_on channel=0 note=90 velocity=0 time=0
note_on channel=0 note=85 velocity=79 time=0
<meta message set_tempo tempo=358017 time=40>
<meta message set_tempo tempo=360382 time=40>
<meta message set_tempo tempo=362779 time=40>
note_on channel=0 note=85 velocity=0 time=0
note_on channel=0 note=94 velocity=84 time=0
<meta message set_tempo tempo=365208 time=40>
<meta message set_tempo tempo=368890 time=40>
control_change channel=0 control=64 value=0 time=35
<meta message set_tempo tempo=745342 time=5>
<meta message set_tempo tempo=561062 time=120>
note_on channel=0 note=94 velocity=0 time=0
note_on channel=0 note=48 velocity=101 time=0
note_on channel=0 note=36 velocity=101 time=0
<meta message set_tempo tempo=344175 time=120>
note_on channel=0 note=63 velocity=80 time=0
control_change channel=0 control=64 value=127 time=12
<meta message set_tempo tempo=343151 time=48>
<meta message set_tempo tempo=342095 time=40>
note_on channel=0 note=63 velocity=0 time=20
note_on channel=0 note=36 velocity=0 time=0
note_on channel=0 note=48 velocity=0 time=0
note_on channel=0 note=60 velocity=77 time=0
<meta message set_tempo tempo=341045 time=20>
<meta message set_tempo tempo=340020 time=40>
<meta message set_tempo tempo=338983 time=40>
note_on channel=0 note=60 velocity=0 time=20
note_on channel=0 note=69 velocity=72 time=0
<meta message set_tempo tempo=337971 time=20>
<meta message set_tempo tempo=336946 time=40>
<meta message set_tempo tempo=335946 time=40>
<meta message set_tempo tempo=335027 time=20>
note_on channel=0 note=69 velocity=0 time=0
note_on channel=0 note=51 velocity=80 time=0
<meta message set_tempo tempo=364299 time=120>
note_on channel=0 note=51 velocity=0 time=0
note_on channel=0 note=57 velocity=73 time=0
<meta message set_tempo tempo=334020 time=120>
note_on channel=0 note=57 velocity=0 time=0
note_on channel=0 note=60 velocity=89 time=0
note_on channel=0 note=69 velocity=75 time=120
note_on channel=0 note=69 velocity=0 time=120
note_on channel=0 note=60 velocity=0 time=0
note_on channel=0 note=63 velocity=78 time=0
note_on channel=0 note=63 velocity=0 time=120
note_on channel=0 note=72 velocity=73 time=0
note_on channel=0 note=72 velocity=0 time=120
note_on channel=0 note=57 velocity=78 time=0
<meta message set_tempo tempo=369094 time=120>
note_on channel=0 note=57 velocity=0 time=0
note_on channel=0 note=60 velocity=73 time=0
<meta message set_tempo tempo=334020 time=120>
note_on channel=0 note=60 velocity=0 time=0
note_on channel=0 note=63 velocity=86 time=0
note_on channel=0 note=72 velocity=74 time=120
note_on channel=0 note=72 velocity=0 time=120
note_on channel=0 note=63 velocity=0 time=0
note_on channel=0 note=69 velocity=80 time=0
note_on channel=0 note=69 velocity=0 time=120
note_on channel=0 note=75 velocity=74 time=0
note_on channel=0 note=75 velocity=0 time=120
note_on channel=0 note=60 velocity=78 time=0
<meta message set_tempo tempo=365475 time=120>
note_on channel=0 note=60 velocity=0 time=0
note_on channel=0 note=63 velocity=73 time=0
<meta message set_tempo tempo=331987 time=120>
note_on channel=0 note=63 velocity=0 time=0
note_on channel=0 note=69 velocity=84 time=0
note_on channel=0 note=75 velocity=75 time=120
note_on channel=0 note=75 velocity=0 time=120
note_on channel=0 note=69 velocity=0 time=0
note_on channel=0 note=72 velocity=80 time=0
note_on channel=0 note=72 velocity=0 time=120
note_on channel=0 note=81 velocity=72 time=0
note_on channel=0 note=81 velocity=0 time=120
note_on channel=0 note=63 velocity=77 time=0
<meta message set_tempo tempo=366681 time=120>
note_on channel=0 note=63 velocity=0 time=0
note_on channel=0 note=69 velocity=71 time=0
<meta message set_tempo tempo=331987 time=120>
note_on channel=0 note=69 velocity=0 time=0
note_on channel=0 note=72 velocity=82 time=0
note_on channel=0 note=81 velocity=75 time=120
note_on channel=0 note=81 velocity=0 time=120
note_on channel=0 note=72 velocity=0 time=0
note_on channel=0 note=75 velocity=77 time=0
note_on channel=0 note=75 velocity=0 time=120
note_on channel=0 note=84 velocity=72 time=0
note_on channel=0 note=84 velocity=0 time=120
note_on channel=0 note=69 velocity=75 time=0
<meta message set_tempo tempo=366681 time=120>
note_on channel=0 note=69 velocity=0 time=0
note_on channel=0 note=72 velocity=73 time=0
<meta message set_tempo tempo=331987 time=120>
note_on channel=0 note=72 velocity=0 time=0
note_on channel=0 note=75 velocity=85 time=0
note_on channel=0 note=84 velocity=71 time=120
note_on channel=0 note=84 velocity=0 time=120
note_on channel=0 note=75 velocity=0 time=0
note_on channel=0 note=81 velocity=75 time=0
note_on channel=0 note=81 velocity=0 time=120
note_on channel=0 note=87 velocity=73 time=0
note_on channel=0 note=87 velocity=0 time=120
note_on channel=0 note=72 velocity=75 time=0
<meta message set_tempo tempo=363108 time=120>
note_on channel=0 note=72 velocity=0 time=0
note_on channel=0 note=75 velocity=73 time=0
<meta message set_tempo tempo=334020 time=120>
note_on channel=0 note=75 velocity=0 time=0
note_on channel=0 note=81 velocity=84 time=0
note_on channel=0 note=87 velocity=74 time=120
note_on channel=0 note=87 velocity=0 time=120
note_on channel=0 note=81 velocity=0 time=0
note_on channel=0 note=84 velocity=80 time=0
note_on channel=0 note=84 velocity=0 time=120
note_on channel=0 note=93 velocity=74 time=0
note_on channel=0 note=93 velocity=0 time=120
note_on channel=0 note=75 velocity=80 time=0
<meta message set_tempo tempo=367895 time=120>
note_on channel=0 note=75 velocity=0 time=0
note_on channel=0 note=81 velocity=74 time=0
<meta message set_tempo tempo=335027 time=120>
note_on channel=0 note=81 velocity=0 time=0
note_on channel=0 note=84 velocity=85 time=0
<meta message set_tempo tempo=337098 time=40>
<meta message set_tempo tempo=339194 time=40>
<meta message set_tempo tempo=341297 time=40>
<meta message set_tempo tempo=343446 time=40>
<meta message set_tempo tempo=345622 time=40>
<meta message set_tempo tempo=347826 time=40>
note_on channel=0 note=84 velocity=0 time=0
note_on channel=0 note=93 velocity=83 time=0
<meta message set_tempo tempo=351165 time=40>
<meta message set_tempo tempo=353419 time=40>
<meta message set_tempo tempo=355703 time=40>
note_on channel=0 note=93 velocity=0 time=0
note_on channel=0 note=87 velocity=77 time=0
<meta message set_tempo tempo=358017 time=40>
<meta message set_tempo tempo=360382 time=40>
<meta message set_tempo tempo=362779 time=40>
note_on channel=0 note=87 velocity=0 time=0
note_on channel=0 note=96 velocity=83 time=0
<meta message set_tempo tempo=365208 time=40>
<meta message set_tempo tempo=368890 time=40>
<meta message set_tempo tempo=545455 time=40>
control_change channel=0 control=64 value=0 time=29
<meta message set_tempo tempo=346300 time=91>
note_on channel=0 note=96 velocity=0 time=0
note_on channel=0 note=37 velocity=101 time=0
note_on channel=0 note=49 velocity=101 time=0
control_change channel=0 control=64 value=127 time=86
<meta message set_tempo tempo=344175 time=34>
note_on channel=0 note=65 velocity=74 time=0
<meta message set_tempo tempo=343151 time=60>
<meta message set_tempo tempo=342095 time=40>
note_on channel=0 note=65 velocity=0 time=20
note_on channel=0 note=49 velocity=0 time=0
note_on channel=0 note=37 velocity=0 time=0
note_on channel=0 note=61 velocity=77 time=0
<meta message set_tempo tempo=341045 time=20>
<meta message set_tempo tempo=340020 time=40>
<meta message set_tempo tempo=338983 time=40>
note_on channel=0 note=61 velocity=0 time=20
note_on channel=0 note=70 velocity=72 time=0
<meta message set_tempo tempo=337971 time=20>
<meta message set_tempo tempo=336946 time=40>
<meta message set_tempo tempo=335946 time=40>
<meta message set_tempo tempo=335027 time=20>
note_on channel=0 note=70 velocity=0 time=0
note_on channel=0 note=53 velocity=78 time=0
<meta message set_tempo tempo=364299 time=120>
note_on channel=0 note=53 velocity=0 time=0
note_on channel=0 note=58 velocity=73 time=0
<meta message set_tempo tempo=334020 time=120>
note_on channel=0 note=58 velocity=0 time=0
note_on channel=0 note=61 velocity=84 time=0
note_on channel=0 note=61 velocity=0 time=240
note_on channel=0 note=70 velocity=75 time=0
note_on channel=0 note=70 velocity=0 time=120
note_on channel=0 note=65 velocity=72 time=0
note_on channel=0 note=65 velocity=0 time=120
note_on channel=0 note=73 velocity=73 time=0
<meta message set_tempo tempo=369094 time=120>
control_change channel=0 control=64 value=0 time=46
<meta message set_tempo tempo=431562 time=74>
note_on channel=0 note=73 velocity=0 time=0
note_on channel=0 note=52 velocity=101 time=0
note_on channel=0 note=40 velocity=101 time=0
<meta message set_tempo tempo=346300 time=20>
control_change channel=0 control=64 value=127 time=66
<meta message set_tempo tempo=344175 time=34>
note_on channel=0 note=67 velocity=75 time=0
<meta message set_tempo tempo=343151 time=60>
<meta message set_tempo tempo=342095 time=40>
note_on channel=0 note=67 velocity=0 time=20
note_on channel=0 note=40 velocity=0 time=0
note_on channel=0 note=52 velocity=0 time=0
note_on channel=0 note=64 velocity=77 time=0
<meta message set_tempo tempo=341045 time=20>
<meta message set_tempo tempo=340020 time=40>
<meta message set_tempo tempo=338983 time=40>
note_on channel=0 note=64 velocity=0 time=20
note_on channel=0 note=72 velocity=72 time=0
<meta message set_tempo tempo=337971 time=20>
<meta message set_tempo tempo=336946 time=40>
<meta message set_tempo tempo=335946 time=40>
<meta message set_tempo tempo=335027 time=20>
note_on channel=0 note=72 velocity=0 time=0
note_on channel=0 note=55 velocity=80 time=0
<meta message set_tempo tempo=364299 time=120>
note_on channel=0 note=55 velocity=0 time=0
note_on channel=0 note=60 velocity=73 time=0
<meta message set_tempo tempo=334020 time=120>
note_on channel=0 note=60 velocity=0 time=0
note_on channel=0 note=64 velocity=82 time=0
note_on channel=0 note=64 velocity=0 time=240
note_on channel=0 note=72 velocity=75 time=0
note_on channel=0 note=72 velocity=0 time=120
note_on channel=0 note=67 velocity=72 time=0
note_on channel=0 note=67 velocity=0 time=120
note_on channel=0 note=76 velocity=73 time=0
<meta message set_tempo tempo=369094 time=120>
control_change channel=0 control=64 value=0 time=17
<meta message set_tempo tempo=431562 time=103>
note_on channel=0 note=76 velocity=0 time=0
note_on channel=0 note=53 velocity=101 time=0
note_on channel=0 note=41 velocity=101 time=0
<meta message set_tempo tempo=346300 time=20>
control_change channel=0 control=64 value=127 time=49
<meta message set_tempo tempo=344175 time=51>
note_on channel=0 note=68 velocity=73 time=0
<meta message set_tempo tempo=343151 time=60>
<meta message set_tempo tempo=342095 time=40>
note_on channel=0 note=68 velocity=0 time=20
note_on channel=0 note=41 velocity=0 time=0
note_on channel=0 note=53 velocity=0 time=0
note_on channel=0 note=65 velocity=77 time=0
<meta message set_tempo tempo=341045 time=20>
<meta message set_tempo tempo=340020 time=40>
<meta message set_tempo tempo=338983 time=40>
note_on channel=0 note=65 velocity=0 time=20
note_on channel=0 note=73 velocity=72 time=0
<meta message set_tempo tempo=337971 time=20>
<meta message set_tempo tempo=336946 time=40>
<meta message set_tempo tempo=335946 time=40>
<meta message set_tempo tempo=335027 time=20>
note_on channel=0 note=73 velocity=0 time=0
note_on channel=0 note=56 velocity=80 time=0
<meta message set_tempo tempo=364299 time=120>
note_on channel=0 note=56 velocity=0 time=0
note_on channel=0 note=61 velocity=73 time=0
<meta message set_tempo tempo=334020 time=120>
note_on channel=0 note=61 velocity=0 time=0
note_on channel=0 note=65 velocity=86 time=0
note_on channel=0 note=65 velocity=0 time=240
note_on channel=0 note=73 velocity=75 time=0
note_on channel=0 note=73 velocity=0 time=120
note_on channel=0 note=68 velocity=71 time=0
note_on channel=0 note=68 velocity=0 time=120
note_on channel=0 note=77 velocity=73 time=0
<meta message set_tempo tempo=369094 time=120>
control_change channel=0 control=64 value=0 time=52
<meta message set_tempo tempo=431562 time=68>
note_on channel=0 note=77 velocity=0 time=0
note_on channel=0 note=43 velocity=101 time=0
note_on channel=0 note=55 velocity=101 time=0
<meta message set_tempo tempo=346300 time=20>
control_change channel=0 control=64 value=127 time=55
<meta message set_tempo tempo=344175 time=45>
note_on channel=0 note=70 velocity=80 time=0
<meta message set_tempo tempo=343151 time=60>
<meta message set_tempo tempo=342095 time=40>
note_on channel=0 note=70 velocity=0 time=20
note_on channel=0 note=55 velocity=0 time=0
note_on channel=0 note=43 velocity=0 time=0
note_on channel=0 note=67 velocity=77 time=0
<meta message set_tempo tempo=341045 time=20>
<meta message set_tempo tempo=340020 time=40>
<meta message set_tempo tempo=338983 time=40>
note_on channel=0 note=67 velocity=0 time=20
note_on channel=0 note=76 velocity=72 time=0
<meta message set_tempo tempo=337971 time=20>
<meta message set_tempo tempo=336946 time=40>
<meta message set_tempo tempo=335946 time=40>
<meta message set_tempo tempo=335027 time=20>
note_on channel=0 note=76 velocity=0 time=0
note_on channel=0 note=58 velocity=80 time=0
<meta message set_tempo tempo=364299 time=120>
note_on channel=0 note=58 velocity=0 time=0
note_on channel=0 note=64 velocity=73 time=0
<meta message set_tempo tempo=334020 time=120>
note_on channel=0 note=64 velocity=0 time=0
note_on channel=0 note=67 velocity=86 time=0
note_on channel=0 note=67 velocity=0 time=240
note_on channel=0 note=76 velocity=75 time=0
note_on channel=0 note=76 velocity=0 time=120
note_on channel=0 note=70 velocity=73 time=0
note_on channel=0 note=70 velocity=0 time=120
note_on channel=0 note=79 velocity=73 time=0
<meta message set_tempo tempo=369094 time=120>
control_change channel=0 control=64 value=0 time=12
control_change channel=0 control=64 value=0 time=17
<meta message set_tempo tempo=330579 time=91>
note_on channel=0 note=79 velocity=0 time=0
note_on channel=0 note=44 velocity=75 time=0
note_on channel=0 note=72 velocity=64 time=120
control_change channel=0 control=64 value=127 time=17
note_on channel=0 note=72 velocity=0 time=103
note_on channel=0 note=44 velocity=0 time=0
note_on channel=0 note=68 velocity=69 time=0
note_on channel=0 note=68 velocity=0 time=120
note_on channel=0 note=77 velocity=64 time=0
note_on channel=0 note=77 velocity=0 time=120
note_on channel=0 note=56 velocity=69 time=0
<meta message set_tempo tempo=366681 time=120>
note_on channel=0 note=56 velocity=0 time=0
note_on channel=0 note=60 velocity=61 time=0
<meta message set_tempo tempo=329670 time=120>
note_on channel=0 note=60 velocity=0 time=0
note_on channel=0 note=46 velocity=77 time=0
control_change channel=0 control=64 value=0 time=16
note_on channel=0 note=73 velocity=64 time=104
control_change channel=0 control=64 value=127 time=6
note_on channel=0 note=73 velocity=0 time=114
note_on channel=0 note=46 velocity=0 time=0
note_on channel=0 note=70 velocity=69 time=0
note_on channel=0 note=70 velocity=0 time=120
note_on channel=0 note=79 velocity=67 time=0
note_on channel=0 note=79 velocity=0 time=120
note_on channel=0 note=58 velocity=69 time=0
<meta message set_tempo tempo=363108 time=120>
note_on channel=0 note=58 velocity=0 time=0
note_on channel=0 note=61 velocity=64 time=0
<meta message set_tempo tempo=331492 time=120>
note_on channel=0 note=61 velocity=0 time=0
note_on channel=0 note=48 velocity=78 time=0
control_change channel=0 control=64 value=0 time=13
control_change channel=0 control=64 value=127 time=96
note_on channel=0 note=75 velocity=69 time=11
note_on channel=0 note=75 velocity=0 time=120
note_on channel=0 note=48 velocity=0 time=0
note_on channel=0 note=72 velocity=73 time=0
note_on channel=0 note=72 velocity=0 time=120
note_on channel=0 note=81 velocity=69 time=0
note_on channel=0 note=81 velocity=0 time=120
note_on channel=0 note=60 velocity=71 time=0
<meta message set_tempo tempo=367895 time=120>
note_on channel=0 note=60 velocity=0 time=0
note_on channel=0 note=63 velocity=67 time=0
<meta message set_tempo tempo=331492 time=120>
note_on channel=0 note=63 velocity=0 time=0
note_on channel=0 note=49 velocity=81 time=0
control_change channel=0 control=64 value=0 time=17
control_change channel=0 control=64 value=127 time=92
note_on channel=0 note=77 velocity=71 time=11
note_on channel=0 note=77 velocity=0 time=120
note_on channel=0 note=49 velocity=0 time=0
note_on channel=0 note=73 velocity=68 time=0
note_on channel=0 note=73 velocity=0 time=120
note_on channel=0 note=82 velocity=70 time=0
note_on channel=0 note=82 velocity=0 time=120
note_on channel=0 note=61 velocity=77 time=0
<meta message set_tempo tempo=357143 time=120>
note_on channel=0 note=61 velocity=0 time=0
note_on channel=0 note=65 velocity=71 time=0
<meta message set_tempo tempo=331987 time=120>
note_on channel=0 note=65 velocity=0 time=0
note_on channel=0 note=52 velocity=80 time=0
control_change channel=0 control=64 value=0 time=15
<meta message set_tempo tempo=329670 time=25>
control_change channel=0 control=64 value=127 time=52
note_on channel=0 note=79 velocity=71 time=28
note_on channel=0 note=79 velocity=0 time=120
note_on channel=0 note=52 velocity=0 time=0
note_on channel=0 note=76 velocity=73 time=0
note_on channel=0 note=76 velocity=0 time=120
note_on channel=0 note=84 velocity=70 time=0
note_on channel=0 note=84 velocity=0 time=120
note_on channel=0 note=64 velocity=77 time=0
<meta message set_tempo tempo=366681 time=120>
note_on channel=0 note=64 velocity=0 time=0
note_on channel=0 note=67 velocity=73 time=0
<meta message set_tempo tempo=329670 time=120>
note_on channel=0 note=67 velocity=0 time=0
note_on channel=0 note=53 velocity=83 time=0
control_change channel=0 control=64 value=0 time=17
control_change channel=0 control=64 value=127 time=98
note_on channel=0 note=80 velocity=69 time=5
note_on channel=0 note=80 velocity=0 time=120
note_on channel=0 note=53 velocity=0 time=0
note_on channel=0 note=77 velocity=73 time=0
note_on channel=0 note=77 velocity=0 time=120
note_on channel=0 note=85 velocity=72 time=0
note_on channel=0 note=85 velocity=0 time=120
note_on channel=0 note=65 velocity=77 time=0
<meta message set_tempo tempo=363108 time=120>
note_on channel=0 note=65 velocity=0 time=0
note_on channel=0 note=68 velocity=72 time=0
<meta message set_tempo tempo=329670 time=120>
note_on channel=0 note=68 velocity=0 time=0
note_on channel=0 note=55 velocity=84 time=0
control_change channel=0 control=64 value=0 time=15
note_on channel=0 note=82 velocity=74 time=105
control_change channel=0 control=64 value=127 time=12
note_on channel=0 note=82 velocity=0 time=108
note_on channel=0 note=55 velocity=0 time=0
note_on channel=0 note=79 velocity=78 time=0
note_on channel=0 note=79 velocity=0 time=120
note_on channel=0 note=88 velocity=74 time=0
note_on channel=0 note=88 velocity=0 time=120
note_on channel=0 note=67 velocity=78 time=0
<meta message set_tempo tempo=367895 time=120>
note_on channel=0 note=67 velocity=0 time=0
note_on channel=0 note=70 velocity=74 time=0
<meta message set_tempo tempo=330579 time=120>
note_on channel=0 note=70 velocity=0 time=0
note_on channel=0 note=56 velocity=85 time=0
control_change channel=0 control=64 value=0 time=17
control_change channel=0 control=64 value=127 time=92
note_on channel=0 note=84 velocity=75 time=11
note_on channel=0 note=84 velocity=0 time=120
note_on channel=0 note=56 velocity=0 time=0
note_on channel=0 note=80 velocity=77 time=0
note_on channel=0 note=80 velocity=0 time=120
note_on channel=0 note=89 velocity=75 time=0
note_on channel=0 note=89 velocity=0 time=120
note_on channel=0 note=68 velocity=77 time=0
<meta message set_tempo tempo=359281 time=120>
note_on channel=0 note=68 velocity=0 time=0
note_on channel=0 note=72 velocity=73 time=0
<meta message set_tempo tempo=330579 time=120>
note_on channel=0 note=72 velocity=0 time=0
note_on channel=0 note=58 velocity=86 time=0
control_change channel=0 control=64 value=0 time=9
control_change channel=0 control=64 value=127 time=83
note_on channel=0 note=85 velocity=78 time=28
note_on channel=0 note=85 velocity=0 time=120
note_on channel=0 note=58 velocity=0 time=0
note_on channel=0 note=82 velocity=79 time=0
note_on channel=0 note=82 velocity=0 time=120
note_on channel=0 note=91 velocity=74 time=0
note_on channel=0 note=91 velocity=0 time=120
note_on channel=0 note=70 velocity=81 time=0
<meta message set_tempo tempo=366681 time=120>
note_on channel=0 note=70 velocity=0 time=0
note_on channel=0 note=73 velocity=77 time=0
<meta message set_tempo tempo=330579 time=120>
note_on channel=0 note=73 velocity=0 time=0
note_on channel=0 note=60 velocity=89 time=0
control_change channel=0 control=64 value=0 time=19
control_change channel=0 control=64 value=127 time=96
note_on channel=0 note=87 velocity=74 time=5
note_on channel=0 note=87 velocity=0 time=120
note_on channel=0 note=60 velocity=0 time=0
note_on channel=0 note=84 velocity=79 time=0
note_on channel=0 note=84 velocity=0 time=120
note_on channel=0 note=93 velocity=74 time=0
note_on channel=0 note=93 velocity=0 time=120
note_on channel=0 note=72 velocity=80 time=0
<meta message set_tempo tempo=363108 time=120>
note_on channel=0 note=72 velocity=0 time=0
note_on channel=0 note=75 velocity=78 time=0
<meta message set_tempo tempo=330579 time=120>
note_on channel=0 note=75 velocity=0 time=0
note_on channel=0 note=61 velocity=89 time=0
control_change channel=0 control=64 value=0 time=16
note_on channel=0 note=89 velocity=79 time=104
control_change channel=0 control=64 value=127 time=6
note_on channel=0 note=89 velocity=0 time=114
note_on channel=0 note=61 velocity=0 time=0
note_on channel=0 note=85 velocity=80 time=0
note_on channel=0 note=85 velocity=0 time=120
note_on channel=0 note=94 velocity=79 time=0
note_on channel=0 note=94 velocity=0 time=120
note_on channel=0 note=73 velocity=83 time=0
<meta message set_tempo tempo=367895 time=120>
note_on channel=0 note=73 velocity=0 time=0
note_on channel=0 note=77 velocity=80 time=0
<meta message set_tempo tempo=335027 time=120>
note_on channel=0 note=77 velocity=0 time=0
note_on channel=0 note=61 velocity=92 time=0
control_change channel=0 control=64 value=0 time=16
<meta message set_tempo tempo=337098 time=24>
<meta message set_tempo tempo=339194 time=40>
<meta message set_tempo tempo=341297 time=40>
note_on channel=0 note=89 velocity=81 time=0
control_change channel=0 control=64 value=127 time=6
<meta message set_tempo tempo=343446 time=34>
<meta message set_tempo tempo=345622 time=40>
<meta message set_tempo tempo=347826 time=40>
note_on channel=0 note=89 velocity=0 time=0
note_on channel=0 note=61 velocity=0 time=0
note_on channel=0 note=85 velocity=83 time=0
<meta message set_tempo tempo=351165 time=40>
<meta message set_tempo tempo=353419 time=40>
<meta message set_tempo tempo=355703 time=40>
note_on channel=0 note=85 velocity=0 time=0
note_on channel=0 note=94 velocity=80 time=0
<meta message set_tempo tempo=358017 time=40>
<meta message set_tempo tempo=360382 time=40>
<meta message set_tempo tempo=362779 time=40>
note_on channel=0 note=94 velocity=0 time=0
note_on channel=0 note=73 velocity=84 time=0
<meta message set_tempo tempo=365208 time=40>
<meta message set_tempo tempo=368890 time=40>
<meta message set_tempo tempo=463320 time=40>
note_on channel=0 note=73 velocity=0 time=0
note_on channel=0 note=77 velocity=80 time=0
<meta message set_tempo tempo=346821 time=80>
note_on channel=0 note=77 velocity=0 time=40
note_on channel=0 note=41 velocity=108 time=0
control_change channel=0 control=64 value=0 time=14
<meta message set_tempo tempo=345821 time=26>
<meta message set_tempo tempo=344828 time=80>
note_on channel=0 note=41 velocity=0 time=0
note_on channel=0 note=53 velocity=100 time=0
control_change channel=0 control=64 value=127 time=50
<meta message set_tempo tempo=343840 time=30>
note_on channel=0 note=53 velocity=0 time=40
note_on channel=0 note=56 velocity=92 time=0
<meta message set_tempo tempo=342857 time=40>
<meta message set_tempo tempo=341880 time=40>
note_on channel=0 note=56 velocity=0 time=40
note_on channel=0 note=89 velocity=78 time=0
<meta message set_tempo tempo=340909 time=40>
<meta message set_tempo tempo=339943 time=80>
note_on channel=0 note=89 velocity=0 time=0
note_on channel=0 note=85 velocity=82 time=0
<meta message set_tempo tempo=338983 time=80>
<meta message set_tempo tempo=338028 time=40>
note_on channel=0 note=85 velocity=0 time=0
note_on channel=0 note=94 velocity=79 time=0
<meta message set_tempo tempo=337079 time=80>
note_on channel=0 note=94 velocity=0 time=40
note_on channel=0 note=89 velocity=89 time=0
<meta message set_tempo tempo=336134 time=40>
<meta message set_tempo tempo=335196 time=80>
note_on channel=0 note=89 velocity=0 time=0
note_on channel=0 note=85 velocity=83 time=0
<meta message set_tempo tempo=334262 time=40>
<meta message set_tempo tempo=333333 time=80>
note_on channel=0 note=85 velocity=0 time=0
note_on channel=0 note=82 velocity=78 time=0
<meta message set_tempo tempo=332410 time=80>
note_on channel=0 note=82 velocity=0 time=40
note_on channel=0 note=77 velocity=78 time=0
<meta message set_tempo tempo=331492 time=40>
note_on channel=0 note=77 velocity=0 time=80
note_on channel=0 note=73 velocity=82 time=0
note_on channel=0 note=73 velocity=0 time=120
note_on channel=0 note=82 velocity=79 time=0
note_on channel=0 note=82 velocity=0 time=120
note_on channel=0 note=77 velocity=86 time=0
note_on channel=0 note=77 velocity=0 time=120
note_on channel=0 note=73 velocity=82 time=0
note_on channel=0 note=73 velocity=0 time=120
note_on channel=0 note=70 velocity=80 time=0
note_on channel=0 note=70 velocity=0 time=120
note_on channel=0 note=65 velocity=74 time=0
note_on channel=0 note=65 velocity=0 time=120
note_on channel=0 note=61 velocity=78 time=0
note_on channel=0 note=61 velocity=0 time=120
note_on channel=0 note=70 velocity=73 time=0
<meta message set_tempo tempo=335196 time=120>
note_on channel=0 note=70 velocity=0 time=0
note_on channel=0 note=65 velocity=81 time=0
note_on channel=0 note=65 velocity=0 time=120
note_on channel=0 note=61 velocity=78 time=0
<meta message set_tempo tempo=336134 time=120>
note_on channel=0 note=61 velocity=0 time=0
note_on channel=0 note=58 velocity=74 time=0
note_on channel=0 note=58 velocity=0 time=120
note_on channel=0 note=53 velocity=74 time=0
<meta message set_tempo tempo=337079 time=120>
note_on channel=0 note=53 velocity=0 time=0
note_on channel=0 note=49 velocity=74 time=0
note_on channel=0 note=49 velocity=0 time=120
note_on channel=0 note=58 velocity=74 time=0
<meta message set_tempo tempo=338028 time=120>
note_on channel=0 note=58 velocity=0 time=0
note_on channel=0 note=53 velocity=79 time=0
note_on channel=0 note=53 velocity=0 time=120
note_on channel=0 note=49 velocity=71 time=0
<meta message set_tempo tempo=337079 time=80>
note_on channel=0 note=49 velocity=0 time=40
note_on channel=0 note=46 velocity=74 time=0
<meta message set_tempo tempo=336134 time=120>
note_on channel=0 note=46 velocity=0 time=0
note_on channel=0 note=49 velocity=71 time=0
note_on channel=0 note=49 velocity=0 time=120
note_on channel=0 note=53 velocity=74 time=0
<meta message set_tempo tempo=335196 time=40>
note_on channel=0 note=53 velocity=0 time=80
note_on channel=0 note=58 velocity=72 time=0
<meta message set_tempo tempo=334262 time=80>
note_on channel=0 note=58 velocity=0 time=40
note_on channel=0 note=61 velocity=80 time=0
<meta message set_tempo tempo=333333 time=120>
note_on channel=0 note=61 velocity=0 time=0
note_on channel=0 note=65 velocity=75 time=0
note_on channel=0 note=65 velocity=0 time=120
note_on channel=0 note=70 velocity=75 time=0
<meta message set_tempo tempo=332410 time=40>
note_on channel=0 note=70 velocity=0 time=80
note_on channel=0 note=73 velocity=75 time=0
<meta message set_tempo tempo=335196 time=120>
note_on channel=0 note=73 velocity=0 time=0
note_on channel=0 note=77 velocity=79 time=0
note_on channel=0 note=77 velocity=0 time=120
note_on channel=0 note=73 velocity=73 time=0
<meta message set_tempo tempo=336134 time=120>
note_on channel=0 note=73 velocity=0 time=0
note_on channel=0 note=70 velocity=80 time=0
note_on channel=0 note=70 velocity=0 time=120
note_on channel=0 note=73 velocity=74 time=0
<meta message set_tempo tempo=337079 time=80>
note_on channel=0 note=73 velocity=0 time=40
note_on channel=0 note=77 velocity=79 time=0
note_on channel=0 note=77 velocity=0 time=120
note_on channel=0 note=82 velocity=74 time=0
<meta message set_tempo tempo=338028 time=40>
note_on channel=0 note=82 velocity=0 time=80
note_on channel=0 note=85 velocity=82 time=0
note_on channel=0 note=85 velocity=0 time=120
note_on channel=0 note=82 velocity=75 time=0
<meta message set_tempo tempo=338983 time=40>
<meta message set_tempo tempo=338028 time=60>
note_on channel=0 note=82 velocity=0 time=20
note_on channel=0 note=89 velocity=83 time=0
<meta message set_tempo tempo=338983 time=20>
<meta message set_tempo tempo=339943 time=20>
<meta message set_tempo tempo=340909 time=40>
<meta message set_tempo tempo=341880 time=20>
note_on channel=0 note=89 velocity=0 time=20
note_on channel=0 note=85 velocity=78 time=0
<meta message set_tempo tempo=342857 time=20>
<meta message set_tempo tempo=343840 time=20>
<meta message set_tempo tempo=344828 time=40>
<meta message set_tempo tempo=345821 time=20>
note_on channel=0 note=85 velocity=0 time=20
note_on channel=0 note=94 velocity=83 time=0
<meta message set_tempo tempo=346821 time=20>
<meta message set_tempo tempo=347826 time=20>
<meta message set_tempo tempo=348837 time=20>
<meta message set_tempo tempo=349854 time=40>
<meta message set_tempo tempo=350877 time=20>
note_on channel=0 note=94 velocity=0 time=0
note_on channel=0 note=89 velocity=78 time=0
<meta message set_tempo tempo=351906 time=40>
<meta message set_tempo tempo=352941 time=20>
<meta message set_tempo tempo=353982 time=40>
<meta message set_tempo tempo=355030 time=20>
note_on channel=0 note=89 velocity=0 time=0
note_on channel=0 note=85 velocity=80 time=0
<meta message set_tempo tempo=356083 time=40>
<meta message set_tempo tempo=357143 time=20>
<meta message set_tempo tempo=358209 time=20>
<meta message set_tempo tempo=461538 time=40>
note_on channel=0 note=85 velocity=0 time=0
note_on channel=0 note=82 velocity=75 time=0
<meta message set_tempo tempo=346821 time=120>
note_on channel=0 note=82 velocity=0 time=0
note_on channel=0 note=62 velocity=105 time=0
control_change channel=0 control=64 value=0 time=8
<meta message set_tempo tempo=344828 time=32>
control_change channel=0 control=64 value=127 time=40
<meta message set_tempo tempo=343840 time=40>
note_on channel=0 note=62 velocity=0 time=0
note_on channel=0 note=74 velocity=100 time=0
<meta message set_tempo tempo=342857 time=80>
note_on channel=0 note=74 velocity=0 time=40
note_on channel=0 note=77 velocity=92 time=0
<meta message set_tempo tempo=341880 time=40>
<meta message set_tempo tempo=340909 time=80>
note_on channel=0 note=77 velocity=0 time=0
note_on channel=0 note=92 velocity=78 time=0
<meta message set_tempo tempo=339943 time=80>
note_on channel=0 note=92 velocity=0 time=40
note_on channel=0 note=89 velocity=85 time=0
<meta message set_tempo tempo=338983 time=40>
<meta message set_tempo tempo=338028 time=80>
note_on channel=0 note=89 velocity=0 time=0
note_on channel=0 note=95 velocity=81 time=0
<meta message set_tempo tempo=337079 time=80>
note_on channel=0 note=95 velocity=0 time=40
note_on channel=0 note=92 velocity=92 time=0
<meta message set_tempo tempo=336134 time=40>
<meta message set_tempo tempo=335196 time=80>
note_on channel=0 note=92 velocity=0 time=0
note_on channel=0 note=89 velocity=80 time=0
<meta message set_tempo tempo=334262 time=80>
note_on channel=0 note=89 velocity=0 time=40
note_on channel=0 note=86 velocity=81 time=0
<meta message set_tempo tempo=333333 time=40>
<meta message set_tempo tempo=332410 time=80>
note_on channel=0 note=86 velocity=0 time=0
note_on channel=0 note=83 velocity=77 time=0
<meta message set_tempo tempo=331492 time=80>
note_on channel=0 note=83 velocity=0 time=40
note_on channel=0 note=80 velocity=81 time=0
<meta message set_tempo tempo=330579 time=40>
note_on channel=0 note=80 velocity=0 time=80
note_on channel=0 note=77 velocity=79 time=0
note_on channel=0 note=77 velocity=0 time=120
note_on channel=0 note=83 velocity=85 time=0
note_on channel=0 note=83 velocity=0 time=120
note_on channel=0 note=80 velocity=82 time=0
note_on channel=0 note=80 velocity=0 time=120
note_on channel=0 note=77 velocity=78 time=0
note_on channel=0 note=77 velocity=0 time=120
note_on channel=0 note=74 velocity=74 time=0
<meta message set_tempo tempo=329670 time=80>
note_on channel=0 note=74 velocity=0 time=40
note_on channel=0 note=71 velocity=75 time=0
note_on channel=0 note=71 velocity=0 time=120
note_on channel=0 note=68 velocity=73 time=0
<meta message set_tempo tempo=330579 time=40>
note_on channel=0 note=68 velocity=0 time=80
note_on channel=0 note=74 velocity=81 time=0
<meta message set_tempo tempo=331492 time=120>
note_on channel=0 note=74 velocity=0 time=0
note_on channel=0 note=71 velocity=78 time=0
note_on channel=0 note=71 velocity=0 time=120
note_on channel=0 note=68 velocity=74 time=0
<meta message set_tempo tempo=332410 time=80>
note_on channel=0 note=68 velocity=0 time=40
note_on channel=0 note=65 velocity=74 time=0
note_on channel=0 note=65 velocity=0 time=120
note_on channel=0 note=62 velocity=74 time=0
<meta message set_tempo tempo=333333 time=40>
note_on channel=0 note=62 velocity=0 time=80
note_on channel=0 note=59 velocity=74 time=0
<meta message set_tempo tempo=336134 time=80>
note_on channel=0 note=59 velocity=0 time=40
note_on channel=0 note=68 velocity=79 time=0
<meta message set_tempo tempo=335196 time=120>
note_on channel=0 note=68 velocity=0 time=0
note_on channel=0 note=65 velocity=71 time=0
<meta message set_tempo tempo=334262 time=120>
note_on channel=0 note=65 velocity=0 time=0
note_on channel=0 note=62 velocity=74 time=0
<meta message set_tempo tempo=333333 time=120>
note_on channel=0 note=62 velocity=0 time=0
note_on channel=0 note=59 velocity=71 time=0
<meta message set_tempo tempo=332410 time=120>
note_on channel=0 note=59 velocity=0 time=0
note_on channel=0 note=56 velocity=74 time=0
<meta message set_tempo tempo=331492 time=120>
note_on channel=0 note=56 velocity=0 time=0
note_on channel=0 note=53 velocity=72 time=0
<meta message set_tempo tempo=330579 time=120>
note_on channel=0 note=53 velocity=0 time=0
note_on channel=0 note=50 velocity=80 time=0
<meta message set_tempo tempo=329670 time=120>
note_on channel=0 note=50 velocity=0 time=0
note_on channel=0 note=47 velocity=75 time=0
<meta message set_tempo tempo=328767 time=120>
note_on channel=0 note=47 velocity=0 time=0
note_on channel=0 note=50 velocity=75 time=0
<meta message set_tempo tempo=328767 time=120>
note_on channel=0 note=50 velocity=0 time=0
note_on channel=0 note=53 velocity=75 time=0
<meta message set_tempo tempo=329670 time=120>
note_on channel=0 note=53 velocity=0 time=0
note_on channel=0 note=56 velocity=79 time=0
<meta message set_tempo tempo=330579 time=80>
note_on channel=0 note=56 velocity=0 time=40
note_on channel=0 note=59 velocity=73 time=0
<meta message set_tempo tempo=331492 time=80>
note_on channel=0 note=59 velocity=0 time=40
note_on channel=0 note=62 velocity=80 time=0
<meta message set_tempo tempo=332410 time=40>
<meta message set_tempo tempo=333333 time=80>
note_on channel=0 note=62 velocity=0 time=0
note_on channel=0 note=65 velocity=74 time=0
<meta message set_tempo tempo=334262 time=120>
note_on channel=0 note=65 velocity=0 time=0
note_on channel=0 note=68 velocity=79 time=0
<meta message set_tempo tempo=335196 time=80>
note_on channel=0 note=68 velocity=0 time=40
note_on channel=0 note=71 velocity=74 time=0
<meta message set_tempo tempo=336134 time=40>
<meta message set_tempo tempo=337079 time=80>
note_on channel=0 note=71 velocity=0 time=0
note_on channel=0 note=74 velocity=82 time=0
<meta message set_tempo tempo=338028 time=40>
<meta message set_tempo tempo=339943 time=40>
<meta message set_tempo tempo=340909 time=40>
note_on channel=0 note=74 velocity=0 time=0
note_on channel=0 note=77 velocity=75 time=0
<meta message set_tempo tempo=342857 time=40>
<meta message set_tempo tempo=343840 time=40>
<meta message set_tempo tempo=345821 time=40>
note_on channel=0 note=77 velocity=0 time=0
note_on channel=0 note=80 velocity=83 time=0
<meta message set_tempo tempo=347826 time=40>
<meta message set_tempo tempo=348837 time=40>
<meta message set_tempo tempo=350877 time=40>
note_on channel=0 note=80 velocity=0 time=0
note_on channel=0 note=83 velocity=78 time=0
<meta message set_tempo tempo=351906 time=40>
<meta message set_tempo tempo=353982 time=40>
<meta message set_tempo tempo=355030 time=40>
note_on channel=0 note=83 velocity=0 time=0
note_on channel=0 note=86 velocity=83 time=0
<meta message set_tempo tempo=357143 time=40>
<meta message set_tempo tempo=359281 time=40>
<meta message set_tempo tempo=360360 time=40>
note_on channel=0 note=86 velocity=0 time=0
note_on channel=0 note=89 velocity=78 time=0
<meta message set_tempo tempo=362538 time=40>
<meta message set_tempo tempo=363636 time=40>
<meta message set_tempo tempo=365854 time=40>
note_on channel=0 note=89 velocity=0 time=0
note_on channel=0 note=92 velocity=80 time=0
<meta message set_tempo tempo=368098 time=40>
<meta message set_tempo tempo=930377 time=80>
note_on channel=0 note=92 velocity=0 time=0
note_on channel=0 note=95 velocity=75 time=0
<meta message set_tempo tempo=424028 time=120>
note_on channel=0 note=95 velocity=0 time=0
note_on channel=0 note=36 velocity=125 time=0
control_change channel=0 control=64 value=0 time=14
control_change channel=0 control=64 value=127 time=99
<meta message set_tempo tempo=480038 time=127>
note_on channel=0 note=36 velocity=0 time=0
note_on channel=0 note=92 velocity=78 time=120
<meta message set_tempo tempo=574218 time=120>
note_on channel=0 note=92 velocity=0 time=0
note_on channel=0 note=89 velocity=82 time=0
note_on channel=0 note=89 velocity=0 time=120
note_on channel=0 note=96 velocity=79 time=0
<meta message set_tempo tempo=389636 time=36>
<meta message set_tempo tempo=384640 time=19>
<meta message set_tempo tempo=373855 time=38>
<meta message set_tempo tempo=369253 time=20>
<meta message set_tempo tempo=379771 time=7>
note_on channel=0 note=96 velocity=0 time=0
note_on channel=0 note=92 velocity=92 time=0
<meta message set_tempo tempo=363658 time=12>
<meta message set_tempo tempo=359303 time=19>
<meta message set_tempo tempo=355051 time=19>
<meta message set_tempo tempo=349875 time=19>
note_on channel=0 note=92 velocity=0 time=51
note_on channel=0 note=89 velocity=83 time=0
<meta message set_tempo tempo=351906 time=40>
<meta message set_tempo tempo=350877 time=80>
note_on channel=0 note=89 velocity=0 time=0
note_on channel=0 note=84 velocity=82 time=0
<meta message set_tempo tempo=349854 time=80>
note_on channel=0 note=84 velocity=0 time=40
note_on channel=0 note=80 velocity=78 time=0
<meta message set_tempo tempo=348837 time=40>
<meta message set_tempo tempo=347826 time=80>
note_on channel=0 note=80 velocity=0 time=0
note_on channel=0 note=77 velocity=82 time=0
<meta message set_tempo tempo=346821 time=80>
note_on channel=0 note=77 velocity=0 time=40
note_on channel=0 note=84 velocity=79 time=0
<meta message set_tempo tempo=345821 time=40>
<meta message set_tempo tempo=344828 time=80>
note_on channel=0 note=84 velocity=0 time=0
note_on channel=0 note=80 velocity=86 time=0
<meta message set_tempo tempo=343840 time=80>
note_on channel=0 note=80 velocity=0 time=40
note_on channel=0 note=77 velocity=82 time=0
<meta message set_tempo tempo=342857 time=40>
note_on channel=0 note=77 velocity=0 time=80
note_on channel=0 note=72 velocity=80 time=0
<meta message set_tempo tempo=341880 time=40>
<meta message set_tempo tempo=340909 time=80>
note_on channel=0 note=72 velocity=0 time=0
note_on channel=0 note=68 velocity=74 time=0
<meta message set_tempo tempo=339943 time=80>
note_on channel=0 note=68 velocity=0 time=40
note_on channel=0 note=65 velocity=78 time=0
<meta message set_tempo tempo=338983 time=40>
<meta message set_tempo tempo=338028 time=80>
note_on channel=0 note=65 velocity=0 time=0
note_on channel=0 note=72 velocity=73 time=0
<meta message set_tempo tempo=337079 time=80>
note_on channel=0 note=72 velocity=0 time=40
note_on channel=0 note=68 velocity=81 time=0
<meta message set_tempo tempo=336134 time=40>
<meta message set_tempo tempo=335196 time=80>
note_on channel=0 note=68 velocity=0 time=0
note_on channel=0 note=65 velocity=78 time=0
<meta message set_tempo tempo=334262 time=80>
note_on channel=0 note=65 velocity=0 time=40
note_on channel=0 note=60 velocity=74 time=0
<meta message set_tempo tempo=333333 time=40>
note_on channel=0 note=60 velocity=0 time=80
note_on channel=0 note=56 velocity=74 time=0
<meta message set_tempo tempo=337079 time=120>
note_on channel=0 note=56 velocity=0 time=0
note_on channel=0 note=53 velocity=74 time=0
note_on channel=0 note=53 velocity=0 time=120
note_on channel=0 note=60 velocity=74 time=0
<meta message set_tempo tempo=338028 time=120>
note_on channel=0 note=60 velocity=0 time=0
note_on channel=0 note=56 velocity=79 time=0
note_on channel=0 note=56 velocity=0 time=120
note_on channel=0 note=53 velocity=71 time=0
<meta message set_tempo tempo=337079 time=80>
note_on channel=0 note=53 velocity=0 time=40
note_on channel=0 note=48 velocity=74 time=0
<meta message set_tempo tempo=336134 time=120>
note_on channel=0 note=48 velocity=0 time=0
note_on channel=0 note=44 velocity=71 time=0
note_on channel=0 note=44 velocity=0 time=120
note_on channel=0 note=41 velocity=74 time=0
<meta message set_tempo tempo=335196 time=40>
note_on channel=0 note=41 velocity=0 time=80
note_on channel=0 note=36 velocity=72 time=0
<meta message set_tempo tempo=334262 time=80>
note_on channel=0 note=36 velocity=0 time=40
note_on channel=0 note=41 velocity=80 time=0
<meta message set_tempo tempo=333333 time=120>
note_on channel=0 note=41 velocity=0 time=0
note_on channel=0 note=44 velocity=75 time=0
note_on channel=0 note=44 velocity=0 time=120
note_on channel=0 note=48 velocity=75 time=0
<meta message set_tempo tempo=332410 time=40>
note_on channel=0 note=48 velocity=0 time=80
note_on channel=0 note=53 velocity=75 time=0
<meta message set_tempo tempo=335196 time=120>
note_on channel=0 note=53 velocity=0 time=0
note_on channel=0 note=56 velocity=79 time=0
note_on channel=0 note=56 velocity=0 time=120
note_on channel=0 note=60 velocity=73 time=0
<meta message set_tempo tempo=336134 time=120>
note_on channel=0 note=60 velocity=0 time=0
note_on channel=0 note=65 velocity=80 time=0
note_on channel=0 note=65 velocity=0 time=120
note_on channel=0 note=68 velocity=74 time=0
<meta message set_tempo tempo=337079 time=80>
note_on channel=0 note=68 velocity=0 time=40
note_on channel=0 note=72 velocity=79 time=0
note_on channel=0 note=72 velocity=0 time=120
note_on channel=0 note=77 velocity=74 time=0
<meta message set_tempo tempo=338028 time=40>
note_on channel=0 note=77 velocity=0 time=80
note_on channel=0 note=80 velocity=78 time=0
note_on channel=0 note=80 velocity=0 time=120
note_on channel=0 note=84 velocity=75 time=0
<meta message set_tempo tempo=338983 time=40>
<meta message set_tempo tempo=338028 time=60>
note_on channel=0 note=84 velocity=0 time=20
note_on channel=0 note=89 velocity=83 time=0
<meta message set_tempo tempo=338983 time=20>
<meta message set_tempo tempo=339943 time=20>
<meta message set_tempo tempo=340909 time=40>
<meta message set_tempo tempo=341880 time=20>
note_on channel=0 note=89 velocity=0 time=20
note_on channel=0 note=92 velocity=78 time=0
<meta message set_tempo tempo=342857 time=20>
<meta message set_tempo tempo=343840 time=20>
<meta message set_tempo tempo=344828 time=40>
<meta message set_tempo tempo=345821 time=20>
note_on channel=0 note=92 velocity=0 time=20
note_on channel=0 note=96 velocity=83 time=0
<meta message set_tempo tempo=346821 time=20>
<meta message set_tempo tempo=347826 time=20>
<meta message set_tempo tempo=348837 time=20>
<meta message set_tempo tempo=349854 time=40>
<meta message set_tempo tempo=350877 time=20>
note_on channel=0 note=96 velocity=0 time=0
note_on channel=0 note=92 velocity=78 time=0
<meta message set_tempo tempo=351906 time=40>
<meta message set_tempo tempo=352941 time=20>
<meta message set_tempo tempo=353982 time=40>
<meta message set_tempo tempo=355030 time=20>
note_on channel=0 note=92 velocity=0 time=0
note_on channel=0 note=89 velocity=80 time=0
<meta message set_tempo tempo=356083 time=40>
note_on channel=0 note=89 velocity=0 time=80
note_on channel=0 note=84 velocity=75 time=0
<meta message set_tempo tempo=346821 time=120>
note_on channel=0 note=84 velocity=0 time=0
note_on channel=0 note=36 velocity=82 time=0
control_change channel=0 control=64 value=0 time=11
control_change channel=0 control=64 value=127 time=75
<meta message set_tempo tempo=345821 time=34>
note_on channel=0 note=36 velocity=0 time=0
note_on channel=0 note=48 velocity=72 time=0
<meta message set_tempo tempo=344828 time=80>
note_on channel=0 note=48 velocity=0 time=40
note_on channel=0 note=52 velocity=73 time=0
<meta message set_tempo tempo=343840 time=40>
<meta message set_tempo tempo=342857 time=80>
note_on channel=0 note=52 velocity=0 time=0
note_on channel=0 note=91 velocity=72 time=0
note_on channel=0 note=55 velocity=74 time=0
<meta message set_tempo tempo=341880 time=80>
note_on channel=0 note=55 velocity=0 time=40
note_on channel=0 note=91 velocity=0 time=0
note_on channel=0 note=88 velocity=77 time=0
note_on channel=0 note=58 velocity=74 time=0
<meta message set_tempo tempo=340909 time=40>
<meta message set_tempo tempo=339943 time=80>
note_on channel=0 note=88 velocity=0 time=0
note_on channel=0 note=94 velocity=73 time=0
<meta message set_tempo tempo=338983 time=120>
note_on channel=0 note=94 velocity=0 time=0
note_on channel=0 note=58 velocity=0 time=0
note_on channel=0 note=91 velocity=78 time=0
<meta message set_tempo tempo=338028 time=80>
note_on channel=0 note=91 velocity=0 time=40
note_on channel=0 note=88 velocity=77 time=0
<meta message set_tempo tempo=337079 time=40>
<meta message set_tempo tempo=336134 time=80>
note_on channel=0 note=88 velocity=0 time=0
note_on channel=0 note=84 velocity=74 time=0
<meta message set_tempo tempo=335196 time=80>
note_on channel=0 note=84 velocity=0 time=40
note_on channel=0 note=82 velocity=72 time=0
<meta message set_tempo tempo=334262 time=40>
<meta message set_tempo tempo=333333 time=80>
note_on channel=0 note=82 velocity=0 time=0
note_on channel=0 note=79 velocity=77 time=0
<meta message set_tempo tempo=334262 time=40>
note_on channel=0 note=79 velocity=0 time=80
note_on channel=0 note=76 velocity=73 time=0
note_on channel=0 note=76 velocity=0 time=120
note_on channel=0 note=72 velocity=78 time=0
note_on channel=0 note=72 velocity=0 time=120
note_on channel=0 note=70 velocity=75 time=0
note_on channel=0 note=70 velocity=0 time=120
note_on channel=0 note=67 velocity=71 time=0
note_on channel=0 note=67 velocity=0 time=120
note_on channel=0 note=64 velocity=70 time=0
<meta message set_tempo tempo=334262 time=120>
note_on channel=0 note=64 velocity=0 time=0
note_on channel=0 note=60 velocity=73 time=0
note_on channel=0 note=60 velocity=0 time=120
note_on channel=0 note=58 velocity=69 time=0
<meta message set_tempo tempo=335196 time=120>
note_on channel=0 note=58 velocity=0 time=0
note_on channel=0 note=55 velocity=74 time=0
note_on channel=0 note=55 velocity=0 time=120
note_on channel=0 note=52 velocity=69 time=0
<meta message set_tempo tempo=336134 time=120>
note_on channel=0 note=52 velocity=0 time=0
note_on channel=0 note=48 velocity=71 time=0
note_on channel=0 note=48 velocity=0 time=120
note_on channel=0 note=46 velocity=70 time=0
<meta message set_tempo tempo=337079 time=120>
note_on channel=0 note=46 velocity=0 time=0
note_on channel=0 note=43 velocity=70 time=0
note_on channel=0 note=43 velocity=0 time=120
note_on channel=0 note=40 velocity=70 time=0
<meta message set_tempo tempo=338028 time=120>
note_on channel=0 note=40 velocity=0 time=0
note_on channel=0 note=36 velocity=75 time=0
note_on channel=0 note=36 velocity=0 time=120
note_on channel=0 note=40 velocity=67 time=0
<meta message set_tempo tempo=337079 time=80>
note_on channel=0 note=40 velocity=0 time=40
note_on channel=0 note=43 velocity=70 time=0
<meta message set_tempo tempo=336134 time=120>
note_on channel=0 note=43 velocity=0 time=0
note_on channel=0 note=46 velocity=67 time=0
note_on channel=0 note=46 velocity=0 time=120
note_on channel=0 note=48 velocity=70 time=0
<meta message set_tempo tempo=335196 time=40>
note_on channel=0 note=48 velocity=0 time=80
note_on channel=0 note=52 velocity=68 time=0
<meta message set_tempo tempo=334262 time=80>
note_on channel=0 note=52 velocity=0 time=40
note_on channel=0 note=55 velocity=76 time=0
<meta message set_tempo tempo=333333 time=120>
note_on channel=0 note=55 velocity=0 time=0
note_on channel=0 note=58 velocity=71 time=0
note_on channel=0 note=58 velocity=0 time=120
note_on channel=0 note=60 velocity=71 time=0
<meta message set_tempo tempo=332410 time=40>
note_on channel=0 note=60 velocity=0 time=80
note_on channel=0 note=64 velocity=71 time=0
<meta message set_tempo tempo=335196 time=120>
note_on channel=0 note=64 velocity=0 time=0
note_on channel=0 note=67 velocity=73 time=0
note_on channel=0 note=67 velocity=0 time=120
note_on channel=0 note=70 velocity=69 time=0
<meta message set_tempo tempo=336134 time=120>
note_on channel=0 note=70 velocity=0 time=0
note_on channel=0 note=72 velocity=73 time=0
note_on channel=0 note=72 velocity=0 time=120
note_on channel=0 note=76 velocity=66 time=0
<meta message set_tempo tempo=337079 time=80>
note_on channel=0 note=76 velocity=0 time=40
note_on channel=0 note=79 velocity=70 time=0
note_on channel=0 note=79 velocity=0 time=120
note_on channel=0 note=76 velocity=66 time=0
<meta message set_tempo tempo=338028 time=40>
<meta message set_tempo tempo=338028 time=60>
note_on channel=0 note=76 velocity=0 time=20
note_on channel=0 note=72 velocity=70 time=0
<meta message set_tempo tempo=338983 time=20>
<meta message set_tempo tempo=339943 time=20>
<meta message set_tempo tempo=340909 time=40>
<meta message set_tempo tempo=341880 time=20>
note_on channel=0 note=72 velocity=0 time=20
note_on channel=0 note=76 velocity=66 time=0
<meta message set_tempo tempo=342857 time=20>
<meta message set_tempo tempo=343840 time=20>
<meta message set_tempo tempo=344828 time=40>
<meta message set_tempo tempo=345821 time=20>
note_on channel=0 note=76 velocity=0 time=20
note_on channel=0 note=79 velocity=70 time=0
<meta message set_tempo tempo=346821 time=20>
<meta message set_tempo tempo=347826 time=20>
<meta message set_tempo tempo=348837 time=40>
<meta message set_tempo tempo=349854 time=20>
note_on channel=0 note=79 velocity=0 time=20
note_on channel=0 note=76 velocity=60 time=0
<meta message set_tempo tempo=350877 time=20>
<meta message set_tempo tempo=351906 time=20>
<meta message set_tempo tempo=352941 time=40>
<meta message set_tempo tempo=353982 time=20>
note_on channel=0 note=76 velocity=0 time=20
note_on channel=0 note=82 velocity=65 time=0
<meta message set_tempo tempo=355030 time=20>
<meta message set_tempo tempo=356083 time=20>
<meta message set_tempo tempo=357143 time=40>
<meta message set_tempo tempo=358209 time=20>
note_on channel=0 note=82 velocity=0 time=20
note_on channel=0 note=79 velocity=58 time=0
<meta message set_tempo tempo=359281 time=20>
<meta message set_tempo tempo=360360 time=20>
<meta message set_tempo tempo=361446 time=40>
<meta message set_tempo tempo=362538 time=20>
note_on channel=0 note=79 velocity=0 time=20
note_on channel=0 note=76 velocity=63 time=0
<meta message set_tempo tempo=363636 time=20>
<meta message set_tempo tempo=364742 time=20>
<meta message set_tempo tempo=365854 time=40>
<meta message set_tempo tempo=366972 time=20>
<meta message set_tempo tempo=461538 time=20>
note_on channel=0 note=76 velocity=0 time=0
note_on channel=0 note=79 velocity=56 time=0
<meta message set_tempo tempo=429892 time=120>
note_on channel=0 note=79 velocity=0 time=0
note_on channel=0 note=82 velocity=57 time=0
control_change channel=0 control=64 value=0 time=13
control_change channel=0 control=64 value=127 time=273
note_on channel=0 note=82 velocity=0 time=194
<meta message set_tempo tempo=567805 time=240>
note_on channel=0 note=49 velocity=37 time=0
<meta message set_tempo tempo=582355 time=240>
note_on channel=0 note=49 velocity=0 time=0
note_on channel=0 note=49 velocity=35 time=0
<meta message set_tempo tempo=603015 time=240>
note_on channel=0 note=49 velocity=0 time=0
note_on channel=0 note=49 velocity=35 time=0
<meta message set_tempo tempo=424538 time=240>
note_on channel=0 note=49 velocity=0 time=0
note_on channel=0 note=48 velocity=36 time=0
control_change channel=0 control=64 value=0 time=12
control_change channel=0 control=64 value=127 time=194
note_on channel=0 note=48 velocity=0 time=274
<meta message set_tempo tempo=567805 time=240>
note_on channel=0 note=79 velocity=46 time=0
note_on channel=0 note=76 velocity=46 time=0
note_on channel=0 note=76 velocity=0 time=240
note_on channel=0 note=79 velocity=0 time=0
note_on channel=0 note=76 velocity=42 time=0
note_on channel=0 note=79 velocity=42 time=0
<meta message set_tempo tempo=603743 time=240>
note_on channel=0 note=79 velocity=0 time=0
note_on channel=0 note=76 velocity=0 time=0
note_on channel=0 note=76 velocity=46 time=0
note_on channel=0 note=79 velocity=46 time=0
<meta message set_tempo tempo=448263 time=240>
note_on channel=0 note=79 velocity=0 time=0
note_on channel=0 note=76 velocity=0 time=0
note_on channel=0 note=82 velocity=46 time=0
note_on channel=0 note=79 velocity=46 time=0
control_change channel=0 control=64 value=0 time=12
control_change channel=0 control=64 value=127 time=160
note_on channel=0 note=79 velocity=0 time=308
note_on channel=0 note=82 velocity=0 time=0
<meta message set_tempo tempo=570180 time=240>
note_on channel=0 note=49 velocity=35 time=0
<meta message set_tempo tempo=584852 time=240>
note_on channel=0 note=49 velocity=0 time=0
note_on channel=0 note=49 velocity=33 time=0
<meta message set_tempo tempo=608396 time=240>
note_on channel=0 note=49 velocity=0 time=0
note_on channel=0 note=49 velocity=33 time=0
<meta message set_tempo tempo=473186 time=240>
note_on channel=0 note=49 velocity=0 time=0
note_on channel=0 note=48 velocity=34 time=0
control_change channel=0 control=64 value=0 time=13
control_change channel=0 control=64 value=127 time=170
note_on channel=0 note=48 velocity=0 time=297
<meta message set_tempo tempo=600360 time=240>
note_on channel=0 note=64 velocity=39 time=0
note_on channel=0 note=67 velocity=39 time=0
note_on channel=0 note=67 velocity=0 time=240
note_on channel=0 note=64 velocity=0 time=0
note_on channel=0 note=64 velocity=37 time=0
note_on channel=0 note=67 velocity=37 time=0
<meta message set_tempo tempo=622278 time=240>
note_on channel=0 note=67 velocity=0 time=0
note_on channel=0 note=64 velocity=0 time=0
note_on channel=0 note=67 velocity=37 time=0
note_on channel=0 note=64 velocity=37 time=0
<meta message set_tempo tempo=587372 time=240>
note_on channel=0 note=64 velocity=0 time=0
note_on channel=0 note=67 velocity=0 time=0
note_on channel=0 note=67 velocity=41 time=0
note_on channel=0 note=70 velocity=41 time=0
control_change channel=0 control=64 value=0 time=19
control_change channel=0 control=64 value=127 time=235
note_on channel=0 note=70 velocity=0 time=226
note_on channel=0 note=67 velocity=0 time=0
<meta message set_tempo tempo=681354 time=200>
note_on channel=0 note=37 velocity=32 time=40
<meta message set_tempo tempo=684775 time=40>
<meta message set_tempo tempo=688231 time=80>
<meta message set_tempo tempo=691722 time=80>
note_on channel=0 note=37 velocity=0 time=40
note_on channel=0 note=37 velocity=30 time=0
<meta message set_tempo tempo=695249 time=40>
<meta message set_tempo tempo=698812 time=80>
<meta message set_tempo tempo=702494 time=80>
note_on channel=0 note=37 velocity=0 time=40
note_on channel=0 note=37 velocity=30 time=0
<meta message set_tempo tempo=706132 time=40>
<meta message set_tempo tempo=709807 time=40>
<meta message set_tempo tempo=736648 time=160>
note_on channel=0 note=37 velocity=0 time=0
note_on channel=0 note=36 velocity=31 time=0
control_change channel=0 control=64 value=0 time=12
control_change channel=0 control=64 value=127 time=228
<meta message set_tempo tempo=744694 time=480>
note_on channel=0 note=36 velocity=0 time=0
note_on channel=0 note=37 velocity=31 time=0
control_change channel=0 control=64 value=0 time=12
control_change channel=0 control=64 value=127 time=158
note_on channel=0 note=37 velocity=0 time=70
note_on channel=0 note=37 velocity=29 time=0
note_on channel=0 note=37 velocity=0 time=240
note_on channel=0 note=37 velocity=29 time=0
note_on channel=0 note=37 velocity=0 time=240
note_on channel=0 note=36 velocity=29 time=0
control_change channel=0 control=64 value=0 time=8
<meta message set_tempo tempo=851185 time=712>
note_on channel=0 note=36 velocity=0 time=0
note_on channel=0 note=70 velocity=32 time=0
note_on channel=0 note=67 velocity=32 time=0
note_on channel=0 note=76 velocity=32 time=0
note_on channel=0 note=37 velocity=21 time=0
control_change channel=0 control=64 value=127 time=108
<meta message set_tempo tempo=923219 time=132>
note_on channel=0 note=37 velocity=0 time=0
note_on channel=0 note=70 velocity=0 time=0
note_on channel=0 note=67 velocity=0 time=0
note_on channel=0 note=76 velocity=0 time=0
note_on channel=0 note=76 velocity=36 time=0
note_on channel=0 note=70 velocity=36 time=0
note_on channel=0 note=67 velocity=36 time=0
note_on channel=0 note=37 velocity=24 time=0
<meta message set_tempo tempo=1250260 time=240>
note_on channel=0 note=37 velocity=0 time=0
note_on channel=0 note=76 velocity=0 time=0
note_on channel=0 note=70 velocity=0 time=0
note_on channel=0 note=67 velocity=0 time=0
note_on channel=0 note=76 velocity=39 time=0
note_on channel=0 note=67 velocity=39 time=0
note_on channel=0 note=70 velocity=39 time=0
note_on channel=0 note=37 velocity=26 time=0
<meta message set_tempo tempo=1052632 time=240>
note_on channel=0 note=37 velocity=0 time=0
note_on channel=0 note=76 velocity=0 time=0
note_on channel=0 note=67 velocity=0 time=0
note_on channel=0 note=70 velocity=0 time=0
note_on channel=0 note=76 velocity=43 time=0
note_on channel=0 note=70 velocity=43 time=0
note_on channel=0 note=67 velocity=43 time=0
note_on channel=0 note=36 velocity=28 time=0
control_change channel=0 control=64 value=0 time=19
control_change channel=0 control=64 value=127 time=89
<meta message set_tempo tempo=327887 time=612>
note_on channel=0 note=36 velocity=0 time=0
note_on channel=0 note=76 velocity=0 time=0
note_on channel=0 note=70 velocity=0 time=0
note_on channel=0 note=67 velocity=0 time=0
note_on channel=0 note=84 velocity=87 time=0
note_on channel=0 note=82 velocity=87 time=0
note_on channel=0 note=79 velocity=87 time=0
note_on channel=0 note=76 velocity=87 time=0
note_on channel=0 note=88 velocity=102 time=0
note_on channel=0 note=36 velocity=70 time=0
note_on channel=0 note=48 velocity=83 time=0
control_change channel=0 control=64 value=0 time=18
control_change channel=0 control=64 value=127 time=90
note_on channel=0 note=48 velocity=0 time=132
note_on channel=0 note=88 velocity=0 time=0
note_on channel=0 note=82 velocity=0 time=0
note_on channel=0 note=79 velocity=0 time=0
note_on channel=0 note=84 velocity=0 time=0
note_on channel=0 note=36 velocity=0 time=0
note_on channel=0 note=76 velocity=0 time=0
note_on channel=0 note=76 velocity=78 time=0
note_on channel=0 note=84 velocity=78 time=0
note_on channel=0 note=79 velocity=78 time=0
note_on channel=0 note=88 velocity=93 time=0
note_on channel=0 note=82 velocity=78 time=0
note_on channel=0 note=48 velocity=78 time=0
note_on channel=0 note=36 velocity=65 time=0
note_on channel=0 note=36 velocity=0 time=240
note_on channel=0 note=82 velocity=0 time=0
note_on channel=0 note=84 velocity=0 time=0
note_on channel=0 note=79 velocity=0 time=0
note_on channel=0 note=76 velocity=0 time=0
note_on channel=0 note=48 velocity=0 time=0
note_on channel=0 note=88 velocity=0 time=0
note_on channel=0 note=79 velocity=78 time=0
note_on channel=0 note=76 velocity=78 time=0
note_on channel=0 note=82 velocity=78 time=0
note_on channel=0 note=84 velocity=78 time=0
note_on channel=0 note=88 velocity=93 time=0
note_on channel=0 note=48 velocity=78 time=0
note_on channel=0 note=36 velocity=65 time=0
note_on channel=0 note=36 velocity=0 time=240
note_on channel=0 note=88 velocity=0 time=0
note_on channel=0 note=76 velocity=0 time=0
note_on channel=0 note=82 velocity=0 time=0
note_on channel=0 note=79 velocity=0 time=0
note_on channel=0 note=48 velocity=0 time=0
note_on channel=0 note=84 velocity=0 time=0
note_on channel=0 note=84 velocity=87 time=0
note_on channel=0 note=80 velocity=87 time=0
note_on channel=0 note=89 velocity=102 time=0
note_on channel=0 note=77 velocity=87 time=0
note_on channel=0 note=29 velocity=71 time=0
note_on channel=0 note=41 velocity=85 time=0
control_change channel=0 control=64 value=0 time=13
control_change channel=0 control=64 value=127 time=107
<meta message set_tempo tempo=264609 time=120>
note_on channel=0 note=41 velocity=0 time=0
note_on channel=0 note=29 velocity=0 time=0
note_on channel=0 note=65 velocity=30 time=0
note_on channel=0 note=60 velocity=30 time=0
note_on channel=0 note=60 velocity=0 time=240
note_on channel=0 note=80 velocity=0 time=0
note_on channel=0 note=77 velocity=0 time=0
note_on channel=0 note=84 velocity=0 time=0
note_on channel=0 note=65 velocity=0 time=0
note_on channel=0 note=89 velocity=0 time=0
note_on channel=0 note=56 velocity=37 time=0
note_on channel=0 note=56 velocity=0 time=240
note_on channel=0 note=65 velocity=42 time=0
note_on channel=0 note=60 velocity=32 time=0
note_on channel=0 note=60 velocity=0 time=240
note_on channel=0 note=65 velocity=0 time=0
note_on channel=0 note=56 velocity=37 time=0
note_on channel=0 note=56 velocity=0 time=240
note_on channel=0 note=60 velocity=30 time=0
note_on channel=0 note=65 velocity=37 time=0
note_on channel=0 note=65 velocity=0 time=240
note_on channel=0 note=60 velocity=0 time=0
note_on channel=0 note=56 velocity=42 time=0
note_on channel=0 note=56 velocity=0 time=240
note_on channel=0 note=65 velocity=37 time=0
note_on channel=0 note=60 velocity=30 time=0
note_on channel=0 note=60 velocity=0 time=240
note_on channel=0 note=65 velocity=0 time=0
note_on channel=0 note=56 velocity=37 time=0
note_on channel=0 note=56 velocity=0 time=240
note_on channel=0 note=68 velocity=66 time=0
note_on channel=0 note=65 velocity=42 time=0
note_on channel=0 note=60 velocity=32 time=0
<meta message set_tempo tempo=278190 time=240>
note_on channel=0 note=60 velocity=0 time=0
note_on channel=0 note=65 velocity=0 time=0
note_on channel=0 note=56 velocity=37 time=0
note_on channel=0 note=56 velocity=0 time=240
note_on channel=0 note=65 velocity=41 time=0
note_on channel=0 note=60 velocity=31 time=0
<meta message set_tempo tempo=352817 time=120>
note_on channel=0 note=68 velocity=0 time=0
note_on channel=0 note=72 velocity=58 time=0
<meta message set_tempo tempo=247310 time=120>
note_on channel=0 note=72 velocity=0 time=0
note_on channel=0 note=60 velocity=0 time=0
note_on channel=0 note=65 velocity=0 time=0
note_on channel=0 note=77 velocity=63 time=0
note_on channel=0 note=56 velocity=42 time=0
<meta message set_tempo tempo=250209 time=40>
note_on channel=0 note=56 velocity=0 time=200
note_on channel=0 note=60 velocity=30 time=0
note_on channel=0 note=65 velocity=36 time=0
note_on channel=0 note=65 velocity=0 time=240
note_on channel=0 note=60 velocity=0 time=0
note_on channel=0 note=56 velocity=37 time=0
<meta message set_tempo tempo=262318 time=240>
note_on channel=0 note=56 velocity=0 time=0
note_on channel=0 note=77 velocity=0 time=0
note_on channel=0 note=80 velocity=68 time=0
note_on channel=0 note=65 velocity=42 time=0
note_on channel=0 note=60 velocity=32 time=0
<meta message set_tempo tempo=267678 time=240>
note_on channel=0 note=60 velocity=0 time=0
note_on channel=0 note=65 velocity=0 time=0
note_on channel=0 note=56 velocity=37 time=0
note_on channel=0 note=56 velocity=0 time=240
note_on channel=0 note=65 velocity=37 time=0
note_on channel=0 note=60 velocity=30 time=0
<meta message set_tempo tempo=305935 time=120>
note_on channel=0 note=80 velocity=0 time=0
note_on channel=0 note=77 velocity=60 time=0
note_on channel=0 note=77 velocity=0 time=120
note_on channel=0 note=60 velocity=0 time=0
note_on channel=0 note=65 velocity=0 time=0
note_on channel=0 note=76 velocity=63 time=0
note_on channel=0 note=58 velocity=42 time=0
<meta message set_tempo tempo=255059 time=40>
control_change channel=0 control=64 value=0 time=31
control_change channel=0 control=64 value=127 time=134
note_on channel=0 note=58 velocity=0 time=35
note_on channel=0 note=67 velocity=37 time=0
note_on channel=0 note=60 velocity=30 time=0
note_on channel=0 note=60 velocity=0 time=240
note_on channel=0 note=67 velocity=0 time=0
note_on channel=0 note=58 velocity=37 time=0
<meta message set_tempo tempo=260112 time=240>
note_on channel=0 note=58 velocity=0 time=0
note_on channel=0 note=76 velocity=0 time=0
note_on channel=0 note=79 velocity=68 time=0
note_on channel=0 note=67 velocity=42 time=0
note_on channel=0 note=60 velocity=32 time=0
<meta message set_tempo tempo=273286 time=240>
note_on channel=0 note=60 velocity=0 time=0
note_on channel=0 note=67 velocity=0 time=0
note_on channel=0 note=58 velocity=37 time=0
note_on channel=0 note=58 velocity=0 time=240
note_on channel=0 note=67 velocity=41 time=0
note_on channel=0 note=60 velocity=31 time=0
<meta message set_tempo tempo=328857 time=120>
note_on channel=0 note=79 velocity=0 time=0
note_on channel=0 note=76 velocity=60 time=0
<meta message set_tempo tempo=250209 time=120>
note_on channel=0 note=76 velocity=0 time=0
note_on channel=0 note=60 velocity=0 time=0
note_on channel=0 note=67 velocity=0 time=0
note_on channel=0 note=77 velocity=63 time=0
note_on channel=0 note=56 velocity=42 time=0
control_change channel=0 control=64 value=0 time=9
control_change channel=0 control=64 value=127 time=118
note_on channel=0 note=56 velocity=0 time=113
note_on channel=0 note=60 velocity=30 time=0
note_on channel=0 note=65 velocity=36 time=0
note_on channel=0 note=65 velocity=0 time=240
note_on channel=0 note=60 velocity=0 time=0
note_on channel=0 note=56 velocity=37 time=0
<meta message set_tempo tempo=257202 time=240>
note_on channel=0 note=56 velocity=0 time=0
note_on channel=0 note=77 velocity=0 time=0
note_on channel=0 note=72 velocity=62 time=0
note_on channel=0 note=60 velocity=32 time=0
note_on channel=0 note=65 velocity=42 time=0
note_on channel=0 note=65 velocity=0 time=240
note_on channel=0 note=60 velocity=0 time=0
note_on channel=0 note=56 velocity=37 time=0
note_on channel=0 note=56 velocity=0 time=240
note_on channel=0 note=60 velocity=30 time=0
note_on channel=0 note=65 velocity=37 time=0
note_on channel=0 note=65 velocity=0 time=240
note_on channel=0 note=60 velocity=0 time=0
note_on channel=0 note=56 velocity=42 time=0
note_on channel=0 note=56 velocity=0 time=240
note_on channel=0 note=60 velocity=30 time=0
note_on channel=0 note=65 velocity=37 time=0
note_on channel=0 note=65 velocity=0 time=240
note_on channel=0 note=60 velocity=0 time=0
note_on channel=0 note=56 velocity=42 time=0
note_on channel=0 note=56 velocity=0 time=240
note_on channel=0 note=72 velocity=0 time=0
note_on channel=0 note=80 velocity=71 time=0
note_on channel=0 note=68 velocity=60 time=0
note_on channel=0 note=60 velocity=34 time=0
note_on channel=0 note=65 velocity=44 time=0
<meta message set_tempo tempo=265299 time=240>
note_on channel=0 note=65 velocity=0 time=0
note_on channel=0 note=60 velocity=0 time=0
note_on channel=0 note=56 velocity=40 time=0
note_on channel=0 note=56 velocity=0 time=240
note_on channel=0 note=60 velocity=33 time=0
note_on channel=0 note=65 velocity=44 time=0
<meta message set_tempo tempo=352817 time=120>
note_on channel=0 note=68 velocity=0 time=0
note_on channel=0 note=80 velocity=0 time=0
note_on channel=0 note=84 velocity=62 time=0
note_on channel=0 note=72 velocity=52 time=0
<meta message set_tempo tempo=247310 time=120>
note_on channel=0 note=72 velocity=0 time=0
note_on channel=0 note=65 velocity=0 time=0
note_on channel=0 note=60 velocity=0 time=0
note_on channel=0 note=84 velocity=0 time=0
note_on channel=0 note=77 velocity=61 time=0
note_on channel=0 note=89 velocity=73 time=0
note_on channel=0 note=56 velocity=46 time=0
<meta message set_tempo tempo=250209 time=40>
note_on channel=0 note=56 velocity=0 time=200
note_on channel=0 note=68 velocity=40 time=0
note_on channel=0 note=60 velocity=34 time=0
note_on channel=0 note=65 velocity=40 time=0
note_on channel=0 note=65 velocity=0 time=240
note_on channel=0 note=68 velocity=0 time=0
note_on channel=0 note=60 velocity=0 time=0
note_on channel=0 note=56 velocity=42 time=0
<meta message set_tempo tempo=262318 time=240>
note_on channel=0 note=56 velocity=0 time=0
note_on channel=0 note=89 velocity=0 time=0
note_on channel=0 note=77 velocity=0 time=0
note_on channel=0 note=92 velocity=78 time=0
note_on channel=0 note=80 velocity=65 time=0
note_on channel=0 note=68 velocity=47 time=0
note_on channel=0 note=60 velocity=36 time=0
note_on channel=0 note=65 velocity=47 time=0
<meta message set_tempo tempo=267678 time=240>
note_on channel=0 note=65 velocity=0 time=0
note_on channel=0 note=68 velocity=0 time=0
note_on channel=0 note=60 velocity=0 time=0
note_on channel=0 note=56 velocity=43 time=0
note_on channel=0 note=56 velocity=0 time=240
note_on channel=0 note=68 velocity=44 time=0
note_on channel=0 note=65 velocity=44 time=0
note_on channel=0 note=60 velocity=36 time=0
<meta message set_tempo tempo=319149 time=120>
note_on channel=0 note=80 velocity=0 time=0
note_on channel=0 note=92 velocity=0 time=0
note_on channel=0 note=89 velocity=71 time=0
note_on channel=0 note=77 velocity=59 time=0
note_on channel=0 note=77 velocity=0 time=120
note_on channel=0 note=65 velocity=0 time=0
note_on channel=0 note=60 velocity=0 time=0
note_on channel=0 note=68 velocity=0 time=0
note_on channel=0 note=89 velocity=0 time=0
note_on channel=0 note=88 velocity=76 time=0
note_on channel=0 note=76 velocity=64 time=0
note_on channel=0 note=58 velocity=49 time=0
control_change channel=0 control=64 value=0 time=16
<meta message set_tempo tempo=255059 time=24>
control_change channel=0 control=64 value=127 time=130
note_on channel=0 note=58 velocity=0 time=70
note_on channel=0 note=64 velocity=36 time=0
note_on channel=0 note=60 velocity=36 time=0
note_on channel=0 note=67 velocity=45 time=0
note_on channel=0 note=67 velocity=0 time=240
note_on channel=0 note=64 velocity=0 time=0
note_on channel=0 note=60 velocity=0 time=0
note_on channel=0 note=58 velocity=46 time=0
<meta message set_tempo tempo=260112 time=240>
note_on channel=0 note=58 velocity=0 time=0
note_on channel=0 note=76 velocity=0 time=0
note_on channel=0 note=88 velocity=0 time=0
note_on channel=0 note=91 velocity=82 time=0
note_on channel=0 note=79 velocity=68 time=0
note_on channel=0 note=64 velocity=39 time=0
note_on channel=0 note=67 velocity=51 time=0
note_on channel=0 note=60 velocity=39 time=0
<meta message set_tempo tempo=269131 time=240>
note_on channel=0 note=60 velocity=0 time=0
note_on channel=0 note=64 velocity=0 time=0
note_on channel=0 note=67 velocity=0 time=0
note_on channel=0 note=58 velocity=47 time=0
note_on channel=0 note=58 velocity=0 time=240
note_on channel=0 note=64 velocity=38 time=0
note_on channel=0 note=67 velocity=51 time=0
note_on channel=0 note=60 velocity=38 time=0
<meta message set_tempo tempo=373181 time=120>
note_on channel=0 note=79 velocity=0 time=0
note_on channel=0 note=91 velocity=0 time=0
note_on channel=0 note=88 velocity=77 time=0
note_on channel=0 note=76 velocity=65 time=0
<meta message set_tempo tempo=250209 time=120>
note_on channel=0 note=76 velocity=0 time=0
note_on channel=0 note=67 velocity=0 time=0
note_on channel=0 note=60 velocity=0 time=0
note_on channel=0 note=64 velocity=0 time=0
note_on channel=0 note=88 velocity=0 time=0
note_on channel=0 note=90 velocity=99 time=0
note_on channel=0 note=78 velocity=82 time=0
note_on channel=0 note=57 velocity=55 time=0
control_change channel=0 control=64 value=0 time=12
control_change channel=0 control=64 value=127 time=115
note_on channel=0 note=57 velocity=0 time=113
note_on channel=0 note=66 velocity=48 time=0
note_on channel=0 note=63 velocity=48 time=0
note_on channel=0 note=60 velocity=39 time=0
note_on channel=0 note=60 velocity=0 time=240
note_on channel=0 note=66 velocity=0 time=0
note_on channel=0 note=63 velocity=0 time=0
note_on channel=0 note=57 velocity=49 time=0
<meta message set_tempo tempo=257202 time=240>
note_on channel=0 note=57 velocity=0 time=0
note_on channel=0 note=78 velocity=0 time=0
note_on channel=0 note=90 velocity=0 time=0
note_on channel=0 note=72 velocity=63 time=0
note_on channel=0 note=84 velocity=79 time=0
note_on channel=0 note=66 velocity=55 time=0
note_on channel=0 note=60 velocity=41 time=0
note_on channel=0 note=63 velocity=55 time=0
note_on channel=0 note=63 velocity=0 time=240
note_on channel=0 note=66 velocity=0 time=0
note_on channel=0 note=60 velocity=0 time=0
note_on channel=0 note=57 velocity=49 time=0
note_on channel=0 note=57 velocity=0 time=240
note_on channel=0 note=60 velocity=39 time=0
note_on channel=0 note=63 velocity=49 time=0
note_on channel=0 note=66 velocity=49 time=0
note_on channel=0 note=66 velocity=0 time=240
note_on channel=0 note=60 velocity=0 time=0
note_on channel=0 note=63 velocity=0 time=0
note_on channel=0 note=57 velocity=55 time=0
note_on channel=0 note=57 velocity=0 time=240
note_on channel=0 note=66 velocity=49 time=0
note_on channel=0 note=60 velocity=39 time=0
note_on channel=0 note=63 velocity=49 time=0
note_on channel=0 note=63 velocity=0 time=240
note_on channel=0 note=66 velocity=0 time=0
note_on channel=0 note=60 velocity=0 time=0
note_on channel=0 note=57 velocity=55 time=0
<meta message set_tempo tempo=260112 time=240>
note_on channel=0 note=57 velocity=0 time=0
note_on channel=0 note=84 velocity=0 time=0
note_on channel=0 note=72 velocity=0 time=0
note_on channel=0 note=75 velocity=70 time=0
note_on channel=0 note=87 velocity=84 time=0
note_on channel=0 note=63 velocity=40 time=0
note_on channel=0 note=66 velocity=53 time=0
note_on channel=0 note=60 velocity=40 time=0
<meta message set_tempo tempo=269131 time=240>
note_on channel=0 note=60 velocity=0 time=0
note_on channel=0 note=63 velocity=0 time=0
note_on channel=0 note=66 velocity=0 time=0
note_on channel=0 note=57 velocity=48 time=0
note_on channel=0 note=57 velocity=0 time=240
note_on channel=0 note=63 velocity=39 time=0
note_on channel=0 note=66 velocity=52 time=0
note_on channel=0 note=60 velocity=39 time=0
<meta message set_tempo tempo=373181 time=120>
note_on channel=0 note=87 velocity=0 time=0
note_on channel=0 note=75 velocity=0 time=0
note_on channel=0 note=72 velocity=66 time=0
note_on channel=0 note=84 velocity=78 time=0
<meta message set_tempo tempo=250209 time=120>
note_on channel=0 note=84 velocity=0 time=0
note_on channel=0 note=66 velocity=0 time=0
note_on channel=0 note=60 velocity=0 time=0
note_on channel=0 note=63 velocity=0 time=0
note_on channel=0 note=72 velocity=0 time=0
note_on channel=0 note=89 velocity=99 time=0
note_on channel=0 note=77 velocity=82 time=0
note_on channel=0 note=57 velocity=55 time=0
control_change channel=0 control=64 value=0 time=0
control_change channel=0 control=64 value=127 time=141
note_on channel=0 note=57 velocity=0 time=99
note_on channel=0 note=65 velocity=48 time=0
note_on channel=0 note=63 velocity=48 time=0
note_on channel=0 note=60 velocity=39 time=0
note_on channel=0 note=60 velocity=0 time=240
note_on channel=0 note=65 velocity=0 time=0
note_on channel=0 note=63 velocity=0 time=0
note_on channel=0 note=57 velocity=49 time=0
<meta message set_tempo tempo=257202 time=240>
note_on channel=0 note=57 velocity=0 time=0
note_on channel=0 note=77 velocity=0 time=0
note_on channel=0 note=89 velocity=0 time=0
note_on channel=0 note=70 velocity=63 time=0
note_on channel=0 note=82 velocity=79 time=0
note_on channel=0 note=65 velocity=55 time=0
note_on channel=0 note=61 velocity=55 time=0
control_change channel=0 control=64 value=0 time=16
control_change channel=0 control=64 value=127 time=147
note_on channel=0 note=61 velocity=0 time=77
note_on channel=0 note=65 velocity=0 time=0
note_on channel=0 note=58 velocity=49 time=0
note_on channel=0 note=58 velocity=0 time=240
note_on channel=0 note=61 velocity=49 time=0
note_on channel=0 note=65 velocity=49 time=0
note_on channel=0 note=65 velocity=0 time=240
note_on channel=0 note=61 velocity=0 time=0
note_on channel=0 note=58 velocity=55 time=0
note_on channel=0 note=58 velocity=0 time=240
note_on channel=0 note=65 velocity=49 time=0
note_on channel=0 note=61 velocity=49 time=0
note_on channel=0 note=61 velocity=0 time=240
note_on channel=0 note=65 velocity=0 time=0
note_on channel=0 note=58 velocity=55 time=0
<meta message set_tempo tempo=260112 time=240>
note_on channel=0 note=58 velocity=0 time=0
note_on channel=0 note=82 velocity=0 time=0
note_on channel=0 note=70 velocity=0 time=0
note_on channel=0 note=73 velocity=70 time=0
note_on channel=0 note=85 velocity=84 time=0
note_on channel=0 note=67 velocity=53 time=0
note_on channel=0 note=64 velocity=40 time=0
control_change channel=0 control=64 value=0 time=14
control_change channel=0 control=64 value=127 time=92
<meta message set_tempo tempo=269131 time=134>
note_on channel=0 note=64 velocity=0 time=0
note_on channel=0 note=67 velocity=0 time=0
note_on channel=0 note=58 velocity=48 time=0
note_on channel=0 note=58 velocity=0 time=240
note_on channel=0 note=64 velocity=39 time=0
note_on channel=0 note=67 velocity=52 time=0
<meta message set_tempo tempo=373181 time=120>
note_on channel=0 note=85 velocity=0 time=0
note_on channel=0 note=73 velocity=0 time=0
note_on channel=0 note=82 velocity=78 time=0
note_on channel=0 note=70 velocity=66 time=0
<meta message set_tempo tempo=250209 time=120>
note_on channel=0 note=70 velocity=0 time=0
note_on channel=0 note=67 velocity=0 time=0
note_on channel=0 note=64 velocity=0 time=0
note_on channel=0 note=82 velocity=0 time=0
note_on channel=0 note=68 velocity=75 time=0
note_on channel=0 note=80 velocity=90 time=0
note_on channel=0 note=48 velocity=55 time=0
control_change channel=0 control=64 value=0 time=19
control_change channel=0 control=64 value=127 time=67
note_on channel=0 note=48 velocity=0 time=154
note_on channel=0 note=53 velocity=39 time=0
note_on channel=0 note=56 velocity=48 time=0
note_on channel=0 note=60 velocity=48 time=0
note_on channel=0 note=60 velocity=0 time=240
note_on channel=0 note=53 velocity=0 time=0
note_on channel=0 note=56 velocity=0 time=0
note_on channel=0 note=48 velocity=49 time=0
<meta message set_tempo tempo=260112 time=240>
note_on channel=0 note=48 velocity=0 time=0
note_on channel=0 note=80 velocity=0 time=0
note_on channel=0 note=68 velocity=0 time=0
note_on channel=0 note=84 velocity=84 time=0
note_on channel=0 note=72 velocity=70 time=0
note_on channel=0 note=56 velocity=40 time=0
note_on channel=0 note=60 velocity=53 time=0
note_on channel=0 note=53 velocity=40 time=0
<meta message set_tempo tempo=269131 time=240>
note_on channel=0 note=53 velocity=0 time=0
note_on channel=0 note=56 velocity=0 time=0
note_on channel=0 note=60 velocity=0 time=0
note_on channel=0 note=48 velocity=48 time=0
note_on channel=0 note=48 velocity=0 time=240
note_on channel=0 note=56 velocity=39 time=0
note_on channel=0 note=53 velocity=39 time=0
note_on channel=0 note=60 velocity=52 time=0
<meta message set_tempo tempo=373181 time=120>
note_on channel=0 note=72 velocity=0 time=0
note_on channel=0 note=84 velocity=0 time=0
note_on channel=0 note=80 velocity=78 time=0
note_on channel=0 note=68 velocity=66 time=0
<meta message set_tempo tempo=250209 time=120>
note_on channel=0 note=68 velocity=0 time=0
note_on channel=0 note=53 velocity=0 time=0
note_on channel=0 note=60 velocity=0 time=0
note_on channel=0 note=56 velocity=0 time=0
note_on channel=0 note=80 velocity=0 time=0
note_on channel=0 note=79 velocity=90 time=0
note_on channel=0 note=67 velocity=75 time=0
note_on channel=0 note=46 velocity=55 time=0
control_change channel=0 control=64 value=0 time=13
control_change channel=0 control=64 value=127 time=84
note_on channel=0 note=46 velocity=0 time=143
note_on channel=0 note=48 velocity=39 time=0
note_on channel=0 note=52 velocity=48 time=0
note_on channel=0 note=55 velocity=48 time=0
note_on channel=0 note=55 velocity=0 time=240
note_on channel=0 note=48 velocity=0 time=0
note_on channel=0 note=52 velocity=0 time=0
note_on channel=0 note=46 velocity=49 time=0
<meta message set_tempo tempo=260112 time=220>
note_on channel=0 note=46 velocity=0 time=20
note_on channel=0 note=67 velocity=0 time=0
note_on channel=0 note=79 velocity=0 time=0
note_on channel=0 note=79 velocity=77 time=0
note_on channel=0 note=91 velocity=92 time=0
note_on channel=0 note=52 velocity=39 time=0
note_on channel=0 note=48 velocity=39 time=0
note_on channel=0 note=55 velocity=51 time=0
<meta message set_tempo tempo=269131 time=220>
note_on channel=0 note=55 velocity=0 time=20
note_on channel=0 note=52 velocity=0 time=0
note_on channel=0 note=48 velocity=0 time=0
note_on channel=0 note=46 velocity=47 time=0
note_on channel=0 note=46 velocity=0 time=240
note_on channel=0 note=55 velocity=50 time=0
note_on channel=0 note=48 velocity=38 time=0
note_on channel=0 note=52 velocity=38 time=0
<meta message set_tempo tempo=373181 time=100>
<meta message set_tempo tempo=428602 time=20>
note_on channel=0 note=91 velocity=0 time=0
note_on channel=0 note=79 velocity=0 time=0
note_on channel=0 note=76 velocity=72 time=0
note_on channel=0 note=88 velocity=85 time=0
<meta message set_tempo tempo=250209 time=100>
note_on channel=0 note=78 velocity=84 time=0
note_on channel=0 note=90 velocity=103 time=0
note_on channel=0 note=88 velocity=0 time=20
note_on channel=0 note=76 velocity=0 time=0
note_on channel=0 note=52 velocity=0 time=0
note_on channel=0 note=48 velocity=0 time=0
note_on channel=0 note=55 velocity=0 time=0
note_on channel=0 note=45 velocity=53 time=0
control_change channel=0 control=64 value=0 time=11
control_change channel=0 control=64 value=127 time=93
note_on channel=0 note=45 velocity=0 time=136
note_on channel=0 note=51 velocity=38 time=0
note_on channel=0 note=57 velocity=47 time=0
note_on channel=0 note=54 velocity=47 time=0
note_on channel=0 note=45 velocity=48 time=220
note_on channel=0 note=54 velocity=0 time=20
note_on channel=0 note=57 velocity=0 time=0
note_on channel=0 note=51 velocity=0 time=0
<meta message set_tempo tempo=257202 time=220>
note_on channel=0 note=78 velocity=0 time=0
note_on channel=0 note=45 velocity=0 time=0
note_on channel=0 note=90 velocity=0 time=0
note_on channel=0 note=72 velocity=69 time=20
note_on channel=0 note=84 velocity=86 time=0
note_on channel=0 note=51 velocity=53 time=0
note_on channel=0 note=57 velocity=53 time=0
note_on channel=0 note=54 velocity=53 time=0
note_on channel=0 note=54 velocity=0 time=240
note_on channel=0 note=51 velocity=0 time=0
note_on channel=0 note=57 velocity=0 time=0
note_on channel=0 note=45 velocity=48 time=0
note_on channel=0 note=45 velocity=0 time=240
note_on channel=0 note=51 velocity=48 time=0
note_on channel=0 note=57 velocity=48 time=0
note_on channel=0 note=54 velocity=48 time=0
note_on channel=0 note=54 velocity=0 time=240
note_on channel=0 note=51 velocity=0 time=0
note_on channel=0 note=57 velocity=0 time=0
note_on channel=0 note=45 velocity=53 time=0
note_on channel=0 note=45 velocity=0 time=240
note_on channel=0 note=51 velocity=48 time=0
note_on channel=0 note=57 velocity=48 time=0
note_on channel=0 note=54 velocity=48 time=0
note_on channel=0 note=54 velocity=0 time=240
note_on channel=0 note=51 velocity=0 time=0
note_on channel=0 note=57 velocity=0 time=0
note_on channel=0 note=45 velocity=53 time=0
<meta message set_tempo tempo=260112 time=240>
note_on channel=0 note=45 velocity=0 time=0
note_on channel=0 note=84 velocity=0 time=0
note_on channel=0 note=72 velocity=0 time=0
note_on channel=0 note=87 velocity=92 time=0
note_on channel=0 note=75 velocity=77 time=0
note_on channel=0 note=54 velocity=45 time=0
note_on channel=0 note=57 velocity=59 time=0
note_on channel=0 note=51 velocity=45 time=0
<meta message set_tempo tempo=269131 time=240>
note_on channel=0 note=51 velocity=0 time=0
note_on channel=0 note=54 velocity=0 time=0
note_on channel=0 note=57 velocity=0 time=0
note_on channel=0 note=45 velocity=49 time=0
note_on channel=0 note=45 velocity=0 time=240
note_on channel=0 note=54 velocity=39 time=0
note_on channel=0 note=57 velocity=55 time=0
note_on channel=0 note=51 velocity=39 time=0
<meta message set_tempo tempo=400027 time=120>
note_on channel=0 note=75 velocity=0 time=0
note_on channel=0 note=87 velocity=0 time=0
note_on channel=0 note=72 velocity=72 time=0
note_on channel=0 note=84 velocity=85 time=0
<meta message set_tempo tempo=250209 time=120>
note_on channel=0 note=84 velocity=0 time=0
note_on channel=0 note=57 velocity=0 time=0
note_on channel=0 note=51 velocity=0 time=0
note_on channel=0 note=54 velocity=0 time=0
note_on channel=0 note=72 velocity=0 time=0
note_on channel=0 note=89 velocity=103 time=0
note_on channel=0 note=77 velocity=84 time=0
note_on channel=0 note=45 velocity=57 time=0
control_change channel=0 control=64 value=0 time=8
control_change channel=0 control=64 value=127 time=70
note_on channel=0 note=45 velocity=0 time=162
note_on channel=0 note=57 velocity=49 time=0
note_on channel=0 note=53 velocity=49 time=0
note_on channel=0 note=51 velocity=39 time=0
note_on channel=0 note=51 velocity=0 time=240
note_on channel=0 note=57 velocity=0 time=0
note_on channel=0 note=53 velocity=0 time=0
note_on channel=0 note=45 velocity=49 time=0
<meta message set_tempo tempo=257202 time=240>
note_on channel=0 note=45 velocity=0 time=0
note_on channel=0 note=77 velocity=0 time=0
note_on channel=0 note=89 velocity=0 time=0
note_on channel=0 note=82 velocity=86 time=0
note_on channel=0 note=70 velocity=69 time=0
note_on channel=0 note=49 velocity=57 time=0
note_on channel=0 note=53 velocity=57 time=0
note_on channel=0 note=58 velocity=57 time=0
control_change channel=0 control=64 value=0 time=16
control_change channel=0 control=64 value=127 time=147
note_on channel=0 note=58 velocity=0 time=77
note_on channel=0 note=49 velocity=0 time=0
note_on channel=0 note=53 velocity=0 time=0
note_on channel=0 note=46 velocity=49 time=0
note_on channel=0 note=46 velocity=0 time=240
note_on channel=0 note=49 velocity=49 time=0
note_on channel=0 note=53 velocity=49 time=0
note_on channel=0 note=58 velocity=49 time=0
note_on channel=0 note=58 velocity=0 time=240
note_on channel=0 note=49 velocity=0 time=0
note_on channel=0 note=53 velocity=0 time=0
note_on channel=0 note=46 velocity=57 time=0
note_on channel=0 note=46 velocity=0 time=240
note_on channel=0 note=49 velocity=49 time=0
note_on channel=0 note=53 velocity=49 time=0
note_on channel=0 note=58 velocity=49 time=0
note_on channel=0 note=58 velocity=0 time=240
note_on channel=0 note=49 velocity=0 time=0
note_on channel=0 note=53 velocity=0 time=0
note_on channel=0 note=46 velocity=57 time=0
<meta message set_tempo tempo=260112 time=240>
note_on channel=0 note=46 velocity=0 time=0
note_on channel=0 note=70 velocity=0 time=0
note_on channel=0 note=82 velocity=0 time=0
note_on channel=0 note=73 velocity=77 time=0
note_on channel=0 note=85 velocity=92 time=0
note_on channel=0 note=55 velocity=56 time=0
note_on channel=0 note=58 velocity=56 time=0
note_on channel=0 note=52 velocity=40 time=0
control_change channel=0 control=64 value=0 time=16
control_change channel=0 control=64 value=127 time=104
<meta message set_tempo tempo=269131 time=120>
note_on channel=0 note=52 velocity=0 time=0
note_on channel=0 note=55 velocity=0 time=0
note_on channel=0 note=58 velocity=0 time=0
note_on channel=0 note=46 velocity=49 time=0
note_on channel=0 note=46 velocity=0 time=240
note_on channel=0 note=52 velocity=39 time=0
note_on channel=0 note=58 velocity=55 time=0
note_on channel=0 note=55 velocity=55 time=0
<meta message set_tempo tempo=373181 time=120>
note_on channel=0 note=85 velocity=0 time=0
note_on channel=0 note=73 velocity=0 time=0
note_on channel=0 note=70 velocity=72 time=0
note_on channel=0 note=82 velocity=85 time=0
<meta message set_tempo tempo=250209 time=120>
note_on channel=0 note=82 velocity=0 time=0
note_on channel=0 note=58 velocity=0 time=0
note_on channel=0 note=55 velocity=0 time=0
note_on channel=0 note=52 velocity=0 time=0
note_on channel=0 note=70 velocity=0 time=0
note_on channel=0 note=68 velocity=82 time=0
note_on channel=0 note=80 velocity=99 time=0
note_on channel=0 note=48 velocity=57 time=0
control_change channel=0 control=64 value=0 time=18
control_change channel=0 control=64 value=127 time=123
note_on channel=0 note=48 velocity=0 time=99
note_on channel=0 note=60 velocity=49 time=0
note_on channel=0 note=56 velocity=49 time=0
note_on channel=0 note=53 velocity=39 time=0
note_on channel=0 note=53 velocity=0 time=240
note_on channel=0 note=60 velocity=0 time=0
note_on channel=0 note=56 velocity=0 time=0
note_on channel=0 note=48 velocity=49 time=0
<meta message set_tempo tempo=260112 time=240>
note_on channel=0 note=48 velocity=0 time=0
note_on channel=0 note=80 velocity=0 time=0
note_on channel=0 note=68 velocity=0 time=0
note_on channel=0 note=84 velocity=92 time=0
note_on channel=0 note=72 velocity=77 time=0
note_on channel=0 note=53 velocity=40 time=0
note_on channel=0 note=60 velocity=56 time=0
note_on channel=0 note=56 velocity=40 time=0
<meta message set_tempo tempo=269131 time=240>
note_on channel=0 note=56 velocity=0 time=0
note_on channel=0 note=53 velocity=0 time=0
note_on channel=0 note=60 velocity=0 time=0
note_on channel=0 note=48 velocity=49 time=0
note_on channel=0 note=48 velocity=0 time=240
note_on channel=0 note=53 velocity=39 time=0
note_on channel=0 note=60 velocity=55 time=0
note_on channel=0 note=56 velocity=39 time=0
<meta message set_tempo tempo=373181 time=120>
note_on channel=0 note=72 velocity=0 time=0
note_on channel=0 note=84 velocity=0 time=0
note_on channel=0 note=80 velocity=85 time=0
note_on channel=0 note=68 velocity=72 time=0
<meta message set_tempo tempo=250209 time=120>
note_on channel=0 note=68 velocity=0 time=0
note_on channel=0 note=60 velocity=0 time=0
note_on channel=0 note=56 velocity=0 time=0
note_on channel=0 note=53 velocity=0 time=0
note_on channel=0 note=80 velocity=0 time=0
note_on channel=0 note=79 velocity=99 time=0
note_on channel=0 note=67 velocity=82 time=0
note_on channel=0 note=48 velocity=57 time=0
control_change channel=0 control=64 value=0 time=16
control_change channel=0 control=64 value=127 time=104
note_on channel=0 note=48 velocity=0 time=120
note_on channel=0 note=60 velocity=49 time=0
note_on channel=0 note=52 velocity=49 time=0
note_on channel=0 note=55 velocity=39 time=0
note_on channel=0 note=55 velocity=0 time=240
note_on channel=0 note=60 velocity=0 time=0
note_on channel=0 note=52 velocity=0 time=0
note_on channel=0 note=48 velocity=49 time=0
<meta message set_tempo tempo=260112 time=220>
note_on channel=0 note=48 velocity=0 time=20
note_on channel=0 note=67 velocity=0 time=0
note_on channel=0 note=79 velocity=0 time=0
note_on channel=0 note=84 velocity=101 time=0
note_on channel=0 note=72 velocity=84 time=0
note_on channel=0 note=60 velocity=49 time=0
note_on channel=0 note=55 velocity=37 time=0
note_on channel=0 note=52 velocity=37 time=0
<meta message set_tempo tempo=269131 time=220>
note_on channel=0 note=52 velocity=0 time=20
note_on channel=0 note=60 velocity=0 time=0
note_on channel=0 note=55 velocity=0 time=0
note_on channel=0 note=48 velocity=44 time=0
note_on channel=0 note=48 velocity=0 time=240
note_on channel=0 note=72 velocity=0 time=0
note_on channel=0 note=84 velocity=0 time=0
note_on channel=0 note=84 velocity=95 time=0
note_on channel=0 note=72 velocity=80 time=0
note_on channel=0 note=60 velocity=48 time=0
note_on channel=0 note=55 velocity=36 time=0
note_on channel=0 note=52 velocity=36 time=0
<meta message set_tempo tempo=373181 time=100>
<meta message set_tempo tempo=250209 time=120>
<meta message set_tempo tempo=255613 time=20>
note_on channel=0 note=52 velocity=0 time=0
note_on channel=0 note=60 velocity=0 time=0
note_on channel=0 note=84 velocity=0 time=0
note_on channel=0 note=72 velocity=0 time=0
note_on channel=0 note=55 velocity=0 time=0
note_on channel=0 note=84 velocity=105 time=0
note_on channel=0 note=72 velocity=87 time=0
note_on channel=0 note=41 velocity=63 time=0
note_on channel=0 note=48 velocity=63 time=0
note_on channel=0 note=53 velocity=75 time=0
note_on channel=0 note=44 velocity=63 time=0
control_change channel=0 control=64 value=0 time=9
control_change channel=0 control=64 value=127 time=163
note_on channel=0 note=72 velocity=0 time=68
note_on channel=0 note=84 velocity=0 time=0
note_on channel=0 note=65 velocity=59 time=0
note_on channel=0 note=60 velocity=59 time=0
note_on channel=0 note=72 velocity=79 time=0
note_on channel=0 note=68 velocity=66 time=0
note_on channel=0 note=68 velocity=0 time=220
note_on channel=0 note=72 velocity=0 time=0
note_on channel=0 note=65 velocity=0 time=0
note_on channel=0 note=60 velocity=0 time=0
note_on channel=0 note=41 velocity=0 time=20
note_on channel=0 note=53 velocity=0 time=0
note_on channel=0 note=44 velocity=0 time=0
note_on channel=0 note=48 velocity=0 time=0
note_on channel=0 note=68 velocity=66 time=0
note_on channel=0 note=72 velocity=79 time=0
note_on channel=0 note=60 velocity=59 time=0
note_on channel=0 note=65 velocity=59 time=0
note_on channel=0 note=65 velocity=0 time=220
note_on channel=0 note=68 velocity=0 time=0
note_on channel=0 note=72 velocity=0 time=0
note_on channel=0 note=60 velocity=0 time=0
<meta message set_tempo tempo=270441 time=20>
note_on channel=0 note=68 velocity=69 time=0
note_on channel=0 note=65 velocity=62 time=0
note_on channel=0 note=72 velocity=84 time=0
note_on channel=0 note=60 velocity=62 time=0
<meta message set_tempo tempo=270441 time=240>
note_on channel=0 note=53 velocity=79 time=0
note_on channel=0 note=56 velocity=79 time=0
control_change channel=0 control=64 value=0 time=7
<meta message set_tempo tempo=255613 time=33>
note_on channel=0 note=56 velocity=0 time=180
note_on channel=0 note=53 velocity=0 time=0
<meta message set_tempo tempo=255613 time=20>
note_on channel=0 note=53 velocity=76 time=0
note_on channel=0 note=56 velocity=76 time=0
note_on channel=0 note=56 velocity=0 time=220
note_on channel=0 note=53 velocity=0 time=0
<meta message set_tempo tempo=279213 time=20>
note_on channel=0 note=60 velocity=0 time=0
note_on channel=0 note=68 velocity=0 time=0
note_on channel=0 note=65 velocity=0 time=0
note_on channel=0 note=72 velocity=0 time=0
note_on channel=0 note=52 velocity=80 time=0
note_on channel=0 note=55 velocity=80 time=0
<meta message set_tempo tempo=256202 time=240>
note_on channel=0 note=60 velocity=59 time=0
note_on channel=0 note=72 velocity=79 time=0
note_on channel=0 note=64 velocity=66 time=0
note_on channel=0 note=67 velocity=66 time=0
control_change channel=0 control=64 value=127 time=35
note_on channel=0 note=67 velocity=0 time=185
note_on channel=0 note=72 velocity=0 time=0
note_on channel=0 note=60 velocity=0 time=0
note_on channel=0 note=64 velocity=0 time=0
<meta message set_tempo tempo=255613 time=20>
note_on channel=0 note=52 velocity=0 time=0
note_on channel=0 note=55 velocity=0 time=0
note_on channel=0 note=72 velocity=79 time=0
note_on channel=0 note=60 velocity=59 time=0
note_on channel=0 note=64 velocity=66 time=0
note_on channel=0 note=67 velocity=66 time=0
note_on channel=0 note=67 velocity=0 time=220
note_on channel=0 note=72 velocity=0 time=0
note_on channel=0 note=60 velocity=0 time=0
note_on channel=0 note=64 velocity=0 time=0
note_on channel=0 note=72 velocity=84 time=20
note_on channel=0 note=70 velocity=69 time=0
note_on channel=0 note=67 velocity=62 time=0
note_on channel=0 note=60 velocity=62 time=0
<meta message set_tempo tempo=269772 time=40>
<meta message set_tempo tempo=255613 time=200>
note_on channel=0 note=55 velocity=79 time=0
note_on channel=0 note=58 velocity=79 time=0
control_change channel=0 control=64 value=0 time=12
note_on channel=0 note=58 velocity=0 time=208
note_on channel=0 note=55 velocity=0 time=0
<meta message set_tempo tempo=255613 time=20>
note_on channel=0 note=55 velocity=76 time=0
note_on channel=0 note=58 velocity=76 time=0
note_on channel=0 note=58 velocity=0 time=220
note_on channel=0 note=55 velocity=0 time=0
<meta message set_tempo tempo=263435 time=20>
note_on channel=0 note=60 velocity=0 time=0
note_on channel=0 note=72 velocity=0 time=0
note_on channel=0 note=70 velocity=0 time=0
note_on channel=0 note=67 velocity=0 time=0
note_on channel=0 note=53 velocity=80 time=0
note_on channel=0 note=56 velocity=80 time=0
control_change channel=0 control=64 value=127 time=115
<meta message set_tempo tempo=255613 time=125>
note_on channel=0 note=68 velocity=66 time=0
note_on channel=0 note=60 velocity=59 time=0
note_on channel=0 note=65 velocity=59 time=0
note_on channel=0 note=72 velocity=79 time=0
note_on channel=0 note=72 velocity=0 time=220
note_on channel=0 note=60 velocity=0 time=0
note_on channel=0 note=68 velocity=0 time=0
note_on channel=0 note=65 velocity=0 time=0
note_on channel=0 note=53 velocity=0 time=20
note_on channel=0 note=56 velocity=0 time=0
note_on channel=0 note=68 velocity=66 time=0
note_on channel=0 note=72 velocity=79 time=0
note_on channel=0 note=60 velocity=59 time=0
note_on channel=0 note=65 velocity=59 time=0
note_on channel=0 note=65 velocity=0 time=220
note_on channel=0 note=68 velocity=0 time=0
note_on channel=0 note=72 velocity=0 time=0
note_on channel=0 note=60 velocity=0 time=0
<meta message set_tempo tempo=268480 time=20>
note_on channel=0 note=60 velocity=62 time=0
note_on channel=0 note=68 velocity=69 time=0
note_on channel=0 note=65 velocity=62 time=0
note_on channel=0 note=72 velocity=84 time=0
<meta message set_tempo tempo=256794 time=240>
note_on channel=0 note=56 velocity=79 time=0
note_on channel=0 note=53 velocity=79 time=0
control_change channel=0 control=64 value=0 time=17
note_on channel=0 note=53 velocity=0 time=203
note_on channel=0 note=56 velocity=0 time=0
<meta message set_tempo tempo=255613 time=20>
note_on channel=0 note=56 velocity=76 time=0
note_on channel=0 note=53 velocity=76 time=0
note_on channel=0 note=53 velocity=0 time=220
note_on channel=0 note=56 velocity=0 time=0
<meta message set_tempo tempo=279890 time=20>
note_on channel=0 note=72 velocity=0 time=0
note_on channel=0 note=60 velocity=0 time=0
note_on channel=0 note=68 velocity=0 time=0
note_on channel=0 note=65 velocity=0 time=0
note_on channel=0 note=55 velocity=80 time=0
note_on channel=0 note=52 velocity=80 time=0
<meta message set_tempo tempo=255613 time=240>
note_on channel=0 note=64 velocity=66 time=0
note_on channel=0 note=60 velocity=59 time=0
note_on channel=0 note=72 velocity=79 time=0
note_on channel=0 note=67 velocity=66 time=0
control_change channel=0 control=64 value=127 time=80
note_on channel=0 note=67 velocity=0 time=140
note_on channel=0 note=60 velocity=0 time=0
note_on channel=0 note=64 velocity=0 time=0
note_on channel=0 note=72 velocity=0 time=0
<meta message set_tempo tempo=255613 time=20>
note_on channel=0 note=55 velocity=0 time=0
note_on channel=0 note=52 velocity=0 time=0
note_on channel=0 note=64 velocity=66 time=0
note_on channel=0 note=67 velocity=66 time=0
note_on channel=0 note=60 velocity=59 time=0
note_on channel=0 note=72 velocity=79 time=0
note_on channel=0 note=72 velocity=0 time=220
note_on channel=0 note=64 velocity=0 time=0
note_on channel=0 note=67 velocity=0 time=0
note_on channel=0 note=60 velocity=0 time=0
<meta message set_tempo tempo=271751 time=20>
note_on channel=0 note=72 velocity=84 time=0
note_on channel=0 note=67 velocity=62 time=0
note_on channel=0 note=70 velocity=69 time=0
note_on channel=0 note=60 velocity=62 time=0
<meta message set_tempo tempo=255613 time=240>
note_on channel=0 note=58 velocity=79 time=0
note_on channel=0 note=55 velocity=79 time=0
control_change channel=0 control=64 value=0 time=16
note_on channel=0 note=55 velocity=0 time=204
note_on channel=0 note=58 velocity=0 time=0
<meta message set_tempo tempo=275964 time=20>
note_on channel=0 note=55 velocity=76 time=0
note_on channel=0 note=58 velocity=76 time=0
note_on channel=0 note=58 velocity=0 time=220
note_on channel=0 note=55 velocity=0 time=0
<meta message set_tempo tempo=258142 time=20>
note_on channel=0 note=60 velocity=0 time=0
note_on channel=0 note=72 velocity=0 time=0
note_on channel=0 note=67 velocity=0 time=0
note_on channel=0 note=70 velocity=0 time=0
note_on channel=0 note=56 velocity=80 time=0
note_on channel=0 note=53 velocity=66 time=0
control_change channel=0 control=64 value=127 time=80
note_on channel=0 note=53 velocity=0 time=140
note_on channel=0 note=56 velocity=0 time=0
note_on channel=0 note=65 velocity=65 time=20
note_on channel=0 note=60 velocity=65 time=0
note_on channel=0 note=72 velocity=77 time=0
note_on channel=0 note=68 velocity=65 time=0
note_on channel=0 note=68 velocity=0 time=220
note_on channel=0 note=65 velocity=0 time=0
note_on channel=0 note=60 velocity=0 time=0
note_on channel=0 note=72 velocity=0 time=0
<meta message set_tempo tempo=268926 time=20>
note_on channel=0 note=56 velocity=76 time=0
note_on channel=0 note=53 velocity=63 time=0
note_on channel=0 note=53 velocity=0 time=220
note_on channel=0 note=56 velocity=0 time=0
<meta message set_tempo tempo=257566 time=20>
note_on channel=0 note=65 velocity=73 time=0
note_on channel=0 note=61 velocity=73 time=0
note_on channel=0 note=73 velocity=85 time=0
note_on channel=0 note=67 velocity=73 time=0
control_change channel=0 control=64 value=0 time=17
control_change channel=0 control=64 value=127 time=132
note_on channel=0 note=67 velocity=0 time=71
note_on channel=0 note=65 velocity=0 time=0
note_on channel=0 note=61 velocity=0 time=0
note_on channel=0 note=73 velocity=0 time=0
note_on channel=0 note=53 velocity=59 time=20
note_on channel=0 note=46 velocity=59 time=0
note_on channel=0 note=55 velocity=73 time=0
note_on channel=0 note=55 velocity=0 time=220
note_on channel=0 note=46 velocity=0 time=0
note_on channel=0 note=53 velocity=0 time=0
<meta message set_tempo tempo=269542 time=20>
note_on channel=0 note=61 velocity=65 time=0
note_on channel=0 note=65 velocity=65 time=0
note_on channel=0 note=67 velocity=65 time=0
note_on channel=0 note=73 velocity=77 time=0
note_on channel=0 note=73 velocity=0 time=220
note_on channel=0 note=61 velocity=0 time=0
note_on channel=0 note=65 velocity=0 time=0
note_on channel=0 note=67 velocity=0 time=0
<meta message set_tempo tempo=255297 time=20>
note_on channel=0 note=53 velocity=66 time=0
note_on channel=0 note=56 velocity=80 time=0
note_on channel=0 note=48 velocity=66 time=0
control_change channel=0 control=64 value=0 time=14
control_change channel=0 control=64 value=127 time=112
note_on channel=0 note=48 velocity=0 time=94
note_on channel=0 note=56 velocity=0 time=0
note_on channel=0 note=53 velocity=0 time=0
note_on channel=0 note=60 velocity=69 time=20
note_on channel=0 note=72 velocity=83 time=0
note_on channel=0 note=68 velocity=69 time=0
note_on channel=0 note=65 velocity=69 time=0
note_on channel=0 note=65 velocity=0 time=220
note_on channel=0 note=60 velocity=0 time=0
note_on channel=0 note=72 velocity=0 time=0
note_on channel=0 note=68 velocity=0 time=0
<meta message set_tempo tempo=263424 time=20>
note_on channel=0 note=53 velocity=63 time=0
note_on channel=0 note=56 velocity=76 time=0
note_on channel=0 note=48 velocity=63 time=0
note_on channel=0 note=48 velocity=0 time=220
note_on channel=0 note=56 velocity=0 time=0
note_on channel=0 note=53 velocity=0 time=0
<meta message set_tempo tempo=258142 time=20>
note_on channel=0 note=60 velocity=70 time=0
note_on channel=0 note=64 velocity=70 time=0
note_on channel=0 note=72 velocity=82 time=0
note_on channel=0 note=67 velocity=70 time=0
control_change channel=0 control=64 value=0 time=19
control_change channel=0 control=64 value=127 time=118
note_on channel=0 note=67 velocity=0 time=83
note_on channel=0 note=60 velocity=0 time=0
note_on channel=0 note=64 velocity=0 time=0
note_on channel=0 note=72 velocity=0 time=0
note_on channel=0 note=48 velocity=63 time=20
note_on channel=0 note=55 velocity=76 time=0
note_on channel=0 note=52 velocity=63 time=0
note_on channel=0 note=52 velocity=0 time=220
note_on channel=0 note=55 velocity=0 time=0
note_on channel=0 note=48 velocity=0 time=0
<meta message set_tempo tempo=301841 time=20>
note_on channel=0 note=64 velocity=59 time=0
note_on channel=0 note=67 velocity=59 time=0
note_on channel=0 note=60 velocity=59 time=0
note_on channel=0 note=72 velocity=71 time=0
note_on channel=0 note=72 velocity=0 time=220
note_on channel=0 note=64 velocity=0 time=0
note_on channel=0 note=67 velocity=0 time=0
note_on channel=0 note=60 velocity=0 time=0
<meta message set_tempo tempo=255613 time=20>
note_on channel=0 note=65 velocity=76 time=0
note_on channel=0 note=68 velocity=76 time=0
note_on channel=0 note=60 velocity=76 time=0
note_on channel=0 note=72 velocity=92 time=0
note_on channel=0 note=44 velocity=61 time=0
note_on channel=0 note=48 velocity=61 time=0
note_on channel=0 note=53 velocity=73 time=0
note_on channel=0 note=41 velocity=61 time=0
control_change channel=0 control=64 value=0 time=7
control_change channel=0 control=64 value=127 time=176
note_on channel=0 note=72 velocity=0 time=57
note_on channel=0 note=60 velocity=0 time=0
note_on channel=0 note=65 velocity=0 time=0
note_on channel=0 note=68 velocity=0 time=0
note_on channel=0 note=53 velocity=59 time=0
note_on channel=0 note=48 velocity=59 time=0
note_on channel=0 note=56 velocity=66 time=0
note_on channel=0 note=60 velocity=79 time=0
note_on channel=0 note=60 velocity=0 time=220
note_on channel=0 note=56 velocity=0 time=0
note_on channel=0 note=53 velocity=0 time=0
note_on channel=0 note=48 velocity=0 time=0
note_on channel=0 note=53 velocity=0 time=20
note_on channel=0 note=44 velocity=0 time=0
note_on channel=0 note=48 velocity=0 time=0
note_on channel=0 note=41 velocity=0 time=0
note_on channel=0 note=48 velocity=59 time=0
note_on channel=0 note=60 velocity=79 time=0
note_on channel=0 note=56 velocity=66 time=0
note_on channel=0 note=53 velocity=59 time=0
note_on channel=0 note=53 velocity=0 time=220
note_on channel=0 note=48 velocity=0 time=0
note_on channel=0 note=60 velocity=0 time=0
note_on channel=0 note=56 velocity=0 time=0
<meta message set_tempo tempo=270441 time=20>
note_on channel=0 note=48 velocity=62 time=0
note_on channel=0 note=53 velocity=62 time=0
note_on channel=0 note=60 velocity=84 time=0
note_on channel=0 note=56 velocity=69 time=0
<meta message set_tempo tempo=270441 time=240>
note_on channel=0 note=44 velocity=75 time=0
note_on channel=0 note=41 velocity=75 time=0
control_change channel=0 control=64 value=0 time=12
<meta message set_tempo tempo=255613 time=28>
note_on channel=0 note=41 velocity=0 time=180
note_on channel=0 note=44 velocity=0 time=0
<meta message set_tempo tempo=255613 time=20>
note_on channel=0 note=44 velocity=72 time=0
note_on channel=0 note=41 velocity=72 time=0
note_on channel=0 note=41 velocity=0 time=220
note_on channel=0 note=44 velocity=0 time=0
<meta message set_tempo tempo=279213 time=20>
note_on channel=0 note=56 velocity=0 time=0
note_on channel=0 note=48 velocity=0 time=0
note_on channel=0 note=53 velocity=0 time=0
note_on channel=0 note=60 velocity=0 time=0
note_on channel=0 note=43 velocity=76 time=0
note_on channel=0 note=40 velocity=76 time=0
control_change channel=0 control=64 value=127 time=195
<meta message set_tempo tempo=256202 time=45>
note_on channel=0 note=48 velocity=59 time=0
note_on channel=0 note=55 velocity=66 time=0
note_on channel=0 note=60 velocity=79 time=0
note_on channel=0 note=52 velocity=66 time=0
note_on channel=0 note=52 velocity=0 time=220
note_on channel=0 note=55 velocity=0 time=0
note_on channel=0 note=48 velocity=0 time=0
note_on channel=0 note=60 velocity=0 time=0
<meta message set_tempo tempo=255613 time=20>
note_on channel=0 note=43 velocity=0 time=0
note_on channel=0 note=40 velocity=0 time=0
note_on channel=0 note=55 velocity=66 time=0
note_on channel=0 note=52 velocity=66 time=0
note_on channel=0 note=48 velocity=59 time=0
note_on channel=0 note=60 velocity=79 time=0
note_on channel=0 note=60 velocity=0 time=220
note_on channel=0 note=55 velocity=0 time=0
note_on channel=0 note=52 velocity=0 time=0
note_on channel=0 note=48 velocity=0 time=0
note_on channel=0 note=55 velocity=62 time=20
note_on channel=0 note=58 velocity=69 time=0
note_on channel=0 note=60 velocity=84 time=0
note_on channel=0 note=48 velocity=62 time=0
<meta message set_tempo tempo=269772 time=40>
<meta message set_tempo tempo=255613 time=200>
note_on channel=0 note=46 velocity=75 time=0
note_on channel=0 note=43 velocity=75 time=0
control_change channel=0 control=64 value=0 time=15
note_on channel=0 note=43 velocity=0 time=205
note_on channel=0 note=46 velocity=0 time=0
<meta message set_tempo tempo=255613 time=20>
note_on channel=0 note=46 velocity=72 time=0
note_on channel=0 note=43 velocity=72 time=0
note_on channel=0 note=43 velocity=0 time=220
note_on channel=0 note=46 velocity=0 time=0
<meta message set_tempo tempo=263435 time=20>
note_on channel=0 note=48 velocity=0 time=0
note_on channel=0 note=55 velocity=0 time=0
note_on channel=0 note=58 velocity=0 time=0
note_on channel=0 note=60 velocity=0 time=0
note_on channel=0 note=44 velocity=76 time=0
note_on channel=0 note=41 velocity=76 time=0
control_change channel=0 control=64 value=127 time=137
<meta message set_tempo tempo=255613 time=103>
note_on channel=0 note=48 velocity=59 time=0
note_on channel=0 note=53 velocity=59 time=0
note_on channel=0 note=56 velocity=66 time=0
note_on channel=0 note=60 velocity=79 time=0
note_on channel=0 note=60 velocity=0 time=220
note_on channel=0 note=53 velocity=0 time=0
note_on channel=0 note=48 velocity=0 time=0
note_on channel=0 note=56 velocity=0 time=0
note_on channel=0 note=44 velocity=0 time=20
note_on channel=0 note=41 velocity=0 time=0
note_on channel=0 note=48 velocity=59 time=0
note_on channel=0 note=56 velocity=66 time=0
note_on channel=0 note=60 velocity=79 time=0
note_on channel=0 note=53 velocity=59 time=0
note_on channel=0 note=53 velocity=0 time=220
note_on channel=0 note=48 velocity=0 time=0
note_on channel=0 note=56 velocity=0 time=0
note_on channel=0 note=60 velocity=0 time=0
<meta message set_tempo tempo=268480 time=20>
note_on channel=0 note=53 velocity=62 time=0
note_on channel=0 note=48 velocity=62 time=0
note_on channel=0 note=56 velocity=69 time=0
note_on channel=0 note=60 velocity=84 time=0
<meta message set_tempo tempo=256794 time=240>
note_on channel=0 note=44 velocity=75 time=0
note_on channel=0 note=41 velocity=75 time=0
control_change channel=0 control=64 value=0 time=12
note_on channel=0 note=41 velocity=0 time=208
note_on channel=0 note=44 velocity=0 time=0
<meta message set_tempo tempo=255613 time=20>
note_on channel=0 note=44 velocity=72 time=0
note_on channel=0 note=41 velocity=72 time=0
note_on channel=0 note=41 velocity=0 time=220
note_on channel=0 note=44 velocity=0 time=0
<meta message set_tempo tempo=279890 time=20>
note_on channel=0 note=60 velocity=0 time=0
note_on channel=0 note=53 velocity=0 time=0
note_on channel=0 note=48 velocity=0 time=0
note_on channel=0 note=56 velocity=0 time=0
note_on channel=0 note=43 velocity=76 time=0
note_on channel=0 note=40 velocity=76 time=0
<meta message set_tempo tempo=255613 time=240>
note_on channel=0 note=52 velocity=66 time=0
note_on channel=0 note=55 velocity=66 time=0
note_on channel=0 note=48 velocity=59 time=0
note_on channel=0 note=60 velocity=79 time=0
control_change channel=0 control=64 value=127 time=23
note_on channel=0 note=60 velocity=0 time=197
note_on channel=0 note=55 velocity=0 time=0
note_on channel=0 note=52 velocity=0 time=0
note_on channel=0 note=48 velocity=0 time=0
<meta message set_tempo tempo=255613 time=20>
note_on channel=0 note=43 velocity=0 time=0
note_on channel=0 note=40 velocity=0 time=0
note_on channel=0 note=55 velocity=66 time=0
note_on channel=0 note=60 velocity=79 time=0
note_on channel=0 note=52 velocity=66 time=0
note_on channel=0 note=48 velocity=59 time=0
note_on channel=0 note=48 velocity=0 time=220
note_on channel=0 note=55 velocity=0 time=0
note_on channel=0 note=60 velocity=0 time=0
note_on channel=0 note=52 velocity=0 time=0
<meta message set_tempo tempo=271751 time=20>
note_on channel=0 note=58 velocity=69 time=0
note_on channel=0 note=48 velocity=62 time=0
note_on channel=0 note=55 velocity=62 time=0
note_on channel=0 note=60 velocity=84 time=0
<meta message set_tempo tempo=255613 time=240>
note_on channel=0 note=46 velocity=75 time=0
note_on channel=0 note=43 velocity=75 time=0
control_change channel=0 control=64 value=0 time=15
note_on channel=0 note=43 velocity=0 time=205
note_on channel=0 note=46 velocity=0 time=0
<meta message set_tempo tempo=275964 time=20>
note_on channel=0 note=46 velocity=72 time=0
note_on channel=0 note=43 velocity=72 time=0
note_on channel=0 note=43 velocity=0 time=220
note_on channel=0 note=46 velocity=0 time=0
<meta message set_tempo tempo=258142 time=20>
note_on channel=0 note=60 velocity=0 time=0
note_on channel=0 note=58 velocity=0 time=0
note_on channel=0 note=48 velocity=0 time=0
note_on channel=0 note=55 velocity=0 time=0
note_on channel=0 note=41 velocity=66 time=0
note_on channel=0 note=44 velocity=79 time=0
control_change channel=0 control=64 value=127 time=69
note_on channel=0 note=44 velocity=0 time=151
note_on channel=0 note=41 velocity=0 time=0
note_on channel=0 note=53 velocity=63 time=20
note_on channel=0 note=56 velocity=63 time=0
note_on channel=0 note=60 velocity=81 time=0
note_on channel=0 note=48 velocity=63 time=0
note_on channel=0 note=48 velocity=0 time=220
note_on channel=0 note=53 velocity=0 time=0
note_on channel=0 note=56 velocity=0 time=0
note_on channel=0 note=60 velocity=0 time=0
<meta message set_tempo tempo=268926 time=20>
note_on channel=0 note=44 velocity=71 time=0
note_on channel=0 note=41 velocity=59 time=0
note_on channel=0 note=41 velocity=0 time=220
note_on channel=0 note=44 velocity=0 time=0
<meta message set_tempo tempo=257566 time=20>
note_on channel=0 note=49 velocity=69 time=0
note_on channel=0 note=61 velocity=89 time=0
note_on channel=0 note=55 velocity=69 time=0
note_on channel=0 note=53 velocity=69 time=0
control_change channel=0 control=64 value=0 time=16
control_change channel=0 control=64 value=127 time=133
note_on channel=0 note=53 velocity=0 time=71
note_on channel=0 note=49 velocity=0 time=0
note_on channel=0 note=61 velocity=0 time=0
note_on channel=0 note=55 velocity=0 time=0
note_on channel=0 note=34 velocity=55 time=20
note_on channel=0 note=43 velocity=66 time=0
note_on channel=0 note=41 velocity=55 time=0
note_on channel=0 note=41 velocity=0 time=220
note_on channel=0 note=43 velocity=0 time=0
note_on channel=0 note=34 velocity=0 time=0
<meta message set_tempo tempo=269542 time=20>
note_on channel=0 note=49 velocity=63 time=0
note_on channel=0 note=53 velocity=63 time=0
note_on channel=0 note=55 velocity=63 time=0
note_on channel=0 note=61 velocity=81 time=0
note_on channel=0 note=61 velocity=0 time=220
note_on channel=0 note=49 velocity=0 time=0
note_on channel=0 note=53 velocity=0 time=0
note_on channel=0 note=55 velocity=0 time=0
<meta message set_tempo tempo=255297 time=20>
note_on channel=0 note=44 velocity=75 time=0
note_on channel=0 note=36 velocity=62 time=0
note_on channel=0 note=41 velocity=62 time=0
control_change channel=0 control=64 value=0 time=15
control_change channel=0 control=64 value=127 time=145
note_on channel=0 note=41 velocity=0 time=60
note_on channel=0 note=36 velocity=0 time=0
note_on channel=0 note=44 velocity=0 time=0
note_on channel=0 note=56 velocity=66 time=20
note_on channel=0 note=60 velocity=87 time=0
note_on channel=0 note=48 velocity=66 time=0
note_on channel=0 note=53 velocity=66 time=0
note_on channel=0 note=53 velocity=0 time=220
note_on channel=0 note=56 velocity=0 time=0
note_on channel=0 note=60 velocity=0 time=0
note_on channel=0 note=48 velocity=0 time=0
<meta message set_tempo tempo=263424 time=20>
note_on channel=0 note=44 velocity=71 time=0
note_on channel=0 note=36 velocity=59 time=0
note_on channel=0 note=41 velocity=59 time=0
note_on channel=0 note=41 velocity=0 time=220
note_on channel=0 note=36 velocity=0 time=0
note_on channel=0 note=44 velocity=0 time=0
<meta message set_tempo tempo=258142 time=20>
note_on channel=0 note=55 velocity=66 time=0
note_on channel=0 note=52 velocity=66 time=0
note_on channel=0 note=60 velocity=87 time=0
note_on channel=0 note=48 velocity=66 time=0
control_change channel=0 control=64 value=0 time=12
control_change channel=0 control=64 value=127 time=103
note_on channel=0 note=48 velocity=0 time=105
note_on channel=0 note=55 velocity=0 time=0
note_on channel=0 note=52 velocity=0 time=0
note_on channel=0 note=60 velocity=0 time=0
note_on channel=0 note=40 velocity=59 time=20
note_on channel=0 note=43 velocity=71 time=0
note_on channel=0 note=36 velocity=59 time=0
note_on channel=0 note=36 velocity=0 time=220
note_on channel=0 note=43 velocity=0 time=0
note_on channel=0 note=40 velocity=0 time=0
<meta message set_tempo tempo=272072 time=20>
note_on channel=0 note=52 velocity=63 time=0
note_on channel=0 note=55 velocity=63 time=0
note_on channel=0 note=48 velocity=63 time=0
note_on channel=0 note=60 velocity=81 time=0
<meta message set_tempo tempo=290487 time=40>
note_on channel=0 note=60 velocity=0 time=180
note_on channel=0 note=52 velocity=0 time=0
note_on channel=0 note=55 velocity=0 time=0
note_on channel=0 note=48 velocity=0 time=0
<meta message set_tempo tempo=258142 time=20>
note_on channel=0 note=36 velocity=62 time=0
note_on channel=0 note=41 velocity=62 time=0
note_on channel=0 note=44 velocity=75 time=0
note_on channel=0 note=32 velocity=62 time=0
control_change channel=0 control=64 value=0 time=9
control_change channel=0 control=64 value=127 time=140
note_on channel=0 note=32 velocity=0 time=71
note_on channel=0 note=36 velocity=0 time=0
note_on channel=0 note=41 velocity=0 time=0
note_on channel=0 note=44 velocity=0 time=0
note_on channel=0 note=68 velocity=63 time=20
note_on channel=0 note=72 velocity=81 time=0
note_on channel=0 note=65 velocity=63 time=0
note_on channel=0 note=60 velocity=63 time=0
note_on channel=0 note=60 velocity=0 time=220
note_on channel=0 note=68 velocity=0 time=0
note_on channel=0 note=72 velocity=0 time=0
note_on channel=0 note=65 velocity=0 time=0
<meta message set_tempo tempo=268926 time=20>
note_on channel=0 note=32 velocity=59 time=0
note_on channel=0 note=41 velocity=59 time=0
note_on channel=0 note=36 velocity=59 time=0
note_on channel=0 note=44 velocity=71 time=0
note_on channel=0 note=44 velocity=0 time=220
note_on channel=0 note=32 velocity=0 time=0
note_on channel=0 note=41 velocity=0 time=0
note_on channel=0 note=36 velocity=0 time=0
<meta message set_tempo tempo=257566 time=20>
note_on channel=0 note=65 velocity=69 time=0
note_on channel=0 note=61 velocity=69 time=0
note_on channel=0 note=73 velocity=89 time=0
note_on channel=0 note=67 velocity=69 time=0
control_change channel=0 control=64 value=0 time=17
control_change channel=0 control=64 value=127 time=109
note_on channel=0 note=67 velocity=0 time=94
note_on channel=0 note=65 velocity=0 time=0
note_on channel=0 note=61 velocity=0 time=0
note_on channel=0 note=73 velocity=0 time=0
note_on channel=0 note=46 velocity=66 time=20
note_on channel=0 note=41 velocity=55 time=0
note_on channel=0 note=43 velocity=60 time=0
note_on channel=0 note=34 velocity=55 time=0
note_on channel=0 note=34 velocity=0 time=220
note_on channel=0 note=46 velocity=0 time=0
note_on channel=0 note=41 velocity=0 time=0
note_on channel=0 note=43 velocity=0 time=0
<meta message set_tempo tempo=269542 time=20>
note_on channel=0 note=65 velocity=63 time=0
note_on channel=0 note=61 velocity=63 time=0
note_on channel=0 note=67 velocity=63 time=0
note_on channel=0 note=73 velocity=81 time=0
note_on channel=0 note=73 velocity=0 time=220
note_on channel=0 note=65 velocity=0 time=0
note_on channel=0 note=61 velocity=0 time=0
note_on channel=0 note=67 velocity=0 time=0
<meta message set_tempo tempo=255297 time=20>
note_on channel=0 note=48 velocity=75 time=0
note_on channel=0 note=44 velocity=69 time=0
note_on channel=0 note=41 velocity=62 time=0
note_on channel=0 note=36 velocity=62 time=0
control_change channel=0 control=64 value=0 time=16
control_change channel=0 control=64 value=127 time=110
note_on channel=0 note=36 velocity=0 time=94
note_on channel=0 note=48 velocity=0 time=0
note_on channel=0 note=44 velocity=0 time=0
note_on channel=0 note=41 velocity=0 time=0
note_on channel=0 note=72 velocity=87 time=20
note_on channel=0 note=65 velocity=66 time=0
note_on channel=0 note=60 velocity=66 time=0
note_on channel=0 note=68 velocity=66 time=0
note_on channel=0 note=68 velocity=0 time=220
note_on channel=0 note=72 velocity=0 time=0
note_on channel=0 note=65 velocity=0 time=0
note_on channel=0 note=60 velocity=0 time=0
<meta message set_tempo tempo=263424 time=20>
note_on channel=0 note=48 velocity=71 time=0
note_on channel=0 note=41 velocity=59 time=0
note_on channel=0 note=44 velocity=66 time=0
note_on channel=0 note=36 velocity=59 time=0
note_on channel=0 note=36 velocity=0 time=220
note_on channel=0 note=48 velocity=0 time=0
note_on channel=0 note=41 velocity=0 time=0
note_on channel=0 note=44 velocity=0 time=0
<meta message set_tempo tempo=258142 time=20>
note_on channel=0 note=60 velocity=66 time=0
note_on channel=0 note=64 velocity=66 time=0
note_on channel=0 note=72 velocity=87 time=0
note_on channel=0 note=67 velocity=66 time=0
control_change channel=0 control=64 value=0 time=15
control_change channel=0 control=64 value=127 time=111
note_on channel=0 note=67 velocity=0 time=94
note_on channel=0 note=60 velocity=0 time=0
note_on channel=0 note=64 velocity=0 time=0
note_on channel=0 note=72 velocity=0 time=0
note_on channel=0 note=46 velocity=71 time=20
note_on channel=0 note=40 velocity=59 time=0
note_on channel=0 note=43 velocity=66 time=0
note_on channel=0 note=34 velocity=59 time=0
note_on channel=0 note=34 velocity=0 time=220
note_on channel=0 note=46 velocity=0 time=0
note_on channel=0 note=40 velocity=0 time=0
note_on channel=0 note=43 velocity=0 time=0
<meta message set_tempo tempo=294118 time=20>
note_on channel=0 note=64 velocity=63 time=0
note_on channel=0 note=67 velocity=63 time=0
note_on channel=0 note=60 velocity=63 time=0
note_on channel=0 note=72 velocity=81 time=0
note_on channel=0 note=72 velocity=0 time=220
note_on channel=0 note=64 velocity=0 time=0
note_on channel=0 note=67 velocity=0 time=0
note_on channel=0 note=60 velocity=0 time=0
<meta message set_tempo tempo=266075 time=20>
note_on channel=0 note=36 velocity=65 time=0
note_on channel=0 note=41 velocity=65 time=0
note_on channel=0 note=44 velocity=77 time=0
note_on channel=0 note=32 velocity=65 time=0
control_change channel=0 control=64 value=0 time=15
control_change channel=0 control=64 value=127 time=88
note_on channel=0 note=32 velocity=0 time=117
note_on channel=0 note=36 velocity=0 time=0
note_on channel=0 note=41 velocity=0 time=0
note_on channel=0 note=44 velocity=0 time=0
note_on channel=0 note=80 velocity=72 time=20
note_on channel=0 note=84 velocity=93 time=0
note_on channel=0 note=77 velocity=72 time=0
note_on channel=0 note=72 velocity=72 time=0
note_on channel=0 note=72 velocity=0 time=220
note_on channel=0 note=80 velocity=0 time=0
note_on channel=0 note=84 velocity=0 time=0
note_on channel=0 note=77 velocity=0 time=0
<meta message set_tempo tempo=283019 time=20>
note_on channel=0 note=32 velocity=62 time=0
note_on channel=0 note=41 velocity=62 time=0
note_on channel=0 note=36 velocity=62 time=0
note_on channel=0 note=44 velocity=74 time=0
note_on channel=0 note=44 velocity=0 time=220
note_on channel=0 note=32 velocity=0 time=0
note_on channel=0 note=41 velocity=0 time=0
note_on channel=0 note=36 velocity=0 time=0
<meta message set_tempo tempo=271493 time=20>
note_on channel=0 note=79 velocity=79 time=0
note_on channel=0 note=73 velocity=79 time=0
note_on channel=0 note=77 velocity=79 time=0
note_on channel=0 note=85 velocity=101 time=0
control_change channel=0 control=64 value=0 time=16
control_change channel=0 control=64 value=127 time=110
note_on channel=0 note=85 velocity=0 time=94
note_on channel=0 note=79 velocity=0 time=0
note_on channel=0 note=73 velocity=0 time=0
note_on channel=0 note=77 velocity=0 time=0
note_on channel=0 note=46 velocity=69 time=20
note_on channel=0 note=41 velocity=57 time=0
note_on channel=0 note=43 velocity=63 time=0
note_on channel=0 note=34 velocity=57 time=0
note_on channel=0 note=34 velocity=0 time=220
note_on channel=0 note=46 velocity=0 time=0
note_on channel=0 note=41 velocity=0 time=0
note_on channel=0 note=43 velocity=0 time=0
<meta message set_tempo tempo=284360 time=20>
note_on channel=0 note=85 velocity=93 time=0
note_on channel=0 note=73 velocity=72 time=0
note_on channel=0 note=77 velocity=72 time=0
note_on channel=0 note=79 velocity=72 time=0
note_on channel=0 note=79 velocity=0 time=220
note_on channel=0 note=85 velocity=0 time=0
note_on channel=0 note=73 velocity=0 time=0
note_on channel=0 note=77 velocity=0 time=0
<meta message set_tempo tempo=279720 time=20>
note_on channel=0 note=48 velocity=77 time=0
note_on channel=0 note=41 velocity=65 time=0
note_on channel=0 note=36 velocity=65 time=0
note_on channel=0 note=44 velocity=72 time=0
control_change channel=0 control=64 value=0 time=16
control_change channel=0 control=64 value=127 time=87
note_on channel=0 note=44 velocity=0 time=117
note_on channel=0 note=48 velocity=0 time=0
note_on channel=0 note=41 velocity=0 time=0
note_on channel=0 note=36 velocity=0 time=0
note_on channel=0 note=84 velocity=99 time=20
note_on channel=0 note=80 velocity=76 time=0
note_on channel=0 note=77 velocity=76 time=0
note_on channel=0 note=72 velocity=76 time=0
note_on channel=0 note=72 velocity=0 time=220
note_on channel=0 note=84 velocity=0 time=0
note_on channel=0 note=80 velocity=0 time=0
note_on channel=0 note=77 velocity=0 time=0
<meta message set_tempo tempo=305344 time=20>
note_on channel=0 note=44 velocity=69 time=0
note_on channel=0 note=41 velocity=62 time=0
note_on channel=0 note=36 velocity=62 time=0
note_on channel=0 note=48 velocity=74 time=0
note_on channel=0 note=48 velocity=0 time=220
note_on channel=0 note=44 velocity=0 time=0
note_on channel=0 note=41 velocity=0 time=0
note_on channel=0 note=36 velocity=0 time=0
<meta message set_tempo tempo=283019 time=20>
note_on channel=0 note=84 velocity=99 time=0
note_on channel=0 note=72 velocity=75 time=0
note_on channel=0 note=76 velocity=75 time=0
note_on channel=0 note=79 velocity=75 time=0
control_change channel=0 control=64 value=0 time=19
control_change channel=0 control=64 value=127 time=96
note_on channel=0 note=79 velocity=0 time=105
note_on channel=0 note=84 velocity=0 time=0
note_on channel=0 note=72 velocity=0 time=0
note_on channel=0 note=76 velocity=0 time=0
note_on channel=0 note=36 velocity=62 time=20
note_on channel=0 note=48 velocity=74 time=0
note_on channel=0 note=43 velocity=69 time=0
note_on channel=0 note=40 velocity=62 time=0
note_on channel=0 note=40 velocity=0 time=220
note_on channel=0 note=36 velocity=0 time=0
note_on channel=0 note=48 velocity=0 time=0
note_on channel=0 note=43 velocity=0 time=0
<meta message set_tempo tempo=335196 time=20>
note_on channel=0 note=84 velocity=93 time=0
note_on channel=0 note=76 velocity=72 time=0
note_on channel=0 note=72 velocity=72 time=0
note_on channel=0 note=79 velocity=72 time=0
note_on channel=0 note=79 velocity=0 time=220
note_on channel=0 note=84 velocity=0 time=0
note_on channel=0 note=76 velocity=0 time=0
note_on channel=0 note=72 velocity=0 time=0
<meta message set_tempo tempo=302343 time=20>
note_on channel=0 note=60 velocity=64 time=0
note_on channel=0 note=29 velocity=82 time=0
note_on channel=0 note=41 velocity=110 time=0
control_change channel=0 control=64 value=0 time=11
control_change channel=0 control=64 value=127 time=74
note_on channel=0 note=60 velocity=0 time=35
note_on channel=0 note=56 velocity=55 time=0
note_on channel=0 note=56 velocity=0 time=120
note_on channel=0 note=60 velocity=59 time=0
note_on channel=0 note=60 velocity=0 time=120
note_on channel=0 note=56 velocity=50 time=0
note_on channel=0 note=56 velocity=0 time=120
note_on channel=0 note=41 velocity=0 time=0
note_on channel=0 note=29 velocity=0 time=0
note_on channel=0 note=60 velocity=55 time=0
note_on channel=0 note=60 velocity=0 time=120
note_on channel=0 note=56 velocity=48 time=0
note_on channel=0 note=56 velocity=0 time=120
note_on channel=0 note=60 velocity=43 time=0
note_on channel=0 note=68 velocity=62 time=0
note_on channel=0 note=60 velocity=0 time=120
note_on channel=0 note=56 velocity=37 time=0
note_on channel=0 note=56 velocity=0 time=120
note_on channel=0 note=60 velocity=43 time=0
<meta message set_tempo tempo=298582 time=14>
note_on channel=0 note=60 velocity=0 time=106
note_on channel=0 note=56 velocity=37 time=0
note_on channel=0 note=56 velocity=0 time=120
note_on channel=0 note=60 velocity=43 time=0
note_on channel=0 note=60 velocity=0 time=120
note_on channel=0 note=68 velocity=0 time=0
note_on channel=0 note=56 velocity=36 time=0
note_on channel=0 note=72 velocity=54 time=0
<meta message set_tempo tempo=378668 time=14>
<meta message set_tempo tempo=273448 time=106>
note_on channel=0 note=72 velocity=0 time=0
note_on channel=0 note=56 velocity=0 time=0
note_on channel=0 note=60 velocity=43 time=0
note_on channel=0 note=77 velocity=59 time=0
<meta message set_tempo tempo=265440 time=14>
note_on channel=0 note=60 velocity=0 time=106
note_on channel=0 note=56 velocity=36 time=0
note_on channel=0 note=56 velocity=0 time=120
note_on channel=0 note=60 velocity=42 time=0
note_on channel=0 note=60 velocity=0 time=120
note_on channel=0 note=56 velocity=36 time=0
note_on channel=0 note=56 velocity=0 time=120
note_on channel=0 note=60 velocity=42 time=0
note_on channel=0 note=60 velocity=0 time=120
note_on channel=0 note=56 velocity=35 time=0
note_on channel=0 note=56 velocity=0 time=120
note_on channel=0 note=77 velocity=0 time=0
note_on channel=0 note=60 velocity=42 time=0
note_on channel=0 note=80 velocity=60 time=0
note_on channel=0 note=60 velocity=0 time=120
note_on channel=0 note=56 velocity=35 time=0
note_on channel=0 note=56 velocity=0 time=120
note_on channel=0 note=60 velocity=41 time=0
<meta message set_tempo tempo=298582 time=14>
note_on channel=0 note=60 velocity=0 time=106
note_on channel=0 note=56 velocity=35 time=0
note_on channel=0 note=56 velocity=0 time=120
note_on channel=0 note=60 velocity=41 time=0
note_on channel=0 note=60 velocity=0 time=120
note_on channel=0 note=80 velocity=0 time=0
note_on channel=0 note=56 velocity=35 time=0
note_on channel=0 note=84 velocity=52 time=0
<meta message set_tempo tempo=378668 time=14>
note_on channel=0 note=84 velocity=0 time=106
note_on channel=0 note=56 velocity=0 time=0
note_on channel=0 note=60 velocity=41 time=0
note_on channel=0 note=89 velocity=56 time=0
<meta message set_tempo tempo=265440 time=14>
note_on channel=0 note=60 velocity=0 time=106
note_on channel=0 note=56 velocity=35 time=0
note_on channel=0 note=56 velocity=0 time=120
note_on channel=0 note=60 velocity=41 time=0
note_on channel=0 note=60 velocity=0 time=120
note_on channel=0 note=56 velocity=34 time=0
note_on channel=0 note=56 velocity=0 time=120
note_on channel=0 note=60 velocity=40 time=0
note_on channel=0 note=60 velocity=0 time=120
note_on channel=0 note=56 velocity=34 time=0
note_on channel=0 note=56 velocity=0 time=120
note_on channel=0 note=89 velocity=0 time=0
note_on channel=0 note=60 velocity=40 time=0
note_on channel=0 note=84 velocity=58 time=0
note_on channel=0 note=60 velocity=0 time=120
note_on channel=0 note=56 velocity=34 time=0
note_on channel=0 note=56 velocity=0 time=120
note_on channel=0 note=60 velocity=40 time=0
<meta message set_tempo tempo=298582 time=14>
note_on channel=0 note=60 velocity=0 time=106
note_on channel=0 note=56 velocity=33 time=0
note_on channel=0 note=56 velocity=0 time=120
note_on channel=0 note=60 velocity=40 time=0
note_on channel=0 note=60 velocity=0 time=120
note_on channel=0 note=84 velocity=0 time=0
note_on channel=0 note=56 velocity=33 time=0
note_on channel=0 note=80 velocity=50 time=0
<meta message set_tempo tempo=378668 time=14>
note_on channel=0 note=80 velocity=0 time=106
note_on channel=0 note=56 velocity=0 time=0
note_on channel=0 note=60 velocity=40 time=0
note_on channel=0 note=77 velocity=54 time=0
<meta message set_tempo tempo=265440 time=14>
note_on channel=0 note=60 velocity=0 time=106
note_on channel=0 note=56 velocity=33 time=0
note_on channel=0 note=56 velocity=0 time=120
note_on channel=0 note=60 velocity=39 time=0
note_on channel=0 note=60 velocity=0 time=120
note_on channel=0 note=56 velocity=33 time=0
note_on channel=0 note=56 velocity=0 time=120
note_on channel=0 note=60 velocity=39 time=0
note_on channel=0 note=60 velocity=0 time=120
note_on channel=0 note=56 velocity=33 time=0
note_on channel=0 note=56 velocity=0 time=120
note_on channel=0 note=77 velocity=0 time=0
note_on channel=0 note=60 velocity=39 time=0
note_on channel=0 note=72 velocity=56 time=0
note_on channel=0 note=60 velocity=0 time=120
note_on channel=0 note=56 velocity=32 time=0
note_on channel=0 note=56 velocity=0 time=120
note_on channel=0 note=60 velocity=38 time=0
<meta message set_tempo tempo=298582 time=14>
note_on channel=0 note=60 velocity=0 time=106
note_on channel=0 note=56 velocity=32 time=0
note_on channel=0 note=56 velocity=0 time=120
note_on channel=0 note=60 velocity=38 time=0
note_on channel=0 note=60 velocity=0 time=120
note_on channel=0 note=72 velocity=0 time=0
note_on channel=0 note=56 velocity=32 time=0
note_on channel=0 note=68 velocity=48 time=0
<meta message set_tempo tempo=378668 time=14>
<meta message set_tempo tempo=269663 time=106>
note_on channel=0 note=68 velocity=0 time=0
note_on channel=0 note=56 velocity=0 time=0
note_on channel=0 note=60 velocity=38 time=0
note_on channel=0 note=65 velocity=52 time=0
note_on channel=0 note=60 velocity=0 time=120
note_on channel=0 note=56 velocity=32 time=0
note_on channel=0 note=56 velocity=0 time=120
note_on channel=0 note=60 velocity=37 time=0
note_on channel=0 note=60 velocity=0 time=120
note_on channel=0 note=56 velocity=31 time=0
note_on channel=0 note=56 velocity=0 time=120
note_on channel=0 note=60 velocity=37 time=0
note_on channel=0 note=60 velocity=0 time=120
note_on channel=0 note=56 velocity=31 time=0
note_on channel=0 note=56 velocity=0 time=120
note_on channel=0 note=65 velocity=0 time=0
note_on channel=0 note=72 velocity=37 time=0
note_on channel=0 note=60 velocity=47 time=0
note_on channel=0 note=72 velocity=0 time=120
note_on channel=0 note=68 velocity=31 time=0
note_on channel=0 note=68 velocity=0 time=120
note_on channel=0 note=72 velocity=37 time=0
<meta message set_tempo tempo=298582 time=14>
note_on channel=0 note=72 velocity=0 time=106
note_on channel=0 note=68 velocity=31 time=0
note_on channel=0 note=68 velocity=0 time=120
note_on channel=0 note=72 velocity=36 time=0
note_on channel=0 note=72 velocity=0 time=120
note_on channel=0 note=60 velocity=0 time=0
note_on channel=0 note=68 velocity=31 time=0
note_on channel=0 note=56 velocity=41 time=0
<meta message set_tempo tempo=378668 time=14>
<meta message set_tempo tempo=275229 time=106>
note_on channel=0 note=56 velocity=0 time=0
note_on channel=0 note=68 velocity=0 time=0
note_on channel=0 note=72 velocity=36 time=0
note_on channel=0 note=53 velocity=44 time=0
note_on channel=0 note=72 velocity=0 time=120
note_on channel=0 note=68 velocity=30 time=0
note_on channel=0 note=68 velocity=0 time=120
note_on channel=0 note=72 velocity=36 time=0
note_on channel=0 note=72 velocity=0 time=120
note_on channel=0 note=68 velocity=30 time=0
note_on channel=0 note=68 velocity=0 time=120
note_on channel=0 note=72 velocity=35 time=0
note_on channel=0 note=72 velocity=0 time=120
note_on channel=0 note=68 velocity=30 time=0
note_on channel=0 note=68 velocity=0 time=120
note_on channel=0 note=53 velocity=0 time=0
note_on channel=0 note=72 velocity=35 time=0
note_on channel=0 note=48 velocity=45 time=0
note_on channel=0 note=72 velocity=0 time=120
note_on channel=0 note=68 velocity=30 time=0
<meta message set_tempo tempo=302267 time=120>
note_on channel=0 note=68 velocity=0 time=0
note_on channel=0 note=72 velocity=35 time=0
note_on channel=0 note=72 velocity=0 time=120
note_on channel=0 note=68 velocity=30 time=0
note_on channel=0 note=68 velocity=0 time=120
note_on channel=0 note=72 velocity=34 time=0
note_on channel=0 note=72 velocity=0 time=120
note_on channel=0 note=48 velocity=0 time=0
note_on channel=0 note=68 velocity=29 time=0
note_on channel=0 note=44 velocity=39 time=0
<meta message set_tempo tempo=378668 time=14>
<meta message set_tempo tempo=287081 time=106>
note_on channel=0 note=44 velocity=0 time=0
note_on channel=0 note=68 velocity=0 time=0
note_on channel=0 note=72 velocity=34 time=0
note_on channel=0 note=41 velocity=42 time=0
note_on channel=0 note=72 velocity=0 time=120
note_on channel=0 note=68 velocity=29 time=0
note_on channel=0 note=68 velocity=0 time=120
note_on channel=0 note=72 velocity=34 time=0
note_on channel=0 note=72 velocity=0 time=120
note_on channel=0 note=68 velocity=28 time=0
note_on channel=0 note=68 velocity=0 time=120
note_on channel=0 note=72 velocity=33 time=0
note_on channel=0 note=72 velocity=0 time=120
note_on channel=0 note=68 velocity=27 time=0
note_on channel=0 note=68 velocity=0 time=120
note_on channel=0 note=41 velocity=0 time=0
note_on channel=0 note=72 velocity=33 time=0
note_on channel=0 note=36 velocity=38 time=0
note_on channel=0 note=72 velocity=0 time=120
note_on channel=0 note=68 velocity=27 time=0
<meta message set_tempo tempo=305344 time=120>
note_on channel=0 note=68 velocity=0 time=0
note_on channel=0 note=72 velocity=32 time=0
note_on channel=0 note=72 velocity=0 time=120
note_on channel=0 note=68 velocity=27 time=0
note_on channel=0 note=68 velocity=0 time=120
note_on channel=0 note=72 velocity=31 time=0
note_on channel=0 note=72 velocity=0 time=120
note_on channel=0 note=36 velocity=0 time=0
note_on channel=0 note=68 velocity=26 time=0
note_on channel=0 note=32 velocity=27 time=0
<meta message set_tempo tempo=378668 time=14>
<meta message set_tempo tempo=295567 time=106>
note_on channel=0 note=32 velocity=0 time=0
note_on channel=0 note=68 velocity=0 time=0
note_on channel=0 note=72 velocity=31 time=0
note_on channel=0 note=29 velocity=28 time=0
note_on channel=0 note=72 velocity=0 time=120
note_on channel=0 note=68 velocity=26 time=0
note_on channel=0 note=68 velocity=0 time=120
note_on channel=0 note=72 velocity=31 time=0
note_on channel=0 note=72 velocity=0 time=120
note_on channel=0 note=68 velocity=25 time=0
note_on channel=0 note=68 velocity=0 time=120
note_on channel=0 note=72 velocity=30 time=0
note_on channel=0 note=72 velocity=0 time=120
note_on channel=0 note=68 velocity=25 time=0
note_on channel=0 note=68 velocity=0 time=120
note_on channel=0 note=29 velocity=0 time=0
note_on channel=0 note=72 velocity=29 time=0
note_on channel=0 note=29 velocity=27 time=0
note_on channel=0 note=72 velocity=0 time=120
note_on channel=0 note=68 velocity=25 time=0
note_on channel=0 note=68 velocity=0 time=120
note_on channel=0 note=72 velocity=29 time=0
note_on channel=0 note=72 velocity=0 time=120
note_on channel=0 note=68 velocity=24 time=0
note_on channel=0 note=68 velocity=0 time=120
note_on channel=0 note=72 velocity=29 time=0
note_on channel=0 note=72 velocity=0 time=120
note_on channel=0 note=68 velocity=24 time=0
<meta message set_tempo tempo=294132 time=80>
note_on channel=0 note=68 velocity=0 time=40
note_on channel=0 note=29 velocity=0 time=0
note_on channel=0 note=72 velocity=28 time=0
note_on channel=0 note=29 velocity=27 time=0
<meta message set_tempo tempo=294855 time=17>
<meta message set_tempo tempo=295581 time=39>
<meta message set_tempo tempo=296311 time=38>
note_on channel=0 note=72 velocity=0 time=26
note_on channel=0 note=68 velocity=23 time=0
<meta message set_tempo tempo=297044 time=13>
<meta message set_tempo tempo=297782 time=38>
<meta message set_tempo tempo=298522 time=58>
note_on channel=0 note=68 velocity=0 time=11
note_on channel=0 note=72 velocity=27 time=0
<meta message set_tempo tempo=299267 time=27>
<meta message set_tempo tempo=300015 time=38>
<meta message set_tempo tempo=300767 time=39>
note_on channel=0 note=72 velocity=0 time=16
note_on channel=0 note=68 velocity=23 time=0
<meta message set_tempo tempo=301523 time=22>
<meta message set_tempo tempo=302282 time=58>
<meta message set_tempo tempo=303046 time=38>
note_on channel=0 note=68 velocity=0 time=2
note_on channel=0 note=72 velocity=26 time=0
<meta message set_tempo tempo=303813 time=37>
<meta message set_tempo tempo=304584 time=38>
<meta message set_tempo tempo=305359 time=38>
note_on channel=0 note=72 velocity=0 time=7
note_on channel=0 note=68 velocity=22 time=0
<meta message set_tempo tempo=306138 time=51>
<meta message set_tempo tempo=306921 time=38>
note_on channel=0 note=68 velocity=0 time=31
note_on channel=0 note=72 velocity=26 time=0
<meta message set_tempo tempo=307708 time=8>
<meta message set_tempo tempo=308499 time=38>
<meta message set_tempo tempo=309294 time=39>
note_on channel=0 note=72 velocity=0 time=35
note_on channel=0 note=68 velocity=22 time=0
<meta message set_tempo tempo=310094 time=22>
<meta message set_tempo tempo=310897 time=39>
<meta message set_tempo tempo=311705 time=38>
note_on channel=0 note=68 velocity=0 time=21
note_on channel=0 note=72 velocity=25 time=0
<meta message set_tempo tempo=312516 time=17>
<meta message set_tempo tempo=313332 time=39>
<meta message set_tempo tempo=314153 time=57>
note_on channel=0 note=72 velocity=0 time=7
note_on channel=0 note=68 velocity=21 time=0
<meta message set_tempo tempo=314977 time=32>
<meta message set_tempo tempo=315806 time=38>
<meta message set_tempo tempo=316639 time=39>
note_on channel=0 note=68 velocity=0 time=11
note_on channel=0 note=72 velocity=24 time=0
<meta message set_tempo tempo=317477 time=27>
<meta message set_tempo tempo=318319 time=58>
note_on channel=0 note=72 velocity=0 time=35
note_on channel=0 note=68 velocity=20 time=0
<meta message set_tempo tempo=319166 time=3>
<meta message set_tempo tempo=320017 time=38>
<meta message set_tempo tempo=320873 time=39>
<meta message set_tempo tempo=321733 time=38>
note_on channel=0 note=68 velocity=0 time=2
note_on channel=0 note=29 velocity=0 time=0
note_on channel=0 note=72 velocity=23 time=0
note_on channel=0 note=29 velocity=19 time=0
<meta message set_tempo tempo=323468 time=17>
<meta message set_tempo tempo=324342 time=20>
<meta message set_tempo tempo=326105 time=19>
<meta message set_tempo tempo=326993 time=19>
<meta message set_tempo tempo=328785 time=19>
<meta message set_tempo tempo=329688 time=19>
note_on channel=0 note=72 velocity=0 time=7
note_on channel=0 note=68 velocity=20 time=0
<meta message set_tempo tempo=331510 time=13>
<meta message set_tempo tempo=332428 time=19>
<meta message set_tempo tempo=334280 time=19>
<meta message set_tempo tempo=335214 time=19>
<meta message set_tempo tempo=337098 time=19>
<meta message set_tempo tempo=339002 time=20>
note_on channel=0 note=68 velocity=0 time=11
note_on channel=0 note=72 velocity=23 time=0
<meta message set_tempo tempo=339963 time=8>
<meta message set_tempo tempo=341900 time=19>
<meta message set_tempo tempo=342877 time=19>
<meta message set_tempo tempo=344847 time=19>
<meta message set_tempo tempo=345841 time=20>
<meta message set_tempo tempo=347846 time=19>
note_on channel=0 note=72 velocity=0 time=16
note_on channel=0 note=68 velocity=19 time=0
<meta message set_tempo tempo=348857 time=3>
<meta message set_tempo tempo=350898 time=19>
<meta message set_tempo tempo=351927 time=19>
<meta message set_tempo tempo=354003 time=20>
<meta message set_tempo tempo=356104 time=19>
<meta message set_tempo tempo=357164 time=19>
<meta message set_tempo tempo=359303 time=19>
note_on channel=0 note=68 velocity=0 time=2
note_on channel=0 note=72 velocity=22 time=0
<meta message set_tempo tempo=360382 time=17>
<meta message set_tempo tempo=362560 time=20>
<meta message set_tempo tempo=363658 time=19>
<meta message set_tempo tempo=365876 time=19>
<meta message set_tempo tempo=366995 time=19>
<meta message set_tempo tempo=369253 time=19>
note_on channel=0 note=72 velocity=0 time=7
note_on channel=0 note=68 velocity=18 time=0
<meta message set_tempo tempo=370393 time=13>
<meta message set_tempo tempo=372694 time=19>
<meta message set_tempo tempo=375023 time=19>
<meta message set_tempo tempo=376199 time=19>
<meta message set_tempo tempo=378573 time=19>
<meta message set_tempo tempo=379771 time=20>
note_on channel=0 note=68 velocity=0 time=11
note_on channel=0 note=72 velocity=21 time=0
<meta message set_tempo tempo=382190 time=8>
<meta message set_tempo tempo=383411 time=19>
<meta message set_tempo tempo=385877 time=19>
<meta message set_tempo tempo=387122 time=19>
<meta message set_tempo tempo=389636 time=20>
<meta message set_tempo tempo=390905 time=19>
note_on channel=0 note=72 velocity=0 time=16
note_on channel=0 note=68 velocity=18 time=0
<meta message set_tempo tempo=393468 time=3>
<meta message set_tempo tempo=396066 time=19>
<meta message set_tempo tempo=400027 time=19>
<meta message set_tempo tempo=404068 time=20>
<meta message set_tempo tempo=409584 time=19>
<meta message set_tempo tempo=413822 time=19>
<meta message set_tempo tempo=419610 time=19>
note_on channel=0 note=68 velocity=0 time=2
note_on channel=0 note=72 velocity=21 time=0
<meta message set_tempo tempo=424058 time=17>
<meta message set_tempo tempo=430138 time=20>
<meta message set_tempo tempo=434814 time=19>
<meta message set_tempo tempo=441209 time=19>
<meta message set_tempo tempo=446130 time=19>
<meta message set_tempo tempo=452864 time=19>
note_on channel=0 note=72 velocity=0 time=7
note_on channel=0 note=68 velocity=17 time=0
<meta message set_tempo tempo=458050 time=13>
<meta message set_tempo tempo=465152 time=19>
<meta message set_tempo tempo=470625 time=19>
<meta message set_tempo tempo=478126 time=19>
<meta message set_tempo tempo=483910 time=19>
<meta message set_tempo tempo=491844 time=20>
note_on channel=0 note=68 velocity=0 time=11
note_on channel=0 note=72 velocity=20 time=0
<meta message set_tempo tempo=1081276 time=120>
note_on channel=0 note=72 velocity=0 time=0
note_on channel=0 note=68 velocity=17 time=0
<meta message set_tempo tempo=376176 time=120>
note_on channel=0 note=68 velocity=0 time=0
note_on channel=0 note=29 velocity=0 time=0
note_on channel=0 note=72 velocity=18 time=0
note_on channel=0 note=68 velocity=15 time=0
note_on channel=0 note=29 velocity=12 time=0
<meta message set_tempo tempo=400000 time=2880>
note_on channel=0 note=29 velocity=0 time=0
note_on channel=0 note=68 velocity=0 time=0
note_on channel=0 note=72 velocity=0 time=0
control_change channel=0 control=64 value=0 time=2460
<meta message end_of_track time=0>
