<meta message track_name name='Brahms: Intermezzo Opus 117 Nr. 2' time=0>
<meta message copyright text='Copyright © 2010 by Bernd Krueger' time=0>
<meta message text text='Bernd Krueger' time=0>
<meta message text text='Andante non troppo e con molto espressione' time=0>
<meta message text text='Erstellt: 26.10.2010\n' time=0>
<meta message text text='Dauer: 3:47 Minuten\n' time=0>
<meta message time_signature numerator=3 denominator=8 clocks_per_click=12 notated_32nd_notes_per_beat=8 time=0>
<meta message key_signature key='Db' time=0>
<meta message set_tempo tempo=1625135 time=0>
program_change channel=0 program=0 time=0
program_change channel=0 program=0 time=0
program_change channel=0 program=0 time=0
<meta message set_tempo tempo=1803969 time=360>
<meta message marker text='Teil 1' time=60>
note_on channel=0 note=73 velocity=38 time=0
<meta message set_tempo tempo=1605136 time=60>
note_on channel=0 note=73 velocity=0 time=0
note_on channel=0 note=72 velocity=42 time=0
note_on channel=0 note=39 velocity=25 time=0
control_change channel=0 control=64 value=127 time=39
note_on channel=0 note=39 velocity=0 time=21
note_on channel=0 note=72 velocity=0 time=0
note_on channel=0 note=66 velocity=27 time=0
<meta message set_tempo tempo=1671309 time=60>
note_on channel=0 note=66 velocity=0 time=0
note_on channel=0 note=60 velocity=26 time=0
note_on channel=0 note=60 velocity=0 time=60
note_on channel=0 note=72 velocity=34 time=0
<meta message set_tempo tempo=1605136 time=60>
note_on channel=0 note=72 velocity=0 time=0
note_on channel=0 note=70 velocity=41 time=0
note_on channel=0 note=37 velocity=29 time=0
control_change channel=0 control=64 value=0 time=3
control_change channel=0 control=64 value=127 time=32
note_on channel=0 note=65 velocity=27 time=25
note_on channel=0 note=65 velocity=0 time=60
note_on channel=0 note=37 velocity=0 time=0
note_on channel=0 note=58 velocity=27 time=0
note_on channel=0 note=58 velocity=0 time=60
note_on channel=0 note=52 velocity=28 time=0
control_change channel=0 control=64 value=0 time=12
note_on channel=0 note=70 velocity=0 time=48
note_on channel=0 note=53 velocity=31 time=0
note_on channel=0 note=52 velocity=0 time=10
control_change channel=0 control=64 value=127 time=19
note_on channel=0 note=53 velocity=0 time=31
note_on channel=0 note=58 velocity=20 time=0
note_on channel=0 note=58 velocity=0 time=60
note_on channel=0 note=65 velocity=19 time=0
<meta message set_tempo tempo=1803969 time=60>
note_on channel=0 note=65 velocity=0 time=0
note_on channel=0 note=70 velocity=38 time=0
control_change channel=0 control=64 value=0 time=20
<meta message set_tempo tempo=1605136 time=40>
note_on channel=0 note=72 velocity=42 time=0
note_on channel=0 note=39 velocity=25 time=0
note_on channel=0 note=70 velocity=0 time=20
control_change channel=0 control=64 value=127 time=19
note_on channel=0 note=39 velocity=0 time=21
note_on channel=0 note=72 velocity=0 time=0
note_on channel=0 note=66 velocity=27 time=0
<meta message set_tempo tempo=1755413 time=60>
note_on channel=0 note=66 velocity=0 time=0
note_on channel=0 note=60 velocity=26 time=0
note_on channel=0 note=60 velocity=0 time=60
note_on channel=0 note=72 velocity=43 time=0
<meta message set_tempo tempo=1605136 time=60>
note_on channel=0 note=72 velocity=0 time=0
note_on channel=0 note=77 velocity=47 time=0
note_on channel=0 note=37 velocity=29 time=0
control_change channel=0 control=64 value=0 time=3
control_change channel=0 control=64 value=127 time=32
note_on channel=0 note=70 velocity=27 time=25
note_on channel=0 note=70 velocity=0 time=60
note_on channel=0 note=37 velocity=0 time=0
note_on channel=0 note=65 velocity=27 time=0
note_on channel=0 note=65 velocity=0 time=60
note_on channel=0 note=57 velocity=28 time=0
control_change channel=0 control=64 value=0 time=12
note_on channel=0 note=77 velocity=0 time=48
note_on channel=0 note=58 velocity=31 time=0
note_on channel=0 note=57 velocity=0 time=10
control_change channel=0 control=64 value=127 time=33
note_on channel=0 note=58 velocity=0 time=17
note_on channel=0 note=65 velocity=20 time=0
note_on channel=0 note=65 velocity=0 time=60
note_on channel=0 note=70 velocity=19 time=0
<meta message set_tempo tempo=1694915 time=60>
note_on channel=0 note=70 velocity=0 time=0
note_on channel=0 note=77 velocity=43 time=0
control_change channel=0 control=64 value=0 time=20
control_change channel=0 control=64 value=127 time=37
<meta message set_tempo tempo=1605136 time=3>
note_on channel=0 note=77 velocity=0 time=0
note_on channel=0 note=80 velocity=56 time=0
note_on channel=0 note=34 velocity=25 time=0
note_on channel=0 note=80 velocity=0 time=60
note_on channel=0 note=73 velocity=27 time=0
<meta message set_tempo tempo=1648352 time=60>
note_on channel=0 note=73 velocity=0 time=0
note_on channel=0 note=34 velocity=0 time=0
note_on channel=0 note=68 velocity=34 time=0
note_on channel=0 note=68 velocity=0 time=60
note_on channel=0 note=80 velocity=39 time=0
<meta message set_tempo tempo=1605136 time=60>
note_on channel=0 note=80 velocity=0 time=0
note_on channel=0 note=78 velocity=49 time=0
note_on channel=0 note=39 velocity=29 time=0
control_change channel=0 control=64 value=0 time=3
control_change channel=0 control=64 value=127 time=32
note_on channel=0 note=78 velocity=0 time=25
note_on channel=0 note=73 velocity=27 time=0
note_on channel=0 note=73 velocity=0 time=60
note_on channel=0 note=39 velocity=0 time=0
note_on channel=0 note=66 velocity=27 time=0
note_on channel=0 note=66 velocity=0 time=60
note_on channel=0 note=57 velocity=26 time=0
control_change channel=0 control=64 value=0 time=12
note_on channel=0 note=58 velocity=31 time=48
note_on channel=0 note=57 velocity=0 time=10
control_change channel=0 control=64 value=127 time=33
note_on channel=0 note=58 velocity=0 time=17
note_on channel=0 note=61 velocity=20 time=0
note_on channel=0 note=61 velocity=0 time=60
note_on channel=0 note=70 velocity=19 time=0
<meta message set_tempo tempo=1803969 time=60>
note_on channel=0 note=70 velocity=0 time=0
note_on channel=0 note=73 velocity=38 time=0
control_change channel=0 control=64 value=0 time=20
<meta message set_tempo tempo=1645639 time=40>
note_on channel=0 note=78 velocity=42 time=0
note_on channel=0 note=32 velocity=25 time=0
note_on channel=0 note=73 velocity=0 time=20
control_change channel=0 control=64 value=127 time=19
note_on channel=0 note=78 velocity=0 time=21
note_on channel=0 note=72 velocity=27 time=0
<meta message set_tempo tempo=1604278 time=60>
note_on channel=0 note=72 velocity=0 time=0
note_on channel=0 note=32 velocity=0 time=0
note_on channel=0 note=66 velocity=26 time=0
note_on channel=0 note=66 velocity=0 time=60
note_on channel=0 note=78 velocity=34 time=0
<meta message set_tempo tempo=1605136 time=60>
note_on channel=0 note=78 velocity=0 time=0
note_on channel=0 note=77 velocity=41 time=0
note_on channel=0 note=37 velocity=29 time=0
control_change channel=0 control=64 value=0 time=3
control_change channel=0 control=64 value=127 time=32
note_on channel=0 note=77 velocity=0 time=25
note_on channel=0 note=72 velocity=27 time=0
note_on channel=0 note=72 velocity=0 time=60
note_on channel=0 note=37 velocity=0 time=0
note_on channel=0 note=65 velocity=25 time=0
note_on channel=0 note=65 velocity=0 time=60
note_on channel=0 note=55 velocity=22 time=0
control_change channel=0 control=64 value=0 time=12
note_on channel=0 note=56 velocity=27 time=48
note_on channel=0 note=55 velocity=0 time=10
control_change channel=0 control=64 value=127 time=33
note_on channel=0 note=56 velocity=0 time=17
note_on channel=0 note=60 velocity=18 time=0
note_on channel=0 note=60 velocity=0 time=60
note_on channel=0 note=68 velocity=17 time=0
<meta message set_tempo tempo=1755413 time=60>
note_on channel=0 note=68 velocity=0 time=0
note_on channel=0 note=72 velocity=34 time=0
control_change channel=0 control=64 value=0 time=20
<meta message set_tempo tempo=1605136 time=40>
note_on channel=0 note=72 velocity=0 time=0
note_on channel=0 note=77 velocity=41 time=0
note_on channel=0 note=30 velocity=29 time=0
control_change channel=0 control=64 value=127 time=0
note_on channel=0 note=77 velocity=0 time=60
note_on channel=0 note=70 velocity=27 time=0
note_on channel=0 note=70 velocity=0 time=60
note_on channel=0 note=30 velocity=0 time=0
note_on channel=0 note=65 velocity=27 time=0
<meta message set_tempo tempo=1755413 time=60>
note_on channel=0 note=65 velocity=0 time=0
note_on channel=0 note=77 velocity=34 time=0
<meta message set_tempo tempo=1605136 time=60>
note_on channel=0 note=77 velocity=0 time=0
note_on channel=0 note=75 velocity=41 time=0
note_on channel=0 note=36 velocity=29 time=0
control_change channel=0 control=64 value=0 time=3
control_change channel=0 control=64 value=127 time=32
note_on channel=0 note=75 velocity=0 time=25
note_on channel=0 note=70 velocity=27 time=0
note_on channel=0 note=70 velocity=0 time=60
note_on channel=0 note=36 velocity=0 time=0
note_on channel=0 note=63 velocity=27 time=0
<meta message set_tempo tempo=1755413 time=60>
note_on channel=0 note=63 velocity=0 time=0
note_on channel=0 note=73 velocity=34 time=0
<meta message set_tempo tempo=1605136 time=60>
note_on channel=0 note=73 velocity=0 time=0
note_on channel=0 note=72 velocity=41 time=0
note_on channel=0 note=39 velocity=29 time=0
control_change channel=0 control=64 value=0 time=3
control_change channel=0 control=64 value=127 time=32
note_on channel=0 note=72 velocity=0 time=25
note_on channel=0 note=66 velocity=27 time=0
note_on channel=0 note=66 velocity=0 time=60
note_on channel=0 note=39 velocity=0 time=0
note_on channel=0 note=60 velocity=27 time=0
<meta message set_tempo tempo=1605136 time=60>
note_on channel=0 note=60 velocity=0 time=0
note_on channel=0 note=53 velocity=26 time=0
control_change channel=0 control=64 value=0 time=12
note_on channel=0 note=54 velocity=31 time=48
note_on channel=0 note=53 velocity=0 time=10
control_change channel=0 control=64 value=127 time=33
note_on channel=0 note=54 velocity=0 time=17
note_on channel=0 note=58 velocity=20 time=0
note_on channel=0 note=58 velocity=0 time=60
note_on channel=0 note=66 velocity=19 time=0
<meta message set_tempo tempo=1908397 time=60>
note_on channel=0 note=66 velocity=0 time=0
note_on channel=0 note=77 velocity=38 time=0
control_change channel=0 control=64 value=0 time=20
<meta message set_tempo tempo=1666204 time=40>
note_on channel=0 note=75 velocity=42 time=0
note_on channel=0 note=29 velocity=25 time=0
note_on channel=0 note=77 velocity=0 time=20
control_change channel=0 control=64 value=127 time=19
<meta message set_tempo tempo=1645639 time=21>
note_on channel=0 note=75 velocity=0 time=0
note_on channel=0 note=69 velocity=27 time=0
<meta message set_tempo tempo=1648352 time=60>
note_on channel=0 note=69 velocity=0 time=0
note_on channel=0 note=29 velocity=0 time=0
note_on channel=0 note=63 velocity=26 time=0
note_on channel=0 note=63 velocity=0 time=60
note_on channel=0 note=73 velocity=34 time=0
<meta message set_tempo tempo=1625135 time=60>
note_on channel=0 note=73 velocity=0 time=0
note_on channel=0 note=72 velocity=41 time=0
note_on channel=0 note=41 velocity=29 time=0
control_change channel=0 control=64 value=0 time=3
control_change channel=0 control=64 value=127 time=32
<meta message set_tempo tempo=1605136 time=25>
note_on channel=0 note=72 velocity=0 time=0
note_on channel=0 note=69 velocity=27 time=0
note_on channel=0 note=69 velocity=0 time=60
note_on channel=0 note=41 velocity=0 time=0
note_on channel=0 note=63 velocity=27 time=0
<meta message set_tempo tempo=1605136 time=60>
note_on channel=0 note=63 velocity=0 time=0
note_on channel=0 note=52 velocity=28 time=0
control_change channel=0 control=64 value=0 time=12
<meta message set_tempo tempo=1605136 time=48>
note_on channel=0 note=53 velocity=31 time=0
note_on channel=0 note=52 velocity=0 time=10
control_change channel=0 control=64 value=127 time=33
note_on channel=0 note=53 velocity=0 time=17
note_on channel=0 note=57 velocity=20 time=0
note_on channel=0 note=57 velocity=0 time=60
note_on channel=0 note=65 velocity=19 time=0
<meta message set_tempo tempo=1803969 time=60>
note_on channel=0 note=65 velocity=0 time=0
note_on channel=0 note=78 velocity=38 time=0
control_change channel=0 control=64 value=0 time=20
<meta message set_tempo tempo=1626016 time=40>
note_on channel=0 note=77 velocity=42 time=0
note_on channel=0 note=78 velocity=0 time=20
control_change channel=0 control=64 value=127 time=9
note_on channel=0 note=72 velocity=27 time=31
<meta message set_tempo tempo=1583113 time=60>
note_on channel=0 note=72 velocity=0 time=0
note_on channel=0 note=69 velocity=26 time=0
note_on channel=0 note=69 velocity=0 time=60
note_on channel=0 note=65 velocity=24 time=0
<meta message set_tempo tempo=1558846 time=60>
note_on channel=0 note=65 velocity=0 time=0
note_on channel=0 note=77 velocity=0 time=0
note_on channel=0 note=76 velocity=42 time=0
control_change channel=0 control=64 value=0 time=19
control_change channel=0 control=64 value=127 time=36
note_on channel=0 note=72 velocity=27 time=5
<meta message set_tempo tempo=1538856 time=60>
note_on channel=0 note=72 velocity=0 time=0
note_on channel=0 note=69 velocity=26 time=0
note_on channel=0 note=69 velocity=0 time=60
note_on channel=0 note=65 velocity=24 time=0
<meta message set_tempo tempo=1522843 time=60>
note_on channel=0 note=65 velocity=0 time=0
note_on channel=0 note=76 velocity=0 time=0
note_on channel=0 note=75 velocity=42 time=0
control_change channel=0 control=64 value=0 time=17
note_on channel=0 note=72 velocity=27 time=43
control_change channel=0 control=64 value=127 time=0
<meta message set_tempo tempo=1645639 time=60>
note_on channel=0 note=72 velocity=0 time=0
note_on channel=0 note=69 velocity=26 time=0
<meta message set_tempo tempo=1562500 time=60>
note_on channel=0 note=69 velocity=0 time=0
note_on channel=0 note=65 velocity=24 time=0
note_on channel=0 note=65 velocity=0 time=60
note_on channel=0 note=75 velocity=0 time=0
note_on channel=0 note=73 velocity=41 time=0
control_change channel=0 control=64 value=0 time=0
control_change channel=0 control=64 value=127 time=35
note_on channel=0 note=69 velocity=33 time=25
<meta message set_tempo tempo=1522843 time=60>
note_on channel=0 note=66 velocity=28 time=0
<meta message set_tempo tempo=1522843 time=12>
note_on channel=0 note=61 velocity=22 time=48
note_on channel=0 note=61 velocity=0 time=60
note_on channel=0 note=57 velocity=24 time=0
<meta message set_tempo tempo=1542416 time=48>
note_on channel=0 note=57 velocity=0 time=12
note_on channel=0 note=54 velocity=24 time=0
note_on channel=0 note=54 velocity=0 time=60
note_on channel=0 note=49 velocity=24 time=0
note_on channel=0 note=49 velocity=0 time=60
note_on channel=0 note=45 velocity=22 time=0
<meta message set_tempo tempo=1562500 time=12>
note_on channel=0 note=45 velocity=0 time=48
note_on channel=0 note=42 velocity=22 time=0
note_on channel=0 note=42 velocity=0 time=60
note_on channel=0 note=37 velocity=22 time=0
<meta message set_tempo tempo=1583113 time=48>
note_on channel=0 note=37 velocity=0 time=12
note_on channel=0 note=33 velocity=22 time=0
note_on channel=0 note=33 velocity=0 time=60
note_on channel=0 note=30 velocity=22 time=0
note_on channel=0 note=30 velocity=0 time=60
note_on channel=0 note=27 velocity=22 time=0
control_change channel=0 control=64 value=0 time=0
<meta message set_tempo tempo=1604278 time=12>
control_change channel=0 control=64 value=127 time=23
note_on channel=0 note=27 velocity=0 time=25
note_on channel=0 note=39 velocity=21 time=0
note_on channel=0 note=39 velocity=0 time=60
note_on channel=0 note=42 velocity=22 time=0
note_on channel=0 note=42 velocity=0 time=60
note_on channel=0 note=45 velocity=23 time=0
note_on channel=0 note=45 velocity=0 time=60
note_on channel=0 note=51 velocity=24 time=0
note_on channel=0 note=51 velocity=0 time=60
note_on channel=0 note=54 velocity=26 time=0
note_on channel=0 note=54 velocity=0 time=60
note_on channel=0 note=57 velocity=27 time=0
note_on channel=0 note=73 velocity=0 time=40
note_on channel=0 note=66 velocity=0 time=0
note_on channel=0 note=69 velocity=0 time=0
<meta message set_tempo tempo=1803969 time=20>
note_on channel=0 note=57 velocity=0 time=0
note_on channel=0 note=73 velocity=38 time=0
control_change channel=0 control=64 value=0 time=16
<meta message set_tempo tempo=1605136 time=44>
note_on channel=0 note=72 velocity=42 time=0
note_on channel=0 note=39 velocity=25 time=0
note_on channel=0 note=73 velocity=0 time=20
control_change channel=0 control=64 value=127 time=19
note_on channel=0 note=72 velocity=0 time=21
note_on channel=0 note=66 velocity=27 time=0
<meta message set_tempo tempo=1671309 time=60>
note_on channel=0 note=66 velocity=0 time=0
note_on channel=0 note=39 velocity=0 time=0
note_on channel=0 note=60 velocity=26 time=0
note_on channel=0 note=60 velocity=0 time=60
note_on channel=0 note=72 velocity=34 time=0
<meta message set_tempo tempo=1605136 time=60>
note_on channel=0 note=72 velocity=0 time=0
note_on channel=0 note=70 velocity=41 time=0
note_on channel=0 note=37 velocity=29 time=0
control_change channel=0 control=64 value=0 time=3
control_change channel=0 control=64 value=127 time=32
note_on channel=0 note=65 velocity=27 time=25
note_on channel=0 note=65 velocity=0 time=60
note_on channel=0 note=37 velocity=0 time=0
note_on channel=0 note=58 velocity=27 time=0
note_on channel=0 note=58 velocity=0 time=60
note_on channel=0 note=52 velocity=28 time=0
control_change channel=0 control=64 value=0 time=12
note_on channel=0 note=70 velocity=0 time=48
note_on channel=0 note=53 velocity=31 time=0
note_on channel=0 note=52 velocity=0 time=10
control_change channel=0 control=64 value=127 time=33
note_on channel=0 note=53 velocity=0 time=17
note_on channel=0 note=58 velocity=20 time=0
note_on channel=0 note=58 velocity=0 time=60
note_on channel=0 note=65 velocity=19 time=0
<meta message set_tempo tempo=1648352 time=60>
note_on channel=0 note=65 velocity=0 time=0
note_on channel=0 note=70 velocity=38 time=0
control_change channel=0 control=64 value=0 time=20
<meta message set_tempo tempo=1605136 time=40>
note_on channel=0 note=72 velocity=42 time=0
note_on channel=0 note=39 velocity=25 time=0
note_on channel=0 note=70 velocity=0 time=10
control_change channel=0 control=64 value=127 time=29
note_on channel=0 note=72 velocity=0 time=21
note_on channel=0 note=66 velocity=27 time=0
<meta message set_tempo tempo=1604278 time=60>
note_on channel=0 note=66 velocity=0 time=0
note_on channel=0 note=39 velocity=0 time=0
note_on channel=0 note=60 velocity=26 time=0
note_on channel=0 note=60 velocity=0 time=60
note_on channel=0 note=72 velocity=34 time=0
<meta message set_tempo tempo=1605136 time=60>
note_on channel=0 note=72 velocity=0 time=0
note_on channel=0 note=77 velocity=46 time=0
note_on channel=0 note=37 velocity=29 time=0
control_change channel=0 control=64 value=0 time=3
control_change channel=0 control=64 value=127 time=32
note_on channel=0 note=72 velocity=27 time=25
note_on channel=0 note=37 velocity=0 time=60
note_on channel=0 note=65 velocity=27 time=0
note_on channel=0 note=65 velocity=0 time=60
note_on channel=0 note=57 velocity=28 time=0
control_change channel=0 control=64 value=0 time=12
note_on channel=0 note=72 velocity=0 time=48
note_on channel=0 note=77 velocity=0 time=0
note_on channel=0 note=58 velocity=31 time=0
note_on channel=0 note=57 velocity=0 time=10
control_change channel=0 control=64 value=127 time=33
note_on channel=0 note=58 velocity=0 time=17
note_on channel=0 note=65 velocity=20 time=0
note_on channel=0 note=65 velocity=0 time=60
note_on channel=0 note=70 velocity=19 time=0
<meta message set_tempo tempo=1803969 time=60>
note_on channel=0 note=70 velocity=0 time=0
note_on channel=0 note=77 velocity=46 time=0
control_change channel=0 control=64 value=0 time=20
<meta message set_tempo tempo=1562500 time=40>
note_on channel=0 note=82 velocity=54 time=0
note_on channel=0 note=36 velocity=30 time=0
note_on channel=0 note=77 velocity=0 time=10
control_change channel=0 control=64 value=127 time=29
note_on channel=0 note=82 velocity=0 time=21
note_on channel=0 note=76 velocity=33 time=0
<meta message set_tempo tempo=1604278 time=60>
note_on channel=0 note=76 velocity=0 time=0
note_on channel=0 note=36 velocity=0 time=0
note_on channel=0 note=70 velocity=41 time=0
<meta message set_tempo tempo=1666204 time=60>
note_on channel=0 note=70 velocity=0 time=0
note_on channel=0 note=82 velocity=49 time=0
<meta message set_tempo tempo=1605136 time=60>
note_on channel=0 note=82 velocity=0 time=0
note_on channel=0 note=81 velocity=60 time=0
note_on channel=0 note=41 velocity=35 time=0
control_change channel=0 control=64 value=0 time=3
control_change channel=0 control=64 value=127 time=32
note_on channel=0 note=81 velocity=0 time=25
note_on channel=0 note=75 velocity=32 time=0
note_on channel=0 note=75 velocity=0 time=60
note_on channel=0 note=41 velocity=0 time=0
note_on channel=0 note=69 velocity=32 time=0
note_on channel=0 note=69 velocity=0 time=60
note_on channel=0 note=59 velocity=38 time=0
control_change channel=0 control=64 value=0 time=12
note_on channel=0 note=60 velocity=42 time=48
note_on channel=0 note=59 velocity=0 time=10
control_change channel=0 control=64 value=127 time=33
note_on channel=0 note=60 velocity=0 time=17
note_on channel=0 note=63 velocity=38 time=0
note_on channel=0 note=63 velocity=0 time=60
note_on channel=0 note=72 velocity=23 time=0
<meta message set_tempo tempo=1803969 time=60>
note_on channel=0 note=72 velocity=0 time=0
note_on channel=0 note=77 velocity=45 time=0
control_change channel=0 control=64 value=0 time=20
<meta message set_tempo tempo=1645639 time=40>
note_on channel=0 note=77 velocity=0 time=0
note_on channel=0 note=80 velocity=52 time=0
note_on channel=0 note=34 velocity=30 time=0
control_change channel=0 control=64 value=127 time=39
note_on channel=0 note=80 velocity=0 time=21
note_on channel=0 note=74 velocity=33 time=0
<meta message set_tempo tempo=1694915 time=60>
note_on channel=0 note=74 velocity=0 time=0
note_on channel=0 note=34 velocity=0 time=0
note_on channel=0 note=68 velocity=32 time=0
note_on channel=0 note=68 velocity=0 time=60
note_on channel=0 note=80 velocity=43 time=0
<meta message set_tempo tempo=1605136 time=60>
note_on channel=0 note=80 velocity=0 time=0
note_on channel=0 note=79 velocity=51 time=0
note_on channel=0 note=39 velocity=35 time=0
control_change channel=0 control=64 value=0 time=3
control_change channel=0 control=64 value=127 time=32
note_on channel=0 note=79 velocity=0 time=25
note_on channel=0 note=73 velocity=32 time=0
note_on channel=0 note=73 velocity=0 time=60
note_on channel=0 note=39 velocity=0 time=0
note_on channel=0 note=67 velocity=32 time=0
note_on channel=0 note=67 velocity=0 time=60
note_on channel=0 note=57 velocity=31 time=0
control_change channel=0 control=64 value=0 time=12
note_on channel=0 note=58 velocity=37 time=48
note_on channel=0 note=57 velocity=0 time=10
control_change channel=0 control=64 value=127 time=33
note_on channel=0 note=58 velocity=0 time=17
note_on channel=0 note=61 velocity=21 time=0
note_on channel=0 note=61 velocity=0 time=60
note_on channel=0 note=70 velocity=20 time=0
<meta message set_tempo tempo=1648352 time=60>
note_on channel=0 note=70 velocity=0 time=0
note_on channel=0 note=75 velocity=41 time=0
control_change channel=0 control=64 value=0 time=20
<meta message set_tempo tempo=1605136 time=40>
note_on channel=0 note=75 velocity=0 time=0
note_on channel=0 note=78 velocity=49 time=0
note_on channel=0 note=32 velocity=35 time=0
control_change channel=0 control=64 value=127 time=0
note_on channel=0 note=78 velocity=0 time=60
note_on channel=0 note=72 velocity=32 time=0
note_on channel=0 note=72 velocity=0 time=60
note_on channel=0 note=32 velocity=0 time=0
note_on channel=0 note=66 velocity=32 time=0
<meta message set_tempo tempo=1755413 time=60>
note_on channel=0 note=66 velocity=0 time=0
note_on channel=0 note=78 velocity=41 time=0
<meta message set_tempo tempo=1605136 time=60>
note_on channel=0 note=78 velocity=0 time=0
note_on channel=0 note=77 velocity=49 time=0
note_on channel=0 note=37 velocity=35 time=0
control_change channel=0 control=64 value=0 time=3
control_change channel=0 control=64 value=127 time=32
note_on channel=0 note=77 velocity=0 time=25
note_on channel=0 note=71 velocity=32 time=0
note_on channel=0 note=71 velocity=0 time=60
note_on channel=0 note=37 velocity=0 time=0
note_on channel=0 note=65 velocity=32 time=0
<meta message set_tempo tempo=1755413 time=60>
note_on channel=0 note=65 velocity=0 time=0
note_on channel=0 note=75 velocity=41 time=0
<meta message set_tempo tempo=1605136 time=60>
note_on channel=0 note=75 velocity=0 time=0
note_on channel=0 note=73 velocity=49 time=0
note_on channel=0 note=49 velocity=35 time=0
control_change channel=0 control=64 value=0 time=3
control_change channel=0 control=64 value=127 time=32
note_on channel=0 note=73 velocity=0 time=25
note_on channel=0 note=71 velocity=32 time=0
note_on channel=0 note=71 velocity=0 time=60
note_on channel=0 note=49 velocity=0 time=0
note_on channel=0 note=65 velocity=32 time=0
<meta message set_tempo tempo=1605136 time=60>
note_on channel=0 note=65 velocity=0 time=0
note_on channel=0 note=55 velocity=33 time=0
control_change channel=0 control=64 value=0 time=12
note_on channel=0 note=56 velocity=37 time=48
note_on channel=0 note=55 velocity=0 time=10
control_change channel=0 control=64 value=127 time=33
note_on channel=0 note=56 velocity=0 time=17
note_on channel=0 note=59 velocity=24 time=0
note_on channel=0 note=59 velocity=0 time=60
note_on channel=0 note=68 velocity=23 time=0
<meta message set_tempo tempo=1908397 time=60>
note_on channel=0 note=68 velocity=0 time=0
note_on channel=0 note=76 velocity=45 time=0
control_change channel=0 control=64 value=0 time=20
<meta message set_tempo tempo=1666204 time=40>
note_on channel=0 note=77 velocity=50 time=0
note_on channel=0 note=36 velocity=30 time=0
note_on channel=0 note=76 velocity=0 time=10
control_change channel=0 control=64 value=127 time=29
<meta message set_tempo tempo=1645639 time=21>
note_on channel=0 note=77 velocity=0 time=0
note_on channel=0 note=68 velocity=32 time=0
<meta message set_tempo tempo=1755413 time=60>
note_on channel=0 note=68 velocity=0 time=0
note_on channel=0 note=36 velocity=0 time=0
note_on channel=0 note=65 velocity=31 time=0
note_on channel=0 note=65 velocity=0 time=60
note_on channel=0 note=73 velocity=41 time=0
<meta message set_tempo tempo=1625135 time=60>
note_on channel=0 note=73 velocity=0 time=0
note_on channel=0 note=72 velocity=49 time=0
note_on channel=0 note=48 velocity=35 time=0
control_change channel=0 control=64 value=0 time=3
control_change channel=0 control=64 value=127 time=32
<meta message set_tempo tempo=1605136 time=25>
note_on channel=0 note=72 velocity=0 time=0
note_on channel=0 note=68 velocity=32 time=0
note_on channel=0 note=68 velocity=0 time=60
note_on channel=0 note=48 velocity=0 time=0
note_on channel=0 note=65 velocity=32 time=0
<meta message set_tempo tempo=1605136 time=60>
note_on channel=0 note=65 velocity=0 time=0
note_on channel=0 note=52 velocity=33 time=0
control_change channel=0 control=64 value=0 time=12
<meta message set_tempo tempo=1605136 time=48>
note_on channel=0 note=53 velocity=37 time=0
note_on channel=0 note=52 velocity=0 time=10
control_change channel=0 control=64 value=127 time=33
note_on channel=0 note=53 velocity=0 time=17
note_on channel=0 note=56 velocity=24 time=0
note_on channel=0 note=56 velocity=0 time=60
note_on channel=0 note=65 velocity=23 time=0
<meta message set_tempo tempo=1803969 time=60>
note_on channel=0 note=65 velocity=0 time=0
note_on channel=0 note=72 velocity=45 time=0
control_change channel=0 control=64 value=0 time=20
<meta message set_tempo tempo=1562500 time=40>
note_on channel=0 note=72 velocity=0 time=0
note_on channel=0 note=73 velocity=50 time=0
control_change channel=0 control=64 value=127 time=29
note_on channel=0 note=67 velocity=32 time=31
<meta message set_tempo tempo=1542416 time=60>
note_on channel=0 note=67 velocity=0 time=0
note_on channel=0 note=64 velocity=31 time=0
note_on channel=0 note=64 velocity=0 time=60
note_on channel=0 note=60 velocity=29 time=0
<meta message set_tempo tempo=1562500 time=60>
note_on channel=0 note=60 velocity=0 time=0
note_on channel=0 note=73 velocity=0 time=0
note_on channel=0 note=70 velocity=50 time=0
control_change channel=0 control=64 value=0 time=19
control_change channel=0 control=64 value=127 time=36
note_on channel=0 note=67 velocity=32 time=5
<meta message set_tempo tempo=1645639 time=60>
note_on channel=0 note=67 velocity=0 time=0
note_on channel=0 note=61 velocity=31 time=0
note_on channel=0 note=61 velocity=0 time=60
note_on channel=0 note=60 velocity=29 time=0
<meta message set_tempo tempo=1605136 time=60>
note_on channel=0 note=60 velocity=0 time=0
note_on channel=0 note=70 velocity=0 time=0
note_on channel=0 note=67 velocity=50 time=0
control_change channel=0 control=64 value=0 time=17
note_on channel=0 note=64 velocity=32 time=43
control_change channel=0 control=64 value=127 time=0
<meta message set_tempo tempo=1645639 time=60>
note_on channel=0 note=64 velocity=0 time=0
note_on channel=0 note=58 velocity=31 time=0
note_on channel=0 note=58 velocity=0 time=60
note_on channel=0 note=60 velocity=29 time=0
<meta message set_tempo tempo=1626016 time=60>
note_on channel=0 note=60 velocity=0 time=0
note_on channel=0 note=67 velocity=0 time=0
note_on channel=0 note=70 velocity=49 time=0
control_change channel=0 control=64 value=0 time=0
control_change channel=0 control=64 value=127 time=35
note_on channel=0 note=65 velocity=39 time=25
note_on channel=0 note=65 velocity=0 time=60
note_on channel=0 note=60 velocity=34 time=0
<meta message set_tempo tempo=1648352 time=60>
note_on channel=0 note=60 velocity=0 time=0
note_on channel=0 note=53 velocity=27 time=0
note_on channel=0 note=53 velocity=0 time=60
note_on channel=0 note=48 velocity=32 time=0
note_on channel=0 note=48 velocity=0 time=60
note_on channel=0 note=44 velocity=33 time=0
<meta message set_tempo tempo=1694915 time=60>
note_on channel=0 note=44 velocity=0 time=0
note_on channel=0 note=68 velocity=51 time=0
note_on channel=0 note=41 velocity=42 time=0
<meta message set_tempo tempo=1796407 time=60>
note_on channel=0 note=41 velocity=0 time=0
note_on channel=0 note=68 velocity=0 time=0
note_on channel=0 note=80 velocity=54 time=0
note_on channel=0 note=36 velocity=45 time=0
<meta message set_tempo tempo=1626016 time=60>
note_on channel=0 note=36 velocity=0 time=0
note_on channel=0 note=80 velocity=0 time=0
note_on channel=0 note=78 velocity=58 time=0
note_on channel=0 note=32 velocity=55 time=0
control_change channel=0 control=64 value=0 time=17
control_change channel=0 control=64 value=127 time=40
note_on channel=0 note=32 velocity=0 time=3
note_on channel=0 note=78 velocity=0 time=0
note_on channel=0 note=72 velocity=32 time=0
note_on channel=0 note=44 velocity=34 time=0
note_on channel=0 note=44 velocity=0 time=60
note_on channel=0 note=72 velocity=0 time=0
note_on channel=0 note=66 velocity=39 time=0
note_on channel=0 note=66 velocity=0 time=60
note_on channel=0 note=78 velocity=49 time=0
<meta message set_tempo tempo=1605136 time=60>
note_on channel=0 note=78 velocity=0 time=0
note_on channel=0 note=70 velocity=0 time=0
note_on channel=0 note=77 velocity=49 time=0
note_on channel=0 note=37 velocity=35 time=0
control_change channel=0 control=64 value=0 time=3
control_change channel=0 control=64 value=127 time=32
note_on channel=0 note=77 velocity=0 time=25
note_on channel=0 note=71 velocity=32 time=0
note_on channel=0 note=71 velocity=0 time=60
note_on channel=0 note=37 velocity=0 time=0
note_on channel=0 note=65 velocity=32 time=0
<meta message set_tempo tempo=1755413 time=60>
note_on channel=0 note=65 velocity=0 time=0
note_on channel=0 note=75 velocity=41 time=0
<meta message set_tempo tempo=1605136 time=60>
note_on channel=0 note=75 velocity=0 time=0
note_on channel=0 note=73 velocity=49 time=0
note_on channel=0 note=49 velocity=35 time=0
control_change channel=0 control=64 value=0 time=3
control_change channel=0 control=64 value=127 time=32
note_on channel=0 note=73 velocity=0 time=25
note_on channel=0 note=71 velocity=32 time=0
note_on channel=0 note=71 velocity=0 time=60
note_on channel=0 note=49 velocity=0 time=0
note_on channel=0 note=65 velocity=32 time=0
<meta message set_tempo tempo=1605136 time=60>
note_on channel=0 note=65 velocity=0 time=0
note_on channel=0 note=55 velocity=28 time=0
control_change channel=0 control=64 value=0 time=12
note_on channel=0 note=56 velocity=37 time=48
note_on channel=0 note=55 velocity=0 time=10
control_change channel=0 control=64 value=127 time=33
note_on channel=0 note=56 velocity=0 time=17
note_on channel=0 note=59 velocity=24 time=0
note_on channel=0 note=59 velocity=0 time=60
note_on channel=0 note=68 velocity=23 time=0
<meta message set_tempo tempo=1908397 time=60>
note_on channel=0 note=68 velocity=0 time=0
note_on channel=0 note=74 velocity=45 time=0
control_change channel=0 control=64 value=0 time=20
<meta message set_tempo tempo=1666204 time=40>
note_on channel=0 note=73 velocity=50 time=0
note_on channel=0 note=37 velocity=30 time=0
note_on channel=0 note=74 velocity=0 time=10
control_change channel=0 control=64 value=127 time=29
<meta message set_tempo tempo=1645639 time=21>
note_on channel=0 note=73 velocity=0 time=0
note_on channel=0 note=68 velocity=31 time=0
<meta message set_tempo tempo=1755413 time=60>
note_on channel=0 note=68 velocity=0 time=0
note_on channel=0 note=37 velocity=0 time=0
note_on channel=0 note=65 velocity=30 time=0
note_on channel=0 note=65 velocity=0 time=60
note_on channel=0 note=72 velocity=39 time=0
<meta message set_tempo tempo=1625135 time=60>
note_on channel=0 note=72 velocity=0 time=0
note_on channel=0 note=71 velocity=47 time=0
note_on channel=0 note=49 velocity=33 time=0
control_change channel=0 control=64 value=0 time=3
control_change channel=0 control=64 value=127 time=32
<meta message set_tempo tempo=1605136 time=25>
note_on channel=0 note=71 velocity=0 time=0
note_on channel=0 note=68 velocity=31 time=0
note_on channel=0 note=68 velocity=0 time=60
note_on channel=0 note=49 velocity=0 time=0
note_on channel=0 note=62 velocity=30 time=0
<meta message set_tempo tempo=1605136 time=60>
note_on channel=0 note=62 velocity=0 time=0
note_on channel=0 note=52 velocity=31 time=0
control_change channel=0 control=64 value=0 time=12
<meta message set_tempo tempo=1605136 time=48>
note_on channel=0 note=53 velocity=35 time=0
note_on channel=0 note=52 velocity=0 time=10
control_change channel=0 control=64 value=127 time=33
note_on channel=0 note=53 velocity=0 time=17
note_on channel=0 note=56 velocity=22 time=0
note_on channel=0 note=56 velocity=0 time=60
note_on channel=0 note=65 velocity=21 time=0
<meta message set_tempo tempo=1803969 time=60>
note_on channel=0 note=65 velocity=0 time=0
note_on channel=0 note=73 velocity=41 time=0
control_change channel=0 control=64 value=0 time=20
<meta message set_tempo tempo=1605136 time=40>
note_on channel=0 note=73 velocity=0 time=0
note_on channel=0 note=71 velocity=46 time=0
control_change channel=0 control=64 value=127 time=29
note_on channel=0 note=68 velocity=29 time=31
<meta message set_tempo tempo=1625135 time=60>
note_on channel=0 note=68 velocity=0 time=0
note_on channel=0 note=62 velocity=28 time=0
note_on channel=0 note=62 velocity=0 time=60
note_on channel=0 note=30 velocity=26 time=0
<meta message set_tempo tempo=1605136 time=60>
note_on channel=0 note=30 velocity=0 time=0
note_on channel=0 note=71 velocity=0 time=0
note_on channel=0 note=69 velocity=45 time=0
control_change channel=0 control=64 value=0 time=19
control_change channel=0 control=64 value=127 time=36
note_on channel=0 note=66 velocity=28 time=5
<meta message set_tempo tempo=1645639 time=60>
note_on channel=0 note=66 velocity=0 time=0
note_on channel=0 note=61 velocity=27 time=0
note_on channel=0 note=61 velocity=0 time=60
note_on channel=0 note=30 velocity=25 time=0
<meta message set_tempo tempo=1605136 time=60>
note_on channel=0 note=30 velocity=0 time=0
note_on channel=0 note=69 velocity=0 time=0
note_on channel=0 note=68 velocity=44 time=0
control_change channel=0 control=64 value=0 time=17
note_on channel=0 note=65 velocity=27 time=43
control_change channel=0 control=64 value=127 time=0
<meta message set_tempo tempo=1645639 time=60>
note_on channel=0 note=65 velocity=0 time=0
note_on channel=0 note=59 velocity=26 time=0
note_on channel=0 note=59 velocity=0 time=60
note_on channel=0 note=30 velocity=24 time=0
note_on channel=0 note=30 velocity=0 time=60
note_on channel=0 note=68 velocity=0 time=0
note_on channel=0 note=66 velocity=41 time=0
control_change channel=0 control=64 value=0 time=0
<meta message set_tempo tempo=1687764 time=4>
control_change channel=0 control=64 value=127 time=31
note_on channel=0 note=62 velocity=33 time=25
<meta message set_tempo tempo=1709889 time=34>
note_on channel=0 note=57 velocity=28 time=26
<meta message set_tempo tempo=1732102 time=49>
note_on channel=0 note=54 velocity=22 time=11
note_on channel=0 note=54 velocity=0 time=60
note_on channel=0 note=50 velocity=22 time=0
<meta message set_tempo tempo=1732102 time=4>
<meta message set_tempo tempo=1755413 time=45>
note_on channel=0 note=50 velocity=0 time=11
note_on channel=0 note=45 velocity=22 time=0
<meta message set_tempo tempo=1779359 time=34>
note_on channel=0 note=45 velocity=0 time=26
note_on channel=0 note=42 velocity=22 time=0
<meta message set_tempo tempo=1803969 time=19>
<meta message set_tempo tempo=1828711 time=30>
note_on channel=0 note=42 velocity=0 time=11
note_on channel=0 note=38 velocity=19 time=0
<meta message set_tempo tempo=1854714 time=34>
note_on channel=0 note=38 velocity=0 time=26
note_on channel=0 note=62 velocity=0 time=0
note_on channel=0 note=61 velocity=28 time=0
note_on channel=0 note=33 velocity=18 time=0
<meta message set_tempo tempo=1854714 time=4>
<meta message set_tempo tempo=1881468 time=30>
note_on channel=0 note=33 velocity=0 time=26
note_on channel=0 note=30 velocity=18 time=0
<meta message set_tempo tempo=1908397 time=4>
<meta message set_tempo tempo=1936733 time=30>
note_on channel=0 note=30 velocity=0 time=26
note_on channel=0 note=33 velocity=17 time=0
<meta message set_tempo tempo=1965924 time=4>
<meta message set_tempo tempo=1995344 time=30>
note_on channel=0 note=33 velocity=0 time=26
note_on channel=0 note=38 velocity=17 time=0
<meta message set_tempo tempo=2026342 time=4>
<meta message set_tempo tempo=1995344 time=30>
note_on channel=0 note=38 velocity=0 time=26
note_on channel=0 note=42 velocity=16 time=0
<meta message set_tempo tempo=2026342 time=19>
<meta message set_tempo tempo=2058319 time=30>
<meta message set_tempo tempo=2091321 time=30>
note_on channel=0 note=42 velocity=0 time=1
note_on channel=0 note=45 velocity=15 time=0
<meta message set_tempo tempo=2124646 time=44>
<meta message set_tempo tempo=2159827 time=30>
note_on channel=0 note=45 velocity=0 time=6
note_on channel=0 note=50 velocity=13 time=0
<meta message set_tempo tempo=2196193 time=24>
<meta message set_tempo tempo=2232974 time=45>
<meta message set_tempo tempo=2564103 time=11>
note_on channel=0 note=50 velocity=0 time=0
note_on channel=0 note=54 velocity=15 time=0
<meta message set_tempo tempo=1671309 time=120>
<meta message marker text='Teil 2' time=0>
note_on channel=0 note=54 velocity=0 time=0
note_on channel=0 note=61 velocity=0 time=0
note_on channel=0 note=57 velocity=0 time=0
note_on channel=0 note=66 velocity=0 time=0
note_on channel=0 note=56 velocity=29 time=0
note_on channel=0 note=60 velocity=29 time=0
note_on channel=0 note=65 velocity=37 time=0
note_on channel=0 note=32 velocity=20 time=0
control_change channel=0 control=64 value=0 time=0
control_change channel=0 control=64 value=127 time=39
<meta message set_tempo tempo=1648352 time=21>
<meta message set_tempo tempo=1744186 time=60>
note_on channel=0 note=65 velocity=0 time=0
note_on channel=0 note=56 velocity=0 time=0
note_on channel=0 note=54 velocity=27 time=0
note_on channel=0 note=63 velocity=34 time=0
control_change channel=0 control=64 value=0 time=10
control_change channel=0 control=64 value=127 time=38
note_on channel=0 note=63 velocity=0 time=72
note_on channel=0 note=32 velocity=0 time=0
note_on channel=0 note=60 velocity=0 time=0
note_on channel=0 note=54 velocity=0 time=0
note_on channel=0 note=54 velocity=29 time=0
note_on channel=0 note=60 velocity=29 time=0
note_on channel=0 note=63 velocity=37 time=0
note_on channel=0 note=37 velocity=17 time=0
control_change channel=0 control=64 value=0 time=9
control_change channel=0 control=64 value=127 time=37
<meta message set_tempo tempo=1604278 time=74>
note_on channel=0 note=63 velocity=0 time=0
note_on channel=0 note=54 velocity=0 time=0
note_on channel=0 note=60 velocity=0 time=0
note_on channel=0 note=53 velocity=26 time=0
note_on channel=0 note=61 velocity=37 time=0
control_change channel=0 control=64 value=0 time=21
note_on channel=0 note=43 velocity=22 time=99
note_on channel=0 note=37 velocity=0 time=60
<meta message set_tempo tempo=1694915 time=60>
note_on channel=0 note=43 velocity=0 time=0
note_on channel=0 note=44 velocity=21 time=0
<meta message set_tempo tempo=1562500 time=120>
note_on channel=0 note=61 velocity=0 time=0
note_on channel=0 note=53 velocity=0 time=0
note_on channel=0 note=73 velocity=40 time=0
note_on channel=0 note=65 velocity=34 time=0
note_on channel=0 note=56 velocity=22 time=0
control_change channel=0 control=64 value=127 time=46
<meta message set_tempo tempo=1671309 time=74>
note_on channel=0 note=65 velocity=0 time=0
note_on channel=0 note=73 velocity=0 time=0
note_on channel=0 note=66 velocity=30 time=0
note_on channel=0 note=72 velocity=30 time=0
note_on channel=0 note=75 velocity=37 time=0
control_change channel=0 control=64 value=0 time=21
<meta message set_tempo tempo=1542416 time=99>
note_on channel=0 note=75 velocity=0 time=0
note_on channel=0 note=66 velocity=0 time=0
note_on channel=0 note=72 velocity=0 time=0
note_on channel=0 note=44 velocity=0 time=0
note_on channel=0 note=75 velocity=39 time=0
note_on channel=0 note=72 velocity=34 time=0
note_on channel=0 note=66 velocity=34 time=0
note_on channel=0 note=49 velocity=25 time=0
control_change channel=0 control=64 value=127 time=43
note_on channel=0 note=66 velocity=0 time=17
note_on channel=0 note=72 velocity=0 time=0
note_on channel=0 note=75 velocity=0 time=0
note_on channel=0 note=65 velocity=29 time=0
note_on channel=0 note=77 velocity=30 time=30
note_on channel=0 note=80 velocity=42 time=30
control_change channel=0 control=64 value=0 time=4
note_on channel=0 note=56 velocity=0 time=116
note_on channel=0 note=60 velocity=22 time=0
<meta message set_tempo tempo=1583113 time=120>
note_on channel=0 note=60 velocity=0 time=0
note_on channel=0 note=61 velocity=26 time=0
<meta message set_tempo tempo=1694915 time=120>
note_on channel=0 note=80 velocity=0 time=0
note_on channel=0 note=77 velocity=0 time=0
note_on channel=0 note=65 velocity=0 time=0
note_on channel=0 note=77 velocity=40 time=0
note_on channel=0 note=73 velocity=34 time=0
<meta message set_tempo tempo=1626016 time=60>
note_on channel=0 note=73 velocity=0 time=0
note_on channel=0 note=77 velocity=0 time=0
note_on channel=0 note=66 velocity=33 time=0
note_on channel=0 note=78 velocity=34 time=30
<meta message set_tempo tempo=1583113 time=30>
note_on channel=0 note=49 velocity=0 time=0
note_on channel=0 note=82 velocity=42 time=0
note_on channel=0 note=49 velocity=22 time=0
note_on channel=0 note=56 velocity=22 time=0
control_change channel=0 control=64 value=127 time=11
<meta message set_tempo tempo=1694915 time=109>
note_on channel=0 note=82 velocity=0 time=0
note_on channel=0 note=66 velocity=0 time=0
note_on channel=0 note=72 velocity=35 time=0
note_on channel=0 note=75 velocity=42 time=0
control_change channel=0 control=64 value=0 time=3
note_on channel=0 note=78 velocity=0 time=27
control_change channel=0 control=64 value=127 time=20
note_on channel=0 note=72 velocity=0 time=10
note_on channel=0 note=75 velocity=0 time=0
note_on channel=0 note=65 velocity=29 time=0
note_on channel=0 note=77 velocity=30 time=30
<meta message set_tempo tempo=1583113 time=30>
note_on channel=0 note=61 velocity=0 time=0
note_on channel=0 note=80 velocity=42 time=0
control_change channel=0 control=64 value=0 time=0
note_on channel=0 note=56 velocity=0 time=120
note_on channel=0 note=55 velocity=22 time=0
<meta message set_tempo tempo=1635323 time=120>
note_on channel=0 note=55 velocity=0 time=0
note_on channel=0 note=56 velocity=26 time=0
control_change channel=0 control=64 value=127 time=53
note_on channel=0 note=80 velocity=0 time=7
note_on channel=0 note=77 velocity=0 time=0
note_on channel=0 note=65 velocity=0 time=0
note_on channel=0 note=61 velocity=27 time=0
note_on channel=0 note=73 velocity=26 time=30
<meta message set_tempo tempo=1456664 time=30>
note_on channel=0 note=77 velocity=39 time=0
<meta message set_tempo tempo=1541624 time=60>
note_on channel=0 note=61 velocity=0 time=0
<meta message set_tempo tempo=1863933 time=60>
note_on channel=0 note=73 velocity=0 time=0
note_on channel=0 note=77 velocity=0 time=0
note_on channel=0 note=49 velocity=0 time=0
note_on channel=0 note=72 velocity=35 time=0
note_on channel=0 note=68 velocity=29 time=0
note_on channel=0 note=46 velocity=19 time=0
note_on channel=0 note=53 velocity=19 time=0
control_change channel=0 control=64 value=0 time=21
<meta message set_tempo tempo=1729605 time=39>
note_on channel=0 note=68 velocity=0 time=0
note_on channel=0 note=72 velocity=0 time=0
note_on channel=0 note=58 velocity=26 time=0
control_change channel=0 control=64 value=127 time=0
note_on channel=0 note=70 velocity=34 time=30
<meta message set_tempo tempo=1405481 time=30>
note_on channel=0 note=73 velocity=42 time=0
control_change channel=0 control=64 value=0 time=18
control_change channel=0 control=64 value=127 time=46
<meta message set_tempo tempo=1613337 time=56>
note_on channel=0 note=73 velocity=0 time=0
note_on channel=0 note=46 velocity=0 time=0
note_on channel=0 note=56 velocity=0 time=0
note_on channel=0 note=53 velocity=0 time=0
note_on channel=0 note=70 velocity=0 time=0
note_on channel=0 note=58 velocity=0 time=0
note_on channel=0 note=65 velocity=29 time=0
note_on channel=0 note=68 velocity=29 time=0
note_on channel=0 note=39 velocity=26 time=0
control_change channel=0 control=64 value=0 time=0
control_change channel=0 control=64 value=127 time=71
note_on channel=0 note=39 velocity=0 time=49
note_on channel=0 note=46 velocity=22 time=0
<meta message set_tempo tempo=1481847 time=60>
<meta message set_tempo tempo=1600427 time=60>
note_on channel=0 note=46 velocity=0 time=0
note_on channel=0 note=51 velocity=23 time=0
note_on channel=0 note=51 velocity=0 time=120
note_on channel=0 note=68 velocity=0 time=0
note_on channel=0 note=65 velocity=0 time=0
note_on channel=0 note=66 velocity=30 time=0
note_on channel=0 note=63 velocity=30 time=0
note_on channel=0 note=58 velocity=24 time=0
note_on channel=0 note=58 velocity=0 time=120
note_on channel=0 note=63 velocity=0 time=0
note_on channel=0 note=66 velocity=0 time=0
note_on channel=0 note=66 velocity=31 time=0
note_on channel=0 note=63 velocity=31 time=0
note_on channel=0 note=58 velocity=30 time=120
note_on channel=0 note=46 velocity=30 time=0
<meta message set_tempo tempo=1500375 time=60>
<meta message set_tempo tempo=1600427 time=60>
note_on channel=0 note=46 velocity=0 time=0
note_on channel=0 note=66 velocity=0 time=0
note_on channel=0 note=63 velocity=0 time=0
note_on channel=0 note=58 velocity=0 time=0
note_on channel=0 note=65 velocity=42 time=0
note_on channel=0 note=68 velocity=42 time=0
note_on channel=0 note=59 velocity=40 time=0
note_on channel=0 note=38 velocity=30 time=0
note_on channel=0 note=47 velocity=33 time=0
control_change channel=0 control=64 value=0 time=0
note_on channel=0 note=58 velocity=31 time=120
note_on channel=0 note=46 velocity=26 time=0
note_on channel=0 note=47 velocity=0 time=12
note_on channel=0 note=59 velocity=0 time=0
note_on channel=0 note=65 velocity=0 time=108
note_on channel=0 note=38 velocity=0 time=0
note_on channel=0 note=68 velocity=0 time=0
note_on channel=0 note=63 velocity=39 time=0
note_on channel=0 note=66 velocity=39 time=0
note_on channel=0 note=57 velocity=34 time=0
note_on channel=0 note=45 velocity=28 time=0
note_on channel=0 note=39 velocity=28 time=0
note_on channel=0 note=46 velocity=0 time=12
note_on channel=0 note=58 velocity=0 time=0
note_on channel=0 note=58 velocity=31 time=108
note_on channel=0 note=46 velocity=26 time=0
note_on channel=0 note=57 velocity=0 time=12
note_on channel=0 note=45 velocity=0 time=0
note_on channel=0 note=63 velocity=0 time=108
note_on channel=0 note=39 velocity=0 time=0
note_on channel=0 note=66 velocity=0 time=0
note_on channel=0 note=59 velocity=37 time=0
note_on channel=0 note=66 velocity=39 time=0
note_on channel=0 note=63 velocity=39 time=0
note_on channel=0 note=47 velocity=31 time=0
note_on channel=0 note=39 velocity=28 time=0
note_on channel=0 note=46 velocity=0 time=12
note_on channel=0 note=58 velocity=0 time=0
<meta message set_tempo tempo=1729605 time=108>
note_on channel=0 note=60 velocity=31 time=0
note_on channel=0 note=48 velocity=26 time=0
note_on channel=0 note=59 velocity=0 time=12
note_on channel=0 note=47 velocity=0 time=0
<meta message set_tempo tempo=1613337 time=108>
note_on channel=0 note=60 velocity=0 time=0
note_on channel=0 note=63 velocity=0 time=0
note_on channel=0 note=66 velocity=0 time=0
note_on channel=0 note=48 velocity=0 time=0
note_on channel=0 note=39 velocity=0 time=0
note_on channel=0 note=63 velocity=37 time=0
note_on channel=0 note=66 velocity=42 time=0
note_on channel=0 note=56 velocity=42 time=0
note_on channel=0 note=51 velocity=31 time=0
note_on channel=0 note=41 velocity=30 time=0
note_on channel=0 note=61 velocity=32 time=120
note_on channel=0 note=49 velocity=27 time=0
note_on channel=0 note=51 velocity=0 time=12
note_on channel=0 note=63 velocity=0 time=0
<meta message set_tempo tempo=1558846 time=108>
note_on channel=0 note=66 velocity=0 time=0
note_on channel=0 note=41 velocity=0 time=0
note_on channel=0 note=56 velocity=0 time=0
note_on channel=0 note=65 velocity=40 time=0
note_on channel=0 note=56 velocity=40 time=0
note_on channel=0 note=60 velocity=39 time=0
note_on channel=0 note=41 velocity=31 time=0
note_on channel=0 note=48 velocity=32 time=0
note_on channel=0 note=49 velocity=0 time=12
note_on channel=0 note=61 velocity=0 time=0
<meta message set_tempo tempo=1644286 time=108>
note_on channel=0 note=61 velocity=34 time=0
note_on channel=0 note=49 velocity=30 time=0
note_on channel=0 note=60 velocity=0 time=12
note_on channel=0 note=48 velocity=0 time=0
<meta message set_tempo tempo=1579363 time=108>
note_on channel=0 note=65 velocity=0 time=0
note_on channel=0 note=41 velocity=0 time=0
note_on channel=0 note=56 velocity=0 time=0
note_on channel=0 note=65 velocity=44 time=0
note_on channel=0 note=53 velocity=44 time=0
note_on channel=0 note=60 velocity=46 time=0
note_on channel=0 note=37 velocity=33 time=0
note_on channel=0 note=48 velocity=39 time=0
note_on channel=0 note=49 velocity=0 time=12
note_on channel=0 note=61 velocity=0 time=0
note_on channel=0 note=58 velocity=38 time=108
note_on channel=0 note=46 velocity=32 time=0
note_on channel=0 note=60 velocity=0 time=12
note_on channel=0 note=48 velocity=0 time=0
<meta message set_tempo tempo=2128414 time=48>
<meta message set_tempo tempo=1591934 time=49>
<meta message set_tempo tempo=1635323 time=11>
note_on channel=0 note=58 velocity=0 time=0
note_on channel=0 note=37 velocity=0 time=0
note_on channel=0 note=53 velocity=0 time=0
note_on channel=0 note=46 velocity=0 time=0
note_on channel=0 note=65 velocity=0 time=0
note_on channel=0 note=57 velocity=51 time=0
note_on channel=0 note=65 velocity=56 time=0
note_on channel=0 note=53 velocity=56 time=0
note_on channel=0 note=45 velocity=43 time=0
note_on channel=0 note=42 velocity=39 time=0
note_on channel=0 note=58 velocity=39 time=120
note_on channel=0 note=46 velocity=32 time=0
note_on channel=0 note=45 velocity=0 time=12
note_on channel=0 note=57 velocity=0 time=0
<meta message set_tempo tempo=1571092 time=85>
note_on channel=0 note=65 velocity=0 time=23
note_on channel=0 note=42 velocity=0 time=0
note_on channel=0 note=53 velocity=0 time=0
note_on channel=0 note=61 velocity=43 time=0
note_on channel=0 note=51 velocity=45 time=0
note_on channel=0 note=63 velocity=45 time=0
note_on channel=0 note=49 velocity=36 time=0
note_on channel=0 note=42 velocity=34 time=0
<meta message set_tempo tempo=1613337 time=1>
note_on channel=0 note=46 velocity=0 time=11
note_on channel=0 note=58 velocity=0 time=0
<meta message set_tempo tempo=1635323 time=37>
<meta message set_tempo tempo=1657917 time=48>
note_on channel=0 note=60 velocity=33 time=23
note_on channel=0 note=48 velocity=28 time=0
note_on channel=0 note=61 velocity=0 time=12
note_on channel=0 note=49 velocity=0 time=0
<meta message set_tempo tempo=1681143 time=13>
<meta message set_tempo tempo=1705030 time=48>
<meta message set_tempo tempo=1729605 time=36>
note_on channel=0 note=42 velocity=0 time=11
note_on channel=0 note=63 velocity=0 time=0
note_on channel=0 note=51 velocity=0 time=0
note_on channel=0 note=64 velocity=38 time=0
note_on channel=0 note=52 velocity=38 time=0
note_on channel=0 note=58 velocity=39 time=0
note_on channel=0 note=46 velocity=33 time=0
note_on channel=0 note=42 velocity=30 time=0
<meta message set_tempo tempo=1705030 time=1>
note_on channel=0 note=48 velocity=0 time=11
note_on channel=0 note=60 velocity=0 time=0
<meta message set_tempo tempo=1729605 time=13>
<meta message set_tempo tempo=1754899 time=12>
<meta message set_tempo tempo=1780944 time=12>
<meta message set_tempo tempo=1807773 time=12>
<meta message set_tempo tempo=1835424 time=12>
<meta message set_tempo tempo=1863933 time=12>
<meta message set_tempo tempo=1893342 time=12>
<meta message set_tempo tempo=1923693 time=12>
note_on channel=0 note=60 velocity=28 time=11
note_on channel=0 note=48 velocity=24 time=0
<meta message set_tempo tempo=1955034 time=1>
note_on channel=0 note=58 velocity=0 time=11
note_on channel=0 note=46 velocity=0 time=0
<meta message set_tempo tempo=1987413 time=13>
<meta message set_tempo tempo=2020882 time=12>
<meta message set_tempo tempo=2055498 time=12>
<meta message set_tempo tempo=2091321 time=12>
<meta message set_tempo tempo=2128414 time=12>
<meta message set_tempo tempo=2166847 time=12>
<meta message set_tempo tempo=2206694 time=12>
<meta message set_tempo tempo=2248033 time=12>
note_on channel=0 note=64 velocity=0 time=11
note_on channel=0 note=42 velocity=0 time=0
note_on channel=0 note=52 velocity=0 time=0
note_on channel=0 note=60 velocity=0 time=0
note_on channel=0 note=65 velocity=33 time=0
note_on channel=0 note=53 velocity=33 time=0
note_on channel=0 note=58 velocity=24 time=0
note_on channel=0 note=41 velocity=24 time=0
<meta message set_tempo tempo=2290951 time=1>
control_change channel=0 control=64 value=127 time=79
note_on channel=0 note=58 velocity=0 time=160
note_on channel=0 note=57 velocity=21 time=0
control_change channel=0 control=64 value=0 time=19
<meta message set_tempo tempo=1671309 time=101>
note_on channel=0 note=57 velocity=0 time=0
note_on channel=0 note=41 velocity=0 time=0
note_on channel=0 note=48 velocity=0 time=0
note_on channel=0 note=65 velocity=0 time=0
note_on channel=0 note=53 velocity=0 time=0
note_on channel=0 note=56 velocity=29 time=0
note_on channel=0 note=60 velocity=29 time=0
note_on channel=0 note=65 velocity=37 time=0
note_on channel=0 note=32 velocity=20 time=0
control_change channel=0 control=64 value=127 time=40
<meta message set_tempo tempo=1648352 time=20>
<meta message set_tempo tempo=1744186 time=60>
note_on channel=0 note=65 velocity=0 time=0
note_on channel=0 note=56 velocity=0 time=0
note_on channel=0 note=54 velocity=27 time=0
note_on channel=0 note=63 velocity=34 time=0
control_change channel=0 control=64 value=0 time=20
control_change channel=0 control=64 value=127 time=20
note_on channel=0 note=63 velocity=0 time=80
note_on channel=0 note=32 velocity=0 time=0
note_on channel=0 note=60 velocity=0 time=0
note_on channel=0 note=54 velocity=0 time=0
note_on channel=0 note=54 velocity=29 time=0
note_on channel=0 note=60 velocity=29 time=0
note_on channel=0 note=63 velocity=37 time=0
note_on channel=0 note=37 velocity=17 time=0
control_change channel=0 control=64 value=0 time=23
control_change channel=0 control=64 value=127 time=46
<meta message set_tempo tempo=1604278 time=51>
note_on channel=0 note=63 velocity=0 time=0
note_on channel=0 note=54 velocity=0 time=0
note_on channel=0 note=60 velocity=0 time=0
note_on channel=0 note=53 velocity=26 time=0
note_on channel=0 note=61 velocity=37 time=0
control_change channel=0 control=64 value=0 time=4
note_on channel=0 note=37 velocity=0 time=56
note_on channel=0 note=43 velocity=22 time=60
<meta message set_tempo tempo=1694915 time=120>
note_on channel=0 note=43 velocity=0 time=0
note_on channel=0 note=44 velocity=21 time=0
<meta message set_tempo tempo=1562500 time=120>
note_on channel=0 note=61 velocity=0 time=0
note_on channel=0 note=53 velocity=0 time=0
note_on channel=0 note=73 velocity=38 time=0
note_on channel=0 note=65 velocity=32 time=0
note_on channel=0 note=56 velocity=20 time=0
control_change channel=0 control=64 value=127 time=32
<meta message set_tempo tempo=1671309 time=88>
note_on channel=0 note=65 velocity=0 time=0
note_on channel=0 note=73 velocity=0 time=0
note_on channel=0 note=66 velocity=28 time=0
note_on channel=0 note=72 velocity=28 time=0
note_on channel=0 note=75 velocity=35 time=0
control_change channel=0 control=64 value=0 time=16
control_change channel=0 control=64 value=127 time=48
<meta message set_tempo tempo=1542416 time=56>
note_on channel=0 note=75 velocity=0 time=0
note_on channel=0 note=66 velocity=0 time=0
note_on channel=0 note=72 velocity=0 time=0
note_on channel=0 note=44 velocity=0 time=0
note_on channel=0 note=75 velocity=37 time=0
note_on channel=0 note=72 velocity=32 time=0
note_on channel=0 note=66 velocity=32 time=0
note_on channel=0 note=49 velocity=23 time=0
control_change channel=0 control=64 value=0 time=4
control_change channel=0 control=64 value=127 time=35
note_on channel=0 note=66 velocity=0 time=21
note_on channel=0 note=72 velocity=0 time=0
note_on channel=0 note=75 velocity=0 time=0
note_on channel=0 note=65 velocity=27 time=0
note_on channel=0 note=77 velocity=28 time=30
note_on channel=0 note=80 velocity=39 time=30
control_change channel=0 control=64 value=0 time=0
note_on channel=0 note=58 velocity=22 time=120
<meta message set_tempo tempo=1583113 time=120>
note_on channel=0 note=58 velocity=0 time=0
note_on channel=0 note=59 velocity=26 time=0
<meta message set_tempo tempo=1694915 time=120>
note_on channel=0 note=77 velocity=0 time=0
note_on channel=0 note=65 velocity=0 time=0
note_on channel=0 note=80 velocity=0 time=0
note_on channel=0 note=77 velocity=40 time=0
note_on channel=0 note=73 velocity=34 time=0
control_change channel=0 control=64 value=127 time=12
<meta message set_tempo tempo=1626016 time=48>
note_on channel=0 note=73 velocity=0 time=0
note_on channel=0 note=77 velocity=0 time=0
note_on channel=0 note=66 velocity=37 time=0
note_on channel=0 note=78 velocity=41 time=30
<meta message set_tempo tempo=1583113 time=30>
note_on channel=0 note=49 velocity=0 time=0
note_on channel=0 note=82 velocity=46 time=0
note_on channel=0 note=49 velocity=35 time=0
control_change channel=0 control=64 value=0 time=11
control_change channel=0 control=64 value=127 time=32
<meta message set_tempo tempo=1694915 time=77>
note_on channel=0 note=82 velocity=0 time=0
note_on channel=0 note=66 velocity=0 time=0
note_on channel=0 note=71 velocity=35 time=0
note_on channel=0 note=75 velocity=42 time=0
control_change channel=0 control=64 value=0 time=19
note_on channel=0 note=78 velocity=0 time=11
control_change channel=0 control=64 value=127 time=16
note_on channel=0 note=71 velocity=0 time=14
note_on channel=0 note=75 velocity=0 time=0
note_on channel=0 note=65 velocity=29 time=0
note_on channel=0 note=77 velocity=30 time=30
<meta message set_tempo tempo=1583113 time=30>
note_on channel=0 note=80 velocity=42 time=0
control_change channel=0 control=64 value=0 time=0
note_on channel=0 note=59 velocity=0 time=120
note_on channel=0 note=58 velocity=22 time=0
<meta message set_tempo tempo=1635323 time=120>
note_on channel=0 note=58 velocity=0 time=0
note_on channel=0 note=59 velocity=26 time=0
<meta message set_tempo tempo=1522070 time=60>
note_on channel=0 note=80 velocity=0 time=0
note_on channel=0 note=65 velocity=0 time=0
note_on channel=0 note=77 velocity=0 time=0
note_on channel=0 note=61 velocity=30 time=0
note_on channel=0 note=73 velocity=33 time=30
<meta message set_tempo tempo=1456664 time=30>
note_on channel=0 note=77 velocity=39 time=0
control_change channel=0 control=64 value=127 time=57
<meta message set_tempo tempo=1492909 time=3>
note_on channel=0 note=61 velocity=0 time=0
<meta message set_tempo tempo=1863933 time=60>
note_on channel=0 note=49 velocity=0 time=0
note_on channel=0 note=56 velocity=0 time=0
note_on channel=0 note=73 velocity=0 time=0
note_on channel=0 note=77 velocity=0 time=0
note_on channel=0 note=71 velocity=35 time=0
note_on channel=0 note=68 velocity=29 time=0
note_on channel=0 note=49 velocity=19 time=0
note_on channel=0 note=53 velocity=19 time=0
control_change channel=0 control=64 value=0 time=20
control_change channel=0 control=64 value=127 time=35
<meta message set_tempo tempo=1603421 time=5>
note_on channel=0 note=68 velocity=0 time=0
note_on channel=0 note=71 velocity=0 time=0
note_on channel=0 note=58 velocity=19 time=0
note_on channel=0 note=70 velocity=30 time=30
<meta message set_tempo tempo=1405481 time=30>
note_on channel=0 note=73 velocity=38 time=0
control_change channel=0 control=64 value=0 time=17
control_change channel=0 control=64 value=127 time=55
<meta message set_tempo tempo=1613337 time=48>
note_on channel=0 note=73 velocity=0 time=0
note_on channel=0 note=49 velocity=0 time=0
note_on channel=0 note=59 velocity=0 time=0
note_on channel=0 note=53 velocity=0 time=0
note_on channel=0 note=70 velocity=0 time=0
note_on channel=0 note=58 velocity=0 time=0
note_on channel=0 note=65 velocity=31 time=0
note_on channel=0 note=69 velocity=40 time=0
note_on channel=0 note=42 velocity=35 time=0
control_change channel=0 control=64 value=0 time=0
control_change channel=0 control=64 value=127 time=92
note_on channel=0 note=42 velocity=0 time=28
note_on channel=0 note=49 velocity=29 time=0
<meta message set_tempo tempo=1500375 time=60>
<meta message set_tempo tempo=1600427 time=60>
note_on channel=0 note=49 velocity=0 time=0
note_on channel=0 note=54 velocity=29 time=0
note_on channel=0 note=54 velocity=0 time=120
note_on channel=0 note=69 velocity=0 time=0
note_on channel=0 note=65 velocity=0 time=0
note_on channel=0 note=70 velocity=37 time=0
note_on channel=0 note=66 velocity=37 time=0
note_on channel=0 note=61 velocity=29 time=0
note_on channel=0 note=61 velocity=0 time=120
note_on channel=0 note=66 velocity=0 time=0
note_on channel=0 note=70 velocity=0 time=0
note_on channel=0 note=70 velocity=37 time=0
note_on channel=0 note=66 velocity=37 time=0
control_change channel=0 control=64 value=0 time=6
control_change channel=0 control=64 value=127 time=69
<meta message set_tempo tempo=1667130 time=45>
note_on channel=0 note=61 velocity=29 time=0
note_on channel=0 note=49 velocity=29 time=0
<meta message set_tempo tempo=1579363 time=120>
note_on channel=0 note=49 velocity=0 time=0
note_on channel=0 note=70 velocity=0 time=0
note_on channel=0 note=66 velocity=0 time=0
note_on channel=0 note=61 velocity=0 time=0
note_on channel=0 note=66 velocity=40 time=0
note_on channel=0 note=69 velocity=40 time=0
note_on channel=0 note=62 velocity=39 time=0
note_on channel=0 note=42 velocity=28 time=0
note_on channel=0 note=50 velocity=32 time=0
control_change channel=0 control=64 value=0 time=0
note_on channel=0 note=61 velocity=29 time=120
note_on channel=0 note=49 velocity=25 time=0
note_on channel=0 note=50 velocity=0 time=12
note_on channel=0 note=62 velocity=0 time=0
note_on channel=0 note=66 velocity=0 time=108
note_on channel=0 note=42 velocity=0 time=0
note_on channel=0 note=69 velocity=0 time=0
note_on channel=0 note=66 velocity=37 time=0
note_on channel=0 note=70 velocity=37 time=0
note_on channel=0 note=60 velocity=33 time=0
note_on channel=0 note=48 velocity=27 time=0
note_on channel=0 note=42 velocity=27 time=0
note_on channel=0 note=49 velocity=0 time=12
note_on channel=0 note=61 velocity=0 time=0
note_on channel=0 note=61 velocity=29 time=108
note_on channel=0 note=49 velocity=25 time=0
note_on channel=0 note=60 velocity=0 time=12
note_on channel=0 note=48 velocity=0 time=0
note_on channel=0 note=66 velocity=0 time=108
note_on channel=0 note=42 velocity=0 time=0
note_on channel=0 note=70 velocity=0 time=0
note_on channel=0 note=62 velocity=36 time=0
note_on channel=0 note=70 velocity=38 time=0
note_on channel=0 note=66 velocity=38 time=0
note_on channel=0 note=50 velocity=30 time=0
note_on channel=0 note=42 velocity=28 time=0
note_on channel=0 note=49 velocity=0 time=12
note_on channel=0 note=61 velocity=0 time=0
<meta message set_tempo tempo=1729605 time=108>
note_on channel=0 note=61 velocity=30 time=0
note_on channel=0 note=49 velocity=26 time=0
note_on channel=0 note=62 velocity=0 time=12
note_on channel=0 note=50 velocity=0 time=0
<meta message set_tempo tempo=1613337 time=108>
note_on channel=0 note=61 velocity=0 time=0
note_on channel=0 note=66 velocity=0 time=0
note_on channel=0 note=70 velocity=0 time=0
note_on channel=0 note=49 velocity=0 time=0
note_on channel=0 note=42 velocity=0 time=0
note_on channel=0 note=63 velocity=37 time=0
note_on channel=0 note=71 velocity=48 time=0
note_on channel=0 note=68 velocity=44 time=0
note_on channel=0 note=51 velocity=31 time=0
note_on channel=0 note=41 velocity=29 time=0
note_on channel=0 note=61 velocity=33 time=120
note_on channel=0 note=49 velocity=28 time=0
note_on channel=0 note=51 velocity=0 time=12
note_on channel=0 note=63 velocity=0 time=0
note_on channel=0 note=71 velocity=0 time=108
note_on channel=0 note=41 velocity=0 time=0
note_on channel=0 note=68 velocity=0 time=0
note_on channel=0 note=70 velocity=42 time=0
note_on channel=0 note=66 velocity=42 time=0
note_on channel=0 note=60 velocity=40 time=0
note_on channel=0 note=42 velocity=31 time=0
note_on channel=0 note=48 velocity=34 time=0
note_on channel=0 note=49 velocity=0 time=12
note_on channel=0 note=61 velocity=0 time=0
note_on channel=0 note=61 velocity=36 time=108
note_on channel=0 note=49 velocity=31 time=0
note_on channel=0 note=60 velocity=0 time=12
note_on channel=0 note=48 velocity=0 time=0
note_on channel=0 note=70 velocity=0 time=108
note_on channel=0 note=42 velocity=0 time=0
note_on channel=0 note=66 velocity=0 time=0
note_on channel=0 note=67 velocity=47 time=0
note_on channel=0 note=55 velocity=47 time=0
note_on channel=0 note=63 velocity=49 time=0
note_on channel=0 note=46 velocity=35 time=0
note_on channel=0 note=51 velocity=41 time=0
note_on channel=0 note=49 velocity=0 time=12
note_on channel=0 note=61 velocity=0 time=0
note_on channel=0 note=51 velocity=0 time=108
note_on channel=0 note=61 velocity=40 time=0
note_on channel=0 note=49 velocity=35 time=0
note_on channel=0 note=63 velocity=0 time=12
<meta message set_tempo tempo=2314815 time=48>
<meta message set_tempo tempo=1591934 time=49>
<meta message set_tempo tempo=1635323 time=11>
note_on channel=0 note=61 velocity=0 time=0
note_on channel=0 note=46 velocity=0 time=0
note_on channel=0 note=55 velocity=0 time=0
note_on channel=0 note=67 velocity=0 time=0
note_on channel=0 note=65 velocity=56 time=0
note_on channel=0 note=68 velocity=62 time=0
note_on channel=0 note=56 velocity=62 time=0
note_on channel=0 note=44 velocity=42 time=0
note_on channel=0 note=65 velocity=0 time=120
note_on channel=0 note=49 velocity=0 time=0
note_on channel=0 note=61 velocity=41 time=0
note_on channel=0 note=53 velocity=35 time=0
<meta message set_tempo tempo=1571092 time=97>
note_on channel=0 note=56 velocity=0 time=23
note_on channel=0 note=44 velocity=0 time=0
note_on channel=0 note=68 velocity=0 time=0
note_on channel=0 note=60 velocity=45 time=0
note_on channel=0 note=54 velocity=47 time=0
note_on channel=0 note=66 velocity=47 time=0
note_on channel=0 note=51 velocity=37 time=0
note_on channel=0 note=44 velocity=36 time=0
<meta message set_tempo tempo=1613337 time=1>
note_on channel=0 note=61 velocity=0 time=11
note_on channel=0 note=53 velocity=0 time=0
<meta message set_tempo tempo=1635323 time=37>
<meta message set_tempo tempo=1657917 time=48>
note_on channel=0 note=60 velocity=0 time=23
note_on channel=0 note=58 velocity=34 time=0
note_on channel=0 note=49 velocity=29 time=0
note_on channel=0 note=51 velocity=0 time=12
<meta message set_tempo tempo=1681143 time=13>
<meta message set_tempo tempo=1705030 time=48>
<meta message set_tempo tempo=1729605 time=36>
note_on channel=0 note=56 velocity=38 time=11
note_on channel=0 note=48 velocity=33 time=0
<meta message set_tempo tempo=1705030 time=1>
note_on channel=0 note=58 velocity=0 time=11
note_on channel=0 note=49 velocity=0 time=0
<meta message set_tempo tempo=1729605 time=13>
<meta message set_tempo tempo=1754899 time=12>
<meta message set_tempo tempo=1780944 time=12>
<meta message set_tempo tempo=1807773 time=12>
<meta message set_tempo tempo=1835424 time=12>
<meta message set_tempo tempo=1863933 time=12>
<meta message set_tempo tempo=1893342 time=12>
<meta message set_tempo tempo=1923693 time=12>
<meta message set_tempo tempo=2314815 time=11>
note_on channel=0 note=44 velocity=0 time=0
note_on channel=0 note=48 velocity=0 time=0
note_on channel=0 note=60 velocity=30 time=0
note_on channel=0 note=44 velocity=26 time=0
note_on channel=0 note=56 velocity=0 time=12
<meta message set_tempo tempo=2206694 time=85>
<meta message set_tempo tempo=2248033 time=12>
<meta message set_tempo tempo=2228826 time=11>
note_on channel=0 note=60 velocity=0 time=0
note_on channel=0 note=54 velocity=0 time=0
note_on channel=0 note=66 velocity=0 time=0
note_on channel=0 note=65 velocity=32 time=0
note_on channel=0 note=53 velocity=32 time=0
note_on channel=0 note=63 velocity=23 time=0
note_on channel=0 note=37 velocity=23 time=0
<meta message set_tempo tempo=2290951 time=1>
control_change channel=0 control=64 value=127 time=59
<meta message set_tempo tempo=3047232 time=180>
note_on channel=0 note=63 velocity=0 time=0
note_on channel=0 note=61 velocity=20 time=0
control_change channel=0 control=64 value=0 time=13
note_on channel=0 note=61 velocity=0 time=107
<meta message set_tempo tempo=1519372 time=60>
note_on channel=0 note=37 velocity=0 time=0
note_on channel=0 note=44 velocity=0 time=0
note_on channel=0 note=65 velocity=0 time=0
note_on channel=0 note=53 velocity=0 time=0
note_on channel=0 note=73 velocity=25 time=0
note_on channel=0 note=61 velocity=21 time=0
note_on channel=0 note=49 velocity=15 time=0
<meta message set_tempo tempo=1600427 time=60>
note_on channel=0 note=49 velocity=0 time=0
note_on channel=0 note=61 velocity=0 time=0
note_on channel=0 note=73 velocity=0 time=0
note_on channel=0 note=72 velocity=29 time=0
note_on channel=0 note=60 velocity=24 time=0
note_on channel=0 note=48 velocity=24 time=0
note_on channel=0 note=48 velocity=0 time=60
note_on channel=0 note=60 velocity=0 time=0
note_on channel=0 note=72 velocity=0 time=0
<meta message set_tempo tempo=1481847 time=120>
<meta message marker text='Teil 3' time=0>
note_on channel=0 note=72 velocity=28 time=0
note_on channel=0 note=60 velocity=23 time=0
note_on channel=0 note=48 velocity=15 time=0
<meta message set_tempo tempo=1579363 time=60>
note_on channel=0 note=48 velocity=0 time=0
note_on channel=0 note=60 velocity=0 time=0
note_on channel=0 note=72 velocity=0 time=0
note_on channel=0 note=58 velocity=12 time=0
note_on channel=0 note=70 velocity=15 time=0
note_on channel=0 note=46 velocity=22 time=0
note_on channel=0 note=46 velocity=0 time=180
note_on channel=0 note=40 velocity=21 time=0
<meta message set_tempo tempo=1511716 time=60>
note_on channel=0 note=40 velocity=0 time=0
note_on channel=0 note=70 velocity=0 time=0
note_on channel=0 note=58 velocity=0 time=0
note_on channel=0 note=65 velocity=31 time=0
note_on channel=0 note=41 velocity=26 time=0
control_change channel=0 control=64 value=127 time=37
note_on channel=0 note=41 velocity=0 time=23
note_on channel=0 note=45 velocity=21 time=0
note_on channel=0 note=45 velocity=0 time=60
note_on channel=0 note=53 velocity=25 time=0
<meta message set_tempo tempo=1591934 time=60>
note_on channel=0 note=53 velocity=0 time=0
note_on channel=0 note=41 velocity=21 time=0
<meta message set_tempo tempo=1492909 time=60>
note_on channel=0 note=41 velocity=0 time=0
note_on channel=0 note=65 velocity=0 time=0
note_on channel=0 note=42 velocity=28 time=0
control_change channel=0 control=64 value=0 time=9
control_change channel=0 control=64 value=127 time=23
note_on channel=0 note=42 velocity=0 time=28
note_on channel=0 note=46 velocity=21 time=0
note_on channel=0 note=46 velocity=0 time=60
note_on channel=0 note=54 velocity=21 time=0
control_change channel=0 control=64 value=0 time=35
<meta message set_tempo tempo=1635323 time=25>
note_on channel=0 note=54 velocity=0 time=0
note_on channel=0 note=77 velocity=27 time=0
<meta message set_tempo tempo=1456664 time=60>
note_on channel=0 note=76 velocity=34 time=0
control_change channel=0 control=64 value=127 time=0
note_on channel=0 note=77 velocity=0 time=10
note_on channel=0 note=76 velocity=0 time=50
note_on channel=0 note=73 velocity=28 time=0
note_on channel=0 note=73 velocity=0 time=60
note_on channel=0 note=64 velocity=29 time=0
<meta message set_tempo tempo=1613337 time=60>
note_on channel=0 note=64 velocity=0 time=0
note_on channel=0 note=76 velocity=24 time=0
note_on channel=0 note=54 velocity=21 time=0
control_change channel=0 control=64 value=0 time=13
<meta message set_tempo tempo=1474564 time=47>
note_on channel=0 note=75 velocity=31 time=0
note_on channel=0 note=55 velocity=26 time=0
note_on channel=0 note=54 velocity=0 time=10
note_on channel=0 note=76 velocity=0 time=0
control_change channel=0 control=64 value=127 time=33
note_on channel=0 note=75 velocity=0 time=17
note_on channel=0 note=55 velocity=0 time=0
note_on channel=0 note=73 velocity=25 time=0
note_on channel=0 note=58 velocity=21 time=0
note_on channel=0 note=58 velocity=0 time=60
note_on channel=0 note=73 velocity=0 time=0
note_on channel=0 note=63 velocity=25 time=0
note_on channel=0 note=67 velocity=25 time=0
<meta message set_tempo tempo=1591934 time=60>
note_on channel=0 note=67 velocity=0 time=0
note_on channel=0 note=63 velocity=0 time=0
note_on channel=0 note=55 velocity=21 time=0
control_change channel=0 control=64 value=0 time=7
<meta message set_tempo tempo=1474564 time=53>
note_on channel=0 note=56 velocity=28 time=0
note_on channel=0 note=55 velocity=0 time=10
control_change channel=0 control=64 value=127 time=30
note_on channel=0 note=56 velocity=0 time=20
note_on channel=0 note=60 velocity=21 time=0
note_on channel=0 note=60 velocity=0 time=60
note_on channel=0 note=68 velocity=21 time=0
control_change channel=0 control=64 value=0 time=0
<meta message set_tempo tempo=1531003 time=60>
note_on channel=0 note=68 velocity=0 time=0
note_on channel=0 note=80 velocity=27 time=0
<meta message set_tempo tempo=1456664 time=60>
note_on channel=0 note=78 velocity=34 time=0
control_change channel=0 control=64 value=127 time=0
note_on channel=0 note=80 velocity=0 time=10
note_on channel=0 note=78 velocity=0 time=50
note_on channel=0 note=75 velocity=28 time=0
note_on channel=0 note=75 velocity=0 time=60
note_on channel=0 note=66 velocity=29 time=0
<meta message set_tempo tempo=1613337 time=60>
note_on channel=0 note=66 velocity=0 time=0
note_on channel=0 note=78 velocity=24 time=0
note_on channel=0 note=44 velocity=21 time=0
control_change channel=0 control=64 value=0 time=13
<meta message set_tempo tempo=1474564 time=47>
note_on channel=0 note=77 velocity=31 time=0
note_on channel=0 note=45 velocity=26 time=0
note_on channel=0 note=44 velocity=0 time=10
note_on channel=0 note=78 velocity=0 time=0
control_change channel=0 control=64 value=127 time=33
note_on channel=0 note=77 velocity=0 time=17
note_on channel=0 note=45 velocity=0 time=0
note_on channel=0 note=75 velocity=25 time=0
note_on channel=0 note=48 velocity=21 time=0
note_on channel=0 note=48 velocity=0 time=60
note_on channel=0 note=75 velocity=0 time=0
note_on channel=0 note=65 velocity=25 time=0
note_on channel=0 note=57 velocity=25 time=0
<meta message set_tempo tempo=1591934 time=60>
note_on channel=0 note=57 velocity=0 time=0
note_on channel=0 note=65 velocity=0 time=0
note_on channel=0 note=45 velocity=21 time=0
control_change channel=0 control=64 value=0 time=7
<meta message set_tempo tempo=1492909 time=53>
note_on channel=0 note=46 velocity=28 time=0
note_on channel=0 note=45 velocity=0 time=10
control_change channel=0 control=64 value=127 time=30
note_on channel=0 note=46 velocity=0 time=20
note_on channel=0 note=50 velocity=21 time=0
note_on channel=0 note=50 velocity=0 time=60
note_on channel=0 note=58 velocity=21 time=0
control_change channel=0 control=64 value=0 time=0
<meta message set_tempo tempo=1657917 time=60>
note_on channel=0 note=58 velocity=0 time=0
note_on channel=0 note=82 velocity=27 time=0
<meta message set_tempo tempo=1439194 time=60>
note_on channel=0 note=80 velocity=34 time=0
control_change channel=0 control=64 value=127 time=0
note_on channel=0 note=82 velocity=0 time=10
note_on channel=0 note=80 velocity=0 time=50
note_on channel=0 note=77 velocity=28 time=0
note_on channel=0 note=58 velocity=21 time=0
note_on channel=0 note=58 velocity=0 time=60
note_on channel=0 note=77 velocity=0 time=0
note_on channel=0 note=68 velocity=30 time=0
note_on channel=0 note=59 velocity=28 time=0
control_change channel=0 control=64 value=0 time=7
<meta message set_tempo tempo=1422138 time=53>
note_on channel=0 note=59 velocity=0 time=0
note_on channel=0 note=68 velocity=0 time=0
note_on channel=0 note=62 velocity=23 time=0
<meta message set_tempo tempo=1550788 time=60>
note_on channel=0 note=62 velocity=0 time=0
note_on channel=0 note=71 velocity=35 time=0
<meta message set_tempo tempo=1439194 time=60>
note_on channel=0 note=71 velocity=0 time=0
note_on channel=0 note=82 velocity=37 time=0
note_on channel=0 note=59 velocity=29 time=0
note_on channel=0 note=80 velocity=45 time=60
note_on channel=0 note=60 velocity=38 time=0
note_on channel=0 note=59 velocity=0 time=10
note_on channel=0 note=82 velocity=0 time=0
control_change channel=0 control=64 value=127 time=25
note_on channel=0 note=80 velocity=0 time=25
note_on channel=0 note=60 velocity=0 time=0
note_on channel=0 note=77 velocity=41 time=0
note_on channel=0 note=65 velocity=26 time=0
note_on channel=0 note=65 velocity=0 time=60
note_on channel=0 note=77 velocity=0 time=0
note_on channel=0 note=68 velocity=51 time=0
note_on channel=0 note=72 velocity=38 time=0
control_change channel=0 control=64 value=0 time=12
note_on channel=0 note=72 velocity=0 time=48
note_on channel=0 note=68 velocity=0 time=0
note_on channel=0 note=60 velocity=31 time=0
note_on channel=0 note=61 velocity=41 time=60
note_on channel=0 note=60 velocity=0 time=6
<meta message set_tempo tempo=1613337 time=54>
note_on channel=0 note=82 velocity=49 time=0
note_on channel=0 note=65 velocity=30 time=0
note_on channel=0 note=61 velocity=0 time=6
<meta message set_tempo tempo=1412097 time=36>
note_on channel=0 note=80 velocity=43 time=18
note_on channel=0 note=73 velocity=29 time=0
note_on channel=0 note=65 velocity=0 time=6
note_on channel=0 note=82 velocity=0 time=0
control_change channel=0 control=64 value=127 time=3
note_on channel=0 note=80 velocity=0 time=51
note_on channel=0 note=73 velocity=0 time=0
note_on channel=0 note=77 velocity=32 time=0
note_on channel=0 note=77 velocity=0 time=60
note_on channel=0 note=71 velocity=28 time=0
control_change channel=0 control=64 value=0 time=4
<meta message set_tempo tempo=1395673 time=8>
note_on channel=0 note=70 velocity=31 time=48
note_on channel=0 note=71 velocity=0 time=6
note_on channel=0 note=68 velocity=36 time=54
note_on channel=0 note=70 velocity=0 time=6
control_change channel=0 control=64 value=127 time=20
<meta message set_tempo tempo=1379628 time=16>
note_on channel=0 note=68 velocity=0 time=18
note_on channel=0 note=65 velocity=29 time=0
note_on channel=0 note=65 velocity=0 time=60
note_on channel=0 note=59 velocity=27 time=0
control_change channel=0 control=64 value=0 time=3
note_on channel=0 note=58 velocity=29 time=57
note_on channel=0 note=59 velocity=0 time=6
<meta message set_tempo tempo=1363946 time=6>
note_on channel=0 note=56 velocity=31 time=48
note_on channel=0 note=58 velocity=0 time=6
control_change channel=0 control=64 value=127 time=14
note_on channel=0 note=53 velocity=28 time=40
note_on channel=0 note=56 velocity=0 time=6
note_on channel=0 note=53 velocity=0 time=54
note_on channel=0 note=47 velocity=29 time=0
control_change channel=0 control=64 value=0 time=5
<meta message set_tempo tempo=1463772 time=55>
note_on channel=0 note=47 velocity=0 time=0
note_on channel=0 note=36 velocity=27 time=0
<meta message set_tempo tempo=1363946 time=60>
note_on channel=0 note=37 velocity=34 time=0
note_on channel=0 note=36 velocity=0 time=6
control_change channel=0 control=64 value=127 time=9
note_on channel=0 note=37 velocity=0 time=45
note_on channel=0 note=44 velocity=30 time=0
note_on channel=0 note=44 velocity=0 time=60
note_on channel=0 note=47 velocity=30 time=0
control_change channel=0 control=64 value=0 time=5
note_on channel=0 note=48 velocity=36 time=55
note_on channel=0 note=47 velocity=0 time=6
<meta message set_tempo tempo=1327727 time=18>
<meta message set_tempo tempo=1333630 time=3>
<meta message set_tempo tempo=1363946 time=15>
note_on channel=0 note=49 velocity=29 time=18
note_on channel=0 note=48 velocity=0 time=6
control_change channel=0 control=64 value=127 time=34
note_on channel=0 note=49 velocity=0 time=20
note_on channel=0 note=56 velocity=26 time=0
<meta message set_tempo tempo=1379628 time=57>
note_on channel=0 note=56 velocity=0 time=3
note_on channel=0 note=59 velocity=30 time=0
control_change channel=0 control=64 value=0 time=12
note_on channel=0 note=60 velocity=32 time=48
note_on channel=0 note=59 velocity=0 time=6
note_on channel=0 note=61 velocity=36 time=54
note_on channel=0 note=60 velocity=0 time=6
<meta message set_tempo tempo=1395673 time=6>
control_change channel=0 control=64 value=127 time=20
note_on channel=0 note=61 velocity=0 time=28
note_on channel=0 note=68 velocity=32 time=0
note_on channel=0 note=68 velocity=0 time=60
note_on channel=0 note=71 velocity=26 time=0
control_change channel=0 control=64 value=0 time=15
<meta message set_tempo tempo=1412097 time=12>
<meta message set_tempo tempo=1428912 time=30>
<meta message set_tempo tempo=1657917 time=3>
note_on channel=0 note=71 velocity=0 time=0
note_on channel=0 note=80 velocity=34 time=0
<meta message set_tempo tempo=1389210 time=49>
note_on channel=0 note=79 velocity=34 time=11
note_on channel=0 note=80 velocity=0 time=6
control_change channel=0 control=64 value=127 time=3
<meta message set_tempo tempo=1373312 time=3>
note_on channel=0 note=79 velocity=0 time=48
note_on channel=0 note=76 velocity=30 time=0
note_on channel=0 note=76 velocity=0 time=60
note_on channel=0 note=70 velocity=27 time=0
control_change channel=0 control=64 value=0 time=4
note_on channel=0 note=68 velocity=28 time=56
note_on channel=0 note=70 velocity=0 time=6
note_on channel=0 note=67 velocity=33 time=54
note_on channel=0 note=68 velocity=0 time=6
<meta message set_tempo tempo=1389210 time=6>
control_change channel=0 control=64 value=127 time=14
note_on channel=0 note=67 velocity=0 time=34
note_on channel=0 note=64 velocity=27 time=0
note_on channel=0 note=64 velocity=0 time=60
note_on channel=0 note=58 velocity=24 time=0
control_change channel=0 control=64 value=0 time=3
note_on channel=0 note=56 velocity=26 time=57
note_on channel=0 note=58 velocity=0 time=6
<meta message set_tempo tempo=1395673 time=54>
note_on channel=0 note=55 velocity=27 time=0
note_on channel=0 note=56 velocity=0 time=6
control_change channel=0 control=64 value=127 time=14
<meta message set_tempo tempo=1428912 time=40>
note_on channel=0 note=55 velocity=0 time=0
note_on channel=0 note=52 velocity=24 time=0
<meta message set_tempo tempo=1395673 time=60>
note_on channel=0 note=52 velocity=0 time=0
note_on channel=0 note=46 velocity=25 time=0
control_change channel=0 control=64 value=0 time=5
note_on channel=0 note=46 velocity=0 time=55
note_on channel=0 note=35 velocity=22 time=0
<meta message set_tempo tempo=1389210 time=48>
<meta message set_tempo tempo=1422138 time=12>
note_on channel=0 note=36 velocity=28 time=0
note_on channel=0 note=35 velocity=0 time=6
control_change channel=0 control=64 value=127 time=9
note_on channel=0 note=36 velocity=0 time=45
note_on channel=0 note=43 velocity=25 time=0
note_on channel=0 note=43 velocity=0 time=60
note_on channel=0 note=46 velocity=25 time=0
control_change channel=0 control=64 value=0 time=5
<meta message set_tempo tempo=1439194 time=7>
note_on channel=0 note=47 velocity=29 time=48
note_on channel=0 note=46 velocity=0 time=6
note_on channel=0 note=48 velocity=23 time=54
note_on channel=0 note=47 velocity=0 time=6
<meta message set_tempo tempo=1456664 time=6>
<meta message set_tempo tempo=1474564 time=24>
control_change channel=0 control=64 value=127 time=4
note_on channel=0 note=48 velocity=0 time=20
note_on channel=0 note=55 velocity=21 time=0
<meta message set_tempo tempo=1492909 time=24>
note_on channel=0 note=55 velocity=0 time=36
note_on channel=0 note=58 velocity=23 time=0
control_change channel=0 control=64 value=0 time=12
<meta message set_tempo tempo=1511716 time=12>
note_on channel=0 note=59 velocity=25 time=36
note_on channel=0 note=58 velocity=0 time=6
<meta message set_tempo tempo=1531003 time=18>
note_on channel=0 note=60 velocity=28 time=36
note_on channel=0 note=59 velocity=0 time=6
<meta message set_tempo tempo=1550788 time=6>
control_change channel=0 control=64 value=127 time=20
note_on channel=0 note=60 velocity=0 time=28
note_on channel=0 note=67 velocity=24 time=0
<meta message set_tempo tempo=1571092 time=12>
<meta message set_tempo tempo=1591934 time=48>
<meta message set_tempo tempo=1463772 time=0>
note_on channel=0 note=67 velocity=0 time=0
note_on channel=0 note=76 velocity=27 time=0
note_on channel=0 note=79 velocity=27 time=0
note_on channel=0 note=82 velocity=27 time=0
note_on channel=0 note=85 velocity=34 time=0
note_on channel=0 note=70 velocity=20 time=0
control_change channel=0 control=64 value=0 time=15
control_change channel=0 control=64 value=127 time=28
note_on channel=0 note=70 velocity=0 time=17
note_on channel=0 note=85 velocity=0 time=60
note_on channel=0 note=84 velocity=33 time=0
control_change channel=0 control=64 value=0 time=9
note_on channel=0 note=84 velocity=0 time=111
note_on channel=0 note=82 velocity=0 time=0
note_on channel=0 note=79 velocity=0 time=0
note_on channel=0 note=76 velocity=0 time=0
note_on channel=0 note=67 velocity=20 time=0
note_on channel=0 note=64 velocity=20 time=0
note_on channel=0 note=59 velocity=26 time=0
control_change channel=0 control=64 value=127 time=46
<meta message set_tempo tempo=1579363 time=74>
note_on channel=0 note=59 velocity=0 time=0
note_on channel=0 note=60 velocity=24 time=0
control_change channel=0 control=64 value=0 time=16
<meta message set_tempo tempo=1531003 time=104>
note_on channel=0 note=60 velocity=0 time=0
note_on channel=0 note=64 velocity=0 time=0
note_on channel=0 note=67 velocity=0 time=0
note_on channel=0 note=63 velocity=22 time=0
note_on channel=0 note=66 velocity=22 time=0
note_on channel=0 note=70 velocity=22 time=0
note_on channel=0 note=73 velocity=28 time=0
control_change channel=0 control=64 value=127 time=71
<meta message set_tempo tempo=1591934 time=49>
note_on channel=0 note=73 velocity=0 time=0
note_on channel=0 note=72 velocity=27 time=0
control_change channel=0 control=64 value=0 time=14
<meta message set_tempo tempo=1690617 time=106>
note_on channel=0 note=72 velocity=0 time=0
note_on channel=0 note=70 velocity=0 time=0
note_on channel=0 note=66 velocity=0 time=0
note_on channel=0 note=63 velocity=0 time=0
note_on channel=0 note=54 velocity=16 time=0
note_on channel=0 note=51 velocity=16 time=0
note_on channel=0 note=47 velocity=20 time=0
control_change channel=0 control=64 value=127 time=46
<meta message set_tempo tempo=1846722 time=74>
note_on channel=0 note=47 velocity=0 time=0
note_on channel=0 note=48 velocity=18 time=0
control_change channel=0 control=64 value=0 time=10
<meta message set_tempo tempo=2308580 time=110>
note_on channel=0 note=48 velocity=0 time=0
note_on channel=0 note=51 velocity=0 time=0
note_on channel=0 note=54 velocity=0 time=0
note_on channel=0 note=51 velocity=17 time=0
note_on channel=0 note=53 velocity=17 time=0
note_on channel=0 note=57 velocity=17 time=0
note_on channel=0 note=61 velocity=22 time=0
control_change channel=0 control=64 value=127 time=50
<meta message set_tempo tempo=2501042 time=70>
note_on channel=0 note=61 velocity=0 time=0
note_on channel=0 note=60 velocity=21 time=0
control_change channel=0 control=64 value=0 time=17
<meta message set_tempo tempo=1562907 time=103>
note_on channel=0 note=28 velocity=22 time=0
<meta message set_tempo tempo=1439194 time=60>
note_on channel=0 note=28 velocity=0 time=60
note_on channel=0 note=29 velocity=22 time=0
control_change channel=0 control=64 value=127 time=39
note_on channel=0 note=29 velocity=0 time=141
note_on channel=0 note=41 velocity=19 time=0
<meta message set_tempo tempo=1439194 time=60>
note_on channel=0 note=41 velocity=0 time=0
note_on channel=0 note=51 velocity=0 time=0
note_on channel=0 note=57 velocity=0 time=0
note_on channel=0 note=53 velocity=0 time=0
note_on channel=0 note=60 velocity=0 time=0
note_on channel=0 note=45 velocity=22 time=0
control_change channel=0 control=64 value=0 time=0
control_change channel=0 control=64 value=127 time=32
note_on channel=0 note=45 velocity=0 time=28
note_on channel=0 note=48 velocity=22 time=0
note_on channel=0 note=48 velocity=0 time=60
note_on channel=0 note=85 velocity=25 time=0
note_on channel=0 note=51 velocity=19 time=0
note_on channel=0 note=51 velocity=0 time=60
note_on channel=0 note=85 velocity=0 time=0
note_on channel=0 note=75 velocity=19 time=0
note_on channel=0 note=54 velocity=19 time=0
<meta message set_tempo tempo=1363946 time=57>
note_on channel=0 note=54 velocity=0 time=3
note_on channel=0 note=75 velocity=0 time=0
note_on channel=0 note=84 velocity=25 time=0
note_on channel=0 note=57 velocity=19 time=0
control_change channel=0 control=64 value=0 time=8
<meta message set_tempo tempo=1333630 time=4>
control_change channel=0 control=64 value=127 time=31
note_on channel=0 note=57 velocity=0 time=17
note_on channel=0 note=84 velocity=0 time=0
note_on channel=0 note=78 velocity=19 time=0
note_on channel=0 note=60 velocity=22 time=0
note_on channel=0 note=60 velocity=0 time=60
note_on channel=0 note=78 velocity=0 time=0
note_on channel=0 note=82 velocity=25 time=0
note_on channel=0 note=66 velocity=19 time=0
note_on channel=0 note=66 velocity=0 time=60
note_on channel=0 note=82 velocity=0 time=0
note_on channel=0 note=72 velocity=19 time=0
note_on channel=0 note=63 velocity=19 time=0
note_on channel=0 note=63 velocity=0 time=60
note_on channel=0 note=72 velocity=0 time=0
note_on channel=0 note=81 velocity=25 time=0
note_on channel=0 note=54 velocity=22 time=0
<meta message set_tempo tempo=1348618 time=12>
control_change channel=0 control=64 value=0 time=1
control_change channel=0 control=64 value=127 time=30
note_on channel=0 note=54 velocity=0 time=17
note_on channel=0 note=81 velocity=0 time=0
note_on channel=0 note=75 velocity=19 time=0
note_on channel=0 note=57 velocity=19 time=0
note_on channel=0 note=57 velocity=0 time=60
note_on channel=0 note=75 velocity=0 time=0
note_on channel=0 note=80 velocity=24 time=0
note_on channel=0 note=63 velocity=19 time=0
note_on channel=0 note=63 velocity=0 time=60
note_on channel=0 note=80 velocity=0 time=0
note_on channel=0 note=69 velocity=19 time=0
note_on channel=0 note=60 velocity=19 time=0
<meta message set_tempo tempo=1333630 time=46>
note_on channel=0 note=60 velocity=0 time=14
note_on channel=0 note=69 velocity=0 time=0
note_on channel=0 note=78 velocity=25 time=0
note_on channel=0 note=51 velocity=22 time=0
control_change channel=0 control=64 value=0 time=0
control_change channel=0 control=64 value=127 time=37
note_on channel=0 note=51 velocity=0 time=23
note_on channel=0 note=78 velocity=0 time=0
note_on channel=0 note=72 velocity=19 time=0
note_on channel=0 note=54 velocity=21 time=0
<meta message set_tempo tempo=1348618 time=1>
note_on channel=0 note=54 velocity=0 time=59
note_on channel=0 note=72 velocity=0 time=0
note_on channel=0 note=77 velocity=25 time=0
note_on channel=0 note=60 velocity=21 time=0
<meta message set_tempo tempo=1363946 time=16>
note_on channel=0 note=60 velocity=0 time=44
note_on channel=0 note=77 velocity=0 time=0
note_on channel=0 note=66 velocity=19 time=0
note_on channel=0 note=57 velocity=21 time=0
<meta message set_tempo tempo=1379628 time=31>
note_on channel=0 note=57 velocity=0 time=29
note_on channel=0 note=66 velocity=0 time=0
note_on channel=0 note=75 velocity=25 time=0
note_on channel=0 note=48 velocity=24 time=0
control_change channel=0 control=64 value=0 time=15
control_change channel=0 control=64 value=127 time=28
<meta message set_tempo tempo=1395673 time=3>
note_on channel=0 note=48 velocity=0 time=14
note_on channel=0 note=75 velocity=0 time=0
note_on channel=0 note=69 velocity=19 time=0
note_on channel=0 note=51 velocity=19 time=0
note_on channel=0 note=51 velocity=0 time=60
note_on channel=0 note=69 velocity=0 time=0
note_on channel=0 note=57 velocity=19 time=0
<meta message set_tempo tempo=1412097 time=1>
control_change channel=0 control=64 value=0 time=6
control_change channel=0 control=64 value=127 time=36
note_on channel=0 note=57 velocity=0 time=17
note_on channel=0 note=54 velocity=19 time=0
<meta message set_tempo tempo=1428912 time=16>
note_on channel=0 note=54 velocity=0 time=44
note_on channel=0 note=51 velocity=24 time=0
control_change channel=0 control=64 value=0 time=11
<meta message set_tempo tempo=1446132 time=20>
control_change channel=0 control=64 value=127 time=21
note_on channel=0 note=51 velocity=0 time=8
note_on channel=0 note=48 velocity=19 time=0
<meta message set_tempo tempo=1463772 time=46>
note_on channel=0 note=48 velocity=0 time=14
note_on channel=0 note=73 velocity=24 time=0
note_on channel=0 note=45 velocity=19 time=0
control_change channel=0 control=64 value=0 time=8
control_change channel=0 control=64 value=127 time=27
note_on channel=0 note=45 velocity=0 time=25
note_on channel=0 note=73 velocity=0 time=0
note_on channel=0 note=63 velocity=19 time=0
note_on channel=0 note=42 velocity=19 time=0
<meta message set_tempo tempo=1481847 time=1>
<meta message set_tempo tempo=1538856 time=59>
note_on channel=0 note=42 velocity=0 time=0
note_on channel=0 note=63 velocity=0 time=0
note_on channel=0 note=72 velocity=25 time=0
note_on channel=0 note=39 velocity=22 time=0
control_change channel=0 control=64 value=0 time=0
control_change channel=0 control=64 value=127 time=43
note_on channel=0 note=39 velocity=0 time=17
note_on channel=0 note=72 velocity=0 time=0
note_on channel=0 note=66 velocity=19 time=0
note_on channel=0 note=45 velocity=20 time=0
note_on channel=0 note=45 velocity=0 time=60
note_on channel=0 note=66 velocity=0 time=0
note_on channel=0 note=54 velocity=20 time=0
note_on channel=0 note=54 velocity=0 time=60
control_change channel=0 control=64 value=0 time=0
<meta message set_tempo tempo=1622060 time=60>
<meta message set_tempo tempo=1600427 time=60>
<meta message set_tempo tempo=1622060 time=60>
note_on channel=0 note=73 velocity=22 time=0
note_on channel=0 note=39 velocity=22 time=0
control_change channel=0 control=64 value=127 time=40
note_on channel=0 note=39 velocity=0 time=20
note_on channel=0 note=73 velocity=0 time=0
note_on channel=0 note=65 velocity=19 time=0
note_on channel=0 note=44 velocity=21 time=0
<meta message set_tempo tempo=1622060 time=60>
note_on channel=0 note=44 velocity=0 time=0
note_on channel=0 note=65 velocity=0 time=0
note_on channel=0 note=71 velocity=25 time=0
note_on channel=0 note=53 velocity=21 time=0
note_on channel=0 note=71 velocity=0 time=60
note_on channel=0 note=68 velocity=19 time=0
<meta message set_tempo tempo=1765225 time=60>
note_on channel=0 note=68 velocity=0 time=0
note_on channel=0 note=53 velocity=0 time=0
note_on channel=0 note=59 velocity=25 time=0
<meta message set_tempo tempo=1579363 time=60>
note_on channel=0 note=59 velocity=0 time=0
note_on channel=0 note=71 velocity=34 time=0
<meta message set_tempo tempo=1605136 time=60>
note_on channel=0 note=71 velocity=0 time=0
note_on channel=0 note=70 velocity=41 time=0
note_on channel=0 note=38 velocity=29 time=0
control_change channel=0 control=64 value=0 time=3
control_change channel=0 control=64 value=127 time=32
note_on channel=0 note=68 velocity=27 time=25
note_on channel=0 note=68 velocity=0 time=60
note_on channel=0 note=38 velocity=0 time=0
note_on channel=0 note=70 velocity=0 time=0
note_on channel=0 note=58 velocity=27 time=0
note_on channel=0 note=58 velocity=0 time=60
note_on channel=0 note=52 velocity=26 time=0
control_change channel=0 control=64 value=0 time=12
note_on channel=0 note=53 velocity=31 time=48
note_on channel=0 note=52 velocity=0 time=10
control_change channel=0 control=64 value=127 time=33
note_on channel=0 note=53 velocity=0 time=17
note_on channel=0 note=56 velocity=20 time=0
note_on channel=0 note=56 velocity=0 time=60
note_on channel=0 note=65 velocity=19 time=0
<meta message set_tempo tempo=1803969 time=60>
note_on channel=0 note=65 velocity=0 time=0
note_on channel=0 note=70 velocity=38 time=0
control_change channel=0 control=64 value=0 time=20
<meta message set_tempo tempo=1605136 time=40>
note_on channel=0 note=71 velocity=42 time=0
note_on channel=0 note=39 velocity=25 time=0
note_on channel=0 note=70 velocity=0 time=10
control_change channel=0 control=64 value=127 time=29
note_on channel=0 note=71 velocity=0 time=21
note_on channel=0 note=68 velocity=27 time=0
<meta message set_tempo tempo=1755413 time=60>
note_on channel=0 note=68 velocity=0 time=0
note_on channel=0 note=39 velocity=0 time=0
note_on channel=0 note=59 velocity=26 time=0
note_on channel=0 note=59 velocity=0 time=60
note_on channel=0 note=71 velocity=34 time=0
<meta message set_tempo tempo=1605136 time=60>
note_on channel=0 note=71 velocity=0 time=0
note_on channel=0 note=77 velocity=41 time=0
note_on channel=0 note=38 velocity=29 time=0
control_change channel=0 control=64 value=0 time=3
control_change channel=0 control=64 value=127 time=32
note_on channel=0 note=77 velocity=0 time=25
note_on channel=0 note=68 velocity=27 time=0
note_on channel=0 note=68 velocity=0 time=60
note_on channel=0 note=38 velocity=0 time=0
note_on channel=0 note=65 velocity=27 time=0
note_on channel=0 note=65 velocity=0 time=60
note_on channel=0 note=57 velocity=28 time=0
control_change channel=0 control=64 value=0 time=12
note_on channel=0 note=58 velocity=32 time=48
note_on channel=0 note=57 velocity=0 time=10
control_change channel=0 control=64 value=127 time=33
note_on channel=0 note=58 velocity=0 time=17
note_on channel=0 note=65 velocity=20 time=0
note_on channel=0 note=65 velocity=0 time=60
note_on channel=0 note=70 velocity=19 time=0
<meta message set_tempo tempo=1694915 time=60>
note_on channel=0 note=70 velocity=0 time=0
note_on channel=0 note=77 velocity=43 time=0
control_change channel=0 control=64 value=0 time=20
<meta message set_tempo tempo=1605136 time=40>
note_on channel=0 note=80 velocity=53 time=0
note_on channel=0 note=34 velocity=30 time=0
note_on channel=0 note=77 velocity=0 time=10
control_change channel=0 control=64 value=127 time=29
note_on channel=0 note=80 velocity=0 time=21
note_on channel=0 note=74 velocity=32 time=0
<meta message set_tempo tempo=1648352 time=60>
note_on channel=0 note=74 velocity=0 time=0
note_on channel=0 note=34 velocity=0 time=0
note_on channel=0 note=68 velocity=42 time=0
note_on channel=0 note=68 velocity=0 time=60
note_on channel=0 note=80 velocity=47 time=0
<meta message set_tempo tempo=1605136 time=60>
note_on channel=0 note=80 velocity=0 time=0
note_on channel=0 note=78 velocity=58 time=0
note_on channel=0 note=39 velocity=35 time=0
control_change channel=0 control=64 value=0 time=3
control_change channel=0 control=64 value=127 time=32
note_on channel=0 note=78 velocity=0 time=25
note_on channel=0 note=75 velocity=32 time=0
note_on channel=0 note=75 velocity=0 time=60
note_on channel=0 note=39 velocity=0 time=0
note_on channel=0 note=66 velocity=32 time=0
note_on channel=0 note=66 velocity=0 time=60
note_on channel=0 note=57 velocity=33 time=0
control_change channel=0 control=64 value=0 time=12
note_on channel=0 note=58 velocity=37 time=48
note_on channel=0 note=57 velocity=0 time=10
control_change channel=0 control=64 value=127 time=33
note_on channel=0 note=58 velocity=0 time=17
note_on channel=0 note=61 velocity=24 time=0
note_on channel=0 note=61 velocity=0 time=60
note_on channel=0 note=70 velocity=23 time=0
<meta message set_tempo tempo=1803969 time=60>
note_on channel=0 note=70 velocity=0 time=0
note_on channel=0 note=73 velocity=45 time=0
control_change channel=0 control=64 value=0 time=20
<meta message set_tempo tempo=1645639 time=40>
note_on channel=0 note=78 velocity=50 time=0
note_on channel=0 note=32 velocity=30 time=0
note_on channel=0 note=73 velocity=0 time=10
control_change channel=0 control=64 value=127 time=29
note_on channel=0 note=78 velocity=0 time=21
note_on channel=0 note=72 velocity=32 time=0
<meta message set_tempo tempo=1604278 time=60>
note_on channel=0 note=72 velocity=0 time=0
note_on channel=0 note=32 velocity=0 time=0
note_on channel=0 note=66 velocity=31 time=0
note_on channel=0 note=66 velocity=0 time=60
note_on channel=0 note=78 velocity=41 time=0
<meta message set_tempo tempo=1605136 time=60>
note_on channel=0 note=78 velocity=0 time=0
note_on channel=0 note=77 velocity=49 time=0
note_on channel=0 note=37 velocity=35 time=0
control_change channel=0 control=64 value=0 time=3
control_change channel=0 control=64 value=127 time=32
note_on channel=0 note=77 velocity=0 time=25
note_on channel=0 note=72 velocity=32 time=0
note_on channel=0 note=72 velocity=0 time=60
note_on channel=0 note=37 velocity=0 time=0
note_on channel=0 note=65 velocity=32 time=0
note_on channel=0 note=65 velocity=0 time=60
note_on channel=0 note=55 velocity=26 time=0
control_change channel=0 control=64 value=0 time=12
note_on channel=0 note=56 velocity=29 time=48
note_on channel=0 note=55 velocity=0 time=10
control_change channel=0 control=64 value=127 time=33
note_on channel=0 note=56 velocity=0 time=17
note_on channel=0 note=60 velocity=18 time=0
note_on channel=0 note=60 velocity=0 time=60
note_on channel=0 note=68 velocity=18 time=0
<meta message set_tempo tempo=1755413 time=60>
note_on channel=0 note=68 velocity=0 time=0
note_on channel=0 note=72 velocity=41 time=0
control_change channel=0 control=64 value=0 time=20
<meta message set_tempo tempo=1605136 time=40>
note_on channel=0 note=72 velocity=0 time=0
note_on channel=0 note=77 velocity=49 time=0
note_on channel=0 note=30 velocity=35 time=0
control_change channel=0 control=64 value=127 time=0
note_on channel=0 note=77 velocity=0 time=60
note_on channel=0 note=70 velocity=32 time=0
note_on channel=0 note=70 velocity=0 time=60
note_on channel=0 note=30 velocity=0 time=0
note_on channel=0 note=65 velocity=32 time=0
<meta message set_tempo tempo=1755413 time=60>
note_on channel=0 note=65 velocity=0 time=0
note_on channel=0 note=77 velocity=41 time=0
<meta message set_tempo tempo=1605136 time=60>
note_on channel=0 note=77 velocity=0 time=0
note_on channel=0 note=75 velocity=49 time=0
note_on channel=0 note=36 velocity=35 time=0
control_change channel=0 control=64 value=0 time=3
control_change channel=0 control=64 value=127 time=32
note_on channel=0 note=75 velocity=0 time=25
note_on channel=0 note=70 velocity=32 time=0
note_on channel=0 note=70 velocity=0 time=60
note_on channel=0 note=36 velocity=0 time=0
note_on channel=0 note=63 velocity=32 time=0
<meta message set_tempo tempo=1755413 time=60>
note_on channel=0 note=63 velocity=0 time=0
note_on channel=0 note=73 velocity=41 time=0
<meta message set_tempo tempo=1605136 time=60>
note_on channel=0 note=73 velocity=0 time=0
note_on channel=0 note=72 velocity=49 time=0
note_on channel=0 note=39 velocity=35 time=0
control_change channel=0 control=64 value=0 time=3
control_change channel=0 control=64 value=127 time=32
note_on channel=0 note=72 velocity=0 time=25
note_on channel=0 note=66 velocity=32 time=0
note_on channel=0 note=66 velocity=0 time=60
note_on channel=0 note=39 velocity=0 time=0
note_on channel=0 note=60 velocity=32 time=0
<meta message set_tempo tempo=1605136 time=60>
note_on channel=0 note=60 velocity=0 time=0
note_on channel=0 note=53 velocity=33 time=0
control_change channel=0 control=64 value=0 time=12
note_on channel=0 note=54 velocity=37 time=48
note_on channel=0 note=53 velocity=0 time=10
control_change channel=0 control=64 value=127 time=33
note_on channel=0 note=54 velocity=0 time=17
note_on channel=0 note=58 velocity=24 time=0
note_on channel=0 note=58 velocity=0 time=60
note_on channel=0 note=66 velocity=23 time=0
<meta message set_tempo tempo=1908397 time=60>
note_on channel=0 note=66 velocity=0 time=0
note_on channel=0 note=77 velocity=45 time=0
control_change channel=0 control=64 value=0 time=20
<meta message set_tempo tempo=1666204 time=40>
note_on channel=0 note=75 velocity=50 time=0
note_on channel=0 note=29 velocity=30 time=0
note_on channel=0 note=77 velocity=0 time=10
control_change channel=0 control=64 value=127 time=29
<meta message set_tempo tempo=1645639 time=21>
note_on channel=0 note=75 velocity=0 time=0
note_on channel=0 note=69 velocity=32 time=0
<meta message set_tempo tempo=1648352 time=60>
note_on channel=0 note=69 velocity=0 time=0
note_on channel=0 note=29 velocity=0 time=0
note_on channel=0 note=63 velocity=31 time=0
note_on channel=0 note=63 velocity=0 time=60
note_on channel=0 note=73 velocity=41 time=0
<meta message set_tempo tempo=1625135 time=60>
note_on channel=0 note=73 velocity=0 time=0
note_on channel=0 note=72 velocity=49 time=0
note_on channel=0 note=41 velocity=35 time=0
control_change channel=0 control=64 value=0 time=3
control_change channel=0 control=64 value=127 time=32
<meta message set_tempo tempo=1605136 time=25>
note_on channel=0 note=41 velocity=0 time=0
note_on channel=0 note=72 velocity=0 time=0
note_on channel=0 note=69 velocity=32 time=0
note_on channel=0 note=69 velocity=0 time=60
note_on channel=0 note=63 velocity=32 time=0
<meta message set_tempo tempo=1605136 time=60>
note_on channel=0 note=63 velocity=0 time=0
note_on channel=0 note=52 velocity=33 time=0
control_change channel=0 control=64 value=0 time=12
<meta message set_tempo tempo=1605136 time=48>
note_on channel=0 note=53 velocity=37 time=0
note_on channel=0 note=52 velocity=0 time=10
control_change channel=0 control=64 value=127 time=33
note_on channel=0 note=53 velocity=0 time=17
note_on channel=0 note=57 velocity=24 time=0
note_on channel=0 note=57 velocity=0 time=60
note_on channel=0 note=65 velocity=23 time=0
<meta message set_tempo tempo=1803969 time=60>
note_on channel=0 note=65 velocity=0 time=0
note_on channel=0 note=78 velocity=45 time=0
control_change channel=0 control=64 value=0 time=20
<meta message set_tempo tempo=1626016 time=40>
note_on channel=0 note=78 velocity=0 time=0
note_on channel=0 note=77 velocity=50 time=0
control_change channel=0 control=64 value=127 time=29
note_on channel=0 note=72 velocity=31 time=31
<meta message set_tempo tempo=1583113 time=60>
note_on channel=0 note=72 velocity=0 time=0
note_on channel=0 note=69 velocity=30 time=0
note_on channel=0 note=69 velocity=0 time=60
note_on channel=0 note=65 velocity=28 time=0
<meta message set_tempo tempo=1542416 time=60>
note_on channel=0 note=65 velocity=0 time=0
note_on channel=0 note=77 velocity=0 time=0
note_on channel=0 note=76 velocity=47 time=0
control_change channel=0 control=64 value=0 time=19
control_change channel=0 control=64 value=127 time=36
note_on channel=0 note=72 velocity=30 time=5
<meta message set_tempo tempo=1522843 time=60>
note_on channel=0 note=72 velocity=0 time=0
note_on channel=0 note=69 velocity=28 time=0
note_on channel=0 note=69 velocity=0 time=60
note_on channel=0 note=65 velocity=26 time=0
<meta message set_tempo tempo=1522843 time=60>
note_on channel=0 note=65 velocity=0 time=0
note_on channel=0 note=76 velocity=0 time=0
note_on channel=0 note=75 velocity=45 time=0
control_change channel=0 control=64 value=0 time=17
note_on channel=0 note=72 velocity=28 time=43
control_change channel=0 control=64 value=127 time=0
<meta message set_tempo tempo=1645639 time=60>
note_on channel=0 note=72 velocity=0 time=0
note_on channel=0 note=69 velocity=27 time=0
<meta message set_tempo tempo=1562500 time=60>
note_on channel=0 note=69 velocity=0 time=0
note_on channel=0 note=65 velocity=25 time=0
note_on channel=0 note=65 velocity=0 time=60
note_on channel=0 note=75 velocity=0 time=0
note_on channel=0 note=73 velocity=41 time=0
control_change channel=0 control=64 value=0 time=0
control_change channel=0 control=64 value=127 time=35
note_on channel=0 note=69 velocity=33 time=25
<meta message set_tempo tempo=1522843 time=60>
note_on channel=0 note=66 velocity=28 time=0
<meta message set_tempo tempo=1522843 time=12>
note_on channel=0 note=61 velocity=22 time=48
note_on channel=0 note=61 velocity=0 time=60
note_on channel=0 note=57 velocity=24 time=0
<meta message set_tempo tempo=1542416 time=48>
note_on channel=0 note=57 velocity=0 time=12
note_on channel=0 note=54 velocity=24 time=0
note_on channel=0 note=54 velocity=0 time=60
note_on channel=0 note=49 velocity=24 time=0
note_on channel=0 note=49 velocity=0 time=60
note_on channel=0 note=45 velocity=22 time=0
<meta message set_tempo tempo=1562500 time=12>
note_on channel=0 note=45 velocity=0 time=48
note_on channel=0 note=42 velocity=22 time=0
note_on channel=0 note=42 velocity=0 time=60
note_on channel=0 note=37 velocity=22 time=0
<meta message set_tempo tempo=1583113 time=48>
note_on channel=0 note=37 velocity=0 time=12
note_on channel=0 note=33 velocity=22 time=0
note_on channel=0 note=33 velocity=0 time=60
note_on channel=0 note=30 velocity=22 time=0
note_on channel=0 note=30 velocity=0 time=60
note_on channel=0 note=27 velocity=22 time=0
control_change channel=0 control=64 value=0 time=0
<meta message set_tempo tempo=1604278 time=12>
control_change channel=0 control=64 value=127 time=23
note_on channel=0 note=85 velocity=32 time=25
note_on channel=0 note=85 velocity=0 time=60
note_on channel=0 note=27 velocity=0 time=0
note_on channel=0 note=83 velocity=29 time=0
note_on channel=0 note=39 velocity=21 time=0
note_on channel=0 note=39 velocity=0 time=60
note_on channel=0 note=83 velocity=0 time=0
note_on channel=0 note=81 velocity=28 time=0
note_on channel=0 note=42 velocity=22 time=0
note_on channel=0 note=42 velocity=0 time=60
note_on channel=0 note=73 velocity=0 time=0
note_on channel=0 note=66 velocity=0 time=0
note_on channel=0 note=69 velocity=0 time=0
note_on channel=0 note=81 velocity=0 time=0
note_on channel=0 note=80 velocity=31 time=0
note_on channel=0 note=45 velocity=23 time=0
note_on channel=0 note=45 velocity=0 time=60
note_on channel=0 note=80 velocity=0 time=0
note_on channel=0 note=78 velocity=28 time=0
note_on channel=0 note=51 velocity=24 time=0
note_on channel=0 note=51 velocity=0 time=60
note_on channel=0 note=78 velocity=0 time=0
note_on channel=0 note=75 velocity=28 time=0
note_on channel=0 note=54 velocity=26 time=0
note_on channel=0 note=54 velocity=0 time=60
note_on channel=0 note=75 velocity=0 time=0
note_on channel=0 note=73 velocity=28 time=0
note_on channel=0 note=57 velocity=27 time=0
<meta message set_tempo tempo=1605136 time=60>
note_on channel=0 note=57 velocity=0 time=0
note_on channel=0 note=73 velocity=0 time=0
note_on channel=0 note=72 velocity=35 time=0
note_on channel=0 note=39 velocity=25 time=0
control_change channel=0 control=64 value=0 time=8
control_change channel=0 control=64 value=127 time=31
note_on channel=0 note=72 velocity=0 time=21
note_on channel=0 note=66 velocity=27 time=0
<meta message set_tempo tempo=1671309 time=60>
note_on channel=0 note=66 velocity=0 time=0
note_on channel=0 note=39 velocity=0 time=0
note_on channel=0 note=60 velocity=26 time=0
note_on channel=0 note=60 velocity=0 time=60
note_on channel=0 note=72 velocity=34 time=0
<meta message set_tempo tempo=1605136 time=60>
note_on channel=0 note=72 velocity=0 time=0
note_on channel=0 note=70 velocity=41 time=0
note_on channel=0 note=37 velocity=29 time=0
control_change channel=0 control=64 value=0 time=3
control_change channel=0 control=64 value=127 time=32
note_on channel=0 note=65 velocity=27 time=25
note_on channel=0 note=65 velocity=0 time=60
note_on channel=0 note=37 velocity=0 time=0
note_on channel=0 note=58 velocity=27 time=0
note_on channel=0 note=58 velocity=0 time=60
note_on channel=0 note=52 velocity=28 time=0
control_change channel=0 control=64 value=0 time=12
note_on channel=0 note=70 velocity=0 time=48
note_on channel=0 note=53 velocity=31 time=0
note_on channel=0 note=52 velocity=0 time=10
control_change channel=0 control=64 value=127 time=33
note_on channel=0 note=53 velocity=0 time=17
note_on channel=0 note=58 velocity=20 time=0
note_on channel=0 note=58 velocity=0 time=60
note_on channel=0 note=65 velocity=19 time=0
<meta message set_tempo tempo=1648352 time=60>
note_on channel=0 note=65 velocity=0 time=0
note_on channel=0 note=70 velocity=40 time=0
control_change channel=0 control=64 value=0 time=20
<meta message set_tempo tempo=1605136 time=40>
note_on channel=0 note=70 velocity=0 time=0
note_on channel=0 note=73 velocity=47 time=0
note_on channel=0 note=40 velocity=30 time=0
control_change channel=0 control=64 value=127 time=39
note_on channel=0 note=73 velocity=0 time=21
note_on channel=0 note=66 velocity=32 time=0
<meta message set_tempo tempo=1604278 time=60>
note_on channel=0 note=66 velocity=0 time=0
note_on channel=0 note=40 velocity=0 time=0
note_on channel=0 note=58 velocity=31 time=0
note_on channel=0 note=58 velocity=0 time=60
note_on channel=0 note=73 velocity=45 time=0
<meta message set_tempo tempo=1605136 time=60>
note_on channel=0 note=73 velocity=0 time=0
note_on channel=0 note=78 velocity=58 time=0
note_on channel=0 note=39 velocity=35 time=0
control_change channel=0 control=64 value=0 time=3
control_change channel=0 control=64 value=127 time=32
note_on channel=0 note=78 velocity=0 time=25
note_on channel=0 note=71 velocity=32 time=0
note_on channel=0 note=71 velocity=0 time=60
note_on channel=0 note=39 velocity=0 time=0
note_on channel=0 note=66 velocity=32 time=0
note_on channel=0 note=66 velocity=0 time=60
note_on channel=0 note=53 velocity=33 time=0
control_change channel=0 control=64 value=0 time=12
note_on channel=0 note=54 velocity=37 time=48
note_on channel=0 note=53 velocity=0 time=10
control_change channel=0 control=64 value=127 time=33
note_on channel=0 note=54 velocity=0 time=17
note_on channel=0 note=59 velocity=24 time=0
note_on channel=0 note=59 velocity=0 time=60
note_on channel=0 note=66 velocity=23 time=0
<meta message set_tempo tempo=1803969 time=60>
note_on channel=0 note=66 velocity=0 time=0
note_on channel=0 note=75 velocity=47 time=0
control_change channel=0 control=64 value=0 time=20
<meta message set_tempo tempo=1562500 time=40>
note_on channel=0 note=75 velocity=0 time=0
note_on channel=0 note=73 velocity=56 time=0
note_on channel=0 note=40 velocity=30 time=0
control_change channel=0 control=64 value=127 time=39
note_on channel=0 note=73 velocity=0 time=21
note_on channel=0 note=67 velocity=33 time=0
<meta message set_tempo tempo=1604278 time=60>
note_on channel=0 note=67 velocity=0 time=0
note_on channel=0 note=40 velocity=0 time=0
note_on channel=0 note=58 velocity=43 time=0
<meta message set_tempo tempo=1666204 time=60>
note_on channel=0 note=58 velocity=0 time=0
note_on channel=0 note=70 velocity=49 time=0
<meta message set_tempo tempo=1605136 time=60>
note_on channel=0 note=70 velocity=0 time=0
note_on channel=0 note=71 velocity=60 time=0
note_on channel=0 note=39 velocity=35 time=0
control_change channel=0 control=64 value=0 time=3
control_change channel=0 control=64 value=127 time=32
note_on channel=0 note=71 velocity=0 time=25
note_on channel=0 note=66 velocity=32 time=0
note_on channel=0 note=66 velocity=0 time=60
note_on channel=0 note=39 velocity=0 time=0
note_on channel=0 note=59 velocity=32 time=0
note_on channel=0 note=59 velocity=0 time=60
note_on channel=0 note=53 velocity=33 time=0
control_change channel=0 control=64 value=0 time=12
note_on channel=0 note=54 velocity=37 time=48
note_on channel=0 note=53 velocity=0 time=10
control_change channel=0 control=64 value=127 time=33
note_on channel=0 note=54 velocity=0 time=17
note_on channel=0 note=59 velocity=24 time=0
note_on channel=0 note=59 velocity=0 time=60
note_on channel=0 note=66 velocity=23 time=0
<meta message set_tempo tempo=1803969 time=60>
note_on channel=0 note=66 velocity=0 time=0
note_on channel=0 note=71 velocity=51 time=0
control_change channel=0 control=64 value=0 time=20
<meta message set_tempo tempo=1645639 time=40>
note_on channel=0 note=71 velocity=0 time=0
note_on channel=0 note=72 velocity=47 time=0
note_on channel=0 note=75 velocity=57 time=0
note_on channel=0 note=42 velocity=33 time=0
control_change channel=0 control=64 value=127 time=39
note_on channel=0 note=75 velocity=0 time=21
note_on channel=0 note=72 velocity=0 time=0
note_on channel=0 note=68 velocity=36 time=0
<meta message set_tempo tempo=1694915 time=60>
note_on channel=0 note=68 velocity=0 time=0
note_on channel=0 note=42 velocity=0 time=0
note_on channel=0 note=60 velocity=36 time=0
note_on channel=0 note=60 velocity=0 time=60
note_on channel=0 note=75 velocity=50 time=0
<meta message set_tempo tempo=1605136 time=60>
note_on channel=0 note=75 velocity=0 time=0
note_on channel=0 note=80 velocity=62 time=0
note_on channel=0 note=41 velocity=42 time=0
control_change channel=0 control=64 value=0 time=3
control_change channel=0 control=64 value=127 time=32
note_on channel=0 note=80 velocity=0 time=25
note_on channel=0 note=73 velocity=35 time=0
note_on channel=0 note=73 velocity=0 time=60
note_on channel=0 note=41 velocity=0 time=0
note_on channel=0 note=68 velocity=35 time=0
note_on channel=0 note=68 velocity=0 time=60
note_on channel=0 note=55 velocity=38 time=0
control_change channel=0 control=64 value=0 time=12
note_on channel=0 note=56 velocity=48 time=48
note_on channel=0 note=55 velocity=0 time=10
control_change channel=0 control=64 value=127 time=33
note_on channel=0 note=56 velocity=0 time=17
note_on channel=0 note=61 velocity=26 time=0
note_on channel=0 note=61 velocity=0 time=60
note_on channel=0 note=68 velocity=25 time=0
<meta message set_tempo tempo=1648352 time=60>
note_on channel=0 note=68 velocity=0 time=0
note_on channel=0 note=73 velocity=49 time=0
control_change channel=0 control=64 value=0 time=20
<meta message set_tempo tempo=1605136 time=40>
note_on channel=0 note=73 velocity=0 time=0
note_on channel=0 note=80 velocity=58 time=0
note_on channel=0 note=40 velocity=41 time=0
control_change channel=0 control=64 value=127 time=0
note_on channel=0 note=80 velocity=0 time=60
note_on channel=0 note=73 velocity=38 time=0
note_on channel=0 note=73 velocity=0 time=60
note_on channel=0 note=40 velocity=0 time=0
note_on channel=0 note=68 velocity=39 time=0
<meta message set_tempo tempo=1755413 time=60>
note_on channel=0 note=68 velocity=0 time=0
note_on channel=0 note=80 velocity=51 time=0
<meta message set_tempo tempo=1605136 time=60>
note_on channel=0 note=80 velocity=0 time=0
note_on channel=0 note=85 velocity=70 time=0
note_on channel=0 note=39 velocity=45 time=0
control_change channel=0 control=64 value=0 time=3
control_change channel=0 control=64 value=127 time=32
note_on channel=0 note=85 velocity=0 time=25
note_on channel=0 note=79 velocity=38 time=0
note_on channel=0 note=79 velocity=0 time=60
note_on channel=0 note=39 velocity=0 time=0
note_on channel=0 note=73 velocity=38 time=0
note_on channel=0 note=73 velocity=0 time=60
note_on channel=0 note=57 velocity=38 time=0
control_change channel=0 control=64 value=0 time=12
note_on channel=0 note=58 velocity=45 time=48
note_on channel=0 note=57 velocity=0 time=10
control_change channel=0 control=64 value=127 time=33
note_on channel=0 note=58 velocity=0 time=17
note_on channel=0 note=61 velocity=28 time=0
note_on channel=0 note=61 velocity=0 time=60
note_on channel=0 note=70 velocity=27 time=0
<meta message set_tempo tempo=1648352 time=60>
note_on channel=0 note=70 velocity=0 time=0
note_on channel=0 note=73 velocity=53 time=0
control_change channel=0 control=64 value=0 time=20
<meta message set_tempo tempo=1605136 time=40>
note_on channel=0 note=73 velocity=0 time=0
note_on channel=0 note=78 velocity=61 time=0
note_on channel=0 note=38 velocity=45 time=0
control_change channel=0 control=64 value=127 time=0
note_on channel=0 note=78 velocity=0 time=60
note_on channel=0 note=72 velocity=42 time=0
note_on channel=0 note=72 velocity=0 time=60
note_on channel=0 note=38 velocity=0 time=0
note_on channel=0 note=66 velocity=42 time=0
<meta message set_tempo tempo=1755413 time=60>
note_on channel=0 note=66 velocity=0 time=0
note_on channel=0 note=78 velocity=56 time=0
<meta message set_tempo tempo=1605136 time=60>
note_on channel=0 note=78 velocity=0 time=0
note_on channel=0 note=83 velocity=66 time=0
note_on channel=0 note=37 velocity=48 time=0
control_change channel=0 control=64 value=0 time=3
control_change channel=0 control=64 value=127 time=32
note_on channel=0 note=83 velocity=0 time=25
note_on channel=0 note=77 velocity=41 time=0
note_on channel=0 note=77 velocity=0 time=60
note_on channel=0 note=37 velocity=0 time=0
note_on channel=0 note=71 velocity=41 time=0
note_on channel=0 note=71 velocity=0 time=60
note_on channel=0 note=55 velocity=42 time=0
control_change channel=0 control=64 value=0 time=12
note_on channel=0 note=56 velocity=48 time=48
note_on channel=0 note=55 velocity=0 time=10
control_change channel=0 control=64 value=127 time=33
note_on channel=0 note=56 velocity=0 time=17
note_on channel=0 note=59 velocity=30 time=0
note_on channel=0 note=59 velocity=0 time=60
note_on channel=0 note=68 velocity=29 time=0
<meta message set_tempo tempo=1648352 time=60>
note_on channel=0 note=68 velocity=0 time=0
note_on channel=0 note=71 velocity=53 time=0
control_change channel=0 control=64 value=0 time=20
<meta message set_tempo tempo=1605136 time=40>
note_on channel=0 note=71 velocity=0 time=0
note_on channel=0 note=76 velocity=66 time=0
note_on channel=0 note=36 velocity=47 time=0
control_change channel=0 control=64 value=127 time=0
note_on channel=0 note=76 velocity=0 time=60
note_on channel=0 note=70 velocity=44 time=0
note_on channel=0 note=70 velocity=0 time=60
note_on channel=0 note=36 velocity=0 time=0
note_on channel=0 note=64 velocity=45 time=0
<meta message set_tempo tempo=1755413 time=60>
note_on channel=0 note=64 velocity=0 time=0
note_on channel=0 note=76 velocity=49 time=0
<meta message set_tempo tempo=1645639 time=60>
note_on channel=0 note=76 velocity=0 time=0
note_on channel=0 note=81 velocity=69 time=0
note_on channel=0 note=35 velocity=51 time=0
control_change channel=0 control=64 value=0 time=9
control_change channel=0 control=64 value=127 time=40
note_on channel=0 note=75 velocity=47 time=11
<meta message set_tempo tempo=1580611 time=60>
note_on channel=0 note=75 velocity=0 time=0
note_on channel=0 note=35 velocity=0 time=0
note_on channel=0 note=69 velocity=46 time=0
note_on channel=0 note=69 velocity=0 time=60
note_on channel=0 note=59 velocity=42 time=0
<meta message set_tempo tempo=1538856 time=60>
note_on channel=0 note=59 velocity=0 time=0
note_on channel=0 note=81 velocity=0 time=0
note_on channel=0 note=78 velocity=69 time=0
note_on channel=0 note=75 velocity=47 time=60
<meta message set_tempo tempo=1558846 time=60>
note_on channel=0 note=75 velocity=0 time=0
note_on channel=0 note=69 velocity=46 time=0
<meta message set_tempo tempo=1558846 time=60>
note_on channel=0 note=69 velocity=0 time=0
note_on channel=0 note=47 velocity=42 time=0
<meta message set_tempo tempo=1623377 time=60>
note_on channel=0 note=47 velocity=0 time=0
note_on channel=0 note=78 velocity=0 time=0
note_on channel=0 note=75 velocity=69 time=0
note_on channel=0 note=69 velocity=47 time=60
<meta message set_tempo tempo=1716247 time=60>
note_on channel=0 note=69 velocity=0 time=0
note_on channel=0 note=66 velocity=46 time=0
note_on channel=0 note=66 velocity=0 time=60
note_on channel=0 note=35 velocity=42 time=0
<meta message set_tempo tempo=1623377 time=60>
note_on channel=0 note=35 velocity=0 time=0
note_on channel=0 note=75 velocity=0 time=0
note_on channel=0 note=69 velocity=69 time=0
control_change channel=0 control=64 value=0 time=9
control_change channel=0 control=64 value=127 time=40
note_on channel=0 note=63 velocity=43 time=11
<meta message set_tempo tempo=1601708 time=60>
note_on channel=0 note=63 velocity=0 time=0
note_on channel=0 note=57 velocity=42 time=0
note_on channel=0 note=57 velocity=0 time=60
note_on channel=0 note=47 velocity=39 time=0
<meta message set_tempo tempo=1538856 time=60>
note_on channel=0 note=47 velocity=0 time=0
note_on channel=0 note=69 velocity=0 time=0
note_on channel=0 note=68 velocity=66 time=0
note_on channel=0 note=63 velocity=43 time=60
<meta message set_tempo tempo=1579363 time=60>
note_on channel=0 note=63 velocity=0 time=0
note_on channel=0 note=57 velocity=42 time=0
note_on channel=0 note=57 velocity=0 time=60
note_on channel=0 note=35 velocity=39 time=0
<meta message set_tempo tempo=1716247 time=60>
note_on channel=0 note=35 velocity=0 time=0
note_on channel=0 note=68 velocity=0 time=0
note_on channel=0 note=66 velocity=66 time=0
note_on channel=0 note=63 velocity=43 time=60
<meta message set_tempo tempo=1645639 time=60>
note_on channel=0 note=63 velocity=0 time=0
note_on channel=0 note=57 velocity=42 time=0
<meta message set_tempo tempo=2108222 time=60>
note_on channel=0 note=57 velocity=0 time=0
note_on channel=0 note=47 velocity=39 time=0
note_on channel=0 note=57 velocity=36 time=30
note_on channel=0 note=63 velocity=36 time=0
note_on channel=0 note=65 velocity=42 time=0
<meta message set_tempo tempo=1623377 time=30>
note_on channel=0 note=65 velocity=0 time=0
note_on channel=0 note=57 velocity=0 time=0
note_on channel=0 note=66 velocity=0 time=0
note_on channel=0 note=47 velocity=0 time=0
note_on channel=0 note=63 velocity=0 time=0
note_on channel=0 note=87 velocity=76 time=0
note_on channel=0 note=36 velocity=42 time=0
note_on channel=0 note=41 velocity=42 time=0
note_on channel=0 note=48 velocity=51 time=0
control_change channel=0 control=64 value=0 time=9
control_change channel=0 control=64 value=127 time=40
note_on channel=0 note=81 velocity=47 time=11
<meta message set_tempo tempo=1558846 time=60>
note_on channel=0 note=81 velocity=0 time=0
note_on channel=0 note=41 velocity=0 time=0
note_on channel=0 note=48 velocity=0 time=0
note_on channel=0 note=36 velocity=0 time=0
note_on channel=0 note=75 velocity=46 time=0
note_on channel=0 note=75 velocity=0 time=60
note_on channel=0 note=65 velocity=42 time=0
note_on channel=0 note=60 velocity=36 time=0
<meta message set_tempo tempo=1601708 time=60>
note_on channel=0 note=60 velocity=0 time=0
note_on channel=0 note=65 velocity=0 time=0
note_on channel=0 note=87 velocity=0 time=0
note_on channel=0 note=81 velocity=69 time=0
note_on channel=0 note=75 velocity=47 time=60
<meta message set_tempo tempo=1558846 time=60>
note_on channel=0 note=75 velocity=0 time=0
note_on channel=0 note=69 velocity=46 time=0
note_on channel=0 note=69 velocity=0 time=60
note_on channel=0 note=60 velocity=42 time=0
note_on channel=0 note=53 velocity=36 time=0
<meta message set_tempo tempo=1605136 time=60>
note_on channel=0 note=53 velocity=0 time=0
note_on channel=0 note=60 velocity=0 time=0
note_on channel=0 note=81 velocity=0 time=0
note_on channel=0 note=75 velocity=70 time=0
note_on channel=0 note=69 velocity=47 time=60
<meta message set_tempo tempo=1558846 time=60>
note_on channel=0 note=69 velocity=0 time=0
note_on channel=0 note=63 velocity=46 time=0
note_on channel=0 note=63 velocity=0 time=60
note_on channel=0 note=48 velocity=36 time=0
note_on channel=0 note=53 velocity=42 time=0
<meta message set_tempo tempo=1583531 time=60>
note_on channel=0 note=53 velocity=0 time=0
note_on channel=0 note=48 velocity=0 time=0
note_on channel=0 note=75 velocity=0 time=0
note_on channel=0 note=69 velocity=65 time=0
control_change channel=0 control=64 value=0 time=9
control_change channel=0 control=64 value=127 time=40
note_on channel=0 note=63 velocity=40 time=11
<meta message set_tempo tempo=1542416 time=60>
note_on channel=0 note=63 velocity=0 time=0
note_on channel=0 note=57 velocity=39 time=0
note_on channel=0 note=57 velocity=0 time=60
note_on channel=0 note=41 velocity=30 time=0
note_on channel=0 note=48 velocity=36 time=0
<meta message set_tempo tempo=1562500 time=60>
note_on channel=0 note=48 velocity=0 time=0
note_on channel=0 note=41 velocity=0 time=0
note_on channel=0 note=69 velocity=0 time=0
note_on channel=0 note=68 velocity=63 time=0
note_on channel=0 note=63 velocity=39 time=60
<meta message set_tempo tempo=1645639 time=60>
note_on channel=0 note=63 velocity=0 time=0
note_on channel=0 note=57 velocity=37 time=0
note_on channel=0 note=57 velocity=0 time=60
note_on channel=0 note=29 velocity=35 time=0
<meta message set_tempo tempo=1605136 time=60>
note_on channel=0 note=29 velocity=0 time=0
note_on channel=0 note=68 velocity=0 time=0
note_on channel=0 note=66 velocity=61 time=0
note_on channel=0 note=63 velocity=37 time=60
<meta message set_tempo tempo=1692047 time=60>
note_on channel=0 note=63 velocity=0 time=0
note_on channel=0 note=57 velocity=36 time=0
note_on channel=0 note=57 velocity=0 time=60
note_on channel=0 note=41 velocity=28 time=0
note_on channel=0 note=48 velocity=33 time=0
<meta message set_tempo tempo=1623377 time=60>
note_on channel=0 note=48 velocity=0 time=0
note_on channel=0 note=41 velocity=0 time=0
note_on channel=0 note=66 velocity=0 time=0
note_on channel=0 note=65 velocity=58 time=0
<meta message set_tempo tempo=1692047 time=4>
control_change channel=0 control=64 value=0 time=5
control_change channel=0 control=64 value=127 time=40
<meta message set_tempo tempo=1716247 time=10>
note_on channel=0 note=60 velocity=35 time=1
<meta message set_tempo tempo=1741149 time=47>
note_on channel=0 note=60 velocity=0 time=13
note_on channel=0 note=57 velocity=33 time=0
<meta message set_tempo tempo=1766784 time=42>
note_on channel=0 note=57 velocity=0 time=18
note_on channel=0 note=29 velocity=30 time=0
<meta message set_tempo tempo=1793186 time=31>
note_on channel=0 note=29 velocity=0 time=29
note_on channel=0 note=65 velocity=0 time=0
note_on channel=0 note=64 velocity=52 time=0
<meta message set_tempo tempo=1820388 time=19>
note_on channel=0 note=60 velocity=31 time=41
<meta message set_tempo tempo=1848429 time=14>
note_on channel=0 note=60 velocity=0 time=46
note_on channel=0 note=57 velocity=29 time=0
<meta message set_tempo tempo=1877347 time=3>
<meta message set_tempo tempo=1907184 time=48>
note_on channel=0 note=57 velocity=0 time=9
note_on channel=0 note=41 velocity=23 time=0
note_on channel=0 note=48 velocity=27 time=0
<meta message set_tempo tempo=1937984 time=46>
note_on channel=0 note=48 velocity=0 time=14
note_on channel=0 note=41 velocity=0 time=0
note_on channel=0 note=64 velocity=0 time=0
note_on channel=0 note=63 velocity=46 time=0
<meta message set_tempo tempo=1969796 time=34>
note_on channel=0 note=60 velocity=28 time=46
<meta message set_tempo tempo=2002670 time=3>
<meta message set_tempo tempo=2036660 time=55>
note_on channel=0 note=57 velocity=26 time=22
<meta message set_tempo tempo=2071823 time=26>
<meta message set_tempo tempo=2108222 time=49>
note_on channel=0 note=29 velocity=25 time=5
control_change channel=0 control=64 value=0 time=0
control_change channel=0 control=64 value=127 time=120
<meta message set_tempo tempo=1850709 time=240>
<meta message marker text='Piu Adagio' time=0>
note_on channel=0 note=29 velocity=0 time=0
note_on channel=0 note=63 velocity=0 time=0
note_on channel=0 note=60 velocity=0 time=0
note_on channel=0 note=57 velocity=0 time=0
note_on channel=0 note=53 velocity=29 time=0
note_on channel=0 note=57 velocity=29 time=0
note_on channel=0 note=62 velocity=37 time=0
note_on channel=0 note=41 velocity=24 time=0
control_change channel=0 control=64 value=0 time=0
control_change channel=0 control=64 value=127 time=52
<meta message set_tempo tempo=2074689 time=68>
note_on channel=0 note=62 velocity=0 time=0
note_on channel=0 note=60 velocity=34 time=0
note_on channel=0 note=51 velocity=20 time=0
control_change channel=0 control=64 value=0 time=17
control_change channel=0 control=64 value=127 time=58
<meta message set_tempo tempo=2039429 time=45>
note_on channel=0 note=51 velocity=0 time=0
note_on channel=0 note=53 velocity=0 time=0
note_on channel=0 note=41 velocity=0 time=0
note_on channel=0 note=57 velocity=0 time=0
note_on channel=0 note=60 velocity=0 time=0
note_on channel=0 note=53 velocity=29 time=0
note_on channel=0 note=57 velocity=29 time=0
note_on channel=0 note=60 velocity=37 time=0
note_on channel=0 note=51 velocity=20 time=0
note_on channel=0 note=41 velocity=17 time=0
control_change channel=0 control=64 value=0 time=15
control_change channel=0 control=64 value=127 time=37
<meta message set_tempo tempo=2005348 time=68>
note_on channel=0 note=51 velocity=0 time=0
note_on channel=0 note=60 velocity=0 time=0
note_on channel=0 note=57 velocity=0 time=0
note_on channel=0 note=58 velocity=37 time=0
note_on channel=0 note=50 velocity=22 time=0
control_change channel=0 control=64 value=0 time=8
note_on channel=0 note=41 velocity=0 time=112
note_on channel=0 note=40 velocity=22 time=0
<meta message set_tempo tempo=1972387 time=120>
note_on channel=0 note=40 velocity=0 time=0
note_on channel=0 note=41 velocity=21 time=0
<meta message set_tempo tempo=1822600 time=120>
note_on channel=0 note=53 velocity=0 time=0
note_on channel=0 note=58 velocity=0 time=0
note_on channel=0 note=76 velocity=39 time=0
control_change channel=0 control=64 value=127 time=12
<meta message set_tempo tempo=1822600 time=108>
note_on channel=0 note=76 velocity=0 time=0
note_on channel=0 note=77 velocity=34 time=0
<meta message set_tempo tempo=1768868 time=120>
note_on channel=0 note=77 velocity=0 time=0
note_on channel=0 note=74 velocity=38 time=0
<meta message set_tempo tempo=1879699 time=120>
note_on channel=0 note=74 velocity=0 time=0
note_on channel=0 note=70 velocity=31 time=0
<meta message set_tempo tempo=1795332 time=120>
note_on channel=0 note=70 velocity=0 time=0
note_on channel=0 note=65 velocity=32 time=0
<meta message set_tempo tempo=1850709 time=120>
note_on channel=0 note=65 velocity=0 time=0
note_on channel=0 note=62 velocity=25 time=0
<meta message set_tempo tempo=1850709 time=120>
note_on channel=0 note=62 velocity=0 time=0
note_on channel=0 note=50 velocity=0 time=0
note_on channel=0 note=41 velocity=0 time=0
note_on channel=0 note=56 velocity=29 time=0
note_on channel=0 note=61 velocity=29 time=0
note_on channel=0 note=65 velocity=37 time=0
note_on channel=0 note=41 velocity=24 time=0
control_change channel=0 control=64 value=0 time=0
control_change channel=0 control=64 value=127 time=70
<meta message set_tempo tempo=2074689 time=50>
note_on channel=0 note=65 velocity=0 time=0
note_on channel=0 note=56 velocity=0 time=0
note_on channel=0 note=61 velocity=0 time=0
note_on channel=0 note=57 velocity=29 time=0
note_on channel=0 note=60 velocity=29 time=0
note_on channel=0 note=63 velocity=34 time=0
note_on channel=0 note=54 velocity=20 time=0
control_change channel=0 control=64 value=0 time=16
control_change channel=0 control=64 value=127 time=54
<meta message set_tempo tempo=2039429 time=50>
note_on channel=0 note=54 velocity=0 time=0
note_on channel=0 note=60 velocity=0 time=0
note_on channel=0 note=41 velocity=0 time=0
note_on channel=0 note=57 velocity=0 time=0
note_on channel=0 note=63 velocity=0 time=0
note_on channel=0 note=57 velocity=29 time=0
note_on channel=0 note=60 velocity=29 time=0
note_on channel=0 note=63 velocity=37 time=0
note_on channel=0 note=54 velocity=20 time=0
note_on channel=0 note=41 velocity=17 time=0
control_change channel=0 control=64 value=0 time=13
control_change channel=0 control=64 value=127 time=43
<meta message set_tempo tempo=2005348 time=64>
note_on channel=0 note=54 velocity=0 time=0
note_on channel=0 note=63 velocity=0 time=0
note_on channel=0 note=57 velocity=0 time=0
note_on channel=0 note=60 velocity=0 time=0
note_on channel=0 note=56 velocity=29 time=0
note_on channel=0 note=61 velocity=37 time=0
note_on channel=0 note=53 velocity=22 time=0
control_change channel=0 control=64 value=0 time=0
note_on channel=0 note=41 velocity=0 time=120
note_on channel=0 note=40 velocity=22 time=0
<meta message set_tempo tempo=1972387 time=120>
note_on channel=0 note=40 velocity=0 time=0
note_on channel=0 note=41 velocity=21 time=0
<meta message set_tempo tempo=1822600 time=120>
note_on channel=0 note=56 velocity=0 time=0
note_on channel=0 note=61 velocity=0 time=0
note_on channel=0 note=79 velocity=39 time=0
control_change channel=0 control=64 value=127 time=12
<meta message set_tempo tempo=1822600 time=108>
note_on channel=0 note=79 velocity=0 time=0
note_on channel=0 note=80 velocity=34 time=0
<meta message set_tempo tempo=1768868 time=120>
note_on channel=0 note=80 velocity=0 time=0
note_on channel=0 note=77 velocity=38 time=0
<meta message set_tempo tempo=1879699 time=120>
note_on channel=0 note=77 velocity=0 time=0
note_on channel=0 note=73 velocity=31 time=0
<meta message set_tempo tempo=1795332 time=120>
note_on channel=0 note=73 velocity=0 time=0
note_on channel=0 note=68 velocity=32 time=0
<meta message set_tempo tempo=1850709 time=120>
note_on channel=0 note=68 velocity=0 time=0
note_on channel=0 note=65 velocity=25 time=0
<meta message set_tempo tempo=1850709 time=120>
note_on channel=0 note=65 velocity=0 time=0
note_on channel=0 note=53 velocity=0 time=0
note_on channel=0 note=41 velocity=0 time=0
note_on channel=0 note=73 velocity=68 time=0
note_on channel=0 note=41 velocity=36 time=0
control_change channel=0 control=64 value=0 time=0
control_change channel=0 control=64 value=127 time=64
<meta message set_tempo tempo=2074689 time=56>
note_on channel=0 note=73 velocity=0 time=0
note_on channel=0 note=60 velocity=43 time=0
note_on channel=0 note=66 velocity=43 time=0
note_on channel=0 note=72 velocity=49 time=0
note_on channel=0 note=51 velocity=25 time=0
note_on channel=0 note=57 velocity=30 time=0
control_change channel=0 control=64 value=0 time=10
control_change channel=0 control=64 value=127 time=89
<meta message set_tempo tempo=2039429 time=21>
note_on channel=0 note=72 velocity=0 time=0
note_on channel=0 note=41 velocity=0 time=0
note_on channel=0 note=72 velocity=63 time=0
note_on channel=0 note=41 velocity=26 time=0
<meta message set_tempo tempo=2005348 time=120>
note_on channel=0 note=72 velocity=0 time=0
note_on channel=0 note=51 velocity=0 time=0
note_on channel=0 note=66 velocity=0 time=0
note_on channel=0 note=60 velocity=0 time=0
note_on channel=0 note=57 velocity=0 time=0
note_on channel=0 note=58 velocity=43 time=0
note_on channel=0 note=65 velocity=43 time=0
note_on channel=0 note=70 velocity=70 time=0
note_on channel=0 note=50 velocity=25 time=0
note_on channel=0 note=53 velocity=32 time=0
control_change channel=0 control=64 value=0 time=3
note_on channel=0 note=41 velocity=0 time=117
note_on channel=0 note=40 velocity=58 time=0
<meta message set_tempo tempo=1972387 time=120>
note_on channel=0 note=40 velocity=0 time=0
note_on channel=0 note=41 velocity=51 time=0
<meta message set_tempo tempo=1850709 time=120>
note_on channel=0 note=70 velocity=0 time=0
note_on channel=0 note=70 velocity=68 time=0
control_change channel=0 control=64 value=127 time=63
<meta message set_tempo tempo=2074689 time=57>
note_on channel=0 note=70 velocity=0 time=0
note_on channel=0 note=53 velocity=0 time=0
note_on channel=0 note=50 velocity=0 time=0
note_on channel=0 note=58 velocity=0 time=0
note_on channel=0 note=65 velocity=0 time=0
note_on channel=0 note=59 velocity=43 time=0
note_on channel=0 note=65 velocity=43 time=0
note_on channel=0 note=71 velocity=49 time=0
note_on channel=0 note=49 velocity=25 time=0
note_on channel=0 note=53 velocity=30 time=0
control_change channel=0 control=64 value=0 time=15
control_change channel=0 control=64 value=127 time=71
<meta message set_tempo tempo=2039429 time=34>
note_on channel=0 note=71 velocity=0 time=0
note_on channel=0 note=71 velocity=65 time=0
<meta message set_tempo tempo=2005348 time=120>
note_on channel=0 note=71 velocity=0 time=0
note_on channel=0 note=53 velocity=0 time=0
note_on channel=0 note=65 velocity=0 time=0
note_on channel=0 note=49 velocity=0 time=0
note_on channel=0 note=59 velocity=0 time=0
note_on channel=0 note=60 velocity=43 time=0
note_on channel=0 note=64 velocity=43 time=0
note_on channel=0 note=72 velocity=70 time=0
note_on channel=0 note=48 velocity=25 time=0
note_on channel=0 note=55 velocity=32 time=0
control_change channel=0 control=64 value=0 time=17
note_on channel=0 note=41 velocity=0 time=103
note_on channel=0 note=40 velocity=56 time=0
<meta message set_tempo tempo=1972387 time=120>
note_on channel=0 note=40 velocity=0 time=0
note_on channel=0 note=41 velocity=49 time=0
<meta message set_tempo tempo=1850709 time=120>
note_on channel=0 note=72 velocity=0 time=0
note_on channel=0 note=72 velocity=62 time=0
control_change channel=0 control=64 value=127 time=97
<meta message set_tempo tempo=2074689 time=23>
note_on channel=0 note=72 velocity=0 time=0
note_on channel=0 note=55 velocity=0 time=0
note_on channel=0 note=48 velocity=0 time=0
note_on channel=0 note=60 velocity=0 time=0
note_on channel=0 note=64 velocity=0 time=0
note_on channel=0 note=58 velocity=40 time=0
note_on channel=0 note=64 velocity=40 time=0
note_on channel=0 note=70 velocity=46 time=0
note_on channel=0 note=48 velocity=23 time=0
note_on channel=0 note=55 velocity=28 time=0
<meta message set_tempo tempo=2039429 time=120>
note_on channel=0 note=70 velocity=0 time=0
note_on channel=0 note=70 velocity=60 time=0
<meta message set_tempo tempo=2005348 time=120>
note_on channel=0 note=70 velocity=0 time=0
note_on channel=0 note=55 velocity=0 time=0
note_on channel=0 note=64 velocity=0 time=0
note_on channel=0 note=48 velocity=0 time=0
note_on channel=0 note=58 velocity=0 time=0
note_on channel=0 note=56 velocity=39 time=0
note_on channel=0 note=65 velocity=39 time=0
note_on channel=0 note=68 velocity=64 time=0
note_on channel=0 note=49 velocity=23 time=0
note_on channel=0 note=53 velocity=29 time=0
control_change channel=0 control=64 value=0 time=0
note_on channel=0 note=41 velocity=0 time=120
note_on channel=0 note=40 velocity=50 time=0
<meta message set_tempo tempo=1972387 time=120>
note_on channel=0 note=40 velocity=0 time=0
note_on channel=0 note=41 velocity=44 time=0
<meta message set_tempo tempo=1850709 time=120>
note_on channel=0 note=68 velocity=0 time=0
note_on channel=0 note=68 velocity=60 time=0
control_change channel=0 control=64 value=127 time=75
<meta message set_tempo tempo=2074689 time=45>
note_on channel=0 note=68 velocity=0 time=0
note_on channel=0 note=53 velocity=0 time=0
note_on channel=0 note=49 velocity=0 time=0
note_on channel=0 note=56 velocity=0 time=0
note_on channel=0 note=65 velocity=0 time=0
note_on channel=0 note=57 velocity=37 time=0
note_on channel=0 note=63 velocity=37 time=0
note_on channel=0 note=69 velocity=43 time=0
note_on channel=0 note=47 velocity=22 time=0
note_on channel=0 note=53 velocity=26 time=0
control_change channel=0 control=64 value=0 time=12
control_change channel=0 control=64 value=127 time=68
<meta message set_tempo tempo=2039429 time=40>
note_on channel=0 note=69 velocity=0 time=0
note_on channel=0 note=69 velocity=51 time=0
<meta message set_tempo tempo=2005348 time=120>
note_on channel=0 note=69 velocity=0 time=0
note_on channel=0 note=53 velocity=0 time=0
note_on channel=0 note=63 velocity=0 time=0
note_on channel=0 note=47 velocity=0 time=0
note_on channel=0 note=57 velocity=0 time=0
note_on channel=0 note=58 velocity=36 time=0
note_on channel=0 note=62 velocity=36 time=0
note_on channel=0 note=70 velocity=59 time=0
note_on channel=0 note=46 velocity=21 time=0
note_on channel=0 note=53 velocity=27 time=0
control_change channel=0 control=64 value=0 time=6
note_on channel=0 note=41 velocity=0 time=114
note_on channel=0 note=40 velocity=46 time=0
<meta message set_tempo tempo=1972387 time=120>
note_on channel=0 note=40 velocity=0 time=0
note_on channel=0 note=41 velocity=40 time=0
<meta message set_tempo tempo=2111189 time=120>
note_on channel=0 note=70 velocity=0 time=0
note_on channel=0 note=58 velocity=52 time=0
control_change channel=0 control=64 value=127 time=63
<meta message set_tempo tempo=2228826 time=57>
note_on channel=0 note=62 velocity=0 time=0
note_on channel=0 note=58 velocity=0 time=0
note_on channel=0 note=46 velocity=0 time=0
note_on channel=0 note=53 velocity=0 time=0
note_on channel=0 note=61 velocity=38 time=0
note_on channel=0 note=46 velocity=19 time=0
note_on channel=0 note=53 velocity=23 time=0
<meta message set_tempo tempo=2457002 time=120>
note_on channel=0 note=61 velocity=0 time=0
note_on channel=0 note=61 velocity=50 time=0
<meta message set_tempo tempo=2314815 time=120>
note_on channel=0 note=61 velocity=0 time=0
note_on channel=0 note=53 velocity=0 time=0
note_on channel=0 note=46 velocity=0 time=0
note_on channel=0 note=58 velocity=0 time=0
note_on channel=0 note=60 velocity=44 time=0
note_on channel=0 note=53 velocity=32 time=0
note_on channel=0 note=58 velocity=32 time=0
note_on channel=0 note=65 velocity=52 time=0
note_on channel=0 note=48 velocity=24 time=0
control_change channel=0 control=64 value=0 time=0
note_on channel=0 note=41 velocity=0 time=120
note_on channel=0 note=40 velocity=40 time=0
<meta message set_tempo tempo=2407705 time=120>
note_on channel=0 note=40 velocity=0 time=0
note_on channel=0 note=41 velocity=34 time=0
control_change channel=0 control=64 value=127 time=103
<meta message set_tempo tempo=2508361 time=17>
note_on channel=0 note=60 velocity=0 time=0
note_on channel=0 note=65 velocity=0 time=0
note_on channel=0 note=53 velocity=39 time=0
<meta message set_tempo tempo=2801120 time=120>
note_on channel=0 note=53 velocity=0 time=0
note_on channel=0 note=53 velocity=0 time=0
note_on channel=0 note=60 velocity=32 time=0
<meta message set_tempo tempo=3444317 time=120>
note_on channel=0 note=60 velocity=0 time=0
note_on channel=0 note=60 velocity=33 time=0
<meta message set_tempo tempo=2737226 time=120>
note_on channel=0 note=60 velocity=0 time=0
note_on channel=0 note=58 velocity=0 time=0
note_on channel=0 note=41 velocity=0 time=0
note_on channel=0 note=48 velocity=0 time=0
note_on channel=0 note=63 velocity=27 time=0
note_on channel=0 note=57 velocity=22 time=0
note_on channel=0 note=54 velocity=22 time=0
note_on channel=0 note=29 velocity=25 time=0
control_change channel=0 control=64 value=0 time=0
control_change channel=0 control=64 value=127 time=113
<meta message set_tempo tempo=2868069 time=127>
note_on channel=0 note=54 velocity=0 time=0
note_on channel=0 note=63 velocity=0 time=0
note_on channel=0 note=57 velocity=0 time=0
note_on channel=0 note=61 velocity=24 time=0
note_on channel=0 note=57 velocity=20 time=0
note_on channel=0 note=53 velocity=20 time=0
control_change channel=0 control=64 value=0 time=17
control_change channel=0 control=64 value=127 time=75
<meta message set_tempo tempo=3257329 time=148>
note_on channel=0 note=53 velocity=0 time=0
note_on channel=0 note=57 velocity=0 time=0
note_on channel=0 note=61 velocity=0 time=0
note_on channel=0 note=60 velocity=22 time=0
note_on channel=0 note=57 velocity=18 time=0
note_on channel=0 note=51 velocity=18 time=0
control_change channel=0 control=64 value=0 time=14
control_change channel=0 control=64 value=127 time=64
note_on channel=0 note=29 velocity=0 time=42
<meta message set_tempo tempo=2617801 time=120>
note_on channel=0 note=22 velocity=25 time=0
control_change channel=0 control=64 value=0 time=0
control_change channel=0 control=64 value=127 time=57
<meta message set_tempo tempo=2449980 time=63>
note_on channel=0 note=22 velocity=0 time=0
note_on channel=0 note=34 velocity=21 time=0
<meta message set_tempo tempo=2353864 time=120>
note_on channel=0 note=34 velocity=0 time=0
note_on channel=0 note=41 velocity=21 time=0
note_on channel=0 note=41 velocity=0 time=120
note_on channel=0 note=46 velocity=21 time=0
note_on channel=0 note=46 velocity=0 time=120
note_on channel=0 note=60 velocity=0 time=0
note_on channel=0 note=57 velocity=0 time=0
note_on channel=0 note=51 velocity=0 time=0
note_on channel=0 note=58 velocity=22 time=0
note_on channel=0 note=49 velocity=21 time=0
note_on channel=0 note=49 velocity=0 time=120
note_on channel=0 note=53 velocity=21 time=0
note_on channel=0 note=58 velocity=0 time=115
note_on channel=0 note=53 velocity=0 time=5
note_on channel=0 note=46 velocity=22 time=0
note_on channel=0 note=58 velocity=26 time=0
note_on channel=0 note=58 velocity=0 time=120
note_on channel=0 note=61 velocity=25 time=0
note_on channel=0 note=61 velocity=0 time=120
note_on channel=0 note=65 velocity=20 time=0
note_on channel=0 note=65 velocity=0 time=120
note_on channel=0 note=70 velocity=20 time=0
note_on channel=0 note=70 velocity=0 time=120
note_on channel=0 note=46 velocity=0 time=0
note_on channel=0 note=73 velocity=20 time=0
note_on channel=0 note=34 velocity=19 time=0
<meta message set_tempo tempo=2676182 time=1>
<meta message set_tempo tempo=2737226 time=24>
<meta message set_tempo tempo=2801120 time=19>
<meta message set_tempo tempo=2868069 time=18>
<meta message set_tempo tempo=2938296 time=18>
<meta message set_tempo tempo=3012048 time=18>
<meta message set_tempo tempo=4140787 time=22>
note_on channel=0 note=73 velocity=0 time=0
note_on channel=0 note=89 velocity=20 time=0
note_on channel=0 note=77 velocity=17 time=0
note_on channel=0 note=77 velocity=0 time=120
note_on channel=0 note=89 velocity=0 time=0
note_on channel=0 note=34 velocity=0 time=0
note_on channel=0 note=82 velocity=18 time=0
note_on channel=0 note=94 velocity=22 time=0
note_on channel=0 note=49 velocity=19 time=0
note_on channel=0 note=41 velocity=16 time=0
note_on channel=0 note=34 velocity=16 time=0
note_on channel=0 note=34 velocity=0 time=720
note_on channel=0 note=49 velocity=0 time=0
note_on channel=0 note=82 velocity=0 time=0
note_on channel=0 note=94 velocity=0 time=0
note_on channel=0 note=41 velocity=0 time=0
control_change channel=0 control=64 value=0 time=520
<meta message end_of_track time=0>
