<meta message track_name name='Chopin Fantasie-Impromptu in C# minor Opus 66' time=0>
<meta message copyright text='Copyright © 2003 by Bernd Krueger ' time=0>
<meta message text text='Frederic Chopin' time=0>
<meta message text text='Allegro agitato' time=0>
<meta message text text='Fertiggestellt am 19.7.2003\n' time=0>
<meta message text text='Update am 25.5.2010\n' time=0>
<meta message text text='Update am 28.2.2014\n' time=0>
<meta message text text='Dauer: 4:37 Minuten\n' time=0>
<meta message smpte_offset frame_rate=25 hours=32 minutes=0 seconds=3 frames=0 sub_frames=0 time=0>
<meta message time_signature numerator=4 denominator=4 clocks_per_click=24 notated_32nd_notes_per_beat=8 time=0>
<meta message key_signature key='E' time=0>
<meta message set_tempo tempo=341297 time=0>
<meta message marker text='Allegro agitato' time=0>
program_change channel=0 program=1 time=0
control_change channel=0 control=7 value=100 time=0
control_change channel=0 control=10 value=64 time=0
control_change channel=0 control=91 value=127 time=0
<meta message text text='bdca426d104a26ac9dcb070447587523' time=0>
program_change channel=0 program=1 time=0
control_change channel=0 control=7 value=100 time=0
control_change channel=0 control=10 value=64 time=0
note_on channel=0 note=44 velocity=79 time=0
note_on channel=0 note=56 velocity=79 time=0
control_change channel=0 control=64 value=0 time=0
control_change channel=0 control=64 value=127 time=240
<meta message set_tempo tempo=703812 time=3600>
note_on channel=0 note=56 velocity=0 time=0
note_on channel=0 note=44 velocity=0 time=0
note_on channel=0 note=37 velocity=75 time=0
note_on channel=0 note=49 velocity=75 time=0
control_change channel=0 control=64 value=0 time=15
<meta message set_tempo tempo=442608 time=49>
<meta message set_tempo tempo=410537 time=16>
control_change channel=0 control=64 value=127 time=19
<meta message set_tempo tempo=375211 time=21>
<meta message set_tempo tempo=385406 time=40>
note_on channel=0 note=49 velocity=0 time=0
note_on channel=0 note=37 velocity=0 time=0
note_on channel=0 note=56 velocity=60 time=0
<meta message set_tempo tempo=378955 time=40>
<meta message set_tempo tempo=369231 time=40>
<meta message set_tempo tempo=368098 time=80>
note_on channel=0 note=56 velocity=0 time=0
note_on channel=0 note=61 velocity=64 time=0
<meta message set_tempo tempo=366972 time=80>
<meta message set_tempo tempo=365854 time=80>
note_on channel=0 note=61 velocity=0 time=0
note_on channel=0 note=64 velocity=65 time=0
<meta message set_tempo tempo=364742 time=80>
<meta message set_tempo tempo=363636 time=80>
note_on channel=0 note=64 velocity=0 time=0
note_on channel=0 note=61 velocity=62 time=0
<meta message set_tempo tempo=362538 time=80>
<meta message set_tempo tempo=361446 time=80>
note_on channel=0 note=61 velocity=0 time=0
note_on channel=0 note=56 velocity=61 time=0
<meta message set_tempo tempo=360360 time=80>
<meta message set_tempo tempo=359281 time=80>
note_on channel=0 note=56 velocity=0 time=0
note_on channel=0 note=49 velocity=57 time=0
<meta message set_tempo tempo=358209 time=80>
<meta message set_tempo tempo=357143 time=80>
note_on channel=0 note=49 velocity=0 time=0
note_on channel=0 note=56 velocity=58 time=0
<meta message set_tempo tempo=356083 time=80>
<meta message set_tempo tempo=355030 time=80>
note_on channel=0 note=56 velocity=0 time=0
note_on channel=0 note=61 velocity=60 time=0
<meta message set_tempo tempo=353982 time=80>
<meta message set_tempo tempo=352941 time=40>
<meta message set_tempo tempo=347826 time=40>
note_on channel=0 note=61 velocity=0 time=0
note_on channel=0 note=64 velocity=60 time=0
<meta message set_tempo tempo=345821 time=40>
<meta message set_tempo tempo=344828 time=40>
<meta message set_tempo tempo=348837 time=80>
note_on channel=0 note=64 velocity=0 time=0
note_on channel=0 note=61 velocity=58 time=0
<meta message set_tempo tempo=351906 time=40>
<meta message set_tempo tempo=353982 time=40>
<meta message set_tempo tempo=355030 time=40>
note_on channel=0 note=61 velocity=0 time=40
note_on channel=0 note=56 velocity=57 time=0
<meta message set_tempo tempo=353982 time=80>
<meta message set_tempo tempo=351906 time=40>
<meta message set_tempo tempo=350877 time=40>
note_on channel=0 note=56 velocity=0 time=0
note_on channel=0 note=49 velocity=53 time=0
<meta message set_tempo tempo=349854 time=80>
<meta message set_tempo tempo=350877 time=80>
note_on channel=0 note=49 velocity=0 time=0
note_on channel=0 note=56 velocity=54 time=0
<meta message set_tempo tempo=351906 time=40>
<meta message set_tempo tempo=352941 time=40>
<meta message set_tempo tempo=355030 time=40>
<meta message set_tempo tempo=356083 time=40>
note_on channel=0 note=56 velocity=0 time=0
note_on channel=0 note=61 velocity=55 time=0
<meta message set_tempo tempo=353982 time=80>
<meta message set_tempo tempo=351906 time=40>
<meta message set_tempo tempo=350877 time=40>
note_on channel=0 note=61 velocity=0 time=0
note_on channel=0 note=64 velocity=54 time=0
<meta message set_tempo tempo=349854 time=40>
note_on channel=0 note=64 velocity=0 time=120
note_on channel=0 note=61 velocity=52 time=0
<meta message set_tempo tempo=351906 time=40>
<meta message set_tempo tempo=352941 time=40>
<meta message set_tempo tempo=351906 time=80>
note_on channel=0 note=61 velocity=0 time=0
note_on channel=0 note=56 velocity=50 time=0
note_on channel=0 note=56 velocity=0 time=160
note_on channel=0 note=49 velocity=45 time=0
<meta message set_tempo tempo=353982 time=40>
<meta message set_tempo tempo=353982 time=40>
<meta message set_tempo tempo=355030 time=40>
<meta message set_tempo tempo=357143 time=40>
note_on channel=0 note=49 velocity=0 time=0
note_on channel=0 note=56 velocity=47 time=0
<meta message set_tempo tempo=359281 time=40>
<meta message set_tempo tempo=361446 time=40>
<meta message set_tempo tempo=363636 time=40>
<meta message set_tempo tempo=364742 time=40>
note_on channel=0 note=56 velocity=0 time=0
note_on channel=0 note=61 velocity=49 time=0
<meta message set_tempo tempo=366972 time=40>
<meta message set_tempo tempo=369231 time=40>
<meta message set_tempo tempo=371517 time=40>
<meta message set_tempo tempo=373832 time=40>
note_on channel=0 note=61 velocity=0 time=0
note_on channel=0 note=64 velocity=46 time=0
<meta message set_tempo tempo=376176 time=40>
<meta message set_tempo tempo=378955 time=40>
<meta message set_tempo tempo=385406 time=40>
<meta message set_tempo tempo=390727 time=40>
note_on channel=0 note=64 velocity=0 time=0
note_on channel=0 note=61 velocity=43 time=0
<meta message set_tempo tempo=396197 time=40>
<meta message set_tempo tempo=403253 time=40>
<meta message set_tempo tempo=409054 time=40>
<meta message set_tempo tempo=415053 time=40>
note_on channel=0 note=61 velocity=0 time=0
note_on channel=0 note=56 velocity=38 time=0
<meta message set_tempo tempo=422803 time=40>
<meta message set_tempo tempo=429215 time=40>
<meta message set_tempo tempo=437509 time=40>
<meta message set_tempo tempo=353982 time=40>
note_on channel=0 note=56 velocity=0 time=0
note_on channel=0 note=49 velocity=22 time=0
control_change channel=0 control=64 value=0 time=11
control_change channel=0 control=64 value=127 time=52
<meta message set_tempo tempo=351906 time=57>
note_on channel=0 note=68 velocity=37 time=0
<meta message set_tempo tempo=350877 time=40>
note_on channel=0 note=49 velocity=0 time=0
note_on channel=0 note=56 velocity=25 time=0
note_on channel=0 note=68 velocity=0 time=80
note_on channel=0 note=69 velocity=41 time=0
<meta message set_tempo tempo=351906 time=40>
<meta message set_tempo tempo=352941 time=40>
note_on channel=0 note=56 velocity=0 time=0
note_on channel=0 note=61 velocity=28 time=0
<meta message set_tempo tempo=357143 time=40>
note_on channel=0 note=69 velocity=0 time=0
note_on channel=0 note=68 velocity=38 time=0
<meta message set_tempo tempo=359281 time=40>
<meta message set_tempo tempo=357143 time=40>
note_on channel=0 note=68 velocity=0 time=40
note_on channel=0 note=61 velocity=0 time=0
note_on channel=0 note=67 velocity=39 time=0
note_on channel=0 note=64 velocity=30 time=0
<meta message set_tempo tempo=353982 time=40>
<meta message set_tempo tempo=352941 time=80>
note_on channel=0 note=67 velocity=0 time=0
note_on channel=0 note=68 velocity=40 time=0
note_on channel=0 note=64 velocity=0 time=40
note_on channel=0 note=61 velocity=28 time=0
<meta message set_tempo tempo=351906 time=40>
<meta message set_tempo tempo=352941 time=40>
note_on channel=0 note=68 velocity=0 time=0
note_on channel=0 note=73 velocity=42 time=0
<meta message set_tempo tempo=355030 time=40>
<meta message set_tempo tempo=356083 time=40>
note_on channel=0 note=61 velocity=0 time=0
note_on channel=0 note=56 velocity=27 time=0
note_on channel=0 note=73 velocity=0 time=40
note_on channel=0 note=76 velocity=43 time=0
<meta message set_tempo tempo=355030 time=80>
note_on channel=0 note=76 velocity=0 time=40
note_on channel=0 note=56 velocity=0 time=0
note_on channel=0 note=75 velocity=45 time=0
note_on channel=0 note=52 velocity=26 time=0
control_change channel=0 control=64 value=0 time=15
<meta message set_tempo tempo=352941 time=25>
<meta message set_tempo tempo=351906 time=40>
<meta message set_tempo tempo=350877 time=40>
note_on channel=0 note=75 velocity=0 time=0
note_on channel=0 note=73 velocity=43 time=0
note_on channel=0 note=52 velocity=0 time=40
note_on channel=0 note=56 velocity=28 time=0
note_on channel=0 note=73 velocity=0 time=80
note_on channel=0 note=75 velocity=45 time=0
<meta message set_tempo tempo=351906 time=40>
<meta message set_tempo tempo=352941 time=40>
note_on channel=0 note=56 velocity=0 time=0
note_on channel=0 note=61 velocity=30 time=0
<meta message set_tempo tempo=355030 time=40>
note_on channel=0 note=75 velocity=0 time=0
note_on channel=0 note=73 velocity=43 time=0
<meta message set_tempo tempo=356083 time=40>
<meta message set_tempo tempo=355030 time=40>
<meta message set_tempo tempo=353982 time=40>
note_on channel=0 note=73 velocity=0 time=0
note_on channel=0 note=61 velocity=0 time=0
note_on channel=0 note=72 velocity=44 time=0
note_on channel=0 note=64 velocity=31 time=0
<meta message set_tempo tempo=351906 time=40>
<meta message set_tempo tempo=350877 time=40>
<meta message set_tempo tempo=351906 time=40>
note_on channel=0 note=72 velocity=0 time=0
note_on channel=0 note=73 velocity=46 time=0
<meta message set_tempo tempo=352941 time=40>
note_on channel=0 note=64 velocity=0 time=0
note_on channel=0 note=61 velocity=28 time=0
<meta message set_tempo tempo=353982 time=40>
note_on channel=0 note=73 velocity=0 time=40
note_on channel=0 note=76 velocity=49 time=0
note_on channel=0 note=61 velocity=0 time=80
note_on channel=0 note=56 velocity=27 time=0
<meta message set_tempo tempo=419404 time=40>
note_on channel=0 note=76 velocity=0 time=0
note_on channel=0 note=80 velocity=47 time=0
<meta message set_tempo tempo=402982 time=120>
note_on channel=0 note=80 velocity=0 time=0
note_on channel=0 note=56 velocity=0 time=0
control_change channel=0 control=64 value=0 time=0
note_on channel=0 note=49 velocity=27 time=0
control_change channel=0 control=64 value=127 time=63
<meta message set_tempo tempo=356168 time=57>
note_on channel=0 note=68 velocity=45 time=0
<meta message set_tempo tempo=355030 time=40>
note_on channel=0 note=49 velocity=0 time=0
note_on channel=0 note=56 velocity=30 time=0
<meta message set_tempo tempo=353982 time=80>
note_on channel=0 note=68 velocity=0 time=0
note_on channel=0 note=69 velocity=49 time=0
<meta message set_tempo tempo=352941 time=40>
<meta message set_tempo tempo=351906 time=40>
note_on channel=0 note=56 velocity=0 time=0
note_on channel=0 note=61 velocity=34 time=0
<meta message set_tempo tempo=349854 time=40>
note_on channel=0 note=69 velocity=0 time=0
note_on channel=0 note=68 velocity=45 time=0
<meta message set_tempo tempo=353982 time=80>
note_on channel=0 note=68 velocity=0 time=40
note_on channel=0 note=61 velocity=0 time=0
note_on channel=0 note=67 velocity=46 time=0
note_on channel=0 note=64 velocity=36 time=0
note_on channel=0 note=67 velocity=0 time=120
note_on channel=0 note=68 velocity=48 time=0
<meta message set_tempo tempo=352941 time=40>
note_on channel=0 note=64 velocity=0 time=0
note_on channel=0 note=61 velocity=34 time=0
<meta message set_tempo tempo=350877 time=40>
note_on channel=0 note=68 velocity=0 time=40
note_on channel=0 note=73 velocity=50 time=0
<meta message set_tempo tempo=349854 time=80>
note_on channel=0 note=61 velocity=0 time=0
note_on channel=0 note=56 velocity=33 time=0
<meta message set_tempo tempo=351906 time=40>
note_on channel=0 note=73 velocity=0 time=0
note_on channel=0 note=76 velocity=51 time=0
<meta message set_tempo tempo=353982 time=40>
note_on channel=0 note=76 velocity=0 time=80
note_on channel=0 note=56 velocity=0 time=0
note_on channel=0 note=75 velocity=54 time=0
note_on channel=0 note=52 velocity=31 time=0
control_change channel=0 control=64 value=0 time=17
<meta message set_tempo tempo=355030 time=23>
<meta message set_tempo tempo=357143 time=40>
<meta message set_tempo tempo=358209 time=40>
note_on channel=0 note=75 velocity=0 time=0
note_on channel=0 note=73 velocity=51 time=0
<meta message set_tempo tempo=357143 time=40>
note_on channel=0 note=52 velocity=0 time=0
note_on channel=0 note=56 velocity=33 time=0
<meta message set_tempo tempo=356083 time=40>
<meta message set_tempo tempo=355030 time=40>
note_on channel=0 note=73 velocity=0 time=0
note_on channel=0 note=75 velocity=53 time=0
<meta message set_tempo tempo=352941 time=80>
note_on channel=0 note=56 velocity=0 time=0
note_on channel=0 note=61 velocity=36 time=0
<meta message set_tempo tempo=351906 time=40>
note_on channel=0 note=75 velocity=0 time=0
note_on channel=0 note=73 velocity=51 time=0
<meta message set_tempo tempo=350877 time=40>
<meta message set_tempo tempo=351906 time=80>
note_on channel=0 note=73 velocity=0 time=0
note_on channel=0 note=61 velocity=0 time=0
note_on channel=0 note=72 velocity=52 time=0
note_on channel=0 note=64 velocity=37 time=0
<meta message set_tempo tempo=352941 time=40>
<meta message set_tempo tempo=356083 time=40>
<meta message set_tempo tempo=358209 time=40>
note_on channel=0 note=72 velocity=0 time=0
note_on channel=0 note=73 velocity=54 time=0
note_on channel=0 note=64 velocity=0 time=40
note_on channel=0 note=61 velocity=34 time=0
<meta message set_tempo tempo=357143 time=40>
<meta message set_tempo tempo=356083 time=40>
note_on channel=0 note=73 velocity=0 time=0
note_on channel=0 note=76 velocity=57 time=0
<meta message set_tempo tempo=355030 time=40>
<meta message set_tempo tempo=353982 time=40>
note_on channel=0 note=61 velocity=0 time=0
note_on channel=0 note=56 velocity=32 time=0
<meta message set_tempo tempo=417973 time=40>
note_on channel=0 note=76 velocity=0 time=0
note_on channel=0 note=80 velocity=55 time=0
<meta message set_tempo tempo=404313 time=120>
note_on channel=0 note=80 velocity=0 time=0
note_on channel=0 note=56 velocity=0 time=0
control_change channel=0 control=64 value=0 time=0
note_on channel=0 note=51 velocity=31 time=0
control_change channel=0 control=64 value=127 time=63
<meta message set_tempo tempo=361685 time=57>
note_on channel=0 note=69 velocity=55 time=0
note_on channel=0 note=51 velocity=0 time=40
note_on channel=0 note=57 velocity=35 time=0
<meta message set_tempo tempo=360577 time=40>
<meta message set_tempo tempo=359454 time=40>
note_on channel=0 note=69 velocity=0 time=0
note_on channel=0 note=73 velocity=55 time=0
<meta message set_tempo tempo=358359 time=80>
note_on channel=0 note=57 velocity=0 time=0
note_on channel=0 note=61 velocity=39 time=0
<meta message set_tempo tempo=357249 time=40>
note_on channel=0 note=73 velocity=0 time=0
note_on channel=0 note=75 velocity=58 time=0
<meta message set_tempo tempo=356168 time=40>
<meta message set_tempo tempo=358359 time=40>
note_on channel=0 note=75 velocity=0 time=40
note_on channel=0 note=61 velocity=0 time=0
note_on channel=0 note=78 velocity=61 time=0
note_on channel=0 note=66 velocity=45 time=0
<meta message set_tempo tempo=357249 time=80>
note_on channel=0 note=78 velocity=0 time=40
note_on channel=0 note=81 velocity=64 time=0
note_on channel=0 note=66 velocity=0 time=40
note_on channel=0 note=61 velocity=39 time=0
<meta message set_tempo tempo=356168 time=40>
note_on channel=0 note=81 velocity=0 time=40
note_on channel=0 note=85 velocity=67 time=0
<meta message set_tempo tempo=355072 time=80>
note_on channel=0 note=61 velocity=0 time=0
note_on channel=0 note=57 velocity=37 time=0
note_on channel=0 note=85 velocity=0 time=40
note_on channel=0 note=87 velocity=70 time=0
<meta message set_tempo tempo=354003 time=80>
<meta message set_tempo tempo=351906 time=40>
note_on channel=0 note=87 velocity=0 time=0
note_on channel=0 note=57 velocity=0 time=0
note_on channel=0 note=95 velocity=74 time=0
note_on channel=0 note=54 velocity=37 time=0
<meta message set_tempo tempo=350877 time=40>
<meta message set_tempo tempo=349854 time=40>
note_on channel=0 note=95 velocity=0 time=40
note_on channel=0 note=93 velocity=72 time=0
note_on channel=0 note=54 velocity=0 time=40
note_on channel=0 note=61 velocity=40 time=0
<meta message set_tempo tempo=350877 time=80>
note_on channel=0 note=93 velocity=0 time=0
note_on channel=0 note=92 velocity=71 time=0
<meta message set_tempo tempo=352941 time=40>
note_on channel=0 note=61 velocity=0 time=40
note_on channel=0 note=63 velocity=44 time=0
<meta message set_tempo tempo=353982 time=40>
note_on channel=0 note=92 velocity=0 time=0
note_on channel=0 note=90 velocity=70 time=0
note_on channel=0 note=90 velocity=0 time=120
note_on channel=0 note=63 velocity=0 time=0
note_on channel=0 note=88 velocity=69 time=0
note_on channel=0 note=69 velocity=46 time=0
<meta message set_tempo tempo=348837 time=120>
note_on channel=0 note=88 velocity=0 time=0
note_on channel=0 note=87 velocity=68 time=0
note_on channel=0 note=69 velocity=0 time=40
note_on channel=0 note=63 velocity=44 time=0
<meta message set_tempo tempo=349854 time=40>
<meta message set_tempo tempo=351906 time=40>
note_on channel=0 note=87 velocity=0 time=0
note_on channel=0 note=90 velocity=67 time=0
<meta message set_tempo tempo=352941 time=40>
<meta message set_tempo tempo=353982 time=40>
note_on channel=0 note=63 velocity=0 time=0
note_on channel=0 note=61 velocity=41 time=0
note_on channel=0 note=90 velocity=0 time=40
note_on channel=0 note=85 velocity=66 time=0
<meta message set_tempo tempo=351906 time=120>
note_on channel=0 note=85 velocity=0 time=0
note_on channel=0 note=61 velocity=0 time=0
note_on channel=0 note=84 velocity=68 time=0
note_on channel=0 note=44 velocity=33 time=0
control_change channel=0 control=64 value=0 time=10
control_change channel=0 control=64 value=127 time=53
<meta message set_tempo tempo=350877 time=17>
<meta message set_tempo tempo=349854 time=40>
note_on channel=0 note=84 velocity=0 time=0
note_on channel=0 note=87 velocity=63 time=0
<meta message set_tempo tempo=350877 time=40>
note_on channel=0 note=44 velocity=0 time=0
note_on channel=0 note=51 velocity=35 time=0
<meta message set_tempo tempo=353982 time=40>
note_on channel=0 note=87 velocity=0 time=40
note_on channel=0 note=81 velocity=63 time=0
note_on channel=0 note=51 velocity=0 time=80
note_on channel=0 note=54 velocity=38 time=0
<meta message set_tempo tempo=352941 time=40>
note_on channel=0 note=81 velocity=0 time=0
note_on channel=0 note=80 velocity=63 time=0
<meta message set_tempo tempo=351906 time=80>
<meta message set_tempo tempo=350877 time=40>
note_on channel=0 note=80 velocity=0 time=0
note_on channel=0 note=54 velocity=0 time=0
note_on channel=0 note=78 velocity=60 time=0
note_on channel=0 note=60 velocity=39 time=0
note_on channel=0 note=78 velocity=0 time=120
note_on channel=0 note=81 velocity=58 time=0
note_on channel=0 note=60 velocity=0 time=40
note_on channel=0 note=54 velocity=36 time=0
note_on channel=0 note=81 velocity=0 time=80
note_on channel=0 note=76 velocity=54 time=0
note_on channel=0 note=54 velocity=0 time=80
note_on channel=0 note=51 velocity=34 time=0
note_on channel=0 note=76 velocity=0 time=40
note_on channel=0 note=75 velocity=54 time=0
<meta message set_tempo tempo=352920 time=120>
note_on channel=0 note=75 velocity=0 time=0
note_on channel=0 note=51 velocity=0 time=0
note_on channel=0 note=78 velocity=53 time=0
note_on channel=0 note=44 velocity=29 time=0
<meta message set_tempo tempo=354003 time=120>
note_on channel=0 note=78 velocity=0 time=0
note_on channel=0 note=73 velocity=48 time=0
note_on channel=0 note=44 velocity=0 time=40
note_on channel=0 note=51 velocity=31 time=0
<meta message set_tempo tempo=355072 time=40>
note_on channel=0 note=73 velocity=0 time=40
note_on channel=0 note=72 velocity=48 time=0
<meta message set_tempo tempo=356168 time=80>
note_on channel=0 note=51 velocity=0 time=0
note_on channel=0 note=54 velocity=33 time=0
note_on channel=0 note=72 velocity=0 time=40
note_on channel=0 note=75 velocity=47 time=0
<meta message set_tempo tempo=357249 time=40>
<meta message set_tempo tempo=359454 time=40>
<meta message set_tempo tempo=361685 time=40>
note_on channel=0 note=75 velocity=0 time=0
note_on channel=0 note=54 velocity=0 time=0
note_on channel=0 note=69 velocity=45 time=0
note_on channel=0 note=60 velocity=33 time=0
<meta message set_tempo tempo=363901 time=40>
<meta message set_tempo tempo=367354 time=40>
<meta message set_tempo tempo=369686 time=40>
note_on channel=0 note=69 velocity=0 time=0
note_on channel=0 note=68 velocity=42 time=0
<meta message set_tempo tempo=372047 time=40>
note_on channel=0 note=60 velocity=0 time=0
note_on channel=0 note=54 velocity=29 time=0
<meta message set_tempo tempo=374438 time=40>
<meta message set_tempo tempo=378072 time=40>
note_on channel=0 note=68 velocity=0 time=0
note_on channel=0 note=71 velocity=42 time=0
<meta message set_tempo tempo=380518 time=40>
note_on channel=0 note=54 velocity=0 time=40
note_on channel=0 note=51 velocity=26 time=0
<meta message set_tempo tempo=456552 time=40>
note_on channel=0 note=71 velocity=0 time=0
note_on channel=0 note=69 velocity=41 time=0
<meta message set_tempo tempo=355030 time=120>
note_on channel=0 note=51 velocity=0 time=0
note_on channel=0 note=49 velocity=22 time=0
control_change channel=0 control=64 value=0 time=9
control_change channel=0 control=64 value=127 time=54
<meta message set_tempo tempo=352941 time=17>
<meta message set_tempo tempo=351906 time=40>
note_on channel=0 note=69 velocity=0 time=0
note_on channel=0 note=68 velocity=37 time=0
note_on channel=0 note=49 velocity=0 time=40
note_on channel=0 note=56 velocity=25 time=0
<meta message set_tempo tempo=350877 time=40>
note_on channel=0 note=68 velocity=0 time=40
note_on channel=0 note=69 velocity=41 time=0
<meta message set_tempo tempo=353982 time=80>
note_on channel=0 note=56 velocity=0 time=0
note_on channel=0 note=61 velocity=28 time=0
<meta message set_tempo tempo=356083 time=40>
note_on channel=0 note=69 velocity=0 time=0
note_on channel=0 note=68 velocity=38 time=0
<meta message set_tempo tempo=357143 time=40>
<meta message set_tempo tempo=358209 time=40>
note_on channel=0 note=68 velocity=0 time=40
note_on channel=0 note=61 velocity=0 time=0
note_on channel=0 note=67 velocity=39 time=0
note_on channel=0 note=64 velocity=30 time=0
note_on channel=0 note=67 velocity=0 time=120
note_on channel=0 note=68 velocity=40 time=0
<meta message set_tempo tempo=355030 time=40>
note_on channel=0 note=64 velocity=0 time=0
note_on channel=0 note=61 velocity=28 time=0
<meta message set_tempo tempo=353982 time=40>
<meta message set_tempo tempo=352941 time=40>
note_on channel=0 note=68 velocity=0 time=0
note_on channel=0 note=73 velocity=42 time=0
<meta message set_tempo tempo=351906 time=40>
note_on channel=0 note=61 velocity=0 time=40
note_on channel=0 note=56 velocity=27 time=0
note_on channel=0 note=73 velocity=0 time=40
note_on channel=0 note=76 velocity=43 time=0
<meta message set_tempo tempo=353982 time=120>
note_on channel=0 note=76 velocity=0 time=0
note_on channel=0 note=56 velocity=0 time=0
note_on channel=0 note=75 velocity=45 time=0
note_on channel=0 note=52 velocity=26 time=0
control_change channel=0 control=64 value=0 time=17
<meta message set_tempo tempo=356083 time=23>
note_on channel=0 note=75 velocity=0 time=80
note_on channel=0 note=73 velocity=43 time=0
<meta message set_tempo tempo=357143 time=40>
note_on channel=0 note=52 velocity=0 time=0
note_on channel=0 note=56 velocity=28 time=0
<meta message set_tempo tempo=356083 time=80>
note_on channel=0 note=73 velocity=0 time=0
note_on channel=0 note=75 velocity=45 time=0
<meta message set_tempo tempo=355030 time=40>
<meta message set_tempo tempo=353982 time=40>
note_on channel=0 note=56 velocity=0 time=0
note_on channel=0 note=61 velocity=30 time=0
<meta message set_tempo tempo=352941 time=40>
note_on channel=0 note=75 velocity=0 time=0
note_on channel=0 note=73 velocity=43 time=0
<meta message set_tempo tempo=351906 time=40>
note_on channel=0 note=73 velocity=0 time=80
note_on channel=0 note=61 velocity=0 time=0
note_on channel=0 note=72 velocity=44 time=0
note_on channel=0 note=64 velocity=31 time=0
<meta message set_tempo tempo=352941 time=40>
<meta message set_tempo tempo=353982 time=40>
note_on channel=0 note=72 velocity=0 time=40
note_on channel=0 note=73 velocity=46 time=0
<meta message set_tempo tempo=355030 time=40>
note_on channel=0 note=64 velocity=0 time=0
note_on channel=0 note=61 velocity=28 time=0
note_on channel=0 note=73 velocity=0 time=80
note_on channel=0 note=76 velocity=49 time=0
note_on channel=0 note=61 velocity=0 time=80
note_on channel=0 note=56 velocity=27 time=0
<meta message set_tempo tempo=425170 time=40>
note_on channel=0 note=76 velocity=0 time=0
note_on channel=0 note=80 velocity=47 time=0
<meta message set_tempo tempo=402982 time=120>
note_on channel=0 note=80 velocity=0 time=0
note_on channel=0 note=56 velocity=0 time=0
control_change channel=0 control=64 value=0 time=0
note_on channel=0 note=49 velocity=27 time=0
control_change channel=0 control=64 value=127 time=63
<meta message set_tempo tempo=355030 time=57>
note_on channel=0 note=68 velocity=45 time=0
note_on channel=0 note=49 velocity=0 time=40
note_on channel=0 note=56 velocity=30 time=0
note_on channel=0 note=68 velocity=0 time=80
note_on channel=0 note=70 velocity=49 time=0
<meta message set_tempo tempo=353982 time=80>
note_on channel=0 note=56 velocity=0 time=0
note_on channel=0 note=58 velocity=34 time=0
<meta message set_tempo tempo=352941 time=40>
note_on channel=0 note=70 velocity=0 time=0
note_on channel=0 note=68 velocity=45 time=0
<meta message set_tempo tempo=353982 time=40>
<meta message set_tempo tempo=356083 time=40>
<meta message set_tempo tempo=357143 time=40>
note_on channel=0 note=68 velocity=0 time=0
note_on channel=0 note=58 velocity=0 time=0
note_on channel=0 note=67 velocity=46 time=0
note_on channel=0 note=64 velocity=36 time=0
<meta message set_tempo tempo=356083 time=40>
<meta message set_tempo tempo=355030 time=80>
note_on channel=0 note=67 velocity=0 time=0
note_on channel=0 note=68 velocity=48 time=0
<meta message set_tempo tempo=353982 time=40>
note_on channel=0 note=64 velocity=0 time=0
note_on channel=0 note=58 velocity=34 time=0
<meta message set_tempo tempo=352941 time=40>
<meta message set_tempo tempo=351906 time=40>
note_on channel=0 note=68 velocity=0 time=0
note_on channel=0 note=73 velocity=50 time=0
<meta message set_tempo tempo=353982 time=80>
note_on channel=0 note=58 velocity=0 time=0
note_on channel=0 note=56 velocity=33 time=0
<meta message set_tempo tempo=356083 time=40>
note_on channel=0 note=73 velocity=0 time=0
note_on channel=0 note=76 velocity=51 time=0
<meta message set_tempo tempo=357143 time=40>
<meta message set_tempo tempo=358209 time=80>
note_on channel=0 note=76 velocity=0 time=0
note_on channel=0 note=56 velocity=0 time=0
note_on channel=0 note=75 velocity=54 time=0
note_on channel=0 note=52 velocity=31 time=0
control_change channel=0 control=64 value=0 time=15
<meta message set_tempo tempo=357143 time=25>
<meta message set_tempo tempo=356083 time=40>
<meta message set_tempo tempo=355030 time=40>
note_on channel=0 note=75 velocity=0 time=0
note_on channel=0 note=73 velocity=51 time=0
note_on channel=0 note=52 velocity=0 time=40
note_on channel=0 note=56 velocity=33 time=0
<meta message set_tempo tempo=353982 time=40>
note_on channel=0 note=73 velocity=0 time=40
note_on channel=0 note=75 velocity=53 time=0
<meta message set_tempo tempo=352941 time=40>
<meta message set_tempo tempo=351906 time=40>
note_on channel=0 note=56 velocity=0 time=0
note_on channel=0 note=58 velocity=36 time=0
note_on channel=0 note=75 velocity=0 time=40
note_on channel=0 note=73 velocity=51 time=0
<meta message set_tempo tempo=352941 time=80>
<meta message set_tempo tempo=353982 time=40>
note_on channel=0 note=73 velocity=0 time=0
note_on channel=0 note=58 velocity=0 time=0
note_on channel=0 note=72 velocity=52 time=0
note_on channel=0 note=61 velocity=37 time=0
<meta message set_tempo tempo=356083 time=40>
<meta message set_tempo tempo=357143 time=40>
note_on channel=0 note=72 velocity=0 time=40
note_on channel=0 note=73 velocity=54 time=0
note_on channel=0 note=61 velocity=0 time=40
note_on channel=0 note=58 velocity=34 time=0
<meta message set_tempo tempo=353982 time=40>
<meta message set_tempo tempo=355030 time=40>
note_on channel=0 note=73 velocity=0 time=0
note_on channel=0 note=76 velocity=57 time=0
<meta message set_tempo tempo=353982 time=40>
note_on channel=0 note=58 velocity=0 time=40
note_on channel=0 note=56 velocity=32 time=0
<meta message set_tempo tempo=425170 time=40>
note_on channel=0 note=76 velocity=0 time=0
note_on channel=0 note=80 velocity=55 time=0
<meta message set_tempo tempo=401687 time=120>
note_on channel=0 note=80 velocity=0 time=0
note_on channel=0 note=56 velocity=0 time=0
note_on channel=0 note=75 velocity=64 time=0
control_change channel=0 control=64 value=0 time=0
note_on channel=0 note=51 velocity=30 time=0
control_change channel=0 control=64 value=127 time=63
<meta message set_tempo tempo=361685 time=57>
note_on channel=0 note=75 velocity=0 time=0
note_on channel=0 note=76 velocity=58 time=0
note_on channel=0 note=51 velocity=0 time=40
note_on channel=0 note=56 velocity=34 time=0
<meta message set_tempo tempo=360577 time=40>
<meta message set_tempo tempo=359454 time=40>
note_on channel=0 note=76 velocity=0 time=0
note_on channel=0 note=75 velocity=61 time=0
<meta message set_tempo tempo=358359 time=80>
note_on channel=0 note=56 velocity=0 time=0
note_on channel=0 note=59 velocity=37 time=0
<meta message set_tempo tempo=357249 time=40>
note_on channel=0 note=75 velocity=0 time=0
note_on channel=0 note=74 velocity=50 time=0
<meta message set_tempo tempo=356168 time=40>
<meta message set_tempo tempo=358359 time=40>
note_on channel=0 note=74 velocity=0 time=40
note_on channel=0 note=59 velocity=0 time=0
note_on channel=0 note=75 velocity=56 time=0
note_on channel=0 note=63 velocity=39 time=0
<meta message set_tempo tempo=357249 time=80>
note_on channel=0 note=75 velocity=0 time=40
note_on channel=0 note=83 velocity=68 time=0
note_on channel=0 note=63 velocity=0 time=40
note_on channel=0 note=59 velocity=38 time=0
<meta message set_tempo tempo=356168 time=40>
note_on channel=0 note=83 velocity=0 time=40
note_on channel=0 note=82 velocity=62 time=0
<meta message set_tempo tempo=355072 time=80>
note_on channel=0 note=59 velocity=0 time=0
note_on channel=0 note=56 velocity=35 time=0
note_on channel=0 note=82 velocity=0 time=40
note_on channel=0 note=80 velocity=65 time=0
<meta message set_tempo tempo=354003 time=80>
note_on channel=0 note=80 velocity=0 time=40
note_on channel=0 note=56 velocity=0 time=0
note_on channel=0 note=79 velocity=69 time=0
note_on channel=0 note=51 velocity=38 time=0
control_change channel=0 control=64 value=0 time=16
<meta message set_tempo tempo=349854 time=24>
<meta message set_tempo tempo=348837 time=40>
control_change channel=0 control=64 value=127 time=17
<meta message set_tempo tempo=349854 time=23>
note_on channel=0 note=79 velocity=0 time=0
note_on channel=0 note=88 velocity=73 time=0
<meta message set_tempo tempo=352941 time=40>
note_on channel=0 note=51 velocity=0 time=0
note_on channel=0 note=58 velocity=41 time=0
<meta message set_tempo tempo=353982 time=40>
note_on channel=0 note=88 velocity=0 time=40
note_on channel=0 note=87 velocity=72 time=0
note_on channel=0 note=58 velocity=0 time=80
note_on channel=0 note=61 velocity=45 time=0
note_on channel=0 note=87 velocity=0 time=40
note_on channel=0 note=85 velocity=72 time=0
<meta message set_tempo tempo=352941 time=80>
<meta message set_tempo tempo=350877 time=40>
note_on channel=0 note=85 velocity=0 time=0
note_on channel=0 note=61 velocity=0 time=0
note_on channel=0 note=83 velocity=75 time=0
note_on channel=0 note=67 velocity=46 time=0
<meta message set_tempo tempo=349854 time=40>
<meta message set_tempo tempo=348837 time=40>
<meta message set_tempo tempo=351906 time=40>
note_on channel=0 note=83 velocity=0 time=0
note_on channel=0 note=82 velocity=69 time=0
<meta message set_tempo tempo=353982 time=40>
note_on channel=0 note=67 velocity=0 time=0
note_on channel=0 note=61 velocity=44 time=0
note_on channel=0 note=82 velocity=0 time=80
note_on channel=0 note=80 velocity=68 time=0
note_on channel=0 note=61 velocity=0 time=80
note_on channel=0 note=58 velocity=41 time=0
note_on channel=0 note=80 velocity=0 time=40
note_on channel=0 note=79 velocity=68 time=0
note_on channel=0 note=79 velocity=0 time=120
note_on channel=0 note=58 velocity=0 time=0
note_on channel=0 note=82 velocity=72 time=0
note_on channel=0 note=44 velocity=33 time=0
control_change channel=0 control=64 value=0 time=9
control_change channel=0 control=64 value=127 time=54
note_on channel=0 note=82 velocity=0 time=57
note_on channel=0 note=80 velocity=70 time=0
<meta message set_tempo tempo=350877 time=40>
note_on channel=0 note=44 velocity=0 time=0
note_on channel=0 note=51 velocity=35 time=0
<meta message set_tempo tempo=349854 time=40>
note_on channel=0 note=80 velocity=0 time=40
note_on channel=0 note=83 velocity=64 time=0
<meta message set_tempo tempo=350877 time=40>
<meta message set_tempo tempo=351906 time=40>
note_on channel=0 note=51 velocity=0 time=0
note_on channel=0 note=56 velocity=37 time=0
<meta message set_tempo tempo=352941 time=40>
note_on channel=0 note=83 velocity=0 time=0
note_on channel=0 note=74 velocity=57 time=0
<meta message set_tempo tempo=353982 time=40>
note_on channel=0 note=74 velocity=0 time=80
note_on channel=0 note=56 velocity=0 time=0
note_on channel=0 note=76 velocity=65 time=0
note_on channel=0 note=59 velocity=39 time=0
note_on channel=0 note=76 velocity=0 time=120
note_on channel=0 note=75 velocity=57 time=0
<meta message set_tempo tempo=347826 time=40>
note_on channel=0 note=59 velocity=0 time=0
note_on channel=0 note=56 velocity=39 time=0
<meta message set_tempo tempo=346821 time=40>
<meta message set_tempo tempo=345821 time=40>
note_on channel=0 note=75 velocity=0 time=0
note_on channel=0 note=80 velocity=63 time=0
<meta message set_tempo tempo=348837 time=40>
<meta message set_tempo tempo=349854 time=40>
note_on channel=0 note=56 velocity=0 time=0
note_on channel=0 note=51 velocity=37 time=0
<meta message set_tempo tempo=350877 time=40>
note_on channel=0 note=80 velocity=0 time=0
note_on channel=0 note=70 velocity=57 time=0
<meta message set_tempo tempo=352920 time=120>
note_on channel=0 note=70 velocity=0 time=0
note_on channel=0 note=51 velocity=0 time=0
note_on channel=0 note=73 velocity=61 time=0
note_on channel=0 note=44 velocity=33 time=0
<meta message set_tempo tempo=354003 time=120>
note_on channel=0 note=73 velocity=0 time=0
note_on channel=0 note=71 velocity=59 time=0
note_on channel=0 note=44 velocity=0 time=40
note_on channel=0 note=51 velocity=35 time=0
<meta message set_tempo tempo=355072 time=40>
note_on channel=0 note=71 velocity=0 time=40
note_on channel=0 note=75 velocity=58 time=0
<meta message set_tempo tempo=356168 time=80>
note_on channel=0 note=51 velocity=0 time=0
note_on channel=0 note=56 velocity=38 time=0
note_on channel=0 note=75 velocity=0 time=40
note_on channel=0 note=67 velocity=56 time=0
<meta message set_tempo tempo=357249 time=40>
<meta message set_tempo tempo=359454 time=40>
<meta message set_tempo tempo=361685 time=40>
note_on channel=0 note=67 velocity=0 time=0
note_on channel=0 note=56 velocity=0 time=0
note_on channel=0 note=70 velocity=60 time=0
note_on channel=0 note=59 velocity=39 time=0
<meta message set_tempo tempo=367107 time=40>
<meta message set_tempo tempo=369299 time=40>
<meta message set_tempo tempo=372625 time=40>
note_on channel=0 note=70 velocity=0 time=0
note_on channel=0 note=68 velocity=51 time=0
<meta message set_tempo tempo=376034 time=40>
note_on channel=0 note=59 velocity=0 time=0
note_on channel=0 note=56 velocity=35 time=0
<meta message set_tempo tempo=378334 time=40>
<meta message set_tempo tempo=381849 time=40>
note_on channel=0 note=68 velocity=0 time=0
note_on channel=0 note=67 velocity=55 time=0
<meta message set_tempo tempo=386623 time=40>
<meta message set_tempo tempo=392747 time=40>
note_on channel=0 note=56 velocity=0 time=0
note_on channel=0 note=51 velocity=33 time=0
<meta message set_tempo tempo=399095 time=40>
note_on channel=0 note=67 velocity=0 time=0
note_on channel=0 note=68 velocity=50 time=0
<meta message set_tempo tempo=405625 time=40>
<meta message set_tempo tempo=412399 time=40>
<meta message set_tempo tempo=420816 time=40>
note_on channel=0 note=68 velocity=0 time=0
note_on channel=0 note=51 velocity=0 time=0
note_on channel=0 note=68 velocity=72 time=0
note_on channel=0 note=45 velocity=39 time=0
control_change channel=0 control=64 value=0 time=8
control_change channel=0 control=64 value=127 time=44
<meta message set_tempo tempo=416580 time=28>
<meta message set_tempo tempo=415167 time=40>
note_on channel=0 note=68 velocity=0 time=0
note_on channel=0 note=80 velocity=58 time=0
note_on channel=0 note=45 velocity=0 time=40
note_on channel=0 note=49 velocity=41 time=0
<meta message set_tempo tempo=413765 time=40>
<meta message set_tempo tempo=412399 time=40>
note_on channel=0 note=80 velocity=0 time=0
note_on channel=0 note=72 velocity=59 time=0
<meta message set_tempo tempo=411015 time=80>
note_on channel=0 note=49 velocity=0 time=0
note_on channel=0 note=54 velocity=43 time=0
<meta message set_tempo tempo=409668 time=40>
note_on channel=0 note=72 velocity=0 time=0
note_on channel=0 note=73 velocity=59 time=0
<meta message set_tempo tempo=408302 time=80>
<meta message set_tempo tempo=406973 time=40>
note_on channel=0 note=73 velocity=0 time=0
note_on channel=0 note=54 velocity=0 time=0
note_on channel=0 note=66 velocity=71 time=0
note_on channel=0 note=57 velocity=45 time=0
<meta message set_tempo tempo=405625 time=40>
note_on channel=0 note=66 velocity=0 time=80
note_on channel=0 note=78 velocity=60 time=0
<meta message set_tempo tempo=403606 time=40>
note_on channel=0 note=57 velocity=0 time=0
note_on channel=0 note=54 velocity=44 time=0
note_on channel=0 note=78 velocity=0 time=80
note_on channel=0 note=72 velocity=60 time=0
note_on channel=0 note=54 velocity=0 time=80
note_on channel=0 note=49 velocity=42 time=0
note_on channel=0 note=72 velocity=0 time=40
note_on channel=0 note=73 velocity=61 time=0
<meta message set_tempo tempo=402334 time=80>
<meta message set_tempo tempo=402334 time=40>
note_on channel=0 note=73 velocity=0 time=0
note_on channel=0 note=49 velocity=0 time=0
note_on channel=0 note=65 velocity=75 time=0
note_on channel=0 note=45 velocity=42 time=0
note_on channel=0 note=65 velocity=0 time=120
note_on channel=0 note=77 velocity=62 time=0
note_on channel=0 note=45 velocity=0 time=40
note_on channel=0 note=49 velocity=44 time=0
<meta message set_tempo tempo=403606 time=40>
note_on channel=0 note=77 velocity=0 time=40
note_on channel=0 note=72 velocity=63 time=0
note_on channel=0 note=49 velocity=0 time=80
note_on channel=0 note=54 velocity=45 time=0
note_on channel=0 note=72 velocity=0 time=40
note_on channel=0 note=73 velocity=63 time=0
<meta message set_tempo tempo=404913 time=40>
note_on channel=0 note=73 velocity=0 time=80
note_on channel=0 note=54 velocity=0 time=0
note_on channel=0 note=66 velocity=74 time=0
note_on channel=0 note=57 velocity=45 time=0
<meta message set_tempo tempo=404913 time=80>
<meta message set_tempo tempo=406201 time=40>
note_on channel=0 note=66 velocity=0 time=0
note_on channel=0 note=78 velocity=65 time=0
<meta message set_tempo tempo=407498 time=40>
note_on channel=0 note=57 velocity=0 time=0
note_on channel=0 note=54 velocity=45 time=0
<meta message set_tempo tempo=408803 time=40>
<meta message set_tempo tempo=410144 time=40>
note_on channel=0 note=78 velocity=0 time=0
note_on channel=0 note=72 velocity=64 time=0
<meta message set_tempo tempo=412825 time=40>
<meta message set_tempo tempo=414164 time=40>
note_on channel=0 note=54 velocity=0 time=0
note_on channel=0 note=49 velocity=44 time=0
<meta message set_tempo tempo=415512 time=40>
note_on channel=0 note=72 velocity=0 time=0
note_on channel=0 note=73 velocity=64 time=0
<meta message set_tempo tempo=416869 time=40>
<meta message set_tempo tempo=419639 time=40>
<meta message set_tempo tempo=416869 time=40>
note_on channel=0 note=73 velocity=0 time=0
note_on channel=0 note=49 velocity=0 time=0
note_on channel=0 note=61 velocity=77 time=0
note_on channel=0 note=47 velocity=44 time=0
control_change channel=0 control=64 value=0 time=7
<meta message set_tempo tempo=412825 time=33>
<meta message set_tempo tempo=408803 time=40>
control_change channel=0 control=64 value=127 time=11
<meta message set_tempo tempo=404913 time=29>
note_on channel=0 note=61 velocity=0 time=0
note_on channel=0 note=73 velocity=65 time=0
<meta message set_tempo tempo=401043 time=40>
note_on channel=0 note=47 velocity=0 time=0
note_on channel=0 note=54 velocity=46 time=0
<meta message set_tempo tempo=404913 time=40>
<meta message set_tempo tempo=403606 time=40>
note_on channel=0 note=73 velocity=0 time=0
note_on channel=0 note=66 velocity=65 time=0
note_on channel=0 note=54 velocity=0 time=80
note_on channel=0 note=57 velocity=48 time=0
note_on channel=0 note=66 velocity=0 time=40
note_on channel=0 note=69 velocity=65 time=0
note_on channel=0 note=69 velocity=0 time=120
note_on channel=0 note=57 velocity=0 time=0
note_on channel=0 note=63 velocity=75 time=0
note_on channel=0 note=59 velocity=49 time=0
note_on channel=0 note=63 velocity=0 time=120
note_on channel=0 note=75 velocity=65 time=0
note_on channel=0 note=59 velocity=0 time=40
note_on channel=0 note=57 velocity=47 time=0
note_on channel=0 note=75 velocity=0 time=80
note_on channel=0 note=66 velocity=65 time=0
<meta message set_tempo tempo=402334 time=80>
note_on channel=0 note=57 velocity=0 time=0
note_on channel=0 note=54 velocity=45 time=0
note_on channel=0 note=66 velocity=0 time=40
note_on channel=0 note=69 velocity=65 time=0
note_on channel=0 note=69 velocity=0 time=120
note_on channel=0 note=54 velocity=0 time=0
note_on channel=0 note=64 velocity=79 time=0
note_on channel=0 note=40 velocity=45 time=0
control_change channel=0 control=64 value=0 time=9
<meta message set_tempo tempo=403606 time=31>
control_change channel=0 control=64 value=127 time=52
note_on channel=0 note=64 velocity=0 time=28
note_on channel=0 note=76 velocity=66 time=0
note_on channel=0 note=40 velocity=0 time=40
note_on channel=0 note=47 velocity=46 time=0
<meta message set_tempo tempo=404913 time=40>
note_on channel=0 note=76 velocity=0 time=40
note_on channel=0 note=68 velocity=66 time=0
note_on channel=0 note=47 velocity=0 time=80
note_on channel=0 note=52 velocity=48 time=0
<meta message set_tempo tempo=406201 time=40>
note_on channel=0 note=68 velocity=0 time=0
note_on channel=0 note=71 velocity=66 time=0
note_on channel=0 note=71 velocity=0 time=120
note_on channel=0 note=52 velocity=0 time=0
note_on channel=0 note=68 velocity=77 time=0
note_on channel=0 note=56 velocity=47 time=0
<meta message set_tempo tempo=407498 time=40>
<meta message set_tempo tempo=408803 time=80>
note_on channel=0 note=68 velocity=0 time=0
note_on channel=0 note=80 velocity=67 time=0
<meta message set_tempo tempo=410144 time=40>
note_on channel=0 note=56 velocity=0 time=0
note_on channel=0 note=52 velocity=46 time=0
<meta message set_tempo tempo=411466 time=40>
<meta message set_tempo tempo=412825 time=40>
note_on channel=0 note=80 velocity=0 time=0
note_on channel=0 note=71 velocity=66 time=0
<meta message set_tempo tempo=414164 time=40>
<meta message set_tempo tempo=415512 time=40>
note_on channel=0 note=52 velocity=0 time=0
note_on channel=0 note=47 velocity=45 time=0
note_on channel=0 note=71 velocity=0 time=40
note_on channel=0 note=76 velocity=65 time=0
<meta message set_tempo tempo=406201 time=120>
note_on channel=0 note=76 velocity=0 time=0
note_on channel=0 note=47 velocity=0 time=0
note_on channel=0 note=68 velocity=81 time=0
note_on channel=0 note=45 velocity=44 time=0
control_change channel=0 control=64 value=0 time=5
control_change channel=0 control=64 value=127 time=64
note_on channel=0 note=68 velocity=0 time=51
note_on channel=0 note=80 velocity=65 time=0
note_on channel=0 note=45 velocity=0 time=40
note_on channel=0 note=49 velocity=46 time=0
note_on channel=0 note=80 velocity=0 time=80
note_on channel=0 note=72 velocity=65 time=0
<meta message set_tempo tempo=404913 time=80>
note_on channel=0 note=49 velocity=0 time=0
note_on channel=0 note=54 velocity=48 time=0
note_on channel=0 note=72 velocity=0 time=40
note_on channel=0 note=73 velocity=65 time=0
note_on channel=0 note=73 velocity=0 time=120
note_on channel=0 note=54 velocity=0 time=0
note_on channel=0 note=66 velocity=78 time=0
note_on channel=0 note=57 velocity=49 time=0
note_on channel=0 note=66 velocity=0 time=120
note_on channel=0 note=78 velocity=65 time=0
<meta message set_tempo tempo=403606 time=40>
note_on channel=0 note=57 velocity=0 time=0
note_on channel=0 note=54 velocity=47 time=0
note_on channel=0 note=78 velocity=0 time=80
note_on channel=0 note=72 velocity=65 time=0
note_on channel=0 note=54 velocity=0 time=80
note_on channel=0 note=49 velocity=45 time=0
note_on channel=0 note=72 velocity=0 time=40
note_on channel=0 note=73 velocity=65 time=0
<meta message set_tempo tempo=402334 time=80>
<meta message set_tempo tempo=402334 time=40>
note_on channel=0 note=73 velocity=0 time=0
note_on channel=0 note=49 velocity=0 time=0
note_on channel=0 note=65 velocity=79 time=0
note_on channel=0 note=45 velocity=45 time=0
note_on channel=0 note=65 velocity=0 time=120
note_on channel=0 note=77 velocity=66 time=0
note_on channel=0 note=45 velocity=0 time=40
note_on channel=0 note=49 velocity=46 time=0
<meta message set_tempo tempo=403606 time=40>
note_on channel=0 note=77 velocity=0 time=40
note_on channel=0 note=72 velocity=66 time=0
note_on channel=0 note=49 velocity=0 time=80
note_on channel=0 note=54 velocity=48 time=0
note_on channel=0 note=72 velocity=0 time=40
note_on channel=0 note=73 velocity=66 time=0
<meta message set_tempo tempo=404913 time=40>
note_on channel=0 note=73 velocity=0 time=80
note_on channel=0 note=54 velocity=0 time=0
note_on channel=0 note=66 velocity=77 time=0
note_on channel=0 note=57 velocity=47 time=0
<meta message set_tempo tempo=404913 time=80>
<meta message set_tempo tempo=406201 time=40>
note_on channel=0 note=66 velocity=0 time=0
note_on channel=0 note=78 velocity=67 time=0
<meta message set_tempo tempo=407498 time=40>
note_on channel=0 note=57 velocity=0 time=0
note_on channel=0 note=54 velocity=46 time=0
<meta message set_tempo tempo=408803 time=40>
<meta message set_tempo tempo=410144 time=40>
note_on channel=0 note=78 velocity=0 time=0
note_on channel=0 note=72 velocity=66 time=0
<meta message set_tempo tempo=412825 time=40>
<meta message set_tempo tempo=414164 time=40>
note_on channel=0 note=54 velocity=0 time=0
note_on channel=0 note=49 velocity=45 time=0
<meta message set_tempo tempo=415512 time=40>
note_on channel=0 note=72 velocity=0 time=0
note_on channel=0 note=73 velocity=65 time=0
<meta message set_tempo tempo=416869 time=40>
<meta message set_tempo tempo=419639 time=40>
<meta message set_tempo tempo=411466 time=40>
note_on channel=0 note=73 velocity=0 time=0
note_on channel=0 note=49 velocity=0 time=0
note_on channel=0 note=65 velocity=81 time=0
control_change channel=0 control=64 value=0 time=0
note_on channel=0 note=47 velocity=44 time=0
control_change channel=0 control=64 value=127 time=91
note_on channel=0 note=65 velocity=0 time=29
note_on channel=0 note=77 velocity=65 time=0
note_on channel=0 note=47 velocity=0 time=40
note_on channel=0 note=51 velocity=46 time=0
note_on channel=0 note=77 velocity=0 time=80
note_on channel=0 note=71 velocity=65 time=0
<meta message set_tempo tempo=410144 time=80>
note_on channel=0 note=51 velocity=0 time=0
note_on channel=0 note=57 velocity=48 time=0
note_on channel=0 note=71 velocity=0 time=40
note_on channel=0 note=75 velocity=65 time=0
<meta message set_tempo tempo=418264 time=80>
<meta message set_tempo tempo=419639 time=40>
note_on channel=0 note=75 velocity=0 time=0
note_on channel=0 note=57 velocity=0 time=0
note_on channel=0 note=66 velocity=78 time=0
note_on channel=0 note=59 velocity=49 time=0
<meta message set_tempo tempo=421053 time=40>
<meta message set_tempo tempo=423849 time=40>
<meta message set_tempo tempo=425291 time=40>
note_on channel=0 note=66 velocity=0 time=0
note_on channel=0 note=78 velocity=65 time=0
<meta message set_tempo tempo=428174 time=40>
note_on channel=0 note=59 velocity=0 time=0
note_on channel=0 note=57 velocity=47 time=0
<meta message set_tempo tempo=429615 time=40>
<meta message set_tempo tempo=432526 time=40>
note_on channel=0 note=78 velocity=0 time=0
note_on channel=0 note=71 velocity=65 time=0
<meta message set_tempo tempo=438500 time=40>
<meta message set_tempo tempo=446229 time=40>
note_on channel=0 note=57 velocity=0 time=0
note_on channel=0 note=51 velocity=45 time=0
<meta message set_tempo tempo=452625 time=40>
note_on channel=0 note=71 velocity=0 time=0
note_on channel=0 note=75 velocity=65 time=0
<meta message set_tempo tempo=460865 time=40>
<meta message set_tempo tempo=469373 time=40>
<meta message set_tempo tempo=419639 time=40>
note_on channel=0 note=75 velocity=0 time=0
note_on channel=0 note=51 velocity=0 time=0
note_on channel=0 note=69 velocity=79 time=0
note_on channel=0 note=40 velocity=45 time=0
control_change channel=0 control=64 value=0 time=16
<meta message set_tempo tempo=421053 time=64>
control_change channel=0 control=64 value=127 time=12
<meta message set_tempo tempo=422446 time=28>
note_on channel=0 note=69 velocity=0 time=0
note_on channel=0 note=81 velocity=66 time=0
note_on channel=0 note=40 velocity=0 time=40
note_on channel=0 note=47 velocity=46 time=0
<meta message set_tempo tempo=423849 time=40>
<meta message set_tempo tempo=425291 time=40>
note_on channel=0 note=81 velocity=0 time=0
note_on channel=0 note=71 velocity=66 time=0
<meta message set_tempo tempo=426712 time=80>
note_on channel=0 note=47 velocity=0 time=0
note_on channel=0 note=52 velocity=48 time=0
<meta message set_tempo tempo=428174 time=40>
note_on channel=0 note=71 velocity=0 time=0
note_on channel=0 note=76 velocity=66 time=0
<meta message set_tempo tempo=429615 time=80>
<meta message set_tempo tempo=431065 time=40>
note_on channel=0 note=76 velocity=0 time=0
note_on channel=0 note=52 velocity=0 time=0
note_on channel=0 note=68 velocity=77 time=0
note_on channel=0 note=56 velocity=47 time=0
<meta message set_tempo tempo=432526 time=120>
note_on channel=0 note=68 velocity=0 time=0
note_on channel=0 note=80 velocity=67 time=0
note_on channel=0 note=56 velocity=0 time=40
note_on channel=0 note=52 velocity=46 time=0
<meta message set_tempo tempo=434028 time=40>
note_on channel=0 note=80 velocity=0 time=40
note_on channel=0 note=71 velocity=66 time=0
<meta message set_tempo tempo=435508 time=80>
note_on channel=0 note=52 velocity=0 time=0
note_on channel=0 note=47 velocity=45 time=0
note_on channel=0 note=71 velocity=0 time=40
note_on channel=0 note=76 velocity=65 time=0
<meta message set_tempo tempo=437031 time=40>
<meta message set_tempo tempo=428174 time=40>
<meta message set_tempo tempo=406201 time=40>
note_on channel=0 note=76 velocity=0 time=0
note_on channel=0 note=47 velocity=0 time=0
note_on channel=0 note=68 velocity=52 time=0
note_on channel=0 note=45 velocity=30 time=0
control_change channel=0 control=64 value=0 time=3
control_change channel=0 control=64 value=127 time=88
note_on channel=0 note=68 velocity=0 time=29
note_on channel=0 note=80 velocity=57 time=0
note_on channel=0 note=45 velocity=0 time=40
note_on channel=0 note=49 velocity=33 time=0
note_on channel=0 note=80 velocity=0 time=80
note_on channel=0 note=72 velocity=47 time=0
<meta message set_tempo tempo=404913 time=80>
note_on channel=0 note=49 velocity=0 time=0
note_on channel=0 note=54 velocity=34 time=0
note_on channel=0 note=72 velocity=0 time=40
note_on channel=0 note=73 velocity=47 time=0
note_on channel=0 note=73 velocity=0 time=120
note_on channel=0 note=54 velocity=0 time=0
note_on channel=0 note=66 velocity=49 time=0
note_on channel=0 note=57 velocity=35 time=0
note_on channel=0 note=66 velocity=0 time=120
note_on channel=0 note=78 velocity=54 time=0
<meta message set_tempo tempo=403606 time=40>
note_on channel=0 note=57 velocity=0 time=0
note_on channel=0 note=54 velocity=34 time=0
note_on channel=0 note=78 velocity=0 time=80
note_on channel=0 note=72 velocity=48 time=0
note_on channel=0 note=54 velocity=0 time=80
note_on channel=0 note=49 velocity=34 time=0
note_on channel=0 note=72 velocity=0 time=40
note_on channel=0 note=73 velocity=48 time=0
<meta message set_tempo tempo=402334 time=80>
<meta message set_tempo tempo=402334 time=40>
note_on channel=0 note=73 velocity=0 time=0
note_on channel=0 note=49 velocity=0 time=0
note_on channel=0 note=65 velocity=51 time=0
note_on channel=0 note=45 velocity=34 time=0
note_on channel=0 note=65 velocity=0 time=120
note_on channel=0 note=77 velocity=56 time=0
note_on channel=0 note=45 velocity=0 time=40
note_on channel=0 note=49 velocity=34 time=0
<meta message set_tempo tempo=403606 time=40>
note_on channel=0 note=77 velocity=0 time=40
note_on channel=0 note=72 velocity=50 time=0
note_on channel=0 note=49 velocity=0 time=80
note_on channel=0 note=54 velocity=36 time=0
note_on channel=0 note=72 velocity=0 time=40
note_on channel=0 note=73 velocity=50 time=0
<meta message set_tempo tempo=404913 time=40>
note_on channel=0 note=73 velocity=0 time=80
note_on channel=0 note=54 velocity=0 time=0
note_on channel=0 note=66 velocity=53 time=0
note_on channel=0 note=57 velocity=36 time=0
<meta message set_tempo tempo=404913 time=80>
<meta message set_tempo tempo=406201 time=40>
note_on channel=0 note=66 velocity=0 time=0
note_on channel=0 note=78 velocity=58 time=0
<meta message set_tempo tempo=407498 time=40>
note_on channel=0 note=57 velocity=0 time=0
note_on channel=0 note=54 velocity=35 time=0
<meta message set_tempo tempo=408803 time=40>
<meta message set_tempo tempo=410144 time=40>
note_on channel=0 note=78 velocity=0 time=0
note_on channel=0 note=72 velocity=51 time=0
<meta message set_tempo tempo=412825 time=40>
<meta message set_tempo tempo=414164 time=40>
note_on channel=0 note=54 velocity=0 time=0
note_on channel=0 note=49 velocity=34 time=0
<meta message set_tempo tempo=415512 time=40>
note_on channel=0 note=72 velocity=0 time=0
note_on channel=0 note=73 velocity=51 time=0
<meta message set_tempo tempo=416869 time=40>
<meta message set_tempo tempo=419639 time=40>
<meta message set_tempo tempo=416869 time=40>
note_on channel=0 note=73 velocity=0 time=0
note_on channel=0 note=49 velocity=0 time=0
note_on channel=0 note=61 velocity=55 time=0
control_change channel=0 control=64 value=0 time=0
note_on channel=0 note=47 velocity=34 time=0
<meta message set_tempo tempo=412825 time=40>
<meta message set_tempo tempo=408803 time=40>
control_change channel=0 control=64 value=127 time=11
<meta message set_tempo tempo=404913 time=29>
note_on channel=0 note=61 velocity=0 time=0
note_on channel=0 note=73 velocity=60 time=0
<meta message set_tempo tempo=401043 time=40>
note_on channel=0 note=47 velocity=0 time=0
note_on channel=0 note=54 velocity=37 time=0
<meta message set_tempo tempo=404913 time=40>
<meta message set_tempo tempo=403606 time=40>
note_on channel=0 note=73 velocity=0 time=0
note_on channel=0 note=66 velocity=52 time=0
note_on channel=0 note=54 velocity=0 time=80
note_on channel=0 note=57 velocity=38 time=0
note_on channel=0 note=66 velocity=0 time=40
note_on channel=0 note=69 velocity=53 time=0
note_on channel=0 note=69 velocity=0 time=120
note_on channel=0 note=57 velocity=0 time=0
note_on channel=0 note=63 velocity=55 time=0
note_on channel=0 note=59 velocity=39 time=0
note_on channel=0 note=63 velocity=0 time=120
note_on channel=0 note=75 velocity=62 time=0
note_on channel=0 note=59 velocity=0 time=40
note_on channel=0 note=57 velocity=38 time=0
note_on channel=0 note=75 velocity=0 time=80
note_on channel=0 note=66 velocity=54 time=0
<meta message set_tempo tempo=402334 time=80>
note_on channel=0 note=57 velocity=0 time=0
note_on channel=0 note=54 velocity=38 time=0
note_on channel=0 note=66 velocity=0 time=40
note_on channel=0 note=69 velocity=54 time=0
note_on channel=0 note=69 velocity=0 time=120
note_on channel=0 note=54 velocity=0 time=0
note_on channel=0 note=64 velocity=57 time=0
note_on channel=0 note=40 velocity=37 time=0
control_change channel=0 control=64 value=0 time=14
<meta message set_tempo tempo=403606 time=26>
control_change channel=0 control=64 value=127 time=52
note_on channel=0 note=64 velocity=0 time=28
note_on channel=0 note=76 velocity=65 time=0
note_on channel=0 note=40 velocity=0 time=40
note_on channel=0 note=47 velocity=39 time=0
<meta message set_tempo tempo=404913 time=40>
note_on channel=0 note=76 velocity=0 time=40
note_on channel=0 note=68 velocity=56 time=0
note_on channel=0 note=47 velocity=0 time=80
note_on channel=0 note=52 velocity=40 time=0
<meta message set_tempo tempo=406201 time=40>
note_on channel=0 note=68 velocity=0 time=0
note_on channel=0 note=71 velocity=56 time=0
note_on channel=0 note=71 velocity=0 time=120
note_on channel=0 note=52 velocity=0 time=0
note_on channel=0 note=68 velocity=60 time=0
note_on channel=0 note=56 velocity=40 time=0
<meta message set_tempo tempo=407498 time=40>
<meta message set_tempo tempo=408803 time=80>
note_on channel=0 note=68 velocity=0 time=0
note_on channel=0 note=80 velocity=68 time=0
<meta message set_tempo tempo=410144 time=40>
note_on channel=0 note=56 velocity=0 time=0
note_on channel=0 note=52 velocity=40 time=0
<meta message set_tempo tempo=411466 time=40>
<meta message set_tempo tempo=412825 time=40>
note_on channel=0 note=80 velocity=0 time=0
note_on channel=0 note=71 velocity=57 time=0
<meta message set_tempo tempo=414164 time=40>
<meta message set_tempo tempo=415512 time=40>
note_on channel=0 note=52 velocity=0 time=0
note_on channel=0 note=47 velocity=39 time=0
note_on channel=0 note=71 velocity=0 time=40
note_on channel=0 note=76 velocity=58 time=0
<meta message set_tempo tempo=410144 time=40>
note_on channel=0 note=76 velocity=0 time=80
note_on channel=0 note=47 velocity=0 time=0
note_on channel=0 note=68 velocity=62 time=0
note_on channel=0 note=45 velocity=39 time=0
control_change channel=0 control=64 value=0 time=8
<meta message set_tempo tempo=408803 time=72>
control_change channel=0 control=64 value=127 time=11
note_on channel=0 note=68 velocity=0 time=29
note_on channel=0 note=80 velocity=68 time=0
note_on channel=0 note=45 velocity=0 time=40
note_on channel=0 note=49 velocity=42 time=0
<meta message set_tempo tempo=407498 time=40>
note_on channel=0 note=80 velocity=0 time=40
note_on channel=0 note=72 velocity=59 time=0
<meta message set_tempo tempo=406201 time=80>
note_on channel=0 note=49 velocity=0 time=0
note_on channel=0 note=54 velocity=43 time=0
note_on channel=0 note=72 velocity=0 time=40
note_on channel=0 note=73 velocity=59 time=0
<meta message set_tempo tempo=404913 time=120>
note_on channel=0 note=73 velocity=0 time=0
note_on channel=0 note=54 velocity=0 time=0
note_on channel=0 note=66 velocity=62 time=0
note_on channel=0 note=57 velocity=45 time=0
<meta message set_tempo tempo=403606 time=120>
note_on channel=0 note=66 velocity=0 time=0
note_on channel=0 note=78 velocity=70 time=0
note_on channel=0 note=57 velocity=0 time=40
note_on channel=0 note=54 velocity=43 time=0
<meta message set_tempo tempo=402334 time=80>
note_on channel=0 note=78 velocity=0 time=0
note_on channel=0 note=72 velocity=61 time=0
note_on channel=0 note=54 velocity=0 time=80
note_on channel=0 note=49 velocity=42 time=0
<meta message set_tempo tempo=401043 time=40>
note_on channel=0 note=72 velocity=0 time=0
note_on channel=0 note=73 velocity=61 time=0
note_on channel=0 note=73 velocity=0 time=120
note_on channel=0 note=49 velocity=0 time=0
note_on channel=0 note=75 velocity=64 time=0
note_on channel=0 note=45 velocity=42 time=0
control_change channel=0 control=64 value=0 time=14
<meta message set_tempo tempo=403606 time=26>
control_change channel=0 control=64 value=127 time=52
note_on channel=0 note=75 velocity=0 time=28
note_on channel=0 note=87 velocity=73 time=0
note_on channel=0 note=45 velocity=0 time=40
note_on channel=0 note=51 velocity=44 time=0
<meta message set_tempo tempo=404913 time=40>
note_on channel=0 note=87 velocity=0 time=40
note_on channel=0 note=78 velocity=62 time=0
note_on channel=0 note=51 velocity=0 time=80
note_on channel=0 note=54 velocity=45 time=0
<meta message set_tempo tempo=406201 time=40>
note_on channel=0 note=78 velocity=0 time=0
note_on channel=0 note=81 velocity=62 time=0
note_on channel=0 note=81 velocity=0 time=120
note_on channel=0 note=54 velocity=0 time=0
note_on channel=0 note=73 velocity=66 time=0
note_on channel=0 note=57 velocity=44 time=0
<meta message set_tempo tempo=407498 time=40>
<meta message set_tempo tempo=408803 time=80>
note_on channel=0 note=73 velocity=0 time=0
note_on channel=0 note=85 velocity=74 time=0
<meta message set_tempo tempo=410144 time=40>
note_on channel=0 note=57 velocity=0 time=0
note_on channel=0 note=54 velocity=44 time=0
<meta message set_tempo tempo=411466 time=40>
<meta message set_tempo tempo=412825 time=40>
note_on channel=0 note=85 velocity=0 time=0
note_on channel=0 note=78 velocity=62 time=0
<meta message set_tempo tempo=414164 time=40>
<meta message set_tempo tempo=415512 time=40>
note_on channel=0 note=54 velocity=0 time=0
note_on channel=0 note=51 velocity=42 time=0
note_on channel=0 note=78 velocity=0 time=40
note_on channel=0 note=81 velocity=62 time=0
<meta message set_tempo tempo=410144 time=80>
note_on channel=0 note=81 velocity=0 time=40
note_on channel=0 note=51 velocity=0 time=0
note_on channel=0 note=73 velocity=64 time=0
note_on channel=0 note=44 velocity=42 time=0
control_change channel=0 control=64 value=0 time=14
control_change channel=0 control=64 value=127 time=78
<meta message set_tempo tempo=408803 time=28>
note_on channel=0 note=73 velocity=0 time=0
note_on channel=0 note=85 velocity=73 time=0
note_on channel=0 note=44 velocity=0 time=40
note_on channel=0 note=51 velocity=44 time=0
note_on channel=0 note=85 velocity=0 time=80
note_on channel=0 note=75 velocity=61 time=0
<meta message set_tempo tempo=407498 time=40>
note_on channel=0 note=51 velocity=0 time=40
note_on channel=0 note=54 velocity=45 time=0
note_on channel=0 note=75 velocity=0 time=40
note_on channel=0 note=78 velocity=61 time=0
<meta message set_tempo tempo=406201 time=80>
note_on channel=0 note=78 velocity=0 time=40
note_on channel=0 note=54 velocity=0 time=0
note_on channel=0 note=72 velocity=64 time=0
note_on channel=0 note=60 velocity=42 time=0
control_change channel=0 control=64 value=0 time=9
control_change channel=0 control=64 value=127 time=48
<meta message set_tempo tempo=404913 time=23>
note_on channel=0 note=72 velocity=0 time=40
note_on channel=0 note=84 velocity=71 time=0
note_on channel=0 note=60 velocity=0 time=40
note_on channel=0 note=54 velocity=42 time=0
<meta message set_tempo tempo=403606 time=80>
note_on channel=0 note=84 velocity=0 time=0
note_on channel=0 note=75 velocity=60 time=0
note_on channel=0 note=54 velocity=0 time=80
note_on channel=0 note=51 velocity=40 time=0
note_on channel=0 note=75 velocity=0 time=40
note_on channel=0 note=78 velocity=59 time=0
<meta message set_tempo tempo=402334 time=40>
<meta message set_tempo tempo=401043 time=80>
note_on channel=0 note=78 velocity=0 time=0
note_on channel=0 note=51 velocity=0 time=0
note_on channel=0 note=72 velocity=60 time=0
note_on channel=0 note=44 velocity=39 time=0
<meta message set_tempo tempo=402334 time=120>
note_on channel=0 note=72 velocity=0 time=0
note_on channel=0 note=84 velocity=69 time=0
note_on channel=0 note=44 velocity=0 time=40
note_on channel=0 note=51 velocity=41 time=0
<meta message set_tempo tempo=403606 time=80>
note_on channel=0 note=84 velocity=0 time=0
note_on channel=0 note=75 velocity=58 time=0
note_on channel=0 note=51 velocity=0 time=80
note_on channel=0 note=54 velocity=42 time=0
<meta message set_tempo tempo=404913 time=40>
note_on channel=0 note=75 velocity=0 time=0
note_on channel=0 note=78 velocity=58 time=0
<meta message set_tempo tempo=406201 time=120>
note_on channel=0 note=78 velocity=0 time=0
note_on channel=0 note=54 velocity=0 time=0
note_on channel=0 note=72 velocity=61 time=0
note_on channel=0 note=60 velocity=40 time=0
<meta message set_tempo tempo=407498 time=120>
note_on channel=0 note=72 velocity=0 time=0
note_on channel=0 note=84 velocity=68 time=0
note_on channel=0 note=60 velocity=0 time=40
note_on channel=0 note=54 velocity=39 time=0
<meta message set_tempo tempo=408803 time=80>
note_on channel=0 note=84 velocity=0 time=0
note_on channel=0 note=75 velocity=57 time=0
note_on channel=0 note=54 velocity=0 time=80
note_on channel=0 note=51 velocity=38 time=0
<meta message set_tempo tempo=410144 time=40>
note_on channel=0 note=75 velocity=0 time=0
note_on channel=0 note=78 velocity=56 time=0
<meta message set_tempo tempo=412825 time=120>
note_on channel=0 note=78 velocity=0 time=0
note_on channel=0 note=51 velocity=0 time=0
note_on channel=0 note=72 velocity=57 time=0
note_on channel=0 note=45 velocity=38 time=0
control_change channel=0 control=64 value=0 time=14
<meta message set_tempo tempo=411466 time=26>
<meta message set_tempo tempo=410144 time=40>
control_change channel=0 control=64 value=127 time=12
<meta message set_tempo tempo=408803 time=8>
<meta message set_tempo tempo=408803 time=20>
note_on channel=0 note=72 velocity=0 time=0
note_on channel=0 note=84 velocity=65 time=0
note_on channel=0 note=45 velocity=0 time=40
note_on channel=0 note=51 velocity=39 time=0
note_on channel=0 note=84 velocity=0 time=80
note_on channel=0 note=75 velocity=55 time=0
<meta message set_tempo tempo=407498 time=40>
note_on channel=0 note=51 velocity=0 time=40
note_on channel=0 note=54 velocity=40 time=0
note_on channel=0 note=75 velocity=0 time=40
note_on channel=0 note=78 velocity=55 time=0
<meta message set_tempo tempo=406201 time=80>
note_on channel=0 note=78 velocity=0 time=40
note_on channel=0 note=54 velocity=0 time=0
note_on channel=0 note=71 velocity=58 time=0
note_on channel=0 note=59 velocity=38 time=0
control_change channel=0 control=64 value=0 time=7
control_change channel=0 control=64 value=127 time=50
<meta message set_tempo tempo=404913 time=23>
note_on channel=0 note=71 velocity=0 time=40
note_on channel=0 note=83 velocity=64 time=0
note_on channel=0 note=59 velocity=0 time=40
note_on channel=0 note=54 velocity=38 time=0
<meta message set_tempo tempo=403606 time=80>
note_on channel=0 note=83 velocity=0 time=0
note_on channel=0 note=75 velocity=53 time=0
note_on channel=0 note=54 velocity=0 time=80
note_on channel=0 note=51 velocity=36 time=0
note_on channel=0 note=75 velocity=0 time=40
note_on channel=0 note=78 velocity=53 time=0
<meta message set_tempo tempo=402334 time=40>
<meta message set_tempo tempo=401043 time=80>
note_on channel=0 note=78 velocity=0 time=0
note_on channel=0 note=51 velocity=0 time=0
note_on channel=0 note=71 velocity=54 time=0
note_on channel=0 note=46 velocity=35 time=0
control_change channel=0 control=64 value=0 time=10
control_change channel=0 control=64 value=127 time=47
<meta message set_tempo tempo=402334 time=63>
note_on channel=0 note=71 velocity=0 time=0
note_on channel=0 note=83 velocity=62 time=0
note_on channel=0 note=46 velocity=0 time=40
note_on channel=0 note=51 velocity=37 time=0
<meta message set_tempo tempo=403606 time=80>
note_on channel=0 note=83 velocity=0 time=0
note_on channel=0 note=75 velocity=52 time=0
note_on channel=0 note=51 velocity=0 time=80
note_on channel=0 note=54 velocity=38 time=0
<meta message set_tempo tempo=404913 time=40>
note_on channel=0 note=75 velocity=0 time=0
note_on channel=0 note=78 velocity=52 time=0
<meta message set_tempo tempo=406201 time=120>
note_on channel=0 note=78 velocity=0 time=0
note_on channel=0 note=54 velocity=0 time=0
note_on channel=0 note=70 velocity=54 time=0
note_on channel=0 note=58 velocity=36 time=0
control_change channel=0 control=64 value=0 time=16
control_change channel=0 control=64 value=127 time=43
<meta message set_tempo tempo=407498 time=61>
note_on channel=0 note=70 velocity=0 time=0
note_on channel=0 note=82 velocity=60 time=0
note_on channel=0 note=58 velocity=0 time=40
note_on channel=0 note=54 velocity=35 time=0
<meta message set_tempo tempo=408803 time=80>
note_on channel=0 note=82 velocity=0 time=0
note_on channel=0 note=75 velocity=50 time=0
note_on channel=0 note=54 velocity=0 time=80
note_on channel=0 note=51 velocity=34 time=0
<meta message set_tempo tempo=410144 time=40>
note_on channel=0 note=75 velocity=0 time=0
note_on channel=0 note=78 velocity=50 time=0
<meta message set_tempo tempo=415512 time=120>
note_on channel=0 note=78 velocity=0 time=0
note_on channel=0 note=51 velocity=0 time=0
note_on channel=0 note=70 velocity=55 time=0
note_on channel=0 note=48 velocity=34 time=0
control_change channel=0 control=64 value=0 time=14
<meta message set_tempo tempo=414164 time=6>
<meta message set_tempo tempo=412825 time=20>
<meta message set_tempo tempo=411466 time=20>
control_change channel=0 control=64 value=127 time=9
<meta message set_tempo tempo=410144 time=11>
<meta message set_tempo tempo=408803 time=20>
<meta message set_tempo tempo=408803 time=20>
note_on channel=0 note=70 velocity=0 time=0
note_on channel=0 note=82 velocity=49 time=6
note_on channel=0 note=48 velocity=0 time=34
note_on channel=0 note=51 velocity=34 time=0
note_on channel=0 note=75 velocity=48 time=80
note_on channel=0 note=82 velocity=0 time=6
<meta message set_tempo tempo=407498 time=34>
note_on channel=0 note=51 velocity=0 time=40
note_on channel=0 note=54 velocity=35 time=0
note_on channel=0 note=75 velocity=0 time=40
note_on channel=0 note=78 velocity=48 time=0
<meta message set_tempo tempo=406201 time=80>
note_on channel=0 note=78 velocity=0 time=40
note_on channel=0 note=54 velocity=0 time=0
note_on channel=0 note=69 velocity=53 time=0
note_on channel=0 note=57 velocity=34 time=0
control_change channel=0 control=64 value=0 time=6
control_change channel=0 control=64 value=127 time=51
<meta message set_tempo tempo=404913 time=23>
note_on channel=0 note=69 velocity=0 time=40
note_on channel=0 note=81 velocity=48 time=6
note_on channel=0 note=57 velocity=0 time=34
note_on channel=0 note=54 velocity=34 time=0
<meta message set_tempo tempo=403606 time=80>
note_on channel=0 note=75 velocity=47 time=0
note_on channel=0 note=81 velocity=0 time=6
note_on channel=0 note=54 velocity=0 time=74
note_on channel=0 note=51 velocity=32 time=0
note_on channel=0 note=75 velocity=0 time=40
note_on channel=0 note=78 velocity=47 time=0
<meta message set_tempo tempo=402334 time=40>
<meta message set_tempo tempo=401043 time=80>
note_on channel=0 note=78 velocity=0 time=0
note_on channel=0 note=51 velocity=0 time=0
note_on channel=0 note=69 velocity=52 time=0
note_on channel=0 note=48 velocity=31 time=0
<meta message set_tempo tempo=402334 time=120>
note_on channel=0 note=69 velocity=0 time=0
note_on channel=0 note=81 velocity=49 time=0
note_on channel=0 note=48 velocity=0 time=40
note_on channel=0 note=51 velocity=33 time=0
<meta message set_tempo tempo=403606 time=80>
note_on channel=0 note=81 velocity=0 time=0
note_on channel=0 note=75 velocity=45 time=0
note_on channel=0 note=51 velocity=0 time=80
note_on channel=0 note=54 velocity=33 time=0
<meta message set_tempo tempo=404913 time=40>
note_on channel=0 note=75 velocity=0 time=0
note_on channel=0 note=78 velocity=45 time=0
<meta message set_tempo tempo=404313 time=80>
<meta message set_tempo tempo=405625 time=40>
note_on channel=0 note=78 velocity=0 time=0
note_on channel=0 note=54 velocity=0 time=0
note_on channel=0 note=69 velocity=51 time=0
note_on channel=0 note=57 velocity=31 time=0
<meta message set_tempo tempo=408302 time=40>
<meta message set_tempo tempo=411015 time=40>
<meta message set_tempo tempo=413765 time=40>
note_on channel=0 note=69 velocity=0 time=0
note_on channel=0 note=81 velocity=47 time=0
<meta message set_tempo tempo=415167 time=40>
note_on channel=0 note=57 velocity=0 time=0
note_on channel=0 note=54 velocity=31 time=0
<meta message set_tempo tempo=417973 time=40>
<meta message set_tempo tempo=420816 time=40>
note_on channel=0 note=81 velocity=0 time=0
note_on channel=0 note=75 velocity=44 time=0
<meta message set_tempo tempo=423699 time=40>
<meta message set_tempo tempo=426621 time=40>
note_on channel=0 note=54 velocity=0 time=0
note_on channel=0 note=51 velocity=29 time=0
<meta message set_tempo tempo=428113 time=40>
note_on channel=0 note=75 velocity=0 time=0
note_on channel=0 note=78 velocity=44 time=0
<meta message set_tempo tempo=431096 time=40>
<meta message set_tempo tempo=434122 time=40>
<meta message set_tempo tempo=434122 time=40>
note_on channel=0 note=78 velocity=0 time=0
note_on channel=0 note=51 velocity=0 time=0
note_on channel=0 note=72 velocity=52 time=0
note_on channel=0 note=45 velocity=28 time=0
control_change channel=0 control=64 value=0 time=14
<meta message set_tempo tempo=432588 time=66>
control_change channel=0 control=64 value=127 time=12
note_on channel=0 note=72 velocity=0 time=28
note_on channel=0 note=84 velocity=47 time=6
<meta message set_tempo tempo=431096 time=34>
note_on channel=0 note=45 velocity=0 time=0
note_on channel=0 note=51 velocity=29 time=0
<meta message set_tempo tempo=429584 time=80>
note_on channel=0 note=75 velocity=46 time=0
note_on channel=0 note=84 velocity=0 time=6
<meta message set_tempo tempo=428113 time=74>
note_on channel=0 note=51 velocity=0 time=0
note_on channel=0 note=54 velocity=29 time=0
note_on channel=0 note=75 velocity=0 time=40
note_on channel=0 note=78 velocity=46 time=0
<meta message set_tempo tempo=426621 time=40>
<meta message set_tempo tempo=425170 time=80>
note_on channel=0 note=78 velocity=0 time=0
note_on channel=0 note=54 velocity=0 time=0
note_on channel=0 note=71 velocity=49 time=0
note_on channel=0 note=59 velocity=31 time=0
control_change channel=0 control=64 value=0 time=7
control_change channel=0 control=64 value=127 time=50
<meta message set_tempo tempo=423699 time=23>
note_on channel=0 note=71 velocity=0 time=40
note_on channel=0 note=83 velocity=44 time=0
<meta message set_tempo tempo=422268 time=40>
note_on channel=0 note=59 velocity=0 time=0
note_on channel=0 note=54 velocity=29 time=0
<meta message set_tempo tempo=420816 time=80>
note_on channel=0 note=83 velocity=0 time=0
note_on channel=0 note=75 velocity=44 time=0
<meta message set_tempo tempo=419404 time=80>
note_on channel=0 note=54 velocity=0 time=0
note_on channel=0 note=51 velocity=28 time=0
note_on channel=0 note=75 velocity=0 time=40
note_on channel=0 note=78 velocity=44 time=0
<meta message set_tempo tempo=417973 time=40>
<meta message set_tempo tempo=416580 time=80>
note_on channel=0 note=78 velocity=0 time=0
note_on channel=0 note=51 velocity=0 time=0
note_on channel=0 note=71 velocity=48 time=0
note_on channel=0 note=46 velocity=25 time=0
control_change channel=0 control=64 value=0 time=10
control_change channel=0 control=64 value=127 time=47
<meta message set_tempo tempo=417973 time=23>
note_on channel=0 note=71 velocity=0 time=40
note_on channel=0 note=83 velocity=45 time=0
<meta message set_tempo tempo=419404 time=40>
note_on channel=0 note=46 velocity=0 time=0
note_on channel=0 note=51 velocity=26 time=0
<meta message set_tempo tempo=420816 time=80>
note_on channel=0 note=83 velocity=0 time=0
note_on channel=0 note=75 velocity=42 time=0
<meta message set_tempo tempo=422268 time=40>
note_on channel=0 note=51 velocity=0 time=40
note_on channel=0 note=54 velocity=27 time=0
<meta message set_tempo tempo=423699 time=40>
note_on channel=0 note=75 velocity=0 time=0
note_on channel=0 note=78 velocity=42 time=0
<meta message set_tempo tempo=425170 time=80>
<meta message set_tempo tempo=426621 time=40>
note_on channel=0 note=78 velocity=0 time=0
note_on channel=0 note=54 velocity=0 time=0
note_on channel=0 note=70 velocity=47 time=0
note_on channel=0 note=58 velocity=28 time=0
control_change channel=0 control=64 value=0 time=14
<meta message set_tempo tempo=428113 time=66>
control_change channel=0 control=64 value=127 time=12
note_on channel=0 note=70 velocity=0 time=28
note_on channel=0 note=82 velocity=43 time=0
<meta message set_tempo tempo=429584 time=40>
note_on channel=0 note=58 velocity=0 time=0
note_on channel=0 note=54 velocity=27 time=0
<meta message set_tempo tempo=431096 time=40>
note_on channel=0 note=82 velocity=0 time=40
note_on channel=0 note=75 velocity=40 time=0
<meta message set_tempo tempo=432588 time=40>
note_on channel=0 note=54 velocity=0 time=40
note_on channel=0 note=51 velocity=25 time=0
<meta message set_tempo tempo=434122 time=40>
note_on channel=0 note=75 velocity=0 time=0
note_on channel=0 note=78 velocity=40 time=0
<meta message set_tempo tempo=440302 time=40>
note_on channel=0 note=78 velocity=0 time=80
note_on channel=0 note=51 velocity=0 time=0
note_on channel=0 note=70 velocity=46 time=0
note_on channel=0 note=47 velocity=24 time=0
control_change channel=0 control=64 value=0 time=14
<meta message set_tempo tempo=438725 time=26>
control_change channel=0 control=64 value=127 time=23
note_on channel=0 note=70 velocity=0 time=57
note_on channel=0 note=82 velocity=42 time=0
<meta message set_tempo tempo=437190 time=40>
note_on channel=0 note=47 velocity=0 time=0
note_on channel=0 note=51 velocity=26 time=0
note_on channel=0 note=82 velocity=0 time=80
note_on channel=0 note=75 velocity=41 time=0
<meta message set_tempo tempo=435635 time=40>
note_on channel=0 note=51 velocity=0 time=40
note_on channel=0 note=54 velocity=27 time=0
note_on channel=0 note=75 velocity=0 time=40
note_on channel=0 note=78 velocity=41 time=0
<meta message set_tempo tempo=434122 time=40>
note_on channel=0 note=78 velocity=0 time=80
note_on channel=0 note=54 velocity=0 time=0
note_on channel=0 note=69 velocity=44 time=0
note_on channel=0 note=57 velocity=28 time=0
control_change channel=0 control=64 value=0 time=6
<meta message set_tempo tempo=432588 time=34>
control_change channel=0 control=64 value=127 time=17
note_on channel=0 note=69 velocity=0 time=63
note_on channel=0 note=81 velocity=40 time=0
<meta message set_tempo tempo=431096 time=40>
note_on channel=0 note=57 velocity=0 time=0
note_on channel=0 note=54 velocity=27 time=0
note_on channel=0 note=81 velocity=0 time=80
note_on channel=0 note=75 velocity=40 time=0
<meta message set_tempo tempo=429584 time=40>
note_on channel=0 note=54 velocity=0 time=40
note_on channel=0 note=51 velocity=25 time=0
note_on channel=0 note=75 velocity=0 time=40
note_on channel=0 note=78 velocity=39 time=0
<meta message set_tempo tempo=428113 time=40>
<meta message set_tempo tempo=426621 time=80>
note_on channel=0 note=78 velocity=0 time=0
note_on channel=0 note=51 velocity=0 time=0
note_on channel=0 note=69 velocity=43 time=0
note_on channel=0 note=48 velocity=22 time=0
control_change channel=0 control=64 value=0 time=10
<meta message set_tempo tempo=428113 time=30>
control_change channel=0 control=64 value=127 time=17
<meta message set_tempo tempo=431096 time=23>
<meta message set_tempo tempo=432588 time=40>
note_on channel=0 note=69 velocity=0 time=0
note_on channel=0 note=81 velocity=40 time=0
<meta message set_tempo tempo=435635 time=40>
note_on channel=0 note=48 velocity=0 time=0
note_on channel=0 note=51 velocity=23 time=0
<meta message set_tempo tempo=438725 time=40>
<meta message set_tempo tempo=440302 time=40>
note_on channel=0 note=81 velocity=0 time=0
note_on channel=0 note=75 velocity=37 time=0
<meta message set_tempo tempo=443459 time=40>
<meta message set_tempo tempo=446661 time=40>
note_on channel=0 note=51 velocity=0 time=0
note_on channel=0 note=54 velocity=24 time=0
<meta message set_tempo tempo=448263 time=40>
note_on channel=0 note=75 velocity=0 time=0
note_on channel=0 note=78 velocity=37 time=0
<meta message set_tempo tempo=451535 time=40>
<meta message set_tempo tempo=454856 time=40>
<meta message set_tempo tempo=456552 time=40>
note_on channel=0 note=78 velocity=0 time=0
note_on channel=0 note=54 velocity=0 time=0
note_on channel=0 note=68 velocity=42 time=0
note_on channel=0 note=56 velocity=24 time=0
control_change channel=0 control=64 value=0 time=14
<meta message set_tempo tempo=459946 time=26>
<meta message set_tempo tempo=461645 time=40>
control_change channel=0 control=64 value=127 time=6
<meta message set_tempo tempo=465116 time=34>
note_on channel=0 note=68 velocity=0 time=0
note_on channel=0 note=80 velocity=38 time=0
<meta message set_tempo tempo=468640 time=40>
note_on channel=0 note=56 velocity=0 time=0
note_on channel=0 note=54 velocity=23 time=0
<meta message set_tempo tempo=470441 time=40>
<meta message set_tempo tempo=474046 time=40>
note_on channel=0 note=80 velocity=0 time=0
note_on channel=0 note=75 velocity=36 time=0
<meta message set_tempo tempo=477707 time=40>
<meta message set_tempo tempo=479578 time=40>
note_on channel=0 note=54 velocity=0 time=0
note_on channel=0 note=51 velocity=22 time=0
<meta message set_tempo tempo=483325 time=40>
note_on channel=0 note=75 velocity=0 time=0
note_on channel=0 note=78 velocity=35 time=0
<meta message set_tempo tempo=487132 time=40>
<meta message set_tempo tempo=408302 time=80>
note_on channel=0 note=78 velocity=0 time=0
note_on channel=0 note=51 velocity=0 time=0
note_on channel=0 note=49 velocity=22 time=0
control_change channel=0 control=64 value=0 time=10
control_change channel=0 control=64 value=127 time=53
<meta message set_tempo tempo=355492 time=57>
note_on channel=0 note=68 velocity=37 time=0
<meta message set_tempo tempo=353982 time=40>
note_on channel=0 note=49 velocity=0 time=0
note_on channel=0 note=56 velocity=25 time=0
<meta message set_tempo tempo=351906 time=40>
<meta message set_tempo tempo=350877 time=40>
note_on channel=0 note=68 velocity=0 time=0
note_on channel=0 note=69 velocity=41 time=0
note_on channel=0 note=56 velocity=0 time=80
note_on channel=0 note=61 velocity=28 time=0
note_on channel=0 note=69 velocity=0 time=40
note_on channel=0 note=68 velocity=38 time=0
<meta message set_tempo tempo=351906 time=80>
<meta message set_tempo tempo=353982 time=40>
note_on channel=0 note=68 velocity=0 time=0
note_on channel=0 note=61 velocity=0 time=0
note_on channel=0 note=67 velocity=39 time=0
note_on channel=0 note=64 velocity=30 time=0
<meta message set_tempo tempo=355030 time=40>
<meta message set_tempo tempo=352941 time=40>
<meta message set_tempo tempo=350877 time=40>
note_on channel=0 note=67 velocity=0 time=0
note_on channel=0 note=68 velocity=40 time=0
<meta message set_tempo tempo=349854 time=40>
note_on channel=0 note=64 velocity=0 time=0
note_on channel=0 note=61 velocity=28 time=0
note_on channel=0 note=68 velocity=0 time=80
note_on channel=0 note=73 velocity=42 time=0
<meta message set_tempo tempo=351906 time=80>
note_on channel=0 note=61 velocity=0 time=0
note_on channel=0 note=56 velocity=27 time=0
<meta message set_tempo tempo=352941 time=40>
note_on channel=0 note=73 velocity=0 time=0
note_on channel=0 note=76 velocity=43 time=0
<meta message set_tempo tempo=353982 time=40>
<meta message set_tempo tempo=351906 time=80>
note_on channel=0 note=76 velocity=0 time=0
note_on channel=0 note=56 velocity=0 time=0
note_on channel=0 note=75 velocity=45 time=0
note_on channel=0 note=52 velocity=26 time=0
control_change channel=0 control=64 value=0 time=17
<meta message set_tempo tempo=350877 time=23>
<meta message set_tempo tempo=348837 time=40>
note_on channel=0 note=75 velocity=0 time=40
note_on channel=0 note=73 velocity=43 time=0
<meta message set_tempo tempo=349854 time=40>
note_on channel=0 note=52 velocity=0 time=0
note_on channel=0 note=56 velocity=28 time=0
<meta message set_tempo tempo=351906 time=40>
<meta message set_tempo tempo=352941 time=40>
note_on channel=0 note=73 velocity=0 time=0
note_on channel=0 note=75 velocity=45 time=0
<meta message set_tempo tempo=353982 time=40>
<meta message set_tempo tempo=356083 time=40>
note_on channel=0 note=56 velocity=0 time=0
note_on channel=0 note=61 velocity=30 time=0
<meta message set_tempo tempo=353982 time=40>
note_on channel=0 note=75 velocity=0 time=0
note_on channel=0 note=73 velocity=43 time=0
<meta message set_tempo tempo=351906 time=40>
<meta message set_tempo tempo=350877 time=40>
note_on channel=0 note=73 velocity=0 time=40
note_on channel=0 note=61 velocity=0 time=0
note_on channel=0 note=72 velocity=44 time=0
note_on channel=0 note=64 velocity=31 time=0
<meta message set_tempo tempo=352941 time=80>
<meta message set_tempo tempo=353982 time=40>
note_on channel=0 note=72 velocity=0 time=0
note_on channel=0 note=73 velocity=46 time=0
note_on channel=0 note=64 velocity=0 time=40
note_on channel=0 note=61 velocity=28 time=0
<meta message set_tempo tempo=352941 time=40>
<meta message set_tempo tempo=351906 time=40>
note_on channel=0 note=73 velocity=0 time=0
note_on channel=0 note=76 velocity=49 time=0
note_on channel=0 note=61 velocity=0 time=80
note_on channel=0 note=56 velocity=27 time=0
<meta message set_tempo tempo=438725 time=40>
note_on channel=0 note=76 velocity=0 time=0
note_on channel=0 note=80 velocity=47 time=0
<meta message set_tempo tempo=402982 time=120>
note_on channel=0 note=80 velocity=0 time=0
note_on channel=0 note=56 velocity=0 time=0
note_on channel=0 note=49 velocity=27 time=0
control_change channel=0 control=64 value=0 time=8
control_change channel=0 control=64 value=127 time=55
<meta message set_tempo tempo=353982 time=57>
note_on channel=0 note=68 velocity=45 time=0
note_on channel=0 note=49 velocity=0 time=40
note_on channel=0 note=56 velocity=30 time=0
note_on channel=0 note=68 velocity=0 time=80
note_on channel=0 note=69 velocity=49 time=0
note_on channel=0 note=56 velocity=0 time=80
note_on channel=0 note=61 velocity=34 time=0
<meta message set_tempo tempo=351906 time=40>
note_on channel=0 note=69 velocity=0 time=0
note_on channel=0 note=68 velocity=45 time=0
<meta message set_tempo tempo=352941 time=80>
<meta message set_tempo tempo=355030 time=40>
note_on channel=0 note=68 velocity=0 time=0
note_on channel=0 note=61 velocity=0 time=0
note_on channel=0 note=67 velocity=46 time=0
note_on channel=0 note=64 velocity=36 time=0
<meta message set_tempo tempo=356083 time=40>
<meta message set_tempo tempo=355030 time=80>
note_on channel=0 note=67 velocity=0 time=0
note_on channel=0 note=68 velocity=48 time=0
<meta message set_tempo tempo=353982 time=40>
note_on channel=0 note=64 velocity=0 time=0
note_on channel=0 note=61 velocity=34 time=0
<meta message set_tempo tempo=352941 time=40>
note_on channel=0 note=68 velocity=0 time=40
note_on channel=0 note=73 velocity=50 time=0
<meta message set_tempo tempo=353982 time=80>
note_on channel=0 note=61 velocity=0 time=0
note_on channel=0 note=56 velocity=33 time=0
note_on channel=0 note=73 velocity=0 time=40
note_on channel=0 note=76 velocity=51 time=0
<meta message set_tempo tempo=351906 time=80>
<meta message set_tempo tempo=350877 time=40>
note_on channel=0 note=76 velocity=0 time=0
note_on channel=0 note=56 velocity=0 time=0
note_on channel=0 note=75 velocity=54 time=0
note_on channel=0 note=52 velocity=31 time=0
control_change channel=0 control=64 value=0 time=17
<meta message set_tempo tempo=351906 time=23>
<meta message set_tempo tempo=352941 time=40>
<meta message set_tempo tempo=353982 time=40>
note_on channel=0 note=75 velocity=0 time=0
note_on channel=0 note=73 velocity=51 time=0
note_on channel=0 note=52 velocity=0 time=40
note_on channel=0 note=56 velocity=33 time=0
<meta message set_tempo tempo=351906 time=40>
<meta message set_tempo tempo=350877 time=40>
note_on channel=0 note=73 velocity=0 time=0
note_on channel=0 note=75 velocity=53 time=0
<meta message set_tempo tempo=352941 time=80>
note_on channel=0 note=56 velocity=0 time=0
note_on channel=0 note=61 velocity=36 time=0
<meta message set_tempo tempo=355030 time=40>
note_on channel=0 note=75 velocity=0 time=0
note_on channel=0 note=73 velocity=51 time=0
<meta message set_tempo tempo=353982 time=80>
<meta message set_tempo tempo=351906 time=40>
note_on channel=0 note=73 velocity=0 time=0
note_on channel=0 note=61 velocity=0 time=0
note_on channel=0 note=72 velocity=52 time=0
note_on channel=0 note=64 velocity=37 time=0
<meta message set_tempo tempo=350877 time=80>
note_on channel=0 note=72 velocity=0 time=40
note_on channel=0 note=73 velocity=54 time=0
<meta message set_tempo tempo=352941 time=40>
note_on channel=0 note=64 velocity=0 time=0
note_on channel=0 note=61 velocity=34 time=0
note_on channel=0 note=73 velocity=0 time=80
note_on channel=0 note=76 velocity=57 time=0
note_on channel=0 note=61 velocity=0 time=80
note_on channel=0 note=56 velocity=32 time=0
<meta message set_tempo tempo=429584 time=40>
note_on channel=0 note=76 velocity=0 time=0
note_on channel=0 note=80 velocity=55 time=0
<meta message set_tempo tempo=402982 time=120>
note_on channel=0 note=80 velocity=0 time=0
note_on channel=0 note=56 velocity=0 time=0
note_on channel=0 note=51 velocity=31 time=0
control_change channel=0 control=64 value=0 time=6
control_change channel=0 control=64 value=127 time=57
<meta message set_tempo tempo=361685 time=57>
note_on channel=0 note=69 velocity=56 time=0
note_on channel=0 note=51 velocity=0 time=40
note_on channel=0 note=57 velocity=35 time=0
<meta message set_tempo tempo=360577 time=40>
<meta message set_tempo tempo=359454 time=40>
note_on channel=0 note=69 velocity=0 time=0
note_on channel=0 note=73 velocity=57 time=0
<meta message set_tempo tempo=358359 time=80>
note_on channel=0 note=57 velocity=0 time=0
note_on channel=0 note=61 velocity=39 time=0
<meta message set_tempo tempo=357249 time=40>
note_on channel=0 note=73 velocity=0 time=0
note_on channel=0 note=75 velocity=59 time=0
<meta message set_tempo tempo=356168 time=40>
<meta message set_tempo tempo=358359 time=40>
note_on channel=0 note=75 velocity=0 time=40
note_on channel=0 note=61 velocity=0 time=0
note_on channel=0 note=78 velocity=61 time=0
note_on channel=0 note=66 velocity=45 time=0
<meta message set_tempo tempo=357249 time=80>
note_on channel=0 note=78 velocity=0 time=40
note_on channel=0 note=81 velocity=66 time=0
note_on channel=0 note=66 velocity=0 time=40
note_on channel=0 note=61 velocity=39 time=0
<meta message set_tempo tempo=356168 time=40>
note_on channel=0 note=81 velocity=0 time=40
note_on channel=0 note=85 velocity=69 time=0
<meta message set_tempo tempo=355072 time=80>
note_on channel=0 note=61 velocity=0 time=0
note_on channel=0 note=57 velocity=37 time=0
note_on channel=0 note=85 velocity=0 time=40
note_on channel=0 note=87 velocity=71 time=0
<meta message set_tempo tempo=352941 time=80>
<meta message set_tempo tempo=350877 time=40>
note_on channel=0 note=87 velocity=0 time=0
note_on channel=0 note=57 velocity=0 time=0
note_on channel=0 note=95 velocity=73 time=0
note_on channel=0 note=54 velocity=37 time=0
<meta message set_tempo tempo=353982 time=120>
note_on channel=0 note=95 velocity=0 time=0
note_on channel=0 note=93 velocity=71 time=0
<meta message set_tempo tempo=356083 time=40>
note_on channel=0 note=54 velocity=0 time=0
note_on channel=0 note=61 velocity=40 time=0
note_on channel=0 note=93 velocity=0 time=80
note_on channel=0 note=92 velocity=71 time=0
<meta message set_tempo tempo=355030 time=40>
<meta message set_tempo tempo=352941 time=40>
note_on channel=0 note=61 velocity=0 time=0
note_on channel=0 note=63 velocity=44 time=0
note_on channel=0 note=92 velocity=0 time=40
note_on channel=0 note=90 velocity=70 time=0
<meta message set_tempo tempo=351906 time=40>
note_on channel=0 note=90 velocity=0 time=80
note_on channel=0 note=63 velocity=0 time=0
note_on channel=0 note=88 velocity=69 time=0
note_on channel=0 note=69 velocity=46 time=0
<meta message set_tempo tempo=355030 time=40>
<meta message set_tempo tempo=356083 time=40>
note_on channel=0 note=88 velocity=0 time=40
note_on channel=0 note=87 velocity=68 time=0
note_on channel=0 note=69 velocity=0 time=40
note_on channel=0 note=63 velocity=44 time=0
<meta message set_tempo tempo=353982 time=40>
<meta message set_tempo tempo=352941 time=40>
note_on channel=0 note=87 velocity=0 time=0
note_on channel=0 note=90 velocity=67 time=0
<meta message set_tempo tempo=351906 time=40>
note_on channel=0 note=63 velocity=0 time=40
note_on channel=0 note=61 velocity=41 time=0
<meta message set_tempo tempo=353982 time=40>
note_on channel=0 note=90 velocity=0 time=0
note_on channel=0 note=85 velocity=67 time=0
<meta message set_tempo tempo=356083 time=80>
<meta message set_tempo tempo=355030 time=40>
note_on channel=0 note=85 velocity=0 time=0
note_on channel=0 note=61 velocity=0 time=0
note_on channel=0 note=84 velocity=68 time=0
note_on channel=0 note=44 velocity=33 time=0
control_change channel=0 control=64 value=0 time=7
<meta message set_tempo tempo=352941 time=33>
control_change channel=0 control=64 value=127 time=23
<meta message set_tempo tempo=351906 time=17>
note_on channel=0 note=84 velocity=0 time=40
note_on channel=0 note=87 velocity=64 time=0
<meta message set_tempo tempo=350877 time=40>
note_on channel=0 note=44 velocity=0 time=0
note_on channel=0 note=51 velocity=36 time=0
<meta message set_tempo tempo=352941 time=80>
note_on channel=0 note=87 velocity=0 time=0
note_on channel=0 note=81 velocity=65 time=0
<meta message set_tempo tempo=355030 time=40>
<meta message set_tempo tempo=353982 time=40>
note_on channel=0 note=51 velocity=0 time=0
note_on channel=0 note=54 velocity=39 time=0
<meta message set_tempo tempo=352941 time=40>
note_on channel=0 note=81 velocity=0 time=0
note_on channel=0 note=80 velocity=65 time=0
<meta message set_tempo tempo=351906 time=40>
<meta message set_tempo tempo=350877 time=80>
note_on channel=0 note=80 velocity=0 time=0
note_on channel=0 note=54 velocity=0 time=0
note_on channel=0 note=78 velocity=64 time=0
note_on channel=0 note=60 velocity=41 time=0
<meta message set_tempo tempo=355030 time=80>
<meta message set_tempo tempo=356083 time=40>
note_on channel=0 note=78 velocity=0 time=0
note_on channel=0 note=81 velocity=62 time=0
<meta message set_tempo tempo=355030 time=40>
note_on channel=0 note=60 velocity=0 time=0
note_on channel=0 note=54 velocity=39 time=0
<meta message set_tempo tempo=353982 time=40>
note_on channel=0 note=81 velocity=0 time=40
note_on channel=0 note=76 velocity=59 time=0
<meta message set_tempo tempo=352941 time=40>
<meta message set_tempo tempo=351906 time=40>
note_on channel=0 note=54 velocity=0 time=0
note_on channel=0 note=51 velocity=37 time=0
note_on channel=0 note=76 velocity=0 time=40
note_on channel=0 note=75 velocity=59 time=0
<meta message set_tempo tempo=352920 time=120>
note_on channel=0 note=75 velocity=0 time=0
note_on channel=0 note=51 velocity=0 time=0
note_on channel=0 note=78 velocity=59 time=0
note_on channel=0 note=44 velocity=33 time=0
<meta message set_tempo tempo=354003 time=120>
note_on channel=0 note=78 velocity=0 time=0
note_on channel=0 note=73 velocity=55 time=0
note_on channel=0 note=44 velocity=0 time=40
note_on channel=0 note=51 velocity=35 time=0
<meta message set_tempo tempo=355072 time=40>
note_on channel=0 note=73 velocity=0 time=40
note_on channel=0 note=72 velocity=55 time=0
<meta message set_tempo tempo=356168 time=80>
note_on channel=0 note=51 velocity=0 time=0
note_on channel=0 note=54 velocity=38 time=0
note_on channel=0 note=72 velocity=0 time=40
note_on channel=0 note=75 velocity=55 time=0
<meta message set_tempo tempo=357249 time=40>
<meta message set_tempo tempo=359454 time=40>
<meta message set_tempo tempo=361685 time=40>
note_on channel=0 note=75 velocity=0 time=0
note_on channel=0 note=54 velocity=0 time=0
note_on channel=0 note=69 velocity=54 time=0
note_on channel=0 note=60 velocity=39 time=0
<meta message set_tempo tempo=363901 time=40>
<meta message set_tempo tempo=367354 time=40>
<meta message set_tempo tempo=369686 time=40>
note_on channel=0 note=69 velocity=0 time=0
note_on channel=0 note=68 velocity=51 time=0
<meta message set_tempo tempo=372047 time=40>
note_on channel=0 note=60 velocity=0 time=0
note_on channel=0 note=54 velocity=35 time=0
<meta message set_tempo tempo=374438 time=40>
<meta message set_tempo tempo=378072 time=40>
note_on channel=0 note=68 velocity=0 time=0
note_on channel=0 note=71 velocity=51 time=0
<meta message set_tempo tempo=380518 time=40>
<meta message set_tempo tempo=383019 time=40>
note_on channel=0 note=54 velocity=0 time=0
note_on channel=0 note=51 velocity=33 time=0
<meta message set_tempo tempo=437190 time=40>
note_on channel=0 note=71 velocity=0 time=0
note_on channel=0 note=69 velocity=50 time=0
<meta message set_tempo tempo=381849 time=100>
<meta message set_tempo tempo=378334 time=20>
note_on channel=0 note=51 velocity=0 time=0
note_on channel=0 note=49 velocity=28 time=0
control_change channel=0 control=64 value=0 time=10
<meta message set_tempo tempo=373762 time=10>
<meta message set_tempo tempo=370393 time=20>
<meta message set_tempo tempo=366010 time=20>
control_change channel=0 control=64 value=127 time=3
<meta message set_tempo tempo=355030 time=17>
<meta message set_tempo tempo=353982 time=40>
note_on channel=0 note=69 velocity=0 time=0
note_on channel=0 note=68 velocity=47 time=0
<meta message set_tempo tempo=352941 time=40>
note_on channel=0 note=49 velocity=0 time=0
note_on channel=0 note=56 velocity=32 time=0
<meta message set_tempo tempo=350877 time=80>
note_on channel=0 note=68 velocity=0 time=0
note_on channel=0 note=69 velocity=51 time=0
<meta message set_tempo tempo=349854 time=40>
<meta message set_tempo tempo=351906 time=40>
note_on channel=0 note=56 velocity=0 time=0
note_on channel=0 note=61 velocity=34 time=0
<meta message set_tempo tempo=352941 time=40>
note_on channel=0 note=69 velocity=0 time=0
note_on channel=0 note=68 velocity=47 time=0
<meta message set_tempo tempo=355030 time=40>
note_on channel=0 note=68 velocity=0 time=80
note_on channel=0 note=61 velocity=0 time=0
note_on channel=0 note=67 velocity=48 time=0
note_on channel=0 note=64 velocity=37 time=0
<meta message set_tempo tempo=353982 time=40>
<meta message set_tempo tempo=352941 time=40>
<meta message set_tempo tempo=350877 time=40>
note_on channel=0 note=67 velocity=0 time=0
note_on channel=0 note=68 velocity=49 time=0
note_on channel=0 note=64 velocity=0 time=40
note_on channel=0 note=61 velocity=35 time=0
note_on channel=0 note=68 velocity=0 time=80
note_on channel=0 note=73 velocity=51 time=0
<meta message set_tempo tempo=352941 time=40>
<meta message set_tempo tempo=353982 time=40>
note_on channel=0 note=61 velocity=0 time=0
note_on channel=0 note=56 velocity=33 time=0
note_on channel=0 note=73 velocity=0 time=40
note_on channel=0 note=76 velocity=52 time=0
note_on channel=0 note=76 velocity=0 time=120
note_on channel=0 note=56 velocity=0 time=0
note_on channel=0 note=75 velocity=54 time=0
note_on channel=0 note=52 velocity=31 time=0
control_change channel=0 control=64 value=0 time=17
<meta message set_tempo tempo=351906 time=23>
control_change channel=0 control=64 value=127 time=40
<meta message set_tempo tempo=352941 time=40>
note_on channel=0 note=75 velocity=0 time=0
note_on channel=0 note=73 velocity=51 time=0
<meta message set_tempo tempo=353982 time=40>
note_on channel=0 note=52 velocity=0 time=0
note_on channel=0 note=56 velocity=33 time=0
<meta message set_tempo tempo=355030 time=40>
note_on channel=0 note=73 velocity=0 time=40
note_on channel=0 note=75 velocity=53 time=0
<meta message set_tempo tempo=352941 time=40>
<meta message set_tempo tempo=351906 time=40>
note_on channel=0 note=56 velocity=0 time=0
note_on channel=0 note=61 velocity=35 time=0
note_on channel=0 note=75 velocity=0 time=40
note_on channel=0 note=73 velocity=51 time=0
<meta message set_tempo tempo=352941 time=80>
<meta message set_tempo tempo=356083 time=40>
note_on channel=0 note=73 velocity=0 time=0
note_on channel=0 note=61 velocity=0 time=0
note_on channel=0 note=72 velocity=51 time=0
note_on channel=0 note=64 velocity=36 time=0
<meta message set_tempo tempo=355030 time=40>
<meta message set_tempo tempo=353982 time=80>
note_on channel=0 note=72 velocity=0 time=0
note_on channel=0 note=73 velocity=53 time=0
note_on channel=0 note=64 velocity=0 time=40
note_on channel=0 note=61 velocity=33 time=0
note_on channel=0 note=73 velocity=0 time=80
note_on channel=0 note=76 velocity=57 time=0
note_on channel=0 note=61 velocity=0 time=80
note_on channel=0 note=56 velocity=31 time=0
<meta message set_tempo tempo=454856 time=40>
note_on channel=0 note=76 velocity=0 time=0
note_on channel=0 note=80 velocity=54 time=0
<meta message set_tempo tempo=389055 time=100>
<meta message set_tempo tempo=384221 time=20>
note_on channel=0 note=80 velocity=0 time=0
note_on channel=0 note=56 velocity=0 time=0
note_on channel=0 note=76 velocity=52 time=0
note_on channel=0 note=54 velocity=28 time=0
control_change channel=0 control=64 value=0 time=8
<meta message set_tempo tempo=379507 time=12>
<meta message set_tempo tempo=373762 time=20>
<meta message set_tempo tempo=369299 time=20>
control_change channel=0 control=64 value=127 time=3
<meta message set_tempo tempo=363857 time=17>
<meta message set_tempo tempo=359626 time=20>
<meta message set_tempo tempo=354505 time=20>
note_on channel=0 note=76 velocity=0 time=0
note_on channel=0 note=75 velocity=48 time=0
<meta message set_tempo tempo=352941 time=40>
note_on channel=0 note=54 velocity=0 time=0
note_on channel=0 note=61 velocity=33 time=0
<meta message set_tempo tempo=351906 time=40>
note_on channel=0 note=75 velocity=0 time=40
note_on channel=0 note=76 velocity=52 time=0
note_on channel=0 note=61 velocity=0 time=80
note_on channel=0 note=63 velocity=35 time=0
<meta message set_tempo tempo=355030 time=40>
note_on channel=0 note=76 velocity=0 time=0
note_on channel=0 note=75 velocity=48 time=0
<meta message set_tempo tempo=356083 time=40>
<meta message set_tempo tempo=355030 time=80>
note_on channel=0 note=75 velocity=0 time=0
note_on channel=0 note=63 velocity=0 time=0
note_on channel=0 note=74 velocity=49 time=0
note_on channel=0 note=69 velocity=38 time=0
<meta message set_tempo tempo=352941 time=80>
note_on channel=0 note=74 velocity=0 time=40
note_on channel=0 note=75 velocity=50 time=0
<meta message set_tempo tempo=351906 time=40>
note_on channel=0 note=69 velocity=0 time=0
note_on channel=0 note=63 velocity=36 time=0
<meta message set_tempo tempo=353982 time=80>
note_on channel=0 note=75 velocity=0 time=0
note_on channel=0 note=78 velocity=53 time=0
<meta message set_tempo tempo=355030 time=40>
note_on channel=0 note=63 velocity=0 time=40
note_on channel=0 note=61 velocity=34 time=0
note_on channel=0 note=78 velocity=0 time=40
note_on channel=0 note=81 velocity=54 time=0
<meta message set_tempo tempo=353982 time=80>
<meta message set_tempo tempo=351906 time=40>
note_on channel=0 note=81 velocity=0 time=0
note_on channel=0 note=61 velocity=0 time=0
note_on channel=0 note=78 velocity=56 time=0
note_on channel=0 note=56 velocity=32 time=0
control_change channel=0 control=64 value=0 time=15
<meta message set_tempo tempo=350877 time=25>
control_change channel=0 control=64 value=127 time=40
note_on channel=0 note=78 velocity=0 time=40
note_on channel=0 note=77 velocity=54 time=0
<meta message set_tempo tempo=351906 time=40>
note_on channel=0 note=56 velocity=0 time=0
note_on channel=0 note=61 velocity=34 time=0
<meta message set_tempo tempo=353982 time=40>
<meta message set_tempo tempo=355030 time=40>
note_on channel=0 note=77 velocity=0 time=0
note_on channel=0 note=78 velocity=56 time=0
note_on channel=0 note=61 velocity=0 time=80
note_on channel=0 note=65 velocity=37 time=0
<meta message set_tempo tempo=353982 time=40>
note_on channel=0 note=78 velocity=0 time=0
note_on channel=0 note=77 velocity=54 time=0
<meta message set_tempo tempo=352941 time=40>
<meta message set_tempo tempo=351906 time=40>
<meta message set_tempo tempo=350877 time=40>
note_on channel=0 note=77 velocity=0 time=0
note_on channel=0 note=65 velocity=0 time=0
note_on channel=0 note=76 velocity=54 time=0
note_on channel=0 note=71 velocity=39 time=0
<meta message set_tempo tempo=351906 time=80>
<meta message set_tempo tempo=353982 time=40>
note_on channel=0 note=76 velocity=0 time=0
note_on channel=0 note=77 velocity=56 time=0
note_on channel=0 note=71 velocity=0 time=40
note_on channel=0 note=65 velocity=34 time=0
note_on channel=0 note=77 velocity=0 time=80
note_on channel=0 note=80 velocity=59 time=0
note_on channel=0 note=65 velocity=0 time=80
note_on channel=0 note=61 velocity=33 time=0
<meta message set_tempo tempo=453206 time=40>
note_on channel=0 note=80 velocity=0 time=0
note_on channel=0 note=85 velocity=57 time=0
<meta message set_tempo tempo=390269 time=120>
note_on channel=0 note=85 velocity=0 time=0
note_on channel=0 note=61 velocity=0 time=0
note_on channel=0 note=57 velocity=30 time=0
control_change channel=0 control=64 value=0 time=8
<meta message set_tempo tempo=384221 time=12>
<meta message set_tempo tempo=378334 time=20>
<meta message set_tempo tempo=371517 time=20>
control_change channel=0 control=64 value=127 time=3
<meta message set_tempo tempo=366010 time=17>
<meta message set_tempo tempo=360685 time=20>
<meta message set_tempo tempo=353982 time=20>
note_on channel=0 note=73 velocity=50 time=0
note_on channel=0 note=57 velocity=0 time=40
note_on channel=0 note=61 velocity=34 time=0
<meta message set_tempo tempo=352941 time=40>
<meta message set_tempo tempo=351906 time=40>
note_on channel=0 note=73 velocity=0 time=0
note_on channel=0 note=74 velocity=55 time=0
note_on channel=0 note=61 velocity=0 time=80
note_on channel=0 note=66 velocity=37 time=0
note_on channel=0 note=74 velocity=0 time=40
note_on channel=0 note=73 velocity=51 time=0
<meta message set_tempo tempo=353982 time=80>
<meta message set_tempo tempo=355030 time=40>
note_on channel=0 note=73 velocity=0 time=0
note_on channel=0 note=66 velocity=0 time=0
note_on channel=0 note=72 velocity=52 time=0
note_on channel=0 note=69 velocity=40 time=0
<meta message set_tempo tempo=352941 time=80>
<meta message set_tempo tempo=351906 time=40>
note_on channel=0 note=72 velocity=0 time=0
note_on channel=0 note=73 velocity=53 time=0
note_on channel=0 note=69 velocity=0 time=40
note_on channel=0 note=66 velocity=39 time=0
<meta message set_tempo tempo=353982 time=80>
note_on channel=0 note=73 velocity=0 time=0
note_on channel=0 note=78 velocity=56 time=0
<meta message set_tempo tempo=355030 time=40>
<meta message set_tempo tempo=356083 time=40>
note_on channel=0 note=66 velocity=0 time=0
note_on channel=0 note=61 velocity=35 time=0
<meta message set_tempo tempo=355030 time=40>
note_on channel=0 note=78 velocity=0 time=0
note_on channel=0 note=81 velocity=57 time=0
<meta message set_tempo tempo=351906 time=40>
note_on channel=0 note=81 velocity=0 time=80
note_on channel=0 note=61 velocity=0 time=0
note_on channel=0 note=78 velocity=59 time=0
note_on channel=0 note=56 velocity=34 time=0
control_change channel=0 control=64 value=0 time=17
<meta message set_tempo tempo=352941 time=63>
control_change channel=0 control=64 value=127 time=0
note_on channel=0 note=78 velocity=0 time=40
note_on channel=0 note=77 velocity=56 time=0
<meta message set_tempo tempo=355030 time=40>
note_on channel=0 note=56 velocity=0 time=0
note_on channel=0 note=61 velocity=36 time=0
note_on channel=0 note=77 velocity=0 time=80
note_on channel=0 note=78 velocity=59 time=0
<meta message set_tempo tempo=352941 time=40>
<meta message set_tempo tempo=351906 time=40>
note_on channel=0 note=61 velocity=0 time=0
note_on channel=0 note=65 velocity=39 time=0
note_on channel=0 note=78 velocity=0 time=40
note_on channel=0 note=77 velocity=57 time=0
<meta message set_tempo tempo=350877 time=40>
<meta message set_tempo tempo=351906 time=80>
note_on channel=0 note=77 velocity=0 time=0
note_on channel=0 note=65 velocity=0 time=0
note_on channel=0 note=76 velocity=57 time=0
note_on channel=0 note=71 velocity=40 time=0
<meta message set_tempo tempo=352941 time=40>
note_on channel=0 note=76 velocity=0 time=80
note_on channel=0 note=77 velocity=59 time=0
note_on channel=0 note=71 velocity=0 time=40
note_on channel=0 note=65 velocity=37 time=0
note_on channel=0 note=77 velocity=0 time=80
note_on channel=0 note=80 velocity=63 time=0
note_on channel=0 note=65 velocity=0 time=80
note_on channel=0 note=61 velocity=34 time=0
<meta message set_tempo tempo=440302 time=40>
note_on channel=0 note=80 velocity=0 time=0
note_on channel=0 note=85 velocity=59 time=0
<meta message set_tempo tempo=384221 time=120>
note_on channel=0 note=85 velocity=0 time=0
note_on channel=0 note=61 velocity=0 time=0
note_on channel=0 note=80 velocity=58 time=0
note_on channel=0 note=57 velocity=32 time=0
control_change channel=0 control=64 value=0 time=8
<meta message set_tempo tempo=379507 time=12>
<meta message set_tempo tempo=373762 time=20>
<meta message set_tempo tempo=369299 time=20>
control_change channel=0 control=64 value=127 time=3
<meta message set_tempo tempo=363857 time=17>
<meta message set_tempo tempo=359626 time=20>
<meta message set_tempo tempo=354505 time=20>
note_on channel=0 note=80 velocity=0 time=0
note_on channel=0 note=78 velocity=53 time=0
<meta message set_tempo tempo=355030 time=40>
note_on channel=0 note=57 velocity=0 time=0
note_on channel=0 note=61 velocity=36 time=0
note_on channel=0 note=78 velocity=0 time=80
note_on channel=0 note=80 velocity=58 time=0
<meta message set_tempo tempo=353982 time=40>
<meta message set_tempo tempo=352941 time=40>
note_on channel=0 note=61 velocity=0 time=0
note_on channel=0 note=66 velocity=39 time=0
note_on channel=0 note=80 velocity=0 time=40
note_on channel=0 note=78 velocity=54 time=0
<meta message set_tempo tempo=351906 time=80>
<meta message set_tempo tempo=350877 time=40>
note_on channel=0 note=78 velocity=0 time=0
note_on channel=0 note=66 velocity=0 time=0
note_on channel=0 note=77 velocity=55 time=0
note_on channel=0 note=69 velocity=42 time=0
<meta message set_tempo tempo=349854 time=80>
note_on channel=0 note=77 velocity=0 time=40
note_on channel=0 note=78 velocity=56 time=0
note_on channel=0 note=69 velocity=0 time=40
note_on channel=0 note=66 velocity=40 time=0
<meta message set_tempo tempo=351906 time=40>
<meta message set_tempo tempo=355030 time=40>
note_on channel=0 note=78 velocity=0 time=0
note_on channel=0 note=81 velocity=59 time=0
<meta message set_tempo tempo=352941 time=80>
note_on channel=0 note=66 velocity=0 time=0
note_on channel=0 note=61 velocity=38 time=0
<meta message set_tempo tempo=351906 time=40>
note_on channel=0 note=81 velocity=0 time=0
note_on channel=0 note=85 velocity=60 time=0
<meta message set_tempo tempo=350877 time=40>
<meta message set_tempo tempo=349854 time=40>
<meta message set_tempo tempo=350877 time=40>
note_on channel=0 note=85 velocity=0 time=0
note_on channel=0 note=61 velocity=0 time=0
note_on channel=0 note=81 velocity=63 time=0
note_on channel=0 note=48 velocity=36 time=0
control_change channel=0 control=64 value=0 time=17
<meta message set_tempo tempo=352941 time=23>
control_change channel=0 control=64 value=127 time=40
<meta message set_tempo tempo=355030 time=40>
note_on channel=0 note=81 velocity=0 time=0
note_on channel=0 note=80 velocity=59 time=0
note_on channel=0 note=48 velocity=0 time=40
note_on channel=0 note=54 velocity=38 time=0
<meta message set_tempo tempo=356083 time=40>
<meta message set_tempo tempo=353982 time=40>
note_on channel=0 note=80 velocity=0 time=0
note_on channel=0 note=81 velocity=62 time=0
<meta message set_tempo tempo=351906 time=40>
<meta message set_tempo tempo=350877 time=40>
note_on channel=0 note=54 velocity=0 time=0
note_on channel=0 note=56 velocity=41 time=0
<meta message set_tempo tempo=351906 time=40>
note_on channel=0 note=81 velocity=0 time=0
note_on channel=0 note=80 velocity=60 time=0
<meta message set_tempo tempo=352941 time=40>
<meta message set_tempo tempo=353982 time=40>
note_on channel=0 note=80 velocity=0 time=40
note_on channel=0 note=56 velocity=0 time=0
note_on channel=0 note=79 velocity=60 time=0
note_on channel=0 note=63 velocity=42 time=0
<meta message set_tempo tempo=352941 time=40>
<meta message set_tempo tempo=351906 time=40>
<meta message set_tempo tempo=350877 time=40>
note_on channel=0 note=79 velocity=0 time=0
note_on channel=0 note=80 velocity=62 time=0
<meta message set_tempo tempo=352941 time=40>
note_on channel=0 note=63 velocity=0 time=0
note_on channel=0 note=56 velocity=39 time=0
note_on channel=0 note=80 velocity=0 time=80
note_on channel=0 note=84 velocity=66 time=0
note_on channel=0 note=56 velocity=0 time=80
note_on channel=0 note=54 velocity=37 time=0
<meta message set_tempo tempo=475888 time=40>
note_on channel=0 note=84 velocity=0 time=0
note_on channel=0 note=87 velocity=63 time=0
<meta message set_tempo tempo=370393 time=120>
note_on channel=0 note=87 velocity=0 time=0
note_on channel=0 note=54 velocity=0 time=0
note_on channel=0 note=80 velocity=69 time=0
note_on channel=0 note=49 velocity=35 time=0
control_change channel=0 control=64 value=0 time=9
<meta message set_tempo tempo=369299 time=11>
<meta message set_tempo tempo=368189 time=20>
<meta message set_tempo tempo=366010 time=20>
control_change channel=0 control=64 value=127 time=3
<meta message set_tempo tempo=364941 time=17>
<meta message set_tempo tempo=363857 time=20>
<meta message set_tempo tempo=361729 time=20>
note_on channel=0 note=80 velocity=0 time=0
note_on channel=0 note=81 velocity=64 time=0
note_on channel=0 note=49 velocity=0 time=40
note_on channel=0 note=56 velocity=39 time=0
<meta message set_tempo tempo=360577 time=40>
<meta message set_tempo tempo=359454 time=40>
note_on channel=0 note=81 velocity=0 time=0
note_on channel=0 note=80 velocity=67 time=0
<meta message set_tempo tempo=358359 time=80>
note_on channel=0 note=56 velocity=0 time=0
note_on channel=0 note=61 velocity=43 time=0
<meta message set_tempo tempo=357249 time=40>
note_on channel=0 note=80 velocity=0 time=0
note_on channel=0 note=79 velocity=58 time=0
<meta message set_tempo tempo=356168 time=40>
<meta message set_tempo tempo=358359 time=40>
note_on channel=0 note=79 velocity=0 time=40
note_on channel=0 note=61 velocity=0 time=0
note_on channel=0 note=80 velocity=62 time=0
note_on channel=0 note=64 velocity=45 time=0
<meta message set_tempo tempo=357249 time=80>
note_on channel=0 note=80 velocity=0 time=40
note_on channel=0 note=88 velocity=71 time=0
note_on channel=0 note=64 velocity=0 time=40
note_on channel=0 note=61 velocity=44 time=0
<meta message set_tempo tempo=356168 time=40>
note_on channel=0 note=88 velocity=0 time=40
note_on channel=0 note=87 velocity=71 time=0
<meta message set_tempo tempo=355072 time=80>
note_on channel=0 note=61 velocity=0 time=0
note_on channel=0 note=56 velocity=42 time=0
note_on channel=0 note=87 velocity=0 time=40
note_on channel=0 note=86 velocity=70 time=0
<meta message set_tempo tempo=354003 time=80>
<meta message set_tempo tempo=354505 time=20>
note_on channel=0 note=86 velocity=0 time=20
note_on channel=0 note=56 velocity=0 time=0
note_on channel=0 note=85 velocity=69 time=0
note_on channel=0 note=51 velocity=44 time=0
control_change channel=0 control=64 value=0 time=11
control_change channel=0 control=64 value=127 time=81
note_on channel=0 note=85 velocity=0 time=28
note_on channel=0 note=84 velocity=69 time=0
note_on channel=0 note=51 velocity=0 time=40
note_on channel=0 note=56 velocity=41 time=0
<meta message set_tempo tempo=355492 time=60>
note_on channel=0 note=84 velocity=0 time=20
note_on channel=0 note=83 velocity=68 time=0
note_on channel=0 note=56 velocity=0 time=80
note_on channel=0 note=60 velocity=45 time=0
note_on channel=0 note=83 velocity=0 time=40
note_on channel=0 note=82 velocity=67 time=0
<meta message set_tempo tempo=356527 time=80>
note_on channel=0 note=82 velocity=0 time=40
note_on channel=0 note=60 velocity=0 time=0
note_on channel=0 note=81 velocity=67 time=0
note_on channel=0 note=66 velocity=46 time=0
note_on channel=0 note=81 velocity=0 time=120
note_on channel=0 note=80 velocity=66 time=0
note_on channel=0 note=66 velocity=0 time=40
note_on channel=0 note=60 velocity=44 time=0
<meta message set_tempo tempo=357547 time=20>
note_on channel=0 note=80 velocity=0 time=60
note_on channel=0 note=79 velocity=65 time=0
note_on channel=0 note=60 velocity=0 time=80
note_on channel=0 note=56 velocity=41 time=0
note_on channel=0 note=79 velocity=0 time=40
note_on channel=0 note=78 velocity=64 time=0
<meta message set_tempo tempo=358594 time=40>
<meta message set_tempo tempo=367107 time=60>
<meta message set_tempo tempo=366010 time=20>
note_on channel=0 note=78 velocity=0 time=0
note_on channel=0 note=56 velocity=0 time=0
note_on channel=0 note=76 velocity=69 time=0
control_change channel=0 control=64 value=0 time=0
note_on channel=0 note=52 velocity=35 time=0
<meta message set_tempo tempo=364941 time=20>
<meta message set_tempo tempo=363857 time=20>
<meta message set_tempo tempo=362801 time=20>
control_change channel=0 control=64 value=127 time=3
<meta message set_tempo tempo=361729 time=17>
<meta message set_tempo tempo=360685 time=20>
<meta message set_tempo tempo=359626 time=20>
note_on channel=0 note=76 velocity=0 time=0
note_on channel=0 note=78 velocity=64 time=0
note_on channel=0 note=52 velocity=0 time=40
note_on channel=0 note=56 velocity=39 time=0
<meta message set_tempo tempo=360577 time=40>
<meta message set_tempo tempo=359454 time=40>
note_on channel=0 note=78 velocity=0 time=0
note_on channel=0 note=76 velocity=67 time=0
<meta message set_tempo tempo=358359 time=80>
note_on channel=0 note=56 velocity=0 time=0
note_on channel=0 note=61 velocity=43 time=0
<meta message set_tempo tempo=357249 time=40>
note_on channel=0 note=76 velocity=0 time=0
note_on channel=0 note=75 velocity=58 time=0
<meta message set_tempo tempo=356168 time=40>
<meta message set_tempo tempo=358359 time=40>
note_on channel=0 note=75 velocity=0 time=40
note_on channel=0 note=61 velocity=0 time=0
note_on channel=0 note=76 velocity=62 time=0
note_on channel=0 note=64 velocity=45 time=0
<meta message set_tempo tempo=357249 time=80>
note_on channel=0 note=76 velocity=0 time=40
note_on channel=0 note=88 velocity=71 time=0
note_on channel=0 note=64 velocity=0 time=40
note_on channel=0 note=61 velocity=44 time=0
<meta message set_tempo tempo=356168 time=40>
note_on channel=0 note=88 velocity=0 time=40
note_on channel=0 note=87 velocity=71 time=0
<meta message set_tempo tempo=355072 time=80>
note_on channel=0 note=61 velocity=0 time=0
note_on channel=0 note=56 velocity=42 time=0
note_on channel=0 note=87 velocity=0 time=40
note_on channel=0 note=86 velocity=70 time=0
<meta message set_tempo tempo=354003 time=80>
<meta message set_tempo tempo=352485 time=40>
note_on channel=0 note=86 velocity=0 time=0
note_on channel=0 note=56 velocity=0 time=0
note_on channel=0 note=85 velocity=70 time=0
note_on channel=0 note=54 velocity=44 time=0
control_change channel=0 control=64 value=0 time=17
control_change channel=0 control=64 value=127 time=80
<meta message set_tempo tempo=353482 time=23>
note_on channel=0 note=85 velocity=0 time=0
note_on channel=0 note=84 velocity=71 time=0
note_on channel=0 note=54 velocity=0 time=40
note_on channel=0 note=61 velocity=41 time=0
<meta message set_tempo tempo=354505 time=80>
note_on channel=0 note=84 velocity=0 time=0
note_on channel=0 note=83 velocity=71 time=0
note_on channel=0 note=61 velocity=0 time=80
note_on channel=0 note=63 velocity=45 time=0
<meta message set_tempo tempo=355492 time=40>
note_on channel=0 note=83 velocity=0 time=0
note_on channel=0 note=82 velocity=72 time=0
<meta message set_tempo tempo=356527 time=40>
<meta message set_tempo tempo=357547 time=40>
<meta message set_tempo tempo=358594 time=40>
note_on channel=0 note=82 velocity=0 time=0
note_on channel=0 note=63 velocity=0 time=0
note_on channel=0 note=81 velocity=73 time=0
note_on channel=0 note=69 velocity=46 time=0
<meta message set_tempo tempo=359626 time=40>
<meta message set_tempo tempo=360685 time=40>
<meta message set_tempo tempo=361729 time=40>
note_on channel=0 note=81 velocity=0 time=0
note_on channel=0 note=80 velocity=74 time=0
<meta message set_tempo tempo=362801 time=40>
note_on channel=0 note=69 velocity=0 time=0
note_on channel=0 note=63 velocity=48 time=0
<meta message set_tempo tempo=363857 time=40>
<meta message set_tempo tempo=364941 time=40>
note_on channel=0 note=80 velocity=0 time=0
note_on channel=0 note=79 velocity=75 time=0
<meta message set_tempo tempo=366010 time=40>
<meta message set_tempo tempo=367107 time=40>
note_on channel=0 note=63 velocity=0 time=0
note_on channel=0 note=61 velocity=51 time=0
<meta message set_tempo tempo=368189 time=40>
note_on channel=0 note=79 velocity=0 time=0
note_on channel=0 note=78 velocity=76 time=0
<meta message set_tempo tempo=369299 time=40>
<meta message set_tempo tempo=369299 time=80>
note_on channel=0 note=78 velocity=0 time=0
note_on channel=0 note=61 velocity=0 time=0
note_on channel=0 note=80 velocity=76 time=0
control_change channel=0 control=64 value=0 time=0
note_on channel=0 note=68 velocity=71 time=0
note_on channel=0 note=64 velocity=71 time=0
note_on channel=0 note=61 velocity=71 time=0
note_on channel=0 note=56 velocity=71 time=0
note_on channel=0 note=80 velocity=0 time=60
note_on channel=0 note=61 velocity=0 time=180
note_on channel=0 note=68 velocity=0 time=0
note_on channel=0 note=64 velocity=0 time=0
note_on channel=0 note=56 velocity=0 time=0
note_on channel=0 note=92 velocity=85 time=0
note_on channel=0 note=92 velocity=0 time=120
note_on channel=0 note=91 velocity=85 time=0
<meta message set_tempo tempo=357547 time=120>
note_on channel=0 note=91 velocity=0 time=0
note_on channel=0 note=90 velocity=84 time=0
note_on channel=0 note=90 velocity=0 time=120
note_on channel=0 note=89 velocity=84 time=0
note_on channel=0 note=89 velocity=0 time=120
note_on channel=0 note=88 velocity=83 time=0
note_on channel=0 note=88 velocity=0 time=120
note_on channel=0 note=87 velocity=83 time=0
<meta message set_tempo tempo=358594 time=120>
note_on channel=0 note=87 velocity=0 time=0
note_on channel=0 note=86 velocity=82 time=0
note_on channel=0 note=69 velocity=71 time=0
note_on channel=0 note=64 velocity=71 time=0
note_on channel=0 note=61 velocity=71 time=0
note_on channel=0 note=55 velocity=71 time=0
control_change channel=0 control=64 value=127 time=11
note_on channel=0 note=86 velocity=0 time=109
note_on channel=0 note=85 velocity=81 time=0
note_on channel=0 note=85 velocity=0 time=120
note_on channel=0 note=84 velocity=81 time=0
note_on channel=0 note=84 velocity=0 time=120
note_on channel=0 note=83 velocity=80 time=0
<meta message set_tempo tempo=359626 time=120>
note_on channel=0 note=83 velocity=0 time=0
note_on channel=0 note=55 velocity=0 time=0
note_on channel=0 note=69 velocity=0 time=0
note_on channel=0 note=64 velocity=0 time=0
note_on channel=0 note=61 velocity=0 time=0
note_on channel=0 note=82 velocity=80 time=0
control_change channel=0 control=64 value=0 time=17
note_on channel=0 note=82 velocity=0 time=103
note_on channel=0 note=81 velocity=79 time=0
note_on channel=0 note=81 velocity=0 time=120
note_on channel=0 note=80 velocity=79 time=0
note_on channel=0 note=80 velocity=0 time=120
note_on channel=0 note=79 velocity=78 time=0
<meta message set_tempo tempo=360685 time=80>
note_on channel=0 note=79 velocity=0 time=40
note_on channel=0 note=78 velocity=77 time=0
note_on channel=0 note=78 velocity=0 time=120
note_on channel=0 note=77 velocity=77 time=0
note_on channel=0 note=77 velocity=0 time=120
note_on channel=0 note=76 velocity=77 time=0
note_on channel=0 note=76 velocity=0 time=120
note_on channel=0 note=75 velocity=77 time=0
note_on channel=0 note=75 velocity=0 time=120
note_on channel=0 note=74 velocity=77 time=0
note_on channel=0 note=74 velocity=0 time=120
note_on channel=0 note=73 velocity=77 time=0
note_on channel=0 note=73 velocity=0 time=120
note_on channel=0 note=72 velocity=77 time=0
note_on channel=0 note=72 velocity=0 time=120
note_on channel=0 note=71 velocity=77 time=0
note_on channel=0 note=71 velocity=0 time=120
note_on channel=0 note=70 velocity=77 time=0
control_change channel=0 control=64 value=127 time=57
note_on channel=0 note=70 velocity=0 time=63
note_on channel=0 note=69 velocity=78 time=0
note_on channel=0 note=69 velocity=0 time=120
note_on channel=0 note=68 velocity=80 time=0
note_on channel=0 note=68 velocity=0 time=120
note_on channel=0 note=67 velocity=82 time=0
<meta message set_tempo tempo=361729 time=80>
note_on channel=0 note=67 velocity=0 time=40
note_on channel=0 note=66 velocity=85 time=0
<meta message set_tempo tempo=362801 time=40>
<meta message set_tempo tempo=363857 time=40>
<meta message set_tempo tempo=364941 time=40>
note_on channel=0 note=66 velocity=0 time=0
note_on channel=0 note=64 velocity=87 time=0
<meta message set_tempo tempo=366010 time=40>
<meta message set_tempo tempo=367107 time=40>
<meta message set_tempo tempo=368189 time=40>
note_on channel=0 note=64 velocity=0 time=0
note_on channel=0 note=63 velocity=90 time=0
<meta message set_tempo tempo=369299 time=40>
<meta message set_tempo tempo=370393 time=40>
<meta message set_tempo tempo=371517 time=40>
note_on channel=0 note=63 velocity=0 time=0
note_on channel=0 note=61 velocity=92 time=0
<meta message set_tempo tempo=372625 time=40>
<meta message set_tempo tempo=373762 time=40>
<meta message set_tempo tempo=395257 time=40>
note_on channel=0 note=61 velocity=0 time=0
note_on channel=0 note=56 velocity=94 time=0
note_on channel=0 note=32 velocity=78 time=0
note_on channel=0 note=44 velocity=78 time=0
control_change channel=0 control=64 value=0 time=7
note_on channel=0 note=44 velocity=0 time=113
note_on channel=0 note=32 velocity=0 time=0
note_on channel=0 note=56 velocity=0 time=0
control_change channel=0 control=64 value=127 time=28
note_on channel=0 note=93 velocity=90 time=332
note_on channel=0 note=76 velocity=75 time=0
note_on channel=0 note=64 velocity=75 time=0
<meta message set_tempo tempo=391517 time=80>
note_on channel=0 note=93 velocity=0 time=40
note_on channel=0 note=92 velocity=81 time=0
note_on channel=0 note=92 velocity=0 time=120
note_on channel=0 note=100 velocity=77 time=0
<meta message set_tempo tempo=390269 time=40>
note_on channel=0 note=100 velocity=0 time=80
note_on channel=0 note=88 velocity=77 time=0
<meta message set_tempo tempo=389055 time=120>
note_on channel=0 note=88 velocity=0 time=0
note_on channel=0 note=64 velocity=0 time=0
note_on channel=0 note=76 velocity=0 time=0
note_on channel=0 note=90 velocity=90 time=0
note_on channel=0 note=61 velocity=78 time=0
note_on channel=0 note=73 velocity=78 time=0
note_on channel=0 note=90 velocity=0 time=120
note_on channel=0 note=88 velocity=77 time=0
<meta message set_tempo tempo=387822 time=80>
note_on channel=0 note=88 velocity=0 time=40
note_on channel=0 note=97 velocity=77 time=0
note_on channel=0 note=97 velocity=0 time=120
note_on channel=0 note=85 velocity=77 time=0
<meta message set_tempo tempo=386623 time=40>
note_on channel=0 note=85 velocity=0 time=80
note_on channel=0 note=73 velocity=0 time=0
note_on channel=0 note=61 velocity=0 time=0
note_on channel=0 note=87 velocity=89 time=0
note_on channel=0 note=56 velocity=78 time=0
note_on channel=0 note=68 velocity=78 time=0
<meta message set_tempo tempo=385406 time=120>
note_on channel=0 note=87 velocity=0 time=0
note_on channel=0 note=85 velocity=77 time=0
note_on channel=0 note=85 velocity=0 time=120
note_on channel=0 note=92 velocity=77 time=0
<meta message set_tempo tempo=384221 time=80>
note_on channel=0 note=92 velocity=0 time=40
note_on channel=0 note=80 velocity=77 time=0
<meta message set_tempo tempo=378334 time=120>
note_on channel=0 note=80 velocity=0 time=0
note_on channel=0 note=68 velocity=0 time=0
note_on channel=0 note=56 velocity=0 time=0
note_on channel=0 note=81 velocity=89 time=0
note_on channel=0 note=52 velocity=78 time=0
note_on channel=0 note=64 velocity=78 time=0
note_on channel=0 note=81 velocity=0 time=120
note_on channel=0 note=80 velocity=77 time=0
note_on channel=0 note=80 velocity=0 time=120
note_on channel=0 note=88 velocity=77 time=0
note_on channel=0 note=88 velocity=0 time=120
note_on channel=0 note=76 velocity=77 time=0
note_on channel=0 note=76 velocity=0 time=120
note_on channel=0 note=64 velocity=0 time=0
note_on channel=0 note=52 velocity=0 time=0
note_on channel=0 note=78 velocity=88 time=0
note_on channel=0 note=49 velocity=74 time=0
note_on channel=0 note=61 velocity=74 time=0
note_on channel=0 note=78 velocity=0 time=120
note_on channel=0 note=76 velocity=77 time=0
note_on channel=0 note=76 velocity=0 time=120
note_on channel=0 note=85 velocity=77 time=0
note_on channel=0 note=85 velocity=0 time=120
note_on channel=0 note=73 velocity=77 time=0
note_on channel=0 note=73 velocity=0 time=120
note_on channel=0 note=61 velocity=0 time=0
note_on channel=0 note=49 velocity=0 time=0
note_on channel=0 note=75 velocity=89 time=0
note_on channel=0 note=44 velocity=78 time=0
note_on channel=0 note=56 velocity=78 time=0
note_on channel=0 note=75 velocity=0 time=120
note_on channel=0 note=73 velocity=77 time=0
note_on channel=0 note=73 velocity=0 time=120
note_on channel=0 note=80 velocity=77 time=0
note_on channel=0 note=80 velocity=0 time=120
note_on channel=0 note=68 velocity=77 time=0
note_on channel=0 note=68 velocity=0 time=120
note_on channel=0 note=56 velocity=0 time=0
note_on channel=0 note=44 velocity=0 time=0
note_on channel=0 note=69 velocity=90 time=0
note_on channel=0 note=40 velocity=74 time=0
note_on channel=0 note=52 velocity=74 time=0
note_on channel=0 note=69 velocity=0 time=120
note_on channel=0 note=68 velocity=77 time=0
note_on channel=0 note=68 velocity=0 time=120
note_on channel=0 note=76 velocity=77 time=0
note_on channel=0 note=76 velocity=0 time=120
note_on channel=0 note=64 velocity=77 time=0
<meta message set_tempo tempo=390269 time=120>
note_on channel=0 note=64 velocity=0 time=0
note_on channel=0 note=52 velocity=0 time=0
note_on channel=0 note=40 velocity=0 time=0
note_on channel=0 note=66 velocity=88 time=0
note_on channel=0 note=37 velocity=78 time=0
note_on channel=0 note=49 velocity=78 time=0
control_change channel=0 control=64 value=0 time=7
control_change channel=0 control=64 value=127 time=64
note_on channel=0 note=66 velocity=0 time=49
note_on channel=0 note=64 velocity=77 time=0
note_on channel=0 note=64 velocity=0 time=120
note_on channel=0 note=73 velocity=77 time=0
note_on channel=0 note=73 velocity=0 time=120
note_on channel=0 note=61 velocity=77 time=0
<meta message set_tempo tempo=381849 time=120>
note_on channel=0 note=61 velocity=0 time=0
note_on channel=0 note=49 velocity=0 time=0
note_on channel=0 note=37 velocity=0 time=0
note_on channel=0 note=63 velocity=89 time=0
note_on channel=0 note=32 velocity=73 time=0
note_on channel=0 note=44 velocity=73 time=0
note_on channel=0 note=63 velocity=0 time=120
note_on channel=0 note=61 velocity=77 time=0
note_on channel=0 note=61 velocity=0 time=120
note_on channel=0 note=68 velocity=77 time=0
note_on channel=0 note=68 velocity=0 time=120
note_on channel=0 note=56 velocity=77 time=0
<meta message set_tempo tempo=387822 time=120>
note_on channel=0 note=56 velocity=0 time=0
note_on channel=0 note=44 velocity=0 time=0
note_on channel=0 note=32 velocity=0 time=0
note_on channel=0 note=63 velocity=89 time=0
note_on channel=0 note=32 velocity=78 time=0
note_on channel=0 note=44 velocity=78 time=0
note_on channel=0 note=63 velocity=0 time=120
note_on channel=0 note=61 velocity=77 time=0
note_on channel=0 note=61 velocity=0 time=120
note_on channel=0 note=68 velocity=77 time=0
note_on channel=0 note=68 velocity=0 time=120
note_on channel=0 note=56 velocity=77 time=0
note_on channel=0 note=56 velocity=0 time=120
note_on channel=0 note=44 velocity=0 time=0
note_on channel=0 note=32 velocity=0 time=0
note_on channel=0 note=63 velocity=89 time=0
note_on channel=0 note=33 velocity=74 time=0
note_on channel=0 note=45 velocity=74 time=0
control_change channel=0 control=64 value=0 time=15
control_change channel=0 control=64 value=127 time=70
note_on channel=0 note=63 velocity=0 time=35
note_on channel=0 note=61 velocity=77 time=0
note_on channel=0 note=61 velocity=0 time=120
note_on channel=0 note=69 velocity=77 time=0
note_on channel=0 note=69 velocity=0 time=120
note_on channel=0 note=57 velocity=77 time=0
<meta message set_tempo tempo=378334 time=80>
<meta message set_tempo tempo=390269 time=40>
note_on channel=0 note=57 velocity=0 time=0
note_on channel=0 note=45 velocity=0 time=0
note_on channel=0 note=33 velocity=0 time=0
note_on channel=0 note=63 velocity=89 time=0
note_on channel=0 note=32 velocity=78 time=0
note_on channel=0 note=44 velocity=78 time=0
control_change channel=0 control=64 value=0 time=11
control_change channel=0 control=64 value=127 time=63
<meta message set_tempo tempo=391517 time=46>
note_on channel=0 note=63 velocity=0 time=0
note_on channel=0 note=61 velocity=75 time=0
<meta message set_tempo tempo=392747 time=120>
note_on channel=0 note=61 velocity=0 time=0
note_on channel=0 note=68 velocity=74 time=0
<meta message set_tempo tempo=394011 time=80>
note_on channel=0 note=68 velocity=0 time=40
note_on channel=0 note=56 velocity=73 time=0
<meta message set_tempo tempo=395257 time=80>
note_on channel=0 note=56 velocity=0 time=40
note_on channel=0 note=44 velocity=0 time=0
note_on channel=0 note=32 velocity=0 time=0
note_on channel=0 note=63 velocity=83 time=0
note_on channel=0 note=31 velocity=72 time=0
note_on channel=0 note=43 velocity=72 time=0
control_change channel=0 control=64 value=0 time=11
<meta message set_tempo tempo=396537 time=29>
note_on channel=0 note=63 velocity=0 time=80
note_on channel=0 note=61 velocity=71 time=0
control_change channel=0 control=64 value=127 time=0
<meta message set_tempo tempo=397799 time=40>
<meta message set_tempo tempo=399095 time=80>
note_on channel=0 note=61 velocity=0 time=0
note_on channel=0 note=67 velocity=71 time=0
<meta message set_tempo tempo=400374 time=120>
note_on channel=0 note=67 velocity=0 time=0
note_on channel=0 note=55 velocity=70 time=0
<meta message set_tempo tempo=402982 time=80>
<meta message set_tempo tempo=405625 time=40>
note_on channel=0 note=55 velocity=0 time=0
note_on channel=0 note=43 velocity=0 time=0
note_on channel=0 note=31 velocity=0 time=0
note_on channel=0 note=63 velocity=79 time=0
note_on channel=0 note=32 velocity=69 time=0
note_on channel=0 note=44 velocity=69 time=0
control_change channel=0 control=64 value=0 time=17
<meta message set_tempo tempo=408302 time=23>
<meta message set_tempo tempo=411015 time=40>
control_change channel=0 control=64 value=127 time=34
<meta message set_tempo tempo=413765 time=6>
note_on channel=0 note=63 velocity=0 time=0
note_on channel=0 note=61 velocity=68 time=0
<meta message set_tempo tempo=416580 time=40>
<meta message set_tempo tempo=419404 time=40>
<meta message set_tempo tempo=422268 time=40>
note_on channel=0 note=61 velocity=0 time=0
note_on channel=0 note=68 velocity=67 time=0
<meta message set_tempo tempo=425170 time=40>
<meta message set_tempo tempo=428113 time=40>
<meta message set_tempo tempo=431096 time=40>
note_on channel=0 note=68 velocity=0 time=0
note_on channel=0 note=56 velocity=66 time=0
<meta message set_tempo tempo=435635 time=40>
<meta message set_tempo tempo=435635 time=40>
<meta message set_tempo tempo=440302 time=40>
note_on channel=0 note=56 velocity=0 time=0
note_on channel=0 note=63 velocity=75 time=0
control_change channel=0 control=64 value=0 time=14
<meta message set_tempo tempo=446661 time=26>
<meta message set_tempo tempo=453206 time=40>
<meta message set_tempo tempo=459946 time=40>
note_on channel=0 note=63 velocity=0 time=0
note_on channel=0 note=60 velocity=63 time=0
control_change channel=0 control=64 value=127 time=0
<meta message set_tempo tempo=466890 time=40>
<meta message set_tempo tempo=474046 time=40>
<meta message set_tempo tempo=481425 time=40>
note_on channel=0 note=60 velocity=0 time=0
note_on channel=0 note=68 velocity=63 time=0
<meta message set_tempo tempo=489037 time=40>
<meta message set_tempo tempo=496894 time=40>
<meta message set_tempo tempo=505008 time=40>
note_on channel=0 note=68 velocity=0 time=0
note_on channel=0 note=56 velocity=62 time=0
<meta message set_tempo tempo=513391 time=40>
<meta message key_signature key='Db' time=80>
<meta message set_tempo tempo=662983 time=0>
<meta message marker text='Largo' time=0>
note_on channel=0 note=56 velocity=0 time=0
note_on channel=0 note=44 velocity=0 time=0
note_on channel=0 note=32 velocity=0 time=0
control_change channel=0 control=64 value=0 time=0
note_on channel=0 note=37 velocity=95 time=0
<meta message set_tempo tempo=821918 time=40>
<meta message set_tempo tempo=784314 time=40>
control_change channel=0 control=64 value=127 time=26
<meta message set_tempo tempo=750000 time=14>
<meta message set_tempo tempo=714286 time=40>
note_on channel=0 note=37 velocity=0 time=0
note_on channel=0 note=44 velocity=55 time=0
<meta message set_tempo tempo=685714 time=20>
<meta message set_tempo tempo=681818 time=120>
note_on channel=0 note=44 velocity=0 time=20
note_on channel=0 note=49 velocity=56 time=0
<meta message set_tempo tempo=677966 time=60>
note_on channel=0 note=49 velocity=0 time=100
note_on channel=0 note=53 velocity=56 time=0
<meta message set_tempo tempo=674157 time=20>
<meta message set_tempo tempo=670391 time=80>
note_on channel=0 note=53 velocity=0 time=60
note_on channel=0 note=56 velocity=58 time=0
<meta message set_tempo tempo=666667 time=60>
<meta message set_tempo tempo=662983 time=80>
note_on channel=0 note=56 velocity=0 time=20
note_on channel=0 note=61 velocity=59 time=0
<meta message set_tempo tempo=659341 time=100>
note_on channel=0 note=61 velocity=0 time=60
note_on channel=0 note=65 velocity=59 time=0
<meta message set_tempo tempo=655738 time=20>
note_on channel=0 note=65 velocity=0 time=140
note_on channel=0 note=61 velocity=57 time=0
<meta message set_tempo tempo=659341 time=20>
<meta message set_tempo tempo=662983 time=120>
note_on channel=0 note=61 velocity=0 time=20
note_on channel=0 note=56 velocity=52 time=0
<meta message set_tempo tempo=666667 time=100>
note_on channel=0 note=56 velocity=0 time=60
note_on channel=0 note=53 velocity=49 time=0
<meta message set_tempo tempo=670391 time=60>
note_on channel=0 note=53 velocity=0 time=100
note_on channel=0 note=49 velocity=46 time=0
<meta message set_tempo tempo=674157 time=20>
<meta message set_tempo tempo=677966 time=120>
note_on channel=0 note=49 velocity=0 time=20
note_on channel=0 note=44 velocity=41 time=0
<meta message set_tempo tempo=681818 time=60>
note_on channel=0 note=44 velocity=0 time=100
note_on channel=0 note=37 velocity=40 time=0
<meta message set_tempo tempo=677966 time=60>
note_on channel=0 note=37 velocity=0 time=100
note_on channel=0 note=44 velocity=41 time=0
<meta message set_tempo tempo=674157 time=60>
note_on channel=0 note=44 velocity=0 time=100
note_on channel=0 note=49 velocity=42 time=0
<meta message set_tempo tempo=670391 time=60>
note_on channel=0 note=49 velocity=0 time=100
note_on channel=0 note=53 velocity=43 time=0
<meta message set_tempo tempo=666667 time=60>
note_on channel=0 note=53 velocity=0 time=100
note_on channel=0 note=56 velocity=44 time=0
<meta message set_tempo tempo=662983 time=60>
note_on channel=0 note=56 velocity=0 time=100
note_on channel=0 note=61 velocity=45 time=0
<meta message set_tempo tempo=659341 time=60>
note_on channel=0 note=61 velocity=0 time=100
note_on channel=0 note=65 velocity=45 time=0
<meta message set_tempo tempo=662983 time=60>
note_on channel=0 note=65 velocity=0 time=100
note_on channel=0 note=61 velocity=45 time=0
<meta message set_tempo tempo=666667 time=20>
note_on channel=0 note=61 velocity=0 time=140
note_on channel=0 note=56 velocity=44 time=0
<meta message set_tempo tempo=670391 time=20>
<meta message set_tempo tempo=674157 time=120>
note_on channel=0 note=56 velocity=0 time=20
note_on channel=0 note=53 velocity=43 time=0
<meta message set_tempo tempo=677966 time=140>
note_on channel=0 note=53 velocity=0 time=20
note_on channel=0 note=49 velocity=42 time=0
<meta message set_tempo tempo=681818 time=100>
note_on channel=0 note=49 velocity=0 time=60
note_on channel=0 note=44 velocity=41 time=0
<meta message set_tempo tempo=685714 time=60>
<meta message set_tempo tempo=652174 time=20>
<meta message set_tempo tempo=681818 time=40>
<meta message set_tempo tempo=706048 time=40>
note_on channel=0 note=68 velocity=45 time=0
control_change channel=0 control=64 value=0 time=0
note_on channel=0 note=37 velocity=25 time=0
<meta message set_tempo tempo=702001 time=80>
control_change channel=0 control=64 value=127 time=33
note_on channel=0 note=37 velocity=0 time=47
note_on channel=0 note=44 velocity=0 time=0
note_on channel=0 note=56 velocity=26 time=0
<meta message set_tempo tempo=698080 time=40>
<meta message set_tempo tempo=694203 time=120>
note_on channel=0 note=56 velocity=0 time=0
note_on channel=0 note=60 velocity=27 time=0
<meta message set_tempo tempo=690369 time=120>
note_on channel=0 note=60 velocity=0 time=40
note_on channel=0 note=63 velocity=28 time=0
<meta message set_tempo tempo=686499 time=40>
note_on channel=0 note=63 velocity=0 time=120
note_on channel=0 note=60 velocity=28 time=0
note_on channel=0 note=60 velocity=0 time=160
note_on channel=0 note=56 velocity=27 time=0
<meta message set_tempo tempo=675295 time=160>
note_on channel=0 note=56 velocity=0 time=0
note_on channel=0 note=68 velocity=0 time=0
note_on channel=0 note=70 velocity=42 time=0
note_on channel=0 note=49 velocity=27 time=0
note_on channel=0 note=70 velocity=0 time=60
note_on channel=0 note=72 velocity=42 time=0
<meta message set_tempo tempo=748596 time=60>
note_on channel=0 note=72 velocity=0 time=0
note_on channel=0 note=70 velocity=46 time=0
note_on channel=0 note=49 velocity=0 time=40
note_on channel=0 note=56 velocity=27 time=0
<meta message set_tempo tempo=675295 time=80>
note_on channel=0 note=70 velocity=0 time=0
note_on channel=0 note=68 velocity=45 time=0
note_on channel=0 note=56 velocity=0 time=80
note_on channel=0 note=60 velocity=28 time=0
note_on channel=0 note=60 velocity=0 time=160
note_on channel=0 note=68 velocity=0 time=0
note_on channel=0 note=73 velocity=45 time=0
note_on channel=0 note=66 velocity=28 time=0
note_on channel=0 note=66 velocity=0 time=160
note_on channel=0 note=60 velocity=27 time=0
<meta message set_tempo tempo=718305 time=80>
note_on channel=0 note=73 velocity=0 time=0
note_on channel=0 note=75 velocity=48 time=0
note_on channel=0 note=60 velocity=0 time=80
note_on channel=0 note=56 velocity=26 time=0
<meta message set_tempo tempo=694203 time=160>
note_on channel=0 note=56 velocity=0 time=0
note_on channel=0 note=75 velocity=0 time=0
note_on channel=0 note=77 velocity=51 time=0
note_on channel=0 note=49 velocity=27 time=0
control_change channel=0 control=64 value=0 time=6
control_change channel=0 control=64 value=127 time=47
note_on channel=0 note=49 velocity=0 time=107
note_on channel=0 note=56 velocity=28 time=0
note_on channel=0 note=56 velocity=0 time=160
note_on channel=0 note=61 velocity=28 time=0
note_on channel=0 note=61 velocity=0 time=160
note_on channel=0 note=65 velocity=29 time=0
note_on channel=0 note=65 velocity=0 time=160
note_on channel=0 note=61 velocity=30 time=0
note_on channel=0 note=61 velocity=0 time=160
note_on channel=0 note=56 velocity=28 time=0
<meta message set_tempo tempo=682749 time=160>
note_on channel=0 note=56 velocity=0 time=0
note_on channel=0 note=77 velocity=0 time=0
note_on channel=0 note=80 velocity=56 time=0
note_on channel=0 note=49 velocity=27 time=0
control_change channel=0 control=64 value=0 time=16
control_change channel=0 control=64 value=127 time=44
note_on channel=0 note=49 velocity=0 time=100
note_on channel=0 note=56 velocity=28 time=0
note_on channel=0 note=56 velocity=0 time=160
note_on channel=0 note=65 velocity=29 time=0
note_on channel=0 note=65 velocity=0 time=160
note_on channel=0 note=68 velocity=49 time=0
note_on channel=0 note=65 velocity=30 time=160
<meta message set_tempo tempo=706048 time=80>
note_on channel=0 note=65 velocity=0 time=80
note_on channel=0 note=56 velocity=29 time=0
note_on channel=0 note=56 velocity=0 time=160
note_on channel=0 note=68 velocity=0 time=0
note_on channel=0 note=80 velocity=0 time=0
note_on channel=0 note=78 velocity=53 time=0
note_on channel=0 note=66 velocity=30 time=0
control_change channel=0 control=64 value=0 time=10
control_change channel=0 control=64 value=127 time=110
note_on channel=0 note=66 velocity=0 time=40
note_on channel=0 note=63 velocity=26 time=0
note_on channel=0 note=63 velocity=0 time=160
note_on channel=0 note=56 velocity=26 time=0
<meta message set_tempo tempo=698080 time=160>
note_on channel=0 note=56 velocity=0 time=0
note_on channel=0 note=78 velocity=0 time=0
note_on channel=0 note=77 velocity=51 time=0
note_on channel=0 note=65 velocity=30 time=0
control_change channel=0 control=64 value=0 time=16
control_change channel=0 control=64 value=127 time=83
note_on channel=0 note=65 velocity=0 time=61
note_on channel=0 note=61 velocity=26 time=0
note_on channel=0 note=61 velocity=0 time=160
note_on channel=0 note=56 velocity=26 time=0
<meta message set_tempo tempo=690369 time=160>
note_on channel=0 note=56 velocity=0 time=0
note_on channel=0 note=77 velocity=0 time=0
note_on channel=0 note=75 velocity=49 time=0
note_on channel=0 note=63 velocity=30 time=0
control_change channel=0 control=64 value=0 time=15
control_change channel=0 control=64 value=127 time=70
note_on channel=0 note=63 velocity=0 time=75
note_on channel=0 note=60 velocity=23 time=0
note_on channel=0 note=60 velocity=0 time=160
note_on channel=0 note=56 velocity=23 time=0
<meta message set_tempo tempo=718563 time=160>
note_on channel=0 note=56 velocity=0 time=0
note_on channel=0 note=75 velocity=0 time=0
note_on channel=0 note=77 velocity=51 time=0
note_on channel=0 note=61 velocity=29 time=0
control_change channel=0 control=64 value=0 time=7
control_change channel=0 control=64 value=127 time=64
note_on channel=0 note=61 velocity=0 time=89
note_on channel=0 note=56 velocity=24 time=0
note_on channel=0 note=56 velocity=0 time=160
note_on channel=0 note=53 velocity=24 time=0
<meta message set_tempo tempo=937500 time=40>
note_on channel=0 note=77 velocity=0 time=0
note_on channel=0 note=73 velocity=47 time=0
note_on channel=0 note=73 velocity=0 time=120
note_on channel=0 note=53 velocity=0 time=0
note_on channel=0 note=68 velocity=48 time=0
note_on channel=0 note=44 velocity=26 time=0
control_change channel=0 control=64 value=0 time=7
<meta message set_tempo tempo=718563 time=33>
control_change channel=0 control=64 value=127 time=24
note_on channel=0 note=44 velocity=0 time=96
note_on channel=0 note=51 velocity=27 time=0
note_on channel=0 note=51 velocity=0 time=160
note_on channel=0 note=56 velocity=27 time=0
<meta message set_tempo tempo=706048 time=160>
note_on channel=0 note=56 velocity=0 time=0
note_on channel=0 note=60 velocity=28 time=0
note_on channel=0 note=60 velocity=0 time=160
note_on channel=0 note=56 velocity=27 time=0
<meta message set_tempo tempo=726656 time=80>
note_on channel=0 note=56 velocity=0 time=80
note_on channel=0 note=51 velocity=27 time=0
<meta message set_tempo tempo=710059 time=160>
note_on channel=0 note=51 velocity=0 time=0
note_on channel=0 note=68 velocity=0 time=0
note_on channel=0 note=70 velocity=48 time=0
note_on channel=0 note=42 velocity=27 time=0
control_change channel=0 control=64 value=0 time=9
control_change channel=0 control=64 value=127 time=104
note_on channel=0 note=42 velocity=0 time=47
note_on channel=0 note=54 velocity=27 time=0
note_on channel=0 note=54 velocity=0 time=160
note_on channel=0 note=58 velocity=28 time=0
note_on channel=0 note=58 velocity=0 time=160
note_on channel=0 note=61 velocity=29 time=0
note_on channel=0 note=61 velocity=0 time=160
note_on channel=0 note=58 velocity=28 time=0
note_on channel=0 note=58 velocity=0 time=160
note_on channel=0 note=54 velocity=28 time=0
<meta message set_tempo tempo=710059 time=160>
note_on channel=0 note=54 velocity=0 time=0
note_on channel=0 note=46 velocity=27 time=0
control_change channel=0 control=64 value=0 time=7
control_change channel=0 control=64 value=127 time=56
note_on channel=0 note=46 velocity=0 time=97
note_on channel=0 note=53 velocity=27 time=0
note_on channel=0 note=53 velocity=0 time=160
note_on channel=0 note=58 velocity=28 time=0
note_on channel=0 note=58 velocity=0 time=160
note_on channel=0 note=62 velocity=28 time=0
note_on channel=0 note=62 velocity=0 time=160
note_on channel=0 note=58 velocity=28 time=0
note_on channel=0 note=58 velocity=0 time=160
note_on channel=0 note=53 velocity=27 time=0
<meta message set_tempo tempo=675295 time=160>
note_on channel=0 note=53 velocity=0 time=0
note_on channel=0 note=70 velocity=0 time=0
note_on channel=0 note=71 velocity=42 time=0
note_on channel=0 note=46 velocity=28 time=0
control_change channel=0 control=64 value=0 time=15
note_on channel=0 note=71 velocity=0 time=45
note_on channel=0 note=73 velocity=42 time=0
control_change channel=0 control=64 value=127 time=6
<meta message set_tempo tempo=748596 time=54>
note_on channel=0 note=73 velocity=0 time=0
note_on channel=0 note=71 velocity=46 time=0
note_on channel=0 note=46 velocity=0 time=40
note_on channel=0 note=58 velocity=29 time=0
<meta message set_tempo tempo=693642 time=80>
note_on channel=0 note=71 velocity=0 time=0
note_on channel=0 note=70 velocity=45 time=0
note_on channel=0 note=58 velocity=0 time=80
note_on channel=0 note=62 velocity=30 time=0
note_on channel=0 note=62 velocity=0 time=160
note_on channel=0 note=70 velocity=0 time=0
note_on channel=0 note=75 velocity=45 time=0
note_on channel=0 note=68 velocity=33 time=0
note_on channel=0 note=68 velocity=0 time=160
note_on channel=0 note=62 velocity=31 time=0
<meta message set_tempo tempo=718305 time=80>
note_on channel=0 note=75 velocity=0 time=0
note_on channel=0 note=77 velocity=48 time=0
note_on channel=0 note=62 velocity=0 time=80
note_on channel=0 note=58 velocity=29 time=0
<meta message set_tempo tempo=694203 time=160>
note_on channel=0 note=58 velocity=0 time=0
note_on channel=0 note=77 velocity=0 time=0
note_on channel=0 note=78 velocity=51 time=0
note_on channel=0 note=51 velocity=34 time=0
control_change channel=0 control=64 value=0 time=8
control_change channel=0 control=64 value=127 time=45
note_on channel=0 note=51 velocity=0 time=107
note_on channel=0 note=66 velocity=31 time=0
note_on channel=0 note=66 velocity=0 time=160
note_on channel=0 note=58 velocity=28 time=0
note_on channel=0 note=58 velocity=0 time=160
note_on channel=0 note=78 velocity=0 time=0
note_on channel=0 note=77 velocity=50 time=0
note_on channel=0 note=53 velocity=32 time=0
control_change channel=0 control=64 value=0 time=10
control_change channel=0 control=64 value=127 time=59
note_on channel=0 note=53 velocity=0 time=91
note_on channel=0 note=65 velocity=30 time=0
note_on channel=0 note=65 velocity=0 time=160
note_on channel=0 note=57 velocity=28 time=0
<meta message set_tempo tempo=682749 time=160>
note_on channel=0 note=57 velocity=0 time=0
note_on channel=0 note=77 velocity=0 time=0
note_on channel=0 note=75 velocity=51 time=0
note_on channel=0 note=54 velocity=31 time=0
control_change channel=0 control=64 value=0 time=14
control_change channel=0 control=64 value=127 time=46
note_on channel=0 note=54 velocity=0 time=100
note_on channel=0 note=63 velocity=28 time=0
note_on channel=0 note=63 velocity=0 time=160
note_on channel=0 note=58 velocity=29 time=0
note_on channel=0 note=58 velocity=0 time=160
note_on channel=0 note=75 velocity=0 time=0
note_on channel=0 note=77 velocity=49 time=0
note_on channel=0 note=56 velocity=30 time=0
control_change channel=0 control=64 value=0 time=14
control_change channel=0 control=64 value=127 time=49
note_on channel=0 note=56 velocity=0 time=97
note_on channel=0 note=66 velocity=27 time=0
<meta message set_tempo tempo=706048 time=80>
note_on channel=0 note=66 velocity=0 time=80
note_on channel=0 note=60 velocity=27 time=0
note_on channel=0 note=60 velocity=0 time=160
note_on channel=0 note=77 velocity=0 time=0
note_on channel=0 note=73 velocity=48 time=0
note_on channel=0 note=49 velocity=25 time=0
control_change channel=0 control=64 value=0 time=6
control_change channel=0 control=64 value=127 time=79
note_on channel=0 note=49 velocity=0 time=75
note_on channel=0 note=56 velocity=27 time=0
note_on channel=0 note=56 velocity=0 time=160
note_on channel=0 note=61 velocity=29 time=0
note_on channel=0 note=61 velocity=0 time=160
note_on channel=0 note=65 velocity=30 time=0
note_on channel=0 note=65 velocity=0 time=160
note_on channel=0 note=61 velocity=29 time=0
<meta message set_tempo tempo=774194 time=80>
note_on channel=0 note=73 velocity=0 time=0
note_on channel=0 note=72 velocity=49 time=0
note_on channel=0 note=72 velocity=0 time=60
note_on channel=0 note=73 velocity=45 time=0
note_on channel=0 note=61 velocity=0 time=20
note_on channel=0 note=56 velocity=27 time=0
note_on channel=0 note=73 velocity=0 time=40
note_on channel=0 note=75 velocity=45 time=0
note_on channel=0 note=75 velocity=0 time=60
note_on channel=0 note=73 velocity=45 time=0
<meta message set_tempo tempo=722892 time=60>
note_on channel=0 note=73 velocity=0 time=0
note_on channel=0 note=56 velocity=0 time=0
note_on channel=0 note=77 velocity=50 time=0
note_on channel=0 note=51 velocity=27 time=0
control_change channel=0 control=64 value=0 time=14
control_change channel=0 control=64 value=127 time=46
note_on channel=0 note=51 velocity=0 time=100
note_on channel=0 note=55 velocity=28 time=0
note_on channel=0 note=55 velocity=0 time=160
note_on channel=0 note=61 velocity=29 time=0
note_on channel=0 note=61 velocity=0 time=160
note_on channel=0 note=63 velocity=30 time=0
note_on channel=0 note=63 velocity=0 time=160
note_on channel=0 note=61 velocity=29 time=0
<meta message set_tempo tempo=863309 time=80>
note_on channel=0 note=77 velocity=0 time=0
note_on channel=0 note=75 velocity=49 time=0
note_on channel=0 note=61 velocity=0 time=80
note_on channel=0 note=55 velocity=27 time=0
<meta message set_tempo tempo=710059 time=160>
note_on channel=0 note=55 velocity=0 time=0
note_on channel=0 note=75 velocity=0 time=0
note_on channel=0 note=75 velocity=47 time=0
note_on channel=0 note=44 velocity=23 time=0
control_change channel=0 control=64 value=0 time=17
control_change channel=0 control=64 value=127 time=89
note_on channel=0 note=44 velocity=0 time=54
note_on channel=0 note=51 velocity=25 time=0
note_on channel=0 note=51 velocity=0 time=160
note_on channel=0 note=56 velocity=27 time=0
note_on channel=0 note=56 velocity=0 time=160
note_on channel=0 note=60 velocity=28 time=0
note_on channel=0 note=60 velocity=0 time=160
note_on channel=0 note=56 velocity=27 time=0
note_on channel=0 note=56 velocity=0 time=160
note_on channel=0 note=51 velocity=27 time=0
<meta message set_tempo tempo=726656 time=120>
<meta message set_tempo tempo=705882 time=40>
note_on channel=0 note=51 velocity=0 time=0
note_on channel=0 note=44 velocity=25 time=0
control_change channel=0 control=64 value=0 time=14
control_change channel=0 control=64 value=127 time=78
<meta message set_tempo tempo=730905 time=28>
note_on channel=0 note=44 velocity=0 time=40
note_on channel=0 note=51 velocity=25 time=0
<meta message set_tempo tempo=735294 time=80>
note_on channel=0 note=51 velocity=0 time=80
note_on channel=0 note=54 velocity=27 time=0
<meta message set_tempo tempo=736196 time=120>
<meta message set_tempo tempo=740741 time=40>
note_on channel=0 note=54 velocity=0 time=0
note_on channel=0 note=58 velocity=28 time=0
<meta message set_tempo tempo=745342 time=40>
<meta message set_tempo tempo=750000 time=40>
<meta message set_tempo tempo=754717 time=40>
<meta message set_tempo tempo=759494 time=40>
note_on channel=0 note=58 velocity=0 time=0
note_on channel=0 note=54 velocity=26 time=0
<meta message set_tempo tempo=764331 time=40>
<meta message set_tempo tempo=839161 time=40>
note_on channel=0 note=54 velocity=0 time=80
note_on channel=0 note=51 velocity=25 time=0
note_on channel=0 note=51 velocity=0 time=160
note_on channel=0 note=75 velocity=0 time=0
note_on channel=0 note=68 velocity=45 time=0
note_on channel=0 note=44 velocity=24 time=0
control_change channel=0 control=64 value=0 time=11
control_change channel=0 control=64 value=127 time=85
<meta message set_tempo tempo=722892 time=4>
note_on channel=0 note=44 velocity=0 time=60
note_on channel=0 note=51 velocity=26 time=0
<meta message set_tempo tempo=718563 time=60>
note_on channel=0 note=51 velocity=0 time=100
note_on channel=0 note=56 velocity=27 time=0
<meta message set_tempo tempo=714286 time=20>
<meta message set_tempo tempo=710059 time=120>
note_on channel=0 note=56 velocity=0 time=20
note_on channel=0 note=60 velocity=28 time=0
<meta message set_tempo tempo=686499 time=40>
note_on channel=0 note=60 velocity=0 time=120
note_on channel=0 note=56 velocity=28 time=0
note_on channel=0 note=56 velocity=0 time=160
note_on channel=0 note=51 velocity=27 time=0
<meta message set_tempo tempo=675295 time=160>
note_on channel=0 note=51 velocity=0 time=0
note_on channel=0 note=68 velocity=0 time=0
note_on channel=0 note=70 velocity=42 time=0
note_on channel=0 note=44 velocity=27 time=0
note_on channel=0 note=70 velocity=0 time=60
note_on channel=0 note=72 velocity=42 time=0
<meta message set_tempo tempo=748596 time=60>
note_on channel=0 note=72 velocity=0 time=0
note_on channel=0 note=70 velocity=46 time=0
note_on channel=0 note=44 velocity=0 time=40
note_on channel=0 note=56 velocity=27 time=0
<meta message set_tempo tempo=685714 time=80>
note_on channel=0 note=70 velocity=0 time=0
note_on channel=0 note=68 velocity=45 time=0
note_on channel=0 note=56 velocity=0 time=80
note_on channel=0 note=60 velocity=28 time=0
note_on channel=0 note=60 velocity=0 time=160
note_on channel=0 note=68 velocity=0 time=0
note_on channel=0 note=73 velocity=45 time=0
note_on channel=0 note=66 velocity=28 time=0
note_on channel=0 note=66 velocity=0 time=160
note_on channel=0 note=60 velocity=27 time=0
<meta message set_tempo tempo=718305 time=80>
note_on channel=0 note=73 velocity=0 time=0
note_on channel=0 note=75 velocity=48 time=0
note_on channel=0 note=60 velocity=0 time=80
note_on channel=0 note=58 velocity=26 time=0
<meta message set_tempo tempo=694203 time=160>
note_on channel=0 note=58 velocity=0 time=0
note_on channel=0 note=75 velocity=0 time=0
note_on channel=0 note=77 velocity=51 time=0
note_on channel=0 note=49 velocity=27 time=0
control_change channel=0 control=64 value=0 time=7
control_change channel=0 control=64 value=127 time=85
note_on channel=0 note=49 velocity=0 time=68
note_on channel=0 note=56 velocity=28 time=0
note_on channel=0 note=56 velocity=0 time=160
note_on channel=0 note=61 velocity=28 time=0
note_on channel=0 note=61 velocity=0 time=160
note_on channel=0 note=65 velocity=29 time=0
note_on channel=0 note=65 velocity=0 time=160
note_on channel=0 note=61 velocity=30 time=0
note_on channel=0 note=61 velocity=0 time=160
note_on channel=0 note=56 velocity=28 time=0
<meta message set_tempo tempo=682749 time=160>
note_on channel=0 note=56 velocity=0 time=0
note_on channel=0 note=77 velocity=0 time=0
note_on channel=0 note=80 velocity=56 time=0
note_on channel=0 note=49 velocity=27 time=0
control_change channel=0 control=64 value=0 time=15
control_change channel=0 control=64 value=127 time=91
note_on channel=0 note=49 velocity=0 time=54
note_on channel=0 note=56 velocity=28 time=0
note_on channel=0 note=56 velocity=0 time=160
note_on channel=0 note=65 velocity=29 time=0
note_on channel=0 note=65 velocity=0 time=160
note_on channel=0 note=68 velocity=49 time=0
note_on channel=0 note=65 velocity=30 time=160
<meta message set_tempo tempo=706048 time=80>
note_on channel=0 note=65 velocity=0 time=80
note_on channel=0 note=56 velocity=29 time=0
note_on channel=0 note=56 velocity=0 time=160
note_on channel=0 note=68 velocity=0 time=0
note_on channel=0 note=80 velocity=0 time=0
note_on channel=0 note=78 velocity=53 time=0
note_on channel=0 note=66 velocity=30 time=0
control_change channel=0 control=64 value=0 time=17
control_change channel=0 control=64 value=127 time=57
note_on channel=0 note=66 velocity=0 time=86
note_on channel=0 note=63 velocity=26 time=0
note_on channel=0 note=63 velocity=0 time=160
note_on channel=0 note=56 velocity=26 time=0
<meta message set_tempo tempo=698080 time=160>
note_on channel=0 note=56 velocity=0 time=0
note_on channel=0 note=78 velocity=0 time=0
note_on channel=0 note=77 velocity=51 time=0
note_on channel=0 note=65 velocity=30 time=0
control_change channel=0 control=64 value=0 time=12
control_change channel=0 control=64 value=127 time=87
note_on channel=0 note=65 velocity=0 time=61
note_on channel=0 note=61 velocity=26 time=0
note_on channel=0 note=61 velocity=0 time=160
note_on channel=0 note=56 velocity=26 time=0
<meta message set_tempo tempo=690369 time=160>
note_on channel=0 note=56 velocity=0 time=0
note_on channel=0 note=77 velocity=0 time=0
note_on channel=0 note=75 velocity=49 time=0
note_on channel=0 note=63 velocity=30 time=0
control_change channel=0 control=64 value=0 time=21
control_change channel=0 control=64 value=127 time=64
note_on channel=0 note=63 velocity=0 time=75
note_on channel=0 note=60 velocity=23 time=0
<meta message set_tempo tempo=779221 time=80>
note_on channel=0 note=75 velocity=0 time=0
note_on channel=0 note=77 velocity=47 time=0
note_on channel=0 note=77 velocity=0 time=60
note_on channel=0 note=75 velocity=47 time=0
note_on channel=0 note=60 velocity=0 time=20
note_on channel=0 note=56 velocity=23 time=0
note_on channel=0 note=75 velocity=0 time=40
note_on channel=0 note=73 velocity=47 time=0
note_on channel=0 note=73 velocity=0 time=60
note_on channel=0 note=75 velocity=47 time=0
<meta message set_tempo tempo=754717 time=60>
note_on channel=0 note=75 velocity=0 time=0
note_on channel=0 note=56 velocity=0 time=0
note_on channel=0 note=77 velocity=51 time=0
note_on channel=0 note=61 velocity=29 time=0
control_change channel=0 control=64 value=0 time=7
control_change channel=0 control=64 value=127 time=64
note_on channel=0 note=61 velocity=0 time=89
note_on channel=0 note=56 velocity=24 time=0
note_on channel=0 note=56 velocity=0 time=160
note_on channel=0 note=53 velocity=24 time=0
<meta message set_tempo tempo=952381 time=40>
note_on channel=0 note=77 velocity=0 time=0
note_on channel=0 note=73 velocity=47 time=0
<meta message set_tempo tempo=718563 time=120>
note_on channel=0 note=73 velocity=0 time=0
note_on channel=0 note=53 velocity=0 time=0
note_on channel=0 note=68 velocity=48 time=0
note_on channel=0 note=44 velocity=26 time=0
control_change channel=0 control=64 value=0 time=9
control_change channel=0 control=64 value=127 time=55
note_on channel=0 note=44 velocity=0 time=96
note_on channel=0 note=51 velocity=27 time=0
note_on channel=0 note=51 velocity=0 time=160
note_on channel=0 note=56 velocity=27 time=0
<meta message set_tempo tempo=706048 time=160>
note_on channel=0 note=56 velocity=0 time=0
note_on channel=0 note=60 velocity=28 time=0
note_on channel=0 note=60 velocity=0 time=160
note_on channel=0 note=56 velocity=27 time=0
<meta message set_tempo tempo=726656 time=80>
note_on channel=0 note=56 velocity=0 time=80
note_on channel=0 note=51 velocity=27 time=0
<meta message set_tempo tempo=710059 time=160>
note_on channel=0 note=51 velocity=0 time=0
note_on channel=0 note=68 velocity=0 time=0
note_on channel=0 note=70 velocity=48 time=0
note_on channel=0 note=42 velocity=27 time=0
control_change channel=0 control=64 value=0 time=8
control_change channel=0 control=64 value=127 time=77
note_on channel=0 note=42 velocity=0 time=75
note_on channel=0 note=54 velocity=27 time=0
note_on channel=0 note=54 velocity=0 time=160
note_on channel=0 note=58 velocity=28 time=0
note_on channel=0 note=58 velocity=0 time=160
note_on channel=0 note=61 velocity=29 time=0
note_on channel=0 note=61 velocity=0 time=160
note_on channel=0 note=58 velocity=28 time=0
note_on channel=0 note=58 velocity=0 time=160
note_on channel=0 note=54 velocity=28 time=0
note_on channel=0 note=54 velocity=0 time=160
note_on channel=0 note=46 velocity=27 time=0
control_change channel=0 control=64 value=0 time=7
control_change channel=0 control=64 value=127 time=56
note_on channel=0 note=46 velocity=0 time=97
note_on channel=0 note=53 velocity=27 time=0
note_on channel=0 note=53 velocity=0 time=160
note_on channel=0 note=58 velocity=28 time=0
note_on channel=0 note=58 velocity=0 time=160
note_on channel=0 note=62 velocity=28 time=0
note_on channel=0 note=62 velocity=0 time=160
note_on channel=0 note=58 velocity=28 time=0
note_on channel=0 note=58 velocity=0 time=160
note_on channel=0 note=53 velocity=27 time=0
<meta message set_tempo tempo=675295 time=160>
note_on channel=0 note=53 velocity=0 time=0
note_on channel=0 note=70 velocity=0 time=0
note_on channel=0 note=71 velocity=42 time=0
note_on channel=0 note=46 velocity=28 time=0
control_change channel=0 control=64 value=0 time=14
note_on channel=0 note=71 velocity=0 time=46
note_on channel=0 note=73 velocity=42 time=0
control_change channel=0 control=64 value=127 time=9
<meta message set_tempo tempo=748596 time=51>
note_on channel=0 note=73 velocity=0 time=0
note_on channel=0 note=71 velocity=46 time=0
note_on channel=0 note=46 velocity=0 time=40
note_on channel=0 note=58 velocity=29 time=0
<meta message set_tempo tempo=685714 time=80>
note_on channel=0 note=71 velocity=0 time=0
note_on channel=0 note=70 velocity=45 time=0
note_on channel=0 note=58 velocity=0 time=80
note_on channel=0 note=62 velocity=30 time=0
note_on channel=0 note=62 velocity=0 time=160
note_on channel=0 note=70 velocity=0 time=0
note_on channel=0 note=75 velocity=45 time=0
note_on channel=0 note=68 velocity=33 time=0
note_on channel=0 note=68 velocity=0 time=160
note_on channel=0 note=62 velocity=31 time=0
<meta message set_tempo tempo=718305 time=80>
note_on channel=0 note=75 velocity=0 time=0
note_on channel=0 note=77 velocity=48 time=0
note_on channel=0 note=62 velocity=0 time=80
note_on channel=0 note=58 velocity=29 time=0
<meta message set_tempo tempo=694203 time=160>
note_on channel=0 note=58 velocity=0 time=0
note_on channel=0 note=77 velocity=0 time=0
note_on channel=0 note=78 velocity=51 time=0
note_on channel=0 note=51 velocity=34 time=0
control_change channel=0 control=64 value=0 time=5
control_change channel=0 control=64 value=127 time=48
note_on channel=0 note=51 velocity=0 time=107
note_on channel=0 note=66 velocity=31 time=0
note_on channel=0 note=66 velocity=0 time=160
note_on channel=0 note=58 velocity=28 time=0
note_on channel=0 note=58 velocity=0 time=160
note_on channel=0 note=78 velocity=0 time=0
note_on channel=0 note=77 velocity=50 time=0
note_on channel=0 note=53 velocity=32 time=0
control_change channel=0 control=64 value=0 time=16
control_change channel=0 control=64 value=127 time=53
note_on channel=0 note=53 velocity=0 time=91
note_on channel=0 note=65 velocity=30 time=0
note_on channel=0 note=65 velocity=0 time=160
note_on channel=0 note=57 velocity=28 time=0
<meta message set_tempo tempo=682749 time=160>
note_on channel=0 note=57 velocity=0 time=0
note_on channel=0 note=77 velocity=0 time=0
note_on channel=0 note=75 velocity=51 time=0
note_on channel=0 note=54 velocity=31 time=0
control_change channel=0 control=64 value=0 time=15
control_change channel=0 control=64 value=127 time=45
note_on channel=0 note=54 velocity=0 time=100
note_on channel=0 note=63 velocity=28 time=0
note_on channel=0 note=63 velocity=0 time=160
note_on channel=0 note=58 velocity=29 time=0
note_on channel=0 note=58 velocity=0 time=160
note_on channel=0 note=75 velocity=0 time=0
note_on channel=0 note=77 velocity=49 time=0
note_on channel=0 note=56 velocity=30 time=0
control_change channel=0 control=64 value=0 time=14
control_change channel=0 control=64 value=127 time=49
note_on channel=0 note=56 velocity=0 time=97
note_on channel=0 note=66 velocity=27 time=0
<meta message set_tempo tempo=706048 time=80>
note_on channel=0 note=66 velocity=0 time=80
note_on channel=0 note=60 velocity=27 time=0
note_on channel=0 note=60 velocity=0 time=160
note_on channel=0 note=77 velocity=0 time=0
note_on channel=0 note=73 velocity=48 time=0
note_on channel=0 note=49 velocity=25 time=0
control_change channel=0 control=64 value=0 time=8
control_change channel=0 control=64 value=127 time=77
note_on channel=0 note=49 velocity=0 time=75
note_on channel=0 note=56 velocity=27 time=0
note_on channel=0 note=56 velocity=0 time=160
note_on channel=0 note=61 velocity=29 time=0
note_on channel=0 note=61 velocity=0 time=160
note_on channel=0 note=65 velocity=30 time=0
note_on channel=0 note=65 velocity=0 time=160
note_on channel=0 note=61 velocity=29 time=0
<meta message set_tempo tempo=800000 time=80>
note_on channel=0 note=73 velocity=0 time=0
note_on channel=0 note=67 velocity=49 time=0
note_on channel=0 note=67 velocity=0 time=60
note_on channel=0 note=68 velocity=45 time=0
note_on channel=0 note=61 velocity=0 time=20
note_on channel=0 note=56 velocity=27 time=0
note_on channel=0 note=68 velocity=0 time=40
note_on channel=0 note=70 velocity=45 time=0
note_on channel=0 note=70 velocity=0 time=60
note_on channel=0 note=68 velocity=45 time=0
<meta message set_tempo tempo=740741 time=60>
note_on channel=0 note=68 velocity=0 time=0
note_on channel=0 note=56 velocity=0 time=0
note_on channel=0 note=77 velocity=50 time=0
note_on channel=0 note=49 velocity=27 time=0
control_change channel=0 control=64 value=0 time=14
control_change channel=0 control=64 value=127 time=46
note_on channel=0 note=49 velocity=0 time=100
note_on channel=0 note=56 velocity=28 time=0
note_on channel=0 note=56 velocity=0 time=160
note_on channel=0 note=60 velocity=29 time=0
note_on channel=0 note=60 velocity=0 time=160
note_on channel=0 note=66 velocity=30 time=0
note_on channel=0 note=66 velocity=0 time=160
note_on channel=0 note=60 velocity=29 time=0
<meta message set_tempo tempo=869565 time=80>
note_on channel=0 note=77 velocity=0 time=0
note_on channel=0 note=75 velocity=49 time=0
note_on channel=0 note=60 velocity=0 time=80
note_on channel=0 note=56 velocity=27 time=0
<meta message set_tempo tempo=722892 time=160>
note_on channel=0 note=56 velocity=0 time=0
note_on channel=0 note=75 velocity=0 time=0
note_on channel=0 note=75 velocity=52 time=0
note_on channel=0 note=49 velocity=27 time=0
control_change channel=0 control=64 value=0 time=17
control_change channel=0 control=64 value=127 time=89
note_on channel=0 note=49 velocity=0 time=54
note_on channel=0 note=56 velocity=28 time=0
note_on channel=0 note=56 velocity=0 time=160
note_on channel=0 note=60 velocity=30 time=0
note_on channel=0 note=60 velocity=0 time=160
note_on channel=0 note=66 velocity=31 time=0
note_on channel=0 note=66 velocity=0 time=160
note_on channel=0 note=60 velocity=30 time=0
note_on channel=0 note=60 velocity=0 time=160
note_on channel=0 note=56 velocity=28 time=0
<meta message set_tempo tempo=726656 time=120>
note_on channel=0 note=56 velocity=0 time=40
note_on channel=0 note=75 velocity=0 time=0
note_on channel=0 note=73 velocity=52 time=0
note_on channel=0 note=49 velocity=27 time=0
control_change channel=0 control=64 value=0 time=12
control_change channel=0 control=64 value=127 time=73
<meta message set_tempo tempo=730905 time=35>
note_on channel=0 note=49 velocity=0 time=40
note_on channel=0 note=56 velocity=27 time=0
<meta message set_tempo tempo=735294 time=80>
note_on channel=0 note=56 velocity=0 time=80
note_on channel=0 note=61 velocity=28 time=0
<meta message set_tempo tempo=739645 time=40>
note_on channel=0 note=61 velocity=0 time=120
note_on channel=0 note=73 velocity=0 time=0
note_on channel=0 note=65 velocity=30 time=0
<meta message set_tempo tempo=744048 time=40>
<meta message set_tempo tempo=748596 time=120>
note_on channel=0 note=65 velocity=0 time=0
note_on channel=0 note=61 velocity=28 time=0
<meta message set_tempo tempo=710059 time=80>
note_on channel=0 note=80 velocity=60 time=0
note_on channel=0 note=61 velocity=0 time=80
note_on channel=0 note=56 velocity=27 time=0
<meta message set_tempo tempo=726656 time=160>
note_on channel=0 note=56 velocity=0 time=0
note_on channel=0 note=80 velocity=0 time=0
note_on channel=0 note=68 velocity=65 time=0
note_on channel=0 note=44 velocity=34 time=0
control_change channel=0 control=64 value=0 time=10
control_change channel=0 control=64 value=127 time=50
note_on channel=0 note=44 velocity=0 time=100
note_on channel=0 note=51 velocity=33 time=0
note_on channel=0 note=51 velocity=0 time=160
note_on channel=0 note=56 velocity=34 time=0
note_on channel=0 note=56 velocity=0 time=160
note_on channel=0 note=60 velocity=34 time=0
note_on channel=0 note=60 velocity=0 time=160
note_on channel=0 note=56 velocity=33 time=0
note_on channel=0 note=56 velocity=0 time=160
note_on channel=0 note=51 velocity=32 time=0
<meta message set_tempo tempo=714116 time=160>
note_on channel=0 note=51 velocity=0 time=0
note_on channel=0 note=68 velocity=0 time=0
note_on channel=0 note=70 velocity=65 time=0
note_on channel=0 note=44 velocity=31 time=0
control_change channel=0 control=64 value=0 time=17
note_on channel=0 note=70 velocity=0 time=43
note_on channel=0 note=72 velocity=59 time=0
control_change channel=0 control=64 value=127 time=4
note_on channel=0 note=72 velocity=0 time=56
note_on channel=0 note=70 velocity=60 time=0
note_on channel=0 note=44 velocity=0 time=40
note_on channel=0 note=51 velocity=33 time=0
note_on channel=0 note=70 velocity=0 time=20
note_on channel=0 note=72 velocity=59 time=0
note_on channel=0 note=72 velocity=0 time=60
note_on channel=0 note=70 velocity=56 time=0
note_on channel=0 note=70 velocity=0 time=40
note_on channel=0 note=72 velocity=56 time=0
note_on channel=0 note=72 velocity=0 time=40
note_on channel=0 note=51 velocity=0 time=0
note_on channel=0 note=70 velocity=56 time=0
note_on channel=0 note=55 velocity=34 time=0
note_on channel=0 note=70 velocity=0 time=40
note_on channel=0 note=69 velocity=62 time=0
note_on channel=0 note=69 velocity=0 time=120
note_on channel=0 note=55 velocity=0 time=0
note_on channel=0 note=70 velocity=64 time=0
note_on channel=0 note=61 velocity=34 time=0
note_on channel=0 note=61 velocity=0 time=160
note_on channel=0 note=55 velocity=33 time=0
<meta message set_tempo tempo=744048 time=80>
note_on channel=0 note=55 velocity=0 time=80
note_on channel=0 note=51 velocity=30 time=0
note_on channel=0 note=70 velocity=0 time=40
note_on channel=0 note=72 velocity=62 time=0
<meta message set_tempo tempo=702001 time=120>
note_on channel=0 note=72 velocity=0 time=0
note_on channel=0 note=51 velocity=0 time=0
note_on channel=0 note=68 velocity=66 time=0
note_on channel=0 note=44 velocity=36 time=0
control_change channel=0 control=64 value=0 time=12
control_change channel=0 control=64 value=127 time=31
note_on channel=0 note=44 velocity=0 time=117
note_on channel=0 note=51 velocity=30 time=0
note_on channel=0 note=68 velocity=0 time=80
note_on channel=0 note=51 velocity=0 time=80
note_on channel=0 note=56 velocity=32 time=0
<meta message set_tempo tempo=722456 time=160>
note_on channel=0 note=56 velocity=0 time=0
note_on channel=0 note=84 velocity=66 time=0
note_on channel=0 note=60 velocity=33 time=0
note_on channel=0 note=60 velocity=0 time=160
note_on channel=0 note=56 velocity=32 time=0
note_on channel=0 note=56 velocity=0 time=160
note_on channel=0 note=51 velocity=30 time=0
<meta message set_tempo tempo=714116 time=160>
note_on channel=0 note=51 velocity=0 time=0
note_on channel=0 note=49 velocity=27 time=0
control_change channel=0 control=64 value=0 time=9
control_change channel=0 control=64 value=127 time=28
note_on channel=0 note=84 velocity=0 time=100
note_on channel=0 note=82 velocity=63 time=0
note_on channel=0 note=49 velocity=0 time=23
note_on channel=0 note=56 velocity=29 time=0
note_on channel=0 note=82 velocity=0 time=114
note_on channel=0 note=80 velocity=62 time=0
note_on channel=0 note=56 velocity=0 time=46
note_on channel=0 note=61 velocity=30 time=0
note_on channel=0 note=80 velocity=0 time=91
note_on channel=0 note=76 velocity=61 time=0
<meta message set_tempo tempo=714116 time=69>
note_on channel=0 note=61 velocity=0 time=0
note_on channel=0 note=64 velocity=31 time=0
note_on channel=0 note=76 velocity=0 time=68
note_on channel=0 note=73 velocity=59 time=0
<meta message set_tempo tempo=718305 time=12>
<meta message set_tempo tempo=722456 time=80>
note_on channel=0 note=64 velocity=0 time=0
note_on channel=0 note=61 velocity=30 time=0
note_on channel=0 note=73 velocity=0 time=45
note_on channel=0 note=70 velocity=58 time=0
<meta message set_tempo tempo=726656 time=35>
<meta message set_tempo tempo=722456 time=40>
<meta message set_tempo tempo=767067 time=40>
note_on channel=0 note=61 velocity=0 time=0
note_on channel=0 note=56 velocity=29 time=0
<meta message set_tempo tempo=822932 time=40>
<meta message set_tempo tempo=1255230 time=40>
note_on channel=0 note=70 velocity=0 time=11
note_on channel=0 note=80 velocity=55 time=0
<meta message set_tempo tempo=726656 time=69>
note_on channel=0 note=80 velocity=0 time=0
note_on channel=0 note=56 velocity=0 time=0
note_on channel=0 note=63 velocity=66 time=0
note_on channel=0 note=39 velocity=34 time=0
control_change channel=0 control=64 value=0 time=7
control_change channel=0 control=64 value=127 time=53
note_on channel=0 note=39 velocity=0 time=100
note_on channel=0 note=51 velocity=33 time=0
note_on channel=0 note=51 velocity=0 time=160
note_on channel=0 note=56 velocity=34 time=0
note_on channel=0 note=56 velocity=0 time=160
note_on channel=0 note=60 velocity=34 time=0
note_on channel=0 note=60 velocity=0 time=160
note_on channel=0 note=56 velocity=33 time=0
note_on channel=0 note=56 velocity=0 time=160
note_on channel=0 note=51 velocity=32 time=0
note_on channel=0 note=63 velocity=0 time=100
note_on channel=0 note=72 velocity=59 time=0
<meta message set_tempo tempo=714116 time=60>
note_on channel=0 note=72 velocity=0 time=0
note_on channel=0 note=51 velocity=0 time=0
note_on channel=0 note=70 velocity=64 time=0
note_on channel=0 note=39 velocity=31 time=0
control_change channel=0 control=64 value=0 time=17
control_change channel=0 control=64 value=127 time=47
note_on channel=0 note=39 velocity=0 time=96
note_on channel=0 note=51 velocity=33 time=0
note_on channel=0 note=51 velocity=0 time=160
note_on channel=0 note=55 velocity=34 time=0
note_on channel=0 note=70 velocity=0 time=40
note_on channel=0 note=69 velocity=57 time=0
note_on channel=0 note=69 velocity=0 time=120
note_on channel=0 note=55 velocity=0 time=0
note_on channel=0 note=70 velocity=64 time=0
note_on channel=0 note=61 velocity=34 time=0
note_on channel=0 note=61 velocity=0 time=160
note_on channel=0 note=55 velocity=33 time=0
<meta message set_tempo tempo=744048 time=80>
note_on channel=0 note=55 velocity=0 time=80
note_on channel=0 note=51 velocity=30 time=0
note_on channel=0 note=70 velocity=0 time=40
note_on channel=0 note=75 velocity=62 time=0
<meta message set_tempo tempo=702001 time=120>
note_on channel=0 note=75 velocity=0 time=0
note_on channel=0 note=51 velocity=0 time=0
note_on channel=0 note=68 velocity=65 time=0
note_on channel=0 note=44 velocity=34 time=0
control_change channel=0 control=64 value=0 time=13
control_change channel=0 control=64 value=127 time=79
note_on channel=0 note=44 velocity=0 time=68
note_on channel=0 note=51 velocity=30 time=0
note_on channel=0 note=51 velocity=0 time=160
note_on channel=0 note=56 velocity=32 time=0
note_on channel=0 note=56 velocity=0 time=160
note_on channel=0 note=68 velocity=0 time=0
note_on channel=0 note=60 velocity=33 time=0
<meta message set_tempo tempo=698080 time=40>
<meta message set_tempo tempo=702001 time=80>
<meta message set_tempo tempo=706048 time=40>
note_on channel=0 note=60 velocity=0 time=0
note_on channel=0 note=56 velocity=32 time=0
<meta message set_tempo tempo=710059 time=40>
<meta message set_tempo tempo=714116 time=40>
<meta message set_tempo tempo=718305 time=80>
note_on channel=0 note=56 velocity=0 time=0
note_on channel=0 note=51 velocity=30 time=0
<meta message set_tempo tempo=722456 time=40>
<meta message set_tempo tempo=726656 time=40>
<meta message set_tempo tempo=730905 time=40>
<meta message set_tempo tempo=735294 time=40>
note_on channel=0 note=51 velocity=0 time=0
note_on channel=0 note=70 velocity=39 time=0
note_on channel=0 note=42 velocity=19 time=0
control_change channel=0 control=64 value=0 time=14
control_change channel=0 control=64 value=127 time=78
note_on channel=0 note=42 velocity=0 time=68
note_on channel=0 note=54 velocity=20 time=0
<meta message set_tempo tempo=771803 time=160>
note_on channel=0 note=54 velocity=0 time=0
note_on channel=0 note=58 velocity=22 time=0
<meta message set_tempo tempo=731707 time=160>
note_on channel=0 note=58 velocity=0 time=0
note_on channel=0 note=70 velocity=0 time=0
note_on channel=0 note=73 velocity=44 time=0
note_on channel=0 note=61 velocity=22 time=0
<meta message set_tempo tempo=736196 time=80>
<meta message set_tempo tempo=740741 time=40>
<meta message set_tempo tempo=745342 time=40>
note_on channel=0 note=61 velocity=0 time=0
note_on channel=0 note=73 velocity=0 time=0
note_on channel=0 note=72 velocity=39 time=0
note_on channel=0 note=58 velocity=20 time=0
<meta message set_tempo tempo=750000 time=80>
<meta message set_tempo tempo=754717 time=40>
<meta message set_tempo tempo=759494 time=40>
note_on channel=0 note=58 velocity=0 time=0
note_on channel=0 note=72 velocity=0 time=0
note_on channel=0 note=70 velocity=39 time=0
note_on channel=0 note=54 velocity=20 time=0
<meta message set_tempo tempo=764331 time=40>
<meta message set_tempo tempo=727273 time=120>
note_on channel=0 note=54 velocity=0 time=0
note_on channel=0 note=70 velocity=0 time=0
note_on channel=0 note=68 velocity=43 time=0
note_on channel=0 note=44 velocity=21 time=0
control_change channel=0 control=64 value=0 time=10
control_change channel=0 control=64 value=127 time=63
<meta message set_tempo tempo=722892 time=27>
note_on channel=0 note=44 velocity=0 time=60
note_on channel=0 note=56 velocity=22 time=0
<meta message set_tempo tempo=718563 time=60>
note_on channel=0 note=56 velocity=0 time=100
note_on channel=0 note=60 velocity=22 time=0
<meta message set_tempo tempo=714286 time=20>
<meta message set_tempo tempo=710059 time=120>
note_on channel=0 note=60 velocity=0 time=20
note_on channel=0 note=63 velocity=23 time=0
<meta message set_tempo tempo=686499 time=40>
note_on channel=0 note=63 velocity=0 time=120
note_on channel=0 note=60 velocity=23 time=0
note_on channel=0 note=60 velocity=0 time=160
note_on channel=0 note=56 velocity=22 time=0
<meta message set_tempo tempo=705882 time=160>
note_on channel=0 note=56 velocity=0 time=0
note_on channel=0 note=68 velocity=0 time=0
note_on channel=0 note=70 velocity=46 time=0
note_on channel=0 note=49 velocity=22 time=0
note_on channel=0 note=70 velocity=0 time=48
note_on channel=0 note=72 velocity=42 time=0
<meta message set_tempo tempo=701754 time=12>
note_on channel=0 note=72 velocity=0 time=36
note_on channel=0 note=70 velocity=42 time=0
<meta message set_tempo tempo=697674 time=4>
<meta message set_tempo tempo=693642 time=40>
note_on channel=0 note=70 velocity=0 time=4
note_on channel=0 note=72 velocity=44 time=0
note_on channel=0 note=49 velocity=0 time=16
note_on channel=0 note=56 velocity=23 time=0
<meta message set_tempo tempo=689655 time=20>
note_on channel=0 note=72 velocity=0 time=12
note_on channel=0 note=70 velocity=42 time=0
<meta message set_tempo tempo=685714 time=28>
<meta message set_tempo tempo=685714 time=20>
note_on channel=0 note=70 velocity=0 time=0
note_on channel=0 note=68 velocity=41 time=0
note_on channel=0 note=56 velocity=0 time=80
note_on channel=0 note=60 velocity=25 time=0
note_on channel=0 note=60 velocity=0 time=160
note_on channel=0 note=68 velocity=0 time=0
note_on channel=0 note=73 velocity=45 time=0
note_on channel=0 note=66 velocity=27 time=0
note_on channel=0 note=66 velocity=0 time=160
note_on channel=0 note=60 velocity=26 time=0
<meta message set_tempo tempo=718305 time=80>
note_on channel=0 note=73 velocity=0 time=0
note_on channel=0 note=75 velocity=48 time=0
note_on channel=0 note=60 velocity=0 time=80
note_on channel=0 note=56 velocity=25 time=0
<meta message set_tempo tempo=694203 time=160>
note_on channel=0 note=56 velocity=0 time=0
note_on channel=0 note=75 velocity=0 time=0
note_on channel=0 note=77 velocity=51 time=0
note_on channel=0 note=49 velocity=27 time=0
control_change channel=0 control=64 value=0 time=7
control_change channel=0 control=64 value=127 time=92
note_on channel=0 note=49 velocity=0 time=61
note_on channel=0 note=56 velocity=28 time=0
note_on channel=0 note=56 velocity=0 time=160
note_on channel=0 note=61 velocity=28 time=0
note_on channel=0 note=61 velocity=0 time=160
note_on channel=0 note=65 velocity=29 time=0
note_on channel=0 note=65 velocity=0 time=160
note_on channel=0 note=61 velocity=30 time=0
note_on channel=0 note=61 velocity=0 time=160
note_on channel=0 note=56 velocity=28 time=0
<meta message set_tempo tempo=682749 time=160>
note_on channel=0 note=56 velocity=0 time=0
note_on channel=0 note=77 velocity=0 time=0
note_on channel=0 note=80 velocity=56 time=0
note_on channel=0 note=49 velocity=27 time=0
control_change channel=0 control=64 value=0 time=12
control_change channel=0 control=64 value=127 time=48
note_on channel=0 note=49 velocity=0 time=100
note_on channel=0 note=56 velocity=28 time=0
note_on channel=0 note=56 velocity=0 time=160
note_on channel=0 note=65 velocity=29 time=0
note_on channel=0 note=65 velocity=0 time=160
note_on channel=0 note=68 velocity=49 time=0
note_on channel=0 note=65 velocity=30 time=160
<meta message set_tempo tempo=706048 time=80>
note_on channel=0 note=65 velocity=0 time=80
note_on channel=0 note=56 velocity=29 time=0
note_on channel=0 note=56 velocity=0 time=160
note_on channel=0 note=68 velocity=0 time=0
note_on channel=0 note=80 velocity=0 time=0
note_on channel=0 note=78 velocity=53 time=0
note_on channel=0 note=66 velocity=30 time=0
control_change channel=0 control=64 value=0 time=16
control_change channel=0 control=64 value=127 time=51
note_on channel=0 note=66 velocity=0 time=93
note_on channel=0 note=63 velocity=26 time=0
note_on channel=0 note=63 velocity=0 time=160
note_on channel=0 note=56 velocity=26 time=0
<meta message set_tempo tempo=698080 time=160>
note_on channel=0 note=56 velocity=0 time=0
note_on channel=0 note=78 velocity=0 time=0
note_on channel=0 note=77 velocity=51 time=0
note_on channel=0 note=65 velocity=30 time=0
control_change channel=0 control=64 value=0 time=17
control_change channel=0 control=64 value=127 time=82
note_on channel=0 note=65 velocity=0 time=61
note_on channel=0 note=61 velocity=26 time=0
note_on channel=0 note=61 velocity=0 time=160
note_on channel=0 note=56 velocity=26 time=0
<meta message set_tempo tempo=690369 time=160>
note_on channel=0 note=56 velocity=0 time=0
note_on channel=0 note=77 velocity=0 time=0
note_on channel=0 note=75 velocity=49 time=0
note_on channel=0 note=63 velocity=30 time=0
control_change channel=0 control=64 value=0 time=18
control_change channel=0 control=64 value=127 time=67
note_on channel=0 note=63 velocity=0 time=75
note_on channel=0 note=60 velocity=23 time=0
note_on channel=0 note=75 velocity=0 time=80
note_on channel=0 note=77 velocity=47 time=0
note_on channel=0 note=77 velocity=0 time=60
note_on channel=0 note=75 velocity=47 time=0
note_on channel=0 note=60 velocity=0 time=20
note_on channel=0 note=56 velocity=23 time=0
note_on channel=0 note=75 velocity=0 time=40
note_on channel=0 note=73 velocity=47 time=0
note_on channel=0 note=73 velocity=0 time=60
note_on channel=0 note=75 velocity=47 time=0
note_on channel=0 note=75 velocity=0 time=60
note_on channel=0 note=56 velocity=0 time=0
note_on channel=0 note=77 velocity=51 time=0
note_on channel=0 note=61 velocity=29 time=0
control_change channel=0 control=64 value=0 time=7
control_change channel=0 control=64 value=127 time=64
note_on channel=0 note=61 velocity=0 time=89
note_on channel=0 note=56 velocity=24 time=0
<meta message set_tempo tempo=722892 time=80>
note_on channel=0 note=77 velocity=0 time=0
note_on channel=0 note=73 velocity=47 time=0
note_on channel=0 note=56 velocity=0 time=80
note_on channel=0 note=53 velocity=24 time=0
<meta message set_tempo tempo=718563 time=160>
note_on channel=0 note=53 velocity=0 time=0
note_on channel=0 note=73 velocity=0 time=0
note_on channel=0 note=68 velocity=48 time=0
note_on channel=0 note=44 velocity=26 time=0
control_change channel=0 control=64 value=0 time=7
control_change channel=0 control=64 value=127 time=57
note_on channel=0 note=44 velocity=0 time=96
note_on channel=0 note=51 velocity=27 time=0
note_on channel=0 note=51 velocity=0 time=160
note_on channel=0 note=56 velocity=27 time=0
<meta message set_tempo tempo=706048 time=160>
note_on channel=0 note=56 velocity=0 time=0
note_on channel=0 note=60 velocity=28 time=0
note_on channel=0 note=60 velocity=0 time=160
note_on channel=0 note=56 velocity=27 time=0
<meta message set_tempo tempo=726656 time=80>
note_on channel=0 note=56 velocity=0 time=80
note_on channel=0 note=51 velocity=27 time=0
<meta message set_tempo tempo=710059 time=160>
note_on channel=0 note=51 velocity=0 time=0
note_on channel=0 note=68 velocity=0 time=0
note_on channel=0 note=70 velocity=48 time=0
note_on channel=0 note=42 velocity=27 time=0
control_change channel=0 control=64 value=0 time=7
control_change channel=0 control=64 value=127 time=92
note_on channel=0 note=42 velocity=0 time=61
note_on channel=0 note=54 velocity=27 time=0
note_on channel=0 note=54 velocity=0 time=160
note_on channel=0 note=58 velocity=28 time=0
note_on channel=0 note=58 velocity=0 time=160
note_on channel=0 note=61 velocity=29 time=0
note_on channel=0 note=61 velocity=0 time=160
note_on channel=0 note=58 velocity=28 time=0
note_on channel=0 note=58 velocity=0 time=160
note_on channel=0 note=54 velocity=28 time=0
note_on channel=0 note=54 velocity=0 time=160
note_on channel=0 note=46 velocity=27 time=0
control_change channel=0 control=64 value=0 time=10
control_change channel=0 control=64 value=127 time=53
note_on channel=0 note=46 velocity=0 time=97
note_on channel=0 note=53 velocity=27 time=0
note_on channel=0 note=53 velocity=0 time=160
note_on channel=0 note=58 velocity=28 time=0
note_on channel=0 note=58 velocity=0 time=160
note_on channel=0 note=62 velocity=28 time=0
note_on channel=0 note=62 velocity=0 time=160
note_on channel=0 note=58 velocity=28 time=0
note_on channel=0 note=58 velocity=0 time=160
note_on channel=0 note=53 velocity=27 time=0
<meta message set_tempo tempo=714286 time=160>
note_on channel=0 note=53 velocity=0 time=0
note_on channel=0 note=70 velocity=0 time=0
note_on channel=0 note=71 velocity=45 time=0
note_on channel=0 note=46 velocity=28 time=0
control_change channel=0 control=64 value=0 time=17
<meta message set_tempo tempo=710059 time=23>
note_on channel=0 note=71 velocity=0 time=8
note_on channel=0 note=73 velocity=42 time=0
control_change channel=0 control=64 value=127 time=15
<meta message set_tempo tempo=705882 time=17>
note_on channel=0 note=73 velocity=0 time=16
note_on channel=0 note=71 velocity=41 time=0
<meta message set_tempo tempo=701754 time=24>
note_on channel=0 note=71 velocity=0 time=24
note_on channel=0 note=73 velocity=42 time=0
<meta message set_tempo tempo=697674 time=16>
note_on channel=0 note=46 velocity=0 time=0
note_on channel=0 note=58 velocity=29 time=0
note_on channel=0 note=73 velocity=0 time=32
note_on channel=0 note=71 velocity=42 time=4
<meta message set_tempo tempo=693642 time=4>
<meta message set_tempo tempo=689655 time=20>
<meta message set_tempo tempo=685714 time=20>
note_on channel=0 note=70 velocity=45 time=0
note_on channel=0 note=71 velocity=0 time=4
note_on channel=0 note=58 velocity=0 time=76
note_on channel=0 note=62 velocity=30 time=0
note_on channel=0 note=62 velocity=0 time=160
note_on channel=0 note=70 velocity=0 time=0
note_on channel=0 note=75 velocity=45 time=0
note_on channel=0 note=68 velocity=33 time=0
note_on channel=0 note=68 velocity=0 time=160
note_on channel=0 note=62 velocity=31 time=0
<meta message set_tempo tempo=718305 time=80>
note_on channel=0 note=75 velocity=0 time=0
note_on channel=0 note=77 velocity=48 time=0
note_on channel=0 note=62 velocity=0 time=80
note_on channel=0 note=58 velocity=29 time=0
<meta message set_tempo tempo=694203 time=160>
note_on channel=0 note=58 velocity=0 time=0
note_on channel=0 note=77 velocity=0 time=0
note_on channel=0 note=78 velocity=51 time=0
note_on channel=0 note=51 velocity=34 time=0
control_change channel=0 control=64 value=0 time=8
control_change channel=0 control=64 value=127 time=45
note_on channel=0 note=51 velocity=0 time=107
note_on channel=0 note=66 velocity=31 time=0
note_on channel=0 note=66 velocity=0 time=160
note_on channel=0 note=58 velocity=28 time=0
note_on channel=0 note=58 velocity=0 time=160
note_on channel=0 note=78 velocity=0 time=0
note_on channel=0 note=77 velocity=50 time=0
note_on channel=0 note=53 velocity=32 time=0
control_change channel=0 control=64 value=0 time=14
control_change channel=0 control=64 value=127 time=55
note_on channel=0 note=53 velocity=0 time=91
note_on channel=0 note=65 velocity=30 time=0
note_on channel=0 note=65 velocity=0 time=160
note_on channel=0 note=57 velocity=28 time=0
<meta message set_tempo tempo=682749 time=160>
note_on channel=0 note=57 velocity=0 time=0
note_on channel=0 note=77 velocity=0 time=0
note_on channel=0 note=75 velocity=51 time=0
note_on channel=0 note=54 velocity=31 time=0
control_change channel=0 control=64 value=0 time=15
control_change channel=0 control=64 value=127 time=45
note_on channel=0 note=54 velocity=0 time=100
note_on channel=0 note=63 velocity=28 time=0
note_on channel=0 note=63 velocity=0 time=160
note_on channel=0 note=58 velocity=29 time=0
note_on channel=0 note=58 velocity=0 time=160
note_on channel=0 note=75 velocity=0 time=0
note_on channel=0 note=77 velocity=49 time=0
note_on channel=0 note=56 velocity=30 time=0
control_change channel=0 control=64 value=0 time=14
control_change channel=0 control=64 value=127 time=49
note_on channel=0 note=56 velocity=0 time=97
note_on channel=0 note=66 velocity=27 time=0
<meta message set_tempo tempo=706048 time=80>
note_on channel=0 note=66 velocity=0 time=80
note_on channel=0 note=60 velocity=27 time=0
note_on channel=0 note=60 velocity=0 time=160
note_on channel=0 note=77 velocity=0 time=0
note_on channel=0 note=73 velocity=48 time=0
note_on channel=0 note=49 velocity=25 time=0
control_change channel=0 control=64 value=0 time=8
control_change channel=0 control=64 value=127 time=77
note_on channel=0 note=49 velocity=0 time=75
note_on channel=0 note=56 velocity=27 time=0
note_on channel=0 note=56 velocity=0 time=160
note_on channel=0 note=61 velocity=29 time=0
note_on channel=0 note=61 velocity=0 time=160
note_on channel=0 note=65 velocity=30 time=0
note_on channel=0 note=65 velocity=0 time=160
note_on channel=0 note=61 velocity=29 time=0
<meta message set_tempo tempo=774194 time=80>
note_on channel=0 note=73 velocity=0 time=0
note_on channel=0 note=67 velocity=49 time=0
note_on channel=0 note=67 velocity=0 time=60
note_on channel=0 note=68 velocity=45 time=0
note_on channel=0 note=61 velocity=0 time=20
note_on channel=0 note=56 velocity=27 time=0
note_on channel=0 note=68 velocity=0 time=40
note_on channel=0 note=70 velocity=45 time=0
note_on channel=0 note=70 velocity=0 time=60
note_on channel=0 note=68 velocity=45 time=0
<meta message set_tempo tempo=718563 time=60>
note_on channel=0 note=68 velocity=0 time=0
note_on channel=0 note=56 velocity=0 time=0
note_on channel=0 note=77 velocity=50 time=0
note_on channel=0 note=49 velocity=27 time=0
control_change channel=0 control=64 value=0 time=15
control_change channel=0 control=64 value=127 time=45
note_on channel=0 note=49 velocity=0 time=100
note_on channel=0 note=56 velocity=28 time=0
note_on channel=0 note=56 velocity=0 time=160
note_on channel=0 note=60 velocity=29 time=0
note_on channel=0 note=60 velocity=0 time=160
note_on channel=0 note=66 velocity=30 time=0
note_on channel=0 note=66 velocity=0 time=160
note_on channel=0 note=60 velocity=29 time=0
<meta message set_tempo tempo=827586 time=80>
note_on channel=0 note=77 velocity=0 time=0
note_on channel=0 note=75 velocity=49 time=0
note_on channel=0 note=60 velocity=0 time=80
note_on channel=0 note=56 velocity=27 time=0
<meta message set_tempo tempo=722892 time=160>
note_on channel=0 note=56 velocity=0 time=0
note_on channel=0 note=75 velocity=0 time=0
note_on channel=0 note=75 velocity=52 time=0
note_on channel=0 note=49 velocity=27 time=0
control_change channel=0 control=64 value=0 time=15
control_change channel=0 control=64 value=127 time=91
note_on channel=0 note=49 velocity=0 time=54
note_on channel=0 note=56 velocity=28 time=0
note_on channel=0 note=56 velocity=0 time=160
note_on channel=0 note=60 velocity=30 time=0
note_on channel=0 note=60 velocity=0 time=160
note_on channel=0 note=66 velocity=31 time=0
note_on channel=0 note=66 velocity=0 time=160
note_on channel=0 note=60 velocity=30 time=0
note_on channel=0 note=60 velocity=0 time=160
note_on channel=0 note=56 velocity=28 time=0
<meta message set_tempo tempo=726656 time=120>
note_on channel=0 note=56 velocity=0 time=40
note_on channel=0 note=75 velocity=0 time=0
note_on channel=0 note=73 velocity=52 time=0
note_on channel=0 note=49 velocity=27 time=0
control_change channel=0 control=64 value=0 time=14
control_change channel=0 control=64 value=127 time=85
<meta message set_tempo tempo=730905 time=21>
note_on channel=0 note=49 velocity=0 time=40
note_on channel=0 note=56 velocity=27 time=0
<meta message set_tempo tempo=735294 time=80>
note_on channel=0 note=56 velocity=0 time=80
note_on channel=0 note=61 velocity=28 time=0
<meta message set_tempo tempo=739645 time=40>
note_on channel=0 note=61 velocity=0 time=120
note_on channel=0 note=73 velocity=0 time=0
note_on channel=0 note=65 velocity=30 time=0
<meta message set_tempo tempo=744048 time=40>
<meta message set_tempo tempo=748596 time=120>
note_on channel=0 note=65 velocity=0 time=0
note_on channel=0 note=61 velocity=28 time=0
<meta message set_tempo tempo=710059 time=80>
note_on channel=0 note=80 velocity=60 time=0
note_on channel=0 note=61 velocity=0 time=80
note_on channel=0 note=56 velocity=27 time=0
<meta message set_tempo tempo=726656 time=160>
note_on channel=0 note=56 velocity=0 time=0
note_on channel=0 note=80 velocity=0 time=0
note_on channel=0 note=68 velocity=65 time=0
note_on channel=0 note=44 velocity=34 time=0
control_change channel=0 control=64 value=0 time=10
control_change channel=0 control=64 value=127 time=50
note_on channel=0 note=44 velocity=0 time=100
note_on channel=0 note=51 velocity=33 time=0
note_on channel=0 note=51 velocity=0 time=160
note_on channel=0 note=56 velocity=34 time=0
note_on channel=0 note=56 velocity=0 time=160
note_on channel=0 note=60 velocity=34 time=0
note_on channel=0 note=60 velocity=0 time=160
note_on channel=0 note=56 velocity=33 time=0
note_on channel=0 note=56 velocity=0 time=160
note_on channel=0 note=51 velocity=32 time=0
<meta message set_tempo tempo=685714 time=160>
note_on channel=0 note=51 velocity=0 time=0
note_on channel=0 note=68 velocity=0 time=0
note_on channel=0 note=70 velocity=65 time=0
note_on channel=0 note=44 velocity=31 time=0
control_change channel=0 control=64 value=0 time=15
<meta message set_tempo tempo=681818 time=25>
<meta message set_tempo tempo=677966 time=20>
note_on channel=0 note=70 velocity=0 time=0
note_on channel=0 note=72 velocity=59 time=0
control_change channel=0 control=64 value=127 time=4
<meta message set_tempo tempo=674157 time=36>
<meta message set_tempo tempo=670391 time=20>
note_on channel=0 note=72 velocity=0 time=0
note_on channel=0 note=70 velocity=60 time=0
<meta message set_tempo tempo=666667 time=20>
note_on channel=0 note=44 velocity=0 time=20
note_on channel=0 note=51 velocity=33 time=0
<meta message set_tempo tempo=662983 time=20>
note_on channel=0 note=70 velocity=0 time=0
note_on channel=0 note=72 velocity=59 time=0
<meta message set_tempo tempo=659341 time=20>
<meta message set_tempo tempo=655738 time=20>
<meta message set_tempo tempo=745342 time=20>
note_on channel=0 note=72 velocity=0 time=0
note_on channel=0 note=70 velocity=56 time=0
note_on channel=0 note=70 velocity=0 time=40
note_on channel=0 note=72 velocity=56 time=0
note_on channel=0 note=72 velocity=0 time=40
note_on channel=0 note=51 velocity=0 time=0
note_on channel=0 note=70 velocity=56 time=0
note_on channel=0 note=55 velocity=34 time=0
<meta message set_tempo tempo=705882 time=40>
note_on channel=0 note=70 velocity=0 time=0
note_on channel=0 note=69 velocity=62 time=0
note_on channel=0 note=69 velocity=0 time=120
note_on channel=0 note=55 velocity=0 time=0
note_on channel=0 note=70 velocity=64 time=0
note_on channel=0 note=61 velocity=34 time=0
note_on channel=0 note=61 velocity=0 time=160
note_on channel=0 note=55 velocity=33 time=0
<meta message set_tempo tempo=744048 time=80>
note_on channel=0 note=55 velocity=0 time=80
note_on channel=0 note=51 velocity=30 time=0
note_on channel=0 note=70 velocity=0 time=40
note_on channel=0 note=72 velocity=62 time=0
<meta message set_tempo tempo=702001 time=120>
note_on channel=0 note=72 velocity=0 time=0
note_on channel=0 note=51 velocity=0 time=0
note_on channel=0 note=68 velocity=66 time=0
note_on channel=0 note=44 velocity=36 time=0
control_change channel=0 control=64 value=0 time=15
control_change channel=0 control=64 value=127 time=28
note_on channel=0 note=44 velocity=0 time=117
note_on channel=0 note=51 velocity=30 time=0
note_on channel=0 note=68 velocity=0 time=80
note_on channel=0 note=51 velocity=0 time=80
note_on channel=0 note=56 velocity=32 time=0
<meta message set_tempo tempo=722456 time=160>
note_on channel=0 note=56 velocity=0 time=0
note_on channel=0 note=84 velocity=66 time=0
note_on channel=0 note=60 velocity=33 time=0
note_on channel=0 note=60 velocity=0 time=160
note_on channel=0 note=56 velocity=32 time=0
note_on channel=0 note=56 velocity=0 time=160
note_on channel=0 note=51 velocity=30 time=0
<meta message set_tempo tempo=714116 time=160>
note_on channel=0 note=51 velocity=0 time=0
note_on channel=0 note=49 velocity=27 time=0
control_change channel=0 control=64 value=0 time=9
control_change channel=0 control=64 value=127 time=28
note_on channel=0 note=84 velocity=0 time=100
note_on channel=0 note=82 velocity=63 time=0
note_on channel=0 note=49 velocity=0 time=23
note_on channel=0 note=56 velocity=29 time=0
note_on channel=0 note=82 velocity=0 time=114
note_on channel=0 note=80 velocity=62 time=0
note_on channel=0 note=56 velocity=0 time=46
note_on channel=0 note=61 velocity=30 time=0
note_on channel=0 note=80 velocity=0 time=91
note_on channel=0 note=76 velocity=61 time=0
<meta message set_tempo tempo=714116 time=69>
note_on channel=0 note=61 velocity=0 time=0
note_on channel=0 note=64 velocity=31 time=0
note_on channel=0 note=76 velocity=0 time=68
note_on channel=0 note=73 velocity=59 time=0
<meta message set_tempo tempo=718305 time=12>
<meta message set_tempo tempo=722456 time=80>
note_on channel=0 note=64 velocity=0 time=0
note_on channel=0 note=61 velocity=30 time=0
note_on channel=0 note=73 velocity=0 time=45
note_on channel=0 note=70 velocity=58 time=0
<meta message set_tempo tempo=726656 time=35>
<meta message set_tempo tempo=722456 time=40>
<meta message set_tempo tempo=767067 time=40>
note_on channel=0 note=61 velocity=0 time=0
note_on channel=0 note=56 velocity=29 time=0
<meta message set_tempo tempo=822932 time=40>
<meta message set_tempo tempo=1255230 time=40>
note_on channel=0 note=70 velocity=0 time=11
note_on channel=0 note=80 velocity=55 time=0
<meta message set_tempo tempo=726656 time=69>
note_on channel=0 note=80 velocity=0 time=0
note_on channel=0 note=56 velocity=0 time=0
note_on channel=0 note=63 velocity=66 time=0
note_on channel=0 note=39 velocity=34 time=0
control_change channel=0 control=64 value=0 time=7
control_change channel=0 control=64 value=127 time=53
note_on channel=0 note=39 velocity=0 time=100
note_on channel=0 note=51 velocity=33 time=0
note_on channel=0 note=51 velocity=0 time=160
note_on channel=0 note=56 velocity=34 time=0
note_on channel=0 note=56 velocity=0 time=160
note_on channel=0 note=60 velocity=34 time=0
note_on channel=0 note=60 velocity=0 time=160
note_on channel=0 note=56 velocity=33 time=0
note_on channel=0 note=56 velocity=0 time=160
note_on channel=0 note=51 velocity=32 time=0
note_on channel=0 note=63 velocity=0 time=100
note_on channel=0 note=72 velocity=59 time=0
<meta message set_tempo tempo=714116 time=60>
note_on channel=0 note=72 velocity=0 time=0
note_on channel=0 note=51 velocity=0 time=0
note_on channel=0 note=70 velocity=64 time=0
note_on channel=0 note=39 velocity=31 time=0
control_change channel=0 control=64 value=0 time=18
control_change channel=0 control=64 value=127 time=46
note_on channel=0 note=39 velocity=0 time=96
note_on channel=0 note=51 velocity=33 time=0
note_on channel=0 note=51 velocity=0 time=160
note_on channel=0 note=55 velocity=34 time=0
note_on channel=0 note=70 velocity=0 time=40
note_on channel=0 note=69 velocity=57 time=0
note_on channel=0 note=69 velocity=0 time=120
note_on channel=0 note=55 velocity=0 time=0
note_on channel=0 note=70 velocity=64 time=0
note_on channel=0 note=61 velocity=34 time=0
note_on channel=0 note=61 velocity=0 time=160
note_on channel=0 note=55 velocity=33 time=0
<meta message set_tempo tempo=744048 time=80>
note_on channel=0 note=55 velocity=0 time=80
note_on channel=0 note=51 velocity=30 time=0
note_on channel=0 note=70 velocity=0 time=40
note_on channel=0 note=75 velocity=62 time=0
<meta message set_tempo tempo=702001 time=120>
note_on channel=0 note=75 velocity=0 time=0
note_on channel=0 note=51 velocity=0 time=0
note_on channel=0 note=68 velocity=65 time=0
note_on channel=0 note=44 velocity=34 time=0
control_change channel=0 control=64 value=0 time=13
control_change channel=0 control=64 value=127 time=86
note_on channel=0 note=44 velocity=0 time=61
note_on channel=0 note=51 velocity=30 time=0
note_on channel=0 note=51 velocity=0 time=160
note_on channel=0 note=56 velocity=32 time=0
note_on channel=0 note=56 velocity=0 time=160
note_on channel=0 note=68 velocity=0 time=0
note_on channel=0 note=60 velocity=33 time=0
<meta message set_tempo tempo=698080 time=40>
<meta message set_tempo tempo=702001 time=80>
<meta message set_tempo tempo=706048 time=40>
note_on channel=0 note=60 velocity=0 time=0
note_on channel=0 note=56 velocity=32 time=0
<meta message set_tempo tempo=710059 time=40>
<meta message set_tempo tempo=714116 time=40>
<meta message set_tempo tempo=718305 time=80>
note_on channel=0 note=56 velocity=0 time=0
note_on channel=0 note=51 velocity=30 time=0
<meta message set_tempo tempo=722456 time=40>
<meta message set_tempo tempo=726656 time=40>
<meta message set_tempo tempo=730905 time=40>
<meta message set_tempo tempo=735294 time=40>
note_on channel=0 note=51 velocity=0 time=0
note_on channel=0 note=70 velocity=39 time=0
note_on channel=0 note=42 velocity=19 time=0
control_change channel=0 control=64 value=0 time=14
control_change channel=0 control=64 value=127 time=88
note_on channel=0 note=42 velocity=0 time=58
note_on channel=0 note=54 velocity=20 time=0
<meta message set_tempo tempo=771803 time=160>
note_on channel=0 note=54 velocity=0 time=0
note_on channel=0 note=58 velocity=22 time=0
<meta message set_tempo tempo=735294 time=160>
note_on channel=0 note=58 velocity=0 time=0
note_on channel=0 note=70 velocity=0 time=0
note_on channel=0 note=73 velocity=44 time=0
note_on channel=0 note=61 velocity=22 time=0
note_on channel=0 note=61 velocity=0 time=160
note_on channel=0 note=73 velocity=0 time=0
note_on channel=0 note=72 velocity=39 time=0
note_on channel=0 note=58 velocity=20 time=0
note_on channel=0 note=58 velocity=0 time=160
note_on channel=0 note=72 velocity=0 time=0
note_on channel=0 note=70 velocity=39 time=0
note_on channel=0 note=54 velocity=20 time=0
note_on channel=0 note=54 velocity=0 time=160
note_on channel=0 note=70 velocity=0 time=0
note_on channel=0 note=68 velocity=43 time=0
note_on channel=0 note=44 velocity=21 time=0
control_change channel=0 control=64 value=0 time=7
<meta message set_tempo tempo=714286 time=5>
control_change channel=0 control=64 value=127 time=64
<meta message set_tempo tempo=722892 time=24>
note_on channel=0 note=44 velocity=0 time=60
note_on channel=0 note=51 velocity=22 time=0
<meta message set_tempo tempo=718563 time=60>
note_on channel=0 note=51 velocity=0 time=100
note_on channel=0 note=56 velocity=22 time=0
<meta message set_tempo tempo=714286 time=20>
<meta message set_tempo tempo=710059 time=120>
note_on channel=0 note=56 velocity=0 time=20
note_on channel=0 note=60 velocity=23 time=0
<meta message set_tempo tempo=686499 time=40>
note_on channel=0 note=60 velocity=0 time=120
note_on channel=0 note=56 velocity=23 time=0
note_on channel=0 note=56 velocity=0 time=160
note_on channel=0 note=51 velocity=22 time=0
<meta message set_tempo tempo=710059 time=160>
note_on channel=0 note=51 velocity=0 time=0
note_on channel=0 note=68 velocity=0 time=0
note_on channel=0 note=70 velocity=47 time=0
note_on channel=0 note=44 velocity=22 time=0
<meta message set_tempo tempo=705882 time=40>
note_on channel=0 note=70 velocity=0 time=8
note_on channel=0 note=72 velocity=43 time=0
<meta message set_tempo tempo=701754 time=32>
note_on channel=0 note=72 velocity=0 time=16
note_on channel=0 note=70 velocity=43 time=0
<meta message set_tempo tempo=697674 time=24>
note_on channel=0 note=70 velocity=0 time=24
note_on channel=0 note=72 velocity=43 time=0
<meta message set_tempo tempo=693642 time=16>
note_on channel=0 note=44 velocity=0 time=0
note_on channel=0 note=56 velocity=23 time=0
note_on channel=0 note=72 velocity=0 time=32
note_on channel=0 note=70 velocity=43 time=0
<meta message set_tempo tempo=689655 time=8>
<meta message set_tempo tempo=685714 time=40>
note_on channel=0 note=70 velocity=0 time=0
note_on channel=0 note=68 velocity=45 time=0
note_on channel=0 note=56 velocity=0 time=80
note_on channel=0 note=60 velocity=25 time=0
note_on channel=0 note=60 velocity=0 time=160
note_on channel=0 note=68 velocity=0 time=0
note_on channel=0 note=73 velocity=45 time=0
note_on channel=0 note=66 velocity=27 time=0
note_on channel=0 note=66 velocity=0 time=160
note_on channel=0 note=60 velocity=26 time=0
<meta message set_tempo tempo=718305 time=80>
note_on channel=0 note=73 velocity=0 time=0
note_on channel=0 note=75 velocity=48 time=0
note_on channel=0 note=60 velocity=0 time=80
note_on channel=0 note=58 velocity=25 time=0
<meta message set_tempo tempo=694203 time=160>
note_on channel=0 note=58 velocity=0 time=0
note_on channel=0 note=75 velocity=0 time=0
note_on channel=0 note=77 velocity=51 time=0
note_on channel=0 note=49 velocity=27 time=0
control_change channel=0 control=64 value=0 time=5
control_change channel=0 control=64 value=127 time=87
note_on channel=0 note=49 velocity=0 time=68
note_on channel=0 note=56 velocity=28 time=0
note_on channel=0 note=56 velocity=0 time=160
note_on channel=0 note=61 velocity=28 time=0
note_on channel=0 note=61 velocity=0 time=160
note_on channel=0 note=65 velocity=29 time=0
note_on channel=0 note=65 velocity=0 time=160
note_on channel=0 note=61 velocity=30 time=0
note_on channel=0 note=61 velocity=0 time=160
note_on channel=0 note=56 velocity=28 time=0
<meta message set_tempo tempo=682749 time=160>
note_on channel=0 note=56 velocity=0 time=0
note_on channel=0 note=77 velocity=0 time=0
note_on channel=0 note=80 velocity=56 time=0
note_on channel=0 note=49 velocity=27 time=0
control_change channel=0 control=64 value=0 time=14
control_change channel=0 control=64 value=127 time=85
note_on channel=0 note=49 velocity=0 time=61
note_on channel=0 note=56 velocity=28 time=0
note_on channel=0 note=56 velocity=0 time=160
note_on channel=0 note=65 velocity=29 time=0
note_on channel=0 note=65 velocity=0 time=160
note_on channel=0 note=68 velocity=49 time=0
note_on channel=0 note=65 velocity=30 time=160
<meta message set_tempo tempo=706048 time=80>
note_on channel=0 note=65 velocity=0 time=80
note_on channel=0 note=56 velocity=29 time=0
note_on channel=0 note=56 velocity=0 time=160
note_on channel=0 note=68 velocity=0 time=0
note_on channel=0 note=80 velocity=0 time=0
note_on channel=0 note=78 velocity=53 time=0
note_on channel=0 note=66 velocity=30 time=0
control_change channel=0 control=64 value=0 time=17
control_change channel=0 control=64 value=127 time=61
note_on channel=0 note=66 velocity=0 time=82
note_on channel=0 note=63 velocity=26 time=0
note_on channel=0 note=63 velocity=0 time=160
note_on channel=0 note=56 velocity=26 time=0
<meta message set_tempo tempo=698080 time=160>
note_on channel=0 note=56 velocity=0 time=0
note_on channel=0 note=78 velocity=0 time=0
note_on channel=0 note=77 velocity=51 time=0
note_on channel=0 note=65 velocity=30 time=0
control_change channel=0 control=64 value=0 time=16
control_change channel=0 control=64 value=127 time=51
note_on channel=0 note=65 velocity=0 time=93
note_on channel=0 note=61 velocity=26 time=0
note_on channel=0 note=61 velocity=0 time=160
note_on channel=0 note=56 velocity=26 time=0
<meta message set_tempo tempo=690369 time=160>
note_on channel=0 note=56 velocity=0 time=0
note_on channel=0 note=77 velocity=0 time=0
note_on channel=0 note=75 velocity=49 time=0
note_on channel=0 note=63 velocity=30 time=0
control_change channel=0 control=64 value=0 time=16
control_change channel=0 control=64 value=127 time=69
note_on channel=0 note=63 velocity=0 time=75
note_on channel=0 note=60 velocity=23 time=0
<meta message set_tempo tempo=710059 time=80>
note_on channel=0 note=75 velocity=0 time=0
note_on channel=0 note=77 velocity=47 time=0
note_on channel=0 note=77 velocity=0 time=60
note_on channel=0 note=75 velocity=47 time=0
note_on channel=0 note=60 velocity=0 time=20
note_on channel=0 note=56 velocity=23 time=0
note_on channel=0 note=75 velocity=0 time=40
note_on channel=0 note=73 velocity=47 time=0
note_on channel=0 note=73 velocity=0 time=60
note_on channel=0 note=75 velocity=47 time=0
note_on channel=0 note=75 velocity=0 time=60
note_on channel=0 note=56 velocity=0 time=0
note_on channel=0 note=77 velocity=51 time=0
note_on channel=0 note=61 velocity=29 time=0
control_change channel=0 control=64 value=0 time=7
control_change channel=0 control=64 value=127 time=64
note_on channel=0 note=61 velocity=0 time=89
note_on channel=0 note=56 velocity=24 time=0
<meta message set_tempo tempo=764331 time=80>
note_on channel=0 note=77 velocity=0 time=0
note_on channel=0 note=73 velocity=47 time=0
note_on channel=0 note=56 velocity=0 time=80
note_on channel=0 note=53 velocity=24 time=0
<meta message set_tempo tempo=722892 time=160>
note_on channel=0 note=53 velocity=0 time=0
note_on channel=0 note=73 velocity=0 time=0
note_on channel=0 note=68 velocity=48 time=0
note_on channel=0 note=44 velocity=26 time=0
control_change channel=0 control=64 value=0 time=7
control_change channel=0 control=64 value=127 time=57
note_on channel=0 note=44 velocity=0 time=96
note_on channel=0 note=51 velocity=27 time=0
note_on channel=0 note=51 velocity=0 time=160
note_on channel=0 note=56 velocity=27 time=0
<meta message set_tempo tempo=706048 time=160>
note_on channel=0 note=56 velocity=0 time=0
note_on channel=0 note=60 velocity=28 time=0
note_on channel=0 note=60 velocity=0 time=160
note_on channel=0 note=56 velocity=27 time=0
<meta message set_tempo tempo=726656 time=80>
note_on channel=0 note=56 velocity=0 time=80
note_on channel=0 note=51 velocity=27 time=0
<meta message set_tempo tempo=710059 time=160>
note_on channel=0 note=51 velocity=0 time=0
note_on channel=0 note=68 velocity=0 time=0
note_on channel=0 note=70 velocity=48 time=0
note_on channel=0 note=42 velocity=27 time=0
control_change channel=0 control=64 value=0 time=6
control_change channel=0 control=64 value=127 time=86
note_on channel=0 note=42 velocity=0 time=68
note_on channel=0 note=54 velocity=27 time=0
note_on channel=0 note=54 velocity=0 time=160
note_on channel=0 note=58 velocity=28 time=0
note_on channel=0 note=58 velocity=0 time=160
note_on channel=0 note=61 velocity=29 time=0
note_on channel=0 note=61 velocity=0 time=160
note_on channel=0 note=58 velocity=28 time=0
note_on channel=0 note=58 velocity=0 time=160
note_on channel=0 note=54 velocity=28 time=0
note_on channel=0 note=54 velocity=0 time=160
note_on channel=0 note=46 velocity=27 time=0
control_change channel=0 control=64 value=0 time=5
control_change channel=0 control=64 value=127 time=58
note_on channel=0 note=46 velocity=0 time=97
note_on channel=0 note=53 velocity=27 time=0
note_on channel=0 note=53 velocity=0 time=160
note_on channel=0 note=58 velocity=28 time=0
note_on channel=0 note=58 velocity=0 time=160
note_on channel=0 note=62 velocity=28 time=0
note_on channel=0 note=62 velocity=0 time=160
note_on channel=0 note=58 velocity=28 time=0
note_on channel=0 note=58 velocity=0 time=160
note_on channel=0 note=53 velocity=27 time=0
<meta message set_tempo tempo=710059 time=160>
note_on channel=0 note=53 velocity=0 time=0
note_on channel=0 note=70 velocity=0 time=0
note_on channel=0 note=71 velocity=48 time=0
note_on channel=0 note=46 velocity=28 time=0
control_change channel=0 control=64 value=0 time=15
<meta message set_tempo tempo=705882 time=25>
note_on channel=0 note=71 velocity=0 time=8
note_on channel=0 note=73 velocity=42 time=0
control_change channel=0 control=64 value=127 time=12
<meta message set_tempo tempo=701754 time=20>
note_on channel=0 note=73 velocity=0 time=16
note_on channel=0 note=71 velocity=43 time=0
<meta message set_tempo tempo=697674 time=24>
note_on channel=0 note=71 velocity=0 time=24
note_on channel=0 note=73 velocity=42 time=0
<meta message set_tempo tempo=693642 time=16>
note_on channel=0 note=46 velocity=0 time=0
note_on channel=0 note=58 velocity=29 time=0
note_on channel=0 note=73 velocity=0 time=32
note_on channel=0 note=71 velocity=42 time=0
<meta message set_tempo tempo=689655 time=8>
<meta message set_tempo tempo=685714 time=20>
<meta message set_tempo tempo=685714 time=20>
note_on channel=0 note=71 velocity=0 time=0
note_on channel=0 note=70 velocity=45 time=0
note_on channel=0 note=58 velocity=0 time=80
note_on channel=0 note=62 velocity=30 time=0
note_on channel=0 note=62 velocity=0 time=160
note_on channel=0 note=70 velocity=0 time=0
note_on channel=0 note=75 velocity=45 time=0
note_on channel=0 note=68 velocity=33 time=0
note_on channel=0 note=68 velocity=0 time=160
note_on channel=0 note=62 velocity=31 time=0
<meta message set_tempo tempo=718305 time=80>
note_on channel=0 note=75 velocity=0 time=0
note_on channel=0 note=77 velocity=48 time=0
note_on channel=0 note=62 velocity=0 time=80
note_on channel=0 note=58 velocity=29 time=0
<meta message set_tempo tempo=694203 time=160>
note_on channel=0 note=58 velocity=0 time=0
note_on channel=0 note=77 velocity=0 time=0
note_on channel=0 note=78 velocity=51 time=0
note_on channel=0 note=51 velocity=34 time=0
control_change channel=0 control=64 value=0 time=5
control_change channel=0 control=64 value=127 time=70
note_on channel=0 note=51 velocity=0 time=85
note_on channel=0 note=66 velocity=31 time=0
note_on channel=0 note=66 velocity=0 time=160
note_on channel=0 note=58 velocity=28 time=0
note_on channel=0 note=58 velocity=0 time=160
note_on channel=0 note=78 velocity=0 time=0
note_on channel=0 note=77 velocity=47 time=0
note_on channel=0 note=53 velocity=31 time=0
control_change channel=0 control=64 value=0 time=10
control_change channel=0 control=64 value=127 time=99
note_on channel=0 note=53 velocity=0 time=51
note_on channel=0 note=65 velocity=28 time=0
note_on channel=0 note=65 velocity=0 time=160
note_on channel=0 note=57 velocity=28 time=0
<meta message set_tempo tempo=682749 time=160>
note_on channel=0 note=57 velocity=0 time=0
note_on channel=0 note=77 velocity=0 time=0
note_on channel=0 note=75 velocity=49 time=0
note_on channel=0 note=54 velocity=30 time=0
control_change channel=0 control=64 value=0 time=18
control_change channel=0 control=64 value=127 time=74
note_on channel=0 note=54 velocity=0 time=68
note_on channel=0 note=63 velocity=25 time=0
note_on channel=0 note=63 velocity=0 time=160
note_on channel=0 note=58 velocity=25 time=0
note_on channel=0 note=58 velocity=0 time=160
note_on channel=0 note=75 velocity=0 time=0
note_on channel=0 note=77 velocity=45 time=0
note_on channel=0 note=56 velocity=30 time=0
control_change channel=0 control=64 value=0 time=14
control_change channel=0 control=64 value=127 time=49
note_on channel=0 note=56 velocity=0 time=97
note_on channel=0 note=66 velocity=27 time=0
<meta message set_tempo tempo=727273 time=80>
note_on channel=0 note=66 velocity=0 time=80
note_on channel=0 note=60 velocity=27 time=0
note_on channel=0 note=60 velocity=0 time=160
note_on channel=0 note=77 velocity=0 time=0
note_on channel=0 note=73 velocity=43 time=0
note_on channel=0 note=49 velocity=22 time=0
control_change channel=0 control=64 value=0 time=7
control_change channel=0 control=64 value=127 time=78
note_on channel=0 note=49 velocity=0 time=75
note_on channel=0 note=56 velocity=23 time=0
note_on channel=0 note=56 velocity=0 time=160
note_on channel=0 note=61 velocity=26 time=0
note_on channel=0 note=61 velocity=0 time=160
note_on channel=0 note=65 velocity=27 time=0
note_on channel=0 note=65 velocity=0 time=160
note_on channel=0 note=61 velocity=26 time=0
<meta message set_tempo tempo=833333 time=80>
note_on channel=0 note=73 velocity=0 time=0
note_on channel=0 note=67 velocity=44 time=0
note_on channel=0 note=67 velocity=0 time=60
note_on channel=0 note=68 velocity=40 time=0
note_on channel=0 note=61 velocity=0 time=20
note_on channel=0 note=56 velocity=23 time=0
note_on channel=0 note=68 velocity=0 time=40
note_on channel=0 note=70 velocity=40 time=0
note_on channel=0 note=70 velocity=0 time=60
note_on channel=0 note=68 velocity=40 time=0
<meta message set_tempo tempo=754717 time=60>
note_on channel=0 note=68 velocity=0 time=0
note_on channel=0 note=56 velocity=0 time=0
note_on channel=0 note=77 velocity=45 time=0
note_on channel=0 note=49 velocity=23 time=0
control_change channel=0 control=64 value=0 time=16
control_change channel=0 control=64 value=127 time=44
note_on channel=0 note=49 velocity=0 time=100
note_on channel=0 note=56 velocity=24 time=0
note_on channel=0 note=56 velocity=0 time=160
note_on channel=0 note=60 velocity=26 time=0
note_on channel=0 note=60 velocity=0 time=160
note_on channel=0 note=66 velocity=27 time=0
note_on channel=0 note=66 velocity=0 time=160
note_on channel=0 note=60 velocity=26 time=0
<meta message set_tempo tempo=821918 time=80>
note_on channel=0 note=77 velocity=0 time=0
note_on channel=0 note=75 velocity=44 time=0
note_on channel=0 note=60 velocity=0 time=80
note_on channel=0 note=56 velocity=23 time=0
<meta message set_tempo tempo=769231 time=160>
note_on channel=0 note=56 velocity=0 time=0
note_on channel=0 note=75 velocity=0 time=0
note_on channel=0 note=75 velocity=44 time=0
note_on channel=0 note=49 velocity=20 time=0
control_change channel=0 control=64 value=0 time=18
control_change channel=0 control=64 value=127 time=88
note_on channel=0 note=49 velocity=0 time=54
note_on channel=0 note=56 velocity=21 time=0
note_on channel=0 note=56 velocity=0 time=160
note_on channel=0 note=60 velocity=22 time=0
note_on channel=0 note=60 velocity=0 time=160
note_on channel=0 note=66 velocity=24 time=0
note_on channel=0 note=66 velocity=0 time=160
note_on channel=0 note=60 velocity=22 time=0
note_on channel=0 note=60 velocity=0 time=160
note_on channel=0 note=56 velocity=22 time=0
<meta message set_tempo tempo=764331 time=120>
note_on channel=0 note=56 velocity=0 time=40
note_on channel=0 note=49 velocity=20 time=0
<meta message set_tempo tempo=769231 time=80>
<meta message set_tempo tempo=774194 time=80>
note_on channel=0 note=49 velocity=0 time=0
note_on channel=0 note=56 velocity=21 time=0
<meta message set_tempo tempo=779221 time=80>
<meta message set_tempo tempo=784314 time=80>
note_on channel=0 note=56 velocity=0 time=0
note_on channel=0 note=60 velocity=22 time=0
<meta message set_tempo tempo=789474 time=80>
note_on channel=0 note=60 velocity=0 time=80
note_on channel=0 note=66 velocity=22 time=0
<meta message set_tempo tempo=794702 time=40>
<meta message set_tempo tempo=800000 time=80>
note_on channel=0 note=66 velocity=0 time=40
note_on channel=0 note=60 velocity=22 time=0
<meta message set_tempo tempo=805369 time=40>
<meta message set_tempo tempo=810811 time=80>
note_on channel=0 note=60 velocity=0 time=40
note_on channel=0 note=56 velocity=21 time=0
<meta message set_tempo tempo=816327 time=40>
<meta message set_tempo tempo=821918 time=80>
<meta message key_signature key='E' time=40>
<meta message set_tempo tempo=353982 time=0>
note_on channel=0 note=56 velocity=0 time=0
note_on channel=0 note=75 velocity=0 time=0
note_on channel=0 note=49 velocity=22 time=0
control_change channel=0 control=64 value=0 time=4
<meta message set_tempo tempo=352941 time=36>
control_change channel=0 control=64 value=127 time=23
note_on channel=0 note=68 velocity=37 time=57
<meta message set_tempo tempo=353982 time=40>
note_on channel=0 note=49 velocity=0 time=0
note_on channel=0 note=56 velocity=25 time=0
<meta message set_tempo tempo=355030 time=40>
<meta message set_tempo tempo=356083 time=40>
note_on channel=0 note=68 velocity=0 time=0
note_on channel=0 note=69 velocity=41 time=0
note_on channel=0 note=56 velocity=0 time=80
note_on channel=0 note=61 velocity=28 time=0
<meta message set_tempo tempo=355030 time=40>
note_on channel=0 note=69 velocity=0 time=0
note_on channel=0 note=68 velocity=38 time=0
<meta message set_tempo tempo=353982 time=40>
<meta message set_tempo tempo=352941 time=40>
note_on channel=0 note=68 velocity=0 time=40
note_on channel=0 note=61 velocity=0 time=0
note_on channel=0 note=67 velocity=39 time=0
note_on channel=0 note=64 velocity=30 time=0
<meta message set_tempo tempo=350877 time=40>
<meta message set_tempo tempo=349854 time=40>
<meta message set_tempo tempo=353982 time=40>
note_on channel=0 note=67 velocity=0 time=0
note_on channel=0 note=68 velocity=40 time=0
note_on channel=0 note=64 velocity=0 time=40
note_on channel=0 note=61 velocity=28 time=0
<meta message set_tempo tempo=355030 time=40>
<meta message set_tempo tempo=356083 time=40>
note_on channel=0 note=68 velocity=0 time=0
note_on channel=0 note=73 velocity=42 time=0
note_on channel=0 note=61 velocity=0 time=80
note_on channel=0 note=56 velocity=27 time=0
note_on channel=0 note=73 velocity=0 time=40
note_on channel=0 note=76 velocity=43 time=0
<meta message set_tempo tempo=355030 time=40>
<meta message set_tempo tempo=353982 time=40>
<meta message set_tempo tempo=351906 time=40>
note_on channel=0 note=76 velocity=0 time=0
note_on channel=0 note=56 velocity=0 time=0
note_on channel=0 note=75 velocity=45 time=0
note_on channel=0 note=52 velocity=26 time=0
control_change channel=0 control=64 value=0 time=17
<meta message set_tempo tempo=352941 time=63>
note_on channel=0 note=75 velocity=0 time=40
note_on channel=0 note=73 velocity=43 time=0
<meta message set_tempo tempo=356083 time=40>
note_on channel=0 note=52 velocity=0 time=0
note_on channel=0 note=56 velocity=28 time=0
note_on channel=0 note=73 velocity=0 time=80
note_on channel=0 note=75 velocity=45 time=0
<meta message set_tempo tempo=353982 time=80>
note_on channel=0 note=56 velocity=0 time=0
note_on channel=0 note=61 velocity=30 time=0
<meta message set_tempo tempo=355030 time=40>
note_on channel=0 note=75 velocity=0 time=0
note_on channel=0 note=73 velocity=43 time=0
<meta message set_tempo tempo=356083 time=40>
<meta message set_tempo tempo=358209 time=40>
note_on channel=0 note=73 velocity=0 time=40
note_on channel=0 note=61 velocity=0 time=0
note_on channel=0 note=72 velocity=44 time=0
note_on channel=0 note=64 velocity=31 time=0
<meta message set_tempo tempo=357143 time=80>
<meta message set_tempo tempo=355030 time=40>
note_on channel=0 note=72 velocity=0 time=0
note_on channel=0 note=73 velocity=46 time=0
<meta message set_tempo tempo=353982 time=40>
note_on channel=0 note=64 velocity=0 time=0
note_on channel=0 note=61 velocity=28 time=0
note_on channel=0 note=73 velocity=0 time=80
note_on channel=0 note=76 velocity=49 time=0
note_on channel=0 note=61 velocity=0 time=80
note_on channel=0 note=56 velocity=27 time=0
<meta message set_tempo tempo=420080 time=40>
note_on channel=0 note=76 velocity=0 time=0
note_on channel=0 note=80 velocity=47 time=0
<meta message set_tempo tempo=403633 time=120>
note_on channel=0 note=80 velocity=0 time=0
note_on channel=0 note=56 velocity=0 time=0
note_on channel=0 note=49 velocity=27 time=0
control_change channel=0 control=64 value=0 time=5
control_change channel=0 control=64 value=127 time=58
<meta message set_tempo tempo=356739 time=57>
note_on channel=0 note=68 velocity=45 time=0
<meta message set_tempo tempo=355030 time=40>
note_on channel=0 note=49 velocity=0 time=0
note_on channel=0 note=56 velocity=30 time=0
<meta message set_tempo tempo=353982 time=40>
<meta message set_tempo tempo=352941 time=40>
note_on channel=0 note=68 velocity=0 time=0
note_on channel=0 note=69 velocity=49 time=0
<meta message set_tempo tempo=351906 time=40>
note_on channel=0 note=56 velocity=0 time=40
note_on channel=0 note=61 velocity=34 time=0
<meta message set_tempo tempo=353982 time=40>
note_on channel=0 note=69 velocity=0 time=0
note_on channel=0 note=68 velocity=45 time=0
<meta message set_tempo tempo=356083 time=80>
note_on channel=0 note=68 velocity=0 time=40
note_on channel=0 note=61 velocity=0 time=0
note_on channel=0 note=67 velocity=46 time=0
note_on channel=0 note=64 velocity=36 time=0
<meta message set_tempo tempo=355030 time=40>
<meta message set_tempo tempo=353982 time=40>
note_on channel=0 note=67 velocity=0 time=40
note_on channel=0 note=68 velocity=48 time=0
note_on channel=0 note=64 velocity=0 time=40
note_on channel=0 note=61 velocity=34 time=0
<meta message set_tempo tempo=356083 time=40>
<meta message set_tempo tempo=357143 time=40>
note_on channel=0 note=68 velocity=0 time=0
note_on channel=0 note=73 velocity=50 time=0
<meta message set_tempo tempo=355030 time=80>
note_on channel=0 note=61 velocity=0 time=0
note_on channel=0 note=56 velocity=33 time=0
<meta message set_tempo tempo=353982 time=40>
note_on channel=0 note=73 velocity=0 time=0
note_on channel=0 note=76 velocity=51 time=0
<meta message set_tempo tempo=351906 time=40>
<meta message set_tempo tempo=352941 time=80>
note_on channel=0 note=76 velocity=0 time=0
note_on channel=0 note=56 velocity=0 time=0
note_on channel=0 note=75 velocity=54 time=0
note_on channel=0 note=52 velocity=31 time=0
control_change channel=0 control=64 value=0 time=17
<meta message set_tempo tempo=353982 time=23>
<meta message set_tempo tempo=355030 time=80>
note_on channel=0 note=75 velocity=0 time=0
note_on channel=0 note=73 velocity=51 time=0
<meta message set_tempo tempo=356083 time=40>
note_on channel=0 note=52 velocity=0 time=0
note_on channel=0 note=56 velocity=33 time=0
<meta message set_tempo tempo=353982 time=40>
note_on channel=0 note=73 velocity=0 time=40
note_on channel=0 note=75 velocity=53 time=0
<meta message set_tempo tempo=352941 time=40>
<meta message set_tempo tempo=351906 time=40>
note_on channel=0 note=56 velocity=0 time=0
note_on channel=0 note=61 velocity=36 time=0
note_on channel=0 note=75 velocity=0 time=40
note_on channel=0 note=73 velocity=51 time=0
note_on channel=0 note=73 velocity=0 time=120
note_on channel=0 note=61 velocity=0 time=0
note_on channel=0 note=72 velocity=52 time=0
note_on channel=0 note=64 velocity=37 time=0
<meta message set_tempo tempo=353982 time=80>
note_on channel=0 note=72 velocity=0 time=40
note_on channel=0 note=73 velocity=54 time=0
<meta message set_tempo tempo=355030 time=40>
note_on channel=0 note=64 velocity=0 time=0
note_on channel=0 note=61 velocity=34 time=0
note_on channel=0 note=73 velocity=0 time=80
note_on channel=0 note=76 velocity=57 time=0
note_on channel=0 note=61 velocity=0 time=80
note_on channel=0 note=56 velocity=32 time=0
<meta message set_tempo tempo=418644 time=40>
note_on channel=0 note=76 velocity=0 time=0
note_on channel=0 note=80 velocity=55 time=0
<meta message set_tempo tempo=404968 time=120>
note_on channel=0 note=80 velocity=0 time=0
note_on channel=0 note=56 velocity=0 time=0
note_on channel=0 note=51 velocity=31 time=0
control_change channel=0 control=64 value=0 time=7
control_change channel=0 control=64 value=127 time=56
<meta message set_tempo tempo=362275 time=57>
note_on channel=0 note=69 velocity=56 time=0
note_on channel=0 note=51 velocity=0 time=40
note_on channel=0 note=57 velocity=35 time=0
<meta message set_tempo tempo=361163 time=40>
<meta message set_tempo tempo=360036 time=40>
note_on channel=0 note=69 velocity=0 time=0
note_on channel=0 note=73 velocity=58 time=0
<meta message set_tempo tempo=358938 time=80>
note_on channel=0 note=57 velocity=0 time=0
note_on channel=0 note=61 velocity=39 time=0
<meta message set_tempo tempo=357824 time=40>
note_on channel=0 note=73 velocity=0 time=0
note_on channel=0 note=75 velocity=60 time=0
<meta message set_tempo tempo=356739 time=40>
<meta message set_tempo tempo=358938 time=40>
note_on channel=0 note=75 velocity=0 time=40
note_on channel=0 note=61 velocity=0 time=0
note_on channel=0 note=78 velocity=63 time=0
note_on channel=0 note=66 velocity=45 time=0
<meta message set_tempo tempo=357824 time=80>
note_on channel=0 note=78 velocity=0 time=40
note_on channel=0 note=81 velocity=63 time=0
note_on channel=0 note=66 velocity=0 time=40
note_on channel=0 note=61 velocity=39 time=0
<meta message set_tempo tempo=356739 time=40>
note_on channel=0 note=81 velocity=0 time=40
note_on channel=0 note=85 velocity=66 time=0
<meta message set_tempo tempo=355640 time=80>
note_on channel=0 note=61 velocity=0 time=0
note_on channel=0 note=57 velocity=37 time=0
note_on channel=0 note=85 velocity=0 time=40
note_on channel=0 note=87 velocity=72 time=0
<meta message set_tempo tempo=354568 time=80>
note_on channel=0 note=87 velocity=0 time=40
note_on channel=0 note=57 velocity=0 time=0
note_on channel=0 note=95 velocity=76 time=0
note_on channel=0 note=54 velocity=37 time=0
<meta message set_tempo tempo=351906 time=40>
<meta message set_tempo tempo=350877 time=40>
note_on channel=0 note=95 velocity=0 time=40
note_on channel=0 note=93 velocity=75 time=0
note_on channel=0 note=54 velocity=0 time=40
note_on channel=0 note=61 velocity=40 time=0
<meta message set_tempo tempo=351906 time=80>
note_on channel=0 note=93 velocity=0 time=0
note_on channel=0 note=92 velocity=70 time=0
<meta message set_tempo tempo=352941 time=40>
<meta message set_tempo tempo=353982 time=40>
note_on channel=0 note=61 velocity=0 time=0
note_on channel=0 note=63 velocity=44 time=0
<meta message set_tempo tempo=355030 time=40>
note_on channel=0 note=92 velocity=0 time=0
note_on channel=0 note=90 velocity=69 time=0
<meta message set_tempo tempo=352941 time=80>
<meta message set_tempo tempo=351906 time=40>
note_on channel=0 note=90 velocity=0 time=0
note_on channel=0 note=63 velocity=0 time=0
note_on channel=0 note=88 velocity=68 time=0
note_on channel=0 note=69 velocity=46 time=0
<meta message set_tempo tempo=350877 time=40>
<meta message set_tempo tempo=353982 time=80>
note_on channel=0 note=88 velocity=0 time=0
note_on channel=0 note=87 velocity=67 time=0
<meta message set_tempo tempo=355030 time=40>
note_on channel=0 note=69 velocity=0 time=0
note_on channel=0 note=63 velocity=44 time=0
<meta message set_tempo tempo=356083 time=40>
note_on channel=0 note=87 velocity=0 time=40
note_on channel=0 note=90 velocity=66 time=0
<meta message set_tempo tempo=353982 time=40>
<meta message set_tempo tempo=352941 time=40>
note_on channel=0 note=63 velocity=0 time=0
note_on channel=0 note=61 velocity=41 time=0
<meta message set_tempo tempo=351906 time=40>
note_on channel=0 note=90 velocity=0 time=0
note_on channel=0 note=85 velocity=67 time=0
<meta message set_tempo tempo=349854 time=40>
note_on channel=0 note=85 velocity=0 time=80
note_on channel=0 note=61 velocity=0 time=0
note_on channel=0 note=84 velocity=68 time=0
note_on channel=0 note=44 velocity=33 time=0
control_change channel=0 control=64 value=0 time=7
<meta message set_tempo tempo=351906 time=33>
control_change channel=0 control=64 value=127 time=23
<meta message set_tempo tempo=356083 time=17>
<meta message set_tempo tempo=357143 time=40>
note_on channel=0 note=84 velocity=0 time=0
note_on channel=0 note=87 velocity=63 time=0
<meta message set_tempo tempo=352941 time=40>
note_on channel=0 note=44 velocity=0 time=0
note_on channel=0 note=51 velocity=35 time=0
<meta message set_tempo tempo=350877 time=40>
note_on channel=0 note=87 velocity=0 time=40
note_on channel=0 note=81 velocity=63 time=0
<meta message set_tempo tempo=349854 time=40>
<meta message set_tempo tempo=352941 time=40>
note_on channel=0 note=51 velocity=0 time=0
note_on channel=0 note=54 velocity=38 time=0
note_on channel=0 note=81 velocity=0 time=40
note_on channel=0 note=80 velocity=63 time=0
<meta message set_tempo tempo=355030 time=40>
note_on channel=0 note=80 velocity=0 time=80
note_on channel=0 note=54 velocity=0 time=0
note_on channel=0 note=78 velocity=60 time=0
note_on channel=0 note=60 velocity=39 time=0
<meta message set_tempo tempo=353982 time=80>
<meta message set_tempo tempo=352941 time=40>
note_on channel=0 note=78 velocity=0 time=0
note_on channel=0 note=81 velocity=58 time=0
<meta message set_tempo tempo=351906 time=40>
note_on channel=0 note=60 velocity=0 time=0
note_on channel=0 note=54 velocity=36 time=0
<meta message set_tempo tempo=352941 time=80>
note_on channel=0 note=81 velocity=0 time=0
note_on channel=0 note=76 velocity=54 time=0
<meta message set_tempo tempo=353982 time=80>
note_on channel=0 note=54 velocity=0 time=0
note_on channel=0 note=51 velocity=34 time=0
note_on channel=0 note=76 velocity=0 time=40
note_on channel=0 note=75 velocity=54 time=0
<meta message set_tempo tempo=352941 time=40>
<meta message set_tempo tempo=353503 time=80>
note_on channel=0 note=75 velocity=0 time=0
note_on channel=0 note=51 velocity=0 time=0
note_on channel=0 note=78 velocity=53 time=0
note_on channel=0 note=44 velocity=29 time=0
<meta message set_tempo tempo=354568 time=120>
note_on channel=0 note=78 velocity=0 time=0
note_on channel=0 note=73 velocity=48 time=0
note_on channel=0 note=44 velocity=0 time=40
note_on channel=0 note=51 velocity=31 time=0
<meta message set_tempo tempo=355640 time=40>
note_on channel=0 note=73 velocity=0 time=40
note_on channel=0 note=72 velocity=48 time=0
<meta message set_tempo tempo=356739 time=80>
note_on channel=0 note=51 velocity=0 time=0
note_on channel=0 note=54 velocity=33 time=0
note_on channel=0 note=72 velocity=0 time=40
note_on channel=0 note=75 velocity=47 time=0
<meta message set_tempo tempo=357824 time=40>
<meta message set_tempo tempo=360036 time=40>
<meta message set_tempo tempo=362275 time=40>
note_on channel=0 note=75 velocity=0 time=0
note_on channel=0 note=54 velocity=0 time=0
note_on channel=0 note=69 velocity=45 time=0
note_on channel=0 note=60 velocity=33 time=0
<meta message set_tempo tempo=364498 time=40>
<meta message set_tempo tempo=367940 time=40>
<meta message set_tempo tempo=370279 time=40>
note_on channel=0 note=69 velocity=0 time=0
note_on channel=0 note=68 velocity=42 time=0
<meta message set_tempo tempo=372648 time=40>
note_on channel=0 note=60 velocity=0 time=0
note_on channel=0 note=54 velocity=29 time=0
<meta message set_tempo tempo=375023 time=40>
<meta message set_tempo tempo=378668 time=40>
note_on channel=0 note=68 velocity=0 time=0
note_on channel=0 note=71 velocity=42 time=0
<meta message set_tempo tempo=381146 time=40>
note_on channel=0 note=54 velocity=0 time=40
note_on channel=0 note=51 velocity=26 time=0
<meta message set_tempo tempo=457247 time=40>
note_on channel=0 note=71 velocity=0 time=0
note_on channel=0 note=69 velocity=41 time=0
<meta message set_tempo tempo=356739 time=120>
note_on channel=0 note=51 velocity=0 time=0
note_on channel=0 note=49 velocity=22 time=0
control_change channel=0 control=64 value=0 time=6
<meta message set_tempo tempo=353982 time=34>
control_change channel=0 control=64 value=127 time=23
<meta message set_tempo tempo=352941 time=57>
note_on channel=0 note=69 velocity=0 time=0
note_on channel=0 note=68 velocity=37 time=0
note_on channel=0 note=49 velocity=0 time=40
note_on channel=0 note=56 velocity=25 time=0
<meta message set_tempo tempo=350877 time=40>
<meta message set_tempo tempo=349854 time=40>
note_on channel=0 note=68 velocity=0 time=0
note_on channel=0 note=69 velocity=41 time=0
<meta message set_tempo tempo=352941 time=40>
<meta message set_tempo tempo=356083 time=40>
note_on channel=0 note=56 velocity=0 time=0
note_on channel=0 note=61 velocity=28 time=0
note_on channel=0 note=69 velocity=0 time=40
note_on channel=0 note=68 velocity=38 time=0
<meta message set_tempo tempo=357143 time=80>
<meta message set_tempo tempo=353982 time=40>
note_on channel=0 note=68 velocity=0 time=0
note_on channel=0 note=61 velocity=0 time=0
note_on channel=0 note=67 velocity=39 time=0
note_on channel=0 note=64 velocity=30 time=0
<meta message set_tempo tempo=352941 time=40>
note_on channel=0 note=67 velocity=0 time=80
note_on channel=0 note=68 velocity=40 time=0
note_on channel=0 note=64 velocity=0 time=40
note_on channel=0 note=61 velocity=28 time=0
<meta message set_tempo tempo=353982 time=80>
note_on channel=0 note=68 velocity=0 time=0
note_on channel=0 note=73 velocity=42 time=0
<meta message set_tempo tempo=355030 time=80>
note_on channel=0 note=61 velocity=0 time=0
note_on channel=0 note=56 velocity=27 time=0
<meta message set_tempo tempo=356083 time=40>
note_on channel=0 note=73 velocity=0 time=0
note_on channel=0 note=76 velocity=43 time=0
<meta message set_tempo tempo=357143 time=40>
<meta message set_tempo tempo=356083 time=80>
note_on channel=0 note=76 velocity=0 time=0
note_on channel=0 note=56 velocity=0 time=0
note_on channel=0 note=75 velocity=45 time=0
note_on channel=0 note=52 velocity=26 time=0
control_change channel=0 control=64 value=0 time=17
<meta message set_tempo tempo=355030 time=23>
<meta message set_tempo tempo=353982 time=40>
note_on channel=0 note=75 velocity=0 time=40
note_on channel=0 note=73 velocity=43 time=0
<meta message set_tempo tempo=351906 time=40>
note_on channel=0 note=52 velocity=0 time=0
note_on channel=0 note=56 velocity=28 time=0
<meta message set_tempo tempo=350877 time=40>
<meta message set_tempo tempo=351906 time=40>
note_on channel=0 note=73 velocity=0 time=0
note_on channel=0 note=75 velocity=45 time=0
<meta message set_tempo tempo=352941 time=80>
note_on channel=0 note=56 velocity=0 time=0
note_on channel=0 note=61 velocity=30 time=0
note_on channel=0 note=75 velocity=0 time=40
note_on channel=0 note=73 velocity=43 time=0
<meta message set_tempo tempo=356083 time=40>
<meta message set_tempo tempo=355030 time=80>
note_on channel=0 note=73 velocity=0 time=0
note_on channel=0 note=61 velocity=0 time=0
note_on channel=0 note=72 velocity=44 time=0
note_on channel=0 note=64 velocity=31 time=0
<meta message set_tempo tempo=353982 time=40>
<meta message set_tempo tempo=352941 time=40>
<meta message set_tempo tempo=351906 time=40>
note_on channel=0 note=72 velocity=0 time=0
note_on channel=0 note=73 velocity=46 time=0
<meta message set_tempo tempo=355030 time=40>
note_on channel=0 note=64 velocity=0 time=0
note_on channel=0 note=61 velocity=28 time=0
note_on channel=0 note=73 velocity=0 time=80
note_on channel=0 note=76 velocity=49 time=0
note_on channel=0 note=61 velocity=0 time=80
note_on channel=0 note=56 velocity=27 time=0
<meta message set_tempo tempo=425834 time=40>
note_on channel=0 note=76 velocity=0 time=0
note_on channel=0 note=80 velocity=47 time=0
<meta message set_tempo tempo=403633 time=120>
note_on channel=0 note=80 velocity=0 time=0
note_on channel=0 note=56 velocity=0 time=0
note_on channel=0 note=49 velocity=27 time=0
control_change channel=0 control=64 value=0 time=6
control_change channel=0 control=64 value=127 time=57
<meta message set_tempo tempo=356739 time=57>
note_on channel=0 note=68 velocity=45 time=0
<meta message set_tempo tempo=356083 time=40>
note_on channel=0 note=49 velocity=0 time=0
note_on channel=0 note=56 velocity=30 time=0
<meta message set_tempo tempo=355030 time=80>
note_on channel=0 note=68 velocity=0 time=0
note_on channel=0 note=70 velocity=49 time=0
<meta message set_tempo tempo=353982 time=40>
<meta message set_tempo tempo=351906 time=40>
note_on channel=0 note=56 velocity=0 time=0
note_on channel=0 note=58 velocity=34 time=0
note_on channel=0 note=70 velocity=0 time=40
note_on channel=0 note=68 velocity=45 time=0
<meta message set_tempo tempo=352941 time=80>
<meta message set_tempo tempo=353982 time=40>
note_on channel=0 note=68 velocity=0 time=0
note_on channel=0 note=58 velocity=0 time=0
note_on channel=0 note=67 velocity=46 time=0
note_on channel=0 note=64 velocity=36 time=0
<meta message set_tempo tempo=358209 time=40>
<meta message set_tempo tempo=356083 time=80>
note_on channel=0 note=67 velocity=0 time=0
note_on channel=0 note=68 velocity=48 time=0
<meta message set_tempo tempo=355030 time=40>
note_on channel=0 note=64 velocity=0 time=0
note_on channel=0 note=58 velocity=34 time=0
<meta message set_tempo tempo=353982 time=80>
note_on channel=0 note=68 velocity=0 time=0
note_on channel=0 note=73 velocity=50 time=0
<meta message set_tempo tempo=352941 time=80>
note_on channel=0 note=58 velocity=0 time=0
note_on channel=0 note=56 velocity=33 time=0
note_on channel=0 note=73 velocity=0 time=40
note_on channel=0 note=76 velocity=51 time=0
<meta message set_tempo tempo=353982 time=80>
<meta message set_tempo tempo=355030 time=40>
note_on channel=0 note=76 velocity=0 time=0
note_on channel=0 note=56 velocity=0 time=0
note_on channel=0 note=75 velocity=54 time=0
note_on channel=0 note=52 velocity=31 time=0
control_change channel=0 control=64 value=0 time=17
<meta message set_tempo tempo=358209 time=63>
note_on channel=0 note=75 velocity=0 time=40
note_on channel=0 note=73 velocity=51 time=0
<meta message set_tempo tempo=356083 time=40>
note_on channel=0 note=52 velocity=0 time=0
note_on channel=0 note=56 velocity=33 time=0
<meta message set_tempo tempo=355030 time=40>
<meta message set_tempo tempo=353982 time=40>
note_on channel=0 note=73 velocity=0 time=0
note_on channel=0 note=75 velocity=53 time=0
<meta message set_tempo tempo=352941 time=40>
<meta message set_tempo tempo=351906 time=40>
note_on channel=0 note=56 velocity=0 time=0
note_on channel=0 note=58 velocity=36 time=0
<meta message set_tempo tempo=353982 time=40>
note_on channel=0 note=75 velocity=0 time=0
note_on channel=0 note=73 velocity=51 time=0
<meta message set_tempo tempo=355030 time=40>
<meta message set_tempo tempo=356083 time=40>
note_on channel=0 note=73 velocity=0 time=40
note_on channel=0 note=58 velocity=0 time=0
note_on channel=0 note=72 velocity=52 time=0
note_on channel=0 note=61 velocity=37 time=0
note_on channel=0 note=72 velocity=0 time=120
note_on channel=0 note=73 velocity=54 time=0
<meta message set_tempo tempo=355030 time=40>
note_on channel=0 note=61 velocity=0 time=0
note_on channel=0 note=58 velocity=34 time=0
<meta message set_tempo tempo=353982 time=40>
note_on channel=0 note=73 velocity=0 time=40
note_on channel=0 note=76 velocity=57 time=0
note_on channel=0 note=58 velocity=0 time=80
note_on channel=0 note=56 velocity=32 time=0
<meta message set_tempo tempo=425834 time=40>
note_on channel=0 note=76 velocity=0 time=0
note_on channel=0 note=80 velocity=55 time=0
<meta message set_tempo tempo=402334 time=120>
note_on channel=0 note=80 velocity=0 time=0
note_on channel=0 note=56 velocity=0 time=0
note_on channel=0 note=75 velocity=64 time=0
note_on channel=0 note=51 velocity=30 time=0
control_change channel=0 control=64 value=0 time=8
control_change channel=0 control=64 value=127 time=55
<meta message set_tempo tempo=362275 time=57>
note_on channel=0 note=75 velocity=0 time=0
note_on channel=0 note=76 velocity=58 time=0
note_on channel=0 note=51 velocity=0 time=40
note_on channel=0 note=56 velocity=34 time=0
<meta message set_tempo tempo=361163 time=40>
<meta message set_tempo tempo=360036 time=40>
note_on channel=0 note=76 velocity=0 time=0
note_on channel=0 note=75 velocity=61 time=0
<meta message set_tempo tempo=358938 time=80>
note_on channel=0 note=56 velocity=0 time=0
note_on channel=0 note=59 velocity=37 time=0
<meta message set_tempo tempo=357824 time=40>
note_on channel=0 note=75 velocity=0 time=0
note_on channel=0 note=74 velocity=50 time=0
<meta message set_tempo tempo=356739 time=40>
<meta message set_tempo tempo=358938 time=40>
note_on channel=0 note=74 velocity=0 time=40
note_on channel=0 note=59 velocity=0 time=0
note_on channel=0 note=75 velocity=56 time=0
note_on channel=0 note=63 velocity=39 time=0
<meta message set_tempo tempo=357824 time=80>
note_on channel=0 note=75 velocity=0 time=40
note_on channel=0 note=83 velocity=68 time=0
note_on channel=0 note=63 velocity=0 time=40
note_on channel=0 note=59 velocity=38 time=0
<meta message set_tempo tempo=356739 time=40>
note_on channel=0 note=83 velocity=0 time=40
note_on channel=0 note=82 velocity=62 time=0
<meta message set_tempo tempo=355640 time=80>
note_on channel=0 note=59 velocity=0 time=0
note_on channel=0 note=56 velocity=35 time=0
note_on channel=0 note=82 velocity=0 time=40
note_on channel=0 note=80 velocity=65 time=0
<meta message set_tempo tempo=351906 time=40>
<meta message set_tempo tempo=349854 time=40>
<meta message set_tempo tempo=348837 time=40>
note_on channel=0 note=80 velocity=0 time=0
note_on channel=0 note=56 velocity=0 time=0
note_on channel=0 note=79 velocity=68 time=0
note_on channel=0 note=51 velocity=38 time=0
control_change channel=0 control=64 value=0 time=8
control_change channel=0 control=64 value=127 time=67
<meta message set_tempo tempo=349854 time=45>
note_on channel=0 note=79 velocity=0 time=0
note_on channel=0 note=88 velocity=72 time=0
<meta message set_tempo tempo=350877 time=40>
note_on channel=0 note=51 velocity=0 time=0
note_on channel=0 note=58 velocity=41 time=0
<meta message set_tempo tempo=355030 time=80>
note_on channel=0 note=88 velocity=0 time=0
note_on channel=0 note=87 velocity=69 time=0
note_on channel=0 note=58 velocity=0 time=80
note_on channel=0 note=61 velocity=45 time=0
<meta message set_tempo tempo=353982 time=40>
note_on channel=0 note=87 velocity=0 time=0
note_on channel=0 note=85 velocity=69 time=0
<meta message set_tempo tempo=351906 time=40>
<meta message set_tempo tempo=350877 time=40>
<meta message set_tempo tempo=349854 time=40>
note_on channel=0 note=85 velocity=0 time=0
note_on channel=0 note=61 velocity=0 time=0
note_on channel=0 note=83 velocity=74 time=0
note_on channel=0 note=67 velocity=46 time=0
<meta message set_tempo tempo=348837 time=40>
<meta message set_tempo tempo=350877 time=40>
<meta message set_tempo tempo=351906 time=40>
note_on channel=0 note=83 velocity=0 time=0
note_on channel=0 note=82 velocity=69 time=0
note_on channel=0 note=67 velocity=0 time=40
note_on channel=0 note=61 velocity=44 time=0
<meta message set_tempo tempo=352941 time=40>
note_on channel=0 note=82 velocity=0 time=40
note_on channel=0 note=80 velocity=69 time=0
<meta message set_tempo tempo=355030 time=80>
note_on channel=0 note=61 velocity=0 time=0
note_on channel=0 note=58 velocity=41 time=0
<meta message set_tempo tempo=353982 time=40>
note_on channel=0 note=80 velocity=0 time=0
note_on channel=0 note=79 velocity=69 time=0
<meta message set_tempo tempo=350877 time=40>
<meta message set_tempo tempo=349854 time=40>
<meta message set_tempo tempo=350877 time=40>
note_on channel=0 note=79 velocity=0 time=0
note_on channel=0 note=58 velocity=0 time=0
note_on channel=0 note=82 velocity=72 time=0
note_on channel=0 note=44 velocity=33 time=0
control_change channel=0 control=64 value=0 time=7
control_change channel=0 control=64 value=127 time=56
<meta message set_tempo tempo=352941 time=17>
note_on channel=0 note=82 velocity=0 time=40
note_on channel=0 note=80 velocity=70 time=0
note_on channel=0 note=44 velocity=0 time=40
note_on channel=0 note=51 velocity=35 time=0
<meta message set_tempo tempo=350877 time=80>
note_on channel=0 note=80 velocity=0 time=0
note_on channel=0 note=83 velocity=64 time=0
<meta message set_tempo tempo=349854 time=80>
note_on channel=0 note=51 velocity=0 time=0
note_on channel=0 note=56 velocity=37 time=0
note_on channel=0 note=83 velocity=0 time=40
note_on channel=0 note=74 velocity=57 time=0
<meta message set_tempo tempo=348837 time=40>
<meta message set_tempo tempo=349854 time=40>
note_on channel=0 note=74 velocity=0 time=40
note_on channel=0 note=56 velocity=0 time=0
note_on channel=0 note=76 velocity=65 time=0
note_on channel=0 note=59 velocity=39 time=0
<meta message set_tempo tempo=350877 time=40>
<meta message set_tempo tempo=353982 time=40>
<meta message set_tempo tempo=355030 time=40>
note_on channel=0 note=76 velocity=0 time=0
note_on channel=0 note=75 velocity=57 time=0
note_on channel=0 note=59 velocity=0 time=40
note_on channel=0 note=56 velocity=39 time=0
<meta message set_tempo tempo=353982 time=40>
note_on channel=0 note=75 velocity=0 time=40
note_on channel=0 note=80 velocity=63 time=0
<meta message set_tempo tempo=352941 time=40>
note_on channel=0 note=56 velocity=0 time=40
note_on channel=0 note=51 velocity=37 time=0
note_on channel=0 note=80 velocity=0 time=40
note_on channel=0 note=70 velocity=57 time=0
<meta message set_tempo tempo=353503 time=120>
note_on channel=0 note=70 velocity=0 time=0
note_on channel=0 note=51 velocity=0 time=0
note_on channel=0 note=73 velocity=61 time=0
note_on channel=0 note=44 velocity=33 time=0
<meta message set_tempo tempo=354568 time=120>
note_on channel=0 note=73 velocity=0 time=0
note_on channel=0 note=71 velocity=59 time=0
note_on channel=0 note=44 velocity=0 time=40
note_on channel=0 note=51 velocity=35 time=0
<meta message set_tempo tempo=355640 time=40>
note_on channel=0 note=71 velocity=0 time=40
note_on channel=0 note=75 velocity=58 time=0
<meta message set_tempo tempo=356739 time=80>
note_on channel=0 note=51 velocity=0 time=0
note_on channel=0 note=56 velocity=38 time=0
note_on channel=0 note=75 velocity=0 time=40
note_on channel=0 note=67 velocity=56 time=0
<meta message set_tempo tempo=357824 time=40>
<meta message set_tempo tempo=360036 time=40>
<meta message set_tempo tempo=362275 time=40>
note_on channel=0 note=67 velocity=0 time=0
note_on channel=0 note=56 velocity=0 time=0
note_on channel=0 note=70 velocity=60 time=0
note_on channel=0 note=59 velocity=39 time=0
<meta message set_tempo tempo=367715 time=40>
<meta message set_tempo tempo=369891 time=40>
<meta message set_tempo tempo=373250 time=40>
note_on channel=0 note=70 velocity=0 time=0
note_on channel=0 note=68 velocity=51 time=0
<meta message set_tempo tempo=376671 time=40>
note_on channel=0 note=59 velocity=0 time=0
note_on channel=0 note=56 velocity=35 time=0
<meta message set_tempo tempo=378955 time=40>
<meta message set_tempo tempo=382482 time=40>
note_on channel=0 note=68 velocity=0 time=0
note_on channel=0 note=67 velocity=55 time=0
<meta message set_tempo tempo=387247 time=40>
<meta message set_tempo tempo=393391 time=40>
note_on channel=0 note=56 velocity=0 time=0
note_on channel=0 note=51 velocity=33 time=0
<meta message set_tempo tempo=399734 time=40>
note_on channel=0 note=67 velocity=0 time=0
note_on channel=0 note=68 velocity=50 time=0
<meta message set_tempo tempo=406284 time=40>
<meta message set_tempo tempo=413081 time=40>
<meta message set_tempo tempo=421496 time=40>
note_on channel=0 note=68 velocity=0 time=0
note_on channel=0 note=51 velocity=0 time=0
note_on channel=0 note=68 velocity=72 time=0
note_on channel=0 note=45 velocity=39 time=0
control_change channel=0 control=64 value=0 time=10
<meta message set_tempo tempo=417217 time=70>
control_change channel=0 control=64 value=127 time=11
<meta message set_tempo tempo=415829 time=29>
note_on channel=0 note=68 velocity=0 time=0
note_on channel=0 note=80 velocity=58 time=0
note_on channel=0 note=45 velocity=0 time=40
note_on channel=0 note=49 velocity=41 time=0
<meta message set_tempo tempo=414451 time=40>
<meta message set_tempo tempo=413081 time=40>
note_on channel=0 note=80 velocity=0 time=0
note_on channel=0 note=72 velocity=59 time=0
<meta message set_tempo tempo=411692 time=80>
note_on channel=0 note=49 velocity=0 time=0
note_on channel=0 note=54 velocity=43 time=0
<meta message set_tempo tempo=410313 time=40>
note_on channel=0 note=72 velocity=0 time=0
note_on channel=0 note=73 velocity=59 time=0
<meta message set_tempo tempo=408970 time=80>
<meta message set_tempo tempo=407636 time=40>
note_on channel=0 note=73 velocity=0 time=0
note_on channel=0 note=54 velocity=0 time=0
note_on channel=0 note=66 velocity=71 time=0
note_on channel=0 note=57 velocity=45 time=0
<meta message set_tempo tempo=406284 time=40>
note_on channel=0 note=66 velocity=0 time=80
note_on channel=0 note=78 velocity=60 time=0
<meta message set_tempo tempo=404231 time=40>
note_on channel=0 note=57 velocity=0 time=0
note_on channel=0 note=54 velocity=44 time=0
note_on channel=0 note=78 velocity=0 time=80
note_on channel=0 note=72 velocity=60 time=0
note_on channel=0 note=54 velocity=0 time=80
note_on channel=0 note=49 velocity=42 time=0
note_on channel=0 note=72 velocity=0 time=40
note_on channel=0 note=73 velocity=61 time=0
<meta message set_tempo tempo=402955 time=80>
<meta message set_tempo tempo=402955 time=40>
note_on channel=0 note=73 velocity=0 time=0
note_on channel=0 note=49 velocity=0 time=0
note_on channel=0 note=65 velocity=75 time=0
note_on channel=0 note=45 velocity=42 time=0
note_on channel=0 note=65 velocity=0 time=120
note_on channel=0 note=77 velocity=62 time=0
note_on channel=0 note=45 velocity=0 time=40
note_on channel=0 note=49 velocity=44 time=0
<meta message set_tempo tempo=404231 time=40>
note_on channel=0 note=77 velocity=0 time=40
note_on channel=0 note=72 velocity=63 time=0
note_on channel=0 note=49 velocity=0 time=80
note_on channel=0 note=54 velocity=45 time=0
note_on channel=0 note=72 velocity=0 time=40
note_on channel=0 note=73 velocity=63 time=0
<meta message set_tempo tempo=405542 time=40>
note_on channel=0 note=73 velocity=0 time=80
note_on channel=0 note=54 velocity=0 time=0
note_on channel=0 note=66 velocity=74 time=0
note_on channel=0 note=57 velocity=45 time=0
<meta message set_tempo tempo=405542 time=80>
<meta message set_tempo tempo=406862 time=40>
note_on channel=0 note=66 velocity=0 time=0
note_on channel=0 note=78 velocity=65 time=0
<meta message set_tempo tempo=408136 time=40>
note_on channel=0 note=57 velocity=0 time=0
note_on channel=0 note=54 velocity=45 time=0
<meta message set_tempo tempo=409472 time=40>
<meta message set_tempo tempo=410790 time=40>
note_on channel=0 note=78 velocity=0 time=0
note_on channel=0 note=72 velocity=64 time=0
<meta message set_tempo tempo=413479 time=40>
<meta message set_tempo tempo=414852 time=40>
note_on channel=0 note=54 velocity=0 time=0
note_on channel=0 note=49 velocity=44 time=0
<meta message set_tempo tempo=416175 time=40>
note_on channel=0 note=72 velocity=0 time=0
note_on channel=0 note=73 velocity=64 time=0
<meta message set_tempo tempo=417537 time=40>
<meta message set_tempo tempo=420345 time=40>
<meta message set_tempo tempo=417537 time=40>
note_on channel=0 note=73 velocity=0 time=0
note_on channel=0 note=49 velocity=0 time=0
note_on channel=0 note=61 velocity=77 time=0
note_on channel=0 note=51 velocity=44 time=0
control_change channel=0 control=64 value=0 time=6
<meta message set_tempo tempo=413479 time=34>
<meta message set_tempo tempo=409472 time=40>
control_change channel=0 control=64 value=127 time=11
<meta message set_tempo tempo=405542 time=29>
note_on channel=0 note=61 velocity=0 time=0
note_on channel=0 note=73 velocity=65 time=0
<meta message set_tempo tempo=401687 time=40>
note_on channel=0 note=51 velocity=0 time=0
note_on channel=0 note=54 velocity=46 time=0
<meta message set_tempo tempo=405542 time=40>
<meta message set_tempo tempo=404231 time=40>
note_on channel=0 note=73 velocity=0 time=0
note_on channel=0 note=66 velocity=65 time=0
note_on channel=0 note=54 velocity=0 time=80
note_on channel=0 note=57 velocity=48 time=0
note_on channel=0 note=66 velocity=0 time=40
note_on channel=0 note=69 velocity=65 time=0
note_on channel=0 note=69 velocity=0 time=120
note_on channel=0 note=57 velocity=0 time=0
note_on channel=0 note=63 velocity=75 time=0
note_on channel=0 note=59 velocity=49 time=0
note_on channel=0 note=63 velocity=0 time=120
note_on channel=0 note=75 velocity=65 time=0
note_on channel=0 note=59 velocity=0 time=40
note_on channel=0 note=57 velocity=47 time=0
note_on channel=0 note=75 velocity=0 time=80
note_on channel=0 note=66 velocity=65 time=0
<meta message set_tempo tempo=402955 time=80>
note_on channel=0 note=57 velocity=0 time=0
note_on channel=0 note=54 velocity=45 time=0
note_on channel=0 note=66 velocity=0 time=40
note_on channel=0 note=69 velocity=65 time=0
note_on channel=0 note=69 velocity=0 time=120
note_on channel=0 note=54 velocity=0 time=0
note_on channel=0 note=64 velocity=79 time=0
note_on channel=0 note=40 velocity=45 time=0
control_change channel=0 control=64 value=0 time=14
<meta message set_tempo tempo=404231 time=26>
control_change channel=0 control=64 value=127 time=52
note_on channel=0 note=64 velocity=0 time=28
note_on channel=0 note=76 velocity=66 time=0
note_on channel=0 note=40 velocity=0 time=40
note_on channel=0 note=47 velocity=46 time=0
<meta message set_tempo tempo=405542 time=40>
note_on channel=0 note=76 velocity=0 time=40
note_on channel=0 note=68 velocity=66 time=0
note_on channel=0 note=47 velocity=0 time=80
note_on channel=0 note=52 velocity=48 time=0
<meta message set_tempo tempo=406862 time=40>
note_on channel=0 note=68 velocity=0 time=0
note_on channel=0 note=71 velocity=66 time=0
note_on channel=0 note=71 velocity=0 time=120
note_on channel=0 note=52 velocity=0 time=0
note_on channel=0 note=68 velocity=77 time=0
note_on channel=0 note=56 velocity=47 time=0
<meta message set_tempo tempo=408136 time=40>
<meta message set_tempo tempo=409472 time=80>
note_on channel=0 note=68 velocity=0 time=0
note_on channel=0 note=80 velocity=67 time=0
<meta message set_tempo tempo=410790 time=40>
note_on channel=0 note=56 velocity=0 time=0
note_on channel=0 note=52 velocity=46 time=0
<meta message set_tempo tempo=412116 time=40>
<meta message set_tempo tempo=413479 time=40>
note_on channel=0 note=80 velocity=0 time=0
note_on channel=0 note=71 velocity=66 time=0
<meta message set_tempo tempo=414852 time=40>
<meta message set_tempo tempo=416175 time=40>
note_on channel=0 note=52 velocity=0 time=0
note_on channel=0 note=47 velocity=45 time=0
note_on channel=0 note=71 velocity=0 time=40
note_on channel=0 note=76 velocity=65 time=0
<meta message set_tempo tempo=406862 time=120>
note_on channel=0 note=76 velocity=0 time=0
note_on channel=0 note=47 velocity=0 time=0
note_on channel=0 note=68 velocity=81 time=0
note_on channel=0 note=45 velocity=44 time=0
control_change channel=0 control=64 value=0 time=6
control_change channel=0 control=64 value=127 time=63
note_on channel=0 note=68 velocity=0 time=51
note_on channel=0 note=80 velocity=65 time=0
note_on channel=0 note=45 velocity=0 time=40
note_on channel=0 note=49 velocity=46 time=0
note_on channel=0 note=80 velocity=0 time=80
note_on channel=0 note=72 velocity=65 time=0
<meta message set_tempo tempo=405542 time=80>
note_on channel=0 note=49 velocity=0 time=0
note_on channel=0 note=54 velocity=48 time=0
note_on channel=0 note=72 velocity=0 time=40
note_on channel=0 note=73 velocity=65 time=0
note_on channel=0 note=73 velocity=0 time=120
note_on channel=0 note=54 velocity=0 time=0
note_on channel=0 note=66 velocity=78 time=0
note_on channel=0 note=57 velocity=49 time=0
note_on channel=0 note=66 velocity=0 time=120
note_on channel=0 note=78 velocity=65 time=0
<meta message set_tempo tempo=404231 time=40>
note_on channel=0 note=57 velocity=0 time=0
note_on channel=0 note=54 velocity=47 time=0
note_on channel=0 note=78 velocity=0 time=80
note_on channel=0 note=72 velocity=65 time=0
note_on channel=0 note=54 velocity=0 time=80
note_on channel=0 note=49 velocity=45 time=0
note_on channel=0 note=72 velocity=0 time=40
note_on channel=0 note=73 velocity=65 time=0
<meta message set_tempo tempo=402955 time=80>
<meta message set_tempo tempo=402955 time=40>
note_on channel=0 note=73 velocity=0 time=0
note_on channel=0 note=49 velocity=0 time=0
note_on channel=0 note=65 velocity=79 time=0
note_on channel=0 note=45 velocity=45 time=0
note_on channel=0 note=65 velocity=0 time=120
note_on channel=0 note=77 velocity=66 time=0
note_on channel=0 note=45 velocity=0 time=40
note_on channel=0 note=49 velocity=46 time=0
<meta message set_tempo tempo=404231 time=40>
note_on channel=0 note=77 velocity=0 time=40
note_on channel=0 note=72 velocity=66 time=0
note_on channel=0 note=49 velocity=0 time=80
note_on channel=0 note=54 velocity=48 time=0
note_on channel=0 note=72 velocity=0 time=40
note_on channel=0 note=73 velocity=66 time=0
<meta message set_tempo tempo=405542 time=40>
note_on channel=0 note=73 velocity=0 time=80
note_on channel=0 note=54 velocity=0 time=0
note_on channel=0 note=66 velocity=77 time=0
note_on channel=0 note=57 velocity=47 time=0
<meta message set_tempo tempo=405542 time=80>
<meta message set_tempo tempo=406862 time=40>
note_on channel=0 note=66 velocity=0 time=0
note_on channel=0 note=78 velocity=67 time=0
<meta message set_tempo tempo=408136 time=40>
note_on channel=0 note=57 velocity=0 time=0
note_on channel=0 note=54 velocity=46 time=0
<meta message set_tempo tempo=409472 time=40>
<meta message set_tempo tempo=410790 time=40>
note_on channel=0 note=78 velocity=0 time=0
note_on channel=0 note=72 velocity=66 time=0
<meta message set_tempo tempo=413479 time=40>
<meta message set_tempo tempo=414852 time=40>
note_on channel=0 note=54 velocity=0 time=0
note_on channel=0 note=49 velocity=45 time=0
<meta message set_tempo tempo=416175 time=40>
note_on channel=0 note=72 velocity=0 time=0
note_on channel=0 note=73 velocity=65 time=0
<meta message set_tempo tempo=417537 time=40>
<meta message set_tempo tempo=420345 time=40>
<meta message set_tempo tempo=412116 time=40>
note_on channel=0 note=73 velocity=0 time=0
note_on channel=0 note=49 velocity=0 time=0
note_on channel=0 note=65 velocity=81 time=0
note_on channel=0 note=47 velocity=44 time=0
control_change channel=0 control=64 value=0 time=7
control_change channel=0 control=64 value=127 time=84
note_on channel=0 note=65 velocity=0 time=29
note_on channel=0 note=77 velocity=65 time=0
note_on channel=0 note=47 velocity=0 time=40
note_on channel=0 note=51 velocity=46 time=0
note_on channel=0 note=77 velocity=0 time=80
note_on channel=0 note=71 velocity=65 time=0
<meta message set_tempo tempo=410790 time=80>
note_on channel=0 note=51 velocity=0 time=0
note_on channel=0 note=57 velocity=48 time=0
note_on channel=0 note=71 velocity=0 time=40
note_on channel=0 note=75 velocity=65 time=0
<meta message set_tempo tempo=418907 time=80>
<meta message set_tempo tempo=420345 time=40>
note_on channel=0 note=75 velocity=0 time=0
note_on channel=0 note=57 velocity=0 time=0
note_on channel=0 note=66 velocity=78 time=0
note_on channel=0 note=59 velocity=49 time=0
<meta message set_tempo tempo=421733 time=40>
<meta message set_tempo tempo=424508 time=40>
<meta message set_tempo tempo=425955 time=40>
note_on channel=0 note=66 velocity=0 time=0
note_on channel=0 note=78 velocity=65 time=0
<meta message set_tempo tempo=428847 time=40>
note_on channel=0 note=59 velocity=0 time=0
note_on channel=0 note=57 velocity=47 time=0
<meta message set_tempo tempo=430293 time=40>
<meta message set_tempo tempo=433213 time=40>
note_on channel=0 note=78 velocity=0 time=0
note_on channel=0 note=71 velocity=65 time=0
<meta message set_tempo tempo=439207 time=40>
<meta message set_tempo tempo=446927 time=40>
note_on channel=0 note=57 velocity=0 time=0
note_on channel=0 note=51 velocity=45 time=0
<meta message set_tempo tempo=453343 time=40>
note_on channel=0 note=71 velocity=0 time=0
note_on channel=0 note=75 velocity=65 time=0
<meta message set_tempo tempo=461609 time=40>
<meta message set_tempo tempo=470146 time=40>
<meta message set_tempo tempo=420345 time=40>
note_on channel=0 note=75 velocity=0 time=0
note_on channel=0 note=51 velocity=0 time=0
note_on channel=0 note=69 velocity=79 time=0
note_on channel=0 note=40 velocity=45 time=0
control_change channel=0 control=64 value=0 time=17
<meta message set_tempo tempo=421733 time=63>
control_change channel=0 control=64 value=127 time=29
<meta message set_tempo tempo=423101 time=11>
note_on channel=0 note=69 velocity=0 time=0
note_on channel=0 note=81 velocity=66 time=0
note_on channel=0 note=40 velocity=0 time=40
note_on channel=0 note=47 velocity=46 time=0
<meta message set_tempo tempo=424508 time=40>
<meta message set_tempo tempo=425955 time=40>
note_on channel=0 note=81 velocity=0 time=0
note_on channel=0 note=71 velocity=66 time=0
<meta message set_tempo tempo=427411 time=80>
note_on channel=0 note=47 velocity=0 time=0
note_on channel=0 note=52 velocity=48 time=0
<meta message set_tempo tempo=428847 time=40>
note_on channel=0 note=71 velocity=0 time=0
note_on channel=0 note=76 velocity=66 time=0
<meta message set_tempo tempo=430293 time=80>
<meta message set_tempo tempo=431748 time=40>
note_on channel=0 note=76 velocity=0 time=0
note_on channel=0 note=52 velocity=0 time=0
note_on channel=0 note=68 velocity=77 time=0
note_on channel=0 note=56 velocity=47 time=0
<meta message set_tempo tempo=433213 time=120>
note_on channel=0 note=68 velocity=0 time=0
note_on channel=0 note=80 velocity=67 time=0
note_on channel=0 note=56 velocity=0 time=40
note_on channel=0 note=52 velocity=46 time=0
<meta message set_tempo tempo=434720 time=40>
note_on channel=0 note=80 velocity=0 time=40
note_on channel=0 note=71 velocity=66 time=0
<meta message set_tempo tempo=436205 time=80>
note_on channel=0 note=52 velocity=0 time=0
note_on channel=0 note=47 velocity=45 time=0
note_on channel=0 note=71 velocity=0 time=40
note_on channel=0 note=76 velocity=65 time=0
<meta message set_tempo tempo=437733 time=40>
<meta message set_tempo tempo=428847 time=40>
<meta message set_tempo tempo=406862 time=40>
note_on channel=0 note=76 velocity=0 time=0
note_on channel=0 note=47 velocity=0 time=0
note_on channel=0 note=68 velocity=52 time=0
note_on channel=0 note=45 velocity=30 time=0
control_change channel=0 control=64 value=0 time=6
control_change channel=0 control=64 value=127 time=85
note_on channel=0 note=68 velocity=0 time=29
note_on channel=0 note=80 velocity=57 time=0
note_on channel=0 note=45 velocity=0 time=40
note_on channel=0 note=49 velocity=33 time=0
note_on channel=0 note=80 velocity=0 time=80
note_on channel=0 note=72 velocity=47 time=0
<meta message set_tempo tempo=405542 time=80>
note_on channel=0 note=49 velocity=0 time=0
note_on channel=0 note=54 velocity=34 time=0
note_on channel=0 note=72 velocity=0 time=40
note_on channel=0 note=73 velocity=47 time=0
note_on channel=0 note=73 velocity=0 time=120
note_on channel=0 note=54 velocity=0 time=0
note_on channel=0 note=66 velocity=49 time=0
note_on channel=0 note=57 velocity=35 time=0
note_on channel=0 note=66 velocity=0 time=120
note_on channel=0 note=78 velocity=54 time=0
<meta message set_tempo tempo=404231 time=40>
note_on channel=0 note=57 velocity=0 time=0
note_on channel=0 note=54 velocity=34 time=0
note_on channel=0 note=78 velocity=0 time=80
note_on channel=0 note=72 velocity=48 time=0
note_on channel=0 note=54 velocity=0 time=80
note_on channel=0 note=49 velocity=34 time=0
note_on channel=0 note=72 velocity=0 time=40
note_on channel=0 note=73 velocity=48 time=0
<meta message set_tempo tempo=402955 time=80>
<meta message set_tempo tempo=402955 time=40>
note_on channel=0 note=73 velocity=0 time=0
note_on channel=0 note=49 velocity=0 time=0
note_on channel=0 note=65 velocity=51 time=0
note_on channel=0 note=45 velocity=34 time=0
note_on channel=0 note=65 velocity=0 time=120
note_on channel=0 note=77 velocity=56 time=0
note_on channel=0 note=45 velocity=0 time=40
note_on channel=0 note=49 velocity=34 time=0
<meta message set_tempo tempo=404231 time=40>
note_on channel=0 note=77 velocity=0 time=40
note_on channel=0 note=72 velocity=50 time=0
note_on channel=0 note=49 velocity=0 time=80
note_on channel=0 note=54 velocity=36 time=0
note_on channel=0 note=72 velocity=0 time=40
note_on channel=0 note=73 velocity=50 time=0
<meta message set_tempo tempo=405542 time=40>
note_on channel=0 note=73 velocity=0 time=80
note_on channel=0 note=54 velocity=0 time=0
note_on channel=0 note=66 velocity=53 time=0
note_on channel=0 note=57 velocity=36 time=0
<meta message set_tempo tempo=405542 time=80>
<meta message set_tempo tempo=406862 time=40>
note_on channel=0 note=66 velocity=0 time=0
note_on channel=0 note=78 velocity=58 time=0
<meta message set_tempo tempo=408136 time=40>
note_on channel=0 note=57 velocity=0 time=0
note_on channel=0 note=54 velocity=35 time=0
<meta message set_tempo tempo=409472 time=40>
<meta message set_tempo tempo=410790 time=40>
note_on channel=0 note=78 velocity=0 time=0
note_on channel=0 note=72 velocity=51 time=0
<meta message set_tempo tempo=413479 time=40>
<meta message set_tempo tempo=414852 time=40>
note_on channel=0 note=54 velocity=0 time=0
note_on channel=0 note=49 velocity=34 time=0
<meta message set_tempo tempo=416175 time=40>
note_on channel=0 note=72 velocity=0 time=0
note_on channel=0 note=73 velocity=51 time=0
<meta message set_tempo tempo=417537 time=40>
<meta message set_tempo tempo=420345 time=40>
<meta message set_tempo tempo=417537 time=40>
note_on channel=0 note=73 velocity=0 time=0
note_on channel=0 note=49 velocity=0 time=0
note_on channel=0 note=61 velocity=55 time=0
note_on channel=0 note=47 velocity=34 time=0
control_change channel=0 control=64 value=0 time=9
<meta message set_tempo tempo=413479 time=31>
<meta message set_tempo tempo=409472 time=40>
control_change channel=0 control=64 value=127 time=11
<meta message set_tempo tempo=405542 time=29>
note_on channel=0 note=61 velocity=0 time=0
note_on channel=0 note=73 velocity=60 time=0
<meta message set_tempo tempo=401687 time=40>
note_on channel=0 note=47 velocity=0 time=0
note_on channel=0 note=54 velocity=37 time=0
<meta message set_tempo tempo=405542 time=40>
<meta message set_tempo tempo=404231 time=40>
note_on channel=0 note=73 velocity=0 time=0
note_on channel=0 note=66 velocity=52 time=0
note_on channel=0 note=54 velocity=0 time=80
note_on channel=0 note=57 velocity=38 time=0
note_on channel=0 note=66 velocity=0 time=40
note_on channel=0 note=69 velocity=53 time=0
note_on channel=0 note=69 velocity=0 time=120
note_on channel=0 note=57 velocity=0 time=0
note_on channel=0 note=63 velocity=55 time=0
note_on channel=0 note=59 velocity=39 time=0
note_on channel=0 note=63 velocity=0 time=120
note_on channel=0 note=75 velocity=62 time=0
note_on channel=0 note=59 velocity=0 time=40
note_on channel=0 note=57 velocity=38 time=0
note_on channel=0 note=75 velocity=0 time=80
note_on channel=0 note=66 velocity=54 time=0
<meta message set_tempo tempo=402955 time=80>
note_on channel=0 note=57 velocity=0 time=0
note_on channel=0 note=54 velocity=38 time=0
note_on channel=0 note=66 velocity=0 time=40
note_on channel=0 note=69 velocity=54 time=0
note_on channel=0 note=69 velocity=0 time=120
note_on channel=0 note=54 velocity=0 time=0
note_on channel=0 note=64 velocity=57 time=0
note_on channel=0 note=40 velocity=37 time=0
control_change channel=0 control=64 value=0 time=14
<meta message set_tempo tempo=404231 time=26>
control_change channel=0 control=64 value=127 time=52
note_on channel=0 note=64 velocity=0 time=28
note_on channel=0 note=76 velocity=65 time=0
note_on channel=0 note=40 velocity=0 time=40
note_on channel=0 note=47 velocity=39 time=0
<meta message set_tempo tempo=405542 time=40>
note_on channel=0 note=76 velocity=0 time=40
note_on channel=0 note=68 velocity=56 time=0
note_on channel=0 note=47 velocity=0 time=80
note_on channel=0 note=52 velocity=40 time=0
<meta message set_tempo tempo=406862 time=40>
note_on channel=0 note=68 velocity=0 time=0
note_on channel=0 note=71 velocity=56 time=0
note_on channel=0 note=71 velocity=0 time=120
note_on channel=0 note=52 velocity=0 time=0
note_on channel=0 note=68 velocity=60 time=0
note_on channel=0 note=56 velocity=40 time=0
<meta message set_tempo tempo=408136 time=40>
<meta message set_tempo tempo=409472 time=80>
note_on channel=0 note=68 velocity=0 time=0
note_on channel=0 note=80 velocity=68 time=0
<meta message set_tempo tempo=410790 time=40>
note_on channel=0 note=56 velocity=0 time=0
note_on channel=0 note=52 velocity=40 time=0
<meta message set_tempo tempo=412116 time=40>
<meta message set_tempo tempo=413479 time=40>
note_on channel=0 note=80 velocity=0 time=0
note_on channel=0 note=71 velocity=57 time=0
<meta message set_tempo tempo=414852 time=40>
<meta message set_tempo tempo=416175 time=40>
note_on channel=0 note=52 velocity=0 time=0
note_on channel=0 note=47 velocity=39 time=0
note_on channel=0 note=71 velocity=0 time=40
note_on channel=0 note=76 velocity=58 time=0
<meta message set_tempo tempo=410790 time=40>
note_on channel=0 note=76 velocity=0 time=80
note_on channel=0 note=47 velocity=0 time=0
note_on channel=0 note=68 velocity=62 time=0
note_on channel=0 note=45 velocity=39 time=0
control_change channel=0 control=64 value=0 time=10
<meta message set_tempo tempo=409472 time=70>
control_change channel=0 control=64 value=127 time=11
note_on channel=0 note=68 velocity=0 time=29
note_on channel=0 note=80 velocity=68 time=0
note_on channel=0 note=45 velocity=0 time=40
note_on channel=0 note=49 velocity=42 time=0
<meta message set_tempo tempo=408136 time=40>
note_on channel=0 note=80 velocity=0 time=40
note_on channel=0 note=72 velocity=59 time=0
<meta message set_tempo tempo=406862 time=80>
note_on channel=0 note=49 velocity=0 time=0
note_on channel=0 note=54 velocity=43 time=0
note_on channel=0 note=72 velocity=0 time=40
note_on channel=0 note=73 velocity=59 time=0
<meta message set_tempo tempo=405542 time=120>
note_on channel=0 note=73 velocity=0 time=0
note_on channel=0 note=54 velocity=0 time=0
note_on channel=0 note=66 velocity=62 time=0
note_on channel=0 note=57 velocity=45 time=0
<meta message set_tempo tempo=404231 time=120>
note_on channel=0 note=66 velocity=0 time=0
note_on channel=0 note=78 velocity=70 time=0
note_on channel=0 note=57 velocity=0 time=40
note_on channel=0 note=54 velocity=43 time=0
<meta message set_tempo tempo=402955 time=80>
note_on channel=0 note=78 velocity=0 time=0
note_on channel=0 note=72 velocity=61 time=0
note_on channel=0 note=54 velocity=0 time=80
note_on channel=0 note=49 velocity=42 time=0
<meta message set_tempo tempo=401687 time=40>
note_on channel=0 note=72 velocity=0 time=0
note_on channel=0 note=73 velocity=61 time=0
note_on channel=0 note=73 velocity=0 time=120
note_on channel=0 note=49 velocity=0 time=0
note_on channel=0 note=75 velocity=64 time=0
note_on channel=0 note=45 velocity=42 time=0
control_change channel=0 control=64 value=0 time=14
<meta message set_tempo tempo=404231 time=26>
control_change channel=0 control=64 value=127 time=52
note_on channel=0 note=75 velocity=0 time=28
note_on channel=0 note=87 velocity=73 time=0
note_on channel=0 note=45 velocity=0 time=40
note_on channel=0 note=51 velocity=44 time=0
<meta message set_tempo tempo=405542 time=40>
note_on channel=0 note=87 velocity=0 time=40
note_on channel=0 note=78 velocity=62 time=0
note_on channel=0 note=51 velocity=0 time=80
note_on channel=0 note=54 velocity=45 time=0
<meta message set_tempo tempo=406862 time=40>
note_on channel=0 note=78 velocity=0 time=0
note_on channel=0 note=81 velocity=62 time=0
note_on channel=0 note=81 velocity=0 time=120
note_on channel=0 note=54 velocity=0 time=0
note_on channel=0 note=73 velocity=66 time=0
note_on channel=0 note=57 velocity=44 time=0
<meta message set_tempo tempo=408136 time=40>
<meta message set_tempo tempo=409472 time=80>
note_on channel=0 note=73 velocity=0 time=0
note_on channel=0 note=85 velocity=74 time=0
<meta message set_tempo tempo=410790 time=40>
note_on channel=0 note=57 velocity=0 time=0
note_on channel=0 note=54 velocity=44 time=0
<meta message set_tempo tempo=412116 time=40>
<meta message set_tempo tempo=413479 time=40>
note_on channel=0 note=85 velocity=0 time=0
note_on channel=0 note=78 velocity=62 time=0
<meta message set_tempo tempo=414852 time=40>
<meta message set_tempo tempo=416175 time=40>
note_on channel=0 note=54 velocity=0 time=0
note_on channel=0 note=51 velocity=42 time=0
note_on channel=0 note=78 velocity=0 time=40
note_on channel=0 note=81 velocity=62 time=0
<meta message set_tempo tempo=410790 time=80>
note_on channel=0 note=81 velocity=0 time=40
note_on channel=0 note=51 velocity=0 time=0
note_on channel=0 note=73 velocity=64 time=0
note_on channel=0 note=44 velocity=42 time=0
control_change channel=0 control=64 value=0 time=14
control_change channel=0 control=64 value=127 time=78
<meta message set_tempo tempo=409472 time=28>
note_on channel=0 note=73 velocity=0 time=0
note_on channel=0 note=85 velocity=73 time=0
note_on channel=0 note=44 velocity=0 time=40
note_on channel=0 note=51 velocity=44 time=0
note_on channel=0 note=85 velocity=0 time=80
note_on channel=0 note=75 velocity=61 time=0
<meta message set_tempo tempo=408136 time=40>
note_on channel=0 note=51 velocity=0 time=40
note_on channel=0 note=54 velocity=45 time=0
note_on channel=0 note=75 velocity=0 time=40
note_on channel=0 note=78 velocity=61 time=0
<meta message set_tempo tempo=406862 time=80>
note_on channel=0 note=78 velocity=0 time=40
note_on channel=0 note=54 velocity=0 time=0
note_on channel=0 note=72 velocity=64 time=0
note_on channel=0 note=60 velocity=42 time=0
control_change channel=0 control=64 value=0 time=8
control_change channel=0 control=64 value=127 time=49
<meta message set_tempo tempo=405542 time=23>
note_on channel=0 note=72 velocity=0 time=40
note_on channel=0 note=84 velocity=71 time=0
note_on channel=0 note=60 velocity=0 time=40
note_on channel=0 note=54 velocity=42 time=0
<meta message set_tempo tempo=404231 time=80>
note_on channel=0 note=84 velocity=0 time=0
note_on channel=0 note=75 velocity=60 time=0
note_on channel=0 note=54 velocity=0 time=80
note_on channel=0 note=51 velocity=40 time=0
note_on channel=0 note=75 velocity=0 time=40
note_on channel=0 note=78 velocity=59 time=0
<meta message set_tempo tempo=402955 time=40>
<meta message set_tempo tempo=401687 time=80>
note_on channel=0 note=78 velocity=0 time=0
note_on channel=0 note=51 velocity=0 time=0
note_on channel=0 note=72 velocity=60 time=0
note_on channel=0 note=44 velocity=39 time=0
<meta message set_tempo tempo=402955 time=120>
note_on channel=0 note=72 velocity=0 time=0
note_on channel=0 note=84 velocity=69 time=0
note_on channel=0 note=44 velocity=0 time=40
note_on channel=0 note=51 velocity=41 time=0
<meta message set_tempo tempo=404231 time=80>
note_on channel=0 note=84 velocity=0 time=0
note_on channel=0 note=75 velocity=58 time=0
note_on channel=0 note=51 velocity=0 time=80
note_on channel=0 note=54 velocity=42 time=0
<meta message set_tempo tempo=405542 time=40>
note_on channel=0 note=75 velocity=0 time=0
note_on channel=0 note=78 velocity=58 time=0
<meta message set_tempo tempo=406862 time=120>
note_on channel=0 note=78 velocity=0 time=0
note_on channel=0 note=54 velocity=0 time=0
note_on channel=0 note=72 velocity=61 time=0
note_on channel=0 note=60 velocity=40 time=0
<meta message set_tempo tempo=408136 time=120>
note_on channel=0 note=72 velocity=0 time=0
note_on channel=0 note=84 velocity=68 time=0
note_on channel=0 note=60 velocity=0 time=40
note_on channel=0 note=54 velocity=39 time=0
<meta message set_tempo tempo=409472 time=80>
note_on channel=0 note=84 velocity=0 time=0
note_on channel=0 note=75 velocity=57 time=0
note_on channel=0 note=54 velocity=0 time=80
note_on channel=0 note=51 velocity=38 time=0
<meta message set_tempo tempo=410790 time=40>
note_on channel=0 note=75 velocity=0 time=0
note_on channel=0 note=78 velocity=56 time=0
<meta message set_tempo tempo=413479 time=120>
note_on channel=0 note=78 velocity=0 time=0
note_on channel=0 note=51 velocity=0 time=0
note_on channel=0 note=72 velocity=57 time=0
note_on channel=0 note=45 velocity=38 time=0
control_change channel=0 control=64 value=0 time=14
<meta message set_tempo tempo=412116 time=26>
<meta message set_tempo tempo=410790 time=40>
control_change channel=0 control=64 value=127 time=12
<meta message set_tempo tempo=409472 time=8>
<meta message set_tempo tempo=409472 time=20>
note_on channel=0 note=72 velocity=0 time=0
note_on channel=0 note=84 velocity=65 time=0
note_on channel=0 note=45 velocity=0 time=40
note_on channel=0 note=51 velocity=39 time=0
note_on channel=0 note=84 velocity=0 time=80
note_on channel=0 note=75 velocity=55 time=0
<meta message set_tempo tempo=408136 time=40>
note_on channel=0 note=51 velocity=0 time=40
note_on channel=0 note=54 velocity=40 time=0
note_on channel=0 note=75 velocity=0 time=40
note_on channel=0 note=78 velocity=55 time=0
<meta message set_tempo tempo=406862 time=80>
note_on channel=0 note=78 velocity=0 time=40
note_on channel=0 note=54 velocity=0 time=0
note_on channel=0 note=71 velocity=58 time=0
note_on channel=0 note=59 velocity=38 time=0
control_change channel=0 control=64 value=0 time=8
control_change channel=0 control=64 value=127 time=49
<meta message set_tempo tempo=405542 time=23>
note_on channel=0 note=71 velocity=0 time=40
note_on channel=0 note=83 velocity=64 time=0
note_on channel=0 note=59 velocity=0 time=40
note_on channel=0 note=54 velocity=38 time=0
<meta message set_tempo tempo=404231 time=80>
note_on channel=0 note=83 velocity=0 time=0
note_on channel=0 note=75 velocity=53 time=0
note_on channel=0 note=54 velocity=0 time=80
note_on channel=0 note=51 velocity=36 time=0
note_on channel=0 note=75 velocity=0 time=40
note_on channel=0 note=78 velocity=53 time=0
<meta message set_tempo tempo=402955 time=40>
<meta message set_tempo tempo=401687 time=80>
note_on channel=0 note=78 velocity=0 time=0
note_on channel=0 note=51 velocity=0 time=0
note_on channel=0 note=71 velocity=54 time=0
note_on channel=0 note=46 velocity=35 time=0
control_change channel=0 control=64 value=0 time=17
control_change channel=0 control=64 value=127 time=40
<meta message set_tempo tempo=402955 time=63>
note_on channel=0 note=71 velocity=0 time=0
note_on channel=0 note=83 velocity=62 time=0
note_on channel=0 note=46 velocity=0 time=40
note_on channel=0 note=51 velocity=37 time=0
<meta message set_tempo tempo=404231 time=80>
note_on channel=0 note=83 velocity=0 time=0
note_on channel=0 note=75 velocity=52 time=0
note_on channel=0 note=51 velocity=0 time=80
note_on channel=0 note=54 velocity=38 time=0
<meta message set_tempo tempo=405542 time=40>
note_on channel=0 note=75 velocity=0 time=0
note_on channel=0 note=78 velocity=52 time=0
<meta message set_tempo tempo=406862 time=120>
note_on channel=0 note=78 velocity=0 time=0
note_on channel=0 note=54 velocity=0 time=0
note_on channel=0 note=70 velocity=54 time=0
note_on channel=0 note=58 velocity=36 time=0
control_change channel=0 control=64 value=0 time=13
control_change channel=0 control=64 value=127 time=38
<meta message set_tempo tempo=408136 time=69>
note_on channel=0 note=70 velocity=0 time=0
note_on channel=0 note=82 velocity=60 time=0
note_on channel=0 note=58 velocity=0 time=40
note_on channel=0 note=54 velocity=35 time=0
<meta message set_tempo tempo=409472 time=80>
note_on channel=0 note=82 velocity=0 time=0
note_on channel=0 note=75 velocity=50 time=0
note_on channel=0 note=54 velocity=0 time=80
note_on channel=0 note=51 velocity=34 time=0
<meta message set_tempo tempo=410790 time=40>
note_on channel=0 note=75 velocity=0 time=0
note_on channel=0 note=78 velocity=50 time=0
<meta message set_tempo tempo=416175 time=120>
note_on channel=0 note=78 velocity=0 time=0
note_on channel=0 note=51 velocity=0 time=0
note_on channel=0 note=70 velocity=55 time=0
note_on channel=0 note=48 velocity=34 time=0
control_change channel=0 control=64 value=0 time=14
<meta message set_tempo tempo=414852 time=6>
<meta message set_tempo tempo=413479 time=20>
control_change channel=0 control=64 value=127 time=17
<meta message set_tempo tempo=412116 time=3>
<meta message set_tempo tempo=410790 time=20>
<meta message set_tempo tempo=409472 time=20>
<meta message set_tempo tempo=409472 time=20>
note_on channel=0 note=70 velocity=0 time=0
note_on channel=0 note=82 velocity=49 time=6
note_on channel=0 note=48 velocity=0 time=34
note_on channel=0 note=51 velocity=34 time=0
note_on channel=0 note=75 velocity=48 time=80
note_on channel=0 note=82 velocity=0 time=6
<meta message set_tempo tempo=408136 time=34>
note_on channel=0 note=51 velocity=0 time=40
note_on channel=0 note=54 velocity=35 time=0
note_on channel=0 note=75 velocity=0 time=40
note_on channel=0 note=78 velocity=48 time=0
<meta message set_tempo tempo=406862 time=80>
note_on channel=0 note=78 velocity=0 time=40
note_on channel=0 note=54 velocity=0 time=0
note_on channel=0 note=69 velocity=53 time=0
note_on channel=0 note=57 velocity=34 time=0
control_change channel=0 control=64 value=0 time=7
control_change channel=0 control=64 value=127 time=50
<meta message set_tempo tempo=405542 time=23>
note_on channel=0 note=69 velocity=0 time=40
note_on channel=0 note=81 velocity=48 time=6
note_on channel=0 note=57 velocity=0 time=34
note_on channel=0 note=54 velocity=34 time=0
<meta message set_tempo tempo=404231 time=80>
note_on channel=0 note=75 velocity=47 time=0
note_on channel=0 note=81 velocity=0 time=6
note_on channel=0 note=54 velocity=0 time=74
note_on channel=0 note=51 velocity=32 time=0
note_on channel=0 note=75 velocity=0 time=40
note_on channel=0 note=78 velocity=47 time=0
<meta message set_tempo tempo=402955 time=40>
<meta message set_tempo tempo=401687 time=80>
note_on channel=0 note=78 velocity=0 time=0
note_on channel=0 note=51 velocity=0 time=0
note_on channel=0 note=69 velocity=52 time=0
note_on channel=0 note=48 velocity=31 time=0
<meta message set_tempo tempo=402955 time=120>
note_on channel=0 note=69 velocity=0 time=0
note_on channel=0 note=81 velocity=49 time=0
note_on channel=0 note=48 velocity=0 time=40
note_on channel=0 note=51 velocity=33 time=0
<meta message set_tempo tempo=404231 time=80>
note_on channel=0 note=81 velocity=0 time=0
note_on channel=0 note=75 velocity=45 time=0
note_on channel=0 note=51 velocity=0 time=80
note_on channel=0 note=54 velocity=33 time=0
<meta message set_tempo tempo=405542 time=40>
note_on channel=0 note=75 velocity=0 time=0
note_on channel=0 note=78 velocity=45 time=0
<meta message set_tempo tempo=404968 time=80>
<meta message set_tempo tempo=406284 time=40>
note_on channel=0 note=78 velocity=0 time=0
note_on channel=0 note=54 velocity=0 time=0
note_on channel=0 note=69 velocity=51 time=0
note_on channel=0 note=57 velocity=31 time=0
<meta message set_tempo tempo=408970 time=40>
<meta message set_tempo tempo=411692 time=40>
<meta message set_tempo tempo=414451 time=40>
note_on channel=0 note=69 velocity=0 time=0
note_on channel=0 note=81 velocity=47 time=0
<meta message set_tempo tempo=415829 time=40>
note_on channel=0 note=57 velocity=0 time=0
note_on channel=0 note=54 velocity=31 time=0
<meta message set_tempo tempo=418644 time=40>
<meta message set_tempo tempo=421496 time=40>
note_on channel=0 note=81 velocity=0 time=0
note_on channel=0 note=75 velocity=44 time=0
<meta message set_tempo tempo=424388 time=40>
<meta message set_tempo tempo=427320 time=40>
note_on channel=0 note=54 velocity=0 time=0
note_on channel=0 note=51 velocity=29 time=0
<meta message set_tempo tempo=428786 time=40>
note_on channel=0 note=75 velocity=0 time=0
note_on channel=0 note=78 velocity=44 time=0
<meta message set_tempo tempo=431779 time=40>
<meta message set_tempo tempo=434814 time=40>
<meta message set_tempo tempo=434814 time=40>
note_on channel=0 note=78 velocity=0 time=0
note_on channel=0 note=51 velocity=0 time=0
note_on channel=0 note=72 velocity=52 time=0
note_on channel=0 note=45 velocity=28 time=0
control_change channel=0 control=64 value=0 time=14
<meta message set_tempo tempo=433276 time=66>
control_change channel=0 control=64 value=127 time=12
note_on channel=0 note=72 velocity=0 time=28
note_on channel=0 note=84 velocity=47 time=6
<meta message set_tempo tempo=431779 time=34>
note_on channel=0 note=45 velocity=0 time=0
note_on channel=0 note=51 velocity=29 time=0
<meta message set_tempo tempo=430262 time=80>
note_on channel=0 note=75 velocity=47 time=0
note_on channel=0 note=84 velocity=0 time=6
<meta message set_tempo tempo=428786 time=74>
note_on channel=0 note=51 velocity=0 time=0
note_on channel=0 note=54 velocity=30 time=0
note_on channel=0 note=75 velocity=0 time=40
note_on channel=0 note=78 velocity=47 time=0
<meta message set_tempo tempo=427320 time=40>
<meta message set_tempo tempo=425834 time=80>
note_on channel=0 note=78 velocity=0 time=0
note_on channel=0 note=54 velocity=0 time=0
note_on channel=0 note=71 velocity=51 time=0
note_on channel=0 note=59 velocity=32 time=0
control_change channel=0 control=64 value=0 time=10
control_change channel=0 control=64 value=127 time=47
<meta message set_tempo tempo=424388 time=23>
note_on channel=0 note=71 velocity=0 time=40
note_on channel=0 note=83 velocity=46 time=0
<meta message set_tempo tempo=422922 time=40>
note_on channel=0 note=59 velocity=0 time=0
note_on channel=0 note=54 velocity=31 time=0
<meta message set_tempo tempo=421496 time=80>
note_on channel=0 note=83 velocity=0 time=0
note_on channel=0 note=75 velocity=46 time=0
<meta message set_tempo tempo=420080 time=80>
note_on channel=0 note=54 velocity=0 time=0
note_on channel=0 note=51 velocity=29 time=0
note_on channel=0 note=75 velocity=0 time=40
note_on channel=0 note=78 velocity=46 time=0
<meta message set_tempo tempo=418644 time=40>
<meta message set_tempo tempo=417217 time=80>
note_on channel=0 note=78 velocity=0 time=0
note_on channel=0 note=51 velocity=0 time=0
note_on channel=0 note=71 velocity=51 time=0
note_on channel=0 note=46 velocity=27 time=0
control_change channel=0 control=64 value=0 time=17
control_change channel=0 control=64 value=127 time=40
<meta message set_tempo tempo=418644 time=23>
note_on channel=0 note=71 velocity=0 time=40
note_on channel=0 note=83 velocity=48 time=0
<meta message set_tempo tempo=420080 time=40>
note_on channel=0 note=46 velocity=0 time=0
note_on channel=0 note=51 velocity=28 time=0
<meta message set_tempo tempo=421496 time=80>
note_on channel=0 note=83 velocity=0 time=0
note_on channel=0 note=75 velocity=45 time=0
<meta message set_tempo tempo=422922 time=40>
note_on channel=0 note=51 velocity=0 time=40
note_on channel=0 note=54 velocity=29 time=0
<meta message set_tempo tempo=424388 time=40>
note_on channel=0 note=75 velocity=0 time=0
note_on channel=0 note=78 velocity=45 time=0
<meta message set_tempo tempo=425834 time=80>
<meta message set_tempo tempo=427320 time=40>
note_on channel=0 note=78 velocity=0 time=0
note_on channel=0 note=54 velocity=0 time=0
note_on channel=0 note=70 velocity=51 time=0
note_on channel=0 note=58 velocity=30 time=0
control_change channel=0 control=64 value=0 time=13
control_change channel=0 control=64 value=127 time=47
<meta message set_tempo tempo=428786 time=20>
note_on channel=0 note=70 velocity=0 time=40
note_on channel=0 note=82 velocity=47 time=0
<meta message set_tempo tempo=430262 time=40>
note_on channel=0 note=58 velocity=0 time=0
note_on channel=0 note=54 velocity=29 time=0
<meta message set_tempo tempo=431779 time=40>
note_on channel=0 note=82 velocity=0 time=40
note_on channel=0 note=75 velocity=44 time=0
<meta message set_tempo tempo=433276 time=40>
note_on channel=0 note=54 velocity=0 time=40
note_on channel=0 note=51 velocity=28 time=0
<meta message set_tempo tempo=434814 time=40>
note_on channel=0 note=75 velocity=0 time=0
note_on channel=0 note=78 velocity=44 time=0
<meta message set_tempo tempo=440982 time=40>
note_on channel=0 note=78 velocity=0 time=80
note_on channel=0 note=51 velocity=0 time=0
note_on channel=0 note=70 velocity=52 time=0
note_on channel=0 note=47 velocity=28 time=0
control_change channel=0 control=64 value=0 time=14
<meta message set_tempo tempo=439432 time=26>
control_change channel=0 control=64 value=127 time=52
note_on channel=0 note=70 velocity=0 time=28
note_on channel=0 note=82 velocity=46 time=0
<meta message set_tempo tempo=437860 time=40>
note_on channel=0 note=47 velocity=0 time=0
note_on channel=0 note=51 velocity=28 time=0
note_on channel=0 note=82 velocity=0 time=80
note_on channel=0 note=75 velocity=46 time=0
<meta message set_tempo tempo=436332 time=40>
note_on channel=0 note=51 velocity=0 time=40
note_on channel=0 note=54 velocity=28 time=0
note_on channel=0 note=75 velocity=0 time=40
note_on channel=0 note=78 velocity=45 time=0
<meta message set_tempo tempo=434814 time=40>
note_on channel=0 note=78 velocity=0 time=80
note_on channel=0 note=54 velocity=0 time=0
note_on channel=0 note=69 velocity=48 time=0
note_on channel=0 note=57 velocity=30 time=0
control_change channel=0 control=64 value=0 time=8
<meta message set_tempo tempo=433276 time=32>
control_change channel=0 control=64 value=127 time=17
note_on channel=0 note=69 velocity=0 time=63
note_on channel=0 note=81 velocity=43 time=0
<meta message set_tempo tempo=431779 time=40>
note_on channel=0 note=57 velocity=0 time=0
note_on channel=0 note=54 velocity=28 time=0
note_on channel=0 note=81 velocity=0 time=80
note_on channel=0 note=75 velocity=42 time=0
<meta message set_tempo tempo=430262 time=40>
note_on channel=0 note=54 velocity=0 time=40
note_on channel=0 note=51 velocity=27 time=0
note_on channel=0 note=75 velocity=0 time=40
note_on channel=0 note=78 velocity=42 time=0
<meta message set_tempo tempo=428786 time=40>
<meta message set_tempo tempo=427320 time=80>
note_on channel=0 note=78 velocity=0 time=0
note_on channel=0 note=51 velocity=0 time=0
note_on channel=0 note=69 velocity=45 time=0
note_on channel=0 note=48 velocity=23 time=0
control_change channel=0 control=64 value=0 time=10
<meta message set_tempo tempo=428786 time=30>
control_change channel=0 control=64 value=127 time=17
<meta message set_tempo tempo=431779 time=23>
<meta message set_tempo tempo=433276 time=40>
note_on channel=0 note=69 velocity=0 time=0
note_on channel=0 note=81 velocity=42 time=0
<meta message set_tempo tempo=436332 time=40>
note_on channel=0 note=48 velocity=0 time=0
note_on channel=0 note=51 velocity=24 time=0
<meta message set_tempo tempo=439432 time=40>
<meta message set_tempo tempo=440982 time=40>
note_on channel=0 note=81 velocity=0 time=0
note_on channel=0 note=75 velocity=39 time=0
<meta message set_tempo tempo=444148 time=40>
<meta message set_tempo tempo=447361 time=40>
note_on channel=0 note=51 velocity=0 time=0
note_on channel=0 note=54 velocity=25 time=0
<meta message set_tempo tempo=448967 time=40>
note_on channel=0 note=75 velocity=0 time=0
note_on channel=0 note=78 velocity=39 time=0
<meta message set_tempo tempo=452250 time=40>
<meta message set_tempo tempo=455581 time=40>
<meta message set_tempo tempo=457247 time=40>
note_on channel=0 note=78 velocity=0 time=0
note_on channel=0 note=54 velocity=0 time=0
note_on channel=0 note=68 velocity=43 time=0
note_on channel=0 note=56 velocity=25 time=0
control_change channel=0 control=64 value=0 time=17
<meta message set_tempo tempo=460688 time=23>
control_change channel=0 control=64 value=127 time=11
<meta message set_tempo tempo=462392 time=29>
<meta message set_tempo tempo=465875 time=40>
note_on channel=0 note=68 velocity=0 time=0
note_on channel=0 note=80 velocity=39 time=0
<meta message set_tempo tempo=469410 time=40>
note_on channel=0 note=56 velocity=0 time=0
note_on channel=0 note=54 velocity=24 time=0
<meta message set_tempo tempo=471180 time=40>
<meta message set_tempo tempo=474796 time=40>
note_on channel=0 note=80 velocity=0 time=0
note_on channel=0 note=75 velocity=36 time=0
<meta message set_tempo tempo=478469 time=40>
<meta message set_tempo tempo=480307 time=40>
note_on channel=0 note=54 velocity=0 time=0
note_on channel=0 note=51 velocity=22 time=0
<meta message set_tempo tempo=484066 time=40>
note_on channel=0 note=75 velocity=0 time=0
note_on channel=0 note=78 velocity=36 time=0
<meta message set_tempo tempo=487884 time=40>
<meta message set_tempo tempo=408970 time=80>
note_on channel=0 note=78 velocity=0 time=0
note_on channel=0 note=51 velocity=0 time=0
note_on channel=0 note=49 velocity=22 time=0
control_change channel=0 control=64 value=0 time=9
control_change channel=0 control=64 value=127 time=54
<meta message set_tempo tempo=356083 time=57>
note_on channel=0 note=68 velocity=37 time=0
note_on channel=0 note=49 velocity=0 time=40
note_on channel=0 note=56 velocity=25 time=0
<meta message set_tempo tempo=351906 time=40>
<meta message set_tempo tempo=350877 time=40>
note_on channel=0 note=68 velocity=0 time=0
note_on channel=0 note=69 velocity=41 time=0
note_on channel=0 note=56 velocity=0 time=80
note_on channel=0 note=61 velocity=28 time=0
<meta message set_tempo tempo=357143 time=40>
note_on channel=0 note=69 velocity=0 time=0
note_on channel=0 note=68 velocity=38 time=0
<meta message set_tempo tempo=359281 time=40>
<meta message set_tempo tempo=360360 time=40>
<meta message set_tempo tempo=361446 time=40>
note_on channel=0 note=68 velocity=0 time=0
note_on channel=0 note=61 velocity=0 time=0
note_on channel=0 note=67 velocity=39 time=0
note_on channel=0 note=64 velocity=30 time=0
<meta message set_tempo tempo=360360 time=80>
<meta message set_tempo tempo=359281 time=40>
note_on channel=0 note=67 velocity=0 time=0
note_on channel=0 note=68 velocity=40 time=0
<meta message set_tempo tempo=358209 time=40>
note_on channel=0 note=64 velocity=0 time=0
note_on channel=0 note=61 velocity=28 time=0
<meta message set_tempo tempo=356083 time=40>
<meta message set_tempo tempo=353982 time=40>
note_on channel=0 note=68 velocity=0 time=0
note_on channel=0 note=73 velocity=42 time=0
<meta message set_tempo tempo=351906 time=40>
<meta message set_tempo tempo=350877 time=40>
note_on channel=0 note=61 velocity=0 time=0
note_on channel=0 note=56 velocity=27 time=0
note_on channel=0 note=73 velocity=0 time=40
note_on channel=0 note=76 velocity=43 time=0
<meta message set_tempo tempo=353982 time=40>
<meta message set_tempo tempo=355030 time=40>
note_on channel=0 note=76 velocity=0 time=40
note_on channel=0 note=56 velocity=0 time=0
note_on channel=0 note=75 velocity=45 time=0
note_on channel=0 note=52 velocity=26 time=0
control_change channel=0 control=64 value=0 time=17
note_on channel=0 note=75 velocity=0 time=103
note_on channel=0 note=73 velocity=43 time=0
<meta message set_tempo tempo=353982 time=40>
note_on channel=0 note=52 velocity=0 time=0
note_on channel=0 note=56 velocity=28 time=0
<meta message set_tempo tempo=351906 time=40>
<meta message set_tempo tempo=350877 time=40>
note_on channel=0 note=73 velocity=0 time=0
note_on channel=0 note=75 velocity=45 time=0
<meta message set_tempo tempo=353982 time=40>
<meta message set_tempo tempo=355030 time=40>
note_on channel=0 note=56 velocity=0 time=0
note_on channel=0 note=61 velocity=30 time=0
note_on channel=0 note=75 velocity=0 time=40
note_on channel=0 note=73 velocity=43 time=0
<meta message set_tempo tempo=357143 time=40>
<meta message set_tempo tempo=355030 time=80>
note_on channel=0 note=73 velocity=0 time=0
note_on channel=0 note=61 velocity=0 time=0
note_on channel=0 note=72 velocity=44 time=0
note_on channel=0 note=64 velocity=31 time=0
<meta message set_tempo tempo=352941 time=40>
<meta message set_tempo tempo=353982 time=80>
note_on channel=0 note=72 velocity=0 time=0
note_on channel=0 note=73 velocity=46 time=0
note_on channel=0 note=64 velocity=0 time=40
note_on channel=0 note=61 velocity=28 time=0
<meta message set_tempo tempo=355030 time=80>
note_on channel=0 note=73 velocity=0 time=0
note_on channel=0 note=76 velocity=49 time=0
note_on channel=0 note=61 velocity=0 time=80
note_on channel=0 note=56 velocity=27 time=0
<meta message set_tempo tempo=439432 time=40>
note_on channel=0 note=76 velocity=0 time=0
note_on channel=0 note=80 velocity=47 time=0
<meta message set_tempo tempo=403633 time=120>
note_on channel=0 note=80 velocity=0 time=0
note_on channel=0 note=56 velocity=0 time=0
note_on channel=0 note=49 velocity=27 time=0
control_change channel=0 control=64 value=0 time=6
control_change channel=0 control=64 value=127 time=57
<meta message set_tempo tempo=356739 time=57>
note_on channel=0 note=68 velocity=45 time=0
<meta message set_tempo tempo=356083 time=40>
note_on channel=0 note=49 velocity=0 time=0
note_on channel=0 note=56 velocity=30 time=0
<meta message set_tempo tempo=353982 time=80>
note_on channel=0 note=68 velocity=0 time=0
note_on channel=0 note=69 velocity=49 time=0
note_on channel=0 note=56 velocity=0 time=80
note_on channel=0 note=61 velocity=34 time=0
<meta message set_tempo tempo=347826 time=40>
note_on channel=0 note=69 velocity=0 time=0
note_on channel=0 note=68 velocity=45 time=0
<meta message set_tempo tempo=346821 time=40>
<meta message set_tempo tempo=349854 time=40>
<meta message set_tempo tempo=352941 time=40>
note_on channel=0 note=68 velocity=0 time=0
note_on channel=0 note=61 velocity=0 time=0
note_on channel=0 note=67 velocity=46 time=0
note_on channel=0 note=64 velocity=36 time=0
<meta message set_tempo tempo=357143 time=40>
<meta message set_tempo tempo=358209 time=40>
note_on channel=0 note=67 velocity=0 time=40
note_on channel=0 note=68 velocity=48 time=0
<meta message set_tempo tempo=357143 time=40>
note_on channel=0 note=64 velocity=0 time=0
note_on channel=0 note=61 velocity=34 time=0
<meta message set_tempo tempo=355030 time=40>
<meta message set_tempo tempo=351906 time=40>
note_on channel=0 note=68 velocity=0 time=0
note_on channel=0 note=73 velocity=50 time=0
<meta message set_tempo tempo=352941 time=80>
note_on channel=0 note=61 velocity=0 time=0
note_on channel=0 note=56 velocity=33 time=0
note_on channel=0 note=73 velocity=0 time=40
note_on channel=0 note=76 velocity=51 time=0
<meta message set_tempo tempo=355030 time=40>
<meta message set_tempo tempo=353982 time=80>
note_on channel=0 note=76 velocity=0 time=0
note_on channel=0 note=56 velocity=0 time=0
note_on channel=0 note=75 velocity=54 time=0
note_on channel=0 note=52 velocity=31 time=0
control_change channel=0 control=64 value=0 time=17
<meta message set_tempo tempo=352941 time=23>
<meta message set_tempo tempo=350877 time=40>
<meta message set_tempo tempo=353982 time=40>
note_on channel=0 note=75 velocity=0 time=0
note_on channel=0 note=73 velocity=51 time=0
<meta message set_tempo tempo=356083 time=40>
note_on channel=0 note=52 velocity=0 time=0
note_on channel=0 note=56 velocity=33 time=0
<meta message set_tempo tempo=357143 time=40>
<meta message set_tempo tempo=358209 time=40>
note_on channel=0 note=73 velocity=0 time=0
note_on channel=0 note=75 velocity=53 time=0
<meta message set_tempo tempo=359281 time=40>
<meta message set_tempo tempo=358209 time=40>
note_on channel=0 note=56 velocity=0 time=0
note_on channel=0 note=61 velocity=36 time=0
<meta message set_tempo tempo=356083 time=40>
note_on channel=0 note=75 velocity=0 time=0
note_on channel=0 note=73 velocity=51 time=0
<meta message set_tempo tempo=352941 time=40>
<meta message set_tempo tempo=350877 time=40>
note_on channel=0 note=73 velocity=0 time=40
note_on channel=0 note=61 velocity=0 time=0
note_on channel=0 note=72 velocity=52 time=0
note_on channel=0 note=64 velocity=37 time=0
<meta message set_tempo tempo=351906 time=80>
<meta message set_tempo tempo=353982 time=40>
note_on channel=0 note=72 velocity=0 time=0
note_on channel=0 note=73 velocity=54 time=0
note_on channel=0 note=64 velocity=0 time=40
note_on channel=0 note=61 velocity=34 time=0
note_on channel=0 note=73 velocity=0 time=80
note_on channel=0 note=76 velocity=57 time=0
note_on channel=0 note=61 velocity=0 time=80
note_on channel=0 note=56 velocity=32 time=0
<meta message set_tempo tempo=430262 time=40>
note_on channel=0 note=76 velocity=0 time=0
note_on channel=0 note=80 velocity=55 time=0
<meta message set_tempo tempo=403633 time=120>
note_on channel=0 note=80 velocity=0 time=0
note_on channel=0 note=56 velocity=0 time=0
note_on channel=0 note=51 velocity=31 time=0
control_change channel=0 control=64 value=0 time=9
control_change channel=0 control=64 value=127 time=54
<meta message set_tempo tempo=362275 time=57>
note_on channel=0 note=69 velocity=56 time=0
note_on channel=0 note=51 velocity=0 time=40
note_on channel=0 note=57 velocity=35 time=0
<meta message set_tempo tempo=361163 time=40>
<meta message set_tempo tempo=360036 time=40>
note_on channel=0 note=69 velocity=0 time=0
note_on channel=0 note=73 velocity=59 time=0
<meta message set_tempo tempo=358938 time=80>
note_on channel=0 note=57 velocity=0 time=0
note_on channel=0 note=61 velocity=39 time=0
<meta message set_tempo tempo=357824 time=40>
note_on channel=0 note=73 velocity=0 time=0
note_on channel=0 note=75 velocity=62 time=0
<meta message set_tempo tempo=356739 time=40>
<meta message set_tempo tempo=358938 time=40>
note_on channel=0 note=75 velocity=0 time=40
note_on channel=0 note=61 velocity=0 time=0
note_on channel=0 note=78 velocity=63 time=0
note_on channel=0 note=66 velocity=45 time=0
<meta message set_tempo tempo=357824 time=80>
note_on channel=0 note=78 velocity=0 time=40
note_on channel=0 note=81 velocity=66 time=0
note_on channel=0 note=66 velocity=0 time=40
note_on channel=0 note=61 velocity=39 time=0
<meta message set_tempo tempo=356739 time=40>
note_on channel=0 note=81 velocity=0 time=40
note_on channel=0 note=85 velocity=69 time=0
<meta message set_tempo tempo=355640 time=80>
note_on channel=0 note=61 velocity=0 time=0
note_on channel=0 note=57 velocity=37 time=0
note_on channel=0 note=85 velocity=0 time=40
note_on channel=0 note=87 velocity=72 time=0
<meta message set_tempo tempo=352941 time=80>
<meta message set_tempo tempo=349854 time=40>
note_on channel=0 note=87 velocity=0 time=0
note_on channel=0 note=57 velocity=0 time=0
note_on channel=0 note=95 velocity=75 time=0
note_on channel=0 note=54 velocity=37 time=0
<meta message set_tempo tempo=348837 time=40>
note_on channel=0 note=95 velocity=0 time=80
note_on channel=0 note=93 velocity=73 time=0
<meta message set_tempo tempo=349854 time=40>
note_on channel=0 note=54 velocity=0 time=0
note_on channel=0 note=61 velocity=40 time=0
<meta message set_tempo tempo=352941 time=40>
<meta message set_tempo tempo=353982 time=40>
note_on channel=0 note=93 velocity=0 time=0
note_on channel=0 note=92 velocity=72 time=0
<meta message set_tempo tempo=356083 time=40>
<meta message set_tempo tempo=355030 time=40>
note_on channel=0 note=61 velocity=0 time=0
note_on channel=0 note=63 velocity=44 time=0
<meta message set_tempo tempo=353982 time=40>
note_on channel=0 note=92 velocity=0 time=0
note_on channel=0 note=90 velocity=71 time=0
<meta message set_tempo tempo=352941 time=40>
<meta message set_tempo tempo=351906 time=40>
<meta message set_tempo tempo=350877 time=40>
note_on channel=0 note=90 velocity=0 time=0
note_on channel=0 note=63 velocity=0 time=0
note_on channel=0 note=88 velocity=71 time=0
note_on channel=0 note=69 velocity=46 time=0
<meta message set_tempo tempo=348837 time=40>
note_on channel=0 note=88 velocity=0 time=80
note_on channel=0 note=87 velocity=70 time=0
<meta message set_tempo tempo=352941 time=40>
note_on channel=0 note=69 velocity=0 time=0
note_on channel=0 note=63 velocity=44 time=0
<meta message set_tempo tempo=353982 time=40>
note_on channel=0 note=87 velocity=0 time=40
note_on channel=0 note=90 velocity=68 time=0
note_on channel=0 note=63 velocity=0 time=80
note_on channel=0 note=61 velocity=41 time=0
note_on channel=0 note=90 velocity=0 time=40
note_on channel=0 note=85 velocity=67 time=0
<meta message set_tempo tempo=356083 time=80>
<meta message set_tempo tempo=351906 time=40>
note_on channel=0 note=85 velocity=0 time=0
note_on channel=0 note=61 velocity=0 time=0
note_on channel=0 note=84 velocity=68 time=0
note_on channel=0 note=44 velocity=33 time=0
control_change channel=0 control=64 value=0 time=14
<meta message set_tempo tempo=352941 time=26>
control_change channel=0 control=64 value=127 time=23
<meta message set_tempo tempo=353982 time=17>
<meta message set_tempo tempo=355030 time=40>
note_on channel=0 note=84 velocity=0 time=0
note_on channel=0 note=87 velocity=63 time=0
note_on channel=0 note=44 velocity=0 time=40
note_on channel=0 note=51 velocity=35 time=0
<meta message set_tempo tempo=353982 time=40>
<meta message set_tempo tempo=352941 time=40>
note_on channel=0 note=87 velocity=0 time=0
note_on channel=0 note=81 velocity=63 time=0
<meta message set_tempo tempo=349854 time=40>
note_on channel=0 note=51 velocity=0 time=40
note_on channel=0 note=54 velocity=38 time=0
note_on channel=0 note=81 velocity=0 time=40
note_on channel=0 note=80 velocity=63 time=0
<meta message set_tempo tempo=352941 time=40>
<meta message set_tempo tempo=353982 time=40>
<meta message set_tempo tempo=355030 time=40>
note_on channel=0 note=80 velocity=0 time=0
note_on channel=0 note=54 velocity=0 time=0
note_on channel=0 note=78 velocity=60 time=0
note_on channel=0 note=60 velocity=39 time=0
<meta message set_tempo tempo=356083 time=40>
<meta message set_tempo tempo=353982 time=40>
<meta message set_tempo tempo=351906 time=40>
note_on channel=0 note=78 velocity=0 time=0
note_on channel=0 note=81 velocity=58 time=0
<meta message set_tempo tempo=350877 time=40>
note_on channel=0 note=60 velocity=0 time=0
note_on channel=0 note=54 velocity=36 time=0
note_on channel=0 note=81 velocity=0 time=80
note_on channel=0 note=76 velocity=54 time=0
note_on channel=0 note=54 velocity=0 time=80
note_on channel=0 note=51 velocity=34 time=0
note_on channel=0 note=76 velocity=0 time=40
note_on channel=0 note=75 velocity=54 time=0
<meta message set_tempo tempo=353503 time=120>
note_on channel=0 note=75 velocity=0 time=0
note_on channel=0 note=51 velocity=0 time=0
note_on channel=0 note=78 velocity=53 time=0
note_on channel=0 note=44 velocity=29 time=0
<meta message set_tempo tempo=354568 time=120>
note_on channel=0 note=78 velocity=0 time=0
note_on channel=0 note=73 velocity=48 time=0
note_on channel=0 note=44 velocity=0 time=40
note_on channel=0 note=51 velocity=31 time=0
<meta message set_tempo tempo=355640 time=40>
note_on channel=0 note=73 velocity=0 time=40
note_on channel=0 note=72 velocity=48 time=0
<meta message set_tempo tempo=356739 time=80>
note_on channel=0 note=51 velocity=0 time=0
note_on channel=0 note=54 velocity=33 time=0
note_on channel=0 note=72 velocity=0 time=40
note_on channel=0 note=75 velocity=47 time=0
<meta message set_tempo tempo=357824 time=40>
<meta message set_tempo tempo=360036 time=40>
<meta message set_tempo tempo=362275 time=40>
note_on channel=0 note=75 velocity=0 time=0
note_on channel=0 note=54 velocity=0 time=0
note_on channel=0 note=69 velocity=45 time=0
note_on channel=0 note=60 velocity=33 time=0
<meta message set_tempo tempo=364498 time=40>
<meta message set_tempo tempo=367940 time=40>
<meta message set_tempo tempo=370279 time=40>
note_on channel=0 note=69 velocity=0 time=0
note_on channel=0 note=68 velocity=42 time=0
<meta message set_tempo tempo=372648 time=40>
note_on channel=0 note=60 velocity=0 time=0
note_on channel=0 note=54 velocity=29 time=0
<meta message set_tempo tempo=375023 time=40>
<meta message set_tempo tempo=378668 time=40>
note_on channel=0 note=68 velocity=0 time=0
note_on channel=0 note=71 velocity=42 time=0
<meta message set_tempo tempo=381146 time=40>
<meta message set_tempo tempo=383656 time=40>
note_on channel=0 note=54 velocity=0 time=0
note_on channel=0 note=51 velocity=26 time=0
<meta message set_tempo tempo=437860 time=40>
note_on channel=0 note=71 velocity=0 time=0
note_on channel=0 note=69 velocity=41 time=0
<meta message set_tempo tempo=382482 time=100>
<meta message set_tempo tempo=378955 time=20>
note_on channel=0 note=51 velocity=0 time=0
note_on channel=0 note=49 velocity=22 time=0
control_change channel=0 control=64 value=0 time=11
<meta message set_tempo tempo=374368 time=9>
<meta message set_tempo tempo=370989 time=20>
<meta message set_tempo tempo=366636 time=20>
control_change channel=0 control=64 value=127 time=3
<meta message set_tempo tempo=363394 time=17>
<meta message set_tempo tempo=359174 time=20>
<meta message set_tempo tempo=355051 time=20>
note_on channel=0 note=69 velocity=0 time=0
note_on channel=0 note=68 velocity=37 time=0
<meta message set_tempo tempo=355030 time=40>
note_on channel=0 note=49 velocity=0 time=0
note_on channel=0 note=56 velocity=25 time=0
<meta message set_tempo tempo=353982 time=40>
<meta message set_tempo tempo=351906 time=40>
note_on channel=0 note=68 velocity=0 time=0
note_on channel=0 note=69 velocity=41 time=0
<meta message set_tempo tempo=350877 time=40>
<meta message set_tempo tempo=349854 time=40>
note_on channel=0 note=56 velocity=0 time=0
note_on channel=0 note=61 velocity=28 time=0
note_on channel=0 note=69 velocity=0 time=40
note_on channel=0 note=68 velocity=38 time=0
<meta message set_tempo tempo=350877 time=40>
<meta message set_tempo tempo=352941 time=40>
note_on channel=0 note=68 velocity=0 time=40
note_on channel=0 note=61 velocity=0 time=0
note_on channel=0 note=67 velocity=39 time=0
note_on channel=0 note=64 velocity=30 time=0
<meta message set_tempo tempo=355030 time=40>
note_on channel=0 note=67 velocity=0 time=80
note_on channel=0 note=68 velocity=40 time=0
<meta message set_tempo tempo=353982 time=40>
note_on channel=0 note=64 velocity=0 time=0
note_on channel=0 note=61 velocity=28 time=0
<meta message set_tempo tempo=352941 time=40>
<meta message set_tempo tempo=351906 time=40>
note_on channel=0 note=68 velocity=0 time=0
note_on channel=0 note=73 velocity=42 time=0
<meta message set_tempo tempo=349854 time=40>
note_on channel=0 note=61 velocity=0 time=40
note_on channel=0 note=56 velocity=27 time=0
<meta message set_tempo tempo=352941 time=40>
note_on channel=0 note=73 velocity=0 time=0
note_on channel=0 note=76 velocity=43 time=0
<meta message set_tempo tempo=353982 time=80>
<meta message set_tempo tempo=355030 time=40>
note_on channel=0 note=76 velocity=0 time=0
note_on channel=0 note=56 velocity=0 time=0
note_on channel=0 note=75 velocity=45 time=0
note_on channel=0 note=52 velocity=26 time=0
control_change channel=0 control=64 value=0 time=17
control_change channel=0 control=64 value=127 time=63
<meta message set_tempo tempo=352941 time=40>
note_on channel=0 note=75 velocity=0 time=0
note_on channel=0 note=73 velocity=43 time=0
note_on channel=0 note=52 velocity=0 time=40
note_on channel=0 note=56 velocity=28 time=0
<meta message set_tempo tempo=350877 time=40>
note_on channel=0 note=73 velocity=0 time=40
note_on channel=0 note=75 velocity=45 time=0
<meta message set_tempo tempo=351906 time=80>
note_on channel=0 note=56 velocity=0 time=0
note_on channel=0 note=61 velocity=30 time=0
<meta message set_tempo tempo=353982 time=40>
note_on channel=0 note=75 velocity=0 time=0
note_on channel=0 note=73 velocity=43 time=0
<meta message set_tempo tempo=355030 time=40>
note_on channel=0 note=73 velocity=0 time=80
note_on channel=0 note=61 velocity=0 time=0
note_on channel=0 note=72 velocity=44 time=0
note_on channel=0 note=64 velocity=31 time=0
note_on channel=0 note=72 velocity=0 time=120
note_on channel=0 note=73 velocity=46 time=0
note_on channel=0 note=64 velocity=0 time=40
note_on channel=0 note=61 velocity=28 time=0
note_on channel=0 note=73 velocity=0 time=80
note_on channel=0 note=76 velocity=50 time=0
note_on channel=0 note=61 velocity=0 time=80
note_on channel=0 note=56 velocity=27 time=0
<meta message set_tempo tempo=455581 time=40>
note_on channel=0 note=76 velocity=0 time=0
note_on channel=0 note=80 velocity=48 time=0
<meta message set_tempo tempo=389686 time=100>
<meta message set_tempo tempo=384837 time=20>
note_on channel=0 note=80 velocity=0 time=0
note_on channel=0 note=56 velocity=0 time=0
note_on channel=0 note=76 velocity=46 time=0
note_on channel=0 note=54 velocity=25 time=0
control_change channel=0 control=64 value=0 time=8
<meta message set_tempo tempo=380108 time=12>
<meta message set_tempo tempo=374368 time=20>
<meta message set_tempo tempo=369891 time=20>
control_change channel=0 control=64 value=127 time=3
<meta message set_tempo tempo=364454 time=17>
<meta message set_tempo tempo=360209 time=20>
<meta message set_tempo tempo=355051 time=20>
note_on channel=0 note=76 velocity=0 time=0
note_on channel=0 note=75 velocity=43 time=0
<meta message set_tempo tempo=353982 time=40>
note_on channel=0 note=54 velocity=0 time=0
note_on channel=0 note=61 velocity=29 time=0
note_on channel=0 note=75 velocity=0 time=80
note_on channel=0 note=76 velocity=47 time=0
<meta message set_tempo tempo=352941 time=40>
<meta message set_tempo tempo=351906 time=40>
note_on channel=0 note=61 velocity=0 time=0
note_on channel=0 note=63 velocity=32 time=0
<meta message set_tempo tempo=350877 time=40>
note_on channel=0 note=76 velocity=0 time=0
note_on channel=0 note=75 velocity=43 time=0
<meta message set_tempo tempo=349854 time=40>
<meta message set_tempo tempo=350877 time=40>
<meta message set_tempo tempo=352941 time=40>
note_on channel=0 note=75 velocity=0 time=0
note_on channel=0 note=63 velocity=0 time=0
note_on channel=0 note=74 velocity=45 time=0
note_on channel=0 note=69 velocity=34 time=0
<meta message set_tempo tempo=353982 time=80>
<meta message set_tempo tempo=356083 time=40>
note_on channel=0 note=74 velocity=0 time=0
note_on channel=0 note=75 velocity=46 time=0
note_on channel=0 note=69 velocity=0 time=40
note_on channel=0 note=63 velocity=33 time=0
<meta message set_tempo tempo=355030 time=40>
<meta message set_tempo tempo=353982 time=40>
note_on channel=0 note=75 velocity=0 time=0
note_on channel=0 note=78 velocity=49 time=0
<meta message set_tempo tempo=352941 time=40>
<meta message set_tempo tempo=351906 time=40>
note_on channel=0 note=63 velocity=0 time=0
note_on channel=0 note=61 velocity=31 time=0
<meta message set_tempo tempo=350877 time=40>
note_on channel=0 note=78 velocity=0 time=0
note_on channel=0 note=81 velocity=50 time=0
note_on channel=0 note=81 velocity=0 time=120
note_on channel=0 note=61 velocity=0 time=0
note_on channel=0 note=78 velocity=53 time=0
note_on channel=0 note=56 velocity=30 time=0
control_change channel=0 control=64 value=0 time=17
control_change channel=0 control=64 value=127 time=63
<meta message set_tempo tempo=357143 time=40>
note_on channel=0 note=78 velocity=0 time=0
note_on channel=0 note=77 velocity=51 time=0
<meta message set_tempo tempo=358209 time=40>
note_on channel=0 note=56 velocity=0 time=0
note_on channel=0 note=61 velocity=32 time=0
<meta message set_tempo tempo=356083 time=40>
<meta message set_tempo tempo=353982 time=40>
note_on channel=0 note=77 velocity=0 time=0
note_on channel=0 note=78 velocity=53 time=0
<meta message set_tempo tempo=351906 time=40>
<meta message set_tempo tempo=350877 time=40>
note_on channel=0 note=61 velocity=0 time=0
note_on channel=0 note=65 velocity=35 time=0
note_on channel=0 note=78 velocity=0 time=40
note_on channel=0 note=77 velocity=51 time=0
<meta message set_tempo tempo=353982 time=80>
note_on channel=0 note=77 velocity=0 time=40
note_on channel=0 note=65 velocity=0 time=0
note_on channel=0 note=76 velocity=52 time=0
note_on channel=0 note=71 velocity=37 time=0
<meta message set_tempo tempo=355030 time=40>
<meta message set_tempo tempo=353982 time=80>
note_on channel=0 note=76 velocity=0 time=0
note_on channel=0 note=77 velocity=54 time=0
<meta message set_tempo tempo=352941 time=40>
note_on channel=0 note=71 velocity=0 time=0
note_on channel=0 note=65 velocity=34 time=0
note_on channel=0 note=77 velocity=0 time=80
note_on channel=0 note=80 velocity=57 time=0
note_on channel=0 note=65 velocity=0 time=80
note_on channel=0 note=61 velocity=32 time=0
<meta message set_tempo tempo=453926 time=40>
note_on channel=0 note=80 velocity=0 time=0
note_on channel=0 note=85 velocity=56 time=0
<meta message set_tempo tempo=390905 time=120>
note_on channel=0 note=85 velocity=0 time=0
note_on channel=0 note=61 velocity=0 time=0
note_on channel=0 note=57 velocity=30 time=0
control_change channel=0 control=64 value=0 time=9
<meta message set_tempo tempo=384837 time=11>
<meta message set_tempo tempo=378955 time=20>
<meta message set_tempo tempo=372139 time=20>
control_change channel=0 control=64 value=127 time=3
<meta message set_tempo tempo=366636 time=17>
<meta message set_tempo tempo=361293 time=20>
<meta message set_tempo tempo=355051 time=20>
note_on channel=0 note=73 velocity=50 time=0
<meta message set_tempo tempo=355030 time=40>
note_on channel=0 note=57 velocity=0 time=0
note_on channel=0 note=61 velocity=34 time=0
<meta message set_tempo tempo=353982 time=80>
note_on channel=0 note=73 velocity=0 time=0
note_on channel=0 note=74 velocity=55 time=0
<meta message set_tempo tempo=352941 time=40>
note_on channel=0 note=61 velocity=0 time=40
note_on channel=0 note=66 velocity=37 time=0
<meta message set_tempo tempo=351906 time=40>
note_on channel=0 note=74 velocity=0 time=0
note_on channel=0 note=73 velocity=51 time=0
<meta message set_tempo tempo=350877 time=40>
<meta message set_tempo tempo=352941 time=40>
<meta message set_tempo tempo=355030 time=40>
note_on channel=0 note=73 velocity=0 time=0
note_on channel=0 note=66 velocity=0 time=0
note_on channel=0 note=72 velocity=52 time=0
note_on channel=0 note=69 velocity=40 time=0
<meta message set_tempo tempo=356083 time=40>
note_on channel=0 note=72 velocity=0 time=80
note_on channel=0 note=73 velocity=53 time=0
note_on channel=0 note=69 velocity=0 time=40
note_on channel=0 note=66 velocity=39 time=0
<meta message set_tempo tempo=353982 time=80>
note_on channel=0 note=73 velocity=0 time=0
note_on channel=0 note=78 velocity=56 time=0
<meta message set_tempo tempo=351906 time=40>
<meta message set_tempo tempo=350877 time=40>
note_on channel=0 note=66 velocity=0 time=0
note_on channel=0 note=61 velocity=35 time=0
<meta message set_tempo tempo=349854 time=40>
note_on channel=0 note=78 velocity=0 time=0
note_on channel=0 note=81 velocity=57 time=0
<meta message set_tempo tempo=350877 time=40>
<meta message set_tempo tempo=352941 time=40>
note_on channel=0 note=81 velocity=0 time=40
note_on channel=0 note=61 velocity=0 time=0
note_on channel=0 note=78 velocity=59 time=0
note_on channel=0 note=56 velocity=34 time=0
control_change channel=0 control=64 value=0 time=15
<meta message set_tempo tempo=353982 time=25>
<meta message set_tempo tempo=355030 time=40>
control_change channel=0 control=64 value=127 time=0
<meta message set_tempo tempo=356083 time=40>
note_on channel=0 note=78 velocity=0 time=0
note_on channel=0 note=77 velocity=56 time=0
note_on channel=0 note=56 velocity=0 time=40
note_on channel=0 note=61 velocity=36 time=0
<meta message set_tempo tempo=353982 time=40>
<meta message set_tempo tempo=351906 time=40>
note_on channel=0 note=77 velocity=0 time=0
note_on channel=0 note=78 velocity=59 time=0
<meta message set_tempo tempo=350877 time=40>
note_on channel=0 note=61 velocity=0 time=40
note_on channel=0 note=65 velocity=39 time=0
<meta message set_tempo tempo=349854 time=40>
note_on channel=0 note=78 velocity=0 time=0
note_on channel=0 note=77 velocity=57 time=0
<meta message set_tempo tempo=350877 time=40>
<meta message set_tempo tempo=352941 time=40>
<meta message set_tempo tempo=355030 time=40>
note_on channel=0 note=77 velocity=0 time=0
note_on channel=0 note=65 velocity=0 time=0
note_on channel=0 note=76 velocity=57 time=0
note_on channel=0 note=71 velocity=40 time=0
<meta message set_tempo tempo=353982 time=40>
note_on channel=0 note=76 velocity=0 time=80
note_on channel=0 note=77 velocity=59 time=0
note_on channel=0 note=71 velocity=0 time=40
note_on channel=0 note=65 velocity=37 time=0
note_on channel=0 note=77 velocity=0 time=80
note_on channel=0 note=80 velocity=63 time=0
note_on channel=0 note=65 velocity=0 time=80
note_on channel=0 note=61 velocity=34 time=0
<meta message set_tempo tempo=440982 time=40>
note_on channel=0 note=80 velocity=0 time=0
note_on channel=0 note=85 velocity=59 time=0
<meta message set_tempo tempo=384837 time=120>
note_on channel=0 note=85 velocity=0 time=0
note_on channel=0 note=61 velocity=0 time=0
note_on channel=0 note=80 velocity=58 time=0
control_change channel=0 control=64 value=0 time=0
note_on channel=0 note=57 velocity=32 time=0
<meta message set_tempo tempo=380108 time=20>
<meta message set_tempo tempo=374368 time=20>
<meta message set_tempo tempo=369891 time=20>
control_change channel=0 control=64 value=127 time=3
<meta message set_tempo tempo=364454 time=17>
<meta message set_tempo tempo=360209 time=20>
<meta message set_tempo tempo=350877 time=20>
note_on channel=0 note=80 velocity=0 time=0
note_on channel=0 note=78 velocity=53 time=0
<meta message set_tempo tempo=349854 time=40>
note_on channel=0 note=57 velocity=0 time=0
note_on channel=0 note=61 velocity=36 time=0
note_on channel=0 note=78 velocity=0 time=80
note_on channel=0 note=80 velocity=58 time=0
<meta message set_tempo tempo=350877 time=40>
<meta message set_tempo tempo=352941 time=40>
note_on channel=0 note=61 velocity=0 time=0
note_on channel=0 note=66 velocity=39 time=0
<meta message set_tempo tempo=353982 time=40>
note_on channel=0 note=80 velocity=0 time=0
note_on channel=0 note=78 velocity=54 time=0
<meta message set_tempo tempo=360360 time=80>
note_on channel=0 note=78 velocity=0 time=40
note_on channel=0 note=66 velocity=0 time=0
note_on channel=0 note=77 velocity=55 time=0
note_on channel=0 note=69 velocity=42 time=0
<meta message set_tempo tempo=357143 time=40>
<meta message set_tempo tempo=356083 time=40>
<meta message set_tempo tempo=353982 time=40>
note_on channel=0 note=77 velocity=0 time=0
note_on channel=0 note=78 velocity=56 time=0
<meta message set_tempo tempo=352941 time=40>
note_on channel=0 note=69 velocity=0 time=0
note_on channel=0 note=66 velocity=40 time=0
<meta message set_tempo tempo=351906 time=40>
note_on channel=0 note=78 velocity=0 time=40
note_on channel=0 note=81 velocity=59 time=0
<meta message set_tempo tempo=355030 time=80>
note_on channel=0 note=66 velocity=0 time=0
note_on channel=0 note=61 velocity=38 time=0
<meta message set_tempo tempo=356083 time=40>
note_on channel=0 note=81 velocity=0 time=0
note_on channel=0 note=85 velocity=60 time=0
<meta message set_tempo tempo=357143 time=40>
note_on channel=0 note=85 velocity=0 time=80
note_on channel=0 note=61 velocity=0 time=0
note_on channel=0 note=81 velocity=63 time=0
note_on channel=0 note=48 velocity=36 time=0
control_change channel=0 control=64 value=0 time=15
<meta message set_tempo tempo=353982 time=25>
<meta message set_tempo tempo=351906 time=40>
control_change channel=0 control=64 value=127 time=0
note_on channel=0 note=81 velocity=0 time=40
note_on channel=0 note=80 velocity=59 time=0
note_on channel=0 note=48 velocity=0 time=40
note_on channel=0 note=54 velocity=38 time=0
note_on channel=0 note=80 velocity=0 time=80
note_on channel=0 note=81 velocity=62 time=0
<meta message set_tempo tempo=349854 time=40>
note_on channel=0 note=54 velocity=0 time=40
note_on channel=0 note=56 velocity=41 time=0
<meta message set_tempo tempo=351906 time=40>
note_on channel=0 note=81 velocity=0 time=0
note_on channel=0 note=80 velocity=60 time=0
<meta message set_tempo tempo=352941 time=40>
note_on channel=0 note=80 velocity=0 time=80
note_on channel=0 note=56 velocity=0 time=0
note_on channel=0 note=79 velocity=60 time=0
note_on channel=0 note=63 velocity=42 time=0
note_on channel=0 note=79 velocity=0 time=120
note_on channel=0 note=80 velocity=62 time=0
note_on channel=0 note=63 velocity=0 time=40
note_on channel=0 note=56 velocity=39 time=0
note_on channel=0 note=80 velocity=0 time=80
note_on channel=0 note=84 velocity=66 time=0
note_on channel=0 note=56 velocity=0 time=80
note_on channel=0 note=54 velocity=37 time=0
<meta message set_tempo tempo=476607 time=40>
note_on channel=0 note=84 velocity=0 time=0
note_on channel=0 note=87 velocity=63 time=0
<meta message set_tempo tempo=370989 time=120>
note_on channel=0 note=87 velocity=0 time=0
note_on channel=0 note=54 velocity=0 time=0
note_on channel=0 note=80 velocity=69 time=0
note_on channel=0 note=49 velocity=35 time=0
control_change channel=0 control=64 value=0 time=9
<meta message set_tempo tempo=369891 time=11>
<meta message set_tempo tempo=368800 time=20>
<meta message set_tempo tempo=366636 time=20>
control_change channel=0 control=64 value=127 time=3
<meta message set_tempo tempo=365519 time=17>
<meta message set_tempo tempo=364454 time=20>
<meta message set_tempo tempo=362341 time=20>
note_on channel=0 note=80 velocity=0 time=0
note_on channel=0 note=81 velocity=64 time=0
note_on channel=0 note=49 velocity=0 time=40
note_on channel=0 note=56 velocity=39 time=0
<meta message set_tempo tempo=361163 time=40>
<meta message set_tempo tempo=360036 time=40>
note_on channel=0 note=81 velocity=0 time=0
note_on channel=0 note=80 velocity=67 time=0
<meta message set_tempo tempo=358938 time=80>
note_on channel=0 note=56 velocity=0 time=0
note_on channel=0 note=61 velocity=43 time=0
<meta message set_tempo tempo=357824 time=40>
note_on channel=0 note=80 velocity=0 time=0
note_on channel=0 note=79 velocity=58 time=0
<meta message set_tempo tempo=356739 time=40>
<meta message set_tempo tempo=358938 time=40>
note_on channel=0 note=79 velocity=0 time=40
note_on channel=0 note=61 velocity=0 time=0
note_on channel=0 note=80 velocity=62 time=0
note_on channel=0 note=64 velocity=45 time=0
<meta message set_tempo tempo=357824 time=80>
note_on channel=0 note=80 velocity=0 time=40
note_on channel=0 note=88 velocity=71 time=0
note_on channel=0 note=64 velocity=0 time=40
note_on channel=0 note=61 velocity=44 time=0
<meta message set_tempo tempo=356739 time=40>
note_on channel=0 note=88 velocity=0 time=40
note_on channel=0 note=87 velocity=71 time=0
<meta message set_tempo tempo=355640 time=80>
note_on channel=0 note=61 velocity=0 time=0
note_on channel=0 note=56 velocity=42 time=0
note_on channel=0 note=87 velocity=0 time=40
note_on channel=0 note=86 velocity=70 time=0
<meta message set_tempo tempo=354568 time=80>
<meta message set_tempo tempo=355051 time=20>
note_on channel=0 note=86 velocity=0 time=20
note_on channel=0 note=56 velocity=0 time=0
note_on channel=0 note=85 velocity=69 time=0
note_on channel=0 note=51 velocity=44 time=0
control_change channel=0 control=64 value=0 time=15
control_change channel=0 control=64 value=127 time=71
note_on channel=0 note=85 velocity=0 time=34
note_on channel=0 note=84 velocity=69 time=0
note_on channel=0 note=51 velocity=0 time=40
note_on channel=0 note=56 velocity=41 time=0
<meta message set_tempo tempo=356083 time=60>
note_on channel=0 note=84 velocity=0 time=20
note_on channel=0 note=83 velocity=68 time=0
note_on channel=0 note=56 velocity=0 time=80
note_on channel=0 note=60 velocity=45 time=0
note_on channel=0 note=83 velocity=0 time=40
note_on channel=0 note=82 velocity=67 time=0
<meta message set_tempo tempo=357122 time=80>
note_on channel=0 note=82 velocity=0 time=40
note_on channel=0 note=60 velocity=0 time=0
note_on channel=0 note=81 velocity=67 time=0
note_on channel=0 note=66 velocity=46 time=0
note_on channel=0 note=81 velocity=0 time=120
note_on channel=0 note=80 velocity=66 time=0
note_on channel=0 note=66 velocity=0 time=40
note_on channel=0 note=60 velocity=44 time=0
<meta message set_tempo tempo=358145 time=20>
note_on channel=0 note=80 velocity=0 time=60
note_on channel=0 note=79 velocity=65 time=0
note_on channel=0 note=60 velocity=0 time=80
note_on channel=0 note=56 velocity=41 time=0
note_on channel=0 note=79 velocity=0 time=40
note_on channel=0 note=78 velocity=64 time=0
<meta message set_tempo tempo=359174 time=40>
<meta message set_tempo tempo=367715 time=60>
<meta message set_tempo tempo=366636 time=20>
note_on channel=0 note=78 velocity=0 time=0
note_on channel=0 note=56 velocity=0 time=0
note_on channel=0 note=76 velocity=69 time=0
note_on channel=0 note=52 velocity=35 time=0
control_change channel=0 control=64 value=0 time=9
<meta message set_tempo tempo=365519 time=11>
<meta message set_tempo tempo=364454 time=20>
<meta message set_tempo tempo=363394 time=20>
control_change channel=0 control=64 value=127 time=3
<meta message set_tempo tempo=362341 time=17>
<meta message set_tempo tempo=361293 time=20>
<meta message set_tempo tempo=360209 time=20>
note_on channel=0 note=76 velocity=0 time=0
note_on channel=0 note=78 velocity=64 time=0
note_on channel=0 note=52 velocity=0 time=40
note_on channel=0 note=56 velocity=39 time=0
<meta message set_tempo tempo=361163 time=40>
<meta message set_tempo tempo=360036 time=40>
note_on channel=0 note=78 velocity=0 time=0
note_on channel=0 note=76 velocity=67 time=0
<meta message set_tempo tempo=358938 time=80>
note_on channel=0 note=56 velocity=0 time=0
note_on channel=0 note=61 velocity=43 time=0
<meta message set_tempo tempo=357824 time=40>
note_on channel=0 note=76 velocity=0 time=0
note_on channel=0 note=75 velocity=58 time=0
<meta message set_tempo tempo=356739 time=40>
<meta message set_tempo tempo=358938 time=40>
note_on channel=0 note=75 velocity=0 time=40
note_on channel=0 note=61 velocity=0 time=0
note_on channel=0 note=76 velocity=62 time=0
note_on channel=0 note=64 velocity=45 time=0
<meta message set_tempo tempo=357824 time=80>
note_on channel=0 note=76 velocity=0 time=40
note_on channel=0 note=88 velocity=71 time=0
note_on channel=0 note=64 velocity=0 time=40
note_on channel=0 note=61 velocity=44 time=0
<meta message set_tempo tempo=356739 time=40>
note_on channel=0 note=88 velocity=0 time=40
note_on channel=0 note=87 velocity=71 time=0
<meta message set_tempo tempo=355640 time=80>
note_on channel=0 note=61 velocity=0 time=0
note_on channel=0 note=56 velocity=42 time=0
note_on channel=0 note=87 velocity=0 time=40
note_on channel=0 note=86 velocity=70 time=0
<meta message set_tempo tempo=354568 time=80>
<meta message set_tempo tempo=353045 time=40>
note_on channel=0 note=86 velocity=0 time=0
note_on channel=0 note=56 velocity=0 time=0
note_on channel=0 note=85 velocity=70 time=0
note_on channel=0 note=54 velocity=44 time=0
control_change channel=0 control=64 value=0 time=10
control_change channel=0 control=64 value=127 time=70
<meta message set_tempo tempo=354045 time=40>
note_on channel=0 note=85 velocity=0 time=0
note_on channel=0 note=84 velocity=71 time=0
note_on channel=0 note=54 velocity=0 time=40
note_on channel=0 note=61 velocity=41 time=0
<meta message set_tempo tempo=355051 time=80>
note_on channel=0 note=84 velocity=0 time=0
note_on channel=0 note=83 velocity=71 time=0
note_on channel=0 note=61 velocity=0 time=80
note_on channel=0 note=63 velocity=45 time=0
<meta message set_tempo tempo=356083 time=40>
note_on channel=0 note=83 velocity=0 time=0
note_on channel=0 note=82 velocity=72 time=0
<meta message set_tempo tempo=357122 time=40>
<meta message set_tempo tempo=358145 time=40>
<meta message set_tempo tempo=359174 time=40>
note_on channel=0 note=82 velocity=0 time=0
note_on channel=0 note=63 velocity=0 time=0
note_on channel=0 note=81 velocity=73 time=0
note_on channel=0 note=69 velocity=46 time=0
<meta message set_tempo tempo=360209 time=40>
<meta message set_tempo tempo=361293 time=40>
<meta message set_tempo tempo=362341 time=40>
note_on channel=0 note=81 velocity=0 time=0
note_on channel=0 note=80 velocity=74 time=0
<meta message set_tempo tempo=363394 time=40>
note_on channel=0 note=69 velocity=0 time=0
note_on channel=0 note=63 velocity=48 time=0
<meta message set_tempo tempo=364454 time=40>
<meta message set_tempo tempo=365519 time=40>
note_on channel=0 note=80 velocity=0 time=0
note_on channel=0 note=79 velocity=75 time=0
<meta message set_tempo tempo=366636 time=40>
<meta message set_tempo tempo=367715 time=40>
note_on channel=0 note=63 velocity=0 time=0
note_on channel=0 note=61 velocity=51 time=0
<meta message set_tempo tempo=368800 time=40>
note_on channel=0 note=79 velocity=0 time=0
note_on channel=0 note=78 velocity=76 time=0
<meta message set_tempo tempo=369891 time=40>
<meta message set_tempo tempo=369891 time=80>
note_on channel=0 note=78 velocity=0 time=0
note_on channel=0 note=61 velocity=0 time=0
note_on channel=0 note=80 velocity=76 time=0
control_change channel=0 control=64 value=0 time=0
note_on channel=0 note=68 velocity=71 time=0
note_on channel=0 note=64 velocity=71 time=0
note_on channel=0 note=61 velocity=71 time=0
note_on channel=0 note=56 velocity=71 time=0
note_on channel=0 note=80 velocity=0 time=60
note_on channel=0 note=61 velocity=0 time=180
note_on channel=0 note=68 velocity=0 time=0
note_on channel=0 note=64 velocity=0 time=0
note_on channel=0 note=56 velocity=0 time=0
note_on channel=0 note=92 velocity=85 time=0
note_on channel=0 note=92 velocity=0 time=120
note_on channel=0 note=91 velocity=85 time=0
<meta message set_tempo tempo=358145 time=120>
note_on channel=0 note=91 velocity=0 time=0
note_on channel=0 note=90 velocity=84 time=0
note_on channel=0 note=90 velocity=0 time=120
note_on channel=0 note=89 velocity=84 time=0
note_on channel=0 note=89 velocity=0 time=120
note_on channel=0 note=88 velocity=83 time=0
note_on channel=0 note=88 velocity=0 time=120
note_on channel=0 note=87 velocity=83 time=0
<meta message set_tempo tempo=359174 time=120>
note_on channel=0 note=87 velocity=0 time=0
note_on channel=0 note=86 velocity=82 time=0
note_on channel=0 note=69 velocity=71 time=0
note_on channel=0 note=64 velocity=71 time=0
note_on channel=0 note=61 velocity=71 time=0
note_on channel=0 note=55 velocity=71 time=0
control_change channel=0 control=64 value=127 time=11
note_on channel=0 note=86 velocity=0 time=109
note_on channel=0 note=85 velocity=81 time=0
note_on channel=0 note=85 velocity=0 time=120
note_on channel=0 note=84 velocity=81 time=0
note_on channel=0 note=84 velocity=0 time=120
note_on channel=0 note=83 velocity=80 time=0
<meta message set_tempo tempo=360209 time=120>
note_on channel=0 note=83 velocity=0 time=0
note_on channel=0 note=55 velocity=0 time=0
note_on channel=0 note=69 velocity=0 time=0
note_on channel=0 note=64 velocity=0 time=0
note_on channel=0 note=61 velocity=0 time=0
note_on channel=0 note=82 velocity=80 time=0
control_change channel=0 control=64 value=0 time=28
note_on channel=0 note=82 velocity=0 time=92
note_on channel=0 note=81 velocity=79 time=0
note_on channel=0 note=81 velocity=0 time=120
note_on channel=0 note=80 velocity=79 time=0
note_on channel=0 note=80 velocity=0 time=120
note_on channel=0 note=79 velocity=78 time=0
<meta message set_tempo tempo=361293 time=80>
note_on channel=0 note=79 velocity=0 time=40
note_on channel=0 note=78 velocity=77 time=0
note_on channel=0 note=78 velocity=0 time=120
note_on channel=0 note=77 velocity=77 time=0
note_on channel=0 note=77 velocity=0 time=120
note_on channel=0 note=76 velocity=77 time=0
note_on channel=0 note=76 velocity=0 time=120
note_on channel=0 note=75 velocity=77 time=0
note_on channel=0 note=75 velocity=0 time=120
note_on channel=0 note=74 velocity=77 time=0
note_on channel=0 note=74 velocity=0 time=120
note_on channel=0 note=73 velocity=77 time=0
note_on channel=0 note=73 velocity=0 time=120
note_on channel=0 note=72 velocity=77 time=0
note_on channel=0 note=72 velocity=0 time=120
note_on channel=0 note=71 velocity=77 time=0
note_on channel=0 note=71 velocity=0 time=120
note_on channel=0 note=70 velocity=77 time=0
control_change channel=0 control=64 value=127 time=23
note_on channel=0 note=70 velocity=0 time=97
note_on channel=0 note=69 velocity=80 time=0
note_on channel=0 note=69 velocity=0 time=120
note_on channel=0 note=68 velocity=83 time=0
note_on channel=0 note=68 velocity=0 time=120
note_on channel=0 note=67 velocity=85 time=0
<meta message set_tempo tempo=362341 time=80>
note_on channel=0 note=67 velocity=0 time=40
note_on channel=0 note=66 velocity=87 time=0
<meta message set_tempo tempo=363394 time=40>
<meta message set_tempo tempo=364454 time=40>
<meta message set_tempo tempo=365519 time=40>
note_on channel=0 note=66 velocity=0 time=0
note_on channel=0 note=64 velocity=89 time=0
<meta message set_tempo tempo=366636 time=40>
<meta message set_tempo tempo=367715 time=40>
<meta message set_tempo tempo=368800 time=40>
note_on channel=0 note=64 velocity=0 time=0
note_on channel=0 note=63 velocity=92 time=0
<meta message set_tempo tempo=369891 time=40>
<meta message set_tempo tempo=370989 time=40>
<meta message set_tempo tempo=372139 time=40>
note_on channel=0 note=63 velocity=0 time=0
note_on channel=0 note=61 velocity=94 time=0
<meta message set_tempo tempo=373250 time=40>
<meta message set_tempo tempo=374368 time=40>
<meta message set_tempo tempo=395909 time=40>
note_on channel=0 note=61 velocity=0 time=0
note_on channel=0 note=56 velocity=96 time=0
note_on channel=0 note=32 velocity=78 time=0
note_on channel=0 note=44 velocity=78 time=0
control_change channel=0 control=64 value=0 time=7
note_on channel=0 note=44 velocity=0 time=113
note_on channel=0 note=32 velocity=0 time=0
note_on channel=0 note=56 velocity=0 time=0
control_change channel=0 control=64 value=127 time=14
note_on channel=0 note=93 velocity=90 time=346
note_on channel=0 note=76 velocity=75 time=0
note_on channel=0 note=64 velocity=75 time=0
<meta message set_tempo tempo=392131 time=80>
note_on channel=0 note=93 velocity=0 time=40
note_on channel=0 note=92 velocity=81 time=0
note_on channel=0 note=92 velocity=0 time=120
note_on channel=0 note=100 velocity=77 time=0
<meta message set_tempo tempo=390905 time=40>
note_on channel=0 note=100 velocity=0 time=80
note_on channel=0 note=88 velocity=77 time=0
<meta message set_tempo tempo=389686 time=120>
note_on channel=0 note=88 velocity=0 time=0
note_on channel=0 note=64 velocity=0 time=0
note_on channel=0 note=76 velocity=0 time=0
note_on channel=0 note=90 velocity=90 time=0
note_on channel=0 note=61 velocity=78 time=0
note_on channel=0 note=73 velocity=78 time=0
note_on channel=0 note=90 velocity=0 time=120
note_on channel=0 note=88 velocity=77 time=0
<meta message set_tempo tempo=388475 time=80>
note_on channel=0 note=88 velocity=0 time=40
note_on channel=0 note=97 velocity=77 time=0
note_on channel=0 note=97 velocity=0 time=120
note_on channel=0 note=85 velocity=77 time=0
<meta message set_tempo tempo=387247 time=40>
note_on channel=0 note=85 velocity=0 time=80
note_on channel=0 note=73 velocity=0 time=0
note_on channel=0 note=61 velocity=0 time=0
note_on channel=0 note=87 velocity=89 time=0
note_on channel=0 note=56 velocity=78 time=0
note_on channel=0 note=68 velocity=78 time=0
<meta message set_tempo tempo=386026 time=120>
note_on channel=0 note=87 velocity=0 time=0
note_on channel=0 note=85 velocity=77 time=0
note_on channel=0 note=85 velocity=0 time=120
note_on channel=0 note=92 velocity=77 time=0
<meta message set_tempo tempo=384837 time=80>
note_on channel=0 note=92 velocity=0 time=40
note_on channel=0 note=80 velocity=77 time=0
<meta message set_tempo tempo=378955 time=120>
note_on channel=0 note=80 velocity=0 time=0
note_on channel=0 note=68 velocity=0 time=0
note_on channel=0 note=56 velocity=0 time=0
note_on channel=0 note=81 velocity=89 time=0
note_on channel=0 note=52 velocity=78 time=0
note_on channel=0 note=64 velocity=78 time=0
note_on channel=0 note=81 velocity=0 time=120
note_on channel=0 note=80 velocity=77 time=0
note_on channel=0 note=80 velocity=0 time=120
note_on channel=0 note=88 velocity=77 time=0
note_on channel=0 note=88 velocity=0 time=120
note_on channel=0 note=76 velocity=77 time=0
note_on channel=0 note=76 velocity=0 time=120
note_on channel=0 note=64 velocity=0 time=0
note_on channel=0 note=52 velocity=0 time=0
note_on channel=0 note=78 velocity=88 time=0
note_on channel=0 note=49 velocity=74 time=0
note_on channel=0 note=61 velocity=74 time=0
note_on channel=0 note=78 velocity=0 time=120
note_on channel=0 note=76 velocity=77 time=0
note_on channel=0 note=76 velocity=0 time=120
note_on channel=0 note=85 velocity=77 time=0
note_on channel=0 note=85 velocity=0 time=120
note_on channel=0 note=73 velocity=77 time=0
note_on channel=0 note=73 velocity=0 time=120
note_on channel=0 note=61 velocity=0 time=0
note_on channel=0 note=49 velocity=0 time=0
note_on channel=0 note=75 velocity=89 time=0
note_on channel=0 note=44 velocity=78 time=0
note_on channel=0 note=56 velocity=78 time=0
note_on channel=0 note=75 velocity=0 time=120
note_on channel=0 note=73 velocity=77 time=0
note_on channel=0 note=73 velocity=0 time=120
note_on channel=0 note=80 velocity=77 time=0
note_on channel=0 note=80 velocity=0 time=120
note_on channel=0 note=68 velocity=77 time=0
note_on channel=0 note=68 velocity=0 time=120
note_on channel=0 note=56 velocity=0 time=0
note_on channel=0 note=44 velocity=0 time=0
note_on channel=0 note=69 velocity=90 time=0
note_on channel=0 note=40 velocity=74 time=0
note_on channel=0 note=52 velocity=74 time=0
note_on channel=0 note=69 velocity=0 time=120
note_on channel=0 note=68 velocity=77 time=0
note_on channel=0 note=68 velocity=0 time=120
note_on channel=0 note=76 velocity=77 time=0
note_on channel=0 note=76 velocity=0 time=120
note_on channel=0 note=64 velocity=77 time=0
<meta message set_tempo tempo=390905 time=120>
note_on channel=0 note=64 velocity=0 time=0
note_on channel=0 note=52 velocity=0 time=0
note_on channel=0 note=40 velocity=0 time=0
note_on channel=0 note=66 velocity=88 time=0
note_on channel=0 note=37 velocity=78 time=0
note_on channel=0 note=49 velocity=78 time=0
control_change channel=0 control=64 value=0 time=8
control_change channel=0 control=64 value=127 time=63
note_on channel=0 note=66 velocity=0 time=49
note_on channel=0 note=64 velocity=77 time=0
note_on channel=0 note=64 velocity=0 time=120
note_on channel=0 note=73 velocity=77 time=0
note_on channel=0 note=73 velocity=0 time=120
note_on channel=0 note=61 velocity=77 time=0
<meta message set_tempo tempo=382482 time=120>
note_on channel=0 note=61 velocity=0 time=0
note_on channel=0 note=49 velocity=0 time=0
note_on channel=0 note=37 velocity=0 time=0
note_on channel=0 note=63 velocity=89 time=0
note_on channel=0 note=32 velocity=73 time=0
note_on channel=0 note=44 velocity=73 time=0
note_on channel=0 note=63 velocity=0 time=120
note_on channel=0 note=61 velocity=77 time=0
note_on channel=0 note=61 velocity=0 time=120
note_on channel=0 note=68 velocity=77 time=0
note_on channel=0 note=68 velocity=0 time=120
note_on channel=0 note=56 velocity=77 time=0
<meta message set_tempo tempo=388475 time=120>
note_on channel=0 note=56 velocity=0 time=0
note_on channel=0 note=44 velocity=0 time=0
note_on channel=0 note=32 velocity=0 time=0
note_on channel=0 note=63 velocity=89 time=0
note_on channel=0 note=32 velocity=78 time=0
note_on channel=0 note=44 velocity=78 time=0
note_on channel=0 note=63 velocity=0 time=120
note_on channel=0 note=61 velocity=77 time=0
note_on channel=0 note=61 velocity=0 time=120
note_on channel=0 note=68 velocity=77 time=0
note_on channel=0 note=68 velocity=0 time=120
note_on channel=0 note=56 velocity=77 time=0
note_on channel=0 note=56 velocity=0 time=120
note_on channel=0 note=44 velocity=0 time=0
note_on channel=0 note=32 velocity=0 time=0
note_on channel=0 note=63 velocity=89 time=0
note_on channel=0 note=33 velocity=74 time=0
note_on channel=0 note=45 velocity=74 time=0
control_change channel=0 control=64 value=0 time=12
control_change channel=0 control=64 value=127 time=80
note_on channel=0 note=63 velocity=0 time=28
note_on channel=0 note=61 velocity=77 time=0
note_on channel=0 note=61 velocity=0 time=120
note_on channel=0 note=69 velocity=77 time=0
note_on channel=0 note=69 velocity=0 time=120
note_on channel=0 note=57 velocity=77 time=0
<meta message set_tempo tempo=378955 time=80>
<meta message set_tempo tempo=390905 time=40>
note_on channel=0 note=57 velocity=0 time=0
note_on channel=0 note=45 velocity=0 time=0
note_on channel=0 note=33 velocity=0 time=0
note_on channel=0 note=63 velocity=89 time=0
note_on channel=0 note=32 velocity=78 time=0
note_on channel=0 note=44 velocity=78 time=0
control_change channel=0 control=64 value=0 time=11
control_change channel=0 control=64 value=127 time=63
<meta message set_tempo tempo=392131 time=46>
note_on channel=0 note=63 velocity=0 time=0
note_on channel=0 note=61 velocity=75 time=0
<meta message set_tempo tempo=393391 time=120>
note_on channel=0 note=61 velocity=0 time=0
note_on channel=0 note=68 velocity=74 time=0
<meta message set_tempo tempo=394659 time=80>
note_on channel=0 note=68 velocity=0 time=40
note_on channel=0 note=56 velocity=73 time=0
<meta message set_tempo tempo=395909 time=80>
note_on channel=0 note=56 velocity=0 time=40
note_on channel=0 note=44 velocity=0 time=0
note_on channel=0 note=32 velocity=0 time=0
note_on channel=0 note=63 velocity=83 time=0
note_on channel=0 note=31 velocity=72 time=0
note_on channel=0 note=43 velocity=72 time=0
control_change channel=0 control=64 value=0 time=13
<meta message set_tempo tempo=397167 time=27>
note_on channel=0 note=63 velocity=0 time=80
note_on channel=0 note=61 velocity=71 time=0
control_change channel=0 control=64 value=127 time=0
<meta message set_tempo tempo=398433 time=40>
<meta message set_tempo tempo=399734 time=80>
note_on channel=0 note=61 velocity=0 time=0
note_on channel=0 note=67 velocity=71 time=0
<meta message set_tempo tempo=401043 time=120>
note_on channel=0 note=67 velocity=0 time=0
note_on channel=0 note=55 velocity=70 time=0
<meta message set_tempo tempo=403633 time=80>
<meta message set_tempo tempo=406284 time=40>
note_on channel=0 note=55 velocity=0 time=0
note_on channel=0 note=43 velocity=0 time=0
note_on channel=0 note=31 velocity=0 time=0
note_on channel=0 note=63 velocity=79 time=0
note_on channel=0 note=32 velocity=69 time=0
note_on channel=0 note=44 velocity=69 time=0
control_change channel=0 control=64 value=0 time=17
<meta message set_tempo tempo=408970 time=23>
<meta message set_tempo tempo=411692 time=40>
control_change channel=0 control=64 value=127 time=34
<meta message set_tempo tempo=414451 time=6>
note_on channel=0 note=63 velocity=0 time=0
note_on channel=0 note=61 velocity=68 time=0
<meta message set_tempo tempo=417217 time=40>
<meta message set_tempo tempo=420080 time=40>
<meta message set_tempo tempo=422922 time=40>
note_on channel=0 note=61 velocity=0 time=0
note_on channel=0 note=68 velocity=67 time=0
<meta message set_tempo tempo=425834 time=40>
<meta message set_tempo tempo=428786 time=40>
<meta message set_tempo tempo=431779 time=40>
note_on channel=0 note=68 velocity=0 time=0
note_on channel=0 note=56 velocity=66 time=0
<meta message set_tempo tempo=436332 time=40>
<meta message set_tempo tempo=436332 time=40>
<meta message set_tempo tempo=440982 time=40>
note_on channel=0 note=56 velocity=0 time=0
note_on channel=0 note=63 velocity=75 time=0
control_change channel=0 control=64 value=0 time=14
<meta message set_tempo tempo=447361 time=26>
<meta message set_tempo tempo=453926 time=40>
<meta message set_tempo tempo=460688 time=40>
note_on channel=0 note=63 velocity=0 time=0
note_on channel=0 note=60 velocity=63 time=0
control_change channel=0 control=64 value=127 time=0
<meta message set_tempo tempo=467617 time=40>
<meta message set_tempo tempo=474796 time=40>
<meta message set_tempo tempo=482160 time=40>
note_on channel=0 note=60 velocity=0 time=0
note_on channel=0 note=68 velocity=63 time=0
<meta message set_tempo tempo=489796 time=40>
<meta message set_tempo tempo=497678 time=40>
<meta message set_tempo tempo=505817 time=40>
note_on channel=0 note=68 velocity=0 time=0
note_on channel=0 note=56 velocity=62 time=0
<meta message set_tempo tempo=514227 time=40>
<meta message set_tempo tempo=387697 time=80>
note_on channel=0 note=56 velocity=0 time=0
note_on channel=0 note=44 velocity=0 time=0
note_on channel=0 note=32 velocity=0 time=0
note_on channel=0 note=63 velocity=73 time=0
note_on channel=0 note=37 velocity=93 time=0
control_change channel=0 control=64 value=0 time=11
control_change channel=0 control=64 value=127 time=63
<meta message set_tempo tempo=388929 time=46>
note_on channel=0 note=63 velocity=0 time=0
note_on channel=0 note=61 velocity=65 time=0
<meta message set_tempo tempo=390142 time=120>
note_on channel=0 note=61 velocity=0 time=0
note_on channel=0 note=37 velocity=0 time=0
note_on channel=0 note=68 velocity=65 time=0
note_on channel=0 note=52 velocity=56 time=0
note_on channel=0 note=68 velocity=0 time=120
note_on channel=0 note=56 velocity=65 time=0
<meta message set_tempo tempo=381679 time=100>
note_on channel=0 note=56 velocity=0 time=20
note_on channel=0 note=52 velocity=0 time=0
note_on channel=0 note=69 velocity=69 time=0
note_on channel=0 note=49 velocity=58 time=0
note_on channel=0 note=69 velocity=0 time=120
note_on channel=0 note=68 velocity=65 time=0
note_on channel=0 note=68 velocity=0 time=120
note_on channel=0 note=49 velocity=0 time=0
note_on channel=0 note=76 velocity=83 time=0
note_on channel=0 note=44 velocity=58 time=0
note_on channel=0 note=76 velocity=0 time=120
note_on channel=0 note=64 velocity=64 time=0
<meta message set_tempo tempo=380952 time=120>
note_on channel=0 note=64 velocity=0 time=0
note_on channel=0 note=44 velocity=0 time=0
note_on channel=0 note=69 velocity=70 time=0
note_on channel=0 note=37 velocity=63 time=0
control_change channel=0 control=64 value=0 time=15
note_on channel=0 note=69 velocity=0 time=105
note_on channel=0 note=68 velocity=66 time=0
control_change channel=0 control=64 value=127 time=7
note_on channel=0 note=68 velocity=0 time=113
note_on channel=0 note=37 velocity=0 time=0
note_on channel=0 note=76 velocity=83 time=0
note_on channel=0 note=54 velocity=58 time=0
note_on channel=0 note=76 velocity=0 time=120
note_on channel=0 note=64 velocity=60 time=0
<meta message set_tempo tempo=390142 time=120>
note_on channel=0 note=64 velocity=0 time=0
note_on channel=0 note=54 velocity=0 time=0
note_on channel=0 note=69 velocity=68 time=0
note_on channel=0 note=48 velocity=58 time=0
note_on channel=0 note=69 velocity=0 time=120
note_on channel=0 note=68 velocity=62 time=0
note_on channel=0 note=68 velocity=0 time=120
note_on channel=0 note=48 velocity=0 time=0
note_on channel=0 note=75 velocity=79 time=0
note_on channel=0 note=44 velocity=58 time=0
note_on channel=0 note=75 velocity=0 time=120
note_on channel=0 note=63 velocity=71 time=0
note_on channel=0 note=63 velocity=0 time=120
note_on channel=0 note=44 velocity=0 time=0
note_on channel=0 note=69 velocity=68 time=0
note_on channel=0 note=37 velocity=63 time=0
control_change channel=0 control=64 value=0 time=12
<meta message set_tempo tempo=381679 time=28>
note_on channel=0 note=69 velocity=0 time=80
note_on channel=0 note=68 velocity=66 time=0
control_change channel=0 control=64 value=127 time=21
note_on channel=0 note=68 velocity=0 time=99
note_on channel=0 note=37 velocity=0 time=0
note_on channel=0 note=75 velocity=83 time=0
note_on channel=0 note=52 velocity=58 time=0
note_on channel=0 note=75 velocity=0 time=120
note_on channel=0 note=64 velocity=60 time=0
<meta message set_tempo tempo=390142 time=120>
note_on channel=0 note=64 velocity=0 time=0
note_on channel=0 note=52 velocity=0 time=0
note_on channel=0 note=69 velocity=68 time=0
note_on channel=0 note=49 velocity=58 time=0
note_on channel=0 note=69 velocity=0 time=120
note_on channel=0 note=68 velocity=62 time=0
note_on channel=0 note=68 velocity=0 time=120
note_on channel=0 note=49 velocity=0 time=0
note_on channel=0 note=73 velocity=79 time=0
note_on channel=0 note=44 velocity=58 time=0
note_on channel=0 note=73 velocity=0 time=120
note_on channel=0 note=61 velocity=71 time=0
<meta message set_tempo tempo=380493 time=120>
note_on channel=0 note=61 velocity=0 time=0
note_on channel=0 note=44 velocity=0 time=0
note_on channel=0 note=64 velocity=54 time=0
note_on channel=0 note=37 velocity=47 time=0
control_change channel=0 control=64 value=0 time=13
note_on channel=0 note=64 velocity=0 time=107
note_on channel=0 note=63 velocity=49 time=0
control_change channel=0 control=64 value=127 time=36
note_on channel=0 note=63 velocity=0 time=84
note_on channel=0 note=37 velocity=0 time=0
note_on channel=0 note=68 velocity=62 time=0
note_on channel=0 note=54 velocity=43 time=0
note_on channel=0 note=68 velocity=0 time=120
note_on channel=0 note=56 velocity=45 time=0
<meta message set_tempo tempo=390142 time=120>
note_on channel=0 note=56 velocity=0 time=0
note_on channel=0 note=54 velocity=0 time=0
note_on channel=0 note=64 velocity=51 time=0
note_on channel=0 note=48 velocity=43 time=0
note_on channel=0 note=64 velocity=0 time=120
note_on channel=0 note=63 velocity=46 time=0
note_on channel=0 note=63 velocity=0 time=120
note_on channel=0 note=48 velocity=0 time=0
note_on channel=0 note=68 velocity=59 time=0
note_on channel=0 note=44 velocity=43 time=0
note_on channel=0 note=68 velocity=0 time=120
note_on channel=0 note=56 velocity=53 time=0
<meta message set_tempo tempo=393908 time=120>
note_on channel=0 note=56 velocity=0 time=0
note_on channel=0 note=44 velocity=0 time=0
note_on channel=0 note=63 velocity=54 time=0
note_on channel=0 note=37 velocity=47 time=0
control_change channel=0 control=64 value=0 time=12
note_on channel=0 note=63 velocity=0 time=108
note_on channel=0 note=61 velocity=49 time=0
control_change channel=0 control=64 value=127 time=28
note_on channel=0 note=61 velocity=0 time=92
note_on channel=0 note=37 velocity=0 time=0
note_on channel=0 note=68 velocity=62 time=0
note_on channel=0 note=52 velocity=43 time=0
note_on channel=0 note=68 velocity=0 time=120
note_on channel=0 note=56 velocity=45 time=0
<meta message set_tempo tempo=385257 time=120>
note_on channel=0 note=56 velocity=0 time=0
note_on channel=0 note=52 velocity=0 time=0
note_on channel=0 note=69 velocity=67 time=0
note_on channel=0 note=49 velocity=58 time=0
<meta message set_tempo tempo=381679 time=40>
note_on channel=0 note=69 velocity=0 time=80
note_on channel=0 note=68 velocity=65 time=0
note_on channel=0 note=68 velocity=0 time=120
note_on channel=0 note=49 velocity=0 time=0
note_on channel=0 note=76 velocity=83 time=0
note_on channel=0 note=44 velocity=58 time=0
note_on channel=0 note=76 velocity=0 time=120
note_on channel=0 note=64 velocity=64 time=0
note_on channel=0 note=64 velocity=0 time=120
note_on channel=0 note=44 velocity=0 time=0
note_on channel=0 note=69 velocity=68 time=0
note_on channel=0 note=37 velocity=63 time=0
control_change channel=0 control=64 value=0 time=15
note_on channel=0 note=69 velocity=0 time=105
note_on channel=0 note=68 velocity=66 time=0
control_change channel=0 control=64 value=127 time=43
note_on channel=0 note=68 velocity=0 time=77
note_on channel=0 note=37 velocity=0 time=0
note_on channel=0 note=76 velocity=83 time=0
note_on channel=0 note=54 velocity=58 time=0
note_on channel=0 note=76 velocity=0 time=120
note_on channel=0 note=64 velocity=60 time=0
<meta message set_tempo tempo=390142 time=120>
note_on channel=0 note=64 velocity=0 time=0
note_on channel=0 note=54 velocity=0 time=0
note_on channel=0 note=69 velocity=65 time=0
note_on channel=0 note=48 velocity=58 time=0
note_on channel=0 note=69 velocity=0 time=120
note_on channel=0 note=68 velocity=62 time=0
note_on channel=0 note=68 velocity=0 time=120
note_on channel=0 note=48 velocity=0 time=0
note_on channel=0 note=75 velocity=79 time=0
note_on channel=0 note=44 velocity=58 time=0
note_on channel=0 note=75 velocity=0 time=120
note_on channel=0 note=63 velocity=66 time=0
note_on channel=0 note=63 velocity=0 time=120
note_on channel=0 note=44 velocity=0 time=0
note_on channel=0 note=69 velocity=66 time=0
note_on channel=0 note=37 velocity=63 time=0
control_change channel=0 control=64 value=0 time=15
<meta message set_tempo tempo=381679 time=25>
control_change channel=0 control=64 value=127 time=59
note_on channel=0 note=69 velocity=0 time=21
note_on channel=0 note=68 velocity=66 time=0
note_on channel=0 note=68 velocity=0 time=120
note_on channel=0 note=37 velocity=0 time=0
note_on channel=0 note=75 velocity=83 time=0
note_on channel=0 note=52 velocity=58 time=0
note_on channel=0 note=75 velocity=0 time=120
note_on channel=0 note=64 velocity=60 time=0
<meta message set_tempo tempo=390142 time=120>
note_on channel=0 note=64 velocity=0 time=0
note_on channel=0 note=52 velocity=0 time=0
note_on channel=0 note=69 velocity=67 time=0
note_on channel=0 note=49 velocity=58 time=0
note_on channel=0 note=69 velocity=0 time=120
note_on channel=0 note=68 velocity=62 time=0
note_on channel=0 note=68 velocity=0 time=120
note_on channel=0 note=49 velocity=0 time=0
note_on channel=0 note=73 velocity=79 time=0
note_on channel=0 note=44 velocity=58 time=0
note_on channel=0 note=73 velocity=0 time=120
note_on channel=0 note=61 velocity=71 time=0
<meta message set_tempo tempo=380493 time=120>
note_on channel=0 note=61 velocity=0 time=0
note_on channel=0 note=44 velocity=0 time=0
note_on channel=0 note=64 velocity=54 time=0
note_on channel=0 note=37 velocity=47 time=0
control_change channel=0 control=64 value=0 time=14
note_on channel=0 note=64 velocity=0 time=106
note_on channel=0 note=63 velocity=49 time=0
control_change channel=0 control=64 value=127 time=0
note_on channel=0 note=63 velocity=0 time=120
note_on channel=0 note=37 velocity=0 time=0
note_on channel=0 note=68 velocity=62 time=0
note_on channel=0 note=54 velocity=36 time=0
note_on channel=0 note=68 velocity=0 time=120
note_on channel=0 note=56 velocity=45 time=0
<meta message set_tempo tempo=390142 time=120>
note_on channel=0 note=56 velocity=0 time=0
note_on channel=0 note=54 velocity=0 time=0
note_on channel=0 note=64 velocity=51 time=0
note_on channel=0 note=48 velocity=36 time=0
note_on channel=0 note=64 velocity=0 time=120
note_on channel=0 note=63 velocity=46 time=0
note_on channel=0 note=63 velocity=0 time=120
note_on channel=0 note=48 velocity=0 time=0
note_on channel=0 note=68 velocity=59 time=0
note_on channel=0 note=44 velocity=36 time=0
note_on channel=0 note=68 velocity=0 time=120
note_on channel=0 note=56 velocity=53 time=0
<meta message set_tempo tempo=387697 time=120>
note_on channel=0 note=56 velocity=0 time=0
note_on channel=0 note=44 velocity=0 time=0
note_on channel=0 note=63 velocity=54 time=0
note_on channel=0 note=37 velocity=39 time=0
control_change channel=0 control=64 value=0 time=16
control_change channel=0 control=64 value=127 time=97
note_on channel=0 note=63 velocity=0 time=7
note_on channel=0 note=61 velocity=49 time=0
note_on channel=0 note=61 velocity=0 time=120
note_on channel=0 note=37 velocity=0 time=0
note_on channel=0 note=68 velocity=62 time=0
note_on channel=0 note=52 velocity=36 time=0
note_on channel=0 note=68 velocity=0 time=120
note_on channel=0 note=56 velocity=45 time=0
<meta message set_tempo tempo=385257 time=120>
note_on channel=0 note=56 velocity=0 time=0
note_on channel=0 note=52 velocity=0 time=0
note_on channel=0 note=69 velocity=55 time=0
note_on channel=0 note=49 velocity=36 time=0
<meta message set_tempo tempo=381679 time=40>
note_on channel=0 note=69 velocity=0 time=80
note_on channel=0 note=68 velocity=48 time=0
note_on channel=0 note=68 velocity=0 time=120
note_on channel=0 note=49 velocity=0 time=0
note_on channel=0 note=76 velocity=62 time=0
note_on channel=0 note=44 velocity=36 time=0
note_on channel=0 note=76 velocity=0 time=120
note_on channel=0 note=64 velocity=48 time=0
note_on channel=0 note=64 velocity=0 time=120
note_on channel=0 note=44 velocity=0 time=0
note_on channel=0 note=66 velocity=54 time=0
note_on channel=0 note=37 velocity=39 time=0
control_change channel=0 control=64 value=0 time=15
control_change channel=0 control=64 value=127 time=77
note_on channel=0 note=66 velocity=0 time=28
note_on channel=0 note=64 velocity=49 time=0
note_on channel=0 note=64 velocity=0 time=120
note_on channel=0 note=37 velocity=0 time=0
note_on channel=0 note=73 velocity=62 time=0
note_on channel=0 note=56 velocity=36 time=0
note_on channel=0 note=73 velocity=0 time=120
note_on channel=0 note=61 velocity=45 time=0
<meta message set_tempo tempo=390142 time=120>
note_on channel=0 note=61 velocity=0 time=0
note_on channel=0 note=56 velocity=0 time=0
note_on channel=0 note=69 velocity=51 time=0
note_on channel=0 note=49 velocity=36 time=0
note_on channel=0 note=69 velocity=0 time=120
note_on channel=0 note=68 velocity=46 time=0
note_on channel=0 note=68 velocity=0 time=120
note_on channel=0 note=49 velocity=0 time=0
note_on channel=0 note=76 velocity=59 time=0
note_on channel=0 note=44 velocity=36 time=0
note_on channel=0 note=76 velocity=0 time=120
note_on channel=0 note=64 velocity=53 time=0
<meta message set_tempo tempo=387697 time=120>
note_on channel=0 note=64 velocity=0 time=0
note_on channel=0 note=44 velocity=0 time=0
note_on channel=0 note=63 velocity=54 time=0
note_on channel=0 note=37 velocity=39 time=0
control_change channel=0 control=64 value=0 time=16
control_change channel=0 control=64 value=127 time=97
note_on channel=0 note=63 velocity=0 time=7
note_on channel=0 note=61 velocity=49 time=0
note_on channel=0 note=61 velocity=0 time=120
note_on channel=0 note=37 velocity=0 time=0
note_on channel=0 note=68 velocity=62 time=0
note_on channel=0 note=52 velocity=36 time=0
note_on channel=0 note=68 velocity=0 time=120
note_on channel=0 note=56 velocity=45 time=0
<meta message set_tempo tempo=385257 time=120>
note_on channel=0 note=56 velocity=0 time=0
note_on channel=0 note=52 velocity=0 time=0
note_on channel=0 note=69 velocity=55 time=0
note_on channel=0 note=49 velocity=36 time=0
<meta message set_tempo tempo=381679 time=40>
note_on channel=0 note=69 velocity=0 time=80
note_on channel=0 note=68 velocity=48 time=0
note_on channel=0 note=68 velocity=0 time=120
note_on channel=0 note=49 velocity=0 time=0
note_on channel=0 note=76 velocity=62 time=0
note_on channel=0 note=44 velocity=36 time=0
note_on channel=0 note=76 velocity=0 time=120
note_on channel=0 note=64 velocity=48 time=0
note_on channel=0 note=64 velocity=0 time=120
note_on channel=0 note=44 velocity=0 time=0
note_on channel=0 note=66 velocity=54 time=0
note_on channel=0 note=37 velocity=39 time=0
control_change channel=0 control=64 value=0 time=12
note_on channel=0 note=66 velocity=0 time=108
note_on channel=0 note=64 velocity=49 time=0
control_change channel=0 control=64 value=127 time=0
note_on channel=0 note=64 velocity=0 time=120
note_on channel=0 note=37 velocity=0 time=0
note_on channel=0 note=73 velocity=62 time=0
note_on channel=0 note=56 velocity=36 time=0
note_on channel=0 note=73 velocity=0 time=120
note_on channel=0 note=61 velocity=45 time=0
<meta message set_tempo tempo=390142 time=120>
note_on channel=0 note=61 velocity=0 time=0
note_on channel=0 note=56 velocity=0 time=0
note_on channel=0 note=69 velocity=51 time=0
note_on channel=0 note=49 velocity=36 time=0
note_on channel=0 note=69 velocity=0 time=120
note_on channel=0 note=68 velocity=46 time=0
note_on channel=0 note=68 velocity=0 time=120
note_on channel=0 note=49 velocity=0 time=0
note_on channel=0 note=76 velocity=59 time=0
note_on channel=0 note=44 velocity=36 time=0
note_on channel=0 note=76 velocity=0 time=120
note_on channel=0 note=64 velocity=53 time=0
<meta message set_tempo tempo=392157 time=80>
note_on channel=0 note=64 velocity=0 time=40
note_on channel=0 note=44 velocity=0 time=0
note_on channel=0 note=66 velocity=54 time=0
note_on channel=0 note=37 velocity=39 time=0
control_change channel=0 control=64 value=0 time=12
control_change channel=0 control=64 value=127 time=59
note_on channel=0 note=66 velocity=0 time=49
note_on channel=0 note=64 velocity=49 time=0
note_on channel=0 note=64 velocity=0 time=120
note_on channel=0 note=37 velocity=0 time=0
note_on channel=0 note=73 velocity=61 time=0
note_on channel=0 note=52 velocity=35 time=0
note_on channel=0 note=73 velocity=0 time=120
note_on channel=0 note=61 velocity=44 time=0
<meta message set_tempo tempo=382166 time=120>
note_on channel=0 note=61 velocity=0 time=0
note_on channel=0 note=52 velocity=0 time=0
note_on channel=0 note=69 velocity=53 time=0
note_on channel=0 note=49 velocity=35 time=0
note_on channel=0 note=69 velocity=0 time=120
note_on channel=0 note=68 velocity=46 time=0
note_on channel=0 note=68 velocity=0 time=120
note_on channel=0 note=49 velocity=0 time=0
note_on channel=0 note=73 velocity=60 time=0
note_on channel=0 note=44 velocity=34 time=0
note_on channel=0 note=73 velocity=0 time=120
note_on channel=0 note=61 velocity=46 time=0
note_on channel=0 note=61 velocity=0 time=120
note_on channel=0 note=44 velocity=0 time=0
note_on channel=0 note=66 velocity=51 time=0
note_on channel=0 note=37 velocity=38 time=0
control_change channel=0 control=64 value=0 time=13
note_on channel=0 note=66 velocity=0 time=107
note_on channel=0 note=64 velocity=46 time=0
control_change channel=0 control=64 value=127 time=0
note_on channel=0 note=64 velocity=0 time=120
note_on channel=0 note=37 velocity=0 time=0
note_on channel=0 note=73 velocity=58 time=0
note_on channel=0 note=52 velocity=34 time=0
note_on channel=0 note=73 velocity=0 time=120
note_on channel=0 note=61 velocity=42 time=0
<meta message set_tempo tempo=390142 time=120>
note_on channel=0 note=61 velocity=0 time=0
note_on channel=0 note=52 velocity=0 time=0
note_on channel=0 note=69 velocity=47 time=0
note_on channel=0 note=49 velocity=33 time=0
note_on channel=0 note=69 velocity=0 time=120
note_on channel=0 note=68 velocity=42 time=0
note_on channel=0 note=68 velocity=0 time=120
note_on channel=0 note=49 velocity=0 time=0
note_on channel=0 note=73 velocity=54 time=0
note_on channel=0 note=44 velocity=33 time=0
note_on channel=0 note=73 velocity=0 time=120
note_on channel=0 note=61 velocity=48 time=0
<meta message set_tempo tempo=390879 time=120>
note_on channel=0 note=61 velocity=0 time=0
note_on channel=0 note=44 velocity=0 time=0
note_on channel=0 note=66 velocity=48 time=0
note_on channel=0 note=37 velocity=35 time=0
control_change channel=0 control=64 value=0 time=15
control_change channel=0 control=64 value=127 time=70
note_on channel=0 note=66 velocity=0 time=35
note_on channel=0 note=64 velocity=44 time=0
note_on channel=0 note=64 velocity=0 time=120
note_on channel=0 note=37 velocity=0 time=0
note_on channel=0 note=73 velocity=55 time=0
note_on channel=0 note=52 velocity=31 time=0
note_on channel=0 note=73 velocity=0 time=120
note_on channel=0 note=61 velocity=40 time=0
<meta message set_tempo tempo=382166 time=120>
note_on channel=0 note=61 velocity=0 time=0
note_on channel=0 note=52 velocity=0 time=0
note_on channel=0 note=69 velocity=48 time=0
note_on channel=0 note=49 velocity=31 time=0
note_on channel=0 note=69 velocity=0 time=120
note_on channel=0 note=68 velocity=41 time=0
note_on channel=0 note=68 velocity=0 time=120
note_on channel=0 note=49 velocity=0 time=0
note_on channel=0 note=73 velocity=53 time=0
note_on channel=0 note=44 velocity=30 time=0
note_on channel=0 note=73 velocity=0 time=120
note_on channel=0 note=61 velocity=41 time=0
note_on channel=0 note=61 velocity=0 time=120
note_on channel=0 note=44 velocity=0 time=0
note_on channel=0 note=66 velocity=45 time=0
note_on channel=0 note=37 velocity=34 time=0
control_change channel=0 control=64 value=0 time=18
note_on channel=0 note=66 velocity=0 time=102
note_on channel=0 note=64 velocity=41 time=0
control_change channel=0 control=64 value=127 time=14
note_on channel=0 note=64 velocity=0 time=106
note_on channel=0 note=37 velocity=0 time=0
note_on channel=0 note=73 velocity=52 time=0
note_on channel=0 note=52 velocity=30 time=0
note_on channel=0 note=73 velocity=0 time=120
note_on channel=0 note=61 velocity=37 time=0
<meta message set_tempo tempo=390142 time=120>
note_on channel=0 note=61 velocity=0 time=0
note_on channel=0 note=52 velocity=0 time=0
note_on channel=0 note=69 velocity=42 time=0
note_on channel=0 note=49 velocity=29 time=0
note_on channel=0 note=69 velocity=0 time=120
note_on channel=0 note=68 velocity=37 time=0
note_on channel=0 note=68 velocity=0 time=120
note_on channel=0 note=49 velocity=0 time=0
note_on channel=0 note=73 velocity=48 time=0
note_on channel=0 note=44 velocity=29 time=0
note_on channel=0 note=73 velocity=0 time=120
note_on channel=0 note=61 velocity=42 time=0
<meta message set_tempo tempo=392157 time=120>
note_on channel=0 note=61 velocity=0 time=0
note_on channel=0 note=44 velocity=0 time=0
note_on channel=0 note=63 velocity=43 time=0
note_on channel=0 note=37 velocity=31 time=0
control_change channel=0 control=64 value=0 time=15
note_on channel=0 note=63 velocity=0 time=105
note_on channel=0 note=61 velocity=39 time=0
control_change channel=0 control=64 value=127 time=43
note_on channel=0 note=61 velocity=0 time=77
note_on channel=0 note=68 velocity=49 time=0
note_on channel=0 note=68 velocity=0 time=120
note_on channel=0 note=56 velocity=36 time=0
<meta message set_tempo tempo=385852 time=120>
note_on channel=0 note=56 velocity=0 time=0
note_on channel=0 note=37 velocity=0 time=0
note_on channel=0 note=63 velocity=44 time=0
note_on channel=0 note=63 velocity=0 time=120
note_on channel=0 note=61 velocity=38 time=0
note_on channel=0 note=61 velocity=0 time=120
note_on channel=0 note=68 velocity=49 time=0
note_on channel=0 note=68 velocity=0 time=120
note_on channel=0 note=56 velocity=38 time=0
note_on channel=0 note=56 velocity=0 time=120
note_on channel=0 note=63 velocity=43 time=0
note_on channel=0 note=63 velocity=0 time=120
note_on channel=0 note=61 velocity=39 time=0
note_on channel=0 note=61 velocity=0 time=120
note_on channel=0 note=68 velocity=49 time=0
note_on channel=0 note=68 velocity=0 time=120
note_on channel=0 note=56 velocity=36 time=0
<meta message set_tempo tempo=397351 time=120>
note_on channel=0 note=56 velocity=0 time=0
note_on channel=0 note=63 velocity=40 time=0
note_on channel=0 note=63 velocity=0 time=120
note_on channel=0 note=61 velocity=36 time=0
note_on channel=0 note=61 velocity=0 time=120
note_on channel=0 note=68 velocity=47 time=0
note_on channel=0 note=68 velocity=0 time=120
note_on channel=0 note=56 velocity=42 time=0
<meta message set_tempo tempo=390879 time=120>
note_on channel=0 note=56 velocity=0 time=0
note_on channel=0 note=63 velocity=43 time=0
note_on channel=0 note=63 velocity=0 time=120
note_on channel=0 note=61 velocity=39 time=0
note_on channel=0 note=61 velocity=0 time=120
note_on channel=0 note=68 velocity=48 time=0
note_on channel=0 note=68 velocity=0 time=120
note_on channel=0 note=56 velocity=35 time=0
<meta message set_tempo tempo=385852 time=120>
note_on channel=0 note=56 velocity=0 time=0
note_on channel=0 note=63 velocity=42 time=0
note_on channel=0 note=63 velocity=0 time=120
note_on channel=0 note=61 velocity=36 time=0
note_on channel=0 note=61 velocity=0 time=120
note_on channel=0 note=68 velocity=46 time=0
note_on channel=0 note=68 velocity=0 time=120
note_on channel=0 note=56 velocity=35 time=0
note_on channel=0 note=56 velocity=0 time=120
note_on channel=0 note=63 velocity=39 time=0
note_on channel=0 note=63 velocity=0 time=120
note_on channel=0 note=61 velocity=35 time=0
note_on channel=0 note=61 velocity=0 time=120
note_on channel=0 note=68 velocity=44 time=0
note_on channel=0 note=68 velocity=0 time=120
note_on channel=0 note=56 velocity=32 time=0
<meta message set_tempo tempo=390879 time=120>
note_on channel=0 note=56 velocity=0 time=0
note_on channel=0 note=63 velocity=35 time=0
<meta message set_tempo tempo=392157 time=40>
<meta message set_tempo tempo=394737 time=40>
<meta message set_tempo tempo=396040 time=40>
note_on channel=0 note=63 velocity=0 time=0
note_on channel=0 note=61 velocity=31 time=0
<meta message set_tempo tempo=398671 time=40>
<meta message set_tempo tempo=401338 time=40>
<meta message set_tempo tempo=402685 time=40>
note_on channel=0 note=61 velocity=0 time=0
note_on channel=0 note=68 velocity=40 time=0
<meta message set_tempo tempo=405405 time=40>
<meta message set_tempo tempo=408163 time=40>
<meta message set_tempo tempo=409556 time=40>
note_on channel=0 note=68 velocity=0 time=0
note_on channel=0 note=56 velocity=36 time=0
<meta message set_tempo tempo=412371 time=40>
<meta message set_tempo tempo=415225 time=40>
<meta message set_tempo tempo=387697 time=40>
note_on channel=0 note=56 velocity=0 time=0
note_on channel=0 note=63 velocity=36 time=0
note_on channel=0 note=37 velocity=39 time=0
note_on channel=0 note=44 velocity=48 time=0
note_on channel=0 note=63 velocity=0 time=120
note_on channel=0 note=61 velocity=33 time=0
note_on channel=0 note=61 velocity=0 time=120
note_on channel=0 note=68 velocity=41 time=0
note_on channel=0 note=68 velocity=0 time=120
note_on channel=0 note=56 velocity=30 time=0
<meta message set_tempo tempo=385257 time=120>
note_on channel=0 note=56 velocity=0 time=0
note_on channel=0 note=63 velocity=37 time=0
<meta message set_tempo tempo=381679 time=40>
note_on channel=0 note=63 velocity=0 time=80
note_on channel=0 note=61 velocity=32 time=0
note_on channel=0 note=61 velocity=0 time=120
note_on channel=0 note=68 velocity=41 time=0
note_on channel=0 note=68 velocity=0 time=120
note_on channel=0 note=56 velocity=32 time=0
note_on channel=0 note=56 velocity=0 time=120
note_on channel=0 note=63 velocity=36 time=0
note_on channel=0 note=63 velocity=0 time=120
note_on channel=0 note=61 velocity=33 time=0
note_on channel=0 note=61 velocity=0 time=120
note_on channel=0 note=68 velocity=41 time=0
note_on channel=0 note=68 velocity=0 time=120
note_on channel=0 note=56 velocity=30 time=0
<meta message set_tempo tempo=390142 time=120>
note_on channel=0 note=56 velocity=0 time=0
note_on channel=0 note=63 velocity=34 time=0
note_on channel=0 note=63 velocity=0 time=120
note_on channel=0 note=61 velocity=30 time=0
note_on channel=0 note=61 velocity=0 time=120
note_on channel=0 note=68 velocity=39 time=0
note_on channel=0 note=68 velocity=0 time=120
note_on channel=0 note=56 velocity=35 time=0
<meta message set_tempo tempo=387697 time=120>
note_on channel=0 note=56 velocity=0 time=0
note_on channel=0 note=44 velocity=0 time=0
note_on channel=0 note=37 velocity=0 time=0
note_on channel=0 note=63 velocity=36 time=0
note_on channel=0 note=46 velocity=47 time=0
control_change channel=0 control=64 value=0 time=11
control_change channel=0 control=64 value=127 time=53
note_on channel=0 note=63 velocity=0 time=56
note_on channel=0 note=61 velocity=33 time=0
note_on channel=0 note=61 velocity=0 time=120
note_on channel=0 note=68 velocity=41 time=0
note_on channel=0 note=68 velocity=0 time=120
note_on channel=0 note=56 velocity=30 time=0
<meta message set_tempo tempo=385257 time=120>
note_on channel=0 note=56 velocity=0 time=0
note_on channel=0 note=46 velocity=0 time=0
note_on channel=0 note=63 velocity=37 time=0
note_on channel=0 note=44 velocity=50 time=0
<meta message set_tempo tempo=381679 time=40>
note_on channel=0 note=63 velocity=0 time=80
note_on channel=0 note=61 velocity=32 time=0
note_on channel=0 note=61 velocity=0 time=120
note_on channel=0 note=68 velocity=41 time=0
note_on channel=0 note=68 velocity=0 time=120
note_on channel=0 note=56 velocity=32 time=0
note_on channel=0 note=56 velocity=0 time=120
note_on channel=0 note=44 velocity=0 time=0
note_on channel=0 note=63 velocity=36 time=0
note_on channel=0 note=49 velocity=52 time=0
control_change channel=0 control=64 value=0 time=11
note_on channel=0 note=63 velocity=0 time=109
note_on channel=0 note=61 velocity=33 time=0
control_change channel=0 control=64 value=127 time=36
note_on channel=0 note=61 velocity=0 time=84
note_on channel=0 note=68 velocity=41 time=0
note_on channel=0 note=68 velocity=0 time=120
note_on channel=0 note=56 velocity=30 time=0
<meta message set_tempo tempo=390142 time=120>
note_on channel=0 note=56 velocity=0 time=0
note_on channel=0 note=49 velocity=0 time=0
note_on channel=0 note=63 velocity=34 time=0
note_on channel=0 note=51 velocity=56 time=0
note_on channel=0 note=63 velocity=0 time=120
note_on channel=0 note=61 velocity=30 time=0
note_on channel=0 note=61 velocity=0 time=120
note_on channel=0 note=68 velocity=39 time=0
note_on channel=0 note=68 velocity=0 time=120
note_on channel=0 note=56 velocity=35 time=0
<meta message set_tempo tempo=387697 time=120>
note_on channel=0 note=56 velocity=0 time=0
note_on channel=0 note=51 velocity=0 time=0
note_on channel=0 note=63 velocity=36 time=0
note_on channel=0 note=53 velocity=58 time=0
control_change channel=0 control=64 value=0 time=11
control_change channel=0 control=64 value=127 time=53
note_on channel=0 note=63 velocity=0 time=56
note_on channel=0 note=61 velocity=33 time=0
note_on channel=0 note=61 velocity=0 time=120
note_on channel=0 note=68 velocity=41 time=0
note_on channel=0 note=68 velocity=0 time=120
note_on channel=0 note=56 velocity=30 time=0
<meta message set_tempo tempo=385257 time=120>
note_on channel=0 note=56 velocity=0 time=0
note_on channel=0 note=63 velocity=37 time=0
<meta message set_tempo tempo=381679 time=40>
note_on channel=0 note=63 velocity=0 time=80
note_on channel=0 note=61 velocity=32 time=0
note_on channel=0 note=61 velocity=0 time=120
note_on channel=0 note=68 velocity=41 time=0
note_on channel=0 note=68 velocity=0 time=120
note_on channel=0 note=56 velocity=32 time=0
note_on channel=0 note=56 velocity=0 time=120
note_on channel=0 note=63 velocity=36 time=0
note_on channel=0 note=63 velocity=0 time=120
note_on channel=0 note=61 velocity=33 time=0
note_on channel=0 note=61 velocity=0 time=120
note_on channel=0 note=68 velocity=41 time=0
note_on channel=0 note=68 velocity=0 time=120
note_on channel=0 note=56 velocity=30 time=0
<meta message set_tempo tempo=390142 time=120>
note_on channel=0 note=56 velocity=0 time=0
note_on channel=0 note=63 velocity=34 time=0
note_on channel=0 note=63 velocity=0 time=120
note_on channel=0 note=61 velocity=30 time=0
note_on channel=0 note=61 velocity=0 time=120
note_on channel=0 note=68 velocity=39 time=0
note_on channel=0 note=68 velocity=0 time=120
note_on channel=0 note=56 velocity=35 time=0
<meta message set_tempo tempo=387697 time=120>
note_on channel=0 note=56 velocity=0 time=0
note_on channel=0 note=53 velocity=0 time=0
note_on channel=0 note=63 velocity=36 time=0
note_on channel=0 note=56 velocity=60 time=0
control_change channel=0 control=64 value=0 time=11
control_change channel=0 control=64 value=127 time=53
note_on channel=0 note=63 velocity=0 time=56
note_on channel=0 note=61 velocity=33 time=0
note_on channel=0 note=61 velocity=0 time=120
note_on channel=0 note=68 velocity=41 time=0
note_on channel=0 note=68 velocity=0 time=120
note_on channel=0 note=56 velocity=30 time=0
<meta message set_tempo tempo=385257 time=120>
note_on channel=0 note=56 velocity=0 time=0
note_on channel=0 note=63 velocity=37 time=0
<meta message set_tempo tempo=381679 time=40>
note_on channel=0 note=63 velocity=0 time=80
note_on channel=0 note=61 velocity=32 time=0
note_on channel=0 note=61 velocity=0 time=120
note_on channel=0 note=68 velocity=41 time=0
note_on channel=0 note=68 velocity=0 time=120
note_on channel=0 note=56 velocity=32 time=0
note_on channel=0 note=56 velocity=0 time=120
note_on channel=0 note=63 velocity=36 time=0
note_on channel=0 note=63 velocity=0 time=120
note_on channel=0 note=61 velocity=33 time=0
note_on channel=0 note=61 velocity=0 time=120
note_on channel=0 note=68 velocity=41 time=0
note_on channel=0 note=68 velocity=0 time=120
note_on channel=0 note=56 velocity=30 time=0
<meta message set_tempo tempo=390142 time=120>
note_on channel=0 note=56 velocity=0 time=0
note_on channel=0 note=63 velocity=34 time=0
note_on channel=0 note=63 velocity=0 time=120
note_on channel=0 note=61 velocity=30 time=0
note_on channel=0 note=61 velocity=0 time=120
note_on channel=0 note=68 velocity=39 time=0
note_on channel=0 note=68 velocity=0 time=120
note_on channel=0 note=56 velocity=35 time=0
<meta message set_tempo tempo=387697 time=120>
note_on channel=0 note=56 velocity=0 time=0
note_on channel=0 note=56 velocity=0 time=0
note_on channel=0 note=63 velocity=36 time=0
note_on channel=0 note=54 velocity=56 time=0
control_change channel=0 control=64 value=0 time=11
note_on channel=0 note=63 velocity=0 time=109
note_on channel=0 note=61 velocity=33 time=0
control_change channel=0 control=64 value=127 time=0
note_on channel=0 note=61 velocity=0 time=120
note_on channel=0 note=68 velocity=41 time=0
note_on channel=0 note=68 velocity=0 time=120
note_on channel=0 note=56 velocity=30 time=0
<meta message set_tempo tempo=385257 time=120>
note_on channel=0 note=56 velocity=0 time=0
note_on channel=0 note=63 velocity=37 time=0
<meta message set_tempo tempo=381679 time=40>
note_on channel=0 note=63 velocity=0 time=80
note_on channel=0 note=61 velocity=32 time=0
note_on channel=0 note=61 velocity=0 time=120
note_on channel=0 note=68 velocity=41 time=0
note_on channel=0 note=68 velocity=0 time=120
note_on channel=0 note=56 velocity=32 time=0
note_on channel=0 note=56 velocity=0 time=120
note_on channel=0 note=54 velocity=0 time=0
note_on channel=0 note=63 velocity=36 time=0
note_on channel=0 note=53 velocity=56 time=0
control_change channel=0 control=64 value=0 time=11
control_change channel=0 control=64 value=127 time=81
note_on channel=0 note=63 velocity=0 time=28
note_on channel=0 note=61 velocity=33 time=0
note_on channel=0 note=61 velocity=0 time=120
note_on channel=0 note=68 velocity=41 time=0
note_on channel=0 note=68 velocity=0 time=120
note_on channel=0 note=56 velocity=30 time=0
<meta message set_tempo tempo=390142 time=120>
note_on channel=0 note=56 velocity=0 time=0
note_on channel=0 note=63 velocity=34 time=0
note_on channel=0 note=63 velocity=0 time=120
note_on channel=0 note=61 velocity=30 time=0
note_on channel=0 note=61 velocity=0 time=120
note_on channel=0 note=68 velocity=39 time=0
note_on channel=0 note=68 velocity=0 time=120
note_on channel=0 note=56 velocity=35 time=0
<meta message set_tempo tempo=387697 time=120>
note_on channel=0 note=56 velocity=0 time=0
note_on channel=0 note=53 velocity=0 time=0
note_on channel=0 note=63 velocity=36 time=0
note_on channel=0 note=51 velocity=57 time=0
control_change channel=0 control=64 value=0 time=6
note_on channel=0 note=63 velocity=0 time=114
note_on channel=0 note=61 velocity=33 time=0
control_change channel=0 control=64 value=127 time=17
note_on channel=0 note=61 velocity=0 time=103
note_on channel=0 note=68 velocity=41 time=0
note_on channel=0 note=68 velocity=0 time=120
note_on channel=0 note=56 velocity=30 time=0
<meta message set_tempo tempo=385257 time=120>
note_on channel=0 note=56 velocity=0 time=0
note_on channel=0 note=63 velocity=37 time=0
<meta message set_tempo tempo=381679 time=40>
note_on channel=0 note=63 velocity=0 time=80
note_on channel=0 note=61 velocity=32 time=0
note_on channel=0 note=61 velocity=0 time=120
note_on channel=0 note=68 velocity=41 time=0
note_on channel=0 note=68 velocity=0 time=120
note_on channel=0 note=56 velocity=32 time=0
<meta message set_tempo tempo=387097 time=120>
note_on channel=0 note=56 velocity=0 time=0
note_on channel=0 note=51 velocity=0 time=0
note_on channel=0 note=63 velocity=36 time=0
note_on channel=0 note=53 velocity=56 time=0
control_change channel=0 control=64 value=0 time=10
control_change channel=0 control=64 value=127 time=61
note_on channel=0 note=63 velocity=0 time=49
note_on channel=0 note=61 velocity=33 time=0
note_on channel=0 note=61 velocity=0 time=120
note_on channel=0 note=68 velocity=41 time=0
note_on channel=0 note=68 velocity=0 time=120
note_on channel=0 note=56 velocity=30 time=0
<meta message set_tempo tempo=402685 time=120>
note_on channel=0 note=56 velocity=0 time=0
note_on channel=0 note=53 velocity=0 time=0
note_on channel=0 note=63 velocity=34 time=0
note_on channel=0 note=49 velocity=48 time=0
note_on channel=0 note=63 velocity=0 time=120
note_on channel=0 note=61 velocity=30 time=0
note_on channel=0 note=61 velocity=0 time=120
note_on channel=0 note=68 velocity=39 time=0
note_on channel=0 note=68 velocity=0 time=120
note_on channel=0 note=56 velocity=35 time=0
<meta message set_tempo tempo=418118 time=120>
note_on channel=0 note=56 velocity=0 time=0
note_on channel=0 note=49 velocity=0 time=0
note_on channel=0 note=63 velocity=36 time=0
note_on channel=0 note=44 velocity=53 time=0
control_change channel=0 control=64 value=0 time=14
control_change channel=0 control=64 value=127 time=72
note_on channel=0 note=63 velocity=0 time=34
note_on channel=0 note=61 velocity=29 time=0
note_on channel=0 note=61 velocity=0 time=120
note_on channel=0 note=68 velocity=35 time=0
note_on channel=0 note=68 velocity=0 time=120
note_on channel=0 note=53 velocity=37 time=0
<meta message set_tempo tempo=398671 time=120>
note_on channel=0 note=53 velocity=0 time=0
note_on channel=0 note=63 velocity=44 time=0
<meta message set_tempo tempo=410959 time=40>
note_on channel=0 note=63 velocity=0 time=80
note_on channel=0 note=61 velocity=28 time=0
note_on channel=0 note=61 velocity=0 time=120
note_on channel=0 note=68 velocity=36 time=0
note_on channel=0 note=68 velocity=0 time=120
note_on channel=0 note=53 velocity=37 time=0
note_on channel=0 note=53 velocity=0 time=120
note_on channel=0 note=63 velocity=43 time=0
note_on channel=0 note=63 velocity=0 time=120
note_on channel=0 note=61 velocity=29 time=0
note_on channel=0 note=61 velocity=0 time=120
note_on channel=0 note=68 velocity=37 time=0
note_on channel=0 note=68 velocity=0 time=120
note_on channel=0 note=53 velocity=37 time=0
<meta message set_tempo tempo=427046 time=120>
note_on channel=0 note=53 velocity=0 time=0
note_on channel=0 note=63 velocity=45 time=0
<meta message set_tempo tempo=419580 time=40>
note_on channel=0 note=63 velocity=0 time=80
note_on channel=0 note=61 velocity=27 time=0
note_on channel=0 note=61 velocity=0 time=120
note_on channel=0 note=68 velocity=36 time=0
note_on channel=0 note=68 velocity=0 time=120
note_on channel=0 note=53 velocity=31 time=0
<meta message set_tempo tempo=427046 time=120>
note_on channel=0 note=53 velocity=0 time=0
note_on channel=0 note=44 velocity=0 time=0
note_on channel=0 note=65 velocity=32 time=0
note_on channel=0 note=32 velocity=50 time=0
note_on channel=0 note=44 velocity=50 time=0
control_change channel=0 control=64 value=0 time=8
control_change channel=0 control=64 value=127 time=89
note_on channel=0 note=65 velocity=0 time=23
note_on channel=0 note=63 velocity=29 time=6
note_on channel=0 note=68 velocity=35 time=114
note_on channel=0 note=63 velocity=0 time=6
note_on channel=0 note=68 velocity=0 time=114
note_on channel=0 note=54 velocity=38 time=0
<meta message set_tempo tempo=461538 time=120>
note_on channel=0 note=54 velocity=0 time=0
note_on channel=0 note=65 velocity=44 time=0
<meta message set_tempo tempo=463320 time=40>
<meta message set_tempo tempo=465116 time=40>
<meta message set_tempo tempo=466926 time=40>
note_on channel=0 note=65 velocity=0 time=0
note_on channel=0 note=63 velocity=28 time=0
<meta message set_tempo tempo=468750 time=40>
note_on channel=0 note=63 velocity=0 time=80
note_on channel=0 note=68 velocity=35 time=0
<meta message set_tempo tempo=472441 time=40>
note_on channel=0 note=68 velocity=0 time=80
note_on channel=0 note=54 velocity=38 time=0
<meta message set_tempo tempo=474308 time=80>
note_on channel=0 note=54 velocity=0 time=40
note_on channel=0 note=65 velocity=42 time=6
<meta message set_tempo tempo=476190 time=74>
note_on channel=0 note=65 velocity=0 time=46
note_on channel=0 note=63 velocity=29 time=0
<meta message set_tempo tempo=478088 time=74>
note_on channel=0 note=68 velocity=37 time=40
note_on channel=0 note=63 velocity=0 time=6
<meta message set_tempo tempo=480000 time=114>
note_on channel=0 note=68 velocity=0 time=0
note_on channel=0 note=54 velocity=37 time=0
<meta message set_tempo tempo=481928 time=120>
note_on channel=0 note=54 velocity=0 time=0
note_on channel=0 note=65 velocity=40 time=0
note_on channel=0 note=65 velocity=0 time=120
note_on channel=0 note=63 velocity=27 time=0
<meta message set_tempo tempo=483871 time=40>
note_on channel=0 note=63 velocity=0 time=80
note_on channel=0 note=68 velocity=35 time=0
<meta message set_tempo tempo=485830 time=40>
note_on channel=0 note=68 velocity=0 time=80
note_on channel=0 note=54 velocity=38 time=0
<meta message set_tempo tempo=487805 time=40>
<meta message set_tempo tempo=869565 time=80>
note_on channel=0 note=54 velocity=0 time=0
note_on channel=0 note=44 velocity=0 time=0
note_on channel=0 note=32 velocity=0 time=0
note_on channel=0 note=37 velocity=33 time=0
control_change channel=0 control=64 value=0 time=6
<meta message set_tempo tempo=1090909 time=34>
control_change channel=0 control=64 value=127 time=16
note_on channel=0 note=44 velocity=36 time=4
<meta message set_tempo tempo=1052632 time=20>
<meta message set_tempo tempo=1016949 time=40>
note_on channel=0 note=54 velocity=38 time=0
<meta message set_tempo tempo=983607 time=40>
note_on channel=0 note=56 velocity=40 time=20
<meta message set_tempo tempo=944882 time=20>
<meta message set_tempo tempo=916031 time=40>
note_on channel=0 note=60 velocity=43 time=0
<meta message set_tempo tempo=888889 time=40>
<meta message set_tempo tempo=857143 time=40>
<meta message set_tempo tempo=560748 time=40>
note_on channel=0 note=63 velocity=48 time=0
<meta message set_tempo tempo=2264151 time=1560>
note_on channel=0 note=63 velocity=0 time=0
note_on channel=0 note=44 velocity=0 time=0
note_on channel=0 note=37 velocity=0 time=0
note_on channel=0 note=54 velocity=0 time=0
note_on channel=0 note=60 velocity=0 time=0
note_on channel=0 note=37 velocity=31 time=0
control_change channel=0 control=64 value=0 time=6
<meta message set_tempo tempo=2181818 time=34>
control_change channel=0 control=64 value=127 time=20
note_on channel=0 note=44 velocity=37 time=0
<meta message set_tempo tempo=2105263 time=20>
<meta message set_tempo tempo=2000000 time=40>
note_on channel=0 note=53 velocity=35 time=0
<meta message set_tempo tempo=1935484 time=40>
note_on channel=0 note=61 velocity=42 time=20
<meta message set_tempo tempo=1875000 time=20>
<meta message set_tempo tempo=1791045 time=40>
<meta message set_tempo tempo=750000 time=240>
<meta message set_tempo tempo=600000 time=480>
note_on channel=0 note=61 velocity=0 time=960
note_on channel=0 note=44 velocity=0 time=0
note_on channel=0 note=56 velocity=0 time=0
note_on channel=0 note=37 velocity=0 time=0
note_on channel=0 note=53 velocity=0 time=0
control_change channel=0 control=64 value=0 time=3227
<meta message end_of_track time=0>
