<meta message track_name name='Chopin Ballade in G minor Opus 32' time=0>
<meta message copyright text='Copyright © 2003 by Bernd Krueger ' time=0>
<meta message text text='Frederic Chopin' time=0>
<meta message text text='Largo - Moderato' time=0>
<meta message text text='Fertiggestellt am 27.4.2003\n' time=0>
<meta message text text='Überarbeitet am 19.6.2003\n' time=0>
<meta message text text='Überarbeitet am 31.10.2010\n' time=0>
<meta message text text='Update am 15.2.2014\n' time=0>
<meta message text text='Dauer: 9:02 Minuten\n' time=0>
<meta message smpte_offset frame_rate=25 hours=32 minutes=0 seconds=3 frames=0 sub_frames=0 time=0>
<meta message time_signature numerator=4 denominator=4 clocks_per_click=24 notated_32nd_notes_per_beat=8 time=0>
<meta message key_signature key='Bb' time=0>
<meta message set_tempo tempo=869187 time=0>
<meta message marker text='Largo' time=0>
program_change channel=0 program=0 time=0
control_change channel=0 control=7 value=100 time=0
control_change channel=0 control=10 value=64 time=0
control_change channel=0 control=91 value=127 time=0
program_change channel=0 program=0 time=0
control_change channel=0 control=7 value=100 time=0
control_change channel=0 control=10 value=64 time=0
control_change channel=0 control=64 value=0 time=0
note_on channel=0 note=48 velocity=90 time=1
note_on channel=0 note=36 velocity=74 time=0
<meta message set_tempo tempo=815883 time=1199>
note_on channel=0 note=36 velocity=0 time=0
note_on channel=0 note=48 velocity=0 time=0
note_on channel=0 note=51 velocity=79 time=0
note_on channel=0 note=39 velocity=66 time=0
<meta message set_tempo tempo=779221 time=240>
note_on channel=0 note=39 velocity=0 time=0
note_on channel=0 note=51 velocity=0 time=0
note_on channel=0 note=56 velocity=83 time=0
note_on channel=0 note=44 velocity=70 time=0
<meta message set_tempo tempo=810811 time=240>
note_on channel=0 note=44 velocity=0 time=0
note_on channel=0 note=56 velocity=0 time=0
note_on channel=0 note=58 velocity=76 time=0
note_on channel=0 note=46 velocity=64 time=0
<meta message set_tempo tempo=774194 time=240>
note_on channel=0 note=46 velocity=0 time=0
note_on channel=0 note=58 velocity=0 time=0
note_on channel=0 note=60 velocity=83 time=0
note_on channel=0 note=48 velocity=70 time=0
<meta message set_tempo tempo=784314 time=240>
note_on channel=0 note=48 velocity=0 time=0
note_on channel=0 note=60 velocity=0 time=0
note_on channel=0 note=56 velocity=75 time=0
note_on channel=0 note=44 velocity=63 time=0
<meta message set_tempo tempo=779221 time=160>
<meta message set_tempo tempo=764331 time=80>
note_on channel=0 note=44 velocity=0 time=0
note_on channel=0 note=56 velocity=0 time=0
note_on channel=0 note=63 velocity=76 time=0
note_on channel=0 note=51 velocity=63 time=0
<meta message set_tempo tempo=769231 time=240>
note_on channel=0 note=51 velocity=0 time=0
note_on channel=0 note=63 velocity=0 time=0
note_on channel=0 note=70 velocity=72 time=0
note_on channel=0 note=58 velocity=55 time=0
<meta message set_tempo tempo=784314 time=240>
note_on channel=0 note=58 velocity=0 time=0
note_on channel=0 note=70 velocity=0 time=0
note_on channel=0 note=72 velocity=73 time=0
note_on channel=0 note=60 velocity=58 time=0
<meta message set_tempo tempo=800000 time=240>
note_on channel=0 note=60 velocity=0 time=0
note_on channel=0 note=72 velocity=0 time=0
note_on channel=0 note=68 velocity=68 time=0
note_on channel=0 note=56 velocity=54 time=0
<meta message set_tempo tempo=794702 time=240>
note_on channel=0 note=56 velocity=0 time=0
note_on channel=0 note=68 velocity=0 time=0
note_on channel=0 note=75 velocity=76 time=0
note_on channel=0 note=63 velocity=62 time=0
<meta message set_tempo tempo=791661 time=240>
note_on channel=0 note=63 velocity=0 time=0
note_on channel=0 note=75 velocity=0 time=0
note_on channel=0 note=82 velocity=68 time=0
note_on channel=0 note=70 velocity=54 time=0
<meta message set_tempo tempo=774194 time=40>
<meta message set_tempo tempo=831255 time=200>
note_on channel=0 note=70 velocity=0 time=0
note_on channel=0 note=82 velocity=0 time=0
note_on channel=0 note=84 velocity=69 time=0
note_on channel=0 note=72 velocity=57 time=0
<meta message set_tempo tempo=869565 time=240>
note_on channel=0 note=72 velocity=0 time=0
note_on channel=0 note=84 velocity=0 time=0
note_on channel=0 note=79 velocity=58 time=0
note_on channel=0 note=67 velocity=48 time=0
<meta message set_tempo tempo=882353 time=240>
note_on channel=0 note=67 velocity=0 time=0
note_on channel=0 note=79 velocity=0 time=0
note_on channel=0 note=82 velocity=59 time=0
note_on channel=0 note=70 velocity=53 time=0
<meta message set_tempo tempo=1016949 time=240>
note_on channel=0 note=70 velocity=0 time=0
note_on channel=0 note=82 velocity=0 time=0
note_on channel=0 note=80 velocity=53 time=0
note_on channel=0 note=68 velocity=35 time=0
<meta message set_tempo tempo=1111111 time=200>
note_on channel=0 note=68 velocity=0 time=40
note_on channel=0 note=80 velocity=0 time=0
note_on channel=0 note=79 velocity=49 time=0
note_on channel=0 note=67 velocity=32 time=0
<meta message set_tempo tempo=1142857 time=480>
note_on channel=0 note=67 velocity=0 time=0
note_on channel=0 note=79 velocity=0 time=0
note_on channel=0 note=78 velocity=44 time=0
note_on channel=0 note=66 velocity=27 time=0
note_on channel=0 note=66 velocity=0 time=240
note_on channel=0 note=78 velocity=0 time=0
<meta message set_tempo tempo=875018 time=480>
note_on channel=0 note=78 velocity=40 time=0
note_on channel=0 note=66 velocity=34 time=0
<meta message set_tempo tempo=841751 time=240>
note_on channel=0 note=66 velocity=0 time=0
note_on channel=0 note=78 velocity=0 time=0
note_on channel=0 note=79 velocity=44 time=0
note_on channel=0 note=67 velocity=37 time=0
<meta message set_tempo tempo=810811 time=240>
note_on channel=0 note=67 velocity=0 time=0
note_on channel=0 note=79 velocity=0 time=0
note_on channel=0 note=78 velocity=41 time=0
note_on channel=0 note=66 velocity=34 time=0
<meta message set_tempo tempo=839161 time=240>
note_on channel=0 note=66 velocity=0 time=0
note_on channel=0 note=78 velocity=0 time=0
note_on channel=0 note=77 velocity=44 time=0
note_on channel=0 note=65 velocity=37 time=0
<meta message set_tempo tempo=909091 time=200>
note_on channel=0 note=65 velocity=0 time=40
note_on channel=0 note=77 velocity=0 time=0
note_on channel=0 note=78 velocity=41 time=0
note_on channel=0 note=66 velocity=34 time=0
<meta message set_tempo tempo=983607 time=80>
<meta message set_tempo tempo=895522 time=160>
note_on channel=0 note=66 velocity=0 time=0
note_on channel=0 note=78 velocity=0 time=0
note_on channel=0 note=81 velocity=45 time=0
note_on channel=0 note=69 velocity=38 time=0
<meta message set_tempo tempo=937500 time=160>
note_on channel=0 note=69 velocity=0 time=0
note_on channel=0 note=81 velocity=0 time=0
note_on channel=0 note=79 velocity=41 time=0
note_on channel=0 note=67 velocity=34 time=0
note_on channel=0 note=67 velocity=0 time=160
note_on channel=0 note=79 velocity=0 time=0
note_on channel=0 note=75 velocity=44 time=0
note_on channel=0 note=63 velocity=37 time=0
<meta message set_tempo tempo=991736 time=160>
note_on channel=0 note=63 velocity=0 time=0
note_on channel=0 note=75 velocity=0 time=0
note_on channel=0 note=75 velocity=43 time=0
note_on channel=0 note=63 velocity=36 time=0
<meta message set_tempo tempo=991736 time=240>
<meta message set_tempo tempo=1081081 time=80>
note_on channel=0 note=63 velocity=0 time=40
note_on channel=0 note=75 velocity=0 time=0
note_on channel=0 note=74 velocity=39 time=0
note_on channel=0 note=62 velocity=33 time=0
<meta message set_tempo tempo=1061947 time=120>
note_on channel=0 note=62 velocity=0 time=0
note_on channel=0 note=74 velocity=0 time=0
note_on channel=0 note=77 velocity=40 time=0
note_on channel=0 note=65 velocity=34 time=0
<meta message set_tempo tempo=1165049 time=160>
note_on channel=0 note=65 velocity=0 time=0
note_on channel=0 note=77 velocity=0 time=0
note_on channel=0 note=75 velocity=39 time=0
note_on channel=0 note=63 velocity=33 time=0
<meta message set_tempo tempo=1333333 time=160>
note_on channel=0 note=63 velocity=0 time=0
note_on channel=0 note=75 velocity=0 time=0
note_on channel=0 note=74 velocity=33 time=0
note_on channel=0 note=62 velocity=26 time=0
note_on channel=0 note=62 velocity=0 time=144
note_on channel=0 note=74 velocity=0 time=0
<meta message set_tempo tempo=1023018 time=16>
note_on channel=0 note=74 velocity=31 time=0
note_on channel=0 note=62 velocity=24 time=0
note_on channel=0 note=62 velocity=0 time=480
note_on channel=0 note=74 velocity=0 time=0
note_on channel=0 note=72 velocity=43 time=1440
note_on channel=0 note=55 velocity=42 time=0
note_on channel=0 note=51 velocity=42 time=0
note_on channel=0 note=60 velocity=42 time=0
<meta message set_tempo tempo=826105 time=720>
note_on channel=0 note=72 velocity=0 time=0
note_on channel=0 note=67 velocity=46 time=0
<meta message set_tempo tempo=711153 time=240>
note_on channel=0 note=67 velocity=0 time=0
note_on channel=0 note=60 velocity=0 time=0
note_on channel=0 note=51 velocity=0 time=0
note_on channel=0 note=55 velocity=0 time=0
note_on channel=0 note=50 velocity=44 time=0
<meta message set_tempo tempo=714286 time=20>
<meta message set_tempo tempo=722892 time=20>
<meta message set_tempo tempo=736196 time=20>
<meta message set_tempo tempo=750000 time=20>
note_on channel=0 note=55 velocity=48 time=40
<meta message set_tempo tempo=1043478 time=60>
note_on channel=0 note=70 velocity=62 time=60
note_on channel=0 note=63 velocity=56 time=0
<meta message set_tempo tempo=852515 time=40>
<meta message set_tempo tempo=880799 time=40>
<meta message set_tempo tempo=983607 time=80>
<meta message set_tempo tempo=819672 time=560>
<meta message time_signature numerator=6 denominator=4 clocks_per_click=24 notated_32nd_notes_per_beat=8 time=960>
<meta message set_tempo tempo=738825 time=0>
<meta message marker text='Moderato' time=0>
note_on channel=0 note=63 velocity=0 time=0
note_on channel=0 note=50 velocity=0 time=0
note_on channel=0 note=55 velocity=0 time=0
control_change channel=0 control=64 value=127 time=1417
<meta message set_tempo tempo=666667 time=23>
note_on channel=0 note=38 velocity=46 time=0
note_on channel=0 note=38 velocity=0 time=240
note_on channel=0 note=60 velocity=48 time=0
<meta message set_tempo tempo=588235 time=240>
note_on channel=0 note=62 velocity=44 time=0
note_on channel=0 note=70 velocity=0 time=240
note_on channel=0 note=66 velocity=44 time=0
<meta message set_tempo tempo=560748 time=240>
note_on channel=0 note=66 velocity=0 time=0
note_on channel=0 note=70 velocity=49 time=0
note_on channel=0 note=70 velocity=0 time=240
note_on channel=0 note=69 velocity=47 time=0
<meta message set_tempo tempo=535714 time=240>
note_on channel=0 note=69 velocity=0 time=0
note_on channel=0 note=62 velocity=0 time=0
note_on channel=0 note=60 velocity=0 time=0
note_on channel=0 note=67 velocity=44 time=0
control_change channel=0 control=64 value=0 time=7
<meta message set_tempo tempo=521739 time=473>
note_on channel=0 note=58 velocity=28 time=0
note_on channel=0 note=62 velocity=33 time=0
note_on channel=0 note=43 velocity=27 time=0
note_on channel=0 note=43 velocity=0 time=475
note_on channel=0 note=62 velocity=0 time=0
note_on channel=0 note=58 velocity=0 time=0
<meta message set_tempo tempo=558140 time=5>
note_on channel=0 note=58 velocity=28 time=0
note_on channel=0 note=62 velocity=33 time=0
note_on channel=0 note=43 velocity=27 time=0
note_on channel=0 note=43 velocity=0 time=475
note_on channel=0 note=62 velocity=0 time=0
note_on channel=0 note=58 velocity=0 time=0
<meta message set_tempo tempo=526316 time=5>
note_on channel=0 note=67 velocity=0 time=0
note_on channel=0 note=74 velocity=47 time=0
<meta message set_tempo tempo=530973 time=480>
note_on channel=0 note=62 velocity=28 time=0
note_on channel=0 note=67 velocity=33 time=0
note_on channel=0 note=58 velocity=25 time=0
note_on channel=0 note=58 velocity=0 time=475
note_on channel=0 note=67 velocity=0 time=0
note_on channel=0 note=62 velocity=0 time=0
<meta message set_tempo tempo=528634 time=5>
note_on channel=0 note=62 velocity=28 time=0
note_on channel=0 note=67 velocity=33 time=0
note_on channel=0 note=58 velocity=25 time=0
note_on channel=0 note=58 velocity=0 time=475
note_on channel=0 note=67 velocity=0 time=0
note_on channel=0 note=62 velocity=0 time=0
<meta message set_tempo tempo=550459 time=5>
note_on channel=0 note=74 velocity=0 time=0
note_on channel=0 note=72 velocity=47 time=0
<meta message set_tempo tempo=528634 time=480>
note_on channel=0 note=60 velocity=22 time=0
note_on channel=0 note=63 velocity=23 time=0
note_on channel=0 note=67 velocity=28 time=0
note_on channel=0 note=57 velocity=22 time=0
note_on channel=0 note=57 velocity=0 time=475
note_on channel=0 note=63 velocity=0 time=0
note_on channel=0 note=67 velocity=0 time=0
note_on channel=0 note=60 velocity=0 time=0
note_on channel=0 note=60 velocity=22 time=5
note_on channel=0 note=63 velocity=23 time=0
note_on channel=0 note=67 velocity=28 time=0
note_on channel=0 note=57 velocity=22 time=0
note_on channel=0 note=57 velocity=0 time=475
note_on channel=0 note=63 velocity=0 time=0
note_on channel=0 note=67 velocity=0 time=0
note_on channel=0 note=60 velocity=0 time=0
<meta message set_tempo tempo=579710 time=5>
note_on channel=0 note=72 velocity=0 time=0
note_on channel=0 note=60 velocity=48 time=240
control_change channel=0 control=64 value=127 time=46
<meta message set_tempo tempo=568720 time=194>
note_on channel=0 note=62 velocity=44 time=0
note_on channel=0 note=38 velocity=46 time=0
note_on channel=0 note=38 velocity=0 time=240
note_on channel=0 note=66 velocity=44 time=0
<meta message set_tempo tempo=560748 time=240>
note_on channel=0 note=66 velocity=0 time=0
note_on channel=0 note=70 velocity=49 time=0
note_on channel=0 note=38 velocity=46 time=0
note_on channel=0 note=38 velocity=0 time=240
note_on channel=0 note=70 velocity=0 time=0
note_on channel=0 note=69 velocity=47 time=0
<meta message set_tempo tempo=528634 time=240>
note_on channel=0 note=69 velocity=0 time=0
note_on channel=0 note=62 velocity=0 time=0
note_on channel=0 note=60 velocity=0 time=0
note_on channel=0 note=67 velocity=44 time=0
control_change channel=0 control=64 value=0 time=8
<meta message set_tempo tempo=517241 time=472>
note_on channel=0 note=58 velocity=28 time=0
note_on channel=0 note=62 velocity=33 time=0
note_on channel=0 note=43 velocity=27 time=0
note_on channel=0 note=43 velocity=0 time=475
note_on channel=0 note=62 velocity=0 time=0
note_on channel=0 note=58 velocity=0 time=0
<meta message set_tempo tempo=558140 time=5>
note_on channel=0 note=58 velocity=28 time=0
note_on channel=0 note=62 velocity=33 time=0
note_on channel=0 note=43 velocity=27 time=0
note_on channel=0 note=43 velocity=0 time=475
note_on channel=0 note=62 velocity=0 time=0
note_on channel=0 note=58 velocity=0 time=0
<meta message set_tempo tempo=530973 time=5>
note_on channel=0 note=67 velocity=0 time=0
note_on channel=0 note=64 velocity=44 time=0
<meta message set_tempo tempo=545455 time=480>
note_on channel=0 note=57 velocity=28 time=0
note_on channel=0 note=55 velocity=28 time=0
note_on channel=0 note=61 velocity=33 time=0
note_on channel=0 note=45 velocity=25 time=0
<meta message set_tempo tempo=533333 time=40>
note_on channel=0 note=45 velocity=0 time=435
note_on channel=0 note=55 velocity=0 time=0
note_on channel=0 note=61 velocity=0 time=0
note_on channel=0 note=57 velocity=0 time=0
<meta message set_tempo tempo=558140 time=5>
note_on channel=0 note=57 velocity=28 time=0
note_on channel=0 note=55 velocity=28 time=0
note_on channel=0 note=61 velocity=33 time=0
note_on channel=0 note=45 velocity=25 time=0
note_on channel=0 note=45 velocity=0 time=475
note_on channel=0 note=55 velocity=0 time=0
note_on channel=0 note=61 velocity=0 time=0
note_on channel=0 note=57 velocity=0 time=0
<meta message set_tempo tempo=574163 time=5>
note_on channel=0 note=64 velocity=0 time=0
note_on channel=0 note=66 velocity=44 time=0
<meta message set_tempo tempo=545455 time=480>
note_on channel=0 note=54 velocity=20 time=0
note_on channel=0 note=57 velocity=23 time=0
note_on channel=0 note=62 velocity=28 time=0
note_on channel=0 note=38 velocity=19 time=0
<meta message set_tempo tempo=558140 time=40>
note_on channel=0 note=38 velocity=0 time=435
note_on channel=0 note=57 velocity=0 time=0
note_on channel=0 note=62 velocity=0 time=0
note_on channel=0 note=54 velocity=0 time=0
note_on channel=0 note=54 velocity=20 time=5
note_on channel=0 note=57 velocity=23 time=0
note_on channel=0 note=62 velocity=28 time=0
note_on channel=0 note=38 velocity=19 time=0
note_on channel=0 note=38 velocity=0 time=475
note_on channel=0 note=57 velocity=0 time=0
note_on channel=0 note=62 velocity=0 time=0
note_on channel=0 note=54 velocity=0 time=0
<meta message set_tempo tempo=579710 time=5>
note_on channel=0 note=66 velocity=0 time=0
note_on channel=0 note=60 velocity=48 time=240
control_change channel=0 control=64 value=127 time=120
<meta message set_tempo tempo=568720 time=120>
note_on channel=0 note=62 velocity=44 time=0
note_on channel=0 note=50 velocity=46 time=0
note_on channel=0 note=66 velocity=44 time=240
note_on channel=0 note=50 velocity=0 time=235
<meta message set_tempo tempo=560748 time=5>
note_on channel=0 note=66 velocity=0 time=0
note_on channel=0 note=70 velocity=49 time=0
note_on channel=0 note=50 velocity=46 time=0
note_on channel=0 note=70 velocity=0 time=240
note_on channel=0 note=69 velocity=47 time=0
note_on channel=0 note=50 velocity=0 time=235
<meta message set_tempo tempo=545455 time=5>
note_on channel=0 note=60 velocity=0 time=0
note_on channel=0 note=62 velocity=0 time=0
note_on channel=0 note=69 velocity=0 time=0
note_on channel=0 note=67 velocity=44 time=0
control_change channel=0 control=64 value=0 time=5
<meta message set_tempo tempo=526316 time=475>
note_on channel=0 note=58 velocity=28 time=0
note_on channel=0 note=62 velocity=33 time=0
note_on channel=0 note=43 velocity=27 time=0
note_on channel=0 note=43 velocity=0 time=475
note_on channel=0 note=62 velocity=0 time=0
note_on channel=0 note=58 velocity=0 time=0
<meta message set_tempo tempo=558140 time=5>
note_on channel=0 note=58 velocity=28 time=0
note_on channel=0 note=62 velocity=33 time=0
note_on channel=0 note=43 velocity=27 time=0
note_on channel=0 note=43 velocity=0 time=475
note_on channel=0 note=62 velocity=0 time=0
note_on channel=0 note=58 velocity=0 time=0
<meta message set_tempo tempo=530973 time=5>
note_on channel=0 note=67 velocity=0 time=0
note_on channel=0 note=79 velocity=53 time=0
<meta message set_tempo tempo=501379 time=480>
note_on channel=0 note=70 velocity=28 time=0
note_on channel=0 note=67 velocity=28 time=0
note_on channel=0 note=73 velocity=33 time=0
note_on channel=0 note=64 velocity=25 time=0
note_on channel=0 note=64 velocity=0 time=475
note_on channel=0 note=67 velocity=0 time=0
note_on channel=0 note=73 velocity=0 time=0
note_on channel=0 note=70 velocity=0 time=0
<meta message set_tempo tempo=542986 time=5>
note_on channel=0 note=70 velocity=28 time=0
note_on channel=0 note=67 velocity=28 time=0
note_on channel=0 note=73 velocity=33 time=0
note_on channel=0 note=64 velocity=25 time=0
note_on channel=0 note=64 velocity=0 time=475
note_on channel=0 note=67 velocity=0 time=0
note_on channel=0 note=73 velocity=0 time=0
note_on channel=0 note=70 velocity=0 time=0
<meta message set_tempo tempo=528634 time=5>
note_on channel=0 note=79 velocity=0 time=0
note_on channel=0 note=77 velocity=50 time=0
<meta message set_tempo tempo=506800 time=480>
note_on channel=0 note=70 velocity=29 time=0
note_on channel=0 note=72 velocity=34 time=0
note_on channel=0 note=65 velocity=28 time=0
<meta message set_tempo tempo=504075 time=120>
note_on channel=0 note=65 velocity=0 time=355
note_on channel=0 note=72 velocity=0 time=0
note_on channel=0 note=70 velocity=0 time=0
<meta message set_tempo tempo=520879 time=5>
note_on channel=0 note=70 velocity=29 time=0
note_on channel=0 note=72 velocity=35 time=0
note_on channel=0 note=65 velocity=28 time=0
note_on channel=0 note=65 velocity=0 time=475
note_on channel=0 note=72 velocity=0 time=0
note_on channel=0 note=70 velocity=0 time=0
<meta message set_tempo tempo=579710 time=5>
note_on channel=0 note=77 velocity=0 time=0
note_on channel=0 note=63 velocity=48 time=0
control_change channel=0 control=64 value=127 time=180
note_on channel=0 note=65 velocity=48 time=60
<meta message set_tempo tempo=568720 time=240>
note_on channel=0 note=65 velocity=0 time=0
note_on channel=0 note=69 velocity=44 time=0
note_on channel=0 note=41 velocity=46 time=0
note_on channel=0 note=75 velocity=46 time=240
note_on channel=0 note=41 velocity=0 time=235
<meta message set_tempo tempo=560748 time=5>
note_on channel=0 note=75 velocity=0 time=0
note_on channel=0 note=74 velocity=51 time=0
note_on channel=0 note=41 velocity=46 time=0
note_on channel=0 note=74 velocity=0 time=240
note_on channel=0 note=73 velocity=49 time=120
control_change channel=0 control=64 value=0 time=5
note_on channel=0 note=73 velocity=0 time=105
note_on channel=0 note=41 velocity=0 time=5
<meta message set_tempo tempo=545455 time=5>
note_on channel=0 note=69 velocity=0 time=0
note_on channel=0 note=63 velocity=0 time=0
note_on channel=0 note=73 velocity=46 time=0
<meta message set_tempo tempo=515154 time=480>
note_on channel=0 note=63 velocity=20 time=0
note_on channel=0 note=65 velocity=23 time=0
note_on channel=0 note=69 velocity=28 time=0
note_on channel=0 note=46 velocity=19 time=0
note_on channel=0 note=46 velocity=0 time=475
note_on channel=0 note=65 velocity=0 time=0
note_on channel=0 note=69 velocity=0 time=0
note_on channel=0 note=63 velocity=0 time=0
<meta message set_tempo tempo=558140 time=5>
note_on channel=0 note=63 velocity=20 time=0
note_on channel=0 note=65 velocity=23 time=0
note_on channel=0 note=69 velocity=28 time=0
note_on channel=0 note=46 velocity=19 time=0
note_on channel=0 note=46 velocity=0 time=475
note_on channel=0 note=65 velocity=0 time=0
note_on channel=0 note=69 velocity=0 time=0
note_on channel=0 note=63 velocity=0 time=0
<meta message set_tempo tempo=545455 time=5>
note_on channel=0 note=73 velocity=0 time=0
note_on channel=0 note=74 velocity=46 time=0
<meta message set_tempo tempo=519481 time=480>
note_on channel=0 note=65 velocity=23 time=0
note_on channel=0 note=62 velocity=19 time=0
note_on channel=0 note=70 velocity=28 time=0
note_on channel=0 note=58 velocity=21 time=0
note_on channel=0 note=58 velocity=0 time=475
note_on channel=0 note=62 velocity=0 time=0
note_on channel=0 note=70 velocity=0 time=0
note_on channel=0 note=65 velocity=0 time=0
<meta message set_tempo tempo=545455 time=5>
note_on channel=0 note=65 velocity=23 time=0
note_on channel=0 note=62 velocity=18 time=0
note_on channel=0 note=70 velocity=28 time=0
note_on channel=0 note=58 velocity=21 time=0
note_on channel=0 note=58 velocity=0 time=475
note_on channel=0 note=62 velocity=0 time=0
note_on channel=0 note=70 velocity=0 time=0
note_on channel=0 note=65 velocity=0 time=0
<meta message set_tempo tempo=558140 time=5>
note_on channel=0 note=74 velocity=0 time=0
note_on channel=0 note=72 velocity=47 time=0
<meta message set_tempo tempo=545455 time=480>
note_on channel=0 note=63 velocity=28 time=0
note_on channel=0 note=67 velocity=33 time=0
note_on channel=0 note=57 velocity=27 time=0
note_on channel=0 note=57 velocity=0 time=475
note_on channel=0 note=67 velocity=0 time=0
note_on channel=0 note=63 velocity=0 time=0
note_on channel=0 note=63 velocity=28 time=5
note_on channel=0 note=67 velocity=34 time=0
note_on channel=0 note=57 velocity=27 time=0
note_on channel=0 note=57 velocity=0 time=475
note_on channel=0 note=67 velocity=0 time=0
note_on channel=0 note=63 velocity=0 time=0
<meta message set_tempo tempo=579710 time=5>
note_on channel=0 note=72 velocity=0 time=0
note_on channel=0 note=60 velocity=48 time=240
control_change channel=0 control=64 value=127 time=80
<meta message set_tempo tempo=568720 time=160>
note_on channel=0 note=62 velocity=44 time=0
note_on channel=0 note=38 velocity=46 time=0
note_on channel=0 note=66 velocity=44 time=240
note_on channel=0 note=38 velocity=0 time=235
<meta message set_tempo tempo=560748 time=5>
note_on channel=0 note=66 velocity=0 time=0
note_on channel=0 note=70 velocity=49 time=0
note_on channel=0 note=38 velocity=46 time=0
note_on channel=0 note=70 velocity=0 time=240
note_on channel=0 note=69 velocity=47 time=0
note_on channel=0 note=38 velocity=0 time=235
<meta message set_tempo tempo=545455 time=5>
note_on channel=0 note=60 velocity=0 time=0
note_on channel=0 note=62 velocity=0 time=0
note_on channel=0 note=69 velocity=0 time=0
note_on channel=0 note=67 velocity=44 time=0
control_change channel=0 control=64 value=0 time=8
<meta message set_tempo tempo=517241 time=472>
note_on channel=0 note=58 velocity=28 time=0
note_on channel=0 note=62 velocity=33 time=0
note_on channel=0 note=43 velocity=27 time=0
note_on channel=0 note=43 velocity=0 time=475
note_on channel=0 note=62 velocity=0 time=0
note_on channel=0 note=58 velocity=0 time=0
<meta message set_tempo tempo=558140 time=5>
note_on channel=0 note=58 velocity=28 time=0
note_on channel=0 note=62 velocity=33 time=0
note_on channel=0 note=43 velocity=27 time=0
note_on channel=0 note=43 velocity=0 time=475
note_on channel=0 note=62 velocity=0 time=0
note_on channel=0 note=58 velocity=0 time=0
<meta message set_tempo tempo=545455 time=5>
note_on channel=0 note=67 velocity=0 time=0
note_on channel=0 note=74 velocity=47 time=0
<meta message set_tempo tempo=515021 time=480>
note_on channel=0 note=62 velocity=28 time=0
note_on channel=0 note=67 velocity=33 time=0
note_on channel=0 note=58 velocity=25 time=0
note_on channel=0 note=58 velocity=0 time=475
note_on channel=0 note=67 velocity=0 time=0
note_on channel=0 note=62 velocity=0 time=0
<meta message set_tempo tempo=545455 time=5>
note_on channel=0 note=62 velocity=28 time=0
note_on channel=0 note=67 velocity=33 time=0
note_on channel=0 note=58 velocity=25 time=0
note_on channel=0 note=58 velocity=0 time=475
note_on channel=0 note=67 velocity=0 time=0
note_on channel=0 note=62 velocity=0 time=0
<meta message set_tempo tempo=550459 time=5>
note_on channel=0 note=74 velocity=0 time=0
note_on channel=0 note=72 velocity=47 time=0
<meta message set_tempo tempo=528634 time=480>
note_on channel=0 note=60 velocity=23 time=0
note_on channel=0 note=63 velocity=23 time=0
note_on channel=0 note=67 velocity=28 time=0
note_on channel=0 note=57 velocity=22 time=0
note_on channel=0 note=57 velocity=0 time=475
note_on channel=0 note=63 velocity=0 time=0
note_on channel=0 note=67 velocity=0 time=0
note_on channel=0 note=60 velocity=0 time=0
<meta message set_tempo tempo=542986 time=5>
note_on channel=0 note=60 velocity=23 time=0
note_on channel=0 note=63 velocity=23 time=0
note_on channel=0 note=67 velocity=28 time=0
note_on channel=0 note=57 velocity=22 time=0
note_on channel=0 note=57 velocity=0 time=475
note_on channel=0 note=63 velocity=0 time=0
note_on channel=0 note=67 velocity=0 time=0
note_on channel=0 note=60 velocity=0 time=0
<meta message set_tempo tempo=579710 time=5>
note_on channel=0 note=72 velocity=0 time=0
note_on channel=0 note=60 velocity=48 time=240
control_change channel=0 control=64 value=127 time=46
<meta message set_tempo tempo=568720 time=194>
note_on channel=0 note=62 velocity=44 time=0
note_on channel=0 note=38 velocity=46 time=0
note_on channel=0 note=66 velocity=44 time=240
note_on channel=0 note=38 velocity=0 time=235
<meta message set_tempo tempo=560748 time=5>
note_on channel=0 note=66 velocity=0 time=0
note_on channel=0 note=70 velocity=49 time=0
note_on channel=0 note=38 velocity=46 time=0
note_on channel=0 note=70 velocity=0 time=240
note_on channel=0 note=69 velocity=47 time=0
note_on channel=0 note=38 velocity=0 time=235
<meta message set_tempo tempo=533333 time=5>
note_on channel=0 note=60 velocity=0 time=0
note_on channel=0 note=62 velocity=0 time=0
note_on channel=0 note=69 velocity=0 time=0
note_on channel=0 note=67 velocity=44 time=0
control_change channel=0 control=64 value=0 time=5
note_on channel=0 note=58 velocity=28 time=475
note_on channel=0 note=62 velocity=33 time=0
note_on channel=0 note=43 velocity=27 time=0
note_on channel=0 note=43 velocity=0 time=475
note_on channel=0 note=62 velocity=0 time=0
note_on channel=0 note=58 velocity=0 time=0
<meta message set_tempo tempo=558140 time=5>
note_on channel=0 note=58 velocity=28 time=0
note_on channel=0 note=62 velocity=33 time=0
note_on channel=0 note=43 velocity=27 time=0
note_on channel=0 note=43 velocity=0 time=475
note_on channel=0 note=62 velocity=0 time=0
note_on channel=0 note=58 velocity=0 time=0
<meta message set_tempo tempo=545455 time=5>
note_on channel=0 note=67 velocity=0 time=0
note_on channel=0 note=64 velocity=44 time=0
<meta message set_tempo tempo=535714 time=480>
note_on channel=0 note=57 velocity=23 time=0
note_on channel=0 note=55 velocity=23 time=0
note_on channel=0 note=61 velocity=28 time=0
note_on channel=0 note=45 velocity=21 time=0
note_on channel=0 note=45 velocity=0 time=475
note_on channel=0 note=55 velocity=0 time=0
note_on channel=0 note=61 velocity=0 time=0
note_on channel=0 note=57 velocity=0 time=0
<meta message set_tempo tempo=547945 time=5>
note_on channel=0 note=57 velocity=23 time=0
note_on channel=0 note=55 velocity=23 time=0
note_on channel=0 note=61 velocity=28 time=0
note_on channel=0 note=45 velocity=21 time=0
note_on channel=0 note=45 velocity=0 time=475
note_on channel=0 note=55 velocity=0 time=0
note_on channel=0 note=61 velocity=0 time=0
note_on channel=0 note=57 velocity=0 time=0
<meta message set_tempo tempo=558140 time=5>
note_on channel=0 note=64 velocity=0 time=0
note_on channel=0 note=66 velocity=44 time=0
<meta message set_tempo tempo=545455 time=480>
note_on channel=0 note=54 velocity=17 time=0
note_on channel=0 note=57 velocity=19 time=0
note_on channel=0 note=62 velocity=23 time=0
note_on channel=0 note=38 velocity=17 time=0
note_on channel=0 note=38 velocity=0 time=475
note_on channel=0 note=57 velocity=0 time=0
note_on channel=0 note=62 velocity=0 time=0
note_on channel=0 note=54 velocity=0 time=0
note_on channel=0 note=54 velocity=17 time=5
note_on channel=0 note=57 velocity=19 time=0
note_on channel=0 note=62 velocity=23 time=0
note_on channel=0 note=38 velocity=17 time=0
note_on channel=0 note=38 velocity=0 time=475
note_on channel=0 note=57 velocity=0 time=0
note_on channel=0 note=62 velocity=0 time=0
note_on channel=0 note=54 velocity=0 time=0
<meta message set_tempo tempo=579710 time=5>
note_on channel=0 note=66 velocity=0 time=0
note_on channel=0 note=60 velocity=48 time=240
control_change channel=0 control=64 value=127 time=198
<meta message set_tempo tempo=568720 time=42>
note_on channel=0 note=62 velocity=44 time=0
note_on channel=0 note=50 velocity=46 time=0
note_on channel=0 note=66 velocity=44 time=240
note_on channel=0 note=50 velocity=0 time=235
<meta message set_tempo tempo=560748 time=5>
note_on channel=0 note=66 velocity=0 time=0
note_on channel=0 note=70 velocity=49 time=0
note_on channel=0 note=50 velocity=46 time=0
note_on channel=0 note=70 velocity=0 time=240
note_on channel=0 note=69 velocity=47 time=0
note_on channel=0 note=50 velocity=0 time=235
<meta message set_tempo tempo=545455 time=5>
note_on channel=0 note=60 velocity=0 time=0
note_on channel=0 note=62 velocity=0 time=0
note_on channel=0 note=69 velocity=0 time=0
note_on channel=0 note=67 velocity=44 time=0
control_change channel=0 control=64 value=0 time=5
control_change channel=0 control=64 value=127 time=260
<meta message set_tempo tempo=528634 time=215>
note_on channel=0 note=62 velocity=28 time=0
note_on channel=0 note=59 velocity=28 time=0
note_on channel=0 note=65 velocity=33 time=0
note_on channel=0 note=55 velocity=27 time=0
note_on channel=0 note=55 velocity=0 time=475
note_on channel=0 note=59 velocity=0 time=0
note_on channel=0 note=65 velocity=0 time=0
note_on channel=0 note=62 velocity=0 time=0
<meta message set_tempo tempo=558140 time=5>
note_on channel=0 note=62 velocity=28 time=0
note_on channel=0 note=59 velocity=28 time=0
note_on channel=0 note=65 velocity=33 time=0
note_on channel=0 note=55 velocity=27 time=0
note_on channel=0 note=55 velocity=0 time=475
note_on channel=0 note=59 velocity=0 time=0
note_on channel=0 note=65 velocity=0 time=0
note_on channel=0 note=62 velocity=0 time=0
<meta message set_tempo tempo=545455 time=5>
note_on channel=0 note=67 velocity=0 time=0
note_on channel=0 note=79 velocity=58 time=0
control_change channel=0 control=64 value=0 time=15
<meta message set_tempo tempo=501379 time=465>
note_on channel=0 note=65 velocity=28 time=0
note_on channel=0 note=71 velocity=31 time=0
note_on channel=0 note=67 velocity=31 time=0
note_on channel=0 note=74 velocity=36 time=0
note_on channel=0 note=43 velocity=28 time=0
control_change channel=0 control=64 value=127 time=133
note_on channel=0 note=43 velocity=0 time=342
note_on channel=0 note=65 velocity=0 time=0
note_on channel=0 note=71 velocity=0 time=0
note_on channel=0 note=67 velocity=0 time=0
note_on channel=0 note=74 velocity=0 time=0
<meta message set_tempo tempo=524017 time=5>
note_on channel=0 note=65 velocity=32 time=0
note_on channel=0 note=71 velocity=32 time=0
note_on channel=0 note=67 velocity=28 time=0
note_on channel=0 note=74 velocity=37 time=0
note_on channel=0 note=43 velocity=28 time=0
note_on channel=0 note=43 velocity=0 time=475
note_on channel=0 note=65 velocity=0 time=0
note_on channel=0 note=71 velocity=0 time=0
note_on channel=0 note=67 velocity=0 time=0
note_on channel=0 note=74 velocity=0 time=0
<meta message set_tempo tempo=517241 time=5>
note_on channel=0 note=79 velocity=0 time=0
note_on channel=0 note=79 velocity=62 time=0
control_change channel=0 control=64 value=0 time=11
control_change channel=0 control=64 value=127 time=389
<meta message set_tempo tempo=488321 time=80>
note_on channel=0 note=67 velocity=33 time=0
note_on channel=0 note=72 velocity=33 time=0
note_on channel=0 note=75 velocity=39 time=0
note_on channel=0 note=48 velocity=32 time=0
note_on channel=0 note=36 velocity=35 time=0
<meta message set_tempo tempo=488321 time=120>
note_on channel=0 note=36 velocity=0 time=355
note_on channel=0 note=67 velocity=0 time=0
note_on channel=0 note=72 velocity=0 time=0
note_on channel=0 note=75 velocity=0 time=0
<meta message set_tempo tempo=504075 time=5>
note_on channel=0 note=67 velocity=34 time=0
note_on channel=0 note=72 velocity=34 time=0
note_on channel=0 note=75 velocity=40 time=0
note_on channel=0 note=55 velocity=43 time=0
note_on channel=0 note=55 velocity=0 time=475
note_on channel=0 note=72 velocity=0 time=0
note_on channel=0 note=67 velocity=0 time=0
note_on channel=0 note=75 velocity=0 time=0
<meta message set_tempo tempo=508431 time=5>
note_on channel=0 note=48 velocity=0 time=0
note_on channel=0 note=79 velocity=0 time=0
note_on channel=0 note=74 velocity=66 time=0
control_change channel=0 control=64 value=0 time=10
<meta message set_tempo tempo=496073 time=110>
control_change channel=0 control=64 value=127 time=173
<meta message set_tempo tempo=480808 time=67>
<meta message set_tempo tempo=485791 time=120>
note_on channel=0 note=62 velocity=35 time=0
note_on channel=0 note=67 velocity=41 time=0
note_on channel=0 note=50 velocity=31 time=0
note_on channel=0 note=38 velocity=34 time=0
note_on channel=0 note=38 velocity=0 time=475
note_on channel=0 note=67 velocity=0 time=0
note_on channel=0 note=62 velocity=0 time=0
<meta message set_tempo tempo=504075 time=5>
note_on channel=0 note=62 velocity=36 time=0
note_on channel=0 note=67 velocity=42 time=0
note_on channel=0 note=55 velocity=44 time=0
note_on channel=0 note=55 velocity=0 time=475
note_on channel=0 note=62 velocity=0 time=0
note_on channel=0 note=67 velocity=0 time=0
<meta message set_tempo tempo=498712 time=5>
note_on channel=0 note=74 velocity=0 time=0
note_on channel=0 note=50 velocity=0 time=0
note_on channel=0 note=72 velocity=58 time=0
control_change channel=0 control=64 value=0 time=14
<meta message set_tempo tempo=485791 time=466>
note_on channel=0 note=60 velocity=35 time=0
note_on channel=0 note=67 velocity=41 time=0
note_on channel=0 note=51 velocity=33 time=0
note_on channel=0 note=39 velocity=36 time=0
control_change channel=0 control=64 value=127 time=133
note_on channel=0 note=39 velocity=0 time=342
note_on channel=0 note=67 velocity=0 time=0
note_on channel=0 note=60 velocity=0 time=0
<meta message set_tempo tempo=512821 time=5>
note_on channel=0 note=60 velocity=34 time=0
note_on channel=0 note=67 velocity=40 time=0
note_on channel=0 note=55 velocity=43 time=0
<meta message set_tempo tempo=506800 time=120>
note_on channel=0 note=55 velocity=0 time=355
note_on channel=0 note=60 velocity=0 time=0
note_on channel=0 note=67 velocity=0 time=0
<meta message set_tempo tempo=510638 time=5>
note_on channel=0 note=72 velocity=0 time=0
note_on channel=0 note=51 velocity=0 time=0
note_on channel=0 note=67 velocity=62 time=0
control_change channel=0 control=64 value=0 time=10
control_change channel=0 control=64 value=127 time=283
<meta message set_tempo tempo=485791 time=187>
note_on channel=0 note=58 velocity=31 time=0
note_on channel=0 note=62 velocity=37 time=0
note_on channel=0 note=50 velocity=28 time=0
note_on channel=0 note=38 velocity=31 time=0
note_on channel=0 note=38 velocity=0 time=475
note_on channel=0 note=62 velocity=0 time=0
note_on channel=0 note=58 velocity=0 time=0
<meta message set_tempo tempo=501379 time=5>
note_on channel=0 note=58 velocity=30 time=0
note_on channel=0 note=62 velocity=36 time=0
note_on channel=0 note=55 velocity=36 time=0
note_on channel=0 note=55 velocity=0 time=475
note_on channel=0 note=58 velocity=0 time=0
note_on channel=0 note=62 velocity=0 time=0
<meta message set_tempo tempo=483871 time=5>
note_on channel=0 note=67 velocity=0 time=0
note_on channel=0 note=50 velocity=0 time=0
note_on channel=0 note=79 velocity=62 time=0
note_on channel=0 note=47 velocity=52 time=0
control_change channel=0 control=64 value=0 time=0
note_on channel=0 note=47 velocity=0 time=240
note_on channel=0 note=48 velocity=42 time=0
<meta message set_tempo tempo=465152 time=240>
note_on channel=0 note=48 velocity=0 time=0
note_on channel=0 note=67 velocity=33 time=0
note_on channel=0 note=72 velocity=33 time=0
note_on channel=0 note=75 velocity=39 time=0
note_on channel=0 note=50 velocity=42 time=0
control_change channel=0 control=64 value=127 time=92
note_on channel=0 note=50 velocity=0 time=148
note_on channel=0 note=48 velocity=42 time=0
note_on channel=0 note=72 velocity=0 time=235
note_on channel=0 note=75 velocity=0 time=0
note_on channel=0 note=67 velocity=0 time=0
<meta message set_tempo tempo=475210 time=5>
note_on channel=0 note=48 velocity=0 time=0
note_on channel=0 note=67 velocity=34 time=0
note_on channel=0 note=72 velocity=34 time=0
note_on channel=0 note=75 velocity=40 time=0
note_on channel=0 note=55 velocity=51 time=0
control_change channel=0 control=64 value=0 time=11
note_on channel=0 note=75 velocity=0 time=464
note_on channel=0 note=72 velocity=0 time=0
note_on channel=0 note=67 velocity=0 time=0
<meta message set_tempo tempo=485830 time=5>
note_on channel=0 note=79 velocity=0 time=0
note_on channel=0 note=55 velocity=0 time=0
note_on channel=0 note=74 velocity=59 time=0
note_on channel=0 note=49 velocity=53 time=0
note_on channel=0 note=49 velocity=0 time=240
note_on channel=0 note=50 velocity=43 time=0
<meta message set_tempo tempo=463249 time=240>
note_on channel=0 note=50 velocity=0 time=0
note_on channel=0 note=62 velocity=35 time=0
note_on channel=0 note=67 velocity=41 time=0
note_on channel=0 note=51 velocity=47 time=0
control_change channel=0 control=64 value=127 time=85
note_on channel=0 note=51 velocity=0 time=155
note_on channel=0 note=50 velocity=42 time=0
<meta message set_tempo tempo=481541 time=200>
note_on channel=0 note=67 velocity=0 time=35
note_on channel=0 note=62 velocity=0 time=0
<meta message set_tempo tempo=477327 time=5>
note_on channel=0 note=50 velocity=0 time=0
note_on channel=0 note=62 velocity=36 time=0
note_on channel=0 note=67 velocity=42 time=0
note_on channel=0 note=55 velocity=52 time=0
control_change channel=0 control=64 value=0 time=11
note_on channel=0 note=67 velocity=0 time=464
note_on channel=0 note=62 velocity=0 time=0
<meta message set_tempo tempo=466454 time=5>
note_on channel=0 note=74 velocity=0 time=0
note_on channel=0 note=55 velocity=0 time=0
note_on channel=0 note=72 velocity=64 time=0
note_on channel=0 note=50 velocity=57 time=0
note_on channel=0 note=50 velocity=0 time=240
note_on channel=0 note=51 velocity=48 time=0
<meta message set_tempo tempo=457352 time=240>
note_on channel=0 note=51 velocity=0 time=0
note_on channel=0 note=60 velocity=35 time=0
note_on channel=0 note=67 velocity=41 time=0
note_on channel=0 note=53 velocity=48 time=0
note_on channel=0 note=53 velocity=0 time=240
note_on channel=0 note=51 velocity=48 time=0
note_on channel=0 note=67 velocity=0 time=235
note_on channel=0 note=60 velocity=0 time=0
<meta message set_tempo tempo=510595 time=5>
note_on channel=0 note=51 velocity=0 time=0
note_on channel=0 note=60 velocity=34 time=0
note_on channel=0 note=67 velocity=40 time=0
note_on channel=0 note=55 velocity=54 time=0
note_on channel=0 note=55 velocity=0 time=360
note_on channel=0 note=51 velocity=36 time=0
note_on channel=0 note=51 velocity=0 time=4
note_on channel=0 note=52 velocity=36 time=36
<meta message set_tempo tempo=503609 time=40>
note_on channel=0 note=52 velocity=0 time=0
note_on channel=0 note=53 velocity=35 time=0
note_on channel=0 note=67 velocity=0 time=35
note_on channel=0 note=60 velocity=0 time=0
note_on channel=0 note=72 velocity=0 time=5
note_on channel=0 note=53 velocity=0 time=0
note_on channel=0 note=67 velocity=62 time=0
note_on channel=0 note=52 velocity=35 time=0
control_change channel=0 control=64 value=127 time=15
<meta message set_tempo tempo=501295 time=25>
note_on channel=0 note=52 velocity=0 time=20
note_on channel=0 note=53 velocity=36 time=0
<meta message set_tempo tempo=499002 time=20>
<meta message set_tempo tempo=496771 time=40>
note_on channel=0 note=53 velocity=0 time=0
note_on channel=0 note=52 velocity=36 time=0
<meta message set_tempo tempo=494519 time=40>
note_on channel=0 note=52 velocity=0 time=20
note_on channel=0 note=53 velocity=37 time=0
<meta message set_tempo tempo=492328 time=20>
<meta message set_tempo tempo=490076 time=40>
note_on channel=0 note=53 velocity=0 time=0
note_on channel=0 note=52 velocity=37 time=0
<meta message set_tempo tempo=487924 time=40>
note_on channel=0 note=52 velocity=0 time=20
note_on channel=0 note=53 velocity=38 time=0
<meta message set_tempo tempo=485751 time=20>
<meta message set_tempo tempo=483637 time=40>
note_on channel=0 note=53 velocity=0 time=0
note_on channel=0 note=52 velocity=38 time=0
<meta message set_tempo tempo=481541 time=40>
note_on channel=0 note=52 velocity=0 time=20
note_on channel=0 note=53 velocity=39 time=0
<meta message set_tempo tempo=479386 time=20>
note_on channel=0 note=53 velocity=0 time=40
note_on channel=0 note=58 velocity=31 time=0
note_on channel=0 note=61 velocity=37 time=0
note_on channel=0 note=52 velocity=39 time=0
note_on channel=0 note=52 velocity=0 time=60
note_on channel=0 note=53 velocity=39 time=0
note_on channel=0 note=53 velocity=0 time=60
note_on channel=0 note=52 velocity=40 time=0
<meta message set_tempo tempo=479386 time=40>
note_on channel=0 note=52 velocity=0 time=20
note_on channel=0 note=53 velocity=40 time=0
note_on channel=0 note=53 velocity=0 time=60
note_on channel=0 note=52 velocity=42 time=0
<meta message set_tempo tempo=481541 time=40>
note_on channel=0 note=52 velocity=0 time=20
note_on channel=0 note=53 velocity=42 time=0
<meta message set_tempo tempo=483637 time=60>
note_on channel=0 note=53 velocity=0 time=0
note_on channel=0 note=52 velocity=43 time=0
<meta message set_tempo tempo=499002 time=20>
<meta message set_tempo tempo=481541 time=20>
note_on channel=0 note=52 velocity=0 time=20
note_on channel=0 note=53 velocity=43 time=0
<meta message set_tempo tempo=483637 time=20>
note_on channel=0 note=61 velocity=0 time=35
note_on channel=0 note=58 velocity=0 time=0
<meta message set_tempo tempo=487924 time=5>
note_on channel=0 note=53 velocity=0 time=0
note_on channel=0 note=58 velocity=30 time=0
note_on channel=0 note=61 velocity=36 time=0
note_on channel=0 note=52 velocity=44 time=0
<meta message set_tempo tempo=490076 time=40>
note_on channel=0 note=52 velocity=0 time=20
note_on channel=0 note=53 velocity=44 time=0
<meta message set_tempo tempo=494519 time=20>
<meta message set_tempo tempo=496771 time=40>
note_on channel=0 note=53 velocity=0 time=0
note_on channel=0 note=52 velocity=46 time=0
<meta message set_tempo tempo=501295 time=40>
note_on channel=0 note=52 velocity=0 time=20
note_on channel=0 note=53 velocity=46 time=0
<meta message set_tempo tempo=503609 time=20>
<meta message set_tempo tempo=508259 time=40>
note_on channel=0 note=53 velocity=0 time=0
note_on channel=0 note=52 velocity=47 time=0
<meta message set_tempo tempo=510595 time=40>
note_on channel=0 note=52 velocity=0 time=20
note_on channel=0 note=51 velocity=47 time=0
<meta message set_tempo tempo=515420 time=20>
<meta message set_tempo tempo=522739 time=20>
note_on channel=0 note=51 velocity=0 time=50
note_on channel=0 note=52 velocity=48 time=0
note_on channel=0 note=61 velocity=0 time=85
note_on channel=0 note=58 velocity=0 time=0
<meta message set_tempo tempo=485830 time=5>
note_on channel=0 note=67 velocity=0 time=0
note_on channel=0 note=52 velocity=0 time=0
note_on channel=0 note=65 velocity=57 time=0
note_on channel=0 note=53 velocity=55 time=0
control_change channel=0 control=64 value=0 time=9
control_change channel=0 control=64 value=127 time=288
<meta message set_tempo tempo=469153 time=183>
note_on channel=0 note=58 velocity=35 time=0
note_on channel=0 note=62 velocity=42 time=0
note_on channel=0 note=62 velocity=0 time=475
note_on channel=0 note=58 velocity=0 time=0
<meta message set_tempo tempo=494519 time=5>
note_on channel=0 note=58 velocity=35 time=0
note_on channel=0 note=62 velocity=42 time=0
note_on channel=0 note=62 velocity=0 time=475
note_on channel=0 note=58 velocity=0 time=0
<meta message set_tempo tempo=479386 time=5>
note_on channel=0 note=65 velocity=0 time=0
note_on channel=0 note=74 velocity=60 time=0
control_change channel=0 control=64 value=0 time=5
<meta message set_tempo tempo=469153 time=475>
note_on channel=0 note=53 velocity=0 time=0
note_on channel=0 note=65 velocity=38 time=0
note_on channel=0 note=62 velocity=38 time=0
note_on channel=0 note=70 velocity=45 time=0
note_on channel=0 note=40 velocity=37 time=0
note_on channel=0 note=52 velocity=46 time=0
note_on channel=0 note=70 velocity=0 time=475
note_on channel=0 note=62 velocity=0 time=0
note_on channel=0 note=65 velocity=0 time=0
note_on channel=0 note=52 velocity=0 time=5
note_on channel=0 note=40 velocity=0 time=0
note_on channel=0 note=65 velocity=38 time=0
note_on channel=0 note=62 velocity=38 time=0
note_on channel=0 note=70 velocity=45 time=0
note_on channel=0 note=41 velocity=37 time=0
note_on channel=0 note=53 velocity=46 time=0
note_on channel=0 note=70 velocity=0 time=475
note_on channel=0 note=62 velocity=0 time=0
note_on channel=0 note=65 velocity=0 time=0
<meta message set_tempo tempo=459594 time=5>
note_on channel=0 note=53 velocity=0 time=0
note_on channel=0 note=41 velocity=0 time=0
note_on channel=0 note=63 velocity=51 time=0
note_on channel=0 note=69 velocity=51 time=0
note_on channel=0 note=42 velocity=42 time=0
note_on channel=0 note=54 velocity=51 time=0
<meta message set_tempo tempo=459594 time=120>
note_on channel=0 note=74 velocity=0 time=300
note_on channel=0 note=74 velocity=55 time=0
<meta message set_tempo tempo=438116 time=60>
note_on channel=0 note=74 velocity=0 time=0
note_on channel=0 note=63 velocity=0 time=0
note_on channel=0 note=69 velocity=0 time=0
note_on channel=0 note=63 velocity=48 time=0
note_on channel=0 note=69 velocity=48 time=0
note_on channel=0 note=72 velocity=62 time=0
<meta message set_tempo tempo=444346 time=480>
note_on channel=0 note=72 velocity=0 time=0
note_on channel=0 note=63 velocity=0 time=0
note_on channel=0 note=69 velocity=0 time=0
note_on channel=0 note=63 velocity=45 time=0
note_on channel=0 note=69 velocity=45 time=0
note_on channel=0 note=71 velocity=58 time=0
<meta message set_tempo tempo=461858 time=480>
note_on channel=0 note=71 velocity=0 time=0
note_on channel=0 note=63 velocity=0 time=0
note_on channel=0 note=69 velocity=0 time=0
note_on channel=0 note=63 velocity=50 time=0
note_on channel=0 note=69 velocity=50 time=0
note_on channel=0 note=72 velocity=65 time=0
note_on channel=0 note=72 velocity=0 time=480
note_on channel=0 note=63 velocity=0 time=0
note_on channel=0 note=54 velocity=0 time=0
note_on channel=0 note=42 velocity=0 time=0
note_on channel=0 note=69 velocity=0 time=0
note_on channel=0 note=63 velocity=49 time=0
note_on channel=0 note=69 velocity=49 time=0
note_on channel=0 note=74 velocity=64 time=0
note_on channel=0 note=41 velocity=34 time=0
note_on channel=0 note=53 velocity=40 time=0
<meta message set_tempo tempo=478088 time=40>
<meta message set_tempo tempo=483637 time=440>
note_on channel=0 note=53 velocity=0 time=0
note_on channel=0 note=74 velocity=0 time=0
note_on channel=0 note=63 velocity=0 time=0
note_on channel=0 note=69 velocity=0 time=0
note_on channel=0 note=41 velocity=0 time=0
note_on channel=0 note=63 velocity=51 time=0
note_on channel=0 note=69 velocity=51 time=0
note_on channel=0 note=75 velocity=66 time=0
note_on channel=0 note=42 velocity=37 time=0
note_on channel=0 note=54 velocity=44 time=0
note_on channel=0 note=54 velocity=0 time=480
note_on channel=0 note=75 velocity=0 time=0
note_on channel=0 note=63 velocity=0 time=0
note_on channel=0 note=69 velocity=0 time=0
note_on channel=0 note=42 velocity=0 time=0
note_on channel=0 note=75 velocity=71 time=0
note_on channel=0 note=43 velocity=40 time=0
note_on channel=0 note=55 velocity=48 time=0
control_change channel=0 control=64 value=0 time=15
control_change channel=0 control=64 value=127 time=358
<meta message set_tempo tempo=467144 time=107>
note_on channel=0 note=63 velocity=49 time=0
note_on channel=0 note=70 velocity=49 time=0
<meta message set_tempo tempo=478088 time=480>
note_on channel=0 note=70 velocity=0 time=0
note_on channel=0 note=63 velocity=0 time=0
note_on channel=0 note=63 velocity=49 time=0
note_on channel=0 note=70 velocity=49 time=0
<meta message set_tempo tempo=466926 time=480>
note_on channel=0 note=70 velocity=0 time=0
note_on channel=0 note=75 velocity=0 time=0
note_on channel=0 note=63 velocity=0 time=0
note_on channel=0 note=62 velocity=43 time=0
note_on channel=0 note=70 velocity=43 time=0
note_on channel=0 note=74 velocity=56 time=0
control_change channel=0 control=64 value=0 time=15
control_change channel=0 control=64 value=127 time=412
note_on channel=0 note=70 velocity=0 time=53
note_on channel=0 note=62 velocity=0 time=0
note_on channel=0 note=62 velocity=43 time=0
note_on channel=0 note=70 velocity=43 time=0
<meta message set_tempo tempo=483637 time=480>
note_on channel=0 note=70 velocity=0 time=0
note_on channel=0 note=62 velocity=0 time=0
note_on channel=0 note=62 velocity=43 time=0
note_on channel=0 note=70 velocity=43 time=0
<meta message set_tempo tempo=466454 time=480>
note_on channel=0 note=70 velocity=0 time=0
note_on channel=0 note=74 velocity=0 time=0
note_on channel=0 note=43 velocity=0 time=0
note_on channel=0 note=55 velocity=0 time=0
note_on channel=0 note=62 velocity=0 time=0
note_on channel=0 note=60 velocity=51 time=0
note_on channel=0 note=66 velocity=51 time=0
control_change channel=0 control=64 value=0 time=0
note_on channel=0 note=38 velocity=32 time=0
note_on channel=0 note=50 velocity=38 time=0
note_on channel=0 note=70 velocity=50 time=420
<meta message set_tempo tempo=446462 time=60>
note_on channel=0 note=70 velocity=0 time=0
note_on channel=0 note=60 velocity=0 time=0
note_on channel=0 note=66 velocity=0 time=0
note_on channel=0 note=60 velocity=48 time=0
note_on channel=0 note=66 velocity=48 time=0
note_on channel=0 note=69 velocity=57 time=0
<meta message set_tempo tempo=457352 time=480>
note_on channel=0 note=69 velocity=0 time=0
note_on channel=0 note=60 velocity=0 time=0
note_on channel=0 note=66 velocity=0 time=0
note_on channel=0 note=60 velocity=43 time=0
note_on channel=0 note=66 velocity=43 time=0
note_on channel=0 note=68 velocity=54 time=0
<meta message set_tempo tempo=466454 time=480>
note_on channel=0 note=68 velocity=0 time=0
note_on channel=0 note=60 velocity=0 time=0
note_on channel=0 note=66 velocity=0 time=0
note_on channel=0 note=60 velocity=48 time=0
note_on channel=0 note=66 velocity=48 time=0
note_on channel=0 note=69 velocity=57 time=0
<meta message set_tempo tempo=455512 time=480>
note_on channel=0 note=69 velocity=0 time=0
note_on channel=0 note=60 velocity=0 time=0
note_on channel=0 note=66 velocity=0 time=0
note_on channel=0 note=60 velocity=47 time=0
note_on channel=0 note=66 velocity=47 time=0
note_on channel=0 note=70 velocity=56 time=0
<meta message set_tempo tempo=490076 time=480>
note_on channel=0 note=70 velocity=0 time=0
note_on channel=0 note=60 velocity=0 time=0
note_on channel=0 note=66 velocity=0 time=0
note_on channel=0 note=60 velocity=49 time=0
note_on channel=0 note=66 velocity=49 time=0
note_on channel=0 note=72 velocity=58 time=0
note_on channel=0 note=72 velocity=0 time=480
note_on channel=0 note=60 velocity=0 time=0
note_on channel=0 note=50 velocity=0 time=0
note_on channel=0 note=38 velocity=0 time=0
note_on channel=0 note=66 velocity=0 time=0
note_on channel=0 note=72 velocity=67 time=0
note_on channel=0 note=39 velocity=33 time=0
note_on channel=0 note=51 velocity=39 time=0
control_change channel=0 control=64 value=0 time=6
control_change channel=0 control=64 value=127 time=234
<meta message set_tempo tempo=465152 time=240>
note_on channel=0 note=60 velocity=49 time=0
note_on channel=0 note=67 velocity=49 time=0
note_on channel=0 note=67 velocity=0 time=480
note_on channel=0 note=60 velocity=0 time=0
note_on channel=0 note=60 velocity=49 time=0
note_on channel=0 note=67 velocity=49 time=0
note_on channel=0 note=67 velocity=0 time=480
note_on channel=0 note=72 velocity=0 time=0
note_on channel=0 note=60 velocity=0 time=0
note_on channel=0 note=58 velocity=43 time=0
note_on channel=0 note=67 velocity=43 time=0
note_on channel=0 note=70 velocity=51 time=0
control_change channel=0 control=64 value=0 time=15
control_change channel=0 control=64 value=127 time=359
note_on channel=0 note=67 velocity=0 time=106
note_on channel=0 note=58 velocity=0 time=0
note_on channel=0 note=58 velocity=43 time=0
note_on channel=0 note=67 velocity=43 time=0
<meta message set_tempo tempo=483637 time=480>
note_on channel=0 note=67 velocity=0 time=0
note_on channel=0 note=58 velocity=0 time=0
note_on channel=0 note=58 velocity=43 time=0
note_on channel=0 note=67 velocity=43 time=0
note_on channel=0 note=67 velocity=0 time=480
note_on channel=0 note=70 velocity=0 time=0
note_on channel=0 note=39 velocity=0 time=0
note_on channel=0 note=51 velocity=0 time=0
note_on channel=0 note=58 velocity=0 time=0
note_on channel=0 note=63 velocity=50 time=0
note_on channel=0 note=67 velocity=50 time=0
note_on channel=0 note=69 velocity=56 time=0
note_on channel=0 note=36 velocity=39 time=0
note_on channel=0 note=48 velocity=39 time=0
control_change channel=0 control=64 value=0 time=6
control_change channel=0 control=64 value=127 time=40
<meta message set_tempo tempo=469153 time=434>
note_on channel=0 note=67 velocity=0 time=0
note_on channel=0 note=63 velocity=0 time=0
note_on channel=0 note=63 velocity=50 time=0
note_on channel=0 note=67 velocity=50 time=0
note_on channel=0 note=67 velocity=0 time=480
note_on channel=0 note=63 velocity=0 time=0
note_on channel=0 note=63 velocity=50 time=0
note_on channel=0 note=67 velocity=50 time=0
<meta message set_tempo tempo=473223 time=440>
note_on channel=0 note=67 velocity=0 time=40
note_on channel=0 note=48 velocity=0 time=0
note_on channel=0 note=36 velocity=0 time=0
note_on channel=0 note=69 velocity=0 time=0
note_on channel=0 note=63 velocity=0 time=0
note_on channel=0 note=62 velocity=42 time=0
note_on channel=0 note=66 velocity=42 time=0
note_on channel=0 note=69 velocity=51 time=0
note_on channel=0 note=38 velocity=33 time=0
note_on channel=0 note=50 velocity=39 time=0
control_change channel=0 control=64 value=0 time=13
<meta message set_tempo tempo=475210 time=27>
<meta message set_tempo tempo=477327 time=40>
control_change channel=0 control=64 value=127 time=9
<meta message set_tempo tempo=479386 time=31>
<meta message set_tempo tempo=481541 time=40>
<meta message set_tempo tempo=483637 time=40>
<meta message set_tempo tempo=485751 time=80>
<meta message set_tempo tempo=487924 time=40>
<meta message set_tempo tempo=490076 time=40>
<meta message set_tempo tempo=492328 time=40>
<meta message set_tempo tempo=494519 time=40>
note_on channel=0 note=66 velocity=0 time=40
note_on channel=0 note=62 velocity=0 time=0
note_on channel=0 note=62 velocity=42 time=0
note_on channel=0 note=66 velocity=42 time=0
<meta message set_tempo tempo=496771 time=40>
<meta message set_tempo tempo=499002 time=40>
<meta message set_tempo tempo=501295 time=40>
<meta message set_tempo tempo=503609 time=40>
<meta message set_tempo tempo=505902 time=40>
<meta message set_tempo tempo=508259 time=80>
<meta message set_tempo tempo=510595 time=40>
<meta message set_tempo tempo=513040 time=40>
<meta message set_tempo tempo=515420 time=40>
<meta message set_tempo tempo=517866 time=40>
<meta message set_tempo tempo=520291 time=40>
note_on channel=0 note=66 velocity=0 time=0
note_on channel=0 note=62 velocity=0 time=0
note_on channel=0 note=62 velocity=42 time=0
note_on channel=0 note=66 velocity=42 time=0
<meta message set_tempo tempo=789889 time=240>
note_on channel=0 note=69 velocity=0 time=0
note_on channel=0 note=69 velocity=51 time=0
<meta message set_tempo tempo=496771 time=120>
note_on channel=0 note=69 velocity=0 time=0
note_on channel=0 note=57 velocity=51 time=0
control_change channel=0 control=64 value=0 time=12
control_change channel=0 control=64 value=127 time=43
note_on channel=0 note=64 velocity=51 time=5
<meta message set_tempo tempo=472441 time=60>
note_on channel=0 note=66 velocity=0 time=0
note_on channel=0 note=62 velocity=0 time=0
note_on channel=0 note=50 velocity=0 time=0
note_on channel=0 note=38 velocity=0 time=0
note_on channel=0 note=69 velocity=51 time=0
note_on channel=0 note=37 velocity=33 time=0
note_on channel=0 note=49 velocity=39 time=0
note_on channel=0 note=49 velocity=0 time=480
note_on channel=0 note=64 velocity=0 time=0
note_on channel=0 note=57 velocity=0 time=0
note_on channel=0 note=37 velocity=0 time=0
note_on channel=0 note=52 velocity=30 time=0
note_on channel=0 note=57 velocity=30 time=0
note_on channel=0 note=64 velocity=36 time=0
note_on channel=0 note=64 velocity=0 time=475
note_on channel=0 note=57 velocity=0 time=0
note_on channel=0 note=52 velocity=0 time=0
note_on channel=0 note=52 velocity=28 time=5
note_on channel=0 note=57 velocity=28 time=0
note_on channel=0 note=64 velocity=34 time=0
note_on channel=0 note=64 velocity=0 time=475
note_on channel=0 note=57 velocity=0 time=0
note_on channel=0 note=52 velocity=0 time=0
note_on channel=0 note=52 velocity=28 time=5
note_on channel=0 note=57 velocity=28 time=0
note_on channel=0 note=64 velocity=34 time=0
note_on channel=0 note=64 velocity=0 time=475
note_on channel=0 note=57 velocity=0 time=0
note_on channel=0 note=52 velocity=0 time=0
note_on channel=0 note=52 velocity=28 time=5
note_on channel=0 note=57 velocity=28 time=0
note_on channel=0 note=64 velocity=34 time=0
note_on channel=0 note=64 velocity=0 time=475
note_on channel=0 note=57 velocity=0 time=0
note_on channel=0 note=52 velocity=0 time=0
note_on channel=0 note=69 velocity=0 time=5
note_on channel=0 note=69 velocity=66 time=0
note_on channel=0 note=52 velocity=29 time=0
note_on channel=0 note=57 velocity=29 time=0
note_on channel=0 note=64 velocity=35 time=0
note_on channel=0 note=64 velocity=0 time=475
note_on channel=0 note=57 velocity=0 time=0
note_on channel=0 note=52 velocity=0 time=0
<meta message set_tempo tempo=526316 time=5>
note_on channel=0 note=36 velocity=36 time=0
note_on channel=0 note=48 velocity=42 time=0
control_change channel=0 control=64 value=0 time=6
control_change channel=0 control=64 value=127 time=46
note_on channel=0 note=69 velocity=0 time=68
note_on channel=0 note=70 velocity=56 time=0
note_on channel=0 note=70 velocity=0 time=120
note_on channel=0 note=69 velocity=56 time=0
note_on channel=0 note=69 velocity=0 time=120
note_on channel=0 note=68 velocity=57 time=0
<meta message set_tempo tempo=500000 time=120>
note_on channel=0 note=68 velocity=0 time=0
note_on channel=0 note=48 velocity=0 time=0
note_on channel=0 note=36 velocity=0 time=0
note_on channel=0 note=69 velocity=58 time=0
note_on channel=0 note=53 velocity=33 time=0
note_on channel=0 note=57 velocity=33 time=0
note_on channel=0 note=63 velocity=33 time=0
note_on channel=0 note=65 velocity=39 time=0
note_on channel=0 note=69 velocity=0 time=120
note_on channel=0 note=79 velocity=60 time=0
<meta message set_tempo tempo=497925 time=120>
note_on channel=0 note=79 velocity=0 time=0
note_on channel=0 note=76 velocity=61 time=0
note_on channel=0 note=76 velocity=0 time=120
note_on channel=0 note=77 velocity=62 time=0
note_on channel=0 note=63 velocity=0 time=115
note_on channel=0 note=65 velocity=0 time=0
note_on channel=0 note=53 velocity=0 time=0
note_on channel=0 note=57 velocity=0 time=0
<meta message set_tempo tempo=495868 time=5>
note_on channel=0 note=77 velocity=0 time=0
note_on channel=0 note=77 velocity=63 time=0
note_on channel=0 note=53 velocity=33 time=0
note_on channel=0 note=57 velocity=33 time=0
note_on channel=0 note=63 velocity=33 time=0
note_on channel=0 note=65 velocity=39 time=0
note_on channel=0 note=77 velocity=0 time=120
note_on channel=0 note=91 velocity=64 time=0
<meta message set_tempo tempo=493827 time=120>
note_on channel=0 note=91 velocity=0 time=0
note_on channel=0 note=89 velocity=66 time=0
note_on channel=0 note=89 velocity=0 time=120
note_on channel=0 note=88 velocity=66 time=0
note_on channel=0 note=63 velocity=0 time=115
note_on channel=0 note=65 velocity=0 time=0
note_on channel=0 note=53 velocity=0 time=0
note_on channel=0 note=57 velocity=0 time=0
<meta message set_tempo tempo=491803 time=5>
note_on channel=0 note=88 velocity=0 time=0
note_on channel=0 note=87 velocity=67 time=0
note_on channel=0 note=53 velocity=33 time=0
note_on channel=0 note=57 velocity=33 time=0
note_on channel=0 note=63 velocity=33 time=0
note_on channel=0 note=65 velocity=39 time=0
note_on channel=0 note=87 velocity=0 time=80
note_on channel=0 note=84 velocity=58 time=0
note_on channel=0 note=84 velocity=0 time=80
note_on channel=0 note=81 velocity=58 time=0
<meta message set_tempo tempo=489796 time=80>
note_on channel=0 note=81 velocity=0 time=0
note_on channel=0 note=82 velocity=62 time=0
note_on channel=0 note=82 velocity=0 time=80
note_on channel=0 note=86 velocity=58 time=0
note_on channel=0 note=86 velocity=0 time=80
note_on channel=0 note=84 velocity=58 time=0
<meta message set_tempo tempo=487805 time=40>
note_on channel=0 note=63 velocity=0 time=35
note_on channel=0 note=65 velocity=0 time=0
note_on channel=0 note=53 velocity=0 time=0
note_on channel=0 note=57 velocity=0 time=0
<meta message set_tempo tempo=489796 time=5>
note_on channel=0 note=84 velocity=0 time=0
note_on channel=0 note=82 velocity=66 time=0
note_on channel=0 note=53 velocity=33 time=0
note_on channel=0 note=57 velocity=33 time=0
note_on channel=0 note=63 velocity=33 time=0
note_on channel=0 note=65 velocity=39 time=0
<meta message set_tempo tempo=491803 time=80>
note_on channel=0 note=82 velocity=0 time=0
note_on channel=0 note=79 velocity=58 time=0
<meta message set_tempo tempo=493827 time=80>
note_on channel=0 note=79 velocity=0 time=0
note_on channel=0 note=77 velocity=58 time=0
<meta message set_tempo tempo=495868 time=40>
note_on channel=0 note=77 velocity=0 time=40
note_on channel=0 note=74 velocity=62 time=0
<meta message set_tempo tempo=497925 time=40>
<meta message set_tempo tempo=497925 time=40>
note_on channel=0 note=74 velocity=0 time=0
note_on channel=0 note=75 velocity=58 time=0
<meta message set_tempo tempo=504202 time=8>
<meta message set_tempo tempo=506329 time=4>
<meta message set_tempo tempo=508475 time=8>
<meta message set_tempo tempo=510638 time=4>
<meta message set_tempo tempo=515021 time=4>
<meta message set_tempo tempo=517241 time=8>
<meta message set_tempo tempo=519481 time=4>
<meta message set_tempo tempo=521739 time=8>
<meta message set_tempo tempo=526316 time=4>
<meta message set_tempo tempo=528634 time=8>
<meta message set_tempo tempo=530973 time=4>
<meta message set_tempo tempo=535714 time=4>
<meta message set_tempo tempo=538117 time=8>
<meta message set_tempo tempo=540541 time=4>
note_on channel=0 note=75 velocity=0 time=0
note_on channel=0 note=76 velocity=58 time=0
<meta message set_tempo tempo=542986 time=8>
<meta message set_tempo tempo=547945 time=4>
<meta message set_tempo tempo=550459 time=8>
<meta message set_tempo tempo=552995 time=4>
<meta message set_tempo tempo=558140 time=4>
<meta message set_tempo tempo=560748 time=8>
<meta message set_tempo tempo=563380 time=4>
<meta message set_tempo tempo=566038 time=8>
<meta message set_tempo tempo=571429 time=4>
<meta message set_tempo tempo=574163 time=8>
<meta message set_tempo tempo=576923 time=4>
<meta message set_tempo tempo=582524 time=4>
note_on channel=0 note=63 velocity=0 time=7
note_on channel=0 note=65 velocity=0 time=0
note_on channel=0 note=53 velocity=0 time=0
note_on channel=0 note=57 velocity=0 time=0
<meta message set_tempo tempo=563380 time=5>
note_on channel=0 note=76 velocity=0 time=0
note_on channel=0 note=77 velocity=63 time=0
note_on channel=0 note=53 velocity=33 time=0
note_on channel=0 note=57 velocity=33 time=0
note_on channel=0 note=63 velocity=33 time=0
note_on channel=0 note=65 velocity=39 time=0
control_change channel=0 control=64 value=0 time=11
<meta message set_tempo tempo=566038 time=17>
<meta message set_tempo tempo=568720 time=32>
<meta message set_tempo tempo=571429 time=20>
note_on channel=0 note=77 velocity=0 time=0
note_on channel=0 note=78 velocity=58 time=0
<meta message set_tempo tempo=574163 time=28>
<meta message set_tempo tempo=576923 time=20>
<meta message set_tempo tempo=552995 time=12>
note_on channel=0 note=78 velocity=0 time=20
note_on channel=0 note=81 velocity=58 time=0
<meta message set_tempo tempo=555556 time=20>
<meta message set_tempo tempo=558140 time=20>
<meta message set_tempo tempo=560748 time=40>
note_on channel=0 note=81 velocity=0 time=0
note_on channel=0 note=79 velocity=58 time=0
<meta message set_tempo tempo=563380 time=20>
<meta message set_tempo tempo=566038 time=40>
<meta message set_tempo tempo=568720 time=20>
note_on channel=0 note=79 velocity=0 time=0
note_on channel=0 note=77 velocity=56 time=0
<meta message set_tempo tempo=571429 time=40>
<meta message set_tempo tempo=574163 time=20>
<meta message set_tempo tempo=576923 time=20>
note_on channel=0 note=77 velocity=0 time=0
note_on channel=0 note=75 velocity=56 time=0
<meta message set_tempo tempo=615385 time=20>
<meta message set_tempo tempo=659341 time=20>
<meta message set_tempo tempo=714286 time=20>
<meta message set_tempo tempo=582524 time=4>
note_on channel=0 note=63 velocity=0 time=11
note_on channel=0 note=65 velocity=0 time=0
note_on channel=0 note=53 velocity=0 time=0
note_on channel=0 note=57 velocity=0 time=0
<meta message set_tempo tempo=519481 time=5>
note_on channel=0 note=75 velocity=0 time=0
note_on channel=0 note=73 velocity=64 time=0
note_on channel=0 note=34 velocity=38 time=0
note_on channel=0 note=46 velocity=45 time=0
control_change channel=0 control=64 value=127 time=80
note_on channel=0 note=73 velocity=0 time=160
<meta message set_tempo tempo=500000 time=240>
note_on channel=0 note=46 velocity=0 time=0
note_on channel=0 note=34 velocity=0 time=0
note_on channel=0 note=74 velocity=66 time=0
note_on channel=0 note=50 velocity=31 time=0
note_on channel=0 note=53 velocity=31 time=0
note_on channel=0 note=58 velocity=39 time=0
note_on channel=0 note=58 velocity=0 time=480
note_on channel=0 note=53 velocity=0 time=0
note_on channel=0 note=50 velocity=0 time=0
note_on channel=0 note=53 velocity=33 time=0
note_on channel=0 note=58 velocity=33 time=0
note_on channel=0 note=62 velocity=39 time=0
<meta message set_tempo tempo=530973 time=480>
note_on channel=0 note=62 velocity=0 time=0
note_on channel=0 note=58 velocity=0 time=0
note_on channel=0 note=53 velocity=0 time=0
note_on channel=0 note=39 velocity=40 time=0
control_change channel=0 control=64 value=0 time=15
control_change channel=0 control=64 value=127 time=225
<meta message set_tempo tempo=495868 time=240>
note_on channel=0 note=39 velocity=0 time=0
note_on channel=0 note=74 velocity=0 time=0
note_on channel=0 note=72 velocity=56 time=0
note_on channel=0 note=51 velocity=31 time=0
note_on channel=0 note=55 velocity=31 time=0
note_on channel=0 note=60 velocity=37 time=0
<meta message set_tempo tempo=521739 time=480>
note_on channel=0 note=60 velocity=0 time=0
note_on channel=0 note=72 velocity=0 time=0
note_on channel=0 note=51 velocity=0 time=0
note_on channel=0 note=55 velocity=0 time=0
note_on channel=0 note=67 velocity=57 time=0
note_on channel=0 note=55 velocity=31 time=0
note_on channel=0 note=60 velocity=31 time=0
note_on channel=0 note=63 velocity=37 time=0
<meta message set_tempo tempo=540541 time=480>
note_on channel=0 note=63 velocity=0 time=0
note_on channel=0 note=67 velocity=0 time=0
note_on channel=0 note=55 velocity=0 time=0
note_on channel=0 note=60 velocity=0 time=0
note_on channel=0 note=70 velocity=62 time=0
note_on channel=0 note=38 velocity=42 time=0
control_change channel=0 control=64 value=0 time=4
control_change channel=0 control=64 value=127 time=178
<meta message set_tempo tempo=517241 time=298>
note_on channel=0 note=38 velocity=0 time=0
note_on channel=0 note=55 velocity=29 time=0
note_on channel=0 note=58 velocity=29 time=0
note_on channel=0 note=63 velocity=35 time=0
<meta message set_tempo tempo=528634 time=480>
note_on channel=0 note=63 velocity=0 time=0
note_on channel=0 note=58 velocity=0 time=0
note_on channel=0 note=55 velocity=0 time=0
note_on channel=0 note=62 velocity=35 time=0
note_on channel=0 note=58 velocity=29 time=0
note_on channel=0 note=55 velocity=29 time=0
note_on channel=0 note=55 velocity=0 time=480
note_on channel=0 note=70 velocity=0 time=0
note_on channel=0 note=66 velocity=53 time=0
note_on channel=0 note=50 velocity=39 time=0
control_change channel=0 control=64 value=0 time=15
<meta message set_tempo tempo=540541 time=465>
note_on channel=0 note=58 velocity=0 time=0
note_on channel=0 note=62 velocity=0 time=0
note_on channel=0 note=61 velocity=35 time=0
note_on channel=0 note=58 velocity=29 time=0
<meta message set_tempo tempo=576923 time=480>
note_on channel=0 note=58 velocity=0 time=0
note_on channel=0 note=61 velocity=0 time=0
note_on channel=0 note=57 velocity=30 time=0
note_on channel=0 note=60 velocity=36 time=0
<meta message set_tempo tempo=555556 time=480>
<meta message marker text='a tempo' time=0>
note_on channel=0 note=60 velocity=0 time=0
note_on channel=0 note=50 velocity=0 time=0
note_on channel=0 note=66 velocity=0 time=0
note_on channel=0 note=57 velocity=0 time=0
note_on channel=0 note=67 velocity=47 time=0
note_on channel=0 note=43 velocity=36 time=0
control_change channel=0 control=64 value=127 time=172
note_on channel=0 note=43 velocity=0 time=68
<meta message set_tempo tempo=528634 time=240>
note_on channel=0 note=67 velocity=0 time=0
note_on channel=0 note=70 velocity=28 time=0
note_on channel=0 note=82 velocity=50 time=0
note_on channel=0 note=65 velocity=28 time=0
note_on channel=0 note=58 velocity=19 time=0
note_on channel=0 note=55 velocity=19 time=0
<meta message set_tempo tempo=508475 time=240>
note_on channel=0 note=82 velocity=0 time=0
note_on channel=0 note=70 velocity=0 time=0
note_on channel=0 note=74 velocity=45 time=0
<meta message set_tempo tempo=466926 time=120>
note_on channel=0 note=74 velocity=0 time=120
note_on channel=0 note=65 velocity=0 time=0
note_on channel=0 note=77 velocity=48 time=0
note_on channel=0 note=63 velocity=29 time=0
control_change channel=0 control=64 value=0 time=16
<meta message set_tempo tempo=508475 time=124>
note_on channel=0 note=77 velocity=0 time=100
note_on channel=0 note=75 velocity=45 time=0
<meta message set_tempo tempo=530973 time=240>
note_on channel=0 note=55 velocity=0 time=0
note_on channel=0 note=63 velocity=0 time=0
note_on channel=0 note=58 velocity=0 time=0
note_on channel=0 note=42 velocity=38 time=0
control_change channel=0 control=64 value=127 time=114
note_on channel=0 note=42 velocity=0 time=126
<meta message set_tempo tempo=519481 time=240>
note_on channel=0 note=75 velocity=0 time=0
note_on channel=0 note=69 velocity=31 time=0
note_on channel=0 note=81 velocity=50 time=0
note_on channel=0 note=63 velocity=28 time=0
note_on channel=0 note=54 velocity=19 time=0
note_on channel=0 note=57 velocity=19 time=0
<meta message set_tempo tempo=493827 time=240>
note_on channel=0 note=81 velocity=0 time=0
note_on channel=0 note=69 velocity=0 time=0
note_on channel=0 note=73 velocity=44 time=0
<meta message set_tempo tempo=451128 time=120>
note_on channel=0 note=73 velocity=0 time=120
note_on channel=0 note=63 velocity=0 time=0
note_on channel=0 note=75 velocity=49 time=0
note_on channel=0 note=62 velocity=29 time=0
control_change channel=0 control=64 value=0 time=15
<meta message set_tempo tempo=493827 time=105>
<meta message set_tempo tempo=517241 time=120>
note_on channel=0 note=75 velocity=0 time=0
note_on channel=0 note=74 velocity=45 time=0
<meta message set_tempo tempo=495868 time=240>
note_on channel=0 note=57 velocity=0 time=0
note_on channel=0 note=62 velocity=0 time=0
note_on channel=0 note=54 velocity=0 time=0
note_on channel=0 note=43 velocity=38 time=0
control_change channel=0 control=64 value=127 time=46
<meta message set_tempo tempo=481928 time=194>
note_on channel=0 note=43 velocity=0 time=0
<meta message set_tempo tempo=472441 time=240>
note_on channel=0 note=74 velocity=0 time=0
note_on channel=0 note=70 velocity=30 time=0
note_on channel=0 note=82 velocity=50 time=0
note_on channel=0 note=65 velocity=30 time=0
note_on channel=0 note=58 velocity=20 time=0
note_on channel=0 note=55 velocity=20 time=0
<meta message set_tempo tempo=457352 time=240>
note_on channel=0 note=82 velocity=0 time=0
note_on channel=0 note=70 velocity=0 time=0
note_on channel=0 note=74 velocity=48 time=0
<meta message set_tempo tempo=436364 time=120>
note_on channel=0 note=74 velocity=0 time=120
note_on channel=0 note=65 velocity=0 time=0
note_on channel=0 note=77 velocity=50 time=0
note_on channel=0 note=63 velocity=30 time=0
control_change channel=0 control=64 value=0 time=16
<meta message set_tempo tempo=472441 time=104>
<meta message set_tempo tempo=485830 time=120>
note_on channel=0 note=77 velocity=0 time=0
note_on channel=0 note=75 velocity=47 time=0
<meta message set_tempo tempo=472441 time=240>
note_on channel=0 note=55 velocity=0 time=0
note_on channel=0 note=63 velocity=0 time=0
note_on channel=0 note=58 velocity=0 time=0
note_on channel=0 note=41 velocity=40 time=0
control_change channel=0 control=64 value=127 time=114
<meta message set_tempo tempo=458015 time=126>
note_on channel=0 note=41 velocity=0 time=0
<meta message set_tempo tempo=449438 time=240>
note_on channel=0 note=75 velocity=0 time=0
note_on channel=0 note=68 velocity=32 time=0
note_on channel=0 note=80 velocity=51 time=0
note_on channel=0 note=59 velocity=20 time=0
note_on channel=0 note=63 velocity=30 time=0
note_on channel=0 note=53 velocity=20 time=0
note_on channel=0 note=56 velocity=20 time=0
<meta message set_tempo tempo=444346 time=240>
note_on channel=0 note=80 velocity=0 time=0
note_on channel=0 note=68 velocity=0 time=0
note_on channel=0 note=73 velocity=47 time=0
<meta message set_tempo tempo=425532 time=120>
note_on channel=0 note=73 velocity=0 time=120
note_on channel=0 note=63 velocity=0 time=0
note_on channel=0 note=75 velocity=52 time=0
note_on channel=0 note=62 velocity=30 time=0
control_change channel=0 control=64 value=0 time=16
<meta message set_tempo tempo=447761 time=104>
<meta message set_tempo tempo=463320 time=120>
note_on channel=0 note=75 velocity=0 time=0
note_on channel=0 note=74 velocity=47 time=0
<meta message set_tempo tempo=447761 time=240>
note_on channel=0 note=59 velocity=0 time=0
note_on channel=0 note=62 velocity=0 time=0
note_on channel=0 note=53 velocity=0 time=0
note_on channel=0 note=56 velocity=0 time=0
note_on channel=0 note=39 velocity=41 time=0
control_change channel=0 control=64 value=127 time=92
note_on channel=0 note=39 velocity=0 time=148
<meta message set_tempo tempo=427046 time=240>
note_on channel=0 note=74 velocity=0 time=0
note_on channel=0 note=67 velocity=32 time=0
note_on channel=0 note=79 velocity=53 time=0
note_on channel=0 note=62 velocity=32 time=0
note_on channel=0 note=55 velocity=21 time=0
note_on channel=0 note=51 velocity=21 time=0
note_on channel=0 note=79 velocity=0 time=240
note_on channel=0 note=67 velocity=0 time=0
note_on channel=0 note=71 velocity=50 time=0
<meta message set_tempo tempo=405405 time=120>
note_on channel=0 note=71 velocity=0 time=120
note_on channel=0 note=62 velocity=0 time=0
note_on channel=0 note=74 velocity=53 time=0
note_on channel=0 note=60 velocity=32 time=0
control_change channel=0 control=64 value=0 time=16
<meta message set_tempo tempo=427046 time=104>
<meta message set_tempo tempo=444444 time=120>
note_on channel=0 note=74 velocity=0 time=0
note_on channel=0 note=72 velocity=49 time=0
<meta message set_tempo tempo=424028 time=240>
note_on channel=0 note=51 velocity=0 time=0
note_on channel=0 note=60 velocity=0 time=0
note_on channel=0 note=55 velocity=0 time=0
note_on channel=0 note=36 velocity=42 time=0
control_change channel=0 control=64 value=127 time=114
<meta message set_tempo tempo=408163 time=126>
note_on channel=0 note=36 velocity=0 time=0
note_on channel=0 note=72 velocity=0 time=240
note_on channel=0 note=60 velocity=41 time=0
note_on channel=0 note=72 velocity=54 time=0
note_on channel=0 note=58 velocity=31 time=0
note_on channel=0 note=51 velocity=26 time=0
note_on channel=0 note=72 velocity=0 time=240
note_on channel=0 note=60 velocity=0 time=0
note_on channel=0 note=68 velocity=49 time=0
<meta message set_tempo tempo=388350 time=120>
note_on channel=0 note=68 velocity=0 time=120
note_on channel=0 note=58 velocity=0 time=0
note_on channel=0 note=70 velocity=55 time=0
note_on channel=0 note=57 velocity=32 time=0
control_change channel=0 control=64 value=0 time=16
<meta message set_tempo tempo=408163 time=104>
<meta message set_tempo tempo=422535 time=120>
note_on channel=0 note=70 velocity=0 time=0
note_on channel=0 note=69 velocity=49 time=0
<meta message set_tempo tempo=401338 time=240>
note_on channel=0 note=57 velocity=0 time=0
note_on channel=0 note=51 velocity=0 time=0
note_on channel=0 note=38 velocity=43 time=0
control_change channel=0 control=64 value=127 time=137
note_on channel=0 note=38 velocity=0 time=103
<meta message set_tempo tempo=385852 time=240>
note_on channel=0 note=69 velocity=0 time=0
note_on channel=0 note=63 velocity=43 time=0
note_on channel=0 note=75 velocity=55 time=0
note_on channel=0 note=55 velocity=33 time=0
note_on channel=0 note=60 velocity=28 time=0
note_on channel=0 note=50 velocity=28 time=0
note_on channel=0 note=75 velocity=0 time=240
note_on channel=0 note=63 velocity=0 time=0
note_on channel=0 note=71 velocity=53 time=0
<meta message set_tempo tempo=375000 time=120>
<meta message set_tempo tempo=394737 time=120>
note_on channel=0 note=71 velocity=0 time=0
note_on channel=0 note=55 velocity=0 time=0
note_on channel=0 note=74 velocity=56 time=0
note_on channel=0 note=54 velocity=33 time=0
control_change channel=0 control=64 value=0 time=16
<meta message set_tempo tempo=405405 time=224>
note_on channel=0 note=74 velocity=0 time=0
note_on channel=0 note=72 velocity=52 time=0
<meta message set_tempo tempo=392157 time=240>
note_on channel=0 note=50 velocity=0 time=0
note_on channel=0 note=54 velocity=0 time=0
note_on channel=0 note=60 velocity=0 time=0
note_on channel=0 note=38 velocity=44 time=0
control_change channel=0 control=64 value=127 time=114
note_on channel=0 note=38 velocity=0 time=126
<meta message set_tempo tempo=377358 time=240>
note_on channel=0 note=72 velocity=0 time=0
note_on channel=0 note=63 velocity=48 time=0
note_on channel=0 note=67 velocity=57 time=0
note_on channel=0 note=57 velocity=37 time=0
note_on channel=0 note=63 velocity=0 time=240
note_on channel=0 note=62 velocity=51 time=0
<meta message set_tempo tempo=390879 time=240>
note_on channel=0 note=62 velocity=0 time=0
note_on channel=0 note=57 velocity=0 time=0
note_on channel=0 note=67 velocity=0 time=0
note_on channel=0 note=61 velocity=52 time=0
note_on channel=0 note=66 velocity=47 time=0
note_on channel=0 note=69 velocity=57 time=0
note_on channel=0 note=50 velocity=38 time=0
control_change channel=0 control=64 value=0 time=16
note_on channel=0 note=61 velocity=0 time=224
note_on channel=0 note=60 velocity=52 time=0
<meta message set_tempo tempo=383387 time=40>
<meta message set_tempo tempo=353982 time=200>
note_on channel=0 note=60 velocity=0 time=0
note_on channel=0 note=50 velocity=0 time=0
note_on channel=0 note=69 velocity=0 time=0
note_on channel=0 note=66 velocity=0 time=0
note_on channel=0 note=58 velocity=60 time=0
note_on channel=0 note=67 velocity=60 time=0
note_on channel=0 note=70 velocity=71 time=0
note_on channel=0 note=55 velocity=59 time=0
note_on channel=0 note=43 velocity=59 time=0
control_change channel=0 control=64 value=127 time=91
note_on channel=0 note=43 velocity=0 time=149
note_on channel=0 note=55 velocity=0 time=0
note_on channel=0 note=58 velocity=0 time=240
note_on channel=0 note=67 velocity=0 time=0
note_on channel=0 note=70 velocity=0 time=0
note_on channel=0 note=70 velocity=52 time=0
note_on channel=0 note=82 velocity=71 time=0
note_on channel=0 note=65 velocity=43 time=0
note_on channel=0 note=55 velocity=36 time=0
<meta message set_tempo tempo=350877 time=20>
<meta message set_tempo tempo=349854 time=40>
<meta message set_tempo tempo=348837 time=40>
<meta message set_tempo tempo=347826 time=20>
<meta message set_tempo tempo=346821 time=40>
<meta message set_tempo tempo=345821 time=20>
<meta message set_tempo tempo=344828 time=40>
note_on channel=0 note=74 velocity=67 time=20
<meta message set_tempo tempo=343840 time=20>
<meta message set_tempo tempo=342857 time=20>
<meta message set_tempo tempo=341880 time=40>
<meta message set_tempo tempo=340909 time=20>
<meta message set_tempo tempo=328767 time=20>
<meta message set_tempo tempo=338983 time=120>
note_on channel=0 note=74 velocity=0 time=0
note_on channel=0 note=65 velocity=0 time=0
note_on channel=0 note=77 velocity=71 time=0
note_on channel=0 note=58 velocity=36 time=0
note_on channel=0 note=63 velocity=43 time=0
control_change channel=0 control=64 value=0 time=16
<meta message set_tempo tempo=351906 time=104>
<meta message set_tempo tempo=340909 time=120>
note_on channel=0 note=77 velocity=0 time=0
note_on channel=0 note=75 velocity=66 time=0
<meta message set_tempo tempo=345821 time=40>
<meta message set_tempo tempo=347826 time=200>
note_on channel=0 note=82 velocity=0 time=0
note_on channel=0 note=58 velocity=0 time=0
note_on channel=0 note=70 velocity=0 time=0
note_on channel=0 note=55 velocity=0 time=0
note_on channel=0 note=63 velocity=0 time=0
note_on channel=0 note=54 velocity=62 time=0
note_on channel=0 note=42 velocity=62 time=0
<meta message set_tempo tempo=345821 time=20>
control_change channel=0 control=64 value=127 time=94
note_on channel=0 note=42 velocity=0 time=126
note_on channel=0 note=54 velocity=0 time=0
<meta message set_tempo tempo=343840 time=220>
<meta message set_tempo tempo=339943 time=20>
note_on channel=0 note=75 velocity=0 time=0
note_on channel=0 note=69 velocity=57 time=0
note_on channel=0 note=81 velocity=71 time=0
note_on channel=0 note=63 velocity=41 time=0
note_on channel=0 note=54 velocity=35 time=0
<meta message set_tempo tempo=338983 time=40>
<meta message set_tempo tempo=338028 time=20>
<meta message set_tempo tempo=337079 time=40>
<meta message set_tempo tempo=336134 time=20>
<meta message set_tempo tempo=335196 time=40>
<meta message set_tempo tempo=334262 time=20>
<meta message set_tempo tempo=333333 time=20>
<meta message set_tempo tempo=332410 time=40>
note_on channel=0 note=73 velocity=65 time=0
<meta message set_tempo tempo=331492 time=20>
<meta message set_tempo tempo=330579 time=40>
<meta message set_tempo tempo=329670 time=20>
<meta message set_tempo tempo=328767 time=20>
<meta message set_tempo tempo=320000 time=20>
<meta message set_tempo tempo=329670 time=120>
note_on channel=0 note=73 velocity=0 time=0
note_on channel=0 note=63 velocity=0 time=0
note_on channel=0 note=75 velocity=72 time=0
note_on channel=0 note=57 velocity=35 time=0
note_on channel=0 note=62 velocity=42 time=0
control_change channel=0 control=64 value=0 time=15
<meta message set_tempo tempo=336134 time=105>
<meta message set_tempo tempo=331492 time=120>
note_on channel=0 note=75 velocity=0 time=0
note_on channel=0 note=74 velocity=66 time=0
<meta message set_tempo tempo=327869 time=240>
note_on channel=0 note=81 velocity=0 time=0
note_on channel=0 note=57 velocity=0 time=0
note_on channel=0 note=69 velocity=0 time=0
note_on channel=0 note=54 velocity=0 time=0
note_on channel=0 note=62 velocity=0 time=0
note_on channel=0 note=55 velocity=61 time=0
note_on channel=0 note=43 velocity=61 time=0
control_change channel=0 control=64 value=127 time=194
note_on channel=0 note=43 velocity=0 time=46
note_on channel=0 note=55 velocity=0 time=0
<meta message set_tempo tempo=327869 time=240>
note_on channel=0 note=74 velocity=0 time=0
note_on channel=0 note=70 velocity=56 time=0
note_on channel=0 note=82 velocity=72 time=0
note_on channel=0 note=65 velocity=44 time=0
note_on channel=0 note=55 velocity=36 time=0
<meta message set_tempo tempo=324324 time=20>
<meta message set_tempo tempo=323450 time=40>
<meta message set_tempo tempo=322581 time=40>
<meta message set_tempo tempo=321716 time=40>
<meta message set_tempo tempo=320856 time=40>
<meta message set_tempo tempo=320000 time=20>
<meta message set_tempo tempo=319149 time=40>
note_on channel=0 note=74 velocity=69 time=0
<meta message set_tempo tempo=318302 time=40>
<meta message set_tempo tempo=317460 time=40>
<meta message set_tempo tempo=316623 time=20>
<meta message set_tempo tempo=304569 time=20>
<meta message set_tempo tempo=312500 time=120>
note_on channel=0 note=74 velocity=0 time=0
note_on channel=0 note=65 velocity=0 time=0
note_on channel=0 note=77 velocity=73 time=0
note_on channel=0 note=58 velocity=37 time=0
note_on channel=0 note=63 velocity=44 time=0
control_change channel=0 control=64 value=0 time=16
<meta message set_tempo tempo=321716 time=104>
<meta message set_tempo tempo=318302 time=120>
note_on channel=0 note=77 velocity=0 time=0
note_on channel=0 note=75 velocity=67 time=0
<meta message set_tempo tempo=310078 time=240>
note_on channel=0 note=75 velocity=0 time=0
note_on channel=0 note=63 velocity=0 time=0
note_on channel=0 note=70 velocity=0 time=0
note_on channel=0 note=55 velocity=0 time=0
note_on channel=0 note=82 velocity=0 time=0
note_on channel=0 note=58 velocity=0 time=0
note_on channel=0 note=53 velocity=63 time=0
note_on channel=0 note=41 velocity=63 time=0
control_change channel=0 control=64 value=127 time=114
note_on channel=0 note=41 velocity=0 time=126
note_on channel=0 note=53 velocity=0 time=0
<meta message set_tempo tempo=306122 time=240>
note_on channel=0 note=68 velocity=57 time=0
note_on channel=0 note=80 velocity=74 time=0
note_on channel=0 note=63 velocity=43 time=0
note_on channel=0 note=53 velocity=36 time=0
<meta message set_tempo tempo=305344 time=60>
<meta message set_tempo tempo=304569 time=60>
<meta message set_tempo tempo=303797 time=60>
<meta message set_tempo tempo=303030 time=60>
note_on channel=0 note=73 velocity=67 time=0
<meta message set_tempo tempo=302267 time=60>
<meta message set_tempo tempo=301508 time=40>
<meta message set_tempo tempo=295567 time=20>
note_on channel=0 note=73 velocity=0 time=120
note_on channel=0 note=63 velocity=0 time=0
note_on channel=0 note=75 velocity=74 time=0
note_on channel=0 note=56 velocity=36 time=0
note_on channel=0 note=59 velocity=36 time=0
note_on channel=0 note=62 velocity=43 time=0
control_change channel=0 control=64 value=0 time=15
<meta message set_tempo tempo=302267 time=105>
<meta message set_tempo tempo=306122 time=120>
note_on channel=0 note=75 velocity=0 time=0
note_on channel=0 note=74 velocity=67 time=0
<meta message set_tempo tempo=296296 time=240>
note_on channel=0 note=74 velocity=0 time=0
note_on channel=0 note=62 velocity=0 time=0
note_on channel=0 note=80 velocity=0 time=0
note_on channel=0 note=68 velocity=0 time=0
note_on channel=0 note=53 velocity=0 time=0
note_on channel=0 note=59 velocity=0 time=0
note_on channel=0 note=56 velocity=0 time=0
note_on channel=0 note=51 velocity=62 time=0
note_on channel=0 note=39 velocity=62 time=0
control_change channel=0 control=64 value=127 time=91
note_on channel=0 note=39 velocity=0 time=149
note_on channel=0 note=51 velocity=0 time=0
<meta message set_tempo tempo=295567 time=240>
note_on channel=0 note=67 velocity=57 time=0
note_on channel=0 note=79 velocity=75 time=0
note_on channel=0 note=62 velocity=45 time=0
note_on channel=0 note=51 velocity=38 time=0
<meta message set_tempo tempo=294840 time=60>
<meta message set_tempo tempo=294118 time=60>
<meta message set_tempo tempo=293399 time=60>
<meta message set_tempo tempo=292683 time=60>
note_on channel=0 note=71 velocity=71 time=0
<meta message set_tempo tempo=291971 time=60>
<meta message set_tempo tempo=291262 time=40>
<meta message set_tempo tempo=287770 time=20>
note_on channel=0 note=71 velocity=0 time=120
note_on channel=0 note=62 velocity=0 time=0
note_on channel=0 note=74 velocity=75 time=0
note_on channel=0 note=55 velocity=38 time=0
note_on channel=0 note=60 velocity=45 time=0
control_change channel=0 control=64 value=0 time=16
<meta message set_tempo tempo=290557 time=104>
note_on channel=0 note=74 velocity=0 time=120
note_on channel=0 note=72 velocity=70 time=0
<meta message set_tempo tempo=289855 time=240>
note_on channel=0 note=72 velocity=0 time=0
note_on channel=0 note=60 velocity=0 time=0
note_on channel=0 note=67 velocity=0 time=0
note_on channel=0 note=51 velocity=0 time=0
note_on channel=0 note=79 velocity=0 time=0
note_on channel=0 note=55 velocity=0 time=0
note_on channel=0 note=48 velocity=66 time=0
note_on channel=0 note=36 velocity=66 time=0
control_change channel=0 control=64 value=127 time=160
note_on channel=0 note=36 velocity=0 time=80
note_on channel=0 note=48 velocity=0 time=0
<meta message set_tempo tempo=284360 time=240>
note_on channel=0 note=60 velocity=57 time=0
note_on channel=0 note=72 velocity=75 time=0
note_on channel=0 note=58 velocity=44 time=0
note_on channel=0 note=48 velocity=37 time=0
note_on channel=0 note=68 velocity=69 time=240
<meta message set_tempo tempo=281030 time=120>
<meta message set_tempo tempo=277778 time=40>
note_on channel=0 note=68 velocity=0 time=80
note_on channel=0 note=58 velocity=0 time=0
note_on channel=0 note=70 velocity=76 time=0
note_on channel=0 note=51 velocity=37 time=0
note_on channel=0 note=57 velocity=44 time=0
control_change channel=0 control=64 value=0 time=15
<meta message set_tempo tempo=284360 time=105>
note_on channel=0 note=70 velocity=0 time=120
note_on channel=0 note=69 velocity=69 time=0
<meta message set_tempo tempo=282353 time=240>
note_on channel=0 note=69 velocity=0 time=0
note_on channel=0 note=57 velocity=0 time=0
note_on channel=0 note=60 velocity=0 time=0
note_on channel=0 note=48 velocity=0 time=0
note_on channel=0 note=72 velocity=0 time=0
note_on channel=0 note=51 velocity=0 time=0
note_on channel=0 note=38 velocity=64 time=0
control_change channel=0 control=64 value=127 time=149
note_on channel=0 note=38 velocity=0 time=91
<meta message set_tempo tempo=283688 time=240>
note_on channel=0 note=63 velocity=59 time=0
note_on channel=0 note=75 velocity=76 time=0
note_on channel=0 note=45 velocity=46 time=0
note_on channel=0 note=55 velocity=46 time=0
<meta message set_tempo tempo=278422 time=40>
note_on channel=0 note=71 velocity=73 time=200
<meta message set_tempo tempo=271493 time=120>
note_on channel=0 note=71 velocity=0 time=120
note_on channel=0 note=45 velocity=0 time=0
note_on channel=0 note=55 velocity=0 time=0
note_on channel=0 note=74 velocity=77 time=0
note_on channel=0 note=48 velocity=39 time=0
note_on channel=0 note=54 velocity=47 time=0
control_change channel=0 control=64 value=0 time=16
<meta message set_tempo tempo=277136 time=104>
note_on channel=0 note=74 velocity=0 time=120
note_on channel=0 note=72 velocity=71 time=0
<meta message set_tempo tempo=275229 time=240>
note_on channel=0 note=72 velocity=0 time=0
note_on channel=0 note=54 velocity=0 time=0
note_on channel=0 note=63 velocity=0 time=0
note_on channel=0 note=75 velocity=0 time=0
note_on channel=0 note=48 velocity=0 time=0
note_on channel=0 note=38 velocity=67 time=0
control_change channel=0 control=64 value=127 time=114
note_on channel=0 note=38 velocity=0 time=126
<meta message set_tempo tempo=272727 time=240>
note_on channel=0 note=54 velocity=78 time=0
note_on channel=0 note=66 velocity=78 time=0
note_on channel=0 note=45 velocity=51 time=0
note_on channel=0 note=51 velocity=51 time=0
note_on channel=0 note=61 velocity=71 time=240
<meta message set_tempo tempo=266075 time=120>
note_on channel=0 note=61 velocity=0 time=120
note_on channel=0 note=45 velocity=0 time=0
note_on channel=0 note=51 velocity=0 time=0
note_on channel=0 note=63 velocity=71 time=0
note_on channel=0 note=48 velocity=51 time=0
note_on channel=0 note=50 velocity=51 time=0
control_change channel=0 control=64 value=0 time=15
<meta message set_tempo tempo=276498 time=105>
note_on channel=0 note=63 velocity=0 time=120
note_on channel=0 note=62 velocity=71 time=0
<meta message time_signature numerator=6 denominator=8 clocks_per_click=12 notated_32nd_notes_per_beat=8 time=240>
<meta message set_tempo tempo=442804 time=0>
note_on channel=0 note=62 velocity=0 time=0
note_on channel=0 note=54 velocity=0 time=0
note_on channel=0 note=48 velocity=0 time=0
note_on channel=0 note=66 velocity=0 time=0
note_on channel=0 note=67 velocity=79 time=0
note_on channel=0 note=58 velocity=67 time=0
note_on channel=0 note=43 velocity=51 time=0
<meta message set_tempo tempo=428571 time=240>
note_on channel=0 note=43 velocity=0 time=0
note_on channel=0 note=50 velocity=0 time=0
note_on channel=0 note=67 velocity=0 time=0
note_on channel=0 note=58 velocity=0 time=0
note_on channel=0 note=60 velocity=78 time=0
note_on channel=0 note=55 velocity=53 time=0
note_on channel=0 note=31 velocity=32 time=0
note_on channel=0 note=43 velocity=38 time=0
note_on channel=0 note=55 velocity=0 time=120
note_on channel=0 note=60 velocity=0 time=0
note_on channel=0 note=58 velocity=65 time=0
note_on channel=0 note=58 velocity=0 time=120
note_on channel=0 note=31 velocity=0 time=0
note_on channel=0 note=43 velocity=0 time=0
note_on channel=0 note=57 velocity=64 time=0
note_on channel=0 note=57 velocity=0 time=120
note_on channel=0 note=55 velocity=65 time=0
<meta message set_tempo tempo=439560 time=120>
note_on channel=0 note=55 velocity=0 time=0
note_on channel=0 note=58 velocity=77 time=0
note_on channel=0 note=67 velocity=77 time=0
note_on channel=0 note=50 velocity=51 time=0
note_on channel=0 note=43 velocity=38 time=0
<meta message set_tempo tempo=428571 time=240>
note_on channel=0 note=43 velocity=0 time=0
note_on channel=0 note=58 velocity=0 time=0
note_on channel=0 note=67 velocity=0 time=0
note_on channel=0 note=50 velocity=0 time=0
note_on channel=0 note=60 velocity=77 time=0
note_on channel=0 note=55 velocity=52 time=0
note_on channel=0 note=43 velocity=32 time=0
note_on channel=0 note=51 velocity=43 time=0
note_on channel=0 note=51 velocity=0 time=120
note_on channel=0 note=60 velocity=0 time=0
note_on channel=0 note=55 velocity=0 time=0
note_on channel=0 note=58 velocity=64 time=0
note_on channel=0 note=50 velocity=45 time=0
note_on channel=0 note=50 velocity=0 time=120
note_on channel=0 note=58 velocity=0 time=0
note_on channel=0 note=57 velocity=64 time=0
note_on channel=0 note=57 velocity=0 time=120
note_on channel=0 note=55 velocity=63 time=0
<meta message set_tempo tempo=436364 time=120>
note_on channel=0 note=55 velocity=0 time=0
note_on channel=0 note=43 velocity=0 time=0
note_on channel=0 note=65 velocity=69 time=0
note_on channel=0 note=48 velocity=43 time=0
note_on channel=0 note=43 velocity=43 time=0
note_on channel=0 note=51 velocity=51 time=0
control_change channel=0 control=64 value=127 time=46
note_on channel=0 note=65 velocity=0 time=74
note_on channel=0 note=60 velocity=52 time=0
note_on channel=0 note=60 velocity=0 time=120
note_on channel=0 note=63 velocity=54 time=0
note_on channel=0 note=57 velocity=49 time=0
<meta message set_tempo tempo=428571 time=120>
note_on channel=0 note=63 velocity=0 time=0
note_on channel=0 note=54 velocity=55 time=0
note_on channel=0 note=54 velocity=0 time=120
note_on channel=0 note=60 velocity=57 time=0
note_on channel=0 note=60 velocity=0 time=120
note_on channel=0 note=63 velocity=58 time=0
<meta message set_tempo tempo=427046 time=120>
note_on channel=0 note=63 velocity=0 time=0
note_on channel=0 note=66 velocity=60 time=0
<meta message set_tempo tempo=425532 time=80>
note_on channel=0 note=66 velocity=0 time=40
note_on channel=0 note=72 velocity=62 time=0
<meta message set_tempo tempo=424028 time=40>
<meta message set_tempo tempo=422535 time=60>
note_on channel=0 note=72 velocity=0 time=20
note_on channel=0 note=57 velocity=0 time=0
note_on channel=0 note=48 velocity=0 time=0
note_on channel=0 note=43 velocity=0 time=0
note_on channel=0 note=51 velocity=0 time=0
note_on channel=0 note=77 velocity=63 time=0
note_on channel=0 note=43 velocity=43 time=0
note_on channel=0 note=55 velocity=51 time=0
control_change channel=0 control=64 value=0 time=11
<meta message set_tempo tempo=424028 time=49>
<meta message set_tempo tempo=425532 time=60>
note_on channel=0 note=77 velocity=0 time=0
note_on channel=0 note=75 velocity=65 time=0
<meta message set_tempo tempo=427046 time=60>
<meta message set_tempo tempo=428571 time=60>
note_on channel=0 note=75 velocity=0 time=0
note_on channel=0 note=55 velocity=0 time=0
note_on channel=0 note=43 velocity=0 time=0
note_on channel=0 note=74 velocity=67 time=0
note_on channel=0 note=63 velocity=55 time=0
note_on channel=0 note=51 velocity=46 time=0
<meta message set_tempo tempo=430108 time=60>
<meta message set_tempo tempo=431655 time=60>
note_on channel=0 note=74 velocity=0 time=0
note_on channel=0 note=72 velocity=68 time=0
<meta message set_tempo tempo=442804 time=120>
note_on channel=0 note=72 velocity=0 time=0
note_on channel=0 note=51 velocity=0 time=0
note_on channel=0 note=63 velocity=0 time=0
note_on channel=0 note=79 velocity=79 time=0
note_on channel=0 note=70 velocity=67 time=0
note_on channel=0 note=50 velocity=46 time=0
note_on channel=0 note=62 velocity=51 time=0
note_on channel=0 note=62 velocity=0 time=120
note_on channel=0 note=79 velocity=0 time=0
note_on channel=0 note=70 velocity=0 time=0
note_on channel=0 note=50 velocity=0 time=0
<meta message set_tempo tempo=428571 time=120>
note_on channel=0 note=67 velocity=53 time=0
note_on channel=0 note=72 velocity=78 time=0
note_on channel=0 note=43 velocity=32 time=0
note_on channel=0 note=55 velocity=38 time=0
note_on channel=0 note=72 velocity=0 time=120
note_on channel=0 note=67 velocity=0 time=0
note_on channel=0 note=70 velocity=65 time=0
note_on channel=0 note=70 velocity=0 time=120
note_on channel=0 note=69 velocity=64 time=0
note_on channel=0 note=69 velocity=0 time=120
note_on channel=0 note=67 velocity=65 time=0
<meta message set_tempo tempo=439560 time=120>
note_on channel=0 note=67 velocity=0 time=0
note_on channel=0 note=43 velocity=0 time=0
note_on channel=0 note=55 velocity=0 time=0
note_on channel=0 note=70 velocity=69 time=0
note_on channel=0 note=79 velocity=77 time=0
note_on channel=0 note=62 velocity=45 time=0
note_on channel=0 note=55 velocity=38 time=0
<meta message set_tempo tempo=428571 time=240>
note_on channel=0 note=55 velocity=0 time=0
note_on channel=0 note=70 velocity=0 time=0
note_on channel=0 note=79 velocity=0 time=0
note_on channel=0 note=62 velocity=0 time=0
note_on channel=0 note=72 velocity=77 time=0
note_on channel=0 note=67 velocity=52 time=0
note_on channel=0 note=55 velocity=32 time=0
note_on channel=0 note=63 velocity=43 time=0
note_on channel=0 note=63 velocity=0 time=120
note_on channel=0 note=72 velocity=0 time=0
note_on channel=0 note=67 velocity=0 time=0
note_on channel=0 note=70 velocity=64 time=0
note_on channel=0 note=62 velocity=45 time=0
note_on channel=0 note=62 velocity=0 time=120
note_on channel=0 note=70 velocity=0 time=0
note_on channel=0 note=69 velocity=64 time=0
note_on channel=0 note=69 velocity=0 time=120
note_on channel=0 note=67 velocity=63 time=0
<meta message set_tempo tempo=436364 time=120>
note_on channel=0 note=67 velocity=0 time=0
note_on channel=0 note=55 velocity=0 time=0
note_on channel=0 note=77 velocity=69 time=0
note_on channel=0 note=60 velocity=43 time=0
note_on channel=0 note=55 velocity=43 time=0
note_on channel=0 note=63 velocity=51 time=0
control_change channel=0 control=64 value=127 time=63
note_on channel=0 note=77 velocity=0 time=57
note_on channel=0 note=72 velocity=52 time=0
note_on channel=0 note=72 velocity=0 time=120
note_on channel=0 note=75 velocity=54 time=0
note_on channel=0 note=69 velocity=49 time=0
<meta message set_tempo tempo=428571 time=120>
note_on channel=0 note=75 velocity=0 time=0
note_on channel=0 note=66 velocity=55 time=0
note_on channel=0 note=66 velocity=0 time=120
note_on channel=0 note=72 velocity=57 time=0
note_on channel=0 note=72 velocity=0 time=120
note_on channel=0 note=75 velocity=58 time=0
<meta message set_tempo tempo=427046 time=120>
note_on channel=0 note=75 velocity=0 time=0
note_on channel=0 note=78 velocity=60 time=0
<meta message set_tempo tempo=425532 time=80>
note_on channel=0 note=78 velocity=0 time=40
note_on channel=0 note=84 velocity=62 time=0
<meta message set_tempo tempo=424028 time=40>
<meta message set_tempo tempo=422535 time=60>
note_on channel=0 note=84 velocity=0 time=20
note_on channel=0 note=69 velocity=0 time=0
note_on channel=0 note=60 velocity=0 time=0
note_on channel=0 note=55 velocity=0 time=0
note_on channel=0 note=63 velocity=0 time=0
note_on channel=0 note=89 velocity=63 time=0
note_on channel=0 note=55 velocity=43 time=0
note_on channel=0 note=67 velocity=51 time=0
control_change channel=0 control=64 value=0 time=10
<meta message set_tempo tempo=424028 time=50>
<meta message set_tempo tempo=425532 time=60>
note_on channel=0 note=89 velocity=0 time=0
note_on channel=0 note=87 velocity=65 time=0
<meta message set_tempo tempo=427046 time=60>
<meta message set_tempo tempo=428571 time=60>
note_on channel=0 note=87 velocity=0 time=0
note_on channel=0 note=67 velocity=0 time=0
note_on channel=0 note=55 velocity=0 time=0
note_on channel=0 note=86 velocity=67 time=0
note_on channel=0 note=75 velocity=55 time=0
note_on channel=0 note=63 velocity=46 time=0
<meta message set_tempo tempo=430108 time=60>
<meta message set_tempo tempo=431655 time=60>
note_on channel=0 note=86 velocity=0 time=0
note_on channel=0 note=84 velocity=68 time=0
<meta message set_tempo tempo=442804 time=120>
note_on channel=0 note=84 velocity=0 time=0
note_on channel=0 note=63 velocity=0 time=0
note_on channel=0 note=75 velocity=0 time=0
note_on channel=0 note=91 velocity=76 time=0
note_on channel=0 note=82 velocity=64 time=0
note_on channel=0 note=67 velocity=55 time=0
note_on channel=0 note=74 velocity=55 time=0
note_on channel=0 note=74 velocity=0 time=120
note_on channel=0 note=91 velocity=0 time=0
note_on channel=0 note=82 velocity=0 time=0
note_on channel=0 note=67 velocity=0 time=0
<meta message set_tempo tempo=430108 time=240>
note_on channel=0 note=91 velocity=63 time=0
note_on channel=0 note=96 velocity=75 time=0
note_on channel=0 note=96 velocity=0 time=120
note_on channel=0 note=91 velocity=0 time=0
note_on channel=0 note=94 velocity=68 time=0
note_on channel=0 note=94 velocity=0 time=120
note_on channel=0 note=86 velocity=68 time=0
note_on channel=0 note=86 velocity=0 time=120
note_on channel=0 note=94 velocity=73 time=0
note_on channel=0 note=90 velocity=62 time=0
note_on channel=0 note=75 velocity=66 time=0
note_on channel=0 note=63 velocity=38 time=0
note_on channel=0 note=66 velocity=38 time=0
note_on channel=0 note=69 velocity=48 time=0
<meta message set_tempo tempo=425532 time=20>
control_change channel=0 control=64 value=127 time=83
note_on channel=0 note=90 velocity=0 time=17
note_on channel=0 note=94 velocity=0 time=0
note_on channel=0 note=93 velocity=67 time=0
<meta message set_tempo tempo=424028 time=20>
note_on channel=0 note=93 velocity=0 time=100
note_on channel=0 note=75 velocity=0 time=0
note_on channel=0 note=63 velocity=0 time=0
note_on channel=0 note=69 velocity=0 time=0
note_on channel=0 note=66 velocity=0 time=0
note_on channel=0 note=86 velocity=66 time=0
note_on channel=0 note=74 velocity=52 time=0
<meta message set_tempo tempo=422535 time=20>
<meta message set_tempo tempo=424028 time=60>
<meta message set_tempo tempo=425532 time=40>
note_on channel=0 note=86 velocity=0 time=0
note_on channel=0 note=78 velocity=60 time=0
note_on channel=0 note=82 velocity=71 time=0
<meta message set_tempo tempo=427046 time=60>
<meta message set_tempo tempo=428571 time=40>
note_on channel=0 note=82 velocity=0 time=20
note_on channel=0 note=78 velocity=0 time=0
note_on channel=0 note=74 velocity=0 time=0
note_on channel=0 note=81 velocity=64 time=0
note_on channel=0 note=62 velocity=52 time=0
note_on channel=0 note=81 velocity=0 time=120
note_on channel=0 note=74 velocity=64 time=0
<meta message set_tempo tempo=441176 time=120>
note_on channel=0 note=74 velocity=0 time=0
note_on channel=0 note=62 velocity=0 time=0
note_on channel=0 note=84 velocity=66 time=0
note_on channel=0 note=79 velocity=56 time=0
note_on channel=0 note=55 velocity=55 time=0
control_change channel=0 control=64 value=0 time=11
control_change channel=0 control=64 value=127 time=81
note_on channel=0 note=55 velocity=0 time=28
note_on channel=0 note=79 velocity=0 time=0
note_on channel=0 note=84 velocity=0 time=0
note_on channel=0 note=82 velocity=60 time=0
<meta message set_tempo tempo=451128 time=120>
note_on channel=0 note=82 velocity=0 time=0
note_on channel=0 note=86 velocity=60 time=0
note_on channel=0 note=62 velocity=51 time=0
<meta message set_tempo tempo=430108 time=120>
note_on channel=0 note=86 velocity=0 time=0
note_on channel=0 note=91 velocity=62 time=0
note_on channel=0 note=96 velocity=74 time=0
note_on channel=0 note=96 velocity=0 time=120
note_on channel=0 note=91 velocity=0 time=0
note_on channel=0 note=94 velocity=68 time=0
note_on channel=0 note=74 velocity=51 time=0
<meta message set_tempo tempo=422535 time=40>
note_on channel=0 note=94 velocity=0 time=80
note_on channel=0 note=86 velocity=69 time=0
note_on channel=0 note=86 velocity=0 time=120
note_on channel=0 note=74 velocity=0 time=0
note_on channel=0 note=62 velocity=0 time=0
note_on channel=0 note=94 velocity=71 time=0
note_on channel=0 note=90 velocity=60 time=0
note_on channel=0 note=66 velocity=38 time=0
note_on channel=0 note=63 velocity=38 time=0
note_on channel=0 note=75 velocity=66 time=0
note_on channel=0 note=69 velocity=48 time=0
control_change channel=0 control=64 value=0 time=15
note_on channel=0 note=90 velocity=0 time=105
note_on channel=0 note=94 velocity=0 time=0
note_on channel=0 note=93 velocity=64 time=0
control_change channel=0 control=64 value=127 time=0
<meta message set_tempo tempo=421053 time=40>
<meta message set_tempo tempo=422535 time=40>
note_on channel=0 note=93 velocity=0 time=40
note_on channel=0 note=66 velocity=0 time=0
note_on channel=0 note=63 velocity=0 time=0
note_on channel=0 note=69 velocity=0 time=0
note_on channel=0 note=75 velocity=0 time=0
note_on channel=0 note=86 velocity=63 time=0
note_on channel=0 note=74 velocity=50 time=0
<meta message set_tempo tempo=421053 time=20>
<meta message set_tempo tempo=422535 time=60>
note_on channel=0 note=86 velocity=0 time=40
note_on channel=0 note=78 velocity=56 time=0
note_on channel=0 note=82 velocity=66 time=0
<meta message set_tempo tempo=424028 time=20>
<meta message set_tempo tempo=425532 time=60>
<meta message set_tempo tempo=427046 time=40>
note_on channel=0 note=82 velocity=0 time=0
note_on channel=0 note=78 velocity=0 time=0
note_on channel=0 note=74 velocity=0 time=0
note_on channel=0 note=81 velocity=60 time=0
note_on channel=0 note=62 velocity=53 time=0
note_on channel=0 note=81 velocity=0 time=120
note_on channel=0 note=74 velocity=60 time=0
<meta message set_tempo tempo=441176 time=120>
note_on channel=0 note=74 velocity=0 time=0
note_on channel=0 note=62 velocity=0 time=0
note_on channel=0 note=79 velocity=56 time=0
note_on channel=0 note=84 velocity=66 time=0
note_on channel=0 note=55 velocity=55 time=0
control_change channel=0 control=64 value=0 time=5
control_change channel=0 control=64 value=0 time=8
control_change channel=0 control=64 value=127 time=84
note_on channel=0 note=84 velocity=0 time=23
note_on channel=0 note=79 velocity=0 time=0
note_on channel=0 note=82 velocity=60 time=0
<meta message set_tempo tempo=451128 time=120>
note_on channel=0 note=82 velocity=0 time=0
note_on channel=0 note=55 velocity=0 time=0
note_on channel=0 note=86 velocity=60 time=0
<meta message set_tempo tempo=430108 time=120>
note_on channel=0 note=86 velocity=0 time=0
note_on channel=0 note=91 velocity=62 time=0
note_on channel=0 note=96 velocity=74 time=0
<meta message set_tempo tempo=425532 time=100>
note_on channel=0 note=96 velocity=0 time=20
note_on channel=0 note=91 velocity=0 time=0
note_on channel=0 note=94 velocity=68 time=0
note_on channel=0 note=50 velocity=51 time=0
note_on channel=0 note=94 velocity=0 time=120
note_on channel=0 note=86 velocity=69 time=0
note_on channel=0 note=86 velocity=0 time=120
note_on channel=0 note=50 velocity=0 time=0
note_on channel=0 note=94 velocity=71 time=0
note_on channel=0 note=90 velocity=60 time=0
note_on channel=0 note=54 velocity=38 time=0
note_on channel=0 note=63 velocity=66 time=0
note_on channel=0 note=57 velocity=48 time=0
note_on channel=0 note=51 velocity=38 time=0
control_change channel=0 control=64 value=0 time=16
note_on channel=0 note=90 velocity=0 time=104
note_on channel=0 note=94 velocity=0 time=0
note_on channel=0 note=93 velocity=64 time=0
control_change channel=0 control=64 value=127 time=0
<meta message set_tempo tempo=425532 time=100>
note_on channel=0 note=93 velocity=0 time=20
note_on channel=0 note=54 velocity=0 time=0
note_on channel=0 note=63 velocity=0 time=0
note_on channel=0 note=51 velocity=0 time=0
note_on channel=0 note=57 velocity=0 time=0
note_on channel=0 note=86 velocity=63 time=0
note_on channel=0 note=62 velocity=50 time=0
<meta message set_tempo tempo=427046 time=100>
note_on channel=0 note=86 velocity=0 time=20
note_on channel=0 note=78 velocity=56 time=0
note_on channel=0 note=82 velocity=66 time=0
<meta message set_tempo tempo=428571 time=80>
note_on channel=0 note=82 velocity=0 time=40
note_on channel=0 note=78 velocity=0 time=0
note_on channel=0 note=62 velocity=0 time=0
note_on channel=0 note=81 velocity=60 time=0
note_on channel=0 note=50 velocity=53 time=0
note_on channel=0 note=81 velocity=0 time=120
note_on channel=0 note=74 velocity=60 time=0
<meta message set_tempo tempo=441176 time=120>
note_on channel=0 note=74 velocity=0 time=0
note_on channel=0 note=50 velocity=0 time=0
note_on channel=0 note=72 velocity=59 time=0
note_on channel=0 note=67 velocity=50 time=0
note_on channel=0 note=43 velocity=49 time=0
control_change channel=0 control=64 value=0 time=7
control_change channel=0 control=64 value=127 time=102
note_on channel=0 note=43 velocity=0 time=11
note_on channel=0 note=67 velocity=0 time=0
note_on channel=0 note=72 velocity=0 time=0
note_on channel=0 note=70 velocity=54 time=0
<meta message set_tempo tempo=451128 time=120>
note_on channel=0 note=70 velocity=0 time=0
note_on channel=0 note=74 velocity=54 time=0
note_on channel=0 note=50 velocity=45 time=0
<meta message set_tempo tempo=430108 time=120>
note_on channel=0 note=74 velocity=0 time=0
note_on channel=0 note=84 velocity=66 time=0
note_on channel=0 note=79 velocity=55 time=0
note_on channel=0 note=79 velocity=0 time=120
note_on channel=0 note=84 velocity=0 time=0
note_on channel=0 note=82 velocity=61 time=0
note_on channel=0 note=62 velocity=45 time=0
note_on channel=0 note=82 velocity=0 time=120
note_on channel=0 note=74 velocity=62 time=0
<meta message set_tempo tempo=430108 time=120>
note_on channel=0 note=74 velocity=0 time=0
note_on channel=0 note=62 velocity=0 time=0
note_on channel=0 note=50 velocity=0 time=0
note_on channel=0 note=82 velocity=63 time=0
note_on channel=0 note=78 velocity=54 time=0
note_on channel=0 note=63 velocity=57 time=0
note_on channel=0 note=51 velocity=34 time=0
note_on channel=0 note=54 velocity=34 time=0
note_on channel=0 note=57 velocity=42 time=0
control_change channel=0 control=64 value=0 time=16
control_change channel=0 control=64 value=127 time=70
<meta message set_tempo tempo=428571 time=14>
note_on channel=0 note=78 velocity=0 time=20
note_on channel=0 note=82 velocity=0 time=0
note_on channel=0 note=81 velocity=57 time=0
<meta message set_tempo tempo=427046 time=60>
note_on channel=0 note=81 velocity=0 time=60
note_on channel=0 note=63 velocity=0 time=0
note_on channel=0 note=51 velocity=0 time=0
note_on channel=0 note=57 velocity=0 time=0
note_on channel=0 note=54 velocity=0 time=0
note_on channel=0 note=74 velocity=56 time=0
note_on channel=0 note=62 velocity=45 time=0
<meta message set_tempo tempo=425532 time=20>
<meta message set_tempo tempo=427046 time=60>
<meta message set_tempo tempo=428571 time=40>
note_on channel=0 note=74 velocity=0 time=0
note_on channel=0 note=70 velocity=59 time=0
note_on channel=0 note=66 velocity=50 time=0
<meta message set_tempo tempo=430108 time=60>
<meta message set_tempo tempo=431655 time=40>
note_on channel=0 note=66 velocity=0 time=20
note_on channel=0 note=70 velocity=0 time=0
note_on channel=0 note=62 velocity=0 time=0
note_on channel=0 note=69 velocity=54 time=0
note_on channel=0 note=50 velocity=47 time=0
note_on channel=0 note=69 velocity=0 time=120
note_on channel=0 note=62 velocity=54 time=0
<meta message set_tempo tempo=441176 time=120>
note_on channel=0 note=62 velocity=0 time=0
note_on channel=0 note=50 velocity=0 time=0
note_on channel=0 note=72 velocity=59 time=0
note_on channel=0 note=67 velocity=50 time=0
note_on channel=0 note=43 velocity=58 time=0
control_change channel=0 control=64 value=0 time=5
control_change channel=0 control=64 value=127 time=101
note_on channel=0 note=67 velocity=0 time=14
note_on channel=0 note=72 velocity=0 time=0
note_on channel=0 note=70 velocity=54 time=0
<meta message set_tempo tempo=451128 time=120>
note_on channel=0 note=70 velocity=0 time=0
note_on channel=0 note=43 velocity=0 time=0
note_on channel=0 note=74 velocity=54 time=0
note_on channel=0 note=58 velocity=45 time=0
note_on channel=0 note=50 velocity=45 time=0
<meta message set_tempo tempo=430108 time=120>
note_on channel=0 note=74 velocity=0 time=0
note_on channel=0 note=84 velocity=59 time=0
note_on channel=0 note=79 velocity=49 time=0
note_on channel=0 note=79 velocity=0 time=120
note_on channel=0 note=58 velocity=0 time=0
note_on channel=0 note=50 velocity=0 time=0
note_on channel=0 note=84 velocity=0 time=0
note_on channel=0 note=82 velocity=54 time=0
<meta message set_tempo tempo=444444 time=120>
note_on channel=0 note=82 velocity=0 time=0
note_on channel=0 note=74 velocity=55 time=0
<meta message set_tempo tempo=430108 time=120>
note_on channel=0 note=74 velocity=0 time=0
note_on channel=0 note=81 velocity=56 time=0
note_on channel=0 note=74 velocity=48 time=0
note_on channel=0 note=37 velocity=46 time=0
note_on channel=0 note=49 velocity=58 time=0
control_change channel=0 control=64 value=0 time=15
note_on channel=0 note=74 velocity=0 time=105
note_on channel=0 note=81 velocity=0 time=0
note_on channel=0 note=79 velocity=51 time=0
note_on channel=0 note=79 velocity=0 time=120
note_on channel=0 note=37 velocity=0 time=0
note_on channel=0 note=49 velocity=0 time=0
note_on channel=0 note=70 velocity=50 time=0
note_on channel=0 note=38 velocity=39 time=0
note_on channel=0 note=50 velocity=45 time=0
note_on channel=0 note=70 velocity=0 time=120
note_on channel=0 note=75 velocity=53 time=0
note_on channel=0 note=70 velocity=45 time=0
note_on channel=0 note=70 velocity=0 time=120
note_on channel=0 note=38 velocity=0 time=0
note_on channel=0 note=50 velocity=0 time=0
note_on channel=0 note=75 velocity=0 time=0
note_on channel=0 note=74 velocity=48 time=0
note_on channel=0 note=74 velocity=0 time=120
note_on channel=0 note=67 velocity=48 time=0
<meta message set_tempo tempo=441176 time=120>
note_on channel=0 note=67 velocity=0 time=0
note_on channel=0 note=72 velocity=45 time=0
note_on channel=0 note=67 velocity=38 time=0
note_on channel=0 note=43 velocity=49 time=0
note_on channel=0 note=31 velocity=49 time=0
control_change channel=0 control=64 value=0 time=7
note_on channel=0 note=67 velocity=0 time=113
note_on channel=0 note=72 velocity=0 time=0
note_on channel=0 note=70 velocity=40 time=0
control_change channel=0 control=64 value=127 time=14
<meta message set_tempo tempo=451128 time=106>
note_on channel=0 note=70 velocity=0 time=0
note_on channel=0 note=43 velocity=0 time=0
note_on channel=0 note=31 velocity=0 time=0
note_on channel=0 note=62 velocity=40 time=0
note_on channel=0 note=46 velocity=38 time=0
<meta message set_tempo tempo=430108 time=120>
note_on channel=0 note=62 velocity=0 time=0
note_on channel=0 note=62 velocity=41 time=0
note_on channel=0 note=69 velocity=50 time=0
note_on channel=0 note=69 velocity=0 time=120
note_on channel=0 note=62 velocity=0 time=0
note_on channel=0 note=46 velocity=0 time=0
note_on channel=0 note=67 velocity=45 time=0
<meta message set_tempo tempo=446097 time=120>
note_on channel=0 note=67 velocity=0 time=0
note_on channel=0 note=58 velocity=46 time=0
<meta message set_tempo tempo=430108 time=120>
note_on channel=0 note=58 velocity=0 time=0
note_on channel=0 note=63 velocity=47 time=0
note_on channel=0 note=58 velocity=40 time=0
note_on channel=0 note=37 velocity=49 time=0
control_change channel=0 control=64 value=0 time=15
note_on channel=0 note=58 velocity=0 time=105
note_on channel=0 note=63 velocity=0 time=0
note_on channel=0 note=62 velocity=43 time=0
note_on channel=0 note=62 velocity=0 time=120
note_on channel=0 note=37 velocity=0 time=0
note_on channel=0 note=55 velocity=42 time=0
note_on channel=0 note=38 velocity=38 time=0
note_on channel=0 note=55 velocity=0 time=120
note_on channel=0 note=55 velocity=38 time=0
note_on channel=0 note=60 velocity=45 time=0
note_on channel=0 note=60 velocity=0 time=120
note_on channel=0 note=55 velocity=0 time=0
note_on channel=0 note=38 velocity=0 time=0
note_on channel=0 note=58 velocity=40 time=0
<meta message set_tempo tempo=437956 time=120>
note_on channel=0 note=58 velocity=0 time=0
note_on channel=0 note=50 velocity=40 time=0
<meta message set_tempo tempo=441176 time=120>
note_on channel=0 note=50 velocity=0 time=0
note_on channel=0 note=55 velocity=45 time=0
note_on channel=0 note=60 velocity=53 time=0
note_on channel=0 note=43 velocity=49 time=0
note_on channel=0 note=31 velocity=49 time=0
control_change channel=0 control=64 value=127 time=40
note_on channel=0 note=60 velocity=0 time=80
note_on channel=0 note=55 velocity=0 time=0
note_on channel=0 note=58 velocity=48 time=0
<meta message set_tempo tempo=451128 time=120>
note_on channel=0 note=58 velocity=0 time=0
note_on channel=0 note=43 velocity=0 time=0
note_on channel=0 note=31 velocity=0 time=0
note_on channel=0 note=50 velocity=48 time=0
<meta message set_tempo tempo=430108 time=120>
note_on channel=0 note=50 velocity=0 time=0
note_on channel=0 note=55 velocity=46 time=0
note_on channel=0 note=62 velocity=55 time=0
note_on channel=0 note=62 velocity=0 time=120
note_on channel=0 note=55 velocity=0 time=0
note_on channel=0 note=60 velocity=50 time=0
note_on channel=0 note=36 velocity=45 time=0
control_change channel=0 control=64 value=0 time=11
<meta message set_tempo tempo=446097 time=109>
note_on channel=0 note=60 velocity=0 time=0
note_on channel=0 note=51 velocity=51 time=0
<meta message set_tempo tempo=430108 time=120>
note_on channel=0 note=51 velocity=0 time=0
note_on channel=0 note=36 velocity=0 time=0
note_on channel=0 note=55 velocity=45 time=0
note_on channel=0 note=60 velocity=54 time=0
note_on channel=0 note=31 velocity=49 time=0
note_on channel=0 note=43 velocity=49 time=0
control_change channel=0 control=64 value=127 time=71
note_on channel=0 note=60 velocity=0 time=49
note_on channel=0 note=55 velocity=0 time=0
note_on channel=0 note=58 velocity=50 time=0
note_on channel=0 note=58 velocity=0 time=120
note_on channel=0 note=31 velocity=0 time=0
note_on channel=0 note=43 velocity=0 time=0
note_on channel=0 note=50 velocity=50 time=0
note_on channel=0 note=50 velocity=0 time=120
note_on channel=0 note=55 velocity=45 time=0
note_on channel=0 note=62 velocity=53 time=0
note_on channel=0 note=62 velocity=0 time=120
note_on channel=0 note=55 velocity=0 time=0
note_on channel=0 note=60 velocity=48 time=0
note_on channel=0 note=36 velocity=45 time=0
control_change channel=0 control=64 value=0 time=15
<meta message set_tempo tempo=442804 time=105>
note_on channel=0 note=60 velocity=0 time=0
note_on channel=0 note=51 velocity=48 time=0
<meta message set_tempo tempo=441176 time=120>
note_on channel=0 note=51 velocity=0 time=0
note_on channel=0 note=36 velocity=0 time=0
note_on channel=0 note=55 velocity=45 time=0
note_on channel=0 note=60 velocity=53 time=0
note_on channel=0 note=31 velocity=49 time=0
note_on channel=0 note=43 velocity=49 time=0
control_change channel=0 control=64 value=127 time=40
note_on channel=0 note=60 velocity=0 time=80
note_on channel=0 note=55 velocity=0 time=0
note_on channel=0 note=58 velocity=48 time=0
<meta message set_tempo tempo=451128 time=120>
note_on channel=0 note=58 velocity=0 time=0
note_on channel=0 note=31 velocity=0 time=0
note_on channel=0 note=43 velocity=0 time=0
note_on channel=0 note=50 velocity=48 time=0
<meta message set_tempo tempo=430108 time=120>
note_on channel=0 note=50 velocity=0 time=0
note_on channel=0 note=62 velocity=55 time=0
note_on channel=0 note=55 velocity=46 time=0
note_on channel=0 note=55 velocity=0 time=120
note_on channel=0 note=62 velocity=0 time=0
note_on channel=0 note=60 velocity=50 time=0
note_on channel=0 note=36 velocity=45 time=0
control_change channel=0 control=64 value=0 time=14
<meta message set_tempo tempo=446097 time=106>
note_on channel=0 note=60 velocity=0 time=0
note_on channel=0 note=51 velocity=51 time=0
<meta message set_tempo tempo=430108 time=120>
note_on channel=0 note=51 velocity=0 time=0
note_on channel=0 note=36 velocity=0 time=0
note_on channel=0 note=55 velocity=45 time=0
note_on channel=0 note=60 velocity=54 time=0
note_on channel=0 note=43 velocity=49 time=0
note_on channel=0 note=31 velocity=49 time=0
control_change channel=0 control=64 value=127 time=71
note_on channel=0 note=60 velocity=0 time=49
note_on channel=0 note=55 velocity=0 time=0
note_on channel=0 note=58 velocity=50 time=0
note_on channel=0 note=58 velocity=0 time=120
note_on channel=0 note=43 velocity=0 time=0
note_on channel=0 note=31 velocity=0 time=0
note_on channel=0 note=50 velocity=50 time=0
note_on channel=0 note=50 velocity=0 time=120
note_on channel=0 note=62 velocity=53 time=0
note_on channel=0 note=55 velocity=45 time=0
note_on channel=0 note=55 velocity=0 time=120
note_on channel=0 note=62 velocity=0 time=0
note_on channel=0 note=60 velocity=48 time=0
note_on channel=0 note=36 velocity=45 time=0
control_change channel=0 control=64 value=0 time=11
<meta message set_tempo tempo=442804 time=109>
note_on channel=0 note=60 velocity=0 time=0
note_on channel=0 note=51 velocity=48 time=0
<meta message set_tempo tempo=463320 time=120>
note_on channel=0 note=51 velocity=0 time=0
note_on channel=0 note=36 velocity=0 time=0
note_on channel=0 note=55 velocity=50 time=0
note_on channel=0 note=31 velocity=41 time=0
note_on channel=0 note=43 velocity=49 time=0
<meta message set_tempo tempo=461538 time=60>
control_change channel=0 control=64 value=127 time=53
<meta message set_tempo tempo=459770 time=7>
note_on channel=0 note=55 velocity=0 time=0
note_on channel=0 note=62 velocity=51 time=0
<meta message set_tempo tempo=458015 time=40>
<meta message set_tempo tempo=456274 time=60>
note_on channel=0 note=62 velocity=0 time=20
note_on channel=0 note=58 velocity=52 time=0
<meta message set_tempo tempo=454545 time=20>
<meta message set_tempo tempo=452830 time=60>
<meta message set_tempo tempo=451128 time=40>
note_on channel=0 note=58 velocity=0 time=0
note_on channel=0 note=62 velocity=53 time=0
<meta message set_tempo tempo=449438 time=60>
<meta message set_tempo tempo=447761 time=60>
note_on channel=0 note=62 velocity=0 time=0
note_on channel=0 note=67 velocity=55 time=0
<meta message set_tempo tempo=446097 time=40>
<meta message set_tempo tempo=444444 time=60>
note_on channel=0 note=67 velocity=0 time=20
note_on channel=0 note=70 velocity=56 time=0
<meta message set_tempo tempo=442804 time=20>
<meta message set_tempo tempo=441176 time=60>
<meta message set_tempo tempo=439560 time=40>
note_on channel=0 note=70 velocity=0 time=0
note_on channel=0 note=43 velocity=0 time=0
note_on channel=0 note=31 velocity=0 time=0
note_on channel=0 note=74 velocity=57 time=0
<meta message set_tempo tempo=441176 time=60>
<meta message set_tempo tempo=442804 time=40>
note_on channel=0 note=74 velocity=0 time=20
note_on channel=0 note=79 velocity=58 time=0
<meta message set_tempo tempo=444444 time=20>
<meta message set_tempo tempo=446097 time=60>
<meta message set_tempo tempo=447761 time=40>
note_on channel=0 note=79 velocity=0 time=0
note_on channel=0 note=82 velocity=59 time=0
note_on channel=0 note=62 velocity=48 time=0
note_on channel=0 note=67 velocity=57 time=0
<meta message set_tempo tempo=449438 time=40>
<meta message set_tempo tempo=451128 time=60>
note_on channel=0 note=82 velocity=0 time=20
note_on channel=0 note=86 velocity=61 time=0
<meta message set_tempo tempo=452830 time=20>
<meta message set_tempo tempo=454545 time=40>
<meta message set_tempo tempo=456274 time=40>
note_on channel=0 note=67 velocity=0 time=0
note_on channel=0 note=62 velocity=0 time=0
<meta message set_tempo tempo=474308 time=20>
note_on channel=0 note=86 velocity=0 time=0
note_on channel=0 note=91 velocity=62 time=0
note_on channel=0 note=62 velocity=53 time=0
note_on channel=0 note=55 velocity=45 time=0
note_on channel=0 note=91 velocity=0 time=120
note_on channel=0 note=98 velocity=63 time=0
note_on channel=0 note=55 velocity=0 time=100
note_on channel=0 note=62 velocity=0 time=0
<meta message set_tempo tempo=469410 time=20>
note_on channel=0 note=98 velocity=0 time=0
note_on channel=0 note=94 velocity=63 time=0
note_on channel=0 note=62 velocity=48 time=0
note_on channel=0 note=67 velocity=57 time=0
<meta message set_tempo tempo=466926 time=20>
<meta message set_tempo tempo=465116 time=60>
note_on channel=0 note=94 velocity=0 time=40
note_on channel=0 note=98 velocity=60 time=0
<meta message set_tempo tempo=463320 time=20>
<meta message set_tempo tempo=461538 time=60>
note_on channel=0 note=98 velocity=0 time=40
note_on channel=0 note=91 velocity=59 time=0
<meta message set_tempo tempo=459770 time=20>
<meta message set_tempo tempo=458015 time=60>
note_on channel=0 note=91 velocity=0 time=40
note_on channel=0 note=86 velocity=58 time=0
<meta message set_tempo tempo=456274 time=20>
<meta message set_tempo tempo=454545 time=60>
note_on channel=0 note=86 velocity=0 time=40
note_on channel=0 note=67 velocity=0 time=0
note_on channel=0 note=62 velocity=0 time=0
note_on channel=0 note=82 velocity=58 time=0
<meta message set_tempo tempo=452830 time=20>
<meta message set_tempo tempo=451128 time=60>
note_on channel=0 note=82 velocity=0 time=40
note_on channel=0 note=79 velocity=57 time=0
<meta message set_tempo tempo=449438 time=20>
<meta message set_tempo tempo=447761 time=60>
<meta message set_tempo tempo=446097 time=40>
note_on channel=0 note=79 velocity=0 time=0
note_on channel=0 note=74 velocity=56 time=0
<meta message set_tempo tempo=447761 time=60>
<meta message set_tempo tempo=449438 time=40>
note_on channel=0 note=74 velocity=0 time=20
note_on channel=0 note=70 velocity=56 time=0
<meta message set_tempo tempo=451128 time=40>
<meta message set_tempo tempo=452830 time=40>
<meta message set_tempo tempo=454545 time=40>
note_on channel=0 note=70 velocity=0 time=0
note_on channel=0 note=67 velocity=55 time=0
<meta message set_tempo tempo=456274 time=60>
<meta message set_tempo tempo=458015 time=40>
note_on channel=0 note=67 velocity=0 time=20
note_on channel=0 note=62 velocity=54 time=0
<meta message set_tempo tempo=459770 time=40>
<meta message set_tempo tempo=461538 time=40>
<meta message set_tempo tempo=495868 time=40>
note_on channel=0 note=62 velocity=0 time=0
note_on channel=0 note=58 velocity=53 time=0
note_on channel=0 note=38 velocity=49 time=0
control_change channel=0 control=64 value=0 time=14
note_on channel=0 note=58 velocity=0 time=106
note_on channel=0 note=50 velocity=53 time=0
control_change channel=0 control=64 value=127 time=0
note_on channel=0 note=50 velocity=0 time=120
note_on channel=0 note=38 velocity=0 time=0
note_on channel=0 note=55 velocity=49 time=0
note_on channel=0 note=31 velocity=44 time=0
note_on channel=0 note=43 velocity=52 time=0
control_change channel=0 control=64 value=0 time=14
<meta message set_tempo tempo=476417 time=6>
control_change channel=0 control=64 value=127 time=51
<meta message set_tempo tempo=474646 time=9>
note_on channel=0 note=55 velocity=0 time=40
note_on channel=0 note=62 velocity=50 time=0
<meta message set_tempo tempo=472888 time=20>
<meta message set_tempo tempo=471143 time=60>
note_on channel=0 note=62 velocity=0 time=40
note_on channel=0 note=58 velocity=52 time=0
<meta message set_tempo tempo=469410 time=20>
<meta message set_tempo tempo=467727 time=60>
<meta message set_tempo tempo=466019 time=40>
note_on channel=0 note=58 velocity=0 time=0
note_on channel=0 note=62 velocity=54 time=0
<meta message set_tempo tempo=464324 time=60>
<meta message set_tempo tempo=462642 time=60>
note_on channel=0 note=62 velocity=0 time=0
note_on channel=0 note=67 velocity=55 time=0
<meta message set_tempo tempo=460971 time=60>
<meta message set_tempo tempo=459348 time=60>
note_on channel=0 note=67 velocity=0 time=0
note_on channel=0 note=74 velocity=57 time=0
<meta message set_tempo tempo=457701 time=40>
<meta message set_tempo tempo=459348 time=60>
<meta message set_tempo tempo=459348 time=20>
note_on channel=0 note=74 velocity=0 time=0
note_on channel=0 note=70 velocity=57 time=0
<meta message set_tempo tempo=460971 time=20>
<meta message set_tempo tempo=462642 time=20>
<meta message set_tempo tempo=466019 time=20>
<meta message set_tempo tempo=467727 time=20>
<meta message set_tempo tempo=469410 time=20>
<meta message set_tempo tempo=472888 time=20>
note_on channel=0 note=70 velocity=0 time=0
note_on channel=0 note=74 velocity=56 time=0
<meta message set_tempo tempo=474646 time=20>
<meta message set_tempo tempo=476417 time=20>
<meta message set_tempo tempo=479962 time=20>
<meta message set_tempo tempo=481773 time=20>
<meta message set_tempo tempo=483598 time=20>
<meta message set_tempo tempo=487290 time=20>
note_on channel=0 note=74 velocity=0 time=0
note_on channel=0 note=67 velocity=54 time=0
<meta message set_tempo tempo=489157 time=20>
<meta message set_tempo tempo=490998 time=20>
<meta message set_tempo tempo=494805 time=20>
<meta message set_tempo tempo=496730 time=20>
<meta message set_tempo tempo=498670 time=20>
<meta message set_tempo tempo=502555 time=20>
note_on channel=0 note=67 velocity=0 time=0
note_on channel=0 note=62 velocity=53 time=0
<meta message set_tempo tempo=504541 time=20>
<meta message set_tempo tempo=506543 time=20>
<meta message set_tempo tempo=510595 time=20>
<meta message set_tempo tempo=512601 time=20>
<meta message set_tempo tempo=516751 time=20>
<meta message set_tempo tempo=517241 time=20>
note_on channel=0 note=62 velocity=0 time=0
note_on channel=0 note=43 velocity=0 time=0
note_on channel=0 note=31 velocity=0 time=0
note_on channel=0 note=58 velocity=51 time=0
note_on channel=0 note=38 velocity=47 time=0
control_change channel=0 control=64 value=0 time=16
control_change channel=0 control=64 value=127 time=83
note_on channel=0 note=58 velocity=0 time=21
note_on channel=0 note=50 velocity=49 time=0
<meta message set_tempo tempo=481773 time=120>
note_on channel=0 note=50 velocity=0 time=0
note_on channel=0 note=38 velocity=0 time=0
note_on channel=0 note=54 velocity=49 time=0
note_on channel=0 note=30 velocity=44 time=0
note_on channel=0 note=42 velocity=52 time=0
control_change channel=0 control=64 value=0 time=11
<meta message set_tempo tempo=479962 time=49>
control_change channel=0 control=64 value=127 time=32
<meta message set_tempo tempo=478202 time=28>
note_on channel=0 note=54 velocity=0 time=0
note_on channel=0 note=62 velocity=50 time=0
<meta message set_tempo tempo=476417 time=40>
<meta message set_tempo tempo=474646 time=60>
note_on channel=0 note=62 velocity=0 time=20
note_on channel=0 note=58 velocity=52 time=0
<meta message set_tempo tempo=472888 time=40>
<meta message set_tempo tempo=471143 time=40>
note_on channel=0 note=58 velocity=0 time=40
note_on channel=0 note=62 velocity=54 time=0
<meta message set_tempo tempo=469410 time=20>
<meta message set_tempo tempo=467727 time=60>
<meta message set_tempo tempo=464324 time=40>
note_on channel=0 note=62 velocity=0 time=0
note_on channel=0 note=66 velocity=55 time=0
<meta message set_tempo tempo=467727 time=20>
<meta message set_tempo tempo=469410 time=40>
<meta message set_tempo tempo=471143 time=20>
<meta message set_tempo tempo=472888 time=40>
note_on channel=0 note=66 velocity=0 time=0
note_on channel=0 note=74 velocity=57 time=0
<meta message set_tempo tempo=474646 time=20>
<meta message set_tempo tempo=476417 time=40>
<meta message set_tempo tempo=478202 time=20>
<meta message set_tempo tempo=479962 time=40>
note_on channel=0 note=74 velocity=0 time=0
note_on channel=0 note=70 velocity=57 time=0
<meta message set_tempo tempo=481773 time=20>
<meta message set_tempo tempo=483598 time=40>
<meta message set_tempo tempo=485437 time=20>
<meta message set_tempo tempo=487290 time=40>
note_on channel=0 note=70 velocity=0 time=0
note_on channel=0 note=74 velocity=56 time=0
<meta message set_tempo tempo=489157 time=20>
<meta message set_tempo tempo=490998 time=40>
<meta message set_tempo tempo=492894 time=20>
<meta message set_tempo tempo=494805 time=40>
note_on channel=0 note=74 velocity=0 time=0
note_on channel=0 note=66 velocity=54 time=0
<meta message set_tempo tempo=496730 time=20>
<meta message set_tempo tempo=498670 time=40>
<meta message set_tempo tempo=500584 time=20>
<meta message set_tempo tempo=502555 time=40>
note_on channel=0 note=66 velocity=0 time=0
note_on channel=0 note=62 velocity=53 time=0
<meta message set_tempo tempo=504541 time=20>
<meta message set_tempo tempo=506543 time=40>
<meta message set_tempo tempo=508561 time=20>
<meta message set_tempo tempo=510595 time=20>
<meta message set_tempo tempo=519481 time=20>
note_on channel=0 note=62 velocity=0 time=0
note_on channel=0 note=42 velocity=0 time=0
note_on channel=0 note=30 velocity=0 time=0
note_on channel=0 note=58 velocity=51 time=0
note_on channel=0 note=38 velocity=47 time=0
control_change channel=0 control=64 value=0 time=16
control_change channel=0 control=64 value=127 time=64
note_on channel=0 note=58 velocity=0 time=40
note_on channel=0 note=50 velocity=49 time=0
<meta message set_tempo tempo=474646 time=120>
note_on channel=0 note=50 velocity=0 time=0
note_on channel=0 note=38 velocity=0 time=0
note_on channel=0 note=55 velocity=50 time=0
note_on channel=0 note=43 velocity=49 time=0
note_on channel=0 note=31 velocity=41 time=0
control_change channel=0 control=64 value=0 time=8
<meta message set_tempo tempo=471143 time=12>
<meta message set_tempo tempo=469410 time=80>
control_change channel=0 control=64 value=127 time=6
note_on channel=0 note=55 velocity=0 time=14
note_on channel=0 note=62 velocity=51 time=0
<meta message set_tempo tempo=467727 time=40>
<meta message set_tempo tempo=466019 time=80>
note_on channel=0 note=62 velocity=0 time=0
note_on channel=0 note=58 velocity=52 time=0
<meta message set_tempo tempo=464324 time=60>
<meta message set_tempo tempo=462642 time=60>
note_on channel=0 note=58 velocity=0 time=0
note_on channel=0 note=62 velocity=53 time=0
<meta message set_tempo tempo=460971 time=80>
note_on channel=0 note=62 velocity=0 time=40
note_on channel=0 note=67 velocity=55 time=0
<meta message set_tempo tempo=459348 time=20>
<meta message set_tempo tempo=457701 time=80>
note_on channel=0 note=67 velocity=0 time=20
note_on channel=0 note=70 velocity=56 time=0
<meta message set_tempo tempo=456066 time=40>
<meta message set_tempo tempo=451230 time=60>
note_on channel=0 note=70 velocity=0 time=20
note_on channel=0 note=31 velocity=0 time=0
note_on channel=0 note=43 velocity=0 time=0
note_on channel=0 note=74 velocity=57 time=0
<meta message set_tempo tempo=452830 time=40>
<meta message set_tempo tempo=454442 time=60>
note_on channel=0 note=74 velocity=0 time=20
note_on channel=0 note=79 velocity=58 time=0
<meta message set_tempo tempo=456066 time=40>
<meta message set_tempo tempo=457701 time=60>
note_on channel=0 note=79 velocity=0 time=20
note_on channel=0 note=82 velocity=59 time=0
note_on channel=0 note=55 velocity=57 time=0
note_on channel=0 note=50 velocity=48 time=0
<meta message set_tempo tempo=459348 time=20>
<meta message set_tempo tempo=460971 time=60>
note_on channel=0 note=82 velocity=0 time=40
note_on channel=0 note=86 velocity=61 time=0
<meta message set_tempo tempo=462642 time=20>
<meta message set_tempo tempo=464324 time=60>
note_on channel=0 note=50 velocity=0 time=20
note_on channel=0 note=55 velocity=0 time=0
<meta message set_tempo tempo=478202 time=20>
note_on channel=0 note=86 velocity=0 time=0
note_on channel=0 note=91 velocity=62 time=0
note_on channel=0 note=43 velocity=45 time=0
note_on channel=0 note=50 velocity=53 time=0
note_on channel=0 note=91 velocity=0 time=120
note_on channel=0 note=98 velocity=63 time=0
note_on channel=0 note=50 velocity=0 time=100
note_on channel=0 note=43 velocity=0 time=0
<meta message set_tempo tempo=469410 time=20>
note_on channel=0 note=98 velocity=0 time=0
note_on channel=0 note=94 velocity=63 time=0
note_on channel=0 note=50 velocity=48 time=0
note_on channel=0 note=55 velocity=57 time=0
<meta message set_tempo tempo=467727 time=80>
note_on channel=0 note=94 velocity=0 time=40
note_on channel=0 note=98 velocity=60 time=0
<meta message set_tempo tempo=466019 time=40>
<meta message set_tempo tempo=464324 time=80>
note_on channel=0 note=98 velocity=0 time=0
note_on channel=0 note=91 velocity=59 time=0
<meta message set_tempo tempo=462642 time=80>
note_on channel=0 note=91 velocity=0 time=40
note_on channel=0 note=86 velocity=58 time=0
<meta message set_tempo tempo=460971 time=20>
<meta message set_tempo tempo=459348 time=80>
note_on channel=0 note=86 velocity=0 time=20
note_on channel=0 note=55 velocity=0 time=0
note_on channel=0 note=50 velocity=0 time=0
note_on channel=0 note=82 velocity=58 time=0
<meta message set_tempo tempo=457701 time=60>
note_on channel=0 note=82 velocity=0 time=60
note_on channel=0 note=79 velocity=57 time=0
<meta message set_tempo tempo=456066 time=20>
<meta message set_tempo tempo=454442 time=60>
<meta message set_tempo tempo=456066 time=20>
note_on channel=0 note=79 velocity=0 time=20
note_on channel=0 note=74 velocity=56 time=0
<meta message set_tempo tempo=457701 time=20>
<meta message set_tempo tempo=459348 time=20>
<meta message set_tempo tempo=460971 time=20>
<meta message set_tempo tempo=462642 time=20>
<meta message set_tempo tempo=464324 time=20>
<meta message set_tempo tempo=466019 time=20>
note_on channel=0 note=74 velocity=0 time=0
note_on channel=0 note=70 velocity=56 time=0
<meta message set_tempo tempo=467727 time=20>
<meta message set_tempo tempo=469410 time=20>
<meta message set_tempo tempo=471143 time=20>
<meta message set_tempo tempo=472888 time=20>
<meta message set_tempo tempo=474646 time=20>
<meta message set_tempo tempo=476417 time=20>
note_on channel=0 note=70 velocity=0 time=0
note_on channel=0 note=67 velocity=55 time=0
<meta message set_tempo tempo=478202 time=20>
<meta message set_tempo tempo=479962 time=20>
<meta message set_tempo tempo=481773 time=20>
<meta message set_tempo tempo=483598 time=20>
<meta message set_tempo tempo=485437 time=20>
<meta message set_tempo tempo=487290 time=20>
note_on channel=0 note=67 velocity=0 time=0
note_on channel=0 note=62 velocity=54 time=0
<meta message set_tempo tempo=489157 time=20>
<meta message set_tempo tempo=490998 time=20>
<meta message set_tempo tempo=492894 time=20>
<meta message set_tempo tempo=494805 time=20>
<meta message set_tempo tempo=464324 time=20>
<meta message set_tempo tempo=533998 time=20>
note_on channel=0 note=62 velocity=0 time=0
note_on channel=0 note=58 velocity=53 time=0
note_on channel=0 note=38 velocity=49 time=0
control_change channel=0 control=64 value=0 time=15
note_on channel=0 note=58 velocity=0 time=105
note_on channel=0 note=50 velocity=53 time=0
control_change channel=0 control=64 value=127 time=14
<meta message set_tempo tempo=494805 time=106>
note_on channel=0 note=50 velocity=0 time=0
note_on channel=0 note=38 velocity=0 time=0
note_on channel=0 note=54 velocity=49 time=0
note_on channel=0 note=42 velocity=52 time=0
note_on channel=0 note=30 velocity=44 time=0
control_change channel=0 control=64 value=0 time=9
<meta message set_tempo tempo=492894 time=51>
<meta message set_tempo tempo=490998 time=40>
control_change channel=0 control=64 value=127 time=3
note_on channel=0 note=54 velocity=0 time=17
note_on channel=0 note=62 velocity=50 time=0
<meta message set_tempo tempo=489157 time=20>
<meta message set_tempo tempo=487290 time=40>
<meta message set_tempo tempo=485437 time=60>
note_on channel=0 note=62 velocity=0 time=0
note_on channel=0 note=58 velocity=52 time=0
<meta message set_tempo tempo=483598 time=40>
<meta message set_tempo tempo=481773 time=40>
<meta message set_tempo tempo=479962 time=40>
note_on channel=0 note=58 velocity=0 time=0
note_on channel=0 note=62 velocity=54 time=0
<meta message set_tempo tempo=478202 time=60>
<meta message set_tempo tempo=476417 time=40>
note_on channel=0 note=62 velocity=0 time=20
note_on channel=0 note=66 velocity=55 time=0
<meta message set_tempo tempo=474646 time=20>
<meta message set_tempo tempo=472888 time=40>
<meta message set_tempo tempo=471143 time=60>
note_on channel=0 note=66 velocity=0 time=0
note_on channel=0 note=74 velocity=57 time=0
<meta message set_tempo tempo=469410 time=40>
<meta message set_tempo tempo=467727 time=40>
<meta message set_tempo tempo=467727 time=40>
note_on channel=0 note=74 velocity=0 time=0
note_on channel=0 note=70 velocity=57 time=0
<meta message set_tempo tempo=469410 time=20>
<meta message set_tempo tempo=471143 time=20>
<meta message set_tempo tempo=472888 time=20>
<meta message set_tempo tempo=474646 time=20>
<meta message set_tempo tempo=476417 time=20>
<meta message set_tempo tempo=478202 time=20>
note_on channel=0 note=70 velocity=0 time=0
note_on channel=0 note=74 velocity=56 time=0
<meta message set_tempo tempo=479962 time=20>
<meta message set_tempo tempo=481773 time=20>
<meta message set_tempo tempo=483598 time=20>
<meta message set_tempo tempo=485437 time=20>
<meta message set_tempo tempo=487290 time=20>
<meta message set_tempo tempo=489157 time=20>
note_on channel=0 note=74 velocity=0 time=0
note_on channel=0 note=66 velocity=54 time=0
<meta message set_tempo tempo=490998 time=20>
<meta message set_tempo tempo=492894 time=20>
<meta message set_tempo tempo=494805 time=20>
<meta message set_tempo tempo=496730 time=20>
<meta message set_tempo tempo=498670 time=20>
<meta message set_tempo tempo=500584 time=20>
note_on channel=0 note=66 velocity=0 time=0
note_on channel=0 note=62 velocity=53 time=0
<meta message set_tempo tempo=502555 time=20>
<meta message set_tempo tempo=504541 time=20>
<meta message set_tempo tempo=506543 time=20>
<meta message set_tempo tempo=508561 time=20>
<meta message set_tempo tempo=512601 time=20>
<meta message set_tempo tempo=572137 time=20>
note_on channel=0 note=62 velocity=0 time=0
note_on channel=0 note=30 velocity=0 time=0
note_on channel=0 note=42 velocity=0 time=0
note_on channel=0 note=58 velocity=51 time=0
note_on channel=0 note=38 velocity=47 time=0
control_change channel=0 control=64 value=0 time=13
control_change channel=0 control=64 value=127 time=79
note_on channel=0 note=58 velocity=0 time=28
note_on channel=0 note=50 velocity=49 time=0
<meta message set_tempo tempo=518852 time=120>
note_on channel=0 note=50 velocity=0 time=0
note_on channel=0 note=38 velocity=0 time=0
note_on channel=0 note=53 velocity=49 time=0
note_on channel=0 note=41 velocity=52 time=0
note_on channel=0 note=29 velocity=44 time=0
control_change channel=0 control=64 value=0 time=15
<meta message set_tempo tempo=516751 time=25>
<meta message set_tempo tempo=514668 time=40>
<meta message set_tempo tempo=512601 time=40>
note_on channel=0 note=53 velocity=0 time=0
note_on channel=0 note=62 velocity=50 time=0
control_change channel=0 control=64 value=127 time=14
<meta message set_tempo tempo=510595 time=26>
<meta message set_tempo tempo=508561 time=40>
<meta message set_tempo tempo=506543 time=40>
note_on channel=0 note=62 velocity=0 time=0
note_on channel=0 note=58 velocity=52 time=0
<meta message set_tempo tempo=504541 time=20>
<meta message set_tempo tempo=502555 time=40>
<meta message set_tempo tempo=500584 time=40>
note_on channel=0 note=58 velocity=0 time=20
note_on channel=0 note=62 velocity=54 time=0
<meta message set_tempo tempo=498670 time=20>
<meta message set_tempo tempo=496730 time=40>
<meta message set_tempo tempo=494805 time=40>
<meta message set_tempo tempo=492894 time=20>
note_on channel=0 note=62 velocity=0 time=0
note_on channel=0 note=65 velocity=55 time=0
<meta message set_tempo tempo=494805 time=40>
<meta message set_tempo tempo=496730 time=40>
<meta message set_tempo tempo=498670 time=40>
note_on channel=0 note=65 velocity=0 time=0
note_on channel=0 note=74 velocity=57 time=0
<meta message set_tempo tempo=500584 time=20>
<meta message set_tempo tempo=502555 time=40>
<meta message set_tempo tempo=504541 time=40>
note_on channel=0 note=74 velocity=0 time=20
note_on channel=0 note=70 velocity=57 time=0
<meta message set_tempo tempo=506543 time=20>
<meta message set_tempo tempo=508561 time=20>
<meta message set_tempo tempo=510595 time=40>
<meta message set_tempo tempo=512601 time=40>
note_on channel=0 note=70 velocity=0 time=0
note_on channel=0 note=74 velocity=56 time=0
<meta message set_tempo tempo=514668 time=40>
<meta message set_tempo tempo=516751 time=20>
<meta message set_tempo tempo=518852 time=40>
note_on channel=0 note=74 velocity=0 time=20
note_on channel=0 note=65 velocity=54 time=0
<meta message set_tempo tempo=520969 time=20>
<meta message set_tempo tempo=523058 time=40>
<meta message set_tempo tempo=525210 time=20>
<meta message set_tempo tempo=527380 time=40>
note_on channel=0 note=65 velocity=0 time=0
note_on channel=0 note=62 velocity=53 time=0
<meta message set_tempo tempo=529568 time=40>
<meta message set_tempo tempo=531773 time=40>
<meta message set_tempo tempo=533998 time=20>
<meta message set_tempo tempo=628206 time=20>
note_on channel=0 note=62 velocity=0 time=0
note_on channel=0 note=41 velocity=0 time=0
note_on channel=0 note=58 velocity=51 time=0
note_on channel=0 note=43 velocity=47 time=0
control_change channel=0 control=64 value=0 time=16
note_on channel=0 note=58 velocity=0 time=104
note_on channel=0 note=50 velocity=49 time=0
control_change channel=0 control=64 value=127 time=0
<meta message set_tempo tempo=547645 time=100>
note_on channel=0 note=50 velocity=0 time=20
note_on channel=0 note=43 velocity=0 time=0
note_on channel=0 note=53 velocity=50 time=0
note_on channel=0 note=45 velocity=49 time=0
control_change channel=0 control=64 value=0 time=15
<meta message set_tempo tempo=545355 time=65>
control_change channel=0 control=64 value=127 time=33
note_on channel=0 note=53 velocity=0 time=7
note_on channel=0 note=60 velocity=51 time=0
<meta message set_tempo tempo=543036 time=40>
<meta message set_tempo tempo=540735 time=80>
note_on channel=0 note=60 velocity=0 time=0
note_on channel=0 note=57 velocity=52 time=0
<meta message set_tempo tempo=538455 time=80>
note_on channel=0 note=57 velocity=0 time=40
note_on channel=0 note=60 velocity=53 time=0
<meta message set_tempo tempo=536193 time=60>
note_on channel=0 note=60 velocity=0 time=60
note_on channel=0 note=45 velocity=0 time=0
note_on channel=0 note=29 velocity=0 time=0
note_on channel=0 note=65 velocity=55 time=0
<meta message set_tempo tempo=533998 time=20>
<meta message set_tempo tempo=531773 time=80>
note_on channel=0 note=65 velocity=0 time=20
note_on channel=0 note=69 velocity=56 time=0
<meta message set_tempo tempo=529568 time=60>
note_on channel=0 note=69 velocity=0 time=60
note_on channel=0 note=72 velocity=57 time=0
<meta message set_tempo tempo=527380 time=20>
<meta message set_tempo tempo=529568 time=20>
<meta message set_tempo tempo=531773 time=20>
<meta message set_tempo tempo=536193 time=20>
<meta message set_tempo tempo=538455 time=20>
<meta message set_tempo tempo=540735 time=20>
note_on channel=0 note=72 velocity=0 time=0
note_on channel=0 note=77 velocity=58 time=0
<meta message set_tempo tempo=545355 time=20>
<meta message set_tempo tempo=547645 time=20>
<meta message set_tempo tempo=550005 time=20>
<meta message set_tempo tempo=554785 time=20>
<meta message set_tempo tempo=557207 time=20>
<meta message set_tempo tempo=559649 time=20>
note_on channel=0 note=77 velocity=0 time=0
note_on channel=0 note=81 velocity=59 time=0
note_on channel=0 note=60 velocity=44 time=0
note_on channel=0 note=65 velocity=52 time=0
<meta message set_tempo tempo=564546 time=20>
<meta message set_tempo tempo=567054 time=20>
<meta message set_tempo tempo=569584 time=20>
<meta message set_tempo tempo=574713 time=20>
<meta message set_tempo tempo=577256 time=20>
<meta message set_tempo tempo=579878 time=20>
note_on channel=0 note=81 velocity=0 time=0
note_on channel=0 note=84 velocity=61 time=0
<meta message set_tempo tempo=585195 time=20>
<meta message set_tempo tempo=587889 time=20>
<meta message set_tempo tempo=590551 time=20>
<meta message set_tempo tempo=596066 time=20>
<meta message set_tempo tempo=598862 time=20>
note_on channel=0 note=65 velocity=0 time=0
note_on channel=0 note=60 velocity=0 time=0
<meta message set_tempo tempo=604534 time=20>
note_on channel=0 note=84 velocity=0 time=0
note_on channel=0 note=89 velocity=62 time=0
note_on channel=0 note=60 velocity=44 time=0
note_on channel=0 note=53 velocity=36 time=0
note_on channel=0 note=89 velocity=0 time=120
note_on channel=0 note=93 velocity=63 time=0
note_on channel=0 note=53 velocity=0 time=100
note_on channel=0 note=60 velocity=0 time=0
<meta message set_tempo tempo=542986 time=20>
note_on channel=0 note=93 velocity=0 time=0
note_on channel=0 note=101 velocity=63 time=0
note_on channel=0 note=65 velocity=52 time=0
note_on channel=0 note=60 velocity=44 time=0
note_on channel=0 note=101 velocity=0 time=240
<meta message set_tempo tempo=655738 time=960>
note_on channel=0 note=60 velocity=0 time=0
note_on channel=0 note=65 velocity=0 time=0
note_on channel=0 note=53 velocity=35 time=0
note_on channel=0 note=60 velocity=41 time=0
note_on channel=0 note=60 velocity=0 time=240
note_on channel=0 note=53 velocity=0 time=0
note_on channel=0 note=65 velocity=46 time=0
note_on channel=0 note=60 velocity=39 time=0
<meta message set_tempo tempo=621762 time=140>
<meta message set_tempo tempo=618557 time=80>
<meta message set_tempo tempo=641711 time=20>
<meta message set_tempo tempo=645161 time=40>
<meta message set_tempo tempo=648649 time=40>
<meta message set_tempo tempo=652174 time=40>
<meta message set_tempo tempo=655738 time=40>
<meta message set_tempo tempo=659341 time=40>
<meta message set_tempo tempo=662983 time=40>
<meta message set_tempo tempo=666667 time=40>
<meta message set_tempo tempo=670391 time=40>
<meta message set_tempo tempo=674157 time=40>
<meta message set_tempo tempo=677966 time=40>
<meta message set_tempo tempo=681818 time=40>
<meta message set_tempo tempo=685714 time=40>
<meta message set_tempo tempo=689655 time=40>
<meta message set_tempo tempo=693642 time=40>
<meta message set_tempo tempo=697674 time=40>
<meta message set_tempo tempo=701754 time=40>
<meta message set_tempo tempo=705882 time=20>
<meta message set_tempo tempo=710059 time=40>
<meta message set_tempo tempo=714286 time=40>
<meta message set_tempo tempo=718563 time=40>
<meta message set_tempo tempo=722892 time=40>
<meta message set_tempo tempo=727273 time=40>
<meta message set_tempo tempo=731707 time=40>
<meta message set_tempo tempo=736196 time=40>
note_on channel=0 note=60 velocity=0 time=20
note_on channel=0 note=65 velocity=0 time=0
note_on channel=0 note=53 velocity=31 time=0
note_on channel=0 note=60 velocity=36 time=0
<meta message set_tempo tempo=740741 time=20>
<meta message set_tempo tempo=745342 time=40>
<meta message set_tempo tempo=750000 time=40>
<meta message set_tempo tempo=754717 time=40>
<meta message set_tempo tempo=759494 time=40>
<meta message set_tempo tempo=764331 time=40>
note_on channel=0 note=60 velocity=0 time=20
note_on channel=0 note=53 velocity=0 time=0
note_on channel=0 note=60 velocity=34 time=0
note_on channel=0 note=65 velocity=40 time=0
<meta message set_tempo tempo=769231 time=20>
<meta message set_tempo tempo=774194 time=40>
<meta message set_tempo tempo=779221 time=40>
<meta message set_tempo tempo=784314 time=20>
<meta message set_tempo tempo=789474 time=40>
<meta message set_tempo tempo=794702 time=40>
<meta message set_tempo tempo=800000 time=40>
<meta message set_tempo tempo=805369 time=40>
<meta message set_tempo tempo=810811 time=40>
<meta message set_tempo tempo=816327 time=40>
<meta message set_tempo tempo=821918 time=40>
<meta message set_tempo tempo=827586 time=40>
<meta message set_tempo tempo=833333 time=40>
note_on channel=0 note=65 velocity=0 time=0
note_on channel=0 note=60 velocity=0 time=0
note_on channel=0 note=53 velocity=28 time=0
note_on channel=0 note=60 velocity=34 time=0
<meta message set_tempo tempo=839161 time=40>
<meta message set_tempo tempo=845070 time=40>
<meta message set_tempo tempo=851064 time=40>
<meta message set_tempo tempo=857143 time=40>
<meta message set_tempo tempo=863309 time=40>
<meta message set_tempo tempo=869565 time=40>
note_on channel=0 note=60 velocity=0 time=0
note_on channel=0 note=53 velocity=0 time=0
note_on channel=0 note=65 velocity=37 time=0
note_on channel=0 note=60 velocity=31 time=0
<meta message set_tempo tempo=875912 time=40>
<meta message set_tempo tempo=882353 time=20>
<meta message set_tempo tempo=888889 time=40>
<meta message set_tempo tempo=895522 time=40>
<meta message set_tempo tempo=902256 time=40>
<meta message set_tempo tempo=909091 time=40>
note_on channel=0 note=60 velocity=0 time=20
note_on channel=0 note=65 velocity=0 time=0
note_on channel=0 note=53 velocity=30 time=0
note_on channel=0 note=60 velocity=36 time=0
<meta message set_tempo tempo=916031 time=20>
<meta message set_tempo tempo=923077 time=40>
<meta message set_tempo tempo=930233 time=40>
<meta message set_tempo tempo=937500 time=40>
<meta message set_tempo tempo=944882 time=40>
<meta message set_tempo tempo=952381 time=40>
note_on channel=0 note=60 velocity=0 time=10
note_on channel=0 note=53 velocity=0 time=0
note_on channel=0 note=60 velocity=30 time=10
note_on channel=0 note=65 velocity=36 time=0
control_change channel=0 control=64 value=0 time=15
<meta message set_tempo tempo=960000 time=5>
<meta message set_tempo tempo=967742 time=40>
<meta message set_tempo tempo=975610 time=40>
<meta message set_tempo tempo=983607 time=40>
<meta message set_tempo tempo=991736 time=40>
<meta message set_tempo tempo=1000000 time=20>
<meta message set_tempo tempo=923077 time=20>
<meta message time_signature numerator=6 denominator=4 clocks_per_click=24 notated_32nd_notes_per_beat=8 time=20>
<meta message set_tempo tempo=474834 time=0>
<meta message marker text='meno mosso' time=0>
note_on channel=0 note=34 velocity=36 time=0
control_change channel=0 control=64 value=127 time=114
<meta message set_tempo tempo=412740 time=366>
note_on channel=0 note=34 velocity=0 time=0
note_on channel=0 note=46 velocity=29 time=0
note_on channel=0 note=46 velocity=0 time=480
note_on channel=0 note=56 velocity=29 time=0
<meta message set_tempo tempo=402928 time=480>
note_on channel=0 note=56 velocity=0 time=0
note_on channel=0 note=65 velocity=0 time=0
note_on channel=0 note=60 velocity=0 time=0
note_on channel=0 note=62 velocity=34 time=0
note_on channel=0 note=67 velocity=42 time=0
note_on channel=0 note=53 velocity=31 time=0
control_change channel=0 control=64 value=0 time=13
control_change channel=0 control=64 value=127 time=353
<meta message set_tempo tempo=390650 time=114>
note_on channel=0 note=53 velocity=0 time=0
note_on channel=0 note=60 velocity=31 time=0
<meta message set_tempo tempo=395335 time=480>
note_on channel=0 note=60 velocity=0 time=0
note_on channel=0 note=67 velocity=0 time=0
note_on channel=0 note=67 velocity=37 time=0
note_on channel=0 note=58 velocity=31 time=0
note_on channel=0 note=58 velocity=0 time=480
note_on channel=0 note=67 velocity=0 time=0
note_on channel=0 note=62 velocity=0 time=0
note_on channel=0 note=63 velocity=42 time=0
note_on channel=0 note=39 velocity=36 time=0
control_change channel=0 control=64 value=0 time=9
control_change channel=0 control=64 value=127 time=274
<meta message set_tempo tempo=388023 time=197>
note_on channel=0 note=39 velocity=0 time=0
note_on channel=0 note=46 velocity=27 time=0
note_on channel=0 note=46 velocity=0 time=480
note_on channel=0 note=51 velocity=26 time=0
<meta message set_tempo tempo=384246 time=480>
note_on channel=0 note=51 velocity=0 time=0
note_on channel=0 note=55 velocity=32 time=0
<meta message set_tempo tempo=379579 time=480>
note_on channel=0 note=55 velocity=0 time=0
note_on channel=0 note=63 velocity=0 time=0
note_on channel=0 note=75 velocity=50 time=0
note_on channel=0 note=58 velocity=31 time=0
<meta message set_tempo tempo=398327 time=480>
note_on channel=0 note=58 velocity=0 time=0
note_on channel=0 note=63 velocity=31 time=0
<meta message set_tempo tempo=414022 time=240>
note_on channel=0 note=75 velocity=0 time=0
note_on channel=0 note=74 velocity=40 time=0
<meta message set_tempo tempo=395335 time=240>
note_on channel=0 note=74 velocity=0 time=0
note_on channel=0 note=63 velocity=0 time=0
note_on channel=0 note=67 velocity=33 time=0
note_on channel=0 note=72 velocity=49 time=0
note_on channel=0 note=60 velocity=33 time=0
control_change channel=0 control=64 value=0 time=9
control_change channel=0 control=64 value=127 time=338
<meta message set_tempo tempo=389459 time=133>
note_on channel=0 note=60 velocity=0 time=0
note_on channel=0 note=63 velocity=30 time=0
<meta message set_tempo tempo=382677 time=480>
note_on channel=0 note=63 velocity=0 time=0
note_on channel=0 note=53 velocity=25 time=0
<meta message set_tempo tempo=401365 time=480>
note_on channel=0 note=53 velocity=0 time=0
note_on channel=0 note=72 velocity=0 time=0
note_on channel=0 note=67 velocity=0 time=0
note_on channel=0 note=74 velocity=48 time=0
note_on channel=0 note=69 velocity=37 time=0
note_on channel=0 note=63 velocity=33 time=0
control_change channel=0 control=64 value=0 time=13
control_change channel=0 control=64 value=127 time=334
<meta message set_tempo tempo=385827 time=133>
note_on channel=0 note=63 velocity=0 time=0
note_on channel=0 note=67 velocity=30 time=0
<meta message set_tempo tempo=384246 time=120>
<meta message set_tempo tempo=402928 time=360>
note_on channel=0 note=67 velocity=0 time=0
note_on channel=0 note=74 velocity=0 time=0
note_on channel=0 note=74 velocity=37 time=0
note_on channel=0 note=65 velocity=30 time=0
note_on channel=0 note=65 velocity=0 time=480
note_on channel=0 note=74 velocity=0 time=0
note_on channel=0 note=69 velocity=0 time=0
note_on channel=0 note=70 velocity=40 time=0
note_on channel=0 note=46 velocity=36 time=0
control_change channel=0 control=64 value=0 time=0
control_change channel=0 control=64 value=127 time=267
<meta message set_tempo tempo=393882 time=213>
note_on channel=0 note=46 velocity=0 time=0
note_on channel=0 note=53 velocity=29 time=0
note_on channel=0 note=53 velocity=0 time=480
note_on channel=0 note=58 velocity=29 time=0
note_on channel=0 note=58 velocity=0 time=480
note_on channel=0 note=70 velocity=0 time=0
note_on channel=0 note=82 velocity=60 time=0
note_on channel=0 note=62 velocity=32 time=0
<meta message set_tempo tempo=390905 time=480>
note_on channel=0 note=62 velocity=0 time=0
note_on channel=0 note=65 velocity=32 time=0
<meta message set_tempo tempo=385827 time=120>
<meta message set_tempo tempo=413024 time=360>
note_on channel=0 note=65 velocity=0 time=0
note_on channel=0 note=82 velocity=0 time=0
note_on channel=0 note=82 velocity=56 time=0
note_on channel=0 note=70 velocity=32 time=0
<meta message set_tempo tempo=396825 time=480>
note_on channel=0 note=70 velocity=0 time=0
note_on channel=0 note=82 velocity=0 time=0
note_on channel=0 note=82 velocity=59 time=0
note_on channel=0 note=60 velocity=36 time=0
control_change channel=0 control=64 value=0 time=0
control_change channel=0 control=64 value=127 time=206
<meta message set_tempo tempo=389029 time=274>
note_on channel=0 note=60 velocity=0 time=0
note_on channel=0 note=63 velocity=30 time=0
<meta message set_tempo tempo=407553 time=480>
note_on channel=0 note=63 velocity=0 time=0
note_on channel=0 note=82 velocity=0 time=0
note_on channel=0 note=80 velocity=55 time=0
note_on channel=0 note=53 velocity=30 time=0
control_change channel=0 control=64 value=0 time=13
note_on channel=0 note=80 velocity=0 time=441
<meta message set_tempo tempo=384246 time=26>
note_on channel=0 note=53 velocity=0 time=0
note_on channel=0 note=80 velocity=59 time=0
note_on channel=0 note=58 velocity=33 time=0
<meta message set_tempo tempo=379579 time=120>
control_change channel=0 control=64 value=127 time=109
note_on channel=0 note=58 velocity=0 time=251
note_on channel=0 note=80 velocity=0 time=0
note_on channel=0 note=79 velocity=56 time=0
note_on channel=0 note=62 velocity=26 time=0
<meta message set_tempo tempo=390650 time=120>
<meta message set_tempo tempo=414852 time=360>
note_on channel=0 note=62 velocity=0 time=0
note_on channel=0 note=79 velocity=0 time=0
note_on channel=0 note=78 velocity=55 time=0
note_on channel=0 note=68 velocity=28 time=0
note_on channel=0 note=78 velocity=0 time=460
<meta message set_tempo tempo=395335 time=20>
note_on channel=0 note=68 velocity=0 time=0
note_on channel=0 note=78 velocity=58 time=0
note_on channel=0 note=58 velocity=36 time=0
control_change channel=0 control=64 value=0 time=8
control_change channel=0 control=64 value=127 time=289
note_on channel=0 note=58 velocity=0 time=183
note_on channel=0 note=62 velocity=29 time=0
note_on channel=0 note=62 velocity=0 time=480
note_on channel=0 note=78 velocity=0 time=0
note_on channel=0 note=79 velocity=56 time=0
note_on channel=0 note=51 velocity=29 time=0
<meta message set_tempo tempo=406009 time=480>
note_on channel=0 note=51 velocity=0 time=0
note_on channel=0 note=56 velocity=28 time=0
control_change channel=0 control=64 value=0 time=14
control_change channel=0 control=64 value=127 time=170
<meta message set_tempo tempo=393882 time=296>
note_on channel=0 note=56 velocity=0 time=0
note_on channel=0 note=79 velocity=0 time=0
note_on channel=0 note=80 velocity=62 time=0
note_on channel=0 note=60 velocity=29 time=0
<meta message set_tempo tempo=390650 time=480>
note_on channel=0 note=60 velocity=0 time=0
note_on channel=0 note=67 velocity=29 time=0
<meta message set_tempo tempo=410790 time=240>
note_on channel=0 note=80 velocity=0 time=0
note_on channel=0 note=75 velocity=56 time=0
<meta message set_tempo tempo=401365 time=240>
note_on channel=0 note=75 velocity=0 time=0
note_on channel=0 note=67 velocity=0 time=0
note_on channel=0 note=79 velocity=59 time=0
note_on channel=0 note=56 velocity=36 time=0
control_change channel=0 control=64 value=0 time=5
control_change channel=0 control=64 value=127 time=179
<meta message set_tempo tempo=392413 time=296>
note_on channel=0 note=56 velocity=0 time=0
note_on channel=0 note=60 velocity=31 time=0
note_on channel=0 note=60 velocity=0 time=480
note_on channel=0 note=79 velocity=0 time=0
note_on channel=0 note=77 velocity=50 time=0
note_on channel=0 note=50 velocity=32 time=0
note_on channel=0 note=50 velocity=0 time=480
note_on channel=0 note=55 velocity=30 time=0
control_change channel=0 control=64 value=0 time=7
<meta message set_tempo tempo=407553 time=233>
control_change channel=0 control=64 value=127 time=14
<meta message set_tempo tempo=392413 time=226>
note_on channel=0 note=55 velocity=0 time=0
note_on channel=0 note=77 velocity=0 time=0
note_on channel=0 note=79 velocity=59 time=0
note_on channel=0 note=59 velocity=36 time=0
note_on channel=0 note=59 velocity=0 time=480
note_on channel=0 note=65 velocity=30 time=0
<meta message set_tempo tempo=404422 time=240>
note_on channel=0 note=79 velocity=0 time=0
note_on channel=0 note=74 velocity=53 time=0
<meta message set_tempo tempo=381122 time=240>
note_on channel=0 note=74 velocity=0 time=0
note_on channel=0 note=65 velocity=0 time=0
note_on channel=0 note=77 velocity=59 time=0
note_on channel=0 note=55 velocity=36 time=0
control_change channel=0 control=64 value=0 time=6
control_change channel=0 control=64 value=127 time=72
<meta message set_tempo tempo=390650 time=402>
note_on channel=0 note=55 velocity=0 time=0
note_on channel=0 note=77 velocity=0 time=0
note_on channel=0 note=75 velocity=55 time=0
note_on channel=0 note=60 velocity=31 time=0
note_on channel=0 note=60 velocity=0 time=480
note_on channel=0 note=75 velocity=0 time=0
note_on channel=0 note=74 velocity=55 time=0
note_on channel=0 note=48 velocity=31 time=0
note_on channel=0 note=48 velocity=0 time=480
note_on channel=0 note=74 velocity=0 time=0
note_on channel=0 note=72 velocity=55 time=0
note_on channel=0 note=53 velocity=33 time=0
control_change channel=0 control=64 value=0 time=10
control_change channel=0 control=64 value=127 time=68
note_on channel=0 note=72 velocity=0 time=82
note_on channel=0 note=74 velocity=50 time=0
note_on channel=0 note=74 velocity=0 time=160
note_on channel=0 note=72 velocity=50 time=0
<meta message set_tempo tempo=390905 time=160>
note_on channel=0 note=72 velocity=0 time=0
note_on channel=0 note=53 velocity=0 time=0
note_on channel=0 note=71 velocity=53 time=0
note_on channel=0 note=57 velocity=33 time=0
<meta message set_tempo tempo=392413 time=80>
<meta message set_tempo tempo=393882 time=80>
<meta message set_tempo tempo=395335 time=40>
note_on channel=0 note=71 velocity=0 time=40
note_on channel=0 note=72 velocity=50 time=0
<meta message set_tempo tempo=396825 time=40>
<meta message set_tempo tempo=398327 time=80>
<meta message set_tempo tempo=399840 time=40>
<meta message set_tempo tempo=401365 time=80>
note_on channel=0 note=72 velocity=0 time=0
note_on channel=0 note=57 velocity=0 time=0
note_on channel=0 note=74 velocity=50 time=0
note_on channel=0 note=63 velocity=33 time=0
<meta message set_tempo tempo=402928 time=80>
<meta message set_tempo tempo=404422 time=40>
<meta message set_tempo tempo=406009 time=80>
note_on channel=0 note=74 velocity=0 time=40
note_on channel=0 note=75 velocity=50 time=0
<meta message set_tempo tempo=407553 time=40>
<meta message set_tempo tempo=409165 time=40>
note_on channel=0 note=75 velocity=0 time=100
note_on channel=0 note=60 velocity=30 time=0
<meta message set_tempo tempo=406009 time=60>
note_on channel=0 note=63 velocity=0 time=0
note_on channel=0 note=65 velocity=36 time=0
note_on channel=0 note=53 velocity=36 time=0
control_change channel=0 control=64 value=0 time=5
control_change channel=0 control=64 value=127 time=361
note_on channel=0 note=53 velocity=0 time=114
note_on channel=0 note=56 velocity=29 time=0
note_on channel=0 note=56 velocity=0 time=480
note_on channel=0 note=46 velocity=29 time=0
<meta message set_tempo tempo=402928 time=480>
note_on channel=0 note=46 velocity=0 time=0
note_on channel=0 note=65 velocity=0 time=0
note_on channel=0 note=60 velocity=0 time=0
note_on channel=0 note=62 velocity=34 time=0
note_on channel=0 note=67 velocity=42 time=0
note_on channel=0 note=56 velocity=31 time=0
control_change channel=0 control=64 value=0 time=13
control_change channel=0 control=64 value=127 time=307
<meta message set_tempo tempo=385183 time=160>
note_on channel=0 note=56 velocity=0 time=0
note_on channel=0 note=60 velocity=31 time=0
<meta message set_tempo tempo=395335 time=480>
note_on channel=0 note=60 velocity=0 time=0
note_on channel=0 note=67 velocity=0 time=0
note_on channel=0 note=67 velocity=37 time=0
note_on channel=0 note=58 velocity=31 time=0
note_on channel=0 note=58 velocity=0 time=480
note_on channel=0 note=67 velocity=0 time=0
note_on channel=0 note=62 velocity=0 time=0
note_on channel=0 note=63 velocity=42 time=0
note_on channel=0 note=39 velocity=36 time=0
control_change channel=0 control=64 value=0 time=6
control_change channel=0 control=64 value=127 time=234
<meta message set_tempo tempo=388023 time=240>
note_on channel=0 note=39 velocity=0 time=0
note_on channel=0 note=46 velocity=30 time=0
note_on channel=0 note=46 velocity=0 time=480
note_on channel=0 note=51 velocity=27 time=0
<meta message set_tempo tempo=396825 time=480>
note_on channel=0 note=51 velocity=0 time=0
note_on channel=0 note=55 velocity=31 time=0
<meta message set_tempo tempo=381122 time=480>
note_on channel=0 note=55 velocity=0 time=0
note_on channel=0 note=63 velocity=0 time=0
note_on channel=0 note=75 velocity=55 time=0
note_on channel=0 note=58 velocity=31 time=0
<meta message set_tempo tempo=379579 time=120>
<meta message set_tempo tempo=398327 time=360>
note_on channel=0 note=58 velocity=0 time=0
note_on channel=0 note=63 velocity=28 time=0
<meta message set_tempo tempo=414022 time=240>
note_on channel=0 note=75 velocity=0 time=0
note_on channel=0 note=74 velocity=44 time=0
<meta message set_tempo tempo=395335 time=240>
note_on channel=0 note=74 velocity=0 time=0
note_on channel=0 note=63 velocity=0 time=0
note_on channel=0 note=67 velocity=34 time=0
note_on channel=0 note=72 velocity=53 time=0
note_on channel=0 note=60 velocity=30 time=0
control_change channel=0 control=64 value=0 time=9
control_change channel=0 control=64 value=127 time=338
<meta message set_tempo tempo=389459 time=133>
note_on channel=0 note=60 velocity=0 time=0
note_on channel=0 note=63 velocity=30 time=0
note_on channel=0 note=63 velocity=0 time=480
note_on channel=0 note=53 velocity=25 time=0
<meta message set_tempo tempo=401365 time=480>
note_on channel=0 note=53 velocity=0 time=0
note_on channel=0 note=72 velocity=0 time=0
note_on channel=0 note=67 velocity=0 time=0
note_on channel=0 note=69 velocity=40 time=0
note_on channel=0 note=74 velocity=52 time=0
note_on channel=0 note=63 velocity=33 time=0
control_change channel=0 control=64 value=0 time=13
control_change channel=0 control=64 value=127 time=334
<meta message set_tempo tempo=382677 time=133>
note_on channel=0 note=63 velocity=0 time=0
note_on channel=0 note=67 velocity=30 time=0
note_on channel=0 note=74 velocity=0 time=470
<meta message set_tempo tempo=402928 time=10>
note_on channel=0 note=67 velocity=0 time=0
note_on channel=0 note=74 velocity=47 time=0
note_on channel=0 note=65 velocity=30 time=0
note_on channel=0 note=65 velocity=0 time=480
note_on channel=0 note=74 velocity=0 time=0
note_on channel=0 note=69 velocity=0 time=0
note_on channel=0 note=70 velocity=49 time=0
note_on channel=0 note=46 velocity=36 time=0
control_change channel=0 control=64 value=0 time=6
control_change channel=0 control=64 value=127 time=421
<meta message set_tempo tempo=393882 time=53>
note_on channel=0 note=46 velocity=0 time=0
note_on channel=0 note=53 velocity=32 time=0
note_on channel=0 note=53 velocity=0 time=480
note_on channel=0 note=58 velocity=32 time=0
<meta message set_tempo tempo=404176 time=480>
note_on channel=0 note=58 velocity=0 time=0
note_on channel=0 note=70 velocity=0 time=0
note_on channel=0 note=82 velocity=66 time=0
note_on channel=0 note=62 velocity=34 time=0
<meta message set_tempo tempo=397298 time=480>
note_on channel=0 note=62 velocity=0 time=0
note_on channel=0 note=65 velocity=37 time=0
note_on channel=0 note=82 velocity=0 time=470
<meta message set_tempo tempo=475926 time=10>
note_on channel=0 note=65 velocity=0 time=0
note_on channel=0 note=82 velocity=60 time=0
note_on channel=0 note=70 velocity=42 time=0
note_on channel=0 note=82 velocity=0 time=460
<meta message set_tempo tempo=396825 time=20>
note_on channel=0 note=70 velocity=0 time=0
note_on channel=0 note=82 velocity=68 time=0
note_on channel=0 note=36 velocity=44 time=0
control_change channel=0 control=64 value=0 time=7
control_change channel=0 control=64 value=127 time=268
note_on channel=0 note=36 velocity=0 time=205
note_on channel=0 note=64 velocity=30 time=0
<meta message set_tempo tempo=407553 time=480>
note_on channel=0 note=64 velocity=0 time=0
note_on channel=0 note=58 velocity=26 time=0
<meta message set_tempo tempo=396825 time=480>
note_on channel=0 note=58 velocity=0 time=0
note_on channel=0 note=82 velocity=0 time=0
note_on channel=0 note=72 velocity=61 time=0
note_on channel=0 note=55 velocity=30 time=0
control_change channel=0 control=64 value=0 time=15
control_change channel=0 control=64 value=127 time=305
note_on channel=0 note=64 velocity=27 time=160
<meta message set_tempo tempo=423221 time=480>
note_on channel=0 note=64 velocity=0 time=0
note_on channel=0 note=72 velocity=0 time=0
note_on channel=0 note=74 velocity=55 time=0
note_on channel=0 note=58 velocity=27 time=0
<meta message set_tempo tempo=401391 time=480>
note_on channel=0 note=58 velocity=0 time=0
note_on channel=0 note=74 velocity=0 time=0
note_on channel=0 note=55 velocity=0 time=0
note_on channel=0 note=75 velocity=60 time=0
note_on channel=0 note=53 velocity=36 time=0
control_change channel=0 control=64 value=0 time=11
control_change channel=0 control=64 value=127 time=81
note_on channel=0 note=75 velocity=0 time=68
note_on channel=0 note=77 velocity=53 time=0
note_on channel=0 note=77 velocity=0 time=160
note_on channel=0 note=75 velocity=53 time=0
<meta message set_tempo tempo=411297 time=160>
note_on channel=0 note=75 velocity=0 time=0
note_on channel=0 note=74 velocity=52 time=0
note_on channel=0 note=63 velocity=31 time=0
note_on channel=0 note=63 velocity=0 time=480
note_on channel=0 note=74 velocity=0 time=0
note_on channel=0 note=75 velocity=55 time=0
note_on channel=0 note=57 velocity=31 time=0
<meta message set_tempo tempo=424749 time=480>
note_on channel=0 note=57 velocity=0 time=0
note_on channel=0 note=75 velocity=0 time=0
note_on channel=0 note=53 velocity=0 time=0
note_on channel=0 note=79 velocity=56 time=0
note_on channel=0 note=46 velocity=36 time=0
control_change channel=0 control=64 value=0 time=15
control_change channel=0 control=64 value=127 time=162
note_on channel=0 note=79 velocity=0 time=297
<meta message set_tempo tempo=407000 time=6>
note_on channel=0 note=46 velocity=0 time=0
note_on channel=0 note=79 velocity=61 time=0
note_on channel=0 note=62 velocity=31 time=0
<meta message set_tempo tempo=452728 time=480>
note_on channel=0 note=62 velocity=0 time=0
note_on channel=0 note=56 velocity=31 time=0
note_on channel=0 note=79 velocity=0 time=160
note_on channel=0 note=77 velocity=48 time=0
<meta message set_tempo tempo=514580 time=160>
note_on channel=0 note=77 velocity=0 time=0
note_on channel=0 note=75 velocity=48 time=0
control_change channel=0 control=64 value=0 time=47
note_on channel=0 note=75 velocity=0 time=93
<meta message set_tempo tempo=517598 time=20>
note_on channel=0 note=56 velocity=0 time=0
note_on channel=0 note=75 velocity=50 time=0
note_on channel=0 note=39 velocity=38 time=0
control_change channel=0 control=64 value=127 time=148
<meta message set_tempo tempo=497925 time=92>
note_on channel=0 note=39 velocity=0 time=0
note_on channel=0 note=46 velocity=26 time=0
<meta message set_tempo tempo=481928 time=240>
note_on channel=0 note=46 velocity=0 time=0
note_on channel=0 note=55 velocity=31 time=0
note_on channel=0 note=55 velocity=0 time=240
note_on channel=0 note=51 velocity=27 time=0
<meta message set_tempo tempo=481928 time=240>
note_on channel=0 note=51 velocity=0 time=0
note_on channel=0 note=58 velocity=31 time=0
note_on channel=0 note=58 velocity=0 time=240
note_on channel=0 note=55 velocity=27 time=0
note_on channel=0 note=55 velocity=0 time=240
note_on channel=0 note=75 velocity=0 time=0
note_on channel=0 note=63 velocity=32 time=0
<meta message set_tempo tempo=491803 time=480>
note_on channel=0 note=63 velocity=0 time=0
note_on channel=0 note=67 velocity=36 time=0
note_on channel=0 note=67 velocity=0 time=240
note_on channel=0 note=68 velocity=34 time=0
<meta message set_tempo tempo=470736 time=240>
note_on channel=0 note=68 velocity=0 time=0
note_on channel=0 note=70 velocity=37 time=0
control_change channel=0 control=64 value=0 time=9
control_change channel=0 control=64 value=127 time=83
note_on channel=0 note=70 velocity=0 time=68
note_on channel=0 note=74 velocity=34 time=0
<meta message set_tempo tempo=532056 time=160>
note_on channel=0 note=74 velocity=0 time=0
note_on channel=0 note=72 velocity=34 time=0
<meta message set_tempo tempo=486736 time=160>
note_on channel=0 note=72 velocity=0 time=0
note_on channel=0 note=70 velocity=42 time=0
note_on channel=0 note=39 velocity=32 time=0
control_change channel=0 control=64 value=0 time=15
control_change channel=0 control=64 value=127 time=155
<meta message set_tempo tempo=478088 time=70>
note_on channel=0 note=39 velocity=0 time=0
note_on channel=0 note=46 velocity=22 time=0
note_on channel=0 note=46 velocity=0 time=240
note_on channel=0 note=55 velocity=26 time=0
note_on channel=0 note=55 velocity=0 time=240
note_on channel=0 note=51 velocity=22 time=0
note_on channel=0 note=51 velocity=0 time=240
note_on channel=0 note=58 velocity=26 time=0
note_on channel=0 note=58 velocity=0 time=240
note_on channel=0 note=55 velocity=22 time=0
<meta message set_tempo tempo=478088 time=240>
note_on channel=0 note=55 velocity=0 time=0
note_on channel=0 note=70 velocity=0 time=0
note_on channel=0 note=63 velocity=27 time=0
<meta message set_tempo tempo=485830 time=480>
note_on channel=0 note=63 velocity=0 time=0
note_on channel=0 note=67 velocity=36 time=0
note_on channel=0 note=67 velocity=0 time=240
note_on channel=0 note=68 velocity=34 time=0
note_on channel=0 note=68 velocity=0 time=240
note_on channel=0 note=70 velocity=37 time=0
control_change channel=0 control=64 value=0 time=15
<meta message set_tempo tempo=470736 time=25>
note_on channel=0 note=70 velocity=0 time=120
note_on channel=0 note=74 velocity=34 time=0
control_change channel=0 control=64 value=127 time=3
<meta message set_tempo tempo=532056 time=157>
note_on channel=0 note=74 velocity=0 time=0
note_on channel=0 note=72 velocity=34 time=0
<meta message set_tempo tempo=486736 time=160>
note_on channel=0 note=72 velocity=0 time=0
note_on channel=0 note=70 velocity=42 time=0
note_on channel=0 note=39 velocity=32 time=0
control_change channel=0 control=64 value=0 time=10
control_change channel=0 control=64 value=127 time=174
<meta message set_tempo tempo=478088 time=56>
note_on channel=0 note=39 velocity=0 time=0
note_on channel=0 note=46 velocity=22 time=0
note_on channel=0 note=46 velocity=0 time=240
note_on channel=0 note=56 velocity=26 time=0
note_on channel=0 note=56 velocity=0 time=240
note_on channel=0 note=53 velocity=22 time=0
note_on channel=0 note=53 velocity=0 time=240
note_on channel=0 note=58 velocity=26 time=0
note_on channel=0 note=58 velocity=0 time=240
note_on channel=0 note=56 velocity=22 time=0
note_on channel=0 note=56 velocity=0 time=240
note_on channel=0 note=70 velocity=0 time=0
note_on channel=0 note=62 velocity=27 time=0
<meta message set_tempo tempo=485830 time=480>
note_on channel=0 note=62 velocity=0 time=0
note_on channel=0 note=65 velocity=36 time=0
note_on channel=0 note=65 velocity=0 time=240
note_on channel=0 note=68 velocity=34 time=0
note_on channel=0 note=68 velocity=0 time=240
note_on channel=0 note=70 velocity=37 time=0
control_change channel=0 control=64 value=0 time=15
<meta message set_tempo tempo=470736 time=25>
control_change channel=0 control=64 value=127 time=59
note_on channel=0 note=70 velocity=0 time=61
note_on channel=0 note=74 velocity=34 time=0
<meta message set_tempo tempo=532056 time=160>
note_on channel=0 note=74 velocity=0 time=0
note_on channel=0 note=72 velocity=34 time=0
<meta message set_tempo tempo=486736 time=160>
note_on channel=0 note=72 velocity=0 time=0
note_on channel=0 note=70 velocity=42 time=0
note_on channel=0 note=39 velocity=32 time=0
control_change channel=0 control=64 value=0 time=15
control_change channel=0 control=64 value=127 time=136
note_on channel=0 note=39 velocity=0 time=89
note_on channel=0 note=46 velocity=25 time=0
<meta message set_tempo tempo=503863 time=240>
note_on channel=0 note=46 velocity=0 time=0
note_on channel=0 note=55 velocity=28 time=0
note_on channel=0 note=70 velocity=0 time=160
note_on channel=0 note=61 velocity=34 time=0
<meta message set_tempo tempo=486736 time=80>
note_on channel=0 note=63 velocity=34 time=80
<meta message set_tempo tempo=501714 time=160>
note_on channel=0 note=63 velocity=0 time=0
note_on channel=0 note=55 velocity=0 time=0
note_on channel=0 note=67 velocity=39 time=0
control_change channel=0 control=64 value=0 time=7
control_change channel=0 control=64 value=127 time=42
note_on channel=0 note=67 velocity=0 time=111
note_on channel=0 note=61 velocity=0 time=0
note_on channel=0 note=72 velocity=34 time=0
note_on channel=0 note=72 velocity=0 time=160
note_on channel=0 note=70 velocity=35 time=0
<meta message set_tempo tempo=484692 time=160>
note_on channel=0 note=70 velocity=0 time=0
note_on channel=0 note=68 velocity=38 time=0
note_on channel=0 note=39 velocity=32 time=0
control_change channel=0 control=64 value=0 time=11
control_change channel=0 control=64 value=127 time=78
note_on channel=0 note=39 velocity=0 time=151
note_on channel=0 note=51 velocity=25 time=0
note_on channel=0 note=51 velocity=0 time=240
note_on channel=0 note=56 velocity=29 time=0
note_on channel=0 note=68 velocity=0 time=240
note_on channel=0 note=59 velocity=37 time=0
note_on channel=0 note=56 velocity=0 time=240
note_on channel=0 note=63 velocity=38 time=0
control_change channel=0 control=64 value=0 time=16
<meta message set_tempo tempo=470736 time=24>
control_change channel=0 control=64 value=127 time=55
note_on channel=0 note=63 velocity=0 time=145
note_on channel=0 note=59 velocity=0 time=0
note_on channel=0 note=65 velocity=35 time=0
<meta message set_tempo tempo=532056 time=80>
<meta message set_tempo tempo=508388 time=160>
note_on channel=0 note=65 velocity=0 time=0
note_on channel=0 note=67 velocity=46 time=0
note_on channel=0 note=39 velocity=32 time=0
control_change channel=0 control=64 value=0 time=80
note_on channel=0 note=39 velocity=0 time=160
note_on channel=0 note=46 velocity=22 time=0
control_change channel=0 control=64 value=127 time=80
<meta message set_tempo tempo=483871 time=160>
note_on channel=0 note=46 velocity=0 time=0
note_on channel=0 note=55 velocity=26 time=0
note_on channel=0 note=55 velocity=0 time=240
note_on channel=0 note=51 velocity=22 time=0
note_on channel=0 note=51 velocity=0 time=240
note_on channel=0 note=58 velocity=26 time=0
note_on channel=0 note=58 velocity=0 time=240
note_on channel=0 note=55 velocity=22 time=0
<meta message set_tempo tempo=493827 time=240>
note_on channel=0 note=55 velocity=0 time=0
note_on channel=0 note=67 velocity=0 time=0
note_on channel=0 note=63 velocity=27 time=0
note_on channel=0 note=63 velocity=0 time=480
note_on channel=0 note=67 velocity=36 time=0
note_on channel=0 note=67 velocity=0 time=240
note_on channel=0 note=68 velocity=34 time=0
<meta message set_tempo tempo=470736 time=240>
note_on channel=0 note=68 velocity=0 time=0
note_on channel=0 note=70 velocity=37 time=0
control_change channel=0 control=64 value=0 time=4
control_change channel=0 control=64 value=127 time=102
note_on channel=0 note=70 velocity=0 time=54
note_on channel=0 note=74 velocity=34 time=0
<meta message set_tempo tempo=532056 time=160>
note_on channel=0 note=74 velocity=0 time=0
note_on channel=0 note=72 velocity=34 time=0
<meta message set_tempo tempo=478088 time=160>
note_on channel=0 note=72 velocity=0 time=0
note_on channel=0 note=70 velocity=42 time=0
note_on channel=0 note=39 velocity=32 time=0
control_change channel=0 control=64 value=0 time=13
control_change channel=0 control=64 value=127 time=171
<meta message set_tempo tempo=512821 time=56>
note_on channel=0 note=39 velocity=0 time=0
note_on channel=0 note=46 velocity=22 time=0
<meta message set_tempo tempo=485830 time=240>
note_on channel=0 note=46 velocity=0 time=0
note_on channel=0 note=70 velocity=0 time=0
note_on channel=0 note=82 velocity=51 time=0
note_on channel=0 note=55 velocity=26 time=0
note_on channel=0 note=55 velocity=0 time=240
note_on channel=0 note=51 velocity=22 time=0
note_on channel=0 note=51 velocity=0 time=240
note_on channel=0 note=58 velocity=26 time=0
note_on channel=0 note=58 velocity=0 time=240
note_on channel=0 note=55 velocity=22 time=0
note_on channel=0 note=55 velocity=0 time=240
note_on channel=0 note=63 velocity=27 time=0
<meta message set_tempo tempo=470588 time=40>
<meta message set_tempo tempo=485830 time=440>
note_on channel=0 note=63 velocity=0 time=0
note_on channel=0 note=82 velocity=0 time=0
note_on channel=0 note=67 velocity=36 time=160
note_on channel=0 note=67 velocity=0 time=160
note_on channel=0 note=68 velocity=34 time=0
note_on channel=0 note=68 velocity=0 time=160
note_on channel=0 note=70 velocity=37 time=0
control_change channel=0 control=64 value=0 time=15
<meta message set_tempo tempo=470736 time=25>
control_change channel=0 control=64 value=127 time=59
note_on channel=0 note=70 velocity=0 time=61
note_on channel=0 note=74 velocity=34 time=0
<meta message set_tempo tempo=532056 time=160>
note_on channel=0 note=74 velocity=0 time=0
note_on channel=0 note=72 velocity=34 time=0
<meta message set_tempo tempo=474308 time=160>
note_on channel=0 note=72 velocity=0 time=0
note_on channel=0 note=70 velocity=42 time=0
note_on channel=0 note=39 velocity=32 time=0
control_change channel=0 control=64 value=0 time=10
control_change channel=0 control=64 value=127 time=166
<meta message set_tempo tempo=515021 time=64>
note_on channel=0 note=39 velocity=0 time=0
note_on channel=0 note=46 velocity=22 time=0
<meta message set_tempo tempo=483871 time=240>
note_on channel=0 note=46 velocity=0 time=0
note_on channel=0 note=70 velocity=0 time=0
note_on channel=0 note=82 velocity=50 time=0
note_on channel=0 note=56 velocity=26 time=0
note_on channel=0 note=56 velocity=0 time=240
note_on channel=0 note=53 velocity=22 time=0
note_on channel=0 note=53 velocity=0 time=240
note_on channel=0 note=58 velocity=26 time=0
note_on channel=0 note=58 velocity=0 time=240
note_on channel=0 note=56 velocity=22 time=0
<meta message set_tempo tempo=472441 time=240>
note_on channel=0 note=56 velocity=0 time=0
note_on channel=0 note=62 velocity=27 time=0
<meta message set_tempo tempo=483871 time=480>
note_on channel=0 note=62 velocity=0 time=0
note_on channel=0 note=82 velocity=0 time=0
note_on channel=0 note=65 velocity=36 time=160
note_on channel=0 note=65 velocity=0 time=160
note_on channel=0 note=68 velocity=34 time=0
note_on channel=0 note=68 velocity=0 time=160
note_on channel=0 note=70 velocity=37 time=0
control_change channel=0 control=64 value=0 time=15
<meta message set_tempo tempo=470736 time=25>
control_change channel=0 control=64 value=127 time=59
note_on channel=0 note=70 velocity=0 time=61
note_on channel=0 note=74 velocity=34 time=0
<meta message set_tempo tempo=532056 time=160>
note_on channel=0 note=74 velocity=0 time=0
note_on channel=0 note=72 velocity=34 time=0
<meta message set_tempo tempo=486736 time=160>
note_on channel=0 note=72 velocity=0 time=0
note_on channel=0 note=70 velocity=42 time=0
note_on channel=0 note=39 velocity=32 time=0
control_change channel=0 control=64 value=0 time=80
control_change channel=0 control=64 value=127 time=77
note_on channel=0 note=39 velocity=0 time=83
note_on channel=0 note=46 velocity=25 time=0
<meta message set_tempo tempo=503863 time=240>
note_on channel=0 note=46 velocity=0 time=0
note_on channel=0 note=55 velocity=28 time=0
note_on channel=0 note=70 velocity=0 time=160
note_on channel=0 note=61 velocity=34 time=0
<meta message set_tempo tempo=486736 time=80>
note_on channel=0 note=63 velocity=34 time=80
<meta message set_tempo tempo=501714 time=160>
note_on channel=0 note=63 velocity=0 time=0
note_on channel=0 note=55 velocity=0 time=0
note_on channel=0 note=67 velocity=39 time=0
control_change channel=0 control=64 value=0 time=10
control_change channel=0 control=64 value=127 time=53
note_on channel=0 note=67 velocity=0 time=97
note_on channel=0 note=61 velocity=0 time=0
note_on channel=0 note=72 velocity=34 time=0
note_on channel=0 note=72 velocity=0 time=160
note_on channel=0 note=70 velocity=35 time=0
<meta message set_tempo tempo=484692 time=160>
note_on channel=0 note=70 velocity=0 time=0
note_on channel=0 note=68 velocity=38 time=0
note_on channel=0 note=39 velocity=32 time=0
control_change channel=0 control=64 value=0 time=0
control_change channel=0 control=64 value=127 time=49
note_on channel=0 note=39 velocity=0 time=191
note_on channel=0 note=51 velocity=25 time=0
note_on channel=0 note=51 velocity=0 time=240
note_on channel=0 note=56 velocity=29 time=0
note_on channel=0 note=68 velocity=0 time=240
note_on channel=0 note=59 velocity=37 time=0
note_on channel=0 note=56 velocity=0 time=240
note_on channel=0 note=63 velocity=38 time=0
control_change channel=0 control=64 value=0 time=11
<meta message set_tempo tempo=470736 time=29>
control_change channel=0 control=64 value=127 time=46
note_on channel=0 note=63 velocity=0 time=154
note_on channel=0 note=59 velocity=0 time=0
note_on channel=0 note=65 velocity=35 time=0
<meta message set_tempo tempo=532056 time=80>
<meta message set_tempo tempo=508388 time=160>
note_on channel=0 note=65 velocity=0 time=0
note_on channel=0 note=67 velocity=46 time=0
control_change channel=0 control=64 value=0 time=0
note_on channel=0 note=39 velocity=32 time=0
control_change channel=0 control=64 value=127 time=113
note_on channel=0 note=39 velocity=0 time=127
note_on channel=0 note=46 velocity=22 time=0
<meta message set_tempo tempo=487805 time=240>
note_on channel=0 note=46 velocity=0 time=0
note_on channel=0 note=55 velocity=26 time=0
note_on channel=0 note=55 velocity=0 time=240
note_on channel=0 note=51 velocity=22 time=0
note_on channel=0 note=51 velocity=0 time=240
note_on channel=0 note=58 velocity=26 time=0
note_on channel=0 note=58 velocity=0 time=240
note_on channel=0 note=55 velocity=22 time=0
<meta message set_tempo tempo=493827 time=240>
note_on channel=0 note=55 velocity=0 time=0
note_on channel=0 note=63 velocity=27 time=0
note_on channel=0 note=67 velocity=0 time=240
note_on channel=0 note=67 velocity=34 time=0
note_on channel=0 note=67 velocity=0 time=240
note_on channel=0 note=63 velocity=0 time=0
note_on channel=0 note=70 velocity=36 time=0
note_on channel=0 note=70 velocity=0 time=240
note_on channel=0 note=79 velocity=37 time=0
<meta message set_tempo tempo=470736 time=240>
note_on channel=0 note=79 velocity=0 time=0
note_on channel=0 note=77 velocity=40 time=0
note_on channel=0 note=77 velocity=0 time=240
note_on channel=0 note=75 velocity=37 time=0
<meta message set_tempo tempo=532056 time=80>
<meta message set_tempo tempo=508388 time=160>
note_on channel=0 note=75 velocity=0 time=0
note_on channel=0 note=74 velocity=46 time=0
note_on channel=0 note=43 velocity=32 time=0
control_change channel=0 control=64 value=0 time=7
control_change channel=0 control=64 value=127 time=177
note_on channel=0 note=43 velocity=0 time=56
note_on channel=0 note=50 velocity=22 time=0
<meta message set_tempo tempo=495172 time=240>
note_on channel=0 note=50 velocity=0 time=0
note_on channel=0 note=58 velocity=26 time=0
note_on channel=0 note=58 velocity=0 time=240
note_on channel=0 note=55 velocity=22 time=0
note_on channel=0 note=55 velocity=0 time=240
note_on channel=0 note=62 velocity=26 time=0
note_on channel=0 note=62 velocity=0 time=240
note_on channel=0 note=58 velocity=22 time=0
note_on channel=0 note=58 velocity=0 time=240
note_on channel=0 note=67 velocity=27 time=0
note_on channel=0 note=74 velocity=0 time=240
note_on channel=0 note=70 velocity=34 time=0
note_on channel=0 note=70 velocity=0 time=240
note_on channel=0 note=67 velocity=0 time=0
note_on channel=0 note=74 velocity=36 time=0
note_on channel=0 note=74 velocity=0 time=240
note_on channel=0 note=82 velocity=37 time=0
<meta message set_tempo tempo=470736 time=240>
note_on channel=0 note=82 velocity=0 time=0
note_on channel=0 note=74 velocity=40 time=0
note_on channel=0 note=74 velocity=0 time=240
note_on channel=0 note=75 velocity=37 time=0
<meta message set_tempo tempo=532056 time=80>
<meta message set_tempo tempo=508388 time=160>
note_on channel=0 note=75 velocity=0 time=0
note_on channel=0 note=76 velocity=46 time=0
note_on channel=0 note=46 velocity=32 time=0
control_change channel=0 control=64 value=0 time=15
control_change channel=0 control=64 value=127 time=169
note_on channel=0 note=46 velocity=0 time=56
note_on channel=0 note=53 velocity=22 time=0
<meta message set_tempo tempo=495172 time=240>
note_on channel=0 note=53 velocity=0 time=0
note_on channel=0 note=76 velocity=0 time=0
note_on channel=0 note=77 velocity=46 time=0
note_on channel=0 note=62 velocity=26 time=0
note_on channel=0 note=62 velocity=0 time=240
note_on channel=0 note=58 velocity=22 time=0
note_on channel=0 note=58 velocity=0 time=240
note_on channel=0 note=65 velocity=26 time=0
note_on channel=0 note=65 velocity=0 time=240
note_on channel=0 note=62 velocity=22 time=0
note_on channel=0 note=62 velocity=0 time=240
note_on channel=0 note=70 velocity=27 time=0
<meta message set_tempo tempo=512952 time=240>
note_on channel=0 note=77 velocity=0 time=0
note_on channel=0 note=74 velocity=39 time=0
note_on channel=0 note=74 velocity=0 time=240
note_on channel=0 note=70 velocity=0 time=0
note_on channel=0 note=77 velocity=43 time=0
note_on channel=0 note=77 velocity=0 time=240
note_on channel=0 note=86 velocity=50 time=0
<meta message set_tempo tempo=495172 time=240>
note_on channel=0 note=86 velocity=0 time=0
note_on channel=0 note=84 velocity=46 time=0
note_on channel=0 note=84 velocity=0 time=240
note_on channel=0 note=82 velocity=41 time=0
<meta message set_tempo tempo=532056 time=80>
note_on channel=0 note=82 velocity=0 time=160
note_on channel=0 note=80 velocity=45 time=0
note_on channel=0 note=50 velocity=31 time=0
control_change channel=0 control=64 value=0 time=12
control_change channel=0 control=64 value=127 time=23
note_on channel=0 note=50 velocity=0 time=205
note_on channel=0 note=80 velocity=0 time=0
note_on channel=0 note=81 velocity=40 time=0
note_on channel=0 note=57 velocity=26 time=0
note_on channel=0 note=57 velocity=0 time=240
note_on channel=0 note=81 velocity=0 time=0
note_on channel=0 note=89 velocity=51 time=0
note_on channel=0 note=65 velocity=31 time=0
note_on channel=0 note=65 velocity=0 time=240
note_on channel=0 note=89 velocity=0 time=0
note_on channel=0 note=88 velocity=46 time=0
note_on channel=0 note=62 velocity=26 time=0
note_on channel=0 note=62 velocity=0 time=240
note_on channel=0 note=88 velocity=0 time=0
note_on channel=0 note=86 velocity=45 time=0
note_on channel=0 note=69 velocity=31 time=0
note_on channel=0 note=69 velocity=0 time=240
note_on channel=0 note=86 velocity=0 time=0
note_on channel=0 note=81 velocity=40 time=0
note_on channel=0 note=65 velocity=26 time=0
<meta message set_tempo tempo=532056 time=240>
note_on channel=0 note=65 velocity=0 time=0
note_on channel=0 note=81 velocity=0 time=0
note_on channel=0 note=74 velocity=40 time=0
<meta message set_tempo tempo=534474 time=120>
<meta message set_tempo tempo=537009 time=80>
note_on channel=0 note=74 velocity=0 time=40
note_on channel=0 note=69 velocity=36 time=0
<meta message set_tempo tempo=539520 time=40>
<meta message set_tempo tempo=542103 time=120>
<meta message set_tempo tempo=544712 time=80>
note_on channel=0 note=69 velocity=0 time=0
note_on channel=0 note=65 velocity=39 time=0
<meta message set_tempo tempo=547345 time=80>
<meta message set_tempo tempo=549954 time=80>
note_on channel=0 note=65 velocity=0 time=80
note_on channel=0 note=62 velocity=34 time=0
<meta message set_tempo tempo=552588 time=40>
<meta message set_tempo tempo=555298 time=80>
<meta message set_tempo tempo=653666 time=120>
note_on channel=0 note=62 velocity=0 time=0
note_on channel=0 note=64 velocity=39 time=0
control_change channel=0 control=64 value=0 time=14
note_on channel=0 note=64 velocity=0 time=166
note_on channel=0 note=67 velocity=31 time=0
note_on channel=0 note=67 velocity=0 time=60
note_on channel=0 note=65 velocity=36 time=0
note_on channel=0 note=65 velocity=0 time=240
note_on channel=0 note=52 velocity=28 time=0
control_change channel=0 control=64 value=127 time=347
note_on channel=0 note=40 velocity=25 time=133
note_on channel=0 note=40 velocity=0 time=480
note_on channel=0 note=40 velocity=25 time=0
<meta message set_tempo tempo=630186 time=480>
note_on channel=0 note=40 velocity=0 time=0
note_on channel=0 note=52 velocity=0 time=0
note_on channel=0 note=62 velocity=38 time=240
<meta message set_tempo tempo=556070 time=240>
note_on channel=0 note=64 velocity=37 time=0
note_on channel=0 note=40 velocity=39 time=0
note_on channel=0 note=40 velocity=0 time=240
note_on channel=0 note=68 velocity=37 time=0
<meta message set_tempo tempo=530082 time=240>
note_on channel=0 note=68 velocity=0 time=0
note_on channel=0 note=72 velocity=41 time=0
note_on channel=0 note=40 velocity=39 time=0
note_on channel=0 note=40 velocity=0 time=240
note_on channel=0 note=72 velocity=0 time=0
note_on channel=0 note=71 velocity=39 time=0
<meta message set_tempo tempo=506415 time=240>
note_on channel=0 note=71 velocity=0 time=0
note_on channel=0 note=64 velocity=0 time=0
note_on channel=0 note=62 velocity=0 time=0
note_on channel=0 note=69 velocity=37 time=0
control_change channel=0 control=64 value=0 time=6
control_change channel=0 control=64 value=127 time=269
<meta message set_tempo tempo=493218 time=205>
note_on channel=0 note=60 velocity=23 time=0
note_on channel=0 note=64 velocity=28 time=0
note_on channel=0 note=40 velocity=22 time=0
note_on channel=0 note=40 velocity=0 time=475
note_on channel=0 note=64 velocity=0 time=0
note_on channel=0 note=60 velocity=0 time=0
<meta message set_tempo tempo=527612 time=5>
note_on channel=0 note=60 velocity=23 time=0
note_on channel=0 note=64 velocity=28 time=0
note_on channel=0 note=40 velocity=22 time=0
note_on channel=0 note=40 velocity=0 time=475
note_on channel=0 note=64 velocity=0 time=0
note_on channel=0 note=60 velocity=0 time=0
<meta message set_tempo tempo=497512 time=5>
note_on channel=0 note=69 velocity=0 time=0
note_on channel=0 note=76 velocity=41 time=0
note_on channel=0 note=64 velocity=34 time=0
<meta message set_tempo tempo=501924 time=480>
note_on channel=0 note=69 velocity=28 time=0
note_on channel=0 note=52 velocity=21 time=0
note_on channel=0 note=57 velocity=21 time=0
note_on channel=0 note=57 velocity=0 time=475
note_on channel=0 note=69 velocity=0 time=0
note_on channel=0 note=52 velocity=0 time=0
<meta message set_tempo tempo=499709 time=5>
note_on channel=0 note=69 velocity=28 time=0
note_on channel=0 note=57 velocity=21 time=0
note_on channel=0 note=52 velocity=21 time=0
note_on channel=0 note=52 velocity=0 time=475
note_on channel=0 note=69 velocity=0 time=0
note_on channel=0 note=57 velocity=0 time=0
<meta message set_tempo tempo=520336 time=5>
note_on channel=0 note=64 velocity=0 time=0
note_on channel=0 note=76 velocity=0 time=0
note_on channel=0 note=74 velocity=39 time=0
note_on channel=0 note=62 velocity=34 time=0
control_change channel=0 control=64 value=0 time=9
control_change channel=0 control=64 value=127 time=220
<meta message set_tempo tempo=499709 time=251>
note_on channel=0 note=69 velocity=28 time=0
note_on channel=0 note=65 velocity=23 time=0
note_on channel=0 note=57 velocity=22 time=0
note_on channel=0 note=52 velocity=22 time=0
note_on channel=0 note=52 velocity=0 time=475
note_on channel=0 note=65 velocity=0 time=0
note_on channel=0 note=69 velocity=0 time=0
note_on channel=0 note=57 velocity=0 time=0
note_on channel=0 note=65 velocity=23 time=5
note_on channel=0 note=69 velocity=28 time=0
note_on channel=0 note=52 velocity=22 time=0
note_on channel=0 note=57 velocity=22 time=0
note_on channel=0 note=57 velocity=0 time=475
note_on channel=0 note=69 velocity=0 time=0
note_on channel=0 note=65 velocity=0 time=0
note_on channel=0 note=52 velocity=0 time=0
<meta message set_tempo tempo=547995 time=5>
note_on channel=0 note=62 velocity=0 time=0
note_on channel=0 note=74 velocity=0 time=0
control_change channel=0 control=64 value=0 time=0
note_on channel=0 note=62 velocity=40 time=240
control_change channel=0 control=64 value=127 time=46
<meta message set_tempo tempo=537634 time=194>
note_on channel=0 note=64 velocity=37 time=0
note_on channel=0 note=40 velocity=39 time=0
note_on channel=0 note=40 velocity=0 time=240
note_on channel=0 note=68 velocity=37 time=0
<meta message set_tempo tempo=509251 time=240>
note_on channel=0 note=68 velocity=0 time=0
note_on channel=0 note=72 velocity=41 time=0
note_on channel=0 note=40 velocity=39 time=0
<meta message set_tempo tempo=529381 time=240>
note_on channel=0 note=40 velocity=0 time=0
note_on channel=0 note=72 velocity=0 time=0
note_on channel=0 note=71 velocity=39 time=0
<meta message set_tempo tempo=499709 time=240>
note_on channel=0 note=71 velocity=0 time=0
note_on channel=0 note=64 velocity=0 time=0
note_on channel=0 note=62 velocity=0 time=0
note_on channel=0 note=69 velocity=37 time=0
control_change channel=0 control=64 value=0 time=6
control_change channel=0 control=64 value=127 time=337
<meta message set_tempo tempo=488958 time=137>
note_on channel=0 note=60 velocity=23 time=0
note_on channel=0 note=64 velocity=28 time=0
note_on channel=0 note=40 velocity=22 time=0
note_on channel=0 note=40 velocity=0 time=475
note_on channel=0 note=64 velocity=0 time=0
note_on channel=0 note=60 velocity=0 time=0
<meta message set_tempo tempo=527612 time=5>
note_on channel=0 note=60 velocity=23 time=0
note_on channel=0 note=64 velocity=28 time=0
note_on channel=0 note=40 velocity=22 time=0
note_on channel=0 note=40 velocity=0 time=475
note_on channel=0 note=64 velocity=0 time=0
note_on channel=0 note=60 velocity=0 time=0
<meta message set_tempo tempo=501924 time=5>
note_on channel=0 note=69 velocity=0 time=0
note_on channel=0 note=66 velocity=37 time=0
note_on channel=0 note=54 velocity=31 time=0
control_change channel=0 control=64 value=0 time=16
control_change channel=0 control=64 value=127 time=213
<meta message set_tempo tempo=515597 time=251>
note_on channel=0 note=64 velocity=28 time=0
note_on channel=0 note=57 velocity=23 time=0
note_on channel=0 note=60 velocity=23 time=0
note_on channel=0 note=40 velocity=21 time=0
<meta message set_tempo tempo=504159 time=40>
note_on channel=0 note=40 velocity=0 time=435
note_on channel=0 note=57 velocity=0 time=0
note_on channel=0 note=64 velocity=0 time=0
note_on channel=0 note=60 velocity=0 time=0
<meta message set_tempo tempo=527612 time=5>
note_on channel=0 note=64 velocity=28 time=0
note_on channel=0 note=57 velocity=23 time=0
note_on channel=0 note=60 velocity=23 time=0
note_on channel=0 note=40 velocity=21 time=0
note_on channel=0 note=40 velocity=0 time=475
note_on channel=0 note=57 velocity=0 time=0
note_on channel=0 note=64 velocity=0 time=0
note_on channel=0 note=60 velocity=0 time=0
<meta message set_tempo tempo=542741 time=5>
note_on channel=0 note=54 velocity=0 time=0
note_on channel=0 note=66 velocity=0 time=0
note_on channel=0 note=68 velocity=37 time=0
note_on channel=0 note=56 velocity=31 time=0
control_change channel=0 control=64 value=0 time=6
control_change channel=0 control=64 value=127 time=154
<meta message set_tempo tempo=515597 time=320>
note_on channel=0 note=59 velocity=19 time=0
note_on channel=0 note=64 velocity=23 time=0
note_on channel=0 note=40 velocity=16 time=0
<meta message set_tempo tempo=527612 time=40>
note_on channel=0 note=40 velocity=0 time=435
note_on channel=0 note=59 velocity=0 time=0
note_on channel=0 note=64 velocity=0 time=0
note_on channel=0 note=59 velocity=19 time=5
note_on channel=0 note=64 velocity=23 time=0
note_on channel=0 note=40 velocity=16 time=0
note_on channel=0 note=40 velocity=0 time=475
note_on channel=0 note=59 velocity=0 time=0
note_on channel=0 note=64 velocity=0 time=0
<meta message set_tempo tempo=547995 time=5>
note_on channel=0 note=56 velocity=0 time=0
note_on channel=0 note=68 velocity=0 time=0
control_change channel=0 control=64 value=0 time=12
note_on channel=0 note=62 velocity=40 time=228
control_change channel=0 control=64 value=127 time=46
<meta message set_tempo tempo=537634 time=194>
note_on channel=0 note=64 velocity=37 time=0
note_on channel=0 note=40 velocity=39 time=0
note_on channel=0 note=68 velocity=37 time=240
note_on channel=0 note=40 velocity=0 time=235
<meta message set_tempo tempo=495786 time=5>
note_on channel=0 note=68 velocity=0 time=0
note_on channel=0 note=72 velocity=41 time=0
note_on channel=0 note=40 velocity=39 time=0
<meta message set_tempo tempo=532387 time=240>
note_on channel=0 note=72 velocity=0 time=0
note_on channel=0 note=71 velocity=39 time=0
note_on channel=0 note=40 velocity=0 time=235
<meta message set_tempo tempo=515597 time=5>
note_on channel=0 note=62 velocity=0 time=0
note_on channel=0 note=64 velocity=0 time=0
note_on channel=0 note=71 velocity=0 time=0
note_on channel=0 note=69 velocity=37 time=0
control_change channel=0 control=64 value=0 time=8
<meta message set_tempo tempo=488043 time=472>
note_on channel=0 note=60 velocity=23 time=0
note_on channel=0 note=64 velocity=28 time=0
note_on channel=0 note=40 velocity=22 time=0
control_change channel=0 control=64 value=127 time=114
note_on channel=0 note=40 velocity=0 time=361
note_on channel=0 note=64 velocity=0 time=0
note_on channel=0 note=60 velocity=0 time=0
<meta message set_tempo tempo=527612 time=5>
note_on channel=0 note=60 velocity=23 time=0
note_on channel=0 note=64 velocity=28 time=0
note_on channel=0 note=40 velocity=22 time=0
note_on channel=0 note=40 velocity=0 time=475
note_on channel=0 note=64 velocity=0 time=0
note_on channel=0 note=60 velocity=0 time=0
<meta message set_tempo tempo=491803 time=5>
note_on channel=0 note=69 velocity=0 time=0
note_on channel=0 note=76 velocity=53 time=0
note_on channel=0 note=64 velocity=41 time=0
<meta message set_tempo tempo=466200 time=480>
note_on channel=0 note=72 velocity=32 time=0
note_on channel=0 note=69 velocity=26 time=0
note_on channel=0 note=60 velocity=24 time=0
note_on channel=0 note=52 velocity=19 time=0
note_on channel=0 note=57 velocity=19 time=0
note_on channel=0 note=57 velocity=0 time=475
note_on channel=0 note=60 velocity=0 time=0
note_on channel=0 note=69 velocity=0 time=0
note_on channel=0 note=72 velocity=0 time=0
note_on channel=0 note=52 velocity=0 time=0
<meta message set_tempo tempo=517241 time=5>
note_on channel=0 note=69 velocity=26 time=0
note_on channel=0 note=72 velocity=32 time=0
note_on channel=0 note=52 velocity=19 time=0
note_on channel=0 note=60 velocity=24 time=0
note_on channel=0 note=57 velocity=19 time=0
note_on channel=0 note=57 velocity=0 time=475
note_on channel=0 note=52 velocity=0 time=0
note_on channel=0 note=72 velocity=0 time=0
note_on channel=0 note=69 velocity=0 time=0
note_on channel=0 note=60 velocity=0 time=0
<meta message set_tempo tempo=502092 time=5>
note_on channel=0 note=64 velocity=0 time=0
note_on channel=0 note=76 velocity=0 time=0
note_on channel=0 note=78 velocity=53 time=0
note_on channel=0 note=66 velocity=41 time=0
note_on channel=0 note=64 velocity=26 time=480
note_on channel=0 note=69 velocity=26 time=0
note_on channel=0 note=72 velocity=32 time=0
note_on channel=0 note=52 velocity=19 time=0
note_on channel=0 note=60 velocity=24 time=0
note_on channel=0 note=57 velocity=19 time=0
<meta message set_tempo tempo=461609 time=120>
note_on channel=0 note=57 velocity=0 time=355
note_on channel=0 note=60 velocity=0 time=0
note_on channel=0 note=72 velocity=0 time=0
note_on channel=0 note=69 velocity=0 time=0
note_on channel=0 note=64 velocity=0 time=0
note_on channel=0 note=52 velocity=0 time=0
note_on channel=0 note=69 velocity=26 time=5
note_on channel=0 note=72 velocity=32 time=0
note_on channel=0 note=64 velocity=26 time=0
note_on channel=0 note=60 velocity=24 time=0
note_on channel=0 note=52 velocity=19 time=0
note_on channel=0 note=57 velocity=19 time=0
<meta message set_tempo tempo=475662 time=120>
note_on channel=0 note=57 velocity=0 time=355
note_on channel=0 note=52 velocity=0 time=0
note_on channel=0 note=64 velocity=0 time=0
note_on channel=0 note=72 velocity=0 time=0
note_on channel=0 note=69 velocity=0 time=0
note_on channel=0 note=60 velocity=0 time=0
<meta message set_tempo tempo=533333 time=5>
note_on channel=0 note=66 velocity=0 time=0
note_on channel=0 note=78 velocity=0 time=0
control_change channel=0 control=64 value=0 time=16
note_on channel=0 note=60 velocity=40 time=224
control_change channel=0 control=64 value=127 time=46
<meta message set_tempo tempo=521739 time=194>
note_on channel=0 note=64 velocity=37 time=0
note_on channel=0 note=40 velocity=39 time=0
note_on channel=0 note=68 velocity=37 time=240
note_on channel=0 note=40 velocity=0 time=235
<meta message set_tempo tempo=495786 time=5>
note_on channel=0 note=68 velocity=0 time=0
note_on channel=0 note=71 velocity=41 time=0
note_on channel=0 note=40 velocity=39 time=0
<meta message set_tempo tempo=506500 time=240>
note_on channel=0 note=71 velocity=0 time=0
note_on channel=0 note=69 velocity=39 time=0
note_on channel=0 note=40 velocity=0 time=235
<meta message set_tempo tempo=515597 time=5>
note_on channel=0 note=60 velocity=0 time=0
note_on channel=0 note=64 velocity=0 time=0
note_on channel=0 note=69 velocity=0 time=0
note_on channel=0 note=69 velocity=37 time=0
control_change channel=0 control=64 value=0 time=6
<meta message set_tempo tempo=497512 time=474>
note_on channel=0 note=64 velocity=28 time=0
note_on channel=0 note=60 velocity=23 time=0
note_on channel=0 note=40 velocity=22 time=0
control_change channel=0 control=64 value=127 time=114
note_on channel=0 note=40 velocity=0 time=361
note_on channel=0 note=60 velocity=0 time=0
note_on channel=0 note=64 velocity=0 time=0
<meta message set_tempo tempo=527612 time=5>
note_on channel=0 note=60 velocity=23 time=0
note_on channel=0 note=64 velocity=28 time=0
note_on channel=0 note=40 velocity=22 time=0
note_on channel=0 note=40 velocity=0 time=475
note_on channel=0 note=64 velocity=0 time=0
note_on channel=0 note=60 velocity=0 time=0
<meta message set_tempo tempo=489796 time=5>
note_on channel=0 note=69 velocity=0 time=0
note_on channel=0 note=78 velocity=55 time=0
note_on channel=0 note=66 velocity=45 time=0
<meta message set_tempo tempo=468530 time=480>
note_on channel=0 note=64 velocity=28 time=0
note_on channel=0 note=69 velocity=28 time=0
note_on channel=0 note=72 velocity=34 time=0
note_on channel=0 note=52 velocity=21 time=0
note_on channel=0 note=60 velocity=26 time=0
note_on channel=0 note=57 velocity=21 time=0
<meta message set_tempo tempo=470884 time=120>
note_on channel=0 note=57 velocity=0 time=355
note_on channel=0 note=60 velocity=0 time=0
note_on channel=0 note=72 velocity=0 time=0
note_on channel=0 note=69 velocity=0 time=0
note_on channel=0 note=64 velocity=0 time=0
note_on channel=0 note=52 velocity=0 time=0
<meta message set_tempo tempo=513303 time=5>
note_on channel=0 note=64 velocity=28 time=0
note_on channel=0 note=69 velocity=28 time=0
note_on channel=0 note=72 velocity=36 time=0
note_on channel=0 note=57 velocity=21 time=0
note_on channel=0 note=52 velocity=21 time=0
note_on channel=0 note=60 velocity=26 time=0
note_on channel=0 note=60 velocity=0 time=475
note_on channel=0 note=52 velocity=0 time=0
note_on channel=0 note=72 velocity=0 time=0
note_on channel=0 note=69 velocity=0 time=0
note_on channel=0 note=64 velocity=0 time=0
note_on channel=0 note=57 velocity=0 time=0
<meta message set_tempo tempo=497925 time=5>
note_on channel=0 note=66 velocity=0 time=0
note_on channel=0 note=78 velocity=0 time=0
note_on channel=0 note=80 velocity=58 time=0
note_on channel=0 note=68 velocity=47 time=0
control_change channel=0 control=64 value=0 time=6
control_change channel=0 control=64 value=127 time=206
<meta message set_tempo tempo=489796 time=268>
note_on channel=0 note=69 velocity=30 time=0
note_on channel=0 note=72 velocity=30 time=0
note_on channel=0 note=75 velocity=36 time=0
note_on channel=0 note=52 velocity=21 time=0
note_on channel=0 note=60 velocity=28 time=0
note_on channel=0 note=57 velocity=21 time=0
<meta message set_tempo tempo=468530 time=120>
note_on channel=0 note=57 velocity=0 time=355
note_on channel=0 note=60 velocity=0 time=0
note_on channel=0 note=75 velocity=0 time=0
note_on channel=0 note=72 velocity=0 time=0
note_on channel=0 note=69 velocity=0 time=0
note_on channel=0 note=52 velocity=0 time=0
<meta message set_tempo tempo=488043 time=5>
note_on channel=0 note=75 velocity=37 time=0
note_on channel=0 note=72 velocity=30 time=0
note_on channel=0 note=69 velocity=30 time=0
note_on channel=0 note=57 velocity=21 time=0
note_on channel=0 note=52 velocity=21 time=0
note_on channel=0 note=60 velocity=28 time=0
note_on channel=0 note=60 velocity=0 time=475
note_on channel=0 note=52 velocity=0 time=0
note_on channel=0 note=69 velocity=0 time=0
note_on channel=0 note=72 velocity=0 time=0
note_on channel=0 note=75 velocity=0 time=0
note_on channel=0 note=57 velocity=0 time=0
<meta message set_tempo tempo=501924 time=5>
note_on channel=0 note=68 velocity=0 time=0
note_on channel=0 note=80 velocity=0 time=0
note_on channel=0 note=78 velocity=62 time=0
note_on channel=0 note=66 velocity=50 time=0
control_change channel=0 control=64 value=0 time=10
control_change channel=0 control=64 value=127 time=272
<meta message set_tempo tempo=478088 time=198>
note_on channel=0 note=69 velocity=31 time=0
note_on channel=0 note=75 velocity=39 time=0
note_on channel=0 note=72 velocity=31 time=0
note_on channel=0 note=57 velocity=23 time=0
note_on channel=0 note=52 velocity=23 time=0
note_on channel=0 note=60 velocity=28 time=0
<meta message set_tempo tempo=513303 time=480>
note_on channel=0 note=60 velocity=0 time=0
note_on channel=0 note=78 velocity=0 time=0
note_on channel=0 note=72 velocity=0 time=0
note_on channel=0 note=66 velocity=0 time=0
note_on channel=0 note=69 velocity=0 time=0
note_on channel=0 note=75 velocity=0 time=0
note_on channel=0 note=57 velocity=0 time=0
note_on channel=0 note=52 velocity=0 time=0
note_on channel=0 note=80 velocity=65 time=240
note_on channel=0 note=68 velocity=53 time=0
control_change channel=0 control=64 value=0 time=7
note_on channel=0 note=68 velocity=0 time=213
note_on channel=0 note=80 velocity=0 time=0
<meta message set_tempo tempo=500000 time=20>
note_on channel=0 note=80 velocity=66 time=0
note_on channel=0 note=68 velocity=53 time=0
<meta message set_tempo tempo=481928 time=40>
control_change channel=0 control=64 value=127 time=109
<meta message set_tempo tempo=483871 time=331>
note_on channel=0 note=75 velocity=45 time=0
note_on channel=0 note=72 velocity=35 time=0
note_on channel=0 note=69 velocity=35 time=0
note_on channel=0 note=52 velocity=25 time=0
note_on channel=0 note=60 velocity=32 time=0
note_on channel=0 note=57 velocity=25 time=0
<meta message set_tempo tempo=472441 time=40>
<meta message set_tempo tempo=463894 time=80>
note_on channel=0 note=57 velocity=0 time=355
note_on channel=0 note=60 velocity=0 time=0
note_on channel=0 note=69 velocity=0 time=0
note_on channel=0 note=72 velocity=0 time=0
note_on channel=0 note=75 velocity=0 time=0
note_on channel=0 note=52 velocity=0 time=0
<meta message set_tempo tempo=481928 time=5>
note_on channel=0 note=75 velocity=45 time=0
note_on channel=0 note=72 velocity=35 time=0
note_on channel=0 note=69 velocity=35 time=0
note_on channel=0 note=52 velocity=26 time=0
note_on channel=0 note=60 velocity=33 time=0
note_on channel=0 note=57 velocity=26 time=0
<meta message set_tempo tempo=483871 time=40>
note_on channel=0 note=57 velocity=0 time=435
note_on channel=0 note=60 velocity=0 time=0
note_on channel=0 note=69 velocity=0 time=0
note_on channel=0 note=72 velocity=0 time=0
note_on channel=0 note=75 velocity=0 time=0
note_on channel=0 note=52 velocity=0 time=0
<meta message set_tempo tempo=501924 time=5>
note_on channel=0 note=68 velocity=0 time=0
note_on channel=0 note=80 velocity=0 time=0
note_on channel=0 note=78 velocity=69 time=0
note_on channel=0 note=66 velocity=57 time=0
control_change channel=0 control=64 value=0 time=11
control_change channel=0 control=64 value=127 time=271
<meta message set_tempo tempo=463320 time=198>
note_on channel=0 note=69 velocity=38 time=0
note_on channel=0 note=72 velocity=38 time=0
note_on channel=0 note=75 velocity=47 time=0
note_on channel=0 note=60 velocity=34 time=0
note_on channel=0 note=52 velocity=27 time=0
note_on channel=0 note=57 velocity=27 time=0
<meta message set_tempo tempo=489796 time=480>
note_on channel=0 note=57 velocity=0 time=0
note_on channel=0 note=78 velocity=0 time=0
note_on channel=0 note=75 velocity=0 time=0
note_on channel=0 note=66 velocity=0 time=0
note_on channel=0 note=69 velocity=0 time=0
note_on channel=0 note=72 velocity=0 time=0
note_on channel=0 note=60 velocity=0 time=0
note_on channel=0 note=52 velocity=0 time=0
note_on channel=0 note=80 velocity=71 time=240
note_on channel=0 note=68 velocity=59 time=0
control_change channel=0 control=64 value=0 time=6
note_on channel=0 note=68 velocity=0 time=214
note_on channel=0 note=80 velocity=0 time=0
<meta message set_tempo tempo=468750 time=20>
note_on channel=0 note=80 velocity=74 time=0
note_on channel=0 note=68 velocity=59 time=0
control_change channel=0 control=64 value=127 time=149
<meta message set_tempo tempo=446229 time=331>
note_on channel=0 note=75 velocity=50 time=0
note_on channel=0 note=72 velocity=39 time=0
note_on channel=0 note=69 velocity=39 time=0
note_on channel=0 note=52 velocity=29 time=0
note_on channel=0 note=57 velocity=29 time=0
note_on channel=0 note=60 velocity=36 time=0
note_on channel=0 note=60 velocity=0 time=475
note_on channel=0 note=57 velocity=0 time=0
note_on channel=0 note=69 velocity=0 time=0
note_on channel=0 note=72 velocity=0 time=0
note_on channel=0 note=75 velocity=0 time=0
note_on channel=0 note=52 velocity=0 time=0
<meta message set_tempo tempo=468750 time=5>
note_on channel=0 note=75 velocity=50 time=0
note_on channel=0 note=72 velocity=40 time=0
note_on channel=0 note=69 velocity=40 time=0
note_on channel=0 note=52 velocity=29 time=0
note_on channel=0 note=60 velocity=37 time=0
note_on channel=0 note=57 velocity=29 time=0
note_on channel=0 note=57 velocity=0 time=475
note_on channel=0 note=60 velocity=0 time=0
note_on channel=0 note=69 velocity=0 time=0
note_on channel=0 note=72 velocity=0 time=0
note_on channel=0 note=75 velocity=0 time=0
note_on channel=0 note=52 velocity=0 time=0
<meta message set_tempo tempo=481928 time=5>
note_on channel=0 note=68 velocity=0 time=0
note_on channel=0 note=80 velocity=0 time=0
note_on channel=0 note=78 velocity=81 time=0
note_on channel=0 note=66 velocity=65 time=0
control_change channel=0 control=64 value=0 time=11
control_change channel=0 control=64 value=127 time=271
<meta message set_tempo tempo=444115 time=198>
note_on channel=0 note=75 velocity=53 time=0
note_on channel=0 note=69 velocity=42 time=0
note_on channel=0 note=72 velocity=42 time=0
note_on channel=0 note=57 velocity=31 time=0
note_on channel=0 note=52 velocity=31 time=0
note_on channel=0 note=60 velocity=39 time=0
<meta message set_tempo tempo=470588 time=480>
note_on channel=0 note=60 velocity=0 time=0
note_on channel=0 note=78 velocity=0 time=0
note_on channel=0 note=72 velocity=0 time=0
note_on channel=0 note=66 velocity=0 time=0
note_on channel=0 note=75 velocity=0 time=0
note_on channel=0 note=69 velocity=0 time=0
note_on channel=0 note=57 velocity=0 time=0
note_on channel=0 note=52 velocity=0 time=0
note_on channel=0 note=80 velocity=77 time=240
note_on channel=0 note=68 velocity=61 time=0
<meta message set_tempo tempo=442804 time=240>
note_on channel=0 note=68 velocity=0 time=0
note_on channel=0 note=80 velocity=0 time=0
note_on channel=0 note=81 velocity=78 time=0
note_on channel=0 note=69 velocity=63 time=0
control_change channel=0 control=64 value=0 time=5
control_change channel=0 control=64 value=127 time=144
<meta message set_tempo tempo=419580 time=331>
note_on channel=0 note=78 velocity=57 time=0
note_on channel=0 note=72 velocity=47 time=0
note_on channel=0 note=75 velocity=47 time=0
note_on channel=0 note=57 velocity=34 time=0
note_on channel=0 note=52 velocity=34 time=0
note_on channel=0 note=60 velocity=41 time=0
note_on channel=0 note=60 velocity=0 time=475
note_on channel=0 note=52 velocity=0 time=0
note_on channel=0 note=75 velocity=0 time=0
note_on channel=0 note=72 velocity=0 time=0
note_on channel=0 note=78 velocity=0 time=0
note_on channel=0 note=57 velocity=0 time=0
note_on channel=0 note=78 velocity=59 time=5
note_on channel=0 note=75 velocity=48 time=0
note_on channel=0 note=72 velocity=48 time=0
note_on channel=0 note=60 velocity=46 time=0
note_on channel=0 note=52 velocity=34 time=0
note_on channel=0 note=57 velocity=34 time=0
note_on channel=0 note=57 velocity=0 time=475
note_on channel=0 note=52 velocity=0 time=0
note_on channel=0 note=72 velocity=0 time=0
note_on channel=0 note=75 velocity=0 time=0
note_on channel=0 note=78 velocity=0 time=0
note_on channel=0 note=60 velocity=0 time=0
<meta message set_tempo tempo=436364 time=5>
note_on channel=0 note=69 velocity=0 time=0
note_on channel=0 note=81 velocity=0 time=0
note_on channel=0 note=80 velocity=94 time=0
note_on channel=0 note=68 velocity=74 time=0
control_change channel=0 control=64 value=0 time=8
control_change channel=0 control=64 value=127 time=274
<meta message set_tempo tempo=406780 time=198>
note_on channel=0 note=78 velocity=63 time=0
note_on channel=0 note=75 velocity=50 time=0
note_on channel=0 note=72 velocity=50 time=0
note_on channel=0 note=57 velocity=35 time=0
note_on channel=0 note=52 velocity=35 time=0
note_on channel=0 note=60 velocity=46 time=0
note_on channel=0 note=60 velocity=0 time=300
note_on channel=0 note=52 velocity=0 time=0
note_on channel=0 note=68 velocity=0 time=0
note_on channel=0 note=57 velocity=0 time=0
note_on channel=0 note=52 velocity=35 time=0
note_on channel=0 note=57 velocity=36 time=60
note_on channel=0 note=60 velocity=46 time=60
note_on channel=0 note=75 velocity=0 time=55
note_on channel=0 note=72 velocity=0 time=0
note_on channel=0 note=78 velocity=0 time=0
<meta message set_tempo tempo=441176 time=5>
note_on channel=0 note=80 velocity=0 time=0
note_on channel=0 note=75 velocity=50 time=0
note_on channel=0 note=72 velocity=50 time=0
note_on channel=0 note=78 velocity=61 time=0
note_on channel=0 note=81 velocity=100 time=0
note_on channel=0 note=69 velocity=80 time=0
note_on channel=0 note=81 velocity=0 time=475
note_on channel=0 note=75 velocity=0 time=0
note_on channel=0 note=72 velocity=0 time=0
note_on channel=0 note=78 velocity=0 time=0
<meta message set_tempo tempo=387097 time=5>
note_on channel=0 note=60 velocity=0 time=0
note_on channel=0 note=69 velocity=0 time=0
note_on channel=0 note=57 velocity=0 time=0
note_on channel=0 note=52 velocity=0 time=0
note_on channel=0 note=71 velocity=82 time=0
note_on channel=0 note=74 velocity=82 time=0
note_on channel=0 note=83 velocity=99 time=0
note_on channel=0 note=80 velocity=82 time=0
note_on channel=0 note=76 velocity=82 time=0
note_on channel=0 note=28 velocity=70 time=0
note_on channel=0 note=40 velocity=84 time=0
control_change channel=0 control=64 value=0 time=4
control_change channel=0 control=64 value=127 time=327
<meta message set_tempo tempo=361446 time=149>
note_on channel=0 note=40 velocity=0 time=0
note_on channel=0 note=28 velocity=0 time=0
note_on channel=0 note=52 velocity=61 time=0
note_on channel=0 note=62 velocity=72 time=0
note_on channel=0 note=56 velocity=61 time=0
note_on channel=0 note=56 velocity=0 time=480
note_on channel=0 note=62 velocity=0 time=0
note_on channel=0 note=52 velocity=0 time=0
note_on channel=0 note=62 velocity=61 time=0
note_on channel=0 note=64 velocity=73 time=0
note_on channel=0 note=56 velocity=61 time=0
<meta message set_tempo tempo=372671 time=480>
note_on channel=0 note=56 velocity=0 time=0
note_on channel=0 note=80 velocity=0 time=0
note_on channel=0 note=76 velocity=0 time=0
note_on channel=0 note=74 velocity=0 time=0
note_on channel=0 note=83 velocity=0 time=0
note_on channel=0 note=71 velocity=0 time=0
note_on channel=0 note=62 velocity=0 time=0
note_on channel=0 note=64 velocity=0 time=0
note_on channel=0 note=76 velocity=81 time=0
note_on channel=0 note=74 velocity=81 time=0
note_on channel=0 note=80 velocity=81 time=0
note_on channel=0 note=85 velocity=96 time=0
note_on channel=0 note=68 velocity=84 time=0
note_on channel=0 note=59 velocity=70 time=0
note_on channel=0 note=62 velocity=70 time=0
<meta message set_tempo tempo=348918 time=480>
note_on channel=0 note=62 velocity=0 time=0
note_on channel=0 note=68 velocity=0 time=0
note_on channel=0 note=59 velocity=0 time=0
note_on channel=0 note=64 velocity=72 time=0
note_on channel=0 note=56 velocity=61 time=0
note_on channel=0 note=62 velocity=61 time=0
note_on channel=0 note=62 velocity=0 time=480
note_on channel=0 note=64 velocity=0 time=0
note_on channel=0 note=74 velocity=0 time=0
note_on channel=0 note=85 velocity=0 time=0
note_on channel=0 note=76 velocity=0 time=0
note_on channel=0 note=56 velocity=0 time=0
note_on channel=0 note=80 velocity=0 time=0
note_on channel=0 note=74 velocity=77 time=0
note_on channel=0 note=76 velocity=77 time=0
note_on channel=0 note=80 velocity=77 time=0
note_on channel=0 note=85 velocity=91 time=0
note_on channel=0 note=62 velocity=73 time=0
note_on channel=0 note=52 velocity=61 time=0
note_on channel=0 note=56 velocity=61 time=0
<meta message set_tempo tempo=348837 time=480>
note_on channel=0 note=56 velocity=0 time=0
note_on channel=0 note=62 velocity=0 time=0
note_on channel=0 note=76 velocity=0 time=0
note_on channel=0 note=80 velocity=0 time=0
note_on channel=0 note=74 velocity=0 time=0
note_on channel=0 note=52 velocity=0 time=0
note_on channel=0 note=85 velocity=0 time=0
note_on channel=0 note=81 velocity=96 time=0
note_on channel=0 note=73 velocity=81 time=0
note_on channel=0 note=69 velocity=81 time=0
note_on channel=0 note=45 velocity=84 time=0
note_on channel=0 note=33 velocity=70 time=0
control_change channel=0 control=64 value=0 time=10
control_change channel=0 control=64 value=127 time=310
<meta message set_tempo tempo=350201 time=160>
note_on channel=0 note=33 velocity=0 time=0
note_on channel=0 note=45 velocity=0 time=0
note_on channel=0 note=52 velocity=61 time=0
note_on channel=0 note=61 velocity=73 time=0
note_on channel=0 note=61 velocity=0 time=480
note_on channel=0 note=52 velocity=0 time=0
note_on channel=0 note=57 velocity=62 time=0
note_on channel=0 note=64 velocity=74 time=0
<meta message set_tempo tempo=359238 time=480>
note_on channel=0 note=64 velocity=0 time=0
note_on channel=0 note=69 velocity=0 time=0
note_on channel=0 note=81 velocity=0 time=0
note_on channel=0 note=73 velocity=0 time=0
note_on channel=0 note=57 velocity=0 time=0
note_on channel=0 note=81 velocity=89 time=0
note_on channel=0 note=85 velocity=89 time=0
note_on channel=0 note=93 velocity=105 time=0
note_on channel=0 note=61 velocity=70 time=0
note_on channel=0 note=69 velocity=84 time=0
<meta message set_tempo tempo=346460 time=480>
note_on channel=0 note=69 velocity=0 time=0
note_on channel=0 note=61 velocity=0 time=0
note_on channel=0 note=64 velocity=73 time=0
note_on channel=0 note=57 velocity=61 time=0
note_on channel=0 note=57 velocity=0 time=480
note_on channel=0 note=81 velocity=0 time=0
note_on channel=0 note=93 velocity=0 time=0
note_on channel=0 note=85 velocity=0 time=0
note_on channel=0 note=64 velocity=0 time=0
note_on channel=0 note=80 velocity=85 time=0
note_on channel=0 note=85 velocity=85 time=0
note_on channel=0 note=92 velocity=101 time=0
note_on channel=0 note=61 velocity=73 time=0
note_on channel=0 note=52 velocity=61 time=0
note_on channel=0 note=52 velocity=0 time=480
note_on channel=0 note=92 velocity=0 time=0
note_on channel=0 note=80 velocity=0 time=0
note_on channel=0 note=85 velocity=0 time=0
note_on channel=0 note=61 velocity=0 time=0
note_on channel=0 note=78 velocity=85 time=0
note_on channel=0 note=85 velocity=89 time=0
note_on channel=0 note=90 velocity=103 time=0
note_on channel=0 note=47 velocity=84 time=0
note_on channel=0 note=35 velocity=70 time=0
control_change channel=0 control=64 value=0 time=8
<meta message set_tempo tempo=355303 time=32>
control_change channel=0 control=64 value=127 time=235
<meta message set_tempo tempo=343840 time=205>
note_on channel=0 note=35 velocity=0 time=0
note_on channel=0 note=47 velocity=0 time=0
note_on channel=0 note=59 velocity=73 time=0
note_on channel=0 note=54 velocity=61 time=0
<meta message set_tempo tempo=346821 time=480>
note_on channel=0 note=54 velocity=0 time=0
note_on channel=0 note=59 velocity=0 time=0
note_on channel=0 note=63 velocity=73 time=0
note_on channel=0 note=57 velocity=61 time=0
<meta message set_tempo tempo=357910 time=480>
note_on channel=0 note=57 velocity=0 time=0
note_on channel=0 note=90 velocity=0 time=0
note_on channel=0 note=78 velocity=0 time=0
note_on channel=0 note=85 velocity=0 time=0
note_on channel=0 note=63 velocity=0 time=0
note_on channel=0 note=83 velocity=86 time=0
note_on channel=0 note=87 velocity=86 time=0
note_on channel=0 note=92 velocity=102 time=0
note_on channel=0 note=66 velocity=84 time=0
note_on channel=0 note=59 velocity=70 time=0
note_on channel=0 note=59 velocity=0 time=480
note_on channel=0 note=66 velocity=0 time=0
note_on channel=0 note=57 velocity=61 time=0
note_on channel=0 note=63 velocity=72 time=0
<meta message set_tempo tempo=345821 time=40>
note_on channel=0 note=63 velocity=0 time=440
note_on channel=0 note=83 velocity=0 time=0
note_on channel=0 note=92 velocity=0 time=0
note_on channel=0 note=87 velocity=0 time=0
note_on channel=0 note=57 velocity=0 time=0
note_on channel=0 note=92 velocity=93 time=0
note_on channel=0 note=87 velocity=79 time=0
note_on channel=0 note=81 velocity=79 time=0
note_on channel=0 note=59 velocity=72 time=0
note_on channel=0 note=54 velocity=61 time=0
<meta message set_tempo tempo=348837 time=40>
<meta message set_tempo tempo=356591 time=440>
note_on channel=0 note=54 velocity=0 time=0
note_on channel=0 note=81 velocity=0 time=0
note_on channel=0 note=92 velocity=0 time=0
note_on channel=0 note=87 velocity=0 time=0
note_on channel=0 note=59 velocity=0 time=0
note_on channel=0 note=88 velocity=103 time=0
note_on channel=0 note=80 velocity=88 time=0
note_on channel=0 note=76 velocity=88 time=0
note_on channel=0 note=52 velocity=84 time=0
note_on channel=0 note=40 velocity=70 time=0
control_change channel=0 control=64 value=0 time=6
control_change channel=0 control=64 value=127 time=291
<meta message set_tempo tempo=342857 time=183>
note_on channel=0 note=40 velocity=0 time=0
note_on channel=0 note=52 velocity=0 time=0
note_on channel=0 note=52 velocity=62 time=0
note_on channel=0 note=59 velocity=74 time=0
<meta message set_tempo tempo=345821 time=480>
note_on channel=0 note=59 velocity=0 time=0
note_on channel=0 note=52 velocity=0 time=0
note_on channel=0 note=56 velocity=62 time=0
note_on channel=0 note=64 velocity=74 time=0
<meta message set_tempo tempo=357910 time=480>
note_on channel=0 note=64 velocity=0 time=0
note_on channel=0 note=76 velocity=0 time=0
note_on channel=0 note=88 velocity=0 time=0
note_on channel=0 note=80 velocity=0 time=0
note_on channel=0 note=56 velocity=0 time=0
note_on channel=0 note=88 velocity=113 time=0
note_on channel=0 note=76 velocity=96 time=0
note_on channel=0 note=68 velocity=84 time=0
note_on channel=0 note=59 velocity=70 time=0
<meta message set_tempo tempo=345224 time=480>
note_on channel=0 note=59 velocity=0 time=0
note_on channel=0 note=68 velocity=0 time=0
note_on channel=0 note=56 velocity=62 time=0
note_on channel=0 note=64 velocity=74 time=0
note_on channel=0 note=64 velocity=0 time=480
note_on channel=0 note=88 velocity=0 time=0
note_on channel=0 note=76 velocity=0 time=0
note_on channel=0 note=56 velocity=0 time=0
note_on channel=0 note=76 velocity=96 time=0
note_on channel=0 note=88 velocity=113 time=0
note_on channel=0 note=59 velocity=74 time=0
note_on channel=0 note=52 velocity=62 time=0
<meta message set_tempo tempo=354003 time=480>
note_on channel=0 note=52 velocity=0 time=0
note_on channel=0 note=76 velocity=0 time=0
note_on channel=0 note=88 velocity=0 time=0
note_on channel=0 note=59 velocity=0 time=0
note_on channel=0 note=81 velocity=86 time=0
note_on channel=0 note=76 velocity=94 time=0
note_on channel=0 note=88 velocity=113 time=0
control_change channel=0 control=64 value=0 time=0
note_on channel=0 note=42 velocity=70 time=0
note_on channel=0 note=54 velocity=84 time=0
control_change channel=0 control=64 value=0 time=8
control_change channel=0 control=64 value=127 time=289
<meta message set_tempo tempo=344828 time=183>
note_on channel=0 note=54 velocity=0 time=0
note_on channel=0 note=42 velocity=0 time=0
note_on channel=0 note=54 velocity=62 time=0
note_on channel=0 note=62 velocity=74 time=0
<meta message set_tempo tempo=346821 time=480>
note_on channel=0 note=62 velocity=0 time=0
note_on channel=0 note=88 velocity=0 time=0
note_on channel=0 note=54 velocity=0 time=0
note_on channel=0 note=76 velocity=0 time=0
note_on channel=0 note=74 velocity=82 time=0
note_on channel=0 note=86 velocity=97 time=0
note_on channel=0 note=69 velocity=74 time=0
note_on channel=0 note=57 velocity=62 time=0
<meta message set_tempo tempo=354003 time=480>
note_on channel=0 note=57 velocity=0 time=0
note_on channel=0 note=86 velocity=0 time=0
note_on channel=0 note=81 velocity=0 time=0
note_on channel=0 note=74 velocity=0 time=0
note_on channel=0 note=69 velocity=0 time=0
note_on channel=0 note=86 velocity=95 time=0
note_on channel=0 note=74 velocity=81 time=0
note_on channel=0 note=35 velocity=70 time=0
note_on channel=0 note=47 velocity=84 time=0
control_change channel=0 control=64 value=0 time=14
control_change channel=0 control=64 value=127 time=113
note_on channel=0 note=74 velocity=0 time=33
note_on channel=0 note=86 velocity=0 time=0
note_on channel=0 note=76 velocity=79 time=0
note_on channel=0 note=88 velocity=93 time=0
note_on channel=0 note=88 velocity=0 time=160
note_on channel=0 note=76 velocity=0 time=0
note_on channel=0 note=74 velocity=75 time=0
note_on channel=0 note=86 velocity=90 time=0
<meta message set_tempo tempo=347685 time=160>
note_on channel=0 note=86 velocity=0 time=0
note_on channel=0 note=47 velocity=0 time=0
note_on channel=0 note=35 velocity=0 time=0
note_on channel=0 note=74 velocity=0 time=0
note_on channel=0 note=73 velocity=82 time=0
note_on channel=0 note=85 velocity=97 time=0
note_on channel=0 note=54 velocity=62 time=0
note_on channel=0 note=62 velocity=74 time=0
note_on channel=0 note=85 velocity=0 time=240
note_on channel=0 note=73 velocity=0 time=0
note_on channel=0 note=86 velocity=93 time=0
note_on channel=0 note=74 velocity=79 time=0
<meta message set_tempo tempo=348837 time=40>
note_on channel=0 note=74 velocity=0 time=200
note_on channel=0 note=86 velocity=0 time=0
note_on channel=0 note=54 velocity=0 time=0
note_on channel=0 note=90 velocity=97 time=0
note_on channel=0 note=78 velocity=82 time=0
note_on channel=0 note=69 velocity=74 time=0
note_on channel=0 note=59 velocity=62 time=0
<meta message set_tempo tempo=356083 time=240>
note_on channel=0 note=78 velocity=0 time=0
note_on channel=0 note=90 velocity=0 time=0
note_on channel=0 note=88 velocity=92 time=0
note_on channel=0 note=76 velocity=78 time=0
<meta message set_tempo tempo=354003 time=240>
note_on channel=0 note=76 velocity=0 time=0
note_on channel=0 note=62 velocity=0 time=0
note_on channel=0 note=59 velocity=0 time=0
note_on channel=0 note=69 velocity=0 time=0
note_on channel=0 note=88 velocity=0 time=0
note_on channel=0 note=74 velocity=94 time=0
note_on channel=0 note=80 velocity=86 time=0
note_on channel=0 note=86 velocity=113 time=0
control_change channel=0 control=64 value=0 time=0
note_on channel=0 note=52 velocity=84 time=0
note_on channel=0 note=40 velocity=70 time=0
control_change channel=0 control=64 value=0 time=0
control_change channel=0 control=64 value=127 time=297
<meta message set_tempo tempo=343840 time=183>
note_on channel=0 note=40 velocity=0 time=0
note_on channel=0 note=52 velocity=0 time=0
note_on channel=0 note=52 velocity=62 time=0
note_on channel=0 note=61 velocity=74 time=0
<meta message set_tempo tempo=346821 time=480>
note_on channel=0 note=61 velocity=0 time=0
note_on channel=0 note=86 velocity=0 time=0
note_on channel=0 note=52 velocity=0 time=0
note_on channel=0 note=74 velocity=0 time=0
note_on channel=0 note=73 velocity=82 time=0
note_on channel=0 note=85 velocity=97 time=0
note_on channel=0 note=56 velocity=62 time=0
note_on channel=0 note=68 velocity=74 time=0
<meta message set_tempo tempo=354003 time=480>
note_on channel=0 note=68 velocity=0 time=0
note_on channel=0 note=85 velocity=0 time=0
note_on channel=0 note=80 velocity=0 time=0
note_on channel=0 note=73 velocity=0 time=0
note_on channel=0 note=56 velocity=0 time=0
note_on channel=0 note=85 velocity=95 time=0
note_on channel=0 note=73 velocity=81 time=0
note_on channel=0 note=45 velocity=84 time=0
note_on channel=0 note=33 velocity=70 time=0
control_change channel=0 control=64 value=0 time=15
control_change channel=0 control=64 value=127 time=112
note_on channel=0 note=73 velocity=0 time=33
note_on channel=0 note=85 velocity=0 time=0
note_on channel=0 note=74 velocity=79 time=0
note_on channel=0 note=86 velocity=93 time=0
note_on channel=0 note=86 velocity=0 time=160
note_on channel=0 note=74 velocity=0 time=0
note_on channel=0 note=73 velocity=75 time=0
note_on channel=0 note=85 velocity=90 time=0
<meta message set_tempo tempo=347685 time=160>
note_on channel=0 note=85 velocity=0 time=0
note_on channel=0 note=33 velocity=0 time=0
note_on channel=0 note=45 velocity=0 time=0
note_on channel=0 note=73 velocity=0 time=0
note_on channel=0 note=72 velocity=82 time=0
note_on channel=0 note=84 velocity=97 time=0
note_on channel=0 note=61 velocity=74 time=0
note_on channel=0 note=52 velocity=62 time=0
<meta message set_tempo tempo=349854 time=240>
note_on channel=0 note=84 velocity=0 time=0
note_on channel=0 note=72 velocity=0 time=0
note_on channel=0 note=85 velocity=93 time=0
note_on channel=0 note=73 velocity=79 time=0
note_on channel=0 note=73 velocity=0 time=240
note_on channel=0 note=85 velocity=0 time=0
note_on channel=0 note=52 velocity=0 time=0
note_on channel=0 note=76 velocity=82 time=0
note_on channel=0 note=88 velocity=97 time=0
note_on channel=0 note=68 velocity=74 time=0
note_on channel=0 note=57 velocity=62 time=0
note_on channel=0 note=88 velocity=0 time=240
note_on channel=0 note=76 velocity=0 time=0
note_on channel=0 note=74 velocity=78 time=0
note_on channel=0 note=86 velocity=92 time=0
<meta message set_tempo tempo=354003 time=240>
note_on channel=0 note=86 velocity=0 time=0
note_on channel=0 note=61 velocity=0 time=0
note_on channel=0 note=57 velocity=0 time=0
note_on channel=0 note=68 velocity=0 time=0
note_on channel=0 note=74 velocity=0 time=0
note_on channel=0 note=78 velocity=86 time=0
note_on channel=0 note=73 velocity=94 time=0
note_on channel=0 note=85 velocity=110 time=0
note_on channel=0 note=38 velocity=70 time=0
note_on channel=0 note=50 velocity=84 time=0
control_change channel=0 control=64 value=0 time=0
control_change channel=0 control=64 value=0 time=6
control_change channel=0 control=64 value=127 time=291
<meta message set_tempo tempo=347685 time=183>
note_on channel=0 note=50 velocity=0 time=0
note_on channel=0 note=85 velocity=0 time=0
note_on channel=0 note=38 velocity=0 time=0
note_on channel=0 note=73 velocity=0 time=0
note_on channel=0 note=71 velocity=82 time=0
note_on channel=0 note=83 velocity=97 time=0
note_on channel=0 note=50 velocity=62 time=0
note_on channel=0 note=59 velocity=74 time=0
note_on channel=0 note=59 velocity=0 time=480
note_on channel=0 note=50 velocity=0 time=0
note_on channel=0 note=54 velocity=62 time=0
note_on channel=0 note=66 velocity=74 time=0
note_on channel=0 note=83 velocity=0 time=240
note_on channel=0 note=71 velocity=0 time=0
note_on channel=0 note=70 velocity=82 time=0
note_on channel=0 note=82 velocity=97 time=0
<meta message set_tempo tempo=354003 time=240>
note_on channel=0 note=82 velocity=0 time=0
note_on channel=0 note=78 velocity=0 time=0
note_on channel=0 note=66 velocity=0 time=0
note_on channel=0 note=54 velocity=0 time=0
note_on channel=0 note=70 velocity=0 time=0
note_on channel=0 note=83 velocity=97 time=0
note_on channel=0 note=71 velocity=82 time=0
note_on channel=0 note=77 velocity=86 time=0
note_on channel=0 note=37 velocity=70 time=0
note_on channel=0 note=49 velocity=84 time=0
control_change channel=0 control=64 value=0 time=11
control_change channel=0 control=64 value=127 time=116
note_on channel=0 note=71 velocity=0 time=233
note_on channel=0 note=83 velocity=0 time=0
note_on channel=0 note=72 velocity=79 time=0
note_on channel=0 note=84 velocity=93 time=0
<meta message set_tempo tempo=347685 time=120>
note_on channel=0 note=37 velocity=0 time=0
note_on channel=0 note=49 velocity=0 time=0
note_on channel=0 note=61 velocity=74 time=0
note_on channel=0 note=56 velocity=62 time=0
note_on channel=0 note=72 velocity=0 time=240
note_on channel=0 note=84 velocity=0 time=0
note_on channel=0 note=85 velocity=97 time=0
note_on channel=0 note=73 velocity=82 time=0
note_on channel=0 note=61 velocity=0 time=240
note_on channel=0 note=56 velocity=0 time=0
note_on channel=0 note=65 velocity=74 time=0
note_on channel=0 note=59 velocity=62 time=0
note_on channel=0 note=85 velocity=0 time=120
note_on channel=0 note=73 velocity=0 time=0
note_on channel=0 note=68 velocity=78 time=0
note_on channel=0 note=80 velocity=92 time=0
<meta message set_tempo tempo=354003 time=360>
note_on channel=0 note=80 velocity=0 time=0
note_on channel=0 note=65 velocity=0 time=0
note_on channel=0 note=59 velocity=0 time=0
note_on channel=0 note=77 velocity=0 time=0
note_on channel=0 note=68 velocity=0 time=0
note_on channel=0 note=73 velocity=77 time=0
note_on channel=0 note=78 velocity=81 time=0
note_on channel=0 note=71 velocity=94 time=0
note_on channel=0 note=83 velocity=113 time=0
note_on channel=0 note=42 velocity=84 time=0
control_change channel=0 control=64 value=0 time=0
note_on channel=0 note=30 velocity=70 time=0
control_change channel=0 control=64 value=0 time=10
control_change channel=0 control=64 value=127 time=287
<meta message set_tempo tempo=347685 time=183>
note_on channel=0 note=30 velocity=0 time=0
note_on channel=0 note=83 velocity=0 time=0
note_on channel=0 note=71 velocity=0 time=0
note_on channel=0 note=42 velocity=0 time=0
note_on channel=0 note=81 velocity=97 time=0
note_on channel=0 note=69 velocity=82 time=0
note_on channel=0 note=54 velocity=62 time=0
note_on channel=0 note=61 velocity=74 time=0
note_on channel=0 note=61 velocity=0 time=480
note_on channel=0 note=78 velocity=0 time=0
note_on channel=0 note=73 velocity=0 time=0
note_on channel=0 note=57 velocity=62 time=0
note_on channel=0 note=66 velocity=74 time=0
note_on channel=0 note=81 velocity=0 time=240
note_on channel=0 note=80 velocity=97 time=0
note_on channel=0 note=80 velocity=0 time=120
note_on channel=0 note=78 velocity=80 time=0
note_on channel=0 note=78 velocity=0 time=60
note_on channel=0 note=80 velocity=79 time=0
<meta message set_tempo tempo=354003 time=60>
note_on channel=0 note=80 velocity=0 time=0
note_on channel=0 note=66 velocity=0 time=0
note_on channel=0 note=69 velocity=0 time=0
note_on channel=0 note=54 velocity=0 time=0
note_on channel=0 note=57 velocity=0 time=0
note_on channel=0 note=69 velocity=82 time=0
note_on channel=0 note=78 velocity=97 time=0
note_on channel=0 note=75 velocity=82 time=0
note_on channel=0 note=71 velocity=82 time=0
note_on channel=0 note=35 velocity=70 time=0
note_on channel=0 note=47 velocity=84 time=0
control_change channel=0 control=64 value=0 time=13
control_change channel=0 control=64 value=127 time=114
<meta message set_tempo tempo=347685 time=353>
note_on channel=0 note=47 velocity=0 time=0
note_on channel=0 note=78 velocity=0 time=0
note_on channel=0 note=75 velocity=0 time=0
note_on channel=0 note=69 velocity=0 time=0
note_on channel=0 note=35 velocity=0 time=0
note_on channel=0 note=71 velocity=0 time=0
note_on channel=0 note=69 velocity=71 time=0
note_on channel=0 note=77 velocity=84 time=0
note_on channel=0 note=75 velocity=71 time=0
note_on channel=0 note=71 velocity=71 time=0
note_on channel=0 note=59 velocity=74 time=0
note_on channel=0 note=53 velocity=62 time=0
note_on channel=0 note=71 velocity=0 time=220
note_on channel=0 note=75 velocity=0 time=0
note_on channel=0 note=69 velocity=0 time=0
note_on channel=0 note=77 velocity=0 time=0
note_on channel=0 note=71 velocity=74 time=20
note_on channel=0 note=69 velocity=74 time=0
note_on channel=0 note=75 velocity=74 time=0
note_on channel=0 note=78 velocity=88 time=0
note_on channel=0 note=78 velocity=0 time=220
note_on channel=0 note=69 velocity=0 time=0
note_on channel=0 note=71 velocity=0 time=0
note_on channel=0 note=75 velocity=0 time=0
note_on channel=0 note=59 velocity=0 time=20
note_on channel=0 note=69 velocity=77 time=0
note_on channel=0 note=71 velocity=77 time=0
note_on channel=0 note=75 velocity=77 time=0
note_on channel=0 note=80 velocity=91 time=0
note_on channel=0 note=63 velocity=74 time=0
note_on channel=0 note=57 velocity=62 time=0
note_on channel=0 note=80 velocity=0 time=220
note_on channel=0 note=75 velocity=0 time=0
note_on channel=0 note=71 velocity=0 time=0
note_on channel=0 note=69 velocity=0 time=0
note_on channel=0 note=71 velocity=80 time=20
note_on channel=0 note=75 velocity=80 time=0
note_on channel=0 note=69 velocity=80 time=0
note_on channel=0 note=81 velocity=94 time=0
note_on channel=0 note=81 velocity=0 time=220
note_on channel=0 note=75 velocity=0 time=0
note_on channel=0 note=71 velocity=0 time=0
note_on channel=0 note=69 velocity=0 time=0
<meta message set_tempo tempo=351906 time=20>
note_on channel=0 note=63 velocity=0 time=0
note_on channel=0 note=53 velocity=0 time=0
note_on channel=0 note=57 velocity=0 time=0
note_on channel=0 note=68 velocity=82 time=0
note_on channel=0 note=64 velocity=82 time=0
note_on channel=0 note=62 velocity=82 time=0
note_on channel=0 note=71 velocity=99 time=0
note_on channel=0 note=40 velocity=84 time=0
note_on channel=0 note=28 velocity=70 time=0
control_change channel=0 control=64 value=0 time=8
control_change channel=0 control=64 value=127 time=289
<meta message set_tempo tempo=338028 time=183>
note_on channel=0 note=28 velocity=0 time=0
note_on channel=0 note=40 velocity=0 time=0
note_on channel=0 note=56 velocity=72 time=0
note_on channel=0 note=47 velocity=61 time=0
note_on channel=0 note=47 velocity=0 time=480
note_on channel=0 note=56 velocity=0 time=0
note_on channel=0 note=59 velocity=73 time=0
note_on channel=0 note=52 velocity=61 time=0
<meta message set_tempo tempo=353982 time=480>
note_on channel=0 note=52 velocity=0 time=0
note_on channel=0 note=64 velocity=0 time=0
note_on channel=0 note=62 velocity=0 time=0
note_on channel=0 note=68 velocity=0 time=0
note_on channel=0 note=59 velocity=0 time=0
note_on channel=0 note=71 velocity=0 time=0
note_on channel=0 note=73 velocity=81 time=0
note_on channel=0 note=76 velocity=96 time=0
note_on channel=0 note=64 velocity=81 time=0
note_on channel=0 note=68 velocity=81 time=0
note_on channel=0 note=56 velocity=70 time=0
note_on channel=0 note=62 velocity=84 time=0
<meta message set_tempo tempo=326087 time=480>
note_on channel=0 note=62 velocity=0 time=0
note_on channel=0 note=56 velocity=0 time=0
note_on channel=0 note=59 velocity=72 time=0
note_on channel=0 note=52 velocity=61 time=0
note_on channel=0 note=52 velocity=0 time=480
note_on channel=0 note=76 velocity=0 time=0
note_on channel=0 note=68 velocity=0 time=0
note_on channel=0 note=73 velocity=0 time=0
note_on channel=0 note=59 velocity=0 time=0
note_on channel=0 note=64 velocity=0 time=0
note_on channel=0 note=62 velocity=77 time=0
note_on channel=0 note=76 velocity=91 time=0
note_on channel=0 note=64 velocity=77 time=0
note_on channel=0 note=68 velocity=77 time=0
note_on channel=0 note=73 velocity=77 time=0
note_on channel=0 note=47 velocity=61 time=0
note_on channel=0 note=56 velocity=73 time=0
note_on channel=0 note=56 velocity=0 time=480
note_on channel=0 note=73 velocity=0 time=0
note_on channel=0 note=76 velocity=0 time=0
note_on channel=0 note=64 velocity=0 time=0
note_on channel=0 note=62 velocity=0 time=0
note_on channel=0 note=47 velocity=0 time=0
note_on channel=0 note=68 velocity=0 time=0
note_on channel=0 note=61 velocity=81 time=0
note_on channel=0 note=57 velocity=81 time=0
note_on channel=0 note=69 velocity=96 time=0
note_on channel=0 note=33 velocity=70 time=0
note_on channel=0 note=45 velocity=84 time=0
control_change channel=0 control=64 value=0 time=7
control_change channel=0 control=64 value=127 time=313
<meta message set_tempo tempo=331492 time=160>
note_on channel=0 note=45 velocity=0 time=0
note_on channel=0 note=69 velocity=0 time=0
note_on channel=0 note=61 velocity=0 time=0
note_on channel=0 note=57 velocity=0 time=0
note_on channel=0 note=33 velocity=0 time=0
note_on channel=0 note=52 velocity=61 time=0
note_on channel=0 note=61 velocity=73 time=0
note_on channel=0 note=61 velocity=0 time=480
note_on channel=0 note=52 velocity=0 time=0
note_on channel=0 note=73 velocity=81 time=0
note_on channel=0 note=69 velocity=81 time=0
note_on channel=0 note=81 velocity=96 time=0
note_on channel=0 note=57 velocity=62 time=0
note_on channel=0 note=64 velocity=74 time=0
<meta message set_tempo tempo=325221 time=480>
note_on channel=0 note=64 velocity=0 time=0
note_on channel=0 note=81 velocity=0 time=0
note_on channel=0 note=73 velocity=0 time=0
note_on channel=0 note=69 velocity=0 time=0
note_on channel=0 note=57 velocity=0 time=0
note_on channel=0 note=93 velocity=105 time=0
note_on channel=0 note=81 velocity=89 time=0
note_on channel=0 note=85 velocity=89 time=0
note_on channel=0 note=61 velocity=70 time=0
note_on channel=0 note=69 velocity=84 time=0
<meta message set_tempo tempo=320000 time=480>
note_on channel=0 note=69 velocity=0 time=0
note_on channel=0 note=61 velocity=0 time=0
note_on channel=0 note=64 velocity=73 time=0
note_on channel=0 note=57 velocity=61 time=0
note_on channel=0 note=57 velocity=0 time=480
note_on channel=0 note=93 velocity=0 time=0
note_on channel=0 note=85 velocity=0 time=0
note_on channel=0 note=81 velocity=0 time=0
note_on channel=0 note=64 velocity=0 time=0
note_on channel=0 note=92 velocity=101 time=0
note_on channel=0 note=85 velocity=85 time=0
note_on channel=0 note=80 velocity=85 time=0
note_on channel=0 note=61 velocity=73 time=0
note_on channel=0 note=52 velocity=61 time=0
<meta message set_tempo tempo=327869 time=480>
note_on channel=0 note=52 velocity=0 time=0
note_on channel=0 note=80 velocity=0 time=0
note_on channel=0 note=92 velocity=0 time=0
note_on channel=0 note=85 velocity=0 time=0
note_on channel=0 note=61 velocity=0 time=0
note_on channel=0 note=85 velocity=89 time=0
note_on channel=0 note=78 velocity=87 time=0
note_on channel=0 note=90 velocity=103 time=0
note_on channel=0 note=35 velocity=70 time=0
note_on channel=0 note=47 velocity=84 time=0
control_change channel=0 control=64 value=0 time=7
control_change channel=0 control=64 value=127 time=222
<meta message set_tempo tempo=320856 time=251>
note_on channel=0 note=47 velocity=0 time=0
note_on channel=0 note=35 velocity=0 time=0
note_on channel=0 note=59 velocity=73 time=0
note_on channel=0 note=54 velocity=61 time=0
note_on channel=0 note=54 velocity=0 time=480
note_on channel=0 note=59 velocity=0 time=0
note_on channel=0 note=63 velocity=73 time=0
note_on channel=0 note=57 velocity=61 time=0
<meta message set_tempo tempo=330579 time=480>
note_on channel=0 note=57 velocity=0 time=0
note_on channel=0 note=90 velocity=0 time=0
note_on channel=0 note=85 velocity=0 time=0
note_on channel=0 note=78 velocity=0 time=0
note_on channel=0 note=63 velocity=0 time=0
note_on channel=0 note=92 velocity=102 time=0
note_on channel=0 note=87 velocity=86 time=0
note_on channel=0 note=83 velocity=86 time=0
note_on channel=0 note=59 velocity=70 time=0
note_on channel=0 note=66 velocity=84 time=0
<meta message set_tempo tempo=322581 time=480>
note_on channel=0 note=66 velocity=0 time=0
note_on channel=0 note=59 velocity=0 time=0
note_on channel=0 note=57 velocity=61 time=0
note_on channel=0 note=63 velocity=72 time=0
note_on channel=0 note=63 velocity=0 time=480
note_on channel=0 note=92 velocity=0 time=0
note_on channel=0 note=83 velocity=0 time=0
note_on channel=0 note=87 velocity=0 time=0
note_on channel=0 note=57 velocity=0 time=0
note_on channel=0 note=92 velocity=93 time=0
note_on channel=0 note=87 velocity=79 time=0
note_on channel=0 note=81 velocity=79 time=0
note_on channel=0 note=59 velocity=72 time=0
note_on channel=0 note=54 velocity=61 time=0
<meta message set_tempo tempo=328767 time=480>
note_on channel=0 note=54 velocity=0 time=0
note_on channel=0 note=81 velocity=0 time=0
note_on channel=0 note=92 velocity=0 time=0
note_on channel=0 note=87 velocity=0 time=0
note_on channel=0 note=59 velocity=0 time=0
note_on channel=0 note=80 velocity=88 time=0
note_on channel=0 note=76 velocity=88 time=0
note_on channel=0 note=88 velocity=103 time=0
note_on channel=0 note=52 velocity=84 time=0
note_on channel=0 note=40 velocity=70 time=0
control_change channel=0 control=64 value=0 time=9
control_change channel=0 control=64 value=127 time=288
<meta message set_tempo tempo=319149 time=183>
note_on channel=0 note=40 velocity=0 time=0
note_on channel=0 note=52 velocity=0 time=0
note_on channel=0 note=52 velocity=62 time=0
note_on channel=0 note=59 velocity=74 time=0
note_on channel=0 note=59 velocity=0 time=480
note_on channel=0 note=52 velocity=0 time=0
note_on channel=0 note=56 velocity=62 time=0
note_on channel=0 note=64 velocity=74 time=0
<meta message set_tempo tempo=324009 time=480>
note_on channel=0 note=64 velocity=0 time=0
note_on channel=0 note=88 velocity=0 time=0
note_on channel=0 note=80 velocity=0 time=0
note_on channel=0 note=76 velocity=0 time=0
note_on channel=0 note=56 velocity=0 time=0
note_on channel=0 note=88 velocity=89 time=0
note_on channel=0 note=100 velocity=104 time=0
note_on channel=0 note=59 velocity=70 time=0
note_on channel=0 note=68 velocity=84 time=0
<meta message set_tempo tempo=312533 time=480>
note_on channel=0 note=68 velocity=0 time=0
note_on channel=0 note=59 velocity=0 time=0
note_on channel=0 note=56 velocity=62 time=0
note_on channel=0 note=64 velocity=74 time=0
note_on channel=0 note=64 velocity=0 time=480
note_on channel=0 note=56 velocity=0 time=0
note_on channel=0 note=59 velocity=74 time=0
note_on channel=0 note=52 velocity=62 time=0
<meta message set_tempo tempo=361642 time=360>
note_on channel=0 note=100 velocity=0 time=0
note_on channel=0 note=88 velocity=0 time=0
note_on channel=0 note=88 velocity=89 time=0
note_on channel=0 note=100 velocity=104 time=0
<meta message set_tempo tempo=320496 time=120>
note_on channel=0 note=100 velocity=0 time=0
note_on channel=0 note=52 velocity=0 time=0
note_on channel=0 note=59 velocity=0 time=0
note_on channel=0 note=88 velocity=0 time=0
note_on channel=0 note=88 velocity=87 time=0
note_on channel=0 note=100 velocity=104 time=0
control_change channel=0 control=64 value=0 time=0
control_change channel=0 control=64 value=0 time=0
note_on channel=0 note=52 velocity=84 time=0
note_on channel=0 note=40 velocity=70 time=0
note_on channel=0 note=100 velocity=0 time=240
note_on channel=0 note=88 velocity=0 time=0
control_change channel=0 control=64 value=127 time=57
<meta message set_tempo tempo=314762 time=183>
note_on channel=0 note=52 velocity=0 time=0
note_on channel=0 note=40 velocity=0 time=0
note_on channel=0 note=58 velocity=74 time=0
note_on channel=0 note=52 velocity=62 time=0
note_on channel=0 note=52 velocity=0 time=480
note_on channel=0 note=58 velocity=0 time=0
note_on channel=0 note=61 velocity=74 time=0
note_on channel=0 note=54 velocity=62 time=0
<meta message set_tempo tempo=320496 time=480>
note_on channel=0 note=54 velocity=0 time=0
note_on channel=0 note=61 velocity=0 time=0
note_on channel=0 note=66 velocity=80 time=0
note_on channel=0 note=78 velocity=94 time=0
note_on channel=0 note=58 velocity=70 time=0
note_on channel=0 note=64 velocity=84 time=0
<meta message set_tempo tempo=310881 time=480>
note_on channel=0 note=64 velocity=0 time=0
note_on channel=0 note=58 velocity=0 time=0
note_on channel=0 note=54 velocity=62 time=0
note_on channel=0 note=61 velocity=74 time=0
<meta message set_tempo tempo=314136 time=480>
note_on channel=0 note=61 velocity=0 time=0
note_on channel=0 note=54 velocity=0 time=0
note_on channel=0 note=52 velocity=62 time=0
note_on channel=0 note=58 velocity=74 time=0
<meta message set_tempo tempo=320496 time=480>
note_on channel=0 note=58 velocity=0 time=0
note_on channel=0 note=52 velocity=0 time=0
control_change channel=0 control=64 value=0 time=0
note_on channel=0 note=28 velocity=70 time=0
note_on channel=0 note=40 velocity=84 time=0
control_change channel=0 control=64 value=0 time=0
control_change channel=0 control=64 value=127 time=297
<meta message set_tempo tempo=315989 time=163>
note_on channel=0 note=40 velocity=0 time=20
note_on channel=0 note=66 velocity=0 time=0
note_on channel=0 note=78 velocity=0 time=0
note_on channel=0 note=28 velocity=0 time=0
note_on channel=0 note=78 velocity=79 time=0
note_on channel=0 note=66 velocity=67 time=0
note_on channel=0 note=52 velocity=62 time=0
note_on channel=0 note=58 velocity=74 time=0
note_on channel=0 note=66 velocity=0 time=120
note_on channel=0 note=78 velocity=0 time=0
note_on channel=0 note=68 velocity=67 time=0
note_on channel=0 note=80 velocity=79 time=0
note_on channel=0 note=80 velocity=0 time=120
note_on channel=0 note=68 velocity=0 time=0
note_on channel=0 note=66 velocity=70 time=0
note_on channel=0 note=78 velocity=83 time=0
note_on channel=0 note=78 velocity=0 time=240
note_on channel=0 note=58 velocity=0 time=0
note_on channel=0 note=52 velocity=0 time=0
note_on channel=0 note=66 velocity=0 time=0
note_on channel=0 note=65 velocity=64 time=0
note_on channel=0 note=77 velocity=77 time=0
note_on channel=0 note=54 velocity=62 time=0
note_on channel=0 note=61 velocity=74 time=0
<meta message set_tempo tempo=314994 time=20>
note_on channel=0 note=77 velocity=0 time=220
note_on channel=0 note=65 velocity=0 time=0
note_on channel=0 note=66 velocity=67 time=0
note_on channel=0 note=78 velocity=79 time=0
note_on channel=0 note=78 velocity=0 time=240
note_on channel=0 note=61 velocity=0 time=0
note_on channel=0 note=54 velocity=0 time=0
note_on channel=0 note=66 velocity=0 time=0
note_on channel=0 note=68 velocity=68 time=0
note_on channel=0 note=80 velocity=81 time=0
note_on channel=0 note=64 velocity=84 time=0
note_on channel=0 note=58 velocity=70 time=0
control_change channel=0 control=64 value=0 time=17
<meta message set_tempo tempo=313972 time=3>
control_change channel=0 control=64 value=127 time=107
note_on channel=0 note=80 velocity=0 time=113
note_on channel=0 note=68 velocity=0 time=0
note_on channel=0 note=70 velocity=71 time=0
note_on channel=0 note=82 velocity=84 time=0
note_on channel=0 note=82 velocity=0 time=240
note_on channel=0 note=58 velocity=0 time=0
note_on channel=0 note=64 velocity=0 time=0
note_on channel=0 note=70 velocity=0 time=0
note_on channel=0 note=71 velocity=73 time=0
note_on channel=0 note=83 velocity=86 time=0
note_on channel=0 note=61 velocity=74 time=0
note_on channel=0 note=54 velocity=62 time=0
<meta message set_tempo tempo=312973 time=20>
<meta message set_tempo tempo=312973 time=40>
<meta message set_tempo tempo=313972 time=80>
<meta message set_tempo tempo=314994 time=40>
<meta message set_tempo tempo=315989 time=40>
note_on channel=0 note=83 velocity=0 time=20
note_on channel=0 note=71 velocity=0 time=0
note_on channel=0 note=73 velocity=74 time=0
note_on channel=0 note=85 velocity=89 time=0
<meta message set_tempo tempo=317041 time=20>
<meta message set_tempo tempo=318049 time=40>
<meta message set_tempo tempo=319115 time=40>
<meta message set_tempo tempo=320137 time=40>
<meta message set_tempo tempo=321216 time=40>
<meta message set_tempo tempo=322251 time=40>
note_on channel=0 note=85 velocity=0 time=20
note_on channel=0 note=54 velocity=0 time=0
note_on channel=0 note=61 velocity=0 time=0
note_on channel=0 note=73 velocity=0 time=0
note_on channel=0 note=86 velocity=91 time=0
note_on channel=0 note=74 velocity=77 time=0
note_on channel=0 note=52 velocity=62 time=0
note_on channel=0 note=58 velocity=74 time=0
<meta message set_tempo tempo=323346 time=60>
<meta message set_tempo tempo=324394 time=40>
<meta message set_tempo tempo=325503 time=40>
<meta message set_tempo tempo=326566 time=40>
<meta message set_tempo tempo=327690 time=40>
note_on channel=0 note=74 velocity=0 time=20
note_on channel=0 note=86 velocity=0 time=0
note_on channel=0 note=76 velocity=80 time=0
note_on channel=0 note=88 velocity=94 time=0
<meta message set_tempo tempo=328767 time=20>
<meta message set_tempo tempo=329888 time=40>
<meta message set_tempo tempo=330998 time=40>
<meta message set_tempo tempo=332116 time=40>
<meta message set_tempo tempo=320496 time=100>
note_on channel=0 note=88 velocity=0 time=0
note_on channel=0 note=58 velocity=0 time=0
note_on channel=0 note=52 velocity=0 time=0
note_on channel=0 note=76 velocity=0 time=0
note_on channel=0 note=78 velocity=94 time=0
note_on channel=0 note=90 velocity=113 time=0
note_on channel=0 note=40 velocity=70 time=0
control_change channel=0 control=64 value=0 time=0
note_on channel=0 note=52 velocity=84 time=0
control_change channel=0 control=64 value=0 time=4
control_change channel=0 control=64 value=127 time=145
note_on channel=0 note=90 velocity=0 time=91
note_on channel=0 note=78 velocity=0 time=0
<meta message set_tempo tempo=314762 time=240>
note_on channel=0 note=40 velocity=0 time=0
note_on channel=0 note=52 velocity=0 time=0
note_on channel=0 note=52 velocity=62 time=0
note_on channel=0 note=60 velocity=74 time=0
note_on channel=0 note=60 velocity=0 time=480
note_on channel=0 note=52 velocity=0 time=0
note_on channel=0 note=56 velocity=62 time=0
note_on channel=0 note=63 velocity=74 time=0
<meta message set_tempo tempo=320496 time=480>
note_on channel=0 note=63 velocity=0 time=0
note_on channel=0 note=56 velocity=0 time=0
note_on channel=0 note=68 velocity=80 time=0
note_on channel=0 note=80 velocity=94 time=0
note_on channel=0 note=66 velocity=84 time=0
note_on channel=0 note=60 velocity=70 time=0
<meta message set_tempo tempo=314762 time=480>
note_on channel=0 note=60 velocity=0 time=0
note_on channel=0 note=66 velocity=0 time=0
note_on channel=0 note=56 velocity=62 time=0
note_on channel=0 note=63 velocity=74 time=0
note_on channel=0 note=63 velocity=0 time=480
note_on channel=0 note=68 velocity=0 time=0
note_on channel=0 note=80 velocity=0 time=0
note_on channel=0 note=56 velocity=0 time=0
note_on channel=0 note=80 velocity=94 time=0
note_on channel=0 note=68 velocity=80 time=0
note_on channel=0 note=52 velocity=62 time=0
note_on channel=0 note=60 velocity=74 time=0
<meta message set_tempo tempo=320496 time=480>
note_on channel=0 note=60 velocity=0 time=0
note_on channel=0 note=80 velocity=0 time=0
note_on channel=0 note=68 velocity=0 time=0
note_on channel=0 note=52 velocity=0 time=0
note_on channel=0 note=68 velocity=79 time=0
note_on channel=0 note=40 velocity=84 time=0
note_on channel=0 note=28 velocity=70 time=0
control_change channel=0 control=64 value=0 time=0
control_change channel=0 control=64 value=0 time=6
control_change channel=0 control=64 value=127 time=108
note_on channel=0 note=80 velocity=74 time=126
<meta message set_tempo tempo=315989 time=220>
note_on channel=0 note=80 velocity=0 time=20
note_on channel=0 note=28 velocity=0 time=0
note_on channel=0 note=40 velocity=0 time=0
note_on channel=0 note=81 velocity=79 time=0
note_on channel=0 note=52 velocity=62 time=0
note_on channel=0 note=59 velocity=74 time=0
note_on channel=0 note=81 velocity=0 time=240
note_on channel=0 note=80 velocity=74 time=0
note_on channel=0 note=80 velocity=0 time=240
note_on channel=0 note=59 velocity=0 time=0
note_on channel=0 note=52 velocity=0 time=0
note_on channel=0 note=68 velocity=0 time=0
note_on channel=0 note=67 velocity=64 time=0
note_on channel=0 note=79 velocity=77 time=0
note_on channel=0 note=56 velocity=62 time=0
note_on channel=0 note=63 velocity=74 time=0
<meta message set_tempo tempo=314994 time=20>
note_on channel=0 note=79 velocity=0 time=220
note_on channel=0 note=67 velocity=0 time=0
note_on channel=0 note=68 velocity=67 time=0
note_on channel=0 note=80 velocity=79 time=0
note_on channel=0 note=80 velocity=0 time=240
note_on channel=0 note=63 velocity=0 time=0
note_on channel=0 note=56 velocity=0 time=0
note_on channel=0 note=68 velocity=0 time=0
note_on channel=0 note=70 velocity=68 time=0
note_on channel=0 note=82 velocity=81 time=0
note_on channel=0 note=60 velocity=70 time=0
note_on channel=0 note=66 velocity=84 time=0
control_change channel=0 control=64 value=0 time=7
<meta message set_tempo tempo=313972 time=13>
control_change channel=0 control=64 value=127 time=186
note_on channel=0 note=82 velocity=0 time=34
note_on channel=0 note=70 velocity=0 time=0
note_on channel=0 note=72 velocity=71 time=0
note_on channel=0 note=84 velocity=84 time=0
note_on channel=0 note=84 velocity=0 time=240
note_on channel=0 note=66 velocity=0 time=0
note_on channel=0 note=60 velocity=0 time=0
note_on channel=0 note=72 velocity=0 time=0
note_on channel=0 note=73 velocity=73 time=0
note_on channel=0 note=85 velocity=86 time=0
note_on channel=0 note=63 velocity=74 time=0
note_on channel=0 note=56 velocity=62 time=0
<meta message set_tempo tempo=312973 time=20>
<meta message set_tempo tempo=312973 time=40>
<meta message set_tempo tempo=313972 time=80>
<meta message set_tempo tempo=314994 time=40>
<meta message set_tempo tempo=315989 time=40>
note_on channel=0 note=85 velocity=0 time=20
note_on channel=0 note=73 velocity=0 time=0
note_on channel=0 note=75 velocity=74 time=0
note_on channel=0 note=87 velocity=89 time=0
<meta message set_tempo tempo=317041 time=20>
<meta message set_tempo tempo=318049 time=40>
<meta message set_tempo tempo=319115 time=40>
<meta message set_tempo tempo=320137 time=40>
<meta message set_tempo tempo=321216 time=40>
<meta message set_tempo tempo=322251 time=40>
note_on channel=0 note=87 velocity=0 time=20
note_on channel=0 note=56 velocity=0 time=0
note_on channel=0 note=63 velocity=0 time=0
note_on channel=0 note=75 velocity=0 time=0
note_on channel=0 note=76 velocity=77 time=0
note_on channel=0 note=88 velocity=91 time=0
note_on channel=0 note=60 velocity=74 time=0
note_on channel=0 note=52 velocity=62 time=0
<meta message set_tempo tempo=323346 time=60>
<meta message set_tempo tempo=324394 time=40>
<meta message set_tempo tempo=325503 time=40>
<meta message set_tempo tempo=326566 time=40>
<meta message set_tempo tempo=327690 time=40>
note_on channel=0 note=88 velocity=0 time=20
note_on channel=0 note=76 velocity=0 time=0
note_on channel=0 note=90 velocity=94 time=0
note_on channel=0 note=78 velocity=80 time=0
<meta message set_tempo tempo=328767 time=20>
<meta message set_tempo tempo=329888 time=40>
<meta message set_tempo tempo=330998 time=40>
<meta message set_tempo tempo=332116 time=40>
<meta message set_tempo tempo=320496 time=100>
note_on channel=0 note=78 velocity=0 time=0
note_on channel=0 note=52 velocity=0 time=0
note_on channel=0 note=60 velocity=0 time=0
note_on channel=0 note=90 velocity=0 time=0
note_on channel=0 note=80 velocity=94 time=0
note_on channel=0 note=92 velocity=113 time=0
note_on channel=0 note=40 velocity=70 time=0
control_change channel=0 control=64 value=0 time=0
note_on channel=0 note=52 velocity=84 time=0
control_change channel=0 control=64 value=0 time=6
note_on channel=0 note=92 velocity=0 time=234
note_on channel=0 note=80 velocity=0 time=0
control_change channel=0 control=64 value=127 time=57
<meta message set_tempo tempo=314762 time=183>
note_on channel=0 note=40 velocity=0 time=0
note_on channel=0 note=52 velocity=0 time=0
note_on channel=0 note=52 velocity=74 time=0
note_on channel=0 note=61 velocity=62 time=0
note_on channel=0 note=61 velocity=0 time=480
note_on channel=0 note=52 velocity=0 time=0
note_on channel=0 note=56 velocity=62 time=0
note_on channel=0 note=64 velocity=74 time=0
<meta message set_tempo tempo=320496 time=480>
note_on channel=0 note=64 velocity=0 time=0
note_on channel=0 note=56 velocity=0 time=0
note_on channel=0 note=68 velocity=80 time=0
note_on channel=0 note=80 velocity=94 time=0
note_on channel=0 note=39 velocity=70 time=0
note_on channel=0 note=51 velocity=84 time=0
control_change channel=0 control=64 value=0 time=7
control_change channel=0 control=64 value=127 time=245
<meta message set_tempo tempo=314762 time=228>
note_on channel=0 note=51 velocity=0 time=0
note_on channel=0 note=39 velocity=0 time=0
note_on channel=0 note=51 velocity=62 time=0
note_on channel=0 note=59 velocity=74 time=0
note_on channel=0 note=59 velocity=0 time=480
note_on channel=0 note=68 velocity=0 time=0
note_on channel=0 note=80 velocity=0 time=0
note_on channel=0 note=51 velocity=0 time=0
note_on channel=0 note=68 velocity=80 time=0
note_on channel=0 note=80 velocity=94 time=0
note_on channel=0 note=63 velocity=74 time=0
note_on channel=0 note=56 velocity=62 time=0
<meta message set_tempo tempo=320496 time=480>
note_on channel=0 note=56 velocity=0 time=0
note_on channel=0 note=68 velocity=0 time=0
note_on channel=0 note=80 velocity=0 time=0
note_on channel=0 note=63 velocity=0 time=0
note_on channel=0 note=80 velocity=80 time=0
note_on channel=0 note=68 velocity=68 time=0
note_on channel=0 note=37 velocity=70 time=0
note_on channel=0 note=49 velocity=84 time=0
control_change channel=0 control=64 value=0 time=0
control_change channel=0 control=64 value=0 time=4
note_on channel=0 note=68 velocity=0 time=116
note_on channel=0 note=80 velocity=0 time=0
note_on channel=0 note=70 velocity=62 time=0
note_on channel=0 note=82 velocity=74 time=0
note_on channel=0 note=82 velocity=0 time=120
note_on channel=0 note=70 velocity=0 time=0
note_on channel=0 note=68 velocity=62 time=0
note_on channel=0 note=80 velocity=74 time=0
control_change channel=0 control=64 value=127 time=40
<meta message set_tempo tempo=315989 time=180>
note_on channel=0 note=80 velocity=0 time=20
note_on channel=0 note=49 velocity=0 time=0
note_on channel=0 note=37 velocity=0 time=0
note_on channel=0 note=68 velocity=0 time=0
note_on channel=0 note=67 velocity=64 time=0
note_on channel=0 note=79 velocity=77 time=0
note_on channel=0 note=56 velocity=74 time=0
note_on channel=0 note=49 velocity=62 time=0
note_on channel=0 note=79 velocity=0 time=240
note_on channel=0 note=67 velocity=0 time=0
note_on channel=0 note=68 velocity=67 time=0
note_on channel=0 note=80 velocity=79 time=0
note_on channel=0 note=80 velocity=0 time=240
note_on channel=0 note=49 velocity=0 time=0
note_on channel=0 note=56 velocity=0 time=0
note_on channel=0 note=68 velocity=0 time=0
note_on channel=0 note=82 velocity=82 time=0
note_on channel=0 note=70 velocity=69 time=0
note_on channel=0 note=61 velocity=75 time=0
note_on channel=0 note=52 velocity=63 time=0
<meta message set_tempo tempo=314994 time=20>
note_on channel=0 note=70 velocity=0 time=220
note_on channel=0 note=82 velocity=0 time=0
note_on channel=0 note=71 velocity=72 time=0
note_on channel=0 note=83 velocity=86 time=0
note_on channel=0 note=83 velocity=0 time=240
note_on channel=0 note=52 velocity=0 time=0
note_on channel=0 note=61 velocity=0 time=0
note_on channel=0 note=71 velocity=0 time=0
note_on channel=0 note=73 velocity=75 time=0
note_on channel=0 note=85 velocity=90 time=0
note_on channel=0 note=32 velocity=72 time=0
note_on channel=0 note=44 velocity=88 time=0
control_change channel=0 control=64 value=0 time=10
<meta message set_tempo tempo=313972 time=10>
control_change channel=0 control=64 value=127 time=107
note_on channel=0 note=85 velocity=0 time=113
note_on channel=0 note=73 velocity=0 time=0
note_on channel=0 note=75 velocity=78 time=0
note_on channel=0 note=87 velocity=93 time=0
note_on channel=0 note=87 velocity=0 time=240
note_on channel=0 note=44 velocity=0 time=0
note_on channel=0 note=32 velocity=0 time=0
note_on channel=0 note=75 velocity=0 time=0
note_on channel=0 note=89 velocity=95 time=0
note_on channel=0 note=77 velocity=81 time=0
note_on channel=0 note=47 velocity=66 time=0
note_on channel=0 note=56 velocity=79 time=0
<meta message set_tempo tempo=312973 time=20>
<meta message set_tempo tempo=312973 time=40>
<meta message set_tempo tempo=313972 time=80>
<meta message set_tempo tempo=314994 time=40>
<meta message set_tempo tempo=315989 time=40>
note_on channel=0 note=77 velocity=0 time=20
note_on channel=0 note=89 velocity=0 time=0
note_on channel=0 note=79 velocity=85 time=0
note_on channel=0 note=91 velocity=101 time=0
<meta message set_tempo tempo=317041 time=20>
<meta message set_tempo tempo=318049 time=40>
<meta message set_tempo tempo=319115 time=40>
<meta message set_tempo tempo=320137 time=40>
<meta message set_tempo tempo=321216 time=40>
<meta message set_tempo tempo=322251 time=40>
note_on channel=0 note=91 velocity=0 time=20
note_on channel=0 note=56 velocity=0 time=0
note_on channel=0 note=47 velocity=0 time=0
note_on channel=0 note=79 velocity=0 time=0
note_on channel=0 note=80 velocity=85 time=0
note_on channel=0 note=92 velocity=101 time=0
note_on channel=0 note=51 velocity=67 time=0
note_on channel=0 note=59 velocity=80 time=0
<meta message set_tempo tempo=323346 time=60>
<meta message set_tempo tempo=324394 time=40>
<meta message set_tempo tempo=325503 time=40>
<meta message set_tempo tempo=326566 time=40>
<meta message set_tempo tempo=327690 time=40>
note_on channel=0 note=92 velocity=0 time=20
note_on channel=0 note=80 velocity=0 time=0
note_on channel=0 note=82 velocity=86 time=0
note_on channel=0 note=94 velocity=102 time=0
<meta message set_tempo tempo=328767 time=20>
<meta message set_tempo tempo=329888 time=40>
<meta message set_tempo tempo=330998 time=40>
<meta message set_tempo tempo=332116 time=40>
<meta message time_signature numerator=6 denominator=8 clocks_per_click=12 notated_32nd_notes_per_beat=8 time=100>
<meta message set_tempo tempo=750000 time=0>
note_on channel=0 note=94 velocity=0 time=0
note_on channel=0 note=59 velocity=0 time=0
note_on channel=0 note=51 velocity=0 time=0
note_on channel=0 note=82 velocity=0 time=0
note_on channel=0 note=83 velocity=94 time=0
note_on channel=0 note=95 velocity=112 time=0
note_on channel=0 note=41 velocity=88 time=0
note_on channel=0 note=29 velocity=72 time=0
control_change channel=0 control=64 value=0 time=11
note_on channel=0 note=95 velocity=0 time=109
note_on channel=0 note=83 velocity=0 time=0
control_change channel=0 control=64 value=127 time=29
<meta message set_tempo tempo=430108 time=91>
note_on channel=0 note=41 velocity=0 time=0
note_on channel=0 note=29 velocity=0 time=0
note_on channel=0 note=92 velocity=85 time=0
note_on channel=0 note=95 velocity=85 time=0
<meta message set_tempo tempo=428571 time=120>
note_on channel=0 note=95 velocity=0 time=0
note_on channel=0 note=92 velocity=0 time=0
note_on channel=0 note=89 velocity=79 time=0
<meta message set_tempo tempo=427046 time=120>
note_on channel=0 note=89 velocity=0 time=0
note_on channel=0 note=87 velocity=78 time=0
<meta message set_tempo tempo=425532 time=120>
note_on channel=0 note=87 velocity=0 time=0
note_on channel=0 note=83 velocity=77 time=0
note_on channel=0 note=53 velocity=52 time=30
note_on channel=0 note=59 velocity=54 time=30
<meta message set_tempo tempo=424028 time=20>
note_on channel=0 note=63 velocity=56 time=10
note_on channel=0 note=83 velocity=0 time=30
note_on channel=0 note=80 velocity=80 time=0
note_on channel=0 note=83 velocity=80 time=0
note_on channel=0 note=68 velocity=59 time=0
<meta message set_tempo tempo=422535 time=80>
note_on channel=0 note=83 velocity=0 time=40
note_on channel=0 note=80 velocity=0 time=0
note_on channel=0 note=77 velocity=78 time=0
<meta message set_tempo tempo=421053 time=80>
note_on channel=0 note=77 velocity=0 time=40
note_on channel=0 note=75 velocity=73 time=0
<meta message set_tempo tempo=419580 time=80>
note_on channel=0 note=75 velocity=0 time=40
note_on channel=0 note=71 velocity=73 time=0
<meta message set_tempo tempo=418118 time=40>
note_on channel=0 note=71 velocity=0 time=80
note_on channel=0 note=59 velocity=0 time=0
note_on channel=0 note=63 velocity=0 time=0
note_on channel=0 note=68 velocity=0 time=0
note_on channel=0 note=53 velocity=0 time=0
note_on channel=0 note=71 velocity=74 time=0
note_on channel=0 note=68 velocity=74 time=0
<meta message set_tempo tempo=416667 time=40>
note_on channel=0 note=68 velocity=0 time=80
note_on channel=0 note=71 velocity=0 time=0
note_on channel=0 note=65 velocity=64 time=0
<meta message set_tempo tempo=415225 time=40>
<meta message set_tempo tempo=415225 time=40>
note_on channel=0 note=65 velocity=0 time=40
note_on channel=0 note=63 velocity=64 time=0
note_on channel=0 note=63 velocity=0 time=120
note_on channel=0 note=59 velocity=63 time=0
<meta message set_tempo tempo=416667 time=120>
note_on channel=0 note=59 velocity=0 time=0
note_on channel=0 note=56 velocity=69 time=0
note_on channel=0 note=59 velocity=69 time=0
note_on channel=0 note=59 velocity=0 time=120
note_on channel=0 note=56 velocity=0 time=0
note_on channel=0 note=53 velocity=61 time=0
note_on channel=0 note=53 velocity=0 time=120
note_on channel=0 note=51 velocity=60 time=0
<meta message set_tempo tempo=418118 time=40>
note_on channel=0 note=51 velocity=0 time=80
note_on channel=0 note=47 velocity=60 time=0
note_on channel=0 note=47 velocity=0 time=120
note_on channel=0 note=59 velocity=60 time=0
note_on channel=0 note=56 velocity=60 time=0
<meta message set_tempo tempo=419580 time=80>
note_on channel=0 note=56 velocity=0 time=40
note_on channel=0 note=59 velocity=0 time=0
note_on channel=0 note=53 velocity=62 time=0
note_on channel=0 note=53 velocity=0 time=120
note_on channel=0 note=51 velocity=52 time=0
<meta message set_tempo tempo=421053 time=120>
note_on channel=0 note=51 velocity=0 time=0
note_on channel=0 note=47 velocity=52 time=0
note_on channel=0 note=47 velocity=0 time=120
note_on channel=0 note=56 velocity=52 time=0
note_on channel=0 note=59 velocity=52 time=0
control_change channel=0 control=64 value=0 time=8
note_on channel=0 note=56 velocity=0 time=112
note_on channel=0 note=53 velocity=51 time=0
<meta message set_tempo tempo=422535 time=40>
<meta message set_tempo tempo=393443 time=80>
note_on channel=0 note=53 velocity=0 time=0
note_on channel=0 note=59 velocity=0 time=0
note_on channel=0 note=58 velocity=52 time=0
note_on channel=0 note=34 velocity=44 time=0
<meta message set_tempo tempo=392157 time=120>
note_on channel=0 note=56 velocity=48 time=0
note_on channel=0 note=58 velocity=0 time=10
<meta message set_tempo tempo=390879 time=70>
note_on channel=0 note=34 velocity=0 time=40
note_on channel=0 note=59 velocity=52 time=0
note_on channel=0 note=50 velocity=34 time=0
note_on channel=0 note=56 velocity=0 time=10
<meta message set_tempo tempo=389610 time=30>
<meta message set_tempo tempo=388350 time=80>
note_on channel=0 note=53 velocity=47 time=0
note_on channel=0 note=59 velocity=0 time=10
<meta message set_tempo tempo=387097 time=70>
note_on channel=0 note=50 velocity=0 time=40
note_on channel=0 note=58 velocity=47 time=0
note_on channel=0 note=53 velocity=0 time=10
<meta message set_tempo tempo=385852 time=30>
<meta message set_tempo tempo=384615 time=80>
note_on channel=0 note=56 velocity=47 time=0
note_on channel=0 note=58 velocity=0 time=10
<meta message set_tempo tempo=383387 time=70>
<meta message set_tempo tempo=401338 time=40>
note_on channel=0 note=59 velocity=52 time=0
note_on channel=0 note=34 velocity=44 time=0
note_on channel=0 note=56 velocity=0 time=10
note_on channel=0 note=53 velocity=47 time=110
note_on channel=0 note=59 velocity=0 time=10
<meta message set_tempo tempo=383387 time=110>
note_on channel=0 note=34 velocity=0 time=0
note_on channel=0 note=58 velocity=52 time=0
note_on channel=0 note=50 velocity=34 time=0
note_on channel=0 note=53 velocity=0 time=10
note_on channel=0 note=56 velocity=47 time=110
note_on channel=0 note=58 velocity=0 time=10
note_on channel=0 note=50 velocity=0 time=110
note_on channel=0 note=59 velocity=47 time=0
note_on channel=0 note=56 velocity=0 time=10
note_on channel=0 note=53 velocity=47 time=110
note_on channel=0 note=59 velocity=0 time=10
<meta message set_tempo tempo=396040 time=110>
note_on channel=0 note=58 velocity=52 time=0
note_on channel=0 note=34 velocity=46 time=0
note_on channel=0 note=53 velocity=0 time=10
note_on channel=0 note=56 velocity=48 time=110
note_on channel=0 note=58 velocity=0 time=10
<meta message set_tempo tempo=380952 time=110>
note_on channel=0 note=34 velocity=0 time=0
note_on channel=0 note=59 velocity=52 time=0
note_on channel=0 note=50 velocity=34 time=0
note_on channel=0 note=56 velocity=0 time=10
note_on channel=0 note=53 velocity=47 time=110
note_on channel=0 note=59 velocity=0 time=10
note_on channel=0 note=50 velocity=0 time=110
note_on channel=0 note=58 velocity=47 time=0
note_on channel=0 note=53 velocity=0 time=10
note_on channel=0 note=56 velocity=47 time=110
note_on channel=0 note=58 velocity=0 time=10
<meta message set_tempo tempo=385852 time=110>
note_on channel=0 note=59 velocity=52 time=0
note_on channel=0 note=34 velocity=48 time=0
note_on channel=0 note=56 velocity=0 time=10
note_on channel=0 note=53 velocity=47 time=110
note_on channel=0 note=59 velocity=0 time=10
<meta message set_tempo tempo=375000 time=110>
note_on channel=0 note=34 velocity=0 time=0
note_on channel=0 note=58 velocity=52 time=0
note_on channel=0 note=50 velocity=34 time=0
note_on channel=0 note=53 velocity=0 time=10
note_on channel=0 note=56 velocity=47 time=110
note_on channel=0 note=58 velocity=0 time=10
note_on channel=0 note=50 velocity=0 time=110
note_on channel=0 note=59 velocity=47 time=0
note_on channel=0 note=56 velocity=0 time=10
note_on channel=0 note=53 velocity=47 time=110
note_on channel=0 note=59 velocity=0 time=10
<meta message set_tempo tempo=385852 time=110>
note_on channel=0 note=58 velocity=52 time=0
note_on channel=0 note=50 velocity=49 time=0
note_on channel=0 note=53 velocity=0 time=10
note_on channel=0 note=56 velocity=48 time=110
note_on channel=0 note=58 velocity=0 time=10
<meta message set_tempo tempo=375000 time=110>
note_on channel=0 note=50 velocity=0 time=0
note_on channel=0 note=59 velocity=53 time=0
note_on channel=0 note=65 velocity=34 time=0
note_on channel=0 note=56 velocity=0 time=10
note_on channel=0 note=53 velocity=48 time=110
note_on channel=0 note=59 velocity=0 time=10
note_on channel=0 note=65 velocity=0 time=110
note_on channel=0 note=58 velocity=48 time=0
note_on channel=0 note=53 velocity=0 time=10
note_on channel=0 note=56 velocity=49 time=110
note_on channel=0 note=58 velocity=0 time=10
<meta message set_tempo tempo=384615 time=110>
note_on channel=0 note=59 velocity=55 time=0
note_on channel=0 note=50 velocity=52 time=0
note_on channel=0 note=56 velocity=0 time=10
note_on channel=0 note=53 velocity=50 time=110
note_on channel=0 note=59 velocity=0 time=10
<meta message set_tempo tempo=375000 time=110>
note_on channel=0 note=50 velocity=0 time=0
note_on channel=0 note=58 velocity=56 time=0
note_on channel=0 note=65 velocity=36 time=0
note_on channel=0 note=53 velocity=0 time=10
note_on channel=0 note=56 velocity=51 time=110
note_on channel=0 note=58 velocity=0 time=10
note_on channel=0 note=65 velocity=0 time=110
note_on channel=0 note=59 velocity=51 time=0
note_on channel=0 note=56 velocity=0 time=10
note_on channel=0 note=53 velocity=52 time=110
note_on channel=0 note=59 velocity=0 time=10
<meta message set_tempo tempo=387097 time=110>
note_on channel=0 note=58 velocity=58 time=0
note_on channel=0 note=50 velocity=53 time=0
note_on channel=0 note=53 velocity=0 time=10
note_on channel=0 note=56 velocity=54 time=110
note_on channel=0 note=58 velocity=0 time=10
<meta message set_tempo tempo=375000 time=110>
note_on channel=0 note=50 velocity=0 time=0
note_on channel=0 note=59 velocity=59 time=0
note_on channel=0 note=65 velocity=38 time=0
note_on channel=0 note=56 velocity=0 time=10
note_on channel=0 note=53 velocity=54 time=110
note_on channel=0 note=59 velocity=0 time=10
note_on channel=0 note=65 velocity=0 time=110
note_on channel=0 note=58 velocity=54 time=0
note_on channel=0 note=53 velocity=0 time=10
note_on channel=0 note=56 velocity=54 time=110
note_on channel=0 note=58 velocity=0 time=10
<meta message set_tempo tempo=388350 time=110>
note_on channel=0 note=59 velocity=61 time=0
note_on channel=0 note=50 velocity=55 time=0
note_on channel=0 note=56 velocity=0 time=10
note_on channel=0 note=53 velocity=55 time=110
note_on channel=0 note=59 velocity=0 time=10
<meta message set_tempo tempo=375000 time=110>
note_on channel=0 note=50 velocity=0 time=0
note_on channel=0 note=58 velocity=62 time=0
note_on channel=0 note=65 velocity=40 time=0
note_on channel=0 note=53 velocity=0 time=10
note_on channel=0 note=56 velocity=56 time=110
note_on channel=0 note=58 velocity=0 time=10
note_on channel=0 note=65 velocity=0 time=110
note_on channel=0 note=59 velocity=57 time=0
note_on channel=0 note=56 velocity=0 time=10
note_on channel=0 note=53 velocity=57 time=110
note_on channel=0 note=59 velocity=0 time=10
note_on channel=0 note=58 velocity=65 time=110
note_on channel=0 note=34 velocity=50 time=0
note_on channel=0 note=53 velocity=0 time=10
<meta message set_tempo tempo=375000 time=30>
control_change channel=0 control=64 value=127 time=29
note_on channel=0 note=34 velocity=0 time=171
note_on channel=0 note=58 velocity=0 time=0
note_on channel=0 note=58 velocity=65 time=0
note_on channel=0 note=62 velocity=56 time=120
note_on channel=0 note=58 velocity=0 time=10
note_on channel=0 note=59 velocity=65 time=110
note_on channel=0 note=62 velocity=0 time=10
control_change channel=0 control=64 value=0 time=1
note_on channel=0 note=62 velocity=58 time=109
note_on channel=0 note=59 velocity=0 time=10
note_on channel=0 note=61 velocity=65 time=110
note_on channel=0 note=56 velocity=45 time=0
note_on channel=0 note=53 velocity=37 time=0
note_on channel=0 note=46 velocity=37 time=0
note_on channel=0 note=62 velocity=0 time=10
<meta message set_tempo tempo=373832 time=30>
note_on channel=0 note=65 velocity=58 time=80
note_on channel=0 note=61 velocity=0 time=10
note_on channel=0 note=46 velocity=0 time=110
note_on channel=0 note=53 velocity=0 time=0
note_on channel=0 note=56 velocity=0 time=0
note_on channel=0 note=62 velocity=65 time=0
note_on channel=0 note=65 velocity=0 time=10
note_on channel=0 note=68 velocity=58 time=110
note_on channel=0 note=62 velocity=0 time=10
note_on channel=0 note=64 velocity=65 time=110
note_on channel=0 note=68 velocity=0 time=10
note_on channel=0 note=68 velocity=58 time=110
note_on channel=0 note=64 velocity=0 time=10
<meta message set_tempo tempo=372671 time=110>
note_on channel=0 note=65 velocity=65 time=0
note_on channel=0 note=53 velocity=37 time=0
note_on channel=0 note=62 velocity=45 time=0
note_on channel=0 note=56 velocity=37 time=0
note_on channel=0 note=68 velocity=0 time=10
note_on channel=0 note=71 velocity=58 time=110
note_on channel=0 note=65 velocity=0 time=10
<meta message set_tempo tempo=371517 time=70>
note_on channel=0 note=56 velocity=0 time=40
note_on channel=0 note=62 velocity=0 time=0
note_on channel=0 note=53 velocity=0 time=0
note_on channel=0 note=67 velocity=65 time=0
note_on channel=0 note=71 velocity=0 time=10
note_on channel=0 note=71 velocity=58 time=110
note_on channel=0 note=67 velocity=0 time=10
<meta message set_tempo tempo=370370 time=30>
note_on channel=0 note=68 velocity=64 time=80
note_on channel=0 note=71 velocity=0 time=10
<meta message set_tempo tempo=369231 time=110>
note_on channel=0 note=74 velocity=57 time=0
note_on channel=0 note=68 velocity=0 time=10
note_on channel=0 note=70 velocity=63 time=110
note_on channel=0 note=62 velocity=36 time=0
note_on channel=0 note=56 velocity=36 time=0
note_on channel=0 note=65 velocity=44 time=0
note_on channel=0 note=74 velocity=0 time=10
<meta message set_tempo tempo=368098 time=70>
note_on channel=0 note=74 velocity=56 time=40
note_on channel=0 note=70 velocity=0 time=10
note_on channel=0 note=65 velocity=0 time=110
note_on channel=0 note=56 velocity=0 time=0
note_on channel=0 note=62 velocity=0 time=0
note_on channel=0 note=71 velocity=63 time=0
note_on channel=0 note=74 velocity=0 time=10
<meta message set_tempo tempo=366972 time=30>
note_on channel=0 note=74 velocity=57 time=80
note_on channel=0 note=71 velocity=0 time=10
<meta message set_tempo tempo=365854 time=110>
note_on channel=0 note=73 velocity=62 time=0
note_on channel=0 note=74 velocity=0 time=10
note_on channel=0 note=77 velocity=56 time=110
note_on channel=0 note=73 velocity=0 time=10
<meta message set_tempo tempo=363636 time=70>
note_on channel=0 note=74 velocity=62 time=40
note_on channel=0 note=68 velocity=43 time=0
note_on channel=0 note=58 velocity=36 time=0
note_on channel=0 note=65 velocity=36 time=0
note_on channel=0 note=77 velocity=0 time=10
note_on channel=0 note=80 velocity=56 time=110
note_on channel=0 note=74 velocity=0 time=10
note_on channel=0 note=65 velocity=0 time=110
note_on channel=0 note=58 velocity=0 time=0
note_on channel=0 note=68 velocity=0 time=0
note_on channel=0 note=76 velocity=62 time=0
note_on channel=0 note=80 velocity=0 time=10
note_on channel=0 note=80 velocity=55 time=110
note_on channel=0 note=76 velocity=0 time=10
<meta message set_tempo tempo=364742 time=70>
note_on channel=0 note=77 velocity=61 time=40
note_on channel=0 note=80 velocity=0 time=10
note_on channel=0 note=83 velocity=55 time=110
note_on channel=0 note=77 velocity=0 time=10
note_on channel=0 note=79 velocity=61 time=110
note_on channel=0 note=65 velocity=35 time=0
note_on channel=0 note=68 velocity=35 time=0
note_on channel=0 note=74 velocity=42 time=0
note_on channel=0 note=83 velocity=0 time=10
note_on channel=0 note=83 velocity=54 time=110
note_on channel=0 note=79 velocity=0 time=10
<meta message set_tempo tempo=365854 time=70>
note_on channel=0 note=74 velocity=0 time=40
note_on channel=0 note=68 velocity=0 time=0
note_on channel=0 note=65 velocity=0 time=0
note_on channel=0 note=80 velocity=60 time=0
note_on channel=0 note=83 velocity=0 time=10
<meta message set_tempo tempo=366972 time=70>
note_on channel=0 note=86 velocity=54 time=40
note_on channel=0 note=80 velocity=0 time=10
<meta message set_tempo tempo=368098 time=70>
note_on channel=0 note=82 velocity=60 time=40
note_on channel=0 note=86 velocity=0 time=10
<meta message set_tempo tempo=369231 time=70>
note_on channel=0 note=86 velocity=54 time=40
note_on channel=0 note=82 velocity=0 time=10
<meta message set_tempo tempo=370370 time=70>
<meta message set_tempo tempo=369231 time=40>
note_on channel=0 note=83 velocity=59 time=0
note_on channel=0 note=68 velocity=39 time=0
note_on channel=0 note=74 velocity=39 time=0
note_on channel=0 note=77 velocity=46 time=0
note_on channel=0 note=86 velocity=0 time=10
note_on channel=0 note=86 velocity=52 time=110
note_on channel=0 note=83 velocity=0 time=10
<meta message set_tempo tempo=370370 time=70>
note_on channel=0 note=77 velocity=0 time=40
note_on channel=0 note=74 velocity=0 time=0
note_on channel=0 note=68 velocity=0 time=0
note_on channel=0 note=85 velocity=59 time=0
note_on channel=0 note=86 velocity=0 time=10
note_on channel=0 note=89 velocity=53 time=110
note_on channel=0 note=85 velocity=0 time=10
<meta message set_tempo tempo=371517 time=30>
note_on channel=0 note=86 velocity=59 time=80
note_on channel=0 note=89 velocity=0 time=10
<meta message set_tempo tempo=372671 time=110>
note_on channel=0 note=92 velocity=54 time=0
note_on channel=0 note=86 velocity=0 time=10
note_on channel=0 note=88 velocity=58 time=110
note_on channel=0 note=80 velocity=45 time=0
note_on channel=0 note=77 velocity=38 time=0
note_on channel=0 note=70 velocity=38 time=0
note_on channel=0 note=92 velocity=0 time=10
<meta message set_tempo tempo=373832 time=70>
note_on channel=0 note=92 velocity=54 time=40
note_on channel=0 note=88 velocity=0 time=10
note_on channel=0 note=70 velocity=0 time=110
note_on channel=0 note=77 velocity=0 time=0
note_on channel=0 note=80 velocity=0 time=0
note_on channel=0 note=89 velocity=58 time=0
note_on channel=0 note=92 velocity=0 time=10
<meta message set_tempo tempo=375000 time=30>
note_on channel=0 note=95 velocity=53 time=80
note_on channel=0 note=89 velocity=0 time=10
<meta message set_tempo tempo=376176 time=110>
note_on channel=0 note=91 velocity=57 time=0
note_on channel=0 note=95 velocity=0 time=10
note_on channel=0 note=95 velocity=54 time=110
note_on channel=0 note=91 velocity=0 time=10
<meta message set_tempo tempo=377358 time=30>
<meta message set_tempo tempo=375000 time=80>
note_on channel=0 note=94 velocity=57 time=0
note_on channel=0 note=77 velocity=37 time=0
note_on channel=0 note=80 velocity=37 time=0
note_on channel=0 note=86 velocity=44 time=0
note_on channel=0 note=95 velocity=0 time=10
<meta message set_tempo tempo=373832 time=10>
<meta message set_tempo tempo=372671 time=60>
note_on channel=0 note=92 velocity=51 time=40
note_on channel=0 note=94 velocity=0 time=10
<meta message set_tempo tempo=377358 time=50>
note_on channel=0 note=95 velocity=57 time=60
note_on channel=0 note=92 velocity=0 time=10
<meta message set_tempo tempo=376176 time=10>
<meta message set_tempo tempo=373832 time=20>
<meta message set_tempo tempo=371517 time=20>
<meta message set_tempo tempo=376176 time=20>
<meta message set_tempo tempo=377358 time=20>
note_on channel=0 note=89 velocity=51 time=20
note_on channel=0 note=95 velocity=0 time=10
<meta message set_tempo tempo=375000 time=90>
<meta message set_tempo tempo=372671 time=20>
note_on channel=0 note=94 velocity=57 time=0
note_on channel=0 note=89 velocity=0 time=10
<meta message set_tempo tempo=371517 time=10>
<meta message set_tempo tempo=375000 time=80>
<meta message set_tempo tempo=376176 time=20>
note_on channel=0 note=92 velocity=51 time=0
note_on channel=0 note=94 velocity=0 time=10
<meta message set_tempo tempo=377358 time=10>
<meta message set_tempo tempo=376176 time=60>
<meta message set_tempo tempo=375000 time=20>
<meta message set_tempo tempo=372671 time=20>
note_on channel=0 note=96 velocity=57 time=0
note_on channel=0 note=92 velocity=0 time=10
<meta message set_tempo tempo=371517 time=10>
<meta message set_tempo tempo=372671 time=40>
<meta message set_tempo tempo=373832 time=20>
<meta message set_tempo tempo=375000 time=20>
<meta message set_tempo tempo=376176 time=20>
note_on channel=0 note=89 velocity=50 time=0
note_on channel=0 note=96 velocity=0 time=10
<meta message set_tempo tempo=377358 time=10>
<meta message set_tempo tempo=375000 time=80>
<meta message set_tempo tempo=373832 time=20>
note_on channel=0 note=94 velocity=57 time=0
note_on channel=0 note=89 velocity=0 time=10
<meta message set_tempo tempo=372671 time=30>
<meta message set_tempo tempo=371517 time=40>
<meta message set_tempo tempo=372671 time=40>
note_on channel=0 note=92 velocity=52 time=0
note_on channel=0 note=94 velocity=0 time=10
<meta message set_tempo tempo=376176 time=10>
<meta message set_tempo tempo=373832 time=40>
<meta message set_tempo tempo=372671 time=20>
<meta message set_tempo tempo=371517 time=20>
<meta message set_tempo tempo=370370 time=20>
note_on channel=0 note=97 velocity=60 time=0
note_on channel=0 note=92 velocity=0 time=10
<meta message set_tempo tempo=369231 time=10>
<meta message set_tempo tempo=371517 time=80>
<meta message set_tempo tempo=373832 time=20>
note_on channel=0 note=89 velocity=51 time=0
note_on channel=0 note=97 velocity=0 time=10
<meta message set_tempo tempo=375000 time=10>
<meta message set_tempo tempo=376176 time=20>
<meta message set_tempo tempo=377358 time=40>
<meta message set_tempo tempo=376176 time=40>
note_on channel=0 note=94 velocity=61 time=0
note_on channel=0 note=89 velocity=0 time=10
<meta message set_tempo tempo=373832 time=10>
<meta message set_tempo tempo=372671 time=40>
<meta message set_tempo tempo=371517 time=60>
note_on channel=0 note=92 velocity=51 time=0
note_on channel=0 note=94 velocity=0 time=10
<meta message set_tempo tempo=372671 time=30>
<meta message set_tempo tempo=375000 time=20>
<meta message set_tempo tempo=377358 time=40>
note_on channel=0 note=98 velocity=63 time=20
note_on channel=0 note=92 velocity=0 time=10
<meta message set_tempo tempo=376176 time=70>
<meta message set_tempo tempo=373832 time=20>
note_on channel=0 note=89 velocity=51 time=20
note_on channel=0 note=98 velocity=0 time=10
<meta message set_tempo tempo=372671 time=10>
<meta message set_tempo tempo=371517 time=20>
<meta message set_tempo tempo=370370 time=20>
<meta message set_tempo tempo=371517 time=20>
<meta message set_tempo tempo=372671 time=20>
<meta message set_tempo tempo=373832 time=20>
note_on channel=0 note=94 velocity=57 time=0
note_on channel=0 note=89 velocity=0 time=10
<meta message set_tempo tempo=376176 time=10>
<meta message set_tempo tempo=377358 time=40>
<meta message set_tempo tempo=376176 time=60>
note_on channel=0 note=92 velocity=52 time=0
note_on channel=0 note=94 velocity=0 time=10
<meta message set_tempo tempo=373832 time=30>
<meta message set_tempo tempo=372671 time=20>
<meta message set_tempo tempo=371517 time=20>
<meta message set_tempo tempo=369231 time=20>
note_on channel=0 note=86 velocity=0 time=20
note_on channel=0 note=80 velocity=0 time=0
note_on channel=0 note=77 velocity=0 time=0
note_on channel=0 note=99 velocity=63 time=0
note_on channel=0 note=84 velocity=44 time=0
note_on channel=0 note=75 velocity=37 time=0
note_on channel=0 note=80 velocity=37 time=0
note_on channel=0 note=92 velocity=0 time=10
<meta message set_tempo tempo=371517 time=50>
<meta message set_tempo tempo=372671 time=20>
<meta message set_tempo tempo=375000 time=20>
note_on channel=0 note=89 velocity=52 time=20
note_on channel=0 note=99 velocity=0 time=10
<meta message set_tempo tempo=376176 time=30>
<meta message set_tempo tempo=377358 time=20>
<meta message set_tempo tempo=376176 time=20>
<meta message set_tempo tempo=375000 time=20>
<meta message set_tempo tempo=373832 time=20>
note_on channel=0 note=94 velocity=61 time=0
note_on channel=0 note=89 velocity=0 time=10
<meta message set_tempo tempo=371517 time=10>
<meta message set_tempo tempo=372671 time=60>
<meta message set_tempo tempo=380952 time=20>
note_on channel=0 note=92 velocity=52 time=20
note_on channel=0 note=94 velocity=0 time=10
<meta message set_tempo tempo=378549 time=70>
<meta message set_tempo tempo=377358 time=20>
<meta message set_tempo tempo=376176 time=20>
note_on channel=0 note=100 velocity=59 time=0
note_on channel=0 note=92 velocity=0 time=10
<meta message set_tempo tempo=375000 time=10>
<meta message set_tempo tempo=373832 time=20>
<meta message set_tempo tempo=371517 time=40>
<meta message set_tempo tempo=369231 time=20>
note_on channel=0 note=89 velocity=51 time=20
note_on channel=0 note=100 velocity=0 time=10
<meta message set_tempo tempo=368098 time=10>
<meta message set_tempo tempo=366972 time=20>
<meta message set_tempo tempo=368098 time=20>
<meta message set_tempo tempo=371517 time=20>
<meta message set_tempo tempo=372671 time=20>
<meta message set_tempo tempo=375000 time=20>
note_on channel=0 note=80 velocity=0 time=0
note_on channel=0 note=75 velocity=0 time=0
note_on channel=0 note=84 velocity=0 time=0
note_on channel=0 note=101 velocity=63 time=0
note_on channel=0 note=75 velocity=37 time=0
note_on channel=0 note=84 velocity=44 time=0
note_on channel=0 note=80 velocity=37 time=0
note_on channel=0 note=89 velocity=0 time=10
<meta message set_tempo tempo=376176 time=10>
note_on channel=0 note=98 velocity=51 time=100
note_on channel=0 note=101 velocity=0 time=10
note_on channel=0 note=97 velocity=52 time=110
note_on channel=0 note=98 velocity=0 time=10
<meta message set_tempo tempo=373832 time=30>
<meta message set_tempo tempo=371517 time=20>
<meta message set_tempo tempo=372671 time=40>
<meta message set_tempo tempo=376176 time=20>
note_on channel=0 note=100 velocity=52 time=0
note_on channel=0 note=97 velocity=0 time=10
<meta message set_tempo tempo=377358 time=10>
<meta message set_tempo tempo=376176 time=60>
<meta message set_tempo tempo=375000 time=20>
<meta message set_tempo tempo=372671 time=20>
note_on channel=0 note=99 velocity=57 time=0
note_on channel=0 note=100 velocity=0 time=10
<meta message set_tempo tempo=373832 time=50>
<meta message set_tempo tempo=375000 time=20>
<meta message set_tempo tempo=376176 time=40>
note_on channel=0 note=96 velocity=53 time=0
note_on channel=0 note=99 velocity=0 time=10
<meta message set_tempo tempo=375000 time=30>
<meta message set_tempo tempo=373832 time=20>
<meta message set_tempo tempo=372671 time=20>
<meta message set_tempo tempo=371517 time=20>
<meta message set_tempo tempo=370370 time=20>
note_on channel=0 note=84 velocity=0 time=0
note_on channel=0 note=75 velocity=0 time=0
note_on channel=0 note=95 velocity=57 time=0
note_on channel=0 note=74 velocity=37 time=0
note_on channel=0 note=82 velocity=44 time=0
note_on channel=0 note=96 velocity=0 time=10
<meta message set_tempo tempo=369231 time=10>
<meta message set_tempo tempo=368098 time=20>
<meta message set_tempo tempo=371517 time=40>
<meta message set_tempo tempo=373832 time=20>
<meta message set_tempo tempo=376176 time=20>
note_on channel=0 note=98 velocity=52 time=0
note_on channel=0 note=95 velocity=0 time=10
<meta message set_tempo tempo=377358 time=10>
<meta message set_tempo tempo=378549 time=20>
<meta message set_tempo tempo=377358 time=40>
<meta message set_tempo tempo=376176 time=20>
<meta message set_tempo tempo=373832 time=20>
note_on channel=0 note=82 velocity=0 time=0
note_on channel=0 note=80 velocity=0 time=0
note_on channel=0 note=74 velocity=0 time=0
note_on channel=0 note=97 velocity=52 time=0
note_on channel=0 note=98 velocity=0 time=10
<meta message set_tempo tempo=372671 time=10>
<meta message set_tempo tempo=373832 time=20>
<meta message set_tempo tempo=376176 time=20>
<meta message set_tempo tempo=377358 time=20>
note_on channel=0 note=94 velocity=52 time=40
note_on channel=0 note=97 velocity=0 time=10
<meta message set_tempo tempo=376176 time=10>
<meta message set_tempo tempo=375000 time=20>
<meta message set_tempo tempo=372671 time=40>
<meta message set_tempo tempo=371517 time=20>
<meta message set_tempo tempo=369231 time=20>
note_on channel=0 note=93 velocity=57 time=0
note_on channel=0 note=94 velocity=0 time=10
<meta message set_tempo tempo=370370 time=30>
<meta message set_tempo tempo=372671 time=40>
<meta message set_tempo tempo=375000 time=20>
<meta message set_tempo tempo=376176 time=20>
note_on channel=0 note=96 velocity=52 time=0
note_on channel=0 note=93 velocity=0 time=10
<meta message set_tempo tempo=377358 time=30>
<meta message set_tempo tempo=376176 time=60>
<meta message set_tempo tempo=372671 time=20>
note_on channel=0 note=95 velocity=57 time=0
note_on channel=0 note=96 velocity=0 time=10
<meta message set_tempo tempo=371517 time=10>
<meta message set_tempo tempo=370370 time=20>
<meta message set_tempo tempo=368098 time=20>
<meta message set_tempo tempo=366972 time=20>
<meta message set_tempo tempo=369231 time=40>
note_on channel=0 note=92 velocity=52 time=0
note_on channel=0 note=95 velocity=0 time=10
<meta message set_tempo tempo=371517 time=10>
<meta message set_tempo tempo=372671 time=20>
<meta message set_tempo tempo=373832 time=20>
<meta message set_tempo tempo=375000 time=20>
<meta message set_tempo tempo=376176 time=20>
<meta message set_tempo tempo=375000 time=20>
note_on channel=0 note=91 velocity=52 time=0
note_on channel=0 note=92 velocity=0 time=10
<meta message set_tempo tempo=372671 time=10>
<meta message set_tempo tempo=371517 time=40>
<meta message set_tempo tempo=373832 time=40>
<meta message set_tempo tempo=375000 time=20>
note_on channel=0 note=94 velocity=53 time=0
note_on channel=0 note=91 velocity=0 time=10
<meta message set_tempo tempo=376176 time=10>
<meta message set_tempo tempo=378549 time=20>
<meta message set_tempo tempo=377358 time=40>
<meta message set_tempo tempo=375000 time=20>
<meta message set_tempo tempo=372671 time=20>
note_on channel=0 note=92 velocity=57 time=0
note_on channel=0 note=94 velocity=0 time=10
<meta message set_tempo tempo=371517 time=30>
<meta message set_tempo tempo=370370 time=20>
<meta message set_tempo tempo=369231 time=20>
<meta message set_tempo tempo=371517 time=40>
note_on channel=0 note=89 velocity=55 time=0
note_on channel=0 note=92 velocity=0 time=10
<meta message set_tempo tempo=372671 time=10>
<meta message set_tempo tempo=375000 time=20>
<meta message set_tempo tempo=376176 time=40>
<meta message set_tempo tempo=375000 time=20>
<meta message set_tempo tempo=373832 time=20>
note_on channel=0 note=86 velocity=57 time=0
note_on channel=0 note=89 velocity=0 time=10
<meta message set_tempo tempo=372671 time=10>
<meta message set_tempo tempo=370370 time=40>
<meta message set_tempo tempo=368098 time=20>
<meta message set_tempo tempo=366972 time=20>
<meta message set_tempo tempo=368098 time=20>
note_on channel=0 note=82 velocity=52 time=0
note_on channel=0 note=86 velocity=0 time=10
<meta message set_tempo tempo=370370 time=10>
<meta message set_tempo tempo=371517 time=40>
<meta message set_tempo tempo=373832 time=40>
<meta message set_tempo tempo=375000 time=20>
note_on channel=0 note=81 velocity=52 time=0
note_on channel=0 note=82 velocity=0 time=10
<meta message set_tempo tempo=376176 time=10>
<meta message set_tempo tempo=377358 time=20>
<meta message set_tempo tempo=376176 time=20>
<meta message set_tempo tempo=375000 time=20>
<meta message set_tempo tempo=373832 time=20>
<meta message set_tempo tempo=372671 time=20>
note_on channel=0 note=82 velocity=52 time=0
note_on channel=0 note=81 velocity=0 time=10
<meta message set_tempo tempo=371517 time=30>
<meta message set_tempo tempo=372671 time=40>
<meta message set_tempo tempo=375000 time=20>
<meta message set_tempo tempo=376176 time=20>
note_on channel=0 note=80 velocity=57 time=0
note_on channel=0 note=82 velocity=0 time=10
<meta message set_tempo tempo=377358 time=10>
<meta message set_tempo tempo=376176 time=60>
<meta message set_tempo tempo=375000 time=20>
<meta message set_tempo tempo=372671 time=20>
note_on channel=0 note=82 velocity=52 time=0
note_on channel=0 note=80 velocity=0 time=10
<meta message set_tempo tempo=401338 time=110>
note_on channel=0 note=78 velocity=56 time=0
note_on channel=0 note=51 velocity=42 time=0
note_on channel=0 note=82 velocity=0 time=10
<meta message set_tempo tempo=381291 time=70>
note_on channel=0 note=51 velocity=0 time=40
note_on channel=0 note=79 velocity=48 time=0
note_on channel=0 note=78 velocity=0 time=10
control_change channel=0 control=64 value=127 time=99
<meta message set_tempo tempo=367512 time=11>
note_on channel=0 note=91 velocity=47 time=0
note_on channel=0 note=63 velocity=28 time=0
note_on channel=0 note=67 velocity=28 time=0
note_on channel=0 note=72 velocity=48 time=0
note_on channel=0 note=79 velocity=0 time=10
note_on channel=0 note=86 velocity=47 time=110
note_on channel=0 note=91 velocity=0 time=10
<meta message set_tempo tempo=397219 time=110>
note_on channel=0 note=72 velocity=0 time=0
note_on channel=0 note=87 velocity=51 time=0
note_on channel=0 note=70 velocity=35 time=0
note_on channel=0 note=86 velocity=0 time=10
control_change channel=0 control=64 value=0 time=5
note_on channel=0 note=83 velocity=44 time=105
note_on channel=0 note=87 velocity=0 time=10
<meta message set_tempo tempo=376176 time=70>
note_on channel=0 note=70 velocity=0 time=40
note_on channel=0 note=67 velocity=0 time=0
note_on channel=0 note=63 velocity=0 time=0
note_on channel=0 note=84 velocity=49 time=0
note_on channel=0 note=46 velocity=41 time=0
note_on channel=0 note=83 velocity=0 time=10
note_on channel=0 note=46 velocity=0 time=110
note_on channel=0 note=79 velocity=46 time=0
note_on channel=0 note=84 velocity=0 time=10
<meta message set_tempo tempo=379747 time=110>
note_on channel=0 note=82 velocity=50 time=0
note_on channel=0 note=62 velocity=23 time=0
note_on channel=0 note=68 velocity=27 time=0
note_on channel=0 note=57 velocity=33 time=0
note_on channel=0 note=79 velocity=0 time=10
control_change channel=0 control=64 value=127 time=7
note_on channel=0 note=80 velocity=48 time=103
note_on channel=0 note=82 velocity=0 time=10
<meta message set_tempo tempo=395857 time=110>
note_on channel=0 note=57 velocity=0 time=0
note_on channel=0 note=79 velocity=47 time=0
note_on channel=0 note=58 velocity=33 time=0
control_change channel=0 control=64 value=0 time=8
note_on channel=0 note=80 velocity=0 time=2
note_on channel=0 note=77 velocity=48 time=110
note_on channel=0 note=79 velocity=0 time=10
<meta message set_tempo tempo=381291 time=110>
note_on channel=0 note=58 velocity=0 time=0
note_on channel=0 note=68 velocity=0 time=0
note_on channel=0 note=62 velocity=0 time=0
note_on channel=0 note=77 velocity=0 time=0
note_on channel=0 note=78 velocity=52 time=0
note_on channel=0 note=51 velocity=42 time=0
note_on channel=0 note=51 velocity=0 time=120
note_on channel=0 note=79 velocity=45 time=0
note_on channel=0 note=78 velocity=0 time=10
<meta message set_tempo tempo=366077 time=110>
note_on channel=0 note=91 velocity=47 time=0
note_on channel=0 note=67 velocity=28 time=0
note_on channel=0 note=63 velocity=28 time=0
note_on channel=0 note=72 velocity=48 time=0
note_on channel=0 note=79 velocity=0 time=10
control_change channel=0 control=64 value=127 time=2
note_on channel=0 note=86 velocity=45 time=108
note_on channel=0 note=91 velocity=0 time=10
<meta message set_tempo tempo=397219 time=110>
note_on channel=0 note=72 velocity=0 time=0
note_on channel=0 note=87 velocity=50 time=0
note_on channel=0 note=70 velocity=35 time=0
note_on channel=0 note=86 velocity=0 time=10
control_change channel=0 control=64 value=0 time=0
note_on channel=0 note=83 velocity=45 time=110
note_on channel=0 note=87 velocity=0 time=10
<meta message set_tempo tempo=381291 time=110>
note_on channel=0 note=70 velocity=0 time=0
note_on channel=0 note=63 velocity=0 time=0
note_on channel=0 note=67 velocity=0 time=0
note_on channel=0 note=84 velocity=49 time=0
note_on channel=0 note=46 velocity=41 time=0
note_on channel=0 note=83 velocity=0 time=10
<meta message set_tempo tempo=376176 time=10>
note_on channel=0 note=46 velocity=0 time=100
note_on channel=0 note=79 velocity=46 time=0
note_on channel=0 note=84 velocity=0 time=10
<meta message set_tempo tempo=380952 time=110>
note_on channel=0 note=82 velocity=48 time=0
note_on channel=0 note=62 velocity=23 time=0
note_on channel=0 note=57 velocity=33 time=0
note_on channel=0 note=68 velocity=27 time=0
note_on channel=0 note=79 velocity=0 time=10
control_change channel=0 control=64 value=127 time=19
note_on channel=0 note=80 velocity=48 time=91
note_on channel=0 note=82 velocity=0 time=10
<meta message set_tempo tempo=395857 time=110>
note_on channel=0 note=57 velocity=0 time=0
note_on channel=0 note=79 velocity=47 time=0
note_on channel=0 note=58 velocity=33 time=0
control_change channel=0 control=64 value=0 time=6
note_on channel=0 note=80 velocity=0 time=4
note_on channel=0 note=77 velocity=48 time=110
note_on channel=0 note=79 velocity=0 time=10
<meta message set_tempo tempo=381291 time=110>
note_on channel=0 note=58 velocity=0 time=0
note_on channel=0 note=68 velocity=0 time=0
note_on channel=0 note=62 velocity=0 time=0
note_on channel=0 note=77 velocity=0 time=0
note_on channel=0 note=78 velocity=52 time=0
note_on channel=0 note=51 velocity=42 time=0
note_on channel=0 note=51 velocity=0 time=120
note_on channel=0 note=79 velocity=45 time=0
note_on channel=0 note=78 velocity=0 time=10
<meta message set_tempo tempo=383387 time=110>
note_on channel=0 note=91 velocity=47 time=0
note_on channel=0 note=58 velocity=28 time=0
note_on channel=0 note=63 velocity=28 time=0
note_on channel=0 note=68 velocity=48 time=0
note_on channel=0 note=79 velocity=0 time=10
control_change channel=0 control=64 value=127 time=5
note_on channel=0 note=86 velocity=46 time=105
note_on channel=0 note=91 velocity=0 time=10
<meta message set_tempo tempo=397219 time=110>
note_on channel=0 note=68 velocity=0 time=0
note_on channel=0 note=87 velocity=52 time=0
note_on channel=0 note=67 velocity=36 time=0
note_on channel=0 note=86 velocity=0 time=10
control_change channel=0 control=64 value=0 time=4
note_on channel=0 note=83 velocity=47 time=106
note_on channel=0 note=87 velocity=0 time=10
<meta message set_tempo tempo=381291 time=110>
note_on channel=0 note=67 velocity=0 time=0
note_on channel=0 note=63 velocity=0 time=0
note_on channel=0 note=58 velocity=0 time=0
note_on channel=0 note=84 velocity=52 time=0
note_on channel=0 note=44 velocity=43 time=0
note_on channel=0 note=83 velocity=0 time=10
note_on channel=0 note=44 velocity=0 time=110
note_on channel=0 note=79 velocity=49 time=0
note_on channel=0 note=84 velocity=0 time=10
note_on channel=0 note=82 velocity=52 time=110
note_on channel=0 note=60 velocity=29 time=0
note_on channel=0 note=67 velocity=50 time=0
note_on channel=0 note=56 velocity=29 time=0
note_on channel=0 note=79 velocity=0 time=10
control_change channel=0 control=64 value=127 time=5
note_on channel=0 note=80 velocity=53 time=105
note_on channel=0 note=82 velocity=0 time=10
<meta message set_tempo tempo=395857 time=110>
note_on channel=0 note=67 velocity=0 time=0
note_on channel=0 note=79 velocity=52 time=0
note_on channel=0 note=65 velocity=37 time=0
note_on channel=0 note=80 velocity=0 time=10
control_change channel=0 control=64 value=0 time=1
note_on channel=0 note=77 velocity=54 time=109
note_on channel=0 note=79 velocity=0 time=10
<meta message set_tempo tempo=386449 time=110>
note_on channel=0 note=65 velocity=0 time=0
note_on channel=0 note=56 velocity=0 time=0
note_on channel=0 note=60 velocity=0 time=0
note_on channel=0 note=77 velocity=0 time=0
note_on channel=0 note=75 velocity=64 time=0
note_on channel=0 note=46 velocity=45 time=0
control_change channel=0 control=64 value=127 time=40
note_on channel=0 note=46 velocity=0 time=80
note_on channel=0 note=81 velocity=49 time=0
note_on channel=0 note=81 velocity=0 time=120
note_on channel=0 note=75 velocity=0 time=0
note_on channel=0 note=77 velocity=48 time=0
note_on channel=0 note=63 velocity=50 time=0
note_on channel=0 note=53 velocity=29 time=0
note_on channel=0 note=56 velocity=29 time=0
note_on channel=0 note=77 velocity=0 time=120
note_on channel=0 note=74 velocity=58 time=0
<meta message set_tempo tempo=384615 time=120>
note_on channel=0 note=63 velocity=0 time=0
note_on channel=0 note=81 velocity=48 time=0
note_on channel=0 note=62 velocity=36 time=0
note_on channel=0 note=81 velocity=0 time=120
note_on channel=0 note=74 velocity=0 time=0
note_on channel=0 note=77 velocity=48 time=0
<meta message set_tempo tempo=385852 time=80>
note_on channel=0 note=77 velocity=0 time=40
note_on channel=0 note=62 velocity=0 time=0
note_on channel=0 note=53 velocity=0 time=0
note_on channel=0 note=56 velocity=0 time=0
note_on channel=0 note=72 velocity=56 time=0
note_on channel=0 note=46 velocity=41 time=0
control_change channel=0 control=64 value=0 time=15
<meta message set_tempo tempo=387097 time=105>
note_on channel=0 note=46 velocity=0 time=0
note_on channel=0 note=81 velocity=48 time=0
control_change channel=0 control=64 value=127 time=0
note_on channel=0 note=81 velocity=0 time=120
note_on channel=0 note=72 velocity=0 time=0
note_on channel=0 note=77 velocity=48 time=0
note_on channel=0 note=53 velocity=27 time=0
note_on channel=0 note=56 velocity=27 time=0
note_on channel=0 note=60 velocity=46 time=0
<meta message set_tempo tempo=388350 time=40>
note_on channel=0 note=77 velocity=0 time=80
note_on channel=0 note=70 velocity=54 time=0
<meta message set_tempo tempo=389610 time=80>
<meta message set_tempo tempo=395857 time=40>
note_on channel=0 note=60 velocity=0 time=0
note_on channel=0 note=81 velocity=47 time=0
note_on channel=0 note=58 velocity=34 time=0
note_on channel=0 note=81 velocity=0 time=120
note_on channel=0 note=70 velocity=0 time=0
note_on channel=0 note=77 velocity=47 time=0
<meta message set_tempo tempo=402685 time=120>
note_on channel=0 note=77 velocity=0 time=0
note_on channel=0 note=58 velocity=0 time=0
note_on channel=0 note=56 velocity=0 time=0
note_on channel=0 note=53 velocity=0 time=0
note_on channel=0 note=78 velocity=56 time=0
note_on channel=0 note=51 velocity=42 time=0
control_change channel=0 control=64 value=0 time=0
control_change channel=0 control=64 value=0 time=13
<meta message set_tempo tempo=384615 time=67>
note_on channel=0 note=51 velocity=0 time=40
note_on channel=0 note=79 velocity=48 time=0
note_on channel=0 note=78 velocity=0 time=10
<meta message set_tempo tempo=367512 time=110>
note_on channel=0 note=91 velocity=47 time=0
note_on channel=0 note=63 velocity=28 time=0
note_on channel=0 note=67 velocity=28 time=0
note_on channel=0 note=72 velocity=48 time=0
note_on channel=0 note=79 velocity=0 time=10
control_change channel=0 control=64 value=127 time=42
note_on channel=0 note=86 velocity=47 time=68
note_on channel=0 note=91 velocity=0 time=10
<meta message set_tempo tempo=397219 time=110>
note_on channel=0 note=72 velocity=0 time=0
note_on channel=0 note=87 velocity=51 time=0
note_on channel=0 note=70 velocity=35 time=0
note_on channel=0 note=86 velocity=0 time=10
control_change channel=0 control=64 value=0 time=0
note_on channel=0 note=83 velocity=44 time=110
note_on channel=0 note=87 velocity=0 time=10
<meta message set_tempo tempo=381291 time=110>
note_on channel=0 note=70 velocity=0 time=0
note_on channel=0 note=67 velocity=0 time=0
note_on channel=0 note=63 velocity=0 time=0
note_on channel=0 note=84 velocity=51 time=0
note_on channel=0 note=46 velocity=41 time=0
note_on channel=0 note=83 velocity=0 time=10
<meta message set_tempo tempo=377358 time=10>
note_on channel=0 note=46 velocity=0 time=100
note_on channel=0 note=79 velocity=46 time=0
note_on channel=0 note=84 velocity=0 time=10
<meta message set_tempo tempo=380952 time=110>
note_on channel=0 note=82 velocity=50 time=0
note_on channel=0 note=57 velocity=33 time=0
note_on channel=0 note=68 velocity=27 time=0
note_on channel=0 note=62 velocity=23 time=0
note_on channel=0 note=79 velocity=0 time=10
control_change channel=0 control=64 value=127 time=53
note_on channel=0 note=80 velocity=48 time=57
note_on channel=0 note=82 velocity=0 time=10
<meta message set_tempo tempo=395857 time=110>
note_on channel=0 note=57 velocity=0 time=0
note_on channel=0 note=79 velocity=47 time=0
note_on channel=0 note=58 velocity=33 time=0
note_on channel=0 note=80 velocity=0 time=10
control_change channel=0 control=64 value=0 time=0
note_on channel=0 note=77 velocity=48 time=110
note_on channel=0 note=79 velocity=0 time=10
<meta message set_tempo tempo=381291 time=110>
note_on channel=0 note=58 velocity=0 time=0
note_on channel=0 note=68 velocity=0 time=0
note_on channel=0 note=62 velocity=0 time=0
note_on channel=0 note=77 velocity=0 time=0
note_on channel=0 note=78 velocity=52 time=0
note_on channel=0 note=51 velocity=42 time=0
note_on channel=0 note=51 velocity=0 time=120
note_on channel=0 note=79 velocity=45 time=0
note_on channel=0 note=78 velocity=0 time=10
<meta message set_tempo tempo=366077 time=110>
note_on channel=0 note=91 velocity=47 time=0
note_on channel=0 note=72 velocity=48 time=0
note_on channel=0 note=63 velocity=28 time=0
note_on channel=0 note=67 velocity=28 time=0
note_on channel=0 note=79 velocity=0 time=10
control_change channel=0 control=64 value=127 time=59
note_on channel=0 note=86 velocity=45 time=51
note_on channel=0 note=91 velocity=0 time=10
<meta message set_tempo tempo=397219 time=110>
note_on channel=0 note=72 velocity=0 time=0
note_on channel=0 note=87 velocity=50 time=0
note_on channel=0 note=70 velocity=35 time=0
note_on channel=0 note=86 velocity=0 time=10
control_change channel=0 control=64 value=0 time=1
note_on channel=0 note=83 velocity=45 time=109
note_on channel=0 note=87 velocity=0 time=10
<meta message set_tempo tempo=381291 time=110>
note_on channel=0 note=70 velocity=0 time=0
note_on channel=0 note=63 velocity=0 time=0
note_on channel=0 note=67 velocity=0 time=0
note_on channel=0 note=84 velocity=49 time=0
note_on channel=0 note=46 velocity=41 time=0
note_on channel=0 note=83 velocity=0 time=10
note_on channel=0 note=46 velocity=0 time=110
note_on channel=0 note=79 velocity=46 time=0
note_on channel=0 note=84 velocity=0 time=10
note_on channel=0 note=82 velocity=48 time=110
note_on channel=0 note=62 velocity=23 time=0
note_on channel=0 note=68 velocity=27 time=0
note_on channel=0 note=57 velocity=33 time=0
note_on channel=0 note=79 velocity=0 time=10
control_change channel=0 control=64 value=127 time=65
note_on channel=0 note=80 velocity=48 time=45
note_on channel=0 note=82 velocity=0 time=10
<meta message set_tempo tempo=395857 time=110>
note_on channel=0 note=57 velocity=0 time=0
note_on channel=0 note=79 velocity=47 time=0
note_on channel=0 note=58 velocity=33 time=0
control_change channel=0 control=64 value=0 time=7
note_on channel=0 note=80 velocity=0 time=3
note_on channel=0 note=77 velocity=48 time=110
note_on channel=0 note=79 velocity=0 time=10
<meta message set_tempo tempo=387097 time=110>
note_on channel=0 note=58 velocity=0 time=0
note_on channel=0 note=68 velocity=0 time=0
note_on channel=0 note=62 velocity=0 time=0
note_on channel=0 note=77 velocity=0 time=0
note_on channel=0 note=78 velocity=52 time=0
note_on channel=0 note=51 velocity=42 time=0
note_on channel=0 note=51 velocity=0 time=120
note_on channel=0 note=79 velocity=45 time=0
note_on channel=0 note=78 velocity=0 time=10
<meta message set_tempo tempo=376176 time=110>
note_on channel=0 note=91 velocity=47 time=0
note_on channel=0 note=67 velocity=28 time=0
note_on channel=0 note=77 velocity=48 time=0
note_on channel=0 note=70 velocity=28 time=0
note_on channel=0 note=79 velocity=0 time=10
control_change channel=0 control=64 value=127 time=59
note_on channel=0 note=86 velocity=46 time=51
note_on channel=0 note=91 velocity=0 time=10
<meta message set_tempo tempo=397219 time=110>
note_on channel=0 note=77 velocity=0 time=0
note_on channel=0 note=87 velocity=52 time=0
note_on channel=0 note=75 velocity=36 time=0
note_on channel=0 note=86 velocity=0 time=10
control_change channel=0 control=64 value=0 time=1
note_on channel=0 note=83 velocity=47 time=109
note_on channel=0 note=87 velocity=0 time=10
<meta message set_tempo tempo=381291 time=110>
note_on channel=0 note=75 velocity=0 time=0
note_on channel=0 note=70 velocity=0 time=0
note_on channel=0 note=67 velocity=0 time=0
note_on channel=0 note=84 velocity=52 time=0
note_on channel=0 note=44 velocity=43 time=0
note_on channel=0 note=83 velocity=0 time=10
note_on channel=0 note=44 velocity=0 time=110
note_on channel=0 note=79 velocity=49 time=0
note_on channel=0 note=84 velocity=0 time=10
note_on channel=0 note=82 velocity=52 time=110
note_on channel=0 note=67 velocity=50 time=0
note_on channel=0 note=60 velocity=29 time=0
note_on channel=0 note=56 velocity=29 time=0
note_on channel=0 note=79 velocity=0 time=10
control_change channel=0 control=64 value=127 time=59
note_on channel=0 note=80 velocity=53 time=51
note_on channel=0 note=82 velocity=0 time=10
<meta message set_tempo tempo=395857 time=110>
note_on channel=0 note=67 velocity=0 time=0
note_on channel=0 note=79 velocity=52 time=0
note_on channel=0 note=65 velocity=37 time=0
note_on channel=0 note=80 velocity=0 time=10
control_change channel=0 control=64 value=0 time=4
note_on channel=0 note=77 velocity=54 time=106
note_on channel=0 note=79 velocity=0 time=10
<meta message set_tempo tempo=386449 time=110>
note_on channel=0 note=65 velocity=0 time=0
note_on channel=0 note=60 velocity=0 time=0
note_on channel=0 note=56 velocity=0 time=0
note_on channel=0 note=77 velocity=0 time=0
note_on channel=0 note=76 velocity=56 time=0
note_on channel=0 note=46 velocity=48 time=0
control_change channel=0 control=64 value=0 time=13
control_change channel=0 control=64 value=127 time=27
note_on channel=0 note=76 velocity=0 time=80
note_on channel=0 note=75 velocity=56 time=0
note_on channel=0 note=75 velocity=0 time=120
note_on channel=0 note=46 velocity=0 time=0
note_on channel=0 note=74 velocity=55 time=0
note_on channel=0 note=74 velocity=0 time=120
note_on channel=0 note=73 velocity=54 time=0
note_on channel=0 note=73 velocity=0 time=120
note_on channel=0 note=72 velocity=52 time=0
note_on channel=0 note=62 velocity=38 time=0
note_on channel=0 note=56 velocity=38 time=0
note_on channel=0 note=53 velocity=38 time=0
note_on channel=0 note=72 velocity=0 time=120
note_on channel=0 note=71 velocity=51 time=0
note_on channel=0 note=71 velocity=0 time=120
note_on channel=0 note=53 velocity=0 time=0
note_on channel=0 note=56 velocity=0 time=0
note_on channel=0 note=62 velocity=0 time=0
note_on channel=0 note=70 velocity=50 time=0
note_on channel=0 note=56 velocity=38 time=0
note_on channel=0 note=53 velocity=38 time=0
note_on channel=0 note=62 velocity=38 time=0
control_change channel=0 control=64 value=0 time=15
note_on channel=0 note=70 velocity=0 time=105
note_on channel=0 note=69 velocity=49 time=0
control_change channel=0 control=64 value=127 time=0
note_on channel=0 note=69 velocity=0 time=120
note_on channel=0 note=62 velocity=0 time=0
note_on channel=0 note=53 velocity=0 time=0
note_on channel=0 note=56 velocity=0 time=0
note_on channel=0 note=72 velocity=50 time=0
note_on channel=0 note=53 velocity=38 time=0
note_on channel=0 note=56 velocity=38 time=0
note_on channel=0 note=62 velocity=38 time=0
note_on channel=0 note=72 velocity=0 time=120
note_on channel=0 note=70 velocity=50 time=0
<meta message set_tempo tempo=395857 time=120>
note_on channel=0 note=70 velocity=0 time=0
note_on channel=0 note=62 velocity=0 time=0
note_on channel=0 note=56 velocity=0 time=0
note_on channel=0 note=53 velocity=0 time=0
note_on channel=0 note=69 velocity=48 time=0
note_on channel=0 note=56 velocity=38 time=0
note_on channel=0 note=62 velocity=38 time=0
note_on channel=0 note=53 velocity=38 time=0
note_on channel=0 note=69 velocity=0 time=120
note_on channel=0 note=68 velocity=48 time=0
<meta message set_tempo tempo=386449 time=80>
<meta message set_tempo tempo=386449 time=40>
note_on channel=0 note=68 velocity=0 time=0
note_on channel=0 note=53 velocity=0 time=0
note_on channel=0 note=62 velocity=0 time=0
note_on channel=0 note=56 velocity=0 time=0
note_on channel=0 note=67 velocity=49 time=0
note_on channel=0 note=58 velocity=49 time=0
note_on channel=0 note=61 velocity=58 time=0
note_on channel=0 note=51 velocity=49 time=0
control_change channel=0 control=64 value=0 time=6
note_on channel=0 note=68 velocity=49 time=114
note_on channel=0 note=67 velocity=0 time=10
<meta message set_tempo tempo=385159 time=50>
note_on channel=0 note=51 velocity=0 time=60
note_on channel=0 note=58 velocity=0 time=0
note_on channel=0 note=61 velocity=0 time=0
note_on channel=0 note=69 velocity=50 time=0
note_on channel=0 note=68 velocity=0 time=10
<meta message set_tempo tempo=383853 time=90>
note_on channel=0 note=70 velocity=52 time=20
note_on channel=0 note=51 velocity=49 time=0
note_on channel=0 note=39 velocity=41 time=0
note_on channel=0 note=69 velocity=0 time=10
note_on channel=0 note=39 velocity=0 time=110
note_on channel=0 note=51 velocity=0 time=0
note_on channel=0 note=72 velocity=52 time=0
note_on channel=0 note=51 velocity=50 time=0
note_on channel=0 note=39 velocity=41 time=0
note_on channel=0 note=70 velocity=0 time=10
<meta message set_tempo tempo=382555 time=10>
note_on channel=0 note=39 velocity=0 time=100
note_on channel=0 note=51 velocity=0 time=0
note_on channel=0 note=70 velocity=53 time=0
note_on channel=0 note=72 velocity=0 time=10
<meta message set_tempo tempo=383853 time=30>
note_on channel=0 note=68 velocity=52 time=80
note_on channel=0 note=56 velocity=42 time=0
note_on channel=0 note=60 velocity=51 time=0
note_on channel=0 note=70 velocity=0 time=10
<meta message set_tempo tempo=385159 time=50>
note_on channel=0 note=60 velocity=0 time=60
note_on channel=0 note=56 velocity=0 time=0
note_on channel=0 note=70 velocity=53 time=0
note_on channel=0 note=68 velocity=0 time=10
<meta message set_tempo tempo=386449 time=70>
note_on channel=0 note=71 velocity=56 time=40
note_on channel=0 note=43 velocity=42 time=0
note_on channel=0 note=55 velocity=51 time=0
note_on channel=0 note=70 velocity=0 time=10
<meta message set_tempo tempo=387772 time=90>
note_on channel=0 note=55 velocity=0 time=20
note_on channel=0 note=43 velocity=0 time=0
note_on channel=0 note=72 velocity=58 time=0
note_on channel=0 note=71 velocity=0 time=10
<meta message set_tempo tempo=389080 time=90>
<meta message set_tempo tempo=405707 time=20>
note_on channel=0 note=73 velocity=59 time=0
note_on channel=0 note=42 velocity=44 time=0
note_on channel=0 note=54 velocity=52 time=0
note_on channel=0 note=72 velocity=0 time=10
note_on channel=0 note=54 velocity=0 time=110
note_on channel=0 note=42 velocity=0 time=0
note_on channel=0 note=72 velocity=57 time=0
note_on channel=0 note=73 velocity=0 time=10
<meta message set_tempo tempo=387772 time=110>
note_on channel=0 note=72 velocity=0 time=0
note_on channel=0 note=69 velocity=49 time=0
note_on channel=0 note=57 velocity=49 time=0
note_on channel=0 note=63 velocity=58 time=0
<meta message set_tempo tempo=387772 time=20>
note_on channel=0 note=70 velocity=49 time=100
note_on channel=0 note=69 velocity=0 time=10
<meta message set_tempo tempo=386449 time=10>
<meta message set_tempo tempo=385159 time=100>
note_on channel=0 note=57 velocity=0 time=0
note_on channel=0 note=63 velocity=0 time=0
note_on channel=0 note=71 velocity=50 time=0
note_on channel=0 note=70 velocity=0 time=10
<meta message set_tempo tempo=383853 time=110>
note_on channel=0 note=72 velocity=52 time=0
note_on channel=0 note=53 velocity=49 time=0
note_on channel=0 note=41 velocity=41 time=0
note_on channel=0 note=71 velocity=0 time=10
<meta message set_tempo tempo=382555 time=90>
note_on channel=0 note=41 velocity=0 time=20
note_on channel=0 note=53 velocity=0 time=0
note_on channel=0 note=74 velocity=52 time=0
note_on channel=0 note=41 velocity=41 time=0
note_on channel=0 note=53 velocity=50 time=0
note_on channel=0 note=72 velocity=0 time=10
<meta message set_tempo tempo=383853 time=90>
note_on channel=0 note=53 velocity=0 time=20
note_on channel=0 note=41 velocity=0 time=0
note_on channel=0 note=72 velocity=53 time=0
note_on channel=0 note=74 velocity=0 time=10
<meta message set_tempo tempo=385159 time=90>
note_on channel=0 note=70 velocity=52 time=20
note_on channel=0 note=62 velocity=51 time=0
note_on channel=0 note=58 velocity=42 time=0
note_on channel=0 note=72 velocity=0 time=10
<meta message set_tempo tempo=386449 time=90>
note_on channel=0 note=58 velocity=0 time=20
note_on channel=0 note=62 velocity=0 time=0
note_on channel=0 note=72 velocity=53 time=0
note_on channel=0 note=70 velocity=0 time=10
<meta message set_tempo tempo=387772 time=90>
note_on channel=0 note=73 velocity=56 time=20
note_on channel=0 note=45 velocity=42 time=0
note_on channel=0 note=57 velocity=51 time=0
note_on channel=0 note=72 velocity=0 time=10
<meta message set_tempo tempo=389080 time=90>
note_on channel=0 note=57 velocity=0 time=20
note_on channel=0 note=45 velocity=0 time=0
note_on channel=0 note=74 velocity=58 time=0
note_on channel=0 note=73 velocity=0 time=10
<meta message set_tempo tempo=390422 time=70>
<meta message set_tempo tempo=402847 time=40>
note_on channel=0 note=75 velocity=59 time=0
note_on channel=0 note=44 velocity=44 time=0
note_on channel=0 note=56 velocity=52 time=0
note_on channel=0 note=74 velocity=0 time=10
note_on channel=0 note=56 velocity=0 time=110
note_on channel=0 note=44 velocity=0 time=0
note_on channel=0 note=74 velocity=57 time=0
note_on channel=0 note=75 velocity=0 time=10
<meta message set_tempo tempo=389080 time=110>
note_on channel=0 note=71 velocity=49 time=0
note_on channel=0 note=59 velocity=49 time=0
note_on channel=0 note=65 velocity=58 time=0
note_on channel=0 note=74 velocity=0 time=10
note_on channel=0 note=72 velocity=49 time=110
note_on channel=0 note=71 velocity=0 time=10
<meta message set_tempo tempo=387772 time=30>
note_on channel=0 note=65 velocity=0 time=80
note_on channel=0 note=59 velocity=0 time=0
note_on channel=0 note=73 velocity=50 time=0
note_on channel=0 note=72 velocity=0 time=10
<meta message set_tempo tempo=386449 time=70>
note_on channel=0 note=74 velocity=52 time=40
note_on channel=0 note=43 velocity=41 time=0
note_on channel=0 note=55 velocity=49 time=0
note_on channel=0 note=73 velocity=0 time=10
<meta message set_tempo tempo=385159 time=110>
note_on channel=0 note=55 velocity=0 time=0
note_on channel=0 note=43 velocity=0 time=0
note_on channel=0 note=75 velocity=52 time=0
note_on channel=0 note=43 velocity=41 time=0
note_on channel=0 note=55 velocity=50 time=0
note_on channel=0 note=74 velocity=0 time=10
note_on channel=0 note=55 velocity=0 time=110
note_on channel=0 note=43 velocity=0 time=0
note_on channel=0 note=74 velocity=53 time=0
note_on channel=0 note=75 velocity=0 time=10
<meta message set_tempo tempo=383853 time=30>
note_on channel=0 note=72 velocity=52 time=80
note_on channel=0 note=63 velocity=51 time=0
note_on channel=0 note=60 velocity=42 time=0
note_on channel=0 note=74 velocity=0 time=10
<meta message set_tempo tempo=385159 time=10>
<meta message set_tempo tempo=386449 time=80>
note_on channel=0 note=60 velocity=0 time=20
note_on channel=0 note=63 velocity=0 time=0
note_on channel=0 note=73 velocity=53 time=0
note_on channel=0 note=72 velocity=0 time=10
<meta message set_tempo tempo=387772 time=50>
note_on channel=0 note=74 velocity=56 time=60
note_on channel=0 note=48 velocity=51 time=0
note_on channel=0 note=36 velocity=42 time=0
note_on channel=0 note=73 velocity=0 time=10
<meta message set_tempo tempo=389080 time=30>
<meta message set_tempo tempo=390422 time=80>
note_on channel=0 note=75 velocity=58 time=0
note_on channel=0 note=74 velocity=0 time=10
<meta message set_tempo tempo=391773 time=70>
<meta message set_tempo tempo=398618 time=40>
note_on channel=0 note=36 velocity=0 time=0
note_on channel=0 note=48 velocity=0 time=0
note_on channel=0 note=76 velocity=59 time=0
note_on channel=0 note=75 velocity=0 time=10
note_on channel=0 note=77 velocity=57 time=110
note_on channel=0 note=76 velocity=0 time=10
<meta message set_tempo tempo=386449 time=110>
note_on channel=0 note=79 velocity=65 time=0
note_on channel=0 note=56 velocity=46 time=0
note_on channel=0 note=63 velocity=53 time=0
note_on channel=0 note=77 velocity=0 time=10
note_on channel=0 note=77 velocity=64 time=110
note_on channel=0 note=79 velocity=0 time=10
note_on channel=0 note=63 velocity=0 time=110
note_on channel=0 note=56 velocity=0 time=0
note_on channel=0 note=76 velocity=62 time=0
note_on channel=0 note=47 velocity=62 time=0
note_on channel=0 note=77 velocity=0 time=10
note_on channel=0 note=75 velocity=61 time=110
note_on channel=0 note=76 velocity=0 time=10
<meta message set_tempo tempo=400000 time=110>
note_on channel=0 note=47 velocity=0 time=0
note_on channel=0 note=74 velocity=58 time=0
note_on channel=0 note=75 velocity=0 time=10
note_on channel=0 note=73 velocity=56 time=110
note_on channel=0 note=74 velocity=0 time=10
<meta message set_tempo tempo=386449 time=110>
note_on channel=0 note=72 velocity=55 time=0
note_on channel=0 note=56 velocity=42 time=0
note_on channel=0 note=62 velocity=51 time=0
note_on channel=0 note=73 velocity=0 time=10
note_on channel=0 note=71 velocity=53 time=110
note_on channel=0 note=72 velocity=0 time=10
note_on channel=0 note=62 velocity=0 time=110
note_on channel=0 note=56 velocity=0 time=0
note_on channel=0 note=70 velocity=54 time=0
note_on channel=0 note=46 velocity=60 time=0
note_on channel=0 note=71 velocity=0 time=10
note_on channel=0 note=69 velocity=54 time=110
note_on channel=0 note=70 velocity=0 time=10
<meta message set_tempo tempo=395857 time=110>
note_on channel=0 note=46 velocity=0 time=0
note_on channel=0 note=70 velocity=51 time=0
note_on channel=0 note=69 velocity=0 time=10
note_on channel=0 note=68 velocity=50 time=110
note_on channel=0 note=70 velocity=0 time=10
<meta message set_tempo tempo=386449 time=70>
<meta message set_tempo tempo=385852 time=40>
note_on channel=0 note=67 velocity=53 time=0
note_on channel=0 note=51 velocity=37 time=0
note_on channel=0 note=39 velocity=31 time=0
control_change channel=0 control=64 value=0 time=0
note_on channel=0 note=68 velocity=0 time=10
control_change channel=0 control=64 value=127 time=47
note_on channel=0 note=67 velocity=0 time=183
note_on channel=0 note=51 velocity=0 time=0
note_on channel=0 note=39 velocity=0 time=0
note_on channel=0 note=58 velocity=53 time=0
note_on channel=0 note=43 velocity=31 time=0
note_on channel=0 note=55 velocity=37 time=0
note_on channel=0 note=58 velocity=0 time=120
note_on channel=0 note=70 velocity=49 time=0
note_on channel=0 note=70 velocity=0 time=120
note_on channel=0 note=55 velocity=0 time=0
note_on channel=0 note=43 velocity=0 time=0
note_on channel=0 note=62 velocity=54 time=0
note_on channel=0 note=56 velocity=38 time=0
note_on channel=0 note=44 velocity=32 time=0
control_change channel=0 control=64 value=0 time=7
control_change channel=0 control=64 value=127 time=90
note_on channel=0 note=62 velocity=0 time=23
note_on channel=0 note=71 velocity=50 time=0
<meta message set_tempo tempo=384615 time=120>
note_on channel=0 note=71 velocity=0 time=0
note_on channel=0 note=44 velocity=0 time=0
note_on channel=0 note=56 velocity=0 time=0
note_on channel=0 note=58 velocity=55 time=0
note_on channel=0 note=55 velocity=46 time=0
note_on channel=0 note=43 velocity=38 time=0
note_on channel=0 note=58 velocity=0 time=120
note_on channel=0 note=70 velocity=51 time=0
note_on channel=0 note=70 velocity=0 time=120
note_on channel=0 note=43 velocity=0 time=0
note_on channel=0 note=55 velocity=0 time=0
note_on channel=0 note=63 velocity=60 time=0
note_on channel=0 note=39 velocity=33 time=0
note_on channel=0 note=51 velocity=39 time=0
control_change channel=0 control=64 value=0 time=16
control_change channel=0 control=64 value=127 time=64
note_on channel=0 note=67 velocity=54 time=40
note_on channel=0 note=67 velocity=0 time=120
note_on channel=0 note=63 velocity=0 time=0
note_on channel=0 note=39 velocity=0 time=0
note_on channel=0 note=51 velocity=0 time=0
note_on channel=0 note=64 velocity=63 time=0
note_on channel=0 note=46 velocity=34 time=0
note_on channel=0 note=58 velocity=41 time=0
note_on channel=0 note=73 velocity=53 time=120
<meta message set_tempo tempo=383387 time=120>
note_on channel=0 note=73 velocity=0 time=0
note_on channel=0 note=64 velocity=0 time=0
note_on channel=0 note=46 velocity=0 time=0
note_on channel=0 note=58 velocity=0 time=0
note_on channel=0 note=60 velocity=59 time=0
note_on channel=0 note=45 velocity=39 time=0
note_on channel=0 note=57 velocity=49 time=0
control_change channel=0 control=64 value=0 time=7
control_change channel=0 control=64 value=127 time=62
note_on channel=0 note=60 velocity=0 time=51
note_on channel=0 note=72 velocity=52 time=0
note_on channel=0 note=72 velocity=0 time=120
note_on channel=0 note=57 velocity=0 time=0
note_on channel=0 note=45 velocity=0 time=0
note_on channel=0 note=65 velocity=66 time=0
note_on channel=0 note=41 velocity=36 time=0
note_on channel=0 note=53 velocity=44 time=0
note_on channel=0 note=69 velocity=52 time=120
note_on channel=0 note=69 velocity=0 time=120
note_on channel=0 note=65 velocity=0 time=0
note_on channel=0 note=41 velocity=0 time=0
note_on channel=0 note=53 velocity=0 time=0
note_on channel=0 note=64 velocity=61 time=0
note_on channel=0 note=46 velocity=45 time=0
note_on channel=0 note=58 velocity=45 time=0
control_change channel=0 control=64 value=0 time=14
control_change channel=0 control=64 value=127 time=66
note_on channel=0 note=64 velocity=0 time=40
note_on channel=0 note=73 velocity=55 time=0
<meta message set_tempo tempo=382166 time=120>
note_on channel=0 note=73 velocity=0 time=0
note_on channel=0 note=58 velocity=0 time=0
note_on channel=0 note=46 velocity=0 time=0
note_on channel=0 note=60 velocity=63 time=0
note_on channel=0 note=45 velocity=44 time=0
note_on channel=0 note=57 velocity=53 time=0
note_on channel=0 note=60 velocity=0 time=120
note_on channel=0 note=72 velocity=56 time=0
note_on channel=0 note=72 velocity=0 time=120
note_on channel=0 note=57 velocity=0 time=0
note_on channel=0 note=45 velocity=0 time=0
note_on channel=0 note=65 velocity=70 time=0
note_on channel=0 note=41 velocity=38 time=0
note_on channel=0 note=53 velocity=47 time=0
control_change channel=0 control=64 value=0 time=17
control_change channel=0 control=64 value=127 time=92
note_on channel=0 note=69 velocity=61 time=11
note_on channel=0 note=69 velocity=0 time=120
note_on channel=0 note=65 velocity=0 time=0
note_on channel=0 note=41 velocity=0 time=0
note_on channel=0 note=53 velocity=0 time=0
note_on channel=0 note=66 velocity=68 time=0
note_on channel=0 note=60 velocity=49 time=0
note_on channel=0 note=48 velocity=39 time=0
note_on channel=0 note=75 velocity=61 time=120
<meta message set_tempo tempo=380952 time=80>
note_on channel=0 note=75 velocity=0 time=40
note_on channel=0 note=66 velocity=0 time=0
note_on channel=0 note=60 velocity=0 time=0
note_on channel=0 note=48 velocity=0 time=0
note_on channel=0 note=62 velocity=70 time=0
note_on channel=0 note=59 velocity=59 time=0
note_on channel=0 note=47 velocity=52 time=0
control_change channel=0 control=64 value=0 time=0
control_change channel=0 control=64 value=127 time=57
note_on channel=0 note=62 velocity=0 time=63
note_on channel=0 note=74 velocity=61 time=0
note_on channel=0 note=74 velocity=0 time=120
note_on channel=0 note=47 velocity=0 time=0
note_on channel=0 note=59 velocity=0 time=0
note_on channel=0 note=67 velocity=75 time=0
note_on channel=0 note=43 velocity=43 time=0
note_on channel=0 note=55 velocity=52 time=0
note_on channel=0 note=71 velocity=67 time=120
note_on channel=0 note=71 velocity=0 time=120
note_on channel=0 note=67 velocity=0 time=0
note_on channel=0 note=43 velocity=0 time=0
note_on channel=0 note=55 velocity=0 time=0
note_on channel=0 note=66 velocity=76 time=0
note_on channel=0 note=60 velocity=53 time=0
note_on channel=0 note=48 velocity=43 time=0
control_change channel=0 control=64 value=0 time=29
control_change channel=0 control=64 value=127 time=63
note_on channel=0 note=75 velocity=68 time=28
note_on channel=0 note=75 velocity=0 time=120
note_on channel=0 note=66 velocity=0 time=0
note_on channel=0 note=60 velocity=0 time=0
note_on channel=0 note=48 velocity=0 time=0
note_on channel=0 note=62 velocity=75 time=0
note_on channel=0 note=59 velocity=63 time=0
note_on channel=0 note=47 velocity=54 time=0
note_on channel=0 note=62 velocity=0 time=120
note_on channel=0 note=74 velocity=68 time=0
note_on channel=0 note=74 velocity=0 time=120
note_on channel=0 note=47 velocity=0 time=0
note_on channel=0 note=59 velocity=0 time=0
note_on channel=0 note=67 velocity=80 time=0
note_on channel=0 note=55 velocity=55 time=0
note_on channel=0 note=43 velocity=46 time=0
control_change channel=0 control=64 value=0 time=17
control_change channel=0 control=64 value=127 time=46
note_on channel=0 note=70 velocity=69 time=57
note_on channel=0 note=70 velocity=0 time=120
note_on channel=0 note=67 velocity=0 time=0
note_on channel=0 note=55 velocity=0 time=0
note_on channel=0 note=43 velocity=0 time=0
note_on channel=0 note=68 velocity=80 time=0
note_on channel=0 note=62 velocity=55 time=0
note_on channel=0 note=50 velocity=47 time=0
note_on channel=0 note=77 velocity=71 time=120
<meta message set_tempo tempo=382166 time=40>
<meta message set_tempo tempo=379747 time=80>
note_on channel=0 note=77 velocity=0 time=0
note_on channel=0 note=68 velocity=0 time=0
note_on channel=0 note=62 velocity=0 time=0
note_on channel=0 note=50 velocity=0 time=0
note_on channel=0 note=64 velocity=80 time=0
note_on channel=0 note=49 velocity=56 time=0
note_on channel=0 note=61 velocity=68 time=0
control_change channel=0 control=64 value=0 time=10
control_change channel=0 control=64 value=127 time=36
<meta message set_tempo tempo=380952 time=74>
note_on channel=0 note=64 velocity=0 time=0
note_on channel=0 note=76 velocity=75 time=0
<meta message set_tempo tempo=382166 time=80>
note_on channel=0 note=76 velocity=0 time=40
note_on channel=0 note=61 velocity=0 time=0
note_on channel=0 note=49 velocity=0 time=0
note_on channel=0 note=69 velocity=86 time=0
note_on channel=0 note=45 velocity=48 time=0
note_on channel=0 note=57 velocity=57 time=0
<meta message set_tempo tempo=383387 time=40>
note_on channel=0 note=73 velocity=73 time=80
<meta message set_tempo tempo=384615 time=40>
<meta message set_tempo tempo=385852 time=80>
note_on channel=0 note=73 velocity=0 time=0
note_on channel=0 note=69 velocity=0 time=0
note_on channel=0 note=45 velocity=0 time=0
note_on channel=0 note=57 velocity=0 time=0
note_on channel=0 note=70 velocity=89 time=0
note_on channel=0 note=52 velocity=62 time=0
note_on channel=0 note=64 velocity=75 time=0
control_change channel=0 control=64 value=0 time=11
control_change channel=0 control=64 value=127 time=46
<meta message set_tempo tempo=387097 time=23>
note_on channel=0 note=79 velocity=76 time=40
<meta message set_tempo tempo=388350 time=80>
note_on channel=0 note=79 velocity=0 time=40
note_on channel=0 note=70 velocity=0 time=0
note_on channel=0 note=52 velocity=0 time=0
note_on channel=0 note=64 velocity=0 time=0
note_on channel=0 note=66 velocity=89 time=0
note_on channel=0 note=51 velocity=50 time=0
note_on channel=0 note=63 velocity=59 time=0
<meta message set_tempo tempo=389610 time=40>
<meta message set_tempo tempo=390879 time=80>
note_on channel=0 note=66 velocity=0 time=0
note_on channel=0 note=78 velocity=79 time=0
<meta message set_tempo tempo=392157 time=80>
<meta message set_tempo tempo=392157 time=40>
note_on channel=0 note=78 velocity=0 time=0
note_on channel=0 note=63 velocity=0 time=0
note_on channel=0 note=51 velocity=0 time=0
note_on channel=0 note=71 velocity=91 time=0
note_on channel=0 note=47 velocity=60 time=0
note_on channel=0 note=59 velocity=74 time=0
control_change channel=0 control=64 value=0 time=17
<meta message set_tempo tempo=393443 time=3>
<meta message set_tempo tempo=396040 time=20>
<meta message set_tempo tempo=398671 time=20>
control_change channel=0 control=64 value=127 time=14
<meta message set_tempo tempo=401338 time=6>
<meta message set_tempo tempo=404040 time=20>
<meta message set_tempo tempo=405405 time=20>
note_on channel=0 note=75 velocity=82 time=0
<meta message set_tempo tempo=408163 time=20>
<meta message set_tempo tempo=410959 time=20>
<meta message set_tempo tempo=413793 time=20>
<meta message set_tempo tempo=416667 time=20>
<meta message set_tempo tempo=419580 time=20>
<meta message set_tempo tempo=421053 time=20>
note_on channel=0 note=75 velocity=0 time=0
note_on channel=0 note=71 velocity=0 time=0
note_on channel=0 note=47 velocity=0 time=0
note_on channel=0 note=59 velocity=0 time=0
note_on channel=0 note=72 velocity=93 time=0
note_on channel=0 note=50 velocity=53 time=0
note_on channel=0 note=62 velocity=62 time=0
<meta message set_tempo tempo=424028 time=20>
<meta message set_tempo tempo=427046 time=20>
<meta message set_tempo tempo=430108 time=20>
<meta message set_tempo tempo=433213 time=20>
<meta message set_tempo tempo=436364 time=20>
<meta message set_tempo tempo=437956 time=20>
note_on channel=0 note=81 velocity=85 time=0
<meta message set_tempo tempo=441176 time=20>
<meta message set_tempo tempo=444444 time=20>
<meta message set_tempo tempo=447761 time=20>
<meta message set_tempo tempo=451128 time=20>
<meta message set_tempo tempo=454545 time=20>
<meta message set_tempo tempo=542986 time=20>
note_on channel=0 note=62 velocity=0 time=0
note_on channel=0 note=72 velocity=0 time=0
note_on channel=0 note=50 velocity=0 time=0
note_on channel=0 note=73 velocity=82 time=0
note_on channel=0 note=85 velocity=98 time=0
note_on channel=0 note=78 velocity=82 time=0
note_on channel=0 note=37 velocity=61 time=0
control_change channel=0 control=64 value=0 time=0
note_on channel=0 note=49 velocity=73 time=0
<meta message set_tempo tempo=396013 time=240>
note_on channel=0 note=49 velocity=0 time=0
note_on channel=0 note=73 velocity=0 time=0
note_on channel=0 note=85 velocity=0 time=0
note_on channel=0 note=81 velocity=0 time=0
note_on channel=0 note=37 velocity=0 time=0
note_on channel=0 note=78 velocity=0 time=0
note_on channel=0 note=72 velocity=64 time=0
control_change channel=0 control=64 value=127 time=0
note_on channel=0 note=72 velocity=0 time=120
note_on channel=0 note=73 velocity=64 time=0
note_on channel=0 note=61 velocity=44 time=0
note_on channel=0 note=57 velocity=44 time=0
note_on channel=0 note=69 velocity=53 time=0
note_on channel=0 note=66 velocity=53 time=0
<meta message set_tempo tempo=394633 time=40>
note_on channel=0 note=66 velocity=0 time=80
note_on channel=0 note=57 velocity=0 time=0
note_on channel=0 note=73 velocity=0 time=0
note_on channel=0 note=61 velocity=0 time=0
note_on channel=0 note=69 velocity=0 time=0
note_on channel=0 note=75 velocity=65 time=0
note_on channel=0 note=69 velocity=55 time=0
note_on channel=0 note=66 velocity=55 time=0
note_on channel=0 note=61 velocity=46 time=0
note_on channel=0 note=57 velocity=46 time=0
<meta message set_tempo tempo=393236 time=60>
note_on channel=0 note=75 velocity=0 time=60
note_on channel=0 note=77 velocity=66 time=0
<meta message set_tempo tempo=391875 time=100>
note_on channel=0 note=77 velocity=0 time=20
note_on channel=0 note=57 velocity=0 time=0
note_on channel=0 note=69 velocity=0 time=0
note_on channel=0 note=66 velocity=0 time=0
note_on channel=0 note=61 velocity=0 time=0
note_on channel=0 note=78 velocity=67 time=0
note_on channel=0 note=66 velocity=56 time=0
note_on channel=0 note=69 velocity=56 time=0
note_on channel=0 note=57 velocity=47 time=0
note_on channel=0 note=61 velocity=47 time=0
<meta message set_tempo tempo=390523 time=120>
note_on channel=0 note=78 velocity=0 time=0
note_on channel=0 note=80 velocity=67 time=0
note_on channel=0 note=80 velocity=0 time=120
note_on channel=0 note=61 velocity=0 time=0
note_on channel=0 note=66 velocity=0 time=0
note_on channel=0 note=69 velocity=0 time=0
note_on channel=0 note=57 velocity=0 time=0
note_on channel=0 note=81 velocity=68 time=0
note_on channel=0 note=69 velocity=58 time=0
note_on channel=0 note=61 velocity=49 time=0
note_on channel=0 note=57 velocity=49 time=0
note_on channel=0 note=66 velocity=58 time=0
<meta message set_tempo tempo=389156 time=20>
note_on channel=0 note=81 velocity=0 time=100
note_on channel=0 note=83 velocity=69 time=0
<meta message set_tempo tempo=387822 time=60>
note_on channel=0 note=83 velocity=0 time=60
note_on channel=0 note=66 velocity=0 time=0
note_on channel=0 note=69 velocity=0 time=0
note_on channel=0 note=61 velocity=0 time=0
note_on channel=0 note=57 velocity=0 time=0
note_on channel=0 note=85 velocity=70 time=0
note_on channel=0 note=57 velocity=50 time=0
note_on channel=0 note=66 velocity=59 time=0
note_on channel=0 note=69 velocity=59 time=0
note_on channel=0 note=61 velocity=50 time=0
<meta message set_tempo tempo=386498 time=80>
note_on channel=0 note=85 velocity=0 time=40
note_on channel=0 note=87 velocity=71 time=0
<meta message set_tempo tempo=385159 time=120>
note_on channel=0 note=87 velocity=0 time=0
note_on channel=0 note=61 velocity=0 time=0
note_on channel=0 note=57 velocity=0 time=0
note_on channel=0 note=66 velocity=0 time=0
note_on channel=0 note=69 velocity=0 time=0
note_on channel=0 note=89 velocity=71 time=0
note_on channel=0 note=57 velocity=60 time=0
note_on channel=0 note=69 velocity=72 time=0
note_on channel=0 note=61 velocity=60 time=0
note_on channel=0 note=66 velocity=72 time=0
note_on channel=0 note=89 velocity=0 time=120
note_on channel=0 note=90 velocity=72 time=0
<meta message set_tempo tempo=383853 time=20>
note_on channel=0 note=90 velocity=0 time=100
note_on channel=0 note=92 velocity=73 time=0
<meta message set_tempo tempo=382555 time=40>
note_on channel=0 note=92 velocity=0 time=80
note_on channel=0 note=93 velocity=74 time=0
<meta message set_tempo tempo=381243 time=80>
note_on channel=0 note=93 velocity=0 time=40
note_on channel=0 note=90 velocity=75 time=0
<meta message set_tempo tempo=379963 time=100>
note_on channel=0 note=90 velocity=0 time=20
note_on channel=0 note=85 velocity=75 time=0
<meta message set_tempo tempo=377406 time=60>
note_on channel=0 note=85 velocity=0 time=60
note_on channel=0 note=66 velocity=0 time=0
note_on channel=0 note=57 velocity=0 time=0
note_on channel=0 note=69 velocity=0 time=0
note_on channel=0 note=61 velocity=0 time=0
note_on channel=0 note=81 velocity=76 time=0
<meta message set_tempo tempo=378692 time=20>
<meta message set_tempo tempo=379963 time=60>
note_on channel=0 note=81 velocity=0 time=40
note_on channel=0 note=78 velocity=76 time=0
<meta message set_tempo tempo=381243 time=20>
<meta message set_tempo tempo=382555 time=60>
note_on channel=0 note=78 velocity=0 time=40
note_on channel=0 note=73 velocity=74 time=0
<meta message set_tempo tempo=383853 time=40>
<meta message set_tempo tempo=385159 time=60>
note_on channel=0 note=73 velocity=0 time=20
note_on channel=0 note=69 velocity=72 time=0
<meta message set_tempo tempo=386498 time=40>
<meta message set_tempo tempo=387822 time=60>
<meta message set_tempo tempo=411975 time=20>
note_on channel=0 note=69 velocity=0 time=0
note_on channel=0 note=66 velocity=71 time=0
note_on channel=0 note=37 velocity=58 time=0
note_on channel=0 note=49 velocity=69 time=0
note_on channel=0 note=66 velocity=0 time=120
note_on channel=0 note=61 velocity=69 time=0
<meta message set_tempo tempo=403117 time=120>
note_on channel=0 note=61 velocity=0 time=0
note_on channel=0 note=49 velocity=0 time=0
note_on channel=0 note=37 velocity=0 time=0
note_on channel=0 note=57 velocity=66 time=0
note_on channel=0 note=48 velocity=86 time=0
note_on channel=0 note=36 velocity=73 time=0
control_change channel=0 control=64 value=0 time=12
<meta message set_tempo tempo=394633 time=8>
control_change channel=0 control=64 value=127 time=43
note_on channel=0 note=57 velocity=0 time=57
note_on channel=0 note=66 velocity=67 time=0
<meta message set_tempo tempo=393236 time=20>
<meta message set_tempo tempo=391875 time=100>
note_on channel=0 note=66 velocity=0 time=0
note_on channel=0 note=36 velocity=0 time=0
note_on channel=0 note=48 velocity=0 time=0
note_on channel=0 note=63 velocity=68 time=0
<meta message set_tempo tempo=390523 time=100>
note_on channel=0 note=63 velocity=0 time=20
note_on channel=0 note=69 velocity=69 time=0
note_on channel=0 note=54 velocity=45 time=0
note_on channel=0 note=63 velocity=53 time=0
note_on channel=0 note=57 velocity=45 time=0
<meta message set_tempo tempo=389156 time=100>
note_on channel=0 note=69 velocity=0 time=10
note_on channel=0 note=54 velocity=0 time=10
note_on channel=0 note=63 velocity=0 time=0
note_on channel=0 note=57 velocity=0 time=0
note_on channel=0 note=69 velocity=70 time=0
note_on channel=0 note=63 velocity=55 time=0
note_on channel=0 note=54 velocity=47 time=0
note_on channel=0 note=57 velocity=47 time=0
<meta message set_tempo tempo=387822 time=80>
note_on channel=0 note=69 velocity=0 time=40
note_on channel=0 note=78 velocity=72 time=0
<meta message set_tempo tempo=386498 time=60>
note_on channel=0 note=78 velocity=0 time=60
note_on channel=0 note=57 velocity=0 time=0
note_on channel=0 note=54 velocity=0 time=0
note_on channel=0 note=63 velocity=0 time=0
note_on channel=0 note=75 velocity=73 time=0
note_on channel=0 note=54 velocity=54 time=0
note_on channel=0 note=57 velocity=54 time=0
note_on channel=0 note=63 velocity=65 time=0
<meta message set_tempo tempo=385159 time=40>
note_on channel=0 note=75 velocity=0 time=80
note_on channel=0 note=81 velocity=74 time=0
<meta message set_tempo tempo=383853 time=40>
note_on channel=0 note=81 velocity=0 time=70
note_on channel=0 note=63 velocity=0 time=10
note_on channel=0 note=57 velocity=0 time=0
note_on channel=0 note=54 velocity=0 time=0
note_on channel=0 note=81 velocity=75 time=0
<meta message set_tempo tempo=382555 time=20>
<meta message set_tempo tempo=381243 time=100>
note_on channel=0 note=81 velocity=0 time=0
note_on channel=0 note=90 velocity=76 time=0
<meta message set_tempo tempo=379963 time=100>
<meta message set_tempo tempo=398830 time=20>
note_on channel=0 note=90 velocity=0 time=0
note_on channel=0 note=87 velocity=77 time=0
note_on channel=0 note=36 velocity=60 time=0
note_on channel=0 note=48 velocity=72 time=0
note_on channel=0 note=87 velocity=0 time=120
note_on channel=0 note=93 velocity=79 time=0
<meta message set_tempo tempo=378692 time=100>
note_on channel=0 note=93 velocity=0 time=20
note_on channel=0 note=48 velocity=0 time=0
note_on channel=0 note=36 velocity=0 time=0
note_on channel=0 note=90 velocity=80 time=0
note_on channel=0 note=35 velocity=74 time=0
note_on channel=0 note=47 velocity=88 time=0
control_change channel=0 control=64 value=0 time=11
control_change channel=0 control=64 value=127 time=44
note_on channel=0 note=90 velocity=0 time=65
note_on channel=0 note=93 velocity=78 time=0
<meta message set_tempo tempo=379963 time=20>
note_on channel=0 note=93 velocity=0 time=100
note_on channel=0 note=47 velocity=0 time=0
note_on channel=0 note=35 velocity=0 time=0
note_on channel=0 note=87 velocity=77 time=0
<meta message set_tempo tempo=381243 time=40>
note_on channel=0 note=87 velocity=0 time=80
note_on channel=0 note=81 velocity=76 time=0
note_on channel=0 note=63 velocity=59 time=0
note_on channel=0 note=54 velocity=50 time=0
note_on channel=0 note=57 velocity=50 time=0
<meta message set_tempo tempo=382555 time=80>
note_on channel=0 note=57 velocity=0 time=40
note_on channel=0 note=81 velocity=0 time=0
note_on channel=0 note=63 velocity=0 time=0
note_on channel=0 note=54 velocity=0 time=0
note_on channel=0 note=78 velocity=75 time=0
note_on channel=0 note=63 velocity=58 time=0
note_on channel=0 note=54 velocity=49 time=0
note_on channel=0 note=57 velocity=49 time=0
<meta message set_tempo tempo=383853 time=100>
note_on channel=0 note=78 velocity=0 time=20
note_on channel=0 note=81 velocity=75 time=0
note_on channel=0 note=81 velocity=0 time=120
note_on channel=0 note=57 velocity=0 time=0
note_on channel=0 note=54 velocity=0 time=0
note_on channel=0 note=63 velocity=0 time=0
note_on channel=0 note=75 velocity=74 time=0
note_on channel=0 note=57 velocity=48 time=0
note_on channel=0 note=54 velocity=48 time=0
note_on channel=0 note=63 velocity=57 time=0
<meta message set_tempo tempo=385159 time=20>
note_on channel=0 note=75 velocity=0 time=100
note_on channel=0 note=69 velocity=73 time=0
<meta message set_tempo tempo=386498 time=40>
note_on channel=0 note=69 velocity=0 time=80
note_on channel=0 note=63 velocity=0 time=0
note_on channel=0 note=54 velocity=0 time=0
note_on channel=0 note=57 velocity=0 time=0
note_on channel=0 note=66 velocity=72 time=0
<meta message set_tempo tempo=387822 time=80>
note_on channel=0 note=66 velocity=0 time=40
note_on channel=0 note=69 velocity=72 time=0
<meta message set_tempo tempo=389156 time=100>
<meta message set_tempo tempo=411975 time=20>
note_on channel=0 note=69 velocity=0 time=0
note_on channel=0 note=63 velocity=71 time=0
note_on channel=0 note=47 velocity=72 time=0
note_on channel=0 note=35 velocity=60 time=0
<meta message set_tempo tempo=529381 time=120>
note_on channel=0 note=63 velocity=0 time=0
note_on channel=0 note=57 velocity=70 time=0
<meta message set_tempo tempo=378692 time=120>
note_on channel=0 note=57 velocity=0 time=0
note_on channel=0 note=35 velocity=0 time=0
note_on channel=0 note=47 velocity=0 time=0
note_on channel=0 note=70 velocity=71 time=0
note_on channel=0 note=58 velocity=71 time=0
note_on channel=0 note=67 velocity=71 time=0
note_on channel=0 note=63 velocity=71 time=0
note_on channel=0 note=46 velocity=88 time=0
note_on channel=0 note=34 velocity=74 time=0
control_change channel=0 control=64 value=0 time=9
control_change channel=0 control=64 value=127 time=71
control_change channel=0 control=64 value=0 time=143
note_on channel=0 note=34 velocity=0 time=17
note_on channel=0 note=58 velocity=0 time=0
note_on channel=0 note=67 velocity=0 time=0
note_on channel=0 note=70 velocity=0 time=0
note_on channel=0 note=46 velocity=0 time=0
note_on channel=0 note=63 velocity=0 time=0
note_on channel=0 note=57 velocity=46 time=0
note_on channel=0 note=58 velocity=46 time=120
note_on channel=0 note=57 velocity=0 time=10
note_on channel=0 note=60 velocity=47 time=110
note_on channel=0 note=58 velocity=0 time=10
note_on channel=0 note=62 velocity=47 time=110
note_on channel=0 note=60 velocity=0 time=10
note_on channel=0 note=63 velocity=48 time=110
note_on channel=0 note=62 velocity=0 time=10
note_on channel=0 note=64 velocity=49 time=110
note_on channel=0 note=63 velocity=0 time=10
<meta message set_tempo tempo=385159 time=110>
note_on channel=0 note=67 velocity=49 time=0
note_on channel=0 note=63 velocity=44 time=0
note_on channel=0 note=57 velocity=44 time=0
note_on channel=0 note=60 velocity=44 time=0
note_on channel=0 note=64 velocity=0 time=10
note_on channel=0 note=65 velocity=50 time=110
note_on channel=0 note=67 velocity=0 time=10
note_on channel=0 note=60 velocity=0 time=110
note_on channel=0 note=57 velocity=0 time=0
note_on channel=0 note=63 velocity=0 time=0
note_on channel=0 note=67 velocity=50 time=0
note_on channel=0 note=58 velocity=43 time=0
note_on channel=0 note=62 velocity=43 time=0
note_on channel=0 note=56 velocity=43 time=0
note_on channel=0 note=65 velocity=0 time=10
note_on channel=0 note=65 velocity=51 time=110
note_on channel=0 note=67 velocity=0 time=10
<meta message set_tempo tempo=378692 time=110>
note_on channel=0 note=56 velocity=0 time=0
note_on channel=0 note=62 velocity=0 time=0
note_on channel=0 note=58 velocity=0 time=0
note_on channel=0 note=72 velocity=52 time=0
note_on channel=0 note=58 velocity=47 time=0
note_on channel=0 note=55 velocity=47 time=0
note_on channel=0 note=63 velocity=47 time=0
note_on channel=0 note=65 velocity=0 time=10
note_on channel=0 note=70 velocity=52 time=110
note_on channel=0 note=72 velocity=0 time=10
note_on channel=0 note=63 velocity=0 time=110
note_on channel=0 note=55 velocity=0 time=0
note_on channel=0 note=58 velocity=0 time=0
note_on channel=0 note=69 velocity=53 time=0
note_on channel=0 note=70 velocity=0 time=10
note_on channel=0 note=70 velocity=53 time=110
note_on channel=0 note=69 velocity=0 time=10
note_on channel=0 note=72 velocity=54 time=110
note_on channel=0 note=70 velocity=0 time=10
note_on channel=0 note=74 velocity=54 time=110
note_on channel=0 note=72 velocity=0 time=10
note_on channel=0 note=75 velocity=55 time=110
note_on channel=0 note=74 velocity=0 time=10
note_on channel=0 note=76 velocity=56 time=110
note_on channel=0 note=75 velocity=0 time=10
<meta message set_tempo tempo=386498 time=110>
note_on channel=0 note=79 velocity=56 time=0
note_on channel=0 note=69 velocity=46 time=0
note_on channel=0 note=72 velocity=46 time=0
note_on channel=0 note=75 velocity=46 time=0
note_on channel=0 note=76 velocity=0 time=10
note_on channel=0 note=77 velocity=57 time=110
note_on channel=0 note=79 velocity=0 time=10
note_on channel=0 note=75 velocity=0 time=110
note_on channel=0 note=72 velocity=0 time=0
note_on channel=0 note=69 velocity=0 time=0
note_on channel=0 note=79 velocity=57 time=0
note_on channel=0 note=70 velocity=46 time=0
note_on channel=0 note=74 velocity=46 time=0
note_on channel=0 note=68 velocity=46 time=0
note_on channel=0 note=77 velocity=0 time=10
note_on channel=0 note=77 velocity=58 time=110
note_on channel=0 note=79 velocity=0 time=10
<meta message set_tempo tempo=377406 time=110>
note_on channel=0 note=68 velocity=0 time=0
note_on channel=0 note=74 velocity=0 time=0
note_on channel=0 note=70 velocity=0 time=0
note_on channel=0 note=84 velocity=59 time=0
note_on channel=0 note=67 velocity=46 time=0
note_on channel=0 note=75 velocity=46 time=0
note_on channel=0 note=70 velocity=46 time=0
note_on channel=0 note=77 velocity=0 time=10
note_on channel=0 note=82 velocity=59 time=110
note_on channel=0 note=84 velocity=0 time=10
note_on channel=0 note=70 velocity=0 time=110
note_on channel=0 note=75 velocity=0 time=0
note_on channel=0 note=67 velocity=0 time=0
note_on channel=0 note=81 velocity=60 time=0
note_on channel=0 note=82 velocity=0 time=10
note_on channel=0 note=82 velocity=60 time=110
note_on channel=0 note=81 velocity=0 time=10
note_on channel=0 note=84 velocity=61 time=110
note_on channel=0 note=82 velocity=0 time=10
note_on channel=0 note=86 velocity=61 time=110
note_on channel=0 note=84 velocity=0 time=10
note_on channel=0 note=87 velocity=62 time=110
note_on channel=0 note=86 velocity=0 time=10
note_on channel=0 note=88 velocity=63 time=110
note_on channel=0 note=87 velocity=0 time=10
<meta message set_tempo tempo=383853 time=110>
note_on channel=0 note=91 velocity=63 time=0
note_on channel=0 note=87 velocity=56 time=0
note_on channel=0 note=81 velocity=56 time=0
note_on channel=0 note=84 velocity=56 time=0
note_on channel=0 note=88 velocity=0 time=10
note_on channel=0 note=89 velocity=64 time=110
note_on channel=0 note=91 velocity=0 time=10
note_on channel=0 note=84 velocity=0 time=110
note_on channel=0 note=81 velocity=0 time=0
note_on channel=0 note=87 velocity=0 time=0
note_on channel=0 note=91 velocity=64 time=0
note_on channel=0 note=82 velocity=56 time=0
note_on channel=0 note=80 velocity=56 time=0
note_on channel=0 note=86 velocity=56 time=0
note_on channel=0 note=89 velocity=0 time=10
note_on channel=0 note=89 velocity=65 time=110
note_on channel=0 note=91 velocity=0 time=10
<meta message set_tempo tempo=377406 time=110>
note_on channel=0 note=86 velocity=0 time=0
note_on channel=0 note=80 velocity=0 time=0
note_on channel=0 note=82 velocity=0 time=0
note_on channel=0 note=94 velocity=66 time=0
note_on channel=0 note=82 velocity=57 time=0
note_on channel=0 note=79 velocity=57 time=0
note_on channel=0 note=87 velocity=57 time=0
note_on channel=0 note=89 velocity=0 time=10
note_on channel=0 note=79 velocity=0 time=230
note_on channel=0 note=94 velocity=0 time=0
note_on channel=0 note=82 velocity=0 time=0
note_on channel=0 note=87 velocity=0 time=0
note_on channel=0 note=81 velocity=64 time=0
note_on channel=0 note=82 velocity=65 time=120
note_on channel=0 note=81 velocity=0 time=10
note_on channel=0 note=84 velocity=65 time=110
note_on channel=0 note=82 velocity=0 time=10
note_on channel=0 note=86 velocity=66 time=110
note_on channel=0 note=84 velocity=0 time=10
note_on channel=0 note=87 velocity=67 time=110
note_on channel=0 note=86 velocity=0 time=10
note_on channel=0 note=88 velocity=68 time=110
note_on channel=0 note=87 velocity=0 time=10
<meta message set_tempo tempo=393236 time=110>
note_on channel=0 note=91 velocity=71 time=0
note_on channel=0 note=81 velocity=58 time=0
note_on channel=0 note=84 velocity=58 time=0
note_on channel=0 note=87 velocity=58 time=0
note_on channel=0 note=88 velocity=0 time=10
<meta message set_tempo tempo=383853 time=30>
note_on channel=0 note=89 velocity=68 time=80
note_on channel=0 note=91 velocity=0 time=10
<meta message set_tempo tempo=393236 time=110>
note_on channel=0 note=87 velocity=0 time=0
note_on channel=0 note=84 velocity=0 time=0
note_on channel=0 note=81 velocity=0 time=0
note_on channel=0 note=91 velocity=71 time=0
note_on channel=0 note=82 velocity=58 time=0
note_on channel=0 note=80 velocity=58 time=0
note_on channel=0 note=86 velocity=58 time=0
note_on channel=0 note=89 velocity=0 time=10
note_on channel=0 note=89 velocity=68 time=110
note_on channel=0 note=91 velocity=0 time=10
<meta message set_tempo tempo=385159 time=110>
note_on channel=0 note=86 velocity=0 time=0
note_on channel=0 note=80 velocity=0 time=0
note_on channel=0 note=82 velocity=0 time=0
note_on channel=0 note=94 velocity=68 time=0
note_on channel=0 note=82 velocity=59 time=0
note_on channel=0 note=87 velocity=59 time=0
note_on channel=0 note=79 velocity=59 time=0
note_on channel=0 note=89 velocity=0 time=10
note_on channel=0 note=94 velocity=0 time=110
note_on channel=0 note=87 velocity=0 time=120
note_on channel=0 note=82 velocity=0 time=0
note_on channel=0 note=79 velocity=0 time=0
note_on channel=0 note=89 velocity=77 time=420
<meta message set_tempo tempo=369959 time=40>
note_on channel=0 note=89 velocity=0 time=20
note_on channel=0 note=101 velocity=89 time=0
note_on channel=0 note=69 velocity=72 time=0
note_on channel=0 note=60 velocity=72 time=0
note_on channel=0 note=63 velocity=72 time=0
note_on channel=0 note=65 velocity=72 time=0
control_change channel=0 control=64 value=127 time=42
note_on channel=0 note=101 velocity=0 time=78
note_on channel=0 note=100 velocity=84 time=0
<meta message set_tempo tempo=371172 time=80>
note_on channel=0 note=100 velocity=0 time=40
note_on channel=0 note=65 velocity=0 time=0
note_on channel=0 note=69 velocity=0 time=0
note_on channel=0 note=60 velocity=0 time=0
note_on channel=0 note=63 velocity=0 time=0
note_on channel=0 note=99 velocity=83 time=0
note_on channel=0 note=99 velocity=0 time=120
note_on channel=0 note=98 velocity=82 time=0
<meta message set_tempo tempo=372416 time=60>
note_on channel=0 note=98 velocity=0 time=60
note_on channel=0 note=96 velocity=81 time=0
note_on channel=0 note=96 velocity=0 time=120
note_on channel=0 note=94 velocity=79 time=0
<meta message set_tempo tempo=373646 time=40>
note_on channel=0 note=94 velocity=0 time=80
note_on channel=0 note=93 velocity=78 time=0
note_on channel=0 note=93 velocity=0 time=120
note_on channel=0 note=91 velocity=77 time=0
<meta message set_tempo tempo=374883 time=20>
note_on channel=0 note=91 velocity=0 time=100
note_on channel=0 note=89 velocity=76 time=0
<meta message set_tempo tempo=376152 time=100>
note_on channel=0 note=89 velocity=0 time=20
note_on channel=0 note=88 velocity=75 time=0
note_on channel=0 note=88 velocity=0 time=120
note_on channel=0 note=87 velocity=74 time=0
<meta message set_tempo tempo=377406 time=80>
note_on channel=0 note=87 velocity=0 time=40
note_on channel=0 note=86 velocity=73 time=0
note_on channel=0 note=86 velocity=0 time=120
note_on channel=0 note=84 velocity=72 time=0
control_change channel=0 control=64 value=0 time=14
<meta message set_tempo tempo=378692 time=46>
control_change channel=0 control=64 value=127 time=3
note_on channel=0 note=84 velocity=0 time=57
note_on channel=0 note=82 velocity=71 time=0
note_on channel=0 note=82 velocity=0 time=120
note_on channel=0 note=81 velocity=70 time=0
<meta message set_tempo tempo=379963 time=40>
note_on channel=0 note=81 velocity=0 time=80
note_on channel=0 note=79 velocity=69 time=0
note_on channel=0 note=79 velocity=0 time=120
note_on channel=0 note=77 velocity=68 time=0
<meta message set_tempo tempo=381243 time=20>
note_on channel=0 note=77 velocity=0 time=100
note_on channel=0 note=76 velocity=67 time=0
note_on channel=0 note=47 velocity=69 time=30
note_on channel=0 note=51 velocity=73 time=30
note_on channel=0 note=56 velocity=77 time=30
<meta message set_tempo tempo=382555 time=10>
<meta message set_tempo tempo=379963 time=20>
note_on channel=0 note=76 velocity=0 time=0
note_on channel=0 note=75 velocity=66 time=0
note_on channel=0 note=63 velocity=80 time=0
control_change channel=0 control=64 value=0 time=13
control_change channel=0 control=64 value=127 time=72
note_on channel=0 note=75 velocity=0 time=35
note_on channel=0 note=73 velocity=65 time=0
<meta message set_tempo tempo=378692 time=40>
note_on channel=0 note=73 velocity=0 time=80
note_on channel=0 note=63 velocity=0 time=0
note_on channel=0 note=56 velocity=0 time=0
note_on channel=0 note=51 velocity=0 time=0
note_on channel=0 note=47 velocity=0 time=0
note_on channel=0 note=71 velocity=64 time=0
<meta message set_tempo tempo=377406 time=60>
note_on channel=0 note=71 velocity=0 time=60
note_on channel=0 note=70 velocity=63 time=0
<meta message set_tempo tempo=376152 time=100>
note_on channel=0 note=70 velocity=0 time=20
note_on channel=0 note=68 velocity=62 time=0
<meta message set_tempo tempo=374883 time=120>
note_on channel=0 note=68 velocity=0 time=0
note_on channel=0 note=66 velocity=61 time=0
note_on channel=0 note=66 velocity=0 time=120
note_on channel=0 note=65 velocity=60 time=0
control_change channel=0 control=64 value=0 time=18
<meta message set_tempo tempo=373646 time=2>
control_change channel=0 control=64 value=127 time=33
note_on channel=0 note=65 velocity=0 time=67
note_on channel=0 note=63 velocity=59 time=0
note_on channel=0 note=63 velocity=0 time=120
note_on channel=0 note=61 velocity=58 time=0
note_on channel=0 note=61 velocity=0 time=120
note_on channel=0 note=59 velocity=57 time=0
note_on channel=0 note=59 velocity=0 time=120
note_on channel=0 note=58 velocity=56 time=0
note_on channel=0 note=58 velocity=0 time=120
note_on channel=0 note=56 velocity=55 time=0
<meta message set_tempo tempo=374883 time=100>
<meta message set_tempo tempo=372416 time=20>
note_on channel=0 note=56 velocity=0 time=0
note_on channel=0 note=54 velocity=57 time=0
note_on channel=0 note=35 velocity=91 time=0
control_change channel=0 control=64 value=0 time=6
<meta message set_tempo tempo=373646 time=34>
<meta message set_tempo tempo=376152 time=40>
control_change channel=0 control=64 value=127 time=6
<meta message set_tempo tempo=377406 time=34>
note_on channel=0 note=54 velocity=0 time=0
note_on channel=0 note=53 velocity=59 time=0
<meta message set_tempo tempo=379963 time=40>
<meta message set_tempo tempo=381243 time=40>
<meta message set_tempo tempo=383853 time=40>
note_on channel=0 note=53 velocity=0 time=0
note_on channel=0 note=35 velocity=0 time=0
note_on channel=0 note=51 velocity=62 time=0
<meta message set_tempo tempo=385159 time=40>
<meta message set_tempo tempo=387822 time=40>
<meta message set_tempo tempo=390523 time=40>
note_on channel=0 note=51 velocity=0 time=0
note_on channel=0 note=49 velocity=64 time=0
<meta message set_tempo tempo=391875 time=40>
<meta message set_tempo tempo=394633 time=40>
<meta message set_tempo tempo=396013 time=40>
note_on channel=0 note=49 velocity=0 time=0
note_on channel=0 note=47 velocity=66 time=0
<meta message set_tempo tempo=398830 time=40>
<meta message set_tempo tempo=400240 time=40>
<meta message set_tempo tempo=403117 time=40>
note_on channel=0 note=47 velocity=0 time=0
note_on channel=0 note=46 velocity=68 time=0
<meta message set_tempo tempo=404558 time=40>
<meta message set_tempo tempo=407498 time=40>
<meta message set_tempo tempo=410481 time=40>
note_on channel=0 note=46 velocity=0 time=0
note_on channel=0 note=44 velocity=70 time=0
<meta message set_tempo tempo=411975 time=40>
<meta message set_tempo tempo=415024 time=40>
<meta message set_tempo tempo=416551 time=40>
note_on channel=0 note=44 velocity=0 time=0
note_on channel=0 note=42 velocity=72 time=0
<meta message set_tempo tempo=419668 time=40>
<meta message set_tempo tempo=421230 time=40>
<meta message set_tempo tempo=424418 time=40>
note_on channel=0 note=42 velocity=0 time=0
note_on channel=0 note=41 velocity=75 time=0
<meta message set_tempo tempo=426015 time=40>
<meta message set_tempo tempo=429277 time=40>
<meta message set_tempo tempo=432557 time=40>
note_on channel=0 note=41 velocity=0 time=0
note_on channel=0 note=39 velocity=77 time=0
<meta message set_tempo tempo=434248 time=40>
<meta message set_tempo tempo=437637 time=40>
<meta message set_tempo tempo=439335 time=40>
note_on channel=0 note=39 velocity=0 time=0
note_on channel=0 note=37 velocity=79 time=0
<meta message set_tempo tempo=442804 time=40>
<meta message set_tempo tempo=444543 time=40>
<meta message set_tempo tempo=448096 time=40>
note_on channel=0 note=37 velocity=0 time=0
note_on channel=0 note=35 velocity=81 time=0
<meta message set_tempo tempo=451671 time=40>
<meta message set_tempo tempo=391875 time=40>
<meta message time_signature numerator=6 denominator=4 clocks_per_click=24 notated_32nd_notes_per_beat=8 time=40>
<meta message set_tempo tempo=321768 time=0>
note_on channel=0 note=35 velocity=0 time=0
note_on channel=0 note=34 velocity=80 time=0
control_change channel=0 control=64 value=0 time=4
control_change channel=0 control=64 value=127 time=194
note_on channel=0 note=34 velocity=0 time=42
note_on channel=0 note=41 velocity=55 time=0
<meta message set_tempo tempo=291262 time=200>
note_on channel=0 note=41 velocity=0 time=40
note_on channel=0 note=46 velocity=55 time=0
<meta message set_tempo tempo=290557 time=40>
<meta message set_tempo tempo=289855 time=80>
<meta message set_tempo tempo=289157 time=80>
<meta message set_tempo tempo=288462 time=40>
note_on channel=0 note=46 velocity=0 time=0
note_on channel=0 note=50 velocity=55 time=0
note_on channel=0 note=50 velocity=0 time=240
note_on channel=0 note=46 velocity=55 time=0
<meta message set_tempo tempo=287081 time=40>
<meta message set_tempo tempo=287770 time=80>
<meta message set_tempo tempo=288462 time=80>
note_on channel=0 note=46 velocity=0 time=40
note_on channel=0 note=41 velocity=55 time=0
<meta message set_tempo tempo=289157 time=40>
<meta message set_tempo tempo=289855 time=80>
<meta message set_tempo tempo=290557 time=80>
<meta message set_tempo tempo=294406 time=40>
note_on channel=0 note=41 velocity=0 time=0
note_on channel=0 note=67 velocity=78 time=0
note_on channel=0 note=62 velocity=66 time=0
note_on channel=0 note=58 velocity=66 time=0
note_on channel=0 note=34 velocity=66 time=0
note_on channel=0 note=34 velocity=0 time=240
note_on channel=0 note=41 velocity=55 time=0
<meta message set_tempo tempo=285470 time=240>
note_on channel=0 note=41 velocity=0 time=0
note_on channel=0 note=46 velocity=55 time=0
note_on channel=0 note=46 velocity=0 time=240
note_on channel=0 note=53 velocity=55 time=0
<meta message set_tempo tempo=288850 time=240>
note_on channel=0 note=53 velocity=0 time=0
note_on channel=0 note=58 velocity=0 time=0
note_on channel=0 note=62 velocity=0 time=0
note_on channel=0 note=67 velocity=0 time=0
note_on channel=0 note=62 velocity=61 time=0
note_on channel=0 note=56 velocity=61 time=0
note_on channel=0 note=67 velocity=73 time=0
note_on channel=0 note=46 velocity=55 time=0
note_on channel=0 note=46 velocity=0 time=240
note_on channel=0 note=41 velocity=55 time=0
<meta message set_tempo tempo=287081 time=240>
note_on channel=0 note=41 velocity=0 time=0
note_on channel=0 note=67 velocity=0 time=0
note_on channel=0 note=56 velocity=0 time=0
note_on channel=0 note=62 velocity=0 time=0
note_on channel=0 note=55 velocity=65 time=0
note_on channel=0 note=63 velocity=76 time=0
control_change channel=0 control=64 value=0 time=0
note_on channel=0 note=39 velocity=60 time=0
control_change channel=0 control=64 value=127 time=141
<meta message set_tempo tempo=286396 time=19>
note_on channel=0 note=39 velocity=0 time=80
note_on channel=0 note=46 velocity=54 time=0
<meta message set_tempo tempo=285714 time=40>
<meta message set_tempo tempo=285036 time=120>
<meta message set_tempo tempo=287081 time=80>
note_on channel=0 note=46 velocity=0 time=0
note_on channel=0 note=63 velocity=0 time=0
note_on channel=0 note=55 velocity=0 time=0
note_on channel=0 note=51 velocity=54 time=0
<meta message set_tempo tempo=287770 time=120>
<meta message set_tempo tempo=288462 time=120>
note_on channel=0 note=51 velocity=0 time=0
note_on channel=0 note=55 velocity=54 time=0
<meta message set_tempo tempo=289157 time=120>
<meta message set_tempo tempo=289855 time=80>
<meta message set_tempo tempo=286396 time=40>
note_on channel=0 note=55 velocity=0 time=0
note_on channel=0 note=63 velocity=66 time=0
note_on channel=0 note=67 velocity=66 time=0
note_on channel=0 note=75 velocity=78 time=0
note_on channel=0 note=51 velocity=54 time=0
<meta message set_tempo tempo=285714 time=80>
<meta message set_tempo tempo=285036 time=80>
<meta message set_tempo tempo=284360 time=80>
note_on channel=0 note=51 velocity=0 time=0
note_on channel=0 note=46 velocity=53 time=0
<meta message set_tempo tempo=283688 time=80>
<meta message set_tempo tempo=283019 time=80>
<meta message set_tempo tempo=282353 time=80>
note_on channel=0 note=46 velocity=0 time=0
note_on channel=0 note=39 velocity=60 time=0
<meta message set_tempo tempo=283019 time=80>
<meta message set_tempo tempo=283688 time=80>
<meta message set_tempo tempo=284360 time=80>
note_on channel=0 note=39 velocity=0 time=0
note_on channel=0 note=48 velocity=53 time=0
<meta message set_tempo tempo=285036 time=80>
<meta message set_tempo tempo=285714 time=80>
<meta message set_tempo tempo=286396 time=40>
<meta message set_tempo tempo=285660 time=40>
note_on channel=0 note=48 velocity=0 time=0
note_on channel=0 note=51 velocity=53 time=0
note_on channel=0 note=51 velocity=0 time=240
note_on channel=0 note=58 velocity=53 time=0
<meta message set_tempo tempo=290093 time=240>
note_on channel=0 note=58 velocity=0 time=0
note_on channel=0 note=75 velocity=0 time=0
note_on channel=0 note=67 velocity=0 time=0
note_on channel=0 note=63 velocity=0 time=0
note_on channel=0 note=74 velocity=73 time=0
note_on channel=0 note=70 velocity=61 time=0
note_on channel=0 note=63 velocity=61 time=0
note_on channel=0 note=51 velocity=53 time=0
note_on channel=0 note=51 velocity=0 time=240
note_on channel=0 note=48 velocity=53 time=0
<meta message set_tempo tempo=285660 time=240>
note_on channel=0 note=48 velocity=0 time=0
note_on channel=0 note=63 velocity=0 time=0
note_on channel=0 note=70 velocity=0 time=0
note_on channel=0 note=74 velocity=0 time=0
note_on channel=0 note=63 velocity=65 time=0
note_on channel=0 note=70 velocity=65 time=0
note_on channel=0 note=72 velocity=77 time=0
note_on channel=0 note=41 velocity=60 time=0
control_change channel=0 control=64 value=0 time=8
control_change channel=0 control=64 value=127 time=147
note_on channel=0 note=41 velocity=0 time=85
note_on channel=0 note=48 velocity=52 time=0
<meta message set_tempo tempo=284589 time=240>
note_on channel=0 note=48 velocity=0 time=0
note_on channel=0 note=51 velocity=52 time=0
<meta message set_tempo tempo=284360 time=40>
<meta message set_tempo tempo=283688 time=120>
<meta message set_tempo tempo=283019 time=80>
note_on channel=0 note=51 velocity=0 time=0
note_on channel=0 note=58 velocity=53 time=0
<meta message set_tempo tempo=282353 time=120>
<meta message set_tempo tempo=281690 time=80>
note_on channel=0 note=58 velocity=0 time=40
note_on channel=0 note=51 velocity=53 time=0
<meta message set_tempo tempo=282353 time=80>
<meta message set_tempo tempo=283019 time=80>
note_on channel=0 note=51 velocity=0 time=80
note_on channel=0 note=48 velocity=53 time=0
<meta message set_tempo tempo=283688 time=40>
<meta message set_tempo tempo=284360 time=80>
<meta message set_tempo tempo=285036 time=80>
<meta message set_tempo tempo=288600 time=40>
note_on channel=0 note=48 velocity=0 time=0
note_on channel=0 note=72 velocity=0 time=0
note_on channel=0 note=70 velocity=0 time=0
note_on channel=0 note=63 velocity=0 time=0
note_on channel=0 note=65 velocity=67 time=0
note_on channel=0 note=74 velocity=79 time=0
note_on channel=0 note=69 velocity=67 time=0
note_on channel=0 note=41 velocity=60 time=0
control_change channel=0 control=64 value=0 time=13
control_change channel=0 control=64 value=127 time=185
note_on channel=0 note=41 velocity=0 time=42
note_on channel=0 note=48 velocity=53 time=0
<meta message set_tempo tempo=284589 time=240>
note_on channel=0 note=48 velocity=0 time=0
note_on channel=0 note=51 velocity=53 time=0
note_on channel=0 note=51 velocity=0 time=240
note_on channel=0 note=57 velocity=54 time=0
<meta message set_tempo tempo=294406 time=240>
note_on channel=0 note=57 velocity=0 time=0
note_on channel=0 note=69 velocity=0 time=0
note_on channel=0 note=74 velocity=0 time=0
note_on channel=0 note=65 velocity=0 time=0
note_on channel=0 note=63 velocity=63 time=0
note_on channel=0 note=69 velocity=63 time=0
note_on channel=0 note=74 velocity=74 time=0
note_on channel=0 note=51 velocity=54 time=0
note_on channel=0 note=51 velocity=0 time=240
note_on channel=0 note=48 velocity=54 time=0
<meta message set_tempo tempo=288462 time=200>
note_on channel=0 note=48 velocity=0 time=40
note_on channel=0 note=74 velocity=0 time=0
note_on channel=0 note=69 velocity=0 time=0
note_on channel=0 note=63 velocity=0 time=0
note_on channel=0 note=62 velocity=59 time=0
note_on channel=0 note=70 velocity=71 time=0
note_on channel=0 note=46 velocity=59 time=0
control_change channel=0 control=64 value=0 time=15
<meta message set_tempo tempo=287770 time=145>
note_on channel=0 note=46 velocity=0 time=80
note_on channel=0 note=53 velocity=51 time=0
control_change channel=0 control=64 value=127 time=56
<meta message set_tempo tempo=287081 time=24>
<meta message set_tempo tempo=286396 time=160>
note_on channel=0 note=53 velocity=0 time=0
note_on channel=0 note=70 velocity=0 time=0
note_on channel=0 note=62 velocity=0 time=0
note_on channel=0 note=58 velocity=51 time=0
<meta message set_tempo tempo=285714 time=200>
note_on channel=0 note=58 velocity=0 time=40
note_on channel=0 note=62 velocity=51 time=0
<meta message set_tempo tempo=285036 time=120>
note_on channel=0 note=62 velocity=0 time=120
note_on channel=0 note=58 velocity=51 time=0
<meta message set_tempo tempo=284360 time=40>
<meta message set_tempo tempo=285036 time=200>
note_on channel=0 note=58 velocity=0 time=0
note_on channel=0 note=53 velocity=51 time=0
<meta message set_tempo tempo=285714 time=160>
note_on channel=0 note=53 velocity=0 time=80
note_on channel=0 note=70 velocity=64 time=0
note_on channel=0 note=82 velocity=75 time=0
note_on channel=0 note=46 velocity=54 time=0
<meta message set_tempo tempo=286396 time=120>
note_on channel=0 note=46 velocity=0 time=120
note_on channel=0 note=53 velocity=51 time=0
<meta message set_tempo tempo=287081 time=40>
<meta message set_tempo tempo=287770 time=160>
<meta message set_tempo tempo=284927 time=40>
note_on channel=0 note=53 velocity=0 time=0
note_on channel=0 note=58 velocity=51 time=0
note_on channel=0 note=58 velocity=0 time=240
note_on channel=0 note=65 velocity=51 time=0
<meta message set_tempo tempo=288600 time=240>
note_on channel=0 note=65 velocity=0 time=0
note_on channel=0 note=82 velocity=0 time=0
note_on channel=0 note=70 velocity=0 time=0
note_on channel=0 note=71 velocity=65 time=0
note_on channel=0 note=83 velocity=77 time=0
note_on channel=0 note=58 velocity=51 time=0
note_on channel=0 note=58 velocity=0 time=240
note_on channel=0 note=53 velocity=51 time=0
<meta message set_tempo tempo=288462 time=240>
note_on channel=0 note=53 velocity=0 time=0
note_on channel=0 note=83 velocity=0 time=0
note_on channel=0 note=71 velocity=0 time=0
note_on channel=0 note=72 velocity=65 time=0
note_on channel=0 note=84 velocity=77 time=0
note_on channel=0 note=46 velocity=58 time=0
control_change channel=0 control=64 value=0 time=15
control_change channel=0 control=64 value=127 time=37
<meta message set_tempo tempo=285741 time=11>
<meta message set_tempo tempo=284873 time=66>
<meta message set_tempo tempo=284010 time=44>
note_on channel=0 note=84 velocity=0 time=7
note_on channel=0 note=72 velocity=0 time=0
<meta message set_tempo tempo=283152 time=36>
note_on channel=0 note=46 velocity=0 time=24
note_on channel=0 note=55 velocity=47 time=0
<meta message set_tempo tempo=282300 time=20>
note_on channel=0 note=85 velocity=72 time=28
note_on channel=0 note=82 velocity=60 time=0
<meta message set_tempo tempo=281452 time=15>
<meta message set_tempo tempo=280610 time=44>
<meta message set_tempo tempo=279772 time=44>
<meta message set_tempo tempo=278940 time=43>
note_on channel=0 note=82 velocity=0 time=34
note_on channel=0 note=85 velocity=0 time=0
<meta message set_tempo tempo=277290 time=10>
note_on channel=0 note=55 velocity=0 time=2
note_on channel=0 note=60 velocity=48 time=0
<meta message set_tempo tempo=278113 time=63>
note_on channel=0 note=76 velocity=61 time=33
note_on channel=0 note=84 velocity=73 time=0
<meta message set_tempo tempo=278940 time=33>
<meta message set_tempo tempo=279772 time=65>
<meta message set_tempo tempo=280610 time=44>
note_on channel=0 note=60 velocity=0 time=2
note_on channel=0 note=64 velocity=50 time=0
note_on channel=0 note=84 velocity=0 time=36
note_on channel=0 note=76 velocity=0 time=0
<meta message set_tempo tempo=281452 time=27>
<meta message set_tempo tempo=282300 time=66>
note_on channel=0 note=82 velocity=63 time=15
note_on channel=0 note=83 velocity=74 time=0
<meta message set_tempo tempo=283152 time=29>
<meta message set_tempo tempo=290093 time=67>
note_on channel=0 note=64 velocity=0 time=0
note_on channel=0 note=60 velocity=51 time=0
note_on channel=0 note=83 velocity=0 time=84
note_on channel=0 note=82 velocity=0 time=0
note_on channel=0 note=76 velocity=67 time=108
note_on channel=0 note=84 velocity=79 time=0
<meta message set_tempo tempo=279942 time=48>
note_on channel=0 note=60 velocity=0 time=0
note_on channel=0 note=55 velocity=53 time=0
note_on channel=0 note=84 velocity=0 time=120
note_on channel=0 note=76 velocity=0 time=0
note_on channel=0 note=80 velocity=57 time=0
note_on channel=0 note=84 velocity=69 time=0
<meta message set_tempo tempo=288600 time=120>
note_on channel=0 note=84 velocity=0 time=0
note_on channel=0 note=80 velocity=0 time=0
note_on channel=0 note=55 velocity=0 time=0
note_on channel=0 note=80 velocity=73 time=0
note_on channel=0 note=92 velocity=87 time=0
note_on channel=0 note=46 velocity=54 time=0
control_change channel=0 control=64 value=0 time=7
control_change channel=0 control=64 value=127 time=35
note_on channel=0 note=46 velocity=0 time=198
note_on channel=0 note=92 velocity=0 time=0
note_on channel=0 note=80 velocity=0 time=0
note_on channel=0 note=56 velocity=51 time=0
<meta message set_tempo tempo=282353 time=220>
note_on channel=0 note=56 velocity=0 time=20
note_on channel=0 note=60 velocity=51 time=0
note_on channel=0 note=60 velocity=0 time=240
note_on channel=0 note=65 velocity=51 time=0
note_on channel=0 note=65 velocity=0 time=240
note_on channel=0 note=60 velocity=51 time=0
<meta message set_tempo tempo=291262 time=240>
note_on channel=0 note=60 velocity=0 time=0
note_on channel=0 note=84 velocity=81 time=0
note_on channel=0 note=75 velocity=69 time=0
note_on channel=0 note=56 velocity=51 time=0
<meta message set_tempo tempo=287770 time=200>
<meta message set_tempo tempo=284010 time=38>
note_on channel=0 note=56 velocity=0 time=2
note_on channel=0 note=75 velocity=0 time=0
note_on channel=0 note=84 velocity=0 time=0
note_on channel=0 note=74 velocity=65 time=0
note_on channel=0 note=82 velocity=77 time=0
note_on channel=0 note=46 velocity=58 time=0
control_change channel=0 control=64 value=0 time=15
control_change channel=0 control=64 value=127 time=37
<meta message set_tempo tempo=283152 time=55>
note_on channel=0 note=82 velocity=0 time=73
note_on channel=0 note=74 velocity=0 time=0
<meta message set_tempo tempo=282300 time=14>
note_on channel=0 note=46 velocity=0 time=46
note_on channel=0 note=53 velocity=47 time=0
<meta message set_tempo tempo=281452 time=42>
note_on channel=0 note=80 velocity=60 time=6
note_on channel=0 note=84 velocity=72 time=0
<meta message set_tempo tempo=280610 time=81>
<meta message set_tempo tempo=279772 time=87>
note_on channel=0 note=84 velocity=0 time=12
note_on channel=0 note=80 velocity=0 time=0
note_on channel=0 note=53 velocity=0 time=12
note_on channel=0 note=56 velocity=48 time=0
<meta message set_tempo tempo=278940 time=63>
note_on channel=0 note=82 velocity=73 time=33
note_on channel=0 note=74 velocity=61 time=0
<meta message set_tempo tempo=279772 time=33>
<meta message set_tempo tempo=280610 time=65>
<meta message set_tempo tempo=281452 time=44>
note_on channel=0 note=56 velocity=0 time=2
note_on channel=0 note=62 velocity=50 time=0
note_on channel=0 note=74 velocity=0 time=36
note_on channel=0 note=82 velocity=0 time=0
<meta message set_tempo tempo=282300 time=27>
<meta message set_tempo tempo=283152 time=66>
note_on channel=0 note=81 velocity=74 time=15
note_on channel=0 note=80 velocity=63 time=0
<meta message set_tempo tempo=284010 time=29>
<meta message set_tempo tempo=286396 time=27>
<meta message set_tempo tempo=290853 time=40>
note_on channel=0 note=62 velocity=0 time=0
note_on channel=0 note=56 velocity=51 time=0
note_on channel=0 note=80 velocity=0 time=84
note_on channel=0 note=81 velocity=0 time=0
note_on channel=0 note=82 velocity=79 time=108
note_on channel=0 note=74 velocity=67 time=0
<meta message set_tempo tempo=280636 time=48>
note_on channel=0 note=56 velocity=0 time=0
note_on channel=0 note=53 velocity=53 time=0
note_on channel=0 note=74 velocity=0 time=120
note_on channel=0 note=82 velocity=0 time=0
note_on channel=0 note=82 velocity=69 time=0
note_on channel=0 note=79 velocity=57 time=0
<meta message set_tempo tempo=288600 time=120>
note_on channel=0 note=79 velocity=0 time=0
note_on channel=0 note=82 velocity=0 time=0
note_on channel=0 note=53 velocity=0 time=0
note_on channel=0 note=79 velocity=73 time=0
note_on channel=0 note=91 velocity=87 time=0
note_on channel=0 note=46 velocity=54 time=0
control_change channel=0 control=64 value=0 time=9
control_change channel=0 control=64 value=127 time=33
note_on channel=0 note=46 velocity=0 time=198
note_on channel=0 note=91 velocity=0 time=0
note_on channel=0 note=79 velocity=0 time=0
note_on channel=0 note=51 velocity=51 time=0
<meta message set_tempo tempo=283688 time=220>
note_on channel=0 note=51 velocity=0 time=20
note_on channel=0 note=55 velocity=51 time=0
note_on channel=0 note=55 velocity=0 time=240
note_on channel=0 note=63 velocity=51 time=0
note_on channel=0 note=63 velocity=0 time=240
note_on channel=0 note=55 velocity=51 time=0
<meta message set_tempo tempo=291262 time=240>
note_on channel=0 note=55 velocity=0 time=0
note_on channel=0 note=74 velocity=69 time=0
note_on channel=0 note=82 velocity=81 time=0
note_on channel=0 note=51 velocity=51 time=0
<meta message set_tempo tempo=288600 time=240>
note_on channel=0 note=51 velocity=0 time=0
note_on channel=0 note=82 velocity=0 time=0
note_on channel=0 note=74 velocity=0 time=0
note_on channel=0 note=72 velocity=65 time=0
note_on channel=0 note=80 velocity=77 time=0
note_on channel=0 note=46 velocity=58 time=0
control_change channel=0 control=64 value=0 time=15
control_change channel=0 control=64 value=127 time=37
note_on channel=0 note=80 velocity=0 time=128
note_on channel=0 note=72 velocity=0 time=0
note_on channel=0 note=46 velocity=0 time=60
note_on channel=0 note=51 velocity=47 time=0
note_on channel=0 note=75 velocity=60 time=48
note_on channel=0 note=82 velocity=72 time=0
note_on channel=0 note=82 velocity=0 time=180
note_on channel=0 note=75 velocity=0 time=0
<meta message set_tempo tempo=285660 time=12>
note_on channel=0 note=51 velocity=0 time=0
note_on channel=0 note=56 velocity=48 time=0
note_on channel=0 note=72 velocity=61 time=96
note_on channel=0 note=80 velocity=73 time=0
<meta message set_tempo tempo=289855 time=144>
note_on channel=0 note=56 velocity=0 time=0
note_on channel=0 note=60 velocity=50 time=0
note_on channel=0 note=80 velocity=0 time=36
note_on channel=0 note=72 velocity=0 time=0
note_on channel=0 note=75 velocity=63 time=108
note_on channel=0 note=79 velocity=74 time=0
<meta message set_tempo tempo=317460 time=96>
note_on channel=0 note=60 velocity=0 time=0
note_on channel=0 note=56 velocity=51 time=0
note_on channel=0 note=79 velocity=0 time=84
note_on channel=0 note=75 velocity=0 time=0
note_on channel=0 note=80 velocity=79 time=108
note_on channel=0 note=72 velocity=67 time=0
<meta message set_tempo tempo=281347 time=48>
note_on channel=0 note=56 velocity=0 time=0
note_on channel=0 note=51 velocity=53 time=0
note_on channel=0 note=72 velocity=0 time=120
note_on channel=0 note=80 velocity=0 time=0
note_on channel=0 note=77 velocity=57 time=0
note_on channel=0 note=80 velocity=69 time=0
<meta message set_tempo tempo=288600 time=120>
note_on channel=0 note=80 velocity=0 time=0
note_on channel=0 note=77 velocity=0 time=0
note_on channel=0 note=51 velocity=0 time=0
note_on channel=0 note=89 velocity=87 time=0
note_on channel=0 note=77 velocity=73 time=0
note_on channel=0 note=46 velocity=54 time=0
control_change channel=0 control=64 value=0 time=6
control_change channel=0 control=64 value=127 time=36
note_on channel=0 note=46 velocity=0 time=198
note_on channel=0 note=77 velocity=0 time=0
note_on channel=0 note=89 velocity=0 time=0
note_on channel=0 note=53 velocity=51 time=0
<meta message set_tempo tempo=285036 time=240>
note_on channel=0 note=53 velocity=0 time=0
note_on channel=0 note=56 velocity=51 time=0
note_on channel=0 note=56 velocity=0 time=240
note_on channel=0 note=62 velocity=51 time=0
<meta message set_tempo tempo=291602 time=240>
note_on channel=0 note=62 velocity=0 time=0
note_on channel=0 note=80 velocity=78 time=0
note_on channel=0 note=77 velocity=78 time=0
note_on channel=0 note=56 velocity=51 time=0
note_on channel=0 note=56 velocity=0 time=240
note_on channel=0 note=53 velocity=51 time=0
note_on channel=0 note=53 velocity=0 time=240
note_on channel=0 note=77 velocity=0 time=0
note_on channel=0 note=80 velocity=0 time=0
note_on channel=0 note=79 velocity=78 time=0
note_on channel=0 note=77 velocity=66 time=0
note_on channel=0 note=47 velocity=54 time=0
control_change channel=0 control=64 value=0 time=16
control_change channel=0 control=64 value=127 time=87
note_on channel=0 note=47 velocity=0 time=137
note_on channel=0 note=53 velocity=48 time=0
note_on channel=0 note=77 velocity=0 time=120
note_on channel=0 note=79 velocity=0 time=0
note_on channel=0 note=82 velocity=71 time=0
<meta message set_tempo tempo=288600 time=120>
note_on channel=0 note=82 velocity=0 time=0
note_on channel=0 note=53 velocity=0 time=0
note_on channel=0 note=77 velocity=69 time=0
note_on channel=0 note=80 velocity=81 time=0
note_on channel=0 note=55 velocity=48 time=0
note_on channel=0 note=55 velocity=0 time=240
note_on channel=0 note=62 velocity=48 time=0
note_on channel=0 note=62 velocity=0 time=240
note_on channel=0 note=55 velocity=48 time=0
note_on channel=0 note=55 velocity=0 time=240
note_on channel=0 note=80 velocity=0 time=0
note_on channel=0 note=77 velocity=0 time=0
note_on channel=0 note=79 velocity=75 time=0
note_on channel=0 note=77 velocity=64 time=0
note_on channel=0 note=53 velocity=48 time=0
note_on channel=0 note=53 velocity=0 time=240
note_on channel=0 note=77 velocity=0 time=0
note_on channel=0 note=79 velocity=0 time=0
note_on channel=0 note=75 velocity=63 time=0
note_on channel=0 note=79 velocity=74 time=0
note_on channel=0 note=48 velocity=54 time=0
control_change channel=0 control=64 value=0 time=8
control_change channel=0 control=64 value=127 time=61
note_on channel=0 note=48 velocity=0 time=171
note_on channel=0 note=51 velocity=46 time=0
note_on channel=0 note=79 velocity=0 time=220
note_on channel=0 note=75 velocity=0 time=0
<meta message set_tempo tempo=291602 time=20>
note_on channel=0 note=51 velocity=0 time=0
note_on channel=0 note=75 velocity=67 time=0
note_on channel=0 note=80 velocity=79 time=0
note_on channel=0 note=55 velocity=48 time=0
note_on channel=0 note=55 velocity=0 time=240
note_on channel=0 note=63 velocity=51 time=0
note_on channel=0 note=80 velocity=0 time=220
note_on channel=0 note=75 velocity=0 time=0
note_on channel=0 note=63 velocity=0 time=20
note_on channel=0 note=81 velocity=84 time=0
note_on channel=0 note=75 velocity=71 time=0
note_on channel=0 note=54 velocity=53 time=0
note_on channel=0 note=54 velocity=0 time=240
note_on channel=0 note=51 velocity=49 time=0
note_on channel=0 note=75 velocity=0 time=220
note_on channel=0 note=81 velocity=0 time=0
<meta message set_tempo tempo=321768 time=20>
note_on channel=0 note=51 velocity=0 time=0
note_on channel=0 note=68 velocity=71 time=0
note_on channel=0 note=70 velocity=71 time=0
note_on channel=0 note=77 velocity=71 time=0
note_on channel=0 note=82 velocity=84 time=0
note_on channel=0 note=50 velocity=80 time=0
control_change channel=0 control=64 value=0 time=0
control_change channel=0 control=64 value=127 time=155
note_on channel=0 note=50 velocity=0 time=85
note_on channel=0 note=56 velocity=55 time=0
<meta message set_tempo tempo=291971 time=240>
note_on channel=0 note=56 velocity=0 time=0
note_on channel=0 note=58 velocity=55 time=0
<meta message set_tempo tempo=291262 time=80>
<meta message set_tempo tempo=290557 time=80>
<meta message set_tempo tempo=289855 time=80>
note_on channel=0 note=58 velocity=0 time=0
note_on channel=0 note=65 velocity=55 time=0
<meta message set_tempo tempo=289157 time=80>
<meta message set_tempo tempo=288462 time=80>
<meta message set_tempo tempo=287770 time=80>
note_on channel=0 note=65 velocity=0 time=0
note_on channel=0 note=58 velocity=55 time=0
<meta message set_tempo tempo=287081 time=40>
<meta message set_tempo tempo=287770 time=80>
<meta message set_tempo tempo=288462 time=80>
note_on channel=0 note=58 velocity=0 time=40
note_on channel=0 note=56 velocity=55 time=0
<meta message set_tempo tempo=289157 time=40>
<meta message set_tempo tempo=289855 time=80>
<meta message set_tempo tempo=290557 time=80>
<meta message set_tempo tempo=294406 time=40>
note_on channel=0 note=56 velocity=0 time=0
note_on channel=0 note=82 velocity=0 time=0
note_on channel=0 note=68 velocity=0 time=0
note_on channel=0 note=70 velocity=0 time=0
note_on channel=0 note=77 velocity=0 time=0
note_on channel=0 note=68 velocity=66 time=0
note_on channel=0 note=70 velocity=66 time=0
note_on channel=0 note=74 velocity=66 time=0
note_on channel=0 note=79 velocity=66 time=0
note_on channel=0 note=82 velocity=78 time=0
note_on channel=0 note=46 velocity=66 time=0
control_change channel=0 control=64 value=0 time=7
control_change channel=0 control=64 value=127 time=107
note_on channel=0 note=46 velocity=0 time=126
note_on channel=0 note=53 velocity=55 time=0
<meta message set_tempo tempo=285470 time=240>
note_on channel=0 note=53 velocity=0 time=0
note_on channel=0 note=58 velocity=55 time=0
note_on channel=0 note=58 velocity=0 time=240
note_on channel=0 note=62 velocity=55 time=0
<meta message set_tempo tempo=288850 time=240>
note_on channel=0 note=62 velocity=0 time=0
note_on channel=0 note=82 velocity=0 time=0
note_on channel=0 note=74 velocity=0 time=0
note_on channel=0 note=68 velocity=0 time=0
note_on channel=0 note=70 velocity=0 time=0
note_on channel=0 note=79 velocity=0 time=0
note_on channel=0 note=68 velocity=61 time=0
note_on channel=0 note=79 velocity=61 time=0
note_on channel=0 note=82 velocity=73 time=0
note_on channel=0 note=70 velocity=61 time=0
note_on channel=0 note=74 velocity=61 time=0
note_on channel=0 note=58 velocity=55 time=0
note_on channel=0 note=58 velocity=0 time=240
note_on channel=0 note=53 velocity=55 time=0
note_on channel=0 note=53 velocity=0 time=240
note_on channel=0 note=74 velocity=0 time=0
note_on channel=0 note=82 velocity=0 time=0
note_on channel=0 note=68 velocity=0 time=0
note_on channel=0 note=79 velocity=0 time=0
note_on channel=0 note=70 velocity=0 time=0
note_on channel=0 note=67 velocity=65 time=0
note_on channel=0 note=75 velocity=76 time=0
note_on channel=0 note=39 velocity=60 time=0
control_change channel=0 control=64 value=0 time=8
control_change channel=0 control=64 value=127 time=162
note_on channel=0 note=39 velocity=0 time=70
note_on channel=0 note=46 velocity=54 time=0
<meta message set_tempo tempo=290093 time=240>
note_on channel=0 note=46 velocity=0 time=0
note_on channel=0 note=75 velocity=0 time=0
note_on channel=0 note=67 velocity=0 time=0
note_on channel=0 note=51 velocity=54 time=0
note_on channel=0 note=51 velocity=0 time=240
note_on channel=0 note=55 velocity=54 time=0
<meta message set_tempo tempo=287853 time=240>
note_on channel=0 note=55 velocity=0 time=0
note_on channel=0 note=58 velocity=54 time=0
note_on channel=0 note=58 velocity=0 time=240
note_on channel=0 note=63 velocity=53 time=0
<meta message set_tempo tempo=284927 time=240>
note_on channel=0 note=63 velocity=0 time=0
note_on channel=0 note=79 velocity=72 time=0
note_on channel=0 note=87 velocity=86 time=0
note_on channel=0 note=75 velocity=72 time=0
note_on channel=0 note=67 velocity=60 time=0
note_on channel=0 note=67 velocity=0 time=240
note_on channel=0 note=63 velocity=53 time=0
<meta message set_tempo tempo=285660 time=240>
note_on channel=0 note=63 velocity=0 time=0
note_on channel=0 note=58 velocity=53 time=0
note_on channel=0 note=58 velocity=0 time=240
note_on channel=0 note=55 velocity=53 time=0
<meta message set_tempo tempo=290093 time=240>
note_on channel=0 note=55 velocity=0 time=0
note_on channel=0 note=75 velocity=0 time=0
note_on channel=0 note=87 velocity=0 time=0
note_on channel=0 note=79 velocity=0 time=0
note_on channel=0 note=86 velocity=80 time=0
note_on channel=0 note=82 velocity=67 time=0
note_on channel=0 note=75 velocity=67 time=0
note_on channel=0 note=51 velocity=53 time=0
note_on channel=0 note=51 velocity=0 time=240
note_on channel=0 note=46 velocity=53 time=0
<meta message set_tempo tempo=285660 time=240>
note_on channel=0 note=46 velocity=0 time=0
note_on channel=0 note=75 velocity=0 time=0
note_on channel=0 note=82 velocity=0 time=0
note_on channel=0 note=86 velocity=0 time=0
note_on channel=0 note=82 velocity=71 time=0
note_on channel=0 note=75 velocity=71 time=0
note_on channel=0 note=84 velocity=85 time=0
note_on channel=0 note=41 velocity=60 time=0
control_change channel=0 control=64 value=0 time=8
control_change channel=0 control=64 value=127 time=147
note_on channel=0 note=41 velocity=0 time=85
note_on channel=0 note=48 velocity=52 time=0
<meta message set_tempo tempo=284589 time=240>
note_on channel=0 note=48 velocity=0 time=0
note_on channel=0 note=51 velocity=52 time=0
note_on channel=0 note=51 velocity=0 time=240
note_on channel=0 note=58 velocity=53 time=0
note_on channel=0 note=58 velocity=0 time=240
note_on channel=0 note=51 velocity=53 time=0
note_on channel=0 note=51 velocity=0 time=240
note_on channel=0 note=48 velocity=53 time=0
<meta message set_tempo tempo=288600 time=240>
note_on channel=0 note=48 velocity=0 time=0
note_on channel=0 note=84 velocity=0 time=0
note_on channel=0 note=75 velocity=0 time=0
note_on channel=0 note=82 velocity=0 time=0
note_on channel=0 note=86 velocity=87 time=0
note_on channel=0 note=81 velocity=73 time=0
note_on channel=0 note=77 velocity=73 time=0
note_on channel=0 note=41 velocity=60 time=0
control_change channel=0 control=64 value=0 time=13
control_change channel=0 control=64 value=127 time=185
note_on channel=0 note=41 velocity=0 time=42
note_on channel=0 note=48 velocity=53 time=0
<meta message set_tempo tempo=284589 time=240>
note_on channel=0 note=48 velocity=0 time=0
note_on channel=0 note=51 velocity=53 time=0
note_on channel=0 note=51 velocity=0 time=240
note_on channel=0 note=57 velocity=54 time=0
<meta message set_tempo tempo=294406 time=240>
note_on channel=0 note=57 velocity=0 time=0
note_on channel=0 note=77 velocity=0 time=0
note_on channel=0 note=81 velocity=0 time=0
note_on channel=0 note=86 velocity=0 time=0
note_on channel=0 note=86 velocity=81 time=0
note_on channel=0 note=81 velocity=69 time=0
note_on channel=0 note=75 velocity=69 time=0
note_on channel=0 note=51 velocity=54 time=0
note_on channel=0 note=51 velocity=0 time=240
note_on channel=0 note=48 velocity=54 time=0
<meta message set_tempo tempo=288600 time=240>
note_on channel=0 note=48 velocity=0 time=0
note_on channel=0 note=75 velocity=0 time=0
note_on channel=0 note=81 velocity=0 time=0
note_on channel=0 note=86 velocity=0 time=0
note_on channel=0 note=74 velocity=65 time=0
note_on channel=0 note=82 velocity=77 time=0
note_on channel=0 note=34 velocity=59 time=0
control_change channel=0 control=64 value=0 time=6
control_change channel=0 control=64 value=127 time=135
note_on channel=0 note=34 velocity=0 time=99
note_on channel=0 note=46 velocity=53 time=0
note_on channel=0 note=46 velocity=0 time=240
note_on channel=0 note=82 velocity=0 time=0
note_on channel=0 note=74 velocity=0 time=0
note_on channel=0 note=53 velocity=55 time=0
note_on channel=0 note=53 velocity=0 time=240
note_on channel=0 note=58 velocity=57 time=0
note_on channel=0 note=58 velocity=0 time=240
note_on channel=0 note=62 velocity=58 time=0
note_on channel=0 note=62 velocity=0 time=240
note_on channel=0 note=65 velocity=60 time=0
<meta message set_tempo tempo=295567 time=240>
note_on channel=0 note=65 velocity=0 time=0
note_on channel=0 note=82 velocity=78 time=0
note_on channel=0 note=94 velocity=94 time=0
note_on channel=0 note=74 velocity=61 time=0
note_on channel=0 note=74 velocity=0 time=240
note_on channel=0 note=70 velocity=59 time=0
note_on channel=0 note=70 velocity=0 time=240
note_on channel=0 note=65 velocity=57 time=0
note_on channel=0 note=65 velocity=0 time=240
note_on channel=0 note=62 velocity=55 time=0
<meta message set_tempo tempo=313316 time=240>
note_on channel=0 note=62 velocity=0 time=0
note_on channel=0 note=94 velocity=0 time=0
note_on channel=0 note=82 velocity=0 time=0
note_on channel=0 note=58 velocity=53 time=0
note_on channel=0 note=58 velocity=0 time=240
note_on channel=0 note=82 velocity=74 time=0
note_on channel=0 note=94 velocity=88 time=0
note_on channel=0 note=53 velocity=51 time=0
control_change channel=0 control=64 value=0 time=2
note_on channel=0 note=94 velocity=0 time=228
note_on channel=0 note=82 velocity=0 time=0
<meta message set_tempo tempo=305344 time=10>
note_on channel=0 note=53 velocity=0 time=0
note_on channel=0 note=82 velocity=78 time=0
note_on channel=0 note=94 velocity=94 time=0
note_on channel=0 note=46 velocity=57 time=0
control_change channel=0 control=64 value=127 time=137
note_on channel=0 note=46 velocity=0 time=103
note_on channel=0 note=52 velocity=49 time=0
note_on channel=0 note=52 velocity=0 time=240
note_on channel=0 note=55 velocity=49 time=0
note_on channel=0 note=55 velocity=0 time=240
note_on channel=0 note=60 velocity=49 time=0
note_on channel=0 note=60 velocity=0 time=240
note_on channel=0 note=94 velocity=0 time=0
note_on channel=0 note=82 velocity=0 time=0
note_on channel=0 note=55 velocity=49 time=0
note_on channel=0 note=55 velocity=0 time=240
note_on channel=0 note=52 velocity=49 time=0
note_on channel=0 note=52 velocity=0 time=240
note_on channel=0 note=60 velocity=65 time=0
note_on channel=0 note=72 velocity=77 time=0
note_on channel=0 note=46 velocity=47 time=0
<meta message set_tempo tempo=304290 time=3>
<meta message set_tempo tempo=303306 time=131>
note_on channel=0 note=46 velocity=0 time=106
note_on channel=0 note=52 velocity=47 time=0
<meta message set_tempo tempo=302328 time=3>
<meta message set_tempo tempo=301356 time=131>
note_on channel=0 note=52 velocity=0 time=106
note_on channel=0 note=60 velocity=0 time=0
note_on channel=0 note=55 velocity=53 time=0
<meta message set_tempo tempo=300391 time=3>
<meta message set_tempo tempo=301356 time=175>
note_on channel=0 note=55 velocity=0 time=62
note_on channel=0 note=60 velocity=47 time=0
<meta message set_tempo tempo=302328 time=113>
note_on channel=0 note=60 velocity=0 time=127
note_on channel=0 note=72 velocity=0 time=0
note_on channel=0 note=62 velocity=61 time=0
note_on channel=0 note=74 velocity=73 time=0
note_on channel=0 note=55 velocity=47 time=0
<meta message set_tempo tempo=303306 time=25>
<meta message set_tempo tempo=318302 time=215>
note_on channel=0 note=55 velocity=0 time=0
note_on channel=0 note=52 velocity=47 time=0
<meta message set_tempo tempo=337079 time=240>
note_on channel=0 note=52 velocity=0 time=0
note_on channel=0 note=74 velocity=0 time=0
note_on channel=0 note=62 velocity=0 time=0
note_on channel=0 note=63 velocity=57 time=0
note_on channel=0 note=75 velocity=69 time=0
note_on channel=0 note=46 velocity=55 time=0
control_change channel=0 control=64 value=0 time=12
control_change channel=0 control=64 value=127 time=73
note_on channel=0 note=75 velocity=0 time=5
note_on channel=0 note=77 velocity=69 time=0
note_on channel=0 note=77 velocity=0 time=90
note_on channel=0 note=75 velocity=69 time=0
<meta message set_tempo tempo=310881 time=60>
note_on channel=0 note=46 velocity=0 time=0
note_on channel=0 note=53 velocity=46 time=0
note_on channel=0 note=75 velocity=0 time=120
note_on channel=0 note=63 velocity=0 time=0
note_on channel=0 note=62 velocity=53 time=0
note_on channel=0 note=74 velocity=64 time=0
note_on channel=0 note=53 velocity=0 time=120
note_on channel=0 note=57 velocity=46 time=0
note_on channel=0 note=57 velocity=0 time=240
note_on channel=0 note=74 velocity=0 time=0
note_on channel=0 note=62 velocity=0 time=0
note_on channel=0 note=63 velocity=53 time=0
note_on channel=0 note=75 velocity=64 time=0
note_on channel=0 note=60 velocity=46 time=0
note_on channel=0 note=60 velocity=0 time=240
note_on channel=0 note=57 velocity=47 time=0
note_on channel=0 note=75 velocity=0 time=120
note_on channel=0 note=63 velocity=0 time=0
note_on channel=0 note=79 velocity=64 time=0
note_on channel=0 note=67 velocity=53 time=0
note_on channel=0 note=74 velocity=53 time=0
<meta message set_tempo tempo=325203 time=120>
note_on channel=0 note=57 velocity=0 time=0
note_on channel=0 note=53 velocity=47 time=0
<meta message set_tempo tempo=346821 time=240>
note_on channel=0 note=53 velocity=0 time=0
note_on channel=0 note=74 velocity=0 time=0
note_on channel=0 note=67 velocity=0 time=0
note_on channel=0 note=79 velocity=0 time=0
note_on channel=0 note=74 velocity=60 time=0
note_on channel=0 note=68 velocity=66 time=0
note_on channel=0 note=79 velocity=72 time=0
note_on channel=0 note=46 velocity=52 time=0
control_change channel=0 control=64 value=0 time=12
control_change channel=0 control=64 value=127 time=80
note_on channel=0 note=46 velocity=0 time=148
note_on channel=0 note=53 velocity=47 time=0
note_on channel=0 note=53 velocity=0 time=240
note_on channel=0 note=68 velocity=0 time=0
note_on channel=0 note=70 velocity=66 time=0
note_on channel=0 note=56 velocity=47 time=0
note_on channel=0 note=56 velocity=0 time=240
note_on channel=0 note=62 velocity=47 time=0
<meta message set_tempo tempo=428571 time=240>
note_on channel=0 note=62 velocity=0 time=0
note_on channel=0 note=70 velocity=0 time=0
note_on channel=0 note=74 velocity=0 time=0
note_on channel=0 note=68 velocity=61 time=0
note_on channel=0 note=56 velocity=47 time=0
note_on channel=0 note=79 velocity=0 time=160
note_on channel=0 note=77 velocity=61 time=0
note_on channel=0 note=56 velocity=0 time=80
note_on channel=0 note=53 velocity=47 time=0
note_on channel=0 note=77 velocity=0 time=80
note_on channel=0 note=75 velocity=61 time=0
<meta message set_tempo tempo=478088 time=140>
note_on channel=0 note=75 velocity=0 time=0
note_on channel=0 note=53 velocity=0 time=20
note_on channel=0 note=68 velocity=0 time=0
note_on channel=0 note=67 velocity=68 time=0
note_on channel=0 note=75 velocity=68 time=0
note_on channel=0 note=39 velocity=57 time=0
control_change channel=0 control=64 value=0 time=17
<meta message set_tempo tempo=476190 time=43>
control_change channel=0 control=64 value=127 time=74
<meta message set_tempo tempo=474308 time=6>
<meta message set_tempo tempo=472441 time=40>
note_on channel=0 note=39 velocity=0 time=60
note_on channel=0 note=46 velocity=40 time=0
<meta message set_tempo tempo=470588 time=20>
<meta message set_tempo tempo=468750 time=40>
<meta message set_tempo tempo=466926 time=80>
<meta message set_tempo tempo=465116 time=40>
<meta message set_tempo tempo=466926 time=20>
<meta message set_tempo tempo=465116 time=40>
note_on channel=0 note=46 velocity=0 time=0
note_on channel=0 note=51 velocity=48 time=0
<meta message set_tempo tempo=463320 time=40>
<meta message set_tempo tempo=461538 time=40>
<meta message set_tempo tempo=459770 time=40>
<meta message set_tempo tempo=458015 time=40>
<meta message set_tempo tempo=456274 time=40>
<meta message set_tempo tempo=454545 time=40>
note_on channel=0 note=51 velocity=0 time=0
note_on channel=0 note=55 velocity=42 time=0
<meta message set_tempo tempo=452830 time=40>
<meta message set_tempo tempo=451128 time=40>
<meta message set_tempo tempo=449438 time=40>
<meta message set_tempo tempo=447761 time=40>
<meta message set_tempo tempo=446097 time=40>
<meta message set_tempo tempo=442804 time=40>
note_on channel=0 note=55 velocity=0 time=0
note_on channel=0 note=51 velocity=54 time=0
<meta message set_tempo tempo=444444 time=40>
<meta message set_tempo tempo=447761 time=40>
<meta message set_tempo tempo=451128 time=40>
<meta message set_tempo tempo=454545 time=40>
<meta message set_tempo tempo=456274 time=40>
<meta message set_tempo tempo=459770 time=40>
note_on channel=0 note=51 velocity=0 time=0
note_on channel=0 note=46 velocity=50 time=0
<meta message set_tempo tempo=463320 time=40>
<meta message set_tempo tempo=466926 time=40>
<meta message set_tempo tempo=470588 time=40>
<meta message set_tempo tempo=472441 time=40>
<meta message set_tempo tempo=461538 time=80>
note_on channel=0 note=46 velocity=0 time=0
note_on channel=0 note=75 velocity=0 time=0
note_on channel=0 note=67 velocity=0 time=0
note_on channel=0 note=39 velocity=55 time=0
note_on channel=0 note=39 velocity=0 time=240
note_on channel=0 note=46 velocity=45 time=0
<meta message set_tempo tempo=442804 time=200>
note_on channel=0 note=46 velocity=0 time=40
note_on channel=0 note=51 velocity=45 time=0
<meta message set_tempo tempo=441176 time=40>
<meta message set_tempo tempo=439560 time=80>
<meta message set_tempo tempo=437956 time=40>
note_on channel=0 note=67 velocity=61 time=0
<meta message set_tempo tempo=436364 time=80>
note_on channel=0 note=51 velocity=0 time=0
note_on channel=0 note=58 velocity=45 time=0
<meta message set_tempo tempo=434783 time=80>
note_on channel=0 note=67 velocity=0 time=0
note_on channel=0 note=68 velocity=57 time=0
<meta message set_tempo tempo=433213 time=40>
<meta message set_tempo tempo=431655 time=80>
<meta message set_tempo tempo=430108 time=40>
note_on channel=0 note=68 velocity=0 time=0
note_on channel=0 note=58 velocity=0 time=0
note_on channel=0 note=70 velocity=63 time=0
note_on channel=0 note=51 velocity=45 time=0
control_change channel=0 control=64 value=0 time=15
control_change channel=0 control=64 value=127 time=112
note_on channel=0 note=70 velocity=0 time=33
note_on channel=0 note=74 velocity=68 time=0
note_on channel=0 note=51 velocity=0 time=80
note_on channel=0 note=46 velocity=45 time=0
<meta message set_tempo tempo=494193 time=80>
note_on channel=0 note=74 velocity=0 time=0
note_on channel=0 note=72 velocity=63 time=0
<meta message set_tempo tempo=470588 time=160>
note_on channel=0 note=72 velocity=0 time=0
note_on channel=0 note=46 velocity=0 time=0
note_on channel=0 note=70 velocity=70 time=0
note_on channel=0 note=39 velocity=50 time=0
<meta message set_tempo tempo=472441 time=20>
control_change channel=0 control=64 value=0 time=60
<meta message set_tempo tempo=470588 time=20>
<meta message set_tempo tempo=468750 time=80>
control_change channel=0 control=64 value=127 time=4
<meta message set_tempo tempo=466926 time=36>
note_on channel=0 note=39 velocity=0 time=20
note_on channel=0 note=46 velocity=37 time=0
<meta message set_tempo tempo=465116 time=60>
<meta message set_tempo tempo=463320 time=40>
<meta message set_tempo tempo=461538 time=140>
note_on channel=0 note=46 velocity=0 time=0
note_on channel=0 note=51 velocity=51 time=0
<meta message set_tempo tempo=459770 time=80>
<meta message set_tempo tempo=458015 time=40>
<meta message set_tempo tempo=456274 time=40>
<meta message set_tempo tempo=454545 time=40>
<meta message set_tempo tempo=452830 time=40>
note_on channel=0 note=51 velocity=0 time=0
note_on channel=0 note=55 velocity=46 time=0
<meta message set_tempo tempo=451128 time=40>
<meta message set_tempo tempo=449438 time=40>
<meta message set_tempo tempo=447761 time=40>
<meta message set_tempo tempo=446097 time=40>
<meta message set_tempo tempo=444444 time=40>
<meta message set_tempo tempo=442804 time=40>
note_on channel=0 note=55 velocity=0 time=0
note_on channel=0 note=51 velocity=55 time=0
<meta message set_tempo tempo=444444 time=40>
<meta message set_tempo tempo=446097 time=40>
<meta message set_tempo tempo=449438 time=40>
<meta message set_tempo tempo=451128 time=40>
<meta message set_tempo tempo=454545 time=40>
<meta message set_tempo tempo=456274 time=40>
note_on channel=0 note=51 velocity=0 time=0
note_on channel=0 note=46 velocity=49 time=0
<meta message set_tempo tempo=459770 time=40>
<meta message set_tempo tempo=461538 time=40>
<meta message set_tempo tempo=465116 time=40>
<meta message set_tempo tempo=466926 time=40>
<meta message set_tempo tempo=470588 time=40>
<meta message set_tempo tempo=451128 time=40>
note_on channel=0 note=46 velocity=0 time=0
note_on channel=0 note=70 velocity=0 time=0
note_on channel=0 note=39 velocity=50 time=0
note_on channel=0 note=39 velocity=0 time=240
note_on channel=0 note=46 velocity=40 time=0
<meta message set_tempo tempo=441176 time=200>
note_on channel=0 note=46 velocity=0 time=40
note_on channel=0 note=51 velocity=40 time=0
<meta message set_tempo tempo=439560 time=40>
<meta message set_tempo tempo=437956 time=80>
note_on channel=0 note=67 velocity=57 time=40
<meta message set_tempo tempo=436364 time=40>
note_on channel=0 note=51 velocity=0 time=40
note_on channel=0 note=58 velocity=40 time=0
<meta message set_tempo tempo=434783 time=40>
note_on channel=0 note=67 velocity=0 time=40
note_on channel=0 note=68 velocity=60 time=0
<meta message set_tempo tempo=433213 time=40>
note_on channel=0 note=68 velocity=0 time=120
note_on channel=0 note=58 velocity=0 time=0
note_on channel=0 note=70 velocity=65 time=0
note_on channel=0 note=51 velocity=40 time=0
control_change channel=0 control=64 value=0 time=35
control_change channel=0 control=64 value=127 time=64
note_on channel=0 note=70 velocity=0 time=61
note_on channel=0 note=74 velocity=68 time=0
note_on channel=0 note=51 velocity=0 time=80
note_on channel=0 note=46 velocity=40 time=0
<meta message set_tempo tempo=494193 time=80>
note_on channel=0 note=74 velocity=0 time=0
note_on channel=0 note=72 velocity=61 time=0
<meta message set_tempo tempo=463320 time=160>
note_on channel=0 note=72 velocity=0 time=0
note_on channel=0 note=46 velocity=0 time=0
note_on channel=0 note=70 velocity=70 time=0
note_on channel=0 note=39 velocity=54 time=0
control_change channel=0 control=64 value=0 time=80
control_change channel=0 control=64 value=127 time=89
note_on channel=0 note=39 velocity=0 time=71
note_on channel=0 note=46 velocity=37 time=0
<meta message set_tempo tempo=461538 time=120>
<meta message set_tempo tempo=459770 time=120>
note_on channel=0 note=46 velocity=0 time=0
note_on channel=0 note=50 velocity=47 time=0
<meta message set_tempo tempo=458015 time=80>
<meta message set_tempo tempo=456274 time=80>
<meta message set_tempo tempo=454545 time=80>
note_on channel=0 note=50 velocity=0 time=0
note_on channel=0 note=56 velocity=37 time=0
<meta message set_tempo tempo=452830 time=80>
<meta message set_tempo tempo=451128 time=80>
<meta message set_tempo tempo=449438 time=80>
note_on channel=0 note=56 velocity=0 time=0
note_on channel=0 note=50 velocity=50 time=0
<meta message set_tempo tempo=451128 time=40>
<meta message set_tempo tempo=452830 time=40>
<meta message set_tempo tempo=454545 time=40>
<meta message set_tempo tempo=456274 time=40>
<meta message set_tempo tempo=458015 time=40>
<meta message set_tempo tempo=459770 time=40>
note_on channel=0 note=50 velocity=0 time=0
note_on channel=0 note=46 velocity=46 time=0
<meta message set_tempo tempo=461538 time=40>
<meta message set_tempo tempo=463320 time=40>
<meta message set_tempo tempo=465116 time=40>
<meta message set_tempo tempo=466926 time=40>
<meta message set_tempo tempo=470588 time=40>
note_on channel=0 note=46 velocity=0 time=40
note_on channel=0 note=70 velocity=0 time=0
note_on channel=0 note=39 velocity=47 time=0
<meta message set_tempo tempo=454545 time=40>
note_on channel=0 note=39 velocity=0 time=200
note_on channel=0 note=46 velocity=40 time=0
<meta message set_tempo tempo=446097 time=240>
note_on channel=0 note=46 velocity=0 time=0
note_on channel=0 note=50 velocity=40 time=0
<meta message set_tempo tempo=444444 time=80>
<meta message set_tempo tempo=442804 time=80>
note_on channel=0 note=65 velocity=54 time=0
<meta message set_tempo tempo=441176 time=80>
note_on channel=0 note=50 velocity=0 time=0
note_on channel=0 note=58 velocity=40 time=0
<meta message set_tempo tempo=439560 time=80>
note_on channel=0 note=65 velocity=0 time=0
note_on channel=0 note=68 velocity=59 time=0
<meta message set_tempo tempo=437956 time=80>
<meta message set_tempo tempo=436364 time=80>
note_on channel=0 note=68 velocity=0 time=0
note_on channel=0 note=58 velocity=0 time=0
note_on channel=0 note=70 velocity=64 time=0
note_on channel=0 note=50 velocity=40 time=0
control_change channel=0 control=64 value=0 time=15
<meta message set_tempo tempo=437222 time=25>
control_change channel=0 control=64 value=127 time=59
note_on channel=0 note=70 velocity=0 time=61
note_on channel=0 note=74 velocity=68 time=0
note_on channel=0 note=50 velocity=0 time=80
note_on channel=0 note=46 velocity=40 time=0
<meta message set_tempo tempo=494193 time=80>
note_on channel=0 note=74 velocity=0 time=0
note_on channel=0 note=72 velocity=63 time=0
<meta message set_tempo tempo=459770 time=160>
note_on channel=0 note=72 velocity=0 time=0
note_on channel=0 note=46 velocity=0 time=0
note_on channel=0 note=70 velocity=70 time=0
note_on channel=0 note=39 velocity=54 time=0
control_change channel=0 control=64 value=0 time=16
control_change channel=0 control=64 value=127 time=93
note_on channel=0 note=39 velocity=0 time=131
note_on channel=0 note=46 velocity=42 time=0
<meta message set_tempo tempo=480000 time=240>
note_on channel=0 note=46 velocity=0 time=0
note_on channel=0 note=70 velocity=0 time=0
note_on channel=0 note=51 velocity=49 time=0
note_on channel=0 note=61 velocity=57 time=160
<meta message set_tempo tempo=461538 time=80>
note_on channel=0 note=51 velocity=0 time=0
note_on channel=0 note=55 velocity=42 time=0
note_on channel=0 note=63 velocity=56 time=80
<meta message set_tempo tempo=480000 time=160>
note_on channel=0 note=63 velocity=0 time=0
note_on channel=0 note=55 velocity=0 time=0
note_on channel=0 note=67 velocity=60 time=0
note_on channel=0 note=51 velocity=42 time=0
note_on channel=0 note=67 velocity=0 time=160
note_on channel=0 note=61 velocity=0 time=0
note_on channel=0 note=72 velocity=65 time=0
note_on channel=0 note=51 velocity=0 time=80
note_on channel=0 note=46 velocity=42 time=0
note_on channel=0 note=72 velocity=0 time=80
note_on channel=0 note=70 velocity=59 time=0
<meta message set_tempo tempo=458015 time=160>
note_on channel=0 note=70 velocity=0 time=0
note_on channel=0 note=46 velocity=0 time=0
note_on channel=0 note=68 velocity=65 time=0
note_on channel=0 note=39 velocity=46 time=0
control_change channel=0 control=64 value=0 time=5
control_change channel=0 control=64 value=127 time=104
note_on channel=0 note=39 velocity=0 time=131
note_on channel=0 note=47 velocity=42 time=0
note_on channel=0 note=47 velocity=0 time=240
note_on channel=0 note=51 velocity=42 time=0
note_on channel=0 note=51 velocity=0 time=240
note_on channel=0 note=68 velocity=0 time=0
note_on channel=0 note=59 velocity=60 time=0
note_on channel=0 note=56 velocity=42 time=0
note_on channel=0 note=56 velocity=0 time=240
note_on channel=0 note=63 velocity=62 time=0
note_on channel=0 note=51 velocity=42 time=0
<meta message set_tempo tempo=437222 time=40>
note_on channel=0 note=51 velocity=0 time=200
note_on channel=0 note=63 velocity=0 time=0
note_on channel=0 note=59 velocity=0 time=0
note_on channel=0 note=65 velocity=57 time=0
note_on channel=0 note=47 velocity=42 time=0
<meta message set_tempo tempo=494193 time=80>
<meta message set_tempo tempo=480000 time=140>
note_on channel=0 note=47 velocity=0 time=20
note_on channel=0 note=65 velocity=0 time=0
note_on channel=0 note=67 velocity=70 time=0
note_on channel=0 note=39 velocity=54 time=0
control_change channel=0 control=64 value=0 time=15
<meta message set_tempo tempo=478088 time=45>
<meta message set_tempo tempo=476190 time=80>
control_change channel=0 control=64 value=127 time=15
<meta message set_tempo tempo=474308 time=65>
note_on channel=0 note=39 velocity=0 time=20
note_on channel=0 note=46 velocity=37 time=0
<meta message set_tempo tempo=472441 time=20>
<meta message set_tempo tempo=470588 time=80>
<meta message set_tempo tempo=468750 time=80>
<meta message set_tempo tempo=466926 time=40>
<meta message set_tempo tempo=468750 time=20>
note_on channel=0 note=46 velocity=0 time=0
note_on channel=0 note=67 velocity=0 time=0
note_on channel=0 note=51 velocity=44 time=0
<meta message set_tempo tempo=465116 time=40>
<meta message set_tempo tempo=463320 time=40>
<meta message set_tempo tempo=461538 time=40>
<meta message set_tempo tempo=459770 time=40>
<meta message set_tempo tempo=458015 time=40>
<meta message set_tempo tempo=456274 time=40>
note_on channel=0 note=51 velocity=0 time=0
note_on channel=0 note=55 velocity=37 time=0
<meta message set_tempo tempo=454545 time=40>
<meta message set_tempo tempo=452830 time=40>
<meta message set_tempo tempo=451128 time=40>
<meta message set_tempo tempo=449438 time=40>
<meta message set_tempo tempo=447761 time=40>
<meta message set_tempo tempo=446097 time=40>
note_on channel=0 note=55 velocity=0 time=0
note_on channel=0 note=51 velocity=44 time=0
<meta message set_tempo tempo=444444 time=40>
<meta message set_tempo tempo=446097 time=40>
<meta message set_tempo tempo=447761 time=40>
<meta message set_tempo tempo=451128 time=40>
<meta message set_tempo tempo=452830 time=40>
<meta message set_tempo tempo=456274 time=40>
note_on channel=0 note=51 velocity=0 time=0
note_on channel=0 note=46 velocity=37 time=0
<meta message set_tempo tempo=458015 time=40>
<meta message set_tempo tempo=461538 time=40>
<meta message set_tempo tempo=463320 time=40>
<meta message set_tempo tempo=466926 time=40>
<meta message set_tempo tempo=468750 time=40>
<meta message set_tempo tempo=472441 time=40>
note_on channel=0 note=46 velocity=0 time=0
note_on channel=0 note=39 velocity=47 time=0
note_on channel=0 note=39 velocity=0 time=240
note_on channel=0 note=46 velocity=37 time=0
<meta message set_tempo tempo=461538 time=200>
<meta message set_tempo tempo=459770 time=40>
note_on channel=0 note=46 velocity=0 time=0
note_on channel=0 note=51 velocity=37 time=0
<meta message set_tempo tempo=458015 time=40>
<meta message set_tempo tempo=456274 time=40>
<meta message set_tempo tempo=454545 time=40>
<meta message set_tempo tempo=452830 time=40>
note_on channel=0 note=67 velocity=61 time=0
<meta message set_tempo tempo=451128 time=40>
<meta message set_tempo tempo=449438 time=40>
note_on channel=0 note=51 velocity=0 time=0
note_on channel=0 note=58 velocity=37 time=0
<meta message set_tempo tempo=447761 time=40>
<meta message set_tempo tempo=446097 time=40>
note_on channel=0 note=67 velocity=0 time=0
note_on channel=0 note=68 velocity=58 time=0
<meta message set_tempo tempo=444444 time=40>
<meta message set_tempo tempo=442804 time=40>
<meta message set_tempo tempo=441176 time=40>
<meta message set_tempo tempo=437222 time=40>
note_on channel=0 note=68 velocity=0 time=0
note_on channel=0 note=58 velocity=0 time=0
note_on channel=0 note=70 velocity=64 time=0
note_on channel=0 note=51 velocity=37 time=0
control_change channel=0 control=64 value=0 time=9
control_change channel=0 control=64 value=127 time=97
note_on channel=0 note=70 velocity=0 time=54
note_on channel=0 note=74 velocity=68 time=0
note_on channel=0 note=51 velocity=0 time=80
note_on channel=0 note=46 velocity=37 time=0
<meta message set_tempo tempo=494193 time=80>
note_on channel=0 note=74 velocity=0 time=0
note_on channel=0 note=72 velocity=58 time=0
<meta message set_tempo tempo=517241 time=160>
note_on channel=0 note=72 velocity=0 time=0
note_on channel=0 note=46 velocity=0 time=0
note_on channel=0 note=70 velocity=72 time=0
note_on channel=0 note=39 velocity=54 time=0
control_change channel=0 control=64 value=0 time=10
note_on channel=0 note=70 velocity=0 time=110
control_change channel=0 control=64 value=127 time=14
note_on channel=0 note=39 velocity=0 time=106
note_on channel=0 note=82 velocity=72 time=0
note_on channel=0 note=46 velocity=37 time=0
note_on channel=0 note=82 velocity=0 time=120
<meta message set_tempo tempo=472441 time=80>
<meta message set_tempo tempo=483871 time=20>
note_on channel=0 note=46 velocity=0 time=20
note_on channel=0 note=94 velocity=87 time=0
note_on channel=0 note=51 velocity=44 time=0
<meta message set_tempo tempo=481928 time=20>
<meta message set_tempo tempo=480000 time=40>
<meta message set_tempo tempo=476190 time=40>
<meta message set_tempo tempo=474308 time=40>
<meta message set_tempo tempo=470588 time=40>
<meta message set_tempo tempo=468750 time=40>
note_on channel=0 note=51 velocity=0 time=20
note_on channel=0 note=94 velocity=0 time=0
note_on channel=0 note=55 velocity=37 time=0
<meta message set_tempo tempo=466926 time=20>
<meta message set_tempo tempo=463320 time=40>
<meta message set_tempo tempo=461538 time=40>
<meta message set_tempo tempo=458015 time=40>
<meta message set_tempo tempo=456274 time=20>
<meta message set_tempo tempo=454545 time=40>
<meta message set_tempo tempo=456274 time=40>
note_on channel=0 note=55 velocity=0 time=0
note_on channel=0 note=51 velocity=44 time=0
<meta message set_tempo tempo=458015 time=40>
<meta message set_tempo tempo=459770 time=40>
<meta message set_tempo tempo=461538 time=40>
<meta message set_tempo tempo=463320 time=40>
<meta message set_tempo tempo=465116 time=40>
<meta message set_tempo tempo=466926 time=40>
note_on channel=0 note=51 velocity=0 time=0
note_on channel=0 note=46 velocity=37 time=0
<meta message set_tempo tempo=468750 time=40>
<meta message set_tempo tempo=470588 time=40>
<meta message set_tempo tempo=472441 time=40>
<meta message set_tempo tempo=474308 time=40>
<meta message set_tempo tempo=476190 time=40>
<meta message set_tempo tempo=458015 time=40>
note_on channel=0 note=46 velocity=0 time=0
note_on channel=0 note=39 velocity=41 time=0
note_on channel=0 note=39 velocity=0 time=240
note_on channel=0 note=46 velocity=29 time=0
<meta message set_tempo tempo=454545 time=240>
note_on channel=0 note=46 velocity=0 time=0
note_on channel=0 note=51 velocity=29 time=0
<meta message set_tempo tempo=452830 time=80>
<meta message set_tempo tempo=451128 time=40>
<meta message set_tempo tempo=449438 time=40>
note_on channel=0 note=67 velocity=38 time=0
<meta message set_tempo tempo=447761 time=40>
note_on channel=0 note=51 velocity=0 time=40
note_on channel=0 note=58 velocity=29 time=0
<meta message set_tempo tempo=446097 time=40>
<meta message set_tempo tempo=444444 time=40>
note_on channel=0 note=67 velocity=0 time=0
note_on channel=0 note=68 velocity=42 time=0
<meta message set_tempo tempo=442804 time=40>
<meta message set_tempo tempo=441176 time=40>
<meta message set_tempo tempo=439560 time=40>
note_on channel=0 note=68 velocity=0 time=40
note_on channel=0 note=58 velocity=0 time=0
note_on channel=0 note=70 velocity=46 time=0
note_on channel=0 note=51 velocity=29 time=0
control_change channel=0 control=64 value=0 time=15
<meta message set_tempo tempo=437222 time=25>
control_change channel=0 control=64 value=127 time=59
note_on channel=0 note=70 velocity=0 time=61
note_on channel=0 note=74 velocity=50 time=0
note_on channel=0 note=51 velocity=0 time=80
note_on channel=0 note=46 velocity=29 time=0
<meta message set_tempo tempo=494193 time=80>
note_on channel=0 note=74 velocity=0 time=0
note_on channel=0 note=72 velocity=45 time=0
<meta message set_tempo tempo=519481 time=160>
note_on channel=0 note=72 velocity=0 time=0
note_on channel=0 note=46 velocity=0 time=0
note_on channel=0 note=70 velocity=56 time=0
note_on channel=0 note=39 velocity=43 time=0
control_change channel=0 control=64 value=0 time=14
note_on channel=0 note=70 velocity=0 time=106
control_change channel=0 control=64 value=127 time=14
note_on channel=0 note=39 velocity=0 time=106
note_on channel=0 note=82 velocity=56 time=0
note_on channel=0 note=46 velocity=29 time=0
note_on channel=0 note=82 velocity=0 time=120
<meta message set_tempo tempo=481928 time=100>
note_on channel=0 note=46 velocity=0 time=20
note_on channel=0 note=94 velocity=67 time=0
note_on channel=0 note=50 velocity=35 time=0
<meta message set_tempo tempo=480000 time=20>
<meta message set_tempo tempo=478088 time=40>
<meta message set_tempo tempo=474308 time=40>
<meta message set_tempo tempo=472441 time=40>
<meta message set_tempo tempo=468750 time=40>
<meta message set_tempo tempo=466926 time=40>
note_on channel=0 note=50 velocity=0 time=20
note_on channel=0 note=94 velocity=0 time=0
note_on channel=0 note=56 velocity=29 time=0
<meta message set_tempo tempo=465116 time=20>
<meta message set_tempo tempo=461538 time=40>
<meta message set_tempo tempo=459770 time=40>
<meta message set_tempo tempo=456274 time=40>
<meta message set_tempo tempo=454545 time=40>
<meta message set_tempo tempo=451128 time=40>
<meta message set_tempo tempo=447761 time=20>
note_on channel=0 note=56 velocity=0 time=0
note_on channel=0 note=50 velocity=35 time=0
<meta message set_tempo tempo=449438 time=40>
<meta message set_tempo tempo=451128 time=40>
<meta message set_tempo tempo=454545 time=40>
<meta message set_tempo tempo=456274 time=40>
<meta message set_tempo tempo=458015 time=40>
<meta message set_tempo tempo=461538 time=40>
note_on channel=0 note=50 velocity=0 time=0
note_on channel=0 note=46 velocity=29 time=0
<meta message set_tempo tempo=463320 time=40>
<meta message set_tempo tempo=465116 time=40>
<meta message set_tempo tempo=468750 time=40>
<meta message set_tempo tempo=470588 time=40>
<meta message set_tempo tempo=474308 time=40>
note_on channel=0 note=46 velocity=0 time=40
note_on channel=0 note=39 velocity=37 time=0
<meta message set_tempo tempo=459770 time=40>
note_on channel=0 note=39 velocity=0 time=200
note_on channel=0 note=46 velocity=29 time=0
<meta message set_tempo tempo=454545 time=240>
note_on channel=0 note=46 velocity=0 time=0
note_on channel=0 note=50 velocity=29 time=0
<meta message set_tempo tempo=452830 time=80>
<meta message set_tempo tempo=451128 time=80>
note_on channel=0 note=65 velocity=39 time=0
<meta message set_tempo tempo=449438 time=40>
note_on channel=0 note=50 velocity=0 time=40
note_on channel=0 note=58 velocity=29 time=0
<meta message set_tempo tempo=447761 time=40>
<meta message set_tempo tempo=446097 time=40>
note_on channel=0 note=65 velocity=0 time=0
note_on channel=0 note=68 velocity=42 time=0
<meta message set_tempo tempo=444444 time=80>
<meta message set_tempo tempo=442804 time=40>
note_on channel=0 note=68 velocity=0 time=40
note_on channel=0 note=58 velocity=0 time=0
note_on channel=0 note=70 velocity=45 time=0
note_on channel=0 note=50 velocity=29 time=0
control_change channel=0 control=64 value=0 time=15
<meta message set_tempo tempo=437222 time=25>
control_change channel=0 control=64 value=127 time=59
note_on channel=0 note=70 velocity=0 time=61
note_on channel=0 note=74 velocity=48 time=0
note_on channel=0 note=50 velocity=0 time=80
note_on channel=0 note=46 velocity=29 time=0
<meta message set_tempo tempo=494193 time=80>
note_on channel=0 note=74 velocity=0 time=0
note_on channel=0 note=72 velocity=45 time=0
<meta message set_tempo tempo=458015 time=160>
note_on channel=0 note=72 velocity=0 time=0
note_on channel=0 note=46 velocity=0 time=0
note_on channel=0 note=70 velocity=56 time=0
note_on channel=0 note=39 velocity=43 time=0
control_change channel=0 control=64 value=0 time=18
control_change channel=0 control=64 value=127 time=102
note_on channel=0 note=39 velocity=0 time=120
note_on channel=0 note=46 velocity=33 time=0
<meta message set_tempo tempo=485830 time=240>
note_on channel=0 note=46 velocity=0 time=0
note_on channel=0 note=51 velocity=33 time=0
note_on channel=0 note=70 velocity=0 time=160
note_on channel=0 note=61 velocity=39 time=0
<meta message set_tempo tempo=461538 time=80>
note_on channel=0 note=51 velocity=0 time=0
note_on channel=0 note=55 velocity=33 time=0
note_on channel=0 note=63 velocity=43 time=80
<meta message set_tempo tempo=487805 time=160>
note_on channel=0 note=63 velocity=0 time=0
note_on channel=0 note=55 velocity=0 time=0
note_on channel=0 note=67 velocity=46 time=0
note_on channel=0 note=51 velocity=33 time=0
note_on channel=0 note=67 velocity=0 time=160
note_on channel=0 note=61 velocity=0 time=0
note_on channel=0 note=72 velocity=50 time=0
note_on channel=0 note=51 velocity=0 time=80
note_on channel=0 note=46 velocity=33 time=0
note_on channel=0 note=72 velocity=0 time=80
note_on channel=0 note=70 velocity=46 time=0
<meta message set_tempo tempo=461538 time=160>
note_on channel=0 note=70 velocity=0 time=0
note_on channel=0 note=46 velocity=0 time=0
note_on channel=0 note=68 velocity=51 time=0
note_on channel=0 note=39 velocity=38 time=0
control_change channel=0 control=64 value=0 time=5
control_change channel=0 control=64 value=127 time=44
note_on channel=0 note=39 velocity=0 time=191
note_on channel=0 note=47 velocity=33 time=0
note_on channel=0 note=47 velocity=0 time=240
note_on channel=0 note=51 velocity=33 time=0
note_on channel=0 note=51 velocity=0 time=240
note_on channel=0 note=68 velocity=0 time=0
note_on channel=0 note=59 velocity=49 time=0
note_on channel=0 note=56 velocity=33 time=0
note_on channel=0 note=56 velocity=0 time=240
note_on channel=0 note=63 velocity=51 time=0
note_on channel=0 note=51 velocity=33 time=0
<meta message set_tempo tempo=446097 time=40>
note_on channel=0 note=51 velocity=0 time=200
note_on channel=0 note=63 velocity=0 time=0
note_on channel=0 note=59 velocity=0 time=0
note_on channel=0 note=65 velocity=46 time=0
note_on channel=0 note=47 velocity=33 time=0
<meta message set_tempo tempo=494193 time=80>
<meta message set_tempo tempo=478088 time=160>
note_on channel=0 note=47 velocity=0 time=0
note_on channel=0 note=65 velocity=0 time=0
note_on channel=0 note=67 velocity=62 time=0
note_on channel=0 note=39 velocity=43 time=0
control_change channel=0 control=64 value=0 time=7
control_change channel=0 control=64 value=127 time=177
note_on channel=0 note=39 velocity=0 time=56
note_on channel=0 note=46 velocity=29 time=0
<meta message set_tempo tempo=463320 time=240>
note_on channel=0 note=46 velocity=0 time=0
note_on channel=0 note=51 velocity=35 time=0
note_on channel=0 note=51 velocity=0 time=240
note_on channel=0 note=55 velocity=29 time=0
note_on channel=0 note=55 velocity=0 time=240
note_on channel=0 note=51 velocity=35 time=0
note_on channel=0 note=51 velocity=0 time=240
note_on channel=0 note=46 velocity=29 time=0
<meta message set_tempo tempo=493827 time=240>
note_on channel=0 note=46 velocity=0 time=0
note_on channel=0 note=39 velocity=41 time=0
note_on channel=0 note=39 velocity=0 time=240
note_on channel=0 note=67 velocity=0 time=0
note_on channel=0 note=67 velocity=51 time=0
note_on channel=0 note=46 velocity=33 time=0
note_on channel=0 note=46 velocity=0 time=240
note_on channel=0 note=67 velocity=0 time=0
note_on channel=0 note=70 velocity=54 time=0
note_on channel=0 note=51 velocity=33 time=0
note_on channel=0 note=51 velocity=0 time=240
note_on channel=0 note=70 velocity=0 time=0
note_on channel=0 note=79 velocity=55 time=0
note_on channel=0 note=58 velocity=33 time=0
<meta message set_tempo tempo=470736 time=240>
note_on channel=0 note=58 velocity=0 time=0
note_on channel=0 note=79 velocity=0 time=0
note_on channel=0 note=77 velocity=60 time=0
note_on channel=0 note=51 velocity=33 time=0
note_on channel=0 note=51 velocity=0 time=240
note_on channel=0 note=77 velocity=0 time=0
note_on channel=0 note=75 velocity=55 time=0
note_on channel=0 note=46 velocity=33 time=0
<meta message set_tempo tempo=532056 time=80>
<meta message set_tempo tempo=495868 time=160>
note_on channel=0 note=46 velocity=0 time=0
note_on channel=0 note=75 velocity=0 time=0
note_on channel=0 note=70 velocity=66 time=0
note_on channel=0 note=39 velocity=45 time=0
control_change channel=0 control=64 value=0 time=5
control_change channel=0 control=64 value=127 time=108
note_on channel=0 note=39 velocity=0 time=127
note_on channel=0 note=46 velocity=33 time=0
<meta message set_tempo tempo=481928 time=240>
note_on channel=0 note=46 velocity=0 time=0
note_on channel=0 note=51 velocity=35 time=0
note_on channel=0 note=51 velocity=0 time=240
note_on channel=0 note=55 velocity=35 time=0
note_on channel=0 note=55 velocity=0 time=240
note_on channel=0 note=51 velocity=35 time=0
note_on channel=0 note=51 velocity=0 time=240
note_on channel=0 note=46 velocity=33 time=0
<meta message set_tempo tempo=493827 time=240>
note_on channel=0 note=46 velocity=0 time=0
note_on channel=0 note=39 velocity=41 time=0
note_on channel=0 note=39 velocity=0 time=240
note_on channel=0 note=70 velocity=0 time=0
note_on channel=0 note=67 velocity=51 time=0
note_on channel=0 note=46 velocity=33 time=0
note_on channel=0 note=46 velocity=0 time=240
note_on channel=0 note=67 velocity=0 time=0
note_on channel=0 note=70 velocity=54 time=0
note_on channel=0 note=51 velocity=33 time=0
note_on channel=0 note=51 velocity=0 time=240
note_on channel=0 note=70 velocity=0 time=0
note_on channel=0 note=79 velocity=55 time=0
note_on channel=0 note=58 velocity=33 time=0
<meta message set_tempo tempo=470736 time=240>
note_on channel=0 note=58 velocity=0 time=0
note_on channel=0 note=79 velocity=0 time=0
note_on channel=0 note=77 velocity=60 time=0
note_on channel=0 note=51 velocity=26 time=0
note_on channel=0 note=51 velocity=0 time=240
note_on channel=0 note=77 velocity=0 time=0
note_on channel=0 note=75 velocity=55 time=0
note_on channel=0 note=46 velocity=25 time=0
<meta message set_tempo tempo=532056 time=80>
note_on channel=0 note=46 velocity=0 time=160
note_on channel=0 note=75 velocity=0 time=0
note_on channel=0 note=74 velocity=66 time=0
note_on channel=0 note=43 velocity=48 time=0
control_change channel=0 control=64 value=0 time=4
control_change channel=0 control=64 value=127 time=152
note_on channel=0 note=43 velocity=0 time=84
note_on channel=0 note=50 velocity=33 time=0
<meta message set_tempo tempo=495172 time=240>
note_on channel=0 note=50 velocity=0 time=0
note_on channel=0 note=55 velocity=31 time=0
note_on channel=0 note=55 velocity=0 time=240
note_on channel=0 note=58 velocity=34 time=0
note_on channel=0 note=58 velocity=0 time=240
note_on channel=0 note=62 velocity=37 time=0
note_on channel=0 note=62 velocity=0 time=240
note_on channel=0 note=58 velocity=40 time=0
<meta message set_tempo tempo=506329 time=240>
note_on channel=0 note=58 velocity=0 time=0
note_on channel=0 note=67 velocity=45 time=0
note_on channel=0 note=67 velocity=0 time=240
note_on channel=0 note=74 velocity=0 time=0
note_on channel=0 note=70 velocity=51 time=0
note_on channel=0 note=62 velocity=40 time=0
note_on channel=0 note=62 velocity=0 time=240
note_on channel=0 note=70 velocity=0 time=0
note_on channel=0 note=74 velocity=54 time=0
note_on channel=0 note=58 velocity=39 time=0
note_on channel=0 note=58 velocity=0 time=240
note_on channel=0 note=74 velocity=0 time=0
note_on channel=0 note=82 velocity=55 time=0
note_on channel=0 note=55 velocity=38 time=0
<meta message set_tempo tempo=487805 time=240>
note_on channel=0 note=55 velocity=0 time=0
note_on channel=0 note=82 velocity=0 time=0
note_on channel=0 note=81 velocity=60 time=0
note_on channel=0 note=50 velocity=37 time=0
note_on channel=0 note=50 velocity=0 time=240
note_on channel=0 note=81 velocity=0 time=0
note_on channel=0 note=79 velocity=55 time=0
note_on channel=0 note=43 velocity=35 time=0
<meta message set_tempo tempo=532056 time=80>
note_on channel=0 note=43 velocity=0 time=160
note_on channel=0 note=79 velocity=0 time=0
note_on channel=0 note=74 velocity=69 time=0
note_on channel=0 note=31 velocity=42 time=0
control_change channel=0 control=64 value=0 time=9
control_change channel=0 control=64 value=127 time=175
note_on channel=0 note=31 velocity=0 time=56
note_on channel=0 note=43 velocity=32 time=0
<meta message set_tempo tempo=495172 time=240>
note_on channel=0 note=43 velocity=0 time=0
note_on channel=0 note=50 velocity=34 time=0
note_on channel=0 note=50 velocity=0 time=240
note_on channel=0 note=55 velocity=37 time=0
note_on channel=0 note=55 velocity=0 time=240
note_on channel=0 note=58 velocity=39 time=0
note_on channel=0 note=58 velocity=0 time=240
note_on channel=0 note=62 velocity=41 time=0
<meta message set_tempo tempo=506329 time=240>
note_on channel=0 note=62 velocity=0 time=0
note_on channel=0 note=70 velocity=42 time=0
note_on channel=0 note=70 velocity=0 time=240
note_on channel=0 note=74 velocity=0 time=0
note_on channel=0 note=70 velocity=51 time=0
note_on channel=0 note=67 velocity=41 time=0
note_on channel=0 note=67 velocity=0 time=240
note_on channel=0 note=70 velocity=0 time=0
note_on channel=0 note=74 velocity=54 time=0
note_on channel=0 note=62 velocity=39 time=0
note_on channel=0 note=62 velocity=0 time=240
note_on channel=0 note=74 velocity=0 time=0
note_on channel=0 note=82 velocity=55 time=0
note_on channel=0 note=58 velocity=38 time=0
<meta message set_tempo tempo=493827 time=240>
note_on channel=0 note=58 velocity=0 time=0
note_on channel=0 note=82 velocity=0 time=0
note_on channel=0 note=81 velocity=60 time=0
note_on channel=0 note=55 velocity=36 time=0
note_on channel=0 note=55 velocity=0 time=240
note_on channel=0 note=81 velocity=0 time=0
note_on channel=0 note=79 velocity=55 time=0
note_on channel=0 note=50 velocity=35 time=0
<meta message set_tempo tempo=532056 time=80>
<meta message set_tempo tempo=535714 time=160>
note_on channel=0 note=50 velocity=0 time=0
note_on channel=0 note=79 velocity=0 time=0
note_on channel=0 note=74 velocity=59 time=0
note_on channel=0 note=43 velocity=37 time=0
control_change channel=0 control=64 value=0 time=15
control_change channel=0 control=64 value=127 time=140
note_on channel=0 note=43 velocity=0 time=85
note_on channel=0 note=74 velocity=0 time=0
note_on channel=0 note=70 velocity=55 time=0
note_on channel=0 note=50 velocity=33 time=0
<meta message set_tempo tempo=528634 time=240>
note_on channel=0 note=50 velocity=0 time=0
note_on channel=0 note=70 velocity=0 time=0
note_on channel=0 note=74 velocity=54 time=0
note_on channel=0 note=62 velocity=33 time=0
note_on channel=0 note=74 velocity=0 time=240
note_on channel=0 note=82 velocity=53 time=0
note_on channel=0 note=82 velocity=0 time=240
note_on channel=0 note=62 velocity=0 time=0
note_on channel=0 note=81 velocity=56 time=0
note_on channel=0 note=81 velocity=0 time=240
note_on channel=0 note=79 velocity=51 time=0
note_on channel=0 note=79 velocity=0 time=240
note_on channel=0 note=74 velocity=56 time=0
control_change channel=0 control=64 value=0 time=15
note_on channel=0 note=74 velocity=0 time=225
note_on channel=0 note=70 velocity=51 time=0
note_on channel=0 note=70 velocity=0 time=240
note_on channel=0 note=74 velocity=51 time=0
note_on channel=0 note=74 velocity=0 time=240
note_on channel=0 note=82 velocity=54 time=0
note_on channel=0 note=82 velocity=0 time=240
note_on channel=0 note=81 velocity=50 time=0
note_on channel=0 note=81 velocity=0 time=240
note_on channel=0 note=79 velocity=49 time=0
<meta message set_tempo tempo=552995 time=240>
note_on channel=0 note=79 velocity=0 time=0
note_on channel=0 note=74 velocity=48 time=0
note_on channel=0 note=74 velocity=0 time=240
note_on channel=0 note=81 velocity=45 time=0
<meta message set_tempo tempo=530973 time=240>
note_on channel=0 note=81 velocity=0 time=0
note_on channel=0 note=84 velocity=52 time=0
<meta message set_tempo tempo=542986 time=40>
<meta message set_tempo tempo=545455 time=120>
<meta message set_tempo tempo=547945 time=80>
note_on channel=0 note=84 velocity=0 time=0
note_on channel=0 note=82 velocity=47 time=0
<meta message set_tempo tempo=550459 time=80>
<meta message set_tempo tempo=552995 time=80>
<meta message set_tempo tempo=555556 time=80>
note_on channel=0 note=82 velocity=0 time=0
note_on channel=0 note=79 velocity=50 time=0
<meta message set_tempo tempo=558140 time=120>
<meta message set_tempo tempo=560748 time=80>
note_on channel=0 note=79 velocity=0 time=40
note_on channel=0 note=75 velocity=46 time=0
<meta message set_tempo tempo=563380 time=40>
<meta message set_tempo tempo=566038 time=80>
<meta message set_tempo tempo=568720 time=80>
note_on channel=0 note=75 velocity=0 time=40
note_on channel=0 note=70 velocity=45 time=0
<meta message set_tempo tempo=571429 time=80>
<meta message set_tempo tempo=574163 time=80>
<meta message set_tempo tempo=576923 time=80>
note_on channel=0 note=70 velocity=0 time=0
note_on channel=0 note=67 velocity=45 time=0
<meta message set_tempo tempo=579710 time=80>
<meta message set_tempo tempo=582524 time=80>
<meta message set_tempo tempo=585366 time=80>
note_on channel=0 note=67 velocity=0 time=0
note_on channel=0 note=60 velocity=43 time=0
<meta message set_tempo tempo=588235 time=120>
<meta message set_tempo tempo=591133 time=80>
note_on channel=0 note=60 velocity=0 time=40
note_on channel=0 note=62 velocity=42 time=0
<meta message set_tempo tempo=594059 time=40>
<meta message set_tempo tempo=597015 time=80>
<meta message set_tempo tempo=600000 time=80>
note_on channel=0 note=62 velocity=0 time=40
note_on channel=0 note=65 velocity=41 time=0
<meta message set_tempo tempo=603015 time=80>
<meta message set_tempo tempo=606061 time=80>
<meta message set_tempo tempo=609137 time=80>
note_on channel=0 note=65 velocity=0 time=0
note_on channel=0 note=63 velocity=39 time=0
<meta message set_tempo tempo=612245 time=80>
<meta message set_tempo tempo=615385 time=80>
<meta message set_tempo tempo=600000 time=80>
note_on channel=0 note=63 velocity=0 time=0
note_on channel=0 note=50 velocity=28 time=0
control_change channel=0 control=64 value=127 time=347
note_on channel=0 note=38 velocity=25 time=133
note_on channel=0 note=38 velocity=0 time=475
note_on channel=0 note=38 velocity=25 time=5
note_on channel=0 note=38 velocity=0 time=475
<meta message set_tempo tempo=630186 time=5>
note_on channel=0 note=50 velocity=0 time=0
note_on channel=0 note=60 velocity=38 time=240
<meta message set_tempo tempo=556070 time=240>
note_on channel=0 note=62 velocity=37 time=0
note_on channel=0 note=38 velocity=39 time=0
note_on channel=0 note=66 velocity=37 time=240
note_on channel=0 note=38 velocity=0 time=235
<meta message set_tempo tempo=530082 time=5>
note_on channel=0 note=66 velocity=0 time=0
note_on channel=0 note=70 velocity=41 time=0
note_on channel=0 note=38 velocity=39 time=0
note_on channel=0 note=70 velocity=0 time=240
note_on channel=0 note=69 velocity=39 time=0
note_on channel=0 note=38 velocity=0 time=235
<meta message set_tempo tempo=506415 time=5>
note_on channel=0 note=60 velocity=0 time=0
note_on channel=0 note=62 velocity=0 time=0
note_on channel=0 note=69 velocity=0 time=0
note_on channel=0 note=67 velocity=37 time=0
control_change channel=0 control=64 value=0 time=14
control_change channel=0 control=64 value=127 time=215
<meta message set_tempo tempo=493218 time=251>
note_on channel=0 note=62 velocity=28 time=0
note_on channel=0 note=58 velocity=23 time=0
note_on channel=0 note=38 velocity=22 time=0
note_on channel=0 note=38 velocity=0 time=475
note_on channel=0 note=58 velocity=0 time=0
note_on channel=0 note=62 velocity=0 time=0
<meta message set_tempo tempo=527612 time=5>
note_on channel=0 note=58 velocity=23 time=0
note_on channel=0 note=62 velocity=28 time=0
note_on channel=0 note=38 velocity=22 time=0
note_on channel=0 note=38 velocity=0 time=475
note_on channel=0 note=62 velocity=0 time=0
note_on channel=0 note=58 velocity=0 time=0
<meta message set_tempo tempo=497512 time=5>
note_on channel=0 note=67 velocity=0 time=0
note_on channel=0 note=74 velocity=41 time=0
note_on channel=0 note=62 velocity=34 time=0
<meta message set_tempo tempo=501924 time=480>
note_on channel=0 note=67 velocity=28 time=0
note_on channel=0 note=50 velocity=21 time=0
note_on channel=0 note=55 velocity=21 time=0
note_on channel=0 note=55 velocity=0 time=475
note_on channel=0 note=67 velocity=0 time=0
note_on channel=0 note=50 velocity=0 time=0
<meta message set_tempo tempo=529381 time=5>
note_on channel=0 note=67 velocity=28 time=0
note_on channel=0 note=55 velocity=21 time=0
note_on channel=0 note=50 velocity=21 time=0
note_on channel=0 note=50 velocity=0 time=475
note_on channel=0 note=67 velocity=0 time=0
note_on channel=0 note=55 velocity=0 time=0
<meta message set_tempo tempo=557724 time=5>
note_on channel=0 note=62 velocity=0 time=0
note_on channel=0 note=74 velocity=0 time=0
note_on channel=0 note=72 velocity=39 time=0
note_on channel=0 note=60 velocity=34 time=0
control_change channel=0 control=64 value=0 time=9
control_change channel=0 control=64 value=127 time=243
<meta message set_tempo tempo=585594 time=228>
note_on channel=0 note=67 velocity=28 time=0
note_on channel=0 note=63 velocity=23 time=0
note_on channel=0 note=55 velocity=22 time=0
note_on channel=0 note=50 velocity=22 time=0
note_on channel=0 note=50 velocity=0 time=475
note_on channel=0 note=63 velocity=0 time=0
note_on channel=0 note=67 velocity=0 time=0
note_on channel=0 note=55 velocity=0 time=0
<meta message set_tempo tempo=557724 time=5>
note_on channel=0 note=67 velocity=28 time=0
note_on channel=0 note=63 velocity=23 time=0
note_on channel=0 note=50 velocity=22 time=0
note_on channel=0 note=55 velocity=22 time=0
note_on channel=0 note=55 velocity=0 time=475
note_on channel=0 note=63 velocity=0 time=0
note_on channel=0 note=67 velocity=0 time=0
note_on channel=0 note=50 velocity=0 time=0
<meta message set_tempo tempo=547995 time=5>
note_on channel=0 note=60 velocity=0 time=0
note_on channel=0 note=72 velocity=0 time=0
control_change channel=0 control=64 value=0 time=17
note_on channel=0 note=60 velocity=40 time=223
control_change channel=0 control=64 value=127 time=46
<meta message set_tempo tempo=537634 time=194>
note_on channel=0 note=62 velocity=37 time=0
note_on channel=0 note=38 velocity=39 time=0
note_on channel=0 note=66 velocity=37 time=240
note_on channel=0 note=38 velocity=0 time=235
<meta message set_tempo tempo=530082 time=5>
note_on channel=0 note=66 velocity=0 time=0
note_on channel=0 note=70 velocity=41 time=0
note_on channel=0 note=38 velocity=39 time=0
note_on channel=0 note=70 velocity=0 time=240
note_on channel=0 note=69 velocity=39 time=0
note_on channel=0 note=38 velocity=0 time=235
<meta message set_tempo tempo=499709 time=5>
note_on channel=0 note=60 velocity=0 time=0
note_on channel=0 note=62 velocity=0 time=0
note_on channel=0 note=69 velocity=0 time=0
note_on channel=0 note=67 velocity=37 time=0
control_change channel=0 control=64 value=0 time=6
control_change channel=0 control=64 value=127 time=337
<meta message set_tempo tempo=488958 time=137>
note_on channel=0 note=62 velocity=28 time=0
note_on channel=0 note=58 velocity=23 time=0
note_on channel=0 note=38 velocity=22 time=0
note_on channel=0 note=38 velocity=0 time=475
note_on channel=0 note=58 velocity=0 time=0
note_on channel=0 note=62 velocity=0 time=0
<meta message set_tempo tempo=527612 time=5>
note_on channel=0 note=58 velocity=23 time=0
note_on channel=0 note=62 velocity=28 time=0
note_on channel=0 note=38 velocity=22 time=0
note_on channel=0 note=38 velocity=0 time=475
note_on channel=0 note=62 velocity=0 time=0
note_on channel=0 note=58 velocity=0 time=0
<meta message set_tempo tempo=501924 time=5>
note_on channel=0 note=67 velocity=0 time=0
note_on channel=0 note=64 velocity=37 time=0
control_change channel=0 control=64 value=0 time=16
control_change channel=0 control=64 value=127 time=213
<meta message set_tempo tempo=515597 time=251>
note_on channel=0 note=57 velocity=23 time=0
note_on channel=0 note=55 velocity=23 time=0
note_on channel=0 note=61 velocity=28 time=0
note_on channel=0 note=38 velocity=21 time=0
<meta message set_tempo tempo=504159 time=40>
note_on channel=0 note=38 velocity=0 time=435
note_on channel=0 note=55 velocity=0 time=0
note_on channel=0 note=61 velocity=0 time=0
note_on channel=0 note=57 velocity=0 time=0
<meta message set_tempo tempo=527612 time=5>
note_on channel=0 note=57 velocity=23 time=0
note_on channel=0 note=61 velocity=28 time=0
note_on channel=0 note=55 velocity=23 time=0
note_on channel=0 note=38 velocity=21 time=0
note_on channel=0 note=38 velocity=0 time=475
note_on channel=0 note=61 velocity=0 time=0
note_on channel=0 note=55 velocity=0 time=0
note_on channel=0 note=57 velocity=0 time=0
<meta message set_tempo tempo=542741 time=5>
note_on channel=0 note=64 velocity=0 time=0
note_on channel=0 note=66 velocity=37 time=0
control_change channel=0 control=64 value=0 time=6
control_change channel=0 control=64 value=127 time=154
<meta message set_tempo tempo=515597 time=320>
note_on channel=0 note=62 velocity=23 time=0
note_on channel=0 note=57 velocity=19 time=0
note_on channel=0 note=54 velocity=19 time=0
note_on channel=0 note=38 velocity=16 time=0
<meta message set_tempo tempo=527612 time=40>
note_on channel=0 note=38 velocity=0 time=435
note_on channel=0 note=57 velocity=0 time=0
note_on channel=0 note=54 velocity=0 time=0
note_on channel=0 note=62 velocity=0 time=0
note_on channel=0 note=54 velocity=19 time=5
note_on channel=0 note=57 velocity=19 time=0
note_on channel=0 note=62 velocity=23 time=0
note_on channel=0 note=38 velocity=16 time=0
note_on channel=0 note=38 velocity=0 time=475
note_on channel=0 note=57 velocity=0 time=0
note_on channel=0 note=62 velocity=0 time=0
note_on channel=0 note=54 velocity=0 time=0
<meta message set_tempo tempo=547995 time=5>
note_on channel=0 note=66 velocity=0 time=0
control_change channel=0 control=64 value=0 time=14
note_on channel=0 note=60 velocity=40 time=226
control_change channel=0 control=64 value=127 time=46
<meta message set_tempo tempo=537634 time=194>
note_on channel=0 note=62 velocity=37 time=0
note_on channel=0 note=38 velocity=39 time=0
note_on channel=0 note=66 velocity=37 time=240
note_on channel=0 note=38 velocity=0 time=235
<meta message set_tempo tempo=530082 time=5>
note_on channel=0 note=66 velocity=0 time=0
note_on channel=0 note=70 velocity=41 time=0
note_on channel=0 note=38 velocity=39 time=0
note_on channel=0 note=70 velocity=0 time=240
note_on channel=0 note=69 velocity=39 time=0
note_on channel=0 note=38 velocity=0 time=235
<meta message set_tempo tempo=515597 time=5>
note_on channel=0 note=60 velocity=0 time=0
note_on channel=0 note=62 velocity=0 time=0
note_on channel=0 note=69 velocity=0 time=0
note_on channel=0 note=67 velocity=37 time=0
control_change channel=0 control=64 value=0 time=8
control_change channel=0 control=64 value=127 time=365
<meta message set_tempo tempo=497512 time=107>
note_on channel=0 note=58 velocity=23 time=0
note_on channel=0 note=62 velocity=28 time=0
note_on channel=0 note=38 velocity=22 time=0
note_on channel=0 note=38 velocity=0 time=475
note_on channel=0 note=62 velocity=0 time=0
note_on channel=0 note=58 velocity=0 time=0
<meta message set_tempo tempo=527612 time=5>
note_on channel=0 note=58 velocity=23 time=0
note_on channel=0 note=62 velocity=28 time=0
note_on channel=0 note=38 velocity=22 time=0
note_on channel=0 note=38 velocity=0 time=475
note_on channel=0 note=62 velocity=0 time=0
note_on channel=0 note=58 velocity=0 time=0
<meta message set_tempo tempo=483871 time=5>
note_on channel=0 note=67 velocity=0 time=0
note_on channel=0 note=74 velocity=58 time=0
note_on channel=0 note=62 velocity=43 time=0
<meta message set_tempo tempo=459348 time=480>
note_on channel=0 note=67 velocity=29 time=0
note_on channel=0 note=70 velocity=36 time=0
note_on channel=0 note=55 velocity=21 time=0
note_on channel=0 note=58 velocity=27 time=0
note_on channel=0 note=50 velocity=21 time=0
note_on channel=0 note=50 velocity=0 time=475
note_on channel=0 note=55 velocity=0 time=0
note_on channel=0 note=70 velocity=0 time=0
note_on channel=0 note=67 velocity=0 time=0
note_on channel=0 note=58 velocity=0 time=0
<meta message set_tempo tempo=517241 time=5>
note_on channel=0 note=67 velocity=29 time=0
note_on channel=0 note=70 velocity=36 time=0
note_on channel=0 note=58 velocity=27 time=0
note_on channel=0 note=55 velocity=21 time=0
note_on channel=0 note=50 velocity=21 time=0
note_on channel=0 note=50 velocity=0 time=475
note_on channel=0 note=58 velocity=0 time=0
note_on channel=0 note=70 velocity=0 time=0
note_on channel=0 note=67 velocity=0 time=0
note_on channel=0 note=55 velocity=0 time=0
<meta message set_tempo tempo=502092 time=5>
note_on channel=0 note=62 velocity=0 time=0
note_on channel=0 note=74 velocity=0 time=0
note_on channel=0 note=76 velocity=59 time=0
note_on channel=0 note=64 velocity=45 time=0
control_change channel=0 control=64 value=0 time=6
control_change channel=0 control=64 value=127 time=120
<meta message set_tempo tempo=475662 time=354>
note_on channel=0 note=67 velocity=29 time=0
note_on channel=0 note=70 velocity=36 time=0
note_on channel=0 note=58 velocity=27 time=0
note_on channel=0 note=50 velocity=21 time=0
note_on channel=0 note=55 velocity=21 time=0
note_on channel=0 note=55 velocity=0 time=475
note_on channel=0 note=58 velocity=0 time=0
note_on channel=0 note=70 velocity=0 time=0
note_on channel=0 note=67 velocity=0 time=0
note_on channel=0 note=50 velocity=0 time=0
<meta message set_tempo tempo=502092 time=5>
note_on channel=0 note=67 velocity=29 time=0
note_on channel=0 note=70 velocity=36 time=0
note_on channel=0 note=55 velocity=21 time=0
note_on channel=0 note=50 velocity=21 time=0
note_on channel=0 note=58 velocity=27 time=0
control_change channel=0 control=64 value=0 time=469
note_on channel=0 note=58 velocity=0 time=6
note_on channel=0 note=55 velocity=0 time=0
note_on channel=0 note=70 velocity=0 time=0
note_on channel=0 note=67 velocity=0 time=0
note_on channel=0 note=50 velocity=0 time=0
<meta message set_tempo tempo=533333 time=5>
note_on channel=0 note=64 velocity=0 time=0
note_on channel=0 note=76 velocity=0 time=0
note_on channel=0 note=58 velocity=40 time=240
control_change channel=0 control=64 value=127 time=46
<meta message set_tempo tempo=521739 time=194>
note_on channel=0 note=61 velocity=37 time=0
note_on channel=0 note=38 velocity=39 time=0
note_on channel=0 note=64 velocity=37 time=240
note_on channel=0 note=38 velocity=0 time=235
<meta message set_tempo tempo=510638 time=5>
note_on channel=0 note=64 velocity=0 time=0
note_on channel=0 note=69 velocity=41 time=0
note_on channel=0 note=38 velocity=39 time=0
note_on channel=0 note=69 velocity=0 time=240
note_on channel=0 note=67 velocity=39 time=0
note_on channel=0 note=38 velocity=0 time=235
<meta message set_tempo tempo=515597 time=5>
note_on channel=0 note=58 velocity=0 time=0
note_on channel=0 note=61 velocity=0 time=0
note_on channel=0 note=67 velocity=0 time=0
note_on channel=0 note=67 velocity=37 time=0
control_change channel=0 control=64 value=0 time=12
<meta message set_tempo tempo=489796 time=468>
note_on channel=0 note=61 velocity=27 time=0
note_on channel=0 note=58 velocity=27 time=0
note_on channel=0 note=64 velocity=33 time=0
note_on channel=0 note=38 velocity=26 time=0
control_change channel=0 control=64 value=127 time=114
note_on channel=0 note=38 velocity=0 time=361
note_on channel=0 note=58 velocity=0 time=0
note_on channel=0 note=64 velocity=0 time=0
note_on channel=0 note=61 velocity=0 time=0
<meta message set_tempo tempo=527612 time=5>
note_on channel=0 note=58 velocity=27 time=0
note_on channel=0 note=64 velocity=33 time=0
note_on channel=0 note=61 velocity=27 time=0
note_on channel=0 note=38 velocity=26 time=0
note_on channel=0 note=38 velocity=0 time=475
note_on channel=0 note=64 velocity=0 time=0
note_on channel=0 note=61 velocity=0 time=0
note_on channel=0 note=58 velocity=0 time=0
<meta message set_tempo tempo=489796 time=5>
note_on channel=0 note=67 velocity=0 time=0
note_on channel=0 note=76 velocity=62 time=0
note_on channel=0 note=64 velocity=48 time=0
<meta message set_tempo tempo=459348 time=480>
note_on channel=0 note=73 velocity=39 time=0
note_on channel=0 note=70 velocity=32 time=0
note_on channel=0 note=67 velocity=32 time=0
note_on channel=0 note=58 velocity=29 time=0
note_on channel=0 note=55 velocity=24 time=0
note_on channel=0 note=50 velocity=24 time=0
note_on channel=0 note=50 velocity=0 time=475
note_on channel=0 note=55 velocity=0 time=0
note_on channel=0 note=67 velocity=0 time=0
note_on channel=0 note=70 velocity=0 time=0
note_on channel=0 note=73 velocity=0 time=0
note_on channel=0 note=58 velocity=0 time=0
<meta message set_tempo tempo=513303 time=5>
note_on channel=0 note=73 velocity=41 time=0
note_on channel=0 note=70 velocity=32 time=0
note_on channel=0 note=67 velocity=32 time=0
note_on channel=0 note=55 velocity=24 time=0
note_on channel=0 note=50 velocity=24 time=0
note_on channel=0 note=58 velocity=29 time=0
note_on channel=0 note=58 velocity=0 time=475
note_on channel=0 note=50 velocity=0 time=0
note_on channel=0 note=67 velocity=0 time=0
note_on channel=0 note=70 velocity=0 time=0
note_on channel=0 note=73 velocity=0 time=0
note_on channel=0 note=55 velocity=0 time=0
<meta message set_tempo tempo=497925 time=5>
note_on channel=0 note=64 velocity=0 time=0
note_on channel=0 note=76 velocity=0 time=0
note_on channel=0 note=78 velocity=64 time=0
note_on channel=0 note=66 velocity=52 time=0
control_change channel=0 control=64 value=0 time=8
control_change channel=0 control=64 value=127 time=141
<meta message set_tempo tempo=459348 time=331>
note_on channel=0 note=67 velocity=35 time=0
note_on channel=0 note=70 velocity=35 time=0
note_on channel=0 note=73 velocity=41 time=0
note_on channel=0 note=58 velocity=32 time=0
note_on channel=0 note=50 velocity=24 time=0
note_on channel=0 note=55 velocity=24 time=0
<meta message set_tempo tempo=457108 time=120>
note_on channel=0 note=55 velocity=0 time=355
note_on channel=0 note=50 velocity=0 time=0
note_on channel=0 note=73 velocity=0 time=0
note_on channel=0 note=70 velocity=0 time=0
note_on channel=0 note=67 velocity=0 time=0
note_on channel=0 note=58 velocity=0 time=0
<meta message set_tempo tempo=478088 time=5>
note_on channel=0 note=67 velocity=35 time=0
note_on channel=0 note=70 velocity=35 time=0
note_on channel=0 note=73 velocity=43 time=0
note_on channel=0 note=55 velocity=24 time=0
note_on channel=0 note=58 velocity=32 time=0
note_on channel=0 note=50 velocity=24 time=0
note_on channel=0 note=50 velocity=0 time=475
note_on channel=0 note=58 velocity=0 time=0
note_on channel=0 note=73 velocity=0 time=0
note_on channel=0 note=70 velocity=0 time=0
note_on channel=0 note=67 velocity=0 time=0
note_on channel=0 note=55 velocity=0 time=0
<meta message set_tempo tempo=501924 time=5>
note_on channel=0 note=66 velocity=0 time=0
note_on channel=0 note=78 velocity=0 time=0
note_on channel=0 note=76 velocity=63 time=0
note_on channel=0 note=64 velocity=51 time=0
control_change channel=0 control=64 value=0 time=11
control_change channel=0 control=64 value=127 time=271
<meta message set_tempo tempo=466926 time=198>
note_on channel=0 note=73 velocity=44 time=0
note_on channel=0 note=70 velocity=36 time=0
note_on channel=0 note=67 velocity=36 time=0
note_on channel=0 note=55 velocity=26 time=0
note_on channel=0 note=58 velocity=32 time=0
note_on channel=0 note=50 velocity=26 time=0
note_on channel=0 note=50 velocity=0 time=475
note_on channel=0 note=58 velocity=0 time=0
note_on channel=0 note=67 velocity=0 time=0
note_on channel=0 note=70 velocity=0 time=0
note_on channel=0 note=73 velocity=0 time=0
note_on channel=0 note=55 velocity=0 time=0
<meta message set_tempo tempo=513303 time=5>
note_on channel=0 note=76 velocity=0 time=0
note_on channel=0 note=64 velocity=0 time=0
note_on channel=0 note=78 velocity=67 time=240
note_on channel=0 note=66 velocity=53 time=0
control_change channel=0 control=64 value=0 time=14
note_on channel=0 note=66 velocity=0 time=206
note_on channel=0 note=78 velocity=0 time=0
<meta message set_tempo tempo=500000 time=20>
note_on channel=0 note=78 velocity=67 time=0
note_on channel=0 note=66 velocity=53 time=0
control_change channel=0 control=64 value=127 time=149
<meta message set_tempo tempo=457108 time=331>
note_on channel=0 note=73 velocity=47 time=0
note_on channel=0 note=67 velocity=37 time=0
note_on channel=0 note=70 velocity=37 time=0
note_on channel=0 note=50 velocity=26 time=0
note_on channel=0 note=55 velocity=26 time=0
note_on channel=0 note=58 velocity=35 time=0
note_on channel=0 note=58 velocity=0 time=475
note_on channel=0 note=55 velocity=0 time=0
note_on channel=0 note=70 velocity=0 time=0
note_on channel=0 note=67 velocity=0 time=0
note_on channel=0 note=73 velocity=0 time=0
note_on channel=0 note=50 velocity=0 time=0
note_on channel=0 note=70 velocity=37 time=5
note_on channel=0 note=67 velocity=37 time=0
note_on channel=0 note=73 velocity=47 time=0
note_on channel=0 note=55 velocity=27 time=0
note_on channel=0 note=58 velocity=36 time=0
note_on channel=0 note=50 velocity=27 time=0
<meta message set_tempo tempo=481928 time=40>
<meta message set_tempo tempo=470884 time=80>
note_on channel=0 note=50 velocity=0 time=355
note_on channel=0 note=58 velocity=0 time=0
note_on channel=0 note=73 velocity=0 time=0
note_on channel=0 note=67 velocity=0 time=0
note_on channel=0 note=70 velocity=0 time=0
note_on channel=0 note=55 velocity=0 time=0
<meta message set_tempo tempo=501924 time=5>
note_on channel=0 note=66 velocity=0 time=0
note_on channel=0 note=78 velocity=0 time=0
note_on channel=0 note=76 velocity=73 time=0
note_on channel=0 note=64 velocity=56 time=0
control_change channel=0 control=64 value=0 time=13
control_change channel=0 control=64 value=127 time=269
<meta message set_tempo tempo=456274 time=198>
note_on channel=0 note=67 velocity=40 time=0
note_on channel=0 note=70 velocity=40 time=0
note_on channel=0 note=73 velocity=50 time=0
note_on channel=0 note=50 velocity=27 time=0
note_on channel=0 note=58 velocity=36 time=0
note_on channel=0 note=55 velocity=27 time=0
<meta message set_tempo tempo=470884 time=480>
note_on channel=0 note=55 velocity=0 time=0
note_on channel=0 note=76 velocity=0 time=0
note_on channel=0 note=73 velocity=0 time=0
note_on channel=0 note=64 velocity=0 time=0
note_on channel=0 note=67 velocity=0 time=0
note_on channel=0 note=70 velocity=0 time=0
note_on channel=0 note=50 velocity=0 time=0
note_on channel=0 note=58 velocity=0 time=0
note_on channel=0 note=78 velocity=73 time=240
note_on channel=0 note=66 velocity=56 time=0
control_change channel=0 control=64 value=0 time=10
note_on channel=0 note=66 velocity=0 time=210
note_on channel=0 note=78 velocity=0 time=0
<meta message set_tempo tempo=459348 time=20>
note_on channel=0 note=78 velocity=73 time=0
note_on channel=0 note=66 velocity=56 time=0
control_change channel=0 control=64 value=127 time=149
<meta message set_tempo tempo=444444 time=331>
note_on channel=0 note=73 velocity=52 time=0
note_on channel=0 note=70 velocity=41 time=0
note_on channel=0 note=67 velocity=41 time=0
note_on channel=0 note=58 velocity=37 time=0
note_on channel=0 note=55 velocity=29 time=0
note_on channel=0 note=50 velocity=29 time=0
note_on channel=0 note=50 velocity=0 time=475
note_on channel=0 note=55 velocity=0 time=0
note_on channel=0 note=67 velocity=0 time=0
note_on channel=0 note=70 velocity=0 time=0
note_on channel=0 note=73 velocity=0 time=0
note_on channel=0 note=58 velocity=0 time=0
<meta message set_tempo tempo=463320 time=5>
note_on channel=0 note=70 velocity=43 time=0
note_on channel=0 note=67 velocity=43 time=0
note_on channel=0 note=73 velocity=52 time=0
note_on channel=0 note=50 velocity=29 time=0
note_on channel=0 note=55 velocity=29 time=0
note_on channel=0 note=58 velocity=39 time=0
note_on channel=0 note=58 velocity=0 time=475
note_on channel=0 note=55 velocity=0 time=0
note_on channel=0 note=73 velocity=0 time=0
note_on channel=0 note=67 velocity=0 time=0
note_on channel=0 note=70 velocity=0 time=0
note_on channel=0 note=50 velocity=0 time=0
<meta message set_tempo tempo=475662 time=5>
note_on channel=0 note=66 velocity=0 time=0
note_on channel=0 note=78 velocity=0 time=0
note_on channel=0 note=76 velocity=75 time=0
note_on channel=0 note=64 velocity=60 time=0
control_change channel=0 control=64 value=0 time=15
control_change channel=0 control=64 value=127 time=267
<meta message set_tempo tempo=442804 time=198>
note_on channel=0 note=67 velocity=47 time=0
note_on channel=0 note=70 velocity=47 time=0
note_on channel=0 note=73 velocity=59 time=0
note_on channel=0 note=55 velocity=35 time=0
note_on channel=0 note=58 velocity=44 time=0
note_on channel=0 note=50 velocity=35 time=0
<meta message set_tempo tempo=470588 time=480>
note_on channel=0 note=50 velocity=0 time=0
note_on channel=0 note=76 velocity=0 time=0
note_on channel=0 note=73 velocity=0 time=0
note_on channel=0 note=64 velocity=0 time=0
note_on channel=0 note=67 velocity=0 time=0
note_on channel=0 note=70 velocity=0 time=0
note_on channel=0 note=55 velocity=0 time=0
note_on channel=0 note=58 velocity=0 time=0
note_on channel=0 note=78 velocity=77 time=240
note_on channel=0 note=66 velocity=66 time=0
<meta message set_tempo tempo=442804 time=240>
note_on channel=0 note=66 velocity=0 time=0
note_on channel=0 note=78 velocity=0 time=0
note_on channel=0 note=81 velocity=80 time=0
note_on channel=0 note=69 velocity=69 time=0
control_change channel=0 control=64 value=0 time=5
control_change channel=0 control=64 value=127 time=210
<meta message set_tempo tempo=424028 time=265>
note_on channel=0 note=73 velocity=58 time=0
note_on channel=0 note=70 velocity=58 time=0
note_on channel=0 note=76 velocity=72 time=0
note_on channel=0 note=64 velocity=52 time=0
note_on channel=0 note=58 velocity=42 time=0
note_on channel=0 note=61 velocity=42 time=0
note_on channel=0 note=61 velocity=0 time=475
note_on channel=0 note=58 velocity=0 time=0
note_on channel=0 note=76 velocity=0 time=0
note_on channel=0 note=70 velocity=0 time=0
note_on channel=0 note=73 velocity=0 time=0
note_on channel=0 note=64 velocity=0 time=0
note_on channel=0 note=76 velocity=73 time=5
note_on channel=0 note=73 velocity=58 time=0
note_on channel=0 note=70 velocity=58 time=0
note_on channel=0 note=58 velocity=42 time=0
note_on channel=0 note=64 velocity=55 time=0
note_on channel=0 note=61 velocity=42 time=0
note_on channel=0 note=61 velocity=0 time=475
note_on channel=0 note=64 velocity=0 time=0
note_on channel=0 note=70 velocity=0 time=0
note_on channel=0 note=73 velocity=0 time=0
note_on channel=0 note=76 velocity=0 time=0
note_on channel=0 note=58 velocity=0 time=0
<meta message set_tempo tempo=442804 time=5>
note_on channel=0 note=69 velocity=0 time=0
note_on channel=0 note=81 velocity=0 time=0
note_on channel=0 note=79 velocity=85 time=0
note_on channel=0 note=67 velocity=68 time=0
control_change channel=0 control=64 value=0 time=15
control_change channel=0 control=64 value=127 time=267
<meta message set_tempo tempo=413793 time=198>
note_on channel=0 note=70 velocity=62 time=0
note_on channel=0 note=76 velocity=79 time=0
note_on channel=0 note=73 velocity=62 time=0
note_on channel=0 note=64 velocity=57 time=0
note_on channel=0 note=58 velocity=45 time=0
note_on channel=0 note=61 velocity=45 time=0
<meta message set_tempo tempo=493827 time=480>
note_on channel=0 note=61 velocity=0 time=0
note_on channel=0 note=79 velocity=0 time=0
note_on channel=0 note=73 velocity=0 time=0
note_on channel=0 note=67 velocity=0 time=0
note_on channel=0 note=70 velocity=0 time=0
note_on channel=0 note=76 velocity=0 time=0
note_on channel=0 note=64 velocity=0 time=0
note_on channel=0 note=58 velocity=0 time=0
note_on channel=0 note=81 velocity=93 time=0
note_on channel=0 note=69 velocity=75 time=0
<meta message set_tempo tempo=449438 time=480>
note_on channel=0 note=69 velocity=0 time=0
note_on channel=0 note=81 velocity=0 time=0
note_on channel=0 note=74 velocity=86 time=0
note_on channel=0 note=70 velocity=86 time=0
note_on channel=0 note=82 velocity=101 time=0
note_on channel=0 note=26 velocity=70 time=0
note_on channel=0 note=38 velocity=82 time=0
control_change channel=0 control=64 value=0 time=5
control_change channel=0 control=64 value=127 time=101
note_on channel=0 note=38 velocity=0 time=374
note_on channel=0 note=82 velocity=0 time=0
note_on channel=0 note=74 velocity=0 time=0
note_on channel=0 note=70 velocity=0 time=0
note_on channel=0 note=26 velocity=0 time=0
note_on channel=0 note=50 velocity=56 time=0
note_on channel=0 note=58 velocity=66 time=0
<meta message set_tempo tempo=481928 time=240>
note_on channel=0 note=86 velocity=80 time=0
note_on channel=0 note=94 velocity=95 time=0
note_on channel=0 note=94 velocity=0 time=220
note_on channel=0 note=86 velocity=0 time=0
<meta message set_tempo tempo=466926 time=20>
note_on channel=0 note=58 velocity=0 time=0
note_on channel=0 note=50 velocity=0 time=0
note_on channel=0 note=96 velocity=101 time=0
note_on channel=0 note=87 velocity=86 time=0
note_on channel=0 note=62 velocity=66 time=0
note_on channel=0 note=55 velocity=56 time=0
note_on channel=0 note=87 velocity=0 time=220
note_on channel=0 note=96 velocity=0 time=0
<meta message set_tempo tempo=451128 time=20>
note_on channel=0 note=86 velocity=80 time=0
note_on channel=0 note=94 velocity=95 time=0
note_on channel=0 note=94 velocity=0 time=220
note_on channel=0 note=86 velocity=0 time=0
<meta message set_tempo tempo=444444 time=20>
note_on channel=0 note=62 velocity=0 time=0
note_on channel=0 note=55 velocity=0 time=0
note_on channel=0 note=93 velocity=97 time=0
note_on channel=0 note=84 velocity=82 time=0
note_on channel=0 note=58 velocity=56 time=0
note_on channel=0 note=67 velocity=66 time=0
note_on channel=0 note=84 velocity=0 time=220
note_on channel=0 note=93 velocity=0 time=0
note_on channel=0 note=82 velocity=80 time=20
note_on channel=0 note=91 velocity=95 time=0
note_on channel=0 note=91 velocity=0 time=220
note_on channel=0 note=82 velocity=0 time=0
note_on channel=0 note=58 velocity=0 time=20
note_on channel=0 note=67 velocity=0 time=0
note_on channel=0 note=81 velocity=80 time=0
note_on channel=0 note=90 velocity=94 time=0
note_on channel=0 note=55 velocity=56 time=0
note_on channel=0 note=62 velocity=66 time=0
note_on channel=0 note=90 velocity=0 time=220
note_on channel=0 note=81 velocity=0 time=0
note_on channel=0 note=82 velocity=79 time=20
note_on channel=0 note=91 velocity=93 time=0
note_on channel=0 note=91 velocity=0 time=220
note_on channel=0 note=82 velocity=0 time=0
<meta message set_tempo tempo=447761 time=20>
note_on channel=0 note=55 velocity=0 time=0
note_on channel=0 note=62 velocity=0 time=0
note_on channel=0 note=89 velocity=93 time=0
note_on channel=0 note=81 velocity=79 time=0
note_on channel=0 note=58 velocity=79 time=0
note_on channel=0 note=50 velocity=67 time=0
control_change channel=0 control=64 value=0 time=7
note_on channel=0 note=81 velocity=0 time=213
note_on channel=0 note=89 velocity=0 time=0
<meta message set_tempo tempo=456274 time=140>
note_on channel=0 note=87 velocity=92 time=0
note_on channel=0 note=79 velocity=78 time=0
note_on channel=0 note=79 velocity=0 time=90
note_on channel=0 note=87 velocity=0 time=0
<meta message set_tempo tempo=442804 time=30>
note_on channel=0 note=58 velocity=0 time=0
note_on channel=0 note=50 velocity=0 time=0
note_on channel=0 note=87 velocity=91 time=0
note_on channel=0 note=79 velocity=77 time=0
note_on channel=0 note=26 velocity=56 time=0
note_on channel=0 note=38 velocity=66 time=0
control_change channel=0 control=64 value=127 time=51
note_on channel=0 note=79 velocity=0 time=169
note_on channel=0 note=87 velocity=0 time=0
note_on channel=0 note=86 velocity=90 time=20
note_on channel=0 note=78 velocity=75 time=0
note_on channel=0 note=78 velocity=0 time=220
note_on channel=0 note=86 velocity=0 time=0
note_on channel=0 note=26 velocity=0 time=20
note_on channel=0 note=38 velocity=0 time=0
note_on channel=0 note=84 velocity=89 time=0
note_on channel=0 note=75 velocity=74 time=0
note_on channel=0 note=50 velocity=56 time=0
note_on channel=0 note=60 velocity=66 time=0
note_on channel=0 note=54 velocity=56 time=0
note_on channel=0 note=75 velocity=0 time=220
note_on channel=0 note=84 velocity=0 time=0
note_on channel=0 note=74 velocity=73 time=20
note_on channel=0 note=82 velocity=86 time=0
note_on channel=0 note=82 velocity=0 time=220
note_on channel=0 note=74 velocity=0 time=0
note_on channel=0 note=54 velocity=0 time=20
note_on channel=0 note=50 velocity=0 time=0
note_on channel=0 note=60 velocity=0 time=0
note_on channel=0 note=81 velocity=85 time=0
note_on channel=0 note=72 velocity=72 time=0
note_on channel=0 note=62 velocity=59 time=0
note_on channel=0 note=54 velocity=49 time=0
note_on channel=0 note=60 velocity=49 time=0
note_on channel=0 note=72 velocity=0 time=220
note_on channel=0 note=81 velocity=0 time=0
<meta message set_tempo tempo=465116 time=20>
note_on channel=0 note=79 velocity=83 time=0
note_on channel=0 note=70 velocity=70 time=0
note_on channel=0 note=70 velocity=0 time=220
note_on channel=0 note=79 velocity=0 time=0
<meta message set_tempo tempo=483871 time=20>
note_on channel=0 note=60 velocity=0 time=0
note_on channel=0 note=62 velocity=0 time=0
note_on channel=0 note=54 velocity=0 time=0
note_on channel=0 note=69 velocity=72 time=0
note_on channel=0 note=78 velocity=85 time=0
note_on channel=0 note=60 velocity=55 time=0
note_on channel=0 note=66 velocity=64 time=0
control_change channel=0 control=64 value=0 time=14
note_on channel=0 note=78 velocity=0 time=126
note_on channel=0 note=69 velocity=0 time=0
note_on channel=0 note=75 velocity=85 time=20
note_on channel=0 note=72 velocity=72 time=0
note_on channel=0 note=72 velocity=0 time=140
note_on channel=0 note=75 velocity=0 time=0
note_on channel=0 note=74 velocity=86 time=20
note_on channel=0 note=72 velocity=73 time=0
<meta message set_tempo tempo=512821 time=120>
note_on channel=0 note=72 velocity=0 time=20
note_on channel=0 note=74 velocity=0 time=0
<meta message set_tempo tempo=600000 time=20>
note_on channel=0 note=60 velocity=0 time=0
note_on channel=0 note=66 velocity=0 time=0
note_on channel=0 note=74 velocity=88 time=0
note_on channel=0 note=71 velocity=74 time=0
note_on channel=0 note=60 velocity=58 time=0
note_on channel=0 note=54 velocity=58 time=0
note_on channel=0 note=62 velocity=69 time=0
<meta message set_tempo tempo=603015 time=80>
note_on channel=0 note=71 velocity=0 time=10
note_on channel=0 note=74 velocity=0 time=0
note_on channel=0 note=74 velocity=88 time=6
note_on channel=0 note=70 velocity=74 time=0
<meta message set_tempo tempo=606061 time=24>
<meta message set_tempo tempo=609137 time=40>
note_on channel=0 note=70 velocity=0 time=26
note_on channel=0 note=74 velocity=0 time=0
note_on channel=0 note=74 velocity=88 time=6
note_on channel=0 note=69 velocity=74 time=0
<meta message set_tempo tempo=612245 time=8>
<meta message set_tempo tempo=615385 time=80>
note_on channel=0 note=69 velocity=0 time=2
note_on channel=0 note=74 velocity=0 time=0
note_on channel=0 note=74 velocity=89 time=6
note_on channel=0 note=68 velocity=74 time=0
<meta message set_tempo tempo=618557 time=32>
<meta message set_tempo tempo=621762 time=40>
note_on channel=0 note=68 velocity=0 time=18
note_on channel=0 note=74 velocity=0 time=0
note_on channel=0 note=69 velocity=74 time=6
note_on channel=0 note=74 velocity=89 time=0
<meta message set_tempo tempo=625000 time=16>
<meta message set_tempo tempo=615385 time=40>
note_on channel=0 note=74 velocity=0 time=34
note_on channel=0 note=69 velocity=0 time=0
note_on channel=0 note=54 velocity=0 time=6
note_on channel=0 note=60 velocity=0 time=0
note_on channel=0 note=62 velocity=0 time=0
note_on channel=0 note=70 velocity=75 time=0
note_on channel=0 note=74 velocity=90 time=0
note_on channel=0 note=50 velocity=61 time=0
note_on channel=0 note=54 velocity=61 time=0
note_on channel=0 note=60 velocity=73 time=0
<meta message set_tempo tempo=618557 time=40>
note_on channel=0 note=74 velocity=0 time=60
note_on channel=0 note=70 velocity=0 time=0
<meta message set_tempo tempo=621762 time=20>
note_on channel=0 note=69 velocity=75 time=0
note_on channel=0 note=74 velocity=90 time=0
<meta message set_tempo tempo=625000 time=80>
note_on channel=0 note=74 velocity=0 time=20
note_on channel=0 note=69 velocity=0 time=0
<meta message set_tempo tempo=628272 time=20>
note_on channel=0 note=72 velocity=77 time=0
note_on channel=0 note=74 velocity=91 time=0
<meta message set_tempo tempo=631579 time=80>
note_on channel=0 note=74 velocity=0 time=20
note_on channel=0 note=72 velocity=0 time=0
note_on channel=0 note=74 velocity=91 time=20
note_on channel=0 note=70 velocity=77 time=0
<meta message set_tempo tempo=634921 time=40>
<meta message set_tempo tempo=638298 time=40>
note_on channel=0 note=70 velocity=0 time=20
note_on channel=0 note=74 velocity=0 time=0
<meta message time_signature numerator=4 denominator=8 clocks_per_click=12 notated_32nd_notes_per_beat=8 time=20>
<meta message set_tempo tempo=503990 time=0>
note_on channel=0 note=60 velocity=0 time=0
note_on channel=0 note=50 velocity=0 time=0
note_on channel=0 note=54 velocity=0 time=0
note_on channel=0 note=67 velocity=85 time=0
note_on channel=0 note=74 velocity=91 time=0
note_on channel=0 note=43 velocity=73 time=0
note_on channel=0 note=31 velocity=73 time=0
control_change channel=0 control=64 value=127 time=57
note_on channel=0 note=74 velocity=0 time=43
note_on channel=0 note=67 velocity=0 time=0
<meta message set_tempo tempo=483014 time=140>
note_on channel=0 note=43 velocity=0 time=0
note_on channel=0 note=31 velocity=0 time=0
note_on channel=0 note=86 velocity=73 time=0
note_on channel=0 note=91 velocity=73 time=0
note_on channel=0 note=94 velocity=87 time=0
note_on channel=0 note=94 velocity=0 time=100
note_on channel=0 note=91 velocity=0 time=0
note_on channel=0 note=86 velocity=0 time=0
note_on channel=0 note=81 velocity=76 time=20
note_on channel=0 note=81 velocity=0 time=100
note_on channel=0 note=62 velocity=55 time=20
note_on channel=0 note=67 velocity=66 time=0
note_on channel=0 note=58 velocity=55 time=0
<meta message set_tempo tempo=487805 time=120>
note_on channel=0 note=86 velocity=67 time=0
note_on channel=0 note=91 velocity=79 time=0
note_on channel=0 note=82 velocity=67 time=0
note_on channel=0 note=82 velocity=0 time=100
note_on channel=0 note=86 velocity=0 time=0
note_on channel=0 note=91 velocity=0 time=0
<meta message set_tempo tempo=481928 time=20>
note_on channel=0 note=62 velocity=0 time=0
note_on channel=0 note=58 velocity=0 time=0
note_on channel=0 note=67 velocity=0 time=0
note_on channel=0 note=91 velocity=87 time=0
note_on channel=0 note=86 velocity=73 time=0
note_on channel=0 note=82 velocity=73 time=0
note_on channel=0 note=46 velocity=53 time=0
note_on channel=0 note=82 velocity=0 time=100
note_on channel=0 note=91 velocity=0 time=0
note_on channel=0 note=86 velocity=0 time=0
note_on channel=0 note=46 velocity=0 time=20
note_on channel=0 note=78 velocity=75 time=0
control_change channel=0 control=64 value=0 time=10
note_on channel=0 note=78 velocity=0 time=90
note_on channel=0 note=67 velocity=64 time=20
note_on channel=0 note=58 velocity=53 time=0
note_on channel=0 note=62 velocity=53 time=0
control_change channel=0 control=64 value=127 time=6
<meta message set_tempo tempo=491803 time=114>
note_on channel=0 note=79 velocity=67 time=0
note_on channel=0 note=82 velocity=67 time=0
note_on channel=0 note=86 velocity=79 time=0
note_on channel=0 note=86 velocity=0 time=100
note_on channel=0 note=79 velocity=0 time=0
note_on channel=0 note=82 velocity=0 time=0
<meta message set_tempo tempo=481928 time=20>
note_on channel=0 note=67 velocity=0 time=0
note_on channel=0 note=62 velocity=0 time=0
note_on channel=0 note=58 velocity=0 time=0
note_on channel=0 note=82 velocity=73 time=0
note_on channel=0 note=79 velocity=73 time=0
note_on channel=0 note=86 velocity=87 time=0
note_on channel=0 note=50 velocity=57 time=0
note_on channel=0 note=86 velocity=0 time=100
note_on channel=0 note=82 velocity=0 time=0
note_on channel=0 note=79 velocity=0 time=0
note_on channel=0 note=50 velocity=0 time=20
note_on channel=0 note=73 velocity=78 time=0
control_change channel=0 control=64 value=0 time=10
note_on channel=0 note=73 velocity=0 time=90
note_on channel=0 note=67 velocity=64 time=20
note_on channel=0 note=62 velocity=53 time=0
note_on channel=0 note=58 velocity=53 time=0
control_change channel=0 control=64 value=127 time=46
note_on channel=0 note=82 velocity=78 time=74
note_on channel=0 note=79 velocity=66 time=0
note_on channel=0 note=74 velocity=66 time=0
<meta message set_tempo tempo=489796 time=20>
note_on channel=0 note=74 velocity=0 time=80
note_on channel=0 note=82 velocity=0 time=0
note_on channel=0 note=79 velocity=0 time=0
<meta message set_tempo tempo=481928 time=20>
note_on channel=0 note=67 velocity=0 time=0
note_on channel=0 note=58 velocity=0 time=0
note_on channel=0 note=62 velocity=0 time=0
note_on channel=0 note=74 velocity=73 time=0
note_on channel=0 note=79 velocity=73 time=0
note_on channel=0 note=82 velocity=87 time=0
note_on channel=0 note=55 velocity=54 time=0
note_on channel=0 note=82 velocity=0 time=100
note_on channel=0 note=74 velocity=0 time=0
note_on channel=0 note=79 velocity=0 time=0
note_on channel=0 note=55 velocity=0 time=20
note_on channel=0 note=70 velocity=75 time=0
control_change channel=0 control=64 value=0 time=10
note_on channel=0 note=70 velocity=0 time=90
note_on channel=0 note=63 velocity=53 time=20
note_on channel=0 note=60 velocity=53 time=0
note_on channel=0 note=57 velocity=53 time=0
note_on channel=0 note=67 velocity=64 time=0
control_change channel=0 control=64 value=127 time=17
<meta message set_tempo tempo=487805 time=103>
note_on channel=0 note=84 velocity=78 time=0
note_on channel=0 note=79 velocity=66 time=0
note_on channel=0 note=75 velocity=66 time=0
note_on channel=0 note=75 velocity=0 time=100
note_on channel=0 note=84 velocity=0 time=0
note_on channel=0 note=79 velocity=0 time=0
<meta message set_tempo tempo=481928 time=20>
note_on channel=0 note=57 velocity=0 time=0
note_on channel=0 note=63 velocity=0 time=0
note_on channel=0 note=60 velocity=0 time=0
note_on channel=0 note=67 velocity=0 time=0
note_on channel=0 note=84 velocity=87 time=0
note_on channel=0 note=79 velocity=73 time=0
note_on channel=0 note=75 velocity=73 time=0
note_on channel=0 note=45 velocity=55 time=0
note_on channel=0 note=75 velocity=0 time=100
note_on channel=0 note=84 velocity=0 time=0
note_on channel=0 note=79 velocity=0 time=0
note_on channel=0 note=45 velocity=0 time=20
note_on channel=0 note=74 velocity=75 time=0
control_change channel=0 control=64 value=0 time=7
note_on channel=0 note=74 velocity=0 time=93
note_on channel=0 note=73 velocity=75 time=20
note_on channel=0 note=60 velocity=53 time=0
note_on channel=0 note=67 velocity=64 time=0
note_on channel=0 note=63 velocity=53 time=0
control_change channel=0 control=64 value=127 time=23
note_on channel=0 note=73 velocity=0 time=77
<meta message set_tempo tempo=487805 time=20>
note_on channel=0 note=72 velocity=75 time=0
note_on channel=0 note=72 velocity=0 time=100
<meta message set_tempo tempo=481928 time=20>
note_on channel=0 note=63 velocity=0 time=0
note_on channel=0 note=67 velocity=0 time=0
note_on channel=0 note=60 velocity=0 time=0
note_on channel=0 note=79 velocity=73 time=0
note_on channel=0 note=84 velocity=87 time=0
note_on channel=0 note=75 velocity=73 time=0
note_on channel=0 note=57 velocity=55 time=0
note_on channel=0 note=75 velocity=0 time=100
note_on channel=0 note=79 velocity=0 time=0
note_on channel=0 note=84 velocity=0 time=0
note_on channel=0 note=57 velocity=0 time=20
note_on channel=0 note=74 velocity=74 time=0
control_change channel=0 control=64 value=0 time=10
note_on channel=0 note=74 velocity=0 time=90
<meta message set_tempo tempo=481039 time=20>
note_on channel=0 note=73 velocity=76 time=0
note_on channel=0 note=66 velocity=64 time=0
note_on channel=0 note=62 velocity=53 time=0
note_on channel=0 note=60 velocity=53 time=0
control_change channel=0 control=64 value=127 time=17
<meta message set_tempo tempo=483014 time=83>
note_on channel=0 note=73 velocity=0 time=0
note_on channel=0 note=72 velocity=76 time=20
<meta message set_tempo tempo=485044 time=80>
note_on channel=0 note=72 velocity=0 time=20
note_on channel=0 note=60 velocity=0 time=20
note_on channel=0 note=62 velocity=0 time=0
note_on channel=0 note=66 velocity=0 time=0
note_on channel=0 note=75 velocity=73 time=0
note_on channel=0 note=78 velocity=73 time=0
note_on channel=0 note=84 velocity=87 time=0
note_on channel=0 note=50 velocity=56 time=0
<meta message set_tempo tempo=487092 time=60>
note_on channel=0 note=84 velocity=0 time=40
note_on channel=0 note=75 velocity=0 time=0
note_on channel=0 note=78 velocity=0 time=0
note_on channel=0 note=50 velocity=0 time=20
note_on channel=0 note=74 velocity=76 time=0
control_change channel=0 control=64 value=0 time=4
<meta message set_tempo tempo=489157 time=36>
note_on channel=0 note=74 velocity=0 time=60
note_on channel=0 note=73 velocity=76 time=20
note_on channel=0 note=60 velocity=53 time=0
note_on channel=0 note=66 velocity=63 time=0
note_on channel=0 note=62 velocity=53 time=0
<meta message set_tempo tempo=491159 time=20>
control_change channel=0 control=64 value=127 time=1
note_on channel=0 note=73 velocity=0 time=79
<meta message set_tempo tempo=493259 time=20>
note_on channel=0 note=72 velocity=76 time=0
<meta message set_tempo tempo=495417 time=100>
note_on channel=0 note=72 velocity=0 time=0
note_on channel=0 note=62 velocity=0 time=20
note_on channel=0 note=66 velocity=0 time=0
note_on channel=0 note=60 velocity=0 time=0
note_on channel=0 note=74 velocity=73 time=0
note_on channel=0 note=78 velocity=73 time=0
note_on channel=0 note=81 velocity=87 time=0
note_on channel=0 note=57 velocity=56 time=0
<meta message set_tempo tempo=497471 time=80>
note_on channel=0 note=81 velocity=0 time=20
note_on channel=0 note=74 velocity=0 time=0
note_on channel=0 note=78 velocity=0 time=0
note_on channel=0 note=57 velocity=0 time=20
note_on channel=0 note=72 velocity=76 time=0
control_change channel=0 control=64 value=0 time=12
<meta message set_tempo tempo=499584 time=48>
note_on channel=0 note=72 velocity=0 time=40
<meta message set_tempo tempo=506116 time=20>
note_on channel=0 note=79 velocity=73 time=0
note_on channel=0 note=82 velocity=87 time=0
note_on channel=0 note=70 velocity=73 time=0
note_on channel=0 note=74 velocity=73 time=0
note_on channel=0 note=55 velocity=55 time=0
note_on channel=0 note=62 velocity=55 time=0
note_on channel=0 note=67 velocity=66 time=0
control_change channel=0 control=64 value=127 time=57
<meta message set_tempo tempo=487092 time=183>
note_on channel=0 note=67 velocity=0 time=0
note_on channel=0 note=55 velocity=0 time=0
note_on channel=0 note=82 velocity=0 time=0
note_on channel=0 note=70 velocity=0 time=0
note_on channel=0 note=79 velocity=0 time=0
note_on channel=0 note=62 velocity=0 time=0
note_on channel=0 note=74 velocity=0 time=0
note_on channel=0 note=86 velocity=73 time=0
note_on channel=0 note=94 velocity=87 time=0
note_on channel=0 note=91 velocity=73 time=0
note_on channel=0 note=43 velocity=53 time=0
note_on channel=0 note=91 velocity=0 time=100
note_on channel=0 note=86 velocity=0 time=0
note_on channel=0 note=94 velocity=0 time=0
note_on channel=0 note=43 velocity=0 time=20
note_on channel=0 note=81 velocity=76 time=0
note_on channel=0 note=81 velocity=0 time=100
note_on channel=0 note=62 velocity=55 time=20
note_on channel=0 note=67 velocity=66 time=0
note_on channel=0 note=58 velocity=55 time=0
<meta message set_tempo tempo=493827 time=120>
note_on channel=0 note=82 velocity=67 time=0
note_on channel=0 note=91 velocity=79 time=0
note_on channel=0 note=86 velocity=67 time=0
note_on channel=0 note=86 velocity=0 time=100
note_on channel=0 note=82 velocity=0 time=0
note_on channel=0 note=91 velocity=0 time=0
<meta message set_tempo tempo=485830 time=20>
note_on channel=0 note=62 velocity=0 time=0
note_on channel=0 note=58 velocity=0 time=0
note_on channel=0 note=67 velocity=0 time=0
note_on channel=0 note=91 velocity=87 time=0
note_on channel=0 note=82 velocity=73 time=0
note_on channel=0 note=86 velocity=73 time=0
note_on channel=0 note=46 velocity=53 time=0
note_on channel=0 note=86 velocity=0 time=100
note_on channel=0 note=91 velocity=0 time=0
note_on channel=0 note=82 velocity=0 time=0
note_on channel=0 note=46 velocity=0 time=20
note_on channel=0 note=78 velocity=75 time=0
control_change channel=0 control=64 value=0 time=10
note_on channel=0 note=78 velocity=0 time=90
note_on channel=0 note=58 velocity=53 time=20
note_on channel=0 note=67 velocity=64 time=0
note_on channel=0 note=62 velocity=53 time=0
control_change channel=0 control=64 value=127 time=34
<meta message set_tempo tempo=491803 time=86>
note_on channel=0 note=79 velocity=67 time=0
note_on channel=0 note=82 velocity=67 time=0
note_on channel=0 note=86 velocity=79 time=0
note_on channel=0 note=86 velocity=0 time=100
note_on channel=0 note=79 velocity=0 time=0
note_on channel=0 note=82 velocity=0 time=0
<meta message set_tempo tempo=485830 time=20>
note_on channel=0 note=58 velocity=0 time=0
note_on channel=0 note=62 velocity=0 time=0
note_on channel=0 note=67 velocity=0 time=0
note_on channel=0 note=79 velocity=73 time=0
note_on channel=0 note=82 velocity=73 time=0
note_on channel=0 note=86 velocity=87 time=0
note_on channel=0 note=50 velocity=57 time=0
note_on channel=0 note=86 velocity=0 time=100
note_on channel=0 note=79 velocity=0 time=0
note_on channel=0 note=82 velocity=0 time=0
note_on channel=0 note=50 velocity=0 time=20
note_on channel=0 note=73 velocity=78 time=0
control_change channel=0 control=64 value=0 time=8
note_on channel=0 note=73 velocity=0 time=92
note_on channel=0 note=67 velocity=64 time=20
note_on channel=0 note=62 velocity=53 time=0
note_on channel=0 note=58 velocity=53 time=0
control_change channel=0 control=64 value=127 time=46
<meta message set_tempo tempo=495868 time=74>
note_on channel=0 note=82 velocity=78 time=0
note_on channel=0 note=79 velocity=66 time=0
note_on channel=0 note=74 velocity=66 time=0
note_on channel=0 note=74 velocity=0 time=100
note_on channel=0 note=82 velocity=0 time=0
note_on channel=0 note=79 velocity=0 time=0
<meta message set_tempo tempo=485830 time=20>
note_on channel=0 note=67 velocity=0 time=0
note_on channel=0 note=58 velocity=0 time=0
note_on channel=0 note=62 velocity=0 time=0
note_on channel=0 note=74 velocity=73 time=0
note_on channel=0 note=79 velocity=73 time=0
note_on channel=0 note=82 velocity=87 time=0
note_on channel=0 note=55 velocity=54 time=0
note_on channel=0 note=82 velocity=0 time=100
note_on channel=0 note=74 velocity=0 time=0
note_on channel=0 note=79 velocity=0 time=0
note_on channel=0 note=55 velocity=0 time=20
note_on channel=0 note=70 velocity=75 time=0
control_change channel=0 control=64 value=0 time=5
note_on channel=0 note=70 velocity=0 time=95
note_on channel=0 note=63 velocity=53 time=20
note_on channel=0 note=60 velocity=53 time=0
note_on channel=0 note=57 velocity=53 time=0
note_on channel=0 note=67 velocity=64 time=0
control_change channel=0 control=64 value=127 time=17
<meta message set_tempo tempo=495868 time=103>
note_on channel=0 note=79 velocity=66 time=0
note_on channel=0 note=75 velocity=66 time=0
note_on channel=0 note=84 velocity=78 time=0
note_on channel=0 note=84 velocity=0 time=100
note_on channel=0 note=79 velocity=0 time=0
note_on channel=0 note=75 velocity=0 time=0
<meta message set_tempo tempo=487092 time=20>
note_on channel=0 note=57 velocity=0 time=0
note_on channel=0 note=63 velocity=0 time=0
note_on channel=0 note=60 velocity=0 time=0
note_on channel=0 note=67 velocity=0 time=0
note_on channel=0 note=84 velocity=87 time=0
note_on channel=0 note=79 velocity=73 time=0
note_on channel=0 note=75 velocity=73 time=0
note_on channel=0 note=45 velocity=55 time=0
note_on channel=0 note=75 velocity=0 time=100
note_on channel=0 note=84 velocity=0 time=0
note_on channel=0 note=79 velocity=0 time=0
note_on channel=0 note=45 velocity=0 time=20
note_on channel=0 note=74 velocity=75 time=0
control_change channel=0 control=64 value=0 time=7
note_on channel=0 note=74 velocity=0 time=93
note_on channel=0 note=73 velocity=75 time=20
note_on channel=0 note=67 velocity=64 time=0
note_on channel=0 note=63 velocity=53 time=0
note_on channel=0 note=60 velocity=53 time=0
control_change channel=0 control=64 value=127 time=23
note_on channel=0 note=73 velocity=0 time=77
note_on channel=0 note=72 velocity=75 time=20
note_on channel=0 note=72 velocity=0 time=100
note_on channel=0 note=60 velocity=0 time=20
note_on channel=0 note=63 velocity=0 time=0
note_on channel=0 note=67 velocity=0 time=0
note_on channel=0 note=75 velocity=73 time=0
note_on channel=0 note=79 velocity=73 time=0
note_on channel=0 note=84 velocity=87 time=0
note_on channel=0 note=57 velocity=55 time=0
note_on channel=0 note=84 velocity=0 time=100
note_on channel=0 note=75 velocity=0 time=0
note_on channel=0 note=79 velocity=0 time=0
note_on channel=0 note=57 velocity=0 time=20
note_on channel=0 note=74 velocity=74 time=0
control_change channel=0 control=64 value=0 time=12
note_on channel=0 note=74 velocity=0 time=88
note_on channel=0 note=73 velocity=76 time=20
note_on channel=0 note=62 velocity=53 time=0
note_on channel=0 note=66 velocity=64 time=0
note_on channel=0 note=60 velocity=53 time=0
control_change channel=0 control=64 value=127 time=17
note_on channel=0 note=73 velocity=0 time=83
note_on channel=0 note=72 velocity=76 time=20
note_on channel=0 note=72 velocity=0 time=100
note_on channel=0 note=60 velocity=0 time=20
note_on channel=0 note=66 velocity=0 time=0
note_on channel=0 note=62 velocity=0 time=0
note_on channel=0 note=84 velocity=87 time=0
note_on channel=0 note=78 velocity=73 time=0
note_on channel=0 note=75 velocity=73 time=0
note_on channel=0 note=50 velocity=56 time=0
<meta message set_tempo tempo=487092 time=20>
<meta message set_tempo tempo=489157 time=60>
note_on channel=0 note=75 velocity=0 time=20
note_on channel=0 note=84 velocity=0 time=0
note_on channel=0 note=78 velocity=0 time=0
note_on channel=0 note=50 velocity=0 time=20
note_on channel=0 note=74 velocity=76 time=0
control_change channel=0 control=64 value=0 time=5
<meta message set_tempo tempo=491159 time=15>
<meta message set_tempo tempo=493259 time=60>
note_on channel=0 note=74 velocity=0 time=20
<meta message set_tempo tempo=495417 time=20>
note_on channel=0 note=73 velocity=76 time=0
note_on channel=0 note=62 velocity=53 time=0
note_on channel=0 note=60 velocity=53 time=0
note_on channel=0 note=66 velocity=63 time=0
control_change channel=0 control=64 value=127 time=21
<meta message set_tempo tempo=497471 time=39>
note_on channel=0 note=73 velocity=0 time=40
<meta message set_tempo tempo=499584 time=20>
note_on channel=0 note=72 velocity=76 time=0
<meta message set_tempo tempo=501756 time=40>
<meta message set_tempo tempo=503990 time=60>
note_on channel=0 note=72 velocity=0 time=0
note_on channel=0 note=66 velocity=0 time=20
note_on channel=0 note=60 velocity=0 time=0
note_on channel=0 note=62 velocity=0 time=0
note_on channel=0 note=81 velocity=87 time=0
note_on channel=0 note=78 velocity=73 time=0
note_on channel=0 note=74 velocity=73 time=0
note_on channel=0 note=57 velocity=56 time=0
<meta message set_tempo tempo=506116 time=40>
<meta message set_tempo tempo=508345 time=40>
note_on channel=0 note=74 velocity=0 time=20
note_on channel=0 note=81 velocity=0 time=0
note_on channel=0 note=78 velocity=0 time=0
note_on channel=0 note=57 velocity=0 time=20
note_on channel=0 note=72 velocity=76 time=0
control_change channel=0 control=64 value=0 time=5
<meta message set_tempo tempo=510595 time=15>
<meta message set_tempo tempo=512864 time=60>
note_on channel=0 note=72 velocity=0 time=20
<meta message set_tempo tempo=563380 time=20>
note_on channel=0 note=74 velocity=73 time=0
note_on channel=0 note=70 velocity=73 time=0
note_on channel=0 note=79 velocity=73 time=0
note_on channel=0 note=82 velocity=87 time=0
note_on channel=0 note=62 velocity=53 time=0
note_on channel=0 note=55 velocity=53 time=0
note_on channel=0 note=67 velocity=63 time=0
<meta message set_tempo tempo=495417 time=240>
note_on channel=0 note=67 velocity=0 time=0
note_on channel=0 note=62 velocity=0 time=0
note_on channel=0 note=70 velocity=0 time=0
note_on channel=0 note=79 velocity=0 time=0
note_on channel=0 note=74 velocity=0 time=0
note_on channel=0 note=55 velocity=0 time=0
note_on channel=0 note=82 velocity=0 time=0
note_on channel=0 note=80 velocity=70 time=0
control_change channel=0 control=64 value=127 time=0
note_on channel=0 note=48 velocity=65 time=0
note_on channel=0 note=80 velocity=0 time=120
note_on channel=0 note=92 velocity=72 time=0
note_on channel=0 note=87 velocity=60 time=0
note_on channel=0 note=87 velocity=0 time=120
note_on channel=0 note=92 velocity=0 time=0
note_on channel=0 note=80 velocity=72 time=0
note_on channel=0 note=80 velocity=0 time=120
note_on channel=0 note=75 velocity=63 time=0
note_on channel=0 note=80 velocity=75 time=0
note_on channel=0 note=80 velocity=0 time=120
note_on channel=0 note=75 velocity=0 time=0
note_on channel=0 note=67 velocity=77 time=0
note_on channel=0 note=56 velocity=47 time=0
note_on channel=0 note=63 velocity=56 time=0
control_change channel=0 control=64 value=0 time=12
note_on channel=0 note=79 velocity=77 time=108
note_on channel=0 note=75 velocity=65 time=0
<meta message set_tempo tempo=483014 time=120>
note_on channel=0 note=75 velocity=0 time=0
note_on channel=0 note=67 velocity=0 time=0
note_on channel=0 note=56 velocity=0 time=0
note_on channel=0 note=48 velocity=0 time=0
note_on channel=0 note=79 velocity=0 time=0
note_on channel=0 note=63 velocity=0 time=0
note_on channel=0 note=66 velocity=87 time=0
note_on channel=0 note=50 velocity=63 time=0
control_change channel=0 control=64 value=127 time=57
note_on channel=0 note=50 velocity=0 time=63
note_on channel=0 note=69 velocity=65 time=0
note_on channel=0 note=78 velocity=77 time=0
note_on channel=0 note=78 velocity=0 time=120
note_on channel=0 note=69 velocity=0 time=0
note_on channel=0 note=66 velocity=0 time=0
note_on channel=0 note=78 velocity=77 time=0
note_on channel=0 note=57 velocity=48 time=0
note_on channel=0 note=62 velocity=57 time=0
note_on channel=0 note=60 velocity=48 time=0
note_on channel=0 note=78 velocity=0 time=120
note_on channel=0 note=90 velocity=77 time=0
note_on channel=0 note=81 velocity=65 time=0
note_on channel=0 note=81 velocity=0 time=120
note_on channel=0 note=57 velocity=0 time=0
note_on channel=0 note=60 velocity=0 time=0
note_on channel=0 note=62 velocity=0 time=0
note_on channel=0 note=90 velocity=0 time=0
note_on channel=0 note=79 velocity=87 time=0
note_on channel=0 note=43 velocity=63 time=0
control_change channel=0 control=64 value=0 time=15
control_change channel=0 control=64 value=127 time=65
note_on channel=0 note=43 velocity=0 time=40
note_on channel=0 note=91 velocity=75 time=0
note_on channel=0 note=82 velocity=64 time=0
<meta message set_tempo tempo=550459 time=120>
note_on channel=0 note=82 velocity=0 time=0
note_on channel=0 note=91 velocity=0 time=0
note_on channel=0 note=79 velocity=0 time=0
note_on channel=0 note=79 velocity=75 time=0
note_on channel=0 note=58 velocity=47 time=0
note_on channel=0 note=55 velocity=47 time=0
note_on channel=0 note=62 velocity=55 time=0
note_on channel=0 note=79 velocity=0 time=120
note_on channel=0 note=70 velocity=64 time=0
note_on channel=0 note=79 velocity=75 time=0
<meta message set_tempo tempo=502092 time=120>
note_on channel=0 note=79 velocity=0 time=0
note_on channel=0 note=58 velocity=0 time=0
note_on channel=0 note=62 velocity=0 time=0
note_on channel=0 note=55 velocity=0 time=0
note_on channel=0 note=70 velocity=0 time=0
note_on channel=0 note=68 velocity=77 time=0
note_on channel=0 note=48 velocity=65 time=0
control_change channel=0 control=64 value=0 time=0
control_change channel=0 control=64 value=127 time=57
note_on channel=0 note=80 velocity=72 time=63
note_on channel=0 note=75 velocity=60 time=0
<meta message set_tempo tempo=497471 time=120>
note_on channel=0 note=75 velocity=0 time=0
note_on channel=0 note=80 velocity=0 time=0
note_on channel=0 note=68 velocity=0 time=0
note_on channel=0 note=80 velocity=74 time=0
note_on channel=0 note=63 velocity=53 time=0
note_on channel=0 note=56 velocity=44 time=0
note_on channel=0 note=87 velocity=65 time=120
note_on channel=0 note=92 velocity=76 time=0
note_on channel=0 note=92 velocity=0 time=120
note_on channel=0 note=80 velocity=0 time=0
note_on channel=0 note=87 velocity=0 time=0
note_on channel=0 note=80 velocity=76 time=0
note_on channel=0 note=80 velocity=0 time=120
note_on channel=0 note=80 velocity=78 time=0
note_on channel=0 note=75 velocity=65 time=0
note_on channel=0 note=75 velocity=0 time=120
note_on channel=0 note=63 velocity=0 time=0
note_on channel=0 note=80 velocity=0 time=0
note_on channel=0 note=56 velocity=0 time=0
note_on channel=0 note=67 velocity=77 time=0
note_on channel=0 note=56 velocity=47 time=0
note_on channel=0 note=63 velocity=56 time=0
control_change channel=0 control=64 value=0 time=14
note_on channel=0 note=79 velocity=77 time=106
note_on channel=0 note=75 velocity=65 time=0
<meta message set_tempo tempo=485044 time=120>
note_on channel=0 note=75 velocity=0 time=0
note_on channel=0 note=67 velocity=0 time=0
note_on channel=0 note=56 velocity=0 time=0
note_on channel=0 note=48 velocity=0 time=0
note_on channel=0 note=79 velocity=0 time=0
note_on channel=0 note=63 velocity=0 time=0
note_on channel=0 note=66 velocity=87 time=0
note_on channel=0 note=50 velocity=63 time=0
control_change channel=0 control=64 value=127 time=51
note_on channel=0 note=50 velocity=0 time=69
note_on channel=0 note=78 velocity=77 time=0
note_on channel=0 note=69 velocity=65 time=0
note_on channel=0 note=69 velocity=0 time=120
note_on channel=0 note=78 velocity=0 time=0
note_on channel=0 note=66 velocity=0 time=0
note_on channel=0 note=78 velocity=77 time=0
note_on channel=0 note=62 velocity=57 time=0
note_on channel=0 note=60 velocity=48 time=0
note_on channel=0 note=57 velocity=48 time=0
note_on channel=0 note=78 velocity=0 time=120
note_on channel=0 note=81 velocity=65 time=0
note_on channel=0 note=90 velocity=77 time=0
note_on channel=0 note=90 velocity=0 time=120
note_on channel=0 note=62 velocity=0 time=0
note_on channel=0 note=57 velocity=0 time=0
note_on channel=0 note=60 velocity=0 time=0
note_on channel=0 note=81 velocity=0 time=0
note_on channel=0 note=79 velocity=87 time=0
note_on channel=0 note=43 velocity=63 time=0
control_change channel=0 control=64 value=0 time=16
control_change channel=0 control=64 value=127 time=93
note_on channel=0 note=43 velocity=0 time=11
note_on channel=0 note=91 velocity=75 time=0
note_on channel=0 note=82 velocity=64 time=0
<meta message set_tempo tempo=506116 time=120>
note_on channel=0 note=82 velocity=0 time=0
note_on channel=0 note=91 velocity=0 time=0
note_on channel=0 note=79 velocity=0 time=0
note_on channel=0 note=79 velocity=75 time=0
note_on channel=0 note=58 velocity=47 time=0
note_on channel=0 note=55 velocity=47 time=0
note_on channel=0 note=62 velocity=55 time=0
note_on channel=0 note=79 velocity=0 time=120
note_on channel=0 note=70 velocity=64 time=0
note_on channel=0 note=79 velocity=75 time=0
note_on channel=0 note=79 velocity=0 time=120
note_on channel=0 note=58 velocity=0 time=0
note_on channel=0 note=62 velocity=0 time=0
note_on channel=0 note=55 velocity=0 time=0
note_on channel=0 note=70 velocity=0 time=0
note_on channel=0 note=65 velocity=77 time=0
note_on channel=0 note=47 velocity=65 time=0
control_change channel=0 control=64 value=0 time=7
control_change channel=0 control=64 value=127 time=50
note_on channel=0 note=47 velocity=0 time=63
note_on channel=0 note=77 velocity=71 time=0
note_on channel=0 note=68 velocity=59 time=0
<meta message set_tempo tempo=487092 time=20>
note_on channel=0 note=68 velocity=0 time=100
note_on channel=0 note=77 velocity=0 time=0
note_on channel=0 note=65 velocity=0 time=0
note_on channel=0 note=77 velocity=70 time=0
note_on channel=0 note=56 velocity=43 time=0
note_on channel=0 note=53 velocity=43 time=0
note_on channel=0 note=62 velocity=51 time=0
note_on channel=0 note=77 velocity=0 time=120
note_on channel=0 note=80 velocity=59 time=0
note_on channel=0 note=89 velocity=71 time=0
note_on channel=0 note=89 velocity=0 time=120
note_on channel=0 note=56 velocity=0 time=0
note_on channel=0 note=62 velocity=0 time=0
note_on channel=0 note=53 velocity=0 time=0
note_on channel=0 note=80 velocity=0 time=0
note_on channel=0 note=77 velocity=68 time=0
note_on channel=0 note=48 velocity=60 time=0
control_change channel=0 control=64 value=0 time=11
control_change channel=0 control=64 value=127 time=52
note_on channel=0 note=77 velocity=0 time=57
note_on channel=0 note=68 velocity=66 time=0
note_on channel=0 note=75 velocity=77 time=0
note_on channel=0 note=75 velocity=0 time=120
note_on channel=0 note=68 velocity=0 time=0
note_on channel=0 note=63 velocity=69 time=0
note_on channel=0 note=56 velocity=42 time=0
note_on channel=0 note=51 velocity=42 time=0
note_on channel=0 note=60 velocity=50 time=0
note_on channel=0 note=68 velocity=57 time=120
note_on channel=0 note=75 velocity=69 time=0
note_on channel=0 note=75 velocity=0 time=120
note_on channel=0 note=60 velocity=0 time=0
note_on channel=0 note=63 velocity=0 time=0
note_on channel=0 note=56 velocity=0 time=0
note_on channel=0 note=48 velocity=0 time=0
note_on channel=0 note=68 velocity=0 time=0
note_on channel=0 note=51 velocity=0 time=0
note_on channel=0 note=62 velocity=77 time=0
note_on channel=0 note=50 velocity=56 time=0
control_change channel=0 control=64 value=0 time=6
control_change channel=0 control=64 value=127 time=97
note_on channel=0 note=68 velocity=57 time=17
note_on channel=0 note=74 velocity=69 time=0
note_on channel=0 note=74 velocity=0 time=120
note_on channel=0 note=68 velocity=0 time=0
note_on channel=0 note=62 velocity=0 time=0
note_on channel=0 note=74 velocity=69 time=0
note_on channel=0 note=56 velocity=43 time=0
note_on channel=0 note=53 velocity=43 time=0
note_on channel=0 note=59 velocity=51 time=0
note_on channel=0 note=74 velocity=0 time=120
note_on channel=0 note=86 velocity=69 time=0
note_on channel=0 note=80 velocity=57 time=0
note_on channel=0 note=80 velocity=0 time=120
note_on channel=0 note=56 velocity=0 time=0
note_on channel=0 note=59 velocity=0 time=0
note_on channel=0 note=50 velocity=0 time=0
note_on channel=0 note=86 velocity=0 time=0
note_on channel=0 note=53 velocity=0 time=0
note_on channel=0 note=74 velocity=77 time=0
note_on channel=0 note=51 velocity=56 time=0
control_change channel=0 control=64 value=0 time=16
note_on channel=0 note=74 velocity=0 time=104
note_on channel=0 note=72 velocity=67 time=0
note_on channel=0 note=68 velocity=56 time=0
control_change channel=0 control=64 value=127 time=17
note_on channel=0 note=68 velocity=0 time=103
note_on channel=0 note=72 velocity=0 time=0
note_on channel=0 note=60 velocity=67 time=0
note_on channel=0 note=56 velocity=49 time=0
<meta message set_tempo tempo=515110 time=120>
note_on channel=0 note=60 velocity=0 time=0
note_on channel=0 note=68 velocity=56 time=0
note_on channel=0 note=72 velocity=67 time=0
<meta message set_tempo tempo=487092 time=120>
note_on channel=0 note=72 velocity=0 time=0
note_on channel=0 note=51 velocity=0 time=0
note_on channel=0 note=56 velocity=0 time=0
note_on channel=0 note=68 velocity=0 time=0
note_on channel=0 note=60 velocity=77 time=0
control_change channel=0 control=64 value=0 time=0
note_on channel=0 note=42 velocity=56 time=0
control_change channel=0 control=64 value=127 time=51
note_on channel=0 note=42 velocity=0 time=69
note_on channel=0 note=72 velocity=69 time=0
note_on channel=0 note=63 velocity=57 time=0
note_on channel=0 note=63 velocity=0 time=120
note_on channel=0 note=72 velocity=0 time=0
note_on channel=0 note=60 velocity=0 time=0
note_on channel=0 note=72 velocity=69 time=0
note_on channel=0 note=60 velocity=43 time=0
note_on channel=0 note=54 velocity=43 time=0
note_on channel=0 note=63 velocity=51 time=0
note_on channel=0 note=84 velocity=69 time=120
note_on channel=0 note=75 velocity=57 time=0
note_on channel=0 note=75 velocity=0 time=120
note_on channel=0 note=60 velocity=0 time=0
note_on channel=0 note=54 velocity=0 time=0
note_on channel=0 note=72 velocity=0 time=0
note_on channel=0 note=84 velocity=0 time=0
note_on channel=0 note=63 velocity=0 time=0
note_on channel=0 note=72 velocity=77 time=0
note_on channel=0 note=55 velocity=43 time=0
note_on channel=0 note=62 velocity=53 time=0
note_on channel=0 note=58 velocity=43 time=0
control_change channel=0 control=64 value=0 time=15
note_on channel=0 note=75 velocity=56 time=105
note_on channel=0 note=84 velocity=67 time=0
note_on channel=0 note=84 velocity=0 time=120
note_on channel=0 note=55 velocity=0 time=0
note_on channel=0 note=62 velocity=0 time=0
note_on channel=0 note=72 velocity=0 time=0
note_on channel=0 note=75 velocity=0 time=0
note_on channel=0 note=58 velocity=0 time=0
note_on channel=0 note=70 velocity=67 time=0
note_on channel=0 note=43 velocity=56 time=0
note_on channel=0 note=43 velocity=0 time=120
note_on channel=0 note=74 velocity=56 time=0
note_on channel=0 note=82 velocity=67 time=0
<meta message set_tempo tempo=487092 time=120>
note_on channel=0 note=82 velocity=0 time=0
note_on channel=0 note=74 velocity=0 time=0
note_on channel=0 note=70 velocity=0 time=0
note_on channel=0 note=70 velocity=77 time=0
note_on channel=0 note=48 velocity=56 time=0
control_change channel=0 control=64 value=0 time=0
control_change channel=0 control=64 value=127 time=51
<meta message set_tempo tempo=489157 time=69>
note_on channel=0 note=48 velocity=0 time=0
note_on channel=0 note=82 velocity=69 time=0
note_on channel=0 note=74 velocity=57 time=0
<meta message set_tempo tempo=491159 time=120>
note_on channel=0 note=74 velocity=0 time=0
note_on channel=0 note=82 velocity=0 time=0
note_on channel=0 note=70 velocity=0 time=0
note_on channel=0 note=69 velocity=69 time=0
note_on channel=0 note=67 velocity=51 time=0
note_on channel=0 note=57 velocity=43 time=0
note_on channel=0 note=63 velocity=43 time=0
<meta message set_tempo tempo=493259 time=120>
note_on channel=0 note=72 velocity=57 time=0
note_on channel=0 note=81 velocity=69 time=0
note_on channel=0 note=67 velocity=0 time=118
<meta message set_tempo tempo=495417 time=2>
note_on channel=0 note=57 velocity=0 time=0
note_on channel=0 note=63 velocity=0 time=0
note_on channel=0 note=69 velocity=0 time=0
note_on channel=0 note=81 velocity=0 time=0
note_on channel=0 note=72 velocity=0 time=0
note_on channel=0 note=67 velocity=77 time=0
note_on channel=0 note=50 velocity=56 time=0
control_change channel=0 control=64 value=0 time=29
<meta message set_tempo tempo=497471 time=91>
note_on channel=0 note=79 velocity=67 time=0
note_on channel=0 note=70 velocity=56 time=0
<meta message set_tempo tempo=499584 time=120>
note_on channel=0 note=70 velocity=0 time=0
note_on channel=0 note=79 velocity=0 time=0
note_on channel=0 note=67 velocity=0 time=0
note_on channel=0 note=66 velocity=67 time=0
note_on channel=0 note=57 velocity=43 time=0
note_on channel=0 note=60 velocity=43 time=0
note_on channel=0 note=62 velocity=51 time=0
<meta message set_tempo tempo=501756 time=120>
note_on channel=0 note=69 velocity=56 time=0
note_on channel=0 note=78 velocity=67 time=0
<meta message set_tempo tempo=552995 time=120>
note_on channel=0 note=78 velocity=0 time=0
note_on channel=0 note=62 velocity=0 time=0
note_on channel=0 note=66 velocity=0 time=0
note_on channel=0 note=57 velocity=0 time=0
note_on channel=0 note=50 velocity=0 time=0
note_on channel=0 note=69 velocity=0 time=0
note_on channel=0 note=60 velocity=0 time=0
note_on channel=0 note=79 velocity=87 time=0
note_on channel=0 note=67 velocity=73 time=0
note_on channel=0 note=70 velocity=73 time=0
note_on channel=0 note=55 velocity=53 time=0
note_on channel=0 note=62 velocity=63 time=0
control_change channel=0 control=64 value=0 time=0
note_on channel=0 note=58 velocity=53 time=6
control_change channel=0 control=64 value=127 time=45
note_on channel=0 note=62 velocity=0 time=69
note_on channel=0 note=55 velocity=0 time=0
note_on channel=0 note=70 velocity=0 time=0
note_on channel=0 note=79 velocity=0 time=0
note_on channel=0 note=67 velocity=0 time=0
note_on channel=0 note=58 velocity=0 time=6
<meta message set_tempo tempo=495417 time=114>
note_on channel=0 note=80 velocity=70 time=0
note_on channel=0 note=48 velocity=65 time=0
note_on channel=0 note=92 velocity=72 time=120
note_on channel=0 note=87 velocity=60 time=0
note_on channel=0 note=87 velocity=0 time=120
note_on channel=0 note=92 velocity=0 time=0
note_on channel=0 note=80 velocity=0 time=0
note_on channel=0 note=80 velocity=72 time=0
note_on channel=0 note=80 velocity=0 time=120
note_on channel=0 note=75 velocity=63 time=0
note_on channel=0 note=80 velocity=75 time=0
note_on channel=0 note=80 velocity=0 time=120
note_on channel=0 note=75 velocity=0 time=0
note_on channel=0 note=67 velocity=77 time=0
note_on channel=0 note=56 velocity=47 time=0
note_on channel=0 note=63 velocity=56 time=0
control_change channel=0 control=64 value=0 time=11
note_on channel=0 note=75 velocity=65 time=109
note_on channel=0 note=79 velocity=77 time=0
<meta message set_tempo tempo=483014 time=120>
note_on channel=0 note=79 velocity=0 time=0
note_on channel=0 note=67 velocity=0 time=0
note_on channel=0 note=56 velocity=0 time=0
note_on channel=0 note=48 velocity=0 time=0
note_on channel=0 note=75 velocity=0 time=0
note_on channel=0 note=63 velocity=0 time=0
note_on channel=0 note=66 velocity=87 time=0
note_on channel=0 note=50 velocity=63 time=0
control_change channel=0 control=64 value=127 time=46
note_on channel=0 note=50 velocity=0 time=74
note_on channel=0 note=78 velocity=77 time=0
note_on channel=0 note=69 velocity=65 time=0
note_on channel=0 note=69 velocity=0 time=120
note_on channel=0 note=78 velocity=0 time=0
note_on channel=0 note=66 velocity=0 time=0
note_on channel=0 note=78 velocity=77 time=0
note_on channel=0 note=62 velocity=57 time=0
note_on channel=0 note=57 velocity=48 time=0
note_on channel=0 note=60 velocity=48 time=0
note_on channel=0 note=78 velocity=0 time=120
note_on channel=0 note=90 velocity=77 time=0
note_on channel=0 note=81 velocity=65 time=0
note_on channel=0 note=81 velocity=0 time=120
note_on channel=0 note=62 velocity=0 time=0
note_on channel=0 note=60 velocity=0 time=0
note_on channel=0 note=57 velocity=0 time=0
note_on channel=0 note=90 velocity=0 time=0
note_on channel=0 note=79 velocity=87 time=0
note_on channel=0 note=43 velocity=63 time=0
control_change channel=0 control=64 value=0 time=16
note_on channel=0 note=43 velocity=0 time=104
note_on channel=0 note=82 velocity=64 time=0
note_on channel=0 note=91 velocity=75 time=0
control_change channel=0 control=64 value=127 time=6
<meta message set_tempo tempo=540541 time=114>
note_on channel=0 note=91 velocity=0 time=0
note_on channel=0 note=82 velocity=0 time=0
note_on channel=0 note=79 velocity=0 time=0
note_on channel=0 note=79 velocity=75 time=0
note_on channel=0 note=58 velocity=47 time=0
note_on channel=0 note=55 velocity=47 time=0
note_on channel=0 note=62 velocity=55 time=0
note_on channel=0 note=79 velocity=0 time=120
note_on channel=0 note=70 velocity=64 time=0
note_on channel=0 note=79 velocity=75 time=0
<meta message set_tempo tempo=506329 time=120>
note_on channel=0 note=79 velocity=0 time=0
note_on channel=0 note=58 velocity=0 time=0
note_on channel=0 note=62 velocity=0 time=0
note_on channel=0 note=55 velocity=0 time=0
note_on channel=0 note=70 velocity=0 time=0
note_on channel=0 note=68 velocity=77 time=0
note_on channel=0 note=48 velocity=65 time=0
control_change channel=0 control=64 value=0 time=0
control_change channel=0 control=64 value=127 time=92
note_on channel=0 note=75 velocity=60 time=28
note_on channel=0 note=80 velocity=72 time=0
<meta message set_tempo tempo=497471 time=120>
note_on channel=0 note=80 velocity=0 time=0
note_on channel=0 note=75 velocity=0 time=0
note_on channel=0 note=68 velocity=0 time=0
note_on channel=0 note=80 velocity=74 time=0
note_on channel=0 note=56 velocity=44 time=0
note_on channel=0 note=63 velocity=53 time=0
note_on channel=0 note=92 velocity=76 time=120
note_on channel=0 note=87 velocity=65 time=0
control_change channel=0 control=64 value=0 time=115
note_on channel=0 note=87 velocity=0 time=5
note_on channel=0 note=80 velocity=0 time=0
note_on channel=0 note=92 velocity=0 time=0
note_on channel=0 note=80 velocity=76 time=0
note_on channel=0 note=50 velocity=72 time=0
note_on channel=0 note=80 velocity=0 time=120
note_on channel=0 note=75 velocity=65 time=0
note_on channel=0 note=80 velocity=78 time=0
note_on channel=0 note=80 velocity=0 time=120
note_on channel=0 note=50 velocity=0 time=0
note_on channel=0 note=75 velocity=0 time=0
note_on channel=0 note=67 velocity=77 time=0
note_on channel=0 note=51 velocity=72 time=0
note_on channel=0 note=79 velocity=77 time=120
note_on channel=0 note=72 velocity=65 time=0
<meta message set_tempo tempo=485044 time=120>
note_on channel=0 note=72 velocity=0 time=0
note_on channel=0 note=51 velocity=0 time=0
note_on channel=0 note=48 velocity=0 time=0
note_on channel=0 note=56 velocity=0 time=0
note_on channel=0 note=63 velocity=0 time=0
note_on channel=0 note=79 velocity=0 time=0
note_on channel=0 note=67 velocity=0 time=0
note_on channel=0 note=66 velocity=87 time=0
note_on channel=0 note=50 velocity=63 time=0
control_change channel=0 control=64 value=0 time=6
control_change channel=0 control=64 value=127 time=86
note_on channel=0 note=50 velocity=0 time=28
note_on channel=0 note=69 velocity=65 time=0
note_on channel=0 note=78 velocity=77 time=0
note_on channel=0 note=78 velocity=0 time=120
note_on channel=0 note=69 velocity=0 time=0
note_on channel=0 note=66 velocity=0 time=0
note_on channel=0 note=78 velocity=77 time=0
note_on channel=0 note=62 velocity=57 time=0
note_on channel=0 note=57 velocity=48 time=0
note_on channel=0 note=60 velocity=48 time=0
note_on channel=0 note=78 velocity=0 time=120
note_on channel=0 note=81 velocity=65 time=0
note_on channel=0 note=90 velocity=77 time=0
note_on channel=0 note=90 velocity=0 time=120
note_on channel=0 note=62 velocity=0 time=0
note_on channel=0 note=60 velocity=0 time=0
note_on channel=0 note=57 velocity=0 time=0
note_on channel=0 note=81 velocity=0 time=0
note_on channel=0 note=79 velocity=87 time=0
note_on channel=0 note=43 velocity=63 time=0
control_change channel=0 control=64 value=0 time=15
control_change channel=0 control=64 value=127 time=100
note_on channel=0 note=43 velocity=0 time=5
note_on channel=0 note=91 velocity=75 time=0
note_on channel=0 note=82 velocity=64 time=0
<meta message set_tempo tempo=506116 time=120>
note_on channel=0 note=82 velocity=0 time=0
note_on channel=0 note=91 velocity=0 time=0
note_on channel=0 note=79 velocity=0 time=0
note_on channel=0 note=79 velocity=75 time=0
note_on channel=0 note=62 velocity=55 time=0
note_on channel=0 note=55 velocity=47 time=0
note_on channel=0 note=58 velocity=47 time=0
note_on channel=0 note=79 velocity=0 time=120
note_on channel=0 note=70 velocity=64 time=0
note_on channel=0 note=79 velocity=75 time=0
note_on channel=0 note=79 velocity=0 time=120
note_on channel=0 note=62 velocity=0 time=0
note_on channel=0 note=58 velocity=0 time=0
note_on channel=0 note=55 velocity=0 time=0
note_on channel=0 note=70 velocity=0 time=0
note_on channel=0 note=65 velocity=77 time=0
note_on channel=0 note=47 velocity=65 time=0
note_on channel=0 note=35 velocity=54 time=0
control_change channel=0 control=64 value=0 time=5
control_change channel=0 control=64 value=127 time=52
note_on channel=0 note=35 velocity=0 time=63
note_on channel=0 note=47 velocity=0 time=0
note_on channel=0 note=68 velocity=59 time=0
note_on channel=0 note=77 velocity=71 time=0
<meta message set_tempo tempo=487092 time=20>
note_on channel=0 note=77 velocity=0 time=100
note_on channel=0 note=68 velocity=0 time=0
note_on channel=0 note=65 velocity=0 time=0
note_on channel=0 note=77 velocity=70 time=0
note_on channel=0 note=53 velocity=43 time=0
note_on channel=0 note=62 velocity=51 time=0
note_on channel=0 note=56 velocity=43 time=0
note_on channel=0 note=77 velocity=0 time=120
note_on channel=0 note=80 velocity=59 time=0
note_on channel=0 note=89 velocity=71 time=0
note_on channel=0 note=89 velocity=0 time=120
note_on channel=0 note=53 velocity=0 time=0
note_on channel=0 note=56 velocity=0 time=0
note_on channel=0 note=62 velocity=0 time=0
note_on channel=0 note=80 velocity=0 time=0
note_on channel=0 note=77 velocity=68 time=0
note_on channel=0 note=48 velocity=60 time=0
note_on channel=0 note=36 velocity=51 time=0
control_change channel=0 control=64 value=0 time=16
control_change channel=0 control=64 value=127 time=59
note_on channel=0 note=36 velocity=0 time=45
note_on channel=0 note=48 velocity=0 time=0
note_on channel=0 note=77 velocity=0 time=0
note_on channel=0 note=67 velocity=66 time=0
note_on channel=0 note=75 velocity=77 time=0
note_on channel=0 note=75 velocity=0 time=120
note_on channel=0 note=67 velocity=0 time=0
note_on channel=0 note=63 velocity=69 time=0
note_on channel=0 note=60 velocity=50 time=0
note_on channel=0 note=51 velocity=42 time=0
note_on channel=0 note=55 velocity=42 time=0
note_on channel=0 note=67 velocity=57 time=120
note_on channel=0 note=75 velocity=69 time=0
<meta message set_tempo tempo=512208 time=120>
note_on channel=0 note=75 velocity=0 time=0
note_on channel=0 note=60 velocity=0 time=0
note_on channel=0 note=51 velocity=0 time=0
note_on channel=0 note=63 velocity=0 time=0
note_on channel=0 note=67 velocity=0 time=0
note_on channel=0 note=55 velocity=0 time=0
note_on channel=0 note=62 velocity=77 time=0
note_on channel=0 note=38 velocity=54 time=0
note_on channel=0 note=50 velocity=65 time=0
control_change channel=0 control=64 value=0 time=9
control_change channel=0 control=64 value=127 time=88
note_on channel=0 note=50 velocity=0 time=23
note_on channel=0 note=38 velocity=0 time=0
note_on channel=0 note=66 velocity=59 time=0
note_on channel=0 note=74 velocity=71 time=0
<meta message set_tempo tempo=487092 time=20>
note_on channel=0 note=74 velocity=0 time=100
note_on channel=0 note=66 velocity=0 time=0
note_on channel=0 note=62 velocity=0 time=0
note_on channel=0 note=74 velocity=70 time=0
note_on channel=0 note=54 velocity=43 time=0
note_on channel=0 note=57 velocity=51 time=0
note_on channel=0 note=74 velocity=0 time=120
note_on channel=0 note=78 velocity=59 time=0
note_on channel=0 note=86 velocity=71 time=0
note_on channel=0 note=86 velocity=0 time=120
note_on channel=0 note=54 velocity=0 time=0
note_on channel=0 note=57 velocity=0 time=0
note_on channel=0 note=78 velocity=0 time=0
note_on channel=0 note=74 velocity=68 time=0
note_on channel=0 note=40 velocity=51 time=0
note_on channel=0 note=52 velocity=60 time=0
control_change channel=0 control=64 value=0 time=17
control_change channel=0 control=64 value=127 time=58
note_on channel=0 note=52 velocity=0 time=45
note_on channel=0 note=40 velocity=0 time=0
note_on channel=0 note=74 velocity=0 time=0
note_on channel=0 note=73 velocity=77 time=0
note_on channel=0 note=64 velocity=66 time=0
note_on channel=0 note=64 velocity=0 time=120
note_on channel=0 note=73 velocity=0 time=0
note_on channel=0 note=61 velocity=69 time=0
note_on channel=0 note=58 velocity=50 time=0
note_on channel=0 note=55 velocity=42 time=0
note_on channel=0 note=73 velocity=69 time=120
note_on channel=0 note=64 velocity=57 time=0
<meta message set_tempo tempo=505860 time=120>
note_on channel=0 note=64 velocity=0 time=0
note_on channel=0 note=55 velocity=0 time=0
note_on channel=0 note=61 velocity=0 time=0
note_on channel=0 note=58 velocity=0 time=0
note_on channel=0 note=73 velocity=0 time=0
note_on channel=0 note=60 velocity=77 time=0
note_on channel=0 note=54 velocity=65 time=0
note_on channel=0 note=42 velocity=54 time=0
control_change channel=0 control=64 value=0 time=0
control_change channel=0 control=64 value=127 time=57
note_on channel=0 note=42 velocity=0 time=63
note_on channel=0 note=54 velocity=0 time=0
note_on channel=0 note=63 velocity=59 time=0
note_on channel=0 note=72 velocity=71 time=0
<meta message set_tempo tempo=487092 time=20>
note_on channel=0 note=72 velocity=0 time=100
note_on channel=0 note=63 velocity=0 time=0
note_on channel=0 note=60 velocity=0 time=0
note_on channel=0 note=72 velocity=70 time=0
note_on channel=0 note=60 velocity=43 time=0
note_on channel=0 note=63 velocity=51 time=0
note_on channel=0 note=54 velocity=43 time=0
note_on channel=0 note=75 velocity=59 time=120
note_on channel=0 note=84 velocity=71 time=0
note_on channel=0 note=84 velocity=0 time=120
note_on channel=0 note=60 velocity=0 time=0
note_on channel=0 note=63 velocity=0 time=0
note_on channel=0 note=72 velocity=0 time=0
note_on channel=0 note=75 velocity=0 time=0
note_on channel=0 note=54 velocity=0 time=0
note_on channel=0 note=71 velocity=68 time=0
note_on channel=0 note=55 velocity=43 time=0
note_on channel=0 note=60 velocity=43 time=0
note_on channel=0 note=63 velocity=51 time=0
control_change channel=0 control=64 value=0 time=15
note_on channel=0 note=83 velocity=73 time=105
note_on channel=0 note=75 velocity=64 time=0
note_on channel=0 note=75 velocity=0 time=120
note_on channel=0 note=55 velocity=0 time=0
note_on channel=0 note=60 velocity=0 time=0
note_on channel=0 note=71 velocity=0 time=0
note_on channel=0 note=83 velocity=0 time=0
note_on channel=0 note=63 velocity=0 time=0
note_on channel=0 note=72 velocity=70 time=0
note_on channel=0 note=43 velocity=48 time=0
note_on channel=0 note=55 velocity=58 time=0
note_on channel=0 note=55 velocity=0 time=120
note_on channel=0 note=43 velocity=0 time=0
note_on channel=0 note=84 velocity=70 time=0
note_on channel=0 note=75 velocity=58 time=0
<meta message set_tempo tempo=507958 time=120>
note_on channel=0 note=75 velocity=0 time=0
note_on channel=0 note=84 velocity=0 time=0
note_on channel=0 note=72 velocity=0 time=0
note_on channel=0 note=72 velocity=79 time=0
note_on channel=0 note=44 velocity=55 time=0
note_on channel=0 note=56 velocity=66 time=0
control_change channel=0 control=64 value=0 time=8
control_change channel=0 control=64 value=127 time=49
note_on channel=0 note=56 velocity=0 time=63
note_on channel=0 note=44 velocity=0 time=0
note_on channel=0 note=84 velocity=73 time=0
note_on channel=0 note=75 velocity=61 time=0
<meta message set_tempo tempo=487092 time=20>
note_on channel=0 note=75 velocity=0 time=100
note_on channel=0 note=84 velocity=0 time=0
note_on channel=0 note=72 velocity=0 time=0
note_on channel=0 note=75 velocity=72 time=0
note_on channel=0 note=63 velocity=44 time=0
note_on channel=0 note=67 velocity=52 time=0
note_on channel=0 note=56 velocity=44 time=0
note_on channel=0 note=78 velocity=61 time=120
note_on channel=0 note=87 velocity=74 time=0
note_on channel=0 note=87 velocity=0 time=120
note_on channel=0 note=63 velocity=0 time=0
note_on channel=0 note=67 velocity=0 time=0
note_on channel=0 note=75 velocity=0 time=0
note_on channel=0 note=78 velocity=0 time=0
note_on channel=0 note=56 velocity=0 time=0
note_on channel=0 note=74 velocity=71 time=0
note_on channel=0 note=57 velocity=45 time=0
note_on channel=0 note=67 velocity=53 time=0
note_on channel=0 note=63 velocity=45 time=0
control_change channel=0 control=64 value=0 time=16
note_on channel=0 note=78 velocity=69 time=104
note_on channel=0 note=86 velocity=81 time=0
note_on channel=0 note=86 velocity=0 time=120
note_on channel=0 note=57 velocity=0 time=0
note_on channel=0 note=67 velocity=0 time=0
note_on channel=0 note=74 velocity=0 time=0
note_on channel=0 note=78 velocity=0 time=0
note_on channel=0 note=63 velocity=0 time=0
note_on channel=0 note=75 velocity=72 time=0
note_on channel=0 note=45 velocity=50 time=0
note_on channel=0 note=57 velocity=60 time=0
note_on channel=0 note=57 velocity=0 time=120
note_on channel=0 note=45 velocity=0 time=0
note_on channel=0 note=78 velocity=60 time=0
note_on channel=0 note=87 velocity=73 time=0
<meta message set_tempo tempo=507958 time=120>
note_on channel=0 note=87 velocity=0 time=0
note_on channel=0 note=78 velocity=0 time=0
note_on channel=0 note=75 velocity=0 time=0
note_on channel=0 note=75 velocity=82 time=0
note_on channel=0 note=58 velocity=69 time=0
note_on channel=0 note=46 velocity=57 time=0
control_change channel=0 control=64 value=0 time=0
control_change channel=0 control=64 value=127 time=57
note_on channel=0 note=46 velocity=0 time=63
note_on channel=0 note=58 velocity=0 time=0
note_on channel=0 note=78 velocity=63 time=0
note_on channel=0 note=87 velocity=75 time=0
<meta message set_tempo tempo=487092 time=20>
note_on channel=0 note=87 velocity=0 time=100
note_on channel=0 note=78 velocity=0 time=0
note_on channel=0 note=75 velocity=0 time=0
note_on channel=0 note=78 velocity=75 time=0
note_on channel=0 note=63 velocity=46 time=0
note_on channel=0 note=58 velocity=46 time=0
note_on channel=0 note=66 velocity=54 time=0
note_on channel=0 note=82 velocity=64 time=120
note_on channel=0 note=90 velocity=76 time=0
note_on channel=0 note=90 velocity=0 time=120
note_on channel=0 note=63 velocity=0 time=0
note_on channel=0 note=58 velocity=0 time=0
note_on channel=0 note=78 velocity=0 time=0
note_on channel=0 note=82 velocity=0 time=0
note_on channel=0 note=66 velocity=0 time=0
note_on channel=0 note=77 velocity=73 time=0
note_on channel=0 note=69 velocity=55 time=0
note_on channel=0 note=59 velocity=46 time=0
note_on channel=0 note=63 velocity=46 time=0
control_change channel=0 control=64 value=0 time=11
control_change channel=0 control=64 value=127 time=76
note_on channel=0 note=89 velocity=84 time=33
note_on channel=0 note=80 velocity=71 time=0
note_on channel=0 note=80 velocity=0 time=120
note_on channel=0 note=69 velocity=0 time=0
note_on channel=0 note=59 velocity=0 time=0
note_on channel=0 note=77 velocity=0 time=0
note_on channel=0 note=89 velocity=0 time=0
note_on channel=0 note=63 velocity=0 time=0
note_on channel=0 note=78 velocity=75 time=0
note_on channel=0 note=47 velocity=52 time=0
note_on channel=0 note=59 velocity=63 time=0
note_on channel=0 note=59 velocity=0 time=120
note_on channel=0 note=47 velocity=0 time=0
note_on channel=0 note=90 velocity=75 time=0
note_on channel=0 note=81 velocity=63 time=0
<meta message set_tempo tempo=507958 time=120>
note_on channel=0 note=81 velocity=0 time=0
note_on channel=0 note=90 velocity=0 time=0
note_on channel=0 note=78 velocity=0 time=0
note_on channel=0 note=78 velocity=86 time=0
note_on channel=0 note=48 velocity=59 time=0
note_on channel=0 note=60 velocity=71 time=0
control_change channel=0 control=64 value=0 time=8
control_change channel=0 control=64 value=127 time=49
note_on channel=0 note=60 velocity=0 time=63
note_on channel=0 note=48 velocity=0 time=0
note_on channel=0 note=81 velocity=66 time=0
note_on channel=0 note=90 velocity=78 time=0
<meta message set_tempo tempo=487092 time=20>
note_on channel=0 note=90 velocity=0 time=100
note_on channel=0 note=81 velocity=0 time=0
note_on channel=0 note=78 velocity=0 time=0
note_on channel=0 note=81 velocity=78 time=0
note_on channel=0 note=66 velocity=47 time=0
note_on channel=0 note=62 velocity=47 time=0
note_on channel=0 note=60 velocity=47 time=0
note_on channel=0 note=69 velocity=56 time=0
note_on channel=0 note=93 velocity=79 time=120
note_on channel=0 note=84 velocity=66 time=0
note_on channel=0 note=84 velocity=0 time=120
note_on channel=0 note=81 velocity=0 time=0
note_on channel=0 note=93 velocity=0 time=0
note_on channel=0 note=82 velocity=76 time=0
control_change channel=0 control=64 value=0 time=16
control_change channel=0 control=64 value=127 time=87
note_on channel=0 note=94 velocity=87 time=17
note_on channel=0 note=86 velocity=74 time=0
note_on channel=0 note=86 velocity=0 time=120
note_on channel=0 note=82 velocity=0 time=0
note_on channel=0 note=62 velocity=0 time=0
note_on channel=0 note=69 velocity=0 time=0
note_on channel=0 note=66 velocity=0 time=0
note_on channel=0 note=94 velocity=0 time=0
note_on channel=0 note=60 velocity=0 time=0
note_on channel=0 note=84 velocity=78 time=0
note_on channel=0 note=60 velocity=57 time=0
note_on channel=0 note=66 velocity=48 time=0
note_on channel=0 note=62 velocity=57 time=0
note_on channel=0 note=69 velocity=57 time=0
<meta message set_tempo tempo=522967 time=120>
note_on channel=0 note=96 velocity=78 time=0
note_on channel=0 note=87 velocity=65 time=0
<meta message set_tempo tempo=507958 time=120>
note_on channel=0 note=87 velocity=0 time=0
note_on channel=0 note=69 velocity=0 time=0
note_on channel=0 note=60 velocity=0 time=0
note_on channel=0 note=66 velocity=0 time=0
note_on channel=0 note=84 velocity=0 time=0
note_on channel=0 note=96 velocity=0 time=0
note_on channel=0 note=62 velocity=0 time=0
note_on channel=0 note=84 velocity=89 time=0
note_on channel=0 note=58 velocity=74 time=0
note_on channel=0 note=46 velocity=61 time=0
control_change channel=0 control=64 value=0 time=8
control_change channel=0 control=64 value=127 time=91
<meta message set_tempo tempo=491803 time=21>
note_on channel=0 note=46 velocity=0 time=0
note_on channel=0 note=58 velocity=0 time=0
note_on channel=0 note=87 velocity=68 time=0
note_on channel=0 note=96 velocity=81 time=0
note_on channel=0 note=96 velocity=0 time=120
note_on channel=0 note=87 velocity=0 time=0
note_on channel=0 note=84 velocity=0 time=0
note_on channel=0 note=82 velocity=80 time=0
note_on channel=0 note=55 velocity=49 time=0
note_on channel=0 note=62 velocity=49 time=0
note_on channel=0 note=67 velocity=58 time=0
note_on channel=0 note=86 velocity=68 time=120
note_on channel=0 note=94 velocity=81 time=0
note_on channel=0 note=94 velocity=0 time=120
note_on channel=0 note=55 velocity=0 time=0
note_on channel=0 note=62 velocity=0 time=0
note_on channel=0 note=82 velocity=0 time=0
note_on channel=0 note=86 velocity=0 time=0
note_on channel=0 note=67 velocity=0 time=0
note_on channel=0 note=82 velocity=77 time=0
note_on channel=0 note=48 velocity=54 time=0
note_on channel=0 note=60 velocity=66 time=0
control_change channel=0 control=64 value=0 time=14
control_change channel=0 control=64 value=127 time=99
note_on channel=0 note=60 velocity=0 time=7
note_on channel=0 note=48 velocity=0 time=0
note_on channel=0 note=86 velocity=75 time=0
note_on channel=0 note=94 velocity=89 time=0
note_on channel=0 note=94 velocity=0 time=120
note_on channel=0 note=86 velocity=0 time=0
note_on channel=0 note=82 velocity=0 time=0
note_on channel=0 note=81 velocity=78 time=0
note_on channel=0 note=57 velocity=54 time=0
note_on channel=0 note=67 velocity=66 time=0
note_on channel=0 note=63 velocity=54 time=0
note_on channel=0 note=93 velocity=78 time=120
note_on channel=0 note=84 velocity=66 time=0
<meta message set_tempo tempo=525210 time=120>
note_on channel=0 note=84 velocity=0 time=0
note_on channel=0 note=57 velocity=0 time=0
note_on channel=0 note=67 velocity=0 time=0
note_on channel=0 note=81 velocity=0 time=0
note_on channel=0 note=93 velocity=0 time=0
note_on channel=0 note=63 velocity=0 time=0
note_on channel=0 note=81 velocity=89 time=0
note_on channel=0 note=62 velocity=74 time=0
note_on channel=0 note=50 velocity=61 time=0
control_change channel=0 control=64 value=0 time=8
control_change channel=0 control=64 value=127 time=49
<meta message set_tempo tempo=493787 time=63>
note_on channel=0 note=50 velocity=0 time=0
note_on channel=0 note=62 velocity=0 time=0
note_on channel=0 note=93 velocity=81 time=0
note_on channel=0 note=84 velocity=68 time=0
note_on channel=0 note=84 velocity=0 time=120
note_on channel=0 note=93 velocity=0 time=0
note_on channel=0 note=81 velocity=0 time=0
note_on channel=0 note=79 velocity=80 time=0
note_on channel=0 note=70 velocity=58 time=0
note_on channel=0 note=67 velocity=49 time=0
note_on channel=0 note=62 velocity=49 time=0
note_on channel=0 note=82 velocity=68 time=120
note_on channel=0 note=91 velocity=81 time=0
note_on channel=0 note=91 velocity=0 time=120
note_on channel=0 note=70 velocity=0 time=0
note_on channel=0 note=67 velocity=0 time=0
note_on channel=0 note=79 velocity=0 time=0
note_on channel=0 note=82 velocity=0 time=0
note_on channel=0 note=62 velocity=0 time=0
note_on channel=0 note=79 velocity=77 time=0
note_on channel=0 note=48 velocity=54 time=0
note_on channel=0 note=60 velocity=66 time=0
control_change channel=0 control=64 value=0 time=10
control_change channel=0 control=64 value=127 time=87
note_on channel=0 note=60 velocity=0 time=23
note_on channel=0 note=48 velocity=0 time=0
note_on channel=0 note=82 velocity=75 time=0
note_on channel=0 note=91 velocity=89 time=0
note_on channel=0 note=91 velocity=0 time=120
note_on channel=0 note=82 velocity=0 time=0
note_on channel=0 note=79 velocity=0 time=0
note_on channel=0 note=74 velocity=78 time=0
note_on channel=0 note=66 velocity=54 time=0
note_on channel=0 note=69 velocity=66 time=0
note_on channel=0 note=62 velocity=54 time=0
note_on channel=0 note=60 velocity=54 time=0
<meta message set_tempo tempo=518627 time=120>
note_on channel=0 note=78 velocity=66 time=0
note_on channel=0 note=86 velocity=78 time=0
<meta message set_tempo tempo=527426 time=120>
note_on channel=0 note=86 velocity=0 time=0
note_on channel=0 note=60 velocity=0 time=0
note_on channel=0 note=66 velocity=0 time=0
note_on channel=0 note=69 velocity=0 time=0
note_on channel=0 note=74 velocity=0 time=0
note_on channel=0 note=78 velocity=0 time=0
note_on channel=0 note=62 velocity=0 time=0
note_on channel=0 note=46 velocity=52 time=0
note_on channel=0 note=58 velocity=61 time=0
control_change channel=0 control=64 value=0 time=11
control_change channel=0 control=64 value=127 time=46
<meta message set_tempo tempo=497760 time=63>
note_on channel=0 note=58 velocity=0 time=0
note_on channel=0 note=46 velocity=0 time=0
note_on channel=0 note=82 velocity=77 time=0
note_on channel=0 note=82 velocity=0 time=120
note_on channel=0 note=86 velocity=71 time=0
note_on channel=0 note=94 velocity=84 time=0
note_on channel=0 note=62 velocity=46 time=0
note_on channel=0 note=55 velocity=46 time=0
note_on channel=0 note=67 velocity=54 time=0
note_on channel=0 note=94 velocity=0 time=120
note_on channel=0 note=86 velocity=0 time=0
note_on channel=0 note=82 velocity=80 time=0
note_on channel=0 note=82 velocity=0 time=120
note_on channel=0 note=67 velocity=0 time=0
note_on channel=0 note=62 velocity=0 time=0
note_on channel=0 note=55 velocity=0 time=0
note_on channel=0 note=94 velocity=82 time=0
note_on channel=0 note=85 velocity=70 time=0
note_on channel=0 note=60 velocity=58 time=0
note_on channel=0 note=48 velocity=48 time=0
control_change channel=0 control=64 value=0 time=10
control_change channel=0 control=64 value=127 time=82
note_on channel=0 note=48 velocity=0 time=28
note_on channel=0 note=94 velocity=0 time=0
note_on channel=0 note=85 velocity=0 time=0
note_on channel=0 note=60 velocity=0 time=0
note_on channel=0 note=82 velocity=79 time=0
note_on channel=0 note=82 velocity=0 time=120
note_on channel=0 note=93 velocity=85 time=0
note_on channel=0 note=84 velocity=72 time=0
note_on channel=0 note=57 velocity=48 time=0
note_on channel=0 note=63 velocity=48 time=0
note_on channel=0 note=67 velocity=57 time=0
note_on channel=0 note=84 velocity=0 time=120
note_on channel=0 note=93 velocity=0 time=0
note_on channel=0 note=81 velocity=81 time=0
<meta message set_tempo tempo=525210 time=120>
note_on channel=0 note=81 velocity=0 time=0
note_on channel=0 note=67 velocity=0 time=0
note_on channel=0 note=57 velocity=0 time=0
note_on channel=0 note=63 velocity=0 time=0
note_on channel=0 note=93 velocity=88 time=0
note_on channel=0 note=84 velocity=74 time=0
note_on channel=0 note=50 velocity=56 time=0
note_on channel=0 note=62 velocity=68 time=0
control_change channel=0 control=64 value=0 time=8
control_change channel=0 control=64 value=127 time=49
<meta message set_tempo tempo=499750 time=63>
note_on channel=0 note=62 velocity=0 time=0
note_on channel=0 note=93 velocity=0 time=0
note_on channel=0 note=84 velocity=0 time=0
note_on channel=0 note=50 velocity=0 time=0
note_on channel=0 note=81 velocity=79 time=0
note_on channel=0 note=81 velocity=0 time=120
note_on channel=0 note=82 velocity=74 time=0
note_on channel=0 note=91 velocity=87 time=0
note_on channel=0 note=67 velocity=49 time=0
note_on channel=0 note=70 velocity=58 time=0
note_on channel=0 note=62 velocity=49 time=0
note_on channel=0 note=91 velocity=0 time=120
note_on channel=0 note=82 velocity=0 time=0
note_on channel=0 note=79 velocity=80 time=0
note_on channel=0 note=79 velocity=0 time=120
note_on channel=0 note=62 velocity=0 time=0
note_on channel=0 note=67 velocity=0 time=0
note_on channel=0 note=70 velocity=0 time=0
note_on channel=0 note=82 velocity=75 time=0
note_on channel=0 note=91 velocity=89 time=0
note_on channel=0 note=48 velocity=51 time=0
note_on channel=0 note=60 velocity=60 time=0
control_change channel=0 control=64 value=0 time=15
control_change channel=0 control=64 value=127 time=82
note_on channel=0 note=60 velocity=0 time=23
note_on channel=0 note=82 velocity=0 time=0
note_on channel=0 note=91 velocity=0 time=0
note_on channel=0 note=48 velocity=0 time=0
note_on channel=0 note=79 velocity=79 time=0
note_on channel=0 note=79 velocity=0 time=120
note_on channel=0 note=86 velocity=89 time=0
note_on channel=0 note=78 velocity=75 time=0
note_on channel=0 note=62 velocity=49 time=0
note_on channel=0 note=69 velocity=49 time=0
note_on channel=0 note=66 velocity=49 time=0
note_on channel=0 note=60 velocity=49 time=0
<meta message set_tempo tempo=527426 time=120>
note_on channel=0 note=78 velocity=0 time=0
note_on channel=0 note=86 velocity=0 time=0
note_on channel=0 note=74 velocity=81 time=0
note_on channel=0 note=74 velocity=0 time=120
note_on channel=0 note=62 velocity=0 time=0
note_on channel=0 note=69 velocity=0 time=0
note_on channel=0 note=60 velocity=0 time=0
note_on channel=0 note=66 velocity=0 time=0
note_on channel=0 note=58 velocity=87 time=0
note_on channel=0 note=46 velocity=73 time=0
control_change channel=0 control=64 value=0 time=11
<meta message set_tempo tempo=493787 time=109>
note_on channel=0 note=46 velocity=0 time=0
note_on channel=0 note=58 velocity=0 time=0
note_on channel=0 note=86 velocity=87 time=0
control_change channel=0 control=64 value=127 time=0
note_on channel=0 note=86 velocity=0 time=120
note_on channel=0 note=91 velocity=80 time=0
note_on channel=0 note=94 velocity=80 time=0
note_on channel=0 note=98 velocity=95 time=0
note_on channel=0 note=98 velocity=0 time=120
note_on channel=0 note=94 velocity=0 time=0
note_on channel=0 note=91 velocity=0 time=0
note_on channel=0 note=86 velocity=86 time=0
note_on channel=0 note=86 velocity=0 time=120
note_on channel=0 note=82 velocity=73 time=0
note_on channel=0 note=86 velocity=86 time=0
note_on channel=0 note=79 velocity=73 time=0
note_on channel=0 note=79 velocity=0 time=120
note_on channel=0 note=86 velocity=0 time=0
note_on channel=0 note=82 velocity=0 time=0
note_on channel=0 note=74 velocity=78 time=0
note_on channel=0 note=74 velocity=0 time=120
note_on channel=0 note=86 velocity=88 time=0
note_on channel=0 note=82 velocity=74 time=0
note_on channel=0 note=79 velocity=74 time=0
<meta message set_tempo tempo=527426 time=120>
note_on channel=0 note=79 velocity=0 time=0
note_on channel=0 note=82 velocity=0 time=0
note_on channel=0 note=86 velocity=0 time=0
note_on channel=0 note=74 velocity=78 time=0
<meta message set_tempo tempo=495786 time=120>
note_on channel=0 note=74 velocity=0 time=0
note_on channel=0 note=70 velocity=69 time=0
note_on channel=0 note=74 velocity=81 time=0
note_on channel=0 note=67 velocity=69 time=0
note_on channel=0 note=67 velocity=0 time=120
note_on channel=0 note=74 velocity=0 time=0
note_on channel=0 note=70 velocity=0 time=0
note_on channel=0 note=62 velocity=77 time=0
note_on channel=0 note=62 velocity=0 time=120
note_on channel=0 note=67 velocity=70 time=0
note_on channel=0 note=70 velocity=70 time=0
note_on channel=0 note=74 velocity=82 time=0
note_on channel=0 note=74 velocity=0 time=120
note_on channel=0 note=70 velocity=0 time=0
note_on channel=0 note=67 velocity=0 time=0
note_on channel=0 note=62 velocity=76 time=0
note_on channel=0 note=62 velocity=0 time=120
note_on channel=0 note=62 velocity=82 time=0
note_on channel=0 note=58 velocity=70 time=0
note_on channel=0 note=55 velocity=70 time=0
note_on channel=0 note=55 velocity=0 time=120
note_on channel=0 note=58 velocity=0 time=0
note_on channel=0 note=62 velocity=0 time=0
note_on channel=0 note=50 velocity=74 time=0
note_on channel=0 note=50 velocity=0 time=120
note_on channel=0 note=58 velocity=70 time=0
note_on channel=0 note=62 velocity=82 time=0
note_on channel=0 note=55 velocity=70 time=0
<meta message set_tempo tempo=522967 time=120>
note_on channel=0 note=55 velocity=0 time=0
note_on channel=0 note=62 velocity=0 time=0
note_on channel=0 note=58 velocity=0 time=0
note_on channel=0 note=50 velocity=64 time=0
<meta message set_tempo tempo=514271 time=120>
note_on channel=0 note=50 velocity=0 time=0
note_on channel=0 note=42 velocity=93 time=0
note_on channel=0 note=30 velocity=78 time=0
control_change channel=0 control=64 value=0 time=0
<meta message set_tempo tempo=512208 time=20>
<meta message set_tempo tempo=514271 time=20>
<meta message set_tempo tempo=516440 time=80>
note_on channel=0 note=30 velocity=0 time=0
note_on channel=0 note=42 velocity=0 time=0
note_on channel=0 note=43 velocity=81 time=0
note_on channel=0 note=31 velocity=69 time=0
<meta message set_tempo tempo=518627 time=80>
note_on channel=0 note=31 velocity=0 time=40
note_on channel=0 note=43 velocity=0 time=0
note_on channel=0 note=64 velocity=90 time=0
note_on channel=0 note=58 velocity=75 time=0
note_on channel=0 note=55 velocity=75 time=0
<meta message set_tempo tempo=520788 time=40>
<meta message set_tempo tempo=522967 time=60>
note_on channel=0 note=55 velocity=0 time=20
note_on channel=0 note=58 velocity=0 time=0
note_on channel=0 note=64 velocity=0 time=0
note_on channel=0 note=50 velocity=77 time=0
<meta message set_tempo tempo=525210 time=60>
note_on channel=0 note=50 velocity=0 time=60
note_on channel=0 note=37 velocity=78 time=0
note_on channel=0 note=49 velocity=93 time=0
<meta message set_tempo tempo=527426 time=20>
<meta message set_tempo tempo=529708 time=80>
note_on channel=0 note=49 velocity=0 time=20
note_on channel=0 note=37 velocity=0 time=0
note_on channel=0 note=38 velocity=72 time=0
note_on channel=0 note=50 velocity=85 time=0
<meta message set_tempo tempo=531962 time=40>
<meta message set_tempo tempo=534283 time=80>
note_on channel=0 note=50 velocity=0 time=0
note_on channel=0 note=38 velocity=0 time=0
note_on channel=0 note=55 velocity=75 time=0
note_on channel=0 note=58 velocity=75 time=0
note_on channel=0 note=64 velocity=90 time=0
<meta message set_tempo tempo=536577 time=80>
note_on channel=0 note=64 velocity=0 time=40
note_on channel=0 note=58 velocity=0 time=0
note_on channel=0 note=55 velocity=0 time=0
note_on channel=0 note=50 velocity=81 time=0
<meta message set_tempo tempo=538938 time=40>
<meta message set_tempo tempo=541272 time=60>
<meta message set_tempo tempo=538938 time=20>
note_on channel=0 note=50 velocity=0 time=0
control_change channel=0 control=64 value=0 time=0
note_on channel=0 note=42 velocity=93 time=0
note_on channel=0 note=30 velocity=78 time=0
<meta message set_tempo tempo=538938 time=20>
<meta message set_tempo tempo=541272 time=60>
<meta message set_tempo tempo=543626 time=40>
note_on channel=0 note=30 velocity=0 time=0
note_on channel=0 note=42 velocity=0 time=0
note_on channel=0 note=43 velocity=81 time=0
note_on channel=0 note=31 velocity=69 time=0
<meta message set_tempo tempo=546001 time=40>
<meta message set_tempo tempo=548396 time=60>
note_on channel=0 note=31 velocity=0 time=20
note_on channel=0 note=43 velocity=0 time=0
note_on channel=0 note=58 velocity=75 time=0
note_on channel=0 note=55 velocity=75 time=0
note_on channel=0 note=64 velocity=90 time=0
<meta message set_tempo tempo=550863 time=20>
<meta message set_tempo tempo=553301 time=40>
<meta message set_tempo tempo=555813 time=60>
note_on channel=0 note=64 velocity=0 time=0
note_on channel=0 note=55 velocity=0 time=0
note_on channel=0 note=58 velocity=0 time=0
note_on channel=0 note=50 velocity=77 time=0
<meta message set_tempo tempo=558295 time=40>
<meta message set_tempo tempo=560800 time=40>
<meta message set_tempo tempo=563380 time=20>
<meta message set_tempo tempo=568559 time=20>
note_on channel=0 note=50 velocity=0 time=0
note_on channel=0 note=49 velocity=93 time=0
note_on channel=0 note=37 velocity=78 time=0
<meta message set_tempo tempo=571157 time=20>
<meta message set_tempo tempo=576535 time=20>
<meta message set_tempo tempo=579151 time=20>
<meta message set_tempo tempo=584681 time=20>
<meta message set_tempo tempo=587487 time=20>
<meta message set_tempo tempo=593061 time=20>
note_on channel=0 note=37 velocity=0 time=0
note_on channel=0 note=49 velocity=0 time=0
note_on channel=0 note=50 velocity=85 time=0
note_on channel=0 note=38 velocity=72 time=0
<meta message set_tempo tempo=595948 time=20>
<meta message set_tempo tempo=601685 time=20>
<meta message set_tempo tempo=607656 time=20>
<meta message set_tempo tempo=610625 time=20>
<meta message set_tempo tempo=616650 time=20>
<meta message set_tempo tempo=619707 time=20>
note_on channel=0 note=38 velocity=0 time=0
note_on channel=0 note=50 velocity=0 time=0
note_on channel=0 note=58 velocity=75 time=0
note_on channel=0 note=55 velocity=75 time=0
note_on channel=0 note=64 velocity=90 time=0
<meta message set_tempo tempo=625978 time=20>
<meta message set_tempo tempo=629129 time=20>
<meta message set_tempo tempo=635661 time=20>
<meta message set_tempo tempo=638910 time=20>
<meta message set_tempo tempo=645578 time=20>
<meta message set_tempo tempo=652316 time=20>
note_on channel=0 note=64 velocity=0 time=0
note_on channel=0 note=55 velocity=0 time=0
note_on channel=0 note=58 velocity=0 time=0
note_on channel=0 note=50 velocity=81 time=0
<meta message set_tempo tempo=784519 time=20>
<meta message set_tempo tempo=759494 time=100>
note_on channel=0 note=50 velocity=0 time=0
note_on channel=0 note=38 velocity=97 time=0
note_on channel=0 note=26 velocity=81 time=0
<meta message set_tempo tempo=547945 time=480>
note_on channel=0 note=26 velocity=0 time=0
note_on channel=0 note=38 velocity=0 time=0
note_on channel=0 note=55 velocity=54 time=0
control_change channel=0 control=64 value=127 time=17
<meta message set_tempo tempo=545455 time=3>
<meta message set_tempo tempo=542986 time=20>
<meta message set_tempo tempo=540541 time=20>
<meta message set_tempo tempo=538117 time=20>
note_on channel=0 note=55 velocity=0 time=0
note_on channel=0 note=56 velocity=54 time=0
<meta message set_tempo tempo=540541 time=60>
<meta message set_tempo tempo=545455 time=20>
note_on channel=0 note=56 velocity=0 time=0
note_on channel=0 note=57 velocity=55 time=0
<meta message set_tempo tempo=550459 time=20>
note_on channel=0 note=57 velocity=0 time=60
note_on channel=0 note=58 velocity=55 time=0
<meta message set_tempo tempo=547945 time=20>
<meta message set_tempo tempo=545455 time=20>
<meta message set_tempo tempo=542986 time=20>
note_on channel=0 note=58 velocity=0 time=20
note_on channel=0 note=59 velocity=56 time=0
<meta message set_tempo tempo=540541 time=20>
<meta message set_tempo tempo=538117 time=40>
<meta message set_tempo tempo=535714 time=20>
note_on channel=0 note=59 velocity=0 time=0
note_on channel=0 note=60 velocity=56 time=0
<meta message set_tempo tempo=542986 time=40>
<meta message set_tempo tempo=545455 time=20>
<meta message set_tempo tempo=550459 time=20>
note_on channel=0 note=60 velocity=0 time=0
note_on channel=0 note=61 velocity=56 time=0
<meta message set_tempo tempo=552995 time=20>
note_on channel=0 note=61 velocity=0 time=60
note_on channel=0 note=62 velocity=57 time=0
<meta message set_tempo tempo=550459 time=20>
<meta message set_tempo tempo=547945 time=20>
<meta message set_tempo tempo=545455 time=40>
note_on channel=0 note=62 velocity=0 time=0
note_on channel=0 note=63 velocity=57 time=0
<meta message set_tempo tempo=540541 time=20>
<meta message set_tempo tempo=538117 time=40>
note_on channel=0 note=63 velocity=0 time=20
note_on channel=0 note=64 velocity=58 time=0
<meta message set_tempo tempo=540541 time=20>
<meta message set_tempo tempo=545455 time=20>
<meta message set_tempo tempo=550459 time=20>
note_on channel=0 note=64 velocity=0 time=20
note_on channel=0 note=65 velocity=58 time=0
<meta message set_tempo tempo=545455 time=60>
<meta message set_tempo tempo=542986 time=20>
note_on channel=0 note=65 velocity=0 time=0
note_on channel=0 note=66 velocity=58 time=0
<meta message set_tempo tempo=540541 time=20>
<meta message set_tempo tempo=535714 time=20>
note_on channel=0 note=66 velocity=0 time=40
note_on channel=0 note=67 velocity=59 time=0
note_on channel=0 note=64 velocity=69 time=0
note_on channel=0 note=61 velocity=69 time=0
note_on channel=0 note=58 velocity=69 time=0
note_on channel=0 note=55 velocity=69 time=0
<meta message set_tempo tempo=538117 time=20>
<meta message set_tempo tempo=542986 time=40>
<meta message set_tempo tempo=547945 time=20>
note_on channel=0 note=67 velocity=0 time=0
note_on channel=0 note=68 velocity=59 time=0
<meta message set_tempo tempo=545455 time=80>
note_on channel=0 note=68 velocity=0 time=0
note_on channel=0 note=69 velocity=60 time=0
<meta message set_tempo tempo=542986 time=20>
<meta message set_tempo tempo=540541 time=20>
<meta message set_tempo tempo=538117 time=20>
<meta message set_tempo tempo=535714 time=20>
note_on channel=0 note=69 velocity=0 time=0
note_on channel=0 note=70 velocity=60 time=0
<meta message set_tempo tempo=533333 time=20>
<meta message set_tempo tempo=538117 time=20>
<meta message set_tempo tempo=542986 time=20>
<meta message set_tempo tempo=545455 time=20>
note_on channel=0 note=70 velocity=0 time=0
note_on channel=0 note=71 velocity=60 time=0
<meta message set_tempo tempo=547945 time=40>
note_on channel=0 note=55 velocity=0 time=0
note_on channel=0 note=58 velocity=0 time=0
note_on channel=0 note=64 velocity=0 time=0
note_on channel=0 note=61 velocity=0 time=0
note_on channel=0 note=58 velocity=62 time=0
note_on channel=0 note=55 velocity=62 time=0
note_on channel=0 note=64 velocity=62 time=0
note_on channel=0 note=61 velocity=62 time=0
note_on channel=0 note=71 velocity=0 time=40
note_on channel=0 note=72 velocity=61 time=0
<meta message set_tempo tempo=545455 time=20>
<meta message set_tempo tempo=542986 time=20>
<meta message set_tempo tempo=540541 time=20>
<meta message set_tempo tempo=538117 time=20>
note_on channel=0 note=72 velocity=0 time=0
note_on channel=0 note=61 velocity=0 time=0
note_on channel=0 note=58 velocity=0 time=0
note_on channel=0 note=55 velocity=0 time=0
note_on channel=0 note=64 velocity=0 time=0
note_on channel=0 note=73 velocity=61 time=0
note_on channel=0 note=66 velocity=69 time=0
note_on channel=0 note=58 velocity=69 time=0
note_on channel=0 note=55 velocity=69 time=0
note_on channel=0 note=61 velocity=69 time=0
control_change channel=0 control=64 value=0 time=8
control_change channel=0 control=64 value=127 time=26
note_on channel=0 note=73 velocity=0 time=46
note_on channel=0 note=74 velocity=63 time=0
<meta message set_tempo tempo=542986 time=20>
<meta message set_tempo tempo=550459 time=20>
note_on channel=0 note=74 velocity=0 time=40
note_on channel=0 note=75 velocity=63 time=0
<meta message set_tempo tempo=547945 time=40>
<meta message set_tempo tempo=545455 time=20>
<meta message set_tempo tempo=542986 time=20>
note_on channel=0 note=75 velocity=0 time=0
note_on channel=0 note=76 velocity=64 time=0
<meta message set_tempo tempo=538117 time=20>
<meta message set_tempo tempo=540541 time=20>
<meta message set_tempo tempo=542986 time=20>
<meta message set_tempo tempo=545455 time=20>
note_on channel=0 note=76 velocity=0 time=0
note_on channel=0 note=77 velocity=64 time=0
<meta message set_tempo tempo=550459 time=20>
note_on channel=0 note=77 velocity=0 time=60
note_on channel=0 note=78 velocity=64 time=0
<meta message set_tempo tempo=547945 time=20>
<meta message set_tempo tempo=545455 time=20>
<meta message set_tempo tempo=540541 time=40>
note_on channel=0 note=78 velocity=0 time=0
note_on channel=0 note=61 velocity=0 time=0
note_on channel=0 note=66 velocity=0 time=0
note_on channel=0 note=58 velocity=0 time=0
note_on channel=0 note=55 velocity=0 time=0
note_on channel=0 note=79 velocity=65 time=0
note_on channel=0 note=61 velocity=69 time=0
note_on channel=0 note=55 velocity=69 time=0
note_on channel=0 note=58 velocity=69 time=0
note_on channel=0 note=64 velocity=69 time=0
control_change channel=0 control=64 value=0 time=11
<meta message set_tempo tempo=538117 time=9>
control_change channel=0 control=64 value=127 time=29
note_on channel=0 note=79 velocity=0 time=31
note_on channel=0 note=80 velocity=65 time=0
<meta message set_tempo tempo=540541 time=20>
<meta message set_tempo tempo=542986 time=20>
<meta message set_tempo tempo=545455 time=20>
<meta message set_tempo tempo=547945 time=20>
note_on channel=0 note=80 velocity=0 time=0
note_on channel=0 note=81 velocity=66 time=0
<meta message set_tempo tempo=542986 time=80>
note_on channel=0 note=81 velocity=0 time=0
note_on channel=0 note=82 velocity=66 time=0
<meta message set_tempo tempo=540541 time=40>
<meta message set_tempo tempo=538117 time=20>
note_on channel=0 note=82 velocity=0 time=20
note_on channel=0 note=83 velocity=66 time=0
<meta message set_tempo tempo=540541 time=40>
note_on channel=0 note=64 velocity=0 time=0
note_on channel=0 note=58 velocity=0 time=0
note_on channel=0 note=61 velocity=0 time=0
note_on channel=0 note=55 velocity=0 time=0
note_on channel=0 note=64 velocity=62 time=0
note_on channel=0 note=61 velocity=62 time=0
note_on channel=0 note=55 velocity=62 time=0
note_on channel=0 note=58 velocity=62 time=0
<meta message set_tempo tempo=542986 time=20>
<meta message set_tempo tempo=545455 time=20>
note_on channel=0 note=83 velocity=0 time=0
note_on channel=0 note=84 velocity=67 time=0
<meta message set_tempo tempo=547945 time=20>
<meta message set_tempo tempo=542986 time=60>
note_on channel=0 note=84 velocity=0 time=0
note_on channel=0 note=58 velocity=0 time=0
note_on channel=0 note=64 velocity=0 time=0
note_on channel=0 note=61 velocity=0 time=0
note_on channel=0 note=55 velocity=0 time=0
note_on channel=0 note=85 velocity=67 time=0
note_on channel=0 note=58 velocity=69 time=0
note_on channel=0 note=61 velocity=69 time=0
note_on channel=0 note=55 velocity=69 time=0
note_on channel=0 note=66 velocity=69 time=0
control_change channel=0 control=64 value=0 time=9
<meta message set_tempo tempo=540541 time=31>
control_change channel=0 control=64 value=127 time=3
note_on channel=0 note=85 velocity=0 time=37
note_on channel=0 note=86 velocity=68 time=0
<meta message set_tempo tempo=538117 time=20>
<meta message set_tempo tempo=535714 time=60>
note_on channel=0 note=86 velocity=0 time=0
note_on channel=0 note=87 velocity=68 time=0
<meta message set_tempo tempo=538117 time=60>
<meta message set_tempo tempo=540541 time=20>
note_on channel=0 note=87 velocity=0 time=0
note_on channel=0 note=88 velocity=68 time=0
<meta message set_tempo tempo=545455 time=20>
<meta message set_tempo tempo=547945 time=20>
<meta message set_tempo tempo=545455 time=40>
note_on channel=0 note=88 velocity=0 time=0
note_on channel=0 note=89 velocity=69 time=0
<meta message set_tempo tempo=542986 time=20>
<meta message set_tempo tempo=540541 time=20>
<meta message set_tempo tempo=538117 time=20>
note_on channel=0 note=89 velocity=0 time=20
note_on channel=0 note=90 velocity=69 time=0
<meta message set_tempo tempo=535714 time=20>
<meta message set_tempo tempo=538117 time=20>
<meta message set_tempo tempo=540541 time=20>
<meta message set_tempo tempo=545455 time=20>
note_on channel=0 note=90 velocity=0 time=0
note_on channel=0 note=66 velocity=0 time=0
note_on channel=0 note=58 velocity=0 time=0
note_on channel=0 note=61 velocity=0 time=0
note_on channel=0 note=55 velocity=0 time=0
note_on channel=0 note=91 velocity=70 time=0
note_on channel=0 note=61 velocity=69 time=0
note_on channel=0 note=55 velocity=69 time=0
note_on channel=0 note=58 velocity=69 time=0
note_on channel=0 note=64 velocity=69 time=0
control_change channel=0 control=64 value=0 time=11
<meta message set_tempo tempo=550459 time=9>
control_change channel=0 control=64 value=127 time=23
note_on channel=0 note=91 velocity=0 time=37
note_on channel=0 note=92 velocity=70 time=0
<meta message set_tempo tempo=547945 time=20>
<meta message set_tempo tempo=545455 time=20>
<meta message set_tempo tempo=542986 time=20>
<meta message set_tempo tempo=540541 time=20>
note_on channel=0 note=92 velocity=0 time=0
note_on channel=0 note=93 velocity=70 time=0
<meta message set_tempo tempo=538117 time=20>
<meta message set_tempo tempo=542986 time=40>
<meta message set_tempo tempo=547945 time=20>
note_on channel=0 note=93 velocity=0 time=0
note_on channel=0 note=94 velocity=71 time=0
note_on channel=0 note=58 velocity=0 time=60
note_on channel=0 note=64 velocity=0 time=0
note_on channel=0 note=61 velocity=0 time=0
note_on channel=0 note=55 velocity=0 time=0
note_on channel=0 note=50 velocity=67 time=0
note_on channel=0 note=94 velocity=0 time=20
note_on channel=0 note=95 velocity=71 time=0
note_on channel=0 note=57 velocity=68 time=40
<meta message set_tempo tempo=545455 time=20>
<meta message set_tempo tempo=542986 time=20>
note_on channel=0 note=95 velocity=0 time=0
note_on channel=0 note=97 velocity=72 time=0
note_on channel=0 note=60 velocity=70 time=20
<meta message time_signature numerator=15 denominator=16 clocks_per_click=6 notated_32nd_notes_per_beat=8 time=60>
<meta message set_tempo tempo=400000 time=0>
note_on channel=0 note=97 velocity=0 time=0
note_on channel=0 note=99 velocity=88 time=0
note_on channel=0 note=67 velocity=78 time=0
control_change channel=0 control=64 value=0 time=8
control_change channel=0 control=64 value=127 time=61
<meta message set_tempo tempo=368098 time=51>
note_on channel=0 note=99 velocity=0 time=0
note_on channel=0 note=98 velocity=80 time=0
<meta message set_tempo tempo=360360 time=112>
note_on channel=0 note=98 velocity=0 time=8
note_on channel=0 note=101 velocity=80 time=0
<meta message set_tempo tempo=359281 time=4>
<meta message set_tempo tempo=358209 time=16>
<meta message set_tempo tempo=357143 time=12>
<meta message set_tempo tempo=358209 time=52>
<meta message set_tempo tempo=361446 time=16>
<meta message set_tempo tempo=362538 time=12>
note_on channel=0 note=101 velocity=0 time=8
note_on channel=0 note=99 velocity=81 time=0
<meta message set_tempo tempo=360360 time=20>
<meta message set_tempo tempo=359281 time=24>
<meta message set_tempo tempo=357143 time=28>
<meta message set_tempo tempo=356083 time=28>
<meta message set_tempo tempo=358209 time=12>
note_on channel=0 note=99 velocity=0 time=8
note_on channel=0 note=98 velocity=79 time=0
<meta message set_tempo tempo=359281 time=4>
<meta message set_tempo tempo=360360 time=16>
<meta message set_tempo tempo=361446 time=12>
<meta message set_tempo tempo=360360 time=28>
<meta message set_tempo tempo=359281 time=24>
note_on channel=0 note=98 velocity=0 time=36
note_on channel=0 note=96 velocity=79 time=0
<meta message set_tempo tempo=358209 time=4>
<meta message set_tempo tempo=357143 time=28>
<meta message set_tempo tempo=359281 time=12>
<meta message set_tempo tempo=360360 time=16>
<meta message set_tempo tempo=361446 time=12>
<meta message set_tempo tempo=360360 time=40>
note_on channel=0 note=96 velocity=0 time=8
note_on channel=0 note=95 velocity=79 time=0
<meta message set_tempo tempo=359281 time=4>
<meta message set_tempo tempo=358209 time=16>
<meta message set_tempo tempo=357143 time=40>
<meta message set_tempo tempo=358209 time=12>
<meta message set_tempo tempo=360360 time=12>
<meta message set_tempo tempo=361446 time=16>
note_on channel=0 note=95 velocity=0 time=20
note_on channel=0 note=98 velocity=79 time=0
<meta message set_tempo tempo=360360 time=4>
<meta message set_tempo tempo=359281 time=16>
<meta message set_tempo tempo=357143 time=24>
<meta message set_tempo tempo=356083 time=16>
<meta message set_tempo tempo=360360 time=12>
<meta message set_tempo tempo=361446 time=40>
note_on channel=0 note=98 velocity=0 time=8
note_on channel=0 note=96 velocity=79 time=0
<meta message set_tempo tempo=360360 time=32>
<meta message set_tempo tempo=358209 time=12>
<meta message set_tempo tempo=357143 time=28>
<meta message set_tempo tempo=358209 time=28>
<meta message set_tempo tempo=360360 time=12>
note_on channel=0 note=96 velocity=0 time=8
note_on channel=0 note=94 velocity=79 time=0
<meta message set_tempo tempo=361446 time=4>
<meta message set_tempo tempo=360360 time=28>
<meta message set_tempo tempo=358209 time=28>
<meta message set_tempo tempo=357143 time=40>
note_on channel=0 note=94 velocity=0 time=20
note_on channel=0 note=93 velocity=79 time=0
<meta message set_tempo tempo=359281 time=4>
<meta message set_tempo tempo=361446 time=16>
<meta message set_tempo tempo=360360 time=40>
<meta message set_tempo tempo=359281 time=12>
<meta message set_tempo tempo=357143 time=12>
note_on channel=0 note=93 velocity=0 time=36
note_on channel=0 note=91 velocity=79 time=0
<meta message set_tempo tempo=358209 time=44>
<meta message set_tempo tempo=359281 time=28>
<meta message set_tempo tempo=356083 time=28>
note_on channel=0 note=91 velocity=0 time=20
note_on channel=0 note=90 velocity=79 time=0
<meta message set_tempo tempo=358209 time=32>
<meta message set_tempo tempo=357143 time=40>
<meta message set_tempo tempo=355030 time=28>
note_on channel=0 note=90 velocity=0 time=20
note_on channel=0 note=93 velocity=79 time=0
<meta message set_tempo tempo=356083 time=4>
<meta message set_tempo tempo=358209 time=16>
<meta message set_tempo tempo=359281 time=24>
<meta message set_tempo tempo=358209 time=28>
<meta message set_tempo tempo=357143 time=40>
note_on channel=0 note=93 velocity=0 time=8
note_on channel=0 note=91 velocity=79 time=0
<meta message set_tempo tempo=356083 time=4>
<meta message set_tempo tempo=355030 time=16>
<meta message set_tempo tempo=356083 time=40>
<meta message set_tempo tempo=352941 time=12>
<meta message set_tempo tempo=353982 time=12>
<meta message time_signature numerator=14 denominator=16 clocks_per_click=6 notated_32nd_notes_per_beat=8 time=36>
<meta message set_tempo tempo=353982 time=0>
note_on channel=0 note=91 velocity=0 time=0
note_on channel=0 note=90 velocity=84 time=0
control_change channel=0 control=64 value=0 time=8
control_change channel=0 control=64 value=127 time=61
<meta message set_tempo tempo=352941 time=11>
note_on channel=0 note=90 velocity=0 time=40
note_on channel=0 note=87 velocity=80 time=0
<meta message set_tempo tempo=351906 time=20>
<meta message set_tempo tempo=350877 time=60>
note_on channel=0 note=87 velocity=0 time=40
note_on channel=0 note=86 velocity=80 time=0
<meta message set_tempo tempo=349854 time=20>
<meta message set_tempo tempo=348837 time=80>
note_on channel=0 note=86 velocity=0 time=20
note_on channel=0 note=87 velocity=80 time=0
<meta message set_tempo tempo=347826 time=40>
<meta message set_tempo tempo=346821 time=60>
note_on channel=0 note=87 velocity=0 time=20
note_on channel=0 note=86 velocity=79 time=0
<meta message set_tempo tempo=345821 time=40>
<meta message set_tempo tempo=344828 time=80>
note_on channel=0 note=86 velocity=0 time=0
note_on channel=0 note=89 velocity=79 time=0
<meta message set_tempo tempo=343840 time=60>
<meta message set_tempo tempo=342857 time=60>
note_on channel=0 note=89 velocity=0 time=0
note_on channel=0 note=87 velocity=79 time=0
<meta message set_tempo tempo=341880 time=60>
<meta message set_tempo tempo=340909 time=60>
note_on channel=0 note=87 velocity=0 time=0
note_on channel=0 note=86 velocity=78 time=0
note_on channel=0 note=86 velocity=0 time=120
note_on channel=0 note=84 velocity=77 time=0
note_on channel=0 note=84 velocity=0 time=120
note_on channel=0 note=83 velocity=77 time=0
note_on channel=0 note=83 velocity=0 time=120
note_on channel=0 note=86 velocity=76 time=0
<meta message set_tempo tempo=339943 time=20>
note_on channel=0 note=86 velocity=0 time=100
note_on channel=0 note=84 velocity=76 time=0
note_on channel=0 note=84 velocity=0 time=120
note_on channel=0 note=82 velocity=75 time=0
note_on channel=0 note=82 velocity=0 time=120
note_on channel=0 note=81 velocity=75 time=0
<meta message set_tempo tempo=338983 time=40>
<meta message time_signature numerator=19 denominator=16 clocks_per_click=6 notated_32nd_notes_per_beat=8 time=80>
note_on channel=0 note=81 velocity=0 time=0
note_on channel=0 note=67 velocity=0 time=0
note_on channel=0 note=79 velocity=75 time=0
note_on channel=0 note=66 velocity=80 time=0
control_change channel=0 control=64 value=0 time=5
<meta message set_tempo tempo=338983 time=15>
<meta message set_tempo tempo=338028 time=20>
control_change channel=0 control=64 value=127 time=40
note_on channel=0 note=79 velocity=0 time=40
note_on channel=0 note=78 velocity=75 time=0
<meta message set_tempo tempo=339943 time=40>
<meta message set_tempo tempo=338983 time=60>
<meta message set_tempo tempo=338028 time=20>
note_on channel=0 note=78 velocity=0 time=0
note_on channel=0 note=81 velocity=75 time=0
<meta message set_tempo tempo=337079 time=20>
<meta message set_tempo tempo=336134 time=20>
<meta message set_tempo tempo=335196 time=20>
<meta message set_tempo tempo=334262 time=40>
<meta message set_tempo tempo=338028 time=20>
note_on channel=0 note=81 velocity=0 time=0
note_on channel=0 note=79 velocity=75 time=0
<meta message set_tempo tempo=339943 time=20>
<meta message set_tempo tempo=338983 time=80>
note_on channel=0 note=79 velocity=0 time=20
note_on channel=0 note=78 velocity=75 time=0
<meta message set_tempo tempo=338028 time=20>
<meta message set_tempo tempo=337079 time=20>
<meta message set_tempo tempo=336134 time=20>
<meta message set_tempo tempo=335196 time=20>
<meta message set_tempo tempo=336134 time=40>
note_on channel=0 note=78 velocity=0 time=0
note_on channel=0 note=75 velocity=75 time=0
<meta message set_tempo tempo=337079 time=20>
<meta message set_tempo tempo=338028 time=20>
<meta message set_tempo tempo=339943 time=20>
<meta message set_tempo tempo=340909 time=20>
note_on channel=0 note=75 velocity=0 time=40
note_on channel=0 note=74 velocity=75 time=0
<meta message set_tempo tempo=339943 time=20>
<meta message set_tempo tempo=338028 time=20>
<meta message set_tempo tempo=336134 time=20>
<meta message set_tempo tempo=335196 time=40>
<meta message set_tempo tempo=336134 time=20>
note_on channel=0 note=74 velocity=0 time=0
note_on channel=0 note=75 velocity=74 time=0
<meta message set_tempo tempo=337079 time=20>
<meta message set_tempo tempo=338028 time=20>
<meta message set_tempo tempo=339943 time=20>
<meta message set_tempo tempo=341880 time=20>
note_on channel=0 note=75 velocity=0 time=40
note_on channel=0 note=74 velocity=74 time=0
<meta message set_tempo tempo=340909 time=20>
<meta message set_tempo tempo=338983 time=20>
<meta message set_tempo tempo=337079 time=20>
control_change channel=0 control=64 value=0 time=20
note_on channel=0 note=74 velocity=0 time=40
note_on channel=0 note=77 velocity=74 time=0
<meta message set_tempo tempo=338028 time=20>
<meta message set_tempo tempo=338983 time=20>
<meta message set_tempo tempo=341880 time=20>
<meta message set_tempo tempo=339943 time=40>
<meta message set_tempo tempo=338983 time=20>
note_on channel=0 note=77 velocity=0 time=0
note_on channel=0 note=75 velocity=74 time=0
<meta message set_tempo tempo=338028 time=20>
<meta message set_tempo tempo=337079 time=20>
<meta message set_tempo tempo=336134 time=20>
<meta message set_tempo tempo=337079 time=60>
note_on channel=0 note=75 velocity=0 time=0
note_on channel=0 note=74 velocity=74 time=0
<meta message set_tempo tempo=338028 time=20>
<meta message set_tempo tempo=338983 time=40>
note_on channel=0 note=74 velocity=0 time=60
note_on channel=0 note=72 velocity=74 time=0
<meta message set_tempo tempo=336134 time=40>
<meta message set_tempo tempo=335196 time=40>
<meta message set_tempo tempo=336134 time=40>
note_on channel=0 note=72 velocity=0 time=0
note_on channel=0 note=71 velocity=74 time=0
<meta message set_tempo tempo=338028 time=20>
<meta message set_tempo tempo=343840 time=60>
<meta message set_tempo tempo=344828 time=20>
note_on channel=0 note=71 velocity=0 time=20
note_on channel=0 note=74 velocity=73 time=0
<meta message set_tempo tempo=341880 time=20>
<meta message set_tempo tempo=338983 time=20>
<meta message set_tempo tempo=337079 time=20>
<meta message set_tempo tempo=336134 time=20>
<meta message set_tempo tempo=337079 time=40>
note_on channel=0 note=74 velocity=0 time=0
note_on channel=0 note=72 velocity=73 time=0
<meta message set_tempo tempo=338028 time=20>
<meta message set_tempo tempo=338983 time=20>
<meta message set_tempo tempo=339943 time=20>
<meta message set_tempo tempo=338983 time=40>
note_on channel=0 note=72 velocity=0 time=20
note_on channel=0 note=70 velocity=73 time=0
<meta message set_tempo tempo=338028 time=20>
<meta message set_tempo tempo=337079 time=40>
<meta message set_tempo tempo=335196 time=20>
<meta message set_tempo tempo=336134 time=20>
<meta message set_tempo tempo=337079 time=20>
note_on channel=0 note=70 velocity=0 time=0
note_on channel=0 note=69 velocity=73 time=0
<meta message set_tempo tempo=338028 time=20>
<meta message set_tempo tempo=338983 time=20>
<meta message set_tempo tempo=339943 time=40>
<meta message set_tempo tempo=338983 time=40>
note_on channel=0 note=69 velocity=0 time=0
note_on channel=0 note=67 velocity=73 time=0
<meta message set_tempo tempo=338028 time=20>
<meta message set_tempo tempo=337079 time=20>
<meta message set_tempo tempo=338028 time=20>
note_on channel=0 note=66 velocity=0 time=58
<meta message time_signature numerator=20 denominator=16 clocks_per_click=6 notated_32nd_notes_per_beat=8 time=2>
note_on channel=0 note=60 velocity=0 time=0
note_on channel=0 note=50 velocity=0 time=0
note_on channel=0 note=57 velocity=0 time=0
note_on channel=0 note=67 velocity=0 time=0
note_on channel=0 note=66 velocity=74 time=0
note_on channel=0 note=66 velocity=0 time=120
note_on channel=0 note=63 velocity=75 time=0
<meta message set_tempo tempo=337079 time=40>
<meta message set_tempo tempo=336134 time=80>
note_on channel=0 note=63 velocity=0 time=0
note_on channel=0 note=62 velocity=76 time=0
<meta message set_tempo tempo=335196 time=80>
note_on channel=0 note=62 velocity=0 time=40
note_on channel=0 note=60 velocity=76 time=0
<meta message set_tempo tempo=334262 time=40>
<meta message set_tempo tempo=333333 time=80>
note_on channel=0 note=60 velocity=0 time=0
note_on channel=0 note=58 velocity=76 time=0
<meta message set_tempo tempo=332410 time=80>
note_on channel=0 note=58 velocity=0 time=40
note_on channel=0 note=57 velocity=79 time=0
<meta message set_tempo tempo=331492 time=40>
<meta message set_tempo tempo=330579 time=80>
note_on channel=0 note=57 velocity=0 time=0
note_on channel=0 note=55 velocity=81 time=0
<meta message set_tempo tempo=329670 time=80>
note_on channel=0 note=55 velocity=0 time=40
note_on channel=0 note=54 velocity=83 time=0
<meta message set_tempo tempo=328767 time=40>
<meta message set_tempo tempo=327869 time=80>
note_on channel=0 note=54 velocity=0 time=0
note_on channel=0 note=51 velocity=84 time=0
<meta message set_tempo tempo=326975 time=80>
note_on channel=0 note=51 velocity=0 time=40
note_on channel=0 note=50 velocity=84 time=0
<meta message set_tempo tempo=326087 time=40>
<meta message set_tempo tempo=325203 time=80>
note_on channel=0 note=50 velocity=0 time=0
note_on channel=0 note=48 velocity=85 time=0
<meta message set_tempo tempo=326087 time=60>
<meta message set_tempo tempo=326975 time=60>
note_on channel=0 note=48 velocity=0 time=0
note_on channel=0 note=46 velocity=86 time=0
<meta message set_tempo tempo=327869 time=40>
<meta message set_tempo tempo=328767 time=60>
note_on channel=0 note=46 velocity=0 time=20
note_on channel=0 note=45 velocity=88 time=0
<meta message set_tempo tempo=329670 time=40>
<meta message set_tempo tempo=330579 time=40>
note_on channel=0 note=45 velocity=0 time=40
note_on channel=0 note=43 velocity=89 time=0
<meta message set_tempo tempo=331492 time=20>
<meta message set_tempo tempo=332410 time=60>
<meta message set_tempo tempo=333333 time=40>
note_on channel=0 note=43 velocity=0 time=0
note_on channel=0 note=42 velocity=91 time=0
<meta message set_tempo tempo=334262 time=60>
<meta message set_tempo tempo=335196 time=60>
note_on channel=0 note=42 velocity=0 time=0
note_on channel=0 note=39 velocity=93 time=0
<meta message set_tempo tempo=336134 time=40>
<meta message set_tempo tempo=337079 time=60>
note_on channel=0 note=39 velocity=0 time=20
note_on channel=0 note=38 velocity=94 time=0
<meta message set_tempo tempo=338028 time=40>
<meta message set_tempo tempo=338983 time=40>
note_on channel=0 note=38 velocity=0 time=40
note_on channel=0 note=36 velocity=94 time=0
<meta message set_tempo tempo=339943 time=20>
<meta message set_tempo tempo=340909 time=60>
<meta message set_tempo tempo=341880 time=40>
note_on channel=0 note=36 velocity=0 time=0
note_on channel=0 note=34 velocity=95 time=0
<meta message set_tempo tempo=342857 time=60>
<meta message set_tempo tempo=343840 time=60>
note_on channel=0 note=34 velocity=0 time=0
note_on channel=0 note=33 velocity=97 time=0
<meta message set_tempo tempo=344828 time=40>
<meta message set_tempo tempo=345821 time=60>
<meta message time_signature numerator=4 denominator=8 clocks_per_click=12 notated_32nd_notes_per_beat=8 time=20>
note_on channel=0 note=33 velocity=0 time=0
note_on channel=0 note=31 velocity=115 time=0
<meta message set_tempo tempo=346821 time=20>
<meta message time_signature numerator=21 denominator=16 clocks_per_click=6 notated_32nd_notes_per_beat=8 time=940>
<meta message set_tempo tempo=340909 time=20>
note_on channel=0 note=31 velocity=0 time=100
note_on channel=0 note=45 velocity=75 time=0
note_on channel=0 note=33 velocity=65 time=0
<meta message set_tempo tempo=339943 time=20>
<meta message set_tempo tempo=338983 time=100>
note_on channel=0 note=33 velocity=0 time=0
note_on channel=0 note=45 velocity=0 time=0
note_on channel=0 note=46 velocity=75 time=0
note_on channel=0 note=34 velocity=65 time=0
<meta message set_tempo tempo=338028 time=120>
note_on channel=0 note=34 velocity=0 time=0
note_on channel=0 note=46 velocity=0 time=0
note_on channel=0 note=48 velocity=76 time=0
note_on channel=0 note=36 velocity=66 time=0
<meta message set_tempo tempo=337079 time=100>
note_on channel=0 note=36 velocity=0 time=20
note_on channel=0 note=48 velocity=0 time=0
note_on channel=0 note=50 velocity=77 time=0
note_on channel=0 note=38 velocity=67 time=0
<meta message set_tempo tempo=336134 time=100>
note_on channel=0 note=38 velocity=0 time=20
note_on channel=0 note=50 velocity=0 time=0
note_on channel=0 note=52 velocity=77 time=0
note_on channel=0 note=40 velocity=67 time=0
<meta message set_tempo tempo=335196 time=80>
note_on channel=0 note=40 velocity=0 time=40
note_on channel=0 note=52 velocity=0 time=0
note_on channel=0 note=54 velocity=78 time=0
note_on channel=0 note=42 velocity=68 time=0
<meta message set_tempo tempo=334262 time=80>
note_on channel=0 note=42 velocity=0 time=40
note_on channel=0 note=54 velocity=0 time=0
note_on channel=0 note=55 velocity=78 time=0
note_on channel=0 note=43 velocity=68 time=0
<meta message set_tempo tempo=333333 time=60>
note_on channel=0 note=43 velocity=0 time=60
note_on channel=0 note=55 velocity=0 time=0
note_on channel=0 note=57 velocity=79 time=0
note_on channel=0 note=45 velocity=69 time=0
<meta message set_tempo tempo=332410 time=40>
note_on channel=0 note=45 velocity=0 time=80
note_on channel=0 note=57 velocity=0 time=0
note_on channel=0 note=58 velocity=80 time=0
note_on channel=0 note=46 velocity=69 time=0
control_change channel=0 control=64 value=0 time=17
control_change channel=0 control=64 value=127 time=46
note_on channel=0 note=46 velocity=0 time=57
note_on channel=0 note=58 velocity=0 time=0
note_on channel=0 note=60 velocity=80 time=0
note_on channel=0 note=48 velocity=70 time=0
note_on channel=0 note=48 velocity=0 time=120
note_on channel=0 note=60 velocity=0 time=0
note_on channel=0 note=62 velocity=81 time=0
note_on channel=0 note=50 velocity=70 time=0
note_on channel=0 note=50 velocity=0 time=120
note_on channel=0 note=62 velocity=0 time=0
note_on channel=0 note=64 velocity=81 time=0
note_on channel=0 note=52 velocity=71 time=0
<meta message set_tempo tempo=332410 time=120>
note_on channel=0 note=52 velocity=0 time=0
note_on channel=0 note=64 velocity=0 time=0
note_on channel=0 note=66 velocity=82 time=0
note_on channel=0 note=54 velocity=72 time=0
<meta message set_tempo tempo=333333 time=60>
<meta message set_tempo tempo=334262 time=60>
note_on channel=0 note=54 velocity=0 time=0
note_on channel=0 note=66 velocity=0 time=0
note_on channel=0 note=67 velocity=83 time=0
note_on channel=0 note=55 velocity=72 time=0
<meta message set_tempo tempo=335196 time=40>
<meta message set_tempo tempo=336134 time=60>
note_on channel=0 note=55 velocity=0 time=20
note_on channel=0 note=67 velocity=0 time=0
note_on channel=0 note=69 velocity=83 time=0
note_on channel=0 note=57 velocity=73 time=0
<meta message set_tempo tempo=337079 time=40>
<meta message set_tempo tempo=338028 time=40>
note_on channel=0 note=57 velocity=0 time=40
note_on channel=0 note=69 velocity=0 time=0
note_on channel=0 note=70 velocity=84 time=0
note_on channel=0 note=58 velocity=73 time=0
<meta message set_tempo tempo=338983 time=20>
<meta message set_tempo tempo=339943 time=60>
<meta message set_tempo tempo=340909 time=40>
note_on channel=0 note=58 velocity=0 time=0
note_on channel=0 note=70 velocity=0 time=0
note_on channel=0 note=72 velocity=84 time=0
note_on channel=0 note=60 velocity=74 time=0
<meta message set_tempo tempo=341880 time=60>
<meta message set_tempo tempo=342857 time=60>
note_on channel=0 note=60 velocity=0 time=0
note_on channel=0 note=72 velocity=0 time=0
note_on channel=0 note=74 velocity=85 time=0
note_on channel=0 note=62 velocity=74 time=0
<meta message set_tempo tempo=343840 time=40>
<meta message set_tempo tempo=344828 time=60>
note_on channel=0 note=62 velocity=0 time=20
note_on channel=0 note=74 velocity=0 time=0
note_on channel=0 note=76 velocity=86 time=0
note_on channel=0 note=64 velocity=75 time=0
<meta message set_tempo tempo=345821 time=40>
<meta message set_tempo tempo=346821 time=40>
note_on channel=0 note=64 velocity=0 time=40
note_on channel=0 note=76 velocity=0 time=0
note_on channel=0 note=78 velocity=86 time=0
note_on channel=0 note=66 velocity=76 time=0
<meta message set_tempo tempo=347826 time=20>
<meta message set_tempo tempo=348837 time=60>
<meta message time_signature numerator=4 denominator=8 clocks_per_click=12 notated_32nd_notes_per_beat=8 time=40>
<meta message set_tempo tempo=1500000 time=0>
note_on channel=0 note=66 velocity=0 time=0
note_on channel=0 note=78 velocity=0 time=0
note_on channel=0 note=79 velocity=89 time=0
note_on channel=0 note=67 velocity=83 time=0
control_change channel=0 control=64 value=0 time=0
note_on channel=0 note=67 velocity=0 time=120
note_on channel=0 note=79 velocity=0 time=0
<meta message set_tempo tempo=1578947 time=360>
note_on channel=0 note=50 velocity=31 time=0
note_on channel=0 note=43 velocity=26 time=0
note_on channel=0 note=31 velocity=26 time=0
note_on channel=0 note=55 velocity=31 time=0
note_on channel=0 note=58 velocity=38 time=0
control_change channel=0 control=64 value=127 time=64
note_on channel=0 note=58 velocity=0 time=296
note_on channel=0 note=31 velocity=0 time=0
note_on channel=0 note=50 velocity=0 time=0
note_on channel=0 note=43 velocity=0 time=0
note_on channel=0 note=55 velocity=0 time=0
note_on channel=0 note=31 velocity=26 time=0
note_on channel=0 note=55 velocity=31 time=0
note_on channel=0 note=58 velocity=38 time=0
note_on channel=0 note=43 velocity=26 time=0
note_on channel=0 note=50 velocity=31 time=0
note_on channel=0 note=50 velocity=0 time=120
note_on channel=0 note=58 velocity=0 time=0
note_on channel=0 note=31 velocity=0 time=0
note_on channel=0 note=55 velocity=0 time=0
note_on channel=0 note=43 velocity=0 time=0
note_on channel=0 note=31 velocity=26 time=0
note_on channel=0 note=43 velocity=26 time=0
note_on channel=0 note=55 velocity=31 time=0
note_on channel=0 note=58 velocity=38 time=0
note_on channel=0 note=50 velocity=31 time=0
<meta message set_tempo tempo=1304348 time=240>
control_change channel=0 control=64 value=0 time=198
<meta message set_tempo tempo=1445783 time=42>
note_on channel=0 note=50 velocity=0 time=0
note_on channel=0 note=55 velocity=0 time=0
note_on channel=0 note=31 velocity=0 time=0
note_on channel=0 note=43 velocity=0 time=0
note_on channel=0 note=58 velocity=0 time=0
note_on channel=0 note=50 velocity=84 time=80
note_on channel=0 note=38 velocity=75 time=0
<meta message set_tempo tempo=1333333 time=40>
note_on channel=0 note=38 velocity=0 time=40
note_on channel=0 note=50 velocity=0 time=0
note_on channel=0 note=43 velocity=71 time=0
note_on channel=0 note=55 velocity=80 time=0
<meta message set_tempo tempo=1348315 time=80>
note_on channel=0 note=55 velocity=0 time=0
note_on channel=0 note=43 velocity=0 time=0
note_on channel=0 note=45 velocity=77 time=0
note_on channel=0 note=57 velocity=85 time=0
<meta message set_tempo tempo=1276596 time=80>
note_on channel=0 note=57 velocity=0 time=0
note_on channel=0 note=45 velocity=0 time=0
note_on channel=0 note=48 velocity=79 time=0
note_on channel=0 note=60 velocity=89 time=0
<meta message set_tempo tempo=1363636 time=80>
note_on channel=0 note=60 velocity=0 time=0
note_on channel=0 note=48 velocity=0 time=0
note_on channel=0 note=46 velocity=74 time=0
note_on channel=0 note=58 velocity=83 time=0
note_on channel=0 note=58 velocity=0 time=70
note_on channel=0 note=46 velocity=0 time=0
<meta message set_tempo tempo=1200000 time=10>
note_on channel=0 note=46 velocity=82 time=0
note_on channel=0 note=58 velocity=92 time=0
note_on channel=0 note=58 velocity=0 time=120
note_on channel=0 note=46 velocity=0 time=0
note_on channel=0 note=46 velocity=85 time=360
note_on channel=0 note=31 velocity=79 time=0
<meta message set_tempo tempo=347826 time=460>
<meta message time_signature numerator=28 denominator=16 clocks_per_click=6 notated_32nd_notes_per_beat=8 time=20>
note_on channel=0 note=31 velocity=0 time=120
note_on channel=0 note=46 velocity=0 time=0
note_on channel=0 note=48 velocity=71 time=0
note_on channel=0 note=33 velocity=52 time=0
<meta message set_tempo tempo=346821 time=60>
note_on channel=0 note=33 velocity=0 time=60
note_on channel=0 note=48 velocity=0 time=0
note_on channel=0 note=50 velocity=71 time=0
note_on channel=0 note=34 velocity=52 time=0
<meta message set_tempo tempo=345821 time=120>
note_on channel=0 note=34 velocity=0 time=0
note_on channel=0 note=50 velocity=0 time=0
note_on channel=0 note=52 velocity=71 time=0
note_on channel=0 note=36 velocity=53 time=0
note_on channel=0 note=36 velocity=0 time=120
note_on channel=0 note=52 velocity=0 time=0
note_on channel=0 note=54 velocity=72 time=0
note_on channel=0 note=38 velocity=53 time=0
<meta message set_tempo tempo=344828 time=80>
note_on channel=0 note=38 velocity=0 time=40
note_on channel=0 note=54 velocity=0 time=0
note_on channel=0 note=55 velocity=72 time=0
note_on channel=0 note=40 velocity=54 time=0
control_change channel=0 control=64 value=127 time=57
note_on channel=0 note=40 velocity=0 time=63
note_on channel=0 note=55 velocity=0 time=0
note_on channel=0 note=57 velocity=72 time=0
note_on channel=0 note=42 velocity=54 time=0
<meta message set_tempo tempo=343840 time=20>
note_on channel=0 note=42 velocity=0 time=100
note_on channel=0 note=57 velocity=0 time=0
note_on channel=0 note=58 velocity=73 time=0
note_on channel=0 note=43 velocity=55 time=0
<meta message set_tempo tempo=342857 time=100>
note_on channel=0 note=43 velocity=0 time=20
note_on channel=0 note=58 velocity=0 time=0
note_on channel=0 note=60 velocity=73 time=0
note_on channel=0 note=45 velocity=55 time=0
note_on channel=0 note=45 velocity=0 time=120
note_on channel=0 note=60 velocity=0 time=0
note_on channel=0 note=62 velocity=73 time=0
note_on channel=0 note=46 velocity=56 time=0
<meta message set_tempo tempo=341880 time=40>
note_on channel=0 note=46 velocity=0 time=80
note_on channel=0 note=62 velocity=0 time=0
note_on channel=0 note=64 velocity=74 time=0
note_on channel=0 note=48 velocity=56 time=0
<meta message set_tempo tempo=340909 time=100>
note_on channel=0 note=48 velocity=0 time=20
note_on channel=0 note=64 velocity=0 time=0
note_on channel=0 note=66 velocity=74 time=0
note_on channel=0 note=50 velocity=57 time=0
note_on channel=0 note=50 velocity=0 time=120
note_on channel=0 note=66 velocity=0 time=0
note_on channel=0 note=67 velocity=74 time=0
note_on channel=0 note=52 velocity=57 time=0
<meta message set_tempo tempo=339943 time=60>
note_on channel=0 note=52 velocity=0 time=60
note_on channel=0 note=67 velocity=0 time=0
note_on channel=0 note=69 velocity=75 time=0
note_on channel=0 note=54 velocity=58 time=0
<meta message set_tempo tempo=338983 time=120>
note_on channel=0 note=54 velocity=0 time=0
note_on channel=0 note=69 velocity=0 time=0
note_on channel=0 note=70 velocity=75 time=0
note_on channel=0 note=55 velocity=58 time=0
note_on channel=0 note=55 velocity=0 time=120
note_on channel=0 note=70 velocity=0 time=0
note_on channel=0 note=72 velocity=75 time=0
note_on channel=0 note=57 velocity=59 time=0
<meta message set_tempo tempo=338028 time=80>
note_on channel=0 note=57 velocity=0 time=40
note_on channel=0 note=72 velocity=0 time=0
note_on channel=0 note=74 velocity=76 time=0
note_on channel=0 note=58 velocity=60 time=0
note_on channel=0 note=58 velocity=0 time=120
note_on channel=0 note=74 velocity=0 time=0
note_on channel=0 note=76 velocity=76 time=0
note_on channel=0 note=60 velocity=60 time=0
<meta message set_tempo tempo=337079 time=20>
note_on channel=0 note=60 velocity=0 time=100
note_on channel=0 note=76 velocity=0 time=0
note_on channel=0 note=78 velocity=76 time=0
note_on channel=0 note=62 velocity=61 time=0
<meta message set_tempo tempo=336134 time=80>
note_on channel=0 note=62 velocity=0 time=40
note_on channel=0 note=78 velocity=0 time=0
note_on channel=0 note=79 velocity=77 time=0
note_on channel=0 note=64 velocity=61 time=0
<meta message set_tempo tempo=334262 time=40>
note_on channel=0 note=64 velocity=0 time=80
note_on channel=0 note=79 velocity=0 time=0
note_on channel=0 note=81 velocity=77 time=0
note_on channel=0 note=66 velocity=62 time=0
<meta message set_tempo tempo=335196 time=40>
note_on channel=0 note=66 velocity=0 time=80
note_on channel=0 note=81 velocity=0 time=0
note_on channel=0 note=82 velocity=77 time=0
note_on channel=0 note=67 velocity=62 time=0
<meta message set_tempo tempo=336134 time=20>
<meta message set_tempo tempo=337079 time=100>
note_on channel=0 note=67 velocity=0 time=0
note_on channel=0 note=82 velocity=0 time=0
note_on channel=0 note=84 velocity=78 time=0
note_on channel=0 note=69 velocity=63 time=0
<meta message set_tempo tempo=338028 time=100>
note_on channel=0 note=69 velocity=0 time=20
note_on channel=0 note=84 velocity=0 time=0
note_on channel=0 note=86 velocity=78 time=0
note_on channel=0 note=70 velocity=63 time=0
<meta message set_tempo tempo=338983 time=80>
note_on channel=0 note=70 velocity=0 time=40
note_on channel=0 note=86 velocity=0 time=0
note_on channel=0 note=88 velocity=78 time=0
note_on channel=0 note=72 velocity=64 time=0
<meta message set_tempo tempo=339943 time=60>
note_on channel=0 note=72 velocity=0 time=60
note_on channel=0 note=88 velocity=0 time=0
note_on channel=0 note=90 velocity=79 time=0
note_on channel=0 note=74 velocity=64 time=0
<meta message set_tempo tempo=340909 time=40>
note_on channel=0 note=74 velocity=0 time=80
note_on channel=0 note=90 velocity=0 time=0
note_on channel=0 note=91 velocity=79 time=0
note_on channel=0 note=76 velocity=65 time=0
<meta message set_tempo tempo=341880 time=20>
<meta message set_tempo tempo=342857 time=100>
note_on channel=0 note=76 velocity=0 time=0
note_on channel=0 note=91 velocity=0 time=0
note_on channel=0 note=93 velocity=79 time=0
note_on channel=0 note=78 velocity=65 time=0
control_change channel=0 control=64 value=0 time=91
<meta message set_tempo tempo=343840 time=9>
<meta message time_signature numerator=4 denominator=8 clocks_per_click=12 notated_32nd_notes_per_beat=8 time=20>
<meta message set_tempo tempo=1200000 time=0>
note_on channel=0 note=78 velocity=0 time=0
note_on channel=0 note=93 velocity=0 time=0
note_on channel=0 note=94 velocity=87 time=0
note_on channel=0 note=79 velocity=70 time=0
note_on channel=0 note=79 velocity=0 time=120
note_on channel=0 note=94 velocity=0 time=0
<meta message set_tempo tempo=1445783 time=360>
note_on channel=0 note=50 velocity=37 time=0
note_on channel=0 note=62 velocity=45 time=0
note_on channel=0 note=58 velocity=37 time=0
note_on channel=0 note=55 velocity=37 time=0
note_on channel=0 note=43 velocity=26 time=0
note_on channel=0 note=31 velocity=26 time=0
control_change channel=0 control=64 value=127 time=7
note_on channel=0 note=31 velocity=0 time=353
note_on channel=0 note=62 velocity=0 time=0
note_on channel=0 note=58 velocity=0 time=0
note_on channel=0 note=50 velocity=0 time=0
note_on channel=0 note=43 velocity=0 time=0
note_on channel=0 note=55 velocity=0 time=0
note_on channel=0 note=50 velocity=37 time=0
note_on channel=0 note=62 velocity=45 time=0
note_on channel=0 note=58 velocity=37 time=0
note_on channel=0 note=55 velocity=37 time=0
note_on channel=0 note=31 velocity=26 time=0
note_on channel=0 note=43 velocity=26 time=0
note_on channel=0 note=43 velocity=0 time=120
note_on channel=0 note=62 velocity=0 time=0
note_on channel=0 note=58 velocity=0 time=0
note_on channel=0 note=50 velocity=0 time=0
note_on channel=0 note=31 velocity=0 time=0
note_on channel=0 note=55 velocity=0 time=0
note_on channel=0 note=55 velocity=37 time=0
note_on channel=0 note=50 velocity=37 time=0
note_on channel=0 note=58 velocity=37 time=0
note_on channel=0 note=62 velocity=45 time=0
note_on channel=0 note=31 velocity=26 time=0
note_on channel=0 note=43 velocity=26 time=0
<meta message set_tempo tempo=1290323 time=240>
control_change channel=0 control=64 value=0 time=191
<meta message set_tempo tempo=1428571 time=49>
note_on channel=0 note=43 velocity=0 time=0
note_on channel=0 note=50 velocity=0 time=0
note_on channel=0 note=58 velocity=0 time=0
note_on channel=0 note=55 velocity=0 time=0
note_on channel=0 note=31 velocity=0 time=0
note_on channel=0 note=62 velocity=0 time=0
note_on channel=0 note=62 velocity=94 time=80
note_on channel=0 note=50 velocity=86 time=0
<meta message set_tempo tempo=1363636 time=40>
note_on channel=0 note=50 velocity=0 time=40
note_on channel=0 note=62 velocity=0 time=0
note_on channel=0 note=67 velocity=94 time=0
note_on channel=0 note=55 velocity=86 time=0
note_on channel=0 note=55 velocity=0 time=80
note_on channel=0 note=67 velocity=0 time=0
note_on channel=0 note=70 velocity=99 time=0
note_on channel=0 note=58 velocity=89 time=0
<meta message set_tempo tempo=1276596 time=80>
note_on channel=0 note=58 velocity=0 time=0
note_on channel=0 note=70 velocity=0 time=0
note_on channel=0 note=75 velocity=100 time=0
note_on channel=0 note=63 velocity=90 time=0
<meta message set_tempo tempo=1379310 time=80>
note_on channel=0 note=63 velocity=0 time=0
note_on channel=0 note=75 velocity=0 time=0
note_on channel=0 note=74 velocity=94 time=0
note_on channel=0 note=62 velocity=86 time=0
note_on channel=0 note=62 velocity=0 time=70
note_on channel=0 note=74 velocity=0 time=0
<meta message set_tempo tempo=1395349 time=10>
note_on channel=0 note=74 velocity=94 time=0
note_on channel=0 note=62 velocity=86 time=0
<meta message set_tempo tempo=1379310 time=80>
note_on channel=0 note=62 velocity=0 time=40
note_on channel=0 note=74 velocity=0 time=0
note_on channel=0 note=100 velocity=104 time=330
note_on channel=0 note=34 velocity=74 time=0
<meta message set_tempo tempo=1290323 time=10>
<meta message set_tempo tempo=1463415 time=20>
note_on channel=0 note=88 velocity=109 time=0
note_on channel=0 note=46 velocity=77 time=0
control_change channel=0 control=64 value=127 time=6
<meta message set_tempo tempo=1445783 time=54>
note_on channel=0 note=46 velocity=0 time=40
note_on channel=0 note=88 velocity=0 time=0
note_on channel=0 note=100 velocity=0 time=0
<meta message set_tempo tempo=1428571 time=20>
note_on channel=0 note=99 velocity=106 time=10
note_on channel=0 note=35 velocity=76 time=0
note_on channel=0 note=34 velocity=0 time=1
note_on channel=0 note=87 velocity=108 time=29
note_on channel=0 note=47 velocity=76 time=0
<meta message set_tempo tempo=1411765 time=20>
<meta message set_tempo tempo=1395349 time=60>
note_on channel=0 note=47 velocity=0 time=20
note_on channel=0 note=99 velocity=0 time=0
note_on channel=0 note=35 velocity=0 time=0
note_on channel=0 note=87 velocity=0 time=0
note_on channel=0 note=98 velocity=104 time=30
note_on channel=0 note=36 velocity=75 time=0
<meta message set_tempo tempo=1379310 time=10>
note_on channel=0 note=86 velocity=107 time=20
note_on channel=0 note=48 velocity=75 time=0
<meta message set_tempo tempo=1363636 time=40>
<meta message set_tempo tempo=1348315 time=60>
note_on channel=0 note=48 velocity=0 time=0
note_on channel=0 note=98 velocity=0 time=0
note_on channel=0 note=36 velocity=0 time=0
note_on channel=0 note=86 velocity=0 time=0
note_on channel=0 note=97 velocity=100 time=30
note_on channel=0 note=37 velocity=74 time=0
<meta message set_tempo tempo=1333333 time=10>
<meta message set_tempo tempo=1290323 time=20>
note_on channel=0 note=85 velocity=106 time=0
note_on channel=0 note=49 velocity=74 time=0
control_change channel=0 control=64 value=0 time=6
control_change channel=0 control=64 value=127 time=28
<meta message set_tempo tempo=1276596 time=46>
note_on channel=0 note=49 velocity=0 time=20
note_on channel=0 note=97 velocity=0 time=0
note_on channel=0 note=37 velocity=0 time=0
note_on channel=0 note=85 velocity=0 time=0
note_on channel=0 note=96 velocity=102 time=30
note_on channel=0 note=38 velocity=73 time=0
<meta message set_tempo tempo=1263158 time=14>
note_on channel=0 note=84 velocity=103 time=16
note_on channel=0 note=50 velocity=73 time=0
<meta message set_tempo tempo=1250000 time=52>
note_on channel=0 note=50 velocity=0 time=48
note_on channel=0 note=96 velocity=0 time=0
note_on channel=0 note=38 velocity=0 time=0
note_on channel=0 note=84 velocity=0 time=0
<meta message set_tempo tempo=1237113 time=20>
note_on channel=0 note=95 velocity=103 time=10
note_on channel=0 note=39 velocity=75 time=0
note_on channel=0 note=83 velocity=102 time=30
note_on channel=0 note=51 velocity=72 time=0
<meta message set_tempo tempo=1224490 time=24>
<meta message set_tempo tempo=1212121 time=68>
note_on channel=0 note=51 velocity=0 time=8
note_on channel=0 note=95 velocity=0 time=0
note_on channel=0 note=39 velocity=0 time=0
note_on channel=0 note=83 velocity=0 time=0
note_on channel=0 note=94 velocity=102 time=30
note_on channel=0 note=40 velocity=74 time=0
<meta message set_tempo tempo=1200000 time=30>
note_on channel=0 note=82 velocity=101 time=0
note_on channel=0 note=52 velocity=73 time=0
control_change channel=0 control=64 value=0 time=14
control_change channel=0 control=64 value=127 time=37
<meta message set_tempo tempo=1188119 time=29>
note_on channel=0 note=52 velocity=0 time=20
note_on channel=0 note=94 velocity=0 time=0
note_on channel=0 note=40 velocity=0 time=0
note_on channel=0 note=82 velocity=0 time=0
note_on channel=0 note=93 velocity=101 time=30
note_on channel=0 note=41 velocity=72 time=0
<meta message set_tempo tempo=1176471 time=14>
note_on channel=0 note=81 velocity=100 time=16
note_on channel=0 note=53 velocity=72 time=0
<meta message set_tempo tempo=1165049 time=52>
note_on channel=0 note=53 velocity=0 time=48
note_on channel=0 note=93 velocity=0 time=0
note_on channel=0 note=41 velocity=0 time=0
note_on channel=0 note=81 velocity=0 time=0
<meta message set_tempo tempo=1153846 time=20>
note_on channel=0 note=92 velocity=99 time=10
note_on channel=0 note=42 velocity=72 time=0
note_on channel=0 note=80 velocity=99 time=30
note_on channel=0 note=54 velocity=72 time=0
<meta message set_tempo tempo=1142857 time=24>
<meta message set_tempo tempo=1132075 time=68>
note_on channel=0 note=54 velocity=0 time=8
note_on channel=0 note=92 velocity=0 time=0
note_on channel=0 note=42 velocity=0 time=0
note_on channel=0 note=80 velocity=0 time=0
<meta message set_tempo tempo=1121495 time=60>
note_on channel=0 note=79 velocity=88 time=0
note_on channel=0 note=91 velocity=98 time=0
note_on channel=0 note=55 velocity=72 time=0
note_on channel=0 note=43 velocity=66 time=0
control_change channel=0 control=64 value=0 time=15
<meta message set_tempo tempo=754717 time=5>
<meta message set_tempo tempo=745342 time=20>
<meta message set_tempo tempo=736196 time=20>
control_change channel=0 control=64 value=127 time=14
<meta message set_tempo tempo=727273 time=6>
<meta message set_tempo tempo=718563 time=20>
<meta message set_tempo tempo=714286 time=20>
note_on channel=0 note=43 velocity=0 time=0
note_on channel=0 note=79 velocity=0 time=0
note_on channel=0 note=91 velocity=0 time=0
note_on channel=0 note=55 velocity=0 time=0
<meta message set_tempo tempo=705882 time=20>
<meta message set_tempo tempo=697674 time=20>
note_on channel=0 note=90 velocity=97 time=0
note_on channel=0 note=78 velocity=87 time=0
note_on channel=0 note=42 velocity=66 time=0
note_on channel=0 note=54 velocity=72 time=0
<meta message set_tempo tempo=689655 time=20>
<meta message set_tempo tempo=681818 time=20>
<meta message set_tempo tempo=674157 time=20>
<meta message set_tempo tempo=670391 time=20>
<meta message set_tempo tempo=662983 time=20>
<meta message set_tempo tempo=655738 time=20>
note_on channel=0 note=54 velocity=0 time=0
note_on channel=0 note=90 velocity=0 time=0
note_on channel=0 note=78 velocity=0 time=0
note_on channel=0 note=42 velocity=0 time=0
<meta message set_tempo tempo=648649 time=20>
<meta message set_tempo tempo=641711 time=20>
note_on channel=0 note=89 velocity=97 time=0
note_on channel=0 note=77 velocity=87 time=0
note_on channel=0 note=41 velocity=65 time=0
note_on channel=0 note=53 velocity=71 time=0
<meta message set_tempo tempo=634921 time=20>
<meta message set_tempo tempo=628272 time=20>
<meta message set_tempo tempo=625000 time=20>
<meta message set_tempo tempo=618557 time=20>
<meta message set_tempo tempo=612245 time=20>
<meta message set_tempo tempo=606061 time=20>
note_on channel=0 note=53 velocity=0 time=0
note_on channel=0 note=89 velocity=0 time=0
note_on channel=0 note=77 velocity=0 time=0
note_on channel=0 note=41 velocity=0 time=0
<meta message set_tempo tempo=600000 time=20>
<meta message set_tempo tempo=594059 time=20>
note_on channel=0 note=76 velocity=86 time=0
note_on channel=0 note=88 velocity=96 time=0
note_on channel=0 note=52 velocity=70 time=0
note_on channel=0 note=40 velocity=64 time=0
control_change channel=0 control=64 value=0 time=8
<meta message set_tempo tempo=591133 time=12>
control_change channel=0 control=64 value=127 time=11
<meta message set_tempo tempo=585366 time=9>
<meta message set_tempo tempo=579710 time=20>
<meta message set_tempo tempo=574163 time=20>
<meta message set_tempo tempo=568720 time=20>
<meta message set_tempo tempo=563380 time=20>
note_on channel=0 note=40 velocity=0 time=0
note_on channel=0 note=76 velocity=0 time=0
note_on channel=0 note=88 velocity=0 time=0
note_on channel=0 note=52 velocity=0 time=0
<meta message set_tempo tempo=560748 time=20>
<meta message set_tempo tempo=555556 time=20>
note_on channel=0 note=87 velocity=95 time=0
note_on channel=0 note=75 velocity=85 time=0
note_on channel=0 note=51 velocity=69 time=0
note_on channel=0 note=39 velocity=63 time=0
<meta message set_tempo tempo=550459 time=20>
<meta message set_tempo tempo=545455 time=20>
<meta message set_tempo tempo=540541 time=20>
<meta message set_tempo tempo=535714 time=20>
<meta message set_tempo tempo=530973 time=20>
<meta message set_tempo tempo=524017 time=20>
note_on channel=0 note=39 velocity=0 time=0
note_on channel=0 note=87 velocity=0 time=0
note_on channel=0 note=75 velocity=0 time=0
note_on channel=0 note=51 velocity=0 time=0
<meta message set_tempo tempo=515021 time=20>
<meta message set_tempo tempo=506329 time=20>
note_on channel=0 note=74 velocity=84 time=0
note_on channel=0 note=86 velocity=94 time=0
note_on channel=0 note=50 velocity=67 time=0
note_on channel=0 note=38 velocity=61 time=0
<meta message set_tempo tempo=497925 time=20>
<meta message set_tempo tempo=489796 time=20>
<meta message set_tempo tempo=481928 time=20>
<meta message set_tempo tempo=474308 time=20>
<meta message set_tempo tempo=466926 time=20>
<meta message set_tempo tempo=459770 time=20>
note_on channel=0 note=38 velocity=0 time=0
note_on channel=0 note=74 velocity=0 time=0
note_on channel=0 note=86 velocity=0 time=0
note_on channel=0 note=50 velocity=0 time=0
<meta message set_tempo tempo=452830 time=20>
<meta message set_tempo tempo=446097 time=20>
note_on channel=0 note=85 velocity=93 time=0
note_on channel=0 note=73 velocity=83 time=0
note_on channel=0 note=49 velocity=66 time=0
note_on channel=0 note=37 velocity=60 time=0
control_change channel=0 control=64 value=0 time=6
<meta message set_tempo tempo=441176 time=14>
<meta message set_tempo tempo=434783 time=20>
control_change channel=0 control=64 value=127 time=6
<meta message set_tempo tempo=428571 time=14>
<meta message set_tempo tempo=422535 time=20>
<meta message set_tempo tempo=416667 time=20>
<meta message set_tempo tempo=410959 time=20>
note_on channel=0 note=37 velocity=0 time=0
note_on channel=0 note=85 velocity=0 time=0
note_on channel=0 note=73 velocity=0 time=0
note_on channel=0 note=49 velocity=0 time=0
<meta message set_tempo tempo=405405 time=20>
<meta message set_tempo tempo=400000 time=20>
note_on channel=0 note=84 velocity=91 time=0
note_on channel=0 note=72 velocity=81 time=0
note_on channel=0 note=48 velocity=66 time=0
note_on channel=0 note=36 velocity=60 time=0
<meta message set_tempo tempo=394737 time=20>
<meta message set_tempo tempo=389610 time=20>
<meta message set_tempo tempo=384615 time=20>
<meta message set_tempo tempo=380952 time=20>
<meta message set_tempo tempo=376176 time=20>
<meta message set_tempo tempo=371517 time=20>
note_on channel=0 note=36 velocity=0 time=0
note_on channel=0 note=84 velocity=0 time=0
note_on channel=0 note=72 velocity=0 time=0
note_on channel=0 note=48 velocity=0 time=0
<meta message set_tempo tempo=366972 time=20>
<meta message set_tempo tempo=362538 time=20>
note_on channel=0 note=83 velocity=95 time=0
note_on channel=0 note=71 velocity=85 time=0
note_on channel=0 note=35 velocity=60 time=0
note_on channel=0 note=47 velocity=66 time=0
<meta message set_tempo tempo=358209 time=20>
<meta message set_tempo tempo=353982 time=20>
<meta message set_tempo tempo=349854 time=20>
<meta message set_tempo tempo=345821 time=20>
<meta message set_tempo tempo=341880 time=20>
<meta message set_tempo tempo=338028 time=20>
note_on channel=0 note=47 velocity=0 time=0
note_on channel=0 note=83 velocity=0 time=0
note_on channel=0 note=71 velocity=0 time=0
note_on channel=0 note=35 velocity=0 time=0
<meta message set_tempo tempo=334262 time=20>
<meta message set_tempo tempo=331492 time=20>
note_on channel=0 note=70 velocity=89 time=0
note_on channel=0 note=82 velocity=99 time=0
note_on channel=0 note=34 velocity=67 time=0
note_on channel=0 note=46 velocity=73 time=0
control_change channel=0 control=64 value=0 time=10
<meta message set_tempo tempo=327869 time=10>
<meta message set_tempo tempo=324324 time=20>
control_change channel=0 control=64 value=127 time=17
<meta message set_tempo tempo=320856 time=3>
<meta message set_tempo tempo=317460 time=20>
<meta message set_tempo tempo=314136 time=20>
<meta message set_tempo tempo=315789 time=8>
<meta message set_tempo tempo=317460 time=12>
note_on channel=0 note=46 velocity=0 time=0
note_on channel=0 note=70 velocity=0 time=0
note_on channel=0 note=82 velocity=0 time=0
note_on channel=0 note=34 velocity=0 time=0
<meta message set_tempo tempo=319149 time=8>
<meta message set_tempo tempo=320856 time=12>
<meta message set_tempo tempo=323450 time=8>
<meta message set_tempo tempo=325203 time=12>
note_on channel=0 note=81 velocity=103 time=0
note_on channel=0 note=69 velocity=92 time=0
note_on channel=0 note=33 velocity=72 time=0
note_on channel=0 note=45 velocity=79 time=0
<meta message set_tempo tempo=326975 time=8>
<meta message set_tempo tempo=329670 time=12>
<meta message set_tempo tempo=331492 time=8>
<meta message set_tempo tempo=333333 time=12>
<meta message set_tempo tempo=336134 time=8>
<meta message set_tempo tempo=338028 time=12>
<meta message set_tempo tempo=339943 time=8>
<meta message set_tempo tempo=342857 time=12>
<meta message set_tempo tempo=344828 time=8>
<meta message set_tempo tempo=346821 time=12>
<meta message set_tempo tempo=349854 time=8>
<meta message set_tempo tempo=351906 time=12>
note_on channel=0 note=45 velocity=0 time=0
note_on channel=0 note=81 velocity=0 time=0
note_on channel=0 note=69 velocity=0 time=0
note_on channel=0 note=33 velocity=0 time=0
<meta message set_tempo tempo=353982 time=8>
<meta message set_tempo tempo=356083 time=12>
<meta message set_tempo tempo=359281 time=8>
<meta message set_tempo tempo=361446 time=12>
note_on channel=0 note=68 velocity=97 time=0
note_on channel=0 note=80 velocity=108 time=0
note_on channel=0 note=32 velocity=77 time=0
note_on channel=0 note=44 velocity=84 time=0
<meta message set_tempo tempo=363636 time=8>
<meta message set_tempo tempo=366972 time=12>
<meta message set_tempo tempo=369231 time=8>
<meta message set_tempo tempo=371517 time=12>
<meta message set_tempo tempo=375000 time=8>
<meta message set_tempo tempo=377358 time=12>
<meta message set_tempo tempo=379747 time=8>
<meta message set_tempo tempo=383387 time=12>
<meta message set_tempo tempo=385852 time=8>
<meta message set_tempo tempo=388350 time=12>
<meta message set_tempo tempo=392157 time=8>
<meta message set_tempo tempo=394737 time=12>
note_on channel=0 note=44 velocity=0 time=0
note_on channel=0 note=68 velocity=0 time=0
note_on channel=0 note=80 velocity=0 time=0
note_on channel=0 note=32 velocity=0 time=0
<meta message set_tempo tempo=397351 time=8>
<meta message set_tempo tempo=401338 time=12>
<meta message set_tempo tempo=416667 time=20>
note_on channel=0 note=67 velocity=96 time=0
note_on channel=0 note=79 velocity=113 time=0
note_on channel=0 note=31 velocity=71 time=0
note_on channel=0 note=43 velocity=83 time=0
control_change channel=0 control=64 value=0 time=13
control_change channel=0 control=64 value=127 time=254
note_on channel=0 note=43 velocity=0 time=213
note_on channel=0 note=67 velocity=0 time=0
note_on channel=0 note=79 velocity=0 time=0
note_on channel=0 note=31 velocity=0 time=0
note_on channel=0 note=86 velocity=92 time=480
note_on channel=0 note=82 velocity=92 time=0
note_on channel=0 note=91 velocity=108 time=0
note_on channel=0 note=94 velocity=108 time=0
note_on channel=0 note=67 velocity=95 time=0
note_on channel=0 note=55 velocity=80 time=0
note_on channel=0 note=62 velocity=80 time=0
<meta message set_tempo tempo=750000 time=960>
note_on channel=0 note=62 velocity=0 time=0
note_on channel=0 note=67 velocity=0 time=0
note_on channel=0 note=82 velocity=0 time=0
note_on channel=0 note=91 velocity=0 time=0
note_on channel=0 note=86 velocity=0 time=0
note_on channel=0 note=55 velocity=0 time=0
note_on channel=0 note=94 velocity=0 time=0
note_on channel=0 note=55 velocity=117 time=0
note_on channel=0 note=43 velocity=95 time=0
note_on channel=0 note=31 velocity=80 time=0
note_on channel=0 note=31 velocity=0 time=960
note_on channel=0 note=43 velocity=0 time=0
note_on channel=0 note=55 velocity=0 time=0
<meta message set_tempo tempo=415225 time=960>
control_change channel=0 control=64 value=0 time=0
<meta message end_of_track time=0>
