<meta message track_name name='Klaviersonate Nr. 11 KV 331 2. Satz' time=0>
<meta message copyright text='Copyright © 2005 von Bernd Krüger. ' time=0>
<meta message text text='Amadeus Mozart' time=0>
<meta message text text='Fertiggestellt am  16.11.2005\n' time=0>
<meta message text text='Update am 13.7.2013\n' time=0>
<meta message text text='Dauer: 6:05 Minuten\n' time=0>
<meta message time_signature numerator=3 denominator=4 clocks_per_click=24 notated_32nd_notes_per_beat=8 time=0>
<meta message key_signature key='A' time=0>
<meta message set_tempo tempo=530973 time=0>
<meta message marker text='Minuetto' time=0>
program_change channel=0 program=0 time=0
control_change channel=0 control=7 value=100 time=0
control_change channel=0 control=10 value=64 time=0
note_on channel=0 note=61 velocity=64 time=0
<meta message text text='bdca426d104a26ac9dcb070447587523' time=0>
control_change channel=0 control=91 value=127 time=0
program_change channel=0 program=0 time=0
control_change channel=0 control=7 value=100 time=0
control_change channel=0 control=10 value=64 time=0
program_change channel=0 program=0 time=0
control_change channel=0 control=64 value=127 time=7
note_on channel=0 note=61 velocity=0 time=53
note_on channel=0 note=64 velocity=64 time=0
note_on channel=0 note=64 velocity=0 time=60
note_on channel=0 note=69 velocity=76 time=0
note_on channel=0 note=45 velocity=59 time=0
note_on channel=0 note=57 velocity=70 time=0
<meta message set_tempo tempo=476190 time=840>
note_on channel=0 note=57 velocity=0 time=0
note_on channel=0 note=45 velocity=0 time=0
note_on channel=0 note=69 velocity=0 time=0
note_on channel=0 note=64 velocity=70 time=0
note_on channel=0 note=40 velocity=53 time=0
note_on channel=0 note=52 velocity=63 time=0
control_change channel=0 control=64 value=0 time=8
control_change channel=0 control=64 value=127 time=66
<meta message set_tempo tempo=495868 time=406>
note_on channel=0 note=52 velocity=0 time=0
note_on channel=0 note=40 velocity=0 time=0
note_on channel=0 note=64 velocity=0 time=0
note_on channel=0 note=73 velocity=72 time=0
note_on channel=0 note=49 velocity=48 time=0
note_on channel=0 note=61 velocity=57 time=0
control_change channel=0 control=64 value=0 time=10
control_change channel=0 control=64 value=127 time=89
<meta message set_tempo tempo=465116 time=141>
note_on channel=0 note=73 velocity=0 time=0
note_on channel=0 note=74 velocity=74 time=0
note_on channel=0 note=74 velocity=0 time=120
note_on channel=0 note=71 velocity=70 time=0
<meta message set_tempo tempo=480000 time=120>
note_on channel=0 note=71 velocity=0 time=0
note_on channel=0 note=61 velocity=0 time=0
note_on channel=0 note=49 velocity=0 time=0
note_on channel=0 note=69 velocity=70 time=0
note_on channel=0 note=45 velocity=45 time=0
note_on channel=0 note=57 velocity=53 time=0
control_change channel=0 control=64 value=0 time=8
control_change channel=0 control=64 value=127 time=63
note_on channel=0 note=57 velocity=0 time=169
note_on channel=0 note=45 velocity=0 time=0
note_on channel=0 note=69 velocity=0 time=0
control_change channel=0 control=64 value=0 time=14
note_on channel=0 note=73 velocity=50 time=706
control_change channel=0 control=64 value=127 time=50
note_on channel=0 note=73 velocity=0 time=190
note_on channel=0 note=74 velocity=52 time=0
note_on channel=0 note=74 velocity=0 time=120
note_on channel=0 note=71 velocity=46 time=0
note_on channel=0 note=71 velocity=0 time=120
note_on channel=0 note=69 velocity=49 time=0
control_change channel=0 control=64 value=0 time=12
control_change channel=0 control=64 value=127 time=73
<meta message set_tempo tempo=504202 time=155>
<meta message set_tempo tempo=472441 time=240>
note_on channel=0 note=69 velocity=0 time=0
note_on channel=0 note=85 velocity=57 time=0
note_on channel=0 note=57 velocity=40 time=0
note_on channel=0 note=66 velocity=40 time=0
<meta message set_tempo tempo=491803 time=240>
note_on channel=0 note=66 velocity=0 time=0
note_on channel=0 note=57 velocity=0 time=0
note_on channel=0 note=85 velocity=0 time=0
control_change channel=0 control=64 value=0 time=141
<meta message set_tempo tempo=472441 time=99>
note_on channel=0 note=75 velocity=50 time=0
note_on channel=0 note=59 velocity=40 time=0
note_on channel=0 note=69 velocity=40 time=0
note_on channel=0 note=69 velocity=0 time=480
note_on channel=0 note=59 velocity=0 time=0
note_on channel=0 note=75 velocity=0 time=0
note_on channel=0 note=76 velocity=52 time=0
note_on channel=0 note=64 velocity=40 time=0
note_on channel=0 note=68 velocity=40 time=0
control_change channel=0 control=64 value=127 time=183
note_on channel=0 note=68 velocity=0 time=297
note_on channel=0 note=64 velocity=0 time=0
note_on channel=0 note=76 velocity=0 time=240
note_on channel=0 note=77 velocity=51 time=0
note_on channel=0 note=77 velocity=0 time=220
<meta message set_tempo tempo=465116 time=20>
note_on channel=0 note=80 velocity=57 time=0
control_change channel=0 control=64 value=0 time=0
<meta message set_tempo tempo=472441 time=240>
note_on channel=0 note=80 velocity=0 time=0
note_on channel=0 note=78 velocity=56 time=0
<meta message set_tempo tempo=461538 time=240>
note_on channel=0 note=78 velocity=0 time=0
note_on channel=0 note=76 velocity=54 time=0
<meta message set_tempo tempo=468750 time=240>
note_on channel=0 note=76 velocity=0 time=0
note_on channel=0 note=74 velocity=53 time=0
<meta message set_tempo tempo=461538 time=240>
note_on channel=0 note=74 velocity=0 time=0
note_on channel=0 note=73 velocity=52 time=0
<meta message set_tempo tempo=491803 time=240>
note_on channel=0 note=73 velocity=0 time=0
note_on channel=0 note=71 velocity=51 time=0
<meta message set_tempo tempo=472441 time=240>
note_on channel=0 note=71 velocity=0 time=0
note_on channel=0 note=69 velocity=51 time=0
note_on channel=0 note=52 velocity=39 time=0
control_change channel=0 control=64 value=127 time=57
note_on channel=0 note=52 velocity=0 time=183
note_on channel=0 note=69 velocity=0 time=0
note_on channel=0 note=68 velocity=46 time=0
note_on channel=0 note=62 velocity=33 time=0
<meta message set_tempo tempo=454545 time=240>
note_on channel=0 note=62 velocity=0 time=0
note_on channel=0 note=68 velocity=0 time=0
note_on channel=0 note=76 velocity=53 time=0
note_on channel=0 note=59 velocity=33 time=0
control_change channel=0 control=64 value=0 time=6
control_change channel=0 control=64 value=127 time=85
<meta message set_tempo tempo=461538 time=149>
note_on channel=0 note=59 velocity=0 time=0
note_on channel=0 note=76 velocity=0 time=0
note_on channel=0 note=74 velocity=51 time=0
note_on channel=0 note=62 velocity=28 time=0
<meta message set_tempo tempo=472441 time=240>
note_on channel=0 note=62 velocity=0 time=0
note_on channel=0 note=74 velocity=0 time=0
note_on channel=0 note=59 velocity=31 time=0
control_change channel=0 control=64 value=0 time=10
control_change channel=0 control=64 value=127 time=103
<meta message set_tempo tempo=472441 time=127>
note_on channel=0 note=59 velocity=0 time=0
note_on channel=0 note=62 velocity=29 time=0
<meta message set_tempo tempo=472441 time=240>
note_on channel=0 note=62 velocity=0 time=0
note_on channel=0 note=71 velocity=57 time=0
note_on channel=0 note=52 velocity=40 time=0
control_change channel=0 control=64 value=0 time=9
control_change channel=0 control=64 value=127 time=147
note_on channel=0 note=52 velocity=0 time=84
note_on channel=0 note=71 velocity=0 time=0
note_on channel=0 note=69 velocity=53 time=0
note_on channel=0 note=61 velocity=34 time=0
<meta message set_tempo tempo=454545 time=240>
note_on channel=0 note=61 velocity=0 time=0
note_on channel=0 note=69 velocity=0 time=0
note_on channel=0 note=78 velocity=57 time=0
note_on channel=0 note=57 velocity=34 time=0
control_change channel=0 control=64 value=0 time=7
control_change channel=0 control=64 value=127 time=120
<meta message set_tempo tempo=465116 time=113>
note_on channel=0 note=57 velocity=0 time=0
note_on channel=0 note=78 velocity=0 time=0
note_on channel=0 note=76 velocity=56 time=0
note_on channel=0 note=61 velocity=30 time=0
note_on channel=0 note=61 velocity=0 time=240
note_on channel=0 note=76 velocity=0 time=0
note_on channel=0 note=57 velocity=32 time=0
control_change channel=0 control=64 value=0 time=9
control_change channel=0 control=64 value=127 time=104
<meta message set_tempo tempo=472441 time=127>
note_on channel=0 note=57 velocity=0 time=0
note_on channel=0 note=61 velocity=28 time=0
<meta message set_tempo tempo=468750 time=240>
note_on channel=0 note=61 velocity=0 time=0
note_on channel=0 note=73 velocity=63 time=0
note_on channel=0 note=50 velocity=42 time=0
control_change channel=0 control=64 value=0 time=6
control_change channel=0 control=64 value=127 time=143
<meta message set_tempo tempo=454545 time=91>
note_on channel=0 note=50 velocity=0 time=0
note_on channel=0 note=73 velocity=0 time=0
note_on channel=0 note=71 velocity=59 time=0
note_on channel=0 note=59 velocity=36 time=0
<meta message set_tempo tempo=458015 time=240>
note_on channel=0 note=59 velocity=0 time=0
note_on channel=0 note=71 velocity=0 time=0
note_on channel=0 note=79 velocity=62 time=0
note_on channel=0 note=54 velocity=36 time=0
control_change channel=0 control=64 value=0 time=7
control_change channel=0 control=64 value=127 time=85
<meta message set_tempo tempo=468750 time=148>
note_on channel=0 note=54 velocity=0 time=0
note_on channel=0 note=79 velocity=0 time=0
note_on channel=0 note=78 velocity=59 time=0
note_on channel=0 note=59 velocity=34 time=0
<meta message set_tempo tempo=468750 time=240>
note_on channel=0 note=59 velocity=0 time=0
note_on channel=0 note=78 velocity=0 time=0
note_on channel=0 note=54 velocity=36 time=0
control_change channel=0 control=64 value=0 time=6
control_change channel=0 control=64 value=127 time=109
note_on channel=0 note=54 velocity=0 time=125
note_on channel=0 note=59 velocity=34 time=0
<meta message set_tempo tempo=468750 time=240>
note_on channel=0 note=59 velocity=0 time=0
note_on channel=0 note=66 velocity=51 time=0
note_on channel=0 note=50 velocity=39 time=0
control_change channel=0 control=64 value=0 time=5
control_change channel=0 control=64 value=127 time=122
<meta message set_tempo tempo=454545 time=353>
note_on channel=0 note=50 velocity=0 time=0
note_on channel=0 note=66 velocity=0 time=0
note_on channel=0 note=76 velocity=53 time=0
control_change channel=0 control=64 value=0 time=43
<meta message set_tempo tempo=461538 time=197>
note_on channel=0 note=76 velocity=0 time=0
note_on channel=0 note=74 velocity=51 time=0
<meta message set_tempo tempo=458015 time=240>
note_on channel=0 note=74 velocity=0 time=0
note_on channel=0 note=73 velocity=51 time=0
<meta message set_tempo tempo=476190 time=240>
note_on channel=0 note=73 velocity=0 time=0
note_on channel=0 note=71 velocity=49 time=0
<meta message set_tempo tempo=468750 time=240>
note_on channel=0 note=71 velocity=0 time=0
note_on channel=0 note=69 velocity=51 time=0
note_on channel=0 note=52 velocity=33 time=0
note_on channel=0 note=62 velocity=39 time=0
control_change channel=0 control=64 value=127 time=85
note_on channel=0 note=69 velocity=0 time=155
note_on channel=0 note=68 velocity=48 time=0
<meta message set_tempo tempo=476190 time=240>
note_on channel=0 note=68 velocity=0 time=0
note_on channel=0 note=62 velocity=0 time=0
note_on channel=0 note=52 velocity=0 time=0
note_on channel=0 note=69 velocity=51 time=0
note_on channel=0 note=57 velocity=33 time=0
note_on channel=0 note=61 velocity=39 time=0
control_change channel=0 control=64 value=0 time=9
control_change channel=0 control=64 value=127 time=175
note_on channel=0 note=61 velocity=0 time=296
note_on channel=0 note=57 velocity=0 time=0
note_on channel=0 note=69 velocity=0 time=0
control_change channel=0 control=64 value=0 time=14
note_on channel=0 note=71 velocity=68 time=286
note_on channel=0 note=71 velocity=0 time=60
note_on channel=0 note=76 velocity=71 time=0
note_on channel=0 note=76 velocity=0 time=60
note_on channel=0 note=80 velocity=74 time=0
<meta message set_tempo tempo=468750 time=60>
note_on channel=0 note=80 velocity=0 time=0
note_on channel=0 note=83 velocity=77 time=0
note_on channel=0 note=52 velocity=60 time=0
control_change channel=0 control=64 value=127 time=127
note_on channel=0 note=52 velocity=0 time=113
note_on channel=0 note=56 velocity=52 time=0
note_on channel=0 note=56 velocity=0 time=240
note_on channel=0 note=59 velocity=56 time=0
note_on channel=0 note=59 velocity=0 time=240
note_on channel=0 note=56 velocity=52 time=0
note_on channel=0 note=56 velocity=0 time=240
note_on channel=0 note=54 velocity=56 time=0
control_change channel=0 control=64 value=0 time=7
note_on channel=0 note=54 velocity=0 time=233
note_on channel=0 note=52 velocity=51 time=0
<meta message set_tempo tempo=461538 time=240>
note_on channel=0 note=52 velocity=0 time=0
note_on channel=0 note=83 velocity=0 time=0
note_on channel=0 note=83 velocity=73 time=0
note_on channel=0 note=51 velocity=60 time=0
control_change channel=0 control=64 value=127 time=57
note_on channel=0 note=83 velocity=0 time=63
note_on channel=0 note=81 velocity=72 time=0
note_on channel=0 note=81 velocity=0 time=120
note_on channel=0 note=51 velocity=0 time=0
note_on channel=0 note=80 velocity=71 time=0
note_on channel=0 note=52 velocity=50 time=0
note_on channel=0 note=80 velocity=0 time=120
note_on channel=0 note=78 velocity=70 time=0
note_on channel=0 note=78 velocity=0 time=112
note_on channel=0 note=52 velocity=0 time=8
note_on channel=0 note=78 velocity=72 time=0
note_on channel=0 note=54 velocity=50 time=0
control_change channel=0 control=64 value=0 time=10
control_change channel=0 control=64 value=127 time=65
note_on channel=0 note=78 velocity=0 time=45
note_on channel=0 note=76 velocity=71 time=0
note_on channel=0 note=76 velocity=0 time=120
note_on channel=0 note=54 velocity=0 time=0
note_on channel=0 note=75 velocity=69 time=0
note_on channel=0 note=47 velocity=51 time=0
note_on channel=0 note=75 velocity=0 time=120
note_on channel=0 note=73 velocity=68 time=0
<meta message set_tempo tempo=468750 time=120>
note_on channel=0 note=73 velocity=0 time=0
note_on channel=0 note=47 velocity=0 time=0
note_on channel=0 note=71 velocity=70 time=0
note_on channel=0 note=49 velocity=54 time=0
control_change channel=0 control=64 value=0 time=10
control_change channel=0 control=64 value=127 time=93
note_on channel=0 note=71 velocity=0 time=17
note_on channel=0 note=69 velocity=67 time=0
<meta message set_tempo tempo=476190 time=120>
note_on channel=0 note=69 velocity=0 time=0
note_on channel=0 note=49 velocity=0 time=0
note_on channel=0 note=68 velocity=67 time=0
note_on channel=0 note=51 velocity=51 time=0
note_on channel=0 note=68 velocity=0 time=120
note_on channel=0 note=69 velocity=67 time=0
<meta message set_tempo tempo=465116 time=120>
note_on channel=0 note=69 velocity=0 time=0
note_on channel=0 note=51 velocity=0 time=0
note_on channel=0 note=68 velocity=67 time=0
note_on channel=0 note=52 velocity=60 time=0
control_change channel=0 control=64 value=0 time=57
note_on channel=0 note=68 velocity=0 time=63
note_on channel=0 note=71 velocity=69 time=0
control_change channel=0 control=64 value=127 time=28
note_on channel=0 note=71 velocity=0 time=92
note_on channel=0 note=52 velocity=0 time=0
note_on channel=0 note=76 velocity=70 time=0
note_on channel=0 note=56 velocity=52 time=0
note_on channel=0 note=76 velocity=0 time=120
note_on channel=0 note=80 velocity=72 time=0
<meta message set_tempo tempo=454545 time=120>
note_on channel=0 note=80 velocity=0 time=0
note_on channel=0 note=56 velocity=0 time=0
note_on channel=0 note=83 velocity=73 time=0
note_on channel=0 note=59 velocity=52 time=0
control_change channel=0 control=64 value=0 time=10
note_on channel=0 note=59 velocity=0 time=230
note_on channel=0 note=56 velocity=52 time=0
<meta message set_tempo tempo=461538 time=240>
note_on channel=0 note=56 velocity=0 time=0
note_on channel=0 note=54 velocity=55 time=0
note_on channel=0 note=54 velocity=0 time=240
note_on channel=0 note=52 velocity=52 time=0
<meta message set_tempo tempo=461538 time=240>
note_on channel=0 note=52 velocity=0 time=0
note_on channel=0 note=83 velocity=0 time=0
note_on channel=0 note=83 velocity=73 time=0
note_on channel=0 note=51 velocity=60 time=0
control_change channel=0 control=64 value=127 time=57
note_on channel=0 note=83 velocity=0 time=63
note_on channel=0 note=81 velocity=72 time=0
note_on channel=0 note=81 velocity=0 time=120
note_on channel=0 note=51 velocity=0 time=0
note_on channel=0 note=80 velocity=71 time=0
note_on channel=0 note=52 velocity=50 time=0
note_on channel=0 note=80 velocity=0 time=120
note_on channel=0 note=78 velocity=70 time=0
note_on channel=0 note=78 velocity=0 time=115
note_on channel=0 note=52 velocity=0 time=5
note_on channel=0 note=78 velocity=72 time=0
note_on channel=0 note=54 velocity=50 time=0
control_change channel=0 control=64 value=0 time=10
control_change channel=0 control=64 value=127 time=65
note_on channel=0 note=78 velocity=0 time=45
note_on channel=0 note=76 velocity=71 time=0
note_on channel=0 note=76 velocity=0 time=120
note_on channel=0 note=54 velocity=0 time=0
note_on channel=0 note=75 velocity=69 time=0
note_on channel=0 note=47 velocity=51 time=0
note_on channel=0 note=75 velocity=0 time=120
note_on channel=0 note=73 velocity=68 time=0
<meta message set_tempo tempo=468750 time=120>
note_on channel=0 note=73 velocity=0 time=0
note_on channel=0 note=47 velocity=0 time=0
note_on channel=0 note=71 velocity=70 time=0
note_on channel=0 note=49 velocity=54 time=0
control_change channel=0 control=64 value=0 time=10
control_change channel=0 control=64 value=127 time=93
note_on channel=0 note=71 velocity=0 time=17
note_on channel=0 note=69 velocity=67 time=0
<meta message set_tempo tempo=476190 time=120>
note_on channel=0 note=69 velocity=0 time=0
note_on channel=0 note=49 velocity=0 time=0
note_on channel=0 note=68 velocity=67 time=0
note_on channel=0 note=51 velocity=51 time=0
note_on channel=0 note=68 velocity=0 time=120
note_on channel=0 note=69 velocity=67 time=0
<meta message set_tempo tempo=465116 time=120>
note_on channel=0 note=69 velocity=0 time=0
note_on channel=0 note=51 velocity=0 time=0
note_on channel=0 note=68 velocity=67 time=0
note_on channel=0 note=52 velocity=60 time=0
control_change channel=0 control=64 value=0 time=57
note_on channel=0 note=68 velocity=0 time=63
note_on channel=0 note=71 velocity=64 time=0
control_change channel=0 control=64 value=127 time=28
<meta message set_tempo tempo=458015 time=92>
note_on channel=0 note=71 velocity=0 time=0
note_on channel=0 note=69 velocity=70 time=0
note_on channel=0 note=69 velocity=0 time=120
note_on channel=0 note=68 velocity=64 time=0
note_on channel=0 note=69 velocity=68 time=113
<meta message set_tempo tempo=454545 time=7>
note_on channel=0 note=68 velocity=0 time=0
note_on channel=0 note=52 velocity=0 time=0
control_change channel=0 control=64 value=0 time=10
control_change channel=0 control=64 value=127 time=70
note_on channel=0 note=69 velocity=0 time=33
note_on channel=0 note=71 velocity=68 time=7
note_on channel=0 note=71 velocity=0 time=120
note_on channel=0 note=73 velocity=69 time=0
note_on channel=0 note=73 velocity=0 time=120
note_on channel=0 note=75 velocity=70 time=0
<meta message set_tempo tempo=461538 time=120>
note_on channel=0 note=75 velocity=0 time=0
note_on channel=0 note=76 velocity=70 time=0
control_change channel=0 control=64 value=0 time=8
control_change channel=0 control=64 value=127 time=32
note_on channel=0 note=76 velocity=0 time=80
note_on channel=0 note=78 velocity=71 time=0
note_on channel=0 note=78 velocity=0 time=120
note_on channel=0 note=80 velocity=72 time=0
note_on channel=0 note=80 velocity=0 time=120
note_on channel=0 note=81 velocity=72 time=0
<meta message set_tempo tempo=454545 time=76>
note_on channel=0 note=81 velocity=0 time=44
note_on channel=0 note=83 velocity=73 time=0
control_change channel=0 control=64 value=0 time=9
control_change channel=0 control=64 value=127 time=54
note_on channel=0 note=83 velocity=0 time=57
note_on channel=0 note=85 velocity=74 time=0
<meta message set_tempo tempo=451128 time=4>
note_on channel=0 note=85 velocity=0 time=116
note_on channel=0 note=87 velocity=74 time=0
<meta message set_tempo tempo=447761 time=28>
note_on channel=0 note=87 velocity=0 time=92
note_on channel=0 note=88 velocity=75 time=0
<meta message set_tempo tempo=444444 time=52>
note_on channel=0 note=88 velocity=0 time=68
note_on channel=0 note=87 velocity=72 time=0
control_change channel=0 control=64 value=0 time=10
note_on channel=0 note=87 velocity=0 time=110
note_on channel=0 note=85 velocity=70 time=0
control_change channel=0 control=64 value=127 time=0
note_on channel=0 note=85 velocity=0 time=120
note_on channel=0 note=83 velocity=68 time=0
note_on channel=0 note=83 velocity=0 time=120
note_on channel=0 note=81 velocity=65 time=0
<meta message set_tempo tempo=437956 time=76>
note_on channel=0 note=81 velocity=0 time=44
note_on channel=0 note=80 velocity=63 time=0
control_change channel=0 control=64 value=0 time=10
<meta message set_tempo tempo=441176 time=18>
<meta message set_tempo tempo=444444 time=48>
control_change channel=0 control=64 value=127 time=4
note_on channel=0 note=80 velocity=0 time=40
note_on channel=0 note=78 velocity=61 time=0
<meta message set_tempo tempo=447761 time=4>
<meta message set_tempo tempo=451128 time=72>
note_on channel=0 note=78 velocity=0 time=44
note_on channel=0 note=76 velocity=59 time=0
<meta message set_tempo tempo=454545 time=4>
<meta message set_tempo tempo=458015 time=48>
<meta message set_tempo tempo=461538 time=48>
note_on channel=0 note=76 velocity=0 time=20
note_on channel=0 note=75 velocity=57 time=0
<meta message set_tempo tempo=465116 time=120>
note_on channel=0 note=75 velocity=0 time=0
note_on channel=0 note=73 velocity=50 time=0
note_on channel=0 note=57 velocity=38 time=0
note_on channel=0 note=66 velocity=45 time=0
control_change channel=0 control=64 value=0 time=9
note_on channel=0 note=73 velocity=0 time=231
note_on channel=0 note=85 velocity=50 time=120
<meta message set_tempo tempo=476190 time=120>
note_on channel=0 note=85 velocity=0 time=0
note_on channel=0 note=66 velocity=0 time=0
note_on channel=0 note=57 velocity=0 time=0
note_on channel=0 note=76 velocity=54 time=0
note_on channel=0 note=59 velocity=33 time=0
note_on channel=0 note=68 velocity=39 time=0
control_change channel=0 control=64 value=127 time=71
<meta message set_tempo tempo=582524 time=289>
note_on channel=0 note=76 velocity=0 time=60
note_on channel=0 note=80 velocity=50 time=0
<meta message set_tempo tempo=540541 time=60>
note_on channel=0 note=80 velocity=0 time=0
note_on channel=0 note=68 velocity=0 time=0
note_on channel=0 note=75 velocity=53 time=0
note_on channel=0 note=78 velocity=53 time=0
note_on channel=0 note=69 velocity=39 time=0
control_change channel=0 control=64 value=0 time=10
control_change channel=0 control=64 value=127 time=131
note_on channel=0 note=69 velocity=0 time=339
note_on channel=0 note=59 velocity=0 time=0
note_on channel=0 note=75 velocity=0 time=0
note_on channel=0 note=78 velocity=0 time=0
note_on channel=0 note=76 velocity=51 time=0
note_on channel=0 note=64 velocity=35 time=0
note_on channel=0 note=68 velocity=42 time=0
control_change channel=0 control=64 value=0 time=0
note_on channel=0 note=52 velocity=35 time=454
note_on channel=0 note=68 velocity=0 time=26
note_on channel=0 note=76 velocity=0 time=0
note_on channel=0 note=64 velocity=0 time=0
note_on channel=0 note=52 velocity=0 time=454
<meta message set_tempo tempo=530973 time=506>
note_on channel=0 note=61 velocity=64 time=0
<meta message text text='bdca426d104a26ac9dcb070447587523' time=0>
control_change channel=0 control=91 value=127 time=0
control_change channel=0 control=64 value=127 time=7
note_on channel=0 note=61 velocity=0 time=53
note_on channel=0 note=64 velocity=64 time=0
note_on channel=0 note=64 velocity=0 time=60
note_on channel=0 note=69 velocity=76 time=0
note_on channel=0 note=45 velocity=59 time=0
note_on channel=0 note=57 velocity=70 time=0
<meta message set_tempo tempo=476190 time=840>
note_on channel=0 note=57 velocity=0 time=0
note_on channel=0 note=45 velocity=0 time=0
note_on channel=0 note=69 velocity=0 time=0
note_on channel=0 note=64 velocity=70 time=0
note_on channel=0 note=40 velocity=53 time=0
note_on channel=0 note=52 velocity=63 time=0
control_change channel=0 control=64 value=0 time=8
control_change channel=0 control=64 value=127 time=66
<meta message set_tempo tempo=495868 time=406>
note_on channel=0 note=52 velocity=0 time=0
note_on channel=0 note=40 velocity=0 time=0
note_on channel=0 note=64 velocity=0 time=0
note_on channel=0 note=73 velocity=72 time=0
note_on channel=0 note=49 velocity=48 time=0
note_on channel=0 note=61 velocity=57 time=0
control_change channel=0 control=64 value=0 time=10
control_change channel=0 control=64 value=127 time=89
<meta message set_tempo tempo=465116 time=141>
note_on channel=0 note=73 velocity=0 time=0
note_on channel=0 note=74 velocity=74 time=0
note_on channel=0 note=74 velocity=0 time=120
note_on channel=0 note=71 velocity=70 time=0
<meta message set_tempo tempo=480000 time=120>
note_on channel=0 note=71 velocity=0 time=0
note_on channel=0 note=61 velocity=0 time=0
note_on channel=0 note=49 velocity=0 time=0
note_on channel=0 note=69 velocity=70 time=0
note_on channel=0 note=45 velocity=45 time=0
note_on channel=0 note=57 velocity=53 time=0
control_change channel=0 control=64 value=0 time=8
control_change channel=0 control=64 value=127 time=63
note_on channel=0 note=57 velocity=0 time=169
note_on channel=0 note=45 velocity=0 time=0
note_on channel=0 note=69 velocity=0 time=0
control_change channel=0 control=64 value=0 time=14
note_on channel=0 note=73 velocity=50 time=706
control_change channel=0 control=64 value=127 time=50
note_on channel=0 note=73 velocity=0 time=190
note_on channel=0 note=74 velocity=52 time=0
note_on channel=0 note=74 velocity=0 time=120
note_on channel=0 note=71 velocity=46 time=0
note_on channel=0 note=71 velocity=0 time=120
note_on channel=0 note=69 velocity=49 time=0
control_change channel=0 control=64 value=0 time=12
control_change channel=0 control=64 value=127 time=73
<meta message set_tempo tempo=504202 time=155>
<meta message set_tempo tempo=472441 time=240>
note_on channel=0 note=69 velocity=0 time=0
note_on channel=0 note=85 velocity=57 time=0
note_on channel=0 note=57 velocity=40 time=0
note_on channel=0 note=66 velocity=40 time=0
<meta message set_tempo tempo=491803 time=240>
note_on channel=0 note=66 velocity=0 time=0
note_on channel=0 note=57 velocity=0 time=0
note_on channel=0 note=85 velocity=0 time=0
control_change channel=0 control=64 value=0 time=141
<meta message set_tempo tempo=472441 time=99>
note_on channel=0 note=75 velocity=50 time=0
note_on channel=0 note=59 velocity=40 time=0
note_on channel=0 note=69 velocity=40 time=0
note_on channel=0 note=69 velocity=0 time=480
note_on channel=0 note=59 velocity=0 time=0
note_on channel=0 note=75 velocity=0 time=0
note_on channel=0 note=76 velocity=52 time=0
note_on channel=0 note=64 velocity=40 time=0
note_on channel=0 note=68 velocity=40 time=0
control_change channel=0 control=64 value=127 time=183
note_on channel=0 note=68 velocity=0 time=297
note_on channel=0 note=64 velocity=0 time=0
note_on channel=0 note=76 velocity=0 time=240
note_on channel=0 note=77 velocity=51 time=0
note_on channel=0 note=77 velocity=0 time=220
<meta message set_tempo tempo=461538 time=20>
note_on channel=0 note=80 velocity=57 time=0
control_change channel=0 control=64 value=0 time=0
<meta message set_tempo tempo=472441 time=240>
note_on channel=0 note=80 velocity=0 time=0
note_on channel=0 note=78 velocity=56 time=0
<meta message set_tempo tempo=465116 time=240>
note_on channel=0 note=78 velocity=0 time=0
note_on channel=0 note=76 velocity=54 time=0
<meta message set_tempo tempo=472441 time=240>
note_on channel=0 note=76 velocity=0 time=0
note_on channel=0 note=74 velocity=53 time=0
<meta message set_tempo tempo=468750 time=240>
note_on channel=0 note=74 velocity=0 time=0
note_on channel=0 note=73 velocity=52 time=0
<meta message set_tempo tempo=491803 time=240>
note_on channel=0 note=73 velocity=0 time=0
note_on channel=0 note=71 velocity=51 time=0
<meta message set_tempo tempo=472441 time=240>
note_on channel=0 note=71 velocity=0 time=0
note_on channel=0 note=69 velocity=51 time=0
note_on channel=0 note=52 velocity=39 time=0
control_change channel=0 control=64 value=127 time=57
note_on channel=0 note=52 velocity=0 time=183
note_on channel=0 note=69 velocity=0 time=0
note_on channel=0 note=68 velocity=46 time=0
note_on channel=0 note=62 velocity=33 time=0
<meta message set_tempo tempo=454545 time=240>
note_on channel=0 note=62 velocity=0 time=0
note_on channel=0 note=68 velocity=0 time=0
note_on channel=0 note=76 velocity=53 time=0
note_on channel=0 note=59 velocity=33 time=0
control_change channel=0 control=64 value=0 time=6
control_change channel=0 control=64 value=127 time=85
<meta message set_tempo tempo=461538 time=149>
note_on channel=0 note=59 velocity=0 time=0
note_on channel=0 note=76 velocity=0 time=0
note_on channel=0 note=74 velocity=51 time=0
note_on channel=0 note=62 velocity=28 time=0
<meta message set_tempo tempo=472441 time=240>
note_on channel=0 note=62 velocity=0 time=0
note_on channel=0 note=74 velocity=0 time=0
note_on channel=0 note=59 velocity=31 time=0
control_change channel=0 control=64 value=0 time=10
control_change channel=0 control=64 value=127 time=103
<meta message set_tempo tempo=472441 time=127>
note_on channel=0 note=59 velocity=0 time=0
note_on channel=0 note=62 velocity=29 time=0
<meta message set_tempo tempo=472441 time=240>
note_on channel=0 note=62 velocity=0 time=0
note_on channel=0 note=71 velocity=57 time=0
note_on channel=0 note=52 velocity=40 time=0
control_change channel=0 control=64 value=0 time=9
control_change channel=0 control=64 value=127 time=147
note_on channel=0 note=52 velocity=0 time=84
note_on channel=0 note=71 velocity=0 time=0
note_on channel=0 note=69 velocity=53 time=0
note_on channel=0 note=61 velocity=34 time=0
<meta message set_tempo tempo=454545 time=240>
note_on channel=0 note=61 velocity=0 time=0
note_on channel=0 note=69 velocity=0 time=0
note_on channel=0 note=78 velocity=57 time=0
note_on channel=0 note=57 velocity=34 time=0
control_change channel=0 control=64 value=0 time=7
control_change channel=0 control=64 value=127 time=120
<meta message set_tempo tempo=465116 time=113>
note_on channel=0 note=57 velocity=0 time=0
note_on channel=0 note=78 velocity=0 time=0
note_on channel=0 note=76 velocity=56 time=0
note_on channel=0 note=61 velocity=30 time=0
note_on channel=0 note=61 velocity=0 time=240
note_on channel=0 note=76 velocity=0 time=0
note_on channel=0 note=57 velocity=32 time=0
control_change channel=0 control=64 value=0 time=9
control_change channel=0 control=64 value=127 time=104
<meta message set_tempo tempo=472441 time=127>
note_on channel=0 note=57 velocity=0 time=0
note_on channel=0 note=61 velocity=28 time=0
<meta message set_tempo tempo=468750 time=240>
note_on channel=0 note=61 velocity=0 time=0
note_on channel=0 note=73 velocity=63 time=0
note_on channel=0 note=50 velocity=42 time=0
control_change channel=0 control=64 value=0 time=6
control_change channel=0 control=64 value=127 time=143
<meta message set_tempo tempo=458015 time=91>
note_on channel=0 note=50 velocity=0 time=0
note_on channel=0 note=73 velocity=0 time=0
note_on channel=0 note=71 velocity=59 time=0
note_on channel=0 note=59 velocity=36 time=0
<meta message set_tempo tempo=458015 time=240>
note_on channel=0 note=59 velocity=0 time=0
note_on channel=0 note=71 velocity=0 time=0
note_on channel=0 note=79 velocity=62 time=0
note_on channel=0 note=54 velocity=36 time=0
control_change channel=0 control=64 value=0 time=7
control_change channel=0 control=64 value=127 time=85
<meta message set_tempo tempo=468750 time=148>
note_on channel=0 note=54 velocity=0 time=0
note_on channel=0 note=79 velocity=0 time=0
note_on channel=0 note=78 velocity=59 time=0
note_on channel=0 note=59 velocity=34 time=0
<meta message set_tempo tempo=468750 time=240>
note_on channel=0 note=59 velocity=0 time=0
note_on channel=0 note=78 velocity=0 time=0
note_on channel=0 note=54 velocity=36 time=0
control_change channel=0 control=64 value=0 time=6
control_change channel=0 control=64 value=127 time=109
note_on channel=0 note=54 velocity=0 time=125
note_on channel=0 note=59 velocity=34 time=0
<meta message set_tempo tempo=468750 time=240>
note_on channel=0 note=59 velocity=0 time=0
note_on channel=0 note=66 velocity=51 time=0
note_on channel=0 note=50 velocity=39 time=0
control_change channel=0 control=64 value=0 time=5
control_change channel=0 control=64 value=127 time=122
<meta message set_tempo tempo=454545 time=353>
note_on channel=0 note=50 velocity=0 time=0
note_on channel=0 note=66 velocity=0 time=0
note_on channel=0 note=76 velocity=53 time=0
control_change channel=0 control=64 value=0 time=43
<meta message set_tempo tempo=461538 time=197>
note_on channel=0 note=76 velocity=0 time=0
note_on channel=0 note=74 velocity=51 time=0
<meta message set_tempo tempo=454545 time=240>
note_on channel=0 note=74 velocity=0 time=0
note_on channel=0 note=73 velocity=51 time=0
<meta message set_tempo tempo=476190 time=240>
note_on channel=0 note=73 velocity=0 time=0
note_on channel=0 note=71 velocity=49 time=0
<meta message set_tempo tempo=468750 time=240>
note_on channel=0 note=71 velocity=0 time=0
note_on channel=0 note=69 velocity=51 time=0
note_on channel=0 note=52 velocity=33 time=0
note_on channel=0 note=62 velocity=39 time=0
control_change channel=0 control=64 value=127 time=85
note_on channel=0 note=69 velocity=0 time=155
note_on channel=0 note=68 velocity=48 time=0
<meta message set_tempo tempo=476190 time=240>
note_on channel=0 note=68 velocity=0 time=0
note_on channel=0 note=62 velocity=0 time=0
note_on channel=0 note=52 velocity=0 time=0
note_on channel=0 note=69 velocity=51 time=0
note_on channel=0 note=57 velocity=33 time=0
note_on channel=0 note=61 velocity=39 time=0
control_change channel=0 control=64 value=0 time=9
control_change channel=0 control=64 value=127 time=150
note_on channel=0 note=61 velocity=0 time=321
note_on channel=0 note=57 velocity=0 time=0
note_on channel=0 note=69 velocity=0 time=0
control_change channel=0 control=64 value=0 time=14
note_on channel=0 note=71 velocity=68 time=286
note_on channel=0 note=71 velocity=0 time=60
note_on channel=0 note=76 velocity=71 time=0
note_on channel=0 note=76 velocity=0 time=60
note_on channel=0 note=80 velocity=74 time=0
<meta message set_tempo tempo=468750 time=60>
note_on channel=0 note=80 velocity=0 time=0
note_on channel=0 note=83 velocity=77 time=0
note_on channel=0 note=52 velocity=60 time=0
control_change channel=0 control=64 value=127 time=127
note_on channel=0 note=52 velocity=0 time=113
note_on channel=0 note=56 velocity=52 time=0
note_on channel=0 note=56 velocity=0 time=240
note_on channel=0 note=59 velocity=56 time=0
note_on channel=0 note=59 velocity=0 time=240
note_on channel=0 note=56 velocity=52 time=0
note_on channel=0 note=56 velocity=0 time=240
note_on channel=0 note=54 velocity=56 time=0
control_change channel=0 control=64 value=0 time=7
note_on channel=0 note=54 velocity=0 time=233
note_on channel=0 note=52 velocity=51 time=0
<meta message set_tempo tempo=461538 time=240>
note_on channel=0 note=52 velocity=0 time=0
note_on channel=0 note=83 velocity=0 time=0
note_on channel=0 note=83 velocity=73 time=0
note_on channel=0 note=51 velocity=60 time=0
control_change channel=0 control=64 value=127 time=57
note_on channel=0 note=83 velocity=0 time=63
note_on channel=0 note=81 velocity=72 time=0
note_on channel=0 note=81 velocity=0 time=120
note_on channel=0 note=51 velocity=0 time=0
note_on channel=0 note=80 velocity=71 time=0
note_on channel=0 note=52 velocity=50 time=0
note_on channel=0 note=80 velocity=0 time=120
note_on channel=0 note=78 velocity=70 time=0
note_on channel=0 note=78 velocity=0 time=120
note_on channel=0 note=52 velocity=0 time=0
note_on channel=0 note=78 velocity=72 time=0
note_on channel=0 note=54 velocity=50 time=0
control_change channel=0 control=64 value=0 time=10
control_change channel=0 control=64 value=127 time=65
note_on channel=0 note=78 velocity=0 time=41
note_on channel=0 note=76 velocity=71 time=4
note_on channel=0 note=76 velocity=0 time=120
note_on channel=0 note=54 velocity=0 time=0
note_on channel=0 note=75 velocity=69 time=0
note_on channel=0 note=47 velocity=51 time=0
note_on channel=0 note=75 velocity=0 time=120
note_on channel=0 note=73 velocity=68 time=0
<meta message set_tempo tempo=468750 time=120>
note_on channel=0 note=73 velocity=0 time=0
note_on channel=0 note=47 velocity=0 time=0
note_on channel=0 note=71 velocity=70 time=0
note_on channel=0 note=49 velocity=54 time=0
control_change channel=0 control=64 value=0 time=10
control_change channel=0 control=64 value=127 time=93
note_on channel=0 note=71 velocity=0 time=17
note_on channel=0 note=69 velocity=67 time=0
<meta message set_tempo tempo=476190 time=120>
note_on channel=0 note=69 velocity=0 time=0
note_on channel=0 note=49 velocity=0 time=0
note_on channel=0 note=68 velocity=67 time=0
note_on channel=0 note=51 velocity=51 time=0
note_on channel=0 note=68 velocity=0 time=120
note_on channel=0 note=69 velocity=67 time=0
<meta message set_tempo tempo=465116 time=120>
note_on channel=0 note=69 velocity=0 time=0
note_on channel=0 note=51 velocity=0 time=0
note_on channel=0 note=68 velocity=67 time=0
note_on channel=0 note=52 velocity=60 time=0
control_change channel=0 control=64 value=0 time=57
note_on channel=0 note=68 velocity=0 time=63
note_on channel=0 note=71 velocity=69 time=0
control_change channel=0 control=64 value=127 time=28
note_on channel=0 note=71 velocity=0 time=92
note_on channel=0 note=52 velocity=0 time=0
note_on channel=0 note=76 velocity=70 time=0
note_on channel=0 note=56 velocity=52 time=0
note_on channel=0 note=76 velocity=0 time=120
note_on channel=0 note=80 velocity=72 time=0
<meta message set_tempo tempo=454545 time=120>
note_on channel=0 note=80 velocity=0 time=0
note_on channel=0 note=56 velocity=0 time=0
note_on channel=0 note=83 velocity=73 time=0
note_on channel=0 note=59 velocity=52 time=0
control_change channel=0 control=64 value=0 time=10
note_on channel=0 note=59 velocity=0 time=230
note_on channel=0 note=56 velocity=52 time=0
<meta message set_tempo tempo=461538 time=240>
note_on channel=0 note=56 velocity=0 time=0
note_on channel=0 note=54 velocity=55 time=0
note_on channel=0 note=54 velocity=0 time=240
note_on channel=0 note=52 velocity=52 time=0
<meta message set_tempo tempo=461538 time=240>
note_on channel=0 note=52 velocity=0 time=0
note_on channel=0 note=83 velocity=0 time=0
note_on channel=0 note=83 velocity=73 time=0
note_on channel=0 note=51 velocity=60 time=0
control_change channel=0 control=64 value=127 time=57
note_on channel=0 note=83 velocity=0 time=63
note_on channel=0 note=81 velocity=72 time=0
note_on channel=0 note=81 velocity=0 time=120
note_on channel=0 note=51 velocity=0 time=0
note_on channel=0 note=80 velocity=71 time=0
note_on channel=0 note=52 velocity=50 time=0
note_on channel=0 note=80 velocity=0 time=120
note_on channel=0 note=78 velocity=70 time=0
note_on channel=0 note=78 velocity=0 time=116
note_on channel=0 note=52 velocity=0 time=4
note_on channel=0 note=78 velocity=72 time=0
note_on channel=0 note=54 velocity=50 time=0
control_change channel=0 control=64 value=0 time=10
control_change channel=0 control=64 value=127 time=65
note_on channel=0 note=78 velocity=0 time=45
note_on channel=0 note=76 velocity=71 time=0
note_on channel=0 note=76 velocity=0 time=120
note_on channel=0 note=54 velocity=0 time=0
note_on channel=0 note=75 velocity=69 time=0
note_on channel=0 note=47 velocity=51 time=0
note_on channel=0 note=75 velocity=0 time=120
note_on channel=0 note=73 velocity=68 time=0
<meta message set_tempo tempo=468750 time=120>
note_on channel=0 note=73 velocity=0 time=0
note_on channel=0 note=47 velocity=0 time=0
note_on channel=0 note=71 velocity=70 time=0
note_on channel=0 note=49 velocity=54 time=0
control_change channel=0 control=64 value=0 time=10
control_change channel=0 control=64 value=127 time=93
note_on channel=0 note=71 velocity=0 time=17
note_on channel=0 note=69 velocity=67 time=0
<meta message set_tempo tempo=476190 time=120>
note_on channel=0 note=69 velocity=0 time=0
note_on channel=0 note=49 velocity=0 time=0
note_on channel=0 note=68 velocity=67 time=0
note_on channel=0 note=51 velocity=51 time=0
note_on channel=0 note=68 velocity=0 time=120
note_on channel=0 note=69 velocity=67 time=0
<meta message set_tempo tempo=465116 time=120>
note_on channel=0 note=69 velocity=0 time=0
note_on channel=0 note=51 velocity=0 time=0
note_on channel=0 note=68 velocity=67 time=0
note_on channel=0 note=52 velocity=60 time=0
control_change channel=0 control=64 value=0 time=57
note_on channel=0 note=68 velocity=0 time=63
note_on channel=0 note=71 velocity=64 time=0
control_change channel=0 control=64 value=127 time=28
note_on channel=0 note=71 velocity=0 time=92
note_on channel=0 note=69 velocity=70 time=0
note_on channel=0 note=69 velocity=0 time=120
note_on channel=0 note=68 velocity=64 time=0
note_on channel=0 note=69 velocity=68 time=113
<meta message set_tempo tempo=454545 time=7>
note_on channel=0 note=68 velocity=0 time=0
note_on channel=0 note=52 velocity=0 time=0
control_change channel=0 control=64 value=0 time=10
control_change channel=0 control=64 value=127 time=70
note_on channel=0 note=69 velocity=0 time=33
note_on channel=0 note=71 velocity=68 time=7
note_on channel=0 note=71 velocity=0 time=120
note_on channel=0 note=73 velocity=69 time=0
note_on channel=0 note=73 velocity=0 time=120
note_on channel=0 note=75 velocity=70 time=0
<meta message set_tempo tempo=461538 time=120>
note_on channel=0 note=75 velocity=0 time=0
note_on channel=0 note=76 velocity=70 time=0
control_change channel=0 control=64 value=0 time=8
control_change channel=0 control=64 value=127 time=32
note_on channel=0 note=76 velocity=0 time=80
note_on channel=0 note=78 velocity=71 time=0
note_on channel=0 note=78 velocity=0 time=120
note_on channel=0 note=80 velocity=72 time=0
note_on channel=0 note=80 velocity=0 time=120
note_on channel=0 note=81 velocity=72 time=0
<meta message set_tempo tempo=454545 time=76>
note_on channel=0 note=81 velocity=0 time=44
note_on channel=0 note=83 velocity=73 time=0
control_change channel=0 control=64 value=0 time=9
control_change channel=0 control=64 value=127 time=54
note_on channel=0 note=83 velocity=0 time=57
note_on channel=0 note=85 velocity=74 time=0
<meta message set_tempo tempo=451128 time=4>
note_on channel=0 note=85 velocity=0 time=116
note_on channel=0 note=87 velocity=74 time=0
<meta message set_tempo tempo=447761 time=28>
note_on channel=0 note=87 velocity=0 time=92
note_on channel=0 note=88 velocity=75 time=0
<meta message set_tempo tempo=444444 time=52>
note_on channel=0 note=88 velocity=0 time=68
note_on channel=0 note=87 velocity=72 time=0
control_change channel=0 control=64 value=0 time=10
note_on channel=0 note=87 velocity=0 time=110
note_on channel=0 note=85 velocity=70 time=0
control_change channel=0 control=64 value=127 time=0
note_on channel=0 note=85 velocity=0 time=120
note_on channel=0 note=83 velocity=68 time=0
note_on channel=0 note=83 velocity=0 time=120
note_on channel=0 note=81 velocity=65 time=0
<meta message set_tempo tempo=437956 time=76>
note_on channel=0 note=81 velocity=0 time=44
note_on channel=0 note=80 velocity=63 time=0
control_change channel=0 control=64 value=0 time=10
<meta message set_tempo tempo=441176 time=18>
<meta message set_tempo tempo=444444 time=48>
control_change channel=0 control=64 value=127 time=4
note_on channel=0 note=80 velocity=0 time=40
note_on channel=0 note=78 velocity=61 time=0
<meta message set_tempo tempo=447761 time=4>
<meta message set_tempo tempo=451128 time=72>
note_on channel=0 note=78 velocity=0 time=44
note_on channel=0 note=76 velocity=59 time=0
<meta message set_tempo tempo=454545 time=4>
<meta message set_tempo tempo=458015 time=48>
<meta message set_tempo tempo=461538 time=48>
note_on channel=0 note=76 velocity=0 time=20
note_on channel=0 note=75 velocity=57 time=0
<meta message set_tempo tempo=465116 time=120>
note_on channel=0 note=75 velocity=0 time=0
note_on channel=0 note=73 velocity=50 time=0
note_on channel=0 note=57 velocity=38 time=0
note_on channel=0 note=66 velocity=45 time=0
control_change channel=0 control=64 value=0 time=9
note_on channel=0 note=73 velocity=0 time=231
note_on channel=0 note=85 velocity=50 time=120
<meta message set_tempo tempo=476190 time=120>
note_on channel=0 note=85 velocity=0 time=0
note_on channel=0 note=66 velocity=0 time=0
note_on channel=0 note=57 velocity=0 time=0
note_on channel=0 note=76 velocity=54 time=0
note_on channel=0 note=59 velocity=33 time=0
note_on channel=0 note=68 velocity=39 time=0
control_change channel=0 control=64 value=127 time=71
<meta message set_tempo tempo=582524 time=289>
note_on channel=0 note=76 velocity=0 time=60
note_on channel=0 note=80 velocity=50 time=0
<meta message set_tempo tempo=540541 time=60>
note_on channel=0 note=80 velocity=0 time=0
note_on channel=0 note=68 velocity=0 time=0
note_on channel=0 note=75 velocity=53 time=0
note_on channel=0 note=78 velocity=53 time=0
note_on channel=0 note=69 velocity=39 time=0
control_change channel=0 control=64 value=0 time=10
control_change channel=0 control=64 value=127 time=75
note_on channel=0 note=69 velocity=0 time=395
note_on channel=0 note=59 velocity=0 time=0
note_on channel=0 note=75 velocity=0 time=0
note_on channel=0 note=78 velocity=0 time=0
note_on channel=0 note=76 velocity=51 time=0
note_on channel=0 note=64 velocity=35 time=0
note_on channel=0 note=68 velocity=42 time=0
control_change channel=0 control=64 value=0 time=0
note_on channel=0 note=52 velocity=35 time=454
note_on channel=0 note=68 velocity=0 time=26
note_on channel=0 note=76 velocity=0 time=0
note_on channel=0 note=64 velocity=0 time=0
note_on channel=0 note=52 velocity=0 time=454
note_on channel=0 note=64 velocity=61 time=446
control_change channel=0 control=64 value=127 time=11
<meta message set_tempo tempo=476190 time=49>
note_on channel=0 note=76 velocity=74 time=0
note_on channel=0 note=64 velocity=0 time=60
note_on channel=0 note=76 velocity=0 time=360
note_on channel=0 note=66 velocity=61 time=0
control_change channel=0 control=64 value=0 time=6
note_on channel=0 note=78 velocity=70 time=54
control_change channel=0 control=64 value=127 time=20
note_on channel=0 note=66 velocity=0 time=40
note_on channel=0 note=78 velocity=0 time=360
note_on channel=0 note=67 velocity=61 time=0
control_change channel=0 control=64 value=0 time=5
control_change channel=0 control=64 value=127 time=41
note_on channel=0 note=79 velocity=70 time=14
note_on channel=0 note=67 velocity=0 time=60
<meta message set_tempo tempo=483871 time=180>
<meta message set_tempo tempo=476190 time=240>
note_on channel=0 note=79 velocity=0 time=0
note_on channel=0 note=71 velocity=56 time=0
note_on channel=0 note=54 velocity=47 time=0
control_change channel=0 control=64 value=0 time=0
control_change channel=0 control=64 value=127 time=92
note_on channel=0 note=54 velocity=0 time=148
note_on channel=0 note=61 velocity=39 time=0
<meta message set_tempo tempo=465116 time=240>
note_on channel=0 note=61 velocity=0 time=0
note_on channel=0 note=71 velocity=0 time=0
note_on channel=0 note=70 velocity=52 time=0
note_on channel=0 note=66 velocity=39 time=0
control_change channel=0 control=64 value=0 time=9
control_change channel=0 control=64 value=127 time=76
note_on channel=0 note=66 velocity=0 time=155
note_on channel=0 note=64 velocity=39 time=0
<meta message set_tempo tempo=468750 time=240>
note_on channel=0 note=64 velocity=0 time=0
note_on channel=0 note=70 velocity=0 time=0
note_on channel=0 note=62 velocity=39 time=0
control_change channel=0 control=64 value=0 time=7
control_change channel=0 control=64 value=127 time=120
<meta message set_tempo tempo=483871 time=113>
note_on channel=0 note=62 velocity=0 time=0
note_on channel=0 note=61 velocity=39 time=0
note_on channel=0 note=70 velocity=51 time=120
<meta message set_tempo tempo=472441 time=120>
note_on channel=0 note=70 velocity=0 time=0
note_on channel=0 note=61 velocity=0 time=0
note_on channel=0 note=73 velocity=57 time=0
note_on channel=0 note=54 velocity=47 time=0
control_change channel=0 control=64 value=0 time=10
control_change channel=0 control=64 value=127 time=54
note_on channel=0 note=54 velocity=0 time=176
note_on channel=0 note=62 velocity=42 time=0
<meta message set_tempo tempo=461538 time=240>
note_on channel=0 note=62 velocity=0 time=0
note_on channel=0 note=73 velocity=0 time=0
note_on channel=0 note=71 velocity=56 time=0
note_on channel=0 note=66 velocity=42 time=0
control_change channel=0 control=64 value=0 time=7
control_change channel=0 control=64 value=127 time=57
note_on channel=0 note=66 velocity=0 time=176
note_on channel=0 note=62 velocity=42 time=0
<meta message set_tempo tempo=472441 time=240>
note_on channel=0 note=62 velocity=0 time=0
note_on channel=0 note=71 velocity=0 time=0
note_on channel=0 note=61 velocity=42 time=0
control_change channel=0 control=64 value=0 time=9
control_change channel=0 control=64 value=127 time=118
note_on channel=0 note=61 velocity=0 time=113
note_on channel=0 note=59 velocity=42 time=0
note_on channel=0 note=71 velocity=63 time=120
<meta message set_tempo tempo=461538 time=120>
note_on channel=0 note=71 velocity=0 time=0
note_on channel=0 note=59 velocity=0 time=0
note_on channel=0 note=74 velocity=66 time=0
note_on channel=0 note=54 velocity=56 time=0
control_change channel=0 control=64 value=0 time=11
control_change channel=0 control=64 value=127 time=65
<meta message set_tempo tempo=468750 time=164>
note_on channel=0 note=54 velocity=0 time=0
note_on channel=0 note=58 velocity=47 time=0
note_on channel=0 note=58 velocity=0 time=240
note_on channel=0 note=74 velocity=0 time=0
note_on channel=0 note=73 velocity=60 time=0
note_on channel=0 note=64 velocity=47 time=0
control_change channel=0 control=64 value=0 time=10
control_change channel=0 control=64 value=127 time=75
note_on channel=0 note=64 velocity=0 time=155
note_on channel=0 note=61 velocity=47 time=0
note_on channel=0 note=61 velocity=0 time=240
note_on channel=0 note=73 velocity=0 time=0
note_on channel=0 note=59 velocity=47 time=0
control_change channel=0 control=64 value=0 time=10
control_change channel=0 control=64 value=127 time=54
note_on channel=0 note=59 velocity=0 time=176
note_on channel=0 note=58 velocity=47 time=0
note_on channel=0 note=73 velocity=68 time=120
<meta message set_tempo tempo=461538 time=120>
note_on channel=0 note=73 velocity=0 time=0
note_on channel=0 note=58 velocity=0 time=0
note_on channel=0 note=76 velocity=72 time=0
note_on channel=0 note=59 velocity=57 time=0
control_change channel=0 control=64 value=0 time=0
control_change channel=0 control=64 value=127 time=103
<meta message set_tempo tempo=476190 time=137>
note_on channel=0 note=76 velocity=0 time=0
note_on channel=0 note=74 velocity=68 time=0
<meta message set_tempo tempo=454545 time=240>
note_on channel=0 note=74 velocity=0 time=0
note_on channel=0 note=59 velocity=0 time=0
note_on channel=0 note=77 velocity=72 time=0
control_change channel=0 control=64 value=0 time=8
control_change channel=0 control=64 value=127 time=95
<meta message set_tempo tempo=472441 time=137>
note_on channel=0 note=77 velocity=0 time=0
note_on channel=0 note=76 velocity=67 time=0
<meta message set_tempo tempo=465116 time=240>
note_on channel=0 note=76 velocity=0 time=0
note_on channel=0 note=79 velocity=70 time=0
control_change channel=0 control=64 value=0 time=4
control_change channel=0 control=64 value=127 time=91
<meta message set_tempo tempo=472441 time=145>
note_on channel=0 note=79 velocity=0 time=0
note_on channel=0 note=77 velocity=66 time=0
<meta message set_tempo tempo=472441 time=240>
note_on channel=0 note=77 velocity=0 time=0
note_on channel=0 note=69 velocity=56 time=0
note_on channel=0 note=52 velocity=47 time=0
control_change channel=0 control=64 value=0 time=0
control_change channel=0 control=64 value=127 time=92
note_on channel=0 note=52 velocity=0 time=148
note_on channel=0 note=59 velocity=39 time=0
<meta message set_tempo tempo=465116 time=240>
note_on channel=0 note=59 velocity=0 time=0
note_on channel=0 note=69 velocity=0 time=0
note_on channel=0 note=68 velocity=52 time=0
note_on channel=0 note=64 velocity=39 time=0
control_change channel=0 control=64 value=0 time=9
control_change channel=0 control=64 value=127 time=76
note_on channel=0 note=64 velocity=0 time=155
note_on channel=0 note=62 velocity=39 time=0
<meta message set_tempo tempo=468750 time=240>
note_on channel=0 note=62 velocity=0 time=0
note_on channel=0 note=68 velocity=0 time=0
note_on channel=0 note=60 velocity=39 time=0
control_change channel=0 control=64 value=0 time=7
control_change channel=0 control=64 value=127 time=120
<meta message set_tempo tempo=483871 time=113>
note_on channel=0 note=60 velocity=0 time=0
note_on channel=0 note=59 velocity=39 time=0
note_on channel=0 note=68 velocity=51 time=120
<meta message set_tempo tempo=472441 time=120>
note_on channel=0 note=68 velocity=0 time=0
note_on channel=0 note=59 velocity=0 time=0
note_on channel=0 note=71 velocity=57 time=0
note_on channel=0 note=52 velocity=47 time=0
control_change channel=0 control=64 value=0 time=10
control_change channel=0 control=64 value=127 time=54
note_on channel=0 note=52 velocity=0 time=176
note_on channel=0 note=60 velocity=42 time=0
<meta message set_tempo tempo=461538 time=240>
note_on channel=0 note=60 velocity=0 time=0
note_on channel=0 note=71 velocity=0 time=0
note_on channel=0 note=69 velocity=56 time=0
note_on channel=0 note=64 velocity=42 time=0
control_change channel=0 control=64 value=0 time=7
control_change channel=0 control=64 value=127 time=57
note_on channel=0 note=64 velocity=0 time=176
note_on channel=0 note=60 velocity=42 time=0
<meta message set_tempo tempo=472441 time=240>
note_on channel=0 note=60 velocity=0 time=0
note_on channel=0 note=69 velocity=0 time=0
note_on channel=0 note=59 velocity=42 time=0
control_change channel=0 control=64 value=0 time=9
control_change channel=0 control=64 value=127 time=118
note_on channel=0 note=59 velocity=0 time=113
note_on channel=0 note=57 velocity=42 time=0
note_on channel=0 note=69 velocity=63 time=120
<meta message set_tempo tempo=465116 time=120>
note_on channel=0 note=69 velocity=0 time=0
note_on channel=0 note=57 velocity=0 time=0
note_on channel=0 note=72 velocity=66 time=0
note_on channel=0 note=52 velocity=56 time=0
control_change channel=0 control=64 value=0 time=11
control_change channel=0 control=64 value=127 time=65
<meta message set_tempo tempo=472441 time=164>
note_on channel=0 note=52 velocity=0 time=0
note_on channel=0 note=56 velocity=47 time=0
note_on channel=0 note=56 velocity=0 time=240
note_on channel=0 note=72 velocity=0 time=0
note_on channel=0 note=71 velocity=60 time=0
note_on channel=0 note=62 velocity=47 time=0
control_change channel=0 control=64 value=0 time=10
control_change channel=0 control=64 value=127 time=75
note_on channel=0 note=62 velocity=0 time=155
note_on channel=0 note=59 velocity=47 time=0
note_on channel=0 note=59 velocity=0 time=240
note_on channel=0 note=71 velocity=0 time=0
note_on channel=0 note=57 velocity=47 time=0
control_change channel=0 control=64 value=0 time=10
control_change channel=0 control=64 value=127 time=54
note_on channel=0 note=57 velocity=0 time=176
note_on channel=0 note=56 velocity=47 time=0
note_on channel=0 note=71 velocity=68 time=120
<meta message set_tempo tempo=461538 time=120>
note_on channel=0 note=71 velocity=0 time=0
note_on channel=0 note=56 velocity=0 time=0
note_on channel=0 note=74 velocity=72 time=0
note_on channel=0 note=57 velocity=57 time=0
control_change channel=0 control=64 value=0 time=0
control_change channel=0 control=64 value=127 time=103
<meta message set_tempo tempo=476190 time=137>
note_on channel=0 note=74 velocity=0 time=0
note_on channel=0 note=72 velocity=68 time=0
<meta message set_tempo tempo=461538 time=240>
note_on channel=0 note=72 velocity=0 time=0
note_on channel=0 note=71 velocity=72 time=0
control_change channel=0 control=64 value=0 time=8
control_change channel=0 control=64 value=127 time=95
<meta message set_tempo tempo=472441 time=137>
note_on channel=0 note=71 velocity=0 time=0
note_on channel=0 note=69 velocity=67 time=0
<meta message set_tempo tempo=465116 time=240>
note_on channel=0 note=69 velocity=0 time=0
note_on channel=0 note=57 velocity=0 time=0
note_on channel=0 note=81 velocity=73 time=0
note_on channel=0 note=43 velocity=69 time=0
note_on channel=0 note=55 velocity=69 time=0
control_change channel=0 control=64 value=0 time=4
control_change channel=0 control=64 value=127 time=91
note_on channel=0 note=81 velocity=0 time=85
<meta message set_tempo tempo=472441 time=60>
note_on channel=0 note=81 velocity=70 time=0
note_on channel=0 note=81 velocity=0 time=180
control_change channel=0 control=64 value=0 time=3
note_on channel=0 note=55 velocity=0 time=57
note_on channel=0 note=43 velocity=0 time=0
note_on channel=0 note=83 velocity=78 time=0
note_on channel=0 note=41 velocity=72 time=0
note_on channel=0 note=53 velocity=72 time=0
control_change channel=0 control=64 value=127 time=35
note_on channel=0 note=83 velocity=0 time=205
note_on channel=0 note=81 velocity=78 time=0
<meta message set_tempo tempo=465116 time=240>
note_on channel=0 note=81 velocity=0 time=0
note_on channel=0 note=79 velocity=77 time=0
note_on channel=0 note=79 velocity=0 time=240
note_on channel=0 note=77 velocity=75 time=0
<meta message set_tempo tempo=472441 time=240>
note_on channel=0 note=77 velocity=0 time=0
note_on channel=0 note=53 velocity=0 time=0
note_on channel=0 note=41 velocity=0 time=0
note_on channel=0 note=76 velocity=79 time=0
control_change channel=0 control=64 value=0 time=5
<meta message set_tempo tempo=500000 time=235>
note_on channel=0 note=76 velocity=0 time=0
note_on channel=0 note=75 velocity=75 time=0
<meta message set_tempo tempo=468750 time=240>
note_on channel=0 note=75 velocity=0 time=0
note_on channel=0 note=84 velocity=81 time=0
note_on channel=0 note=57 velocity=61 time=0
note_on channel=0 note=53 velocity=61 time=0
note_on channel=0 note=57 velocity=0 time=240
note_on channel=0 note=56 velocity=42 time=0
note_on channel=0 note=56 velocity=0 time=240
note_on channel=0 note=57 velocity=46 time=0
note_on channel=0 note=57 velocity=0 time=240
note_on channel=0 note=60 velocity=41 time=0
<meta message set_tempo tempo=487805 time=240>
note_on channel=0 note=60 velocity=0 time=0
note_on channel=0 note=84 velocity=0 time=0
note_on channel=0 note=75 velocity=55 time=0
note_on channel=0 note=59 velocity=46 time=0
control_change channel=0 control=64 value=0 time=9
control_change channel=0 control=64 value=127 time=140
note_on channel=0 note=59 velocity=0 time=91
note_on channel=0 note=57 velocity=41 time=0
<meta message set_tempo tempo=468750 time=240>
note_on channel=0 note=57 velocity=0 time=0
note_on channel=0 note=75 velocity=0 time=0
note_on channel=0 note=53 velocity=0 time=0
note_on channel=0 note=76 velocity=55 time=0
note_on channel=0 note=52 velocity=57 time=0
note_on channel=0 note=56 velocity=57 time=0
control_change channel=0 control=64 value=0 time=0
note_on channel=0 note=56 velocity=0 time=480
note_on channel=0 note=52 velocity=0 time=0
<meta message set_tempo tempo=483871 time=240>
note_on channel=0 note=76 velocity=0 time=0
note_on channel=0 note=78 velocity=57 time=0
note_on channel=0 note=78 velocity=0 time=120
note_on channel=0 note=76 velocity=46 time=0
note_on channel=0 note=76 velocity=0 time=90
note_on channel=0 note=76 velocity=55 time=30
note_on channel=0 note=76 velocity=0 time=120
note_on channel=0 note=74 velocity=53 time=0
note_on channel=0 note=74 velocity=0 time=120
note_on channel=0 note=73 velocity=52 time=0
<meta message set_tempo tempo=521739 time=120>
note_on channel=0 note=73 velocity=0 time=0
note_on channel=0 note=71 velocity=51 time=0
<meta message set_tempo tempo=530973 time=120>
note_on channel=0 note=71 velocity=0 time=0
note_on channel=0 note=61 velocity=64 time=0
<meta message text text='bdca426d104a26ac9dcb070447587523' time=0>
control_change channel=0 control=91 value=127 time=0
control_change channel=0 control=64 value=127 time=39
note_on channel=0 note=61 velocity=0 time=21
note_on channel=0 note=64 velocity=64 time=0
note_on channel=0 note=64 velocity=0 time=60
note_on channel=0 note=69 velocity=76 time=0
note_on channel=0 note=45 velocity=59 time=0
note_on channel=0 note=57 velocity=70 time=0
<meta message set_tempo tempo=476190 time=840>
note_on channel=0 note=57 velocity=0 time=0
note_on channel=0 note=45 velocity=0 time=0
note_on channel=0 note=69 velocity=0 time=0
note_on channel=0 note=64 velocity=70 time=0
note_on channel=0 note=40 velocity=53 time=0
note_on channel=0 note=52 velocity=63 time=0
control_change channel=0 control=64 value=0 time=8
control_change channel=0 control=64 value=127 time=66
<meta message set_tempo tempo=495868 time=406>
note_on channel=0 note=52 velocity=0 time=0
note_on channel=0 note=40 velocity=0 time=0
note_on channel=0 note=64 velocity=0 time=0
note_on channel=0 note=73 velocity=72 time=0
note_on channel=0 note=49 velocity=48 time=0
note_on channel=0 note=61 velocity=57 time=0
control_change channel=0 control=64 value=0 time=10
control_change channel=0 control=64 value=127 time=89
<meta message set_tempo tempo=465116 time=141>
note_on channel=0 note=73 velocity=0 time=0
note_on channel=0 note=74 velocity=74 time=0
note_on channel=0 note=74 velocity=0 time=120
note_on channel=0 note=71 velocity=70 time=0
<meta message set_tempo tempo=480000 time=120>
note_on channel=0 note=71 velocity=0 time=0
note_on channel=0 note=61 velocity=0 time=0
note_on channel=0 note=49 velocity=0 time=0
note_on channel=0 note=69 velocity=70 time=0
note_on channel=0 note=45 velocity=45 time=0
note_on channel=0 note=57 velocity=53 time=0
control_change channel=0 control=64 value=0 time=8
control_change channel=0 control=64 value=127 time=63
note_on channel=0 note=57 velocity=0 time=169
note_on channel=0 note=45 velocity=0 time=0
note_on channel=0 note=69 velocity=0 time=0
control_change channel=0 control=64 value=0 time=14
note_on channel=0 note=73 velocity=50 time=706
control_change channel=0 control=64 value=127 time=50
note_on channel=0 note=73 velocity=0 time=190
note_on channel=0 note=74 velocity=52 time=0
note_on channel=0 note=74 velocity=0 time=120
note_on channel=0 note=71 velocity=46 time=0
note_on channel=0 note=71 velocity=0 time=120
note_on channel=0 note=69 velocity=49 time=0
control_change channel=0 control=64 value=0 time=12
control_change channel=0 control=64 value=127 time=73
<meta message set_tempo tempo=504202 time=155>
<meta message set_tempo tempo=472441 time=240>
note_on channel=0 note=69 velocity=0 time=0
note_on channel=0 note=85 velocity=57 time=0
note_on channel=0 note=57 velocity=40 time=0
note_on channel=0 note=66 velocity=40 time=0
<meta message set_tempo tempo=491803 time=240>
note_on channel=0 note=66 velocity=0 time=0
note_on channel=0 note=57 velocity=0 time=0
note_on channel=0 note=85 velocity=0 time=0
control_change channel=0 control=64 value=0 time=141
<meta message set_tempo tempo=472441 time=99>
note_on channel=0 note=75 velocity=50 time=0
note_on channel=0 note=59 velocity=40 time=0
note_on channel=0 note=69 velocity=40 time=0
note_on channel=0 note=69 velocity=0 time=480
note_on channel=0 note=59 velocity=0 time=0
note_on channel=0 note=75 velocity=0 time=0
note_on channel=0 note=76 velocity=52 time=0
note_on channel=0 note=64 velocity=40 time=0
note_on channel=0 note=68 velocity=40 time=0
control_change channel=0 control=64 value=127 time=183
note_on channel=0 note=68 velocity=0 time=297
note_on channel=0 note=64 velocity=0 time=0
note_on channel=0 note=76 velocity=0 time=240
note_on channel=0 note=77 velocity=51 time=0
note_on channel=0 note=77 velocity=0 time=220
<meta message set_tempo tempo=458015 time=20>
note_on channel=0 note=80 velocity=57 time=0
control_change channel=0 control=64 value=0 time=0
<meta message set_tempo tempo=472441 time=240>
note_on channel=0 note=80 velocity=0 time=0
note_on channel=0 note=78 velocity=56 time=0
<meta message set_tempo tempo=461538 time=240>
note_on channel=0 note=78 velocity=0 time=0
note_on channel=0 note=76 velocity=54 time=0
<meta message set_tempo tempo=472441 time=240>
note_on channel=0 note=76 velocity=0 time=0
note_on channel=0 note=74 velocity=53 time=0
<meta message set_tempo tempo=465116 time=240>
note_on channel=0 note=74 velocity=0 time=0
note_on channel=0 note=73 velocity=52 time=0
<meta message set_tempo tempo=491803 time=240>
note_on channel=0 note=73 velocity=0 time=0
note_on channel=0 note=71 velocity=51 time=0
<meta message set_tempo tempo=472441 time=240>
note_on channel=0 note=71 velocity=0 time=0
note_on channel=0 note=69 velocity=51 time=0
note_on channel=0 note=52 velocity=39 time=0
control_change channel=0 control=64 value=127 time=57
<meta message set_tempo tempo=461538 time=183>
note_on channel=0 note=52 velocity=0 time=0
note_on channel=0 note=69 velocity=0 time=0
note_on channel=0 note=68 velocity=46 time=0
note_on channel=0 note=62 velocity=33 time=0
<meta message set_tempo tempo=454545 time=240>
note_on channel=0 note=62 velocity=0 time=0
note_on channel=0 note=68 velocity=0 time=0
note_on channel=0 note=76 velocity=53 time=0
note_on channel=0 note=59 velocity=33 time=0
control_change channel=0 control=64 value=0 time=6
control_change channel=0 control=64 value=127 time=85
<meta message set_tempo tempo=461538 time=149>
note_on channel=0 note=59 velocity=0 time=0
note_on channel=0 note=76 velocity=0 time=0
note_on channel=0 note=74 velocity=51 time=0
note_on channel=0 note=62 velocity=28 time=0
<meta message set_tempo tempo=472441 time=240>
note_on channel=0 note=62 velocity=0 time=0
note_on channel=0 note=74 velocity=0 time=0
note_on channel=0 note=59 velocity=31 time=0
control_change channel=0 control=64 value=0 time=10
control_change channel=0 control=64 value=127 time=103
<meta message set_tempo tempo=472441 time=127>
note_on channel=0 note=59 velocity=0 time=0
note_on channel=0 note=62 velocity=29 time=0
<meta message set_tempo tempo=472441 time=240>
note_on channel=0 note=62 velocity=0 time=0
note_on channel=0 note=71 velocity=57 time=0
note_on channel=0 note=52 velocity=40 time=0
control_change channel=0 control=64 value=0 time=9
control_change channel=0 control=64 value=127 time=147
<meta message set_tempo tempo=465116 time=84>
note_on channel=0 note=52 velocity=0 time=0
note_on channel=0 note=71 velocity=0 time=0
note_on channel=0 note=69 velocity=53 time=0
note_on channel=0 note=61 velocity=34 time=0
<meta message set_tempo tempo=454545 time=240>
note_on channel=0 note=61 velocity=0 time=0
note_on channel=0 note=69 velocity=0 time=0
note_on channel=0 note=78 velocity=57 time=0
note_on channel=0 note=57 velocity=34 time=0
control_change channel=0 control=64 value=0 time=7
control_change channel=0 control=64 value=127 time=120
<meta message set_tempo tempo=465116 time=113>
note_on channel=0 note=57 velocity=0 time=0
note_on channel=0 note=78 velocity=0 time=0
note_on channel=0 note=76 velocity=56 time=0
note_on channel=0 note=61 velocity=30 time=0
note_on channel=0 note=61 velocity=0 time=240
note_on channel=0 note=76 velocity=0 time=0
note_on channel=0 note=57 velocity=32 time=0
control_change channel=0 control=64 value=0 time=9
control_change channel=0 control=64 value=127 time=104
<meta message set_tempo tempo=472441 time=127>
note_on channel=0 note=57 velocity=0 time=0
note_on channel=0 note=61 velocity=28 time=0
<meta message set_tempo tempo=468750 time=240>
note_on channel=0 note=61 velocity=0 time=0
note_on channel=0 note=71 velocity=63 time=0
note_on channel=0 note=52 velocity=42 time=0
control_change channel=0 control=64 value=0 time=6
control_change channel=0 control=64 value=127 time=143
<meta message set_tempo tempo=487805 time=91>
note_on channel=0 note=52 velocity=0 time=0
note_on channel=0 note=71 velocity=0 time=0
note_on channel=0 note=69 velocity=59 time=0
note_on channel=0 note=61 velocity=36 time=0
<meta message set_tempo tempo=458015 time=240>
note_on channel=0 note=61 velocity=0 time=0
note_on channel=0 note=69 velocity=0 time=0
note_on channel=0 note=81 velocity=62 time=0
note_on channel=0 note=57 velocity=36 time=0
control_change channel=0 control=64 value=0 time=7
control_change channel=0 control=64 value=127 time=85
<meta message set_tempo tempo=468750 time=148>
note_on channel=0 note=57 velocity=0 time=0
note_on channel=0 note=81 velocity=0 time=0
note_on channel=0 note=79 velocity=59 time=0
note_on channel=0 note=61 velocity=34 time=0
<meta message set_tempo tempo=468750 time=240>
note_on channel=0 note=61 velocity=0 time=0
note_on channel=0 note=79 velocity=0 time=0
note_on channel=0 note=57 velocity=36 time=0
control_change channel=0 control=64 value=0 time=6
control_change channel=0 control=64 value=127 time=109
note_on channel=0 note=57 velocity=0 time=125
note_on channel=0 note=61 velocity=34 time=0
<meta message set_tempo tempo=465116 time=240>
note_on channel=0 note=61 velocity=0 time=0
note_on channel=0 note=79 velocity=55 time=0
note_on channel=0 note=50 velocity=28 time=0
note_on channel=0 note=57 velocity=28 time=0
note_on channel=0 note=62 velocity=34 time=0
control_change channel=0 control=64 value=0 time=0
<meta message set_tempo tempo=472441 time=240>
note_on channel=0 note=79 velocity=0 time=0
note_on channel=0 note=78 velocity=52 time=0
note_on channel=0 note=78 velocity=0 time=240
note_on channel=0 note=62 velocity=0 time=0
note_on channel=0 note=57 velocity=0 time=0
note_on channel=0 note=50 velocity=0 time=0
note_on channel=0 note=76 velocity=51 time=0
note_on channel=0 note=76 velocity=0 time=240
note_on channel=0 note=74 velocity=50 time=0
note_on channel=0 note=74 velocity=0 time=240
note_on channel=0 note=73 velocity=49 time=0
<meta message set_tempo tempo=491803 time=240>
note_on channel=0 note=73 velocity=0 time=0
note_on channel=0 note=71 velocity=47 time=0
note_on channel=0 note=71 velocity=0 time=240
note_on channel=0 note=76 velocity=49 time=0
note_on channel=0 note=49 velocity=40 time=0
control_change channel=0 control=64 value=127 time=41
<meta message set_tempo tempo=465116 time=79>
note_on channel=0 note=76 velocity=0 time=0
note_on channel=0 note=78 velocity=45 time=0
note_on channel=0 note=78 velocity=0 time=40
note_on channel=0 note=76 velocity=45 time=0
note_on channel=0 note=76 velocity=0 time=40
note_on channel=0 note=74 velocity=45 time=0
note_on channel=0 note=74 velocity=0 time=40
note_on channel=0 note=76 velocity=51 time=0
<meta message set_tempo tempo=550459 time=120>
note_on channel=0 note=76 velocity=0 time=0
note_on channel=0 note=49 velocity=0 time=0
note_on channel=0 note=78 velocity=52 time=0
note_on channel=0 note=50 velocity=33 time=0
control_change channel=0 control=64 value=0 time=3
<meta message set_tempo tempo=487805 time=117>
note_on channel=0 note=50 velocity=0 time=0
note_on channel=0 note=78 velocity=0 time=0
note_on channel=0 note=69 velocity=51 time=0
note_on channel=0 note=52 velocity=38 time=0
note_on channel=0 note=61 velocity=38 time=0
note_on channel=0 note=61 velocity=0 time=480
note_on channel=0 note=69 velocity=0 time=0
note_on channel=0 note=68 velocity=48 time=0
note_on channel=0 note=59 velocity=32 time=0
<meta message set_tempo tempo=476190 time=300>
note_on channel=0 note=69 velocity=66 time=60
note_on channel=0 note=69 velocity=0 time=60
note_on channel=0 note=73 velocity=67 time=0
<meta message set_tempo tempo=458015 time=60>
note_on channel=0 note=73 velocity=0 time=0
note_on channel=0 note=59 velocity=0 time=0
note_on channel=0 note=68 velocity=0 time=0
note_on channel=0 note=52 velocity=0 time=0
note_on channel=0 note=76 velocity=67 time=0
note_on channel=0 note=57 velocity=54 time=0
control_change channel=0 control=64 value=127 time=127
<meta message set_tempo tempo=468750 time=113>
note_on channel=0 note=57 velocity=0 time=0
note_on channel=0 note=61 velocity=46 time=0
note_on channel=0 note=61 velocity=0 time=240
note_on channel=0 note=76 velocity=0 time=0
note_on channel=0 note=76 velocity=69 time=0
note_on channel=0 note=64 velocity=50 time=0
note_on channel=0 note=64 velocity=0 time=240
note_on channel=0 note=61 velocity=46 time=0
<meta message set_tempo tempo=465116 time=240>
note_on channel=0 note=61 velocity=0 time=0
note_on channel=0 note=59 velocity=50 time=0
control_change channel=0 control=64 value=0 time=7
note_on channel=0 note=59 velocity=0 time=233
note_on channel=0 note=57 velocity=45 time=0
<meta message set_tempo tempo=461538 time=240>
note_on channel=0 note=57 velocity=0 time=0
note_on channel=0 note=76 velocity=0 time=0
note_on channel=0 note=76 velocity=65 time=0
note_on channel=0 note=56 velocity=54 time=0
control_change channel=0 control=64 value=127 time=57
note_on channel=0 note=76 velocity=0 time=63
note_on channel=0 note=74 velocity=64 time=0
note_on channel=0 note=74 velocity=0 time=120
note_on channel=0 note=56 velocity=0 time=0
note_on channel=0 note=73 velocity=63 time=0
note_on channel=0 note=57 velocity=45 time=0
note_on channel=0 note=73 velocity=0 time=120
note_on channel=0 note=71 velocity=63 time=0
note_on channel=0 note=71 velocity=0 time=109
note_on channel=0 note=57 velocity=0 time=11
note_on channel=0 note=71 velocity=64 time=0
note_on channel=0 note=59 velocity=45 time=0
control_change channel=0 control=64 value=0 time=10
control_change channel=0 control=64 value=127 time=65
note_on channel=0 note=71 velocity=0 time=45
note_on channel=0 note=69 velocity=63 time=0
note_on channel=0 note=69 velocity=0 time=120
note_on channel=0 note=59 velocity=0 time=0
note_on channel=0 note=68 velocity=62 time=0
note_on channel=0 note=52 velocity=45 time=0
note_on channel=0 note=68 velocity=0 time=120
note_on channel=0 note=66 velocity=61 time=0
<meta message set_tempo tempo=468750 time=120>
note_on channel=0 note=66 velocity=0 time=0
note_on channel=0 note=52 velocity=0 time=0
note_on channel=0 note=64 velocity=63 time=0
note_on channel=0 note=54 velocity=48 time=0
control_change channel=0 control=64 value=0 time=10
control_change channel=0 control=64 value=127 time=93
note_on channel=0 note=64 velocity=0 time=17
note_on channel=0 note=62 velocity=60 time=0
<meta message set_tempo tempo=476190 time=120>
note_on channel=0 note=62 velocity=0 time=0
note_on channel=0 note=54 velocity=0 time=0
note_on channel=0 note=61 velocity=60 time=0
note_on channel=0 note=56 velocity=45 time=0
note_on channel=0 note=61 velocity=0 time=120
note_on channel=0 note=62 velocity=60 time=0
<meta message set_tempo tempo=465116 time=120>
note_on channel=0 note=62 velocity=0 time=0
note_on channel=0 note=56 velocity=0 time=0
note_on channel=0 note=61 velocity=60 time=0
note_on channel=0 note=57 velocity=54 time=0
control_change channel=0 control=64 value=0 time=57
note_on channel=0 note=61 velocity=0 time=63
note_on channel=0 note=64 velocity=62 time=0
control_change channel=0 control=64 value=127 time=28
note_on channel=0 note=64 velocity=0 time=92
note_on channel=0 note=57 velocity=0 time=0
note_on channel=0 note=69 velocity=63 time=0
note_on channel=0 note=61 velocity=46 time=0
note_on channel=0 note=69 velocity=0 time=120
note_on channel=0 note=73 velocity=64 time=0
<meta message set_tempo tempo=454545 time=120>
note_on channel=0 note=73 velocity=0 time=0
note_on channel=0 note=61 velocity=0 time=0
note_on channel=0 note=76 velocity=65 time=0
note_on channel=0 note=64 velocity=46 time=0
control_change channel=0 control=64 value=0 time=10
note_on channel=0 note=64 velocity=0 time=230
note_on channel=0 note=61 velocity=46 time=0
<meta message set_tempo tempo=461538 time=240>
note_on channel=0 note=61 velocity=0 time=0
note_on channel=0 note=59 velocity=49 time=0
note_on channel=0 note=59 velocity=0 time=240
note_on channel=0 note=76 velocity=0 time=0
note_on channel=0 note=88 velocity=65 time=0
note_on channel=0 note=57 velocity=46 time=0
note_on channel=0 note=88 velocity=0 time=236
<meta message set_tempo tempo=461538 time=4>
note_on channel=0 note=57 velocity=0 time=0
note_on channel=0 note=88 velocity=70 time=0
note_on channel=0 note=56 velocity=52 time=0
control_change channel=0 control=64 value=127 time=57
note_on channel=0 note=88 velocity=0 time=63
note_on channel=0 note=86 velocity=70 time=0
note_on channel=0 note=86 velocity=0 time=120
note_on channel=0 note=56 velocity=0 time=0
note_on channel=0 note=85 velocity=69 time=0
note_on channel=0 note=57 velocity=44 time=0
note_on channel=0 note=85 velocity=0 time=120
note_on channel=0 note=83 velocity=69 time=0
note_on channel=0 note=83 velocity=0 time=115
note_on channel=0 note=57 velocity=0 time=5
note_on channel=0 note=83 velocity=68 time=0
note_on channel=0 note=59 velocity=51 time=0
control_change channel=0 control=64 value=0 time=10
control_change channel=0 control=64 value=127 time=65
note_on channel=0 note=83 velocity=0 time=45
note_on channel=0 note=81 velocity=67 time=0
note_on channel=0 note=81 velocity=0 time=120
note_on channel=0 note=59 velocity=0 time=0
note_on channel=0 note=80 velocity=67 time=0
note_on channel=0 note=52 velocity=44 time=0
note_on channel=0 note=80 velocity=0 time=120
note_on channel=0 note=78 velocity=66 time=0
<meta message set_tempo tempo=468750 time=120>
note_on channel=0 note=78 velocity=0 time=0
note_on channel=0 note=52 velocity=0 time=0
note_on channel=0 note=76 velocity=66 time=0
note_on channel=0 note=54 velocity=50 time=0
control_change channel=0 control=64 value=0 time=10
control_change channel=0 control=64 value=127 time=93
note_on channel=0 note=76 velocity=0 time=17
note_on channel=0 note=74 velocity=65 time=0
<meta message set_tempo tempo=476190 time=120>
note_on channel=0 note=74 velocity=0 time=0
note_on channel=0 note=54 velocity=0 time=0
note_on channel=0 note=73 velocity=65 time=0
note_on channel=0 note=56 velocity=46 time=0
note_on channel=0 note=73 velocity=0 time=120
note_on channel=0 note=74 velocity=64 time=0
<meta message set_tempo tempo=465116 time=120>
note_on channel=0 note=74 velocity=0 time=0
note_on channel=0 note=56 velocity=0 time=0
note_on channel=0 note=73 velocity=63 time=0
note_on channel=0 note=57 velocity=51 time=0
control_change channel=0 control=64 value=0 time=57
note_on channel=0 note=73 velocity=0 time=63
note_on channel=0 note=76 velocity=64 time=0
control_change channel=0 control=64 value=127 time=28
<meta message set_tempo tempo=461538 time=92>
note_on channel=0 note=76 velocity=0 time=0
note_on channel=0 note=74 velocity=60 time=0
note_on channel=0 note=74 velocity=0 time=120
note_on channel=0 note=73 velocity=61 time=0
<meta message set_tempo tempo=454545 time=120>
note_on channel=0 note=73 velocity=0 time=0
note_on channel=0 note=57 velocity=0 time=0
note_on channel=0 note=74 velocity=62 time=0
note_on channel=0 note=54 velocity=40 time=0
note_on channel=0 note=57 velocity=48 time=0
control_change channel=0 control=64 value=0 time=10
control_change channel=0 control=64 value=127 time=70
note_on channel=0 note=74 velocity=0 time=40
note_on channel=0 note=76 velocity=63 time=0
note_on channel=0 note=76 velocity=0 time=120
note_on channel=0 note=78 velocity=64 time=0
note_on channel=0 note=78 velocity=0 time=120
note_on channel=0 note=80 velocity=66 time=0
<meta message set_tempo tempo=461538 time=120>
note_on channel=0 note=80 velocity=0 time=0
note_on channel=0 note=57 velocity=0 time=0
note_on channel=0 note=54 velocity=0 time=0
note_on channel=0 note=81 velocity=67 time=0
note_on channel=0 note=50 velocity=44 time=0
note_on channel=0 note=54 velocity=44 time=0
note_on channel=0 note=57 velocity=52 time=0
control_change channel=0 control=64 value=0 time=8
control_change channel=0 control=64 value=127 time=32
note_on channel=0 note=81 velocity=0 time=80
note_on channel=0 note=83 velocity=68 time=0
note_on channel=0 note=83 velocity=0 time=120
note_on channel=0 note=85 velocity=70 time=0
note_on channel=0 note=85 velocity=0 time=120
note_on channel=0 note=86 velocity=71 time=0
<meta message set_tempo tempo=454545 time=76>
note_on channel=0 note=86 velocity=0 time=44
note_on channel=0 note=57 velocity=0 time=0
note_on channel=0 note=54 velocity=0 time=0
note_on channel=0 note=50 velocity=0 time=0
note_on channel=0 note=88 velocity=72 time=0
note_on channel=0 note=49 velocity=47 time=0
note_on channel=0 note=52 velocity=47 time=0
note_on channel=0 note=57 velocity=56 time=0
control_change channel=0 control=64 value=0 time=9
control_change channel=0 control=64 value=127 time=54
note_on channel=0 note=88 velocity=0 time=57
note_on channel=0 note=86 velocity=71 time=0
<meta message set_tempo tempo=451128 time=4>
note_on channel=0 note=86 velocity=0 time=116
note_on channel=0 note=85 velocity=69 time=0
<meta message set_tempo tempo=447761 time=28>
note_on channel=0 note=85 velocity=0 time=92
note_on channel=0 note=83 velocity=68 time=0
<meta message set_tempo tempo=444444 time=52>
note_on channel=0 note=83 velocity=0 time=68
note_on channel=0 note=57 velocity=0 time=0
note_on channel=0 note=52 velocity=0 time=0
note_on channel=0 note=49 velocity=0 time=0
note_on channel=0 note=81 velocity=66 time=0
control_change channel=0 control=64 value=0 time=10
note_on channel=0 note=81 velocity=0 time=110
note_on channel=0 note=80 velocity=65 time=0
control_change channel=0 control=64 value=127 time=0
note_on channel=0 note=80 velocity=0 time=120
note_on channel=0 note=78 velocity=63 time=0
note_on channel=0 note=78 velocity=0 time=120
note_on channel=0 note=76 velocity=62 time=0
<meta message set_tempo tempo=437956 time=76>
note_on channel=0 note=76 velocity=0 time=44
note_on channel=0 note=74 velocity=60 time=0
control_change channel=0 control=64 value=0 time=10
<meta message set_tempo tempo=441176 time=18>
<meta message set_tempo tempo=444444 time=48>
control_change channel=0 control=64 value=127 time=4
note_on channel=0 note=74 velocity=0 time=40
note_on channel=0 note=73 velocity=59 time=0
<meta message set_tempo tempo=447761 time=4>
<meta message set_tempo tempo=451128 time=72>
note_on channel=0 note=73 velocity=0 time=44
note_on channel=0 note=71 velocity=57 time=0
<meta message set_tempo tempo=454545 time=4>
<meta message set_tempo tempo=458015 time=48>
<meta message set_tempo tempo=461538 time=48>
<meta message set_tempo tempo=545455 time=20>
note_on channel=0 note=71 velocity=0 time=0
note_on channel=0 note=69 velocity=56 time=0
<meta message set_tempo tempo=495868 time=120>
note_on channel=0 note=69 velocity=0 time=0
note_on channel=0 note=78 velocity=59 time=0
note_on channel=0 note=50 velocity=38 time=0
note_on channel=0 note=59 velocity=45 time=0
control_change channel=0 control=64 value=0 time=9
control_change channel=0 control=64 value=127 time=27
note_on channel=0 note=78 velocity=0 time=44
note_on channel=0 note=80 velocity=55 time=0
note_on channel=0 note=80 velocity=0 time=80
note_on channel=0 note=78 velocity=59 time=0
note_on channel=0 note=78 velocity=0 time=80
note_on channel=0 note=77 velocity=59 time=0
note_on channel=0 note=77 velocity=0 time=60
note_on channel=0 note=78 velocity=55 time=0
note_on channel=0 note=78 velocity=0 time=60
note_on channel=0 note=80 velocity=55 time=0
note_on channel=0 note=80 velocity=0 time=60
note_on channel=0 note=81 velocity=55 time=0
<meta message set_tempo tempo=508475 time=60>
note_on channel=0 note=81 velocity=0 time=0
note_on channel=0 note=59 velocity=0 time=0
note_on channel=0 note=50 velocity=0 time=0
note_on channel=0 note=69 velocity=59 time=0
note_on channel=0 note=52 velocity=33 time=0
note_on channel=0 note=61 velocity=39 time=0
control_change channel=0 control=64 value=0 time=10
control_change channel=0 control=64 value=127 time=61
<meta message set_tempo tempo=582524 time=289>
note_on channel=0 note=69 velocity=0 time=60
note_on channel=0 note=73 velocity=50 time=0
<meta message set_tempo tempo=508475 time=60>
note_on channel=0 note=73 velocity=0 time=0
note_on channel=0 note=61 velocity=0 time=0
note_on channel=0 note=68 velocity=53 time=0
note_on channel=0 note=71 velocity=53 time=0
note_on channel=0 note=62 velocity=39 time=0
control_change channel=0 control=64 value=0 time=10
control_change channel=0 control=64 value=127 time=75
<meta message set_tempo tempo=550459 time=395>
note_on channel=0 note=62 velocity=0 time=0
note_on channel=0 note=52 velocity=0 time=0
note_on channel=0 note=68 velocity=0 time=0
note_on channel=0 note=71 velocity=0 time=0
note_on channel=0 note=69 velocity=51 time=0
note_on channel=0 note=57 velocity=35 time=0
note_on channel=0 note=61 velocity=42 time=0
control_change channel=0 control=64 value=0 time=0
note_on channel=0 note=61 velocity=0 time=480
note_on channel=0 note=57 velocity=0 time=0
note_on channel=0 note=69 velocity=0 time=0
note_on channel=0 note=45 velocity=35 time=0
note_on channel=0 note=45 velocity=0 time=480
<meta message set_tempo tempo=540541 time=420>
note_on channel=0 note=64 velocity=61 time=0
control_change channel=0 control=64 value=127 time=11
<meta message set_tempo tempo=476190 time=49>
note_on channel=0 note=76 velocity=74 time=0
note_on channel=0 note=64 velocity=0 time=60
note_on channel=0 note=76 velocity=0 time=360
note_on channel=0 note=66 velocity=61 time=0
control_change channel=0 control=64 value=0 time=6
<meta message set_tempo tempo=468750 time=54>
note_on channel=0 note=78 velocity=70 time=0
control_change channel=0 control=64 value=127 time=20
note_on channel=0 note=66 velocity=0 time=40
note_on channel=0 note=78 velocity=0 time=360
note_on channel=0 note=67 velocity=61 time=0
control_change channel=0 control=64 value=0 time=5
control_change channel=0 control=64 value=127 time=41
<meta message set_tempo tempo=472441 time=14>
note_on channel=0 note=79 velocity=70 time=0
note_on channel=0 note=67 velocity=0 time=60
<meta message set_tempo tempo=491803 time=180>
<meta message set_tempo tempo=472441 time=240>
note_on channel=0 note=79 velocity=0 time=0
note_on channel=0 note=71 velocity=56 time=0
note_on channel=0 note=54 velocity=47 time=0
control_change channel=0 control=64 value=0 time=0
control_change channel=0 control=64 value=127 time=92
note_on channel=0 note=54 velocity=0 time=148
note_on channel=0 note=61 velocity=39 time=0
<meta message set_tempo tempo=465116 time=240>
note_on channel=0 note=61 velocity=0 time=0
note_on channel=0 note=71 velocity=0 time=0
note_on channel=0 note=70 velocity=52 time=0
note_on channel=0 note=66 velocity=39 time=0
control_change channel=0 control=64 value=0 time=9
control_change channel=0 control=64 value=127 time=76
note_on channel=0 note=66 velocity=0 time=155
note_on channel=0 note=64 velocity=39 time=0
<meta message set_tempo tempo=468750 time=240>
note_on channel=0 note=64 velocity=0 time=0
note_on channel=0 note=70 velocity=0 time=0
note_on channel=0 note=62 velocity=39 time=0
control_change channel=0 control=64 value=0 time=7
control_change channel=0 control=64 value=127 time=120
<meta message set_tempo tempo=483871 time=113>
note_on channel=0 note=62 velocity=0 time=0
note_on channel=0 note=61 velocity=39 time=0
note_on channel=0 note=70 velocity=51 time=120
<meta message set_tempo tempo=472441 time=120>
note_on channel=0 note=70 velocity=0 time=0
note_on channel=0 note=61 velocity=0 time=0
note_on channel=0 note=73 velocity=57 time=0
note_on channel=0 note=54 velocity=47 time=0
control_change channel=0 control=64 value=0 time=10
control_change channel=0 control=64 value=127 time=54
note_on channel=0 note=54 velocity=0 time=176
note_on channel=0 note=62 velocity=42 time=0
<meta message set_tempo tempo=461538 time=240>
note_on channel=0 note=62 velocity=0 time=0
note_on channel=0 note=73 velocity=0 time=0
note_on channel=0 note=71 velocity=56 time=0
note_on channel=0 note=66 velocity=42 time=0
control_change channel=0 control=64 value=0 time=7
control_change channel=0 control=64 value=127 time=57
note_on channel=0 note=66 velocity=0 time=176
note_on channel=0 note=62 velocity=42 time=0
<meta message set_tempo tempo=472441 time=240>
note_on channel=0 note=62 velocity=0 time=0
note_on channel=0 note=71 velocity=0 time=0
note_on channel=0 note=61 velocity=42 time=0
control_change channel=0 control=64 value=0 time=9
control_change channel=0 control=64 value=127 time=118
note_on channel=0 note=61 velocity=0 time=113
note_on channel=0 note=59 velocity=42 time=0
note_on channel=0 note=71 velocity=63 time=120
<meta message set_tempo tempo=458015 time=120>
note_on channel=0 note=71 velocity=0 time=0
note_on channel=0 note=59 velocity=0 time=0
note_on channel=0 note=74 velocity=66 time=0
note_on channel=0 note=54 velocity=56 time=0
control_change channel=0 control=64 value=0 time=11
control_change channel=0 control=64 value=127 time=65
<meta message set_tempo tempo=472441 time=164>
note_on channel=0 note=54 velocity=0 time=0
note_on channel=0 note=58 velocity=47 time=0
note_on channel=0 note=58 velocity=0 time=240
note_on channel=0 note=74 velocity=0 time=0
note_on channel=0 note=73 velocity=60 time=0
note_on channel=0 note=64 velocity=47 time=0
control_change channel=0 control=64 value=0 time=10
control_change channel=0 control=64 value=127 time=75
note_on channel=0 note=64 velocity=0 time=155
note_on channel=0 note=61 velocity=47 time=0
note_on channel=0 note=61 velocity=0 time=240
note_on channel=0 note=73 velocity=0 time=0
note_on channel=0 note=59 velocity=47 time=0
control_change channel=0 control=64 value=0 time=10
control_change channel=0 control=64 value=127 time=54
note_on channel=0 note=59 velocity=0 time=176
note_on channel=0 note=58 velocity=47 time=0
note_on channel=0 note=73 velocity=68 time=120
<meta message set_tempo tempo=454545 time=120>
note_on channel=0 note=73 velocity=0 time=0
note_on channel=0 note=58 velocity=0 time=0
note_on channel=0 note=76 velocity=72 time=0
note_on channel=0 note=59 velocity=57 time=0
control_change channel=0 control=64 value=0 time=0
control_change channel=0 control=64 value=127 time=103
<meta message set_tempo tempo=476190 time=137>
note_on channel=0 note=76 velocity=0 time=0
note_on channel=0 note=74 velocity=68 time=0
<meta message set_tempo tempo=461538 time=240>
note_on channel=0 note=74 velocity=0 time=0
note_on channel=0 note=59 velocity=0 time=0
note_on channel=0 note=77 velocity=72 time=0
control_change channel=0 control=64 value=0 time=8
control_change channel=0 control=64 value=127 time=95
<meta message set_tempo tempo=472441 time=137>
note_on channel=0 note=77 velocity=0 time=0
note_on channel=0 note=76 velocity=67 time=0
<meta message set_tempo tempo=465116 time=240>
note_on channel=0 note=76 velocity=0 time=0
note_on channel=0 note=79 velocity=70 time=0
control_change channel=0 control=64 value=0 time=4
control_change channel=0 control=64 value=127 time=91
<meta message set_tempo tempo=472441 time=145>
note_on channel=0 note=79 velocity=0 time=0
note_on channel=0 note=77 velocity=66 time=0
<meta message set_tempo tempo=461538 time=240>
note_on channel=0 note=77 velocity=0 time=0
note_on channel=0 note=69 velocity=56 time=0
note_on channel=0 note=52 velocity=47 time=0
control_change channel=0 control=64 value=0 time=0
control_change channel=0 control=64 value=127 time=92
<meta message set_tempo tempo=472441 time=148>
note_on channel=0 note=52 velocity=0 time=0
note_on channel=0 note=59 velocity=39 time=0
<meta message set_tempo tempo=458015 time=240>
note_on channel=0 note=59 velocity=0 time=0
note_on channel=0 note=69 velocity=0 time=0
note_on channel=0 note=68 velocity=52 time=0
note_on channel=0 note=64 velocity=39 time=0
control_change channel=0 control=64 value=0 time=9
control_change channel=0 control=64 value=127 time=76
<meta message set_tempo tempo=461538 time=155>
note_on channel=0 note=64 velocity=0 time=0
note_on channel=0 note=62 velocity=39 time=0
<meta message set_tempo tempo=468750 time=240>
note_on channel=0 note=62 velocity=0 time=0
note_on channel=0 note=68 velocity=0 time=0
note_on channel=0 note=60 velocity=39 time=0
control_change channel=0 control=64 value=0 time=7
control_change channel=0 control=64 value=127 time=120
<meta message set_tempo tempo=483871 time=113>
note_on channel=0 note=60 velocity=0 time=0
note_on channel=0 note=59 velocity=39 time=0
note_on channel=0 note=68 velocity=51 time=120
<meta message set_tempo tempo=472441 time=120>
note_on channel=0 note=68 velocity=0 time=0
note_on channel=0 note=59 velocity=0 time=0
note_on channel=0 note=71 velocity=57 time=0
note_on channel=0 note=52 velocity=47 time=0
control_change channel=0 control=64 value=0 time=10
control_change channel=0 control=64 value=127 time=54
note_on channel=0 note=52 velocity=0 time=176
note_on channel=0 note=60 velocity=42 time=0
<meta message set_tempo tempo=461538 time=240>
note_on channel=0 note=60 velocity=0 time=0
note_on channel=0 note=71 velocity=0 time=0
note_on channel=0 note=69 velocity=56 time=0
note_on channel=0 note=64 velocity=42 time=0
control_change channel=0 control=64 value=0 time=7
control_change channel=0 control=64 value=127 time=57
note_on channel=0 note=64 velocity=0 time=176
note_on channel=0 note=60 velocity=42 time=0
<meta message set_tempo tempo=472441 time=240>
note_on channel=0 note=60 velocity=0 time=0
note_on channel=0 note=69 velocity=0 time=0
note_on channel=0 note=59 velocity=42 time=0
control_change channel=0 control=64 value=0 time=9
control_change channel=0 control=64 value=127 time=118
note_on channel=0 note=59 velocity=0 time=113
note_on channel=0 note=57 velocity=42 time=0
note_on channel=0 note=69 velocity=63 time=120
<meta message set_tempo tempo=472441 time=120>
note_on channel=0 note=69 velocity=0 time=0
note_on channel=0 note=57 velocity=0 time=0
note_on channel=0 note=72 velocity=66 time=0
note_on channel=0 note=52 velocity=56 time=0
control_change channel=0 control=64 value=0 time=11
control_change channel=0 control=64 value=127 time=65
note_on channel=0 note=52 velocity=0 time=164
note_on channel=0 note=56 velocity=47 time=0
<meta message set_tempo tempo=465116 time=240>
note_on channel=0 note=56 velocity=0 time=0
note_on channel=0 note=72 velocity=0 time=0
note_on channel=0 note=71 velocity=60 time=0
note_on channel=0 note=62 velocity=47 time=0
control_change channel=0 control=64 value=0 time=10
control_change channel=0 control=64 value=127 time=75
note_on channel=0 note=62 velocity=0 time=155
note_on channel=0 note=59 velocity=47 time=0
<meta message set_tempo tempo=472441 time=240>
note_on channel=0 note=59 velocity=0 time=0
note_on channel=0 note=71 velocity=0 time=0
note_on channel=0 note=57 velocity=47 time=0
control_change channel=0 control=64 value=0 time=10
control_change channel=0 control=64 value=127 time=54
note_on channel=0 note=57 velocity=0 time=176
note_on channel=0 note=56 velocity=47 time=0
note_on channel=0 note=71 velocity=68 time=120
<meta message set_tempo tempo=461538 time=120>
note_on channel=0 note=71 velocity=0 time=0
note_on channel=0 note=56 velocity=0 time=0
note_on channel=0 note=74 velocity=72 time=0
note_on channel=0 note=57 velocity=57 time=0
control_change channel=0 control=64 value=0 time=0
control_change channel=0 control=64 value=127 time=103
<meta message set_tempo tempo=476190 time=137>
note_on channel=0 note=74 velocity=0 time=0
note_on channel=0 note=72 velocity=68 time=0
<meta message set_tempo tempo=461538 time=240>
note_on channel=0 note=72 velocity=0 time=0
note_on channel=0 note=71 velocity=72 time=0
control_change channel=0 control=64 value=0 time=8
control_change channel=0 control=64 value=127 time=95
<meta message set_tempo tempo=472441 time=137>
note_on channel=0 note=71 velocity=0 time=0
note_on channel=0 note=69 velocity=67 time=0
<meta message set_tempo tempo=465116 time=240>
note_on channel=0 note=69 velocity=0 time=0
note_on channel=0 note=57 velocity=0 time=0
note_on channel=0 note=81 velocity=73 time=0
note_on channel=0 note=43 velocity=69 time=0
note_on channel=0 note=55 velocity=69 time=0
control_change channel=0 control=64 value=0 time=4
control_change channel=0 control=64 value=127 time=91
note_on channel=0 note=81 velocity=0 time=85
<meta message set_tempo tempo=472441 time=60>
note_on channel=0 note=81 velocity=70 time=0
note_on channel=0 note=81 velocity=0 time=180
control_change channel=0 control=64 value=0 time=3
<meta message set_tempo tempo=461538 time=57>
note_on channel=0 note=55 velocity=0 time=0
note_on channel=0 note=43 velocity=0 time=0
note_on channel=0 note=83 velocity=78 time=0
note_on channel=0 note=41 velocity=72 time=0
note_on channel=0 note=53 velocity=72 time=0
control_change channel=0 control=64 value=127 time=35
<meta message set_tempo tempo=472441 time=205>
note_on channel=0 note=83 velocity=0 time=0
note_on channel=0 note=81 velocity=78 time=0
note_on channel=0 note=81 velocity=0 time=240
note_on channel=0 note=79 velocity=77 time=0
note_on channel=0 note=79 velocity=0 time=240
note_on channel=0 note=77 velocity=75 time=0
note_on channel=0 note=77 velocity=0 time=240
note_on channel=0 note=53 velocity=0 time=0
note_on channel=0 note=41 velocity=0 time=0
note_on channel=0 note=76 velocity=79 time=0
control_change channel=0 control=64 value=0 time=5
<meta message set_tempo tempo=512821 time=235>
note_on channel=0 note=76 velocity=0 time=0
note_on channel=0 note=75 velocity=75 time=0
<meta message set_tempo tempo=468750 time=240>
note_on channel=0 note=75 velocity=0 time=0
note_on channel=0 note=84 velocity=81 time=0
note_on channel=0 note=57 velocity=61 time=0
note_on channel=0 note=53 velocity=61 time=0
note_on channel=0 note=57 velocity=0 time=240
note_on channel=0 note=56 velocity=42 time=0
note_on channel=0 note=56 velocity=0 time=240
note_on channel=0 note=57 velocity=46 time=0
note_on channel=0 note=57 velocity=0 time=240
note_on channel=0 note=60 velocity=41 time=0
<meta message set_tempo tempo=487805 time=240>
note_on channel=0 note=60 velocity=0 time=0
note_on channel=0 note=84 velocity=0 time=0
note_on channel=0 note=75 velocity=55 time=0
note_on channel=0 note=59 velocity=46 time=0
control_change channel=0 control=64 value=0 time=9
control_change channel=0 control=64 value=127 time=140
note_on channel=0 note=59 velocity=0 time=91
note_on channel=0 note=57 velocity=41 time=0
<meta message set_tempo tempo=468750 time=240>
note_on channel=0 note=57 velocity=0 time=0
note_on channel=0 note=75 velocity=0 time=0
note_on channel=0 note=53 velocity=0 time=0
note_on channel=0 note=76 velocity=55 time=0
note_on channel=0 note=52 velocity=57 time=0
note_on channel=0 note=56 velocity=57 time=0
control_change channel=0 control=64 value=0 time=0
note_on channel=0 note=56 velocity=0 time=480
note_on channel=0 note=52 velocity=0 time=0
<meta message set_tempo tempo=483871 time=240>
note_on channel=0 note=76 velocity=0 time=0
note_on channel=0 note=78 velocity=57 time=0
note_on channel=0 note=78 velocity=0 time=120
note_on channel=0 note=76 velocity=46 time=0
note_on channel=0 note=76 velocity=0 time=114
<meta message set_tempo tempo=472441 time=6>
note_on channel=0 note=76 velocity=55 time=0
note_on channel=0 note=76 velocity=0 time=120
note_on channel=0 note=74 velocity=53 time=0
<meta message set_tempo tempo=487805 time=120>
note_on channel=0 note=74 velocity=0 time=0
note_on channel=0 note=73 velocity=52 time=0
<meta message set_tempo tempo=521739 time=120>
note_on channel=0 note=73 velocity=0 time=0
note_on channel=0 note=71 velocity=51 time=0
<meta message set_tempo tempo=530973 time=120>
note_on channel=0 note=71 velocity=0 time=0
note_on channel=0 note=61 velocity=64 time=0
<meta message text text='bdca426d104a26ac9dcb070447587523' time=0>
control_change channel=0 control=91 value=127 time=0
control_change channel=0 control=64 value=127 time=39
note_on channel=0 note=61 velocity=0 time=21
note_on channel=0 note=64 velocity=64 time=0
note_on channel=0 note=64 velocity=0 time=60
note_on channel=0 note=69 velocity=76 time=0
note_on channel=0 note=45 velocity=59 time=0
note_on channel=0 note=57 velocity=70 time=0
<meta message set_tempo tempo=476190 time=840>
note_on channel=0 note=57 velocity=0 time=0
note_on channel=0 note=45 velocity=0 time=0
note_on channel=0 note=69 velocity=0 time=0
note_on channel=0 note=64 velocity=70 time=0
note_on channel=0 note=40 velocity=53 time=0
note_on channel=0 note=52 velocity=63 time=0
control_change channel=0 control=64 value=0 time=8
control_change channel=0 control=64 value=127 time=66
<meta message set_tempo tempo=495868 time=406>
note_on channel=0 note=52 velocity=0 time=0
note_on channel=0 note=40 velocity=0 time=0
note_on channel=0 note=64 velocity=0 time=0
note_on channel=0 note=73 velocity=72 time=0
note_on channel=0 note=49 velocity=48 time=0
note_on channel=0 note=61 velocity=57 time=0
control_change channel=0 control=64 value=0 time=10
control_change channel=0 control=64 value=127 time=89
<meta message set_tempo tempo=465116 time=141>
note_on channel=0 note=73 velocity=0 time=0
note_on channel=0 note=74 velocity=74 time=0
note_on channel=0 note=74 velocity=0 time=120
note_on channel=0 note=71 velocity=70 time=0
<meta message set_tempo tempo=480000 time=120>
note_on channel=0 note=71 velocity=0 time=0
note_on channel=0 note=61 velocity=0 time=0
note_on channel=0 note=49 velocity=0 time=0
note_on channel=0 note=69 velocity=70 time=0
note_on channel=0 note=45 velocity=45 time=0
note_on channel=0 note=57 velocity=53 time=0
control_change channel=0 control=64 value=0 time=8
control_change channel=0 control=64 value=127 time=63
note_on channel=0 note=57 velocity=0 time=169
note_on channel=0 note=45 velocity=0 time=0
note_on channel=0 note=69 velocity=0 time=0
control_change channel=0 control=64 value=0 time=14
<meta message set_tempo tempo=472441 time=706>
note_on channel=0 note=73 velocity=50 time=0
control_change channel=0 control=64 value=127 time=50
<meta message set_tempo tempo=476190 time=70>
<meta message set_tempo tempo=480000 time=120>
note_on channel=0 note=73 velocity=0 time=0
note_on channel=0 note=74 velocity=52 time=0
note_on channel=0 note=74 velocity=0 time=120
note_on channel=0 note=71 velocity=46 time=0
note_on channel=0 note=71 velocity=0 time=120
note_on channel=0 note=69 velocity=49 time=0
control_change channel=0 control=64 value=0 time=12
control_change channel=0 control=64 value=127 time=73
<meta message set_tempo tempo=504202 time=155>
<meta message set_tempo tempo=472441 time=240>
note_on channel=0 note=69 velocity=0 time=0
note_on channel=0 note=85 velocity=57 time=0
note_on channel=0 note=57 velocity=40 time=0
note_on channel=0 note=66 velocity=40 time=0
<meta message set_tempo tempo=491803 time=240>
note_on channel=0 note=66 velocity=0 time=0
note_on channel=0 note=57 velocity=0 time=0
note_on channel=0 note=85 velocity=0 time=0
control_change channel=0 control=64 value=0 time=141
<meta message set_tempo tempo=472441 time=99>
note_on channel=0 note=75 velocity=50 time=0
note_on channel=0 note=59 velocity=40 time=0
note_on channel=0 note=69 velocity=40 time=0
note_on channel=0 note=69 velocity=0 time=480
note_on channel=0 note=59 velocity=0 time=0
note_on channel=0 note=75 velocity=0 time=0
note_on channel=0 note=76 velocity=52 time=0
note_on channel=0 note=64 velocity=40 time=0
note_on channel=0 note=68 velocity=40 time=0
control_change channel=0 control=64 value=127 time=183
note_on channel=0 note=68 velocity=0 time=297
note_on channel=0 note=64 velocity=0 time=0
note_on channel=0 note=76 velocity=0 time=240
note_on channel=0 note=77 velocity=51 time=0
note_on channel=0 note=77 velocity=0 time=220
<meta message set_tempo tempo=458015 time=20>
note_on channel=0 note=80 velocity=57 time=0
control_change channel=0 control=64 value=0 time=0
<meta message set_tempo tempo=472441 time=240>
note_on channel=0 note=80 velocity=0 time=0
note_on channel=0 note=78 velocity=56 time=0
<meta message set_tempo tempo=461538 time=240>
note_on channel=0 note=78 velocity=0 time=0
note_on channel=0 note=76 velocity=54 time=0
<meta message set_tempo tempo=472441 time=240>
note_on channel=0 note=76 velocity=0 time=0
note_on channel=0 note=74 velocity=53 time=0
note_on channel=0 note=74 velocity=0 time=240
note_on channel=0 note=73 velocity=52 time=0
<meta message set_tempo tempo=491803 time=240>
note_on channel=0 note=73 velocity=0 time=0
note_on channel=0 note=71 velocity=51 time=0
<meta message set_tempo tempo=472441 time=240>
note_on channel=0 note=71 velocity=0 time=0
note_on channel=0 note=69 velocity=51 time=0
note_on channel=0 note=52 velocity=39 time=0
control_change channel=0 control=64 value=127 time=57
<meta message set_tempo tempo=458015 time=183>
note_on channel=0 note=52 velocity=0 time=0
note_on channel=0 note=69 velocity=0 time=0
note_on channel=0 note=68 velocity=46 time=0
note_on channel=0 note=62 velocity=33 time=0
<meta message set_tempo tempo=454545 time=240>
note_on channel=0 note=62 velocity=0 time=0
note_on channel=0 note=68 velocity=0 time=0
note_on channel=0 note=76 velocity=53 time=0
note_on channel=0 note=59 velocity=33 time=0
control_change channel=0 control=64 value=0 time=6
control_change channel=0 control=64 value=127 time=85
<meta message set_tempo tempo=461538 time=149>
note_on channel=0 note=59 velocity=0 time=0
note_on channel=0 note=76 velocity=0 time=0
note_on channel=0 note=74 velocity=51 time=0
note_on channel=0 note=62 velocity=28 time=0
<meta message set_tempo tempo=472441 time=240>
note_on channel=0 note=62 velocity=0 time=0
note_on channel=0 note=74 velocity=0 time=0
note_on channel=0 note=59 velocity=31 time=0
control_change channel=0 control=64 value=0 time=10
control_change channel=0 control=64 value=127 time=103
<meta message set_tempo tempo=472441 time=127>
note_on channel=0 note=59 velocity=0 time=0
note_on channel=0 note=62 velocity=29 time=0
<meta message set_tempo tempo=472441 time=240>
note_on channel=0 note=62 velocity=0 time=0
note_on channel=0 note=71 velocity=57 time=0
note_on channel=0 note=52 velocity=40 time=0
control_change channel=0 control=64 value=0 time=9
control_change channel=0 control=64 value=127 time=147
<meta message set_tempo tempo=465116 time=84>
note_on channel=0 note=52 velocity=0 time=0
note_on channel=0 note=71 velocity=0 time=0
note_on channel=0 note=69 velocity=53 time=0
note_on channel=0 note=61 velocity=34 time=0
<meta message set_tempo tempo=454545 time=240>
note_on channel=0 note=61 velocity=0 time=0
note_on channel=0 note=69 velocity=0 time=0
note_on channel=0 note=78 velocity=57 time=0
note_on channel=0 note=57 velocity=34 time=0
control_change channel=0 control=64 value=0 time=7
control_change channel=0 control=64 value=127 time=120
<meta message set_tempo tempo=465116 time=113>
note_on channel=0 note=57 velocity=0 time=0
note_on channel=0 note=78 velocity=0 time=0
note_on channel=0 note=76 velocity=56 time=0
note_on channel=0 note=61 velocity=30 time=0
note_on channel=0 note=61 velocity=0 time=240
note_on channel=0 note=76 velocity=0 time=0
note_on channel=0 note=57 velocity=32 time=0
control_change channel=0 control=64 value=0 time=9
control_change channel=0 control=64 value=127 time=104
<meta message set_tempo tempo=472441 time=127>
note_on channel=0 note=57 velocity=0 time=0
note_on channel=0 note=61 velocity=28 time=0
<meta message set_tempo tempo=468750 time=240>
note_on channel=0 note=61 velocity=0 time=0
note_on channel=0 note=71 velocity=63 time=0
note_on channel=0 note=52 velocity=42 time=0
control_change channel=0 control=64 value=0 time=6
control_change channel=0 control=64 value=127 time=143
<meta message set_tempo tempo=487805 time=91>
note_on channel=0 note=52 velocity=0 time=0
note_on channel=0 note=71 velocity=0 time=0
note_on channel=0 note=69 velocity=59 time=0
note_on channel=0 note=61 velocity=36 time=0
<meta message set_tempo tempo=458015 time=240>
note_on channel=0 note=61 velocity=0 time=0
note_on channel=0 note=69 velocity=0 time=0
note_on channel=0 note=81 velocity=62 time=0
note_on channel=0 note=57 velocity=36 time=0
control_change channel=0 control=64 value=0 time=7
control_change channel=0 control=64 value=127 time=85
<meta message set_tempo tempo=468750 time=148>
note_on channel=0 note=57 velocity=0 time=0
note_on channel=0 note=81 velocity=0 time=0
note_on channel=0 note=79 velocity=59 time=0
note_on channel=0 note=61 velocity=34 time=0
<meta message set_tempo tempo=468750 time=240>
note_on channel=0 note=61 velocity=0 time=0
note_on channel=0 note=79 velocity=0 time=0
note_on channel=0 note=57 velocity=36 time=0
control_change channel=0 control=64 value=0 time=6
control_change channel=0 control=64 value=127 time=109
note_on channel=0 note=57 velocity=0 time=125
note_on channel=0 note=61 velocity=34 time=0
<meta message set_tempo tempo=465116 time=240>
note_on channel=0 note=61 velocity=0 time=0
note_on channel=0 note=79 velocity=55 time=0
note_on channel=0 note=50 velocity=28 time=0
note_on channel=0 note=57 velocity=28 time=0
note_on channel=0 note=62 velocity=34 time=0
control_change channel=0 control=64 value=0 time=0
<meta message set_tempo tempo=472441 time=240>
note_on channel=0 note=79 velocity=0 time=0
note_on channel=0 note=78 velocity=52 time=0
note_on channel=0 note=78 velocity=0 time=240
note_on channel=0 note=62 velocity=0 time=0
note_on channel=0 note=57 velocity=0 time=0
note_on channel=0 note=50 velocity=0 time=0
note_on channel=0 note=76 velocity=51 time=0
note_on channel=0 note=76 velocity=0 time=240
note_on channel=0 note=74 velocity=50 time=0
note_on channel=0 note=74 velocity=0 time=240
note_on channel=0 note=73 velocity=49 time=0
<meta message set_tempo tempo=491803 time=240>
note_on channel=0 note=73 velocity=0 time=0
note_on channel=0 note=71 velocity=47 time=0
note_on channel=0 note=71 velocity=0 time=240
note_on channel=0 note=76 velocity=49 time=0
note_on channel=0 note=49 velocity=40 time=0
control_change channel=0 control=64 value=127 time=44
<meta message set_tempo tempo=465116 time=76>
note_on channel=0 note=76 velocity=0 time=0
note_on channel=0 note=78 velocity=45 time=0
note_on channel=0 note=78 velocity=0 time=40
note_on channel=0 note=76 velocity=45 time=0
note_on channel=0 note=76 velocity=0 time=40
note_on channel=0 note=74 velocity=45 time=0
note_on channel=0 note=74 velocity=0 time=40
note_on channel=0 note=76 velocity=51 time=0
<meta message set_tempo tempo=550459 time=120>
note_on channel=0 note=76 velocity=0 time=0
note_on channel=0 note=49 velocity=0 time=0
note_on channel=0 note=78 velocity=52 time=0
note_on channel=0 note=50 velocity=33 time=0
control_change channel=0 control=64 value=0 time=12
<meta message set_tempo tempo=487805 time=108>
note_on channel=0 note=50 velocity=0 time=0
note_on channel=0 note=78 velocity=0 time=0
note_on channel=0 note=69 velocity=51 time=0
note_on channel=0 note=52 velocity=38 time=0
note_on channel=0 note=61 velocity=38 time=0
note_on channel=0 note=61 velocity=0 time=480
note_on channel=0 note=69 velocity=0 time=0
note_on channel=0 note=68 velocity=48 time=0
note_on channel=0 note=59 velocity=32 time=0
<meta message set_tempo tempo=476190 time=300>
note_on channel=0 note=69 velocity=66 time=60
note_on channel=0 note=69 velocity=0 time=60
note_on channel=0 note=73 velocity=67 time=0
<meta message set_tempo tempo=468750 time=60>
note_on channel=0 note=73 velocity=0 time=0
note_on channel=0 note=59 velocity=0 time=0
note_on channel=0 note=68 velocity=0 time=0
note_on channel=0 note=52 velocity=0 time=0
note_on channel=0 note=76 velocity=67 time=0
note_on channel=0 note=57 velocity=54 time=0
control_change channel=0 control=64 value=127 time=127
note_on channel=0 note=57 velocity=0 time=113
note_on channel=0 note=61 velocity=46 time=0
<meta message set_tempo tempo=465116 time=240>
note_on channel=0 note=61 velocity=0 time=0
note_on channel=0 note=76 velocity=0 time=0
note_on channel=0 note=76 velocity=69 time=0
note_on channel=0 note=64 velocity=50 time=0
note_on channel=0 note=64 velocity=0 time=240
note_on channel=0 note=61 velocity=46 time=0
<meta message set_tempo tempo=468750 time=240>
note_on channel=0 note=61 velocity=0 time=0
note_on channel=0 note=59 velocity=50 time=0
control_change channel=0 control=64 value=0 time=7
note_on channel=0 note=59 velocity=0 time=233
note_on channel=0 note=57 velocity=45 time=0
<meta message set_tempo tempo=461538 time=240>
note_on channel=0 note=57 velocity=0 time=0
note_on channel=0 note=76 velocity=0 time=0
note_on channel=0 note=76 velocity=65 time=0
note_on channel=0 note=56 velocity=54 time=0
control_change channel=0 control=64 value=127 time=57
note_on channel=0 note=76 velocity=0 time=63
note_on channel=0 note=74 velocity=64 time=0
<meta message set_tempo tempo=454545 time=120>
note_on channel=0 note=74 velocity=0 time=0
note_on channel=0 note=56 velocity=0 time=0
note_on channel=0 note=73 velocity=63 time=0
note_on channel=0 note=57 velocity=45 time=0
note_on channel=0 note=73 velocity=0 time=120
note_on channel=0 note=71 velocity=63 time=0
note_on channel=0 note=71 velocity=0 time=109
<meta message set_tempo tempo=458015 time=11>
note_on channel=0 note=57 velocity=0 time=0
note_on channel=0 note=71 velocity=64 time=0
note_on channel=0 note=59 velocity=45 time=0
control_change channel=0 control=64 value=0 time=10
control_change channel=0 control=64 value=127 time=65
note_on channel=0 note=71 velocity=0 time=45
note_on channel=0 note=69 velocity=63 time=0
note_on channel=0 note=69 velocity=0 time=120
note_on channel=0 note=59 velocity=0 time=0
note_on channel=0 note=68 velocity=62 time=0
note_on channel=0 note=52 velocity=45 time=0
note_on channel=0 note=68 velocity=0 time=120
note_on channel=0 note=66 velocity=61 time=0
<meta message set_tempo tempo=468750 time=120>
note_on channel=0 note=66 velocity=0 time=0
note_on channel=0 note=52 velocity=0 time=0
note_on channel=0 note=64 velocity=63 time=0
note_on channel=0 note=54 velocity=48 time=0
control_change channel=0 control=64 value=0 time=10
control_change channel=0 control=64 value=127 time=93
note_on channel=0 note=64 velocity=0 time=17
note_on channel=0 note=62 velocity=60 time=0
<meta message set_tempo tempo=476190 time=120>
note_on channel=0 note=62 velocity=0 time=0
note_on channel=0 note=54 velocity=0 time=0
note_on channel=0 note=61 velocity=60 time=0
note_on channel=0 note=56 velocity=45 time=0
note_on channel=0 note=61 velocity=0 time=120
note_on channel=0 note=62 velocity=60 time=0
<meta message set_tempo tempo=465116 time=120>
note_on channel=0 note=62 velocity=0 time=0
note_on channel=0 note=56 velocity=0 time=0
note_on channel=0 note=61 velocity=60 time=0
note_on channel=0 note=57 velocity=54 time=0
control_change channel=0 control=64 value=0 time=57
note_on channel=0 note=61 velocity=0 time=63
note_on channel=0 note=64 velocity=62 time=0
control_change channel=0 control=64 value=127 time=28
note_on channel=0 note=64 velocity=0 time=92
note_on channel=0 note=57 velocity=0 time=0
note_on channel=0 note=69 velocity=63 time=0
note_on channel=0 note=61 velocity=46 time=0
note_on channel=0 note=69 velocity=0 time=120
note_on channel=0 note=73 velocity=64 time=0
<meta message set_tempo tempo=454545 time=120>
note_on channel=0 note=73 velocity=0 time=0
note_on channel=0 note=61 velocity=0 time=0
note_on channel=0 note=76 velocity=65 time=0
note_on channel=0 note=64 velocity=46 time=0
control_change channel=0 control=64 value=0 time=10
note_on channel=0 note=64 velocity=0 time=230
note_on channel=0 note=61 velocity=46 time=0
<meta message set_tempo tempo=461538 time=240>
note_on channel=0 note=61 velocity=0 time=0
note_on channel=0 note=59 velocity=49 time=0
note_on channel=0 note=59 velocity=0 time=240
note_on channel=0 note=76 velocity=0 time=0
note_on channel=0 note=88 velocity=65 time=0
note_on channel=0 note=57 velocity=46 time=0
note_on channel=0 note=88 velocity=0 time=235
<meta message set_tempo tempo=454545 time=5>
note_on channel=0 note=57 velocity=0 time=0
note_on channel=0 note=88 velocity=70 time=0
note_on channel=0 note=56 velocity=52 time=0
control_change channel=0 control=64 value=127 time=57
note_on channel=0 note=88 velocity=0 time=63
note_on channel=0 note=86 velocity=70 time=0
<meta message set_tempo tempo=458015 time=120>
note_on channel=0 note=86 velocity=0 time=0
note_on channel=0 note=56 velocity=0 time=0
note_on channel=0 note=85 velocity=69 time=0
note_on channel=0 note=57 velocity=44 time=0
note_on channel=0 note=85 velocity=0 time=120
note_on channel=0 note=83 velocity=69 time=0
note_on channel=0 note=83 velocity=0 time=110
note_on channel=0 note=57 velocity=0 time=10
note_on channel=0 note=83 velocity=68 time=0
note_on channel=0 note=59 velocity=51 time=0
control_change channel=0 control=64 value=0 time=10
control_change channel=0 control=64 value=127 time=65
note_on channel=0 note=83 velocity=0 time=45
note_on channel=0 note=81 velocity=67 time=0
note_on channel=0 note=81 velocity=0 time=120
note_on channel=0 note=59 velocity=0 time=0
note_on channel=0 note=80 velocity=67 time=0
note_on channel=0 note=52 velocity=44 time=0
note_on channel=0 note=80 velocity=0 time=120
note_on channel=0 note=78 velocity=66 time=0
<meta message set_tempo tempo=468750 time=120>
note_on channel=0 note=78 velocity=0 time=0
note_on channel=0 note=52 velocity=0 time=0
note_on channel=0 note=76 velocity=66 time=0
note_on channel=0 note=54 velocity=50 time=0
control_change channel=0 control=64 value=0 time=10
control_change channel=0 control=64 value=127 time=93
note_on channel=0 note=76 velocity=0 time=17
note_on channel=0 note=74 velocity=65 time=0
<meta message set_tempo tempo=476190 time=120>
note_on channel=0 note=74 velocity=0 time=0
note_on channel=0 note=54 velocity=0 time=0
note_on channel=0 note=73 velocity=65 time=0
note_on channel=0 note=56 velocity=46 time=0
note_on channel=0 note=73 velocity=0 time=120
note_on channel=0 note=74 velocity=64 time=0
<meta message set_tempo tempo=465116 time=120>
note_on channel=0 note=74 velocity=0 time=0
note_on channel=0 note=56 velocity=0 time=0
note_on channel=0 note=73 velocity=63 time=0
note_on channel=0 note=57 velocity=51 time=0
control_change channel=0 control=64 value=0 time=57
note_on channel=0 note=73 velocity=0 time=63
note_on channel=0 note=76 velocity=64 time=0
control_change channel=0 control=64 value=127 time=28
note_on channel=0 note=76 velocity=0 time=92
note_on channel=0 note=74 velocity=60 time=0
note_on channel=0 note=74 velocity=0 time=120
note_on channel=0 note=73 velocity=61 time=0
<meta message set_tempo tempo=454545 time=120>
note_on channel=0 note=73 velocity=0 time=0
note_on channel=0 note=57 velocity=0 time=0
note_on channel=0 note=74 velocity=62 time=0
note_on channel=0 note=54 velocity=40 time=0
note_on channel=0 note=57 velocity=48 time=0
control_change channel=0 control=64 value=0 time=10
control_change channel=0 control=64 value=127 time=70
note_on channel=0 note=74 velocity=0 time=40
note_on channel=0 note=76 velocity=63 time=0
note_on channel=0 note=76 velocity=0 time=120
note_on channel=0 note=78 velocity=64 time=0
note_on channel=0 note=78 velocity=0 time=120
note_on channel=0 note=80 velocity=66 time=0
<meta message set_tempo tempo=461538 time=120>
note_on channel=0 note=80 velocity=0 time=0
note_on channel=0 note=57 velocity=0 time=0
note_on channel=0 note=54 velocity=0 time=0
note_on channel=0 note=81 velocity=67 time=0
note_on channel=0 note=50 velocity=44 time=0
note_on channel=0 note=54 velocity=44 time=0
note_on channel=0 note=57 velocity=52 time=0
control_change channel=0 control=64 value=0 time=8
control_change channel=0 control=64 value=127 time=32
note_on channel=0 note=81 velocity=0 time=80
note_on channel=0 note=83 velocity=68 time=0
note_on channel=0 note=83 velocity=0 time=120
note_on channel=0 note=85 velocity=70 time=0
note_on channel=0 note=85 velocity=0 time=120
note_on channel=0 note=86 velocity=71 time=0
<meta message set_tempo tempo=454545 time=76>
note_on channel=0 note=86 velocity=0 time=44
note_on channel=0 note=57 velocity=0 time=0
note_on channel=0 note=54 velocity=0 time=0
note_on channel=0 note=50 velocity=0 time=0
note_on channel=0 note=88 velocity=72 time=0
note_on channel=0 note=49 velocity=47 time=0
note_on channel=0 note=52 velocity=47 time=0
note_on channel=0 note=57 velocity=56 time=0
control_change channel=0 control=64 value=0 time=9
control_change channel=0 control=64 value=127 time=54
note_on channel=0 note=88 velocity=0 time=57
note_on channel=0 note=86 velocity=71 time=0
<meta message set_tempo tempo=451128 time=4>
note_on channel=0 note=86 velocity=0 time=116
note_on channel=0 note=85 velocity=69 time=0
<meta message set_tempo tempo=447761 time=28>
note_on channel=0 note=85 velocity=0 time=92
note_on channel=0 note=83 velocity=68 time=0
<meta message set_tempo tempo=444444 time=52>
note_on channel=0 note=83 velocity=0 time=68
note_on channel=0 note=57 velocity=0 time=0
note_on channel=0 note=52 velocity=0 time=0
note_on channel=0 note=49 velocity=0 time=0
note_on channel=0 note=81 velocity=66 time=0
control_change channel=0 control=64 value=0 time=10
note_on channel=0 note=81 velocity=0 time=110
note_on channel=0 note=80 velocity=65 time=0
control_change channel=0 control=64 value=127 time=0
note_on channel=0 note=80 velocity=0 time=120
note_on channel=0 note=78 velocity=63 time=0
note_on channel=0 note=78 velocity=0 time=120
note_on channel=0 note=76 velocity=62 time=0
<meta message set_tempo tempo=437956 time=76>
note_on channel=0 note=76 velocity=0 time=44
note_on channel=0 note=74 velocity=60 time=0
control_change channel=0 control=64 value=0 time=10
<meta message set_tempo tempo=441176 time=18>
<meta message set_tempo tempo=444444 time=48>
control_change channel=0 control=64 value=127 time=4
note_on channel=0 note=74 velocity=0 time=40
note_on channel=0 note=73 velocity=59 time=0
<meta message set_tempo tempo=447761 time=4>
<meta message set_tempo tempo=451128 time=72>
note_on channel=0 note=73 velocity=0 time=44
note_on channel=0 note=71 velocity=57 time=0
<meta message set_tempo tempo=454545 time=4>
<meta message set_tempo tempo=458015 time=48>
<meta message set_tempo tempo=461538 time=48>
<meta message set_tempo tempo=545455 time=20>
note_on channel=0 note=71 velocity=0 time=0
note_on channel=0 note=69 velocity=56 time=0
<meta message set_tempo tempo=504202 time=120>
note_on channel=0 note=69 velocity=0 time=0
note_on channel=0 note=78 velocity=59 time=0
note_on channel=0 note=50 velocity=38 time=0
note_on channel=0 note=59 velocity=45 time=0
control_change channel=0 control=64 value=0 time=9
control_change channel=0 control=64 value=127 time=27
note_on channel=0 note=78 velocity=0 time=44
note_on channel=0 note=80 velocity=55 time=0
note_on channel=0 note=80 velocity=0 time=80
note_on channel=0 note=78 velocity=59 time=0
note_on channel=0 note=78 velocity=0 time=80
note_on channel=0 note=77 velocity=59 time=0
note_on channel=0 note=77 velocity=0 time=60
note_on channel=0 note=78 velocity=55 time=0
note_on channel=0 note=78 velocity=0 time=60
note_on channel=0 note=80 velocity=55 time=0
note_on channel=0 note=80 velocity=0 time=60
note_on channel=0 note=81 velocity=55 time=0
<meta message set_tempo tempo=521739 time=60>
note_on channel=0 note=81 velocity=0 time=0
note_on channel=0 note=59 velocity=0 time=0
note_on channel=0 note=50 velocity=0 time=0
note_on channel=0 note=69 velocity=59 time=0
note_on channel=0 note=52 velocity=33 time=0
note_on channel=0 note=61 velocity=39 time=0
control_change channel=0 control=64 value=0 time=10
control_change channel=0 control=64 value=127 time=61
<meta message set_tempo tempo=582524 time=289>
note_on channel=0 note=69 velocity=0 time=60
note_on channel=0 note=73 velocity=50 time=0
<meta message set_tempo tempo=540541 time=60>
note_on channel=0 note=73 velocity=0 time=0
note_on channel=0 note=61 velocity=0 time=0
note_on channel=0 note=71 velocity=53 time=0
note_on channel=0 note=68 velocity=53 time=0
note_on channel=0 note=62 velocity=39 time=0
control_change channel=0 control=64 value=0 time=10
control_change channel=0 control=64 value=127 time=75
note_on channel=0 note=62 velocity=0 time=395
note_on channel=0 note=52 velocity=0 time=0
note_on channel=0 note=71 velocity=0 time=0
note_on channel=0 note=68 velocity=0 time=0
note_on channel=0 note=69 velocity=51 time=0
note_on channel=0 note=57 velocity=35 time=0
note_on channel=0 note=61 velocity=42 time=0
control_change channel=0 control=64 value=0 time=0
note_on channel=0 note=61 velocity=0 time=480
note_on channel=0 note=57 velocity=0 time=0
note_on channel=0 note=69 velocity=0 time=0
note_on channel=0 note=45 velocity=35 time=0
note_on channel=0 note=45 velocity=0 time=480
<meta message key_signature key='D' time=1920>
<meta message set_tempo tempo=566038 time=0>
<meta message marker text='Trio' time=0>
note_on channel=0 note=66 velocity=42 time=0
note_on channel=0 note=69 velocity=50 time=0
note_on channel=0 note=38 velocity=37 time=0
note_on channel=0 note=50 velocity=44 time=0
control_change channel=0 control=64 value=127 time=0
<meta message set_tempo tempo=540541 time=240>
note_on channel=0 note=69 velocity=0 time=0
note_on channel=0 note=66 velocity=0 time=0
note_on channel=0 note=57 velocity=45 time=0
<meta message set_tempo tempo=512821 time=240>
note_on channel=0 note=57 velocity=0 time=0
note_on channel=0 note=62 velocity=42 time=0
note_on channel=0 note=66 velocity=50 time=0
<meta message set_tempo tempo=491803 time=240>
note_on channel=0 note=66 velocity=0 time=0
note_on channel=0 note=62 velocity=0 time=0
note_on channel=0 note=57 velocity=47 time=0
<meta message set_tempo tempo=504202 time=240>
note_on channel=0 note=57 velocity=0 time=0
note_on channel=0 note=64 velocity=44 time=0
note_on channel=0 note=67 velocity=52 time=0
<meta message set_tempo tempo=540541 time=240>
note_on channel=0 note=67 velocity=0 time=0
note_on channel=0 note=64 velocity=0 time=0
note_on channel=0 note=57 velocity=49 time=0
<meta message set_tempo tempo=526316 time=240>
note_on channel=0 note=57 velocity=0 time=0
note_on channel=0 note=69 velocity=54 time=0
note_on channel=0 note=66 velocity=45 time=0
control_change channel=0 control=64 value=0 time=0
control_change channel=0 control=64 value=127 time=127
<meta message set_tempo tempo=495868 time=113>
note_on channel=0 note=66 velocity=0 time=0
note_on channel=0 note=69 velocity=0 time=0
note_on channel=0 note=57 velocity=48 time=0
<meta message set_tempo tempo=495868 time=240>
note_on channel=0 note=57 velocity=0 time=0
note_on channel=0 note=38 velocity=0 time=0
note_on channel=0 note=50 velocity=0 time=0
note_on channel=0 note=62 velocity=42 time=0
note_on channel=0 note=66 velocity=50 time=0
control_change channel=0 control=64 value=0 time=10
control_change channel=0 control=64 value=127 time=160
<meta message set_tempo tempo=500000 time=70>
note_on channel=0 note=66 velocity=0 time=0
note_on channel=0 note=62 velocity=0 time=0
note_on channel=0 note=61 velocity=39 time=0
note_on channel=0 note=64 velocity=47 time=0
<meta message set_tempo tempo=508475 time=240>
note_on channel=0 note=64 velocity=0 time=0
note_on channel=0 note=61 velocity=0 time=0
note_on channel=0 note=62 velocity=42 time=0
note_on channel=0 note=66 velocity=50 time=0
control_change channel=0 control=64 value=0 time=10
control_change channel=0 control=64 value=127 time=146
<meta message set_tempo tempo=500000 time=84>
note_on channel=0 note=66 velocity=0 time=0
note_on channel=0 note=62 velocity=0 time=0
note_on channel=0 note=64 velocity=39 time=0
note_on channel=0 note=67 velocity=47 time=0
<meta message set_tempo tempo=495868 time=240>
note_on channel=0 note=67 velocity=0 time=0
note_on channel=0 note=64 velocity=0 time=0
note_on channel=0 note=66 velocity=42 time=0
note_on channel=0 note=69 velocity=50 time=0
control_change channel=0 control=64 value=0 time=0
control_change channel=0 control=64 value=127 time=141
<meta message set_tempo tempo=504202 time=99>
note_on channel=0 note=69 velocity=0 time=0
note_on channel=0 note=66 velocity=0 time=0
note_on channel=0 note=62 velocity=45 time=0
<meta message set_tempo tempo=500000 time=240>
note_on channel=0 note=62 velocity=0 time=0
note_on channel=0 note=67 velocity=45 time=0
note_on channel=0 note=71 velocity=53 time=0
control_change channel=0 control=64 value=0 time=10
control_change channel=0 control=64 value=127 time=117
<meta message set_tempo tempo=526316 time=113>
note_on channel=0 note=71 velocity=0 time=0
note_on channel=0 note=67 velocity=0 time=0
note_on channel=0 note=62 velocity=47 time=0
<meta message set_tempo tempo=504202 time=240>
note_on channel=0 note=62 velocity=0 time=0
note_on channel=0 note=67 velocity=45 time=0
note_on channel=0 note=73 velocity=54 time=0
note_on channel=0 note=45 velocity=34 time=0
note_on channel=0 note=57 velocity=41 time=0
control_change channel=0 control=64 value=0 time=10
control_change channel=0 control=64 value=127 time=188
<meta message set_tempo tempo=526316 time=42>
note_on channel=0 note=73 velocity=0 time=0
note_on channel=0 note=67 velocity=0 time=0
note_on channel=0 note=64 velocity=47 time=0
<meta message set_tempo tempo=521739 time=240>
note_on channel=0 note=64 velocity=0 time=0
note_on channel=0 note=45 velocity=0 time=0
note_on channel=0 note=57 velocity=0 time=0
note_on channel=0 note=66 velocity=45 time=0
note_on channel=0 note=74 velocity=54 time=0
note_on channel=0 note=38 velocity=34 time=0
note_on channel=0 note=50 velocity=41 time=0
control_change channel=0 control=64 value=0 time=0
control_change channel=0 control=64 value=127 time=156
note_on channel=0 note=74 velocity=0 time=84
note_on channel=0 note=66 velocity=0 time=0
note_on channel=0 note=69 velocity=49 time=0
<meta message set_tempo tempo=495868 time=240>
note_on channel=0 note=69 velocity=0 time=0
note_on channel=0 note=38 velocity=0 time=0
note_on channel=0 note=50 velocity=0 time=0
note_on channel=0 note=62 velocity=42 time=0
note_on channel=0 note=66 velocity=50 time=0
note_on channel=0 note=78 velocity=55 time=0
control_change channel=0 control=64 value=0 time=10
control_change channel=0 control=64 value=127 time=160
<meta message set_tempo tempo=500000 time=70>
note_on channel=0 note=78 velocity=0 time=0
note_on channel=0 note=66 velocity=0 time=0
note_on channel=0 note=62 velocity=0 time=0
note_on channel=0 note=61 velocity=39 time=0
note_on channel=0 note=64 velocity=47 time=0
note_on channel=0 note=76 velocity=46 time=0
<meta message set_tempo tempo=508475 time=240>
note_on channel=0 note=76 velocity=0 time=0
note_on channel=0 note=64 velocity=0 time=0
note_on channel=0 note=61 velocity=0 time=0
note_on channel=0 note=62 velocity=42 time=0
note_on channel=0 note=66 velocity=50 time=0
note_on channel=0 note=78 velocity=54 time=0
control_change channel=0 control=64 value=0 time=10
control_change channel=0 control=64 value=127 time=146
<meta message set_tempo tempo=500000 time=84>
note_on channel=0 note=78 velocity=0 time=0
note_on channel=0 note=66 velocity=0 time=0
note_on channel=0 note=62 velocity=0 time=0
note_on channel=0 note=64 velocity=39 time=0
note_on channel=0 note=67 velocity=47 time=0
note_on channel=0 note=79 velocity=47 time=0
<meta message set_tempo tempo=495868 time=240>
note_on channel=0 note=79 velocity=0 time=0
note_on channel=0 note=67 velocity=0 time=0
note_on channel=0 note=64 velocity=0 time=0
note_on channel=0 note=66 velocity=42 time=0
note_on channel=0 note=69 velocity=50 time=0
note_on channel=0 note=81 velocity=53 time=0
control_change channel=0 control=64 value=0 time=0
control_change channel=0 control=64 value=127 time=141
<meta message set_tempo tempo=508475 time=99>
note_on channel=0 note=69 velocity=0 time=0
note_on channel=0 note=66 velocity=0 time=0
note_on channel=0 note=62 velocity=45 time=0
<meta message set_tempo tempo=508475 time=240>
note_on channel=0 note=62 velocity=0 time=0
note_on channel=0 note=81 velocity=0 time=0
note_on channel=0 note=67 velocity=45 time=0
note_on channel=0 note=71 velocity=53 time=0
note_on channel=0 note=83 velocity=53 time=0
control_change channel=0 control=64 value=0 time=10
control_change channel=0 control=64 value=127 time=117
<meta message set_tempo tempo=521739 time=113>
note_on channel=0 note=71 velocity=0 time=0
note_on channel=0 note=67 velocity=0 time=0
note_on channel=0 note=62 velocity=47 time=0
<meta message set_tempo tempo=508475 time=240>
note_on channel=0 note=62 velocity=0 time=0
note_on channel=0 note=83 velocity=0 time=0
note_on channel=0 note=67 velocity=45 time=0
note_on channel=0 note=73 velocity=54 time=0
note_on channel=0 note=85 velocity=53 time=0
control_change channel=0 control=64 value=0 time=10
control_change channel=0 control=64 value=127 time=188
<meta message set_tempo tempo=535714 time=42>
note_on channel=0 note=73 velocity=0 time=0
note_on channel=0 note=67 velocity=0 time=0
note_on channel=0 note=64 velocity=47 time=0
note_on channel=0 note=64 velocity=0 time=240
note_on channel=0 note=85 velocity=0 time=0
note_on channel=0 note=66 velocity=45 time=0
note_on channel=0 note=74 velocity=54 time=0
note_on channel=0 note=86 velocity=54 time=0
control_change channel=0 control=64 value=0 time=0
control_change channel=0 control=64 value=127 time=156
<meta message set_tempo tempo=555556 time=84>
note_on channel=0 note=74 velocity=0 time=0
note_on channel=0 note=66 velocity=0 time=0
note_on channel=0 note=69 velocity=49 time=0
<meta message set_tempo tempo=508475 time=240>
note_on channel=0 note=69 velocity=0 time=0
note_on channel=0 note=86 velocity=0 time=0
note_on channel=0 note=66 velocity=45 time=0
note_on channel=0 note=74 velocity=54 time=0
control_change channel=0 control=64 value=0 time=12
<meta message set_tempo tempo=517241 time=228>
note_on channel=0 note=74 velocity=0 time=0
note_on channel=0 note=66 velocity=0 time=0
note_on channel=0 note=64 velocity=41 time=0
note_on channel=0 note=73 velocity=49 time=0
<meta message set_tempo tempo=495868 time=240>
note_on channel=0 note=73 velocity=0 time=0
note_on channel=0 note=64 velocity=0 time=0
note_on channel=0 note=62 velocity=41 time=0
note_on channel=0 note=71 velocity=49 time=0
<meta message set_tempo tempo=545455 time=240>
note_on channel=0 note=71 velocity=0 time=0
note_on channel=0 note=62 velocity=0 time=0
note_on channel=0 note=61 velocity=41 time=0
note_on channel=0 note=69 velocity=49 time=0
<meta message set_tempo tempo=512821 time=240>
note_on channel=0 note=69 velocity=0 time=0
note_on channel=0 note=61 velocity=0 time=0
note_on channel=0 note=59 velocity=45 time=0
note_on channel=0 note=68 velocity=54 time=0
note_on channel=0 note=52 velocity=41 time=0
control_change channel=0 control=64 value=127 time=92
<meta message set_tempo tempo=521739 time=148>
note_on channel=0 note=68 velocity=0 time=0
note_on channel=0 note=59 velocity=0 time=0
note_on channel=0 note=64 velocity=47 time=0
<meta message set_tempo tempo=508475 time=240>
note_on channel=0 note=64 velocity=0 time=0
note_on channel=0 note=52 velocity=0 time=0
note_on channel=0 note=61 velocity=43 time=0
note_on channel=0 note=69 velocity=51 time=0
note_on channel=0 note=49 velocity=35 time=0
control_change channel=0 control=64 value=0 time=9
control_change channel=0 control=64 value=127 time=71
<meta message set_tempo tempo=517241 time=160>
note_on channel=0 note=69 velocity=0 time=0
note_on channel=0 note=61 velocity=0 time=0
note_on channel=0 note=64 velocity=42 time=0
<meta message set_tempo tempo=504202 time=240>
note_on channel=0 note=64 velocity=0 time=0
note_on channel=0 note=49 velocity=0 time=0
note_on channel=0 note=69 velocity=44 time=0
note_on channel=0 note=73 velocity=52 time=0
note_on channel=0 note=45 velocity=35 time=0
control_change channel=0 control=64 value=0 time=10
control_change channel=0 control=64 value=127 time=127
note_on channel=0 note=73 velocity=0 time=103
note_on channel=0 note=69 velocity=0 time=0
note_on channel=0 note=64 velocity=42 time=0
note_on channel=0 note=64 velocity=0 time=240
note_on channel=0 note=45 velocity=0 time=0
note_on channel=0 note=68 velocity=43 time=0
note_on channel=0 note=71 velocity=51 time=0
note_on channel=0 note=52 velocity=40 time=0
control_change channel=0 control=64 value=0 time=5
control_change channel=0 control=64 value=127 time=38
<meta message set_tempo tempo=535714 time=197>
note_on channel=0 note=71 velocity=0 time=0
note_on channel=0 note=68 velocity=0 time=0
note_on channel=0 note=64 velocity=44 time=0
<meta message set_tempo tempo=495868 time=240>
note_on channel=0 note=64 velocity=0 time=0
note_on channel=0 note=52 velocity=0 time=0
note_on channel=0 note=66 velocity=45 time=0
note_on channel=0 note=74 velocity=54 time=0
note_on channel=0 note=86 velocity=60 time=0
control_change channel=0 control=64 value=0 time=10
control_change channel=0 control=64 value=127 time=50
<meta message set_tempo tempo=512821 time=180>
note_on channel=0 note=86 velocity=0 time=0
note_on channel=0 note=74 velocity=0 time=0
note_on channel=0 note=66 velocity=0 time=0
note_on channel=0 note=64 velocity=41 time=0
note_on channel=0 note=73 velocity=49 time=0
note_on channel=0 note=85 velocity=58 time=0
<meta message set_tempo tempo=508475 time=240>
note_on channel=0 note=85 velocity=0 time=0
note_on channel=0 note=73 velocity=0 time=0
note_on channel=0 note=64 velocity=0 time=0
note_on channel=0 note=62 velocity=41 time=0
note_on channel=0 note=71 velocity=49 time=0
note_on channel=0 note=83 velocity=56 time=0
control_change channel=0 control=64 value=0 time=10
control_change channel=0 control=64 value=127 time=47
<meta message set_tempo tempo=530973 time=183>
note_on channel=0 note=83 velocity=0 time=0
note_on channel=0 note=71 velocity=0 time=0
note_on channel=0 note=62 velocity=0 time=0
note_on channel=0 note=61 velocity=41 time=0
note_on channel=0 note=69 velocity=49 time=0
note_on channel=0 note=81 velocity=56 time=0
note_on channel=0 note=81 velocity=0 time=180
note_on channel=0 note=87 velocity=54 time=0
<meta message set_tempo tempo=491803 time=60>
note_on channel=0 note=87 velocity=0 time=0
note_on channel=0 note=69 velocity=0 time=0
note_on channel=0 note=61 velocity=0 time=0
note_on channel=0 note=59 velocity=45 time=0
note_on channel=0 note=68 velocity=54 time=0
note_on channel=0 note=88 velocity=65 time=0
control_change channel=0 control=64 value=0 time=10
control_change channel=0 control=64 value=127 time=27
<meta message set_tempo tempo=487805 time=203>
note_on channel=0 note=68 velocity=0 time=0
note_on channel=0 note=59 velocity=0 time=0
note_on channel=0 note=64 velocity=47 time=0
note_on channel=0 note=88 velocity=0 time=180
note_on channel=0 note=87 velocity=54 time=0
<meta message set_tempo tempo=491803 time=60>
note_on channel=0 note=87 velocity=0 time=0
note_on channel=0 note=64 velocity=0 time=0
note_on channel=0 note=61 velocity=43 time=0
note_on channel=0 note=69 velocity=51 time=0
note_on channel=0 note=88 velocity=65 time=0
control_change channel=0 control=64 value=0 time=10
control_change channel=0 control=64 value=127 time=42
<meta message set_tempo tempo=483871 time=188>
note_on channel=0 note=69 velocity=0 time=0
note_on channel=0 note=61 velocity=0 time=0
note_on channel=0 note=64 velocity=42 time=0
note_on channel=0 note=88 velocity=0 time=180
note_on channel=0 note=87 velocity=54 time=0
<meta message set_tempo tempo=487805 time=60>
note_on channel=0 note=87 velocity=0 time=0
note_on channel=0 note=64 velocity=0 time=0
note_on channel=0 note=69 velocity=44 time=0
note_on channel=0 note=73 velocity=52 time=0
note_on channel=0 note=88 velocity=66 time=0
control_change channel=0 control=64 value=0 time=10
control_change channel=0 control=64 value=127 time=42
<meta message set_tempo tempo=500000 time=188>
note_on channel=0 note=73 velocity=0 time=0
note_on channel=0 note=69 velocity=0 time=0
note_on channel=0 note=64 velocity=42 time=0
note_on channel=0 note=88 velocity=0 time=180
note_on channel=0 note=87 velocity=54 time=0
note_on channel=0 note=87 velocity=0 time=60
note_on channel=0 note=64 velocity=0 time=0
note_on channel=0 note=68 velocity=43 time=0
note_on channel=0 note=71 velocity=51 time=0
note_on channel=0 note=88 velocity=65 time=0
control_change channel=0 control=64 value=0 time=10
control_change channel=0 control=64 value=127 time=105
<meta message set_tempo tempo=526316 time=125>
note_on channel=0 note=71 velocity=0 time=0
note_on channel=0 note=68 velocity=0 time=0
note_on channel=0 note=64 velocity=44 time=0
<meta message set_tempo tempo=512821 time=240>
note_on channel=0 note=64 velocity=0 time=0
note_on channel=0 note=88 velocity=0 time=0
note_on channel=0 note=64 velocity=64 time=0
note_on channel=0 note=73 velocity=64 time=0
note_on channel=0 note=45 velocity=51 time=0
control_change channel=0 control=64 value=0 time=3
<meta message set_tempo tempo=495868 time=237>
note_on channel=0 note=45 velocity=0 time=0
note_on channel=0 note=73 velocity=0 time=0
note_on channel=0 note=71 velocity=59 time=0
note_on channel=0 note=44 velocity=47 time=0
<meta message set_tempo tempo=487805 time=240>
note_on channel=0 note=44 velocity=0 time=0
note_on channel=0 note=71 velocity=0 time=0
note_on channel=0 note=73 velocity=61 time=0
note_on channel=0 note=45 velocity=51 time=0
<meta message set_tempo tempo=500000 time=240>
note_on channel=0 note=45 velocity=0 time=0
note_on channel=0 note=73 velocity=0 time=0
note_on channel=0 note=74 velocity=54 time=0
note_on channel=0 note=47 velocity=47 time=0
<meta message set_tempo tempo=487805 time=240>
note_on channel=0 note=47 velocity=0 time=0
note_on channel=0 note=74 velocity=0 time=0
note_on channel=0 note=76 velocity=66 time=0
note_on channel=0 note=49 velocity=51 time=0
control_change channel=0 control=64 value=127 time=99
<meta message set_tempo tempo=508475 time=141>
note_on channel=0 note=76 velocity=0 time=0
note_on channel=0 note=69 velocity=59 time=0
<meta message set_tempo tempo=487805 time=240>
note_on channel=0 note=69 velocity=0 time=0
note_on channel=0 note=49 velocity=0 time=0
note_on channel=0 note=64 velocity=0 time=0
note_on channel=0 note=69 velocity=64 time=0
note_on channel=0 note=73 velocity=64 time=0
note_on channel=0 note=52 velocity=46 time=0
control_change channel=0 control=64 value=0 time=10
control_change channel=0 control=64 value=127 time=160
<meta message set_tempo tempo=512821 time=70>
note_on channel=0 note=73 velocity=0 time=0
note_on channel=0 note=64 velocity=58 time=0
<meta message set_tempo tempo=487805 time=240>
note_on channel=0 note=64 velocity=0 time=0
note_on channel=0 note=52 velocity=0 time=0
note_on channel=0 note=69 velocity=0 time=0
note_on channel=0 note=68 velocity=64 time=0
note_on channel=0 note=71 velocity=64 time=0
note_on channel=0 note=40 velocity=49 time=0
control_change channel=0 control=64 value=0 time=10
control_change channel=0 control=64 value=127 time=131
<meta message set_tempo tempo=517241 time=99>
note_on channel=0 note=71 velocity=0 time=0
note_on channel=0 note=64 velocity=58 time=0
<meta message set_tempo tempo=495868 time=240>
note_on channel=0 note=64 velocity=0 time=0
note_on channel=0 note=40 velocity=0 time=0
note_on channel=0 note=68 velocity=0 time=0
note_on channel=0 note=69 velocity=64 time=0
note_on channel=0 note=45 velocity=49 time=0
control_change channel=0 control=64 value=0 time=0
control_change channel=0 control=64 value=127 time=141
<meta message set_tempo tempo=526316 time=99>
note_on channel=0 note=69 velocity=0 time=0
note_on channel=0 note=64 velocity=58 time=0
<meta message set_tempo tempo=512821 time=240>
note_on channel=0 note=64 velocity=0 time=0
note_on channel=0 note=45 velocity=0 time=0
note_on channel=0 note=69 velocity=64 time=0
note_on channel=0 note=73 velocity=64 time=0
note_on channel=0 note=85 velocity=58 time=0
control_change channel=0 control=64 value=0 time=3
<meta message set_tempo tempo=495868 time=237>
note_on channel=0 note=85 velocity=0 time=0
note_on channel=0 note=73 velocity=0 time=0
note_on channel=0 note=69 velocity=0 time=0
note_on channel=0 note=68 velocity=59 time=0
note_on channel=0 note=71 velocity=59 time=0
note_on channel=0 note=83 velocity=53 time=0
<meta message set_tempo tempo=504202 time=240>
note_on channel=0 note=83 velocity=0 time=0
note_on channel=0 note=71 velocity=0 time=0
note_on channel=0 note=68 velocity=0 time=0
note_on channel=0 note=69 velocity=61 time=0
note_on channel=0 note=73 velocity=61 time=0
note_on channel=0 note=85 velocity=59 time=0
<meta message set_tempo tempo=500000 time=240>
note_on channel=0 note=85 velocity=0 time=0
note_on channel=0 note=73 velocity=0 time=0
note_on channel=0 note=69 velocity=0 time=0
note_on channel=0 note=71 velocity=54 time=0
note_on channel=0 note=74 velocity=54 time=0
note_on channel=0 note=86 velocity=52 time=0
<meta message set_tempo tempo=487805 time=240>
note_on channel=0 note=86 velocity=0 time=0
note_on channel=0 note=74 velocity=0 time=0
note_on channel=0 note=71 velocity=0 time=0
note_on channel=0 note=73 velocity=66 time=0
note_on channel=0 note=76 velocity=66 time=0
note_on channel=0 note=88 velocity=58 time=0
control_change channel=0 control=64 value=127 time=99
<meta message set_tempo tempo=508475 time=141>
note_on channel=0 note=76 velocity=0 time=0
note_on channel=0 note=73 velocity=0 time=0
note_on channel=0 note=64 velocity=59 time=0
<meta message set_tempo tempo=487805 time=240>
note_on channel=0 note=64 velocity=0 time=0
note_on channel=0 note=88 velocity=0 time=0
note_on channel=0 note=69 velocity=64 time=0
note_on channel=0 note=73 velocity=64 time=0
note_on channel=0 note=85 velocity=62 time=0
control_change channel=0 control=64 value=0 time=10
control_change channel=0 control=64 value=127 time=160
<meta message set_tempo tempo=512821 time=70>
note_on channel=0 note=73 velocity=0 time=0
note_on channel=0 note=69 velocity=0 time=0
note_on channel=0 note=64 velocity=58 time=0
<meta message set_tempo tempo=487805 time=240>
note_on channel=0 note=64 velocity=0 time=0
note_on channel=0 note=85 velocity=0 time=0
note_on channel=0 note=68 velocity=64 time=0
note_on channel=0 note=71 velocity=64 time=0
note_on channel=0 note=83 velocity=59 time=0
control_change channel=0 control=64 value=0 time=10
control_change channel=0 control=64 value=127 time=131
<meta message set_tempo tempo=517241 time=99>
note_on channel=0 note=71 velocity=0 time=0
note_on channel=0 note=68 velocity=0 time=0
note_on channel=0 note=64 velocity=58 time=0
<meta message set_tempo tempo=495868 time=240>
note_on channel=0 note=64 velocity=0 time=0
note_on channel=0 note=83 velocity=0 time=0
note_on channel=0 note=69 velocity=64 time=0
note_on channel=0 note=81 velocity=56 time=0
control_change channel=0 control=64 value=0 time=0
control_change channel=0 control=64 value=127 time=141
<meta message set_tempo tempo=508475 time=99>
note_on channel=0 note=69 velocity=0 time=0
note_on channel=0 note=64 velocity=58 time=0
<meta message set_tempo tempo=487805 time=240>
note_on channel=0 note=64 velocity=0 time=0
note_on channel=0 note=81 velocity=0 time=0
note_on channel=0 note=66 velocity=61 time=0
note_on channel=0 note=50 velocity=36 time=0
note_on channel=0 note=59 velocity=43 time=0
control_change channel=0 control=64 value=0 time=10
control_change channel=0 control=64 value=127 time=110
<meta message set_tempo tempo=500000 time=120>
note_on channel=0 note=66 velocity=0 time=0
note_on channel=0 note=74 velocity=53 time=0
<meta message set_tempo tempo=491803 time=240>
note_on channel=0 note=74 velocity=0 time=0
note_on channel=0 note=59 velocity=0 time=0
note_on channel=0 note=50 velocity=0 time=0
note_on channel=0 note=71 velocity=61 time=0
note_on channel=0 note=62 velocity=38 time=0
note_on channel=0 note=52 velocity=32 time=0
control_change channel=0 control=64 value=0 time=10
control_change channel=0 control=64 value=127 time=110
<meta message set_tempo tempo=508475 time=120>
note_on channel=0 note=71 velocity=0 time=0
note_on channel=0 note=68 velocity=55 time=0
<meta message set_tempo tempo=495868 time=240>
note_on channel=0 note=68 velocity=0 time=0
note_on channel=0 note=52 velocity=0 time=0
note_on channel=0 note=62 velocity=0 time=0
note_on channel=0 note=69 velocity=59 time=0
note_on channel=0 note=61 velocity=43 time=0
note_on channel=0 note=57 velocity=36 time=0
control_change channel=0 control=64 value=0 time=10
control_change channel=0 control=64 value=127 time=110
note_on channel=0 note=69 velocity=0 time=120
note_on channel=0 note=64 velocity=50 time=0
<meta message set_tempo tempo=500000 time=240>
note_on channel=0 note=64 velocity=0 time=0
note_on channel=0 note=57 velocity=0 time=0
note_on channel=0 note=61 velocity=0 time=0
note_on channel=0 note=66 velocity=56 time=0
note_on channel=0 note=50 velocity=32 time=0
note_on channel=0 note=59 velocity=38 time=0
control_change channel=0 control=64 value=0 time=10
control_change channel=0 control=64 value=127 time=105
<meta message set_tempo tempo=512821 time=125>
note_on channel=0 note=66 velocity=0 time=0
note_on channel=0 note=74 velocity=50 time=0
note_on channel=0 note=74 velocity=0 time=240
note_on channel=0 note=59 velocity=0 time=0
note_on channel=0 note=50 velocity=0 time=0
note_on channel=0 note=71 velocity=57 time=0
note_on channel=0 note=62 velocity=43 time=0
note_on channel=0 note=52 velocity=36 time=0
control_change channel=0 control=64 value=0 time=10
control_change channel=0 control=64 value=127 time=127
<meta message set_tempo tempo=526316 time=103>
note_on channel=0 note=71 velocity=0 time=0
note_on channel=0 note=68 velocity=48 time=0
<meta message set_tempo tempo=495868 time=240>
note_on channel=0 note=68 velocity=0 time=0
note_on channel=0 note=52 velocity=0 time=0
note_on channel=0 note=62 velocity=0 time=0
note_on channel=0 note=69 velocity=52 time=0
note_on channel=0 note=57 velocity=34 time=0
note_on channel=0 note=61 velocity=40 time=0
control_change channel=0 control=64 value=0 time=10
control_change channel=0 control=64 value=127 time=116
note_on channel=0 note=69 velocity=0 time=114
note_on channel=0 note=68 velocity=46 time=0
note_on channel=0 note=68 velocity=0 time=240
note_on channel=0 note=61 velocity=0 time=0
note_on channel=0 note=57 velocity=0 time=0
note_on channel=0 note=69 velocity=52 time=0
control_change channel=0 control=64 value=0 time=12
note_on channel=0 note=69 velocity=0 time=228
note_on channel=0 note=71 velocity=45 time=0
<meta message set_tempo tempo=530973 time=240>
note_on channel=0 note=71 velocity=0 time=0
note_on channel=0 note=67 velocity=48 time=0
<meta message set_tempo tempo=612245 time=240>
note_on channel=0 note=67 velocity=0 time=0
note_on channel=0 note=64 velocity=48 time=0
<meta message set_tempo tempo=566038 time=240>
note_on channel=0 note=64 velocity=0 time=0
note_on channel=0 note=66 velocity=42 time=0
note_on channel=0 note=69 velocity=50 time=0
note_on channel=0 note=38 velocity=37 time=0
note_on channel=0 note=50 velocity=44 time=0
control_change channel=0 control=64 value=127 time=127
<meta message set_tempo tempo=540541 time=113>
note_on channel=0 note=69 velocity=0 time=0
note_on channel=0 note=66 velocity=0 time=0
note_on channel=0 note=57 velocity=45 time=0
<meta message set_tempo tempo=512821 time=240>
note_on channel=0 note=57 velocity=0 time=0
note_on channel=0 note=62 velocity=42 time=0
note_on channel=0 note=66 velocity=50 time=0
<meta message set_tempo tempo=491803 time=240>
note_on channel=0 note=66 velocity=0 time=0
note_on channel=0 note=62 velocity=0 time=0
note_on channel=0 note=57 velocity=47 time=0
<meta message set_tempo tempo=504202 time=240>
note_on channel=0 note=57 velocity=0 time=0
note_on channel=0 note=64 velocity=44 time=0
note_on channel=0 note=67 velocity=52 time=0
<meta message set_tempo tempo=540541 time=240>
note_on channel=0 note=67 velocity=0 time=0
note_on channel=0 note=64 velocity=0 time=0
note_on channel=0 note=57 velocity=49 time=0
<meta message set_tempo tempo=526316 time=240>
note_on channel=0 note=57 velocity=0 time=0
note_on channel=0 note=69 velocity=54 time=0
note_on channel=0 note=66 velocity=45 time=0
control_change channel=0 control=64 value=0 time=0
control_change channel=0 control=64 value=127 time=127
<meta message set_tempo tempo=495868 time=113>
note_on channel=0 note=66 velocity=0 time=0
note_on channel=0 note=69 velocity=0 time=0
note_on channel=0 note=57 velocity=48 time=0
<meta message set_tempo tempo=495868 time=240>
note_on channel=0 note=57 velocity=0 time=0
note_on channel=0 note=38 velocity=0 time=0
note_on channel=0 note=50 velocity=0 time=0
note_on channel=0 note=62 velocity=42 time=0
note_on channel=0 note=66 velocity=50 time=0
control_change channel=0 control=64 value=0 time=10
control_change channel=0 control=64 value=127 time=160
<meta message set_tempo tempo=500000 time=70>
note_on channel=0 note=66 velocity=0 time=0
note_on channel=0 note=62 velocity=0 time=0
note_on channel=0 note=61 velocity=39 time=0
note_on channel=0 note=64 velocity=47 time=0
<meta message set_tempo tempo=508475 time=240>
note_on channel=0 note=64 velocity=0 time=0
note_on channel=0 note=61 velocity=0 time=0
note_on channel=0 note=62 velocity=42 time=0
note_on channel=0 note=66 velocity=50 time=0
control_change channel=0 control=64 value=0 time=10
control_change channel=0 control=64 value=127 time=146
<meta message set_tempo tempo=500000 time=84>
note_on channel=0 note=66 velocity=0 time=0
note_on channel=0 note=62 velocity=0 time=0
note_on channel=0 note=64 velocity=39 time=0
note_on channel=0 note=67 velocity=47 time=0
<meta message set_tempo tempo=495868 time=240>
note_on channel=0 note=67 velocity=0 time=0
note_on channel=0 note=64 velocity=0 time=0
note_on channel=0 note=66 velocity=42 time=0
note_on channel=0 note=69 velocity=50 time=0
control_change channel=0 control=64 value=0 time=0
control_change channel=0 control=64 value=127 time=141
<meta message set_tempo tempo=504202 time=99>
note_on channel=0 note=69 velocity=0 time=0
note_on channel=0 note=66 velocity=0 time=0
note_on channel=0 note=62 velocity=45 time=0
<meta message set_tempo tempo=500000 time=240>
note_on channel=0 note=62 velocity=0 time=0
note_on channel=0 note=67 velocity=45 time=0
note_on channel=0 note=71 velocity=53 time=0
control_change channel=0 control=64 value=0 time=10
control_change channel=0 control=64 value=127 time=117
<meta message set_tempo tempo=526316 time=113>
note_on channel=0 note=71 velocity=0 time=0
note_on channel=0 note=67 velocity=0 time=0
note_on channel=0 note=62 velocity=47 time=0
<meta message set_tempo tempo=504202 time=240>
note_on channel=0 note=62 velocity=0 time=0
note_on channel=0 note=67 velocity=45 time=0
note_on channel=0 note=73 velocity=54 time=0
note_on channel=0 note=45 velocity=34 time=0
note_on channel=0 note=57 velocity=41 time=0
control_change channel=0 control=64 value=0 time=10
control_change channel=0 control=64 value=127 time=188
<meta message set_tempo tempo=526316 time=42>
note_on channel=0 note=73 velocity=0 time=0
note_on channel=0 note=67 velocity=0 time=0
note_on channel=0 note=64 velocity=47 time=0
<meta message set_tempo tempo=521739 time=240>
note_on channel=0 note=64 velocity=0 time=0
note_on channel=0 note=45 velocity=0 time=0
note_on channel=0 note=57 velocity=0 time=0
note_on channel=0 note=66 velocity=45 time=0
note_on channel=0 note=74 velocity=54 time=0
note_on channel=0 note=38 velocity=34 time=0
note_on channel=0 note=50 velocity=41 time=0
control_change channel=0 control=64 value=0 time=0
control_change channel=0 control=64 value=127 time=156
note_on channel=0 note=74 velocity=0 time=84
note_on channel=0 note=66 velocity=0 time=0
note_on channel=0 note=69 velocity=49 time=0
<meta message set_tempo tempo=495868 time=240>
note_on channel=0 note=69 velocity=0 time=0
note_on channel=0 note=38 velocity=0 time=0
note_on channel=0 note=50 velocity=0 time=0
note_on channel=0 note=62 velocity=42 time=0
note_on channel=0 note=66 velocity=50 time=0
note_on channel=0 note=78 velocity=55 time=0
control_change channel=0 control=64 value=0 time=10
control_change channel=0 control=64 value=127 time=160
<meta message set_tempo tempo=500000 time=70>
note_on channel=0 note=78 velocity=0 time=0
note_on channel=0 note=66 velocity=0 time=0
note_on channel=0 note=62 velocity=0 time=0
note_on channel=0 note=61 velocity=39 time=0
note_on channel=0 note=64 velocity=47 time=0
note_on channel=0 note=76 velocity=46 time=0
<meta message set_tempo tempo=508475 time=240>
note_on channel=0 note=76 velocity=0 time=0
note_on channel=0 note=64 velocity=0 time=0
note_on channel=0 note=61 velocity=0 time=0
note_on channel=0 note=62 velocity=42 time=0
note_on channel=0 note=66 velocity=50 time=0
note_on channel=0 note=78 velocity=54 time=0
control_change channel=0 control=64 value=0 time=10
control_change channel=0 control=64 value=127 time=146
<meta message set_tempo tempo=500000 time=84>
note_on channel=0 note=78 velocity=0 time=0
note_on channel=0 note=66 velocity=0 time=0
note_on channel=0 note=62 velocity=0 time=0
note_on channel=0 note=64 velocity=39 time=0
note_on channel=0 note=67 velocity=47 time=0
note_on channel=0 note=79 velocity=47 time=0
<meta message set_tempo tempo=495868 time=240>
note_on channel=0 note=79 velocity=0 time=0
note_on channel=0 note=67 velocity=0 time=0
note_on channel=0 note=64 velocity=0 time=0
note_on channel=0 note=66 velocity=42 time=0
note_on channel=0 note=69 velocity=50 time=0
note_on channel=0 note=81 velocity=53 time=0
control_change channel=0 control=64 value=0 time=0
control_change channel=0 control=64 value=127 time=141
<meta message set_tempo tempo=508475 time=99>
note_on channel=0 note=69 velocity=0 time=0
note_on channel=0 note=66 velocity=0 time=0
note_on channel=0 note=62 velocity=45 time=0
<meta message set_tempo tempo=508475 time=240>
note_on channel=0 note=62 velocity=0 time=0
note_on channel=0 note=81 velocity=0 time=0
note_on channel=0 note=67 velocity=45 time=0
note_on channel=0 note=71 velocity=53 time=0
note_on channel=0 note=83 velocity=53 time=0
control_change channel=0 control=64 value=0 time=10
control_change channel=0 control=64 value=127 time=117
<meta message set_tempo tempo=521739 time=113>
note_on channel=0 note=71 velocity=0 time=0
note_on channel=0 note=67 velocity=0 time=0
note_on channel=0 note=62 velocity=47 time=0
<meta message set_tempo tempo=508475 time=240>
note_on channel=0 note=62 velocity=0 time=0
note_on channel=0 note=83 velocity=0 time=0
note_on channel=0 note=67 velocity=45 time=0
note_on channel=0 note=73 velocity=54 time=0
note_on channel=0 note=85 velocity=53 time=0
control_change channel=0 control=64 value=0 time=10
control_change channel=0 control=64 value=127 time=188
<meta message set_tempo tempo=535714 time=42>
note_on channel=0 note=73 velocity=0 time=0
note_on channel=0 note=67 velocity=0 time=0
note_on channel=0 note=64 velocity=47 time=0
note_on channel=0 note=64 velocity=0 time=240
note_on channel=0 note=85 velocity=0 time=0
note_on channel=0 note=66 velocity=45 time=0
note_on channel=0 note=74 velocity=54 time=0
note_on channel=0 note=86 velocity=54 time=0
control_change channel=0 control=64 value=0 time=0
control_change channel=0 control=64 value=127 time=156
<meta message set_tempo tempo=555556 time=84>
note_on channel=0 note=74 velocity=0 time=0
note_on channel=0 note=66 velocity=0 time=0
note_on channel=0 note=69 velocity=49 time=0
<meta message set_tempo tempo=508475 time=240>
note_on channel=0 note=69 velocity=0 time=0
note_on channel=0 note=86 velocity=0 time=0
note_on channel=0 note=66 velocity=45 time=0
note_on channel=0 note=74 velocity=54 time=0
control_change channel=0 control=64 value=0 time=12
<meta message set_tempo tempo=517241 time=228>
note_on channel=0 note=74 velocity=0 time=0
note_on channel=0 note=66 velocity=0 time=0
note_on channel=0 note=64 velocity=41 time=0
note_on channel=0 note=73 velocity=49 time=0
<meta message set_tempo tempo=495868 time=240>
note_on channel=0 note=73 velocity=0 time=0
note_on channel=0 note=64 velocity=0 time=0
note_on channel=0 note=62 velocity=41 time=0
note_on channel=0 note=71 velocity=49 time=0
<meta message set_tempo tempo=545455 time=240>
note_on channel=0 note=71 velocity=0 time=0
note_on channel=0 note=62 velocity=0 time=0
note_on channel=0 note=61 velocity=41 time=0
note_on channel=0 note=69 velocity=49 time=0
<meta message set_tempo tempo=512821 time=240>
note_on channel=0 note=69 velocity=0 time=0
note_on channel=0 note=61 velocity=0 time=0
note_on channel=0 note=59 velocity=45 time=0
note_on channel=0 note=68 velocity=54 time=0
note_on channel=0 note=52 velocity=41 time=0
control_change channel=0 control=64 value=127 time=92
<meta message set_tempo tempo=521739 time=148>
note_on channel=0 note=68 velocity=0 time=0
note_on channel=0 note=59 velocity=0 time=0
note_on channel=0 note=64 velocity=47 time=0
<meta message set_tempo tempo=508475 time=240>
note_on channel=0 note=64 velocity=0 time=0
note_on channel=0 note=52 velocity=0 time=0
note_on channel=0 note=61 velocity=43 time=0
note_on channel=0 note=69 velocity=51 time=0
note_on channel=0 note=49 velocity=35 time=0
control_change channel=0 control=64 value=0 time=9
control_change channel=0 control=64 value=127 time=71
<meta message set_tempo tempo=517241 time=160>
note_on channel=0 note=69 velocity=0 time=0
note_on channel=0 note=61 velocity=0 time=0
note_on channel=0 note=64 velocity=42 time=0
<meta message set_tempo tempo=504202 time=240>
note_on channel=0 note=64 velocity=0 time=0
note_on channel=0 note=49 velocity=0 time=0
note_on channel=0 note=69 velocity=44 time=0
note_on channel=0 note=73 velocity=52 time=0
note_on channel=0 note=45 velocity=35 time=0
control_change channel=0 control=64 value=0 time=10
control_change channel=0 control=64 value=127 time=127
note_on channel=0 note=73 velocity=0 time=103
note_on channel=0 note=69 velocity=0 time=0
note_on channel=0 note=64 velocity=42 time=0
note_on channel=0 note=64 velocity=0 time=240
note_on channel=0 note=45 velocity=0 time=0
note_on channel=0 note=68 velocity=43 time=0
note_on channel=0 note=71 velocity=51 time=0
note_on channel=0 note=52 velocity=40 time=0
control_change channel=0 control=64 value=0 time=5
control_change channel=0 control=64 value=127 time=38
<meta message set_tempo tempo=535714 time=197>
note_on channel=0 note=71 velocity=0 time=0
note_on channel=0 note=68 velocity=0 time=0
note_on channel=0 note=64 velocity=44 time=0
<meta message set_tempo tempo=495868 time=240>
note_on channel=0 note=64 velocity=0 time=0
note_on channel=0 note=52 velocity=0 time=0
note_on channel=0 note=66 velocity=45 time=0
note_on channel=0 note=74 velocity=54 time=0
note_on channel=0 note=86 velocity=60 time=0
control_change channel=0 control=64 value=0 time=10
control_change channel=0 control=64 value=127 time=50
<meta message set_tempo tempo=512821 time=180>
note_on channel=0 note=86 velocity=0 time=0
note_on channel=0 note=74 velocity=0 time=0
note_on channel=0 note=66 velocity=0 time=0
note_on channel=0 note=64 velocity=41 time=0
note_on channel=0 note=73 velocity=49 time=0
note_on channel=0 note=85 velocity=58 time=0
<meta message set_tempo tempo=508475 time=240>
note_on channel=0 note=85 velocity=0 time=0
note_on channel=0 note=73 velocity=0 time=0
note_on channel=0 note=64 velocity=0 time=0
note_on channel=0 note=62 velocity=41 time=0
note_on channel=0 note=71 velocity=49 time=0
note_on channel=0 note=83 velocity=56 time=0
control_change channel=0 control=64 value=0 time=10
control_change channel=0 control=64 value=127 time=47
<meta message set_tempo tempo=530973 time=183>
note_on channel=0 note=83 velocity=0 time=0
note_on channel=0 note=71 velocity=0 time=0
note_on channel=0 note=62 velocity=0 time=0
note_on channel=0 note=61 velocity=41 time=0
note_on channel=0 note=69 velocity=49 time=0
note_on channel=0 note=81 velocity=56 time=0
note_on channel=0 note=81 velocity=0 time=180
note_on channel=0 note=87 velocity=54 time=0
<meta message set_tempo tempo=491803 time=60>
note_on channel=0 note=87 velocity=0 time=0
note_on channel=0 note=69 velocity=0 time=0
note_on channel=0 note=61 velocity=0 time=0
note_on channel=0 note=59 velocity=45 time=0
note_on channel=0 note=68 velocity=54 time=0
note_on channel=0 note=88 velocity=65 time=0
control_change channel=0 control=64 value=0 time=10
control_change channel=0 control=64 value=127 time=27
<meta message set_tempo tempo=487805 time=203>
note_on channel=0 note=68 velocity=0 time=0
note_on channel=0 note=59 velocity=0 time=0
note_on channel=0 note=64 velocity=47 time=0
note_on channel=0 note=88 velocity=0 time=180
note_on channel=0 note=87 velocity=54 time=0
<meta message set_tempo tempo=491803 time=60>
note_on channel=0 note=87 velocity=0 time=0
note_on channel=0 note=64 velocity=0 time=0
note_on channel=0 note=61 velocity=43 time=0
note_on channel=0 note=69 velocity=51 time=0
note_on channel=0 note=88 velocity=65 time=0
control_change channel=0 control=64 value=0 time=10
control_change channel=0 control=64 value=127 time=42
<meta message set_tempo tempo=483871 time=188>
note_on channel=0 note=69 velocity=0 time=0
note_on channel=0 note=61 velocity=0 time=0
note_on channel=0 note=64 velocity=42 time=0
note_on channel=0 note=88 velocity=0 time=180
note_on channel=0 note=87 velocity=54 time=0
<meta message set_tempo tempo=487805 time=60>
note_on channel=0 note=87 velocity=0 time=0
note_on channel=0 note=64 velocity=0 time=0
note_on channel=0 note=69 velocity=44 time=0
note_on channel=0 note=73 velocity=52 time=0
note_on channel=0 note=88 velocity=66 time=0
control_change channel=0 control=64 value=0 time=10
control_change channel=0 control=64 value=127 time=42
<meta message set_tempo tempo=500000 time=188>
note_on channel=0 note=73 velocity=0 time=0
note_on channel=0 note=69 velocity=0 time=0
note_on channel=0 note=64 velocity=42 time=0
note_on channel=0 note=88 velocity=0 time=180
note_on channel=0 note=87 velocity=54 time=0
note_on channel=0 note=87 velocity=0 time=60
note_on channel=0 note=64 velocity=0 time=0
note_on channel=0 note=68 velocity=43 time=0
note_on channel=0 note=71 velocity=51 time=0
note_on channel=0 note=88 velocity=65 time=0
control_change channel=0 control=64 value=0 time=10
control_change channel=0 control=64 value=127 time=105
<meta message set_tempo tempo=526316 time=125>
note_on channel=0 note=71 velocity=0 time=0
note_on channel=0 note=68 velocity=0 time=0
note_on channel=0 note=64 velocity=44 time=0
<meta message set_tempo tempo=512821 time=240>
note_on channel=0 note=64 velocity=0 time=0
note_on channel=0 note=88 velocity=0 time=0
note_on channel=0 note=64 velocity=64 time=0
note_on channel=0 note=73 velocity=64 time=0
note_on channel=0 note=45 velocity=51 time=0
control_change channel=0 control=64 value=0 time=5
<meta message set_tempo tempo=495868 time=235>
note_on channel=0 note=45 velocity=0 time=0
note_on channel=0 note=73 velocity=0 time=0
note_on channel=0 note=71 velocity=59 time=0
note_on channel=0 note=44 velocity=47 time=0
<meta message set_tempo tempo=487805 time=240>
note_on channel=0 note=44 velocity=0 time=0
note_on channel=0 note=71 velocity=0 time=0
note_on channel=0 note=73 velocity=61 time=0
note_on channel=0 note=45 velocity=51 time=0
<meta message set_tempo tempo=500000 time=240>
note_on channel=0 note=45 velocity=0 time=0
note_on channel=0 note=73 velocity=0 time=0
note_on channel=0 note=74 velocity=54 time=0
note_on channel=0 note=47 velocity=47 time=0
<meta message set_tempo tempo=487805 time=240>
note_on channel=0 note=47 velocity=0 time=0
note_on channel=0 note=74 velocity=0 time=0
note_on channel=0 note=76 velocity=66 time=0
note_on channel=0 note=49 velocity=51 time=0
control_change channel=0 control=64 value=127 time=99
<meta message set_tempo tempo=508475 time=141>
note_on channel=0 note=76 velocity=0 time=0
note_on channel=0 note=69 velocity=59 time=0
<meta message set_tempo tempo=487805 time=240>
note_on channel=0 note=69 velocity=0 time=0
note_on channel=0 note=49 velocity=0 time=0
note_on channel=0 note=64 velocity=0 time=0
note_on channel=0 note=69 velocity=64 time=0
note_on channel=0 note=73 velocity=64 time=0
note_on channel=0 note=52 velocity=46 time=0
control_change channel=0 control=64 value=0 time=10
control_change channel=0 control=64 value=127 time=160
<meta message set_tempo tempo=512821 time=70>
note_on channel=0 note=73 velocity=0 time=0
note_on channel=0 note=64 velocity=58 time=0
<meta message set_tempo tempo=487805 time=240>
note_on channel=0 note=64 velocity=0 time=0
note_on channel=0 note=52 velocity=0 time=0
note_on channel=0 note=69 velocity=0 time=0
note_on channel=0 note=68 velocity=64 time=0
note_on channel=0 note=71 velocity=64 time=0
note_on channel=0 note=40 velocity=49 time=0
control_change channel=0 control=64 value=0 time=10
control_change channel=0 control=64 value=127 time=131
<meta message set_tempo tempo=517241 time=99>
note_on channel=0 note=71 velocity=0 time=0
note_on channel=0 note=64 velocity=58 time=0
<meta message set_tempo tempo=495868 time=240>
note_on channel=0 note=64 velocity=0 time=0
note_on channel=0 note=40 velocity=0 time=0
note_on channel=0 note=68 velocity=0 time=0
note_on channel=0 note=69 velocity=64 time=0
note_on channel=0 note=45 velocity=49 time=0
control_change channel=0 control=64 value=0 time=0
control_change channel=0 control=64 value=127 time=141
<meta message set_tempo tempo=526316 time=99>
note_on channel=0 note=69 velocity=0 time=0
note_on channel=0 note=64 velocity=58 time=0
<meta message set_tempo tempo=512821 time=240>
note_on channel=0 note=64 velocity=0 time=0
note_on channel=0 note=45 velocity=0 time=0
note_on channel=0 note=69 velocity=64 time=0
note_on channel=0 note=73 velocity=64 time=0
note_on channel=0 note=85 velocity=58 time=0
control_change channel=0 control=64 value=0 time=3
<meta message set_tempo tempo=495868 time=237>
note_on channel=0 note=85 velocity=0 time=0
note_on channel=0 note=73 velocity=0 time=0
note_on channel=0 note=69 velocity=0 time=0
note_on channel=0 note=68 velocity=59 time=0
note_on channel=0 note=71 velocity=59 time=0
note_on channel=0 note=83 velocity=53 time=0
<meta message set_tempo tempo=504202 time=240>
note_on channel=0 note=83 velocity=0 time=0
note_on channel=0 note=71 velocity=0 time=0
note_on channel=0 note=68 velocity=0 time=0
note_on channel=0 note=69 velocity=61 time=0
note_on channel=0 note=73 velocity=61 time=0
note_on channel=0 note=85 velocity=59 time=0
<meta message set_tempo tempo=500000 time=240>
note_on channel=0 note=85 velocity=0 time=0
note_on channel=0 note=73 velocity=0 time=0
note_on channel=0 note=69 velocity=0 time=0
note_on channel=0 note=71 velocity=54 time=0
note_on channel=0 note=74 velocity=54 time=0
note_on channel=0 note=86 velocity=52 time=0
<meta message set_tempo tempo=487805 time=240>
note_on channel=0 note=86 velocity=0 time=0
note_on channel=0 note=74 velocity=0 time=0
note_on channel=0 note=71 velocity=0 time=0
note_on channel=0 note=73 velocity=66 time=0
note_on channel=0 note=76 velocity=66 time=0
note_on channel=0 note=88 velocity=58 time=0
control_change channel=0 control=64 value=127 time=99
<meta message set_tempo tempo=508475 time=141>
note_on channel=0 note=76 velocity=0 time=0
note_on channel=0 note=73 velocity=0 time=0
note_on channel=0 note=64 velocity=59 time=0
<meta message set_tempo tempo=487805 time=240>
note_on channel=0 note=64 velocity=0 time=0
note_on channel=0 note=88 velocity=0 time=0
note_on channel=0 note=69 velocity=64 time=0
note_on channel=0 note=73 velocity=64 time=0
note_on channel=0 note=85 velocity=62 time=0
control_change channel=0 control=64 value=0 time=10
control_change channel=0 control=64 value=127 time=160
<meta message set_tempo tempo=512821 time=70>
note_on channel=0 note=73 velocity=0 time=0
note_on channel=0 note=69 velocity=0 time=0
note_on channel=0 note=64 velocity=58 time=0
<meta message set_tempo tempo=487805 time=240>
note_on channel=0 note=64 velocity=0 time=0
note_on channel=0 note=85 velocity=0 time=0
note_on channel=0 note=68 velocity=64 time=0
note_on channel=0 note=71 velocity=64 time=0
note_on channel=0 note=83 velocity=59 time=0
control_change channel=0 control=64 value=0 time=10
control_change channel=0 control=64 value=127 time=131
<meta message set_tempo tempo=517241 time=99>
note_on channel=0 note=71 velocity=0 time=0
note_on channel=0 note=68 velocity=0 time=0
note_on channel=0 note=64 velocity=58 time=0
<meta message set_tempo tempo=495868 time=240>
note_on channel=0 note=64 velocity=0 time=0
note_on channel=0 note=83 velocity=0 time=0
note_on channel=0 note=69 velocity=64 time=0
note_on channel=0 note=81 velocity=56 time=0
control_change channel=0 control=64 value=0 time=0
control_change channel=0 control=64 value=127 time=141
<meta message set_tempo tempo=508475 time=99>
note_on channel=0 note=69 velocity=0 time=0
note_on channel=0 note=64 velocity=58 time=0
<meta message set_tempo tempo=487805 time=240>
note_on channel=0 note=64 velocity=0 time=0
note_on channel=0 note=81 velocity=0 time=0
note_on channel=0 note=66 velocity=61 time=0
note_on channel=0 note=50 velocity=36 time=0
note_on channel=0 note=59 velocity=43 time=0
control_change channel=0 control=64 value=0 time=10
control_change channel=0 control=64 value=127 time=110
<meta message set_tempo tempo=500000 time=120>
note_on channel=0 note=66 velocity=0 time=0
note_on channel=0 note=74 velocity=53 time=0
<meta message set_tempo tempo=491803 time=240>
note_on channel=0 note=74 velocity=0 time=0
note_on channel=0 note=59 velocity=0 time=0
note_on channel=0 note=50 velocity=0 time=0
note_on channel=0 note=71 velocity=61 time=0
note_on channel=0 note=62 velocity=38 time=0
note_on channel=0 note=52 velocity=32 time=0
control_change channel=0 control=64 value=0 time=10
control_change channel=0 control=64 value=127 time=110
<meta message set_tempo tempo=508475 time=120>
note_on channel=0 note=71 velocity=0 time=0
note_on channel=0 note=68 velocity=55 time=0
<meta message set_tempo tempo=495868 time=240>
note_on channel=0 note=68 velocity=0 time=0
note_on channel=0 note=52 velocity=0 time=0
note_on channel=0 note=62 velocity=0 time=0
note_on channel=0 note=69 velocity=59 time=0
note_on channel=0 note=61 velocity=43 time=0
note_on channel=0 note=57 velocity=36 time=0
control_change channel=0 control=64 value=0 time=10
control_change channel=0 control=64 value=127 time=110
note_on channel=0 note=69 velocity=0 time=120
note_on channel=0 note=64 velocity=50 time=0
<meta message set_tempo tempo=500000 time=240>
note_on channel=0 note=64 velocity=0 time=0
note_on channel=0 note=57 velocity=0 time=0
note_on channel=0 note=61 velocity=0 time=0
note_on channel=0 note=66 velocity=56 time=0
note_on channel=0 note=50 velocity=32 time=0
note_on channel=0 note=59 velocity=38 time=0
control_change channel=0 control=64 value=0 time=10
control_change channel=0 control=64 value=127 time=105
<meta message set_tempo tempo=512821 time=125>
note_on channel=0 note=66 velocity=0 time=0
note_on channel=0 note=74 velocity=50 time=0
note_on channel=0 note=74 velocity=0 time=240
note_on channel=0 note=59 velocity=0 time=0
note_on channel=0 note=50 velocity=0 time=0
note_on channel=0 note=71 velocity=57 time=0
note_on channel=0 note=62 velocity=43 time=0
note_on channel=0 note=52 velocity=36 time=0
control_change channel=0 control=64 value=0 time=10
control_change channel=0 control=64 value=127 time=127
<meta message set_tempo tempo=526316 time=103>
note_on channel=0 note=71 velocity=0 time=0
note_on channel=0 note=68 velocity=48 time=0
<meta message set_tempo tempo=495868 time=240>
note_on channel=0 note=68 velocity=0 time=0
note_on channel=0 note=52 velocity=0 time=0
note_on channel=0 note=62 velocity=0 time=0
note_on channel=0 note=69 velocity=52 time=0
note_on channel=0 note=57 velocity=34 time=0
note_on channel=0 note=61 velocity=40 time=0
control_change channel=0 control=64 value=0 time=10
control_change channel=0 control=64 value=127 time=116
note_on channel=0 note=69 velocity=0 time=114
note_on channel=0 note=68 velocity=46 time=0
note_on channel=0 note=68 velocity=0 time=240
note_on channel=0 note=61 velocity=0 time=0
note_on channel=0 note=57 velocity=0 time=0
note_on channel=0 note=69 velocity=52 time=0
control_change channel=0 control=64 value=0 time=12
note_on channel=0 note=69 velocity=0 time=228
note_on channel=0 note=71 velocity=45 time=0
<meta message set_tempo tempo=508475 time=240>
note_on channel=0 note=71 velocity=0 time=0
note_on channel=0 note=67 velocity=48 time=0
<meta message set_tempo tempo=555556 time=240>
note_on channel=0 note=67 velocity=0 time=0
note_on channel=0 note=64 velocity=48 time=0
<meta message set_tempo tempo=566038 time=240>
note_on channel=0 note=64 velocity=0 time=0
note_on channel=0 note=66 velocity=42 time=0
note_on channel=0 note=69 velocity=50 time=0
note_on channel=0 note=35 velocity=37 time=0
note_on channel=0 note=47 velocity=44 time=0
control_change channel=0 control=64 value=127 time=120
<meta message set_tempo tempo=540541 time=120>
note_on channel=0 note=69 velocity=0 time=0
note_on channel=0 note=66 velocity=0 time=0
note_on channel=0 note=59 velocity=45 time=0
<meta message set_tempo tempo=512821 time=240>
note_on channel=0 note=59 velocity=0 time=0
note_on channel=0 note=63 velocity=42 time=0
note_on channel=0 note=66 velocity=50 time=0
<meta message set_tempo tempo=491803 time=240>
note_on channel=0 note=66 velocity=0 time=0
note_on channel=0 note=63 velocity=0 time=0
note_on channel=0 note=59 velocity=47 time=0
<meta message set_tempo tempo=504202 time=240>
note_on channel=0 note=59 velocity=0 time=0
note_on channel=0 note=64 velocity=44 time=0
note_on channel=0 note=67 velocity=52 time=0
<meta message set_tempo tempo=540541 time=240>
note_on channel=0 note=67 velocity=0 time=0
note_on channel=0 note=64 velocity=0 time=0
note_on channel=0 note=59 velocity=49 time=0
<meta message set_tempo tempo=526316 time=240>
note_on channel=0 note=59 velocity=0 time=0
note_on channel=0 note=69 velocity=54 time=0
note_on channel=0 note=66 velocity=45 time=0
control_change channel=0 control=64 value=0 time=0
control_change channel=0 control=64 value=127 time=127
<meta message set_tempo tempo=495868 time=113>
note_on channel=0 note=66 velocity=0 time=0
note_on channel=0 note=69 velocity=0 time=0
note_on channel=0 note=59 velocity=48 time=0
<meta message set_tempo tempo=500000 time=240>
note_on channel=0 note=59 velocity=0 time=0
note_on channel=0 note=35 velocity=0 time=0
note_on channel=0 note=47 velocity=0 time=0
note_on channel=0 note=63 velocity=37 time=0
note_on channel=0 note=66 velocity=45 time=0
note_on channel=0 note=84 velocity=54 time=0
control_change channel=0 control=64 value=0 time=10
control_change channel=0 control=64 value=127 time=105
<meta message set_tempo tempo=491803 time=125>
note_on channel=0 note=84 velocity=0 time=0
note_on channel=0 note=66 velocity=0 time=0
note_on channel=0 note=63 velocity=0 time=0
note_on channel=0 note=59 velocity=42 time=0
note_on channel=0 note=83 velocity=50 time=0
<meta message set_tempo tempo=495868 time=240>
note_on channel=0 note=83 velocity=0 time=0
note_on channel=0 note=59 velocity=0 time=0
note_on channel=0 note=64 velocity=39 time=0
note_on channel=0 note=67 velocity=46 time=0
note_on channel=0 note=81 velocity=54 time=0
control_change channel=0 control=64 value=0 time=10
control_change channel=0 control=64 value=127 time=116
<meta message set_tempo tempo=517241 time=114>
note_on channel=0 note=81 velocity=0 time=0
note_on channel=0 note=67 velocity=0 time=0
note_on channel=0 note=64 velocity=0 time=0
note_on channel=0 note=59 velocity=44 time=0
note_on channel=0 note=79 velocity=50 time=0
<meta message set_tempo tempo=500000 time=240>
note_on channel=0 note=79 velocity=0 time=0
note_on channel=0 note=59 velocity=0 time=0
note_on channel=0 note=69 velocity=48 time=0
note_on channel=0 note=66 velocity=40 time=0
note_on channel=0 note=78 velocity=54 time=0
control_change channel=0 control=64 value=0 time=10
control_change channel=0 control=64 value=127 time=93
<meta message set_tempo tempo=495868 time=137>
note_on channel=0 note=66 velocity=0 time=0
note_on channel=0 note=69 velocity=0 time=0
note_on channel=0 note=59 velocity=43 time=0
<meta message set_tempo tempo=495868 time=240>
note_on channel=0 note=59 velocity=0 time=0
note_on channel=0 note=78 velocity=0 time=0
note_on channel=0 note=63 velocity=37 time=0
note_on channel=0 note=66 velocity=45 time=0
note_on channel=0 note=81 velocity=54 time=0
control_change channel=0 control=64 value=0 time=10
control_change channel=0 control=64 value=127 time=127
<meta message set_tempo tempo=491803 time=103>
note_on channel=0 note=81 velocity=0 time=0
note_on channel=0 note=66 velocity=0 time=0
note_on channel=0 note=63 velocity=0 time=0
note_on channel=0 note=59 velocity=42 time=0
note_on channel=0 note=79 velocity=50 time=0
<meta message set_tempo tempo=491803 time=240>
note_on channel=0 note=79 velocity=0 time=0
note_on channel=0 note=59 velocity=0 time=0
note_on channel=0 note=64 velocity=39 time=0
note_on channel=0 note=67 velocity=46 time=0
note_on channel=0 note=78 velocity=55 time=0
control_change channel=0 control=64 value=0 time=10
control_change channel=0 control=64 value=127 time=105
<meta message set_tempo tempo=517241 time=125>
note_on channel=0 note=78 velocity=0 time=0
note_on channel=0 note=67 velocity=0 time=0
note_on channel=0 note=64 velocity=0 time=0
note_on channel=0 note=59 velocity=44 time=0
note_on channel=0 note=76 velocity=50 time=0
<meta message set_tempo tempo=512821 time=240>
note_on channel=0 note=76 velocity=0 time=0
note_on channel=0 note=59 velocity=0 time=0
note_on channel=0 note=69 velocity=48 time=0
note_on channel=0 note=66 velocity=40 time=0
note_on channel=0 note=75 velocity=54 time=0
control_change channel=0 control=64 value=0 time=3
control_change channel=0 control=64 value=127 time=180
<meta message set_tempo tempo=540541 time=57>
<meta message set_tempo tempo=483871 time=240>
note_on channel=0 note=75 velocity=0 time=0
note_on channel=0 note=66 velocity=0 time=0
note_on channel=0 note=69 velocity=0 time=0
note_on channel=0 note=71 velocity=60 time=0
note_on channel=0 note=83 velocity=71 time=0
note_on channel=0 note=47 velocity=49 time=0
note_on channel=0 note=59 velocity=59 time=0
control_change channel=0 control=64 value=0 time=46
note_on channel=0 note=59 velocity=0 time=170
note_on channel=0 note=71 velocity=0 time=0
note_on channel=0 note=83 velocity=0 time=0
note_on channel=0 note=47 velocity=0 time=0
<meta message set_tempo tempo=487805 time=24>
note_on channel=0 note=69 velocity=56 time=0
note_on channel=0 note=81 velocity=66 time=0
note_on channel=0 note=45 velocity=46 time=0
note_on channel=0 note=57 velocity=55 time=0
note_on channel=0 note=57 velocity=0 time=216
note_on channel=0 note=69 velocity=0 time=0
note_on channel=0 note=81 velocity=0 time=0
note_on channel=0 note=45 velocity=0 time=0
<meta message set_tempo tempo=495868 time=24>
note_on channel=0 note=67 velocity=60 time=0
note_on channel=0 note=79 velocity=71 time=0
note_on channel=0 note=43 velocity=49 time=0
note_on channel=0 note=55 velocity=59 time=0
note_on channel=0 note=55 velocity=0 time=216
note_on channel=0 note=67 velocity=0 time=0
note_on channel=0 note=79 velocity=0 time=0
note_on channel=0 note=43 velocity=0 time=0
<meta message set_tempo tempo=512821 time=24>
note_on channel=0 note=66 velocity=56 time=0
note_on channel=0 note=78 velocity=67 time=0
note_on channel=0 note=42 velocity=46 time=0
note_on channel=0 note=54 velocity=55 time=0
note_on channel=0 note=54 velocity=0 time=216
note_on channel=0 note=66 velocity=0 time=0
note_on channel=0 note=78 velocity=0 time=0
note_on channel=0 note=42 velocity=0 time=0
<meta message set_tempo tempo=530973 time=24>
note_on channel=0 note=64 velocity=62 time=0
note_on channel=0 note=76 velocity=74 time=0
note_on channel=0 note=40 velocity=50 time=0
note_on channel=0 note=52 velocity=60 time=0
note_on channel=0 note=52 velocity=0 time=432
note_on channel=0 note=64 velocity=0 time=0
note_on channel=0 note=76 velocity=0 time=0
note_on channel=0 note=40 velocity=0 time=0
<meta message set_tempo tempo=512821 time=48>
note_on channel=0 note=64 velocity=60 time=0
note_on channel=0 note=76 velocity=71 time=0
note_on channel=0 note=40 velocity=46 time=0
note_on channel=0 note=52 velocity=55 time=0
control_change channel=0 control=64 value=127 time=53
note_on channel=0 note=52 velocity=0 time=379
note_on channel=0 note=64 velocity=0 time=0
note_on channel=0 note=76 velocity=0 time=0
note_on channel=0 note=40 velocity=0 time=0
note_on channel=0 note=71 velocity=61 time=48
note_on channel=0 note=83 velocity=73 time=0
note_on channel=0 note=47 velocity=50 time=0
note_on channel=0 note=59 velocity=60 time=0
note_on channel=0 note=59 velocity=0 time=432
note_on channel=0 note=71 velocity=0 time=0
note_on channel=0 note=83 velocity=0 time=0
note_on channel=0 note=47 velocity=0 time=0
<meta message set_tempo tempo=495868 time=48>
note_on channel=0 note=64 velocity=60 time=0
note_on channel=0 note=76 velocity=71 time=0
note_on channel=0 note=40 velocity=46 time=0
note_on channel=0 note=52 velocity=55 time=0
control_change channel=0 control=64 value=0 time=374
note_on channel=0 note=52 velocity=0 time=58
note_on channel=0 note=64 velocity=0 time=0
note_on channel=0 note=76 velocity=0 time=0
note_on channel=0 note=40 velocity=0 time=0
<meta message set_tempo tempo=487805 time=48>
note_on channel=0 note=71 velocity=60 time=0
note_on channel=0 note=83 velocity=71 time=0
note_on channel=0 note=47 velocity=49 time=0
note_on channel=0 note=59 velocity=59 time=0
note_on channel=0 note=59 velocity=0 time=216
note_on channel=0 note=71 velocity=0 time=0
note_on channel=0 note=83 velocity=0 time=0
note_on channel=0 note=47 velocity=0 time=0
<meta message set_tempo tempo=495868 time=24>
note_on channel=0 note=69 velocity=56 time=0
note_on channel=0 note=81 velocity=66 time=0
note_on channel=0 note=45 velocity=46 time=0
note_on channel=0 note=57 velocity=55 time=0
note_on channel=0 note=57 velocity=0 time=216
note_on channel=0 note=69 velocity=0 time=0
note_on channel=0 note=81 velocity=0 time=0
note_on channel=0 note=45 velocity=0 time=0
<meta message set_tempo tempo=504202 time=24>
note_on channel=0 note=67 velocity=60 time=0
note_on channel=0 note=79 velocity=71 time=0
note_on channel=0 note=43 velocity=49 time=0
note_on channel=0 note=55 velocity=59 time=0
note_on channel=0 note=55 velocity=0 time=216
note_on channel=0 note=67 velocity=0 time=0
note_on channel=0 note=79 velocity=0 time=0
note_on channel=0 note=43 velocity=0 time=0
<meta message set_tempo tempo=521739 time=24>
note_on channel=0 note=66 velocity=56 time=0
note_on channel=0 note=78 velocity=67 time=0
note_on channel=0 note=42 velocity=46 time=0
note_on channel=0 note=54 velocity=55 time=0
note_on channel=0 note=54 velocity=0 time=216
note_on channel=0 note=66 velocity=0 time=0
note_on channel=0 note=78 velocity=0 time=0
note_on channel=0 note=42 velocity=0 time=0
<meta message set_tempo tempo=530973 time=24>
note_on channel=0 note=64 velocity=62 time=0
note_on channel=0 note=76 velocity=74 time=0
note_on channel=0 note=40 velocity=50 time=0
note_on channel=0 note=52 velocity=60 time=0
note_on channel=0 note=52 velocity=0 time=432
note_on channel=0 note=64 velocity=0 time=0
note_on channel=0 note=76 velocity=0 time=0
note_on channel=0 note=40 velocity=0 time=0
<meta message set_tempo tempo=512821 time=48>
note_on channel=0 note=64 velocity=60 time=0
note_on channel=0 note=76 velocity=71 time=0
note_on channel=0 note=40 velocity=46 time=0
note_on channel=0 note=52 velocity=55 time=0
control_change channel=0 control=64 value=127 time=25
note_on channel=0 note=52 velocity=0 time=407
note_on channel=0 note=64 velocity=0 time=0
note_on channel=0 note=76 velocity=0 time=0
note_on channel=0 note=40 velocity=0 time=0
note_on channel=0 note=71 velocity=61 time=48
note_on channel=0 note=83 velocity=73 time=0
note_on channel=0 note=47 velocity=50 time=0
note_on channel=0 note=59 velocity=60 time=0
note_on channel=0 note=59 velocity=0 time=432
note_on channel=0 note=71 velocity=0 time=0
note_on channel=0 note=83 velocity=0 time=0
note_on channel=0 note=47 velocity=0 time=0
<meta message set_tempo tempo=530973 time=48>
note_on channel=0 note=64 velocity=60 time=0
note_on channel=0 note=76 velocity=71 time=0
note_on channel=0 note=40 velocity=46 time=0
note_on channel=0 note=52 velocity=55 time=0
control_change channel=0 control=64 value=0 time=307
note_on channel=0 note=52 velocity=0 time=125
note_on channel=0 note=64 velocity=0 time=0
note_on channel=0 note=76 velocity=0 time=0
note_on channel=0 note=40 velocity=0 time=0
<meta message set_tempo tempo=504202 time=48>
note_on channel=0 note=76 velocity=50 time=0
note_on channel=0 note=76 velocity=0 time=180
<meta message set_tempo tempo=517241 time=60>
note_on channel=0 note=74 velocity=46 time=0
note_on channel=0 note=74 velocity=0 time=180
<meta message set_tempo tempo=504202 time=60>
note_on channel=0 note=76 velocity=50 time=0
note_on channel=0 note=76 velocity=0 time=180
<meta message set_tempo tempo=517241 time=60>
note_on channel=0 note=77 velocity=47 time=0
note_on channel=0 note=77 velocity=0 time=180
note_on channel=0 note=79 velocity=51 time=60
note_on channel=0 note=60 velocity=42 time=0
control_change channel=0 control=64 value=127 time=0
<meta message set_tempo tempo=508475 time=240>
note_on channel=0 note=64 velocity=39 time=0
note_on channel=0 note=64 velocity=0 time=240
note_on channel=0 note=79 velocity=0 time=0
note_on channel=0 note=79 velocity=53 time=0
note_on channel=0 note=67 velocity=42 time=0
note_on channel=0 note=67 velocity=0 time=240
note_on channel=0 note=64 velocity=39 time=0
note_on channel=0 note=64 velocity=0 time=240
note_on channel=0 note=60 velocity=0 time=0
note_on channel=0 note=59 velocity=35 time=0
note_on channel=0 note=65 velocity=42 time=0
control_change channel=0 control=64 value=0 time=9
control_change channel=0 control=64 value=127 time=84
<meta message set_tempo tempo=512821 time=147>
note_on channel=0 note=65 velocity=0 time=0
note_on channel=0 note=79 velocity=0 time=0
note_on channel=0 note=79 velocity=50 time=0
note_on channel=0 note=62 velocity=37 time=0
<meta message set_tempo tempo=508475 time=240>
note_on channel=0 note=62 velocity=0 time=0
note_on channel=0 note=79 velocity=0 time=0
note_on channel=0 note=59 velocity=0 time=0
note_on channel=0 note=84 velocity=55 time=0
note_on channel=0 note=60 velocity=42 time=0
control_change channel=0 control=64 value=0 time=9
control_change channel=0 control=64 value=127 time=128
note_on channel=0 note=64 velocity=37 time=103
<meta message set_tempo tempo=500000 time=240>
note_on channel=0 note=64 velocity=0 time=0
note_on channel=0 note=84 velocity=0 time=0
note_on channel=0 note=79 velocity=50 time=0
note_on channel=0 note=67 velocity=42 time=0
note_on channel=0 note=67 velocity=0 time=240
note_on channel=0 note=64 velocity=37 time=0
note_on channel=0 note=64 velocity=0 time=240
note_on channel=0 note=79 velocity=0 time=0
note_on channel=0 note=60 velocity=0 time=0
note_on channel=0 note=59 velocity=35 time=0
note_on channel=0 note=65 velocity=42 time=0
control_change channel=0 control=64 value=0 time=10
control_change channel=0 control=64 value=127 time=70
<meta message set_tempo tempo=517241 time=160>
note_on channel=0 note=65 velocity=0 time=0
note_on channel=0 note=62 velocity=38 time=0
<meta message set_tempo tempo=504202 time=240>
note_on channel=0 note=62 velocity=0 time=0
note_on channel=0 note=59 velocity=0 time=0
note_on channel=0 note=79 velocity=56 time=0
note_on channel=0 note=60 velocity=46 time=0
control_change channel=0 control=64 value=0 time=11
control_change channel=0 control=64 value=127 time=126
<meta message set_tempo tempo=491803 time=103>
note_on channel=0 note=64 velocity=42 time=0
<meta message set_tempo tempo=500000 time=240>
note_on channel=0 note=64 velocity=0 time=0
note_on channel=0 note=79 velocity=0 time=0
note_on channel=0 note=79 velocity=58 time=0
note_on channel=0 note=67 velocity=46 time=0
note_on channel=0 note=67 velocity=0 time=240
note_on channel=0 note=64 velocity=42 time=0
<meta message set_tempo tempo=508475 time=240>
note_on channel=0 note=64 velocity=0 time=0
note_on channel=0 note=60 velocity=0 time=0
note_on channel=0 note=59 velocity=38 time=0
note_on channel=0 note=65 velocity=46 time=0
control_change channel=0 control=64 value=0 time=6
control_change channel=0 control=64 value=127 time=109
note_on channel=0 note=65 velocity=0 time=125
note_on channel=0 note=79 velocity=0 time=0
note_on channel=0 note=79 velocity=55 time=0
note_on channel=0 note=62 velocity=40 time=0
<meta message set_tempo tempo=504202 time=240>
note_on channel=0 note=62 velocity=0 time=0
note_on channel=0 note=79 velocity=0 time=0
note_on channel=0 note=59 velocity=0 time=0
note_on channel=0 note=84 velocity=60 time=0
note_on channel=0 note=60 velocity=46 time=0
control_change channel=0 control=64 value=0 time=10
control_change channel=0 control=64 value=127 time=82
<meta message set_tempo tempo=491803 time=148>
note_on channel=0 note=64 velocity=40 time=0
<meta message set_tempo tempo=495868 time=240>
note_on channel=0 note=64 velocity=0 time=0
note_on channel=0 note=84 velocity=0 time=0
note_on channel=0 note=79 velocity=55 time=0
note_on channel=0 note=67 velocity=46 time=0
note_on channel=0 note=67 velocity=0 time=240
note_on channel=0 note=64 velocity=40 time=0
<meta message set_tempo tempo=500000 time=240>
note_on channel=0 note=64 velocity=0 time=0
note_on channel=0 note=79 velocity=0 time=0
note_on channel=0 note=60 velocity=0 time=0
note_on channel=0 note=60 velocity=46 time=0
<meta message set_tempo tempo=535714 time=240>
note_on channel=0 note=60 velocity=0 time=0
note_on channel=0 note=64 velocity=41 time=0
note_on channel=0 note=79 velocity=61 time=120
<meta message set_tempo tempo=500000 time=120>
note_on channel=0 note=79 velocity=0 time=0
note_on channel=0 note=64 velocity=0 time=0
note_on channel=0 note=88 velocity=70 time=0
note_on channel=0 note=58 velocity=53 time=0
control_change channel=0 control=64 value=0 time=10
control_change channel=0 control=64 value=127 time=61
<meta message set_tempo tempo=491803 time=169>
note_on channel=0 note=60 velocity=45 time=0
<meta message set_tempo tempo=500000 time=240>
note_on channel=0 note=60 velocity=0 time=0
note_on channel=0 note=88 velocity=0 time=0
note_on channel=0 note=79 velocity=55 time=0
note_on channel=0 note=64 velocity=51 time=0
note_on channel=0 note=64 velocity=0 time=240
note_on channel=0 note=67 velocity=43 time=0
<meta message set_tempo tempo=500000 time=240>
note_on channel=0 note=67 velocity=0 time=0
note_on channel=0 note=79 velocity=0 time=0
note_on channel=0 note=58 velocity=0 time=0
note_on channel=0 note=64 velocity=52 time=0
<meta message set_tempo tempo=521739 time=240>
note_on channel=0 note=64 velocity=0 time=0
note_on channel=0 note=60 velocity=46 time=0
note_on channel=0 note=79 velocity=65 time=120
<meta message set_tempo tempo=500000 time=120>
note_on channel=0 note=79 velocity=0 time=0
note_on channel=0 note=60 velocity=0 time=0
note_on channel=0 note=88 velocity=74 time=0
note_on channel=0 note=57 velocity=58 time=0
control_change channel=0 control=64 value=0 time=10
control_change channel=0 control=64 value=127 time=103
<meta message set_tempo tempo=487805 time=127>
note_on channel=0 note=61 velocity=51 time=0
note_on channel=0 note=61 velocity=0 time=240
note_on channel=0 note=88 velocity=0 time=0
note_on channel=0 note=79 velocity=61 time=0
note_on channel=0 note=64 velocity=58 time=0
<meta message set_tempo tempo=495868 time=120>
note_on channel=0 note=64 velocity=0 time=120
note_on channel=0 note=67 velocity=50 time=0
<meta message set_tempo tempo=495868 time=240>
note_on channel=0 note=67 velocity=0 time=0
note_on channel=0 note=79 velocity=0 time=0
note_on channel=0 note=57 velocity=0 time=0
note_on channel=0 note=64 velocity=58 time=0
<meta message set_tempo tempo=521739 time=240>
note_on channel=0 note=64 velocity=0 time=0
note_on channel=0 note=61 velocity=51 time=0
note_on channel=0 note=79 velocity=55 time=120
<meta message set_tempo tempo=487805 time=120>
note_on channel=0 note=79 velocity=0 time=0
note_on channel=0 note=61 velocity=0 time=0
note_on channel=0 note=79 velocity=60 time=0
note_on channel=0 note=57 velocity=48 time=0
note_on channel=0 note=62 velocity=57 time=0
control_change channel=0 control=64 value=0 time=0
note_on channel=0 note=79 velocity=0 time=240
note_on channel=0 note=77 velocity=58 time=0
<meta message set_tempo tempo=495868 time=240>
note_on channel=0 note=77 velocity=0 time=0
note_on channel=0 note=76 velocity=58 time=0
note_on channel=0 note=76 velocity=0 time=240
note_on channel=0 note=77 velocity=54 time=0
note_on channel=0 note=77 velocity=0 time=240
note_on channel=0 note=62 velocity=0 time=0
note_on channel=0 note=57 velocity=0 time=0
note_on channel=0 note=76 velocity=58 time=0
note_on channel=0 note=56 velocity=41 time=0
note_on channel=0 note=64 velocity=49 time=0
note_on channel=0 note=64 velocity=0 time=240
note_on channel=0 note=76 velocity=0 time=0
note_on channel=0 note=74 velocity=55 time=0
note_on channel=0 note=65 velocity=43 time=0
<meta message set_tempo tempo=491803 time=240>
note_on channel=0 note=65 velocity=0 time=0
note_on channel=0 note=74 velocity=0 time=0
note_on channel=0 note=56 velocity=0 time=0
note_on channel=0 note=73 velocity=58 time=0
note_on channel=0 note=57 velocity=44 time=0
note_on channel=0 note=64 velocity=52 time=0
<meta message set_tempo tempo=504202 time=240>
note_on channel=0 note=73 velocity=0 time=0
note_on channel=0 note=80 velocity=55 time=0
<meta message set_tempo tempo=483871 time=240>
note_on channel=0 note=80 velocity=0 time=0
note_on channel=0 note=64 velocity=0 time=0
note_on channel=0 note=57 velocity=0 time=0
note_on channel=0 note=81 velocity=58 time=0
<meta message set_tempo tempo=491803 time=240>
note_on channel=0 note=81 velocity=0 time=0
note_on channel=0 note=80 velocity=55 time=0
note_on channel=0 note=80 velocity=0 time=240
note_on channel=0 note=81 velocity=58 time=0
note_on channel=0 note=81 velocity=0 time=240
note_on channel=0 note=76 velocity=55 time=0
<meta message set_tempo tempo=487805 time=240>
note_on channel=0 note=76 velocity=0 time=0
note_on channel=0 note=79 velocity=60 time=0
note_on channel=0 note=62 velocity=43 time=0
note_on channel=0 note=58 velocity=43 time=0
note_on channel=0 note=68 velocity=51 time=0
control_change channel=0 control=64 value=0 time=0
note_on channel=0 note=79 velocity=0 time=240
note_on channel=0 note=77 velocity=58 time=0
<meta message set_tempo tempo=495868 time=240>
note_on channel=0 note=77 velocity=0 time=0
note_on channel=0 note=76 velocity=58 time=0
note_on channel=0 note=76 velocity=0 time=240
note_on channel=0 note=77 velocity=54 time=0
note_on channel=0 note=77 velocity=0 time=240
note_on channel=0 note=76 velocity=58 time=0
note_on channel=0 note=76 velocity=0 time=240
note_on channel=0 note=74 velocity=55 time=0
<meta message set_tempo tempo=487805 time=240>
note_on channel=0 note=74 velocity=0 time=0
note_on channel=0 note=68 velocity=0 time=0
note_on channel=0 note=58 velocity=0 time=0
note_on channel=0 note=62 velocity=0 time=0
note_on channel=0 note=81 velocity=58 time=0
note_on channel=0 note=61 velocity=44 time=0
note_on channel=0 note=57 velocity=44 time=0
note_on channel=0 note=69 velocity=52 time=0
<meta message set_tempo tempo=504202 time=240>
note_on channel=0 note=81 velocity=0 time=0
note_on channel=0 note=80 velocity=55 time=0
<meta message set_tempo tempo=483871 time=240>
note_on channel=0 note=80 velocity=0 time=0
note_on channel=0 note=69 velocity=0 time=0
note_on channel=0 note=57 velocity=0 time=0
note_on channel=0 note=61 velocity=0 time=0
note_on channel=0 note=81 velocity=58 time=0
<meta message set_tempo tempo=495868 time=240>
note_on channel=0 note=81 velocity=0 time=0
note_on channel=0 note=76 velocity=55 time=0
note_on channel=0 note=76 velocity=0 time=240
note_on channel=0 note=77 velocity=58 time=0
note_on channel=0 note=57 velocity=37 time=0
note_on channel=0 note=62 velocity=37 time=0
note_on channel=0 note=65 velocity=44 time=0
note_on channel=0 note=77 velocity=0 time=240
note_on channel=0 note=74 velocity=55 time=0
<meta message set_tempo tempo=487805 time=240>
note_on channel=0 note=74 velocity=0 time=0
note_on channel=0 note=65 velocity=0 time=0
note_on channel=0 note=62 velocity=0 time=0
note_on channel=0 note=57 velocity=0 time=0
note_on channel=0 note=81 velocity=58 time=0
note_on channel=0 note=61 velocity=44 time=0
note_on channel=0 note=57 velocity=44 time=0
note_on channel=0 note=64 velocity=52 time=0
<meta message set_tempo tempo=504202 time=240>
note_on channel=0 note=81 velocity=0 time=0
note_on channel=0 note=80 velocity=55 time=0
<meta message set_tempo tempo=483871 time=240>
note_on channel=0 note=80 velocity=0 time=0
note_on channel=0 note=64 velocity=0 time=0
note_on channel=0 note=57 velocity=0 time=0
note_on channel=0 note=61 velocity=0 time=0
note_on channel=0 note=81 velocity=58 time=0
<meta message set_tempo tempo=491803 time=240>
note_on channel=0 note=81 velocity=0 time=0
note_on channel=0 note=76 velocity=55 time=0
note_on channel=0 note=76 velocity=0 time=240
note_on channel=0 note=77 velocity=58 time=0
note_on channel=0 note=57 velocity=37 time=0
note_on channel=0 note=62 velocity=37 time=0
note_on channel=0 note=65 velocity=44 time=0
note_on channel=0 note=77 velocity=0 time=240
note_on channel=0 note=74 velocity=49 time=0
<meta message set_tempo tempo=500000 time=236>
note_on channel=0 note=74 velocity=0 time=4
note_on channel=0 note=65 velocity=0 time=0
note_on channel=0 note=62 velocity=0 time=0
note_on channel=0 note=57 velocity=0 time=0
note_on channel=0 note=69 velocity=51 time=0
note_on channel=0 note=57 velocity=44 time=0
note_on channel=0 note=61 velocity=44 time=0
note_on channel=0 note=64 velocity=52 time=0
<meta message set_tempo tempo=504202 time=236>
note_on channel=0 note=69 velocity=0 time=4
note_on channel=0 note=68 velocity=45 time=0
<meta message set_tempo tempo=508475 time=212>
note_on channel=0 note=68 velocity=0 time=28
note_on channel=0 note=64 velocity=0 time=0
note_on channel=0 note=61 velocity=0 time=0
note_on channel=0 note=57 velocity=0 time=0
note_on channel=0 note=69 velocity=51 time=0
<meta message set_tempo tempo=512821 time=236>
note_on channel=0 note=69 velocity=0 time=4
note_on channel=0 note=68 velocity=47 time=0
note_on channel=0 note=68 velocity=0 time=240
note_on channel=0 note=69 velocity=51 time=0
<meta message set_tempo tempo=517241 time=20>
<meta message set_tempo tempo=521739 time=72>
<meta message set_tempo tempo=526316 time=72>
<meta message set_tempo tempo=530973 time=72>
note_on channel=0 note=69 velocity=0 time=4
note_on channel=0 note=68 velocity=44 time=0
<meta message set_tempo tempo=535714 time=68>
<meta message set_tempo tempo=540541 time=48>
<meta message set_tempo tempo=731707 time=4>
<meta message set_tempo tempo=566038 time=120>
note_on channel=0 note=68 velocity=0 time=0
note_on channel=0 note=66 velocity=42 time=0
note_on channel=0 note=69 velocity=50 time=0
note_on channel=0 note=38 velocity=37 time=0
note_on channel=0 note=50 velocity=44 time=0
control_change channel=0 control=64 value=127 time=0
<meta message set_tempo tempo=540541 time=240>
note_on channel=0 note=69 velocity=0 time=0
note_on channel=0 note=66 velocity=0 time=0
note_on channel=0 note=57 velocity=45 time=0
<meta message set_tempo tempo=512821 time=240>
note_on channel=0 note=57 velocity=0 time=0
note_on channel=0 note=62 velocity=42 time=0
note_on channel=0 note=66 velocity=50 time=0
<meta message set_tempo tempo=491803 time=240>
note_on channel=0 note=66 velocity=0 time=0
note_on channel=0 note=62 velocity=0 time=0
note_on channel=0 note=57 velocity=47 time=0
<meta message set_tempo tempo=504202 time=240>
note_on channel=0 note=57 velocity=0 time=0
note_on channel=0 note=64 velocity=44 time=0
note_on channel=0 note=67 velocity=52 time=0
<meta message set_tempo tempo=540541 time=240>
note_on channel=0 note=67 velocity=0 time=0
note_on channel=0 note=64 velocity=0 time=0
note_on channel=0 note=57 velocity=49 time=0
<meta message set_tempo tempo=526316 time=240>
note_on channel=0 note=57 velocity=0 time=0
note_on channel=0 note=69 velocity=54 time=0
note_on channel=0 note=66 velocity=45 time=0
control_change channel=0 control=64 value=0 time=0
control_change channel=0 control=64 value=127 time=127
<meta message set_tempo tempo=495868 time=113>
note_on channel=0 note=66 velocity=0 time=0
note_on channel=0 note=69 velocity=0 time=0
note_on channel=0 note=62 velocity=48 time=0
<meta message set_tempo tempo=495868 time=240>
note_on channel=0 note=62 velocity=0 time=0
note_on channel=0 note=38 velocity=0 time=0
note_on channel=0 note=50 velocity=0 time=0
note_on channel=0 note=71 velocity=42 time=0
note_on channel=0 note=74 velocity=50 time=0
control_change channel=0 control=64 value=0 time=10
control_change channel=0 control=64 value=127 time=160
<meta message set_tempo tempo=500000 time=70>
note_on channel=0 note=74 velocity=0 time=0
note_on channel=0 note=71 velocity=0 time=0
note_on channel=0 note=69 velocity=39 time=0
note_on channel=0 note=73 velocity=47 time=0
<meta message set_tempo tempo=508475 time=240>
note_on channel=0 note=73 velocity=0 time=0
note_on channel=0 note=69 velocity=0 time=0
note_on channel=0 note=67 velocity=42 time=0
note_on channel=0 note=71 velocity=50 time=0
control_change channel=0 control=64 value=0 time=10
control_change channel=0 control=64 value=127 time=146
<meta message set_tempo tempo=500000 time=84>
note_on channel=0 note=71 velocity=0 time=0
note_on channel=0 note=67 velocity=0 time=0
note_on channel=0 note=66 velocity=39 time=0
note_on channel=0 note=69 velocity=47 time=0
<meta message set_tempo tempo=495868 time=240>
note_on channel=0 note=69 velocity=0 time=0
note_on channel=0 note=66 velocity=0 time=0
note_on channel=0 note=67 velocity=50 time=0
note_on channel=0 note=47 velocity=53 time=0
control_change channel=0 control=64 value=0 time=0
control_change channel=0 control=64 value=127 time=141
<meta message set_tempo tempo=504202 time=99>
note_on channel=0 note=67 velocity=0 time=0
note_on channel=0 note=62 velocity=45 time=0
<meta message set_tempo tempo=500000 time=240>
note_on channel=0 note=62 velocity=0 time=0
note_on channel=0 note=47 velocity=0 time=0
note_on channel=0 note=66 velocity=45 time=0
note_on channel=0 note=69 velocity=53 time=0
note_on channel=0 note=45 velocity=49 time=0
control_change channel=0 control=64 value=0 time=10
control_change channel=0 control=64 value=127 time=117
<meta message set_tempo tempo=526316 time=113>
note_on channel=0 note=69 velocity=0 time=0
note_on channel=0 note=66 velocity=0 time=0
note_on channel=0 note=62 velocity=47 time=0
<meta message set_tempo tempo=504202 time=240>
note_on channel=0 note=62 velocity=0 time=0
note_on channel=0 note=45 velocity=0 time=0
note_on channel=0 note=67 velocity=45 time=0
note_on channel=0 note=71 velocity=54 time=0
note_on channel=0 note=43 velocity=47 time=0
control_change channel=0 control=64 value=0 time=10
control_change channel=0 control=64 value=127 time=188
<meta message set_tempo tempo=526316 time=42>
note_on channel=0 note=71 velocity=0 time=0
note_on channel=0 note=67 velocity=0 time=0
note_on channel=0 note=62 velocity=47 time=0
<meta message set_tempo tempo=526316 time=240>
note_on channel=0 note=62 velocity=0 time=0
note_on channel=0 note=43 velocity=0 time=0
note_on channel=0 note=69 velocity=54 time=0
note_on channel=0 note=66 velocity=45 time=0
note_on channel=0 note=50 velocity=53 time=0
control_change channel=0 control=64 value=0 time=0
control_change channel=0 control=64 value=127 time=127
<meta message set_tempo tempo=495868 time=113>
note_on channel=0 note=66 velocity=0 time=0
note_on channel=0 note=69 velocity=0 time=0
note_on channel=0 note=62 velocity=48 time=0
<meta message set_tempo tempo=495868 time=240>
note_on channel=0 note=62 velocity=0 time=0
note_on channel=0 note=50 velocity=0 time=0
note_on channel=0 note=71 velocity=39 time=0
note_on channel=0 note=74 velocity=47 time=0
note_on channel=0 note=86 velocity=55 time=0
control_change channel=0 control=64 value=0 time=10
control_change channel=0 control=64 value=127 time=160
<meta message set_tempo tempo=500000 time=70>
note_on channel=0 note=86 velocity=0 time=0
note_on channel=0 note=74 velocity=0 time=0
note_on channel=0 note=71 velocity=0 time=0
note_on channel=0 note=69 velocity=37 time=0
note_on channel=0 note=73 velocity=44 time=0
note_on channel=0 note=85 velocity=51 time=0
<meta message set_tempo tempo=508475 time=240>
note_on channel=0 note=85 velocity=0 time=0
note_on channel=0 note=73 velocity=0 time=0
note_on channel=0 note=69 velocity=0 time=0
note_on channel=0 note=67 velocity=39 time=0
note_on channel=0 note=71 velocity=47 time=0
note_on channel=0 note=83 velocity=55 time=0
control_change channel=0 control=64 value=0 time=10
control_change channel=0 control=64 value=127 time=146
<meta message set_tempo tempo=500000 time=84>
note_on channel=0 note=83 velocity=0 time=0
note_on channel=0 note=71 velocity=0 time=0
note_on channel=0 note=67 velocity=0 time=0
note_on channel=0 note=66 velocity=37 time=0
note_on channel=0 note=69 velocity=44 time=0
note_on channel=0 note=81 velocity=51 time=0
<meta message set_tempo tempo=495868 time=240>
note_on channel=0 note=81 velocity=0 time=0
note_on channel=0 note=69 velocity=0 time=0
note_on channel=0 note=66 velocity=0 time=0
note_on channel=0 note=64 velocity=42 time=0
note_on channel=0 note=67 velocity=47 time=0
note_on channel=0 note=79 velocity=55 time=0
control_change channel=0 control=64 value=0 time=0
control_change channel=0 control=64 value=127 time=141
<meta message set_tempo tempo=504202 time=99>
note_on channel=0 note=67 velocity=0 time=0
note_on channel=0 note=64 velocity=0 time=0
note_on channel=0 note=62 velocity=42 time=0
<meta message set_tempo tempo=500000 time=240>
note_on channel=0 note=62 velocity=0 time=0
note_on channel=0 note=79 velocity=0 time=0
note_on channel=0 note=66 velocity=42 time=0
note_on channel=0 note=69 velocity=50 time=0
note_on channel=0 note=81 velocity=58 time=0
control_change channel=0 control=64 value=0 time=10
control_change channel=0 control=64 value=127 time=117
<meta message set_tempo tempo=526316 time=113>
note_on channel=0 note=69 velocity=0 time=0
note_on channel=0 note=66 velocity=0 time=0
note_on channel=0 note=62 velocity=44 time=0
<meta message set_tempo tempo=504202 time=240>
note_on channel=0 note=62 velocity=0 time=0
note_on channel=0 note=81 velocity=0 time=0
note_on channel=0 note=67 velocity=42 time=0
note_on channel=0 note=71 velocity=51 time=0
note_on channel=0 note=83 velocity=59 time=0
control_change channel=0 control=64 value=0 time=10
control_change channel=0 control=64 value=127 time=188
<meta message set_tempo tempo=526316 time=42>
note_on channel=0 note=71 velocity=0 time=0
note_on channel=0 note=67 velocity=0 time=0
note_on channel=0 note=62 velocity=44 time=0
<meta message set_tempo tempo=526316 time=240>
note_on channel=0 note=62 velocity=0 time=0
note_on channel=0 note=83 velocity=0 time=0
note_on channel=0 note=69 velocity=51 time=0
note_on channel=0 note=66 velocity=42 time=0
note_on channel=0 note=81 velocity=59 time=0
control_change channel=0 control=64 value=0 time=0
control_change channel=0 control=64 value=127 time=127
<meta message set_tempo tempo=495868 time=113>
note_on channel=0 note=66 velocity=0 time=0
note_on channel=0 note=69 velocity=0 time=0
note_on channel=0 note=62 velocity=45 time=0
<meta message set_tempo tempo=495868 time=240>
note_on channel=0 note=62 velocity=0 time=0
note_on channel=0 note=81 velocity=0 time=0
note_on channel=0 note=67 velocity=42 time=0
note_on channel=0 note=71 velocity=50 time=0
control_change channel=0 control=64 value=0 time=10
control_change channel=0 control=64 value=127 time=160
<meta message set_tempo tempo=500000 time=70>
note_on channel=0 note=71 velocity=0 time=0
note_on channel=0 note=67 velocity=0 time=0
note_on channel=0 note=66 velocity=39 time=0
note_on channel=0 note=69 velocity=47 time=0
<meta message set_tempo tempo=508475 time=240>
note_on channel=0 note=69 velocity=0 time=0
note_on channel=0 note=66 velocity=0 time=0
note_on channel=0 note=64 velocity=42 time=0
note_on channel=0 note=67 velocity=50 time=0
control_change channel=0 control=64 value=0 time=10
control_change channel=0 control=64 value=127 time=146
<meta message set_tempo tempo=500000 time=84>
note_on channel=0 note=67 velocity=0 time=0
note_on channel=0 note=64 velocity=0 time=0
note_on channel=0 note=62 velocity=39 time=0
note_on channel=0 note=66 velocity=47 time=0
<meta message set_tempo tempo=495868 time=240>
note_on channel=0 note=66 velocity=0 time=0
note_on channel=0 note=62 velocity=0 time=0
note_on channel=0 note=61 velocity=45 time=0
note_on channel=0 note=64 velocity=50 time=0
note_on channel=0 note=45 velocity=53 time=0
control_change channel=0 control=64 value=0 time=0
control_change channel=0 control=64 value=127 time=141
<meta message set_tempo tempo=504202 time=99>
note_on channel=0 note=64 velocity=0 time=0
note_on channel=0 note=61 velocity=0 time=0
note_on channel=0 note=57 velocity=45 time=0
<meta message set_tempo tempo=500000 time=240>
note_on channel=0 note=57 velocity=0 time=0
note_on channel=0 note=45 velocity=0 time=0
note_on channel=0 note=62 velocity=45 time=0
note_on channel=0 note=69 velocity=53 time=0
note_on channel=0 note=42 velocity=49 time=0
control_change channel=0 control=64 value=0 time=10
control_change channel=0 control=64 value=127 time=117
<meta message set_tempo tempo=526316 time=113>
note_on channel=0 note=69 velocity=0 time=0
note_on channel=0 note=62 velocity=0 time=0
note_on channel=0 note=57 velocity=47 time=0
<meta message set_tempo tempo=504202 time=240>
note_on channel=0 note=57 velocity=0 time=0
note_on channel=0 note=42 velocity=0 time=0
note_on channel=0 note=62 velocity=45 time=0
note_on channel=0 note=66 velocity=54 time=0
note_on channel=0 note=38 velocity=47 time=0
control_change channel=0 control=64 value=0 time=10
control_change channel=0 control=64 value=127 time=188
<meta message set_tempo tempo=526316 time=42>
note_on channel=0 note=66 velocity=0 time=0
note_on channel=0 note=62 velocity=0 time=0
note_on channel=0 note=57 velocity=47 time=0
<meta message set_tempo tempo=526316 time=240>
note_on channel=0 note=57 velocity=0 time=0
note_on channel=0 note=38 velocity=0 time=0
note_on channel=0 note=64 velocity=54 time=0
note_on channel=0 note=61 velocity=45 time=0
note_on channel=0 note=45 velocity=53 time=0
control_change channel=0 control=64 value=0 time=0
control_change channel=0 control=64 value=127 time=127
<meta message set_tempo tempo=495868 time=113>
note_on channel=0 note=61 velocity=0 time=0
note_on channel=0 note=64 velocity=0 time=0
note_on channel=0 note=57 velocity=48 time=0
<meta message set_tempo tempo=495868 time=240>
note_on channel=0 note=57 velocity=0 time=0
note_on channel=0 note=45 velocity=0 time=0
note_on channel=0 note=67 velocity=39 time=0
note_on channel=0 note=71 velocity=47 time=0
note_on channel=0 note=83 velocity=55 time=0
control_change channel=0 control=64 value=0 time=10
control_change channel=0 control=64 value=127 time=160
<meta message set_tempo tempo=500000 time=70>
note_on channel=0 note=83 velocity=0 time=0
note_on channel=0 note=71 velocity=0 time=0
note_on channel=0 note=67 velocity=0 time=0
note_on channel=0 note=66 velocity=37 time=0
note_on channel=0 note=69 velocity=44 time=0
note_on channel=0 note=81 velocity=51 time=0
<meta message set_tempo tempo=508475 time=240>
note_on channel=0 note=81 velocity=0 time=0
note_on channel=0 note=69 velocity=0 time=0
note_on channel=0 note=66 velocity=0 time=0
note_on channel=0 note=64 velocity=39 time=0
note_on channel=0 note=67 velocity=47 time=0
note_on channel=0 note=79 velocity=55 time=0
control_change channel=0 control=64 value=0 time=10
control_change channel=0 control=64 value=127 time=146
<meta message set_tempo tempo=500000 time=84>
note_on channel=0 note=79 velocity=0 time=0
note_on channel=0 note=67 velocity=0 time=0
note_on channel=0 note=64 velocity=0 time=0
note_on channel=0 note=62 velocity=37 time=0
note_on channel=0 note=66 velocity=44 time=0
note_on channel=0 note=78 velocity=51 time=0
note_on channel=0 note=78 velocity=0 time=180
note_on channel=0 note=80 velocity=48 time=0
<meta message set_tempo tempo=491803 time=60>
note_on channel=0 note=80 velocity=0 time=0
note_on channel=0 note=66 velocity=0 time=0
note_on channel=0 note=62 velocity=0 time=0
note_on channel=0 note=61 velocity=42 time=0
note_on channel=0 note=64 velocity=47 time=0
note_on channel=0 note=81 velocity=63 time=0
control_change channel=0 control=64 value=0 time=0
control_change channel=0 control=64 value=127 time=141
<meta message set_tempo tempo=504202 time=99>
note_on channel=0 note=64 velocity=0 time=0
note_on channel=0 note=61 velocity=0 time=0
note_on channel=0 note=57 velocity=42 time=0
note_on channel=0 note=81 velocity=0 time=120
note_on channel=0 note=80 velocity=48 time=60
<meta message set_tempo tempo=491803 time=60>
note_on channel=0 note=80 velocity=0 time=0
note_on channel=0 note=57 velocity=0 time=0
note_on channel=0 note=66 velocity=42 time=0
note_on channel=0 note=69 velocity=50 time=0
note_on channel=0 note=81 velocity=63 time=0
control_change channel=0 control=64 value=0 time=10
control_change channel=0 control=64 value=127 time=117
<meta message set_tempo tempo=504202 time=113>
note_on channel=0 note=69 velocity=0 time=0
note_on channel=0 note=66 velocity=0 time=0
note_on channel=0 note=57 velocity=44 time=0
note_on channel=0 note=81 velocity=0 time=120
note_on channel=0 note=80 velocity=48 time=60
<meta message set_tempo tempo=495868 time=60>
note_on channel=0 note=80 velocity=0 time=0
note_on channel=0 note=57 velocity=0 time=0
note_on channel=0 note=62 velocity=42 time=0
note_on channel=0 note=66 velocity=51 time=0
note_on channel=0 note=81 velocity=64 time=0
control_change channel=0 control=64 value=0 time=10
control_change channel=0 control=64 value=127 time=188
<meta message set_tempo tempo=504202 time=42>
note_on channel=0 note=66 velocity=0 time=0
note_on channel=0 note=62 velocity=0 time=0
note_on channel=0 note=57 velocity=44 time=0
note_on channel=0 note=81 velocity=0 time=120
note_on channel=0 note=80 velocity=48 time=60
<meta message set_tempo tempo=526316 time=60>
note_on channel=0 note=80 velocity=0 time=0
note_on channel=0 note=57 velocity=0 time=0
note_on channel=0 note=64 velocity=51 time=0
note_on channel=0 note=61 velocity=42 time=0
note_on channel=0 note=81 velocity=64 time=0
control_change channel=0 control=64 value=0 time=0
control_change channel=0 control=64 value=127 time=127
<meta message set_tempo tempo=495868 time=113>
note_on channel=0 note=61 velocity=0 time=0
note_on channel=0 note=64 velocity=0 time=0
note_on channel=0 note=69 velocity=45 time=0
<meta message set_tempo tempo=512821 time=240>
note_on channel=0 note=69 velocity=0 time=0
note_on channel=0 note=81 velocity=0 time=0
note_on channel=0 note=62 velocity=50 time=0
note_on channel=0 note=74 velocity=64 time=0
note_on channel=0 note=59 velocity=46 time=0
control_change channel=0 control=64 value=0 time=3
<meta message set_tempo tempo=495868 time=237>
note_on channel=0 note=59 velocity=0 time=0
note_on channel=0 note=74 velocity=0 time=0
note_on channel=0 note=73 velocity=59 time=0
note_on channel=0 note=58 velocity=41 time=0
<meta message set_tempo tempo=487805 time=240>
note_on channel=0 note=58 velocity=0 time=0
note_on channel=0 note=73 velocity=0 time=0
note_on channel=0 note=74 velocity=61 time=0
note_on channel=0 note=59 velocity=47 time=0
<meta message set_tempo tempo=500000 time=240>
note_on channel=0 note=59 velocity=0 time=0
note_on channel=0 note=74 velocity=0 time=0
note_on channel=0 note=71 velocity=54 time=0
note_on channel=0 note=55 velocity=41 time=0
<meta message set_tempo tempo=487805 time=240>
note_on channel=0 note=55 velocity=0 time=0
note_on channel=0 note=71 velocity=0 time=0
note_on channel=0 note=69 velocity=63 time=0
note_on channel=0 note=54 velocity=48 time=0
control_change channel=0 control=64 value=127 time=99
<meta message set_tempo tempo=508475 time=141>
note_on channel=0 note=69 velocity=0 time=0
note_on channel=0 note=62 velocity=0 time=0
note_on channel=0 note=57 velocity=55 time=0
<meta message set_tempo tempo=487805 time=240>
note_on channel=0 note=57 velocity=0 time=0
note_on channel=0 note=54 velocity=0 time=0
note_on channel=0 note=67 velocity=61 time=0
note_on channel=0 note=64 velocity=54 time=0
note_on channel=0 note=52 velocity=44 time=0
control_change channel=0 control=64 value=0 time=10
control_change channel=0 control=64 value=127 time=160
<meta message set_tempo tempo=512821 time=70>
note_on channel=0 note=64 velocity=0 time=0
note_on channel=0 note=59 velocity=54 time=0
<meta message set_tempo tempo=487805 time=240>
note_on channel=0 note=59 velocity=0 time=0
note_on channel=0 note=52 velocity=0 time=0
note_on channel=0 note=67 velocity=0 time=0
note_on channel=0 note=64 velocity=61 time=0
note_on channel=0 note=61 velocity=54 time=0
note_on channel=0 note=45 velocity=44 time=0
control_change channel=0 control=64 value=0 time=10
control_change channel=0 control=64 value=127 time=131
<meta message set_tempo tempo=517241 time=99>
note_on channel=0 note=61 velocity=0 time=0
note_on channel=0 note=57 velocity=51 time=0
<meta message set_tempo tempo=495868 time=240>
note_on channel=0 note=57 velocity=0 time=0
note_on channel=0 note=45 velocity=0 time=0
note_on channel=0 note=64 velocity=0 time=0
note_on channel=0 note=62 velocity=52 time=0
note_on channel=0 note=66 velocity=64 time=0
note_on channel=0 note=50 velocity=49 time=0
control_change channel=0 control=64 value=0 time=0
control_change channel=0 control=64 value=127 time=141
<meta message set_tempo tempo=526316 time=99>
note_on channel=0 note=66 velocity=0 time=0
note_on channel=0 note=69 velocity=55 time=0
note_on channel=0 note=62 velocity=0 time=110
<meta message set_tempo tempo=512821 time=130>
note_on channel=0 note=69 velocity=0 time=0
note_on channel=0 note=50 velocity=0 time=0
note_on channel=0 note=71 velocity=64 time=0
note_on channel=0 note=74 velocity=64 time=0
note_on channel=0 note=86 velocity=58 time=0
control_change channel=0 control=64 value=0 time=10
<meta message set_tempo tempo=495868 time=230>
note_on channel=0 note=86 velocity=0 time=0
note_on channel=0 note=74 velocity=0 time=0
note_on channel=0 note=71 velocity=0 time=0
note_on channel=0 note=70 velocity=56 time=0
note_on channel=0 note=73 velocity=56 time=0
note_on channel=0 note=85 velocity=53 time=0
<meta message set_tempo tempo=504202 time=240>
note_on channel=0 note=85 velocity=0 time=0
note_on channel=0 note=73 velocity=0 time=0
note_on channel=0 note=70 velocity=0 time=0
note_on channel=0 note=71 velocity=61 time=0
note_on channel=0 note=74 velocity=61 time=0
note_on channel=0 note=86 velocity=59 time=0
<meta message set_tempo tempo=500000 time=240>
note_on channel=0 note=86 velocity=0 time=0
note_on channel=0 note=74 velocity=0 time=0
note_on channel=0 note=71 velocity=0 time=0
note_on channel=0 note=67 velocity=54 time=0
note_on channel=0 note=71 velocity=54 time=0
note_on channel=0 note=83 velocity=52 time=0
<meta message set_tempo tempo=487805 time=240>
note_on channel=0 note=83 velocity=0 time=0
note_on channel=0 note=71 velocity=0 time=0
note_on channel=0 note=67 velocity=0 time=0
note_on channel=0 note=66 velocity=56 time=0
note_on channel=0 note=69 velocity=66 time=0
note_on channel=0 note=81 velocity=58 time=0
control_change channel=0 control=64 value=127 time=99
<meta message set_tempo tempo=508475 time=141>
note_on channel=0 note=69 velocity=0 time=0
note_on channel=0 note=66 velocity=0 time=0
note_on channel=0 note=62 velocity=51 time=0
<meta message set_tempo tempo=487805 time=240>
note_on channel=0 note=62 velocity=0 time=0
note_on channel=0 note=81 velocity=0 time=0
note_on channel=0 note=64 velocity=54 time=0
note_on channel=0 note=67 velocity=64 time=0
note_on channel=0 note=79 velocity=62 time=0
control_change channel=0 control=64 value=0 time=10
control_change channel=0 control=64 value=127 time=160
<meta message set_tempo tempo=512821 time=70>
note_on channel=0 note=67 velocity=0 time=0
note_on channel=0 note=64 velocity=0 time=0
note_on channel=0 note=59 velocity=51 time=0
<meta message set_tempo tempo=487805 time=240>
note_on channel=0 note=59 velocity=0 time=0
note_on channel=0 note=79 velocity=0 time=0
note_on channel=0 note=61 velocity=54 time=0
note_on channel=0 note=64 velocity=64 time=0
note_on channel=0 note=76 velocity=59 time=0
control_change channel=0 control=64 value=0 time=10
control_change channel=0 control=64 value=127 time=131
<meta message set_tempo tempo=517241 time=99>
note_on channel=0 note=64 velocity=0 time=0
note_on channel=0 note=61 velocity=0 time=0
note_on channel=0 note=57 velocity=52 time=0
<meta message set_tempo tempo=495868 time=240>
note_on channel=0 note=57 velocity=0 time=0
note_on channel=0 note=76 velocity=0 time=0
note_on channel=0 note=62 velocity=54 time=0
note_on channel=0 note=66 velocity=64 time=0
note_on channel=0 note=74 velocity=56 time=0
control_change channel=0 control=64 value=0 time=0
control_change channel=0 control=64 value=127 time=141
<meta message set_tempo tempo=508475 time=99>
note_on channel=0 note=66 velocity=0 time=0
note_on channel=0 note=62 velocity=0 time=0
note_on channel=0 note=69 velocity=54 time=0
<meta message set_tempo tempo=487805 time=240>
note_on channel=0 note=69 velocity=0 time=0
note_on channel=0 note=74 velocity=0 time=0
note_on channel=0 note=59 velocity=50 time=0
note_on channel=0 note=69 velocity=61 time=0
note_on channel=0 note=43 velocity=43 time=0
control_change channel=0 control=64 value=0 time=10
control_change channel=0 control=64 value=127 time=110
<meta message set_tempo tempo=500000 time=120>
note_on channel=0 note=69 velocity=0 time=0
note_on channel=0 note=67 velocity=51 time=0
note_on channel=0 note=59 velocity=0 time=120
<meta message set_tempo tempo=491803 time=120>
note_on channel=0 note=67 velocity=0 time=0
note_on channel=0 note=43 velocity=0 time=0
note_on channel=0 note=64 velocity=61 time=0
note_on channel=0 note=55 velocity=38 time=0
note_on channel=0 note=45 velocity=32 time=0
control_change channel=0 control=64 value=0 time=10
control_change channel=0 control=64 value=127 time=110
<meta message set_tempo tempo=508475 time=120>
note_on channel=0 note=64 velocity=0 time=0
note_on channel=0 note=61 velocity=52 time=0
<meta message set_tempo tempo=495868 time=240>
note_on channel=0 note=61 velocity=0 time=0
note_on channel=0 note=45 velocity=0 time=0
note_on channel=0 note=55 velocity=0 time=0
note_on channel=0 note=62 velocity=59 time=0
note_on channel=0 note=54 velocity=43 time=0
note_on channel=0 note=50 velocity=36 time=0
control_change channel=0 control=64 value=0 time=10
control_change channel=0 control=64 value=127 time=110
note_on channel=0 note=62 velocity=0 time=120
note_on channel=0 note=66 velocity=50 time=0
<meta message set_tempo tempo=500000 time=240>
note_on channel=0 note=66 velocity=0 time=0
note_on channel=0 note=50 velocity=0 time=0
note_on channel=0 note=54 velocity=0 time=0
note_on channel=0 note=59 velocity=50 time=0
note_on channel=0 note=69 velocity=56 time=0
note_on channel=0 note=43 velocity=38 time=0
control_change channel=0 control=64 value=0 time=10
control_change channel=0 control=64 value=127 time=105
<meta message set_tempo tempo=512821 time=125>
note_on channel=0 note=69 velocity=0 time=0
note_on channel=0 note=67 velocity=50 time=0
note_on channel=0 note=59 velocity=0 time=120
note_on channel=0 note=67 velocity=0 time=120
note_on channel=0 note=43 velocity=0 time=0
note_on channel=0 note=64 velocity=57 time=0
note_on channel=0 note=55 velocity=43 time=0
note_on channel=0 note=45 velocity=36 time=0
control_change channel=0 control=64 value=0 time=10
control_change channel=0 control=64 value=127 time=127
<meta message set_tempo tempo=526316 time=103>
note_on channel=0 note=64 velocity=0 time=0
note_on channel=0 note=61 velocity=48 time=0
<meta message set_tempo tempo=495868 time=240>
note_on channel=0 note=61 velocity=0 time=0
note_on channel=0 note=45 velocity=0 time=0
note_on channel=0 note=55 velocity=0 time=0
note_on channel=0 note=62 velocity=52 time=0
note_on channel=0 note=50 velocity=34 time=0
note_on channel=0 note=54 velocity=40 time=0
control_change channel=0 control=64 value=0 time=10
control_change channel=0 control=64 value=127 time=116
note_on channel=0 note=62 velocity=0 time=114
note_on channel=0 note=61 velocity=46 time=0
note_on channel=0 note=61 velocity=0 time=240
note_on channel=0 note=54 velocity=0 time=0
note_on channel=0 note=50 velocity=0 time=0
note_on channel=0 note=62 velocity=52 time=0
control_change channel=0 control=64 value=0 time=12
note_on channel=0 note=62 velocity=0 time=228
note_on channel=0 note=64 velocity=45 time=0
<meta message set_tempo tempo=545455 time=240>
note_on channel=0 note=64 velocity=0 time=0
note_on channel=0 note=66 velocity=48 time=0
<meta message set_tempo tempo=618557 time=240>
note_on channel=0 note=66 velocity=0 time=0
note_on channel=0 note=67 velocity=48 time=0
<meta message set_tempo tempo=566038 time=240>
note_on channel=0 note=67 velocity=0 time=0
note_on channel=0 note=66 velocity=42 time=0
note_on channel=0 note=69 velocity=50 time=0
note_on channel=0 note=35 velocity=37 time=0
note_on channel=0 note=47 velocity=44 time=0
control_change channel=0 control=64 value=127 time=120
<meta message set_tempo tempo=540541 time=120>
note_on channel=0 note=69 velocity=0 time=0
note_on channel=0 note=66 velocity=0 time=0
note_on channel=0 note=59 velocity=45 time=0
<meta message set_tempo tempo=512821 time=240>
note_on channel=0 note=59 velocity=0 time=0
note_on channel=0 note=63 velocity=42 time=0
note_on channel=0 note=66 velocity=50 time=0
<meta message set_tempo tempo=491803 time=240>
note_on channel=0 note=66 velocity=0 time=0
note_on channel=0 note=63 velocity=0 time=0
note_on channel=0 note=59 velocity=47 time=0
<meta message set_tempo tempo=504202 time=240>
note_on channel=0 note=59 velocity=0 time=0
note_on channel=0 note=64 velocity=44 time=0
note_on channel=0 note=67 velocity=52 time=0
<meta message set_tempo tempo=540541 time=240>
note_on channel=0 note=67 velocity=0 time=0
note_on channel=0 note=64 velocity=0 time=0
note_on channel=0 note=59 velocity=49 time=0
<meta message set_tempo tempo=526316 time=240>
note_on channel=0 note=59 velocity=0 time=0
note_on channel=0 note=69 velocity=54 time=0
note_on channel=0 note=66 velocity=45 time=0
control_change channel=0 control=64 value=0 time=0
control_change channel=0 control=64 value=127 time=127
<meta message set_tempo tempo=495868 time=113>
note_on channel=0 note=66 velocity=0 time=0
note_on channel=0 note=69 velocity=0 time=0
note_on channel=0 note=59 velocity=48 time=0
<meta message set_tempo tempo=500000 time=240>
note_on channel=0 note=59 velocity=0 time=0
note_on channel=0 note=35 velocity=0 time=0
note_on channel=0 note=47 velocity=0 time=0
note_on channel=0 note=63 velocity=37 time=0
note_on channel=0 note=66 velocity=45 time=0
note_on channel=0 note=84 velocity=54 time=0
control_change channel=0 control=64 value=0 time=10
control_change channel=0 control=64 value=127 time=105
<meta message set_tempo tempo=491803 time=125>
note_on channel=0 note=84 velocity=0 time=0
note_on channel=0 note=66 velocity=0 time=0
note_on channel=0 note=63 velocity=0 time=0
note_on channel=0 note=59 velocity=42 time=0
note_on channel=0 note=83 velocity=50 time=0
<meta message set_tempo tempo=495868 time=240>
note_on channel=0 note=83 velocity=0 time=0
note_on channel=0 note=59 velocity=0 time=0
note_on channel=0 note=64 velocity=39 time=0
note_on channel=0 note=67 velocity=46 time=0
note_on channel=0 note=81 velocity=54 time=0
control_change channel=0 control=64 value=0 time=10
control_change channel=0 control=64 value=127 time=116
<meta message set_tempo tempo=517241 time=114>
note_on channel=0 note=81 velocity=0 time=0
note_on channel=0 note=67 velocity=0 time=0
note_on channel=0 note=64 velocity=0 time=0
note_on channel=0 note=59 velocity=44 time=0
note_on channel=0 note=79 velocity=50 time=0
<meta message set_tempo tempo=500000 time=240>
note_on channel=0 note=79 velocity=0 time=0
note_on channel=0 note=59 velocity=0 time=0
note_on channel=0 note=69 velocity=48 time=0
note_on channel=0 note=66 velocity=40 time=0
note_on channel=0 note=78 velocity=54 time=0
control_change channel=0 control=64 value=0 time=10
control_change channel=0 control=64 value=127 time=93
<meta message set_tempo tempo=495868 time=137>
note_on channel=0 note=66 velocity=0 time=0
note_on channel=0 note=69 velocity=0 time=0
note_on channel=0 note=59 velocity=43 time=0
<meta message set_tempo tempo=495868 time=240>
note_on channel=0 note=59 velocity=0 time=0
note_on channel=0 note=78 velocity=0 time=0
note_on channel=0 note=63 velocity=37 time=0
note_on channel=0 note=66 velocity=45 time=0
note_on channel=0 note=81 velocity=54 time=0
control_change channel=0 control=64 value=0 time=10
control_change channel=0 control=64 value=127 time=127
<meta message set_tempo tempo=491803 time=103>
note_on channel=0 note=81 velocity=0 time=0
note_on channel=0 note=66 velocity=0 time=0
note_on channel=0 note=63 velocity=0 time=0
note_on channel=0 note=59 velocity=42 time=0
note_on channel=0 note=79 velocity=50 time=0
<meta message set_tempo tempo=491803 time=240>
note_on channel=0 note=79 velocity=0 time=0
note_on channel=0 note=59 velocity=0 time=0
note_on channel=0 note=64 velocity=39 time=0
note_on channel=0 note=67 velocity=46 time=0
note_on channel=0 note=78 velocity=55 time=0
control_change channel=0 control=64 value=0 time=10
control_change channel=0 control=64 value=127 time=105
<meta message set_tempo tempo=517241 time=125>
note_on channel=0 note=78 velocity=0 time=0
note_on channel=0 note=67 velocity=0 time=0
note_on channel=0 note=64 velocity=0 time=0
note_on channel=0 note=59 velocity=44 time=0
note_on channel=0 note=76 velocity=50 time=0
<meta message set_tempo tempo=512821 time=240>
note_on channel=0 note=76 velocity=0 time=0
note_on channel=0 note=59 velocity=0 time=0
note_on channel=0 note=69 velocity=48 time=0
note_on channel=0 note=66 velocity=40 time=0
note_on channel=0 note=75 velocity=54 time=0
control_change channel=0 control=64 value=0 time=3
control_change channel=0 control=64 value=127 time=180
<meta message set_tempo tempo=540541 time=57>
<meta message set_tempo tempo=483871 time=240>
note_on channel=0 note=75 velocity=0 time=0
note_on channel=0 note=66 velocity=0 time=0
note_on channel=0 note=69 velocity=0 time=0
note_on channel=0 note=71 velocity=60 time=0
note_on channel=0 note=83 velocity=71 time=0
note_on channel=0 note=47 velocity=49 time=0
note_on channel=0 note=59 velocity=59 time=0
control_change channel=0 control=64 value=0 time=46
note_on channel=0 note=59 velocity=0 time=170
note_on channel=0 note=71 velocity=0 time=0
note_on channel=0 note=83 velocity=0 time=0
note_on channel=0 note=47 velocity=0 time=0
<meta message set_tempo tempo=487805 time=24>
note_on channel=0 note=69 velocity=56 time=0
note_on channel=0 note=81 velocity=66 time=0
note_on channel=0 note=45 velocity=46 time=0
note_on channel=0 note=57 velocity=55 time=0
note_on channel=0 note=57 velocity=0 time=216
note_on channel=0 note=69 velocity=0 time=0
note_on channel=0 note=81 velocity=0 time=0
note_on channel=0 note=45 velocity=0 time=0
<meta message set_tempo tempo=495868 time=24>
note_on channel=0 note=67 velocity=60 time=0
note_on channel=0 note=79 velocity=71 time=0
note_on channel=0 note=43 velocity=49 time=0
note_on channel=0 note=55 velocity=59 time=0
note_on channel=0 note=55 velocity=0 time=216
note_on channel=0 note=67 velocity=0 time=0
note_on channel=0 note=79 velocity=0 time=0
note_on channel=0 note=43 velocity=0 time=0
<meta message set_tempo tempo=512821 time=24>
note_on channel=0 note=66 velocity=56 time=0
note_on channel=0 note=78 velocity=67 time=0
note_on channel=0 note=42 velocity=46 time=0
note_on channel=0 note=54 velocity=55 time=0
note_on channel=0 note=54 velocity=0 time=216
note_on channel=0 note=66 velocity=0 time=0
note_on channel=0 note=78 velocity=0 time=0
note_on channel=0 note=42 velocity=0 time=0
<meta message set_tempo tempo=530973 time=24>
note_on channel=0 note=64 velocity=62 time=0
note_on channel=0 note=76 velocity=74 time=0
note_on channel=0 note=40 velocity=50 time=0
note_on channel=0 note=52 velocity=60 time=0
note_on channel=0 note=52 velocity=0 time=432
note_on channel=0 note=64 velocity=0 time=0
note_on channel=0 note=76 velocity=0 time=0
note_on channel=0 note=40 velocity=0 time=0
<meta message set_tempo tempo=512821 time=48>
note_on channel=0 note=64 velocity=60 time=0
note_on channel=0 note=76 velocity=71 time=0
note_on channel=0 note=40 velocity=46 time=0
note_on channel=0 note=52 velocity=55 time=0
control_change channel=0 control=64 value=127 time=53
note_on channel=0 note=52 velocity=0 time=379
note_on channel=0 note=64 velocity=0 time=0
note_on channel=0 note=76 velocity=0 time=0
note_on channel=0 note=40 velocity=0 time=0
note_on channel=0 note=71 velocity=61 time=48
note_on channel=0 note=83 velocity=73 time=0
note_on channel=0 note=47 velocity=50 time=0
note_on channel=0 note=59 velocity=60 time=0
note_on channel=0 note=59 velocity=0 time=432
note_on channel=0 note=71 velocity=0 time=0
note_on channel=0 note=83 velocity=0 time=0
note_on channel=0 note=47 velocity=0 time=0
<meta message set_tempo tempo=495868 time=48>
note_on channel=0 note=64 velocity=60 time=0
note_on channel=0 note=76 velocity=71 time=0
note_on channel=0 note=40 velocity=46 time=0
note_on channel=0 note=52 velocity=55 time=0
control_change channel=0 control=64 value=0 time=374
note_on channel=0 note=52 velocity=0 time=58
note_on channel=0 note=64 velocity=0 time=0
note_on channel=0 note=76 velocity=0 time=0
note_on channel=0 note=40 velocity=0 time=0
<meta message set_tempo tempo=487805 time=48>
note_on channel=0 note=71 velocity=60 time=0
note_on channel=0 note=83 velocity=71 time=0
note_on channel=0 note=47 velocity=49 time=0
note_on channel=0 note=59 velocity=59 time=0
note_on channel=0 note=59 velocity=0 time=216
note_on channel=0 note=71 velocity=0 time=0
note_on channel=0 note=83 velocity=0 time=0
note_on channel=0 note=47 velocity=0 time=0
<meta message set_tempo tempo=495868 time=24>
note_on channel=0 note=69 velocity=56 time=0
note_on channel=0 note=81 velocity=66 time=0
note_on channel=0 note=45 velocity=46 time=0
note_on channel=0 note=57 velocity=55 time=0
note_on channel=0 note=57 velocity=0 time=216
note_on channel=0 note=69 velocity=0 time=0
note_on channel=0 note=81 velocity=0 time=0
note_on channel=0 note=45 velocity=0 time=0
<meta message set_tempo tempo=504202 time=24>
note_on channel=0 note=67 velocity=60 time=0
note_on channel=0 note=79 velocity=71 time=0
note_on channel=0 note=43 velocity=49 time=0
note_on channel=0 note=55 velocity=59 time=0
note_on channel=0 note=55 velocity=0 time=216
note_on channel=0 note=67 velocity=0 time=0
note_on channel=0 note=79 velocity=0 time=0
note_on channel=0 note=43 velocity=0 time=0
<meta message set_tempo tempo=521739 time=24>
note_on channel=0 note=66 velocity=56 time=0
note_on channel=0 note=78 velocity=67 time=0
note_on channel=0 note=42 velocity=46 time=0
note_on channel=0 note=54 velocity=55 time=0
note_on channel=0 note=54 velocity=0 time=216
note_on channel=0 note=66 velocity=0 time=0
note_on channel=0 note=78 velocity=0 time=0
note_on channel=0 note=42 velocity=0 time=0
<meta message set_tempo tempo=530973 time=24>
note_on channel=0 note=64 velocity=62 time=0
note_on channel=0 note=76 velocity=74 time=0
note_on channel=0 note=40 velocity=50 time=0
note_on channel=0 note=52 velocity=60 time=0
note_on channel=0 note=52 velocity=0 time=432
note_on channel=0 note=64 velocity=0 time=0
note_on channel=0 note=76 velocity=0 time=0
note_on channel=0 note=40 velocity=0 time=0
<meta message set_tempo tempo=512821 time=48>
note_on channel=0 note=64 velocity=60 time=0
note_on channel=0 note=76 velocity=71 time=0
note_on channel=0 note=40 velocity=46 time=0
note_on channel=0 note=52 velocity=55 time=0
control_change channel=0 control=64 value=127 time=25
note_on channel=0 note=52 velocity=0 time=407
note_on channel=0 note=64 velocity=0 time=0
note_on channel=0 note=76 velocity=0 time=0
note_on channel=0 note=40 velocity=0 time=0
note_on channel=0 note=71 velocity=61 time=48
note_on channel=0 note=83 velocity=73 time=0
note_on channel=0 note=47 velocity=50 time=0
note_on channel=0 note=59 velocity=60 time=0
note_on channel=0 note=59 velocity=0 time=432
note_on channel=0 note=71 velocity=0 time=0
note_on channel=0 note=83 velocity=0 time=0
note_on channel=0 note=47 velocity=0 time=0
<meta message set_tempo tempo=530973 time=48>
note_on channel=0 note=64 velocity=60 time=0
note_on channel=0 note=76 velocity=71 time=0
note_on channel=0 note=40 velocity=46 time=0
note_on channel=0 note=52 velocity=55 time=0
control_change channel=0 control=64 value=0 time=307
note_on channel=0 note=52 velocity=0 time=125
note_on channel=0 note=64 velocity=0 time=0
note_on channel=0 note=76 velocity=0 time=0
note_on channel=0 note=40 velocity=0 time=0
<meta message set_tempo tempo=504202 time=48>
note_on channel=0 note=76 velocity=50 time=0
note_on channel=0 note=76 velocity=0 time=180
<meta message set_tempo tempo=517241 time=60>
note_on channel=0 note=74 velocity=46 time=0
note_on channel=0 note=74 velocity=0 time=180
<meta message set_tempo tempo=504202 time=60>
note_on channel=0 note=76 velocity=50 time=0
note_on channel=0 note=76 velocity=0 time=180
<meta message set_tempo tempo=517241 time=60>
note_on channel=0 note=77 velocity=47 time=0
note_on channel=0 note=77 velocity=0 time=180
note_on channel=0 note=79 velocity=51 time=60
note_on channel=0 note=60 velocity=42 time=0
control_change channel=0 control=64 value=127 time=0
<meta message set_tempo tempo=508475 time=240>
note_on channel=0 note=64 velocity=39 time=0
note_on channel=0 note=64 velocity=0 time=240
note_on channel=0 note=79 velocity=0 time=0
note_on channel=0 note=79 velocity=53 time=0
note_on channel=0 note=67 velocity=42 time=0
note_on channel=0 note=67 velocity=0 time=240
note_on channel=0 note=64 velocity=39 time=0
note_on channel=0 note=64 velocity=0 time=240
note_on channel=0 note=60 velocity=0 time=0
note_on channel=0 note=59 velocity=35 time=0
note_on channel=0 note=65 velocity=42 time=0
control_change channel=0 control=64 value=0 time=9
control_change channel=0 control=64 value=127 time=84
<meta message set_tempo tempo=512821 time=147>
note_on channel=0 note=65 velocity=0 time=0
note_on channel=0 note=79 velocity=0 time=0
note_on channel=0 note=79 velocity=50 time=0
note_on channel=0 note=62 velocity=37 time=0
<meta message set_tempo tempo=508475 time=240>
note_on channel=0 note=62 velocity=0 time=0
note_on channel=0 note=79 velocity=0 time=0
note_on channel=0 note=59 velocity=0 time=0
note_on channel=0 note=84 velocity=55 time=0
note_on channel=0 note=60 velocity=42 time=0
control_change channel=0 control=64 value=0 time=9
control_change channel=0 control=64 value=127 time=128
note_on channel=0 note=64 velocity=37 time=103
<meta message set_tempo tempo=500000 time=240>
note_on channel=0 note=64 velocity=0 time=0
note_on channel=0 note=84 velocity=0 time=0
note_on channel=0 note=79 velocity=50 time=0
note_on channel=0 note=67 velocity=42 time=0
note_on channel=0 note=67 velocity=0 time=240
note_on channel=0 note=64 velocity=37 time=0
note_on channel=0 note=64 velocity=0 time=240
note_on channel=0 note=79 velocity=0 time=0
note_on channel=0 note=60 velocity=0 time=0
note_on channel=0 note=59 velocity=35 time=0
note_on channel=0 note=65 velocity=42 time=0
control_change channel=0 control=64 value=0 time=10
control_change channel=0 control=64 value=127 time=70
<meta message set_tempo tempo=517241 time=160>
note_on channel=0 note=65 velocity=0 time=0
note_on channel=0 note=62 velocity=38 time=0
<meta message set_tempo tempo=504202 time=240>
note_on channel=0 note=62 velocity=0 time=0
note_on channel=0 note=59 velocity=0 time=0
note_on channel=0 note=79 velocity=56 time=0
note_on channel=0 note=60 velocity=46 time=0
control_change channel=0 control=64 value=0 time=11
control_change channel=0 control=64 value=127 time=126
<meta message set_tempo tempo=491803 time=103>
note_on channel=0 note=64 velocity=42 time=0
<meta message set_tempo tempo=500000 time=240>
note_on channel=0 note=64 velocity=0 time=0
note_on channel=0 note=79 velocity=0 time=0
note_on channel=0 note=79 velocity=58 time=0
note_on channel=0 note=67 velocity=46 time=0
note_on channel=0 note=67 velocity=0 time=240
note_on channel=0 note=64 velocity=42 time=0
<meta message set_tempo tempo=508475 time=240>
note_on channel=0 note=64 velocity=0 time=0
note_on channel=0 note=60 velocity=0 time=0
note_on channel=0 note=59 velocity=38 time=0
note_on channel=0 note=65 velocity=46 time=0
control_change channel=0 control=64 value=0 time=6
control_change channel=0 control=64 value=127 time=109
note_on channel=0 note=65 velocity=0 time=125
note_on channel=0 note=79 velocity=0 time=0
note_on channel=0 note=79 velocity=55 time=0
note_on channel=0 note=62 velocity=40 time=0
<meta message set_tempo tempo=504202 time=240>
note_on channel=0 note=62 velocity=0 time=0
note_on channel=0 note=79 velocity=0 time=0
note_on channel=0 note=59 velocity=0 time=0
note_on channel=0 note=84 velocity=60 time=0
note_on channel=0 note=60 velocity=46 time=0
control_change channel=0 control=64 value=0 time=10
control_change channel=0 control=64 value=127 time=82
<meta message set_tempo tempo=491803 time=148>
note_on channel=0 note=64 velocity=40 time=0
<meta message set_tempo tempo=495868 time=240>
note_on channel=0 note=64 velocity=0 time=0
note_on channel=0 note=84 velocity=0 time=0
note_on channel=0 note=79 velocity=55 time=0
note_on channel=0 note=67 velocity=46 time=0
note_on channel=0 note=67 velocity=0 time=240
note_on channel=0 note=64 velocity=40 time=0
<meta message set_tempo tempo=500000 time=240>
note_on channel=0 note=64 velocity=0 time=0
note_on channel=0 note=79 velocity=0 time=0
note_on channel=0 note=60 velocity=0 time=0
note_on channel=0 note=60 velocity=46 time=0
<meta message set_tempo tempo=535714 time=240>
note_on channel=0 note=60 velocity=0 time=0
note_on channel=0 note=64 velocity=41 time=0
note_on channel=0 note=79 velocity=61 time=120
<meta message set_tempo tempo=500000 time=120>
note_on channel=0 note=79 velocity=0 time=0
note_on channel=0 note=64 velocity=0 time=0
note_on channel=0 note=88 velocity=70 time=0
note_on channel=0 note=58 velocity=53 time=0
control_change channel=0 control=64 value=0 time=10
control_change channel=0 control=64 value=127 time=61
<meta message set_tempo tempo=491803 time=169>
note_on channel=0 note=60 velocity=45 time=0
<meta message set_tempo tempo=500000 time=240>
note_on channel=0 note=60 velocity=0 time=0
note_on channel=0 note=88 velocity=0 time=0
note_on channel=0 note=79 velocity=55 time=0
note_on channel=0 note=64 velocity=51 time=0
note_on channel=0 note=64 velocity=0 time=240
note_on channel=0 note=67 velocity=43 time=0
<meta message set_tempo tempo=500000 time=240>
note_on channel=0 note=67 velocity=0 time=0
note_on channel=0 note=79 velocity=0 time=0
note_on channel=0 note=58 velocity=0 time=0
note_on channel=0 note=64 velocity=52 time=0
<meta message set_tempo tempo=521739 time=240>
note_on channel=0 note=64 velocity=0 time=0
note_on channel=0 note=60 velocity=46 time=0
note_on channel=0 note=79 velocity=65 time=120
<meta message set_tempo tempo=500000 time=120>
note_on channel=0 note=79 velocity=0 time=0
note_on channel=0 note=60 velocity=0 time=0
note_on channel=0 note=88 velocity=74 time=0
note_on channel=0 note=57 velocity=58 time=0
control_change channel=0 control=64 value=0 time=10
control_change channel=0 control=64 value=127 time=103
<meta message set_tempo tempo=487805 time=127>
note_on channel=0 note=61 velocity=51 time=0
note_on channel=0 note=61 velocity=0 time=240
note_on channel=0 note=88 velocity=0 time=0
note_on channel=0 note=79 velocity=61 time=0
note_on channel=0 note=64 velocity=58 time=0
<meta message set_tempo tempo=495868 time=120>
note_on channel=0 note=64 velocity=0 time=120
note_on channel=0 note=67 velocity=50 time=0
<meta message set_tempo tempo=495868 time=240>
note_on channel=0 note=67 velocity=0 time=0
note_on channel=0 note=79 velocity=0 time=0
note_on channel=0 note=57 velocity=0 time=0
note_on channel=0 note=64 velocity=58 time=0
<meta message set_tempo tempo=521739 time=240>
note_on channel=0 note=64 velocity=0 time=0
note_on channel=0 note=61 velocity=51 time=0
note_on channel=0 note=79 velocity=55 time=120
<meta message set_tempo tempo=487805 time=120>
note_on channel=0 note=79 velocity=0 time=0
note_on channel=0 note=61 velocity=0 time=0
note_on channel=0 note=79 velocity=60 time=0
note_on channel=0 note=57 velocity=48 time=0
note_on channel=0 note=62 velocity=57 time=0
control_change channel=0 control=64 value=0 time=0
note_on channel=0 note=79 velocity=0 time=240
note_on channel=0 note=77 velocity=58 time=0
<meta message set_tempo tempo=495868 time=240>
note_on channel=0 note=77 velocity=0 time=0
note_on channel=0 note=76 velocity=58 time=0
note_on channel=0 note=76 velocity=0 time=240
note_on channel=0 note=77 velocity=54 time=0
note_on channel=0 note=77 velocity=0 time=240
note_on channel=0 note=62 velocity=0 time=0
note_on channel=0 note=57 velocity=0 time=0
note_on channel=0 note=76 velocity=58 time=0
note_on channel=0 note=56 velocity=41 time=0
note_on channel=0 note=64 velocity=49 time=0
note_on channel=0 note=64 velocity=0 time=240
note_on channel=0 note=76 velocity=0 time=0
note_on channel=0 note=74 velocity=55 time=0
note_on channel=0 note=65 velocity=43 time=0
<meta message set_tempo tempo=491803 time=240>
note_on channel=0 note=65 velocity=0 time=0
note_on channel=0 note=74 velocity=0 time=0
note_on channel=0 note=56 velocity=0 time=0
note_on channel=0 note=73 velocity=58 time=0
note_on channel=0 note=57 velocity=44 time=0
note_on channel=0 note=64 velocity=52 time=0
<meta message set_tempo tempo=504202 time=240>
note_on channel=0 note=73 velocity=0 time=0
note_on channel=0 note=80 velocity=55 time=0
<meta message set_tempo tempo=483871 time=240>
note_on channel=0 note=80 velocity=0 time=0
note_on channel=0 note=64 velocity=0 time=0
note_on channel=0 note=57 velocity=0 time=0
note_on channel=0 note=81 velocity=58 time=0
<meta message set_tempo tempo=491803 time=240>
note_on channel=0 note=81 velocity=0 time=0
note_on channel=0 note=80 velocity=55 time=0
note_on channel=0 note=80 velocity=0 time=240
note_on channel=0 note=81 velocity=58 time=0
note_on channel=0 note=81 velocity=0 time=240
note_on channel=0 note=76 velocity=55 time=0
<meta message set_tempo tempo=487805 time=240>
note_on channel=0 note=76 velocity=0 time=0
note_on channel=0 note=79 velocity=60 time=0
note_on channel=0 note=62 velocity=43 time=0
note_on channel=0 note=58 velocity=43 time=0
note_on channel=0 note=68 velocity=51 time=0
control_change channel=0 control=64 value=0 time=0
note_on channel=0 note=79 velocity=0 time=240
note_on channel=0 note=77 velocity=58 time=0
<meta message set_tempo tempo=495868 time=240>
note_on channel=0 note=77 velocity=0 time=0
note_on channel=0 note=76 velocity=58 time=0
note_on channel=0 note=76 velocity=0 time=240
note_on channel=0 note=77 velocity=54 time=0
note_on channel=0 note=77 velocity=0 time=240
note_on channel=0 note=76 velocity=58 time=0
note_on channel=0 note=76 velocity=0 time=240
note_on channel=0 note=74 velocity=55 time=0
<meta message set_tempo tempo=487805 time=240>
note_on channel=0 note=74 velocity=0 time=0
note_on channel=0 note=68 velocity=0 time=0
note_on channel=0 note=58 velocity=0 time=0
note_on channel=0 note=62 velocity=0 time=0
note_on channel=0 note=81 velocity=58 time=0
note_on channel=0 note=61 velocity=44 time=0
note_on channel=0 note=57 velocity=44 time=0
note_on channel=0 note=69 velocity=52 time=0
<meta message set_tempo tempo=504202 time=240>
note_on channel=0 note=81 velocity=0 time=0
note_on channel=0 note=80 velocity=55 time=0
<meta message set_tempo tempo=483871 time=240>
note_on channel=0 note=80 velocity=0 time=0
note_on channel=0 note=69 velocity=0 time=0
note_on channel=0 note=57 velocity=0 time=0
note_on channel=0 note=61 velocity=0 time=0
note_on channel=0 note=81 velocity=58 time=0
<meta message set_tempo tempo=495868 time=240>
note_on channel=0 note=81 velocity=0 time=0
note_on channel=0 note=76 velocity=55 time=0
note_on channel=0 note=76 velocity=0 time=240
note_on channel=0 note=77 velocity=58 time=0
note_on channel=0 note=57 velocity=37 time=0
note_on channel=0 note=62 velocity=37 time=0
note_on channel=0 note=65 velocity=44 time=0
note_on channel=0 note=77 velocity=0 time=240
note_on channel=0 note=74 velocity=55 time=0
<meta message set_tempo tempo=487805 time=240>
note_on channel=0 note=74 velocity=0 time=0
note_on channel=0 note=65 velocity=0 time=0
note_on channel=0 note=62 velocity=0 time=0
note_on channel=0 note=57 velocity=0 time=0
note_on channel=0 note=81 velocity=58 time=0
note_on channel=0 note=61 velocity=44 time=0
note_on channel=0 note=57 velocity=44 time=0
note_on channel=0 note=64 velocity=52 time=0
<meta message set_tempo tempo=504202 time=240>
note_on channel=0 note=81 velocity=0 time=0
note_on channel=0 note=80 velocity=55 time=0
<meta message set_tempo tempo=483871 time=240>
note_on channel=0 note=80 velocity=0 time=0
note_on channel=0 note=64 velocity=0 time=0
note_on channel=0 note=57 velocity=0 time=0
note_on channel=0 note=61 velocity=0 time=0
note_on channel=0 note=81 velocity=58 time=0
<meta message set_tempo tempo=491803 time=240>
note_on channel=0 note=81 velocity=0 time=0
note_on channel=0 note=76 velocity=55 time=0
note_on channel=0 note=76 velocity=0 time=240
note_on channel=0 note=77 velocity=58 time=0
note_on channel=0 note=57 velocity=37 time=0
note_on channel=0 note=62 velocity=37 time=0
note_on channel=0 note=65 velocity=44 time=0
note_on channel=0 note=77 velocity=0 time=240
note_on channel=0 note=74 velocity=49 time=0
<meta message set_tempo tempo=500000 time=236>
note_on channel=0 note=74 velocity=0 time=4
note_on channel=0 note=65 velocity=0 time=0
note_on channel=0 note=62 velocity=0 time=0
note_on channel=0 note=57 velocity=0 time=0
note_on channel=0 note=69 velocity=51 time=0
note_on channel=0 note=57 velocity=44 time=0
note_on channel=0 note=61 velocity=44 time=0
note_on channel=0 note=64 velocity=52 time=0
<meta message set_tempo tempo=504202 time=236>
note_on channel=0 note=69 velocity=0 time=4
note_on channel=0 note=68 velocity=45 time=0
<meta message set_tempo tempo=508475 time=212>
note_on channel=0 note=68 velocity=0 time=28
note_on channel=0 note=64 velocity=0 time=0
note_on channel=0 note=61 velocity=0 time=0
note_on channel=0 note=57 velocity=0 time=0
note_on channel=0 note=69 velocity=51 time=0
<meta message set_tempo tempo=512821 time=236>
note_on channel=0 note=69 velocity=0 time=4
note_on channel=0 note=68 velocity=47 time=0
note_on channel=0 note=68 velocity=0 time=240
note_on channel=0 note=69 velocity=51 time=0
<meta message set_tempo tempo=517241 time=20>
<meta message set_tempo tempo=508475 time=1>
<meta message set_tempo tempo=512821 time=32>
<meta message set_tempo tempo=517241 time=32>
<meta message set_tempo tempo=526316 time=32>
<meta message set_tempo tempo=530973 time=32>
<meta message set_tempo tempo=540541 time=32>
<meta message set_tempo tempo=545455 time=32>
<meta message set_tempo tempo=600000 time=27>
note_on channel=0 note=69 velocity=0 time=0
note_on channel=0 note=68 velocity=44 time=0
<meta message set_tempo tempo=566038 time=240>
note_on channel=0 note=68 velocity=0 time=0
note_on channel=0 note=66 velocity=42 time=0
note_on channel=0 note=69 velocity=50 time=0
note_on channel=0 note=38 velocity=37 time=0
note_on channel=0 note=50 velocity=44 time=0
control_change channel=0 control=64 value=127 time=0
<meta message set_tempo tempo=540541 time=240>
note_on channel=0 note=69 velocity=0 time=0
note_on channel=0 note=66 velocity=0 time=0
note_on channel=0 note=57 velocity=45 time=0
<meta message set_tempo tempo=512821 time=240>
note_on channel=0 note=57 velocity=0 time=0
note_on channel=0 note=62 velocity=42 time=0
note_on channel=0 note=66 velocity=50 time=0
<meta message set_tempo tempo=491803 time=240>
note_on channel=0 note=66 velocity=0 time=0
note_on channel=0 note=62 velocity=0 time=0
note_on channel=0 note=57 velocity=47 time=0
<meta message set_tempo tempo=504202 time=240>
note_on channel=0 note=57 velocity=0 time=0
note_on channel=0 note=64 velocity=44 time=0
note_on channel=0 note=67 velocity=52 time=0
<meta message set_tempo tempo=540541 time=240>
note_on channel=0 note=67 velocity=0 time=0
note_on channel=0 note=64 velocity=0 time=0
note_on channel=0 note=57 velocity=49 time=0
<meta message set_tempo tempo=526316 time=240>
note_on channel=0 note=57 velocity=0 time=0
note_on channel=0 note=69 velocity=54 time=0
note_on channel=0 note=66 velocity=45 time=0
control_change channel=0 control=64 value=0 time=0
control_change channel=0 control=64 value=127 time=127
<meta message set_tempo tempo=495868 time=113>
note_on channel=0 note=66 velocity=0 time=0
note_on channel=0 note=69 velocity=0 time=0
note_on channel=0 note=62 velocity=48 time=0
<meta message set_tempo tempo=495868 time=240>
note_on channel=0 note=62 velocity=0 time=0
note_on channel=0 note=38 velocity=0 time=0
note_on channel=0 note=50 velocity=0 time=0
note_on channel=0 note=71 velocity=42 time=0
note_on channel=0 note=74 velocity=50 time=0
control_change channel=0 control=64 value=0 time=10
control_change channel=0 control=64 value=127 time=160
<meta message set_tempo tempo=500000 time=70>
note_on channel=0 note=74 velocity=0 time=0
note_on channel=0 note=71 velocity=0 time=0
note_on channel=0 note=69 velocity=39 time=0
note_on channel=0 note=73 velocity=47 time=0
<meta message set_tempo tempo=508475 time=240>
note_on channel=0 note=73 velocity=0 time=0
note_on channel=0 note=69 velocity=0 time=0
note_on channel=0 note=67 velocity=42 time=0
note_on channel=0 note=71 velocity=50 time=0
control_change channel=0 control=64 value=0 time=10
control_change channel=0 control=64 value=127 time=146
<meta message set_tempo tempo=500000 time=84>
note_on channel=0 note=71 velocity=0 time=0
note_on channel=0 note=67 velocity=0 time=0
note_on channel=0 note=66 velocity=39 time=0
note_on channel=0 note=69 velocity=47 time=0
<meta message set_tempo tempo=495868 time=240>
note_on channel=0 note=69 velocity=0 time=0
note_on channel=0 note=66 velocity=0 time=0
note_on channel=0 note=67 velocity=50 time=0
note_on channel=0 note=47 velocity=53 time=0
control_change channel=0 control=64 value=0 time=0
control_change channel=0 control=64 value=127 time=141
<meta message set_tempo tempo=504202 time=99>
note_on channel=0 note=67 velocity=0 time=0
note_on channel=0 note=62 velocity=45 time=0
<meta message set_tempo tempo=500000 time=240>
note_on channel=0 note=62 velocity=0 time=0
note_on channel=0 note=47 velocity=0 time=0
note_on channel=0 note=66 velocity=45 time=0
note_on channel=0 note=69 velocity=53 time=0
note_on channel=0 note=45 velocity=49 time=0
control_change channel=0 control=64 value=0 time=10
control_change channel=0 control=64 value=127 time=117
<meta message set_tempo tempo=526316 time=113>
note_on channel=0 note=69 velocity=0 time=0
note_on channel=0 note=66 velocity=0 time=0
note_on channel=0 note=62 velocity=47 time=0
<meta message set_tempo tempo=504202 time=240>
note_on channel=0 note=62 velocity=0 time=0
note_on channel=0 note=45 velocity=0 time=0
note_on channel=0 note=67 velocity=45 time=0
note_on channel=0 note=71 velocity=54 time=0
note_on channel=0 note=43 velocity=47 time=0
control_change channel=0 control=64 value=0 time=10
control_change channel=0 control=64 value=127 time=188
<meta message set_tempo tempo=526316 time=42>
note_on channel=0 note=71 velocity=0 time=0
note_on channel=0 note=67 velocity=0 time=0
note_on channel=0 note=62 velocity=47 time=0
<meta message set_tempo tempo=526316 time=240>
note_on channel=0 note=62 velocity=0 time=0
note_on channel=0 note=43 velocity=0 time=0
note_on channel=0 note=69 velocity=54 time=0
note_on channel=0 note=66 velocity=45 time=0
note_on channel=0 note=50 velocity=53 time=0
control_change channel=0 control=64 value=0 time=0
control_change channel=0 control=64 value=127 time=127
<meta message set_tempo tempo=495868 time=113>
note_on channel=0 note=66 velocity=0 time=0
note_on channel=0 note=69 velocity=0 time=0
note_on channel=0 note=62 velocity=48 time=0
<meta message set_tempo tempo=495868 time=240>
note_on channel=0 note=62 velocity=0 time=0
note_on channel=0 note=50 velocity=0 time=0
note_on channel=0 note=71 velocity=39 time=0
note_on channel=0 note=74 velocity=47 time=0
note_on channel=0 note=86 velocity=55 time=0
control_change channel=0 control=64 value=0 time=10
control_change channel=0 control=64 value=127 time=160
<meta message set_tempo tempo=500000 time=70>
note_on channel=0 note=86 velocity=0 time=0
note_on channel=0 note=74 velocity=0 time=0
note_on channel=0 note=71 velocity=0 time=0
note_on channel=0 note=69 velocity=37 time=0
note_on channel=0 note=73 velocity=44 time=0
note_on channel=0 note=85 velocity=51 time=0
<meta message set_tempo tempo=508475 time=240>
note_on channel=0 note=85 velocity=0 time=0
note_on channel=0 note=73 velocity=0 time=0
note_on channel=0 note=69 velocity=0 time=0
note_on channel=0 note=67 velocity=39 time=0
note_on channel=0 note=71 velocity=47 time=0
note_on channel=0 note=83 velocity=55 time=0
control_change channel=0 control=64 value=0 time=10
control_change channel=0 control=64 value=127 time=146
<meta message set_tempo tempo=500000 time=84>
note_on channel=0 note=83 velocity=0 time=0
note_on channel=0 note=71 velocity=0 time=0
note_on channel=0 note=67 velocity=0 time=0
note_on channel=0 note=66 velocity=37 time=0
note_on channel=0 note=69 velocity=44 time=0
note_on channel=0 note=81 velocity=51 time=0
<meta message set_tempo tempo=495868 time=240>
note_on channel=0 note=81 velocity=0 time=0
note_on channel=0 note=69 velocity=0 time=0
note_on channel=0 note=66 velocity=0 time=0
note_on channel=0 note=64 velocity=42 time=0
note_on channel=0 note=67 velocity=47 time=0
note_on channel=0 note=79 velocity=55 time=0
control_change channel=0 control=64 value=0 time=0
control_change channel=0 control=64 value=127 time=141
<meta message set_tempo tempo=504202 time=99>
note_on channel=0 note=67 velocity=0 time=0
note_on channel=0 note=64 velocity=0 time=0
note_on channel=0 note=62 velocity=42 time=0
<meta message set_tempo tempo=500000 time=240>
note_on channel=0 note=62 velocity=0 time=0
note_on channel=0 note=79 velocity=0 time=0
note_on channel=0 note=66 velocity=42 time=0
note_on channel=0 note=69 velocity=50 time=0
note_on channel=0 note=81 velocity=58 time=0
control_change channel=0 control=64 value=0 time=10
control_change channel=0 control=64 value=127 time=117
<meta message set_tempo tempo=526316 time=113>
note_on channel=0 note=69 velocity=0 time=0
note_on channel=0 note=66 velocity=0 time=0
note_on channel=0 note=62 velocity=44 time=0
<meta message set_tempo tempo=504202 time=240>
note_on channel=0 note=62 velocity=0 time=0
note_on channel=0 note=81 velocity=0 time=0
note_on channel=0 note=67 velocity=42 time=0
note_on channel=0 note=71 velocity=51 time=0
note_on channel=0 note=83 velocity=59 time=0
control_change channel=0 control=64 value=0 time=10
control_change channel=0 control=64 value=127 time=188
<meta message set_tempo tempo=526316 time=42>
note_on channel=0 note=71 velocity=0 time=0
note_on channel=0 note=67 velocity=0 time=0
note_on channel=0 note=62 velocity=44 time=0
<meta message set_tempo tempo=526316 time=240>
note_on channel=0 note=62 velocity=0 time=0
note_on channel=0 note=83 velocity=0 time=0
note_on channel=0 note=69 velocity=51 time=0
note_on channel=0 note=66 velocity=42 time=0
note_on channel=0 note=81 velocity=59 time=0
control_change channel=0 control=64 value=0 time=0
control_change channel=0 control=64 value=127 time=127
<meta message set_tempo tempo=495868 time=113>
note_on channel=0 note=66 velocity=0 time=0
note_on channel=0 note=69 velocity=0 time=0
note_on channel=0 note=62 velocity=45 time=0
<meta message set_tempo tempo=495868 time=240>
note_on channel=0 note=62 velocity=0 time=0
note_on channel=0 note=81 velocity=0 time=0
note_on channel=0 note=67 velocity=42 time=0
note_on channel=0 note=71 velocity=50 time=0
control_change channel=0 control=64 value=0 time=10
control_change channel=0 control=64 value=127 time=160
<meta message set_tempo tempo=500000 time=70>
note_on channel=0 note=71 velocity=0 time=0
note_on channel=0 note=67 velocity=0 time=0
note_on channel=0 note=66 velocity=39 time=0
note_on channel=0 note=69 velocity=47 time=0
<meta message set_tempo tempo=508475 time=240>
note_on channel=0 note=69 velocity=0 time=0
note_on channel=0 note=66 velocity=0 time=0
note_on channel=0 note=64 velocity=42 time=0
note_on channel=0 note=67 velocity=50 time=0
control_change channel=0 control=64 value=0 time=10
control_change channel=0 control=64 value=127 time=146
<meta message set_tempo tempo=500000 time=84>
note_on channel=0 note=67 velocity=0 time=0
note_on channel=0 note=64 velocity=0 time=0
note_on channel=0 note=62 velocity=39 time=0
note_on channel=0 note=66 velocity=47 time=0
<meta message set_tempo tempo=495868 time=240>
note_on channel=0 note=66 velocity=0 time=0
note_on channel=0 note=62 velocity=0 time=0
note_on channel=0 note=61 velocity=45 time=0
note_on channel=0 note=64 velocity=50 time=0
note_on channel=0 note=45 velocity=53 time=0
control_change channel=0 control=64 value=0 time=0
control_change channel=0 control=64 value=127 time=141
<meta message set_tempo tempo=504202 time=99>
note_on channel=0 note=64 velocity=0 time=0
note_on channel=0 note=61 velocity=0 time=0
note_on channel=0 note=57 velocity=45 time=0
<meta message set_tempo tempo=500000 time=240>
note_on channel=0 note=57 velocity=0 time=0
note_on channel=0 note=45 velocity=0 time=0
note_on channel=0 note=62 velocity=45 time=0
note_on channel=0 note=69 velocity=53 time=0
note_on channel=0 note=42 velocity=49 time=0
control_change channel=0 control=64 value=0 time=10
control_change channel=0 control=64 value=127 time=117
<meta message set_tempo tempo=526316 time=113>
note_on channel=0 note=69 velocity=0 time=0
note_on channel=0 note=62 velocity=0 time=0
note_on channel=0 note=57 velocity=47 time=0
<meta message set_tempo tempo=504202 time=240>
note_on channel=0 note=57 velocity=0 time=0
note_on channel=0 note=42 velocity=0 time=0
note_on channel=0 note=62 velocity=45 time=0
note_on channel=0 note=66 velocity=54 time=0
note_on channel=0 note=38 velocity=47 time=0
control_change channel=0 control=64 value=0 time=10
control_change channel=0 control=64 value=127 time=188
<meta message set_tempo tempo=526316 time=42>
note_on channel=0 note=66 velocity=0 time=0
note_on channel=0 note=62 velocity=0 time=0
note_on channel=0 note=57 velocity=47 time=0
<meta message set_tempo tempo=526316 time=240>
note_on channel=0 note=57 velocity=0 time=0
note_on channel=0 note=38 velocity=0 time=0
note_on channel=0 note=64 velocity=54 time=0
note_on channel=0 note=61 velocity=45 time=0
note_on channel=0 note=45 velocity=53 time=0
control_change channel=0 control=64 value=0 time=0
control_change channel=0 control=64 value=127 time=127
<meta message set_tempo tempo=495868 time=113>
note_on channel=0 note=61 velocity=0 time=0
note_on channel=0 note=64 velocity=0 time=0
note_on channel=0 note=57 velocity=48 time=0
<meta message set_tempo tempo=495868 time=240>
note_on channel=0 note=57 velocity=0 time=0
note_on channel=0 note=45 velocity=0 time=0
note_on channel=0 note=67 velocity=39 time=0
note_on channel=0 note=71 velocity=47 time=0
note_on channel=0 note=83 velocity=55 time=0
control_change channel=0 control=64 value=0 time=10
control_change channel=0 control=64 value=127 time=160
<meta message set_tempo tempo=500000 time=70>
note_on channel=0 note=83 velocity=0 time=0
note_on channel=0 note=71 velocity=0 time=0
note_on channel=0 note=67 velocity=0 time=0
note_on channel=0 note=66 velocity=37 time=0
note_on channel=0 note=69 velocity=44 time=0
note_on channel=0 note=81 velocity=51 time=0
<meta message set_tempo tempo=508475 time=240>
note_on channel=0 note=81 velocity=0 time=0
note_on channel=0 note=69 velocity=0 time=0
note_on channel=0 note=66 velocity=0 time=0
note_on channel=0 note=64 velocity=39 time=0
note_on channel=0 note=67 velocity=47 time=0
note_on channel=0 note=79 velocity=55 time=0
control_change channel=0 control=64 value=0 time=10
control_change channel=0 control=64 value=127 time=146
<meta message set_tempo tempo=500000 time=84>
note_on channel=0 note=79 velocity=0 time=0
note_on channel=0 note=67 velocity=0 time=0
note_on channel=0 note=64 velocity=0 time=0
note_on channel=0 note=62 velocity=37 time=0
note_on channel=0 note=66 velocity=44 time=0
note_on channel=0 note=78 velocity=51 time=0
note_on channel=0 note=78 velocity=0 time=180
note_on channel=0 note=80 velocity=48 time=0
<meta message set_tempo tempo=491803 time=60>
note_on channel=0 note=80 velocity=0 time=0
note_on channel=0 note=66 velocity=0 time=0
note_on channel=0 note=62 velocity=0 time=0
note_on channel=0 note=61 velocity=42 time=0
note_on channel=0 note=64 velocity=47 time=0
note_on channel=0 note=81 velocity=63 time=0
control_change channel=0 control=64 value=0 time=0
control_change channel=0 control=64 value=127 time=141
<meta message set_tempo tempo=504202 time=99>
note_on channel=0 note=64 velocity=0 time=0
note_on channel=0 note=61 velocity=0 time=0
note_on channel=0 note=57 velocity=42 time=0
note_on channel=0 note=81 velocity=0 time=120
note_on channel=0 note=80 velocity=48 time=60
<meta message set_tempo tempo=491803 time=60>
note_on channel=0 note=80 velocity=0 time=0
note_on channel=0 note=57 velocity=0 time=0
note_on channel=0 note=66 velocity=42 time=0
note_on channel=0 note=69 velocity=50 time=0
note_on channel=0 note=81 velocity=63 time=0
control_change channel=0 control=64 value=0 time=10
control_change channel=0 control=64 value=127 time=117
<meta message set_tempo tempo=504202 time=113>
note_on channel=0 note=69 velocity=0 time=0
note_on channel=0 note=66 velocity=0 time=0
note_on channel=0 note=57 velocity=44 time=0
note_on channel=0 note=81 velocity=0 time=120
note_on channel=0 note=80 velocity=48 time=60
<meta message set_tempo tempo=495868 time=60>
note_on channel=0 note=80 velocity=0 time=0
note_on channel=0 note=57 velocity=0 time=0
note_on channel=0 note=62 velocity=42 time=0
note_on channel=0 note=66 velocity=51 time=0
note_on channel=0 note=81 velocity=64 time=0
control_change channel=0 control=64 value=0 time=10
control_change channel=0 control=64 value=127 time=188
<meta message set_tempo tempo=504202 time=42>
note_on channel=0 note=66 velocity=0 time=0
note_on channel=0 note=62 velocity=0 time=0
note_on channel=0 note=57 velocity=44 time=0
note_on channel=0 note=81 velocity=0 time=120
note_on channel=0 note=80 velocity=48 time=60
<meta message set_tempo tempo=526316 time=60>
note_on channel=0 note=80 velocity=0 time=0
note_on channel=0 note=57 velocity=0 time=0
note_on channel=0 note=64 velocity=51 time=0
note_on channel=0 note=61 velocity=42 time=0
note_on channel=0 note=81 velocity=64 time=0
control_change channel=0 control=64 value=0 time=0
control_change channel=0 control=64 value=127 time=127
<meta message set_tempo tempo=495868 time=113>
note_on channel=0 note=61 velocity=0 time=0
note_on channel=0 note=64 velocity=0 time=0
note_on channel=0 note=69 velocity=45 time=0
<meta message set_tempo tempo=512821 time=240>
note_on channel=0 note=69 velocity=0 time=0
note_on channel=0 note=81 velocity=0 time=0
note_on channel=0 note=62 velocity=50 time=0
note_on channel=0 note=74 velocity=64 time=0
note_on channel=0 note=59 velocity=46 time=0
control_change channel=0 control=64 value=0 time=3
<meta message set_tempo tempo=495868 time=237>
note_on channel=0 note=59 velocity=0 time=0
note_on channel=0 note=74 velocity=0 time=0
note_on channel=0 note=73 velocity=59 time=0
note_on channel=0 note=58 velocity=41 time=0
<meta message set_tempo tempo=487805 time=240>
note_on channel=0 note=58 velocity=0 time=0
note_on channel=0 note=73 velocity=0 time=0
note_on channel=0 note=74 velocity=61 time=0
note_on channel=0 note=59 velocity=47 time=0
<meta message set_tempo tempo=500000 time=240>
note_on channel=0 note=59 velocity=0 time=0
note_on channel=0 note=74 velocity=0 time=0
note_on channel=0 note=71 velocity=54 time=0
note_on channel=0 note=55 velocity=41 time=0
<meta message set_tempo tempo=487805 time=240>
note_on channel=0 note=55 velocity=0 time=0
note_on channel=0 note=71 velocity=0 time=0
note_on channel=0 note=69 velocity=63 time=0
note_on channel=0 note=54 velocity=48 time=0
control_change channel=0 control=64 value=127 time=99
<meta message set_tempo tempo=508475 time=141>
note_on channel=0 note=69 velocity=0 time=0
note_on channel=0 note=62 velocity=0 time=0
note_on channel=0 note=57 velocity=55 time=0
<meta message set_tempo tempo=487805 time=240>
note_on channel=0 note=57 velocity=0 time=0
note_on channel=0 note=54 velocity=0 time=0
note_on channel=0 note=67 velocity=61 time=0
note_on channel=0 note=64 velocity=54 time=0
note_on channel=0 note=52 velocity=44 time=0
control_change channel=0 control=64 value=0 time=10
control_change channel=0 control=64 value=127 time=160
<meta message set_tempo tempo=512821 time=70>
note_on channel=0 note=64 velocity=0 time=0
note_on channel=0 note=59 velocity=54 time=0
<meta message set_tempo tempo=487805 time=240>
note_on channel=0 note=59 velocity=0 time=0
note_on channel=0 note=52 velocity=0 time=0
note_on channel=0 note=67 velocity=0 time=0
note_on channel=0 note=64 velocity=61 time=0
note_on channel=0 note=61 velocity=54 time=0
note_on channel=0 note=45 velocity=44 time=0
control_change channel=0 control=64 value=0 time=10
control_change channel=0 control=64 value=127 time=131
<meta message set_tempo tempo=517241 time=99>
note_on channel=0 note=61 velocity=0 time=0
note_on channel=0 note=57 velocity=51 time=0
<meta message set_tempo tempo=495868 time=240>
note_on channel=0 note=57 velocity=0 time=0
note_on channel=0 note=45 velocity=0 time=0
note_on channel=0 note=64 velocity=0 time=0
note_on channel=0 note=62 velocity=52 time=0
note_on channel=0 note=66 velocity=64 time=0
note_on channel=0 note=50 velocity=49 time=0
control_change channel=0 control=64 value=0 time=0
control_change channel=0 control=64 value=127 time=141
<meta message set_tempo tempo=526316 time=99>
note_on channel=0 note=66 velocity=0 time=0
note_on channel=0 note=69 velocity=55 time=0
note_on channel=0 note=62 velocity=0 time=110
<meta message set_tempo tempo=512821 time=130>
note_on channel=0 note=69 velocity=0 time=0
note_on channel=0 note=50 velocity=0 time=0
note_on channel=0 note=71 velocity=64 time=0
note_on channel=0 note=74 velocity=64 time=0
note_on channel=0 note=86 velocity=58 time=0
control_change channel=0 control=64 value=0 time=10
<meta message set_tempo tempo=495868 time=230>
note_on channel=0 note=86 velocity=0 time=0
note_on channel=0 note=74 velocity=0 time=0
note_on channel=0 note=71 velocity=0 time=0
note_on channel=0 note=70 velocity=56 time=0
note_on channel=0 note=73 velocity=56 time=0
note_on channel=0 note=85 velocity=53 time=0
<meta message set_tempo tempo=504202 time=240>
note_on channel=0 note=85 velocity=0 time=0
note_on channel=0 note=73 velocity=0 time=0
note_on channel=0 note=70 velocity=0 time=0
note_on channel=0 note=71 velocity=61 time=0
note_on channel=0 note=74 velocity=61 time=0
note_on channel=0 note=86 velocity=59 time=0
<meta message set_tempo tempo=500000 time=240>
note_on channel=0 note=86 velocity=0 time=0
note_on channel=0 note=74 velocity=0 time=0
note_on channel=0 note=71 velocity=0 time=0
note_on channel=0 note=67 velocity=54 time=0
note_on channel=0 note=71 velocity=54 time=0
note_on channel=0 note=83 velocity=52 time=0
<meta message set_tempo tempo=487805 time=240>
note_on channel=0 note=83 velocity=0 time=0
note_on channel=0 note=71 velocity=0 time=0
note_on channel=0 note=67 velocity=0 time=0
note_on channel=0 note=66 velocity=56 time=0
note_on channel=0 note=69 velocity=66 time=0
note_on channel=0 note=81 velocity=58 time=0
control_change channel=0 control=64 value=127 time=99
<meta message set_tempo tempo=508475 time=141>
note_on channel=0 note=69 velocity=0 time=0
note_on channel=0 note=66 velocity=0 time=0
note_on channel=0 note=62 velocity=51 time=0
<meta message set_tempo tempo=487805 time=240>
note_on channel=0 note=62 velocity=0 time=0
note_on channel=0 note=81 velocity=0 time=0
note_on channel=0 note=64 velocity=54 time=0
note_on channel=0 note=67 velocity=64 time=0
note_on channel=0 note=79 velocity=62 time=0
control_change channel=0 control=64 value=0 time=10
control_change channel=0 control=64 value=127 time=160
<meta message set_tempo tempo=512821 time=70>
note_on channel=0 note=67 velocity=0 time=0
note_on channel=0 note=64 velocity=0 time=0
note_on channel=0 note=59 velocity=51 time=0
<meta message set_tempo tempo=487805 time=240>
note_on channel=0 note=59 velocity=0 time=0
note_on channel=0 note=79 velocity=0 time=0
note_on channel=0 note=61 velocity=54 time=0
note_on channel=0 note=64 velocity=64 time=0
note_on channel=0 note=76 velocity=59 time=0
control_change channel=0 control=64 value=0 time=10
control_change channel=0 control=64 value=127 time=131
<meta message set_tempo tempo=517241 time=99>
note_on channel=0 note=64 velocity=0 time=0
note_on channel=0 note=61 velocity=0 time=0
note_on channel=0 note=57 velocity=52 time=0
<meta message set_tempo tempo=495868 time=240>
note_on channel=0 note=57 velocity=0 time=0
note_on channel=0 note=76 velocity=0 time=0
note_on channel=0 note=62 velocity=54 time=0
note_on channel=0 note=66 velocity=64 time=0
note_on channel=0 note=74 velocity=56 time=0
control_change channel=0 control=64 value=0 time=0
control_change channel=0 control=64 value=127 time=141
<meta message set_tempo tempo=508475 time=99>
note_on channel=0 note=66 velocity=0 time=0
note_on channel=0 note=62 velocity=0 time=0
note_on channel=0 note=69 velocity=54 time=0
<meta message set_tempo tempo=487805 time=240>
note_on channel=0 note=69 velocity=0 time=0
note_on channel=0 note=74 velocity=0 time=0
note_on channel=0 note=59 velocity=50 time=0
note_on channel=0 note=69 velocity=61 time=0
note_on channel=0 note=43 velocity=43 time=0
control_change channel=0 control=64 value=0 time=10
control_change channel=0 control=64 value=127 time=110
<meta message set_tempo tempo=500000 time=120>
note_on channel=0 note=69 velocity=0 time=0
note_on channel=0 note=67 velocity=51 time=0
note_on channel=0 note=59 velocity=0 time=120
<meta message set_tempo tempo=491803 time=120>
note_on channel=0 note=67 velocity=0 time=0
note_on channel=0 note=43 velocity=0 time=0
note_on channel=0 note=64 velocity=61 time=0
note_on channel=0 note=55 velocity=38 time=0
note_on channel=0 note=45 velocity=32 time=0
control_change channel=0 control=64 value=0 time=10
control_change channel=0 control=64 value=127 time=110
<meta message set_tempo tempo=508475 time=120>
note_on channel=0 note=64 velocity=0 time=0
note_on channel=0 note=61 velocity=52 time=0
<meta message set_tempo tempo=495868 time=240>
note_on channel=0 note=61 velocity=0 time=0
note_on channel=0 note=45 velocity=0 time=0
note_on channel=0 note=55 velocity=0 time=0
note_on channel=0 note=62 velocity=59 time=0
note_on channel=0 note=54 velocity=43 time=0
note_on channel=0 note=50 velocity=36 time=0
control_change channel=0 control=64 value=0 time=10
control_change channel=0 control=64 value=127 time=110
note_on channel=0 note=62 velocity=0 time=120
note_on channel=0 note=66 velocity=50 time=0
<meta message set_tempo tempo=500000 time=240>
note_on channel=0 note=66 velocity=0 time=0
note_on channel=0 note=50 velocity=0 time=0
note_on channel=0 note=54 velocity=0 time=0
note_on channel=0 note=59 velocity=50 time=0
note_on channel=0 note=69 velocity=56 time=0
note_on channel=0 note=43 velocity=38 time=0
control_change channel=0 control=64 value=0 time=10
control_change channel=0 control=64 value=127 time=105
<meta message set_tempo tempo=512821 time=125>
note_on channel=0 note=69 velocity=0 time=0
note_on channel=0 note=67 velocity=50 time=0
note_on channel=0 note=59 velocity=0 time=120
note_on channel=0 note=67 velocity=0 time=120
note_on channel=0 note=43 velocity=0 time=0
note_on channel=0 note=64 velocity=57 time=0
note_on channel=0 note=55 velocity=43 time=0
note_on channel=0 note=45 velocity=36 time=0
control_change channel=0 control=64 value=0 time=10
control_change channel=0 control=64 value=127 time=127
<meta message set_tempo tempo=526316 time=103>
note_on channel=0 note=64 velocity=0 time=0
note_on channel=0 note=61 velocity=48 time=0
<meta message set_tempo tempo=618557 time=240>
note_on channel=0 note=61 velocity=0 time=0
note_on channel=0 note=45 velocity=0 time=0
note_on channel=0 note=55 velocity=0 time=0
note_on channel=0 note=62 velocity=52 time=0
note_on channel=0 note=50 velocity=34 time=0
note_on channel=0 note=54 velocity=40 time=0
control_change channel=0 control=64 value=0 time=10
control_change channel=0 control=64 value=127 time=116
note_on channel=0 note=54 velocity=0 time=354
note_on channel=0 note=50 velocity=0 time=0
note_on channel=0 note=62 velocity=0 time=0
note_on channel=0 note=38 velocity=40 time=0
control_change channel=0 control=64 value=0 time=212
note_on channel=0 note=38 velocity=0 time=28
<meta message key_signature key='A' time=720>
<meta message set_tempo tempo=530973 time=0>
<meta message marker text='Allegro moderato' time=0>
note_on channel=0 note=61 velocity=64 time=0
<meta message text text='bdca426d104a26ac9dcb070447587523' time=0>
control_change channel=0 control=91 value=127 time=0
control_change channel=0 control=64 value=127 time=7
note_on channel=0 note=61 velocity=0 time=53
note_on channel=0 note=64 velocity=64 time=0
note_on channel=0 note=64 velocity=0 time=60
note_on channel=0 note=69 velocity=76 time=0
note_on channel=0 note=45 velocity=59 time=0
note_on channel=0 note=57 velocity=70 time=0
<meta message set_tempo tempo=476190 time=840>
note_on channel=0 note=57 velocity=0 time=0
note_on channel=0 note=45 velocity=0 time=0
note_on channel=0 note=69 velocity=0 time=0
note_on channel=0 note=64 velocity=70 time=0
note_on channel=0 note=40 velocity=53 time=0
note_on channel=0 note=52 velocity=63 time=0
control_change channel=0 control=64 value=0 time=8
control_change channel=0 control=64 value=127 time=66
<meta message set_tempo tempo=495868 time=406>
note_on channel=0 note=52 velocity=0 time=0
note_on channel=0 note=40 velocity=0 time=0
note_on channel=0 note=64 velocity=0 time=0
note_on channel=0 note=73 velocity=72 time=0
note_on channel=0 note=49 velocity=48 time=0
note_on channel=0 note=61 velocity=57 time=0
control_change channel=0 control=64 value=0 time=10
control_change channel=0 control=64 value=127 time=89
<meta message set_tempo tempo=465116 time=141>
note_on channel=0 note=73 velocity=0 time=0
note_on channel=0 note=74 velocity=74 time=0
note_on channel=0 note=74 velocity=0 time=120
note_on channel=0 note=71 velocity=70 time=0
<meta message set_tempo tempo=480000 time=120>
note_on channel=0 note=71 velocity=0 time=0
note_on channel=0 note=61 velocity=0 time=0
note_on channel=0 note=49 velocity=0 time=0
note_on channel=0 note=69 velocity=70 time=0
note_on channel=0 note=45 velocity=45 time=0
note_on channel=0 note=57 velocity=53 time=0
control_change channel=0 control=64 value=0 time=8
control_change channel=0 control=64 value=127 time=63
note_on channel=0 note=57 velocity=0 time=169
note_on channel=0 note=45 velocity=0 time=0
note_on channel=0 note=69 velocity=0 time=0
control_change channel=0 control=64 value=0 time=14
note_on channel=0 note=73 velocity=50 time=706
control_change channel=0 control=64 value=127 time=50
note_on channel=0 note=73 velocity=0 time=190
note_on channel=0 note=74 velocity=52 time=0
note_on channel=0 note=74 velocity=0 time=120
note_on channel=0 note=71 velocity=46 time=0
note_on channel=0 note=71 velocity=0 time=120
note_on channel=0 note=69 velocity=49 time=0
control_change channel=0 control=64 value=0 time=12
control_change channel=0 control=64 value=127 time=73
<meta message set_tempo tempo=504202 time=155>
<meta message set_tempo tempo=472441 time=240>
note_on channel=0 note=69 velocity=0 time=0
note_on channel=0 note=85 velocity=57 time=0
note_on channel=0 note=57 velocity=40 time=0
note_on channel=0 note=66 velocity=40 time=0
<meta message set_tempo tempo=491803 time=240>
note_on channel=0 note=66 velocity=0 time=0
note_on channel=0 note=57 velocity=0 time=0
note_on channel=0 note=85 velocity=0 time=0
control_change channel=0 control=64 value=0 time=141
<meta message set_tempo tempo=472441 time=99>
note_on channel=0 note=75 velocity=50 time=0
note_on channel=0 note=59 velocity=40 time=0
note_on channel=0 note=69 velocity=40 time=0
note_on channel=0 note=69 velocity=0 time=480
note_on channel=0 note=59 velocity=0 time=0
note_on channel=0 note=75 velocity=0 time=0
note_on channel=0 note=76 velocity=52 time=0
note_on channel=0 note=64 velocity=40 time=0
note_on channel=0 note=68 velocity=40 time=0
control_change channel=0 control=64 value=127 time=183
note_on channel=0 note=68 velocity=0 time=297
note_on channel=0 note=64 velocity=0 time=0
note_on channel=0 note=76 velocity=0 time=240
note_on channel=0 note=77 velocity=51 time=0
note_on channel=0 note=77 velocity=0 time=220
<meta message set_tempo tempo=458015 time=20>
note_on channel=0 note=80 velocity=57 time=0
control_change channel=0 control=64 value=0 time=0
<meta message set_tempo tempo=472441 time=240>
note_on channel=0 note=80 velocity=0 time=0
note_on channel=0 note=78 velocity=56 time=0
<meta message set_tempo tempo=454545 time=240>
note_on channel=0 note=78 velocity=0 time=0
note_on channel=0 note=76 velocity=54 time=0
<meta message set_tempo tempo=472441 time=240>
note_on channel=0 note=76 velocity=0 time=0
note_on channel=0 note=74 velocity=53 time=0
note_on channel=0 note=74 velocity=0 time=240
note_on channel=0 note=73 velocity=52 time=0
<meta message set_tempo tempo=491803 time=240>
note_on channel=0 note=73 velocity=0 time=0
note_on channel=0 note=71 velocity=51 time=0
<meta message set_tempo tempo=472441 time=240>
note_on channel=0 note=71 velocity=0 time=0
note_on channel=0 note=69 velocity=51 time=0
note_on channel=0 note=52 velocity=39 time=0
control_change channel=0 control=64 value=127 time=57
note_on channel=0 note=52 velocity=0 time=183
note_on channel=0 note=69 velocity=0 time=0
note_on channel=0 note=68 velocity=46 time=0
note_on channel=0 note=62 velocity=33 time=0
<meta message set_tempo tempo=454545 time=240>
note_on channel=0 note=62 velocity=0 time=0
note_on channel=0 note=68 velocity=0 time=0
note_on channel=0 note=76 velocity=53 time=0
note_on channel=0 note=59 velocity=33 time=0
control_change channel=0 control=64 value=0 time=6
control_change channel=0 control=64 value=127 time=85
<meta message set_tempo tempo=461538 time=149>
note_on channel=0 note=59 velocity=0 time=0
note_on channel=0 note=76 velocity=0 time=0
note_on channel=0 note=74 velocity=51 time=0
note_on channel=0 note=62 velocity=28 time=0
<meta message set_tempo tempo=472441 time=240>
note_on channel=0 note=62 velocity=0 time=0
note_on channel=0 note=74 velocity=0 time=0
note_on channel=0 note=59 velocity=31 time=0
control_change channel=0 control=64 value=0 time=10
control_change channel=0 control=64 value=127 time=103
<meta message set_tempo tempo=472441 time=127>
note_on channel=0 note=59 velocity=0 time=0
note_on channel=0 note=62 velocity=29 time=0
<meta message set_tempo tempo=472441 time=240>
note_on channel=0 note=62 velocity=0 time=0
note_on channel=0 note=71 velocity=57 time=0
note_on channel=0 note=52 velocity=40 time=0
control_change channel=0 control=64 value=0 time=9
control_change channel=0 control=64 value=127 time=147
note_on channel=0 note=52 velocity=0 time=84
note_on channel=0 note=71 velocity=0 time=0
note_on channel=0 note=69 velocity=53 time=0
note_on channel=0 note=61 velocity=34 time=0
<meta message set_tempo tempo=454545 time=240>
note_on channel=0 note=61 velocity=0 time=0
note_on channel=0 note=69 velocity=0 time=0
note_on channel=0 note=78 velocity=57 time=0
note_on channel=0 note=57 velocity=34 time=0
control_change channel=0 control=64 value=0 time=7
control_change channel=0 control=64 value=127 time=120
<meta message set_tempo tempo=465116 time=113>
note_on channel=0 note=57 velocity=0 time=0
note_on channel=0 note=78 velocity=0 time=0
note_on channel=0 note=76 velocity=56 time=0
note_on channel=0 note=61 velocity=30 time=0
note_on channel=0 note=61 velocity=0 time=240
note_on channel=0 note=76 velocity=0 time=0
note_on channel=0 note=57 velocity=32 time=0
control_change channel=0 control=64 value=0 time=9
control_change channel=0 control=64 value=127 time=104
<meta message set_tempo tempo=472441 time=127>
note_on channel=0 note=57 velocity=0 time=0
note_on channel=0 note=61 velocity=28 time=0
<meta message set_tempo tempo=468750 time=240>
note_on channel=0 note=61 velocity=0 time=0
note_on channel=0 note=73 velocity=63 time=0
note_on channel=0 note=50 velocity=42 time=0
control_change channel=0 control=64 value=0 time=6
control_change channel=0 control=64 value=127 time=143
<meta message set_tempo tempo=454545 time=91>
note_on channel=0 note=50 velocity=0 time=0
note_on channel=0 note=73 velocity=0 time=0
note_on channel=0 note=71 velocity=59 time=0
note_on channel=0 note=59 velocity=36 time=0
<meta message set_tempo tempo=458015 time=240>
note_on channel=0 note=59 velocity=0 time=0
note_on channel=0 note=71 velocity=0 time=0
note_on channel=0 note=79 velocity=62 time=0
note_on channel=0 note=54 velocity=36 time=0
control_change channel=0 control=64 value=0 time=7
control_change channel=0 control=64 value=127 time=85
<meta message set_tempo tempo=468750 time=148>
note_on channel=0 note=54 velocity=0 time=0
note_on channel=0 note=79 velocity=0 time=0
note_on channel=0 note=78 velocity=59 time=0
note_on channel=0 note=59 velocity=34 time=0
<meta message set_tempo tempo=468750 time=240>
note_on channel=0 note=59 velocity=0 time=0
note_on channel=0 note=78 velocity=0 time=0
note_on channel=0 note=54 velocity=36 time=0
control_change channel=0 control=64 value=0 time=6
control_change channel=0 control=64 value=127 time=109
note_on channel=0 note=54 velocity=0 time=125
note_on channel=0 note=59 velocity=34 time=0
<meta message set_tempo tempo=468750 time=240>
note_on channel=0 note=59 velocity=0 time=0
note_on channel=0 note=66 velocity=51 time=0
note_on channel=0 note=50 velocity=39 time=0
control_change channel=0 control=64 value=0 time=5
control_change channel=0 control=64 value=127 time=122
<meta message set_tempo tempo=451128 time=353>
note_on channel=0 note=50 velocity=0 time=0
note_on channel=0 note=66 velocity=0 time=0
note_on channel=0 note=76 velocity=53 time=0
control_change channel=0 control=64 value=0 time=43
<meta message set_tempo tempo=465116 time=197>
note_on channel=0 note=76 velocity=0 time=0
note_on channel=0 note=74 velocity=51 time=0
note_on channel=0 note=74 velocity=0 time=240
note_on channel=0 note=73 velocity=51 time=0
<meta message set_tempo tempo=476190 time=240>
note_on channel=0 note=73 velocity=0 time=0
note_on channel=0 note=71 velocity=49 time=0
<meta message set_tempo tempo=468750 time=240>
note_on channel=0 note=71 velocity=0 time=0
note_on channel=0 note=69 velocity=51 time=0
note_on channel=0 note=52 velocity=33 time=0
note_on channel=0 note=62 velocity=39 time=0
control_change channel=0 control=64 value=127 time=85
note_on channel=0 note=69 velocity=0 time=155
note_on channel=0 note=68 velocity=48 time=0
<meta message set_tempo tempo=476190 time=240>
note_on channel=0 note=68 velocity=0 time=0
note_on channel=0 note=62 velocity=0 time=0
note_on channel=0 note=52 velocity=0 time=0
note_on channel=0 note=69 velocity=51 time=0
note_on channel=0 note=57 velocity=33 time=0
note_on channel=0 note=61 velocity=39 time=0
control_change channel=0 control=64 value=0 time=9
control_change channel=0 control=64 value=127 time=175
note_on channel=0 note=61 velocity=0 time=296
note_on channel=0 note=57 velocity=0 time=0
note_on channel=0 note=69 velocity=0 time=0
control_change channel=0 control=64 value=0 time=14
note_on channel=0 note=71 velocity=68 time=286
note_on channel=0 note=71 velocity=0 time=60
note_on channel=0 note=76 velocity=71 time=0
note_on channel=0 note=76 velocity=0 time=60
note_on channel=0 note=80 velocity=74 time=0
<meta message set_tempo tempo=468750 time=60>
note_on channel=0 note=80 velocity=0 time=0
note_on channel=0 note=83 velocity=77 time=0
note_on channel=0 note=52 velocity=60 time=0
control_change channel=0 control=64 value=127 time=127
note_on channel=0 note=52 velocity=0 time=113
note_on channel=0 note=56 velocity=52 time=0
note_on channel=0 note=56 velocity=0 time=240
note_on channel=0 note=59 velocity=56 time=0
note_on channel=0 note=59 velocity=0 time=240
note_on channel=0 note=56 velocity=52 time=0
note_on channel=0 note=56 velocity=0 time=240
note_on channel=0 note=54 velocity=56 time=0
control_change channel=0 control=64 value=0 time=7
note_on channel=0 note=54 velocity=0 time=233
note_on channel=0 note=52 velocity=51 time=0
<meta message set_tempo tempo=461538 time=240>
note_on channel=0 note=52 velocity=0 time=0
note_on channel=0 note=83 velocity=0 time=0
note_on channel=0 note=83 velocity=73 time=0
note_on channel=0 note=51 velocity=60 time=0
control_change channel=0 control=64 value=127 time=57
note_on channel=0 note=83 velocity=0 time=63
note_on channel=0 note=81 velocity=72 time=0
note_on channel=0 note=81 velocity=0 time=120
note_on channel=0 note=51 velocity=0 time=0
note_on channel=0 note=80 velocity=71 time=0
note_on channel=0 note=52 velocity=50 time=0
note_on channel=0 note=80 velocity=0 time=120
note_on channel=0 note=78 velocity=70 time=0
note_on channel=0 note=78 velocity=0 time=108
note_on channel=0 note=52 velocity=0 time=12
note_on channel=0 note=78 velocity=72 time=0
note_on channel=0 note=54 velocity=50 time=0
control_change channel=0 control=64 value=0 time=10
control_change channel=0 control=64 value=127 time=65
note_on channel=0 note=78 velocity=0 time=45
note_on channel=0 note=76 velocity=71 time=0
note_on channel=0 note=76 velocity=0 time=120
note_on channel=0 note=54 velocity=0 time=0
note_on channel=0 note=75 velocity=69 time=0
note_on channel=0 note=47 velocity=51 time=0
note_on channel=0 note=75 velocity=0 time=120
note_on channel=0 note=73 velocity=68 time=0
<meta message set_tempo tempo=468750 time=120>
note_on channel=0 note=73 velocity=0 time=0
note_on channel=0 note=47 velocity=0 time=0
note_on channel=0 note=71 velocity=70 time=0
note_on channel=0 note=49 velocity=54 time=0
control_change channel=0 control=64 value=0 time=10
control_change channel=0 control=64 value=127 time=93
note_on channel=0 note=71 velocity=0 time=17
note_on channel=0 note=69 velocity=67 time=0
<meta message set_tempo tempo=476190 time=120>
note_on channel=0 note=69 velocity=0 time=0
note_on channel=0 note=49 velocity=0 time=0
note_on channel=0 note=68 velocity=67 time=0
note_on channel=0 note=51 velocity=51 time=0
note_on channel=0 note=68 velocity=0 time=120
note_on channel=0 note=69 velocity=67 time=0
<meta message set_tempo tempo=465116 time=120>
note_on channel=0 note=69 velocity=0 time=0
note_on channel=0 note=51 velocity=0 time=0
note_on channel=0 note=68 velocity=67 time=0
note_on channel=0 note=52 velocity=60 time=0
control_change channel=0 control=64 value=0 time=57
note_on channel=0 note=68 velocity=0 time=63
note_on channel=0 note=71 velocity=69 time=0
control_change channel=0 control=64 value=127 time=28
note_on channel=0 note=71 velocity=0 time=92
note_on channel=0 note=52 velocity=0 time=0
note_on channel=0 note=76 velocity=70 time=0
note_on channel=0 note=56 velocity=52 time=0
note_on channel=0 note=76 velocity=0 time=120
note_on channel=0 note=80 velocity=72 time=0
<meta message set_tempo tempo=454545 time=120>
note_on channel=0 note=80 velocity=0 time=0
note_on channel=0 note=56 velocity=0 time=0
note_on channel=0 note=83 velocity=73 time=0
note_on channel=0 note=59 velocity=52 time=0
control_change channel=0 control=64 value=0 time=10
note_on channel=0 note=59 velocity=0 time=230
note_on channel=0 note=56 velocity=52 time=0
<meta message set_tempo tempo=461538 time=240>
note_on channel=0 note=56 velocity=0 time=0
note_on channel=0 note=54 velocity=55 time=0
note_on channel=0 note=54 velocity=0 time=240
note_on channel=0 note=52 velocity=52 time=0
<meta message set_tempo tempo=461538 time=240>
note_on channel=0 note=52 velocity=0 time=0
note_on channel=0 note=83 velocity=0 time=0
note_on channel=0 note=83 velocity=73 time=0
note_on channel=0 note=51 velocity=60 time=0
control_change channel=0 control=64 value=127 time=57
note_on channel=0 note=83 velocity=0 time=63
note_on channel=0 note=81 velocity=72 time=0
note_on channel=0 note=81 velocity=0 time=120
note_on channel=0 note=51 velocity=0 time=0
note_on channel=0 note=80 velocity=71 time=0
note_on channel=0 note=52 velocity=50 time=0
note_on channel=0 note=80 velocity=0 time=120
note_on channel=0 note=78 velocity=70 time=0
note_on channel=0 note=78 velocity=0 time=110
note_on channel=0 note=52 velocity=0 time=10
note_on channel=0 note=78 velocity=72 time=0
note_on channel=0 note=54 velocity=50 time=0
control_change channel=0 control=64 value=0 time=10
control_change channel=0 control=64 value=127 time=65
note_on channel=0 note=78 velocity=0 time=45
note_on channel=0 note=76 velocity=71 time=0
note_on channel=0 note=76 velocity=0 time=120
note_on channel=0 note=54 velocity=0 time=0
note_on channel=0 note=75 velocity=69 time=0
note_on channel=0 note=47 velocity=51 time=0
note_on channel=0 note=75 velocity=0 time=120
note_on channel=0 note=73 velocity=68 time=0
<meta message set_tempo tempo=468750 time=120>
note_on channel=0 note=73 velocity=0 time=0
note_on channel=0 note=47 velocity=0 time=0
note_on channel=0 note=71 velocity=70 time=0
note_on channel=0 note=49 velocity=54 time=0
control_change channel=0 control=64 value=0 time=10
control_change channel=0 control=64 value=127 time=93
note_on channel=0 note=71 velocity=0 time=17
note_on channel=0 note=69 velocity=67 time=0
<meta message set_tempo tempo=476190 time=120>
note_on channel=0 note=69 velocity=0 time=0
note_on channel=0 note=49 velocity=0 time=0
note_on channel=0 note=68 velocity=67 time=0
note_on channel=0 note=51 velocity=51 time=0
note_on channel=0 note=68 velocity=0 time=120
note_on channel=0 note=69 velocity=67 time=0
<meta message set_tempo tempo=465116 time=120>
note_on channel=0 note=69 velocity=0 time=0
note_on channel=0 note=51 velocity=0 time=0
note_on channel=0 note=68 velocity=67 time=0
note_on channel=0 note=52 velocity=60 time=0
control_change channel=0 control=64 value=0 time=57
note_on channel=0 note=68 velocity=0 time=63
note_on channel=0 note=71 velocity=64 time=0
control_change channel=0 control=64 value=127 time=28
<meta message set_tempo tempo=458015 time=92>
note_on channel=0 note=71 velocity=0 time=0
note_on channel=0 note=69 velocity=70 time=0
note_on channel=0 note=69 velocity=0 time=120
note_on channel=0 note=68 velocity=64 time=0
note_on channel=0 note=69 velocity=68 time=113
<meta message set_tempo tempo=454545 time=7>
note_on channel=0 note=68 velocity=0 time=0
note_on channel=0 note=52 velocity=0 time=0
control_change channel=0 control=64 value=0 time=10
control_change channel=0 control=64 value=127 time=70
note_on channel=0 note=69 velocity=0 time=33
note_on channel=0 note=71 velocity=68 time=7
note_on channel=0 note=71 velocity=0 time=120
note_on channel=0 note=73 velocity=69 time=0
note_on channel=0 note=73 velocity=0 time=120
note_on channel=0 note=75 velocity=70 time=0
<meta message set_tempo tempo=461538 time=120>
note_on channel=0 note=75 velocity=0 time=0
note_on channel=0 note=76 velocity=70 time=0
control_change channel=0 control=64 value=0 time=8
control_change channel=0 control=64 value=127 time=32
note_on channel=0 note=76 velocity=0 time=80
note_on channel=0 note=78 velocity=71 time=0
note_on channel=0 note=78 velocity=0 time=120
note_on channel=0 note=80 velocity=72 time=0
note_on channel=0 note=80 velocity=0 time=120
note_on channel=0 note=81 velocity=72 time=0
<meta message set_tempo tempo=454545 time=76>
note_on channel=0 note=81 velocity=0 time=44
note_on channel=0 note=83 velocity=73 time=0
control_change channel=0 control=64 value=0 time=9
control_change channel=0 control=64 value=127 time=54
note_on channel=0 note=83 velocity=0 time=57
note_on channel=0 note=85 velocity=74 time=0
<meta message set_tempo tempo=451128 time=4>
note_on channel=0 note=85 velocity=0 time=116
note_on channel=0 note=87 velocity=74 time=0
<meta message set_tempo tempo=447761 time=28>
note_on channel=0 note=87 velocity=0 time=92
note_on channel=0 note=88 velocity=75 time=0
<meta message set_tempo tempo=444444 time=52>
note_on channel=0 note=88 velocity=0 time=68
note_on channel=0 note=87 velocity=72 time=0
control_change channel=0 control=64 value=0 time=10
note_on channel=0 note=87 velocity=0 time=110
note_on channel=0 note=85 velocity=70 time=0
control_change channel=0 control=64 value=127 time=0
note_on channel=0 note=85 velocity=0 time=120
note_on channel=0 note=83 velocity=68 time=0
note_on channel=0 note=83 velocity=0 time=120
note_on channel=0 note=81 velocity=65 time=0
<meta message set_tempo tempo=437956 time=76>
note_on channel=0 note=81 velocity=0 time=44
note_on channel=0 note=80 velocity=63 time=0
control_change channel=0 control=64 value=0 time=10
<meta message set_tempo tempo=441176 time=18>
<meta message set_tempo tempo=444444 time=48>
control_change channel=0 control=64 value=127 time=4
note_on channel=0 note=80 velocity=0 time=40
note_on channel=0 note=78 velocity=61 time=0
<meta message set_tempo tempo=447761 time=4>
<meta message set_tempo tempo=451128 time=72>
note_on channel=0 note=78 velocity=0 time=44
note_on channel=0 note=76 velocity=59 time=0
<meta message set_tempo tempo=454545 time=4>
<meta message set_tempo tempo=458015 time=48>
<meta message set_tempo tempo=461538 time=48>
note_on channel=0 note=76 velocity=0 time=20
note_on channel=0 note=75 velocity=57 time=0
<meta message set_tempo tempo=465116 time=120>
note_on channel=0 note=75 velocity=0 time=0
note_on channel=0 note=73 velocity=50 time=0
note_on channel=0 note=57 velocity=38 time=0
note_on channel=0 note=66 velocity=45 time=0
control_change channel=0 control=64 value=0 time=9
note_on channel=0 note=73 velocity=0 time=231
note_on channel=0 note=85 velocity=50 time=120
<meta message set_tempo tempo=476190 time=120>
note_on channel=0 note=85 velocity=0 time=0
note_on channel=0 note=66 velocity=0 time=0
note_on channel=0 note=57 velocity=0 time=0
note_on channel=0 note=76 velocity=54 time=0
note_on channel=0 note=59 velocity=33 time=0
note_on channel=0 note=68 velocity=39 time=0
control_change channel=0 control=64 value=127 time=71
<meta message set_tempo tempo=582524 time=289>
note_on channel=0 note=76 velocity=0 time=60
note_on channel=0 note=80 velocity=50 time=0
<meta message set_tempo tempo=540541 time=60>
note_on channel=0 note=80 velocity=0 time=0
note_on channel=0 note=68 velocity=0 time=0
note_on channel=0 note=75 velocity=53 time=0
note_on channel=0 note=78 velocity=53 time=0
note_on channel=0 note=69 velocity=39 time=0
control_change channel=0 control=64 value=0 time=10
control_change channel=0 control=64 value=127 time=75
note_on channel=0 note=69 velocity=0 time=395
note_on channel=0 note=59 velocity=0 time=0
note_on channel=0 note=75 velocity=0 time=0
note_on channel=0 note=78 velocity=0 time=0
note_on channel=0 note=76 velocity=51 time=0
note_on channel=0 note=64 velocity=35 time=0
note_on channel=0 note=68 velocity=42 time=0
control_change channel=0 control=64 value=0 time=0
note_on channel=0 note=52 velocity=35 time=454
note_on channel=0 note=68 velocity=0 time=26
note_on channel=0 note=76 velocity=0 time=0
note_on channel=0 note=64 velocity=0 time=0
note_on channel=0 note=52 velocity=0 time=454
<meta message set_tempo tempo=540541 time=446>
note_on channel=0 note=64 velocity=61 time=0
control_change channel=0 control=64 value=127 time=11
<meta message set_tempo tempo=476190 time=49>
note_on channel=0 note=76 velocity=74 time=0
note_on channel=0 note=64 velocity=0 time=60
note_on channel=0 note=76 velocity=0 time=360
note_on channel=0 note=66 velocity=61 time=0
control_change channel=0 control=64 value=0 time=6
<meta message set_tempo tempo=468750 time=54>
note_on channel=0 note=78 velocity=70 time=0
control_change channel=0 control=64 value=127 time=20
note_on channel=0 note=66 velocity=0 time=40
note_on channel=0 note=78 velocity=0 time=360
note_on channel=0 note=67 velocity=61 time=0
control_change channel=0 control=64 value=0 time=5
control_change channel=0 control=64 value=127 time=41
<meta message set_tempo tempo=472441 time=14>
note_on channel=0 note=79 velocity=70 time=0
note_on channel=0 note=67 velocity=0 time=60
<meta message set_tempo tempo=491803 time=180>
<meta message set_tempo tempo=472441 time=240>
note_on channel=0 note=79 velocity=0 time=0
note_on channel=0 note=71 velocity=56 time=0
note_on channel=0 note=54 velocity=47 time=0
control_change channel=0 control=64 value=0 time=0
control_change channel=0 control=64 value=127 time=92
note_on channel=0 note=54 velocity=0 time=148
note_on channel=0 note=61 velocity=39 time=0
<meta message set_tempo tempo=465116 time=240>
note_on channel=0 note=61 velocity=0 time=0
note_on channel=0 note=71 velocity=0 time=0
note_on channel=0 note=70 velocity=52 time=0
note_on channel=0 note=66 velocity=39 time=0
control_change channel=0 control=64 value=0 time=9
control_change channel=0 control=64 value=127 time=76
note_on channel=0 note=66 velocity=0 time=155
note_on channel=0 note=64 velocity=39 time=0
<meta message set_tempo tempo=468750 time=240>
note_on channel=0 note=64 velocity=0 time=0
note_on channel=0 note=70 velocity=0 time=0
note_on channel=0 note=62 velocity=39 time=0
control_change channel=0 control=64 value=0 time=7
control_change channel=0 control=64 value=127 time=120
<meta message set_tempo tempo=483871 time=113>
note_on channel=0 note=62 velocity=0 time=0
note_on channel=0 note=61 velocity=39 time=0
note_on channel=0 note=70 velocity=51 time=120
<meta message set_tempo tempo=472441 time=120>
note_on channel=0 note=70 velocity=0 time=0
note_on channel=0 note=61 velocity=0 time=0
note_on channel=0 note=73 velocity=57 time=0
note_on channel=0 note=54 velocity=47 time=0
control_change channel=0 control=64 value=0 time=10
control_change channel=0 control=64 value=127 time=54
note_on channel=0 note=54 velocity=0 time=176
note_on channel=0 note=62 velocity=42 time=0
<meta message set_tempo tempo=461538 time=240>
note_on channel=0 note=62 velocity=0 time=0
note_on channel=0 note=73 velocity=0 time=0
note_on channel=0 note=71 velocity=56 time=0
note_on channel=0 note=66 velocity=42 time=0
control_change channel=0 control=64 value=0 time=7
control_change channel=0 control=64 value=127 time=57
note_on channel=0 note=66 velocity=0 time=176
note_on channel=0 note=62 velocity=42 time=0
<meta message set_tempo tempo=472441 time=240>
note_on channel=0 note=62 velocity=0 time=0
note_on channel=0 note=71 velocity=0 time=0
note_on channel=0 note=61 velocity=42 time=0
control_change channel=0 control=64 value=0 time=9
control_change channel=0 control=64 value=127 time=118
note_on channel=0 note=61 velocity=0 time=113
note_on channel=0 note=59 velocity=42 time=0
note_on channel=0 note=71 velocity=63 time=120
<meta message set_tempo tempo=458015 time=120>
note_on channel=0 note=71 velocity=0 time=0
note_on channel=0 note=59 velocity=0 time=0
note_on channel=0 note=74 velocity=66 time=0
note_on channel=0 note=54 velocity=56 time=0
control_change channel=0 control=64 value=0 time=11
control_change channel=0 control=64 value=127 time=65
<meta message set_tempo tempo=472441 time=164>
note_on channel=0 note=54 velocity=0 time=0
note_on channel=0 note=58 velocity=47 time=0
note_on channel=0 note=58 velocity=0 time=240
note_on channel=0 note=74 velocity=0 time=0
note_on channel=0 note=73 velocity=60 time=0
note_on channel=0 note=64 velocity=47 time=0
control_change channel=0 control=64 value=0 time=10
control_change channel=0 control=64 value=127 time=75
note_on channel=0 note=64 velocity=0 time=155
note_on channel=0 note=61 velocity=47 time=0
note_on channel=0 note=61 velocity=0 time=240
note_on channel=0 note=73 velocity=0 time=0
note_on channel=0 note=59 velocity=47 time=0
control_change channel=0 control=64 value=0 time=10
control_change channel=0 control=64 value=127 time=54
note_on channel=0 note=59 velocity=0 time=176
note_on channel=0 note=58 velocity=47 time=0
note_on channel=0 note=73 velocity=68 time=120
<meta message set_tempo tempo=454545 time=120>
note_on channel=0 note=73 velocity=0 time=0
note_on channel=0 note=58 velocity=0 time=0
note_on channel=0 note=76 velocity=72 time=0
note_on channel=0 note=59 velocity=57 time=0
control_change channel=0 control=64 value=0 time=0
control_change channel=0 control=64 value=127 time=103
<meta message set_tempo tempo=476190 time=137>
note_on channel=0 note=76 velocity=0 time=0
note_on channel=0 note=74 velocity=68 time=0
<meta message set_tempo tempo=461538 time=240>
note_on channel=0 note=74 velocity=0 time=0
note_on channel=0 note=59 velocity=0 time=0
note_on channel=0 note=77 velocity=72 time=0
control_change channel=0 control=64 value=0 time=8
control_change channel=0 control=64 value=127 time=95
<meta message set_tempo tempo=472441 time=137>
note_on channel=0 note=77 velocity=0 time=0
note_on channel=0 note=76 velocity=67 time=0
<meta message set_tempo tempo=465116 time=240>
note_on channel=0 note=76 velocity=0 time=0
note_on channel=0 note=79 velocity=70 time=0
control_change channel=0 control=64 value=0 time=4
control_change channel=0 control=64 value=127 time=91
<meta message set_tempo tempo=472441 time=145>
note_on channel=0 note=79 velocity=0 time=0
note_on channel=0 note=77 velocity=66 time=0
<meta message set_tempo tempo=461538 time=240>
note_on channel=0 note=77 velocity=0 time=0
note_on channel=0 note=69 velocity=56 time=0
note_on channel=0 note=52 velocity=47 time=0
control_change channel=0 control=64 value=0 time=0
control_change channel=0 control=64 value=127 time=92
<meta message set_tempo tempo=472441 time=148>
note_on channel=0 note=52 velocity=0 time=0
note_on channel=0 note=59 velocity=39 time=0
<meta message set_tempo tempo=458015 time=240>
note_on channel=0 note=59 velocity=0 time=0
note_on channel=0 note=69 velocity=0 time=0
note_on channel=0 note=68 velocity=52 time=0
note_on channel=0 note=64 velocity=39 time=0
control_change channel=0 control=64 value=0 time=9
control_change channel=0 control=64 value=127 time=76
<meta message set_tempo tempo=461538 time=155>
note_on channel=0 note=64 velocity=0 time=0
note_on channel=0 note=62 velocity=39 time=0
<meta message set_tempo tempo=468750 time=240>
note_on channel=0 note=62 velocity=0 time=0
note_on channel=0 note=68 velocity=0 time=0
note_on channel=0 note=60 velocity=39 time=0
control_change channel=0 control=64 value=0 time=7
control_change channel=0 control=64 value=127 time=120
<meta message set_tempo tempo=483871 time=113>
note_on channel=0 note=60 velocity=0 time=0
note_on channel=0 note=59 velocity=39 time=0
note_on channel=0 note=68 velocity=51 time=120
<meta message set_tempo tempo=472441 time=120>
note_on channel=0 note=68 velocity=0 time=0
note_on channel=0 note=59 velocity=0 time=0
note_on channel=0 note=71 velocity=57 time=0
note_on channel=0 note=52 velocity=47 time=0
control_change channel=0 control=64 value=0 time=10
control_change channel=0 control=64 value=127 time=54
note_on channel=0 note=52 velocity=0 time=176
note_on channel=0 note=60 velocity=42 time=0
<meta message set_tempo tempo=461538 time=240>
note_on channel=0 note=60 velocity=0 time=0
note_on channel=0 note=71 velocity=0 time=0
note_on channel=0 note=69 velocity=56 time=0
note_on channel=0 note=64 velocity=42 time=0
control_change channel=0 control=64 value=0 time=7
control_change channel=0 control=64 value=127 time=57
note_on channel=0 note=64 velocity=0 time=176
note_on channel=0 note=60 velocity=42 time=0
<meta message set_tempo tempo=472441 time=240>
note_on channel=0 note=60 velocity=0 time=0
note_on channel=0 note=69 velocity=0 time=0
note_on channel=0 note=59 velocity=42 time=0
control_change channel=0 control=64 value=0 time=9
control_change channel=0 control=64 value=127 time=118
note_on channel=0 note=59 velocity=0 time=113
note_on channel=0 note=57 velocity=42 time=0
note_on channel=0 note=69 velocity=63 time=120
<meta message set_tempo tempo=472441 time=120>
note_on channel=0 note=69 velocity=0 time=0
note_on channel=0 note=57 velocity=0 time=0
note_on channel=0 note=72 velocity=66 time=0
note_on channel=0 note=52 velocity=56 time=0
control_change channel=0 control=64 value=0 time=11
control_change channel=0 control=64 value=127 time=65
note_on channel=0 note=52 velocity=0 time=164
note_on channel=0 note=56 velocity=47 time=0
<meta message set_tempo tempo=465116 time=240>
note_on channel=0 note=56 velocity=0 time=0
note_on channel=0 note=72 velocity=0 time=0
note_on channel=0 note=71 velocity=60 time=0
note_on channel=0 note=62 velocity=47 time=0
control_change channel=0 control=64 value=0 time=10
control_change channel=0 control=64 value=127 time=75
note_on channel=0 note=62 velocity=0 time=155
note_on channel=0 note=59 velocity=47 time=0
<meta message set_tempo tempo=472441 time=240>
note_on channel=0 note=59 velocity=0 time=0
note_on channel=0 note=71 velocity=0 time=0
note_on channel=0 note=57 velocity=47 time=0
control_change channel=0 control=64 value=0 time=10
control_change channel=0 control=64 value=127 time=54
note_on channel=0 note=57 velocity=0 time=176
note_on channel=0 note=56 velocity=47 time=0
note_on channel=0 note=71 velocity=68 time=120
<meta message set_tempo tempo=461538 time=120>
note_on channel=0 note=71 velocity=0 time=0
note_on channel=0 note=56 velocity=0 time=0
note_on channel=0 note=74 velocity=72 time=0
note_on channel=0 note=57 velocity=57 time=0
control_change channel=0 control=64 value=0 time=0
control_change channel=0 control=64 value=127 time=103
<meta message set_tempo tempo=476190 time=137>
note_on channel=0 note=74 velocity=0 time=0
note_on channel=0 note=72 velocity=68 time=0
<meta message set_tempo tempo=461538 time=240>
note_on channel=0 note=72 velocity=0 time=0
note_on channel=0 note=71 velocity=72 time=0
control_change channel=0 control=64 value=0 time=8
control_change channel=0 control=64 value=127 time=95
<meta message set_tempo tempo=472441 time=137>
note_on channel=0 note=71 velocity=0 time=0
note_on channel=0 note=69 velocity=67 time=0
<meta message set_tempo tempo=465116 time=240>
note_on channel=0 note=69 velocity=0 time=0
note_on channel=0 note=57 velocity=0 time=0
note_on channel=0 note=81 velocity=73 time=0
note_on channel=0 note=43 velocity=69 time=0
note_on channel=0 note=55 velocity=69 time=0
control_change channel=0 control=64 value=0 time=4
control_change channel=0 control=64 value=127 time=91
note_on channel=0 note=81 velocity=0 time=85
<meta message set_tempo tempo=472441 time=60>
note_on channel=0 note=81 velocity=70 time=0
note_on channel=0 note=81 velocity=0 time=180
control_change channel=0 control=64 value=0 time=3
<meta message set_tempo tempo=461538 time=57>
note_on channel=0 note=55 velocity=0 time=0
note_on channel=0 note=43 velocity=0 time=0
note_on channel=0 note=83 velocity=78 time=0
note_on channel=0 note=41 velocity=72 time=0
note_on channel=0 note=53 velocity=72 time=0
control_change channel=0 control=64 value=127 time=35
<meta message set_tempo tempo=472441 time=205>
note_on channel=0 note=83 velocity=0 time=0
note_on channel=0 note=81 velocity=78 time=0
note_on channel=0 note=81 velocity=0 time=240
note_on channel=0 note=79 velocity=77 time=0
note_on channel=0 note=79 velocity=0 time=240
note_on channel=0 note=77 velocity=75 time=0
note_on channel=0 note=77 velocity=0 time=240
note_on channel=0 note=53 velocity=0 time=0
note_on channel=0 note=41 velocity=0 time=0
note_on channel=0 note=76 velocity=79 time=0
control_change channel=0 control=64 value=0 time=5
<meta message set_tempo tempo=512821 time=235>
note_on channel=0 note=76 velocity=0 time=0
note_on channel=0 note=75 velocity=75 time=0
<meta message set_tempo tempo=468750 time=240>
note_on channel=0 note=75 velocity=0 time=0
note_on channel=0 note=84 velocity=81 time=0
note_on channel=0 note=57 velocity=61 time=0
note_on channel=0 note=53 velocity=61 time=0
note_on channel=0 note=57 velocity=0 time=240
note_on channel=0 note=56 velocity=42 time=0
note_on channel=0 note=56 velocity=0 time=240
note_on channel=0 note=57 velocity=46 time=0
note_on channel=0 note=57 velocity=0 time=240
note_on channel=0 note=60 velocity=41 time=0
<meta message set_tempo tempo=487805 time=240>
note_on channel=0 note=60 velocity=0 time=0
note_on channel=0 note=84 velocity=0 time=0
note_on channel=0 note=75 velocity=55 time=0
note_on channel=0 note=59 velocity=46 time=0
control_change channel=0 control=64 value=127 time=149
note_on channel=0 note=59 velocity=0 time=91
note_on channel=0 note=57 velocity=41 time=0
<meta message set_tempo tempo=468750 time=240>
note_on channel=0 note=57 velocity=0 time=0
note_on channel=0 note=75 velocity=0 time=0
note_on channel=0 note=53 velocity=0 time=0
note_on channel=0 note=76 velocity=55 time=0
note_on channel=0 note=52 velocity=57 time=0
note_on channel=0 note=56 velocity=57 time=0
control_change channel=0 control=64 value=0 time=0
note_on channel=0 note=56 velocity=0 time=480
note_on channel=0 note=52 velocity=0 time=0
<meta message set_tempo tempo=483871 time=240>
note_on channel=0 note=76 velocity=0 time=0
note_on channel=0 note=78 velocity=57 time=0
note_on channel=0 note=78 velocity=0 time=120
note_on channel=0 note=76 velocity=46 time=0
note_on channel=0 note=76 velocity=0 time=90
<meta message set_tempo tempo=472441 time=30>
note_on channel=0 note=76 velocity=55 time=0
note_on channel=0 note=76 velocity=0 time=120
note_on channel=0 note=74 velocity=53 time=0
<meta message set_tempo tempo=487805 time=120>
note_on channel=0 note=74 velocity=0 time=0
note_on channel=0 note=73 velocity=52 time=0
<meta message set_tempo tempo=521739 time=120>
note_on channel=0 note=73 velocity=0 time=0
note_on channel=0 note=71 velocity=51 time=0
<meta message set_tempo tempo=530973 time=120>
note_on channel=0 note=71 velocity=0 time=0
note_on channel=0 note=61 velocity=64 time=0
<meta message text text='bdca426d104a26ac9dcb070447587523' time=0>
control_change channel=0 control=91 value=127 time=0
control_change channel=0 control=64 value=127 time=39
note_on channel=0 note=61 velocity=0 time=21
note_on channel=0 note=64 velocity=64 time=0
note_on channel=0 note=64 velocity=0 time=60
note_on channel=0 note=69 velocity=76 time=0
note_on channel=0 note=45 velocity=59 time=0
note_on channel=0 note=57 velocity=70 time=0
<meta message set_tempo tempo=476190 time=840>
note_on channel=0 note=57 velocity=0 time=0
note_on channel=0 note=45 velocity=0 time=0
note_on channel=0 note=69 velocity=0 time=0
note_on channel=0 note=64 velocity=70 time=0
note_on channel=0 note=40 velocity=53 time=0
note_on channel=0 note=52 velocity=63 time=0
control_change channel=0 control=64 value=0 time=8
control_change channel=0 control=64 value=127 time=66
<meta message set_tempo tempo=495868 time=406>
note_on channel=0 note=52 velocity=0 time=0
note_on channel=0 note=40 velocity=0 time=0
note_on channel=0 note=64 velocity=0 time=0
note_on channel=0 note=73 velocity=72 time=0
note_on channel=0 note=49 velocity=48 time=0
note_on channel=0 note=61 velocity=57 time=0
control_change channel=0 control=64 value=0 time=10
control_change channel=0 control=64 value=127 time=89
<meta message set_tempo tempo=465116 time=141>
note_on channel=0 note=73 velocity=0 time=0
note_on channel=0 note=74 velocity=74 time=0
note_on channel=0 note=74 velocity=0 time=120
note_on channel=0 note=71 velocity=70 time=0
<meta message set_tempo tempo=480000 time=120>
note_on channel=0 note=71 velocity=0 time=0
note_on channel=0 note=61 velocity=0 time=0
note_on channel=0 note=49 velocity=0 time=0
note_on channel=0 note=69 velocity=70 time=0
note_on channel=0 note=45 velocity=45 time=0
note_on channel=0 note=57 velocity=53 time=0
control_change channel=0 control=64 value=0 time=8
control_change channel=0 control=64 value=127 time=63
note_on channel=0 note=57 velocity=0 time=169
note_on channel=0 note=45 velocity=0 time=0
note_on channel=0 note=69 velocity=0 time=0
control_change channel=0 control=64 value=0 time=14
<meta message set_tempo tempo=472441 time=706>
note_on channel=0 note=73 velocity=50 time=0
control_change channel=0 control=64 value=127 time=50
<meta message set_tempo tempo=476190 time=70>
<meta message set_tempo tempo=480000 time=120>
note_on channel=0 note=73 velocity=0 time=0
note_on channel=0 note=74 velocity=52 time=0
note_on channel=0 note=74 velocity=0 time=120
note_on channel=0 note=71 velocity=46 time=0
note_on channel=0 note=71 velocity=0 time=120
note_on channel=0 note=69 velocity=49 time=0
control_change channel=0 control=64 value=0 time=12
control_change channel=0 control=64 value=127 time=73
<meta message set_tempo tempo=504202 time=155>
<meta message set_tempo tempo=472441 time=240>
note_on channel=0 note=69 velocity=0 time=0
note_on channel=0 note=85 velocity=57 time=0
note_on channel=0 note=57 velocity=40 time=0
note_on channel=0 note=66 velocity=40 time=0
<meta message set_tempo tempo=491803 time=240>
note_on channel=0 note=66 velocity=0 time=0
note_on channel=0 note=57 velocity=0 time=0
note_on channel=0 note=85 velocity=0 time=0
control_change channel=0 control=64 value=0 time=141
<meta message set_tempo tempo=472441 time=99>
note_on channel=0 note=75 velocity=50 time=0
note_on channel=0 note=59 velocity=40 time=0
note_on channel=0 note=69 velocity=40 time=0
note_on channel=0 note=69 velocity=0 time=480
note_on channel=0 note=59 velocity=0 time=0
note_on channel=0 note=75 velocity=0 time=0
note_on channel=0 note=76 velocity=52 time=0
note_on channel=0 note=64 velocity=40 time=0
note_on channel=0 note=68 velocity=40 time=0
control_change channel=0 control=64 value=127 time=183
note_on channel=0 note=68 velocity=0 time=297
note_on channel=0 note=64 velocity=0 time=0
note_on channel=0 note=76 velocity=0 time=240
note_on channel=0 note=77 velocity=51 time=0
note_on channel=0 note=77 velocity=0 time=220
<meta message set_tempo tempo=454545 time=20>
note_on channel=0 note=80 velocity=57 time=0
control_change channel=0 control=64 value=0 time=0
<meta message set_tempo tempo=472441 time=240>
note_on channel=0 note=80 velocity=0 time=0
note_on channel=0 note=78 velocity=56 time=0
<meta message set_tempo tempo=454545 time=240>
note_on channel=0 note=78 velocity=0 time=0
note_on channel=0 note=76 velocity=54 time=0
<meta message set_tempo tempo=472441 time=240>
note_on channel=0 note=76 velocity=0 time=0
note_on channel=0 note=74 velocity=53 time=0
<meta message set_tempo tempo=458015 time=240>
note_on channel=0 note=74 velocity=0 time=0
note_on channel=0 note=73 velocity=52 time=0
<meta message set_tempo tempo=491803 time=240>
note_on channel=0 note=73 velocity=0 time=0
note_on channel=0 note=71 velocity=51 time=0
<meta message set_tempo tempo=472441 time=240>
note_on channel=0 note=71 velocity=0 time=0
note_on channel=0 note=69 velocity=51 time=0
note_on channel=0 note=52 velocity=39 time=0
control_change channel=0 control=64 value=127 time=57
<meta message set_tempo tempo=458015 time=183>
note_on channel=0 note=52 velocity=0 time=0
note_on channel=0 note=69 velocity=0 time=0
note_on channel=0 note=68 velocity=46 time=0
note_on channel=0 note=62 velocity=33 time=0
<meta message set_tempo tempo=454545 time=240>
note_on channel=0 note=62 velocity=0 time=0
note_on channel=0 note=68 velocity=0 time=0
note_on channel=0 note=76 velocity=53 time=0
note_on channel=0 note=59 velocity=33 time=0
control_change channel=0 control=64 value=0 time=6
control_change channel=0 control=64 value=127 time=85
<meta message set_tempo tempo=461538 time=149>
note_on channel=0 note=59 velocity=0 time=0
note_on channel=0 note=76 velocity=0 time=0
note_on channel=0 note=74 velocity=51 time=0
note_on channel=0 note=62 velocity=28 time=0
<meta message set_tempo tempo=472441 time=240>
note_on channel=0 note=62 velocity=0 time=0
note_on channel=0 note=74 velocity=0 time=0
note_on channel=0 note=59 velocity=31 time=0
control_change channel=0 control=64 value=0 time=10
control_change channel=0 control=64 value=127 time=103
<meta message set_tempo tempo=472441 time=127>
note_on channel=0 note=59 velocity=0 time=0
note_on channel=0 note=62 velocity=29 time=0
<meta message set_tempo tempo=472441 time=240>
note_on channel=0 note=62 velocity=0 time=0
note_on channel=0 note=71 velocity=57 time=0
note_on channel=0 note=52 velocity=40 time=0
control_change channel=0 control=64 value=0 time=9
control_change channel=0 control=64 value=127 time=147
<meta message set_tempo tempo=465116 time=84>
note_on channel=0 note=52 velocity=0 time=0
note_on channel=0 note=71 velocity=0 time=0
note_on channel=0 note=69 velocity=53 time=0
note_on channel=0 note=61 velocity=34 time=0
<meta message set_tempo tempo=454545 time=240>
note_on channel=0 note=61 velocity=0 time=0
note_on channel=0 note=69 velocity=0 time=0
note_on channel=0 note=78 velocity=57 time=0
note_on channel=0 note=57 velocity=34 time=0
control_change channel=0 control=64 value=0 time=7
control_change channel=0 control=64 value=127 time=120
<meta message set_tempo tempo=465116 time=113>
note_on channel=0 note=57 velocity=0 time=0
note_on channel=0 note=78 velocity=0 time=0
note_on channel=0 note=76 velocity=56 time=0
note_on channel=0 note=61 velocity=30 time=0
note_on channel=0 note=61 velocity=0 time=240
note_on channel=0 note=76 velocity=0 time=0
note_on channel=0 note=57 velocity=32 time=0
control_change channel=0 control=64 value=0 time=9
control_change channel=0 control=64 value=127 time=104
<meta message set_tempo tempo=472441 time=127>
note_on channel=0 note=57 velocity=0 time=0
note_on channel=0 note=61 velocity=28 time=0
<meta message set_tempo tempo=468750 time=240>
note_on channel=0 note=61 velocity=0 time=0
note_on channel=0 note=71 velocity=63 time=0
note_on channel=0 note=52 velocity=42 time=0
control_change channel=0 control=64 value=0 time=6
control_change channel=0 control=64 value=127 time=143
<meta message set_tempo tempo=487805 time=91>
note_on channel=0 note=52 velocity=0 time=0
note_on channel=0 note=71 velocity=0 time=0
note_on channel=0 note=69 velocity=59 time=0
note_on channel=0 note=61 velocity=36 time=0
<meta message set_tempo tempo=458015 time=240>
note_on channel=0 note=61 velocity=0 time=0
note_on channel=0 note=69 velocity=0 time=0
note_on channel=0 note=81 velocity=62 time=0
note_on channel=0 note=57 velocity=36 time=0
control_change channel=0 control=64 value=0 time=7
control_change channel=0 control=64 value=127 time=85
<meta message set_tempo tempo=468750 time=148>
note_on channel=0 note=57 velocity=0 time=0
note_on channel=0 note=81 velocity=0 time=0
note_on channel=0 note=79 velocity=59 time=0
note_on channel=0 note=61 velocity=34 time=0
<meta message set_tempo tempo=468750 time=240>
note_on channel=0 note=61 velocity=0 time=0
note_on channel=0 note=79 velocity=0 time=0
note_on channel=0 note=57 velocity=36 time=0
control_change channel=0 control=64 value=0 time=6
control_change channel=0 control=64 value=127 time=109
note_on channel=0 note=57 velocity=0 time=125
note_on channel=0 note=61 velocity=34 time=0
<meta message set_tempo tempo=465116 time=240>
note_on channel=0 note=61 velocity=0 time=0
note_on channel=0 note=79 velocity=55 time=0
note_on channel=0 note=50 velocity=28 time=0
note_on channel=0 note=57 velocity=28 time=0
note_on channel=0 note=62 velocity=34 time=0
control_change channel=0 control=64 value=0 time=0
<meta message set_tempo tempo=472441 time=240>
note_on channel=0 note=79 velocity=0 time=0
note_on channel=0 note=78 velocity=52 time=0
note_on channel=0 note=78 velocity=0 time=240
note_on channel=0 note=62 velocity=0 time=0
note_on channel=0 note=57 velocity=0 time=0
note_on channel=0 note=50 velocity=0 time=0
note_on channel=0 note=76 velocity=51 time=0
note_on channel=0 note=76 velocity=0 time=240
note_on channel=0 note=74 velocity=50 time=0
note_on channel=0 note=74 velocity=0 time=240
note_on channel=0 note=73 velocity=49 time=0
<meta message set_tempo tempo=491803 time=240>
note_on channel=0 note=73 velocity=0 time=0
note_on channel=0 note=71 velocity=47 time=0
note_on channel=0 note=71 velocity=0 time=240
note_on channel=0 note=76 velocity=49 time=0
note_on channel=0 note=49 velocity=40 time=0
control_change channel=0 control=64 value=127 time=35
<meta message set_tempo tempo=465116 time=85>
note_on channel=0 note=76 velocity=0 time=0
note_on channel=0 note=78 velocity=45 time=0
note_on channel=0 note=78 velocity=0 time=40
note_on channel=0 note=76 velocity=45 time=0
note_on channel=0 note=76 velocity=0 time=40
note_on channel=0 note=74 velocity=45 time=0
note_on channel=0 note=74 velocity=0 time=40
note_on channel=0 note=76 velocity=51 time=0
<meta message set_tempo tempo=550459 time=120>
note_on channel=0 note=76 velocity=0 time=0
note_on channel=0 note=49 velocity=0 time=0
note_on channel=0 note=78 velocity=52 time=0
note_on channel=0 note=50 velocity=33 time=0
control_change channel=0 control=64 value=0 time=11
<meta message set_tempo tempo=487805 time=109>
note_on channel=0 note=50 velocity=0 time=0
note_on channel=0 note=78 velocity=0 time=0
note_on channel=0 note=69 velocity=51 time=0
note_on channel=0 note=52 velocity=38 time=0
note_on channel=0 note=61 velocity=38 time=0
note_on channel=0 note=61 velocity=0 time=480
note_on channel=0 note=69 velocity=0 time=0
note_on channel=0 note=68 velocity=48 time=0
note_on channel=0 note=59 velocity=32 time=0
<meta message set_tempo tempo=476190 time=300>
note_on channel=0 note=69 velocity=66 time=60
note_on channel=0 note=69 velocity=0 time=60
note_on channel=0 note=73 velocity=67 time=0
<meta message set_tempo tempo=468750 time=60>
note_on channel=0 note=73 velocity=0 time=0
note_on channel=0 note=59 velocity=0 time=0
note_on channel=0 note=68 velocity=0 time=0
note_on channel=0 note=52 velocity=0 time=0
note_on channel=0 note=76 velocity=67 time=0
note_on channel=0 note=57 velocity=54 time=0
control_change channel=0 control=64 value=127 time=127
note_on channel=0 note=57 velocity=0 time=113
note_on channel=0 note=61 velocity=46 time=0
<meta message set_tempo tempo=465116 time=240>
note_on channel=0 note=61 velocity=0 time=0
note_on channel=0 note=76 velocity=0 time=0
note_on channel=0 note=76 velocity=69 time=0
note_on channel=0 note=64 velocity=50 time=0
note_on channel=0 note=64 velocity=0 time=240
note_on channel=0 note=61 velocity=46 time=0
<meta message set_tempo tempo=468750 time=240>
note_on channel=0 note=61 velocity=0 time=0
note_on channel=0 note=59 velocity=50 time=0
control_change channel=0 control=64 value=0 time=7
note_on channel=0 note=59 velocity=0 time=233
note_on channel=0 note=57 velocity=45 time=0
<meta message set_tempo tempo=461538 time=240>
note_on channel=0 note=57 velocity=0 time=0
note_on channel=0 note=76 velocity=0 time=0
note_on channel=0 note=76 velocity=65 time=0
note_on channel=0 note=56 velocity=54 time=0
control_change channel=0 control=64 value=127 time=57
note_on channel=0 note=76 velocity=0 time=63
note_on channel=0 note=74 velocity=64 time=0
<meta message set_tempo tempo=454545 time=120>
note_on channel=0 note=74 velocity=0 time=0
note_on channel=0 note=56 velocity=0 time=0
note_on channel=0 note=73 velocity=63 time=0
note_on channel=0 note=57 velocity=45 time=0
note_on channel=0 note=73 velocity=0 time=120
note_on channel=0 note=71 velocity=63 time=0
note_on channel=0 note=71 velocity=0 time=111
<meta message set_tempo tempo=458015 time=9>
note_on channel=0 note=57 velocity=0 time=0
note_on channel=0 note=71 velocity=64 time=0
note_on channel=0 note=59 velocity=45 time=0
control_change channel=0 control=64 value=0 time=10
control_change channel=0 control=64 value=127 time=65
note_on channel=0 note=71 velocity=0 time=45
note_on channel=0 note=69 velocity=63 time=0
note_on channel=0 note=69 velocity=0 time=120
note_on channel=0 note=59 velocity=0 time=0
note_on channel=0 note=68 velocity=62 time=0
note_on channel=0 note=52 velocity=45 time=0
note_on channel=0 note=68 velocity=0 time=120
note_on channel=0 note=66 velocity=61 time=0
<meta message set_tempo tempo=468750 time=120>
note_on channel=0 note=66 velocity=0 time=0
note_on channel=0 note=52 velocity=0 time=0
note_on channel=0 note=64 velocity=63 time=0
note_on channel=0 note=54 velocity=48 time=0
control_change channel=0 control=64 value=0 time=10
control_change channel=0 control=64 value=127 time=93
note_on channel=0 note=64 velocity=0 time=17
note_on channel=0 note=62 velocity=60 time=0
<meta message set_tempo tempo=476190 time=120>
note_on channel=0 note=62 velocity=0 time=0
note_on channel=0 note=54 velocity=0 time=0
note_on channel=0 note=61 velocity=60 time=0
note_on channel=0 note=56 velocity=45 time=0
note_on channel=0 note=61 velocity=0 time=120
note_on channel=0 note=62 velocity=60 time=0
<meta message set_tempo tempo=465116 time=120>
note_on channel=0 note=62 velocity=0 time=0
note_on channel=0 note=56 velocity=0 time=0
note_on channel=0 note=61 velocity=60 time=0
note_on channel=0 note=57 velocity=54 time=0
control_change channel=0 control=64 value=0 time=57
note_on channel=0 note=61 velocity=0 time=63
note_on channel=0 note=64 velocity=62 time=0
control_change channel=0 control=64 value=127 time=28
note_on channel=0 note=64 velocity=0 time=92
note_on channel=0 note=57 velocity=0 time=0
note_on channel=0 note=69 velocity=63 time=0
note_on channel=0 note=61 velocity=46 time=0
note_on channel=0 note=69 velocity=0 time=120
note_on channel=0 note=73 velocity=64 time=0
<meta message set_tempo tempo=454545 time=120>
note_on channel=0 note=73 velocity=0 time=0
note_on channel=0 note=61 velocity=0 time=0
note_on channel=0 note=76 velocity=65 time=0
note_on channel=0 note=64 velocity=46 time=0
control_change channel=0 control=64 value=0 time=10
note_on channel=0 note=64 velocity=0 time=230
note_on channel=0 note=61 velocity=46 time=0
<meta message set_tempo tempo=461538 time=240>
note_on channel=0 note=61 velocity=0 time=0
note_on channel=0 note=59 velocity=49 time=0
note_on channel=0 note=59 velocity=0 time=240
note_on channel=0 note=76 velocity=0 time=0
note_on channel=0 note=88 velocity=65 time=0
note_on channel=0 note=57 velocity=46 time=0
note_on channel=0 note=88 velocity=0 time=229
<meta message set_tempo tempo=454545 time=11>
note_on channel=0 note=57 velocity=0 time=0
note_on channel=0 note=88 velocity=70 time=0
note_on channel=0 note=56 velocity=52 time=0
control_change channel=0 control=64 value=127 time=57
note_on channel=0 note=88 velocity=0 time=63
note_on channel=0 note=86 velocity=70 time=0
<meta message set_tempo tempo=458015 time=120>
note_on channel=0 note=86 velocity=0 time=0
note_on channel=0 note=56 velocity=0 time=0
note_on channel=0 note=85 velocity=69 time=0
note_on channel=0 note=57 velocity=44 time=0
note_on channel=0 note=85 velocity=0 time=120
note_on channel=0 note=83 velocity=69 time=0
note_on channel=0 note=83 velocity=0 time=111
note_on channel=0 note=57 velocity=0 time=9
note_on channel=0 note=83 velocity=68 time=0
note_on channel=0 note=59 velocity=51 time=0
control_change channel=0 control=64 value=0 time=10
control_change channel=0 control=64 value=127 time=65
note_on channel=0 note=83 velocity=0 time=45
note_on channel=0 note=81 velocity=67 time=0
note_on channel=0 note=81 velocity=0 time=120
note_on channel=0 note=59 velocity=0 time=0
note_on channel=0 note=80 velocity=67 time=0
note_on channel=0 note=52 velocity=44 time=0
note_on channel=0 note=80 velocity=0 time=120
note_on channel=0 note=78 velocity=66 time=0
<meta message set_tempo tempo=468750 time=120>
note_on channel=0 note=78 velocity=0 time=0
note_on channel=0 note=52 velocity=0 time=0
note_on channel=0 note=76 velocity=66 time=0
note_on channel=0 note=54 velocity=50 time=0
control_change channel=0 control=64 value=0 time=10
control_change channel=0 control=64 value=127 time=93
note_on channel=0 note=76 velocity=0 time=17
note_on channel=0 note=74 velocity=65 time=0
<meta message set_tempo tempo=476190 time=120>
note_on channel=0 note=74 velocity=0 time=0
note_on channel=0 note=54 velocity=0 time=0
note_on channel=0 note=73 velocity=65 time=0
note_on channel=0 note=56 velocity=46 time=0
note_on channel=0 note=73 velocity=0 time=120
note_on channel=0 note=74 velocity=64 time=0
<meta message set_tempo tempo=465116 time=120>
note_on channel=0 note=74 velocity=0 time=0
note_on channel=0 note=56 velocity=0 time=0
note_on channel=0 note=73 velocity=63 time=0
note_on channel=0 note=57 velocity=51 time=0
control_change channel=0 control=64 value=0 time=57
note_on channel=0 note=73 velocity=0 time=63
note_on channel=0 note=76 velocity=64 time=0
control_change channel=0 control=64 value=127 time=28
note_on channel=0 note=76 velocity=0 time=92
note_on channel=0 note=74 velocity=60 time=0
note_on channel=0 note=74 velocity=0 time=120
note_on channel=0 note=73 velocity=61 time=0
<meta message set_tempo tempo=454545 time=120>
note_on channel=0 note=73 velocity=0 time=0
note_on channel=0 note=57 velocity=0 time=0
note_on channel=0 note=74 velocity=62 time=0
note_on channel=0 note=54 velocity=40 time=0
note_on channel=0 note=57 velocity=48 time=0
control_change channel=0 control=64 value=0 time=10
control_change channel=0 control=64 value=127 time=70
note_on channel=0 note=74 velocity=0 time=40
note_on channel=0 note=76 velocity=63 time=0
note_on channel=0 note=76 velocity=0 time=120
note_on channel=0 note=78 velocity=64 time=0
note_on channel=0 note=78 velocity=0 time=120
note_on channel=0 note=80 velocity=66 time=0
<meta message set_tempo tempo=461538 time=120>
note_on channel=0 note=80 velocity=0 time=0
note_on channel=0 note=57 velocity=0 time=0
note_on channel=0 note=54 velocity=0 time=0
note_on channel=0 note=81 velocity=67 time=0
note_on channel=0 note=50 velocity=44 time=0
note_on channel=0 note=54 velocity=44 time=0
note_on channel=0 note=57 velocity=52 time=0
control_change channel=0 control=64 value=0 time=8
control_change channel=0 control=64 value=127 time=32
note_on channel=0 note=81 velocity=0 time=80
note_on channel=0 note=83 velocity=68 time=0
note_on channel=0 note=83 velocity=0 time=120
note_on channel=0 note=85 velocity=70 time=0
note_on channel=0 note=85 velocity=0 time=120
note_on channel=0 note=86 velocity=71 time=0
<meta message set_tempo tempo=454545 time=76>
note_on channel=0 note=86 velocity=0 time=44
note_on channel=0 note=57 velocity=0 time=0
note_on channel=0 note=54 velocity=0 time=0
note_on channel=0 note=50 velocity=0 time=0
note_on channel=0 note=88 velocity=72 time=0
note_on channel=0 note=49 velocity=47 time=0
note_on channel=0 note=52 velocity=47 time=0
note_on channel=0 note=57 velocity=56 time=0
control_change channel=0 control=64 value=0 time=9
control_change channel=0 control=64 value=127 time=54
note_on channel=0 note=88 velocity=0 time=57
note_on channel=0 note=86 velocity=71 time=0
<meta message set_tempo tempo=451128 time=4>
note_on channel=0 note=86 velocity=0 time=116
note_on channel=0 note=85 velocity=69 time=0
<meta message set_tempo tempo=447761 time=28>
note_on channel=0 note=85 velocity=0 time=92
note_on channel=0 note=83 velocity=68 time=0
<meta message set_tempo tempo=444444 time=52>
note_on channel=0 note=83 velocity=0 time=68
note_on channel=0 note=57 velocity=0 time=0
note_on channel=0 note=52 velocity=0 time=0
note_on channel=0 note=49 velocity=0 time=0
note_on channel=0 note=81 velocity=66 time=0
control_change channel=0 control=64 value=0 time=10
note_on channel=0 note=81 velocity=0 time=110
note_on channel=0 note=80 velocity=65 time=0
control_change channel=0 control=64 value=127 time=0
note_on channel=0 note=80 velocity=0 time=120
note_on channel=0 note=78 velocity=63 time=0
note_on channel=0 note=78 velocity=0 time=120
note_on channel=0 note=76 velocity=62 time=0
<meta message set_tempo tempo=437956 time=76>
note_on channel=0 note=76 velocity=0 time=44
note_on channel=0 note=74 velocity=60 time=0
control_change channel=0 control=64 value=0 time=10
<meta message set_tempo tempo=441176 time=18>
<meta message set_tempo tempo=444444 time=48>
control_change channel=0 control=64 value=127 time=4
note_on channel=0 note=74 velocity=0 time=40
note_on channel=0 note=73 velocity=59 time=0
<meta message set_tempo tempo=447761 time=4>
<meta message set_tempo tempo=451128 time=72>
note_on channel=0 note=73 velocity=0 time=44
note_on channel=0 note=71 velocity=57 time=0
<meta message set_tempo tempo=454545 time=4>
<meta message set_tempo tempo=458015 time=48>
<meta message set_tempo tempo=461538 time=48>
<meta message set_tempo tempo=545455 time=20>
note_on channel=0 note=71 velocity=0 time=0
note_on channel=0 note=69 velocity=56 time=0
<meta message set_tempo tempo=504202 time=120>
note_on channel=0 note=69 velocity=0 time=0
note_on channel=0 note=78 velocity=59 time=0
note_on channel=0 note=50 velocity=38 time=0
note_on channel=0 note=59 velocity=45 time=0
control_change channel=0 control=64 value=0 time=9
control_change channel=0 control=64 value=127 time=27
note_on channel=0 note=78 velocity=0 time=44
note_on channel=0 note=80 velocity=55 time=0
note_on channel=0 note=80 velocity=0 time=80
note_on channel=0 note=78 velocity=59 time=0
note_on channel=0 note=78 velocity=0 time=80
note_on channel=0 note=77 velocity=59 time=0
note_on channel=0 note=77 velocity=0 time=60
note_on channel=0 note=78 velocity=55 time=0
note_on channel=0 note=78 velocity=0 time=60
note_on channel=0 note=80 velocity=55 time=0
note_on channel=0 note=80 velocity=0 time=60
note_on channel=0 note=81 velocity=55 time=0
<meta message set_tempo tempo=521739 time=60>
note_on channel=0 note=81 velocity=0 time=0
note_on channel=0 note=59 velocity=0 time=0
note_on channel=0 note=50 velocity=0 time=0
note_on channel=0 note=69 velocity=59 time=0
note_on channel=0 note=52 velocity=33 time=0
note_on channel=0 note=61 velocity=39 time=0
control_change channel=0 control=64 value=0 time=10
control_change channel=0 control=64 value=127 time=61
<meta message set_tempo tempo=582524 time=289>
note_on channel=0 note=69 velocity=0 time=60
note_on channel=0 note=73 velocity=50 time=0
<meta message set_tempo tempo=625000 time=60>
note_on channel=0 note=73 velocity=0 time=0
note_on channel=0 note=61 velocity=0 time=0
note_on channel=0 note=71 velocity=53 time=0
note_on channel=0 note=68 velocity=53 time=0
note_on channel=0 note=62 velocity=39 time=0
control_change channel=0 control=64 value=0 time=10
control_change channel=0 control=64 value=127 time=75
<meta message set_tempo tempo=689655 time=395>
note_on channel=0 note=62 velocity=0 time=0
note_on channel=0 note=52 velocity=0 time=0
note_on channel=0 note=71 velocity=0 time=0
note_on channel=0 note=68 velocity=0 time=0
note_on channel=0 note=69 velocity=51 time=0
note_on channel=0 note=57 velocity=35 time=0
note_on channel=0 note=61 velocity=42 time=0
control_change channel=0 control=64 value=0 time=0
<meta message set_tempo tempo=845070 time=480>
note_on channel=0 note=61 velocity=0 time=0
note_on channel=0 note=57 velocity=0 time=0
note_on channel=0 note=69 velocity=0 time=0
note_on channel=0 note=45 velocity=35 time=0
note_on channel=0 note=45 velocity=0 time=480
<meta message end_of_track time=0>
