<meta message track_name name='Klaviersonate Nr. 11 KV 331' time=0>
<meta message copyright text='Copyright © 2005 von Bernd Krüger. ' time=0>
<meta message text text='Amadeus Mozart' time=0>
<meta message text text='Fertiggestellt am  1.1.2006\n' time=0>
<meta message text text='Update am 6.7.3013\n' time=0>
<meta message text text='Dauer: 13:52 Minuten\n' time=0>
<meta message time_signature numerator=6 denominator=8 clocks_per_click=12 notated_32nd_notes_per_beat=8 time=0>
<meta message key_signature key='A' time=0>
<meta message set_tempo tempo=944733 time=0>
<meta message marker text='Thema 1:1' time=0>
program_change channel=0 program=0 time=0
control_change channel=0 control=7 value=100 time=0
control_change channel=0 control=10 value=64 time=0
<meta message text text='bdca426d104a26ac9dcb070447587523' time=0>
control_change channel=0 control=91 value=127 time=0
note_on channel=0 note=73 velocity=50 time=0
program_change channel=0 program=0 time=0
control_change channel=0 control=7 value=100 time=0
control_change channel=0 control=10 value=64 time=0
note_on channel=0 note=57 velocity=45 time=0
note_on channel=0 note=64 velocity=38 time=0
program_change channel=0 program=0 time=0
control_change channel=0 control=64 value=127 time=0
<meta message set_tempo tempo=852394 time=360>
note_on channel=0 note=57 velocity=0 time=0
note_on channel=0 note=73 velocity=0 time=0
note_on channel=0 note=74 velocity=43 time=0
note_on channel=0 note=59 velocity=35 time=0
<meta message set_tempo tempo=1018503 time=120>
note_on channel=0 note=59 velocity=0 time=0
note_on channel=0 note=74 velocity=0 time=0
note_on channel=0 note=64 velocity=0 time=0
note_on channel=0 note=73 velocity=43 time=0
note_on channel=0 note=57 velocity=35 time=0
note_on channel=0 note=64 velocity=29 time=0
control_change channel=0 control=64 value=0 time=9
control_change channel=0 control=64 value=127 time=62
<meta message set_tempo tempo=944733 time=169>
note_on channel=0 note=64 velocity=0 time=0
note_on channel=0 note=57 velocity=0 time=0
note_on channel=0 note=73 velocity=0 time=0
note_on channel=0 note=76 velocity=48 time=0
note_on channel=0 note=64 velocity=29 time=0
note_on channel=0 note=61 velocity=39 time=0
control_change channel=0 control=64 value=0 time=9
control_change channel=0 control=64 value=127 time=83
<meta message set_tempo tempo=1074306 time=388>
note_on channel=0 note=61 velocity=0 time=0
note_on channel=0 note=64 velocity=0 time=0
note_on channel=0 note=76 velocity=0 time=0
note_on channel=0 note=76 velocity=42 time=0
note_on channel=0 note=61 velocity=32 time=0
note_on channel=0 note=64 velocity=23 time=0
note_on channel=0 note=64 velocity=0 time=216
note_on channel=0 note=61 velocity=0 time=0
note_on channel=0 note=76 velocity=0 time=0
<meta message set_tempo tempo=922651 time=24>
control_change channel=0 control=91 value=127 time=0
note_on channel=0 note=71 velocity=50 time=0
<meta message text text='bdca426d104a26ac9dcb070447587523' time=0>
note_on channel=0 note=56 velocity=45 time=0
note_on channel=0 note=64 velocity=38 time=0
control_change channel=0 control=64 value=0 time=0
control_change channel=0 control=64 value=127 time=71
<meta message set_tempo tempo=852394 time=289>
note_on channel=0 note=56 velocity=0 time=0
note_on channel=0 note=71 velocity=0 time=0
note_on channel=0 note=73 velocity=45 time=0
note_on channel=0 note=57 velocity=38 time=0
<meta message set_tempo tempo=968210 time=120>
note_on channel=0 note=57 velocity=0 time=0
note_on channel=0 note=73 velocity=0 time=0
note_on channel=0 note=64 velocity=0 time=0
note_on channel=0 note=71 velocity=45 time=0
note_on channel=0 note=56 velocity=38 time=0
note_on channel=0 note=64 velocity=32 time=0
control_change channel=0 control=64 value=0 time=7
control_change channel=0 control=64 value=127 time=71
<meta message set_tempo tempo=911854 time=162>
note_on channel=0 note=64 velocity=0 time=0
note_on channel=0 note=56 velocity=0 time=0
note_on channel=0 note=71 velocity=0 time=0
note_on channel=0 note=74 velocity=49 time=0
note_on channel=0 note=64 velocity=36 time=0
note_on channel=0 note=59 velocity=38 time=0
control_change channel=0 control=64 value=0 time=12
control_change channel=0 control=64 value=127 time=108
<meta message set_tempo tempo=1018503 time=360>
note_on channel=0 note=59 velocity=0 time=0
note_on channel=0 note=64 velocity=0 time=0
note_on channel=0 note=74 velocity=0 time=0
note_on channel=0 note=74 velocity=45 time=0
note_on channel=0 note=64 velocity=28 time=0
note_on channel=0 note=59 velocity=31 time=0
note_on channel=0 note=59 velocity=0 time=216
note_on channel=0 note=64 velocity=0 time=0
note_on channel=0 note=74 velocity=0 time=0
<meta message set_tempo tempo=922651 time=24>
note_on channel=0 note=69 velocity=53 time=0
note_on channel=0 note=54 velocity=43 time=0
note_on channel=0 note=64 velocity=36 time=0
control_change channel=0 control=64 value=0 time=0
control_change channel=0 control=64 value=127 time=134
<meta message set_tempo tempo=968210 time=346>
note_on channel=0 note=64 velocity=0 time=0
note_on channel=0 note=54 velocity=0 time=0
note_on channel=0 note=69 velocity=0 time=0
note_on channel=0 note=69 velocity=46 time=0
note_on channel=0 note=64 velocity=32 time=0
note_on channel=0 note=54 velocity=38 time=0
<meta message set_tempo tempo=922651 time=240>
note_on channel=0 note=54 velocity=0 time=0
note_on channel=0 note=64 velocity=0 time=0
note_on channel=0 note=69 velocity=0 time=0
note_on channel=0 note=71 velocity=50 time=0
note_on channel=0 note=56 velocity=46 time=0
note_on channel=0 note=64 velocity=39 time=0
control_change channel=0 control=64 value=0 time=10
control_change channel=0 control=64 value=127 time=164
<meta message set_tempo tempo=1005530 time=306>
note_on channel=0 note=64 velocity=0 time=0
note_on channel=0 note=56 velocity=0 time=0
note_on channel=0 note=71 velocity=0 time=0
note_on channel=0 note=71 velocity=46 time=0
note_on channel=0 note=56 velocity=41 time=0
note_on channel=0 note=64 velocity=34 time=0
<meta message set_tempo tempo=861821 time=240>
note_on channel=0 note=64 velocity=0 time=0
note_on channel=0 note=56 velocity=0 time=0
note_on channel=0 note=71 velocity=0 time=0
note_on channel=0 note=73 velocity=53 time=0
note_on channel=0 note=64 velocity=38 time=0
note_on channel=0 note=57 velocity=45 time=0
control_change channel=0 control=64 value=0 time=4
control_change channel=0 control=64 value=127 time=130
<meta message set_tempo tempo=891133 time=346>
note_on channel=0 note=57 velocity=0 time=0
note_on channel=0 note=64 velocity=0 time=0
note_on channel=0 note=73 velocity=0 time=0
note_on channel=0 note=71 velocity=35 time=0
note_on channel=0 note=76 velocity=49 time=0
note_on channel=0 note=50 velocity=38 time=0
control_change channel=0 control=64 value=0 time=8
control_change channel=0 control=64 value=127 time=70
<meta message set_tempo tempo=1005530 time=42>
note_on channel=0 note=76 velocity=0 time=0
note_on channel=0 note=74 velocity=47 time=0
<meta message set_tempo tempo=956480 time=120>
note_on channel=0 note=74 velocity=0 time=0
note_on channel=0 note=50 velocity=0 time=0
note_on channel=0 note=71 velocity=0 time=0
note_on channel=0 note=73 velocity=53 time=0
note_on channel=0 note=69 velocity=45 time=0
note_on channel=0 note=52 velocity=45 time=0
control_change channel=0 control=64 value=0 time=12
control_change channel=0 control=64 value=127 time=136
<meta message set_tempo tempo=1045661 time=332>
note_on channel=0 note=69 velocity=0 time=0
note_on channel=0 note=73 velocity=0 time=0
note_on channel=0 note=71 velocity=49 time=0
note_on channel=0 note=68 velocity=41 time=0
control_change channel=0 control=64 value=0 time=14
note_on channel=0 note=68 velocity=0 time=202
note_on channel=0 note=71 velocity=0 time=0
<meta message set_tempo tempo=944733 time=24>
note_on channel=0 note=52 velocity=0 time=0
<meta message text text='bdca426d104a26ac9dcb070447587523' time=0>
control_change channel=0 control=91 value=127 time=0
note_on channel=0 note=73 velocity=50 time=0
note_on channel=0 note=64 velocity=38 time=0
note_on channel=0 note=57 velocity=45 time=0
control_change channel=0 control=64 value=127 time=92
<meta message set_tempo tempo=852394 time=268>
note_on channel=0 note=57 velocity=0 time=0
note_on channel=0 note=73 velocity=0 time=0
note_on channel=0 note=74 velocity=43 time=0
note_on channel=0 note=59 velocity=35 time=0
<meta message set_tempo tempo=1018503 time=120>
note_on channel=0 note=59 velocity=0 time=0
note_on channel=0 note=74 velocity=0 time=0
note_on channel=0 note=64 velocity=0 time=0
note_on channel=0 note=73 velocity=43 time=0
note_on channel=0 note=64 velocity=29 time=0
note_on channel=0 note=57 velocity=35 time=0
control_change channel=0 control=64 value=0 time=9
control_change channel=0 control=64 value=127 time=62
<meta message set_tempo tempo=944733 time=169>
note_on channel=0 note=57 velocity=0 time=0
note_on channel=0 note=64 velocity=0 time=0
note_on channel=0 note=73 velocity=0 time=0
note_on channel=0 note=76 velocity=48 time=0
note_on channel=0 note=61 velocity=39 time=0
note_on channel=0 note=64 velocity=29 time=0
control_change channel=0 control=64 value=0 time=11
control_change channel=0 control=64 value=127 time=81
<meta message set_tempo tempo=1074306 time=388>
note_on channel=0 note=64 velocity=0 time=0
note_on channel=0 note=61 velocity=0 time=0
note_on channel=0 note=76 velocity=0 time=0
note_on channel=0 note=76 velocity=42 time=0
note_on channel=0 note=64 velocity=23 time=0
note_on channel=0 note=61 velocity=32 time=0
note_on channel=0 note=61 velocity=0 time=216
note_on channel=0 note=64 velocity=0 time=0
note_on channel=0 note=76 velocity=0 time=0
<meta message set_tempo tempo=922651 time=24>
<meta message text text='bdca426d104a26ac9dcb070447587523' time=0>
note_on channel=0 note=71 velocity=50 time=0
control_change channel=0 control=91 value=127 time=0
note_on channel=0 note=56 velocity=45 time=0
note_on channel=0 note=64 velocity=38 time=0
control_change channel=0 control=64 value=0 time=4
control_change channel=0 control=64 value=127 time=67
<meta message set_tempo tempo=852394 time=289>
note_on channel=0 note=56 velocity=0 time=0
note_on channel=0 note=71 velocity=0 time=0
note_on channel=0 note=73 velocity=45 time=0
note_on channel=0 note=57 velocity=38 time=0
<meta message set_tempo tempo=968210 time=120>
note_on channel=0 note=57 velocity=0 time=0
note_on channel=0 note=73 velocity=0 time=0
note_on channel=0 note=64 velocity=0 time=0
note_on channel=0 note=71 velocity=45 time=0
note_on channel=0 note=64 velocity=32 time=0
note_on channel=0 note=56 velocity=38 time=0
control_change channel=0 control=64 value=0 time=7
control_change channel=0 control=64 value=127 time=71
<meta message set_tempo tempo=911854 time=162>
note_on channel=0 note=56 velocity=0 time=0
note_on channel=0 note=64 velocity=0 time=0
note_on channel=0 note=71 velocity=0 time=0
note_on channel=0 note=74 velocity=49 time=0
note_on channel=0 note=59 velocity=40 time=0
note_on channel=0 note=64 velocity=36 time=0
control_change channel=0 control=64 value=0 time=12
control_change channel=0 control=64 value=127 time=108
<meta message set_tempo tempo=1005530 time=360>
note_on channel=0 note=64 velocity=0 time=0
note_on channel=0 note=59 velocity=0 time=0
note_on channel=0 note=74 velocity=0 time=0
note_on channel=0 note=74 velocity=45 time=0
note_on channel=0 note=64 velocity=28 time=0
note_on channel=0 note=59 velocity=31 time=0
note_on channel=0 note=59 velocity=0 time=216
note_on channel=0 note=64 velocity=0 time=0
note_on channel=0 note=74 velocity=0 time=0
<meta message set_tempo tempo=944733 time=24>
note_on channel=0 note=69 velocity=55 time=0
note_on channel=0 note=64 velocity=37 time=0
note_on channel=0 note=54 velocity=45 time=0
control_change channel=0 control=64 value=0 time=5
control_change channel=0 control=64 value=127 time=129
<meta message set_tempo tempo=992720 time=346>
note_on channel=0 note=54 velocity=0 time=0
note_on channel=0 note=64 velocity=0 time=0
note_on channel=0 note=69 velocity=0 time=0
note_on channel=0 note=71 velocity=63 time=0
note_on channel=0 note=56 velocity=49 time=0
note_on channel=0 note=64 velocity=49 time=0
<meta message set_tempo tempo=944733 time=240>
note_on channel=0 note=64 velocity=0 time=0
note_on channel=0 note=56 velocity=0 time=0
note_on channel=0 note=71 velocity=0 time=0
note_on channel=0 note=73 velocity=68 time=0
note_on channel=0 note=57 velocity=55 time=0
note_on channel=0 note=64 velocity=55 time=0
control_change channel=0 control=64 value=0 time=9
control_change channel=0 control=64 value=127 time=165
<meta message set_tempo tempo=1104566 time=306>
note_on channel=0 note=64 velocity=0 time=0
note_on channel=0 note=57 velocity=0 time=0
note_on channel=0 note=73 velocity=0 time=0
note_on channel=0 note=71 velocity=56 time=0
note_on channel=0 note=74 velocity=67 time=0
note_on channel=0 note=66 velocity=56 time=0
note_on channel=0 note=50 velocity=55 time=0
control_change channel=0 control=64 value=0 time=9
control_change channel=0 control=64 value=127 time=72
<meta message set_tempo tempo=1059696 time=159>
note_on channel=0 note=50 velocity=0 time=0
note_on channel=0 note=71 velocity=0 time=0
note_on channel=0 note=74 velocity=0 time=0
note_on channel=0 note=66 velocity=0 time=0
note_on channel=0 note=64 velocity=47 time=0
note_on channel=0 note=73 velocity=56 time=0
note_on channel=0 note=69 velocity=47 time=0
note_on channel=0 note=52 velocity=46 time=0
control_change channel=0 control=64 value=0 time=7
control_change channel=0 control=64 value=127 time=120
<meta message set_tempo tempo=1244813 time=353>
note_on channel=0 note=52 velocity=0 time=0
note_on channel=0 note=64 velocity=0 time=0
note_on channel=0 note=73 velocity=0 time=0
note_on channel=0 note=69 velocity=0 time=0
note_on channel=0 note=68 velocity=34 time=0
note_on channel=0 note=62 velocity=34 time=0
note_on channel=0 note=71 velocity=40 time=0
note_on channel=0 note=64 velocity=34 time=0
note_on channel=0 note=40 velocity=36 time=0
control_change channel=0 control=64 value=0 time=11
control_change channel=0 control=64 value=127 time=116
<meta message set_tempo tempo=1120239 time=113>
note_on channel=0 note=40 velocity=0 time=0
note_on channel=0 note=71 velocity=0 time=0
note_on channel=0 note=68 velocity=0 time=0
note_on channel=0 note=62 velocity=0 time=0
note_on channel=0 note=64 velocity=0 time=0
note_on channel=0 note=69 velocity=38 time=0
note_on channel=0 note=64 velocity=32 time=0
note_on channel=0 note=61 velocity=32 time=0
note_on channel=0 note=45 velocity=34 time=0
control_change channel=0 control=64 value=0 time=11
control_change channel=0 control=64 value=127 time=128
control_change channel=0 control=64 value=0 time=228
note_on channel=0 note=45 velocity=0 time=113
note_on channel=0 note=69 velocity=0 time=0
note_on channel=0 note=64 velocity=0 time=0
note_on channel=0 note=61 velocity=0 time=0
<meta message set_tempo tempo=944733 time=240>
<meta message marker text='Thema 1:2' time=0>
note_on channel=0 note=73 velocity=42 time=0
<meta message text text='bdca426d104a26ac9dcb070447587523' time=0>
control_change channel=0 control=91 value=127 time=0
note_on channel=0 note=57 velocity=38 time=0
note_on channel=0 note=64 velocity=32 time=0
control_change channel=0 control=64 value=127 time=0
<meta message set_tempo tempo=852394 time=360>
note_on channel=0 note=57 velocity=0 time=0
note_on channel=0 note=73 velocity=0 time=0
note_on channel=0 note=74 velocity=36 time=0
note_on channel=0 note=59 velocity=29 time=0
<meta message set_tempo tempo=1018503 time=120>
note_on channel=0 note=59 velocity=0 time=0
note_on channel=0 note=74 velocity=0 time=0
note_on channel=0 note=64 velocity=0 time=0
note_on channel=0 note=73 velocity=36 time=0
note_on channel=0 note=57 velocity=29 time=0
note_on channel=0 note=64 velocity=24 time=0
control_change channel=0 control=64 value=0 time=9
control_change channel=0 control=64 value=127 time=62
<meta message set_tempo tempo=944733 time=169>
note_on channel=0 note=64 velocity=0 time=0
note_on channel=0 note=57 velocity=0 time=0
note_on channel=0 note=73 velocity=0 time=0
note_on channel=0 note=76 velocity=40 time=0
note_on channel=0 note=64 velocity=29 time=0
note_on channel=0 note=61 velocity=33 time=0
control_change channel=0 control=64 value=0 time=14
control_change channel=0 control=64 value=127 time=78
<meta message set_tempo tempo=1074306 time=388>
note_on channel=0 note=61 velocity=0 time=0
note_on channel=0 note=64 velocity=0 time=0
note_on channel=0 note=76 velocity=0 time=0
note_on channel=0 note=76 velocity=35 time=0
note_on channel=0 note=64 velocity=23 time=0
note_on channel=0 note=61 velocity=26 time=0
note_on channel=0 note=61 velocity=0 time=216
note_on channel=0 note=64 velocity=0 time=0
note_on channel=0 note=76 velocity=0 time=0
<meta message set_tempo tempo=922651 time=24>
<meta message text text='bdca426d104a26ac9dcb070447587523' time=0>
note_on channel=0 note=71 velocity=42 time=0
control_change channel=0 control=91 value=127 time=0
note_on channel=0 note=64 velocity=32 time=0
note_on channel=0 note=56 velocity=38 time=0
control_change channel=0 control=64 value=0 time=4
control_change channel=0 control=64 value=127 time=67
<meta message set_tempo tempo=852394 time=289>
note_on channel=0 note=56 velocity=0 time=0
note_on channel=0 note=71 velocity=0 time=0
note_on channel=0 note=73 velocity=38 time=0
note_on channel=0 note=57 velocity=32 time=0
<meta message set_tempo tempo=968210 time=120>
note_on channel=0 note=57 velocity=0 time=0
note_on channel=0 note=73 velocity=0 time=0
note_on channel=0 note=64 velocity=0 time=0
note_on channel=0 note=71 velocity=38 time=0
note_on channel=0 note=64 velocity=27 time=0
note_on channel=0 note=56 velocity=32 time=0
control_change channel=0 control=64 value=0 time=7
control_change channel=0 control=64 value=127 time=71
<meta message set_tempo tempo=911854 time=162>
note_on channel=0 note=56 velocity=0 time=0
note_on channel=0 note=64 velocity=0 time=0
note_on channel=0 note=71 velocity=0 time=0
note_on channel=0 note=74 velocity=41 time=0
note_on channel=0 note=59 velocity=32 time=0
note_on channel=0 note=64 velocity=30 time=0
control_change channel=0 control=64 value=0 time=12
control_change channel=0 control=64 value=127 time=108
<meta message set_tempo tempo=1018503 time=360>
note_on channel=0 note=64 velocity=0 time=0
note_on channel=0 note=59 velocity=0 time=0
note_on channel=0 note=74 velocity=0 time=0
note_on channel=0 note=74 velocity=38 time=0
note_on channel=0 note=64 velocity=23 time=0
note_on channel=0 note=59 velocity=26 time=0
note_on channel=0 note=59 velocity=0 time=216
note_on channel=0 note=64 velocity=0 time=0
note_on channel=0 note=74 velocity=0 time=0
<meta message set_tempo tempo=922651 time=24>
note_on channel=0 note=69 velocity=45 time=0
note_on channel=0 note=64 velocity=30 time=0
note_on channel=0 note=54 velocity=36 time=0
control_change channel=0 control=64 value=0 time=0
control_change channel=0 control=64 value=127 time=134
<meta message set_tempo tempo=968210 time=346>
note_on channel=0 note=54 velocity=0 time=0
note_on channel=0 note=64 velocity=0 time=0
note_on channel=0 note=69 velocity=0 time=0
note_on channel=0 note=69 velocity=39 time=0
note_on channel=0 note=54 velocity=32 time=0
note_on channel=0 note=64 velocity=27 time=0
<meta message set_tempo tempo=922651 time=240>
note_on channel=0 note=64 velocity=0 time=0
note_on channel=0 note=54 velocity=0 time=0
note_on channel=0 note=69 velocity=0 time=0
note_on channel=0 note=71 velocity=42 time=0
note_on channel=0 note=64 velocity=33 time=0
note_on channel=0 note=56 velocity=39 time=0
control_change channel=0 control=64 value=0 time=10
control_change channel=0 control=64 value=127 time=164
<meta message set_tempo tempo=1005530 time=306>
note_on channel=0 note=56 velocity=0 time=0
note_on channel=0 note=64 velocity=0 time=0
note_on channel=0 note=71 velocity=0 time=0
note_on channel=0 note=71 velocity=39 time=0
note_on channel=0 note=64 velocity=28 time=0
note_on channel=0 note=56 velocity=34 time=0
<meta message set_tempo tempo=861821 time=240>
note_on channel=0 note=56 velocity=0 time=0
note_on channel=0 note=64 velocity=0 time=0
note_on channel=0 note=71 velocity=0 time=0
note_on channel=0 note=73 velocity=45 time=0
note_on channel=0 note=57 velocity=38 time=0
note_on channel=0 note=64 velocity=32 time=0
control_change channel=0 control=64 value=0 time=4
control_change channel=0 control=64 value=127 time=74
<meta message set_tempo tempo=891133 time=402>
note_on channel=0 note=64 velocity=0 time=0
note_on channel=0 note=57 velocity=0 time=0
note_on channel=0 note=73 velocity=0 time=0
note_on channel=0 note=71 velocity=29 time=0
note_on channel=0 note=76 velocity=41 time=0
note_on channel=0 note=50 velocity=32 time=0
control_change channel=0 control=64 value=0 time=8
control_change channel=0 control=64 value=127 time=70
<meta message set_tempo tempo=1005530 time=42>
note_on channel=0 note=76 velocity=0 time=0
note_on channel=0 note=74 velocity=39 time=0
<meta message set_tempo tempo=956480 time=120>
note_on channel=0 note=74 velocity=0 time=0
note_on channel=0 note=50 velocity=0 time=0
note_on channel=0 note=71 velocity=0 time=0
note_on channel=0 note=73 velocity=45 time=0
note_on channel=0 note=69 velocity=38 time=0
note_on channel=0 note=52 velocity=38 time=0
control_change channel=0 control=64 value=0 time=43
control_change channel=0 control=64 value=127 time=63
<meta message set_tempo tempo=1045661 time=374>
note_on channel=0 note=69 velocity=0 time=0
note_on channel=0 note=73 velocity=0 time=0
note_on channel=0 note=71 velocity=41 time=0
note_on channel=0 note=68 velocity=34 time=0
control_change channel=0 control=64 value=0 time=20
note_on channel=0 note=68 velocity=0 time=196
note_on channel=0 note=71 velocity=0 time=0
<meta message set_tempo tempo=944733 time=24>
note_on channel=0 note=52 velocity=0 time=0
note_on channel=0 note=73 velocity=50 time=0
control_change channel=0 control=91 value=127 time=0
<meta message text text='bdca426d104a26ac9dcb070447587523' time=0>
note_on channel=0 note=57 velocity=45 time=0
note_on channel=0 note=64 velocity=38 time=0
control_change channel=0 control=64 value=127 time=92
<meta message set_tempo tempo=852394 time=268>
note_on channel=0 note=57 velocity=0 time=0
note_on channel=0 note=73 velocity=0 time=0
note_on channel=0 note=74 velocity=43 time=0
note_on channel=0 note=59 velocity=35 time=0
<meta message set_tempo tempo=1018503 time=120>
note_on channel=0 note=59 velocity=0 time=0
note_on channel=0 note=74 velocity=0 time=0
note_on channel=0 note=64 velocity=0 time=0
note_on channel=0 note=73 velocity=43 time=0
note_on channel=0 note=64 velocity=29 time=0
note_on channel=0 note=57 velocity=35 time=0
control_change channel=0 control=64 value=0 time=9
control_change channel=0 control=64 value=127 time=62
<meta message set_tempo tempo=944733 time=169>
note_on channel=0 note=57 velocity=0 time=0
note_on channel=0 note=64 velocity=0 time=0
note_on channel=0 note=73 velocity=0 time=0
note_on channel=0 note=76 velocity=48 time=0
note_on channel=0 note=61 velocity=39 time=0
note_on channel=0 note=64 velocity=35 time=0
control_change channel=0 control=64 value=0 time=10
control_change channel=0 control=64 value=127 time=82
<meta message set_tempo tempo=1074306 time=388>
note_on channel=0 note=64 velocity=0 time=0
note_on channel=0 note=61 velocity=0 time=0
note_on channel=0 note=76 velocity=0 time=0
note_on channel=0 note=76 velocity=42 time=0
note_on channel=0 note=61 velocity=32 time=0
note_on channel=0 note=64 velocity=28 time=0
note_on channel=0 note=64 velocity=0 time=216
note_on channel=0 note=61 velocity=0 time=0
note_on channel=0 note=76 velocity=0 time=0
<meta message set_tempo tempo=922651 time=24>
control_change channel=0 control=91 value=127 time=0
note_on channel=0 note=71 velocity=50 time=0
<meta message text text='bdca426d104a26ac9dcb070447587523' time=0>
note_on channel=0 note=64 velocity=38 time=0
note_on channel=0 note=56 velocity=45 time=0
control_change channel=0 control=64 value=0 time=5
control_change channel=0 control=64 value=127 time=66
<meta message set_tempo tempo=852394 time=289>
note_on channel=0 note=56 velocity=0 time=0
note_on channel=0 note=71 velocity=0 time=0
note_on channel=0 note=73 velocity=45 time=0
note_on channel=0 note=57 velocity=38 time=0
<meta message set_tempo tempo=968210 time=120>
note_on channel=0 note=57 velocity=0 time=0
note_on channel=0 note=73 velocity=0 time=0
note_on channel=0 note=64 velocity=0 time=0
note_on channel=0 note=71 velocity=45 time=0
note_on channel=0 note=64 velocity=32 time=0
note_on channel=0 note=56 velocity=38 time=0
control_change channel=0 control=64 value=0 time=7
control_change channel=0 control=64 value=127 time=71
<meta message set_tempo tempo=911854 time=162>
note_on channel=0 note=56 velocity=0 time=0
note_on channel=0 note=64 velocity=0 time=0
note_on channel=0 note=71 velocity=0 time=0
note_on channel=0 note=74 velocity=49 time=0
note_on channel=0 note=59 velocity=40 time=0
note_on channel=0 note=64 velocity=36 time=0
control_change channel=0 control=64 value=0 time=12
control_change channel=0 control=64 value=127 time=108
<meta message set_tempo tempo=1005530 time=360>
note_on channel=0 note=64 velocity=0 time=0
note_on channel=0 note=59 velocity=0 time=0
note_on channel=0 note=74 velocity=0 time=0
note_on channel=0 note=74 velocity=45 time=0
note_on channel=0 note=59 velocity=31 time=0
note_on channel=0 note=64 velocity=28 time=0
note_on channel=0 note=64 velocity=0 time=216
note_on channel=0 note=59 velocity=0 time=0
note_on channel=0 note=74 velocity=0 time=0
<meta message set_tempo tempo=944733 time=24>
note_on channel=0 note=69 velocity=55 time=0
note_on channel=0 note=64 velocity=37 time=0
note_on channel=0 note=54 velocity=45 time=0
control_change channel=0 control=64 value=0 time=3
control_change channel=0 control=64 value=127 time=131
<meta message set_tempo tempo=992720 time=346>
note_on channel=0 note=54 velocity=0 time=0
note_on channel=0 note=64 velocity=0 time=0
note_on channel=0 note=69 velocity=0 time=0
note_on channel=0 note=71 velocity=63 time=0
note_on channel=0 note=64 velocity=49 time=0
note_on channel=0 note=56 velocity=49 time=0
<meta message set_tempo tempo=944733 time=240>
note_on channel=0 note=56 velocity=0 time=0
note_on channel=0 note=64 velocity=0 time=0
note_on channel=0 note=71 velocity=0 time=0
note_on channel=0 note=73 velocity=68 time=0
note_on channel=0 note=57 velocity=55 time=0
note_on channel=0 note=64 velocity=55 time=0
control_change channel=0 control=64 value=0 time=11
control_change channel=0 control=64 value=127 time=163
<meta message set_tempo tempo=1104566 time=306>
note_on channel=0 note=64 velocity=0 time=0
note_on channel=0 note=57 velocity=0 time=0
note_on channel=0 note=73 velocity=0 time=0
note_on channel=0 note=66 velocity=56 time=0
note_on channel=0 note=74 velocity=67 time=0
note_on channel=0 note=71 velocity=56 time=0
note_on channel=0 note=50 velocity=55 time=0
control_change channel=0 control=64 value=0 time=11
control_change channel=0 control=64 value=127 time=76
<meta message set_tempo tempo=1059696 time=153>
note_on channel=0 note=50 velocity=0 time=0
note_on channel=0 note=66 velocity=0 time=0
note_on channel=0 note=74 velocity=0 time=0
note_on channel=0 note=71 velocity=0 time=0
note_on channel=0 note=73 velocity=56 time=0
note_on channel=0 note=64 velocity=47 time=0
note_on channel=0 note=69 velocity=47 time=0
note_on channel=0 note=52 velocity=46 time=0
control_change channel=0 control=64 value=0 time=7
control_change channel=0 control=64 value=127 time=120
<meta message set_tempo tempo=1244813 time=353>
note_on channel=0 note=52 velocity=0 time=0
note_on channel=0 note=73 velocity=0 time=0
note_on channel=0 note=64 velocity=0 time=0
note_on channel=0 note=69 velocity=0 time=0
note_on channel=0 note=64 velocity=34 time=0
note_on channel=0 note=68 velocity=34 time=0
note_on channel=0 note=62 velocity=34 time=0
note_on channel=0 note=71 velocity=40 time=0
note_on channel=0 note=40 velocity=36 time=0
control_change channel=0 control=64 value=0 time=11
control_change channel=0 control=64 value=127 time=116
<meta message set_tempo tempo=1120239 time=113>
note_on channel=0 note=40 velocity=0 time=0
note_on channel=0 note=62 velocity=0 time=0
note_on channel=0 note=64 velocity=0 time=0
note_on channel=0 note=68 velocity=0 time=0
note_on channel=0 note=71 velocity=0 time=0
note_on channel=0 note=69 velocity=38 time=0
note_on channel=0 note=64 velocity=32 time=0
note_on channel=0 note=61 velocity=32 time=0
note_on channel=0 note=45 velocity=34 time=0
control_change channel=0 control=64 value=0 time=11
control_change channel=0 control=64 value=127 time=128
control_change channel=0 control=64 value=0 time=228
note_on channel=0 note=45 velocity=0 time=113
note_on channel=0 note=69 velocity=0 time=0
note_on channel=0 note=64 velocity=0 time=0
note_on channel=0 note=61 velocity=0 time=0
<meta message set_tempo tempo=895522 time=240>
<meta message marker text='Thema 2:1' time=0>
<meta message text text='bdca426d104a26ac9dcb070447587523' time=0>
note_on channel=0 note=76 velocity=50 time=0
control_change channel=0 control=91 value=127 time=0
note_on channel=0 note=57 velocity=39 time=0
control_change channel=0 control=64 value=127 time=64
note_on channel=0 note=57 velocity=0 time=176
note_on channel=0 note=61 velocity=33 time=0
<meta message set_tempo tempo=852394 time=120>
note_on channel=0 note=76 velocity=0 time=0
note_on channel=0 note=78 velocity=45 time=0
<meta message set_tempo tempo=968210 time=120>
note_on channel=0 note=78 velocity=0 time=0
note_on channel=0 note=61 velocity=0 time=0
note_on channel=0 note=76 velocity=46 time=0
note_on channel=0 note=64 velocity=34 time=0
<meta message set_tempo tempo=869565 time=240>
note_on channel=0 note=64 velocity=0 time=0
note_on channel=0 note=76 velocity=0 time=0
note_on channel=0 note=78 velocity=53 time=0
note_on channel=0 note=57 velocity=37 time=0
control_change channel=0 control=64 value=0 time=12
control_change channel=0 control=64 value=127 time=80
note_on channel=0 note=57 velocity=0 time=148
note_on channel=0 note=62 velocity=32 time=0
<meta message set_tempo tempo=1005530 time=240>
note_on channel=0 note=62 velocity=0 time=0
note_on channel=0 note=78 velocity=0 time=0
note_on channel=0 note=78 velocity=42 time=0
note_on channel=0 note=66 velocity=32 time=0
note_on channel=0 note=78 velocity=0 time=150
note_on channel=0 note=78 velocity=49 time=30
note_on channel=0 note=78 velocity=0 time=30
note_on channel=0 note=80 velocity=53 time=0
<meta message set_tempo tempo=909091 time=30>
note_on channel=0 note=80 velocity=0 time=0
note_on channel=0 note=66 velocity=0 time=0
control_change channel=0 control=91 value=127 time=0
note_on channel=0 note=81 velocity=57 time=0
<meta message text text='bdca426d104a26ac9dcb070447587523' time=0>
note_on channel=0 note=57 velocity=39 time=0
control_change channel=0 control=64 value=0 time=0
control_change channel=0 control=64 value=127 time=64
control_change channel=0 control=64 value=127 time=7
note_on channel=0 note=57 velocity=0 time=169
note_on channel=0 note=62 velocity=33 time=0
<meta message set_tempo tempo=852394 time=120>
note_on channel=0 note=81 velocity=0 time=0
note_on channel=0 note=80 velocity=47 time=0
<meta message set_tempo tempo=968210 time=120>
note_on channel=0 note=80 velocity=0 time=0
note_on channel=0 note=62 velocity=0 time=0
note_on channel=0 note=78 velocity=50 time=0
note_on channel=0 note=66 velocity=34 time=0
control_change channel=0 control=64 value=0 time=7
control_change channel=0 control=64 value=127 time=71
<meta message set_tempo tempo=901442 time=162>
note_on channel=0 note=66 velocity=0 time=0
note_on channel=0 note=78 velocity=0 time=0
note_on channel=0 note=78 velocity=53 time=0
note_on channel=0 note=57 velocity=37 time=0
control_change channel=0 control=64 value=0 time=12
control_change channel=0 control=64 value=127 time=80
<meta message set_tempo tempo=933562 time=148>
note_on channel=0 note=57 velocity=0 time=0
note_on channel=0 note=78 velocity=0 time=0
note_on channel=0 note=76 velocity=45 time=0
note_on channel=0 note=61 velocity=32 time=0
<meta message set_tempo tempo=983607 time=240>
note_on channel=0 note=61 velocity=0 time=0
note_on channel=0 note=76 velocity=0 time=0
note_on channel=0 note=76 velocity=42 time=0
note_on channel=0 note=64 velocity=32 time=0
note_on channel=0 note=64 velocity=0 time=120
note_on channel=0 note=76 velocity=0 time=0
control_change channel=0 control=64 value=0 time=11
<meta message set_tempo tempo=845070 time=109>
note_on channel=0 note=76 velocity=59 time=0
note_on channel=0 note=61 velocity=51 time=0
note_on channel=0 note=57 velocity=51 time=0
control_change channel=0 control=64 value=127 time=71
<meta message set_tempo tempo=891133 time=169>
note_on channel=0 note=76 velocity=0 time=0
note_on channel=0 note=73 velocity=50 time=0
control_change channel=0 control=64 value=0 time=187
<meta message set_tempo tempo=944733 time=53>
note_on channel=0 note=73 velocity=0 time=0
note_on channel=0 note=57 velocity=0 time=0
note_on channel=0 note=61 velocity=0 time=0
note_on channel=0 note=69 velocity=49 time=0
note_on channel=0 note=69 velocity=0 time=60
<meta message set_tempo tempo=845070 time=180>
note_on channel=0 note=76 velocity=61 time=0
note_on channel=0 note=56 velocity=43 time=0
note_on channel=0 note=62 velocity=43 time=0
control_change channel=0 control=64 value=127 time=17
<meta message set_tempo tempo=891133 time=223>
note_on channel=0 note=76 velocity=0 time=0
note_on channel=0 note=74 velocity=53 time=0
control_change channel=0 control=64 value=0 time=223
<meta message set_tempo tempo=944733 time=17>
note_on channel=0 note=74 velocity=0 time=0
note_on channel=0 note=62 velocity=0 time=0
note_on channel=0 note=56 velocity=0 time=0
note_on channel=0 note=71 velocity=48 time=0
note_on channel=0 note=71 velocity=0 time=60
<meta message set_tempo tempo=833333 time=180>
note_on channel=0 note=76 velocity=62 time=0
note_on channel=0 note=61 velocity=50 time=0
note_on channel=0 note=57 velocity=50 time=0
control_change channel=0 control=64 value=127 time=0
<meta message set_tempo tempo=891133 time=240>
note_on channel=0 note=76 velocity=0 time=0
note_on channel=0 note=73 velocity=51 time=0
<meta message set_tempo tempo=1012317 time=240>
note_on channel=0 note=73 velocity=0 time=0
note_on channel=0 note=57 velocity=0 time=0
note_on channel=0 note=61 velocity=0 time=0
note_on channel=0 note=69 velocity=45 time=0
note_on channel=0 note=54 velocity=48 time=0
note_on channel=0 note=63 velocity=48 time=0
control_change channel=0 control=64 value=0 time=132
note_on channel=0 note=63 velocity=0 time=88
note_on channel=0 note=54 velocity=0 time=0
note_on channel=0 note=69 velocity=0 time=0
<meta message set_tempo tempo=911854 time=20>
note_on channel=0 note=69 velocity=44 time=0
note_on channel=0 note=73 velocity=44 time=0
note_on channel=0 note=64 velocity=40 time=0
note_on channel=0 note=52 velocity=40 time=0
control_change channel=0 control=64 value=127 time=92
<meta message set_tempo tempo=1120239 time=388>
note_on channel=0 note=73 velocity=0 time=0
note_on channel=0 note=69 velocity=0 time=0
note_on channel=0 note=68 velocity=37 time=0
note_on channel=0 note=71 velocity=37 time=0
control_change channel=0 control=64 value=0 time=50
note_on channel=0 note=71 velocity=0 time=166
note_on channel=0 note=52 velocity=0 time=0
note_on channel=0 note=64 velocity=0 time=0
note_on channel=0 note=68 velocity=0 time=0
<meta message set_tempo tempo=944733 time=24>
note_on channel=0 note=73 velocity=50 time=0
control_change channel=0 control=91 value=127 time=0
<meta message text text='bdca426d104a26ac9dcb070447587523' time=0>
note_on channel=0 note=57 velocity=45 time=0
note_on channel=0 note=64 velocity=38 time=0
control_change channel=0 control=64 value=0 time=0
control_change channel=0 control=64 value=127 time=92
<meta message set_tempo tempo=852394 time=268>
note_on channel=0 note=57 velocity=0 time=0
note_on channel=0 note=73 velocity=0 time=0
note_on channel=0 note=74 velocity=43 time=0
note_on channel=0 note=59 velocity=35 time=0
<meta message set_tempo tempo=1018503 time=120>
note_on channel=0 note=59 velocity=0 time=0
note_on channel=0 note=74 velocity=0 time=0
note_on channel=0 note=64 velocity=0 time=0
note_on channel=0 note=73 velocity=43 time=0
note_on channel=0 note=57 velocity=35 time=0
note_on channel=0 note=64 velocity=29 time=0
control_change channel=0 control=64 value=0 time=9
control_change channel=0 control=64 value=127 time=62
<meta message set_tempo tempo=944733 time=169>
note_on channel=0 note=64 velocity=0 time=0
note_on channel=0 note=57 velocity=0 time=0
note_on channel=0 note=73 velocity=0 time=0
note_on channel=0 note=76 velocity=48 time=0
note_on channel=0 note=64 velocity=35 time=0
note_on channel=0 note=61 velocity=39 time=0
control_change channel=0 control=64 value=0 time=11
control_change channel=0 control=64 value=127 time=81
<meta message set_tempo tempo=1074306 time=388>
note_on channel=0 note=61 velocity=0 time=0
note_on channel=0 note=64 velocity=0 time=0
note_on channel=0 note=76 velocity=0 time=0
note_on channel=0 note=76 velocity=42 time=0
note_on channel=0 note=64 velocity=28 time=0
note_on channel=0 note=61 velocity=32 time=0
note_on channel=0 note=61 velocity=0 time=216
note_on channel=0 note=64 velocity=0 time=0
note_on channel=0 note=76 velocity=0 time=0
<meta message set_tempo tempo=922651 time=24>
control_change channel=0 control=91 value=127 time=0
note_on channel=0 note=71 velocity=50 time=0
<meta message text text='bdca426d104a26ac9dcb070447587523' time=0>
note_on channel=0 note=64 velocity=38 time=0
note_on channel=0 note=56 velocity=45 time=0
control_change channel=0 control=64 value=0 time=3
control_change channel=0 control=64 value=127 time=68
<meta message set_tempo tempo=852394 time=289>
note_on channel=0 note=56 velocity=0 time=0
note_on channel=0 note=71 velocity=0 time=0
note_on channel=0 note=73 velocity=45 time=0
note_on channel=0 note=57 velocity=38 time=0
<meta message set_tempo tempo=968210 time=120>
note_on channel=0 note=57 velocity=0 time=0
note_on channel=0 note=73 velocity=0 time=0
note_on channel=0 note=64 velocity=0 time=0
note_on channel=0 note=71 velocity=45 time=0
note_on channel=0 note=56 velocity=38 time=0
note_on channel=0 note=64 velocity=32 time=0
control_change channel=0 control=64 value=0 time=7
control_change channel=0 control=64 value=127 time=71
<meta message set_tempo tempo=911854 time=162>
note_on channel=0 note=64 velocity=0 time=0
note_on channel=0 note=56 velocity=0 time=0
note_on channel=0 note=71 velocity=0 time=0
note_on channel=0 note=74 velocity=49 time=0
note_on channel=0 note=59 velocity=40 time=0
note_on channel=0 note=64 velocity=36 time=0
control_change channel=0 control=64 value=0 time=12
control_change channel=0 control=64 value=127 time=108
<meta message set_tempo tempo=1005530 time=360>
note_on channel=0 note=64 velocity=0 time=0
note_on channel=0 note=59 velocity=0 time=0
note_on channel=0 note=74 velocity=0 time=0
note_on channel=0 note=74 velocity=45 time=0
note_on channel=0 note=64 velocity=28 time=0
note_on channel=0 note=59 velocity=31 time=0
note_on channel=0 note=59 velocity=0 time=216
note_on channel=0 note=64 velocity=0 time=0
note_on channel=0 note=74 velocity=0 time=0
<meta message set_tempo tempo=944733 time=24>
note_on channel=0 note=69 velocity=55 time=0
note_on channel=0 note=64 velocity=37 time=0
note_on channel=0 note=54 velocity=45 time=0
control_change channel=0 control=64 value=0 time=0
control_change channel=0 control=64 value=127 time=134
<meta message set_tempo tempo=1059696 time=346>
note_on channel=0 note=54 velocity=0 time=0
note_on channel=0 note=64 velocity=0 time=0
note_on channel=0 note=69 velocity=0 time=0
note_on channel=0 note=71 velocity=63 time=0
note_on channel=0 note=56 velocity=49 time=0
note_on channel=0 note=64 velocity=49 time=0
<meta message set_tempo tempo=944733 time=240>
note_on channel=0 note=64 velocity=0 time=0
note_on channel=0 note=56 velocity=0 time=0
note_on channel=0 note=71 velocity=0 time=0
note_on channel=0 note=73 velocity=68 time=0
note_on channel=0 note=57 velocity=55 time=0
note_on channel=0 note=64 velocity=55 time=0
control_change channel=0 control=64 value=0 time=11
control_change channel=0 control=64 value=127 time=163
<meta message set_tempo tempo=1045661 time=306>
note_on channel=0 note=64 velocity=0 time=0
note_on channel=0 note=57 velocity=0 time=0
note_on channel=0 note=73 velocity=0 time=0
note_on channel=0 note=71 velocity=56 time=0
note_on channel=0 note=66 velocity=56 time=0
note_on channel=0 note=74 velocity=67 time=0
note_on channel=0 note=50 velocity=55 time=0
control_change channel=0 control=64 value=0 time=12
control_change channel=0 control=64 value=127 time=74
<meta message set_tempo tempo=956480 time=154>
note_on channel=0 note=50 velocity=0 time=0
note_on channel=0 note=71 velocity=0 time=0
note_on channel=0 note=66 velocity=0 time=0
note_on channel=0 note=74 velocity=0 time=0
note_on channel=0 note=64 velocity=47 time=0
note_on channel=0 note=73 velocity=56 time=0
note_on channel=0 note=69 velocity=47 time=0
note_on channel=0 note=52 velocity=46 time=0
control_change channel=0 control=64 value=0 time=7
control_change channel=0 control=64 value=127 time=120
<meta message set_tempo tempo=1136579 time=353>
note_on channel=0 note=52 velocity=0 time=0
note_on channel=0 note=64 velocity=0 time=0
note_on channel=0 note=73 velocity=0 time=0
note_on channel=0 note=69 velocity=0 time=0
note_on channel=0 note=68 velocity=42 time=0
note_on channel=0 note=71 velocity=50 time=0
note_on channel=0 note=64 velocity=42 time=0
note_on channel=0 note=40 velocity=45 time=0
control_change channel=0 control=64 value=0 time=11
control_change channel=0 control=64 value=127 time=116
<meta message set_tempo tempo=1045661 time=113>
note_on channel=0 note=40 velocity=0 time=0
note_on channel=0 note=68 velocity=0 time=0
note_on channel=0 note=71 velocity=0 time=0
note_on channel=0 note=64 velocity=0 time=0
note_on channel=0 note=71 velocity=47 time=0
note_on channel=0 note=64 velocity=40 time=0
note_on channel=0 note=68 velocity=40 time=0
note_on channel=0 note=45 velocity=42 time=0
control_change channel=0 control=64 value=0 time=10
control_change channel=0 control=64 value=127 time=129
note_on channel=0 note=68 velocity=0 time=341
note_on channel=0 note=71 velocity=0 time=0
note_on channel=0 note=73 velocity=47 time=0
note_on channel=0 note=69 velocity=47 time=0
control_change channel=0 control=64 value=0 time=14
<meta message set_tempo tempo=992720 time=226>
note_on channel=0 note=69 velocity=0 time=0
note_on channel=0 note=45 velocity=0 time=0
note_on channel=0 note=64 velocity=0 time=0
note_on channel=0 note=73 velocity=0 time=0
note_on channel=0 note=73 velocity=75 time=0
note_on channel=0 note=69 velocity=63 time=0
note_on channel=0 note=64 velocity=63 time=0
note_on channel=0 note=57 velocity=57 time=0
note_on channel=0 note=45 velocity=48 time=0
control_change channel=0 control=64 value=127 time=60
<meta message set_tempo tempo=1074306 time=420>
note_on channel=0 note=45 velocity=0 time=0
note_on channel=0 note=64 velocity=0 time=0
note_on channel=0 note=73 velocity=0 time=0
note_on channel=0 note=69 velocity=0 time=0
note_on channel=0 note=57 velocity=0 time=0
note_on channel=0 note=74 velocity=75 time=0
note_on channel=0 note=68 velocity=63 time=0
note_on channel=0 note=64 velocity=63 time=0
note_on channel=0 note=47 velocity=53 time=0
note_on channel=0 note=59 velocity=63 time=0
control_change channel=0 control=64 value=0 time=14
control_change channel=0 control=64 value=127 time=67
<meta message set_tempo tempo=992720 time=159>
note_on channel=0 note=59 velocity=0 time=0
note_on channel=0 note=64 velocity=0 time=0
note_on channel=0 note=74 velocity=0 time=0
note_on channel=0 note=68 velocity=0 time=0
note_on channel=0 note=47 velocity=0 time=0
note_on channel=0 note=64 velocity=68 time=0
note_on channel=0 note=76 velocity=80 time=0
note_on channel=0 note=69 velocity=68 time=0
note_on channel=0 note=49 velocity=57 time=0
note_on channel=0 note=61 velocity=69 time=0
control_change channel=0 control=64 value=0 time=11
control_change channel=0 control=64 value=127 time=53
<meta message set_tempo tempo=1042572 time=176>
<meta message set_tempo tempo=1059696 time=240>
note_on channel=0 note=61 velocity=0 time=0
note_on channel=0 note=69 velocity=0 time=0
note_on channel=0 note=64 velocity=0 time=0
note_on channel=0 note=76 velocity=0 time=0
note_on channel=0 note=49 velocity=0 time=0
note_on channel=0 note=78 velocity=56 time=0
note_on channel=0 note=62 velocity=38 time=0
note_on channel=0 note=50 velocity=32 time=0
control_change channel=0 control=64 value=0 time=13
control_change channel=0 control=64 value=127 time=37
note_on channel=0 note=78 velocity=0 time=70
note_on channel=0 note=80 velocity=44 time=0
note_on channel=0 note=80 velocity=0 time=60
note_on channel=0 note=81 velocity=46 time=0
<meta message set_tempo tempo=1074306 time=60>
note_on channel=0 note=81 velocity=0 time=0
note_on channel=0 note=50 velocity=0 time=0
note_on channel=0 note=62 velocity=0 time=0
note_on channel=0 note=69 velocity=53 time=0
note_on channel=0 note=52 velocity=34 time=0
note_on channel=0 note=61 velocity=41 time=0
control_change channel=0 control=64 value=0 time=10
control_change channel=0 control=64 value=127 time=81
<meta message set_tempo tempo=1188354 time=389>
note_on channel=0 note=61 velocity=0 time=0
note_on channel=0 note=52 velocity=0 time=0
note_on channel=0 note=69 velocity=0 time=0
note_on channel=0 note=68 velocity=34 time=0
note_on channel=0 note=73 velocity=41 time=0
note_on channel=0 note=62 velocity=40 time=0
note_on channel=0 note=52 velocity=34 time=0
control_change channel=0 control=64 value=0 time=14
note_on channel=0 note=73 velocity=0 time=106
note_on channel=0 note=71 velocity=39 time=0
control_change channel=0 control=64 value=127 time=21
note_on channel=0 note=71 velocity=0 time=99
note_on channel=0 note=52 velocity=0 time=0
note_on channel=0 note=62 velocity=0 time=0
note_on channel=0 note=68 velocity=0 time=0
note_on channel=0 note=69 velocity=39 time=0
note_on channel=0 note=61 velocity=40 time=0
note_on channel=0 note=57 velocity=34 time=0
control_change channel=0 control=64 value=0 time=10
control_change channel=0 control=64 value=127 time=89
control_change channel=0 control=64 value=0 time=325
note_on channel=0 note=57 velocity=0 time=56
note_on channel=0 note=61 velocity=0 time=0
note_on channel=0 note=69 velocity=0 time=0
<meta message set_tempo tempo=895522 time=240>
<meta message marker text='Thema 2:2' time=0>
<meta message text text='bdca426d104a26ac9dcb070447587523' time=0>
note_on channel=0 note=76 velocity=50 time=0
control_change channel=0 control=91 value=127 time=0
note_on channel=0 note=57 velocity=39 time=0
control_change channel=0 control=64 value=127 time=64
note_on channel=0 note=57 velocity=0 time=176
note_on channel=0 note=61 velocity=33 time=0
<meta message set_tempo tempo=852394 time=120>
note_on channel=0 note=76 velocity=0 time=0
note_on channel=0 note=78 velocity=45 time=0
<meta message set_tempo tempo=968210 time=120>
note_on channel=0 note=78 velocity=0 time=0
note_on channel=0 note=61 velocity=0 time=0
note_on channel=0 note=76 velocity=46 time=0
note_on channel=0 note=64 velocity=34 time=0
<meta message set_tempo tempo=869565 time=240>
note_on channel=0 note=64 velocity=0 time=0
note_on channel=0 note=76 velocity=0 time=0
note_on channel=0 note=78 velocity=53 time=0
note_on channel=0 note=57 velocity=37 time=0
control_change channel=0 control=64 value=0 time=10
control_change channel=0 control=64 value=127 time=82
note_on channel=0 note=57 velocity=0 time=148
note_on channel=0 note=62 velocity=32 time=0
<meta message set_tempo tempo=1005530 time=240>
note_on channel=0 note=62 velocity=0 time=0
note_on channel=0 note=78 velocity=0 time=0
note_on channel=0 note=78 velocity=42 time=0
note_on channel=0 note=66 velocity=32 time=0
note_on channel=0 note=78 velocity=0 time=150
note_on channel=0 note=78 velocity=49 time=30
note_on channel=0 note=78 velocity=0 time=30
note_on channel=0 note=80 velocity=53 time=0
<meta message set_tempo tempo=909091 time=30>
note_on channel=0 note=80 velocity=0 time=0
note_on channel=0 note=66 velocity=0 time=0
<meta message text text='bdca426d104a26ac9dcb070447587523' time=0>
control_change channel=0 control=91 value=127 time=0
note_on channel=0 note=81 velocity=57 time=0
note_on channel=0 note=57 velocity=39 time=0
control_change channel=0 control=64 value=0 time=0
control_change channel=0 control=64 value=127 time=71
control_change channel=0 control=64 value=127 time=2
note_on channel=0 note=57 velocity=0 time=167
note_on channel=0 note=62 velocity=33 time=0
<meta message set_tempo tempo=852394 time=120>
note_on channel=0 note=81 velocity=0 time=0
note_on channel=0 note=80 velocity=47 time=0
<meta message set_tempo tempo=968210 time=120>
note_on channel=0 note=80 velocity=0 time=0
note_on channel=0 note=62 velocity=0 time=0
note_on channel=0 note=78 velocity=50 time=0
note_on channel=0 note=66 velocity=34 time=0
control_change channel=0 control=64 value=0 time=7
control_change channel=0 control=64 value=127 time=71
<meta message set_tempo tempo=901442 time=162>
note_on channel=0 note=66 velocity=0 time=0
note_on channel=0 note=78 velocity=0 time=0
note_on channel=0 note=78 velocity=53 time=0
note_on channel=0 note=57 velocity=37 time=0
control_change channel=0 control=64 value=0 time=14
control_change channel=0 control=64 value=127 time=78
<meta message set_tempo tempo=933562 time=148>
note_on channel=0 note=57 velocity=0 time=0
note_on channel=0 note=78 velocity=0 time=0
note_on channel=0 note=76 velocity=45 time=0
note_on channel=0 note=61 velocity=32 time=0
<meta message set_tempo tempo=1018503 time=240>
note_on channel=0 note=61 velocity=0 time=0
note_on channel=0 note=76 velocity=0 time=0
note_on channel=0 note=76 velocity=42 time=0
note_on channel=0 note=64 velocity=32 time=0
note_on channel=0 note=64 velocity=0 time=120
note_on channel=0 note=76 velocity=0 time=0
control_change channel=0 control=64 value=0 time=11
<meta message set_tempo tempo=845070 time=109>
note_on channel=0 note=76 velocity=59 time=0
note_on channel=0 note=57 velocity=51 time=0
note_on channel=0 note=61 velocity=51 time=0
control_change channel=0 control=64 value=127 time=71
<meta message set_tempo tempo=891133 time=169>
note_on channel=0 note=76 velocity=0 time=0
note_on channel=0 note=73 velocity=50 time=0
control_change channel=0 control=64 value=0 time=187
<meta message set_tempo tempo=944733 time=53>
note_on channel=0 note=73 velocity=0 time=0
note_on channel=0 note=61 velocity=0 time=0
note_on channel=0 note=57 velocity=0 time=0
note_on channel=0 note=69 velocity=49 time=0
note_on channel=0 note=69 velocity=0 time=60
<meta message set_tempo tempo=845070 time=180>
note_on channel=0 note=76 velocity=61 time=0
note_on channel=0 note=62 velocity=43 time=0
note_on channel=0 note=56 velocity=43 time=0
control_change channel=0 control=64 value=127 time=17
<meta message set_tempo tempo=891133 time=223>
note_on channel=0 note=76 velocity=0 time=0
note_on channel=0 note=74 velocity=53 time=0
control_change channel=0 control=64 value=0 time=223
<meta message set_tempo tempo=944733 time=17>
note_on channel=0 note=74 velocity=0 time=0
note_on channel=0 note=56 velocity=0 time=0
note_on channel=0 note=62 velocity=0 time=0
note_on channel=0 note=71 velocity=48 time=0
note_on channel=0 note=71 velocity=0 time=60
<meta message set_tempo tempo=845070 time=180>
note_on channel=0 note=76 velocity=62 time=0
note_on channel=0 note=57 velocity=50 time=0
note_on channel=0 note=61 velocity=50 time=0
control_change channel=0 control=64 value=127 time=0
<meta message set_tempo tempo=891133 time=240>
note_on channel=0 note=76 velocity=0 time=0
note_on channel=0 note=73 velocity=51 time=0
<meta message set_tempo tempo=992720 time=240>
note_on channel=0 note=73 velocity=0 time=0
note_on channel=0 note=61 velocity=0 time=0
note_on channel=0 note=57 velocity=0 time=0
note_on channel=0 note=69 velocity=45 time=0
note_on channel=0 note=63 velocity=48 time=0
note_on channel=0 note=54 velocity=48 time=0
control_change channel=0 control=64 value=0 time=131
note_on channel=0 note=54 velocity=0 time=89
note_on channel=0 note=63 velocity=0 time=0
note_on channel=0 note=69 velocity=0 time=0
<meta message set_tempo tempo=911854 time=20>
note_on channel=0 note=69 velocity=44 time=0
note_on channel=0 note=73 velocity=44 time=0
note_on channel=0 note=52 velocity=40 time=0
note_on channel=0 note=64 velocity=40 time=0
control_change channel=0 control=64 value=127 time=92
<meta message set_tempo tempo=1120239 time=388>
note_on channel=0 note=73 velocity=0 time=0
note_on channel=0 note=69 velocity=0 time=0
note_on channel=0 note=71 velocity=37 time=0
note_on channel=0 note=68 velocity=37 time=0
control_change channel=0 control=64 value=0 time=50
note_on channel=0 note=68 velocity=0 time=166
note_on channel=0 note=64 velocity=0 time=0
note_on channel=0 note=52 velocity=0 time=0
note_on channel=0 note=71 velocity=0 time=0
<meta message set_tempo tempo=944733 time=24>
<meta message text text='bdca426d104a26ac9dcb070447587523' time=0>
note_on channel=0 note=73 velocity=42 time=0
control_change channel=0 control=91 value=127 time=0
note_on channel=0 note=64 velocity=32 time=0
note_on channel=0 note=57 velocity=38 time=0
control_change channel=0 control=64 value=0 time=0
control_change channel=0 control=64 value=127 time=92
<meta message set_tempo tempo=852394 time=268>
note_on channel=0 note=57 velocity=0 time=0
note_on channel=0 note=73 velocity=0 time=0
note_on channel=0 note=74 velocity=36 time=0
note_on channel=0 note=59 velocity=29 time=0
<meta message set_tempo tempo=1018503 time=120>
note_on channel=0 note=59 velocity=0 time=0
note_on channel=0 note=74 velocity=0 time=0
note_on channel=0 note=64 velocity=0 time=0
note_on channel=0 note=73 velocity=36 time=0
note_on channel=0 note=64 velocity=24 time=0
note_on channel=0 note=57 velocity=29 time=0
control_change channel=0 control=64 value=0 time=9
control_change channel=0 control=64 value=127 time=62
<meta message set_tempo tempo=944733 time=169>
note_on channel=0 note=57 velocity=0 time=0
note_on channel=0 note=64 velocity=0 time=0
note_on channel=0 note=73 velocity=0 time=0
note_on channel=0 note=76 velocity=40 time=0
note_on channel=0 note=61 velocity=33 time=0
note_on channel=0 note=64 velocity=29 time=0
control_change channel=0 control=64 value=0 time=10
control_change channel=0 control=64 value=127 time=82
<meta message set_tempo tempo=1074306 time=388>
note_on channel=0 note=64 velocity=0 time=0
note_on channel=0 note=61 velocity=0 time=0
note_on channel=0 note=76 velocity=0 time=0
note_on channel=0 note=76 velocity=35 time=0
note_on channel=0 note=61 velocity=26 time=0
note_on channel=0 note=64 velocity=23 time=0
note_on channel=0 note=64 velocity=0 time=216
note_on channel=0 note=61 velocity=0 time=0
note_on channel=0 note=76 velocity=0 time=0
<meta message set_tempo tempo=922651 time=24>
note_on channel=0 note=71 velocity=42 time=0
control_change channel=0 control=91 value=127 time=0
<meta message text text='bdca426d104a26ac9dcb070447587523' time=0>
note_on channel=0 note=56 velocity=38 time=0
note_on channel=0 note=64 velocity=32 time=0
control_change channel=0 control=64 value=0 time=4
control_change channel=0 control=64 value=127 time=67
<meta message set_tempo tempo=852394 time=289>
note_on channel=0 note=56 velocity=0 time=0
note_on channel=0 note=71 velocity=0 time=0
note_on channel=0 note=73 velocity=38 time=0
note_on channel=0 note=57 velocity=32 time=0
<meta message set_tempo tempo=968210 time=120>
note_on channel=0 note=57 velocity=0 time=0
note_on channel=0 note=73 velocity=0 time=0
note_on channel=0 note=64 velocity=0 time=0
note_on channel=0 note=71 velocity=38 time=0
note_on channel=0 note=56 velocity=32 time=0
note_on channel=0 note=64 velocity=27 time=0
control_change channel=0 control=64 value=0 time=7
control_change channel=0 control=64 value=127 time=71
<meta message set_tempo tempo=911854 time=162>
note_on channel=0 note=64 velocity=0 time=0
note_on channel=0 note=56 velocity=0 time=0
note_on channel=0 note=71 velocity=0 time=0
note_on channel=0 note=74 velocity=41 time=0
note_on channel=0 note=59 velocity=34 time=0
note_on channel=0 note=64 velocity=30 time=0
control_change channel=0 control=64 value=0 time=12
control_change channel=0 control=64 value=127 time=108
<meta message set_tempo tempo=1005530 time=360>
note_on channel=0 note=64 velocity=0 time=0
note_on channel=0 note=59 velocity=0 time=0
note_on channel=0 note=74 velocity=0 time=0
note_on channel=0 note=74 velocity=38 time=0
note_on channel=0 note=59 velocity=26 time=0
note_on channel=0 note=64 velocity=23 time=0
note_on channel=0 note=64 velocity=0 time=216
note_on channel=0 note=59 velocity=0 time=0
note_on channel=0 note=74 velocity=0 time=0
<meta message set_tempo tempo=944733 time=24>
note_on channel=0 note=69 velocity=55 time=0
note_on channel=0 note=64 velocity=37 time=0
note_on channel=0 note=54 velocity=45 time=0
control_change channel=0 control=64 value=0 time=0
control_change channel=0 control=64 value=127 time=134
<meta message set_tempo tempo=1059696 time=346>
note_on channel=0 note=54 velocity=0 time=0
note_on channel=0 note=64 velocity=0 time=0
note_on channel=0 note=69 velocity=0 time=0
note_on channel=0 note=71 velocity=63 time=0
note_on channel=0 note=64 velocity=49 time=0
note_on channel=0 note=56 velocity=49 time=0
<meta message set_tempo tempo=944733 time=240>
note_on channel=0 note=56 velocity=0 time=0
note_on channel=0 note=64 velocity=0 time=0
note_on channel=0 note=71 velocity=0 time=0
note_on channel=0 note=73 velocity=68 time=0
note_on channel=0 note=64 velocity=55 time=0
note_on channel=0 note=57 velocity=55 time=0
control_change channel=0 control=64 value=0 time=10
control_change channel=0 control=64 value=127 time=164
<meta message set_tempo tempo=1104566 time=306>
note_on channel=0 note=57 velocity=0 time=0
note_on channel=0 note=64 velocity=0 time=0
note_on channel=0 note=73 velocity=0 time=0
note_on channel=0 note=74 velocity=67 time=0
note_on channel=0 note=71 velocity=56 time=0
note_on channel=0 note=66 velocity=56 time=0
note_on channel=0 note=50 velocity=55 time=0
control_change channel=0 control=64 value=0 time=10
control_change channel=0 control=64 value=127 time=71
<meta message set_tempo tempo=956480 time=159>
note_on channel=0 note=50 velocity=0 time=0
note_on channel=0 note=74 velocity=0 time=0
note_on channel=0 note=71 velocity=0 time=0
note_on channel=0 note=66 velocity=0 time=0
note_on channel=0 note=69 velocity=54 time=0
note_on channel=0 note=73 velocity=64 time=0
note_on channel=0 note=64 velocity=54 time=0
note_on channel=0 note=52 velocity=52 time=0
control_change channel=0 control=64 value=0 time=7
control_change channel=0 control=64 value=127 time=120
<meta message set_tempo tempo=1120239 time=353>
note_on channel=0 note=52 velocity=0 time=0
note_on channel=0 note=69 velocity=0 time=0
note_on channel=0 note=73 velocity=0 time=0
note_on channel=0 note=64 velocity=0 time=0
note_on channel=0 note=68 velocity=48 time=0
note_on channel=0 note=64 velocity=48 time=0
note_on channel=0 note=71 velocity=57 time=0
note_on channel=0 note=40 velocity=51 time=0
control_change channel=0 control=64 value=0 time=11
control_change channel=0 control=64 value=127 time=116
<meta message set_tempo tempo=1045661 time=113>
note_on channel=0 note=40 velocity=0 time=0
note_on channel=0 note=68 velocity=0 time=0
note_on channel=0 note=64 velocity=0 time=0
note_on channel=0 note=71 velocity=0 time=0
note_on channel=0 note=71 velocity=61 time=0
note_on channel=0 note=68 velocity=51 time=0
note_on channel=0 note=64 velocity=46 time=0
note_on channel=0 note=45 velocity=48 time=0
control_change channel=0 control=64 value=0 time=15
control_change channel=0 control=64 value=127 time=124
<meta message set_tempo tempo=1089127 time=341>
note_on channel=0 note=68 velocity=0 time=0
note_on channel=0 note=71 velocity=0 time=0
note_on channel=0 note=73 velocity=54 time=0
note_on channel=0 note=69 velocity=54 time=0
control_change channel=0 control=64 value=0 time=12
<meta message set_tempo tempo=1012317 time=228>
note_on channel=0 note=69 velocity=0 time=0
note_on channel=0 note=45 velocity=0 time=0
note_on channel=0 note=64 velocity=0 time=0
note_on channel=0 note=73 velocity=0 time=0
note_on channel=0 note=64 velocity=63 time=0
note_on channel=0 note=73 velocity=75 time=0
note_on channel=0 note=69 velocity=63 time=0
note_on channel=0 note=57 velocity=57 time=0
note_on channel=0 note=45 velocity=48 time=0
control_change channel=0 control=64 value=127 time=7
<meta message set_tempo tempo=1126549 time=473>
note_on channel=0 note=45 velocity=0 time=0
note_on channel=0 note=69 velocity=0 time=0
note_on channel=0 note=64 velocity=0 time=0
note_on channel=0 note=73 velocity=0 time=0
note_on channel=0 note=57 velocity=0 time=0
note_on channel=0 note=74 velocity=75 time=0
note_on channel=0 note=64 velocity=63 time=0
note_on channel=0 note=68 velocity=63 time=0
note_on channel=0 note=47 velocity=53 time=0
note_on channel=0 note=59 velocity=63 time=0
control_change channel=0 control=64 value=0 time=14
control_change channel=0 control=64 value=127 time=67
<meta message set_tempo tempo=1042572 time=159>
note_on channel=0 note=59 velocity=0 time=0
note_on channel=0 note=68 velocity=0 time=0
note_on channel=0 note=74 velocity=0 time=0
note_on channel=0 note=64 velocity=0 time=0
note_on channel=0 note=47 velocity=0 time=0
note_on channel=0 note=64 velocity=68 time=0
note_on channel=0 note=69 velocity=68 time=0
note_on channel=0 note=76 velocity=80 time=0
note_on channel=0 note=49 velocity=57 time=0
note_on channel=0 note=61 velocity=69 time=0
control_change channel=0 control=64 value=0 time=11
control_change channel=0 control=64 value=127 time=53
<meta message set_tempo tempo=1250000 time=176>
<meta message set_tempo tempo=1126549 time=240>
note_on channel=0 note=61 velocity=0 time=0
note_on channel=0 note=76 velocity=0 time=0
note_on channel=0 note=64 velocity=0 time=0
note_on channel=0 note=69 velocity=0 time=0
note_on channel=0 note=49 velocity=0 time=0
note_on channel=0 note=78 velocity=56 time=0
note_on channel=0 note=62 velocity=38 time=0
note_on channel=0 note=50 velocity=32 time=0
control_change channel=0 control=64 value=0 time=11
control_change channel=0 control=64 value=127 time=39
<meta message set_tempo tempo=1108647 time=70>
note_on channel=0 note=78 velocity=0 time=0
note_on channel=0 note=80 velocity=44 time=0
note_on channel=0 note=80 velocity=0 time=60
note_on channel=0 note=81 velocity=46 time=0
<meta message set_tempo tempo=1074691 time=60>
note_on channel=0 note=81 velocity=0 time=0
note_on channel=0 note=50 velocity=0 time=0
note_on channel=0 note=62 velocity=0 time=0
note_on channel=0 note=69 velocity=51 time=0
note_on channel=0 note=52 velocity=32 time=0
note_on channel=0 note=61 velocity=39 time=0
control_change channel=0 control=64 value=0 time=10
control_change channel=0 control=64 value=127 time=167
<meta message set_tempo tempo=1170732 time=63>
<meta message set_tempo tempo=1224490 time=240>
note_on channel=0 note=61 velocity=0 time=0
note_on channel=0 note=52 velocity=0 time=0
note_on channel=0 note=69 velocity=0 time=0
note_on channel=0 note=68 velocity=30 time=0
note_on channel=0 note=73 velocity=36 time=0
note_on channel=0 note=52 velocity=30 time=0
note_on channel=0 note=62 velocity=36 time=0
control_change channel=0 control=64 value=0 time=14
<meta message set_tempo tempo=1463415 time=106>
note_on channel=0 note=73 velocity=0 time=0
note_on channel=0 note=71 velocity=35 time=0
control_change channel=0 control=64 value=127 time=21
note_on channel=0 note=71 velocity=0 time=99
note_on channel=0 note=62 velocity=0 time=0
note_on channel=0 note=52 velocity=0 time=0
note_on channel=0 note=68 velocity=0 time=0
note_on channel=0 note=69 velocity=35 time=0
note_on channel=0 note=61 velocity=36 time=0
note_on channel=0 note=57 velocity=30 time=0
control_change channel=0 control=64 value=0 time=10
control_change channel=0 control=64 value=127 time=89
control_change channel=0 control=64 value=0 time=325
note_on channel=0 note=57 velocity=0 time=56
note_on channel=0 note=61 velocity=0 time=0
note_on channel=0 note=69 velocity=0 time=0
<meta message set_tempo tempo=810811 time=240>
<meta message set_tempo tempo=697674 time=1440>
<meta message marker text='Var I' time=0>
note_on channel=0 note=72 velocity=50 time=0
<meta message set_tempo tempo=750000 time=120>
note_on channel=0 note=72 velocity=0 time=0
note_on channel=0 note=73 velocity=46 time=0
note_on channel=0 note=73 velocity=0 time=96
<meta message set_tempo tempo=701836 time=24>
note_on channel=0 note=64 velocity=39 time=0
note_on channel=0 note=57 velocity=30 time=0
note_on channel=0 note=57 velocity=0 time=90
note_on channel=0 note=64 velocity=0 time=0
<meta message set_tempo tempo=714286 time=30>
note_on channel=0 note=73 velocity=45 time=0
note_on channel=0 note=73 velocity=0 time=120
note_on channel=0 note=72 velocity=45 time=0
<meta message set_tempo tempo=759494 time=120>
note_on channel=0 note=72 velocity=0 time=0
note_on channel=0 note=73 velocity=46 time=0
<meta message set_tempo tempo=681818 time=120>
note_on channel=0 note=73 velocity=0 time=0
note_on channel=0 note=75 velocity=50 time=0
<meta message set_tempo tempo=731707 time=120>
note_on channel=0 note=75 velocity=0 time=0
note_on channel=0 note=76 velocity=46 time=0
note_on channel=0 note=76 velocity=0 time=96
<meta message set_tempo tempo=685793 time=24>
note_on channel=0 note=61 velocity=30 time=0
note_on channel=0 note=64 velocity=39 time=0
note_on channel=0 note=64 velocity=0 time=90
note_on channel=0 note=61 velocity=0 time=0
<meta message set_tempo tempo=714286 time=30>
note_on channel=0 note=76 velocity=47 time=0
<meta message set_tempo tempo=714286 time=120>
note_on channel=0 note=76 velocity=0 time=0
note_on channel=0 note=78 velocity=50 time=0
<meta message set_tempo tempo=705882 time=120>
note_on channel=0 note=78 velocity=0 time=0
note_on channel=0 note=76 velocity=48 time=0
<meta message set_tempo tempo=681818 time=120>
note_on channel=0 note=76 velocity=0 time=0
note_on channel=0 note=76 velocity=50 time=0
<meta message set_tempo tempo=727361 time=120>
note_on channel=0 note=76 velocity=0 time=0
note_on channel=0 note=71 velocity=47 time=0
note_on channel=0 note=71 velocity=0 time=96
<meta message set_tempo tempo=759494 time=24>
note_on channel=0 note=56 velocity=30 time=0
note_on channel=0 note=64 velocity=39 time=0
note_on channel=0 note=64 velocity=0 time=90
note_on channel=0 note=56 velocity=0 time=0
<meta message set_tempo tempo=693722 time=30>
note_on channel=0 note=71 velocity=48 time=0
<meta message set_tempo tempo=705882 time=120>
note_on channel=0 note=71 velocity=0 time=0
note_on channel=0 note=70 velocity=49 time=0
<meta message set_tempo tempo=705882 time=120>
note_on channel=0 note=70 velocity=0 time=0
note_on channel=0 note=71 velocity=50 time=0
<meta message set_tempo tempo=714286 time=120>
note_on channel=0 note=71 velocity=0 time=0
note_on channel=0 note=73 velocity=51 time=0
<meta message set_tempo tempo=722892 time=120>
note_on channel=0 note=73 velocity=0 time=0
note_on channel=0 note=74 velocity=48 time=0
note_on channel=0 note=74 velocity=0 time=96
<meta message set_tempo tempo=693722 time=24>
note_on channel=0 note=59 velocity=30 time=0
note_on channel=0 note=64 velocity=39 time=0
note_on channel=0 note=64 velocity=0 time=90
note_on channel=0 note=59 velocity=0 time=0
<meta message set_tempo tempo=714286 time=30>
note_on channel=0 note=74 velocity=49 time=0
note_on channel=0 note=74 velocity=0 time=120
note_on channel=0 note=76 velocity=52 time=0
<meta message set_tempo tempo=722892 time=120>
note_on channel=0 note=76 velocity=0 time=0
note_on channel=0 note=74 velocity=50 time=0
note_on channel=0 note=74 velocity=0 time=90
<meta message set_tempo tempo=674157 time=30>
note_on channel=0 note=74 velocity=53 time=0
<meta message set_tempo tempo=769231 time=120>
note_on channel=0 note=74 velocity=0 time=0
note_on channel=0 note=69 velocity=47 time=0
note_on channel=0 note=69 velocity=0 time=96
<meta message set_tempo tempo=701836 time=24>
note_on channel=0 note=54 velocity=34 time=0
note_on channel=0 note=64 velocity=45 time=0
note_on channel=0 note=64 velocity=0 time=90
note_on channel=0 note=54 velocity=0 time=0
<meta message set_tempo tempo=714286 time=30>
note_on channel=0 note=69 velocity=51 time=0
note_on channel=0 note=69 velocity=0 time=120
note_on channel=0 note=68 velocity=52 time=0
<meta message set_tempo tempo=759494 time=120>
note_on channel=0 note=68 velocity=0 time=0
note_on channel=0 note=69 velocity=52 time=0
<meta message set_tempo tempo=681818 time=120>
note_on channel=0 note=69 velocity=0 time=0
note_on channel=0 note=70 velocity=57 time=0
<meta message set_tempo tempo=740741 time=120>
note_on channel=0 note=70 velocity=0 time=0
note_on channel=0 note=71 velocity=50 time=0
note_on channel=0 note=71 velocity=0 time=96
note_on channel=0 note=64 velocity=46 time=24
note_on channel=0 note=56 velocity=35 time=0
note_on channel=0 note=56 velocity=0 time=90
note_on channel=0 note=64 velocity=0 time=0
<meta message set_tempo tempo=697674 time=30>
note_on channel=0 note=71 velocity=52 time=0
note_on channel=0 note=71 velocity=0 time=120
note_on channel=0 note=70 velocity=52 time=0
<meta message set_tempo tempo=714286 time=120>
note_on channel=0 note=70 velocity=0 time=0
note_on channel=0 note=71 velocity=52 time=0
<meta message set_tempo tempo=731707 time=120>
note_on channel=0 note=71 velocity=0 time=0
note_on channel=0 note=72 velocity=61 time=0
note_on channel=0 note=64 velocity=42 time=0
note_on channel=0 note=57 velocity=33 time=0
control_change channel=0 control=64 value=127 time=46
note_on channel=0 note=72 velocity=0 time=74
note_on channel=0 note=73 velocity=56 time=0
<meta message set_tempo tempo=789474 time=120>
note_on channel=0 note=73 velocity=0 time=0
note_on channel=0 note=72 velocity=62 time=0
<meta message set_tempo tempo=697674 time=120>
note_on channel=0 note=72 velocity=0 time=0
note_on channel=0 note=73 velocity=54 time=0
<meta message set_tempo tempo=705882 time=120>
note_on channel=0 note=73 velocity=0 time=0
note_on channel=0 note=57 velocity=0 time=0
note_on channel=0 note=64 velocity=0 time=0
note_on channel=0 note=76 velocity=62 time=0
note_on channel=0 note=54 velocity=39 time=0
note_on channel=0 note=50 velocity=33 time=0
control_change channel=0 control=64 value=0 time=8
<meta message set_tempo tempo=697674 time=22>
control_change channel=0 control=64 value=127 time=45
<meta message set_tempo tempo=705882 time=35>
note_on channel=0 note=76 velocity=0 time=10
note_on channel=0 note=74 velocity=53 time=0
<meta message set_tempo tempo=714286 time=70>
note_on channel=0 note=74 velocity=0 time=50
note_on channel=0 note=50 velocity=0 time=0
note_on channel=0 note=54 velocity=0 time=0
note_on channel=0 note=73 velocity=56 time=0
note_on channel=0 note=52 velocity=33 time=0
note_on channel=0 note=56 velocity=42 time=0
control_change channel=0 control=64 value=0 time=7
<meta message set_tempo tempo=722892 time=3>
control_change channel=0 control=64 value=127 time=76
note_on channel=0 note=73 velocity=0 time=34
note_on channel=0 note=71 velocity=58 time=0
note_on channel=0 note=71 velocity=0 time=120
note_on channel=0 note=69 velocity=61 time=0
note_on channel=0 note=69 velocity=0 time=120
note_on channel=0 note=68 velocity=64 time=0
note_on channel=0 note=68 velocity=0 time=120
note_on channel=0 note=56 velocity=0 time=0
note_on channel=0 note=52 velocity=0 time=0
note_on channel=0 note=66 velocity=66 time=0
<meta message set_tempo tempo=789474 time=120>
note_on channel=0 note=66 velocity=0 time=0
note_on channel=0 note=64 velocity=69 time=0
<meta message set_tempo tempo=722892 time=120>
note_on channel=0 note=64 velocity=0 time=0
note_on channel=0 note=73 velocity=77 time=0
note_on channel=0 note=69 velocity=64 time=0
note_on channel=0 note=64 velocity=64 time=0
note_on channel=0 note=45 velocity=65 time=0
control_change channel=0 control=64 value=0 time=6
control_change channel=0 control=64 value=127 time=65
note_on channel=0 note=45 velocity=0 time=49
note_on channel=0 note=57 velocity=59 time=0
note_on channel=0 note=57 velocity=0 time=90
note_on channel=0 note=57 velocity=59 time=30
note_on channel=0 note=57 velocity=0 time=90
note_on channel=0 note=57 velocity=59 time=30
note_on channel=0 note=57 velocity=0 time=90
note_on channel=0 note=64 velocity=0 time=30
note_on channel=0 note=69 velocity=0 time=0
note_on channel=0 note=73 velocity=0 time=0
note_on channel=0 note=74 velocity=77 time=0
note_on channel=0 note=71 velocity=64 time=0
note_on channel=0 note=57 velocity=59 time=0
note_on channel=0 note=57 velocity=0 time=90
<meta message set_tempo tempo=779221 time=30>
note_on channel=0 note=57 velocity=59 time=0
note_on channel=0 note=57 velocity=0 time=90
<meta message set_tempo tempo=722892 time=30>
note_on channel=0 note=71 velocity=0 time=0
note_on channel=0 note=74 velocity=0 time=0
note_on channel=0 note=75 velocity=82 time=0
note_on channel=0 note=72 velocity=69 time=0
note_on channel=0 note=45 velocity=65 time=0
control_change channel=0 control=64 value=0 time=12
control_change channel=0 control=64 value=127 time=66
note_on channel=0 note=45 velocity=0 time=42
note_on channel=0 note=57 velocity=59 time=0
note_on channel=0 note=57 velocity=0 time=90
note_on channel=0 note=72 velocity=0 time=30
note_on channel=0 note=75 velocity=0 time=0
note_on channel=0 note=73 velocity=66 time=0
note_on channel=0 note=76 velocity=78 time=0
note_on channel=0 note=57 velocity=59 time=0
note_on channel=0 note=57 velocity=0 time=90
note_on channel=0 note=57 velocity=58 time=30
note_on channel=0 note=57 velocity=0 time=90
note_on channel=0 note=76 velocity=0 time=30
note_on channel=0 note=73 velocity=0 time=0
note_on channel=0 note=57 velocity=58 time=0
note_on channel=0 note=57 velocity=0 time=90
note_on channel=0 note=73 velocity=77 time=30
note_on channel=0 note=69 velocity=64 time=0
note_on channel=0 note=57 velocity=58 time=0
note_on channel=0 note=57 velocity=0 time=90
<meta message set_tempo tempo=722892 time=30>
note_on channel=0 note=69 velocity=0 time=0
note_on channel=0 note=73 velocity=0 time=0
note_on channel=0 note=64 velocity=69 time=0
note_on channel=0 note=71 velocity=82 time=0
note_on channel=0 note=68 velocity=69 time=0
note_on channel=0 note=40 velocity=65 time=0
control_change channel=0 control=64 value=0 time=3
control_change channel=0 control=64 value=127 time=75
note_on channel=0 note=40 velocity=0 time=42
note_on channel=0 note=52 velocity=57 time=0
note_on channel=0 note=52 velocity=0 time=90
note_on channel=0 note=68 velocity=0 time=30
note_on channel=0 note=71 velocity=0 time=0
note_on channel=0 note=64 velocity=0 time=0
note_on channel=0 note=71 velocity=77 time=0
note_on channel=0 note=64 velocity=64 time=0
note_on channel=0 note=68 velocity=64 time=0
note_on channel=0 note=52 velocity=57 time=0
note_on channel=0 note=52 velocity=0 time=90
note_on channel=0 note=52 velocity=57 time=30
note_on channel=0 note=52 velocity=0 time=90
<meta message set_tempo tempo=759494 time=30>
note_on channel=0 note=68 velocity=0 time=0
note_on channel=0 note=64 velocity=0 time=0
note_on channel=0 note=71 velocity=0 time=0
note_on channel=0 note=69 velocity=68 time=0
note_on channel=0 note=73 velocity=80 time=0
note_on channel=0 note=64 velocity=68 time=0
note_on channel=0 note=52 velocity=57 time=0
note_on channel=0 note=52 velocity=0 time=90
note_on channel=0 note=52 velocity=57 time=30
note_on channel=0 note=52 velocity=0 time=90
<meta message set_tempo tempo=714286 time=30>
note_on channel=0 note=64 velocity=0 time=0
note_on channel=0 note=73 velocity=0 time=0
note_on channel=0 note=69 velocity=0 time=0
note_on channel=0 note=70 velocity=69 time=0
note_on channel=0 note=73 velocity=82 time=0
note_on channel=0 note=64 velocity=69 time=0
note_on channel=0 note=40 velocity=65 time=0
control_change channel=0 control=64 value=0 time=10
note_on channel=0 note=40 velocity=0 time=110
note_on channel=0 note=52 velocity=58 time=0
control_change channel=0 control=64 value=127 time=7
note_on channel=0 note=52 velocity=0 time=83
note_on channel=0 note=73 velocity=0 time=30
note_on channel=0 note=70 velocity=0 time=0
note_on channel=0 note=71 velocity=68 time=0
note_on channel=0 note=74 velocity=80 time=0
note_on channel=0 note=52 velocity=58 time=0
note_on channel=0 note=52 velocity=0 time=90
note_on channel=0 note=52 velocity=58 time=30
note_on channel=0 note=52 velocity=0 time=90
<meta message set_tempo tempo=740741 time=30>
note_on channel=0 note=74 velocity=0 time=0
note_on channel=0 note=71 velocity=0 time=0
note_on channel=0 note=64 velocity=0 time=0
note_on channel=0 note=52 velocity=58 time=0
control_change channel=0 control=64 value=0 time=14
note_on channel=0 note=52 velocity=0 time=76
note_on channel=0 note=68 velocity=59 time=30
note_on channel=0 note=71 velocity=70 time=0
note_on channel=0 note=52 velocity=58 time=0
note_on channel=0 note=52 velocity=0 time=90
<meta message set_tempo tempo=705882 time=30>
note_on channel=0 note=71 velocity=0 time=0
note_on channel=0 note=68 velocity=0 time=0
note_on channel=0 note=69 velocity=76 time=0
note_on channel=0 note=42 velocity=65 time=0
control_change channel=0 control=64 value=127 time=35
note_on channel=0 note=42 velocity=0 time=85
note_on channel=0 note=69 velocity=0 time=0
note_on channel=0 note=54 velocity=57 time=0
note_on channel=0 note=54 velocity=0 time=90
note_on channel=0 note=69 velocity=70 time=30
note_on channel=0 note=54 velocity=57 time=0
note_on channel=0 note=54 velocity=0 time=90
<meta message set_tempo tempo=731707 time=30>
note_on channel=0 note=69 velocity=0 time=0
note_on channel=0 note=54 velocity=57 time=0
note_on channel=0 note=54 velocity=0 time=90
<meta message set_tempo tempo=705882 time=30>
note_on channel=0 note=71 velocity=70 time=0
note_on channel=0 note=44 velocity=65 time=0
control_change channel=0 control=64 value=0 time=12
note_on channel=0 note=71 velocity=0 time=28
note_on channel=0 note=73 velocity=68 time=0
control_change channel=0 control=64 value=127 time=3
note_on channel=0 note=73 velocity=0 time=37
note_on channel=0 note=71 velocity=68 time=0
note_on channel=0 note=71 velocity=0 time=40
note_on channel=0 note=44 velocity=0 time=0
note_on channel=0 note=69 velocity=70 time=0
note_on channel=0 note=56 velocity=57 time=0
note_on channel=0 note=69 velocity=0 time=60
note_on channel=0 note=71 velocity=70 time=0
note_on channel=0 note=71 velocity=0 time=60
note_on channel=0 note=56 velocity=0 time=0
note_on channel=0 note=73 velocity=77 time=0
note_on channel=0 note=45 velocity=65 time=0
control_change channel=0 control=64 value=0 time=9
control_change channel=0 control=64 value=127 time=73
note_on channel=0 note=45 velocity=0 time=38
note_on channel=0 note=73 velocity=0 time=0
note_on channel=0 note=57 velocity=58 time=0
note_on channel=0 note=57 velocity=0 time=90
<meta message set_tempo tempo=740741 time=30>
note_on channel=0 note=73 velocity=70 time=0
note_on channel=0 note=57 velocity=58 time=0
note_on channel=0 note=57 velocity=0 time=90
note_on channel=0 note=73 velocity=0 time=30
note_on channel=0 note=57 velocity=59 time=0
note_on channel=0 note=57 velocity=0 time=90
<meta message set_tempo tempo=705882 time=30>
note_on channel=0 note=71 velocity=62 time=0
note_on channel=0 note=66 velocity=62 time=0
note_on channel=0 note=74 velocity=73 time=0
note_on channel=0 note=38 velocity=65 time=0
control_change channel=0 control=64 value=0 time=10
control_change channel=0 control=64 value=127 time=31
note_on channel=0 note=38 velocity=0 time=79
note_on channel=0 note=50 velocity=59 time=0
note_on channel=0 note=50 velocity=0 time=120
note_on channel=0 note=74 velocity=0 time=0
note_on channel=0 note=66 velocity=0 time=0
note_on channel=0 note=71 velocity=0 time=0
note_on channel=0 note=69 velocity=64 time=0
note_on channel=0 note=64 velocity=64 time=0
note_on channel=0 note=73 velocity=76 time=0
note_on channel=0 note=40 velocity=65 time=0
control_change channel=0 control=64 value=0 time=4
control_change channel=0 control=64 value=127 time=81
note_on channel=0 note=40 velocity=0 time=35
note_on channel=0 note=52 velocity=58 time=0
note_on channel=0 note=52 velocity=0 time=90
<meta message set_tempo tempo=750000 time=30>
note_on channel=0 note=73 velocity=0 time=0
note_on channel=0 note=64 velocity=0 time=0
note_on channel=0 note=69 velocity=0 time=0
note_on channel=0 note=69 velocity=62 time=0
note_on channel=0 note=73 velocity=74 time=0
note_on channel=0 note=64 velocity=62 time=0
note_on channel=0 note=52 velocity=58 time=0
note_on channel=0 note=52 velocity=0 time=90
note_on channel=0 note=52 velocity=58 time=30
note_on channel=0 note=52 velocity=0 time=90
note_on channel=0 note=64 velocity=0 time=30
note_on channel=0 note=73 velocity=0 time=0
note_on channel=0 note=69 velocity=0 time=0
note_on channel=0 note=71 velocity=72 time=0
note_on channel=0 note=62 velocity=61 time=0
note_on channel=0 note=68 velocity=61 time=0
note_on channel=0 note=64 velocity=61 time=0
note_on channel=0 note=40 velocity=65 time=0
control_change channel=0 control=64 value=0 time=9
control_change channel=0 control=64 value=127 time=76
note_on channel=0 note=40 velocity=0 time=35
note_on channel=0 note=52 velocity=56 time=0
note_on channel=0 note=52 velocity=0 time=120
note_on channel=0 note=64 velocity=0 time=0
note_on channel=0 note=71 velocity=0 time=0
note_on channel=0 note=62 velocity=0 time=0
note_on channel=0 note=68 velocity=0 time=0
note_on channel=0 note=69 velocity=76 time=0
note_on channel=0 note=61 velocity=64 time=0
note_on channel=0 note=64 velocity=64 time=0
note_on channel=0 note=33 velocity=75 time=0
control_change channel=0 control=64 value=0 time=21
control_change channel=0 control=64 value=127 time=92
note_on channel=0 note=33 velocity=0 time=127
note_on channel=0 note=69 velocity=0 time=0
note_on channel=0 note=61 velocity=0 time=0
note_on channel=0 note=64 velocity=0 time=0
note_on channel=0 note=45 velocity=67 time=0
control_change channel=0 control=64 value=0 time=36
note_on channel=0 note=45 velocity=0 time=204
<meta message set_tempo tempo=697674 time=240>
note_on channel=0 note=72 velocity=50 time=0
<meta message set_tempo tempo=705882 time=120>
note_on channel=0 note=72 velocity=0 time=0
note_on channel=0 note=73 velocity=46 time=0
note_on channel=0 note=73 velocity=0 time=96
<meta message set_tempo tempo=722892 time=24>
note_on channel=0 note=57 velocity=30 time=0
note_on channel=0 note=64 velocity=39 time=0
note_on channel=0 note=64 velocity=0 time=90
note_on channel=0 note=57 velocity=0 time=0
<meta message set_tempo tempo=714286 time=30>
note_on channel=0 note=73 velocity=45 time=0
note_on channel=0 note=73 velocity=0 time=120
note_on channel=0 note=72 velocity=45 time=0
<meta message set_tempo tempo=722892 time=120>
note_on channel=0 note=72 velocity=0 time=0
note_on channel=0 note=73 velocity=46 time=0
<meta message set_tempo tempo=740741 time=120>
note_on channel=0 note=73 velocity=0 time=0
note_on channel=0 note=75 velocity=50 time=0
<meta message set_tempo tempo=731707 time=120>
note_on channel=0 note=75 velocity=0 time=0
note_on channel=0 note=76 velocity=46 time=0
note_on channel=0 note=76 velocity=0 time=96
<meta message set_tempo tempo=693722 time=24>
note_on channel=0 note=61 velocity=30 time=0
note_on channel=0 note=64 velocity=39 time=0
note_on channel=0 note=64 velocity=0 time=90
note_on channel=0 note=61 velocity=0 time=0
<meta message set_tempo tempo=714286 time=30>
note_on channel=0 note=76 velocity=47 time=0
<meta message set_tempo tempo=714286 time=120>
note_on channel=0 note=76 velocity=0 time=0
note_on channel=0 note=78 velocity=50 time=0
<meta message set_tempo tempo=740741 time=120>
note_on channel=0 note=78 velocity=0 time=0
note_on channel=0 note=76 velocity=48 time=0
<meta message set_tempo tempo=681818 time=120>
note_on channel=0 note=76 velocity=0 time=0
note_on channel=0 note=76 velocity=50 time=0
<meta message set_tempo tempo=740741 time=120>
note_on channel=0 note=76 velocity=0 time=0
note_on channel=0 note=71 velocity=47 time=0
note_on channel=0 note=71 velocity=0 time=96
<meta message set_tempo tempo=722892 time=24>
note_on channel=0 note=56 velocity=30 time=0
note_on channel=0 note=64 velocity=39 time=0
note_on channel=0 note=64 velocity=0 time=90
note_on channel=0 note=56 velocity=0 time=0
<meta message set_tempo tempo=722892 time=30>
note_on channel=0 note=71 velocity=48 time=0
<meta message set_tempo tempo=705882 time=120>
note_on channel=0 note=71 velocity=0 time=0
note_on channel=0 note=70 velocity=49 time=0
<meta message set_tempo tempo=731707 time=120>
note_on channel=0 note=70 velocity=0 time=0
note_on channel=0 note=71 velocity=50 time=0
<meta message set_tempo tempo=750000 time=120>
note_on channel=0 note=71 velocity=0 time=0
note_on channel=0 note=73 velocity=51 time=0
<meta message set_tempo tempo=759494 time=120>
note_on channel=0 note=73 velocity=0 time=0
note_on channel=0 note=74 velocity=48 time=0
note_on channel=0 note=74 velocity=0 time=96
<meta message set_tempo tempo=685793 time=24>
note_on channel=0 note=59 velocity=30 time=0
note_on channel=0 note=64 velocity=39 time=0
note_on channel=0 note=64 velocity=0 time=90
note_on channel=0 note=59 velocity=0 time=0
<meta message set_tempo tempo=714286 time=30>
note_on channel=0 note=74 velocity=49 time=0
note_on channel=0 note=74 velocity=0 time=120
note_on channel=0 note=76 velocity=52 time=0
<meta message set_tempo tempo=722892 time=120>
note_on channel=0 note=76 velocity=0 time=0
note_on channel=0 note=74 velocity=50 time=0
note_on channel=0 note=74 velocity=0 time=90
<meta message set_tempo tempo=705882 time=30>
note_on channel=0 note=74 velocity=53 time=0
<meta message set_tempo tempo=769231 time=120>
note_on channel=0 note=74 velocity=0 time=0
note_on channel=0 note=69 velocity=47 time=0
note_on channel=0 note=69 velocity=0 time=96
<meta message set_tempo tempo=693722 time=24>
note_on channel=0 note=54 velocity=34 time=0
note_on channel=0 note=64 velocity=45 time=0
note_on channel=0 note=64 velocity=0 time=90
note_on channel=0 note=54 velocity=0 time=0
<meta message set_tempo tempo=714286 time=30>
note_on channel=0 note=69 velocity=51 time=0
note_on channel=0 note=69 velocity=0 time=120
note_on channel=0 note=68 velocity=52 time=0
<meta message set_tempo tempo=750000 time=120>
note_on channel=0 note=68 velocity=0 time=0
note_on channel=0 note=69 velocity=52 time=0
<meta message set_tempo tempo=681818 time=120>
note_on channel=0 note=69 velocity=0 time=0
note_on channel=0 note=70 velocity=57 time=0
<meta message set_tempo tempo=740741 time=120>
note_on channel=0 note=70 velocity=0 time=0
note_on channel=0 note=71 velocity=50 time=0
note_on channel=0 note=71 velocity=0 time=96
<meta message set_tempo tempo=685793 time=24>
note_on channel=0 note=64 velocity=46 time=0
note_on channel=0 note=56 velocity=35 time=0
note_on channel=0 note=56 velocity=0 time=90
note_on channel=0 note=64 velocity=0 time=0
<meta message set_tempo tempo=697674 time=30>
note_on channel=0 note=71 velocity=52 time=0
note_on channel=0 note=71 velocity=0 time=120
note_on channel=0 note=70 velocity=52 time=0
<meta message set_tempo tempo=722892 time=120>
note_on channel=0 note=70 velocity=0 time=0
note_on channel=0 note=71 velocity=52 time=0
<meta message set_tempo tempo=731707 time=120>
note_on channel=0 note=71 velocity=0 time=0
note_on channel=0 note=72 velocity=61 time=0
note_on channel=0 note=64 velocity=42 time=0
note_on channel=0 note=57 velocity=33 time=0
control_change channel=0 control=64 value=127 time=23
note_on channel=0 note=72 velocity=0 time=97
note_on channel=0 note=73 velocity=56 time=0
<meta message set_tempo tempo=779221 time=120>
note_on channel=0 note=73 velocity=0 time=0
note_on channel=0 note=72 velocity=62 time=0
<meta message set_tempo tempo=697674 time=120>
note_on channel=0 note=72 velocity=0 time=0
note_on channel=0 note=73 velocity=54 time=0
<meta message set_tempo tempo=705882 time=120>
note_on channel=0 note=73 velocity=0 time=0
note_on channel=0 note=57 velocity=0 time=0
note_on channel=0 note=64 velocity=0 time=0
note_on channel=0 note=76 velocity=62 time=0
note_on channel=0 note=54 velocity=39 time=0
note_on channel=0 note=50 velocity=33 time=0
control_change channel=0 control=64 value=0 time=6
<meta message set_tempo tempo=697674 time=24>
control_change channel=0 control=64 value=127 time=62
<meta message set_tempo tempo=705882 time=18>
note_on channel=0 note=76 velocity=0 time=10
note_on channel=0 note=74 velocity=53 time=0
<meta message set_tempo tempo=714286 time=70>
note_on channel=0 note=74 velocity=0 time=50
note_on channel=0 note=50 velocity=0 time=0
note_on channel=0 note=54 velocity=0 time=0
note_on channel=0 note=73 velocity=56 time=0
note_on channel=0 note=56 velocity=42 time=0
note_on channel=0 note=52 velocity=33 time=0
control_change channel=0 control=64 value=0 time=7
<meta message set_tempo tempo=722892 time=3>
control_change channel=0 control=64 value=127 time=76
note_on channel=0 note=73 velocity=0 time=34
note_on channel=0 note=71 velocity=58 time=0
note_on channel=0 note=71 velocity=0 time=120
note_on channel=0 note=69 velocity=61 time=0
note_on channel=0 note=69 velocity=0 time=120
note_on channel=0 note=68 velocity=64 time=0
note_on channel=0 note=68 velocity=0 time=120
note_on channel=0 note=52 velocity=0 time=0
note_on channel=0 note=56 velocity=0 time=0
note_on channel=0 note=66 velocity=66 time=0
<meta message set_tempo tempo=789474 time=120>
note_on channel=0 note=66 velocity=0 time=0
note_on channel=0 note=64 velocity=69 time=0
<meta message set_tempo tempo=722892 time=120>
note_on channel=0 note=64 velocity=0 time=0
note_on channel=0 note=64 velocity=64 time=0
note_on channel=0 note=73 velocity=77 time=0
note_on channel=0 note=69 velocity=64 time=0
note_on channel=0 note=45 velocity=65 time=0
control_change channel=0 control=64 value=0 time=3
control_change channel=0 control=64 value=127 time=68
note_on channel=0 note=45 velocity=0 time=49
note_on channel=0 note=57 velocity=59 time=0
note_on channel=0 note=57 velocity=0 time=90
note_on channel=0 note=57 velocity=59 time=30
note_on channel=0 note=57 velocity=0 time=90
note_on channel=0 note=57 velocity=59 time=30
note_on channel=0 note=57 velocity=0 time=90
note_on channel=0 note=69 velocity=0 time=30
note_on channel=0 note=73 velocity=0 time=0
note_on channel=0 note=64 velocity=0 time=0
note_on channel=0 note=71 velocity=64 time=0
note_on channel=0 note=74 velocity=77 time=0
note_on channel=0 note=57 velocity=59 time=0
note_on channel=0 note=57 velocity=0 time=90
<meta message set_tempo tempo=779221 time=30>
note_on channel=0 note=57 velocity=59 time=0
note_on channel=0 note=57 velocity=0 time=90
<meta message set_tempo tempo=722892 time=30>
note_on channel=0 note=74 velocity=0 time=0
note_on channel=0 note=71 velocity=0 time=0
note_on channel=0 note=75 velocity=82 time=0
note_on channel=0 note=72 velocity=69 time=0
note_on channel=0 note=45 velocity=65 time=0
control_change channel=0 control=64 value=0 time=11
control_change channel=0 control=64 value=127 time=67
note_on channel=0 note=45 velocity=0 time=42
note_on channel=0 note=57 velocity=59 time=0
note_on channel=0 note=57 velocity=0 time=90
note_on channel=0 note=72 velocity=0 time=30
note_on channel=0 note=75 velocity=0 time=0
note_on channel=0 note=73 velocity=66 time=0
note_on channel=0 note=76 velocity=78 time=0
note_on channel=0 note=57 velocity=59 time=0
note_on channel=0 note=57 velocity=0 time=90
note_on channel=0 note=57 velocity=58 time=30
note_on channel=0 note=57 velocity=0 time=90
note_on channel=0 note=76 velocity=0 time=30
note_on channel=0 note=73 velocity=0 time=0
note_on channel=0 note=57 velocity=58 time=0
note_on channel=0 note=57 velocity=0 time=90
note_on channel=0 note=69 velocity=64 time=30
note_on channel=0 note=73 velocity=77 time=0
note_on channel=0 note=57 velocity=58 time=0
note_on channel=0 note=57 velocity=0 time=90
<meta message set_tempo tempo=722892 time=30>
note_on channel=0 note=73 velocity=0 time=0
note_on channel=0 note=69 velocity=0 time=0
note_on channel=0 note=68 velocity=69 time=0
note_on channel=0 note=71 velocity=82 time=0
note_on channel=0 note=64 velocity=69 time=0
note_on channel=0 note=40 velocity=65 time=0
control_change channel=0 control=64 value=0 time=3
control_change channel=0 control=64 value=127 time=75
note_on channel=0 note=40 velocity=0 time=42
note_on channel=0 note=52 velocity=57 time=0
note_on channel=0 note=52 velocity=0 time=90
note_on channel=0 note=64 velocity=0 time=30
note_on channel=0 note=71 velocity=0 time=0
note_on channel=0 note=68 velocity=0 time=0
note_on channel=0 note=71 velocity=77 time=0
note_on channel=0 note=64 velocity=64 time=0
note_on channel=0 note=68 velocity=64 time=0
note_on channel=0 note=52 velocity=57 time=0
note_on channel=0 note=52 velocity=0 time=90
note_on channel=0 note=52 velocity=57 time=30
note_on channel=0 note=52 velocity=0 time=90
<meta message set_tempo tempo=759494 time=30>
note_on channel=0 note=68 velocity=0 time=0
note_on channel=0 note=64 velocity=0 time=0
note_on channel=0 note=71 velocity=0 time=0
note_on channel=0 note=64 velocity=68 time=0
note_on channel=0 note=69 velocity=68 time=0
note_on channel=0 note=73 velocity=80 time=0
note_on channel=0 note=52 velocity=57 time=0
note_on channel=0 note=52 velocity=0 time=90
note_on channel=0 note=52 velocity=57 time=30
note_on channel=0 note=52 velocity=0 time=90
<meta message set_tempo tempo=714286 time=30>
note_on channel=0 note=73 velocity=0 time=0
note_on channel=0 note=69 velocity=0 time=0
note_on channel=0 note=64 velocity=0 time=0
note_on channel=0 note=64 velocity=69 time=0
note_on channel=0 note=73 velocity=82 time=0
note_on channel=0 note=70 velocity=69 time=0
note_on channel=0 note=40 velocity=65 time=0
control_change channel=0 control=64 value=0 time=10
note_on channel=0 note=40 velocity=0 time=110
note_on channel=0 note=52 velocity=58 time=0
control_change channel=0 control=64 value=127 time=7
note_on channel=0 note=52 velocity=0 time=83
note_on channel=0 note=70 velocity=0 time=30
note_on channel=0 note=73 velocity=0 time=0
note_on channel=0 note=74 velocity=80 time=0
note_on channel=0 note=71 velocity=68 time=0
note_on channel=0 note=52 velocity=58 time=0
note_on channel=0 note=52 velocity=0 time=90
note_on channel=0 note=52 velocity=58 time=30
note_on channel=0 note=52 velocity=0 time=90
<meta message set_tempo tempo=740741 time=30>
note_on channel=0 note=71 velocity=0 time=0
note_on channel=0 note=74 velocity=0 time=0
note_on channel=0 note=64 velocity=0 time=0
note_on channel=0 note=52 velocity=58 time=0
control_change channel=0 control=64 value=0 time=14
note_on channel=0 note=52 velocity=0 time=76
note_on channel=0 note=68 velocity=59 time=30
note_on channel=0 note=71 velocity=70 time=0
note_on channel=0 note=52 velocity=58 time=0
note_on channel=0 note=52 velocity=0 time=90
<meta message set_tempo tempo=705882 time=30>
note_on channel=0 note=71 velocity=0 time=0
note_on channel=0 note=68 velocity=0 time=0
note_on channel=0 note=69 velocity=76 time=0
note_on channel=0 note=42 velocity=65 time=0
control_change channel=0 control=64 value=127 time=57
note_on channel=0 note=42 velocity=0 time=63
note_on channel=0 note=69 velocity=0 time=0
note_on channel=0 note=54 velocity=57 time=0
note_on channel=0 note=54 velocity=0 time=90
note_on channel=0 note=69 velocity=70 time=30
note_on channel=0 note=54 velocity=57 time=0
note_on channel=0 note=54 velocity=0 time=90
<meta message set_tempo tempo=731707 time=30>
note_on channel=0 note=69 velocity=0 time=0
note_on channel=0 note=54 velocity=57 time=0
note_on channel=0 note=54 velocity=0 time=90
<meta message set_tempo tempo=705882 time=30>
note_on channel=0 note=71 velocity=70 time=0
note_on channel=0 note=44 velocity=65 time=0
control_change channel=0 control=64 value=0 time=12
note_on channel=0 note=71 velocity=0 time=28
note_on channel=0 note=73 velocity=68 time=0
control_change channel=0 control=64 value=127 time=3
note_on channel=0 note=73 velocity=0 time=37
note_on channel=0 note=71 velocity=68 time=0
note_on channel=0 note=71 velocity=0 time=40
note_on channel=0 note=44 velocity=0 time=0
note_on channel=0 note=69 velocity=70 time=0
note_on channel=0 note=56 velocity=57 time=0
note_on channel=0 note=69 velocity=0 time=60
note_on channel=0 note=71 velocity=70 time=0
note_on channel=0 note=71 velocity=0 time=60
note_on channel=0 note=56 velocity=0 time=0
note_on channel=0 note=73 velocity=77 time=0
note_on channel=0 note=45 velocity=65 time=0
control_change channel=0 control=64 value=0 time=9
control_change channel=0 control=64 value=127 time=73
note_on channel=0 note=45 velocity=0 time=38
note_on channel=0 note=73 velocity=0 time=0
note_on channel=0 note=57 velocity=58 time=0
note_on channel=0 note=57 velocity=0 time=90
<meta message set_tempo tempo=740741 time=30>
note_on channel=0 note=73 velocity=70 time=0
note_on channel=0 note=57 velocity=58 time=0
note_on channel=0 note=57 velocity=0 time=90
note_on channel=0 note=73 velocity=0 time=30
note_on channel=0 note=57 velocity=59 time=0
note_on channel=0 note=57 velocity=0 time=90
<meta message set_tempo tempo=705882 time=30>
note_on channel=0 note=74 velocity=73 time=0
note_on channel=0 note=71 velocity=62 time=0
note_on channel=0 note=66 velocity=62 time=0
note_on channel=0 note=38 velocity=65 time=0
control_change channel=0 control=64 value=0 time=12
control_change channel=0 control=64 value=127 time=29
note_on channel=0 note=38 velocity=0 time=79
note_on channel=0 note=50 velocity=59 time=0
note_on channel=0 note=50 velocity=0 time=120
note_on channel=0 note=66 velocity=0 time=0
note_on channel=0 note=71 velocity=0 time=0
note_on channel=0 note=74 velocity=0 time=0
note_on channel=0 note=73 velocity=76 time=0
note_on channel=0 note=69 velocity=64 time=0
note_on channel=0 note=64 velocity=64 time=0
note_on channel=0 note=40 velocity=65 time=0
control_change channel=0 control=64 value=0 time=3
control_change channel=0 control=64 value=127 time=82
note_on channel=0 note=40 velocity=0 time=35
note_on channel=0 note=52 velocity=58 time=0
note_on channel=0 note=52 velocity=0 time=90
<meta message set_tempo tempo=750000 time=30>
note_on channel=0 note=64 velocity=0 time=0
note_on channel=0 note=69 velocity=0 time=0
note_on channel=0 note=73 velocity=0 time=0
note_on channel=0 note=64 velocity=62 time=0
note_on channel=0 note=73 velocity=74 time=0
note_on channel=0 note=69 velocity=62 time=0
note_on channel=0 note=52 velocity=58 time=0
note_on channel=0 note=52 velocity=0 time=90
note_on channel=0 note=52 velocity=58 time=30
note_on channel=0 note=52 velocity=0 time=90
note_on channel=0 note=69 velocity=0 time=30
note_on channel=0 note=73 velocity=0 time=0
note_on channel=0 note=64 velocity=0 time=0
note_on channel=0 note=62 velocity=61 time=0
note_on channel=0 note=64 velocity=61 time=0
note_on channel=0 note=68 velocity=61 time=0
note_on channel=0 note=71 velocity=72 time=0
note_on channel=0 note=40 velocity=65 time=0
control_change channel=0 control=64 value=0 time=9
control_change channel=0 control=64 value=127 time=76
note_on channel=0 note=40 velocity=0 time=35
note_on channel=0 note=52 velocity=56 time=0
note_on channel=0 note=52 velocity=0 time=120
note_on channel=0 note=71 velocity=0 time=0
note_on channel=0 note=62 velocity=0 time=0
note_on channel=0 note=64 velocity=0 time=0
note_on channel=0 note=68 velocity=0 time=0
note_on channel=0 note=61 velocity=64 time=0
note_on channel=0 note=64 velocity=64 time=0
note_on channel=0 note=69 velocity=76 time=0
note_on channel=0 note=33 velocity=75 time=0
control_change channel=0 control=64 value=0 time=11
control_change channel=0 control=64 value=127 time=102
note_on channel=0 note=33 velocity=0 time=127
note_on channel=0 note=61 velocity=0 time=0
note_on channel=0 note=64 velocity=0 time=0
note_on channel=0 note=69 velocity=0 time=0
note_on channel=0 note=45 velocity=67 time=0
control_change channel=0 control=64 value=0 time=36
note_on channel=0 note=45 velocity=0 time=204
<meta message set_tempo tempo=697674 time=240>
note_on channel=0 note=75 velocity=50 time=0
<meta message set_tempo tempo=750000 time=120>
note_on channel=0 note=75 velocity=0 time=0
note_on channel=0 note=76 velocity=46 time=0
note_on channel=0 note=76 velocity=0 time=96
<meta message set_tempo tempo=693722 time=24>
note_on channel=0 note=61 velocity=39 time=0
note_on channel=0 note=57 velocity=30 time=0
note_on channel=0 note=57 velocity=0 time=90
note_on channel=0 note=61 velocity=0 time=0
<meta message set_tempo tempo=714286 time=30>
note_on channel=0 note=76 velocity=45 time=0
note_on channel=0 note=76 velocity=0 time=120
note_on channel=0 note=75 velocity=45 time=0
<meta message set_tempo tempo=759494 time=120>
note_on channel=0 note=75 velocity=0 time=0
note_on channel=0 note=76 velocity=46 time=0
<meta message set_tempo tempo=681818 time=120>
note_on channel=0 note=76 velocity=0 time=0
note_on channel=0 note=77 velocity=50 time=0
<meta message set_tempo tempo=731707 time=120>
note_on channel=0 note=77 velocity=0 time=0
note_on channel=0 note=78 velocity=46 time=0
note_on channel=0 note=78 velocity=0 time=96
<meta message set_tempo tempo=693722 time=24>
note_on channel=0 note=57 velocity=30 time=0
note_on channel=0 note=62 velocity=39 time=0
note_on channel=0 note=62 velocity=0 time=90
note_on channel=0 note=57 velocity=0 time=0
<meta message set_tempo tempo=714286 time=30>
note_on channel=0 note=78 velocity=47 time=0
<meta message set_tempo tempo=714286 time=120>
note_on channel=0 note=78 velocity=0 time=0
note_on channel=0 note=77 velocity=50 time=0
<meta message set_tempo tempo=705882 time=120>
note_on channel=0 note=77 velocity=0 time=0
note_on channel=0 note=78 velocity=48 time=0
<meta message set_tempo tempo=710143 time=120>
note_on channel=0 note=78 velocity=0 time=0
note_on channel=0 note=80 velocity=55 time=0
note_on channel=0 note=66 velocity=31 time=0
note_on channel=0 note=57 velocity=26 time=0
note_on channel=0 note=57 velocity=0 time=90
note_on channel=0 note=66 velocity=0 time=0
<meta message set_tempo tempo=727361 time=30>
note_on channel=0 note=80 velocity=0 time=0
note_on channel=0 note=81 velocity=47 time=0
note_on channel=0 note=81 velocity=0 time=96
<meta message set_tempo tempo=697674 time=24>
note_on channel=0 note=79 velocity=55 time=0
note_on channel=0 note=57 velocity=24 time=0
note_on channel=0 note=64 velocity=29 time=0
note_on channel=0 note=64 velocity=0 time=90
note_on channel=0 note=57 velocity=0 time=0
<meta message set_tempo tempo=745434 time=30>
note_on channel=0 note=79 velocity=0 time=0
note_on channel=0 note=80 velocity=48 time=0
note_on channel=0 note=80 velocity=0 time=96
<meta message set_tempo tempo=705882 time=24>
note_on channel=0 note=77 velocity=55 time=0
note_on channel=0 note=57 velocity=24 time=0
note_on channel=0 note=62 velocity=29 time=0
note_on channel=0 note=62 velocity=0 time=90
note_on channel=0 note=57 velocity=0 time=0
<meta message set_tempo tempo=722892 time=30>
note_on channel=0 note=77 velocity=0 time=0
note_on channel=0 note=78 velocity=47 time=0
note_on channel=0 note=78 velocity=0 time=96
<meta message set_tempo tempo=731707 time=24>
note_on channel=0 note=75 velocity=55 time=0
<meta message set_tempo tempo=750000 time=120>
note_on channel=0 note=75 velocity=0 time=0
note_on channel=0 note=76 velocity=46 time=0
note_on channel=0 note=76 velocity=0 time=96
note_on channel=0 note=61 velocity=37 time=24
note_on channel=0 note=57 velocity=31 time=0
note_on channel=0 note=57 velocity=0 time=90
note_on channel=0 note=61 velocity=0 time=0
<meta message set_tempo tempo=740741 time=30>
note_on channel=0 note=76 velocity=55 time=0
note_on channel=0 note=76 velocity=0 time=108
note_on channel=0 note=76 velocity=57 time=12
note_on channel=0 note=76 velocity=0 time=108
<meta message set_tempo tempo=800000 time=12>
note_on channel=0 note=76 velocity=58 time=0
note_on channel=0 note=76 velocity=0 time=108
<meta message set_tempo tempo=740741 time=12>
note_on channel=0 note=76 velocity=72 time=0
note_on channel=0 note=57 velocity=46 time=0
note_on channel=0 note=64 velocity=55 time=0
note_on channel=0 note=61 velocity=46 time=0
control_change channel=0 control=64 value=127 time=3
note_on channel=0 note=76 velocity=0 time=117
note_on channel=0 note=73 velocity=64 time=0
note_on channel=0 note=73 velocity=0 time=120
note_on channel=0 note=69 velocity=59 time=0
note_on channel=0 note=69 velocity=0 time=120
note_on channel=0 note=76 velocity=57 time=0
control_change channel=0 control=64 value=0 time=7
note_on channel=0 note=76 velocity=0 time=101
note_on channel=0 note=76 velocity=59 time=12
note_on channel=0 note=76 velocity=0 time=108
<meta message set_tempo tempo=789474 time=12>
note_on channel=0 note=76 velocity=61 time=0
note_on channel=0 note=76 velocity=0 time=108
<meta message set_tempo tempo=740741 time=12>
note_on channel=0 note=61 velocity=0 time=0
note_on channel=0 note=64 velocity=0 time=0
note_on channel=0 note=57 velocity=0 time=0
note_on channel=0 note=76 velocity=70 time=0
note_on channel=0 note=64 velocity=51 time=0
note_on channel=0 note=59 velocity=43 time=0
note_on channel=0 note=62 velocity=43 time=0
control_change channel=0 control=64 value=127 time=71
note_on channel=0 note=76 velocity=0 time=49
note_on channel=0 note=74 velocity=62 time=0
note_on channel=0 note=74 velocity=0 time=120
note_on channel=0 note=68 velocity=58 time=0
note_on channel=0 note=68 velocity=0 time=120
note_on channel=0 note=76 velocity=59 time=0
control_change channel=0 control=64 value=0 time=57
note_on channel=0 note=76 velocity=0 time=51
note_on channel=0 note=76 velocity=62 time=12
note_on channel=0 note=76 velocity=0 time=108
<meta message set_tempo tempo=789474 time=12>
note_on channel=0 note=76 velocity=64 time=0
note_on channel=0 note=76 velocity=0 time=108
<meta message set_tempo tempo=740741 time=12>
note_on channel=0 note=62 velocity=0 time=0
note_on channel=0 note=59 velocity=0 time=0
note_on channel=0 note=64 velocity=0 time=0
note_on channel=0 note=76 velocity=69 time=0
note_on channel=0 note=64 velocity=59 time=0
note_on channel=0 note=61 velocity=50 time=0
control_change channel=0 control=64 value=127 time=3
note_on channel=0 note=76 velocity=0 time=117
note_on channel=0 note=73 velocity=63 time=0
<meta message set_tempo tempo=845070 time=120>
note_on channel=0 note=73 velocity=0 time=0
note_on channel=0 note=69 velocity=48 time=0
<meta message set_tempo tempo=750000 time=120>
note_on channel=0 note=69 velocity=0 time=0
note_on channel=0 note=76 velocity=52 time=0
<meta message set_tempo tempo=779221 time=120>
note_on channel=0 note=76 velocity=0 time=0
note_on channel=0 note=61 velocity=0 time=0
note_on channel=0 note=64 velocity=0 time=0
note_on channel=0 note=73 velocity=51 time=0
note_on channel=0 note=57 velocity=26 time=0
note_on channel=0 note=54 velocity=26 time=0
note_on channel=0 note=63 velocity=31 time=0
control_change channel=0 control=64 value=0 time=12
control_change channel=0 control=64 value=127 time=87
<meta message set_tempo tempo=869565 time=21>
note_on channel=0 note=73 velocity=0 time=0
note_on channel=0 note=69 velocity=49 time=0
<meta message set_tempo tempo=810811 time=120>
note_on channel=0 note=69 velocity=0 time=0
note_on channel=0 note=63 velocity=0 time=0
note_on channel=0 note=54 velocity=0 time=0
note_on channel=0 note=57 velocity=0 time=0
note_on channel=0 note=73 velocity=51 time=0
note_on channel=0 note=69 velocity=43 time=0
note_on channel=0 note=64 velocity=40 time=0
note_on channel=0 note=52 velocity=34 time=0
control_change channel=0 control=64 value=0 time=12
control_change channel=0 control=64 value=127 time=228
note_on channel=0 note=69 velocity=0 time=240
note_on channel=0 note=73 velocity=0 time=0
note_on channel=0 note=71 velocity=47 time=0
note_on channel=0 note=68 velocity=39 time=0
control_change channel=0 control=64 value=0 time=71
<meta message set_tempo tempo=697674 time=169>
note_on channel=0 note=68 velocity=0 time=0
note_on channel=0 note=52 velocity=0 time=0
note_on channel=0 note=64 velocity=0 time=0
note_on channel=0 note=71 velocity=0 time=0
note_on channel=0 note=72 velocity=50 time=0
<meta message set_tempo tempo=750000 time=120>
note_on channel=0 note=72 velocity=0 time=0
note_on channel=0 note=73 velocity=46 time=0
note_on channel=0 note=73 velocity=0 time=96
<meta message set_tempo tempo=693722 time=24>
note_on channel=0 note=57 velocity=30 time=0
note_on channel=0 note=64 velocity=39 time=0
note_on channel=0 note=64 velocity=0 time=90
note_on channel=0 note=57 velocity=0 time=0
<meta message set_tempo tempo=714286 time=30>
note_on channel=0 note=73 velocity=45 time=0
note_on channel=0 note=73 velocity=0 time=120
note_on channel=0 note=72 velocity=45 time=0
<meta message set_tempo tempo=810811 time=120>
note_on channel=0 note=72 velocity=0 time=0
note_on channel=0 note=73 velocity=46 time=0
<meta message set_tempo tempo=681818 time=120>
note_on channel=0 note=73 velocity=0 time=0
note_on channel=0 note=75 velocity=50 time=0
<meta message set_tempo tempo=697674 time=120>
note_on channel=0 note=75 velocity=0 time=0
note_on channel=0 note=76 velocity=46 time=0
note_on channel=0 note=76 velocity=0 time=96
<meta message set_tempo tempo=714286 time=24>
note_on channel=0 note=64 velocity=39 time=0
note_on channel=0 note=61 velocity=30 time=0
note_on channel=0 note=61 velocity=0 time=90
note_on channel=0 note=64 velocity=0 time=0
<meta message set_tempo tempo=714286 time=30>
note_on channel=0 note=76 velocity=47 time=0
<meta message set_tempo tempo=714286 time=120>
note_on channel=0 note=76 velocity=0 time=0
note_on channel=0 note=78 velocity=50 time=0
<meta message set_tempo tempo=740741 time=120>
note_on channel=0 note=78 velocity=0 time=0
note_on channel=0 note=76 velocity=48 time=0
note_on channel=0 note=76 velocity=0 time=90
<meta message set_tempo tempo=681818 time=30>
note_on channel=0 note=76 velocity=50 time=0
<meta message set_tempo tempo=759494 time=120>
note_on channel=0 note=76 velocity=0 time=0
note_on channel=0 note=71 velocity=47 time=0
note_on channel=0 note=71 velocity=0 time=96
<meta message set_tempo tempo=722892 time=24>
note_on channel=0 note=64 velocity=44 time=0
note_on channel=0 note=56 velocity=34 time=0
note_on channel=0 note=56 velocity=0 time=90
note_on channel=0 note=64 velocity=0 time=0
<meta message set_tempo tempo=722892 time=30>
note_on channel=0 note=71 velocity=48 time=0
<meta message set_tempo tempo=722892 time=120>
note_on channel=0 note=71 velocity=0 time=0
note_on channel=0 note=70 velocity=49 time=0
<meta message set_tempo tempo=750000 time=120>
note_on channel=0 note=70 velocity=0 time=0
note_on channel=0 note=71 velocity=50 time=0
<meta message set_tempo tempo=731707 time=120>
note_on channel=0 note=71 velocity=0 time=0
note_on channel=0 note=73 velocity=51 time=0
<meta message set_tempo tempo=769231 time=120>
note_on channel=0 note=73 velocity=0 time=0
note_on channel=0 note=74 velocity=48 time=0
note_on channel=0 note=74 velocity=0 time=96
note_on channel=0 note=64 velocity=44 time=24
note_on channel=0 note=59 velocity=34 time=0
note_on channel=0 note=59 velocity=0 time=90
note_on channel=0 note=64 velocity=0 time=0
<meta message set_tempo tempo=714286 time=30>
note_on channel=0 note=74 velocity=49 time=0
note_on channel=0 note=74 velocity=0 time=120
note_on channel=0 note=76 velocity=52 time=0
<meta message set_tempo tempo=779221 time=120>
note_on channel=0 note=76 velocity=0 time=0
note_on channel=0 note=74 velocity=50 time=0
note_on channel=0 note=74 velocity=0 time=90
<meta message set_tempo tempo=674157 time=30>
note_on channel=0 note=74 velocity=53 time=0
<meta message set_tempo tempo=769231 time=120>
note_on channel=0 note=74 velocity=0 time=0
note_on channel=0 note=69 velocity=47 time=0
note_on channel=0 note=69 velocity=0 time=96
<meta message set_tempo tempo=759494 time=24>
note_on channel=0 note=54 velocity=45 time=0
note_on channel=0 note=64 velocity=53 time=0
<meta message set_tempo tempo=714286 time=120>
note_on channel=0 note=69 velocity=51 time=0
note_on channel=0 note=69 velocity=0 time=120
note_on channel=0 note=64 velocity=0 time=0
note_on channel=0 note=54 velocity=0 time=0
note_on channel=0 note=73 velocity=52 time=0
note_on channel=0 note=56 velocity=43 time=0
note_on channel=0 note=64 velocity=51 time=0
<meta message set_tempo tempo=705882 time=120>
note_on channel=0 note=73 velocity=0 time=0
note_on channel=0 note=71 velocity=52 time=0
<meta message set_tempo tempo=681818 time=120>
note_on channel=0 note=71 velocity=0 time=0
note_on channel=0 note=64 velocity=0 time=0
note_on channel=0 note=56 velocity=0 time=0
note_on channel=0 note=74 velocity=57 time=0
<meta message set_tempo tempo=740741 time=120>
note_on channel=0 note=74 velocity=0 time=0
note_on channel=0 note=73 velocity=50 time=0
note_on channel=0 note=73 velocity=0 time=96
note_on channel=0 note=56 velocity=45 time=24
note_on channel=0 note=64 velocity=53 time=0
<meta message set_tempo tempo=697674 time=120>
note_on channel=0 note=73 velocity=52 time=0
<meta message set_tempo tempo=714286 time=120>
note_on channel=0 note=73 velocity=0 time=0
note_on channel=0 note=64 velocity=0 time=0
note_on channel=0 note=56 velocity=0 time=0
note_on channel=0 note=76 velocity=57 time=0
note_on channel=0 note=59 velocity=52 time=0
note_on channel=0 note=50 velocity=44 time=0
<meta message set_tempo tempo=769231 time=120>
note_on channel=0 note=76 velocity=0 time=0
note_on channel=0 note=74 velocity=54 time=0
<meta message set_tempo tempo=714286 time=120>
note_on channel=0 note=74 velocity=0 time=0
note_on channel=0 note=50 velocity=0 time=0
note_on channel=0 note=59 velocity=0 time=0
note_on channel=0 note=72 velocity=60 time=0
<meta message set_tempo tempo=769231 time=120>
note_on channel=0 note=72 velocity=0 time=0
note_on channel=0 note=73 velocity=54 time=0
note_on channel=0 note=73 velocity=0 time=96
<meta message set_tempo tempo=759494 time=24>
note_on channel=0 note=57 velocity=57 time=0
note_on channel=0 note=52 velocity=48 time=0
<meta message set_tempo tempo=714286 time=120>
note_on channel=0 note=73 velocity=55 time=0
note_on channel=0 note=73 velocity=0 time=120
note_on channel=0 note=52 velocity=0 time=0
note_on channel=0 note=57 velocity=0 time=0
note_on channel=0 note=74 velocity=59 time=0
note_on channel=0 note=56 velocity=51 time=0
note_on channel=0 note=52 velocity=43 time=0
<meta message set_tempo tempo=821918 time=120>
note_on channel=0 note=74 velocity=0 time=0
note_on channel=0 note=71 velocity=54 time=0
<meta message set_tempo tempo=779221 time=120>
note_on channel=0 note=71 velocity=0 time=0
note_on channel=0 note=52 velocity=0 time=0
note_on channel=0 note=56 velocity=0 time=0
note_on channel=0 note=71 velocity=60 time=0
note_on channel=0 note=68 velocity=48 time=0
note_on channel=0 note=57 velocity=61 time=0
note_on channel=0 note=57 velocity=0 time=240
note_on channel=0 note=52 velocity=55 time=0
note_on channel=0 note=71 velocity=0 time=120
note_on channel=0 note=72 velocity=59 time=0
<meta message set_tempo tempo=821918 time=120>
note_on channel=0 note=72 velocity=0 time=0
note_on channel=0 note=52 velocity=0 time=0
note_on channel=0 note=68 velocity=0 time=0
note_on channel=0 note=69 velocity=51 time=0
note_on channel=0 note=73 velocity=64 time=0
note_on channel=0 note=45 velocity=55 time=0
<meta message set_tempo tempo=731707 time=240>
note_on channel=0 note=45 velocity=0 time=0
note_on channel=0 note=73 velocity=0 time=0
note_on channel=0 note=69 velocity=0 time=0
note_on channel=0 note=73 velocity=76 time=0
note_on channel=0 note=69 velocity=64 time=0
note_on channel=0 note=64 velocity=64 time=0
note_on channel=0 note=33 velocity=71 time=0
control_change channel=0 control=64 value=127 time=32
note_on channel=0 note=33 velocity=0 time=88
note_on channel=0 note=45 velocity=60 time=0
note_on channel=0 note=73 velocity=0 time=60
note_on channel=0 note=64 velocity=0 time=0
note_on channel=0 note=69 velocity=0 time=0
note_on channel=0 note=45 velocity=0 time=30
note_on channel=0 note=73 velocity=76 time=30
note_on channel=0 note=69 velocity=64 time=0
note_on channel=0 note=64 velocity=64 time=0
note_on channel=0 note=45 velocity=60 time=0
note_on channel=0 note=45 velocity=0 time=90
note_on channel=0 note=45 velocity=60 time=30
note_on channel=0 note=73 velocity=0 time=60
note_on channel=0 note=64 velocity=0 time=0
note_on channel=0 note=69 velocity=0 time=0
note_on channel=0 note=45 velocity=0 time=30
note_on channel=0 note=64 velocity=60 time=30
note_on channel=0 note=74 velocity=71 time=0
note_on channel=0 note=68 velocity=60 time=0
note_on channel=0 note=35 velocity=67 time=0
control_change channel=0 control=64 value=0 time=9
control_change channel=0 control=64 value=127 time=30
<meta message set_tempo tempo=833333 time=81>
note_on channel=0 note=35 velocity=0 time=0
note_on channel=0 note=47 velocity=59 time=0
note_on channel=0 note=64 velocity=0 time=60
note_on channel=0 note=68 velocity=0 time=0
note_on channel=0 note=74 velocity=0 time=0
<meta message set_tempo tempo=731707 time=60>
note_on channel=0 note=47 velocity=0 time=0
note_on channel=0 note=64 velocity=63 time=0
note_on channel=0 note=69 velocity=63 time=0
note_on channel=0 note=76 velocity=75 time=0
note_on channel=0 note=37 velocity=66 time=0
control_change channel=0 control=64 value=0 time=10
control_change channel=0 control=64 value=127 time=57
note_on channel=0 note=37 velocity=0 time=53
note_on channel=0 note=49 velocity=59 time=0
note_on channel=0 note=64 velocity=0 time=60
note_on channel=0 note=76 velocity=0 time=0
note_on channel=0 note=69 velocity=0 time=0
note_on channel=0 note=49 velocity=0 time=30
note_on channel=0 note=76 velocity=68 time=30
note_on channel=0 note=69 velocity=57 time=0
note_on channel=0 note=49 velocity=57 time=0
note_on channel=0 note=49 velocity=0 time=90
<meta message set_tempo tempo=869565 time=30>
note_on channel=0 note=49 velocity=57 time=0
note_on channel=0 note=69 velocity=0 time=60
note_on channel=0 note=76 velocity=0 time=0
note_on channel=0 note=49 velocity=0 time=30
<meta message set_tempo tempo=779221 time=30>
note_on channel=0 note=78 velocity=72 time=0
note_on channel=0 note=69 velocity=61 time=0
note_on channel=0 note=38 velocity=68 time=0
control_change channel=0 control=64 value=0 time=28
<meta message set_tempo tempo=895522 time=92>
note_on channel=0 note=38 velocity=0 time=0
note_on channel=0 note=69 velocity=0 time=0
note_on channel=0 note=78 velocity=0 time=0
note_on channel=0 note=80 velocity=68 time=0
note_on channel=0 note=50 velocity=62 time=0
note_on channel=0 note=80 velocity=0 time=60
note_on channel=0 note=81 velocity=68 time=0
<meta message set_tempo tempo=740741 time=60>
note_on channel=0 note=81 velocity=0 time=0
note_on channel=0 note=50 velocity=0 time=0
note_on channel=0 note=69 velocity=76 time=0
note_on channel=0 note=61 velocity=64 time=0
note_on channel=0 note=64 velocity=64 time=0
note_on channel=0 note=40 velocity=69 time=0
control_change channel=0 control=64 value=127 time=85
note_on channel=0 note=40 velocity=0 time=35
note_on channel=0 note=52 velocity=55 time=0
note_on channel=0 note=52 velocity=0 time=90
<meta message set_tempo tempo=800000 time=30>
note_on channel=0 note=64 velocity=0 time=0
note_on channel=0 note=61 velocity=0 time=0
note_on channel=0 note=69 velocity=0 time=0
note_on channel=0 note=64 velocity=62 time=0
note_on channel=0 note=61 velocity=62 time=0
note_on channel=0 note=69 velocity=74 time=0
note_on channel=0 note=52 velocity=55 time=0
note_on channel=0 note=52 velocity=0 time=90
note_on channel=0 note=52 velocity=55 time=30
note_on channel=0 note=52 velocity=0 time=90
note_on channel=0 note=69 velocity=0 time=30
note_on channel=0 note=61 velocity=0 time=0
note_on channel=0 note=64 velocity=0 time=0
note_on channel=0 note=64 velocity=61 time=0
note_on channel=0 note=68 velocity=61 time=0
note_on channel=0 note=71 velocity=72 time=0
note_on channel=0 note=62 velocity=61 time=0
note_on channel=0 note=40 velocity=64 time=0
control_change channel=0 control=64 value=0 time=9
control_change channel=0 control=64 value=127 time=76
note_on channel=0 note=40 velocity=0 time=35
note_on channel=0 note=52 velocity=55 time=0
note_on channel=0 note=52 velocity=0 time=120
note_on channel=0 note=62 velocity=0 time=0
note_on channel=0 note=64 velocity=0 time=0
note_on channel=0 note=68 velocity=0 time=0
note_on channel=0 note=71 velocity=0 time=0
note_on channel=0 note=64 velocity=64 time=0
note_on channel=0 note=69 velocity=76 time=0
note_on channel=0 note=61 velocity=64 time=0
note_on channel=0 note=33 velocity=73 time=0
control_change channel=0 control=64 value=0 time=11
control_change channel=0 control=64 value=127 time=102
note_on channel=0 note=33 velocity=0 time=127
note_on channel=0 note=64 velocity=0 time=0
note_on channel=0 note=69 velocity=0 time=0
note_on channel=0 note=61 velocity=0 time=0
note_on channel=0 note=45 velocity=67 time=0
control_change channel=0 control=64 value=0 time=36
note_on channel=0 note=45 velocity=0 time=204
<meta message set_tempo tempo=697674 time=240>
note_on channel=0 note=75 velocity=50 time=0
<meta message set_tempo tempo=750000 time=120>
note_on channel=0 note=75 velocity=0 time=0
note_on channel=0 note=76 velocity=46 time=0
note_on channel=0 note=76 velocity=0 time=96
<meta message set_tempo tempo=710143 time=24>
note_on channel=0 note=57 velocity=30 time=0
note_on channel=0 note=61 velocity=39 time=0
note_on channel=0 note=61 velocity=0 time=90
note_on channel=0 note=57 velocity=0 time=0
<meta message set_tempo tempo=714286 time=30>
note_on channel=0 note=76 velocity=45 time=0
note_on channel=0 note=76 velocity=0 time=120
note_on channel=0 note=75 velocity=45 time=0
<meta message set_tempo tempo=759494 time=120>
note_on channel=0 note=75 velocity=0 time=0
note_on channel=0 note=76 velocity=46 time=0
<meta message set_tempo tempo=681818 time=120>
note_on channel=0 note=76 velocity=0 time=0
note_on channel=0 note=77 velocity=50 time=0
<meta message set_tempo tempo=731707 time=120>
note_on channel=0 note=77 velocity=0 time=0
note_on channel=0 note=78 velocity=46 time=0
note_on channel=0 note=78 velocity=0 time=96
<meta message set_tempo tempo=685793 time=24>
note_on channel=0 note=62 velocity=39 time=0
note_on channel=0 note=57 velocity=30 time=0
note_on channel=0 note=57 velocity=0 time=90
note_on channel=0 note=62 velocity=0 time=0
<meta message set_tempo tempo=714286 time=30>
note_on channel=0 note=78 velocity=47 time=0
<meta message set_tempo tempo=714286 time=120>
note_on channel=0 note=78 velocity=0 time=0
note_on channel=0 note=77 velocity=50 time=0
<meta message set_tempo tempo=705882 time=120>
note_on channel=0 note=77 velocity=0 time=0
note_on channel=0 note=78 velocity=48 time=0
<meta message set_tempo tempo=693722 time=120>
note_on channel=0 note=78 velocity=0 time=0
note_on channel=0 note=80 velocity=55 time=0
note_on channel=0 note=57 velocity=26 time=0
note_on channel=0 note=66 velocity=31 time=0
note_on channel=0 note=66 velocity=0 time=90
note_on channel=0 note=57 velocity=0 time=0
<meta message set_tempo tempo=750000 time=30>
note_on channel=0 note=80 velocity=0 time=0
note_on channel=0 note=81 velocity=47 time=0
note_on channel=0 note=81 velocity=0 time=96
<meta message set_tempo tempo=697674 time=24>
note_on channel=0 note=79 velocity=55 time=0
note_on channel=0 note=57 velocity=24 time=0
note_on channel=0 note=64 velocity=29 time=0
note_on channel=0 note=64 velocity=0 time=90
note_on channel=0 note=57 velocity=0 time=0
<meta message set_tempo tempo=769231 time=30>
note_on channel=0 note=79 velocity=0 time=0
note_on channel=0 note=80 velocity=48 time=0
note_on channel=0 note=80 velocity=0 time=96
<meta message set_tempo tempo=705882 time=24>
note_on channel=0 note=77 velocity=55 time=0
note_on channel=0 note=62 velocity=29 time=0
note_on channel=0 note=57 velocity=24 time=0
note_on channel=0 note=57 velocity=0 time=90
note_on channel=0 note=62 velocity=0 time=0
<meta message set_tempo tempo=722892 time=30>
note_on channel=0 note=77 velocity=0 time=0
note_on channel=0 note=78 velocity=47 time=0
note_on channel=0 note=78 velocity=0 time=96
<meta message set_tempo tempo=731707 time=24>
note_on channel=0 note=75 velocity=55 time=0
<meta message set_tempo tempo=750000 time=120>
note_on channel=0 note=75 velocity=0 time=0
note_on channel=0 note=76 velocity=46 time=0
note_on channel=0 note=76 velocity=0 time=96
note_on channel=0 note=61 velocity=37 time=24
note_on channel=0 note=57 velocity=31 time=0
note_on channel=0 note=57 velocity=0 time=90
note_on channel=0 note=61 velocity=0 time=0
<meta message set_tempo tempo=740741 time=30>
note_on channel=0 note=76 velocity=55 time=0
note_on channel=0 note=76 velocity=0 time=108
note_on channel=0 note=76 velocity=57 time=12
note_on channel=0 note=76 velocity=0 time=108
<meta message set_tempo tempo=800000 time=12>
note_on channel=0 note=76 velocity=58 time=0
note_on channel=0 note=76 velocity=0 time=108
<meta message set_tempo tempo=740741 time=12>
note_on channel=0 note=76 velocity=72 time=0
note_on channel=0 note=64 velocity=55 time=0
note_on channel=0 note=61 velocity=46 time=0
note_on channel=0 note=57 velocity=46 time=0
control_change channel=0 control=64 value=127 time=3
note_on channel=0 note=76 velocity=0 time=117
note_on channel=0 note=73 velocity=64 time=0
note_on channel=0 note=73 velocity=0 time=120
note_on channel=0 note=69 velocity=59 time=0
note_on channel=0 note=69 velocity=0 time=120
note_on channel=0 note=76 velocity=57 time=0
control_change channel=0 control=64 value=0 time=7
note_on channel=0 note=76 velocity=0 time=101
note_on channel=0 note=76 velocity=59 time=12
note_on channel=0 note=76 velocity=0 time=108
<meta message set_tempo tempo=789474 time=12>
note_on channel=0 note=76 velocity=61 time=0
note_on channel=0 note=76 velocity=0 time=108
<meta message set_tempo tempo=740741 time=12>
note_on channel=0 note=57 velocity=0 time=0
note_on channel=0 note=61 velocity=0 time=0
note_on channel=0 note=64 velocity=0 time=0
note_on channel=0 note=76 velocity=70 time=0
note_on channel=0 note=59 velocity=43 time=0
note_on channel=0 note=64 velocity=51 time=0
note_on channel=0 note=62 velocity=43 time=0
control_change channel=0 control=64 value=127 time=70
note_on channel=0 note=76 velocity=0 time=50
note_on channel=0 note=74 velocity=62 time=0
note_on channel=0 note=74 velocity=0 time=120
note_on channel=0 note=68 velocity=58 time=0
note_on channel=0 note=68 velocity=0 time=120
note_on channel=0 note=76 velocity=59 time=0
control_change channel=0 control=64 value=0 time=57
note_on channel=0 note=76 velocity=0 time=51
note_on channel=0 note=76 velocity=62 time=12
note_on channel=0 note=76 velocity=0 time=108
<meta message set_tempo tempo=789474 time=12>
note_on channel=0 note=76 velocity=64 time=0
note_on channel=0 note=76 velocity=0 time=108
<meta message set_tempo tempo=740741 time=12>
note_on channel=0 note=62 velocity=0 time=0
note_on channel=0 note=64 velocity=0 time=0
note_on channel=0 note=59 velocity=0 time=0
note_on channel=0 note=76 velocity=69 time=0
note_on channel=0 note=61 velocity=50 time=0
note_on channel=0 note=64 velocity=59 time=0
control_change channel=0 control=64 value=127 time=21
note_on channel=0 note=76 velocity=0 time=99
note_on channel=0 note=73 velocity=63 time=0
<meta message set_tempo tempo=845070 time=120>
note_on channel=0 note=73 velocity=0 time=0
note_on channel=0 note=69 velocity=48 time=0
<meta message set_tempo tempo=750000 time=120>
note_on channel=0 note=69 velocity=0 time=0
note_on channel=0 note=76 velocity=52 time=0
<meta message set_tempo tempo=779221 time=120>
note_on channel=0 note=76 velocity=0 time=0
note_on channel=0 note=64 velocity=0 time=0
note_on channel=0 note=61 velocity=0 time=0
note_on channel=0 note=73 velocity=51 time=0
note_on channel=0 note=54 velocity=26 time=0
note_on channel=0 note=63 velocity=31 time=0
note_on channel=0 note=57 velocity=26 time=0
control_change channel=0 control=64 value=0 time=12
control_change channel=0 control=64 value=127 time=87
<meta message set_tempo tempo=869565 time=21>
note_on channel=0 note=73 velocity=0 time=0
note_on channel=0 note=69 velocity=49 time=0
<meta message set_tempo tempo=810811 time=120>
note_on channel=0 note=69 velocity=0 time=0
note_on channel=0 note=57 velocity=0 time=0
note_on channel=0 note=63 velocity=0 time=0
note_on channel=0 note=54 velocity=0 time=0
note_on channel=0 note=73 velocity=51 time=0
note_on channel=0 note=69 velocity=43 time=0
note_on channel=0 note=52 velocity=34 time=0
note_on channel=0 note=64 velocity=40 time=0
control_change channel=0 control=64 value=0 time=12
control_change channel=0 control=64 value=127 time=136
note_on channel=0 note=69 velocity=0 time=332
note_on channel=0 note=73 velocity=0 time=0
note_on channel=0 note=71 velocity=47 time=0
note_on channel=0 note=68 velocity=39 time=0
control_change channel=0 control=64 value=0 time=71
<meta message set_tempo tempo=697674 time=169>
note_on channel=0 note=68 velocity=0 time=0
note_on channel=0 note=64 velocity=0 time=0
note_on channel=0 note=52 velocity=0 time=0
note_on channel=0 note=71 velocity=0 time=0
note_on channel=0 note=72 velocity=50 time=0
<meta message set_tempo tempo=750000 time=120>
note_on channel=0 note=72 velocity=0 time=0
note_on channel=0 note=73 velocity=46 time=0
note_on channel=0 note=73 velocity=0 time=96
<meta message set_tempo tempo=701836 time=24>
note_on channel=0 note=57 velocity=30 time=0
note_on channel=0 note=64 velocity=39 time=0
note_on channel=0 note=64 velocity=0 time=90
note_on channel=0 note=57 velocity=0 time=0
<meta message set_tempo tempo=714286 time=30>
note_on channel=0 note=73 velocity=45 time=0
note_on channel=0 note=73 velocity=0 time=120
note_on channel=0 note=72 velocity=45 time=0
<meta message set_tempo tempo=810811 time=120>
note_on channel=0 note=72 velocity=0 time=0
note_on channel=0 note=73 velocity=46 time=0
<meta message set_tempo tempo=681818 time=120>
note_on channel=0 note=73 velocity=0 time=0
note_on channel=0 note=75 velocity=50 time=0
<meta message set_tempo tempo=731707 time=120>
note_on channel=0 note=75 velocity=0 time=0
note_on channel=0 note=76 velocity=46 time=0
note_on channel=0 note=76 velocity=0 time=96
<meta message set_tempo tempo=693722 time=24>
note_on channel=0 note=64 velocity=39 time=0
note_on channel=0 note=61 velocity=30 time=0
note_on channel=0 note=61 velocity=0 time=90
note_on channel=0 note=64 velocity=0 time=0
<meta message set_tempo tempo=714286 time=30>
note_on channel=0 note=76 velocity=47 time=0
<meta message set_tempo tempo=714286 time=120>
note_on channel=0 note=76 velocity=0 time=0
note_on channel=0 note=78 velocity=50 time=0
<meta message set_tempo tempo=740741 time=120>
note_on channel=0 note=78 velocity=0 time=0
note_on channel=0 note=76 velocity=48 time=0
note_on channel=0 note=76 velocity=0 time=90
<meta message set_tempo tempo=681818 time=30>
note_on channel=0 note=76 velocity=50 time=0
<meta message set_tempo tempo=759494 time=120>
note_on channel=0 note=76 velocity=0 time=0
note_on channel=0 note=71 velocity=47 time=0
note_on channel=0 note=71 velocity=0 time=96
<meta message set_tempo tempo=722892 time=24>
note_on channel=0 note=64 velocity=44 time=0
note_on channel=0 note=56 velocity=34 time=0
note_on channel=0 note=56 velocity=0 time=90
note_on channel=0 note=64 velocity=0 time=0
<meta message set_tempo tempo=722892 time=30>
note_on channel=0 note=71 velocity=48 time=0
<meta message set_tempo tempo=722892 time=120>
note_on channel=0 note=71 velocity=0 time=0
note_on channel=0 note=70 velocity=49 time=0
<meta message set_tempo tempo=722892 time=120>
note_on channel=0 note=70 velocity=0 time=0
note_on channel=0 note=71 velocity=50 time=0
<meta message set_tempo tempo=731707 time=120>
note_on channel=0 note=71 velocity=0 time=0
note_on channel=0 note=73 velocity=51 time=0
<meta message set_tempo tempo=769231 time=120>
note_on channel=0 note=73 velocity=0 time=0
note_on channel=0 note=74 velocity=48 time=0
note_on channel=0 note=74 velocity=0 time=96
note_on channel=0 note=59 velocity=34 time=24
note_on channel=0 note=64 velocity=44 time=0
note_on channel=0 note=64 velocity=0 time=90
note_on channel=0 note=59 velocity=0 time=0
<meta message set_tempo tempo=714286 time=30>
note_on channel=0 note=74 velocity=49 time=0
note_on channel=0 note=74 velocity=0 time=120
note_on channel=0 note=76 velocity=52 time=0
<meta message set_tempo tempo=779221 time=120>
note_on channel=0 note=76 velocity=0 time=0
note_on channel=0 note=74 velocity=50 time=0
note_on channel=0 note=74 velocity=0 time=90
<meta message set_tempo tempo=674157 time=30>
note_on channel=0 note=74 velocity=53 time=0
<meta message set_tempo tempo=769231 time=120>
note_on channel=0 note=74 velocity=0 time=0
note_on channel=0 note=69 velocity=47 time=0
note_on channel=0 note=69 velocity=0 time=96
<meta message set_tempo tempo=759494 time=24>
note_on channel=0 note=64 velocity=53 time=0
note_on channel=0 note=54 velocity=45 time=0
<meta message set_tempo tempo=714286 time=120>
note_on channel=0 note=69 velocity=51 time=0
note_on channel=0 note=69 velocity=0 time=120
note_on channel=0 note=54 velocity=0 time=0
note_on channel=0 note=64 velocity=0 time=0
note_on channel=0 note=73 velocity=52 time=0
note_on channel=0 note=56 velocity=43 time=0
note_on channel=0 note=64 velocity=51 time=0
<meta message set_tempo tempo=705882 time=120>
note_on channel=0 note=73 velocity=0 time=0
note_on channel=0 note=71 velocity=52 time=0
<meta message set_tempo tempo=681818 time=120>
note_on channel=0 note=71 velocity=0 time=0
note_on channel=0 note=64 velocity=0 time=0
note_on channel=0 note=56 velocity=0 time=0
note_on channel=0 note=74 velocity=57 time=0
<meta message set_tempo tempo=740741 time=120>
note_on channel=0 note=74 velocity=0 time=0
note_on channel=0 note=73 velocity=50 time=0
note_on channel=0 note=73 velocity=0 time=96
note_on channel=0 note=56 velocity=45 time=24
note_on channel=0 note=64 velocity=53 time=0
<meta message set_tempo tempo=697674 time=120>
note_on channel=0 note=73 velocity=52 time=0
<meta message set_tempo tempo=714286 time=120>
note_on channel=0 note=73 velocity=0 time=0
note_on channel=0 note=64 velocity=0 time=0
note_on channel=0 note=56 velocity=0 time=0
note_on channel=0 note=76 velocity=57 time=0
note_on channel=0 note=50 velocity=44 time=0
note_on channel=0 note=59 velocity=52 time=0
<meta message set_tempo tempo=769231 time=120>
note_on channel=0 note=76 velocity=0 time=0
note_on channel=0 note=74 velocity=54 time=0
<meta message set_tempo tempo=714286 time=120>
note_on channel=0 note=74 velocity=0 time=0
note_on channel=0 note=59 velocity=0 time=0
note_on channel=0 note=50 velocity=0 time=0
note_on channel=0 note=72 velocity=60 time=0
<meta message set_tempo tempo=769231 time=120>
note_on channel=0 note=72 velocity=0 time=0
note_on channel=0 note=73 velocity=54 time=0
note_on channel=0 note=73 velocity=0 time=96
<meta message set_tempo tempo=759494 time=24>
note_on channel=0 note=57 velocity=57 time=0
note_on channel=0 note=52 velocity=48 time=0
<meta message set_tempo tempo=714286 time=120>
note_on channel=0 note=73 velocity=55 time=0
note_on channel=0 note=73 velocity=0 time=120
note_on channel=0 note=52 velocity=0 time=0
note_on channel=0 note=57 velocity=0 time=0
note_on channel=0 note=74 velocity=59 time=0
note_on channel=0 note=56 velocity=51 time=0
note_on channel=0 note=52 velocity=43 time=0
<meta message set_tempo tempo=821918 time=120>
note_on channel=0 note=74 velocity=0 time=0
note_on channel=0 note=71 velocity=54 time=0
<meta message set_tempo tempo=779221 time=120>
note_on channel=0 note=71 velocity=0 time=0
note_on channel=0 note=52 velocity=0 time=0
note_on channel=0 note=56 velocity=0 time=0
note_on channel=0 note=71 velocity=60 time=0
note_on channel=0 note=68 velocity=48 time=0
note_on channel=0 note=57 velocity=61 time=0
note_on channel=0 note=57 velocity=0 time=240
note_on channel=0 note=52 velocity=55 time=0
note_on channel=0 note=71 velocity=0 time=120
note_on channel=0 note=72 velocity=59 time=0
<meta message set_tempo tempo=821918 time=120>
note_on channel=0 note=72 velocity=0 time=0
note_on channel=0 note=52 velocity=0 time=0
note_on channel=0 note=68 velocity=0 time=0
note_on channel=0 note=69 velocity=51 time=0
note_on channel=0 note=73 velocity=64 time=0
note_on channel=0 note=45 velocity=55 time=0
<meta message set_tempo tempo=731707 time=240>
note_on channel=0 note=45 velocity=0 time=0
note_on channel=0 note=73 velocity=0 time=0
note_on channel=0 note=69 velocity=0 time=0
note_on channel=0 note=73 velocity=76 time=0
note_on channel=0 note=64 velocity=64 time=0
note_on channel=0 note=69 velocity=64 time=0
note_on channel=0 note=33 velocity=71 time=0
control_change channel=0 control=64 value=127 time=25
note_on channel=0 note=33 velocity=0 time=95
note_on channel=0 note=45 velocity=60 time=0
note_on channel=0 note=73 velocity=0 time=60
note_on channel=0 note=69 velocity=0 time=0
note_on channel=0 note=64 velocity=0 time=0
note_on channel=0 note=45 velocity=0 time=30
note_on channel=0 note=69 velocity=64 time=30
note_on channel=0 note=64 velocity=64 time=0
note_on channel=0 note=73 velocity=76 time=0
note_on channel=0 note=45 velocity=60 time=0
note_on channel=0 note=45 velocity=0 time=90
note_on channel=0 note=45 velocity=60 time=30
note_on channel=0 note=69 velocity=0 time=60
note_on channel=0 note=73 velocity=0 time=0
note_on channel=0 note=64 velocity=0 time=0
note_on channel=0 note=45 velocity=0 time=30
<meta message set_tempo tempo=769231 time=30>
note_on channel=0 note=74 velocity=71 time=0
note_on channel=0 note=64 velocity=60 time=0
note_on channel=0 note=68 velocity=60 time=0
note_on channel=0 note=35 velocity=67 time=0
control_change channel=0 control=64 value=0 time=9
control_change channel=0 control=64 value=127 time=30
<meta message set_tempo tempo=833333 time=81>
note_on channel=0 note=35 velocity=0 time=0
note_on channel=0 note=47 velocity=59 time=0
note_on channel=0 note=74 velocity=0 time=60
note_on channel=0 note=68 velocity=0 time=0
note_on channel=0 note=64 velocity=0 time=0
<meta message set_tempo tempo=769231 time=60>
note_on channel=0 note=47 velocity=0 time=0
note_on channel=0 note=69 velocity=63 time=0
note_on channel=0 note=76 velocity=75 time=0
note_on channel=0 note=64 velocity=63 time=0
note_on channel=0 note=37 velocity=66 time=0
control_change channel=0 control=64 value=0 time=10
control_change channel=0 control=64 value=127 time=57
note_on channel=0 note=37 velocity=0 time=53
note_on channel=0 note=49 velocity=59 time=0
note_on channel=0 note=69 velocity=0 time=60
note_on channel=0 note=64 velocity=0 time=0
note_on channel=0 note=76 velocity=0 time=0
note_on channel=0 note=49 velocity=0 time=30
note_on channel=0 note=76 velocity=68 time=30
note_on channel=0 note=69 velocity=57 time=0
note_on channel=0 note=49 velocity=57 time=0
note_on channel=0 note=49 velocity=0 time=90
<meta message set_tempo tempo=882353 time=30>
note_on channel=0 note=49 velocity=57 time=0
note_on channel=0 note=69 velocity=0 time=60
note_on channel=0 note=76 velocity=0 time=0
note_on channel=0 note=49 velocity=0 time=30
<meta message set_tempo tempo=810811 time=30>
note_on channel=0 note=78 velocity=72 time=0
note_on channel=0 note=69 velocity=61 time=0
note_on channel=0 note=38 velocity=68 time=0
control_change channel=0 control=64 value=0 time=28
<meta message set_tempo tempo=909091 time=92>
note_on channel=0 note=38 velocity=0 time=0
note_on channel=0 note=69 velocity=0 time=0
note_on channel=0 note=78 velocity=0 time=0
note_on channel=0 note=80 velocity=68 time=0
note_on channel=0 note=50 velocity=62 time=0
note_on channel=0 note=80 velocity=0 time=60
note_on channel=0 note=81 velocity=68 time=0
<meta message set_tempo tempo=800000 time=60>
note_on channel=0 note=81 velocity=0 time=0
note_on channel=0 note=50 velocity=0 time=0
note_on channel=0 note=69 velocity=76 time=0
note_on channel=0 note=64 velocity=64 time=0
note_on channel=0 note=61 velocity=64 time=0
note_on channel=0 note=40 velocity=69 time=0
control_change channel=0 control=64 value=127 time=85
note_on channel=0 note=40 velocity=0 time=35
note_on channel=0 note=52 velocity=55 time=0
note_on channel=0 note=52 velocity=0 time=90
<meta message set_tempo tempo=857143 time=30>
note_on channel=0 note=61 velocity=0 time=0
note_on channel=0 note=64 velocity=0 time=0
note_on channel=0 note=69 velocity=0 time=0
note_on channel=0 note=64 velocity=62 time=0
note_on channel=0 note=69 velocity=74 time=0
note_on channel=0 note=61 velocity=62 time=0
note_on channel=0 note=52 velocity=55 time=0
note_on channel=0 note=52 velocity=0 time=90
note_on channel=0 note=52 velocity=55 time=30
note_on channel=0 note=52 velocity=0 time=90
<meta message set_tempo tempo=937500 time=30>
note_on channel=0 note=61 velocity=0 time=0
note_on channel=0 note=69 velocity=0 time=0
note_on channel=0 note=64 velocity=0 time=0
note_on channel=0 note=64 velocity=61 time=0
note_on channel=0 note=71 velocity=72 time=0
note_on channel=0 note=68 velocity=61 time=0
note_on channel=0 note=62 velocity=61 time=0
note_on channel=0 note=40 velocity=64 time=0
control_change channel=0 control=64 value=0 time=9
control_change channel=0 control=64 value=127 time=76
note_on channel=0 note=40 velocity=0 time=35
note_on channel=0 note=52 velocity=55 time=0
note_on channel=0 note=52 velocity=0 time=120
note_on channel=0 note=62 velocity=0 time=0
note_on channel=0 note=64 velocity=0 time=0
note_on channel=0 note=71 velocity=0 time=0
note_on channel=0 note=68 velocity=0 time=0
note_on channel=0 note=69 velocity=76 time=0
note_on channel=0 note=64 velocity=64 time=0
note_on channel=0 note=61 velocity=64 time=0
note_on channel=0 note=33 velocity=73 time=0
control_change channel=0 control=64 value=0 time=11
control_change channel=0 control=64 value=127 time=102
note_on channel=0 note=33 velocity=0 time=127
note_on channel=0 note=69 velocity=0 time=0
note_on channel=0 note=64 velocity=0 time=0
note_on channel=0 note=61 velocity=0 time=0
note_on channel=0 note=45 velocity=67 time=0
control_change channel=0 control=64 value=0 time=36
note_on channel=0 note=45 velocity=0 time=204
<meta message marker text='Var II' time=1666>
<meta message set_tempo tempo=705882 time=14>
note_on channel=0 note=73 velocity=53 time=0
note_on channel=0 note=57 velocity=44 time=0
note_on channel=0 note=73 velocity=0 time=60
note_on channel=0 note=63 velocity=31 time=20
note_on channel=0 note=57 velocity=0 time=16
note_on channel=0 note=64 velocity=31 time=64
note_on channel=0 note=63 velocity=0 time=16
note_on channel=0 note=64 velocity=0 time=64
note_on channel=0 note=73 velocity=49 time=0
note_on channel=0 note=57 velocity=40 time=0
note_on channel=0 note=73 velocity=0 time=60
note_on channel=0 note=63 velocity=30 time=20
note_on channel=0 note=57 velocity=0 time=16
<meta message set_tempo tempo=731707 time=24>
note_on channel=0 note=64 velocity=30 time=40
note_on channel=0 note=63 velocity=0 time=16
<meta message set_tempo tempo=705882 time=64>
note_on channel=0 note=64 velocity=0 time=0
note_on channel=0 note=74 velocity=49 time=0
note_on channel=0 note=59 velocity=40 time=0
control_change channel=0 control=64 value=127 time=15
note_on channel=0 note=74 velocity=0 time=25
note_on channel=0 note=76 velocity=47 time=0
note_on channel=0 note=76 velocity=0 time=40
note_on channel=0 note=74 velocity=47 time=0
note_on channel=0 note=63 velocity=30 time=0
note_on channel=0 note=59 velocity=0 time=16
note_on channel=0 note=74 velocity=0 time=24
note_on channel=0 note=73 velocity=49 time=0
note_on channel=0 note=64 velocity=30 time=40
note_on channel=0 note=63 velocity=0 time=16
note_on channel=0 note=73 velocity=0 time=4
note_on channel=0 note=74 velocity=49 time=0
note_on channel=0 note=74 velocity=0 time=60
note_on channel=0 note=64 velocity=0 time=0
note_on channel=0 note=76 velocity=53 time=0
note_on channel=0 note=61 velocity=41 time=0
control_change channel=0 control=64 value=0 time=4
note_on channel=0 note=63 velocity=29 time=76
note_on channel=0 note=61 velocity=0 time=16
note_on channel=0 note=64 velocity=29 time=64
note_on channel=0 note=63 velocity=0 time=16
note_on channel=0 note=64 velocity=0 time=64
note_on channel=0 note=76 velocity=0 time=0
note_on channel=0 note=61 velocity=40 time=0
note_on channel=0 note=63 velocity=31 time=80
note_on channel=0 note=61 velocity=0 time=16
<meta message set_tempo tempo=759494 time=24>
note_on channel=0 note=64 velocity=31 time=40
note_on channel=0 note=63 velocity=0 time=16
<meta message set_tempo tempo=681818 time=46>
note_on channel=0 note=64 velocity=0 time=18
note_on channel=0 note=78 velocity=53 time=0
note_on channel=0 note=57 velocity=40 time=0
<meta message set_tempo tempo=689655 time=22>
note_on channel=0 note=76 velocity=52 time=38
<meta message set_tempo tempo=697674 time=2>
note_on channel=0 note=78 velocity=0 time=4
note_on channel=0 note=63 velocity=36 time=14
note_on channel=0 note=57 velocity=0 time=16
<meta message set_tempo tempo=705882 time=6>
note_on channel=0 note=74 velocity=51 time=18
note_on channel=0 note=76 velocity=0 time=6
<meta message set_tempo tempo=714286 time=16>
note_on channel=0 note=64 velocity=36 time=18
note_on channel=0 note=63 velocity=0 time=16
note_on channel=0 note=73 velocity=49 time=4
<meta message set_tempo tempo=722892 time=2>
note_on channel=0 note=74 velocity=0 time=4
<meta message set_tempo tempo=731707 time=16>
<meta message set_tempo tempo=705882 time=38>
note_on channel=0 note=64 velocity=0 time=0
note_on channel=0 note=71 velocity=53 time=0
note_on channel=0 note=56 velocity=44 time=0
note_on channel=0 note=73 velocity=0 time=6
note_on channel=0 note=71 velocity=0 time=54
note_on channel=0 note=63 velocity=31 time=20
note_on channel=0 note=56 velocity=0 time=16
note_on channel=0 note=64 velocity=31 time=64
note_on channel=0 note=63 velocity=0 time=16
note_on channel=0 note=64 velocity=0 time=64
note_on channel=0 note=71 velocity=49 time=0
note_on channel=0 note=56 velocity=40 time=0
note_on channel=0 note=71 velocity=0 time=60
note_on channel=0 note=63 velocity=33 time=20
note_on channel=0 note=56 velocity=0 time=16
<meta message set_tempo tempo=731707 time=24>
note_on channel=0 note=64 velocity=33 time=40
note_on channel=0 note=63 velocity=0 time=16
<meta message set_tempo tempo=705882 time=64>
note_on channel=0 note=64 velocity=0 time=0
note_on channel=0 note=73 velocity=49 time=0
note_on channel=0 note=57 velocity=40 time=0
control_change channel=0 control=64 value=127 time=26
note_on channel=0 note=73 velocity=0 time=14
note_on channel=0 note=74 velocity=47 time=0
note_on channel=0 note=74 velocity=0 time=40
note_on channel=0 note=73 velocity=47 time=0
note_on channel=0 note=63 velocity=34 time=0
note_on channel=0 note=57 velocity=0 time=16
note_on channel=0 note=73 velocity=0 time=24
note_on channel=0 note=71 velocity=49 time=0
note_on channel=0 note=64 velocity=34 time=40
note_on channel=0 note=63 velocity=0 time=16
note_on channel=0 note=71 velocity=0 time=4
note_on channel=0 note=73 velocity=49 time=0
note_on channel=0 note=73 velocity=0 time=60
note_on channel=0 note=64 velocity=0 time=0
note_on channel=0 note=74 velocity=53 time=0
note_on channel=0 note=59 velocity=45 time=0
control_change channel=0 control=64 value=0 time=8
note_on channel=0 note=63 velocity=34 time=72
note_on channel=0 note=59 velocity=0 time=16
note_on channel=0 note=64 velocity=34 time=64
note_on channel=0 note=63 velocity=0 time=16
note_on channel=0 note=64 velocity=0 time=64
note_on channel=0 note=74 velocity=0 time=0
note_on channel=0 note=59 velocity=38 time=0
note_on channel=0 note=63 velocity=31 time=80
note_on channel=0 note=59 velocity=0 time=16
<meta message set_tempo tempo=759494 time=24>
note_on channel=0 note=64 velocity=31 time=40
note_on channel=0 note=63 velocity=0 time=16
<meta message set_tempo tempo=681818 time=46>
note_on channel=0 note=64 velocity=0 time=18
note_on channel=0 note=76 velocity=53 time=0
note_on channel=0 note=56 velocity=40 time=0
<meta message set_tempo tempo=689655 time=22>
note_on channel=0 note=74 velocity=52 time=38
<meta message set_tempo tempo=697674 time=2>
note_on channel=0 note=76 velocity=0 time=4
note_on channel=0 note=63 velocity=36 time=14
note_on channel=0 note=56 velocity=0 time=16
<meta message set_tempo tempo=705882 time=6>
note_on channel=0 note=73 velocity=51 time=18
note_on channel=0 note=74 velocity=0 time=6
<meta message set_tempo tempo=714286 time=16>
note_on channel=0 note=64 velocity=36 time=18
note_on channel=0 note=63 velocity=0 time=16
note_on channel=0 note=71 velocity=49 time=4
<meta message set_tempo tempo=722892 time=2>
note_on channel=0 note=73 velocity=0 time=4
<meta message set_tempo tempo=731707 time=16>
<meta message set_tempo tempo=705882 time=38>
note_on channel=0 note=64 velocity=0 time=0
note_on channel=0 note=69 velocity=53 time=0
note_on channel=0 note=54 velocity=44 time=0
note_on channel=0 note=71 velocity=0 time=6
note_on channel=0 note=69 velocity=0 time=54
note_on channel=0 note=63 velocity=33 time=20
note_on channel=0 note=54 velocity=0 time=16
note_on channel=0 note=64 velocity=33 time=64
note_on channel=0 note=63 velocity=0 time=16
note_on channel=0 note=64 velocity=0 time=64
note_on channel=0 note=69 velocity=49 time=0
note_on channel=0 note=54 velocity=40 time=0
note_on channel=0 note=69 velocity=0 time=60
note_on channel=0 note=63 velocity=35 time=20
note_on channel=0 note=54 velocity=0 time=16
<meta message set_tempo tempo=731707 time=24>
note_on channel=0 note=64 velocity=35 time=40
note_on channel=0 note=63 velocity=0 time=16
<meta message set_tempo tempo=705882 time=64>
note_on channel=0 note=64 velocity=0 time=0
note_on channel=0 note=69 velocity=49 time=0
note_on channel=0 note=54 velocity=40 time=0
control_change channel=0 control=64 value=127 time=26
note_on channel=0 note=69 velocity=0 time=14
note_on channel=0 note=71 velocity=47 time=0
note_on channel=0 note=71 velocity=0 time=40
note_on channel=0 note=69 velocity=47 time=0
note_on channel=0 note=63 velocity=35 time=0
note_on channel=0 note=54 velocity=0 time=16
note_on channel=0 note=69 velocity=0 time=24
note_on channel=0 note=68 velocity=49 time=0
note_on channel=0 note=64 velocity=36 time=40
note_on channel=0 note=63 velocity=0 time=16
note_on channel=0 note=68 velocity=0 time=4
note_on channel=0 note=69 velocity=49 time=0
<meta message set_tempo tempo=705882 time=60>
note_on channel=0 note=69 velocity=0 time=0
note_on channel=0 note=64 velocity=0 time=0
note_on channel=0 note=71 velocity=53 time=0
note_on channel=0 note=56 velocity=44 time=0
control_change channel=0 control=64 value=0 time=5
note_on channel=0 note=71 velocity=0 time=55
note_on channel=0 note=62 velocity=35 time=20
note_on channel=0 note=56 velocity=0 time=16
note_on channel=0 note=64 velocity=35 time=64
note_on channel=0 note=62 velocity=0 time=16
note_on channel=0 note=64 velocity=0 time=64
note_on channel=0 note=71 velocity=49 time=0
note_on channel=0 note=56 velocity=40 time=0
note_on channel=0 note=71 velocity=0 time=60
note_on channel=0 note=62 velocity=35 time=20
note_on channel=0 note=56 velocity=0 time=16
<meta message set_tempo tempo=731707 time=24>
note_on channel=0 note=64 velocity=35 time=40
note_on channel=0 note=62 velocity=0 time=16
<meta message set_tempo tempo=705882 time=64>
note_on channel=0 note=64 velocity=0 time=0
note_on channel=0 note=71 velocity=49 time=0
note_on channel=0 note=56 velocity=40 time=0
control_change channel=0 control=64 value=127 time=3
note_on channel=0 note=71 velocity=0 time=37
note_on channel=0 note=73 velocity=47 time=0
note_on channel=0 note=73 velocity=0 time=40
note_on channel=0 note=71 velocity=47 time=0
note_on channel=0 note=62 velocity=34 time=0
note_on channel=0 note=56 velocity=0 time=16
note_on channel=0 note=71 velocity=0 time=24
note_on channel=0 note=69 velocity=49 time=0
note_on channel=0 note=64 velocity=34 time=40
note_on channel=0 note=62 velocity=0 time=16
note_on channel=0 note=69 velocity=0 time=4
note_on channel=0 note=71 velocity=49 time=0
<meta message set_tempo tempo=705882 time=60>
note_on channel=0 note=71 velocity=0 time=0
note_on channel=0 note=64 velocity=0 time=0
note_on channel=0 note=73 velocity=58 time=0
note_on channel=0 note=57 velocity=44 time=0
control_change channel=0 control=64 value=0 time=0
note_on channel=0 note=73 velocity=0 time=60
note_on channel=0 note=61 velocity=34 time=20
note_on channel=0 note=57 velocity=0 time=16
note_on channel=0 note=64 velocity=34 time=64
note_on channel=0 note=61 velocity=0 time=16
note_on channel=0 note=64 velocity=0 time=64
note_on channel=0 note=73 velocity=54 time=0
note_on channel=0 note=57 velocity=40 time=0
note_on channel=0 note=73 velocity=0 time=60
note_on channel=0 note=61 velocity=33 time=20
note_on channel=0 note=57 velocity=0 time=16
<meta message set_tempo tempo=779221 time=24>
note_on channel=0 note=64 velocity=33 time=40
note_on channel=0 note=61 velocity=0 time=16
<meta message set_tempo tempo=705882 time=64>
note_on channel=0 note=64 velocity=0 time=0
note_on channel=0 note=71 velocity=61 time=0
note_on channel=0 note=76 velocity=61 time=0
note_on channel=0 note=50 velocity=42 time=0
note_on channel=0 note=76 velocity=0 time=60
note_on channel=0 note=74 velocity=51 time=0
note_on channel=0 note=54 velocity=37 time=20
note_on channel=0 note=50 velocity=0 time=16
<meta message set_tempo tempo=821918 time=24>
note_on channel=0 note=59 velocity=37 time=40
note_on channel=0 note=54 velocity=0 time=16
<meta message set_tempo tempo=740741 time=64>
note_on channel=0 note=71 velocity=0 time=0
note_on channel=0 note=74 velocity=0 time=0
note_on channel=0 note=59 velocity=0 time=0
note_on channel=0 note=69 velocity=55 time=0
note_on channel=0 note=73 velocity=55 time=0
note_on channel=0 note=52 velocity=44 time=0
control_change channel=0 control=64 value=127 time=53
note_on channel=0 note=57 velocity=40 time=27
note_on channel=0 note=52 velocity=0 time=16
note_on channel=0 note=61 velocity=40 time=64
note_on channel=0 note=57 velocity=0 time=16
note_on channel=0 note=61 velocity=0 time=64
note_on channel=0 note=52 velocity=44 time=0
note_on channel=0 note=57 velocity=42 time=80
note_on channel=0 note=52 velocity=0 time=16
note_on channel=0 note=61 velocity=44 time=64
note_on channel=0 note=57 velocity=0 time=16
note_on channel=0 note=69 velocity=0 time=64
note_on channel=0 note=73 velocity=0 time=0
note_on channel=0 note=61 velocity=0 time=0
note_on channel=0 note=71 velocity=53 time=0
note_on channel=0 note=68 velocity=53 time=0
note_on channel=0 note=52 velocity=48 time=0
control_change channel=0 control=64 value=0 time=11
control_change channel=0 control=64 value=127 time=67
note_on channel=0 note=56 velocity=41 time=2
note_on channel=0 note=52 velocity=0 time=16
note_on channel=0 note=59 velocity=42 time=64
note_on channel=0 note=56 velocity=0 time=16
<meta message set_tempo tempo=705882 time=64>
note_on channel=0 note=71 velocity=0 time=0
note_on channel=0 note=68 velocity=0 time=0
note_on channel=0 note=59 velocity=0 time=0
note_on channel=0 note=73 velocity=74 time=0
note_on channel=0 note=45 velocity=74 time=0
control_change channel=0 control=64 value=0 time=0
control_change channel=0 control=64 value=127 time=32
note_on channel=0 note=69 velocity=53 time=48
note_on channel=0 note=73 velocity=0 time=16
note_on channel=0 note=45 velocity=0 time=24
note_on channel=0 note=64 velocity=53 time=40
note_on channel=0 note=69 velocity=0 time=16
note_on channel=0 note=56 velocity=67 time=34
note_on channel=0 note=56 velocity=0 time=30
note_on channel=0 note=64 velocity=0 time=0
note_on channel=0 note=73 velocity=72 time=0
note_on channel=0 note=57 velocity=74 time=0
control_change channel=0 control=64 value=0 time=5
note_on channel=0 note=69 velocity=53 time=75
note_on channel=0 note=73 velocity=0 time=16
<meta message set_tempo tempo=731707 time=24>
note_on channel=0 note=57 velocity=0 time=0
note_on channel=0 note=64 velocity=53 time=40
note_on channel=0 note=69 velocity=0 time=16
<meta message set_tempo tempo=705882 time=64>
note_on channel=0 note=64 velocity=0 time=0
note_on channel=0 note=74 velocity=71 time=0
control_change channel=0 control=64 value=127 time=25
note_on channel=0 note=71 velocity=53 time=55
note_on channel=0 note=74 velocity=0 time=16
note_on channel=0 note=64 velocity=53 time=64
note_on channel=0 note=71 velocity=0 time=16
note_on channel=0 note=64 velocity=0 time=64
note_on channel=0 note=76 velocity=70 time=0
note_on channel=0 note=45 velocity=74 time=0
control_change channel=0 control=64 value=0 time=9
control_change channel=0 control=64 value=127 time=37
note_on channel=0 note=73 velocity=53 time=34
note_on channel=0 note=76 velocity=0 time=16
note_on channel=0 note=45 velocity=0 time=24
note_on channel=0 note=64 velocity=53 time=40
note_on channel=0 note=73 velocity=0 time=16
note_on channel=0 note=56 velocity=67 time=34
note_on channel=0 note=56 velocity=0 time=30
note_on channel=0 note=64 velocity=0 time=0
note_on channel=0 note=76 velocity=71 time=0
note_on channel=0 note=57 velocity=72 time=0
control_change channel=0 control=64 value=0 time=8
note_on channel=0 note=73 velocity=53 time=72
note_on channel=0 note=76 velocity=0 time=16
<meta message set_tempo tempo=759494 time=24>
note_on channel=0 note=57 velocity=0 time=0
note_on channel=0 note=64 velocity=53 time=40
note_on channel=0 note=73 velocity=0 time=16
<meta message set_tempo tempo=681818 time=46>
note_on channel=0 note=64 velocity=0 time=18
note_on channel=0 note=78 velocity=68 time=0
<meta message set_tempo tempo=689655 time=22>
note_on channel=0 note=78 velocity=0 time=38
note_on channel=0 note=76 velocity=66 time=0
<meta message set_tempo tempo=697674 time=2>
control_change channel=0 control=64 value=127 time=5
<meta message set_tempo tempo=705882 time=35>
note_on channel=0 note=76 velocity=0 time=18
note_on channel=0 note=74 velocity=64 time=0
<meta message set_tempo tempo=714286 time=22>
note_on channel=0 note=74 velocity=0 time=38
note_on channel=0 note=73 velocity=62 time=0
<meta message set_tempo tempo=722892 time=2>
<meta message set_tempo tempo=731707 time=20>
<meta message set_tempo tempo=705882 time=38>
note_on channel=0 note=73 velocity=0 time=0
note_on channel=0 note=71 velocity=74 time=0
note_on channel=0 note=40 velocity=74 time=0
control_change channel=0 control=64 value=0 time=4
control_change channel=0 control=64 value=127 time=28
note_on channel=0 note=68 velocity=53 time=48
note_on channel=0 note=71 velocity=0 time=16
note_on channel=0 note=40 velocity=0 time=24
note_on channel=0 note=64 velocity=53 time=40
note_on channel=0 note=68 velocity=0 time=16
note_on channel=0 note=51 velocity=67 time=4
note_on channel=0 note=51 velocity=0 time=30
note_on channel=0 note=64 velocity=0 time=30
note_on channel=0 note=71 velocity=72 time=0
note_on channel=0 note=52 velocity=74 time=0
control_change channel=0 control=64 value=0 time=9
note_on channel=0 note=68 velocity=53 time=71
note_on channel=0 note=71 velocity=0 time=16
<meta message set_tempo tempo=731707 time=24>
note_on channel=0 note=52 velocity=0 time=0
note_on channel=0 note=64 velocity=53 time=40
note_on channel=0 note=68 velocity=0 time=16
<meta message set_tempo tempo=705882 time=64>
note_on channel=0 note=64 velocity=0 time=0
note_on channel=0 note=73 velocity=71 time=0
control_change channel=0 control=64 value=127 time=25
note_on channel=0 note=69 velocity=53 time=55
note_on channel=0 note=73 velocity=0 time=16
note_on channel=0 note=64 velocity=53 time=64
note_on channel=0 note=69 velocity=0 time=16
note_on channel=0 note=64 velocity=0 time=64
note_on channel=0 note=74 velocity=70 time=0
note_on channel=0 note=40 velocity=74 time=0
control_change channel=0 control=64 value=0 time=10
control_change channel=0 control=64 value=127 time=36
note_on channel=0 note=71 velocity=53 time=34
note_on channel=0 note=74 velocity=0 time=16
note_on channel=0 note=40 velocity=0 time=24
note_on channel=0 note=64 velocity=53 time=40
note_on channel=0 note=71 velocity=0 time=16
note_on channel=0 note=51 velocity=67 time=4
note_on channel=0 note=51 velocity=0 time=30
note_on channel=0 note=64 velocity=0 time=30
note_on channel=0 note=74 velocity=71 time=0
note_on channel=0 note=52 velocity=72 time=0
control_change channel=0 control=64 value=0 time=2
note_on channel=0 note=71 velocity=53 time=78
note_on channel=0 note=74 velocity=0 time=16
<meta message set_tempo tempo=759494 time=24>
note_on channel=0 note=52 velocity=0 time=0
note_on channel=0 note=64 velocity=53 time=40
note_on channel=0 note=71 velocity=0 time=16
<meta message set_tempo tempo=681818 time=46>
note_on channel=0 note=64 velocity=0 time=18
note_on channel=0 note=76 velocity=68 time=0
<meta message set_tempo tempo=689655 time=22>
note_on channel=0 note=76 velocity=0 time=38
note_on channel=0 note=74 velocity=66 time=0
<meta message set_tempo tempo=697674 time=2>
control_change channel=0 control=64 value=127 time=5
<meta message set_tempo tempo=705882 time=35>
note_on channel=0 note=74 velocity=0 time=18
note_on channel=0 note=73 velocity=64 time=0
<meta message set_tempo tempo=714286 time=22>
note_on channel=0 note=73 velocity=0 time=38
note_on channel=0 note=71 velocity=62 time=0
<meta message set_tempo tempo=722892 time=2>
<meta message set_tempo tempo=731707 time=20>
<meta message set_tempo tempo=705882 time=38>
note_on channel=0 note=71 velocity=0 time=0
note_on channel=0 note=69 velocity=74 time=0
note_on channel=0 note=40 velocity=74 time=0
control_change channel=0 control=64 value=0 time=3
control_change channel=0 control=64 value=127 time=29
note_on channel=0 note=64 velocity=53 time=48
note_on channel=0 note=69 velocity=0 time=16
note_on channel=0 note=40 velocity=0 time=24
note_on channel=0 note=61 velocity=53 time=40
note_on channel=0 note=64 velocity=0 time=16
note_on channel=0 note=53 velocity=59 time=4
note_on channel=0 note=53 velocity=0 time=30
<meta message set_tempo tempo=705882 time=30>
note_on channel=0 note=61 velocity=0 time=0
note_on channel=0 note=69 velocity=72 time=0
note_on channel=0 note=54 velocity=68 time=0
control_change channel=0 control=64 value=0 time=10
note_on channel=0 note=64 velocity=53 time=70
note_on channel=0 note=69 velocity=0 time=16
note_on channel=0 note=54 velocity=0 time=24
note_on channel=0 note=61 velocity=53 time=40
note_on channel=0 note=64 velocity=0 time=16
note_on channel=0 note=55 velocity=62 time=4
<meta message set_tempo tempo=674157 time=60>
note_on channel=0 note=55 velocity=0 time=0
note_on channel=0 note=61 velocity=0 time=0
note_on channel=0 note=71 velocity=71 time=0
note_on channel=0 note=56 velocity=70 time=0
note_on channel=0 note=64 velocity=53 time=80
note_on channel=0 note=71 velocity=0 time=16
note_on channel=0 note=56 velocity=0 time=24
note_on channel=0 note=62 velocity=53 time=40
note_on channel=0 note=64 velocity=0 time=16
<meta message set_tempo tempo=705882 time=64>
note_on channel=0 note=62 velocity=0 time=0
note_on channel=0 note=73 velocity=74 time=0
note_on channel=0 note=45 velocity=74 time=0
control_change channel=0 control=64 value=127 time=57
note_on channel=0 note=69 velocity=53 time=23
note_on channel=0 note=73 velocity=0 time=16
note_on channel=0 note=45 velocity=0 time=24
note_on channel=0 note=64 velocity=53 time=40
note_on channel=0 note=69 velocity=0 time=16
note_on channel=0 note=56 velocity=63 time=4
note_on channel=0 note=56 velocity=0 time=30
note_on channel=0 note=64 velocity=0 time=30
note_on channel=0 note=73 velocity=72 time=0
note_on channel=0 note=57 velocity=67 time=0
control_change channel=0 control=64 value=0 time=2
note_on channel=0 note=69 velocity=53 time=78
note_on channel=0 note=73 velocity=0 time=16
note_on channel=0 note=57 velocity=0 time=24
note_on channel=0 note=64 velocity=53 time=40
note_on channel=0 note=69 velocity=0 time=16
note_on channel=0 note=49 velocity=63 time=4
<meta message set_tempo tempo=697674 time=60>
note_on channel=0 note=49 velocity=0 time=0
note_on channel=0 note=64 velocity=0 time=0
note_on channel=0 note=74 velocity=71 time=0
note_on channel=0 note=50 velocity=69 time=0
note_on channel=0 note=71 velocity=53 time=80
note_on channel=0 note=74 velocity=0 time=16
note_on channel=0 note=50 velocity=0 time=24
note_on channel=0 note=66 velocity=53 time=40
note_on channel=0 note=71 velocity=0 time=16
<meta message set_tempo tempo=705882 time=64>
note_on channel=0 note=66 velocity=0 time=0
note_on channel=0 note=73 velocity=74 time=0
note_on channel=0 note=40 velocity=74 time=0
control_change channel=0 control=64 value=127 time=32
note_on channel=0 note=69 velocity=53 time=48
note_on channel=0 note=73 velocity=0 time=16
note_on channel=0 note=40 velocity=0 time=24
note_on channel=0 note=64 velocity=53 time=40
note_on channel=0 note=69 velocity=0 time=16
note_on channel=0 note=51 velocity=62 time=4
note_on channel=0 note=51 velocity=0 time=30
note_on channel=0 note=64 velocity=0 time=30
note_on channel=0 note=73 velocity=72 time=0
note_on channel=0 note=52 velocity=67 time=0
control_change channel=0 control=64 value=0 time=8
note_on channel=0 note=69 velocity=53 time=72
note_on channel=0 note=73 velocity=0 time=16
note_on channel=0 note=52 velocity=0 time=24
note_on channel=0 note=64 velocity=53 time=40
note_on channel=0 note=69 velocity=0 time=16
note_on channel=0 note=51 velocity=61 time=4
note_on channel=0 note=51 velocity=0 time=60
note_on channel=0 note=64 velocity=0 time=0
note_on channel=0 note=71 velocity=71 time=0
note_on channel=0 note=52 velocity=68 time=0
note_on channel=0 note=68 velocity=53 time=80
note_on channel=0 note=71 velocity=0 time=16
note_on channel=0 note=52 velocity=0 time=24
note_on channel=0 note=62 velocity=53 time=40
note_on channel=0 note=68 velocity=0 time=16
<meta message set_tempo tempo=740741 time=64>
note_on channel=0 note=62 velocity=0 time=0
note_on channel=0 note=69 velocity=74 time=0
note_on channel=0 note=33 velocity=74 time=0
control_change channel=0 control=64 value=127 time=12
note_on channel=0 note=64 velocity=53 time=68
note_on channel=0 note=69 velocity=0 time=16
note_on channel=0 note=33 velocity=0 time=24
note_on channel=0 note=61 velocity=53 time=40
note_on channel=0 note=64 velocity=0 time=16
note_on channel=0 note=44 velocity=61 time=4
note_on channel=0 note=44 velocity=0 time=30
note_on channel=0 note=57 velocity=72 time=30
note_on channel=0 note=45 velocity=67 time=0
control_change channel=0 control=64 value=0 time=12
note_on channel=0 note=61 velocity=0 time=4
note_on channel=0 note=45 velocity=0 time=104
note_on channel=0 note=57 velocity=0 time=0
<meta message set_tempo tempo=705882 time=360>
note_on channel=0 note=73 velocity=53 time=0
note_on channel=0 note=57 velocity=44 time=0
note_on channel=0 note=73 velocity=0 time=60
note_on channel=0 note=63 velocity=33 time=20
note_on channel=0 note=57 velocity=0 time=16
note_on channel=0 note=64 velocity=33 time=64
note_on channel=0 note=63 velocity=0 time=16
note_on channel=0 note=64 velocity=0 time=64
note_on channel=0 note=73 velocity=49 time=0
note_on channel=0 note=57 velocity=40 time=0
note_on channel=0 note=73 velocity=0 time=60
note_on channel=0 note=63 velocity=32 time=20
note_on channel=0 note=57 velocity=0 time=16
<meta message set_tempo tempo=731707 time=24>
note_on channel=0 note=64 velocity=32 time=40
note_on channel=0 note=63 velocity=0 time=16
<meta message set_tempo tempo=705882 time=64>
note_on channel=0 note=64 velocity=0 time=0
note_on channel=0 note=74 velocity=49 time=0
note_on channel=0 note=59 velocity=40 time=0
control_change channel=0 control=64 value=127 time=15
note_on channel=0 note=74 velocity=0 time=25
note_on channel=0 note=76 velocity=47 time=0
note_on channel=0 note=76 velocity=0 time=40
note_on channel=0 note=74 velocity=47 time=0
note_on channel=0 note=63 velocity=32 time=0
note_on channel=0 note=59 velocity=0 time=16
note_on channel=0 note=74 velocity=0 time=24
note_on channel=0 note=73 velocity=49 time=0
note_on channel=0 note=64 velocity=32 time=40
note_on channel=0 note=63 velocity=0 time=16
note_on channel=0 note=73 velocity=0 time=4
note_on channel=0 note=74 velocity=49 time=0
note_on channel=0 note=74 velocity=0 time=60
note_on channel=0 note=64 velocity=0 time=0
note_on channel=0 note=76 velocity=53 time=0
note_on channel=0 note=61 velocity=41 time=0
control_change channel=0 control=64 value=0 time=9
note_on channel=0 note=63 velocity=30 time=71
note_on channel=0 note=61 velocity=0 time=16
note_on channel=0 note=64 velocity=30 time=64
note_on channel=0 note=63 velocity=0 time=16
note_on channel=0 note=64 velocity=0 time=64
note_on channel=0 note=76 velocity=0 time=0
note_on channel=0 note=61 velocity=40 time=0
note_on channel=0 note=63 velocity=28 time=80
note_on channel=0 note=61 velocity=0 time=16
<meta message set_tempo tempo=759494 time=24>
note_on channel=0 note=64 velocity=28 time=40
note_on channel=0 note=63 velocity=0 time=16
<meta message set_tempo tempo=681818 time=46>
note_on channel=0 note=64 velocity=0 time=18
note_on channel=0 note=78 velocity=53 time=0
note_on channel=0 note=57 velocity=40 time=0
<meta message set_tempo tempo=689655 time=22>
note_on channel=0 note=76 velocity=52 time=38
<meta message set_tempo tempo=697674 time=2>
note_on channel=0 note=78 velocity=0 time=4
note_on channel=0 note=63 velocity=34 time=14
note_on channel=0 note=57 velocity=0 time=16
<meta message set_tempo tempo=705882 time=6>
note_on channel=0 note=74 velocity=51 time=18
note_on channel=0 note=76 velocity=0 time=6
<meta message set_tempo tempo=714286 time=16>
note_on channel=0 note=64 velocity=36 time=18
note_on channel=0 note=63 velocity=0 time=16
note_on channel=0 note=73 velocity=49 time=4
<meta message set_tempo tempo=722892 time=2>
note_on channel=0 note=74 velocity=0 time=4
<meta message set_tempo tempo=731707 time=16>
<meta message set_tempo tempo=705882 time=38>
note_on channel=0 note=64 velocity=0 time=0
note_on channel=0 note=71 velocity=53 time=0
note_on channel=0 note=56 velocity=44 time=0
note_on channel=0 note=73 velocity=0 time=6
note_on channel=0 note=71 velocity=0 time=54
note_on channel=0 note=63 velocity=33 time=20
note_on channel=0 note=56 velocity=0 time=16
note_on channel=0 note=64 velocity=33 time=64
note_on channel=0 note=63 velocity=0 time=16
note_on channel=0 note=64 velocity=0 time=64
note_on channel=0 note=71 velocity=49 time=0
note_on channel=0 note=56 velocity=40 time=0
note_on channel=0 note=71 velocity=0 time=60
note_on channel=0 note=63 velocity=33 time=20
note_on channel=0 note=56 velocity=0 time=16
<meta message set_tempo tempo=731707 time=24>
note_on channel=0 note=64 velocity=33 time=40
note_on channel=0 note=63 velocity=0 time=16
<meta message set_tempo tempo=705882 time=64>
note_on channel=0 note=64 velocity=0 time=0
note_on channel=0 note=73 velocity=49 time=0
note_on channel=0 note=57 velocity=40 time=0
control_change channel=0 control=64 value=127 time=26
note_on channel=0 note=73 velocity=0 time=14
note_on channel=0 note=74 velocity=47 time=0
note_on channel=0 note=74 velocity=0 time=40
note_on channel=0 note=73 velocity=47 time=0
note_on channel=0 note=63 velocity=33 time=0
note_on channel=0 note=57 velocity=0 time=16
note_on channel=0 note=73 velocity=0 time=24
note_on channel=0 note=71 velocity=49 time=0
note_on channel=0 note=64 velocity=33 time=40
note_on channel=0 note=63 velocity=0 time=16
note_on channel=0 note=71 velocity=0 time=4
note_on channel=0 note=73 velocity=49 time=0
note_on channel=0 note=73 velocity=0 time=60
note_on channel=0 note=64 velocity=0 time=0
note_on channel=0 note=74 velocity=53 time=0
note_on channel=0 note=59 velocity=45 time=0
control_change channel=0 control=64 value=0 time=10
note_on channel=0 note=63 velocity=34 time=70
note_on channel=0 note=59 velocity=0 time=16
note_on channel=0 note=64 velocity=34 time=64
note_on channel=0 note=63 velocity=0 time=16
note_on channel=0 note=64 velocity=0 time=64
note_on channel=0 note=74 velocity=0 time=0
note_on channel=0 note=59 velocity=38 time=0
note_on channel=0 note=63 velocity=30 time=80
note_on channel=0 note=59 velocity=0 time=16
<meta message set_tempo tempo=759494 time=24>
note_on channel=0 note=64 velocity=31 time=40
note_on channel=0 note=63 velocity=0 time=16
<meta message set_tempo tempo=681818 time=46>
note_on channel=0 note=64 velocity=0 time=18
note_on channel=0 note=76 velocity=53 time=0
note_on channel=0 note=56 velocity=40 time=0
<meta message set_tempo tempo=689655 time=22>
note_on channel=0 note=74 velocity=52 time=38
<meta message set_tempo tempo=697674 time=2>
note_on channel=0 note=76 velocity=0 time=4
note_on channel=0 note=63 velocity=36 time=14
note_on channel=0 note=56 velocity=0 time=16
<meta message set_tempo tempo=705882 time=6>
note_on channel=0 note=73 velocity=51 time=18
note_on channel=0 note=74 velocity=0 time=6
<meta message set_tempo tempo=714286 time=16>
note_on channel=0 note=64 velocity=36 time=18
note_on channel=0 note=63 velocity=0 time=16
note_on channel=0 note=71 velocity=49 time=4
<meta message set_tempo tempo=722892 time=2>
note_on channel=0 note=73 velocity=0 time=4
<meta message set_tempo tempo=731707 time=16>
<meta message set_tempo tempo=705882 time=38>
note_on channel=0 note=64 velocity=0 time=0
note_on channel=0 note=69 velocity=53 time=0
note_on channel=0 note=54 velocity=44 time=0
note_on channel=0 note=71 velocity=0 time=6
note_on channel=0 note=69 velocity=0 time=54
note_on channel=0 note=63 velocity=35 time=20
note_on channel=0 note=54 velocity=0 time=16
note_on channel=0 note=64 velocity=35 time=64
note_on channel=0 note=63 velocity=0 time=16
note_on channel=0 note=64 velocity=0 time=64
note_on channel=0 note=69 velocity=49 time=0
note_on channel=0 note=54 velocity=40 time=0
note_on channel=0 note=69 velocity=0 time=60
note_on channel=0 note=63 velocity=32 time=20
note_on channel=0 note=54 velocity=0 time=16
<meta message set_tempo tempo=731707 time=24>
note_on channel=0 note=64 velocity=32 time=40
note_on channel=0 note=63 velocity=0 time=16
<meta message set_tempo tempo=705882 time=64>
note_on channel=0 note=64 velocity=0 time=0
note_on channel=0 note=69 velocity=49 time=0
note_on channel=0 note=54 velocity=40 time=0
control_change channel=0 control=64 value=127 time=26
note_on channel=0 note=69 velocity=0 time=14
note_on channel=0 note=71 velocity=47 time=0
note_on channel=0 note=71 velocity=0 time=40
note_on channel=0 note=69 velocity=47 time=0
note_on channel=0 note=63 velocity=32 time=0
note_on channel=0 note=54 velocity=0 time=16
note_on channel=0 note=69 velocity=0 time=24
note_on channel=0 note=68 velocity=49 time=0
note_on channel=0 note=64 velocity=32 time=40
note_on channel=0 note=63 velocity=0 time=16
note_on channel=0 note=68 velocity=0 time=4
note_on channel=0 note=69 velocity=49 time=0
<meta message set_tempo tempo=705882 time=60>
note_on channel=0 note=69 velocity=0 time=0
note_on channel=0 note=64 velocity=0 time=0
note_on channel=0 note=71 velocity=53 time=0
note_on channel=0 note=56 velocity=44 time=0
control_change channel=0 control=64 value=0 time=7
note_on channel=0 note=71 velocity=0 time=53
note_on channel=0 note=62 velocity=34 time=20
note_on channel=0 note=56 velocity=0 time=16
note_on channel=0 note=64 velocity=34 time=64
note_on channel=0 note=62 velocity=0 time=16
note_on channel=0 note=64 velocity=0 time=64
note_on channel=0 note=71 velocity=49 time=0
note_on channel=0 note=56 velocity=40 time=0
note_on channel=0 note=71 velocity=0 time=60
note_on channel=0 note=62 velocity=32 time=20
note_on channel=0 note=56 velocity=0 time=16
<meta message set_tempo tempo=731707 time=24>
note_on channel=0 note=64 velocity=32 time=40
note_on channel=0 note=62 velocity=0 time=16
<meta message set_tempo tempo=705882 time=64>
note_on channel=0 note=64 velocity=0 time=0
note_on channel=0 note=71 velocity=49 time=0
note_on channel=0 note=56 velocity=40 time=0
control_change channel=0 control=64 value=127 time=3
note_on channel=0 note=71 velocity=0 time=37
note_on channel=0 note=73 velocity=47 time=0
note_on channel=0 note=73 velocity=0 time=40
note_on channel=0 note=71 velocity=47 time=0
note_on channel=0 note=62 velocity=32 time=0
note_on channel=0 note=56 velocity=0 time=16
note_on channel=0 note=71 velocity=0 time=24
note_on channel=0 note=69 velocity=49 time=0
note_on channel=0 note=64 velocity=32 time=40
note_on channel=0 note=62 velocity=0 time=16
note_on channel=0 note=69 velocity=0 time=4
note_on channel=0 note=71 velocity=49 time=0
<meta message set_tempo tempo=705882 time=60>
note_on channel=0 note=71 velocity=0 time=0
note_on channel=0 note=64 velocity=0 time=0
note_on channel=0 note=73 velocity=58 time=0
note_on channel=0 note=57 velocity=44 time=0
control_change channel=0 control=64 value=0 time=0
note_on channel=0 note=73 velocity=0 time=60
note_on channel=0 note=61 velocity=35 time=20
note_on channel=0 note=57 velocity=0 time=16
note_on channel=0 note=64 velocity=33 time=64
note_on channel=0 note=61 velocity=0 time=16
note_on channel=0 note=64 velocity=0 time=64
note_on channel=0 note=73 velocity=54 time=0
note_on channel=0 note=57 velocity=40 time=0
note_on channel=0 note=73 velocity=0 time=60
note_on channel=0 note=61 velocity=35 time=20
note_on channel=0 note=57 velocity=0 time=16
<meta message set_tempo tempo=779221 time=24>
note_on channel=0 note=64 velocity=35 time=40
note_on channel=0 note=61 velocity=0 time=16
<meta message set_tempo tempo=705882 time=64>
note_on channel=0 note=64 velocity=0 time=0
note_on channel=0 note=71 velocity=61 time=0
note_on channel=0 note=76 velocity=61 time=0
note_on channel=0 note=50 velocity=42 time=0
note_on channel=0 note=76 velocity=0 time=60
note_on channel=0 note=74 velocity=51 time=0
note_on channel=0 note=54 velocity=37 time=20
note_on channel=0 note=50 velocity=0 time=16
<meta message set_tempo tempo=821918 time=24>
note_on channel=0 note=59 velocity=37 time=40
note_on channel=0 note=54 velocity=0 time=16
<meta message set_tempo tempo=740741 time=64>
note_on channel=0 note=71 velocity=0 time=0
note_on channel=0 note=74 velocity=0 time=0
note_on channel=0 note=59 velocity=0 time=0
note_on channel=0 note=69 velocity=55 time=0
note_on channel=0 note=73 velocity=55 time=0
note_on channel=0 note=52 velocity=44 time=0
control_change channel=0 control=64 value=127 time=53
note_on channel=0 note=57 velocity=40 time=27
note_on channel=0 note=52 velocity=0 time=16
note_on channel=0 note=61 velocity=40 time=64
note_on channel=0 note=57 velocity=0 time=16
note_on channel=0 note=61 velocity=0 time=64
note_on channel=0 note=52 velocity=44 time=0
note_on channel=0 note=57 velocity=42 time=80
note_on channel=0 note=52 velocity=0 time=16
note_on channel=0 note=61 velocity=44 time=64
note_on channel=0 note=57 velocity=0 time=16
note_on channel=0 note=69 velocity=0 time=64
note_on channel=0 note=73 velocity=0 time=0
note_on channel=0 note=61 velocity=0 time=0
note_on channel=0 note=71 velocity=53 time=0
note_on channel=0 note=68 velocity=53 time=0
note_on channel=0 note=52 velocity=48 time=0
control_change channel=0 control=64 value=0 time=11
control_change channel=0 control=64 value=127 time=67
note_on channel=0 note=56 velocity=41 time=2
note_on channel=0 note=52 velocity=0 time=16
note_on channel=0 note=59 velocity=42 time=63
note_on channel=0 note=56 velocity=0 time=17
note_on channel=0 note=59 velocity=0 time=63
<meta message set_tempo tempo=705882 time=1>
note_on channel=0 note=68 velocity=0 time=0
note_on channel=0 note=71 velocity=0 time=0
note_on channel=0 note=73 velocity=74 time=0
note_on channel=0 note=45 velocity=74 time=0
control_change channel=0 control=64 value=0 time=0
control_change channel=0 control=64 value=127 time=32
note_on channel=0 note=69 velocity=53 time=48
note_on channel=0 note=73 velocity=0 time=16
note_on channel=0 note=45 velocity=0 time=24
note_on channel=0 note=64 velocity=53 time=40
note_on channel=0 note=69 velocity=0 time=16
note_on channel=0 note=56 velocity=67 time=34
note_on channel=0 note=56 velocity=0 time=30
note_on channel=0 note=64 velocity=0 time=0
note_on channel=0 note=73 velocity=72 time=0
note_on channel=0 note=57 velocity=74 time=0
control_change channel=0 control=64 value=0 time=10
note_on channel=0 note=69 velocity=53 time=70
note_on channel=0 note=73 velocity=0 time=16
<meta message set_tempo tempo=731707 time=24>
note_on channel=0 note=57 velocity=0 time=0
note_on channel=0 note=64 velocity=53 time=40
note_on channel=0 note=69 velocity=0 time=16
<meta message set_tempo tempo=705882 time=64>
note_on channel=0 note=64 velocity=0 time=0
note_on channel=0 note=74 velocity=71 time=0
control_change channel=0 control=64 value=127 time=25
note_on channel=0 note=71 velocity=53 time=55
note_on channel=0 note=74 velocity=0 time=16
note_on channel=0 note=64 velocity=53 time=63
note_on channel=0 note=71 velocity=0 time=17
note_on channel=0 note=64 velocity=0 time=63
note_on channel=0 note=76 velocity=70 time=1
note_on channel=0 note=45 velocity=74 time=0
control_change channel=0 control=64 value=0 time=11
control_change channel=0 control=64 value=127 time=35
note_on channel=0 note=73 velocity=53 time=34
note_on channel=0 note=76 velocity=0 time=16
note_on channel=0 note=45 velocity=0 time=24
note_on channel=0 note=64 velocity=53 time=40
note_on channel=0 note=73 velocity=0 time=16
note_on channel=0 note=56 velocity=67 time=34
note_on channel=0 note=56 velocity=0 time=30
note_on channel=0 note=64 velocity=0 time=0
note_on channel=0 note=76 velocity=71 time=0
note_on channel=0 note=57 velocity=72 time=0
control_change channel=0 control=64 value=0 time=10
note_on channel=0 note=73 velocity=53 time=70
note_on channel=0 note=76 velocity=0 time=16
<meta message set_tempo tempo=759494 time=24>
note_on channel=0 note=57 velocity=0 time=0
note_on channel=0 note=64 velocity=53 time=40
note_on channel=0 note=73 velocity=0 time=16
<meta message set_tempo tempo=681818 time=46>
note_on channel=0 note=64 velocity=0 time=18
note_on channel=0 note=78 velocity=68 time=0
<meta message set_tempo tempo=689655 time=22>
note_on channel=0 note=78 velocity=0 time=38
note_on channel=0 note=76 velocity=66 time=0
<meta message set_tempo tempo=697674 time=2>
control_change channel=0 control=64 value=127 time=5
<meta message set_tempo tempo=705882 time=35>
note_on channel=0 note=76 velocity=0 time=18
note_on channel=0 note=74 velocity=64 time=0
<meta message set_tempo tempo=714286 time=22>
note_on channel=0 note=74 velocity=0 time=38
note_on channel=0 note=73 velocity=62 time=0
<meta message set_tempo tempo=722892 time=2>
<meta message set_tempo tempo=731707 time=20>
<meta message set_tempo tempo=705882 time=38>
note_on channel=0 note=73 velocity=0 time=0
note_on channel=0 note=71 velocity=74 time=0
note_on channel=0 note=40 velocity=74 time=0
control_change channel=0 control=64 value=0 time=7
control_change channel=0 control=64 value=127 time=25
note_on channel=0 note=68 velocity=53 time=48
note_on channel=0 note=71 velocity=0 time=16
note_on channel=0 note=40 velocity=0 time=24
note_on channel=0 note=64 velocity=53 time=40
note_on channel=0 note=68 velocity=0 time=16
note_on channel=0 note=51 velocity=67 time=4
note_on channel=0 note=51 velocity=0 time=30
note_on channel=0 note=64 velocity=0 time=30
note_on channel=0 note=71 velocity=72 time=0
note_on channel=0 note=52 velocity=74 time=0
control_change channel=0 control=64 value=0 time=7
note_on channel=0 note=68 velocity=53 time=73
note_on channel=0 note=71 velocity=0 time=16
<meta message set_tempo tempo=731707 time=24>
note_on channel=0 note=52 velocity=0 time=0
note_on channel=0 note=64 velocity=53 time=40
note_on channel=0 note=68 velocity=0 time=16
<meta message set_tempo tempo=705882 time=64>
note_on channel=0 note=64 velocity=0 time=0
note_on channel=0 note=73 velocity=71 time=0
control_change channel=0 control=64 value=127 time=25
note_on channel=0 note=69 velocity=53 time=55
note_on channel=0 note=73 velocity=0 time=16
note_on channel=0 note=64 velocity=53 time=64
note_on channel=0 note=69 velocity=0 time=16
note_on channel=0 note=64 velocity=0 time=64
note_on channel=0 note=74 velocity=70 time=0
note_on channel=0 note=40 velocity=74 time=0
control_change channel=0 control=64 value=0 time=7
control_change channel=0 control=64 value=127 time=39
note_on channel=0 note=71 velocity=53 time=34
note_on channel=0 note=74 velocity=0 time=16
note_on channel=0 note=40 velocity=0 time=24
note_on channel=0 note=64 velocity=53 time=40
note_on channel=0 note=71 velocity=0 time=16
note_on channel=0 note=51 velocity=67 time=4
note_on channel=0 note=51 velocity=0 time=30
note_on channel=0 note=64 velocity=0 time=30
note_on channel=0 note=74 velocity=71 time=0
note_on channel=0 note=52 velocity=72 time=0
control_change channel=0 control=64 value=0 time=6
note_on channel=0 note=71 velocity=53 time=74
note_on channel=0 note=74 velocity=0 time=16
<meta message set_tempo tempo=759494 time=24>
note_on channel=0 note=52 velocity=0 time=0
note_on channel=0 note=64 velocity=53 time=40
note_on channel=0 note=71 velocity=0 time=16
<meta message set_tempo tempo=681818 time=46>
note_on channel=0 note=64 velocity=0 time=18
note_on channel=0 note=76 velocity=68 time=0
<meta message set_tempo tempo=689655 time=22>
note_on channel=0 note=76 velocity=0 time=38
note_on channel=0 note=74 velocity=66 time=0
<meta message set_tempo tempo=697674 time=2>
control_change channel=0 control=64 value=127 time=5
<meta message set_tempo tempo=705882 time=35>
note_on channel=0 note=74 velocity=0 time=18
note_on channel=0 note=73 velocity=64 time=0
<meta message set_tempo tempo=714286 time=22>
note_on channel=0 note=73 velocity=0 time=38
note_on channel=0 note=71 velocity=62 time=0
<meta message set_tempo tempo=722892 time=2>
<meta message set_tempo tempo=731707 time=20>
<meta message set_tempo tempo=705882 time=38>
note_on channel=0 note=71 velocity=0 time=0
note_on channel=0 note=69 velocity=74 time=0
note_on channel=0 note=40 velocity=74 time=0
control_change channel=0 control=64 value=0 time=3
control_change channel=0 control=64 value=127 time=29
note_on channel=0 note=64 velocity=53 time=48
note_on channel=0 note=69 velocity=0 time=16
note_on channel=0 note=40 velocity=0 time=24
note_on channel=0 note=61 velocity=53 time=40
note_on channel=0 note=64 velocity=0 time=16
note_on channel=0 note=53 velocity=59 time=4
note_on channel=0 note=53 velocity=0 time=30
<meta message set_tempo tempo=705882 time=30>
note_on channel=0 note=61 velocity=0 time=0
note_on channel=0 note=69 velocity=72 time=0
note_on channel=0 note=54 velocity=68 time=0
control_change channel=0 control=64 value=0 time=5
note_on channel=0 note=64 velocity=53 time=75
note_on channel=0 note=69 velocity=0 time=16
note_on channel=0 note=54 velocity=0 time=24
note_on channel=0 note=61 velocity=53 time=40
note_on channel=0 note=64 velocity=0 time=16
note_on channel=0 note=55 velocity=62 time=4
<meta message set_tempo tempo=674157 time=60>
note_on channel=0 note=55 velocity=0 time=0
note_on channel=0 note=61 velocity=0 time=0
note_on channel=0 note=71 velocity=71 time=0
note_on channel=0 note=56 velocity=70 time=0
note_on channel=0 note=64 velocity=53 time=80
note_on channel=0 note=71 velocity=0 time=16
note_on channel=0 note=56 velocity=0 time=24
note_on channel=0 note=62 velocity=53 time=40
note_on channel=0 note=64 velocity=0 time=16
<meta message set_tempo tempo=705882 time=64>
note_on channel=0 note=62 velocity=0 time=0
note_on channel=0 note=73 velocity=74 time=0
note_on channel=0 note=45 velocity=74 time=0
control_change channel=0 control=64 value=127 time=57
note_on channel=0 note=69 velocity=53 time=23
note_on channel=0 note=73 velocity=0 time=16
note_on channel=0 note=45 velocity=0 time=24
note_on channel=0 note=64 velocity=53 time=40
note_on channel=0 note=69 velocity=0 time=16
note_on channel=0 note=56 velocity=63 time=4
note_on channel=0 note=56 velocity=0 time=30
note_on channel=0 note=64 velocity=0 time=30
note_on channel=0 note=73 velocity=72 time=0
note_on channel=0 note=57 velocity=67 time=0
control_change channel=0 control=64 value=0 time=3
note_on channel=0 note=69 velocity=53 time=77
note_on channel=0 note=73 velocity=0 time=16
note_on channel=0 note=57 velocity=0 time=24
note_on channel=0 note=64 velocity=53 time=40
note_on channel=0 note=69 velocity=0 time=16
note_on channel=0 note=49 velocity=63 time=4
<meta message set_tempo tempo=697674 time=60>
note_on channel=0 note=49 velocity=0 time=0
note_on channel=0 note=64 velocity=0 time=0
note_on channel=0 note=74 velocity=71 time=0
note_on channel=0 note=50 velocity=69 time=0
note_on channel=0 note=71 velocity=53 time=80
note_on channel=0 note=74 velocity=0 time=16
note_on channel=0 note=50 velocity=0 time=24
note_on channel=0 note=66 velocity=53 time=40
note_on channel=0 note=71 velocity=0 time=16
<meta message set_tempo tempo=705882 time=64>
note_on channel=0 note=66 velocity=0 time=0
note_on channel=0 note=73 velocity=74 time=0
note_on channel=0 note=40 velocity=74 time=0
control_change channel=0 control=64 value=127 time=32
note_on channel=0 note=69 velocity=53 time=48
note_on channel=0 note=73 velocity=0 time=16
note_on channel=0 note=40 velocity=0 time=24
note_on channel=0 note=64 velocity=53 time=40
note_on channel=0 note=69 velocity=0 time=16
note_on channel=0 note=51 velocity=62 time=4
note_on channel=0 note=51 velocity=0 time=30
note_on channel=0 note=64 velocity=0 time=30
note_on channel=0 note=73 velocity=72 time=0
note_on channel=0 note=52 velocity=67 time=0
control_change channel=0 control=64 value=0 time=7
note_on channel=0 note=69 velocity=53 time=73
note_on channel=0 note=73 velocity=0 time=16
note_on channel=0 note=52 velocity=0 time=24
note_on channel=0 note=64 velocity=53 time=40
note_on channel=0 note=69 velocity=0 time=16
note_on channel=0 note=51 velocity=61 time=4
note_on channel=0 note=51 velocity=0 time=60
note_on channel=0 note=64 velocity=0 time=0
note_on channel=0 note=71 velocity=71 time=0
note_on channel=0 note=52 velocity=68 time=0
note_on channel=0 note=68 velocity=53 time=80
note_on channel=0 note=71 velocity=0 time=16
note_on channel=0 note=52 velocity=0 time=24
note_on channel=0 note=62 velocity=53 time=40
note_on channel=0 note=68 velocity=0 time=16
<meta message set_tempo tempo=740741 time=64>
note_on channel=0 note=62 velocity=0 time=0
note_on channel=0 note=69 velocity=74 time=0
note_on channel=0 note=33 velocity=74 time=0
control_change channel=0 control=64 value=127 time=12
note_on channel=0 note=64 velocity=53 time=68
note_on channel=0 note=69 velocity=0 time=16
note_on channel=0 note=33 velocity=0 time=24
note_on channel=0 note=61 velocity=53 time=40
note_on channel=0 note=64 velocity=0 time=16
note_on channel=0 note=44 velocity=61 time=4
note_on channel=0 note=44 velocity=0 time=30
note_on channel=0 note=57 velocity=72 time=30
note_on channel=0 note=45 velocity=67 time=0
control_change channel=0 control=64 value=0 time=6
note_on channel=0 note=61 velocity=0 time=10
note_on channel=0 note=45 velocity=0 time=104
note_on channel=0 note=57 velocity=0 time=0
note_on channel=0 note=76 velocity=50 time=360
note_on channel=0 note=57 velocity=37 time=0
note_on channel=0 note=76 velocity=0 time=60
note_on channel=0 note=61 velocity=30 time=20
note_on channel=0 note=57 velocity=0 time=16
note_on channel=0 note=64 velocity=29 time=65
note_on channel=0 note=61 velocity=0 time=15
note_on channel=0 note=74 velocity=48 time=64
note_on channel=0 note=57 velocity=38 time=0
note_on channel=0 note=64 velocity=0 time=1
note_on channel=0 note=74 velocity=0 time=59
note_on channel=0 note=59 velocity=30 time=20
note_on channel=0 note=57 velocity=0 time=16
note_on channel=0 note=62 velocity=30 time=64
note_on channel=0 note=59 velocity=0 time=16
<meta message set_tempo tempo=789474 time=64>
note_on channel=0 note=62 velocity=0 time=0
note_on channel=0 note=76 velocity=50 time=0
note_on channel=0 note=57 velocity=38 time=0
note_on channel=0 note=76 velocity=0 time=60
note_on channel=0 note=61 velocity=30 time=20
note_on channel=0 note=57 velocity=0 time=16
note_on channel=0 note=64 velocity=30 time=64
note_on channel=0 note=61 velocity=0 time=16
<meta message set_tempo tempo=740741 time=64>
note_on channel=0 note=64 velocity=0 time=0
note_on channel=0 note=78 velocity=50 time=0
note_on channel=0 note=57 velocity=38 time=0
note_on channel=0 note=62 velocity=28 time=80
note_on channel=0 note=57 velocity=0 time=16
note_on channel=0 note=78 velocity=0 time=24
note_on channel=0 note=66 velocity=28 time=40
note_on channel=0 note=62 velocity=0 time=16
note_on channel=0 note=66 velocity=0 time=64
note_on channel=0 note=57 velocity=35 time=0
note_on channel=0 note=62 velocity=28 time=80
note_on channel=0 note=57 velocity=0 time=16
note_on channel=0 note=66 velocity=28 time=64
note_on channel=0 note=62 velocity=0 time=16
<meta message set_tempo tempo=810811 time=64>
note_on channel=0 note=66 velocity=0 time=0
note_on channel=0 note=78 velocity=50 time=0
note_on channel=0 note=57 velocity=38 time=0
control_change channel=0 control=64 value=127 time=16
note_on channel=0 note=78 velocity=0 time=4
note_on channel=0 note=80 velocity=44 time=0
note_on channel=0 note=80 velocity=0 time=20
note_on channel=0 note=78 velocity=44 time=0
note_on channel=0 note=78 velocity=0 time=20
note_on channel=0 note=76 velocity=50 time=0
note_on channel=0 note=62 velocity=32 time=20
note_on channel=0 note=57 velocity=0 time=16
note_on channel=0 note=76 velocity=0 time=24
note_on channel=0 note=78 velocity=49 time=0
note_on channel=0 note=66 velocity=32 time=40
note_on channel=0 note=62 velocity=0 time=16
note_on channel=0 note=78 velocity=0 time=4
note_on channel=0 note=80 velocity=49 time=0
<meta message set_tempo tempo=759494 time=60>
note_on channel=0 note=80 velocity=0 time=0
note_on channel=0 note=66 velocity=0 time=0
note_on channel=0 note=81 velocity=56 time=0
note_on channel=0 note=57 velocity=37 time=0
control_change channel=0 control=64 value=0 time=0
note_on channel=0 note=66 velocity=33 time=80
note_on channel=0 note=57 velocity=0 time=16
note_on channel=0 note=81 velocity=0 time=24
note_on channel=0 note=69 velocity=33 time=40
note_on channel=0 note=66 velocity=0 time=16
note_on channel=0 note=69 velocity=0 time=64
note_on channel=0 note=80 velocity=52 time=0
note_on channel=0 note=57 velocity=38 time=0
note_on channel=0 note=80 velocity=0 time=60
note_on channel=0 note=64 velocity=33 time=20
note_on channel=0 note=57 velocity=0 time=16
note_on channel=0 note=68 velocity=33 time=64
note_on channel=0 note=64 velocity=0 time=16
note_on channel=0 note=68 velocity=0 time=64
note_on channel=0 note=78 velocity=50 time=0
note_on channel=0 note=57 velocity=38 time=0
note_on channel=0 note=78 velocity=0 time=60
note_on channel=0 note=62 velocity=34 time=20
note_on channel=0 note=57 velocity=0 time=16
note_on channel=0 note=66 velocity=31 time=64
note_on channel=0 note=62 velocity=0 time=16
<meta message set_tempo tempo=740741 time=64>
note_on channel=0 note=66 velocity=0 time=0
note_on channel=0 note=76 velocity=50 time=0
note_on channel=0 note=57 velocity=36 time=0
note_on channel=0 note=61 velocity=27 time=80
note_on channel=0 note=57 velocity=0 time=16
note_on channel=0 note=76 velocity=0 time=24
note_on channel=0 note=64 velocity=27 time=40
note_on channel=0 note=61 velocity=0 time=16
note_on channel=0 note=64 velocity=0 time=64
note_on channel=0 note=57 velocity=35 time=0
note_on channel=0 note=61 velocity=28 time=80
note_on channel=0 note=57 velocity=0 time=16
note_on channel=0 note=64 velocity=28 time=64
note_on channel=0 note=61 velocity=0 time=16
<meta message set_tempo tempo=810811 time=64>
note_on channel=0 note=64 velocity=0 time=0
note_on channel=0 note=73 velocity=50 time=0
note_on channel=0 note=57 velocity=38 time=0
note_on channel=0 note=73 velocity=0 time=20
note_on channel=0 note=74 velocity=44 time=0
control_change channel=0 control=64 value=127 time=5
note_on channel=0 note=74 velocity=0 time=15
note_on channel=0 note=73 velocity=44 time=0
note_on channel=0 note=73 velocity=0 time=20
note_on channel=0 note=71 velocity=50 time=0
note_on channel=0 note=61 velocity=33 time=20
note_on channel=0 note=57 velocity=0 time=16
note_on channel=0 note=71 velocity=0 time=24
note_on channel=0 note=73 velocity=51 time=0
note_on channel=0 note=64 velocity=33 time=40
note_on channel=0 note=61 velocity=0 time=16
note_on channel=0 note=73 velocity=0 time=4
note_on channel=0 note=74 velocity=55 time=0
control_change channel=0 control=64 value=0 time=60
<meta message set_tempo tempo=759494 time=0>
note_on channel=0 note=74 velocity=0 time=0
note_on channel=0 note=64 velocity=0 time=0
note_on channel=0 note=76 velocity=60 time=0
note_on channel=0 note=57 velocity=42 time=0
control_change channel=0 control=64 value=127 time=42
note_on channel=0 note=61 velocity=34 time=38
note_on channel=0 note=57 velocity=0 time=16
note_on channel=0 note=64 velocity=34 time=64
note_on channel=0 note=61 velocity=0 time=16
note_on channel=0 note=64 velocity=0 time=64
note_on channel=0 note=76 velocity=0 time=0
note_on channel=0 note=73 velocity=58 time=0
note_on channel=0 note=57 velocity=38 time=0
control_change channel=0 control=64 value=0 time=8
note_on channel=0 note=73 velocity=0 time=52
note_on channel=0 note=61 velocity=33 time=20
control_change channel=0 control=64 value=127 time=8
note_on channel=0 note=57 velocity=0 time=8
note_on channel=0 note=64 velocity=33 time=64
note_on channel=0 note=61 velocity=0 time=16
<meta message set_tempo tempo=810811 time=64>
note_on channel=0 note=64 velocity=0 time=0
note_on channel=0 note=57 velocity=38 time=0
control_change channel=0 control=64 value=0 time=7
note_on channel=0 note=61 velocity=34 time=73
note_on channel=0 note=57 velocity=0 time=16
note_on channel=0 note=64 velocity=35 time=64
note_on channel=0 note=61 velocity=0 time=16
note_on channel=0 note=69 velocity=58 time=4
<meta message set_tempo tempo=759494 time=60>
note_on channel=0 note=69 velocity=0 time=0
note_on channel=0 note=64 velocity=0 time=0
note_on channel=0 note=76 velocity=65 time=0
note_on channel=0 note=59 velocity=41 time=0
control_change channel=0 control=64 value=127 time=17
note_on channel=0 note=62 velocity=36 time=63
note_on channel=0 note=59 velocity=0 time=16
note_on channel=0 note=64 velocity=37 time=64
note_on channel=0 note=62 velocity=0 time=16
note_on channel=0 note=64 velocity=0 time=64
note_on channel=0 note=76 velocity=0 time=0
note_on channel=0 note=74 velocity=59 time=0
note_on channel=0 note=59 velocity=44 time=0
control_change channel=0 control=64 value=0 time=9
note_on channel=0 note=74 velocity=0 time=51
note_on channel=0 note=62 velocity=37 time=20
control_change channel=0 control=64 value=127 time=16
note_on channel=0 note=59 velocity=0 time=0
note_on channel=0 note=64 velocity=39 time=64
note_on channel=0 note=62 velocity=0 time=16
<meta message set_tempo tempo=810811 time=64>
note_on channel=0 note=64 velocity=0 time=0
note_on channel=0 note=59 velocity=46 time=0
control_change channel=0 control=64 value=0 time=10
note_on channel=0 note=62 velocity=41 time=70
note_on channel=0 note=59 velocity=0 time=16
note_on channel=0 note=64 velocity=42 time=64
note_on channel=0 note=62 velocity=0 time=16
note_on channel=0 note=71 velocity=66 time=4
control_change channel=0 control=64 value=127 time=60
<meta message set_tempo tempo=759494 time=0>
note_on channel=0 note=71 velocity=0 time=0
note_on channel=0 note=64 velocity=0 time=0
note_on channel=0 note=76 velocity=73 time=0
note_on channel=0 note=57 velocity=47 time=0
note_on channel=0 note=61 velocity=40 time=80
note_on channel=0 note=57 velocity=0 time=16
note_on channel=0 note=64 velocity=40 time=64
note_on channel=0 note=61 velocity=0 time=16
<meta message set_tempo tempo=845070 time=64>
note_on channel=0 note=64 velocity=0 time=0
note_on channel=0 note=76 velocity=0 time=0
note_on channel=0 note=73 velocity=66 time=0
note_on channel=0 note=57 velocity=47 time=0
note_on channel=0 note=61 velocity=38 time=80
note_on channel=0 note=57 velocity=0 time=16
note_on channel=0 note=64 velocity=33 time=64
note_on channel=0 note=61 velocity=0 time=16
<meta message set_tempo tempo=909091 time=64>
note_on channel=0 note=64 velocity=0 time=0
note_on channel=0 note=73 velocity=0 time=0
note_on channel=0 note=69 velocity=50 time=0
note_on channel=0 note=54 velocity=38 time=0
control_change channel=0 control=64 value=0 time=20
control_change channel=0 control=64 value=127 time=40
note_on channel=0 note=69 velocity=0 time=0
note_on channel=0 note=57 velocity=29 time=20
note_on channel=0 note=54 velocity=0 time=16
note_on channel=0 note=63 velocity=29 time=64
note_on channel=0 note=57 velocity=0 time=16
<meta message set_tempo tempo=869565 time=64>
note_on channel=0 note=63 velocity=0 time=0
note_on channel=0 note=73 velocity=50 time=0
note_on channel=0 note=69 velocity=50 time=0
note_on channel=0 note=52 velocity=23 time=0
note_on channel=0 note=64 velocity=29 time=0
control_change channel=0 control=64 value=0 time=11
control_change channel=0 control=64 value=127 time=86
note_on channel=0 note=69 velocity=0 time=383
note_on channel=0 note=73 velocity=0 time=0
note_on channel=0 note=71 velocity=46 time=0
note_on channel=0 note=68 velocity=46 time=0
control_change channel=0 control=64 value=0 time=26
<meta message set_tempo tempo=705882 time=214>
note_on channel=0 note=68 velocity=0 time=0
note_on channel=0 note=64 velocity=0 time=0
note_on channel=0 note=52 velocity=0 time=0
note_on channel=0 note=71 velocity=0 time=0
note_on channel=0 note=73 velocity=53 time=0
note_on channel=0 note=57 velocity=44 time=0
note_on channel=0 note=73 velocity=0 time=60
note_on channel=0 note=63 velocity=34 time=20
note_on channel=0 note=57 velocity=0 time=16
note_on channel=0 note=64 velocity=34 time=64
note_on channel=0 note=63 velocity=0 time=16
note_on channel=0 note=64 velocity=0 time=64
note_on channel=0 note=73 velocity=49 time=0
note_on channel=0 note=57 velocity=40 time=0
note_on channel=0 note=73 velocity=0 time=60
note_on channel=0 note=63 velocity=31 time=20
note_on channel=0 note=57 velocity=0 time=16
<meta message set_tempo tempo=731707 time=24>
note_on channel=0 note=64 velocity=31 time=40
note_on channel=0 note=63 velocity=0 time=16
<meta message set_tempo tempo=705882 time=64>
note_on channel=0 note=64 velocity=0 time=0
note_on channel=0 note=74 velocity=49 time=0
note_on channel=0 note=59 velocity=40 time=0
control_change channel=0 control=64 value=127 time=15
note_on channel=0 note=74 velocity=0 time=25
note_on channel=0 note=76 velocity=47 time=0
note_on channel=0 note=76 velocity=0 time=40
note_on channel=0 note=74 velocity=47 time=0
note_on channel=0 note=63 velocity=32 time=0
note_on channel=0 note=59 velocity=0 time=16
note_on channel=0 note=74 velocity=0 time=24
note_on channel=0 note=73 velocity=49 time=0
note_on channel=0 note=64 velocity=32 time=40
note_on channel=0 note=63 velocity=0 time=16
note_on channel=0 note=73 velocity=0 time=4
note_on channel=0 note=74 velocity=49 time=0
note_on channel=0 note=74 velocity=0 time=60
note_on channel=0 note=64 velocity=0 time=0
note_on channel=0 note=76 velocity=53 time=0
note_on channel=0 note=61 velocity=41 time=0
control_change channel=0 control=64 value=0 time=8
note_on channel=0 note=63 velocity=31 time=72
note_on channel=0 note=61 velocity=0 time=16
note_on channel=0 note=64 velocity=31 time=64
note_on channel=0 note=63 velocity=0 time=16
note_on channel=0 note=64 velocity=0 time=64
note_on channel=0 note=76 velocity=0 time=0
note_on channel=0 note=61 velocity=40 time=0
note_on channel=0 note=63 velocity=30 time=80
note_on channel=0 note=61 velocity=0 time=16
<meta message set_tempo tempo=759494 time=24>
note_on channel=0 note=64 velocity=30 time=40
note_on channel=0 note=63 velocity=0 time=16
<meta message set_tempo tempo=681818 time=46>
note_on channel=0 note=64 velocity=0 time=18
note_on channel=0 note=78 velocity=53 time=0
note_on channel=0 note=57 velocity=40 time=0
<meta message set_tempo tempo=689655 time=22>
note_on channel=0 note=76 velocity=52 time=38
<meta message set_tempo tempo=697674 time=2>
note_on channel=0 note=78 velocity=0 time=4
note_on channel=0 note=63 velocity=35 time=14
note_on channel=0 note=57 velocity=0 time=16
<meta message set_tempo tempo=705882 time=6>
note_on channel=0 note=74 velocity=51 time=18
note_on channel=0 note=76 velocity=0 time=6
<meta message set_tempo tempo=714286 time=16>
note_on channel=0 note=64 velocity=35 time=18
note_on channel=0 note=63 velocity=0 time=16
note_on channel=0 note=73 velocity=49 time=4
<meta message set_tempo tempo=722892 time=2>
note_on channel=0 note=74 velocity=0 time=4
<meta message set_tempo tempo=731707 time=16>
<meta message set_tempo tempo=705882 time=38>
note_on channel=0 note=64 velocity=0 time=0
note_on channel=0 note=71 velocity=53 time=0
note_on channel=0 note=56 velocity=44 time=0
note_on channel=0 note=73 velocity=0 time=6
note_on channel=0 note=71 velocity=0 time=54
note_on channel=0 note=63 velocity=31 time=20
note_on channel=0 note=56 velocity=0 time=16
note_on channel=0 note=64 velocity=32 time=64
note_on channel=0 note=63 velocity=0 time=16
note_on channel=0 note=64 velocity=0 time=64
note_on channel=0 note=71 velocity=49 time=0
note_on channel=0 note=56 velocity=40 time=0
note_on channel=0 note=71 velocity=0 time=60
note_on channel=0 note=63 velocity=35 time=20
note_on channel=0 note=56 velocity=0 time=16
<meta message set_tempo tempo=731707 time=24>
note_on channel=0 note=64 velocity=35 time=40
note_on channel=0 note=63 velocity=0 time=16
<meta message set_tempo tempo=705882 time=64>
note_on channel=0 note=64 velocity=0 time=0
note_on channel=0 note=73 velocity=49 time=0
note_on channel=0 note=57 velocity=40 time=0
control_change channel=0 control=64 value=127 time=26
note_on channel=0 note=73 velocity=0 time=14
note_on channel=0 note=74 velocity=47 time=0
note_on channel=0 note=74 velocity=0 time=40
note_on channel=0 note=73 velocity=47 time=0
note_on channel=0 note=63 velocity=33 time=0
note_on channel=0 note=57 velocity=0 time=16
note_on channel=0 note=73 velocity=0 time=24
note_on channel=0 note=71 velocity=49 time=0
note_on channel=0 note=64 velocity=35 time=40
note_on channel=0 note=63 velocity=0 time=16
note_on channel=0 note=71 velocity=0 time=4
note_on channel=0 note=73 velocity=49 time=0
note_on channel=0 note=73 velocity=0 time=60
note_on channel=0 note=64 velocity=0 time=0
note_on channel=0 note=74 velocity=53 time=0
note_on channel=0 note=59 velocity=45 time=0
control_change channel=0 control=64 value=0 time=5
note_on channel=0 note=63 velocity=34 time=75
note_on channel=0 note=59 velocity=0 time=16
note_on channel=0 note=64 velocity=34 time=64
note_on channel=0 note=63 velocity=0 time=16
note_on channel=0 note=64 velocity=0 time=64
note_on channel=0 note=74 velocity=0 time=0
note_on channel=0 note=59 velocity=38 time=0
note_on channel=0 note=63 velocity=28 time=80
note_on channel=0 note=59 velocity=0 time=16
<meta message set_tempo tempo=759494 time=24>
note_on channel=0 note=64 velocity=28 time=40
note_on channel=0 note=63 velocity=0 time=16
<meta message set_tempo tempo=681818 time=46>
note_on channel=0 note=64 velocity=0 time=18
note_on channel=0 note=76 velocity=53 time=0
note_on channel=0 note=56 velocity=40 time=0
<meta message set_tempo tempo=689655 time=22>
note_on channel=0 note=74 velocity=52 time=38
<meta message set_tempo tempo=697674 time=2>
note_on channel=0 note=76 velocity=0 time=4
note_on channel=0 note=63 velocity=35 time=14
note_on channel=0 note=56 velocity=0 time=16
<meta message set_tempo tempo=705882 time=6>
note_on channel=0 note=73 velocity=51 time=18
note_on channel=0 note=74 velocity=0 time=6
<meta message set_tempo tempo=714286 time=16>
note_on channel=0 note=64 velocity=35 time=18
note_on channel=0 note=63 velocity=0 time=16
note_on channel=0 note=71 velocity=49 time=4
<meta message set_tempo tempo=722892 time=2>
note_on channel=0 note=73 velocity=0 time=4
<meta message set_tempo tempo=731707 time=16>
<meta message set_tempo tempo=705882 time=38>
note_on channel=0 note=64 velocity=0 time=0
note_on channel=0 note=69 velocity=53 time=0
note_on channel=0 note=54 velocity=44 time=0
note_on channel=0 note=71 velocity=0 time=6
note_on channel=0 note=69 velocity=0 time=54
note_on channel=0 note=63 velocity=35 time=20
note_on channel=0 note=54 velocity=0 time=16
note_on channel=0 note=64 velocity=35 time=64
note_on channel=0 note=63 velocity=0 time=16
note_on channel=0 note=64 velocity=0 time=64
note_on channel=0 note=69 velocity=49 time=0
note_on channel=0 note=54 velocity=40 time=0
note_on channel=0 note=69 velocity=0 time=60
note_on channel=0 note=63 velocity=35 time=20
note_on channel=0 note=54 velocity=0 time=16
<meta message set_tempo tempo=731707 time=24>
note_on channel=0 note=64 velocity=34 time=40
note_on channel=0 note=63 velocity=0 time=16
<meta message set_tempo tempo=705882 time=64>
note_on channel=0 note=64 velocity=0 time=0
note_on channel=0 note=71 velocity=49 time=0
note_on channel=0 note=54 velocity=40 time=0
control_change channel=0 control=64 value=127 time=26
note_on channel=0 note=71 velocity=0 time=14
note_on channel=0 note=73 velocity=47 time=0
note_on channel=0 note=73 velocity=0 time=40
note_on channel=0 note=71 velocity=47 time=0
note_on channel=0 note=62 velocity=35 time=0
note_on channel=0 note=54 velocity=0 time=16
note_on channel=0 note=71 velocity=0 time=24
note_on channel=0 note=69 velocity=49 time=0
note_on channel=0 note=64 velocity=35 time=40
note_on channel=0 note=62 velocity=0 time=16
note_on channel=0 note=69 velocity=0 time=4
note_on channel=0 note=71 velocity=49 time=0
<meta message set_tempo tempo=705882 time=60>
note_on channel=0 note=71 velocity=0 time=0
note_on channel=0 note=64 velocity=0 time=0
note_on channel=0 note=73 velocity=53 time=0
note_on channel=0 note=57 velocity=44 time=0
control_change channel=0 control=64 value=0 time=10
note_on channel=0 note=73 velocity=0 time=50
note_on channel=0 note=61 velocity=35 time=20
note_on channel=0 note=57 velocity=0 time=16
note_on channel=0 note=64 velocity=33 time=64
note_on channel=0 note=61 velocity=0 time=16
note_on channel=0 note=64 velocity=0 time=64
note_on channel=0 note=73 velocity=49 time=0
note_on channel=0 note=57 velocity=40 time=0
note_on channel=0 note=73 velocity=0 time=60
note_on channel=0 note=61 velocity=33 time=20
note_on channel=0 note=57 velocity=0 time=16
<meta message set_tempo tempo=731707 time=24>
note_on channel=0 note=64 velocity=33 time=40
note_on channel=0 note=61 velocity=0 time=16
<meta message set_tempo tempo=705882 time=64>
note_on channel=0 note=64 velocity=0 time=0
note_on channel=0 note=74 velocity=49 time=0
note_on channel=0 note=50 velocity=40 time=0
control_change channel=0 control=64 value=127 time=3
note_on channel=0 note=74 velocity=0 time=37
note_on channel=0 note=76 velocity=47 time=0
note_on channel=0 note=76 velocity=0 time=40
note_on channel=0 note=74 velocity=47 time=0
note_on channel=0 note=54 velocity=33 time=0
note_on channel=0 note=50 velocity=0 time=16
note_on channel=0 note=74 velocity=0 time=24
note_on channel=0 note=73 velocity=49 time=0
note_on channel=0 note=59 velocity=33 time=40
note_on channel=0 note=54 velocity=0 time=16
note_on channel=0 note=73 velocity=0 time=4
note_on channel=0 note=74 velocity=49 time=0
<meta message set_tempo tempo=705882 time=60>
note_on channel=0 note=74 velocity=0 time=0
note_on channel=0 note=59 velocity=0 time=0
note_on channel=0 note=73 velocity=53 time=0
note_on channel=0 note=52 velocity=44 time=0
control_change channel=0 control=64 value=0 time=9
note_on channel=0 note=73 velocity=0 time=51
note_on channel=0 note=57 velocity=35 time=20
note_on channel=0 note=52 velocity=0 time=16
note_on channel=0 note=61 velocity=33 time=64
note_on channel=0 note=57 velocity=0 time=16
note_on channel=0 note=61 velocity=0 time=64
note_on channel=0 note=73 velocity=49 time=0
note_on channel=0 note=52 velocity=40 time=0
note_on channel=0 note=73 velocity=0 time=60
note_on channel=0 note=57 velocity=35 time=20
note_on channel=0 note=52 velocity=0 time=16
<meta message set_tempo tempo=731707 time=24>
note_on channel=0 note=61 velocity=35 time=40
note_on channel=0 note=57 velocity=0 time=16
<meta message set_tempo tempo=705882 time=64>
note_on channel=0 note=61 velocity=0 time=0
note_on channel=0 note=71 velocity=49 time=0
note_on channel=0 note=52 velocity=40 time=0
control_change channel=0 control=64 value=127 time=26
note_on channel=0 note=71 velocity=0 time=14
note_on channel=0 note=73 velocity=47 time=0
note_on channel=0 note=73 velocity=0 time=40
note_on channel=0 note=71 velocity=47 time=0
note_on channel=0 note=56 velocity=35 time=0
note_on channel=0 note=52 velocity=0 time=16
note_on channel=0 note=71 velocity=0 time=24
note_on channel=0 note=69 velocity=49 time=0
note_on channel=0 note=62 velocity=35 time=40
note_on channel=0 note=56 velocity=0 time=16
note_on channel=0 note=69 velocity=0 time=4
note_on channel=0 note=71 velocity=49 time=0
<meta message set_tempo tempo=759494 time=60>
note_on channel=0 note=71 velocity=0 time=0
note_on channel=0 note=62 velocity=0 time=0
note_on channel=0 note=71 velocity=53 time=0
note_on channel=0 note=68 velocity=45 time=0
note_on channel=0 note=62 velocity=40 time=0
note_on channel=0 note=57 velocity=34 time=0
note_on channel=0 note=64 velocity=34 time=0
control_change channel=0 control=64 value=0 time=7
note_on channel=0 note=71 velocity=0 time=233
note_on channel=0 note=72 velocity=55 time=0
note_on channel=0 note=72 velocity=0 time=240
note_on channel=0 note=68 velocity=0 time=0
note_on channel=0 note=62 velocity=0 time=0
note_on channel=0 note=69 velocity=47 time=0
note_on channel=0 note=73 velocity=56 time=0
note_on channel=0 note=61 velocity=45 time=0
<meta message set_tempo tempo=705882 time=240>
note_on channel=0 note=61 velocity=0 time=0
note_on channel=0 note=69 velocity=0 time=0
note_on channel=0 note=64 velocity=0 time=0
note_on channel=0 note=57 velocity=0 time=0
note_on channel=0 note=73 velocity=0 time=0
note_on channel=0 note=73 velocity=74 time=0
note_on channel=0 note=45 velocity=74 time=0
control_change channel=0 control=64 value=0 time=0
control_change channel=0 control=64 value=127 time=32
note_on channel=0 note=69 velocity=53 time=48
note_on channel=0 note=73 velocity=0 time=16
note_on channel=0 note=45 velocity=0 time=24
note_on channel=0 note=64 velocity=53 time=40
note_on channel=0 note=69 velocity=0 time=16
note_on channel=0 note=56 velocity=59 time=4
note_on channel=0 note=56 velocity=0 time=30
<meta message set_tempo tempo=705882 time=30>
note_on channel=0 note=64 velocity=0 time=0
note_on channel=0 note=73 velocity=72 time=0
note_on channel=0 note=57 velocity=68 time=0
control_change channel=0 control=64 value=0 time=7
note_on channel=0 note=69 velocity=53 time=73
note_on channel=0 note=73 velocity=0 time=16
note_on channel=0 note=57 velocity=0 time=24
note_on channel=0 note=64 velocity=53 time=40
note_on channel=0 note=69 velocity=0 time=16
note_on channel=0 note=58 velocity=62 time=4
<meta message set_tempo tempo=674157 time=60>
note_on channel=0 note=58 velocity=0 time=0
note_on channel=0 note=64 velocity=0 time=0
note_on channel=0 note=74 velocity=71 time=0
note_on channel=0 note=59 velocity=70 time=0
note_on channel=0 note=68 velocity=53 time=80
note_on channel=0 note=74 velocity=0 time=16
note_on channel=0 note=59 velocity=0 time=24
note_on channel=0 note=64 velocity=53 time=40
note_on channel=0 note=68 velocity=0 time=16
<meta message set_tempo tempo=705882 time=64>
note_on channel=0 note=64 velocity=0 time=0
note_on channel=0 note=76 velocity=74 time=0
note_on channel=0 note=52 velocity=74 time=0
control_change channel=0 control=64 value=127 time=57
note_on channel=0 note=73 velocity=53 time=23
note_on channel=0 note=76 velocity=0 time=16
note_on channel=0 note=52 velocity=0 time=24
note_on channel=0 note=69 velocity=53 time=40
note_on channel=0 note=73 velocity=0 time=16
note_on channel=0 note=60 velocity=63 time=4
note_on channel=0 note=60 velocity=0 time=30
note_on channel=0 note=69 velocity=0 time=30
note_on channel=0 note=76 velocity=72 time=0
note_on channel=0 note=61 velocity=67 time=0
control_change channel=0 control=64 value=0 time=15
note_on channel=0 note=73 velocity=53 time=65
note_on channel=0 note=76 velocity=0 time=16
note_on channel=0 note=61 velocity=0 time=24
note_on channel=0 note=69 velocity=53 time=40
note_on channel=0 note=73 velocity=0 time=16
note_on channel=0 note=61 velocity=63 time=4
<meta message set_tempo tempo=697674 time=60>
note_on channel=0 note=61 velocity=0 time=0
note_on channel=0 note=69 velocity=0 time=0
note_on channel=0 note=78 velocity=71 time=0
note_on channel=0 note=62 velocity=69 time=0
note_on channel=0 note=71 velocity=53 time=80
note_on channel=0 note=78 velocity=0 time=16
note_on channel=0 note=62 velocity=0 time=24
note_on channel=0 note=69 velocity=53 time=40
note_on channel=0 note=71 velocity=0 time=16
<meta message set_tempo tempo=705882 time=64>
note_on channel=0 note=69 velocity=0 time=0
note_on channel=0 note=73 velocity=74 time=0
note_on channel=0 note=40 velocity=74 time=0
control_change channel=0 control=64 value=127 time=32
note_on channel=0 note=69 velocity=53 time=48
note_on channel=0 note=73 velocity=0 time=16
note_on channel=0 note=40 velocity=0 time=24
note_on channel=0 note=64 velocity=53 time=40
note_on channel=0 note=69 velocity=0 time=16
note_on channel=0 note=51 velocity=62 time=4
note_on channel=0 note=51 velocity=0 time=30
note_on channel=0 note=64 velocity=0 time=30
note_on channel=0 note=73 velocity=72 time=0
note_on channel=0 note=52 velocity=67 time=0
control_change channel=0 control=64 value=0 time=3
note_on channel=0 note=69 velocity=53 time=77
note_on channel=0 note=73 velocity=0 time=16
note_on channel=0 note=52 velocity=0 time=24
note_on channel=0 note=64 velocity=53 time=40
note_on channel=0 note=69 velocity=0 time=16
note_on channel=0 note=51 velocity=61 time=4
note_on channel=0 note=51 velocity=0 time=60
note_on channel=0 note=64 velocity=0 time=0
note_on channel=0 note=71 velocity=71 time=0
note_on channel=0 note=52 velocity=68 time=0
note_on channel=0 note=68 velocity=53 time=80
note_on channel=0 note=71 velocity=0 time=16
note_on channel=0 note=52 velocity=0 time=24
note_on channel=0 note=62 velocity=53 time=40
note_on channel=0 note=68 velocity=0 time=16
<meta message set_tempo tempo=740741 time=64>
note_on channel=0 note=62 velocity=0 time=0
note_on channel=0 note=69 velocity=74 time=0
note_on channel=0 note=33 velocity=74 time=0
control_change channel=0 control=64 value=127 time=12
note_on channel=0 note=64 velocity=53 time=68
note_on channel=0 note=69 velocity=0 time=16
note_on channel=0 note=33 velocity=0 time=24
note_on channel=0 note=61 velocity=53 time=40
note_on channel=0 note=64 velocity=0 time=16
note_on channel=0 note=44 velocity=61 time=4
note_on channel=0 note=44 velocity=0 time=30
note_on channel=0 note=57 velocity=72 time=30
note_on channel=0 note=45 velocity=67 time=0
control_change channel=0 control=64 value=0 time=15
note_on channel=0 note=61 velocity=0 time=1
note_on channel=0 note=45 velocity=0 time=104
note_on channel=0 note=57 velocity=0 time=0
<meta message set_tempo tempo=740741 time=360>
note_on channel=0 note=76 velocity=50 time=0
note_on channel=0 note=57 velocity=37 time=0
note_on channel=0 note=76 velocity=0 time=60
note_on channel=0 note=61 velocity=31 time=20
note_on channel=0 note=57 velocity=0 time=16
note_on channel=0 note=64 velocity=32 time=65
note_on channel=0 note=61 velocity=0 time=15
note_on channel=0 note=74 velocity=48 time=64
note_on channel=0 note=57 velocity=38 time=0
note_on channel=0 note=64 velocity=0 time=1
note_on channel=0 note=74 velocity=0 time=59
note_on channel=0 note=59 velocity=30 time=20
note_on channel=0 note=57 velocity=0 time=16
note_on channel=0 note=62 velocity=30 time=64
note_on channel=0 note=59 velocity=0 time=16
<meta message set_tempo tempo=789474 time=64>
note_on channel=0 note=62 velocity=0 time=0
note_on channel=0 note=76 velocity=50 time=0
note_on channel=0 note=57 velocity=38 time=0
note_on channel=0 note=76 velocity=0 time=60
note_on channel=0 note=61 velocity=30 time=20
note_on channel=0 note=57 velocity=0 time=16
note_on channel=0 note=64 velocity=30 time=64
note_on channel=0 note=61 velocity=0 time=16
<meta message set_tempo tempo=740741 time=64>
note_on channel=0 note=64 velocity=0 time=0
note_on channel=0 note=78 velocity=50 time=0
note_on channel=0 note=57 velocity=38 time=0
note_on channel=0 note=62 velocity=27 time=80
note_on channel=0 note=57 velocity=0 time=16
note_on channel=0 note=78 velocity=0 time=24
note_on channel=0 note=66 velocity=27 time=40
note_on channel=0 note=62 velocity=0 time=16
note_on channel=0 note=66 velocity=0 time=64
note_on channel=0 note=57 velocity=35 time=0
note_on channel=0 note=62 velocity=28 time=80
note_on channel=0 note=57 velocity=0 time=16
note_on channel=0 note=66 velocity=26 time=64
note_on channel=0 note=62 velocity=0 time=16
control_change channel=0 control=64 value=127 time=38
<meta message set_tempo tempo=810811 time=26>
note_on channel=0 note=66 velocity=0 time=0
note_on channel=0 note=78 velocity=50 time=0
note_on channel=0 note=57 velocity=38 time=0
note_on channel=0 note=78 velocity=0 time=20
note_on channel=0 note=80 velocity=44 time=0
note_on channel=0 note=80 velocity=0 time=20
note_on channel=0 note=78 velocity=44 time=0
note_on channel=0 note=78 velocity=0 time=20
note_on channel=0 note=76 velocity=50 time=0
note_on channel=0 note=62 velocity=32 time=20
note_on channel=0 note=57 velocity=0 time=16
note_on channel=0 note=76 velocity=0 time=24
note_on channel=0 note=78 velocity=49 time=0
note_on channel=0 note=66 velocity=32 time=40
note_on channel=0 note=62 velocity=0 time=16
note_on channel=0 note=78 velocity=0 time=4
note_on channel=0 note=80 velocity=49 time=0
<meta message set_tempo tempo=759494 time=60>
note_on channel=0 note=80 velocity=0 time=0
note_on channel=0 note=66 velocity=0 time=0
note_on channel=0 note=81 velocity=56 time=0
note_on channel=0 note=57 velocity=37 time=0
control_change channel=0 control=64 value=0 time=0
note_on channel=0 note=66 velocity=31 time=80
note_on channel=0 note=57 velocity=0 time=16
note_on channel=0 note=81 velocity=0 time=24
note_on channel=0 note=69 velocity=32 time=40
note_on channel=0 note=66 velocity=0 time=16
note_on channel=0 note=69 velocity=0 time=64
note_on channel=0 note=80 velocity=52 time=0
note_on channel=0 note=57 velocity=38 time=0
note_on channel=0 note=80 velocity=0 time=60
note_on channel=0 note=64 velocity=30 time=20
note_on channel=0 note=57 velocity=0 time=16
note_on channel=0 note=68 velocity=30 time=64
note_on channel=0 note=64 velocity=0 time=16
note_on channel=0 note=68 velocity=0 time=64
note_on channel=0 note=78 velocity=50 time=0
note_on channel=0 note=57 velocity=38 time=0
note_on channel=0 note=78 velocity=0 time=60
note_on channel=0 note=62 velocity=34 time=20
note_on channel=0 note=57 velocity=0 time=16
note_on channel=0 note=66 velocity=31 time=64
note_on channel=0 note=62 velocity=0 time=16
<meta message set_tempo tempo=740741 time=64>
note_on channel=0 note=66 velocity=0 time=0
note_on channel=0 note=76 velocity=50 time=0
note_on channel=0 note=57 velocity=36 time=0
note_on channel=0 note=61 velocity=27 time=80
note_on channel=0 note=57 velocity=0 time=16
note_on channel=0 note=76 velocity=0 time=24
note_on channel=0 note=64 velocity=27 time=40
note_on channel=0 note=61 velocity=0 time=16
note_on channel=0 note=64 velocity=0 time=64
note_on channel=0 note=57 velocity=35 time=0
note_on channel=0 note=61 velocity=28 time=80
note_on channel=0 note=57 velocity=0 time=16
note_on channel=0 note=64 velocity=28 time=64
note_on channel=0 note=61 velocity=0 time=16
<meta message set_tempo tempo=810811 time=64>
note_on channel=0 note=64 velocity=0 time=0
note_on channel=0 note=73 velocity=50 time=0
note_on channel=0 note=57 velocity=38 time=0
note_on channel=0 note=73 velocity=0 time=20
note_on channel=0 note=74 velocity=44 time=0
control_change channel=0 control=64 value=127 time=5
note_on channel=0 note=74 velocity=0 time=15
note_on channel=0 note=73 velocity=44 time=0
note_on channel=0 note=73 velocity=0 time=20
note_on channel=0 note=71 velocity=50 time=0
note_on channel=0 note=61 velocity=32 time=20
note_on channel=0 note=57 velocity=0 time=16
note_on channel=0 note=71 velocity=0 time=24
note_on channel=0 note=73 velocity=51 time=0
note_on channel=0 note=64 velocity=32 time=40
note_on channel=0 note=61 velocity=0 time=16
note_on channel=0 note=73 velocity=0 time=4
note_on channel=0 note=74 velocity=55 time=0
control_change channel=0 control=64 value=0 time=60
<meta message set_tempo tempo=759494 time=0>
note_on channel=0 note=74 velocity=0 time=0
note_on channel=0 note=64 velocity=0 time=0
note_on channel=0 note=76 velocity=60 time=0
note_on channel=0 note=57 velocity=42 time=0
control_change channel=0 control=64 value=127 time=42
note_on channel=0 note=61 velocity=33 time=38
note_on channel=0 note=57 velocity=0 time=16
note_on channel=0 note=64 velocity=33 time=64
note_on channel=0 note=61 velocity=0 time=16
note_on channel=0 note=64 velocity=0 time=64
note_on channel=0 note=76 velocity=0 time=0
note_on channel=0 note=73 velocity=58 time=0
note_on channel=0 note=57 velocity=38 time=0
control_change channel=0 control=64 value=0 time=17
note_on channel=0 note=73 velocity=0 time=43
note_on channel=0 note=61 velocity=33 time=20
control_change channel=0 control=64 value=127 time=1
note_on channel=0 note=57 velocity=0 time=15
note_on channel=0 note=64 velocity=31 time=64
note_on channel=0 note=61 velocity=0 time=16
<meta message set_tempo tempo=810811 time=64>
note_on channel=0 note=64 velocity=0 time=0
note_on channel=0 note=57 velocity=38 time=0
control_change channel=0 control=64 value=0 time=10
note_on channel=0 note=61 velocity=34 time=70
note_on channel=0 note=57 velocity=0 time=16
note_on channel=0 note=64 velocity=35 time=64
note_on channel=0 note=61 velocity=0 time=16
note_on channel=0 note=69 velocity=58 time=4
<meta message set_tempo tempo=759494 time=60>
note_on channel=0 note=69 velocity=0 time=0
note_on channel=0 note=64 velocity=0 time=0
note_on channel=0 note=76 velocity=65 time=0
note_on channel=0 note=59 velocity=41 time=0
control_change channel=0 control=64 value=127 time=17
note_on channel=0 note=62 velocity=36 time=63
note_on channel=0 note=59 velocity=0 time=16
note_on channel=0 note=64 velocity=37 time=64
note_on channel=0 note=62 velocity=0 time=16
note_on channel=0 note=64 velocity=0 time=64
note_on channel=0 note=76 velocity=0 time=0
note_on channel=0 note=74 velocity=59 time=0
note_on channel=0 note=59 velocity=44 time=0
control_change channel=0 control=64 value=0 time=10
note_on channel=0 note=74 velocity=0 time=50
note_on channel=0 note=62 velocity=37 time=20
control_change channel=0 control=64 value=127 time=12
note_on channel=0 note=59 velocity=0 time=4
note_on channel=0 note=64 velocity=39 time=64
note_on channel=0 note=62 velocity=0 time=16
<meta message set_tempo tempo=810811 time=64>
note_on channel=0 note=64 velocity=0 time=0
note_on channel=0 note=59 velocity=46 time=0
control_change channel=0 control=64 value=0 time=10
note_on channel=0 note=62 velocity=41 time=70
note_on channel=0 note=59 velocity=0 time=16
note_on channel=0 note=64 velocity=42 time=64
note_on channel=0 note=62 velocity=0 time=16
note_on channel=0 note=71 velocity=66 time=4
<meta message set_tempo tempo=759494 time=60>
note_on channel=0 note=71 velocity=0 time=0
note_on channel=0 note=64 velocity=0 time=0
note_on channel=0 note=76 velocity=73 time=0
note_on channel=0 note=57 velocity=47 time=0
control_change channel=0 control=64 value=127 time=17
note_on channel=0 note=61 velocity=40 time=63
note_on channel=0 note=57 velocity=0 time=16
note_on channel=0 note=64 velocity=40 time=64
note_on channel=0 note=61 velocity=0 time=16
<meta message set_tempo tempo=845070 time=64>
note_on channel=0 note=64 velocity=0 time=0
note_on channel=0 note=76 velocity=0 time=0
note_on channel=0 note=73 velocity=66 time=0
note_on channel=0 note=57 velocity=47 time=0
note_on channel=0 note=61 velocity=38 time=80
note_on channel=0 note=57 velocity=0 time=16
note_on channel=0 note=64 velocity=33 time=64
note_on channel=0 note=61 velocity=0 time=16
<meta message set_tempo tempo=909091 time=64>
note_on channel=0 note=64 velocity=0 time=0
note_on channel=0 note=73 velocity=0 time=0
note_on channel=0 note=69 velocity=50 time=0
note_on channel=0 note=54 velocity=38 time=0
control_change channel=0 control=64 value=0 time=20
control_change channel=0 control=64 value=127 time=40
note_on channel=0 note=69 velocity=0 time=0
note_on channel=0 note=57 velocity=29 time=20
note_on channel=0 note=54 velocity=0 time=16
note_on channel=0 note=63 velocity=29 time=64
note_on channel=0 note=57 velocity=0 time=16
<meta message set_tempo tempo=869565 time=64>
note_on channel=0 note=63 velocity=0 time=0
note_on channel=0 note=69 velocity=50 time=0
note_on channel=0 note=73 velocity=50 time=0
note_on channel=0 note=52 velocity=23 time=0
note_on channel=0 note=64 velocity=29 time=0
control_change channel=0 control=64 value=0 time=10
control_change channel=0 control=64 value=127 time=87
note_on channel=0 note=73 velocity=0 time=383
note_on channel=0 note=69 velocity=0 time=0
note_on channel=0 note=71 velocity=46 time=0
note_on channel=0 note=68 velocity=46 time=0
control_change channel=0 control=64 value=0 time=26
<meta message set_tempo tempo=705882 time=214>
note_on channel=0 note=68 velocity=0 time=0
note_on channel=0 note=64 velocity=0 time=0
note_on channel=0 note=52 velocity=0 time=0
note_on channel=0 note=71 velocity=0 time=0
note_on channel=0 note=73 velocity=53 time=0
note_on channel=0 note=57 velocity=44 time=0
note_on channel=0 note=73 velocity=0 time=60
note_on channel=0 note=63 velocity=32 time=20
note_on channel=0 note=57 velocity=0 time=16
note_on channel=0 note=64 velocity=32 time=64
note_on channel=0 note=63 velocity=0 time=16
note_on channel=0 note=64 velocity=0 time=64
note_on channel=0 note=73 velocity=49 time=0
note_on channel=0 note=57 velocity=40 time=0
note_on channel=0 note=73 velocity=0 time=60
note_on channel=0 note=63 velocity=32 time=20
note_on channel=0 note=57 velocity=0 time=16
<meta message set_tempo tempo=731707 time=24>
note_on channel=0 note=64 velocity=32 time=40
note_on channel=0 note=63 velocity=0 time=16
<meta message set_tempo tempo=705882 time=64>
note_on channel=0 note=64 velocity=0 time=0
note_on channel=0 note=74 velocity=49 time=0
note_on channel=0 note=59 velocity=40 time=0
control_change channel=0 control=64 value=127 time=15
note_on channel=0 note=74 velocity=0 time=25
note_on channel=0 note=76 velocity=47 time=0
note_on channel=0 note=76 velocity=0 time=40
note_on channel=0 note=74 velocity=47 time=0
note_on channel=0 note=63 velocity=34 time=0
note_on channel=0 note=59 velocity=0 time=16
note_on channel=0 note=74 velocity=0 time=24
note_on channel=0 note=73 velocity=49 time=0
note_on channel=0 note=64 velocity=34 time=40
note_on channel=0 note=63 velocity=0 time=16
note_on channel=0 note=73 velocity=0 time=4
note_on channel=0 note=74 velocity=49 time=0
note_on channel=0 note=74 velocity=0 time=60
note_on channel=0 note=64 velocity=0 time=0
note_on channel=0 note=76 velocity=53 time=0
note_on channel=0 note=61 velocity=41 time=0
control_change channel=0 control=64 value=0 time=12
note_on channel=0 note=63 velocity=31 time=68
note_on channel=0 note=61 velocity=0 time=16
note_on channel=0 note=64 velocity=31 time=64
note_on channel=0 note=63 velocity=0 time=16
note_on channel=0 note=64 velocity=0 time=64
note_on channel=0 note=76 velocity=0 time=0
note_on channel=0 note=61 velocity=40 time=0
note_on channel=0 note=63 velocity=30 time=80
note_on channel=0 note=61 velocity=0 time=16
<meta message set_tempo tempo=759494 time=24>
note_on channel=0 note=64 velocity=30 time=40
note_on channel=0 note=63 velocity=0 time=16
<meta message set_tempo tempo=681818 time=46>
note_on channel=0 note=64 velocity=0 time=18
note_on channel=0 note=78 velocity=53 time=0
note_on channel=0 note=57 velocity=40 time=0
<meta message set_tempo tempo=689655 time=22>
note_on channel=0 note=76 velocity=52 time=38
<meta message set_tempo tempo=697674 time=2>
note_on channel=0 note=78 velocity=0 time=4
note_on channel=0 note=63 velocity=36 time=14
note_on channel=0 note=57 velocity=0 time=16
<meta message set_tempo tempo=705882 time=6>
note_on channel=0 note=74 velocity=51 time=18
note_on channel=0 note=76 velocity=0 time=6
<meta message set_tempo tempo=714286 time=16>
note_on channel=0 note=64 velocity=36 time=18
note_on channel=0 note=63 velocity=0 time=16
note_on channel=0 note=73 velocity=49 time=4
<meta message set_tempo tempo=722892 time=2>
note_on channel=0 note=74 velocity=0 time=4
<meta message set_tempo tempo=731707 time=16>
<meta message set_tempo tempo=705882 time=38>
note_on channel=0 note=64 velocity=0 time=0
note_on channel=0 note=71 velocity=53 time=0
note_on channel=0 note=56 velocity=44 time=0
note_on channel=0 note=73 velocity=0 time=6
note_on channel=0 note=71 velocity=0 time=54
note_on channel=0 note=63 velocity=33 time=20
note_on channel=0 note=56 velocity=0 time=16
note_on channel=0 note=64 velocity=33 time=64
note_on channel=0 note=63 velocity=0 time=16
note_on channel=0 note=64 velocity=0 time=64
note_on channel=0 note=71 velocity=49 time=0
note_on channel=0 note=56 velocity=40 time=0
note_on channel=0 note=71 velocity=0 time=60
note_on channel=0 note=63 velocity=33 time=20
note_on channel=0 note=56 velocity=0 time=16
<meta message set_tempo tempo=731707 time=24>
note_on channel=0 note=64 velocity=33 time=40
note_on channel=0 note=63 velocity=0 time=16
<meta message set_tempo tempo=705882 time=64>
note_on channel=0 note=64 velocity=0 time=0
note_on channel=0 note=73 velocity=49 time=0
note_on channel=0 note=57 velocity=40 time=0
control_change channel=0 control=64 value=127 time=26
note_on channel=0 note=73 velocity=0 time=14
note_on channel=0 note=74 velocity=47 time=0
note_on channel=0 note=74 velocity=0 time=40
note_on channel=0 note=73 velocity=47 time=0
note_on channel=0 note=63 velocity=33 time=0
note_on channel=0 note=57 velocity=0 time=16
note_on channel=0 note=73 velocity=0 time=24
note_on channel=0 note=71 velocity=49 time=0
note_on channel=0 note=64 velocity=33 time=40
note_on channel=0 note=63 velocity=0 time=16
note_on channel=0 note=71 velocity=0 time=4
note_on channel=0 note=73 velocity=49 time=0
note_on channel=0 note=73 velocity=0 time=60
note_on channel=0 note=64 velocity=0 time=0
note_on channel=0 note=74 velocity=53 time=0
note_on channel=0 note=59 velocity=45 time=0
control_change channel=0 control=64 value=0 time=5
note_on channel=0 note=63 velocity=33 time=75
note_on channel=0 note=59 velocity=0 time=16
note_on channel=0 note=64 velocity=33 time=64
note_on channel=0 note=63 velocity=0 time=16
note_on channel=0 note=64 velocity=0 time=64
note_on channel=0 note=74 velocity=0 time=0
note_on channel=0 note=59 velocity=38 time=0
note_on channel=0 note=63 velocity=29 time=80
note_on channel=0 note=59 velocity=0 time=16
<meta message set_tempo tempo=759494 time=24>
note_on channel=0 note=64 velocity=29 time=40
note_on channel=0 note=63 velocity=0 time=16
<meta message set_tempo tempo=681818 time=46>
note_on channel=0 note=64 velocity=0 time=18
note_on channel=0 note=76 velocity=53 time=0
note_on channel=0 note=56 velocity=40 time=0
<meta message set_tempo tempo=689655 time=22>
note_on channel=0 note=74 velocity=52 time=38
<meta message set_tempo tempo=697674 time=2>
note_on channel=0 note=76 velocity=0 time=4
note_on channel=0 note=63 velocity=35 time=14
note_on channel=0 note=56 velocity=0 time=16
<meta message set_tempo tempo=705882 time=6>
note_on channel=0 note=73 velocity=51 time=18
note_on channel=0 note=74 velocity=0 time=6
<meta message set_tempo tempo=714286 time=16>
note_on channel=0 note=64 velocity=36 time=18
note_on channel=0 note=63 velocity=0 time=16
note_on channel=0 note=71 velocity=49 time=4
<meta message set_tempo tempo=722892 time=2>
note_on channel=0 note=73 velocity=0 time=4
<meta message set_tempo tempo=731707 time=16>
<meta message set_tempo tempo=705882 time=38>
note_on channel=0 note=64 velocity=0 time=0
note_on channel=0 note=69 velocity=53 time=0
note_on channel=0 note=54 velocity=44 time=0
note_on channel=0 note=71 velocity=0 time=6
note_on channel=0 note=69 velocity=0 time=54
note_on channel=0 note=63 velocity=34 time=20
note_on channel=0 note=54 velocity=0 time=16
note_on channel=0 note=64 velocity=34 time=64
note_on channel=0 note=63 velocity=0 time=16
note_on channel=0 note=64 velocity=0 time=64
note_on channel=0 note=69 velocity=49 time=0
note_on channel=0 note=54 velocity=40 time=0
note_on channel=0 note=69 velocity=0 time=60
note_on channel=0 note=63 velocity=33 time=20
note_on channel=0 note=54 velocity=0 time=16
<meta message set_tempo tempo=731707 time=24>
note_on channel=0 note=64 velocity=33 time=40
note_on channel=0 note=63 velocity=0 time=16
<meta message set_tempo tempo=705882 time=64>
note_on channel=0 note=64 velocity=0 time=0
note_on channel=0 note=71 velocity=49 time=0
note_on channel=0 note=54 velocity=40 time=0
control_change channel=0 control=64 value=127 time=26
note_on channel=0 note=71 velocity=0 time=14
note_on channel=0 note=73 velocity=47 time=0
note_on channel=0 note=73 velocity=0 time=40
note_on channel=0 note=71 velocity=47 time=0
note_on channel=0 note=62 velocity=33 time=0
note_on channel=0 note=54 velocity=0 time=16
note_on channel=0 note=71 velocity=0 time=24
note_on channel=0 note=69 velocity=49 time=0
note_on channel=0 note=64 velocity=33 time=40
note_on channel=0 note=62 velocity=0 time=16
note_on channel=0 note=69 velocity=0 time=4
note_on channel=0 note=71 velocity=49 time=0
<meta message set_tempo tempo=705882 time=60>
note_on channel=0 note=71 velocity=0 time=0
note_on channel=0 note=64 velocity=0 time=0
note_on channel=0 note=73 velocity=53 time=0
note_on channel=0 note=57 velocity=44 time=0
control_change channel=0 control=64 value=0 time=11
note_on channel=0 note=73 velocity=0 time=49
note_on channel=0 note=61 velocity=35 time=20
note_on channel=0 note=57 velocity=0 time=16
note_on channel=0 note=64 velocity=33 time=64
note_on channel=0 note=61 velocity=0 time=16
note_on channel=0 note=64 velocity=0 time=64
note_on channel=0 note=73 velocity=49 time=0
note_on channel=0 note=57 velocity=40 time=0
note_on channel=0 note=73 velocity=0 time=60
note_on channel=0 note=61 velocity=33 time=20
note_on channel=0 note=57 velocity=0 time=16
<meta message set_tempo tempo=731707 time=24>
note_on channel=0 note=64 velocity=33 time=40
note_on channel=0 note=61 velocity=0 time=16
<meta message set_tempo tempo=705882 time=64>
note_on channel=0 note=64 velocity=0 time=0
note_on channel=0 note=74 velocity=49 time=0
note_on channel=0 note=50 velocity=40 time=0
control_change channel=0 control=64 value=127 time=3
note_on channel=0 note=74 velocity=0 time=37
note_on channel=0 note=76 velocity=47 time=0
note_on channel=0 note=76 velocity=0 time=40
note_on channel=0 note=74 velocity=47 time=0
note_on channel=0 note=54 velocity=31 time=0
note_on channel=0 note=50 velocity=0 time=16
note_on channel=0 note=74 velocity=0 time=24
note_on channel=0 note=73 velocity=49 time=0
note_on channel=0 note=59 velocity=31 time=40
note_on channel=0 note=54 velocity=0 time=16
note_on channel=0 note=73 velocity=0 time=4
note_on channel=0 note=74 velocity=49 time=0
<meta message set_tempo tempo=705882 time=60>
note_on channel=0 note=74 velocity=0 time=0
note_on channel=0 note=59 velocity=0 time=0
note_on channel=0 note=73 velocity=53 time=0
note_on channel=0 note=52 velocity=44 time=0
control_change channel=0 control=64 value=0 time=9
note_on channel=0 note=73 velocity=0 time=51
note_on channel=0 note=57 velocity=33 time=20
note_on channel=0 note=52 velocity=0 time=16
note_on channel=0 note=61 velocity=33 time=64
note_on channel=0 note=57 velocity=0 time=16
note_on channel=0 note=61 velocity=0 time=64
note_on channel=0 note=73 velocity=49 time=0
note_on channel=0 note=52 velocity=40 time=0
note_on channel=0 note=73 velocity=0 time=60
note_on channel=0 note=57 velocity=35 time=20
note_on channel=0 note=52 velocity=0 time=16
<meta message set_tempo tempo=731707 time=24>
note_on channel=0 note=61 velocity=35 time=40
note_on channel=0 note=57 velocity=0 time=16
<meta message set_tempo tempo=705882 time=64>
note_on channel=0 note=61 velocity=0 time=0
note_on channel=0 note=71 velocity=49 time=0
note_on channel=0 note=52 velocity=40 time=0
control_change channel=0 control=64 value=127 time=26
note_on channel=0 note=71 velocity=0 time=14
note_on channel=0 note=73 velocity=47 time=0
note_on channel=0 note=73 velocity=0 time=40
note_on channel=0 note=71 velocity=47 time=0
note_on channel=0 note=56 velocity=35 time=0
note_on channel=0 note=52 velocity=0 time=16
note_on channel=0 note=71 velocity=0 time=24
note_on channel=0 note=69 velocity=49 time=0
note_on channel=0 note=62 velocity=35 time=40
note_on channel=0 note=56 velocity=0 time=16
note_on channel=0 note=69 velocity=0 time=4
note_on channel=0 note=71 velocity=49 time=0
<meta message set_tempo tempo=759494 time=60>
note_on channel=0 note=71 velocity=0 time=0
note_on channel=0 note=62 velocity=0 time=0
note_on channel=0 note=71 velocity=53 time=0
note_on channel=0 note=68 velocity=45 time=0
note_on channel=0 note=62 velocity=40 time=0
note_on channel=0 note=64 velocity=34 time=0
note_on channel=0 note=57 velocity=34 time=0
control_change channel=0 control=64 value=0 time=15
note_on channel=0 note=71 velocity=0 time=225
note_on channel=0 note=72 velocity=55 time=0
note_on channel=0 note=72 velocity=0 time=240
note_on channel=0 note=68 velocity=0 time=0
note_on channel=0 note=62 velocity=0 time=0
note_on channel=0 note=73 velocity=56 time=0
note_on channel=0 note=69 velocity=47 time=0
note_on channel=0 note=61 velocity=45 time=0
<meta message set_tempo tempo=705882 time=240>
note_on channel=0 note=61 velocity=0 time=0
note_on channel=0 note=73 velocity=0 time=0
note_on channel=0 note=57 velocity=0 time=0
note_on channel=0 note=64 velocity=0 time=0
note_on channel=0 note=69 velocity=0 time=0
note_on channel=0 note=73 velocity=74 time=0
note_on channel=0 note=45 velocity=74 time=0
control_change channel=0 control=64 value=0 time=0
control_change channel=0 control=64 value=127 time=32
note_on channel=0 note=69 velocity=53 time=48
note_on channel=0 note=73 velocity=0 time=16
note_on channel=0 note=45 velocity=0 time=24
note_on channel=0 note=64 velocity=53 time=40
note_on channel=0 note=69 velocity=0 time=16
note_on channel=0 note=56 velocity=59 time=4
note_on channel=0 note=56 velocity=0 time=30
<meta message set_tempo tempo=705882 time=30>
note_on channel=0 note=64 velocity=0 time=0
note_on channel=0 note=73 velocity=72 time=0
note_on channel=0 note=57 velocity=68 time=0
control_change channel=0 control=64 value=0 time=11
note_on channel=0 note=69 velocity=53 time=69
note_on channel=0 note=73 velocity=0 time=16
note_on channel=0 note=57 velocity=0 time=24
note_on channel=0 note=64 velocity=53 time=40
note_on channel=0 note=69 velocity=0 time=16
note_on channel=0 note=58 velocity=62 time=4
<meta message set_tempo tempo=674157 time=60>
note_on channel=0 note=58 velocity=0 time=0
note_on channel=0 note=64 velocity=0 time=0
note_on channel=0 note=74 velocity=71 time=0
note_on channel=0 note=59 velocity=70 time=0
note_on channel=0 note=68 velocity=53 time=80
note_on channel=0 note=74 velocity=0 time=16
note_on channel=0 note=59 velocity=0 time=24
note_on channel=0 note=64 velocity=53 time=40
note_on channel=0 note=68 velocity=0 time=16
<meta message set_tempo tempo=705882 time=64>
note_on channel=0 note=64 velocity=0 time=0
note_on channel=0 note=76 velocity=74 time=0
note_on channel=0 note=52 velocity=74 time=0
control_change channel=0 control=64 value=127 time=57
note_on channel=0 note=73 velocity=53 time=23
note_on channel=0 note=76 velocity=0 time=16
note_on channel=0 note=52 velocity=0 time=24
note_on channel=0 note=69 velocity=53 time=40
note_on channel=0 note=73 velocity=0 time=16
note_on channel=0 note=60 velocity=63 time=4
note_on channel=0 note=60 velocity=0 time=30
note_on channel=0 note=69 velocity=0 time=30
note_on channel=0 note=76 velocity=72 time=0
note_on channel=0 note=61 velocity=67 time=0
control_change channel=0 control=64 value=0 time=12
note_on channel=0 note=73 velocity=53 time=68
note_on channel=0 note=76 velocity=0 time=16
note_on channel=0 note=61 velocity=0 time=24
note_on channel=0 note=69 velocity=53 time=40
note_on channel=0 note=73 velocity=0 time=16
note_on channel=0 note=61 velocity=63 time=4
<meta message set_tempo tempo=750000 time=60>
note_on channel=0 note=61 velocity=0 time=0
note_on channel=0 note=69 velocity=0 time=0
note_on channel=0 note=78 velocity=71 time=0
note_on channel=0 note=62 velocity=69 time=0
note_on channel=0 note=71 velocity=53 time=80
note_on channel=0 note=78 velocity=0 time=16
note_on channel=0 note=62 velocity=0 time=24
note_on channel=0 note=69 velocity=53 time=40
note_on channel=0 note=71 velocity=0 time=16
<meta message set_tempo tempo=722892 time=64>
note_on channel=0 note=69 velocity=0 time=0
note_on channel=0 note=73 velocity=74 time=0
note_on channel=0 note=40 velocity=74 time=0
control_change channel=0 control=64 value=127 time=32
note_on channel=0 note=69 velocity=53 time=48
note_on channel=0 note=73 velocity=0 time=16
note_on channel=0 note=40 velocity=0 time=24
note_on channel=0 note=64 velocity=53 time=40
note_on channel=0 note=69 velocity=0 time=16
note_on channel=0 note=51 velocity=62 time=4
note_on channel=0 note=51 velocity=0 time=30
note_on channel=0 note=64 velocity=0 time=30
note_on channel=0 note=73 velocity=72 time=0
note_on channel=0 note=52 velocity=67 time=0
control_change channel=0 control=64 value=0 time=8
note_on channel=0 note=69 velocity=53 time=72
note_on channel=0 note=73 velocity=0 time=16
note_on channel=0 note=52 velocity=0 time=24
note_on channel=0 note=64 velocity=53 time=40
note_on channel=0 note=69 velocity=0 time=16
note_on channel=0 note=51 velocity=61 time=4
<meta message set_tempo tempo=769231 time=60>
note_on channel=0 note=51 velocity=0 time=0
note_on channel=0 note=64 velocity=0 time=0
note_on channel=0 note=71 velocity=71 time=0
note_on channel=0 note=52 velocity=68 time=0
note_on channel=0 note=68 velocity=53 time=80
note_on channel=0 note=71 velocity=0 time=16
note_on channel=0 note=52 velocity=0 time=24
note_on channel=0 note=62 velocity=53 time=40
note_on channel=0 note=68 velocity=0 time=16
<meta message set_tempo tempo=833333 time=64>
note_on channel=0 note=62 velocity=0 time=0
note_on channel=0 note=69 velocity=74 time=0
note_on channel=0 note=33 velocity=74 time=0
control_change channel=0 control=64 value=127 time=12
note_on channel=0 note=64 velocity=53 time=68
note_on channel=0 note=69 velocity=0 time=16
note_on channel=0 note=33 velocity=0 time=24
note_on channel=0 note=61 velocity=53 time=40
note_on channel=0 note=64 velocity=0 time=16
note_on channel=0 note=44 velocity=61 time=4
note_on channel=0 note=44 velocity=0 time=30
note_on channel=0 note=57 velocity=72 time=30
note_on channel=0 note=45 velocity=67 time=0
note_on channel=0 note=61 velocity=0 time=16
control_change channel=0 control=64 value=0 time=4
note_on channel=0 note=45 velocity=0 time=100
note_on channel=0 note=57 velocity=0 time=0
<meta message key_signature key='C' time=1800>
<meta message set_tempo tempo=1333333 time=0>
<meta message marker text='Var III' time=0>
note_on channel=0 note=72 velocity=50 time=0
note_on channel=0 note=57 velocity=43 time=0
control_change channel=0 control=64 value=127 time=0
<meta message set_tempo tempo=1176471 time=120>
note_on channel=0 note=57 velocity=0 time=0
note_on channel=0 note=72 velocity=0 time=0
note_on channel=0 note=71 velocity=47 time=0
note_on channel=0 note=64 velocity=34 time=0
<meta message set_tempo tempo=1132075 time=120>
note_on channel=0 note=64 velocity=0 time=0
note_on channel=0 note=71 velocity=0 time=0
note_on channel=0 note=69 velocity=50 time=0
note_on channel=0 note=60 velocity=40 time=0
<meta message set_tempo tempo=1176471 time=120>
note_on channel=0 note=60 velocity=0 time=0
note_on channel=0 note=69 velocity=0 time=0
note_on channel=0 note=71 velocity=46 time=0
note_on channel=0 note=64 velocity=35 time=0
<meta message set_tempo tempo=1132075 time=120>
note_on channel=0 note=64 velocity=0 time=0
note_on channel=0 note=71 velocity=0 time=0
note_on channel=0 note=72 velocity=47 time=0
note_on channel=0 note=57 velocity=41 time=0
<meta message set_tempo tempo=1200000 time=120>
note_on channel=0 note=57 velocity=0 time=0
note_on channel=0 note=72 velocity=0 time=0
note_on channel=0 note=74 velocity=48 time=0
note_on channel=0 note=64 velocity=34 time=0
<meta message set_tempo tempo=1224490 time=120>
note_on channel=0 note=64 velocity=0 time=0
note_on channel=0 note=74 velocity=0 time=0
note_on channel=0 note=76 velocity=50 time=0
note_on channel=0 note=57 velocity=42 time=0
control_change channel=0 control=64 value=0 time=10
control_change channel=0 control=64 value=127 time=42
<meta message set_tempo tempo=1153846 time=68>
note_on channel=0 note=57 velocity=0 time=0
note_on channel=0 note=76 velocity=0 time=0
note_on channel=0 note=75 velocity=46 time=0
note_on channel=0 note=64 velocity=36 time=0
<meta message set_tempo tempo=1200000 time=120>
note_on channel=0 note=64 velocity=0 time=0
note_on channel=0 note=75 velocity=0 time=0
note_on channel=0 note=77 velocity=55 time=0
note_on channel=0 note=60 velocity=41 time=0
control_change channel=0 control=64 value=0 time=10
control_change channel=0 control=64 value=127 time=53
<meta message set_tempo tempo=1111111 time=57>
note_on channel=0 note=60 velocity=0 time=0
note_on channel=0 note=77 velocity=0 time=0
note_on channel=0 note=76 velocity=53 time=0
note_on channel=0 note=64 velocity=36 time=0
<meta message set_tempo tempo=1176471 time=120>
note_on channel=0 note=64 velocity=0 time=0
note_on channel=0 note=76 velocity=0 time=0
note_on channel=0 note=74 velocity=51 time=0
note_on channel=0 note=57 velocity=41 time=0
<meta message set_tempo tempo=1333333 time=120>
note_on channel=0 note=57 velocity=0 time=0
note_on channel=0 note=74 velocity=0 time=0
note_on channel=0 note=72 velocity=48 time=0
note_on channel=0 note=64 velocity=36 time=0
<meta message set_tempo tempo=1276596 time=120>
note_on channel=0 note=64 velocity=0 time=0
note_on channel=0 note=72 velocity=0 time=0
note_on channel=0 note=71 velocity=50 time=0
note_on channel=0 note=52 velocity=43 time=0
control_change channel=0 control=64 value=0 time=11
control_change channel=0 control=64 value=127 time=35
<meta message set_tempo tempo=1200000 time=74>
note_on channel=0 note=52 velocity=0 time=0
note_on channel=0 note=71 velocity=0 time=0
note_on channel=0 note=69 velocity=47 time=0
note_on channel=0 note=64 velocity=34 time=0
<meta message set_tempo tempo=1111111 time=120>
note_on channel=0 note=64 velocity=0 time=0
note_on channel=0 note=69 velocity=0 time=0
note_on channel=0 note=68 velocity=50 time=0
note_on channel=0 note=59 velocity=40 time=0
<meta message set_tempo tempo=1132075 time=120>
note_on channel=0 note=59 velocity=0 time=0
note_on channel=0 note=68 velocity=0 time=0
note_on channel=0 note=69 velocity=46 time=0
note_on channel=0 note=64 velocity=35 time=0
<meta message set_tempo tempo=1176471 time=120>
note_on channel=0 note=64 velocity=0 time=0
note_on channel=0 note=69 velocity=0 time=0
note_on channel=0 note=71 velocity=47 time=0
note_on channel=0 note=52 velocity=41 time=0
note_on channel=0 note=52 velocity=0 time=120
note_on channel=0 note=71 velocity=0 time=0
note_on channel=0 note=72 velocity=48 time=0
note_on channel=0 note=64 velocity=34 time=0
<meta message set_tempo tempo=1200000 time=120>
note_on channel=0 note=64 velocity=0 time=0
note_on channel=0 note=72 velocity=0 time=0
note_on channel=0 note=74 velocity=50 time=0
note_on channel=0 note=52 velocity=42 time=0
control_change channel=0 control=64 value=0 time=5
control_change channel=0 control=64 value=127 time=75
<meta message set_tempo tempo=1111111 time=40>
note_on channel=0 note=52 velocity=0 time=0
note_on channel=0 note=74 velocity=0 time=0
note_on channel=0 note=73 velocity=46 time=0
note_on channel=0 note=64 velocity=36 time=0
<meta message set_tempo tempo=1153846 time=120>
note_on channel=0 note=64 velocity=0 time=0
note_on channel=0 note=73 velocity=0 time=0
note_on channel=0 note=76 velocity=54 time=0
note_on channel=0 note=59 velocity=41 time=0
control_change channel=0 control=64 value=0 time=13
control_change channel=0 control=64 value=127 time=73
<meta message set_tempo tempo=1090909 time=34>
note_on channel=0 note=59 velocity=0 time=0
note_on channel=0 note=76 velocity=0 time=0
note_on channel=0 note=74 velocity=52 time=0
note_on channel=0 note=64 velocity=36 time=0
<meta message set_tempo tempo=1176471 time=120>
note_on channel=0 note=64 velocity=0 time=0
note_on channel=0 note=74 velocity=0 time=0
note_on channel=0 note=72 velocity=51 time=0
note_on channel=0 note=52 velocity=41 time=0
note_on channel=0 note=52 velocity=0 time=120
note_on channel=0 note=72 velocity=0 time=0
note_on channel=0 note=71 velocity=49 time=0
note_on channel=0 note=64 velocity=36 time=0
<meta message set_tempo tempo=1250000 time=120>
note_on channel=0 note=64 velocity=0 time=0
note_on channel=0 note=71 velocity=0 time=0
note_on channel=0 note=69 velocity=50 time=0
note_on channel=0 note=57 velocity=43 time=0
control_change channel=0 control=64 value=0 time=0
control_change channel=0 control=64 value=127 time=52
<meta message set_tempo tempo=1111111 time=68>
note_on channel=0 note=57 velocity=0 time=0
note_on channel=0 note=69 velocity=0 time=0
note_on channel=0 note=76 velocity=47 time=0
note_on channel=0 note=64 velocity=34 time=0
<meta message set_tempo tempo=1153846 time=120>
note_on channel=0 note=64 velocity=0 time=0
note_on channel=0 note=76 velocity=0 time=0
note_on channel=0 note=75 velocity=50 time=0
note_on channel=0 note=60 velocity=40 time=0
<meta message set_tempo tempo=1153846 time=120>
note_on channel=0 note=60 velocity=0 time=0
note_on channel=0 note=75 velocity=0 time=0
note_on channel=0 note=76 velocity=46 time=0
note_on channel=0 note=64 velocity=35 time=0
<meta message set_tempo tempo=1200000 time=120>
note_on channel=0 note=64 velocity=0 time=0
note_on channel=0 note=76 velocity=0 time=0
note_on channel=0 note=72 velocity=47 time=0
note_on channel=0 note=57 velocity=41 time=0
control_change channel=0 control=64 value=0 time=14
control_change channel=0 control=64 value=127 time=66
<meta message set_tempo tempo=1200000 time=40>
note_on channel=0 note=57 velocity=0 time=0
note_on channel=0 note=72 velocity=0 time=0
note_on channel=0 note=69 velocity=48 time=0
note_on channel=0 note=64 velocity=34 time=0
<meta message set_tempo tempo=1304348 time=120>
note_on channel=0 note=64 velocity=0 time=0
note_on channel=0 note=69 velocity=0 time=0
note_on channel=0 note=68 velocity=50 time=0
note_on channel=0 note=59 velocity=42 time=0
control_change channel=0 control=64 value=0 time=5
control_change channel=0 control=64 value=127 time=64
<meta message set_tempo tempo=1111111 time=51>
note_on channel=0 note=59 velocity=0 time=0
note_on channel=0 note=68 velocity=0 time=0
note_on channel=0 note=76 velocity=46 time=0
note_on channel=0 note=64 velocity=36 time=0
<meta message set_tempo tempo=1176471 time=120>
note_on channel=0 note=64 velocity=0 time=0
note_on channel=0 note=76 velocity=0 time=0
note_on channel=0 note=77 velocity=55 time=0
note_on channel=0 note=62 velocity=41 time=0
control_change channel=0 control=64 value=0 time=11
control_change channel=0 control=64 value=127 time=46
<meta message set_tempo tempo=1111111 time=63>
note_on channel=0 note=62 velocity=0 time=0
note_on channel=0 note=77 velocity=0 time=0
note_on channel=0 note=76 velocity=53 time=0
note_on channel=0 note=64 velocity=36 time=0
<meta message set_tempo tempo=1176471 time=120>
note_on channel=0 note=64 velocity=0 time=0
note_on channel=0 note=76 velocity=0 time=0
note_on channel=0 note=74 velocity=51 time=0
note_on channel=0 note=59 velocity=41 time=0
<meta message set_tempo tempo=1428571 time=120>
note_on channel=0 note=59 velocity=0 time=0
note_on channel=0 note=74 velocity=0 time=0
note_on channel=0 note=71 velocity=48 time=0
note_on channel=0 note=64 velocity=36 time=0
note_on channel=0 note=71 velocity=0 time=115
<meta message set_tempo tempo=1304348 time=5>
note_on channel=0 note=64 velocity=0 time=0
note_on channel=0 note=71 velocity=50 time=0
note_on channel=0 note=60 velocity=43 time=0
control_change channel=0 control=64 value=0 time=3
control_change channel=0 control=64 value=127 time=77
<meta message set_tempo tempo=1200000 time=40>
note_on channel=0 note=60 velocity=0 time=0
note_on channel=0 note=71 velocity=0 time=0
note_on channel=0 note=69 velocity=47 time=0
note_on channel=0 note=64 velocity=34 time=0
note_on channel=0 note=64 velocity=0 time=120
note_on channel=0 note=69 velocity=0 time=0
note_on channel=0 note=68 velocity=50 time=0
note_on channel=0 note=59 velocity=40 time=0
control_change channel=0 control=64 value=0 time=11
control_change channel=0 control=64 value=127 time=69
<meta message set_tempo tempo=1200000 time=40>
note_on channel=0 note=59 velocity=0 time=0
note_on channel=0 note=68 velocity=0 time=0
note_on channel=0 note=69 velocity=46 time=0
note_on channel=0 note=64 velocity=35 time=0
<meta message set_tempo tempo=1276596 time=120>
note_on channel=0 note=64 velocity=0 time=0
note_on channel=0 note=69 velocity=0 time=0
note_on channel=0 note=71 velocity=47 time=0
note_on channel=0 note=57 velocity=41 time=0
<meta message set_tempo tempo=1428571 time=120>
note_on channel=0 note=57 velocity=0 time=0
note_on channel=0 note=71 velocity=0 time=0
note_on channel=0 note=72 velocity=48 time=0
note_on channel=0 note=64 velocity=34 time=0
note_on channel=0 note=72 velocity=0 time=111
<meta message set_tempo tempo=1333333 time=9>
note_on channel=0 note=64 velocity=0 time=0
note_on channel=0 note=72 velocity=41 time=0
note_on channel=0 note=69 velocity=41 time=0
note_on channel=0 note=52 velocity=42 time=0
control_change channel=0 control=64 value=0 time=6
control_change channel=0 control=64 value=127 time=86
<meta message set_tempo tempo=1250000 time=28>
note_on channel=0 note=52 velocity=0 time=0
note_on channel=0 note=64 velocity=36 time=0
<meta message set_tempo tempo=1304348 time=120>
note_on channel=0 note=64 velocity=0 time=0
note_on channel=0 note=63 velocity=41 time=0
note_on channel=0 note=63 velocity=0 time=120
note_on channel=0 note=64 velocity=36 time=0
note_on channel=0 note=64 velocity=0 time=120
note_on channel=0 note=69 velocity=0 time=0
note_on channel=0 note=72 velocity=0 time=0
note_on channel=0 note=68 velocity=41 time=0
note_on channel=0 note=71 velocity=41 time=0
note_on channel=0 note=52 velocity=41 time=0
control_change channel=0 control=64 value=0 time=8
control_change channel=0 control=64 value=127 time=49
note_on channel=0 note=52 velocity=0 time=63
note_on channel=0 note=64 velocity=36 time=0
<meta message set_tempo tempo=1333333 time=120>
note_on channel=0 note=64 velocity=0 time=0
note_on channel=0 note=71 velocity=0 time=0
note_on channel=0 note=68 velocity=0 time=0
note_on channel=0 note=84 velocity=53 time=0
note_on channel=0 note=72 velocity=44 time=0
note_on channel=0 note=57 velocity=41 time=0
control_change channel=0 control=64 value=0 time=10
<meta message set_tempo tempo=1176471 time=110>
note_on channel=0 note=57 velocity=0 time=0
note_on channel=0 note=72 velocity=0 time=0
note_on channel=0 note=84 velocity=0 time=0
note_on channel=0 note=71 velocity=40 time=0
note_on channel=0 note=83 velocity=48 time=0
note_on channel=0 note=64 velocity=33 time=0
control_change channel=0 control=64 value=127 time=0
<meta message set_tempo tempo=1132075 time=120>
note_on channel=0 note=64 velocity=0 time=0
note_on channel=0 note=83 velocity=0 time=0
note_on channel=0 note=71 velocity=0 time=0
note_on channel=0 note=69 velocity=46 time=0
note_on channel=0 note=81 velocity=55 time=0
note_on channel=0 note=60 velocity=39 time=0
<meta message set_tempo tempo=1176471 time=120>
note_on channel=0 note=60 velocity=0 time=0
note_on channel=0 note=81 velocity=0 time=0
note_on channel=0 note=69 velocity=0 time=0
note_on channel=0 note=71 velocity=44 time=0
note_on channel=0 note=83 velocity=52 time=0
note_on channel=0 note=64 velocity=36 time=0
<meta message set_tempo tempo=1176471 time=120>
note_on channel=0 note=64 velocity=0 time=0
note_on channel=0 note=83 velocity=0 time=0
note_on channel=0 note=71 velocity=0 time=0
note_on channel=0 note=72 velocity=47 time=0
note_on channel=0 note=84 velocity=55 time=0
note_on channel=0 note=57 velocity=43 time=0
<meta message set_tempo tempo=1200000 time=120>
note_on channel=0 note=57 velocity=0 time=0
note_on channel=0 note=84 velocity=0 time=0
note_on channel=0 note=72 velocity=0 time=0
note_on channel=0 note=86 velocity=52 time=0
note_on channel=0 note=74 velocity=43 time=0
note_on channel=0 note=64 velocity=36 time=0
<meta message set_tempo tempo=1224490 time=120>
note_on channel=0 note=64 velocity=0 time=0
note_on channel=0 note=74 velocity=0 time=0
note_on channel=0 note=86 velocity=0 time=0
note_on channel=0 note=76 velocity=53 time=0
note_on channel=0 note=88 velocity=63 time=0
note_on channel=0 note=57 velocity=46 time=0
control_change channel=0 control=64 value=0 time=10
control_change channel=0 control=64 value=127 time=42
<meta message set_tempo tempo=1153846 time=68>
note_on channel=0 note=57 velocity=0 time=0
note_on channel=0 note=88 velocity=0 time=0
note_on channel=0 note=76 velocity=0 time=0
note_on channel=0 note=87 velocity=58 time=0
note_on channel=0 note=75 velocity=43 time=0
note_on channel=0 note=64 velocity=39 time=0
<meta message set_tempo tempo=1132075 time=120>
note_on channel=0 note=64 velocity=0 time=0
note_on channel=0 note=75 velocity=0 time=0
note_on channel=0 note=87 velocity=0 time=0
note_on channel=0 note=77 velocity=53 time=0
note_on channel=0 note=89 velocity=63 time=0
note_on channel=0 note=60 velocity=46 time=0
control_change channel=0 control=64 value=0 time=10
control_change channel=0 control=64 value=127 time=53
<meta message set_tempo tempo=1153846 time=57>
note_on channel=0 note=60 velocity=0 time=0
note_on channel=0 note=89 velocity=0 time=0
note_on channel=0 note=77 velocity=0 time=0
note_on channel=0 note=88 velocity=60 time=0
note_on channel=0 note=76 velocity=50 time=0
note_on channel=0 note=64 velocity=40 time=0
<meta message set_tempo tempo=1176471 time=120>
note_on channel=0 note=64 velocity=0 time=0
note_on channel=0 note=76 velocity=0 time=0
note_on channel=0 note=88 velocity=0 time=0
note_on channel=0 note=86 velocity=64 time=0
note_on channel=0 note=74 velocity=54 time=0
note_on channel=0 note=57 velocity=46 time=0
<meta message set_tempo tempo=1333333 time=120>
note_on channel=0 note=57 velocity=0 time=0
note_on channel=0 note=74 velocity=0 time=0
note_on channel=0 note=86 velocity=0 time=0
note_on channel=0 note=72 velocity=48 time=0
note_on channel=0 note=84 velocity=57 time=0
note_on channel=0 note=64 velocity=40 time=0
<meta message set_tempo tempo=1276596 time=120>
note_on channel=0 note=64 velocity=0 time=0
note_on channel=0 note=84 velocity=0 time=0
note_on channel=0 note=72 velocity=0 time=0
note_on channel=0 note=83 velocity=66 time=0
note_on channel=0 note=71 velocity=56 time=0
note_on channel=0 note=52 velocity=49 time=0
control_change channel=0 control=64 value=0 time=11
control_change channel=0 control=64 value=127 time=35
<meta message set_tempo tempo=1200000 time=74>
note_on channel=0 note=52 velocity=0 time=0
note_on channel=0 note=71 velocity=0 time=0
note_on channel=0 note=83 velocity=0 time=0
note_on channel=0 note=81 velocity=58 time=0
note_on channel=0 note=69 velocity=49 time=0
note_on channel=0 note=64 velocity=39 time=0
<meta message set_tempo tempo=1153846 time=120>
note_on channel=0 note=64 velocity=0 time=0
note_on channel=0 note=69 velocity=0 time=0
note_on channel=0 note=81 velocity=0 time=0
note_on channel=0 note=68 velocity=54 time=0
note_on channel=0 note=80 velocity=64 time=0
note_on channel=0 note=59 velocity=46 time=0
<meta message set_tempo tempo=1132075 time=120>
note_on channel=0 note=59 velocity=0 time=0
note_on channel=0 note=80 velocity=0 time=0
note_on channel=0 note=68 velocity=0 time=0
note_on channel=0 note=81 velocity=58 time=0
note_on channel=0 note=69 velocity=49 time=0
note_on channel=0 note=64 velocity=40 time=0
<meta message set_tempo tempo=1176471 time=120>
note_on channel=0 note=64 velocity=0 time=0
note_on channel=0 note=69 velocity=0 time=0
note_on channel=0 note=81 velocity=0 time=0
note_on channel=0 note=83 velocity=64 time=0
note_on channel=0 note=71 velocity=54 time=0
note_on channel=0 note=52 velocity=47 time=0
note_on channel=0 note=52 velocity=0 time=120
note_on channel=0 note=71 velocity=0 time=0
note_on channel=0 note=83 velocity=0 time=0
note_on channel=0 note=84 velocity=60 time=0
note_on channel=0 note=72 velocity=51 time=0
note_on channel=0 note=64 velocity=39 time=0
<meta message set_tempo tempo=1200000 time=120>
note_on channel=0 note=64 velocity=0 time=0
note_on channel=0 note=72 velocity=0 time=0
note_on channel=0 note=84 velocity=0 time=0
note_on channel=0 note=74 velocity=49 time=0
note_on channel=0 note=86 velocity=66 time=0
note_on channel=0 note=52 velocity=48 time=0
control_change channel=0 control=64 value=0 time=5
control_change channel=0 control=64 value=127 time=75
<meta message set_tempo tempo=1111111 time=40>
note_on channel=0 note=52 velocity=0 time=0
note_on channel=0 note=86 velocity=0 time=0
note_on channel=0 note=74 velocity=0 time=0
note_on channel=0 note=85 velocity=60 time=0
note_on channel=0 note=73 velocity=45 time=0
note_on channel=0 note=64 velocity=41 time=0
<meta message set_tempo tempo=1153846 time=120>
note_on channel=0 note=64 velocity=0 time=0
note_on channel=0 note=73 velocity=0 time=0
note_on channel=0 note=85 velocity=0 time=0
note_on channel=0 note=76 velocity=60 time=0
note_on channel=0 note=88 velocity=71 time=0
note_on channel=0 note=59 velocity=47 time=0
control_change channel=0 control=64 value=0 time=15
control_change channel=0 control=64 value=127 time=71
<meta message set_tempo tempo=1090909 time=34>
note_on channel=0 note=59 velocity=0 time=0
note_on channel=0 note=88 velocity=0 time=0
note_on channel=0 note=76 velocity=0 time=0
note_on channel=0 note=86 velocity=68 time=0
note_on channel=0 note=74 velocity=57 time=0
note_on channel=0 note=64 velocity=41 time=0
<meta message set_tempo tempo=1176471 time=120>
note_on channel=0 note=64 velocity=0 time=0
note_on channel=0 note=74 velocity=0 time=0
note_on channel=0 note=86 velocity=0 time=0
note_on channel=0 note=84 velocity=65 time=0
note_on channel=0 note=72 velocity=55 time=0
note_on channel=0 note=52 velocity=47 time=0
note_on channel=0 note=52 velocity=0 time=120
note_on channel=0 note=72 velocity=0 time=0
note_on channel=0 note=84 velocity=0 time=0
note_on channel=0 note=83 velocity=62 time=0
note_on channel=0 note=71 velocity=52 time=0
note_on channel=0 note=64 velocity=41 time=0
<meta message set_tempo tempo=1224490 time=120>
note_on channel=0 note=64 velocity=0 time=0
note_on channel=0 note=71 velocity=0 time=0
note_on channel=0 note=83 velocity=0 time=0
note_on channel=0 note=69 velocity=55 time=0
note_on channel=0 note=81 velocity=65 time=0
note_on channel=0 note=57 velocity=49 time=0
control_change channel=0 control=64 value=0 time=5
control_change channel=0 control=64 value=127 time=47
<meta message set_tempo tempo=1176471 time=68>
note_on channel=0 note=57 velocity=0 time=0
note_on channel=0 note=81 velocity=0 time=0
note_on channel=0 note=69 velocity=0 time=0
note_on channel=0 note=68 velocity=51 time=0
note_on channel=0 note=80 velocity=60 time=0
note_on channel=0 note=64 velocity=39 time=0
<meta message set_tempo tempo=1153846 time=120>
note_on channel=0 note=64 velocity=0 time=0
note_on channel=0 note=80 velocity=0 time=0
note_on channel=0 note=68 velocity=0 time=0
note_on channel=0 note=81 velocity=66 time=0
note_on channel=0 note=69 velocity=56 time=0
note_on channel=0 note=60 velocity=46 time=0
<meta message set_tempo tempo=1153846 time=120>
note_on channel=0 note=60 velocity=0 time=0
note_on channel=0 note=69 velocity=0 time=0
note_on channel=0 note=81 velocity=0 time=0
note_on channel=0 note=84 velocity=60 time=0
note_on channel=0 note=72 velocity=51 time=0
note_on channel=0 note=64 velocity=40 time=0
<meta message set_tempo tempo=1200000 time=120>
note_on channel=0 note=64 velocity=0 time=0
note_on channel=0 note=72 velocity=0 time=0
note_on channel=0 note=84 velocity=0 time=0
note_on channel=0 note=71 velocity=53 time=0
note_on channel=0 note=83 velocity=63 time=0
note_on channel=0 note=56 velocity=47 time=0
control_change channel=0 control=64 value=0 time=14
control_change channel=0 control=64 value=127 time=66
<meta message set_tempo tempo=1200000 time=40>
note_on channel=0 note=56 velocity=0 time=0
note_on channel=0 note=83 velocity=0 time=0
note_on channel=0 note=71 velocity=0 time=0
note_on channel=0 note=86 velocity=63 time=0
note_on channel=0 note=74 velocity=53 time=0
note_on channel=0 note=64 velocity=39 time=0
<meta message set_tempo tempo=1224490 time=120>
note_on channel=0 note=64 velocity=0 time=0
note_on channel=0 note=74 velocity=0 time=0
note_on channel=0 note=86 velocity=0 time=0
note_on channel=0 note=72 velocity=56 time=0
note_on channel=0 note=84 velocity=66 time=0
note_on channel=0 note=57 velocity=48 time=0
control_change channel=0 control=64 value=0 time=11
control_change channel=0 control=64 value=127 time=41
<meta message set_tempo tempo=1153846 time=68>
note_on channel=0 note=57 velocity=0 time=0
note_on channel=0 note=84 velocity=0 time=0
note_on channel=0 note=72 velocity=0 time=0
note_on channel=0 note=83 velocity=60 time=0
note_on channel=0 note=71 velocity=51 time=0
note_on channel=0 note=64 velocity=41 time=0
<meta message set_tempo tempo=1176471 time=120>
note_on channel=0 note=64 velocity=0 time=0
note_on channel=0 note=71 velocity=0 time=0
note_on channel=0 note=83 velocity=0 time=0
note_on channel=0 note=72 velocity=60 time=0
note_on channel=0 note=84 velocity=71 time=0
note_on channel=0 note=60 velocity=47 time=0
<meta message set_tempo tempo=1153846 time=120>
note_on channel=0 note=60 velocity=0 time=0
note_on channel=0 note=84 velocity=0 time=0
note_on channel=0 note=72 velocity=0 time=0
note_on channel=0 note=88 velocity=67 time=0
note_on channel=0 note=76 velocity=56 time=0
note_on channel=0 note=64 velocity=41 time=0
<meta message set_tempo tempo=1176471 time=120>
note_on channel=0 note=64 velocity=0 time=0
note_on channel=0 note=76 velocity=0 time=0
note_on channel=0 note=88 velocity=0 time=0
note_on channel=0 note=74 velocity=55 time=0
note_on channel=0 note=86 velocity=65 time=0
note_on channel=0 note=53 velocity=47 time=0
control_change channel=0 control=64 value=0 time=9
control_change channel=0 control=64 value=127 time=54
<meta message set_tempo tempo=1428571 time=57>
note_on channel=0 note=53 velocity=0 time=0
note_on channel=0 note=86 velocity=0 time=0
note_on channel=0 note=74 velocity=0 time=0
note_on channel=0 note=89 velocity=65 time=0
note_on channel=0 note=77 velocity=55 time=0
note_on channel=0 note=62 velocity=41 time=0
<meta message set_tempo tempo=1250000 time=120>
note_on channel=0 note=62 velocity=0 time=0
note_on channel=0 note=77 velocity=0 time=0
note_on channel=0 note=89 velocity=0 time=0
note_on channel=0 note=88 velocity=67 time=0
note_on channel=0 note=76 velocity=56 time=0
note_on channel=0 note=52 velocity=49 time=0
control_change channel=0 control=64 value=0 time=8
control_change channel=0 control=64 value=127 time=72
note_on channel=0 note=52 velocity=0 time=40
note_on channel=0 note=76 velocity=0 time=0
note_on channel=0 note=88 velocity=0 time=0
note_on channel=0 note=87 velocity=59 time=0
note_on channel=0 note=75 velocity=50 time=0
note_on channel=0 note=60 velocity=39 time=0
<meta message set_tempo tempo=1276596 time=120>
note_on channel=0 note=60 velocity=0 time=0
note_on channel=0 note=75 velocity=0 time=0
note_on channel=0 note=87 velocity=0 time=0
note_on channel=0 note=76 velocity=56 time=0
note_on channel=0 note=88 velocity=66 time=0
note_on channel=0 note=57 velocity=46 time=0
<meta message set_tempo tempo=1333333 time=120>
note_on channel=0 note=57 velocity=0 time=0
note_on channel=0 note=88 velocity=0 time=0
note_on channel=0 note=76 velocity=0 time=0
note_on channel=0 note=76 velocity=60 time=0
note_on channel=0 note=64 velocity=51 time=0
note_on channel=0 note=60 velocity=40 time=0
<meta message set_tempo tempo=1363636 time=120>
note_on channel=0 note=60 velocity=0 time=0
note_on channel=0 note=64 velocity=0 time=0
note_on channel=0 note=76 velocity=0 time=0
note_on channel=0 note=66 velocity=53 time=0
note_on channel=0 note=78 velocity=63 time=0
note_on channel=0 note=52 velocity=47 time=0
control_change channel=0 control=64 value=0 time=8
control_change channel=0 control=64 value=127 time=28
<meta message set_tempo tempo=1578947 time=84>
note_on channel=0 note=52 velocity=0 time=0
note_on channel=0 note=78 velocity=0 time=0
note_on channel=0 note=66 velocity=0 time=0
note_on channel=0 note=80 velocity=63 time=0
note_on channel=0 note=68 velocity=53 time=0
note_on channel=0 note=59 velocity=39 time=0
<meta message set_tempo tempo=1363636 time=120>
note_on channel=0 note=59 velocity=0 time=0
note_on channel=0 note=68 velocity=0 time=0
note_on channel=0 note=80 velocity=0 time=0
note_on channel=0 note=69 velocity=53 time=0
note_on channel=0 note=81 velocity=63 time=0
note_on channel=0 note=45 velocity=54 time=0
control_change channel=0 control=64 value=0 time=23
note_on channel=0 note=45 velocity=0 time=7
note_on channel=0 note=48 velocity=52 time=90
note_on channel=0 note=48 velocity=0 time=30
<meta message set_tempo tempo=1500000 time=90>
note_on channel=0 note=52 velocity=57 time=0
note_on channel=0 note=52 velocity=0 time=30
<meta message set_tempo tempo=1500000 time=90>
note_on channel=0 note=57 velocity=54 time=0
note_on channel=0 note=57 velocity=0 time=30
note_on channel=0 note=81 velocity=0 time=90
note_on channel=0 note=69 velocity=0 time=0
note_on channel=0 note=45 velocity=60 time=0
note_on channel=0 note=45 velocity=0 time=60
<meta message set_tempo tempo=1333333 time=180>
note_on channel=0 note=72 velocity=50 time=0
note_on channel=0 note=57 velocity=43 time=0
control_change channel=0 control=64 value=127 time=0
<meta message set_tempo tempo=1153846 time=120>
note_on channel=0 note=57 velocity=0 time=0
note_on channel=0 note=72 velocity=0 time=0
note_on channel=0 note=71 velocity=47 time=0
note_on channel=0 note=64 velocity=34 time=0
<meta message set_tempo tempo=1132075 time=120>
note_on channel=0 note=64 velocity=0 time=0
note_on channel=0 note=71 velocity=0 time=0
note_on channel=0 note=69 velocity=50 time=0
note_on channel=0 note=60 velocity=40 time=0
<meta message set_tempo tempo=1176471 time=120>
note_on channel=0 note=60 velocity=0 time=0
note_on channel=0 note=69 velocity=0 time=0
note_on channel=0 note=71 velocity=46 time=0
note_on channel=0 note=64 velocity=35 time=0
<meta message set_tempo tempo=1132075 time=120>
note_on channel=0 note=64 velocity=0 time=0
note_on channel=0 note=71 velocity=0 time=0
note_on channel=0 note=72 velocity=47 time=0
note_on channel=0 note=57 velocity=41 time=0
<meta message set_tempo tempo=1200000 time=120>
note_on channel=0 note=57 velocity=0 time=0
note_on channel=0 note=72 velocity=0 time=0
note_on channel=0 note=74 velocity=48 time=0
note_on channel=0 note=64 velocity=34 time=0
<meta message set_tempo tempo=1153846 time=120>
note_on channel=0 note=64 velocity=0 time=0
note_on channel=0 note=74 velocity=0 time=0
note_on channel=0 note=76 velocity=50 time=0
note_on channel=0 note=57 velocity=42 time=0
control_change channel=0 control=64 value=0 time=10
control_change channel=0 control=64 value=127 time=42
<meta message set_tempo tempo=1153846 time=68>
note_on channel=0 note=57 velocity=0 time=0
note_on channel=0 note=76 velocity=0 time=0
note_on channel=0 note=75 velocity=46 time=0
note_on channel=0 note=64 velocity=36 time=0
<meta message set_tempo tempo=1153846 time=120>
note_on channel=0 note=64 velocity=0 time=0
note_on channel=0 note=75 velocity=0 time=0
note_on channel=0 note=77 velocity=55 time=0
note_on channel=0 note=60 velocity=41 time=0
control_change channel=0 control=64 value=0 time=10
control_change channel=0 control=64 value=127 time=53
<meta message set_tempo tempo=1111111 time=57>
note_on channel=0 note=60 velocity=0 time=0
note_on channel=0 note=77 velocity=0 time=0
note_on channel=0 note=76 velocity=53 time=0
note_on channel=0 note=64 velocity=36 time=0
<meta message set_tempo tempo=1176471 time=120>
note_on channel=0 note=64 velocity=0 time=0
note_on channel=0 note=76 velocity=0 time=0
note_on channel=0 note=74 velocity=51 time=0
note_on channel=0 note=57 velocity=41 time=0
<meta message set_tempo tempo=1333333 time=120>
note_on channel=0 note=57 velocity=0 time=0
note_on channel=0 note=74 velocity=0 time=0
note_on channel=0 note=72 velocity=48 time=0
note_on channel=0 note=64 velocity=36 time=0
<meta message set_tempo tempo=1276596 time=120>
note_on channel=0 note=64 velocity=0 time=0
note_on channel=0 note=72 velocity=0 time=0
note_on channel=0 note=71 velocity=50 time=0
note_on channel=0 note=52 velocity=43 time=0
control_change channel=0 control=64 value=0 time=11
control_change channel=0 control=64 value=127 time=35
<meta message set_tempo tempo=1200000 time=74>
note_on channel=0 note=52 velocity=0 time=0
note_on channel=0 note=71 velocity=0 time=0
note_on channel=0 note=69 velocity=47 time=0
note_on channel=0 note=64 velocity=34 time=0
<meta message set_tempo tempo=1111111 time=120>
note_on channel=0 note=64 velocity=0 time=0
note_on channel=0 note=69 velocity=0 time=0
note_on channel=0 note=68 velocity=50 time=0
note_on channel=0 note=59 velocity=40 time=0
<meta message set_tempo tempo=1132075 time=120>
note_on channel=0 note=59 velocity=0 time=0
note_on channel=0 note=68 velocity=0 time=0
note_on channel=0 note=69 velocity=46 time=0
note_on channel=0 note=64 velocity=35 time=0
<meta message set_tempo tempo=1176471 time=120>
note_on channel=0 note=64 velocity=0 time=0
note_on channel=0 note=69 velocity=0 time=0
note_on channel=0 note=71 velocity=47 time=0
note_on channel=0 note=52 velocity=41 time=0
note_on channel=0 note=52 velocity=0 time=120
note_on channel=0 note=71 velocity=0 time=0
note_on channel=0 note=72 velocity=48 time=0
note_on channel=0 note=64 velocity=34 time=0
<meta message set_tempo tempo=1132075 time=120>
note_on channel=0 note=64 velocity=0 time=0
note_on channel=0 note=72 velocity=0 time=0
note_on channel=0 note=74 velocity=50 time=0
note_on channel=0 note=52 velocity=42 time=0
control_change channel=0 control=64 value=0 time=5
control_change channel=0 control=64 value=127 time=75
<meta message set_tempo tempo=1111111 time=40>
note_on channel=0 note=52 velocity=0 time=0
note_on channel=0 note=74 velocity=0 time=0
note_on channel=0 note=73 velocity=46 time=0
note_on channel=0 note=64 velocity=36 time=0
<meta message set_tempo tempo=1176471 time=120>
note_on channel=0 note=64 velocity=0 time=0
note_on channel=0 note=73 velocity=0 time=0
note_on channel=0 note=76 velocity=54 time=0
note_on channel=0 note=59 velocity=41 time=0
control_change channel=0 control=64 value=0 time=12
<meta message set_tempo tempo=1090909 time=108>
note_on channel=0 note=59 velocity=0 time=0
note_on channel=0 note=76 velocity=0 time=0
note_on channel=0 note=74 velocity=52 time=0
note_on channel=0 note=64 velocity=36 time=0
control_change channel=0 control=64 value=127 time=6
<meta message set_tempo tempo=1176471 time=114>
note_on channel=0 note=64 velocity=0 time=0
note_on channel=0 note=74 velocity=0 time=0
note_on channel=0 note=72 velocity=51 time=0
note_on channel=0 note=52 velocity=41 time=0
note_on channel=0 note=52 velocity=0 time=120
note_on channel=0 note=72 velocity=0 time=0
note_on channel=0 note=71 velocity=49 time=0
note_on channel=0 note=64 velocity=36 time=0
<meta message set_tempo tempo=1250000 time=120>
note_on channel=0 note=64 velocity=0 time=0
note_on channel=0 note=71 velocity=0 time=0
note_on channel=0 note=69 velocity=50 time=0
note_on channel=0 note=57 velocity=43 time=0
control_change channel=0 control=64 value=0 time=3
control_change channel=0 control=64 value=127 time=49
<meta message set_tempo tempo=1111111 time=68>
note_on channel=0 note=57 velocity=0 time=0
note_on channel=0 note=69 velocity=0 time=0
note_on channel=0 note=76 velocity=47 time=0
note_on channel=0 note=64 velocity=34 time=0
<meta message set_tempo tempo=1153846 time=120>
note_on channel=0 note=64 velocity=0 time=0
note_on channel=0 note=76 velocity=0 time=0
note_on channel=0 note=75 velocity=50 time=0
note_on channel=0 note=60 velocity=40 time=0
<meta message set_tempo tempo=1153846 time=120>
note_on channel=0 note=60 velocity=0 time=0
note_on channel=0 note=75 velocity=0 time=0
note_on channel=0 note=76 velocity=46 time=0
note_on channel=0 note=64 velocity=35 time=0
<meta message set_tempo tempo=1200000 time=120>
note_on channel=0 note=64 velocity=0 time=0
note_on channel=0 note=76 velocity=0 time=0
note_on channel=0 note=72 velocity=47 time=0
note_on channel=0 note=57 velocity=41 time=0
control_change channel=0 control=64 value=0 time=16
control_change channel=0 control=64 value=127 time=64
<meta message set_tempo tempo=1200000 time=40>
note_on channel=0 note=57 velocity=0 time=0
note_on channel=0 note=72 velocity=0 time=0
note_on channel=0 note=69 velocity=48 time=0
note_on channel=0 note=64 velocity=34 time=0
<meta message set_tempo tempo=1304348 time=120>
note_on channel=0 note=64 velocity=0 time=0
note_on channel=0 note=69 velocity=0 time=0
note_on channel=0 note=68 velocity=50 time=0
note_on channel=0 note=59 velocity=42 time=0
control_change channel=0 control=64 value=0 time=5
control_change channel=0 control=64 value=127 time=64
<meta message set_tempo tempo=1111111 time=51>
note_on channel=0 note=59 velocity=0 time=0
note_on channel=0 note=68 velocity=0 time=0
note_on channel=0 note=76 velocity=46 time=0
note_on channel=0 note=64 velocity=36 time=0
<meta message set_tempo tempo=1153846 time=120>
note_on channel=0 note=64 velocity=0 time=0
note_on channel=0 note=76 velocity=0 time=0
note_on channel=0 note=77 velocity=55 time=0
note_on channel=0 note=62 velocity=41 time=0
control_change channel=0 control=64 value=0 time=11
control_change channel=0 control=64 value=127 time=46
<meta message set_tempo tempo=1111111 time=63>
note_on channel=0 note=62 velocity=0 time=0
note_on channel=0 note=77 velocity=0 time=0
note_on channel=0 note=76 velocity=53 time=0
note_on channel=0 note=64 velocity=36 time=0
<meta message set_tempo tempo=1176471 time=120>
note_on channel=0 note=64 velocity=0 time=0
note_on channel=0 note=76 velocity=0 time=0
note_on channel=0 note=74 velocity=51 time=0
note_on channel=0 note=59 velocity=41 time=0
<meta message set_tempo tempo=1428571 time=120>
note_on channel=0 note=59 velocity=0 time=0
note_on channel=0 note=74 velocity=0 time=0
note_on channel=0 note=71 velocity=48 time=0
note_on channel=0 note=64 velocity=36 time=0
note_on channel=0 note=71 velocity=0 time=109
<meta message set_tempo tempo=1304348 time=11>
note_on channel=0 note=64 velocity=0 time=0
note_on channel=0 note=71 velocity=50 time=0
note_on channel=0 note=60 velocity=43 time=0
control_change channel=0 control=64 value=0 time=4
control_change channel=0 control=64 value=127 time=76
<meta message set_tempo tempo=1200000 time=40>
note_on channel=0 note=60 velocity=0 time=0
note_on channel=0 note=71 velocity=0 time=0
note_on channel=0 note=69 velocity=47 time=0
note_on channel=0 note=64 velocity=34 time=0
<meta message set_tempo tempo=1153846 time=120>
note_on channel=0 note=64 velocity=0 time=0
note_on channel=0 note=69 velocity=0 time=0
note_on channel=0 note=68 velocity=50 time=0
note_on channel=0 note=59 velocity=40 time=0
control_change channel=0 control=64 value=0 time=11
control_change channel=0 control=64 value=127 time=69
<meta message set_tempo tempo=1200000 time=40>
note_on channel=0 note=59 velocity=0 time=0
note_on channel=0 note=68 velocity=0 time=0
note_on channel=0 note=69 velocity=46 time=0
note_on channel=0 note=64 velocity=35 time=0
<meta message set_tempo tempo=1276596 time=120>
note_on channel=0 note=64 velocity=0 time=0
note_on channel=0 note=69 velocity=0 time=0
note_on channel=0 note=71 velocity=47 time=0
note_on channel=0 note=57 velocity=41 time=0
<meta message set_tempo tempo=1428571 time=120>
note_on channel=0 note=57 velocity=0 time=0
note_on channel=0 note=71 velocity=0 time=0
note_on channel=0 note=72 velocity=48 time=0
note_on channel=0 note=64 velocity=34 time=0
note_on channel=0 note=72 velocity=0 time=110
<meta message set_tempo tempo=1333333 time=10>
note_on channel=0 note=64 velocity=0 time=0
note_on channel=0 note=72 velocity=41 time=0
note_on channel=0 note=69 velocity=41 time=0
note_on channel=0 note=52 velocity=42 time=0
control_change channel=0 control=64 value=0 time=17
control_change channel=0 control=64 value=127 time=75
<meta message set_tempo tempo=1250000 time=28>
note_on channel=0 note=52 velocity=0 time=0
note_on channel=0 note=64 velocity=36 time=0
<meta message set_tempo tempo=1304348 time=120>
note_on channel=0 note=64 velocity=0 time=0
note_on channel=0 note=63 velocity=41 time=0
note_on channel=0 note=63 velocity=0 time=120
note_on channel=0 note=64 velocity=36 time=0
note_on channel=0 note=64 velocity=0 time=120
note_on channel=0 note=69 velocity=0 time=0
note_on channel=0 note=72 velocity=0 time=0
note_on channel=0 note=68 velocity=41 time=0
note_on channel=0 note=71 velocity=41 time=0
note_on channel=0 note=52 velocity=41 time=0
control_change channel=0 control=64 value=0 time=8
control_change channel=0 control=64 value=127 time=49
note_on channel=0 note=52 velocity=0 time=63
note_on channel=0 note=64 velocity=36 time=0
<meta message set_tempo tempo=1333333 time=120>
note_on channel=0 note=64 velocity=0 time=0
note_on channel=0 note=71 velocity=0 time=0
note_on channel=0 note=68 velocity=0 time=0
note_on channel=0 note=84 velocity=53 time=0
note_on channel=0 note=72 velocity=44 time=0
note_on channel=0 note=57 velocity=41 time=0
control_change channel=0 control=64 value=0 time=10
<meta message set_tempo tempo=1176471 time=110>
note_on channel=0 note=57 velocity=0 time=0
note_on channel=0 note=72 velocity=0 time=0
note_on channel=0 note=84 velocity=0 time=0
note_on channel=0 note=83 velocity=48 time=0
note_on channel=0 note=71 velocity=40 time=0
note_on channel=0 note=64 velocity=33 time=0
control_change channel=0 control=64 value=127 time=0
<meta message set_tempo tempo=1132075 time=120>
note_on channel=0 note=64 velocity=0 time=0
note_on channel=0 note=71 velocity=0 time=0
note_on channel=0 note=83 velocity=0 time=0
note_on channel=0 note=69 velocity=46 time=0
note_on channel=0 note=81 velocity=55 time=0
note_on channel=0 note=60 velocity=39 time=0
<meta message set_tempo tempo=1176471 time=120>
note_on channel=0 note=60 velocity=0 time=0
note_on channel=0 note=81 velocity=0 time=0
note_on channel=0 note=69 velocity=0 time=0
note_on channel=0 note=71 velocity=44 time=0
note_on channel=0 note=83 velocity=52 time=0
note_on channel=0 note=64 velocity=36 time=0
<meta message set_tempo tempo=1176471 time=120>
note_on channel=0 note=64 velocity=0 time=0
note_on channel=0 note=83 velocity=0 time=0
note_on channel=0 note=71 velocity=0 time=0
note_on channel=0 note=72 velocity=47 time=0
note_on channel=0 note=84 velocity=55 time=0
note_on channel=0 note=57 velocity=43 time=0
<meta message set_tempo tempo=1200000 time=120>
note_on channel=0 note=57 velocity=0 time=0
note_on channel=0 note=84 velocity=0 time=0
note_on channel=0 note=72 velocity=0 time=0
note_on channel=0 note=86 velocity=52 time=0
note_on channel=0 note=74 velocity=43 time=0
note_on channel=0 note=64 velocity=36 time=0
<meta message set_tempo tempo=1176471 time=120>
note_on channel=0 note=64 velocity=0 time=0
note_on channel=0 note=74 velocity=0 time=0
note_on channel=0 note=86 velocity=0 time=0
note_on channel=0 note=88 velocity=63 time=0
note_on channel=0 note=76 velocity=53 time=0
note_on channel=0 note=57 velocity=46 time=0
control_change channel=0 control=64 value=0 time=10
control_change channel=0 control=64 value=127 time=42
<meta message set_tempo tempo=1153846 time=68>
note_on channel=0 note=57 velocity=0 time=0
note_on channel=0 note=76 velocity=0 time=0
note_on channel=0 note=88 velocity=0 time=0
note_on channel=0 note=75 velocity=43 time=0
note_on channel=0 note=87 velocity=58 time=0
note_on channel=0 note=64 velocity=39 time=0
<meta message set_tempo tempo=1090909 time=120>
note_on channel=0 note=64 velocity=0 time=0
note_on channel=0 note=87 velocity=0 time=0
note_on channel=0 note=75 velocity=0 time=0
note_on channel=0 note=89 velocity=63 time=0
note_on channel=0 note=77 velocity=53 time=0
note_on channel=0 note=60 velocity=46 time=0
control_change channel=0 control=64 value=0 time=10
control_change channel=0 control=64 value=127 time=53
<meta message set_tempo tempo=1153846 time=57>
note_on channel=0 note=60 velocity=0 time=0
note_on channel=0 note=77 velocity=0 time=0
note_on channel=0 note=89 velocity=0 time=0
note_on channel=0 note=88 velocity=60 time=0
note_on channel=0 note=76 velocity=50 time=0
note_on channel=0 note=64 velocity=40 time=0
<meta message set_tempo tempo=1176471 time=120>
note_on channel=0 note=64 velocity=0 time=0
note_on channel=0 note=76 velocity=0 time=0
note_on channel=0 note=88 velocity=0 time=0
note_on channel=0 note=86 velocity=64 time=0
note_on channel=0 note=74 velocity=54 time=0
note_on channel=0 note=57 velocity=46 time=0
<meta message set_tempo tempo=1333333 time=120>
note_on channel=0 note=57 velocity=0 time=0
note_on channel=0 note=74 velocity=0 time=0
note_on channel=0 note=86 velocity=0 time=0
note_on channel=0 note=72 velocity=48 time=0
note_on channel=0 note=84 velocity=57 time=0
note_on channel=0 note=64 velocity=40 time=0
<meta message set_tempo tempo=1276596 time=120>
note_on channel=0 note=64 velocity=0 time=0
note_on channel=0 note=84 velocity=0 time=0
note_on channel=0 note=72 velocity=0 time=0
note_on channel=0 note=83 velocity=66 time=0
note_on channel=0 note=71 velocity=56 time=0
note_on channel=0 note=52 velocity=49 time=0
control_change channel=0 control=64 value=0 time=11
control_change channel=0 control=64 value=127 time=35
<meta message set_tempo tempo=1200000 time=74>
note_on channel=0 note=52 velocity=0 time=0
note_on channel=0 note=71 velocity=0 time=0
note_on channel=0 note=83 velocity=0 time=0
note_on channel=0 note=69 velocity=49 time=0
note_on channel=0 note=81 velocity=58 time=0
note_on channel=0 note=64 velocity=39 time=0
<meta message set_tempo tempo=1153846 time=120>
note_on channel=0 note=64 velocity=0 time=0
note_on channel=0 note=81 velocity=0 time=0
note_on channel=0 note=69 velocity=0 time=0
note_on channel=0 note=68 velocity=54 time=0
note_on channel=0 note=80 velocity=64 time=0
note_on channel=0 note=59 velocity=46 time=0
<meta message set_tempo tempo=1071429 time=120>
note_on channel=0 note=59 velocity=0 time=0
note_on channel=0 note=80 velocity=0 time=0
note_on channel=0 note=68 velocity=0 time=0
note_on channel=0 note=69 velocity=49 time=0
note_on channel=0 note=81 velocity=58 time=0
note_on channel=0 note=64 velocity=40 time=0
<meta message set_tempo tempo=1176471 time=120>
note_on channel=0 note=64 velocity=0 time=0
note_on channel=0 note=81 velocity=0 time=0
note_on channel=0 note=69 velocity=0 time=0
note_on channel=0 note=71 velocity=54 time=0
note_on channel=0 note=83 velocity=64 time=0
note_on channel=0 note=52 velocity=47 time=0
note_on channel=0 note=52 velocity=0 time=120
note_on channel=0 note=83 velocity=0 time=0
note_on channel=0 note=71 velocity=0 time=0
note_on channel=0 note=84 velocity=60 time=0
note_on channel=0 note=72 velocity=51 time=0
note_on channel=0 note=64 velocity=39 time=0
<meta message set_tempo tempo=1153846 time=120>
note_on channel=0 note=64 velocity=0 time=0
note_on channel=0 note=72 velocity=0 time=0
note_on channel=0 note=84 velocity=0 time=0
note_on channel=0 note=74 velocity=49 time=0
note_on channel=0 note=86 velocity=66 time=0
note_on channel=0 note=52 velocity=48 time=0
control_change channel=0 control=64 value=0 time=5
control_change channel=0 control=64 value=127 time=75
<meta message set_tempo tempo=1111111 time=40>
note_on channel=0 note=52 velocity=0 time=0
note_on channel=0 note=86 velocity=0 time=0
note_on channel=0 note=74 velocity=0 time=0
note_on channel=0 note=85 velocity=60 time=0
note_on channel=0 note=73 velocity=45 time=0
note_on channel=0 note=64 velocity=41 time=0
<meta message set_tempo tempo=1153846 time=120>
note_on channel=0 note=64 velocity=0 time=0
note_on channel=0 note=73 velocity=0 time=0
note_on channel=0 note=85 velocity=0 time=0
note_on channel=0 note=88 velocity=71 time=0
note_on channel=0 note=76 velocity=60 time=0
note_on channel=0 note=59 velocity=47 time=0
control_change channel=0 control=64 value=0 time=13
control_change channel=0 control=64 value=127 time=73
<meta message set_tempo tempo=1090909 time=34>
note_on channel=0 note=59 velocity=0 time=0
note_on channel=0 note=76 velocity=0 time=0
note_on channel=0 note=88 velocity=0 time=0
note_on channel=0 note=74 velocity=57 time=0
note_on channel=0 note=86 velocity=68 time=0
note_on channel=0 note=64 velocity=41 time=0
<meta message set_tempo tempo=1176471 time=120>
note_on channel=0 note=64 velocity=0 time=0
note_on channel=0 note=86 velocity=0 time=0
note_on channel=0 note=74 velocity=0 time=0
note_on channel=0 note=84 velocity=65 time=0
note_on channel=0 note=72 velocity=55 time=0
note_on channel=0 note=52 velocity=47 time=0
note_on channel=0 note=52 velocity=0 time=120
note_on channel=0 note=72 velocity=0 time=0
note_on channel=0 note=84 velocity=0 time=0
note_on channel=0 note=71 velocity=52 time=0
note_on channel=0 note=83 velocity=62 time=0
note_on channel=0 note=64 velocity=41 time=0
<meta message set_tempo tempo=1200000 time=120>
note_on channel=0 note=64 velocity=0 time=0
note_on channel=0 note=83 velocity=0 time=0
note_on channel=0 note=71 velocity=0 time=0
note_on channel=0 note=81 velocity=65 time=0
note_on channel=0 note=69 velocity=55 time=0
note_on channel=0 note=57 velocity=49 time=0
control_change channel=0 control=64 value=0 time=4
control_change channel=0 control=64 value=127 time=48
<meta message set_tempo tempo=1176471 time=68>
note_on channel=0 note=57 velocity=0 time=0
note_on channel=0 note=69 velocity=0 time=0
note_on channel=0 note=81 velocity=0 time=0
note_on channel=0 note=68 velocity=51 time=0
note_on channel=0 note=80 velocity=60 time=0
note_on channel=0 note=64 velocity=39 time=0
<meta message set_tempo tempo=1132075 time=120>
note_on channel=0 note=64 velocity=0 time=0
note_on channel=0 note=80 velocity=0 time=0
note_on channel=0 note=68 velocity=0 time=0
note_on channel=0 note=81 velocity=66 time=0
note_on channel=0 note=69 velocity=56 time=0
note_on channel=0 note=60 velocity=46 time=0
<meta message set_tempo tempo=1153846 time=120>
note_on channel=0 note=60 velocity=0 time=0
note_on channel=0 note=69 velocity=0 time=0
note_on channel=0 note=81 velocity=0 time=0
note_on channel=0 note=72 velocity=51 time=0
note_on channel=0 note=84 velocity=60 time=0
note_on channel=0 note=64 velocity=40 time=0
<meta message set_tempo tempo=1200000 time=120>
note_on channel=0 note=64 velocity=0 time=0
note_on channel=0 note=84 velocity=0 time=0
note_on channel=0 note=72 velocity=0 time=0
note_on channel=0 note=71 velocity=53 time=0
note_on channel=0 note=83 velocity=63 time=0
note_on channel=0 note=56 velocity=47 time=0
control_change channel=0 control=64 value=0 time=15
control_change channel=0 control=64 value=127 time=65
<meta message set_tempo tempo=1200000 time=40>
note_on channel=0 note=56 velocity=0 time=0
note_on channel=0 note=83 velocity=0 time=0
note_on channel=0 note=71 velocity=0 time=0
note_on channel=0 note=86 velocity=63 time=0
note_on channel=0 note=74 velocity=53 time=0
note_on channel=0 note=64 velocity=39 time=0
<meta message set_tempo tempo=1224490 time=120>
note_on channel=0 note=64 velocity=0 time=0
note_on channel=0 note=74 velocity=0 time=0
note_on channel=0 note=86 velocity=0 time=0
note_on channel=0 note=72 velocity=56 time=0
note_on channel=0 note=84 velocity=66 time=0
note_on channel=0 note=57 velocity=48 time=0
control_change channel=0 control=64 value=0 time=11
control_change channel=0 control=64 value=127 time=81
<meta message set_tempo tempo=1153846 time=28>
note_on channel=0 note=57 velocity=0 time=0
note_on channel=0 note=84 velocity=0 time=0
note_on channel=0 note=72 velocity=0 time=0
note_on channel=0 note=71 velocity=51 time=0
note_on channel=0 note=83 velocity=60 time=0
note_on channel=0 note=64 velocity=41 time=0
<meta message set_tempo tempo=1176471 time=120>
note_on channel=0 note=64 velocity=0 time=0
note_on channel=0 note=83 velocity=0 time=0
note_on channel=0 note=71 velocity=0 time=0
note_on channel=0 note=72 velocity=60 time=0
note_on channel=0 note=84 velocity=71 time=0
note_on channel=0 note=60 velocity=47 time=0
<meta message set_tempo tempo=1153846 time=120>
note_on channel=0 note=60 velocity=0 time=0
note_on channel=0 note=84 velocity=0 time=0
note_on channel=0 note=72 velocity=0 time=0
note_on channel=0 note=88 velocity=67 time=0
note_on channel=0 note=76 velocity=56 time=0
note_on channel=0 note=64 velocity=41 time=0
<meta message set_tempo tempo=1176471 time=120>
note_on channel=0 note=64 velocity=0 time=0
note_on channel=0 note=76 velocity=0 time=0
note_on channel=0 note=88 velocity=0 time=0
note_on channel=0 note=86 velocity=65 time=0
note_on channel=0 note=74 velocity=55 time=0
note_on channel=0 note=53 velocity=47 time=0
control_change channel=0 control=64 value=0 time=7
control_change channel=0 control=64 value=127 time=50
<meta message set_tempo tempo=1428571 time=63>
note_on channel=0 note=53 velocity=0 time=0
note_on channel=0 note=74 velocity=0 time=0
note_on channel=0 note=86 velocity=0 time=0
note_on channel=0 note=77 velocity=55 time=0
note_on channel=0 note=89 velocity=65 time=0
note_on channel=0 note=62 velocity=41 time=0
<meta message set_tempo tempo=1250000 time=120>
note_on channel=0 note=62 velocity=0 time=0
note_on channel=0 note=89 velocity=0 time=0
note_on channel=0 note=77 velocity=0 time=0
note_on channel=0 note=88 velocity=67 time=0
note_on channel=0 note=76 velocity=56 time=0
note_on channel=0 note=52 velocity=49 time=0
control_change channel=0 control=64 value=0 time=4
control_change channel=0 control=64 value=127 time=76
note_on channel=0 note=52 velocity=0 time=40
note_on channel=0 note=76 velocity=0 time=0
note_on channel=0 note=88 velocity=0 time=0
note_on channel=0 note=87 velocity=59 time=0
note_on channel=0 note=75 velocity=50 time=0
note_on channel=0 note=60 velocity=39 time=0
<meta message set_tempo tempo=1276596 time=120>
note_on channel=0 note=60 velocity=0 time=0
note_on channel=0 note=75 velocity=0 time=0
note_on channel=0 note=87 velocity=0 time=0
note_on channel=0 note=88 velocity=66 time=0
note_on channel=0 note=76 velocity=56 time=0
note_on channel=0 note=57 velocity=46 time=0
<meta message set_tempo tempo=1333333 time=120>
note_on channel=0 note=57 velocity=0 time=0
note_on channel=0 note=76 velocity=0 time=0
note_on channel=0 note=88 velocity=0 time=0
note_on channel=0 note=76 velocity=60 time=0
note_on channel=0 note=64 velocity=51 time=0
note_on channel=0 note=60 velocity=40 time=0
<meta message set_tempo tempo=1363636 time=120>
note_on channel=0 note=60 velocity=0 time=0
note_on channel=0 note=64 velocity=0 time=0
note_on channel=0 note=76 velocity=0 time=0
note_on channel=0 note=66 velocity=53 time=0
note_on channel=0 note=78 velocity=63 time=0
note_on channel=0 note=52 velocity=47 time=0
control_change channel=0 control=64 value=0 time=11
control_change channel=0 control=64 value=127 time=39
<meta message set_tempo tempo=1578947 time=70>
note_on channel=0 note=52 velocity=0 time=0
note_on channel=0 note=78 velocity=0 time=0
note_on channel=0 note=66 velocity=0 time=0
note_on channel=0 note=80 velocity=63 time=0
note_on channel=0 note=68 velocity=53 time=0
note_on channel=0 note=59 velocity=39 time=0
<meta message set_tempo tempo=1363636 time=120>
note_on channel=0 note=59 velocity=0 time=0
note_on channel=0 note=68 velocity=0 time=0
note_on channel=0 note=80 velocity=0 time=0
note_on channel=0 note=69 velocity=53 time=0
note_on channel=0 note=81 velocity=63 time=0
note_on channel=0 note=45 velocity=54 time=0
control_change channel=0 control=64 value=0 time=23
note_on channel=0 note=45 velocity=0 time=7
note_on channel=0 note=48 velocity=52 time=90
note_on channel=0 note=48 velocity=0 time=30
<meta message set_tempo tempo=1500000 time=90>
note_on channel=0 note=52 velocity=57 time=0
note_on channel=0 note=52 velocity=0 time=30
<meta message set_tempo tempo=1500000 time=90>
note_on channel=0 note=57 velocity=54 time=0
note_on channel=0 note=57 velocity=0 time=30
note_on channel=0 note=81 velocity=0 time=90
note_on channel=0 note=69 velocity=0 time=0
note_on channel=0 note=45 velocity=60 time=0
note_on channel=0 note=45 velocity=0 time=60
<meta message set_tempo tempo=1304348 time=180>
note_on channel=0 note=69 velocity=50 time=0
note_on channel=0 note=57 velocity=37 time=0
note_on channel=0 note=60 velocity=44 time=0
control_change channel=0 control=64 value=127 time=0
<meta message set_tempo tempo=1224490 time=120>
note_on channel=0 note=69 velocity=0 time=0
note_on channel=0 note=68 velocity=46 time=0
<meta message set_tempo tempo=1132075 time=120>
note_on channel=0 note=68 velocity=0 time=0
note_on channel=0 note=69 velocity=50 time=0
<meta message set_tempo tempo=1200000 time=120>
note_on channel=0 note=69 velocity=0 time=0
note_on channel=0 note=81 velocity=55 time=0
<meta message set_tempo tempo=1111111 time=120>
note_on channel=0 note=81 velocity=0 time=0
note_on channel=0 note=60 velocity=0 time=0
note_on channel=0 note=80 velocity=54 time=0
note_on channel=0 note=61 velocity=44 time=0
control_change channel=0 control=64 value=0 time=14
control_change channel=0 control=64 value=127 time=95
<meta message set_tempo tempo=1304348 time=11>
note_on channel=0 note=80 velocity=0 time=0
note_on channel=0 note=79 velocity=53 time=0
note_on channel=0 note=79 velocity=0 time=108
<meta message set_tempo tempo=1153846 time=12>
note_on channel=0 note=61 velocity=0 time=0
note_on channel=0 note=57 velocity=0 time=0
note_on channel=0 note=79 velocity=50 time=0
note_on channel=0 note=57 velocity=37 time=0
note_on channel=0 note=62 velocity=44 time=0
control_change channel=0 control=64 value=0 time=11
control_change channel=0 control=64 value=127 time=58
note_on channel=0 note=79 velocity=0 time=51
note_on channel=0 note=77 velocity=48 time=0
<meta message set_tempo tempo=1111111 time=120>
note_on channel=0 note=77 velocity=0 time=0
note_on channel=0 note=76 velocity=48 time=0
<meta message set_tempo tempo=1176471 time=120>
note_on channel=0 note=76 velocity=0 time=0
note_on channel=0 note=77 velocity=48 time=0
note_on channel=0 note=77 velocity=0 time=120
note_on channel=0 note=76 velocity=50 time=0
<meta message set_tempo tempo=1428571 time=120>
note_on channel=0 note=76 velocity=0 time=0
note_on channel=0 note=77 velocity=48 time=0
<meta message set_tempo tempo=1132075 time=120>
note_on channel=0 note=77 velocity=0 time=0
note_on channel=0 note=62 velocity=0 time=0
note_on channel=0 note=57 velocity=0 time=0
note_on channel=0 note=81 velocity=50 time=0
note_on channel=0 note=57 velocity=34 time=0
note_on channel=0 note=65 velocity=41 time=0
control_change channel=0 control=64 value=0 time=3
control_change channel=0 control=64 value=127 time=66
<meta message set_tempo tempo=1090909 time=51>
note_on channel=0 note=65 velocity=0 time=0
note_on channel=0 note=81 velocity=0 time=0
note_on channel=0 note=80 velocity=45 time=0
note_on channel=0 note=64 velocity=39 time=0
<meta message set_tempo tempo=1111111 time=120>
note_on channel=0 note=64 velocity=0 time=0
note_on channel=0 note=80 velocity=0 time=0
note_on channel=0 note=81 velocity=50 time=0
note_on channel=0 note=65 velocity=41 time=0
<meta message set_tempo tempo=1153846 time=120>
note_on channel=0 note=65 velocity=0 time=0
note_on channel=0 note=81 velocity=0 time=0
note_on channel=0 note=80 velocity=45 time=0
note_on channel=0 note=64 velocity=37 time=0
<meta message set_tempo tempo=1176471 time=120>
note_on channel=0 note=64 velocity=0 time=0
note_on channel=0 note=80 velocity=0 time=0
note_on channel=0 note=81 velocity=50 time=0
note_on channel=0 note=65 velocity=41 time=0
control_change channel=0 control=64 value=0 time=17
control_change channel=0 control=64 value=127 time=58
<meta message set_tempo tempo=1333333 time=45>
note_on channel=0 note=65 velocity=0 time=0
note_on channel=0 note=81 velocity=0 time=0
note_on channel=0 note=77 velocity=46 time=0
note_on channel=0 note=62 velocity=38 time=0
note_on channel=0 note=62 velocity=0 time=108
note_on channel=0 note=77 velocity=0 time=0
<meta message set_tempo tempo=1176471 time=12>
note_on channel=0 note=57 velocity=0 time=0
note_on channel=0 note=77 velocity=50 time=0
note_on channel=0 note=57 velocity=34 time=0
note_on channel=0 note=62 velocity=41 time=0
control_change channel=0 control=64 value=0 time=14
control_change channel=0 control=64 value=127 time=78
<meta message set_tempo tempo=1132075 time=28>
note_on channel=0 note=62 velocity=0 time=0
note_on channel=0 note=77 velocity=0 time=0
note_on channel=0 note=76 velocity=47 time=0
note_on channel=0 note=60 velocity=37 time=0
<meta message set_tempo tempo=1153846 time=120>
note_on channel=0 note=60 velocity=0 time=0
note_on channel=0 note=76 velocity=0 time=0
note_on channel=0 note=75 velocity=47 time=0
note_on channel=0 note=59 velocity=41 time=0
control_change channel=0 control=64 value=0 time=16
control_change channel=0 control=64 value=127 time=59
note_on channel=0 note=59 velocity=0 time=45
note_on channel=0 note=75 velocity=0 time=0
note_on channel=0 note=76 velocity=47 time=0
note_on channel=0 note=60 velocity=38 time=0
note_on channel=0 note=60 velocity=0 time=120
note_on channel=0 note=76 velocity=0 time=0
note_on channel=0 note=75 velocity=50 time=0
note_on channel=0 note=59 velocity=41 time=0
<meta message set_tempo tempo=1276596 time=120>
note_on channel=0 note=59 velocity=0 time=0
note_on channel=0 note=75 velocity=0 time=0
note_on channel=0 note=76 velocity=45 time=0
note_on channel=0 note=60 velocity=38 time=0
note_on channel=0 note=60 velocity=0 time=108
note_on channel=0 note=76 velocity=0 time=0
<meta message set_tempo tempo=1200000 time=12>
note_on channel=0 note=57 velocity=0 time=0
note_on channel=0 note=76 velocity=50 time=0
note_on channel=0 note=60 velocity=41 time=0
note_on channel=0 note=57 velocity=34 time=0
control_change channel=0 control=64 value=0 time=4
control_change channel=0 control=64 value=127 time=53
<meta message set_tempo tempo=1132075 time=63>
note_on channel=0 note=60 velocity=0 time=0
note_on channel=0 note=76 velocity=0 time=0
note_on channel=0 note=74 velocity=46 time=0
note_on channel=0 note=62 velocity=39 time=0
<meta message set_tempo tempo=1153846 time=120>
note_on channel=0 note=62 velocity=0 time=0
note_on channel=0 note=74 velocity=0 time=0
note_on channel=0 note=72 velocity=46 time=0
note_on channel=0 note=64 velocity=39 time=0
<meta message set_tempo tempo=1132075 time=120>
note_on channel=0 note=64 velocity=0 time=0
note_on channel=0 note=72 velocity=0 time=0
note_on channel=0 note=71 velocity=46 time=0
note_on channel=0 note=62 velocity=41 time=0
<meta message set_tempo tempo=1176471 time=120>
note_on channel=0 note=62 velocity=0 time=0
note_on channel=0 note=71 velocity=0 time=0
note_on channel=0 note=69 velocity=44 time=0
note_on channel=0 note=60 velocity=39 time=0
control_change channel=0 control=64 value=0 time=12
control_change channel=0 control=64 value=127 time=63
<meta message set_tempo tempo=1333333 time=45>
note_on channel=0 note=69 velocity=0 time=0
note_on channel=0 note=76 velocity=50 time=0
<meta message set_tempo tempo=1224490 time=120>
note_on channel=0 note=76 velocity=0 time=0
note_on channel=0 note=60 velocity=0 time=0
note_on channel=0 note=57 velocity=0 time=0
note_on channel=0 note=77 velocity=47 time=0
note_on channel=0 note=59 velocity=34 time=0
note_on channel=0 note=56 velocity=28 time=0
control_change channel=0 control=64 value=0 time=5
control_change channel=0 control=64 value=127 time=64
<meta message set_tempo tempo=1153846 time=51>
note_on channel=0 note=56 velocity=0 time=0
note_on channel=0 note=59 velocity=0 time=0
note_on channel=0 note=77 velocity=0 time=0
note_on channel=0 note=74 velocity=47 time=0
note_on channel=0 note=57 velocity=30 time=0
note_on channel=0 note=60 velocity=36 time=0
<meta message set_tempo tempo=1200000 time=120>
note_on channel=0 note=60 velocity=0 time=0
note_on channel=0 note=57 velocity=0 time=0
note_on channel=0 note=74 velocity=0 time=0
note_on channel=0 note=71 velocity=47 time=0
note_on channel=0 note=59 velocity=31 time=0
note_on channel=0 note=62 velocity=37 time=0
control_change channel=0 control=64 value=0 time=12
control_change channel=0 control=64 value=127 time=45
<meta message set_tempo tempo=1153846 time=63>
note_on channel=0 note=62 velocity=0 time=0
note_on channel=0 note=59 velocity=0 time=0
note_on channel=0 note=71 velocity=0 time=0
note_on channel=0 note=69 velocity=47 time=0
note_on channel=0 note=64 velocity=38 time=0
note_on channel=0 note=60 velocity=32 time=0
<meta message set_tempo tempo=1200000 time=120>
note_on channel=0 note=60 velocity=0 time=0
note_on channel=0 note=64 velocity=0 time=0
note_on channel=0 note=69 velocity=0 time=0
note_on channel=0 note=68 velocity=50 time=0
note_on channel=0 note=62 velocity=34 time=0
note_on channel=0 note=65 velocity=40 time=0
control_change channel=0 control=64 value=0 time=7
control_change channel=0 control=64 value=127 time=56
<meta message set_tempo tempo=1276596 time=57>
note_on channel=0 note=68 velocity=0 time=0
note_on channel=0 note=71 velocity=47 time=0
note_on channel=0 note=71 velocity=0 time=108
<meta message set_tempo tempo=1176471 time=12>
note_on channel=0 note=65 velocity=0 time=0
note_on channel=0 note=62 velocity=0 time=0
note_on channel=0 note=71 velocity=50 time=0
note_on channel=0 note=64 velocity=38 time=0
note_on channel=0 note=60 velocity=32 time=0
control_change channel=0 control=64 value=0 time=7
control_change channel=0 control=64 value=127 time=50
<meta message set_tempo tempo=1276596 time=63>
note_on channel=0 note=71 velocity=0 time=0
note_on channel=0 note=69 velocity=43 time=0
<meta message set_tempo tempo=1176471 time=120>
note_on channel=0 note=69 velocity=0 time=0
note_on channel=0 note=60 velocity=0 time=0
note_on channel=0 note=64 velocity=0 time=0
note_on channel=0 note=72 velocity=55 time=0
note_on channel=0 note=56 velocity=34 time=0
note_on channel=0 note=64 velocity=41 time=0
control_change channel=0 control=64 value=0 time=14
control_change channel=0 control=64 value=127 time=64
<meta message set_tempo tempo=1333333 time=42>
note_on channel=0 note=72 velocity=0 time=0
note_on channel=0 note=71 velocity=49 time=0
<meta message set_tempo tempo=1224490 time=120>
note_on channel=0 note=71 velocity=0 time=0
note_on channel=0 note=64 velocity=0 time=0
note_on channel=0 note=56 velocity=0 time=0
note_on channel=0 note=74 velocity=58 time=0
note_on channel=0 note=57 velocity=37 time=0
note_on channel=0 note=64 velocity=44 time=0
control_change channel=0 control=64 value=0 time=17
control_change channel=0 control=64 value=127 time=89
<meta message set_tempo tempo=1176471 time=14>
note_on channel=0 note=74 velocity=0 time=0
note_on channel=0 note=72 velocity=51 time=0
<meta message set_tempo tempo=1304348 time=120>
note_on channel=0 note=72 velocity=0 time=0
note_on channel=0 note=64 velocity=0 time=0
note_on channel=0 note=57 velocity=0 time=0
note_on channel=0 note=71 velocity=54 time=0
control_change channel=0 control=64 value=0 time=35
note_on channel=0 note=71 velocity=0 time=5
note_on channel=0 note=72 velocity=56 time=0
note_on channel=0 note=72 velocity=0 time=40
note_on channel=0 note=74 velocity=58 time=0
<meta message set_tempo tempo=1621622 time=40>
note_on channel=0 note=74 velocity=0 time=0
note_on channel=0 note=69 velocity=55 time=0
note_on channel=0 note=72 velocity=65 time=0
note_on channel=0 note=51 velocity=49 time=0
control_change channel=0 control=64 value=127 time=9
<meta message set_tempo tempo=1428571 time=351>
note_on channel=0 note=51 velocity=0 time=0
note_on channel=0 note=72 velocity=0 time=0
note_on channel=0 note=69 velocity=0 time=0
note_on channel=0 note=68 velocity=36 time=0
note_on channel=0 note=71 velocity=51 time=0
note_on channel=0 note=52 velocity=33 time=0
control_change channel=0 control=64 value=0 time=10
note_on channel=0 note=52 velocity=0 time=170
note_on channel=0 note=71 velocity=0 time=0
note_on channel=0 note=68 velocity=0 time=0
<meta message set_tempo tempo=1276596 time=60>
note_on channel=0 note=72 velocity=50 time=0
note_on channel=0 note=57 velocity=43 time=0
control_change channel=0 control=64 value=127 time=23
<meta message set_tempo tempo=1176471 time=97>
note_on channel=0 note=57 velocity=0 time=0
note_on channel=0 note=72 velocity=0 time=0
note_on channel=0 note=71 velocity=47 time=0
note_on channel=0 note=64 velocity=34 time=0
<meta message set_tempo tempo=1132075 time=120>
note_on channel=0 note=64 velocity=0 time=0
note_on channel=0 note=71 velocity=0 time=0
note_on channel=0 note=69 velocity=50 time=0
note_on channel=0 note=60 velocity=40 time=0
<meta message set_tempo tempo=1176471 time=120>
note_on channel=0 note=60 velocity=0 time=0
note_on channel=0 note=69 velocity=0 time=0
note_on channel=0 note=71 velocity=46 time=0
note_on channel=0 note=64 velocity=35 time=0
<meta message set_tempo tempo=1132075 time=120>
note_on channel=0 note=64 velocity=0 time=0
note_on channel=0 note=71 velocity=0 time=0
note_on channel=0 note=72 velocity=47 time=0
note_on channel=0 note=57 velocity=41 time=0
<meta message set_tempo tempo=1200000 time=120>
note_on channel=0 note=57 velocity=0 time=0
note_on channel=0 note=72 velocity=0 time=0
note_on channel=0 note=74 velocity=48 time=0
note_on channel=0 note=64 velocity=34 time=0
<meta message set_tempo tempo=1224490 time=120>
note_on channel=0 note=64 velocity=0 time=0
note_on channel=0 note=74 velocity=0 time=0
note_on channel=0 note=76 velocity=50 time=0
note_on channel=0 note=57 velocity=42 time=0
control_change channel=0 control=64 value=0 time=10
control_change channel=0 control=64 value=127 time=42
<meta message set_tempo tempo=1153846 time=68>
note_on channel=0 note=57 velocity=0 time=0
note_on channel=0 note=76 velocity=0 time=0
note_on channel=0 note=75 velocity=46 time=0
note_on channel=0 note=64 velocity=36 time=0
<meta message set_tempo tempo=1200000 time=120>
note_on channel=0 note=64 velocity=0 time=0
note_on channel=0 note=75 velocity=0 time=0
note_on channel=0 note=77 velocity=55 time=0
note_on channel=0 note=60 velocity=41 time=0
control_change channel=0 control=64 value=0 time=10
control_change channel=0 control=64 value=127 time=53
<meta message set_tempo tempo=1111111 time=57>
note_on channel=0 note=60 velocity=0 time=0
note_on channel=0 note=77 velocity=0 time=0
note_on channel=0 note=76 velocity=53 time=0
note_on channel=0 note=64 velocity=36 time=0
<meta message set_tempo tempo=1176471 time=120>
note_on channel=0 note=64 velocity=0 time=0
note_on channel=0 note=76 velocity=0 time=0
note_on channel=0 note=74 velocity=51 time=0
note_on channel=0 note=57 velocity=41 time=0
<meta message set_tempo tempo=1333333 time=120>
note_on channel=0 note=57 velocity=0 time=0
note_on channel=0 note=74 velocity=0 time=0
note_on channel=0 note=72 velocity=48 time=0
note_on channel=0 note=64 velocity=36 time=0
<meta message set_tempo tempo=1200000 time=120>
note_on channel=0 note=64 velocity=0 time=0
note_on channel=0 note=72 velocity=0 time=0
note_on channel=0 note=71 velocity=50 time=0
note_on channel=0 note=52 velocity=43 time=0
control_change channel=0 control=64 value=0 time=11
control_change channel=0 control=64 value=127 time=75
<meta message set_tempo tempo=1200000 time=34>
note_on channel=0 note=52 velocity=0 time=0
note_on channel=0 note=71 velocity=0 time=0
note_on channel=0 note=69 velocity=47 time=0
note_on channel=0 note=64 velocity=34 time=0
<meta message set_tempo tempo=1111111 time=120>
note_on channel=0 note=64 velocity=0 time=0
note_on channel=0 note=69 velocity=0 time=0
note_on channel=0 note=68 velocity=50 time=0
note_on channel=0 note=59 velocity=40 time=0
<meta message set_tempo tempo=1132075 time=120>
note_on channel=0 note=59 velocity=0 time=0
note_on channel=0 note=68 velocity=0 time=0
note_on channel=0 note=69 velocity=46 time=0
note_on channel=0 note=64 velocity=35 time=0
<meta message set_tempo tempo=1176471 time=120>
note_on channel=0 note=64 velocity=0 time=0
note_on channel=0 note=69 velocity=0 time=0
note_on channel=0 note=71 velocity=47 time=0
note_on channel=0 note=52 velocity=41 time=0
note_on channel=0 note=52 velocity=0 time=120
note_on channel=0 note=71 velocity=0 time=0
note_on channel=0 note=72 velocity=48 time=0
note_on channel=0 note=64 velocity=34 time=0
<meta message set_tempo tempo=1200000 time=120>
note_on channel=0 note=64 velocity=0 time=0
note_on channel=0 note=72 velocity=0 time=0
note_on channel=0 note=74 velocity=50 time=0
note_on channel=0 note=52 velocity=42 time=0
control_change channel=0 control=64 value=0 time=5
control_change channel=0 control=64 value=127 time=75
<meta message set_tempo tempo=1111111 time=40>
note_on channel=0 note=52 velocity=0 time=0
note_on channel=0 note=74 velocity=0 time=0
note_on channel=0 note=73 velocity=46 time=0
note_on channel=0 note=64 velocity=36 time=0
<meta message set_tempo tempo=1224490 time=120>
note_on channel=0 note=64 velocity=0 time=0
note_on channel=0 note=73 velocity=0 time=0
note_on channel=0 note=76 velocity=54 time=0
note_on channel=0 note=59 velocity=41 time=0
control_change channel=0 control=64 value=0 time=12
control_change channel=0 control=64 value=127 time=74
<meta message set_tempo tempo=1090909 time=34>
note_on channel=0 note=59 velocity=0 time=0
note_on channel=0 note=76 velocity=0 time=0
note_on channel=0 note=74 velocity=52 time=0
note_on channel=0 note=64 velocity=36 time=0
<meta message set_tempo tempo=1176471 time=120>
note_on channel=0 note=64 velocity=0 time=0
note_on channel=0 note=74 velocity=0 time=0
note_on channel=0 note=72 velocity=51 time=0
note_on channel=0 note=52 velocity=41 time=0
note_on channel=0 note=52 velocity=0 time=120
note_on channel=0 note=72 velocity=0 time=0
note_on channel=0 note=71 velocity=49 time=0
note_on channel=0 note=64 velocity=36 time=0
<meta message set_tempo tempo=1176471 time=120>
note_on channel=0 note=64 velocity=0 time=0
note_on channel=0 note=71 velocity=0 time=0
note_on channel=0 note=69 velocity=50 time=0
note_on channel=0 note=57 velocity=43 time=0
control_change channel=0 control=64 value=0 time=6
control_change channel=0 control=64 value=127 time=46
<meta message set_tempo tempo=1111111 time=68>
note_on channel=0 note=57 velocity=0 time=0
note_on channel=0 note=69 velocity=0 time=0
note_on channel=0 note=68 velocity=47 time=0
note_on channel=0 note=64 velocity=34 time=0
<meta message set_tempo tempo=1153846 time=120>
note_on channel=0 note=64 velocity=0 time=0
note_on channel=0 note=68 velocity=0 time=0
note_on channel=0 note=69 velocity=50 time=0
note_on channel=0 note=60 velocity=40 time=0
<meta message set_tempo tempo=1153846 time=120>
note_on channel=0 note=60 velocity=0 time=0
note_on channel=0 note=69 velocity=0 time=0
note_on channel=0 note=72 velocity=46 time=0
note_on channel=0 note=64 velocity=35 time=0
<meta message set_tempo tempo=1200000 time=120>
note_on channel=0 note=64 velocity=0 time=0
note_on channel=0 note=72 velocity=0 time=0
note_on channel=0 note=71 velocity=52 time=0
note_on channel=0 note=56 velocity=41 time=0
control_change channel=0 control=64 value=0 time=13
control_change channel=0 control=64 value=127 time=67
<meta message set_tempo tempo=1200000 time=40>
note_on channel=0 note=56 velocity=0 time=0
note_on channel=0 note=71 velocity=0 time=0
note_on channel=0 note=74 velocity=48 time=0
note_on channel=0 note=64 velocity=34 time=0
<meta message set_tempo tempo=1304348 time=120>
note_on channel=0 note=64 velocity=0 time=0
note_on channel=0 note=74 velocity=0 time=0
note_on channel=0 note=72 velocity=56 time=0
note_on channel=0 note=57 velocity=42 time=0
control_change channel=0 control=64 value=0 time=11
control_change channel=0 control=64 value=127 time=58
<meta message set_tempo tempo=1111111 time=51>
note_on channel=0 note=57 velocity=0 time=0
note_on channel=0 note=72 velocity=0 time=0
note_on channel=0 note=71 velocity=50 time=0
note_on channel=0 note=64 velocity=36 time=0
<meta message set_tempo tempo=1176471 time=120>
note_on channel=0 note=64 velocity=0 time=0
note_on channel=0 note=71 velocity=0 time=0
note_on channel=0 note=72 velocity=54 time=0
note_on channel=0 note=60 velocity=41 time=0
<meta message set_tempo tempo=1111111 time=120>
note_on channel=0 note=60 velocity=0 time=0
note_on channel=0 note=72 velocity=0 time=0
note_on channel=0 note=76 velocity=50 time=0
note_on channel=0 note=64 velocity=36 time=0
<meta message set_tempo tempo=1176471 time=120>
note_on channel=0 note=64 velocity=0 time=0
note_on channel=0 note=76 velocity=0 time=0
note_on channel=0 note=74 velocity=55 time=0
note_on channel=0 note=53 velocity=41 time=0
control_change channel=0 control=64 value=0 time=10
control_change channel=0 control=64 value=127 time=76
<meta message set_tempo tempo=1428571 time=34>
note_on channel=0 note=53 velocity=0 time=0
note_on channel=0 note=74 velocity=0 time=0
note_on channel=0 note=77 velocity=48 time=0
note_on channel=0 note=62 velocity=36 time=0
<meta message set_tempo tempo=1304348 time=120>
note_on channel=0 note=62 velocity=0 time=0
note_on channel=0 note=77 velocity=0 time=0
note_on channel=0 note=76 velocity=60 time=0
note_on channel=0 note=52 velocity=43 time=0
control_change channel=0 control=64 value=0 time=4
control_change channel=0 control=64 value=127 time=76
<meta message set_tempo tempo=1200000 time=40>
note_on channel=0 note=52 velocity=0 time=0
note_on channel=0 note=76 velocity=0 time=0
note_on channel=0 note=75 velocity=54 time=0
note_on channel=0 note=60 velocity=34 time=0
note_on channel=0 note=60 velocity=0 time=120
note_on channel=0 note=75 velocity=0 time=0
note_on channel=0 note=76 velocity=56 time=0
note_on channel=0 note=57 velocity=40 time=0
<meta message set_tempo tempo=1200000 time=120>
note_on channel=0 note=57 velocity=0 time=0
note_on channel=0 note=76 velocity=0 time=0
note_on channel=0 note=64 velocity=43 time=0
note_on channel=0 note=60 velocity=35 time=0
<meta message set_tempo tempo=1276596 time=120>
note_on channel=0 note=60 velocity=0 time=0
note_on channel=0 note=64 velocity=0 time=0
note_on channel=0 note=66 velocity=43 time=0
note_on channel=0 note=52 velocity=41 time=0
control_change channel=0 control=64 value=0 time=13
control_change channel=0 control=64 value=127 time=56
<meta message set_tempo tempo=1428571 time=51>
note_on channel=0 note=52 velocity=0 time=0
note_on channel=0 note=66 velocity=0 time=0
note_on channel=0 note=68 velocity=46 time=0
note_on channel=0 note=59 velocity=34 time=0
<meta message set_tempo tempo=1333333 time=120>
note_on channel=0 note=59 velocity=0 time=0
note_on channel=0 note=68 velocity=0 time=0
note_on channel=0 note=69 velocity=51 time=0
note_on channel=0 note=57 velocity=46 time=0
note_on channel=0 note=45 velocity=43 time=0
control_change channel=0 control=64 value=0 time=14
control_change channel=0 control=64 value=127 time=95
<meta message set_tempo tempo=1250000 time=11>
note_on channel=0 note=69 velocity=0 time=0
note_on channel=0 note=68 velocity=44 time=0
<meta message set_tempo tempo=1224490 time=120>
note_on channel=0 note=68 velocity=0 time=0
note_on channel=0 note=69 velocity=50 time=0
note_on channel=0 note=69 velocity=0 time=120
note_on channel=0 note=64 velocity=45 time=0
<meta message set_tempo tempo=1276596 time=120>
note_on channel=0 note=64 velocity=0 time=0
note_on channel=0 note=45 velocity=0 time=0
note_on channel=0 note=57 velocity=0 time=0
note_on channel=0 note=60 velocity=49 time=0
control_change channel=0 control=64 value=0 time=10
control_change channel=0 control=64 value=127 time=87
note_on channel=0 note=60 velocity=0 time=23
note_on channel=0 note=64 velocity=46 time=0
<meta message set_tempo tempo=1276596 time=120>
note_on channel=0 note=64 velocity=0 time=0
note_on channel=0 note=69 velocity=55 time=0
note_on channel=0 note=81 velocity=65 time=0
note_on channel=0 note=45 velocity=49 time=0
control_change channel=0 control=64 value=0 time=3
control_change channel=0 control=64 value=127 time=89
<meta message set_tempo tempo=1176471 time=28>
note_on channel=0 note=45 velocity=0 time=0
note_on channel=0 note=81 velocity=0 time=0
note_on channel=0 note=69 velocity=0 time=0
note_on channel=0 note=80 velocity=60 time=0
note_on channel=0 note=68 velocity=51 time=0
note_on channel=0 note=52 velocity=39 time=0
<meta message set_tempo tempo=1153846 time=120>
note_on channel=0 note=52 velocity=0 time=0
note_on channel=0 note=68 velocity=0 time=0
note_on channel=0 note=80 velocity=0 time=0
note_on channel=0 note=81 velocity=66 time=0
note_on channel=0 note=69 velocity=56 time=0
note_on channel=0 note=48 velocity=46 time=0
<meta message set_tempo tempo=1153846 time=120>
note_on channel=0 note=48 velocity=0 time=0
note_on channel=0 note=69 velocity=0 time=0
note_on channel=0 note=81 velocity=0 time=0
note_on channel=0 note=72 velocity=51 time=0
note_on channel=0 note=84 velocity=60 time=0
note_on channel=0 note=52 velocity=40 time=0
<meta message set_tempo tempo=1200000 time=120>
note_on channel=0 note=52 velocity=0 time=0
note_on channel=0 note=84 velocity=0 time=0
note_on channel=0 note=72 velocity=0 time=0
note_on channel=0 note=83 velocity=63 time=0
note_on channel=0 note=71 velocity=53 time=0
note_on channel=0 note=44 velocity=47 time=0
control_change channel=0 control=64 value=0 time=13
control_change channel=0 control=64 value=127 time=67
<meta message set_tempo tempo=1200000 time=40>
note_on channel=0 note=44 velocity=0 time=0
note_on channel=0 note=71 velocity=0 time=0
note_on channel=0 note=83 velocity=0 time=0
note_on channel=0 note=86 velocity=63 time=0
note_on channel=0 note=74 velocity=53 time=0
note_on channel=0 note=52 velocity=39 time=0
<meta message set_tempo tempo=1250000 time=120>
note_on channel=0 note=52 velocity=0 time=0
note_on channel=0 note=74 velocity=0 time=0
note_on channel=0 note=86 velocity=0 time=0
note_on channel=0 note=72 velocity=56 time=0
note_on channel=0 note=84 velocity=66 time=0
note_on channel=0 note=45 velocity=48 time=0
control_change channel=0 control=64 value=0 time=11
control_change channel=0 control=64 value=127 time=58
<meta message set_tempo tempo=1153846 time=51>
note_on channel=0 note=45 velocity=0 time=0
note_on channel=0 note=84 velocity=0 time=0
note_on channel=0 note=72 velocity=0 time=0
note_on channel=0 note=71 velocity=51 time=0
note_on channel=0 note=83 velocity=60 time=0
note_on channel=0 note=52 velocity=41 time=0
<meta message set_tempo tempo=1176471 time=120>
note_on channel=0 note=52 velocity=0 time=0
note_on channel=0 note=83 velocity=0 time=0
note_on channel=0 note=71 velocity=0 time=0
note_on channel=0 note=84 velocity=71 time=0
note_on channel=0 note=72 velocity=60 time=0
note_on channel=0 note=48 velocity=47 time=0
<meta message set_tempo tempo=1153846 time=120>
note_on channel=0 note=48 velocity=0 time=0
note_on channel=0 note=72 velocity=0 time=0
note_on channel=0 note=84 velocity=0 time=0
note_on channel=0 note=88 velocity=67 time=0
note_on channel=0 note=76 velocity=56 time=0
note_on channel=0 note=52 velocity=41 time=0
<meta message set_tempo tempo=1176471 time=120>
note_on channel=0 note=52 velocity=0 time=0
note_on channel=0 note=76 velocity=0 time=0
note_on channel=0 note=88 velocity=0 time=0
note_on channel=0 note=74 velocity=55 time=0
note_on channel=0 note=86 velocity=65 time=0
note_on channel=0 note=41 velocity=47 time=0
control_change channel=0 control=64 value=0 time=10
control_change channel=0 control=64 value=127 time=50
<meta message set_tempo tempo=1428571 time=60>
note_on channel=0 note=41 velocity=0 time=0
note_on channel=0 note=86 velocity=0 time=0
note_on channel=0 note=74 velocity=0 time=0
note_on channel=0 note=77 velocity=55 time=0
note_on channel=0 note=89 velocity=65 time=0
note_on channel=0 note=50 velocity=41 time=0
<meta message set_tempo tempo=1250000 time=120>
note_on channel=0 note=50 velocity=0 time=0
note_on channel=0 note=89 velocity=0 time=0
note_on channel=0 note=77 velocity=0 time=0
note_on channel=0 note=76 velocity=56 time=0
note_on channel=0 note=88 velocity=67 time=0
note_on channel=0 note=40 velocity=49 time=0
control_change channel=0 control=64 value=0 time=4
control_change channel=0 control=64 value=127 time=39
note_on channel=0 note=40 velocity=0 time=77
note_on channel=0 note=88 velocity=0 time=0
note_on channel=0 note=76 velocity=0 time=0
note_on channel=0 note=87 velocity=59 time=0
note_on channel=0 note=75 velocity=50 time=0
note_on channel=0 note=48 velocity=39 time=0
<meta message set_tempo tempo=1276596 time=120>
note_on channel=0 note=48 velocity=0 time=0
note_on channel=0 note=75 velocity=0 time=0
note_on channel=0 note=87 velocity=0 time=0
note_on channel=0 note=76 velocity=56 time=0
note_on channel=0 note=88 velocity=66 time=0
note_on channel=0 note=45 velocity=46 time=0
<meta message set_tempo tempo=1333333 time=120>
note_on channel=0 note=45 velocity=0 time=0
note_on channel=0 note=88 velocity=0 time=0
note_on channel=0 note=76 velocity=0 time=0
note_on channel=0 note=64 velocity=51 time=0
note_on channel=0 note=76 velocity=60 time=0
note_on channel=0 note=48 velocity=40 time=0
<meta message set_tempo tempo=1363636 time=120>
note_on channel=0 note=48 velocity=0 time=0
note_on channel=0 note=76 velocity=0 time=0
note_on channel=0 note=64 velocity=0 time=0
note_on channel=0 note=78 velocity=63 time=0
note_on channel=0 note=66 velocity=53 time=0
note_on channel=0 note=40 velocity=47 time=0
control_change channel=0 control=64 value=0 time=9
control_change channel=0 control=64 value=127 time=55
<meta message set_tempo tempo=1578947 time=56>
note_on channel=0 note=40 velocity=0 time=0
note_on channel=0 note=66 velocity=0 time=0
note_on channel=0 note=78 velocity=0 time=0
note_on channel=0 note=80 velocity=63 time=0
note_on channel=0 note=68 velocity=53 time=0
note_on channel=0 note=47 velocity=39 time=0
<meta message set_tempo tempo=1363636 time=120>
note_on channel=0 note=47 velocity=0 time=0
note_on channel=0 note=68 velocity=0 time=0
note_on channel=0 note=80 velocity=0 time=0
note_on channel=0 note=81 velocity=63 time=0
note_on channel=0 note=69 velocity=53 time=0
note_on channel=0 note=33 velocity=54 time=0
control_change channel=0 control=64 value=0 time=23
note_on channel=0 note=33 velocity=0 time=7
note_on channel=0 note=36 velocity=52 time=90
note_on channel=0 note=36 velocity=0 time=30
<meta message set_tempo tempo=1500000 time=90>
note_on channel=0 note=40 velocity=57 time=0
note_on channel=0 note=40 velocity=0 time=30
<meta message set_tempo tempo=1500000 time=90>
note_on channel=0 note=45 velocity=54 time=0
note_on channel=0 note=45 velocity=0 time=30
note_on channel=0 note=69 velocity=0 time=90
note_on channel=0 note=81 velocity=0 time=0
note_on channel=0 note=33 velocity=60 time=0
note_on channel=0 note=33 velocity=0 time=60
<meta message set_tempo tempo=1224490 time=180>
note_on channel=0 note=69 velocity=50 time=0
note_on channel=0 note=57 velocity=37 time=0
note_on channel=0 note=60 velocity=44 time=0
control_change channel=0 control=64 value=127 time=0
<meta message set_tempo tempo=1224490 time=120>
note_on channel=0 note=69 velocity=0 time=0
note_on channel=0 note=68 velocity=46 time=0
<meta message set_tempo tempo=1132075 time=120>
note_on channel=0 note=68 velocity=0 time=0
note_on channel=0 note=69 velocity=50 time=0
<meta message set_tempo tempo=1200000 time=120>
note_on channel=0 note=69 velocity=0 time=0
note_on channel=0 note=81 velocity=55 time=0
<meta message set_tempo tempo=1111111 time=120>
note_on channel=0 note=81 velocity=0 time=0
note_on channel=0 note=60 velocity=0 time=0
note_on channel=0 note=80 velocity=54 time=0
note_on channel=0 note=61 velocity=44 time=0
control_change channel=0 control=64 value=0 time=15
control_change channel=0 control=64 value=127 time=94
<meta message set_tempo tempo=1304348 time=11>
note_on channel=0 note=80 velocity=0 time=0
note_on channel=0 note=79 velocity=53 time=0
note_on channel=0 note=79 velocity=0 time=108
<meta message set_tempo tempo=1153846 time=12>
note_on channel=0 note=61 velocity=0 time=0
note_on channel=0 note=57 velocity=0 time=0
note_on channel=0 note=79 velocity=50 time=0
note_on channel=0 note=57 velocity=37 time=0
note_on channel=0 note=62 velocity=44 time=0
control_change channel=0 control=64 value=0 time=11
control_change channel=0 control=64 value=127 time=58
note_on channel=0 note=79 velocity=0 time=51
note_on channel=0 note=77 velocity=48 time=0
<meta message set_tempo tempo=1111111 time=120>
note_on channel=0 note=77 velocity=0 time=0
note_on channel=0 note=76 velocity=48 time=0
<meta message set_tempo tempo=1176471 time=120>
note_on channel=0 note=76 velocity=0 time=0
note_on channel=0 note=77 velocity=48 time=0
note_on channel=0 note=77 velocity=0 time=120
note_on channel=0 note=76 velocity=50 time=0
<meta message set_tempo tempo=1428571 time=120>
note_on channel=0 note=76 velocity=0 time=0
note_on channel=0 note=77 velocity=48 time=0
<meta message set_tempo tempo=1176471 time=120>
note_on channel=0 note=77 velocity=0 time=0
note_on channel=0 note=62 velocity=0 time=0
note_on channel=0 note=57 velocity=0 time=0
note_on channel=0 note=81 velocity=50 time=0
note_on channel=0 note=65 velocity=41 time=0
note_on channel=0 note=57 velocity=34 time=0
control_change channel=0 control=64 value=0 time=4
control_change channel=0 control=64 value=127 time=65
<meta message set_tempo tempo=1090909 time=51>
note_on channel=0 note=65 velocity=0 time=0
note_on channel=0 note=81 velocity=0 time=0
note_on channel=0 note=80 velocity=45 time=0
note_on channel=0 note=64 velocity=39 time=0
<meta message set_tempo tempo=1111111 time=120>
note_on channel=0 note=64 velocity=0 time=0
note_on channel=0 note=80 velocity=0 time=0
note_on channel=0 note=81 velocity=50 time=0
note_on channel=0 note=65 velocity=41 time=0
<meta message set_tempo tempo=1153846 time=120>
note_on channel=0 note=65 velocity=0 time=0
note_on channel=0 note=81 velocity=0 time=0
note_on channel=0 note=80 velocity=45 time=0
note_on channel=0 note=64 velocity=37 time=0
<meta message set_tempo tempo=1176471 time=120>
note_on channel=0 note=64 velocity=0 time=0
note_on channel=0 note=80 velocity=0 time=0
note_on channel=0 note=81 velocity=50 time=0
note_on channel=0 note=65 velocity=41 time=0
control_change channel=0 control=64 value=0 time=14
control_change channel=0 control=64 value=127 time=61
<meta message set_tempo tempo=1333333 time=45>
note_on channel=0 note=65 velocity=0 time=0
note_on channel=0 note=81 velocity=0 time=0
note_on channel=0 note=77 velocity=46 time=0
note_on channel=0 note=62 velocity=38 time=0
note_on channel=0 note=62 velocity=0 time=108
note_on channel=0 note=77 velocity=0 time=0
<meta message set_tempo tempo=1224490 time=12>
note_on channel=0 note=57 velocity=0 time=0
note_on channel=0 note=77 velocity=50 time=0
note_on channel=0 note=62 velocity=41 time=0
note_on channel=0 note=57 velocity=34 time=0
control_change channel=0 control=64 value=0 time=14
control_change channel=0 control=64 value=127 time=33
<meta message set_tempo tempo=1132075 time=73>
note_on channel=0 note=62 velocity=0 time=0
note_on channel=0 note=77 velocity=0 time=0
note_on channel=0 note=76 velocity=47 time=0
note_on channel=0 note=60 velocity=37 time=0
<meta message set_tempo tempo=1153846 time=120>
note_on channel=0 note=60 velocity=0 time=0
note_on channel=0 note=76 velocity=0 time=0
note_on channel=0 note=75 velocity=47 time=0
note_on channel=0 note=59 velocity=41 time=0
control_change channel=0 control=64 value=0 time=14
control_change channel=0 control=64 value=127 time=55
<meta message set_tempo tempo=1111111 time=51>
note_on channel=0 note=59 velocity=0 time=0
note_on channel=0 note=75 velocity=0 time=0
note_on channel=0 note=76 velocity=47 time=0
note_on channel=0 note=60 velocity=38 time=0
<meta message set_tempo tempo=1132075 time=120>
note_on channel=0 note=60 velocity=0 time=0
note_on channel=0 note=76 velocity=0 time=0
note_on channel=0 note=75 velocity=50 time=0
note_on channel=0 note=59 velocity=41 time=0
<meta message set_tempo tempo=1276596 time=120>
note_on channel=0 note=59 velocity=0 time=0
note_on channel=0 note=75 velocity=0 time=0
note_on channel=0 note=76 velocity=45 time=0
note_on channel=0 note=60 velocity=38 time=0
note_on channel=0 note=60 velocity=0 time=108
note_on channel=0 note=76 velocity=0 time=0
<meta message set_tempo tempo=1250000 time=12>
note_on channel=0 note=57 velocity=0 time=0
note_on channel=0 note=76 velocity=50 time=0
note_on channel=0 note=57 velocity=34 time=0
note_on channel=0 note=60 velocity=41 time=0
control_change channel=0 control=64 value=0 time=4
control_change channel=0 control=64 value=127 time=53
<meta message set_tempo tempo=1132075 time=63>
note_on channel=0 note=60 velocity=0 time=0
note_on channel=0 note=76 velocity=0 time=0
note_on channel=0 note=74 velocity=46 time=0
note_on channel=0 note=62 velocity=39 time=0
<meta message set_tempo tempo=1153846 time=120>
note_on channel=0 note=62 velocity=0 time=0
note_on channel=0 note=74 velocity=0 time=0
note_on channel=0 note=72 velocity=46 time=0
note_on channel=0 note=64 velocity=39 time=0
<meta message set_tempo tempo=1132075 time=120>
note_on channel=0 note=64 velocity=0 time=0
note_on channel=0 note=72 velocity=0 time=0
note_on channel=0 note=71 velocity=46 time=0
note_on channel=0 note=62 velocity=41 time=0
<meta message set_tempo tempo=1176471 time=120>
note_on channel=0 note=62 velocity=0 time=0
note_on channel=0 note=71 velocity=0 time=0
note_on channel=0 note=69 velocity=44 time=0
note_on channel=0 note=60 velocity=39 time=0
control_change channel=0 control=64 value=0 time=12
control_change channel=0 control=64 value=127 time=68
<meta message set_tempo tempo=1333333 time=40>
note_on channel=0 note=69 velocity=0 time=0
note_on channel=0 note=76 velocity=50 time=0
<meta message set_tempo tempo=1250000 time=120>
note_on channel=0 note=76 velocity=0 time=0
note_on channel=0 note=60 velocity=0 time=0
note_on channel=0 note=57 velocity=0 time=0
note_on channel=0 note=77 velocity=47 time=0
note_on channel=0 note=59 velocity=34 time=0
note_on channel=0 note=56 velocity=28 time=0
control_change channel=0 control=64 value=0 time=5
control_change channel=0 control=64 value=127 time=64
<meta message set_tempo tempo=1153846 time=51>
note_on channel=0 note=56 velocity=0 time=0
note_on channel=0 note=59 velocity=0 time=0
note_on channel=0 note=77 velocity=0 time=0
note_on channel=0 note=74 velocity=47 time=0
note_on channel=0 note=57 velocity=30 time=0
note_on channel=0 note=60 velocity=36 time=0
<meta message set_tempo tempo=1200000 time=120>
note_on channel=0 note=60 velocity=0 time=0
note_on channel=0 note=57 velocity=0 time=0
note_on channel=0 note=74 velocity=0 time=0
note_on channel=0 note=71 velocity=47 time=0
note_on channel=0 note=59 velocity=31 time=0
note_on channel=0 note=62 velocity=37 time=0
control_change channel=0 control=64 value=0 time=11
control_change channel=0 control=64 value=127 time=41
<meta message set_tempo tempo=1153846 time=68>
note_on channel=0 note=62 velocity=0 time=0
note_on channel=0 note=59 velocity=0 time=0
note_on channel=0 note=71 velocity=0 time=0
note_on channel=0 note=69 velocity=47 time=0
note_on channel=0 note=60 velocity=32 time=0
note_on channel=0 note=64 velocity=38 time=0
<meta message set_tempo tempo=1200000 time=120>
note_on channel=0 note=64 velocity=0 time=0
note_on channel=0 note=60 velocity=0 time=0
note_on channel=0 note=69 velocity=0 time=0
note_on channel=0 note=68 velocity=50 time=0
note_on channel=0 note=62 velocity=34 time=0
note_on channel=0 note=65 velocity=40 time=0
control_change channel=0 control=64 value=0 time=7
control_change channel=0 control=64 value=127 time=45
<meta message set_tempo tempo=1276596 time=68>
note_on channel=0 note=68 velocity=0 time=0
note_on channel=0 note=71 velocity=47 time=0
note_on channel=0 note=71 velocity=0 time=108
<meta message set_tempo tempo=1176471 time=12>
note_on channel=0 note=65 velocity=0 time=0
note_on channel=0 note=62 velocity=0 time=0
note_on channel=0 note=71 velocity=50 time=0
note_on channel=0 note=60 velocity=32 time=0
note_on channel=0 note=64 velocity=38 time=0
control_change channel=0 control=64 value=0 time=7
control_change channel=0 control=64 value=127 time=50
<meta message set_tempo tempo=1276596 time=63>
note_on channel=0 note=71 velocity=0 time=0
note_on channel=0 note=69 velocity=43 time=0
<meta message set_tempo tempo=1176471 time=120>
note_on channel=0 note=69 velocity=0 time=0
note_on channel=0 note=64 velocity=0 time=0
note_on channel=0 note=60 velocity=0 time=0
note_on channel=0 note=72 velocity=55 time=0
note_on channel=0 note=56 velocity=34 time=0
note_on channel=0 note=64 velocity=41 time=0
control_change channel=0 control=64 value=0 time=11
control_change channel=0 control=64 value=127 time=43
<meta message set_tempo tempo=1333333 time=66>
note_on channel=0 note=72 velocity=0 time=0
note_on channel=0 note=71 velocity=49 time=0
<meta message set_tempo tempo=1224490 time=120>
note_on channel=0 note=71 velocity=0 time=0
note_on channel=0 note=64 velocity=0 time=0
note_on channel=0 note=56 velocity=0 time=0
note_on channel=0 note=74 velocity=58 time=0
note_on channel=0 note=64 velocity=44 time=0
note_on channel=0 note=57 velocity=37 time=0
control_change channel=0 control=64 value=0 time=13
control_change channel=0 control=64 value=127 time=93
<meta message set_tempo tempo=1176471 time=14>
note_on channel=0 note=74 velocity=0 time=0
note_on channel=0 note=72 velocity=51 time=0
<meta message set_tempo tempo=1304348 time=120>
note_on channel=0 note=72 velocity=0 time=0
note_on channel=0 note=57 velocity=0 time=0
note_on channel=0 note=64 velocity=0 time=0
note_on channel=0 note=71 velocity=54 time=0
control_change channel=0 control=64 value=0 time=35
note_on channel=0 note=71 velocity=0 time=5
note_on channel=0 note=72 velocity=56 time=0
note_on channel=0 note=72 velocity=0 time=40
note_on channel=0 note=74 velocity=58 time=0
<meta message set_tempo tempo=1621622 time=40>
note_on channel=0 note=74 velocity=0 time=0
note_on channel=0 note=72 velocity=65 time=0
note_on channel=0 note=69 velocity=55 time=0
note_on channel=0 note=51 velocity=49 time=0
control_change channel=0 control=64 value=127 time=9
<meta message set_tempo tempo=1428571 time=351>
note_on channel=0 note=51 velocity=0 time=0
note_on channel=0 note=69 velocity=0 time=0
note_on channel=0 note=72 velocity=0 time=0
note_on channel=0 note=68 velocity=36 time=0
note_on channel=0 note=71 velocity=51 time=0
note_on channel=0 note=52 velocity=33 time=0
control_change channel=0 control=64 value=0 time=10
note_on channel=0 note=52 velocity=0 time=170
note_on channel=0 note=71 velocity=0 time=0
note_on channel=0 note=68 velocity=0 time=0
<meta message set_tempo tempo=1304348 time=60>
note_on channel=0 note=72 velocity=50 time=0
note_on channel=0 note=57 velocity=43 time=0
control_change channel=0 control=64 value=127 time=0
<meta message set_tempo tempo=1176471 time=120>
note_on channel=0 note=57 velocity=0 time=0
note_on channel=0 note=72 velocity=0 time=0
note_on channel=0 note=71 velocity=47 time=0
note_on channel=0 note=64 velocity=34 time=0
<meta message set_tempo tempo=1132075 time=120>
note_on channel=0 note=64 velocity=0 time=0
note_on channel=0 note=71 velocity=0 time=0
note_on channel=0 note=69 velocity=50 time=0
note_on channel=0 note=60 velocity=40 time=0
<meta message set_tempo tempo=1153846 time=120>
note_on channel=0 note=60 velocity=0 time=0
note_on channel=0 note=69 velocity=0 time=0
note_on channel=0 note=71 velocity=46 time=0
note_on channel=0 note=64 velocity=35 time=0
<meta message set_tempo tempo=1132075 time=120>
note_on channel=0 note=64 velocity=0 time=0
note_on channel=0 note=71 velocity=0 time=0
note_on channel=0 note=72 velocity=47 time=0
note_on channel=0 note=57 velocity=41 time=0
<meta message set_tempo tempo=1200000 time=120>
note_on channel=0 note=57 velocity=0 time=0
note_on channel=0 note=72 velocity=0 time=0
note_on channel=0 note=74 velocity=48 time=0
note_on channel=0 note=64 velocity=34 time=0
<meta message set_tempo tempo=1224490 time=120>
note_on channel=0 note=64 velocity=0 time=0
note_on channel=0 note=74 velocity=0 time=0
note_on channel=0 note=76 velocity=50 time=0
note_on channel=0 note=57 velocity=42 time=0
control_change channel=0 control=64 value=0 time=10
control_change channel=0 control=64 value=127 time=42
<meta message set_tempo tempo=1153846 time=68>
note_on channel=0 note=57 velocity=0 time=0
note_on channel=0 note=76 velocity=0 time=0
note_on channel=0 note=75 velocity=46 time=0
note_on channel=0 note=64 velocity=36 time=0
<meta message set_tempo tempo=1200000 time=120>
note_on channel=0 note=64 velocity=0 time=0
note_on channel=0 note=75 velocity=0 time=0
note_on channel=0 note=77 velocity=55 time=0
note_on channel=0 note=60 velocity=41 time=0
control_change channel=0 control=64 value=0 time=10
control_change channel=0 control=64 value=127 time=53
<meta message set_tempo tempo=1111111 time=57>
note_on channel=0 note=60 velocity=0 time=0
note_on channel=0 note=77 velocity=0 time=0
note_on channel=0 note=76 velocity=53 time=0
note_on channel=0 note=64 velocity=36 time=0
<meta message set_tempo tempo=1176471 time=120>
note_on channel=0 note=64 velocity=0 time=0
note_on channel=0 note=76 velocity=0 time=0
note_on channel=0 note=74 velocity=51 time=0
note_on channel=0 note=57 velocity=41 time=0
<meta message set_tempo tempo=1333333 time=120>
note_on channel=0 note=57 velocity=0 time=0
note_on channel=0 note=74 velocity=0 time=0
note_on channel=0 note=72 velocity=48 time=0
note_on channel=0 note=64 velocity=36 time=0
<meta message set_tempo tempo=1200000 time=120>
note_on channel=0 note=64 velocity=0 time=0
note_on channel=0 note=72 velocity=0 time=0
note_on channel=0 note=71 velocity=50 time=0
note_on channel=0 note=52 velocity=43 time=0
control_change channel=0 control=64 value=0 time=11
control_change channel=0 control=64 value=127 time=35
<meta message set_tempo tempo=1200000 time=74>
note_on channel=0 note=52 velocity=0 time=0
note_on channel=0 note=71 velocity=0 time=0
note_on channel=0 note=69 velocity=47 time=0
note_on channel=0 note=64 velocity=34 time=0
<meta message set_tempo tempo=1111111 time=120>
note_on channel=0 note=64 velocity=0 time=0
note_on channel=0 note=69 velocity=0 time=0
note_on channel=0 note=68 velocity=50 time=0
note_on channel=0 note=59 velocity=40 time=0
<meta message set_tempo tempo=1132075 time=120>
note_on channel=0 note=59 velocity=0 time=0
note_on channel=0 note=68 velocity=0 time=0
note_on channel=0 note=69 velocity=46 time=0
note_on channel=0 note=64 velocity=35 time=0
<meta message set_tempo tempo=1176471 time=120>
note_on channel=0 note=64 velocity=0 time=0
note_on channel=0 note=69 velocity=0 time=0
note_on channel=0 note=71 velocity=47 time=0
note_on channel=0 note=52 velocity=41 time=0
note_on channel=0 note=52 velocity=0 time=120
note_on channel=0 note=71 velocity=0 time=0
note_on channel=0 note=72 velocity=48 time=0
note_on channel=0 note=64 velocity=34 time=0
<meta message set_tempo tempo=1200000 time=120>
note_on channel=0 note=64 velocity=0 time=0
note_on channel=0 note=72 velocity=0 time=0
note_on channel=0 note=74 velocity=50 time=0
note_on channel=0 note=52 velocity=42 time=0
control_change channel=0 control=64 value=0 time=5
control_change channel=0 control=64 value=127 time=75
<meta message set_tempo tempo=1090909 time=40>
note_on channel=0 note=52 velocity=0 time=0
note_on channel=0 note=74 velocity=0 time=0
note_on channel=0 note=73 velocity=46 time=0
note_on channel=0 note=64 velocity=36 time=0
<meta message set_tempo tempo=1176471 time=120>
note_on channel=0 note=64 velocity=0 time=0
note_on channel=0 note=73 velocity=0 time=0
note_on channel=0 note=76 velocity=54 time=0
note_on channel=0 note=59 velocity=41 time=0
control_change channel=0 control=64 value=0 time=15
control_change channel=0 control=64 value=127 time=71
<meta message set_tempo tempo=1090909 time=34>
note_on channel=0 note=59 velocity=0 time=0
note_on channel=0 note=76 velocity=0 time=0
note_on channel=0 note=74 velocity=52 time=0
note_on channel=0 note=64 velocity=36 time=0
<meta message set_tempo tempo=1176471 time=120>
note_on channel=0 note=64 velocity=0 time=0
note_on channel=0 note=74 velocity=0 time=0
note_on channel=0 note=72 velocity=51 time=0
note_on channel=0 note=52 velocity=41 time=0
note_on channel=0 note=52 velocity=0 time=120
note_on channel=0 note=72 velocity=0 time=0
note_on channel=0 note=71 velocity=49 time=0
note_on channel=0 note=64 velocity=36 time=0
<meta message set_tempo tempo=1224490 time=120>
note_on channel=0 note=64 velocity=0 time=0
note_on channel=0 note=71 velocity=0 time=0
note_on channel=0 note=69 velocity=50 time=0
note_on channel=0 note=57 velocity=43 time=0
control_change channel=0 control=64 value=0 time=3
control_change channel=0 control=64 value=127 time=49
<meta message set_tempo tempo=1111111 time=68>
note_on channel=0 note=57 velocity=0 time=0
note_on channel=0 note=69 velocity=0 time=0
note_on channel=0 note=68 velocity=47 time=0
note_on channel=0 note=64 velocity=34 time=0
<meta message set_tempo tempo=1111111 time=120>
note_on channel=0 note=64 velocity=0 time=0
note_on channel=0 note=68 velocity=0 time=0
note_on channel=0 note=69 velocity=50 time=0
note_on channel=0 note=60 velocity=40 time=0
<meta message set_tempo tempo=1153846 time=120>
note_on channel=0 note=60 velocity=0 time=0
note_on channel=0 note=69 velocity=0 time=0
note_on channel=0 note=72 velocity=46 time=0
note_on channel=0 note=64 velocity=35 time=0
<meta message set_tempo tempo=1200000 time=120>
note_on channel=0 note=64 velocity=0 time=0
note_on channel=0 note=72 velocity=0 time=0
note_on channel=0 note=71 velocity=52 time=0
note_on channel=0 note=56 velocity=41 time=0
control_change channel=0 control=64 value=0 time=12
control_change channel=0 control=64 value=127 time=68
<meta message set_tempo tempo=1200000 time=40>
note_on channel=0 note=56 velocity=0 time=0
note_on channel=0 note=71 velocity=0 time=0
note_on channel=0 note=74 velocity=48 time=0
note_on channel=0 note=64 velocity=34 time=0
<meta message set_tempo tempo=1176471 time=120>
note_on channel=0 note=64 velocity=0 time=0
note_on channel=0 note=74 velocity=0 time=0
note_on channel=0 note=72 velocity=56 time=0
note_on channel=0 note=57 velocity=42 time=0
control_change channel=0 control=64 value=0 time=11
control_change channel=0 control=64 value=127 time=58
<meta message set_tempo tempo=1111111 time=51>
note_on channel=0 note=57 velocity=0 time=0
note_on channel=0 note=72 velocity=0 time=0
note_on channel=0 note=71 velocity=50 time=0
note_on channel=0 note=64 velocity=36 time=0
<meta message set_tempo tempo=1176471 time=120>
note_on channel=0 note=64 velocity=0 time=0
note_on channel=0 note=71 velocity=0 time=0
note_on channel=0 note=72 velocity=54 time=0
note_on channel=0 note=60 velocity=41 time=0
<meta message set_tempo tempo=1111111 time=120>
note_on channel=0 note=60 velocity=0 time=0
note_on channel=0 note=72 velocity=0 time=0
note_on channel=0 note=76 velocity=50 time=0
note_on channel=0 note=64 velocity=36 time=0
<meta message set_tempo tempo=1176471 time=120>
note_on channel=0 note=64 velocity=0 time=0
note_on channel=0 note=76 velocity=0 time=0
note_on channel=0 note=74 velocity=55 time=0
note_on channel=0 note=53 velocity=41 time=0
control_change channel=0 control=64 value=0 time=6
control_change channel=0 control=64 value=127 time=29
<meta message set_tempo tempo=1428571 time=85>
note_on channel=0 note=53 velocity=0 time=0
note_on channel=0 note=74 velocity=0 time=0
note_on channel=0 note=77 velocity=48 time=0
note_on channel=0 note=62 velocity=36 time=0
<meta message set_tempo tempo=1304348 time=120>
note_on channel=0 note=62 velocity=0 time=0
note_on channel=0 note=77 velocity=0 time=0
note_on channel=0 note=76 velocity=60 time=0
note_on channel=0 note=52 velocity=43 time=0
control_change channel=0 control=64 value=0 time=5
control_change channel=0 control=64 value=127 time=75
<meta message set_tempo tempo=1200000 time=40>
note_on channel=0 note=52 velocity=0 time=0
note_on channel=0 note=76 velocity=0 time=0
note_on channel=0 note=75 velocity=54 time=0
note_on channel=0 note=60 velocity=34 time=0
note_on channel=0 note=60 velocity=0 time=120
note_on channel=0 note=75 velocity=0 time=0
note_on channel=0 note=76 velocity=56 time=0
note_on channel=0 note=57 velocity=40 time=0
<meta message set_tempo tempo=1200000 time=120>
note_on channel=0 note=57 velocity=0 time=0
note_on channel=0 note=76 velocity=0 time=0
note_on channel=0 note=64 velocity=43 time=0
note_on channel=0 note=60 velocity=35 time=0
<meta message set_tempo tempo=1276596 time=120>
note_on channel=0 note=60 velocity=0 time=0
note_on channel=0 note=64 velocity=0 time=0
note_on channel=0 note=66 velocity=43 time=0
note_on channel=0 note=52 velocity=41 time=0
control_change channel=0 control=64 value=0 time=9
control_change channel=0 control=64 value=127 time=55
<meta message set_tempo tempo=1428571 time=56>
note_on channel=0 note=52 velocity=0 time=0
note_on channel=0 note=66 velocity=0 time=0
note_on channel=0 note=68 velocity=46 time=0
note_on channel=0 note=59 velocity=34 time=0
<meta message set_tempo tempo=1333333 time=120>
note_on channel=0 note=59 velocity=0 time=0
note_on channel=0 note=68 velocity=0 time=0
note_on channel=0 note=69 velocity=51 time=0
note_on channel=0 note=57 velocity=46 time=0
note_on channel=0 note=45 velocity=43 time=0
control_change channel=0 control=64 value=0 time=15
control_change channel=0 control=64 value=127 time=77
<meta message set_tempo tempo=1250000 time=28>
note_on channel=0 note=69 velocity=0 time=0
note_on channel=0 note=68 velocity=44 time=0
<meta message set_tempo tempo=1224490 time=120>
note_on channel=0 note=68 velocity=0 time=0
note_on channel=0 note=69 velocity=50 time=0
note_on channel=0 note=69 velocity=0 time=120
note_on channel=0 note=64 velocity=45 time=0
<meta message set_tempo tempo=1276596 time=120>
note_on channel=0 note=64 velocity=0 time=0
note_on channel=0 note=45 velocity=0 time=0
note_on channel=0 note=57 velocity=0 time=0
note_on channel=0 note=60 velocity=49 time=0
control_change channel=0 control=64 value=0 time=8
control_change channel=0 control=64 value=127 time=49
note_on channel=0 note=60 velocity=0 time=63
note_on channel=0 note=64 velocity=46 time=0
<meta message set_tempo tempo=1176471 time=120>
note_on channel=0 note=64 velocity=0 time=0
note_on channel=0 note=69 velocity=55 time=0
note_on channel=0 note=81 velocity=65 time=0
note_on channel=0 note=45 velocity=49 time=0
control_change channel=0 control=64 value=0 time=5
control_change channel=0 control=64 value=127 time=47
<meta message set_tempo tempo=1111111 time=68>
note_on channel=0 note=45 velocity=0 time=0
note_on channel=0 note=81 velocity=0 time=0
note_on channel=0 note=69 velocity=0 time=0
note_on channel=0 note=80 velocity=60 time=0
note_on channel=0 note=68 velocity=51 time=0
note_on channel=0 note=52 velocity=39 time=0
<meta message set_tempo tempo=1153846 time=120>
note_on channel=0 note=52 velocity=0 time=0
note_on channel=0 note=68 velocity=0 time=0
note_on channel=0 note=80 velocity=0 time=0
note_on channel=0 note=81 velocity=66 time=0
note_on channel=0 note=69 velocity=56 time=0
note_on channel=0 note=48 velocity=46 time=0
<meta message set_tempo tempo=1153846 time=120>
note_on channel=0 note=48 velocity=0 time=0
note_on channel=0 note=69 velocity=0 time=0
note_on channel=0 note=81 velocity=0 time=0
note_on channel=0 note=84 velocity=60 time=0
note_on channel=0 note=72 velocity=51 time=0
note_on channel=0 note=52 velocity=40 time=0
<meta message set_tempo tempo=1200000 time=120>
note_on channel=0 note=52 velocity=0 time=0
note_on channel=0 note=72 velocity=0 time=0
note_on channel=0 note=84 velocity=0 time=0
note_on channel=0 note=71 velocity=53 time=0
note_on channel=0 note=83 velocity=63 time=0
note_on channel=0 note=44 velocity=47 time=0
control_change channel=0 control=64 value=0 time=15
control_change channel=0 control=64 value=127 time=65
<meta message set_tempo tempo=1200000 time=40>
note_on channel=0 note=44 velocity=0 time=0
note_on channel=0 note=83 velocity=0 time=0
note_on channel=0 note=71 velocity=0 time=0
note_on channel=0 note=86 velocity=63 time=0
note_on channel=0 note=74 velocity=53 time=0
note_on channel=0 note=52 velocity=39 time=0
<meta message set_tempo tempo=1200000 time=120>
note_on channel=0 note=52 velocity=0 time=0
note_on channel=0 note=74 velocity=0 time=0
note_on channel=0 note=86 velocity=0 time=0
note_on channel=0 note=84 velocity=66 time=0
note_on channel=0 note=72 velocity=56 time=0
note_on channel=0 note=45 velocity=48 time=0
control_change channel=0 control=64 value=0 time=11
control_change channel=0 control=64 value=127 time=69
<meta message set_tempo tempo=1111111 time=40>
note_on channel=0 note=45 velocity=0 time=0
note_on channel=0 note=72 velocity=0 time=0
note_on channel=0 note=84 velocity=0 time=0
note_on channel=0 note=83 velocity=60 time=0
note_on channel=0 note=71 velocity=51 time=0
note_on channel=0 note=52 velocity=41 time=0
<meta message set_tempo tempo=1176471 time=120>
note_on channel=0 note=52 velocity=0 time=0
note_on channel=0 note=71 velocity=0 time=0
note_on channel=0 note=83 velocity=0 time=0
note_on channel=0 note=84 velocity=71 time=0
note_on channel=0 note=72 velocity=60 time=0
note_on channel=0 note=48 velocity=47 time=0
<meta message set_tempo tempo=1153846 time=120>
note_on channel=0 note=48 velocity=0 time=0
note_on channel=0 note=72 velocity=0 time=0
note_on channel=0 note=84 velocity=0 time=0
note_on channel=0 note=76 velocity=56 time=0
note_on channel=0 note=88 velocity=67 time=0
note_on channel=0 note=52 velocity=41 time=0
<meta message set_tempo tempo=1176471 time=120>
note_on channel=0 note=52 velocity=0 time=0
note_on channel=0 note=88 velocity=0 time=0
note_on channel=0 note=76 velocity=0 time=0
note_on channel=0 note=74 velocity=55 time=0
note_on channel=0 note=86 velocity=65 time=0
note_on channel=0 note=41 velocity=47 time=0
control_change channel=0 control=64 value=0 time=10
control_change channel=0 control=64 value=127 time=63
<meta message set_tempo tempo=1428571 time=47>
note_on channel=0 note=41 velocity=0 time=0
note_on channel=0 note=86 velocity=0 time=0
note_on channel=0 note=74 velocity=0 time=0
note_on channel=0 note=77 velocity=55 time=0
note_on channel=0 note=89 velocity=65 time=0
note_on channel=0 note=50 velocity=41 time=0
<meta message set_tempo tempo=1250000 time=120>
note_on channel=0 note=50 velocity=0 time=0
note_on channel=0 note=89 velocity=0 time=0
note_on channel=0 note=77 velocity=0 time=0
note_on channel=0 note=88 velocity=67 time=0
note_on channel=0 note=76 velocity=56 time=0
note_on channel=0 note=40 velocity=49 time=0
control_change channel=0 control=64 value=0 time=4
control_change channel=0 control=64 value=127 time=39
note_on channel=0 note=40 velocity=0 time=77
note_on channel=0 note=76 velocity=0 time=0
note_on channel=0 note=88 velocity=0 time=0
note_on channel=0 note=87 velocity=59 time=0
note_on channel=0 note=75 velocity=50 time=0
note_on channel=0 note=48 velocity=39 time=0
<meta message set_tempo tempo=1276596 time=120>
note_on channel=0 note=48 velocity=0 time=0
note_on channel=0 note=75 velocity=0 time=0
note_on channel=0 note=87 velocity=0 time=0
note_on channel=0 note=88 velocity=66 time=0
note_on channel=0 note=76 velocity=56 time=0
note_on channel=0 note=45 velocity=46 time=0
<meta message set_tempo tempo=1333333 time=120>
note_on channel=0 note=45 velocity=0 time=0
note_on channel=0 note=76 velocity=0 time=0
note_on channel=0 note=88 velocity=0 time=0
note_on channel=0 note=64 velocity=51 time=0
note_on channel=0 note=76 velocity=60 time=0
note_on channel=0 note=48 velocity=40 time=0
<meta message set_tempo tempo=1363636 time=120>
note_on channel=0 note=48 velocity=0 time=0
note_on channel=0 note=76 velocity=0 time=0
note_on channel=0 note=64 velocity=0 time=0
note_on channel=0 note=66 velocity=53 time=0
note_on channel=0 note=78 velocity=63 time=0
note_on channel=0 note=40 velocity=47 time=0
control_change channel=0 control=64 value=0 time=14
control_change channel=0 control=64 value=127 time=46
<meta message set_tempo tempo=1621622 time=60>
note_on channel=0 note=40 velocity=0 time=0
note_on channel=0 note=78 velocity=0 time=0
note_on channel=0 note=66 velocity=0 time=0
note_on channel=0 note=80 velocity=63 time=0
note_on channel=0 note=68 velocity=53 time=0
note_on channel=0 note=47 velocity=39 time=0
<meta message set_tempo tempo=1500000 time=120>
note_on channel=0 note=47 velocity=0 time=0
note_on channel=0 note=68 velocity=0 time=0
note_on channel=0 note=80 velocity=0 time=0
note_on channel=0 note=81 velocity=63 time=0
note_on channel=0 note=69 velocity=53 time=0
note_on channel=0 note=33 velocity=52 time=0
control_change channel=0 control=64 value=0 time=23
note_on channel=0 note=33 velocity=0 time=7
note_on channel=0 note=36 velocity=49 time=90
note_on channel=0 note=36 velocity=0 time=30
<meta message set_tempo tempo=1621622 time=90>
note_on channel=0 note=40 velocity=56 time=0
note_on channel=0 note=40 velocity=0 time=30
<meta message set_tempo tempo=1764706 time=90>
note_on channel=0 note=45 velocity=51 time=0
note_on channel=0 note=45 velocity=0 time=30
note_on channel=0 note=69 velocity=0 time=90
note_on channel=0 note=81 velocity=0 time=0
note_on channel=0 note=33 velocity=58 time=0
note_on channel=0 note=33 velocity=0 time=60
<meta message set_tempo tempo=1304348 time=180>
<meta message key_signature key='A' time=1440>
<meta message set_tempo tempo=983607 time=0>
<meta message marker text='Var IV' time=0>
note_on channel=0 note=73 velocity=50 time=0
note_on channel=0 note=69 velocity=50 time=0
note_on channel=0 note=45 velocity=39 time=0
note_on channel=0 note=57 velocity=47 time=0
control_change channel=0 control=64 value=127 time=57
note_on channel=0 note=69 velocity=0 time=63
note_on channel=0 note=73 velocity=0 time=0
note_on channel=0 note=64 velocity=50 time=0
<meta message set_tempo tempo=833333 time=120>
note_on channel=0 note=64 velocity=0 time=0
note_on channel=0 note=45 velocity=0 time=0
note_on channel=0 note=57 velocity=0 time=0
note_on channel=0 note=69 velocity=44 time=0
note_on channel=0 note=73 velocity=44 time=0
note_on channel=0 note=85 velocity=52 time=0
note_on channel=0 note=81 velocity=52 time=0
<meta message set_tempo tempo=869565 time=120>
note_on channel=0 note=73 velocity=0 time=0
note_on channel=0 note=69 velocity=0 time=0
note_on channel=0 note=64 velocity=49 time=0
<meta message set_tempo tempo=800000 time=120>
note_on channel=0 note=64 velocity=0 time=0
note_on channel=0 note=85 velocity=0 time=0
note_on channel=0 note=81 velocity=0 time=0
note_on channel=0 note=74 velocity=45 time=0
note_on channel=0 note=86 velocity=53 time=0
note_on channel=0 note=83 velocity=53 time=0
note_on channel=0 note=71 velocity=45 time=0
<meta message set_tempo tempo=833333 time=120>
note_on channel=0 note=71 velocity=0 time=0
note_on channel=0 note=74 velocity=0 time=0
note_on channel=0 note=64 velocity=50 time=0
<meta message set_tempo tempo=810811 time=120>
note_on channel=0 note=64 velocity=0 time=0
note_on channel=0 note=83 velocity=0 time=0
note_on channel=0 note=86 velocity=0 time=0
note_on channel=0 note=88 velocity=55 time=0
note_on channel=0 note=85 velocity=55 time=0
note_on channel=0 note=76 velocity=46 time=0
note_on channel=0 note=73 velocity=46 time=0
<meta message set_tempo tempo=769231 time=120>
note_on channel=0 note=73 velocity=0 time=0
note_on channel=0 note=76 velocity=0 time=0
note_on channel=0 note=64 velocity=50 time=0
<meta message set_tempo tempo=800000 time=110>
note_on channel=0 note=64 velocity=0 time=10
note_on channel=0 note=85 velocity=0 time=0
note_on channel=0 note=88 velocity=0 time=0
note_on channel=0 note=74 velocity=45 time=0
note_on channel=0 note=86 velocity=53 time=0
note_on channel=0 note=83 velocity=53 time=0
note_on channel=0 note=71 velocity=45 time=0
<meta message set_tempo tempo=833333 time=120>
note_on channel=0 note=71 velocity=0 time=0
note_on channel=0 note=74 velocity=0 time=0
note_on channel=0 note=64 velocity=49 time=0
<meta message set_tempo tempo=882353 time=120>
note_on channel=0 note=64 velocity=0 time=0
note_on channel=0 note=83 velocity=0 time=0
note_on channel=0 note=86 velocity=0 time=0
note_on channel=0 note=73 velocity=44 time=0
note_on channel=0 note=81 velocity=52 time=0
note_on channel=0 note=85 velocity=52 time=0
note_on channel=0 note=69 velocity=44 time=0
note_on channel=0 note=69 velocity=0 time=120
note_on channel=0 note=73 velocity=0 time=0
note_on channel=0 note=64 velocity=48 time=0
<meta message set_tempo tempo=895522 time=120>
note_on channel=0 note=64 velocity=0 time=0
note_on channel=0 note=85 velocity=0 time=0
note_on channel=0 note=81 velocity=0 time=0
note_on channel=0 note=68 velocity=50 time=0
note_on channel=0 note=71 velocity=50 time=0
note_on channel=0 note=40 velocity=39 time=0
note_on channel=0 note=52 velocity=47 time=0
control_change channel=0 control=64 value=0 time=5
control_change channel=0 control=64 value=127 time=52
note_on channel=0 note=71 velocity=0 time=63
note_on channel=0 note=68 velocity=0 time=0
note_on channel=0 note=64 velocity=50 time=0
<meta message set_tempo tempo=821918 time=120>
note_on channel=0 note=64 velocity=0 time=0
note_on channel=0 note=40 velocity=0 time=0
note_on channel=0 note=52 velocity=0 time=0
note_on channel=0 note=83 velocity=52 time=0
note_on channel=0 note=68 velocity=44 time=0
note_on channel=0 note=71 velocity=44 time=0
note_on channel=0 note=80 velocity=52 time=0
<meta message set_tempo tempo=845070 time=120>
note_on channel=0 note=71 velocity=0 time=0
note_on channel=0 note=68 velocity=0 time=0
note_on channel=0 note=64 velocity=49 time=0
<meta message set_tempo tempo=789474 time=120>
note_on channel=0 note=64 velocity=0 time=0
note_on channel=0 note=83 velocity=0 time=0
note_on channel=0 note=80 velocity=0 time=0
note_on channel=0 note=81 velocity=53 time=0
note_on channel=0 note=73 velocity=45 time=0
note_on channel=0 note=69 velocity=45 time=0
note_on channel=0 note=85 velocity=53 time=0
<meta message set_tempo tempo=833333 time=120>
note_on channel=0 note=69 velocity=0 time=0
note_on channel=0 note=73 velocity=0 time=0
note_on channel=0 note=64 velocity=50 time=0
<meta message set_tempo tempo=800000 time=120>
note_on channel=0 note=64 velocity=0 time=0
note_on channel=0 note=81 velocity=0 time=0
note_on channel=0 note=85 velocity=0 time=0
note_on channel=0 note=74 velocity=46 time=0
note_on channel=0 note=71 velocity=46 time=0
note_on channel=0 note=83 velocity=55 time=0
note_on channel=0 note=86 velocity=55 time=0
<meta message set_tempo tempo=779221 time=120>
note_on channel=0 note=71 velocity=0 time=0
note_on channel=0 note=74 velocity=0 time=0
note_on channel=0 note=64 velocity=50 time=0
<meta message set_tempo tempo=800000 time=120>
note_on channel=0 note=64 velocity=0 time=0
note_on channel=0 note=83 velocity=0 time=0
note_on channel=0 note=86 velocity=0 time=0
note_on channel=0 note=81 velocity=53 time=0
note_on channel=0 note=85 velocity=53 time=0
note_on channel=0 note=69 velocity=45 time=0
note_on channel=0 note=73 velocity=45 time=0
<meta message set_tempo tempo=845070 time=120>
note_on channel=0 note=73 velocity=0 time=0
note_on channel=0 note=69 velocity=0 time=0
note_on channel=0 note=64 velocity=49 time=0
<meta message set_tempo tempo=869565 time=120>
note_on channel=0 note=64 velocity=0 time=0
note_on channel=0 note=85 velocity=0 time=0
note_on channel=0 note=81 velocity=0 time=0
note_on channel=0 note=68 velocity=44 time=0
note_on channel=0 note=83 velocity=52 time=0
note_on channel=0 note=71 velocity=44 time=0
note_on channel=0 note=80 velocity=52 time=0
note_on channel=0 note=71 velocity=0 time=120
note_on channel=0 note=68 velocity=0 time=0
note_on channel=0 note=64 velocity=48 time=0
<meta message set_tempo tempo=869565 time=120>
note_on channel=0 note=64 velocity=0 time=0
note_on channel=0 note=83 velocity=0 time=0
note_on channel=0 note=80 velocity=0 time=0
note_on channel=0 note=64 velocity=54 time=0
note_on channel=0 note=69 velocity=54 time=0
note_on channel=0 note=45 velocity=44 time=0
note_on channel=0 note=57 velocity=52 time=0
control_change channel=0 control=64 value=0 time=6
control_change channel=0 control=64 value=127 time=100
<meta message set_tempo tempo=895522 time=14>
note_on channel=0 note=69 velocity=0 time=0
note_on channel=0 note=64 velocity=0 time=0
note_on channel=0 note=61 velocity=50 time=0
<meta message set_tempo tempo=845070 time=120>
note_on channel=0 note=61 velocity=0 time=0
note_on channel=0 note=45 velocity=0 time=0
note_on channel=0 note=57 velocity=0 time=0
note_on channel=0 note=69 velocity=45 time=0
note_on channel=0 note=81 velocity=54 time=0
note_on channel=0 note=64 velocity=45 time=0
<meta message set_tempo tempo=810811 time=120>
note_on channel=0 note=64 velocity=0 time=0
note_on channel=0 note=69 velocity=0 time=0
note_on channel=0 note=61 velocity=50 time=0
<meta message set_tempo tempo=800000 time=120>
note_on channel=0 note=61 velocity=0 time=0
note_on channel=0 note=81 velocity=0 time=0
note_on channel=0 note=69 velocity=54 time=0
note_on channel=0 note=64 velocity=54 time=0
note_on channel=0 note=57 velocity=47 time=0
note_on channel=0 note=45 velocity=39 time=0
<meta message set_tempo tempo=857143 time=120>
note_on channel=0 note=64 velocity=0 time=0
note_on channel=0 note=69 velocity=0 time=0
note_on channel=0 note=61 velocity=50 time=0
<meta message set_tempo tempo=789474 time=120>
note_on channel=0 note=61 velocity=0 time=0
note_on channel=0 note=57 velocity=0 time=0
note_on channel=0 note=45 velocity=0 time=0
note_on channel=0 note=68 velocity=55 time=0
note_on channel=0 note=71 velocity=55 time=0
note_on channel=0 note=40 velocity=43 time=0
note_on channel=0 note=52 velocity=51 time=0
control_change channel=0 control=64 value=0 time=11
control_change channel=0 control=64 value=127 time=88
<meta message set_tempo tempo=810811 time=21>
note_on channel=0 note=71 velocity=0 time=0
note_on channel=0 note=68 velocity=0 time=0
note_on channel=0 note=64 velocity=51 time=0
<meta message set_tempo tempo=800000 time=120>
note_on channel=0 note=64 velocity=0 time=0
note_on channel=0 note=40 velocity=0 time=0
note_on channel=0 note=52 velocity=0 time=0
note_on channel=0 note=83 velocity=56 time=0
note_on channel=0 note=71 velocity=47 time=0
note_on channel=0 note=68 velocity=47 time=0
<meta message set_tempo tempo=845070 time=120>
note_on channel=0 note=68 velocity=0 time=0
note_on channel=0 note=71 velocity=0 time=0
note_on channel=0 note=64 velocity=51 time=0
<meta message set_tempo tempo=857143 time=120>
note_on channel=0 note=64 velocity=0 time=0
note_on channel=0 note=83 velocity=0 time=0
note_on channel=0 note=71 velocity=50 time=0
note_on channel=0 note=68 velocity=50 time=0
note_on channel=0 note=40 velocity=39 time=0
note_on channel=0 note=52 velocity=47 time=0
note_on channel=0 note=68 velocity=0 time=120
note_on channel=0 note=71 velocity=0 time=0
note_on channel=0 note=64 velocity=48 time=0
<meta message set_tempo tempo=821918 time=120>
note_on channel=0 note=64 velocity=0 time=0
note_on channel=0 note=40 velocity=0 time=0
note_on channel=0 note=52 velocity=0 time=0
note_on channel=0 note=69 velocity=46 time=0
note_on channel=0 note=73 velocity=46 time=0
note_on channel=0 note=85 velocity=55 time=0
note_on channel=0 note=81 velocity=55 time=0
control_change channel=0 control=64 value=0 time=7
control_change channel=0 control=64 value=127 time=50
<meta message set_tempo tempo=857143 time=63>
note_on channel=0 note=73 velocity=0 time=0
note_on channel=0 note=69 velocity=0 time=0
note_on channel=0 note=64 velocity=50 time=0
<meta message set_tempo tempo=800000 time=120>
note_on channel=0 note=64 velocity=0 time=0
note_on channel=0 note=85 velocity=0 time=0
note_on channel=0 note=81 velocity=0 time=0
note_on channel=0 note=86 velocity=53 time=0
note_on channel=0 note=83 velocity=53 time=0
note_on channel=0 note=74 velocity=45 time=0
note_on channel=0 note=71 velocity=45 time=0
control_change channel=0 control=64 value=0 time=11
control_change channel=0 control=64 value=127 time=58
<meta message set_tempo tempo=833333 time=51>
note_on channel=0 note=71 velocity=0 time=0
note_on channel=0 note=74 velocity=0 time=0
note_on channel=0 note=64 velocity=49 time=0
<meta message set_tempo tempo=857143 time=120>
note_on channel=0 note=64 velocity=0 time=0
note_on channel=0 note=83 velocity=0 time=0
note_on channel=0 note=86 velocity=0 time=0
note_on channel=0 note=85 velocity=52 time=0
note_on channel=0 note=73 velocity=44 time=0
note_on channel=0 note=69 velocity=44 time=0
note_on channel=0 note=81 velocity=52 time=0
control_change channel=0 control=64 value=0 time=10
control_change channel=0 control=64 value=127 time=36
<meta message set_tempo tempo=895522 time=74>
note_on channel=0 note=69 velocity=0 time=0
note_on channel=0 note=73 velocity=0 time=0
note_on channel=0 note=64 velocity=48 time=0
<meta message set_tempo tempo=895522 time=120>
note_on channel=0 note=64 velocity=0 time=0
note_on channel=0 note=85 velocity=0 time=0
note_on channel=0 note=81 velocity=0 time=0
note_on channel=0 note=83 velocity=52 time=0
note_on channel=0 note=68 velocity=44 time=0
note_on channel=0 note=71 velocity=44 time=0
note_on channel=0 note=80 velocity=52 time=0
control_change channel=0 control=64 value=0 time=13
control_change channel=0 control=64 value=127 time=44
note_on channel=0 note=71 velocity=0 time=63
note_on channel=0 note=68 velocity=0 time=0
note_on channel=0 note=64 velocity=49 time=0
control_change channel=0 control=64 value=0 time=103
<meta message set_tempo tempo=937500 time=17>
note_on channel=0 note=64 velocity=0 time=0
note_on channel=0 note=83 velocity=0 time=0
note_on channel=0 note=80 velocity=0 time=0
note_on channel=0 note=75 velocity=56 time=0
note_on channel=0 note=64 velocity=48 time=0
note_on channel=0 note=64 velocity=0 time=120
note_on channel=0 note=75 velocity=0 time=0
note_on channel=0 note=76 velocity=53 time=0
<meta message set_tempo tempo=1071429 time=120>
note_on channel=0 note=76 velocity=0 time=0
note_on channel=0 note=75 velocity=56 time=0
note_on channel=0 note=52 velocity=43 time=0
note_on channel=0 note=52 velocity=0 time=120
note_on channel=0 note=75 velocity=0 time=0
note_on channel=0 note=76 velocity=53 time=0
<meta message set_tempo tempo=983607 time=120>
note_on channel=0 note=76 velocity=0 time=0
note_on channel=0 note=69 velocity=60 time=0
note_on channel=0 note=73 velocity=60 time=0
note_on channel=0 note=45 velocity=65 time=0
note_on channel=0 note=57 velocity=80 time=0
control_change channel=0 control=64 value=127 time=57
note_on channel=0 note=73 velocity=0 time=63
note_on channel=0 note=69 velocity=0 time=0
note_on channel=0 note=64 velocity=60 time=0
<meta message set_tempo tempo=833333 time=120>
note_on channel=0 note=64 velocity=0 time=0
note_on channel=0 note=45 velocity=0 time=0
note_on channel=0 note=57 velocity=0 time=0
note_on channel=0 note=85 velocity=68 time=0
note_on channel=0 note=69 velocity=52 time=0
note_on channel=0 note=73 velocity=52 time=0
note_on channel=0 note=81 velocity=57 time=0
<meta message set_tempo tempo=869565 time=120>
note_on channel=0 note=73 velocity=0 time=0
note_on channel=0 note=69 velocity=0 time=0
note_on channel=0 note=64 velocity=58 time=0
<meta message set_tempo tempo=800000 time=120>
note_on channel=0 note=64 velocity=0 time=0
note_on channel=0 note=85 velocity=0 time=0
note_on channel=0 note=81 velocity=0 time=0
note_on channel=0 note=86 velocity=69 time=0
note_on channel=0 note=74 velocity=54 time=0
note_on channel=0 note=71 velocity=54 time=0
note_on channel=0 note=83 velocity=58 time=0
<meta message set_tempo tempo=833333 time=120>
note_on channel=0 note=71 velocity=0 time=0
note_on channel=0 note=74 velocity=0 time=0
note_on channel=0 note=64 velocity=60 time=0
<meta message set_tempo tempo=810811 time=120>
note_on channel=0 note=64 velocity=0 time=0
note_on channel=0 note=86 velocity=0 time=0
note_on channel=0 note=83 velocity=0 time=0
note_on channel=0 note=85 velocity=61 time=0
note_on channel=0 note=88 velocity=72 time=0
note_on channel=0 note=73 velocity=55 time=0
note_on channel=0 note=76 velocity=55 time=0
<meta message set_tempo tempo=769231 time=120>
note_on channel=0 note=76 velocity=0 time=0
note_on channel=0 note=73 velocity=0 time=0
note_on channel=0 note=64 velocity=60 time=0
<meta message set_tempo tempo=800000 time=110>
note_on channel=0 note=64 velocity=0 time=10
note_on channel=0 note=88 velocity=0 time=0
note_on channel=0 note=85 velocity=0 time=0
note_on channel=0 note=71 velocity=54 time=0
note_on channel=0 note=74 velocity=54 time=0
note_on channel=0 note=83 velocity=58 time=0
note_on channel=0 note=86 velocity=69 time=0
<meta message set_tempo tempo=833333 time=120>
note_on channel=0 note=74 velocity=0 time=0
note_on channel=0 note=71 velocity=0 time=0
note_on channel=0 note=64 velocity=58 time=0
<meta message set_tempo tempo=857143 time=120>
note_on channel=0 note=64 velocity=0 time=0
note_on channel=0 note=83 velocity=0 time=0
note_on channel=0 note=86 velocity=0 time=0
note_on channel=0 note=81 velocity=57 time=0
note_on channel=0 note=85 velocity=68 time=0
note_on channel=0 note=73 velocity=52 time=0
note_on channel=0 note=69 velocity=52 time=0
<meta message set_tempo tempo=882353 time=120>
note_on channel=0 note=69 velocity=0 time=0
note_on channel=0 note=73 velocity=0 time=0
note_on channel=0 note=64 velocity=57 time=0
<meta message set_tempo tempo=895522 time=120>
note_on channel=0 note=64 velocity=0 time=0
note_on channel=0 note=85 velocity=0 time=0
note_on channel=0 note=81 velocity=0 time=0
note_on channel=0 note=68 velocity=60 time=0
note_on channel=0 note=71 velocity=60 time=0
note_on channel=0 note=40 velocity=65 time=0
note_on channel=0 note=52 velocity=80 time=0
control_change channel=0 control=64 value=0 time=6
control_change channel=0 control=64 value=127 time=86
note_on channel=0 note=71 velocity=0 time=28
note_on channel=0 note=68 velocity=0 time=0
note_on channel=0 note=64 velocity=60 time=0
<meta message set_tempo tempo=821918 time=120>
note_on channel=0 note=64 velocity=0 time=0
note_on channel=0 note=40 velocity=0 time=0
note_on channel=0 note=52 velocity=0 time=0
note_on channel=0 note=71 velocity=52 time=0
note_on channel=0 note=80 velocity=57 time=0
note_on channel=0 note=83 velocity=68 time=0
note_on channel=0 note=68 velocity=52 time=0
<meta message set_tempo tempo=845070 time=120>
note_on channel=0 note=68 velocity=0 time=0
note_on channel=0 note=71 velocity=0 time=0
note_on channel=0 note=64 velocity=58 time=0
<meta message set_tempo tempo=810811 time=120>
note_on channel=0 note=64 velocity=0 time=0
note_on channel=0 note=83 velocity=0 time=0
note_on channel=0 note=80 velocity=0 time=0
note_on channel=0 note=85 velocity=69 time=0
note_on channel=0 note=81 velocity=58 time=0
note_on channel=0 note=73 velocity=54 time=0
note_on channel=0 note=69 velocity=54 time=0
<meta message set_tempo tempo=833333 time=120>
note_on channel=0 note=69 velocity=0 time=0
note_on channel=0 note=73 velocity=0 time=0
note_on channel=0 note=64 velocity=60 time=0
<meta message set_tempo tempo=800000 time=120>
note_on channel=0 note=64 velocity=0 time=0
note_on channel=0 note=81 velocity=0 time=0
note_on channel=0 note=85 velocity=0 time=0
note_on channel=0 note=74 velocity=55 time=0
note_on channel=0 note=71 velocity=55 time=0
note_on channel=0 note=83 velocity=61 time=0
note_on channel=0 note=86 velocity=72 time=0
<meta message set_tempo tempo=779221 time=120>
note_on channel=0 note=71 velocity=0 time=0
note_on channel=0 note=74 velocity=0 time=0
note_on channel=0 note=64 velocity=60 time=0
<meta message set_tempo tempo=800000 time=120>
note_on channel=0 note=64 velocity=0 time=0
note_on channel=0 note=83 velocity=0 time=0
note_on channel=0 note=86 velocity=0 time=0
note_on channel=0 note=69 velocity=54 time=0
note_on channel=0 note=73 velocity=54 time=0
note_on channel=0 note=85 velocity=69 time=0
note_on channel=0 note=81 velocity=58 time=0
<meta message set_tempo tempo=845070 time=120>
note_on channel=0 note=73 velocity=0 time=0
note_on channel=0 note=69 velocity=0 time=0
note_on channel=0 note=64 velocity=58 time=0
<meta message set_tempo tempo=882353 time=120>
note_on channel=0 note=64 velocity=0 time=0
note_on channel=0 note=85 velocity=0 time=0
note_on channel=0 note=81 velocity=0 time=0
note_on channel=0 note=68 velocity=52 time=0
note_on channel=0 note=83 velocity=68 time=0
note_on channel=0 note=80 velocity=57 time=0
note_on channel=0 note=71 velocity=52 time=0
note_on channel=0 note=71 velocity=0 time=120
note_on channel=0 note=68 velocity=0 time=0
note_on channel=0 note=64 velocity=57 time=0
<meta message set_tempo tempo=821918 time=120>
note_on channel=0 note=64 velocity=0 time=0
note_on channel=0 note=80 velocity=0 time=0
note_on channel=0 note=83 velocity=0 time=0
note_on channel=0 note=69 velocity=64 time=0
note_on channel=0 note=64 velocity=64 time=0
note_on channel=0 note=45 velocity=65 time=0
note_on channel=0 note=57 velocity=77 time=0
control_change channel=0 control=64 value=0 time=6
control_change channel=0 control=64 value=127 time=93
<meta message set_tempo tempo=833333 time=21>
note_on channel=0 note=64 velocity=0 time=0
note_on channel=0 note=69 velocity=0 time=0
note_on channel=0 note=61 velocity=60 time=0
<meta message set_tempo tempo=810811 time=120>
note_on channel=0 note=61 velocity=0 time=0
note_on channel=0 note=45 velocity=0 time=0
note_on channel=0 note=57 velocity=0 time=0
note_on channel=0 note=81 velocity=70 time=0
note_on channel=0 note=64 velocity=54 time=0
note_on channel=0 note=69 velocity=54 time=0
note_on channel=0 note=73 velocity=59 time=0
<meta message set_tempo tempo=857143 time=120>
note_on channel=0 note=69 velocity=0 time=0
note_on channel=0 note=64 velocity=0 time=0
note_on channel=0 note=61 velocity=60 time=0
<meta message set_tempo tempo=821918 time=120>
note_on channel=0 note=61 velocity=0 time=0
note_on channel=0 note=81 velocity=0 time=0
note_on channel=0 note=73 velocity=0 time=0
note_on channel=0 note=83 velocity=70 time=0
note_on channel=0 note=71 velocity=64 time=0
note_on channel=0 note=68 velocity=64 time=0
note_on channel=0 note=76 velocity=59 time=0
<meta message set_tempo tempo=857143 time=120>
note_on channel=0 note=68 velocity=0 time=0
note_on channel=0 note=71 velocity=0 time=0
note_on channel=0 note=64 velocity=60 time=0
<meta message set_tempo tempo=821918 time=120>
note_on channel=0 note=64 velocity=0 time=0
note_on channel=0 note=83 velocity=0 time=0
note_on channel=0 note=76 velocity=0 time=0
note_on channel=0 note=81 velocity=61 time=0
note_on channel=0 note=85 velocity=73 time=0
note_on channel=0 note=73 velocity=66 time=0
note_on channel=0 note=69 velocity=66 time=0
control_change channel=0 control=64 value=0 time=11
control_change channel=0 control=64 value=127 time=95
note_on channel=0 note=69 velocity=0 time=14
note_on channel=0 note=73 velocity=0 time=0
note_on channel=0 note=64 velocity=61 time=0
<meta message set_tempo tempo=845070 time=120>
note_on channel=0 note=64 velocity=0 time=0
note_on channel=0 note=85 velocity=0 time=0
note_on channel=0 note=81 velocity=0 time=0
note_on channel=0 note=73 velocity=56 time=0
note_on channel=0 note=69 velocity=56 time=0
note_on channel=0 note=42 velocity=63 time=0
note_on channel=0 note=54 velocity=76 time=0
<meta message set_tempo tempo=882353 time=120>
note_on channel=0 note=69 velocity=0 time=0
note_on channel=0 note=73 velocity=0 time=0
note_on channel=0 note=66 velocity=61 time=0
<meta message set_tempo tempo=833333 time=120>
note_on channel=0 note=66 velocity=0 time=0
note_on channel=0 note=42 velocity=0 time=0
note_on channel=0 note=54 velocity=0 time=0
note_on channel=0 note=71 velocity=60 time=0
note_on channel=0 note=74 velocity=60 time=0
note_on channel=0 note=50 velocity=70 time=0
note_on channel=0 note=38 velocity=57 time=0
<meta message set_tempo tempo=869565 time=120>
note_on channel=0 note=74 velocity=0 time=0
note_on channel=0 note=71 velocity=0 time=0
note_on channel=0 note=66 velocity=57 time=0
<meta message set_tempo tempo=857143 time=120>
note_on channel=0 note=66 velocity=0 time=0
note_on channel=0 note=50 velocity=0 time=0
note_on channel=0 note=38 velocity=0 time=0
note_on channel=0 note=73 velocity=60 time=0
note_on channel=0 note=69 velocity=60 time=0
note_on channel=0 note=52 velocity=84 time=0
note_on channel=0 note=40 velocity=71 time=0
control_change channel=0 control=64 value=0 time=8
control_change channel=0 control=64 value=127 time=49
<meta message set_tempo tempo=895522 time=63>
note_on channel=0 note=69 velocity=0 time=0
note_on channel=0 note=73 velocity=0 time=0
note_on channel=0 note=64 velocity=66 time=0
<meta message set_tempo tempo=869565 time=120>
note_on channel=0 note=64 velocity=0 time=0
note_on channel=0 note=52 velocity=0 time=0
note_on channel=0 note=40 velocity=0 time=0
note_on channel=0 note=69 velocity=47 time=0
note_on channel=0 note=81 velocity=50 time=0
note_on channel=0 note=85 velocity=60 time=0
note_on channel=0 note=73 velocity=47 time=0
control_change channel=0 control=64 value=0 time=11
control_change channel=0 control=64 value=127 time=58
<meta message set_tempo tempo=909091 time=51>
note_on channel=0 note=73 velocity=0 time=0
note_on channel=0 note=69 velocity=0 time=0
note_on channel=0 note=64 velocity=50 time=0
<meta message set_tempo tempo=923077 time=120>
note_on channel=0 note=64 velocity=0 time=0
note_on channel=0 note=85 velocity=0 time=0
note_on channel=0 note=81 velocity=0 time=0
note_on channel=0 note=83 velocity=59 time=0
note_on channel=0 note=71 velocity=45 time=0
note_on channel=0 note=68 velocity=45 time=0
note_on channel=0 note=80 velocity=49 time=0
control_change channel=0 control=64 value=0 time=10
control_change channel=0 control=64 value=127 time=61
note_on channel=0 note=68 velocity=0 time=49
note_on channel=0 note=71 velocity=0 time=0
note_on channel=0 note=64 velocity=49 time=0
<meta message set_tempo tempo=1000000 time=120>
note_on channel=0 note=64 velocity=0 time=0
note_on channel=0 note=83 velocity=0 time=0
note_on channel=0 note=80 velocity=0 time=0
note_on channel=0 note=81 velocity=53 time=0
note_on channel=0 note=69 velocity=53 time=0
control_change channel=0 control=64 value=0 time=10
control_change channel=0 control=64 value=127 time=47
note_on channel=0 note=69 velocity=0 time=63
note_on channel=0 note=64 velocity=48 time=0
control_change channel=0 control=64 value=0 time=103
<meta message set_tempo tempo=1052632 time=17>
note_on channel=0 note=64 velocity=0 time=0
note_on channel=0 note=81 velocity=0 time=0
note_on channel=0 note=61 velocity=50 time=0
note_on channel=0 note=57 velocity=49 time=0
<meta message set_tempo tempo=1176471 time=120>
note_on channel=0 note=57 velocity=0 time=0
note_on channel=0 note=61 velocity=0 time=0
note_on channel=0 note=64 velocity=41 time=0
<meta message set_tempo tempo=1764706 time=120>
note_on channel=0 note=64 velocity=0 time=0
note_on channel=0 note=69 velocity=48 time=0
note_on channel=0 note=45 velocity=44 time=0
note_on channel=0 note=45 velocity=0 time=120
note_on channel=0 note=69 velocity=0 time=0
<meta message set_tempo tempo=983607 time=120>
note_on channel=0 note=73 velocity=50 time=0
note_on channel=0 note=69 velocity=50 time=0
note_on channel=0 note=45 velocity=39 time=0
note_on channel=0 note=57 velocity=47 time=0
control_change channel=0 control=64 value=127 time=57
note_on channel=0 note=69 velocity=0 time=63
note_on channel=0 note=73 velocity=0 time=0
note_on channel=0 note=64 velocity=50 time=0
<meta message set_tempo tempo=833333 time=120>
note_on channel=0 note=64 velocity=0 time=0
note_on channel=0 note=45 velocity=0 time=0
note_on channel=0 note=57 velocity=0 time=0
note_on channel=0 note=73 velocity=44 time=0
note_on channel=0 note=85 velocity=52 time=0
note_on channel=0 note=81 velocity=52 time=0
note_on channel=0 note=69 velocity=44 time=0
<meta message set_tempo tempo=869565 time=120>
note_on channel=0 note=69 velocity=0 time=0
note_on channel=0 note=73 velocity=0 time=0
note_on channel=0 note=64 velocity=49 time=0
<meta message set_tempo tempo=800000 time=120>
note_on channel=0 note=64 velocity=0 time=0
note_on channel=0 note=81 velocity=0 time=0
note_on channel=0 note=85 velocity=0 time=0
note_on channel=0 note=83 velocity=53 time=0
note_on channel=0 note=86 velocity=53 time=0
note_on channel=0 note=71 velocity=45 time=0
note_on channel=0 note=74 velocity=45 time=0
<meta message set_tempo tempo=833333 time=120>
note_on channel=0 note=74 velocity=0 time=0
note_on channel=0 note=71 velocity=0 time=0
note_on channel=0 note=64 velocity=50 time=0
<meta message set_tempo tempo=810811 time=120>
note_on channel=0 note=64 velocity=0 time=0
note_on channel=0 note=86 velocity=0 time=0
note_on channel=0 note=83 velocity=0 time=0
note_on channel=0 note=76 velocity=46 time=0
note_on channel=0 note=88 velocity=55 time=0
note_on channel=0 note=73 velocity=46 time=0
note_on channel=0 note=85 velocity=55 time=0
<meta message set_tempo tempo=769231 time=120>
note_on channel=0 note=73 velocity=0 time=0
note_on channel=0 note=76 velocity=0 time=0
note_on channel=0 note=64 velocity=50 time=0
<meta message set_tempo tempo=800000 time=110>
note_on channel=0 note=64 velocity=0 time=10
note_on channel=0 note=88 velocity=0 time=0
note_on channel=0 note=85 velocity=0 time=0
note_on channel=0 note=83 velocity=53 time=0
note_on channel=0 note=74 velocity=45 time=0
note_on channel=0 note=86 velocity=53 time=0
note_on channel=0 note=71 velocity=45 time=0
<meta message set_tempo tempo=833333 time=120>
note_on channel=0 note=71 velocity=0 time=0
note_on channel=0 note=74 velocity=0 time=0
note_on channel=0 note=64 velocity=49 time=0
<meta message set_tempo tempo=882353 time=120>
note_on channel=0 note=64 velocity=0 time=0
note_on channel=0 note=86 velocity=0 time=0
note_on channel=0 note=83 velocity=0 time=0
note_on channel=0 note=69 velocity=44 time=0
note_on channel=0 note=73 velocity=44 time=0
note_on channel=0 note=81 velocity=52 time=0
note_on channel=0 note=85 velocity=52 time=0
note_on channel=0 note=73 velocity=0 time=120
note_on channel=0 note=69 velocity=0 time=0
note_on channel=0 note=64 velocity=48 time=0
<meta message set_tempo tempo=895522 time=120>
note_on channel=0 note=64 velocity=0 time=0
note_on channel=0 note=81 velocity=0 time=0
note_on channel=0 note=85 velocity=0 time=0
note_on channel=0 note=68 velocity=50 time=0
note_on channel=0 note=71 velocity=50 time=0
note_on channel=0 note=40 velocity=39 time=0
note_on channel=0 note=52 velocity=47 time=0
control_change channel=0 control=64 value=0 time=5
control_change channel=0 control=64 value=127 time=94
note_on channel=0 note=71 velocity=0 time=21
note_on channel=0 note=68 velocity=0 time=0
note_on channel=0 note=64 velocity=50 time=0
<meta message set_tempo tempo=821918 time=120>
note_on channel=0 note=64 velocity=0 time=0
note_on channel=0 note=40 velocity=0 time=0
note_on channel=0 note=52 velocity=0 time=0
note_on channel=0 note=80 velocity=52 time=0
note_on channel=0 note=71 velocity=44 time=0
note_on channel=0 note=83 velocity=52 time=0
note_on channel=0 note=68 velocity=44 time=0
<meta message set_tempo tempo=845070 time=120>
note_on channel=0 note=68 velocity=0 time=0
note_on channel=0 note=71 velocity=0 time=0
note_on channel=0 note=64 velocity=49 time=0
<meta message set_tempo tempo=789474 time=120>
note_on channel=0 note=64 velocity=0 time=0
note_on channel=0 note=83 velocity=0 time=0
note_on channel=0 note=80 velocity=0 time=0
note_on channel=0 note=69 velocity=45 time=0
note_on channel=0 note=81 velocity=53 time=0
note_on channel=0 note=85 velocity=53 time=0
note_on channel=0 note=73 velocity=45 time=0
<meta message set_tempo tempo=833333 time=120>
note_on channel=0 note=73 velocity=0 time=0
note_on channel=0 note=69 velocity=0 time=0
note_on channel=0 note=64 velocity=50 time=0
<meta message set_tempo tempo=800000 time=120>
note_on channel=0 note=64 velocity=0 time=0
note_on channel=0 note=85 velocity=0 time=0
note_on channel=0 note=81 velocity=0 time=0
note_on channel=0 note=74 velocity=46 time=0
note_on channel=0 note=71 velocity=46 time=0
note_on channel=0 note=86 velocity=55 time=0
note_on channel=0 note=83 velocity=55 time=0
<meta message set_tempo tempo=779221 time=120>
note_on channel=0 note=71 velocity=0 time=0
note_on channel=0 note=74 velocity=0 time=0
note_on channel=0 note=64 velocity=50 time=0
<meta message set_tempo tempo=800000 time=120>
note_on channel=0 note=64 velocity=0 time=0
note_on channel=0 note=86 velocity=0 time=0
note_on channel=0 note=83 velocity=0 time=0
note_on channel=0 note=85 velocity=53 time=0
note_on channel=0 note=69 velocity=45 time=0
note_on channel=0 note=73 velocity=45 time=0
note_on channel=0 note=81 velocity=53 time=0
<meta message set_tempo tempo=845070 time=120>
note_on channel=0 note=73 velocity=0 time=0
note_on channel=0 note=69 velocity=0 time=0
note_on channel=0 note=64 velocity=49 time=0
<meta message set_tempo tempo=869565 time=120>
note_on channel=0 note=64 velocity=0 time=0
note_on channel=0 note=85 velocity=0 time=0
note_on channel=0 note=81 velocity=0 time=0
note_on channel=0 note=83 velocity=52 time=0
note_on channel=0 note=71 velocity=44 time=0
note_on channel=0 note=80 velocity=52 time=0
note_on channel=0 note=68 velocity=44 time=0
note_on channel=0 note=68 velocity=0 time=120
note_on channel=0 note=71 velocity=0 time=0
note_on channel=0 note=64 velocity=48 time=0
<meta message set_tempo tempo=869565 time=120>
note_on channel=0 note=64 velocity=0 time=0
note_on channel=0 note=80 velocity=0 time=0
note_on channel=0 note=83 velocity=0 time=0
note_on channel=0 note=64 velocity=54 time=0
note_on channel=0 note=69 velocity=54 time=0
note_on channel=0 note=57 velocity=52 time=0
note_on channel=0 note=45 velocity=44 time=0
control_change channel=0 control=64 value=0 time=6
control_change channel=0 control=64 value=127 time=86
<meta message set_tempo tempo=895522 time=28>
note_on channel=0 note=69 velocity=0 time=0
note_on channel=0 note=64 velocity=0 time=0
note_on channel=0 note=61 velocity=50 time=0
<meta message set_tempo tempo=845070 time=120>
note_on channel=0 note=61 velocity=0 time=0
note_on channel=0 note=57 velocity=0 time=0
note_on channel=0 note=45 velocity=0 time=0
note_on channel=0 note=64 velocity=45 time=0
note_on channel=0 note=69 velocity=45 time=0
note_on channel=0 note=81 velocity=54 time=0
<meta message set_tempo tempo=821918 time=120>
note_on channel=0 note=69 velocity=0 time=0
note_on channel=0 note=64 velocity=0 time=0
note_on channel=0 note=61 velocity=50 time=0
<meta message set_tempo tempo=800000 time=120>
note_on channel=0 note=61 velocity=0 time=0
note_on channel=0 note=81 velocity=0 time=0
note_on channel=0 note=64 velocity=54 time=0
note_on channel=0 note=69 velocity=54 time=0
note_on channel=0 note=57 velocity=47 time=0
note_on channel=0 note=45 velocity=39 time=0
<meta message set_tempo tempo=857143 time=120>
note_on channel=0 note=69 velocity=0 time=0
note_on channel=0 note=64 velocity=0 time=0
note_on channel=0 note=61 velocity=50 time=0
<meta message set_tempo tempo=789474 time=120>
note_on channel=0 note=61 velocity=0 time=0
note_on channel=0 note=57 velocity=0 time=0
note_on channel=0 note=45 velocity=0 time=0
note_on channel=0 note=71 velocity=55 time=0
note_on channel=0 note=68 velocity=55 time=0
note_on channel=0 note=52 velocity=51 time=0
note_on channel=0 note=40 velocity=43 time=0
control_change channel=0 control=64 value=0 time=11
control_change channel=0 control=64 value=127 time=102
<meta message set_tempo tempo=810811 time=7>
note_on channel=0 note=68 velocity=0 time=0
note_on channel=0 note=71 velocity=0 time=0
note_on channel=0 note=64 velocity=51 time=0
<meta message set_tempo tempo=810811 time=120>
note_on channel=0 note=64 velocity=0 time=0
note_on channel=0 note=52 velocity=0 time=0
note_on channel=0 note=40 velocity=0 time=0
note_on channel=0 note=68 velocity=47 time=0
note_on channel=0 note=83 velocity=56 time=0
note_on channel=0 note=71 velocity=47 time=0
<meta message set_tempo tempo=845070 time=120>
note_on channel=0 note=71 velocity=0 time=0
note_on channel=0 note=68 velocity=0 time=0
note_on channel=0 note=64 velocity=51 time=0
<meta message set_tempo tempo=857143 time=120>
note_on channel=0 note=64 velocity=0 time=0
note_on channel=0 note=83 velocity=0 time=0
note_on channel=0 note=71 velocity=50 time=0
note_on channel=0 note=68 velocity=50 time=0
note_on channel=0 note=40 velocity=39 time=0
note_on channel=0 note=52 velocity=47 time=0
note_on channel=0 note=68 velocity=0 time=120
note_on channel=0 note=71 velocity=0 time=0
note_on channel=0 note=64 velocity=48 time=0
<meta message set_tempo tempo=821918 time=120>
note_on channel=0 note=64 velocity=0 time=0
note_on channel=0 note=40 velocity=0 time=0
note_on channel=0 note=52 velocity=0 time=0
note_on channel=0 note=73 velocity=46 time=0
note_on channel=0 note=69 velocity=46 time=0
note_on channel=0 note=85 velocity=55 time=0
note_on channel=0 note=81 velocity=55 time=0
control_change channel=0 control=64 value=0 time=5
control_change channel=0 control=64 value=127 time=52
<meta message set_tempo tempo=857143 time=63>
note_on channel=0 note=69 velocity=0 time=0
note_on channel=0 note=73 velocity=0 time=0
note_on channel=0 note=64 velocity=50 time=0
<meta message set_tempo tempo=800000 time=120>
note_on channel=0 note=64 velocity=0 time=0
note_on channel=0 note=85 velocity=0 time=0
note_on channel=0 note=81 velocity=0 time=0
note_on channel=0 note=86 velocity=53 time=0
note_on channel=0 note=74 velocity=45 time=0
note_on channel=0 note=83 velocity=53 time=0
note_on channel=0 note=71 velocity=45 time=0
control_change channel=0 control=64 value=0 time=11
control_change channel=0 control=64 value=127 time=58
<meta message set_tempo tempo=833333 time=51>
note_on channel=0 note=71 velocity=0 time=0
note_on channel=0 note=74 velocity=0 time=0
note_on channel=0 note=64 velocity=49 time=0
<meta message set_tempo tempo=857143 time=120>
note_on channel=0 note=64 velocity=0 time=0
note_on channel=0 note=83 velocity=0 time=0
note_on channel=0 note=86 velocity=0 time=0
note_on channel=0 note=85 velocity=52 time=0
note_on channel=0 note=69 velocity=44 time=0
note_on channel=0 note=73 velocity=44 time=0
note_on channel=0 note=81 velocity=52 time=0
control_change channel=0 control=64 value=0 time=10
control_change channel=0 control=64 value=127 time=54
<meta message set_tempo tempo=895522 time=56>
note_on channel=0 note=73 velocity=0 time=0
note_on channel=0 note=69 velocity=0 time=0
note_on channel=0 note=64 velocity=48 time=0
<meta message set_tempo tempo=895522 time=120>
note_on channel=0 note=64 velocity=0 time=0
note_on channel=0 note=85 velocity=0 time=0
note_on channel=0 note=81 velocity=0 time=0
note_on channel=0 note=68 velocity=44 time=0
note_on channel=0 note=80 velocity=52 time=0
note_on channel=0 note=83 velocity=52 time=0
note_on channel=0 note=71 velocity=44 time=0
control_change channel=0 control=64 value=0 time=10
control_change channel=0 control=64 value=127 time=47
note_on channel=0 note=71 velocity=0 time=63
note_on channel=0 note=68 velocity=0 time=0
note_on channel=0 note=64 velocity=49 time=0
control_change channel=0 control=64 value=0 time=103
<meta message set_tempo tempo=937500 time=17>
note_on channel=0 note=64 velocity=0 time=0
note_on channel=0 note=83 velocity=0 time=0
note_on channel=0 note=80 velocity=0 time=0
note_on channel=0 note=75 velocity=56 time=0
note_on channel=0 note=64 velocity=48 time=0
note_on channel=0 note=64 velocity=0 time=120
note_on channel=0 note=75 velocity=0 time=0
note_on channel=0 note=76 velocity=53 time=0
<meta message set_tempo tempo=1071429 time=120>
note_on channel=0 note=76 velocity=0 time=0
note_on channel=0 note=75 velocity=56 time=0
note_on channel=0 note=52 velocity=43 time=0
note_on channel=0 note=52 velocity=0 time=120
note_on channel=0 note=75 velocity=0 time=0
note_on channel=0 note=76 velocity=53 time=0
<meta message set_tempo tempo=983607 time=120>
note_on channel=0 note=76 velocity=0 time=0
note_on channel=0 note=69 velocity=60 time=0
note_on channel=0 note=73 velocity=60 time=0
note_on channel=0 note=45 velocity=65 time=0
note_on channel=0 note=57 velocity=80 time=0
control_change channel=0 control=64 value=127 time=57
note_on channel=0 note=73 velocity=0 time=63
note_on channel=0 note=69 velocity=0 time=0
note_on channel=0 note=64 velocity=60 time=0
<meta message set_tempo tempo=833333 time=120>
note_on channel=0 note=64 velocity=0 time=0
note_on channel=0 note=45 velocity=0 time=0
note_on channel=0 note=57 velocity=0 time=0
note_on channel=0 note=81 velocity=57 time=0
note_on channel=0 note=73 velocity=52 time=0
note_on channel=0 note=85 velocity=68 time=0
note_on channel=0 note=69 velocity=52 time=0
<meta message set_tempo tempo=869565 time=120>
note_on channel=0 note=69 velocity=0 time=0
note_on channel=0 note=73 velocity=0 time=0
note_on channel=0 note=64 velocity=58 time=0
<meta message set_tempo tempo=800000 time=120>
note_on channel=0 note=64 velocity=0 time=0
note_on channel=0 note=85 velocity=0 time=0
note_on channel=0 note=81 velocity=0 time=0
note_on channel=0 note=74 velocity=54 time=0
note_on channel=0 note=86 velocity=69 time=0
note_on channel=0 note=83 velocity=58 time=0
note_on channel=0 note=71 velocity=54 time=0
<meta message set_tempo tempo=833333 time=120>
note_on channel=0 note=71 velocity=0 time=0
note_on channel=0 note=74 velocity=0 time=0
note_on channel=0 note=64 velocity=60 time=0
<meta message set_tempo tempo=810811 time=120>
note_on channel=0 note=64 velocity=0 time=0
note_on channel=0 note=83 velocity=0 time=0
note_on channel=0 note=86 velocity=0 time=0
note_on channel=0 note=73 velocity=55 time=0
note_on channel=0 note=76 velocity=55 time=0
note_on channel=0 note=85 velocity=61 time=0
note_on channel=0 note=88 velocity=72 time=0
<meta message set_tempo tempo=769231 time=120>
note_on channel=0 note=76 velocity=0 time=0
note_on channel=0 note=73 velocity=0 time=0
note_on channel=0 note=64 velocity=60 time=0
<meta message set_tempo tempo=800000 time=110>
note_on channel=0 note=64 velocity=0 time=10
note_on channel=0 note=85 velocity=0 time=0
note_on channel=0 note=88 velocity=0 time=0
note_on channel=0 note=86 velocity=69 time=0
note_on channel=0 note=71 velocity=54 time=0
note_on channel=0 note=83 velocity=58 time=0
note_on channel=0 note=74 velocity=54 time=0
<meta message set_tempo tempo=833333 time=120>
note_on channel=0 note=74 velocity=0 time=0
note_on channel=0 note=71 velocity=0 time=0
note_on channel=0 note=64 velocity=58 time=0
<meta message set_tempo tempo=857143 time=120>
note_on channel=0 note=64 velocity=0 time=0
note_on channel=0 note=83 velocity=0 time=0
note_on channel=0 note=86 velocity=0 time=0
note_on channel=0 note=81 velocity=57 time=0
note_on channel=0 note=73 velocity=52 time=0
note_on channel=0 note=85 velocity=68 time=0
note_on channel=0 note=69 velocity=52 time=0
<meta message set_tempo tempo=882353 time=120>
note_on channel=0 note=69 velocity=0 time=0
note_on channel=0 note=73 velocity=0 time=0
note_on channel=0 note=64 velocity=57 time=0
<meta message set_tempo tempo=895522 time=120>
note_on channel=0 note=64 velocity=0 time=0
note_on channel=0 note=85 velocity=0 time=0
note_on channel=0 note=81 velocity=0 time=0
note_on channel=0 note=68 velocity=60 time=0
note_on channel=0 note=71 velocity=60 time=0
note_on channel=0 note=52 velocity=80 time=0
note_on channel=0 note=40 velocity=65 time=0
control_change channel=0 control=64 value=0 time=6
control_change channel=0 control=64 value=127 time=79
note_on channel=0 note=71 velocity=0 time=35
note_on channel=0 note=68 velocity=0 time=0
note_on channel=0 note=64 velocity=60 time=0
<meta message set_tempo tempo=821918 time=120>
note_on channel=0 note=64 velocity=0 time=0
note_on channel=0 note=52 velocity=0 time=0
note_on channel=0 note=40 velocity=0 time=0
note_on channel=0 note=71 velocity=52 time=0
note_on channel=0 note=80 velocity=57 time=0
note_on channel=0 note=68 velocity=52 time=0
note_on channel=0 note=83 velocity=68 time=0
<meta message set_tempo tempo=845070 time=120>
note_on channel=0 note=68 velocity=0 time=0
note_on channel=0 note=71 velocity=0 time=0
note_on channel=0 note=64 velocity=58 time=0
<meta message set_tempo tempo=810811 time=120>
note_on channel=0 note=64 velocity=0 time=0
note_on channel=0 note=80 velocity=0 time=0
note_on channel=0 note=83 velocity=0 time=0
note_on channel=0 note=69 velocity=54 time=0
note_on channel=0 note=73 velocity=54 time=0
note_on channel=0 note=81 velocity=58 time=0
note_on channel=0 note=85 velocity=69 time=0
<meta message set_tempo tempo=833333 time=120>
note_on channel=0 note=73 velocity=0 time=0
note_on channel=0 note=69 velocity=0 time=0
note_on channel=0 note=64 velocity=60 time=0
<meta message set_tempo tempo=800000 time=120>
note_on channel=0 note=64 velocity=0 time=0
note_on channel=0 note=81 velocity=0 time=0
note_on channel=0 note=85 velocity=0 time=0
note_on channel=0 note=71 velocity=55 time=0
note_on channel=0 note=83 velocity=61 time=0
note_on channel=0 note=86 velocity=72 time=0
note_on channel=0 note=74 velocity=55 time=0
<meta message set_tempo tempo=779221 time=120>
note_on channel=0 note=74 velocity=0 time=0
note_on channel=0 note=71 velocity=0 time=0
note_on channel=0 note=64 velocity=60 time=0
<meta message set_tempo tempo=800000 time=120>
note_on channel=0 note=64 velocity=0 time=0
note_on channel=0 note=86 velocity=0 time=0
note_on channel=0 note=83 velocity=0 time=0
note_on channel=0 note=73 velocity=54 time=0
note_on channel=0 note=85 velocity=69 time=0
note_on channel=0 note=81 velocity=58 time=0
note_on channel=0 note=69 velocity=54 time=0
<meta message set_tempo tempo=845070 time=120>
note_on channel=0 note=69 velocity=0 time=0
note_on channel=0 note=73 velocity=0 time=0
note_on channel=0 note=64 velocity=58 time=0
<meta message set_tempo tempo=882353 time=120>
note_on channel=0 note=64 velocity=0 time=0
note_on channel=0 note=81 velocity=0 time=0
note_on channel=0 note=85 velocity=0 time=0
note_on channel=0 note=71 velocity=52 time=0
note_on channel=0 note=83 velocity=68 time=0
note_on channel=0 note=80 velocity=57 time=0
note_on channel=0 note=68 velocity=52 time=0
note_on channel=0 note=68 velocity=0 time=120
note_on channel=0 note=71 velocity=0 time=0
note_on channel=0 note=64 velocity=57 time=0
<meta message set_tempo tempo=821918 time=120>
note_on channel=0 note=64 velocity=0 time=0
note_on channel=0 note=80 velocity=0 time=0
note_on channel=0 note=83 velocity=0 time=0
note_on channel=0 note=69 velocity=64 time=0
note_on channel=0 note=64 velocity=64 time=0
note_on channel=0 note=57 velocity=77 time=0
note_on channel=0 note=45 velocity=65 time=0
control_change channel=0 control=64 value=0 time=5
control_change channel=0 control=64 value=127 time=80
<meta message set_tempo tempo=833333 time=35>
note_on channel=0 note=64 velocity=0 time=0
note_on channel=0 note=69 velocity=0 time=0
note_on channel=0 note=61 velocity=60 time=0
<meta message set_tempo tempo=810811 time=120>
note_on channel=0 note=61 velocity=0 time=0
note_on channel=0 note=57 velocity=0 time=0
note_on channel=0 note=45 velocity=0 time=0
note_on channel=0 note=81 velocity=70 time=0
note_on channel=0 note=64 velocity=54 time=0
note_on channel=0 note=69 velocity=54 time=0
note_on channel=0 note=73 velocity=59 time=0
<meta message set_tempo tempo=857143 time=120>
note_on channel=0 note=69 velocity=0 time=0
note_on channel=0 note=64 velocity=0 time=0
note_on channel=0 note=61 velocity=60 time=0
<meta message set_tempo tempo=821918 time=120>
note_on channel=0 note=61 velocity=0 time=0
note_on channel=0 note=81 velocity=0 time=0
note_on channel=0 note=73 velocity=0 time=0
note_on channel=0 note=68 velocity=64 time=0
note_on channel=0 note=76 velocity=59 time=0
note_on channel=0 note=71 velocity=64 time=0
note_on channel=0 note=83 velocity=70 time=0
<meta message set_tempo tempo=857143 time=120>
note_on channel=0 note=71 velocity=0 time=0
note_on channel=0 note=68 velocity=0 time=0
note_on channel=0 note=64 velocity=60 time=0
<meta message set_tempo tempo=821918 time=120>
note_on channel=0 note=64 velocity=0 time=0
note_on channel=0 note=76 velocity=0 time=0
note_on channel=0 note=83 velocity=0 time=0
note_on channel=0 note=69 velocity=66 time=0
note_on channel=0 note=85 velocity=73 time=0
note_on channel=0 note=73 velocity=66 time=0
note_on channel=0 note=81 velocity=61 time=0
control_change channel=0 control=64 value=0 time=11
control_change channel=0 control=64 value=127 time=88
note_on channel=0 note=73 velocity=0 time=21
note_on channel=0 note=69 velocity=0 time=0
note_on channel=0 note=64 velocity=61 time=0
<meta message set_tempo tempo=845070 time=120>
note_on channel=0 note=64 velocity=0 time=0
note_on channel=0 note=85 velocity=0 time=0
note_on channel=0 note=81 velocity=0 time=0
note_on channel=0 note=73 velocity=56 time=0
note_on channel=0 note=69 velocity=56 time=0
note_on channel=0 note=42 velocity=63 time=0
note_on channel=0 note=54 velocity=76 time=0
<meta message set_tempo tempo=882353 time=120>
note_on channel=0 note=69 velocity=0 time=0
note_on channel=0 note=73 velocity=0 time=0
note_on channel=0 note=66 velocity=61 time=0
<meta message set_tempo tempo=833333 time=120>
note_on channel=0 note=66 velocity=0 time=0
note_on channel=0 note=42 velocity=0 time=0
note_on channel=0 note=54 velocity=0 time=0
note_on channel=0 note=71 velocity=60 time=0
note_on channel=0 note=74 velocity=60 time=0
note_on channel=0 note=38 velocity=57 time=0
note_on channel=0 note=50 velocity=70 time=0
<meta message set_tempo tempo=869565 time=120>
note_on channel=0 note=74 velocity=0 time=0
note_on channel=0 note=71 velocity=0 time=0
note_on channel=0 note=66 velocity=57 time=0
<meta message set_tempo tempo=857143 time=120>
note_on channel=0 note=66 velocity=0 time=0
note_on channel=0 note=38 velocity=0 time=0
note_on channel=0 note=50 velocity=0 time=0
note_on channel=0 note=69 velocity=60 time=0
note_on channel=0 note=73 velocity=60 time=0
note_on channel=0 note=52 velocity=84 time=0
note_on channel=0 note=40 velocity=71 time=0
control_change channel=0 control=64 value=0 time=7
control_change channel=0 control=64 value=127 time=50
<meta message set_tempo tempo=895522 time=63>
note_on channel=0 note=73 velocity=0 time=0
note_on channel=0 note=69 velocity=0 time=0
note_on channel=0 note=64 velocity=66 time=0
<meta message set_tempo tempo=869565 time=120>
note_on channel=0 note=64 velocity=0 time=0
note_on channel=0 note=52 velocity=0 time=0
note_on channel=0 note=40 velocity=0 time=0
note_on channel=0 note=85 velocity=60 time=0
note_on channel=0 note=81 velocity=50 time=0
note_on channel=0 note=69 velocity=47 time=0
note_on channel=0 note=73 velocity=47 time=0
control_change channel=0 control=64 value=0 time=11
control_change channel=0 control=64 value=127 time=57
<meta message set_tempo tempo=909091 time=52>
note_on channel=0 note=73 velocity=0 time=0
note_on channel=0 note=69 velocity=0 time=0
note_on channel=0 note=64 velocity=50 time=0
<meta message set_tempo tempo=923077 time=120>
note_on channel=0 note=64 velocity=0 time=0
note_on channel=0 note=81 velocity=0 time=0
note_on channel=0 note=85 velocity=0 time=0
note_on channel=0 note=80 velocity=49 time=0
note_on channel=0 note=71 velocity=45 time=0
note_on channel=0 note=83 velocity=59 time=0
note_on channel=0 note=68 velocity=45 time=0
control_change channel=0 control=64 value=0 time=12
control_change channel=0 control=64 value=127 time=49
note_on channel=0 note=68 velocity=0 time=59
note_on channel=0 note=71 velocity=0 time=0
note_on channel=0 note=64 velocity=49 time=0
<meta message set_tempo tempo=1000000 time=120>
note_on channel=0 note=64 velocity=0 time=0
note_on channel=0 note=83 velocity=0 time=0
note_on channel=0 note=80 velocity=0 time=0
note_on channel=0 note=69 velocity=53 time=0
note_on channel=0 note=81 velocity=53 time=0
control_change channel=0 control=64 value=0 time=12
control_change channel=0 control=64 value=127 time=58
note_on channel=0 note=69 velocity=0 time=50
note_on channel=0 note=64 velocity=48 time=0
control_change channel=0 control=64 value=0 time=103
<meta message set_tempo tempo=1052632 time=17>
note_on channel=0 note=64 velocity=0 time=0
note_on channel=0 note=81 velocity=0 time=0
note_on channel=0 note=61 velocity=50 time=0
note_on channel=0 note=57 velocity=49 time=0
<meta message set_tempo tempo=1176471 time=120>
note_on channel=0 note=57 velocity=0 time=0
note_on channel=0 note=61 velocity=0 time=0
note_on channel=0 note=64 velocity=41 time=0
<meta message set_tempo tempo=1764706 time=120>
note_on channel=0 note=64 velocity=0 time=0
note_on channel=0 note=69 velocity=48 time=0
note_on channel=0 note=45 velocity=44 time=0
note_on channel=0 note=45 velocity=0 time=120
note_on channel=0 note=69 velocity=0 time=0
<meta message set_tempo tempo=923077 time=120>
note_on channel=0 note=76 velocity=54 time=0
note_on channel=0 note=57 velocity=42 time=0
control_change channel=0 control=64 value=127 time=39
<meta message set_tempo tempo=923077 time=81>
note_on channel=0 note=57 velocity=0 time=0
note_on channel=0 note=61 velocity=31 time=0
<meta message set_tempo tempo=952381 time=60>
<meta message set_tempo tempo=857143 time=60>
note_on channel=0 note=61 velocity=0 time=0
note_on channel=0 note=64 velocity=34 time=0
control_change channel=0 control=64 value=0 time=110
<meta message set_tempo tempo=983607 time=10>
note_on channel=0 note=64 velocity=0 time=0
note_on channel=0 note=76 velocity=0 time=0
note_on channel=0 note=78 velocity=54 time=0
note_on channel=0 note=61 velocity=32 time=0
<meta message set_tempo tempo=937500 time=60>
note_on channel=0 note=78 velocity=0 time=0
note_on channel=0 note=76 velocity=50 time=0
<meta message set_tempo tempo=857143 time=60>
note_on channel=0 note=76 velocity=0 time=0
note_on channel=0 note=61 velocity=0 time=0
note_on channel=0 note=74 velocity=55 time=0
note_on channel=0 note=64 velocity=34 time=0
note_on channel=0 note=74 velocity=0 time=60
note_on channel=0 note=73 velocity=54 time=0
<meta message set_tempo tempo=909091 time=60>
note_on channel=0 note=73 velocity=0 time=0
note_on channel=0 note=64 velocity=0 time=0
note_on channel=0 note=71 velocity=53 time=0
note_on channel=0 note=61 velocity=30 time=0
note_on channel=0 note=71 velocity=0 time=60
note_on channel=0 note=69 velocity=52 time=0
<meta message set_tempo tempo=1000000 time=60>
note_on channel=0 note=69 velocity=0 time=0
note_on channel=0 note=61 velocity=0 time=0
note_on channel=0 note=77 velocity=57 time=0
note_on channel=0 note=57 velocity=40 time=0
control_change channel=0 control=64 value=127 time=7
<meta message set_tempo tempo=923077 time=113>
note_on channel=0 note=57 velocity=0 time=0
note_on channel=0 note=77 velocity=0 time=0
note_on channel=0 note=78 velocity=54 time=0
note_on channel=0 note=62 velocity=30 time=0
control_change channel=0 control=64 value=0 time=3
control_change channel=0 control=64 value=127 time=36
note_on channel=0 note=78 velocity=0 time=75
<meta message set_tempo tempo=923077 time=6>
note_on channel=0 note=62 velocity=0 time=0
note_on channel=0 note=78 velocity=54 time=0
note_on channel=0 note=66 velocity=33 time=0
<meta message set_tempo tempo=967742 time=120>
note_on channel=0 note=66 velocity=0 time=0
note_on channel=0 note=78 velocity=0 time=0
note_on channel=0 note=62 velocity=31 time=0
<meta message set_tempo tempo=937500 time=120>
note_on channel=0 note=62 velocity=0 time=0
note_on channel=0 note=66 velocity=33 time=0
<meta message set_tempo tempo=1000000 time=120>
note_on channel=0 note=66 velocity=0 time=0
note_on channel=0 note=62 velocity=32 time=0
<meta message set_tempo tempo=952381 time=120>
note_on channel=0 note=62 velocity=0 time=0
note_on channel=0 note=81 velocity=58 time=0
note_on channel=0 note=57 velocity=40 time=0
control_change channel=0 control=64 value=0 time=6
control_change channel=0 control=64 value=127 time=40
note_on channel=0 note=57 velocity=0 time=74
note_on channel=0 note=81 velocity=0 time=0
note_on channel=0 note=80 velocity=55 time=0
note_on channel=0 note=62 velocity=31 time=0
<meta message set_tempo tempo=895522 time=120>
note_on channel=0 note=62 velocity=0 time=0
note_on channel=0 note=80 velocity=0 time=0
note_on channel=0 note=83 velocity=58 time=0
note_on channel=0 note=66 velocity=34 time=0
control_change channel=0 control=64 value=0 time=9
control_change channel=0 control=64 value=127 time=83
<meta message set_tempo tempo=937500 time=28>
note_on channel=0 note=66 velocity=0 time=0
note_on channel=0 note=83 velocity=0 time=0
note_on channel=0 note=81 velocity=58 time=0
note_on channel=0 note=62 velocity=34 time=0
note_on channel=0 note=62 velocity=0 time=120
note_on channel=0 note=81 velocity=0 time=0
note_on channel=0 note=80 velocity=59 time=0
note_on channel=0 note=66 velocity=39 time=0
note_on channel=0 note=66 velocity=0 time=120
note_on channel=0 note=80 velocity=0 time=0
note_on channel=0 note=78 velocity=60 time=0
note_on channel=0 note=62 velocity=33 time=0
<meta message set_tempo tempo=1176471 time=60>
<meta message set_tempo tempo=952381 time=60>
note_on channel=0 note=62 velocity=0 time=0
note_on channel=0 note=78 velocity=0 time=0
note_on channel=0 note=75 velocity=62 time=0
note_on channel=0 note=57 velocity=43 time=0
control_change channel=0 control=64 value=0 time=5
control_change channel=0 control=64 value=127 time=47
note_on channel=0 note=57 velocity=0 time=68
note_on channel=0 note=75 velocity=0 time=0
note_on channel=0 note=76 velocity=57 time=0
note_on channel=0 note=61 velocity=33 time=0
note_on channel=0 note=76 velocity=0 time=112
<meta message set_tempo tempo=1016949 time=8>
note_on channel=0 note=61 velocity=0 time=0
note_on channel=0 note=76 velocity=57 time=0
note_on channel=0 note=64 velocity=33 time=0
control_change channel=0 control=64 value=0 time=11
control_change channel=0 control=64 value=127 time=46
note_on channel=0 note=64 velocity=0 time=63
note_on channel=0 note=76 velocity=0 time=0
note_on channel=0 note=61 velocity=31 time=0
note_on channel=0 note=61 velocity=0 time=120
note_on channel=0 note=64 velocity=33 time=0
note_on channel=0 note=64 velocity=0 time=120
note_on channel=0 note=61 velocity=31 time=0
<meta message set_tempo tempo=937500 time=120>
note_on channel=0 note=61 velocity=0 time=0
note_on channel=0 note=76 velocity=63 time=0
note_on channel=0 note=45 velocity=52 time=0
note_on channel=0 note=49 velocity=52 time=0
control_change channel=0 control=64 value=0 time=7
control_change channel=0 control=64 value=127 time=46
<meta message set_tempo tempo=869565 time=67>
note_on channel=0 note=49 velocity=0 time=0
note_on channel=0 note=45 velocity=0 time=0
<meta message set_tempo tempo=1000000 time=120>
note_on channel=0 note=61 velocity=45 time=0
note_on channel=0 note=57 velocity=45 time=0
<meta message set_tempo tempo=937500 time=120>
note_on channel=0 note=57 velocity=0 time=0
note_on channel=0 note=61 velocity=0 time=0
note_on channel=0 note=76 velocity=0 time=0
note_on channel=0 note=78 velocity=55 time=0
control_change channel=0 control=64 value=0 time=21
note_on channel=0 note=78 velocity=0 time=39
note_on channel=0 note=76 velocity=50 time=0
<meta message set_tempo tempo=882353 time=60>
note_on channel=0 note=76 velocity=0 time=0
note_on channel=0 note=74 velocity=58 time=0
note_on channel=0 note=74 velocity=0 time=60
note_on channel=0 note=73 velocity=56 time=0
note_on channel=0 note=73 velocity=0 time=60
note_on channel=0 note=71 velocity=54 time=0
note_on channel=0 note=71 velocity=0 time=60
note_on channel=0 note=69 velocity=53 time=0
<meta message set_tempo tempo=1071429 time=60>
note_on channel=0 note=69 velocity=0 time=0
note_on channel=0 note=76 velocity=63 time=0
note_on channel=0 note=47 velocity=52 time=0
note_on channel=0 note=50 velocity=52 time=0
control_change channel=0 control=64 value=127 time=11
<meta message set_tempo tempo=952381 time=109>
note_on channel=0 note=50 velocity=0 time=0
note_on channel=0 note=47 velocity=0 time=0
note_on channel=0 note=76 velocity=0 time=0
note_on channel=0 note=74 velocity=63 time=0
<meta message set_tempo tempo=983607 time=120>
note_on channel=0 note=59 velocity=45 time=0
note_on channel=0 note=62 velocity=45 time=0
control_change channel=0 control=64 value=0 time=71
<meta message set_tempo tempo=895522 time=49>
note_on channel=0 note=62 velocity=0 time=0
note_on channel=0 note=59 velocity=0 time=0
note_on channel=0 note=74 velocity=0 time=0
note_on channel=0 note=78 velocity=55 time=0
note_on channel=0 note=78 velocity=0 time=60
note_on channel=0 note=76 velocity=50 time=0
note_on channel=0 note=76 velocity=0 time=60
note_on channel=0 note=74 velocity=58 time=0
note_on channel=0 note=74 velocity=0 time=60
note_on channel=0 note=73 velocity=56 time=0
note_on channel=0 note=73 velocity=0 time=60
note_on channel=0 note=71 velocity=54 time=0
note_on channel=0 note=71 velocity=0 time=60
note_on channel=0 note=69 velocity=53 time=0
<meta message set_tempo tempo=1000000 time=60>
note_on channel=0 note=69 velocity=0 time=0
note_on channel=0 note=69 velocity=62 time=0
note_on channel=0 note=61 velocity=37 time=0
note_on channel=0 note=64 velocity=43 time=0
control_change channel=0 control=64 value=127 time=0
<meta message set_tempo tempo=1016949 time=240>
note_on channel=0 note=64 velocity=0 time=0
note_on channel=0 note=61 velocity=0 time=0
note_on channel=0 note=69 velocity=0 time=0
note_on channel=0 note=68 velocity=58 time=0
note_on channel=0 note=62 velocity=42 time=0
note_on channel=0 note=59 velocity=35 time=0
control_change channel=0 control=64 value=0 time=11
control_change channel=0 control=64 value=127 time=69
<meta message set_tempo tempo=1111111 time=160>
note_on channel=0 note=59 velocity=0 time=0
note_on channel=0 note=62 velocity=0 time=0
note_on channel=0 note=68 velocity=0 time=0
note_on channel=0 note=63 velocity=50 time=0
note_on channel=0 note=69 velocity=59 time=0
note_on channel=0 note=57 velocity=36 time=0
note_on channel=0 note=61 velocity=43 time=0
control_change channel=0 control=64 value=0 time=11
control_change channel=0 control=64 value=127 time=138
note_on channel=0 note=61 velocity=0 time=91
note_on channel=0 note=63 velocity=0 time=0
note_on channel=0 note=69 velocity=0 time=0
note_on channel=0 note=57 velocity=0 time=0
note_on channel=0 note=64 velocity=53 time=0
note_on channel=0 note=69 velocity=53 time=0
note_on channel=0 note=73 velocity=63 time=0
note_on channel=0 note=52 velocity=42 time=0
note_on channel=0 note=57 velocity=42 time=0
note_on channel=0 note=61 velocity=50 time=0
control_change channel=0 control=64 value=0 time=10
control_change channel=0 control=64 value=127 time=110
note_on channel=0 note=61 velocity=0 time=360
note_on channel=0 note=69 velocity=0 time=0
note_on channel=0 note=73 velocity=0 time=0
note_on channel=0 note=57 velocity=0 time=0
note_on channel=0 note=71 velocity=47 time=0
note_on channel=0 note=68 velocity=39 time=0
note_on channel=0 note=59 velocity=38 time=0
note_on channel=0 note=56 velocity=32 time=0
control_change channel=0 control=64 value=0 time=10
<meta message set_tempo tempo=1000000 time=230>
note_on channel=0 note=56 velocity=0 time=0
note_on channel=0 note=64 velocity=0 time=0
note_on channel=0 note=71 velocity=0 time=0
note_on channel=0 note=52 velocity=0 time=0
note_on channel=0 note=59 velocity=0 time=0
note_on channel=0 note=68 velocity=0 time=0
note_on channel=0 note=73 velocity=49 time=0
note_on channel=0 note=69 velocity=49 time=0
note_on channel=0 note=57 velocity=66 time=0
note_on channel=0 note=45 velocity=53 time=0
control_change channel=0 control=64 value=127 time=57
note_on channel=0 note=69 velocity=0 time=63
note_on channel=0 note=73 velocity=0 time=0
note_on channel=0 note=64 velocity=49 time=0
<meta message set_tempo tempo=895522 time=120>
note_on channel=0 note=64 velocity=0 time=0
note_on channel=0 note=57 velocity=0 time=0
note_on channel=0 note=45 velocity=0 time=0
note_on channel=0 note=85 velocity=56 time=0
note_on channel=0 note=73 velocity=43 time=0
note_on channel=0 note=69 velocity=43 time=0
note_on channel=0 note=81 velocity=47 time=0
<meta message set_tempo tempo=909091 time=120>
note_on channel=0 note=69 velocity=0 time=0
note_on channel=0 note=73 velocity=0 time=0
note_on channel=0 note=64 velocity=48 time=0
<meta message set_tempo tempo=833333 time=120>
note_on channel=0 note=64 velocity=0 time=0
note_on channel=0 note=85 velocity=0 time=0
note_on channel=0 note=81 velocity=0 time=0
note_on channel=0 note=83 velocity=48 time=0
note_on channel=0 note=71 velocity=44 time=0
note_on channel=0 note=86 velocity=57 time=0
note_on channel=0 note=74 velocity=44 time=0
<meta message set_tempo tempo=869565 time=120>
note_on channel=0 note=74 velocity=0 time=0
note_on channel=0 note=71 velocity=0 time=0
note_on channel=0 note=64 velocity=49 time=0
<meta message set_tempo tempo=810811 time=120>
note_on channel=0 note=64 velocity=0 time=0
note_on channel=0 note=86 velocity=0 time=0
note_on channel=0 note=83 velocity=0 time=0
note_on channel=0 note=76 velocity=45 time=0
note_on channel=0 note=85 velocity=50 time=0
note_on channel=0 note=88 velocity=59 time=0
note_on channel=0 note=73 velocity=45 time=0
<meta message set_tempo tempo=769231 time=120>
note_on channel=0 note=73 velocity=0 time=0
note_on channel=0 note=76 velocity=0 time=0
note_on channel=0 note=64 velocity=49 time=0
<meta message set_tempo tempo=800000 time=110>
note_on channel=0 note=64 velocity=0 time=10
note_on channel=0 note=88 velocity=0 time=0
note_on channel=0 note=85 velocity=0 time=0
note_on channel=0 note=83 velocity=48 time=0
note_on channel=0 note=86 velocity=57 time=0
note_on channel=0 note=71 velocity=44 time=0
note_on channel=0 note=74 velocity=44 time=0
<meta message set_tempo tempo=833333 time=120>
note_on channel=0 note=74 velocity=0 time=0
note_on channel=0 note=71 velocity=0 time=0
note_on channel=0 note=64 velocity=48 time=0
<meta message set_tempo tempo=857143 time=120>
note_on channel=0 note=64 velocity=0 time=0
note_on channel=0 note=86 velocity=0 time=0
note_on channel=0 note=83 velocity=0 time=0
note_on channel=0 note=81 velocity=47 time=0
note_on channel=0 note=69 velocity=43 time=0
note_on channel=0 note=85 velocity=56 time=0
note_on channel=0 note=73 velocity=43 time=0
<meta message set_tempo tempo=882353 time=120>
note_on channel=0 note=73 velocity=0 time=0
note_on channel=0 note=69 velocity=0 time=0
note_on channel=0 note=64 velocity=47 time=0
<meta message set_tempo tempo=895522 time=120>
note_on channel=0 note=64 velocity=0 time=0
note_on channel=0 note=85 velocity=0 time=0
note_on channel=0 note=81 velocity=0 time=0
note_on channel=0 note=71 velocity=49 time=0
note_on channel=0 note=68 velocity=49 time=0
note_on channel=0 note=52 velocity=66 time=0
note_on channel=0 note=40 velocity=53 time=0
control_change channel=0 control=64 value=0 time=6
control_change channel=0 control=64 value=127 time=79
note_on channel=0 note=68 velocity=0 time=35
note_on channel=0 note=71 velocity=0 time=0
note_on channel=0 note=64 velocity=49 time=0
<meta message set_tempo tempo=821918 time=120>
note_on channel=0 note=64 velocity=0 time=0
note_on channel=0 note=52 velocity=0 time=0
note_on channel=0 note=40 velocity=0 time=0
note_on channel=0 note=83 velocity=56 time=0
note_on channel=0 note=71 velocity=43 time=0
note_on channel=0 note=80 velocity=47 time=0
note_on channel=0 note=68 velocity=43 time=0
<meta message set_tempo tempo=845070 time=120>
note_on channel=0 note=68 velocity=0 time=0
note_on channel=0 note=71 velocity=0 time=0
note_on channel=0 note=64 velocity=48 time=0
<meta message set_tempo tempo=810811 time=120>
note_on channel=0 note=64 velocity=0 time=0
note_on channel=0 note=80 velocity=0 time=0
note_on channel=0 note=83 velocity=0 time=0
note_on channel=0 note=69 velocity=44 time=0
note_on channel=0 note=85 velocity=57 time=0
note_on channel=0 note=81 velocity=48 time=0
note_on channel=0 note=73 velocity=44 time=0
<meta message set_tempo tempo=833333 time=120>
note_on channel=0 note=73 velocity=0 time=0
note_on channel=0 note=69 velocity=0 time=0
note_on channel=0 note=64 velocity=49 time=0
<meta message set_tempo tempo=800000 time=120>
note_on channel=0 note=64 velocity=0 time=0
note_on channel=0 note=81 velocity=0 time=0
note_on channel=0 note=85 velocity=0 time=0
note_on channel=0 note=86 velocity=59 time=0
note_on channel=0 note=83 velocity=50 time=0
note_on channel=0 note=71 velocity=45 time=0
note_on channel=0 note=74 velocity=45 time=0
<meta message set_tempo tempo=779221 time=120>
note_on channel=0 note=74 velocity=0 time=0
note_on channel=0 note=71 velocity=0 time=0
note_on channel=0 note=64 velocity=49 time=0
<meta message set_tempo tempo=800000 time=120>
note_on channel=0 note=64 velocity=0 time=0
note_on channel=0 note=83 velocity=0 time=0
note_on channel=0 note=86 velocity=0 time=0
note_on channel=0 note=73 velocity=44 time=0
note_on channel=0 note=81 velocity=48 time=0
note_on channel=0 note=85 velocity=57 time=0
note_on channel=0 note=69 velocity=44 time=0
<meta message set_tempo tempo=845070 time=120>
note_on channel=0 note=69 velocity=0 time=0
note_on channel=0 note=73 velocity=0 time=0
note_on channel=0 note=64 velocity=48 time=0
<meta message set_tempo tempo=882353 time=120>
note_on channel=0 note=64 velocity=0 time=0
note_on channel=0 note=85 velocity=0 time=0
note_on channel=0 note=81 velocity=0 time=0
note_on channel=0 note=68 velocity=43 time=0
note_on channel=0 note=71 velocity=43 time=0
note_on channel=0 note=80 velocity=47 time=0
note_on channel=0 note=83 velocity=56 time=0
note_on channel=0 note=71 velocity=0 time=120
note_on channel=0 note=68 velocity=0 time=0
note_on channel=0 note=64 velocity=47 time=0
<meta message set_tempo tempo=821918 time=120>
note_on channel=0 note=64 velocity=0 time=0
note_on channel=0 note=80 velocity=0 time=0
note_on channel=0 note=83 velocity=0 time=0
note_on channel=0 note=69 velocity=53 time=0
note_on channel=0 note=64 velocity=53 time=0
note_on channel=0 note=45 velocity=53 time=0
note_on channel=0 note=57 velocity=63 time=0
control_change channel=0 control=64 value=0 time=6
control_change channel=0 control=64 value=127 time=86
<meta message set_tempo tempo=833333 time=28>
note_on channel=0 note=64 velocity=0 time=0
note_on channel=0 note=69 velocity=0 time=0
note_on channel=0 note=61 velocity=49 time=0
<meta message set_tempo tempo=810811 time=120>
note_on channel=0 note=61 velocity=0 time=0
note_on channel=0 note=45 velocity=0 time=0
note_on channel=0 note=57 velocity=0 time=0
note_on channel=0 note=81 velocity=58 time=0
note_on channel=0 note=73 velocity=48 time=0
note_on channel=0 note=69 velocity=44 time=0
note_on channel=0 note=64 velocity=44 time=0
<meta message set_tempo tempo=857143 time=120>
note_on channel=0 note=64 velocity=0 time=0
note_on channel=0 note=69 velocity=0 time=0
note_on channel=0 note=61 velocity=49 time=0
<meta message set_tempo tempo=821918 time=120>
note_on channel=0 note=61 velocity=0 time=0
note_on channel=0 note=73 velocity=0 time=0
note_on channel=0 note=81 velocity=0 time=0
note_on channel=0 note=76 velocity=48 time=0
note_on channel=0 note=71 velocity=53 time=0
note_on channel=0 note=83 velocity=58 time=0
note_on channel=0 note=68 velocity=53 time=0
<meta message set_tempo tempo=857143 time=120>
note_on channel=0 note=68 velocity=0 time=0
note_on channel=0 note=71 velocity=0 time=0
note_on channel=0 note=64 velocity=49 time=0
<meta message set_tempo tempo=821918 time=120>
note_on channel=0 note=64 velocity=0 time=0
note_on channel=0 note=83 velocity=0 time=0
note_on channel=0 note=76 velocity=0 time=0
note_on channel=0 note=73 velocity=54 time=0
note_on channel=0 note=85 velocity=60 time=0
note_on channel=0 note=81 velocity=50 time=0
note_on channel=0 note=69 velocity=54 time=0
control_change channel=0 control=64 value=0 time=11
note_on channel=0 note=69 velocity=0 time=109
note_on channel=0 note=73 velocity=0 time=0
note_on channel=0 note=64 velocity=50 time=0
control_change channel=0 control=64 value=127 time=7
<meta message set_tempo tempo=845070 time=113>
note_on channel=0 note=64 velocity=0 time=0
note_on channel=0 note=81 velocity=0 time=0
note_on channel=0 note=85 velocity=0 time=0
note_on channel=0 note=73 velocity=46 time=0
note_on channel=0 note=69 velocity=46 time=0
note_on channel=0 note=54 velocity=63 time=0
note_on channel=0 note=42 velocity=52 time=0
<meta message set_tempo tempo=882353 time=120>
note_on channel=0 note=69 velocity=0 time=0
note_on channel=0 note=73 velocity=0 time=0
note_on channel=0 note=66 velocity=50 time=0
<meta message set_tempo tempo=833333 time=120>
note_on channel=0 note=66 velocity=0 time=0
note_on channel=0 note=54 velocity=0 time=0
note_on channel=0 note=42 velocity=0 time=0
note_on channel=0 note=71 velocity=49 time=0
note_on channel=0 note=74 velocity=49 time=0
note_on channel=0 note=50 velocity=58 time=0
note_on channel=0 note=38 velocity=47 time=0
<meta message set_tempo tempo=869565 time=120>
note_on channel=0 note=74 velocity=0 time=0
note_on channel=0 note=71 velocity=0 time=0
note_on channel=0 note=66 velocity=47 time=0
<meta message set_tempo tempo=833333 time=120>
note_on channel=0 note=66 velocity=0 time=0
note_on channel=0 note=50 velocity=0 time=0
note_on channel=0 note=38 velocity=0 time=0
note_on channel=0 note=73 velocity=49 time=0
note_on channel=0 note=69 velocity=49 time=0
note_on channel=0 note=40 velocity=58 time=0
note_on channel=0 note=52 velocity=69 time=0
control_change channel=0 control=64 value=0 time=7
control_change channel=0 control=64 value=127 time=50
note_on channel=0 note=69 velocity=0 time=63
note_on channel=0 note=73 velocity=0 time=0
note_on channel=0 note=64 velocity=54 time=0
<meta message set_tempo tempo=821918 time=120>
note_on channel=0 note=64 velocity=0 time=0
note_on channel=0 note=40 velocity=0 time=0
note_on channel=0 note=52 velocity=0 time=0
note_on channel=0 note=85 velocity=49 time=0
note_on channel=0 note=69 velocity=39 time=0
note_on channel=0 note=81 velocity=41 time=0
note_on channel=0 note=73 velocity=39 time=0
control_change channel=0 control=64 value=0 time=11
control_change channel=0 control=64 value=127 time=58
<meta message set_tempo tempo=857143 time=51>
note_on channel=0 note=73 velocity=0 time=0
note_on channel=0 note=69 velocity=0 time=0
note_on channel=0 note=64 velocity=44 time=0
<meta message set_tempo tempo=821918 time=120>
note_on channel=0 note=64 velocity=0 time=0
note_on channel=0 note=81 velocity=0 time=0
note_on channel=0 note=85 velocity=0 time=0
note_on channel=0 note=68 velocity=37 time=0
note_on channel=0 note=80 velocity=40 time=0
note_on channel=0 note=83 velocity=48 time=0
note_on channel=0 note=71 velocity=37 time=0
control_change channel=0 control=64 value=0 time=10
control_change channel=0 control=64 value=127 time=49
<meta message set_tempo tempo=869565 time=61>
note_on channel=0 note=71 velocity=0 time=0
note_on channel=0 note=68 velocity=0 time=0
note_on channel=0 note=64 velocity=40 time=0
<meta message set_tempo tempo=845070 time=120>
note_on channel=0 note=64 velocity=0 time=0
note_on channel=0 note=83 velocity=0 time=0
note_on channel=0 note=80 velocity=0 time=0
note_on channel=0 note=83 velocity=49 time=0
note_on channel=0 note=71 velocity=44 time=0
note_on channel=0 note=80 velocity=49 time=0
note_on channel=0 note=68 velocity=44 time=0
control_change channel=0 control=64 value=0 time=11
control_change channel=0 control=64 value=127 time=53
<meta message set_tempo tempo=895522 time=56>
note_on channel=0 note=68 velocity=0 time=0
note_on channel=0 note=71 velocity=0 time=0
note_on channel=0 note=64 velocity=46 time=0
<meta message set_tempo tempo=909091 time=120>
note_on channel=0 note=64 velocity=0 time=0
note_on channel=0 note=83 velocity=0 time=0
note_on channel=0 note=68 velocity=42 time=0
note_on channel=0 note=72 velocity=43 time=0
note_on channel=0 note=84 velocity=49 time=0
control_change channel=0 control=64 value=0 time=10
control_change channel=0 control=64 value=127 time=65
<meta message set_tempo tempo=937500 time=45>
note_on channel=0 note=72 velocity=0 time=0
note_on channel=0 note=68 velocity=0 time=0
note_on channel=0 note=64 velocity=45 time=0
<meta message set_tempo tempo=967742 time=120>
note_on channel=0 note=64 velocity=0 time=0
note_on channel=0 note=80 velocity=0 time=0
note_on channel=0 note=84 velocity=0 time=0
note_on channel=0 note=85 velocity=49 time=0
note_on channel=0 note=81 velocity=49 time=0
note_on channel=0 note=69 velocity=42 time=0
note_on channel=0 note=73 velocity=42 time=0
control_change channel=0 control=64 value=0 time=11
<meta message set_tempo tempo=1052632 time=49>
control_change channel=0 control=64 value=127 time=26
note_on channel=0 note=64 velocity=42 time=23
note_on channel=0 note=73 velocity=0 time=11
note_on channel=0 note=69 velocity=0 time=0
note_on channel=0 note=64 velocity=0 time=109
<meta message set_tempo tempo=869565 time=11>
note_on channel=0 note=81 velocity=0 time=0
note_on channel=0 note=85 velocity=0 time=0
note_on channel=0 note=73 velocity=60 time=0
note_on channel=0 note=69 velocity=60 time=0
note_on channel=0 note=45 velocity=60 time=0
note_on channel=0 note=57 velocity=72 time=0
control_change channel=0 control=64 value=0 time=6
control_change channel=0 control=64 value=127 time=93
<meta message set_tempo tempo=895522 time=21>
note_on channel=0 note=69 velocity=0 time=0
note_on channel=0 note=73 velocity=0 time=0
note_on channel=0 note=64 velocity=56 time=0
<meta message set_tempo tempo=810811 time=120>
note_on channel=0 note=64 velocity=0 time=0
note_on channel=0 note=45 velocity=0 time=0
note_on channel=0 note=57 velocity=0 time=0
note_on channel=0 note=73 velocity=50 time=0
note_on channel=0 note=85 velocity=66 time=0
note_on channel=0 note=69 velocity=50 time=0
note_on channel=0 note=81 velocity=55 time=0
<meta message set_tempo tempo=857143 time=120>
note_on channel=0 note=69 velocity=0 time=0
note_on channel=0 note=73 velocity=0 time=0
note_on channel=0 note=64 velocity=56 time=0
<meta message set_tempo tempo=821918 time=120>
note_on channel=0 note=64 velocity=0 time=0
note_on channel=0 note=85 velocity=0 time=0
note_on channel=0 note=81 velocity=0 time=0
note_on channel=0 note=71 velocity=60 time=0
note_on channel=0 note=83 velocity=55 time=0
note_on channel=0 note=86 velocity=66 time=0
note_on channel=0 note=74 velocity=60 time=0
<meta message set_tempo tempo=857143 time=120>
note_on channel=0 note=74 velocity=0 time=0
note_on channel=0 note=71 velocity=0 time=0
note_on channel=0 note=64 velocity=56 time=0
<meta message set_tempo tempo=821918 time=120>
note_on channel=0 note=64 velocity=0 time=0
note_on channel=0 note=86 velocity=0 time=0
note_on channel=0 note=83 velocity=0 time=0
note_on channel=0 note=88 velocity=69 time=0
note_on channel=0 note=73 velocity=62 time=0
note_on channel=0 note=85 velocity=57 time=0
note_on channel=0 note=76 velocity=62 time=0
control_change channel=0 control=64 value=0 time=11
note_on channel=0 note=76 velocity=0 time=109
note_on channel=0 note=73 velocity=0 time=0
note_on channel=0 note=69 velocity=57 time=0
control_change channel=0 control=64 value=127 time=28
<meta message set_tempo tempo=845070 time=92>
note_on channel=0 note=69 velocity=0 time=0
note_on channel=0 note=85 velocity=0 time=0
note_on channel=0 note=88 velocity=0 time=0
note_on channel=0 note=76 velocity=52 time=0
note_on channel=0 note=73 velocity=52 time=0
note_on channel=0 note=45 velocity=59 time=0
note_on channel=0 note=57 velocity=72 time=0
<meta message set_tempo tempo=882353 time=120>
note_on channel=0 note=73 velocity=0 time=0
note_on channel=0 note=76 velocity=0 time=0
note_on channel=0 note=69 velocity=57 time=0
<meta message set_tempo tempo=833333 time=120>
note_on channel=0 note=69 velocity=0 time=0
note_on channel=0 note=45 velocity=0 time=0
note_on channel=0 note=57 velocity=0 time=0
note_on channel=0 note=78 velocity=56 time=0
note_on channel=0 note=74 velocity=56 time=0
note_on channel=0 note=38 velocity=54 time=0
note_on channel=0 note=50 velocity=66 time=0
<meta message set_tempo tempo=869565 time=120>
note_on channel=0 note=74 velocity=0 time=0
note_on channel=0 note=78 velocity=0 time=0
note_on channel=0 note=69 velocity=54 time=0
<meta message set_tempo tempo=857143 time=120>
note_on channel=0 note=69 velocity=0 time=0
note_on channel=0 note=38 velocity=0 time=0
note_on channel=0 note=50 velocity=0 time=0
note_on channel=0 note=73 velocity=56 time=0
note_on channel=0 note=69 velocity=56 time=0
note_on channel=0 note=52 velocity=79 time=0
note_on channel=0 note=40 velocity=66 time=0
control_change channel=0 control=64 value=0 time=6
control_change channel=0 control=64 value=127 time=51
<meta message set_tempo tempo=895522 time=63>
note_on channel=0 note=69 velocity=0 time=0
note_on channel=0 note=73 velocity=0 time=0
note_on channel=0 note=64 velocity=62 time=0
<meta message set_tempo tempo=869565 time=120>
note_on channel=0 note=64 velocity=0 time=0
note_on channel=0 note=52 velocity=0 time=0
note_on channel=0 note=40 velocity=0 time=0
note_on channel=0 note=69 velocity=55 time=0
note_on channel=0 note=85 velocity=71 time=0
note_on channel=0 note=73 velocity=55 time=0
note_on channel=0 note=81 velocity=59 time=0
control_change channel=0 control=64 value=0 time=11
control_change channel=0 control=64 value=127 time=58
<meta message set_tempo tempo=909091 time=51>
note_on channel=0 note=73 velocity=0 time=0
note_on channel=0 note=69 velocity=0 time=0
note_on channel=0 note=64 velocity=59 time=0
<meta message set_tempo tempo=923077 time=120>
note_on channel=0 note=64 velocity=0 time=0
note_on channel=0 note=85 velocity=0 time=0
note_on channel=0 note=81 velocity=0 time=0
note_on channel=0 note=68 velocity=54 time=0
note_on channel=0 note=80 velocity=58 time=0
note_on channel=0 note=83 velocity=70 time=0
note_on channel=0 note=71 velocity=54 time=0
control_change channel=0 control=64 value=0 time=11
control_change channel=0 control=64 value=127 time=74
note_on channel=0 note=71 velocity=0 time=35
note_on channel=0 note=68 velocity=0 time=0
note_on channel=0 note=64 velocity=58 time=0
<meta message set_tempo tempo=1000000 time=120>
note_on channel=0 note=64 velocity=0 time=0
note_on channel=0 note=83 velocity=0 time=0
note_on channel=0 note=80 velocity=0 time=0
note_on channel=0 note=69 velocity=63 time=0
note_on channel=0 note=81 velocity=63 time=0
control_change channel=0 control=64 value=0 time=11
control_change channel=0 control=64 value=127 time=46
note_on channel=0 note=69 velocity=0 time=63
note_on channel=0 note=64 velocity=56 time=0
control_change channel=0 control=64 value=0 time=103
<meta message set_tempo tempo=1052632 time=17>
note_on channel=0 note=64 velocity=0 time=0
note_on channel=0 note=81 velocity=0 time=0
note_on channel=0 note=61 velocity=59 time=0
note_on channel=0 note=57 velocity=58 time=0
<meta message set_tempo tempo=1176471 time=120>
note_on channel=0 note=57 velocity=0 time=0
note_on channel=0 note=61 velocity=0 time=0
note_on channel=0 note=64 velocity=49 time=0
<meta message set_tempo tempo=1764706 time=120>
note_on channel=0 note=64 velocity=0 time=0
note_on channel=0 note=69 velocity=57 time=0
note_on channel=0 note=45 velocity=52 time=0
note_on channel=0 note=45 velocity=0 time=120
note_on channel=0 note=69 velocity=0 time=0
<meta message set_tempo tempo=923077 time=120>
note_on channel=0 note=76 velocity=54 time=0
note_on channel=0 note=57 velocity=42 time=0
control_change channel=0 control=64 value=127 time=39
<meta message set_tempo tempo=923077 time=81>
note_on channel=0 note=57 velocity=0 time=0
note_on channel=0 note=61 velocity=31 time=0
<meta message set_tempo tempo=952381 time=60>
<meta message set_tempo tempo=857143 time=60>
note_on channel=0 note=61 velocity=0 time=0
note_on channel=0 note=64 velocity=34 time=0
control_change channel=0 control=64 value=0 time=110
<meta message set_tempo tempo=983607 time=10>
note_on channel=0 note=64 velocity=0 time=0
note_on channel=0 note=76 velocity=0 time=0
note_on channel=0 note=78 velocity=54 time=0
note_on channel=0 note=61 velocity=32 time=0
<meta message set_tempo tempo=937500 time=60>
note_on channel=0 note=78 velocity=0 time=0
note_on channel=0 note=76 velocity=50 time=0
<meta message set_tempo tempo=857143 time=60>
note_on channel=0 note=76 velocity=0 time=0
note_on channel=0 note=61 velocity=0 time=0
note_on channel=0 note=74 velocity=55 time=0
note_on channel=0 note=64 velocity=34 time=0
note_on channel=0 note=74 velocity=0 time=60
note_on channel=0 note=73 velocity=54 time=0
<meta message set_tempo tempo=909091 time=60>
note_on channel=0 note=73 velocity=0 time=0
note_on channel=0 note=64 velocity=0 time=0
note_on channel=0 note=71 velocity=53 time=0
note_on channel=0 note=61 velocity=30 time=0
note_on channel=0 note=71 velocity=0 time=60
note_on channel=0 note=69 velocity=52 time=0
<meta message set_tempo tempo=1000000 time=60>
note_on channel=0 note=69 velocity=0 time=0
note_on channel=0 note=61 velocity=0 time=0
note_on channel=0 note=77 velocity=57 time=0
note_on channel=0 note=57 velocity=40 time=0
control_change channel=0 control=64 value=127 time=7
<meta message set_tempo tempo=923077 time=113>
note_on channel=0 note=57 velocity=0 time=0
note_on channel=0 note=77 velocity=0 time=0
note_on channel=0 note=78 velocity=54 time=0
note_on channel=0 note=62 velocity=30 time=0
control_change channel=0 control=64 value=0 time=3
control_change channel=0 control=64 value=127 time=36
note_on channel=0 note=78 velocity=0 time=72
<meta message set_tempo tempo=923077 time=9>
note_on channel=0 note=62 velocity=0 time=0
note_on channel=0 note=78 velocity=54 time=0
note_on channel=0 note=66 velocity=33 time=0
<meta message set_tempo tempo=967742 time=120>
note_on channel=0 note=66 velocity=0 time=0
note_on channel=0 note=78 velocity=0 time=0
note_on channel=0 note=62 velocity=31 time=0
<meta message set_tempo tempo=937500 time=120>
note_on channel=0 note=62 velocity=0 time=0
note_on channel=0 note=66 velocity=33 time=0
<meta message set_tempo tempo=1000000 time=120>
note_on channel=0 note=66 velocity=0 time=0
note_on channel=0 note=62 velocity=32 time=0
<meta message set_tempo tempo=952381 time=120>
note_on channel=0 note=62 velocity=0 time=0
note_on channel=0 note=81 velocity=58 time=0
note_on channel=0 note=57 velocity=40 time=0
control_change channel=0 control=64 value=0 time=4
control_change channel=0 control=64 value=127 time=48
note_on channel=0 note=57 velocity=0 time=68
note_on channel=0 note=81 velocity=0 time=0
note_on channel=0 note=80 velocity=55 time=0
note_on channel=0 note=62 velocity=31 time=0
<meta message set_tempo tempo=895522 time=120>
note_on channel=0 note=62 velocity=0 time=0
note_on channel=0 note=80 velocity=0 time=0
note_on channel=0 note=83 velocity=58 time=0
note_on channel=0 note=66 velocity=34 time=0
control_change channel=0 control=64 value=0 time=10
control_change channel=0 control=64 value=127 time=49
<meta message set_tempo tempo=937500 time=61>
note_on channel=0 note=66 velocity=0 time=0
note_on channel=0 note=83 velocity=0 time=0
note_on channel=0 note=81 velocity=58 time=0
note_on channel=0 note=62 velocity=34 time=0
note_on channel=0 note=62 velocity=0 time=120
note_on channel=0 note=81 velocity=0 time=0
note_on channel=0 note=80 velocity=59 time=0
note_on channel=0 note=66 velocity=39 time=0
note_on channel=0 note=66 velocity=0 time=120
note_on channel=0 note=80 velocity=0 time=0
note_on channel=0 note=78 velocity=60 time=0
note_on channel=0 note=62 velocity=33 time=0
<meta message set_tempo tempo=1176471 time=60>
<meta message set_tempo tempo=952381 time=60>
note_on channel=0 note=62 velocity=0 time=0
note_on channel=0 note=78 velocity=0 time=0
note_on channel=0 note=75 velocity=62 time=0
note_on channel=0 note=57 velocity=43 time=0
control_change channel=0 control=64 value=0 time=5
control_change channel=0 control=64 value=127 time=60
note_on channel=0 note=57 velocity=0 time=55
note_on channel=0 note=75 velocity=0 time=0
note_on channel=0 note=76 velocity=57 time=0
note_on channel=0 note=61 velocity=33 time=0
note_on channel=0 note=76 velocity=0 time=112
<meta message set_tempo tempo=1016949 time=8>
note_on channel=0 note=61 velocity=0 time=0
note_on channel=0 note=76 velocity=57 time=0
note_on channel=0 note=64 velocity=33 time=0
control_change channel=0 control=64 value=0 time=11
control_change channel=0 control=64 value=127 time=54
note_on channel=0 note=64 velocity=0 time=55
note_on channel=0 note=76 velocity=0 time=0
note_on channel=0 note=61 velocity=31 time=0
note_on channel=0 note=61 velocity=0 time=120
note_on channel=0 note=64 velocity=33 time=0
note_on channel=0 note=64 velocity=0 time=120
note_on channel=0 note=61 velocity=31 time=0
<meta message set_tempo tempo=937500 time=120>
note_on channel=0 note=61 velocity=0 time=0
note_on channel=0 note=76 velocity=63 time=0
note_on channel=0 note=49 velocity=52 time=0
note_on channel=0 note=45 velocity=52 time=0
control_change channel=0 control=64 value=0 time=7
control_change channel=0 control=64 value=127 time=46
<meta message set_tempo tempo=869565 time=67>
note_on channel=0 note=45 velocity=0 time=0
note_on channel=0 note=49 velocity=0 time=0
<meta message set_tempo tempo=1000000 time=120>
note_on channel=0 note=61 velocity=45 time=0
note_on channel=0 note=57 velocity=45 time=0
<meta message set_tempo tempo=937500 time=120>
note_on channel=0 note=57 velocity=0 time=0
note_on channel=0 note=61 velocity=0 time=0
note_on channel=0 note=76 velocity=0 time=0
note_on channel=0 note=78 velocity=55 time=0
control_change channel=0 control=64 value=0 time=21
note_on channel=0 note=78 velocity=0 time=39
note_on channel=0 note=76 velocity=50 time=0
<meta message set_tempo tempo=882353 time=60>
note_on channel=0 note=76 velocity=0 time=0
note_on channel=0 note=74 velocity=58 time=0
note_on channel=0 note=74 velocity=0 time=60
note_on channel=0 note=73 velocity=56 time=0
note_on channel=0 note=73 velocity=0 time=60
note_on channel=0 note=71 velocity=54 time=0
note_on channel=0 note=71 velocity=0 time=60
note_on channel=0 note=69 velocity=53 time=0
<meta message set_tempo tempo=1071429 time=60>
note_on channel=0 note=69 velocity=0 time=0
note_on channel=0 note=76 velocity=63 time=0
note_on channel=0 note=50 velocity=52 time=0
note_on channel=0 note=47 velocity=52 time=0
control_change channel=0 control=64 value=127 time=11
<meta message set_tempo tempo=952381 time=109>
note_on channel=0 note=47 velocity=0 time=0
note_on channel=0 note=50 velocity=0 time=0
note_on channel=0 note=76 velocity=0 time=0
note_on channel=0 note=74 velocity=63 time=0
<meta message set_tempo tempo=983607 time=120>
note_on channel=0 note=62 velocity=45 time=0
note_on channel=0 note=59 velocity=45 time=0
control_change channel=0 control=64 value=0 time=71
<meta message set_tempo tempo=895522 time=49>
note_on channel=0 note=59 velocity=0 time=0
note_on channel=0 note=62 velocity=0 time=0
note_on channel=0 note=74 velocity=0 time=0
note_on channel=0 note=78 velocity=55 time=0
note_on channel=0 note=78 velocity=0 time=60
note_on channel=0 note=76 velocity=50 time=0
note_on channel=0 note=76 velocity=0 time=60
note_on channel=0 note=74 velocity=58 time=0
note_on channel=0 note=74 velocity=0 time=60
note_on channel=0 note=73 velocity=56 time=0
note_on channel=0 note=73 velocity=0 time=60
note_on channel=0 note=71 velocity=54 time=0
note_on channel=0 note=71 velocity=0 time=60
note_on channel=0 note=69 velocity=53 time=0
<meta message set_tempo tempo=1000000 time=60>
note_on channel=0 note=69 velocity=0 time=0
note_on channel=0 note=69 velocity=62 time=0
note_on channel=0 note=61 velocity=37 time=0
note_on channel=0 note=64 velocity=43 time=0
control_change channel=0 control=64 value=127 time=0
<meta message set_tempo tempo=1016949 time=240>
note_on channel=0 note=64 velocity=0 time=0
note_on channel=0 note=61 velocity=0 time=0
note_on channel=0 note=69 velocity=0 time=0
note_on channel=0 note=68 velocity=58 time=0
note_on channel=0 note=59 velocity=35 time=0
note_on channel=0 note=62 velocity=42 time=0
control_change channel=0 control=64 value=0 time=10
control_change channel=0 control=64 value=127 time=70
<meta message set_tempo tempo=1111111 time=160>
note_on channel=0 note=62 velocity=0 time=0
note_on channel=0 note=59 velocity=0 time=0
note_on channel=0 note=68 velocity=0 time=0
note_on channel=0 note=63 velocity=50 time=0
note_on channel=0 note=69 velocity=59 time=0
note_on channel=0 note=61 velocity=43 time=0
note_on channel=0 note=57 velocity=36 time=0
control_change channel=0 control=64 value=0 time=10
control_change channel=0 control=64 value=127 time=139
note_on channel=0 note=57 velocity=0 time=91
note_on channel=0 note=63 velocity=0 time=0
note_on channel=0 note=69 velocity=0 time=0
note_on channel=0 note=61 velocity=0 time=0
note_on channel=0 note=73 velocity=63 time=0
note_on channel=0 note=64 velocity=53 time=0
note_on channel=0 note=69 velocity=53 time=0
note_on channel=0 note=52 velocity=42 time=0
note_on channel=0 note=61 velocity=50 time=0
note_on channel=0 note=57 velocity=42 time=0
control_change channel=0 control=64 value=0 time=10
control_change channel=0 control=64 value=127 time=190
note_on channel=0 note=57 velocity=0 time=280
note_on channel=0 note=73 velocity=0 time=0
note_on channel=0 note=69 velocity=0 time=0
note_on channel=0 note=61 velocity=0 time=0
note_on channel=0 note=71 velocity=47 time=0
note_on channel=0 note=68 velocity=39 time=0
note_on channel=0 note=59 velocity=38 time=0
note_on channel=0 note=56 velocity=32 time=0
control_change channel=0 control=64 value=0 time=10
note_on channel=0 note=56 velocity=0 time=230
note_on channel=0 note=64 velocity=0 time=0
note_on channel=0 note=71 velocity=0 time=0
note_on channel=0 note=52 velocity=0 time=0
note_on channel=0 note=59 velocity=0 time=0
note_on channel=0 note=68 velocity=0 time=0
note_on channel=0 note=73 velocity=49 time=0
note_on channel=0 note=69 velocity=49 time=0
note_on channel=0 note=57 velocity=66 time=0
note_on channel=0 note=45 velocity=53 time=0
control_change channel=0 control=64 value=127 time=57
note_on channel=0 note=69 velocity=0 time=63
note_on channel=0 note=73 velocity=0 time=0
note_on channel=0 note=64 velocity=49 time=0
<meta message set_tempo tempo=895522 time=120>
note_on channel=0 note=64 velocity=0 time=0
note_on channel=0 note=57 velocity=0 time=0
note_on channel=0 note=45 velocity=0 time=0
note_on channel=0 note=85 velocity=56 time=0
note_on channel=0 note=73 velocity=43 time=0
note_on channel=0 note=81 velocity=47 time=0
note_on channel=0 note=69 velocity=43 time=0
<meta message set_tempo tempo=923077 time=120>
note_on channel=0 note=69 velocity=0 time=0
note_on channel=0 note=73 velocity=0 time=0
note_on channel=0 note=64 velocity=48 time=0
<meta message set_tempo tempo=833333 time=120>
note_on channel=0 note=64 velocity=0 time=0
note_on channel=0 note=81 velocity=0 time=0
note_on channel=0 note=85 velocity=0 time=0
note_on channel=0 note=86 velocity=57 time=0
note_on channel=0 note=83 velocity=48 time=0
note_on channel=0 note=74 velocity=44 time=0
note_on channel=0 note=71 velocity=44 time=0
<meta message set_tempo tempo=857143 time=120>
note_on channel=0 note=71 velocity=0 time=0
note_on channel=0 note=74 velocity=0 time=0
note_on channel=0 note=64 velocity=49 time=0
<meta message set_tempo tempo=810811 time=120>
note_on channel=0 note=64 velocity=0 time=0
note_on channel=0 note=83 velocity=0 time=0
note_on channel=0 note=86 velocity=0 time=0
note_on channel=0 note=88 velocity=59 time=0
note_on channel=0 note=85 velocity=50 time=0
note_on channel=0 note=76 velocity=45 time=0
note_on channel=0 note=73 velocity=45 time=0
<meta message set_tempo tempo=769231 time=120>
note_on channel=0 note=73 velocity=0 time=0
note_on channel=0 note=76 velocity=0 time=0
note_on channel=0 note=64 velocity=49 time=0
<meta message set_tempo tempo=800000 time=110>
note_on channel=0 note=64 velocity=0 time=10
note_on channel=0 note=85 velocity=0 time=0
note_on channel=0 note=88 velocity=0 time=0
note_on channel=0 note=74 velocity=44 time=0
note_on channel=0 note=71 velocity=44 time=0
note_on channel=0 note=83 velocity=48 time=0
note_on channel=0 note=86 velocity=57 time=0
<meta message set_tempo tempo=833333 time=120>
note_on channel=0 note=71 velocity=0 time=0
note_on channel=0 note=74 velocity=0 time=0
note_on channel=0 note=64 velocity=48 time=0
<meta message set_tempo tempo=857143 time=120>
note_on channel=0 note=64 velocity=0 time=0
note_on channel=0 note=83 velocity=0 time=0
note_on channel=0 note=86 velocity=0 time=0
note_on channel=0 note=73 velocity=43 time=0
note_on channel=0 note=85 velocity=56 time=0
note_on channel=0 note=69 velocity=43 time=0
note_on channel=0 note=81 velocity=47 time=0
<meta message set_tempo tempo=882353 time=120>
note_on channel=0 note=69 velocity=0 time=0
note_on channel=0 note=73 velocity=0 time=0
note_on channel=0 note=64 velocity=47 time=0
<meta message set_tempo tempo=895522 time=120>
note_on channel=0 note=64 velocity=0 time=0
note_on channel=0 note=85 velocity=0 time=0
note_on channel=0 note=81 velocity=0 time=0
note_on channel=0 note=68 velocity=49 time=0
note_on channel=0 note=71 velocity=49 time=0
note_on channel=0 note=40 velocity=53 time=0
note_on channel=0 note=52 velocity=66 time=0
control_change channel=0 control=64 value=0 time=8
control_change channel=0 control=64 value=127 time=91
note_on channel=0 note=71 velocity=0 time=21
note_on channel=0 note=68 velocity=0 time=0
note_on channel=0 note=64 velocity=49 time=0
<meta message set_tempo tempo=821918 time=120>
note_on channel=0 note=64 velocity=0 time=0
note_on channel=0 note=40 velocity=0 time=0
note_on channel=0 note=52 velocity=0 time=0
note_on channel=0 note=83 velocity=56 time=0
note_on channel=0 note=68 velocity=43 time=0
note_on channel=0 note=80 velocity=47 time=0
note_on channel=0 note=71 velocity=43 time=0
<meta message set_tempo tempo=845070 time=120>
note_on channel=0 note=71 velocity=0 time=0
note_on channel=0 note=68 velocity=0 time=0
note_on channel=0 note=64 velocity=48 time=0
<meta message set_tempo tempo=810811 time=120>
note_on channel=0 note=64 velocity=0 time=0
note_on channel=0 note=80 velocity=0 time=0
note_on channel=0 note=83 velocity=0 time=0
note_on channel=0 note=69 velocity=44 time=0
note_on channel=0 note=81 velocity=48 time=0
note_on channel=0 note=85 velocity=57 time=0
note_on channel=0 note=73 velocity=44 time=0
<meta message set_tempo tempo=833333 time=120>
note_on channel=0 note=73 velocity=0 time=0
note_on channel=0 note=69 velocity=0 time=0
note_on channel=0 note=64 velocity=49 time=0
<meta message set_tempo tempo=800000 time=120>
note_on channel=0 note=64 velocity=0 time=0
note_on channel=0 note=85 velocity=0 time=0
note_on channel=0 note=81 velocity=0 time=0
note_on channel=0 note=83 velocity=50 time=0
note_on channel=0 note=74 velocity=45 time=0
note_on channel=0 note=86 velocity=59 time=0
note_on channel=0 note=71 velocity=45 time=0
<meta message set_tempo tempo=779221 time=120>
note_on channel=0 note=71 velocity=0 time=0
note_on channel=0 note=74 velocity=0 time=0
note_on channel=0 note=64 velocity=49 time=0
<meta message set_tempo tempo=800000 time=120>
note_on channel=0 note=64 velocity=0 time=0
note_on channel=0 note=86 velocity=0 time=0
note_on channel=0 note=83 velocity=0 time=0
note_on channel=0 note=85 velocity=57 time=0
note_on channel=0 note=81 velocity=48 time=0
note_on channel=0 note=69 velocity=44 time=0
note_on channel=0 note=73 velocity=44 time=0
<meta message set_tempo tempo=845070 time=120>
note_on channel=0 note=73 velocity=0 time=0
note_on channel=0 note=69 velocity=0 time=0
note_on channel=0 note=64 velocity=48 time=0
<meta message set_tempo tempo=882353 time=120>
note_on channel=0 note=64 velocity=0 time=0
note_on channel=0 note=81 velocity=0 time=0
note_on channel=0 note=85 velocity=0 time=0
note_on channel=0 note=80 velocity=47 time=0
note_on channel=0 note=71 velocity=43 time=0
note_on channel=0 note=68 velocity=43 time=0
note_on channel=0 note=83 velocity=56 time=0
note_on channel=0 note=68 velocity=0 time=120
note_on channel=0 note=71 velocity=0 time=0
note_on channel=0 note=64 velocity=47 time=0
<meta message set_tempo tempo=821918 time=120>
note_on channel=0 note=64 velocity=0 time=0
note_on channel=0 note=80 velocity=0 time=0
note_on channel=0 note=83 velocity=0 time=0
note_on channel=0 note=64 velocity=53 time=0
note_on channel=0 note=69 velocity=53 time=0
note_on channel=0 note=57 velocity=63 time=0
note_on channel=0 note=45 velocity=53 time=0
control_change channel=0 control=64 value=0 time=8
<meta message set_tempo tempo=833333 time=112>
note_on channel=0 note=69 velocity=0 time=0
note_on channel=0 note=64 velocity=0 time=0
note_on channel=0 note=61 velocity=49 time=0
control_change channel=0 control=64 value=127 time=0
<meta message set_tempo tempo=810811 time=120>
note_on channel=0 note=61 velocity=0 time=0
note_on channel=0 note=57 velocity=0 time=0
note_on channel=0 note=45 velocity=0 time=0
note_on channel=0 note=69 velocity=44 time=0
note_on channel=0 note=81 velocity=58 time=0
note_on channel=0 note=73 velocity=48 time=0
note_on channel=0 note=64 velocity=44 time=0
<meta message set_tempo tempo=857143 time=120>
note_on channel=0 note=64 velocity=0 time=0
note_on channel=0 note=69 velocity=0 time=0
note_on channel=0 note=61 velocity=49 time=0
<meta message set_tempo tempo=821918 time=120>
note_on channel=0 note=61 velocity=0 time=0
note_on channel=0 note=73 velocity=0 time=0
note_on channel=0 note=81 velocity=0 time=0
note_on channel=0 note=68 velocity=53 time=0
note_on channel=0 note=71 velocity=53 time=0
note_on channel=0 note=76 velocity=48 time=0
note_on channel=0 note=83 velocity=58 time=0
<meta message set_tempo tempo=857143 time=120>
note_on channel=0 note=71 velocity=0 time=0
note_on channel=0 note=68 velocity=0 time=0
note_on channel=0 note=64 velocity=49 time=0
<meta message set_tempo tempo=821918 time=120>
note_on channel=0 note=64 velocity=0 time=0
note_on channel=0 note=76 velocity=0 time=0
note_on channel=0 note=83 velocity=0 time=0
note_on channel=0 note=69 velocity=54 time=0
note_on channel=0 note=85 velocity=60 time=0
note_on channel=0 note=73 velocity=54 time=0
note_on channel=0 note=81 velocity=50 time=0
control_change channel=0 control=64 value=0 time=10
note_on channel=0 note=73 velocity=0 time=110
note_on channel=0 note=69 velocity=0 time=0
note_on channel=0 note=64 velocity=50 time=0
control_change channel=0 control=64 value=127 time=0
<meta message set_tempo tempo=845070 time=120>
note_on channel=0 note=64 velocity=0 time=0
note_on channel=0 note=85 velocity=0 time=0
note_on channel=0 note=81 velocity=0 time=0
note_on channel=0 note=69 velocity=46 time=0
note_on channel=0 note=73 velocity=46 time=0
note_on channel=0 note=42 velocity=52 time=0
note_on channel=0 note=54 velocity=63 time=0
<meta message set_tempo tempo=882353 time=120>
note_on channel=0 note=73 velocity=0 time=0
note_on channel=0 note=69 velocity=0 time=0
note_on channel=0 note=66 velocity=50 time=0
<meta message set_tempo tempo=833333 time=120>
note_on channel=0 note=66 velocity=0 time=0
note_on channel=0 note=42 velocity=0 time=0
note_on channel=0 note=54 velocity=0 time=0
note_on channel=0 note=71 velocity=49 time=0
note_on channel=0 note=74 velocity=49 time=0
note_on channel=0 note=38 velocity=47 time=0
note_on channel=0 note=50 velocity=58 time=0
<meta message set_tempo tempo=869565 time=120>
note_on channel=0 note=74 velocity=0 time=0
note_on channel=0 note=71 velocity=0 time=0
note_on channel=0 note=66 velocity=47 time=0
<meta message set_tempo tempo=833333 time=120>
note_on channel=0 note=66 velocity=0 time=0
note_on channel=0 note=38 velocity=0 time=0
note_on channel=0 note=50 velocity=0 time=0
note_on channel=0 note=73 velocity=49 time=0
note_on channel=0 note=69 velocity=49 time=0
note_on channel=0 note=52 velocity=69 time=0
note_on channel=0 note=40 velocity=58 time=0
control_change channel=0 control=64 value=0 time=6
control_change channel=0 control=64 value=127 time=51
note_on channel=0 note=69 velocity=0 time=63
note_on channel=0 note=73 velocity=0 time=0
note_on channel=0 note=64 velocity=54 time=0
<meta message set_tempo tempo=821918 time=120>
note_on channel=0 note=64 velocity=0 time=0
note_on channel=0 note=52 velocity=0 time=0
note_on channel=0 note=40 velocity=0 time=0
note_on channel=0 note=81 velocity=41 time=0
note_on channel=0 note=69 velocity=39 time=0
note_on channel=0 note=73 velocity=39 time=0
note_on channel=0 note=85 velocity=49 time=0
control_change channel=0 control=64 value=0 time=11
control_change channel=0 control=64 value=127 time=58
<meta message set_tempo tempo=857143 time=51>
note_on channel=0 note=73 velocity=0 time=0
note_on channel=0 note=69 velocity=0 time=0
note_on channel=0 note=64 velocity=44 time=0
<meta message set_tempo tempo=821918 time=120>
note_on channel=0 note=64 velocity=0 time=0
note_on channel=0 note=81 velocity=0 time=0
note_on channel=0 note=85 velocity=0 time=0
note_on channel=0 note=80 velocity=40 time=0
note_on channel=0 note=71 velocity=37 time=0
note_on channel=0 note=68 velocity=37 time=0
note_on channel=0 note=83 velocity=48 time=0
control_change channel=0 control=64 value=0 time=10
control_change channel=0 control=64 value=127 time=65
<meta message set_tempo tempo=869565 time=45>
note_on channel=0 note=68 velocity=0 time=0
note_on channel=0 note=71 velocity=0 time=0
note_on channel=0 note=64 velocity=40 time=0
<meta message set_tempo tempo=845070 time=120>
note_on channel=0 note=64 velocity=0 time=0
note_on channel=0 note=80 velocity=0 time=0
note_on channel=0 note=83 velocity=0 time=0
note_on channel=0 note=68 velocity=44 time=0
note_on channel=0 note=71 velocity=44 time=0
note_on channel=0 note=83 velocity=49 time=0
note_on channel=0 note=80 velocity=49 time=0
control_change channel=0 control=64 value=0 time=12
control_change channel=0 control=64 value=127 time=57
<meta message set_tempo tempo=895522 time=51>
note_on channel=0 note=71 velocity=0 time=0
note_on channel=0 note=68 velocity=0 time=0
note_on channel=0 note=64 velocity=46 time=0
<meta message set_tempo tempo=909091 time=120>
note_on channel=0 note=64 velocity=0 time=0
note_on channel=0 note=83 velocity=0 time=0
note_on channel=0 note=84 velocity=49 time=0
note_on channel=0 note=68 velocity=42 time=0
note_on channel=0 note=72 velocity=43 time=0
control_change channel=0 control=64 value=0 time=10
control_change channel=0 control=64 value=127 time=65
<meta message set_tempo tempo=937500 time=45>
note_on channel=0 note=72 velocity=0 time=0
note_on channel=0 note=68 velocity=0 time=0
note_on channel=0 note=64 velocity=45 time=0
<meta message set_tempo tempo=967742 time=120>
note_on channel=0 note=64 velocity=0 time=0
note_on channel=0 note=84 velocity=0 time=0
note_on channel=0 note=80 velocity=0 time=0
note_on channel=0 note=73 velocity=42 time=0
note_on channel=0 note=85 velocity=49 time=0
note_on channel=0 note=69 velocity=42 time=0
note_on channel=0 note=81 velocity=49 time=0
control_change channel=0 control=64 value=0 time=11
<meta message set_tempo tempo=1052632 time=49>
control_change channel=0 control=64 value=127 time=26
note_on channel=0 note=64 velocity=42 time=23
note_on channel=0 note=69 velocity=0 time=11
note_on channel=0 note=73 velocity=0 time=0
note_on channel=0 note=64 velocity=0 time=109
<meta message set_tempo tempo=869565 time=11>
note_on channel=0 note=81 velocity=0 time=0
note_on channel=0 note=85 velocity=0 time=0
note_on channel=0 note=73 velocity=60 time=0
note_on channel=0 note=69 velocity=60 time=0
note_on channel=0 note=45 velocity=60 time=0
note_on channel=0 note=57 velocity=72 time=0
control_change channel=0 control=64 value=0 time=10
control_change channel=0 control=64 value=127 time=89
<meta message set_tempo tempo=895522 time=21>
note_on channel=0 note=69 velocity=0 time=0
note_on channel=0 note=73 velocity=0 time=0
note_on channel=0 note=64 velocity=56 time=0
<meta message set_tempo tempo=810811 time=120>
note_on channel=0 note=64 velocity=0 time=0
note_on channel=0 note=45 velocity=0 time=0
note_on channel=0 note=57 velocity=0 time=0
note_on channel=0 note=85 velocity=66 time=0
note_on channel=0 note=73 velocity=50 time=0
note_on channel=0 note=69 velocity=50 time=0
note_on channel=0 note=81 velocity=55 time=0
<meta message set_tempo tempo=857143 time=120>
note_on channel=0 note=69 velocity=0 time=0
note_on channel=0 note=73 velocity=0 time=0
note_on channel=0 note=64 velocity=56 time=0
<meta message set_tempo tempo=821918 time=120>
note_on channel=0 note=64 velocity=0 time=0
note_on channel=0 note=85 velocity=0 time=0
note_on channel=0 note=81 velocity=0 time=0
note_on channel=0 note=86 velocity=66 time=0
note_on channel=0 note=74 velocity=60 time=0
note_on channel=0 note=83 velocity=55 time=0
note_on channel=0 note=71 velocity=60 time=0
<meta message set_tempo tempo=857143 time=120>
note_on channel=0 note=71 velocity=0 time=0
note_on channel=0 note=74 velocity=0 time=0
note_on channel=0 note=64 velocity=56 time=0
<meta message set_tempo tempo=821918 time=120>
note_on channel=0 note=64 velocity=0 time=0
note_on channel=0 note=83 velocity=0 time=0
note_on channel=0 note=86 velocity=0 time=0
note_on channel=0 note=88 velocity=69 time=0
note_on channel=0 note=76 velocity=62 time=0
note_on channel=0 note=85 velocity=57 time=0
note_on channel=0 note=73 velocity=62 time=0
control_change channel=0 control=64 value=0 time=11
control_change channel=0 control=64 value=127 time=88
note_on channel=0 note=73 velocity=0 time=21
note_on channel=0 note=76 velocity=0 time=0
note_on channel=0 note=69 velocity=57 time=0
<meta message set_tempo tempo=845070 time=120>
note_on channel=0 note=69 velocity=0 time=0
note_on channel=0 note=85 velocity=0 time=0
note_on channel=0 note=88 velocity=0 time=0
note_on channel=0 note=73 velocity=52 time=0
note_on channel=0 note=76 velocity=52 time=0
note_on channel=0 note=45 velocity=59 time=0
note_on channel=0 note=57 velocity=72 time=0
<meta message set_tempo tempo=882353 time=120>
note_on channel=0 note=76 velocity=0 time=0
note_on channel=0 note=73 velocity=0 time=0
note_on channel=0 note=69 velocity=57 time=0
<meta message set_tempo tempo=833333 time=120>
note_on channel=0 note=69 velocity=0 time=0
note_on channel=0 note=45 velocity=0 time=0
note_on channel=0 note=57 velocity=0 time=0
note_on channel=0 note=74 velocity=56 time=0
note_on channel=0 note=78 velocity=56 time=0
note_on channel=0 note=50 velocity=66 time=0
note_on channel=0 note=38 velocity=54 time=0
<meta message set_tempo tempo=869565 time=120>
note_on channel=0 note=78 velocity=0 time=0
note_on channel=0 note=74 velocity=0 time=0
note_on channel=0 note=69 velocity=54 time=0
<meta message set_tempo tempo=857143 time=120>
note_on channel=0 note=69 velocity=0 time=0
note_on channel=0 note=50 velocity=0 time=0
note_on channel=0 note=38 velocity=0 time=0
note_on channel=0 note=73 velocity=56 time=0
note_on channel=0 note=69 velocity=56 time=0
note_on channel=0 note=52 velocity=79 time=0
note_on channel=0 note=40 velocity=66 time=0
control_change channel=0 control=64 value=0 time=12
control_change channel=0 control=64 value=127 time=74
<meta message set_tempo tempo=895522 time=34>
note_on channel=0 note=69 velocity=0 time=0
note_on channel=0 note=73 velocity=0 time=0
note_on channel=0 note=64 velocity=62 time=0
<meta message set_tempo tempo=895522 time=120>
note_on channel=0 note=64 velocity=0 time=0
note_on channel=0 note=52 velocity=0 time=0
note_on channel=0 note=40 velocity=0 time=0
note_on channel=0 note=85 velocity=71 time=0
note_on channel=0 note=69 velocity=55 time=0
note_on channel=0 note=81 velocity=59 time=0
note_on channel=0 note=73 velocity=55 time=0
control_change channel=0 control=64 value=0 time=11
control_change channel=0 control=64 value=127 time=57
<meta message set_tempo tempo=952381 time=52>
note_on channel=0 note=73 velocity=0 time=0
note_on channel=0 note=69 velocity=0 time=0
note_on channel=0 note=64 velocity=59 time=0
<meta message set_tempo tempo=967742 time=120>
note_on channel=0 note=64 velocity=0 time=0
note_on channel=0 note=81 velocity=0 time=0
note_on channel=0 note=85 velocity=0 time=0
note_on channel=0 note=71 velocity=54 time=0
note_on channel=0 note=80 velocity=58 time=0
note_on channel=0 note=68 velocity=54 time=0
note_on channel=0 note=83 velocity=70 time=0
control_change channel=0 control=64 value=0 time=12
control_change channel=0 control=64 value=127 time=59
note_on channel=0 note=68 velocity=0 time=49
note_on channel=0 note=71 velocity=0 time=0
note_on channel=0 note=64 velocity=58 time=0
<meta message set_tempo tempo=1153846 time=120>
note_on channel=0 note=64 velocity=0 time=0
note_on channel=0 note=80 velocity=0 time=0
note_on channel=0 note=83 velocity=0 time=0
note_on channel=0 note=69 velocity=63 time=0
note_on channel=0 note=81 velocity=63 time=0
control_change channel=0 control=64 value=0 time=13
control_change channel=0 control=64 value=127 time=86
note_on channel=0 note=69 velocity=0 time=21
note_on channel=0 note=64 velocity=56 time=0
control_change channel=0 control=64 value=0 time=103
<meta message set_tempo tempo=1363636 time=17>
note_on channel=0 note=64 velocity=0 time=0
note_on channel=0 note=81 velocity=0 time=0
note_on channel=0 note=61 velocity=59 time=0
note_on channel=0 note=57 velocity=58 time=0
<meta message set_tempo tempo=1538462 time=120>
note_on channel=0 note=57 velocity=0 time=0
note_on channel=0 note=61 velocity=0 time=0
note_on channel=0 note=64 velocity=49 time=0
<meta message set_tempo tempo=1764706 time=120>
note_on channel=0 note=64 velocity=0 time=0
note_on channel=0 note=69 velocity=57 time=0
note_on channel=0 note=45 velocity=52 time=0
note_on channel=0 note=45 velocity=0 time=120
note_on channel=0 note=69 velocity=0 time=0
<meta message time_signature numerator=6 denominator=4 clocks_per_click=24 notated_32nd_notes_per_beat=8 time=1560>
<meta message set_tempo tempo=1129944 time=0>
<meta message marker text='Var V' time=0>
note_on channel=0 note=73 velocity=50 time=0
note_on channel=0 note=57 velocity=43 time=0
control_change channel=0 control=64 value=127 time=0
note_on channel=0 note=57 velocity=0 time=120
note_on channel=0 note=64 velocity=26 time=0
note_on channel=0 note=64 velocity=0 time=120
note_on channel=0 note=61 velocity=30 time=0
note_on channel=0 note=61 velocity=0 time=120
note_on channel=0 note=64 velocity=21 time=0
<meta message set_tempo tempo=1071429 time=120>
note_on channel=0 note=64 velocity=0 time=0
note_on channel=0 note=73 velocity=0 time=0
note_on channel=0 note=73 velocity=50 time=0
note_on channel=0 note=57 velocity=36 time=0
note_on channel=0 note=57 velocity=0 time=120
note_on channel=0 note=64 velocity=29 time=0
<meta message set_tempo tempo=1034483 time=120>
note_on channel=0 note=64 velocity=0 time=0
note_on channel=0 note=61 velocity=30 time=0
note_on channel=0 note=61 velocity=0 time=120
note_on channel=0 note=64 velocity=28 time=0
<meta message set_tempo tempo=967742 time=120>
note_on channel=0 note=64 velocity=0 time=0
note_on channel=0 note=57 velocity=38 time=0
note_on channel=0 note=57 velocity=0 time=120
note_on channel=0 note=64 velocity=31 time=0
<meta message set_tempo tempo=1052632 time=120>
note_on channel=0 note=64 velocity=0 time=0
note_on channel=0 note=73 velocity=0 time=0
note_on channel=0 note=74 velocity=53 time=0
note_on channel=0 note=59 velocity=33 time=0
<meta message set_tempo tempo=1153846 time=120>
note_on channel=0 note=59 velocity=0 time=0
note_on channel=0 note=64 velocity=35 time=0
<meta message set_tempo tempo=1052632 time=120>
note_on channel=0 note=64 velocity=0 time=0
note_on channel=0 note=74 velocity=0 time=0
note_on channel=0 note=78 velocity=56 time=0
note_on channel=0 note=61 velocity=41 time=0
control_change channel=0 control=64 value=0 time=6
control_change channel=0 control=64 value=127 time=54
note_on channel=0 note=61 velocity=0 time=60
note_on channel=0 note=64 velocity=30 time=0
note_on channel=0 note=64 velocity=0 time=120
note_on channel=0 note=78 velocity=0 time=0
note_on channel=0 note=76 velocity=50 time=0
note_on channel=0 note=57 velocity=30 time=0
control_change channel=0 control=64 value=0 time=21
note_on channel=0 note=57 velocity=0 time=99
note_on channel=0 note=64 velocity=30 time=0
<meta message set_tempo tempo=983607 time=120>
note_on channel=0 note=64 velocity=0 time=0
note_on channel=0 note=76 velocity=0 time=0
note_on channel=0 note=61 velocity=36 time=0
control_change channel=0 control=64 value=127 time=64
note_on channel=0 note=61 velocity=0 time=56
note_on channel=0 note=64 velocity=25 time=0
<meta message set_tempo tempo=1090909 time=120>
note_on channel=0 note=64 velocity=0 time=0
note_on channel=0 note=76 velocity=50 time=0
note_on channel=0 note=57 velocity=29 time=0
note_on channel=0 note=57 velocity=0 time=120
note_on channel=0 note=64 velocity=27 time=0
<meta message set_tempo tempo=1016949 time=120>
note_on channel=0 note=64 velocity=0 time=0
note_on channel=0 note=76 velocity=0 time=0
note_on channel=0 note=78 velocity=54 time=0
note_on channel=0 note=61 velocity=36 time=0
control_change channel=0 control=64 value=0 time=10
note_on channel=0 note=61 velocity=0 time=110
note_on channel=0 note=78 velocity=0 time=0
note_on channel=0 note=76 velocity=50 time=0
note_on channel=0 note=64 velocity=30 time=0
control_change channel=0 control=64 value=127 time=0
note_on channel=0 note=64 velocity=0 time=120
note_on channel=0 note=76 velocity=0 time=0
note_on channel=0 note=74 velocity=50 time=0
note_on channel=0 note=57 velocity=30 time=0
<meta message set_tempo tempo=1132075 time=120>
note_on channel=0 note=57 velocity=0 time=0
note_on channel=0 note=74 velocity=0 time=0
note_on channel=0 note=73 velocity=50 time=0
note_on channel=0 note=64 velocity=24 time=0
note_on channel=0 note=73 velocity=0 time=111
<meta message set_tempo tempo=1071429 time=9>
note_on channel=0 note=64 velocity=0 time=0
note_on channel=0 note=73 velocity=54 time=0
note_on channel=0 note=56 velocity=38 time=0
control_change channel=0 control=64 value=0 time=10
control_change channel=0 control=64 value=127 time=53
note_on channel=0 note=56 velocity=0 time=57
note_on channel=0 note=64 velocity=23 time=0
<meta message set_tempo tempo=1052632 time=120>
note_on channel=0 note=64 velocity=0 time=0
note_on channel=0 note=73 velocity=0 time=0
note_on channel=0 note=71 velocity=50 time=0
note_on channel=0 note=63 velocity=25 time=0
control_change channel=0 control=64 value=0 time=9
control_change channel=0 control=64 value=127 time=60
note_on channel=0 note=63 velocity=0 time=51
note_on channel=0 note=64 velocity=23 time=0
note_on channel=0 note=71 velocity=0 time=114
<meta message set_tempo tempo=1016949 time=6>
note_on channel=0 note=64 velocity=0 time=0
note_on channel=0 note=71 velocity=50 time=0
note_on channel=0 note=56 velocity=36 time=0
control_change channel=0 control=64 value=0 time=11
control_change channel=0 control=64 value=127 time=69
note_on channel=0 note=56 velocity=0 time=40
note_on channel=0 note=64 velocity=25 time=0
<meta message set_tempo tempo=1000000 time=120>
note_on channel=0 note=64 velocity=0 time=0
note_on channel=0 note=63 velocity=28 time=0
note_on channel=0 note=63 velocity=0 time=120
note_on channel=0 note=64 velocity=25 time=0
<meta message set_tempo tempo=952381 time=120>
note_on channel=0 note=64 velocity=0 time=0
note_on channel=0 note=56 velocity=41 time=0
note_on channel=0 note=56 velocity=0 time=120
note_on channel=0 note=64 velocity=29 time=0
<meta message set_tempo tempo=1016949 time=120>
note_on channel=0 note=64 velocity=0 time=0
note_on channel=0 note=71 velocity=0 time=0
note_on channel=0 note=73 velocity=54 time=0
note_on channel=0 note=57 velocity=32 time=0
<meta message set_tempo tempo=1090909 time=120>
note_on channel=0 note=57 velocity=0 time=0
note_on channel=0 note=64 velocity=29 time=0
<meta message set_tempo tempo=1071429 time=120>
note_on channel=0 note=64 velocity=0 time=0
note_on channel=0 note=73 velocity=0 time=0
note_on channel=0 note=76 velocity=57 time=0
note_on channel=0 note=58 velocity=40 time=0
control_change channel=0 control=64 value=0 time=9
control_change channel=0 control=64 value=127 time=60
note_on channel=0 note=58 velocity=0 time=51
note_on channel=0 note=64 velocity=28 time=0
<meta message set_tempo tempo=983607 time=120>
note_on channel=0 note=64 velocity=0 time=0
note_on channel=0 note=76 velocity=0 time=0
note_on channel=0 note=74 velocity=53 time=0
note_on channel=0 note=63 velocity=31 time=0
control_change channel=0 control=64 value=0 time=16
note_on channel=0 note=63 velocity=0 time=104
note_on channel=0 note=64 velocity=29 time=0
note_on channel=0 note=64 velocity=0 time=120
note_on channel=0 note=74 velocity=0 time=0
note_on channel=0 note=59 velocity=36 time=0
control_change channel=0 control=64 value=127 time=69
note_on channel=0 note=59 velocity=0 time=51
note_on channel=0 note=64 velocity=25 time=0
<meta message set_tempo tempo=1071429 time=120>
note_on channel=0 note=64 velocity=0 time=0
note_on channel=0 note=74 velocity=50 time=0
note_on channel=0 note=63 velocity=29 time=0
note_on channel=0 note=63 velocity=0 time=120
note_on channel=0 note=64 velocity=26 time=0
<meta message set_tempo tempo=1034483 time=120>
note_on channel=0 note=64 velocity=0 time=0
note_on channel=0 note=74 velocity=0 time=0
note_on channel=0 note=76 velocity=56 time=0
note_on channel=0 note=56 velocity=36 time=0
control_change channel=0 control=64 value=0 time=9
control_change channel=0 control=64 value=127 time=77
note_on channel=0 note=56 velocity=0 time=34
note_on channel=0 note=76 velocity=0 time=0
note_on channel=0 note=74 velocity=50 time=0
note_on channel=0 note=64 velocity=28 time=0
note_on channel=0 note=64 velocity=0 time=120
note_on channel=0 note=74 velocity=0 time=0
note_on channel=0 note=73 velocity=50 time=0
note_on channel=0 note=52 velocity=30 time=0
<meta message set_tempo tempo=1132075 time=120>
note_on channel=0 note=52 velocity=0 time=0
note_on channel=0 note=73 velocity=0 time=0
note_on channel=0 note=71 velocity=50 time=0
note_on channel=0 note=64 velocity=28 time=0
note_on channel=0 note=71 velocity=0 time=112
<meta message set_tempo tempo=1052632 time=8>
note_on channel=0 note=64 velocity=0 time=0
note_on channel=0 note=71 velocity=57 time=0
note_on channel=0 note=54 velocity=38 time=0
control_change channel=0 control=64 value=0 time=10
control_change channel=0 control=64 value=127 time=41
note_on channel=0 note=54 velocity=0 time=69
note_on channel=0 note=64 velocity=28 time=0
<meta message set_tempo tempo=1000000 time=120>
note_on channel=0 note=64 velocity=0 time=0
note_on channel=0 note=71 velocity=0 time=0
note_on channel=0 note=69 velocity=53 time=0
note_on channel=0 note=63 velocity=30 time=0
control_change channel=0 control=64 value=0 time=10
control_change channel=0 control=64 value=127 time=47
note_on channel=0 note=63 velocity=0 time=63
note_on channel=0 note=64 velocity=26 time=0
<meta message set_tempo tempo=952381 time=120>
note_on channel=0 note=64 velocity=0 time=0
note_on channel=0 note=69 velocity=0 time=0
note_on channel=0 note=54 velocity=40 time=0
control_change channel=0 control=64 value=0 time=4
note_on channel=0 note=69 velocity=53 time=116
<meta message set_tempo tempo=1016949 time=120>
note_on channel=0 note=69 velocity=0 time=0
note_on channel=0 note=68 velocity=56 time=0
<meta message set_tempo tempo=967742 time=120>
note_on channel=0 note=68 velocity=0 time=0
note_on channel=0 note=69 velocity=53 time=0
<meta message set_tempo tempo=983607 time=120>
note_on channel=0 note=69 velocity=0 time=0
note_on channel=0 note=54 velocity=0 time=0
note_on channel=0 note=71 velocity=58 time=0
note_on channel=0 note=71 velocity=0 time=120
note_on channel=0 note=69 velocity=55 time=0
<meta message set_tempo tempo=1034483 time=120>
note_on channel=0 note=69 velocity=0 time=0
note_on channel=0 note=74 velocity=62 time=0
note_on channel=0 note=74 velocity=0 time=120
note_on channel=0 note=73 velocity=58 time=0
<meta message set_tempo tempo=1071429 time=120>
note_on channel=0 note=73 velocity=0 time=0
note_on channel=0 note=70 velocity=63 time=0
note_on channel=0 note=56 velocity=43 time=0
control_change channel=0 control=64 value=127 time=7
<meta message set_tempo tempo=1016949 time=113>
note_on channel=0 note=56 velocity=0 time=0
note_on channel=0 note=64 velocity=34 time=0
note_on channel=0 note=64 velocity=0 time=120
note_on channel=0 note=70 velocity=0 time=0
note_on channel=0 note=71 velocity=58 time=0
note_on channel=0 note=63 velocity=34 time=0
control_change channel=0 control=64 value=0 time=7
control_change channel=0 control=64 value=127 time=56
note_on channel=0 note=63 velocity=0 time=57
note_on channel=0 note=64 velocity=34 time=0
<meta message set_tempo tempo=983607 time=120>
note_on channel=0 note=64 velocity=0 time=0
note_on channel=0 note=71 velocity=0 time=0
note_on channel=0 note=56 velocity=47 time=0
control_change channel=0 control=64 value=0 time=0
note_on channel=0 note=71 velocity=49 time=120
<meta message set_tempo tempo=937500 time=120>
note_on channel=0 note=71 velocity=0 time=0
note_on channel=0 note=70 velocity=53 time=0
note_on channel=0 note=70 velocity=0 time=120
note_on channel=0 note=71 velocity=49 time=0
<meta message set_tempo tempo=1000000 time=120>
note_on channel=0 note=71 velocity=0 time=0
note_on channel=0 note=56 velocity=0 time=0
note_on channel=0 note=73 velocity=53 time=0
note_on channel=0 note=73 velocity=0 time=120
note_on channel=0 note=71 velocity=49 time=0
<meta message set_tempo tempo=1034483 time=120>
note_on channel=0 note=71 velocity=0 time=0
note_on channel=0 note=76 velocity=53 time=0
note_on channel=0 note=76 velocity=0 time=120
note_on channel=0 note=74 velocity=49 time=0
<meta message set_tempo tempo=937647 time=120>
note_on channel=0 note=74 velocity=0 time=0
note_on channel=0 note=74 velocity=53 time=0
note_on channel=0 note=64 velocity=47 time=0
note_on channel=0 note=57 velocity=39 time=0
control_change channel=0 control=64 value=127 time=12
note_on channel=0 note=74 velocity=0 time=108
note_on channel=0 note=73 velocity=45 time=0
<meta message set_tempo tempo=983768 time=120>
note_on channel=0 note=73 velocity=0 time=0
note_on channel=0 note=72 velocity=49 time=0
note_on channel=0 note=72 velocity=0 time=120
note_on channel=0 note=73 velocity=46 time=0
<meta message set_tempo tempo=937647 time=120>
note_on channel=0 note=73 velocity=0 time=0
note_on channel=0 note=57 velocity=0 time=0
note_on channel=0 note=64 velocity=0 time=0
note_on channel=0 note=74 velocity=55 time=0
note_on channel=0 note=54 velocity=40 time=0
note_on channel=0 note=57 velocity=48 time=0
control_change channel=0 control=64 value=0 time=5
control_change channel=0 control=64 value=127 time=75
note_on channel=0 note=74 velocity=0 time=40
note_on channel=0 note=73 velocity=46 time=0
<meta message set_tempo tempo=1034483 time=120>
note_on channel=0 note=73 velocity=0 time=0
note_on channel=0 note=72 velocity=50 time=0
note_on channel=0 note=72 velocity=0 time=120
note_on channel=0 note=73 velocity=47 time=0
<meta message set_tempo tempo=923077 time=120>
note_on channel=0 note=73 velocity=0 time=0
note_on channel=0 note=57 velocity=0 time=0
note_on channel=0 note=54 velocity=0 time=0
note_on channel=0 note=76 velocity=59 time=0
note_on channel=0 note=50 velocity=43 time=0
note_on channel=0 note=59 velocity=51 time=0
control_change channel=0 control=64 value=0 time=11
note_on channel=0 note=76 velocity=0 time=109
note_on channel=0 note=74 velocity=51 time=0
control_change channel=0 control=64 value=127 time=0
<meta message set_tempo tempo=952381 time=120>
note_on channel=0 note=74 velocity=0 time=0
note_on channel=0 note=73 velocity=53 time=0
note_on channel=0 note=73 velocity=0 time=120
note_on channel=0 note=74 velocity=51 time=0
<meta message set_tempo tempo=937500 time=120>
note_on channel=0 note=74 velocity=0 time=0
note_on channel=0 note=59 velocity=0 time=0
note_on channel=0 note=50 velocity=0 time=0
note_on channel=0 note=73 velocity=62 time=0
note_on channel=0 note=56 velocity=52 time=0
note_on channel=0 note=52 velocity=44 time=0
control_change channel=0 control=64 value=0 time=29
note_on channel=0 note=73 velocity=0 time=91
note_on channel=0 note=71 velocity=52 time=0
<meta message set_tempo tempo=952381 time=120>
note_on channel=0 note=71 velocity=0 time=0
note_on channel=0 note=70 velocity=53 time=0
note_on channel=0 note=70 velocity=0 time=120
note_on channel=0 note=71 velocity=49 time=0
<meta message set_tempo tempo=952381 time=120>
note_on channel=0 note=71 velocity=0 time=0
note_on channel=0 note=52 velocity=0 time=0
note_on channel=0 note=56 velocity=0 time=0
note_on channel=0 note=69 velocity=63 time=0
note_on channel=0 note=69 velocity=0 time=120
note_on channel=0 note=68 velocity=50 time=0
note_on channel=0 note=68 velocity=0 time=120
note_on channel=0 note=67 velocity=54 time=0
note_on channel=0 note=67 velocity=0 time=120
note_on channel=0 note=68 velocity=51 time=0
<meta message set_tempo tempo=1089325 time=80>
<meta message set_tempo tempo=937500 time=38>
note_on channel=0 note=68 velocity=0 time=2
note_on channel=0 note=66 velocity=64 time=0
<meta message set_tempo tempo=952381 time=58>
<meta message set_tempo tempo=967742 time=40>
note_on channel=0 note=66 velocity=0 time=22
note_on channel=0 note=64 velocity=54 time=0
<meta message set_tempo tempo=983607 time=38>
<meta message set_tempo tempo=1000000 time=40>
note_on channel=0 note=64 velocity=0 time=42
note_on channel=0 note=63 velocity=56 time=0
<meta message set_tempo tempo=1016949 time=18>
<meta message set_tempo tempo=1034483 time=40>
<meta message set_tempo tempo=1052632 time=60>
note_on channel=0 note=63 velocity=0 time=2
note_on channel=0 note=64 velocity=54 time=0
<meta message set_tempo tempo=1071429 time=38>
<meta message set_tempo tempo=1090909 time=40>
<meta message set_tempo tempo=1143947 time=2>
<meta message set_tempo tempo=1090909 time=40>
note_on channel=0 note=64 velocity=0 time=0
note_on channel=0 note=73 velocity=71 time=0
note_on channel=0 note=69 velocity=71 time=0
note_on channel=0 note=45 velocity=64 time=0
control_change channel=0 control=64 value=127 time=35
note_on channel=0 note=45 velocity=0 time=85
note_on channel=0 note=57 velocity=48 time=0
note_on channel=0 note=57 velocity=0 time=90
<meta message set_tempo tempo=1052632 time=30>
note_on channel=0 note=69 velocity=0 time=0
note_on channel=0 note=73 velocity=0 time=0
note_on channel=0 note=69 velocity=65 time=0
note_on channel=0 note=73 velocity=65 time=0
note_on channel=0 note=57 velocity=51 time=0
note_on channel=0 note=57 velocity=0 time=90
note_on channel=0 note=57 velocity=49 time=30
note_on channel=0 note=57 velocity=0 time=90
<meta message set_tempo tempo=983607 time=30>
note_on channel=0 note=57 velocity=50 time=0
note_on channel=0 note=57 velocity=0 time=90
note_on channel=0 note=57 velocity=35 time=30
note_on channel=0 note=57 velocity=0 time=90
<meta message set_tempo tempo=1052632 time=30>
note_on channel=0 note=73 velocity=0 time=0
note_on channel=0 note=69 velocity=0 time=0
note_on channel=0 note=73 velocity=50 time=0
note_on channel=0 note=70 velocity=50 time=0
note_on channel=0 note=57 velocity=38 time=0
control_change channel=0 control=64 value=0 time=6
control_change channel=0 control=64 value=127 time=43
note_on channel=0 note=57 velocity=0 time=41
note_on channel=0 note=57 velocity=37 time=30
note_on channel=0 note=57 velocity=0 time=90
<meta message set_tempo tempo=967742 time=30>
note_on channel=0 note=70 velocity=0 time=0
note_on channel=0 note=73 velocity=0 time=0
note_on channel=0 note=74 velocity=50 time=0
note_on channel=0 note=71 velocity=50 time=0
note_on channel=0 note=57 velocity=42 time=0
control_change channel=0 control=64 value=0 time=10
control_change channel=0 control=64 value=127 time=42
note_on channel=0 note=57 velocity=0 time=38
note_on channel=0 note=57 velocity=37 time=30
note_on channel=0 note=57 velocity=0 time=90
note_on channel=0 note=71 velocity=0 time=30
note_on channel=0 note=74 velocity=0 time=0
note_on channel=0 note=72 velocity=50 time=0
note_on channel=0 note=75 velocity=50 time=0
note_on channel=0 note=57 velocity=40 time=0
control_change channel=0 control=64 value=0 time=9
control_change channel=0 control=64 value=127 time=60
note_on channel=0 note=57 velocity=0 time=21
note_on channel=0 note=57 velocity=37 time=30
note_on channel=0 note=57 velocity=0 time=90
<meta message set_tempo tempo=1115864 time=22>
<meta message set_tempo tempo=983607 time=8>
note_on channel=0 note=75 velocity=0 time=0
note_on channel=0 note=72 velocity=0 time=0
note_on channel=0 note=73 velocity=53 time=0
note_on channel=0 note=76 velocity=53 time=0
note_on channel=0 note=57 velocity=47 time=0
control_change channel=0 control=64 value=0 time=10
note_on channel=0 note=76 velocity=0 time=110
note_on channel=0 note=73 velocity=0 time=0
note_on channel=0 note=69 velocity=49 time=0
note_on channel=0 note=69 velocity=0 time=63
<meta message set_tempo tempo=983607 time=57>
note_on channel=0 note=71 velocity=50 time=0
note_on channel=0 note=71 velocity=0 time=63
note_on channel=0 note=73 velocity=51 time=57
note_on channel=0 note=73 velocity=0 time=63
<meta message set_tempo tempo=1102536 time=49>
<meta message set_tempo tempo=967742 time=8>
note_on channel=0 note=57 velocity=0 time=0
note_on channel=0 note=74 velocity=52 time=0
note_on channel=0 note=74 velocity=0 time=63
note_on channel=0 note=76 velocity=53 time=57
note_on channel=0 note=76 velocity=0 time=63
note_on channel=0 note=78 velocity=54 time=57
note_on channel=0 note=78 velocity=0 time=63
note_on channel=0 note=80 velocity=55 time=57
note_on channel=0 note=80 velocity=0 time=63
<meta message set_tempo tempo=1089325 time=17>
<meta message set_tempo tempo=1000000 time=40>
note_on channel=0 note=81 velocity=56 time=0
note_on channel=0 note=81 velocity=0 time=120
note_on channel=0 note=83 velocity=57 time=0
<meta message set_tempo tempo=1188354 time=120>
note_on channel=0 note=83 velocity=0 time=0
note_on channel=0 note=85 velocity=58 time=0
note_on channel=0 note=85 velocity=0 time=120
<meta message set_tempo tempo=1102536 time=120>
note_on channel=0 note=69 velocity=71 time=0
note_on channel=0 note=73 velocity=71 time=0
note_on channel=0 note=40 velocity=64 time=0
control_change channel=0 control=64 value=127 time=57
note_on channel=0 note=40 velocity=0 time=63
note_on channel=0 note=73 velocity=0 time=0
note_on channel=0 note=69 velocity=0 time=0
note_on channel=0 note=71 velocity=63 time=0
note_on channel=0 note=68 velocity=62 time=0
note_on channel=0 note=52 velocity=46 time=0
note_on channel=0 note=52 velocity=0 time=90
note_on channel=0 note=68 velocity=0 time=18
note_on channel=0 note=71 velocity=0 time=0
<meta message set_tempo tempo=1052632 time=12>
note_on channel=0 note=68 velocity=65 time=0
note_on channel=0 note=71 velocity=65 time=0
note_on channel=0 note=52 velocity=51 time=0
note_on channel=0 note=52 velocity=0 time=90
note_on channel=0 note=52 velocity=47 time=30
note_on channel=0 note=52 velocity=0 time=90
<meta message set_tempo tempo=983607 time=30>
note_on channel=0 note=52 velocity=50 time=0
note_on channel=0 note=52 velocity=0 time=90
note_on channel=0 note=52 velocity=36 time=30
note_on channel=0 note=52 velocity=0 time=90
<meta message set_tempo tempo=1052632 time=30>
note_on channel=0 note=71 velocity=0 time=0
note_on channel=0 note=68 velocity=0 time=0
note_on channel=0 note=71 velocity=50 time=0
note_on channel=0 note=68 velocity=50 time=0
note_on channel=0 note=52 velocity=40 time=0
note_on channel=0 note=52 velocity=0 time=90
note_on channel=0 note=52 velocity=36 time=30
note_on channel=0 note=52 velocity=0 time=90
<meta message set_tempo tempo=983607 time=30>
note_on channel=0 note=68 velocity=0 time=0
note_on channel=0 note=71 velocity=0 time=0
note_on channel=0 note=69 velocity=50 time=0
note_on channel=0 note=72 velocity=50 time=0
note_on channel=0 note=52 velocity=42 time=0
control_change channel=0 control=64 value=0 time=7
control_change channel=0 control=64 value=127 time=45
note_on channel=0 note=52 velocity=0 time=38
note_on channel=0 note=52 velocity=35 time=30
note_on channel=0 note=52 velocity=0 time=90
<meta message set_tempo tempo=1016949 time=30>
note_on channel=0 note=72 velocity=0 time=0
note_on channel=0 note=69 velocity=0 time=0
note_on channel=0 note=73 velocity=50 time=0
note_on channel=0 note=70 velocity=50 time=0
note_on channel=0 note=52 velocity=38 time=0
control_change channel=0 control=64 value=0 time=9
control_change channel=0 control=64 value=127 time=60
note_on channel=0 note=52 velocity=0 time=21
note_on channel=0 note=52 velocity=38 time=30
note_on channel=0 note=52 velocity=0 time=90
note_on channel=0 note=70 velocity=0 time=30
note_on channel=0 note=73 velocity=0 time=0
note_on channel=0 note=71 velocity=53 time=0
note_on channel=0 note=74 velocity=53 time=0
note_on channel=0 note=52 velocity=47 time=0
control_change channel=0 control=64 value=0 time=17
note_on channel=0 note=74 velocity=0 time=103
note_on channel=0 note=71 velocity=0 time=0
note_on channel=0 note=71 velocity=49 time=0
note_on channel=0 note=71 velocity=0 time=63
<meta message set_tempo tempo=1115864 time=33>
<meta message set_tempo tempo=1000000 time=24>
note_on channel=0 note=73 velocity=50 time=0
note_on channel=0 note=73 velocity=0 time=63
note_on channel=0 note=74 velocity=51 time=57
note_on channel=0 note=74 velocity=0 time=63
<meta message set_tempo tempo=983607 time=57>
note_on channel=0 note=52 velocity=0 time=0
note_on channel=0 note=76 velocity=52 time=0
note_on channel=0 note=76 velocity=0 time=63
note_on channel=0 note=78 velocity=53 time=57
note_on channel=0 note=78 velocity=0 time=63
note_on channel=0 note=80 velocity=54 time=57
note_on channel=0 note=80 velocity=0 time=63
note_on channel=0 note=81 velocity=55 time=57
note_on channel=0 note=81 velocity=0 time=63
<meta message set_tempo tempo=1000000 time=57>
note_on channel=0 note=83 velocity=56 time=0
note_on channel=0 note=83 velocity=0 time=120
note_on channel=0 note=85 velocity=57 time=0
<meta message set_tempo tempo=1132075 time=120>
note_on channel=0 note=85 velocity=0 time=0
note_on channel=0 note=86 velocity=58 time=0
note_on channel=0 note=86 velocity=0 time=120
<meta message set_tempo tempo=1000000 time=120>
note_on channel=0 note=71 velocity=57 time=0
note_on channel=0 note=71 velocity=0 time=120
note_on channel=0 note=69 velocity=53 time=0
note_on channel=0 note=69 velocity=0 time=108
<meta message set_tempo tempo=1016949 time=12>
note_on channel=0 note=69 velocity=53 time=0
<meta message set_tempo tempo=1000000 time=240>
note_on channel=0 note=64 velocity=40 time=0
note_on channel=0 note=54 velocity=40 time=0
control_change channel=0 control=64 value=127 time=46
note_on channel=0 note=69 velocity=0 time=74
note_on channel=0 note=69 velocity=53 time=0
<meta message set_tempo tempo=1034483 time=120>
note_on channel=0 note=69 velocity=0 time=0
note_on channel=0 note=74 velocity=56 time=0
<meta message set_tempo tempo=1000000 time=120>
note_on channel=0 note=74 velocity=0 time=0
note_on channel=0 note=73 velocity=53 time=0
<meta message set_tempo tempo=983607 time=120>
note_on channel=0 note=73 velocity=0 time=0
note_on channel=0 note=54 velocity=0 time=0
note_on channel=0 note=64 velocity=0 time=0
note_on channel=0 note=70 velocity=55 time=0
note_on channel=0 note=56 velocity=40 time=0
note_on channel=0 note=64 velocity=40 time=0
control_change channel=0 control=64 value=0 time=10
control_change channel=0 control=64 value=127 time=76
note_on channel=0 note=70 velocity=0 time=34
note_on channel=0 note=71 velocity=52 time=0
<meta message set_tempo tempo=1034483 time=120>
note_on channel=0 note=71 velocity=0 time=0
note_on channel=0 note=76 velocity=52 time=0
note_on channel=0 note=76 velocity=0 time=120
note_on channel=0 note=74 velocity=53 time=0
<meta message set_tempo tempo=983607 time=120>
note_on channel=0 note=74 velocity=0 time=0
note_on channel=0 note=64 velocity=0 time=0
note_on channel=0 note=56 velocity=0 time=0
note_on channel=0 note=72 velocity=58 time=0
note_on channel=0 note=57 velocity=40 time=0
note_on channel=0 note=64 velocity=40 time=0
control_change channel=0 control=64 value=0 time=5
note_on channel=0 note=72 velocity=0 time=115
note_on channel=0 note=73 velocity=53 time=0
<meta message set_tempo tempo=1034483 time=120>
note_on channel=0 note=73 velocity=0 time=0
note_on channel=0 note=81 velocity=54 time=0
control_change channel=0 control=64 value=127 time=60
note_on channel=0 note=81 velocity=0 time=30
note_on channel=0 note=81 velocity=55 time=30
note_on channel=0 note=81 velocity=0 time=90
note_on channel=0 note=64 velocity=0 time=30
note_on channel=0 note=57 velocity=0 time=0
note_on channel=0 note=81 velocity=57 time=0
note_on channel=0 note=81 velocity=0 time=90
note_on channel=0 note=81 velocity=55 time=30
note_on channel=0 note=81 velocity=0 time=90
<meta message set_tempo tempo=1071429 time=30>
note_on channel=0 note=81 velocity=55 time=0
note_on channel=0 note=81 velocity=0 time=90
<meta message set_tempo tempo=1132075 time=30>
note_on channel=0 note=81 velocity=55 time=0
note_on channel=0 note=81 velocity=0 time=90
<meta message set_tempo tempo=1071429 time=30>
note_on channel=0 note=81 velocity=58 time=0
note_on channel=0 note=59 velocity=47 time=0
note_on channel=0 note=50 velocity=39 time=0
note_on channel=0 note=54 velocity=39 time=0
note_on channel=0 note=81 velocity=0 time=120
note_on channel=0 note=78 velocity=52 time=0
note_on channel=0 note=78 velocity=0 time=120
note_on channel=0 note=74 velocity=54 time=0
note_on channel=0 note=74 velocity=0 time=120
note_on channel=0 note=71 velocity=52 time=0
<meta message set_tempo tempo=1153846 time=120>
note_on channel=0 note=71 velocity=0 time=0
note_on channel=0 note=54 velocity=0 time=0
note_on channel=0 note=50 velocity=0 time=0
note_on channel=0 note=59 velocity=0 time=0
note_on channel=0 note=76 velocity=59 time=0
note_on channel=0 note=52 velocity=39 time=0
note_on channel=0 note=57 velocity=39 time=0
note_on channel=0 note=61 velocity=47 time=0
control_change channel=0 control=64 value=0 time=10
control_change channel=0 control=64 value=127 time=76
note_on channel=0 note=76 velocity=0 time=34
note_on channel=0 note=78 velocity=54 time=0
note_on channel=0 note=78 velocity=0 time=40
note_on channel=0 note=76 velocity=54 time=0
note_on channel=0 note=76 velocity=0 time=40
note_on channel=0 note=75 velocity=54 time=0
note_on channel=0 note=75 velocity=0 time=40
note_on channel=0 note=76 velocity=59 time=0
<meta message set_tempo tempo=1188354 time=120>
note_on channel=0 note=76 velocity=0 time=0
note_on channel=0 note=78 velocity=56 time=0
<meta message set_tempo tempo=1158525 time=120>
note_on channel=0 note=78 velocity=0 time=0
note_on channel=0 note=69 velocity=58 time=0
control_change channel=0 control=64 value=0 time=11
control_change channel=0 control=64 value=127 time=64
<meta message set_tempo tempo=1236858 time=405>
note_on channel=0 note=61 velocity=0 time=0
note_on channel=0 note=57 velocity=0 time=0
note_on channel=0 note=62 velocity=40 time=0
note_on channel=0 note=59 velocity=30 time=0
<meta message set_tempo tempo=1307474 time=240>
note_on channel=0 note=69 velocity=0 time=0
note_on channel=0 note=68 velocity=53 time=0
note_on channel=0 note=73 velocity=53 time=0
<meta message set_tempo tempo=1551189 time=120>
note_on channel=0 note=73 velocity=0 time=0
note_on channel=0 note=71 velocity=50 time=0
<meta message set_tempo tempo=1476015 time=120>
note_on channel=0 note=71 velocity=0 time=0
note_on channel=0 note=68 velocity=0 time=0
note_on channel=0 note=59 velocity=0 time=0
note_on channel=0 note=62 velocity=0 time=0
note_on channel=0 note=52 velocity=0 time=0
note_on channel=0 note=64 velocity=45 time=0
note_on channel=0 note=71 velocity=53 time=0
note_on channel=0 note=68 velocity=45 time=0
note_on channel=0 note=57 velocity=28 time=0
note_on channel=0 note=62 velocity=34 time=0
control_change channel=0 control=64 value=0 time=5
control_change channel=0 control=64 value=127 time=81
<meta message set_tempo tempo=1304348 time=394>
note_on channel=0 note=62 velocity=0 time=0
note_on channel=0 note=68 velocity=0 time=0
note_on channel=0 note=71 velocity=0 time=0
note_on channel=0 note=69 velocity=44 time=0
note_on channel=0 note=61 velocity=30 time=0
control_change channel=0 control=64 value=0 time=11
control_change channel=0 control=64 value=127 time=49
note_on channel=0 note=69 velocity=0 time=180
control_change channel=0 control=64 value=0 time=74
note_on channel=0 note=64 velocity=43 time=106
<meta message set_tempo tempo=1090909 time=59>
note_on channel=0 note=64 velocity=0 time=1
note_on channel=0 note=61 velocity=0 time=0
note_on channel=0 note=64 velocity=0 time=0
note_on channel=0 note=57 velocity=0 time=0
note_on channel=0 note=66 velocity=46 time=0
note_on channel=0 note=66 velocity=0 time=60
note_on channel=0 note=69 velocity=42 time=0
<meta message set_tempo tempo=1071429 time=16>
note_on channel=0 note=69 velocity=0 time=44
note_on channel=0 note=68 velocity=46 time=0
<meta message set_tempo tempo=1052632 time=33>
note_on channel=0 note=68 velocity=0 time=27
note_on channel=0 note=71 velocity=44 time=0
<meta message set_tempo tempo=1034483 time=30>
note_on channel=0 note=71 velocity=0 time=30
note_on channel=0 note=69 velocity=44 time=0
note_on channel=0 note=69 velocity=0 time=60
note_on channel=0 note=73 velocity=40 time=0
<meta message set_tempo tempo=1052632 time=25>
<meta message set_tempo tempo=1052632 time=20>
note_on channel=0 note=73 velocity=0 time=15
note_on channel=0 note=71 velocity=44 time=0
<meta message set_tempo tempo=1071429 time=4>
<meta message set_tempo tempo=1090909 time=19>
<meta message set_tempo tempo=1276596 time=37>
note_on channel=0 note=71 velocity=0 time=0
note_on channel=0 note=74 velocity=41 time=0
<meta message set_tempo tempo=1129944 time=60>
note_on channel=0 note=74 velocity=0 time=0
note_on channel=0 note=73 velocity=50 time=0
note_on channel=0 note=57 velocity=43 time=0
control_change channel=0 control=64 value=127 time=64
note_on channel=0 note=57 velocity=0 time=56
note_on channel=0 note=64 velocity=26 time=0
note_on channel=0 note=64 velocity=0 time=120
note_on channel=0 note=61 velocity=30 time=0
note_on channel=0 note=61 velocity=0 time=120
note_on channel=0 note=64 velocity=25 time=0
<meta message set_tempo tempo=1071429 time=120>
note_on channel=0 note=64 velocity=0 time=0
note_on channel=0 note=73 velocity=0 time=0
note_on channel=0 note=73 velocity=50 time=0
note_on channel=0 note=57 velocity=42 time=0
note_on channel=0 note=57 velocity=0 time=120
note_on channel=0 note=64 velocity=29 time=0
<meta message set_tempo tempo=1034483 time=120>
note_on channel=0 note=64 velocity=0 time=0
note_on channel=0 note=61 velocity=32 time=0
note_on channel=0 note=61 velocity=0 time=120
note_on channel=0 note=64 velocity=29 time=0
<meta message set_tempo tempo=967742 time=120>
note_on channel=0 note=64 velocity=0 time=0
note_on channel=0 note=57 velocity=43 time=0
note_on channel=0 note=57 velocity=0 time=120
note_on channel=0 note=64 velocity=31 time=0
<meta message set_tempo tempo=1052632 time=120>
note_on channel=0 note=64 velocity=0 time=0
note_on channel=0 note=73 velocity=0 time=0
note_on channel=0 note=74 velocity=53 time=0
note_on channel=0 note=59 velocity=33 time=0
<meta message set_tempo tempo=1153846 time=120>
note_on channel=0 note=59 velocity=0 time=0
note_on channel=0 note=64 velocity=30 time=0
<meta message set_tempo tempo=1052632 time=120>
note_on channel=0 note=64 velocity=0 time=0
note_on channel=0 note=74 velocity=0 time=0
note_on channel=0 note=78 velocity=56 time=0
note_on channel=0 note=61 velocity=42 time=0
control_change channel=0 control=64 value=0 time=6
control_change channel=0 control=64 value=127 time=72
note_on channel=0 note=61 velocity=0 time=42
note_on channel=0 note=64 velocity=29 time=0
note_on channel=0 note=64 velocity=0 time=120
note_on channel=0 note=78 velocity=0 time=0
note_on channel=0 note=76 velocity=50 time=0
note_on channel=0 note=57 velocity=31 time=0
control_change channel=0 control=64 value=0 time=11
note_on channel=0 note=57 velocity=0 time=109
note_on channel=0 note=64 velocity=28 time=0
<meta message set_tempo tempo=983607 time=120>
note_on channel=0 note=64 velocity=0 time=0
note_on channel=0 note=76 velocity=0 time=0
note_on channel=0 note=61 velocity=36 time=0
control_change channel=0 control=64 value=127 time=64
note_on channel=0 note=61 velocity=0 time=56
note_on channel=0 note=64 velocity=26 time=0
<meta message set_tempo tempo=1090909 time=120>
note_on channel=0 note=64 velocity=0 time=0
note_on channel=0 note=76 velocity=50 time=0
note_on channel=0 note=57 velocity=29 time=0
note_on channel=0 note=57 velocity=0 time=120
note_on channel=0 note=64 velocity=26 time=0
<meta message set_tempo tempo=1016949 time=120>
note_on channel=0 note=64 velocity=0 time=0
note_on channel=0 note=76 velocity=0 time=0
note_on channel=0 note=78 velocity=54 time=0
note_on channel=0 note=61 velocity=36 time=0
control_change channel=0 control=64 value=0 time=10
control_change channel=0 control=64 value=127 time=82
note_on channel=0 note=61 velocity=0 time=28
note_on channel=0 note=78 velocity=0 time=0
note_on channel=0 note=76 velocity=50 time=0
note_on channel=0 note=64 velocity=28 time=0
note_on channel=0 note=64 velocity=0 time=120
note_on channel=0 note=76 velocity=0 time=0
note_on channel=0 note=74 velocity=50 time=0
note_on channel=0 note=57 velocity=30 time=0
<meta message set_tempo tempo=1132075 time=120>
note_on channel=0 note=57 velocity=0 time=0
note_on channel=0 note=74 velocity=0 time=0
note_on channel=0 note=73 velocity=50 time=0
note_on channel=0 note=64 velocity=26 time=0
note_on channel=0 note=73 velocity=0 time=108
<meta message set_tempo tempo=1071429 time=12>
note_on channel=0 note=64 velocity=0 time=0
note_on channel=0 note=73 velocity=54 time=0
note_on channel=0 note=56 velocity=38 time=0
control_change channel=0 control=64 value=0 time=12
control_change channel=0 control=64 value=127 time=63
note_on channel=0 note=56 velocity=0 time=45
note_on channel=0 note=64 velocity=22 time=0
<meta message set_tempo tempo=1052632 time=120>
note_on channel=0 note=64 velocity=0 time=0
note_on channel=0 note=73 velocity=0 time=0
note_on channel=0 note=71 velocity=50 time=0
note_on channel=0 note=63 velocity=27 time=0
control_change channel=0 control=64 value=0 time=8
control_change channel=0 control=64 value=127 time=61
note_on channel=0 note=63 velocity=0 time=51
note_on channel=0 note=64 velocity=23 time=0
note_on channel=0 note=71 velocity=0 time=112
<meta message set_tempo tempo=1016949 time=8>
note_on channel=0 note=64 velocity=0 time=0
note_on channel=0 note=71 velocity=50 time=0
note_on channel=0 note=56 velocity=36 time=0
control_change channel=0 control=64 value=0 time=11
control_change channel=0 control=64 value=127 time=69
note_on channel=0 note=56 velocity=0 time=40
note_on channel=0 note=64 velocity=26 time=0
<meta message set_tempo tempo=1000000 time=120>
note_on channel=0 note=64 velocity=0 time=0
note_on channel=0 note=63 velocity=30 time=0
note_on channel=0 note=63 velocity=0 time=120
note_on channel=0 note=64 velocity=29 time=0
<meta message set_tempo tempo=952381 time=120>
note_on channel=0 note=64 velocity=0 time=0
note_on channel=0 note=56 velocity=39 time=0
note_on channel=0 note=56 velocity=0 time=120
note_on channel=0 note=64 velocity=31 time=0
<meta message set_tempo tempo=1016949 time=120>
note_on channel=0 note=64 velocity=0 time=0
note_on channel=0 note=71 velocity=0 time=0
note_on channel=0 note=73 velocity=54 time=0
note_on channel=0 note=57 velocity=33 time=0
<meta message set_tempo tempo=1090909 time=120>
note_on channel=0 note=57 velocity=0 time=0
note_on channel=0 note=64 velocity=38 time=0
<meta message set_tempo tempo=1071429 time=120>
note_on channel=0 note=64 velocity=0 time=0
note_on channel=0 note=73 velocity=0 time=0
note_on channel=0 note=76 velocity=57 time=0
note_on channel=0 note=58 velocity=42 time=0
control_change channel=0 control=64 value=0 time=6
control_change channel=0 control=64 value=127 time=63
note_on channel=0 note=58 velocity=0 time=51
note_on channel=0 note=64 velocity=28 time=0
<meta message set_tempo tempo=983607 time=120>
note_on channel=0 note=64 velocity=0 time=0
note_on channel=0 note=76 velocity=0 time=0
note_on channel=0 note=74 velocity=53 time=0
note_on channel=0 note=63 velocity=31 time=0
control_change channel=0 control=64 value=0 time=5
note_on channel=0 note=63 velocity=0 time=115
note_on channel=0 note=64 velocity=28 time=0
note_on channel=0 note=64 velocity=0 time=120
note_on channel=0 note=74 velocity=0 time=0
note_on channel=0 note=59 velocity=36 time=0
control_change channel=0 control=64 value=127 time=69
note_on channel=0 note=59 velocity=0 time=51
note_on channel=0 note=64 velocity=27 time=0
<meta message set_tempo tempo=1071429 time=120>
note_on channel=0 note=64 velocity=0 time=0
note_on channel=0 note=74 velocity=50 time=0
note_on channel=0 note=63 velocity=29 time=0
note_on channel=0 note=63 velocity=0 time=120
note_on channel=0 note=64 velocity=27 time=0
<meta message set_tempo tempo=1034483 time=120>
note_on channel=0 note=64 velocity=0 time=0
note_on channel=0 note=74 velocity=0 time=0
note_on channel=0 note=76 velocity=56 time=0
note_on channel=0 note=56 velocity=36 time=0
control_change channel=0 control=64 value=0 time=11
note_on channel=0 note=56 velocity=0 time=109
note_on channel=0 note=76 velocity=0 time=0
note_on channel=0 note=74 velocity=50 time=0
note_on channel=0 note=64 velocity=28 time=0
control_change channel=0 control=64 value=127 time=6
note_on channel=0 note=64 velocity=0 time=114
note_on channel=0 note=74 velocity=0 time=0
note_on channel=0 note=73 velocity=50 time=0
note_on channel=0 note=52 velocity=30 time=0
<meta message set_tempo tempo=1132075 time=120>
note_on channel=0 note=52 velocity=0 time=0
note_on channel=0 note=73 velocity=0 time=0
note_on channel=0 note=71 velocity=50 time=0
note_on channel=0 note=64 velocity=28 time=0
note_on channel=0 note=71 velocity=0 time=108
<meta message set_tempo tempo=1052632 time=12>
note_on channel=0 note=64 velocity=0 time=0
note_on channel=0 note=71 velocity=57 time=0
note_on channel=0 note=54 velocity=38 time=0
control_change channel=0 control=64 value=0 time=10
control_change channel=0 control=64 value=127 time=41
note_on channel=0 note=54 velocity=0 time=69
note_on channel=0 note=64 velocity=29 time=0
<meta message set_tempo tempo=1000000 time=120>
note_on channel=0 note=64 velocity=0 time=0
note_on channel=0 note=71 velocity=0 time=0
note_on channel=0 note=69 velocity=53 time=0
note_on channel=0 note=63 velocity=30 time=0
control_change channel=0 control=64 value=0 time=9
control_change channel=0 control=64 value=127 time=48
note_on channel=0 note=63 velocity=0 time=63
note_on channel=0 note=64 velocity=28 time=0
<meta message set_tempo tempo=952381 time=120>
note_on channel=0 note=64 velocity=0 time=0
note_on channel=0 note=69 velocity=0 time=0
note_on channel=0 note=54 velocity=40 time=0
control_change channel=0 control=64 value=0 time=4
note_on channel=0 note=69 velocity=53 time=116
<meta message set_tempo tempo=1016949 time=120>
note_on channel=0 note=69 velocity=0 time=0
note_on channel=0 note=68 velocity=56 time=0
<meta message set_tempo tempo=967742 time=120>
note_on channel=0 note=68 velocity=0 time=0
note_on channel=0 note=69 velocity=53 time=0
<meta message set_tempo tempo=983607 time=120>
note_on channel=0 note=69 velocity=0 time=0
note_on channel=0 note=54 velocity=0 time=0
note_on channel=0 note=71 velocity=58 time=0
note_on channel=0 note=71 velocity=0 time=120
note_on channel=0 note=69 velocity=55 time=0
<meta message set_tempo tempo=1034483 time=120>
note_on channel=0 note=69 velocity=0 time=0
note_on channel=0 note=74 velocity=62 time=0
note_on channel=0 note=74 velocity=0 time=120
note_on channel=0 note=73 velocity=58 time=0
<meta message set_tempo tempo=1071429 time=120>
note_on channel=0 note=73 velocity=0 time=0
note_on channel=0 note=70 velocity=63 time=0
note_on channel=0 note=56 velocity=43 time=0
control_change channel=0 control=64 value=127 time=7
<meta message set_tempo tempo=1016949 time=113>
note_on channel=0 note=56 velocity=0 time=0
note_on channel=0 note=64 velocity=32 time=0
note_on channel=0 note=64 velocity=0 time=120
note_on channel=0 note=70 velocity=0 time=0
note_on channel=0 note=71 velocity=58 time=0
note_on channel=0 note=63 velocity=34 time=0
control_change channel=0 control=64 value=0 time=8
control_change channel=0 control=64 value=127 time=44
note_on channel=0 note=63 velocity=0 time=68
note_on channel=0 note=64 velocity=30 time=0
<meta message set_tempo tempo=983607 time=120>
note_on channel=0 note=64 velocity=0 time=0
note_on channel=0 note=71 velocity=0 time=0
note_on channel=0 note=56 velocity=47 time=0
control_change channel=0 control=64 value=0 time=0
note_on channel=0 note=71 velocity=49 time=120
<meta message set_tempo tempo=937500 time=120>
note_on channel=0 note=71 velocity=0 time=0
note_on channel=0 note=70 velocity=53 time=0
note_on channel=0 note=70 velocity=0 time=120
note_on channel=0 note=71 velocity=49 time=0
<meta message set_tempo tempo=1000000 time=120>
note_on channel=0 note=71 velocity=0 time=0
note_on channel=0 note=56 velocity=0 time=0
note_on channel=0 note=73 velocity=53 time=0
note_on channel=0 note=73 velocity=0 time=120
note_on channel=0 note=71 velocity=49 time=0
<meta message set_tempo tempo=1034483 time=120>
note_on channel=0 note=71 velocity=0 time=0
note_on channel=0 note=76 velocity=53 time=0
note_on channel=0 note=76 velocity=0 time=120
note_on channel=0 note=74 velocity=49 time=0
note_on channel=0 note=74 velocity=0 time=108
<meta message set_tempo tempo=952381 time=12>
note_on channel=0 note=74 velocity=53 time=0
note_on channel=0 note=57 velocity=35 time=0
note_on channel=0 note=64 velocity=42 time=0
control_change channel=0 control=64 value=127 time=35
note_on channel=0 note=74 velocity=0 time=85
note_on channel=0 note=73 velocity=49 time=0
<meta message set_tempo tempo=1000000 time=120>
note_on channel=0 note=73 velocity=0 time=0
note_on channel=0 note=72 velocity=49 time=0
note_on channel=0 note=72 velocity=0 time=120
note_on channel=0 note=73 velocity=49 time=0
<meta message set_tempo tempo=937500 time=120>
note_on channel=0 note=73 velocity=0 time=0
note_on channel=0 note=64 velocity=0 time=0
note_on channel=0 note=57 velocity=0 time=0
note_on channel=0 note=74 velocity=55 time=0
note_on channel=0 note=57 velocity=43 time=0
note_on channel=0 note=54 velocity=36 time=0
control_change channel=0 control=64 value=0 time=5
control_change channel=0 control=64 value=127 time=75
note_on channel=0 note=74 velocity=0 time=40
note_on channel=0 note=73 velocity=50 time=0
<meta message set_tempo tempo=1034483 time=120>
note_on channel=0 note=73 velocity=0 time=0
note_on channel=0 note=72 velocity=50 time=0
note_on channel=0 note=72 velocity=0 time=120
note_on channel=0 note=73 velocity=50 time=0
<meta message set_tempo tempo=937500 time=120>
note_on channel=0 note=73 velocity=0 time=0
note_on channel=0 note=54 velocity=0 time=0
note_on channel=0 note=57 velocity=0 time=0
note_on channel=0 note=76 velocity=59 time=0
note_on channel=0 note=59 velocity=45 time=0
note_on channel=0 note=50 velocity=38 time=0
control_change channel=0 control=64 value=0 time=11
note_on channel=0 note=76 velocity=0 time=109
note_on channel=0 note=74 velocity=53 time=0
control_change channel=0 control=64 value=127 time=0
<meta message set_tempo tempo=967742 time=120>
note_on channel=0 note=74 velocity=0 time=0
note_on channel=0 note=73 velocity=53 time=0
note_on channel=0 note=73 velocity=0 time=120
note_on channel=0 note=74 velocity=53 time=0
<meta message set_tempo tempo=937500 time=120>
note_on channel=0 note=74 velocity=0 time=0
note_on channel=0 note=50 velocity=0 time=0
note_on channel=0 note=59 velocity=0 time=0
note_on channel=0 note=73 velocity=62 time=0
note_on channel=0 note=52 velocity=39 time=0
note_on channel=0 note=56 velocity=46 time=0
control_change channel=0 control=64 value=0 time=10
note_on channel=0 note=73 velocity=0 time=110
note_on channel=0 note=71 velocity=53 time=0
<meta message set_tempo tempo=967742 time=120>
note_on channel=0 note=71 velocity=0 time=0
note_on channel=0 note=70 velocity=53 time=0
note_on channel=0 note=70 velocity=0 time=120
note_on channel=0 note=71 velocity=53 time=0
<meta message set_tempo tempo=952381 time=120>
note_on channel=0 note=71 velocity=0 time=0
note_on channel=0 note=56 velocity=0 time=0
note_on channel=0 note=52 velocity=0 time=0
note_on channel=0 note=69 velocity=63 time=0
note_on channel=0 note=69 velocity=0 time=120
note_on channel=0 note=68 velocity=54 time=0
note_on channel=0 note=68 velocity=0 time=120
note_on channel=0 note=67 velocity=54 time=0
note_on channel=0 note=67 velocity=0 time=120
note_on channel=0 note=68 velocity=54 time=0
<meta message set_tempo tempo=1089325 time=80>
<meta message set_tempo tempo=937500 time=38>
note_on channel=0 note=68 velocity=0 time=2
note_on channel=0 note=66 velocity=64 time=0
<meta message set_tempo tempo=952381 time=58>
<meta message set_tempo tempo=967742 time=40>
note_on channel=0 note=66 velocity=0 time=22
note_on channel=0 note=64 velocity=56 time=0
<meta message set_tempo tempo=983607 time=38>
<meta message set_tempo tempo=1000000 time=40>
note_on channel=0 note=64 velocity=0 time=42
note_on channel=0 note=63 velocity=56 time=0
<meta message set_tempo tempo=1016949 time=18>
<meta message set_tempo tempo=1034483 time=40>
<meta message set_tempo tempo=1052632 time=60>
note_on channel=0 note=63 velocity=0 time=2
note_on channel=0 note=64 velocity=56 time=0
<meta message set_tempo tempo=1071429 time=38>
<meta message set_tempo tempo=1090909 time=40>
<meta message set_tempo tempo=1143947 time=2>
<meta message set_tempo tempo=1090909 time=40>
note_on channel=0 note=64 velocity=0 time=0
note_on channel=0 note=73 velocity=71 time=0
note_on channel=0 note=69 velocity=71 time=0
note_on channel=0 note=45 velocity=64 time=0
control_change channel=0 control=64 value=127 time=34
note_on channel=0 note=45 velocity=0 time=86
note_on channel=0 note=57 velocity=47 time=0
note_on channel=0 note=57 velocity=0 time=90
<meta message set_tempo tempo=1052632 time=30>
note_on channel=0 note=69 velocity=0 time=0
note_on channel=0 note=73 velocity=0 time=0
note_on channel=0 note=73 velocity=65 time=0
note_on channel=0 note=69 velocity=65 time=0
note_on channel=0 note=57 velocity=51 time=0
note_on channel=0 note=57 velocity=0 time=90
note_on channel=0 note=57 velocity=46 time=30
note_on channel=0 note=57 velocity=0 time=90
<meta message set_tempo tempo=983607 time=30>
note_on channel=0 note=57 velocity=50 time=0
note_on channel=0 note=57 velocity=0 time=90
note_on channel=0 note=57 velocity=32 time=30
note_on channel=0 note=57 velocity=0 time=90
<meta message set_tempo tempo=1052632 time=30>
note_on channel=0 note=69 velocity=0 time=0
note_on channel=0 note=73 velocity=0 time=0
note_on channel=0 note=70 velocity=50 time=0
note_on channel=0 note=73 velocity=50 time=0
note_on channel=0 note=57 velocity=37 time=0
control_change channel=0 control=64 value=0 time=7
control_change channel=0 control=64 value=127 time=48
note_on channel=0 note=57 velocity=0 time=35
note_on channel=0 note=57 velocity=33 time=30
note_on channel=0 note=57 velocity=0 time=90
<meta message set_tempo tempo=967742 time=30>
note_on channel=0 note=73 velocity=0 time=0
note_on channel=0 note=70 velocity=0 time=0
note_on channel=0 note=71 velocity=50 time=0
note_on channel=0 note=74 velocity=50 time=0
note_on channel=0 note=57 velocity=42 time=0
control_change channel=0 control=64 value=0 time=12
control_change channel=0 control=64 value=127 time=40
note_on channel=0 note=57 velocity=0 time=38
note_on channel=0 note=57 velocity=35 time=30
note_on channel=0 note=57 velocity=0 time=90
note_on channel=0 note=74 velocity=0 time=30
note_on channel=0 note=71 velocity=0 time=0
note_on channel=0 note=72 velocity=50 time=0
note_on channel=0 note=75 velocity=50 time=0
note_on channel=0 note=57 velocity=39 time=0
control_change channel=0 control=64 value=0 time=9
control_change channel=0 control=64 value=127 time=60
note_on channel=0 note=57 velocity=0 time=21
note_on channel=0 note=57 velocity=34 time=30
note_on channel=0 note=57 velocity=0 time=90
<meta message set_tempo tempo=1115864 time=22>
<meta message set_tempo tempo=983607 time=8>
note_on channel=0 note=75 velocity=0 time=0
note_on channel=0 note=72 velocity=0 time=0
note_on channel=0 note=73 velocity=53 time=0
note_on channel=0 note=76 velocity=53 time=0
note_on channel=0 note=57 velocity=47 time=0
control_change channel=0 control=64 value=0 time=11
note_on channel=0 note=76 velocity=0 time=109
note_on channel=0 note=73 velocity=0 time=0
note_on channel=0 note=69 velocity=49 time=0
note_on channel=0 note=69 velocity=0 time=63
<meta message set_tempo tempo=983607 time=57>
note_on channel=0 note=71 velocity=50 time=0
note_on channel=0 note=71 velocity=0 time=63
note_on channel=0 note=73 velocity=51 time=57
note_on channel=0 note=73 velocity=0 time=63
<meta message set_tempo tempo=1102536 time=49>
<meta message set_tempo tempo=967742 time=8>
note_on channel=0 note=57 velocity=0 time=0
note_on channel=0 note=74 velocity=52 time=0
note_on channel=0 note=74 velocity=0 time=63
note_on channel=0 note=76 velocity=53 time=57
note_on channel=0 note=76 velocity=0 time=63
note_on channel=0 note=78 velocity=54 time=57
note_on channel=0 note=78 velocity=0 time=63
note_on channel=0 note=80 velocity=55 time=57
note_on channel=0 note=80 velocity=0 time=63
<meta message set_tempo tempo=1089325 time=17>
<meta message set_tempo tempo=1000000 time=40>
note_on channel=0 note=81 velocity=56 time=0
note_on channel=0 note=81 velocity=0 time=120
note_on channel=0 note=83 velocity=57 time=0
<meta message set_tempo tempo=1188354 time=120>
note_on channel=0 note=83 velocity=0 time=0
note_on channel=0 note=85 velocity=58 time=0
note_on channel=0 note=85 velocity=0 time=120
<meta message set_tempo tempo=1102536 time=120>
note_on channel=0 note=73 velocity=71 time=0
note_on channel=0 note=69 velocity=71 time=0
note_on channel=0 note=40 velocity=64 time=0
control_change channel=0 control=64 value=127 time=43
note_on channel=0 note=40 velocity=0 time=77
note_on channel=0 note=69 velocity=0 time=0
note_on channel=0 note=73 velocity=0 time=0
note_on channel=0 note=68 velocity=62 time=0
note_on channel=0 note=71 velocity=63 time=0
note_on channel=0 note=52 velocity=46 time=0
note_on channel=0 note=52 velocity=0 time=90
note_on channel=0 note=71 velocity=0 time=18
note_on channel=0 note=68 velocity=0 time=0
<meta message set_tempo tempo=1052632 time=12>
note_on channel=0 note=71 velocity=65 time=0
note_on channel=0 note=68 velocity=65 time=0
note_on channel=0 note=52 velocity=51 time=0
note_on channel=0 note=52 velocity=0 time=90
note_on channel=0 note=52 velocity=46 time=30
note_on channel=0 note=52 velocity=0 time=90
<meta message set_tempo tempo=983607 time=30>
note_on channel=0 note=52 velocity=50 time=0
note_on channel=0 note=52 velocity=0 time=90
note_on channel=0 note=52 velocity=34 time=30
note_on channel=0 note=52 velocity=0 time=90
<meta message set_tempo tempo=1052632 time=30>
note_on channel=0 note=68 velocity=0 time=0
note_on channel=0 note=71 velocity=0 time=0
note_on channel=0 note=71 velocity=50 time=0
note_on channel=0 note=68 velocity=50 time=0
note_on channel=0 note=52 velocity=38 time=0
note_on channel=0 note=52 velocity=0 time=90
note_on channel=0 note=52 velocity=34 time=30
note_on channel=0 note=52 velocity=0 time=90
<meta message set_tempo tempo=983607 time=30>
note_on channel=0 note=68 velocity=0 time=0
note_on channel=0 note=71 velocity=0 time=0
note_on channel=0 note=72 velocity=50 time=0
note_on channel=0 note=69 velocity=50 time=0
note_on channel=0 note=52 velocity=42 time=0
control_change channel=0 control=64 value=0 time=11
control_change channel=0 control=64 value=127 time=41
note_on channel=0 note=52 velocity=0 time=38
note_on channel=0 note=52 velocity=34 time=30
note_on channel=0 note=52 velocity=0 time=90
<meta message set_tempo tempo=1016949 time=30>
note_on channel=0 note=69 velocity=0 time=0
note_on channel=0 note=72 velocity=0 time=0
note_on channel=0 note=70 velocity=50 time=0
note_on channel=0 note=73 velocity=50 time=0
note_on channel=0 note=52 velocity=38 time=0
control_change channel=0 control=64 value=0 time=9
control_change channel=0 control=64 value=127 time=60
note_on channel=0 note=52 velocity=0 time=21
note_on channel=0 note=52 velocity=35 time=30
note_on channel=0 note=52 velocity=0 time=90
note_on channel=0 note=73 velocity=0 time=30
note_on channel=0 note=70 velocity=0 time=0
note_on channel=0 note=71 velocity=53 time=0
note_on channel=0 note=74 velocity=53 time=0
note_on channel=0 note=52 velocity=47 time=0
control_change channel=0 control=64 value=0 time=9
note_on channel=0 note=74 velocity=0 time=111
note_on channel=0 note=71 velocity=0 time=0
note_on channel=0 note=71 velocity=49 time=0
note_on channel=0 note=71 velocity=0 time=63
<meta message set_tempo tempo=1115864 time=33>
<meta message set_tempo tempo=1000000 time=24>
note_on channel=0 note=73 velocity=50 time=0
note_on channel=0 note=73 velocity=0 time=63
note_on channel=0 note=74 velocity=51 time=57
note_on channel=0 note=74 velocity=0 time=63
<meta message set_tempo tempo=983607 time=57>
note_on channel=0 note=52 velocity=0 time=0
note_on channel=0 note=76 velocity=52 time=0
note_on channel=0 note=76 velocity=0 time=63
note_on channel=0 note=78 velocity=53 time=57
note_on channel=0 note=78 velocity=0 time=63
note_on channel=0 note=80 velocity=54 time=57
note_on channel=0 note=80 velocity=0 time=63
note_on channel=0 note=81 velocity=55 time=57
note_on channel=0 note=81 velocity=0 time=63
<meta message set_tempo tempo=1000000 time=57>
note_on channel=0 note=83 velocity=56 time=0
note_on channel=0 note=83 velocity=0 time=120
note_on channel=0 note=85 velocity=57 time=0
<meta message set_tempo tempo=1132075 time=120>
note_on channel=0 note=85 velocity=0 time=0
note_on channel=0 note=86 velocity=58 time=0
note_on channel=0 note=86 velocity=0 time=120
<meta message set_tempo tempo=1016949 time=120>
note_on channel=0 note=71 velocity=57 time=0
note_on channel=0 note=71 velocity=0 time=120
note_on channel=0 note=69 velocity=53 time=0
<meta message set_tempo tempo=1016949 time=120>
note_on channel=0 note=69 velocity=0 time=0
note_on channel=0 note=69 velocity=53 time=0
<meta message set_tempo tempo=1000000 time=240>
note_on channel=0 note=64 velocity=43 time=0
note_on channel=0 note=54 velocity=43 time=0
control_change channel=0 control=64 value=127 time=45
note_on channel=0 note=69 velocity=0 time=75
note_on channel=0 note=69 velocity=53 time=0
<meta message set_tempo tempo=1034483 time=120>
note_on channel=0 note=69 velocity=0 time=0
note_on channel=0 note=74 velocity=56 time=0
<meta message set_tempo tempo=1000000 time=120>
note_on channel=0 note=74 velocity=0 time=0
note_on channel=0 note=73 velocity=53 time=0
<meta message set_tempo tempo=983607 time=120>
note_on channel=0 note=73 velocity=0 time=0
note_on channel=0 note=54 velocity=0 time=0
note_on channel=0 note=64 velocity=0 time=0
note_on channel=0 note=70 velocity=55 time=0
note_on channel=0 note=64 velocity=43 time=0
note_on channel=0 note=56 velocity=43 time=0
control_change channel=0 control=64 value=0 time=9
control_change channel=0 control=64 value=127 time=100
note_on channel=0 note=70 velocity=0 time=11
note_on channel=0 note=71 velocity=52 time=0
<meta message set_tempo tempo=1034483 time=120>
note_on channel=0 note=71 velocity=0 time=0
note_on channel=0 note=76 velocity=52 time=0
note_on channel=0 note=76 velocity=0 time=120
note_on channel=0 note=74 velocity=53 time=0
<meta message set_tempo tempo=983607 time=120>
note_on channel=0 note=74 velocity=0 time=0
note_on channel=0 note=56 velocity=0 time=0
note_on channel=0 note=64 velocity=0 time=0
note_on channel=0 note=72 velocity=58 time=0
note_on channel=0 note=64 velocity=43 time=0
note_on channel=0 note=57 velocity=43 time=0
control_change channel=0 control=64 value=0 time=5
note_on channel=0 note=72 velocity=0 time=115
note_on channel=0 note=73 velocity=53 time=0
<meta message set_tempo tempo=1034483 time=120>
note_on channel=0 note=73 velocity=0 time=0
note_on channel=0 note=81 velocity=54 time=0
control_change channel=0 control=64 value=127 time=60
note_on channel=0 note=81 velocity=0 time=30
note_on channel=0 note=81 velocity=55 time=30
note_on channel=0 note=81 velocity=0 time=90
note_on channel=0 note=57 velocity=0 time=30
note_on channel=0 note=64 velocity=0 time=0
note_on channel=0 note=81 velocity=57 time=0
note_on channel=0 note=81 velocity=0 time=90
note_on channel=0 note=81 velocity=55 time=30
note_on channel=0 note=81 velocity=0 time=90
<meta message set_tempo tempo=1071429 time=30>
note_on channel=0 note=81 velocity=55 time=0
note_on channel=0 note=81 velocity=0 time=90
<meta message set_tempo tempo=1132075 time=30>
note_on channel=0 note=81 velocity=55 time=0
note_on channel=0 note=81 velocity=0 time=90
<meta message set_tempo tempo=1071429 time=30>
note_on channel=0 note=81 velocity=58 time=0
note_on channel=0 note=50 velocity=39 time=0
note_on channel=0 note=59 velocity=47 time=0
note_on channel=0 note=54 velocity=39 time=0
note_on channel=0 note=81 velocity=0 time=120
note_on channel=0 note=78 velocity=56 time=0
note_on channel=0 note=78 velocity=0 time=120
note_on channel=0 note=74 velocity=54 time=0
note_on channel=0 note=74 velocity=0 time=120
note_on channel=0 note=71 velocity=49 time=0
note_on channel=0 note=71 velocity=0 time=120
note_on channel=0 note=54 velocity=0 time=0
note_on channel=0 note=59 velocity=0 time=0
note_on channel=0 note=50 velocity=0 time=0
note_on channel=0 note=76 velocity=59 time=0
note_on channel=0 note=52 velocity=39 time=0
note_on channel=0 note=57 velocity=39 time=0
note_on channel=0 note=61 velocity=47 time=0
control_change channel=0 control=64 value=0 time=7
control_change channel=0 control=64 value=127 time=79
note_on channel=0 note=76 velocity=0 time=34
note_on channel=0 note=78 velocity=54 time=0
note_on channel=0 note=78 velocity=0 time=40
note_on channel=0 note=76 velocity=54 time=0
note_on channel=0 note=76 velocity=0 time=40
note_on channel=0 note=75 velocity=54 time=0
note_on channel=0 note=75 velocity=0 time=40
note_on channel=0 note=76 velocity=59 time=0
<meta message set_tempo tempo=1188354 time=120>
note_on channel=0 note=76 velocity=0 time=0
note_on channel=0 note=78 velocity=56 time=0
<meta message set_tempo tempo=1158525 time=120>
note_on channel=0 note=78 velocity=0 time=0
note_on channel=0 note=69 velocity=58 time=0
control_change channel=0 control=64 value=0 time=9
control_change channel=0 control=64 value=127 time=111
<meta message set_tempo tempo=1236858 time=360>
note_on channel=0 note=61 velocity=0 time=0
note_on channel=0 note=57 velocity=0 time=0
note_on channel=0 note=62 velocity=40 time=0
note_on channel=0 note=59 velocity=30 time=0
<meta message set_tempo tempo=1307474 time=240>
note_on channel=0 note=69 velocity=0 time=0
note_on channel=0 note=73 velocity=53 time=0
note_on channel=0 note=68 velocity=53 time=0
<meta message set_tempo tempo=1551189 time=120>
note_on channel=0 note=73 velocity=0 time=0
note_on channel=0 note=71 velocity=50 time=0
<meta message set_tempo tempo=1476015 time=120>
note_on channel=0 note=71 velocity=0 time=0
note_on channel=0 note=68 velocity=0 time=0
note_on channel=0 note=59 velocity=0 time=0
note_on channel=0 note=62 velocity=0 time=0
note_on channel=0 note=52 velocity=0 time=0
note_on channel=0 note=64 velocity=45 time=0
note_on channel=0 note=68 velocity=45 time=0
note_on channel=0 note=71 velocity=53 time=0
note_on channel=0 note=57 velocity=28 time=0
note_on channel=0 note=62 velocity=34 time=0
control_change channel=0 control=64 value=0 time=8
control_change channel=0 control=64 value=127 time=78
<meta message set_tempo tempo=1153846 time=274>
<meta message set_tempo tempo=1132075 time=120>
note_on channel=0 note=62 velocity=0 time=0
note_on channel=0 note=71 velocity=0 time=0
note_on channel=0 note=68 velocity=0 time=0
note_on channel=0 note=69 velocity=46 time=0
note_on channel=0 note=61 velocity=33 time=0
control_change channel=0 control=64 value=0 time=11
control_change channel=0 control=64 value=127 time=49
note_on channel=0 note=69 velocity=0 time=60
note_on channel=0 note=71 velocity=43 time=0
note_on channel=0 note=71 velocity=0 time=40
note_on channel=0 note=69 velocity=45 time=0
note_on channel=0 note=69 velocity=0 time=40
note_on channel=0 note=68 velocity=46 time=0
<meta message set_tempo tempo=1132075 time=40>
note_on channel=0 note=68 velocity=0 time=0
note_on channel=0 note=69 velocity=52 time=0
control_change channel=0 control=64 value=0 time=60
<meta message set_tempo tempo=1176471 time=60>
note_on channel=0 note=69 velocity=0 time=0
note_on channel=0 note=71 velocity=54 time=0
<meta message set_tempo tempo=1090909 time=120>
note_on channel=0 note=71 velocity=0 time=0
note_on channel=0 note=61 velocity=0 time=0
note_on channel=0 note=64 velocity=0 time=0
note_on channel=0 note=57 velocity=0 time=0
note_on channel=0 note=73 velocity=55 time=0
<meta message set_tempo tempo=1111111 time=120>
note_on channel=0 note=73 velocity=0 time=0
note_on channel=0 note=74 velocity=40 time=0
note_on channel=0 note=74 velocity=0 time=40
note_on channel=0 note=73 velocity=40 time=0
note_on channel=0 note=73 velocity=0 time=40
note_on channel=0 note=71 velocity=40 time=0
<meta message set_tempo tempo=1276596 time=40>
note_on channel=0 note=71 velocity=0 time=0
note_on channel=0 note=73 velocity=51 time=0
<meta message set_tempo tempo=1500000 time=120>
note_on channel=0 note=73 velocity=0 time=0
note_on channel=0 note=74 velocity=52 time=0
<meta message set_tempo tempo=1090909 time=120>
note_on channel=0 note=74 velocity=0 time=0
note_on channel=0 note=76 velocity=57 time=0
note_on channel=0 note=57 velocity=43 time=0
control_change channel=0 control=64 value=127 time=6
note_on channel=0 note=57 velocity=0 time=114
note_on channel=0 note=69 velocity=32 time=0
<meta message set_tempo tempo=1052632 time=120>
note_on channel=0 note=69 velocity=0 time=0
note_on channel=0 note=61 velocity=37 time=0
note_on channel=0 note=61 velocity=0 time=120
note_on channel=0 note=76 velocity=0 time=0
note_on channel=0 note=78 velocity=47 time=0
note_on channel=0 note=69 velocity=32 time=0
note_on channel=0 note=78 velocity=0 time=60
note_on channel=0 note=76 velocity=47 time=0
<meta message set_tempo tempo=1034483 time=60>
note_on channel=0 note=76 velocity=0 time=0
note_on channel=0 note=69 velocity=0 time=0
note_on channel=0 note=74 velocity=58 time=0
note_on channel=0 note=57 velocity=45 time=0
control_change channel=0 control=64 value=0 time=7
control_change channel=0 control=64 value=127 time=53
note_on channel=0 note=57 velocity=0 time=60
note_on channel=0 note=68 velocity=34 time=0
<meta message set_tempo tempo=1071429 time=120>
note_on channel=0 note=68 velocity=0 time=0
note_on channel=0 note=74 velocity=0 time=0
note_on channel=0 note=73 velocity=53 time=0
note_on channel=0 note=59 velocity=37 time=0
note_on channel=0 note=59 velocity=0 time=120
note_on channel=0 note=68 velocity=34 time=0
<meta message set_tempo tempo=1071429 time=120>
note_on channel=0 note=68 velocity=0 time=0
note_on channel=0 note=73 velocity=0 time=0
note_on channel=0 note=71 velocity=57 time=0
note_on channel=0 note=57 velocity=47 time=0
control_change channel=0 control=64 value=0 time=6
control_change channel=0 control=64 value=127 time=37
note_on channel=0 note=57 velocity=0 time=77
note_on channel=0 note=67 velocity=36 time=0
note_on channel=0 note=67 velocity=0 time=120
note_on channel=0 note=71 velocity=0 time=0
note_on channel=0 note=69 velocity=52 time=0
note_on channel=0 note=61 velocity=42 time=0
<meta message set_tempo tempo=1224490 time=120>
note_on channel=0 note=61 velocity=0 time=0
note_on channel=0 note=67 velocity=38 time=0
<meta message set_tempo tempo=1071429 time=120>
note_on channel=0 note=67 velocity=0 time=0
note_on channel=0 note=69 velocity=0 time=0
note_on channel=0 note=69 velocity=64 time=0
note_on channel=0 note=57 velocity=50 time=0
control_change channel=0 control=64 value=0 time=10
control_change channel=0 control=64 value=127 time=50
note_on channel=0 note=57 velocity=0 time=60
note_on channel=0 note=66 velocity=43 time=0
<meta message set_tempo tempo=1071429 time=120>
note_on channel=0 note=66 velocity=0 time=0
note_on channel=0 note=62 velocity=46 time=0
note_on channel=0 note=62 velocity=0 time=120
note_on channel=0 note=69 velocity=0 time=0
note_on channel=0 note=78 velocity=57 time=0
note_on channel=0 note=66 velocity=43 time=0
<meta message set_tempo tempo=1016949 time=120>
note_on channel=0 note=66 velocity=0 time=0
note_on channel=0 note=78 velocity=0 time=0
note_on channel=0 note=78 velocity=61 time=0
note_on channel=0 note=54 velocity=54 time=0
note_on channel=0 note=54 velocity=0 time=120
note_on channel=0 note=62 velocity=44 time=0
note_on channel=0 note=62 velocity=0 time=120
note_on channel=0 note=57 velocity=47 time=0
note_on channel=0 note=57 velocity=0 time=120
note_on channel=0 note=62 velocity=44 time=0
note_on channel=0 note=62 velocity=0 time=118
<meta message set_tempo tempo=1071429 time=2>
note_on channel=0 note=78 velocity=0 time=0
note_on channel=0 note=62 velocity=68 time=0
note_on channel=0 note=50 velocity=51 time=0
control_change channel=0 control=64 value=0 time=0
control_change channel=0 control=64 value=127 time=71
note_on channel=0 note=50 velocity=0 time=49
note_on channel=0 note=57 velocity=43 time=0
note_on channel=0 note=57 velocity=0 time=120
note_on channel=0 note=54 velocity=46 time=0
note_on channel=0 note=54 velocity=0 time=120
note_on channel=0 note=57 velocity=43 time=0
<meta message set_tempo tempo=1071429 time=120>
note_on channel=0 note=57 velocity=0 time=0
note_on channel=0 note=45 velocity=56 time=0
control_change channel=0 control=64 value=0 time=6
control_change channel=0 control=64 value=127 time=29
note_on channel=0 note=62 velocity=0 time=25
note_on channel=0 note=66 velocity=44 time=0
note_on channel=0 note=66 velocity=0 time=60
note_on channel=0 note=45 velocity=0 time=0
note_on channel=0 note=64 velocity=45 time=0
note_on channel=0 note=54 velocity=46 time=0
note_on channel=0 note=64 velocity=0 time=60
note_on channel=0 note=62 velocity=46 time=0
note_on channel=0 note=62 velocity=0 time=60
note_on channel=0 note=54 velocity=0 time=0
note_on channel=0 note=64 velocity=47 time=0
note_on channel=0 note=50 velocity=49 time=0
note_on channel=0 note=64 velocity=0 time=60
note_on channel=0 note=66 velocity=48 time=0
note_on channel=0 note=66 velocity=0 time=60
note_on channel=0 note=50 velocity=0 time=0
note_on channel=0 note=67 velocity=49 time=0
note_on channel=0 note=54 velocity=47 time=0
note_on channel=0 note=67 velocity=0 time=60
note_on channel=0 note=69 velocity=50 time=0
<meta message set_tempo tempo=1173250 time=14>
<meta message set_tempo tempo=1052632 time=46>
note_on channel=0 note=69 velocity=0 time=0
note_on channel=0 note=54 velocity=0 time=0
note_on channel=0 note=71 velocity=51 time=0
note_on channel=0 note=45 velocity=60 time=0
note_on channel=0 note=71 velocity=0 time=60
note_on channel=0 note=73 velocity=52 time=0
note_on channel=0 note=73 velocity=0 time=60
note_on channel=0 note=45 velocity=0 time=0
note_on channel=0 note=74 velocity=53 time=0
note_on channel=0 note=54 velocity=52 time=0
note_on channel=0 note=74 velocity=0 time=60
note_on channel=0 note=76 velocity=54 time=0
note_on channel=0 note=76 velocity=0 time=60
note_on channel=0 note=54 velocity=0 time=0
note_on channel=0 note=78 velocity=55 time=0
note_on channel=0 note=50 velocity=55 time=0
note_on channel=0 note=78 velocity=0 time=80
note_on channel=0 note=79 velocity=56 time=0
<meta message set_tempo tempo=1111111 time=40>
note_on channel=0 note=50 velocity=0 time=0
note_on channel=0 note=54 velocity=58 time=0
<meta message set_tempo tempo=1158525 time=10>
note_on channel=0 note=79 velocity=0 time=10
note_on channel=0 note=81 velocity=57 time=20
note_on channel=0 note=81 velocity=0 time=60
<meta message set_tempo tempo=1132075 time=20>
note_on channel=0 note=54 velocity=0 time=0
note_on channel=0 note=83 velocity=62 time=0
note_on channel=0 note=45 velocity=70 time=0
note_on channel=0 note=83 velocity=0 time=90
note_on channel=0 note=45 velocity=0 time=30
note_on channel=0 note=85 velocity=68 time=0
note_on channel=0 note=54 velocity=57 time=0
note_on channel=0 note=85 velocity=0 time=90
note_on channel=0 note=54 velocity=0 time=30
note_on channel=0 note=86 velocity=75 time=0
note_on channel=0 note=50 velocity=61 time=0
<meta message set_tempo tempo=1429933 time=60>
note_on channel=0 note=50 velocity=0 time=60
note_on channel=0 note=54 velocity=59 time=0
note_on channel=0 note=86 velocity=0 time=60
note_on channel=0 note=78 velocity=61 time=0
<meta message set_tempo tempo=1188354 time=60>
note_on channel=0 note=78 velocity=0 time=0
note_on channel=0 note=54 velocity=0 time=0
note_on channel=0 note=81 velocity=68 time=0
note_on channel=0 note=45 velocity=70 time=0
note_on channel=0 note=50 velocity=70 time=0
control_change channel=0 control=64 value=0 time=10
control_change channel=0 control=64 value=127 time=59
note_on channel=0 note=81 velocity=0 time=291
note_on channel=0 note=78 velocity=60 time=0
<meta message set_tempo tempo=1132075 time=120>
note_on channel=0 note=78 velocity=0 time=0
note_on channel=0 note=50 velocity=0 time=0
note_on channel=0 note=45 velocity=0 time=0
note_on channel=0 note=76 velocity=65 time=0
note_on channel=0 note=45 velocity=53 time=0
note_on channel=0 note=49 velocity=53 time=0
control_change channel=0 control=64 value=0 time=6
control_change channel=0 control=64 value=127 time=51
note_on channel=0 note=76 velocity=0 time=159
note_on channel=0 note=76 velocity=57 time=24
note_on channel=0 note=76 velocity=0 time=216
note_on channel=0 note=49 velocity=0 time=24
note_on channel=0 note=45 velocity=0 time=0
note_on channel=0 note=76 velocity=57 time=0
note_on channel=0 note=76 velocity=0 time=216
<meta message set_tempo tempo=1153846 time=24>
note_on channel=0 note=76 velocity=57 time=0
note_on channel=0 note=76 velocity=0 time=216
<meta message set_tempo tempo=1052632 time=24>
note_on channel=0 note=78 velocity=59 time=0
note_on channel=0 note=61 velocity=43 time=0
note_on channel=0 note=57 velocity=43 time=0
note_on channel=0 note=64 velocity=51 time=0
control_change channel=0 control=64 value=0 time=9
<meta message set_tempo tempo=1090909 time=51>
note_on channel=0 note=78 velocity=0 time=60
note_on channel=0 note=76 velocity=47 time=0
control_change channel=0 control=64 value=127 time=36
<meta message set_tempo tempo=1034483 time=24>
note_on channel=0 note=76 velocity=0 time=60
note_on channel=0 note=73 velocity=47 time=0
<meta message set_tempo tempo=1153846 time=120>
note_on channel=0 note=73 velocity=0 time=0
note_on channel=0 note=71 velocity=47 time=0
<meta message set_tempo tempo=1090909 time=120>
note_on channel=0 note=71 velocity=0 time=0
note_on channel=0 note=69 velocity=53 time=0
note_on channel=0 note=69 velocity=0 time=240
note_on channel=0 note=76 velocity=47 time=0
note_on channel=0 note=76 velocity=0 time=216
note_on channel=0 note=76 velocity=47 time=24
note_on channel=0 note=76 velocity=0 time=216
note_on channel=0 note=76 velocity=47 time=24
note_on channel=0 note=76 velocity=0 time=216
<meta message set_tempo tempo=1052632 time=24>
note_on channel=0 note=64 velocity=0 time=0
note_on channel=0 note=57 velocity=0 time=0
note_on channel=0 note=61 velocity=0 time=0
note_on channel=0 note=78 velocity=58 time=0
note_on channel=0 note=59 velocity=43 time=0
note_on channel=0 note=64 velocity=51 time=0
note_on channel=0 note=62 velocity=43 time=0
control_change channel=0 control=64 value=0 time=9
<meta message set_tempo tempo=1132075 time=51>
control_change channel=0 control=64 value=127 time=39
<meta message set_tempo tempo=1052632 time=21>
note_on channel=0 note=78 velocity=0 time=0
note_on channel=0 note=76 velocity=48 time=0
note_on channel=0 note=76 velocity=0 time=120
note_on channel=0 note=74 velocity=48 time=0
<meta message set_tempo tempo=1132075 time=60>
note_on channel=0 note=74 velocity=0 time=60
note_on channel=0 note=71 velocity=48 time=0
<meta message set_tempo tempo=1158525 time=60>
<meta message set_tempo tempo=1111111 time=60>
note_on channel=0 note=71 velocity=0 time=0
note_on channel=0 note=68 velocity=52 time=0
note_on channel=0 note=68 velocity=0 time=240
note_on channel=0 note=76 velocity=49 time=0
note_on channel=0 note=76 velocity=0 time=216
note_on channel=0 note=76 velocity=51 time=24
note_on channel=0 note=76 velocity=0 time=216
note_on channel=0 note=76 velocity=53 time=24
note_on channel=0 note=76 velocity=0 time=216
<meta message set_tempo tempo=1052632 time=24>
note_on channel=0 note=62 velocity=0 time=0
note_on channel=0 note=64 velocity=0 time=0
note_on channel=0 note=59 velocity=0 time=0
note_on channel=0 note=78 velocity=65 time=0
note_on channel=0 note=64 velocity=54 time=0
note_on channel=0 note=57 velocity=45 time=0
note_on channel=0 note=61 velocity=45 time=0
control_change channel=0 control=64 value=0 time=6
control_change channel=0 control=64 value=127 time=69
note_on channel=0 note=78 velocity=0 time=45
note_on channel=0 note=76 velocity=55 time=0
note_on channel=0 note=76 velocity=0 time=120
note_on channel=0 note=73 velocity=58 time=0
<meta message set_tempo tempo=1153846 time=120>
note_on channel=0 note=73 velocity=0 time=0
note_on channel=0 note=69 velocity=55 time=0
<meta message set_tempo tempo=1034483 time=120>
note_on channel=0 note=69 velocity=0 time=0
note_on channel=0 note=61 velocity=0 time=0
note_on channel=0 note=57 velocity=0 time=0
note_on channel=0 note=64 velocity=0 time=0
note_on channel=0 note=78 velocity=68 time=0
note_on channel=0 note=56 velocity=45 time=0
note_on channel=0 note=59 velocity=45 time=0
note_on channel=0 note=64 velocity=53 time=0
control_change channel=0 control=64 value=0 time=10
control_change channel=0 control=64 value=127 time=82
note_on channel=0 note=78 velocity=0 time=28
note_on channel=0 note=76 velocity=57 time=0
note_on channel=0 note=76 velocity=0 time=120
note_on channel=0 note=74 velocity=59 time=0
<meta message set_tempo tempo=1111111 time=120>
note_on channel=0 note=74 velocity=0 time=0
note_on channel=0 note=71 velocity=57 time=0
<meta message set_tempo tempo=1052632 time=120>
note_on channel=0 note=71 velocity=0 time=0
note_on channel=0 note=64 velocity=0 time=0
note_on channel=0 note=59 velocity=0 time=0
note_on channel=0 note=56 velocity=0 time=0
note_on channel=0 note=78 velocity=70 time=0
note_on channel=0 note=57 velocity=45 time=0
note_on channel=0 note=64 velocity=53 time=0
note_on channel=0 note=61 velocity=45 time=0
control_change channel=0 control=64 value=0 time=5
control_change channel=0 control=64 value=127 time=75
note_on channel=0 note=78 velocity=0 time=40
note_on channel=0 note=76 velocity=57 time=0
note_on channel=0 note=76 velocity=0 time=120
note_on channel=0 note=73 velocity=60 time=0
<meta message set_tempo tempo=1271186 time=120>
note_on channel=0 note=73 velocity=0 time=0
note_on channel=0 note=69 velocity=57 time=0
<meta message set_tempo tempo=1143947 time=120>
note_on channel=0 note=69 velocity=0 time=0
note_on channel=0 note=61 velocity=0 time=0
note_on channel=0 note=64 velocity=0 time=0
note_on channel=0 note=57 velocity=0 time=0
note_on channel=0 note=73 velocity=71 time=0
note_on channel=0 note=61 velocity=57 time=0
note_on channel=0 note=52 velocity=43 time=0
note_on channel=0 note=57 velocity=48 time=0
control_change channel=0 control=64 value=0 time=10
control_change channel=0 control=64 value=127 time=127
note_on channel=0 note=57 velocity=0 time=343
note_on channel=0 note=73 velocity=0 time=0
note_on channel=0 note=61 velocity=0 time=0
note_on channel=0 note=71 velocity=61 time=0
note_on channel=0 note=56 velocity=43 time=0
note_on channel=0 note=59 velocity=51 time=0
control_change channel=0 control=64 value=0 time=11
control_change channel=0 control=64 value=127 time=86
note_on channel=0 note=71 velocity=0 time=23
note_on channel=0 note=64 velocity=43 time=0
<meta message set_tempo tempo=1102536 time=120>
note_on channel=0 note=64 velocity=0 time=0
note_on channel=0 note=76 velocity=53 time=0
<meta message set_tempo tempo=1089325 time=34>
note_on channel=0 note=76 velocity=0 time=86
note_on channel=0 note=64 velocity=43 time=0
<meta message set_tempo tempo=1102536 time=42>
note_on channel=0 note=64 velocity=0 time=78
note_on channel=0 note=59 velocity=0 time=0
note_on channel=0 note=56 velocity=0 time=0
note_on channel=0 note=52 velocity=0 time=0
note_on channel=0 note=75 velocity=51 time=0
<meta message set_tempo tempo=1115864 time=18>
note_on channel=0 note=75 velocity=0 time=102
note_on channel=0 note=64 velocity=43 time=0
<meta message set_tempo tempo=1129944 time=26>
note_on channel=0 note=64 velocity=0 time=94
note_on channel=0 note=74 velocity=52 time=0
<meta message set_tempo tempo=1143947 time=2>
note_on channel=0 note=74 velocity=0 time=118
note_on channel=0 note=64 velocity=42 time=0
<meta message set_tempo tempo=1158525 time=10>
<meta message set_tempo tempo=1173250 time=96>
<meta message set_tempo tempo=1111111 time=14>
note_on channel=0 note=64 velocity=0 time=0
note_on channel=0 note=73 velocity=55 time=0
note_on channel=0 note=57 velocity=37 time=0
control_change channel=0 control=64 value=0 time=7
control_change channel=0 control=64 value=127 time=74
note_on channel=0 note=57 velocity=0 time=39
note_on channel=0 note=64 velocity=28 time=0
note_on channel=0 note=64 velocity=0 time=120
note_on channel=0 note=61 velocity=33 time=0
<meta message set_tempo tempo=1111111 time=60>
note_on channel=0 note=61 velocity=0 time=60
note_on channel=0 note=64 velocity=28 time=0
<meta message set_tempo tempo=1090909 time=120>
note_on channel=0 note=64 velocity=0 time=0
note_on channel=0 note=73 velocity=0 time=0
note_on channel=0 note=73 velocity=51 time=0
note_on channel=0 note=57 velocity=42 time=0
<meta message set_tempo tempo=1034483 time=120>
note_on channel=0 note=57 velocity=0 time=0
note_on channel=0 note=64 velocity=31 time=0
note_on channel=0 note=64 velocity=0 time=120
note_on channel=0 note=61 velocity=37 time=0
note_on channel=0 note=61 velocity=0 time=120
note_on channel=0 note=64 velocity=33 time=0
<meta message set_tempo tempo=967742 time=60>
<meta message set_tempo tempo=1016949 time=60>
note_on channel=0 note=64 velocity=0 time=0
note_on channel=0 note=57 velocity=42 time=0
note_on channel=0 note=57 velocity=0 time=120
note_on channel=0 note=73 velocity=0 time=0
note_on channel=0 note=74 velocity=48 time=0
note_on channel=0 note=64 velocity=32 time=0
note_on channel=0 note=74 velocity=0 time=40
note_on channel=0 note=73 velocity=47 time=0
note_on channel=0 note=73 velocity=0 time=40
note_on channel=0 note=71 velocity=47 time=0
<meta message set_tempo tempo=1090909 time=40>
note_on channel=0 note=71 velocity=0 time=0
note_on channel=0 note=64 velocity=0 time=0
note_on channel=0 note=73 velocity=47 time=0
note_on channel=0 note=59 velocity=37 time=0
<meta message set_tempo tempo=1153846 time=120>
note_on channel=0 note=59 velocity=0 time=0
note_on channel=0 note=73 velocity=0 time=0
note_on channel=0 note=74 velocity=51 time=0
note_on channel=0 note=64 velocity=32 time=0
<meta message set_tempo tempo=1052632 time=120>
note_on channel=0 note=64 velocity=0 time=0
note_on channel=0 note=74 velocity=0 time=0
note_on channel=0 note=78 velocity=54 time=0
note_on channel=0 note=61 velocity=44 time=0
control_change channel=0 control=64 value=0 time=7
control_change channel=0 control=64 value=127 time=36
note_on channel=0 note=61 velocity=0 time=77
note_on channel=0 note=64 velocity=28 time=0
<meta message set_tempo tempo=1090909 time=120>
note_on channel=0 note=64 velocity=0 time=0
note_on channel=0 note=78 velocity=0 time=0
note_on channel=0 note=76 velocity=51 time=0
note_on channel=0 note=57 velocity=31 time=0
<meta message set_tempo tempo=1153846 time=120>
note_on channel=0 note=57 velocity=0 time=0
note_on channel=0 note=76 velocity=0 time=0
note_on channel=0 note=64 velocity=27 time=0
<meta message set_tempo tempo=1071429 time=120>
note_on channel=0 note=64 velocity=0 time=0
note_on channel=0 note=87 velocity=62 time=0
note_on channel=0 note=61 velocity=34 time=0
control_change channel=0 control=64 value=0 time=7
control_change channel=0 control=64 value=127 time=46
note_on channel=0 note=61 velocity=0 time=67
note_on channel=0 note=64 velocity=22 time=0
<meta message set_tempo tempo=1173250 time=120>
note_on channel=0 note=64 velocity=0 time=0
note_on channel=0 note=87 velocity=0 time=0
note_on channel=0 note=88 velocity=57 time=0
note_on channel=0 note=57 velocity=28 time=0
note_on channel=0 note=57 velocity=0 time=120
note_on channel=0 note=88 velocity=0 time=0
note_on channel=0 note=64 velocity=23 time=0
note_on channel=0 note=76 velocity=51 time=60
<meta message set_tempo tempo=1016949 time=60>
note_on channel=0 note=76 velocity=0 time=0
note_on channel=0 note=64 velocity=0 time=0
note_on channel=0 note=78 velocity=57 time=0
note_on channel=0 note=61 velocity=37 time=0
control_change channel=0 control=64 value=0 time=8
control_change channel=0 control=64 value=127 time=31
note_on channel=0 note=61 velocity=0 time=81
note_on channel=0 note=78 velocity=0 time=0
note_on channel=0 note=76 velocity=51 time=0
note_on channel=0 note=64 velocity=28 time=0
note_on channel=0 note=64 velocity=0 time=120
note_on channel=0 note=76 velocity=0 time=0
note_on channel=0 note=74 velocity=51 time=0
note_on channel=0 note=57 velocity=32 time=0
<meta message set_tempo tempo=1200000 time=120>
note_on channel=0 note=57 velocity=0 time=0
note_on channel=0 note=74 velocity=0 time=0
note_on channel=0 note=73 velocity=51 time=0
note_on channel=0 note=64 velocity=28 time=0
<meta message set_tempo tempo=1071429 time=120>
note_on channel=0 note=64 velocity=0 time=0
note_on channel=0 note=73 velocity=0 time=0
note_on channel=0 note=73 velocity=55 time=0
note_on channel=0 note=56 velocity=37 time=0
control_change channel=0 control=64 value=0 time=7
control_change channel=0 control=64 value=127 time=28
note_on channel=0 note=56 velocity=0 time=85
note_on channel=0 note=64 velocity=29 time=0
<meta message set_tempo tempo=1132075 time=120>
note_on channel=0 note=64 velocity=0 time=0
note_on channel=0 note=73 velocity=0 time=0
note_on channel=0 note=71 velocity=55 time=0
note_on channel=0 note=63 velocity=33 time=0
control_change channel=0 control=64 value=0 time=5
control_change channel=0 control=64 value=127 time=64
note_on channel=0 note=63 velocity=0 time=51
note_on channel=0 note=64 velocity=30 time=0
<meta message set_tempo tempo=1034483 time=120>
note_on channel=0 note=64 velocity=0 time=0
note_on channel=0 note=56 velocity=37 time=0
note_on channel=0 note=56 velocity=0 time=120
note_on channel=0 note=64 velocity=31 time=0
<meta message set_tempo tempo=1071429 time=120>
note_on channel=0 note=64 velocity=0 time=0
note_on channel=0 note=71 velocity=0 time=0
note_on channel=0 note=71 velocity=51 time=0
note_on channel=0 note=63 velocity=33 time=0
<meta message set_tempo tempo=1016949 time=60>
note_on channel=0 note=63 velocity=0 time=60
note_on channel=0 note=64 velocity=30 time=0
<meta message set_tempo tempo=1052632 time=120>
note_on channel=0 note=64 velocity=0 time=0
note_on channel=0 note=56 velocity=37 time=0
note_on channel=0 note=56 velocity=0 time=120
note_on channel=0 note=73 velocity=47 time=0
note_on channel=0 note=64 velocity=30 time=0
note_on channel=0 note=73 velocity=0 time=40
note_on channel=0 note=71 velocity=47 time=0
note_on channel=0 note=71 velocity=0 time=40
note_on channel=0 note=70 velocity=47 time=0
<meta message set_tempo tempo=1132075 time=40>
note_on channel=0 note=70 velocity=0 time=0
note_on channel=0 note=64 velocity=0 time=0
note_on channel=0 note=71 velocity=0 time=0
note_on channel=0 note=71 velocity=51 time=0
note_on channel=0 note=57 velocity=33 time=0
<meta message set_tempo tempo=1224490 time=120>
note_on channel=0 note=57 velocity=0 time=0
note_on channel=0 note=71 velocity=0 time=0
note_on channel=0 note=73 velocity=51 time=0
note_on channel=0 note=64 velocity=30 time=0
<meta message set_tempo tempo=1034483 time=120>
note_on channel=0 note=64 velocity=0 time=0
note_on channel=0 note=73 velocity=0 time=0
note_on channel=0 note=76 velocity=54 time=0
note_on channel=0 note=59 velocity=37 time=0
control_change channel=0 control=64 value=0 time=7
control_change channel=0 control=64 value=127 time=36
note_on channel=0 note=59 velocity=0 time=77
note_on channel=0 note=64 velocity=29 time=0
<meta message set_tempo tempo=1111111 time=120>
note_on channel=0 note=64 velocity=0 time=0
note_on channel=0 note=76 velocity=0 time=0
note_on channel=0 note=74 velocity=51 time=0
note_on channel=0 note=63 velocity=31 time=0
note_on channel=0 note=63 velocity=0 time=120
note_on channel=0 note=74 velocity=0 time=0
note_on channel=0 note=64 velocity=28 time=0
<meta message set_tempo tempo=1071429 time=120>
note_on channel=0 note=64 velocity=0 time=0
note_on channel=0 note=85 velocity=60 time=0
note_on channel=0 note=56 velocity=34 time=0
control_change channel=0 control=64 value=0 time=11
control_change channel=0 control=64 value=127 time=44
note_on channel=0 note=56 velocity=0 time=65
note_on channel=0 note=64 velocity=25 time=0
<meta message set_tempo tempo=1153846 time=120>
note_on channel=0 note=64 velocity=0 time=0
note_on channel=0 note=85 velocity=0 time=0
note_on channel=0 note=86 velocity=57 time=0
note_on channel=0 note=59 velocity=28 time=0
note_on channel=0 note=59 velocity=0 time=120
note_on channel=0 note=86 velocity=0 time=0
note_on channel=0 note=64 velocity=26 time=0
note_on channel=0 note=74 velocity=51 time=60
<meta message set_tempo tempo=1052632 time=60>
note_on channel=0 note=74 velocity=0 time=0
note_on channel=0 note=64 velocity=0 time=0
note_on channel=0 note=76 velocity=57 time=0
note_on channel=0 note=52 velocity=40 time=0
control_change channel=0 control=64 value=0 time=10
control_change channel=0 control=64 value=127 time=50
note_on channel=0 note=52 velocity=0 time=60
note_on channel=0 note=76 velocity=0 time=0
note_on channel=0 note=74 velocity=51 time=0
note_on channel=0 note=64 velocity=30 time=0
note_on channel=0 note=64 velocity=0 time=120
note_on channel=0 note=74 velocity=0 time=0
note_on channel=0 note=73 velocity=51 time=0
note_on channel=0 note=56 velocity=33 time=0
<meta message set_tempo tempo=1153846 time=120>
note_on channel=0 note=56 velocity=0 time=0
note_on channel=0 note=73 velocity=0 time=0
note_on channel=0 note=71 velocity=51 time=0
note_on channel=0 note=64 velocity=30 time=0
note_on channel=0 note=71 velocity=0 time=112
<meta message set_tempo tempo=1090909 time=8>
note_on channel=0 note=64 velocity=0 time=0
note_on channel=0 note=71 velocity=57 time=0
note_on channel=0 note=54 velocity=39 time=0
control_change channel=0 control=64 value=0 time=4
control_change channel=0 control=64 value=127 time=65
<meta message set_tempo tempo=983607 time=51>
note_on channel=0 note=54 velocity=0 time=0
note_on channel=0 note=64 velocity=28 time=0
<meta message set_tempo tempo=1090909 time=120>
note_on channel=0 note=64 velocity=0 time=0
note_on channel=0 note=71 velocity=0 time=0
note_on channel=0 note=69 velocity=54 time=0
note_on channel=0 note=63 velocity=31 time=0
control_change channel=0 control=64 value=0 time=10
<meta message set_tempo tempo=1052632 time=50>
control_change channel=0 control=64 value=127 time=26
note_on channel=0 note=63 velocity=0 time=34
note_on channel=0 note=64 velocity=27 time=0
<meta message set_tempo tempo=1034483 time=120>
note_on channel=0 note=64 velocity=0 time=0
note_on channel=0 note=54 velocity=42 time=0
note_on channel=0 note=54 velocity=0 time=120
note_on channel=0 note=69 velocity=0 time=0
note_on channel=0 note=69 velocity=57 time=0
note_on channel=0 note=64 velocity=32 time=0
<meta message set_tempo tempo=1115864 time=120>
note_on channel=0 note=64 velocity=0 time=0
note_on channel=0 note=69 velocity=0 time=0
note_on channel=0 note=74 velocity=61 time=0
note_on channel=0 note=63 velocity=36 time=0
<meta message set_tempo tempo=1253656 time=120>
note_on channel=0 note=63 velocity=0 time=0
note_on channel=0 note=74 velocity=0 time=0
note_on channel=0 note=73 velocity=57 time=0
note_on channel=0 note=64 velocity=34 time=0
<meta message set_tempo tempo=1052632 time=120>
note_on channel=0 note=64 velocity=0 time=0
note_on channel=0 note=73 velocity=0 time=0
note_on channel=0 note=70 velocity=61 time=0
note_on channel=0 note=56 velocity=42 time=0
control_change channel=0 control=64 value=0 time=8
control_change channel=0 control=64 value=127 time=95
note_on channel=0 note=56 velocity=0 time=17
note_on channel=0 note=70 velocity=0 time=0
note_on channel=0 note=71 velocity=57 time=0
note_on channel=0 note=64 velocity=35 time=0
note_on channel=0 note=64 velocity=0 time=120
note_on channel=0 note=71 velocity=0 time=0
note_on channel=0 note=76 velocity=57 time=0
note_on channel=0 note=63 velocity=36 time=0
note_on channel=0 note=63 velocity=0 time=120
note_on channel=0 note=76 velocity=0 time=0
note_on channel=0 note=74 velocity=57 time=0
note_on channel=0 note=64 velocity=34 time=0
<meta message set_tempo tempo=1111111 time=120>
note_on channel=0 note=64 velocity=0 time=0
note_on channel=0 note=74 velocity=0 time=0
note_on channel=0 note=72 velocity=60 time=0
note_on channel=0 note=57 velocity=42 time=0
control_change channel=0 control=64 value=0 time=10
control_change channel=0 control=64 value=127 time=65
note_on channel=0 note=72 velocity=0 time=45
note_on channel=0 note=73 velocity=57 time=0
note_on channel=0 note=73 velocity=0 time=120
note_on channel=0 note=81 velocity=60 time=0
note_on channel=0 note=81 velocity=0 time=108
note_on channel=0 note=81 velocity=61 time=12
<meta message set_tempo tempo=1071429 time=60>
<meta message set_tempo tempo=1052632 time=40>
note_on channel=0 note=81 velocity=0 time=8
note_on channel=0 note=57 velocity=0 time=12
note_on channel=0 note=81 velocity=62 time=0
<meta message set_tempo tempo=1052632 time=5>
<meta message set_tempo tempo=1071429 time=101>
note_on channel=0 note=81 velocity=0 time=2
note_on channel=0 note=81 velocity=64 time=12
<meta message set_tempo tempo=1090909 time=87>
note_on channel=0 note=81 velocity=0 time=21
note_on channel=0 note=81 velocity=66 time=12
<meta message set_tempo tempo=1111111 time=43>
note_on channel=0 note=81 velocity=0 time=65
note_on channel=0 note=81 velocity=68 time=12
<meta message set_tempo tempo=1132075 time=24>
<meta message set_tempo tempo=1153846 time=76>
note_on channel=0 note=81 velocity=0 time=8
<meta message set_tempo tempo=1132075 time=12>
note_on channel=0 note=81 velocity=69 time=0
note_on channel=0 note=50 velocity=37 time=0
note_on channel=0 note=54 velocity=43 time=0
note_on channel=0 note=59 velocity=51 time=0
control_change channel=0 control=64 value=0 time=10
note_on channel=0 note=81 velocity=0 time=110
note_on channel=0 note=78 velocity=59 time=0
control_change channel=0 control=64 value=127 time=0
note_on channel=0 note=78 velocity=0 time=120
note_on channel=0 note=74 velocity=62 time=0
note_on channel=0 note=74 velocity=0 time=120
note_on channel=0 note=71 velocity=59 time=0
<meta message set_tempo tempo=1188354 time=120>
note_on channel=0 note=71 velocity=0 time=0
note_on channel=0 note=59 velocity=0 time=0
note_on channel=0 note=54 velocity=0 time=0
note_on channel=0 note=50 velocity=0 time=0
note_on channel=0 note=76 velocity=64 time=0
note_on channel=0 note=52 velocity=44 time=0
note_on channel=0 note=57 velocity=44 time=0
note_on channel=0 note=61 velocity=54 time=0
control_change channel=0 control=64 value=0 time=10
control_change channel=0 control=64 value=127 time=76
note_on channel=0 note=76 velocity=0 time=34
note_on channel=0 note=78 velocity=59 time=0
note_on channel=0 note=78 velocity=0 time=40
note_on channel=0 note=76 velocity=59 time=0
note_on channel=0 note=76 velocity=0 time=40
note_on channel=0 note=75 velocity=59 time=0
note_on channel=0 note=75 velocity=0 time=40
note_on channel=0 note=76 velocity=64 time=0
<meta message set_tempo tempo=1188354 time=120>
note_on channel=0 note=76 velocity=0 time=0
note_on channel=0 note=78 velocity=61 time=0
<meta message set_tempo tempo=1111111 time=120>
note_on channel=0 note=78 velocity=0 time=0
note_on channel=0 note=69 velocity=66 time=0
control_change channel=0 control=64 value=0 time=10
control_change channel=0 control=64 value=127 time=110
<meta message set_tempo tempo=1236858 time=360>
note_on channel=0 note=61 velocity=0 time=0
note_on channel=0 note=57 velocity=0 time=0
note_on channel=0 note=62 velocity=46 time=0
note_on channel=0 note=59 velocity=34 time=0
control_change channel=0 control=64 value=0 time=10
note_on channel=0 note=69 velocity=0 time=230
note_on channel=0 note=71 velocity=45 time=0
note_on channel=0 note=68 velocity=45 time=0
note_on channel=0 note=68 velocity=0 time=228
note_on channel=0 note=71 velocity=0 time=0
note_on channel=0 note=59 velocity=0 time=12
note_on channel=0 note=62 velocity=0 time=0
note_on channel=0 note=52 velocity=0 time=0
note_on channel=0 note=68 velocity=52 time=0
note_on channel=0 note=71 velocity=52 time=0
note_on channel=0 note=62 velocity=33 time=0
note_on channel=0 note=57 velocity=33 time=0
note_on channel=0 note=64 velocity=39 time=0
control_change channel=0 control=64 value=127 time=23
<meta message set_tempo tempo=1188354 time=277>
<meta message set_tempo tempo=1204094 time=420>
note_on channel=0 note=71 velocity=0 time=0
note_on channel=0 note=72 velocity=51 time=0
control_change channel=0 control=64 value=0 time=10
<meta message set_tempo tempo=1220008 time=230>
note_on channel=0 note=72 velocity=0 time=0
note_on channel=0 note=68 velocity=0 time=0
note_on channel=0 note=62 velocity=0 time=0
note_on channel=0 note=73 velocity=51 time=0
note_on channel=0 note=69 velocity=51 time=0
note_on channel=0 note=61 velocity=39 time=0
control_change channel=0 control=64 value=127 time=55
note_on channel=0 note=69 velocity=0 time=365
note_on channel=0 note=73 velocity=0 time=0
note_on channel=0 note=64 velocity=61 time=0
note_on channel=0 note=64 velocity=0 time=30
note_on channel=0 note=69 velocity=62 time=0
<meta message set_tempo tempo=1111111 time=30>
note_on channel=0 note=69 velocity=0 time=0
note_on channel=0 note=64 velocity=0 time=0
note_on channel=0 note=57 velocity=0 time=0
note_on channel=0 note=61 velocity=0 time=0
note_on channel=0 note=73 velocity=68 time=0
note_on channel=0 note=45 velocity=61 time=0
control_change channel=0 control=64 value=0 time=11
control_change channel=0 control=64 value=127 time=24
note_on channel=0 note=45 velocity=0 time=85
note_on channel=0 note=49 velocity=50 time=0
note_on channel=0 note=49 velocity=0 time=120
note_on channel=0 note=52 velocity=54 time=0
note_on channel=0 note=52 velocity=0 time=120
note_on channel=0 note=57 velocity=50 time=0
<meta message set_tempo tempo=1090909 time=120>
note_on channel=0 note=57 velocity=0 time=0
note_on channel=0 note=45 velocity=61 time=0
control_change channel=0 control=64 value=0 time=9
control_change channel=0 control=64 value=127 time=26
<meta message set_tempo tempo=1052632 time=25>
note_on channel=0 note=73 velocity=0 time=20
note_on channel=0 note=76 velocity=63 time=0
note_on channel=0 note=45 velocity=0 time=40
note_on channel=0 note=49 velocity=50 time=0
note_on channel=0 note=76 velocity=0 time=40
note_on channel=0 note=74 velocity=63 time=0
note_on channel=0 note=74 velocity=0 time=80
note_on channel=0 note=49 velocity=0 time=0
note_on channel=0 note=73 velocity=66 time=0
note_on channel=0 note=52 velocity=54 time=0
note_on channel=0 note=73 velocity=0 time=80
note_on channel=0 note=74 velocity=62 time=0
note_on channel=0 note=52 velocity=0 time=40
note_on channel=0 note=57 velocity=50 time=0
note_on channel=0 note=74 velocity=0 time=40
note_on channel=0 note=76 velocity=62 time=0
note_on channel=0 note=76 velocity=0 time=80
note_on channel=0 note=57 velocity=0 time=0
note_on channel=0 note=74 velocity=66 time=0
note_on channel=0 note=47 velocity=61 time=0
control_change channel=0 control=64 value=0 time=3
control_change channel=0 control=64 value=127 time=29
note_on channel=0 note=74 velocity=0 time=48
note_on channel=0 note=78 velocity=62 time=0
note_on channel=0 note=47 velocity=0 time=40
note_on channel=0 note=50 velocity=52 time=0
note_on channel=0 note=78 velocity=0 time=40
note_on channel=0 note=76 velocity=62 time=0
note_on channel=0 note=76 velocity=0 time=80
note_on channel=0 note=50 velocity=0 time=0
note_on channel=0 note=74 velocity=66 time=0
note_on channel=0 note=56 velocity=56 time=0
note_on channel=0 note=74 velocity=0 time=80
note_on channel=0 note=76 velocity=63 time=0
note_on channel=0 note=56 velocity=0 time=40
note_on channel=0 note=59 velocity=52 time=0
note_on channel=0 note=76 velocity=0 time=40
note_on channel=0 note=78 velocity=63 time=0
<meta message set_tempo tempo=1143947 time=8>
<meta message set_tempo tempo=1111111 time=24>
<meta message set_tempo tempo=1111111 time=48>
note_on channel=0 note=78 velocity=0 time=0
note_on channel=0 note=59 velocity=0 time=0
note_on channel=0 note=76 velocity=62 time=0
note_on channel=0 note=49 velocity=51 time=0
note_on channel=0 note=57 velocity=61 time=0
control_change channel=0 control=64 value=0 time=8
control_change channel=0 control=64 value=127 time=29
note_on channel=0 note=76 velocity=0 time=23
note_on channel=0 note=69 velocity=63 time=0
note_on channel=0 note=69 velocity=0 time=60
note_on channel=0 note=71 velocity=64 time=0
note_on channel=0 note=71 velocity=0 time=60
note_on channel=0 note=73 velocity=65 time=0
note_on channel=0 note=73 velocity=0 time=60
note_on channel=0 note=74 velocity=65 time=0
<meta message set_tempo tempo=1052632 time=60>
note_on channel=0 note=74 velocity=0 time=0
note_on channel=0 note=76 velocity=65 time=0
<meta message set_tempo tempo=1090909 time=36>
note_on channel=0 note=76 velocity=0 time=24
note_on channel=0 note=78 velocity=66 time=0
note_on channel=0 note=78 velocity=0 time=60
note_on channel=0 note=80 velocity=67 time=0
note_on channel=0 note=80 velocity=0 time=60
note_on channel=0 note=81 velocity=68 time=0
note_on channel=0 note=81 velocity=0 time=60
note_on channel=0 note=83 velocity=69 time=0
note_on channel=0 note=83 velocity=0 time=60
note_on channel=0 note=85 velocity=70 time=0
note_on channel=0 note=85 velocity=0 time=60
note_on channel=0 note=83 velocity=71 time=0
<meta message set_tempo tempo=1071429 time=60>
note_on channel=0 note=83 velocity=0 time=0
note_on channel=0 note=81 velocity=71 time=0
note_on channel=0 note=81 velocity=0 time=60
note_on channel=0 note=80 velocity=70 time=0
<meta message set_tempo tempo=1115864 time=12>
note_on channel=0 note=80 velocity=0 time=48
note_on channel=0 note=78 velocity=70 time=0
note_on channel=0 note=78 velocity=0 time=60
note_on channel=0 note=77 velocity=69 time=0
<meta message set_tempo tempo=1129944 time=52>
note_on channel=0 note=77 velocity=0 time=8
note_on channel=0 note=57 velocity=0 time=0
note_on channel=0 note=49 velocity=0 time=0
note_on channel=0 note=78 velocity=68 time=0
note_on channel=0 note=50 velocity=56 time=0
note_on channel=0 note=57 velocity=66 time=0
control_change channel=0 control=64 value=0 time=10
control_change channel=0 control=64 value=127 time=47
note_on channel=0 note=78 velocity=0 time=3
note_on channel=0 note=80 velocity=67 time=0
note_on channel=0 note=80 velocity=0 time=60
note_on channel=0 note=81 velocity=65 time=0
note_on channel=0 note=81 velocity=0 time=60
note_on channel=0 note=80 velocity=64 time=0
<meta message set_tempo tempo=1143947 time=4>
note_on channel=0 note=80 velocity=0 time=56
note_on channel=0 note=83 velocity=62 time=0
note_on channel=0 note=83 velocity=0 time=60
note_on channel=0 note=81 velocity=61 time=0
<meta message set_tempo tempo=1158525 time=44>
note_on channel=0 note=81 velocity=0 time=16
note_on channel=0 note=80 velocity=59 time=0
note_on channel=0 note=80 velocity=0 time=60
note_on channel=0 note=78 velocity=58 time=0
<meta message set_tempo tempo=1307474 time=60>
note_on channel=0 note=78 velocity=0 time=0
note_on channel=0 note=57 velocity=0 time=0
note_on channel=0 note=50 velocity=0 time=0
note_on channel=0 note=76 velocity=62 time=0
note_on channel=0 note=52 velocity=35 time=0
note_on channel=0 note=61 velocity=42 time=0
control_change channel=0 control=64 value=0 time=6
control_change channel=0 control=64 value=127 time=26
note_on channel=0 note=76 velocity=0 time=28
note_on channel=0 note=88 velocity=52 time=60
<meta message set_tempo tempo=1158525 time=60>
note_on channel=0 note=88 velocity=0 time=60
note_on channel=0 note=85 velocity=52 time=0
<meta message set_tempo tempo=1143947 time=60>
<meta message set_tempo tempo=1236858 time=60>
note_on channel=0 note=85 velocity=0 time=0
note_on channel=0 note=81 velocity=60 time=0
<meta message set_tempo tempo=1288937 time=120>
note_on channel=0 note=81 velocity=0 time=0
note_on channel=0 note=61 velocity=0 time=0
note_on channel=0 note=52 velocity=0 time=0
note_on channel=0 note=76 velocity=52 time=0
note_on channel=0 note=52 velocity=35 time=0
note_on channel=0 note=61 velocity=42 time=0
note_on channel=0 note=76 velocity=0 time=60
<meta message set_tempo tempo=1143947 time=60>
note_on channel=0 note=81 velocity=52 time=0
<meta message set_tempo tempo=1143947 time=120>
note_on channel=0 note=81 velocity=0 time=0
note_on channel=0 note=76 velocity=51 time=0
<meta message set_tempo tempo=1271186 time=120>
note_on channel=0 note=76 velocity=0 time=0
note_on channel=0 note=73 velocity=51 time=0
<meta message set_tempo tempo=1271186 time=120>
note_on channel=0 note=73 velocity=0 time=0
note_on channel=0 note=61 velocity=0 time=0
note_on channel=0 note=52 velocity=0 time=0
note_on channel=0 note=76 velocity=57 time=0
note_on channel=0 note=52 velocity=31 time=0
note_on channel=0 note=56 velocity=31 time=0
note_on channel=0 note=62 velocity=37 time=0
control_change channel=0 control=64 value=0 time=8
control_change channel=0 control=64 value=127 time=47
<meta message set_tempo tempo=1158525 time=65>
note_on channel=0 note=76 velocity=0 time=0
note_on channel=0 note=74 velocity=51 time=0
<meta message set_tempo tempo=1188354 time=60>
note_on channel=0 note=74 velocity=0 time=60
note_on channel=0 note=73 velocity=51 time=0
<meta message set_tempo tempo=1452785 time=120>
note_on channel=0 note=73 velocity=0 time=0
note_on channel=0 note=71 velocity=51 time=0
note_on channel=0 note=71 velocity=0 time=113
<meta message set_tempo tempo=1288937 time=7>
note_on channel=0 note=62 velocity=0 time=0
note_on channel=0 note=56 velocity=0 time=0
note_on channel=0 note=52 velocity=0 time=0
note_on channel=0 note=68 velocity=51 time=0
note_on channel=0 note=71 velocity=58 time=0
note_on channel=0 note=57 velocity=34 time=0
note_on channel=0 note=62 velocity=41 time=0
control_change channel=0 control=64 value=0 time=4
control_change channel=0 control=64 value=127 time=79
note_on channel=0 note=62 velocity=0 time=397
note_on channel=0 note=68 velocity=0 time=0
note_on channel=0 note=71 velocity=0 time=0
note_on channel=0 note=69 velocity=52 time=0
note_on channel=0 note=61 velocity=41 time=0
control_change channel=0 control=64 value=0 time=10
<meta message set_tempo tempo=1153846 time=36>
note_on channel=0 note=69 velocity=0 time=34
note_on channel=0 note=64 velocity=45 time=0
note_on channel=0 note=64 velocity=0 time=60
<meta message set_tempo tempo=1132075 time=2>
note_on channel=0 note=66 velocity=45 time=18
<meta message set_tempo tempo=1111111 time=54>
note_on channel=0 note=66 velocity=0 time=6
note_on channel=0 note=67 velocity=50 time=20
<meta message set_tempo tempo=1090909 time=46>
note_on channel=0 note=67 velocity=0 time=14
note_on channel=0 note=68 velocity=47 time=20
<meta message set_tempo tempo=1071429 time=38>
note_on channel=0 note=68 velocity=0 time=22
note_on channel=0 note=69 velocity=47 time=20
<meta message set_tempo tempo=1052632 time=30>
note_on channel=0 note=69 velocity=0 time=30
note_on channel=0 note=61 velocity=0 time=20
note_on channel=0 note=57 velocity=0 time=0
note_on channel=0 note=70 velocity=49 time=0
<meta message set_tempo tempo=1034483 time=22>
note_on channel=0 note=70 velocity=0 time=38
note_on channel=0 note=71 velocity=44 time=20
<meta message set_tempo tempo=1052632 time=14>
note_on channel=0 note=71 velocity=0 time=46
<meta message set_tempo tempo=1071429 time=2>
note_on channel=0 note=72 velocity=44 time=18
<meta message set_tempo tempo=1090909 time=30>
note_on channel=0 note=72 velocity=0 time=30
<meta message set_tempo tempo=1111111 time=18>
note_on channel=0 note=73 velocity=48 time=2
<meta message set_tempo tempo=1132075 time=46>
note_on channel=0 note=73 velocity=0 time=14
<meta message set_tempo tempo=1090909 time=10>
note_on channel=0 note=74 velocity=44 time=10
<meta message set_tempo tempo=1111111 time=30>
note_on channel=0 note=74 velocity=0 time=30
<meta message set_tempo tempo=1132075 time=10>
note_on channel=0 note=75 velocity=44 time=10
<meta message set_tempo tempo=1176471 time=2>
<meta message set_tempo tempo=1224490 time=20>
note_on channel=0 note=75 velocity=0 time=38
<meta message set_tempo tempo=1132075 time=20>
note_on channel=0 note=76 velocity=57 time=0
note_on channel=0 note=57 velocity=39 time=0
control_change channel=0 control=64 value=127 time=34
note_on channel=0 note=57 velocity=0 time=86
note_on channel=0 note=69 velocity=29 time=0
<meta message set_tempo tempo=1052632 time=120>
note_on channel=0 note=69 velocity=0 time=0
note_on channel=0 note=61 velocity=36 time=0
note_on channel=0 note=61 velocity=0 time=120
note_on channel=0 note=76 velocity=0 time=0
note_on channel=0 note=78 velocity=47 time=0
note_on channel=0 note=69 velocity=32 time=0
note_on channel=0 note=78 velocity=0 time=60
note_on channel=0 note=76 velocity=47 time=0
<meta message set_tempo tempo=1034483 time=60>
note_on channel=0 note=76 velocity=0 time=0
note_on channel=0 note=69 velocity=0 time=0
note_on channel=0 note=74 velocity=58 time=0
note_on channel=0 note=57 velocity=45 time=0
control_change channel=0 control=64 value=0 time=9
control_change channel=0 control=64 value=127 time=51
note_on channel=0 note=57 velocity=0 time=60
note_on channel=0 note=68 velocity=34 time=0
<meta message set_tempo tempo=1071429 time=120>
note_on channel=0 note=68 velocity=0 time=0
note_on channel=0 note=74 velocity=0 time=0
note_on channel=0 note=73 velocity=53 time=0
note_on channel=0 note=59 velocity=37 time=0
note_on channel=0 note=59 velocity=0 time=120
note_on channel=0 note=68 velocity=34 time=0
<meta message set_tempo tempo=1071429 time=120>
note_on channel=0 note=68 velocity=0 time=0
note_on channel=0 note=73 velocity=0 time=0
note_on channel=0 note=71 velocity=57 time=0
note_on channel=0 note=57 velocity=47 time=0
control_change channel=0 control=64 value=0 time=6
control_change channel=0 control=64 value=127 time=37
note_on channel=0 note=57 velocity=0 time=77
note_on channel=0 note=67 velocity=36 time=0
note_on channel=0 note=67 velocity=0 time=120
note_on channel=0 note=71 velocity=0 time=0
note_on channel=0 note=69 velocity=52 time=0
note_on channel=0 note=61 velocity=42 time=0
<meta message set_tempo tempo=1224490 time=120>
note_on channel=0 note=61 velocity=0 time=0
note_on channel=0 note=67 velocity=38 time=0
<meta message set_tempo tempo=1071429 time=120>
note_on channel=0 note=67 velocity=0 time=0
note_on channel=0 note=69 velocity=0 time=0
note_on channel=0 note=69 velocity=61 time=0
note_on channel=0 note=57 velocity=48 time=0
control_change channel=0 control=64 value=0 time=10
control_change channel=0 control=64 value=127 time=50
note_on channel=0 note=57 velocity=0 time=60
note_on channel=0 note=66 velocity=41 time=0
<meta message set_tempo tempo=1071429 time=120>
note_on channel=0 note=66 velocity=0 time=0
note_on channel=0 note=62 velocity=44 time=0
note_on channel=0 note=62 velocity=0 time=120
note_on channel=0 note=69 velocity=0 time=0
note_on channel=0 note=78 velocity=55 time=0
note_on channel=0 note=66 velocity=41 time=0
note_on channel=0 note=78 velocity=0 time=109
<meta message set_tempo tempo=1016949 time=11>
note_on channel=0 note=66 velocity=0 time=0
note_on channel=0 note=78 velocity=59 time=0
note_on channel=0 note=54 velocity=52 time=0
note_on channel=0 note=54 velocity=0 time=120
note_on channel=0 note=62 velocity=41 time=0
note_on channel=0 note=62 velocity=0 time=120
note_on channel=0 note=57 velocity=45 time=0
note_on channel=0 note=57 velocity=0 time=120
note_on channel=0 note=62 velocity=41 time=0
note_on channel=0 note=62 velocity=0 time=118
<meta message set_tempo tempo=1071429 time=2>
note_on channel=0 note=78 velocity=0 time=0
note_on channel=0 note=62 velocity=68 time=0
note_on channel=0 note=50 velocity=51 time=0
control_change channel=0 control=64 value=0 time=0
control_change channel=0 control=64 value=127 time=71
note_on channel=0 note=50 velocity=0 time=49
note_on channel=0 note=57 velocity=43 time=0
note_on channel=0 note=57 velocity=0 time=120
note_on channel=0 note=54 velocity=46 time=0
note_on channel=0 note=54 velocity=0 time=120
note_on channel=0 note=57 velocity=43 time=0
<meta message set_tempo tempo=1071429 time=120>
note_on channel=0 note=57 velocity=0 time=0
note_on channel=0 note=45 velocity=56 time=0
control_change channel=0 control=64 value=0 time=4
control_change channel=0 control=64 value=127 time=31
note_on channel=0 note=62 velocity=0 time=25
note_on channel=0 note=66 velocity=44 time=0
note_on channel=0 note=66 velocity=0 time=60
note_on channel=0 note=45 velocity=0 time=0
note_on channel=0 note=64 velocity=45 time=0
note_on channel=0 note=54 velocity=47 time=0
note_on channel=0 note=64 velocity=0 time=60
note_on channel=0 note=62 velocity=46 time=0
note_on channel=0 note=62 velocity=0 time=60
note_on channel=0 note=54 velocity=0 time=0
note_on channel=0 note=64 velocity=47 time=0
note_on channel=0 note=50 velocity=49 time=0
note_on channel=0 note=64 velocity=0 time=60
note_on channel=0 note=66 velocity=48 time=0
note_on channel=0 note=66 velocity=0 time=60
note_on channel=0 note=50 velocity=0 time=0
note_on channel=0 note=67 velocity=49 time=0
note_on channel=0 note=54 velocity=47 time=0
note_on channel=0 note=67 velocity=0 time=60
note_on channel=0 note=69 velocity=50 time=0
<meta message set_tempo tempo=1173250 time=14>
<meta message set_tempo tempo=1052632 time=46>
note_on channel=0 note=69 velocity=0 time=0
note_on channel=0 note=54 velocity=0 time=0
note_on channel=0 note=71 velocity=51 time=0
note_on channel=0 note=45 velocity=60 time=0
note_on channel=0 note=71 velocity=0 time=60
note_on channel=0 note=73 velocity=52 time=0
note_on channel=0 note=73 velocity=0 time=60
note_on channel=0 note=45 velocity=0 time=0
note_on channel=0 note=74 velocity=53 time=0
note_on channel=0 note=54 velocity=52 time=0
note_on channel=0 note=74 velocity=0 time=60
note_on channel=0 note=76 velocity=54 time=0
note_on channel=0 note=76 velocity=0 time=60
note_on channel=0 note=54 velocity=0 time=0
note_on channel=0 note=78 velocity=55 time=0
note_on channel=0 note=50 velocity=55 time=0
note_on channel=0 note=78 velocity=0 time=80
note_on channel=0 note=79 velocity=56 time=0
<meta message set_tempo tempo=1111111 time=40>
note_on channel=0 note=50 velocity=0 time=0
note_on channel=0 note=54 velocity=58 time=0
<meta message set_tempo tempo=1158525 time=10>
note_on channel=0 note=79 velocity=0 time=30
note_on channel=0 note=81 velocity=57 time=0
<meta message set_tempo tempo=1132075 time=80>
note_on channel=0 note=81 velocity=0 time=0
note_on channel=0 note=54 velocity=0 time=0
note_on channel=0 note=83 velocity=62 time=0
note_on channel=0 note=45 velocity=70 time=0
note_on channel=0 note=45 velocity=0 time=120
note_on channel=0 note=83 velocity=0 time=0
note_on channel=0 note=85 velocity=68 time=0
note_on channel=0 note=54 velocity=59 time=0
note_on channel=0 note=54 velocity=0 time=120
note_on channel=0 note=85 velocity=0 time=0
note_on channel=0 note=86 velocity=75 time=0
note_on channel=0 note=50 velocity=61 time=0
<meta message set_tempo tempo=1429933 time=60>
note_on channel=0 note=50 velocity=0 time=60
note_on channel=0 note=54 velocity=57 time=0
note_on channel=0 note=86 velocity=0 time=60
note_on channel=0 note=78 velocity=61 time=0
<meta message set_tempo tempo=1188354 time=60>
note_on channel=0 note=78 velocity=0 time=0
note_on channel=0 note=54 velocity=0 time=0
note_on channel=0 note=81 velocity=68 time=0
note_on channel=0 note=45 velocity=70 time=0
note_on channel=0 note=50 velocity=70 time=0
control_change channel=0 control=64 value=0 time=10
control_change channel=0 control=64 value=127 time=59
note_on channel=0 note=81 velocity=0 time=291
note_on channel=0 note=78 velocity=60 time=0
<meta message set_tempo tempo=1132075 time=120>
note_on channel=0 note=78 velocity=0 time=0
note_on channel=0 note=50 velocity=0 time=0
note_on channel=0 note=45 velocity=0 time=0
note_on channel=0 note=76 velocity=65 time=0
note_on channel=0 note=45 velocity=53 time=0
note_on channel=0 note=49 velocity=53 time=0
control_change channel=0 control=64 value=0 time=9
control_change channel=0 control=64 value=127 time=48
note_on channel=0 note=76 velocity=0 time=171
note_on channel=0 note=76 velocity=57 time=12
note_on channel=0 note=76 velocity=0 time=228
note_on channel=0 note=49 velocity=0 time=12
note_on channel=0 note=45 velocity=0 time=0
note_on channel=0 note=76 velocity=57 time=0
note_on channel=0 note=76 velocity=0 time=228
<meta message set_tempo tempo=1153846 time=12>
note_on channel=0 note=76 velocity=57 time=0
note_on channel=0 note=76 velocity=0 time=228
<meta message set_tempo tempo=1052632 time=12>
note_on channel=0 note=78 velocity=60 time=0
note_on channel=0 note=61 velocity=43 time=0
note_on channel=0 note=57 velocity=43 time=0
note_on channel=0 note=64 velocity=51 time=0
control_change channel=0 control=64 value=0 time=10
<meta message set_tempo tempo=1090909 time=50>
note_on channel=0 note=78 velocity=0 time=60
note_on channel=0 note=76 velocity=50 time=0
control_change channel=0 control=64 value=127 time=36
<meta message set_tempo tempo=1052632 time=24>
note_on channel=0 note=76 velocity=0 time=60
note_on channel=0 note=73 velocity=50 time=0
<meta message set_tempo tempo=1153846 time=120>
note_on channel=0 note=73 velocity=0 time=0
note_on channel=0 note=71 velocity=50 time=0
<meta message set_tempo tempo=1090909 time=120>
note_on channel=0 note=71 velocity=0 time=0
note_on channel=0 note=69 velocity=55 time=0
note_on channel=0 note=69 velocity=0 time=240
note_on channel=0 note=76 velocity=46 time=0
note_on channel=0 note=76 velocity=0 time=228
note_on channel=0 note=76 velocity=46 time=12
note_on channel=0 note=76 velocity=0 time=228
note_on channel=0 note=76 velocity=46 time=12
note_on channel=0 note=76 velocity=0 time=228
<meta message set_tempo tempo=1034483 time=12>
note_on channel=0 note=64 velocity=0 time=0
note_on channel=0 note=57 velocity=0 time=0
note_on channel=0 note=61 velocity=0 time=0
note_on channel=0 note=78 velocity=61 time=0
note_on channel=0 note=59 velocity=43 time=0
note_on channel=0 note=64 velocity=51 time=0
note_on channel=0 note=62 velocity=43 time=0
control_change channel=0 control=64 value=0 time=9
control_change channel=0 control=64 value=127 time=90
<meta message set_tempo tempo=1052632 time=21>
note_on channel=0 note=78 velocity=0 time=0
note_on channel=0 note=76 velocity=51 time=0
note_on channel=0 note=76 velocity=0 time=120
note_on channel=0 note=74 velocity=51 time=0
<meta message set_tempo tempo=1132075 time=60>
note_on channel=0 note=74 velocity=0 time=60
note_on channel=0 note=71 velocity=51 time=0
<meta message set_tempo tempo=1158525 time=60>
<meta message set_tempo tempo=1111111 time=60>
note_on channel=0 note=71 velocity=0 time=0
note_on channel=0 note=68 velocity=54 time=0
note_on channel=0 note=68 velocity=0 time=240
note_on channel=0 note=76 velocity=52 time=0
note_on channel=0 note=76 velocity=0 time=228
note_on channel=0 note=76 velocity=53 time=12
note_on channel=0 note=76 velocity=0 time=228
note_on channel=0 note=76 velocity=55 time=12
note_on channel=0 note=76 velocity=0 time=228
<meta message set_tempo tempo=1071429 time=12>
note_on channel=0 note=62 velocity=0 time=0
note_on channel=0 note=64 velocity=0 time=0
note_on channel=0 note=59 velocity=0 time=0
note_on channel=0 note=78 velocity=65 time=0
note_on channel=0 note=64 velocity=54 time=0
note_on channel=0 note=57 velocity=45 time=0
note_on channel=0 note=61 velocity=45 time=0
control_change channel=0 control=64 value=0 time=6
control_change channel=0 control=64 value=127 time=69
note_on channel=0 note=78 velocity=0 time=45
note_on channel=0 note=76 velocity=55 time=0
note_on channel=0 note=76 velocity=0 time=120
note_on channel=0 note=73 velocity=58 time=0
<meta message set_tempo tempo=1153846 time=120>
note_on channel=0 note=73 velocity=0 time=0
note_on channel=0 note=69 velocity=54 time=0
<meta message set_tempo tempo=1034483 time=120>
note_on channel=0 note=69 velocity=0 time=0
note_on channel=0 note=61 velocity=0 time=0
note_on channel=0 note=57 velocity=0 time=0
note_on channel=0 note=64 velocity=0 time=0
note_on channel=0 note=78 velocity=68 time=0
note_on channel=0 note=56 velocity=45 time=0
note_on channel=0 note=59 velocity=45 time=0
note_on channel=0 note=64 velocity=53 time=0
control_change channel=0 control=64 value=0 time=6
control_change channel=0 control=64 value=127 time=86
note_on channel=0 note=78 velocity=0 time=28
note_on channel=0 note=76 velocity=56 time=0
note_on channel=0 note=76 velocity=0 time=120
note_on channel=0 note=74 velocity=59 time=0
<meta message set_tempo tempo=1111111 time=120>
note_on channel=0 note=74 velocity=0 time=0
note_on channel=0 note=71 velocity=54 time=0
<meta message set_tempo tempo=1016949 time=120>
note_on channel=0 note=71 velocity=0 time=0
note_on channel=0 note=64 velocity=0 time=0
note_on channel=0 note=59 velocity=0 time=0
note_on channel=0 note=56 velocity=0 time=0
note_on channel=0 note=78 velocity=70 time=0
note_on channel=0 note=57 velocity=45 time=0
note_on channel=0 note=64 velocity=53 time=0
note_on channel=0 note=61 velocity=45 time=0
control_change channel=0 control=64 value=0 time=5
control_change channel=0 control=64 value=127 time=75
note_on channel=0 note=78 velocity=0 time=40
note_on channel=0 note=76 velocity=56 time=0
note_on channel=0 note=76 velocity=0 time=120
note_on channel=0 note=73 velocity=60 time=0
<meta message set_tempo tempo=1271186 time=120>
note_on channel=0 note=73 velocity=0 time=0
note_on channel=0 note=69 velocity=55 time=0
<meta message set_tempo tempo=1143947 time=120>
note_on channel=0 note=69 velocity=0 time=0
note_on channel=0 note=61 velocity=0 time=0
note_on channel=0 note=64 velocity=0 time=0
note_on channel=0 note=57 velocity=0 time=0
note_on channel=0 note=73 velocity=71 time=0
note_on channel=0 note=61 velocity=57 time=0
note_on channel=0 note=52 velocity=43 time=0
note_on channel=0 note=57 velocity=48 time=0
control_change channel=0 control=64 value=0 time=10
control_change channel=0 control=64 value=127 time=127
note_on channel=0 note=57 velocity=0 time=343
note_on channel=0 note=73 velocity=0 time=0
note_on channel=0 note=61 velocity=0 time=0
note_on channel=0 note=71 velocity=61 time=0
note_on channel=0 note=56 velocity=43 time=0
note_on channel=0 note=59 velocity=51 time=0
control_change channel=0 control=64 value=0 time=11
control_change channel=0 control=64 value=127 time=86
note_on channel=0 note=71 velocity=0 time=23
note_on channel=0 note=64 velocity=44 time=0
<meta message set_tempo tempo=1102536 time=120>
note_on channel=0 note=64 velocity=0 time=0
note_on channel=0 note=76 velocity=53 time=0
<meta message set_tempo tempo=1089325 time=34>
note_on channel=0 note=76 velocity=0 time=86
note_on channel=0 note=64 velocity=40 time=0
<meta message set_tempo tempo=1102536 time=42>
note_on channel=0 note=64 velocity=0 time=78
note_on channel=0 note=59 velocity=0 time=0
note_on channel=0 note=56 velocity=0 time=0
note_on channel=0 note=52 velocity=0 time=0
note_on channel=0 note=75 velocity=51 time=0
<meta message set_tempo tempo=1115864 time=18>
note_on channel=0 note=75 velocity=0 time=102
note_on channel=0 note=64 velocity=39 time=0
<meta message set_tempo tempo=1129944 time=26>
note_on channel=0 note=64 velocity=0 time=94
note_on channel=0 note=74 velocity=52 time=0
<meta message set_tempo tempo=1143947 time=2>
note_on channel=0 note=74 velocity=0 time=118
note_on channel=0 note=64 velocity=40 time=0
<meta message set_tempo tempo=1158525 time=10>
<meta message set_tempo tempo=1173250 time=96>
<meta message set_tempo tempo=1132075 time=14>
note_on channel=0 note=64 velocity=0 time=0
note_on channel=0 note=73 velocity=55 time=0
note_on channel=0 note=57 velocity=37 time=0
control_change channel=0 control=64 value=0 time=7
control_change channel=0 control=64 value=127 time=74
note_on channel=0 note=57 velocity=0 time=39
note_on channel=0 note=64 velocity=29 time=0
note_on channel=0 note=64 velocity=0 time=120
note_on channel=0 note=61 velocity=33 time=0
<meta message set_tempo tempo=1111111 time=60>
note_on channel=0 note=61 velocity=0 time=60
note_on channel=0 note=64 velocity=28 time=0
<meta message set_tempo tempo=1132075 time=120>
note_on channel=0 note=64 velocity=0 time=0
note_on channel=0 note=73 velocity=0 time=0
note_on channel=0 note=73 velocity=51 time=0
note_on channel=0 note=57 velocity=42 time=0
<meta message set_tempo tempo=1052632 time=120>
note_on channel=0 note=57 velocity=0 time=0
note_on channel=0 note=64 velocity=33 time=0
note_on channel=0 note=64 velocity=0 time=120
note_on channel=0 note=61 velocity=37 time=0
note_on channel=0 note=61 velocity=0 time=120
note_on channel=0 note=64 velocity=28 time=0
<meta message set_tempo tempo=1000000 time=120>
note_on channel=0 note=64 velocity=0 time=0
note_on channel=0 note=57 velocity=42 time=0
note_on channel=0 note=57 velocity=0 time=120
note_on channel=0 note=73 velocity=0 time=0
note_on channel=0 note=74 velocity=48 time=0
note_on channel=0 note=64 velocity=30 time=0
note_on channel=0 note=74 velocity=0 time=40
note_on channel=0 note=73 velocity=47 time=0
note_on channel=0 note=73 velocity=0 time=40
note_on channel=0 note=71 velocity=47 time=0
<meta message set_tempo tempo=1090909 time=40>
note_on channel=0 note=71 velocity=0 time=0
note_on channel=0 note=64 velocity=0 time=0
note_on channel=0 note=73 velocity=47 time=0
note_on channel=0 note=59 velocity=37 time=0
<meta message set_tempo tempo=1153846 time=120>
note_on channel=0 note=59 velocity=0 time=0
note_on channel=0 note=73 velocity=0 time=0
note_on channel=0 note=74 velocity=51 time=0
note_on channel=0 note=64 velocity=30 time=0
<meta message set_tempo tempo=1034483 time=120>
note_on channel=0 note=64 velocity=0 time=0
note_on channel=0 note=74 velocity=0 time=0
note_on channel=0 note=78 velocity=54 time=0
note_on channel=0 note=61 velocity=44 time=0
control_change channel=0 control=64 value=0 time=7
control_change channel=0 control=64 value=127 time=36
note_on channel=0 note=61 velocity=0 time=77
note_on channel=0 note=64 velocity=27 time=0
<meta message set_tempo tempo=1090909 time=120>
note_on channel=0 note=64 velocity=0 time=0
note_on channel=0 note=78 velocity=0 time=0
note_on channel=0 note=76 velocity=51 time=0
note_on channel=0 note=57 velocity=31 time=0
<meta message set_tempo tempo=1153846 time=120>
note_on channel=0 note=57 velocity=0 time=0
note_on channel=0 note=76 velocity=0 time=0
note_on channel=0 note=64 velocity=27 time=0
<meta message set_tempo tempo=1071429 time=120>
note_on channel=0 note=64 velocity=0 time=0
note_on channel=0 note=87 velocity=61 time=0
note_on channel=0 note=61 velocity=34 time=0
control_change channel=0 control=64 value=0 time=10
control_change channel=0 control=64 value=127 time=43
note_on channel=0 note=61 velocity=0 time=67
note_on channel=0 note=64 velocity=26 time=0
<meta message set_tempo tempo=1173250 time=120>
note_on channel=0 note=64 velocity=0 time=0
note_on channel=0 note=87 velocity=0 time=0
note_on channel=0 note=88 velocity=57 time=0
note_on channel=0 note=57 velocity=28 time=0
note_on channel=0 note=57 velocity=0 time=120
note_on channel=0 note=88 velocity=0 time=0
note_on channel=0 note=64 velocity=26 time=0
note_on channel=0 note=76 velocity=51 time=60
<meta message set_tempo tempo=1016949 time=60>
note_on channel=0 note=76 velocity=0 time=0
note_on channel=0 note=64 velocity=0 time=0
note_on channel=0 note=78 velocity=57 time=0
note_on channel=0 note=61 velocity=37 time=0
control_change channel=0 control=64 value=0 time=11
control_change channel=0 control=64 value=127 time=53
note_on channel=0 note=61 velocity=0 time=56
note_on channel=0 note=78 velocity=0 time=0
note_on channel=0 note=76 velocity=51 time=0
note_on channel=0 note=64 velocity=29 time=0
note_on channel=0 note=64 velocity=0 time=120
note_on channel=0 note=76 velocity=0 time=0
note_on channel=0 note=74 velocity=51 time=0
note_on channel=0 note=57 velocity=32 time=0
<meta message set_tempo tempo=1200000 time=120>
note_on channel=0 note=57 velocity=0 time=0
note_on channel=0 note=74 velocity=0 time=0
note_on channel=0 note=73 velocity=51 time=0
note_on channel=0 note=64 velocity=28 time=0
note_on channel=0 note=73 velocity=0 time=112
<meta message set_tempo tempo=1052632 time=8>
note_on channel=0 note=64 velocity=0 time=0
note_on channel=0 note=73 velocity=55 time=0
note_on channel=0 note=56 velocity=37 time=0
control_change channel=0 control=64 value=0 time=7
control_change channel=0 control=64 value=127 time=28
note_on channel=0 note=56 velocity=0 time=85
note_on channel=0 note=64 velocity=30 time=0
<meta message set_tempo tempo=1071620 time=120>
note_on channel=0 note=64 velocity=0 time=0
note_on channel=0 note=73 velocity=0 time=0
note_on channel=0 note=71 velocity=55 time=0
note_on channel=0 note=63 velocity=33 time=0
control_change channel=0 control=64 value=0 time=5
control_change channel=0 control=64 value=127 time=64
note_on channel=0 note=63 velocity=0 time=51
note_on channel=0 note=64 velocity=29 time=0
<meta message set_tempo tempo=1071429 time=120>
note_on channel=0 note=64 velocity=0 time=0
note_on channel=0 note=56 velocity=37 time=0
note_on channel=0 note=56 velocity=0 time=120
note_on channel=0 note=64 velocity=30 time=0
<meta message set_tempo tempo=1071429 time=120>
note_on channel=0 note=64 velocity=0 time=0
note_on channel=0 note=71 velocity=0 time=0
note_on channel=0 note=71 velocity=51 time=0
note_on channel=0 note=63 velocity=33 time=0
<meta message set_tempo tempo=1034483 time=60>
note_on channel=0 note=63 velocity=0 time=60
note_on channel=0 note=64 velocity=28 time=0
<meta message set_tempo tempo=1052632 time=120>
note_on channel=0 note=64 velocity=0 time=0
note_on channel=0 note=56 velocity=37 time=0
note_on channel=0 note=56 velocity=0 time=120
note_on channel=0 note=73 velocity=47 time=0
note_on channel=0 note=64 velocity=30 time=0
note_on channel=0 note=73 velocity=0 time=40
note_on channel=0 note=71 velocity=47 time=0
note_on channel=0 note=71 velocity=0 time=40
note_on channel=0 note=70 velocity=47 time=0
<meta message set_tempo tempo=1132075 time=40>
note_on channel=0 note=70 velocity=0 time=0
note_on channel=0 note=64 velocity=0 time=0
note_on channel=0 note=71 velocity=0 time=0
note_on channel=0 note=71 velocity=51 time=0
note_on channel=0 note=57 velocity=33 time=0
<meta message set_tempo tempo=1200000 time=120>
note_on channel=0 note=57 velocity=0 time=0
note_on channel=0 note=71 velocity=0 time=0
note_on channel=0 note=73 velocity=51 time=0
note_on channel=0 note=64 velocity=28 time=0
<meta message set_tempo tempo=1034483 time=120>
note_on channel=0 note=64 velocity=0 time=0
note_on channel=0 note=73 velocity=0 time=0
note_on channel=0 note=76 velocity=54 time=0
note_on channel=0 note=59 velocity=37 time=0
control_change channel=0 control=64 value=0 time=7
control_change channel=0 control=64 value=127 time=36
note_on channel=0 note=59 velocity=0 time=77
note_on channel=0 note=64 velocity=28 time=0
<meta message set_tempo tempo=1111111 time=120>
note_on channel=0 note=64 velocity=0 time=0
note_on channel=0 note=76 velocity=0 time=0
note_on channel=0 note=74 velocity=51 time=0
note_on channel=0 note=63 velocity=31 time=0
note_on channel=0 note=63 velocity=0 time=120
note_on channel=0 note=74 velocity=0 time=0
note_on channel=0 note=64 velocity=27 time=0
<meta message set_tempo tempo=1071429 time=120>
note_on channel=0 note=64 velocity=0 time=0
note_on channel=0 note=85 velocity=60 time=0
note_on channel=0 note=56 velocity=34 time=0
control_change channel=0 control=64 value=0 time=10
control_change channel=0 control=64 value=127 time=43
note_on channel=0 note=56 velocity=0 time=67
note_on channel=0 note=64 velocity=25 time=0
<meta message set_tempo tempo=1153846 time=120>
note_on channel=0 note=64 velocity=0 time=0
note_on channel=0 note=85 velocity=0 time=0
note_on channel=0 note=86 velocity=57 time=0
note_on channel=0 note=59 velocity=28 time=0
note_on channel=0 note=59 velocity=0 time=120
note_on channel=0 note=86 velocity=0 time=0
note_on channel=0 note=64 velocity=25 time=0
note_on channel=0 note=74 velocity=51 time=60
<meta message set_tempo tempo=1052632 time=60>
note_on channel=0 note=74 velocity=0 time=0
note_on channel=0 note=64 velocity=0 time=0
note_on channel=0 note=76 velocity=57 time=0
note_on channel=0 note=52 velocity=40 time=0
control_change channel=0 control=64 value=0 time=7
control_change channel=0 control=64 value=127 time=32
note_on channel=0 note=52 velocity=0 time=81
note_on channel=0 note=76 velocity=0 time=0
note_on channel=0 note=74 velocity=51 time=0
note_on channel=0 note=64 velocity=30 time=0
note_on channel=0 note=64 velocity=0 time=120
note_on channel=0 note=74 velocity=0 time=0
note_on channel=0 note=73 velocity=51 time=0
note_on channel=0 note=56 velocity=33 time=0
<meta message set_tempo tempo=1153846 time=120>
note_on channel=0 note=56 velocity=0 time=0
note_on channel=0 note=73 velocity=0 time=0
note_on channel=0 note=71 velocity=51 time=0
note_on channel=0 note=64 velocity=29 time=0
note_on channel=0 note=71 velocity=0 time=108
<meta message set_tempo tempo=1090909 time=12>
note_on channel=0 note=64 velocity=0 time=0
note_on channel=0 note=71 velocity=57 time=0
note_on channel=0 note=54 velocity=39 time=0
control_change channel=0 control=64 value=0 time=2
control_change channel=0 control=64 value=127 time=67
<meta message set_tempo tempo=1034483 time=51>
note_on channel=0 note=54 velocity=0 time=0
note_on channel=0 note=64 velocity=28 time=0
<meta message set_tempo tempo=1052632 time=120>
note_on channel=0 note=64 velocity=0 time=0
note_on channel=0 note=71 velocity=0 time=0
note_on channel=0 note=69 velocity=54 time=0
note_on channel=0 note=63 velocity=31 time=0
control_change channel=0 control=64 value=0 time=10
<meta message set_tempo tempo=1016949 time=50>
control_change channel=0 control=64 value=127 time=20
note_on channel=0 note=63 velocity=0 time=40
note_on channel=0 note=64 velocity=30 time=0
<meta message set_tempo tempo=1034483 time=60>
<meta message set_tempo tempo=1052632 time=60>
note_on channel=0 note=64 velocity=0 time=0
note_on channel=0 note=54 velocity=42 time=0
note_on channel=0 note=54 velocity=0 time=120
note_on channel=0 note=69 velocity=0 time=0
note_on channel=0 note=69 velocity=57 time=0
note_on channel=0 note=64 velocity=34 time=0
<meta message set_tempo tempo=1115864 time=120>
note_on channel=0 note=64 velocity=0 time=0
note_on channel=0 note=69 velocity=0 time=0
note_on channel=0 note=74 velocity=61 time=0
note_on channel=0 note=63 velocity=36 time=0
<meta message set_tempo tempo=1253656 time=120>
note_on channel=0 note=63 velocity=0 time=0
note_on channel=0 note=74 velocity=0 time=0
note_on channel=0 note=73 velocity=57 time=0
note_on channel=0 note=64 velocity=33 time=0
<meta message set_tempo tempo=1052632 time=120>
note_on channel=0 note=64 velocity=0 time=0
note_on channel=0 note=73 velocity=0 time=0
note_on channel=0 note=70 velocity=61 time=0
note_on channel=0 note=56 velocity=42 time=0
control_change channel=0 control=64 value=0 time=8
<meta message set_tempo tempo=1052632 time=52>
control_change channel=0 control=64 value=127 time=43
note_on channel=0 note=56 velocity=0 time=17
note_on channel=0 note=70 velocity=0 time=0
note_on channel=0 note=71 velocity=57 time=0
note_on channel=0 note=64 velocity=33 time=0
note_on channel=0 note=64 velocity=0 time=120
note_on channel=0 note=71 velocity=0 time=0
note_on channel=0 note=76 velocity=57 time=0
note_on channel=0 note=63 velocity=36 time=0
note_on channel=0 note=63 velocity=0 time=120
note_on channel=0 note=76 velocity=0 time=0
note_on channel=0 note=74 velocity=57 time=0
note_on channel=0 note=64 velocity=34 time=0
<meta message set_tempo tempo=1111111 time=120>
note_on channel=0 note=64 velocity=0 time=0
note_on channel=0 note=74 velocity=0 time=0
note_on channel=0 note=72 velocity=60 time=0
note_on channel=0 note=57 velocity=42 time=0
control_change channel=0 control=64 value=0 time=10
control_change channel=0 control=64 value=127 time=65
note_on channel=0 note=72 velocity=0 time=45
note_on channel=0 note=73 velocity=57 time=0
<meta message set_tempo tempo=1052632 time=120>
note_on channel=0 note=73 velocity=0 time=0
note_on channel=0 note=81 velocity=60 time=0
note_on channel=0 note=81 velocity=0 time=108
note_on channel=0 note=81 velocity=61 time=12
<meta message set_tempo tempo=1158525 time=60>
note_on channel=0 note=81 velocity=0 time=48
<meta message set_tempo tempo=1111111 time=12>
note_on channel=0 note=57 velocity=0 time=0
note_on channel=0 note=81 velocity=62 time=0
<meta message set_tempo tempo=1071429 time=2>
<meta message set_tempo tempo=1071429 time=101>
note_on channel=0 note=81 velocity=0 time=5
<meta message set_tempo tempo=1143947 time=12>
note_on channel=0 note=81 velocity=64 time=0
<meta message set_tempo tempo=1158525 time=64>
<meta message set_tempo tempo=1173250 time=32>
note_on channel=0 note=81 velocity=0 time=12
note_on channel=0 note=81 velocity=66 time=12
<meta message set_tempo tempo=1188354 time=40>
<meta message set_tempo tempo=1204094 time=32>
note_on channel=0 note=81 velocity=0 time=36
note_on channel=0 note=81 velocity=68 time=12
<meta message set_tempo tempo=1220008 time=16>
<meta message set_tempo tempo=1236858 time=32>
note_on channel=0 note=81 velocity=0 time=60
<meta message set_tempo tempo=1132075 time=12>
note_on channel=0 note=81 velocity=69 time=0
note_on channel=0 note=50 velocity=37 time=0
note_on channel=0 note=54 velocity=43 time=0
note_on channel=0 note=59 velocity=51 time=0
control_change channel=0 control=64 value=0 time=10
note_on channel=0 note=81 velocity=0 time=110
note_on channel=0 note=78 velocity=57 time=0
control_change channel=0 control=64 value=127 time=0
note_on channel=0 note=78 velocity=0 time=120
note_on channel=0 note=74 velocity=62 time=0
note_on channel=0 note=74 velocity=0 time=120
note_on channel=0 note=71 velocity=55 time=0
<meta message set_tempo tempo=1188354 time=120>
note_on channel=0 note=71 velocity=0 time=0
note_on channel=0 note=59 velocity=0 time=0
note_on channel=0 note=54 velocity=0 time=0
note_on channel=0 note=50 velocity=0 time=0
note_on channel=0 note=76 velocity=64 time=0
note_on channel=0 note=52 velocity=44 time=0
note_on channel=0 note=57 velocity=44 time=0
note_on channel=0 note=61 velocity=54 time=0
control_change channel=0 control=64 value=0 time=10
control_change channel=0 control=64 value=127 time=76
note_on channel=0 note=76 velocity=0 time=34
note_on channel=0 note=78 velocity=59 time=0
note_on channel=0 note=78 velocity=0 time=40
note_on channel=0 note=76 velocity=59 time=0
note_on channel=0 note=76 velocity=0 time=40
note_on channel=0 note=75 velocity=59 time=0
note_on channel=0 note=75 velocity=0 time=40
note_on channel=0 note=76 velocity=64 time=0
<meta message set_tempo tempo=1188354 time=120>
note_on channel=0 note=76 velocity=0 time=0
note_on channel=0 note=78 velocity=61 time=0
<meta message set_tempo tempo=1111111 time=120>
note_on channel=0 note=78 velocity=0 time=0
note_on channel=0 note=69 velocity=66 time=0
control_change channel=0 control=64 value=0 time=10
control_change channel=0 control=64 value=127 time=110
<meta message set_tempo tempo=1236858 time=360>
note_on channel=0 note=61 velocity=0 time=0
note_on channel=0 note=57 velocity=0 time=0
note_on channel=0 note=62 velocity=46 time=0
note_on channel=0 note=59 velocity=34 time=0
control_change channel=0 control=64 value=0 time=11
note_on channel=0 note=69 velocity=0 time=229
note_on channel=0 note=68 velocity=45 time=0
note_on channel=0 note=71 velocity=45 time=0
note_on channel=0 note=71 velocity=0 time=228
note_on channel=0 note=68 velocity=0 time=0
note_on channel=0 note=59 velocity=0 time=12
note_on channel=0 note=62 velocity=0 time=0
note_on channel=0 note=52 velocity=0 time=0
note_on channel=0 note=71 velocity=52 time=0
note_on channel=0 note=68 velocity=52 time=0
note_on channel=0 note=62 velocity=33 time=0
note_on channel=0 note=57 velocity=33 time=0
note_on channel=0 note=64 velocity=39 time=0
control_change channel=0 control=64 value=127 time=55
<meta message set_tempo tempo=1188354 time=245>
<meta message set_tempo tempo=1204094 time=420>
note_on channel=0 note=71 velocity=0 time=0
note_on channel=0 note=72 velocity=51 time=0
control_change channel=0 control=64 value=0 time=10
<meta message set_tempo tempo=1220008 time=230>
note_on channel=0 note=72 velocity=0 time=0
note_on channel=0 note=68 velocity=0 time=0
note_on channel=0 note=62 velocity=0 time=0
note_on channel=0 note=69 velocity=51 time=0
note_on channel=0 note=73 velocity=51 time=0
note_on channel=0 note=61 velocity=39 time=0
control_change channel=0 control=64 value=127 time=55
note_on channel=0 note=73 velocity=0 time=365
note_on channel=0 note=69 velocity=0 time=0
note_on channel=0 note=64 velocity=61 time=0
note_on channel=0 note=64 velocity=0 time=30
note_on channel=0 note=69 velocity=62 time=0
<meta message set_tempo tempo=1111111 time=30>
note_on channel=0 note=69 velocity=0 time=0
note_on channel=0 note=64 velocity=0 time=0
note_on channel=0 note=57 velocity=0 time=0
note_on channel=0 note=61 velocity=0 time=0
note_on channel=0 note=73 velocity=68 time=0
note_on channel=0 note=45 velocity=61 time=0
control_change channel=0 control=64 value=0 time=10
control_change channel=0 control=64 value=127 time=25
note_on channel=0 note=45 velocity=0 time=85
note_on channel=0 note=49 velocity=51 time=0
note_on channel=0 note=49 velocity=0 time=120
note_on channel=0 note=52 velocity=54 time=0
note_on channel=0 note=52 velocity=0 time=120
note_on channel=0 note=57 velocity=51 time=0
<meta message set_tempo tempo=1090909 time=120>
note_on channel=0 note=57 velocity=0 time=0
note_on channel=0 note=45 velocity=61 time=0
control_change channel=0 control=64 value=0 time=9
control_change channel=0 control=64 value=127 time=17
<meta message set_tempo tempo=1052632 time=34>
note_on channel=0 note=73 velocity=0 time=20
note_on channel=0 note=76 velocity=63 time=0
note_on channel=0 note=45 velocity=0 time=40
note_on channel=0 note=49 velocity=51 time=0
note_on channel=0 note=76 velocity=0 time=40
note_on channel=0 note=74 velocity=63 time=0
note_on channel=0 note=74 velocity=0 time=80
note_on channel=0 note=49 velocity=0 time=0
note_on channel=0 note=73 velocity=66 time=0
note_on channel=0 note=52 velocity=54 time=0
note_on channel=0 note=73 velocity=0 time=80
note_on channel=0 note=74 velocity=62 time=0
note_on channel=0 note=52 velocity=0 time=40
note_on channel=0 note=57 velocity=51 time=0
note_on channel=0 note=74 velocity=0 time=40
note_on channel=0 note=76 velocity=62 time=0
note_on channel=0 note=76 velocity=0 time=80
note_on channel=0 note=57 velocity=0 time=0
note_on channel=0 note=74 velocity=66 time=0
note_on channel=0 note=47 velocity=61 time=0
control_change channel=0 control=64 value=0 time=5
control_change channel=0 control=64 value=127 time=27
note_on channel=0 note=74 velocity=0 time=48
note_on channel=0 note=78 velocity=62 time=0
note_on channel=0 note=47 velocity=0 time=40
note_on channel=0 note=50 velocity=52 time=0
note_on channel=0 note=78 velocity=0 time=40
note_on channel=0 note=76 velocity=62 time=0
note_on channel=0 note=76 velocity=0 time=80
note_on channel=0 note=50 velocity=0 time=0
note_on channel=0 note=74 velocity=66 time=0
note_on channel=0 note=56 velocity=56 time=0
note_on channel=0 note=74 velocity=0 time=80
note_on channel=0 note=76 velocity=63 time=0
note_on channel=0 note=56 velocity=0 time=40
note_on channel=0 note=59 velocity=51 time=0
note_on channel=0 note=76 velocity=0 time=40
note_on channel=0 note=78 velocity=63 time=0
<meta message set_tempo tempo=1143947 time=8>
<meta message set_tempo tempo=1111111 time=24>
<meta message set_tempo tempo=1111111 time=48>
note_on channel=0 note=78 velocity=0 time=0
note_on channel=0 note=59 velocity=0 time=0
note_on channel=0 note=76 velocity=62 time=0
note_on channel=0 note=49 velocity=51 time=0
note_on channel=0 note=57 velocity=61 time=0
control_change channel=0 control=64 value=0 time=8
control_change channel=0 control=64 value=127 time=29
note_on channel=0 note=76 velocity=0 time=23
note_on channel=0 note=69 velocity=63 time=0
note_on channel=0 note=69 velocity=0 time=60
note_on channel=0 note=71 velocity=64 time=0
note_on channel=0 note=71 velocity=0 time=60
note_on channel=0 note=73 velocity=65 time=0
note_on channel=0 note=73 velocity=0 time=60
note_on channel=0 note=74 velocity=65 time=0
<meta message set_tempo tempo=1052632 time=60>
note_on channel=0 note=74 velocity=0 time=0
note_on channel=0 note=76 velocity=65 time=0
<meta message set_tempo tempo=1090909 time=36>
note_on channel=0 note=76 velocity=0 time=24
note_on channel=0 note=78 velocity=66 time=0
note_on channel=0 note=78 velocity=0 time=60
note_on channel=0 note=80 velocity=67 time=0
note_on channel=0 note=80 velocity=0 time=60
note_on channel=0 note=81 velocity=68 time=0
note_on channel=0 note=81 velocity=0 time=60
note_on channel=0 note=83 velocity=69 time=0
note_on channel=0 note=83 velocity=0 time=60
note_on channel=0 note=85 velocity=70 time=0
note_on channel=0 note=85 velocity=0 time=60
note_on channel=0 note=83 velocity=71 time=0
<meta message set_tempo tempo=1071429 time=60>
note_on channel=0 note=83 velocity=0 time=0
note_on channel=0 note=81 velocity=71 time=0
note_on channel=0 note=81 velocity=0 time=60
note_on channel=0 note=80 velocity=70 time=0
<meta message set_tempo tempo=1115864 time=12>
note_on channel=0 note=80 velocity=0 time=48
note_on channel=0 note=78 velocity=70 time=0
note_on channel=0 note=78 velocity=0 time=60
note_on channel=0 note=77 velocity=69 time=0
<meta message set_tempo tempo=1129944 time=52>
note_on channel=0 note=77 velocity=0 time=8
note_on channel=0 note=57 velocity=0 time=0
note_on channel=0 note=49 velocity=0 time=0
note_on channel=0 note=78 velocity=68 time=0
note_on channel=0 note=50 velocity=56 time=0
note_on channel=0 note=57 velocity=66 time=0
control_change channel=0 control=64 value=0 time=10
control_change channel=0 control=64 value=127 time=47
note_on channel=0 note=78 velocity=0 time=3
note_on channel=0 note=80 velocity=67 time=0
note_on channel=0 note=80 velocity=0 time=60
note_on channel=0 note=81 velocity=65 time=0
note_on channel=0 note=81 velocity=0 time=60
note_on channel=0 note=80 velocity=64 time=0
<meta message set_tempo tempo=1143947 time=4>
note_on channel=0 note=80 velocity=0 time=56
note_on channel=0 note=83 velocity=62 time=0
note_on channel=0 note=83 velocity=0 time=60
note_on channel=0 note=81 velocity=61 time=0
<meta message set_tempo tempo=1158525 time=44>
note_on channel=0 note=81 velocity=0 time=16
note_on channel=0 note=80 velocity=59 time=0
note_on channel=0 note=80 velocity=0 time=60
note_on channel=0 note=78 velocity=58 time=0
note_on channel=0 note=78 velocity=0 time=60
note_on channel=0 note=57 velocity=0 time=0
note_on channel=0 note=50 velocity=0 time=0
note_on channel=0 note=76 velocity=62 time=0
note_on channel=0 note=52 velocity=35 time=0
note_on channel=0 note=61 velocity=42 time=0
control_change channel=0 control=64 value=0 time=6
note_on channel=0 note=76 velocity=0 time=54
control_change channel=0 control=64 value=127 time=11
note_on channel=0 note=88 velocity=52 time=49
<meta message set_tempo tempo=1158525 time=60>
note_on channel=0 note=88 velocity=0 time=60
note_on channel=0 note=85 velocity=52 time=0
<meta message set_tempo tempo=1143947 time=60>
<meta message set_tempo tempo=1236858 time=60>
note_on channel=0 note=85 velocity=0 time=0
note_on channel=0 note=81 velocity=60 time=0
<meta message set_tempo tempo=1288937 time=120>
note_on channel=0 note=81 velocity=0 time=0
note_on channel=0 note=61 velocity=0 time=0
note_on channel=0 note=52 velocity=0 time=0
note_on channel=0 note=76 velocity=52 time=0
note_on channel=0 note=52 velocity=35 time=0
note_on channel=0 note=61 velocity=42 time=0
note_on channel=0 note=76 velocity=0 time=60
<meta message set_tempo tempo=1143947 time=60>
note_on channel=0 note=81 velocity=52 time=0
<meta message set_tempo tempo=1143947 time=120>
note_on channel=0 note=81 velocity=0 time=0
note_on channel=0 note=76 velocity=51 time=0
<meta message set_tempo tempo=1271186 time=120>
note_on channel=0 note=76 velocity=0 time=0
note_on channel=0 note=73 velocity=51 time=0
<meta message set_tempo tempo=1271186 time=120>
note_on channel=0 note=73 velocity=0 time=0
note_on channel=0 note=61 velocity=0 time=0
note_on channel=0 note=52 velocity=0 time=0
note_on channel=0 note=76 velocity=57 time=0
note_on channel=0 note=52 velocity=31 time=0
note_on channel=0 note=56 velocity=31 time=0
note_on channel=0 note=62 velocity=37 time=0
control_change channel=0 control=64 value=0 time=8
control_change channel=0 control=64 value=127 time=47
<meta message set_tempo tempo=1276596 time=65>
note_on channel=0 note=76 velocity=0 time=0
note_on channel=0 note=74 velocity=47 time=0
<meta message set_tempo tempo=1276596 time=60>
note_on channel=0 note=74 velocity=0 time=60
note_on channel=0 note=73 velocity=51 time=0
<meta message set_tempo tempo=2142857 time=120>
note_on channel=0 note=73 velocity=0 time=0
note_on channel=0 note=71 velocity=46 time=0
note_on channel=0 note=71 velocity=0 time=114
<meta message set_tempo tempo=1818182 time=6>
note_on channel=0 note=62 velocity=0 time=0
note_on channel=0 note=56 velocity=0 time=0
note_on channel=0 note=52 velocity=0 time=0
note_on channel=0 note=64 velocity=32 time=0
note_on channel=0 note=68 velocity=36 time=0
note_on channel=0 note=71 velocity=41 time=0
note_on channel=0 note=57 velocity=24 time=0
note_on channel=0 note=62 velocity=28 time=0
control_change channel=0 control=64 value=0 time=5
control_change channel=0 control=64 value=127 time=78
note_on channel=0 note=62 velocity=0 time=397
note_on channel=0 note=64 velocity=0 time=0
note_on channel=0 note=71 velocity=0 time=0
note_on channel=0 note=68 velocity=0 time=0
note_on channel=0 note=69 velocity=34 time=0
note_on channel=0 note=61 velocity=22 time=0
control_change channel=0 control=64 value=0 time=8
note_on channel=0 note=61 velocity=0 time=472
note_on channel=0 note=69 velocity=0 time=0
note_on channel=0 note=57 velocity=0 time=0
<meta message set_tempo tempo=483871 time=480>
<meta message time_signature numerator=4 denominator=4 clocks_per_click=24 notated_32nd_notes_per_beat=8 time=2880>
<meta message set_tempo tempo=458015 time=0>
<meta message marker text='Var VI' time=0>
note_on channel=0 note=73 velocity=50 time=0
note_on channel=0 note=57 velocity=41 time=0
control_change channel=0 control=64 value=0 time=0
note_on channel=0 note=73 velocity=0 time=60
<meta message set_tempo tempo=434783 time=120>
note_on channel=0 note=74 velocity=47 time=30
<meta message set_tempo tempo=431655 time=30>
note_on channel=0 note=74 velocity=0 time=0
note_on channel=0 note=57 velocity=0 time=0
note_on channel=0 note=73 velocity=47 time=0
note_on channel=0 note=64 velocity=32 time=0
note_on channel=0 note=73 velocity=0 time=120
note_on channel=0 note=71 velocity=52 time=0
<meta message set_tempo tempo=425532 time=120>
note_on channel=0 note=71 velocity=0 time=0
note_on channel=0 note=64 velocity=0 time=0
note_on channel=0 note=73 velocity=47 time=0
note_on channel=0 note=59 velocity=37 time=0
note_on channel=0 note=73 velocity=0 time=60
<meta message set_tempo tempo=434783 time=180>
note_on channel=0 note=59 velocity=0 time=0
note_on channel=0 note=74 velocity=51 time=0
note_on channel=0 note=64 velocity=32 time=0
note_on channel=0 note=74 velocity=0 time=60
<meta message set_tempo tempo=451128 time=180>
note_on channel=0 note=64 velocity=0 time=0
note_on channel=0 note=78 velocity=53 time=0
note_on channel=0 note=61 velocity=42 time=0
<meta message set_tempo tempo=431655 time=240>
note_on channel=0 note=61 velocity=0 time=0
note_on channel=0 note=78 velocity=0 time=0
note_on channel=0 note=76 velocity=46 time=0
note_on channel=0 note=64 velocity=33 time=0
note_on channel=0 note=64 velocity=0 time=240
note_on channel=0 note=76 velocity=0 time=0
note_on channel=0 note=74 velocity=51 time=0
note_on channel=0 note=57 velocity=36 time=0
note_on channel=0 note=74 velocity=0 time=60
<meta message set_tempo tempo=451128 time=180>
note_on channel=0 note=57 velocity=0 time=0
note_on channel=0 note=73 velocity=49 time=0
note_on channel=0 note=64 velocity=33 time=0
note_on channel=0 note=73 velocity=0 time=60
<meta message set_tempo tempo=461538 time=180>
note_on channel=0 note=64 velocity=0 time=0
note_on channel=0 note=71 velocity=50 time=0
note_on channel=0 note=56 velocity=42 time=0
note_on channel=0 note=71 velocity=0 time=60
<meta message set_tempo tempo=428571 time=120>
note_on channel=0 note=73 velocity=46 time=30
note_on channel=0 note=73 velocity=0 time=30
note_on channel=0 note=56 velocity=0 time=0
note_on channel=0 note=71 velocity=46 time=0
note_on channel=0 note=64 velocity=33 time=0
note_on channel=0 note=71 velocity=0 time=120
note_on channel=0 note=70 velocity=50 time=0
<meta message set_tempo tempo=425532 time=120>
note_on channel=0 note=70 velocity=0 time=0
note_on channel=0 note=64 velocity=0 time=0
note_on channel=0 note=71 velocity=46 time=0
note_on channel=0 note=57 velocity=36 time=0
note_on channel=0 note=71 velocity=0 time=60
<meta message set_tempo tempo=431655 time=180>
note_on channel=0 note=57 velocity=0 time=0
note_on channel=0 note=73 velocity=47 time=0
note_on channel=0 note=64 velocity=33 time=0
note_on channel=0 note=73 velocity=0 time=60
<meta message set_tempo tempo=447761 time=180>
note_on channel=0 note=64 velocity=0 time=0
note_on channel=0 note=76 velocity=50 time=0
note_on channel=0 note=59 velocity=42 time=0
<meta message set_tempo tempo=431655 time=240>
note_on channel=0 note=59 velocity=0 time=0
note_on channel=0 note=76 velocity=0 time=0
note_on channel=0 note=74 velocity=47 time=0
note_on channel=0 note=64 velocity=31 time=0
note_on channel=0 note=64 velocity=0 time=240
note_on channel=0 note=74 velocity=0 time=0
note_on channel=0 note=73 velocity=47 time=0
note_on channel=0 note=62 velocity=35 time=0
note_on channel=0 note=73 velocity=0 time=60
<meta message set_tempo tempo=451128 time=180>
note_on channel=0 note=62 velocity=0 time=0
note_on channel=0 note=71 velocity=47 time=0
note_on channel=0 note=64 velocity=31 time=0
note_on channel=0 note=71 velocity=0 time=60
<meta message set_tempo tempo=431655 time=180>
note_on channel=0 note=64 velocity=0 time=0
note_on channel=0 note=68 velocity=53 time=0
note_on channel=0 note=61 velocity=40 time=0
<meta message set_tempo tempo=447761 time=240>
note_on channel=0 note=61 velocity=0 time=0
note_on channel=0 note=68 velocity=0 time=0
note_on channel=0 note=69 velocity=50 time=0
note_on channel=0 note=64 velocity=31 time=0
note_on channel=0 note=69 velocity=0 time=60
<meta message set_tempo tempo=431655 time=180>
note_on channel=0 note=64 velocity=0 time=0
note_on channel=0 note=61 velocity=34 time=0
<meta message set_tempo tempo=444444 time=240>
note_on channel=0 note=61 velocity=0 time=0
note_on channel=0 note=70 velocity=50 time=0
note_on channel=0 note=64 velocity=31 time=0
note_on channel=0 note=70 velocity=0 time=60
<meta message set_tempo tempo=431655 time=180>
note_on channel=0 note=64 velocity=0 time=0
note_on channel=0 note=56 velocity=39 time=0
<meta message set_tempo tempo=441176 time=240>
note_on channel=0 note=56 velocity=0 time=0
note_on channel=0 note=71 velocity=50 time=0
note_on channel=0 note=64 velocity=31 time=0
note_on channel=0 note=71 velocity=0 time=60
<meta message set_tempo tempo=431655 time=180>
note_on channel=0 note=64 velocity=0 time=0
note_on channel=0 note=56 velocity=33 time=0
<meta message set_tempo tempo=447761 time=240>
note_on channel=0 note=56 velocity=0 time=0
note_on channel=0 note=72 velocity=50 time=0
note_on channel=0 note=64 velocity=31 time=0
note_on channel=0 note=72 velocity=0 time=60
note_on channel=0 note=74 velocity=41 time=150
<meta message set_tempo tempo=431655 time=30>
note_on channel=0 note=74 velocity=0 time=0
note_on channel=0 note=64 velocity=0 time=0
note_on channel=0 note=73 velocity=54 time=0
note_on channel=0 note=57 velocity=40 time=0
note_on channel=0 note=73 velocity=0 time=60
note_on channel=0 note=57 velocity=0 time=180
note_on channel=0 note=73 velocity=50 time=0
note_on channel=0 note=64 velocity=31 time=0
note_on channel=0 note=73 velocity=0 time=60
note_on channel=0 note=76 velocity=41 time=150
<meta message set_tempo tempo=437956 time=30>
note_on channel=0 note=76 velocity=0 time=0
note_on channel=0 note=64 velocity=0 time=0
note_on channel=0 note=74 velocity=50 time=0
note_on channel=0 note=59 velocity=34 time=0
note_on channel=0 note=74 velocity=0 time=60
<meta message set_tempo tempo=458015 time=180>
note_on channel=0 note=59 velocity=0 time=0
note_on channel=0 note=74 velocity=50 time=0
note_on channel=0 note=64 velocity=31 time=0
note_on channel=0 note=74 velocity=0 time=60
<meta message set_tempo tempo=437956 time=180>
note_on channel=0 note=64 velocity=0 time=0
note_on channel=0 note=73 velocity=55 time=0
note_on channel=0 note=57 velocity=38 time=0
note_on channel=0 note=52 velocity=31 time=0
<meta message set_tempo tempo=447761 time=480>
note_on channel=0 note=57 velocity=0 time=0
note_on channel=0 note=73 velocity=0 time=0
note_on channel=0 note=71 velocity=50 time=0
note_on channel=0 note=56 velocity=41 time=0
note_on channel=0 note=56 velocity=0 time=240
note_on channel=0 note=71 velocity=0 time=0
note_on channel=0 note=52 velocity=0 time=0
note_on channel=0 note=33 velocity=64 time=150
note_on channel=0 note=37 velocity=70 time=30
note_on channel=0 note=40 velocity=75 time=30
<meta message set_tempo tempo=431655 time=30>
note_on channel=0 note=73 velocity=78 time=0
note_on channel=0 note=45 velocity=80 time=0
control_change channel=0 control=64 value=127 time=25
note_on channel=0 note=73 velocity=0 time=95
note_on channel=0 note=69 velocity=63 time=0
note_on channel=0 note=69 velocity=0 time=120
note_on channel=0 note=45 velocity=0 time=0
note_on channel=0 note=33 velocity=0 time=0
note_on channel=0 note=37 velocity=0 time=0
note_on channel=0 note=40 velocity=0 time=0
note_on channel=0 note=64 velocity=63 time=0
note_on channel=0 note=64 velocity=0 time=120
note_on channel=0 note=69 velocity=63 time=0
note_on channel=0 note=69 velocity=0 time=120
note_on channel=0 note=73 velocity=78 time=0
control_change channel=0 control=64 value=0 time=10
control_change channel=0 control=64 value=127 time=50
note_on channel=0 note=73 velocity=0 time=60
note_on channel=0 note=69 velocity=64 time=0
<meta message set_tempo tempo=447761 time=120>
note_on channel=0 note=69 velocity=0 time=0
note_on channel=0 note=74 velocity=78 time=0
control_change channel=0 control=64 value=0 time=113
note_on channel=0 note=74 velocity=0 time=7
note_on channel=0 note=71 velocity=64 time=0
note_on channel=0 note=57 velocity=58 time=30
note_on channel=0 note=61 velocity=62 time=30
control_change channel=0 control=64 value=127 time=28
note_on channel=0 note=64 velocity=68 time=2
<meta message set_tempo tempo=422535 time=30>
note_on channel=0 note=71 velocity=0 time=0
note_on channel=0 note=76 velocity=79 time=0
note_on channel=0 note=69 velocity=71 time=0
note_on channel=0 note=76 velocity=0 time=120
note_on channel=0 note=73 velocity=66 time=0
note_on channel=0 note=73 velocity=0 time=120
note_on channel=0 note=69 velocity=0 time=0
note_on channel=0 note=64 velocity=0 time=0
note_on channel=0 note=61 velocity=0 time=0
note_on channel=0 note=57 velocity=0 time=0
note_on channel=0 note=76 velocity=81 time=0
note_on channel=0 note=76 velocity=0 time=120
note_on channel=0 note=73 velocity=68 time=0
<meta message set_tempo tempo=437956 time=120>
note_on channel=0 note=73 velocity=0 time=0
note_on channel=0 note=78 velocity=84 time=0
control_change channel=0 control=64 value=0 time=12
control_change channel=0 control=64 value=127 time=45
note_on channel=0 note=78 velocity=0 time=63
note_on channel=0 note=76 velocity=82 time=0
note_on channel=0 note=76 velocity=0 time=120
note_on channel=0 note=74 velocity=80 time=0
note_on channel=0 note=74 velocity=0 time=120
note_on channel=0 note=73 velocity=79 time=0
control_change channel=0 control=64 value=0 time=18
note_on channel=0 note=40 velocity=70 time=12
note_on channel=0 note=44 velocity=72 time=30
note_on channel=0 note=47 velocity=77 time=30
<meta message set_tempo tempo=431655 time=30>
note_on channel=0 note=73 velocity=0 time=0
note_on channel=0 note=71 velocity=77 time=0
note_on channel=0 note=52 velocity=80 time=0
control_change channel=0 control=64 value=127 time=14
note_on channel=0 note=71 velocity=0 time=106
note_on channel=0 note=68 velocity=64 time=0
note_on channel=0 note=68 velocity=0 time=120
note_on channel=0 note=52 velocity=0 time=0
note_on channel=0 note=47 velocity=0 time=0
note_on channel=0 note=44 velocity=0 time=0
note_on channel=0 note=40 velocity=0 time=0
note_on channel=0 note=64 velocity=64 time=0
note_on channel=0 note=64 velocity=0 time=120
note_on channel=0 note=68 velocity=64 time=0
note_on channel=0 note=68 velocity=0 time=120
note_on channel=0 note=71 velocity=78 time=0
control_change channel=0 control=64 value=0 time=21
control_change channel=0 control=64 value=127 time=46
note_on channel=0 note=71 velocity=0 time=53
note_on channel=0 note=68 velocity=63 time=0
<meta message set_tempo tempo=441176 time=120>
note_on channel=0 note=68 velocity=0 time=0
note_on channel=0 note=73 velocity=79 time=0
note_on channel=0 note=73 velocity=0 time=120
note_on channel=0 note=69 velocity=63 time=0
control_change channel=0 control=64 value=0 time=28
note_on channel=0 note=52 velocity=58 time=2
note_on channel=0 note=56 velocity=68 time=30
note_on channel=0 note=59 velocity=62 time=30
control_change channel=0 control=64 value=127 time=20
<meta message set_tempo tempo=422535 time=10>
note_on channel=0 note=69 velocity=0 time=0
note_on channel=0 note=74 velocity=80 time=0
note_on channel=0 note=64 velocity=71 time=0
note_on channel=0 note=74 velocity=0 time=120
note_on channel=0 note=71 velocity=64 time=0
note_on channel=0 note=71 velocity=0 time=120
note_on channel=0 note=64 velocity=0 time=0
note_on channel=0 note=59 velocity=0 time=0
note_on channel=0 note=56 velocity=0 time=0
note_on channel=0 note=52 velocity=0 time=0
note_on channel=0 note=74 velocity=80 time=0
note_on channel=0 note=74 velocity=0 time=120
note_on channel=0 note=71 velocity=69 time=0
<meta message set_tempo tempo=428571 time=120>
note_on channel=0 note=71 velocity=0 time=0
note_on channel=0 note=76 velocity=84 time=0
control_change channel=0 control=64 value=0 time=11
control_change channel=0 control=64 value=127 time=42
note_on channel=0 note=76 velocity=0 time=67
note_on channel=0 note=74 velocity=84 time=0
note_on channel=0 note=74 velocity=0 time=120
note_on channel=0 note=73 velocity=81 time=0
note_on channel=0 note=73 velocity=0 time=120
note_on channel=0 note=71 velocity=79 time=0
<meta message set_tempo tempo=447761 time=120>
note_on channel=0 note=71 velocity=0 time=0
note_on channel=0 note=69 velocity=82 time=0
note_on channel=0 note=42 velocity=80 time=0
control_change channel=0 control=64 value=0 time=0
note_on channel=0 note=42 velocity=0 time=60
note_on channel=0 note=69 velocity=0 time=60
note_on channel=0 note=73 velocity=66 time=0
<meta message set_tempo tempo=434783 time=120>
note_on channel=0 note=73 velocity=0 time=0
note_on channel=0 note=71 velocity=66 time=0
note_on channel=0 note=54 velocity=73 time=0
note_on channel=0 note=54 velocity=0 time=60
note_on channel=0 note=71 velocity=0 time=60
note_on channel=0 note=69 velocity=66 time=0
<meta message set_tempo tempo=451128 time=120>
note_on channel=0 note=69 velocity=0 time=0
note_on channel=0 note=71 velocity=85 time=0
note_on channel=0 note=44 velocity=80 time=0
note_on channel=0 note=44 velocity=0 time=60
note_on channel=0 note=71 velocity=0 time=60
note_on channel=0 note=74 velocity=66 time=0
<meta message set_tempo tempo=431655 time=120>
note_on channel=0 note=74 velocity=0 time=0
note_on channel=0 note=73 velocity=66 time=0
note_on channel=0 note=56 velocity=73 time=0
note_on channel=0 note=56 velocity=0 time=60
note_on channel=0 note=73 velocity=0 time=60
note_on channel=0 note=71 velocity=66 time=0
<meta message set_tempo tempo=441176 time=120>
note_on channel=0 note=71 velocity=0 time=0
note_on channel=0 note=73 velocity=82 time=0
note_on channel=0 note=57 velocity=75 time=0
note_on channel=0 note=57 velocity=0 time=60
note_on channel=0 note=73 velocity=0 time=60
note_on channel=0 note=76 velocity=69 time=0
<meta message set_tempo tempo=431655 time=120>
note_on channel=0 note=76 velocity=0 time=0
note_on channel=0 note=81 velocity=74 time=0
note_on channel=0 note=61 velocity=77 time=0
note_on channel=0 note=61 velocity=0 time=60
note_on channel=0 note=81 velocity=0 time=60
note_on channel=0 note=76 velocity=69 time=0
note_on channel=0 note=76 velocity=0 time=120
note_on channel=0 note=78 velocity=83 time=0
note_on channel=0 note=62 velocity=83 time=0
note_on channel=0 note=62 velocity=0 time=60
note_on channel=0 note=78 velocity=0 time=60
note_on channel=0 note=81 velocity=71 time=0
<meta message set_tempo tempo=451128 time=120>
note_on channel=0 note=81 velocity=0 time=0
note_on channel=0 note=74 velocity=71 time=0
note_on channel=0 note=56 velocity=78 time=0
note_on channel=0 note=56 velocity=0 time=60
note_on channel=0 note=74 velocity=0 time=60
note_on channel=0 note=78 velocity=71 time=0
<meta message set_tempo tempo=434783 time=120>
note_on channel=0 note=78 velocity=0 time=0
note_on channel=0 note=73 velocity=84 time=0
note_on channel=0 note=57 velocity=84 time=0
note_on channel=0 note=57 velocity=0 time=60
note_on channel=0 note=73 velocity=0 time=60
note_on channel=0 note=76 velocity=69 time=0
note_on channel=0 note=76 velocity=0 time=120
note_on channel=0 note=69 velocity=80 time=0
note_on channel=0 note=54 velocity=77 time=0
note_on channel=0 note=54 velocity=0 time=60
note_on channel=0 note=69 velocity=0 time=60
note_on channel=0 note=73 velocity=69 time=0
<meta message set_tempo tempo=437956 time=120>
note_on channel=0 note=73 velocity=0 time=0
note_on channel=0 note=71 velocity=81 time=0
note_on channel=0 note=50 velocity=80 time=0
note_on channel=0 note=50 velocity=0 time=60
note_on channel=0 note=71 velocity=0 time=60
note_on channel=0 note=74 velocity=69 time=0
note_on channel=0 note=74 velocity=0 time=120
note_on channel=0 note=68 velocity=81 time=0
note_on channel=0 note=52 velocity=79 time=0
note_on channel=0 note=52 velocity=0 time=60
note_on channel=0 note=68 velocity=0 time=60
note_on channel=0 note=71 velocity=69 time=0
<meta message set_tempo tempo=441176 time=120>
note_on channel=0 note=71 velocity=0 time=0
note_on channel=0 note=69 velocity=79 time=0
note_on channel=0 note=45 velocity=75 time=0
control_change channel=0 control=64 value=127 time=36
note_on channel=0 note=69 velocity=0 time=84
note_on channel=0 note=64 velocity=69 time=0
note_on channel=0 note=64 velocity=0 time=120
note_on channel=0 note=61 velocity=69 time=0
note_on channel=0 note=61 velocity=0 time=120
note_on channel=0 note=64 velocity=69 time=0
<meta message set_tempo tempo=545455 time=120>
note_on channel=0 note=64 velocity=0 time=0
note_on channel=0 note=45 velocity=0 time=0
note_on channel=0 note=69 velocity=82 time=0
note_on channel=0 note=33 velocity=61 time=0
note_on channel=0 note=37 velocity=61 time=0
note_on channel=0 note=40 velocity=78 time=0
control_change channel=0 control=64 value=0 time=6
control_change channel=0 control=64 value=127 time=40
control_change channel=0 control=64 value=0 time=307
note_on channel=0 note=40 velocity=0 time=67
note_on channel=0 note=69 velocity=0 time=0
note_on channel=0 note=33 velocity=0 time=0
note_on channel=0 note=37 velocity=0 time=0
<meta message set_tempo tempo=458015 time=60>
note_on channel=0 note=73 velocity=50 time=0
note_on channel=0 note=57 velocity=41 time=0
note_on channel=0 note=73 velocity=0 time=60
<meta message set_tempo tempo=434783 time=120>
note_on channel=0 note=74 velocity=47 time=30
<meta message set_tempo tempo=431655 time=30>
note_on channel=0 note=74 velocity=0 time=0
note_on channel=0 note=57 velocity=0 time=0
note_on channel=0 note=73 velocity=47 time=0
note_on channel=0 note=64 velocity=32 time=0
note_on channel=0 note=73 velocity=0 time=120
note_on channel=0 note=71 velocity=52 time=0
<meta message set_tempo tempo=425532 time=120>
note_on channel=0 note=71 velocity=0 time=0
note_on channel=0 note=64 velocity=0 time=0
note_on channel=0 note=73 velocity=47 time=0
note_on channel=0 note=59 velocity=37 time=0
note_on channel=0 note=73 velocity=0 time=60
<meta message set_tempo tempo=434783 time=180>
note_on channel=0 note=59 velocity=0 time=0
note_on channel=0 note=74 velocity=51 time=0
note_on channel=0 note=64 velocity=32 time=0
note_on channel=0 note=74 velocity=0 time=60
<meta message set_tempo tempo=451128 time=180>
note_on channel=0 note=64 velocity=0 time=0
note_on channel=0 note=78 velocity=53 time=0
note_on channel=0 note=61 velocity=42 time=0
<meta message set_tempo tempo=431655 time=240>
note_on channel=0 note=61 velocity=0 time=0
note_on channel=0 note=78 velocity=0 time=0
note_on channel=0 note=76 velocity=46 time=0
note_on channel=0 note=64 velocity=33 time=0
note_on channel=0 note=64 velocity=0 time=240
note_on channel=0 note=76 velocity=0 time=0
note_on channel=0 note=74 velocity=51 time=0
note_on channel=0 note=57 velocity=36 time=0
note_on channel=0 note=74 velocity=0 time=60
<meta message set_tempo tempo=451128 time=180>
note_on channel=0 note=57 velocity=0 time=0
note_on channel=0 note=73 velocity=49 time=0
note_on channel=0 note=64 velocity=33 time=0
note_on channel=0 note=73 velocity=0 time=60
<meta message set_tempo tempo=461538 time=180>
note_on channel=0 note=64 velocity=0 time=0
note_on channel=0 note=71 velocity=50 time=0
note_on channel=0 note=56 velocity=42 time=0
note_on channel=0 note=71 velocity=0 time=60
<meta message set_tempo tempo=428571 time=120>
note_on channel=0 note=73 velocity=46 time=30
note_on channel=0 note=73 velocity=0 time=30
note_on channel=0 note=56 velocity=0 time=0
note_on channel=0 note=71 velocity=46 time=0
note_on channel=0 note=64 velocity=33 time=0
note_on channel=0 note=71 velocity=0 time=120
note_on channel=0 note=70 velocity=50 time=0
<meta message set_tempo tempo=425532 time=120>
note_on channel=0 note=70 velocity=0 time=0
note_on channel=0 note=64 velocity=0 time=0
note_on channel=0 note=71 velocity=46 time=0
note_on channel=0 note=57 velocity=36 time=0
note_on channel=0 note=71 velocity=0 time=60
<meta message set_tempo tempo=431655 time=180>
note_on channel=0 note=57 velocity=0 time=0
note_on channel=0 note=73 velocity=47 time=0
note_on channel=0 note=64 velocity=33 time=0
note_on channel=0 note=73 velocity=0 time=60
<meta message set_tempo tempo=447761 time=180>
note_on channel=0 note=64 velocity=0 time=0
note_on channel=0 note=76 velocity=50 time=0
note_on channel=0 note=59 velocity=42 time=0
<meta message set_tempo tempo=431655 time=240>
note_on channel=0 note=59 velocity=0 time=0
note_on channel=0 note=76 velocity=0 time=0
note_on channel=0 note=74 velocity=47 time=0
note_on channel=0 note=64 velocity=31 time=0
note_on channel=0 note=64 velocity=0 time=240
note_on channel=0 note=74 velocity=0 time=0
note_on channel=0 note=73 velocity=47 time=0
note_on channel=0 note=62 velocity=35 time=0
note_on channel=0 note=73 velocity=0 time=60
<meta message set_tempo tempo=451128 time=180>
note_on channel=0 note=62 velocity=0 time=0
note_on channel=0 note=71 velocity=47 time=0
note_on channel=0 note=64 velocity=31 time=0
note_on channel=0 note=71 velocity=0 time=60
<meta message set_tempo tempo=431655 time=180>
note_on channel=0 note=64 velocity=0 time=0
note_on channel=0 note=68 velocity=53 time=0
note_on channel=0 note=61 velocity=40 time=0
<meta message set_tempo tempo=447761 time=240>
note_on channel=0 note=61 velocity=0 time=0
note_on channel=0 note=68 velocity=0 time=0
note_on channel=0 note=69 velocity=50 time=0
note_on channel=0 note=64 velocity=31 time=0
note_on channel=0 note=69 velocity=0 time=60
<meta message set_tempo tempo=431655 time=180>
note_on channel=0 note=64 velocity=0 time=0
note_on channel=0 note=61 velocity=34 time=0
<meta message set_tempo tempo=444444 time=240>
note_on channel=0 note=61 velocity=0 time=0
note_on channel=0 note=70 velocity=50 time=0
note_on channel=0 note=64 velocity=31 time=0
note_on channel=0 note=70 velocity=0 time=60
<meta message set_tempo tempo=431655 time=180>
note_on channel=0 note=64 velocity=0 time=0
note_on channel=0 note=56 velocity=39 time=0
<meta message set_tempo tempo=441176 time=240>
note_on channel=0 note=56 velocity=0 time=0
note_on channel=0 note=71 velocity=50 time=0
note_on channel=0 note=64 velocity=31 time=0
note_on channel=0 note=71 velocity=0 time=60
<meta message set_tempo tempo=431655 time=180>
note_on channel=0 note=64 velocity=0 time=0
note_on channel=0 note=56 velocity=33 time=0
<meta message set_tempo tempo=447761 time=240>
note_on channel=0 note=56 velocity=0 time=0
note_on channel=0 note=72 velocity=50 time=0
note_on channel=0 note=64 velocity=31 time=0
note_on channel=0 note=72 velocity=0 time=60
note_on channel=0 note=74 velocity=41 time=150
<meta message set_tempo tempo=431655 time=30>
note_on channel=0 note=74 velocity=0 time=0
note_on channel=0 note=64 velocity=0 time=0
note_on channel=0 note=73 velocity=54 time=0
note_on channel=0 note=57 velocity=40 time=0
note_on channel=0 note=73 velocity=0 time=60
note_on channel=0 note=57 velocity=0 time=180
note_on channel=0 note=73 velocity=50 time=0
note_on channel=0 note=64 velocity=31 time=0
note_on channel=0 note=73 velocity=0 time=60
note_on channel=0 note=76 velocity=41 time=150
<meta message set_tempo tempo=437956 time=30>
note_on channel=0 note=76 velocity=0 time=0
note_on channel=0 note=64 velocity=0 time=0
note_on channel=0 note=74 velocity=50 time=0
note_on channel=0 note=59 velocity=34 time=0
note_on channel=0 note=74 velocity=0 time=60
<meta message set_tempo tempo=458015 time=180>
note_on channel=0 note=59 velocity=0 time=0
note_on channel=0 note=74 velocity=50 time=0
note_on channel=0 note=64 velocity=31 time=0
note_on channel=0 note=74 velocity=0 time=60
<meta message set_tempo tempo=437956 time=180>
note_on channel=0 note=64 velocity=0 time=0
note_on channel=0 note=73 velocity=55 time=0
note_on channel=0 note=57 velocity=38 time=0
note_on channel=0 note=52 velocity=31 time=0
<meta message set_tempo tempo=447761 time=480>
note_on channel=0 note=57 velocity=0 time=0
note_on channel=0 note=73 velocity=0 time=0
note_on channel=0 note=71 velocity=50 time=0
note_on channel=0 note=56 velocity=41 time=0
note_on channel=0 note=56 velocity=0 time=240
note_on channel=0 note=71 velocity=0 time=0
note_on channel=0 note=52 velocity=0 time=0
note_on channel=0 note=33 velocity=59 time=150
note_on channel=0 note=37 velocity=70 time=30
note_on channel=0 note=40 velocity=75 time=30
<meta message set_tempo tempo=431655 time=30>
note_on channel=0 note=73 velocity=78 time=0
note_on channel=0 note=45 velocity=80 time=0
control_change channel=0 control=64 value=127 time=25
note_on channel=0 note=73 velocity=0 time=95
note_on channel=0 note=69 velocity=63 time=0
note_on channel=0 note=69 velocity=0 time=120
note_on channel=0 note=45 velocity=0 time=0
note_on channel=0 note=33 velocity=0 time=0
note_on channel=0 note=37 velocity=0 time=0
note_on channel=0 note=40 velocity=0 time=0
note_on channel=0 note=64 velocity=63 time=0
note_on channel=0 note=64 velocity=0 time=120
note_on channel=0 note=69 velocity=63 time=0
note_on channel=0 note=69 velocity=0 time=120
note_on channel=0 note=73 velocity=78 time=0
control_change channel=0 control=64 value=0 time=10
control_change channel=0 control=64 value=127 time=50
note_on channel=0 note=73 velocity=0 time=60
note_on channel=0 note=69 velocity=64 time=0
<meta message set_tempo tempo=447761 time=120>
note_on channel=0 note=69 velocity=0 time=0
note_on channel=0 note=74 velocity=78 time=0
control_change channel=0 control=64 value=0 time=113
note_on channel=0 note=74 velocity=0 time=7
note_on channel=0 note=71 velocity=64 time=0
note_on channel=0 note=57 velocity=58 time=30
note_on channel=0 note=61 velocity=62 time=30
control_change channel=0 control=64 value=127 time=28
note_on channel=0 note=64 velocity=68 time=2
<meta message set_tempo tempo=422535 time=30>
note_on channel=0 note=71 velocity=0 time=0
note_on channel=0 note=76 velocity=79 time=0
note_on channel=0 note=69 velocity=71 time=0
note_on channel=0 note=76 velocity=0 time=120
note_on channel=0 note=73 velocity=66 time=0
note_on channel=0 note=73 velocity=0 time=120
note_on channel=0 note=69 velocity=0 time=0
note_on channel=0 note=64 velocity=0 time=0
note_on channel=0 note=61 velocity=0 time=0
note_on channel=0 note=57 velocity=0 time=0
note_on channel=0 note=76 velocity=81 time=0
note_on channel=0 note=76 velocity=0 time=120
note_on channel=0 note=73 velocity=68 time=0
<meta message set_tempo tempo=437956 time=120>
note_on channel=0 note=73 velocity=0 time=0
note_on channel=0 note=78 velocity=84 time=0
control_change channel=0 control=64 value=0 time=12
control_change channel=0 control=64 value=127 time=45
note_on channel=0 note=78 velocity=0 time=63
note_on channel=0 note=76 velocity=82 time=0
note_on channel=0 note=76 velocity=0 time=120
note_on channel=0 note=74 velocity=80 time=0
note_on channel=0 note=74 velocity=0 time=120
note_on channel=0 note=73 velocity=79 time=0
control_change channel=0 control=64 value=0 time=18
note_on channel=0 note=40 velocity=70 time=12
note_on channel=0 note=44 velocity=72 time=30
note_on channel=0 note=47 velocity=77 time=30
<meta message set_tempo tempo=431655 time=30>
note_on channel=0 note=73 velocity=0 time=0
note_on channel=0 note=71 velocity=77 time=0
note_on channel=0 note=52 velocity=80 time=0
control_change channel=0 control=64 value=127 time=14
note_on channel=0 note=71 velocity=0 time=106
note_on channel=0 note=68 velocity=64 time=0
note_on channel=0 note=68 velocity=0 time=120
note_on channel=0 note=52 velocity=0 time=0
note_on channel=0 note=47 velocity=0 time=0
note_on channel=0 note=44 velocity=0 time=0
note_on channel=0 note=40 velocity=0 time=0
note_on channel=0 note=64 velocity=64 time=0
note_on channel=0 note=64 velocity=0 time=120
note_on channel=0 note=68 velocity=64 time=0
note_on channel=0 note=68 velocity=0 time=120
note_on channel=0 note=71 velocity=78 time=0
control_change channel=0 control=64 value=0 time=21
control_change channel=0 control=64 value=127 time=46
note_on channel=0 note=71 velocity=0 time=53
note_on channel=0 note=68 velocity=63 time=0
<meta message set_tempo tempo=441176 time=120>
note_on channel=0 note=68 velocity=0 time=0
note_on channel=0 note=73 velocity=79 time=0
note_on channel=0 note=73 velocity=0 time=120
note_on channel=0 note=69 velocity=63 time=0
control_change channel=0 control=64 value=0 time=28
note_on channel=0 note=52 velocity=58 time=2
note_on channel=0 note=56 velocity=68 time=30
note_on channel=0 note=59 velocity=62 time=30
control_change channel=0 control=64 value=127 time=20
<meta message set_tempo tempo=422535 time=10>
note_on channel=0 note=69 velocity=0 time=0
note_on channel=0 note=74 velocity=80 time=0
note_on channel=0 note=64 velocity=71 time=0
note_on channel=0 note=74 velocity=0 time=120
note_on channel=0 note=71 velocity=64 time=0
note_on channel=0 note=71 velocity=0 time=120
note_on channel=0 note=64 velocity=0 time=0
note_on channel=0 note=59 velocity=0 time=0
note_on channel=0 note=56 velocity=0 time=0
note_on channel=0 note=52 velocity=0 time=0
note_on channel=0 note=74 velocity=80 time=0
note_on channel=0 note=74 velocity=0 time=120
note_on channel=0 note=71 velocity=69 time=0
<meta message set_tempo tempo=428571 time=120>
note_on channel=0 note=71 velocity=0 time=0
note_on channel=0 note=76 velocity=84 time=0
control_change channel=0 control=64 value=0 time=11
control_change channel=0 control=64 value=127 time=42
note_on channel=0 note=76 velocity=0 time=67
note_on channel=0 note=74 velocity=84 time=0
note_on channel=0 note=74 velocity=0 time=120
note_on channel=0 note=73 velocity=81 time=0
note_on channel=0 note=73 velocity=0 time=120
note_on channel=0 note=71 velocity=79 time=0
<meta message set_tempo tempo=447761 time=120>
note_on channel=0 note=71 velocity=0 time=0
note_on channel=0 note=69 velocity=82 time=0
note_on channel=0 note=42 velocity=80 time=0
control_change channel=0 control=64 value=0 time=0
note_on channel=0 note=42 velocity=0 time=60
note_on channel=0 note=69 velocity=0 time=60
note_on channel=0 note=73 velocity=66 time=0
<meta message set_tempo tempo=434783 time=120>
note_on channel=0 note=73 velocity=0 time=0
note_on channel=0 note=71 velocity=66 time=0
note_on channel=0 note=54 velocity=73 time=0
note_on channel=0 note=54 velocity=0 time=60
note_on channel=0 note=71 velocity=0 time=60
note_on channel=0 note=69 velocity=66 time=0
<meta message set_tempo tempo=451128 time=120>
note_on channel=0 note=69 velocity=0 time=0
note_on channel=0 note=71 velocity=85 time=0
note_on channel=0 note=44 velocity=80 time=0
note_on channel=0 note=44 velocity=0 time=60
note_on channel=0 note=71 velocity=0 time=60
note_on channel=0 note=74 velocity=66 time=0
<meta message set_tempo tempo=431655 time=120>
note_on channel=0 note=74 velocity=0 time=0
note_on channel=0 note=73 velocity=66 time=0
note_on channel=0 note=56 velocity=73 time=0
note_on channel=0 note=56 velocity=0 time=60
note_on channel=0 note=73 velocity=0 time=60
note_on channel=0 note=71 velocity=66 time=0
<meta message set_tempo tempo=441176 time=120>
note_on channel=0 note=71 velocity=0 time=0
note_on channel=0 note=73 velocity=82 time=0
note_on channel=0 note=57 velocity=75 time=0
note_on channel=0 note=57 velocity=0 time=60
note_on channel=0 note=73 velocity=0 time=60
note_on channel=0 note=76 velocity=69 time=0
<meta message set_tempo tempo=431655 time=120>
note_on channel=0 note=76 velocity=0 time=0
note_on channel=0 note=81 velocity=74 time=0
note_on channel=0 note=61 velocity=77 time=0
note_on channel=0 note=61 velocity=0 time=60
note_on channel=0 note=81 velocity=0 time=60
note_on channel=0 note=76 velocity=69 time=0
note_on channel=0 note=76 velocity=0 time=120
note_on channel=0 note=78 velocity=83 time=0
note_on channel=0 note=62 velocity=83 time=0
note_on channel=0 note=62 velocity=0 time=60
note_on channel=0 note=78 velocity=0 time=60
note_on channel=0 note=81 velocity=71 time=0
<meta message set_tempo tempo=451128 time=120>
note_on channel=0 note=81 velocity=0 time=0
note_on channel=0 note=74 velocity=71 time=0
note_on channel=0 note=56 velocity=78 time=0
note_on channel=0 note=56 velocity=0 time=60
note_on channel=0 note=74 velocity=0 time=60
note_on channel=0 note=78 velocity=71 time=0
<meta message set_tempo tempo=434783 time=120>
note_on channel=0 note=78 velocity=0 time=0
note_on channel=0 note=73 velocity=84 time=0
note_on channel=0 note=57 velocity=84 time=0
note_on channel=0 note=57 velocity=0 time=60
note_on channel=0 note=73 velocity=0 time=60
note_on channel=0 note=76 velocity=69 time=0
note_on channel=0 note=76 velocity=0 time=120
note_on channel=0 note=69 velocity=80 time=0
note_on channel=0 note=54 velocity=77 time=0
note_on channel=0 note=54 velocity=0 time=60
note_on channel=0 note=69 velocity=0 time=60
note_on channel=0 note=73 velocity=69 time=0
<meta message set_tempo tempo=437956 time=120>
note_on channel=0 note=73 velocity=0 time=0
note_on channel=0 note=71 velocity=81 time=0
note_on channel=0 note=50 velocity=80 time=0
note_on channel=0 note=50 velocity=0 time=60
note_on channel=0 note=71 velocity=0 time=60
note_on channel=0 note=74 velocity=69 time=0
note_on channel=0 note=74 velocity=0 time=120
note_on channel=0 note=68 velocity=81 time=0
note_on channel=0 note=52 velocity=79 time=0
note_on channel=0 note=52 velocity=0 time=60
note_on channel=0 note=68 velocity=0 time=60
note_on channel=0 note=71 velocity=69 time=0
<meta message set_tempo tempo=441176 time=120>
note_on channel=0 note=71 velocity=0 time=0
note_on channel=0 note=69 velocity=79 time=0
note_on channel=0 note=45 velocity=75 time=0
control_change channel=0 control=64 value=127 time=36
note_on channel=0 note=69 velocity=0 time=84
note_on channel=0 note=64 velocity=69 time=0
note_on channel=0 note=64 velocity=0 time=120
note_on channel=0 note=61 velocity=69 time=0
note_on channel=0 note=61 velocity=0 time=120
note_on channel=0 note=64 velocity=69 time=0
<meta message set_tempo tempo=500000 time=120>
note_on channel=0 note=64 velocity=0 time=0
note_on channel=0 note=45 velocity=0 time=0
note_on channel=0 note=69 velocity=82 time=0
note_on channel=0 note=33 velocity=61 time=0
note_on channel=0 note=37 velocity=61 time=0
note_on channel=0 note=40 velocity=78 time=0
control_change channel=0 control=64 value=0 time=6
control_change channel=0 control=64 value=127 time=40
<meta message set_tempo tempo=428571 time=434>
note_on channel=0 note=40 velocity=0 time=0
note_on channel=0 note=69 velocity=0 time=0
note_on channel=0 note=33 velocity=0 time=0
note_on channel=0 note=37 velocity=0 time=0
note_on channel=0 note=69 velocity=55 time=0
note_on channel=0 note=57 velocity=40 time=0
control_change channel=0 control=64 value=0 time=0
note_on channel=0 note=69 velocity=0 time=120
note_on channel=0 note=71 velocity=49 time=0
control_change channel=0 control=64 value=127 time=0
note_on channel=0 note=71 velocity=0 time=120
note_on channel=0 note=57 velocity=0 time=0
note_on channel=0 note=73 velocity=50 time=0
note_on channel=0 note=64 velocity=36 time=0
note_on channel=0 note=73 velocity=0 time=120
note_on channel=0 note=74 velocity=50 time=0
note_on channel=0 note=74 velocity=0 time=120
note_on channel=0 note=64 velocity=0 time=0
note_on channel=0 note=76 velocity=51 time=0
note_on channel=0 note=61 velocity=36 time=0
note_on channel=0 note=76 velocity=0 time=120
note_on channel=0 note=78 velocity=52 time=0
note_on channel=0 note=78 velocity=0 time=120
note_on channel=0 note=61 velocity=0 time=0
note_on channel=0 note=80 velocity=53 time=0
note_on channel=0 note=64 velocity=36 time=0
<meta message set_tempo tempo=458015 time=120>
note_on channel=0 note=80 velocity=0 time=0
note_on channel=0 note=81 velocity=54 time=0
<meta message set_tempo tempo=428571 time=120>
note_on channel=0 note=81 velocity=0 time=0
note_on channel=0 note=64 velocity=0 time=0
note_on channel=0 note=80 velocity=56 time=0
note_on channel=0 note=57 velocity=43 time=0
control_change channel=0 control=64 value=0 time=0
note_on channel=0 note=80 velocity=0 time=120
note_on channel=0 note=78 velocity=50 time=0
<meta message set_tempo tempo=441176 time=60>
note_on channel=0 note=78 velocity=0 time=60
note_on channel=0 note=57 velocity=0 time=0
note_on channel=0 note=77 velocity=52 time=0
note_on channel=0 note=66 velocity=35 time=0
note_on channel=0 note=77 velocity=0 time=120
note_on channel=0 note=78 velocity=50 time=0
note_on channel=0 note=78 velocity=0 time=120
note_on channel=0 note=66 velocity=0 time=0
note_on channel=0 note=77 velocity=52 time=0
note_on channel=0 note=62 velocity=35 time=0
note_on channel=0 note=77 velocity=0 time=120
note_on channel=0 note=78 velocity=50 time=0
note_on channel=0 note=78 velocity=0 time=120
note_on channel=0 note=62 velocity=0 time=0
note_on channel=0 note=77 velocity=52 time=0
note_on channel=0 note=66 velocity=35 time=0
<meta message set_tempo tempo=465116 time=120>
note_on channel=0 note=77 velocity=0 time=0
note_on channel=0 note=78 velocity=50 time=0
<meta message set_tempo tempo=437956 time=120>
note_on channel=0 note=78 velocity=0 time=0
note_on channel=0 note=66 velocity=0 time=0
note_on channel=0 note=81 velocity=55 time=0
note_on channel=0 note=57 velocity=43 time=0
control_change channel=0 control=64 value=127 time=6
note_on channel=0 note=81 velocity=0 time=114
note_on channel=0 note=80 velocity=51 time=0
note_on channel=0 note=80 velocity=0 time=120
note_on channel=0 note=57 velocity=0 time=0
note_on channel=0 note=81 velocity=55 time=0
note_on channel=0 note=66 velocity=35 time=0
note_on channel=0 note=81 velocity=0 time=120
note_on channel=0 note=80 velocity=51 time=0
note_on channel=0 note=80 velocity=0 time=120
note_on channel=0 note=66 velocity=0 time=0
note_on channel=0 note=83 velocity=54 time=0
note_on channel=0 note=62 velocity=37 time=0
control_change channel=0 control=64 value=0 time=15
control_change channel=0 control=64 value=127 time=71
note_on channel=0 note=83 velocity=0 time=34
note_on channel=0 note=81 velocity=55 time=0
note_on channel=0 note=81 velocity=0 time=120
note_on channel=0 note=62 velocity=0 time=0
note_on channel=0 note=80 velocity=56 time=0
note_on channel=0 note=66 velocity=39 time=0
<meta message set_tempo tempo=476190 time=120>
note_on channel=0 note=80 velocity=0 time=0
note_on channel=0 note=78 velocity=58 time=0
<meta message set_tempo tempo=431655 time=120>
note_on channel=0 note=78 velocity=0 time=0
note_on channel=0 note=66 velocity=0 time=0
note_on channel=0 note=78 velocity=59 time=0
note_on channel=0 note=57 velocity=44 time=0
control_change channel=0 control=64 value=0 time=35
note_on channel=0 note=78 velocity=0 time=85
note_on channel=0 note=76 velocity=54 time=0
<meta message set_tempo tempo=451128 time=60>
note_on channel=0 note=76 velocity=0 time=60
note_on channel=0 note=57 velocity=0 time=0
note_on channel=0 note=75 velocity=58 time=0
note_on channel=0 note=64 velocity=35 time=0
control_change channel=0 control=64 value=127 time=45
note_on channel=0 note=75 velocity=0 time=75
note_on channel=0 note=76 velocity=52 time=0
note_on channel=0 note=76 velocity=0 time=120
note_on channel=0 note=64 velocity=0 time=0
note_on channel=0 note=75 velocity=54 time=0
note_on channel=0 note=61 velocity=35 time=0
control_change channel=0 control=64 value=0 time=15
control_change channel=0 control=64 value=127 time=82
note_on channel=0 note=75 velocity=0 time=23
note_on channel=0 note=76 velocity=50 time=0
note_on channel=0 note=76 velocity=0 time=120
note_on channel=0 note=61 velocity=0 time=0
note_on channel=0 note=75 velocity=55 time=0
note_on channel=0 note=64 velocity=35 time=0
control_change channel=0 control=64 value=0 time=11
control_change channel=0 control=64 value=127 time=81
<meta message set_tempo tempo=1176471 time=28>
note_on channel=0 note=75 velocity=0 time=0
note_on channel=0 note=76 velocity=51 time=0
note_on channel=0 note=45 velocity=55 time=30
<meta message set_tempo tempo=472441 time=6>
note_on channel=0 note=49 velocity=59 time=24
control_change channel=0 control=64 value=0 time=11
note_on channel=0 note=52 velocity=65 time=19
<meta message set_tempo tempo=431655 time=30>
note_on channel=0 note=76 velocity=0 time=0
note_on channel=0 note=64 velocity=0 time=0
note_on channel=0 note=76 velocity=74 time=0
note_on channel=0 note=57 velocity=68 time=0
control_change channel=0 control=64 value=127 time=50
note_on channel=0 note=76 velocity=0 time=70
note_on channel=0 note=81 velocity=72 time=0
note_on channel=0 note=81 velocity=0 time=120
note_on channel=0 note=57 velocity=0 time=0
note_on channel=0 note=52 velocity=0 time=0
note_on channel=0 note=45 velocity=0 time=0
note_on channel=0 note=49 velocity=0 time=0
note_on channel=0 note=85 velocity=75 time=0
note_on channel=0 note=85 velocity=0 time=120
note_on channel=0 note=83 velocity=71 time=0
note_on channel=0 note=83 velocity=0 time=120
note_on channel=0 note=81 velocity=74 time=0
control_change channel=0 control=64 value=0 time=10
note_on channel=0 note=81 velocity=0 time=110
note_on channel=0 note=80 velocity=74 time=0
<meta message set_tempo tempo=447761 time=120>
note_on channel=0 note=80 velocity=0 time=0
note_on channel=0 note=78 velocity=73 time=0
note_on channel=0 note=78 velocity=0 time=120
note_on channel=0 note=76 velocity=72 time=0
note_on channel=0 note=47 velocity=55 time=30
note_on channel=0 note=50 velocity=59 time=30
control_change channel=0 control=64 value=127 time=28
note_on channel=0 note=56 velocity=65 time=2
<meta message set_tempo tempo=422535 time=30>
note_on channel=0 note=76 velocity=0 time=0
note_on channel=0 note=74 velocity=74 time=0
note_on channel=0 note=59 velocity=68 time=0
note_on channel=0 note=74 velocity=0 time=120
note_on channel=0 note=80 velocity=69 time=0
note_on channel=0 note=80 velocity=0 time=120
note_on channel=0 note=59 velocity=0 time=0
note_on channel=0 note=56 velocity=0 time=0
note_on channel=0 note=50 velocity=0 time=0
note_on channel=0 note=47 velocity=0 time=0
note_on channel=0 note=83 velocity=77 time=0
note_on channel=0 note=83 velocity=0 time=120
note_on channel=0 note=81 velocity=73 time=0
<meta message set_tempo tempo=437956 time=120>
note_on channel=0 note=81 velocity=0 time=0
note_on channel=0 note=80 velocity=76 time=0
control_change channel=0 control=64 value=0 time=12
note_on channel=0 note=80 velocity=0 time=108
note_on channel=0 note=78 velocity=74 time=0
note_on channel=0 note=78 velocity=0 time=120
note_on channel=0 note=76 velocity=73 time=0
note_on channel=0 note=76 velocity=0 time=120
note_on channel=0 note=74 velocity=71 time=0
note_on channel=0 note=49 velocity=59 time=30
note_on channel=0 note=52 velocity=61 time=30
note_on channel=0 note=57 velocity=66 time=30
<meta message set_tempo tempo=447761 time=30>
note_on channel=0 note=74 velocity=0 time=0
note_on channel=0 note=73 velocity=73 time=0
note_on channel=0 note=61 velocity=68 time=0
note_on channel=0 note=76 velocity=70 time=120
note_on channel=0 note=73 velocity=0 time=12
note_on channel=0 note=57 velocity=0 time=98
note_on channel=0 note=61 velocity=0 time=10
note_on channel=0 note=49 velocity=0 time=0
note_on channel=0 note=52 velocity=0 time=0
note_on channel=0 note=81 velocity=73 time=0
note_on channel=0 note=76 velocity=0 time=12
note_on channel=0 note=80 velocity=70 time=108
note_on channel=0 note=81 velocity=0 time=12
note_on channel=0 note=50 velocity=59 time=18
note_on channel=0 note=54 velocity=61 time=30
note_on channel=0 note=59 velocity=66 time=30
note_on channel=0 note=78 velocity=73 time=30
note_on channel=0 note=62 velocity=68 time=0
note_on channel=0 note=80 velocity=0 time=12
note_on channel=0 note=76 velocity=71 time=108
note_on channel=0 note=78 velocity=0 time=12
note_on channel=0 note=59 velocity=0 time=98
<meta message set_tempo tempo=441176 time=10>
note_on channel=0 note=54 velocity=0 time=0
note_on channel=0 note=50 velocity=0 time=0
note_on channel=0 note=62 velocity=0 time=0
note_on channel=0 note=74 velocity=73 time=0
note_on channel=0 note=76 velocity=0 time=12
note_on channel=0 note=73 velocity=70 time=108
note_on channel=0 note=74 velocity=0 time=12
note_on channel=0 note=52 velocity=55 time=18
note_on channel=0 note=56 velocity=65 time=30
note_on channel=0 note=59 velocity=59 time=30
<meta message set_tempo tempo=422535 time=30>
note_on channel=0 note=71 velocity=72 time=0
note_on channel=0 note=64 velocity=68 time=0
note_on channel=0 note=73 velocity=0 time=12
note_on channel=0 note=69 velocity=68 time=108
note_on channel=0 note=71 velocity=0 time=12
note_on channel=0 note=56 velocity=0 time=108
note_on channel=0 note=59 velocity=0 time=0
note_on channel=0 note=52 velocity=0 time=0
note_on channel=0 note=64 velocity=0 time=0
note_on channel=0 note=68 velocity=66 time=0
note_on channel=0 note=69 velocity=0 time=12
note_on channel=0 note=66 velocity=64 time=108
note_on channel=0 note=68 velocity=0 time=12
<meta message set_tempo tempo=428571 time=108>
note_on channel=0 note=64 velocity=61 time=0
<meta message set_tempo tempo=425532 time=10>
note_on channel=0 note=66 velocity=0 time=2
<meta message set_tempo tempo=428571 time=75>
note_on channel=0 note=64 velocity=0 time=33
note_on channel=0 note=62 velocity=47 time=0
<meta message set_tempo tempo=431655 time=44>
<meta message set_tempo tempo=434783 time=58>
note_on channel=0 note=62 velocity=0 time=18
note_on channel=0 note=61 velocity=44 time=0
<meta message set_tempo tempo=437956 time=58>
note_on channel=0 note=61 velocity=0 time=62
note_on channel=0 note=59 velocity=41 time=0
<meta message set_tempo tempo=441176 time=15>
<meta message set_tempo tempo=444444 time=58>
<meta message set_tempo tempo=458015 time=47>
note_on channel=0 note=59 velocity=0 time=0
note_on channel=0 note=73 velocity=50 time=0
note_on channel=0 note=57 velocity=41 time=0
note_on channel=0 note=73 velocity=0 time=60
<meta message set_tempo tempo=434783 time=120>
note_on channel=0 note=74 velocity=47 time=30
<meta message set_tempo tempo=431655 time=30>
note_on channel=0 note=74 velocity=0 time=0
note_on channel=0 note=57 velocity=0 time=0
note_on channel=0 note=73 velocity=47 time=0
note_on channel=0 note=64 velocity=32 time=0
note_on channel=0 note=73 velocity=0 time=120
note_on channel=0 note=71 velocity=52 time=0
<meta message set_tempo tempo=425532 time=120>
note_on channel=0 note=71 velocity=0 time=0
note_on channel=0 note=64 velocity=0 time=0
note_on channel=0 note=73 velocity=47 time=0
note_on channel=0 note=59 velocity=37 time=0
note_on channel=0 note=73 velocity=0 time=60
<meta message set_tempo tempo=434783 time=180>
note_on channel=0 note=59 velocity=0 time=0
note_on channel=0 note=74 velocity=51 time=0
note_on channel=0 note=64 velocity=32 time=0
note_on channel=0 note=74 velocity=0 time=60
<meta message set_tempo tempo=451128 time=180>
note_on channel=0 note=64 velocity=0 time=0
note_on channel=0 note=78 velocity=53 time=0
note_on channel=0 note=61 velocity=42 time=0
<meta message set_tempo tempo=431655 time=240>
note_on channel=0 note=61 velocity=0 time=0
note_on channel=0 note=78 velocity=0 time=0
note_on channel=0 note=76 velocity=46 time=0
note_on channel=0 note=64 velocity=33 time=0
note_on channel=0 note=64 velocity=0 time=240
note_on channel=0 note=76 velocity=0 time=0
note_on channel=0 note=74 velocity=51 time=0
note_on channel=0 note=57 velocity=36 time=0
note_on channel=0 note=74 velocity=0 time=60
<meta message set_tempo tempo=451128 time=180>
note_on channel=0 note=57 velocity=0 time=0
note_on channel=0 note=73 velocity=49 time=0
note_on channel=0 note=64 velocity=33 time=0
note_on channel=0 note=73 velocity=0 time=60
<meta message set_tempo tempo=461538 time=180>
note_on channel=0 note=64 velocity=0 time=0
note_on channel=0 note=71 velocity=50 time=0
note_on channel=0 note=56 velocity=42 time=0
note_on channel=0 note=71 velocity=0 time=60
<meta message set_tempo tempo=428571 time=120>
note_on channel=0 note=73 velocity=46 time=30
note_on channel=0 note=73 velocity=0 time=30
note_on channel=0 note=56 velocity=0 time=0
note_on channel=0 note=71 velocity=46 time=0
note_on channel=0 note=64 velocity=33 time=0
note_on channel=0 note=71 velocity=0 time=120
note_on channel=0 note=70 velocity=50 time=0
<meta message set_tempo tempo=425532 time=120>
note_on channel=0 note=70 velocity=0 time=0
note_on channel=0 note=64 velocity=0 time=0
note_on channel=0 note=71 velocity=46 time=0
note_on channel=0 note=57 velocity=36 time=0
note_on channel=0 note=71 velocity=0 time=60
<meta message set_tempo tempo=431655 time=180>
note_on channel=0 note=57 velocity=0 time=0
note_on channel=0 note=73 velocity=47 time=0
note_on channel=0 note=64 velocity=33 time=0
note_on channel=0 note=73 velocity=0 time=60
<meta message set_tempo tempo=447761 time=180>
note_on channel=0 note=64 velocity=0 time=0
note_on channel=0 note=76 velocity=50 time=0
note_on channel=0 note=59 velocity=42 time=0
<meta message set_tempo tempo=431655 time=240>
note_on channel=0 note=59 velocity=0 time=0
note_on channel=0 note=76 velocity=0 time=0
note_on channel=0 note=74 velocity=47 time=0
note_on channel=0 note=64 velocity=31 time=0
note_on channel=0 note=64 velocity=0 time=240
note_on channel=0 note=74 velocity=0 time=0
note_on channel=0 note=73 velocity=47 time=0
note_on channel=0 note=56 velocity=35 time=0
note_on channel=0 note=73 velocity=0 time=60
<meta message set_tempo tempo=451128 time=180>
note_on channel=0 note=56 velocity=0 time=0
note_on channel=0 note=71 velocity=47 time=0
note_on channel=0 note=64 velocity=31 time=0
note_on channel=0 note=71 velocity=0 time=60
<meta message set_tempo tempo=431655 time=180>
note_on channel=0 note=64 velocity=0 time=0
note_on channel=0 note=68 velocity=53 time=0
note_on channel=0 note=54 velocity=40 time=0
<meta message set_tempo tempo=447761 time=240>
note_on channel=0 note=54 velocity=0 time=0
note_on channel=0 note=68 velocity=0 time=0
note_on channel=0 note=69 velocity=50 time=0
note_on channel=0 note=64 velocity=31 time=0
note_on channel=0 note=69 velocity=0 time=60
<meta message set_tempo tempo=431655 time=180>
note_on channel=0 note=64 velocity=0 time=0
note_on channel=0 note=56 velocity=34 time=0
<meta message set_tempo tempo=444444 time=240>
note_on channel=0 note=56 velocity=0 time=0
note_on channel=0 note=71 velocity=50 time=0
note_on channel=0 note=64 velocity=31 time=0
note_on channel=0 note=71 velocity=0 time=60
<meta message set_tempo tempo=431655 time=180>
note_on channel=0 note=64 velocity=0 time=0
note_on channel=0 note=57 velocity=39 time=0
note_on channel=0 note=72 velocity=40 time=210
<meta message set_tempo tempo=441176 time=30>
note_on channel=0 note=72 velocity=0 time=0
note_on channel=0 note=57 velocity=0 time=0
note_on channel=0 note=73 velocity=50 time=0
note_on channel=0 note=64 velocity=31 time=0
note_on channel=0 note=73 velocity=0 time=60
<meta message set_tempo tempo=431655 time=180>
note_on channel=0 note=64 velocity=0 time=0
note_on channel=0 note=50 velocity=33 time=0
note_on channel=0 note=76 velocity=40 time=210
<meta message set_tempo tempo=447761 time=30>
note_on channel=0 note=76 velocity=0 time=0
note_on channel=0 note=50 velocity=0 time=0
note_on channel=0 note=74 velocity=50 time=0
note_on channel=0 note=59 velocity=31 time=0
note_on channel=0 note=74 velocity=0 time=60
<meta message set_tempo tempo=431655 time=180>
note_on channel=0 note=59 velocity=0 time=0
note_on channel=0 note=52 velocity=40 time=0
note_on channel=0 note=74 velocity=40 time=210
note_on channel=0 note=74 velocity=0 time=30
note_on channel=0 note=52 velocity=0 time=0
note_on channel=0 note=73 velocity=50 time=0
note_on channel=0 note=57 velocity=31 time=0
note_on channel=0 note=73 velocity=0 time=60
<meta message set_tempo tempo=437956 time=180>
note_on channel=0 note=57 velocity=0 time=0
note_on channel=0 note=52 velocity=34 time=0
note_on channel=0 note=73 velocity=40 time=210
<meta message set_tempo tempo=535714 time=30>
note_on channel=0 note=73 velocity=0 time=0
note_on channel=0 note=52 velocity=0 time=0
note_on channel=0 note=71 velocity=50 time=0
note_on channel=0 note=56 velocity=31 time=0
note_on channel=0 note=71 velocity=0 time=60
<meta message set_tempo tempo=517241 time=180>
note_on channel=0 note=56 velocity=0 time=0
note_on channel=0 note=71 velocity=51 time=0
note_on channel=0 note=68 velocity=43 time=0
note_on channel=0 note=64 velocity=32 time=0
note_on channel=0 note=62 velocity=38 time=0
note_on channel=0 note=57 velocity=26 time=0
note_on channel=0 note=71 velocity=0 time=240
note_on channel=0 note=72 velocity=51 time=0
<meta message set_tempo tempo=472441 time=240>
note_on channel=0 note=72 velocity=0 time=0
note_on channel=0 note=68 velocity=0 time=0
note_on channel=0 note=62 velocity=0 time=0
note_on channel=0 note=69 velocity=40 time=0
note_on channel=0 note=73 velocity=48 time=0
note_on channel=0 note=61 velocity=31 time=0
note_on channel=0 note=61 velocity=0 time=240
note_on channel=0 note=69 velocity=0 time=0
note_on channel=0 note=57 velocity=0 time=0
note_on channel=0 note=64 velocity=0 time=0
note_on channel=0 note=73 velocity=0 time=0
<meta message set_tempo tempo=447761 time=240>
note_on channel=0 note=73 velocity=82 time=0
note_on channel=0 note=45 velocity=66 time=0
control_change channel=0 control=64 value=127 time=0
note_on channel=0 note=45 velocity=0 time=120
note_on channel=0 note=73 velocity=0 time=0
note_on channel=0 note=69 velocity=66 time=0
note_on channel=0 note=49 velocity=56 time=0
<meta message set_tempo tempo=434783 time=120>
note_on channel=0 note=49 velocity=0 time=0
note_on channel=0 note=69 velocity=0 time=0
note_on channel=0 note=76 velocity=81 time=0
note_on channel=0 note=52 velocity=55 time=0
note_on channel=0 note=52 velocity=0 time=120
note_on channel=0 note=76 velocity=0 time=0
note_on channel=0 note=73 velocity=66 time=0
note_on channel=0 note=57 velocity=55 time=0
<meta message set_tempo tempo=451128 time=120>
note_on channel=0 note=57 velocity=0 time=0
note_on channel=0 note=73 velocity=0 time=0
note_on channel=0 note=74 velocity=85 time=0
note_on channel=0 note=47 velocity=66 time=0
control_change channel=0 control=64 value=0 time=7
control_change channel=0 control=64 value=127 time=57
note_on channel=0 note=47 velocity=0 time=56
note_on channel=0 note=74 velocity=0 time=0
note_on channel=0 note=71 velocity=66 time=0
note_on channel=0 note=50 velocity=56 time=0
<meta message set_tempo tempo=431655 time=120>
note_on channel=0 note=50 velocity=0 time=0
note_on channel=0 note=71 velocity=0 time=0
note_on channel=0 note=78 velocity=79 time=0
note_on channel=0 note=56 velocity=56 time=0
note_on channel=0 note=56 velocity=0 time=120
note_on channel=0 note=78 velocity=0 time=0
note_on channel=0 note=74 velocity=66 time=0
note_on channel=0 note=59 velocity=56 time=0
<meta message set_tempo tempo=441176 time=120>
note_on channel=0 note=59 velocity=0 time=0
note_on channel=0 note=74 velocity=0 time=0
note_on channel=0 note=76 velocity=82 time=0
note_on channel=0 note=49 velocity=66 time=0
control_change channel=0 control=64 value=0 time=8
control_change channel=0 control=64 value=127 time=56
note_on channel=0 note=49 velocity=0 time=56
note_on channel=0 note=76 velocity=0 time=0
note_on channel=0 note=73 velocity=69 time=0
note_on channel=0 note=52 velocity=55 time=0
<meta message set_tempo tempo=431655 time=120>
note_on channel=0 note=52 velocity=0 time=0
note_on channel=0 note=73 velocity=0 time=0
note_on channel=0 note=81 velocity=74 time=0
note_on channel=0 note=57 velocity=55 time=0
note_on channel=0 note=57 velocity=0 time=120
note_on channel=0 note=81 velocity=0 time=0
note_on channel=0 note=76 velocity=69 time=0
note_on channel=0 note=61 velocity=55 time=0
note_on channel=0 note=61 velocity=0 time=120
note_on channel=0 note=76 velocity=0 time=0
note_on channel=0 note=80 velocity=83 time=0
note_on channel=0 note=50 velocity=66 time=0
control_change channel=0 control=64 value=0 time=10
control_change channel=0 control=64 value=127 time=82
note_on channel=0 note=50 velocity=0 time=28
note_on channel=0 note=80 velocity=0 time=0
note_on channel=0 note=78 velocity=71 time=0
note_on channel=0 note=54 velocity=53 time=0
<meta message set_tempo tempo=451128 time=120>
note_on channel=0 note=54 velocity=0 time=0
note_on channel=0 note=78 velocity=0 time=0
note_on channel=0 note=76 velocity=71 time=0
note_on channel=0 note=59 velocity=53 time=0
note_on channel=0 note=59 velocity=0 time=120
note_on channel=0 note=76 velocity=0 time=0
note_on channel=0 note=74 velocity=71 time=0
note_on channel=0 note=62 velocity=53 time=0
<meta message set_tempo tempo=434783 time=120>
note_on channel=0 note=62 velocity=0 time=0
note_on channel=0 note=74 velocity=0 time=0
note_on channel=0 note=73 velocity=84 time=0
note_on channel=0 note=52 velocity=66 time=0
control_change channel=0 control=64 value=0 time=7
control_change channel=0 control=64 value=127 time=46
note_on channel=0 note=52 velocity=0 time=67
note_on channel=0 note=73 velocity=0 time=0
note_on channel=0 note=76 velocity=69 time=0
note_on channel=0 note=57 velocity=56 time=0
note_on channel=0 note=57 velocity=0 time=120
note_on channel=0 note=76 velocity=0 time=0
note_on channel=0 note=69 velocity=80 time=0
note_on channel=0 note=61 velocity=55 time=0
note_on channel=0 note=61 velocity=0 time=120
note_on channel=0 note=69 velocity=0 time=0
note_on channel=0 note=73 velocity=69 time=0
note_on channel=0 note=64 velocity=55 time=0
<meta message set_tempo tempo=437956 time=120>
note_on channel=0 note=64 velocity=0 time=0
note_on channel=0 note=73 velocity=0 time=0
note_on channel=0 note=71 velocity=81 time=0
note_on channel=0 note=40 velocity=67 time=0
control_change channel=0 control=64 value=0 time=9
control_change channel=0 control=64 value=127 time=65
note_on channel=0 note=40 velocity=0 time=46
note_on channel=0 note=71 velocity=0 time=0
note_on channel=0 note=74 velocity=69 time=0
note_on channel=0 note=44 velocity=56 time=0
note_on channel=0 note=44 velocity=0 time=120
note_on channel=0 note=74 velocity=0 time=0
note_on channel=0 note=68 velocity=81 time=0
note_on channel=0 note=47 velocity=56 time=0
note_on channel=0 note=47 velocity=0 time=120
note_on channel=0 note=68 velocity=0 time=0
note_on channel=0 note=71 velocity=69 time=0
note_on channel=0 note=52 velocity=56 time=0
<meta message set_tempo tempo=441176 time=120>
note_on channel=0 note=52 velocity=0 time=0
note_on channel=0 note=71 velocity=0 time=0
note_on channel=0 note=69 velocity=79 time=0
note_on channel=0 note=45 velocity=68 time=0
control_change channel=0 control=64 value=0 time=3
control_change channel=0 control=64 value=127 time=61
note_on channel=0 note=45 velocity=0 time=56
note_on channel=0 note=69 velocity=0 time=0
note_on channel=0 note=64 velocity=69 time=0
note_on channel=0 note=49 velocity=57 time=0
note_on channel=0 note=49 velocity=0 time=120
note_on channel=0 note=64 velocity=0 time=0
note_on channel=0 note=61 velocity=69 time=0
note_on channel=0 note=52 velocity=57 time=0
note_on channel=0 note=52 velocity=0 time=120
note_on channel=0 note=61 velocity=0 time=0
note_on channel=0 note=64 velocity=69 time=0
note_on channel=0 note=57 velocity=57 time=0
<meta message set_tempo tempo=545455 time=120>
note_on channel=0 note=57 velocity=0 time=0
note_on channel=0 note=64 velocity=0 time=0
note_on channel=0 note=69 velocity=82 time=0
note_on channel=0 note=45 velocity=67 time=0
control_change channel=0 control=64 value=0 time=21
control_change channel=0 control=64 value=127 time=50
control_change channel=0 control=64 value=0 time=332
note_on channel=0 note=45 velocity=0 time=17
note_on channel=0 note=69 velocity=0 time=0
<meta message set_tempo tempo=428571 time=60>
note_on channel=0 note=69 velocity=55 time=0
note_on channel=0 note=57 velocity=40 time=0
control_change channel=0 control=64 value=127 time=0
note_on channel=0 note=69 velocity=0 time=120
note_on channel=0 note=71 velocity=49 time=0
note_on channel=0 note=71 velocity=0 time=120
note_on channel=0 note=57 velocity=0 time=0
note_on channel=0 note=73 velocity=50 time=0
note_on channel=0 note=64 velocity=36 time=0
note_on channel=0 note=73 velocity=0 time=120
note_on channel=0 note=74 velocity=50 time=0
note_on channel=0 note=74 velocity=0 time=120
note_on channel=0 note=64 velocity=0 time=0
note_on channel=0 note=76 velocity=51 time=0
note_on channel=0 note=61 velocity=36 time=0
note_on channel=0 note=76 velocity=0 time=120
note_on channel=0 note=78 velocity=52 time=0
note_on channel=0 note=78 velocity=0 time=120
note_on channel=0 note=61 velocity=0 time=0
note_on channel=0 note=80 velocity=53 time=0
note_on channel=0 note=64 velocity=36 time=0
<meta message set_tempo tempo=458015 time=120>
note_on channel=0 note=80 velocity=0 time=0
note_on channel=0 note=81 velocity=54 time=0
<meta message set_tempo tempo=428571 time=120>
note_on channel=0 note=81 velocity=0 time=0
note_on channel=0 note=64 velocity=0 time=0
note_on channel=0 note=80 velocity=56 time=0
note_on channel=0 note=57 velocity=43 time=0
control_change channel=0 control=64 value=0 time=0
note_on channel=0 note=80 velocity=0 time=120
note_on channel=0 note=78 velocity=50 time=0
<meta message set_tempo tempo=441176 time=60>
note_on channel=0 note=78 velocity=0 time=60
note_on channel=0 note=57 velocity=0 time=0
note_on channel=0 note=77 velocity=52 time=0
note_on channel=0 note=66 velocity=35 time=0
note_on channel=0 note=77 velocity=0 time=120
note_on channel=0 note=78 velocity=50 time=0
note_on channel=0 note=78 velocity=0 time=120
note_on channel=0 note=66 velocity=0 time=0
note_on channel=0 note=77 velocity=52 time=0
note_on channel=0 note=62 velocity=35 time=0
note_on channel=0 note=77 velocity=0 time=120
note_on channel=0 note=78 velocity=50 time=0
note_on channel=0 note=78 velocity=0 time=120
note_on channel=0 note=62 velocity=0 time=0
note_on channel=0 note=77 velocity=52 time=0
note_on channel=0 note=66 velocity=35 time=0
<meta message set_tempo tempo=465116 time=120>
note_on channel=0 note=77 velocity=0 time=0
note_on channel=0 note=78 velocity=50 time=0
<meta message set_tempo tempo=437956 time=120>
note_on channel=0 note=78 velocity=0 time=0
note_on channel=0 note=66 velocity=0 time=0
note_on channel=0 note=81 velocity=55 time=0
note_on channel=0 note=57 velocity=43 time=0
control_change channel=0 control=64 value=127 time=6
note_on channel=0 note=81 velocity=0 time=114
note_on channel=0 note=80 velocity=51 time=0
note_on channel=0 note=80 velocity=0 time=120
note_on channel=0 note=57 velocity=0 time=0
note_on channel=0 note=81 velocity=55 time=0
note_on channel=0 note=66 velocity=35 time=0
note_on channel=0 note=81 velocity=0 time=120
note_on channel=0 note=80 velocity=51 time=0
note_on channel=0 note=80 velocity=0 time=120
note_on channel=0 note=66 velocity=0 time=0
note_on channel=0 note=83 velocity=54 time=0
note_on channel=0 note=62 velocity=37 time=0
control_change channel=0 control=64 value=0 time=15
control_change channel=0 control=64 value=127 time=71
note_on channel=0 note=83 velocity=0 time=34
note_on channel=0 note=81 velocity=55 time=0
note_on channel=0 note=81 velocity=0 time=120
note_on channel=0 note=62 velocity=0 time=0
note_on channel=0 note=80 velocity=56 time=0
note_on channel=0 note=66 velocity=39 time=0
<meta message set_tempo tempo=476190 time=120>
note_on channel=0 note=80 velocity=0 time=0
note_on channel=0 note=78 velocity=58 time=0
<meta message set_tempo tempo=431655 time=120>
note_on channel=0 note=78 velocity=0 time=0
note_on channel=0 note=66 velocity=0 time=0
note_on channel=0 note=78 velocity=59 time=0
note_on channel=0 note=57 velocity=44 time=0
control_change channel=0 control=64 value=0 time=35
note_on channel=0 note=78 velocity=0 time=85
note_on channel=0 note=76 velocity=54 time=0
<meta message set_tempo tempo=451128 time=60>
note_on channel=0 note=76 velocity=0 time=60
note_on channel=0 note=57 velocity=0 time=0
note_on channel=0 note=75 velocity=58 time=0
note_on channel=0 note=64 velocity=35 time=0
control_change channel=0 control=64 value=127 time=45
note_on channel=0 note=75 velocity=0 time=75
note_on channel=0 note=76 velocity=52 time=0
note_on channel=0 note=76 velocity=0 time=120
note_on channel=0 note=64 velocity=0 time=0
note_on channel=0 note=75 velocity=54 time=0
note_on channel=0 note=61 velocity=35 time=0
control_change channel=0 control=64 value=0 time=15
control_change channel=0 control=64 value=127 time=82
note_on channel=0 note=75 velocity=0 time=23
note_on channel=0 note=76 velocity=50 time=0
note_on channel=0 note=76 velocity=0 time=120
note_on channel=0 note=61 velocity=0 time=0
note_on channel=0 note=75 velocity=55 time=0
note_on channel=0 note=64 velocity=35 time=0
control_change channel=0 control=64 value=0 time=11
control_change channel=0 control=64 value=127 time=81
<meta message set_tempo tempo=1176471 time=28>
note_on channel=0 note=75 velocity=0 time=0
note_on channel=0 note=76 velocity=51 time=0
note_on channel=0 note=45 velocity=55 time=30
<meta message set_tempo tempo=472441 time=6>
note_on channel=0 note=49 velocity=59 time=24
control_change channel=0 control=64 value=0 time=11
note_on channel=0 note=52 velocity=65 time=19
<meta message set_tempo tempo=431655 time=30>
note_on channel=0 note=76 velocity=0 time=0
note_on channel=0 note=64 velocity=0 time=0
note_on channel=0 note=76 velocity=74 time=0
note_on channel=0 note=57 velocity=68 time=0
control_change channel=0 control=64 value=127 time=50
note_on channel=0 note=76 velocity=0 time=70
note_on channel=0 note=81 velocity=72 time=0
note_on channel=0 note=81 velocity=0 time=120
note_on channel=0 note=57 velocity=0 time=0
note_on channel=0 note=52 velocity=0 time=0
note_on channel=0 note=45 velocity=0 time=0
note_on channel=0 note=49 velocity=0 time=0
note_on channel=0 note=85 velocity=75 time=0
note_on channel=0 note=85 velocity=0 time=120
note_on channel=0 note=83 velocity=71 time=0
note_on channel=0 note=83 velocity=0 time=120
note_on channel=0 note=81 velocity=74 time=0
control_change channel=0 control=64 value=0 time=10
note_on channel=0 note=81 velocity=0 time=110
note_on channel=0 note=80 velocity=74 time=0
<meta message set_tempo tempo=447761 time=120>
note_on channel=0 note=80 velocity=0 time=0
note_on channel=0 note=78 velocity=73 time=0
note_on channel=0 note=78 velocity=0 time=120
note_on channel=0 note=76 velocity=72 time=0
note_on channel=0 note=47 velocity=55 time=30
note_on channel=0 note=50 velocity=59 time=30
control_change channel=0 control=64 value=127 time=28
note_on channel=0 note=56 velocity=65 time=2
<meta message set_tempo tempo=422535 time=30>
note_on channel=0 note=76 velocity=0 time=0
note_on channel=0 note=74 velocity=74 time=0
note_on channel=0 note=59 velocity=68 time=0
note_on channel=0 note=74 velocity=0 time=120
note_on channel=0 note=80 velocity=69 time=0
note_on channel=0 note=80 velocity=0 time=120
note_on channel=0 note=59 velocity=0 time=0
note_on channel=0 note=56 velocity=0 time=0
note_on channel=0 note=50 velocity=0 time=0
note_on channel=0 note=47 velocity=0 time=0
note_on channel=0 note=83 velocity=77 time=0
note_on channel=0 note=83 velocity=0 time=120
note_on channel=0 note=81 velocity=73 time=0
<meta message set_tempo tempo=437956 time=120>
note_on channel=0 note=81 velocity=0 time=0
note_on channel=0 note=80 velocity=76 time=0
control_change channel=0 control=64 value=0 time=12
note_on channel=0 note=80 velocity=0 time=108
note_on channel=0 note=78 velocity=74 time=0
note_on channel=0 note=78 velocity=0 time=120
note_on channel=0 note=76 velocity=73 time=0
note_on channel=0 note=76 velocity=0 time=120
note_on channel=0 note=74 velocity=71 time=0
note_on channel=0 note=49 velocity=53 time=30
note_on channel=0 note=52 velocity=56 time=30
note_on channel=0 note=57 velocity=59 time=30
<meta message set_tempo tempo=447761 time=30>
note_on channel=0 note=74 velocity=0 time=0
note_on channel=0 note=73 velocity=73 time=0
note_on channel=0 note=61 velocity=63 time=0
note_on channel=0 note=76 velocity=70 time=120
note_on channel=0 note=73 velocity=0 time=12
note_on channel=0 note=57 velocity=0 time=98
note_on channel=0 note=61 velocity=0 time=10
note_on channel=0 note=49 velocity=0 time=0
note_on channel=0 note=52 velocity=0 time=0
note_on channel=0 note=81 velocity=73 time=0
note_on channel=0 note=76 velocity=0 time=12
note_on channel=0 note=80 velocity=70 time=108
note_on channel=0 note=81 velocity=0 time=12
note_on channel=0 note=50 velocity=55 time=18
note_on channel=0 note=54 velocity=58 time=30
note_on channel=0 note=59 velocity=60 time=30
note_on channel=0 note=78 velocity=73 time=30
note_on channel=0 note=62 velocity=64 time=0
note_on channel=0 note=80 velocity=0 time=12
note_on channel=0 note=76 velocity=71 time=108
note_on channel=0 note=78 velocity=0 time=12
note_on channel=0 note=59 velocity=0 time=98
<meta message set_tempo tempo=441176 time=10>
note_on channel=0 note=54 velocity=0 time=0
note_on channel=0 note=50 velocity=0 time=0
note_on channel=0 note=62 velocity=0 time=0
note_on channel=0 note=74 velocity=73 time=0
note_on channel=0 note=76 velocity=0 time=12
note_on channel=0 note=73 velocity=70 time=108
note_on channel=0 note=74 velocity=0 time=12
note_on channel=0 note=52 velocity=56 time=18
note_on channel=0 note=56 velocity=59 time=30
note_on channel=0 note=59 velocity=63 time=30
<meta message set_tempo tempo=422535 time=30>
note_on channel=0 note=71 velocity=72 time=0
note_on channel=0 note=64 velocity=66 time=0
note_on channel=0 note=73 velocity=0 time=12
note_on channel=0 note=69 velocity=68 time=108
note_on channel=0 note=71 velocity=0 time=12
note_on channel=0 note=56 velocity=0 time=108
note_on channel=0 note=59 velocity=0 time=0
note_on channel=0 note=52 velocity=0 time=0
note_on channel=0 note=64 velocity=0 time=0
note_on channel=0 note=68 velocity=66 time=0
note_on channel=0 note=69 velocity=0 time=12
note_on channel=0 note=66 velocity=64 time=108
note_on channel=0 note=68 velocity=0 time=12
<meta message set_tempo tempo=428571 time=108>
note_on channel=0 note=64 velocity=61 time=0
<meta message set_tempo tempo=425532 time=10>
note_on channel=0 note=66 velocity=0 time=2
<meta message set_tempo tempo=428571 time=75>
note_on channel=0 note=64 velocity=0 time=33
note_on channel=0 note=62 velocity=47 time=0
<meta message set_tempo tempo=431655 time=44>
<meta message set_tempo tempo=434783 time=58>
note_on channel=0 note=62 velocity=0 time=18
note_on channel=0 note=61 velocity=44 time=0
<meta message set_tempo tempo=437956 time=58>
note_on channel=0 note=61 velocity=0 time=62
note_on channel=0 note=59 velocity=41 time=0
<meta message set_tempo tempo=441176 time=15>
<meta message set_tempo tempo=444444 time=58>
<meta message set_tempo tempo=458015 time=47>
note_on channel=0 note=59 velocity=0 time=0
note_on channel=0 note=73 velocity=50 time=0
note_on channel=0 note=57 velocity=41 time=0
note_on channel=0 note=73 velocity=0 time=60
<meta message set_tempo tempo=434783 time=120>
note_on channel=0 note=74 velocity=47 time=30
<meta message set_tempo tempo=431655 time=30>
note_on channel=0 note=74 velocity=0 time=0
note_on channel=0 note=57 velocity=0 time=0
note_on channel=0 note=73 velocity=47 time=0
note_on channel=0 note=64 velocity=32 time=0
note_on channel=0 note=73 velocity=0 time=120
note_on channel=0 note=71 velocity=52 time=0
<meta message set_tempo tempo=425532 time=120>
note_on channel=0 note=71 velocity=0 time=0
note_on channel=0 note=64 velocity=0 time=0
note_on channel=0 note=73 velocity=47 time=0
note_on channel=0 note=59 velocity=37 time=0
note_on channel=0 note=73 velocity=0 time=60
<meta message set_tempo tempo=434783 time=180>
note_on channel=0 note=59 velocity=0 time=0
note_on channel=0 note=74 velocity=51 time=0
note_on channel=0 note=64 velocity=32 time=0
note_on channel=0 note=74 velocity=0 time=60
<meta message set_tempo tempo=451128 time=180>
note_on channel=0 note=64 velocity=0 time=0
note_on channel=0 note=78 velocity=53 time=0
note_on channel=0 note=61 velocity=42 time=0
<meta message set_tempo tempo=431655 time=240>
note_on channel=0 note=61 velocity=0 time=0
note_on channel=0 note=78 velocity=0 time=0
note_on channel=0 note=76 velocity=46 time=0
note_on channel=0 note=64 velocity=33 time=0
note_on channel=0 note=64 velocity=0 time=240
note_on channel=0 note=76 velocity=0 time=0
note_on channel=0 note=74 velocity=51 time=0
note_on channel=0 note=57 velocity=36 time=0
note_on channel=0 note=74 velocity=0 time=60
<meta message set_tempo tempo=451128 time=180>
note_on channel=0 note=57 velocity=0 time=0
note_on channel=0 note=73 velocity=49 time=0
note_on channel=0 note=64 velocity=33 time=0
note_on channel=0 note=73 velocity=0 time=60
<meta message set_tempo tempo=461538 time=180>
note_on channel=0 note=64 velocity=0 time=0
note_on channel=0 note=71 velocity=50 time=0
note_on channel=0 note=56 velocity=42 time=0
note_on channel=0 note=71 velocity=0 time=60
<meta message set_tempo tempo=428571 time=120>
note_on channel=0 note=73 velocity=46 time=30
note_on channel=0 note=73 velocity=0 time=30
note_on channel=0 note=56 velocity=0 time=0
note_on channel=0 note=71 velocity=46 time=0
note_on channel=0 note=64 velocity=33 time=0
note_on channel=0 note=71 velocity=0 time=120
note_on channel=0 note=70 velocity=50 time=0
<meta message set_tempo tempo=425532 time=120>
note_on channel=0 note=70 velocity=0 time=0
note_on channel=0 note=64 velocity=0 time=0
note_on channel=0 note=71 velocity=46 time=0
note_on channel=0 note=57 velocity=36 time=0
note_on channel=0 note=71 velocity=0 time=60
<meta message set_tempo tempo=431655 time=180>
note_on channel=0 note=57 velocity=0 time=0
note_on channel=0 note=73 velocity=47 time=0
note_on channel=0 note=64 velocity=33 time=0
note_on channel=0 note=73 velocity=0 time=60
<meta message set_tempo tempo=447761 time=180>
note_on channel=0 note=64 velocity=0 time=0
note_on channel=0 note=76 velocity=50 time=0
note_on channel=0 note=59 velocity=42 time=0
<meta message set_tempo tempo=431655 time=240>
note_on channel=0 note=59 velocity=0 time=0
note_on channel=0 note=76 velocity=0 time=0
note_on channel=0 note=74 velocity=47 time=0
note_on channel=0 note=64 velocity=31 time=0
note_on channel=0 note=64 velocity=0 time=240
note_on channel=0 note=74 velocity=0 time=0
note_on channel=0 note=73 velocity=47 time=0
note_on channel=0 note=56 velocity=35 time=0
note_on channel=0 note=73 velocity=0 time=60
<meta message set_tempo tempo=451128 time=180>
note_on channel=0 note=56 velocity=0 time=0
note_on channel=0 note=71 velocity=47 time=0
note_on channel=0 note=64 velocity=31 time=0
note_on channel=0 note=71 velocity=0 time=60
<meta message set_tempo tempo=431655 time=180>
note_on channel=0 note=64 velocity=0 time=0
note_on channel=0 note=68 velocity=53 time=0
note_on channel=0 note=54 velocity=40 time=0
<meta message set_tempo tempo=447761 time=240>
note_on channel=0 note=54 velocity=0 time=0
note_on channel=0 note=68 velocity=0 time=0
note_on channel=0 note=69 velocity=50 time=0
note_on channel=0 note=64 velocity=31 time=0
note_on channel=0 note=69 velocity=0 time=60
<meta message set_tempo tempo=431655 time=180>
note_on channel=0 note=64 velocity=0 time=0
note_on channel=0 note=56 velocity=34 time=0
<meta message set_tempo tempo=444444 time=240>
note_on channel=0 note=56 velocity=0 time=0
note_on channel=0 note=71 velocity=50 time=0
note_on channel=0 note=64 velocity=31 time=0
note_on channel=0 note=71 velocity=0 time=60
<meta message set_tempo tempo=431655 time=180>
note_on channel=0 note=64 velocity=0 time=0
note_on channel=0 note=57 velocity=39 time=0
note_on channel=0 note=72 velocity=40 time=210
<meta message set_tempo tempo=441176 time=30>
note_on channel=0 note=72 velocity=0 time=0
note_on channel=0 note=57 velocity=0 time=0
note_on channel=0 note=73 velocity=50 time=0
note_on channel=0 note=64 velocity=31 time=0
note_on channel=0 note=73 velocity=0 time=60
<meta message set_tempo tempo=431655 time=180>
note_on channel=0 note=64 velocity=0 time=0
note_on channel=0 note=50 velocity=33 time=0
note_on channel=0 note=76 velocity=40 time=210
<meta message set_tempo tempo=447761 time=30>
note_on channel=0 note=76 velocity=0 time=0
note_on channel=0 note=50 velocity=0 time=0
note_on channel=0 note=74 velocity=50 time=0
note_on channel=0 note=59 velocity=31 time=0
note_on channel=0 note=74 velocity=0 time=60
<meta message set_tempo tempo=431655 time=180>
note_on channel=0 note=59 velocity=0 time=0
note_on channel=0 note=52 velocity=40 time=0
note_on channel=0 note=74 velocity=40 time=210
note_on channel=0 note=74 velocity=0 time=30
note_on channel=0 note=52 velocity=0 time=0
note_on channel=0 note=73 velocity=50 time=0
note_on channel=0 note=57 velocity=31 time=0
note_on channel=0 note=73 velocity=0 time=60
<meta message set_tempo tempo=437956 time=180>
note_on channel=0 note=57 velocity=0 time=0
note_on channel=0 note=52 velocity=34 time=0
note_on channel=0 note=73 velocity=40 time=210
<meta message set_tempo tempo=535714 time=30>
note_on channel=0 note=73 velocity=0 time=0
note_on channel=0 note=52 velocity=0 time=0
note_on channel=0 note=71 velocity=50 time=0
note_on channel=0 note=56 velocity=31 time=0
note_on channel=0 note=71 velocity=0 time=60
<meta message set_tempo tempo=517241 time=180>
note_on channel=0 note=56 velocity=0 time=0
note_on channel=0 note=71 velocity=51 time=0
note_on channel=0 note=68 velocity=43 time=0
note_on channel=0 note=64 velocity=32 time=0
note_on channel=0 note=62 velocity=38 time=0
note_on channel=0 note=57 velocity=26 time=0
note_on channel=0 note=71 velocity=0 time=240
note_on channel=0 note=72 velocity=51 time=0
<meta message set_tempo tempo=472441 time=240>
note_on channel=0 note=72 velocity=0 time=0
note_on channel=0 note=68 velocity=0 time=0
note_on channel=0 note=62 velocity=0 time=0
note_on channel=0 note=69 velocity=40 time=0
note_on channel=0 note=73 velocity=48 time=0
note_on channel=0 note=61 velocity=31 time=0
note_on channel=0 note=61 velocity=0 time=240
note_on channel=0 note=69 velocity=0 time=0
note_on channel=0 note=57 velocity=0 time=0
note_on channel=0 note=64 velocity=0 time=0
note_on channel=0 note=73 velocity=0 time=0
<meta message set_tempo tempo=447761 time=240>
note_on channel=0 note=73 velocity=82 time=0
note_on channel=0 note=45 velocity=66 time=0
control_change channel=0 control=64 value=127 time=0
note_on channel=0 note=45 velocity=0 time=120
note_on channel=0 note=73 velocity=0 time=0
note_on channel=0 note=69 velocity=66 time=0
note_on channel=0 note=49 velocity=56 time=0
<meta message set_tempo tempo=434783 time=120>
note_on channel=0 note=49 velocity=0 time=0
note_on channel=0 note=69 velocity=0 time=0
note_on channel=0 note=76 velocity=81 time=0
note_on channel=0 note=52 velocity=55 time=0
note_on channel=0 note=52 velocity=0 time=120
note_on channel=0 note=76 velocity=0 time=0
note_on channel=0 note=73 velocity=66 time=0
note_on channel=0 note=57 velocity=55 time=0
<meta message set_tempo tempo=451128 time=120>
note_on channel=0 note=57 velocity=0 time=0
note_on channel=0 note=73 velocity=0 time=0
note_on channel=0 note=74 velocity=85 time=0
note_on channel=0 note=47 velocity=66 time=0
control_change channel=0 control=64 value=0 time=7
control_change channel=0 control=64 value=127 time=57
note_on channel=0 note=47 velocity=0 time=56
note_on channel=0 note=74 velocity=0 time=0
note_on channel=0 note=71 velocity=66 time=0
note_on channel=0 note=50 velocity=56 time=0
<meta message set_tempo tempo=431655 time=120>
note_on channel=0 note=50 velocity=0 time=0
note_on channel=0 note=71 velocity=0 time=0
note_on channel=0 note=78 velocity=79 time=0
note_on channel=0 note=56 velocity=56 time=0
note_on channel=0 note=56 velocity=0 time=120
note_on channel=0 note=78 velocity=0 time=0
note_on channel=0 note=74 velocity=66 time=0
note_on channel=0 note=59 velocity=56 time=0
<meta message set_tempo tempo=441176 time=120>
note_on channel=0 note=59 velocity=0 time=0
note_on channel=0 note=74 velocity=0 time=0
note_on channel=0 note=76 velocity=82 time=0
note_on channel=0 note=49 velocity=66 time=0
control_change channel=0 control=64 value=0 time=8
control_change channel=0 control=64 value=127 time=56
note_on channel=0 note=49 velocity=0 time=56
note_on channel=0 note=76 velocity=0 time=0
note_on channel=0 note=73 velocity=69 time=0
note_on channel=0 note=52 velocity=55 time=0
<meta message set_tempo tempo=431655 time=120>
note_on channel=0 note=52 velocity=0 time=0
note_on channel=0 note=73 velocity=0 time=0
note_on channel=0 note=81 velocity=74 time=0
note_on channel=0 note=57 velocity=55 time=0
note_on channel=0 note=57 velocity=0 time=120
note_on channel=0 note=81 velocity=0 time=0
note_on channel=0 note=76 velocity=69 time=0
note_on channel=0 note=61 velocity=55 time=0
note_on channel=0 note=61 velocity=0 time=120
note_on channel=0 note=76 velocity=0 time=0
note_on channel=0 note=80 velocity=83 time=0
note_on channel=0 note=50 velocity=66 time=0
control_change channel=0 control=64 value=0 time=10
control_change channel=0 control=64 value=127 time=82
note_on channel=0 note=50 velocity=0 time=28
note_on channel=0 note=80 velocity=0 time=0
note_on channel=0 note=78 velocity=71 time=0
note_on channel=0 note=54 velocity=53 time=0
<meta message set_tempo tempo=451128 time=120>
note_on channel=0 note=54 velocity=0 time=0
note_on channel=0 note=78 velocity=0 time=0
note_on channel=0 note=76 velocity=71 time=0
note_on channel=0 note=59 velocity=53 time=0
note_on channel=0 note=59 velocity=0 time=120
note_on channel=0 note=76 velocity=0 time=0
note_on channel=0 note=74 velocity=71 time=0
note_on channel=0 note=62 velocity=53 time=0
<meta message set_tempo tempo=434783 time=120>
note_on channel=0 note=62 velocity=0 time=0
note_on channel=0 note=74 velocity=0 time=0
note_on channel=0 note=73 velocity=84 time=0
note_on channel=0 note=52 velocity=66 time=0
control_change channel=0 control=64 value=0 time=7
control_change channel=0 control=64 value=127 time=46
note_on channel=0 note=52 velocity=0 time=67
note_on channel=0 note=73 velocity=0 time=0
note_on channel=0 note=76 velocity=69 time=0
note_on channel=0 note=57 velocity=56 time=0
note_on channel=0 note=57 velocity=0 time=120
note_on channel=0 note=76 velocity=0 time=0
note_on channel=0 note=69 velocity=80 time=0
note_on channel=0 note=61 velocity=55 time=0
note_on channel=0 note=61 velocity=0 time=120
note_on channel=0 note=69 velocity=0 time=0
note_on channel=0 note=73 velocity=69 time=0
note_on channel=0 note=64 velocity=55 time=0
<meta message set_tempo tempo=437956 time=120>
note_on channel=0 note=64 velocity=0 time=0
note_on channel=0 note=73 velocity=0 time=0
note_on channel=0 note=71 velocity=81 time=0
note_on channel=0 note=52 velocity=67 time=0
control_change channel=0 control=64 value=0 time=9
control_change channel=0 control=64 value=127 time=48
note_on channel=0 note=52 velocity=0 time=63
note_on channel=0 note=71 velocity=0 time=0
note_on channel=0 note=74 velocity=69 time=0
note_on channel=0 note=56 velocity=56 time=0
note_on channel=0 note=56 velocity=0 time=120
note_on channel=0 note=74 velocity=0 time=0
note_on channel=0 note=68 velocity=81 time=0
note_on channel=0 note=59 velocity=56 time=0
<meta message set_tempo tempo=545455 time=120>
note_on channel=0 note=59 velocity=0 time=0
note_on channel=0 note=68 velocity=0 time=0
note_on channel=0 note=71 velocity=69 time=0
note_on channel=0 note=62 velocity=56 time=0
control_change channel=0 control=64 value=0 time=14
note_on channel=0 note=62 velocity=0 time=96
note_on channel=0 note=71 velocity=0 time=0
<meta message set_tempo tempo=441176 time=10>
note_on channel=0 note=69 velocity=51 time=0
note_on channel=0 note=57 velocity=36 time=0
note_on channel=0 note=61 velocity=43 time=0
control_change channel=0 control=64 value=127 time=75
note_on channel=0 note=69 velocity=0 time=45
note_on channel=0 note=71 velocity=49 time=0
note_on channel=0 note=71 velocity=0 time=120
note_on channel=0 note=61 velocity=0 time=0
note_on channel=0 note=57 velocity=0 time=0
note_on channel=0 note=73 velocity=50 time=0
note_on channel=0 note=61 velocity=30 time=0
note_on channel=0 note=64 velocity=36 time=0
note_on channel=0 note=73 velocity=0 time=120
note_on channel=0 note=74 velocity=51 time=0
<meta message set_tempo tempo=434783 time=95>
note_on channel=0 note=64 velocity=0 time=13
note_on channel=0 note=61 velocity=0 time=0
note_on channel=0 note=74 velocity=0 time=12
note_on channel=0 note=76 velocity=52 time=0
note_on channel=0 note=61 velocity=30 time=0
note_on channel=0 note=64 velocity=36 time=0
control_change channel=0 control=64 value=0 time=21
<meta message set_tempo tempo=437956 time=30>
control_change channel=0 control=64 value=127 time=20
note_on channel=0 note=76 velocity=0 time=49
note_on channel=0 note=78 velocity=53 time=0
<meta message set_tempo tempo=441176 time=8>
<meta message set_tempo tempo=444444 time=77>
note_on channel=0 note=64 velocity=0 time=23
note_on channel=0 note=61 velocity=0 time=0
note_on channel=0 note=78 velocity=0 time=12
note_on channel=0 note=80 velocity=54 time=0
note_on channel=0 note=61 velocity=28 time=0
note_on channel=0 note=64 velocity=34 time=0
<meta message set_tempo tempo=447761 time=42>
<meta message set_tempo tempo=451128 time=77>
note_on channel=0 note=80 velocity=0 time=1
note_on channel=0 note=81 velocity=55 time=0
control_change channel=0 control=64 value=0 time=60
<meta message set_tempo tempo=454545 time=15>
note_on channel=0 note=81 velocity=0 time=25
note_on channel=0 note=64 velocity=0 time=0
note_on channel=0 note=61 velocity=0 time=0
<meta message set_tempo tempo=437956 time=20>
note_on channel=0 note=80 velocity=55 time=0
note_on channel=0 note=57 velocity=41 time=0
control_change channel=0 control=64 value=127 time=6
note_on channel=0 note=80 velocity=0 time=114
note_on channel=0 note=78 velocity=51 time=0
note_on channel=0 note=78 velocity=0 time=120
note_on channel=0 note=57 velocity=0 time=0
note_on channel=0 note=77 velocity=55 time=0
note_on channel=0 note=62 velocity=28 time=0
note_on channel=0 note=66 velocity=33 time=0
note_on channel=0 note=77 velocity=0 time=120
note_on channel=0 note=78 velocity=51 time=0
note_on channel=0 note=66 velocity=0 time=108
note_on channel=0 note=62 velocity=0 time=0
note_on channel=0 note=78 velocity=0 time=12
note_on channel=0 note=83 velocity=48 time=0
note_on channel=0 note=62 velocity=28 time=0
note_on channel=0 note=66 velocity=33 time=0
control_change channel=0 control=64 value=0 time=15
control_change channel=0 control=64 value=127 time=71
note_on channel=0 note=83 velocity=0 time=34
note_on channel=0 note=81 velocity=50 time=0
note_on channel=0 note=66 velocity=0 time=108
note_on channel=0 note=62 velocity=0 time=0
note_on channel=0 note=81 velocity=0 time=12
note_on channel=0 note=80 velocity=52 time=0
note_on channel=0 note=62 velocity=28 time=0
note_on channel=0 note=66 velocity=33 time=0
control_change channel=0 control=64 value=0 time=14
note_on channel=0 note=80 velocity=0 time=46
<meta message set_tempo tempo=476190 time=60>
note_on channel=0 note=78 velocity=54 time=0
note_on channel=0 note=78 velocity=0 time=60
<meta message set_tempo tempo=431655 time=60>
note_on channel=0 note=66 velocity=0 time=0
note_on channel=0 note=62 velocity=0 time=0
note_on channel=0 note=78 velocity=56 time=0
note_on channel=0 note=57 velocity=37 time=0
control_change channel=0 control=64 value=127 time=18
note_on channel=0 note=78 velocity=0 time=102
note_on channel=0 note=76 velocity=47 time=0
<meta message set_tempo tempo=451128 time=60>
note_on channel=0 note=76 velocity=0 time=60
note_on channel=0 note=57 velocity=0 time=0
note_on channel=0 note=75 velocity=54 time=0
note_on channel=0 note=61 velocity=27 time=0
note_on channel=0 note=64 velocity=32 time=0
control_change channel=0 control=64 value=0 time=11
control_change channel=0 control=64 value=127 time=35
note_on channel=0 note=75 velocity=0 time=74
note_on channel=0 note=76 velocity=47 time=0
note_on channel=0 note=64 velocity=0 time=108
note_on channel=0 note=61 velocity=0 time=0
note_on channel=0 note=76 velocity=0 time=12
note_on channel=0 note=69 velocity=52 time=0
note_on channel=0 note=61 velocity=27 time=0
note_on channel=0 note=64 velocity=32 time=0
control_change channel=0 control=64 value=0 time=15
control_change channel=0 control=64 value=127 time=82
note_on channel=0 note=69 velocity=0 time=23
note_on channel=0 note=73 velocity=46 time=0
note_on channel=0 note=64 velocity=0 time=108
note_on channel=0 note=61 velocity=0 time=0
<meta message set_tempo tempo=465116 time=12>
note_on channel=0 note=73 velocity=0 time=0
note_on channel=0 note=76 velocity=52 time=0
note_on channel=0 note=61 velocity=27 time=0
note_on channel=0 note=64 velocity=32 time=0
control_change channel=0 control=64 value=0 time=11
control_change channel=0 control=64 value=127 time=81
note_on channel=0 note=76 velocity=0 time=28
note_on channel=0 note=81 velocity=46 time=0
control_change channel=0 control=64 value=0 time=71
<meta message set_tempo tempo=437956 time=49>
note_on channel=0 note=81 velocity=0 time=0
note_on channel=0 note=64 velocity=0 time=0
note_on channel=0 note=61 velocity=0 time=0
note_on channel=0 note=80 velocity=55 time=0
note_on channel=0 note=57 velocity=41 time=0
control_change channel=0 control=64 value=127 time=6
note_on channel=0 note=80 velocity=0 time=114
note_on channel=0 note=78 velocity=51 time=0
note_on channel=0 note=78 velocity=0 time=120
note_on channel=0 note=57 velocity=0 time=0
note_on channel=0 note=77 velocity=55 time=0
note_on channel=0 note=62 velocity=28 time=0
note_on channel=0 note=66 velocity=33 time=0
note_on channel=0 note=77 velocity=0 time=120
note_on channel=0 note=78 velocity=51 time=0
note_on channel=0 note=66 velocity=0 time=108
note_on channel=0 note=62 velocity=0 time=0
note_on channel=0 note=78 velocity=0 time=12
note_on channel=0 note=83 velocity=48 time=0
note_on channel=0 note=62 velocity=28 time=0
note_on channel=0 note=66 velocity=33 time=0
control_change channel=0 control=64 value=0 time=15
control_change channel=0 control=64 value=127 time=71
note_on channel=0 note=83 velocity=0 time=34
note_on channel=0 note=81 velocity=50 time=0
note_on channel=0 note=66 velocity=0 time=108
note_on channel=0 note=62 velocity=0 time=0
note_on channel=0 note=81 velocity=0 time=12
note_on channel=0 note=80 velocity=52 time=0
note_on channel=0 note=62 velocity=28 time=0
note_on channel=0 note=66 velocity=33 time=0
control_change channel=0 control=64 value=0 time=8
note_on channel=0 note=80 velocity=0 time=52
<meta message set_tempo tempo=476190 time=60>
note_on channel=0 note=78 velocity=54 time=0
note_on channel=0 note=78 velocity=0 time=60
<meta message set_tempo tempo=387097 time=60>
note_on channel=0 note=66 velocity=0 time=0
note_on channel=0 note=62 velocity=0 time=0
note_on channel=0 note=76 velocity=52 time=0
note_on channel=0 note=57 velocity=41 time=0
note_on channel=0 note=61 velocity=41 time=0
note_on channel=0 note=64 velocity=41 time=0
note_on channel=0 note=64 velocity=0 time=240
note_on channel=0 note=61 velocity=0 time=0
note_on channel=0 note=57 velocity=0 time=0
note_on channel=0 note=76 velocity=0 time=116
<meta message set_tempo tempo=419580 time=4>
note_on channel=0 note=76 velocity=52 time=0
<meta message set_tempo tempo=722892 time=60>
note_on channel=0 note=76 velocity=0 time=0
note_on channel=0 note=78 velocity=38 time=0
note_on channel=0 note=78 velocity=0 time=20
note_on channel=0 note=76 velocity=37 time=0
note_on channel=0 note=76 velocity=0 time=20
note_on channel=0 note=75 velocity=37 time=0
<meta message set_tempo tempo=384615 time=20>
note_on channel=0 note=75 velocity=0 time=0
note_on channel=0 note=76 velocity=52 time=0
<meta message set_tempo tempo=379747 time=480>
note_on channel=0 note=76 velocity=0 time=0
note_on channel=0 note=50 velocity=41 time=0
note_on channel=0 note=59 velocity=41 time=0
note_on channel=0 note=59 velocity=0 time=240
note_on channel=0 note=50 velocity=0 time=0
<meta message set_tempo tempo=428571 time=120>
note_on channel=0 note=74 velocity=52 time=0
<meta message set_tempo tempo=714286 time=60>
note_on channel=0 note=74 velocity=0 time=0
note_on channel=0 note=76 velocity=35 time=0
note_on channel=0 note=76 velocity=0 time=20
note_on channel=0 note=74 velocity=35 time=0
note_on channel=0 note=74 velocity=0 time=20
note_on channel=0 note=73 velocity=35 time=0
<meta message set_tempo tempo=389610 time=20>
note_on channel=0 note=73 velocity=0 time=0
note_on channel=0 note=74 velocity=52 time=0
<meta message set_tempo tempo=387097 time=480>
note_on channel=0 note=74 velocity=0 time=0
note_on channel=0 note=52 velocity=41 time=0
note_on channel=0 note=57 velocity=41 time=0
note_on channel=0 note=57 velocity=0 time=240
note_on channel=0 note=52 velocity=0 time=0
<meta message set_tempo tempo=437956 time=120>
note_on channel=0 note=73 velocity=52 time=0
<meta message set_tempo tempo=705882 time=60>
note_on channel=0 note=73 velocity=0 time=0
note_on channel=0 note=74 velocity=36 time=0
note_on channel=0 note=74 velocity=0 time=20
note_on channel=0 note=73 velocity=36 time=0
note_on channel=0 note=73 velocity=0 time=20
note_on channel=0 note=71 velocity=36 time=0
<meta message set_tempo tempo=389610 time=20>
note_on channel=0 note=71 velocity=0 time=0
note_on channel=0 note=73 velocity=52 time=0
<meta message set_tempo tempo=384615 time=480>
note_on channel=0 note=73 velocity=0 time=0
note_on channel=0 note=50 velocity=41 time=0
note_on channel=0 note=56 velocity=41 time=0
note_on channel=0 note=56 velocity=0 time=240
note_on channel=0 note=50 velocity=0 time=0
<meta message set_tempo tempo=441176 time=120>
note_on channel=0 note=71 velocity=52 time=0
<meta message set_tempo tempo=697674 time=60>
note_on channel=0 note=71 velocity=0 time=0
note_on channel=0 note=73 velocity=35 time=0
note_on channel=0 note=73 velocity=0 time=20
note_on channel=0 note=71 velocity=35 time=0
note_on channel=0 note=71 velocity=0 time=20
note_on channel=0 note=69 velocity=35 time=0
<meta message set_tempo tempo=397351 time=20>
note_on channel=0 note=69 velocity=0 time=0
note_on channel=0 note=71 velocity=52 time=0
<meta message set_tempo tempo=444444 time=480>
note_on channel=0 note=71 velocity=0 time=0
note_on channel=0 note=49 velocity=63 time=0
note_on channel=0 note=57 velocity=63 time=0
control_change channel=0 control=64 value=127 time=32
note_on channel=0 note=76 velocity=60 time=88
<meta message set_tempo tempo=428571 time=120>
note_on channel=0 note=76 velocity=0 time=0
note_on channel=0 note=57 velocity=0 time=0
note_on channel=0 note=49 velocity=0 time=0
note_on channel=0 note=75 velocity=71 time=0
note_on channel=0 note=75 velocity=0 time=120
note_on channel=0 note=76 velocity=64 time=0
note_on channel=0 note=76 velocity=0 time=120
note_on channel=0 note=78 velocity=71 time=0
control_change channel=0 control=64 value=0 time=3
control_change channel=0 control=64 value=127 time=45
note_on channel=0 note=78 velocity=0 time=72
note_on channel=0 note=76 velocity=64 time=0
<meta message set_tempo tempo=458015 time=120>
note_on channel=0 note=76 velocity=0 time=0
note_on channel=0 note=75 velocity=64 time=0
note_on channel=0 note=75 velocity=0 time=120
note_on channel=0 note=76 velocity=64 time=0
control_change channel=0 control=64 value=0 time=79
<meta message set_tempo tempo=444444 time=41>
note_on channel=0 note=76 velocity=0 time=0
note_on channel=0 note=50 velocity=63 time=0
note_on channel=0 note=59 velocity=63 time=0
control_change channel=0 control=64 value=127 time=86
note_on channel=0 note=74 velocity=60 time=34
note_on channel=0 note=74 velocity=0 time=120
note_on channel=0 note=59 velocity=0 time=0
note_on channel=0 note=50 velocity=0 time=0
note_on channel=0 note=73 velocity=71 time=0
<meta message set_tempo tempo=428571 time=60>
note_on channel=0 note=73 velocity=0 time=60
note_on channel=0 note=74 velocity=64 time=0
note_on channel=0 note=74 velocity=0 time=120
note_on channel=0 note=76 velocity=71 time=0
control_change channel=0 control=64 value=0 time=10
control_change channel=0 control=64 value=127 time=93
note_on channel=0 note=76 velocity=0 time=17
note_on channel=0 note=74 velocity=64 time=0
note_on channel=0 note=74 velocity=0 time=120
note_on channel=0 note=73 velocity=64 time=0
<meta message set_tempo tempo=468750 time=60>
note_on channel=0 note=73 velocity=0 time=60
note_on channel=0 note=74 velocity=64 time=0
control_change channel=0 control=64 value=0 time=69
<meta message set_tempo tempo=437956 time=51>
note_on channel=0 note=74 velocity=0 time=0
note_on channel=0 note=52 velocity=63 time=0
note_on channel=0 note=57 velocity=63 time=0
control_change channel=0 control=64 value=127 time=103
note_on channel=0 note=73 velocity=60 time=17
note_on channel=0 note=73 velocity=0 time=120
note_on channel=0 note=57 velocity=0 time=0
note_on channel=0 note=52 velocity=0 time=0
note_on channel=0 note=72 velocity=71 time=0
<meta message set_tempo tempo=431655 time=60>
note_on channel=0 note=72 velocity=0 time=60
note_on channel=0 note=73 velocity=64 time=0
note_on channel=0 note=73 velocity=0 time=120
note_on channel=0 note=74 velocity=71 time=0
control_change channel=0 control=64 value=0 time=11
note_on channel=0 note=74 velocity=0 time=109
note_on channel=0 note=73 velocity=64 time=0
control_change channel=0 control=64 value=127 time=0
<meta message set_tempo tempo=447761 time=120>
note_on channel=0 note=73 velocity=0 time=0
note_on channel=0 note=72 velocity=64 time=0
note_on channel=0 note=72 velocity=0 time=120
note_on channel=0 note=73 velocity=64 time=0
control_change channel=0 control=64 value=0 time=52
<meta message set_tempo tempo=441176 time=68>
note_on channel=0 note=73 velocity=0 time=0
note_on channel=0 note=52 velocity=63 time=0
note_on channel=0 note=56 velocity=63 time=0
control_change channel=0 control=64 value=127 time=69
note_on channel=0 note=71 velocity=60 time=51
<meta message set_tempo tempo=428571 time=120>
note_on channel=0 note=71 velocity=0 time=0
note_on channel=0 note=56 velocity=0 time=0
note_on channel=0 note=52 velocity=0 time=0
note_on channel=0 note=70 velocity=71 time=0
note_on channel=0 note=70 velocity=0 time=120
note_on channel=0 note=71 velocity=64 time=0
note_on channel=0 note=71 velocity=0 time=120
note_on channel=0 note=73 velocity=71 time=0
control_change channel=0 control=64 value=0 time=6
control_change channel=0 control=64 value=127 time=74
note_on channel=0 note=73 velocity=0 time=40
note_on channel=0 note=71 velocity=64 time=0
<meta message set_tempo tempo=444444 time=120>
note_on channel=0 note=71 velocity=0 time=0
note_on channel=0 note=70 velocity=64 time=0
note_on channel=0 note=70 velocity=0 time=120
note_on channel=0 note=71 velocity=64 time=0
<meta message set_tempo tempo=487805 time=120>
note_on channel=0 note=71 velocity=0 time=0
note_on channel=0 note=69 velocity=73 time=0
note_on channel=0 note=57 velocity=63 time=0
control_change channel=0 control=64 value=0 time=5
note_on channel=0 note=69 velocity=0 time=115
<meta message set_tempo tempo=431655 time=120>
note_on channel=0 note=73 velocity=50 time=0
control_change channel=0 control=64 value=127 time=40
note_on channel=0 note=73 velocity=0 time=80
note_on channel=0 note=69 velocity=49 time=0
note_on channel=0 note=69 velocity=0 time=120
note_on channel=0 note=57 velocity=0 time=0
note_on channel=0 note=76 velocity=55 time=0
control_change channel=0 control=64 value=0 time=3
control_change channel=0 control=64 value=127 time=54
note_on channel=0 note=76 velocity=0 time=63
note_on channel=0 note=74 velocity=48 time=0
note_on channel=0 note=74 velocity=0 time=120
note_on channel=0 note=71 velocity=48 time=0
note_on channel=0 note=71 velocity=0 time=60
note_on channel=0 note=68 velocity=47 time=60
note_on channel=0 note=68 velocity=0 time=60
note_on channel=0 note=69 velocity=60 time=60
control_change channel=0 control=64 value=0 time=0
<meta message set_tempo tempo=444444 time=480>
note_on channel=0 note=69 velocity=0 time=0
note_on channel=0 note=68 velocity=67 time=0
note_on channel=0 note=71 velocity=67 time=0
note_on channel=0 note=76 velocity=80 time=0
note_on channel=0 note=52 velocity=61 time=0
note_on channel=0 note=56 velocity=61 time=0
note_on channel=0 note=59 velocity=61 time=0
note_on channel=0 note=64 velocity=73 time=0
control_change channel=0 control=64 value=127 time=50
note_on channel=0 note=64 velocity=0 time=70
note_on channel=0 note=56 velocity=0 time=0
note_on channel=0 note=71 velocity=0 time=0
note_on channel=0 note=76 velocity=0 time=0
note_on channel=0 note=68 velocity=0 time=0
note_on channel=0 note=59 velocity=0 time=0
note_on channel=0 note=52 velocity=0 time=0
control_change channel=0 control=64 value=0 time=64
<meta message set_tempo tempo=480000 time=296>
note_on channel=0 note=69 velocity=73 time=0
note_on channel=0 note=73 velocity=73 time=0
note_on channel=0 note=76 velocity=73 time=0
note_on channel=0 note=81 velocity=86 time=0
note_on channel=0 note=45 velocity=67 time=0
note_on channel=0 note=49 velocity=67 time=0
note_on channel=0 note=52 velocity=67 time=0
note_on channel=0 note=57 velocity=79 time=0
control_change channel=0 control=64 value=127 time=78
note_on channel=0 note=57 velocity=0 time=42
note_on channel=0 note=69 velocity=0 time=0
note_on channel=0 note=45 velocity=0 time=0
note_on channel=0 note=73 velocity=0 time=0
note_on channel=0 note=76 velocity=0 time=0
note_on channel=0 note=81 velocity=0 time=0
note_on channel=0 note=49 velocity=0 time=0
note_on channel=0 note=52 velocity=0 time=0
control_change channel=0 control=64 value=0 time=57
<meta message set_tempo tempo=425532 time=63>
note_on channel=0 note=73 velocity=52 time=0
note_on channel=0 note=69 velocity=50 time=120
note_on channel=0 note=73 velocity=0 time=10
<meta message set_tempo tempo=431655 time=110>
note_on channel=0 note=69 velocity=0 time=0
note_on channel=0 note=76 velocity=57 time=0
control_change channel=0 control=64 value=0 time=12
control_change channel=0 control=64 value=127 time=87
note_on channel=0 note=76 velocity=0 time=21
note_on channel=0 note=74 velocity=50 time=0
note_on channel=0 note=74 velocity=0 time=120
note_on channel=0 note=71 velocity=50 time=0
note_on channel=0 note=71 velocity=0 time=60
note_on channel=0 note=68 velocity=50 time=60
note_on channel=0 note=68 velocity=0 time=60
<meta message set_tempo tempo=465116 time=60>
note_on channel=0 note=69 velocity=62 time=0
control_change channel=0 control=64 value=0 time=0
note_on channel=0 note=69 velocity=0 time=120
<meta message set_tempo tempo=512821 time=360>
note_on channel=0 note=68 velocity=70 time=0
note_on channel=0 note=71 velocity=70 time=0
note_on channel=0 note=76 velocity=82 time=0
note_on channel=0 note=52 velocity=63 time=0
note_on channel=0 note=56 velocity=63 time=0
note_on channel=0 note=59 velocity=63 time=0
note_on channel=0 note=64 velocity=75 time=0
control_change channel=0 control=64 value=127 time=99
note_on channel=0 note=64 velocity=0 time=21
note_on channel=0 note=56 velocity=0 time=0
note_on channel=0 note=71 velocity=0 time=0
note_on channel=0 note=76 velocity=0 time=0
note_on channel=0 note=68 velocity=0 time=0
note_on channel=0 note=59 velocity=0 time=0
note_on channel=0 note=52 velocity=0 time=0
control_change channel=0 control=64 value=0 time=60
<meta message set_tempo tempo=555556 time=300>
note_on channel=0 note=69 velocity=75 time=0
note_on channel=0 note=73 velocity=75 time=0
note_on channel=0 note=76 velocity=75 time=0
note_on channel=0 note=81 velocity=89 time=0
note_on channel=0 note=45 velocity=70 time=0
note_on channel=0 note=49 velocity=70 time=0
note_on channel=0 note=52 velocity=70 time=0
note_on channel=0 note=57 velocity=82 time=0
control_change channel=0 control=64 value=127 time=106
note_on channel=0 note=57 velocity=0 time=14
note_on channel=0 note=69 velocity=0 time=0
note_on channel=0 note=45 velocity=0 time=0
note_on channel=0 note=73 velocity=0 time=0
note_on channel=0 note=76 velocity=0 time=0
note_on channel=0 note=81 velocity=0 time=0
note_on channel=0 note=49 velocity=0 time=0
note_on channel=0 note=52 velocity=0 time=0
control_change channel=0 control=64 value=0 time=205
<meta message end_of_track time=0>
