<meta message track_name name='Klaviersonate Nr. 11 KV 331 3. Satz' time=0>
<meta message copyright text='Copyright © 2005 von Bernd Krüger. ' time=0>
<meta message text text='Amadeus Mozart' time=0>
<meta message text text='Fertiggestellt am  11.12.2005\n' time=0>
<meta message text text='Update am 15.7.3013\n' time=0>
<meta message text text='Dauer: 3:10 Minuten\n' time=0>
<meta message time_signature numerator=2 denominator=4 clocks_per_click=24 notated_32nd_notes_per_beat=8 time=0>
<meta message key_signature key='C' time=0>
<meta message set_tempo tempo=397351 time=0>
<meta message marker text='Allegro' time=0>
program_change channel=0 program=0 time=0
control_change channel=0 control=7 value=100 time=0
control_change channel=0 control=10 value=64 time=0
<meta message text text='bdca426d104a26ac9dcb070447587523' time=0>
control_change channel=0 control=91 value=127 time=0
program_change channel=0 program=0 time=0
control_change channel=0 control=7 value=100 time=0
control_change channel=0 control=10 value=64 time=0
program_change channel=0 program=0 time=0
note_on channel=0 note=71 velocity=66 time=480
note_on channel=0 note=71 velocity=0 time=120
note_on channel=0 note=69 velocity=64 time=0
note_on channel=0 note=69 velocity=0 time=120
note_on channel=0 note=68 velocity=64 time=0
<meta message set_tempo tempo=451128 time=120>
note_on channel=0 note=68 velocity=0 time=0
note_on channel=0 note=69 velocity=64 time=0
<meta message set_tempo tempo=397351 time=120>
note_on channel=0 note=69 velocity=0 time=0
note_on channel=0 note=72 velocity=71 time=0
note_on channel=0 note=57 velocity=57 time=0
control_change channel=0 control=64 value=127 time=85
note_on channel=0 note=57 velocity=0 time=35
note_on channel=0 note=72 velocity=0 time=0
note_on channel=0 note=64 velocity=52 time=120
note_on channel=0 note=60 velocity=43 time=0
control_change channel=0 control=64 value=0 time=10
<meta message set_tempo tempo=451128 time=110>
note_on channel=0 note=60 velocity=0 time=0
note_on channel=0 note=64 velocity=0 time=0
<meta message set_tempo tempo=400000 time=120>
note_on channel=0 note=74 velocity=66 time=0
note_on channel=0 note=60 velocity=43 time=0
note_on channel=0 note=64 velocity=52 time=0
control_change channel=0 control=64 value=127 time=99
note_on channel=0 note=64 velocity=0 time=21
note_on channel=0 note=60 velocity=0 time=0
note_on channel=0 note=74 velocity=0 time=0
note_on channel=0 note=72 velocity=63 time=0
note_on channel=0 note=72 velocity=0 time=120
note_on channel=0 note=71 velocity=63 time=0
note_on channel=0 note=60 velocity=42 time=0
note_on channel=0 note=64 velocity=51 time=0
<meta message set_tempo tempo=454545 time=120>
note_on channel=0 note=64 velocity=0 time=0
note_on channel=0 note=60 velocity=0 time=0
note_on channel=0 note=71 velocity=0 time=0
note_on channel=0 note=72 velocity=63 time=0
<meta message set_tempo tempo=397351 time=120>
note_on channel=0 note=72 velocity=0 time=0
note_on channel=0 note=76 velocity=72 time=0
note_on channel=0 note=57 velocity=57 time=0
control_change channel=0 control=64 value=0 time=0
control_change channel=0 control=64 value=127 time=75
note_on channel=0 note=57 velocity=0 time=45
note_on channel=0 note=76 velocity=0 time=0
note_on channel=0 note=64 velocity=52 time=120
note_on channel=0 note=60 velocity=43 time=0
control_change channel=0 control=64 value=0 time=10
<meta message set_tempo tempo=441176 time=110>
note_on channel=0 note=60 velocity=0 time=0
note_on channel=0 note=64 velocity=0 time=0
<meta message set_tempo tempo=397351 time=120>
note_on channel=0 note=77 velocity=66 time=0
note_on channel=0 note=64 velocity=52 time=0
note_on channel=0 note=60 velocity=43 time=0
control_change channel=0 control=64 value=127 time=69
note_on channel=0 note=60 velocity=0 time=51
note_on channel=0 note=64 velocity=0 time=0
note_on channel=0 note=77 velocity=0 time=0
note_on channel=0 note=76 velocity=63 time=0
note_on channel=0 note=76 velocity=0 time=120
note_on channel=0 note=75 velocity=63 time=0
note_on channel=0 note=64 velocity=52 time=0
note_on channel=0 note=60 velocity=43 time=0
<meta message set_tempo tempo=416667 time=120>
note_on channel=0 note=60 velocity=0 time=0
note_on channel=0 note=64 velocity=0 time=0
note_on channel=0 note=75 velocity=0 time=0
note_on channel=0 note=76 velocity=63 time=0
<meta message set_tempo tempo=397351 time=120>
note_on channel=0 note=76 velocity=0 time=0
note_on channel=0 note=83 velocity=70 time=0
note_on channel=0 note=57 velocity=57 time=0
control_change channel=0 control=64 value=0 time=0
control_change channel=0 control=64 value=127 time=92
note_on channel=0 note=57 velocity=0 time=28
note_on channel=0 note=83 velocity=0 time=0
note_on channel=0 note=81 velocity=64 time=0
note_on channel=0 note=81 velocity=0 time=120
note_on channel=0 note=80 velocity=64 time=0
note_on channel=0 note=64 velocity=50 time=0
note_on channel=0 note=60 velocity=42 time=0
note_on channel=0 note=60 velocity=0 time=120
note_on channel=0 note=64 velocity=0 time=0
note_on channel=0 note=80 velocity=0 time=0
note_on channel=0 note=81 velocity=64 time=0
<meta message set_tempo tempo=405405 time=120>
note_on channel=0 note=81 velocity=0 time=0
note_on channel=0 note=83 velocity=69 time=0
note_on channel=0 note=57 velocity=57 time=0
control_change channel=0 control=64 value=0 time=0
control_change channel=0 control=64 value=127 time=57
note_on channel=0 note=57 velocity=0 time=63
note_on channel=0 note=83 velocity=0 time=0
note_on channel=0 note=81 velocity=64 time=0
note_on channel=0 note=81 velocity=0 time=120
note_on channel=0 note=80 velocity=64 time=0
note_on channel=0 note=64 velocity=52 time=0
note_on channel=0 note=60 velocity=43 time=0
<meta message set_tempo tempo=458015 time=120>
note_on channel=0 note=60 velocity=0 time=0
note_on channel=0 note=64 velocity=0 time=0
note_on channel=0 note=80 velocity=0 time=0
note_on channel=0 note=81 velocity=64 time=0
<meta message set_tempo tempo=408163 time=120>
note_on channel=0 note=81 velocity=0 time=0
note_on channel=0 note=84 velocity=72 time=0
note_on channel=0 note=57 velocity=57 time=0
control_change channel=0 control=64 value=0 time=0
control_change channel=0 control=64 value=127 time=50
note_on channel=0 note=57 velocity=0 time=70
<meta message set_tempo tempo=425532 time=120>
note_on channel=0 note=64 velocity=50 time=0
note_on channel=0 note=60 velocity=42 time=0
control_change channel=0 control=64 value=0 time=10
<meta message set_tempo tempo=465116 time=110>
note_on channel=0 note=60 velocity=0 time=0
note_on channel=0 note=64 velocity=0 time=0
<meta message set_tempo tempo=397351 time=120>
note_on channel=0 note=84 velocity=0 time=0
note_on channel=0 note=81 velocity=68 time=0
note_on channel=0 note=64 velocity=50 time=0
note_on channel=0 note=60 velocity=42 time=0
note_on channel=0 note=60 velocity=0 time=120
note_on channel=0 note=64 velocity=0 time=0
note_on channel=0 note=81 velocity=0 time=0
<meta message set_tempo tempo=428571 time=120>
note_on channel=0 note=84 velocity=65 time=0
note_on channel=0 note=64 velocity=50 time=0
note_on channel=0 note=60 velocity=42 time=0
<meta message set_tempo tempo=582524 time=120>
note_on channel=0 note=60 velocity=0 time=0
note_on channel=0 note=64 velocity=0 time=0
note_on channel=0 note=84 velocity=0 time=0
<meta message set_tempo tempo=357143 time=60>
note_on channel=0 note=79 velocity=63 time=0
note_on channel=0 note=79 velocity=0 time=30
note_on channel=0 note=81 velocity=63 time=0
<meta message set_tempo tempo=405405 time=30>
note_on channel=0 note=81 velocity=0 time=0
note_on channel=0 note=83 velocity=80 time=0
note_on channel=0 note=52 velocity=65 time=0
note_on channel=0 note=52 velocity=0 time=120
note_on channel=0 note=83 velocity=0 time=0
note_on channel=0 note=78 velocity=54 time=120
note_on channel=0 note=81 velocity=64 time=0
note_on channel=0 note=64 velocity=53 time=0
note_on channel=0 note=59 velocity=44 time=0
note_on channel=0 note=59 velocity=0 time=120
note_on channel=0 note=78 velocity=0 time=0
note_on channel=0 note=81 velocity=0 time=0
note_on channel=0 note=64 velocity=0 time=0
<meta message set_tempo tempo=397351 time=120>
note_on channel=0 note=76 velocity=58 time=0
note_on channel=0 note=79 velocity=69 time=0
note_on channel=0 note=64 velocity=53 time=0
note_on channel=0 note=59 velocity=44 time=0
note_on channel=0 note=59 velocity=0 time=120
note_on channel=0 note=76 velocity=0 time=0
note_on channel=0 note=79 velocity=0 time=0
note_on channel=0 note=64 velocity=0 time=0
<meta message set_tempo tempo=428571 time=120>
note_on channel=0 note=78 velocity=54 time=0
note_on channel=0 note=81 velocity=64 time=0
note_on channel=0 note=64 velocity=53 time=0
note_on channel=0 note=59 velocity=44 time=0
<meta message set_tempo tempo=571429 time=120>
note_on channel=0 note=59 velocity=0 time=0
note_on channel=0 note=78 velocity=0 time=0
note_on channel=0 note=81 velocity=0 time=0
note_on channel=0 note=64 velocity=0 time=0
<meta message set_tempo tempo=359281 time=60>
note_on channel=0 note=79 velocity=65 time=0
note_on channel=0 note=79 velocity=0 time=30
note_on channel=0 note=81 velocity=65 time=0
<meta message set_tempo tempo=405405 time=30>
note_on channel=0 note=81 velocity=0 time=0
note_on channel=0 note=83 velocity=82 time=0
note_on channel=0 note=52 velocity=66 time=0
note_on channel=0 note=52 velocity=0 time=120
note_on channel=0 note=83 velocity=0 time=0
note_on channel=0 note=78 velocity=56 time=120
note_on channel=0 note=81 velocity=66 time=0
note_on channel=0 note=64 velocity=52 time=0
note_on channel=0 note=59 velocity=43 time=0
note_on channel=0 note=59 velocity=0 time=120
note_on channel=0 note=78 velocity=0 time=0
note_on channel=0 note=81 velocity=0 time=0
note_on channel=0 note=64 velocity=0 time=0
<meta message set_tempo tempo=397351 time=120>
note_on channel=0 note=76 velocity=58 time=0
note_on channel=0 note=79 velocity=69 time=0
note_on channel=0 note=64 velocity=52 time=0
note_on channel=0 note=59 velocity=43 time=0
note_on channel=0 note=59 velocity=0 time=120
note_on channel=0 note=76 velocity=0 time=0
note_on channel=0 note=79 velocity=0 time=0
note_on channel=0 note=64 velocity=0 time=0
<meta message set_tempo tempo=431655 time=120>
note_on channel=0 note=78 velocity=55 time=0
note_on channel=0 note=81 velocity=65 time=0
note_on channel=0 note=64 velocity=52 time=0
note_on channel=0 note=59 velocity=43 time=0
<meta message set_tempo tempo=550459 time=120>
note_on channel=0 note=59 velocity=0 time=0
note_on channel=0 note=78 velocity=0 time=0
note_on channel=0 note=81 velocity=0 time=0
note_on channel=0 note=64 velocity=0 time=0
<meta message set_tempo tempo=355030 time=60>
note_on channel=0 note=79 velocity=64 time=0
note_on channel=0 note=79 velocity=0 time=30
note_on channel=0 note=81 velocity=64 time=0
<meta message set_tempo tempo=402685 time=30>
note_on channel=0 note=83 velocity=79 time=0
note_on channel=0 note=52 velocity=67 time=0
note_on channel=0 note=81 velocity=0 time=30
note_on channel=0 note=52 velocity=0 time=90
note_on channel=0 note=83 velocity=0 time=0
note_on channel=0 note=78 velocity=57 time=120
note_on channel=0 note=81 velocity=68 time=0
note_on channel=0 note=64 velocity=52 time=0
note_on channel=0 note=59 velocity=43 time=0
note_on channel=0 note=59 velocity=0 time=120
note_on channel=0 note=78 velocity=0 time=0
note_on channel=0 note=81 velocity=0 time=0
note_on channel=0 note=64 velocity=0 time=0
<meta message set_tempo tempo=437956 time=120>
note_on channel=0 note=76 velocity=58 time=0
note_on channel=0 note=79 velocity=69 time=0
note_on channel=0 note=47 velocity=52 time=0
note_on channel=0 note=47 velocity=0 time=120
note_on channel=0 note=79 velocity=0 time=0
note_on channel=0 note=76 velocity=0 time=0
<meta message set_tempo tempo=465116 time=120>
note_on channel=0 note=75 velocity=56 time=0
note_on channel=0 note=78 velocity=66 time=0
note_on channel=0 note=59 velocity=52 time=0
note_on channel=0 note=59 velocity=0 time=120
note_on channel=0 note=78 velocity=0 time=0
note_on channel=0 note=75 velocity=0 time=0
<meta message set_tempo tempo=487805 time=120>
note_on channel=0 note=76 velocity=69 time=0
note_on channel=0 note=52 velocity=57 time=0
note_on channel=0 note=52 velocity=0 time=450
note_on channel=0 note=76 velocity=0 time=0
<meta message set_tempo tempo=397351 time=30>
note_on channel=0 note=71 velocity=66 time=0
note_on channel=0 note=71 velocity=0 time=120
note_on channel=0 note=69 velocity=64 time=0
note_on channel=0 note=69 velocity=0 time=120
note_on channel=0 note=68 velocity=64 time=0
<meta message set_tempo tempo=451128 time=120>
note_on channel=0 note=68 velocity=0 time=0
note_on channel=0 note=69 velocity=64 time=0
<meta message set_tempo tempo=397351 time=120>
note_on channel=0 note=69 velocity=0 time=0
note_on channel=0 note=72 velocity=71 time=0
note_on channel=0 note=57 velocity=57 time=0
control_change channel=0 control=64 value=127 time=85
note_on channel=0 note=57 velocity=0 time=35
note_on channel=0 note=72 velocity=0 time=0
note_on channel=0 note=64 velocity=52 time=120
note_on channel=0 note=60 velocity=43 time=0
control_change channel=0 control=64 value=0 time=10
<meta message set_tempo tempo=451128 time=110>
note_on channel=0 note=60 velocity=0 time=0
note_on channel=0 note=64 velocity=0 time=0
<meta message set_tempo tempo=400000 time=120>
note_on channel=0 note=74 velocity=66 time=0
note_on channel=0 note=60 velocity=43 time=0
note_on channel=0 note=64 velocity=52 time=0
control_change channel=0 control=64 value=127 time=99
note_on channel=0 note=64 velocity=0 time=21
note_on channel=0 note=60 velocity=0 time=0
note_on channel=0 note=74 velocity=0 time=0
note_on channel=0 note=72 velocity=63 time=0
note_on channel=0 note=72 velocity=0 time=120
note_on channel=0 note=71 velocity=63 time=0
note_on channel=0 note=60 velocity=42 time=0
note_on channel=0 note=64 velocity=51 time=0
<meta message set_tempo tempo=454545 time=120>
note_on channel=0 note=64 velocity=0 time=0
note_on channel=0 note=60 velocity=0 time=0
note_on channel=0 note=71 velocity=0 time=0
note_on channel=0 note=72 velocity=63 time=0
<meta message set_tempo tempo=397351 time=120>
note_on channel=0 note=72 velocity=0 time=0
note_on channel=0 note=76 velocity=72 time=0
note_on channel=0 note=57 velocity=57 time=0
control_change channel=0 control=64 value=0 time=0
control_change channel=0 control=64 value=127 time=75
note_on channel=0 note=57 velocity=0 time=45
note_on channel=0 note=76 velocity=0 time=0
note_on channel=0 note=64 velocity=52 time=120
note_on channel=0 note=60 velocity=43 time=0
control_change channel=0 control=64 value=0 time=10
<meta message set_tempo tempo=441176 time=110>
note_on channel=0 note=60 velocity=0 time=0
note_on channel=0 note=64 velocity=0 time=0
<meta message set_tempo tempo=397351 time=120>
note_on channel=0 note=77 velocity=66 time=0
note_on channel=0 note=64 velocity=52 time=0
note_on channel=0 note=60 velocity=43 time=0
control_change channel=0 control=64 value=127 time=69
note_on channel=0 note=60 velocity=0 time=51
note_on channel=0 note=64 velocity=0 time=0
note_on channel=0 note=77 velocity=0 time=0
note_on channel=0 note=76 velocity=63 time=0
note_on channel=0 note=76 velocity=0 time=120
note_on channel=0 note=75 velocity=63 time=0
note_on channel=0 note=64 velocity=52 time=0
note_on channel=0 note=60 velocity=43 time=0
<meta message set_tempo tempo=416667 time=120>
note_on channel=0 note=60 velocity=0 time=0
note_on channel=0 note=64 velocity=0 time=0
note_on channel=0 note=75 velocity=0 time=0
note_on channel=0 note=76 velocity=63 time=0
<meta message set_tempo tempo=397351 time=120>
note_on channel=0 note=76 velocity=0 time=0
note_on channel=0 note=83 velocity=70 time=0
note_on channel=0 note=57 velocity=57 time=0
control_change channel=0 control=64 value=0 time=0
control_change channel=0 control=64 value=127 time=92
note_on channel=0 note=57 velocity=0 time=28
note_on channel=0 note=83 velocity=0 time=0
note_on channel=0 note=81 velocity=64 time=0
note_on channel=0 note=81 velocity=0 time=120
note_on channel=0 note=80 velocity=64 time=0
note_on channel=0 note=64 velocity=50 time=0
note_on channel=0 note=60 velocity=42 time=0
note_on channel=0 note=60 velocity=0 time=120
note_on channel=0 note=64 velocity=0 time=0
note_on channel=0 note=80 velocity=0 time=0
note_on channel=0 note=81 velocity=64 time=0
<meta message set_tempo tempo=405405 time=120>
note_on channel=0 note=81 velocity=0 time=0
note_on channel=0 note=83 velocity=69 time=0
note_on channel=0 note=57 velocity=57 time=0
control_change channel=0 control=64 value=0 time=0
control_change channel=0 control=64 value=127 time=57
note_on channel=0 note=57 velocity=0 time=63
note_on channel=0 note=83 velocity=0 time=0
note_on channel=0 note=81 velocity=64 time=0
note_on channel=0 note=81 velocity=0 time=120
note_on channel=0 note=80 velocity=64 time=0
note_on channel=0 note=64 velocity=52 time=0
note_on channel=0 note=60 velocity=43 time=0
<meta message set_tempo tempo=458015 time=120>
note_on channel=0 note=60 velocity=0 time=0
note_on channel=0 note=64 velocity=0 time=0
note_on channel=0 note=80 velocity=0 time=0
note_on channel=0 note=81 velocity=64 time=0
<meta message set_tempo tempo=408163 time=120>
note_on channel=0 note=81 velocity=0 time=0
note_on channel=0 note=84 velocity=72 time=0
note_on channel=0 note=57 velocity=57 time=0
control_change channel=0 control=64 value=0 time=0
control_change channel=0 control=64 value=127 time=50
note_on channel=0 note=57 velocity=0 time=70
<meta message set_tempo tempo=425532 time=120>
note_on channel=0 note=64 velocity=50 time=0
note_on channel=0 note=60 velocity=42 time=0
control_change channel=0 control=64 value=0 time=10
<meta message set_tempo tempo=465116 time=110>
note_on channel=0 note=60 velocity=0 time=0
note_on channel=0 note=64 velocity=0 time=0
<meta message set_tempo tempo=397351 time=120>
note_on channel=0 note=84 velocity=0 time=0
note_on channel=0 note=81 velocity=68 time=0
note_on channel=0 note=64 velocity=50 time=0
note_on channel=0 note=60 velocity=42 time=0
note_on channel=0 note=60 velocity=0 time=120
note_on channel=0 note=64 velocity=0 time=0
note_on channel=0 note=81 velocity=0 time=0
<meta message set_tempo tempo=428571 time=120>
note_on channel=0 note=84 velocity=65 time=0
note_on channel=0 note=64 velocity=50 time=0
note_on channel=0 note=60 velocity=42 time=0
<meta message set_tempo tempo=582524 time=120>
note_on channel=0 note=60 velocity=0 time=0
note_on channel=0 note=64 velocity=0 time=0
note_on channel=0 note=84 velocity=0 time=0
<meta message set_tempo tempo=357143 time=60>
note_on channel=0 note=79 velocity=63 time=0
note_on channel=0 note=79 velocity=0 time=30
note_on channel=0 note=81 velocity=63 time=0
<meta message set_tempo tempo=405405 time=30>
note_on channel=0 note=81 velocity=0 time=0
note_on channel=0 note=83 velocity=80 time=0
note_on channel=0 note=52 velocity=65 time=0
note_on channel=0 note=52 velocity=0 time=120
note_on channel=0 note=83 velocity=0 time=0
note_on channel=0 note=78 velocity=54 time=120
note_on channel=0 note=81 velocity=64 time=0
note_on channel=0 note=64 velocity=53 time=0
note_on channel=0 note=59 velocity=44 time=0
note_on channel=0 note=59 velocity=0 time=120
note_on channel=0 note=78 velocity=0 time=0
note_on channel=0 note=81 velocity=0 time=0
note_on channel=0 note=64 velocity=0 time=0
<meta message set_tempo tempo=397351 time=120>
note_on channel=0 note=76 velocity=58 time=0
note_on channel=0 note=79 velocity=69 time=0
note_on channel=0 note=64 velocity=53 time=0
note_on channel=0 note=59 velocity=44 time=0
note_on channel=0 note=59 velocity=0 time=120
note_on channel=0 note=76 velocity=0 time=0
note_on channel=0 note=79 velocity=0 time=0
note_on channel=0 note=64 velocity=0 time=0
<meta message set_tempo tempo=428571 time=120>
note_on channel=0 note=78 velocity=54 time=0
note_on channel=0 note=81 velocity=64 time=0
note_on channel=0 note=64 velocity=53 time=0
note_on channel=0 note=59 velocity=44 time=0
<meta message set_tempo tempo=571429 time=120>
note_on channel=0 note=59 velocity=0 time=0
note_on channel=0 note=78 velocity=0 time=0
note_on channel=0 note=81 velocity=0 time=0
note_on channel=0 note=64 velocity=0 time=0
<meta message set_tempo tempo=359281 time=60>
note_on channel=0 note=79 velocity=65 time=0
note_on channel=0 note=79 velocity=0 time=30
note_on channel=0 note=81 velocity=65 time=0
<meta message set_tempo tempo=405405 time=30>
note_on channel=0 note=81 velocity=0 time=0
note_on channel=0 note=83 velocity=82 time=0
note_on channel=0 note=52 velocity=66 time=0
note_on channel=0 note=52 velocity=0 time=120
note_on channel=0 note=83 velocity=0 time=0
note_on channel=0 note=78 velocity=56 time=120
note_on channel=0 note=81 velocity=66 time=0
note_on channel=0 note=64 velocity=52 time=0
note_on channel=0 note=59 velocity=43 time=0
note_on channel=0 note=59 velocity=0 time=120
note_on channel=0 note=78 velocity=0 time=0
note_on channel=0 note=81 velocity=0 time=0
note_on channel=0 note=64 velocity=0 time=0
<meta message set_tempo tempo=397351 time=120>
note_on channel=0 note=76 velocity=58 time=0
note_on channel=0 note=79 velocity=69 time=0
note_on channel=0 note=64 velocity=52 time=0
note_on channel=0 note=59 velocity=43 time=0
note_on channel=0 note=59 velocity=0 time=120
note_on channel=0 note=76 velocity=0 time=0
note_on channel=0 note=79 velocity=0 time=0
note_on channel=0 note=64 velocity=0 time=0
<meta message set_tempo tempo=431655 time=120>
note_on channel=0 note=78 velocity=55 time=0
note_on channel=0 note=81 velocity=65 time=0
note_on channel=0 note=64 velocity=52 time=0
note_on channel=0 note=59 velocity=43 time=0
<meta message set_tempo tempo=550459 time=120>
note_on channel=0 note=59 velocity=0 time=0
note_on channel=0 note=78 velocity=0 time=0
note_on channel=0 note=81 velocity=0 time=0
note_on channel=0 note=64 velocity=0 time=0
<meta message set_tempo tempo=355030 time=60>
note_on channel=0 note=79 velocity=64 time=0
note_on channel=0 note=79 velocity=0 time=30
note_on channel=0 note=81 velocity=64 time=0
<meta message set_tempo tempo=400000 time=30>
note_on channel=0 note=83 velocity=79 time=0
note_on channel=0 note=52 velocity=67 time=0
note_on channel=0 note=81 velocity=0 time=30
note_on channel=0 note=52 velocity=0 time=90
note_on channel=0 note=83 velocity=0 time=0
note_on channel=0 note=78 velocity=57 time=120
note_on channel=0 note=81 velocity=68 time=0
note_on channel=0 note=64 velocity=52 time=0
note_on channel=0 note=59 velocity=43 time=0
note_on channel=0 note=59 velocity=0 time=120
note_on channel=0 note=78 velocity=0 time=0
note_on channel=0 note=81 velocity=0 time=0
note_on channel=0 note=64 velocity=0 time=0
<meta message set_tempo tempo=434783 time=120>
note_on channel=0 note=76 velocity=58 time=0
note_on channel=0 note=79 velocity=69 time=0
note_on channel=0 note=47 velocity=52 time=0
note_on channel=0 note=47 velocity=0 time=120
note_on channel=0 note=79 velocity=0 time=0
note_on channel=0 note=76 velocity=0 time=0
<meta message set_tempo tempo=491803 time=120>
note_on channel=0 note=75 velocity=56 time=0
note_on channel=0 note=78 velocity=66 time=0
note_on channel=0 note=59 velocity=52 time=0
note_on channel=0 note=59 velocity=0 time=120
note_on channel=0 note=78 velocity=0 time=0
note_on channel=0 note=75 velocity=0 time=0
<meta message set_tempo tempo=461538 time=120>
note_on channel=0 note=76 velocity=69 time=0
note_on channel=0 note=52 velocity=57 time=0
note_on channel=0 note=52 velocity=0 time=450
note_on channel=0 note=76 velocity=0 time=0
<meta message set_tempo tempo=434783 time=30>
note_on channel=0 note=72 velocity=56 time=0
note_on channel=0 note=76 velocity=56 time=0
note_on channel=0 note=76 velocity=0 time=120
note_on channel=0 note=72 velocity=0 time=0
<meta message set_tempo tempo=425532 time=120>
note_on channel=0 note=74 velocity=56 time=0
note_on channel=0 note=77 velocity=56 time=0
note_on channel=0 note=77 velocity=0 time=120
note_on channel=0 note=74 velocity=0 time=0
<meta message set_tempo tempo=416667 time=120>
note_on channel=0 note=76 velocity=66 time=0
note_on channel=0 note=79 velocity=66 time=0
note_on channel=0 note=48 velocity=59 time=0
note_on channel=0 note=48 velocity=0 time=120
note_on channel=0 note=79 velocity=0 time=0
note_on channel=0 note=76 velocity=0 time=0
note_on channel=0 note=76 velocity=57 time=120
note_on channel=0 note=79 velocity=57 time=0
note_on channel=0 note=60 velocity=53 time=0
note_on channel=0 note=60 velocity=0 time=120
note_on channel=0 note=79 velocity=0 time=0
note_on channel=0 note=76 velocity=0 time=0
<meta message set_tempo tempo=410959 time=120>
note_on channel=0 note=81 velocity=64 time=0
note_on channel=0 note=52 velocity=59 time=0
note_on channel=0 note=52 velocity=0 time=120
note_on channel=0 note=81 velocity=0 time=0
note_on channel=0 note=79 velocity=57 time=0
control_change channel=0 control=64 value=127 time=36
note_on channel=0 note=79 velocity=0 time=84
note_on channel=0 note=77 velocity=57 time=0
note_on channel=0 note=64 velocity=57 time=0
<meta message set_tempo tempo=451128 time=60>
note_on channel=0 note=64 velocity=0 time=60
note_on channel=0 note=77 velocity=0 time=0
note_on channel=0 note=76 velocity=57 time=0
<meta message set_tempo tempo=431655 time=120>
note_on channel=0 note=76 velocity=0 time=0
note_on channel=0 note=74 velocity=65 time=0
note_on channel=0 note=71 velocity=65 time=0
note_on channel=0 note=55 velocity=60 time=0
control_change channel=0 control=64 value=0 time=5
control_change channel=0 control=64 value=127 time=122
note_on channel=0 note=71 velocity=0 time=113
note_on channel=0 note=67 velocity=59 time=0
<meta message set_tempo tempo=491803 time=226>
<meta message set_tempo tempo=434783 time=14>
note_on channel=0 note=67 velocity=0 time=0
note_on channel=0 note=55 velocity=0 time=0
note_on channel=0 note=74 velocity=0 time=0
note_on channel=0 note=72 velocity=56 time=0
note_on channel=0 note=76 velocity=56 time=0
control_change channel=0 control=64 value=0 time=0
note_on channel=0 note=76 velocity=0 time=120
note_on channel=0 note=72 velocity=0 time=0
<meta message set_tempo tempo=425532 time=120>
note_on channel=0 note=74 velocity=56 time=0
note_on channel=0 note=77 velocity=56 time=0
note_on channel=0 note=77 velocity=0 time=120
note_on channel=0 note=74 velocity=0 time=0
<meta message set_tempo tempo=416667 time=120>
note_on channel=0 note=76 velocity=66 time=0
note_on channel=0 note=79 velocity=66 time=0
note_on channel=0 note=48 velocity=59 time=0
note_on channel=0 note=48 velocity=0 time=120
note_on channel=0 note=79 velocity=0 time=0
note_on channel=0 note=76 velocity=0 time=0
note_on channel=0 note=76 velocity=57 time=120
note_on channel=0 note=79 velocity=57 time=0
note_on channel=0 note=60 velocity=53 time=0
note_on channel=0 note=60 velocity=0 time=120
note_on channel=0 note=79 velocity=0 time=0
note_on channel=0 note=76 velocity=0 time=0
<meta message set_tempo tempo=410959 time=120>
note_on channel=0 note=81 velocity=64 time=0
note_on channel=0 note=52 velocity=59 time=0
note_on channel=0 note=52 velocity=0 time=120
note_on channel=0 note=81 velocity=0 time=0
note_on channel=0 note=79 velocity=57 time=0
control_change channel=0 control=64 value=127 time=36
note_on channel=0 note=79 velocity=0 time=84
note_on channel=0 note=77 velocity=57 time=0
note_on channel=0 note=64 velocity=57 time=0
<meta message set_tempo tempo=451128 time=60>
note_on channel=0 note=64 velocity=0 time=60
note_on channel=0 note=77 velocity=0 time=0
note_on channel=0 note=76 velocity=57 time=0
<meta message set_tempo tempo=431655 time=120>
note_on channel=0 note=76 velocity=0 time=0
note_on channel=0 note=74 velocity=65 time=0
note_on channel=0 note=71 velocity=65 time=0
note_on channel=0 note=55 velocity=60 time=0
control_change channel=0 control=64 value=0 time=5
control_change channel=0 control=64 value=127 time=122
<meta message set_tempo tempo=491803 time=339>
<meta message set_tempo tempo=454545 time=14>
note_on channel=0 note=55 velocity=0 time=0
note_on channel=0 note=71 velocity=0 time=0
note_on channel=0 note=74 velocity=0 time=0
note_on channel=0 note=69 velocity=56 time=0
note_on channel=0 note=72 velocity=56 time=0
control_change channel=0 control=64 value=0 time=0
note_on channel=0 note=72 velocity=0 time=120
note_on channel=0 note=69 velocity=0 time=0
<meta message set_tempo tempo=425532 time=120>
note_on channel=0 note=71 velocity=56 time=0
note_on channel=0 note=74 velocity=56 time=0
note_on channel=0 note=74 velocity=0 time=120
note_on channel=0 note=71 velocity=0 time=0
<meta message set_tempo tempo=416667 time=120>
note_on channel=0 note=72 velocity=66 time=0
note_on channel=0 note=76 velocity=66 time=0
note_on channel=0 note=45 velocity=59 time=0
note_on channel=0 note=45 velocity=0 time=120
note_on channel=0 note=76 velocity=0 time=0
note_on channel=0 note=72 velocity=0 time=0
note_on channel=0 note=72 velocity=57 time=120
note_on channel=0 note=76 velocity=57 time=0
note_on channel=0 note=57 velocity=53 time=0
note_on channel=0 note=57 velocity=0 time=120
note_on channel=0 note=76 velocity=0 time=0
note_on channel=0 note=72 velocity=0 time=0
<meta message set_tempo tempo=410959 time=120>
note_on channel=0 note=77 velocity=64 time=0
note_on channel=0 note=48 velocity=59 time=0
note_on channel=0 note=48 velocity=0 time=120
note_on channel=0 note=77 velocity=0 time=0
note_on channel=0 note=76 velocity=57 time=0
control_change channel=0 control=64 value=127 time=36
note_on channel=0 note=76 velocity=0 time=84
note_on channel=0 note=74 velocity=57 time=0
note_on channel=0 note=60 velocity=57 time=0
<meta message set_tempo tempo=451128 time=60>
note_on channel=0 note=60 velocity=0 time=60
note_on channel=0 note=74 velocity=0 time=0
note_on channel=0 note=72 velocity=57 time=0
<meta message set_tempo tempo=431655 time=120>
note_on channel=0 note=72 velocity=0 time=0
note_on channel=0 note=71 velocity=65 time=0
note_on channel=0 note=68 velocity=65 time=0
note_on channel=0 note=52 velocity=60 time=0
control_change channel=0 control=64 value=0 time=5
control_change channel=0 control=64 value=127 time=122
note_on channel=0 note=68 velocity=0 time=113
note_on channel=0 note=64 velocity=59 time=0
<meta message set_tempo tempo=434783 time=240>
note_on channel=0 note=64 velocity=0 time=0
note_on channel=0 note=52 velocity=0 time=0
note_on channel=0 note=71 velocity=0 time=0
note_on channel=0 note=69 velocity=56 time=0
note_on channel=0 note=72 velocity=56 time=0
control_change channel=0 control=64 value=0 time=0
note_on channel=0 note=72 velocity=0 time=120
note_on channel=0 note=69 velocity=0 time=0
<meta message set_tempo tempo=425532 time=120>
note_on channel=0 note=71 velocity=56 time=0
note_on channel=0 note=74 velocity=56 time=0
note_on channel=0 note=74 velocity=0 time=120
note_on channel=0 note=71 velocity=0 time=0
<meta message set_tempo tempo=416667 time=120>
note_on channel=0 note=72 velocity=66 time=0
note_on channel=0 note=76 velocity=66 time=0
note_on channel=0 note=45 velocity=59 time=0
note_on channel=0 note=45 velocity=0 time=120
note_on channel=0 note=76 velocity=0 time=0
note_on channel=0 note=72 velocity=0 time=0
note_on channel=0 note=72 velocity=57 time=120
note_on channel=0 note=76 velocity=57 time=0
note_on channel=0 note=57 velocity=53 time=0
note_on channel=0 note=57 velocity=0 time=120
note_on channel=0 note=76 velocity=0 time=0
note_on channel=0 note=72 velocity=0 time=0
<meta message set_tempo tempo=410959 time=120>
note_on channel=0 note=77 velocity=64 time=0
note_on channel=0 note=48 velocity=59 time=0
note_on channel=0 note=48 velocity=0 time=120
note_on channel=0 note=77 velocity=0 time=0
note_on channel=0 note=76 velocity=57 time=0
control_change channel=0 control=64 value=127 time=36
note_on channel=0 note=76 velocity=0 time=84
note_on channel=0 note=74 velocity=57 time=0
note_on channel=0 note=60 velocity=57 time=0
<meta message set_tempo tempo=451128 time=60>
note_on channel=0 note=60 velocity=0 time=60
note_on channel=0 note=74 velocity=0 time=0
note_on channel=0 note=72 velocity=57 time=0
<meta message set_tempo tempo=431655 time=120>
note_on channel=0 note=72 velocity=0 time=0
note_on channel=0 note=71 velocity=65 time=0
note_on channel=0 note=68 velocity=65 time=0
note_on channel=0 note=52 velocity=60 time=0
control_change channel=0 control=64 value=0 time=5
control_change channel=0 control=64 value=127 time=122
<meta message set_tempo tempo=397351 time=353>
note_on channel=0 note=52 velocity=0 time=0
note_on channel=0 note=68 velocity=0 time=0
note_on channel=0 note=71 velocity=0 time=0
note_on channel=0 note=71 velocity=56 time=0
control_change channel=0 control=64 value=0 time=0
note_on channel=0 note=71 velocity=0 time=120
note_on channel=0 note=69 velocity=56 time=0
note_on channel=0 note=69 velocity=0 time=120
note_on channel=0 note=68 velocity=56 time=0
<meta message set_tempo tempo=451128 time=120>
note_on channel=0 note=68 velocity=0 time=0
note_on channel=0 note=69 velocity=56 time=0
<meta message set_tempo tempo=397351 time=120>
note_on channel=0 note=69 velocity=0 time=0
note_on channel=0 note=72 velocity=59 time=0
note_on channel=0 note=57 velocity=53 time=0
control_change channel=0 control=64 value=127 time=85
note_on channel=0 note=57 velocity=0 time=35
note_on channel=0 note=72 velocity=0 time=0
note_on channel=0 note=64 velocity=47 time=120
note_on channel=0 note=60 velocity=47 time=0
control_change channel=0 control=64 value=0 time=10
<meta message set_tempo tempo=451128 time=110>
note_on channel=0 note=60 velocity=0 time=0
note_on channel=0 note=64 velocity=0 time=0
<meta message set_tempo tempo=400000 time=120>
note_on channel=0 note=74 velocity=62 time=0
note_on channel=0 note=60 velocity=47 time=0
note_on channel=0 note=64 velocity=47 time=0
control_change channel=0 control=64 value=127 time=99
note_on channel=0 note=64 velocity=0 time=21
note_on channel=0 note=60 velocity=0 time=0
note_on channel=0 note=74 velocity=0 time=0
note_on channel=0 note=72 velocity=57 time=0
note_on channel=0 note=72 velocity=0 time=120
note_on channel=0 note=71 velocity=57 time=0
note_on channel=0 note=60 velocity=47 time=0
note_on channel=0 note=64 velocity=47 time=0
<meta message set_tempo tempo=454545 time=120>
note_on channel=0 note=64 velocity=0 time=0
note_on channel=0 note=60 velocity=0 time=0
note_on channel=0 note=71 velocity=0 time=0
note_on channel=0 note=72 velocity=57 time=0
<meta message set_tempo tempo=397351 time=120>
note_on channel=0 note=72 velocity=0 time=0
note_on channel=0 note=76 velocity=66 time=0
note_on channel=0 note=57 velocity=54 time=0
control_change channel=0 control=64 value=0 time=0
control_change channel=0 control=64 value=127 time=75
note_on channel=0 note=57 velocity=0 time=45
note_on channel=0 note=76 velocity=0 time=0
note_on channel=0 note=64 velocity=48 time=120
note_on channel=0 note=60 velocity=48 time=0
control_change channel=0 control=64 value=0 time=10
<meta message set_tempo tempo=441176 time=110>
note_on channel=0 note=60 velocity=0 time=0
note_on channel=0 note=64 velocity=0 time=0
<meta message set_tempo tempo=397351 time=120>
note_on channel=0 note=77 velocity=63 time=0
note_on channel=0 note=64 velocity=48 time=0
note_on channel=0 note=60 velocity=48 time=0
control_change channel=0 control=64 value=127 time=69
note_on channel=0 note=60 velocity=0 time=51
note_on channel=0 note=64 velocity=0 time=0
note_on channel=0 note=77 velocity=0 time=0
note_on channel=0 note=76 velocity=58 time=0
note_on channel=0 note=76 velocity=0 time=120
note_on channel=0 note=75 velocity=58 time=0
note_on channel=0 note=64 velocity=48 time=0
note_on channel=0 note=60 velocity=48 time=0
<meta message set_tempo tempo=416667 time=120>
note_on channel=0 note=60 velocity=0 time=0
note_on channel=0 note=64 velocity=0 time=0
note_on channel=0 note=75 velocity=0 time=0
note_on channel=0 note=76 velocity=58 time=0
<meta message set_tempo tempo=400000 time=120>
note_on channel=0 note=76 velocity=0 time=0
note_on channel=0 note=83 velocity=70 time=0
note_on channel=0 note=57 velocity=56 time=0
control_change channel=0 control=64 value=0 time=0
control_change channel=0 control=64 value=127 time=92
note_on channel=0 note=57 velocity=0 time=28
note_on channel=0 note=83 velocity=0 time=0
note_on channel=0 note=81 velocity=63 time=0
note_on channel=0 note=81 velocity=0 time=120
note_on channel=0 note=80 velocity=63 time=0
note_on channel=0 note=64 velocity=49 time=0
note_on channel=0 note=60 velocity=49 time=0
note_on channel=0 note=60 velocity=0 time=120
note_on channel=0 note=64 velocity=0 time=0
note_on channel=0 note=80 velocity=0 time=0
note_on channel=0 note=81 velocity=63 time=0
<meta message set_tempo tempo=413793 time=120>
note_on channel=0 note=81 velocity=0 time=0
note_on channel=0 note=83 velocity=71 time=0
note_on channel=0 note=57 velocity=57 time=0
control_change channel=0 control=64 value=0 time=0
control_change channel=0 control=64 value=127 time=57
note_on channel=0 note=57 velocity=0 time=63
note_on channel=0 note=83 velocity=0 time=0
note_on channel=0 note=81 velocity=64 time=0
note_on channel=0 note=81 velocity=0 time=120
note_on channel=0 note=80 velocity=64 time=0
note_on channel=0 note=64 velocity=52 time=0
note_on channel=0 note=60 velocity=43 time=0
<meta message set_tempo tempo=512821 time=120>
note_on channel=0 note=60 velocity=0 time=0
note_on channel=0 note=64 velocity=0 time=0
note_on channel=0 note=80 velocity=0 time=0
note_on channel=0 note=81 velocity=64 time=0
<meta message set_tempo tempo=408163 time=120>
note_on channel=0 note=81 velocity=0 time=0
note_on channel=0 note=84 velocity=76 time=0
note_on channel=0 note=53 velocity=57 time=0
control_change channel=0 control=64 value=0 time=0
control_change channel=0 control=64 value=127 time=50
note_on channel=0 note=53 velocity=0 time=70
<meta message set_tempo tempo=425532 time=120>
note_on channel=0 note=63 velocity=51 time=0
note_on channel=0 note=57 velocity=51 time=0
control_change channel=0 control=64 value=0 time=10
<meta message set_tempo tempo=465116 time=110>
note_on channel=0 note=57 velocity=0 time=0
note_on channel=0 note=63 velocity=0 time=0
<meta message set_tempo tempo=410959 time=120>
note_on channel=0 note=84 velocity=0 time=0
note_on channel=0 note=81 velocity=62 time=0
note_on channel=0 note=63 velocity=43 time=0
note_on channel=0 note=57 velocity=43 time=0
note_on channel=0 note=57 velocity=0 time=120
note_on channel=0 note=63 velocity=0 time=0
note_on channel=0 note=81 velocity=0 time=0
<meta message set_tempo tempo=428571 time=120>
note_on channel=0 note=83 velocity=62 time=0
note_on channel=0 note=63 velocity=39 time=0
note_on channel=0 note=57 velocity=39 time=0
note_on channel=0 note=57 velocity=0 time=120
note_on channel=0 note=63 velocity=0 time=0
note_on channel=0 note=83 velocity=0 time=0
<meta message set_tempo tempo=405405 time=120>
note_on channel=0 note=84 velocity=70 time=0
note_on channel=0 note=52 velocity=46 time=0
note_on channel=0 note=52 velocity=0 time=120
note_on channel=0 note=84 velocity=0 time=0
note_on channel=0 note=83 velocity=62 time=120
note_on channel=0 note=64 velocity=42 time=0
note_on channel=0 note=57 velocity=42 time=0
note_on channel=0 note=57 velocity=0 time=120
note_on channel=0 note=64 velocity=0 time=0
note_on channel=0 note=83 velocity=0 time=0
<meta message set_tempo tempo=397351 time=120>
note_on channel=0 note=81 velocity=62 time=0
note_on channel=0 note=50 velocity=42 time=0
note_on channel=0 note=50 velocity=0 time=120
note_on channel=0 note=81 velocity=0 time=0
<meta message set_tempo tempo=428571 time=120>
note_on channel=0 note=80 velocity=62 time=0
note_on channel=0 note=59 velocity=42 time=0
note_on channel=0 note=53 velocity=42 time=0
note_on channel=0 note=53 velocity=0 time=120
note_on channel=0 note=59 velocity=0 time=0
note_on channel=0 note=80 velocity=0 time=0
<meta message set_tempo tempo=405405 time=120>
note_on channel=0 note=81 velocity=71 time=0
note_on channel=0 note=48 velocity=47 time=0
note_on channel=0 note=48 velocity=0 time=120
note_on channel=0 note=81 velocity=0 time=0
note_on channel=0 note=76 velocity=64 time=120
note_on channel=0 note=57 velocity=39 time=0
note_on channel=0 note=52 velocity=39 time=0
note_on channel=0 note=52 velocity=0 time=120
note_on channel=0 note=57 velocity=0 time=0
note_on channel=0 note=76 velocity=0 time=0
<meta message set_tempo tempo=397351 time=120>
note_on channel=0 note=50 velocity=41 time=0
note_on channel=0 note=77 velocity=64 time=4
note_on channel=0 note=50 velocity=0 time=116
note_on channel=0 note=77 velocity=0 time=4
<meta message set_tempo tempo=431655 time=116>
note_on channel=0 note=74 velocity=64 time=0
note_on channel=0 note=59 velocity=41 time=0
note_on channel=0 note=53 velocity=41 time=0
note_on channel=0 note=53 velocity=0 time=120
note_on channel=0 note=59 velocity=0 time=0
note_on channel=0 note=74 velocity=0 time=0
<meta message set_tempo tempo=410959 time=120>
note_on channel=0 note=72 velocity=74 time=0
note_on channel=0 note=52 velocity=48 time=0
note_on channel=0 note=57 velocity=48 time=0
control_change channel=0 control=64 value=127 time=80
note_on channel=0 note=57 velocity=0 time=40
note_on channel=0 note=52 velocity=0 time=0
note_on channel=0 note=57 velocity=41 time=120
note_on channel=0 note=52 velocity=41 time=0
note_on channel=0 note=52 velocity=0 time=120
note_on channel=0 note=57 velocity=0 time=0
note_on channel=0 note=52 velocity=41 time=115
<meta message set_tempo tempo=434783 time=5>
note_on channel=0 note=72 velocity=0 time=0
note_on channel=0 note=71 velocity=64 time=0
note_on channel=0 note=56 velocity=41 time=0
control_change channel=0 control=64 value=0 time=11
note_on channel=0 note=71 velocity=0 time=49
note_on channel=0 note=72 velocity=57 time=0
control_change channel=0 control=64 value=127 time=32
note_on channel=0 note=52 velocity=0 time=23
note_on channel=0 note=72 velocity=0 time=5
note_on channel=0 note=56 velocity=0 time=0
note_on channel=0 note=71 velocity=57 time=0
note_on channel=0 note=71 velocity=0 time=60
note_on channel=0 note=72 velocity=57 time=0
<meta message set_tempo tempo=451128 time=60>
note_on channel=0 note=72 velocity=0 time=0
note_on channel=0 note=71 velocity=57 time=0
note_on channel=0 note=52 velocity=41 time=0
note_on channel=0 note=56 velocity=41 time=0
note_on channel=0 note=71 velocity=0 time=4
note_on channel=0 note=72 velocity=57 time=36
<meta message set_tempo tempo=447761 time=30>
note_on channel=0 note=72 velocity=0 time=10
note_on channel=0 note=71 velocity=57 time=0
<meta message set_tempo tempo=468750 time=10>
<meta message set_tempo tempo=491803 time=20>
note_on channel=0 note=71 velocity=0 time=10
note_on channel=0 note=56 velocity=0 time=0
note_on channel=0 note=52 velocity=0 time=0
note_on channel=0 note=69 velocity=64 time=0
<meta message set_tempo tempo=521739 time=10>
<meta message set_tempo tempo=550459 time=20>
<meta message set_tempo tempo=582524 time=20>
note_on channel=0 note=69 velocity=0 time=10
note_on channel=0 note=71 velocity=57 time=0
<meta message set_tempo tempo=625000 time=10>
<meta message set_tempo tempo=666667 time=20>
<meta message set_tempo tempo=472441 time=20>
note_on channel=0 note=71 velocity=0 time=10
note_on channel=0 note=69 velocity=65 time=0
note_on channel=0 note=45 velocity=46 time=0
note_on channel=0 note=57 velocity=46 time=0
control_change channel=0 control=64 value=0 time=0
note_on channel=0 note=57 velocity=0 time=450
note_on channel=0 note=69 velocity=0 time=0
<meta message set_tempo tempo=434783 time=30>
note_on channel=0 note=45 velocity=0 time=0
note_on channel=0 note=72 velocity=56 time=0
note_on channel=0 note=76 velocity=56 time=0
note_on channel=0 note=76 velocity=0 time=120
note_on channel=0 note=72 velocity=0 time=0
<meta message set_tempo tempo=425532 time=120>
note_on channel=0 note=74 velocity=56 time=0
note_on channel=0 note=77 velocity=56 time=0
note_on channel=0 note=77 velocity=0 time=120
note_on channel=0 note=74 velocity=0 time=0
<meta message set_tempo tempo=416667 time=120>
note_on channel=0 note=76 velocity=66 time=0
note_on channel=0 note=79 velocity=66 time=0
note_on channel=0 note=48 velocity=59 time=0
note_on channel=0 note=48 velocity=0 time=120
note_on channel=0 note=79 velocity=0 time=0
note_on channel=0 note=76 velocity=0 time=0
note_on channel=0 note=76 velocity=57 time=120
note_on channel=0 note=79 velocity=57 time=0
note_on channel=0 note=60 velocity=53 time=0
note_on channel=0 note=60 velocity=0 time=120
note_on channel=0 note=79 velocity=0 time=0
note_on channel=0 note=76 velocity=0 time=0
<meta message set_tempo tempo=410959 time=120>
note_on channel=0 note=81 velocity=64 time=0
note_on channel=0 note=52 velocity=59 time=0
note_on channel=0 note=52 velocity=0 time=120
note_on channel=0 note=81 velocity=0 time=0
note_on channel=0 note=79 velocity=57 time=0
control_change channel=0 control=64 value=127 time=36
note_on channel=0 note=79 velocity=0 time=84
note_on channel=0 note=77 velocity=57 time=0
note_on channel=0 note=64 velocity=57 time=0
<meta message set_tempo tempo=451128 time=60>
note_on channel=0 note=64 velocity=0 time=60
note_on channel=0 note=77 velocity=0 time=0
note_on channel=0 note=76 velocity=57 time=0
<meta message set_tempo tempo=431655 time=120>
note_on channel=0 note=76 velocity=0 time=0
note_on channel=0 note=74 velocity=65 time=0
note_on channel=0 note=71 velocity=65 time=0
note_on channel=0 note=55 velocity=60 time=0
control_change channel=0 control=64 value=0 time=5
control_change channel=0 control=64 value=127 time=122
note_on channel=0 note=71 velocity=0 time=113
note_on channel=0 note=67 velocity=59 time=0
<meta message set_tempo tempo=491803 time=226>
<meta message set_tempo tempo=434783 time=14>
note_on channel=0 note=67 velocity=0 time=0
note_on channel=0 note=55 velocity=0 time=0
note_on channel=0 note=74 velocity=0 time=0
note_on channel=0 note=72 velocity=56 time=0
note_on channel=0 note=76 velocity=56 time=0
control_change channel=0 control=64 value=0 time=0
note_on channel=0 note=76 velocity=0 time=120
note_on channel=0 note=72 velocity=0 time=0
<meta message set_tempo tempo=425532 time=120>
note_on channel=0 note=74 velocity=56 time=0
note_on channel=0 note=77 velocity=56 time=0
note_on channel=0 note=77 velocity=0 time=120
note_on channel=0 note=74 velocity=0 time=0
<meta message set_tempo tempo=416667 time=120>
note_on channel=0 note=76 velocity=66 time=0
note_on channel=0 note=79 velocity=66 time=0
note_on channel=0 note=48 velocity=59 time=0
note_on channel=0 note=48 velocity=0 time=120
note_on channel=0 note=79 velocity=0 time=0
note_on channel=0 note=76 velocity=0 time=0
note_on channel=0 note=76 velocity=57 time=120
note_on channel=0 note=79 velocity=57 time=0
note_on channel=0 note=60 velocity=53 time=0
note_on channel=0 note=60 velocity=0 time=120
note_on channel=0 note=79 velocity=0 time=0
note_on channel=0 note=76 velocity=0 time=0
<meta message set_tempo tempo=410959 time=120>
note_on channel=0 note=81 velocity=64 time=0
note_on channel=0 note=52 velocity=59 time=0
note_on channel=0 note=52 velocity=0 time=120
note_on channel=0 note=81 velocity=0 time=0
note_on channel=0 note=79 velocity=57 time=0
control_change channel=0 control=64 value=127 time=36
note_on channel=0 note=79 velocity=0 time=84
note_on channel=0 note=77 velocity=57 time=0
note_on channel=0 note=64 velocity=57 time=0
<meta message set_tempo tempo=451128 time=60>
note_on channel=0 note=64 velocity=0 time=60
note_on channel=0 note=77 velocity=0 time=0
note_on channel=0 note=76 velocity=57 time=0
<meta message set_tempo tempo=431655 time=120>
note_on channel=0 note=76 velocity=0 time=0
note_on channel=0 note=74 velocity=65 time=0
note_on channel=0 note=71 velocity=65 time=0
note_on channel=0 note=55 velocity=60 time=0
control_change channel=0 control=64 value=0 time=5
control_change channel=0 control=64 value=127 time=122
<meta message set_tempo tempo=491803 time=339>
<meta message set_tempo tempo=454545 time=14>
note_on channel=0 note=55 velocity=0 time=0
note_on channel=0 note=71 velocity=0 time=0
note_on channel=0 note=74 velocity=0 time=0
note_on channel=0 note=69 velocity=56 time=0
note_on channel=0 note=72 velocity=56 time=0
control_change channel=0 control=64 value=0 time=0
note_on channel=0 note=72 velocity=0 time=120
note_on channel=0 note=69 velocity=0 time=0
<meta message set_tempo tempo=425532 time=120>
note_on channel=0 note=71 velocity=56 time=0
note_on channel=0 note=74 velocity=56 time=0
note_on channel=0 note=74 velocity=0 time=120
note_on channel=0 note=71 velocity=0 time=0
<meta message set_tempo tempo=416667 time=120>
note_on channel=0 note=72 velocity=66 time=0
note_on channel=0 note=76 velocity=66 time=0
note_on channel=0 note=45 velocity=59 time=0
note_on channel=0 note=45 velocity=0 time=120
note_on channel=0 note=76 velocity=0 time=0
note_on channel=0 note=72 velocity=0 time=0
note_on channel=0 note=72 velocity=57 time=120
note_on channel=0 note=76 velocity=57 time=0
note_on channel=0 note=57 velocity=53 time=0
note_on channel=0 note=57 velocity=0 time=120
note_on channel=0 note=76 velocity=0 time=0
note_on channel=0 note=72 velocity=0 time=0
<meta message set_tempo tempo=410959 time=120>
note_on channel=0 note=77 velocity=64 time=0
note_on channel=0 note=48 velocity=59 time=0
note_on channel=0 note=48 velocity=0 time=120
note_on channel=0 note=77 velocity=0 time=0
note_on channel=0 note=76 velocity=57 time=0
control_change channel=0 control=64 value=127 time=36
note_on channel=0 note=76 velocity=0 time=84
note_on channel=0 note=74 velocity=57 time=0
note_on channel=0 note=60 velocity=57 time=0
<meta message set_tempo tempo=451128 time=60>
note_on channel=0 note=60 velocity=0 time=60
note_on channel=0 note=74 velocity=0 time=0
note_on channel=0 note=72 velocity=57 time=0
<meta message set_tempo tempo=431655 time=120>
note_on channel=0 note=72 velocity=0 time=0
note_on channel=0 note=71 velocity=65 time=0
note_on channel=0 note=68 velocity=65 time=0
note_on channel=0 note=52 velocity=60 time=0
control_change channel=0 control=64 value=0 time=5
control_change channel=0 control=64 value=127 time=122
note_on channel=0 note=68 velocity=0 time=113
note_on channel=0 note=64 velocity=59 time=0
<meta message set_tempo tempo=434783 time=240>
note_on channel=0 note=64 velocity=0 time=0
note_on channel=0 note=52 velocity=0 time=0
note_on channel=0 note=71 velocity=0 time=0
note_on channel=0 note=69 velocity=56 time=0
note_on channel=0 note=72 velocity=56 time=0
control_change channel=0 control=64 value=0 time=0
note_on channel=0 note=72 velocity=0 time=120
note_on channel=0 note=69 velocity=0 time=0
<meta message set_tempo tempo=425532 time=120>
note_on channel=0 note=71 velocity=56 time=0
note_on channel=0 note=74 velocity=56 time=0
note_on channel=0 note=74 velocity=0 time=120
note_on channel=0 note=71 velocity=0 time=0
<meta message set_tempo tempo=416667 time=120>
note_on channel=0 note=72 velocity=66 time=0
note_on channel=0 note=76 velocity=66 time=0
note_on channel=0 note=45 velocity=59 time=0
note_on channel=0 note=45 velocity=0 time=120
note_on channel=0 note=76 velocity=0 time=0
note_on channel=0 note=72 velocity=0 time=0
note_on channel=0 note=72 velocity=57 time=120
note_on channel=0 note=76 velocity=57 time=0
note_on channel=0 note=57 velocity=53 time=0
note_on channel=0 note=57 velocity=0 time=120
note_on channel=0 note=76 velocity=0 time=0
note_on channel=0 note=72 velocity=0 time=0
<meta message set_tempo tempo=410959 time=120>
note_on channel=0 note=77 velocity=64 time=0
note_on channel=0 note=48 velocity=59 time=0
note_on channel=0 note=48 velocity=0 time=120
note_on channel=0 note=77 velocity=0 time=0
note_on channel=0 note=76 velocity=57 time=0
control_change channel=0 control=64 value=127 time=36
note_on channel=0 note=76 velocity=0 time=84
note_on channel=0 note=74 velocity=57 time=0
note_on channel=0 note=60 velocity=57 time=0
<meta message set_tempo tempo=451128 time=60>
note_on channel=0 note=60 velocity=0 time=60
note_on channel=0 note=74 velocity=0 time=0
note_on channel=0 note=72 velocity=57 time=0
<meta message set_tempo tempo=431655 time=120>
note_on channel=0 note=72 velocity=0 time=0
note_on channel=0 note=71 velocity=65 time=0
note_on channel=0 note=68 velocity=65 time=0
note_on channel=0 note=52 velocity=60 time=0
control_change channel=0 control=64 value=0 time=5
control_change channel=0 control=64 value=127 time=122
<meta message set_tempo tempo=397351 time=353>
note_on channel=0 note=52 velocity=0 time=0
note_on channel=0 note=68 velocity=0 time=0
note_on channel=0 note=71 velocity=0 time=0
note_on channel=0 note=71 velocity=56 time=0
control_change channel=0 control=64 value=0 time=0
note_on channel=0 note=71 velocity=0 time=120
note_on channel=0 note=69 velocity=56 time=0
note_on channel=0 note=69 velocity=0 time=120
note_on channel=0 note=68 velocity=56 time=0
<meta message set_tempo tempo=451128 time=120>
note_on channel=0 note=68 velocity=0 time=0
note_on channel=0 note=69 velocity=56 time=0
<meta message set_tempo tempo=397351 time=120>
note_on channel=0 note=69 velocity=0 time=0
note_on channel=0 note=72 velocity=59 time=0
note_on channel=0 note=57 velocity=53 time=0
control_change channel=0 control=64 value=127 time=85
note_on channel=0 note=57 velocity=0 time=35
note_on channel=0 note=72 velocity=0 time=0
note_on channel=0 note=64 velocity=47 time=120
note_on channel=0 note=60 velocity=47 time=0
control_change channel=0 control=64 value=0 time=10
<meta message set_tempo tempo=451128 time=110>
note_on channel=0 note=60 velocity=0 time=0
note_on channel=0 note=64 velocity=0 time=0
<meta message set_tempo tempo=400000 time=120>
note_on channel=0 note=74 velocity=62 time=0
note_on channel=0 note=60 velocity=47 time=0
note_on channel=0 note=64 velocity=47 time=0
control_change channel=0 control=64 value=127 time=99
note_on channel=0 note=64 velocity=0 time=21
note_on channel=0 note=60 velocity=0 time=0
note_on channel=0 note=74 velocity=0 time=0
note_on channel=0 note=72 velocity=57 time=0
note_on channel=0 note=72 velocity=0 time=120
note_on channel=0 note=71 velocity=57 time=0
note_on channel=0 note=60 velocity=47 time=0
note_on channel=0 note=64 velocity=47 time=0
<meta message set_tempo tempo=454545 time=120>
note_on channel=0 note=64 velocity=0 time=0
note_on channel=0 note=60 velocity=0 time=0
note_on channel=0 note=71 velocity=0 time=0
note_on channel=0 note=72 velocity=57 time=0
<meta message set_tempo tempo=397351 time=120>
note_on channel=0 note=72 velocity=0 time=0
note_on channel=0 note=76 velocity=66 time=0
note_on channel=0 note=57 velocity=54 time=0
control_change channel=0 control=64 value=0 time=0
control_change channel=0 control=64 value=127 time=75
note_on channel=0 note=57 velocity=0 time=45
note_on channel=0 note=76 velocity=0 time=0
note_on channel=0 note=64 velocity=48 time=120
note_on channel=0 note=60 velocity=48 time=0
control_change channel=0 control=64 value=0 time=10
<meta message set_tempo tempo=441176 time=110>
note_on channel=0 note=60 velocity=0 time=0
note_on channel=0 note=64 velocity=0 time=0
<meta message set_tempo tempo=397351 time=120>
note_on channel=0 note=77 velocity=63 time=0
note_on channel=0 note=64 velocity=48 time=0
note_on channel=0 note=60 velocity=48 time=0
control_change channel=0 control=64 value=127 time=69
note_on channel=0 note=60 velocity=0 time=51
note_on channel=0 note=64 velocity=0 time=0
note_on channel=0 note=77 velocity=0 time=0
note_on channel=0 note=76 velocity=58 time=0
note_on channel=0 note=76 velocity=0 time=120
note_on channel=0 note=75 velocity=58 time=0
note_on channel=0 note=64 velocity=48 time=0
note_on channel=0 note=60 velocity=48 time=0
<meta message set_tempo tempo=416667 time=120>
note_on channel=0 note=60 velocity=0 time=0
note_on channel=0 note=64 velocity=0 time=0
note_on channel=0 note=75 velocity=0 time=0
note_on channel=0 note=76 velocity=58 time=0
<meta message set_tempo tempo=400000 time=120>
note_on channel=0 note=76 velocity=0 time=0
note_on channel=0 note=83 velocity=70 time=0
note_on channel=0 note=57 velocity=56 time=0
control_change channel=0 control=64 value=0 time=0
control_change channel=0 control=64 value=127 time=92
note_on channel=0 note=57 velocity=0 time=28
note_on channel=0 note=83 velocity=0 time=0
note_on channel=0 note=81 velocity=63 time=0
note_on channel=0 note=81 velocity=0 time=120
note_on channel=0 note=80 velocity=63 time=0
note_on channel=0 note=64 velocity=49 time=0
note_on channel=0 note=60 velocity=49 time=0
note_on channel=0 note=60 velocity=0 time=120
note_on channel=0 note=64 velocity=0 time=0
note_on channel=0 note=80 velocity=0 time=0
note_on channel=0 note=81 velocity=63 time=0
<meta message set_tempo tempo=413793 time=120>
note_on channel=0 note=81 velocity=0 time=0
note_on channel=0 note=83 velocity=71 time=0
note_on channel=0 note=57 velocity=57 time=0
control_change channel=0 control=64 value=0 time=0
control_change channel=0 control=64 value=127 time=57
note_on channel=0 note=57 velocity=0 time=63
note_on channel=0 note=83 velocity=0 time=0
note_on channel=0 note=81 velocity=64 time=0
note_on channel=0 note=81 velocity=0 time=120
note_on channel=0 note=80 velocity=64 time=0
note_on channel=0 note=64 velocity=52 time=0
note_on channel=0 note=60 velocity=43 time=0
<meta message set_tempo tempo=512821 time=120>
note_on channel=0 note=60 velocity=0 time=0
note_on channel=0 note=64 velocity=0 time=0
note_on channel=0 note=80 velocity=0 time=0
note_on channel=0 note=81 velocity=64 time=0
<meta message set_tempo tempo=408163 time=120>
note_on channel=0 note=81 velocity=0 time=0
note_on channel=0 note=84 velocity=76 time=0
note_on channel=0 note=53 velocity=57 time=0
control_change channel=0 control=64 value=0 time=0
control_change channel=0 control=64 value=127 time=50
note_on channel=0 note=53 velocity=0 time=70
<meta message set_tempo tempo=425532 time=120>
note_on channel=0 note=63 velocity=51 time=0
note_on channel=0 note=57 velocity=51 time=0
control_change channel=0 control=64 value=0 time=10
<meta message set_tempo tempo=465116 time=110>
note_on channel=0 note=57 velocity=0 time=0
note_on channel=0 note=63 velocity=0 time=0
<meta message set_tempo tempo=410959 time=120>
note_on channel=0 note=84 velocity=0 time=0
note_on channel=0 note=81 velocity=62 time=0
note_on channel=0 note=63 velocity=43 time=0
note_on channel=0 note=57 velocity=43 time=0
note_on channel=0 note=57 velocity=0 time=120
note_on channel=0 note=63 velocity=0 time=0
note_on channel=0 note=81 velocity=0 time=0
<meta message set_tempo tempo=428571 time=120>
note_on channel=0 note=83 velocity=62 time=0
note_on channel=0 note=63 velocity=39 time=0
note_on channel=0 note=57 velocity=39 time=0
note_on channel=0 note=57 velocity=0 time=120
note_on channel=0 note=63 velocity=0 time=0
note_on channel=0 note=83 velocity=0 time=0
<meta message set_tempo tempo=405405 time=120>
note_on channel=0 note=84 velocity=70 time=0
note_on channel=0 note=52 velocity=46 time=0
note_on channel=0 note=52 velocity=0 time=120
note_on channel=0 note=84 velocity=0 time=0
note_on channel=0 note=83 velocity=62 time=120
note_on channel=0 note=64 velocity=42 time=0
note_on channel=0 note=57 velocity=42 time=0
note_on channel=0 note=57 velocity=0 time=120
note_on channel=0 note=64 velocity=0 time=0
note_on channel=0 note=83 velocity=0 time=0
<meta message set_tempo tempo=397351 time=120>
note_on channel=0 note=81 velocity=62 time=0
note_on channel=0 note=50 velocity=42 time=0
note_on channel=0 note=50 velocity=0 time=120
note_on channel=0 note=81 velocity=0 time=0
<meta message set_tempo tempo=428571 time=120>
note_on channel=0 note=80 velocity=62 time=0
note_on channel=0 note=59 velocity=42 time=0
note_on channel=0 note=53 velocity=42 time=0
note_on channel=0 note=53 velocity=0 time=120
note_on channel=0 note=59 velocity=0 time=0
note_on channel=0 note=80 velocity=0 time=0
<meta message set_tempo tempo=405405 time=120>
note_on channel=0 note=81 velocity=71 time=0
note_on channel=0 note=48 velocity=47 time=0
note_on channel=0 note=48 velocity=0 time=120
note_on channel=0 note=81 velocity=0 time=0
note_on channel=0 note=76 velocity=64 time=120
note_on channel=0 note=57 velocity=39 time=0
note_on channel=0 note=52 velocity=39 time=0
note_on channel=0 note=52 velocity=0 time=120
note_on channel=0 note=57 velocity=0 time=0
note_on channel=0 note=76 velocity=0 time=0
<meta message set_tempo tempo=397351 time=120>
note_on channel=0 note=50 velocity=41 time=0
note_on channel=0 note=77 velocity=64 time=4
note_on channel=0 note=50 velocity=0 time=116
note_on channel=0 note=77 velocity=0 time=4
<meta message set_tempo tempo=431655 time=116>
note_on channel=0 note=74 velocity=64 time=0
note_on channel=0 note=59 velocity=41 time=0
note_on channel=0 note=53 velocity=41 time=0
note_on channel=0 note=53 velocity=0 time=120
note_on channel=0 note=59 velocity=0 time=0
note_on channel=0 note=74 velocity=0 time=0
<meta message set_tempo tempo=410959 time=120>
note_on channel=0 note=72 velocity=74 time=0
note_on channel=0 note=52 velocity=48 time=0
note_on channel=0 note=57 velocity=48 time=0
control_change channel=0 control=64 value=127 time=80
note_on channel=0 note=57 velocity=0 time=40
note_on channel=0 note=52 velocity=0 time=0
note_on channel=0 note=57 velocity=41 time=120
note_on channel=0 note=52 velocity=41 time=0
note_on channel=0 note=52 velocity=0 time=120
note_on channel=0 note=57 velocity=0 time=0
note_on channel=0 note=52 velocity=41 time=115
<meta message set_tempo tempo=434783 time=5>
note_on channel=0 note=72 velocity=0 time=0
note_on channel=0 note=71 velocity=64 time=0
note_on channel=0 note=56 velocity=41 time=0
control_change channel=0 control=64 value=0 time=11
note_on channel=0 note=71 velocity=0 time=49
note_on channel=0 note=72 velocity=57 time=0
control_change channel=0 control=64 value=127 time=32
note_on channel=0 note=52 velocity=0 time=23
note_on channel=0 note=72 velocity=0 time=5
note_on channel=0 note=56 velocity=0 time=0
note_on channel=0 note=71 velocity=57 time=0
note_on channel=0 note=71 velocity=0 time=60
note_on channel=0 note=72 velocity=57 time=0
<meta message set_tempo tempo=451128 time=60>
note_on channel=0 note=72 velocity=0 time=0
note_on channel=0 note=71 velocity=57 time=0
note_on channel=0 note=52 velocity=41 time=0
note_on channel=0 note=56 velocity=41 time=0
note_on channel=0 note=71 velocity=0 time=4
note_on channel=0 note=72 velocity=57 time=36
<meta message set_tempo tempo=447761 time=30>
note_on channel=0 note=72 velocity=0 time=10
note_on channel=0 note=71 velocity=57 time=0
<meta message set_tempo tempo=468750 time=10>
<meta message set_tempo tempo=491803 time=20>
note_on channel=0 note=71 velocity=0 time=10
note_on channel=0 note=56 velocity=0 time=0
note_on channel=0 note=52 velocity=0 time=0
note_on channel=0 note=69 velocity=64 time=0
<meta message set_tempo tempo=521739 time=10>
<meta message set_tempo tempo=550459 time=20>
<meta message set_tempo tempo=582524 time=20>
note_on channel=0 note=69 velocity=0 time=10
note_on channel=0 note=71 velocity=57 time=0
<meta message set_tempo tempo=625000 time=10>
<meta message set_tempo tempo=666667 time=20>
<meta message set_tempo tempo=472441 time=20>
<meta message key_signature key='A' time=10>
note_on channel=0 note=71 velocity=0 time=0
note_on channel=0 note=69 velocity=65 time=0
note_on channel=0 note=45 velocity=46 time=0
note_on channel=0 note=57 velocity=46 time=0
control_change channel=0 control=64 value=0 time=0
note_on channel=0 note=57 velocity=0 time=450
note_on channel=0 note=69 velocity=0 time=0
<meta message set_tempo tempo=422535 time=30>
note_on channel=0 note=45 velocity=0 time=0
note_on channel=0 note=69 velocity=73 time=0
note_on channel=0 note=81 velocity=84 time=0
note_on channel=0 note=81 velocity=0 time=120
note_on channel=0 note=69 velocity=0 time=0
<meta message set_tempo tempo=431655 time=120>
note_on channel=0 note=71 velocity=73 time=0
note_on channel=0 note=83 velocity=84 time=0
note_on channel=0 note=83 velocity=0 time=120
note_on channel=0 note=71 velocity=0 time=0
note_on channel=0 note=45 velocity=64 time=0
note_on channel=0 note=45 velocity=0 time=40
note_on channel=0 note=49 velocity=64 time=0
control_change channel=0 control=64 value=127 time=3
note_on channel=0 note=49 velocity=0 time=37
note_on channel=0 note=52 velocity=64 time=0
<meta message set_tempo tempo=408163 time=40>
note_on channel=0 note=52 velocity=0 time=0
note_on channel=0 note=73 velocity=78 time=0
note_on channel=0 note=85 velocity=90 time=0
note_on channel=0 note=57 velocity=73 time=0
note_on channel=0 note=57 velocity=0 time=120
<meta message set_tempo tempo=422535 time=120>
note_on channel=0 note=57 velocity=69 time=0
control_change channel=0 control=64 value=0 time=10
note_on channel=0 note=57 velocity=0 time=110
<meta message set_tempo tempo=413793 time=120>
note_on channel=0 note=85 velocity=0 time=0
note_on channel=0 note=73 velocity=0 time=0
note_on channel=0 note=69 velocity=73 time=0
note_on channel=0 note=81 velocity=84 time=0
note_on channel=0 note=57 velocity=69 time=0
note_on channel=0 note=57 velocity=0 time=120
note_on channel=0 note=81 velocity=0 time=0
note_on channel=0 note=69 velocity=0 time=0
<meta message set_tempo tempo=422535 time=120>
note_on channel=0 note=71 velocity=73 time=0
note_on channel=0 note=83 velocity=84 time=0
note_on channel=0 note=57 velocity=69 time=0
note_on channel=0 note=57 velocity=0 time=120
note_on channel=0 note=83 velocity=0 time=0
note_on channel=0 note=71 velocity=0 time=0
note_on channel=0 note=45 velocity=60 time=0
control_change channel=0 control=64 value=127 time=14
note_on channel=0 note=45 velocity=0 time=26
note_on channel=0 note=49 velocity=60 time=0
note_on channel=0 note=49 velocity=0 time=40
note_on channel=0 note=52 velocity=60 time=0
<meta message set_tempo tempo=408163 time=40>
note_on channel=0 note=52 velocity=0 time=0
note_on channel=0 note=73 velocity=79 time=0
note_on channel=0 note=85 velocity=91 time=0
note_on channel=0 note=57 velocity=72 time=0
note_on channel=0 note=57 velocity=0 time=120
note_on channel=0 note=85 velocity=0 time=0
note_on channel=0 note=73 velocity=0 time=0
<meta message set_tempo tempo=410959 time=120>
note_on channel=0 note=71 velocity=72 time=0
note_on channel=0 note=83 velocity=82 time=0
note_on channel=0 note=57 velocity=64 time=0
control_change channel=0 control=64 value=0 time=10
note_on channel=0 note=57 velocity=0 time=110
note_on channel=0 note=83 velocity=0 time=0
note_on channel=0 note=71 velocity=0 time=0
<meta message set_tempo tempo=410959 time=120>
note_on channel=0 note=69 velocity=77 time=0
note_on channel=0 note=81 velocity=89 time=0
note_on channel=0 note=57 velocity=65 time=0
note_on channel=0 note=57 velocity=0 time=120
note_on channel=0 note=81 velocity=0 time=0
note_on channel=0 note=69 velocity=0 time=0
<meta message set_tempo tempo=447761 time=120>
note_on channel=0 note=68 velocity=73 time=0
note_on channel=0 note=80 velocity=84 time=0
note_on channel=0 note=57 velocity=67 time=0
note_on channel=0 note=57 velocity=0 time=120
note_on channel=0 note=80 velocity=0 time=0
note_on channel=0 note=68 velocity=0 time=0
note_on channel=0 note=38 velocity=63 time=0
control_change channel=0 control=64 value=127 time=25
note_on channel=0 note=38 velocity=0 time=15
note_on channel=0 note=42 velocity=63 time=0
note_on channel=0 note=42 velocity=0 time=40
note_on channel=0 note=45 velocity=63 time=0
<meta message set_tempo tempo=410959 time=40>
note_on channel=0 note=45 velocity=0 time=0
note_on channel=0 note=66 velocity=80 time=0
note_on channel=0 note=78 velocity=92 time=0
note_on channel=0 note=50 velocity=73 time=0
note_on channel=0 note=50 velocity=0 time=120
note_on channel=0 note=78 velocity=0 time=0
note_on channel=0 note=66 velocity=0 time=0
<meta message set_tempo tempo=419580 time=120>
note_on channel=0 note=68 velocity=69 time=0
note_on channel=0 note=80 velocity=78 time=0
note_on channel=0 note=50 velocity=69 time=0
control_change channel=0 control=64 value=0 time=14
note_on channel=0 note=50 velocity=0 time=106
note_on channel=0 note=80 velocity=0 time=0
note_on channel=0 note=68 velocity=0 time=0
note_on channel=0 note=39 velocity=63 time=0
note_on channel=0 note=39 velocity=0 time=40
note_on channel=0 note=42 velocity=63 time=0
note_on channel=0 note=42 velocity=0 time=40
note_on channel=0 note=45 velocity=63 time=0
<meta message set_tempo tempo=410959 time=40>
note_on channel=0 note=45 velocity=0 time=0
note_on channel=0 note=69 velocity=75 time=0
note_on channel=0 note=81 velocity=86 time=0
note_on channel=0 note=51 velocity=73 time=0
control_change channel=0 control=64 value=127 time=37
note_on channel=0 note=51 velocity=0 time=83
note_on channel=0 note=81 velocity=0 time=0
note_on channel=0 note=69 velocity=0 time=0
<meta message set_tempo tempo=447761 time=120>
note_on channel=0 note=71 velocity=70 time=0
note_on channel=0 note=83 velocity=80 time=0
note_on channel=0 note=51 velocity=71 time=0
control_change channel=0 control=64 value=0 time=12
note_on channel=0 note=51 velocity=0 time=108
note_on channel=0 note=83 velocity=0 time=0
note_on channel=0 note=71 velocity=0 time=0
note_on channel=0 note=40 velocity=63 time=0
control_change channel=0 control=64 value=127 time=20
note_on channel=0 note=40 velocity=0 time=20
note_on channel=0 note=44 velocity=63 time=0
note_on channel=0 note=44 velocity=0 time=40
note_on channel=0 note=47 velocity=63 time=0
<meta message set_tempo tempo=425532 time=40>
note_on channel=0 note=47 velocity=0 time=0
note_on channel=0 note=68 velocity=78 time=0
note_on channel=0 note=80 velocity=90 time=0
note_on channel=0 note=52 velocity=73 time=0
<meta message set_tempo tempo=454545 time=240>
note_on channel=0 note=52 velocity=0 time=0
note_on channel=0 note=80 velocity=0 time=0
note_on channel=0 note=68 velocity=0 time=0
note_on channel=0 note=64 velocity=73 time=0
note_on channel=0 note=76 velocity=84 time=0
note_on channel=0 note=52 velocity=73 time=0
control_change channel=0 control=64 value=0 time=106
note_on channel=0 note=52 velocity=0 time=14
note_on channel=0 note=76 velocity=0 time=0
note_on channel=0 note=64 velocity=0 time=0
<meta message set_tempo tempo=416667 time=120>
note_on channel=0 note=69 velocity=73 time=0
note_on channel=0 note=81 velocity=84 time=0
note_on channel=0 note=81 velocity=0 time=120
note_on channel=0 note=69 velocity=0 time=0
<meta message set_tempo tempo=419580 time=120>
note_on channel=0 note=71 velocity=73 time=0
note_on channel=0 note=83 velocity=84 time=0
note_on channel=0 note=83 velocity=0 time=120
note_on channel=0 note=71 velocity=0 time=0
note_on channel=0 note=45 velocity=64 time=0
control_change channel=0 control=64 value=127 time=21
note_on channel=0 note=45 velocity=0 time=19
note_on channel=0 note=49 velocity=64 time=0
note_on channel=0 note=49 velocity=0 time=40
note_on channel=0 note=52 velocity=64 time=0
<meta message set_tempo tempo=408163 time=40>
note_on channel=0 note=52 velocity=0 time=0
note_on channel=0 note=73 velocity=78 time=0
note_on channel=0 note=85 velocity=90 time=0
note_on channel=0 note=57 velocity=73 time=0
note_on channel=0 note=57 velocity=0 time=120
<meta message set_tempo tempo=419580 time=120>
note_on channel=0 note=57 velocity=69 time=0
control_change channel=0 control=64 value=0 time=10
note_on channel=0 note=57 velocity=0 time=110
<meta message set_tempo tempo=408163 time=120>
note_on channel=0 note=85 velocity=0 time=0
note_on channel=0 note=73 velocity=0 time=0
note_on channel=0 note=69 velocity=73 time=0
note_on channel=0 note=81 velocity=84 time=0
note_on channel=0 note=57 velocity=69 time=0
note_on channel=0 note=57 velocity=0 time=120
note_on channel=0 note=81 velocity=0 time=0
note_on channel=0 note=69 velocity=0 time=0
<meta message set_tempo tempo=422535 time=120>
note_on channel=0 note=71 velocity=73 time=0
note_on channel=0 note=83 velocity=84 time=0
note_on channel=0 note=57 velocity=69 time=0
control_change channel=0 control=64 value=127 time=110
note_on channel=0 note=57 velocity=0 time=10
note_on channel=0 note=83 velocity=0 time=0
note_on channel=0 note=71 velocity=0 time=0
note_on channel=0 note=45 velocity=60 time=0
note_on channel=0 note=45 velocity=0 time=40
note_on channel=0 note=49 velocity=60 time=0
note_on channel=0 note=49 velocity=0 time=40
note_on channel=0 note=52 velocity=60 time=0
<meta message set_tempo tempo=410959 time=40>
note_on channel=0 note=52 velocity=0 time=0
note_on channel=0 note=73 velocity=79 time=0
note_on channel=0 note=85 velocity=91 time=0
note_on channel=0 note=57 velocity=72 time=0
note_on channel=0 note=57 velocity=0 time=120
note_on channel=0 note=85 velocity=0 time=0
note_on channel=0 note=73 velocity=0 time=0
<meta message set_tempo tempo=413793 time=120>
note_on channel=0 note=71 velocity=72 time=0
note_on channel=0 note=83 velocity=82 time=0
note_on channel=0 note=57 velocity=64 time=0
control_change channel=0 control=64 value=0 time=10
note_on channel=0 note=57 velocity=0 time=110
note_on channel=0 note=83 velocity=0 time=0
note_on channel=0 note=71 velocity=0 time=0
<meta message set_tempo tempo=416667 time=120>
note_on channel=0 note=69 velocity=77 time=0
note_on channel=0 note=81 velocity=89 time=0
note_on channel=0 note=57 velocity=65 time=0
note_on channel=0 note=57 velocity=0 time=120
note_on channel=0 note=81 velocity=0 time=0
note_on channel=0 note=69 velocity=0 time=0
<meta message set_tempo tempo=434783 time=120>
note_on channel=0 note=68 velocity=73 time=0
note_on channel=0 note=80 velocity=84 time=0
note_on channel=0 note=57 velocity=67 time=0
note_on channel=0 note=57 velocity=0 time=120
note_on channel=0 note=80 velocity=0 time=0
note_on channel=0 note=68 velocity=0 time=0
note_on channel=0 note=38 velocity=63 time=0
control_change channel=0 control=64 value=127 time=28
note_on channel=0 note=38 velocity=0 time=12
note_on channel=0 note=42 velocity=63 time=0
note_on channel=0 note=42 velocity=0 time=40
note_on channel=0 note=45 velocity=63 time=0
<meta message set_tempo tempo=413793 time=40>
note_on channel=0 note=45 velocity=0 time=0
note_on channel=0 note=66 velocity=80 time=0
note_on channel=0 note=78 velocity=92 time=0
note_on channel=0 note=50 velocity=73 time=0
note_on channel=0 note=50 velocity=0 time=120
note_on channel=0 note=78 velocity=0 time=0
note_on channel=0 note=66 velocity=0 time=0
<meta message set_tempo tempo=434783 time=120>
note_on channel=0 note=71 velocity=69 time=0
note_on channel=0 note=83 velocity=78 time=0
note_on channel=0 note=50 velocity=69 time=0
control_change channel=0 control=64 value=0 time=14
note_on channel=0 note=50 velocity=0 time=106
note_on channel=0 note=83 velocity=0 time=0
note_on channel=0 note=71 velocity=0 time=0
note_on channel=0 note=40 velocity=63 time=0
control_change channel=0 control=64 value=127 time=36
note_on channel=0 note=40 velocity=0 time=4
note_on channel=0 note=44 velocity=63 time=0
note_on channel=0 note=44 velocity=0 time=40
note_on channel=0 note=47 velocity=63 time=0
<meta message set_tempo tempo=451128 time=40>
note_on channel=0 note=47 velocity=0 time=0
note_on channel=0 note=68 velocity=75 time=0
note_on channel=0 note=80 velocity=86 time=0
note_on channel=0 note=52 velocity=73 time=0
note_on channel=0 note=52 velocity=0 time=120
note_on channel=0 note=80 velocity=0 time=0
note_on channel=0 note=68 velocity=0 time=0
<meta message set_tempo tempo=465116 time=120>
note_on channel=0 note=64 velocity=70 time=0
note_on channel=0 note=76 velocity=80 time=0
note_on channel=0 note=52 velocity=71 time=0
control_change channel=0 control=64 value=0 time=12
note_on channel=0 note=52 velocity=0 time=108
note_on channel=0 note=76 velocity=0 time=0
note_on channel=0 note=64 velocity=0 time=0
<meta message set_tempo tempo=451128 time=120>
note_on channel=0 note=69 velocity=78 time=0
note_on channel=0 note=81 velocity=90 time=0
note_on channel=0 note=45 velocity=73 time=0
control_change channel=0 control=64 value=127 time=0
control_change channel=0 control=64 value=0 time=346
note_on channel=0 note=45 velocity=0 time=104
note_on channel=0 note=81 velocity=0 time=0
note_on channel=0 note=69 velocity=0 time=0
<meta message set_tempo tempo=422535 time=30>
note_on channel=0 note=69 velocity=73 time=0
note_on channel=0 note=81 velocity=84 time=0
note_on channel=0 note=81 velocity=0 time=120
note_on channel=0 note=69 velocity=0 time=0
<meta message set_tempo tempo=431655 time=120>
note_on channel=0 note=71 velocity=73 time=0
note_on channel=0 note=83 velocity=84 time=0
note_on channel=0 note=83 velocity=0 time=120
note_on channel=0 note=71 velocity=0 time=0
note_on channel=0 note=45 velocity=64 time=0
control_change channel=0 control=64 value=127 time=7
note_on channel=0 note=45 velocity=0 time=33
note_on channel=0 note=49 velocity=64 time=0
note_on channel=0 note=49 velocity=0 time=40
note_on channel=0 note=52 velocity=64 time=0
<meta message set_tempo tempo=408163 time=40>
note_on channel=0 note=52 velocity=0 time=0
note_on channel=0 note=73 velocity=78 time=0
note_on channel=0 note=85 velocity=90 time=0
note_on channel=0 note=57 velocity=73 time=0
note_on channel=0 note=57 velocity=0 time=120
<meta message set_tempo tempo=422535 time=120>
note_on channel=0 note=57 velocity=69 time=0
control_change channel=0 control=64 value=0 time=10
note_on channel=0 note=57 velocity=0 time=110
<meta message set_tempo tempo=413793 time=120>
note_on channel=0 note=85 velocity=0 time=0
note_on channel=0 note=73 velocity=0 time=0
note_on channel=0 note=69 velocity=73 time=0
note_on channel=0 note=81 velocity=84 time=0
note_on channel=0 note=57 velocity=69 time=0
note_on channel=0 note=57 velocity=0 time=120
note_on channel=0 note=81 velocity=0 time=0
note_on channel=0 note=69 velocity=0 time=0
<meta message set_tempo tempo=425532 time=120>
note_on channel=0 note=71 velocity=73 time=0
note_on channel=0 note=83 velocity=84 time=0
note_on channel=0 note=57 velocity=69 time=0
note_on channel=0 note=57 velocity=0 time=120
note_on channel=0 note=83 velocity=0 time=0
note_on channel=0 note=71 velocity=0 time=0
note_on channel=0 note=45 velocity=60 time=0
control_change channel=0 control=64 value=127 time=21
note_on channel=0 note=45 velocity=0 time=19
note_on channel=0 note=49 velocity=60 time=0
note_on channel=0 note=49 velocity=0 time=40
note_on channel=0 note=52 velocity=60 time=0
<meta message set_tempo tempo=408163 time=40>
note_on channel=0 note=52 velocity=0 time=0
note_on channel=0 note=73 velocity=79 time=0
note_on channel=0 note=85 velocity=91 time=0
note_on channel=0 note=57 velocity=72 time=0
note_on channel=0 note=57 velocity=0 time=120
note_on channel=0 note=85 velocity=0 time=0
note_on channel=0 note=73 velocity=0 time=0
<meta message set_tempo tempo=419580 time=120>
note_on channel=0 note=71 velocity=72 time=0
note_on channel=0 note=83 velocity=82 time=0
note_on channel=0 note=57 velocity=64 time=0
control_change channel=0 control=64 value=0 time=10
note_on channel=0 note=57 velocity=0 time=110
note_on channel=0 note=83 velocity=0 time=0
note_on channel=0 note=71 velocity=0 time=0
<meta message set_tempo tempo=410959 time=120>
note_on channel=0 note=69 velocity=77 time=0
note_on channel=0 note=81 velocity=89 time=0
note_on channel=0 note=57 velocity=65 time=0
note_on channel=0 note=57 velocity=0 time=120
note_on channel=0 note=81 velocity=0 time=0
note_on channel=0 note=69 velocity=0 time=0
<meta message set_tempo tempo=428571 time=120>
note_on channel=0 note=68 velocity=73 time=0
note_on channel=0 note=80 velocity=84 time=0
note_on channel=0 note=57 velocity=67 time=0
note_on channel=0 note=57 velocity=0 time=120
note_on channel=0 note=80 velocity=0 time=0
note_on channel=0 note=68 velocity=0 time=0
note_on channel=0 note=38 velocity=63 time=0
note_on channel=0 note=38 velocity=0 time=40
note_on channel=0 note=42 velocity=63 time=0
note_on channel=0 note=42 velocity=0 time=40
note_on channel=0 note=45 velocity=63 time=0
<meta message set_tempo tempo=410959 time=40>
note_on channel=0 note=45 velocity=0 time=0
note_on channel=0 note=66 velocity=80 time=0
note_on channel=0 note=78 velocity=92 time=0
note_on channel=0 note=50 velocity=73 time=0
control_change channel=0 control=64 value=127 time=0
note_on channel=0 note=50 velocity=0 time=120
note_on channel=0 note=78 velocity=0 time=0
note_on channel=0 note=66 velocity=0 time=0
<meta message set_tempo tempo=431655 time=120>
note_on channel=0 note=68 velocity=69 time=0
note_on channel=0 note=80 velocity=78 time=0
note_on channel=0 note=50 velocity=69 time=0
control_change channel=0 control=64 value=0 time=14
note_on channel=0 note=50 velocity=0 time=106
note_on channel=0 note=80 velocity=0 time=0
note_on channel=0 note=68 velocity=0 time=0
note_on channel=0 note=39 velocity=63 time=0
note_on channel=0 note=39 velocity=0 time=40
note_on channel=0 note=42 velocity=63 time=0
note_on channel=0 note=42 velocity=0 time=40
note_on channel=0 note=45 velocity=63 time=0
<meta message set_tempo tempo=416667 time=40>
note_on channel=0 note=45 velocity=0 time=0
note_on channel=0 note=69 velocity=75 time=0
note_on channel=0 note=81 velocity=86 time=0
note_on channel=0 note=51 velocity=73 time=0
control_change channel=0 control=64 value=127 time=37
note_on channel=0 note=51 velocity=0 time=83
note_on channel=0 note=81 velocity=0 time=0
note_on channel=0 note=69 velocity=0 time=0
<meta message set_tempo tempo=437956 time=120>
note_on channel=0 note=71 velocity=70 time=0
note_on channel=0 note=83 velocity=80 time=0
note_on channel=0 note=51 velocity=71 time=0
control_change channel=0 control=64 value=0 time=12
note_on channel=0 note=51 velocity=0 time=108
note_on channel=0 note=83 velocity=0 time=0
note_on channel=0 note=71 velocity=0 time=0
note_on channel=0 note=40 velocity=63 time=0
note_on channel=0 note=40 velocity=0 time=40
note_on channel=0 note=44 velocity=63 time=0
note_on channel=0 note=44 velocity=0 time=40
note_on channel=0 note=47 velocity=63 time=0
<meta message set_tempo tempo=425532 time=40>
note_on channel=0 note=47 velocity=0 time=0
note_on channel=0 note=68 velocity=78 time=0
note_on channel=0 note=80 velocity=90 time=0
note_on channel=0 note=52 velocity=73 time=0
control_change channel=0 control=64 value=127 time=0
<meta message set_tempo tempo=441176 time=240>
note_on channel=0 note=52 velocity=0 time=0
note_on channel=0 note=80 velocity=0 time=0
note_on channel=0 note=68 velocity=0 time=0
note_on channel=0 note=64 velocity=73 time=0
note_on channel=0 note=76 velocity=84 time=0
note_on channel=0 note=52 velocity=73 time=0
control_change channel=0 control=64 value=0 time=106
note_on channel=0 note=52 velocity=0 time=14
note_on channel=0 note=76 velocity=0 time=0
note_on channel=0 note=64 velocity=0 time=0
<meta message set_tempo tempo=425532 time=120>
note_on channel=0 note=69 velocity=73 time=0
note_on channel=0 note=81 velocity=84 time=0
note_on channel=0 note=81 velocity=0 time=120
note_on channel=0 note=69 velocity=0 time=0
<meta message set_tempo tempo=419580 time=120>
note_on channel=0 note=71 velocity=73 time=0
note_on channel=0 note=83 velocity=84 time=0
note_on channel=0 note=83 velocity=0 time=120
note_on channel=0 note=71 velocity=0 time=0
note_on channel=0 note=45 velocity=64 time=0
control_change channel=0 control=64 value=127 time=39
note_on channel=0 note=45 velocity=0 time=1
note_on channel=0 note=49 velocity=64 time=0
note_on channel=0 note=49 velocity=0 time=40
note_on channel=0 note=52 velocity=64 time=0
<meta message set_tempo tempo=408163 time=40>
note_on channel=0 note=52 velocity=0 time=0
note_on channel=0 note=73 velocity=78 time=0
note_on channel=0 note=85 velocity=90 time=0
note_on channel=0 note=57 velocity=73 time=0
note_on channel=0 note=57 velocity=0 time=120
<meta message set_tempo tempo=419580 time=120>
note_on channel=0 note=57 velocity=69 time=0
control_change channel=0 control=64 value=0 time=10
note_on channel=0 note=57 velocity=0 time=110
<meta message set_tempo tempo=408163 time=120>
note_on channel=0 note=85 velocity=0 time=0
note_on channel=0 note=73 velocity=0 time=0
note_on channel=0 note=69 velocity=73 time=0
note_on channel=0 note=81 velocity=84 time=0
note_on channel=0 note=57 velocity=69 time=0
note_on channel=0 note=57 velocity=0 time=120
note_on channel=0 note=81 velocity=0 time=0
note_on channel=0 note=69 velocity=0 time=0
<meta message set_tempo tempo=431655 time=120>
note_on channel=0 note=71 velocity=73 time=0
note_on channel=0 note=83 velocity=84 time=0
note_on channel=0 note=57 velocity=69 time=0
note_on channel=0 note=57 velocity=0 time=120
note_on channel=0 note=83 velocity=0 time=0
note_on channel=0 note=71 velocity=0 time=0
note_on channel=0 note=45 velocity=60 time=0
control_change channel=0 control=64 value=127 time=14
note_on channel=0 note=45 velocity=0 time=26
note_on channel=0 note=49 velocity=60 time=0
note_on channel=0 note=49 velocity=0 time=40
note_on channel=0 note=52 velocity=60 time=0
<meta message set_tempo tempo=410959 time=40>
note_on channel=0 note=52 velocity=0 time=0
note_on channel=0 note=73 velocity=79 time=0
note_on channel=0 note=85 velocity=91 time=0
note_on channel=0 note=57 velocity=72 time=0
note_on channel=0 note=57 velocity=0 time=120
note_on channel=0 note=85 velocity=0 time=0
note_on channel=0 note=73 velocity=0 time=0
<meta message set_tempo tempo=413793 time=120>
note_on channel=0 note=71 velocity=72 time=0
note_on channel=0 note=83 velocity=82 time=0
note_on channel=0 note=57 velocity=64 time=0
control_change channel=0 control=64 value=0 time=10
note_on channel=0 note=57 velocity=0 time=110
note_on channel=0 note=83 velocity=0 time=0
note_on channel=0 note=71 velocity=0 time=0
<meta message set_tempo tempo=416667 time=120>
note_on channel=0 note=69 velocity=77 time=0
note_on channel=0 note=81 velocity=89 time=0
note_on channel=0 note=57 velocity=65 time=0
note_on channel=0 note=57 velocity=0 time=120
note_on channel=0 note=81 velocity=0 time=0
note_on channel=0 note=69 velocity=0 time=0
<meta message set_tempo tempo=434783 time=120>
note_on channel=0 note=68 velocity=73 time=0
note_on channel=0 note=80 velocity=84 time=0
note_on channel=0 note=57 velocity=67 time=0
note_on channel=0 note=57 velocity=0 time=120
note_on channel=0 note=80 velocity=0 time=0
note_on channel=0 note=68 velocity=0 time=0
note_on channel=0 note=38 velocity=63 time=0
control_change channel=0 control=64 value=127 time=14
note_on channel=0 note=38 velocity=0 time=26
note_on channel=0 note=42 velocity=63 time=0
note_on channel=0 note=42 velocity=0 time=40
note_on channel=0 note=45 velocity=63 time=0
<meta message set_tempo tempo=413793 time=40>
note_on channel=0 note=45 velocity=0 time=0
note_on channel=0 note=66 velocity=80 time=0
note_on channel=0 note=78 velocity=92 time=0
note_on channel=0 note=50 velocity=73 time=0
note_on channel=0 note=50 velocity=0 time=120
note_on channel=0 note=78 velocity=0 time=0
note_on channel=0 note=66 velocity=0 time=0
<meta message set_tempo tempo=454545 time=120>
note_on channel=0 note=71 velocity=69 time=0
note_on channel=0 note=83 velocity=78 time=0
note_on channel=0 note=50 velocity=69 time=0
control_change channel=0 control=64 value=0 time=14
note_on channel=0 note=50 velocity=0 time=106
note_on channel=0 note=83 velocity=0 time=0
note_on channel=0 note=71 velocity=0 time=0
note_on channel=0 note=40 velocity=63 time=0
note_on channel=0 note=40 velocity=0 time=40
note_on channel=0 note=44 velocity=63 time=0
control_change channel=0 control=64 value=127 time=17
note_on channel=0 note=44 velocity=0 time=23
note_on channel=0 note=47 velocity=63 time=0
<meta message set_tempo tempo=451128 time=40>
note_on channel=0 note=47 velocity=0 time=0
note_on channel=0 note=68 velocity=75 time=0
note_on channel=0 note=80 velocity=86 time=0
note_on channel=0 note=52 velocity=73 time=0
note_on channel=0 note=52 velocity=0 time=120
note_on channel=0 note=80 velocity=0 time=0
note_on channel=0 note=68 velocity=0 time=0
<meta message set_tempo tempo=465116 time=120>
note_on channel=0 note=64 velocity=70 time=0
note_on channel=0 note=76 velocity=80 time=0
note_on channel=0 note=52 velocity=71 time=0
control_change channel=0 control=64 value=0 time=12
note_on channel=0 note=52 velocity=0 time=108
note_on channel=0 note=76 velocity=0 time=0
note_on channel=0 note=64 velocity=0 time=0
<meta message set_tempo tempo=451128 time=120>
note_on channel=0 note=69 velocity=78 time=0
note_on channel=0 note=81 velocity=90 time=0
note_on channel=0 note=45 velocity=73 time=0
control_change channel=0 control=64 value=127 time=0
control_change channel=0 control=64 value=0 time=346
<meta message set_tempo tempo=465116 time=96>
note_on channel=0 note=45 velocity=0 time=8
note_on channel=0 note=81 velocity=0 time=0
note_on channel=0 note=69 velocity=0 time=0
<meta message set_tempo tempo=458015 time=12>
note_on channel=0 note=85 velocity=60 time=18
<meta message set_tempo tempo=447761 time=2>
<meta message set_tempo tempo=441176 time=20>
<meta message set_tempo tempo=431655 time=20>
<meta message set_tempo tempo=425532 time=20>
<meta message set_tempo tempo=416667 time=20>
<meta message set_tempo tempo=410959 time=20>
note_on channel=0 note=86 velocity=52 time=18
<meta message set_tempo tempo=402685 time=2>
note_on channel=0 note=85 velocity=0 time=10
<meta message set_tempo tempo=419580 time=108>
note_on channel=0 note=85 velocity=52 time=0
note_on channel=0 note=86 velocity=0 time=12
<meta message set_tempo tempo=434783 time=108>
note_on channel=0 note=83 velocity=52 time=0
note_on channel=0 note=85 velocity=0 time=12
<meta message set_tempo tempo=428571 time=108>
note_on channel=0 note=81 velocity=58 time=0
note_on channel=0 note=54 velocity=50 time=0
note_on channel=0 note=83 velocity=0 time=12
note_on channel=0 note=54 velocity=0 time=108
note_on channel=0 note=83 velocity=50 time=0
note_on channel=0 note=81 velocity=0 time=12
<meta message set_tempo tempo=413793 time=108>
note_on channel=0 note=81 velocity=50 time=0
note_on channel=0 note=61 velocity=37 time=0
note_on channel=0 note=57 velocity=31 time=0
note_on channel=0 note=83 velocity=0 time=12
note_on channel=0 note=57 velocity=0 time=108
note_on channel=0 note=61 velocity=0 time=0
note_on channel=0 note=80 velocity=50 time=0
note_on channel=0 note=81 velocity=0 time=12
<meta message set_tempo tempo=422535 time=108>
note_on channel=0 note=78 velocity=56 time=0
note_on channel=0 note=61 velocity=37 time=0
note_on channel=0 note=57 velocity=31 time=0
note_on channel=0 note=80 velocity=0 time=12
note_on channel=0 note=57 velocity=0 time=108
note_on channel=0 note=61 velocity=0 time=0
note_on channel=0 note=81 velocity=50 time=0
note_on channel=0 note=78 velocity=0 time=12
<meta message set_tempo tempo=425532 time=108>
note_on channel=0 note=80 velocity=46 time=0
note_on channel=0 note=61 velocity=37 time=0
note_on channel=0 note=57 velocity=31 time=0
note_on channel=0 note=81 velocity=0 time=12
note_on channel=0 note=57 velocity=0 time=108
note_on channel=0 note=61 velocity=0 time=0
note_on channel=0 note=78 velocity=46 time=0
note_on channel=0 note=80 velocity=0 time=12
<meta message set_tempo tempo=416667 time=108>
note_on channel=0 note=77 velocity=58 time=0
note_on channel=0 note=56 velocity=50 time=0
note_on channel=0 note=78 velocity=0 time=12
note_on channel=0 note=56 velocity=0 time=108
note_on channel=0 note=78 velocity=47 time=0
note_on channel=0 note=77 velocity=0 time=12
<meta message set_tempo tempo=419580 time=108>
note_on channel=0 note=80 velocity=49 time=0
note_on channel=0 note=61 velocity=36 time=0
note_on channel=0 note=59 velocity=30 time=0
note_on channel=0 note=78 velocity=0 time=12
note_on channel=0 note=59 velocity=0 time=108
note_on channel=0 note=61 velocity=0 time=0
note_on channel=0 note=77 velocity=46 time=0
note_on channel=0 note=80 velocity=0 time=12
note_on channel=0 note=73 velocity=56 time=108
note_on channel=0 note=61 velocity=36 time=0
note_on channel=0 note=59 velocity=30 time=0
note_on channel=0 note=77 velocity=0 time=12
note_on channel=0 note=59 velocity=0 time=108
note_on channel=0 note=61 velocity=0 time=0
note_on channel=0 note=75 velocity=47 time=0
note_on channel=0 note=73 velocity=0 time=12
<meta message set_tempo tempo=422535 time=108>
note_on channel=0 note=77 velocity=50 time=0
note_on channel=0 note=61 velocity=36 time=0
note_on channel=0 note=59 velocity=30 time=0
note_on channel=0 note=75 velocity=0 time=12
note_on channel=0 note=59 velocity=0 time=108
note_on channel=0 note=61 velocity=0 time=0
note_on channel=0 note=73 velocity=47 time=0
note_on channel=0 note=77 velocity=0 time=12
<meta message set_tempo tempo=422535 time=108>
note_on channel=0 note=78 velocity=56 time=0
note_on channel=0 note=54 velocity=50 time=0
note_on channel=0 note=73 velocity=0 time=12
note_on channel=0 note=54 velocity=0 time=108
note_on channel=0 note=77 velocity=47 time=0
note_on channel=0 note=78 velocity=0 time=12
<meta message set_tempo tempo=419580 time=108>
note_on channel=0 note=78 velocity=51 time=0
note_on channel=0 note=61 velocity=36 time=0
note_on channel=0 note=57 velocity=30 time=0
note_on channel=0 note=77 velocity=0 time=12
note_on channel=0 note=57 velocity=0 time=108
note_on channel=0 note=61 velocity=0 time=0
note_on channel=0 note=80 velocity=48 time=0
note_on channel=0 note=78 velocity=0 time=12
note_on channel=0 note=81 velocity=58 time=108
note_on channel=0 note=61 velocity=37 time=0
note_on channel=0 note=57 velocity=31 time=0
note_on channel=0 note=80 velocity=0 time=12
note_on channel=0 note=57 velocity=0 time=108
note_on channel=0 note=61 velocity=0 time=0
note_on channel=0 note=80 velocity=54 time=0
note_on channel=0 note=81 velocity=0 time=12
<meta message set_tempo tempo=422535 time=108>
note_on channel=0 note=81 velocity=56 time=0
note_on channel=0 note=61 velocity=38 time=0
note_on channel=0 note=57 velocity=32 time=0
note_on channel=0 note=80 velocity=0 time=12
note_on channel=0 note=57 velocity=0 time=108
note_on channel=0 note=61 velocity=0 time=0
note_on channel=0 note=83 velocity=59 time=0
note_on channel=0 note=81 velocity=0 time=12
<meta message set_tempo tempo=416667 time=108>
note_on channel=0 note=85 velocity=68 time=0
note_on channel=0 note=53 velocity=55 time=0
note_on channel=0 note=83 velocity=0 time=12
note_on channel=0 note=53 velocity=0 time=108
note_on channel=0 note=84 velocity=62 time=0
note_on channel=0 note=85 velocity=0 time=12
<meta message set_tempo tempo=408163 time=108>
note_on channel=0 note=85 velocity=66 time=0
note_on channel=0 note=61 velocity=38 time=0
note_on channel=0 note=56 velocity=31 time=0
note_on channel=0 note=84 velocity=0 time=12
note_on channel=0 note=56 velocity=0 time=108
note_on channel=0 note=61 velocity=0 time=0
note_on channel=0 note=84 velocity=59 time=0
note_on channel=0 note=85 velocity=0 time=12
<meta message set_tempo tempo=416667 time=108>
note_on channel=0 note=84 velocity=0 time=0
note_on channel=0 note=85 velocity=61 time=0
note_on channel=0 note=61 velocity=38 time=0
note_on channel=0 note=56 velocity=31 time=0
note_on channel=0 note=56 velocity=0 time=120
note_on channel=0 note=61 velocity=0 time=0
note_on channel=0 note=86 velocity=55 time=0
note_on channel=0 note=85 velocity=0 time=12
<meta message set_tempo tempo=425532 time=108>
note_on channel=0 note=85 velocity=55 time=0
note_on channel=0 note=61 velocity=38 time=0
note_on channel=0 note=56 velocity=31 time=0
note_on channel=0 note=86 velocity=0 time=12
<meta message set_tempo tempo=454545 time=108>
note_on channel=0 note=56 velocity=0 time=0
note_on channel=0 note=61 velocity=0 time=0
note_on channel=0 note=83 velocity=55 time=0
note_on channel=0 note=85 velocity=0 time=12
<meta message set_tempo tempo=419580 time=108>
note_on channel=0 note=81 velocity=58 time=0
note_on channel=0 note=54 velocity=50 time=0
note_on channel=0 note=83 velocity=0 time=12
note_on channel=0 note=54 velocity=0 time=108
note_on channel=0 note=83 velocity=47 time=0
note_on channel=0 note=81 velocity=0 time=12
<meta message set_tempo tempo=413793 time=108>
note_on channel=0 note=81 velocity=53 time=0
note_on channel=0 note=61 velocity=36 time=0
note_on channel=0 note=57 velocity=30 time=0
note_on channel=0 note=83 velocity=0 time=12
note_on channel=0 note=57 velocity=0 time=108
note_on channel=0 note=61 velocity=0 time=0
note_on channel=0 note=80 velocity=47 time=0
note_on channel=0 note=81 velocity=0 time=12
<meta message set_tempo tempo=416667 time=108>
note_on channel=0 note=78 velocity=54 time=0
note_on channel=0 note=61 velocity=36 time=0
note_on channel=0 note=57 velocity=30 time=0
note_on channel=0 note=80 velocity=0 time=12
note_on channel=0 note=57 velocity=0 time=108
note_on channel=0 note=61 velocity=0 time=0
note_on channel=0 note=81 velocity=47 time=0
note_on channel=0 note=78 velocity=0 time=12
<meta message set_tempo tempo=425532 time=108>
note_on channel=0 note=80 velocity=50 time=0
note_on channel=0 note=61 velocity=36 time=0
note_on channel=0 note=57 velocity=30 time=0
note_on channel=0 note=81 velocity=0 time=12
note_on channel=0 note=57 velocity=0 time=108
note_on channel=0 note=61 velocity=0 time=0
note_on channel=0 note=78 velocity=46 time=0
note_on channel=0 note=80 velocity=0 time=12
<meta message set_tempo tempo=425532 time=108>
note_on channel=0 note=76 velocity=56 time=0
note_on channel=0 note=56 velocity=50 time=0
note_on channel=0 note=78 velocity=0 time=12
note_on channel=0 note=56 velocity=0 time=108
note_on channel=0 note=78 velocity=47 time=0
note_on channel=0 note=76 velocity=0 time=12
<meta message set_tempo tempo=416667 time=108>
note_on channel=0 note=80 velocity=50 time=0
note_on channel=0 note=64 velocity=36 time=0
note_on channel=0 note=61 velocity=30 time=0
note_on channel=0 note=78 velocity=0 time=12
note_on channel=0 note=61 velocity=0 time=108
note_on channel=0 note=64 velocity=0 time=0
note_on channel=0 note=76 velocity=47 time=0
note_on channel=0 note=80 velocity=0 time=12
<meta message set_tempo tempo=419580 time=108>
note_on channel=0 note=73 velocity=54 time=0
note_on channel=0 note=64 velocity=36 time=0
note_on channel=0 note=61 velocity=30 time=0
note_on channel=0 note=76 velocity=0 time=12
note_on channel=0 note=61 velocity=0 time=108
note_on channel=0 note=64 velocity=0 time=0
note_on channel=0 note=75 velocity=47 time=0
note_on channel=0 note=73 velocity=0 time=12
<meta message set_tempo tempo=428571 time=108>
note_on channel=0 note=76 velocity=53 time=0
note_on channel=0 note=64 velocity=36 time=0
note_on channel=0 note=61 velocity=30 time=0
note_on channel=0 note=75 velocity=0 time=12
note_on channel=0 note=61 velocity=0 time=108
note_on channel=0 note=64 velocity=0 time=0
note_on channel=0 note=73 velocity=47 time=0
note_on channel=0 note=76 velocity=0 time=12
<meta message set_tempo tempo=419580 time=108>
note_on channel=0 note=75 velocity=53 time=0
note_on channel=0 note=56 velocity=50 time=0
note_on channel=0 note=73 velocity=0 time=12
note_on channel=0 note=56 velocity=0 time=108
note_on channel=0 note=76 velocity=47 time=0
note_on channel=0 note=75 velocity=0 time=12
<meta message set_tempo tempo=419580 time=108>
note_on channel=0 note=78 velocity=51 time=0
note_on channel=0 note=66 velocity=37 time=0
note_on channel=0 note=63 velocity=31 time=0
note_on channel=0 note=76 velocity=0 time=12
note_on channel=0 note=63 velocity=0 time=108
note_on channel=0 note=66 velocity=0 time=0
note_on channel=0 note=75 velocity=47 time=0
note_on channel=0 note=78 velocity=0 time=12
<meta message set_tempo tempo=419580 time=86>
note_on channel=0 note=72 velocity=50 time=22
note_on channel=0 note=63 velocity=31 time=0
note_on channel=0 note=66 velocity=37 time=0
note_on channel=0 note=75 velocity=0 time=12
<meta message set_tempo tempo=422535 time=6>
<meta message set_tempo tempo=425532 time=40>
<meta message set_tempo tempo=428571 time=40>
<meta message set_tempo tempo=425532 time=12>
note_on channel=0 note=66 velocity=0 time=10
note_on channel=0 note=63 velocity=0 time=0
note_on channel=0 note=73 velocity=47 time=0
note_on channel=0 note=72 velocity=0 time=12
<meta message set_tempo tempo=428571 time=38>
<meta message set_tempo tempo=431655 time=60>
note_on channel=0 note=75 velocity=50 time=10
note_on channel=0 note=63 velocity=31 time=0
note_on channel=0 note=66 velocity=37 time=0
note_on channel=0 note=73 velocity=0 time=12
<meta message set_tempo tempo=434783 time=38>
<meta message set_tempo tempo=468750 time=70>
note_on channel=0 note=66 velocity=0 time=0
note_on channel=0 note=63 velocity=0 time=0
note_on channel=0 note=72 velocity=46 time=0
note_on channel=0 note=75 velocity=0 time=12
<meta message set_tempo tempo=434783 time=108>
note_on channel=0 note=73 velocity=52 time=0
note_on channel=0 note=64 velocity=50 time=0
note_on channel=0 note=61 velocity=42 time=0
note_on channel=0 note=72 velocity=0 time=12
note_on channel=0 note=73 velocity=0 time=438
note_on channel=0 note=64 velocity=0 time=0
note_on channel=0 note=61 velocity=0 time=0
<meta message set_tempo tempo=476190 time=12>
note_on channel=0 note=85 velocity=60 time=18
<meta message set_tempo tempo=468750 time=2>
<meta message set_tempo tempo=458015 time=20>
<meta message set_tempo tempo=447761 time=20>
<meta message set_tempo tempo=437956 time=20>
<meta message set_tempo tempo=428571 time=20>
<meta message set_tempo tempo=419580 time=20>
note_on channel=0 note=86 velocity=52 time=18
<meta message set_tempo tempo=410959 time=2>
note_on channel=0 note=85 velocity=0 time=10
<meta message set_tempo tempo=402685 time=10>
<meta message set_tempo tempo=419580 time=98>
note_on channel=0 note=85 velocity=52 time=0
note_on channel=0 note=86 velocity=0 time=12
<meta message set_tempo tempo=434783 time=108>
note_on channel=0 note=83 velocity=52 time=0
note_on channel=0 note=85 velocity=0 time=12
<meta message set_tempo tempo=431655 time=108>
note_on channel=0 note=81 velocity=58 time=0
note_on channel=0 note=54 velocity=50 time=0
note_on channel=0 note=83 velocity=0 time=12
note_on channel=0 note=54 velocity=0 time=108
note_on channel=0 note=83 velocity=50 time=0
note_on channel=0 note=81 velocity=0 time=12
<meta message set_tempo tempo=422535 time=108>
note_on channel=0 note=81 velocity=50 time=0
note_on channel=0 note=61 velocity=37 time=0
note_on channel=0 note=57 velocity=31 time=0
note_on channel=0 note=83 velocity=0 time=12
note_on channel=0 note=57 velocity=0 time=108
note_on channel=0 note=61 velocity=0 time=0
note_on channel=0 note=80 velocity=50 time=0
note_on channel=0 note=81 velocity=0 time=12
note_on channel=0 note=78 velocity=56 time=108
note_on channel=0 note=61 velocity=37 time=0
note_on channel=0 note=57 velocity=31 time=0
note_on channel=0 note=80 velocity=0 time=12
note_on channel=0 note=57 velocity=0 time=108
note_on channel=0 note=61 velocity=0 time=0
note_on channel=0 note=81 velocity=50 time=0
note_on channel=0 note=78 velocity=0 time=12
<meta message set_tempo tempo=425532 time=108>
note_on channel=0 note=80 velocity=46 time=0
note_on channel=0 note=61 velocity=37 time=0
note_on channel=0 note=57 velocity=31 time=0
note_on channel=0 note=81 velocity=0 time=12
note_on channel=0 note=57 velocity=0 time=108
note_on channel=0 note=61 velocity=0 time=0
note_on channel=0 note=78 velocity=46 time=0
note_on channel=0 note=80 velocity=0 time=12
<meta message set_tempo tempo=431655 time=108>
note_on channel=0 note=77 velocity=58 time=0
note_on channel=0 note=56 velocity=50 time=0
note_on channel=0 note=78 velocity=0 time=12
note_on channel=0 note=56 velocity=0 time=108
note_on channel=0 note=78 velocity=47 time=0
note_on channel=0 note=77 velocity=0 time=12
<meta message set_tempo tempo=419580 time=108>
note_on channel=0 note=80 velocity=49 time=0
note_on channel=0 note=61 velocity=36 time=0
note_on channel=0 note=59 velocity=30 time=0
note_on channel=0 note=78 velocity=0 time=12
note_on channel=0 note=59 velocity=0 time=108
note_on channel=0 note=61 velocity=0 time=0
note_on channel=0 note=77 velocity=46 time=0
note_on channel=0 note=80 velocity=0 time=12
note_on channel=0 note=73 velocity=56 time=108
note_on channel=0 note=61 velocity=36 time=0
note_on channel=0 note=59 velocity=30 time=0
note_on channel=0 note=77 velocity=0 time=12
note_on channel=0 note=59 velocity=0 time=108
note_on channel=0 note=61 velocity=0 time=0
note_on channel=0 note=75 velocity=47 time=0
note_on channel=0 note=73 velocity=0 time=12
<meta message set_tempo tempo=422535 time=108>
note_on channel=0 note=77 velocity=50 time=0
note_on channel=0 note=61 velocity=36 time=0
note_on channel=0 note=59 velocity=30 time=0
note_on channel=0 note=75 velocity=0 time=12
note_on channel=0 note=59 velocity=0 time=108
note_on channel=0 note=61 velocity=0 time=0
note_on channel=0 note=73 velocity=47 time=0
note_on channel=0 note=77 velocity=0 time=12
<meta message set_tempo tempo=422535 time=108>
note_on channel=0 note=78 velocity=56 time=0
note_on channel=0 note=54 velocity=50 time=0
note_on channel=0 note=73 velocity=0 time=12
note_on channel=0 note=54 velocity=0 time=108
note_on channel=0 note=77 velocity=47 time=0
note_on channel=0 note=78 velocity=0 time=12
<meta message set_tempo tempo=419580 time=108>
note_on channel=0 note=78 velocity=51 time=0
note_on channel=0 note=61 velocity=36 time=0
note_on channel=0 note=57 velocity=30 time=0
note_on channel=0 note=77 velocity=0 time=12
note_on channel=0 note=57 velocity=0 time=108
note_on channel=0 note=61 velocity=0 time=0
note_on channel=0 note=80 velocity=48 time=0
note_on channel=0 note=78 velocity=0 time=12
note_on channel=0 note=81 velocity=58 time=108
note_on channel=0 note=61 velocity=37 time=0
note_on channel=0 note=57 velocity=31 time=0
note_on channel=0 note=80 velocity=0 time=12
note_on channel=0 note=57 velocity=0 time=108
note_on channel=0 note=61 velocity=0 time=0
note_on channel=0 note=80 velocity=54 time=0
note_on channel=0 note=81 velocity=0 time=12
<meta message set_tempo tempo=422535 time=108>
note_on channel=0 note=81 velocity=56 time=0
note_on channel=0 note=61 velocity=38 time=0
note_on channel=0 note=57 velocity=32 time=0
note_on channel=0 note=80 velocity=0 time=12
note_on channel=0 note=57 velocity=0 time=108
note_on channel=0 note=61 velocity=0 time=0
note_on channel=0 note=83 velocity=59 time=0
note_on channel=0 note=81 velocity=0 time=12
<meta message set_tempo tempo=425532 time=108>
note_on channel=0 note=85 velocity=68 time=0
note_on channel=0 note=53 velocity=55 time=0
note_on channel=0 note=83 velocity=0 time=12
note_on channel=0 note=53 velocity=0 time=108
note_on channel=0 note=84 velocity=62 time=0
note_on channel=0 note=85 velocity=0 time=12
<meta message set_tempo tempo=413793 time=108>
note_on channel=0 note=85 velocity=66 time=0
note_on channel=0 note=61 velocity=38 time=0
note_on channel=0 note=56 velocity=31 time=0
note_on channel=0 note=84 velocity=0 time=12
note_on channel=0 note=56 velocity=0 time=108
note_on channel=0 note=61 velocity=0 time=0
note_on channel=0 note=84 velocity=59 time=0
note_on channel=0 note=85 velocity=0 time=12
note_on channel=0 note=84 velocity=0 time=108
note_on channel=0 note=85 velocity=64 time=0
note_on channel=0 note=61 velocity=38 time=0
note_on channel=0 note=56 velocity=31 time=0
note_on channel=0 note=56 velocity=0 time=120
note_on channel=0 note=61 velocity=0 time=0
note_on channel=0 note=86 velocity=57 time=0
note_on channel=0 note=85 velocity=0 time=12
<meta message set_tempo tempo=425532 time=108>
note_on channel=0 note=85 velocity=57 time=0
note_on channel=0 note=61 velocity=38 time=0
note_on channel=0 note=56 velocity=31 time=0
note_on channel=0 note=86 velocity=0 time=12
note_on channel=0 note=56 velocity=0 time=108
note_on channel=0 note=61 velocity=0 time=0
note_on channel=0 note=83 velocity=57 time=0
note_on channel=0 note=85 velocity=0 time=12
<meta message set_tempo tempo=419580 time=108>
note_on channel=0 note=81 velocity=60 time=0
note_on channel=0 note=54 velocity=50 time=0
note_on channel=0 note=83 velocity=0 time=12
note_on channel=0 note=54 velocity=0 time=108
note_on channel=0 note=83 velocity=51 time=0
note_on channel=0 note=81 velocity=0 time=12
<meta message set_tempo tempo=413793 time=108>
note_on channel=0 note=81 velocity=55 time=0
note_on channel=0 note=61 velocity=36 time=0
note_on channel=0 note=57 velocity=30 time=0
note_on channel=0 note=83 velocity=0 time=12
note_on channel=0 note=57 velocity=0 time=108
note_on channel=0 note=61 velocity=0 time=0
note_on channel=0 note=80 velocity=47 time=0
note_on channel=0 note=81 velocity=0 time=12
note_on channel=0 note=78 velocity=54 time=108
note_on channel=0 note=61 velocity=36 time=0
note_on channel=0 note=57 velocity=30 time=0
note_on channel=0 note=80 velocity=0 time=12
note_on channel=0 note=57 velocity=0 time=108
note_on channel=0 note=61 velocity=0 time=0
note_on channel=0 note=81 velocity=47 time=0
note_on channel=0 note=78 velocity=0 time=12
<meta message set_tempo tempo=425532 time=108>
note_on channel=0 note=80 velocity=50 time=0
note_on channel=0 note=61 velocity=36 time=0
note_on channel=0 note=57 velocity=30 time=0
note_on channel=0 note=81 velocity=0 time=12
note_on channel=0 note=57 velocity=0 time=108
note_on channel=0 note=61 velocity=0 time=0
note_on channel=0 note=78 velocity=46 time=0
note_on channel=0 note=80 velocity=0 time=12
<meta message set_tempo tempo=422535 time=108>
note_on channel=0 note=76 velocity=53 time=0
note_on channel=0 note=56 velocity=50 time=0
note_on channel=0 note=78 velocity=0 time=12
note_on channel=0 note=56 velocity=0 time=108
note_on channel=0 note=78 velocity=47 time=0
note_on channel=0 note=76 velocity=0 time=12
<meta message set_tempo tempo=410959 time=108>
note_on channel=0 note=80 velocity=50 time=0
note_on channel=0 note=64 velocity=36 time=0
note_on channel=0 note=61 velocity=30 time=0
note_on channel=0 note=78 velocity=0 time=12
note_on channel=0 note=61 velocity=0 time=108
note_on channel=0 note=64 velocity=0 time=0
note_on channel=0 note=76 velocity=47 time=0
note_on channel=0 note=80 velocity=0 time=12
<meta message set_tempo tempo=416667 time=108>
note_on channel=0 note=73 velocity=54 time=0
note_on channel=0 note=64 velocity=36 time=0
note_on channel=0 note=61 velocity=30 time=0
note_on channel=0 note=76 velocity=0 time=12
note_on channel=0 note=61 velocity=0 time=108
note_on channel=0 note=64 velocity=0 time=0
note_on channel=0 note=75 velocity=47 time=0
note_on channel=0 note=73 velocity=0 time=12
<meta message set_tempo tempo=428571 time=108>
note_on channel=0 note=76 velocity=53 time=0
note_on channel=0 note=64 velocity=36 time=0
note_on channel=0 note=61 velocity=30 time=0
note_on channel=0 note=75 velocity=0 time=12
note_on channel=0 note=61 velocity=0 time=108
note_on channel=0 note=64 velocity=0 time=0
note_on channel=0 note=73 velocity=47 time=0
note_on channel=0 note=76 velocity=0 time=12
<meta message set_tempo tempo=428571 time=108>
note_on channel=0 note=75 velocity=53 time=0
note_on channel=0 note=56 velocity=50 time=0
note_on channel=0 note=73 velocity=0 time=12
note_on channel=0 note=56 velocity=0 time=108
note_on channel=0 note=76 velocity=47 time=0
note_on channel=0 note=75 velocity=0 time=12
<meta message set_tempo tempo=419580 time=108>
note_on channel=0 note=78 velocity=51 time=0
note_on channel=0 note=66 velocity=37 time=0
note_on channel=0 note=63 velocity=31 time=0
note_on channel=0 note=76 velocity=0 time=12
note_on channel=0 note=63 velocity=0 time=108
note_on channel=0 note=66 velocity=0 time=0
note_on channel=0 note=75 velocity=47 time=0
note_on channel=0 note=78 velocity=0 time=12
<meta message set_tempo tempo=419580 time=86>
note_on channel=0 note=72 velocity=50 time=22
note_on channel=0 note=63 velocity=31 time=0
note_on channel=0 note=66 velocity=37 time=0
note_on channel=0 note=75 velocity=0 time=12
<meta message set_tempo tempo=422535 time=6>
<meta message set_tempo tempo=425532 time=40>
<meta message set_tempo tempo=428571 time=40>
<meta message set_tempo tempo=425532 time=12>
note_on channel=0 note=66 velocity=0 time=10
note_on channel=0 note=63 velocity=0 time=0
note_on channel=0 note=73 velocity=47 time=0
note_on channel=0 note=72 velocity=0 time=12
<meta message set_tempo tempo=428571 time=38>
<meta message set_tempo tempo=431655 time=60>
note_on channel=0 note=75 velocity=50 time=10
note_on channel=0 note=63 velocity=31 time=0
note_on channel=0 note=66 velocity=37 time=0
note_on channel=0 note=73 velocity=0 time=12
<meta message set_tempo tempo=434783 time=38>
<meta message set_tempo tempo=468750 time=70>
note_on channel=0 note=66 velocity=0 time=0
note_on channel=0 note=63 velocity=0 time=0
note_on channel=0 note=72 velocity=46 time=0
note_on channel=0 note=75 velocity=0 time=12
<meta message set_tempo tempo=434783 time=108>
note_on channel=0 note=73 velocity=52 time=0
note_on channel=0 note=64 velocity=50 time=0
note_on channel=0 note=61 velocity=42 time=0
note_on channel=0 note=72 velocity=0 time=12
note_on channel=0 note=73 velocity=0 time=438
note_on channel=0 note=64 velocity=0 time=0
note_on channel=0 note=61 velocity=0 time=0
<meta message set_tempo tempo=416667 time=30>
note_on channel=0 note=76 velocity=69 time=0
note_on channel=0 note=74 velocity=59 time=120
note_on channel=0 note=76 velocity=0 time=12
<meta message set_tempo tempo=419580 time=108>
note_on channel=0 note=73 velocity=59 time=0
note_on channel=0 note=74 velocity=0 time=12
<meta message set_tempo tempo=434783 time=108>
note_on channel=0 note=71 velocity=59 time=0
note_on channel=0 note=73 velocity=0 time=12
<meta message set_tempo tempo=428571 time=108>
note_on channel=0 note=69 velocity=66 time=0
note_on channel=0 note=57 velocity=57 time=0
note_on channel=0 note=71 velocity=0 time=12
note_on channel=0 note=57 velocity=0 time=108
note_on channel=0 note=71 velocity=57 time=0
note_on channel=0 note=69 velocity=0 time=12
<meta message set_tempo tempo=422535 time=108>
note_on channel=0 note=73 velocity=57 time=0
note_on channel=0 note=64 velocity=43 time=0
note_on channel=0 note=61 velocity=36 time=0
note_on channel=0 note=71 velocity=0 time=12
note_on channel=0 note=61 velocity=0 time=108
note_on channel=0 note=64 velocity=0 time=0
note_on channel=0 note=74 velocity=57 time=0
note_on channel=0 note=73 velocity=0 time=12
note_on channel=0 note=76 velocity=64 time=108
note_on channel=0 note=64 velocity=43 time=0
note_on channel=0 note=61 velocity=36 time=0
note_on channel=0 note=74 velocity=0 time=12
note_on channel=0 note=61 velocity=0 time=108
note_on channel=0 note=64 velocity=0 time=0
note_on channel=0 note=78 velocity=57 time=0
note_on channel=0 note=76 velocity=0 time=12
<meta message set_tempo tempo=425532 time=108>
note_on channel=0 note=80 velocity=56 time=0
note_on channel=0 note=64 velocity=43 time=0
note_on channel=0 note=61 velocity=36 time=0
note_on channel=0 note=78 velocity=0 time=12
note_on channel=0 note=61 velocity=0 time=108
note_on channel=0 note=64 velocity=0 time=0
note_on channel=0 note=81 velocity=56 time=0
note_on channel=0 note=80 velocity=0 time=12
note_on channel=0 note=81 velocity=0 time=103
<meta message set_tempo tempo=410959 time=5>
note_on channel=0 note=81 velocity=66 time=0
note_on channel=0 note=59 velocity=57 time=0
note_on channel=0 note=59 velocity=0 time=120
note_on channel=0 note=80 velocity=60 time=0
note_on channel=0 note=81 velocity=0 time=12
<meta message set_tempo tempo=419580 time=108>
note_on channel=0 note=78 velocity=60 time=0
note_on channel=0 note=64 velocity=42 time=0
note_on channel=0 note=62 velocity=35 time=0
note_on channel=0 note=80 velocity=0 time=12
note_on channel=0 note=62 velocity=0 time=108
note_on channel=0 note=64 velocity=0 time=0
note_on channel=0 note=76 velocity=57 time=0
note_on channel=0 note=78 velocity=0 time=12
note_on channel=0 note=76 velocity=0 time=103
note_on channel=0 note=76 velocity=64 time=5
note_on channel=0 note=56 velocity=57 time=0
note_on channel=0 note=56 velocity=0 time=120
note_on channel=0 note=74 velocity=59 time=0
note_on channel=0 note=76 velocity=0 time=12
<meta message set_tempo tempo=422535 time=108>
note_on channel=0 note=73 velocity=59 time=0
note_on channel=0 note=64 velocity=42 time=0
note_on channel=0 note=62 velocity=35 time=0
note_on channel=0 note=74 velocity=0 time=12
note_on channel=0 note=62 velocity=0 time=108
note_on channel=0 note=64 velocity=0 time=0
note_on channel=0 note=71 velocity=59 time=0
note_on channel=0 note=73 velocity=0 time=12
<meta message set_tempo tempo=408163 time=108>
note_on channel=0 note=69 velocity=64 time=0
note_on channel=0 note=57 velocity=57 time=0
note_on channel=0 note=71 velocity=0 time=12
note_on channel=0 note=57 velocity=0 time=108
note_on channel=0 note=71 velocity=54 time=0
note_on channel=0 note=69 velocity=0 time=12
<meta message set_tempo tempo=419580 time=108>
note_on channel=0 note=73 velocity=57 time=0
note_on channel=0 note=64 velocity=41 time=0
note_on channel=0 note=61 velocity=35 time=0
note_on channel=0 note=71 velocity=0 time=12
note_on channel=0 note=61 velocity=0 time=108
note_on channel=0 note=64 velocity=0 time=0
note_on channel=0 note=74 velocity=54 time=0
note_on channel=0 note=73 velocity=0 time=12
note_on channel=0 note=76 velocity=64 time=108
note_on channel=0 note=64 velocity=41 time=0
note_on channel=0 note=61 velocity=35 time=0
note_on channel=0 note=74 velocity=0 time=12
note_on channel=0 note=61 velocity=0 time=108
note_on channel=0 note=64 velocity=0 time=0
note_on channel=0 note=78 velocity=58 time=0
note_on channel=0 note=76 velocity=0 time=12
<meta message set_tempo tempo=458015 time=108>
note_on channel=0 note=80 velocity=60 time=0
note_on channel=0 note=64 velocity=41 time=0
note_on channel=0 note=61 velocity=35 time=0
note_on channel=0 note=78 velocity=0 time=12
<meta message set_tempo tempo=491803 time=108>
note_on channel=0 note=61 velocity=0 time=0
note_on channel=0 note=64 velocity=0 time=0
note_on channel=0 note=81 velocity=63 time=0
note_on channel=0 note=80 velocity=0 time=12
<meta message set_tempo tempo=454545 time=108>
note_on channel=0 note=81 velocity=0 time=0
note_on channel=0 note=82 velocity=75 time=0
note_on channel=0 note=52 velocity=57 time=0
<meta message set_tempo tempo=416667 time=240>
note_on channel=0 note=52 velocity=0 time=0
note_on channel=0 note=82 velocity=0 time=0
note_on channel=0 note=83 velocity=69 time=0
note_on channel=0 note=62 velocity=39 time=0
note_on channel=0 note=56 velocity=33 time=0
note_on channel=0 note=56 velocity=0 time=120
note_on channel=0 note=62 velocity=0 time=0
note_on channel=0 note=83 velocity=0 time=12
<meta message set_tempo tempo=441176 time=98>
note_on channel=0 note=76 velocity=69 time=10
note_on channel=0 note=56 velocity=33 time=0
note_on channel=0 note=62 velocity=39 time=0
<meta message set_tempo tempo=437956 time=10>
<meta message set_tempo tempo=434783 time=20>
<meta message set_tempo tempo=431655 time=20>
<meta message set_tempo tempo=428571 time=20>
<meta message set_tempo tempo=422535 time=20>
<meta message set_tempo tempo=419580 time=20>
note_on channel=0 note=62 velocity=0 time=10
note_on channel=0 note=56 velocity=0 time=0
note_on channel=0 note=74 velocity=59 time=0
<meta message set_tempo tempo=416667 time=10>
note_on channel=0 note=76 velocity=0 time=2
<meta message set_tempo tempo=413793 time=18>
<meta message set_tempo tempo=408163 time=20>
<meta message set_tempo tempo=419580 time=70>
note_on channel=0 note=73 velocity=59 time=0
note_on channel=0 note=56 velocity=33 time=0
note_on channel=0 note=62 velocity=39 time=0
note_on channel=0 note=74 velocity=0 time=12
<meta message set_tempo tempo=434783 time=108>
note_on channel=0 note=62 velocity=0 time=0
note_on channel=0 note=56 velocity=0 time=0
note_on channel=0 note=71 velocity=59 time=0
note_on channel=0 note=73 velocity=0 time=12
<meta message set_tempo tempo=428571 time=108>
note_on channel=0 note=69 velocity=66 time=0
note_on channel=0 note=57 velocity=57 time=0
note_on channel=0 note=71 velocity=0 time=12
note_on channel=0 note=57 velocity=0 time=108
note_on channel=0 note=71 velocity=57 time=0
note_on channel=0 note=69 velocity=0 time=12
<meta message set_tempo tempo=422535 time=108>
note_on channel=0 note=73 velocity=57 time=0
note_on channel=0 note=64 velocity=43 time=0
note_on channel=0 note=61 velocity=36 time=0
note_on channel=0 note=71 velocity=0 time=12
note_on channel=0 note=61 velocity=0 time=108
note_on channel=0 note=64 velocity=0 time=0
note_on channel=0 note=74 velocity=57 time=0
note_on channel=0 note=73 velocity=0 time=12
note_on channel=0 note=76 velocity=64 time=108
note_on channel=0 note=64 velocity=43 time=0
note_on channel=0 note=61 velocity=36 time=0
note_on channel=0 note=74 velocity=0 time=12
note_on channel=0 note=61 velocity=0 time=108
note_on channel=0 note=64 velocity=0 time=0
note_on channel=0 note=78 velocity=57 time=0
note_on channel=0 note=76 velocity=0 time=12
<meta message set_tempo tempo=425532 time=108>
note_on channel=0 note=80 velocity=56 time=0
note_on channel=0 note=64 velocity=43 time=0
note_on channel=0 note=61 velocity=36 time=0
note_on channel=0 note=78 velocity=0 time=12
note_on channel=0 note=61 velocity=0 time=108
note_on channel=0 note=64 velocity=0 time=0
note_on channel=0 note=81 velocity=56 time=0
note_on channel=0 note=80 velocity=0 time=12
note_on channel=0 note=81 velocity=0 time=103
<meta message set_tempo tempo=410959 time=5>
note_on channel=0 note=81 velocity=66 time=0
note_on channel=0 note=59 velocity=57 time=0
note_on channel=0 note=59 velocity=0 time=120
note_on channel=0 note=80 velocity=57 time=0
note_on channel=0 note=81 velocity=0 time=12
<meta message set_tempo tempo=419580 time=108>
note_on channel=0 note=78 velocity=60 time=0
note_on channel=0 note=64 velocity=42 time=0
note_on channel=0 note=62 velocity=35 time=0
note_on channel=0 note=80 velocity=0 time=12
note_on channel=0 note=62 velocity=0 time=108
note_on channel=0 note=64 velocity=0 time=0
note_on channel=0 note=76 velocity=57 time=0
note_on channel=0 note=78 velocity=0 time=12
note_on channel=0 note=76 velocity=0 time=103
note_on channel=0 note=76 velocity=64 time=5
note_on channel=0 note=56 velocity=57 time=0
note_on channel=0 note=56 velocity=0 time=120
note_on channel=0 note=74 velocity=59 time=0
note_on channel=0 note=76 velocity=0 time=12
<meta message set_tempo tempo=422535 time=108>
note_on channel=0 note=73 velocity=59 time=0
note_on channel=0 note=64 velocity=42 time=0
note_on channel=0 note=62 velocity=35 time=0
note_on channel=0 note=74 velocity=0 time=12
note_on channel=0 note=62 velocity=0 time=108
note_on channel=0 note=64 velocity=0 time=0
note_on channel=0 note=71 velocity=59 time=0
note_on channel=0 note=73 velocity=0 time=12
<meta message set_tempo tempo=408163 time=108>
note_on channel=0 note=73 velocity=64 time=0
note_on channel=0 note=57 velocity=57 time=0
note_on channel=0 note=71 velocity=0 time=12
note_on channel=0 note=57 velocity=0 time=108
note_on channel=0 note=76 velocity=54 time=0
note_on channel=0 note=73 velocity=0 time=12
<meta message set_tempo tempo=419580 time=108>
note_on channel=0 note=69 velocity=57 time=0
note_on channel=0 note=54 velocity=46 time=0
note_on channel=0 note=76 velocity=0 time=12
note_on channel=0 note=54 velocity=0 time=108
note_on channel=0 note=73 velocity=54 time=0
note_on channel=0 note=69 velocity=0 time=12
<meta message set_tempo tempo=410959 time=108>
note_on channel=0 note=71 velocity=64 time=0
note_on channel=0 note=50 velocity=46 time=0
note_on channel=0 note=73 velocity=0 time=12
note_on channel=0 note=50 velocity=0 time=108
note_on channel=0 note=74 velocity=58 time=0
note_on channel=0 note=71 velocity=0 time=12
<meta message set_tempo tempo=437956 time=108>
note_on channel=0 note=68 velocity=60 time=0
note_on channel=0 note=52 velocity=46 time=0
note_on channel=0 note=74 velocity=0 time=12
note_on channel=0 note=52 velocity=0 time=108
note_on channel=0 note=71 velocity=55 time=0
note_on channel=0 note=68 velocity=0 time=12
<meta message set_tempo tempo=441176 time=108>
note_on channel=0 note=71 velocity=0 time=0
note_on channel=0 note=69 velocity=66 time=0
note_on channel=0 note=45 velocity=57 time=0
<meta message set_tempo tempo=416667 time=240>
note_on channel=0 note=45 velocity=0 time=0
note_on channel=0 note=57 velocity=44 time=0
note_on channel=0 note=57 velocity=0 time=120
note_on channel=0 note=69 velocity=0 time=0
<meta message set_tempo tempo=472441 time=110>
note_on channel=0 note=85 velocity=60 time=10
<meta message set_tempo tempo=465116 time=10>
<meta message set_tempo tempo=454545 time=20>
<meta message set_tempo tempo=447761 time=20>
<meta message set_tempo tempo=437956 time=20>
<meta message set_tempo tempo=431655 time=20>
<meta message set_tempo tempo=422535 time=20>
note_on channel=0 note=86 velocity=52 time=10
<meta message set_tempo tempo=416667 time=10>
note_on channel=0 note=85 velocity=0 time=2
<meta message set_tempo tempo=408163 time=18>
<meta message set_tempo tempo=419580 time=90>
note_on channel=0 note=85 velocity=52 time=0
note_on channel=0 note=86 velocity=0 time=12
<meta message set_tempo tempo=434783 time=108>
note_on channel=0 note=83 velocity=52 time=0
note_on channel=0 note=85 velocity=0 time=12
<meta message set_tempo tempo=425532 time=108>
note_on channel=0 note=81 velocity=58 time=0
note_on channel=0 note=52 velocity=50 time=0
note_on channel=0 note=83 velocity=0 time=12
note_on channel=0 note=52 velocity=0 time=108
note_on channel=0 note=83 velocity=50 time=0
note_on channel=0 note=81 velocity=0 time=12
<meta message set_tempo tempo=422535 time=108>
note_on channel=0 note=81 velocity=50 time=0
note_on channel=0 note=61 velocity=42 time=0
note_on channel=0 note=57 velocity=35 time=0
note_on channel=0 note=83 velocity=0 time=12
note_on channel=0 note=57 velocity=0 time=108
note_on channel=0 note=61 velocity=0 time=0
note_on channel=0 note=80 velocity=50 time=0
note_on channel=0 note=81 velocity=0 time=12
note_on channel=0 note=78 velocity=56 time=108
note_on channel=0 note=61 velocity=42 time=0
note_on channel=0 note=57 velocity=35 time=0
note_on channel=0 note=80 velocity=0 time=12
note_on channel=0 note=57 velocity=0 time=108
note_on channel=0 note=61 velocity=0 time=0
note_on channel=0 note=81 velocity=50 time=0
note_on channel=0 note=78 velocity=0 time=12
<meta message set_tempo tempo=425532 time=108>
note_on channel=0 note=80 velocity=46 time=0
note_on channel=0 note=61 velocity=42 time=0
note_on channel=0 note=57 velocity=35 time=0
note_on channel=0 note=81 velocity=0 time=12
note_on channel=0 note=57 velocity=0 time=108
note_on channel=0 note=61 velocity=0 time=0
note_on channel=0 note=78 velocity=46 time=0
note_on channel=0 note=80 velocity=0 time=12
<meta message set_tempo tempo=422535 time=108>
note_on channel=0 note=77 velocity=58 time=0
note_on channel=0 note=56 velocity=50 time=0
note_on channel=0 note=78 velocity=0 time=12
note_on channel=0 note=56 velocity=0 time=108
note_on channel=0 note=78 velocity=47 time=0
note_on channel=0 note=77 velocity=0 time=12
<meta message set_tempo tempo=419580 time=108>
note_on channel=0 note=80 velocity=49 time=0
note_on channel=0 note=61 velocity=41 time=0
note_on channel=0 note=59 velocity=34 time=0
note_on channel=0 note=78 velocity=0 time=12
note_on channel=0 note=59 velocity=0 time=108
note_on channel=0 note=61 velocity=0 time=0
note_on channel=0 note=77 velocity=46 time=0
note_on channel=0 note=80 velocity=0 time=12
note_on channel=0 note=73 velocity=56 time=108
note_on channel=0 note=61 velocity=41 time=0
note_on channel=0 note=59 velocity=34 time=0
note_on channel=0 note=77 velocity=0 time=12
note_on channel=0 note=59 velocity=0 time=108
note_on channel=0 note=61 velocity=0 time=0
note_on channel=0 note=75 velocity=47 time=0
note_on channel=0 note=73 velocity=0 time=12
<meta message set_tempo tempo=422535 time=108>
note_on channel=0 note=77 velocity=50 time=0
note_on channel=0 note=61 velocity=41 time=0
note_on channel=0 note=59 velocity=34 time=0
note_on channel=0 note=75 velocity=0 time=12
note_on channel=0 note=59 velocity=0 time=108
note_on channel=0 note=61 velocity=0 time=0
note_on channel=0 note=73 velocity=47 time=0
note_on channel=0 note=77 velocity=0 time=12
<meta message set_tempo tempo=431655 time=108>
note_on channel=0 note=78 velocity=56 time=0
note_on channel=0 note=54 velocity=50 time=0
note_on channel=0 note=73 velocity=0 time=12
note_on channel=0 note=54 velocity=0 time=108
note_on channel=0 note=77 velocity=47 time=0
note_on channel=0 note=78 velocity=0 time=12
<meta message set_tempo tempo=419580 time=108>
note_on channel=0 note=78 velocity=50 time=0
note_on channel=0 note=61 velocity=40 time=0
note_on channel=0 note=57 velocity=34 time=0
note_on channel=0 note=77 velocity=0 time=12
note_on channel=0 note=57 velocity=0 time=108
note_on channel=0 note=61 velocity=0 time=0
note_on channel=0 note=80 velocity=47 time=0
note_on channel=0 note=78 velocity=0 time=12
note_on channel=0 note=81 velocity=56 time=108
note_on channel=0 note=61 velocity=40 time=0
note_on channel=0 note=57 velocity=34 time=0
note_on channel=0 note=80 velocity=0 time=12
note_on channel=0 note=57 velocity=0 time=108
note_on channel=0 note=61 velocity=0 time=0
note_on channel=0 note=80 velocity=51 time=0
note_on channel=0 note=81 velocity=0 time=12
<meta message set_tempo tempo=422535 time=108>
note_on channel=0 note=81 velocity=53 time=0
note_on channel=0 note=61 velocity=40 time=0
note_on channel=0 note=57 velocity=34 time=0
note_on channel=0 note=80 velocity=0 time=12
note_on channel=0 note=57 velocity=0 time=108
note_on channel=0 note=61 velocity=0 time=0
note_on channel=0 note=83 velocity=55 time=0
note_on channel=0 note=81 velocity=0 time=12
<meta message set_tempo tempo=410959 time=108>
note_on channel=0 note=85 velocity=62 time=0
note_on channel=0 note=49 velocity=50 time=0
note_on channel=0 note=83 velocity=0 time=12
note_on channel=0 note=49 velocity=0 time=108
note_on channel=0 note=84 velocity=57 time=0
note_on channel=0 note=85 velocity=0 time=12
<meta message set_tempo tempo=416667 time=108>
note_on channel=0 note=85 velocity=60 time=0
note_on channel=0 note=61 velocity=49 time=0
note_on channel=0 note=56 velocity=41 time=0
note_on channel=0 note=84 velocity=0 time=12
note_on channel=0 note=56 velocity=0 time=108
note_on channel=0 note=61 velocity=0 time=0
note_on channel=0 note=84 velocity=54 time=0
note_on channel=0 note=85 velocity=0 time=12
note_on channel=0 note=84 velocity=0 time=108
note_on channel=0 note=85 velocity=62 time=0
note_on channel=0 note=61 velocity=48 time=0
note_on channel=0 note=55 velocity=40 time=0
note_on channel=0 note=55 velocity=0 time=120
note_on channel=0 note=61 velocity=0 time=0
note_on channel=0 note=86 velocity=56 time=0
note_on channel=0 note=85 velocity=0 time=12
<meta message set_tempo tempo=425532 time=108>
note_on channel=0 note=85 velocity=65 time=0
note_on channel=0 note=61 velocity=48 time=0
note_on channel=0 note=54 velocity=40 time=0
note_on channel=0 note=86 velocity=0 time=12
note_on channel=0 note=54 velocity=0 time=108
note_on channel=0 note=61 velocity=0 time=0
note_on channel=0 note=82 velocity=60 time=0
note_on channel=0 note=85 velocity=0 time=12
<meta message set_tempo tempo=428571 time=108>
note_on channel=0 note=86 velocity=69 time=0
note_on channel=0 note=47 velocity=59 time=0
note_on channel=0 note=82 velocity=0 time=12
note_on channel=0 note=47 velocity=0 time=108
note_on channel=0 note=85 velocity=63 time=0
note_on channel=0 note=86 velocity=0 time=12
<meta message set_tempo tempo=416667 time=108>
note_on channel=0 note=86 velocity=69 time=0
note_on channel=0 note=59 velocity=53 time=0
note_on channel=0 note=54 velocity=45 time=0
note_on channel=0 note=85 velocity=0 time=12
note_on channel=0 note=54 velocity=0 time=108
note_on channel=0 note=59 velocity=0 time=0
note_on channel=0 note=85 velocity=64 time=0
note_on channel=0 note=86 velocity=0 time=12
note_on channel=0 note=86 velocity=68 time=108
note_on channel=0 note=59 velocity=56 time=0
note_on channel=0 note=54 velocity=47 time=0
note_on channel=0 note=85 velocity=0 time=12
note_on channel=0 note=54 velocity=0 time=108
note_on channel=0 note=59 velocity=0 time=0
note_on channel=0 note=85 velocity=66 time=0
note_on channel=0 note=86 velocity=0 time=12
<meta message set_tempo tempo=425532 time=108>
note_on channel=0 note=86 velocity=72 time=0
note_on channel=0 note=59 velocity=54 time=0
note_on channel=0 note=54 velocity=45 time=0
note_on channel=0 note=85 velocity=0 time=12
note_on channel=0 note=54 velocity=0 time=108
note_on channel=0 note=59 velocity=0 time=0
note_on channel=0 note=85 velocity=68 time=0
note_on channel=0 note=86 velocity=0 time=12
<meta message set_tempo tempo=425532 time=108>
note_on channel=0 note=86 velocity=70 time=0
note_on channel=0 note=47 velocity=65 time=0
note_on channel=0 note=85 velocity=0 time=12
note_on channel=0 note=47 velocity=0 time=108
note_on channel=0 note=85 velocity=69 time=0
note_on channel=0 note=86 velocity=0 time=12
<meta message set_tempo tempo=416667 time=108>
note_on channel=0 note=83 velocity=67 time=0
note_on channel=0 note=59 velocity=54 time=0
note_on channel=0 note=56 velocity=45 time=0
note_on channel=0 note=85 velocity=0 time=12
note_on channel=0 note=56 velocity=0 time=108
note_on channel=0 note=59 velocity=0 time=0
note_on channel=0 note=81 velocity=66 time=0
note_on channel=0 note=83 velocity=0 time=12
note_on channel=0 note=80 velocity=64 time=108
note_on channel=0 note=59 velocity=60 time=0
note_on channel=0 note=56 velocity=51 time=0
note_on channel=0 note=81 velocity=0 time=12
note_on channel=0 note=56 velocity=0 time=108
note_on channel=0 note=59 velocity=0 time=0
note_on channel=0 note=81 velocity=61 time=0
note_on channel=0 note=80 velocity=0 time=12
<meta message set_tempo tempo=428571 time=108>
note_on channel=0 note=83 velocity=64 time=0
note_on channel=0 note=59 velocity=54 time=0
note_on channel=0 note=56 velocity=45 time=0
note_on channel=0 note=81 velocity=0 time=12
note_on channel=0 note=56 velocity=0 time=108
note_on channel=0 note=59 velocity=0 time=0
note_on channel=0 note=80 velocity=61 time=0
note_on channel=0 note=83 velocity=0 time=12
<meta message set_tempo tempo=416667 time=108>
note_on channel=0 note=81 velocity=57 time=0
note_on channel=0 note=49 velocity=58 time=0
note_on channel=0 note=80 velocity=0 time=12
note_on channel=0 note=49 velocity=0 time=108
note_on channel=0 note=83 velocity=49 time=0
note_on channel=0 note=81 velocity=0 time=12
<meta message set_tempo tempo=419580 time=108>
note_on channel=0 note=85 velocity=55 time=0
note_on channel=0 note=57 velocity=47 time=0
note_on channel=0 note=54 velocity=39 time=0
note_on channel=0 note=83 velocity=0 time=12
note_on channel=0 note=54 velocity=0 time=108
note_on channel=0 note=57 velocity=0 time=0
note_on channel=0 note=78 velocity=50 time=0
note_on channel=0 note=85 velocity=0 time=12
<meta message set_tempo tempo=419580 time=86>
note_on channel=0 note=77 velocity=53 time=22
note_on channel=0 note=49 velocity=55 time=0
note_on channel=0 note=78 velocity=0 time=12
<meta message set_tempo tempo=422535 time=6>
<meta message set_tempo tempo=425532 time=40>
<meta message set_tempo tempo=428571 time=40>
<meta message set_tempo tempo=425532 time=12>
note_on channel=0 note=49 velocity=0 time=10
note_on channel=0 note=78 velocity=47 time=0
note_on channel=0 note=77 velocity=0 time=12
<meta message set_tempo tempo=428571 time=38>
<meta message set_tempo tempo=431655 time=60>
note_on channel=0 note=80 velocity=54 time=10
note_on channel=0 note=56 velocity=41 time=0
note_on channel=0 note=59 velocity=49 time=0
note_on channel=0 note=78 velocity=0 time=12
<meta message set_tempo tempo=434783 time=38>
<meta message set_tempo tempo=512821 time=70>
note_on channel=0 note=59 velocity=0 time=0
note_on channel=0 note=56 velocity=0 time=0
note_on channel=0 note=77 velocity=47 time=0
note_on channel=0 note=80 velocity=0 time=12
<meta message set_tempo tempo=434783 time=108>
note_on channel=0 note=78 velocity=54 time=0
note_on channel=0 note=57 velocity=46 time=0
note_on channel=0 note=54 velocity=39 time=0
note_on channel=0 note=77 velocity=0 time=12
note_on channel=0 note=78 velocity=0 time=438
note_on channel=0 note=57 velocity=0 time=0
note_on channel=0 note=54 velocity=0 time=0
<meta message set_tempo tempo=416667 time=30>
note_on channel=0 note=76 velocity=69 time=0
note_on channel=0 note=74 velocity=59 time=120
note_on channel=0 note=76 velocity=0 time=12
<meta message set_tempo tempo=419580 time=108>
note_on channel=0 note=73 velocity=59 time=0
note_on channel=0 note=74 velocity=0 time=12
<meta message set_tempo tempo=434783 time=108>
note_on channel=0 note=71 velocity=59 time=0
note_on channel=0 note=73 velocity=0 time=12
<meta message set_tempo tempo=428571 time=108>
note_on channel=0 note=69 velocity=66 time=0
note_on channel=0 note=57 velocity=57 time=0
note_on channel=0 note=71 velocity=0 time=12
note_on channel=0 note=57 velocity=0 time=108
note_on channel=0 note=71 velocity=57 time=0
note_on channel=0 note=69 velocity=0 time=12
<meta message set_tempo tempo=422535 time=108>
note_on channel=0 note=73 velocity=57 time=0
note_on channel=0 note=64 velocity=43 time=0
note_on channel=0 note=61 velocity=36 time=0
note_on channel=0 note=71 velocity=0 time=12
note_on channel=0 note=61 velocity=0 time=108
note_on channel=0 note=64 velocity=0 time=0
note_on channel=0 note=74 velocity=57 time=0
note_on channel=0 note=73 velocity=0 time=12
<meta message set_tempo tempo=428571 time=108>
note_on channel=0 note=76 velocity=64 time=0
note_on channel=0 note=64 velocity=43 time=0
note_on channel=0 note=61 velocity=36 time=0
note_on channel=0 note=74 velocity=0 time=12
note_on channel=0 note=61 velocity=0 time=108
note_on channel=0 note=64 velocity=0 time=0
note_on channel=0 note=78 velocity=57 time=0
note_on channel=0 note=76 velocity=0 time=12
<meta message set_tempo tempo=434783 time=108>
note_on channel=0 note=80 velocity=56 time=0
note_on channel=0 note=64 velocity=43 time=0
note_on channel=0 note=61 velocity=36 time=0
note_on channel=0 note=78 velocity=0 time=12
note_on channel=0 note=61 velocity=0 time=108
note_on channel=0 note=64 velocity=0 time=0
note_on channel=0 note=81 velocity=56 time=0
note_on channel=0 note=80 velocity=0 time=12
note_on channel=0 note=81 velocity=0 time=103
<meta message set_tempo tempo=416667 time=5>
note_on channel=0 note=81 velocity=66 time=0
note_on channel=0 note=59 velocity=57 time=0
note_on channel=0 note=59 velocity=0 time=120
note_on channel=0 note=80 velocity=60 time=0
note_on channel=0 note=81 velocity=0 time=12
<meta message set_tempo tempo=419580 time=108>
note_on channel=0 note=78 velocity=60 time=0
note_on channel=0 note=64 velocity=42 time=0
note_on channel=0 note=62 velocity=35 time=0
note_on channel=0 note=80 velocity=0 time=12
note_on channel=0 note=62 velocity=0 time=108
note_on channel=0 note=64 velocity=0 time=0
note_on channel=0 note=76 velocity=57 time=0
note_on channel=0 note=78 velocity=0 time=12
note_on channel=0 note=76 velocity=0 time=103
note_on channel=0 note=76 velocity=64 time=5
note_on channel=0 note=56 velocity=57 time=0
note_on channel=0 note=56 velocity=0 time=120
note_on channel=0 note=74 velocity=59 time=0
note_on channel=0 note=76 velocity=0 time=12
<meta message set_tempo tempo=422535 time=108>
note_on channel=0 note=73 velocity=59 time=0
note_on channel=0 note=64 velocity=42 time=0
note_on channel=0 note=62 velocity=35 time=0
note_on channel=0 note=74 velocity=0 time=12
note_on channel=0 note=62 velocity=0 time=108
note_on channel=0 note=64 velocity=0 time=0
note_on channel=0 note=71 velocity=59 time=0
note_on channel=0 note=73 velocity=0 time=12
<meta message set_tempo tempo=408163 time=108>
note_on channel=0 note=69 velocity=64 time=0
note_on channel=0 note=57 velocity=57 time=0
note_on channel=0 note=71 velocity=0 time=12
note_on channel=0 note=57 velocity=0 time=108
note_on channel=0 note=71 velocity=54 time=0
note_on channel=0 note=69 velocity=0 time=12
<meta message set_tempo tempo=419580 time=108>
note_on channel=0 note=73 velocity=57 time=0
note_on channel=0 note=64 velocity=41 time=0
note_on channel=0 note=61 velocity=35 time=0
note_on channel=0 note=71 velocity=0 time=12
note_on channel=0 note=61 velocity=0 time=108
note_on channel=0 note=64 velocity=0 time=0
note_on channel=0 note=74 velocity=54 time=0
note_on channel=0 note=73 velocity=0 time=12
note_on channel=0 note=76 velocity=64 time=108
note_on channel=0 note=64 velocity=41 time=0
note_on channel=0 note=61 velocity=35 time=0
note_on channel=0 note=74 velocity=0 time=12
note_on channel=0 note=61 velocity=0 time=108
note_on channel=0 note=64 velocity=0 time=0
note_on channel=0 note=78 velocity=58 time=0
note_on channel=0 note=76 velocity=0 time=12
<meta message set_tempo tempo=458015 time=108>
note_on channel=0 note=80 velocity=60 time=0
note_on channel=0 note=64 velocity=41 time=0
note_on channel=0 note=61 velocity=35 time=0
note_on channel=0 note=78 velocity=0 time=12
<meta message set_tempo tempo=508475 time=108>
note_on channel=0 note=61 velocity=0 time=0
note_on channel=0 note=64 velocity=0 time=0
note_on channel=0 note=81 velocity=63 time=0
note_on channel=0 note=80 velocity=0 time=12
<meta message set_tempo tempo=468750 time=108>
note_on channel=0 note=81 velocity=0 time=0
note_on channel=0 note=82 velocity=75 time=0
note_on channel=0 note=52 velocity=57 time=0
<meta message set_tempo tempo=416667 time=240>
note_on channel=0 note=52 velocity=0 time=0
note_on channel=0 note=82 velocity=0 time=0
note_on channel=0 note=83 velocity=69 time=0
note_on channel=0 note=62 velocity=39 time=0
note_on channel=0 note=56 velocity=33 time=0
note_on channel=0 note=56 velocity=0 time=120
note_on channel=0 note=62 velocity=0 time=0
note_on channel=0 note=83 velocity=0 time=12
<meta message set_tempo tempo=416667 time=108>
note_on channel=0 note=76 velocity=69 time=0
note_on channel=0 note=56 velocity=33 time=0
note_on channel=0 note=62 velocity=39 time=0
note_on channel=0 note=62 velocity=0 time=120
note_on channel=0 note=56 velocity=0 time=0
note_on channel=0 note=74 velocity=59 time=0
note_on channel=0 note=76 velocity=0 time=12
<meta message set_tempo tempo=419580 time=108>
note_on channel=0 note=73 velocity=59 time=0
note_on channel=0 note=56 velocity=33 time=0
note_on channel=0 note=62 velocity=39 time=0
note_on channel=0 note=74 velocity=0 time=12
<meta message set_tempo tempo=434783 time=108>
note_on channel=0 note=62 velocity=0 time=0
note_on channel=0 note=56 velocity=0 time=0
note_on channel=0 note=71 velocity=59 time=0
note_on channel=0 note=73 velocity=0 time=12
<meta message set_tempo tempo=428571 time=108>
note_on channel=0 note=69 velocity=66 time=0
note_on channel=0 note=57 velocity=57 time=0
note_on channel=0 note=71 velocity=0 time=12
note_on channel=0 note=57 velocity=0 time=108
note_on channel=0 note=71 velocity=57 time=0
note_on channel=0 note=69 velocity=0 time=12
<meta message set_tempo tempo=422535 time=108>
note_on channel=0 note=73 velocity=57 time=0
note_on channel=0 note=64 velocity=43 time=0
note_on channel=0 note=61 velocity=36 time=0
note_on channel=0 note=71 velocity=0 time=12
note_on channel=0 note=61 velocity=0 time=108
note_on channel=0 note=64 velocity=0 time=0
note_on channel=0 note=74 velocity=57 time=0
note_on channel=0 note=73 velocity=0 time=12
<meta message set_tempo tempo=428571 time=108>
note_on channel=0 note=76 velocity=64 time=0
note_on channel=0 note=64 velocity=43 time=0
note_on channel=0 note=61 velocity=36 time=0
note_on channel=0 note=74 velocity=0 time=12
note_on channel=0 note=61 velocity=0 time=108
note_on channel=0 note=64 velocity=0 time=0
note_on channel=0 note=78 velocity=57 time=0
note_on channel=0 note=76 velocity=0 time=12
<meta message set_tempo tempo=425532 time=108>
note_on channel=0 note=80 velocity=56 time=0
note_on channel=0 note=64 velocity=43 time=0
note_on channel=0 note=61 velocity=36 time=0
note_on channel=0 note=78 velocity=0 time=12
note_on channel=0 note=61 velocity=0 time=108
note_on channel=0 note=64 velocity=0 time=0
note_on channel=0 note=81 velocity=56 time=0
note_on channel=0 note=80 velocity=0 time=12
note_on channel=0 note=81 velocity=0 time=103
<meta message set_tempo tempo=416667 time=5>
note_on channel=0 note=81 velocity=66 time=0
note_on channel=0 note=59 velocity=57 time=0
note_on channel=0 note=59 velocity=0 time=120
note_on channel=0 note=80 velocity=57 time=0
note_on channel=0 note=81 velocity=0 time=12
<meta message set_tempo tempo=419580 time=108>
note_on channel=0 note=78 velocity=60 time=0
note_on channel=0 note=64 velocity=42 time=0
note_on channel=0 note=62 velocity=35 time=0
note_on channel=0 note=80 velocity=0 time=12
note_on channel=0 note=62 velocity=0 time=108
note_on channel=0 note=64 velocity=0 time=0
note_on channel=0 note=76 velocity=57 time=0
note_on channel=0 note=78 velocity=0 time=12
note_on channel=0 note=76 velocity=0 time=103
note_on channel=0 note=76 velocity=64 time=5
note_on channel=0 note=56 velocity=57 time=0
note_on channel=0 note=56 velocity=0 time=120
note_on channel=0 note=74 velocity=59 time=0
note_on channel=0 note=76 velocity=0 time=12
<meta message set_tempo tempo=422535 time=108>
note_on channel=0 note=73 velocity=59 time=0
note_on channel=0 note=64 velocity=42 time=0
note_on channel=0 note=62 velocity=35 time=0
note_on channel=0 note=74 velocity=0 time=12
note_on channel=0 note=62 velocity=0 time=108
note_on channel=0 note=64 velocity=0 time=0
note_on channel=0 note=71 velocity=59 time=0
note_on channel=0 note=73 velocity=0 time=12
<meta message set_tempo tempo=408163 time=108>
note_on channel=0 note=73 velocity=64 time=0
note_on channel=0 note=57 velocity=57 time=0
note_on channel=0 note=71 velocity=0 time=12
note_on channel=0 note=57 velocity=0 time=108
note_on channel=0 note=76 velocity=54 time=0
note_on channel=0 note=73 velocity=0 time=12
<meta message set_tempo tempo=419580 time=108>
note_on channel=0 note=69 velocity=57 time=0
note_on channel=0 note=54 velocity=46 time=0
note_on channel=0 note=76 velocity=0 time=12
note_on channel=0 note=54 velocity=0 time=108
note_on channel=0 note=73 velocity=54 time=0
note_on channel=0 note=69 velocity=0 time=12
<meta message set_tempo tempo=410959 time=108>
note_on channel=0 note=71 velocity=64 time=0
note_on channel=0 note=50 velocity=46 time=0
note_on channel=0 note=73 velocity=0 time=12
note_on channel=0 note=50 velocity=0 time=108
note_on channel=0 note=74 velocity=58 time=0
note_on channel=0 note=71 velocity=0 time=12
<meta message set_tempo tempo=437956 time=108>
note_on channel=0 note=68 velocity=60 time=0
note_on channel=0 note=52 velocity=46 time=0
note_on channel=0 note=74 velocity=0 time=12
note_on channel=0 note=52 velocity=0 time=108
note_on channel=0 note=71 velocity=55 time=0
note_on channel=0 note=68 velocity=0 time=12
<meta message set_tempo tempo=441176 time=108>
note_on channel=0 note=71 velocity=0 time=0
note_on channel=0 note=69 velocity=66 time=0
note_on channel=0 note=45 velocity=57 time=0
control_change channel=0 control=64 value=127 time=50
<meta message set_tempo tempo=431655 time=190>
note_on channel=0 note=45 velocity=0 time=0
note_on channel=0 note=57 velocity=44 time=0
control_change channel=0 control=64 value=0 time=28
note_on channel=0 note=57 velocity=0 time=92
note_on channel=0 note=69 velocity=0 time=0
<meta message set_tempo tempo=495868 time=110>
note_on channel=0 note=85 velocity=60 time=10
<meta message set_tempo tempo=483871 time=10>
<meta message set_tempo tempo=468750 time=20>
<meta message set_tempo tempo=454545 time=20>
<meta message set_tempo tempo=441176 time=20>
<meta message set_tempo tempo=428571 time=20>
<meta message set_tempo tempo=416667 time=20>
note_on channel=0 note=86 velocity=52 time=10
<meta message set_tempo tempo=405405 time=10>
note_on channel=0 note=85 velocity=0 time=2
<meta message set_tempo tempo=419580 time=108>
note_on channel=0 note=85 velocity=52 time=0
note_on channel=0 note=86 velocity=0 time=12
<meta message set_tempo tempo=434783 time=108>
note_on channel=0 note=83 velocity=52 time=0
note_on channel=0 note=85 velocity=0 time=12
<meta message set_tempo tempo=425532 time=108>
note_on channel=0 note=81 velocity=58 time=0
note_on channel=0 note=52 velocity=50 time=0
note_on channel=0 note=83 velocity=0 time=12
note_on channel=0 note=52 velocity=0 time=108
note_on channel=0 note=83 velocity=50 time=0
note_on channel=0 note=81 velocity=0 time=12
<meta message set_tempo tempo=422535 time=108>
note_on channel=0 note=81 velocity=50 time=0
note_on channel=0 note=61 velocity=42 time=0
note_on channel=0 note=57 velocity=35 time=0
note_on channel=0 note=83 velocity=0 time=12
note_on channel=0 note=57 velocity=0 time=108
note_on channel=0 note=61 velocity=0 time=0
note_on channel=0 note=80 velocity=50 time=0
note_on channel=0 note=81 velocity=0 time=12
note_on channel=0 note=78 velocity=56 time=108
note_on channel=0 note=61 velocity=42 time=0
note_on channel=0 note=57 velocity=35 time=0
note_on channel=0 note=80 velocity=0 time=12
note_on channel=0 note=57 velocity=0 time=108
note_on channel=0 note=61 velocity=0 time=0
note_on channel=0 note=81 velocity=50 time=0
note_on channel=0 note=78 velocity=0 time=12
<meta message set_tempo tempo=425532 time=108>
note_on channel=0 note=80 velocity=46 time=0
note_on channel=0 note=61 velocity=42 time=0
note_on channel=0 note=57 velocity=35 time=0
note_on channel=0 note=81 velocity=0 time=12
note_on channel=0 note=57 velocity=0 time=108
note_on channel=0 note=61 velocity=0 time=0
note_on channel=0 note=78 velocity=46 time=0
note_on channel=0 note=80 velocity=0 time=12
<meta message set_tempo tempo=422535 time=108>
note_on channel=0 note=77 velocity=58 time=0
note_on channel=0 note=56 velocity=50 time=0
note_on channel=0 note=78 velocity=0 time=12
note_on channel=0 note=56 velocity=0 time=108
note_on channel=0 note=78 velocity=47 time=0
note_on channel=0 note=77 velocity=0 time=12
<meta message set_tempo tempo=419580 time=108>
note_on channel=0 note=80 velocity=49 time=0
note_on channel=0 note=61 velocity=41 time=0
note_on channel=0 note=59 velocity=34 time=0
note_on channel=0 note=78 velocity=0 time=12
note_on channel=0 note=59 velocity=0 time=108
note_on channel=0 note=61 velocity=0 time=0
note_on channel=0 note=77 velocity=46 time=0
note_on channel=0 note=80 velocity=0 time=12
note_on channel=0 note=73 velocity=56 time=108
note_on channel=0 note=61 velocity=41 time=0
note_on channel=0 note=59 velocity=34 time=0
note_on channel=0 note=77 velocity=0 time=12
note_on channel=0 note=59 velocity=0 time=108
note_on channel=0 note=61 velocity=0 time=0
note_on channel=0 note=75 velocity=47 time=0
note_on channel=0 note=73 velocity=0 time=12
<meta message set_tempo tempo=422535 time=108>
note_on channel=0 note=77 velocity=50 time=0
note_on channel=0 note=61 velocity=41 time=0
note_on channel=0 note=59 velocity=34 time=0
note_on channel=0 note=75 velocity=0 time=12
note_on channel=0 note=59 velocity=0 time=108
note_on channel=0 note=61 velocity=0 time=0
note_on channel=0 note=73 velocity=47 time=0
note_on channel=0 note=77 velocity=0 time=12
<meta message set_tempo tempo=431655 time=108>
note_on channel=0 note=78 velocity=56 time=0
note_on channel=0 note=54 velocity=50 time=0
note_on channel=0 note=73 velocity=0 time=12
note_on channel=0 note=54 velocity=0 time=108
note_on channel=0 note=77 velocity=47 time=0
note_on channel=0 note=78 velocity=0 time=12
<meta message set_tempo tempo=419580 time=108>
note_on channel=0 note=78 velocity=50 time=0
note_on channel=0 note=61 velocity=40 time=0
note_on channel=0 note=57 velocity=34 time=0
note_on channel=0 note=77 velocity=0 time=12
note_on channel=0 note=57 velocity=0 time=108
note_on channel=0 note=61 velocity=0 time=0
note_on channel=0 note=80 velocity=47 time=0
note_on channel=0 note=78 velocity=0 time=12
note_on channel=0 note=81 velocity=56 time=108
note_on channel=0 note=61 velocity=40 time=0
note_on channel=0 note=57 velocity=34 time=0
note_on channel=0 note=80 velocity=0 time=12
note_on channel=0 note=57 velocity=0 time=108
note_on channel=0 note=61 velocity=0 time=0
note_on channel=0 note=80 velocity=51 time=0
note_on channel=0 note=81 velocity=0 time=12
<meta message set_tempo tempo=422535 time=108>
note_on channel=0 note=81 velocity=53 time=0
note_on channel=0 note=61 velocity=40 time=0
note_on channel=0 note=57 velocity=34 time=0
note_on channel=0 note=80 velocity=0 time=12
note_on channel=0 note=57 velocity=0 time=108
note_on channel=0 note=61 velocity=0 time=0
note_on channel=0 note=83 velocity=55 time=0
note_on channel=0 note=81 velocity=0 time=12
<meta message set_tempo tempo=416667 time=108>
note_on channel=0 note=85 velocity=62 time=0
note_on channel=0 note=49 velocity=50 time=0
note_on channel=0 note=83 velocity=0 time=12
note_on channel=0 note=49 velocity=0 time=108
note_on channel=0 note=84 velocity=57 time=0
note_on channel=0 note=85 velocity=0 time=12
<meta message set_tempo tempo=416667 time=108>
note_on channel=0 note=85 velocity=60 time=0
note_on channel=0 note=61 velocity=49 time=0
note_on channel=0 note=56 velocity=41 time=0
note_on channel=0 note=84 velocity=0 time=12
note_on channel=0 note=56 velocity=0 time=108
note_on channel=0 note=61 velocity=0 time=0
note_on channel=0 note=84 velocity=54 time=0
note_on channel=0 note=85 velocity=0 time=12
note_on channel=0 note=84 velocity=0 time=108
note_on channel=0 note=85 velocity=62 time=0
note_on channel=0 note=61 velocity=48 time=0
note_on channel=0 note=55 velocity=40 time=0
note_on channel=0 note=55 velocity=0 time=120
note_on channel=0 note=61 velocity=0 time=0
note_on channel=0 note=86 velocity=56 time=0
note_on channel=0 note=85 velocity=0 time=12
<meta message set_tempo tempo=425532 time=108>
note_on channel=0 note=85 velocity=65 time=0
note_on channel=0 note=61 velocity=48 time=0
note_on channel=0 note=54 velocity=40 time=0
note_on channel=0 note=86 velocity=0 time=12
note_on channel=0 note=54 velocity=0 time=108
note_on channel=0 note=61 velocity=0 time=0
note_on channel=0 note=82 velocity=60 time=0
note_on channel=0 note=85 velocity=0 time=12
<meta message set_tempo tempo=428571 time=108>
note_on channel=0 note=86 velocity=69 time=0
note_on channel=0 note=47 velocity=59 time=0
note_on channel=0 note=82 velocity=0 time=12
note_on channel=0 note=47 velocity=0 time=108
note_on channel=0 note=85 velocity=63 time=0
note_on channel=0 note=86 velocity=0 time=12
<meta message set_tempo tempo=419580 time=108>
note_on channel=0 note=86 velocity=69 time=0
note_on channel=0 note=59 velocity=53 time=0
note_on channel=0 note=54 velocity=45 time=0
note_on channel=0 note=85 velocity=0 time=12
note_on channel=0 note=54 velocity=0 time=108
note_on channel=0 note=59 velocity=0 time=0
note_on channel=0 note=85 velocity=64 time=0
note_on channel=0 note=86 velocity=0 time=12
note_on channel=0 note=86 velocity=68 time=108
note_on channel=0 note=59 velocity=56 time=0
note_on channel=0 note=54 velocity=47 time=0
note_on channel=0 note=85 velocity=0 time=12
note_on channel=0 note=54 velocity=0 time=108
note_on channel=0 note=59 velocity=0 time=0
note_on channel=0 note=85 velocity=66 time=0
note_on channel=0 note=86 velocity=0 time=12
<meta message set_tempo tempo=425532 time=108>
note_on channel=0 note=86 velocity=72 time=0
note_on channel=0 note=59 velocity=54 time=0
note_on channel=0 note=54 velocity=45 time=0
note_on channel=0 note=85 velocity=0 time=12
note_on channel=0 note=54 velocity=0 time=108
note_on channel=0 note=59 velocity=0 time=0
note_on channel=0 note=85 velocity=68 time=0
note_on channel=0 note=86 velocity=0 time=12
<meta message set_tempo tempo=425532 time=108>
note_on channel=0 note=86 velocity=70 time=0
note_on channel=0 note=47 velocity=65 time=0
note_on channel=0 note=85 velocity=0 time=12
note_on channel=0 note=47 velocity=0 time=108
note_on channel=0 note=85 velocity=69 time=0
note_on channel=0 note=86 velocity=0 time=12
<meta message set_tempo tempo=416667 time=108>
note_on channel=0 note=83 velocity=67 time=0
note_on channel=0 note=59 velocity=54 time=0
note_on channel=0 note=56 velocity=45 time=0
note_on channel=0 note=85 velocity=0 time=12
note_on channel=0 note=56 velocity=0 time=108
note_on channel=0 note=59 velocity=0 time=0
note_on channel=0 note=81 velocity=66 time=0
note_on channel=0 note=83 velocity=0 time=12
note_on channel=0 note=80 velocity=64 time=108
note_on channel=0 note=59 velocity=60 time=0
note_on channel=0 note=56 velocity=51 time=0
note_on channel=0 note=81 velocity=0 time=12
note_on channel=0 note=56 velocity=0 time=108
note_on channel=0 note=59 velocity=0 time=0
note_on channel=0 note=81 velocity=61 time=0
note_on channel=0 note=80 velocity=0 time=12
<meta message set_tempo tempo=428571 time=108>
note_on channel=0 note=83 velocity=64 time=0
note_on channel=0 note=59 velocity=54 time=0
note_on channel=0 note=56 velocity=45 time=0
note_on channel=0 note=81 velocity=0 time=12
note_on channel=0 note=56 velocity=0 time=108
note_on channel=0 note=59 velocity=0 time=0
note_on channel=0 note=80 velocity=61 time=0
note_on channel=0 note=83 velocity=0 time=12
<meta message set_tempo tempo=416667 time=108>
note_on channel=0 note=81 velocity=57 time=0
note_on channel=0 note=49 velocity=58 time=0
note_on channel=0 note=80 velocity=0 time=12
note_on channel=0 note=49 velocity=0 time=108
note_on channel=0 note=83 velocity=49 time=0
note_on channel=0 note=81 velocity=0 time=12
<meta message set_tempo tempo=419580 time=108>
note_on channel=0 note=85 velocity=55 time=0
note_on channel=0 note=57 velocity=47 time=0
note_on channel=0 note=54 velocity=39 time=0
note_on channel=0 note=83 velocity=0 time=12
note_on channel=0 note=54 velocity=0 time=108
note_on channel=0 note=57 velocity=0 time=0
note_on channel=0 note=78 velocity=50 time=0
note_on channel=0 note=85 velocity=0 time=12
<meta message set_tempo tempo=419580 time=86>
note_on channel=0 note=77 velocity=53 time=22
note_on channel=0 note=49 velocity=55 time=0
note_on channel=0 note=78 velocity=0 time=12
<meta message set_tempo tempo=422535 time=6>
<meta message set_tempo tempo=425532 time=40>
<meta message set_tempo tempo=428571 time=40>
<meta message set_tempo tempo=425532 time=12>
note_on channel=0 note=49 velocity=0 time=10
note_on channel=0 note=78 velocity=47 time=0
note_on channel=0 note=77 velocity=0 time=12
<meta message set_tempo tempo=428571 time=38>
<meta message set_tempo tempo=431655 time=60>
note_on channel=0 note=80 velocity=54 time=10
note_on channel=0 note=56 velocity=41 time=0
note_on channel=0 note=59 velocity=49 time=0
note_on channel=0 note=78 velocity=0 time=12
<meta message set_tempo tempo=434783 time=38>
<meta message set_tempo tempo=512821 time=70>
note_on channel=0 note=59 velocity=0 time=0
note_on channel=0 note=56 velocity=0 time=0
note_on channel=0 note=77 velocity=47 time=0
note_on channel=0 note=80 velocity=0 time=12
<meta message set_tempo tempo=495868 time=108>
note_on channel=0 note=78 velocity=54 time=0
note_on channel=0 note=57 velocity=46 time=0
note_on channel=0 note=54 velocity=39 time=0
note_on channel=0 note=77 velocity=0 time=12
note_on channel=0 note=78 velocity=0 time=438
note_on channel=0 note=57 velocity=0 time=0
note_on channel=0 note=54 velocity=0 time=0
<meta message set_tempo tempo=428571 time=30>
note_on channel=0 note=69 velocity=73 time=0
note_on channel=0 note=81 velocity=84 time=0
note_on channel=0 note=81 velocity=0 time=120
note_on channel=0 note=69 velocity=0 time=0
<meta message set_tempo tempo=431655 time=120>
note_on channel=0 note=71 velocity=73 time=0
note_on channel=0 note=83 velocity=84 time=0
note_on channel=0 note=83 velocity=0 time=120
note_on channel=0 note=71 velocity=0 time=0
note_on channel=0 note=45 velocity=64 time=0
control_change channel=0 control=64 value=127 time=39
note_on channel=0 note=45 velocity=0 time=1
note_on channel=0 note=49 velocity=64 time=0
note_on channel=0 note=49 velocity=0 time=40
note_on channel=0 note=52 velocity=64 time=0
<meta message set_tempo tempo=408163 time=40>
note_on channel=0 note=52 velocity=0 time=0
note_on channel=0 note=73 velocity=78 time=0
note_on channel=0 note=85 velocity=90 time=0
note_on channel=0 note=57 velocity=73 time=0
note_on channel=0 note=57 velocity=0 time=120
<meta message set_tempo tempo=422535 time=120>
note_on channel=0 note=57 velocity=69 time=0
control_change channel=0 control=64 value=0 time=10
note_on channel=0 note=57 velocity=0 time=110
<meta message set_tempo tempo=413793 time=120>
note_on channel=0 note=85 velocity=0 time=0
note_on channel=0 note=73 velocity=0 time=0
note_on channel=0 note=69 velocity=73 time=0
note_on channel=0 note=81 velocity=84 time=0
note_on channel=0 note=57 velocity=69 time=0
note_on channel=0 note=57 velocity=0 time=120
note_on channel=0 note=81 velocity=0 time=0
note_on channel=0 note=69 velocity=0 time=0
<meta message set_tempo tempo=422535 time=120>
note_on channel=0 note=71 velocity=73 time=0
note_on channel=0 note=83 velocity=84 time=0
note_on channel=0 note=57 velocity=69 time=0
note_on channel=0 note=57 velocity=0 time=120
note_on channel=0 note=83 velocity=0 time=0
note_on channel=0 note=71 velocity=0 time=0
note_on channel=0 note=45 velocity=60 time=0
control_change channel=0 control=64 value=127 time=18
note_on channel=0 note=45 velocity=0 time=22
note_on channel=0 note=49 velocity=60 time=0
note_on channel=0 note=49 velocity=0 time=40
note_on channel=0 note=52 velocity=60 time=0
<meta message set_tempo tempo=408163 time=40>
note_on channel=0 note=52 velocity=0 time=0
note_on channel=0 note=73 velocity=79 time=0
note_on channel=0 note=85 velocity=91 time=0
note_on channel=0 note=57 velocity=72 time=0
note_on channel=0 note=57 velocity=0 time=120
note_on channel=0 note=85 velocity=0 time=0
note_on channel=0 note=73 velocity=0 time=0
<meta message set_tempo tempo=410959 time=120>
note_on channel=0 note=71 velocity=72 time=0
note_on channel=0 note=83 velocity=82 time=0
note_on channel=0 note=57 velocity=64 time=0
control_change channel=0 control=64 value=0 time=10
note_on channel=0 note=57 velocity=0 time=110
note_on channel=0 note=83 velocity=0 time=0
note_on channel=0 note=71 velocity=0 time=0
<meta message set_tempo tempo=410959 time=120>
note_on channel=0 note=69 velocity=77 time=0
note_on channel=0 note=81 velocity=89 time=0
note_on channel=0 note=57 velocity=65 time=0
note_on channel=0 note=57 velocity=0 time=120
note_on channel=0 note=81 velocity=0 time=0
note_on channel=0 note=69 velocity=0 time=0
<meta message set_tempo tempo=447761 time=120>
note_on channel=0 note=68 velocity=73 time=0
note_on channel=0 note=80 velocity=84 time=0
note_on channel=0 note=57 velocity=67 time=0
note_on channel=0 note=57 velocity=0 time=120
note_on channel=0 note=80 velocity=0 time=0
note_on channel=0 note=68 velocity=0 time=0
note_on channel=0 note=38 velocity=63 time=0
note_on channel=0 note=38 velocity=0 time=40
note_on channel=0 note=42 velocity=63 time=0
note_on channel=0 note=42 velocity=0 time=40
note_on channel=0 note=45 velocity=63 time=0
<meta message set_tempo tempo=410959 time=40>
note_on channel=0 note=45 velocity=0 time=0
note_on channel=0 note=66 velocity=80 time=0
note_on channel=0 note=78 velocity=92 time=0
note_on channel=0 note=50 velocity=73 time=0
control_change channel=0 control=64 value=127 time=0
note_on channel=0 note=50 velocity=0 time=120
note_on channel=0 note=78 velocity=0 time=0
note_on channel=0 note=66 velocity=0 time=0
<meta message set_tempo tempo=419580 time=120>
note_on channel=0 note=68 velocity=69 time=0
note_on channel=0 note=80 velocity=78 time=0
note_on channel=0 note=50 velocity=69 time=0
control_change channel=0 control=64 value=0 time=14
note_on channel=0 note=50 velocity=0 time=106
note_on channel=0 note=80 velocity=0 time=0
note_on channel=0 note=68 velocity=0 time=0
note_on channel=0 note=39 velocity=63 time=0
note_on channel=0 note=39 velocity=0 time=40
note_on channel=0 note=42 velocity=63 time=0
note_on channel=0 note=42 velocity=0 time=40
note_on channel=0 note=45 velocity=63 time=0
<meta message set_tempo tempo=425532 time=40>
note_on channel=0 note=45 velocity=0 time=0
note_on channel=0 note=69 velocity=75 time=0
note_on channel=0 note=81 velocity=86 time=0
note_on channel=0 note=51 velocity=73 time=0
control_change channel=0 control=64 value=127 time=37
note_on channel=0 note=51 velocity=0 time=83
note_on channel=0 note=81 velocity=0 time=0
note_on channel=0 note=69 velocity=0 time=0
<meta message set_tempo tempo=447761 time=120>
note_on channel=0 note=71 velocity=70 time=0
note_on channel=0 note=83 velocity=80 time=0
note_on channel=0 note=51 velocity=71 time=0
control_change channel=0 control=64 value=0 time=12
note_on channel=0 note=51 velocity=0 time=108
note_on channel=0 note=83 velocity=0 time=0
note_on channel=0 note=71 velocity=0 time=0
note_on channel=0 note=40 velocity=63 time=0
note_on channel=0 note=40 velocity=0 time=40
note_on channel=0 note=44 velocity=63 time=0
note_on channel=0 note=44 velocity=0 time=40
note_on channel=0 note=47 velocity=63 time=0
<meta message set_tempo tempo=425532 time=40>
note_on channel=0 note=47 velocity=0 time=0
note_on channel=0 note=68 velocity=78 time=0
note_on channel=0 note=80 velocity=90 time=0
note_on channel=0 note=52 velocity=73 time=0
control_change channel=0 control=64 value=127 time=0
<meta message set_tempo tempo=454545 time=240>
note_on channel=0 note=52 velocity=0 time=0
note_on channel=0 note=80 velocity=0 time=0
note_on channel=0 note=68 velocity=0 time=0
note_on channel=0 note=64 velocity=73 time=0
note_on channel=0 note=76 velocity=84 time=0
note_on channel=0 note=52 velocity=73 time=0
control_change channel=0 control=64 value=0 time=106
note_on channel=0 note=52 velocity=0 time=14
note_on channel=0 note=76 velocity=0 time=0
note_on channel=0 note=64 velocity=0 time=0
<meta message set_tempo tempo=425532 time=120>
note_on channel=0 note=69 velocity=73 time=0
note_on channel=0 note=81 velocity=84 time=0
note_on channel=0 note=81 velocity=0 time=120
note_on channel=0 note=69 velocity=0 time=0
<meta message set_tempo tempo=419580 time=120>
note_on channel=0 note=71 velocity=73 time=0
note_on channel=0 note=83 velocity=84 time=0
note_on channel=0 note=83 velocity=0 time=120
note_on channel=0 note=71 velocity=0 time=0
note_on channel=0 note=45 velocity=64 time=0
note_on channel=0 note=45 velocity=0 time=40
note_on channel=0 note=49 velocity=64 time=0
control_change channel=0 control=64 value=127 time=3
note_on channel=0 note=49 velocity=0 time=37
note_on channel=0 note=52 velocity=64 time=0
<meta message set_tempo tempo=408163 time=40>
note_on channel=0 note=52 velocity=0 time=0
note_on channel=0 note=73 velocity=78 time=0
note_on channel=0 note=85 velocity=90 time=0
note_on channel=0 note=57 velocity=73 time=0
note_on channel=0 note=57 velocity=0 time=120
<meta message set_tempo tempo=419580 time=120>
note_on channel=0 note=57 velocity=69 time=0
control_change channel=0 control=64 value=0 time=10
note_on channel=0 note=57 velocity=0 time=110
<meta message set_tempo tempo=408163 time=120>
note_on channel=0 note=85 velocity=0 time=0
note_on channel=0 note=73 velocity=0 time=0
note_on channel=0 note=69 velocity=73 time=0
note_on channel=0 note=81 velocity=84 time=0
note_on channel=0 note=57 velocity=69 time=0
note_on channel=0 note=57 velocity=0 time=120
note_on channel=0 note=81 velocity=0 time=0
note_on channel=0 note=69 velocity=0 time=0
<meta message set_tempo tempo=422535 time=120>
note_on channel=0 note=71 velocity=73 time=0
note_on channel=0 note=83 velocity=84 time=0
note_on channel=0 note=57 velocity=69 time=0
note_on channel=0 note=57 velocity=0 time=120
note_on channel=0 note=83 velocity=0 time=0
note_on channel=0 note=71 velocity=0 time=0
note_on channel=0 note=45 velocity=60 time=0
control_change channel=0 control=64 value=127 time=14
note_on channel=0 note=45 velocity=0 time=26
note_on channel=0 note=49 velocity=60 time=0
note_on channel=0 note=49 velocity=0 time=40
note_on channel=0 note=52 velocity=60 time=0
<meta message set_tempo tempo=410959 time=40>
note_on channel=0 note=52 velocity=0 time=0
note_on channel=0 note=73 velocity=79 time=0
note_on channel=0 note=85 velocity=91 time=0
note_on channel=0 note=57 velocity=72 time=0
note_on channel=0 note=57 velocity=0 time=120
note_on channel=0 note=85 velocity=0 time=0
note_on channel=0 note=73 velocity=0 time=0
<meta message set_tempo tempo=413793 time=120>
note_on channel=0 note=71 velocity=72 time=0
note_on channel=0 note=83 velocity=82 time=0
note_on channel=0 note=57 velocity=64 time=0
control_change channel=0 control=64 value=0 time=10
note_on channel=0 note=57 velocity=0 time=110
note_on channel=0 note=83 velocity=0 time=0
note_on channel=0 note=71 velocity=0 time=0
<meta message set_tempo tempo=416667 time=120>
note_on channel=0 note=69 velocity=77 time=0
note_on channel=0 note=81 velocity=89 time=0
note_on channel=0 note=57 velocity=65 time=0
note_on channel=0 note=57 velocity=0 time=120
note_on channel=0 note=81 velocity=0 time=0
note_on channel=0 note=69 velocity=0 time=0
<meta message set_tempo tempo=434783 time=120>
note_on channel=0 note=68 velocity=73 time=0
note_on channel=0 note=80 velocity=84 time=0
note_on channel=0 note=57 velocity=67 time=0
note_on channel=0 note=57 velocity=0 time=120
note_on channel=0 note=80 velocity=0 time=0
note_on channel=0 note=68 velocity=0 time=0
note_on channel=0 note=38 velocity=63 time=0
control_change channel=0 control=64 value=127 time=32
note_on channel=0 note=38 velocity=0 time=8
note_on channel=0 note=42 velocity=63 time=0
note_on channel=0 note=42 velocity=0 time=40
note_on channel=0 note=45 velocity=63 time=0
<meta message set_tempo tempo=413793 time=40>
note_on channel=0 note=45 velocity=0 time=0
note_on channel=0 note=66 velocity=80 time=0
note_on channel=0 note=78 velocity=92 time=0
note_on channel=0 note=50 velocity=73 time=0
note_on channel=0 note=50 velocity=0 time=120
note_on channel=0 note=78 velocity=0 time=0
note_on channel=0 note=66 velocity=0 time=0
<meta message set_tempo tempo=434783 time=120>
note_on channel=0 note=71 velocity=69 time=0
note_on channel=0 note=83 velocity=78 time=0
note_on channel=0 note=50 velocity=69 time=0
control_change channel=0 control=64 value=0 time=14
note_on channel=0 note=50 velocity=0 time=106
note_on channel=0 note=83 velocity=0 time=0
note_on channel=0 note=71 velocity=0 time=0
note_on channel=0 note=40 velocity=63 time=0
control_change channel=0 control=64 value=127 time=28
note_on channel=0 note=40 velocity=0 time=12
note_on channel=0 note=44 velocity=63 time=0
note_on channel=0 note=44 velocity=0 time=40
note_on channel=0 note=47 velocity=63 time=0
<meta message set_tempo tempo=451128 time=40>
note_on channel=0 note=47 velocity=0 time=0
note_on channel=0 note=68 velocity=75 time=0
note_on channel=0 note=80 velocity=86 time=0
note_on channel=0 note=52 velocity=73 time=0
note_on channel=0 note=52 velocity=0 time=120
note_on channel=0 note=80 velocity=0 time=0
note_on channel=0 note=68 velocity=0 time=0
<meta message set_tempo tempo=465116 time=120>
note_on channel=0 note=64 velocity=70 time=0
note_on channel=0 note=76 velocity=80 time=0
note_on channel=0 note=52 velocity=71 time=0
control_change channel=0 control=64 value=0 time=12
note_on channel=0 note=52 velocity=0 time=108
note_on channel=0 note=76 velocity=0 time=0
note_on channel=0 note=64 velocity=0 time=0
<meta message set_tempo tempo=451128 time=120>
note_on channel=0 note=69 velocity=78 time=0
note_on channel=0 note=81 velocity=90 time=0
note_on channel=0 note=45 velocity=73 time=0
control_change channel=0 control=64 value=127 time=0
control_change channel=0 control=64 value=0 time=346
note_on channel=0 note=45 velocity=0 time=104
note_on channel=0 note=81 velocity=0 time=0
note_on channel=0 note=69 velocity=0 time=0
<meta message set_tempo tempo=419580 time=30>
note_on channel=0 note=69 velocity=73 time=0
note_on channel=0 note=81 velocity=84 time=0
note_on channel=0 note=81 velocity=0 time=120
note_on channel=0 note=69 velocity=0 time=0
<meta message set_tempo tempo=431655 time=120>
note_on channel=0 note=71 velocity=73 time=0
note_on channel=0 note=83 velocity=84 time=0
note_on channel=0 note=83 velocity=0 time=120
note_on channel=0 note=71 velocity=0 time=0
note_on channel=0 note=45 velocity=64 time=0
control_change channel=0 control=64 value=127 time=36
note_on channel=0 note=45 velocity=0 time=4
note_on channel=0 note=49 velocity=64 time=0
note_on channel=0 note=49 velocity=0 time=40
note_on channel=0 note=52 velocity=64 time=0
<meta message set_tempo tempo=408163 time=40>
note_on channel=0 note=52 velocity=0 time=0
note_on channel=0 note=73 velocity=78 time=0
note_on channel=0 note=85 velocity=90 time=0
note_on channel=0 note=57 velocity=73 time=0
note_on channel=0 note=57 velocity=0 time=120
<meta message set_tempo tempo=422535 time=120>
note_on channel=0 note=57 velocity=69 time=0
control_change channel=0 control=64 value=0 time=10
note_on channel=0 note=57 velocity=0 time=110
<meta message set_tempo tempo=413793 time=120>
note_on channel=0 note=85 velocity=0 time=0
note_on channel=0 note=73 velocity=0 time=0
note_on channel=0 note=69 velocity=73 time=0
note_on channel=0 note=81 velocity=84 time=0
note_on channel=0 note=57 velocity=69 time=0
note_on channel=0 note=57 velocity=0 time=120
note_on channel=0 note=81 velocity=0 time=0
note_on channel=0 note=69 velocity=0 time=0
<meta message set_tempo tempo=425532 time=120>
note_on channel=0 note=71 velocity=73 time=0
note_on channel=0 note=83 velocity=84 time=0
note_on channel=0 note=57 velocity=69 time=0
note_on channel=0 note=57 velocity=0 time=120
note_on channel=0 note=83 velocity=0 time=0
note_on channel=0 note=71 velocity=0 time=0
note_on channel=0 note=45 velocity=60 time=0
control_change channel=0 control=64 value=127 time=14
note_on channel=0 note=45 velocity=0 time=26
note_on channel=0 note=49 velocity=60 time=0
note_on channel=0 note=49 velocity=0 time=40
note_on channel=0 note=52 velocity=60 time=0
<meta message set_tempo tempo=408163 time=40>
note_on channel=0 note=52 velocity=0 time=0
note_on channel=0 note=73 velocity=79 time=0
note_on channel=0 note=85 velocity=91 time=0
note_on channel=0 note=57 velocity=72 time=0
note_on channel=0 note=57 velocity=0 time=120
note_on channel=0 note=85 velocity=0 time=0
note_on channel=0 note=73 velocity=0 time=0
<meta message set_tempo tempo=419580 time=120>
note_on channel=0 note=71 velocity=72 time=0
note_on channel=0 note=83 velocity=82 time=0
note_on channel=0 note=57 velocity=64 time=0
control_change channel=0 control=64 value=0 time=10
note_on channel=0 note=57 velocity=0 time=110
note_on channel=0 note=83 velocity=0 time=0
note_on channel=0 note=71 velocity=0 time=0
<meta message set_tempo tempo=410959 time=120>
note_on channel=0 note=69 velocity=77 time=0
note_on channel=0 note=81 velocity=89 time=0
note_on channel=0 note=57 velocity=65 time=0
note_on channel=0 note=57 velocity=0 time=120
note_on channel=0 note=81 velocity=0 time=0
note_on channel=0 note=69 velocity=0 time=0
<meta message set_tempo tempo=428571 time=120>
note_on channel=0 note=68 velocity=73 time=0
note_on channel=0 note=80 velocity=84 time=0
note_on channel=0 note=57 velocity=67 time=0
note_on channel=0 note=57 velocity=0 time=120
note_on channel=0 note=80 velocity=0 time=0
note_on channel=0 note=68 velocity=0 time=0
note_on channel=0 note=38 velocity=63 time=0
control_change channel=0 control=64 value=127 time=32
note_on channel=0 note=38 velocity=0 time=8
note_on channel=0 note=42 velocity=63 time=0
note_on channel=0 note=42 velocity=0 time=40
note_on channel=0 note=45 velocity=63 time=0
<meta message set_tempo tempo=410959 time=40>
note_on channel=0 note=45 velocity=0 time=0
note_on channel=0 note=66 velocity=80 time=0
note_on channel=0 note=78 velocity=92 time=0
note_on channel=0 note=50 velocity=73 time=0
note_on channel=0 note=50 velocity=0 time=120
note_on channel=0 note=78 velocity=0 time=0
note_on channel=0 note=66 velocity=0 time=0
<meta message set_tempo tempo=431655 time=120>
note_on channel=0 note=68 velocity=69 time=0
note_on channel=0 note=80 velocity=78 time=0
note_on channel=0 note=50 velocity=69 time=0
control_change channel=0 control=64 value=0 time=14
note_on channel=0 note=50 velocity=0 time=106
note_on channel=0 note=80 velocity=0 time=0
note_on channel=0 note=68 velocity=0 time=0
note_on channel=0 note=39 velocity=63 time=0
note_on channel=0 note=39 velocity=0 time=40
note_on channel=0 note=42 velocity=63 time=0
note_on channel=0 note=42 velocity=0 time=40
note_on channel=0 note=45 velocity=63 time=0
note_on channel=0 note=45 velocity=0 time=40
note_on channel=0 note=69 velocity=75 time=0
note_on channel=0 note=81 velocity=86 time=0
note_on channel=0 note=51 velocity=73 time=0
control_change channel=0 control=64 value=127 time=37
note_on channel=0 note=51 velocity=0 time=83
note_on channel=0 note=81 velocity=0 time=0
note_on channel=0 note=69 velocity=0 time=0
<meta message set_tempo tempo=447761 time=120>
note_on channel=0 note=71 velocity=70 time=0
note_on channel=0 note=83 velocity=80 time=0
note_on channel=0 note=51 velocity=71 time=0
control_change channel=0 control=64 value=0 time=12
note_on channel=0 note=51 velocity=0 time=108
note_on channel=0 note=83 velocity=0 time=0
note_on channel=0 note=71 velocity=0 time=0
note_on channel=0 note=40 velocity=63 time=0
note_on channel=0 note=40 velocity=0 time=40
note_on channel=0 note=44 velocity=63 time=0
note_on channel=0 note=44 velocity=0 time=40
note_on channel=0 note=47 velocity=63 time=0
<meta message set_tempo tempo=425532 time=40>
note_on channel=0 note=47 velocity=0 time=0
note_on channel=0 note=68 velocity=78 time=0
note_on channel=0 note=80 velocity=90 time=0
note_on channel=0 note=52 velocity=73 time=0
control_change channel=0 control=64 value=127 time=0
<meta message set_tempo tempo=454545 time=240>
note_on channel=0 note=52 velocity=0 time=0
note_on channel=0 note=80 velocity=0 time=0
note_on channel=0 note=68 velocity=0 time=0
note_on channel=0 note=64 velocity=73 time=0
note_on channel=0 note=76 velocity=84 time=0
note_on channel=0 note=52 velocity=73 time=0
control_change channel=0 control=64 value=0 time=106
note_on channel=0 note=52 velocity=0 time=14
note_on channel=0 note=76 velocity=0 time=0
note_on channel=0 note=64 velocity=0 time=0
<meta message set_tempo tempo=416667 time=120>
note_on channel=0 note=69 velocity=73 time=0
note_on channel=0 note=81 velocity=84 time=0
note_on channel=0 note=81 velocity=0 time=120
note_on channel=0 note=69 velocity=0 time=0
<meta message set_tempo tempo=419580 time=120>
note_on channel=0 note=71 velocity=73 time=0
note_on channel=0 note=83 velocity=84 time=0
note_on channel=0 note=83 velocity=0 time=120
note_on channel=0 note=71 velocity=0 time=0
note_on channel=0 note=45 velocity=64 time=0
control_change channel=0 control=64 value=127 time=25
note_on channel=0 note=45 velocity=0 time=15
note_on channel=0 note=49 velocity=64 time=0
note_on channel=0 note=49 velocity=0 time=40
note_on channel=0 note=52 velocity=64 time=0
<meta message set_tempo tempo=408163 time=40>
note_on channel=0 note=52 velocity=0 time=0
note_on channel=0 note=73 velocity=78 time=0
note_on channel=0 note=85 velocity=90 time=0
note_on channel=0 note=57 velocity=73 time=0
note_on channel=0 note=57 velocity=0 time=120
<meta message set_tempo tempo=419580 time=120>
note_on channel=0 note=57 velocity=69 time=0
control_change channel=0 control=64 value=0 time=10
note_on channel=0 note=57 velocity=0 time=110
<meta message set_tempo tempo=408163 time=120>
note_on channel=0 note=85 velocity=0 time=0
note_on channel=0 note=73 velocity=0 time=0
note_on channel=0 note=69 velocity=73 time=0
note_on channel=0 note=81 velocity=84 time=0
note_on channel=0 note=57 velocity=69 time=0
note_on channel=0 note=57 velocity=0 time=120
note_on channel=0 note=81 velocity=0 time=0
note_on channel=0 note=69 velocity=0 time=0
<meta message set_tempo tempo=431655 time=120>
note_on channel=0 note=71 velocity=73 time=0
note_on channel=0 note=83 velocity=84 time=0
note_on channel=0 note=57 velocity=69 time=0
note_on channel=0 note=57 velocity=0 time=120
note_on channel=0 note=83 velocity=0 time=0
note_on channel=0 note=71 velocity=0 time=0
note_on channel=0 note=45 velocity=60 time=0
control_change channel=0 control=64 value=127 time=21
note_on channel=0 note=45 velocity=0 time=19
note_on channel=0 note=49 velocity=60 time=0
note_on channel=0 note=49 velocity=0 time=40
note_on channel=0 note=52 velocity=60 time=0
<meta message set_tempo tempo=410959 time=40>
note_on channel=0 note=52 velocity=0 time=0
note_on channel=0 note=73 velocity=79 time=0
note_on channel=0 note=85 velocity=91 time=0
note_on channel=0 note=57 velocity=72 time=0
note_on channel=0 note=57 velocity=0 time=120
note_on channel=0 note=85 velocity=0 time=0
note_on channel=0 note=73 velocity=0 time=0
<meta message set_tempo tempo=413793 time=120>
note_on channel=0 note=71 velocity=72 time=0
note_on channel=0 note=83 velocity=82 time=0
note_on channel=0 note=57 velocity=64 time=0
control_change channel=0 control=64 value=0 time=10
note_on channel=0 note=57 velocity=0 time=110
note_on channel=0 note=83 velocity=0 time=0
note_on channel=0 note=71 velocity=0 time=0
<meta message set_tempo tempo=416667 time=120>
note_on channel=0 note=69 velocity=77 time=0
note_on channel=0 note=81 velocity=89 time=0
note_on channel=0 note=57 velocity=65 time=0
note_on channel=0 note=57 velocity=0 time=120
note_on channel=0 note=81 velocity=0 time=0
note_on channel=0 note=69 velocity=0 time=0
<meta message set_tempo tempo=434783 time=120>
note_on channel=0 note=68 velocity=73 time=0
note_on channel=0 note=80 velocity=84 time=0
note_on channel=0 note=57 velocity=67 time=0
note_on channel=0 note=57 velocity=0 time=120
note_on channel=0 note=80 velocity=0 time=0
note_on channel=0 note=68 velocity=0 time=0
note_on channel=0 note=38 velocity=63 time=0
note_on channel=0 note=38 velocity=0 time=40
note_on channel=0 note=42 velocity=63 time=0
control_change channel=0 control=64 value=127 time=3
note_on channel=0 note=42 velocity=0 time=37
note_on channel=0 note=45 velocity=63 time=0
<meta message set_tempo tempo=413793 time=40>
note_on channel=0 note=45 velocity=0 time=0
note_on channel=0 note=66 velocity=80 time=0
note_on channel=0 note=78 velocity=92 time=0
note_on channel=0 note=50 velocity=73 time=0
note_on channel=0 note=50 velocity=0 time=120
note_on channel=0 note=78 velocity=0 time=0
note_on channel=0 note=66 velocity=0 time=0
<meta message set_tempo tempo=454545 time=120>
note_on channel=0 note=71 velocity=69 time=0
note_on channel=0 note=83 velocity=78 time=0
note_on channel=0 note=50 velocity=69 time=0
control_change channel=0 control=64 value=0 time=14
note_on channel=0 note=50 velocity=0 time=106
note_on channel=0 note=83 velocity=0 time=0
note_on channel=0 note=71 velocity=0 time=0
note_on channel=0 note=40 velocity=63 time=0
control_change channel=0 control=64 value=127 time=21
note_on channel=0 note=40 velocity=0 time=19
note_on channel=0 note=44 velocity=63 time=0
note_on channel=0 note=44 velocity=0 time=40
note_on channel=0 note=47 velocity=63 time=0
<meta message set_tempo tempo=451128 time=40>
note_on channel=0 note=47 velocity=0 time=0
note_on channel=0 note=68 velocity=75 time=0
note_on channel=0 note=80 velocity=86 time=0
note_on channel=0 note=52 velocity=73 time=0
note_on channel=0 note=52 velocity=0 time=120
note_on channel=0 note=80 velocity=0 time=0
note_on channel=0 note=68 velocity=0 time=0
<meta message set_tempo tempo=465116 time=120>
note_on channel=0 note=64 velocity=70 time=0
note_on channel=0 note=76 velocity=80 time=0
note_on channel=0 note=52 velocity=71 time=0
control_change channel=0 control=64 value=0 time=12
note_on channel=0 note=52 velocity=0 time=108
note_on channel=0 note=76 velocity=0 time=0
note_on channel=0 note=64 velocity=0 time=0
<meta message key_signature key='C' time=120>
<meta message set_tempo tempo=594059 time=0>
note_on channel=0 note=69 velocity=78 time=0
note_on channel=0 note=81 velocity=90 time=0
note_on channel=0 note=45 velocity=73 time=0
control_change channel=0 control=64 value=127 time=0
control_change channel=0 control=64 value=0 time=346
note_on channel=0 note=45 velocity=0 time=104
note_on channel=0 note=81 velocity=0 time=0
note_on channel=0 note=69 velocity=0 time=0
<meta message set_tempo tempo=397351 time=30>
note_on channel=0 note=71 velocity=66 time=0
note_on channel=0 note=71 velocity=0 time=120
note_on channel=0 note=69 velocity=64 time=0
note_on channel=0 note=69 velocity=0 time=120
note_on channel=0 note=68 velocity=64 time=0
<meta message set_tempo tempo=451128 time=120>
note_on channel=0 note=68 velocity=0 time=0
note_on channel=0 note=69 velocity=64 time=0
<meta message set_tempo tempo=397351 time=120>
note_on channel=0 note=69 velocity=0 time=0
note_on channel=0 note=72 velocity=71 time=0
note_on channel=0 note=57 velocity=57 time=0
control_change channel=0 control=64 value=127 time=85
note_on channel=0 note=57 velocity=0 time=35
note_on channel=0 note=72 velocity=0 time=0
note_on channel=0 note=64 velocity=52 time=120
note_on channel=0 note=60 velocity=43 time=0
control_change channel=0 control=64 value=0 time=10
<meta message set_tempo tempo=451128 time=110>
note_on channel=0 note=60 velocity=0 time=0
note_on channel=0 note=64 velocity=0 time=0
<meta message set_tempo tempo=400000 time=120>
note_on channel=0 note=74 velocity=66 time=0
note_on channel=0 note=60 velocity=43 time=0
note_on channel=0 note=64 velocity=52 time=0
control_change channel=0 control=64 value=127 time=99
note_on channel=0 note=64 velocity=0 time=21
note_on channel=0 note=60 velocity=0 time=0
note_on channel=0 note=74 velocity=0 time=0
note_on channel=0 note=72 velocity=63 time=0
note_on channel=0 note=72 velocity=0 time=120
note_on channel=0 note=71 velocity=63 time=0
note_on channel=0 note=60 velocity=42 time=0
note_on channel=0 note=64 velocity=51 time=0
<meta message set_tempo tempo=454545 time=120>
note_on channel=0 note=64 velocity=0 time=0
note_on channel=0 note=60 velocity=0 time=0
note_on channel=0 note=71 velocity=0 time=0
note_on channel=0 note=72 velocity=63 time=0
<meta message set_tempo tempo=397351 time=120>
note_on channel=0 note=72 velocity=0 time=0
note_on channel=0 note=76 velocity=72 time=0
note_on channel=0 note=57 velocity=57 time=0
control_change channel=0 control=64 value=0 time=0
control_change channel=0 control=64 value=127 time=75
note_on channel=0 note=57 velocity=0 time=45
note_on channel=0 note=76 velocity=0 time=0
note_on channel=0 note=64 velocity=52 time=120
note_on channel=0 note=60 velocity=43 time=0
control_change channel=0 control=64 value=0 time=10
<meta message set_tempo tempo=441176 time=110>
note_on channel=0 note=60 velocity=0 time=0
note_on channel=0 note=64 velocity=0 time=0
<meta message set_tempo tempo=397351 time=120>
note_on channel=0 note=77 velocity=66 time=0
note_on channel=0 note=64 velocity=52 time=0
note_on channel=0 note=60 velocity=43 time=0
control_change channel=0 control=64 value=127 time=69
note_on channel=0 note=60 velocity=0 time=51
note_on channel=0 note=64 velocity=0 time=0
note_on channel=0 note=77 velocity=0 time=0
note_on channel=0 note=76 velocity=63 time=0
note_on channel=0 note=76 velocity=0 time=120
note_on channel=0 note=75 velocity=63 time=0
note_on channel=0 note=64 velocity=52 time=0
note_on channel=0 note=60 velocity=43 time=0
<meta message set_tempo tempo=416667 time=120>
note_on channel=0 note=60 velocity=0 time=0
note_on channel=0 note=64 velocity=0 time=0
note_on channel=0 note=75 velocity=0 time=0
note_on channel=0 note=76 velocity=63 time=0
<meta message set_tempo tempo=397351 time=120>
note_on channel=0 note=76 velocity=0 time=0
note_on channel=0 note=83 velocity=70 time=0
note_on channel=0 note=57 velocity=57 time=0
control_change channel=0 control=64 value=0 time=0
control_change channel=0 control=64 value=127 time=92
note_on channel=0 note=57 velocity=0 time=28
note_on channel=0 note=83 velocity=0 time=0
note_on channel=0 note=81 velocity=64 time=0
note_on channel=0 note=81 velocity=0 time=120
note_on channel=0 note=80 velocity=64 time=0
note_on channel=0 note=64 velocity=50 time=0
note_on channel=0 note=60 velocity=42 time=0
note_on channel=0 note=60 velocity=0 time=120
note_on channel=0 note=64 velocity=0 time=0
note_on channel=0 note=80 velocity=0 time=0
note_on channel=0 note=81 velocity=64 time=0
<meta message set_tempo tempo=405405 time=120>
note_on channel=0 note=81 velocity=0 time=0
note_on channel=0 note=83 velocity=69 time=0
note_on channel=0 note=57 velocity=57 time=0
control_change channel=0 control=64 value=0 time=0
control_change channel=0 control=64 value=127 time=57
note_on channel=0 note=57 velocity=0 time=63
note_on channel=0 note=83 velocity=0 time=0
note_on channel=0 note=81 velocity=64 time=0
note_on channel=0 note=81 velocity=0 time=120
note_on channel=0 note=80 velocity=64 time=0
note_on channel=0 note=64 velocity=52 time=0
note_on channel=0 note=60 velocity=43 time=0
<meta message set_tempo tempo=458015 time=120>
note_on channel=0 note=60 velocity=0 time=0
note_on channel=0 note=64 velocity=0 time=0
note_on channel=0 note=80 velocity=0 time=0
note_on channel=0 note=81 velocity=64 time=0
<meta message set_tempo tempo=408163 time=120>
note_on channel=0 note=81 velocity=0 time=0
note_on channel=0 note=84 velocity=72 time=0
note_on channel=0 note=57 velocity=57 time=0
control_change channel=0 control=64 value=0 time=0
control_change channel=0 control=64 value=127 time=50
note_on channel=0 note=57 velocity=0 time=70
<meta message set_tempo tempo=425532 time=120>
note_on channel=0 note=64 velocity=50 time=0
note_on channel=0 note=60 velocity=42 time=0
control_change channel=0 control=64 value=0 time=10
<meta message set_tempo tempo=465116 time=110>
note_on channel=0 note=60 velocity=0 time=0
note_on channel=0 note=64 velocity=0 time=0
<meta message set_tempo tempo=397351 time=120>
note_on channel=0 note=84 velocity=0 time=0
note_on channel=0 note=81 velocity=68 time=0
note_on channel=0 note=64 velocity=50 time=0
note_on channel=0 note=60 velocity=42 time=0
note_on channel=0 note=60 velocity=0 time=120
note_on channel=0 note=64 velocity=0 time=0
note_on channel=0 note=81 velocity=0 time=0
<meta message set_tempo tempo=428571 time=120>
note_on channel=0 note=84 velocity=65 time=0
note_on channel=0 note=64 velocity=50 time=0
note_on channel=0 note=60 velocity=42 time=0
<meta message set_tempo tempo=582524 time=120>
note_on channel=0 note=60 velocity=0 time=0
note_on channel=0 note=64 velocity=0 time=0
note_on channel=0 note=84 velocity=0 time=0
<meta message set_tempo tempo=357143 time=60>
note_on channel=0 note=79 velocity=63 time=0
note_on channel=0 note=79 velocity=0 time=30
note_on channel=0 note=81 velocity=63 time=0
<meta message set_tempo tempo=405405 time=30>
note_on channel=0 note=81 velocity=0 time=0
note_on channel=0 note=83 velocity=80 time=0
note_on channel=0 note=52 velocity=65 time=0
note_on channel=0 note=52 velocity=0 time=120
note_on channel=0 note=83 velocity=0 time=0
note_on channel=0 note=78 velocity=54 time=120
note_on channel=0 note=81 velocity=64 time=0
note_on channel=0 note=64 velocity=53 time=0
note_on channel=0 note=59 velocity=44 time=0
note_on channel=0 note=59 velocity=0 time=120
note_on channel=0 note=78 velocity=0 time=0
note_on channel=0 note=81 velocity=0 time=0
note_on channel=0 note=64 velocity=0 time=0
<meta message set_tempo tempo=397351 time=120>
note_on channel=0 note=76 velocity=58 time=0
note_on channel=0 note=79 velocity=69 time=0
note_on channel=0 note=64 velocity=53 time=0
note_on channel=0 note=59 velocity=44 time=0
note_on channel=0 note=59 velocity=0 time=120
note_on channel=0 note=76 velocity=0 time=0
note_on channel=0 note=79 velocity=0 time=0
note_on channel=0 note=64 velocity=0 time=0
<meta message set_tempo tempo=428571 time=120>
note_on channel=0 note=78 velocity=54 time=0
note_on channel=0 note=81 velocity=64 time=0
note_on channel=0 note=64 velocity=53 time=0
note_on channel=0 note=59 velocity=44 time=0
<meta message set_tempo tempo=571429 time=120>
note_on channel=0 note=59 velocity=0 time=0
note_on channel=0 note=78 velocity=0 time=0
note_on channel=0 note=81 velocity=0 time=0
note_on channel=0 note=64 velocity=0 time=0
<meta message set_tempo tempo=359281 time=60>
note_on channel=0 note=79 velocity=65 time=0
note_on channel=0 note=79 velocity=0 time=30
note_on channel=0 note=81 velocity=65 time=0
<meta message set_tempo tempo=405405 time=30>
note_on channel=0 note=81 velocity=0 time=0
note_on channel=0 note=83 velocity=82 time=0
note_on channel=0 note=52 velocity=66 time=0
note_on channel=0 note=52 velocity=0 time=120
note_on channel=0 note=83 velocity=0 time=0
note_on channel=0 note=78 velocity=56 time=120
note_on channel=0 note=81 velocity=66 time=0
note_on channel=0 note=64 velocity=52 time=0
note_on channel=0 note=59 velocity=43 time=0
note_on channel=0 note=59 velocity=0 time=120
note_on channel=0 note=78 velocity=0 time=0
note_on channel=0 note=81 velocity=0 time=0
note_on channel=0 note=64 velocity=0 time=0
<meta message set_tempo tempo=397351 time=120>
note_on channel=0 note=76 velocity=58 time=0
note_on channel=0 note=79 velocity=69 time=0
note_on channel=0 note=64 velocity=52 time=0
note_on channel=0 note=59 velocity=43 time=0
note_on channel=0 note=59 velocity=0 time=120
note_on channel=0 note=76 velocity=0 time=0
note_on channel=0 note=79 velocity=0 time=0
note_on channel=0 note=64 velocity=0 time=0
<meta message set_tempo tempo=431655 time=120>
note_on channel=0 note=78 velocity=55 time=0
note_on channel=0 note=81 velocity=65 time=0
note_on channel=0 note=64 velocity=52 time=0
note_on channel=0 note=59 velocity=43 time=0
<meta message set_tempo tempo=550459 time=120>
note_on channel=0 note=59 velocity=0 time=0
note_on channel=0 note=78 velocity=0 time=0
note_on channel=0 note=81 velocity=0 time=0
note_on channel=0 note=64 velocity=0 time=0
<meta message set_tempo tempo=355030 time=60>
note_on channel=0 note=79 velocity=64 time=0
note_on channel=0 note=79 velocity=0 time=30
note_on channel=0 note=81 velocity=64 time=0
<meta message set_tempo tempo=402685 time=30>
note_on channel=0 note=83 velocity=79 time=0
note_on channel=0 note=52 velocity=67 time=0
note_on channel=0 note=81 velocity=0 time=30
note_on channel=0 note=52 velocity=0 time=90
note_on channel=0 note=83 velocity=0 time=0
note_on channel=0 note=78 velocity=57 time=120
note_on channel=0 note=81 velocity=68 time=0
note_on channel=0 note=64 velocity=52 time=0
note_on channel=0 note=59 velocity=43 time=0
note_on channel=0 note=59 velocity=0 time=120
note_on channel=0 note=78 velocity=0 time=0
note_on channel=0 note=81 velocity=0 time=0
note_on channel=0 note=64 velocity=0 time=0
<meta message set_tempo tempo=437956 time=120>
note_on channel=0 note=76 velocity=58 time=0
note_on channel=0 note=79 velocity=69 time=0
note_on channel=0 note=47 velocity=52 time=0
note_on channel=0 note=47 velocity=0 time=120
note_on channel=0 note=79 velocity=0 time=0
note_on channel=0 note=76 velocity=0 time=0
<meta message set_tempo tempo=465116 time=120>
note_on channel=0 note=75 velocity=56 time=0
note_on channel=0 note=78 velocity=66 time=0
note_on channel=0 note=59 velocity=52 time=0
note_on channel=0 note=59 velocity=0 time=120
note_on channel=0 note=78 velocity=0 time=0
note_on channel=0 note=75 velocity=0 time=0
<meta message set_tempo tempo=487805 time=120>
note_on channel=0 note=76 velocity=69 time=0
note_on channel=0 note=52 velocity=57 time=0
note_on channel=0 note=52 velocity=0 time=450
note_on channel=0 note=76 velocity=0 time=0
<meta message set_tempo tempo=397351 time=30>
note_on channel=0 note=71 velocity=66 time=0
note_on channel=0 note=71 velocity=0 time=120
note_on channel=0 note=69 velocity=64 time=0
note_on channel=0 note=69 velocity=0 time=120
note_on channel=0 note=68 velocity=64 time=0
<meta message set_tempo tempo=451128 time=120>
note_on channel=0 note=68 velocity=0 time=0
note_on channel=0 note=69 velocity=64 time=0
<meta message set_tempo tempo=397351 time=120>
note_on channel=0 note=69 velocity=0 time=0
note_on channel=0 note=72 velocity=71 time=0
note_on channel=0 note=57 velocity=57 time=0
control_change channel=0 control=64 value=127 time=85
note_on channel=0 note=57 velocity=0 time=35
note_on channel=0 note=72 velocity=0 time=0
note_on channel=0 note=64 velocity=52 time=120
note_on channel=0 note=60 velocity=43 time=0
control_change channel=0 control=64 value=0 time=10
<meta message set_tempo tempo=451128 time=110>
note_on channel=0 note=60 velocity=0 time=0
note_on channel=0 note=64 velocity=0 time=0
<meta message set_tempo tempo=400000 time=120>
note_on channel=0 note=74 velocity=66 time=0
note_on channel=0 note=60 velocity=43 time=0
note_on channel=0 note=64 velocity=52 time=0
control_change channel=0 control=64 value=127 time=99
note_on channel=0 note=64 velocity=0 time=21
note_on channel=0 note=60 velocity=0 time=0
note_on channel=0 note=74 velocity=0 time=0
note_on channel=0 note=72 velocity=63 time=0
note_on channel=0 note=72 velocity=0 time=120
note_on channel=0 note=71 velocity=63 time=0
note_on channel=0 note=60 velocity=42 time=0
note_on channel=0 note=64 velocity=51 time=0
<meta message set_tempo tempo=454545 time=120>
note_on channel=0 note=64 velocity=0 time=0
note_on channel=0 note=60 velocity=0 time=0
note_on channel=0 note=71 velocity=0 time=0
note_on channel=0 note=72 velocity=63 time=0
<meta message set_tempo tempo=397351 time=120>
note_on channel=0 note=72 velocity=0 time=0
note_on channel=0 note=76 velocity=72 time=0
note_on channel=0 note=57 velocity=57 time=0
control_change channel=0 control=64 value=0 time=0
control_change channel=0 control=64 value=127 time=75
note_on channel=0 note=57 velocity=0 time=45
note_on channel=0 note=76 velocity=0 time=0
note_on channel=0 note=64 velocity=52 time=120
note_on channel=0 note=60 velocity=43 time=0
control_change channel=0 control=64 value=0 time=10
<meta message set_tempo tempo=441176 time=110>
note_on channel=0 note=60 velocity=0 time=0
note_on channel=0 note=64 velocity=0 time=0
<meta message set_tempo tempo=397351 time=120>
note_on channel=0 note=77 velocity=66 time=0
note_on channel=0 note=64 velocity=52 time=0
note_on channel=0 note=60 velocity=43 time=0
control_change channel=0 control=64 value=127 time=69
note_on channel=0 note=60 velocity=0 time=51
note_on channel=0 note=64 velocity=0 time=0
note_on channel=0 note=77 velocity=0 time=0
note_on channel=0 note=76 velocity=63 time=0
note_on channel=0 note=76 velocity=0 time=120
note_on channel=0 note=75 velocity=63 time=0
note_on channel=0 note=64 velocity=52 time=0
note_on channel=0 note=60 velocity=43 time=0
<meta message set_tempo tempo=416667 time=120>
note_on channel=0 note=60 velocity=0 time=0
note_on channel=0 note=64 velocity=0 time=0
note_on channel=0 note=75 velocity=0 time=0
note_on channel=0 note=76 velocity=63 time=0
<meta message set_tempo tempo=397351 time=120>
note_on channel=0 note=76 velocity=0 time=0
note_on channel=0 note=83 velocity=70 time=0
note_on channel=0 note=57 velocity=57 time=0
control_change channel=0 control=64 value=0 time=0
control_change channel=0 control=64 value=127 time=92
note_on channel=0 note=57 velocity=0 time=28
note_on channel=0 note=83 velocity=0 time=0
note_on channel=0 note=81 velocity=64 time=0
note_on channel=0 note=81 velocity=0 time=120
note_on channel=0 note=80 velocity=64 time=0
note_on channel=0 note=64 velocity=50 time=0
note_on channel=0 note=60 velocity=42 time=0
note_on channel=0 note=60 velocity=0 time=120
note_on channel=0 note=64 velocity=0 time=0
note_on channel=0 note=80 velocity=0 time=0
note_on channel=0 note=81 velocity=64 time=0
<meta message set_tempo tempo=405405 time=120>
note_on channel=0 note=81 velocity=0 time=0
note_on channel=0 note=83 velocity=69 time=0
note_on channel=0 note=57 velocity=57 time=0
control_change channel=0 control=64 value=0 time=0
control_change channel=0 control=64 value=127 time=57
note_on channel=0 note=57 velocity=0 time=63
note_on channel=0 note=83 velocity=0 time=0
note_on channel=0 note=81 velocity=64 time=0
note_on channel=0 note=81 velocity=0 time=120
note_on channel=0 note=80 velocity=64 time=0
note_on channel=0 note=64 velocity=52 time=0
note_on channel=0 note=60 velocity=43 time=0
<meta message set_tempo tempo=458015 time=120>
note_on channel=0 note=60 velocity=0 time=0
note_on channel=0 note=64 velocity=0 time=0
note_on channel=0 note=80 velocity=0 time=0
note_on channel=0 note=81 velocity=64 time=0
<meta message set_tempo tempo=408163 time=120>
note_on channel=0 note=81 velocity=0 time=0
note_on channel=0 note=84 velocity=72 time=0
note_on channel=0 note=57 velocity=57 time=0
control_change channel=0 control=64 value=0 time=0
control_change channel=0 control=64 value=127 time=50
note_on channel=0 note=57 velocity=0 time=70
<meta message set_tempo tempo=425532 time=120>
note_on channel=0 note=64 velocity=50 time=0
note_on channel=0 note=60 velocity=42 time=0
control_change channel=0 control=64 value=0 time=10
<meta message set_tempo tempo=465116 time=110>
note_on channel=0 note=60 velocity=0 time=0
note_on channel=0 note=64 velocity=0 time=0
<meta message set_tempo tempo=397351 time=120>
note_on channel=0 note=84 velocity=0 time=0
note_on channel=0 note=81 velocity=68 time=0
note_on channel=0 note=64 velocity=50 time=0
note_on channel=0 note=60 velocity=42 time=0
note_on channel=0 note=60 velocity=0 time=120
note_on channel=0 note=64 velocity=0 time=0
note_on channel=0 note=81 velocity=0 time=0
<meta message set_tempo tempo=428571 time=120>
note_on channel=0 note=84 velocity=65 time=0
note_on channel=0 note=64 velocity=50 time=0
note_on channel=0 note=60 velocity=42 time=0
<meta message set_tempo tempo=582524 time=120>
note_on channel=0 note=60 velocity=0 time=0
note_on channel=0 note=64 velocity=0 time=0
note_on channel=0 note=84 velocity=0 time=0
<meta message set_tempo tempo=357143 time=60>
note_on channel=0 note=79 velocity=63 time=0
note_on channel=0 note=79 velocity=0 time=30
note_on channel=0 note=81 velocity=63 time=0
<meta message set_tempo tempo=405405 time=30>
note_on channel=0 note=81 velocity=0 time=0
note_on channel=0 note=83 velocity=80 time=0
note_on channel=0 note=52 velocity=65 time=0
note_on channel=0 note=52 velocity=0 time=120
note_on channel=0 note=83 velocity=0 time=0
note_on channel=0 note=78 velocity=54 time=120
note_on channel=0 note=81 velocity=64 time=0
note_on channel=0 note=64 velocity=53 time=0
note_on channel=0 note=59 velocity=44 time=0
note_on channel=0 note=59 velocity=0 time=120
note_on channel=0 note=78 velocity=0 time=0
note_on channel=0 note=81 velocity=0 time=0
note_on channel=0 note=64 velocity=0 time=0
<meta message set_tempo tempo=397351 time=120>
note_on channel=0 note=76 velocity=58 time=0
note_on channel=0 note=79 velocity=69 time=0
note_on channel=0 note=64 velocity=53 time=0
note_on channel=0 note=59 velocity=44 time=0
note_on channel=0 note=59 velocity=0 time=120
note_on channel=0 note=76 velocity=0 time=0
note_on channel=0 note=79 velocity=0 time=0
note_on channel=0 note=64 velocity=0 time=0
<meta message set_tempo tempo=428571 time=120>
note_on channel=0 note=78 velocity=54 time=0
note_on channel=0 note=81 velocity=64 time=0
note_on channel=0 note=64 velocity=53 time=0
note_on channel=0 note=59 velocity=44 time=0
<meta message set_tempo tempo=571429 time=120>
note_on channel=0 note=59 velocity=0 time=0
note_on channel=0 note=78 velocity=0 time=0
note_on channel=0 note=81 velocity=0 time=0
note_on channel=0 note=64 velocity=0 time=0
<meta message set_tempo tempo=359281 time=60>
note_on channel=0 note=79 velocity=65 time=0
note_on channel=0 note=79 velocity=0 time=30
note_on channel=0 note=81 velocity=65 time=0
<meta message set_tempo tempo=405405 time=30>
note_on channel=0 note=81 velocity=0 time=0
note_on channel=0 note=83 velocity=82 time=0
note_on channel=0 note=52 velocity=66 time=0
note_on channel=0 note=52 velocity=0 time=120
note_on channel=0 note=83 velocity=0 time=0
note_on channel=0 note=78 velocity=56 time=120
note_on channel=0 note=81 velocity=66 time=0
note_on channel=0 note=64 velocity=52 time=0
note_on channel=0 note=59 velocity=43 time=0
note_on channel=0 note=59 velocity=0 time=120
note_on channel=0 note=78 velocity=0 time=0
note_on channel=0 note=81 velocity=0 time=0
note_on channel=0 note=64 velocity=0 time=0
<meta message set_tempo tempo=397351 time=120>
note_on channel=0 note=76 velocity=58 time=0
note_on channel=0 note=79 velocity=69 time=0
note_on channel=0 note=64 velocity=52 time=0
note_on channel=0 note=59 velocity=43 time=0
note_on channel=0 note=59 velocity=0 time=120
note_on channel=0 note=76 velocity=0 time=0
note_on channel=0 note=79 velocity=0 time=0
note_on channel=0 note=64 velocity=0 time=0
<meta message set_tempo tempo=431655 time=120>
note_on channel=0 note=78 velocity=55 time=0
note_on channel=0 note=81 velocity=65 time=0
note_on channel=0 note=64 velocity=52 time=0
note_on channel=0 note=59 velocity=43 time=0
<meta message set_tempo tempo=550459 time=120>
note_on channel=0 note=59 velocity=0 time=0
note_on channel=0 note=78 velocity=0 time=0
note_on channel=0 note=81 velocity=0 time=0
note_on channel=0 note=64 velocity=0 time=0
<meta message set_tempo tempo=355030 time=60>
note_on channel=0 note=79 velocity=64 time=0
note_on channel=0 note=79 velocity=0 time=30
note_on channel=0 note=81 velocity=64 time=0
<meta message set_tempo tempo=400000 time=30>
note_on channel=0 note=83 velocity=79 time=0
note_on channel=0 note=52 velocity=67 time=0
note_on channel=0 note=81 velocity=0 time=30
note_on channel=0 note=52 velocity=0 time=90
note_on channel=0 note=83 velocity=0 time=0
note_on channel=0 note=78 velocity=57 time=120
note_on channel=0 note=81 velocity=68 time=0
note_on channel=0 note=64 velocity=52 time=0
note_on channel=0 note=59 velocity=43 time=0
note_on channel=0 note=59 velocity=0 time=120
note_on channel=0 note=78 velocity=0 time=0
note_on channel=0 note=81 velocity=0 time=0
note_on channel=0 note=64 velocity=0 time=0
<meta message set_tempo tempo=434783 time=120>
note_on channel=0 note=76 velocity=58 time=0
note_on channel=0 note=79 velocity=69 time=0
note_on channel=0 note=47 velocity=52 time=0
note_on channel=0 note=47 velocity=0 time=120
note_on channel=0 note=79 velocity=0 time=0
note_on channel=0 note=76 velocity=0 time=0
<meta message set_tempo tempo=491803 time=120>
note_on channel=0 note=75 velocity=56 time=0
note_on channel=0 note=78 velocity=66 time=0
note_on channel=0 note=59 velocity=52 time=0
note_on channel=0 note=59 velocity=0 time=120
note_on channel=0 note=78 velocity=0 time=0
note_on channel=0 note=75 velocity=0 time=0
<meta message set_tempo tempo=461538 time=120>
note_on channel=0 note=76 velocity=69 time=0
note_on channel=0 note=52 velocity=57 time=0
note_on channel=0 note=52 velocity=0 time=450
note_on channel=0 note=76 velocity=0 time=0
<meta message set_tempo tempo=434783 time=30>
note_on channel=0 note=72 velocity=56 time=0
note_on channel=0 note=76 velocity=56 time=0
note_on channel=0 note=76 velocity=0 time=120
note_on channel=0 note=72 velocity=0 time=0
<meta message set_tempo tempo=425532 time=120>
note_on channel=0 note=74 velocity=56 time=0
note_on channel=0 note=77 velocity=56 time=0
note_on channel=0 note=77 velocity=0 time=120
note_on channel=0 note=74 velocity=0 time=0
<meta message set_tempo tempo=416667 time=120>
note_on channel=0 note=76 velocity=66 time=0
note_on channel=0 note=79 velocity=66 time=0
note_on channel=0 note=48 velocity=59 time=0
note_on channel=0 note=48 velocity=0 time=120
note_on channel=0 note=79 velocity=0 time=0
note_on channel=0 note=76 velocity=0 time=0
note_on channel=0 note=76 velocity=57 time=120
note_on channel=0 note=79 velocity=57 time=0
note_on channel=0 note=60 velocity=53 time=0
note_on channel=0 note=60 velocity=0 time=120
note_on channel=0 note=79 velocity=0 time=0
note_on channel=0 note=76 velocity=0 time=0
<meta message set_tempo tempo=410959 time=120>
note_on channel=0 note=81 velocity=64 time=0
note_on channel=0 note=52 velocity=59 time=0
note_on channel=0 note=52 velocity=0 time=120
note_on channel=0 note=81 velocity=0 time=0
note_on channel=0 note=79 velocity=57 time=0
control_change channel=0 control=64 value=127 time=36
note_on channel=0 note=79 velocity=0 time=84
note_on channel=0 note=77 velocity=57 time=0
note_on channel=0 note=64 velocity=57 time=0
<meta message set_tempo tempo=451128 time=60>
note_on channel=0 note=64 velocity=0 time=60
note_on channel=0 note=77 velocity=0 time=0
note_on channel=0 note=76 velocity=57 time=0
<meta message set_tempo tempo=431655 time=120>
note_on channel=0 note=76 velocity=0 time=0
note_on channel=0 note=74 velocity=65 time=0
note_on channel=0 note=71 velocity=65 time=0
note_on channel=0 note=55 velocity=60 time=0
control_change channel=0 control=64 value=0 time=5
control_change channel=0 control=64 value=127 time=122
note_on channel=0 note=71 velocity=0 time=113
note_on channel=0 note=67 velocity=59 time=0
<meta message set_tempo tempo=491803 time=226>
<meta message set_tempo tempo=434783 time=14>
note_on channel=0 note=67 velocity=0 time=0
note_on channel=0 note=55 velocity=0 time=0
note_on channel=0 note=74 velocity=0 time=0
note_on channel=0 note=72 velocity=56 time=0
note_on channel=0 note=76 velocity=56 time=0
control_change channel=0 control=64 value=0 time=0
note_on channel=0 note=76 velocity=0 time=120
note_on channel=0 note=72 velocity=0 time=0
<meta message set_tempo tempo=425532 time=120>
note_on channel=0 note=74 velocity=56 time=0
note_on channel=0 note=77 velocity=56 time=0
note_on channel=0 note=77 velocity=0 time=120
note_on channel=0 note=74 velocity=0 time=0
<meta message set_tempo tempo=416667 time=120>
note_on channel=0 note=76 velocity=66 time=0
note_on channel=0 note=79 velocity=66 time=0
note_on channel=0 note=48 velocity=59 time=0
note_on channel=0 note=48 velocity=0 time=120
note_on channel=0 note=79 velocity=0 time=0
note_on channel=0 note=76 velocity=0 time=0
note_on channel=0 note=76 velocity=57 time=120
note_on channel=0 note=79 velocity=57 time=0
note_on channel=0 note=60 velocity=53 time=0
note_on channel=0 note=60 velocity=0 time=120
note_on channel=0 note=79 velocity=0 time=0
note_on channel=0 note=76 velocity=0 time=0
<meta message set_tempo tempo=410959 time=120>
note_on channel=0 note=81 velocity=64 time=0
note_on channel=0 note=52 velocity=59 time=0
note_on channel=0 note=52 velocity=0 time=120
note_on channel=0 note=81 velocity=0 time=0
note_on channel=0 note=79 velocity=57 time=0
control_change channel=0 control=64 value=127 time=36
note_on channel=0 note=79 velocity=0 time=84
note_on channel=0 note=77 velocity=57 time=0
note_on channel=0 note=64 velocity=57 time=0
<meta message set_tempo tempo=451128 time=60>
note_on channel=0 note=64 velocity=0 time=60
note_on channel=0 note=77 velocity=0 time=0
note_on channel=0 note=76 velocity=57 time=0
<meta message set_tempo tempo=431655 time=120>
note_on channel=0 note=76 velocity=0 time=0
note_on channel=0 note=74 velocity=65 time=0
note_on channel=0 note=71 velocity=65 time=0
note_on channel=0 note=55 velocity=60 time=0
control_change channel=0 control=64 value=0 time=5
control_change channel=0 control=64 value=127 time=122
<meta message set_tempo tempo=491803 time=339>
<meta message set_tempo tempo=454545 time=14>
note_on channel=0 note=55 velocity=0 time=0
note_on channel=0 note=71 velocity=0 time=0
note_on channel=0 note=74 velocity=0 time=0
note_on channel=0 note=69 velocity=56 time=0
note_on channel=0 note=72 velocity=56 time=0
control_change channel=0 control=64 value=0 time=0
note_on channel=0 note=72 velocity=0 time=120
note_on channel=0 note=69 velocity=0 time=0
<meta message set_tempo tempo=425532 time=120>
note_on channel=0 note=71 velocity=56 time=0
note_on channel=0 note=74 velocity=56 time=0
note_on channel=0 note=74 velocity=0 time=120
note_on channel=0 note=71 velocity=0 time=0
<meta message set_tempo tempo=416667 time=120>
note_on channel=0 note=72 velocity=66 time=0
note_on channel=0 note=76 velocity=66 time=0
note_on channel=0 note=45 velocity=59 time=0
note_on channel=0 note=45 velocity=0 time=120
note_on channel=0 note=76 velocity=0 time=0
note_on channel=0 note=72 velocity=0 time=0
note_on channel=0 note=72 velocity=57 time=120
note_on channel=0 note=76 velocity=57 time=0
note_on channel=0 note=57 velocity=53 time=0
note_on channel=0 note=57 velocity=0 time=120
note_on channel=0 note=76 velocity=0 time=0
note_on channel=0 note=72 velocity=0 time=0
<meta message set_tempo tempo=410959 time=120>
note_on channel=0 note=77 velocity=64 time=0
note_on channel=0 note=48 velocity=59 time=0
note_on channel=0 note=48 velocity=0 time=120
note_on channel=0 note=77 velocity=0 time=0
note_on channel=0 note=76 velocity=57 time=0
control_change channel=0 control=64 value=127 time=36
note_on channel=0 note=76 velocity=0 time=84
note_on channel=0 note=74 velocity=57 time=0
note_on channel=0 note=60 velocity=57 time=0
<meta message set_tempo tempo=451128 time=60>
note_on channel=0 note=60 velocity=0 time=60
note_on channel=0 note=74 velocity=0 time=0
note_on channel=0 note=72 velocity=57 time=0
<meta message set_tempo tempo=431655 time=120>
note_on channel=0 note=72 velocity=0 time=0
note_on channel=0 note=71 velocity=65 time=0
note_on channel=0 note=68 velocity=65 time=0
note_on channel=0 note=52 velocity=60 time=0
control_change channel=0 control=64 value=0 time=5
control_change channel=0 control=64 value=127 time=122
note_on channel=0 note=68 velocity=0 time=113
note_on channel=0 note=64 velocity=59 time=0
<meta message set_tempo tempo=434783 time=240>
note_on channel=0 note=64 velocity=0 time=0
note_on channel=0 note=52 velocity=0 time=0
note_on channel=0 note=71 velocity=0 time=0
note_on channel=0 note=69 velocity=56 time=0
note_on channel=0 note=72 velocity=56 time=0
control_change channel=0 control=64 value=0 time=0
note_on channel=0 note=72 velocity=0 time=120
note_on channel=0 note=69 velocity=0 time=0
<meta message set_tempo tempo=425532 time=120>
note_on channel=0 note=71 velocity=56 time=0
note_on channel=0 note=74 velocity=56 time=0
note_on channel=0 note=74 velocity=0 time=120
note_on channel=0 note=71 velocity=0 time=0
<meta message set_tempo tempo=416667 time=120>
note_on channel=0 note=72 velocity=66 time=0
note_on channel=0 note=76 velocity=66 time=0
note_on channel=0 note=45 velocity=59 time=0
note_on channel=0 note=45 velocity=0 time=120
note_on channel=0 note=76 velocity=0 time=0
note_on channel=0 note=72 velocity=0 time=0
note_on channel=0 note=72 velocity=57 time=120
note_on channel=0 note=76 velocity=57 time=0
note_on channel=0 note=57 velocity=53 time=0
note_on channel=0 note=57 velocity=0 time=120
note_on channel=0 note=76 velocity=0 time=0
note_on channel=0 note=72 velocity=0 time=0
<meta message set_tempo tempo=410959 time=120>
note_on channel=0 note=77 velocity=64 time=0
note_on channel=0 note=48 velocity=59 time=0
note_on channel=0 note=48 velocity=0 time=120
note_on channel=0 note=77 velocity=0 time=0
note_on channel=0 note=76 velocity=57 time=0
control_change channel=0 control=64 value=127 time=36
note_on channel=0 note=76 velocity=0 time=84
note_on channel=0 note=74 velocity=57 time=0
note_on channel=0 note=60 velocity=57 time=0
<meta message set_tempo tempo=451128 time=60>
note_on channel=0 note=60 velocity=0 time=60
note_on channel=0 note=74 velocity=0 time=0
note_on channel=0 note=72 velocity=57 time=0
<meta message set_tempo tempo=431655 time=120>
note_on channel=0 note=72 velocity=0 time=0
note_on channel=0 note=71 velocity=65 time=0
note_on channel=0 note=68 velocity=65 time=0
note_on channel=0 note=52 velocity=60 time=0
control_change channel=0 control=64 value=0 time=5
control_change channel=0 control=64 value=127 time=122
<meta message set_tempo tempo=397351 time=353>
note_on channel=0 note=52 velocity=0 time=0
note_on channel=0 note=68 velocity=0 time=0
note_on channel=0 note=71 velocity=0 time=0
note_on channel=0 note=71 velocity=56 time=0
control_change channel=0 control=64 value=0 time=0
note_on channel=0 note=71 velocity=0 time=120
note_on channel=0 note=69 velocity=56 time=0
note_on channel=0 note=69 velocity=0 time=120
note_on channel=0 note=68 velocity=56 time=0
<meta message set_tempo tempo=451128 time=120>
note_on channel=0 note=68 velocity=0 time=0
note_on channel=0 note=69 velocity=56 time=0
<meta message set_tempo tempo=397351 time=120>
note_on channel=0 note=69 velocity=0 time=0
note_on channel=0 note=72 velocity=59 time=0
note_on channel=0 note=57 velocity=53 time=0
control_change channel=0 control=64 value=127 time=85
note_on channel=0 note=57 velocity=0 time=35
note_on channel=0 note=72 velocity=0 time=0
note_on channel=0 note=64 velocity=47 time=120
note_on channel=0 note=60 velocity=47 time=0
control_change channel=0 control=64 value=0 time=10
<meta message set_tempo tempo=451128 time=110>
note_on channel=0 note=60 velocity=0 time=0
note_on channel=0 note=64 velocity=0 time=0
<meta message set_tempo tempo=400000 time=120>
note_on channel=0 note=74 velocity=62 time=0
note_on channel=0 note=60 velocity=47 time=0
note_on channel=0 note=64 velocity=47 time=0
control_change channel=0 control=64 value=127 time=99
note_on channel=0 note=64 velocity=0 time=21
note_on channel=0 note=60 velocity=0 time=0
note_on channel=0 note=74 velocity=0 time=0
note_on channel=0 note=72 velocity=57 time=0
note_on channel=0 note=72 velocity=0 time=120
note_on channel=0 note=71 velocity=57 time=0
note_on channel=0 note=60 velocity=47 time=0
note_on channel=0 note=64 velocity=47 time=0
<meta message set_tempo tempo=454545 time=120>
note_on channel=0 note=64 velocity=0 time=0
note_on channel=0 note=60 velocity=0 time=0
note_on channel=0 note=71 velocity=0 time=0
note_on channel=0 note=72 velocity=57 time=0
<meta message set_tempo tempo=397351 time=120>
note_on channel=0 note=72 velocity=0 time=0
note_on channel=0 note=76 velocity=66 time=0
note_on channel=0 note=57 velocity=54 time=0
control_change channel=0 control=64 value=0 time=0
control_change channel=0 control=64 value=127 time=75
note_on channel=0 note=57 velocity=0 time=45
note_on channel=0 note=76 velocity=0 time=0
note_on channel=0 note=64 velocity=48 time=120
note_on channel=0 note=60 velocity=48 time=0
control_change channel=0 control=64 value=0 time=10
<meta message set_tempo tempo=441176 time=110>
note_on channel=0 note=60 velocity=0 time=0
note_on channel=0 note=64 velocity=0 time=0
<meta message set_tempo tempo=397351 time=120>
note_on channel=0 note=77 velocity=63 time=0
note_on channel=0 note=64 velocity=48 time=0
note_on channel=0 note=60 velocity=48 time=0
control_change channel=0 control=64 value=127 time=69
note_on channel=0 note=60 velocity=0 time=51
note_on channel=0 note=64 velocity=0 time=0
note_on channel=0 note=77 velocity=0 time=0
note_on channel=0 note=76 velocity=58 time=0
note_on channel=0 note=76 velocity=0 time=120
note_on channel=0 note=75 velocity=58 time=0
note_on channel=0 note=64 velocity=48 time=0
note_on channel=0 note=60 velocity=48 time=0
<meta message set_tempo tempo=416667 time=120>
note_on channel=0 note=60 velocity=0 time=0
note_on channel=0 note=64 velocity=0 time=0
note_on channel=0 note=75 velocity=0 time=0
note_on channel=0 note=76 velocity=58 time=0
<meta message set_tempo tempo=400000 time=120>
note_on channel=0 note=76 velocity=0 time=0
note_on channel=0 note=83 velocity=70 time=0
note_on channel=0 note=57 velocity=56 time=0
control_change channel=0 control=64 value=0 time=0
control_change channel=0 control=64 value=127 time=92
note_on channel=0 note=57 velocity=0 time=28
note_on channel=0 note=83 velocity=0 time=0
note_on channel=0 note=81 velocity=63 time=0
note_on channel=0 note=81 velocity=0 time=120
note_on channel=0 note=80 velocity=63 time=0
note_on channel=0 note=64 velocity=49 time=0
note_on channel=0 note=60 velocity=49 time=0
note_on channel=0 note=60 velocity=0 time=120
note_on channel=0 note=64 velocity=0 time=0
note_on channel=0 note=80 velocity=0 time=0
note_on channel=0 note=81 velocity=63 time=0
<meta message set_tempo tempo=413793 time=120>
note_on channel=0 note=81 velocity=0 time=0
note_on channel=0 note=83 velocity=71 time=0
note_on channel=0 note=57 velocity=57 time=0
control_change channel=0 control=64 value=0 time=0
control_change channel=0 control=64 value=127 time=57
note_on channel=0 note=57 velocity=0 time=63
note_on channel=0 note=83 velocity=0 time=0
note_on channel=0 note=81 velocity=64 time=0
note_on channel=0 note=81 velocity=0 time=120
note_on channel=0 note=80 velocity=64 time=0
note_on channel=0 note=64 velocity=52 time=0
note_on channel=0 note=60 velocity=43 time=0
<meta message set_tempo tempo=512821 time=120>
note_on channel=0 note=60 velocity=0 time=0
note_on channel=0 note=64 velocity=0 time=0
note_on channel=0 note=80 velocity=0 time=0
note_on channel=0 note=81 velocity=64 time=0
<meta message set_tempo tempo=408163 time=120>
note_on channel=0 note=81 velocity=0 time=0
note_on channel=0 note=84 velocity=76 time=0
note_on channel=0 note=53 velocity=57 time=0
control_change channel=0 control=64 value=0 time=0
control_change channel=0 control=64 value=127 time=50
note_on channel=0 note=53 velocity=0 time=70
<meta message set_tempo tempo=425532 time=120>
note_on channel=0 note=63 velocity=51 time=0
note_on channel=0 note=57 velocity=51 time=0
control_change channel=0 control=64 value=0 time=10
<meta message set_tempo tempo=465116 time=110>
note_on channel=0 note=57 velocity=0 time=0
note_on channel=0 note=63 velocity=0 time=0
<meta message set_tempo tempo=410959 time=120>
note_on channel=0 note=84 velocity=0 time=0
note_on channel=0 note=81 velocity=62 time=0
note_on channel=0 note=63 velocity=43 time=0
note_on channel=0 note=57 velocity=43 time=0
note_on channel=0 note=57 velocity=0 time=120
note_on channel=0 note=63 velocity=0 time=0
note_on channel=0 note=81 velocity=0 time=0
<meta message set_tempo tempo=428571 time=120>
note_on channel=0 note=83 velocity=62 time=0
note_on channel=0 note=63 velocity=39 time=0
note_on channel=0 note=57 velocity=39 time=0
note_on channel=0 note=57 velocity=0 time=120
note_on channel=0 note=63 velocity=0 time=0
note_on channel=0 note=83 velocity=0 time=0
<meta message set_tempo tempo=405405 time=120>
note_on channel=0 note=84 velocity=70 time=0
note_on channel=0 note=52 velocity=46 time=0
note_on channel=0 note=52 velocity=0 time=120
note_on channel=0 note=84 velocity=0 time=0
note_on channel=0 note=83 velocity=62 time=120
note_on channel=0 note=64 velocity=42 time=0
note_on channel=0 note=57 velocity=42 time=0
note_on channel=0 note=57 velocity=0 time=120
note_on channel=0 note=64 velocity=0 time=0
note_on channel=0 note=83 velocity=0 time=0
<meta message set_tempo tempo=410959 time=120>
note_on channel=0 note=81 velocity=62 time=0
note_on channel=0 note=50 velocity=42 time=0
note_on channel=0 note=50 velocity=0 time=120
note_on channel=0 note=81 velocity=0 time=0
<meta message set_tempo tempo=428571 time=120>
note_on channel=0 note=80 velocity=62 time=0
note_on channel=0 note=59 velocity=42 time=0
note_on channel=0 note=53 velocity=42 time=0
note_on channel=0 note=53 velocity=0 time=120
note_on channel=0 note=59 velocity=0 time=0
note_on channel=0 note=80 velocity=0 time=0
<meta message set_tempo tempo=405405 time=120>
note_on channel=0 note=81 velocity=71 time=0
note_on channel=0 note=48 velocity=47 time=0
note_on channel=0 note=48 velocity=0 time=120
note_on channel=0 note=81 velocity=0 time=0
note_on channel=0 note=76 velocity=64 time=120
note_on channel=0 note=57 velocity=39 time=0
note_on channel=0 note=52 velocity=39 time=0
note_on channel=0 note=52 velocity=0 time=120
note_on channel=0 note=57 velocity=0 time=0
note_on channel=0 note=76 velocity=0 time=0
<meta message set_tempo tempo=413793 time=120>
note_on channel=0 note=50 velocity=41 time=0
note_on channel=0 note=77 velocity=64 time=4
note_on channel=0 note=50 velocity=0 time=116
note_on channel=0 note=77 velocity=0 time=4
<meta message set_tempo tempo=431655 time=116>
note_on channel=0 note=74 velocity=64 time=0
note_on channel=0 note=59 velocity=41 time=0
note_on channel=0 note=53 velocity=41 time=0
note_on channel=0 note=53 velocity=0 time=120
note_on channel=0 note=59 velocity=0 time=0
note_on channel=0 note=74 velocity=0 time=0
<meta message set_tempo tempo=410959 time=120>
note_on channel=0 note=72 velocity=74 time=0
note_on channel=0 note=52 velocity=48 time=0
note_on channel=0 note=57 velocity=48 time=0
control_change channel=0 control=64 value=127 time=80
note_on channel=0 note=57 velocity=0 time=40
note_on channel=0 note=52 velocity=0 time=0
note_on channel=0 note=57 velocity=41 time=120
note_on channel=0 note=52 velocity=41 time=0
note_on channel=0 note=52 velocity=0 time=120
note_on channel=0 note=57 velocity=0 time=0
note_on channel=0 note=52 velocity=41 time=115
<meta message set_tempo tempo=434783 time=5>
note_on channel=0 note=72 velocity=0 time=0
note_on channel=0 note=71 velocity=64 time=0
note_on channel=0 note=56 velocity=41 time=0
control_change channel=0 control=64 value=0 time=11
note_on channel=0 note=71 velocity=0 time=49
note_on channel=0 note=72 velocity=57 time=0
control_change channel=0 control=64 value=127 time=32
note_on channel=0 note=52 velocity=0 time=23
note_on channel=0 note=72 velocity=0 time=5
note_on channel=0 note=56 velocity=0 time=0
note_on channel=0 note=71 velocity=57 time=0
note_on channel=0 note=71 velocity=0 time=60
note_on channel=0 note=72 velocity=57 time=0
<meta message set_tempo tempo=451128 time=60>
note_on channel=0 note=72 velocity=0 time=0
note_on channel=0 note=71 velocity=57 time=0
note_on channel=0 note=52 velocity=41 time=0
note_on channel=0 note=56 velocity=41 time=0
note_on channel=0 note=71 velocity=0 time=4
note_on channel=0 note=72 velocity=57 time=36
<meta message set_tempo tempo=447761 time=30>
note_on channel=0 note=72 velocity=0 time=10
note_on channel=0 note=71 velocity=57 time=0
<meta message set_tempo tempo=468750 time=10>
<meta message set_tempo tempo=491803 time=20>
note_on channel=0 note=71 velocity=0 time=10
note_on channel=0 note=56 velocity=0 time=0
note_on channel=0 note=52 velocity=0 time=0
note_on channel=0 note=69 velocity=64 time=0
<meta message set_tempo tempo=521739 time=10>
<meta message set_tempo tempo=550459 time=20>
<meta message set_tempo tempo=582524 time=20>
note_on channel=0 note=69 velocity=0 time=10
note_on channel=0 note=71 velocity=57 time=0
<meta message set_tempo tempo=625000 time=10>
<meta message set_tempo tempo=666667 time=20>
<meta message set_tempo tempo=472441 time=20>
note_on channel=0 note=71 velocity=0 time=10
note_on channel=0 note=69 velocity=65 time=0
note_on channel=0 note=45 velocity=46 time=0
note_on channel=0 note=57 velocity=46 time=0
control_change channel=0 control=64 value=0 time=0
note_on channel=0 note=57 velocity=0 time=450
note_on channel=0 note=69 velocity=0 time=0
<meta message set_tempo tempo=434783 time=30>
note_on channel=0 note=45 velocity=0 time=0
note_on channel=0 note=72 velocity=56 time=0
note_on channel=0 note=76 velocity=56 time=0
note_on channel=0 note=76 velocity=0 time=120
note_on channel=0 note=72 velocity=0 time=0
<meta message set_tempo tempo=425532 time=120>
note_on channel=0 note=74 velocity=56 time=0
note_on channel=0 note=77 velocity=56 time=0
note_on channel=0 note=77 velocity=0 time=120
note_on channel=0 note=74 velocity=0 time=0
<meta message set_tempo tempo=416667 time=120>
note_on channel=0 note=76 velocity=66 time=0
note_on channel=0 note=79 velocity=66 time=0
note_on channel=0 note=48 velocity=59 time=0
note_on channel=0 note=48 velocity=0 time=120
note_on channel=0 note=79 velocity=0 time=0
note_on channel=0 note=76 velocity=0 time=0
note_on channel=0 note=76 velocity=57 time=120
note_on channel=0 note=79 velocity=57 time=0
note_on channel=0 note=60 velocity=53 time=0
note_on channel=0 note=60 velocity=0 time=120
note_on channel=0 note=79 velocity=0 time=0
note_on channel=0 note=76 velocity=0 time=0
<meta message set_tempo tempo=410959 time=120>
note_on channel=0 note=81 velocity=64 time=0
note_on channel=0 note=52 velocity=59 time=0
note_on channel=0 note=52 velocity=0 time=120
note_on channel=0 note=81 velocity=0 time=0
note_on channel=0 note=79 velocity=57 time=0
control_change channel=0 control=64 value=127 time=36
note_on channel=0 note=79 velocity=0 time=84
note_on channel=0 note=77 velocity=57 time=0
note_on channel=0 note=64 velocity=57 time=0
<meta message set_tempo tempo=451128 time=60>
note_on channel=0 note=64 velocity=0 time=60
note_on channel=0 note=77 velocity=0 time=0
note_on channel=0 note=76 velocity=57 time=0
<meta message set_tempo tempo=431655 time=120>
note_on channel=0 note=76 velocity=0 time=0
note_on channel=0 note=74 velocity=65 time=0
note_on channel=0 note=71 velocity=65 time=0
note_on channel=0 note=55 velocity=60 time=0
control_change channel=0 control=64 value=0 time=5
control_change channel=0 control=64 value=127 time=122
note_on channel=0 note=71 velocity=0 time=113
note_on channel=0 note=67 velocity=59 time=0
<meta message set_tempo tempo=491803 time=226>
<meta message set_tempo tempo=434783 time=14>
note_on channel=0 note=67 velocity=0 time=0
note_on channel=0 note=55 velocity=0 time=0
note_on channel=0 note=74 velocity=0 time=0
note_on channel=0 note=72 velocity=56 time=0
note_on channel=0 note=76 velocity=56 time=0
control_change channel=0 control=64 value=0 time=0
note_on channel=0 note=76 velocity=0 time=120
note_on channel=0 note=72 velocity=0 time=0
<meta message set_tempo tempo=425532 time=120>
note_on channel=0 note=74 velocity=56 time=0
note_on channel=0 note=77 velocity=56 time=0
note_on channel=0 note=77 velocity=0 time=120
note_on channel=0 note=74 velocity=0 time=0
<meta message set_tempo tempo=416667 time=120>
note_on channel=0 note=76 velocity=66 time=0
note_on channel=0 note=79 velocity=66 time=0
note_on channel=0 note=48 velocity=59 time=0
note_on channel=0 note=48 velocity=0 time=120
note_on channel=0 note=79 velocity=0 time=0
note_on channel=0 note=76 velocity=0 time=0
note_on channel=0 note=76 velocity=57 time=120
note_on channel=0 note=79 velocity=57 time=0
note_on channel=0 note=60 velocity=53 time=0
note_on channel=0 note=60 velocity=0 time=120
note_on channel=0 note=79 velocity=0 time=0
note_on channel=0 note=76 velocity=0 time=0
<meta message set_tempo tempo=410959 time=120>
note_on channel=0 note=81 velocity=64 time=0
note_on channel=0 note=52 velocity=59 time=0
note_on channel=0 note=52 velocity=0 time=120
note_on channel=0 note=81 velocity=0 time=0
note_on channel=0 note=79 velocity=57 time=0
control_change channel=0 control=64 value=127 time=36
note_on channel=0 note=79 velocity=0 time=84
note_on channel=0 note=77 velocity=57 time=0
note_on channel=0 note=64 velocity=57 time=0
<meta message set_tempo tempo=451128 time=60>
note_on channel=0 note=64 velocity=0 time=60
note_on channel=0 note=77 velocity=0 time=0
note_on channel=0 note=76 velocity=57 time=0
<meta message set_tempo tempo=431655 time=120>
note_on channel=0 note=76 velocity=0 time=0
note_on channel=0 note=74 velocity=65 time=0
note_on channel=0 note=71 velocity=65 time=0
note_on channel=0 note=55 velocity=60 time=0
control_change channel=0 control=64 value=0 time=5
control_change channel=0 control=64 value=127 time=122
<meta message set_tempo tempo=491803 time=339>
<meta message set_tempo tempo=454545 time=14>
note_on channel=0 note=55 velocity=0 time=0
note_on channel=0 note=71 velocity=0 time=0
note_on channel=0 note=74 velocity=0 time=0
note_on channel=0 note=69 velocity=56 time=0
note_on channel=0 note=72 velocity=56 time=0
control_change channel=0 control=64 value=0 time=0
note_on channel=0 note=72 velocity=0 time=120
note_on channel=0 note=69 velocity=0 time=0
<meta message set_tempo tempo=425532 time=120>
note_on channel=0 note=71 velocity=56 time=0
note_on channel=0 note=74 velocity=56 time=0
note_on channel=0 note=74 velocity=0 time=120
note_on channel=0 note=71 velocity=0 time=0
<meta message set_tempo tempo=416667 time=120>
note_on channel=0 note=72 velocity=66 time=0
note_on channel=0 note=76 velocity=66 time=0
note_on channel=0 note=45 velocity=59 time=0
note_on channel=0 note=45 velocity=0 time=120
note_on channel=0 note=76 velocity=0 time=0
note_on channel=0 note=72 velocity=0 time=0
note_on channel=0 note=72 velocity=57 time=120
note_on channel=0 note=76 velocity=57 time=0
note_on channel=0 note=57 velocity=53 time=0
note_on channel=0 note=57 velocity=0 time=120
note_on channel=0 note=76 velocity=0 time=0
note_on channel=0 note=72 velocity=0 time=0
<meta message set_tempo tempo=410959 time=120>
note_on channel=0 note=77 velocity=64 time=0
note_on channel=0 note=48 velocity=59 time=0
note_on channel=0 note=48 velocity=0 time=120
note_on channel=0 note=77 velocity=0 time=0
note_on channel=0 note=76 velocity=57 time=0
control_change channel=0 control=64 value=127 time=36
note_on channel=0 note=76 velocity=0 time=84
note_on channel=0 note=74 velocity=57 time=0
note_on channel=0 note=60 velocity=57 time=0
<meta message set_tempo tempo=451128 time=60>
note_on channel=0 note=60 velocity=0 time=60
note_on channel=0 note=74 velocity=0 time=0
note_on channel=0 note=72 velocity=57 time=0
<meta message set_tempo tempo=431655 time=120>
note_on channel=0 note=72 velocity=0 time=0
note_on channel=0 note=71 velocity=65 time=0
note_on channel=0 note=68 velocity=65 time=0
note_on channel=0 note=52 velocity=60 time=0
control_change channel=0 control=64 value=0 time=5
control_change channel=0 control=64 value=127 time=122
note_on channel=0 note=68 velocity=0 time=113
note_on channel=0 note=64 velocity=59 time=0
<meta message set_tempo tempo=434783 time=240>
note_on channel=0 note=64 velocity=0 time=0
note_on channel=0 note=52 velocity=0 time=0
note_on channel=0 note=71 velocity=0 time=0
note_on channel=0 note=69 velocity=56 time=0
note_on channel=0 note=72 velocity=56 time=0
control_change channel=0 control=64 value=0 time=0
note_on channel=0 note=72 velocity=0 time=120
note_on channel=0 note=69 velocity=0 time=0
<meta message set_tempo tempo=425532 time=120>
note_on channel=0 note=71 velocity=56 time=0
note_on channel=0 note=74 velocity=56 time=0
note_on channel=0 note=74 velocity=0 time=120
note_on channel=0 note=71 velocity=0 time=0
<meta message set_tempo tempo=416667 time=120>
note_on channel=0 note=72 velocity=66 time=0
note_on channel=0 note=76 velocity=66 time=0
note_on channel=0 note=45 velocity=59 time=0
note_on channel=0 note=45 velocity=0 time=120
note_on channel=0 note=76 velocity=0 time=0
note_on channel=0 note=72 velocity=0 time=0
note_on channel=0 note=72 velocity=57 time=120
note_on channel=0 note=76 velocity=57 time=0
note_on channel=0 note=57 velocity=53 time=0
note_on channel=0 note=57 velocity=0 time=120
note_on channel=0 note=76 velocity=0 time=0
note_on channel=0 note=72 velocity=0 time=0
<meta message set_tempo tempo=410959 time=120>
note_on channel=0 note=77 velocity=64 time=0
note_on channel=0 note=48 velocity=59 time=0
note_on channel=0 note=48 velocity=0 time=120
note_on channel=0 note=77 velocity=0 time=0
note_on channel=0 note=76 velocity=57 time=0
control_change channel=0 control=64 value=127 time=36
note_on channel=0 note=76 velocity=0 time=84
note_on channel=0 note=74 velocity=57 time=0
note_on channel=0 note=60 velocity=57 time=0
<meta message set_tempo tempo=451128 time=60>
note_on channel=0 note=60 velocity=0 time=60
note_on channel=0 note=74 velocity=0 time=0
note_on channel=0 note=72 velocity=57 time=0
<meta message set_tempo tempo=431655 time=120>
note_on channel=0 note=72 velocity=0 time=0
note_on channel=0 note=71 velocity=65 time=0
note_on channel=0 note=68 velocity=65 time=0
note_on channel=0 note=52 velocity=60 time=0
control_change channel=0 control=64 value=0 time=5
control_change channel=0 control=64 value=127 time=122
<meta message set_tempo tempo=397351 time=353>
note_on channel=0 note=52 velocity=0 time=0
note_on channel=0 note=68 velocity=0 time=0
note_on channel=0 note=71 velocity=0 time=0
note_on channel=0 note=71 velocity=56 time=0
control_change channel=0 control=64 value=0 time=0
note_on channel=0 note=71 velocity=0 time=120
note_on channel=0 note=69 velocity=56 time=0
note_on channel=0 note=69 velocity=0 time=120
note_on channel=0 note=68 velocity=56 time=0
<meta message set_tempo tempo=451128 time=120>
note_on channel=0 note=68 velocity=0 time=0
note_on channel=0 note=69 velocity=56 time=0
<meta message set_tempo tempo=397351 time=120>
note_on channel=0 note=69 velocity=0 time=0
note_on channel=0 note=72 velocity=59 time=0
note_on channel=0 note=57 velocity=53 time=0
control_change channel=0 control=64 value=127 time=85
note_on channel=0 note=57 velocity=0 time=35
note_on channel=0 note=72 velocity=0 time=0
note_on channel=0 note=64 velocity=47 time=120
note_on channel=0 note=60 velocity=47 time=0
control_change channel=0 control=64 value=0 time=10
<meta message set_tempo tempo=451128 time=110>
note_on channel=0 note=60 velocity=0 time=0
note_on channel=0 note=64 velocity=0 time=0
<meta message set_tempo tempo=400000 time=120>
note_on channel=0 note=74 velocity=62 time=0
note_on channel=0 note=60 velocity=47 time=0
note_on channel=0 note=64 velocity=47 time=0
control_change channel=0 control=64 value=127 time=99
note_on channel=0 note=64 velocity=0 time=21
note_on channel=0 note=60 velocity=0 time=0
note_on channel=0 note=74 velocity=0 time=0
note_on channel=0 note=72 velocity=57 time=0
note_on channel=0 note=72 velocity=0 time=120
note_on channel=0 note=71 velocity=57 time=0
note_on channel=0 note=60 velocity=47 time=0
note_on channel=0 note=64 velocity=47 time=0
<meta message set_tempo tempo=454545 time=120>
note_on channel=0 note=64 velocity=0 time=0
note_on channel=0 note=60 velocity=0 time=0
note_on channel=0 note=71 velocity=0 time=0
note_on channel=0 note=72 velocity=57 time=0
<meta message set_tempo tempo=397351 time=120>
note_on channel=0 note=72 velocity=0 time=0
note_on channel=0 note=76 velocity=66 time=0
note_on channel=0 note=57 velocity=54 time=0
control_change channel=0 control=64 value=0 time=0
control_change channel=0 control=64 value=127 time=75
note_on channel=0 note=57 velocity=0 time=45
note_on channel=0 note=76 velocity=0 time=0
note_on channel=0 note=64 velocity=48 time=120
note_on channel=0 note=60 velocity=48 time=0
control_change channel=0 control=64 value=0 time=10
<meta message set_tempo tempo=441176 time=110>
note_on channel=0 note=60 velocity=0 time=0
note_on channel=0 note=64 velocity=0 time=0
<meta message set_tempo tempo=397351 time=120>
note_on channel=0 note=77 velocity=63 time=0
note_on channel=0 note=64 velocity=48 time=0
note_on channel=0 note=60 velocity=48 time=0
control_change channel=0 control=64 value=127 time=69
note_on channel=0 note=60 velocity=0 time=51
note_on channel=0 note=64 velocity=0 time=0
note_on channel=0 note=77 velocity=0 time=0
note_on channel=0 note=76 velocity=58 time=0
note_on channel=0 note=76 velocity=0 time=120
note_on channel=0 note=75 velocity=58 time=0
note_on channel=0 note=64 velocity=48 time=0
note_on channel=0 note=60 velocity=48 time=0
<meta message set_tempo tempo=416667 time=120>
note_on channel=0 note=60 velocity=0 time=0
note_on channel=0 note=64 velocity=0 time=0
note_on channel=0 note=75 velocity=0 time=0
note_on channel=0 note=76 velocity=58 time=0
<meta message set_tempo tempo=400000 time=120>
note_on channel=0 note=76 velocity=0 time=0
note_on channel=0 note=83 velocity=70 time=0
note_on channel=0 note=57 velocity=56 time=0
control_change channel=0 control=64 value=0 time=0
control_change channel=0 control=64 value=127 time=92
note_on channel=0 note=57 velocity=0 time=28
note_on channel=0 note=83 velocity=0 time=0
note_on channel=0 note=81 velocity=63 time=0
note_on channel=0 note=81 velocity=0 time=120
note_on channel=0 note=80 velocity=63 time=0
note_on channel=0 note=64 velocity=49 time=0
note_on channel=0 note=60 velocity=49 time=0
note_on channel=0 note=60 velocity=0 time=120
note_on channel=0 note=64 velocity=0 time=0
note_on channel=0 note=80 velocity=0 time=0
note_on channel=0 note=81 velocity=63 time=0
<meta message set_tempo tempo=413793 time=120>
note_on channel=0 note=81 velocity=0 time=0
note_on channel=0 note=83 velocity=71 time=0
note_on channel=0 note=57 velocity=57 time=0
control_change channel=0 control=64 value=0 time=0
control_change channel=0 control=64 value=127 time=57
note_on channel=0 note=57 velocity=0 time=63
note_on channel=0 note=83 velocity=0 time=0
note_on channel=0 note=81 velocity=64 time=0
note_on channel=0 note=81 velocity=0 time=120
note_on channel=0 note=80 velocity=64 time=0
note_on channel=0 note=64 velocity=52 time=0
note_on channel=0 note=60 velocity=43 time=0
<meta message set_tempo tempo=512821 time=120>
note_on channel=0 note=60 velocity=0 time=0
note_on channel=0 note=64 velocity=0 time=0
note_on channel=0 note=80 velocity=0 time=0
note_on channel=0 note=81 velocity=64 time=0
<meta message set_tempo tempo=408163 time=120>
note_on channel=0 note=81 velocity=0 time=0
note_on channel=0 note=84 velocity=76 time=0
note_on channel=0 note=57 velocity=57 time=0
control_change channel=0 control=64 value=0 time=0
control_change channel=0 control=64 value=127 time=50
note_on channel=0 note=57 velocity=0 time=70
<meta message set_tempo tempo=425532 time=120>
note_on channel=0 note=63 velocity=51 time=0
note_on channel=0 note=57 velocity=51 time=0
control_change channel=0 control=64 value=0 time=10
<meta message set_tempo tempo=465116 time=110>
note_on channel=0 note=57 velocity=0 time=0
note_on channel=0 note=63 velocity=0 time=0
<meta message set_tempo tempo=410959 time=120>
note_on channel=0 note=84 velocity=0 time=0
note_on channel=0 note=81 velocity=62 time=0
note_on channel=0 note=63 velocity=43 time=0
note_on channel=0 note=57 velocity=43 time=0
note_on channel=0 note=57 velocity=0 time=120
note_on channel=0 note=63 velocity=0 time=0
note_on channel=0 note=81 velocity=0 time=0
<meta message set_tempo tempo=428571 time=120>
note_on channel=0 note=83 velocity=62 time=0
note_on channel=0 note=63 velocity=39 time=0
note_on channel=0 note=57 velocity=39 time=0
note_on channel=0 note=57 velocity=0 time=120
note_on channel=0 note=63 velocity=0 time=0
note_on channel=0 note=83 velocity=0 time=0
<meta message set_tempo tempo=405405 time=120>
note_on channel=0 note=84 velocity=70 time=0
note_on channel=0 note=52 velocity=46 time=0
note_on channel=0 note=52 velocity=0 time=120
note_on channel=0 note=84 velocity=0 time=0
note_on channel=0 note=83 velocity=62 time=120
note_on channel=0 note=64 velocity=42 time=0
note_on channel=0 note=57 velocity=42 time=0
note_on channel=0 note=57 velocity=0 time=120
note_on channel=0 note=64 velocity=0 time=0
note_on channel=0 note=83 velocity=0 time=0
<meta message set_tempo tempo=413793 time=120>
note_on channel=0 note=81 velocity=62 time=0
note_on channel=0 note=50 velocity=42 time=0
note_on channel=0 note=50 velocity=0 time=120
note_on channel=0 note=81 velocity=0 time=0
<meta message set_tempo tempo=428571 time=120>
note_on channel=0 note=80 velocity=62 time=0
note_on channel=0 note=59 velocity=42 time=0
note_on channel=0 note=53 velocity=42 time=0
note_on channel=0 note=53 velocity=0 time=120
note_on channel=0 note=59 velocity=0 time=0
note_on channel=0 note=80 velocity=0 time=0
<meta message set_tempo tempo=405405 time=120>
note_on channel=0 note=81 velocity=71 time=0
note_on channel=0 note=48 velocity=47 time=0
note_on channel=0 note=48 velocity=0 time=120
note_on channel=0 note=81 velocity=0 time=0
note_on channel=0 note=76 velocity=64 time=120
note_on channel=0 note=57 velocity=39 time=0
note_on channel=0 note=52 velocity=39 time=0
note_on channel=0 note=52 velocity=0 time=120
note_on channel=0 note=57 velocity=0 time=0
note_on channel=0 note=76 velocity=0 time=0
<meta message set_tempo tempo=416667 time=120>
note_on channel=0 note=50 velocity=41 time=0
note_on channel=0 note=77 velocity=64 time=4
note_on channel=0 note=50 velocity=0 time=116
note_on channel=0 note=77 velocity=0 time=4
<meta message set_tempo tempo=431655 time=116>
note_on channel=0 note=74 velocity=64 time=0
note_on channel=0 note=59 velocity=41 time=0
note_on channel=0 note=53 velocity=41 time=0
note_on channel=0 note=53 velocity=0 time=120
note_on channel=0 note=59 velocity=0 time=0
note_on channel=0 note=74 velocity=0 time=0
<meta message set_tempo tempo=410959 time=120>
note_on channel=0 note=72 velocity=74 time=0
note_on channel=0 note=52 velocity=48 time=0
note_on channel=0 note=57 velocity=48 time=0
control_change channel=0 control=64 value=127 time=80
note_on channel=0 note=57 velocity=0 time=40
note_on channel=0 note=52 velocity=0 time=0
note_on channel=0 note=57 velocity=41 time=120
note_on channel=0 note=52 velocity=41 time=0
note_on channel=0 note=52 velocity=0 time=120
note_on channel=0 note=57 velocity=0 time=0
note_on channel=0 note=52 velocity=41 time=115
<meta message set_tempo tempo=434783 time=5>
note_on channel=0 note=72 velocity=0 time=0
note_on channel=0 note=71 velocity=64 time=0
note_on channel=0 note=56 velocity=41 time=0
control_change channel=0 control=64 value=0 time=11
note_on channel=0 note=71 velocity=0 time=49
note_on channel=0 note=72 velocity=57 time=0
control_change channel=0 control=64 value=127 time=32
note_on channel=0 note=52 velocity=0 time=23
note_on channel=0 note=72 velocity=0 time=5
note_on channel=0 note=56 velocity=0 time=0
note_on channel=0 note=71 velocity=57 time=0
note_on channel=0 note=71 velocity=0 time=60
note_on channel=0 note=72 velocity=57 time=0
<meta message set_tempo tempo=451128 time=60>
note_on channel=0 note=72 velocity=0 time=0
note_on channel=0 note=71 velocity=57 time=0
note_on channel=0 note=52 velocity=41 time=0
note_on channel=0 note=56 velocity=41 time=0
note_on channel=0 note=71 velocity=0 time=4
note_on channel=0 note=72 velocity=57 time=36
<meta message set_tempo tempo=447761 time=30>
note_on channel=0 note=72 velocity=0 time=10
note_on channel=0 note=71 velocity=57 time=0
<meta message set_tempo tempo=468750 time=10>
<meta message set_tempo tempo=491803 time=20>
note_on channel=0 note=71 velocity=0 time=10
note_on channel=0 note=56 velocity=0 time=0
note_on channel=0 note=52 velocity=0 time=0
note_on channel=0 note=69 velocity=64 time=0
<meta message set_tempo tempo=521739 time=10>
<meta message set_tempo tempo=550459 time=20>
<meta message set_tempo tempo=582524 time=20>
note_on channel=0 note=69 velocity=0 time=10
note_on channel=0 note=71 velocity=57 time=0
<meta message set_tempo tempo=625000 time=10>
<meta message set_tempo tempo=666667 time=20>
<meta message set_tempo tempo=472441 time=20>
<meta message key_signature key='A' time=10>
note_on channel=0 note=71 velocity=0 time=0
note_on channel=0 note=69 velocity=65 time=0
note_on channel=0 note=45 velocity=46 time=0
note_on channel=0 note=57 velocity=46 time=0
control_change channel=0 control=64 value=0 time=0
note_on channel=0 note=57 velocity=0 time=450
note_on channel=0 note=69 velocity=0 time=0
<meta message set_tempo tempo=413793 time=30>
note_on channel=0 note=45 velocity=0 time=0
note_on channel=0 note=69 velocity=82 time=0
control_change channel=0 control=64 value=127 time=43
note_on channel=0 note=69 velocity=0 time=77
note_on channel=0 note=81 velocity=79 time=0
<meta message set_tempo tempo=431655 time=120>
note_on channel=0 note=81 velocity=0 time=0
note_on channel=0 note=71 velocity=83 time=0
note_on channel=0 note=71 velocity=0 time=120
note_on channel=0 note=83 velocity=80 time=0
note_on channel=0 note=45 velocity=64 time=0
note_on channel=0 note=45 velocity=0 time=40
note_on channel=0 note=49 velocity=70 time=0
note_on channel=0 note=49 velocity=0 time=40
note_on channel=0 note=52 velocity=76 time=0
<meta message set_tempo tempo=408163 time=40>
note_on channel=0 note=52 velocity=0 time=0
note_on channel=0 note=83 velocity=0 time=0
note_on channel=0 note=73 velocity=89 time=0
note_on channel=0 note=57 velocity=87 time=0
control_change channel=0 control=64 value=0 time=8
control_change channel=0 control=64 value=127 time=38
note_on channel=0 note=57 velocity=0 time=74
note_on channel=0 note=73 velocity=0 time=0
note_on channel=0 note=85 velocity=84 time=0
<meta message set_tempo tempo=422535 time=120>
note_on channel=0 note=85 velocity=0 time=0
note_on channel=0 note=57 velocity=69 time=0
note_on channel=0 note=57 velocity=0 time=120
<meta message set_tempo tempo=413793 time=120>
note_on channel=0 note=69 velocity=85 time=0
note_on channel=0 note=57 velocity=69 time=0
note_on channel=0 note=57 velocity=0 time=120
note_on channel=0 note=69 velocity=0 time=0
note_on channel=0 note=81 velocity=73 time=0
<meta message set_tempo tempo=422535 time=120>
note_on channel=0 note=81 velocity=0 time=0
note_on channel=0 note=71 velocity=84 time=0
note_on channel=0 note=57 velocity=69 time=0
note_on channel=0 note=57 velocity=0 time=120
note_on channel=0 note=71 velocity=0 time=0
note_on channel=0 note=83 velocity=72 time=0
note_on channel=0 note=45 velocity=65 time=0
note_on channel=0 note=45 velocity=0 time=40
note_on channel=0 note=49 velocity=69 time=0
note_on channel=0 note=49 velocity=0 time=40
note_on channel=0 note=52 velocity=73 time=0
<meta message set_tempo tempo=408163 time=40>
note_on channel=0 note=52 velocity=0 time=0
note_on channel=0 note=83 velocity=0 time=0
note_on channel=0 note=73 velocity=90 time=0
note_on channel=0 note=57 velocity=85 time=0
control_change channel=0 control=64 value=0 time=0
control_change channel=0 control=64 value=127 time=57
note_on channel=0 note=57 velocity=0 time=63
note_on channel=0 note=73 velocity=0 time=0
note_on channel=0 note=85 velocity=75 time=0
<meta message set_tempo tempo=410959 time=120>
note_on channel=0 note=85 velocity=0 time=0
note_on channel=0 note=71 velocity=84 time=0
note_on channel=0 note=57 velocity=64 time=0
note_on channel=0 note=57 velocity=0 time=120
note_on channel=0 note=71 velocity=0 time=0
note_on channel=0 note=83 velocity=73 time=0
<meta message set_tempo tempo=410959 time=120>
note_on channel=0 note=83 velocity=0 time=0
note_on channel=0 note=69 velocity=87 time=0
note_on channel=0 note=57 velocity=65 time=0
note_on channel=0 note=57 velocity=0 time=120
note_on channel=0 note=69 velocity=0 time=0
note_on channel=0 note=81 velocity=74 time=0
<meta message set_tempo tempo=447761 time=120>
note_on channel=0 note=81 velocity=0 time=0
note_on channel=0 note=68 velocity=83 time=0
note_on channel=0 note=57 velocity=67 time=0
note_on channel=0 note=57 velocity=0 time=120
note_on channel=0 note=68 velocity=0 time=0
note_on channel=0 note=80 velocity=76 time=0
note_on channel=0 note=38 velocity=66 time=0
note_on channel=0 note=38 velocity=0 time=40
note_on channel=0 note=42 velocity=71 time=0
note_on channel=0 note=42 velocity=0 time=40
note_on channel=0 note=45 velocity=77 time=0
<meta message set_tempo tempo=410959 time=40>
note_on channel=0 note=45 velocity=0 time=0
note_on channel=0 note=80 velocity=0 time=0
note_on channel=0 note=66 velocity=88 time=0
note_on channel=0 note=50 velocity=85 time=0
control_change channel=0 control=64 value=0 time=0
control_change channel=0 control=64 value=127 time=40
note_on channel=0 note=50 velocity=0 time=80
note_on channel=0 note=66 velocity=0 time=0
note_on channel=0 note=78 velocity=75 time=0
<meta message set_tempo tempo=419580 time=120>
note_on channel=0 note=78 velocity=0 time=0
note_on channel=0 note=68 velocity=83 time=0
note_on channel=0 note=50 velocity=69 time=0
note_on channel=0 note=50 velocity=0 time=120
note_on channel=0 note=68 velocity=0 time=0
note_on channel=0 note=80 velocity=69 time=0
note_on channel=0 note=39 velocity=68 time=0
note_on channel=0 note=39 velocity=0 time=40
note_on channel=0 note=42 velocity=72 time=0
note_on channel=0 note=42 velocity=0 time=40
note_on channel=0 note=45 velocity=75 time=0
<meta message set_tempo tempo=431655 time=40>
note_on channel=0 note=45 velocity=0 time=0
note_on channel=0 note=80 velocity=0 time=0
note_on channel=0 note=69 velocity=79 time=0
note_on channel=0 note=51 velocity=85 time=0
control_change channel=0 control=64 value=0 time=4
control_change channel=0 control=64 value=127 time=33
note_on channel=0 note=51 velocity=0 time=83
note_on channel=0 note=69 velocity=0 time=0
note_on channel=0 note=81 velocity=71 time=0
<meta message set_tempo tempo=447761 time=120>
note_on channel=0 note=81 velocity=0 time=0
note_on channel=0 note=71 velocity=81 time=0
note_on channel=0 note=51 velocity=71 time=0
note_on channel=0 note=51 velocity=0 time=120
note_on channel=0 note=71 velocity=0 time=0
note_on channel=0 note=83 velocity=73 time=0
note_on channel=0 note=40 velocity=64 time=0
note_on channel=0 note=40 velocity=0 time=40
note_on channel=0 note=44 velocity=69 time=0
note_on channel=0 note=44 velocity=0 time=40
note_on channel=0 note=47 velocity=74 time=0
<meta message set_tempo tempo=425532 time=40>
note_on channel=0 note=47 velocity=0 time=0
note_on channel=0 note=83 velocity=0 time=0
note_on channel=0 note=68 velocity=86 time=0
note_on channel=0 note=52 velocity=85 time=0
control_change channel=0 control=64 value=0 time=5
control_change channel=0 control=64 value=127 time=55
note_on channel=0 note=68 velocity=0 time=60
note_on channel=0 note=80 velocity=73 time=0
<meta message set_tempo tempo=454545 time=120>
note_on channel=0 note=80 velocity=0 time=0
note_on channel=0 note=52 velocity=0 time=0
note_on channel=0 note=64 velocity=81 time=0
note_on channel=0 note=52 velocity=73 time=0
note_on channel=0 note=52 velocity=0 time=120
note_on channel=0 note=64 velocity=0 time=0
note_on channel=0 note=76 velocity=72 time=0
<meta message set_tempo tempo=397351 time=120>
note_on channel=0 note=76 velocity=0 time=0
note_on channel=0 note=69 velocity=83 time=0
control_change channel=0 control=64 value=0 time=21
control_change channel=0 control=64 value=127 time=46
note_on channel=0 note=69 velocity=0 time=53
note_on channel=0 note=81 velocity=73 time=0
<meta message set_tempo tempo=419580 time=120>
note_on channel=0 note=81 velocity=0 time=0
note_on channel=0 note=71 velocity=82 time=0
note_on channel=0 note=71 velocity=0 time=120
note_on channel=0 note=83 velocity=73 time=0
note_on channel=0 note=45 velocity=67 time=0
note_on channel=0 note=45 velocity=0 time=40
note_on channel=0 note=49 velocity=71 time=0
note_on channel=0 note=49 velocity=0 time=40
note_on channel=0 note=52 velocity=76 time=0
<meta message set_tempo tempo=408163 time=40>
note_on channel=0 note=52 velocity=0 time=0
note_on channel=0 note=83 velocity=0 time=0
note_on channel=0 note=73 velocity=89 time=0
note_on channel=0 note=57 velocity=84 time=0
control_change channel=0 control=64 value=0 time=6
control_change channel=0 control=64 value=127 time=79
note_on channel=0 note=57 velocity=0 time=35
note_on channel=0 note=73 velocity=0 time=0
note_on channel=0 note=85 velocity=77 time=0
<meta message set_tempo tempo=419580 time=120>
note_on channel=0 note=85 velocity=0 time=0
note_on channel=0 note=57 velocity=69 time=0
note_on channel=0 note=57 velocity=0 time=120
<meta message set_tempo tempo=408163 time=120>
note_on channel=0 note=69 velocity=85 time=0
note_on channel=0 note=57 velocity=69 time=0
note_on channel=0 note=57 velocity=0 time=120
note_on channel=0 note=69 velocity=0 time=0
note_on channel=0 note=81 velocity=76 time=0
<meta message set_tempo tempo=422535 time=120>
note_on channel=0 note=81 velocity=0 time=0
note_on channel=0 note=71 velocity=84 time=0
note_on channel=0 note=57 velocity=69 time=0
note_on channel=0 note=57 velocity=0 time=120
note_on channel=0 note=71 velocity=0 time=0
note_on channel=0 note=83 velocity=77 time=0
note_on channel=0 note=45 velocity=61 time=0
note_on channel=0 note=45 velocity=0 time=40
note_on channel=0 note=49 velocity=66 time=0
note_on channel=0 note=49 velocity=0 time=40
note_on channel=0 note=52 velocity=72 time=0
<meta message set_tempo tempo=410959 time=40>
note_on channel=0 note=52 velocity=0 time=0
note_on channel=0 note=83 velocity=0 time=0
note_on channel=0 note=73 velocity=92 time=0
note_on channel=0 note=57 velocity=87 time=0
control_change channel=0 control=64 value=0 time=7
control_change channel=0 control=64 value=127 time=43
note_on channel=0 note=57 velocity=0 time=70
note_on channel=0 note=73 velocity=0 time=0
note_on channel=0 note=85 velocity=77 time=0
<meta message set_tempo tempo=413793 time=120>
note_on channel=0 note=85 velocity=0 time=0
note_on channel=0 note=71 velocity=84 time=0
note_on channel=0 note=57 velocity=64 time=0
note_on channel=0 note=57 velocity=0 time=120
note_on channel=0 note=71 velocity=0 time=0
note_on channel=0 note=83 velocity=75 time=0
<meta message set_tempo tempo=416667 time=120>
note_on channel=0 note=83 velocity=0 time=0
note_on channel=0 note=69 velocity=88 time=0
note_on channel=0 note=57 velocity=65 time=0
note_on channel=0 note=57 velocity=0 time=120
note_on channel=0 note=69 velocity=0 time=0
note_on channel=0 note=81 velocity=77 time=0
<meta message set_tempo tempo=434783 time=120>
note_on channel=0 note=81 velocity=0 time=0
note_on channel=0 note=68 velocity=84 time=0
note_on channel=0 note=57 velocity=67 time=0
note_on channel=0 note=57 velocity=0 time=120
note_on channel=0 note=68 velocity=0 time=0
note_on channel=0 note=80 velocity=75 time=0
note_on channel=0 note=38 velocity=68 time=0
note_on channel=0 note=38 velocity=0 time=40
note_on channel=0 note=42 velocity=72 time=0
note_on channel=0 note=42 velocity=0 time=40
note_on channel=0 note=45 velocity=76 time=0
<meta message set_tempo tempo=413793 time=40>
note_on channel=0 note=45 velocity=0 time=0
note_on channel=0 note=80 velocity=0 time=0
note_on channel=0 note=66 velocity=91 time=0
note_on channel=0 note=50 velocity=83 time=0
control_change channel=0 control=64 value=0 time=9
control_change channel=0 control=64 value=127 time=65
note_on channel=0 note=50 velocity=0 time=46
note_on channel=0 note=66 velocity=0 time=0
note_on channel=0 note=78 velocity=79 time=0
<meta message set_tempo tempo=434783 time=120>
note_on channel=0 note=78 velocity=0 time=0
note_on channel=0 note=71 velocity=82 time=0
note_on channel=0 note=50 velocity=69 time=0
note_on channel=0 note=50 velocity=0 time=120
note_on channel=0 note=71 velocity=0 time=0
note_on channel=0 note=83 velocity=72 time=0
note_on channel=0 note=40 velocity=67 time=0
note_on channel=0 note=40 velocity=0 time=40
note_on channel=0 note=44 velocity=72 time=0
note_on channel=0 note=44 velocity=0 time=40
note_on channel=0 note=47 velocity=78 time=0
<meta message set_tempo tempo=451128 time=40>
note_on channel=0 note=47 velocity=0 time=0
note_on channel=0 note=83 velocity=0 time=0
note_on channel=0 note=68 velocity=86 time=0
note_on channel=0 note=52 velocity=82 time=0
control_change channel=0 control=64 value=0 time=8
control_change channel=0 control=64 value=127 time=29
note_on channel=0 note=52 velocity=0 time=83
note_on channel=0 note=68 velocity=0 time=0
note_on channel=0 note=80 velocity=75 time=0
<meta message set_tempo tempo=465116 time=120>
note_on channel=0 note=80 velocity=0 time=0
note_on channel=0 note=64 velocity=80 time=0
note_on channel=0 note=52 velocity=71 time=0
note_on channel=0 note=52 velocity=0 time=120
note_on channel=0 note=64 velocity=0 time=0
note_on channel=0 note=76 velocity=74 time=0
<meta message set_tempo tempo=451128 time=120>
note_on channel=0 note=76 velocity=0 time=0
note_on channel=0 note=69 velocity=78 time=0
note_on channel=0 note=81 velocity=90 time=0
note_on channel=0 note=45 velocity=84 time=0
control_change channel=0 control=64 value=0 time=10
control_change channel=0 control=64 value=127 time=98
control_change channel=0 control=64 value=0 time=238
note_on channel=0 note=45 velocity=0 time=104
note_on channel=0 note=81 velocity=0 time=0
note_on channel=0 note=69 velocity=0 time=0
<meta message set_tempo tempo=405405 time=30>
note_on channel=0 note=69 velocity=82 time=0
control_change channel=0 control=64 value=127 time=43
note_on channel=0 note=69 velocity=0 time=77
note_on channel=0 note=81 velocity=79 time=0
<meta message set_tempo tempo=431655 time=120>
note_on channel=0 note=81 velocity=0 time=0
note_on channel=0 note=71 velocity=83 time=0
note_on channel=0 note=71 velocity=0 time=120
note_on channel=0 note=83 velocity=80 time=0
note_on channel=0 note=45 velocity=64 time=0
note_on channel=0 note=45 velocity=0 time=40
note_on channel=0 note=49 velocity=70 time=0
note_on channel=0 note=49 velocity=0 time=40
note_on channel=0 note=52 velocity=76 time=0
<meta message set_tempo tempo=408163 time=40>
note_on channel=0 note=52 velocity=0 time=0
note_on channel=0 note=83 velocity=0 time=0
note_on channel=0 note=73 velocity=89 time=0
note_on channel=0 note=57 velocity=87 time=0
control_change channel=0 control=64 value=0 time=8
control_change channel=0 control=64 value=127 time=38
note_on channel=0 note=57 velocity=0 time=74
note_on channel=0 note=73 velocity=0 time=0
note_on channel=0 note=85 velocity=84 time=0
<meta message set_tempo tempo=422535 time=120>
note_on channel=0 note=85 velocity=0 time=0
note_on channel=0 note=57 velocity=69 time=0
note_on channel=0 note=57 velocity=0 time=120
<meta message set_tempo tempo=413793 time=120>
note_on channel=0 note=69 velocity=85 time=0
note_on channel=0 note=57 velocity=69 time=0
note_on channel=0 note=57 velocity=0 time=120
note_on channel=0 note=69 velocity=0 time=0
note_on channel=0 note=81 velocity=73 time=0
<meta message set_tempo tempo=422535 time=120>
note_on channel=0 note=81 velocity=0 time=0
note_on channel=0 note=71 velocity=84 time=0
note_on channel=0 note=57 velocity=69 time=0
note_on channel=0 note=57 velocity=0 time=120
note_on channel=0 note=71 velocity=0 time=0
note_on channel=0 note=83 velocity=72 time=0
note_on channel=0 note=45 velocity=65 time=0
note_on channel=0 note=45 velocity=0 time=40
note_on channel=0 note=49 velocity=69 time=0
note_on channel=0 note=49 velocity=0 time=40
note_on channel=0 note=52 velocity=73 time=0
<meta message set_tempo tempo=408163 time=40>
note_on channel=0 note=52 velocity=0 time=0
note_on channel=0 note=83 velocity=0 time=0
note_on channel=0 note=73 velocity=90 time=0
note_on channel=0 note=57 velocity=85 time=0
control_change channel=0 control=64 value=0 time=0
control_change channel=0 control=64 value=127 time=57
note_on channel=0 note=57 velocity=0 time=63
note_on channel=0 note=73 velocity=0 time=0
note_on channel=0 note=85 velocity=75 time=0
<meta message set_tempo tempo=410959 time=120>
note_on channel=0 note=85 velocity=0 time=0
note_on channel=0 note=71 velocity=84 time=0
note_on channel=0 note=57 velocity=64 time=0
note_on channel=0 note=57 velocity=0 time=120
note_on channel=0 note=71 velocity=0 time=0
note_on channel=0 note=83 velocity=73 time=0
<meta message set_tempo tempo=410959 time=120>
note_on channel=0 note=83 velocity=0 time=0
note_on channel=0 note=69 velocity=87 time=0
note_on channel=0 note=57 velocity=65 time=0
note_on channel=0 note=57 velocity=0 time=120
note_on channel=0 note=69 velocity=0 time=0
note_on channel=0 note=81 velocity=74 time=0
<meta message set_tempo tempo=447761 time=120>
note_on channel=0 note=81 velocity=0 time=0
note_on channel=0 note=68 velocity=83 time=0
note_on channel=0 note=57 velocity=67 time=0
note_on channel=0 note=57 velocity=0 time=120
note_on channel=0 note=68 velocity=0 time=0
note_on channel=0 note=80 velocity=76 time=0
note_on channel=0 note=38 velocity=66 time=0
note_on channel=0 note=38 velocity=0 time=40
note_on channel=0 note=42 velocity=71 time=0
note_on channel=0 note=42 velocity=0 time=40
note_on channel=0 note=45 velocity=77 time=0
<meta message set_tempo tempo=410959 time=40>
note_on channel=0 note=45 velocity=0 time=0
note_on channel=0 note=80 velocity=0 time=0
note_on channel=0 note=66 velocity=88 time=0
note_on channel=0 note=50 velocity=85 time=0
control_change channel=0 control=64 value=0 time=0
control_change channel=0 control=64 value=127 time=40
note_on channel=0 note=50 velocity=0 time=80
note_on channel=0 note=66 velocity=0 time=0
note_on channel=0 note=78 velocity=75 time=0
<meta message set_tempo tempo=419580 time=120>
note_on channel=0 note=78 velocity=0 time=0
note_on channel=0 note=68 velocity=83 time=0
note_on channel=0 note=50 velocity=69 time=0
note_on channel=0 note=50 velocity=0 time=120
note_on channel=0 note=68 velocity=0 time=0
note_on channel=0 note=80 velocity=69 time=0
note_on channel=0 note=39 velocity=68 time=0
note_on channel=0 note=39 velocity=0 time=40
note_on channel=0 note=42 velocity=72 time=0
note_on channel=0 note=42 velocity=0 time=40
note_on channel=0 note=45 velocity=75 time=0
<meta message set_tempo tempo=431655 time=40>
note_on channel=0 note=45 velocity=0 time=0
note_on channel=0 note=80 velocity=0 time=0
note_on channel=0 note=69 velocity=79 time=0
note_on channel=0 note=51 velocity=85 time=0
control_change channel=0 control=64 value=0 time=4
control_change channel=0 control=64 value=127 time=33
note_on channel=0 note=51 velocity=0 time=83
note_on channel=0 note=69 velocity=0 time=0
note_on channel=0 note=81 velocity=71 time=0
<meta message set_tempo tempo=447761 time=120>
note_on channel=0 note=81 velocity=0 time=0
note_on channel=0 note=71 velocity=81 time=0
note_on channel=0 note=51 velocity=71 time=0
note_on channel=0 note=51 velocity=0 time=120
note_on channel=0 note=71 velocity=0 time=0
note_on channel=0 note=83 velocity=73 time=0
note_on channel=0 note=40 velocity=64 time=0
note_on channel=0 note=40 velocity=0 time=40
note_on channel=0 note=44 velocity=69 time=0
note_on channel=0 note=44 velocity=0 time=40
note_on channel=0 note=47 velocity=74 time=0
<meta message set_tempo tempo=425532 time=40>
note_on channel=0 note=47 velocity=0 time=0
note_on channel=0 note=83 velocity=0 time=0
note_on channel=0 note=68 velocity=86 time=0
note_on channel=0 note=52 velocity=85 time=0
control_change channel=0 control=64 value=0 time=5
control_change channel=0 control=64 value=127 time=55
note_on channel=0 note=68 velocity=0 time=60
note_on channel=0 note=80 velocity=73 time=0
<meta message set_tempo tempo=441176 time=120>
note_on channel=0 note=80 velocity=0 time=0
note_on channel=0 note=52 velocity=0 time=0
note_on channel=0 note=64 velocity=81 time=0
note_on channel=0 note=52 velocity=73 time=0
note_on channel=0 note=52 velocity=0 time=120
note_on channel=0 note=64 velocity=0 time=0
note_on channel=0 note=76 velocity=72 time=0
<meta message set_tempo tempo=397351 time=120>
note_on channel=0 note=76 velocity=0 time=0
note_on channel=0 note=69 velocity=83 time=0
control_change channel=0 control=64 value=0 time=21
control_change channel=0 control=64 value=127 time=46
note_on channel=0 note=69 velocity=0 time=53
note_on channel=0 note=81 velocity=73 time=0
<meta message set_tempo tempo=419580 time=120>
note_on channel=0 note=81 velocity=0 time=0
note_on channel=0 note=71 velocity=82 time=0
note_on channel=0 note=71 velocity=0 time=120
note_on channel=0 note=83 velocity=73 time=0
note_on channel=0 note=45 velocity=67 time=0
note_on channel=0 note=45 velocity=0 time=40
note_on channel=0 note=49 velocity=71 time=0
note_on channel=0 note=49 velocity=0 time=40
note_on channel=0 note=52 velocity=76 time=0
<meta message set_tempo tempo=408163 time=40>
note_on channel=0 note=52 velocity=0 time=0
note_on channel=0 note=83 velocity=0 time=0
note_on channel=0 note=73 velocity=89 time=0
note_on channel=0 note=57 velocity=84 time=0
control_change channel=0 control=64 value=0 time=6
control_change channel=0 control=64 value=127 time=79
note_on channel=0 note=57 velocity=0 time=35
note_on channel=0 note=73 velocity=0 time=0
note_on channel=0 note=85 velocity=77 time=0
<meta message set_tempo tempo=419580 time=120>
note_on channel=0 note=85 velocity=0 time=0
note_on channel=0 note=57 velocity=69 time=0
note_on channel=0 note=57 velocity=0 time=120
<meta message set_tempo tempo=408163 time=120>
note_on channel=0 note=69 velocity=85 time=0
note_on channel=0 note=57 velocity=69 time=0
note_on channel=0 note=57 velocity=0 time=120
note_on channel=0 note=69 velocity=0 time=0
note_on channel=0 note=81 velocity=76 time=0
<meta message set_tempo tempo=422535 time=120>
note_on channel=0 note=81 velocity=0 time=0
note_on channel=0 note=71 velocity=84 time=0
note_on channel=0 note=57 velocity=69 time=0
note_on channel=0 note=57 velocity=0 time=120
note_on channel=0 note=71 velocity=0 time=0
note_on channel=0 note=83 velocity=77 time=0
note_on channel=0 note=45 velocity=61 time=0
note_on channel=0 note=45 velocity=0 time=40
note_on channel=0 note=49 velocity=66 time=0
note_on channel=0 note=49 velocity=0 time=40
note_on channel=0 note=52 velocity=72 time=0
<meta message set_tempo tempo=410959 time=40>
note_on channel=0 note=52 velocity=0 time=0
note_on channel=0 note=83 velocity=0 time=0
note_on channel=0 note=73 velocity=92 time=0
note_on channel=0 note=57 velocity=87 time=0
control_change channel=0 control=64 value=0 time=7
control_change channel=0 control=64 value=127 time=43
note_on channel=0 note=57 velocity=0 time=70
note_on channel=0 note=73 velocity=0 time=0
note_on channel=0 note=85 velocity=77 time=0
<meta message set_tempo tempo=413793 time=120>
note_on channel=0 note=85 velocity=0 time=0
note_on channel=0 note=71 velocity=84 time=0
note_on channel=0 note=57 velocity=64 time=0
note_on channel=0 note=57 velocity=0 time=120
note_on channel=0 note=71 velocity=0 time=0
note_on channel=0 note=83 velocity=75 time=0
<meta message set_tempo tempo=416667 time=120>
note_on channel=0 note=83 velocity=0 time=0
note_on channel=0 note=69 velocity=88 time=0
note_on channel=0 note=57 velocity=65 time=0
note_on channel=0 note=57 velocity=0 time=120
note_on channel=0 note=69 velocity=0 time=0
note_on channel=0 note=81 velocity=77 time=0
<meta message set_tempo tempo=434783 time=120>
note_on channel=0 note=81 velocity=0 time=0
note_on channel=0 note=68 velocity=84 time=0
note_on channel=0 note=57 velocity=67 time=0
note_on channel=0 note=57 velocity=0 time=120
note_on channel=0 note=68 velocity=0 time=0
note_on channel=0 note=80 velocity=75 time=0
note_on channel=0 note=38 velocity=68 time=0
note_on channel=0 note=38 velocity=0 time=40
note_on channel=0 note=42 velocity=72 time=0
note_on channel=0 note=42 velocity=0 time=40
note_on channel=0 note=45 velocity=76 time=0
<meta message set_tempo tempo=413793 time=40>
note_on channel=0 note=45 velocity=0 time=0
note_on channel=0 note=80 velocity=0 time=0
note_on channel=0 note=66 velocity=91 time=0
note_on channel=0 note=50 velocity=83 time=0
control_change channel=0 control=64 value=0 time=9
control_change channel=0 control=64 value=127 time=65
note_on channel=0 note=50 velocity=0 time=46
note_on channel=0 note=66 velocity=0 time=0
note_on channel=0 note=78 velocity=79 time=0
<meta message set_tempo tempo=434783 time=120>
note_on channel=0 note=78 velocity=0 time=0
note_on channel=0 note=71 velocity=82 time=0
note_on channel=0 note=50 velocity=69 time=0
note_on channel=0 note=50 velocity=0 time=120
note_on channel=0 note=71 velocity=0 time=0
note_on channel=0 note=83 velocity=72 time=0
note_on channel=0 note=40 velocity=67 time=0
note_on channel=0 note=40 velocity=0 time=40
note_on channel=0 note=44 velocity=72 time=0
note_on channel=0 note=44 velocity=0 time=40
note_on channel=0 note=47 velocity=78 time=0
<meta message set_tempo tempo=451128 time=40>
note_on channel=0 note=47 velocity=0 time=0
note_on channel=0 note=83 velocity=0 time=0
note_on channel=0 note=68 velocity=86 time=0
note_on channel=0 note=52 velocity=82 time=0
control_change channel=0 control=64 value=0 time=8
control_change channel=0 control=64 value=127 time=29
note_on channel=0 note=52 velocity=0 time=83
note_on channel=0 note=68 velocity=0 time=0
note_on channel=0 note=80 velocity=75 time=0
<meta message set_tempo tempo=465116 time=120>
note_on channel=0 note=80 velocity=0 time=0
note_on channel=0 note=64 velocity=80 time=0
note_on channel=0 note=52 velocity=71 time=0
<meta message set_tempo tempo=422535 time=120>
note_on channel=0 note=52 velocity=0 time=0
note_on channel=0 note=64 velocity=0 time=0
note_on channel=0 note=76 velocity=74 time=0
note_on channel=0 note=45 velocity=61 time=0
note_on channel=0 note=45 velocity=0 time=40
note_on channel=0 note=49 velocity=66 time=0
note_on channel=0 note=49 velocity=0 time=40
note_on channel=0 note=52 velocity=72 time=0
<meta message set_tempo tempo=410959 time=40>
note_on channel=0 note=52 velocity=0 time=0
note_on channel=0 note=76 velocity=0 time=0
note_on channel=0 note=69 velocity=78 time=0
note_on channel=0 note=81 velocity=90 time=0
note_on channel=0 note=57 velocity=87 time=0
control_change channel=0 control=64 value=0 time=10
control_change channel=0 control=64 value=127 time=98
note_on channel=0 note=57 velocity=0 time=12
<meta message set_tempo tempo=413793 time=120>
note_on channel=0 note=57 velocity=64 time=0
note_on channel=0 note=57 velocity=0 time=120
<meta message set_tempo tempo=416667 time=120>
note_on channel=0 note=81 velocity=0 time=0
note_on channel=0 note=69 velocity=0 time=0
note_on channel=0 note=85 velocity=90 time=0
note_on channel=0 note=73 velocity=78 time=0
note_on channel=0 note=57 velocity=65 time=0
note_on channel=0 note=57 velocity=0 time=120
<meta message set_tempo tempo=434783 time=120>
note_on channel=0 note=57 velocity=64 time=0
<meta message set_tempo tempo=422535 time=120>
note_on channel=0 note=57 velocity=0 time=0
note_on channel=0 note=85 velocity=0 time=0
note_on channel=0 note=85 velocity=90 time=0
note_on channel=0 note=45 velocity=61 time=0
control_change channel=0 control=64 value=0 time=24
note_on channel=0 note=45 velocity=0 time=16
note_on channel=0 note=49 velocity=66 time=0
control_change channel=0 control=64 value=127 time=27
note_on channel=0 note=49 velocity=0 time=13
note_on channel=0 note=52 velocity=72 time=0
note_on channel=0 note=85 velocity=0 time=10
note_on channel=0 note=73 velocity=74 time=0
note_on channel=0 note=76 velocity=77 time=10
note_on channel=0 note=81 velocity=80 time=10
<meta message set_tempo tempo=410959 time=10>
<meta message marker text='Coda' time=0>
note_on channel=0 note=52 velocity=0 time=0
note_on channel=0 note=73 velocity=0 time=0
note_on channel=0 note=85 velocity=90 time=0
note_on channel=0 note=57 velocity=87 time=0
note_on channel=0 note=57 velocity=0 time=120
<meta message set_tempo tempo=413793 time=120>
note_on channel=0 note=57 velocity=68 time=0
note_on channel=0 note=57 velocity=0 time=120
<meta message set_tempo tempo=416667 time=120>
note_on channel=0 note=76 velocity=0 time=0
note_on channel=0 note=81 velocity=0 time=0
note_on channel=0 note=73 velocity=0 time=0
note_on channel=0 note=57 velocity=68 time=0
note_on channel=0 note=57 velocity=0 time=120
<meta message set_tempo tempo=434783 time=120>
note_on channel=0 note=57 velocity=68 time=0
<meta message set_tempo tempo=422535 time=120>
note_on channel=0 note=57 velocity=0 time=0
note_on channel=0 note=45 velocity=61 time=0
control_change channel=0 control=64 value=0 time=25
note_on channel=0 note=45 velocity=0 time=15
note_on channel=0 note=49 velocity=66 time=0
control_change channel=0 control=64 value=127 time=17
note_on channel=0 note=49 velocity=0 time=23
note_on channel=0 note=52 velocity=72 time=0
note_on channel=0 note=73 velocity=74 time=10
note_on channel=0 note=76 velocity=77 time=10
note_on channel=0 note=81 velocity=80 time=10
<meta message set_tempo tempo=410959 time=10>
note_on channel=0 note=52 velocity=0 time=0
note_on channel=0 note=85 velocity=0 time=0
note_on channel=0 note=85 velocity=90 time=0
note_on channel=0 note=57 velocity=87 time=0
note_on channel=0 note=57 velocity=0 time=120
<meta message set_tempo tempo=413793 time=120>
note_on channel=0 note=57 velocity=68 time=0
note_on channel=0 note=57 velocity=0 time=120
<meta message set_tempo tempo=416667 time=120>
note_on channel=0 note=76 velocity=0 time=0
note_on channel=0 note=81 velocity=0 time=0
note_on channel=0 note=73 velocity=0 time=0
note_on channel=0 note=57 velocity=68 time=0
note_on channel=0 note=57 velocity=0 time=120
<meta message set_tempo tempo=434783 time=120>
note_on channel=0 note=57 velocity=68 time=0
<meta message set_tempo tempo=422535 time=120>
note_on channel=0 note=57 velocity=0 time=0
note_on channel=0 note=45 velocity=61 time=0
control_change channel=0 control=64 value=0 time=4
note_on channel=0 note=45 velocity=0 time=36
note_on channel=0 note=49 velocity=66 time=0
control_change channel=0 control=64 value=127 time=10
note_on channel=0 note=49 velocity=0 time=30
note_on channel=0 note=52 velocity=72 time=0
<meta message set_tempo tempo=410959 time=40>
note_on channel=0 note=52 velocity=0 time=0
note_on channel=0 note=85 velocity=0 time=0
note_on channel=0 note=86 velocity=90 time=0
note_on channel=0 note=57 velocity=87 time=0
note_on channel=0 note=57 velocity=0 time=120
note_on channel=0 note=86 velocity=0 time=0
note_on channel=0 note=85 velocity=87 time=0
<meta message set_tempo tempo=413793 time=120>
note_on channel=0 note=85 velocity=0 time=0
note_on channel=0 note=83 velocity=86 time=0
note_on channel=0 note=57 velocity=67 time=0
note_on channel=0 note=83 velocity=0 time=60
note_on channel=0 note=57 velocity=0 time=60
note_on channel=0 note=85 velocity=86 time=0
note_on channel=0 note=85 velocity=0 time=60
<meta message set_tempo tempo=416667 time=60>
note_on channel=0 note=86 velocity=90 time=0
note_on channel=0 note=57 velocity=67 time=0
note_on channel=0 note=57 velocity=0 time=120
note_on channel=0 note=86 velocity=0 time=0
note_on channel=0 note=85 velocity=84 time=0
<meta message set_tempo tempo=434783 time=120>
note_on channel=0 note=85 velocity=0 time=0
note_on channel=0 note=83 velocity=84 time=0
note_on channel=0 note=57 velocity=67 time=0
note_on channel=0 note=83 velocity=0 time=60
<meta message set_tempo tempo=465116 time=60>
note_on channel=0 note=57 velocity=0 time=0
note_on channel=0 note=85 velocity=85 time=0
note_on channel=0 note=38 velocity=61 time=0
note_on channel=0 note=38 velocity=0 time=40
note_on channel=0 note=42 velocity=66 time=0
note_on channel=0 note=85 velocity=0 time=20
control_change channel=0 control=64 value=0 time=0
note_on channel=0 note=42 velocity=0 time=20
note_on channel=0 note=45 velocity=72 time=0
control_change channel=0 control=64 value=127 time=8
<meta message set_tempo tempo=410959 time=32>
note_on channel=0 note=45 velocity=0 time=0
note_on channel=0 note=78 velocity=80 time=0
note_on channel=0 note=81 velocity=80 time=0
note_on channel=0 note=86 velocity=90 time=0
note_on channel=0 note=50 velocity=87 time=0
note_on channel=0 note=50 velocity=0 time=120
<meta message set_tempo tempo=413793 time=120>
note_on channel=0 note=50 velocity=67 time=0
note_on channel=0 note=50 velocity=0 time=120
<meta message set_tempo tempo=416667 time=120>
note_on channel=0 note=50 velocity=67 time=0
note_on channel=0 note=50 velocity=0 time=120
note_on channel=0 note=50 velocity=67 time=113
<meta message set_tempo tempo=434783 time=7>
note_on channel=0 note=50 velocity=0 time=113
<meta message set_tempo tempo=422535 time=7>
note_on channel=0 note=45 velocity=61 time=0
control_change channel=0 control=64 value=0 time=25
note_on channel=0 note=45 velocity=0 time=15
note_on channel=0 note=49 velocity=66 time=0
control_change channel=0 control=64 value=127 time=27
note_on channel=0 note=49 velocity=0 time=13
note_on channel=0 note=52 velocity=72 time=0
note_on channel=0 note=86 velocity=76 time=10
<meta message set_tempo tempo=422535 time=30>
note_on channel=0 note=86 velocity=0 time=0
note_on channel=0 note=86 velocity=0 time=0
note_on channel=0 note=78 velocity=0 time=0
note_on channel=0 note=81 velocity=0 time=0
note_on channel=0 note=52 velocity=0 time=0
note_on channel=0 note=76 velocity=76 time=0
note_on channel=0 note=81 velocity=76 time=0
note_on channel=0 note=85 velocity=90 time=0
note_on channel=0 note=57 velocity=87 time=0
note_on channel=0 note=57 velocity=0 time=60
note_on channel=0 note=76 velocity=0 time=0
note_on channel=0 note=81 velocity=0 time=0
note_on channel=0 note=85 velocity=0 time=0
control_change channel=0 control=64 value=0 time=18
note_on channel=0 note=86 velocity=76 time=132
<meta message set_tempo tempo=413793 time=30>
note_on channel=0 note=86 velocity=0 time=0
note_on channel=0 note=76 velocity=72 time=0
note_on channel=0 note=81 velocity=72 time=0
note_on channel=0 note=85 velocity=85 time=0
note_on channel=0 note=57 velocity=67 time=0
note_on channel=0 note=57 velocity=0 time=60
note_on channel=0 note=76 velocity=0 time=0
note_on channel=0 note=81 velocity=0 time=0
note_on channel=0 note=85 velocity=0 time=0
note_on channel=0 note=86 velocity=76 time=150
<meta message set_tempo tempo=416667 time=30>
note_on channel=0 note=86 velocity=0 time=0
note_on channel=0 note=76 velocity=72 time=0
note_on channel=0 note=81 velocity=72 time=0
note_on channel=0 note=85 velocity=85 time=0
note_on channel=0 note=57 velocity=67 time=0
note_on channel=0 note=57 velocity=0 time=60
note_on channel=0 note=76 velocity=0 time=0
note_on channel=0 note=81 velocity=0 time=0
note_on channel=0 note=85 velocity=0 time=0
note_on channel=0 note=86 velocity=76 time=150
<meta message set_tempo tempo=434783 time=30>
note_on channel=0 note=86 velocity=0 time=0
note_on channel=0 note=76 velocity=72 time=0
note_on channel=0 note=81 velocity=72 time=0
note_on channel=0 note=85 velocity=85 time=0
note_on channel=0 note=57 velocity=67 time=0
note_on channel=0 note=57 velocity=0 time=60
note_on channel=0 note=76 velocity=0 time=0
note_on channel=0 note=81 velocity=0 time=0
note_on channel=0 note=85 velocity=0 time=0
<meta message set_tempo tempo=422535 time=60>
note_on channel=0 note=40 velocity=61 time=0
control_change channel=0 control=64 value=127 time=35
note_on channel=0 note=40 velocity=0 time=5
note_on channel=0 note=44 velocity=66 time=0
note_on channel=0 note=44 velocity=0 time=40
note_on channel=0 note=47 velocity=72 time=0
<meta message set_tempo tempo=410959 time=40>
note_on channel=0 note=47 velocity=0 time=0
note_on channel=0 note=76 velocity=80 time=0
note_on channel=0 note=80 velocity=80 time=0
note_on channel=0 note=83 velocity=90 time=0
note_on channel=0 note=52 velocity=87 time=0
note_on channel=0 note=52 velocity=0 time=120
<meta message set_tempo tempo=413793 time=120>
note_on channel=0 note=52 velocity=66 time=0
note_on channel=0 note=52 velocity=0 time=120
<meta message set_tempo tempo=416667 time=120>
note_on channel=0 note=52 velocity=66 time=0
note_on channel=0 note=52 velocity=0 time=120
<meta message set_tempo tempo=441176 time=120>
note_on channel=0 note=52 velocity=66 time=0
<meta message set_tempo tempo=625000 time=120>
note_on channel=0 note=52 velocity=0 time=0
note_on channel=0 note=83 velocity=0 time=0
note_on channel=0 note=88 velocity=103 time=0
note_on channel=0 note=45 velocity=61 time=0
control_change channel=0 control=64 value=0 time=24
note_on channel=0 note=45 velocity=0 time=16
note_on channel=0 note=49 velocity=66 time=0
control_change channel=0 control=64 value=127 time=31
note_on channel=0 note=49 velocity=0 time=9
note_on channel=0 note=52 velocity=72 time=0
note_on channel=0 note=88 velocity=0 time=10
note_on channel=0 note=73 velocity=74 time=0
note_on channel=0 note=76 velocity=77 time=10
note_on channel=0 note=81 velocity=80 time=10
<meta message set_tempo tempo=410959 time=10>
note_on channel=0 note=76 velocity=0 time=0
note_on channel=0 note=52 velocity=0 time=0
note_on channel=0 note=80 velocity=0 time=0
note_on channel=0 note=85 velocity=90 time=0
note_on channel=0 note=57 velocity=87 time=0
note_on channel=0 note=57 velocity=0 time=120
<meta message set_tempo tempo=413793 time=120>
note_on channel=0 note=57 velocity=68 time=0
note_on channel=0 note=57 velocity=0 time=120
<meta message set_tempo tempo=416667 time=120>
note_on channel=0 note=73 velocity=0 time=0
note_on channel=0 note=81 velocity=0 time=0
note_on channel=0 note=76 velocity=0 time=0
note_on channel=0 note=57 velocity=68 time=0
note_on channel=0 note=57 velocity=0 time=120
<meta message set_tempo tempo=434783 time=120>
note_on channel=0 note=57 velocity=68 time=0
<meta message set_tempo tempo=422535 time=120>
note_on channel=0 note=57 velocity=0 time=0
note_on channel=0 note=45 velocity=61 time=0
control_change channel=0 control=64 value=0 time=25
note_on channel=0 note=45 velocity=0 time=15
note_on channel=0 note=49 velocity=66 time=0
control_change channel=0 control=64 value=127 time=31
note_on channel=0 note=49 velocity=0 time=9
note_on channel=0 note=52 velocity=72 time=0
note_on channel=0 note=73 velocity=74 time=10
note_on channel=0 note=76 velocity=77 time=10
note_on channel=0 note=81 velocity=80 time=10
<meta message set_tempo tempo=410959 time=10>
note_on channel=0 note=52 velocity=0 time=0
note_on channel=0 note=85 velocity=0 time=0
note_on channel=0 note=85 velocity=90 time=0
note_on channel=0 note=57 velocity=87 time=0
note_on channel=0 note=57 velocity=0 time=120
<meta message set_tempo tempo=413793 time=120>
note_on channel=0 note=57 velocity=66 time=0
note_on channel=0 note=57 velocity=0 time=120
<meta message set_tempo tempo=416667 time=120>
note_on channel=0 note=76 velocity=0 time=0
note_on channel=0 note=81 velocity=0 time=0
note_on channel=0 note=73 velocity=0 time=0
note_on channel=0 note=57 velocity=66 time=0
note_on channel=0 note=57 velocity=0 time=120
<meta message set_tempo tempo=434783 time=120>
note_on channel=0 note=57 velocity=66 time=0
<meta message set_tempo tempo=422535 time=120>
note_on channel=0 note=57 velocity=0 time=0
note_on channel=0 note=45 velocity=61 time=0
control_change channel=0 control=64 value=0 time=4
note_on channel=0 note=45 velocity=0 time=36
note_on channel=0 note=49 velocity=66 time=0
control_change channel=0 control=64 value=127 time=3
note_on channel=0 note=49 velocity=0 time=37
note_on channel=0 note=52 velocity=72 time=0
<meta message set_tempo tempo=410959 time=40>
note_on channel=0 note=52 velocity=0 time=0
note_on channel=0 note=85 velocity=0 time=0
note_on channel=0 note=86 velocity=90 time=0
note_on channel=0 note=57 velocity=87 time=0
note_on channel=0 note=57 velocity=0 time=120
note_on channel=0 note=86 velocity=0 time=0
note_on channel=0 note=85 velocity=87 time=0
<meta message set_tempo tempo=413793 time=120>
note_on channel=0 note=85 velocity=0 time=0
note_on channel=0 note=83 velocity=86 time=0
note_on channel=0 note=57 velocity=66 time=0
note_on channel=0 note=83 velocity=0 time=60
note_on channel=0 note=57 velocity=0 time=60
note_on channel=0 note=85 velocity=86 time=0
note_on channel=0 note=85 velocity=0 time=60
<meta message set_tempo tempo=416667 time=60>
note_on channel=0 note=86 velocity=90 time=0
note_on channel=0 note=57 velocity=66 time=0
note_on channel=0 note=57 velocity=0 time=120
note_on channel=0 note=86 velocity=0 time=0
note_on channel=0 note=85 velocity=84 time=0
<meta message set_tempo tempo=434783 time=120>
note_on channel=0 note=85 velocity=0 time=0
note_on channel=0 note=83 velocity=84 time=0
note_on channel=0 note=57 velocity=66 time=0
note_on channel=0 note=83 velocity=0 time=60
<meta message set_tempo tempo=465116 time=60>
note_on channel=0 note=57 velocity=0 time=0
note_on channel=0 note=85 velocity=85 time=0
note_on channel=0 note=38 velocity=61 time=0
control_change channel=0 control=64 value=0 time=7
note_on channel=0 note=38 velocity=0 time=33
note_on channel=0 note=42 velocity=66 time=0
note_on channel=0 note=85 velocity=0 time=20
note_on channel=0 note=42 velocity=0 time=20
note_on channel=0 note=45 velocity=72 time=0
control_change channel=0 control=64 value=127 time=5
<meta message set_tempo tempo=410959 time=35>
note_on channel=0 note=45 velocity=0 time=0
note_on channel=0 note=78 velocity=80 time=0
note_on channel=0 note=81 velocity=80 time=0
note_on channel=0 note=86 velocity=90 time=0
note_on channel=0 note=50 velocity=87 time=0
note_on channel=0 note=50 velocity=0 time=120
<meta message set_tempo tempo=413793 time=120>
note_on channel=0 note=50 velocity=66 time=0
note_on channel=0 note=50 velocity=0 time=120
<meta message set_tempo tempo=416667 time=120>
note_on channel=0 note=50 velocity=66 time=0
note_on channel=0 note=50 velocity=0 time=120
note_on channel=0 note=50 velocity=66 time=113
<meta message set_tempo tempo=434783 time=7>
note_on channel=0 note=50 velocity=0 time=113
<meta message set_tempo tempo=422535 time=7>
note_on channel=0 note=45 velocity=61 time=0
control_change channel=0 control=64 value=0 time=25
note_on channel=0 note=45 velocity=0 time=15
note_on channel=0 note=49 velocity=66 time=0
note_on channel=0 note=49 velocity=0 time=40
note_on channel=0 note=52 velocity=72 time=0
note_on channel=0 note=86 velocity=76 time=10
<meta message set_tempo tempo=422535 time=30>
note_on channel=0 note=86 velocity=0 time=0
note_on channel=0 note=86 velocity=0 time=0
note_on channel=0 note=78 velocity=0 time=0
note_on channel=0 note=81 velocity=0 time=0
note_on channel=0 note=52 velocity=0 time=0
note_on channel=0 note=76 velocity=76 time=0
note_on channel=0 note=81 velocity=76 time=0
note_on channel=0 note=85 velocity=90 time=0
note_on channel=0 note=57 velocity=87 time=0
control_change channel=0 control=64 value=127 time=28
note_on channel=0 note=57 velocity=0 time=92
<meta message set_tempo tempo=413793 time=120>
note_on channel=0 note=57 velocity=66 time=0
note_on channel=0 note=57 velocity=0 time=120
<meta message set_tempo tempo=416667 time=120>
note_on channel=0 note=57 velocity=66 time=0
note_on channel=0 note=57 velocity=0 time=120
<meta message set_tempo tempo=434783 time=120>
note_on channel=0 note=57 velocity=66 time=0
<meta message set_tempo tempo=422535 time=120>
note_on channel=0 note=57 velocity=0 time=0
note_on channel=0 note=40 velocity=61 time=0
control_change channel=0 control=64 value=0 time=0
note_on channel=0 note=40 velocity=0 time=40
note_on channel=0 note=44 velocity=66 time=0
control_change channel=0 control=64 value=127 time=38
note_on channel=0 note=44 velocity=0 time=2
note_on channel=0 note=47 velocity=72 time=0
note_on channel=0 note=85 velocity=76 time=10
<meta message set_tempo tempo=410959 time=30>
note_on channel=0 note=85 velocity=0 time=0
note_on channel=0 note=85 velocity=0 time=0
note_on channel=0 note=76 velocity=0 time=0
note_on channel=0 note=81 velocity=0 time=0
note_on channel=0 note=47 velocity=0 time=0
note_on channel=0 note=76 velocity=76 time=0
note_on channel=0 note=80 velocity=76 time=0
note_on channel=0 note=83 velocity=90 time=0
note_on channel=0 note=52 velocity=87 time=0
note_on channel=0 note=52 velocity=0 time=60
note_on channel=0 note=76 velocity=0 time=0
note_on channel=0 note=80 velocity=0 time=0
note_on channel=0 note=83 velocity=0 time=0
note_on channel=0 note=85 velocity=76 time=150
<meta message set_tempo tempo=413793 time=30>
note_on channel=0 note=85 velocity=0 time=0
note_on channel=0 note=76 velocity=72 time=0
note_on channel=0 note=80 velocity=72 time=0
note_on channel=0 note=83 velocity=85 time=0
note_on channel=0 note=52 velocity=66 time=0
note_on channel=0 note=52 velocity=0 time=60
note_on channel=0 note=76 velocity=0 time=0
note_on channel=0 note=80 velocity=0 time=0
note_on channel=0 note=83 velocity=0 time=0
note_on channel=0 note=85 velocity=76 time=150
<meta message set_tempo tempo=416667 time=30>
note_on channel=0 note=85 velocity=0 time=0
note_on channel=0 note=76 velocity=72 time=0
note_on channel=0 note=80 velocity=72 time=0
note_on channel=0 note=83 velocity=85 time=0
note_on channel=0 note=52 velocity=65 time=0
note_on channel=0 note=52 velocity=0 time=60
note_on channel=0 note=76 velocity=0 time=0
note_on channel=0 note=80 velocity=0 time=0
note_on channel=0 note=83 velocity=0 time=0
note_on channel=0 note=85 velocity=76 time=150
<meta message set_tempo tempo=434783 time=30>
note_on channel=0 note=85 velocity=0 time=0
note_on channel=0 note=76 velocity=72 time=0
note_on channel=0 note=80 velocity=72 time=0
note_on channel=0 note=83 velocity=85 time=0
note_on channel=0 note=52 velocity=65 time=0
note_on channel=0 note=52 velocity=0 time=60
note_on channel=0 note=76 velocity=0 time=0
note_on channel=0 note=80 velocity=0 time=0
note_on channel=0 note=83 velocity=0 time=0
note_on channel=0 note=81 velocity=90 time=180
note_on channel=0 note=57 velocity=64 time=0
control_change channel=0 control=64 value=0 time=0
control_change channel=0 control=64 value=127 time=74
note_on channel=0 note=57 velocity=0 time=46
note_on channel=0 note=64 velocity=54 time=0
note_on channel=0 note=64 velocity=0 time=120
note_on channel=0 note=61 velocity=54 time=0
note_on channel=0 note=61 velocity=0 time=120
note_on channel=0 note=64 velocity=54 time=0
note_on channel=0 note=81 velocity=0 time=60
note_on channel=0 note=76 velocity=55 time=0
note_on channel=0 note=76 velocity=0 time=30
note_on channel=0 note=81 velocity=60 time=0
<meta message set_tempo tempo=416667 time=30>
note_on channel=0 note=81 velocity=0 time=0
note_on channel=0 note=64 velocity=0 time=0
note_on channel=0 note=85 velocity=67 time=0
note_on channel=0 note=57 velocity=40 time=0
note_on channel=0 note=57 velocity=0 time=120
note_on channel=0 note=64 velocity=31 time=0
<meta message set_tempo tempo=434783 time=120>
note_on channel=0 note=64 velocity=0 time=0
note_on channel=0 note=61 velocity=31 time=0
<meta message set_tempo tempo=422535 time=120>
note_on channel=0 note=61 velocity=0 time=0
note_on channel=0 note=85 velocity=0 time=0
note_on channel=0 note=85 velocity=63 time=0
note_on channel=0 note=64 velocity=31 time=0
note_on channel=0 note=85 velocity=0 time=60
note_on channel=0 note=76 velocity=55 time=0
note_on channel=0 note=76 velocity=0 time=30
note_on channel=0 note=81 velocity=60 time=0
<meta message set_tempo tempo=410959 time=30>
note_on channel=0 note=81 velocity=0 time=0
note_on channel=0 note=64 velocity=0 time=0
note_on channel=0 note=85 velocity=70 time=0
note_on channel=0 note=57 velocity=40 time=0
control_change channel=0 control=64 value=0 time=0
control_change channel=0 control=64 value=127 time=50
note_on channel=0 note=57 velocity=0 time=70
note_on channel=0 note=64 velocity=31 time=0
<meta message set_tempo tempo=413793 time=120>
note_on channel=0 note=64 velocity=0 time=0
note_on channel=0 note=61 velocity=31 time=0
note_on channel=0 note=61 velocity=0 time=120
note_on channel=0 note=64 velocity=31 time=0
<meta message set_tempo tempo=416667 time=120>
note_on channel=0 note=64 velocity=0 time=0
note_on channel=0 note=57 velocity=40 time=0
note_on channel=0 note=57 velocity=0 time=120
note_on channel=0 note=64 velocity=31 time=0
<meta message set_tempo tempo=434783 time=120>
note_on channel=0 note=64 velocity=0 time=0
note_on channel=0 note=61 velocity=31 time=0
<meta message set_tempo tempo=422535 time=120>
note_on channel=0 note=61 velocity=0 time=0
note_on channel=0 note=64 velocity=31 time=0
note_on channel=0 note=85 velocity=0 time=60
note_on channel=0 note=76 velocity=55 time=0
note_on channel=0 note=76 velocity=0 time=30
note_on channel=0 note=81 velocity=60 time=0
<meta message set_tempo tempo=410959 time=30>
note_on channel=0 note=81 velocity=0 time=0
note_on channel=0 note=64 velocity=0 time=0
note_on channel=0 note=85 velocity=69 time=0
note_on channel=0 note=57 velocity=40 time=0
control_change channel=0 control=64 value=0 time=0
control_change channel=0 control=64 value=127 time=46
note_on channel=0 note=57 velocity=0 time=74
note_on channel=0 note=64 velocity=31 time=0
<meta message set_tempo tempo=413793 time=120>
note_on channel=0 note=64 velocity=0 time=0
note_on channel=0 note=61 velocity=31 time=0
note_on channel=0 note=61 velocity=0 time=120
note_on channel=0 note=64 velocity=31 time=0
<meta message set_tempo tempo=416667 time=120>
note_on channel=0 note=64 velocity=0 time=0
note_on channel=0 note=57 velocity=40 time=0
note_on channel=0 note=57 velocity=0 time=120
note_on channel=0 note=64 velocity=31 time=0
<meta message set_tempo tempo=434783 time=120>
note_on channel=0 note=64 velocity=0 time=0
note_on channel=0 note=61 velocity=31 time=0
<meta message set_tempo tempo=422535 time=120>
note_on channel=0 note=61 velocity=0 time=0
note_on channel=0 note=64 velocity=31 time=0
<meta message set_tempo tempo=410959 time=120>
note_on channel=0 note=64 velocity=0 time=0
note_on channel=0 note=85 velocity=0 time=0
note_on channel=0 note=86 velocity=69 time=0
note_on channel=0 note=57 velocity=40 time=0
control_change channel=0 control=64 value=0 time=0
control_change channel=0 control=64 value=127 time=53
note_on channel=0 note=57 velocity=0 time=67
note_on channel=0 note=86 velocity=0 time=0
note_on channel=0 note=85 velocity=60 time=0
note_on channel=0 note=64 velocity=31 time=0
<meta message set_tempo tempo=413793 time=120>
note_on channel=0 note=64 velocity=0 time=0
note_on channel=0 note=85 velocity=0 time=0
note_on channel=0 note=83 velocity=60 time=0
note_on channel=0 note=61 velocity=31 time=0
note_on channel=0 note=83 velocity=0 time=60
note_on channel=0 note=61 velocity=0 time=60
note_on channel=0 note=85 velocity=60 time=0
note_on channel=0 note=64 velocity=31 time=0
note_on channel=0 note=85 velocity=0 time=60
<meta message set_tempo tempo=416667 time=60>
note_on channel=0 note=64 velocity=0 time=0
note_on channel=0 note=86 velocity=68 time=0
note_on channel=0 note=57 velocity=40 time=0
note_on channel=0 note=57 velocity=0 time=120
note_on channel=0 note=86 velocity=0 time=0
note_on channel=0 note=85 velocity=61 time=0
note_on channel=0 note=64 velocity=31 time=0
<meta message set_tempo tempo=434783 time=120>
note_on channel=0 note=64 velocity=0 time=0
note_on channel=0 note=85 velocity=0 time=0
note_on channel=0 note=83 velocity=61 time=0
note_on channel=0 note=61 velocity=31 time=0
note_on channel=0 note=83 velocity=0 time=60
<meta message set_tempo tempo=465116 time=60>
note_on channel=0 note=61 velocity=0 time=0
note_on channel=0 note=85 velocity=61 time=0
note_on channel=0 note=64 velocity=31 time=0
note_on channel=0 note=85 velocity=0 time=60
<meta message set_tempo tempo=410959 time=60>
note_on channel=0 note=64 velocity=0 time=0
note_on channel=0 note=86 velocity=67 time=0
note_on channel=0 note=57 velocity=40 time=0
control_change channel=0 control=64 value=0 time=10
note_on channel=0 note=57 velocity=0 time=110
note_on channel=0 note=66 velocity=31 time=0
control_change channel=0 control=64 value=127 time=14
<meta message set_tempo tempo=413793 time=106>
note_on channel=0 note=66 velocity=0 time=0
note_on channel=0 note=62 velocity=31 time=0
note_on channel=0 note=62 velocity=0 time=120
note_on channel=0 note=66 velocity=31 time=0
<meta message set_tempo tempo=416667 time=120>
note_on channel=0 note=66 velocity=0 time=0
note_on channel=0 note=57 velocity=40 time=0
note_on channel=0 note=57 velocity=0 time=120
note_on channel=0 note=66 velocity=31 time=0
<meta message set_tempo tempo=434783 time=120>
note_on channel=0 note=66 velocity=0 time=0
note_on channel=0 note=62 velocity=31 time=0
<meta message set_tempo tempo=422535 time=120>
note_on channel=0 note=62 velocity=0 time=0
note_on channel=0 note=66 velocity=31 time=0
note_on channel=0 note=86 velocity=59 time=90
<meta message set_tempo tempo=422535 time=30>
note_on channel=0 note=86 velocity=0 time=0
note_on channel=0 note=66 velocity=0 time=0
note_on channel=0 note=86 velocity=0 time=0
note_on channel=0 note=85 velocity=71 time=0
note_on channel=0 note=57 velocity=40 time=0
control_change channel=0 control=64 value=0 time=43
note_on channel=0 note=85 velocity=0 time=17
control_change channel=0 control=64 value=127 time=43
note_on channel=0 note=57 velocity=0 time=17
note_on channel=0 note=64 velocity=31 time=0
note_on channel=0 note=86 velocity=56 time=90
<meta message set_tempo tempo=413793 time=30>
note_on channel=0 note=86 velocity=0 time=0
note_on channel=0 note=64 velocity=0 time=0
note_on channel=0 note=85 velocity=64 time=0
note_on channel=0 note=61 velocity=31 time=0
note_on channel=0 note=85 velocity=0 time=60
note_on channel=0 note=61 velocity=0 time=60
note_on channel=0 note=64 velocity=31 time=0
note_on channel=0 note=86 velocity=57 time=90
<meta message set_tempo tempo=416667 time=30>
note_on channel=0 note=86 velocity=0 time=0
note_on channel=0 note=64 velocity=0 time=0
note_on channel=0 note=85 velocity=65 time=0
note_on channel=0 note=57 velocity=40 time=0
note_on channel=0 note=85 velocity=0 time=60
note_on channel=0 note=57 velocity=0 time=60
note_on channel=0 note=64 velocity=31 time=0
note_on channel=0 note=86 velocity=59 time=90
<meta message set_tempo tempo=434783 time=30>
note_on channel=0 note=86 velocity=0 time=0
note_on channel=0 note=64 velocity=0 time=0
note_on channel=0 note=85 velocity=66 time=0
note_on channel=0 note=61 velocity=31 time=0
note_on channel=0 note=85 velocity=0 time=60
<meta message set_tempo tempo=422535 time=60>
note_on channel=0 note=61 velocity=0 time=0
note_on channel=0 note=64 velocity=31 time=0
<meta message set_tempo tempo=410959 time=120>
note_on channel=0 note=64 velocity=0 time=0
note_on channel=0 note=83 velocity=67 time=0
note_on channel=0 note=52 velocity=40 time=0
control_change channel=0 control=64 value=0 time=0
control_change channel=0 control=64 value=127 time=50
note_on channel=0 note=52 velocity=0 time=70
note_on channel=0 note=64 velocity=31 time=0
<meta message set_tempo tempo=413793 time=120>
note_on channel=0 note=64 velocity=0 time=0
note_on channel=0 note=59 velocity=31 time=0
note_on channel=0 note=59 velocity=0 time=120
note_on channel=0 note=64 velocity=31 time=0
<meta message set_tempo tempo=416667 time=120>
note_on channel=0 note=64 velocity=0 time=0
note_on channel=0 note=52 velocity=40 time=0
note_on channel=0 note=52 velocity=0 time=120
note_on channel=0 note=64 velocity=31 time=0
<meta message set_tempo tempo=434783 time=120>
note_on channel=0 note=64 velocity=0 time=0
note_on channel=0 note=59 velocity=31 time=0
<meta message set_tempo tempo=571429 time=120>
note_on channel=0 note=59 velocity=0 time=0
note_on channel=0 note=83 velocity=0 time=0
note_on channel=0 note=88 velocity=94 time=0
note_on channel=0 note=64 velocity=31 time=0
note_on channel=0 note=64 velocity=0 time=60
note_on channel=0 note=45 velocity=61 time=0
note_on channel=0 note=45 velocity=0 time=20
note_on channel=0 note=49 velocity=61 time=0
note_on channel=0 note=88 velocity=0 time=10
note_on channel=0 note=73 velocity=74 time=0
note_on channel=0 note=49 velocity=0 time=10
note_on channel=0 note=76 velocity=77 time=0
note_on channel=0 note=52 velocity=61 time=0
note_on channel=0 note=81 velocity=80 time=10
<meta message set_tempo tempo=410959 time=10>
note_on channel=0 note=52 velocity=0 time=0
note_on channel=0 note=85 velocity=90 time=0
note_on channel=0 note=57 velocity=87 time=0
control_change channel=0 control=64 value=0 time=2
control_change channel=0 control=64 value=127 time=55
note_on channel=0 note=57 velocity=0 time=63
<meta message set_tempo tempo=413793 time=120>
note_on channel=0 note=57 velocity=67 time=0
note_on channel=0 note=57 velocity=0 time=120
<meta message set_tempo tempo=416667 time=120>
note_on channel=0 note=73 velocity=0 time=0
note_on channel=0 note=81 velocity=0 time=0
note_on channel=0 note=76 velocity=0 time=0
note_on channel=0 note=57 velocity=67 time=0
note_on channel=0 note=57 velocity=0 time=120
<meta message set_tempo tempo=434783 time=120>
note_on channel=0 note=57 velocity=64 time=0
<meta message set_tempo tempo=422535 time=120>
note_on channel=0 note=57 velocity=0 time=0
note_on channel=0 note=45 velocity=61 time=0
control_change channel=0 control=64 value=0 time=25
note_on channel=0 note=45 velocity=0 time=15
note_on channel=0 note=49 velocity=66 time=0
control_change channel=0 control=64 value=127 time=34
note_on channel=0 note=49 velocity=0 time=6
note_on channel=0 note=52 velocity=72 time=0
note_on channel=0 note=73 velocity=74 time=10
note_on channel=0 note=76 velocity=77 time=10
note_on channel=0 note=81 velocity=80 time=10
<meta message set_tempo tempo=410959 time=10>
note_on channel=0 note=52 velocity=0 time=0
note_on channel=0 note=85 velocity=0 time=0
note_on channel=0 note=85 velocity=90 time=0
note_on channel=0 note=57 velocity=87 time=0
note_on channel=0 note=57 velocity=0 time=120
<meta message set_tempo tempo=413793 time=120>
note_on channel=0 note=57 velocity=66 time=0
note_on channel=0 note=57 velocity=0 time=120
<meta message set_tempo tempo=416667 time=120>
note_on channel=0 note=76 velocity=0 time=0
note_on channel=0 note=81 velocity=0 time=0
note_on channel=0 note=73 velocity=0 time=0
note_on channel=0 note=57 velocity=66 time=0
note_on channel=0 note=57 velocity=0 time=120
<meta message set_tempo tempo=434783 time=120>
note_on channel=0 note=57 velocity=66 time=0
<meta message set_tempo tempo=422535 time=120>
note_on channel=0 note=57 velocity=0 time=0
note_on channel=0 note=45 velocity=61 time=0
control_change channel=0 control=64 value=0 time=4
note_on channel=0 note=45 velocity=0 time=36
note_on channel=0 note=49 velocity=66 time=0
control_change channel=0 control=64 value=127 time=13
note_on channel=0 note=49 velocity=0 time=27
note_on channel=0 note=52 velocity=72 time=0
<meta message set_tempo tempo=410959 time=40>
note_on channel=0 note=52 velocity=0 time=0
note_on channel=0 note=85 velocity=0 time=0
note_on channel=0 note=86 velocity=90 time=0
note_on channel=0 note=57 velocity=87 time=0
note_on channel=0 note=57 velocity=0 time=120
note_on channel=0 note=86 velocity=0 time=0
note_on channel=0 note=85 velocity=87 time=0
<meta message set_tempo tempo=413793 time=120>
note_on channel=0 note=85 velocity=0 time=0
note_on channel=0 note=83 velocity=86 time=0
note_on channel=0 note=57 velocity=67 time=0
note_on channel=0 note=83 velocity=0 time=60
note_on channel=0 note=57 velocity=0 time=60
note_on channel=0 note=85 velocity=86 time=0
note_on channel=0 note=85 velocity=0 time=60
<meta message set_tempo tempo=416667 time=60>
note_on channel=0 note=86 velocity=90 time=0
note_on channel=0 note=57 velocity=67 time=0
note_on channel=0 note=57 velocity=0 time=120
note_on channel=0 note=86 velocity=0 time=0
note_on channel=0 note=85 velocity=84 time=0
<meta message set_tempo tempo=434783 time=120>
note_on channel=0 note=85 velocity=0 time=0
note_on channel=0 note=83 velocity=84 time=0
note_on channel=0 note=57 velocity=67 time=0
note_on channel=0 note=83 velocity=0 time=60
<meta message set_tempo tempo=465116 time=60>
note_on channel=0 note=57 velocity=0 time=0
note_on channel=0 note=85 velocity=85 time=0
note_on channel=0 note=38 velocity=61 time=0
note_on channel=0 note=38 velocity=0 time=40
note_on channel=0 note=42 velocity=66 time=0
note_on channel=0 note=85 velocity=0 time=20
control_change channel=0 control=64 value=0 time=0
note_on channel=0 note=42 velocity=0 time=20
note_on channel=0 note=45 velocity=72 time=0
<meta message set_tempo tempo=410959 time=40>
note_on channel=0 note=45 velocity=0 time=0
note_on channel=0 note=78 velocity=80 time=0
note_on channel=0 note=81 velocity=80 time=0
note_on channel=0 note=86 velocity=90 time=0
note_on channel=0 note=50 velocity=87 time=0
control_change channel=0 control=64 value=127 time=28
note_on channel=0 note=50 velocity=0 time=92
<meta message set_tempo tempo=413793 time=120>
note_on channel=0 note=50 velocity=68 time=0
note_on channel=0 note=50 velocity=0 time=120
<meta message set_tempo tempo=416667 time=120>
note_on channel=0 note=50 velocity=68 time=0
note_on channel=0 note=50 velocity=0 time=120
note_on channel=0 note=50 velocity=68 time=113
<meta message set_tempo tempo=434783 time=7>
note_on channel=0 note=50 velocity=0 time=113
<meta message set_tempo tempo=422535 time=7>
note_on channel=0 note=45 velocity=61 time=0
control_change channel=0 control=64 value=0 time=25
note_on channel=0 note=45 velocity=0 time=15
note_on channel=0 note=49 velocity=66 time=0
note_on channel=0 note=49 velocity=0 time=40
note_on channel=0 note=52 velocity=72 time=0
note_on channel=0 note=86 velocity=76 time=10
<meta message set_tempo tempo=422535 time=30>
note_on channel=0 note=86 velocity=0 time=0
note_on channel=0 note=86 velocity=0 time=0
note_on channel=0 note=78 velocity=0 time=0
note_on channel=0 note=81 velocity=0 time=0
note_on channel=0 note=52 velocity=0 time=0
note_on channel=0 note=76 velocity=76 time=0
note_on channel=0 note=81 velocity=76 time=0
note_on channel=0 note=85 velocity=90 time=0
note_on channel=0 note=57 velocity=87 time=0
control_change channel=0 control=64 value=127 time=46
note_on channel=0 note=57 velocity=0 time=74
<meta message set_tempo tempo=413793 time=120>
note_on channel=0 note=57 velocity=67 time=0
note_on channel=0 note=57 velocity=0 time=120
<meta message set_tempo tempo=416667 time=120>
note_on channel=0 note=57 velocity=67 time=0
note_on channel=0 note=57 velocity=0 time=120
<meta message set_tempo tempo=434783 time=120>
note_on channel=0 note=57 velocity=67 time=0
<meta message set_tempo tempo=422535 time=120>
note_on channel=0 note=57 velocity=0 time=0
note_on channel=0 note=40 velocity=61 time=0
control_change channel=0 control=64 value=0 time=0
note_on channel=0 note=40 velocity=0 time=40
note_on channel=0 note=44 velocity=66 time=0
control_change channel=0 control=64 value=127 time=20
note_on channel=0 note=44 velocity=0 time=20
note_on channel=0 note=47 velocity=72 time=0
note_on channel=0 note=85 velocity=76 time=10
<meta message set_tempo tempo=410959 time=30>
note_on channel=0 note=85 velocity=0 time=0
note_on channel=0 note=85 velocity=0 time=0
note_on channel=0 note=76 velocity=0 time=0
note_on channel=0 note=81 velocity=0 time=0
note_on channel=0 note=47 velocity=0 time=0
note_on channel=0 note=76 velocity=76 time=0
note_on channel=0 note=80 velocity=76 time=0
note_on channel=0 note=83 velocity=90 time=0
note_on channel=0 note=52 velocity=87 time=0
note_on channel=0 note=52 velocity=0 time=60
note_on channel=0 note=76 velocity=0 time=0
note_on channel=0 note=80 velocity=0 time=0
note_on channel=0 note=83 velocity=0 time=0
note_on channel=0 note=85 velocity=76 time=150
<meta message set_tempo tempo=413793 time=30>
note_on channel=0 note=85 velocity=0 time=0
note_on channel=0 note=76 velocity=72 time=0
note_on channel=0 note=80 velocity=72 time=0
note_on channel=0 note=83 velocity=85 time=0
note_on channel=0 note=52 velocity=67 time=0
note_on channel=0 note=52 velocity=0 time=60
note_on channel=0 note=76 velocity=0 time=0
note_on channel=0 note=80 velocity=0 time=0
note_on channel=0 note=83 velocity=0 time=0
note_on channel=0 note=85 velocity=76 time=150
<meta message set_tempo tempo=416667 time=30>
note_on channel=0 note=85 velocity=0 time=0
note_on channel=0 note=76 velocity=72 time=0
note_on channel=0 note=80 velocity=72 time=0
note_on channel=0 note=83 velocity=85 time=0
note_on channel=0 note=52 velocity=67 time=0
note_on channel=0 note=52 velocity=0 time=60
note_on channel=0 note=76 velocity=0 time=0
note_on channel=0 note=80 velocity=0 time=0
note_on channel=0 note=83 velocity=0 time=0
note_on channel=0 note=85 velocity=76 time=150
<meta message set_tempo tempo=434783 time=30>
note_on channel=0 note=85 velocity=0 time=0
note_on channel=0 note=76 velocity=72 time=0
note_on channel=0 note=80 velocity=72 time=0
note_on channel=0 note=83 velocity=85 time=0
note_on channel=0 note=52 velocity=67 time=0
note_on channel=0 note=52 velocity=0 time=60
note_on channel=0 note=76 velocity=0 time=0
note_on channel=0 note=80 velocity=0 time=0
note_on channel=0 note=83 velocity=0 time=0
<meta message set_tempo tempo=422535 time=60>
note_on channel=0 note=45 velocity=61 time=0
control_change channel=0 control=64 value=0 time=18
note_on channel=0 note=45 velocity=0 time=22
note_on channel=0 note=49 velocity=66 time=0
control_change channel=0 control=64 value=127 time=14
note_on channel=0 note=49 velocity=0 time=26
note_on channel=0 note=52 velocity=72 time=0
<meta message set_tempo tempo=422535 time=40>
note_on channel=0 note=52 velocity=0 time=0
note_on channel=0 note=69 velocity=90 time=0
note_on channel=0 note=73 velocity=90 time=0
note_on channel=0 note=76 velocity=90 time=0
note_on channel=0 note=81 velocity=90 time=0
note_on channel=0 note=57 velocity=87 time=0
note_on channel=0 note=57 velocity=0 time=120
note_on channel=0 note=57 velocity=67 time=120
note_on channel=0 note=57 velocity=0 time=120
note_on channel=0 note=57 velocity=67 time=120
note_on channel=0 note=57 velocity=0 time=120
<meta message set_tempo tempo=461538 time=120>
note_on channel=0 note=76 velocity=0 time=0
note_on channel=0 note=69 velocity=0 time=0
note_on channel=0 note=73 velocity=0 time=0
note_on channel=0 note=81 velocity=0 time=0
note_on channel=0 note=73 velocity=73 time=0
note_on channel=0 note=85 velocity=87 time=0
note_on channel=0 note=57 velocity=67 time=0
note_on channel=0 note=85 velocity=0 time=60
note_on channel=0 note=73 velocity=0 time=0
note_on channel=0 note=57 velocity=0 time=60
note_on channel=0 note=45 velocity=61 time=0
note_on channel=0 note=45 velocity=0 time=40
note_on channel=0 note=49 velocity=66 time=0
note_on channel=0 note=49 velocity=0 time=40
note_on channel=0 note=52 velocity=72 time=0
<meta message set_tempo tempo=422535 time=40>
note_on channel=0 note=52 velocity=0 time=0
note_on channel=0 note=69 velocity=90 time=0
note_on channel=0 note=81 velocity=90 time=0
note_on channel=0 note=57 velocity=87 time=0
note_on channel=0 note=57 velocity=0 time=120
note_on channel=0 note=57 velocity=66 time=120
note_on channel=0 note=57 velocity=0 time=120
note_on channel=0 note=57 velocity=66 time=120
note_on channel=0 note=57 velocity=0 time=120
<meta message set_tempo tempo=468750 time=120>
note_on channel=0 note=81 velocity=0 time=0
note_on channel=0 note=69 velocity=0 time=0
note_on channel=0 note=73 velocity=73 time=0
note_on channel=0 note=85 velocity=87 time=0
note_on channel=0 note=57 velocity=66 time=0
note_on channel=0 note=85 velocity=0 time=60
note_on channel=0 note=73 velocity=0 time=0
note_on channel=0 note=57 velocity=0 time=60
note_on channel=0 note=45 velocity=61 time=0
note_on channel=0 note=45 velocity=0 time=40
note_on channel=0 note=49 velocity=66 time=0
note_on channel=0 note=49 velocity=0 time=40
note_on channel=0 note=52 velocity=72 time=0
<meta message set_tempo tempo=422535 time=40>
note_on channel=0 note=52 velocity=0 time=0
note_on channel=0 note=69 velocity=90 time=0
note_on channel=0 note=81 velocity=90 time=0
note_on channel=0 note=57 velocity=87 time=0
note_on channel=0 note=57 velocity=0 time=120
note_on channel=0 note=57 velocity=67 time=120
note_on channel=0 note=57 velocity=0 time=120
note_on channel=0 note=57 velocity=67 time=120
note_on channel=0 note=57 velocity=0 time=120
<meta message set_tempo tempo=458015 time=120>
note_on channel=0 note=81 velocity=0 time=0
note_on channel=0 note=69 velocity=0 time=0
note_on channel=0 note=73 velocity=73 time=0
note_on channel=0 note=85 velocity=87 time=0
note_on channel=0 note=57 velocity=67 time=0
note_on channel=0 note=85 velocity=0 time=60
note_on channel=0 note=73 velocity=0 time=0
note_on channel=0 note=57 velocity=0 time=60
note_on channel=0 note=45 velocity=61 time=0
note_on channel=0 note=45 velocity=0 time=40
note_on channel=0 note=49 velocity=66 time=0
note_on channel=0 note=49 velocity=0 time=40
note_on channel=0 note=52 velocity=72 time=0
<meta message set_tempo tempo=425532 time=40>
note_on channel=0 note=52 velocity=0 time=0
note_on channel=0 note=69 velocity=82 time=0
note_on channel=0 note=81 velocity=97 time=0
note_on channel=0 note=57 velocity=95 time=0
note_on channel=0 note=57 velocity=0 time=120
note_on channel=0 note=81 velocity=0 time=0
note_on channel=0 note=69 velocity=0 time=0
<meta message set_tempo tempo=416667 time=120>
note_on channel=0 note=73 velocity=78 time=0
note_on channel=0 note=85 velocity=92 time=0
note_on channel=0 note=57 velocity=70 time=0
note_on channel=0 note=57 velocity=0 time=120
note_on channel=0 note=85 velocity=0 time=0
note_on channel=0 note=73 velocity=0 time=0
note_on channel=0 note=45 velocity=67 time=0
note_on channel=0 note=45 velocity=0 time=40
note_on channel=0 note=49 velocity=72 time=0
note_on channel=0 note=49 velocity=0 time=40
note_on channel=0 note=52 velocity=79 time=0
note_on channel=0 note=52 velocity=0 time=40
note_on channel=0 note=69 velocity=83 time=0
note_on channel=0 note=81 velocity=99 time=0
note_on channel=0 note=57 velocity=95 time=0
note_on channel=0 note=57 velocity=0 time=120
note_on channel=0 note=81 velocity=0 time=0
note_on channel=0 note=69 velocity=0 time=0
<meta message set_tempo tempo=447761 time=120>
note_on channel=0 note=73 velocity=79 time=0
note_on channel=0 note=85 velocity=93 time=0
note_on channel=0 note=57 velocity=70 time=0
note_on channel=0 note=57 velocity=0 time=120
note_on channel=0 note=85 velocity=0 time=0
note_on channel=0 note=73 velocity=0 time=0
<meta message set_tempo tempo=458015 time=120>
note_on channel=0 note=69 velocity=90 time=0
note_on channel=0 note=81 velocity=108 time=0
note_on channel=0 note=45 velocity=88 time=0
control_change channel=0 control=64 value=0 time=8
control_change channel=0 control=64 value=127 time=286
<meta message set_tempo tempo=500000 time=186>
note_on channel=0 note=45 velocity=0 time=0
note_on channel=0 note=81 velocity=0 time=0
note_on channel=0 note=69 velocity=0 time=0
note_on channel=0 note=69 velocity=82 time=0
note_on channel=0 note=73 velocity=82 time=0
note_on channel=0 note=76 velocity=82 time=0
note_on channel=0 note=81 velocity=97 time=0
note_on channel=0 note=57 velocity=88 time=0
note_on channel=0 note=57 velocity=0 time=480
note_on channel=0 note=76 velocity=0 time=0
note_on channel=0 note=69 velocity=0 time=0
note_on channel=0 note=73 velocity=0 time=0
note_on channel=0 note=81 velocity=0 time=0
note_on channel=0 note=69 velocity=86 time=0
note_on channel=0 note=73 velocity=86 time=0
note_on channel=0 note=76 velocity=86 time=0
note_on channel=0 note=81 velocity=103 time=0
note_on channel=0 note=45 velocity=74 time=0
note_on channel=0 note=49 velocity=74 time=0
note_on channel=0 note=52 velocity=74 time=0
note_on channel=0 note=57 velocity=88 time=0
note_on channel=0 note=57 velocity=0 time=480
note_on channel=0 note=69 velocity=0 time=0
note_on channel=0 note=45 velocity=0 time=0
note_on channel=0 note=73 velocity=0 time=0
note_on channel=0 note=76 velocity=0 time=0
note_on channel=0 note=81 velocity=0 time=0
note_on channel=0 note=49 velocity=0 time=0
note_on channel=0 note=52 velocity=0 time=0
control_change channel=0 control=64 value=0 time=480
<meta message end_of_track time=0>
