<meta message track_name name='Vier Impromptus Opus 90 D 899' time=0>
<meta message track_name name='Impromptu Nr. 2 Es-Dur' time=0>
<meta message copyright text='Copyright © 1996 von Bernd Krüger.' time=0>
<meta message text text='Schubert' time=0>
<meta message text text='Allegro' time=0>
<meta message text text='Korrekturen am 5.9.98\n' time=0>
<meta message text text='Vorbereitende Korrekturen am 4.4.99\n' time=0>
<meta message text text='Update am 1.5.99\n' time=0>
<meta message text text='Normierung: 23.12.2002\n' time=0>
<meta message text text='Überarbeitet: 13.5.2007\n' time=0>
<meta message text text='Dauer: 4:30 Minuten\n' time=0>
<meta message time_signature numerator=3 denominator=4 clocks_per_click=24 notated_32nd_notes_per_beat=8 time=0>
<meta message key_signature key='Eb' time=0>
<meta message set_tempo tempo=300000 time=0>
<meta message marker text='Allegro' time=0>
program_change channel=0 program=0 time=0
control_change channel=0 control=7 value=100 time=0
control_change channel=0 control=10 value=64 time=0
control_change channel=0 control=91 value=127 time=0
<meta message text text='bdca426d104a26ac9dcb070447587523' time=0>
program_change channel=0 program=0 time=0
control_change channel=0 control=7 value=100 time=0
control_change channel=0 control=10 value=64 time=0
control_change channel=0 control=91 value=127 time=0
control_change channel=0 control=64 value=0 time=0
control_change channel=0 control=64 value=0 time=900
<meta message set_tempo tempo=332410 time=48>
note_on channel=0 note=82 velocity=48 time=12
note_on channel=0 note=82 velocity=0 time=480
note_on channel=0 note=79 velocity=48 time=0
note_on channel=0 note=51 velocity=39 time=0
note_on channel=0 note=79 velocity=0 time=160
note_on channel=0 note=82 velocity=44 time=0
note_on channel=0 note=82 velocity=0 time=160
note_on channel=0 note=80 velocity=40 time=0
<meta message set_tempo tempo=300000 time=160>
note_on channel=0 note=80 velocity=0 time=0
note_on channel=0 note=79 velocity=48 time=0
note_on channel=0 note=58 velocity=32 time=0
note_on channel=0 note=79 velocity=0 time=160
note_on channel=0 note=77 velocity=45 time=0
note_on channel=0 note=77 velocity=0 time=160
note_on channel=0 note=75 velocity=40 time=0
note_on channel=0 note=75 velocity=0 time=160
note_on channel=0 note=74 velocity=48 time=0
note_on channel=0 note=74 velocity=0 time=160
note_on channel=0 note=72 velocity=45 time=0
note_on channel=0 note=72 velocity=0 time=160
note_on channel=0 note=70 velocity=42 time=0
<meta message set_tempo tempo=305344 time=160>
note_on channel=0 note=70 velocity=0 time=0
note_on channel=0 note=58 velocity=0 time=0
note_on channel=0 note=51 velocity=0 time=0
note_on channel=0 note=68 velocity=48 time=0
note_on channel=0 note=53 velocity=36 time=0
note_on channel=0 note=68 velocity=0 time=160
note_on channel=0 note=67 velocity=45 time=0
note_on channel=0 note=67 velocity=0 time=160
note_on channel=0 note=65 velocity=45 time=0
<meta message set_tempo tempo=300000 time=160>
note_on channel=0 note=65 velocity=0 time=0
note_on channel=0 note=63 velocity=48 time=0
note_on channel=0 note=58 velocity=31 time=0
note_on channel=0 note=63 velocity=0 time=160
note_on channel=0 note=62 velocity=43 time=0
note_on channel=0 note=62 velocity=0 time=160
note_on channel=0 note=60 velocity=43 time=0
note_on channel=0 note=60 velocity=0 time=160
note_on channel=0 note=58 velocity=48 time=0
note_on channel=0 note=58 velocity=0 time=160
note_on channel=0 note=60 velocity=44 time=0
note_on channel=0 note=60 velocity=0 time=160
note_on channel=0 note=62 velocity=41 time=0
<meta message set_tempo tempo=306905 time=160>
note_on channel=0 note=62 velocity=0 time=0
note_on channel=0 note=58 velocity=0 time=0
note_on channel=0 note=53 velocity=0 time=0
note_on channel=0 note=63 velocity=48 time=0
note_on channel=0 note=55 velocity=39 time=0
note_on channel=0 note=63 velocity=0 time=160
note_on channel=0 note=62 velocity=44 time=0
note_on channel=0 note=62 velocity=0 time=160
note_on channel=0 note=63 velocity=44 time=0
<meta message set_tempo tempo=300000 time=160>
note_on channel=0 note=63 velocity=0 time=0
note_on channel=0 note=64 velocity=53 time=0
note_on channel=0 note=58 velocity=31 time=0
note_on channel=0 note=64 velocity=0 time=160
note_on channel=0 note=63 velocity=50 time=0
note_on channel=0 note=63 velocity=0 time=160
note_on channel=0 note=64 velocity=49 time=0
note_on channel=0 note=64 velocity=0 time=160
note_on channel=0 note=65 velocity=55 time=0
note_on channel=0 note=65 velocity=0 time=160
note_on channel=0 note=64 velocity=49 time=0
note_on channel=0 note=64 velocity=0 time=160
note_on channel=0 note=65 velocity=50 time=0
<meta message set_tempo tempo=305344 time=160>
note_on channel=0 note=65 velocity=0 time=0
note_on channel=0 note=58 velocity=0 time=0
note_on channel=0 note=55 velocity=0 time=0
note_on channel=0 note=66 velocity=60 time=0
note_on channel=0 note=50 velocity=39 time=0
note_on channel=0 note=66 velocity=0 time=160
note_on channel=0 note=65 velocity=53 time=0
note_on channel=0 note=65 velocity=0 time=160
note_on channel=0 note=66 velocity=53 time=0
<meta message set_tempo tempo=300000 time=160>
note_on channel=0 note=66 velocity=0 time=0
note_on channel=0 note=67 velocity=54 time=0
note_on channel=0 note=58 velocity=30 time=0
note_on channel=0 note=67 velocity=0 time=160
note_on channel=0 note=66 velocity=51 time=0
note_on channel=0 note=66 velocity=0 time=160
note_on channel=0 note=67 velocity=50 time=0
note_on channel=0 note=67 velocity=0 time=160
note_on channel=0 note=68 velocity=48 time=0
note_on channel=0 note=68 velocity=0 time=160
note_on channel=0 note=67 velocity=45 time=0
note_on channel=0 note=67 velocity=0 time=160
note_on channel=0 note=68 velocity=48 time=0
<meta message set_tempo tempo=304569 time=160>
note_on channel=0 note=68 velocity=0 time=0
note_on channel=0 note=58 velocity=0 time=0
note_on channel=0 note=50 velocity=0 time=0
note_on channel=0 note=67 velocity=48 time=0
note_on channel=0 note=51 velocity=40 time=0
note_on channel=0 note=67 velocity=0 time=160
note_on channel=0 note=70 velocity=51 time=0
note_on channel=0 note=70 velocity=0 time=160
note_on channel=0 note=68 velocity=51 time=0
<meta message set_tempo tempo=300000 time=160>
note_on channel=0 note=68 velocity=0 time=0
note_on channel=0 note=67 velocity=50 time=0
note_on channel=0 note=58 velocity=31 time=0
note_on channel=0 note=67 velocity=0 time=160
note_on channel=0 note=68 velocity=47 time=0
note_on channel=0 note=68 velocity=0 time=160
note_on channel=0 note=70 velocity=47 time=0
note_on channel=0 note=70 velocity=0 time=160
note_on channel=0 note=72 velocity=49 time=0
note_on channel=0 note=72 velocity=0 time=160
note_on channel=0 note=74 velocity=46 time=0
note_on channel=0 note=74 velocity=0 time=160
note_on channel=0 note=75 velocity=46 time=0
<meta message set_tempo tempo=306905 time=160>
note_on channel=0 note=75 velocity=0 time=0
note_on channel=0 note=58 velocity=0 time=0
note_on channel=0 note=51 velocity=0 time=0
note_on channel=0 note=77 velocity=48 time=0
note_on channel=0 note=44 velocity=40 time=0
note_on channel=0 note=77 velocity=0 time=160
note_on channel=0 note=84 velocity=49 time=0
note_on channel=0 note=84 velocity=0 time=160
note_on channel=0 note=82 velocity=49 time=0
<meta message set_tempo tempo=300000 time=160>
note_on channel=0 note=82 velocity=0 time=0
note_on channel=0 note=44 velocity=0 time=0
note_on channel=0 note=80 velocity=48 time=0
note_on channel=0 note=60 velocity=32 time=0
note_on channel=0 note=56 velocity=28 time=0
note_on channel=0 note=80 velocity=0 time=160
note_on channel=0 note=79 velocity=45 time=0
note_on channel=0 note=79 velocity=0 time=160
note_on channel=0 note=77 velocity=43 time=0
note_on channel=0 note=77 velocity=0 time=160
note_on channel=0 note=75 velocity=48 time=0
note_on channel=0 note=75 velocity=0 time=160
note_on channel=0 note=74 velocity=45 time=0
note_on channel=0 note=74 velocity=0 time=160
note_on channel=0 note=72 velocity=43 time=0
<meta message set_tempo tempo=305344 time=160>
note_on channel=0 note=72 velocity=0 time=0
note_on channel=0 note=56 velocity=0 time=0
note_on channel=0 note=60 velocity=0 time=0
note_on channel=0 note=70 velocity=47 time=0
note_on channel=0 note=46 velocity=48 time=0
note_on channel=0 note=70 velocity=0 time=160
note_on channel=0 note=77 velocity=48 time=0
note_on channel=0 note=77 velocity=0 time=160
note_on channel=0 note=75 velocity=45 time=0
<meta message set_tempo tempo=300000 time=160>
note_on channel=0 note=75 velocity=0 time=0
note_on channel=0 note=46 velocity=0 time=0
note_on channel=0 note=74 velocity=48 time=0
note_on channel=0 note=62 velocity=37 time=0
note_on channel=0 note=58 velocity=33 time=0
note_on channel=0 note=56 velocity=33 time=0
note_on channel=0 note=74 velocity=0 time=160
note_on channel=0 note=72 velocity=45 time=0
note_on channel=0 note=72 velocity=0 time=160
note_on channel=0 note=70 velocity=43 time=0
note_on channel=0 note=70 velocity=0 time=160
note_on channel=0 note=68 velocity=48 time=0
note_on channel=0 note=68 velocity=0 time=160
note_on channel=0 note=67 velocity=43 time=0
note_on channel=0 note=67 velocity=0 time=160
note_on channel=0 note=65 velocity=45 time=0
<meta message set_tempo tempo=310078 time=160>
note_on channel=0 note=65 velocity=0 time=0
note_on channel=0 note=56 velocity=0 time=0
note_on channel=0 note=58 velocity=0 time=0
note_on channel=0 note=62 velocity=0 time=0
note_on channel=0 note=63 velocity=48 time=0
note_on channel=0 note=51 velocity=48 time=0
note_on channel=0 note=63 velocity=0 time=160
note_on channel=0 note=65 velocity=45 time=0
note_on channel=0 note=65 velocity=0 time=160
note_on channel=0 note=67 velocity=43 time=0
<meta message set_tempo tempo=300000 time=160>
note_on channel=0 note=67 velocity=0 time=0
note_on channel=0 note=51 velocity=0 time=0
note_on channel=0 note=68 velocity=52 time=0
note_on channel=0 note=58 velocity=27 time=0
note_on channel=0 note=55 velocity=27 time=0
note_on channel=0 note=63 velocity=37 time=0
note_on channel=0 note=68 velocity=0 time=160
note_on channel=0 note=70 velocity=51 time=0
note_on channel=0 note=70 velocity=0 time=160
note_on channel=0 note=72 velocity=55 time=0
note_on channel=0 note=72 velocity=0 time=160
note_on channel=0 note=74 velocity=59 time=0
note_on channel=0 note=74 velocity=0 time=160
note_on channel=0 note=75 velocity=55 time=0
note_on channel=0 note=75 velocity=0 time=160
note_on channel=0 note=77 velocity=58 time=0
<meta message set_tempo tempo=332410 time=160>
note_on channel=0 note=77 velocity=0 time=0
note_on channel=0 note=63 velocity=0 time=0
note_on channel=0 note=55 velocity=0 time=0
note_on channel=0 note=58 velocity=0 time=0
note_on channel=0 note=79 velocity=65 time=0
note_on channel=0 note=51 velocity=55 time=0
note_on channel=0 note=79 velocity=0 time=160
note_on channel=0 note=82 velocity=61 time=0
note_on channel=0 note=82 velocity=0 time=160
note_on channel=0 note=80 velocity=58 time=0
<meta message set_tempo tempo=300000 time=160>
note_on channel=0 note=80 velocity=0 time=0
note_on channel=0 note=79 velocity=63 time=0
note_on channel=0 note=58 velocity=46 time=0
note_on channel=0 note=79 velocity=0 time=160
note_on channel=0 note=77 velocity=57 time=0
note_on channel=0 note=77 velocity=0 time=160
note_on channel=0 note=75 velocity=54 time=0
note_on channel=0 note=75 velocity=0 time=160
note_on channel=0 note=74 velocity=64 time=0
note_on channel=0 note=74 velocity=0 time=160
note_on channel=0 note=72 velocity=59 time=0
note_on channel=0 note=72 velocity=0 time=160
note_on channel=0 note=70 velocity=58 time=0
<meta message set_tempo tempo=303797 time=160>
note_on channel=0 note=70 velocity=0 time=0
note_on channel=0 note=58 velocity=0 time=0
note_on channel=0 note=51 velocity=0 time=0
note_on channel=0 note=68 velocity=63 time=0
note_on channel=0 note=53 velocity=56 time=0
note_on channel=0 note=68 velocity=0 time=160
note_on channel=0 note=67 velocity=59 time=0
note_on channel=0 note=67 velocity=0 time=160
note_on channel=0 note=65 velocity=54 time=0
<meta message set_tempo tempo=300000 time=160>
note_on channel=0 note=65 velocity=0 time=0
note_on channel=0 note=63 velocity=63 time=0
note_on channel=0 note=58 velocity=45 time=0
note_on channel=0 note=63 velocity=0 time=160
note_on channel=0 note=62 velocity=53 time=0
note_on channel=0 note=62 velocity=0 time=160
note_on channel=0 note=60 velocity=51 time=0
note_on channel=0 note=60 velocity=0 time=160
note_on channel=0 note=58 velocity=63 time=0
note_on channel=0 note=58 velocity=0 time=160
note_on channel=0 note=60 velocity=54 time=0
note_on channel=0 note=60 velocity=0 time=160
note_on channel=0 note=62 velocity=51 time=0
<meta message set_tempo tempo=305344 time=160>
note_on channel=0 note=62 velocity=0 time=0
note_on channel=0 note=58 velocity=0 time=0
note_on channel=0 note=53 velocity=0 time=0
note_on channel=0 note=63 velocity=63 time=0
note_on channel=0 note=55 velocity=56 time=0
note_on channel=0 note=63 velocity=0 time=160
note_on channel=0 note=62 velocity=55 time=0
note_on channel=0 note=62 velocity=0 time=160
note_on channel=0 note=63 velocity=51 time=0
<meta message set_tempo tempo=300000 time=160>
note_on channel=0 note=63 velocity=0 time=0
note_on channel=0 note=64 velocity=63 time=0
note_on channel=0 note=58 velocity=45 time=0
note_on channel=0 note=64 velocity=0 time=160
note_on channel=0 note=63 velocity=56 time=0
note_on channel=0 note=63 velocity=0 time=160
note_on channel=0 note=64 velocity=54 time=0
note_on channel=0 note=64 velocity=0 time=160
note_on channel=0 note=65 velocity=63 time=0
note_on channel=0 note=65 velocity=0 time=160
note_on channel=0 note=64 velocity=59 time=0
note_on channel=0 note=64 velocity=0 time=160
note_on channel=0 note=65 velocity=55 time=0
<meta message set_tempo tempo=303797 time=160>
note_on channel=0 note=65 velocity=0 time=0
note_on channel=0 note=58 velocity=0 time=0
note_on channel=0 note=55 velocity=0 time=0
note_on channel=0 note=66 velocity=68 time=0
note_on channel=0 note=50 velocity=57 time=0
note_on channel=0 note=66 velocity=0 time=160
note_on channel=0 note=65 velocity=61 time=0
note_on channel=0 note=65 velocity=0 time=160
note_on channel=0 note=66 velocity=59 time=0
<meta message set_tempo tempo=300000 time=160>
note_on channel=0 note=66 velocity=0 time=0
note_on channel=0 note=67 velocity=64 time=0
note_on channel=0 note=58 velocity=46 time=0
note_on channel=0 note=67 velocity=0 time=160
note_on channel=0 note=66 velocity=61 time=0
note_on channel=0 note=66 velocity=0 time=160
note_on channel=0 note=67 velocity=59 time=0
note_on channel=0 note=67 velocity=0 time=160
note_on channel=0 note=68 velocity=63 time=0
note_on channel=0 note=68 velocity=0 time=160
note_on channel=0 note=67 velocity=60 time=0
note_on channel=0 note=67 velocity=0 time=160
note_on channel=0 note=68 velocity=57 time=0
<meta message set_tempo tempo=305344 time=160>
note_on channel=0 note=68 velocity=0 time=0
note_on channel=0 note=58 velocity=0 time=0
note_on channel=0 note=50 velocity=0 time=0
note_on channel=0 note=67 velocity=63 time=0
note_on channel=0 note=51 velocity=56 time=0
note_on channel=0 note=67 velocity=0 time=160
note_on channel=0 note=70 velocity=60 time=0
note_on channel=0 note=70 velocity=0 time=160
note_on channel=0 note=68 velocity=58 time=0
<meta message set_tempo tempo=300000 time=160>
note_on channel=0 note=68 velocity=0 time=0
note_on channel=0 note=67 velocity=63 time=0
note_on channel=0 note=58 velocity=45 time=0
note_on channel=0 note=67 velocity=0 time=160
note_on channel=0 note=68 velocity=60 time=0
note_on channel=0 note=68 velocity=0 time=160
note_on channel=0 note=70 velocity=60 time=0
note_on channel=0 note=70 velocity=0 time=160
note_on channel=0 note=72 velocity=63 time=0
note_on channel=0 note=72 velocity=0 time=160
note_on channel=0 note=74 velocity=58 time=0
note_on channel=0 note=74 velocity=0 time=160
note_on channel=0 note=75 velocity=58 time=0
<meta message set_tempo tempo=307692 time=160>
note_on channel=0 note=75 velocity=0 time=0
note_on channel=0 note=58 velocity=0 time=0
note_on channel=0 note=51 velocity=0 time=0
note_on channel=0 note=77 velocity=63 time=0
note_on channel=0 note=44 velocity=54 time=0
note_on channel=0 note=77 velocity=0 time=160
note_on channel=0 note=84 velocity=64 time=0
note_on channel=0 note=84 velocity=0 time=160
note_on channel=0 note=82 velocity=58 time=0
<meta message set_tempo tempo=300000 time=160>
note_on channel=0 note=82 velocity=0 time=0
note_on channel=0 note=44 velocity=0 time=0
note_on channel=0 note=80 velocity=64 time=0
note_on channel=0 note=60 velocity=45 time=0
note_on channel=0 note=56 velocity=34 time=0
note_on channel=0 note=80 velocity=0 time=160
note_on channel=0 note=79 velocity=61 time=0
note_on channel=0 note=79 velocity=0 time=160
note_on channel=0 note=77 velocity=57 time=0
note_on channel=0 note=77 velocity=0 time=160
note_on channel=0 note=75 velocity=63 time=0
note_on channel=0 note=75 velocity=0 time=160
note_on channel=0 note=74 velocity=60 time=0
note_on channel=0 note=74 velocity=0 time=160
note_on channel=0 note=72 velocity=57 time=0
<meta message set_tempo tempo=305344 time=160>
note_on channel=0 note=72 velocity=0 time=0
note_on channel=0 note=56 velocity=0 time=0
note_on channel=0 note=60 velocity=0 time=0
note_on channel=0 note=70 velocity=62 time=0
note_on channel=0 note=46 velocity=55 time=0
note_on channel=0 note=70 velocity=0 time=160
note_on channel=0 note=77 velocity=63 time=0
note_on channel=0 note=77 velocity=0 time=160
note_on channel=0 note=75 velocity=58 time=0
<meta message set_tempo tempo=300000 time=160>
note_on channel=0 note=75 velocity=0 time=0
note_on channel=0 note=46 velocity=0 time=0
note_on channel=0 note=74 velocity=63 time=0
note_on channel=0 note=56 velocity=31 time=0
note_on channel=0 note=62 velocity=42 time=0
note_on channel=0 note=58 velocity=31 time=0
note_on channel=0 note=74 velocity=0 time=160
note_on channel=0 note=75 velocity=59 time=0
note_on channel=0 note=75 velocity=0 time=160
note_on channel=0 note=77 velocity=59 time=0
note_on channel=0 note=77 velocity=0 time=160
note_on channel=0 note=79 velocity=63 time=0
note_on channel=0 note=79 velocity=0 time=160
note_on channel=0 note=80 velocity=59 time=0
note_on channel=0 note=80 velocity=0 time=160
note_on channel=0 note=82 velocity=59 time=0
<meta message set_tempo tempo=306905 time=160>
note_on channel=0 note=82 velocity=0 time=0
note_on channel=0 note=58 velocity=0 time=0
note_on channel=0 note=62 velocity=0 time=0
note_on channel=0 note=56 velocity=0 time=0
note_on channel=0 note=75 velocity=63 time=0
note_on channel=0 note=51 velocity=58 time=0
note_on channel=0 note=75 velocity=0 time=160
note_on channel=0 note=77 velocity=59 time=0
note_on channel=0 note=77 velocity=0 time=160
note_on channel=0 note=79 velocity=59 time=0
<meta message set_tempo tempo=300000 time=160>
note_on channel=0 note=79 velocity=0 time=0
note_on channel=0 note=51 velocity=0 time=0
note_on channel=0 note=80 velocity=63 time=0
note_on channel=0 note=63 velocity=47 time=0
note_on channel=0 note=58 velocity=35 time=0
note_on channel=0 note=55 velocity=35 time=0
note_on channel=0 note=80 velocity=0 time=160
note_on channel=0 note=82 velocity=58 time=0
note_on channel=0 note=82 velocity=0 time=160
note_on channel=0 note=84 velocity=58 time=0
note_on channel=0 note=84 velocity=0 time=160
note_on channel=0 note=86 velocity=63 time=0
note_on channel=0 note=86 velocity=0 time=160
note_on channel=0 note=87 velocity=58 time=0
note_on channel=0 note=87 velocity=0 time=160
note_on channel=0 note=89 velocity=58 time=0
<meta message set_tempo tempo=334262 time=160>
note_on channel=0 note=89 velocity=0 time=0
note_on channel=0 note=55 velocity=0 time=0
note_on channel=0 note=58 velocity=0 time=0
note_on channel=0 note=63 velocity=0 time=0
note_on channel=0 note=91 velocity=67 time=0
note_on channel=0 note=51 velocity=56 time=0
note_on channel=0 note=91 velocity=0 time=160
note_on channel=0 note=94 velocity=63 time=0
note_on channel=0 note=94 velocity=0 time=160
note_on channel=0 note=92 velocity=61 time=0
<meta message set_tempo tempo=300752 time=160>
note_on channel=0 note=92 velocity=0 time=0
note_on channel=0 note=91 velocity=67 time=0
note_on channel=0 note=58 velocity=45 time=0
note_on channel=0 note=91 velocity=0 time=160
note_on channel=0 note=89 velocity=63 time=0
note_on channel=0 note=89 velocity=0 time=160
note_on channel=0 note=87 velocity=59 time=0
note_on channel=0 note=87 velocity=0 time=160
note_on channel=0 note=86 velocity=64 time=0
note_on channel=0 note=86 velocity=0 time=160
note_on channel=0 note=84 velocity=59 time=0
note_on channel=0 note=84 velocity=0 time=160
note_on channel=0 note=82 velocity=56 time=0
<meta message set_tempo tempo=307692 time=160>
note_on channel=0 note=82 velocity=0 time=0
note_on channel=0 note=58 velocity=0 time=0
note_on channel=0 note=51 velocity=0 time=0
note_on channel=0 note=80 velocity=63 time=0
note_on channel=0 note=53 velocity=56 time=0
note_on channel=0 note=80 velocity=0 time=160
note_on channel=0 note=79 velocity=59 time=0
note_on channel=0 note=79 velocity=0 time=160
note_on channel=0 note=77 velocity=57 time=0
<meta message set_tempo tempo=300000 time=160>
note_on channel=0 note=77 velocity=0 time=0
note_on channel=0 note=75 velocity=63 time=0
note_on channel=0 note=58 velocity=44 time=0
note_on channel=0 note=75 velocity=0 time=160
note_on channel=0 note=74 velocity=59 time=0
note_on channel=0 note=74 velocity=0 time=160
note_on channel=0 note=72 velocity=56 time=0
note_on channel=0 note=72 velocity=0 time=160
note_on channel=0 note=70 velocity=63 time=0
note_on channel=0 note=70 velocity=0 time=160
note_on channel=0 note=72 velocity=59 time=0
note_on channel=0 note=72 velocity=0 time=160
note_on channel=0 note=74 velocity=59 time=0
<meta message set_tempo tempo=307692 time=160>
note_on channel=0 note=74 velocity=0 time=0
note_on channel=0 note=58 velocity=0 time=0
note_on channel=0 note=53 velocity=0 time=0
note_on channel=0 note=75 velocity=66 time=0
note_on channel=0 note=55 velocity=56 time=0
note_on channel=0 note=75 velocity=0 time=160
note_on channel=0 note=74 velocity=61 time=0
note_on channel=0 note=74 velocity=0 time=160
note_on channel=0 note=75 velocity=61 time=0
<meta message set_tempo tempo=300000 time=160>
note_on channel=0 note=75 velocity=0 time=0
note_on channel=0 note=76 velocity=66 time=0
note_on channel=0 note=58 velocity=45 time=0
note_on channel=0 note=76 velocity=0 time=160
note_on channel=0 note=75 velocity=63 time=0
note_on channel=0 note=75 velocity=0 time=160
note_on channel=0 note=76 velocity=61 time=0
note_on channel=0 note=76 velocity=0 time=160
note_on channel=0 note=77 velocity=70 time=0
note_on channel=0 note=77 velocity=0 time=160
note_on channel=0 note=76 velocity=66 time=0
note_on channel=0 note=76 velocity=0 time=160
note_on channel=0 note=77 velocity=63 time=0
<meta message set_tempo tempo=306905 time=160>
note_on channel=0 note=77 velocity=0 time=0
note_on channel=0 note=58 velocity=0 time=0
note_on channel=0 note=55 velocity=0 time=0
note_on channel=0 note=78 velocity=72 time=0
note_on channel=0 note=50 velocity=65 time=0
note_on channel=0 note=78 velocity=0 time=160
note_on channel=0 note=77 velocity=67 time=0
note_on channel=0 note=77 velocity=0 time=160
note_on channel=0 note=78 velocity=65 time=0
<meta message set_tempo tempo=300000 time=160>
note_on channel=0 note=78 velocity=0 time=0
note_on channel=0 note=79 velocity=70 time=0
note_on channel=0 note=58 velocity=46 time=0
note_on channel=0 note=79 velocity=0 time=160
note_on channel=0 note=78 velocity=65 time=0
note_on channel=0 note=78 velocity=0 time=160
note_on channel=0 note=79 velocity=63 time=0
note_on channel=0 note=79 velocity=0 time=160
note_on channel=0 note=80 velocity=64 time=0
note_on channel=0 note=80 velocity=0 time=160
note_on channel=0 note=79 velocity=61 time=0
note_on channel=0 note=79 velocity=0 time=160
note_on channel=0 note=80 velocity=61 time=0
<meta message set_tempo tempo=306905 time=160>
note_on channel=0 note=80 velocity=0 time=0
note_on channel=0 note=58 velocity=0 time=0
note_on channel=0 note=50 velocity=0 time=0
note_on channel=0 note=79 velocity=63 time=0
note_on channel=0 note=51 velocity=58 time=0
note_on channel=0 note=79 velocity=0 time=160
note_on channel=0 note=82 velocity=59 time=0
note_on channel=0 note=82 velocity=0 time=160
note_on channel=0 note=80 velocity=59 time=0
<meta message set_tempo tempo=300000 time=160>
note_on channel=0 note=80 velocity=0 time=0
note_on channel=0 note=79 velocity=63 time=0
note_on channel=0 note=58 velocity=49 time=0
note_on channel=0 note=79 velocity=0 time=160
note_on channel=0 note=80 velocity=59 time=0
note_on channel=0 note=80 velocity=0 time=160
note_on channel=0 note=82 velocity=59 time=0
note_on channel=0 note=82 velocity=0 time=160
note_on channel=0 note=84 velocity=63 time=0
note_on channel=0 note=84 velocity=0 time=160
note_on channel=0 note=86 velocity=60 time=0
note_on channel=0 note=86 velocity=0 time=160
note_on channel=0 note=87 velocity=60 time=0
note_on channel=0 note=87 velocity=0 time=160
note_on channel=0 note=58 velocity=0 time=0
note_on channel=0 note=51 velocity=0 time=0
note_on channel=0 note=89 velocity=64 time=0
note_on channel=0 note=44 velocity=47 time=0
<meta message set_tempo tempo=334262 time=8>
note_on channel=0 note=89 velocity=0 time=152
note_on channel=0 note=96 velocity=62 time=0
note_on channel=0 note=96 velocity=0 time=160
note_on channel=0 note=94 velocity=59 time=0
note_on channel=0 note=94 velocity=0 time=160
note_on channel=0 note=44 velocity=0 time=0
note_on channel=0 note=92 velocity=62 time=0
note_on channel=0 note=56 velocity=30 time=0
note_on channel=0 note=60 velocity=41 time=0
<meta message set_tempo tempo=300000 time=8>
note_on channel=0 note=92 velocity=0 time=152
note_on channel=0 note=91 velocity=56 time=0
note_on channel=0 note=91 velocity=0 time=160
note_on channel=0 note=89 velocity=56 time=0
note_on channel=0 note=89 velocity=0 time=160
note_on channel=0 note=87 velocity=59 time=0
note_on channel=0 note=87 velocity=0 time=160
note_on channel=0 note=86 velocity=58 time=0
note_on channel=0 note=86 velocity=0 time=160
note_on channel=0 note=84 velocity=53 time=0
<meta message set_tempo tempo=303797 time=160>
note_on channel=0 note=84 velocity=0 time=0
note_on channel=0 note=60 velocity=0 time=0
note_on channel=0 note=56 velocity=0 time=0
note_on channel=0 note=82 velocity=53 time=0
note_on channel=0 note=46 velocity=47 time=0
note_on channel=0 note=82 velocity=0 time=160
note_on channel=0 note=89 velocity=55 time=0
note_on channel=0 note=89 velocity=0 time=160
note_on channel=0 note=87 velocity=51 time=0
<meta message set_tempo tempo=300000 time=160>
note_on channel=0 note=87 velocity=0 time=0
note_on channel=0 note=46 velocity=0 time=0
note_on channel=0 note=86 velocity=54 time=0
note_on channel=0 note=62 velocity=40 time=0
note_on channel=0 note=58 velocity=30 time=0
note_on channel=0 note=56 velocity=30 time=0
note_on channel=0 note=86 velocity=0 time=160
note_on channel=0 note=84 velocity=53 time=0
note_on channel=0 note=84 velocity=0 time=160
note_on channel=0 note=82 velocity=48 time=0
note_on channel=0 note=82 velocity=0 time=160
note_on channel=0 note=80 velocity=51 time=0
note_on channel=0 note=80 velocity=0 time=160
note_on channel=0 note=79 velocity=50 time=0
note_on channel=0 note=79 velocity=0 time=160
note_on channel=0 note=77 velocity=49 time=0
<meta message set_tempo tempo=305344 time=160>
note_on channel=0 note=77 velocity=0 time=0
note_on channel=0 note=56 velocity=0 time=0
note_on channel=0 note=58 velocity=0 time=0
note_on channel=0 note=62 velocity=0 time=0
note_on channel=0 note=75 velocity=48 time=0
note_on channel=0 note=51 velocity=40 time=0
note_on channel=0 note=75 velocity=0 time=160
note_on channel=0 note=79 velocity=47 time=0
note_on channel=0 note=79 velocity=0 time=160
note_on channel=0 note=77 velocity=46 time=0
<meta message set_tempo tempo=300000 time=160>
note_on channel=0 note=77 velocity=0 time=0
note_on channel=0 note=51 velocity=0 time=0
note_on channel=0 note=75 velocity=45 time=0
note_on channel=0 note=58 velocity=26 time=0
note_on channel=0 note=55 velocity=26 time=0
note_on channel=0 note=63 velocity=35 time=0
note_on channel=0 note=75 velocity=0 time=160
note_on channel=0 note=74 velocity=45 time=0
note_on channel=0 note=74 velocity=0 time=160
note_on channel=0 note=72 velocity=44 time=0
note_on channel=0 note=72 velocity=0 time=160
note_on channel=0 note=70 velocity=43 time=0
note_on channel=0 note=70 velocity=0 time=160
note_on channel=0 note=68 velocity=42 time=0
note_on channel=0 note=68 velocity=0 time=160
note_on channel=0 note=65 velocity=41 time=0
<meta message set_tempo tempo=329670 time=160>
note_on channel=0 note=65 velocity=0 time=0
note_on channel=0 note=63 velocity=0 time=0
note_on channel=0 note=55 velocity=0 time=0
note_on channel=0 note=58 velocity=0 time=0
note_on channel=0 note=66 velocity=40 time=0
note_on channel=0 note=39 velocity=44 time=0
note_on channel=0 note=66 velocity=0 time=160
note_on channel=0 note=70 velocity=38 time=0
note_on channel=0 note=70 velocity=0 time=160
note_on channel=0 note=68 velocity=39 time=0
<meta message set_tempo tempo=305344 time=160>
note_on channel=0 note=68 velocity=0 time=0
note_on channel=0 note=66 velocity=41 time=0
note_on channel=0 note=51 velocity=32 time=0
note_on channel=0 note=66 velocity=0 time=160
note_on channel=0 note=65 velocity=37 time=0
note_on channel=0 note=65 velocity=0 time=160
note_on channel=0 note=63 velocity=32 time=0
note_on channel=0 note=63 velocity=0 time=160
note_on channel=0 note=61 velocity=41 time=0
note_on channel=0 note=61 velocity=0 time=160
note_on channel=0 note=59 velocity=37 time=0
note_on channel=0 note=59 velocity=0 time=160
note_on channel=0 note=58 velocity=32 time=0
<meta message set_tempo tempo=342857 time=160>
note_on channel=0 note=58 velocity=0 time=0
note_on channel=0 note=51 velocity=0 time=0
note_on channel=0 note=39 velocity=0 time=0
note_on channel=0 note=59 velocity=41 time=0
note_on channel=0 note=44 velocity=42 time=0
control_change channel=0 control=64 value=127 time=0
note_on channel=0 note=59 velocity=0 time=160
note_on channel=0 note=63 velocity=39 time=0
note_on channel=0 note=63 velocity=0 time=160
note_on channel=0 note=68 velocity=39 time=0
<meta message set_tempo tempo=324324 time=160>
note_on channel=0 note=68 velocity=0 time=0
note_on channel=0 note=71 velocity=44 time=0
note_on channel=0 note=56 velocity=32 time=0
control_change channel=0 control=64 value=0 time=46
control_change channel=0 control=64 value=127 time=32
note_on channel=0 note=63 velocity=37 time=82
note_on channel=0 note=63 velocity=0 time=160
note_on channel=0 note=68 velocity=30 time=0
note_on channel=0 note=68 velocity=0 time=160
note_on channel=0 note=66 velocity=37 time=0
note_on channel=0 note=66 velocity=0 time=160
note_on channel=0 note=63 velocity=35 time=0
note_on channel=0 note=63 velocity=0 time=160
note_on channel=0 note=66 velocity=32 time=0
control_change channel=0 control=64 value=0 time=96
<meta message set_tempo tempo=300000 time=64>
note_on channel=0 note=66 velocity=0 time=0
note_on channel=0 note=44 velocity=0 time=0
note_on channel=0 note=71 velocity=0 time=0
note_on channel=0 note=56 velocity=0 time=0
note_on channel=0 note=65 velocity=41 time=0
note_on channel=0 note=37 velocity=44 time=0
note_on channel=0 note=65 velocity=0 time=160
note_on channel=0 note=71 velocity=37 time=0
note_on channel=0 note=71 velocity=0 time=160
note_on channel=0 note=70 velocity=32 time=0
note_on channel=0 note=70 velocity=0 time=160
note_on channel=0 note=68 velocity=41 time=0
note_on channel=0 note=49 velocity=32 time=0
note_on channel=0 note=68 velocity=0 time=160
note_on channel=0 note=66 velocity=37 time=0
note_on channel=0 note=66 velocity=0 time=160
note_on channel=0 note=65 velocity=31 time=0
note_on channel=0 note=65 velocity=0 time=160
note_on channel=0 note=63 velocity=36 time=0
note_on channel=0 note=63 velocity=0 time=160
note_on channel=0 note=61 velocity=36 time=0
note_on channel=0 note=61 velocity=0 time=160
note_on channel=0 note=59 velocity=31 time=0
<meta message set_tempo tempo=333333 time=160>
note_on channel=0 note=59 velocity=0 time=0
note_on channel=0 note=49 velocity=0 time=0
note_on channel=0 note=37 velocity=0 time=0
note_on channel=0 note=58 velocity=41 time=0
note_on channel=0 note=42 velocity=43 time=0
control_change channel=0 control=64 value=127 time=32
note_on channel=0 note=58 velocity=0 time=128
note_on channel=0 note=61 velocity=38 time=0
note_on channel=0 note=61 velocity=0 time=160
note_on channel=0 note=66 velocity=30 time=0
<meta message set_tempo tempo=316623 time=148>
note_on channel=0 note=66 velocity=0 time=12
note_on channel=0 note=70 velocity=44 time=0
note_on channel=0 note=54 velocity=32 time=0
control_change channel=0 control=64 value=0 time=25
control_change channel=0 control=64 value=127 time=89
note_on channel=0 note=61 velocity=38 time=46
note_on channel=0 note=61 velocity=0 time=160
note_on channel=0 note=66 velocity=32 time=0
note_on channel=0 note=66 velocity=0 time=160
note_on channel=0 note=65 velocity=36 time=0
note_on channel=0 note=65 velocity=0 time=160
note_on channel=0 note=61 velocity=34 time=0
note_on channel=0 note=61 velocity=0 time=160
note_on channel=0 note=65 velocity=31 time=0
<meta message set_tempo tempo=300000 time=148>
<meta message set_tempo tempo=300000 time=12>
note_on channel=0 note=65 velocity=0 time=0
note_on channel=0 note=42 velocity=0 time=0
note_on channel=0 note=70 velocity=0 time=0
note_on channel=0 note=54 velocity=0 time=0
note_on channel=0 note=63 velocity=40 time=0
control_change channel=0 control=64 value=0 time=0
note_on channel=0 note=35 velocity=44 time=0
note_on channel=0 note=63 velocity=0 time=160
note_on channel=0 note=70 velocity=41 time=0
note_on channel=0 note=70 velocity=0 time=160
note_on channel=0 note=68 velocity=37 time=0
note_on channel=0 note=68 velocity=0 time=160
note_on channel=0 note=66 velocity=41 time=0
note_on channel=0 note=47 velocity=32 time=0
note_on channel=0 note=66 velocity=0 time=160
note_on channel=0 note=65 velocity=37 time=0
note_on channel=0 note=65 velocity=0 time=160
note_on channel=0 note=63 velocity=31 time=0
note_on channel=0 note=63 velocity=0 time=160
note_on channel=0 note=61 velocity=37 time=0
note_on channel=0 note=61 velocity=0 time=160
note_on channel=0 note=59 velocity=34 time=0
note_on channel=0 note=59 velocity=0 time=160
note_on channel=0 note=58 velocity=31 time=0
<meta message set_tempo tempo=342857 time=160>
note_on channel=0 note=58 velocity=0 time=0
note_on channel=0 note=47 velocity=0 time=0
note_on channel=0 note=35 velocity=0 time=0
note_on channel=0 note=56 velocity=41 time=0
note_on channel=0 note=41 velocity=42 time=0
control_change channel=0 control=64 value=127 time=25
note_on channel=0 note=56 velocity=0 time=135
note_on channel=0 note=59 velocity=37 time=0
note_on channel=0 note=59 velocity=0 time=160
note_on channel=0 note=65 velocity=37 time=0
<meta message set_tempo tempo=322581 time=160>
note_on channel=0 note=65 velocity=0 time=0
note_on channel=0 note=68 velocity=44 time=0
note_on channel=0 note=53 velocity=32 time=0
control_change channel=0 control=64 value=0 time=49
control_change channel=0 control=64 value=127 time=82
note_on channel=0 note=59 velocity=39 time=29
note_on channel=0 note=59 velocity=0 time=160
note_on channel=0 note=65 velocity=33 time=0
note_on channel=0 note=65 velocity=0 time=160
note_on channel=0 note=63 velocity=37 time=0
note_on channel=0 note=63 velocity=0 time=160
note_on channel=0 note=59 velocity=33 time=0
note_on channel=0 note=59 velocity=0 time=160
note_on channel=0 note=63 velocity=34 time=0
<meta message set_tempo tempo=300000 time=160>
note_on channel=0 note=63 velocity=0 time=0
note_on channel=0 note=41 velocity=0 time=0
note_on channel=0 note=68 velocity=0 time=0
note_on channel=0 note=53 velocity=0 time=0
note_on channel=0 note=62 velocity=41 time=0
control_change channel=0 control=64 value=0 time=0
note_on channel=0 note=34 velocity=44 time=0
note_on channel=0 note=62 velocity=0 time=160
note_on channel=0 note=68 velocity=37 time=0
note_on channel=0 note=68 velocity=0 time=160
note_on channel=0 note=66 velocity=37 time=0
note_on channel=0 note=66 velocity=0 time=160
note_on channel=0 note=65 velocity=41 time=0
note_on channel=0 note=46 velocity=32 time=0
note_on channel=0 note=65 velocity=0 time=160
note_on channel=0 note=63 velocity=38 time=0
note_on channel=0 note=63 velocity=0 time=160
note_on channel=0 note=62 velocity=33 time=0
note_on channel=0 note=62 velocity=0 time=160
note_on channel=0 note=59 velocity=37 time=0
note_on channel=0 note=59 velocity=0 time=160
note_on channel=0 note=58 velocity=35 time=0
note_on channel=0 note=58 velocity=0 time=160
note_on channel=0 note=56 velocity=35 time=0
<meta message set_tempo tempo=348837 time=160>
note_on channel=0 note=56 velocity=0 time=0
note_on channel=0 note=46 velocity=0 time=0
note_on channel=0 note=34 velocity=0 time=0
note_on channel=0 note=54 velocity=41 time=0
note_on channel=0 note=39 velocity=43 time=0
control_change channel=0 control=64 value=127 time=21
note_on channel=0 note=54 velocity=0 time=139
note_on channel=0 note=58 velocity=37 time=0
note_on channel=0 note=58 velocity=0 time=160
note_on channel=0 note=63 velocity=39 time=0
<meta message set_tempo tempo=327869 time=160>
note_on channel=0 note=63 velocity=0 time=0
note_on channel=0 note=66 velocity=44 time=0
note_on channel=0 note=51 velocity=32 time=0
control_change channel=0 control=64 value=0 time=67
note_on channel=0 note=58 velocity=35 time=93
control_change channel=0 control=64 value=127 time=0
note_on channel=0 note=58 velocity=0 time=160
note_on channel=0 note=63 velocity=35 time=0
note_on channel=0 note=63 velocity=0 time=160
note_on channel=0 note=61 velocity=40 time=0
note_on channel=0 note=61 velocity=0 time=160
note_on channel=0 note=58 velocity=35 time=0
note_on channel=0 note=58 velocity=0 time=160
note_on channel=0 note=61 velocity=35 time=0
<meta message set_tempo tempo=300000 time=148>
<meta message set_tempo tempo=333333 time=12>
note_on channel=0 note=61 velocity=0 time=0
note_on channel=0 note=39 velocity=0 time=0
note_on channel=0 note=66 velocity=0 time=0
note_on channel=0 note=51 velocity=0 time=0
note_on channel=0 note=59 velocity=41 time=0
control_change channel=0 control=64 value=0 time=0
note_on channel=0 note=44 velocity=43 time=0
control_change channel=0 control=64 value=127 time=97
note_on channel=0 note=59 velocity=0 time=63
note_on channel=0 note=63 velocity=38 time=0
note_on channel=0 note=63 velocity=0 time=160
note_on channel=0 note=68 velocity=38 time=0
<meta message set_tempo tempo=316623 time=148>
note_on channel=0 note=68 velocity=0 time=12
note_on channel=0 note=71 velocity=44 time=0
note_on channel=0 note=56 velocity=32 time=0
control_change channel=0 control=64 value=0 time=10
control_change channel=0 control=64 value=127 time=115
note_on channel=0 note=63 velocity=37 time=35
note_on channel=0 note=63 velocity=0 time=160
note_on channel=0 note=68 velocity=37 time=0
note_on channel=0 note=68 velocity=0 time=160
note_on channel=0 note=66 velocity=39 time=0
note_on channel=0 note=66 velocity=0 time=160
note_on channel=0 note=63 velocity=36 time=0
note_on channel=0 note=63 velocity=0 time=160
note_on channel=0 note=66 velocity=36 time=0
note_on channel=0 note=66 velocity=0 time=160
note_on channel=0 note=44 velocity=0 time=0
note_on channel=0 note=71 velocity=0 time=0
note_on channel=0 note=56 velocity=0 time=0
note_on channel=0 note=71 velocity=48 time=0
note_on channel=0 note=46 velocity=41 time=0
control_change channel=0 control=64 value=0 time=3
<meta message set_tempo tempo=352941 time=5>
control_change channel=0 control=64 value=127 time=76
note_on channel=0 note=65 velocity=41 time=76
note_on channel=0 note=65 velocity=0 time=160
note_on channel=0 note=62 velocity=41 time=0
note_on channel=0 note=62 velocity=0 time=160
note_on channel=0 note=71 velocity=0 time=0
note_on channel=0 note=70 velocity=47 time=0
note_on channel=0 note=58 velocity=41 time=0
control_change channel=0 control=64 value=0 time=6
control_change channel=0 control=64 value=127 time=121
note_on channel=0 note=65 velocity=41 time=33
note_on channel=0 note=65 velocity=0 time=160
note_on channel=0 note=62 velocity=41 time=0
note_on channel=0 note=62 velocity=0 time=160
note_on channel=0 note=70 velocity=0 time=0
note_on channel=0 note=74 velocity=47 time=0
control_change channel=0 control=64 value=0 time=12
control_change channel=0 control=64 value=127 time=143
note_on channel=0 note=68 velocity=41 time=5
note_on channel=0 note=68 velocity=0 time=160
note_on channel=0 note=65 velocity=41 time=0
note_on channel=0 note=65 velocity=0 time=160
note_on channel=0 note=74 velocity=0 time=0
note_on channel=0 note=46 velocity=0 time=0
note_on channel=0 note=75 velocity=47 time=0
control_change channel=0 control=64 value=0 time=0
note_on channel=0 note=51 velocity=40 time=0
<meta message set_tempo tempo=300752 time=160>
note_on channel=0 note=75 velocity=0 time=0
note_on channel=0 note=78 velocity=39 time=0
note_on channel=0 note=78 velocity=0 time=160
note_on channel=0 note=77 velocity=39 time=0
note_on channel=0 note=77 velocity=0 time=160
note_on channel=0 note=75 velocity=42 time=0
note_on channel=0 note=75 velocity=0 time=160
note_on channel=0 note=73 velocity=36 time=0
note_on channel=0 note=73 velocity=0 time=160
note_on channel=0 note=71 velocity=36 time=0
note_on channel=0 note=71 velocity=0 time=160
note_on channel=0 note=70 velocity=43 time=0
note_on channel=0 note=70 velocity=0 time=160
note_on channel=0 note=68 velocity=37 time=0
note_on channel=0 note=68 velocity=0 time=160
note_on channel=0 note=65 velocity=36 time=0
note_on channel=0 note=65 velocity=0 time=160
note_on channel=0 note=51 velocity=0 time=0
note_on channel=0 note=58 velocity=0 time=0
note_on channel=0 note=66 velocity=39 time=0
note_on channel=0 note=42 velocity=41 time=0
note_on channel=0 note=66 velocity=0 time=160
note_on channel=0 note=70 velocity=39 time=0
note_on channel=0 note=70 velocity=0 time=160
note_on channel=0 note=68 velocity=36 time=0
note_on channel=0 note=68 velocity=0 time=160
note_on channel=0 note=66 velocity=39 time=0
note_on channel=0 note=49 velocity=33 time=0
note_on channel=0 note=66 velocity=0 time=160
note_on channel=0 note=65 velocity=36 time=0
note_on channel=0 note=65 velocity=0 time=160
note_on channel=0 note=63 velocity=36 time=0
note_on channel=0 note=63 velocity=0 time=160
note_on channel=0 note=61 velocity=39 time=0
note_on channel=0 note=61 velocity=0 time=160
note_on channel=0 note=59 velocity=36 time=0
note_on channel=0 note=59 velocity=0 time=160
note_on channel=0 note=58 velocity=36 time=0
<meta message set_tempo tempo=333333 time=160>
note_on channel=0 note=58 velocity=0 time=0
note_on channel=0 note=49 velocity=0 time=0
note_on channel=0 note=42 velocity=0 time=0
note_on channel=0 note=59 velocity=40 time=0
control_change channel=0 control=64 value=127 time=0
note_on channel=0 note=44 velocity=39 time=0
note_on channel=0 note=59 velocity=0 time=160
note_on channel=0 note=62 velocity=40 time=0
note_on channel=0 note=62 velocity=0 time=160
note_on channel=0 note=65 velocity=37 time=0
note_on channel=0 note=65 velocity=0 time=160
note_on channel=0 note=71 velocity=44 time=0
note_on channel=0 note=50 velocity=53 time=0
<meta message set_tempo tempo=353982 time=8>
control_change channel=0 control=64 value=0 time=13
control_change channel=0 control=64 value=127 time=99
note_on channel=0 note=65 velocity=40 time=40
note_on channel=0 note=65 velocity=0 time=160
note_on channel=0 note=62 velocity=37 time=0
note_on channel=0 note=62 velocity=0 time=160
note_on channel=0 note=50 velocity=0 time=0
note_on channel=0 note=65 velocity=40 time=0
note_on channel=0 note=49 velocity=33 time=0
<meta message set_tempo tempo=316623 time=8>
note_on channel=0 note=65 velocity=0 time=152
note_on channel=0 note=61 velocity=37 time=0
note_on channel=0 note=61 velocity=0 time=160
note_on channel=0 note=59 velocity=37 time=0
note_on channel=0 note=59 velocity=0 time=160
note_on channel=0 note=44 velocity=0 time=0
note_on channel=0 note=71 velocity=0 time=0
note_on channel=0 note=49 velocity=0 time=0
note_on channel=0 note=58 velocity=40 time=0
control_change channel=0 control=64 value=0 time=0
note_on channel=0 note=42 velocity=39 time=0
<meta message set_tempo tempo=300000 time=8>
note_on channel=0 note=58 velocity=0 time=152
note_on channel=0 note=70 velocity=40 time=0
note_on channel=0 note=70 velocity=0 time=160
note_on channel=0 note=68 velocity=36 time=0
note_on channel=0 note=68 velocity=0 time=160
note_on channel=0 note=66 velocity=40 time=0
note_on channel=0 note=49 velocity=33 time=0
note_on channel=0 note=66 velocity=0 time=160
note_on channel=0 note=65 velocity=40 time=0
note_on channel=0 note=65 velocity=0 time=160
note_on channel=0 note=63 velocity=38 time=0
note_on channel=0 note=63 velocity=0 time=160
note_on channel=0 note=61 velocity=40 time=0
note_on channel=0 note=61 velocity=0 time=160
note_on channel=0 note=59 velocity=37 time=0
note_on channel=0 note=59 velocity=0 time=160
note_on channel=0 note=58 velocity=35 time=0
<meta message set_tempo tempo=333333 time=160>
note_on channel=0 note=58 velocity=0 time=0
note_on channel=0 note=49 velocity=0 time=0
note_on channel=0 note=42 velocity=0 time=0
note_on channel=0 note=59 velocity=39 time=0
note_on channel=0 note=44 velocity=40 time=0
control_change channel=0 control=64 value=127 time=0
note_on channel=0 note=59 velocity=0 time=160
note_on channel=0 note=62 velocity=35 time=0
note_on channel=0 note=62 velocity=0 time=160
note_on channel=0 note=65 velocity=36 time=0
note_on channel=0 note=65 velocity=0 time=160
note_on channel=0 note=71 velocity=45 time=0
note_on channel=0 note=50 velocity=55 time=0
<meta message set_tempo tempo=353982 time=8>
control_change channel=0 control=64 value=0 time=59
control_change channel=0 control=64 value=127 time=86
note_on channel=0 note=65 velocity=37 time=7
note_on channel=0 note=65 velocity=0 time=160
note_on channel=0 note=62 velocity=37 time=0
<meta message set_tempo tempo=315789 time=160>
note_on channel=0 note=62 velocity=0 time=0
note_on channel=0 note=50 velocity=0 time=0
note_on channel=0 note=65 velocity=40 time=0
note_on channel=0 note=49 velocity=33 time=0
note_on channel=0 note=65 velocity=0 time=160
note_on channel=0 note=61 velocity=40 time=0
note_on channel=0 note=61 velocity=0 time=160
note_on channel=0 note=59 velocity=36 time=0
<meta message set_tempo tempo=333333 time=160>
note_on channel=0 note=59 velocity=0 time=0
note_on channel=0 note=44 velocity=0 time=0
note_on channel=0 note=71 velocity=0 time=0
note_on channel=0 note=49 velocity=0 time=0
note_on channel=0 note=61 velocity=40 time=0
note_on channel=0 note=46 velocity=39 time=0
control_change channel=0 control=64 value=0 time=5
control_change channel=0 control=64 value=127 time=80
note_on channel=0 note=61 velocity=0 time=75
note_on channel=0 note=66 velocity=37 time=0
note_on channel=0 note=66 velocity=0 time=160
note_on channel=0 note=70 velocity=37 time=0
<meta message set_tempo tempo=315789 time=148>
note_on channel=0 note=70 velocity=0 time=12
note_on channel=0 note=73 velocity=45 time=0
note_on channel=0 note=54 velocity=43 time=0
control_change channel=0 control=64 value=0 time=46
note_on channel=0 note=70 velocity=40 time=114
note_on channel=0 note=70 velocity=0 time=160
note_on channel=0 note=66 velocity=36 time=0
note_on channel=0 note=66 velocity=0 time=160
note_on channel=0 note=65 velocity=39 time=0
note_on channel=0 note=65 velocity=0 time=160
note_on channel=0 note=66 velocity=37 time=0
note_on channel=0 note=66 velocity=0 time=160
note_on channel=0 note=64 velocity=38 time=0
<meta message set_tempo tempo=334262 time=160>
note_on channel=0 note=64 velocity=0 time=0
note_on channel=0 note=46 velocity=0 time=0
note_on channel=0 note=73 velocity=0 time=0
note_on channel=0 note=63 velocity=39 time=0
note_on channel=0 note=47 velocity=40 time=0
control_change channel=0 control=64 value=127 time=7
note_on channel=0 note=63 velocity=0 time=153
note_on channel=0 note=68 velocity=39 time=0
note_on channel=0 note=68 velocity=0 time=160
note_on channel=0 note=71 velocity=39 time=0
note_on channel=0 note=71 velocity=0 time=160
note_on channel=0 note=54 velocity=0 time=0
note_on channel=0 note=75 velocity=46 time=0
note_on channel=0 note=56 velocity=43 time=0
<meta message set_tempo tempo=315789 time=8>
control_change channel=0 control=64 value=0 time=5
note_on channel=0 note=71 velocity=38 time=147
control_change channel=0 control=64 value=127 time=11
note_on channel=0 note=71 velocity=0 time=149
note_on channel=0 note=68 velocity=38 time=0
note_on channel=0 note=68 velocity=0 time=160
note_on channel=0 note=67 velocity=40 time=0
note_on channel=0 note=67 velocity=0 time=160
note_on channel=0 note=68 velocity=39 time=0
note_on channel=0 note=68 velocity=0 time=160
note_on channel=0 note=66 velocity=39 time=0
<meta message set_tempo tempo=333333 time=160>
note_on channel=0 note=66 velocity=0 time=0
note_on channel=0 note=47 velocity=0 time=0
note_on channel=0 note=75 velocity=0 time=0
note_on channel=0 note=65 velocity=40 time=0
control_change channel=0 control=64 value=0 time=0
note_on channel=0 note=49 velocity=43 time=0
note_on channel=0 note=65 velocity=0 time=160
note_on channel=0 note=66 velocity=40 time=0
note_on channel=0 note=66 velocity=0 time=160
note_on channel=0 note=67 velocity=38 time=0
<meta message set_tempo tempo=300000 time=160>
note_on channel=0 note=67 velocity=0 time=0
note_on channel=0 note=56 velocity=0 time=0
note_on channel=0 note=68 velocity=40 time=0
note_on channel=0 note=59 velocity=37 time=0
note_on channel=0 note=68 velocity=0 time=160
note_on channel=0 note=70 velocity=40 time=0
note_on channel=0 note=70 velocity=0 time=160
note_on channel=0 note=71 velocity=39 time=0
note_on channel=0 note=71 velocity=0 time=160
note_on channel=0 note=73 velocity=40 time=0
note_on channel=0 note=73 velocity=0 time=160
note_on channel=0 note=75 velocity=40 time=0
note_on channel=0 note=75 velocity=0 time=160
note_on channel=0 note=77 velocity=39 time=0
<meta message set_tempo tempo=319149 time=160>
note_on channel=0 note=77 velocity=0 time=0
note_on channel=0 note=59 velocity=0 time=0
note_on channel=0 note=49 velocity=0 time=0
note_on channel=0 note=78 velocity=39 time=0
note_on channel=0 note=58 velocity=43 time=0
note_on channel=0 note=54 velocity=32 time=0
note_on channel=0 note=78 velocity=0 time=160
note_on channel=0 note=82 velocity=45 time=0
note_on channel=0 note=82 velocity=0 time=160
note_on channel=0 note=80 velocity=42 time=0
<meta message set_tempo tempo=300000 time=160>
note_on channel=0 note=80 velocity=0 time=0
note_on channel=0 note=78 velocity=41 time=0
note_on channel=0 note=78 velocity=0 time=160
note_on channel=0 note=77 velocity=41 time=0
note_on channel=0 note=77 velocity=0 time=160
note_on channel=0 note=75 velocity=40 time=0
note_on channel=0 note=75 velocity=0 time=160
note_on channel=0 note=54 velocity=0 time=0
note_on channel=0 note=58 velocity=0 time=0
note_on channel=0 note=73 velocity=40 time=0
note_on channel=0 note=73 velocity=0 time=160
note_on channel=0 note=71 velocity=40 time=0
note_on channel=0 note=71 velocity=0 time=160
note_on channel=0 note=70 velocity=39 time=0
note_on channel=0 note=70 velocity=0 time=160
note_on channel=0 note=68 velocity=40 time=0
note_on channel=0 note=46 velocity=43 time=0
<meta message set_tempo tempo=334262 time=8>
note_on channel=0 note=68 velocity=0 time=152
note_on channel=0 note=71 velocity=38 time=0
note_on channel=0 note=71 velocity=0 time=160
note_on channel=0 note=70 velocity=38 time=0
<meta message set_tempo tempo=300000 time=160>
note_on channel=0 note=70 velocity=0 time=0
note_on channel=0 note=68 velocity=38 time=0
note_on channel=0 note=59 velocity=33 time=0
note_on channel=0 note=56 velocity=25 time=0
note_on channel=0 note=53 velocity=25 time=0
note_on channel=0 note=68 velocity=0 time=160
note_on channel=0 note=66 velocity=37 time=0
note_on channel=0 note=66 velocity=0 time=160
note_on channel=0 note=65 velocity=35 time=0
note_on channel=0 note=65 velocity=0 time=160
note_on channel=0 note=63 velocity=40 time=0
note_on channel=0 note=63 velocity=0 time=160
note_on channel=0 note=62 velocity=33 time=0
note_on channel=0 note=62 velocity=0 time=160
note_on channel=0 note=65 velocity=33 time=0
note_on channel=0 note=65 velocity=0 time=160
note_on channel=0 note=53 velocity=0 time=0
note_on channel=0 note=46 velocity=0 time=0
note_on channel=0 note=59 velocity=0 time=0
note_on channel=0 note=56 velocity=0 time=0
note_on channel=0 note=68 velocity=33 time=0
note_on channel=0 note=46 velocity=43 time=0
<meta message set_tempo tempo=334262 time=8>
note_on channel=0 note=68 velocity=0 time=152
note_on channel=0 note=71 velocity=33 time=0
note_on channel=0 note=71 velocity=0 time=160
note_on channel=0 note=70 velocity=33 time=0
<meta message set_tempo tempo=300000 time=148>
note_on channel=0 note=70 velocity=0 time=12
note_on channel=0 note=68 velocity=33 time=0
note_on channel=0 note=59 velocity=32 time=0
note_on channel=0 note=56 velocity=24 time=0
note_on channel=0 note=53 velocity=24 time=0
note_on channel=0 note=68 velocity=0 time=160
note_on channel=0 note=66 velocity=33 time=0
note_on channel=0 note=66 velocity=0 time=160
note_on channel=0 note=65 velocity=33 time=0
note_on channel=0 note=65 velocity=0 time=160
note_on channel=0 note=63 velocity=40 time=0
note_on channel=0 note=63 velocity=0 time=160
note_on channel=0 note=62 velocity=33 time=0
note_on channel=0 note=62 velocity=0 time=160
note_on channel=0 note=65 velocity=33 time=0
note_on channel=0 note=65 velocity=0 time=160
note_on channel=0 note=53 velocity=0 time=0
note_on channel=0 note=46 velocity=0 time=0
note_on channel=0 note=59 velocity=0 time=0
note_on channel=0 note=56 velocity=0 time=0
note_on channel=0 note=68 velocity=32 time=0
note_on channel=0 note=46 velocity=43 time=0
<meta message set_tempo tempo=351906 time=8>
note_on channel=0 note=68 velocity=0 time=152
note_on channel=0 note=71 velocity=32 time=0
note_on channel=0 note=71 velocity=0 time=160
note_on channel=0 note=70 velocity=32 time=0
<meta message set_tempo tempo=300000 time=160>
note_on channel=0 note=70 velocity=0 time=0
note_on channel=0 note=68 velocity=32 time=0
note_on channel=0 note=53 velocity=24 time=0
note_on channel=0 note=59 velocity=32 time=0
note_on channel=0 note=56 velocity=24 time=0
note_on channel=0 note=68 velocity=0 time=160
note_on channel=0 note=66 velocity=32 time=0
note_on channel=0 note=66 velocity=0 time=160
note_on channel=0 note=65 velocity=32 time=0
note_on channel=0 note=65 velocity=0 time=160
note_on channel=0 note=63 velocity=39 time=0
note_on channel=0 note=63 velocity=0 time=160
note_on channel=0 note=62 velocity=32 time=0
note_on channel=0 note=62 velocity=0 time=160
note_on channel=0 note=65 velocity=32 time=0
note_on channel=0 note=65 velocity=0 time=160
note_on channel=0 note=68 velocity=32 time=0
note_on channel=0 note=68 velocity=0 time=160
note_on channel=0 note=71 velocity=34 time=0
note_on channel=0 note=71 velocity=0 time=160
note_on channel=0 note=74 velocity=36 time=0
note_on channel=0 note=74 velocity=0 time=160
note_on channel=0 note=71 velocity=39 time=0
note_on channel=0 note=71 velocity=0 time=160
note_on channel=0 note=74 velocity=40 time=0
note_on channel=0 note=74 velocity=0 time=160
note_on channel=0 note=77 velocity=41 time=0
note_on channel=0 note=77 velocity=0 time=160
note_on channel=0 note=74 velocity=43 time=0
note_on channel=0 note=74 velocity=0 time=160
note_on channel=0 note=77 velocity=45 time=0
note_on channel=0 note=77 velocity=0 time=160
note_on channel=0 note=78 velocity=46 time=0
note_on channel=0 note=78 velocity=0 time=160
note_on channel=0 note=59 velocity=0 time=0
note_on channel=0 note=46 velocity=0 time=0
note_on channel=0 note=53 velocity=0 time=0
note_on channel=0 note=56 velocity=0 time=0
note_on channel=0 note=80 velocity=50 time=0
note_on channel=0 note=58 velocity=43 time=0
<meta message set_tempo tempo=332410 time=8>
note_on channel=0 note=80 velocity=0 time=152
note_on channel=0 note=83 velocity=48 time=0
note_on channel=0 note=83 velocity=0 time=160
note_on channel=0 note=82 velocity=48 time=0
<meta message set_tempo tempo=300000 time=148>
note_on channel=0 note=82 velocity=0 time=12
note_on channel=0 note=80 velocity=50 time=0
note_on channel=0 note=68 velocity=24 time=0
note_on channel=0 note=65 velocity=24 time=0
note_on channel=0 note=71 velocity=32 time=0
note_on channel=0 note=80 velocity=0 time=160
note_on channel=0 note=78 velocity=48 time=0
note_on channel=0 note=78 velocity=0 time=160
note_on channel=0 note=77 velocity=48 time=0
note_on channel=0 note=77 velocity=0 time=160
note_on channel=0 note=75 velocity=53 time=0
note_on channel=0 note=75 velocity=0 time=160
note_on channel=0 note=74 velocity=47 time=0
note_on channel=0 note=74 velocity=0 time=160
note_on channel=0 note=77 velocity=47 time=0
<meta message set_tempo tempo=333333 time=148>
note_on channel=0 note=77 velocity=0 time=12
note_on channel=0 note=71 velocity=0 time=0
note_on channel=0 note=58 velocity=0 time=0
note_on channel=0 note=68 velocity=0 time=0
note_on channel=0 note=65 velocity=0 time=0
note_on channel=0 note=80 velocity=47 time=0
note_on channel=0 note=58 velocity=43 time=0
note_on channel=0 note=80 velocity=0 time=160
note_on channel=0 note=83 velocity=47 time=0
note_on channel=0 note=83 velocity=0 time=160
note_on channel=0 note=82 velocity=46 time=0
<meta message set_tempo tempo=300000 time=160>
note_on channel=0 note=82 velocity=0 time=0
note_on channel=0 note=80 velocity=47 time=0
note_on channel=0 note=71 velocity=32 time=0
note_on channel=0 note=68 velocity=24 time=0
note_on channel=0 note=65 velocity=24 time=0
note_on channel=0 note=80 velocity=0 time=160
note_on channel=0 note=78 velocity=45 time=0
note_on channel=0 note=78 velocity=0 time=160
note_on channel=0 note=77 velocity=45 time=0
note_on channel=0 note=77 velocity=0 time=160
note_on channel=0 note=75 velocity=52 time=0
note_on channel=0 note=75 velocity=0 time=160
note_on channel=0 note=74 velocity=48 time=0
note_on channel=0 note=74 velocity=0 time=160
note_on channel=0 note=77 velocity=48 time=0
<meta message set_tempo tempo=293399 time=160>
note_on channel=0 note=77 velocity=0 time=0
note_on channel=0 note=80 velocity=48 time=0
control_change channel=0 control=64 value=127 time=68
note_on channel=0 note=80 velocity=0 time=92
note_on channel=0 note=83 velocity=48 time=0
note_on channel=0 note=83 velocity=0 time=160
note_on channel=0 note=80 velocity=51 time=0
note_on channel=0 note=80 velocity=0 time=160
note_on channel=0 note=83 velocity=53 time=0
note_on channel=0 note=83 velocity=0 time=160
note_on channel=0 note=80 velocity=54 time=0
note_on channel=0 note=80 velocity=0 time=160
note_on channel=0 note=83 velocity=56 time=0
note_on channel=0 note=83 velocity=0 time=160
note_on channel=0 note=80 velocity=57 time=0
note_on channel=0 note=80 velocity=0 time=160
note_on channel=0 note=83 velocity=60 time=0
note_on channel=0 note=83 velocity=0 time=160
note_on channel=0 note=80 velocity=61 time=0
<meta message set_tempo tempo=315789 time=160>
note_on channel=0 note=80 velocity=0 time=0
note_on channel=0 note=71 velocity=0 time=0
note_on channel=0 note=82 velocity=61 time=0
note_on channel=0 note=70 velocity=40 time=0
<meta message set_tempo tempo=293399 time=20>
<meta message set_tempo tempo=294840 time=20>
control_change channel=0 control=64 value=0 time=9
<meta message set_tempo tempo=296296 time=11>
<meta message set_tempo tempo=297767 time=20>
<meta message set_tempo tempo=299252 time=20>
<meta message set_tempo tempo=300752 time=20>
<meta message set_tempo tempo=302267 time=20>
<meta message set_tempo tempo=303797 time=20>
note_on channel=0 note=82 velocity=0 time=0
note_on channel=0 note=80 velocity=56 time=0
control_change channel=0 control=64 value=127 time=9
<meta message set_tempo tempo=306122 time=11>
<meta message set_tempo tempo=307692 time=20>
<meta message set_tempo tempo=309278 time=20>
<meta message set_tempo tempo=310881 time=20>
<meta message set_tempo tempo=312500 time=20>
<meta message set_tempo tempo=314136 time=20>
<meta message set_tempo tempo=315789 time=20>
<meta message set_tempo tempo=317460 time=20>
note_on channel=0 note=80 velocity=0 time=0
note_on channel=0 note=82 velocity=53 time=0
<meta message set_tempo tempo=320000 time=20>
<meta message set_tempo tempo=321716 time=20>
<meta message set_tempo tempo=323450 time=20>
<meta message set_tempo tempo=325203 time=20>
<meta message set_tempo tempo=326975 time=20>
<meta message set_tempo tempo=328767 time=20>
<meta message set_tempo tempo=330579 time=20>
<meta message set_tempo tempo=333333 time=20>
note_on channel=0 note=82 velocity=0 time=0
note_on channel=0 note=80 velocity=48 time=0
<meta message set_tempo tempo=335196 time=20>
<meta message set_tempo tempo=337079 time=20>
<meta message set_tempo tempo=338983 time=20>
<meta message set_tempo tempo=340909 time=20>
<meta message set_tempo tempo=342857 time=20>
<meta message set_tempo tempo=344828 time=20>
<meta message set_tempo tempo=346821 time=20>
<meta message set_tempo tempo=349854 time=20>
note_on channel=0 note=80 velocity=0 time=0
note_on channel=0 note=82 velocity=44 time=0
<meta message set_tempo tempo=351906 time=20>
<meta message set_tempo tempo=353982 time=20>
<meta message set_tempo tempo=356083 time=20>
<meta message set_tempo tempo=358209 time=20>
<meta message set_tempo tempo=360360 time=20>
<meta message set_tempo tempo=362538 time=20>
<meta message set_tempo tempo=364742 time=20>
<meta message set_tempo tempo=368098 time=20>
note_on channel=0 note=82 velocity=0 time=0
note_on channel=0 note=80 velocity=40 time=0
<meta message set_tempo tempo=370370 time=20>
<meta message set_tempo tempo=372671 time=20>
<meta message set_tempo tempo=375000 time=20>
<meta message set_tempo tempo=377358 time=20>
<meta message set_tempo tempo=379747 time=20>
<meta message set_tempo tempo=382166 time=20>
<meta message set_tempo tempo=385852 time=20>
<meta message set_tempo tempo=388350 time=20>
note_on channel=0 note=80 velocity=0 time=0
note_on channel=0 note=82 velocity=36 time=0
<meta message set_tempo tempo=390879 time=20>
<meta message set_tempo tempo=393443 time=20>
<meta message set_tempo tempo=396040 time=20>
<meta message set_tempo tempo=398671 time=20>
<meta message set_tempo tempo=401338 time=20>
<meta message set_tempo tempo=404040 time=20>
<meta message set_tempo tempo=408163 time=20>
<meta message set_tempo tempo=410959 time=20>
note_on channel=0 note=82 velocity=0 time=0
note_on channel=0 note=80 velocity=32 time=0
<meta message set_tempo tempo=413793 time=20>
<meta message set_tempo tempo=416667 time=20>
<meta message set_tempo tempo=419580 time=20>
<meta message set_tempo tempo=422535 time=20>
<meta message set_tempo tempo=425532 time=20>
<meta message set_tempo tempo=428571 time=20>
<meta message set_tempo tempo=433213 time=20>
<meta message set_tempo tempo=436364 time=20>
note_on channel=0 note=80 velocity=0 time=0
note_on channel=0 note=82 velocity=27 time=0
<meta message set_tempo tempo=439560 time=20>
<meta message set_tempo tempo=442804 time=20>
<meta message set_tempo tempo=446097 time=20>
<meta message set_tempo tempo=449438 time=20>
<meta message set_tempo tempo=452830 time=20>
<meta message set_tempo tempo=458015 time=20>
<meta message set_tempo tempo=461538 time=20>
<meta message set_tempo tempo=353982 time=20>
note_on channel=0 note=82 velocity=0 time=0
note_on channel=0 note=58 velocity=0 time=0
note_on channel=0 note=65 velocity=0 time=0
note_on channel=0 note=68 velocity=0 time=0
note_on channel=0 note=70 velocity=0 time=0
control_change channel=0 control=91 value=126 time=0
note_on channel=0 note=79 velocity=48 time=0
note_on channel=0 note=51 velocity=40 time=0
<meta message set_tempo tempo=375000 time=8>
control_change channel=0 control=91 value=126 time=0
control_change channel=0 control=64 value=0 time=6
note_on channel=0 note=79 velocity=0 time=146
note_on channel=0 note=82 velocity=45 time=0
note_on channel=0 note=82 velocity=0 time=160
note_on channel=0 note=80 velocity=43 time=0
<meta message set_tempo tempo=300000 time=160>
note_on channel=0 note=80 velocity=0 time=0
note_on channel=0 note=79 velocity=48 time=0
note_on channel=0 note=58 velocity=32 time=0
note_on channel=0 note=79 velocity=0 time=160
note_on channel=0 note=77 velocity=45 time=0
note_on channel=0 note=77 velocity=0 time=160
note_on channel=0 note=75 velocity=43 time=0
note_on channel=0 note=75 velocity=0 time=160
note_on channel=0 note=74 velocity=48 time=0
note_on channel=0 note=74 velocity=0 time=160
note_on channel=0 note=72 velocity=46 time=0
note_on channel=0 note=72 velocity=0 time=160
note_on channel=0 note=70 velocity=45 time=0
<meta message set_tempo tempo=309278 time=160>
note_on channel=0 note=70 velocity=0 time=0
note_on channel=0 note=58 velocity=0 time=0
note_on channel=0 note=51 velocity=0 time=0
note_on channel=0 note=68 velocity=48 time=0
note_on channel=0 note=53 velocity=41 time=0
note_on channel=0 note=68 velocity=0 time=160
note_on channel=0 note=67 velocity=46 time=0
note_on channel=0 note=67 velocity=0 time=160
note_on channel=0 note=65 velocity=44 time=0
<meta message set_tempo tempo=300000 time=160>
note_on channel=0 note=65 velocity=0 time=0
note_on channel=0 note=63 velocity=48 time=0
note_on channel=0 note=58 velocity=31 time=0
note_on channel=0 note=63 velocity=0 time=160
note_on channel=0 note=62 velocity=45 time=0
note_on channel=0 note=62 velocity=0 time=160
note_on channel=0 note=60 velocity=45 time=0
note_on channel=0 note=60 velocity=0 time=160
note_on channel=0 note=58 velocity=48 time=0
note_on channel=0 note=58 velocity=0 time=160
note_on channel=0 note=60 velocity=46 time=0
note_on channel=0 note=60 velocity=0 time=160
note_on channel=0 note=62 velocity=45 time=0
<meta message set_tempo tempo=305344 time=160>
note_on channel=0 note=62 velocity=0 time=0
note_on channel=0 note=58 velocity=0 time=0
note_on channel=0 note=53 velocity=0 time=0
note_on channel=0 note=63 velocity=48 time=0
note_on channel=0 note=55 velocity=40 time=0
note_on channel=0 note=63 velocity=0 time=160
note_on channel=0 note=62 velocity=46 time=0
note_on channel=0 note=62 velocity=0 time=160
note_on channel=0 note=63 velocity=44 time=0
<meta message set_tempo tempo=300000 time=160>
note_on channel=0 note=63 velocity=0 time=0
note_on channel=0 note=64 velocity=50 time=0
note_on channel=0 note=58 velocity=30 time=0
note_on channel=0 note=64 velocity=0 time=160
note_on channel=0 note=63 velocity=49 time=0
note_on channel=0 note=63 velocity=0 time=160
note_on channel=0 note=64 velocity=45 time=0
note_on channel=0 note=64 velocity=0 time=160
note_on channel=0 note=65 velocity=54 time=0
note_on channel=0 note=65 velocity=0 time=160
note_on channel=0 note=64 velocity=51 time=0
note_on channel=0 note=64 velocity=0 time=160
note_on channel=0 note=65 velocity=46 time=0
<meta message set_tempo tempo=304569 time=160>
note_on channel=0 note=65 velocity=0 time=0
note_on channel=0 note=58 velocity=0 time=0
note_on channel=0 note=55 velocity=0 time=0
note_on channel=0 note=66 velocity=57 time=0
note_on channel=0 note=50 velocity=43 time=0
note_on channel=0 note=66 velocity=0 time=160
note_on channel=0 note=65 velocity=52 time=0
note_on channel=0 note=65 velocity=0 time=160
note_on channel=0 note=66 velocity=48 time=0
<meta message set_tempo tempo=300000 time=160>
note_on channel=0 note=66 velocity=0 time=0
note_on channel=0 note=67 velocity=56 time=0
note_on channel=0 note=58 velocity=32 time=0
note_on channel=0 note=67 velocity=0 time=160
note_on channel=0 note=66 velocity=52 time=0
note_on channel=0 note=66 velocity=0 time=160
note_on channel=0 note=67 velocity=48 time=0
note_on channel=0 note=67 velocity=0 time=160
note_on channel=0 note=68 velocity=48 time=0
note_on channel=0 note=68 velocity=0 time=160
note_on channel=0 note=67 velocity=45 time=0
note_on channel=0 note=67 velocity=0 time=160
note_on channel=0 note=68 velocity=45 time=0
<meta message set_tempo tempo=308483 time=160>
note_on channel=0 note=68 velocity=0 time=0
note_on channel=0 note=58 velocity=0 time=0
note_on channel=0 note=50 velocity=0 time=0
note_on channel=0 note=67 velocity=48 time=0
note_on channel=0 note=51 velocity=40 time=0
note_on channel=0 note=67 velocity=0 time=160
note_on channel=0 note=70 velocity=48 time=0
note_on channel=0 note=70 velocity=0 time=160
note_on channel=0 note=68 velocity=45 time=0
<meta message set_tempo tempo=300000 time=160>
note_on channel=0 note=68 velocity=0 time=0
note_on channel=0 note=67 velocity=48 time=0
note_on channel=0 note=58 velocity=36 time=0
note_on channel=0 note=67 velocity=0 time=160
note_on channel=0 note=68 velocity=45 time=0
note_on channel=0 note=68 velocity=0 time=160
note_on channel=0 note=70 velocity=43 time=0
note_on channel=0 note=70 velocity=0 time=160
note_on channel=0 note=72 velocity=48 time=0
note_on channel=0 note=72 velocity=0 time=160
note_on channel=0 note=74 velocity=45 time=0
note_on channel=0 note=74 velocity=0 time=160
note_on channel=0 note=75 velocity=44 time=0
<meta message set_tempo tempo=320856 time=160>
note_on channel=0 note=75 velocity=0 time=0
note_on channel=0 note=58 velocity=0 time=0
note_on channel=0 note=51 velocity=0 time=0
note_on channel=0 note=77 velocity=50 time=0
note_on channel=0 note=44 velocity=41 time=0
note_on channel=0 note=77 velocity=0 time=160
note_on channel=0 note=84 velocity=50 time=0
note_on channel=0 note=84 velocity=0 time=160
note_on channel=0 note=82 velocity=46 time=0
<meta message set_tempo tempo=300000 time=160>
note_on channel=0 note=82 velocity=0 time=0
note_on channel=0 note=44 velocity=0 time=0
note_on channel=0 note=80 velocity=51 time=0
note_on channel=0 note=60 velocity=32 time=0
note_on channel=0 note=56 velocity=24 time=0
note_on channel=0 note=80 velocity=0 time=160
note_on channel=0 note=79 velocity=48 time=0
note_on channel=0 note=79 velocity=0 time=160
note_on channel=0 note=77 velocity=45 time=0
note_on channel=0 note=77 velocity=0 time=160
note_on channel=0 note=75 velocity=48 time=0
note_on channel=0 note=75 velocity=0 time=160
note_on channel=0 note=74 velocity=45 time=0
note_on channel=0 note=74 velocity=0 time=160
note_on channel=0 note=72 velocity=45 time=0
<meta message set_tempo tempo=308483 time=160>
note_on channel=0 note=72 velocity=0 time=0
note_on channel=0 note=56 velocity=0 time=0
note_on channel=0 note=60 velocity=0 time=0
note_on channel=0 note=74 velocity=46 time=0
note_on channel=0 note=46 velocity=40 time=0
note_on channel=0 note=74 velocity=0 time=160
note_on channel=0 note=77 velocity=46 time=0
note_on channel=0 note=77 velocity=0 time=160
note_on channel=0 note=75 velocity=46 time=0
<meta message set_tempo tempo=300000 time=160>
note_on channel=0 note=75 velocity=0 time=0
note_on channel=0 note=46 velocity=0 time=0
note_on channel=0 note=74 velocity=49 time=0
note_on channel=0 note=56 velocity=23 time=0
note_on channel=0 note=65 velocity=31 time=0
note_on channel=0 note=58 velocity=23 time=0
note_on channel=0 note=74 velocity=0 time=160
note_on channel=0 note=75 velocity=50 time=0
note_on channel=0 note=75 velocity=0 time=160
note_on channel=0 note=77 velocity=48 time=0
note_on channel=0 note=77 velocity=0 time=160
note_on channel=0 note=79 velocity=53 time=0
note_on channel=0 note=79 velocity=0 time=160
note_on channel=0 note=80 velocity=51 time=0
note_on channel=0 note=80 velocity=0 time=160
note_on channel=0 note=82 velocity=51 time=0
<meta message set_tempo tempo=308483 time=160>
note_on channel=0 note=82 velocity=0 time=0
note_on channel=0 note=58 velocity=0 time=0
note_on channel=0 note=65 velocity=0 time=0
note_on channel=0 note=56 velocity=0 time=0
note_on channel=0 note=75 velocity=55 time=0
note_on channel=0 note=51 velocity=47 time=0
note_on channel=0 note=75 velocity=0 time=160
note_on channel=0 note=77 velocity=56 time=0
note_on channel=0 note=77 velocity=0 time=160
note_on channel=0 note=79 velocity=56 time=0
<meta message set_tempo tempo=300000 time=160>
note_on channel=0 note=79 velocity=0 time=0
note_on channel=0 note=51 velocity=0 time=0
note_on channel=0 note=80 velocity=58 time=0
note_on channel=0 note=63 velocity=40 time=0
note_on channel=0 note=55 velocity=30 time=0
note_on channel=0 note=58 velocity=30 time=0
note_on channel=0 note=80 velocity=0 time=160
note_on channel=0 note=82 velocity=59 time=0
note_on channel=0 note=82 velocity=0 time=160
note_on channel=0 note=84 velocity=57 time=0
note_on channel=0 note=84 velocity=0 time=160
note_on channel=0 note=86 velocity=61 time=0
note_on channel=0 note=86 velocity=0 time=160
note_on channel=0 note=87 velocity=62 time=0
note_on channel=0 note=87 velocity=0 time=160
note_on channel=0 note=89 velocity=59 time=0
<meta message set_tempo tempo=334262 time=160>
note_on channel=0 note=89 velocity=0 time=0
note_on channel=0 note=58 velocity=0 time=0
note_on channel=0 note=55 velocity=0 time=0
note_on channel=0 note=63 velocity=0 time=0
note_on channel=0 note=91 velocity=64 time=0
note_on channel=0 note=51 velocity=46 time=0
note_on channel=0 note=91 velocity=0 time=160
note_on channel=0 note=94 velocity=62 time=0
note_on channel=0 note=94 velocity=0 time=160
note_on channel=0 note=92 velocity=58 time=0
<meta message set_tempo tempo=300752 time=160>
note_on channel=0 note=92 velocity=0 time=0
note_on channel=0 note=91 velocity=64 time=0
note_on channel=0 note=58 velocity=40 time=0
note_on channel=0 note=91 velocity=0 time=160
note_on channel=0 note=89 velocity=61 time=0
note_on channel=0 note=89 velocity=0 time=160
note_on channel=0 note=87 velocity=60 time=0
note_on channel=0 note=87 velocity=0 time=160
note_on channel=0 note=86 velocity=64 time=0
note_on channel=0 note=86 velocity=0 time=160
note_on channel=0 note=84 velocity=58 time=0
note_on channel=0 note=84 velocity=0 time=160
note_on channel=0 note=82 velocity=55 time=0
<meta message set_tempo tempo=306905 time=160>
note_on channel=0 note=82 velocity=0 time=0
note_on channel=0 note=58 velocity=0 time=0
note_on channel=0 note=51 velocity=0 time=0
note_on channel=0 note=80 velocity=64 time=0
note_on channel=0 note=53 velocity=43 time=0
note_on channel=0 note=80 velocity=0 time=160
note_on channel=0 note=79 velocity=62 time=0
note_on channel=0 note=79 velocity=0 time=160
note_on channel=0 note=77 velocity=61 time=0
<meta message set_tempo tempo=300000 time=160>
note_on channel=0 note=77 velocity=0 time=0
note_on channel=0 note=75 velocity=59 time=0
note_on channel=0 note=58 velocity=32 time=0
note_on channel=0 note=75 velocity=0 time=160
note_on channel=0 note=74 velocity=57 time=0
note_on channel=0 note=74 velocity=0 time=160
note_on channel=0 note=72 velocity=55 time=0
note_on channel=0 note=72 velocity=0 time=160
note_on channel=0 note=70 velocity=54 time=0
note_on channel=0 note=70 velocity=0 time=160
note_on channel=0 note=72 velocity=52 time=0
note_on channel=0 note=72 velocity=0 time=160
note_on channel=0 note=74 velocity=50 time=0
<meta message set_tempo tempo=307692 time=160>
note_on channel=0 note=74 velocity=0 time=0
note_on channel=0 note=58 velocity=0 time=0
note_on channel=0 note=53 velocity=0 time=0
note_on channel=0 note=75 velocity=48 time=0
note_on channel=0 note=55 velocity=43 time=0
note_on channel=0 note=75 velocity=0 time=160
note_on channel=0 note=74 velocity=48 time=0
note_on channel=0 note=74 velocity=0 time=160
note_on channel=0 note=75 velocity=48 time=0
<meta message set_tempo tempo=300000 time=160>
note_on channel=0 note=75 velocity=0 time=0
note_on channel=0 note=76 velocity=52 time=0
note_on channel=0 note=58 velocity=32 time=0
note_on channel=0 note=76 velocity=0 time=160
note_on channel=0 note=75 velocity=49 time=0
note_on channel=0 note=75 velocity=0 time=160
note_on channel=0 note=76 velocity=49 time=0
note_on channel=0 note=76 velocity=0 time=160
note_on channel=0 note=77 velocity=54 time=0
note_on channel=0 note=77 velocity=0 time=160
note_on channel=0 note=76 velocity=50 time=0
note_on channel=0 note=76 velocity=0 time=160
note_on channel=0 note=77 velocity=49 time=0
<meta message set_tempo tempo=325203 time=160>
note_on channel=0 note=77 velocity=0 time=0
note_on channel=0 note=58 velocity=0 time=0
note_on channel=0 note=55 velocity=0 time=0
note_on channel=0 note=78 velocity=56 time=0
note_on channel=0 note=50 velocity=45 time=0
note_on channel=0 note=78 velocity=0 time=160
note_on channel=0 note=77 velocity=52 time=0
note_on channel=0 note=77 velocity=0 time=160
note_on channel=0 note=78 velocity=52 time=0
<meta message set_tempo tempo=300000 time=160>
note_on channel=0 note=78 velocity=0 time=0
note_on channel=0 note=79 velocity=56 time=0
note_on channel=0 note=58 velocity=35 time=0
note_on channel=0 note=79 velocity=0 time=160
note_on channel=0 note=78 velocity=51 time=0
note_on channel=0 note=78 velocity=0 time=160
note_on channel=0 note=79 velocity=51 time=0
note_on channel=0 note=79 velocity=0 time=160
note_on channel=0 note=80 velocity=51 time=0
note_on channel=0 note=80 velocity=0 time=160
note_on channel=0 note=79 velocity=48 time=0
note_on channel=0 note=79 velocity=0 time=160
note_on channel=0 note=80 velocity=48 time=0
<meta message set_tempo tempo=303030 time=160>
note_on channel=0 note=80 velocity=0 time=0
note_on channel=0 note=58 velocity=0 time=0
note_on channel=0 note=50 velocity=0 time=0
note_on channel=0 note=79 velocity=48 time=0
note_on channel=0 note=49 velocity=45 time=0
note_on channel=0 note=79 velocity=0 time=160
note_on channel=0 note=78 velocity=48 time=0
note_on channel=0 note=78 velocity=0 time=160
note_on channel=0 note=79 velocity=48 time=0
<meta message set_tempo tempo=300000 time=160>
note_on channel=0 note=79 velocity=0 time=0
note_on channel=0 note=80 velocity=50 time=0
note_on channel=0 note=51 velocity=28 time=0
note_on channel=0 note=58 velocity=38 time=0
note_on channel=0 note=80 velocity=0 time=160
note_on channel=0 note=79 velocity=51 time=0
note_on channel=0 note=79 velocity=0 time=160
note_on channel=0 note=80 velocity=48 time=0
note_on channel=0 note=80 velocity=0 time=160
note_on channel=0 note=82 velocity=53 time=0
note_on channel=0 note=82 velocity=0 time=160
note_on channel=0 note=80 velocity=54 time=0
note_on channel=0 note=80 velocity=0 time=160
note_on channel=0 note=82 velocity=52 time=0
<meta message set_tempo tempo=306122 time=160>
note_on channel=0 note=82 velocity=0 time=0
note_on channel=0 note=58 velocity=0 time=0
note_on channel=0 note=51 velocity=0 time=0
note_on channel=0 note=49 velocity=0 time=0
note_on channel=0 note=80 velocity=56 time=0
note_on channel=0 note=48 velocity=62 time=0
note_on channel=0 note=80 velocity=0 time=160
note_on channel=0 note=79 velocity=56 time=0
note_on channel=0 note=79 velocity=0 time=160
note_on channel=0 note=80 velocity=53 time=0
<meta message set_tempo tempo=300000 time=160>
note_on channel=0 note=80 velocity=0 time=0
note_on channel=0 note=82 velocity=58 time=0
note_on channel=0 note=51 velocity=30 time=0
note_on channel=0 note=56 velocity=41 time=0
note_on channel=0 note=82 velocity=0 time=160
note_on channel=0 note=80 velocity=59 time=0
note_on channel=0 note=80 velocity=0 time=160
note_on channel=0 note=82 velocity=54 time=0
note_on channel=0 note=82 velocity=0 time=160
note_on channel=0 note=84 velocity=61 time=0
note_on channel=0 note=84 velocity=0 time=160
note_on channel=0 note=83 velocity=60 time=0
note_on channel=0 note=83 velocity=0 time=160
note_on channel=0 note=84 velocity=60 time=0
<meta message set_tempo tempo=305344 time=160>
note_on channel=0 note=84 velocity=0 time=0
note_on channel=0 note=56 velocity=0 time=0
note_on channel=0 note=51 velocity=0 time=0
note_on channel=0 note=48 velocity=0 time=0
note_on channel=0 note=86 velocity=64 time=0
note_on channel=0 note=48 velocity=71 time=0
note_on channel=0 note=86 velocity=0 time=160
note_on channel=0 note=85 velocity=63 time=0
note_on channel=0 note=85 velocity=0 time=160
note_on channel=0 note=86 velocity=63 time=0
<meta message set_tempo tempo=300000 time=160>
note_on channel=0 note=86 velocity=0 time=0
note_on channel=0 note=88 velocity=66 time=0
note_on channel=0 note=57 velocity=44 time=0
note_on channel=0 note=50 velocity=33 time=0
note_on channel=0 note=88 velocity=0 time=160
note_on channel=0 note=86 velocity=65 time=0
note_on channel=0 note=86 velocity=0 time=160
note_on channel=0 note=88 velocity=62 time=0
note_on channel=0 note=88 velocity=0 time=160
note_on channel=0 note=90 velocity=69 time=0
note_on channel=0 note=90 velocity=0 time=160
note_on channel=0 note=88 velocity=68 time=0
note_on channel=0 note=88 velocity=0 time=160
note_on channel=0 note=90 velocity=65 time=0
<meta message set_tempo tempo=306905 time=160>
note_on channel=0 note=90 velocity=0 time=0
note_on channel=0 note=50 velocity=0 time=0
note_on channel=0 note=57 velocity=0 time=0
note_on channel=0 note=48 velocity=0 time=0
note_on channel=0 note=91 velocity=72 time=0
note_on channel=0 note=47 velocity=72 time=0
note_on channel=0 note=91 velocity=0 time=160
note_on channel=0 note=90 velocity=72 time=0
note_on channel=0 note=90 velocity=0 time=160
note_on channel=0 note=91 velocity=68 time=0
<meta message set_tempo tempo=300000 time=160>
note_on channel=0 note=91 velocity=0 time=0
note_on channel=0 note=93 velocity=74 time=0
note_on channel=0 note=50 velocity=31 time=0
note_on channel=0 note=55 velocity=42 time=0
note_on channel=0 note=93 velocity=0 time=160
note_on channel=0 note=91 velocity=73 time=0
note_on channel=0 note=91 velocity=0 time=160
note_on channel=0 note=93 velocity=70 time=0
note_on channel=0 note=93 velocity=0 time=160
note_on channel=0 note=95 velocity=77 time=0
note_on channel=0 note=95 velocity=0 time=160
note_on channel=0 note=93 velocity=76 time=0
note_on channel=0 note=93 velocity=0 time=160
note_on channel=0 note=95 velocity=72 time=0
<meta message set_tempo tempo=306122 time=160>
note_on channel=0 note=95 velocity=0 time=0
note_on channel=0 note=55 velocity=0 time=0
note_on channel=0 note=50 velocity=0 time=0
note_on channel=0 note=47 velocity=0 time=0
note_on channel=0 note=96 velocity=81 time=0
note_on channel=0 note=46 velocity=72 time=0
note_on channel=0 note=96 velocity=0 time=160
note_on channel=0 note=95 velocity=77 time=0
note_on channel=0 note=95 velocity=0 time=160
note_on channel=0 note=96 velocity=73 time=0
<meta message set_tempo tempo=300000 time=160>
note_on channel=0 note=96 velocity=0 time=0
note_on channel=0 note=98 velocity=81 time=0
note_on channel=0 note=48 velocity=34 time=0
note_on channel=0 note=55 velocity=45 time=0
note_on channel=0 note=98 velocity=0 time=160
note_on channel=0 note=96 velocity=77 time=0
note_on channel=0 note=96 velocity=0 time=160
note_on channel=0 note=98 velocity=73 time=0
note_on channel=0 note=98 velocity=0 time=160
note_on channel=0 note=100 velocity=81 time=0
note_on channel=0 note=100 velocity=0 time=160
note_on channel=0 note=98 velocity=78 time=0
note_on channel=0 note=98 velocity=0 time=160
note_on channel=0 note=100 velocity=73 time=0
<meta message set_tempo tempo=320856 time=160>
note_on channel=0 note=100 velocity=0 time=0
note_on channel=0 note=55 velocity=0 time=0
note_on channel=0 note=48 velocity=0 time=0
note_on channel=0 note=46 velocity=0 time=0
note_on channel=0 note=101 velocity=81 time=0
note_on channel=0 note=44 velocity=72 time=0
note_on channel=0 note=101 velocity=0 time=160
note_on channel=0 note=99 velocity=73 time=0
note_on channel=0 note=99 velocity=0 time=160
note_on channel=0 note=97 velocity=70 time=0
<meta message set_tempo tempo=300000 time=160>
note_on channel=0 note=97 velocity=0 time=0
note_on channel=0 note=96 velocity=81 time=0
note_on channel=0 note=48 velocity=34 time=0
note_on channel=0 note=53 velocity=45 time=0
note_on channel=0 note=96 velocity=0 time=160
note_on channel=0 note=94 velocity=74 time=0
note_on channel=0 note=94 velocity=0 time=160
note_on channel=0 note=92 velocity=72 time=0
note_on channel=0 note=92 velocity=0 time=160
note_on channel=0 note=91 velocity=81 time=0
note_on channel=0 note=91 velocity=0 time=160
note_on channel=0 note=89 velocity=74 time=0
note_on channel=0 note=89 velocity=0 time=160
note_on channel=0 note=87 velocity=71 time=0
<meta message set_tempo tempo=305344 time=160>
note_on channel=0 note=87 velocity=0 time=0
note_on channel=0 note=53 velocity=0 time=0
note_on channel=0 note=48 velocity=0 time=0
note_on channel=0 note=44 velocity=0 time=0
note_on channel=0 note=86 velocity=81 time=0
note_on channel=0 note=46 velocity=71 time=0
note_on channel=0 note=86 velocity=0 time=160
note_on channel=0 note=84 velocity=74 time=0
note_on channel=0 note=84 velocity=0 time=160
note_on channel=0 note=82 velocity=67 time=0
<meta message set_tempo tempo=300000 time=160>
note_on channel=0 note=82 velocity=0 time=0
note_on channel=0 note=81 velocity=81 time=0
note_on channel=0 note=56 velocity=47 time=0
note_on channel=0 note=53 velocity=35 time=0
note_on channel=0 note=81 velocity=0 time=160
note_on channel=0 note=82 velocity=74 time=0
note_on channel=0 note=82 velocity=0 time=160
note_on channel=0 note=84 velocity=70 time=0
note_on channel=0 note=84 velocity=0 time=160
note_on channel=0 note=86 velocity=81 time=0
note_on channel=0 note=86 velocity=0 time=160
note_on channel=0 note=87 velocity=75 time=0
note_on channel=0 note=87 velocity=0 time=160
note_on channel=0 note=89 velocity=70 time=0
<meta message set_tempo tempo=334262 time=160>
note_on channel=0 note=89 velocity=0 time=0
note_on channel=0 note=53 velocity=0 time=0
note_on channel=0 note=56 velocity=0 time=0
note_on channel=0 note=46 velocity=0 time=0
note_on channel=0 note=90 velocity=87 time=0
note_on channel=0 note=51 velocity=72 time=0
note_on channel=0 note=90 velocity=0 time=160
note_on channel=0 note=94 velocity=79 time=0
note_on channel=0 note=94 velocity=0 time=160
note_on channel=0 note=92 velocity=77 time=0
note_on channel=0 note=92 velocity=0 time=160
note_on channel=0 note=90 velocity=81 time=0
note_on channel=0 note=63 velocity=57 time=0
<meta message set_tempo tempo=300000 time=8>
note_on channel=0 note=90 velocity=0 time=152
note_on channel=0 note=89 velocity=72 time=0
note_on channel=0 note=89 velocity=0 time=160
note_on channel=0 note=87 velocity=69 time=0
note_on channel=0 note=87 velocity=0 time=160
note_on channel=0 note=85 velocity=79 time=0
note_on channel=0 note=85 velocity=0 time=160
note_on channel=0 note=83 velocity=72 time=0
note_on channel=0 note=83 velocity=0 time=160
note_on channel=0 note=82 velocity=69 time=0
<meta message set_tempo tempo=334262 time=160>
note_on channel=0 note=82 velocity=0 time=0
note_on channel=0 note=63 velocity=0 time=0
note_on channel=0 note=51 velocity=0 time=0
note_on channel=0 note=83 velocity=87 time=0
note_on channel=0 note=44 velocity=73 time=0
note_on channel=0 note=83 velocity=0 time=160
note_on channel=0 note=87 velocity=78 time=0
note_on channel=0 note=87 velocity=0 time=160
note_on channel=0 note=85 velocity=72 time=0
note_on channel=0 note=85 velocity=0 time=160
note_on channel=0 note=83 velocity=81 time=0
note_on channel=0 note=56 velocity=57 time=0
<meta message set_tempo tempo=300000 time=8>
note_on channel=0 note=83 velocity=0 time=152
note_on channel=0 note=82 velocity=75 time=0
note_on channel=0 note=82 velocity=0 time=160
note_on channel=0 note=80 velocity=75 time=0
note_on channel=0 note=80 velocity=0 time=160
note_on channel=0 note=78 velocity=81 time=0
note_on channel=0 note=78 velocity=0 time=160
note_on channel=0 note=77 velocity=72 time=0
note_on channel=0 note=77 velocity=0 time=160
note_on channel=0 note=75 velocity=68 time=0
<meta message set_tempo tempo=333333 time=160>
note_on channel=0 note=75 velocity=0 time=0
note_on channel=0 note=56 velocity=0 time=0
note_on channel=0 note=44 velocity=0 time=0
note_on channel=0 note=74 velocity=87 time=0
note_on channel=0 note=46 velocity=72 time=0
note_on channel=0 note=74 velocity=0 time=160
note_on channel=0 note=77 velocity=77 time=0
note_on channel=0 note=77 velocity=0 time=160
note_on channel=0 note=75 velocity=74 time=0
<meta message set_tempo tempo=300000 time=160>
note_on channel=0 note=75 velocity=0 time=0
note_on channel=0 note=74 velocity=81 time=0
note_on channel=0 note=58 velocity=56 time=0
note_on channel=0 note=74 velocity=0 time=160
note_on channel=0 note=71 velocity=72 time=0
note_on channel=0 note=71 velocity=0 time=160
note_on channel=0 note=70 velocity=69 time=0
note_on channel=0 note=70 velocity=0 time=160
note_on channel=0 note=68 velocity=79 time=0
note_on channel=0 note=68 velocity=0 time=160
note_on channel=0 note=66 velocity=68 time=0
note_on channel=0 note=66 velocity=0 time=160
note_on channel=0 note=65 velocity=63 time=0
<meta message set_tempo tempo=341880 time=160>
note_on channel=0 note=65 velocity=0 time=0
note_on channel=0 note=58 velocity=0 time=0
note_on channel=0 note=46 velocity=0 time=0
note_on channel=0 note=78 velocity=89 time=0
note_on channel=0 note=39 velocity=73 time=0
note_on channel=0 note=78 velocity=0 time=160
note_on channel=0 note=82 velocity=75 time=0
note_on channel=0 note=82 velocity=0 time=160
note_on channel=0 note=80 velocity=70 time=0
<meta message set_tempo tempo=300000 time=160>
note_on channel=0 note=80 velocity=0 time=0
note_on channel=0 note=78 velocity=80 time=0
note_on channel=0 note=51 velocity=54 time=0
note_on channel=0 note=78 velocity=0 time=160
note_on channel=0 note=77 velocity=73 time=0
note_on channel=0 note=77 velocity=0 time=160
note_on channel=0 note=75 velocity=70 time=0
note_on channel=0 note=75 velocity=0 time=160
note_on channel=0 note=73 velocity=79 time=0
note_on channel=0 note=73 velocity=0 time=160
note_on channel=0 note=71 velocity=70 time=0
note_on channel=0 note=71 velocity=0 time=160
note_on channel=0 note=70 velocity=64 time=0
<meta message set_tempo tempo=362538 time=160>
note_on channel=0 note=70 velocity=0 time=0
note_on channel=0 note=51 velocity=0 time=0
note_on channel=0 note=39 velocity=0 time=0
note_on channel=0 note=71 velocity=85 time=0
note_on channel=0 note=32 velocity=75 time=0
note_on channel=0 note=71 velocity=0 time=160
note_on channel=0 note=75 velocity=77 time=0
note_on channel=0 note=75 velocity=0 time=160
note_on channel=0 note=73 velocity=74 time=0
<meta message set_tempo tempo=300000 time=160>
note_on channel=0 note=73 velocity=0 time=0
note_on channel=0 note=71 velocity=80 time=0
note_on channel=0 note=44 velocity=64 time=0
note_on channel=0 note=71 velocity=0 time=160
note_on channel=0 note=70 velocity=74 time=0
note_on channel=0 note=70 velocity=0 time=160
note_on channel=0 note=68 velocity=71 time=0
note_on channel=0 note=68 velocity=0 time=160
note_on channel=0 note=66 velocity=78 time=0
note_on channel=0 note=66 velocity=0 time=160
note_on channel=0 note=65 velocity=70 time=0
note_on channel=0 note=65 velocity=0 time=160
note_on channel=0 note=63 velocity=67 time=0
<meta message set_tempo tempo=333333 time=160>
note_on channel=0 note=63 velocity=0 time=0
note_on channel=0 note=44 velocity=0 time=0
note_on channel=0 note=32 velocity=0 time=0
note_on channel=0 note=62 velocity=89 time=0
note_on channel=0 note=34 velocity=76 time=0
note_on channel=0 note=62 velocity=0 time=160
note_on channel=0 note=65 velocity=77 time=0
note_on channel=0 note=65 velocity=0 time=160
note_on channel=0 note=63 velocity=77 time=0
<meta message set_tempo tempo=300000 time=160>
note_on channel=0 note=63 velocity=0 time=0
note_on channel=0 note=62 velocity=81 time=0
note_on channel=0 note=46 velocity=57 time=0
note_on channel=0 note=62 velocity=0 time=160
note_on channel=0 note=59 velocity=77 time=0
note_on channel=0 note=59 velocity=0 time=160
note_on channel=0 note=58 velocity=73 time=0
note_on channel=0 note=58 velocity=0 time=160
note_on channel=0 note=56 velocity=81 time=0
note_on channel=0 note=56 velocity=0 time=160
note_on channel=0 note=54 velocity=76 time=0
note_on channel=0 note=54 velocity=0 time=160
note_on channel=0 note=53 velocity=72 time=0
note_on channel=0 note=53 velocity=0 time=160
note_on channel=0 note=46 velocity=0 time=0
note_on channel=0 note=34 velocity=0 time=0
note_on channel=0 note=51 velocity=81 time=0
note_on channel=0 note=39 velocity=58 time=0
note_on channel=0 note=51 velocity=0 time=160
note_on channel=0 note=53 velocity=79 time=0
note_on channel=0 note=53 velocity=0 time=160
note_on channel=0 note=54 velocity=79 time=0
note_on channel=0 note=54 velocity=0 time=160
note_on channel=0 note=39 velocity=0 time=0
note_on channel=0 note=56 velocity=89 time=0
note_on channel=0 note=50 velocity=72 time=0
note_on channel=0 note=46 velocity=54 time=0
<meta message set_tempo tempo=333333 time=8>
note_on channel=0 note=56 velocity=0 time=152
note_on channel=0 note=59 velocity=81 time=0
note_on channel=0 note=59 velocity=0 time=160
note_on channel=0 note=58 velocity=81 time=0
note_on channel=0 note=58 velocity=0 time=160
note_on channel=0 note=56 velocity=81 time=0
note_on channel=0 note=56 velocity=0 time=160
note_on channel=0 note=54 velocity=77 time=0
note_on channel=0 note=54 velocity=0 time=160
note_on channel=0 note=53 velocity=77 time=0
note_on channel=0 note=53 velocity=0 time=160
note_on channel=0 note=46 velocity=0 time=0
note_on channel=0 note=50 velocity=0 time=0
note_on channel=0 note=51 velocity=81 time=0
note_on channel=0 note=39 velocity=56 time=0
<meta message set_tempo tempo=300000 time=8>
note_on channel=0 note=51 velocity=0 time=152
note_on channel=0 note=53 velocity=76 time=0
note_on channel=0 note=39 velocity=0 time=80
note_on channel=0 note=53 velocity=0 time=80
note_on channel=0 note=54 velocity=76 time=0
note_on channel=0 note=54 velocity=0 time=160
note_on channel=0 note=56 velocity=89 time=0
note_on channel=0 note=50 velocity=81 time=0
note_on channel=0 note=46 velocity=61 time=0
<meta message set_tempo tempo=333333 time=8>
note_on channel=0 note=56 velocity=0 time=152
note_on channel=0 note=59 velocity=77 time=0
note_on channel=0 note=59 velocity=0 time=160
note_on channel=0 note=58 velocity=78 time=0
note_on channel=0 note=58 velocity=0 time=160
note_on channel=0 note=56 velocity=81 time=0
note_on channel=0 note=56 velocity=0 time=160
note_on channel=0 note=54 velocity=77 time=0
note_on channel=0 note=54 velocity=0 time=160
note_on channel=0 note=53 velocity=77 time=0
<meta message set_tempo tempo=300752 time=160>
note_on channel=0 note=53 velocity=0 time=0
note_on channel=0 note=46 velocity=0 time=0
note_on channel=0 note=50 velocity=0 time=0
note_on channel=0 note=51 velocity=81 time=0
note_on channel=0 note=39 velocity=64 time=0
note_on channel=0 note=51 velocity=0 time=160
note_on channel=0 note=53 velocity=78 time=0
note_on channel=0 note=39 velocity=0 time=80
note_on channel=0 note=53 velocity=0 time=80
note_on channel=0 note=54 velocity=78 time=0
<meta message set_tempo tempo=333333 time=160>
note_on channel=0 note=54 velocity=0 time=0
note_on channel=0 note=56 velocity=89 time=0
note_on channel=0 note=46 velocity=61 time=0
note_on channel=0 note=50 velocity=81 time=0
note_on channel=0 note=56 velocity=0 time=160
note_on channel=0 note=59 velocity=78 time=0
note_on channel=0 note=59 velocity=0 time=160
note_on channel=0 note=58 velocity=78 time=0
note_on channel=0 note=58 velocity=0 time=160
note_on channel=0 note=56 velocity=81 time=0
note_on channel=0 note=56 velocity=0 time=160
note_on channel=0 note=54 velocity=78 time=0
note_on channel=0 note=54 velocity=0 time=160
note_on channel=0 note=53 velocity=78 time=0
<meta message set_tempo tempo=300000 time=160>
note_on channel=0 note=53 velocity=0 time=0
note_on channel=0 note=50 velocity=0 time=0
note_on channel=0 note=46 velocity=0 time=0
note_on channel=0 note=51 velocity=81 time=0
note_on channel=0 note=39 velocity=72 time=0
note_on channel=0 note=39 velocity=0 time=160
note_on channel=0 note=51 velocity=0 time=0
note_on channel=0 note=53 velocity=81 time=0
note_on channel=0 note=41 velocity=72 time=0
note_on channel=0 note=41 velocity=0 time=160
note_on channel=0 note=53 velocity=0 time=0
note_on channel=0 note=54 velocity=78 time=0
note_on channel=0 note=42 velocity=72 time=0
note_on channel=0 note=42 velocity=0 time=160
note_on channel=0 note=54 velocity=0 time=0
note_on channel=0 note=56 velocity=85 time=0
note_on channel=0 note=44 velocity=76 time=0
note_on channel=0 note=44 velocity=0 time=160
note_on channel=0 note=56 velocity=0 time=0
note_on channel=0 note=58 velocity=87 time=0
note_on channel=0 note=46 velocity=78 time=0
note_on channel=0 note=46 velocity=0 time=160
note_on channel=0 note=58 velocity=0 time=0
note_on channel=0 note=60 velocity=85 time=0
note_on channel=0 note=48 velocity=74 time=0
note_on channel=0 note=48 velocity=0 time=160
note_on channel=0 note=60 velocity=0 time=0
note_on channel=0 note=62 velocity=90 time=0
note_on channel=0 note=50 velocity=81 time=0
note_on channel=0 note=50 velocity=0 time=160
note_on channel=0 note=62 velocity=0 time=0
note_on channel=0 note=63 velocity=92 time=0
note_on channel=0 note=51 velocity=82 time=0
note_on channel=0 note=51 velocity=0 time=160
note_on channel=0 note=63 velocity=0 time=0
note_on channel=0 note=65 velocity=89 time=0
note_on channel=0 note=53 velocity=79 time=0
note_on channel=0 note=53 velocity=0 time=160
note_on channel=0 note=65 velocity=0 time=0
note_on channel=0 note=66 velocity=96 time=0
note_on channel=0 note=54 velocity=86 time=0
note_on channel=0 note=54 velocity=0 time=960
note_on channel=0 note=66 velocity=0 time=0
note_on channel=0 note=58 velocity=81 time=480
note_on channel=0 note=61 velocity=81 time=0
note_on channel=0 note=66 velocity=81 time=0
note_on channel=0 note=70 velocity=97 time=0
note_on channel=0 note=42 velocity=68 time=0
note_on channel=0 note=54 velocity=68 time=0
control_change channel=0 control=64 value=127 time=160
control_change channel=0 control=64 value=0 time=693
<meta message set_tempo tempo=343840 time=107>
note_on channel=0 note=54 velocity=0 time=0
note_on channel=0 note=61 velocity=0 time=0
note_on channel=0 note=66 velocity=0 time=0
note_on channel=0 note=58 velocity=0 time=0
note_on channel=0 note=42 velocity=0 time=0
note_on channel=0 note=70 velocity=0 time=0
<meta message key_signature key='D' time=480>
<meta message set_tempo tempo=333333 time=0>
note_on channel=0 note=71 velocity=92 time=0
note_on channel=0 note=35 velocity=65 time=0
control_change channel=0 control=64 value=127 time=113
note_on channel=0 note=35 velocity=0 time=127
note_on channel=0 note=59 velocity=72 time=240
note_on channel=0 note=47 velocity=53 time=0
note_on channel=0 note=50 velocity=53 time=0
note_on channel=0 note=54 velocity=59 time=0
note_on channel=0 note=59 velocity=0 time=160
note_on channel=0 note=62 velocity=67 time=0
note_on channel=0 note=62 velocity=0 time=160
note_on channel=0 note=66 velocity=67 time=0
note_on channel=0 note=66 velocity=0 time=160
note_on channel=0 note=59 velocity=72 time=0
control_change channel=0 control=64 value=0 time=352
note_on channel=0 note=59 velocity=0 time=128
note_on channel=0 note=54 velocity=0 time=0
note_on channel=0 note=71 velocity=0 time=0
note_on channel=0 note=47 velocity=0 time=0
note_on channel=0 note=50 velocity=0 time=0
note_on channel=0 note=71 velocity=91 time=0
note_on channel=0 note=35 velocity=67 time=0
control_change channel=0 control=64 value=127 time=8
note_on channel=0 note=35 velocity=0 time=232
note_on channel=0 note=59 velocity=72 time=240
note_on channel=0 note=47 velocity=51 time=0
note_on channel=0 note=49 velocity=51 time=0
note_on channel=0 note=52 velocity=51 time=0
note_on channel=0 note=55 velocity=57 time=0
note_on channel=0 note=59 velocity=0 time=160
note_on channel=0 note=61 velocity=68 time=0
note_on channel=0 note=61 velocity=0 time=160
note_on channel=0 note=67 velocity=68 time=0
note_on channel=0 note=67 velocity=0 time=160
note_on channel=0 note=59 velocity=72 time=0
control_change channel=0 control=64 value=0 time=432
<meta message set_tempo tempo=316623 time=48>
note_on channel=0 note=59 velocity=0 time=0
note_on channel=0 note=55 velocity=0 time=0
note_on channel=0 note=49 velocity=0 time=0
note_on channel=0 note=71 velocity=0 time=0
note_on channel=0 note=47 velocity=0 time=0
note_on channel=0 note=52 velocity=0 time=0
note_on channel=0 note=71 velocity=85 time=0
control_change channel=0 control=64 value=127 time=0
note_on channel=0 note=50 velocity=72 time=0
note_on channel=0 note=62 velocity=64 time=240
note_on channel=0 note=66 velocity=72 time=0
note_on channel=0 note=54 velocity=52 time=0
note_on channel=0 note=59 velocity=58 time=0
control_change channel=0 control=64 value=0 time=126
note_on channel=0 note=59 velocity=0 time=114
note_on channel=0 note=50 velocity=0 time=0
note_on channel=0 note=62 velocity=0 time=0
note_on channel=0 note=71 velocity=0 time=0
note_on channel=0 note=54 velocity=0 time=0
note_on channel=0 note=66 velocity=0 time=0
note_on channel=0 note=73 velocity=92 time=0
control_change channel=0 control=64 value=127 time=0
note_on channel=0 note=49 velocity=80 time=0
note_on channel=0 note=64 velocity=71 time=240
note_on channel=0 note=66 velocity=79 time=0
note_on channel=0 note=54 velocity=55 time=0
note_on channel=0 note=58 velocity=62 time=0
control_change channel=0 control=64 value=0 time=149
note_on channel=0 note=58 velocity=0 time=91
note_on channel=0 note=49 velocity=0 time=0
note_on channel=0 note=64 velocity=0 time=0
note_on channel=0 note=73 velocity=0 time=0
note_on channel=0 note=54 velocity=0 time=0
note_on channel=0 note=66 velocity=0 time=0
note_on channel=0 note=74 velocity=85 time=0
control_change channel=0 control=64 value=127 time=0
note_on channel=0 note=47 velocity=72 time=0
note_on channel=0 note=62 velocity=64 time=240
note_on channel=0 note=66 velocity=72 time=0
note_on channel=0 note=54 velocity=51 time=0
note_on channel=0 note=59 velocity=57 time=0
control_change channel=0 control=64 value=0 time=126
<meta message set_tempo tempo=333333 time=114>
note_on channel=0 note=59 velocity=0 time=0
note_on channel=0 note=47 velocity=0 time=0
note_on channel=0 note=62 velocity=0 time=0
note_on channel=0 note=74 velocity=0 time=0
note_on channel=0 note=54 velocity=0 time=0
note_on channel=0 note=66 velocity=0 time=0
note_on channel=0 note=73 velocity=88 time=0
note_on channel=0 note=42 velocity=80 time=0
control_change channel=0 control=64 value=126 time=0
note_on channel=0 note=42 velocity=0 time=480
note_on channel=0 note=61 velocity=72 time=0
note_on channel=0 note=54 velocity=51 time=0
note_on channel=0 note=58 velocity=57 time=0
note_on channel=0 note=61 velocity=0 time=160
note_on channel=0 note=66 velocity=68 time=0
note_on channel=0 note=66 velocity=0 time=160
note_on channel=0 note=70 velocity=68 time=0
note_on channel=0 note=70 velocity=0 time=160
note_on channel=0 note=61 velocity=72 time=0
control_change channel=0 control=64 value=0 time=400
note_on channel=0 note=61 velocity=0 time=80
note_on channel=0 note=58 velocity=0 time=0
note_on channel=0 note=54 velocity=0 time=0
note_on channel=0 note=73 velocity=0 time=0
note_on channel=0 note=78 velocity=95 time=0
note_on channel=0 note=42 velocity=81 time=0
control_change channel=0 control=64 value=127 time=0
note_on channel=0 note=42 velocity=0 time=480
note_on channel=0 note=66 velocity=81 time=0
note_on channel=0 note=54 velocity=57 time=0
note_on channel=0 note=58 velocity=57 time=0
note_on channel=0 note=61 velocity=64 time=0
note_on channel=0 note=66 velocity=0 time=160
note_on channel=0 note=70 velocity=75 time=0
note_on channel=0 note=70 velocity=0 time=160
note_on channel=0 note=73 velocity=75 time=0
note_on channel=0 note=73 velocity=0 time=160
note_on channel=0 note=66 velocity=81 time=0
control_change channel=0 control=64 value=0 time=408
note_on channel=0 note=66 velocity=0 time=72
note_on channel=0 note=61 velocity=0 time=0
note_on channel=0 note=78 velocity=0 time=0
note_on channel=0 note=54 velocity=0 time=0
note_on channel=0 note=58 velocity=0 time=0
note_on channel=0 note=74 velocity=91 time=0
note_on channel=0 note=47 velocity=80 time=0
control_change channel=0 control=64 value=127 time=0
note_on channel=0 note=47 velocity=0 time=480
note_on channel=0 note=62 velocity=72 time=0
note_on channel=0 note=54 velocity=50 time=0
note_on channel=0 note=59 velocity=56 time=0
note_on channel=0 note=62 velocity=0 time=160
note_on channel=0 note=66 velocity=68 time=0
note_on channel=0 note=66 velocity=0 time=160
note_on channel=0 note=71 velocity=68 time=0
note_on channel=0 note=71 velocity=0 time=160
note_on channel=0 note=62 velocity=72 time=0
control_change channel=0 control=64 value=0 time=400
<meta message set_tempo tempo=322581 time=80>
note_on channel=0 note=62 velocity=0 time=0
note_on channel=0 note=59 velocity=0 time=0
note_on channel=0 note=54 velocity=0 time=0
note_on channel=0 note=74 velocity=0 time=0
note_on channel=0 note=71 velocity=72 time=0
note_on channel=0 note=73 velocity=85 time=0
control_change channel=0 control=64 value=127 time=0
note_on channel=0 note=43 velocity=72 time=0
note_on channel=0 note=43 velocity=0 time=240
note_on channel=0 note=71 velocity=0 time=0
note_on channel=0 note=64 velocity=72 time=0
note_on channel=0 note=55 velocity=56 time=0
note_on channel=0 note=55 velocity=0 time=240
note_on channel=0 note=64 velocity=0 time=0
note_on channel=0 note=73 velocity=0 time=0
note_on channel=0 note=71 velocity=74 time=0
note_on channel=0 note=76 velocity=88 time=0
note_on channel=0 note=40 velocity=79 time=0
control_change channel=0 control=64 value=0 time=13
control_change channel=0 control=64 value=127 time=142
note_on channel=0 note=40 velocity=0 time=85
note_on channel=0 note=71 velocity=0 time=0
note_on channel=0 note=64 velocity=72 time=0
note_on channel=0 note=52 velocity=59 time=0
note_on channel=0 note=52 velocity=0 time=240
note_on channel=0 note=64 velocity=0 time=0
note_on channel=0 note=76 velocity=0 time=0
note_on channel=0 note=71 velocity=68 time=0
note_on channel=0 note=73 velocity=89 time=0
note_on channel=0 note=43 velocity=72 time=0
control_change channel=0 control=64 value=0 time=12
control_change channel=0 control=64 value=127 time=143
note_on channel=0 note=43 velocity=0 time=85
note_on channel=0 note=71 velocity=0 time=0
note_on channel=0 note=64 velocity=72 time=0
note_on channel=0 note=55 velocity=57 time=0
<meta message set_tempo tempo=334262 time=240>
note_on channel=0 note=55 velocity=0 time=0
note_on channel=0 note=64 velocity=0 time=0
note_on channel=0 note=73 velocity=0 time=0
note_on channel=0 note=74 velocity=93 time=0
control_change channel=0 control=64 value=0 time=0
note_on channel=0 note=47 velocity=79 time=0
control_change channel=0 control=64 value=125 time=127
note_on channel=0 note=47 velocity=0 time=353
note_on channel=0 note=62 velocity=72 time=0
note_on channel=0 note=54 velocity=57 time=0
note_on channel=0 note=59 velocity=64 time=0
note_on channel=0 note=62 velocity=0 time=160
note_on channel=0 note=66 velocity=67 time=0
note_on channel=0 note=66 velocity=0 time=160
note_on channel=0 note=71 velocity=67 time=0
<meta message set_tempo tempo=362538 time=160>
note_on channel=0 note=71 velocity=0 time=0
note_on channel=0 note=62 velocity=72 time=0
note_on channel=0 note=62 velocity=0 time=240
<meta message set_tempo tempo=333333 time=240>
note_on channel=0 note=59 velocity=0 time=0
note_on channel=0 note=54 velocity=0 time=0
note_on channel=0 note=74 velocity=0 time=0
note_on channel=0 note=71 velocity=54 time=0
control_change channel=0 control=64 value=0 time=0
note_on channel=0 note=35 velocity=45 time=0
control_change channel=0 control=64 value=127 time=120
note_on channel=0 note=35 velocity=0 time=120
note_on channel=0 note=59 velocity=32 time=240
note_on channel=0 note=47 velocity=28 time=0
note_on channel=0 note=50 velocity=28 time=0
note_on channel=0 note=54 velocity=32 time=0
note_on channel=0 note=59 velocity=0 time=160
note_on channel=0 note=62 velocity=33 time=0
note_on channel=0 note=62 velocity=0 time=160
note_on channel=0 note=66 velocity=33 time=0
note_on channel=0 note=66 velocity=0 time=160
note_on channel=0 note=59 velocity=33 time=0
note_on channel=0 note=59 velocity=0 time=480
note_on channel=0 note=54 velocity=0 time=0
note_on channel=0 note=71 velocity=0 time=0
note_on channel=0 note=47 velocity=0 time=0
note_on channel=0 note=50 velocity=0 time=0
note_on channel=0 note=71 velocity=54 time=0
control_change channel=0 control=64 value=0 time=0
note_on channel=0 note=35 velocity=43 time=0
control_change channel=0 control=64 value=127 time=113
note_on channel=0 note=35 velocity=0 time=127
note_on channel=0 note=59 velocity=34 time=240
note_on channel=0 note=47 velocity=28 time=0
note_on channel=0 note=49 velocity=28 time=0
note_on channel=0 note=52 velocity=28 time=0
note_on channel=0 note=55 velocity=32 time=0
note_on channel=0 note=59 velocity=0 time=160
note_on channel=0 note=61 velocity=33 time=0
note_on channel=0 note=61 velocity=0 time=160
note_on channel=0 note=67 velocity=32 time=0
note_on channel=0 note=67 velocity=0 time=160
note_on channel=0 note=59 velocity=32 time=0
<meta message set_tempo tempo=321716 time=480>
note_on channel=0 note=59 velocity=0 time=0
note_on channel=0 note=55 velocity=0 time=0
note_on channel=0 note=49 velocity=0 time=0
note_on channel=0 note=71 velocity=0 time=0
note_on channel=0 note=47 velocity=0 time=0
note_on channel=0 note=52 velocity=0 time=0
note_on channel=0 note=71 velocity=48 time=0
control_change channel=0 control=64 value=0 time=0
note_on channel=0 note=50 velocity=45 time=0
control_change channel=0 control=64 value=127 time=91
note_on channel=0 note=62 velocity=33 time=149
note_on channel=0 note=66 velocity=37 time=0
note_on channel=0 note=54 velocity=36 time=0
note_on channel=0 note=59 velocity=40 time=0
note_on channel=0 note=59 velocity=0 time=240
note_on channel=0 note=50 velocity=0 time=0
note_on channel=0 note=62 velocity=0 time=0
note_on channel=0 note=71 velocity=0 time=0
note_on channel=0 note=54 velocity=0 time=0
note_on channel=0 note=66 velocity=0 time=0
note_on channel=0 note=73 velocity=53 time=0
note_on channel=0 note=49 velocity=48 time=0
control_change channel=0 control=64 value=0 time=4
control_change channel=0 control=64 value=127 time=99
note_on channel=0 note=64 velocity=37 time=137
note_on channel=0 note=66 velocity=42 time=0
note_on channel=0 note=54 velocity=37 time=0
note_on channel=0 note=58 velocity=42 time=0
note_on channel=0 note=58 velocity=0 time=240
note_on channel=0 note=49 velocity=0 time=0
note_on channel=0 note=64 velocity=0 time=0
note_on channel=0 note=73 velocity=0 time=0
note_on channel=0 note=54 velocity=0 time=0
note_on channel=0 note=66 velocity=0 time=0
note_on channel=0 note=74 velocity=48 time=0
note_on channel=0 note=47 velocity=45 time=0
control_change channel=0 control=64 value=0 time=8
control_change channel=0 control=64 value=127 time=106
note_on channel=0 note=62 velocity=32 time=126
note_on channel=0 note=66 velocity=36 time=0
note_on channel=0 note=54 velocity=36 time=0
note_on channel=0 note=59 velocity=40 time=0
<meta message set_tempo tempo=333333 time=240>
note_on channel=0 note=59 velocity=0 time=0
note_on channel=0 note=47 velocity=0 time=0
note_on channel=0 note=62 velocity=0 time=0
note_on channel=0 note=74 velocity=0 time=0
note_on channel=0 note=54 velocity=0 time=0
note_on channel=0 note=66 velocity=0 time=0
note_on channel=0 note=73 velocity=48 time=0
note_on channel=0 note=42 velocity=44 time=0
control_change channel=0 control=64 value=0 time=4
control_change channel=0 control=64 value=126 time=76
note_on channel=0 note=42 velocity=0 time=400
note_on channel=0 note=61 velocity=33 time=0
note_on channel=0 note=54 velocity=31 time=0
note_on channel=0 note=58 velocity=35 time=0
note_on channel=0 note=61 velocity=0 time=160
note_on channel=0 note=66 velocity=34 time=0
note_on channel=0 note=66 velocity=0 time=160
note_on channel=0 note=70 velocity=35 time=0
note_on channel=0 note=70 velocity=0 time=160
note_on channel=0 note=61 velocity=35 time=0
<meta message set_tempo tempo=333333 time=480>
note_on channel=0 note=61 velocity=0 time=0
note_on channel=0 note=58 velocity=0 time=0
note_on channel=0 note=54 velocity=0 time=0
note_on channel=0 note=73 velocity=0 time=0
note_on channel=0 note=78 velocity=81 time=0
control_change channel=0 control=64 value=0 time=0
note_on channel=0 note=42 velocity=74 time=0
control_change channel=0 control=64 value=127 time=97
note_on channel=0 note=42 velocity=0 time=383
note_on channel=0 note=66 velocity=64 time=0
note_on channel=0 note=54 velocity=57 time=0
note_on channel=0 note=58 velocity=57 time=0
note_on channel=0 note=61 velocity=64 time=0
note_on channel=0 note=66 velocity=0 time=160
note_on channel=0 note=70 velocity=58 time=0
note_on channel=0 note=70 velocity=0 time=160
note_on channel=0 note=73 velocity=58 time=0
note_on channel=0 note=73 velocity=0 time=160
note_on channel=0 note=66 velocity=64 time=0
note_on channel=0 note=66 velocity=0 time=480
note_on channel=0 note=61 velocity=0 time=0
note_on channel=0 note=78 velocity=0 time=0
note_on channel=0 note=54 velocity=0 time=0
note_on channel=0 note=58 velocity=0 time=0
note_on channel=0 note=74 velocity=81 time=0
control_change channel=0 control=64 value=0 time=0
note_on channel=0 note=47 velocity=73 time=0
control_change channel=0 control=64 value=127 time=134
note_on channel=0 note=47 velocity=0 time=346
note_on channel=0 note=62 velocity=64 time=0
note_on channel=0 note=54 velocity=56 time=0
note_on channel=0 note=59 velocity=63 time=0
note_on channel=0 note=62 velocity=0 time=160
note_on channel=0 note=66 velocity=59 time=0
note_on channel=0 note=66 velocity=0 time=160
note_on channel=0 note=71 velocity=64 time=0
note_on channel=0 note=71 velocity=0 time=160
note_on channel=0 note=62 velocity=64 time=0
note_on channel=0 note=62 velocity=0 time=480
note_on channel=0 note=59 velocity=0 time=0
note_on channel=0 note=54 velocity=0 time=0
note_on channel=0 note=74 velocity=0 time=0
note_on channel=0 note=71 velocity=80 time=0
control_change channel=0 control=64 value=0 time=0
note_on channel=0 note=38 velocity=64 time=0
<meta message set_tempo tempo=315789 time=8>
control_change channel=0 control=64 value=127 time=66
note_on channel=0 note=38 velocity=0 time=166
note_on channel=0 note=68 velocity=64 time=0
note_on channel=0 note=66 velocity=57 time=0
note_on channel=0 note=50 velocity=57 time=0
note_on channel=0 note=50 velocity=0 time=240
note_on channel=0 note=71 velocity=0 time=0
note_on channel=0 note=68 velocity=0 time=0
note_on channel=0 note=66 velocity=0 time=0
note_on channel=0 note=74 velocity=89 time=0
note_on channel=0 note=35 velocity=72 time=0
control_change channel=0 control=64 value=0 time=5
control_change channel=0 control=64 value=127 time=86
note_on channel=0 note=35 velocity=0 time=149
note_on channel=0 note=68 velocity=64 time=0
note_on channel=0 note=66 velocity=57 time=0
note_on channel=0 note=47 velocity=60 time=0
note_on channel=0 note=47 velocity=0 time=240
note_on channel=0 note=74 velocity=0 time=0
note_on channel=0 note=68 velocity=0 time=0
note_on channel=0 note=66 velocity=0 time=0
note_on channel=0 note=71 velocity=81 time=0
note_on channel=0 note=38 velocity=64 time=0
control_change channel=0 control=64 value=0 time=12
control_change channel=0 control=64 value=127 time=128
note_on channel=0 note=38 velocity=0 time=100
note_on channel=0 note=68 velocity=64 time=0
note_on channel=0 note=66 velocity=57 time=0
note_on channel=0 note=50 velocity=57 time=0
<meta message set_tempo tempo=334262 time=240>
note_on channel=0 note=50 velocity=0 time=0
note_on channel=0 note=71 velocity=0 time=0
note_on channel=0 note=68 velocity=0 time=0
note_on channel=0 note=66 velocity=0 time=0
note_on channel=0 note=73 velocity=81 time=0
control_change channel=0 control=64 value=0 time=0
note_on channel=0 note=37 velocity=81 time=0
control_change channel=0 control=64 value=127 time=108
<meta message set_tempo tempo=353982 time=372>
note_on channel=0 note=37 velocity=0 time=0
note_on channel=0 note=61 velocity=48 time=0
note_on channel=0 note=49 velocity=43 time=0
note_on channel=0 note=53 velocity=43 time=0
note_on channel=0 note=56 velocity=48 time=0
note_on channel=0 note=61 velocity=0 time=160
note_on channel=0 note=65 velocity=48 time=0
note_on channel=0 note=65 velocity=0 time=160
note_on channel=0 note=68 velocity=48 time=0
note_on channel=0 note=68 velocity=0 time=160
note_on channel=0 note=61 velocity=49 time=0
note_on channel=0 note=61 velocity=0 time=480
note_on channel=0 note=56 velocity=0 time=0
note_on channel=0 note=73 velocity=0 time=0
note_on channel=0 note=49 velocity=0 time=0
note_on channel=0 note=53 velocity=0 time=0
note_on channel=0 note=69 velocity=48 time=0
control_change channel=0 control=64 value=0 time=0
note_on channel=0 note=42 velocity=48 time=0
<meta message set_tempo tempo=332410 time=8>
control_change channel=0 control=64 value=126 time=140
note_on channel=0 note=42 velocity=0 time=92
note_on channel=0 note=57 velocity=32 time=240
note_on channel=0 note=54 velocity=40 time=0
note_on channel=0 note=57 velocity=0 time=160
note_on channel=0 note=61 velocity=32 time=0
note_on channel=0 note=61 velocity=0 time=160
note_on channel=0 note=66 velocity=33 time=0
note_on channel=0 note=66 velocity=0 time=160
note_on channel=0 note=57 velocity=33 time=0
note_on channel=0 note=57 velocity=0 time=480
note_on channel=0 note=54 velocity=0 time=0
note_on channel=0 note=69 velocity=0 time=0
note_on channel=0 note=67 velocity=48 time=0
control_change channel=0 control=64 value=0 time=0
note_on channel=0 note=35 velocity=48 time=0
control_change channel=0 control=64 value=126 time=155
note_on channel=0 note=35 velocity=0 time=85
note_on channel=0 note=55 velocity=32 time=240
note_on channel=0 note=47 velocity=36 time=0
note_on channel=0 note=50 velocity=40 time=0
note_on channel=0 note=55 velocity=0 time=160
note_on channel=0 note=59 velocity=32 time=0
note_on channel=0 note=59 velocity=0 time=160
note_on channel=0 note=62 velocity=32 time=0
note_on channel=0 note=62 velocity=0 time=160
note_on channel=0 note=55 velocity=33 time=0
note_on channel=0 note=55 velocity=0 time=480
note_on channel=0 note=50 velocity=0 time=0
note_on channel=0 note=47 velocity=0 time=0
note_on channel=0 note=67 velocity=0 time=0
note_on channel=0 note=61 velocity=40 time=0
note_on channel=0 note=65 velocity=49 time=0
control_change channel=0 control=64 value=0 time=0
note_on channel=0 note=37 velocity=48 time=0
<meta message set_tempo tempo=315789 time=8>
control_change channel=0 control=64 value=125 time=163
note_on channel=0 note=61 velocity=0 time=69
note_on channel=0 note=56 velocity=40 time=0
note_on channel=0 note=56 velocity=0 time=240
note_on channel=0 note=37 velocity=0 time=0
note_on channel=0 note=65 velocity=0 time=0
note_on channel=0 note=61 velocity=40 time=0
note_on channel=0 note=68 velocity=49 time=0
note_on channel=0 note=53 velocity=40 time=0
note_on channel=0 note=49 velocity=36 time=0
note_on channel=0 note=61 velocity=0 time=240
note_on channel=0 note=56 velocity=40 time=0
note_on channel=0 note=56 velocity=0 time=240
note_on channel=0 note=49 velocity=0 time=0
note_on channel=0 note=53 velocity=0 time=0
note_on channel=0 note=68 velocity=0 time=0
note_on channel=0 note=61 velocity=40 time=0
note_on channel=0 note=65 velocity=48 time=0
note_on channel=0 note=37 velocity=40 time=0
note_on channel=0 note=61 velocity=0 time=240
note_on channel=0 note=56 velocity=40 time=0
<meta message set_tempo tempo=333333 time=240>
note_on channel=0 note=56 velocity=0 time=0
note_on channel=0 note=37 velocity=0 time=0
note_on channel=0 note=65 velocity=0 time=0
note_on channel=0 note=66 velocity=48 time=0
note_on channel=0 note=42 velocity=40 time=0
control_change channel=0 control=64 value=0 time=42
control_change channel=0 control=64 value=127 time=155
note_on channel=0 note=42 velocity=0 time=283
note_on channel=0 note=54 velocity=32 time=0
note_on channel=0 note=45 velocity=28 time=0
note_on channel=0 note=49 velocity=32 time=0
note_on channel=0 note=54 velocity=0 time=160
note_on channel=0 note=57 velocity=32 time=0
note_on channel=0 note=57 velocity=0 time=160
note_on channel=0 note=61 velocity=32 time=0
note_on channel=0 note=61 velocity=0 time=160
note_on channel=0 note=54 velocity=32 time=0
note_on channel=0 note=54 velocity=0 time=480
note_on channel=0 note=49 velocity=0 time=0
note_on channel=0 note=45 velocity=0 time=0
note_on channel=0 note=66 velocity=0 time=0
note_on channel=0 note=66 velocity=85 time=0
control_change channel=0 control=64 value=0 time=0
note_on channel=0 note=35 velocity=77 time=0
<meta message set_tempo tempo=400000 time=8>
control_change channel=0 control=64 value=127 time=154
note_on channel=0 note=35 velocity=0 time=318
note_on channel=0 note=54 velocity=72 time=0
note_on channel=0 note=53 velocity=64 time=0
note_on channel=0 note=50 velocity=57 time=0
note_on channel=0 note=47 velocity=57 time=0
<meta message set_tempo tempo=334262 time=8>
note_on channel=0 note=54 velocity=0 time=152
note_on channel=0 note=59 velocity=64 time=0
note_on channel=0 note=59 velocity=0 time=160
note_on channel=0 note=62 velocity=64 time=0
note_on channel=0 note=62 velocity=0 time=160
note_on channel=0 note=54 velocity=72 time=0
note_on channel=0 note=54 velocity=0 time=480
note_on channel=0 note=47 velocity=0 time=0
note_on channel=0 note=66 velocity=0 time=0
note_on channel=0 note=53 velocity=0 time=0
note_on channel=0 note=50 velocity=0 time=0
note_on channel=0 note=66 velocity=48 time=0
note_on channel=0 note=30 velocity=64 time=0
control_change channel=0 control=64 value=0 time=14
note_on channel=0 note=30 velocity=0 time=466
note_on channel=0 note=54 velocity=32 time=0
note_on channel=0 note=49 velocity=42 time=0
note_on channel=0 note=45 velocity=37 time=0
note_on channel=0 note=54 velocity=0 time=160
note_on channel=0 note=57 velocity=32 time=0
note_on channel=0 note=57 velocity=0 time=160
note_on channel=0 note=61 velocity=32 time=0
note_on channel=0 note=61 velocity=0 time=160
note_on channel=0 note=54 velocity=32 time=0
note_on channel=0 note=54 velocity=0 time=480
note_on channel=0 note=45 velocity=0 time=0
note_on channel=0 note=49 velocity=0 time=0
note_on channel=0 note=66 velocity=0 time=0
note_on channel=0 note=56 velocity=48 time=0
note_on channel=0 note=65 velocity=64 time=0
note_on channel=0 note=37 velocity=63 time=0
<meta message set_tempo tempo=316623 time=8>
control_change channel=0 control=64 value=126 time=60
note_on channel=0 note=56 velocity=0 time=92
note_on channel=0 note=57 velocity=50 time=0
note_on channel=0 note=57 velocity=0 time=160
note_on channel=0 note=59 velocity=53 time=0
note_on channel=0 note=59 velocity=0 time=160
note_on channel=0 note=37 velocity=0 time=0
note_on channel=0 note=61 velocity=55 time=0
note_on channel=0 note=49 velocity=63 time=0
note_on channel=0 note=61 velocity=0 time=160
note_on channel=0 note=62 velocity=57 time=0
note_on channel=0 note=62 velocity=0 time=160
note_on channel=0 note=61 velocity=55 time=0
note_on channel=0 note=61 velocity=0 time=160
note_on channel=0 note=59 velocity=53 time=0
note_on channel=0 note=59 velocity=0 time=160
note_on channel=0 note=57 velocity=50 time=0
note_on channel=0 note=57 velocity=0 time=160
note_on channel=0 note=56 velocity=48 time=0
<meta message set_tempo tempo=333333 time=160>
note_on channel=0 note=56 velocity=0 time=0
note_on channel=0 note=49 velocity=0 time=0
note_on channel=0 note=65 velocity=0 time=0
note_on channel=0 note=66 velocity=48 time=0
note_on channel=0 note=30 velocity=64 time=0
control_change channel=0 control=64 value=0 time=42
note_on channel=0 note=30 velocity=0 time=438
note_on channel=0 note=54 velocity=32 time=0
note_on channel=0 note=49 velocity=48 time=0
note_on channel=0 note=45 velocity=43 time=0
note_on channel=0 note=42 velocity=43 time=0
note_on channel=0 note=54 velocity=0 time=160
note_on channel=0 note=57 velocity=32 time=0
note_on channel=0 note=57 velocity=0 time=160
note_on channel=0 note=61 velocity=32 time=0
note_on channel=0 note=61 velocity=0 time=160
note_on channel=0 note=54 velocity=32 time=0
<meta message set_tempo tempo=401338 time=480>
note_on channel=0 note=54 velocity=0 time=0
note_on channel=0 note=42 velocity=0 time=0
note_on channel=0 note=66 velocity=0 time=0
note_on channel=0 note=49 velocity=0 time=0
note_on channel=0 note=45 velocity=0 time=0
note_on channel=0 note=66 velocity=84 time=0
note_on channel=0 note=35 velocity=84 time=0
control_change channel=0 control=64 value=127 time=8
note_on channel=0 note=35 velocity=0 time=472
note_on channel=0 note=54 velocity=72 time=0
note_on channel=0 note=53 velocity=72 time=0
note_on channel=0 note=50 velocity=64 time=0
note_on channel=0 note=47 velocity=64 time=0
<meta message set_tempo tempo=333333 time=8>
note_on channel=0 note=54 velocity=0 time=152
note_on channel=0 note=59 velocity=66 time=0
note_on channel=0 note=59 velocity=0 time=160
note_on channel=0 note=62 velocity=66 time=0
note_on channel=0 note=62 velocity=0 time=160
note_on channel=0 note=54 velocity=72 time=0
note_on channel=0 note=54 velocity=0 time=480
note_on channel=0 note=47 velocity=0 time=0
note_on channel=0 note=66 velocity=0 time=0
note_on channel=0 note=53 velocity=0 time=0
note_on channel=0 note=50 velocity=0 time=0
note_on channel=0 note=66 velocity=48 time=0
note_on channel=0 note=30 velocity=64 time=0
control_change channel=0 control=64 value=0 time=35
note_on channel=0 note=30 velocity=0 time=445
note_on channel=0 note=54 velocity=32 time=0
note_on channel=0 note=49 velocity=44 time=0
note_on channel=0 note=45 velocity=39 time=0
note_on channel=0 note=54 velocity=0 time=160
note_on channel=0 note=57 velocity=32 time=0
note_on channel=0 note=57 velocity=0 time=160
note_on channel=0 note=61 velocity=32 time=0
note_on channel=0 note=61 velocity=0 time=160
note_on channel=0 note=54 velocity=32 time=0
<meta message set_tempo tempo=322581 time=480>
note_on channel=0 note=54 velocity=0 time=0
note_on channel=0 note=45 velocity=0 time=0
note_on channel=0 note=49 velocity=0 time=0
note_on channel=0 note=66 velocity=0 time=0
note_on channel=0 note=56 velocity=48 time=0
note_on channel=0 note=65 velocity=64 time=0
note_on channel=0 note=37 velocity=64 time=0
control_change channel=0 control=64 value=127 time=63
note_on channel=0 note=56 velocity=0 time=97
note_on channel=0 note=57 velocity=50 time=0
note_on channel=0 note=57 velocity=0 time=160
note_on channel=0 note=59 velocity=53 time=0
note_on channel=0 note=59 velocity=0 time=160
note_on channel=0 note=37 velocity=0 time=0
note_on channel=0 note=61 velocity=55 time=0
note_on channel=0 note=49 velocity=64 time=0
note_on channel=0 note=61 velocity=0 time=160
note_on channel=0 note=62 velocity=57 time=0
note_on channel=0 note=62 velocity=0 time=160
note_on channel=0 note=61 velocity=55 time=0
note_on channel=0 note=61 velocity=0 time=160
note_on channel=0 note=59 velocity=53 time=0
note_on channel=0 note=59 velocity=0 time=160
note_on channel=0 note=57 velocity=50 time=0
note_on channel=0 note=57 velocity=0 time=160
note_on channel=0 note=56 velocity=48 time=0
note_on channel=0 note=56 velocity=0 time=160
note_on channel=0 note=49 velocity=0 time=0
note_on channel=0 note=65 velocity=0 time=0
note_on channel=0 note=66 velocity=48 time=0
note_on channel=0 note=30 velocity=64 time=0
<meta message set_tempo tempo=333333 time=8>
control_change channel=0 control=64 value=0 time=6
note_on channel=0 note=30 velocity=0 time=466
note_on channel=0 note=54 velocity=32 time=0
note_on channel=0 note=49 velocity=40 time=0
note_on channel=0 note=45 velocity=36 time=0
note_on channel=0 note=42 velocity=36 time=0
note_on channel=0 note=54 velocity=0 time=160
note_on channel=0 note=57 velocity=32 time=0
note_on channel=0 note=57 velocity=0 time=160
note_on channel=0 note=61 velocity=32 time=0
<meta message set_tempo tempo=343840 time=160>
note_on channel=0 note=61 velocity=0 time=0
note_on channel=0 note=54 velocity=32 time=0
<meta message set_tempo tempo=333333 time=480>
note_on channel=0 note=54 velocity=0 time=0
note_on channel=0 note=42 velocity=0 time=0
note_on channel=0 note=66 velocity=0 time=0
note_on channel=0 note=49 velocity=0 time=0
note_on channel=0 note=45 velocity=0 time=0
note_on channel=0 note=73 velocity=81 time=0
note_on channel=0 note=41 velocity=81 time=0
control_change channel=0 control=64 value=127 time=63
note_on channel=0 note=41 velocity=0 time=417
note_on channel=0 note=61 velocity=64 time=0
note_on channel=0 note=53 velocity=57 time=0
note_on channel=0 note=56 velocity=64 time=0
note_on channel=0 note=61 velocity=0 time=160
note_on channel=0 note=65 velocity=61 time=0
note_on channel=0 note=65 velocity=0 time=160
note_on channel=0 note=68 velocity=61 time=0
note_on channel=0 note=68 velocity=0 time=160
note_on channel=0 note=61 velocity=64 time=0
note_on channel=0 note=61 velocity=0 time=480
note_on channel=0 note=56 velocity=0 time=0
note_on channel=0 note=53 velocity=0 time=0
note_on channel=0 note=73 velocity=0 time=0
note_on channel=0 note=70 velocity=89 time=0
control_change channel=0 control=64 value=0 time=0
note_on channel=0 note=40 velocity=81 time=0
control_change channel=0 control=64 value=127 time=74
note_on channel=0 note=40 velocity=0 time=406
note_on channel=0 note=58 velocity=76 time=0
note_on channel=0 note=52 velocity=54 time=0
note_on channel=0 note=55 velocity=61 time=0
note_on channel=0 note=58 velocity=0 time=160
note_on channel=0 note=61 velocity=71 time=0
note_on channel=0 note=61 velocity=0 time=160
note_on channel=0 note=67 velocity=71 time=0
note_on channel=0 note=67 velocity=0 time=160
note_on channel=0 note=58 velocity=76 time=0
note_on channel=0 note=58 velocity=0 time=480
note_on channel=0 note=55 velocity=0 time=0
note_on channel=0 note=52 velocity=0 time=0
note_on channel=0 note=70 velocity=0 time=0
note_on channel=0 note=71 velocity=81 time=0
control_change channel=0 control=64 value=0 time=0
note_on channel=0 note=50 velocity=72 time=0
<meta message set_tempo tempo=315789 time=8>
control_change channel=0 control=64 value=127 time=106
note_on channel=0 note=62 velocity=57 time=126
note_on channel=0 note=66 velocity=64 time=0
note_on channel=0 note=54 velocity=51 time=0
note_on channel=0 note=59 velocity=57 time=0
note_on channel=0 note=59 velocity=0 time=240
note_on channel=0 note=50 velocity=0 time=0
note_on channel=0 note=62 velocity=0 time=0
note_on channel=0 note=71 velocity=0 time=0
note_on channel=0 note=54 velocity=0 time=0
note_on channel=0 note=66 velocity=0 time=0
note_on channel=0 note=73 velocity=81 time=0
note_on channel=0 note=49 velocity=72 time=0
control_change channel=0 control=64 value=0 time=12
control_change channel=0 control=64 value=127 time=171
note_on channel=0 note=64 velocity=57 time=57
note_on channel=0 note=66 velocity=64 time=0
note_on channel=0 note=54 velocity=51 time=0
note_on channel=0 note=58 velocity=57 time=0
note_on channel=0 note=58 velocity=0 time=240
note_on channel=0 note=49 velocity=0 time=0
note_on channel=0 note=64 velocity=0 time=0
note_on channel=0 note=73 velocity=0 time=0
note_on channel=0 note=54 velocity=0 time=0
note_on channel=0 note=66 velocity=0 time=0
note_on channel=0 note=74 velocity=81 time=0
note_on channel=0 note=47 velocity=72 time=0
control_change channel=0 control=64 value=0 time=11
control_change channel=0 control=64 value=127 time=137
note_on channel=0 note=62 velocity=57 time=92
note_on channel=0 note=66 velocity=64 time=0
note_on channel=0 note=54 velocity=51 time=0
note_on channel=0 note=59 velocity=57 time=0
<meta message set_tempo tempo=333333 time=240>
note_on channel=0 note=59 velocity=0 time=0
note_on channel=0 note=47 velocity=0 time=0
note_on channel=0 note=62 velocity=0 time=0
note_on channel=0 note=74 velocity=0 time=0
note_on channel=0 note=54 velocity=0 time=0
note_on channel=0 note=66 velocity=0 time=0
note_on channel=0 note=73 velocity=81 time=0
control_change channel=0 control=64 value=0 time=0
note_on channel=0 note=42 velocity=72 time=0
control_change channel=0 control=64 value=127 time=103
note_on channel=0 note=42 velocity=0 time=377
note_on channel=0 note=61 velocity=64 time=0
note_on channel=0 note=54 velocity=57 time=0
note_on channel=0 note=58 velocity=64 time=0
note_on channel=0 note=61 velocity=0 time=160
note_on channel=0 note=66 velocity=64 time=0
note_on channel=0 note=66 velocity=0 time=160
note_on channel=0 note=70 velocity=64 time=0
<meta message set_tempo tempo=400000 time=160>
note_on channel=0 note=70 velocity=0 time=0
note_on channel=0 note=61 velocity=64 time=0
<meta message set_tempo tempo=333333 time=480>
note_on channel=0 note=61 velocity=0 time=0
note_on channel=0 note=58 velocity=0 time=0
note_on channel=0 note=54 velocity=0 time=0
note_on channel=0 note=73 velocity=0 time=0
note_on channel=0 note=78 velocity=81 time=0
control_change channel=0 control=64 value=0 time=0
note_on channel=0 note=46 velocity=72 time=0
control_change channel=0 control=64 value=127 time=120
note_on channel=0 note=46 velocity=0 time=360
note_on channel=0 note=66 velocity=64 time=0
note_on channel=0 note=61 velocity=64 time=0
note_on channel=0 note=58 velocity=57 time=0
note_on channel=0 note=66 velocity=0 time=160
note_on channel=0 note=70 velocity=59 time=0
note_on channel=0 note=70 velocity=0 time=160
note_on channel=0 note=73 velocity=59 time=0
note_on channel=0 note=73 velocity=0 time=160
note_on channel=0 note=66 velocity=64 time=0
note_on channel=0 note=66 velocity=0 time=480
note_on channel=0 note=58 velocity=0 time=0
note_on channel=0 note=61 velocity=0 time=0
note_on channel=0 note=78 velocity=0 time=0
note_on channel=0 note=75 velocity=90 time=0
control_change channel=0 control=64 value=0 time=0
note_on channel=0 note=45 velocity=80 time=0
control_change channel=0 control=64 value=127 time=160
note_on channel=0 note=45 velocity=0 time=320
note_on channel=0 note=63 velocity=76 time=0
note_on channel=0 note=60 velocity=62 time=0
note_on channel=0 note=57 velocity=54 time=0
note_on channel=0 note=63 velocity=0 time=160
note_on channel=0 note=66 velocity=65 time=0
note_on channel=0 note=66 velocity=0 time=160
note_on channel=0 note=72 velocity=61 time=0
note_on channel=0 note=72 velocity=0 time=160
note_on channel=0 note=63 velocity=76 time=0
<meta message set_tempo tempo=311688 time=480>
note_on channel=0 note=63 velocity=0 time=0
note_on channel=0 note=57 velocity=0 time=0
note_on channel=0 note=60 velocity=0 time=0
note_on channel=0 note=75 velocity=0 time=0
note_on channel=0 note=76 velocity=86 time=0
note_on channel=0 note=55 velocity=81 time=0
control_change channel=0 control=64 value=0 time=3
control_change channel=0 control=64 value=127 time=100
note_on channel=0 note=67 velocity=64 time=137
note_on channel=0 note=71 velocity=72 time=0
note_on channel=0 note=64 velocity=72 time=0
note_on channel=0 note=59 velocity=64 time=0
note_on channel=0 note=59 velocity=0 time=240
note_on channel=0 note=55 velocity=0 time=0
note_on channel=0 note=67 velocity=0 time=0
note_on channel=0 note=76 velocity=0 time=0
note_on channel=0 note=64 velocity=0 time=0
note_on channel=0 note=71 velocity=0 time=0
note_on channel=0 note=78 velocity=86 time=0
note_on channel=0 note=54 velocity=81 time=0
control_change channel=0 control=64 value=0 time=8
control_change channel=0 control=64 value=127 time=129
note_on channel=0 note=69 velocity=64 time=103
note_on channel=0 note=71 velocity=72 time=0
note_on channel=0 note=63 velocity=72 time=0
note_on channel=0 note=59 velocity=64 time=0
note_on channel=0 note=59 velocity=0 time=240
note_on channel=0 note=54 velocity=0 time=0
note_on channel=0 note=69 velocity=0 time=0
note_on channel=0 note=78 velocity=0 time=0
note_on channel=0 note=63 velocity=0 time=0
note_on channel=0 note=71 velocity=0 time=0
note_on channel=0 note=79 velocity=86 time=0
note_on channel=0 note=52 velocity=81 time=0
control_change channel=0 control=64 value=0 time=7
control_change channel=0 control=64 value=126 time=107
note_on channel=0 note=67 velocity=64 time=126
note_on channel=0 note=71 velocity=72 time=0
note_on channel=0 note=59 velocity=64 time=0
note_on channel=0 note=64 velocity=72 time=0
<meta message set_tempo tempo=334262 time=240>
note_on channel=0 note=64 velocity=0 time=0
note_on channel=0 note=52 velocity=0 time=0
note_on channel=0 note=67 velocity=0 time=0
note_on channel=0 note=79 velocity=0 time=0
note_on channel=0 note=59 velocity=0 time=0
note_on channel=0 note=71 velocity=0 time=0
note_on channel=0 note=78 velocity=84 time=0
control_change channel=0 control=64 value=0 time=0
note_on channel=0 note=47 velocity=81 time=0
control_change channel=0 control=64 value=126 time=141
note_on channel=0 note=47 velocity=0 time=339
note_on channel=0 note=66 velocity=68 time=0
note_on channel=0 note=59 velocity=61 time=0
note_on channel=0 note=62 velocity=68 time=0
note_on channel=0 note=66 velocity=0 time=160
note_on channel=0 note=71 velocity=68 time=0
note_on channel=0 note=71 velocity=0 time=160
note_on channel=0 note=74 velocity=68 time=0
<meta message set_tempo tempo=352941 time=148>
note_on channel=0 note=74 velocity=0 time=12
note_on channel=0 note=66 velocity=68 time=0
<meta message set_tempo tempo=320856 time=480>
note_on channel=0 note=66 velocity=0 time=0
note_on channel=0 note=62 velocity=0 time=0
note_on channel=0 note=59 velocity=0 time=0
note_on channel=0 note=78 velocity=0 time=0
note_on channel=0 note=74 velocity=81 time=0
note_on channel=0 note=35 velocity=72 time=0
control_change channel=0 control=64 value=0 time=2
control_change channel=0 control=64 value=126 time=97
note_on channel=0 note=35 velocity=0 time=141
note_on channel=0 note=68 velocity=64 time=0
note_on channel=0 note=66 velocity=57 time=0
note_on channel=0 note=47 velocity=58 time=0
note_on channel=0 note=47 velocity=0 time=240
note_on channel=0 note=74 velocity=0 time=0
note_on channel=0 note=68 velocity=0 time=0
note_on channel=0 note=66 velocity=0 time=0
note_on channel=0 note=73 velocity=81 time=0
note_on channel=0 note=37 velocity=72 time=0
control_change channel=0 control=64 value=0 time=13
control_change channel=0 control=64 value=126 time=136
note_on channel=0 note=37 velocity=0 time=91
note_on channel=0 note=68 velocity=64 time=0
note_on channel=0 note=66 velocity=57 time=0
note_on channel=0 note=49 velocity=57 time=0
note_on channel=0 note=49 velocity=0 time=240
note_on channel=0 note=73 velocity=0 time=0
note_on channel=0 note=68 velocity=0 time=0
note_on channel=0 note=66 velocity=0 time=0
note_on channel=0 note=71 velocity=81 time=0
note_on channel=0 note=38 velocity=72 time=0
control_change channel=0 control=64 value=0 time=12
control_change channel=0 control=64 value=126 time=104
note_on channel=0 note=38 velocity=0 time=124
note_on channel=0 note=68 velocity=64 time=0
note_on channel=0 note=66 velocity=57 time=0
note_on channel=0 note=50 velocity=57 time=0
<meta message set_tempo tempo=333333 time=240>
note_on channel=0 note=50 velocity=0 time=0
note_on channel=0 note=71 velocity=0 time=0
note_on channel=0 note=68 velocity=0 time=0
note_on channel=0 note=66 velocity=0 time=0
note_on channel=0 note=73 velocity=86 time=0
control_change channel=0 control=64 value=0 time=0
note_on channel=0 note=37 velocity=72 time=0
control_change channel=0 control=64 value=126 time=91
note_on channel=0 note=37 velocity=0 time=389
note_on channel=0 note=61 velocity=61 time=0
note_on channel=0 note=49 velocity=53 time=0
note_on channel=0 note=53 velocity=53 time=0
note_on channel=0 note=56 velocity=60 time=0
note_on channel=0 note=61 velocity=0 time=160
note_on channel=0 note=65 velocity=61 time=0
note_on channel=0 note=65 velocity=0 time=160
note_on channel=0 note=68 velocity=61 time=0
note_on channel=0 note=68 velocity=0 time=160
note_on channel=0 note=61 velocity=61 time=0
<meta message set_tempo tempo=351906 time=8>
<meta message set_tempo tempo=322581 time=472>
note_on channel=0 note=61 velocity=0 time=0
note_on channel=0 note=56 velocity=0 time=0
note_on channel=0 note=73 velocity=0 time=0
note_on channel=0 note=49 velocity=0 time=0
note_on channel=0 note=53 velocity=0 time=0
note_on channel=0 note=69 velocity=81 time=0
control_change channel=0 control=64 value=0 time=0
note_on channel=0 note=30 velocity=72 time=0
control_change channel=0 control=64 value=126 time=116
note_on channel=0 note=30 velocity=0 time=124
note_on channel=0 note=61 velocity=57 time=0
note_on channel=0 note=63 velocity=64 time=0
note_on channel=0 note=42 velocity=57 time=0
note_on channel=0 note=42 velocity=0 time=240
note_on channel=0 note=69 velocity=0 time=0
note_on channel=0 note=61 velocity=0 time=0
note_on channel=0 note=63 velocity=0 time=0
note_on channel=0 note=68 velocity=81 time=0
note_on channel=0 note=32 velocity=72 time=0
control_change channel=0 control=64 value=0 time=12
control_change channel=0 control=64 value=126 time=112
note_on channel=0 note=32 velocity=0 time=116
note_on channel=0 note=61 velocity=57 time=0
note_on channel=0 note=63 velocity=64 time=0
note_on channel=0 note=44 velocity=56 time=0
note_on channel=0 note=44 velocity=0 time=240
note_on channel=0 note=68 velocity=0 time=0
note_on channel=0 note=61 velocity=0 time=0
note_on channel=0 note=63 velocity=0 time=0
note_on channel=0 note=66 velocity=81 time=0
note_on channel=0 note=33 velocity=72 time=0
control_change channel=0 control=64 value=0 time=14
control_change channel=0 control=64 value=126 time=110
note_on channel=0 note=33 velocity=0 time=116
note_on channel=0 note=61 velocity=57 time=0
note_on channel=0 note=63 velocity=64 time=0
note_on channel=0 note=45 velocity=56 time=0
<meta message set_tempo tempo=333333 time=240>
note_on channel=0 note=45 velocity=0 time=0
note_on channel=0 note=66 velocity=0 time=0
note_on channel=0 note=61 velocity=0 time=0
note_on channel=0 note=63 velocity=0 time=0
note_on channel=0 note=68 velocity=86 time=0
control_change channel=0 control=64 value=0 time=0
note_on channel=0 note=32 velocity=72 time=0
control_change channel=0 control=64 value=126 time=103
note_on channel=0 note=32 velocity=0 time=377
note_on channel=0 note=56 velocity=64 time=0
note_on channel=0 note=51 velocity=65 time=0
note_on channel=0 note=48 velocity=58 time=0
note_on channel=0 note=44 velocity=58 time=0
note_on channel=0 note=56 velocity=0 time=160
note_on channel=0 note=60 velocity=64 time=0
note_on channel=0 note=60 velocity=0 time=160
note_on channel=0 note=63 velocity=64 time=0
<meta message set_tempo tempo=376176 time=160>
note_on channel=0 note=63 velocity=0 time=0
note_on channel=0 note=56 velocity=64 time=0
note_on channel=0 note=56 velocity=0 time=480
note_on channel=0 note=44 velocity=0 time=0
note_on channel=0 note=68 velocity=0 time=0
note_on channel=0 note=51 velocity=0 time=0
note_on channel=0 note=48 velocity=0 time=0
note_on channel=0 note=65 velocity=64 time=0
control_change channel=0 control=64 value=0 time=0
note_on channel=0 note=37 velocity=48 time=0
<meta message set_tempo tempo=333333 time=8>
control_change channel=0 control=64 value=127 time=77
note_on channel=0 note=37 velocity=0 time=395
note_on channel=0 note=53 velocity=50 time=0
note_on channel=0 note=49 velocity=45 time=0
note_on channel=0 note=53 velocity=0 time=160
note_on channel=0 note=56 velocity=32 time=0
note_on channel=0 note=56 velocity=0 time=160
note_on channel=0 note=61 velocity=32 time=0
note_on channel=0 note=61 velocity=0 time=160
note_on channel=0 note=53 velocity=32 time=0
note_on channel=0 note=53 velocity=0 time=480
note_on channel=0 note=49 velocity=0 time=0
note_on channel=0 note=65 velocity=0 time=0
note_on channel=0 note=66 velocity=65 time=0
control_change channel=0 control=64 value=0 time=0
note_on channel=0 note=33 velocity=48 time=0
control_change channel=0 control=64 value=127 time=141
note_on channel=0 note=33 velocity=0 time=339
note_on channel=0 note=54 velocity=46 time=0
note_on channel=0 note=45 velocity=37 time=0
note_on channel=0 note=54 velocity=0 time=160
note_on channel=0 note=57 velocity=32 time=0
note_on channel=0 note=57 velocity=0 time=160
note_on channel=0 note=61 velocity=32 time=0
<meta message set_tempo tempo=376176 time=160>
note_on channel=0 note=61 velocity=0 time=0
note_on channel=0 note=54 velocity=32 time=0
<meta message set_tempo tempo=333333 time=480>
note_on channel=0 note=54 velocity=0 time=0
note_on channel=0 note=45 velocity=0 time=0
note_on channel=0 note=66 velocity=0 time=0
control_change channel=0 control=64 value=0 time=0
note_on channel=0 note=55 velocity=68 time=0
note_on channel=0 note=35 velocity=76 time=0
note_on channel=0 note=59 velocity=76 time=0
note_on channel=0 note=59 velocity=0 time=240
note_on channel=0 note=35 velocity=0 time=0
note_on channel=0 note=55 velocity=0 time=0
note_on channel=0 note=47 velocity=60 time=0
note_on channel=0 note=62 velocity=60 time=0
note_on channel=0 note=62 velocity=0 time=240
note_on channel=0 note=47 velocity=0 time=0
note_on channel=0 note=54 velocity=68 time=0
note_on channel=0 note=57 velocity=76 time=0
note_on channel=0 note=37 velocity=76 time=0
note_on channel=0 note=37 velocity=0 time=240
note_on channel=0 note=57 velocity=0 time=0
note_on channel=0 note=54 velocity=0 time=0
note_on channel=0 note=61 velocity=60 time=0
note_on channel=0 note=49 velocity=60 time=0
note_on channel=0 note=49 velocity=0 time=240
note_on channel=0 note=61 velocity=0 time=0
note_on channel=0 note=53 velocity=68 time=0
note_on channel=0 note=56 velocity=76 time=0
note_on channel=0 note=37 velocity=76 time=0
note_on channel=0 note=37 velocity=0 time=240
note_on channel=0 note=56 velocity=0 time=0
note_on channel=0 note=53 velocity=0 time=0
note_on channel=0 note=61 velocity=60 time=0
note_on channel=0 note=49 velocity=60 time=0
<meta message set_tempo tempo=333333 time=240>
note_on channel=0 note=49 velocity=0 time=0
note_on channel=0 note=61 velocity=0 time=0
note_on channel=0 note=54 velocity=75 time=0
note_on channel=0 note=42 velocity=67 time=0
<meta message set_tempo tempo=333333 time=8>
<meta message set_tempo tempo=334262 time=32>
<meta message set_tempo tempo=335196 time=28>
<meta message set_tempo tempo=336134 time=32>
<meta message set_tempo tempo=337079 time=28>
<meta message set_tempo tempo=338028 time=32>
note_on channel=0 note=54 velocity=0 time=0
note_on channel=0 note=50 velocity=69 time=0
<meta message set_tempo tempo=338983 time=20>
<meta message set_tempo tempo=339943 time=28>
<meta message set_tempo tempo=340909 time=32>
<meta message set_tempo tempo=341880 time=28>
<meta message set_tempo tempo=342857 time=32>
note_on channel=0 note=50 velocity=0 time=20
note_on channel=0 note=49 velocity=74 time=0
<meta message set_tempo tempo=343840 time=8>
<meta message set_tempo tempo=344828 time=20>
<meta message set_tempo tempo=345821 time=32>
<meta message set_tempo tempo=346821 time=28>
<meta message set_tempo tempo=347826 time=32>
<meta message set_tempo tempo=348837 time=28>
note_on channel=0 note=49 velocity=0 time=12
note_on channel=0 note=42 velocity=0 time=0
note_on channel=0 note=47 velocity=75 time=0
<meta message set_tempo tempo=349854 time=20>
<meta message set_tempo tempo=350877 time=20>
<meta message set_tempo tempo=351906 time=28>
<meta message set_tempo tempo=352941 time=32>
<meta message set_tempo tempo=353982 time=28>
<meta message set_tempo tempo=355030 time=32>
note_on channel=0 note=47 velocity=0 time=0
note_on channel=0 note=45 velocity=69 time=0
<meta message set_tempo tempo=356083 time=28>
<meta message set_tempo tempo=357143 time=20>
<meta message set_tempo tempo=358209 time=32>
<meta message set_tempo tempo=359281 time=28>
<meta message set_tempo tempo=360360 time=32>
note_on channel=0 note=45 velocity=0 time=20
note_on channel=0 note=44 velocity=69 time=0
<meta message set_tempo tempo=361446 time=8>
<meta message set_tempo tempo=362538 time=32>
<meta message set_tempo tempo=363636 time=20>
<meta message set_tempo tempo=364742 time=28>
<meta message set_tempo tempo=365854 time=32>
<meta message set_tempo tempo=366972 time=28>
note_on channel=0 note=44 velocity=0 time=12
note_on channel=0 note=42 velocity=79 time=0
<meta message set_tempo tempo=368098 time=20>
<meta message set_tempo tempo=369231 time=28>
<meta message set_tempo tempo=370370 time=20>
<meta message set_tempo tempo=371517 time=32>
<meta message set_tempo tempo=372671 time=28>
<meta message set_tempo tempo=373832 time=32>
<meta message set_tempo tempo=430108 time=80>
note_on channel=0 note=42 velocity=0 time=0
<meta message set_tempo tempo=333333 time=240>
note_on channel=0 note=71 velocity=48 time=0
note_on channel=0 note=35 velocity=48 time=0
control_change channel=0 control=64 value=126 time=0
note_on channel=0 note=35 velocity=0 time=480
note_on channel=0 note=59 velocity=48 time=0
note_on channel=0 note=47 velocity=28 time=0
note_on channel=0 note=50 velocity=28 time=0
note_on channel=0 note=54 velocity=32 time=0
note_on channel=0 note=59 velocity=0 time=160
note_on channel=0 note=62 velocity=32 time=0
note_on channel=0 note=62 velocity=0 time=160
note_on channel=0 note=66 velocity=32 time=0
note_on channel=0 note=66 velocity=0 time=160
note_on channel=0 note=59 velocity=32 time=0
note_on channel=0 note=59 velocity=0 time=480
note_on channel=0 note=54 velocity=0 time=0
note_on channel=0 note=71 velocity=0 time=0
note_on channel=0 note=47 velocity=0 time=0
note_on channel=0 note=50 velocity=0 time=0
note_on channel=0 note=71 velocity=48 time=0
control_change channel=0 control=64 value=0 time=0
note_on channel=0 note=35 velocity=48 time=0
control_change channel=0 control=64 value=127 time=134
note_on channel=0 note=35 velocity=0 time=346
note_on channel=0 note=59 velocity=32 time=0
note_on channel=0 note=47 velocity=28 time=0
note_on channel=0 note=49 velocity=28 time=0
note_on channel=0 note=52 velocity=28 time=0
note_on channel=0 note=55 velocity=32 time=0
note_on channel=0 note=59 velocity=0 time=160
note_on channel=0 note=61 velocity=32 time=0
note_on channel=0 note=61 velocity=0 time=160
note_on channel=0 note=67 velocity=32 time=0
note_on channel=0 note=67 velocity=0 time=160
note_on channel=0 note=59 velocity=32 time=0
note_on channel=0 note=59 velocity=0 time=480
note_on channel=0 note=55 velocity=0 time=0
note_on channel=0 note=49 velocity=0 time=0
note_on channel=0 note=71 velocity=0 time=0
note_on channel=0 note=47 velocity=0 time=0
note_on channel=0 note=52 velocity=0 time=0
note_on channel=0 note=71 velocity=48 time=0
control_change channel=0 control=64 value=0 time=0
note_on channel=0 note=50 velocity=48 time=0
<meta message set_tempo tempo=315789 time=8>
control_change channel=0 control=64 value=126 time=106
note_on channel=0 note=62 velocity=28 time=126
note_on channel=0 note=66 velocity=32 time=0
note_on channel=0 note=54 velocity=28 time=0
note_on channel=0 note=59 velocity=32 time=0
note_on channel=0 note=59 velocity=0 time=240
note_on channel=0 note=50 velocity=0 time=0
note_on channel=0 note=62 velocity=0 time=0
note_on channel=0 note=71 velocity=0 time=0
note_on channel=0 note=54 velocity=0 time=0
note_on channel=0 note=66 velocity=0 time=0
note_on channel=0 note=73 velocity=48 time=0
note_on channel=0 note=49 velocity=48 time=0
control_change channel=0 control=64 value=0 time=9
control_change channel=0 control=64 value=126 time=105
note_on channel=0 note=64 velocity=28 time=126
note_on channel=0 note=66 velocity=32 time=0
note_on channel=0 note=54 velocity=28 time=0
note_on channel=0 note=58 velocity=32 time=0
note_on channel=0 note=58 velocity=0 time=240
note_on channel=0 note=49 velocity=0 time=0
note_on channel=0 note=64 velocity=0 time=0
note_on channel=0 note=73 velocity=0 time=0
note_on channel=0 note=54 velocity=0 time=0
note_on channel=0 note=66 velocity=0 time=0
note_on channel=0 note=74 velocity=48 time=0
note_on channel=0 note=47 velocity=48 time=0
control_change channel=0 control=64 value=0 time=6
control_change channel=0 control=64 value=126 time=131
note_on channel=0 note=62 velocity=28 time=103
note_on channel=0 note=66 velocity=32 time=0
note_on channel=0 note=54 velocity=28 time=0
note_on channel=0 note=59 velocity=32 time=0
note_on channel=0 note=59 velocity=0 time=240
note_on channel=0 note=47 velocity=0 time=0
note_on channel=0 note=62 velocity=0 time=0
note_on channel=0 note=74 velocity=0 time=0
note_on channel=0 note=54 velocity=0 time=0
note_on channel=0 note=66 velocity=0 time=0
note_on channel=0 note=73 velocity=48 time=0
note_on channel=0 note=42 velocity=48 time=0
control_change channel=0 control=64 value=0 time=1
<meta message set_tempo tempo=333333 time=19>
control_change channel=0 control=64 value=125 time=60
note_on channel=0 note=42 velocity=0 time=400
note_on channel=0 note=61 velocity=32 time=0
note_on channel=0 note=54 velocity=28 time=0
note_on channel=0 note=58 velocity=32 time=0
note_on channel=0 note=61 velocity=0 time=160
note_on channel=0 note=66 velocity=32 time=0
note_on channel=0 note=66 velocity=0 time=160
note_on channel=0 note=70 velocity=32 time=0
<meta message set_tempo tempo=376176 time=148>
note_on channel=0 note=70 velocity=0 time=12
note_on channel=0 note=61 velocity=32 time=0
<meta message set_tempo tempo=333333 time=480>
note_on channel=0 note=61 velocity=0 time=0
note_on channel=0 note=58 velocity=0 time=0
note_on channel=0 note=54 velocity=0 time=0
note_on channel=0 note=73 velocity=0 time=0
note_on channel=0 note=78 velocity=55 time=0
note_on channel=0 note=42 velocity=48 time=0
control_change channel=0 control=64 value=0 time=45
control_change channel=0 control=64 value=126 time=138
note_on channel=0 note=42 velocity=0 time=297
note_on channel=0 note=66 velocity=32 time=0
note_on channel=0 note=54 velocity=36 time=0
note_on channel=0 note=58 velocity=36 time=0
note_on channel=0 note=61 velocity=40 time=0
note_on channel=0 note=66 velocity=0 time=160
note_on channel=0 note=70 velocity=32 time=0
note_on channel=0 note=70 velocity=0 time=160
note_on channel=0 note=73 velocity=32 time=0
note_on channel=0 note=73 velocity=0 time=160
note_on channel=0 note=66 velocity=32 time=0
note_on channel=0 note=66 velocity=0 time=480
note_on channel=0 note=61 velocity=0 time=0
note_on channel=0 note=78 velocity=0 time=0
note_on channel=0 note=54 velocity=0 time=0
note_on channel=0 note=58 velocity=0 time=0
note_on channel=0 note=74 velocity=51 time=0
note_on channel=0 note=47 velocity=48 time=0
control_change channel=0 control=64 value=0 time=3
control_change channel=0 control=64 value=127 time=96
note_on channel=0 note=47 velocity=0 time=381
note_on channel=0 note=62 velocity=32 time=0
note_on channel=0 note=54 velocity=28 time=0
note_on channel=0 note=59 velocity=32 time=0
note_on channel=0 note=62 velocity=0 time=160
note_on channel=0 note=66 velocity=32 time=0
note_on channel=0 note=66 velocity=0 time=160
note_on channel=0 note=71 velocity=32 time=0
note_on channel=0 note=71 velocity=0 time=160
note_on channel=0 note=62 velocity=32 time=0
<meta message set_tempo tempo=316623 time=480>
note_on channel=0 note=62 velocity=0 time=0
note_on channel=0 note=59 velocity=0 time=0
note_on channel=0 note=54 velocity=0 time=0
note_on channel=0 note=74 velocity=0 time=0
note_on channel=0 note=71 velocity=32 time=0
note_on channel=0 note=73 velocity=48 time=0
control_change channel=0 control=64 value=0 time=0
note_on channel=0 note=43 velocity=48 time=0
control_change channel=0 control=64 value=126 time=127
note_on channel=0 note=43 velocity=0 time=113
note_on channel=0 note=71 velocity=0 time=0
note_on channel=0 note=64 velocity=32 time=0
note_on channel=0 note=55 velocity=32 time=0
note_on channel=0 note=55 velocity=0 time=240
note_on channel=0 note=64 velocity=0 time=0
note_on channel=0 note=73 velocity=0 time=0
note_on channel=0 note=71 velocity=32 time=0
note_on channel=0 note=76 velocity=48 time=0
note_on channel=0 note=40 velocity=48 time=0
control_change channel=0 control=64 value=0 time=12
control_change channel=0 control=64 value=126 time=129
note_on channel=0 note=40 velocity=0 time=99
note_on channel=0 note=71 velocity=0 time=0
note_on channel=0 note=64 velocity=32 time=0
note_on channel=0 note=52 velocity=32 time=0
note_on channel=0 note=52 velocity=0 time=240
note_on channel=0 note=64 velocity=0 time=0
note_on channel=0 note=76 velocity=0 time=0
note_on channel=0 note=71 velocity=32 time=0
note_on channel=0 note=73 velocity=48 time=0
note_on channel=0 note=43 velocity=48 time=0
control_change channel=0 control=64 value=0 time=7
control_change channel=0 control=64 value=126 time=120
note_on channel=0 note=43 velocity=0 time=113
note_on channel=0 note=71 velocity=0 time=0
note_on channel=0 note=64 velocity=32 time=0
note_on channel=0 note=55 velocity=32 time=0
<meta message set_tempo tempo=333333 time=240>
note_on channel=0 note=55 velocity=0 time=0
note_on channel=0 note=64 velocity=0 time=0
note_on channel=0 note=73 velocity=0 time=0
note_on channel=0 note=74 velocity=48 time=0
note_on channel=0 note=47 velocity=48 time=0
control_change channel=0 control=64 value=0 time=8
control_change channel=0 control=64 value=127 time=119
note_on channel=0 note=47 velocity=0 time=353
note_on channel=0 note=62 velocity=32 time=0
note_on channel=0 note=54 velocity=28 time=0
note_on channel=0 note=59 velocity=32 time=0
note_on channel=0 note=62 velocity=0 time=160
note_on channel=0 note=66 velocity=32 time=0
note_on channel=0 note=66 velocity=0 time=160
note_on channel=0 note=71 velocity=32 time=0
<meta message set_tempo tempo=400000 time=160>
note_on channel=0 note=71 velocity=0 time=0
note_on channel=0 note=62 velocity=32 time=0
<meta message set_tempo tempo=333333 time=480>
note_on channel=0 note=62 velocity=0 time=0
note_on channel=0 note=59 velocity=0 time=0
note_on channel=0 note=54 velocity=0 time=0
note_on channel=0 note=74 velocity=0 time=0
note_on channel=0 note=76 velocity=79 time=0
control_change channel=0 control=64 value=0 time=0
note_on channel=0 note=40 velocity=81 time=0
control_change channel=0 control=64 value=125 time=148
note_on channel=0 note=40 velocity=0 time=92
note_on channel=0 note=64 velocity=64 time=240
note_on channel=0 note=52 velocity=57 time=0
note_on channel=0 note=55 velocity=57 time=0
note_on channel=0 note=59 velocity=64 time=0
note_on channel=0 note=64 velocity=0 time=160
note_on channel=0 note=67 velocity=58 time=0
note_on channel=0 note=67 velocity=0 time=160
note_on channel=0 note=71 velocity=58 time=0
note_on channel=0 note=71 velocity=0 time=160
note_on channel=0 note=64 velocity=64 time=0
note_on channel=0 note=64 velocity=0 time=480
note_on channel=0 note=59 velocity=0 time=0
note_on channel=0 note=76 velocity=0 time=0
note_on channel=0 note=52 velocity=0 time=0
note_on channel=0 note=55 velocity=0 time=0
note_on channel=0 note=76 velocity=78 time=0
control_change channel=0 control=64 value=0 time=0
note_on channel=0 note=40 velocity=81 time=0
control_change channel=0 control=64 value=126 time=125
note_on channel=0 note=40 velocity=0 time=355
note_on channel=0 note=64 velocity=64 time=0
note_on channel=0 note=52 velocity=57 time=0
note_on channel=0 note=54 velocity=57 time=0
note_on channel=0 note=57 velocity=57 time=0
note_on channel=0 note=60 velocity=64 time=0
note_on channel=0 note=64 velocity=0 time=160
note_on channel=0 note=66 velocity=59 time=0
note_on channel=0 note=66 velocity=0 time=160
note_on channel=0 note=72 velocity=59 time=0
note_on channel=0 note=72 velocity=0 time=160
note_on channel=0 note=64 velocity=64 time=0
<meta message set_tempo tempo=322581 time=480>
note_on channel=0 note=64 velocity=0 time=0
note_on channel=0 note=60 velocity=0 time=0
note_on channel=0 note=54 velocity=0 time=0
note_on channel=0 note=76 velocity=0 time=0
note_on channel=0 note=52 velocity=0 time=0
note_on channel=0 note=57 velocity=0 time=0
note_on channel=0 note=76 velocity=72 time=0
note_on channel=0 note=55 velocity=64 time=0
control_change channel=0 control=64 value=0 time=5
control_change channel=0 control=64 value=126 time=109
note_on channel=0 note=67 velocity=57 time=126
note_on channel=0 note=71 velocity=64 time=0
note_on channel=0 note=59 velocity=51 time=0
note_on channel=0 note=64 velocity=57 time=0
note_on channel=0 note=64 velocity=0 time=240
note_on channel=0 note=55 velocity=0 time=0
note_on channel=0 note=67 velocity=0 time=0
note_on channel=0 note=76 velocity=0 time=0
note_on channel=0 note=59 velocity=0 time=0
note_on channel=0 note=71 velocity=0 time=0
note_on channel=0 note=78 velocity=72 time=0
note_on channel=0 note=54 velocity=64 time=0
control_change channel=0 control=64 value=0 time=11
control_change channel=0 control=64 value=126 time=126
note_on channel=0 note=69 velocity=57 time=103
note_on channel=0 note=71 velocity=64 time=0
note_on channel=0 note=59 velocity=51 time=0
note_on channel=0 note=63 velocity=57 time=0
note_on channel=0 note=63 velocity=0 time=240
note_on channel=0 note=54 velocity=0 time=0
note_on channel=0 note=69 velocity=0 time=0
note_on channel=0 note=78 velocity=0 time=0
note_on channel=0 note=59 velocity=0 time=0
note_on channel=0 note=71 velocity=0 time=0
note_on channel=0 note=79 velocity=72 time=0
note_on channel=0 note=52 velocity=64 time=0
control_change channel=0 control=64 value=0 time=14
control_change channel=0 control=64 value=125 time=123
note_on channel=0 note=67 velocity=57 time=103
note_on channel=0 note=71 velocity=64 time=0
note_on channel=0 note=59 velocity=51 time=0
note_on channel=0 note=64 velocity=57 time=0
<meta message set_tempo tempo=333333 time=240>
note_on channel=0 note=64 velocity=0 time=0
note_on channel=0 note=52 velocity=0 time=0
note_on channel=0 note=67 velocity=0 time=0
note_on channel=0 note=79 velocity=0 time=0
note_on channel=0 note=59 velocity=0 time=0
note_on channel=0 note=71 velocity=0 time=0
note_on channel=0 note=78 velocity=72 time=0
control_change channel=0 control=64 value=0 time=0
note_on channel=0 note=47 velocity=64 time=0
control_change channel=0 control=64 value=125 time=114
note_on channel=0 note=47 velocity=0 time=366
note_on channel=0 note=66 velocity=56 time=0
note_on channel=0 note=63 velocity=56 time=0
note_on channel=0 note=59 velocity=50 time=0
note_on channel=0 note=66 velocity=0 time=160
note_on channel=0 note=71 velocity=56 time=0
note_on channel=0 note=71 velocity=0 time=160
note_on channel=0 note=75 velocity=56 time=0
<meta message set_tempo tempo=398671 time=160>
note_on channel=0 note=75 velocity=0 time=0
note_on channel=0 note=66 velocity=56 time=0
<meta message set_tempo tempo=333333 time=480>
note_on channel=0 note=66 velocity=0 time=0
note_on channel=0 note=59 velocity=0 time=0
note_on channel=0 note=63 velocity=0 time=0
note_on channel=0 note=78 velocity=0 time=0
note_on channel=0 note=83 velocity=78 time=0
note_on channel=0 note=47 velocity=81 time=0
control_change channel=0 control=64 value=0 time=2
control_change channel=0 control=64 value=127 time=89
note_on channel=0 note=47 velocity=0 time=389
note_on channel=0 note=71 velocity=64 time=0
note_on channel=0 note=59 velocity=57 time=0
note_on channel=0 note=63 velocity=57 time=0
note_on channel=0 note=66 velocity=64 time=0
note_on channel=0 note=71 velocity=0 time=160
note_on channel=0 note=75 velocity=60 time=0
note_on channel=0 note=75 velocity=0 time=160
note_on channel=0 note=78 velocity=60 time=0
note_on channel=0 note=78 velocity=0 time=160
note_on channel=0 note=71 velocity=64 time=0
note_on channel=0 note=71 velocity=0 time=480
note_on channel=0 note=66 velocity=0 time=0
note_on channel=0 note=83 velocity=0 time=0
note_on channel=0 note=59 velocity=0 time=0
note_on channel=0 note=63 velocity=0 time=0
note_on channel=0 note=79 velocity=78 time=0
note_on channel=0 note=52 velocity=81 time=0
control_change channel=0 control=64 value=0 time=6
control_change channel=0 control=64 value=127 time=114
note_on channel=0 note=52 velocity=0 time=360
note_on channel=0 note=67 velocity=64 time=0
note_on channel=0 note=64 velocity=64 time=0
note_on channel=0 note=59 velocity=57 time=0
note_on channel=0 note=67 velocity=0 time=160
note_on channel=0 note=71 velocity=58 time=0
note_on channel=0 note=71 velocity=0 time=160
note_on channel=0 note=76 velocity=58 time=0
note_on channel=0 note=76 velocity=0 time=160
note_on channel=0 note=67 velocity=64 time=0
<meta message set_tempo tempo=321716 time=480>
note_on channel=0 note=67 velocity=0 time=0
note_on channel=0 note=59 velocity=0 time=0
note_on channel=0 note=64 velocity=0 time=0
note_on channel=0 note=79 velocity=0 time=0
note_on channel=0 note=76 velocity=64 time=0
control_change channel=0 control=64 value=0 time=0
note_on channel=0 note=43 velocity=57 time=0
control_change channel=0 control=64 value=125 time=164
note_on channel=0 note=43 velocity=0 time=76
note_on channel=0 note=69 velocity=45 time=0
note_on channel=0 note=71 velocity=50 time=0
note_on channel=0 note=55 velocity=45 time=0
note_on channel=0 note=55 velocity=0 time=240
note_on channel=0 note=76 velocity=0 time=0
note_on channel=0 note=69 velocity=0 time=0
note_on channel=0 note=71 velocity=0 time=0
note_on channel=0 note=79 velocity=72 time=0
note_on channel=0 note=40 velocity=64 time=0
control_change channel=0 control=64 value=0 time=12
control_change channel=0 control=64 value=125 time=127
note_on channel=0 note=40 velocity=0 time=101
note_on channel=0 note=71 velocity=54 time=0
note_on channel=0 note=73 velocity=61 time=0
note_on channel=0 note=52 velocity=54 time=0
note_on channel=0 note=52 velocity=0 time=240
note_on channel=0 note=79 velocity=0 time=0
note_on channel=0 note=71 velocity=0 time=0
note_on channel=0 note=73 velocity=0 time=0
note_on channel=0 note=76 velocity=64 time=0
note_on channel=0 note=43 velocity=57 time=0
control_change channel=0 control=64 value=0 time=12
control_change channel=0 control=64 value=125 time=127
note_on channel=0 note=43 velocity=0 time=101
note_on channel=0 note=73 velocity=50 time=0
note_on channel=0 note=71 velocity=51 time=0
note_on channel=0 note=55 velocity=45 time=0
<meta message set_tempo tempo=333333 time=240>
note_on channel=0 note=55 velocity=0 time=0
note_on channel=0 note=76 velocity=0 time=0
note_on channel=0 note=73 velocity=0 time=0
note_on channel=0 note=71 velocity=0 time=0
note_on channel=0 note=78 velocity=72 time=0
control_change channel=0 control=64 value=0 time=0
note_on channel=0 note=42 velocity=64 time=0
control_change channel=0 control=64 value=125 time=120
note_on channel=0 note=42 velocity=0 time=360
note_on channel=0 note=66 velocity=64 time=0
note_on channel=0 note=54 velocity=50 time=0
note_on channel=0 note=58 velocity=50 time=0
note_on channel=0 note=61 velocity=56 time=0
note_on channel=0 note=66 velocity=0 time=160
note_on channel=0 note=70 velocity=60 time=0
note_on channel=0 note=70 velocity=0 time=160
note_on channel=0 note=73 velocity=60 time=0
<meta message set_tempo tempo=344828 time=160>
note_on channel=0 note=73 velocity=0 time=0
note_on channel=0 note=66 velocity=64 time=0
<meta message set_tempo tempo=333333 time=480>
note_on channel=0 note=66 velocity=0 time=0
note_on channel=0 note=61 velocity=0 time=0
note_on channel=0 note=78 velocity=0 time=0
note_on channel=0 note=54 velocity=0 time=0
note_on channel=0 note=58 velocity=0 time=0
note_on channel=0 note=74 velocity=52 time=0
control_change channel=0 control=64 value=0 time=0
note_on channel=0 note=47 velocity=48 time=0
control_change channel=0 control=64 value=126 time=141
note_on channel=0 note=47 velocity=0 time=339
note_on channel=0 note=62 velocity=32 time=0
note_on channel=0 note=54 velocity=28 time=0
note_on channel=0 note=59 velocity=32 time=0
note_on channel=0 note=62 velocity=0 time=160
note_on channel=0 note=66 velocity=32 time=0
note_on channel=0 note=66 velocity=0 time=160
note_on channel=0 note=71 velocity=32 time=0
<meta message set_tempo tempo=382166 time=160>
note_on channel=0 note=71 velocity=0 time=0
note_on channel=0 note=62 velocity=32 time=0
note_on channel=0 note=62 velocity=0 time=480
note_on channel=0 note=59 velocity=0 time=0
note_on channel=0 note=54 velocity=0 time=0
note_on channel=0 note=74 velocity=0 time=0
note_on channel=0 note=72 velocity=48 time=0
control_change channel=0 control=64 value=0 time=0
note_on channel=0 note=40 velocity=48 time=0
<meta message set_tempo tempo=333333 time=8>
control_change channel=0 control=64 value=126 time=197
note_on channel=0 note=40 velocity=0 time=275
note_on channel=0 note=60 velocity=32 time=0
note_on channel=0 note=52 velocity=28 time=0
note_on channel=0 note=55 velocity=32 time=0
note_on channel=0 note=60 velocity=0 time=160
note_on channel=0 note=64 velocity=32 time=0
note_on channel=0 note=64 velocity=0 time=160
note_on channel=0 note=67 velocity=32 time=0
note_on channel=0 note=67 velocity=0 time=160
note_on channel=0 note=60 velocity=32 time=0
note_on channel=0 note=60 velocity=0 time=480
note_on channel=0 note=55 velocity=0 time=0
note_on channel=0 note=52 velocity=0 time=0
note_on channel=0 note=72 velocity=0 time=0
note_on channel=0 note=66 velocity=47 time=0
note_on channel=0 note=70 velocity=47 time=0
note_on channel=0 note=42 velocity=48 time=0
control_change channel=0 control=64 value=1 time=5
<meta message set_tempo tempo=316623 time=3>
control_change channel=0 control=64 value=127 time=175
note_on channel=0 note=66 velocity=0 time=57
note_on channel=0 note=61 velocity=40 time=0
note_on channel=0 note=61 velocity=0 time=240
note_on channel=0 note=42 velocity=0 time=0
note_on channel=0 note=70 velocity=0 time=0
note_on channel=0 note=66 velocity=47 time=0
note_on channel=0 note=73 velocity=47 time=0
note_on channel=0 note=54 velocity=28 time=0
note_on channel=0 note=58 velocity=32 time=0
note_on channel=0 note=66 velocity=0 time=240
note_on channel=0 note=61 velocity=39 time=0
note_on channel=0 note=61 velocity=0 time=240
note_on channel=0 note=58 velocity=0 time=0
note_on channel=0 note=54 velocity=0 time=0
note_on channel=0 note=73 velocity=0 time=0
note_on channel=0 note=66 velocity=47 time=0
note_on channel=0 note=70 velocity=47 time=0
note_on channel=0 note=42 velocity=48 time=0
note_on channel=0 note=66 velocity=0 time=240
note_on channel=0 note=61 velocity=38 time=0
note_on channel=0 note=61 velocity=0 time=240
note_on channel=0 note=42 velocity=0 time=0
note_on channel=0 note=70 velocity=0 time=0
note_on channel=0 note=71 velocity=47 time=0
control_change channel=0 control=64 value=0 time=0
note_on channel=0 note=35 velocity=48 time=0
<meta message set_tempo tempo=333333 time=8>
control_change channel=0 control=64 value=126 time=154
note_on channel=0 note=35 velocity=0 time=318
note_on channel=0 note=59 velocity=32 time=0
note_on channel=0 note=47 velocity=28 time=0
note_on channel=0 note=50 velocity=28 time=0
note_on channel=0 note=54 velocity=32 time=0
note_on channel=0 note=59 velocity=0 time=160
note_on channel=0 note=62 velocity=32 time=0
note_on channel=0 note=62 velocity=0 time=160
note_on channel=0 note=66 velocity=32 time=0
<meta message set_tempo tempo=394737 time=160>
note_on channel=0 note=66 velocity=0 time=0
note_on channel=0 note=59 velocity=32 time=0
<meta message set_tempo tempo=334262 time=480>
note_on channel=0 note=59 velocity=0 time=0
note_on channel=0 note=54 velocity=0 time=0
note_on channel=0 note=71 velocity=0 time=0
note_on channel=0 note=47 velocity=0 time=0
note_on channel=0 note=50 velocity=0 time=0
note_on channel=0 note=71 velocity=85 time=0
control_change channel=0 control=64 value=0 time=0
note_on channel=0 note=40 velocity=73 time=0
control_change channel=0 control=64 value=125 time=219
note_on channel=0 note=40 velocity=0 time=21
note_on channel=0 note=59 velocity=67 time=240
note_on channel=0 note=52 velocity=60 time=0
note_on channel=0 note=55 velocity=60 time=0
note_on channel=0 note=58 velocity=67 time=0
note_on channel=0 note=59 velocity=0 time=160
note_on channel=0 note=64 velocity=61 time=0
note_on channel=0 note=64 velocity=0 time=160
note_on channel=0 note=67 velocity=61 time=0
<meta message set_tempo tempo=375000 time=160>
note_on channel=0 note=67 velocity=0 time=0
note_on channel=0 note=59 velocity=67 time=0
note_on channel=0 note=59 velocity=0 time=480
note_on channel=0 note=58 velocity=0 time=0
note_on channel=0 note=71 velocity=0 time=0
note_on channel=0 note=52 velocity=0 time=0
note_on channel=0 note=55 velocity=0 time=0
note_on channel=0 note=71 velocity=48 time=0
note_on channel=0 note=35 velocity=48 time=0
control_change channel=0 control=64 value=0 time=7
<meta message set_tempo tempo=333333 time=1>
control_change channel=0 control=64 value=127 time=232
note_on channel=0 note=35 velocity=0 time=240
note_on channel=0 note=59 velocity=32 time=0
note_on channel=0 note=50 velocity=28 time=0
note_on channel=0 note=54 velocity=32 time=0
note_on channel=0 note=59 velocity=0 time=160
note_on channel=0 note=62 velocity=32 time=0
note_on channel=0 note=62 velocity=0 time=160
note_on channel=0 note=66 velocity=32 time=0
note_on channel=0 note=66 velocity=0 time=160
note_on channel=0 note=59 velocity=32 time=0
<meta message set_tempo tempo=321716 time=480>
note_on channel=0 note=59 velocity=0 time=0
note_on channel=0 note=54 velocity=0 time=0
note_on channel=0 note=50 velocity=0 time=0
note_on channel=0 note=71 velocity=0 time=0
note_on channel=0 note=61 velocity=32 time=0
note_on channel=0 note=70 velocity=48 time=0
note_on channel=0 note=42 velocity=48 time=0
control_change channel=0 control=64 value=0 time=7
note_on channel=0 note=61 velocity=0 time=153
note_on channel=0 note=62 velocity=34 time=0
control_change channel=0 control=64 value=127 time=2
note_on channel=0 note=62 velocity=0 time=158
note_on channel=0 note=64 velocity=36 time=0
note_on channel=0 note=64 velocity=0 time=160
note_on channel=0 note=42 velocity=0 time=0
note_on channel=0 note=66 velocity=39 time=0
note_on channel=0 note=54 velocity=48 time=0
note_on channel=0 note=66 velocity=0 time=160
note_on channel=0 note=67 velocity=41 time=0
note_on channel=0 note=67 velocity=0 time=160
note_on channel=0 note=66 velocity=39 time=0
note_on channel=0 note=66 velocity=0 time=160
note_on channel=0 note=64 velocity=36 time=0
note_on channel=0 note=64 velocity=0 time=160
note_on channel=0 note=62 velocity=34 time=0
note_on channel=0 note=62 velocity=0 time=160
note_on channel=0 note=61 velocity=32 time=0
<meta message set_tempo tempo=333333 time=160>
note_on channel=0 note=61 velocity=0 time=0
note_on channel=0 note=54 velocity=0 time=0
note_on channel=0 note=70 velocity=0 time=0
note_on channel=0 note=71 velocity=48 time=0
control_change channel=0 control=64 value=0 time=0
note_on channel=0 note=35 velocity=48 time=0
control_change channel=0 control=64 value=125 time=190
note_on channel=0 note=35 velocity=0 time=290
note_on channel=0 note=59 velocity=32 time=0
note_on channel=0 note=47 velocity=28 time=0
note_on channel=0 note=50 velocity=28 time=0
note_on channel=0 note=54 velocity=32 time=0
note_on channel=0 note=59 velocity=0 time=160
note_on channel=0 note=62 velocity=32 time=0
note_on channel=0 note=62 velocity=0 time=160
note_on channel=0 note=66 velocity=32 time=0
<meta message set_tempo tempo=390879 time=160>
note_on channel=0 note=66 velocity=0 time=0
note_on channel=0 note=59 velocity=32 time=0
<meta message set_tempo tempo=333333 time=480>
note_on channel=0 note=59 velocity=0 time=0
note_on channel=0 note=54 velocity=0 time=0
note_on channel=0 note=71 velocity=0 time=0
note_on channel=0 note=47 velocity=0 time=0
note_on channel=0 note=50 velocity=0 time=0
note_on channel=0 note=71 velocity=79 time=0
control_change channel=0 control=64 value=0 time=0
note_on channel=0 note=40 velocity=71 time=0
control_change channel=0 control=64 value=127 time=169
note_on channel=0 note=40 velocity=0 time=71
note_on channel=0 note=59 velocity=64 time=240
note_on channel=0 note=58 velocity=64 time=0
note_on channel=0 note=55 velocity=57 time=0
note_on channel=0 note=52 velocity=57 time=0
note_on channel=0 note=59 velocity=0 time=160
note_on channel=0 note=64 velocity=58 time=0
note_on channel=0 note=64 velocity=0 time=160
note_on channel=0 note=67 velocity=60 time=0
note_on channel=0 note=67 velocity=0 time=160
note_on channel=0 note=59 velocity=64 time=0
<meta message set_tempo tempo=373832 time=8>
note_on channel=0 note=59 velocity=0 time=472
note_on channel=0 note=52 velocity=0 time=0
note_on channel=0 note=71 velocity=0 time=0
note_on channel=0 note=58 velocity=0 time=0
note_on channel=0 note=55 velocity=0 time=0
note_on channel=0 note=71 velocity=48 time=0
control_change channel=0 control=64 value=0 time=0
note_on channel=0 note=35 velocity=48 time=0
<meta message set_tempo tempo=333333 time=8>
control_change channel=0 control=64 value=126 time=168
note_on channel=0 note=35 velocity=0 time=304
note_on channel=0 note=59 velocity=32 time=0
note_on channel=0 note=50 velocity=28 time=0
note_on channel=0 note=54 velocity=32 time=0
note_on channel=0 note=59 velocity=0 time=160
note_on channel=0 note=62 velocity=32 time=0
note_on channel=0 note=62 velocity=0 time=160
note_on channel=0 note=66 velocity=32 time=0
note_on channel=0 note=66 velocity=0 time=160
note_on channel=0 note=59 velocity=32 time=0
<meta message set_tempo tempo=324324 time=480>
note_on channel=0 note=59 velocity=0 time=0
note_on channel=0 note=54 velocity=0 time=0
note_on channel=0 note=50 velocity=0 time=0
note_on channel=0 note=71 velocity=0 time=0
note_on channel=0 note=61 velocity=32 time=0
note_on channel=0 note=70 velocity=48 time=0
note_on channel=0 note=42 velocity=48 time=0
control_change channel=0 control=64 value=0 time=6
control_change channel=0 control=64 value=127 time=142
note_on channel=0 note=61 velocity=0 time=12
note_on channel=0 note=62 velocity=34 time=0
note_on channel=0 note=62 velocity=0 time=160
note_on channel=0 note=64 velocity=36 time=0
note_on channel=0 note=64 velocity=0 time=160
note_on channel=0 note=42 velocity=0 time=0
note_on channel=0 note=66 velocity=39 time=0
note_on channel=0 note=54 velocity=47 time=0
note_on channel=0 note=66 velocity=0 time=160
note_on channel=0 note=67 velocity=41 time=0
note_on channel=0 note=67 velocity=0 time=160
note_on channel=0 note=66 velocity=39 time=0
note_on channel=0 note=66 velocity=0 time=160
note_on channel=0 note=64 velocity=36 time=0
note_on channel=0 note=64 velocity=0 time=160
note_on channel=0 note=62 velocity=34 time=0
note_on channel=0 note=62 velocity=0 time=160
note_on channel=0 note=61 velocity=32 time=0
<meta message set_tempo tempo=333333 time=160>
note_on channel=0 note=61 velocity=0 time=0
note_on channel=0 note=54 velocity=0 time=0
note_on channel=0 note=70 velocity=0 time=0
note_on channel=0 note=71 velocity=48 time=0
note_on channel=0 note=35 velocity=48 time=0
control_change channel=0 control=64 value=0 time=5
control_change channel=0 control=64 value=127 time=185
note_on channel=0 note=35 velocity=0 time=290
note_on channel=0 note=59 velocity=32 time=0
note_on channel=0 note=47 velocity=28 time=0
note_on channel=0 note=50 velocity=28 time=0
note_on channel=0 note=54 velocity=32 time=0
note_on channel=0 note=59 velocity=0 time=160
note_on channel=0 note=62 velocity=32 time=0
note_on channel=0 note=62 velocity=0 time=160
note_on channel=0 note=66 velocity=32 time=0
note_on channel=0 note=66 velocity=0 time=160
note_on channel=0 note=59 velocity=32 time=0
<meta message set_tempo tempo=375000 time=8>
<meta message set_tempo tempo=333333 time=472>
note_on channel=0 note=59 velocity=0 time=0
note_on channel=0 note=54 velocity=0 time=0
note_on channel=0 note=71 velocity=0 time=0
note_on channel=0 note=47 velocity=0 time=0
note_on channel=0 note=50 velocity=0 time=0
note_on channel=0 note=71 velocity=81 time=0
control_change channel=0 control=64 value=0 time=0
note_on channel=0 note=35 velocity=81 time=0
control_change channel=0 control=64 value=126 time=176
note_on channel=0 note=35 velocity=0 time=304
note_on channel=0 note=59 velocity=60 time=0
note_on channel=0 note=47 velocity=54 time=0
note_on channel=0 note=50 velocity=54 time=0
note_on channel=0 note=54 velocity=60 time=0
note_on channel=0 note=59 velocity=0 time=160
note_on channel=0 note=62 velocity=54 time=0
note_on channel=0 note=62 velocity=0 time=160
note_on channel=0 note=66 velocity=54 time=0
<meta message set_tempo tempo=375000 time=160>
note_on channel=0 note=66 velocity=0 time=0
note_on channel=0 note=59 velocity=60 time=0
<meta message set_tempo tempo=333333 time=480>
note_on channel=0 note=59 velocity=0 time=0
note_on channel=0 note=54 velocity=0 time=0
note_on channel=0 note=71 velocity=0 time=0
note_on channel=0 note=47 velocity=0 time=0
note_on channel=0 note=50 velocity=0 time=0
note_on channel=0 note=71 velocity=81 time=0
note_on channel=0 note=35 velocity=81 time=0
control_change channel=0 control=64 value=0 time=5
control_change channel=0 control=64 value=125 time=164
note_on channel=0 note=35 velocity=0 time=311
note_on channel=0 note=59 velocity=60 time=0
note_on channel=0 note=47 velocity=54 time=0
note_on channel=0 note=50 velocity=54 time=0
note_on channel=0 note=54 velocity=60 time=0
note_on channel=0 note=59 velocity=0 time=160
note_on channel=0 note=62 velocity=54 time=0
note_on channel=0 note=62 velocity=0 time=160
note_on channel=0 note=66 velocity=54 time=0
note_on channel=0 note=66 velocity=0 time=160
note_on channel=0 note=59 velocity=60 time=0
<meta message set_tempo tempo=375000 time=8>
<meta message set_tempo tempo=333333 time=472>
note_on channel=0 note=59 velocity=0 time=0
note_on channel=0 note=54 velocity=0 time=0
note_on channel=0 note=71 velocity=0 time=0
note_on channel=0 note=47 velocity=0 time=0
note_on channel=0 note=50 velocity=0 time=0
note_on channel=0 note=62 velocity=81 time=0
control_change channel=0 control=64 value=0 time=0
note_on channel=0 note=35 velocity=73 time=0
<meta message set_tempo tempo=315789 time=8>
control_change channel=0 control=64 value=125 time=126
note_on channel=0 note=62 velocity=0 time=26
note_on channel=0 note=66 velocity=64 time=0
note_on channel=0 note=66 velocity=0 time=160
note_on channel=0 note=71 velocity=64 time=0
note_on channel=0 note=71 velocity=0 time=160
note_on channel=0 note=35 velocity=0 time=0
note_on channel=0 note=59 velocity=74 time=0
note_on channel=0 note=47 velocity=54 time=0
note_on channel=0 note=50 velocity=54 time=0
note_on channel=0 note=54 velocity=60 time=0
note_on channel=0 note=54 velocity=0 time=480
note_on channel=0 note=59 velocity=0 time=0
note_on channel=0 note=47 velocity=0 time=0
note_on channel=0 note=50 velocity=0 time=0
note_on channel=0 note=62 velocity=81 time=0
note_on channel=0 note=35 velocity=73 time=0
control_change channel=0 control=64 value=0 time=12
control_change channel=0 control=64 value=126 time=108
note_on channel=0 note=62 velocity=0 time=40
note_on channel=0 note=66 velocity=64 time=0
note_on channel=0 note=66 velocity=0 time=160
note_on channel=0 note=71 velocity=64 time=0
note_on channel=0 note=71 velocity=0 time=160
note_on channel=0 note=35 velocity=0 time=0
note_on channel=0 note=59 velocity=71 time=0
note_on channel=0 note=47 velocity=54 time=0
note_on channel=0 note=50 velocity=54 time=0
note_on channel=0 note=54 velocity=60 time=0
note_on channel=0 note=54 velocity=0 time=480
note_on channel=0 note=59 velocity=0 time=0
note_on channel=0 note=47 velocity=0 time=0
note_on channel=0 note=50 velocity=0 time=0
note_on channel=0 note=62 velocity=81 time=0
note_on channel=0 note=35 velocity=74 time=0
control_change channel=0 control=64 value=0 time=8
control_change channel=0 control=64 value=123 time=98
note_on channel=0 note=62 velocity=0 time=54
note_on channel=0 note=66 velocity=64 time=0
note_on channel=0 note=66 velocity=0 time=160
note_on channel=0 note=71 velocity=64 time=0
<meta message set_tempo tempo=400000 time=160>
note_on channel=0 note=71 velocity=0 time=0
note_on channel=0 note=35 velocity=0 time=0
note_on channel=0 note=62 velocity=72 time=0
note_on channel=0 note=47 velocity=54 time=0
note_on channel=0 note=50 velocity=54 time=0
note_on channel=0 note=54 velocity=60 time=0
<meta message set_tempo tempo=333333 time=480>
note_on channel=0 note=54 velocity=0 time=0
note_on channel=0 note=62 velocity=0 time=0
note_on channel=0 note=47 velocity=0 time=0
note_on channel=0 note=50 velocity=0 time=0
note_on channel=0 note=70 velocity=81 time=0
control_change channel=0 control=64 value=0 time=0
note_on channel=0 note=34 velocity=72 time=0
control_change channel=0 control=64 value=125 time=171
note_on channel=0 note=34 velocity=0 time=309
note_on channel=0 note=58 velocity=60 time=0
note_on channel=0 note=46 velocity=54 time=0
note_on channel=0 note=51 velocity=54 time=0
note_on channel=0 note=54 velocity=60 time=0
note_on channel=0 note=58 velocity=0 time=160
note_on channel=0 note=63 velocity=55 time=0
note_on channel=0 note=63 velocity=0 time=160
note_on channel=0 note=66 velocity=55 time=0
note_on channel=0 note=66 velocity=0 time=160
note_on channel=0 note=58 velocity=60 time=0
<meta message set_tempo tempo=376176 time=8>
note_on channel=0 note=58 velocity=0 time=472
note_on channel=0 note=54 velocity=0 time=0
note_on channel=0 note=70 velocity=0 time=0
note_on channel=0 note=46 velocity=0 time=0
note_on channel=0 note=51 velocity=0 time=0
note_on channel=0 note=70 velocity=81 time=0
control_change channel=0 control=64 value=0 time=0
note_on channel=0 note=34 velocity=81 time=0
<meta message set_tempo tempo=333333 time=8>
control_change channel=0 control=64 value=126 time=129
note_on channel=0 note=34 velocity=0 time=343
note_on channel=0 note=58 velocity=60 time=0
note_on channel=0 note=46 velocity=54 time=0
note_on channel=0 note=51 velocity=54 time=0
note_on channel=0 note=54 velocity=60 time=0
note_on channel=0 note=58 velocity=0 time=160
note_on channel=0 note=63 velocity=55 time=0
note_on channel=0 note=63 velocity=0 time=160
note_on channel=0 note=66 velocity=55 time=0
note_on channel=0 note=66 velocity=0 time=160
note_on channel=0 note=58 velocity=60 time=0
<meta message set_tempo tempo=319149 time=480>
note_on channel=0 note=58 velocity=0 time=0
note_on channel=0 note=54 velocity=0 time=0
note_on channel=0 note=70 velocity=0 time=0
note_on channel=0 note=46 velocity=0 time=0
note_on channel=0 note=51 velocity=0 time=0
note_on channel=0 note=63 velocity=83 time=0
control_change channel=0 control=64 value=0 time=0
note_on channel=0 note=34 velocity=83 time=0
control_change channel=0 control=64 value=127 time=120
note_on channel=0 note=63 velocity=0 time=40
note_on channel=0 note=66 velocity=62 time=0
note_on channel=0 note=66 velocity=0 time=160
note_on channel=0 note=70 velocity=62 time=0
note_on channel=0 note=70 velocity=0 time=160
note_on channel=0 note=34 velocity=0 time=0
note_on channel=0 note=58 velocity=74 time=0
note_on channel=0 note=46 velocity=58 time=0
note_on channel=0 note=51 velocity=58 time=0
note_on channel=0 note=54 velocity=65 time=0
note_on channel=0 note=54 velocity=0 time=480
note_on channel=0 note=58 velocity=0 time=0
note_on channel=0 note=46 velocity=0 time=0
note_on channel=0 note=51 velocity=0 time=0
note_on channel=0 note=63 velocity=89 time=0
note_on channel=0 note=34 velocity=86 time=0
control_change channel=0 control=64 value=0 time=23
control_change channel=0 control=64 value=126 time=114
note_on channel=0 note=63 velocity=0 time=23
note_on channel=0 note=66 velocity=66 time=0
note_on channel=0 note=66 velocity=0 time=160
note_on channel=0 note=70 velocity=66 time=0
note_on channel=0 note=70 velocity=0 time=160
note_on channel=0 note=34 velocity=0 time=0
note_on channel=0 note=58 velocity=77 time=0
note_on channel=0 note=46 velocity=60 time=0
note_on channel=0 note=51 velocity=60 time=0
note_on channel=0 note=54 velocity=67 time=0
control_change channel=0 control=64 value=0 time=474
note_on channel=0 note=54 velocity=0 time=6
note_on channel=0 note=58 velocity=0 time=0
note_on channel=0 note=46 velocity=0 time=0
note_on channel=0 note=51 velocity=0 time=0
note_on channel=0 note=63 velocity=90 time=0
note_on channel=0 note=34 velocity=87 time=0
control_change channel=0 control=64 value=126 time=80
note_on channel=0 note=63 velocity=0 time=80
note_on channel=0 note=66 velocity=71 time=0
note_on channel=0 note=66 velocity=0 time=160
note_on channel=0 note=70 velocity=71 time=0
<meta message set_tempo tempo=375000 time=148>
note_on channel=0 note=70 velocity=0 time=12
note_on channel=0 note=34 velocity=0 time=0
note_on channel=0 note=58 velocity=78 time=0
note_on channel=0 note=46 velocity=61 time=0
note_on channel=0 note=51 velocity=61 time=0
note_on channel=0 note=54 velocity=68 time=0
note_on channel=0 note=54 velocity=0 time=480
note_on channel=0 note=58 velocity=0 time=0
note_on channel=0 note=46 velocity=0 time=0
note_on channel=0 note=51 velocity=0 time=0
note_on channel=0 note=63 velocity=82 time=0
note_on channel=0 note=75 velocity=97 time=0
control_change channel=0 control=64 value=0 time=0
note_on channel=0 note=32 velocity=75 time=0
note_on channel=0 note=44 velocity=89 time=0
<meta message set_tempo tempo=333333 time=8>
note_on channel=0 note=44 velocity=0 time=472
note_on channel=0 note=32 velocity=0 time=0
note_on channel=0 note=53 velocity=80 time=0
note_on channel=0 note=51 velocity=72 time=0
note_on channel=0 note=47 velocity=72 time=0
note_on channel=0 note=44 velocity=72 time=0
note_on channel=0 note=75 velocity=0 time=480
note_on channel=0 note=63 velocity=0 time=0
note_on channel=0 note=87 velocity=105 time=0
note_on channel=0 note=75 velocity=96 time=0
note_on channel=0 note=47 velocity=0 time=480
note_on channel=0 note=53 velocity=0 time=0
note_on channel=0 note=51 velocity=0 time=0
note_on channel=0 note=44 velocity=0 time=0
note_on channel=0 note=47 velocity=63 time=0
note_on channel=0 note=54 velocity=71 time=0
note_on channel=0 note=51 velocity=63 time=0
note_on channel=0 note=44 velocity=63 time=0
note_on channel=0 note=75 velocity=0 time=480
note_on channel=0 note=87 velocity=0 time=0
note_on channel=0 note=71 velocity=77 time=0
note_on channel=0 note=83 velocity=91 time=0
note_on channel=0 note=51 velocity=0 time=480
note_on channel=0 note=47 velocity=0 time=0
note_on channel=0 note=54 velocity=0 time=0
note_on channel=0 note=44 velocity=0 time=0
note_on channel=0 note=54 velocity=76 time=0
note_on channel=0 note=51 velocity=68 time=0
note_on channel=0 note=47 velocity=68 time=0
note_on channel=0 note=44 velocity=68 time=0
<meta message set_tempo tempo=323450 time=480>
note_on channel=0 note=44 velocity=0 time=0
note_on channel=0 note=83 velocity=0 time=0
note_on channel=0 note=54 velocity=0 time=0
note_on channel=0 note=71 velocity=0 time=0
note_on channel=0 note=47 velocity=0 time=0
note_on channel=0 note=51 velocity=0 time=0
note_on channel=0 note=80 velocity=81 time=0
note_on channel=0 note=59 velocity=76 time=0
note_on channel=0 note=56 velocity=68 time=0
note_on channel=0 note=53 velocity=68 time=0
note_on channel=0 note=46 velocity=68 time=0
control_change channel=0 control=64 value=126 time=108
note_on channel=0 note=80 velocity=0 time=52
note_on channel=0 note=83 velocity=75 time=0
note_on channel=0 note=83 velocity=0 time=160
note_on channel=0 note=80 velocity=80 time=0
note_on channel=0 note=80 velocity=0 time=160
note_on channel=0 note=83 velocity=74 time=0
note_on channel=0 note=83 velocity=0 time=160
note_on channel=0 note=80 velocity=78 time=0
note_on channel=0 note=80 velocity=0 time=160
note_on channel=0 note=83 velocity=72 time=0
note_on channel=0 note=83 velocity=0 time=160
note_on channel=0 note=80 velocity=77 time=0
note_on channel=0 note=80 velocity=0 time=160
note_on channel=0 note=83 velocity=69 time=0
note_on channel=0 note=83 velocity=0 time=160
note_on channel=0 note=80 velocity=75 time=0
note_on channel=0 note=80 velocity=0 time=160
note_on channel=0 note=83 velocity=69 time=0
note_on channel=0 note=83 velocity=0 time=160
note_on channel=0 note=80 velocity=74 time=0
note_on channel=0 note=80 velocity=0 time=160
note_on channel=0 note=83 velocity=67 time=0
note_on channel=0 note=83 velocity=0 time=160
note_on channel=0 note=80 velocity=72 time=0
note_on channel=0 note=80 velocity=0 time=160
note_on channel=0 note=83 velocity=67 time=0
note_on channel=0 note=83 velocity=0 time=160
note_on channel=0 note=80 velocity=72 time=0
note_on channel=0 note=80 velocity=0 time=160
note_on channel=0 note=83 velocity=65 time=0
note_on channel=0 note=83 velocity=0 time=160
note_on channel=0 note=80 velocity=70 time=0
note_on channel=0 note=80 velocity=0 time=160
note_on channel=0 note=83 velocity=64 time=0
<meta message set_tempo tempo=334262 time=148>
<meta message set_tempo tempo=323450 time=12>
note_on channel=0 note=83 velocity=0 time=0
note_on channel=0 note=46 velocity=0 time=0
note_on channel=0 note=59 velocity=0 time=0
note_on channel=0 note=56 velocity=0 time=0
note_on channel=0 note=53 velocity=0 time=0
note_on channel=0 note=80 velocity=70 time=0
note_on channel=0 note=58 velocity=50 time=0
note_on channel=0 note=56 velocity=45 time=0
note_on channel=0 note=53 velocity=45 time=0
note_on channel=0 note=46 velocity=45 time=0
control_change channel=0 control=64 value=0 time=34
<meta message set_tempo tempo=324324 time=66>
control_change channel=0 control=64 value=126 time=48
note_on channel=0 note=80 velocity=0 time=12
note_on channel=0 note=82 velocity=62 time=0
<meta message set_tempo tempo=325203 time=20>
<meta message set_tempo tempo=326087 time=100>
note_on channel=0 note=82 velocity=0 time=40
note_on channel=0 note=80 velocity=64 time=0
<meta message set_tempo tempo=326975 time=40>
<meta message set_tempo tempo=327869 time=100>
note_on channel=0 note=80 velocity=0 time=20
note_on channel=0 note=82 velocity=56 time=0
<meta message set_tempo tempo=328767 time=60>
<meta message set_tempo tempo=329670 time=100>
note_on channel=0 note=82 velocity=0 time=0
note_on channel=0 note=80 velocity=58 time=0
<meta message set_tempo tempo=330579 time=80>
note_on channel=0 note=80 velocity=0 time=80
note_on channel=0 note=82 velocity=51 time=0
<meta message set_tempo tempo=331492 time=20>
<meta message set_tempo tempo=332410 time=80>
note_on channel=0 note=82 velocity=0 time=60
note_on channel=0 note=80 velocity=53 time=0
<meta message set_tempo tempo=333333 time=40>
<meta message set_tempo tempo=334262 time=80>
note_on channel=0 note=80 velocity=0 time=40
note_on channel=0 note=82 velocity=45 time=0
<meta message set_tempo tempo=335196 time=60>
<meta message set_tempo tempo=336134 time=80>
note_on channel=0 note=82 velocity=0 time=20
note_on channel=0 note=80 velocity=47 time=0
<meta message set_tempo tempo=337079 time=80>
<meta message set_tempo tempo=338028 time=80>
note_on channel=0 note=80 velocity=0 time=0
note_on channel=0 note=82 velocity=40 time=0
<meta message set_tempo tempo=339943 time=20>
<meta message set_tempo tempo=341880 time=20>
<meta message set_tempo tempo=343840 time=20>
<meta message set_tempo tempo=345821 time=20>
<meta message set_tempo tempo=347826 time=20>
<meta message set_tempo tempo=350877 time=20>
<meta message set_tempo tempo=352941 time=20>
<meta message set_tempo tempo=355030 time=20>
note_on channel=0 note=82 velocity=0 time=0
note_on channel=0 note=80 velocity=41 time=0
<meta message set_tempo tempo=357143 time=20>
<meta message set_tempo tempo=359281 time=20>
<meta message set_tempo tempo=362538 time=20>
<meta message set_tempo tempo=364742 time=20>
<meta message set_tempo tempo=366972 time=20>
<meta message set_tempo tempo=369231 time=20>
<meta message set_tempo tempo=371517 time=20>
<meta message set_tempo tempo=373832 time=20>
note_on channel=0 note=80 velocity=0 time=0
note_on channel=0 note=82 velocity=35 time=0
<meta message set_tempo tempo=377358 time=20>
<meta message set_tempo tempo=379747 time=20>
<meta message set_tempo tempo=382166 time=20>
<meta message set_tempo tempo=384615 time=20>
<meta message set_tempo tempo=387097 time=20>
<meta message set_tempo tempo=390879 time=20>
<meta message set_tempo tempo=393443 time=20>
<meta message set_tempo tempo=396040 time=20>
note_on channel=0 note=82 velocity=0 time=0
note_on channel=0 note=80 velocity=36 time=0
<meta message set_tempo tempo=398671 time=20>
<meta message set_tempo tempo=401338 time=20>
<meta message set_tempo tempo=404040 time=20>
<meta message set_tempo tempo=408163 time=20>
<meta message set_tempo tempo=410959 time=20>
<meta message set_tempo tempo=413793 time=20>
<meta message set_tempo tempo=416667 time=20>
<meta message set_tempo tempo=419580 time=20>
note_on channel=0 note=80 velocity=0 time=0
note_on channel=0 note=82 velocity=28 time=0
<meta message set_tempo tempo=424028 time=20>
<meta message set_tempo tempo=427046 time=20>
<meta message set_tempo tempo=430108 time=20>
<meta message set_tempo tempo=433213 time=20>
<meta message set_tempo tempo=436364 time=20>
<meta message set_tempo tempo=441176 time=20>
<meta message set_tempo tempo=444444 time=20>
<meta message set_tempo tempo=447761 time=20>
note_on channel=0 note=82 velocity=0 time=0
note_on channel=0 note=80 velocity=30 time=0
<meta message set_tempo tempo=451128 time=20>
<meta message set_tempo tempo=454545 time=20>
<meta message set_tempo tempo=458015 time=20>
<meta message set_tempo tempo=463320 time=20>
<meta message set_tempo tempo=466926 time=20>
<meta message set_tempo tempo=470588 time=20>
<meta message set_tempo tempo=474308 time=20>
<meta message set_tempo tempo=478088 time=20>
note_on channel=0 note=80 velocity=0 time=0
note_on channel=0 note=82 velocity=23 time=0
<meta message set_tempo tempo=483871 time=20>
<meta message set_tempo tempo=487805 time=20>
<meta message set_tempo tempo=491803 time=20>
<meta message set_tempo tempo=495868 time=20>
<meta message set_tempo tempo=500000 time=20>
<meta message set_tempo tempo=504202 time=20>
<meta message set_tempo tempo=510638 time=20>
<meta message set_tempo tempo=515021 time=20>
note_on channel=0 note=82 velocity=0 time=0
note_on channel=0 note=80 velocity=24 time=0
<meta message set_tempo tempo=519481 time=20>
<meta message set_tempo tempo=524017 time=20>
<meta message set_tempo tempo=528634 time=20>
<meta message set_tempo tempo=535714 time=20>
<meta message set_tempo tempo=540541 time=20>
<meta message set_tempo tempo=545455 time=20>
<meta message set_tempo tempo=550459 time=20>
<meta message set_tempo tempo=555556 time=20>
note_on channel=0 note=80 velocity=0 time=0
note_on channel=0 note=82 velocity=21 time=0
<meta message set_tempo tempo=563380 time=20>
<meta message key_signature key='Eb' time=140>
<meta message set_tempo tempo=332410 time=0>
note_on channel=0 note=82 velocity=0 time=0
note_on channel=0 note=46 velocity=0 time=0
note_on channel=0 note=58 velocity=0 time=0
note_on channel=0 note=56 velocity=0 time=0
note_on channel=0 note=53 velocity=0 time=0
note_on channel=0 note=79 velocity=24 time=0
control_change channel=0 control=64 value=0 time=0
note_on channel=0 note=51 velocity=32 time=0
note_on channel=0 note=79 velocity=0 time=160
note_on channel=0 note=82 velocity=44 time=0
note_on channel=0 note=82 velocity=0 time=160
note_on channel=0 note=80 velocity=43 time=0
<meta message set_tempo tempo=300000 time=160>
note_on channel=0 note=80 velocity=0 time=0
note_on channel=0 note=79 velocity=43 time=0
note_on channel=0 note=58 velocity=23 time=0
note_on channel=0 note=79 velocity=0 time=160
note_on channel=0 note=77 velocity=42 time=0
note_on channel=0 note=77 velocity=0 time=160
note_on channel=0 note=75 velocity=41 time=0
note_on channel=0 note=75 velocity=0 time=160
note_on channel=0 note=74 velocity=40 time=0
note_on channel=0 note=74 velocity=0 time=160
note_on channel=0 note=72 velocity=40 time=0
note_on channel=0 note=72 velocity=0 time=160
note_on channel=0 note=70 velocity=40 time=0
<meta message set_tempo tempo=306122 time=160>
note_on channel=0 note=70 velocity=0 time=0
note_on channel=0 note=58 velocity=0 time=0
note_on channel=0 note=51 velocity=0 time=0
note_on channel=0 note=68 velocity=39 time=0
note_on channel=0 note=53 velocity=36 time=0
note_on channel=0 note=68 velocity=0 time=160
note_on channel=0 note=67 velocity=39 time=0
note_on channel=0 note=67 velocity=0 time=160
note_on channel=0 note=65 velocity=38 time=0
<meta message set_tempo tempo=300000 time=160>
note_on channel=0 note=65 velocity=0 time=0
note_on channel=0 note=63 velocity=37 time=0
note_on channel=0 note=58 velocity=27 time=0
note_on channel=0 note=63 velocity=0 time=160
note_on channel=0 note=62 velocity=39 time=0
note_on channel=0 note=62 velocity=0 time=160
note_on channel=0 note=60 velocity=38 time=0
note_on channel=0 note=60 velocity=0 time=160
note_on channel=0 note=58 velocity=40 time=0
note_on channel=0 note=58 velocity=0 time=160
note_on channel=0 note=60 velocity=41 time=0
note_on channel=0 note=60 velocity=0 time=160
note_on channel=0 note=62 velocity=40 time=0
<meta message set_tempo tempo=306905 time=160>
note_on channel=0 note=62 velocity=0 time=0
note_on channel=0 note=58 velocity=0 time=0
note_on channel=0 note=53 velocity=0 time=0
note_on channel=0 note=63 velocity=44 time=0
note_on channel=0 note=55 velocity=41 time=0
note_on channel=0 note=63 velocity=0 time=160
note_on channel=0 note=62 velocity=45 time=0
note_on channel=0 note=62 velocity=0 time=160
note_on channel=0 note=63 velocity=45 time=0
<meta message set_tempo tempo=300000 time=160>
note_on channel=0 note=63 velocity=0 time=0
note_on channel=0 note=64 velocity=48 time=0
note_on channel=0 note=58 velocity=29 time=0
note_on channel=0 note=64 velocity=0 time=160
note_on channel=0 note=63 velocity=47 time=0
note_on channel=0 note=63 velocity=0 time=160
note_on channel=0 note=64 velocity=45 time=0
note_on channel=0 note=64 velocity=0 time=160
note_on channel=0 note=65 velocity=53 time=0
note_on channel=0 note=65 velocity=0 time=160
note_on channel=0 note=64 velocity=51 time=0
note_on channel=0 note=64 velocity=0 time=160
note_on channel=0 note=65 velocity=48 time=0
<meta message set_tempo tempo=305344 time=160>
note_on channel=0 note=65 velocity=0 time=0
note_on channel=0 note=58 velocity=0 time=0
note_on channel=0 note=55 velocity=0 time=0
note_on channel=0 note=66 velocity=56 time=0
note_on channel=0 note=50 velocity=45 time=0
note_on channel=0 note=66 velocity=0 time=160
note_on channel=0 note=65 velocity=52 time=0
note_on channel=0 note=65 velocity=0 time=160
note_on channel=0 note=66 velocity=48 time=0
<meta message set_tempo tempo=300000 time=160>
note_on channel=0 note=66 velocity=0 time=0
note_on channel=0 note=67 velocity=56 time=0
note_on channel=0 note=58 velocity=31 time=0
note_on channel=0 note=67 velocity=0 time=160
note_on channel=0 note=66 velocity=54 time=0
note_on channel=0 note=66 velocity=0 time=160
note_on channel=0 note=67 velocity=49 time=0
note_on channel=0 note=67 velocity=0 time=160
note_on channel=0 note=68 velocity=48 time=0
note_on channel=0 note=68 velocity=0 time=160
note_on channel=0 note=67 velocity=45 time=0
note_on channel=0 note=67 velocity=0 time=160
note_on channel=0 note=68 velocity=42 time=0
<meta message set_tempo tempo=304569 time=160>
note_on channel=0 note=68 velocity=0 time=0
note_on channel=0 note=58 velocity=0 time=0
note_on channel=0 note=50 velocity=0 time=0
note_on channel=0 note=67 velocity=48 time=0
note_on channel=0 note=51 velocity=42 time=0
note_on channel=0 note=67 velocity=0 time=160
note_on channel=0 note=70 velocity=45 time=0
note_on channel=0 note=70 velocity=0 time=160
note_on channel=0 note=68 velocity=44 time=0
<meta message set_tempo tempo=300000 time=160>
note_on channel=0 note=68 velocity=0 time=0
note_on channel=0 note=67 velocity=48 time=0
note_on channel=0 note=58 velocity=31 time=0
note_on channel=0 note=67 velocity=0 time=160
note_on channel=0 note=68 velocity=45 time=0
note_on channel=0 note=68 velocity=0 time=160
note_on channel=0 note=70 velocity=45 time=0
note_on channel=0 note=70 velocity=0 time=160
note_on channel=0 note=72 velocity=48 time=0
note_on channel=0 note=72 velocity=0 time=160
note_on channel=0 note=74 velocity=44 time=0
note_on channel=0 note=74 velocity=0 time=160
note_on channel=0 note=75 velocity=44 time=0
<meta message set_tempo tempo=312500 time=160>
note_on channel=0 note=75 velocity=0 time=0
note_on channel=0 note=58 velocity=0 time=0
note_on channel=0 note=51 velocity=0 time=0
note_on channel=0 note=77 velocity=48 time=0
note_on channel=0 note=44 velocity=41 time=0
note_on channel=0 note=77 velocity=0 time=160
note_on channel=0 note=84 velocity=52 time=0
note_on channel=0 note=84 velocity=0 time=160
note_on channel=0 note=82 velocity=46 time=0
<meta message set_tempo tempo=300000 time=160>
note_on channel=0 note=82 velocity=0 time=0
note_on channel=0 note=44 velocity=0 time=0
note_on channel=0 note=80 velocity=51 time=0
note_on channel=0 note=60 velocity=29 time=0
note_on channel=0 note=56 velocity=26 time=0
note_on channel=0 note=80 velocity=0 time=160
note_on channel=0 note=79 velocity=47 time=0
note_on channel=0 note=79 velocity=0 time=160
note_on channel=0 note=77 velocity=45 time=0
note_on channel=0 note=77 velocity=0 time=160
note_on channel=0 note=75 velocity=48 time=0
note_on channel=0 note=75 velocity=0 time=160
note_on channel=0 note=74 velocity=45 time=0
note_on channel=0 note=74 velocity=0 time=160
note_on channel=0 note=72 velocity=45 time=0
<meta message set_tempo tempo=305344 time=160>
note_on channel=0 note=72 velocity=0 time=0
note_on channel=0 note=56 velocity=0 time=0
note_on channel=0 note=60 velocity=0 time=0
note_on channel=0 note=70 velocity=47 time=0
note_on channel=0 note=46 velocity=40 time=0
note_on channel=0 note=70 velocity=0 time=160
note_on channel=0 note=77 velocity=45 time=0
note_on channel=0 note=77 velocity=0 time=160
note_on channel=0 note=75 velocity=45 time=0
<meta message set_tempo tempo=300000 time=160>
note_on channel=0 note=75 velocity=0 time=0
note_on channel=0 note=46 velocity=0 time=0
note_on channel=0 note=74 velocity=48 time=0
note_on channel=0 note=56 velocity=27 time=0
note_on channel=0 note=62 velocity=30 time=0
note_on channel=0 note=58 velocity=27 time=0
note_on channel=0 note=74 velocity=0 time=160
note_on channel=0 note=72 velocity=45 time=0
note_on channel=0 note=72 velocity=0 time=160
note_on channel=0 note=70 velocity=45 time=0
note_on channel=0 note=70 velocity=0 time=160
note_on channel=0 note=68 velocity=48 time=0
note_on channel=0 note=68 velocity=0 time=160
note_on channel=0 note=67 velocity=44 time=0
note_on channel=0 note=67 velocity=0 time=160
note_on channel=0 note=65 velocity=44 time=0
<meta message set_tempo tempo=304569 time=160>
note_on channel=0 note=65 velocity=0 time=0
note_on channel=0 note=58 velocity=0 time=0
note_on channel=0 note=62 velocity=0 time=0
note_on channel=0 note=56 velocity=0 time=0
note_on channel=0 note=63 velocity=48 time=0
note_on channel=0 note=51 velocity=45 time=0
note_on channel=0 note=63 velocity=0 time=160
note_on channel=0 note=65 velocity=48 time=0
note_on channel=0 note=65 velocity=0 time=160
note_on channel=0 note=67 velocity=48 time=0
<meta message set_tempo tempo=300000 time=160>
note_on channel=0 note=67 velocity=0 time=0
note_on channel=0 note=51 velocity=0 time=0
note_on channel=0 note=68 velocity=48 time=0
note_on channel=0 note=63 velocity=30 time=0
note_on channel=0 note=58 velocity=27 time=0
note_on channel=0 note=55 velocity=27 time=0
note_on channel=0 note=68 velocity=0 time=160
note_on channel=0 note=70 velocity=51 time=0
note_on channel=0 note=70 velocity=0 time=160
note_on channel=0 note=72 velocity=55 time=0
note_on channel=0 note=72 velocity=0 time=160
note_on channel=0 note=74 velocity=56 time=0
note_on channel=0 note=74 velocity=0 time=160
note_on channel=0 note=75 velocity=60 time=0
note_on channel=0 note=75 velocity=0 time=160
note_on channel=0 note=77 velocity=63 time=0
<meta message set_tempo tempo=332410 time=160>
note_on channel=0 note=77 velocity=0 time=0
note_on channel=0 note=55 velocity=0 time=0
note_on channel=0 note=58 velocity=0 time=0
note_on channel=0 note=63 velocity=0 time=0
note_on channel=0 note=79 velocity=63 time=0
note_on channel=0 note=51 velocity=48 time=0
note_on channel=0 note=79 velocity=0 time=160
note_on channel=0 note=82 velocity=58 time=0
note_on channel=0 note=82 velocity=0 time=160
note_on channel=0 note=80 velocity=53 time=0
<meta message set_tempo tempo=300000 time=160>
note_on channel=0 note=80 velocity=0 time=0
note_on channel=0 note=79 velocity=62 time=0
note_on channel=0 note=58 velocity=41 time=0
note_on channel=0 note=79 velocity=0 time=160
note_on channel=0 note=77 velocity=56 time=0
note_on channel=0 note=77 velocity=0 time=160
note_on channel=0 note=75 velocity=54 time=0
note_on channel=0 note=75 velocity=0 time=160
note_on channel=0 note=74 velocity=63 time=0
note_on channel=0 note=74 velocity=0 time=160
note_on channel=0 note=72 velocity=58 time=0
note_on channel=0 note=72 velocity=0 time=160
note_on channel=0 note=70 velocity=54 time=0
<meta message set_tempo tempo=305344 time=160>
note_on channel=0 note=70 velocity=0 time=0
note_on channel=0 note=58 velocity=0 time=0
note_on channel=0 note=51 velocity=0 time=0
note_on channel=0 note=68 velocity=63 time=0
note_on channel=0 note=53 velocity=52 time=0
note_on channel=0 note=68 velocity=0 time=160
note_on channel=0 note=67 velocity=59 time=0
note_on channel=0 note=67 velocity=0 time=160
note_on channel=0 note=65 velocity=60 time=0
<meta message set_tempo tempo=300000 time=160>
note_on channel=0 note=65 velocity=0 time=0
note_on channel=0 note=63 velocity=63 time=0
note_on channel=0 note=58 velocity=40 time=0
note_on channel=0 note=63 velocity=0 time=160
note_on channel=0 note=62 velocity=59 time=0
note_on channel=0 note=62 velocity=0 time=160
note_on channel=0 note=60 velocity=59 time=0
note_on channel=0 note=60 velocity=0 time=160
note_on channel=0 note=58 velocity=63 time=0
note_on channel=0 note=58 velocity=0 time=160
note_on channel=0 note=60 velocity=58 time=0
note_on channel=0 note=60 velocity=0 time=160
note_on channel=0 note=62 velocity=58 time=0
<meta message set_tempo tempo=305344 time=160>
note_on channel=0 note=62 velocity=0 time=0
note_on channel=0 note=58 velocity=0 time=0
note_on channel=0 note=53 velocity=0 time=0
note_on channel=0 note=63 velocity=63 time=0
note_on channel=0 note=55 velocity=56 time=0
note_on channel=0 note=63 velocity=0 time=160
note_on channel=0 note=62 velocity=60 time=0
note_on channel=0 note=62 velocity=0 time=160
note_on channel=0 note=63 velocity=60 time=0
<meta message set_tempo tempo=300000 time=160>
note_on channel=0 note=63 velocity=0 time=0
note_on channel=0 note=64 velocity=67 time=0
note_on channel=0 note=58 velocity=45 time=0
note_on channel=0 note=64 velocity=0 time=160
note_on channel=0 note=63 velocity=63 time=0
note_on channel=0 note=63 velocity=0 time=160
note_on channel=0 note=64 velocity=63 time=0
note_on channel=0 note=64 velocity=0 time=160
note_on channel=0 note=65 velocity=71 time=0
note_on channel=0 note=65 velocity=0 time=160
note_on channel=0 note=64 velocity=68 time=0
note_on channel=0 note=64 velocity=0 time=160
note_on channel=0 note=65 velocity=64 time=0
<meta message set_tempo tempo=304569 time=160>
note_on channel=0 note=65 velocity=0 time=0
note_on channel=0 note=58 velocity=0 time=0
note_on channel=0 note=55 velocity=0 time=0
note_on channel=0 note=66 velocity=73 time=0
note_on channel=0 note=50 velocity=56 time=0
note_on channel=0 note=66 velocity=0 time=160
note_on channel=0 note=65 velocity=70 time=0
note_on channel=0 note=65 velocity=0 time=160
note_on channel=0 note=66 velocity=67 time=0
<meta message set_tempo tempo=300000 time=160>
note_on channel=0 note=66 velocity=0 time=0
note_on channel=0 note=67 velocity=72 time=0
note_on channel=0 note=58 velocity=42 time=0
note_on channel=0 note=67 velocity=0 time=160
note_on channel=0 note=66 velocity=70 time=0
note_on channel=0 note=66 velocity=0 time=160
note_on channel=0 note=67 velocity=64 time=0
note_on channel=0 note=67 velocity=0 time=160
note_on channel=0 note=68 velocity=63 time=0
note_on channel=0 note=68 velocity=0 time=160
note_on channel=0 note=67 velocity=58 time=0
note_on channel=0 note=67 velocity=0 time=160
note_on channel=0 note=68 velocity=58 time=0
<meta message set_tempo tempo=304569 time=160>
note_on channel=0 note=68 velocity=0 time=0
note_on channel=0 note=58 velocity=0 time=0
note_on channel=0 note=50 velocity=0 time=0
note_on channel=0 note=67 velocity=63 time=0
note_on channel=0 note=51 velocity=51 time=0
note_on channel=0 note=67 velocity=0 time=160
note_on channel=0 note=70 velocity=60 time=0
note_on channel=0 note=70 velocity=0 time=160
note_on channel=0 note=68 velocity=60 time=0
<meta message set_tempo tempo=300000 time=160>
note_on channel=0 note=68 velocity=0 time=0
note_on channel=0 note=67 velocity=63 time=0
note_on channel=0 note=58 velocity=40 time=0
note_on channel=0 note=67 velocity=0 time=160
note_on channel=0 note=68 velocity=58 time=0
note_on channel=0 note=68 velocity=0 time=160
note_on channel=0 note=70 velocity=58 time=0
note_on channel=0 note=70 velocity=0 time=160
note_on channel=0 note=72 velocity=63 time=0
note_on channel=0 note=72 velocity=0 time=160
note_on channel=0 note=74 velocity=58 time=0
note_on channel=0 note=74 velocity=0 time=160
note_on channel=0 note=75 velocity=58 time=0
<meta message set_tempo tempo=312500 time=160>
note_on channel=0 note=75 velocity=0 time=0
note_on channel=0 note=58 velocity=0 time=0
note_on channel=0 note=51 velocity=0 time=0
note_on channel=0 note=77 velocity=63 time=0
note_on channel=0 note=44 velocity=60 time=0
note_on channel=0 note=77 velocity=0 time=160
note_on channel=0 note=84 velocity=66 time=0
note_on channel=0 note=84 velocity=0 time=160
note_on channel=0 note=82 velocity=65 time=0
<meta message set_tempo tempo=300000 time=160>
note_on channel=0 note=82 velocity=0 time=0
note_on channel=0 note=44 velocity=0 time=0
note_on channel=0 note=80 velocity=64 time=0
note_on channel=0 note=60 velocity=47 time=0
note_on channel=0 note=56 velocity=42 time=0
note_on channel=0 note=80 velocity=0 time=160
note_on channel=0 note=79 velocity=60 time=0
note_on channel=0 note=79 velocity=0 time=160
note_on channel=0 note=77 velocity=60 time=0
note_on channel=0 note=77 velocity=0 time=160
note_on channel=0 note=75 velocity=63 time=0
note_on channel=0 note=75 velocity=0 time=160
note_on channel=0 note=74 velocity=58 time=0
note_on channel=0 note=74 velocity=0 time=160
note_on channel=0 note=72 velocity=61 time=0
<meta message set_tempo tempo=306905 time=160>
note_on channel=0 note=72 velocity=0 time=0
note_on channel=0 note=56 velocity=0 time=0
note_on channel=0 note=60 velocity=0 time=0
note_on channel=0 note=70 velocity=59 time=0
note_on channel=0 note=46 velocity=59 time=0
note_on channel=0 note=70 velocity=0 time=160
note_on channel=0 note=77 velocity=62 time=0
note_on channel=0 note=77 velocity=0 time=160
note_on channel=0 note=75 velocity=58 time=0
<meta message set_tempo tempo=300000 time=160>
note_on channel=0 note=75 velocity=0 time=0
note_on channel=0 note=46 velocity=0 time=0
note_on channel=0 note=74 velocity=63 time=0
note_on channel=0 note=56 velocity=40 time=0
note_on channel=0 note=62 velocity=45 time=0
note_on channel=0 note=58 velocity=40 time=0
note_on channel=0 note=74 velocity=0 time=160
note_on channel=0 note=75 velocity=59 time=0
note_on channel=0 note=75 velocity=0 time=160
note_on channel=0 note=77 velocity=59 time=0
note_on channel=0 note=77 velocity=0 time=160
note_on channel=0 note=79 velocity=63 time=0
note_on channel=0 note=79 velocity=0 time=160
note_on channel=0 note=80 velocity=57 time=0
note_on channel=0 note=80 velocity=0 time=160
note_on channel=0 note=82 velocity=57 time=0
<meta message set_tempo tempo=306122 time=160>
note_on channel=0 note=82 velocity=0 time=0
note_on channel=0 note=58 velocity=0 time=0
note_on channel=0 note=62 velocity=0 time=0
note_on channel=0 note=56 velocity=0 time=0
note_on channel=0 note=75 velocity=63 time=0
note_on channel=0 note=51 velocity=60 time=0
note_on channel=0 note=75 velocity=0 time=160
note_on channel=0 note=77 velocity=58 time=0
note_on channel=0 note=77 velocity=0 time=160
note_on channel=0 note=79 velocity=58 time=0
<meta message set_tempo tempo=300000 time=160>
note_on channel=0 note=79 velocity=0 time=0
note_on channel=0 note=51 velocity=0 time=0
note_on channel=0 note=80 velocity=63 time=0
note_on channel=0 note=63 velocity=46 time=0
note_on channel=0 note=58 velocity=41 time=0
note_on channel=0 note=55 velocity=41 time=0
note_on channel=0 note=80 velocity=0 time=160
note_on channel=0 note=82 velocity=58 time=0
note_on channel=0 note=82 velocity=0 time=160
note_on channel=0 note=84 velocity=58 time=0
note_on channel=0 note=84 velocity=0 time=160
note_on channel=0 note=86 velocity=63 time=0
note_on channel=0 note=86 velocity=0 time=160
note_on channel=0 note=87 velocity=58 time=0
note_on channel=0 note=87 velocity=0 time=160
note_on channel=0 note=89 velocity=58 time=0
<meta message set_tempo tempo=334262 time=160>
note_on channel=0 note=89 velocity=0 time=0
note_on channel=0 note=55 velocity=0 time=0
note_on channel=0 note=58 velocity=0 time=0
note_on channel=0 note=63 velocity=0 time=0
note_on channel=0 note=91 velocity=63 time=0
note_on channel=0 note=51 velocity=58 time=0
note_on channel=0 note=91 velocity=0 time=160
note_on channel=0 note=94 velocity=63 time=0
note_on channel=0 note=94 velocity=0 time=160
note_on channel=0 note=92 velocity=58 time=0
<meta message set_tempo tempo=300752 time=160>
note_on channel=0 note=92 velocity=0 time=0
note_on channel=0 note=91 velocity=64 time=0
note_on channel=0 note=58 velocity=46 time=0
note_on channel=0 note=91 velocity=0 time=160
note_on channel=0 note=89 velocity=62 time=0
note_on channel=0 note=89 velocity=0 time=160
note_on channel=0 note=87 velocity=62 time=0
note_on channel=0 note=87 velocity=0 time=160
note_on channel=0 note=86 velocity=63 time=0
note_on channel=0 note=86 velocity=0 time=160
note_on channel=0 note=84 velocity=57 time=0
note_on channel=0 note=84 velocity=0 time=160
note_on channel=0 note=82 velocity=58 time=0
<meta message set_tempo tempo=306122 time=160>
note_on channel=0 note=82 velocity=0 time=0
note_on channel=0 note=58 velocity=0 time=0
note_on channel=0 note=51 velocity=0 time=0
note_on channel=0 note=80 velocity=60 time=0
note_on channel=0 note=53 velocity=56 time=0
note_on channel=0 note=80 velocity=0 time=160
note_on channel=0 note=79 velocity=58 time=0
note_on channel=0 note=79 velocity=0 time=160
note_on channel=0 note=77 velocity=58 time=0
<meta message set_tempo tempo=300000 time=140>
note_on channel=0 note=77 velocity=0 time=20
note_on channel=0 note=75 velocity=63 time=0
note_on channel=0 note=58 velocity=45 time=0
note_on channel=0 note=75 velocity=0 time=160
note_on channel=0 note=74 velocity=58 time=0
note_on channel=0 note=74 velocity=0 time=160
note_on channel=0 note=72 velocity=58 time=0
note_on channel=0 note=72 velocity=0 time=160
note_on channel=0 note=70 velocity=63 time=0
note_on channel=0 note=70 velocity=0 time=160
note_on channel=0 note=72 velocity=58 time=0
note_on channel=0 note=72 velocity=0 time=160
note_on channel=0 note=74 velocity=58 time=0
<meta message set_tempo tempo=305344 time=160>
note_on channel=0 note=74 velocity=0 time=0
note_on channel=0 note=58 velocity=0 time=0
note_on channel=0 note=53 velocity=0 time=0
note_on channel=0 note=75 velocity=63 time=0
note_on channel=0 note=55 velocity=56 time=0
note_on channel=0 note=75 velocity=0 time=160
note_on channel=0 note=74 velocity=59 time=0
note_on channel=0 note=74 velocity=0 time=160
note_on channel=0 note=75 velocity=59 time=0
<meta message set_tempo tempo=300000 time=160>
note_on channel=0 note=75 velocity=0 time=0
note_on channel=0 note=76 velocity=64 time=0
note_on channel=0 note=58 velocity=45 time=0
note_on channel=0 note=76 velocity=0 time=160
note_on channel=0 note=75 velocity=61 time=0
note_on channel=0 note=75 velocity=0 time=160
note_on channel=0 note=76 velocity=62 time=0
note_on channel=0 note=76 velocity=0 time=160
note_on channel=0 note=77 velocity=66 time=0
note_on channel=0 note=77 velocity=0 time=160
note_on channel=0 note=76 velocity=63 time=0
note_on channel=0 note=76 velocity=0 time=160
note_on channel=0 note=77 velocity=63 time=0
<meta message set_tempo tempo=307692 time=160>
note_on channel=0 note=77 velocity=0 time=0
note_on channel=0 note=58 velocity=0 time=0
note_on channel=0 note=55 velocity=0 time=0
note_on channel=0 note=78 velocity=70 time=0
note_on channel=0 note=50 velocity=70 time=0
note_on channel=0 note=78 velocity=0 time=160
note_on channel=0 note=77 velocity=65 time=0
note_on channel=0 note=77 velocity=0 time=160
note_on channel=0 note=78 velocity=65 time=0
<meta message set_tempo tempo=300000 time=160>
note_on channel=0 note=78 velocity=0 time=0
note_on channel=0 note=79 velocity=73 time=0
note_on channel=0 note=58 velocity=54 time=0
note_on channel=0 note=79 velocity=0 time=160
note_on channel=0 note=78 velocity=68 time=0
note_on channel=0 note=78 velocity=0 time=160
note_on channel=0 note=79 velocity=63 time=0
note_on channel=0 note=79 velocity=0 time=160
note_on channel=0 note=80 velocity=64 time=0
note_on channel=0 note=80 velocity=0 time=160
note_on channel=0 note=79 velocity=61 time=0
note_on channel=0 note=79 velocity=0 time=160
note_on channel=0 note=80 velocity=61 time=0
<meta message set_tempo tempo=305344 time=160>
note_on channel=0 note=80 velocity=0 time=0
note_on channel=0 note=58 velocity=0 time=0
note_on channel=0 note=50 velocity=0 time=0
note_on channel=0 note=79 velocity=63 time=0
note_on channel=0 note=51 velocity=54 time=0
note_on channel=0 note=79 velocity=0 time=160
note_on channel=0 note=82 velocity=59 time=0
note_on channel=0 note=82 velocity=0 time=160
note_on channel=0 note=80 velocity=60 time=0
<meta message set_tempo tempo=300000 time=160>
note_on channel=0 note=80 velocity=0 time=0
note_on channel=0 note=79 velocity=63 time=0
note_on channel=0 note=58 velocity=46 time=0
note_on channel=0 note=79 velocity=0 time=160
note_on channel=0 note=80 velocity=60 time=0
note_on channel=0 note=80 velocity=0 time=160
note_on channel=0 note=82 velocity=60 time=0
note_on channel=0 note=82 velocity=0 time=160
note_on channel=0 note=84 velocity=63 time=0
note_on channel=0 note=84 velocity=0 time=160
note_on channel=0 note=86 velocity=59 time=0
note_on channel=0 note=86 velocity=0 time=160
note_on channel=0 note=87 velocity=59 time=0
note_on channel=0 note=87 velocity=0 time=160
note_on channel=0 note=58 velocity=0 time=0
note_on channel=0 note=51 velocity=0 time=0
note_on channel=0 note=89 velocity=64 time=0
note_on channel=0 note=44 velocity=47 time=0
<meta message set_tempo tempo=334262 time=8>
note_on channel=0 note=89 velocity=0 time=152
note_on channel=0 note=96 velocity=59 time=0
note_on channel=0 note=96 velocity=0 time=160
note_on channel=0 note=94 velocity=59 time=0
note_on channel=0 note=94 velocity=0 time=160
note_on channel=0 note=44 velocity=0 time=0
note_on channel=0 note=92 velocity=62 time=0
note_on channel=0 note=60 velocity=41 time=0
note_on channel=0 note=56 velocity=36 time=0
<meta message set_tempo tempo=300000 time=8>
note_on channel=0 note=92 velocity=0 time=152
note_on channel=0 note=91 velocity=61 time=0
note_on channel=0 note=91 velocity=0 time=160
note_on channel=0 note=89 velocity=60 time=0
note_on channel=0 note=89 velocity=0 time=160
note_on channel=0 note=87 velocity=59 time=0
note_on channel=0 note=87 velocity=0 time=160
note_on channel=0 note=86 velocity=58 time=0
note_on channel=0 note=86 velocity=0 time=160
note_on channel=0 note=84 velocity=57 time=0
<meta message set_tempo tempo=306122 time=160>
note_on channel=0 note=84 velocity=0 time=0
note_on channel=0 note=56 velocity=0 time=0
note_on channel=0 note=60 velocity=0 time=0
note_on channel=0 note=82 velocity=56 time=0
note_on channel=0 note=46 velocity=47 time=0
note_on channel=0 note=82 velocity=0 time=160
note_on channel=0 note=89 velocity=55 time=0
note_on channel=0 note=89 velocity=0 time=160
note_on channel=0 note=87 velocity=54 time=0
<meta message set_tempo tempo=300000 time=160>
note_on channel=0 note=87 velocity=0 time=0
note_on channel=0 note=46 velocity=0 time=0
note_on channel=0 note=86 velocity=54 time=0
note_on channel=0 note=56 velocity=36 time=0
note_on channel=0 note=62 velocity=40 time=0
note_on channel=0 note=58 velocity=36 time=0
note_on channel=0 note=86 velocity=0 time=160
note_on channel=0 note=84 velocity=53 time=0
note_on channel=0 note=84 velocity=0 time=160
note_on channel=0 note=82 velocity=52 time=0
note_on channel=0 note=82 velocity=0 time=160
note_on channel=0 note=80 velocity=51 time=0
note_on channel=0 note=80 velocity=0 time=160
note_on channel=0 note=79 velocity=50 time=0
note_on channel=0 note=79 velocity=0 time=160
note_on channel=0 note=77 velocity=49 time=0
<meta message set_tempo tempo=306122 time=160>
note_on channel=0 note=77 velocity=0 time=0
note_on channel=0 note=58 velocity=0 time=0
note_on channel=0 note=62 velocity=0 time=0
note_on channel=0 note=56 velocity=0 time=0
note_on channel=0 note=75 velocity=48 time=0
note_on channel=0 note=51 velocity=40 time=0
note_on channel=0 note=75 velocity=0 time=160
note_on channel=0 note=79 velocity=47 time=0
note_on channel=0 note=79 velocity=0 time=160
note_on channel=0 note=77 velocity=46 time=0
<meta message set_tempo tempo=300000 time=160>
note_on channel=0 note=77 velocity=0 time=0
note_on channel=0 note=51 velocity=0 time=0
note_on channel=0 note=75 velocity=45 time=0
note_on channel=0 note=63 velocity=35 time=0
note_on channel=0 note=58 velocity=31 time=0
note_on channel=0 note=55 velocity=31 time=0
note_on channel=0 note=75 velocity=0 time=160
note_on channel=0 note=74 velocity=45 time=0
note_on channel=0 note=74 velocity=0 time=160
note_on channel=0 note=72 velocity=44 time=0
note_on channel=0 note=72 velocity=0 time=160
note_on channel=0 note=70 velocity=43 time=0
note_on channel=0 note=70 velocity=0 time=160
note_on channel=0 note=68 velocity=42 time=0
note_on channel=0 note=68 velocity=0 time=160
note_on channel=0 note=65 velocity=41 time=0
<meta message set_tempo tempo=306905 time=160>
note_on channel=0 note=65 velocity=0 time=0
note_on channel=0 note=55 velocity=0 time=0
note_on channel=0 note=58 velocity=0 time=0
note_on channel=0 note=63 velocity=0 time=0
note_on channel=0 note=66 velocity=40 time=0
note_on channel=0 note=39 velocity=44 time=0
note_on channel=0 note=66 velocity=0 time=160
note_on channel=0 note=70 velocity=41 time=0
note_on channel=0 note=70 velocity=0 time=160
note_on channel=0 note=68 velocity=41 time=0
<meta message set_tempo tempo=300000 time=160>
note_on channel=0 note=68 velocity=0 time=0
note_on channel=0 note=66 velocity=41 time=0
note_on channel=0 note=51 velocity=32 time=0
note_on channel=0 note=66 velocity=0 time=160
note_on channel=0 note=65 velocity=41 time=0
note_on channel=0 note=65 velocity=0 time=160
note_on channel=0 note=63 velocity=41 time=0
note_on channel=0 note=63 velocity=0 time=160
note_on channel=0 note=61 velocity=41 time=0
note_on channel=0 note=61 velocity=0 time=160
note_on channel=0 note=59 velocity=41 time=0
note_on channel=0 note=59 velocity=0 time=160
note_on channel=0 note=58 velocity=41 time=0
<meta message set_tempo tempo=338983 time=160>
note_on channel=0 note=58 velocity=0 time=0
note_on channel=0 note=51 velocity=0 time=0
note_on channel=0 note=39 velocity=0 time=0
note_on channel=0 note=59 velocity=41 time=0
note_on channel=0 note=44 velocity=42 time=0
control_change channel=0 control=64 value=127 time=51
note_on channel=0 note=59 velocity=0 time=109
note_on channel=0 note=63 velocity=41 time=0
note_on channel=0 note=63 velocity=0 time=160
note_on channel=0 note=68 velocity=41 time=0
<meta message set_tempo tempo=320000 time=160>
note_on channel=0 note=68 velocity=0 time=0
note_on channel=0 note=71 velocity=44 time=0
note_on channel=0 note=56 velocity=32 time=0
control_change channel=0 control=64 value=0 time=109
note_on channel=0 note=63 velocity=41 time=51
control_change channel=0 control=64 value=127 time=57
note_on channel=0 note=63 velocity=0 time=103
note_on channel=0 note=68 velocity=41 time=0
note_on channel=0 note=68 velocity=0 time=160
note_on channel=0 note=66 velocity=41 time=0
note_on channel=0 note=66 velocity=0 time=160
note_on channel=0 note=63 velocity=41 time=0
note_on channel=0 note=63 velocity=0 time=160
note_on channel=0 note=66 velocity=41 time=0
<meta message set_tempo tempo=300000 time=160>
note_on channel=0 note=66 velocity=0 time=0
note_on channel=0 note=44 velocity=0 time=0
note_on channel=0 note=71 velocity=0 time=0
note_on channel=0 note=56 velocity=0 time=0
note_on channel=0 note=65 velocity=41 time=0
note_on channel=0 note=37 velocity=44 time=0
control_change channel=0 control=64 value=0 time=17
note_on channel=0 note=65 velocity=0 time=143
note_on channel=0 note=71 velocity=41 time=0
note_on channel=0 note=71 velocity=0 time=160
note_on channel=0 note=70 velocity=41 time=0
note_on channel=0 note=70 velocity=0 time=160
note_on channel=0 note=68 velocity=41 time=0
note_on channel=0 note=49 velocity=32 time=0
note_on channel=0 note=68 velocity=0 time=160
note_on channel=0 note=66 velocity=41 time=0
note_on channel=0 note=66 velocity=0 time=160
note_on channel=0 note=65 velocity=41 time=0
note_on channel=0 note=65 velocity=0 time=160
note_on channel=0 note=63 velocity=41 time=0
note_on channel=0 note=63 velocity=0 time=160
note_on channel=0 note=61 velocity=41 time=0
note_on channel=0 note=61 velocity=0 time=160
note_on channel=0 note=59 velocity=41 time=0
<meta message set_tempo tempo=333333 time=160>
note_on channel=0 note=59 velocity=0 time=0
note_on channel=0 note=49 velocity=0 time=0
note_on channel=0 note=37 velocity=0 time=0
note_on channel=0 note=58 velocity=41 time=0
note_on channel=0 note=42 velocity=43 time=0
control_change channel=0 control=64 value=127 time=63
note_on channel=0 note=58 velocity=0 time=97
note_on channel=0 note=61 velocity=41 time=0
note_on channel=0 note=61 velocity=0 time=160
note_on channel=0 note=66 velocity=41 time=0
<meta message set_tempo tempo=316623 time=148>
note_on channel=0 note=66 velocity=0 time=12
note_on channel=0 note=70 velocity=44 time=0
note_on channel=0 note=54 velocity=32 time=0
control_change channel=0 control=64 value=0 time=20
control_change channel=0 control=64 value=127 time=93
note_on channel=0 note=61 velocity=41 time=47
note_on channel=0 note=61 velocity=0 time=160
note_on channel=0 note=66 velocity=41 time=0
note_on channel=0 note=66 velocity=0 time=160
note_on channel=0 note=65 velocity=41 time=0
note_on channel=0 note=65 velocity=0 time=160
note_on channel=0 note=61 velocity=41 time=0
note_on channel=0 note=61 velocity=0 time=160
note_on channel=0 note=65 velocity=41 time=0
<meta message set_tempo tempo=300000 time=148>
<meta message set_tempo tempo=300000 time=12>
note_on channel=0 note=65 velocity=0 time=0
note_on channel=0 note=42 velocity=0 time=0
note_on channel=0 note=70 velocity=0 time=0
note_on channel=0 note=54 velocity=0 time=0
note_on channel=0 note=63 velocity=40 time=0
note_on channel=0 note=35 velocity=44 time=0
control_change channel=0 control=64 value=0 time=40
note_on channel=0 note=63 velocity=0 time=120
note_on channel=0 note=70 velocity=41 time=0
note_on channel=0 note=70 velocity=0 time=160
note_on channel=0 note=68 velocity=41 time=0
note_on channel=0 note=68 velocity=0 time=160
note_on channel=0 note=66 velocity=41 time=0
note_on channel=0 note=47 velocity=32 time=0
note_on channel=0 note=66 velocity=0 time=160
note_on channel=0 note=65 velocity=41 time=0
note_on channel=0 note=65 velocity=0 time=160
note_on channel=0 note=63 velocity=41 time=0
note_on channel=0 note=63 velocity=0 time=160
note_on channel=0 note=61 velocity=41 time=0
note_on channel=0 note=61 velocity=0 time=160
note_on channel=0 note=59 velocity=41 time=0
note_on channel=0 note=59 velocity=0 time=160
note_on channel=0 note=58 velocity=41 time=0
<meta message set_tempo tempo=343840 time=160>
note_on channel=0 note=58 velocity=0 time=0
note_on channel=0 note=47 velocity=0 time=0
note_on channel=0 note=35 velocity=0 time=0
note_on channel=0 note=56 velocity=41 time=0
note_on channel=0 note=41 velocity=42 time=0
control_change channel=0 control=64 value=127 time=80
note_on channel=0 note=56 velocity=0 time=80
note_on channel=0 note=59 velocity=41 time=0
note_on channel=0 note=59 velocity=0 time=160
note_on channel=0 note=65 velocity=41 time=0
<meta message set_tempo tempo=324324 time=160>
note_on channel=0 note=65 velocity=0 time=0
note_on channel=0 note=68 velocity=44 time=0
note_on channel=0 note=53 velocity=32 time=0
control_change channel=0 control=64 value=0 time=20
note_on channel=0 note=59 velocity=38 time=140
control_change channel=0 control=64 value=127 time=0
note_on channel=0 note=59 velocity=0 time=160
note_on channel=0 note=65 velocity=38 time=0
note_on channel=0 note=65 velocity=0 time=160
note_on channel=0 note=63 velocity=41 time=0
note_on channel=0 note=63 velocity=0 time=160
note_on channel=0 note=59 velocity=38 time=0
note_on channel=0 note=59 velocity=0 time=160
note_on channel=0 note=63 velocity=38 time=0
<meta message set_tempo tempo=300000 time=160>
note_on channel=0 note=63 velocity=0 time=0
note_on channel=0 note=41 velocity=0 time=0
note_on channel=0 note=68 velocity=0 time=0
note_on channel=0 note=53 velocity=0 time=0
note_on channel=0 note=62 velocity=41 time=0
note_on channel=0 note=34 velocity=44 time=0
control_change channel=0 control=64 value=0 time=51
note_on channel=0 note=62 velocity=0 time=109
note_on channel=0 note=68 velocity=41 time=0
note_on channel=0 note=68 velocity=0 time=160
note_on channel=0 note=66 velocity=41 time=0
note_on channel=0 note=66 velocity=0 time=160
note_on channel=0 note=65 velocity=41 time=0
note_on channel=0 note=46 velocity=32 time=0
note_on channel=0 note=65 velocity=0 time=160
note_on channel=0 note=63 velocity=37 time=0
note_on channel=0 note=63 velocity=0 time=160
note_on channel=0 note=62 velocity=37 time=0
note_on channel=0 note=62 velocity=0 time=160
note_on channel=0 note=59 velocity=41 time=0
note_on channel=0 note=59 velocity=0 time=160
note_on channel=0 note=58 velocity=37 time=0
note_on channel=0 note=58 velocity=0 time=160
note_on channel=0 note=56 velocity=37 time=0
<meta message set_tempo tempo=333333 time=160>
note_on channel=0 note=56 velocity=0 time=0
note_on channel=0 note=46 velocity=0 time=0
note_on channel=0 note=34 velocity=0 time=0
note_on channel=0 note=54 velocity=41 time=0
note_on channel=0 note=39 velocity=43 time=0
control_change channel=0 control=64 value=127 time=97
note_on channel=0 note=54 velocity=0 time=63
note_on channel=0 note=58 velocity=41 time=0
note_on channel=0 note=58 velocity=0 time=160
note_on channel=0 note=63 velocity=41 time=0
<meta message set_tempo tempo=316623 time=148>
note_on channel=0 note=63 velocity=0 time=12
note_on channel=0 note=66 velocity=44 time=0
note_on channel=0 note=51 velocity=32 time=0
control_change channel=0 control=64 value=0 time=12
control_change channel=0 control=64 value=127 time=73
note_on channel=0 note=58 velocity=41 time=75
note_on channel=0 note=58 velocity=0 time=160
note_on channel=0 note=63 velocity=41 time=0
note_on channel=0 note=63 velocity=0 time=160
note_on channel=0 note=61 velocity=44 time=0
note_on channel=0 note=61 velocity=0 time=160
note_on channel=0 note=58 velocity=41 time=0
note_on channel=0 note=58 velocity=0 time=160
note_on channel=0 note=61 velocity=41 time=0
<meta message set_tempo tempo=300000 time=148>
<meta message set_tempo tempo=333333 time=12>
note_on channel=0 note=61 velocity=0 time=0
note_on channel=0 note=39 velocity=0 time=0
note_on channel=0 note=66 velocity=0 time=0
note_on channel=0 note=51 velocity=0 time=0
note_on channel=0 note=59 velocity=41 time=0
note_on channel=0 note=44 velocity=43 time=0
control_change channel=0 control=64 value=0 time=23
note_on channel=0 note=59 velocity=0 time=137
note_on channel=0 note=63 velocity=41 time=0
control_change channel=0 control=64 value=127 time=11
note_on channel=0 note=63 velocity=0 time=149
note_on channel=0 note=68 velocity=41 time=0
<meta message set_tempo tempo=316623 time=148>
note_on channel=0 note=68 velocity=0 time=12
note_on channel=0 note=71 velocity=44 time=0
note_on channel=0 note=56 velocity=32 time=0
control_change channel=0 control=64 value=0 time=12
control_change channel=0 control=64 value=127 time=142
note_on channel=0 note=63 velocity=41 time=6
note_on channel=0 note=63 velocity=0 time=160
note_on channel=0 note=68 velocity=41 time=0
note_on channel=0 note=68 velocity=0 time=160
note_on channel=0 note=66 velocity=44 time=0
note_on channel=0 note=66 velocity=0 time=160
note_on channel=0 note=63 velocity=41 time=0
note_on channel=0 note=63 velocity=0 time=160
note_on channel=0 note=66 velocity=41 time=0
note_on channel=0 note=66 velocity=0 time=160
note_on channel=0 note=44 velocity=0 time=0
note_on channel=0 note=71 velocity=0 time=0
note_on channel=0 note=56 velocity=0 time=0
note_on channel=0 note=71 velocity=48 time=0
note_on channel=0 note=46 velocity=41 time=0
control_change channel=0 control=64 value=0 time=4
<meta message set_tempo tempo=352941 time=4>
control_change channel=0 control=64 value=127 time=126
note_on channel=0 note=65 velocity=41 time=26
note_on channel=0 note=65 velocity=0 time=160
note_on channel=0 note=62 velocity=41 time=0
note_on channel=0 note=62 velocity=0 time=160
note_on channel=0 note=71 velocity=0 time=0
note_on channel=0 note=70 velocity=47 time=0
note_on channel=0 note=58 velocity=41 time=0
control_change channel=0 control=64 value=0 time=12
control_change channel=0 control=64 value=127 time=129
note_on channel=0 note=65 velocity=41 time=19
note_on channel=0 note=65 velocity=0 time=160
note_on channel=0 note=62 velocity=41 time=0
note_on channel=0 note=62 velocity=0 time=160
note_on channel=0 note=70 velocity=0 time=0
note_on channel=0 note=74 velocity=47 time=0
control_change channel=0 control=64 value=0 time=12
note_on channel=0 note=68 velocity=41 time=148
control_change channel=0 control=64 value=127 time=23
note_on channel=0 note=68 velocity=0 time=137
note_on channel=0 note=65 velocity=41 time=0
<meta message set_tempo tempo=309278 time=160>
note_on channel=0 note=65 velocity=0 time=0
note_on channel=0 note=74 velocity=0 time=0
note_on channel=0 note=46 velocity=0 time=0
note_on channel=0 note=75 velocity=47 time=0
note_on channel=0 note=51 velocity=40 time=0
control_change channel=0 control=64 value=0 time=85
note_on channel=0 note=75 velocity=0 time=75
note_on channel=0 note=78 velocity=39 time=0
note_on channel=0 note=78 velocity=0 time=160
note_on channel=0 note=77 velocity=39 time=0
<meta message set_tempo tempo=300000 time=160>
note_on channel=0 note=77 velocity=0 time=0
note_on channel=0 note=75 velocity=39 time=0
note_on channel=0 note=75 velocity=0 time=160
note_on channel=0 note=73 velocity=39 time=0
note_on channel=0 note=73 velocity=0 time=160
note_on channel=0 note=71 velocity=39 time=0
note_on channel=0 note=71 velocity=0 time=160
note_on channel=0 note=70 velocity=39 time=0
note_on channel=0 note=70 velocity=0 time=160
note_on channel=0 note=68 velocity=39 time=0
note_on channel=0 note=68 velocity=0 time=160
note_on channel=0 note=65 velocity=39 time=0
note_on channel=0 note=65 velocity=0 time=160
note_on channel=0 note=51 velocity=0 time=0
note_on channel=0 note=58 velocity=0 time=0
note_on channel=0 note=66 velocity=39 time=0
note_on channel=0 note=42 velocity=41 time=0
note_on channel=0 note=66 velocity=0 time=160
note_on channel=0 note=70 velocity=39 time=0
note_on channel=0 note=70 velocity=0 time=160
note_on channel=0 note=68 velocity=39 time=0
note_on channel=0 note=68 velocity=0 time=160
note_on channel=0 note=66 velocity=39 time=0
note_on channel=0 note=49 velocity=33 time=0
note_on channel=0 note=66 velocity=0 time=160
note_on channel=0 note=65 velocity=39 time=0
note_on channel=0 note=65 velocity=0 time=160
note_on channel=0 note=63 velocity=39 time=0
note_on channel=0 note=63 velocity=0 time=160
note_on channel=0 note=61 velocity=39 time=0
note_on channel=0 note=61 velocity=0 time=160
note_on channel=0 note=59 velocity=39 time=0
note_on channel=0 note=59 velocity=0 time=160
note_on channel=0 note=58 velocity=40 time=0
<meta message set_tempo tempo=333333 time=160>
note_on channel=0 note=58 velocity=0 time=0
note_on channel=0 note=49 velocity=0 time=0
note_on channel=0 note=42 velocity=0 time=0
note_on channel=0 note=59 velocity=40 time=0
note_on channel=0 note=44 velocity=39 time=0
control_change channel=0 control=64 value=127 time=62
note_on channel=0 note=59 velocity=0 time=98
note_on channel=0 note=62 velocity=40 time=0
note_on channel=0 note=62 velocity=0 time=160
note_on channel=0 note=65 velocity=40 time=0
note_on channel=0 note=65 velocity=0 time=160
note_on channel=0 note=71 velocity=44 time=0
note_on channel=0 note=50 velocity=53 time=0
<meta message set_tempo tempo=353982 time=8>
control_change channel=0 control=64 value=0 time=1
control_change channel=0 control=64 value=127 time=115
note_on channel=0 note=65 velocity=38 time=36
note_on channel=0 note=65 velocity=0 time=160
note_on channel=0 note=62 velocity=38 time=0
note_on channel=0 note=62 velocity=0 time=160
note_on channel=0 note=50 velocity=0 time=0
note_on channel=0 note=65 velocity=40 time=0
note_on channel=0 note=49 velocity=33 time=0
<meta message set_tempo tempo=316623 time=8>
note_on channel=0 note=65 velocity=0 time=152
note_on channel=0 note=61 velocity=38 time=0
note_on channel=0 note=61 velocity=0 time=160
note_on channel=0 note=59 velocity=38 time=0
note_on channel=0 note=59 velocity=0 time=160
note_on channel=0 note=44 velocity=0 time=0
note_on channel=0 note=71 velocity=0 time=0
note_on channel=0 note=49 velocity=0 time=0
note_on channel=0 note=58 velocity=40 time=0
note_on channel=0 note=42 velocity=39 time=0
<meta message set_tempo tempo=300000 time=8>
control_change channel=0 control=64 value=0 time=9
note_on channel=0 note=58 velocity=0 time=143
note_on channel=0 note=70 velocity=40 time=0
note_on channel=0 note=70 velocity=0 time=160
note_on channel=0 note=68 velocity=40 time=0
note_on channel=0 note=68 velocity=0 time=160
note_on channel=0 note=66 velocity=40 time=0
note_on channel=0 note=49 velocity=33 time=0
note_on channel=0 note=66 velocity=0 time=160
note_on channel=0 note=65 velocity=36 time=0
note_on channel=0 note=65 velocity=0 time=160
note_on channel=0 note=63 velocity=36 time=0
note_on channel=0 note=63 velocity=0 time=160
note_on channel=0 note=61 velocity=40 time=0
note_on channel=0 note=61 velocity=0 time=160
note_on channel=0 note=59 velocity=37 time=0
note_on channel=0 note=59 velocity=0 time=160
note_on channel=0 note=58 velocity=37 time=0
<meta message set_tempo tempo=333333 time=160>
note_on channel=0 note=58 velocity=0 time=0
note_on channel=0 note=49 velocity=0 time=0
note_on channel=0 note=42 velocity=0 time=0
note_on channel=0 note=59 velocity=39 time=0
note_on channel=0 note=44 velocity=40 time=0
control_change channel=0 control=64 value=127 time=72
note_on channel=0 note=59 velocity=0 time=88
note_on channel=0 note=62 velocity=39 time=0
note_on channel=0 note=62 velocity=0 time=160
note_on channel=0 note=65 velocity=39 time=0
note_on channel=0 note=65 velocity=0 time=160
note_on channel=0 note=71 velocity=45 time=0
note_on channel=0 note=50 velocity=55 time=0
<meta message set_tempo tempo=353982 time=8>
control_change channel=0 control=64 value=0 time=6
control_change channel=0 control=64 value=127 time=124
note_on channel=0 note=65 velocity=36 time=22
note_on channel=0 note=65 velocity=0 time=160
note_on channel=0 note=62 velocity=36 time=0
<meta message set_tempo tempo=315789 time=160>
note_on channel=0 note=62 velocity=0 time=0
note_on channel=0 note=50 velocity=0 time=0
note_on channel=0 note=65 velocity=40 time=0
note_on channel=0 note=49 velocity=33 time=0
note_on channel=0 note=65 velocity=0 time=160
note_on channel=0 note=61 velocity=38 time=0
note_on channel=0 note=61 velocity=0 time=160
note_on channel=0 note=59 velocity=38 time=0
<meta message set_tempo tempo=333333 time=160>
note_on channel=0 note=59 velocity=0 time=0
note_on channel=0 note=44 velocity=0 time=0
note_on channel=0 note=71 velocity=0 time=0
note_on channel=0 note=49 velocity=0 time=0
note_on channel=0 note=61 velocity=40 time=0
note_on channel=0 note=46 velocity=39 time=0
control_change channel=0 control=64 value=0 time=5
control_change channel=0 control=64 value=127 time=115
note_on channel=0 note=61 velocity=0 time=40
note_on channel=0 note=66 velocity=40 time=0
note_on channel=0 note=66 velocity=0 time=160
note_on channel=0 note=70 velocity=40 time=0
<meta message set_tempo tempo=315789 time=148>
note_on channel=0 note=70 velocity=0 time=12
note_on channel=0 note=73 velocity=45 time=0
note_on channel=0 note=54 velocity=43 time=0
control_change channel=0 control=64 value=0 time=12
control_change channel=0 control=64 value=127 time=68
note_on channel=0 note=70 velocity=37 time=80
note_on channel=0 note=70 velocity=0 time=160
note_on channel=0 note=66 velocity=37 time=0
note_on channel=0 note=66 velocity=0 time=160
note_on channel=0 note=65 velocity=40 time=0
note_on channel=0 note=65 velocity=0 time=160
note_on channel=0 note=66 velocity=38 time=0
note_on channel=0 note=66 velocity=0 time=160
note_on channel=0 note=64 velocity=38 time=0
<meta message set_tempo tempo=334262 time=160>
note_on channel=0 note=64 velocity=0 time=0
note_on channel=0 note=46 velocity=0 time=0
note_on channel=0 note=73 velocity=0 time=0
note_on channel=0 note=63 velocity=39 time=0
note_on channel=0 note=47 velocity=40 time=0
control_change channel=0 control=64 value=0 time=4
control_change channel=0 control=64 value=127 time=93
note_on channel=0 note=63 velocity=0 time=63
note_on channel=0 note=68 velocity=39 time=0
note_on channel=0 note=68 velocity=0 time=160
note_on channel=0 note=71 velocity=39 time=0
note_on channel=0 note=71 velocity=0 time=160
note_on channel=0 note=54 velocity=0 time=0
note_on channel=0 note=75 velocity=46 time=0
note_on channel=0 note=56 velocity=43 time=0
<meta message set_tempo tempo=315789 time=8>
control_change channel=0 control=64 value=0 time=9
control_change channel=0 control=64 value=127 time=103
note_on channel=0 note=71 velocity=37 time=40
note_on channel=0 note=71 velocity=0 time=160
note_on channel=0 note=68 velocity=37 time=0
note_on channel=0 note=68 velocity=0 time=160
note_on channel=0 note=67 velocity=40 time=0
note_on channel=0 note=67 velocity=0 time=160
note_on channel=0 note=68 velocity=37 time=0
note_on channel=0 note=68 velocity=0 time=160
note_on channel=0 note=66 velocity=37 time=0
<meta message set_tempo tempo=333333 time=160>
note_on channel=0 note=66 velocity=0 time=0
note_on channel=0 note=47 velocity=0 time=0
note_on channel=0 note=75 velocity=0 time=0
note_on channel=0 note=65 velocity=40 time=0
note_on channel=0 note=49 velocity=43 time=0
control_change channel=0 control=64 value=0 time=80
note_on channel=0 note=65 velocity=0 time=80
note_on channel=0 note=66 velocity=40 time=0
note_on channel=0 note=66 velocity=0 time=160
note_on channel=0 note=67 velocity=40 time=0
<meta message set_tempo tempo=300000 time=160>
note_on channel=0 note=67 velocity=0 time=0
note_on channel=0 note=56 velocity=0 time=0
note_on channel=0 note=68 velocity=40 time=0
note_on channel=0 note=59 velocity=37 time=0
note_on channel=0 note=68 velocity=0 time=160
note_on channel=0 note=70 velocity=40 time=0
note_on channel=0 note=70 velocity=0 time=160
note_on channel=0 note=71 velocity=40 time=0
note_on channel=0 note=71 velocity=0 time=160
note_on channel=0 note=73 velocity=40 time=0
note_on channel=0 note=73 velocity=0 time=160
note_on channel=0 note=75 velocity=40 time=0
note_on channel=0 note=75 velocity=0 time=160
note_on channel=0 note=77 velocity=40 time=0
<meta message set_tempo tempo=321716 time=160>
note_on channel=0 note=77 velocity=0 time=0
note_on channel=0 note=59 velocity=0 time=0
note_on channel=0 note=49 velocity=0 time=0
note_on channel=0 note=78 velocity=39 time=0
note_on channel=0 note=58 velocity=43 time=0
note_on channel=0 note=54 velocity=38 time=0
note_on channel=0 note=78 velocity=0 time=160
note_on channel=0 note=82 velocity=39 time=0
note_on channel=0 note=82 velocity=0 time=160
note_on channel=0 note=80 velocity=40 time=0
<meta message set_tempo tempo=300000 time=160>
note_on channel=0 note=80 velocity=0 time=0
note_on channel=0 note=78 velocity=40 time=0
note_on channel=0 note=78 velocity=0 time=160
note_on channel=0 note=77 velocity=40 time=0
note_on channel=0 note=77 velocity=0 time=160
note_on channel=0 note=75 velocity=40 time=0
note_on channel=0 note=75 velocity=0 time=160
note_on channel=0 note=54 velocity=0 time=0
note_on channel=0 note=58 velocity=0 time=0
note_on channel=0 note=73 velocity=40 time=0
note_on channel=0 note=73 velocity=0 time=160
note_on channel=0 note=71 velocity=40 time=0
note_on channel=0 note=71 velocity=0 time=160
note_on channel=0 note=70 velocity=40 time=0
note_on channel=0 note=70 velocity=0 time=160
note_on channel=0 note=68 velocity=40 time=0
note_on channel=0 note=46 velocity=43 time=0
<meta message set_tempo tempo=334262 time=8>
note_on channel=0 note=68 velocity=0 time=152
note_on channel=0 note=71 velocity=40 time=0
note_on channel=0 note=71 velocity=0 time=160
note_on channel=0 note=70 velocity=40 time=0
<meta message set_tempo tempo=300000 time=160>
note_on channel=0 note=70 velocity=0 time=0
note_on channel=0 note=68 velocity=38 time=0
note_on channel=0 note=59 velocity=33 time=0
note_on channel=0 note=56 velocity=29 time=0
note_on channel=0 note=53 velocity=29 time=0
note_on channel=0 note=68 velocity=0 time=160
note_on channel=0 note=66 velocity=37 time=0
note_on channel=0 note=66 velocity=0 time=160
note_on channel=0 note=65 velocity=35 time=0
note_on channel=0 note=65 velocity=0 time=160
note_on channel=0 note=63 velocity=40 time=0
note_on channel=0 note=63 velocity=0 time=160
note_on channel=0 note=62 velocity=33 time=0
note_on channel=0 note=62 velocity=0 time=160
note_on channel=0 note=65 velocity=33 time=0
note_on channel=0 note=65 velocity=0 time=160
note_on channel=0 note=53 velocity=0 time=0
note_on channel=0 note=46 velocity=0 time=0
note_on channel=0 note=59 velocity=0 time=0
note_on channel=0 note=56 velocity=0 time=0
note_on channel=0 note=68 velocity=33 time=0
note_on channel=0 note=46 velocity=43 time=0
<meta message set_tempo tempo=334262 time=8>
note_on channel=0 note=68 velocity=0 time=152
note_on channel=0 note=71 velocity=33 time=0
note_on channel=0 note=71 velocity=0 time=160
note_on channel=0 note=70 velocity=33 time=0
<meta message set_tempo tempo=300000 time=148>
note_on channel=0 note=70 velocity=0 time=12
note_on channel=0 note=68 velocity=33 time=0
note_on channel=0 note=59 velocity=32 time=0
note_on channel=0 note=56 velocity=28 time=0
note_on channel=0 note=53 velocity=28 time=0
note_on channel=0 note=68 velocity=0 time=160
note_on channel=0 note=66 velocity=33 time=0
note_on channel=0 note=66 velocity=0 time=160
note_on channel=0 note=65 velocity=33 time=0
note_on channel=0 note=65 velocity=0 time=160
note_on channel=0 note=63 velocity=40 time=0
note_on channel=0 note=63 velocity=0 time=160
note_on channel=0 note=62 velocity=33 time=0
note_on channel=0 note=62 velocity=0 time=160
note_on channel=0 note=65 velocity=33 time=0
note_on channel=0 note=65 velocity=0 time=160
note_on channel=0 note=53 velocity=0 time=0
note_on channel=0 note=46 velocity=0 time=0
note_on channel=0 note=59 velocity=0 time=0
note_on channel=0 note=56 velocity=0 time=0
note_on channel=0 note=68 velocity=32 time=0
note_on channel=0 note=46 velocity=43 time=0
<meta message set_tempo tempo=351906 time=8>
note_on channel=0 note=68 velocity=0 time=152
note_on channel=0 note=71 velocity=32 time=0
note_on channel=0 note=71 velocity=0 time=160
note_on channel=0 note=70 velocity=32 time=0
<meta message set_tempo tempo=300000 time=160>
note_on channel=0 note=70 velocity=0 time=0
note_on channel=0 note=68 velocity=32 time=0
note_on channel=0 note=53 velocity=28 time=0
note_on channel=0 note=56 velocity=28 time=0
note_on channel=0 note=59 velocity=32 time=0
note_on channel=0 note=68 velocity=0 time=160
note_on channel=0 note=66 velocity=32 time=0
note_on channel=0 note=66 velocity=0 time=160
note_on channel=0 note=65 velocity=32 time=0
note_on channel=0 note=65 velocity=0 time=160
note_on channel=0 note=63 velocity=39 time=0
note_on channel=0 note=63 velocity=0 time=160
note_on channel=0 note=62 velocity=32 time=0
note_on channel=0 note=62 velocity=0 time=160
note_on channel=0 note=65 velocity=32 time=0
note_on channel=0 note=65 velocity=0 time=160
note_on channel=0 note=68 velocity=32 time=0
note_on channel=0 note=68 velocity=0 time=160
note_on channel=0 note=71 velocity=34 time=0
note_on channel=0 note=71 velocity=0 time=160
note_on channel=0 note=74 velocity=36 time=0
note_on channel=0 note=74 velocity=0 time=160
note_on channel=0 note=71 velocity=39 time=0
note_on channel=0 note=71 velocity=0 time=160
note_on channel=0 note=74 velocity=40 time=0
note_on channel=0 note=74 velocity=0 time=160
note_on channel=0 note=77 velocity=41 time=0
note_on channel=0 note=77 velocity=0 time=160
note_on channel=0 note=74 velocity=43 time=0
note_on channel=0 note=74 velocity=0 time=160
note_on channel=0 note=77 velocity=45 time=0
note_on channel=0 note=77 velocity=0 time=160
note_on channel=0 note=78 velocity=46 time=0
note_on channel=0 note=78 velocity=0 time=160
note_on channel=0 note=56 velocity=0 time=0
note_on channel=0 note=46 velocity=0 time=0
note_on channel=0 note=53 velocity=0 time=0
note_on channel=0 note=59 velocity=0 time=0
note_on channel=0 note=80 velocity=46 time=0
note_on channel=0 note=58 velocity=43 time=0
<meta message set_tempo tempo=332410 time=8>
note_on channel=0 note=80 velocity=0 time=152
note_on channel=0 note=83 velocity=48 time=0
note_on channel=0 note=83 velocity=0 time=160
note_on channel=0 note=82 velocity=45 time=0
<meta message set_tempo tempo=300000 time=148>
note_on channel=0 note=82 velocity=0 time=12
note_on channel=0 note=80 velocity=48 time=0
note_on channel=0 note=71 velocity=32 time=0
note_on channel=0 note=68 velocity=28 time=0
note_on channel=0 note=65 velocity=28 time=0
note_on channel=0 note=80 velocity=0 time=160
note_on channel=0 note=78 velocity=46 time=0
note_on channel=0 note=78 velocity=0 time=160
note_on channel=0 note=77 velocity=46 time=0
note_on channel=0 note=77 velocity=0 time=160
note_on channel=0 note=75 velocity=53 time=0
note_on channel=0 note=75 velocity=0 time=160
note_on channel=0 note=74 velocity=47 time=0
note_on channel=0 note=74 velocity=0 time=160
note_on channel=0 note=77 velocity=47 time=0
<meta message set_tempo tempo=333333 time=148>
note_on channel=0 note=77 velocity=0 time=12
note_on channel=0 note=65 velocity=0 time=0
note_on channel=0 note=58 velocity=0 time=0
note_on channel=0 note=71 velocity=0 time=0
note_on channel=0 note=68 velocity=0 time=0
note_on channel=0 note=80 velocity=47 time=0
note_on channel=0 note=58 velocity=43 time=0
note_on channel=0 note=80 velocity=0 time=160
note_on channel=0 note=83 velocity=44 time=0
note_on channel=0 note=83 velocity=0 time=160
note_on channel=0 note=82 velocity=44 time=0
<meta message set_tempo tempo=300000 time=160>
note_on channel=0 note=82 velocity=0 time=0
note_on channel=0 note=80 velocity=47 time=0
note_on channel=0 note=71 velocity=32 time=0
note_on channel=0 note=68 velocity=28 time=0
note_on channel=0 note=65 velocity=28 time=0
note_on channel=0 note=80 velocity=0 time=160
note_on channel=0 note=78 velocity=44 time=0
note_on channel=0 note=78 velocity=0 time=160
note_on channel=0 note=77 velocity=44 time=0
note_on channel=0 note=77 velocity=0 time=160
note_on channel=0 note=75 velocity=52 time=0
note_on channel=0 note=75 velocity=0 time=160
note_on channel=0 note=74 velocity=48 time=0
note_on channel=0 note=74 velocity=0 time=160
note_on channel=0 note=77 velocity=48 time=0
<meta message set_tempo tempo=291262 time=160>
note_on channel=0 note=77 velocity=0 time=0
note_on channel=0 note=80 velocity=48 time=0
control_change channel=0 control=64 value=127 time=80
note_on channel=0 note=80 velocity=0 time=80
note_on channel=0 note=83 velocity=48 time=0
note_on channel=0 note=83 velocity=0 time=160
note_on channel=0 note=80 velocity=51 time=0
note_on channel=0 note=80 velocity=0 time=160
note_on channel=0 note=83 velocity=53 time=0
note_on channel=0 note=83 velocity=0 time=160
note_on channel=0 note=80 velocity=54 time=0
note_on channel=0 note=80 velocity=0 time=160
note_on channel=0 note=83 velocity=56 time=0
note_on channel=0 note=83 velocity=0 time=160
note_on channel=0 note=80 velocity=57 time=0
note_on channel=0 note=80 velocity=0 time=160
note_on channel=0 note=83 velocity=60 time=0
note_on channel=0 note=83 velocity=0 time=160
note_on channel=0 note=80 velocity=61 time=0
<meta message set_tempo tempo=291262 time=120>
<meta message set_tempo tempo=291971 time=20>
<meta message set_tempo tempo=293399 time=20>
note_on channel=0 note=80 velocity=0 time=0
note_on channel=0 note=71 velocity=0 time=0
note_on channel=0 note=82 velocity=62 time=0
note_on channel=0 note=70 velocity=43 time=0
<meta message set_tempo tempo=294840 time=20>
<meta message set_tempo tempo=296296 time=20>
<meta message set_tempo tempo=297767 time=20>
<meta message set_tempo tempo=299252 time=20>
control_change channel=0 control=64 value=0 time=12
<meta message set_tempo tempo=300752 time=8>
<meta message set_tempo tempo=302267 time=20>
<meta message set_tempo tempo=303797 time=20>
<meta message set_tempo tempo=305344 time=20>
note_on channel=0 note=82 velocity=0 time=0
note_on channel=0 note=80 velocity=58 time=0
<meta message set_tempo tempo=306122 time=20>
<meta message set_tempo tempo=307692 time=20>
control_change channel=0 control=64 value=127 time=4
<meta message set_tempo tempo=309278 time=16>
<meta message set_tempo tempo=310881 time=20>
<meta message set_tempo tempo=312500 time=20>
<meta message set_tempo tempo=314136 time=20>
<meta message set_tempo tempo=315789 time=20>
<meta message set_tempo tempo=317460 time=20>
note_on channel=0 note=80 velocity=0 time=0
note_on channel=0 note=82 velocity=54 time=0
<meta message set_tempo tempo=319149 time=20>
<meta message set_tempo tempo=320856 time=20>
<meta message set_tempo tempo=321716 time=20>
<meta message set_tempo tempo=323450 time=20>
<meta message set_tempo tempo=325203 time=20>
<meta message set_tempo tempo=326975 time=20>
<meta message set_tempo tempo=328767 time=20>
<meta message set_tempo tempo=330579 time=20>
note_on channel=0 note=82 velocity=0 time=0
note_on channel=0 note=80 velocity=50 time=0
<meta message set_tempo tempo=332410 time=20>
<meta message set_tempo tempo=334262 time=20>
<meta message set_tempo tempo=336134 time=20>
<meta message set_tempo tempo=338028 time=20>
<meta message set_tempo tempo=338983 time=20>
<meta message set_tempo tempo=340909 time=20>
<meta message set_tempo tempo=342857 time=20>
<meta message set_tempo tempo=344828 time=20>
note_on channel=0 note=80 velocity=0 time=0
note_on channel=0 note=82 velocity=46 time=0
<meta message set_tempo tempo=346821 time=20>
<meta message set_tempo tempo=348837 time=20>
<meta message set_tempo tempo=350877 time=20>
<meta message set_tempo tempo=352941 time=20>
<meta message set_tempo tempo=355030 time=20>
<meta message set_tempo tempo=357143 time=20>
<meta message set_tempo tempo=359281 time=20>
<meta message set_tempo tempo=360360 time=20>
note_on channel=0 note=82 velocity=0 time=0
note_on channel=0 note=80 velocity=42 time=0
<meta message set_tempo tempo=362538 time=20>
<meta message set_tempo tempo=364742 time=20>
<meta message set_tempo tempo=366972 time=20>
<meta message set_tempo tempo=369231 time=20>
<meta message set_tempo tempo=371517 time=20>
<meta message set_tempo tempo=373832 time=20>
<meta message set_tempo tempo=376176 time=20>
<meta message set_tempo tempo=378549 time=20>
note_on channel=0 note=80 velocity=0 time=0
note_on channel=0 note=82 velocity=38 time=0
<meta message set_tempo tempo=380952 time=20>
<meta message set_tempo tempo=382166 time=20>
<meta message set_tempo tempo=384615 time=20>
<meta message set_tempo tempo=387097 time=20>
<meta message set_tempo tempo=389610 time=20>
<meta message set_tempo tempo=392157 time=20>
<meta message set_tempo tempo=394737 time=20>
<meta message set_tempo tempo=397351 time=20>
note_on channel=0 note=82 velocity=0 time=0
note_on channel=0 note=80 velocity=34 time=0
<meta message set_tempo tempo=400000 time=20>
<meta message set_tempo tempo=402685 time=20>
<meta message set_tempo tempo=405405 time=20>
<meta message set_tempo tempo=406780 time=20>
<meta message set_tempo tempo=409556 time=20>
<meta message set_tempo tempo=412371 time=20>
<meta message set_tempo tempo=415225 time=20>
<meta message set_tempo tempo=418118 time=20>
note_on channel=0 note=80 velocity=0 time=0
note_on channel=0 note=82 velocity=30 time=0
<meta message set_tempo tempo=421053 time=20>
<meta message set_tempo tempo=424028 time=20>
<meta message set_tempo tempo=427046 time=20>
<meta message set_tempo tempo=430108 time=20>
<meta message set_tempo tempo=433213 time=20>
<meta message set_tempo tempo=436364 time=20>
<meta message set_tempo tempo=353982 time=40>
note_on channel=0 note=82 velocity=0 time=0
note_on channel=0 note=58 velocity=0 time=0
note_on channel=0 note=65 velocity=0 time=0
note_on channel=0 note=68 velocity=0 time=0
note_on channel=0 note=70 velocity=0 time=0
note_on channel=0 note=79 velocity=48 time=0
note_on channel=0 note=51 velocity=41 time=0
<meta message set_tempo tempo=375000 time=8>
control_change channel=0 control=64 value=0 time=27
note_on channel=0 note=79 velocity=0 time=125
note_on channel=0 note=82 velocity=44 time=0
note_on channel=0 note=82 velocity=0 time=160
note_on channel=0 note=80 velocity=40 time=0
<meta message set_tempo tempo=300000 time=160>
note_on channel=0 note=80 velocity=0 time=0
note_on channel=0 note=79 velocity=48 time=0
note_on channel=0 note=58 velocity=30 time=0
note_on channel=0 note=79 velocity=0 time=160
note_on channel=0 note=77 velocity=45 time=0
note_on channel=0 note=77 velocity=0 time=160
note_on channel=0 note=75 velocity=41 time=0
note_on channel=0 note=75 velocity=0 time=160
note_on channel=0 note=74 velocity=48 time=0
note_on channel=0 note=74 velocity=0 time=160
note_on channel=0 note=72 velocity=45 time=0
note_on channel=0 note=72 velocity=0 time=160
note_on channel=0 note=70 velocity=41 time=0
<meta message set_tempo tempo=306122 time=160>
note_on channel=0 note=70 velocity=0 time=0
note_on channel=0 note=58 velocity=0 time=0
note_on channel=0 note=51 velocity=0 time=0
note_on channel=0 note=68 velocity=48 time=0
note_on channel=0 note=53 velocity=41 time=0
note_on channel=0 note=68 velocity=0 time=160
note_on channel=0 note=67 velocity=44 time=0
note_on channel=0 note=67 velocity=0 time=160
note_on channel=0 note=65 velocity=41 time=0
<meta message set_tempo tempo=300000 time=160>
note_on channel=0 note=65 velocity=0 time=0
note_on channel=0 note=63 velocity=48 time=0
note_on channel=0 note=58 velocity=32 time=0
note_on channel=0 note=63 velocity=0 time=160
note_on channel=0 note=62 velocity=45 time=0
note_on channel=0 note=62 velocity=0 time=160
note_on channel=0 note=60 velocity=42 time=0
note_on channel=0 note=60 velocity=0 time=160
note_on channel=0 note=58 velocity=48 time=0
note_on channel=0 note=58 velocity=0 time=160
note_on channel=0 note=60 velocity=44 time=0
note_on channel=0 note=60 velocity=0 time=160
note_on channel=0 note=62 velocity=42 time=0
<meta message set_tempo tempo=306905 time=160>
note_on channel=0 note=62 velocity=0 time=0
note_on channel=0 note=58 velocity=0 time=0
note_on channel=0 note=53 velocity=0 time=0
note_on channel=0 note=63 velocity=48 time=0
note_on channel=0 note=55 velocity=41 time=0
note_on channel=0 note=63 velocity=0 time=160
note_on channel=0 note=62 velocity=44 time=0
note_on channel=0 note=62 velocity=0 time=160
note_on channel=0 note=63 velocity=44 time=0
<meta message set_tempo tempo=300000 time=160>
note_on channel=0 note=63 velocity=0 time=0
note_on channel=0 note=64 velocity=51 time=0
note_on channel=0 note=58 velocity=32 time=0
note_on channel=0 note=64 velocity=0 time=160
note_on channel=0 note=63 velocity=48 time=0
note_on channel=0 note=63 velocity=0 time=160
note_on channel=0 note=64 velocity=48 time=0
note_on channel=0 note=64 velocity=0 time=160
note_on channel=0 note=65 velocity=55 time=0
note_on channel=0 note=65 velocity=0 time=160
note_on channel=0 note=64 velocity=52 time=0
note_on channel=0 note=64 velocity=0 time=160
note_on channel=0 note=65 velocity=52 time=0
<meta message set_tempo tempo=320000 time=160>
note_on channel=0 note=65 velocity=0 time=0
note_on channel=0 note=58 velocity=0 time=0
note_on channel=0 note=55 velocity=0 time=0
note_on channel=0 note=66 velocity=58 time=0
note_on channel=0 note=50 velocity=41 time=0
note_on channel=0 note=66 velocity=0 time=160
note_on channel=0 note=65 velocity=52 time=0
note_on channel=0 note=65 velocity=0 time=160
note_on channel=0 note=66 velocity=48 time=0
<meta message set_tempo tempo=300000 time=160>
note_on channel=0 note=66 velocity=0 time=0
note_on channel=0 note=67 velocity=56 time=0
note_on channel=0 note=58 velocity=32 time=0
note_on channel=0 note=67 velocity=0 time=160
note_on channel=0 note=66 velocity=53 time=0
note_on channel=0 note=66 velocity=0 time=160
note_on channel=0 note=67 velocity=48 time=0
note_on channel=0 note=67 velocity=0 time=160
note_on channel=0 note=68 velocity=48 time=0
note_on channel=0 note=68 velocity=0 time=160
note_on channel=0 note=67 velocity=46 time=0
note_on channel=0 note=67 velocity=0 time=160
note_on channel=0 note=68 velocity=46 time=0
<meta message set_tempo tempo=306122 time=160>
note_on channel=0 note=68 velocity=0 time=0
note_on channel=0 note=58 velocity=0 time=0
note_on channel=0 note=50 velocity=0 time=0
note_on channel=0 note=67 velocity=48 time=0
note_on channel=0 note=51 velocity=40 time=0
note_on channel=0 note=67 velocity=0 time=160
note_on channel=0 note=70 velocity=45 time=0
note_on channel=0 note=70 velocity=0 time=160
note_on channel=0 note=68 velocity=45 time=0
<meta message set_tempo tempo=300000 time=160>
note_on channel=0 note=68 velocity=0 time=0
note_on channel=0 note=67 velocity=48 time=0
note_on channel=0 note=58 velocity=31 time=0
note_on channel=0 note=67 velocity=0 time=160
note_on channel=0 note=68 velocity=45 time=0
note_on channel=0 note=68 velocity=0 time=160
note_on channel=0 note=70 velocity=45 time=0
note_on channel=0 note=70 velocity=0 time=160
note_on channel=0 note=72 velocity=48 time=0
note_on channel=0 note=72 velocity=0 time=160
note_on channel=0 note=74 velocity=45 time=0
note_on channel=0 note=74 velocity=0 time=160
note_on channel=0 note=75 velocity=45 time=0
<meta message set_tempo tempo=306122 time=160>
note_on channel=0 note=75 velocity=0 time=0
note_on channel=0 note=58 velocity=0 time=0
note_on channel=0 note=51 velocity=0 time=0
note_on channel=0 note=77 velocity=48 time=0
note_on channel=0 note=44 velocity=41 time=0
note_on channel=0 note=77 velocity=0 time=160
note_on channel=0 note=84 velocity=50 time=0
note_on channel=0 note=84 velocity=0 time=160
note_on channel=0 note=82 velocity=45 time=0
<meta message set_tempo tempo=300000 time=160>
note_on channel=0 note=82 velocity=0 time=0
note_on channel=0 note=44 velocity=0 time=0
note_on channel=0 note=80 velocity=49 time=0
note_on channel=0 note=60 velocity=32 time=0
note_on channel=0 note=56 velocity=28 time=0
note_on channel=0 note=80 velocity=0 time=160
note_on channel=0 note=79 velocity=46 time=0
note_on channel=0 note=79 velocity=0 time=160
note_on channel=0 note=77 velocity=46 time=0
note_on channel=0 note=77 velocity=0 time=160
note_on channel=0 note=75 velocity=48 time=0
note_on channel=0 note=75 velocity=0 time=160
note_on channel=0 note=74 velocity=45 time=0
note_on channel=0 note=74 velocity=0 time=160
note_on channel=0 note=72 velocity=45 time=0
<meta message set_tempo tempo=306905 time=160>
note_on channel=0 note=72 velocity=0 time=0
note_on channel=0 note=56 velocity=0 time=0
note_on channel=0 note=60 velocity=0 time=0
note_on channel=0 note=74 velocity=48 time=0
note_on channel=0 note=46 velocity=41 time=0
note_on channel=0 note=74 velocity=0 time=160
note_on channel=0 note=77 velocity=45 time=0
note_on channel=0 note=77 velocity=0 time=160
note_on channel=0 note=75 velocity=45 time=0
<meta message set_tempo tempo=300000 time=160>
note_on channel=0 note=75 velocity=0 time=0
note_on channel=0 note=46 velocity=0 time=0
note_on channel=0 note=74 velocity=49 time=0
note_on channel=0 note=56 velocity=28 time=0
note_on channel=0 note=65 velocity=32 time=0
note_on channel=0 note=58 velocity=28 time=0
note_on channel=0 note=74 velocity=0 time=160
note_on channel=0 note=75 velocity=47 time=0
note_on channel=0 note=75 velocity=0 time=160
note_on channel=0 note=77 velocity=47 time=0
note_on channel=0 note=77 velocity=0 time=160
note_on channel=0 note=79 velocity=53 time=0
note_on channel=0 note=79 velocity=0 time=160
note_on channel=0 note=80 velocity=50 time=0
note_on channel=0 note=80 velocity=0 time=160
note_on channel=0 note=82 velocity=50 time=0
<meta message set_tempo tempo=304569 time=160>
note_on channel=0 note=82 velocity=0 time=0
note_on channel=0 note=58 velocity=0 time=0
note_on channel=0 note=65 velocity=0 time=0
note_on channel=0 note=56 velocity=0 time=0
note_on channel=0 note=75 velocity=55 time=0
note_on channel=0 note=51 velocity=45 time=0
note_on channel=0 note=75 velocity=0 time=160
note_on channel=0 note=77 velocity=52 time=0
note_on channel=0 note=77 velocity=0 time=160
note_on channel=0 note=79 velocity=52 time=0
<meta message set_tempo tempo=300000 time=140>
note_on channel=0 note=79 velocity=0 time=20
note_on channel=0 note=51 velocity=0 time=0
note_on channel=0 note=80 velocity=58 time=0
note_on channel=0 note=63 velocity=36 time=0
note_on channel=0 note=58 velocity=32 time=0
note_on channel=0 note=55 velocity=32 time=0
note_on channel=0 note=80 velocity=0 time=160
note_on channel=0 note=82 velocity=54 time=0
note_on channel=0 note=82 velocity=0 time=160
note_on channel=0 note=84 velocity=54 time=0
note_on channel=0 note=84 velocity=0 time=160
note_on channel=0 note=86 velocity=61 time=0
note_on channel=0 note=86 velocity=0 time=160
note_on channel=0 note=87 velocity=59 time=0
note_on channel=0 note=87 velocity=0 time=160
note_on channel=0 note=89 velocity=59 time=0
<meta message set_tempo tempo=334262 time=160>
note_on channel=0 note=89 velocity=0 time=0
note_on channel=0 note=55 velocity=0 time=0
note_on channel=0 note=58 velocity=0 time=0
note_on channel=0 note=63 velocity=0 time=0
note_on channel=0 note=91 velocity=64 time=0
note_on channel=0 note=51 velocity=44 time=0
note_on channel=0 note=91 velocity=0 time=160
note_on channel=0 note=94 velocity=62 time=0
note_on channel=0 note=94 velocity=0 time=160
note_on channel=0 note=92 velocity=58 time=0
<meta message set_tempo tempo=300752 time=160>
note_on channel=0 note=92 velocity=0 time=0
note_on channel=0 note=91 velocity=64 time=0
note_on channel=0 note=58 velocity=35 time=0
note_on channel=0 note=91 velocity=0 time=160
note_on channel=0 note=89 velocity=62 time=0
note_on channel=0 note=89 velocity=0 time=160
note_on channel=0 note=87 velocity=58 time=0
note_on channel=0 note=87 velocity=0 time=160
note_on channel=0 note=86 velocity=62 time=0
note_on channel=0 note=86 velocity=0 time=160
note_on channel=0 note=84 velocity=56 time=0
note_on channel=0 note=84 velocity=0 time=160
note_on channel=0 note=82 velocity=56 time=0
<meta message set_tempo tempo=306122 time=160>
note_on channel=0 note=82 velocity=0 time=0
note_on channel=0 note=58 velocity=0 time=0
note_on channel=0 note=51 velocity=0 time=0
note_on channel=0 note=80 velocity=64 time=0
note_on channel=0 note=53 velocity=42 time=0
note_on channel=0 note=80 velocity=0 time=160
note_on channel=0 note=79 velocity=63 time=0
note_on channel=0 note=79 velocity=0 time=160
note_on channel=0 note=77 velocity=61 time=0
<meta message set_tempo tempo=300000 time=160>
note_on channel=0 note=77 velocity=0 time=0
note_on channel=0 note=75 velocity=59 time=0
note_on channel=0 note=58 velocity=34 time=0
note_on channel=0 note=75 velocity=0 time=160
note_on channel=0 note=74 velocity=57 time=0
note_on channel=0 note=74 velocity=0 time=160
note_on channel=0 note=72 velocity=55 time=0
note_on channel=0 note=72 velocity=0 time=160
note_on channel=0 note=70 velocity=54 time=0
note_on channel=0 note=70 velocity=0 time=160
note_on channel=0 note=72 velocity=52 time=0
note_on channel=0 note=72 velocity=0 time=160
note_on channel=0 note=74 velocity=50 time=0
<meta message set_tempo tempo=306905 time=160>
note_on channel=0 note=74 velocity=0 time=0
note_on channel=0 note=58 velocity=0 time=0
note_on channel=0 note=53 velocity=0 time=0
note_on channel=0 note=75 velocity=48 time=0
note_on channel=0 note=55 velocity=40 time=0
note_on channel=0 note=75 velocity=0 time=160
note_on channel=0 note=74 velocity=48 time=0
note_on channel=0 note=74 velocity=0 time=160
note_on channel=0 note=75 velocity=48 time=0
<meta message set_tempo tempo=300000 time=160>
note_on channel=0 note=75 velocity=0 time=0
note_on channel=0 note=76 velocity=48 time=0
note_on channel=0 note=58 velocity=32 time=0
note_on channel=0 note=76 velocity=0 time=160
note_on channel=0 note=75 velocity=49 time=0
note_on channel=0 note=75 velocity=0 time=160
note_on channel=0 note=76 velocity=51 time=0
note_on channel=0 note=76 velocity=0 time=160
note_on channel=0 note=77 velocity=53 time=0
note_on channel=0 note=77 velocity=0 time=160
note_on channel=0 note=76 velocity=56 time=0
note_on channel=0 note=76 velocity=0 time=160
note_on channel=0 note=77 velocity=58 time=0
<meta message set_tempo tempo=305344 time=160>
note_on channel=0 note=77 velocity=0 time=0
note_on channel=0 note=58 velocity=0 time=0
note_on channel=0 note=55 velocity=0 time=0
note_on channel=0 note=78 velocity=62 time=0
note_on channel=0 note=50 velocity=48 time=0
note_on channel=0 note=78 velocity=0 time=160
note_on channel=0 note=77 velocity=61 time=0
note_on channel=0 note=77 velocity=0 time=160
note_on channel=0 note=78 velocity=58 time=0
<meta message set_tempo tempo=300000 time=160>
note_on channel=0 note=78 velocity=0 time=0
note_on channel=0 note=79 velocity=56 time=0
note_on channel=0 note=58 velocity=40 time=0
note_on channel=0 note=79 velocity=0 time=160
note_on channel=0 note=78 velocity=54 time=0
note_on channel=0 note=78 velocity=0 time=160
note_on channel=0 note=79 velocity=51 time=0
note_on channel=0 note=79 velocity=0 time=160
note_on channel=0 note=80 velocity=48 time=0
note_on channel=0 note=80 velocity=0 time=160
note_on channel=0 note=79 velocity=48 time=0
note_on channel=0 note=79 velocity=0 time=160
note_on channel=0 note=80 velocity=48 time=0
<meta message set_tempo tempo=305344 time=160>
note_on channel=0 note=80 velocity=0 time=0
note_on channel=0 note=58 velocity=0 time=0
note_on channel=0 note=50 velocity=0 time=0
note_on channel=0 note=79 velocity=48 time=0
note_on channel=0 note=49 velocity=47 time=0
note_on channel=0 note=79 velocity=0 time=160
note_on channel=0 note=78 velocity=48 time=0
note_on channel=0 note=78 velocity=0 time=160
note_on channel=0 note=79 velocity=49 time=0
<meta message set_tempo tempo=300000 time=160>
note_on channel=0 note=79 velocity=0 time=0
note_on channel=0 note=80 velocity=50 time=0
note_on channel=0 note=51 velocity=34 time=0
note_on channel=0 note=58 velocity=38 time=0
note_on channel=0 note=80 velocity=0 time=160
note_on channel=0 note=79 velocity=49 time=0
note_on channel=0 note=79 velocity=0 time=160
note_on channel=0 note=80 velocity=49 time=0
note_on channel=0 note=80 velocity=0 time=160
note_on channel=0 note=82 velocity=53 time=0
note_on channel=0 note=82 velocity=0 time=160
note_on channel=0 note=80 velocity=51 time=0
note_on channel=0 note=80 velocity=0 time=160
note_on channel=0 note=82 velocity=51 time=0
<meta message set_tempo tempo=306122 time=160>
note_on channel=0 note=82 velocity=0 time=0
note_on channel=0 note=58 velocity=0 time=0
note_on channel=0 note=51 velocity=0 time=0
note_on channel=0 note=49 velocity=0 time=0
note_on channel=0 note=80 velocity=56 time=0
note_on channel=0 note=48 velocity=56 time=0
note_on channel=0 note=80 velocity=0 time=160
note_on channel=0 note=79 velocity=52 time=0
note_on channel=0 note=79 velocity=0 time=160
note_on channel=0 note=80 velocity=52 time=0
<meta message set_tempo tempo=300000 time=160>
note_on channel=0 note=80 velocity=0 time=0
note_on channel=0 note=82 velocity=58 time=0
note_on channel=0 note=51 velocity=32 time=0
note_on channel=0 note=56 velocity=36 time=0
note_on channel=0 note=82 velocity=0 time=160
note_on channel=0 note=80 velocity=54 time=0
note_on channel=0 note=80 velocity=0 time=160
note_on channel=0 note=82 velocity=51 time=0
note_on channel=0 note=82 velocity=0 time=160
note_on channel=0 note=84 velocity=61 time=0
note_on channel=0 note=84 velocity=0 time=160
note_on channel=0 note=83 velocity=57 time=0
note_on channel=0 note=83 velocity=0 time=160
note_on channel=0 note=84 velocity=53 time=0
<meta message set_tempo tempo=305344 time=160>
note_on channel=0 note=84 velocity=0 time=0
note_on channel=0 note=56 velocity=0 time=0
note_on channel=0 note=51 velocity=0 time=0
note_on channel=0 note=48 velocity=0 time=0
note_on channel=0 note=86 velocity=64 time=0
note_on channel=0 note=48 velocity=60 time=0
note_on channel=0 note=86 velocity=0 time=160
note_on channel=0 note=85 velocity=60 time=0
note_on channel=0 note=85 velocity=0 time=160
note_on channel=0 note=86 velocity=57 time=0
<meta message set_tempo tempo=300000 time=160>
note_on channel=0 note=86 velocity=0 time=0
note_on channel=0 note=88 velocity=66 time=0
note_on channel=0 note=50 velocity=33 time=0
note_on channel=0 note=57 velocity=37 time=0
note_on channel=0 note=88 velocity=0 time=160
note_on channel=0 note=86 velocity=63 time=0
note_on channel=0 note=86 velocity=0 time=160
note_on channel=0 note=88 velocity=60 time=0
note_on channel=0 note=88 velocity=0 time=160
note_on channel=0 note=90 velocity=69 time=0
note_on channel=0 note=90 velocity=0 time=160
note_on channel=0 note=88 velocity=65 time=0
note_on channel=0 note=88 velocity=0 time=160
note_on channel=0 note=90 velocity=63 time=0
<meta message set_tempo tempo=306905 time=160>
note_on channel=0 note=90 velocity=0 time=0
note_on channel=0 note=57 velocity=0 time=0
note_on channel=0 note=50 velocity=0 time=0
note_on channel=0 note=48 velocity=0 time=0
note_on channel=0 note=91 velocity=72 time=0
note_on channel=0 note=47 velocity=63 time=0
note_on channel=0 note=91 velocity=0 time=160
note_on channel=0 note=90 velocity=69 time=0
note_on channel=0 note=90 velocity=0 time=160
note_on channel=0 note=91 velocity=63 time=0
<meta message set_tempo tempo=300000 time=160>
note_on channel=0 note=91 velocity=0 time=0
note_on channel=0 note=93 velocity=74 time=0
note_on channel=0 note=50 velocity=36 time=0
note_on channel=0 note=55 velocity=41 time=0
note_on channel=0 note=93 velocity=0 time=160
note_on channel=0 note=91 velocity=71 time=0
note_on channel=0 note=91 velocity=0 time=160
note_on channel=0 note=93 velocity=66 time=0
note_on channel=0 note=93 velocity=0 time=160
note_on channel=0 note=95 velocity=77 time=0
note_on channel=0 note=95 velocity=0 time=160
note_on channel=0 note=93 velocity=71 time=0
note_on channel=0 note=93 velocity=0 time=160
note_on channel=0 note=95 velocity=65 time=0
<meta message set_tempo tempo=309278 time=160>
note_on channel=0 note=95 velocity=0 time=0
note_on channel=0 note=55 velocity=0 time=0
note_on channel=0 note=50 velocity=0 time=0
note_on channel=0 note=47 velocity=0 time=0
note_on channel=0 note=96 velocity=81 time=0
note_on channel=0 note=46 velocity=64 time=0
note_on channel=0 note=96 velocity=0 time=160
note_on channel=0 note=95 velocity=75 time=0
note_on channel=0 note=95 velocity=0 time=160
note_on channel=0 note=96 velocity=69 time=0
<meta message set_tempo tempo=300000 time=160>
note_on channel=0 note=96 velocity=0 time=0
note_on channel=0 note=98 velocity=81 time=0
note_on channel=0 note=48 velocity=38 time=0
note_on channel=0 note=55 velocity=43 time=0
note_on channel=0 note=98 velocity=0 time=160
note_on channel=0 note=96 velocity=76 time=0
note_on channel=0 note=96 velocity=0 time=160
note_on channel=0 note=98 velocity=71 time=0
note_on channel=0 note=98 velocity=0 time=160
note_on channel=0 note=100 velocity=81 time=0
note_on channel=0 note=100 velocity=0 time=160
note_on channel=0 note=98 velocity=76 time=0
note_on channel=0 note=98 velocity=0 time=160
note_on channel=0 note=100 velocity=70 time=0
<meta message set_tempo tempo=315789 time=160>
note_on channel=0 note=100 velocity=0 time=0
note_on channel=0 note=55 velocity=0 time=0
note_on channel=0 note=48 velocity=0 time=0
note_on channel=0 note=46 velocity=0 time=0
note_on channel=0 note=101 velocity=81 time=0
note_on channel=0 note=44 velocity=68 time=0
note_on channel=0 note=101 velocity=0 time=160
note_on channel=0 note=99 velocity=75 time=0
note_on channel=0 note=99 velocity=0 time=160
note_on channel=0 note=97 velocity=70 time=0
<meta message set_tempo tempo=300000 time=160>
note_on channel=0 note=97 velocity=0 time=0
note_on channel=0 note=96 velocity=81 time=0
note_on channel=0 note=48 velocity=37 time=0
note_on channel=0 note=53 velocity=42 time=0
note_on channel=0 note=96 velocity=0 time=160
note_on channel=0 note=94 velocity=76 time=0
note_on channel=0 note=94 velocity=0 time=160
note_on channel=0 note=92 velocity=70 time=0
note_on channel=0 note=92 velocity=0 time=160
note_on channel=0 note=91 velocity=81 time=0
note_on channel=0 note=91 velocity=0 time=160
note_on channel=0 note=89 velocity=76 time=0
note_on channel=0 note=89 velocity=0 time=160
note_on channel=0 note=87 velocity=72 time=0
<meta message set_tempo tempo=306122 time=160>
note_on channel=0 note=87 velocity=0 time=0
note_on channel=0 note=53 velocity=0 time=0
note_on channel=0 note=48 velocity=0 time=0
note_on channel=0 note=44 velocity=0 time=0
note_on channel=0 note=86 velocity=81 time=0
note_on channel=0 note=46 velocity=68 time=0
note_on channel=0 note=86 velocity=0 time=160
note_on channel=0 note=84 velocity=76 time=0
note_on channel=0 note=84 velocity=0 time=160
note_on channel=0 note=82 velocity=70 time=0
<meta message set_tempo tempo=300000 time=160>
note_on channel=0 note=82 velocity=0 time=0
note_on channel=0 note=81 velocity=81 time=0
note_on channel=0 note=56 velocity=40 time=0
note_on channel=0 note=53 velocity=36 time=0
note_on channel=0 note=81 velocity=0 time=160
note_on channel=0 note=82 velocity=76 time=0
note_on channel=0 note=82 velocity=0 time=160
note_on channel=0 note=84 velocity=72 time=0
note_on channel=0 note=84 velocity=0 time=160
note_on channel=0 note=86 velocity=81 time=0
note_on channel=0 note=86 velocity=0 time=160
note_on channel=0 note=87 velocity=76 time=0
note_on channel=0 note=87 velocity=0 time=160
note_on channel=0 note=89 velocity=72 time=0
<meta message set_tempo tempo=334262 time=160>
note_on channel=0 note=89 velocity=0 time=0
note_on channel=0 note=53 velocity=0 time=0
note_on channel=0 note=56 velocity=0 time=0
note_on channel=0 note=46 velocity=0 time=0
note_on channel=0 note=90 velocity=89 time=0
note_on channel=0 note=51 velocity=72 time=0
note_on channel=0 note=90 velocity=0 time=160
note_on channel=0 note=94 velocity=77 time=0
note_on channel=0 note=94 velocity=0 time=160
note_on channel=0 note=92 velocity=72 time=0
note_on channel=0 note=92 velocity=0 time=160
note_on channel=0 note=90 velocity=81 time=0
note_on channel=0 note=63 velocity=56 time=0
<meta message set_tempo tempo=300000 time=8>
note_on channel=0 note=90 velocity=0 time=152
note_on channel=0 note=89 velocity=78 time=0
note_on channel=0 note=89 velocity=0 time=160
note_on channel=0 note=87 velocity=73 time=0
note_on channel=0 note=87 velocity=0 time=160
note_on channel=0 note=85 velocity=81 time=0
note_on channel=0 note=85 velocity=0 time=160
note_on channel=0 note=83 velocity=77 time=0
note_on channel=0 note=83 velocity=0 time=160
note_on channel=0 note=82 velocity=73 time=0
<meta message set_tempo tempo=334262 time=160>
note_on channel=0 note=82 velocity=0 time=0
note_on channel=0 note=63 velocity=0 time=0
note_on channel=0 note=51 velocity=0 time=0
note_on channel=0 note=83 velocity=89 time=0
note_on channel=0 note=44 velocity=72 time=0
note_on channel=0 note=83 velocity=0 time=160
note_on channel=0 note=87 velocity=77 time=0
note_on channel=0 note=87 velocity=0 time=160
note_on channel=0 note=85 velocity=75 time=0
note_on channel=0 note=85 velocity=0 time=160
note_on channel=0 note=83 velocity=81 time=0
note_on channel=0 note=56 velocity=56 time=0
<meta message set_tempo tempo=300000 time=8>
note_on channel=0 note=83 velocity=0 time=152
note_on channel=0 note=82 velocity=77 time=0
note_on channel=0 note=82 velocity=0 time=160
note_on channel=0 note=80 velocity=74 time=0
note_on channel=0 note=80 velocity=0 time=160
note_on channel=0 note=78 velocity=81 time=0
note_on channel=0 note=78 velocity=0 time=160
note_on channel=0 note=77 velocity=77 time=0
note_on channel=0 note=77 velocity=0 time=160
note_on channel=0 note=75 velocity=73 time=0
<meta message set_tempo tempo=333333 time=160>
note_on channel=0 note=75 velocity=0 time=0
note_on channel=0 note=56 velocity=0 time=0
note_on channel=0 note=44 velocity=0 time=0
note_on channel=0 note=74 velocity=89 time=0
note_on channel=0 note=46 velocity=72 time=0
note_on channel=0 note=74 velocity=0 time=160
note_on channel=0 note=77 velocity=76 time=0
note_on channel=0 note=77 velocity=0 time=160
note_on channel=0 note=75 velocity=72 time=0
<meta message set_tempo tempo=300000 time=160>
note_on channel=0 note=75 velocity=0 time=0
note_on channel=0 note=74 velocity=81 time=0
note_on channel=0 note=58 velocity=56 time=0
note_on channel=0 note=74 velocity=0 time=160
note_on channel=0 note=71 velocity=77 time=0
note_on channel=0 note=71 velocity=0 time=160
note_on channel=0 note=70 velocity=74 time=0
note_on channel=0 note=70 velocity=0 time=160
note_on channel=0 note=68 velocity=81 time=0
note_on channel=0 note=68 velocity=0 time=160
note_on channel=0 note=66 velocity=76 time=0
note_on channel=0 note=66 velocity=0 time=160
note_on channel=0 note=65 velocity=73 time=0
<meta message set_tempo tempo=342857 time=160>
note_on channel=0 note=65 velocity=0 time=0
note_on channel=0 note=58 velocity=0 time=0
note_on channel=0 note=46 velocity=0 time=0
note_on channel=0 note=78 velocity=89 time=0
note_on channel=0 note=39 velocity=72 time=0
note_on channel=0 note=78 velocity=0 time=160
note_on channel=0 note=82 velocity=76 time=0
note_on channel=0 note=82 velocity=0 time=160
note_on channel=0 note=80 velocity=73 time=0
<meta message set_tempo tempo=300000 time=160>
note_on channel=0 note=80 velocity=0 time=0
note_on channel=0 note=78 velocity=81 time=0
note_on channel=0 note=51 velocity=53 time=0
note_on channel=0 note=78 velocity=0 time=160
note_on channel=0 note=77 velocity=75 time=0
note_on channel=0 note=77 velocity=0 time=160
note_on channel=0 note=75 velocity=73 time=0
note_on channel=0 note=75 velocity=0 time=160
note_on channel=0 note=73 velocity=81 time=0
note_on channel=0 note=73 velocity=0 time=160
note_on channel=0 note=71 velocity=77 time=0
note_on channel=0 note=71 velocity=0 time=160
note_on channel=0 note=70 velocity=72 time=0
<meta message set_tempo tempo=362538 time=160>
note_on channel=0 note=70 velocity=0 time=0
note_on channel=0 note=51 velocity=0 time=0
note_on channel=0 note=39 velocity=0 time=0
note_on channel=0 note=71 velocity=89 time=0
note_on channel=0 note=32 velocity=79 time=0
note_on channel=0 note=71 velocity=0 time=160
note_on channel=0 note=75 velocity=77 time=0
note_on channel=0 note=75 velocity=0 time=160
note_on channel=0 note=73 velocity=73 time=0
<meta message set_tempo tempo=300000 time=160>
note_on channel=0 note=73 velocity=0 time=0
note_on channel=0 note=71 velocity=81 time=0
note_on channel=0 note=44 velocity=57 time=0
note_on channel=0 note=71 velocity=0 time=160
note_on channel=0 note=70 velocity=77 time=0
note_on channel=0 note=70 velocity=0 time=160
note_on channel=0 note=68 velocity=73 time=0
note_on channel=0 note=68 velocity=0 time=160
note_on channel=0 note=66 velocity=81 time=0
note_on channel=0 note=66 velocity=0 time=160
note_on channel=0 note=65 velocity=77 time=0
note_on channel=0 note=65 velocity=0 time=160
note_on channel=0 note=63 velocity=73 time=0
<meta message set_tempo tempo=333333 time=160>
note_on channel=0 note=63 velocity=0 time=0
note_on channel=0 note=44 velocity=0 time=0
note_on channel=0 note=32 velocity=0 time=0
note_on channel=0 note=62 velocity=89 time=0
note_on channel=0 note=34 velocity=76 time=0
note_on channel=0 note=62 velocity=0 time=160
note_on channel=0 note=65 velocity=77 time=0
note_on channel=0 note=65 velocity=0 time=160
note_on channel=0 note=63 velocity=72 time=0
<meta message set_tempo tempo=300000 time=160>
note_on channel=0 note=63 velocity=0 time=0
note_on channel=0 note=62 velocity=81 time=0
note_on channel=0 note=46 velocity=57 time=0
note_on channel=0 note=62 velocity=0 time=160
note_on channel=0 note=59 velocity=77 time=0
note_on channel=0 note=59 velocity=0 time=160
note_on channel=0 note=58 velocity=72 time=0
note_on channel=0 note=58 velocity=0 time=160
note_on channel=0 note=56 velocity=81 time=0
note_on channel=0 note=56 velocity=0 time=160
note_on channel=0 note=54 velocity=77 time=0
note_on channel=0 note=54 velocity=0 time=160
note_on channel=0 note=53 velocity=73 time=0
note_on channel=0 note=53 velocity=0 time=160
note_on channel=0 note=46 velocity=0 time=0
note_on channel=0 note=34 velocity=0 time=0
note_on channel=0 note=51 velocity=81 time=0
note_on channel=0 note=39 velocity=64 time=0
note_on channel=0 note=51 velocity=0 time=160
note_on channel=0 note=53 velocity=77 time=0
note_on channel=0 note=53 velocity=0 time=160
note_on channel=0 note=54 velocity=72 time=0
note_on channel=0 note=54 velocity=0 time=160
note_on channel=0 note=39 velocity=0 time=0
note_on channel=0 note=56 velocity=89 time=0
note_on channel=0 note=46 velocity=72 time=0
note_on channel=0 note=50 velocity=81 time=0
<meta message set_tempo tempo=333333 time=8>
note_on channel=0 note=56 velocity=0 time=152
note_on channel=0 note=59 velocity=78 time=0
note_on channel=0 note=59 velocity=0 time=160
note_on channel=0 note=58 velocity=74 time=0
note_on channel=0 note=58 velocity=0 time=160
note_on channel=0 note=56 velocity=81 time=0
note_on channel=0 note=56 velocity=0 time=160
note_on channel=0 note=54 velocity=76 time=0
note_on channel=0 note=54 velocity=0 time=160
note_on channel=0 note=53 velocity=72 time=0
note_on channel=0 note=53 velocity=0 time=160
note_on channel=0 note=50 velocity=0 time=0
note_on channel=0 note=46 velocity=0 time=0
note_on channel=0 note=51 velocity=81 time=0
note_on channel=0 note=39 velocity=64 time=0
<meta message set_tempo tempo=300000 time=8>
note_on channel=0 note=51 velocity=0 time=152
note_on channel=0 note=53 velocity=76 time=0
note_on channel=0 note=39 velocity=0 time=80
note_on channel=0 note=53 velocity=0 time=80
note_on channel=0 note=54 velocity=72 time=0
note_on channel=0 note=54 velocity=0 time=160
note_on channel=0 note=56 velocity=89 time=0
note_on channel=0 note=46 velocity=72 time=0
note_on channel=0 note=50 velocity=81 time=0
<meta message set_tempo tempo=333333 time=8>
note_on channel=0 note=56 velocity=0 time=152
note_on channel=0 note=59 velocity=77 time=0
note_on channel=0 note=59 velocity=0 time=160
note_on channel=0 note=58 velocity=72 time=0
note_on channel=0 note=58 velocity=0 time=160
note_on channel=0 note=56 velocity=81 time=0
note_on channel=0 note=56 velocity=0 time=160
note_on channel=0 note=54 velocity=77 time=0
note_on channel=0 note=54 velocity=0 time=160
note_on channel=0 note=53 velocity=72 time=0
<meta message set_tempo tempo=300752 time=160>
note_on channel=0 note=53 velocity=0 time=0
note_on channel=0 note=50 velocity=0 time=0
note_on channel=0 note=46 velocity=0 time=0
note_on channel=0 note=51 velocity=81 time=0
note_on channel=0 note=39 velocity=64 time=0
note_on channel=0 note=51 velocity=0 time=160
note_on channel=0 note=53 velocity=77 time=0
note_on channel=0 note=39 velocity=0 time=80
note_on channel=0 note=53 velocity=0 time=80
note_on channel=0 note=54 velocity=72 time=0
<meta message set_tempo tempo=333333 time=160>
note_on channel=0 note=54 velocity=0 time=0
note_on channel=0 note=56 velocity=89 time=0
note_on channel=0 note=46 velocity=72 time=0
note_on channel=0 note=50 velocity=81 time=0
note_on channel=0 note=56 velocity=0 time=160
note_on channel=0 note=59 velocity=77 time=0
note_on channel=0 note=59 velocity=0 time=160
note_on channel=0 note=58 velocity=71 time=0
note_on channel=0 note=58 velocity=0 time=160
note_on channel=0 note=56 velocity=81 time=0
note_on channel=0 note=56 velocity=0 time=160
note_on channel=0 note=54 velocity=77 time=0
note_on channel=0 note=54 velocity=0 time=160
note_on channel=0 note=53 velocity=77 time=0
<meta message set_tempo tempo=300000 time=160>
note_on channel=0 note=53 velocity=0 time=0
note_on channel=0 note=50 velocity=0 time=0
note_on channel=0 note=46 velocity=0 time=0
note_on channel=0 note=51 velocity=78 time=0
note_on channel=0 note=39 velocity=72 time=0
note_on channel=0 note=39 velocity=0 time=160
note_on channel=0 note=51 velocity=0 time=0
note_on channel=0 note=53 velocity=80 time=0
note_on channel=0 note=41 velocity=72 time=0
note_on channel=0 note=41 velocity=0 time=160
note_on channel=0 note=53 velocity=0 time=0
note_on channel=0 note=54 velocity=82 time=0
note_on channel=0 note=42 velocity=74 time=0
note_on channel=0 note=42 velocity=0 time=160
note_on channel=0 note=54 velocity=0 time=0
note_on channel=0 note=56 velocity=84 time=0
note_on channel=0 note=44 velocity=76 time=0
note_on channel=0 note=44 velocity=0 time=160
note_on channel=0 note=56 velocity=0 time=0
note_on channel=0 note=58 velocity=87 time=0
note_on channel=0 note=46 velocity=78 time=0
note_on channel=0 note=46 velocity=0 time=160
note_on channel=0 note=58 velocity=0 time=0
note_on channel=0 note=60 velocity=89 time=0
note_on channel=0 note=48 velocity=80 time=0
note_on channel=0 note=48 velocity=0 time=160
note_on channel=0 note=60 velocity=0 time=0
note_on channel=0 note=62 velocity=90 time=0
note_on channel=0 note=50 velocity=81 time=0
note_on channel=0 note=50 velocity=0 time=160
note_on channel=0 note=62 velocity=0 time=0
note_on channel=0 note=63 velocity=92 time=0
note_on channel=0 note=51 velocity=82 time=0
note_on channel=0 note=51 velocity=0 time=160
note_on channel=0 note=63 velocity=0 time=0
note_on channel=0 note=65 velocity=94 time=0
note_on channel=0 note=53 velocity=84 time=0
note_on channel=0 note=53 velocity=0 time=160
note_on channel=0 note=65 velocity=0 time=0
note_on channel=0 note=66 velocity=96 time=0
note_on channel=0 note=54 velocity=86 time=0
note_on channel=0 note=54 velocity=0 time=960
note_on channel=0 note=66 velocity=0 time=0
note_on channel=0 note=58 velocity=87 time=480
note_on channel=0 note=61 velocity=87 time=0
note_on channel=0 note=66 velocity=87 time=0
note_on channel=0 note=70 velocity=97 time=0
note_on channel=0 note=42 velocity=73 time=0
note_on channel=0 note=54 velocity=82 time=0
<meta message set_tempo tempo=361446 time=960>
note_on channel=0 note=54 velocity=0 time=0
note_on channel=0 note=61 velocity=0 time=0
note_on channel=0 note=66 velocity=0 time=0
note_on channel=0 note=58 velocity=0 time=0
note_on channel=0 note=42 velocity=0 time=0
note_on channel=0 note=70 velocity=0 time=0
<meta message set_tempo tempo=333333 time=480>
<meta message marker text='Coda' time=0>
note_on channel=0 note=71 velocity=97 time=0
note_on channel=0 note=35 velocity=65 time=0
control_change channel=0 control=64 value=127 time=57
note_on channel=0 note=35 velocity=0 time=183
note_on channel=0 note=59 velocity=81 time=240
note_on channel=0 note=47 velocity=59 time=0
note_on channel=0 note=50 velocity=59 time=0
note_on channel=0 note=54 velocity=66 time=0
note_on channel=0 note=59 velocity=0 time=160
note_on channel=0 note=62 velocity=76 time=0
note_on channel=0 note=62 velocity=0 time=160
note_on channel=0 note=66 velocity=76 time=0
note_on channel=0 note=66 velocity=0 time=160
note_on channel=0 note=59 velocity=81 time=0
note_on channel=0 note=59 velocity=0 time=480
note_on channel=0 note=54 velocity=0 time=0
note_on channel=0 note=71 velocity=0 time=0
note_on channel=0 note=47 velocity=0 time=0
note_on channel=0 note=50 velocity=0 time=0
note_on channel=0 note=71 velocity=96 time=0
note_on channel=0 note=35 velocity=67 time=0
control_change channel=0 control=64 value=0 time=7
control_change channel=0 control=64 value=127 time=130
note_on channel=0 note=35 velocity=0 time=103
note_on channel=0 note=59 velocity=81 time=240
note_on channel=0 note=47 velocity=57 time=0
note_on channel=0 note=49 velocity=57 time=0
note_on channel=0 note=52 velocity=57 time=0
note_on channel=0 note=55 velocity=64 time=0
note_on channel=0 note=59 velocity=0 time=160
note_on channel=0 note=61 velocity=77 time=0
note_on channel=0 note=61 velocity=0 time=160
note_on channel=0 note=67 velocity=77 time=0
note_on channel=0 note=67 velocity=0 time=160
note_on channel=0 note=59 velocity=81 time=0
<meta message set_tempo tempo=316623 time=480>
note_on channel=0 note=59 velocity=0 time=0
note_on channel=0 note=55 velocity=0 time=0
note_on channel=0 note=49 velocity=0 time=0
note_on channel=0 note=71 velocity=0 time=0
note_on channel=0 note=47 velocity=0 time=0
note_on channel=0 note=52 velocity=0 time=0
note_on channel=0 note=71 velocity=88 time=0
note_on channel=0 note=50 velocity=72 time=0
control_change channel=0 control=64 value=0 time=5
control_change channel=0 control=64 value=125 time=112
note_on channel=0 note=62 velocity=72 time=123
note_on channel=0 note=66 velocity=81 time=0
note_on channel=0 note=54 velocity=58 time=0
note_on channel=0 note=59 velocity=65 time=0
note_on channel=0 note=59 velocity=0 time=240
note_on channel=0 note=50 velocity=0 time=0
note_on channel=0 note=62 velocity=0 time=0
note_on channel=0 note=71 velocity=0 time=0
note_on channel=0 note=54 velocity=0 time=0
note_on channel=0 note=66 velocity=0 time=0
note_on channel=0 note=73 velocity=95 time=0
note_on channel=0 note=49 velocity=80 time=0
control_change channel=0 control=64 value=0 time=6
control_change channel=0 control=64 value=125 time=130
note_on channel=0 note=64 velocity=79 time=104
note_on channel=0 note=66 velocity=88 time=0
note_on channel=0 note=54 velocity=62 time=0
note_on channel=0 note=58 velocity=69 time=0
note_on channel=0 note=58 velocity=0 time=240
note_on channel=0 note=49 velocity=0 time=0
note_on channel=0 note=64 velocity=0 time=0
note_on channel=0 note=73 velocity=0 time=0
note_on channel=0 note=54 velocity=0 time=0
note_on channel=0 note=66 velocity=0 time=0
note_on channel=0 note=74 velocity=89 time=0
note_on channel=0 note=47 velocity=72 time=0
control_change channel=0 control=64 value=0 time=8
control_change channel=0 control=64 value=125 time=76
note_on channel=0 note=62 velocity=72 time=156
note_on channel=0 note=66 velocity=81 time=0
note_on channel=0 note=54 velocity=57 time=0
note_on channel=0 note=59 velocity=64 time=0
<meta message set_tempo tempo=333333 time=240>
note_on channel=0 note=59 velocity=0 time=0
note_on channel=0 note=47 velocity=0 time=0
note_on channel=0 note=62 velocity=0 time=0
note_on channel=0 note=74 velocity=0 time=0
note_on channel=0 note=54 velocity=0 time=0
note_on channel=0 note=66 velocity=0 time=0
note_on channel=0 note=73 velocity=88 time=0
control_change channel=0 control=64 value=0 time=0
note_on channel=0 note=42 velocity=72 time=0
control_change channel=0 control=64 value=126 time=114
note_on channel=0 note=42 velocity=0 time=366
note_on channel=0 note=61 velocity=81 time=0
note_on channel=0 note=54 velocity=57 time=0
note_on channel=0 note=58 velocity=64 time=0
note_on channel=0 note=61 velocity=0 time=160
note_on channel=0 note=66 velocity=76 time=0
note_on channel=0 note=66 velocity=0 time=160
note_on channel=0 note=70 velocity=76 time=0
<meta message set_tempo tempo=351906 time=160>
note_on channel=0 note=70 velocity=0 time=0
note_on channel=0 note=61 velocity=81 time=0
<meta message set_tempo tempo=333333 time=480>
note_on channel=0 note=61 velocity=0 time=0
note_on channel=0 note=58 velocity=0 time=0
note_on channel=0 note=54 velocity=0 time=0
note_on channel=0 note=73 velocity=0 time=0
note_on channel=0 note=74 velocity=88 time=0
note_on channel=0 note=46 velocity=80 time=0
control_change channel=0 control=64 value=0 time=6
control_change channel=0 control=64 value=126 time=100
note_on channel=0 note=46 velocity=0 time=374
note_on channel=0 note=62 velocity=81 time=0
note_on channel=0 note=56 velocity=57 time=0
note_on channel=0 note=53 velocity=57 time=0
note_on channel=0 note=58 velocity=64 time=0
note_on channel=0 note=62 velocity=0 time=160
note_on channel=0 note=65 velocity=76 time=0
note_on channel=0 note=65 velocity=0 time=160
note_on channel=0 note=70 velocity=76 time=0
note_on channel=0 note=70 velocity=0 time=160
note_on channel=0 note=62 velocity=81 time=0
<meta message set_tempo tempo=333333 time=480>
note_on channel=0 note=62 velocity=0 time=0
note_on channel=0 note=58 velocity=0 time=0
note_on channel=0 note=74 velocity=0 time=0
note_on channel=0 note=56 velocity=0 time=0
note_on channel=0 note=53 velocity=0 time=0
note_on channel=0 note=75 velocity=88 time=0
note_on channel=0 note=39 velocity=80 time=0
control_change channel=0 control=64 value=0 time=6
control_change channel=0 control=64 value=125 time=102
note_on channel=0 note=39 velocity=0 time=372
note_on channel=0 note=63 velocity=81 time=0
note_on channel=0 note=51 velocity=57 time=0
note_on channel=0 note=54 velocity=57 time=0
note_on channel=0 note=58 velocity=64 time=0
note_on channel=0 note=63 velocity=0 time=160
note_on channel=0 note=66 velocity=76 time=0
note_on channel=0 note=66 velocity=0 time=160
note_on channel=0 note=70 velocity=76 time=0
note_on channel=0 note=70 velocity=0 time=160
note_on channel=0 note=63 velocity=81 time=0
note_on channel=0 note=63 velocity=0 time=480
note_on channel=0 note=58 velocity=0 time=0
note_on channel=0 note=75 velocity=0 time=0
note_on channel=0 note=51 velocity=0 time=0
note_on channel=0 note=54 velocity=0 time=0
note_on channel=0 note=65 velocity=81 time=0
control_change channel=0 control=64 value=0 time=0
note_on channel=0 note=46 velocity=64 time=0
<meta message set_tempo tempo=315789 time=8>
control_change channel=0 control=64 value=126 time=175
note_on channel=0 note=65 velocity=0 time=57
note_on channel=0 note=77 velocity=77 time=0
note_on channel=0 note=77 velocity=0 time=240
note_on channel=0 note=46 velocity=0 time=0
note_on channel=0 note=66 velocity=81 time=0
note_on channel=0 note=56 velocity=57 time=0
note_on channel=0 note=62 velocity=64 time=0
note_on channel=0 note=58 velocity=57 time=0
note_on channel=0 note=66 velocity=0 time=240
note_on channel=0 note=78 velocity=77 time=0
note_on channel=0 note=78 velocity=0 time=240
note_on channel=0 note=58 velocity=0 time=0
note_on channel=0 note=62 velocity=0 time=0
note_on channel=0 note=56 velocity=0 time=0
note_on channel=0 note=65 velocity=81 time=0
note_on channel=0 note=46 velocity=64 time=0
note_on channel=0 note=65 velocity=0 time=240
note_on channel=0 note=77 velocity=77 time=0
note_on channel=0 note=77 velocity=0 time=240
note_on channel=0 note=46 velocity=0 time=0
note_on channel=0 note=75 velocity=81 time=0
note_on channel=0 note=51 velocity=81 time=0
<meta message set_tempo tempo=333333 time=8>
control_change channel=0 control=64 value=0 time=20
control_change channel=0 control=64 value=127 time=103
note_on channel=0 note=51 velocity=0 time=349
note_on channel=0 note=63 velocity=64 time=0
note_on channel=0 note=58 velocity=64 time=0
note_on channel=0 note=54 velocity=57 time=0
note_on channel=0 note=63 velocity=0 time=160
note_on channel=0 note=66 velocity=61 time=0
note_on channel=0 note=66 velocity=0 time=160
note_on channel=0 note=70 velocity=62 time=0
<meta message set_tempo tempo=388350 time=160>
note_on channel=0 note=70 velocity=0 time=0
note_on channel=0 note=63 velocity=64 time=0
<meta message set_tempo tempo=333333 time=480>
note_on channel=0 note=63 velocity=0 time=0
note_on channel=0 note=54 velocity=0 time=0
note_on channel=0 note=58 velocity=0 time=0
note_on channel=0 note=75 velocity=0 time=0
note_on channel=0 note=83 velocity=96 time=0
control_change channel=0 control=64 value=0 time=0
note_on channel=0 note=35 velocity=82 time=0
control_change channel=0 control=64 value=127 time=125
note_on channel=0 note=35 velocity=0 time=355
note_on channel=0 note=71 velocity=80 time=0
note_on channel=0 note=54 velocity=79 time=0
note_on channel=0 note=50 velocity=71 time=0
note_on channel=0 note=47 velocity=71 time=0
note_on channel=0 note=71 velocity=0 time=160
note_on channel=0 note=74 velocity=75 time=0
note_on channel=0 note=74 velocity=0 time=160
note_on channel=0 note=78 velocity=75 time=0
<meta message set_tempo tempo=344828 time=160>
note_on channel=0 note=78 velocity=0 time=0
note_on channel=0 note=71 velocity=80 time=0
<meta message set_tempo tempo=333333 time=480>
note_on channel=0 note=71 velocity=0 time=0
note_on channel=0 note=47 velocity=0 time=0
note_on channel=0 note=83 velocity=0 time=0
note_on channel=0 note=54 velocity=0 time=0
note_on channel=0 note=50 velocity=0 time=0
note_on channel=0 note=83 velocity=93 time=0
control_change channel=0 control=64 value=0 time=0
note_on channel=0 note=35 velocity=85 time=0
control_change channel=0 control=64 value=126 time=125
note_on channel=0 note=35 velocity=0 time=355
note_on channel=0 note=71 velocity=81 time=0
note_on channel=0 note=49 velocity=69 time=0
note_on channel=0 note=52 velocity=69 time=0
note_on channel=0 note=55 velocity=77 time=0
note_on channel=0 note=47 velocity=69 time=0
note_on channel=0 note=71 velocity=0 time=160
note_on channel=0 note=73 velocity=76 time=0
note_on channel=0 note=73 velocity=0 time=160
note_on channel=0 note=79 velocity=76 time=0
note_on channel=0 note=79 velocity=0 time=160
note_on channel=0 note=71 velocity=81 time=0
<meta message set_tempo tempo=313316 time=480>
note_on channel=0 note=71 velocity=0 time=0
note_on channel=0 note=47 velocity=0 time=0
note_on channel=0 note=52 velocity=0 time=0
note_on channel=0 note=83 velocity=0 time=0
note_on channel=0 note=49 velocity=0 time=0
note_on channel=0 note=55 velocity=0 time=0
note_on channel=0 note=83 velocity=89 time=0
control_change channel=0 control=64 value=0 time=0
note_on channel=0 note=50 velocity=64 time=0
control_change channel=0 control=64 value=125 time=104
note_on channel=0 note=78 velocity=72 time=136
note_on channel=0 note=74 velocity=64 time=0
note_on channel=0 note=54 velocity=64 time=0
note_on channel=0 note=59 velocity=72 time=0
note_on channel=0 note=59 velocity=0 time=240
note_on channel=0 note=50 velocity=0 time=0
note_on channel=0 note=78 velocity=0 time=0
note_on channel=0 note=83 velocity=0 time=0
note_on channel=0 note=54 velocity=0 time=0
note_on channel=0 note=74 velocity=0 time=0
note_on channel=0 note=85 velocity=89 time=0
note_on channel=0 note=49 velocity=64 time=0
control_change channel=0 control=64 value=0 time=7
control_change channel=0 control=64 value=125 time=97
note_on channel=0 note=78 velocity=72 time=136
note_on channel=0 note=76 velocity=64 time=0
note_on channel=0 note=54 velocity=64 time=0
note_on channel=0 note=58 velocity=72 time=0
note_on channel=0 note=58 velocity=0 time=240
note_on channel=0 note=49 velocity=0 time=0
note_on channel=0 note=78 velocity=0 time=0
note_on channel=0 note=85 velocity=0 time=0
note_on channel=0 note=54 velocity=0 time=0
note_on channel=0 note=76 velocity=0 time=0
note_on channel=0 note=86 velocity=89 time=0
note_on channel=0 note=47 velocity=64 time=0
control_change channel=0 control=64 value=0 time=6
control_change channel=0 control=64 value=125 time=104
note_on channel=0 note=74 velocity=64 time=130
note_on channel=0 note=78 velocity=72 time=0
note_on channel=0 note=54 velocity=64 time=0
note_on channel=0 note=59 velocity=72 time=0
<meta message set_tempo tempo=333333 time=240>
note_on channel=0 note=59 velocity=0 time=0
note_on channel=0 note=47 velocity=0 time=0
note_on channel=0 note=74 velocity=0 time=0
note_on channel=0 note=86 velocity=0 time=0
note_on channel=0 note=54 velocity=0 time=0
note_on channel=0 note=78 velocity=0 time=0
note_on channel=0 note=85 velocity=89 time=0
note_on channel=0 note=42 velocity=97 time=0
control_change channel=0 control=64 value=0 time=6
control_change channel=0 control=64 value=127 time=125
note_on channel=0 note=42 velocity=0 time=349
note_on channel=0 note=73 velocity=81 time=0
note_on channel=0 note=58 velocity=81 time=0
note_on channel=0 note=54 velocity=72 time=0
note_on channel=0 note=73 velocity=0 time=160
note_on channel=0 note=78 velocity=76 time=0
note_on channel=0 note=78 velocity=0 time=160
note_on channel=0 note=82 velocity=76 time=0
<meta message set_tempo tempo=376176 time=160>
note_on channel=0 note=82 velocity=0 time=0
note_on channel=0 note=73 velocity=81 time=0
<meta message set_tempo tempo=333333 time=480>
note_on channel=0 note=73 velocity=0 time=0
note_on channel=0 note=54 velocity=0 time=0
note_on channel=0 note=58 velocity=0 time=0
note_on channel=0 note=85 velocity=0 time=0
note_on channel=0 note=86 velocity=97 time=0
note_on channel=0 note=46 velocity=97 time=0
control_change channel=0 control=64 value=0 time=4
control_change channel=0 control=64 value=127 time=151
note_on channel=0 note=46 velocity=0 time=325
note_on channel=0 note=74 velocity=81 time=0
note_on channel=0 note=53 velocity=72 time=0
note_on channel=0 note=56 velocity=72 time=0
note_on channel=0 note=58 velocity=81 time=0
note_on channel=0 note=74 velocity=0 time=160
note_on channel=0 note=77 velocity=77 time=0
note_on channel=0 note=77 velocity=0 time=160
note_on channel=0 note=82 velocity=77 time=0
note_on channel=0 note=82 velocity=0 time=160
note_on channel=0 note=74 velocity=81 time=0
note_on channel=0 note=74 velocity=0 time=480
note_on channel=0 note=58 velocity=0 time=0
note_on channel=0 note=86 velocity=0 time=0
note_on channel=0 note=53 velocity=0 time=0
note_on channel=0 note=56 velocity=0 time=0
note_on channel=0 note=87 velocity=97 time=0
note_on channel=0 note=39 velocity=97 time=0
control_change channel=0 control=64 value=0 time=5
control_change channel=0 control=64 value=127 time=155
note_on channel=0 note=39 velocity=0 time=320
note_on channel=0 note=75 velocity=81 time=0
note_on channel=0 note=51 velocity=72 time=0
note_on channel=0 note=54 velocity=72 time=0
note_on channel=0 note=58 velocity=81 time=0
note_on channel=0 note=75 velocity=0 time=160
note_on channel=0 note=78 velocity=77 time=0
note_on channel=0 note=78 velocity=0 time=160
note_on channel=0 note=82 velocity=77 time=0
note_on channel=0 note=82 velocity=0 time=160
note_on channel=0 note=75 velocity=81 time=0
<meta message set_tempo tempo=320856 time=480>
note_on channel=0 note=75 velocity=0 time=0
note_on channel=0 note=58 velocity=0 time=0
note_on channel=0 note=87 velocity=0 time=0
note_on channel=0 note=51 velocity=0 time=0
note_on channel=0 note=54 velocity=0 time=0
note_on channel=0 note=86 velocity=81 time=0
note_on channel=0 note=82 velocity=72 time=0
note_on channel=0 note=77 velocity=72 time=0
note_on channel=0 note=46 velocity=72 time=0
control_change channel=0 control=64 value=0 time=6
note_on channel=0 note=77 velocity=0 time=234
note_on channel=0 note=86 velocity=0 time=0
note_on channel=0 note=82 velocity=0 time=0
note_on channel=0 note=89 velocity=72 time=0
control_change channel=0 control=64 value=127 time=45
note_on channel=0 note=89 velocity=0 time=195
note_on channel=0 note=46 velocity=0 time=0
note_on channel=0 note=86 velocity=89 time=0
note_on channel=0 note=82 velocity=80 time=0
note_on channel=0 note=78 velocity=80 time=0
note_on channel=0 note=56 velocity=72 time=0
note_on channel=0 note=62 velocity=81 time=0
note_on channel=0 note=58 velocity=72 time=0
note_on channel=0 note=78 velocity=0 time=240
note_on channel=0 note=86 velocity=0 time=0
note_on channel=0 note=82 velocity=0 time=0
note_on channel=0 note=90 velocity=79 time=0
note_on channel=0 note=90 velocity=0 time=240
note_on channel=0 note=58 velocity=0 time=0
note_on channel=0 note=62 velocity=0 time=0
note_on channel=0 note=56 velocity=0 time=0
note_on channel=0 note=86 velocity=81 time=0
note_on channel=0 note=82 velocity=72 time=0
note_on channel=0 note=77 velocity=72 time=0
note_on channel=0 note=46 velocity=72 time=0
note_on channel=0 note=77 velocity=0 time=240
note_on channel=0 note=86 velocity=0 time=0
note_on channel=0 note=82 velocity=0 time=0
note_on channel=0 note=89 velocity=72 time=0
note_on channel=0 note=89 velocity=0 time=240
note_on channel=0 note=46 velocity=0 time=0
note_on channel=0 note=87 velocity=90 time=0
note_on channel=0 note=51 velocity=85 time=0
control_change channel=0 control=64 value=0 time=5
<meta message set_tempo tempo=333333 time=3>
control_change channel=0 control=64 value=127 time=152
note_on channel=0 note=51 velocity=0 time=320
note_on channel=0 note=75 velocity=72 time=0
note_on channel=0 note=63 velocity=74 time=0
note_on channel=0 note=58 velocity=66 time=0
note_on channel=0 note=54 velocity=66 time=0
note_on channel=0 note=75 velocity=0 time=160
note_on channel=0 note=78 velocity=68 time=0
note_on channel=0 note=78 velocity=0 time=160
note_on channel=0 note=82 velocity=68 time=0
<meta message set_tempo tempo=390879 time=160>
note_on channel=0 note=82 velocity=0 time=0
note_on channel=0 note=75 velocity=72 time=0
<meta message set_tempo tempo=333333 time=468>
note_on channel=0 note=75 velocity=0 time=12
note_on channel=0 note=54 velocity=0 time=0
note_on channel=0 note=87 velocity=0 time=0
note_on channel=0 note=63 velocity=0 time=0
note_on channel=0 note=58 velocity=0 time=0
note_on channel=0 note=94 velocity=97 time=0
control_change channel=0 control=64 value=0 time=0
note_on channel=0 note=46 velocity=90 time=0
control_change channel=0 control=64 value=126 time=176
note_on channel=0 note=46 velocity=0 time=304
note_on channel=0 note=82 velocity=75 time=0
note_on channel=0 note=68 velocity=74 time=0
note_on channel=0 note=65 velocity=66 time=0
note_on channel=0 note=62 velocity=66 time=0
note_on channel=0 note=58 velocity=66 time=0
note_on channel=0 note=82 velocity=0 time=160
note_on channel=0 note=89 velocity=71 time=0
note_on channel=0 note=89 velocity=0 time=160
note_on channel=0 note=92 velocity=71 time=0
note_on channel=0 note=92 velocity=0 time=160
note_on channel=0 note=82 velocity=75 time=0
<meta message set_tempo tempo=326087 time=480>
note_on channel=0 note=82 velocity=0 time=0
note_on channel=0 note=58 velocity=0 time=0
note_on channel=0 note=65 velocity=0 time=0
note_on channel=0 note=94 velocity=0 time=0
note_on channel=0 note=68 velocity=0 time=0
note_on channel=0 note=62 velocity=0 time=0
note_on channel=0 note=94 velocity=97 time=0
control_change channel=0 control=64 value=0 time=0
note_on channel=0 note=51 velocity=88 time=0
control_change channel=0 control=64 value=126 time=143
note_on channel=0 note=51 velocity=0 time=337
note_on channel=0 note=82 velocity=74 time=0
note_on channel=0 note=66 velocity=74 time=0
note_on channel=0 note=63 velocity=66 time=0
note_on channel=0 note=58 velocity=66 time=0
note_on channel=0 note=82 velocity=0 time=160
note_on channel=0 note=87 velocity=70 time=0
note_on channel=0 note=87 velocity=0 time=160
note_on channel=0 note=90 velocity=70 time=0
note_on channel=0 note=90 velocity=0 time=160
note_on channel=0 note=82 velocity=74 time=0
<meta message set_tempo tempo=303797 time=468>
note_on channel=0 note=82 velocity=0 time=12
note_on channel=0 note=58 velocity=0 time=0
note_on channel=0 note=94 velocity=0 time=0
note_on channel=0 note=66 velocity=0 time=0
note_on channel=0 note=63 velocity=0 time=0
note_on channel=0 note=80 velocity=72 time=0
note_on channel=0 note=89 velocity=81 time=0
note_on channel=0 note=56 velocity=64 time=0
note_on channel=0 note=59 velocity=64 time=0
note_on channel=0 note=65 velocity=72 time=0
control_change channel=0 control=64 value=0 time=7
control_change channel=0 control=64 value=125 time=141
note_on channel=0 note=89 velocity=0 time=92
note_on channel=0 note=80 velocity=0 time=0
note_on channel=0 note=92 velocity=76 time=0
note_on channel=0 note=92 velocity=0 time=240
note_on channel=0 note=65 velocity=0 time=0
note_on channel=0 note=56 velocity=0 time=0
note_on channel=0 note=59 velocity=0 time=0
note_on channel=0 note=78 velocity=72 time=0
note_on channel=0 note=87 velocity=81 time=0
note_on channel=0 note=66 velocity=73 time=0
note_on channel=0 note=63 velocity=65 time=0
note_on channel=0 note=58 velocity=65 time=0
control_change channel=0 control=64 value=0 time=5
control_change channel=0 control=64 value=125 time=109
note_on channel=0 note=87 velocity=0 time=126
note_on channel=0 note=78 velocity=0 time=0
note_on channel=0 note=90 velocity=77 time=0
note_on channel=0 note=90 velocity=0 time=240
note_on channel=0 note=58 velocity=0 time=0
note_on channel=0 note=66 velocity=0 time=0
note_on channel=0 note=63 velocity=0 time=0
note_on channel=0 note=77 velocity=72 time=0
note_on channel=0 note=86 velocity=81 time=0
note_on channel=0 note=58 velocity=65 time=0
note_on channel=0 note=65 velocity=65 time=0
note_on channel=0 note=68 velocity=73 time=0
control_change channel=0 control=64 value=0 time=5
control_change channel=0 control=64 value=125 time=132
note_on channel=0 note=86 velocity=0 time=103
note_on channel=0 note=77 velocity=0 time=0
note_on channel=0 note=89 velocity=78 time=0
<meta message set_tempo tempo=316623 time=240>
note_on channel=0 note=89 velocity=0 time=0
note_on channel=0 note=68 velocity=0 time=0
note_on channel=0 note=58 velocity=0 time=0
note_on channel=0 note=65 velocity=0 time=0
note_on channel=0 note=87 velocity=90 time=0
note_on channel=0 note=51 velocity=85 time=0
control_change channel=0 control=64 value=0 time=11
control_change channel=0 control=64 value=125 time=120
note_on channel=0 note=51 velocity=0 time=349
note_on channel=0 note=75 velocity=81 time=0
note_on channel=0 note=66 velocity=74 time=0
note_on channel=0 note=63 velocity=66 time=0
note_on channel=0 note=58 velocity=66 time=0
note_on channel=0 note=75 velocity=0 time=160
note_on channel=0 note=78 velocity=65 time=0
note_on channel=0 note=78 velocity=0 time=160
note_on channel=0 note=82 velocity=66 time=0
note_on channel=0 note=82 velocity=0 time=160
note_on channel=0 note=75 velocity=66 time=0
<meta message set_tempo tempo=352941 time=8>
<meta message set_tempo tempo=316623 time=472>
note_on channel=0 note=75 velocity=0 time=0
note_on channel=0 note=58 velocity=0 time=0
note_on channel=0 note=87 velocity=0 time=0
note_on channel=0 note=66 velocity=0 time=0
note_on channel=0 note=63 velocity=0 time=0
note_on channel=0 note=94 velocity=97 time=0
note_on channel=0 note=46 velocity=88 time=0
control_change channel=0 control=64 value=0 time=5
<meta message set_tempo tempo=315789 time=3>
control_change channel=0 control=64 value=124 time=154
note_on channel=0 note=46 velocity=0 time=318
note_on channel=0 note=82 velocity=72 time=0
note_on channel=0 note=68 velocity=74 time=0
note_on channel=0 note=65 velocity=66 time=0
note_on channel=0 note=62 velocity=66 time=0
note_on channel=0 note=58 velocity=66 time=0
note_on channel=0 note=82 velocity=0 time=160
note_on channel=0 note=89 velocity=68 time=0
note_on channel=0 note=89 velocity=0 time=160
note_on channel=0 note=92 velocity=68 time=0
note_on channel=0 note=92 velocity=0 time=160
note_on channel=0 note=82 velocity=72 time=0
<meta message set_tempo tempo=310881 time=480>
note_on channel=0 note=82 velocity=0 time=0
note_on channel=0 note=58 velocity=0 time=0
note_on channel=0 note=65 velocity=0 time=0
note_on channel=0 note=94 velocity=0 time=0
note_on channel=0 note=68 velocity=0 time=0
note_on channel=0 note=62 velocity=0 time=0
note_on channel=0 note=94 velocity=97 time=0
note_on channel=0 note=51 velocity=88 time=0
control_change channel=0 control=64 value=0 time=6
control_change channel=0 control=64 value=126 time=125
note_on channel=0 note=51 velocity=0 time=349
note_on channel=0 note=82 velocity=72 time=0
note_on channel=0 note=66 velocity=74 time=0
note_on channel=0 note=63 velocity=66 time=0
note_on channel=0 note=58 velocity=66 time=0
note_on channel=0 note=82 velocity=0 time=160
note_on channel=0 note=87 velocity=68 time=0
note_on channel=0 note=87 velocity=0 time=160
note_on channel=0 note=90 velocity=68 time=0
note_on channel=0 note=90 velocity=0 time=160
note_on channel=0 note=82 velocity=72 time=0
<meta message set_tempo tempo=290557 time=480>
note_on channel=0 note=82 velocity=0 time=0
note_on channel=0 note=58 velocity=0 time=0
note_on channel=0 note=94 velocity=0 time=0
note_on channel=0 note=66 velocity=0 time=0
note_on channel=0 note=63 velocity=0 time=0
note_on channel=0 note=80 velocity=72 time=0
note_on channel=0 note=89 velocity=81 time=0
note_on channel=0 note=56 velocity=65 time=0
note_on channel=0 note=59 velocity=65 time=0
note_on channel=0 note=65 velocity=73 time=0
control_change channel=0 control=64 value=0 time=5
control_change channel=0 control=64 value=125 time=143
note_on channel=0 note=89 velocity=0 time=92
note_on channel=0 note=80 velocity=0 time=0
note_on channel=0 note=92 velocity=81 time=0
note_on channel=0 note=92 velocity=0 time=240
note_on channel=0 note=65 velocity=0 time=0
note_on channel=0 note=56 velocity=0 time=0
note_on channel=0 note=59 velocity=0 time=0
note_on channel=0 note=78 velocity=72 time=0
note_on channel=0 note=87 velocity=81 time=0
note_on channel=0 note=66 velocity=73 time=0
note_on channel=0 note=63 velocity=65 time=0
note_on channel=0 note=58 velocity=65 time=0
control_change channel=0 control=64 value=0 time=4
control_change channel=0 control=64 value=125 time=121
note_on channel=0 note=87 velocity=0 time=115
note_on channel=0 note=78 velocity=0 time=0
note_on channel=0 note=90 velocity=81 time=0
note_on channel=0 note=90 velocity=0 time=240
note_on channel=0 note=58 velocity=0 time=0
note_on channel=0 note=66 velocity=0 time=0
note_on channel=0 note=63 velocity=0 time=0
note_on channel=0 note=77 velocity=72 time=0
note_on channel=0 note=86 velocity=81 time=0
note_on channel=0 note=58 velocity=65 time=0
note_on channel=0 note=65 velocity=65 time=0
note_on channel=0 note=68 velocity=73 time=0
control_change channel=0 control=64 value=0 time=11
control_change channel=0 control=64 value=125 time=137
note_on channel=0 note=86 velocity=0 time=92
note_on channel=0 note=77 velocity=0 time=0
note_on channel=0 note=89 velocity=80 time=0
<meta message set_tempo tempo=300752 time=240>
note_on channel=0 note=89 velocity=0 time=0
note_on channel=0 note=68 velocity=0 time=0
note_on channel=0 note=58 velocity=0 time=0
note_on channel=0 note=65 velocity=0 time=0
note_on channel=0 note=87 velocity=90 time=0
note_on channel=0 note=51 velocity=85 time=0
control_change channel=0 control=64 value=0 time=11
control_change channel=0 control=64 value=127 time=154
note_on channel=0 note=51 velocity=0 time=315
note_on channel=0 note=75 velocity=64 time=0
note_on channel=0 note=66 velocity=74 time=0
note_on channel=0 note=63 velocity=66 time=0
note_on channel=0 note=58 velocity=66 time=0
note_on channel=0 note=75 velocity=0 time=160
note_on channel=0 note=78 velocity=61 time=0
note_on channel=0 note=78 velocity=0 time=160
note_on channel=0 note=82 velocity=61 time=0
note_on channel=0 note=82 velocity=0 time=160
note_on channel=0 note=75 velocity=63 time=0
note_on channel=0 note=75 velocity=0 time=480
note_on channel=0 note=58 velocity=0 time=0
note_on channel=0 note=87 velocity=0 time=0
note_on channel=0 note=66 velocity=0 time=0
note_on channel=0 note=63 velocity=0 time=0
note_on channel=0 note=80 velocity=72 time=0
note_on channel=0 note=89 velocity=81 time=0
note_on channel=0 note=56 velocity=64 time=0
note_on channel=0 note=59 velocity=64 time=0
note_on channel=0 note=65 velocity=72 time=0
control_change channel=0 control=64 value=0 time=7
control_change channel=0 control=64 value=125 time=130
note_on channel=0 note=89 velocity=0 time=103
note_on channel=0 note=80 velocity=0 time=0
note_on channel=0 note=92 velocity=75 time=0
note_on channel=0 note=92 velocity=0 time=240
note_on channel=0 note=65 velocity=0 time=0
note_on channel=0 note=56 velocity=0 time=0
note_on channel=0 note=59 velocity=0 time=0
note_on channel=0 note=78 velocity=72 time=0
note_on channel=0 note=87 velocity=81 time=0
note_on channel=0 note=66 velocity=73 time=0
note_on channel=0 note=63 velocity=65 time=0
note_on channel=0 note=58 velocity=65 time=0
control_change channel=0 control=64 value=0 time=6
control_change channel=0 control=64 value=125 time=119
note_on channel=0 note=87 velocity=0 time=115
note_on channel=0 note=78 velocity=0 time=0
note_on channel=0 note=90 velocity=76 time=0
note_on channel=0 note=90 velocity=0 time=240
note_on channel=0 note=58 velocity=0 time=0
note_on channel=0 note=66 velocity=0 time=0
note_on channel=0 note=63 velocity=0 time=0
note_on channel=0 note=77 velocity=72 time=0
note_on channel=0 note=86 velocity=81 time=0
note_on channel=0 note=58 velocity=65 time=0
note_on channel=0 note=65 velocity=65 time=0
note_on channel=0 note=68 velocity=73 time=0
control_change channel=0 control=64 value=0 time=5
control_change channel=0 control=64 value=125 time=132
note_on channel=0 note=86 velocity=0 time=103
note_on channel=0 note=77 velocity=0 time=0
note_on channel=0 note=89 velocity=76 time=0
note_on channel=0 note=89 velocity=0 time=240
note_on channel=0 note=68 velocity=0 time=0
note_on channel=0 note=58 velocity=0 time=0
note_on channel=0 note=65 velocity=0 time=0
note_on channel=0 note=99 velocity=81 time=0
note_on channel=0 note=63 velocity=81 time=0
note_on channel=0 note=58 velocity=72 time=0
note_on channel=0 note=54 velocity=72 time=0
note_on channel=0 note=51 velocity=72 time=0
<meta message set_tempo tempo=285036 time=8>
control_change channel=0 control=64 value=0 time=3
control_change channel=0 control=64 value=125 time=103
note_on channel=0 note=99 velocity=0 time=46
note_on channel=0 note=95 velocity=76 time=0
note_on channel=0 note=95 velocity=0 time=160
note_on channel=0 note=94 velocity=78 time=0
note_on channel=0 note=94 velocity=0 time=160
note_on channel=0 note=92 velocity=81 time=0
note_on channel=0 note=92 velocity=0 time=160
note_on channel=0 note=90 velocity=76 time=0
note_on channel=0 note=90 velocity=0 time=160
note_on channel=0 note=89 velocity=76 time=0
note_on channel=0 note=89 velocity=0 time=160
note_on channel=0 note=51 velocity=0 time=0
note_on channel=0 note=63 velocity=0 time=0
note_on channel=0 note=58 velocity=0 time=0
note_on channel=0 note=54 velocity=0 time=0
note_on channel=0 note=87 velocity=93 time=0
note_on channel=0 note=56 velocity=57 time=0
note_on channel=0 note=59 velocity=57 time=0
note_on channel=0 note=63 velocity=63 time=0
note_on channel=0 note=51 velocity=57 time=0
control_change channel=0 control=64 value=0 time=5
note_on channel=0 note=51 velocity=0 time=235
note_on channel=0 note=59 velocity=0 time=0
note_on channel=0 note=87 velocity=0 time=0
note_on channel=0 note=56 velocity=0 time=0
note_on channel=0 note=63 velocity=0 time=0
<meta message set_tempo tempo=282353 time=228>
note_on channel=0 note=87 velocity=81 time=12
note_on channel=0 note=54 velocity=73 time=0
note_on channel=0 note=63 velocity=82 time=0
note_on channel=0 note=58 velocity=73 time=0
note_on channel=0 note=51 velocity=73 time=0
control_change channel=0 control=64 value=125 time=85
note_on channel=0 note=87 velocity=0 time=75
note_on channel=0 note=83 velocity=75 time=0
note_on channel=0 note=83 velocity=0 time=160
note_on channel=0 note=82 velocity=75 time=0
note_on channel=0 note=82 velocity=0 time=160
note_on channel=0 note=80 velocity=81 time=0
note_on channel=0 note=80 velocity=0 time=160
note_on channel=0 note=78 velocity=77 time=0
note_on channel=0 note=78 velocity=0 time=160
note_on channel=0 note=77 velocity=77 time=0
control_change channel=0 control=64 value=0 time=148
note_on channel=0 note=77 velocity=0 time=12
note_on channel=0 note=51 velocity=0 time=0
note_on channel=0 note=54 velocity=0 time=0
note_on channel=0 note=63 velocity=0 time=0
note_on channel=0 note=58 velocity=0 time=0
note_on channel=0 note=75 velocity=92 time=0
note_on channel=0 note=56 velocity=57 time=0
note_on channel=0 note=63 velocity=64 time=0
note_on channel=0 note=59 velocity=57 time=0
note_on channel=0 note=51 velocity=57 time=0
note_on channel=0 note=51 velocity=0 time=240
note_on channel=0 note=63 velocity=0 time=0
note_on channel=0 note=75 velocity=0 time=0
note_on channel=0 note=56 velocity=0 time=0
note_on channel=0 note=59 velocity=0 time=0
<meta message set_tempo tempo=281030 time=228>
<meta message set_tempo tempo=280374 time=12>
note_on channel=0 note=75 velocity=81 time=0
note_on channel=0 note=51 velocity=86 time=0
note_on channel=0 note=46 velocity=77 time=0
note_on channel=0 note=42 velocity=77 time=0
note_on channel=0 note=39 velocity=77 time=0
control_change channel=0 control=64 value=125 time=85
note_on channel=0 note=75 velocity=0 time=75
note_on channel=0 note=71 velocity=76 time=0
note_on channel=0 note=71 velocity=0 time=160
note_on channel=0 note=70 velocity=76 time=0
note_on channel=0 note=70 velocity=0 time=160
note_on channel=0 note=68 velocity=81 time=0
note_on channel=0 note=68 velocity=0 time=160
note_on channel=0 note=66 velocity=76 time=0
note_on channel=0 note=66 velocity=0 time=160
note_on channel=0 note=65 velocity=76 time=0
control_change channel=0 control=64 value=0 time=143
note_on channel=0 note=65 velocity=0 time=17
note_on channel=0 note=39 velocity=0 time=0
note_on channel=0 note=51 velocity=0 time=0
note_on channel=0 note=46 velocity=0 time=0
note_on channel=0 note=42 velocity=0 time=0
note_on channel=0 note=63 velocity=91 time=0
note_on channel=0 note=44 velocity=61 time=0
note_on channel=0 note=51 velocity=68 time=0
note_on channel=0 note=47 velocity=61 time=0
note_on channel=0 note=39 velocity=61 time=0
note_on channel=0 note=39 velocity=0 time=240
note_on channel=0 note=51 velocity=0 time=0
note_on channel=0 note=63 velocity=0 time=0
note_on channel=0 note=44 velocity=0 time=0
note_on channel=0 note=47 velocity=0 time=0
<meta message set_tempo tempo=278422 time=228>
note_on channel=0 note=63 velocity=81 time=12
note_on channel=0 note=51 velocity=81 time=0
note_on channel=0 note=46 velocity=72 time=0
note_on channel=0 note=42 velocity=72 time=0
note_on channel=0 note=39 velocity=72 time=0
control_change channel=0 control=64 value=125 time=74
note_on channel=0 note=63 velocity=0 time=86
note_on channel=0 note=59 velocity=76 time=0
note_on channel=0 note=59 velocity=0 time=160
note_on channel=0 note=58 velocity=76 time=0
note_on channel=0 note=58 velocity=0 time=160
note_on channel=0 note=56 velocity=81 time=0
note_on channel=0 note=56 velocity=0 time=160
note_on channel=0 note=54 velocity=76 time=0
note_on channel=0 note=54 velocity=0 time=160
note_on channel=0 note=53 velocity=78 time=0
note_on channel=0 note=53 velocity=0 time=160
note_on channel=0 note=39 velocity=0 time=0
note_on channel=0 note=51 velocity=0 time=0
note_on channel=0 note=46 velocity=0 time=0
note_on channel=0 note=42 velocity=0 time=0
note_on channel=0 note=51 velocity=91 time=0
note_on channel=0 note=47 velocity=64 time=0
note_on channel=0 note=44 velocity=57 time=0
note_on channel=0 note=39 velocity=57 time=0
control_change channel=0 control=64 value=0 time=11
note_on channel=0 note=51 velocity=0 time=109
note_on channel=0 note=47 velocity=0 time=120
note_on channel=0 note=44 velocity=0 time=0
note_on channel=0 note=39 velocity=0 time=0
<meta message set_tempo tempo=278422 time=240>
note_on channel=0 note=63 velocity=89 time=0
note_on channel=0 note=39 velocity=72 time=0
note_on channel=0 note=42 velocity=72 time=0
note_on channel=0 note=46 velocity=72 time=0
note_on channel=0 note=51 velocity=72 time=0
note_on channel=0 note=54 velocity=72 time=0
note_on channel=0 note=58 velocity=80 time=0
note_on channel=0 note=58 velocity=0 time=240
note_on channel=0 note=51 velocity=0 time=0
note_on channel=0 note=39 velocity=0 time=0
note_on channel=0 note=42 velocity=0 time=0
note_on channel=0 note=63 velocity=0 time=0
note_on channel=0 note=54 velocity=0 time=0
note_on channel=0 note=46 velocity=0 time=0
<meta message set_tempo tempo=279070 time=40>
note_on channel=0 note=63 velocity=89 time=200
note_on channel=0 note=59 velocity=80 time=0
note_on channel=0 note=56 velocity=72 time=0
note_on channel=0 note=51 velocity=72 time=0
note_on channel=0 note=47 velocity=72 time=0
note_on channel=0 note=44 velocity=72 time=0
note_on channel=0 note=39 velocity=72 time=0
<meta message set_tempo tempo=279720 time=60>
note_on channel=0 note=39 velocity=0 time=180
note_on channel=0 note=47 velocity=0 time=0
note_on channel=0 note=59 velocity=0 time=0
note_on channel=0 note=56 velocity=0 time=0
note_on channel=0 note=63 velocity=0 time=0
note_on channel=0 note=44 velocity=0 time=0
note_on channel=0 note=51 velocity=0 time=0
<meta message set_tempo tempo=280374 time=80>
note_on channel=0 note=63 velocity=89 time=160
note_on channel=0 note=51 velocity=72 time=0
note_on channel=0 note=39 velocity=72 time=0
note_on channel=0 note=42 velocity=72 time=0
note_on channel=0 note=46 velocity=72 time=0
note_on channel=0 note=54 velocity=72 time=0
note_on channel=0 note=58 velocity=80 time=0
<meta message set_tempo tempo=281030 time=100>
note_on channel=0 note=58 velocity=0 time=140
note_on channel=0 note=46 velocity=0 time=0
note_on channel=0 note=51 velocity=0 time=0
note_on channel=0 note=39 velocity=0 time=0
note_on channel=0 note=63 velocity=0 time=0
note_on channel=0 note=54 velocity=0 time=0
note_on channel=0 note=42 velocity=0 time=0
<meta message set_tempo tempo=281690 time=120>
note_on channel=0 note=63 velocity=89 time=120
note_on channel=0 note=59 velocity=80 time=0
note_on channel=0 note=56 velocity=72 time=0
note_on channel=0 note=51 velocity=72 time=0
note_on channel=0 note=47 velocity=72 time=0
note_on channel=0 note=44 velocity=72 time=0
note_on channel=0 note=39 velocity=72 time=0
<meta message set_tempo tempo=281030 time=20>
<meta message set_tempo tempo=281690 time=100>
<meta message set_tempo tempo=282353 time=100>
note_on channel=0 note=39 velocity=0 time=20
note_on channel=0 note=47 velocity=0 time=0
note_on channel=0 note=59 velocity=0 time=0
note_on channel=0 note=56 velocity=0 time=0
note_on channel=0 note=63 velocity=0 time=0
note_on channel=0 note=44 velocity=0 time=0
note_on channel=0 note=51 velocity=0 time=0
<meta message set_tempo tempo=283019 time=80>
<meta message set_tempo tempo=283688 time=80>
note_on channel=0 note=63 velocity=89 time=80
note_on channel=0 note=51 velocity=72 time=0
note_on channel=0 note=39 velocity=72 time=0
note_on channel=0 note=42 velocity=72 time=0
note_on channel=0 note=46 velocity=72 time=0
note_on channel=0 note=54 velocity=72 time=0
note_on channel=0 note=58 velocity=80 time=0
<meta message set_tempo tempo=284360 time=20>
<meta message set_tempo tempo=285036 time=100>
<meta message set_tempo tempo=285714 time=100>
note_on channel=0 note=58 velocity=0 time=20
note_on channel=0 note=46 velocity=0 time=0
note_on channel=0 note=51 velocity=0 time=0
note_on channel=0 note=39 velocity=0 time=0
note_on channel=0 note=63 velocity=0 time=0
note_on channel=0 note=54 velocity=0 time=0
note_on channel=0 note=42 velocity=0 time=0
<meta message set_tempo tempo=286396 time=60>
<meta message set_tempo tempo=287081 time=100>
note_on channel=0 note=63 velocity=89 time=80
note_on channel=0 note=51 velocity=72 time=0
note_on channel=0 note=59 velocity=80 time=0
note_on channel=0 note=56 velocity=72 time=0
note_on channel=0 note=47 velocity=72 time=0
note_on channel=0 note=44 velocity=72 time=0
note_on channel=0 note=39 velocity=72 time=0
<meta message set_tempo tempo=287770 time=20>
<meta message set_tempo tempo=288462 time=100>
<meta message set_tempo tempo=289157 time=80>
note_on channel=0 note=39 velocity=0 time=40
note_on channel=0 note=47 velocity=0 time=0
note_on channel=0 note=51 velocity=0 time=0
note_on channel=0 note=59 velocity=0 time=0
note_on channel=0 note=63 velocity=0 time=0
note_on channel=0 note=44 velocity=0 time=0
note_on channel=0 note=56 velocity=0 time=0
<meta message set_tempo tempo=289855 time=60>
<meta message set_tempo tempo=290557 time=100>
<meta message set_tempo tempo=306905 time=80>
note_on channel=0 note=74 velocity=97 time=0
note_on channel=0 note=70 velocity=87 time=0
note_on channel=0 note=65 velocity=87 time=0
note_on channel=0 note=62 velocity=87 time=0
note_on channel=0 note=34 velocity=78 time=0
note_on channel=0 note=46 velocity=87 time=0
control_change channel=0 control=64 value=125 time=53
control_change channel=0 control=64 value=0 time=347
note_on channel=0 note=46 velocity=0 time=80
note_on channel=0 note=70 velocity=0 time=0
note_on channel=0 note=65 velocity=0 time=0
note_on channel=0 note=74 velocity=0 time=0
note_on channel=0 note=34 velocity=0 time=0
note_on channel=0 note=62 velocity=0 time=0
note_on channel=0 note=63 velocity=87 time=960
note_on channel=0 note=66 velocity=87 time=0
note_on channel=0 note=70 velocity=87 time=0
note_on channel=0 note=75 velocity=97 time=0
note_on channel=0 note=46 velocity=78 time=0
note_on channel=0 note=39 velocity=78 time=0
note_on channel=0 note=51 velocity=87 time=0
control_change channel=0 control=64 value=125 time=23
control_change channel=0 control=64 value=0 time=366
<meta message marker text='Fine' time=91>
note_on channel=0 note=51 velocity=0 time=0
note_on channel=0 note=46 velocity=0 time=0
note_on channel=0 note=66 velocity=0 time=0
note_on channel=0 note=70 velocity=0 time=0
note_on channel=0 note=63 velocity=0 time=0
note_on channel=0 note=39 velocity=0 time=0
note_on channel=0 note=75 velocity=0 time=0
<meta message end_of_track time=0>
