<meta message track_name name='Vier Impromptus Opus 90 D 899' time=0>
<meta message track_name name='Impromptu Nr. 3 Ges-Dur' time=0>
<meta message copyright text='Copyright © 2007 von Bernd Krüger.' time=0>
<meta message text text='Schubert' time=0>
<meta message text text='Andante' time=0>
<meta message text text='Erstellt am 7.8.2007\n' time=0>
<meta message text text='Update am 19.3.2014\n' time=0>
<meta message text text='Dauer: 5:46 Minuten\n' time=0>
<meta message time_signature numerator=8 denominator=4 clocks_per_click=24 notated_32nd_notes_per_beat=8 time=0>
<meta message key_signature key='Gb' time=0>
<meta message set_tempo tempo=540833 time=0>
program_change channel=0 program=0 time=0
control_change channel=0 control=7 value=100 time=0
control_change channel=0 control=10 value=64 time=0
note_on channel=0 note=70 velocity=44 time=0
program_change channel=0 program=0 time=0
control_change channel=0 control=7 value=100 time=0
control_change channel=0 control=10 value=64 time=0
note_on channel=0 note=42 velocity=29 time=0
note_on channel=0 note=49 velocity=35 time=0
control_change channel=0 control=64 value=127 time=7
<meta message set_tempo tempo=540833 time=13>
<meta message set_tempo tempo=538648 time=60>
<meta message set_tempo tempo=536481 time=60>
note_on channel=0 note=58 velocity=26 time=20
<meta message set_tempo tempo=534331 time=40>
<meta message set_tempo tempo=532198 time=60>
<meta message set_tempo tempo=530035 time=60>
note_on channel=0 note=58 velocity=0 time=0
note_on channel=0 note=61 velocity=26 time=0
<meta message set_tempo tempo=527937 time=60>
<meta message set_tempo tempo=525855 time=60>
note_on channel=0 note=61 velocity=0 time=40
note_on channel=0 note=66 velocity=29 time=0
<meta message set_tempo tempo=523789 time=20>
<meta message set_tempo tempo=521739 time=60>
<meta message set_tempo tempo=519706 time=60>
note_on channel=0 note=66 velocity=0 time=20
note_on channel=0 note=61 velocity=25 time=0
<meta message set_tempo tempo=517688 time=40>
<meta message set_tempo tempo=515685 time=60>
<meta message set_tempo tempo=513699 time=60>
note_on channel=0 note=61 velocity=0 time=0
note_on channel=0 note=58 velocity=22 time=0
<meta message set_tempo tempo=511727 time=60>
<meta message set_tempo tempo=509727 time=60>
note_on channel=0 note=58 velocity=0 time=40
note_on channel=0 note=61 velocity=30 time=0
<meta message set_tempo tempo=507786 time=20>
<meta message set_tempo tempo=505860 time=60>
<meta message set_tempo tempo=503948 time=60>
note_on channel=0 note=61 velocity=0 time=20
note_on channel=0 note=58 velocity=25 time=0
<meta message set_tempo tempo=502050 time=40>
<meta message set_tempo tempo=500167 time=60>
<meta message set_tempo tempo=498297 time=60>
note_on channel=0 note=58 velocity=0 time=0
note_on channel=0 note=61 velocity=25 time=0
<meta message set_tempo tempo=496442 time=60>
<meta message set_tempo tempo=494601 time=60>
note_on channel=0 note=61 velocity=0 time=40
note_on channel=0 note=66 velocity=29 time=0
<meta message set_tempo tempo=492773 time=20>
note_on channel=0 note=66 velocity=0 time=140
note_on channel=0 note=61 velocity=26 time=0
note_on channel=0 note=61 velocity=0 time=160
note_on channel=0 note=58 velocity=23 time=0
<meta message set_tempo tempo=489117 time=160>
note_on channel=0 note=58 velocity=0 time=0
note_on channel=0 note=70 velocity=0 time=0
note_on channel=0 note=42 velocity=0 time=0
note_on channel=0 note=49 velocity=0 time=0
note_on channel=0 note=70 velocity=41 time=0
note_on channel=0 note=49 velocity=35 time=0
note_on channel=0 note=42 velocity=29 time=0
note_on channel=0 note=58 velocity=27 time=160
note_on channel=0 note=58 velocity=0 time=160
note_on channel=0 note=61 velocity=29 time=0
<meta message set_tempo tempo=490918 time=160>
note_on channel=0 note=61 velocity=0 time=0
note_on channel=0 note=66 velocity=31 time=0
note_on channel=0 note=66 velocity=0 time=160
note_on channel=0 note=61 velocity=26 time=0
note_on channel=0 note=61 velocity=0 time=160
note_on channel=0 note=58 velocity=29 time=0
<meta message set_tempo tempo=487329 time=80>
<meta message set_tempo tempo=489117 time=80>
note_on channel=0 note=58 velocity=0 time=0
note_on channel=0 note=70 velocity=0 time=0
note_on channel=0 note=49 velocity=0 time=0
note_on channel=0 note=42 velocity=0 time=0
note_on channel=0 note=70 velocity=44 time=0
note_on channel=0 note=42 velocity=29 time=0
note_on channel=0 note=49 velocity=35 time=0
<meta message set_tempo tempo=490918 time=80>
<meta message set_tempo tempo=492773 time=80>
note_on channel=0 note=58 velocity=28 time=0
<meta message set_tempo tempo=494601 time=40>
<meta message set_tempo tempo=496442 time=80>
note_on channel=0 note=58 velocity=0 time=40
note_on channel=0 note=61 velocity=30 time=0
<meta message set_tempo tempo=498297 time=40>
<meta message set_tempo tempo=500167 time=40>
<meta message set_tempo tempo=517688 time=40>
<meta message set_tempo tempo=540833 time=40>
note_on channel=0 note=61 velocity=0 time=0
note_on channel=0 note=66 velocity=35 time=0
note_on channel=0 note=66 velocity=0 time=160
note_on channel=0 note=61 velocity=31 time=0
note_on channel=0 note=61 velocity=0 time=160
note_on channel=0 note=58 velocity=33 time=0
<meta message set_tempo tempo=543036 time=80>
note_on channel=0 note=58 velocity=0 time=80
note_on channel=0 note=70 velocity=0 time=0
note_on channel=0 note=42 velocity=0 time=0
note_on channel=0 note=49 velocity=0 time=0
note_on channel=0 note=70 velocity=49 time=0
note_on channel=0 note=51 velocity=35 time=0
note_on channel=0 note=39 velocity=29 time=0
control_change channel=0 control=64 value=0 time=5
<meta message set_tempo tempo=538648 time=15>
<meta message set_tempo tempo=536481 time=80>
control_change channel=0 control=64 value=127 time=27
<meta message set_tempo tempo=534331 time=33>
note_on channel=0 note=58 velocity=27 time=0
<meta message set_tempo tempo=532198 time=80>
<meta message set_tempo tempo=530035 time=60>
note_on channel=0 note=58 velocity=0 time=20
note_on channel=0 note=63 velocity=27 time=0
<meta message set_tempo tempo=527937 time=60>
<meta message set_tempo tempo=525855 time=60>
note_on channel=0 note=63 velocity=0 time=40
note_on channel=0 note=66 velocity=34 time=0
<meta message set_tempo tempo=523789 time=20>
<meta message set_tempo tempo=521739 time=80>
<meta message set_tempo tempo=519706 time=60>
note_on channel=0 note=66 velocity=0 time=0
note_on channel=0 note=63 velocity=29 time=0
<meta message set_tempo tempo=517688 time=80>
<meta message set_tempo tempo=515685 time=60>
note_on channel=0 note=63 velocity=0 time=20
note_on channel=0 note=58 velocity=26 time=0
<meta message set_tempo tempo=513699 time=60>
<meta message set_tempo tempo=511727 time=60>
note_on channel=0 note=58 velocity=0 time=40
note_on channel=0 note=63 velocity=37 time=0
<meta message set_tempo tempo=509727 time=20>
<meta message set_tempo tempo=507786 time=80>
<meta message set_tempo tempo=505860 time=60>
note_on channel=0 note=63 velocity=0 time=0
note_on channel=0 note=58 velocity=29 time=0
<meta message set_tempo tempo=503948 time=80>
<meta message set_tempo tempo=502050 time=60>
note_on channel=0 note=58 velocity=0 time=20
note_on channel=0 note=63 velocity=29 time=0
<meta message set_tempo tempo=500167 time=60>
<meta message set_tempo tempo=498297 time=60>
note_on channel=0 note=63 velocity=0 time=40
note_on channel=0 note=66 velocity=36 time=0
<meta message set_tempo tempo=496442 time=20>
note_on channel=0 note=66 velocity=0 time=140
note_on channel=0 note=63 velocity=29 time=0
note_on channel=0 note=63 velocity=0 time=160
note_on channel=0 note=58 velocity=25 time=0
<meta message set_tempo tempo=489117 time=160>
note_on channel=0 note=58 velocity=0 time=0
note_on channel=0 note=70 velocity=0 time=0
note_on channel=0 note=66 velocity=49 time=0
note_on channel=0 note=54 velocity=30 time=160
note_on channel=0 note=54 velocity=0 time=160
note_on channel=0 note=58 velocity=30 time=0
note_on channel=0 note=58 velocity=0 time=160
note_on channel=0 note=63 velocity=36 time=0
note_on channel=0 note=63 velocity=0 time=160
note_on channel=0 note=58 velocity=30 time=0
note_on channel=0 note=58 velocity=0 time=160
note_on channel=0 note=54 velocity=30 time=0
<meta message set_tempo tempo=500167 time=140>
note_on channel=0 note=54 velocity=0 time=20
note_on channel=0 note=58 velocity=37 time=0
<meta message set_tempo tempo=502050 time=40>
<meta message set_tempo tempo=503948 time=60>
<meta message set_tempo tempo=505860 time=60>
note_on channel=0 note=58 velocity=0 time=0
note_on channel=0 note=54 velocity=30 time=0
<meta message set_tempo tempo=507786 time=60>
<meta message set_tempo tempo=509727 time=60>
note_on channel=0 note=54 velocity=0 time=40
note_on channel=0 note=58 velocity=30 time=0
<meta message set_tempo tempo=511727 time=20>
<meta message set_tempo tempo=513699 time=60>
<meta message set_tempo tempo=515685 time=60>
<meta message set_tempo tempo=540833 time=20>
note_on channel=0 note=58 velocity=0 time=0
note_on channel=0 note=63 velocity=35 time=0
note_on channel=0 note=63 velocity=0 time=160
note_on channel=0 note=58 velocity=30 time=0
note_on channel=0 note=58 velocity=0 time=160
note_on channel=0 note=54 velocity=27 time=0
<meta message set_tempo tempo=540833 time=160>
note_on channel=0 note=54 velocity=0 time=0
note_on channel=0 note=51 velocity=0 time=0
note_on channel=0 note=39 velocity=0 time=0
note_on channel=0 note=66 velocity=0 time=0
note_on channel=0 note=68 velocity=49 time=0
note_on channel=0 note=35 velocity=29 time=0
note_on channel=0 note=47 velocity=35 time=0
control_change channel=0 control=64 value=0 time=0
<meta message set_tempo tempo=523789 time=20>
<meta message set_tempo tempo=521739 time=20>
<meta message set_tempo tempo=519706 time=80>
control_change channel=0 control=64 value=127 time=7
note_on channel=0 note=56 velocity=29 time=33
<meta message set_tempo tempo=517688 time=20>
<meta message set_tempo tempo=515685 time=80>
<meta message set_tempo tempo=513699 time=60>
note_on channel=0 note=56 velocity=0 time=0
note_on channel=0 note=59 velocity=29 time=0
<meta message set_tempo tempo=511727 time=80>
<meta message set_tempo tempo=509727 time=60>
note_on channel=0 note=59 velocity=0 time=20
note_on channel=0 note=63 velocity=37 time=0
<meta message set_tempo tempo=507786 time=60>
<meta message set_tempo tempo=505860 time=60>
note_on channel=0 note=63 velocity=0 time=40
note_on channel=0 note=59 velocity=29 time=0
<meta message set_tempo tempo=503948 time=40>
<meta message set_tempo tempo=502050 time=60>
<meta message set_tempo tempo=500167 time=60>
note_on channel=0 note=59 velocity=0 time=0
note_on channel=0 note=56 velocity=29 time=0
<meta message set_tempo tempo=498297 time=80>
<meta message set_tempo tempo=496442 time=60>
note_on channel=0 note=56 velocity=0 time=20
note_on channel=0 note=59 velocity=37 time=0
<meta message set_tempo tempo=494601 time=60>
<meta message set_tempo tempo=492773 time=60>
note_on channel=0 note=59 velocity=0 time=40
note_on channel=0 note=56 velocity=29 time=0
<meta message set_tempo tempo=490918 time=40>
<meta message set_tempo tempo=489117 time=60>
note_on channel=0 note=56 velocity=0 time=60
note_on channel=0 note=59 velocity=29 time=0
<meta message set_tempo tempo=487329 time=20>
<meta message set_tempo tempo=485555 time=60>
<meta message set_tempo tempo=483793 time=60>
<meta message set_tempo tempo=483793 time=20>
note_on channel=0 note=59 velocity=0 time=0
note_on channel=0 note=63 velocity=36 time=0
note_on channel=0 note=63 velocity=0 time=160
note_on channel=0 note=59 velocity=29 time=0
note_on channel=0 note=59 velocity=0 time=160
note_on channel=0 note=56 velocity=29 time=0
<meta message set_tempo tempo=485555 time=160>
note_on channel=0 note=56 velocity=0 time=0
note_on channel=0 note=68 velocity=0 time=0
note_on channel=0 note=35 velocity=0 time=0
note_on channel=0 note=47 velocity=0 time=0
note_on channel=0 note=66 velocity=46 time=0
note_on channel=0 note=37 velocity=29 time=0
note_on channel=0 note=49 velocity=35 time=0
control_change channel=0 control=64 value=0 time=15
control_change channel=0 control=64 value=127 time=98
note_on channel=0 note=56 velocity=29 time=47
note_on channel=0 note=56 velocity=0 time=160
note_on channel=0 note=59 velocity=29 time=0
note_on channel=0 note=59 velocity=0 time=160
note_on channel=0 note=66 velocity=0 time=0
note_on channel=0 note=65 velocity=45 time=0
<meta message set_tempo tempo=492773 time=20>
<meta message set_tempo tempo=494601 time=100>
note_on channel=0 note=56 velocity=28 time=40
<meta message set_tempo tempo=496442 time=60>
<meta message set_tempo tempo=498297 time=80>
note_on channel=0 note=56 velocity=0 time=20
note_on channel=0 note=59 velocity=28 time=0
<meta message set_tempo tempo=500167 time=80>
<meta message set_tempo tempo=505860 time=80>
note_on channel=0 note=59 velocity=0 time=0
note_on channel=0 note=65 velocity=0 time=0
note_on channel=0 note=63 velocity=44 time=0
note_on channel=0 note=56 velocity=29 time=160
note_on channel=0 note=56 velocity=0 time=160
note_on channel=0 note=59 velocity=30 time=0
<meta message set_tempo tempo=517688 time=160>
note_on channel=0 note=59 velocity=0 time=0
note_on channel=0 note=63 velocity=0 time=0
note_on channel=0 note=49 velocity=0 time=0
note_on channel=0 note=37 velocity=0 time=0
note_on channel=0 note=61 velocity=40 time=0
note_on channel=0 note=47 velocity=20 time=0
note_on channel=0 note=49 velocity=26 time=0
note_on channel=0 note=53 velocity=29 time=160
note_on channel=0 note=53 velocity=0 time=160
note_on channel=0 note=56 velocity=30 time=0
<meta message set_tempo tempo=534331 time=160>
note_on channel=0 note=56 velocity=0 time=0
note_on channel=0 note=49 velocity=0 time=0
note_on channel=0 note=47 velocity=0 time=0
note_on channel=0 note=61 velocity=0 time=0
note_on channel=0 note=66 velocity=49 time=0
note_on channel=0 note=46 velocity=29 time=0
note_on channel=0 note=49 velocity=35 time=0
control_change channel=0 control=64 value=0 time=6
<meta message set_tempo tempo=536481 time=14>
<meta message set_tempo tempo=534331 time=80>
control_change channel=0 control=64 value=127 time=15
<meta message set_tempo tempo=532198 time=45>
note_on channel=0 note=54 velocity=32 time=0
<meta message set_tempo tempo=530035 time=60>
<meta message set_tempo tempo=527937 time=60>
note_on channel=0 note=54 velocity=0 time=40
note_on channel=0 note=58 velocity=33 time=0
<meta message set_tempo tempo=525855 time=40>
<meta message set_tempo tempo=523789 time=60>
<meta message set_tempo tempo=521739 time=60>
note_on channel=0 note=58 velocity=0 time=0
note_on channel=0 note=66 velocity=0 time=0
note_on channel=0 note=61 velocity=35 time=0
<meta message set_tempo tempo=519706 time=60>
<meta message set_tempo tempo=517688 time=80>
note_on channel=0 note=61 velocity=0 time=20
note_on channel=0 note=58 velocity=36 time=0
<meta message set_tempo tempo=515685 time=40>
<meta message set_tempo tempo=513699 time=60>
<meta message set_tempo tempo=511727 time=60>
note_on channel=0 note=58 velocity=0 time=0
note_on channel=0 note=54 velocity=38 time=0
<meta message set_tempo tempo=509727 time=60>
<meta message set_tempo tempo=507786 time=80>
note_on channel=0 note=54 velocity=0 time=20
note_on channel=0 note=49 velocity=0 time=0
note_on channel=0 note=46 velocity=0 time=0
note_on channel=0 note=70 velocity=48 time=0
note_on channel=0 note=51 velocity=35 time=0
note_on channel=0 note=42 velocity=29 time=0
control_change channel=0 control=64 value=0 time=8
<meta message set_tempo tempo=505860 time=32>
control_change channel=0 control=64 value=127 time=46
<meta message set_tempo tempo=503948 time=14>
<meta message set_tempo tempo=502050 time=60>
note_on channel=0 note=60 velocity=38 time=0
<meta message set_tempo tempo=500167 time=80>
<meta message set_tempo tempo=498297 time=60>
note_on channel=0 note=60 velocity=0 time=20
note_on channel=0 note=63 velocity=36 time=0
<meta message set_tempo tempo=496442 time=40>
<meta message set_tempo tempo=494601 time=60>
<meta message set_tempo tempo=492773 time=60>
note_on channel=0 note=63 velocity=0 time=0
note_on channel=0 note=70 velocity=0 time=0
note_on channel=0 note=66 velocity=35 time=0
note_on channel=0 note=66 velocity=0 time=160
note_on channel=0 note=63 velocity=33 time=0
note_on channel=0 note=63 velocity=0 time=160
note_on channel=0 note=60 velocity=32 time=0
note_on channel=0 note=42 velocity=0 time=40
note_on channel=0 note=51 velocity=0 time=0
note_on channel=0 note=37 velocity=29 time=0
note_on channel=0 note=60 velocity=0 time=120
note_on channel=0 note=68 velocity=41 time=0
note_on channel=0 note=53 velocity=35 time=0
control_change channel=0 control=64 value=0 time=10
<meta message set_tempo tempo=485555 time=30>
control_change channel=0 control=64 value=127 time=80
note_on channel=0 note=56 velocity=27 time=40
note_on channel=0 note=56 velocity=0 time=160
note_on channel=0 note=61 velocity=27 time=0
note_on channel=0 note=61 velocity=0 time=160
note_on channel=0 note=65 velocity=30 time=0
note_on channel=0 note=65 velocity=0 time=160
note_on channel=0 note=61 velocity=27 time=0
note_on channel=0 note=61 velocity=0 time=160
note_on channel=0 note=56 velocity=27 time=0
<meta message set_tempo tempo=498297 time=100>
<meta message set_tempo tempo=500167 time=40>
note_on channel=0 note=56 velocity=0 time=20
note_on channel=0 note=61 velocity=30 time=0
<meta message set_tempo tempo=502050 time=20>
<meta message set_tempo tempo=503948 time=40>
<meta message set_tempo tempo=505860 time=40>
<meta message set_tempo tempo=507786 time=40>
note_on channel=0 note=61 velocity=0 time=20
note_on channel=0 note=56 velocity=27 time=0
<meta message set_tempo tempo=509727 time=20>
<meta message set_tempo tempo=511727 time=40>
<meta message set_tempo tempo=513699 time=40>
<meta message set_tempo tempo=515685 time=40>
note_on channel=0 note=56 velocity=0 time=20
note_on channel=0 note=61 velocity=27 time=0
<meta message set_tempo tempo=517688 time=20>
<meta message set_tempo tempo=519706 time=40>
<meta message set_tempo tempo=521739 time=40>
<meta message set_tempo tempo=523789 time=40>
<meta message set_tempo tempo=540833 time=20>
note_on channel=0 note=61 velocity=0 time=0
note_on channel=0 note=68 velocity=0 time=0
note_on channel=0 note=65 velocity=31 time=0
note_on channel=0 note=69 velocity=39 time=0
control_change channel=0 control=64 value=0 time=14
control_change channel=0 control=64 value=127 time=72
note_on channel=0 note=65 velocity=0 time=74
note_on channel=0 note=61 velocity=24 time=0
note_on channel=0 note=61 velocity=0 time=160
note_on channel=0 note=57 velocity=24 time=0
<meta message set_tempo tempo=540833 time=160>
note_on channel=0 note=57 velocity=0 time=0
note_on channel=0 note=37 velocity=0 time=0
note_on channel=0 note=53 velocity=0 time=0
note_on channel=0 note=69 velocity=0 time=0
note_on channel=0 note=70 velocity=44 time=0
note_on channel=0 note=49 velocity=35 time=0
note_on channel=0 note=42 velocity=29 time=0
control_change channel=0 control=64 value=0 time=0
<meta message set_tempo tempo=540833 time=20>
<meta message set_tempo tempo=538648 time=60>
<meta message set_tempo tempo=536481 time=60>
note_on channel=0 note=58 velocity=26 time=20
<meta message set_tempo tempo=534331 time=40>
control_change channel=0 control=64 value=127 time=40
<meta message set_tempo tempo=532198 time=20>
<meta message set_tempo tempo=530035 time=60>
note_on channel=0 note=58 velocity=0 time=0
note_on channel=0 note=61 velocity=26 time=0
<meta message set_tempo tempo=527937 time=60>
<meta message set_tempo tempo=525855 time=60>
note_on channel=0 note=61 velocity=0 time=40
note_on channel=0 note=66 velocity=29 time=0
<meta message set_tempo tempo=523789 time=20>
<meta message set_tempo tempo=521739 time=60>
<meta message set_tempo tempo=519706 time=60>
note_on channel=0 note=66 velocity=0 time=20
note_on channel=0 note=61 velocity=25 time=0
<meta message set_tempo tempo=517688 time=40>
<meta message set_tempo tempo=515685 time=60>
<meta message set_tempo tempo=513699 time=60>
note_on channel=0 note=61 velocity=0 time=0
note_on channel=0 note=58 velocity=25 time=0
<meta message set_tempo tempo=511727 time=60>
<meta message set_tempo tempo=509727 time=60>
note_on channel=0 note=58 velocity=0 time=40
note_on channel=0 note=61 velocity=30 time=0
<meta message set_tempo tempo=507786 time=20>
<meta message set_tempo tempo=505860 time=60>
<meta message set_tempo tempo=503948 time=60>
note_on channel=0 note=61 velocity=0 time=20
note_on channel=0 note=58 velocity=25 time=0
<meta message set_tempo tempo=502050 time=40>
<meta message set_tempo tempo=500167 time=60>
<meta message set_tempo tempo=498297 time=60>
note_on channel=0 note=58 velocity=0 time=0
note_on channel=0 note=61 velocity=21 time=0
<meta message set_tempo tempo=496442 time=60>
<meta message set_tempo tempo=494601 time=60>
<meta message set_tempo tempo=487329 time=40>
note_on channel=0 note=61 velocity=0 time=0
note_on channel=0 note=66 velocity=29 time=0
note_on channel=0 note=66 velocity=0 time=160
note_on channel=0 note=61 velocity=26 time=0
note_on channel=0 note=61 velocity=0 time=160
note_on channel=0 note=58 velocity=24 time=0
<meta message set_tempo tempo=485555 time=160>
note_on channel=0 note=58 velocity=0 time=0
note_on channel=0 note=70 velocity=0 time=0
note_on channel=0 note=49 velocity=0 time=0
note_on channel=0 note=42 velocity=0 time=0
note_on channel=0 note=70 velocity=41 time=0
note_on channel=0 note=49 velocity=35 time=0
note_on channel=0 note=42 velocity=29 time=0
note_on channel=0 note=58 velocity=27 time=160
note_on channel=0 note=58 velocity=0 time=160
note_on channel=0 note=61 velocity=29 time=0
<meta message set_tempo tempo=490918 time=160>
note_on channel=0 note=61 velocity=0 time=0
note_on channel=0 note=66 velocity=31 time=0
<meta message set_tempo tempo=476872 time=40>
note_on channel=0 note=66 velocity=0 time=120
note_on channel=0 note=61 velocity=26 time=0
note_on channel=0 note=61 velocity=0 time=160
note_on channel=0 note=58 velocity=29 time=0
<meta message set_tempo tempo=498297 time=140>
note_on channel=0 note=58 velocity=0 time=20
note_on channel=0 note=70 velocity=0 time=0
note_on channel=0 note=49 velocity=0 time=0
note_on channel=0 note=42 velocity=0 time=0
note_on channel=0 note=70 velocity=44 time=0
note_on channel=0 note=49 velocity=35 time=0
note_on channel=0 note=42 velocity=29 time=0
<meta message set_tempo tempo=500167 time=40>
<meta message set_tempo tempo=502050 time=40>
<meta message set_tempo tempo=503948 time=40>
note_on channel=0 note=58 velocity=28 time=40
<meta message set_tempo tempo=505860 time=20>
<meta message set_tempo tempo=507786 time=40>
<meta message set_tempo tempo=509727 time=40>
<meta message set_tempo tempo=511727 time=60>
note_on channel=0 note=58 velocity=0 time=0
note_on channel=0 note=61 velocity=30 time=0
<meta message set_tempo tempo=513699 time=40>
<meta message set_tempo tempo=515685 time=40>
<meta message set_tempo tempo=517688 time=40>
<meta message set_tempo tempo=540833 time=40>
note_on channel=0 note=61 velocity=0 time=0
note_on channel=0 note=66 velocity=35 time=0
note_on channel=0 note=66 velocity=0 time=160
note_on channel=0 note=61 velocity=31 time=0
note_on channel=0 note=61 velocity=0 time=160
note_on channel=0 note=58 velocity=33 time=0
<meta message set_tempo tempo=543036 time=80>
note_on channel=0 note=58 velocity=0 time=80
note_on channel=0 note=70 velocity=0 time=0
note_on channel=0 note=49 velocity=0 time=0
note_on channel=0 note=42 velocity=0 time=0
note_on channel=0 note=70 velocity=49 time=0
note_on channel=0 note=51 velocity=35 time=0
note_on channel=0 note=39 velocity=29 time=0
control_change channel=0 control=64 value=0 time=5
<meta message set_tempo tempo=538648 time=15>
<meta message set_tempo tempo=536481 time=80>
control_change channel=0 control=64 value=127 time=27
<meta message set_tempo tempo=534331 time=33>
note_on channel=0 note=58 velocity=27 time=0
<meta message set_tempo tempo=532198 time=80>
<meta message set_tempo tempo=530035 time=60>
note_on channel=0 note=58 velocity=0 time=20
note_on channel=0 note=63 velocity=27 time=0
<meta message set_tempo tempo=527937 time=60>
<meta message set_tempo tempo=525855 time=60>
note_on channel=0 note=63 velocity=0 time=40
note_on channel=0 note=66 velocity=34 time=0
<meta message set_tempo tempo=523789 time=20>
<meta message set_tempo tempo=521739 time=80>
<meta message set_tempo tempo=519706 time=60>
note_on channel=0 note=66 velocity=0 time=0
note_on channel=0 note=63 velocity=29 time=0
<meta message set_tempo tempo=517688 time=80>
<meta message set_tempo tempo=515685 time=60>
note_on channel=0 note=63 velocity=0 time=20
note_on channel=0 note=58 velocity=29 time=0
<meta message set_tempo tempo=513699 time=60>
<meta message set_tempo tempo=511727 time=60>
note_on channel=0 note=58 velocity=0 time=40
note_on channel=0 note=63 velocity=37 time=0
<meta message set_tempo tempo=509727 time=20>
<meta message set_tempo tempo=507786 time=80>
<meta message set_tempo tempo=505860 time=60>
note_on channel=0 note=63 velocity=0 time=0
note_on channel=0 note=58 velocity=29 time=0
<meta message set_tempo tempo=503948 time=80>
<meta message set_tempo tempo=502050 time=60>
note_on channel=0 note=58 velocity=0 time=20
note_on channel=0 note=63 velocity=29 time=0
<meta message set_tempo tempo=500167 time=60>
<meta message set_tempo tempo=498297 time=60>
note_on channel=0 note=63 velocity=0 time=40
note_on channel=0 note=66 velocity=36 time=0
<meta message set_tempo tempo=496442 time=20>
<meta message set_tempo tempo=490918 time=100>
note_on channel=0 note=66 velocity=0 time=40
note_on channel=0 note=63 velocity=29 time=0
note_on channel=0 note=63 velocity=0 time=160
note_on channel=0 note=58 velocity=29 time=0
<meta message set_tempo tempo=489117 time=160>
note_on channel=0 note=58 velocity=0 time=0
note_on channel=0 note=70 velocity=0 time=0
note_on channel=0 note=51 velocity=0 time=0
note_on channel=0 note=39 velocity=0 time=0
note_on channel=0 note=66 velocity=49 time=0
note_on channel=0 note=39 velocity=29 time=0
note_on channel=0 note=51 velocity=35 time=0
note_on channel=0 note=54 velocity=30 time=160
note_on channel=0 note=54 velocity=0 time=160
note_on channel=0 note=58 velocity=30 time=0
note_on channel=0 note=58 velocity=0 time=160
note_on channel=0 note=63 velocity=36 time=0
note_on channel=0 note=63 velocity=0 time=160
note_on channel=0 note=58 velocity=30 time=0
note_on channel=0 note=58 velocity=0 time=160
note_on channel=0 note=54 velocity=30 time=0
<meta message set_tempo tempo=500167 time=140>
note_on channel=0 note=54 velocity=0 time=20
note_on channel=0 note=66 velocity=0 time=0
note_on channel=0 note=39 velocity=0 time=0
note_on channel=0 note=51 velocity=0 time=0
note_on channel=0 note=65 velocity=49 time=0
note_on channel=0 note=46 velocity=35 time=0
note_on channel=0 note=34 velocity=29 time=0
control_change channel=0 control=64 value=0 time=10
<meta message set_tempo tempo=502050 time=30>
<meta message set_tempo tempo=503948 time=60>
control_change channel=0 control=64 value=127 time=20
<meta message set_tempo tempo=505860 time=40>
note_on channel=0 note=53 velocity=30 time=0
<meta message set_tempo tempo=507786 time=60>
<meta message set_tempo tempo=509727 time=60>
note_on channel=0 note=53 velocity=0 time=40
note_on channel=0 note=56 velocity=30 time=0
<meta message set_tempo tempo=511727 time=20>
<meta message set_tempo tempo=513699 time=60>
<meta message set_tempo tempo=515685 time=60>
<meta message set_tempo tempo=515685 time=20>
note_on channel=0 note=56 velocity=0 time=0
note_on channel=0 note=62 velocity=35 time=0
note_on channel=0 note=62 velocity=0 time=160
note_on channel=0 note=56 velocity=30 time=0
note_on channel=0 note=56 velocity=0 time=160
note_on channel=0 note=53 velocity=30 time=0
<meta message set_tempo tempo=540833 time=160>
note_on channel=0 note=53 velocity=0 time=0
note_on channel=0 note=65 velocity=0 time=0
note_on channel=0 note=46 velocity=0 time=0
note_on channel=0 note=34 velocity=0 time=0
note_on channel=0 note=63 velocity=49 time=0
note_on channel=0 note=35 velocity=29 time=0
note_on channel=0 note=47 velocity=35 time=0
control_change channel=0 control=64 value=0 time=0
<meta message set_tempo tempo=523789 time=20>
<meta message set_tempo tempo=521739 time=20>
<meta message set_tempo tempo=519706 time=80>
control_change channel=0 control=64 value=127 time=7
note_on channel=0 note=51 velocity=35 time=33
<meta message set_tempo tempo=517688 time=20>
<meta message set_tempo tempo=515685 time=80>
<meta message set_tempo tempo=513699 time=60>
note_on channel=0 note=51 velocity=0 time=0
note_on channel=0 note=54 velocity=38 time=0
<meta message set_tempo tempo=511727 time=80>
<meta message set_tempo tempo=509727 time=60>
note_on channel=0 note=54 velocity=0 time=20
note_on channel=0 note=59 velocity=43 time=0
<meta message set_tempo tempo=507786 time=60>
<meta message set_tempo tempo=505860 time=60>
note_on channel=0 note=59 velocity=0 time=40
note_on channel=0 note=54 velocity=45 time=0
<meta message set_tempo tempo=503948 time=40>
<meta message set_tempo tempo=502050 time=60>
<meta message set_tempo tempo=500167 time=60>
note_on channel=0 note=54 velocity=0 time=0
note_on channel=0 note=51 velocity=49 time=0
<meta message set_tempo tempo=498297 time=80>
<meta message set_tempo tempo=496442 time=60>
note_on channel=0 note=51 velocity=0 time=20
note_on channel=0 note=63 velocity=0 time=0
note_on channel=0 note=35 velocity=0 time=0
note_on channel=0 note=47 velocity=0 time=0
note_on channel=0 note=68 velocity=58 time=0
note_on channel=0 note=44 velocity=35 time=0
note_on channel=0 note=32 velocity=29 time=0
control_change channel=0 control=64 value=0 time=13
<meta message set_tempo tempo=494601 time=47>
<meta message set_tempo tempo=492773 time=60>
control_change channel=0 control=64 value=127 time=14
note_on channel=0 note=56 velocity=41 time=26
<meta message set_tempo tempo=490918 time=40>
<meta message set_tempo tempo=489117 time=60>
note_on channel=0 note=56 velocity=0 time=60
note_on channel=0 note=59 velocity=41 time=0
<meta message set_tempo tempo=487329 time=20>
<meta message set_tempo tempo=485555 time=60>
<meta message set_tempo tempo=483793 time=60>
<meta message set_tempo tempo=483793 time=20>
note_on channel=0 note=59 velocity=0 time=0
note_on channel=0 note=63 velocity=47 time=0
note_on channel=0 note=63 velocity=0 time=160
note_on channel=0 note=59 velocity=33 time=0
note_on channel=0 note=59 velocity=0 time=160
note_on channel=0 note=56 velocity=33 time=0
<meta message set_tempo tempo=485555 time=160>
note_on channel=0 note=56 velocity=0 time=0
note_on channel=0 note=68 velocity=0 time=0
note_on channel=0 note=44 velocity=0 time=0
note_on channel=0 note=32 velocity=0 time=0
note_on channel=0 note=66 velocity=46 time=0
note_on channel=0 note=37 velocity=29 time=0
note_on channel=0 note=49 velocity=35 time=0
control_change channel=0 control=64 value=0 time=15
control_change channel=0 control=64 value=127 time=98
note_on channel=0 note=59 velocity=29 time=47
note_on channel=0 note=59 velocity=0 time=160
note_on channel=0 note=56 velocity=29 time=0
note_on channel=0 note=56 velocity=0 time=160
note_on channel=0 note=66 velocity=0 time=0
note_on channel=0 note=65 velocity=45 time=0
<meta message set_tempo tempo=492773 time=20>
<meta message set_tempo tempo=494601 time=100>
note_on channel=0 note=59 velocity=28 time=40
<meta message set_tempo tempo=496442 time=60>
<meta message set_tempo tempo=498297 time=80>
note_on channel=0 note=59 velocity=0 time=20
note_on channel=0 note=56 velocity=28 time=0
<meta message set_tempo tempo=500167 time=80>
<meta message set_tempo tempo=505860 time=80>
note_on channel=0 note=56 velocity=0 time=0
note_on channel=0 note=65 velocity=0 time=0
note_on channel=0 note=63 velocity=44 time=0
note_on channel=0 note=59 velocity=29 time=160
note_on channel=0 note=59 velocity=0 time=160
note_on channel=0 note=56 velocity=30 time=0
<meta message set_tempo tempo=517688 time=160>
note_on channel=0 note=56 velocity=0 time=0
note_on channel=0 note=63 velocity=0 time=0
note_on channel=0 note=65 velocity=40 time=0
note_on channel=0 note=59 velocity=29 time=160
note_on channel=0 note=59 velocity=0 time=160
note_on channel=0 note=56 velocity=30 time=0
<meta message set_tempo tempo=543036 time=160>
note_on channel=0 note=56 velocity=0 time=0
note_on channel=0 note=65 velocity=0 time=0
note_on channel=0 note=49 velocity=0 time=0
note_on channel=0 note=37 velocity=0 time=0
note_on channel=0 note=68 velocity=49 time=0
note_on channel=0 note=42 velocity=29 time=0
note_on channel=0 note=49 velocity=35 time=0
control_change channel=0 control=64 value=0 time=5
<meta message set_tempo tempo=538648 time=15>
<meta message set_tempo tempo=543036 time=6>
<meta message set_tempo tempo=540833 time=20>
<meta message set_tempo tempo=538648 time=20>
<meta message set_tempo tempo=536481 time=20>
<meta message set_tempo tempo=534331 time=20>
<meta message set_tempo tempo=532198 time=20>
control_change channel=0 control=64 value=127 time=1
<meta message set_tempo tempo=530035 time=19>
note_on channel=0 note=59 velocity=27 time=14
<meta message set_tempo tempo=527937 time=6>
<meta message set_tempo tempo=523789 time=20>
<meta message set_tempo tempo=521739 time=20>
<meta message set_tempo tempo=519706 time=20>
<meta message set_tempo tempo=517688 time=20>
<meta message set_tempo tempo=515685 time=20>
<meta message set_tempo tempo=513699 time=20>
<meta message set_tempo tempo=511727 time=20>
note_on channel=0 note=59 velocity=0 time=14
note_on channel=0 note=61 velocity=27 time=0
<meta message set_tempo tempo=509727 time=6>
<meta message set_tempo tempo=505860 time=20>
<meta message set_tempo tempo=503948 time=20>
<meta message set_tempo tempo=502050 time=20>
<meta message set_tempo tempo=500167 time=20>
<meta message set_tempo tempo=498297 time=20>
<meta message set_tempo tempo=494601 time=20>
<meta message set_tempo tempo=489117 time=34>
note_on channel=0 note=61 velocity=0 time=0
note_on channel=0 note=65 velocity=34 time=0
note_on channel=0 note=65 velocity=0 time=160
note_on channel=0 note=61 velocity=29 time=0
note_on channel=0 note=61 velocity=0 time=160
note_on channel=0 note=59 velocity=29 time=0
<meta message set_tempo tempo=494601 time=160>
note_on channel=0 note=59 velocity=0 time=0
note_on channel=0 note=61 velocity=37 time=0
note_on channel=0 note=61 velocity=0 time=160
note_on channel=0 note=59 velocity=29 time=0
note_on channel=0 note=59 velocity=0 time=160
note_on channel=0 note=61 velocity=29 time=0
<meta message set_tempo tempo=500167 time=60>
<meta message set_tempo tempo=489117 time=100>
note_on channel=0 note=61 velocity=0 time=0
note_on channel=0 note=65 velocity=36 time=0
note_on channel=0 note=65 velocity=0 time=160
note_on channel=0 note=61 velocity=29 time=0
note_on channel=0 note=61 velocity=0 time=160
note_on channel=0 note=59 velocity=29 time=0
<meta message set_tempo tempo=489117 time=160>
note_on channel=0 note=59 velocity=0 time=0
note_on channel=0 note=68 velocity=0 time=0
note_on channel=0 note=66 velocity=49 time=0
control_change channel=0 control=64 value=0 time=13
note_on channel=0 note=54 velocity=30 time=147
control_change channel=0 control=64 value=127 time=3
note_on channel=0 note=54 velocity=0 time=157
note_on channel=0 note=58 velocity=24 time=0
note_on channel=0 note=58 velocity=0 time=160
note_on channel=0 note=61 velocity=36 time=0
note_on channel=0 note=61 velocity=0 time=160
note_on channel=0 note=58 velocity=30 time=0
note_on channel=0 note=58 velocity=0 time=160
note_on channel=0 note=54 velocity=24 time=0
<meta message set_tempo tempo=500167 time=140>
note_on channel=0 note=54 velocity=0 time=20
note_on channel=0 note=58 velocity=37 time=0
<meta message set_tempo tempo=502050 time=40>
<meta message set_tempo tempo=503948 time=60>
<meta message set_tempo tempo=505860 time=60>
note_on channel=0 note=58 velocity=0 time=0
note_on channel=0 note=54 velocity=30 time=0
<meta message set_tempo tempo=507786 time=60>
<meta message set_tempo tempo=509727 time=60>
note_on channel=0 note=54 velocity=0 time=40
note_on channel=0 note=58 velocity=26 time=0
<meta message set_tempo tempo=511727 time=20>
<meta message set_tempo tempo=513699 time=60>
<meta message set_tempo tempo=515685 time=60>
<meta message set_tempo tempo=540833 time=20>
note_on channel=0 note=58 velocity=0 time=0
note_on channel=0 note=61 velocity=35 time=0
note_on channel=0 note=61 velocity=0 time=160
note_on channel=0 note=58 velocity=30 time=0
note_on channel=0 note=58 velocity=0 time=160
note_on channel=0 note=54 velocity=26 time=0
<meta message set_tempo tempo=540833 time=160>
note_on channel=0 note=54 velocity=0 time=0
note_on channel=0 note=42 velocity=0 time=0
note_on channel=0 note=49 velocity=0 time=0
note_on channel=0 note=66 velocity=0 time=0
note_on channel=0 note=68 velocity=44 time=0
note_on channel=0 note=53 velocity=35 time=0
note_on channel=0 note=49 velocity=29 time=0
control_change channel=0 control=64 value=0 time=0
<meta message set_tempo tempo=532198 time=2>
<meta message set_tempo tempo=530035 time=60>
<meta message set_tempo tempo=527937 time=60>
control_change channel=0 control=64 value=127 time=34
note_on channel=0 note=56 velocity=26 time=4
<meta message set_tempo tempo=525855 time=22>
<meta message set_tempo tempo=523789 time=60>
<meta message set_tempo tempo=521739 time=60>
note_on channel=0 note=56 velocity=0 time=18
note_on channel=0 note=61 velocity=26 time=0
<meta message set_tempo tempo=519706 time=42>
<meta message set_tempo tempo=517688 time=40>
<meta message set_tempo tempo=515685 time=60>
note_on channel=0 note=61 velocity=0 time=18
note_on channel=0 note=65 velocity=29 time=0
<meta message set_tempo tempo=513699 time=42>
<meta message set_tempo tempo=511727 time=60>
note_on channel=0 note=65 velocity=0 time=58
note_on channel=0 note=61 velocity=25 time=0
<meta message set_tempo tempo=509727 time=2>
<meta message set_tempo tempo=507786 time=60>
<meta message set_tempo tempo=505860 time=40>
note_on channel=0 note=61 velocity=0 time=58
note_on channel=0 note=56 velocity=25 time=0
<meta message set_tempo tempo=503948 time=2>
<meta message set_tempo tempo=502050 time=60>
<meta message set_tempo tempo=500167 time=60>
note_on channel=0 note=56 velocity=0 time=38
note_on channel=0 note=61 velocity=30 time=0
<meta message set_tempo tempo=498297 time=22>
<meta message set_tempo tempo=496442 time=60>
<meta message set_tempo tempo=494601 time=40>
note_on channel=0 note=61 velocity=0 time=38
note_on channel=0 note=56 velocity=26 time=0
<meta message set_tempo tempo=492773 time=22>
<meta message set_tempo tempo=490918 time=60>
<meta message set_tempo tempo=489117 time=60>
note_on channel=0 note=56 velocity=0 time=18
note_on channel=0 note=61 velocity=26 time=0
<meta message set_tempo tempo=487329 time=42>
<meta message set_tempo tempo=485555 time=60>
note_on channel=0 note=61 velocity=0 time=58
note_on channel=0 note=65 velocity=30 time=0
note_on channel=0 note=65 velocity=0 time=160
note_on channel=0 note=61 velocity=27 time=0
note_on channel=0 note=61 velocity=0 time=160
note_on channel=0 note=56 velocity=27 time=0
<meta message set_tempo tempo=483793 time=160>
note_on channel=0 note=56 velocity=0 time=0
note_on channel=0 note=68 velocity=0 time=0
note_on channel=0 note=53 velocity=0 time=0
note_on channel=0 note=49 velocity=0 time=0
note_on channel=0 note=70 velocity=43 time=0
note_on channel=0 note=51 velocity=34 time=0
note_on channel=0 note=55 velocity=40 time=0
note_on channel=0 note=46 velocity=34 time=0
control_change channel=0 control=64 value=0 time=14
control_change channel=0 control=64 value=127 time=123
note_on channel=0 note=61 velocity=29 time=23
note_on channel=0 note=61 velocity=0 time=160
note_on channel=0 note=63 velocity=31 time=0
<meta message set_tempo tempo=471772 time=160>
note_on channel=0 note=63 velocity=0 time=0
note_on channel=0 note=67 velocity=39 time=0
note_on channel=0 note=67 velocity=0 time=160
note_on channel=0 note=63 velocity=31 time=0
note_on channel=0 note=63 velocity=0 time=160
note_on channel=0 note=61 velocity=44 time=0
<meta message set_tempo tempo=490918 time=122>
<meta message set_tempo tempo=487329 time=38>
note_on channel=0 note=61 velocity=0 time=0
note_on channel=0 note=63 velocity=47 time=0
note_on channel=0 note=63 velocity=0 time=160
note_on channel=0 note=61 velocity=51 time=0
note_on channel=0 note=61 velocity=0 time=160
note_on channel=0 note=63 velocity=54 time=0
<meta message set_tempo tempo=485555 time=82>
note_on channel=0 note=63 velocity=0 time=78
note_on channel=0 note=67 velocity=55 time=0
<meta message set_tempo tempo=487329 time=2>
<meta message set_tempo tempo=489117 time=60>
<meta message set_tempo tempo=490918 time=80>
note_on channel=0 note=67 velocity=0 time=18
note_on channel=0 note=63 velocity=62 time=0
<meta message set_tempo tempo=492773 time=42>
<meta message set_tempo tempo=494601 time=80>
note_on channel=0 note=63 velocity=0 time=38
note_on channel=0 note=61 velocity=67 time=0
<meta message set_tempo tempo=496442 time=22>
<meta message set_tempo tempo=507786 time=64>
<meta message set_tempo tempo=511727 time=60>
note_on channel=0 note=61 velocity=0 time=14
note_on channel=0 note=55 velocity=0 time=0
note_on channel=0 note=70 velocity=0 time=0
note_on channel=0 note=51 velocity=0 time=0
note_on channel=0 note=46 velocity=0 time=0
note_on channel=0 note=73 velocity=74 time=0
note_on channel=0 note=56 velocity=50 time=0
note_on channel=0 note=44 velocity=41 time=0
note_on channel=0 note=51 velocity=41 time=0
control_change channel=0 control=64 value=0 time=5
<meta message set_tempo tempo=509727 time=41>
<meta message set_tempo tempo=507786 time=60>
control_change channel=0 control=64 value=127 time=21
note_on channel=0 note=61 velocity=51 time=33
<meta message set_tempo tempo=505860 time=6>
<meta message set_tempo tempo=503948 time=60>
<meta message set_tempo tempo=502050 time=40>
note_on channel=0 note=61 velocity=0 time=54
note_on channel=0 note=63 velocity=51 time=0
<meta message set_tempo tempo=505860 time=22>
<meta message set_tempo tempo=503948 time=80>
note_on channel=0 note=63 velocity=0 time=58
note_on channel=0 note=68 velocity=66 time=0
<meta message set_tempo tempo=502050 time=42>
<meta message set_tempo tempo=500167 time=80>
note_on channel=0 note=68 velocity=0 time=38
note_on channel=0 note=63 velocity=49 time=0
<meta message set_tempo tempo=498297 time=42>
<meta message set_tempo tempo=496442 time=80>
note_on channel=0 note=63 velocity=0 time=38
note_on channel=0 note=61 velocity=49 time=0
<meta message set_tempo tempo=494601 time=42>
<meta message set_tempo tempo=492773 time=80>
note_on channel=0 note=61 velocity=0 time=38
note_on channel=0 note=63 velocity=55 time=0
<meta message set_tempo tempo=490918 time=62>
<meta message set_tempo tempo=489117 time=80>
note_on channel=0 note=63 velocity=0 time=18
note_on channel=0 note=61 velocity=37 time=0
<meta message set_tempo tempo=487329 time=62>
<meta message set_tempo tempo=485555 time=80>
note_on channel=0 note=61 velocity=0 time=18
note_on channel=0 note=63 velocity=33 time=0
<meta message set_tempo tempo=483793 time=62>
note_on channel=0 note=63 velocity=0 time=98
note_on channel=0 note=73 velocity=0 time=0
note_on channel=0 note=71 velocity=50 time=0
note_on channel=0 note=68 velocity=37 time=0
note_on channel=0 note=68 velocity=0 time=160
note_on channel=0 note=63 velocity=33 time=0
note_on channel=0 note=63 velocity=0 time=160
note_on channel=0 note=59 velocity=33 time=0
<meta message set_tempo tempo=489117 time=160>
note_on channel=0 note=59 velocity=0 time=0
note_on channel=0 note=56 velocity=0 time=0
note_on channel=0 note=51 velocity=0 time=0
note_on channel=0 note=44 velocity=0 time=0
note_on channel=0 note=71 velocity=0 time=0
note_on channel=0 note=71 velocity=41 time=0
note_on channel=0 note=56 velocity=35 time=0
note_on channel=0 note=51 velocity=29 time=0
note_on channel=0 note=44 velocity=29 time=0
control_change channel=0 control=64 value=0 time=7
note_on channel=0 note=59 velocity=28 time=153
control_change channel=0 control=64 value=127 time=10
note_on channel=0 note=59 velocity=0 time=150
note_on channel=0 note=63 velocity=28 time=0
note_on channel=0 note=63 velocity=0 time=160
note_on channel=0 note=68 velocity=30 time=0
note_on channel=0 note=68 velocity=0 time=160
note_on channel=0 note=63 velocity=25 time=0
note_on channel=0 note=63 velocity=0 time=160
note_on channel=0 note=59 velocity=25 time=0
<meta message set_tempo tempo=500167 time=140>
note_on channel=0 note=59 velocity=0 time=20
note_on channel=0 note=63 velocity=31 time=0
<meta message set_tempo tempo=502050 time=40>
<meta message set_tempo tempo=503948 time=60>
<meta message set_tempo tempo=505860 time=60>
note_on channel=0 note=63 velocity=0 time=0
note_on channel=0 note=59 velocity=25 time=0
<meta message set_tempo tempo=507786 time=60>
<meta message set_tempo tempo=509727 time=60>
note_on channel=0 note=59 velocity=0 time=40
note_on channel=0 note=63 velocity=25 time=0
<meta message set_tempo tempo=511727 time=20>
<meta message set_tempo tempo=513699 time=60>
<meta message set_tempo tempo=515685 time=60>
<meta message set_tempo tempo=540833 time=20>
note_on channel=0 note=63 velocity=0 time=0
note_on channel=0 note=68 velocity=29 time=0
note_on channel=0 note=68 velocity=0 time=160
note_on channel=0 note=63 velocity=25 time=0
note_on channel=0 note=63 velocity=0 time=160
note_on channel=0 note=59 velocity=25 time=0
<meta message set_tempo tempo=540833 time=160>
note_on channel=0 note=59 velocity=0 time=0
note_on channel=0 note=51 velocity=0 time=0
note_on channel=0 note=71 velocity=0 time=0
note_on channel=0 note=56 velocity=0 time=0
note_on channel=0 note=44 velocity=0 time=0
note_on channel=0 note=71 velocity=54 time=0
note_on channel=0 note=52 velocity=33 time=0
note_on channel=0 note=56 velocity=40 time=0
control_change channel=0 control=64 value=0 time=0
<meta message set_tempo tempo=532198 time=2>
<meta message set_tempo tempo=530035 time=60>
<meta message set_tempo tempo=527937 time=60>
control_change channel=0 control=64 value=127 time=34
note_on channel=0 note=59 velocity=33 time=4
<meta message set_tempo tempo=525855 time=22>
<meta message set_tempo tempo=523789 time=60>
<meta message set_tempo tempo=521739 time=60>
note_on channel=0 note=59 velocity=0 time=18
note_on channel=0 note=64 velocity=33 time=0
<meta message set_tempo tempo=519706 time=42>
<meta message set_tempo tempo=517688 time=40>
<meta message set_tempo tempo=517688 time=44>
note_on channel=0 note=64 velocity=0 time=34
note_on channel=0 note=68 velocity=37 time=0
<meta message set_tempo tempo=515685 time=6>
<meta message set_tempo tempo=513699 time=40>
<meta message set_tempo tempo=511727 time=40>
<meta message set_tempo tempo=509727 time=20>
<meta message set_tempo tempo=507786 time=40>
note_on channel=0 note=68 velocity=0 time=14
note_on channel=0 note=64 velocity=32 time=0
<meta message set_tempo tempo=505860 time=26>
<meta message set_tempo tempo=503948 time=40>
<meta message set_tempo tempo=502050 time=20>
<meta message set_tempo tempo=500167 time=40>
note_on channel=0 note=64 velocity=0 time=34
note_on channel=0 note=59 velocity=32 time=0
<meta message set_tempo tempo=498297 time=6>
<meta message set_tempo tempo=496442 time=40>
<meta message set_tempo tempo=494601 time=20>
<meta message set_tempo tempo=492773 time=40>
<meta message set_tempo tempo=490918 time=40>
note_on channel=0 note=59 velocity=0 time=14
note_on channel=0 note=64 velocity=39 time=0
<meta message set_tempo tempo=489117 time=26>
<meta message set_tempo tempo=487329 time=20>
<meta message set_tempo tempo=485555 time=40>
<meta message set_tempo tempo=483793 time=40>
note_on channel=0 note=64 velocity=0 time=34
note_on channel=0 note=59 velocity=33 time=0
<meta message set_tempo tempo=482044 time=6>
<meta message set_tempo tempo=480307 time=20>
<meta message set_tempo tempo=478583 time=40>
<meta message set_tempo tempo=476872 time=40>
note_on channel=0 note=59 velocity=0 time=54
note_on channel=0 note=64 velocity=33 time=0
<meta message set_tempo tempo=478583 time=146>
note_on channel=0 note=64 velocity=0 time=14
note_on channel=0 note=68 velocity=39 time=0
note_on channel=0 note=68 velocity=0 time=160
note_on channel=0 note=64 velocity=35 time=0
note_on channel=0 note=64 velocity=0 time=160
note_on channel=0 note=59 velocity=36 time=0
<meta message set_tempo tempo=468457 time=160>
note_on channel=0 note=59 velocity=0 time=0
note_on channel=0 note=71 velocity=0 time=0
note_on channel=0 note=52 velocity=0 time=0
note_on channel=0 note=56 velocity=0 time=0
note_on channel=0 note=71 velocity=49 time=0
note_on channel=0 note=54 velocity=46 time=0
note_on channel=0 note=51 velocity=39 time=0
control_change channel=0 control=64 value=0 time=14
control_change channel=0 control=64 value=127 time=123
note_on channel=0 note=59 velocity=37 time=23
note_on channel=0 note=59 velocity=0 time=160
note_on channel=0 note=63 velocity=40 time=0
<meta message set_tempo tempo=482044 time=160>
note_on channel=0 note=63 velocity=0 time=0
note_on channel=0 note=66 velocity=44 time=0
note_on channel=0 note=66 velocity=0 time=160
note_on channel=0 note=63 velocity=37 time=0
note_on channel=0 note=63 velocity=0 time=160
note_on channel=0 note=59 velocity=39 time=0
<meta message set_tempo tempo=490918 time=122>
<meta message set_tempo tempo=487329 time=38>
note_on channel=0 note=59 velocity=0 time=0
note_on channel=0 note=71 velocity=0 time=0
note_on channel=0 note=54 velocity=0 time=0
note_on channel=0 note=51 velocity=0 time=0
note_on channel=0 note=73 velocity=55 time=0
note_on channel=0 note=58 velocity=46 time=0
note_on channel=0 note=49 velocity=39 time=0
note_on channel=0 note=54 velocity=39 time=0
control_change channel=0 control=64 value=0 time=12
control_change channel=0 control=64 value=127 time=103
note_on channel=0 note=64 velocity=49 time=45
note_on channel=0 note=64 velocity=0 time=160
note_on channel=0 note=66 velocity=51 time=0
<meta message set_tempo tempo=485555 time=82>
note_on channel=0 note=66 velocity=0 time=78
note_on channel=0 note=70 velocity=60 time=0
<meta message set_tempo tempo=487329 time=2>
<meta message set_tempo tempo=489117 time=60>
<meta message set_tempo tempo=490918 time=80>
note_on channel=0 note=70 velocity=0 time=18
note_on channel=0 note=66 velocity=64 time=0
<meta message set_tempo tempo=492773 time=42>
<meta message set_tempo tempo=494601 time=80>
note_on channel=0 note=66 velocity=0 time=38
note_on channel=0 note=64 velocity=63 time=0
<meta message set_tempo tempo=496442 time=22>
<meta message set_tempo tempo=507786 time=64>
<meta message set_tempo tempo=511727 time=60>
note_on channel=0 note=64 velocity=0 time=14
note_on channel=0 note=49 velocity=0 time=0
note_on channel=0 note=73 velocity=0 time=0
note_on channel=0 note=58 velocity=0 time=0
note_on channel=0 note=54 velocity=0 time=0
note_on channel=0 note=76 velocity=69 time=0
note_on channel=0 note=47 velocity=47 time=0
note_on channel=0 note=54 velocity=47 time=0
note_on channel=0 note=59 velocity=57 time=0
control_change channel=0 control=64 value=0 time=5
<meta message set_tempo tempo=509727 time=41>
<meta message set_tempo tempo=507786 time=60>
control_change channel=0 control=64 value=127 time=21
note_on channel=0 note=64 velocity=57 time=33
<meta message set_tempo tempo=505860 time=6>
<meta message set_tempo tempo=503948 time=60>
<meta message set_tempo tempo=502050 time=40>
note_on channel=0 note=64 velocity=0 time=54
note_on channel=0 note=66 velocity=57 time=0
<meta message set_tempo tempo=505860 time=22>
<meta message set_tempo tempo=503948 time=80>
note_on channel=0 note=66 velocity=0 time=58
note_on channel=0 note=71 velocity=63 time=0
<meta message set_tempo tempo=502050 time=42>
<meta message set_tempo tempo=500167 time=80>
note_on channel=0 note=71 velocity=0 time=38
note_on channel=0 note=66 velocity=48 time=0
<meta message set_tempo tempo=498297 time=42>
<meta message set_tempo tempo=496442 time=80>
note_on channel=0 note=66 velocity=0 time=38
note_on channel=0 note=64 velocity=48 time=0
<meta message set_tempo tempo=494601 time=42>
<meta message set_tempo tempo=492773 time=80>
note_on channel=0 note=64 velocity=0 time=38
note_on channel=0 note=66 velocity=54 time=0
<meta message set_tempo tempo=490918 time=62>
<meta message set_tempo tempo=489117 time=80>
note_on channel=0 note=66 velocity=0 time=18
note_on channel=0 note=64 velocity=35 time=0
<meta message set_tempo tempo=487329 time=62>
<meta message set_tempo tempo=485555 time=80>
note_on channel=0 note=64 velocity=0 time=18
note_on channel=0 note=66 velocity=37 time=0
<meta message set_tempo tempo=483793 time=62>
<meta message set_tempo tempo=482044 time=80>
note_on channel=0 note=66 velocity=0 time=18
note_on channel=0 note=76 velocity=0 time=0
note_on channel=0 note=75 velocity=57 time=0
note_on channel=0 note=71 velocity=42 time=0
<meta message set_tempo tempo=487329 time=2>
<meta message set_tempo tempo=496442 time=18>
note_on channel=0 note=71 velocity=0 time=140
note_on channel=0 note=66 velocity=37 time=0
note_on channel=0 note=66 velocity=0 time=160
note_on channel=0 note=63 velocity=37 time=0
<meta message set_tempo tempo=489117 time=160>
note_on channel=0 note=63 velocity=0 time=0
note_on channel=0 note=47 velocity=0 time=0
note_on channel=0 note=59 velocity=0 time=0
note_on channel=0 note=54 velocity=0 time=0
note_on channel=0 note=75 velocity=0 time=0
note_on channel=0 note=75 velocity=45 time=0
note_on channel=0 note=47 velocity=33 time=0
note_on channel=0 note=54 velocity=33 time=0
note_on channel=0 note=59 velocity=40 time=0
control_change channel=0 control=64 value=0 time=7
note_on channel=0 note=63 velocity=31 time=153
control_change channel=0 control=64 value=127 time=10
note_on channel=0 note=63 velocity=0 time=150
note_on channel=0 note=66 velocity=31 time=0
note_on channel=0 note=66 velocity=0 time=160
note_on channel=0 note=71 velocity=34 time=0
note_on channel=0 note=71 velocity=0 time=160
note_on channel=0 note=66 velocity=28 time=0
note_on channel=0 note=66 velocity=0 time=160
note_on channel=0 note=63 velocity=28 time=0
<meta message set_tempo tempo=500167 time=140>
note_on channel=0 note=63 velocity=0 time=20
note_on channel=0 note=66 velocity=35 time=0
<meta message set_tempo tempo=490918 time=14>
<meta message set_tempo tempo=492773 time=80>
<meta message set_tempo tempo=494601 time=40>
note_on channel=0 note=66 velocity=0 time=26
note_on channel=0 note=63 velocity=28 time=0
<meta message set_tempo tempo=496442 time=14>
<meta message set_tempo tempo=498297 time=40>
<meta message set_tempo tempo=500167 time=40>
<meta message set_tempo tempo=502050 time=40>
note_on channel=0 note=63 velocity=0 time=26
note_on channel=0 note=66 velocity=28 time=0
<meta message set_tempo tempo=503948 time=14>
<meta message set_tempo tempo=505860 time=40>
<meta message set_tempo tempo=507786 time=40>
<meta message set_tempo tempo=509727 time=40>
<meta message set_tempo tempo=515685 time=6>
<meta message set_tempo tempo=540833 time=20>
note_on channel=0 note=66 velocity=0 time=0
note_on channel=0 note=71 velocity=34 time=0
note_on channel=0 note=71 velocity=0 time=160
note_on channel=0 note=66 velocity=28 time=0
note_on channel=0 note=66 velocity=0 time=160
note_on channel=0 note=63 velocity=28 time=0
<meta message set_tempo tempo=521739 time=150>
note_on channel=0 note=63 velocity=0 time=10
note_on channel=0 note=54 velocity=0 time=0
note_on channel=0 note=75 velocity=0 time=0
note_on channel=0 note=47 velocity=0 time=0
note_on channel=0 note=59 velocity=0 time=0
note_on channel=0 note=75 velocity=47 time=0
note_on channel=0 note=47 velocity=29 time=0
note_on channel=0 note=54 velocity=35 time=0
control_change channel=0 control=64 value=0 time=0
<meta message set_tempo tempo=519706 time=50>
<meta message set_tempo tempo=517688 time=40>
control_change channel=0 control=64 value=127 time=37
<meta message set_tempo tempo=515685 time=3>
note_on channel=0 note=63 velocity=32 time=30
<meta message set_tempo tempo=513699 time=30>
<meta message set_tempo tempo=511727 time=40>
<meta message set_tempo tempo=509727 time=40>
note_on channel=0 note=63 velocity=0 time=50
note_on channel=0 note=66 velocity=32 time=0
<meta message set_tempo tempo=507786 time=10>
<meta message set_tempo tempo=505860 time=40>
<meta message set_tempo tempo=503948 time=40>
<meta message set_tempo tempo=502050 time=60>
note_on channel=0 note=66 velocity=0 time=10
note_on channel=0 note=71 velocity=45 time=0
<meta message set_tempo tempo=500167 time=30>
<meta message set_tempo tempo=498297 time=40>
<meta message set_tempo tempo=496442 time=60>
note_on channel=0 note=71 velocity=0 time=30
note_on channel=0 note=66 velocity=32 time=0
<meta message set_tempo tempo=494601 time=10>
<meta message set_tempo tempo=492773 time=40>
<meta message set_tempo tempo=490918 time=60>
<meta message set_tempo tempo=489117 time=40>
note_on channel=0 note=66 velocity=0 time=10
note_on channel=0 note=63 velocity=35 time=0
<meta message set_tempo tempo=487329 time=30>
<meta message set_tempo tempo=485555 time=60>
<meta message set_tempo tempo=483793 time=40>
note_on channel=0 note=63 velocity=0 time=30
note_on channel=0 note=66 velocity=31 time=0
note_on channel=0 note=66 velocity=0 time=160
note_on channel=0 note=63 velocity=31 time=0
note_on channel=0 note=63 velocity=0 time=160
note_on channel=0 note=66 velocity=31 time=0
<meta message set_tempo tempo=485555 time=80>
<meta message set_tempo tempo=483793 time=60>
<meta message set_tempo tempo=483793 time=20>
note_on channel=0 note=66 velocity=0 time=0
note_on channel=0 note=71 velocity=36 time=0
note_on channel=0 note=71 velocity=0 time=160
note_on channel=0 note=66 velocity=30 time=0
note_on channel=0 note=66 velocity=0 time=160
note_on channel=0 note=63 velocity=30 time=0
<meta message set_tempo tempo=487329 time=160>
note_on channel=0 note=63 velocity=0 time=0
note_on channel=0 note=75 velocity=0 time=0
note_on channel=0 note=47 velocity=0 time=0
note_on channel=0 note=54 velocity=0 time=0
note_on channel=0 note=75 velocity=46 time=0
note_on channel=0 note=56 velocity=35 time=0
note_on channel=0 note=47 velocity=29 time=0
control_change channel=0 control=64 value=0 time=15
control_change channel=0 control=64 value=127 time=98
note_on channel=0 note=68 velocity=29 time=47
note_on channel=0 note=68 velocity=0 time=160
note_on channel=0 note=65 velocity=29 time=0
note_on channel=0 note=65 velocity=0 time=160
note_on channel=0 note=75 velocity=0 time=0
note_on channel=0 note=71 velocity=43 time=0
note_on channel=0 note=68 velocity=28 time=160
note_on channel=0 note=68 velocity=0 time=160
note_on channel=0 note=65 velocity=28 time=0
<meta message set_tempo tempo=489117 time=160>
note_on channel=0 note=65 velocity=0 time=0
note_on channel=0 note=71 velocity=0 time=0
note_on channel=0 note=56 velocity=0 time=0
note_on channel=0 note=70 velocity=43 time=0
note_on channel=0 note=53 velocity=35 time=0
control_change channel=0 control=64 value=0 time=12
control_change channel=0 control=64 value=127 time=94
note_on channel=0 note=65 velocity=28 time=54
note_on channel=0 note=65 velocity=0 time=160
note_on channel=0 note=61 velocity=28 time=0
<meta message set_tempo tempo=490918 time=160>
note_on channel=0 note=61 velocity=0 time=0
note_on channel=0 note=70 velocity=0 time=0
note_on channel=0 note=68 velocity=39 time=0
note_on channel=0 note=65 velocity=28 time=160
note_on channel=0 note=65 velocity=0 time=160
note_on channel=0 note=61 velocity=28 time=0
<meta message set_tempo tempo=507786 time=150>
note_on channel=0 note=61 velocity=0 time=10
note_on channel=0 note=68 velocity=0 time=0
note_on channel=0 note=53 velocity=0 time=0
note_on channel=0 note=47 velocity=0 time=0
note_on channel=0 note=73 velocity=47 time=0
note_on channel=0 note=46 velocity=29 time=0
note_on channel=0 note=54 velocity=35 time=0
control_change channel=0 control=64 value=0 time=0
<meta message set_tempo tempo=505860 time=70>
control_change channel=0 control=64 value=127 time=57
<meta message set_tempo tempo=503948 time=3>
note_on channel=0 note=61 velocity=32 time=30
<meta message set_tempo tempo=502050 time=30>
<meta message set_tempo tempo=500167 time=60>
<meta message set_tempo tempo=498297 time=60>
note_on channel=0 note=61 velocity=0 time=10
note_on channel=0 note=66 velocity=32 time=0
<meta message set_tempo tempo=496442 time=70>
<meta message set_tempo tempo=494601 time=60>
note_on channel=0 note=66 velocity=0 time=30
note_on channel=0 note=70 velocity=32 time=0
<meta message set_tempo tempo=492773 time=30>
<meta message set_tempo tempo=490918 time=60>
<meta message set_tempo tempo=489117 time=60>
note_on channel=0 note=70 velocity=0 time=10
note_on channel=0 note=66 velocity=32 time=0
<meta message set_tempo tempo=487329 time=70>
<meta message set_tempo tempo=485555 time=60>
note_on channel=0 note=66 velocity=0 time=30
note_on channel=0 note=61 velocity=31 time=0
<meta message set_tempo tempo=483793 time=30>
<meta message set_tempo tempo=482044 time=60>
<meta message set_tempo tempo=480307 time=60>
<meta message set_tempo tempo=473447 time=10>
note_on channel=0 note=61 velocity=0 time=0
note_on channel=0 note=66 velocity=41 time=0
note_on channel=0 note=66 velocity=0 time=160
note_on channel=0 note=61 velocity=31 time=0
note_on channel=0 note=61 velocity=0 time=160
note_on channel=0 note=66 velocity=27 time=0
<meta message set_tempo tempo=485555 time=80>
<meta message set_tempo tempo=483793 time=60>
<meta message set_tempo tempo=483793 time=20>
note_on channel=0 note=66 velocity=0 time=0
note_on channel=0 note=70 velocity=36 time=0
note_on channel=0 note=70 velocity=0 time=160
note_on channel=0 note=66 velocity=30 time=0
note_on channel=0 note=66 velocity=0 time=160
note_on channel=0 note=61 velocity=26 time=0
<meta message set_tempo tempo=487329 time=160>
note_on channel=0 note=61 velocity=0 time=0
note_on channel=0 note=73 velocity=0 time=0
note_on channel=0 note=46 velocity=0 time=0
note_on channel=0 note=54 velocity=0 time=0
note_on channel=0 note=73 velocity=46 time=0
note_on channel=0 note=47 velocity=29 time=0
note_on channel=0 note=54 velocity=35 time=0
control_change channel=0 control=64 value=0 time=15
control_change channel=0 control=64 value=127 time=98
note_on channel=0 note=66 velocity=29 time=47
note_on channel=0 note=66 velocity=0 time=160
note_on channel=0 note=63 velocity=29 time=0
note_on channel=0 note=63 velocity=0 time=160
note_on channel=0 note=73 velocity=0 time=0
note_on channel=0 note=71 velocity=43 time=0
note_on channel=0 note=66 velocity=28 time=160
note_on channel=0 note=66 velocity=0 time=160
note_on channel=0 note=63 velocity=28 time=0
<meta message set_tempo tempo=489117 time=160>
note_on channel=0 note=63 velocity=0 time=0
note_on channel=0 note=71 velocity=0 time=0
note_on channel=0 note=54 velocity=0 time=0
note_on channel=0 note=68 velocity=43 time=0
note_on channel=0 note=56 velocity=35 time=0
control_change channel=0 control=64 value=0 time=12
control_change channel=0 control=64 value=127 time=94
note_on channel=0 note=63 velocity=28 time=54
note_on channel=0 note=63 velocity=0 time=160
note_on channel=0 note=59 velocity=28 time=0
<meta message set_tempo tempo=517688 time=160>
note_on channel=0 note=59 velocity=0 time=0
note_on channel=0 note=68 velocity=0 time=0
note_on channel=0 note=63 velocity=39 time=0
note_on channel=0 note=59 velocity=28 time=160
note_on channel=0 note=56 velocity=0 time=158
note_on channel=0 note=59 velocity=0 time=2
note_on channel=0 note=56 velocity=28 time=0
<meta message set_tempo tempo=507786 time=160>
note_on channel=0 note=56 velocity=0 time=0
note_on channel=0 note=63 velocity=0 time=0
note_on channel=0 note=47 velocity=0 time=0
note_on channel=0 note=66 velocity=47 time=0
note_on channel=0 note=49 velocity=35 time=0
control_change channel=0 control=64 value=0 time=0
<meta message set_tempo tempo=505860 time=70>
control_change channel=0 control=64 value=127 time=57
<meta message set_tempo tempo=503948 time=3>
note_on channel=0 note=54 velocity=29 time=30
<meta message set_tempo tempo=502050 time=30>
<meta message set_tempo tempo=500167 time=60>
<meta message set_tempo tempo=498297 time=60>
note_on channel=0 note=54 velocity=0 time=10
note_on channel=0 note=58 velocity=29 time=0
<meta message set_tempo tempo=496442 time=70>
<meta message set_tempo tempo=494601 time=60>
note_on channel=0 note=58 velocity=0 time=30
note_on channel=0 note=61 velocity=39 time=0
<meta message set_tempo tempo=492773 time=30>
<meta message set_tempo tempo=490918 time=60>
<meta message set_tempo tempo=489117 time=60>
note_on channel=0 note=61 velocity=0 time=10
note_on channel=0 note=58 velocity=29 time=0
<meta message set_tempo tempo=487329 time=70>
<meta message set_tempo tempo=485555 time=60>
note_on channel=0 note=58 velocity=0 time=30
note_on channel=0 note=54 velocity=29 time=0
<meta message set_tempo tempo=483793 time=30>
<meta message set_tempo tempo=482044 time=60>
<meta message set_tempo tempo=480307 time=60>
note_on channel=0 note=54 velocity=0 time=10
note_on channel=0 note=58 velocity=36 time=0
note_on channel=0 note=58 velocity=0 time=160
note_on channel=0 note=54 velocity=30 time=0
note_on channel=0 note=54 velocity=0 time=160
note_on channel=0 note=58 velocity=30 time=0
<meta message set_tempo tempo=485555 time=80>
<meta message set_tempo tempo=483793 time=60>
<meta message set_tempo tempo=483793 time=20>
note_on channel=0 note=58 velocity=0 time=0
note_on channel=0 note=61 velocity=36 time=0
note_on channel=0 note=61 velocity=0 time=160
note_on channel=0 note=58 velocity=30 time=0
note_on channel=0 note=58 velocity=0 time=160
note_on channel=0 note=54 velocity=30 time=0
note_on channel=0 note=37 velocity=35 time=40
<meta message set_tempo tempo=487329 time=120>
note_on channel=0 note=37 velocity=0 time=0
note_on channel=0 note=66 velocity=0 time=0
note_on channel=0 note=49 velocity=0 time=0
note_on channel=0 note=54 velocity=0 time=0
note_on channel=0 note=66 velocity=45 time=0
note_on channel=0 note=49 velocity=35 time=0
control_change channel=0 control=64 value=0 time=15
control_change channel=0 control=64 value=127 time=98
note_on channel=0 note=59 velocity=29 time=47
note_on channel=0 note=59 velocity=0 time=160
note_on channel=0 note=56 velocity=29 time=0
note_on channel=0 note=56 velocity=0 time=160
note_on channel=0 note=66 velocity=0 time=0
note_on channel=0 note=65 velocity=41 time=0
note_on channel=0 note=59 velocity=28 time=160
note_on channel=0 note=59 velocity=0 time=160
note_on channel=0 note=56 velocity=28 time=0
<meta message set_tempo tempo=489117 time=160>
note_on channel=0 note=56 velocity=0 time=0
note_on channel=0 note=65 velocity=0 time=0
note_on channel=0 note=70 velocity=42 time=0
note_on channel=0 note=54 velocity=35 time=0
control_change channel=0 control=64 value=0 time=12
control_change channel=0 control=64 value=127 time=94
note_on channel=0 note=61 velocity=28 time=54
note_on channel=0 note=61 velocity=0 time=160
note_on channel=0 note=59 velocity=28 time=0
<meta message set_tempo tempo=517688 time=160>
note_on channel=0 note=59 velocity=0 time=0
note_on channel=0 note=54 velocity=0 time=0
note_on channel=0 note=70 velocity=0 time=0
note_on channel=0 note=68 velocity=39 time=0
note_on channel=0 note=53 velocity=35 time=0
note_on channel=0 note=61 velocity=26 time=160
note_on channel=0 note=61 velocity=0 time=160
note_on channel=0 note=59 velocity=26 time=0
<meta message set_tempo tempo=507786 time=160>
note_on channel=0 note=59 velocity=0 time=0
note_on channel=0 note=53 velocity=0 time=0
note_on channel=0 note=68 velocity=0 time=0
note_on channel=0 note=49 velocity=0 time=0
note_on channel=0 note=66 velocity=47 time=0
note_on channel=0 note=42 velocity=30 time=0
note_on channel=0 note=49 velocity=35 time=0
control_change channel=0 control=64 value=0 time=0
<meta message set_tempo tempo=505860 time=70>
control_change channel=0 control=64 value=127 time=57
<meta message set_tempo tempo=503948 time=3>
note_on channel=0 note=54 velocity=29 time=30
<meta message set_tempo tempo=502050 time=30>
<meta message set_tempo tempo=500167 time=60>
<meta message set_tempo tempo=498297 time=60>
note_on channel=0 note=54 velocity=0 time=10
note_on channel=0 note=58 velocity=29 time=0
<meta message set_tempo tempo=496442 time=70>
<meta message set_tempo tempo=494601 time=60>
note_on channel=0 note=58 velocity=0 time=30
note_on channel=0 note=61 velocity=29 time=0
<meta message set_tempo tempo=492773 time=30>
<meta message set_tempo tempo=490918 time=60>
<meta message set_tempo tempo=489117 time=60>
note_on channel=0 note=61 velocity=0 time=10
note_on channel=0 note=58 velocity=29 time=0
<meta message set_tempo tempo=487329 time=70>
<meta message set_tempo tempo=485555 time=60>
note_on channel=0 note=58 velocity=0 time=30
note_on channel=0 note=54 velocity=26 time=0
<meta message set_tempo tempo=483793 time=30>
<meta message set_tempo tempo=482044 time=60>
<meta message set_tempo tempo=480307 time=60>
note_on channel=0 note=54 velocity=0 time=10
note_on channel=0 note=58 velocity=36 time=0
note_on channel=0 note=58 velocity=0 time=160
note_on channel=0 note=54 velocity=30 time=0
note_on channel=0 note=54 velocity=0 time=160
note_on channel=0 note=58 velocity=30 time=0
<meta message set_tempo tempo=485555 time=80>
<meta message set_tempo tempo=483793 time=60>
<meta message set_tempo tempo=483793 time=20>
note_on channel=0 note=58 velocity=0 time=0
note_on channel=0 note=61 velocity=36 time=0
note_on channel=0 note=61 velocity=0 time=160
note_on channel=0 note=58 velocity=30 time=0
note_on channel=0 note=58 velocity=0 time=160
note_on channel=0 note=54 velocity=30 time=0
<meta message set_tempo tempo=507786 time=160>
note_on channel=0 note=54 velocity=0 time=0
note_on channel=0 note=66 velocity=0 time=0
note_on channel=0 note=42 velocity=0 time=0
note_on channel=0 note=49 velocity=0 time=0
note_on channel=0 note=66 velocity=47 time=0
note_on channel=0 note=49 velocity=35 time=0
note_on channel=0 note=46 velocity=30 time=0
control_change channel=0 control=64 value=0 time=0
<meta message set_tempo tempo=505860 time=70>
control_change channel=0 control=64 value=127 time=57
<meta message set_tempo tempo=503948 time=3>
note_on channel=0 note=54 velocity=29 time=30
<meta message set_tempo tempo=502050 time=30>
<meta message set_tempo tempo=500167 time=60>
<meta message set_tempo tempo=498297 time=60>
note_on channel=0 note=54 velocity=0 time=10
note_on channel=0 note=58 velocity=29 time=0
<meta message set_tempo tempo=496442 time=70>
<meta message set_tempo tempo=494601 time=60>
note_on channel=0 note=58 velocity=0 time=30
note_on channel=0 note=61 velocity=36 time=0
<meta message set_tempo tempo=492773 time=30>
<meta message set_tempo tempo=490918 time=60>
<meta message set_tempo tempo=489117 time=60>
note_on channel=0 note=61 velocity=0 time=10
note_on channel=0 note=58 velocity=29 time=0
<meta message set_tempo tempo=487329 time=70>
<meta message set_tempo tempo=485555 time=60>
note_on channel=0 note=58 velocity=0 time=30
note_on channel=0 note=54 velocity=31 time=0
<meta message set_tempo tempo=483793 time=30>
<meta message set_tempo tempo=482044 time=60>
<meta message set_tempo tempo=480307 time=60>
note_on channel=0 note=54 velocity=0 time=10
note_on channel=0 note=66 velocity=0 time=0
note_on channel=0 note=49 velocity=0 time=0
note_on channel=0 note=46 velocity=0 time=0
note_on channel=0 note=67 velocity=47 time=0
note_on channel=0 note=46 velocity=30 time=0
note_on channel=0 note=49 velocity=35 time=0
control_change channel=0 control=64 value=0 time=14
control_change channel=0 control=64 value=127 time=123
note_on channel=0 note=55 velocity=30 time=23
note_on channel=0 note=55 velocity=0 time=160
note_on channel=0 note=58 velocity=30 time=0
<meta message set_tempo tempo=485555 time=80>
<meta message set_tempo tempo=483793 time=60>
<meta message set_tempo tempo=505860 time=20>
note_on channel=0 note=58 velocity=0 time=0
note_on channel=0 note=61 velocity=36 time=0
note_on channel=0 note=61 velocity=0 time=160
note_on channel=0 note=58 velocity=30 time=0
note_on channel=0 note=58 velocity=0 time=160
note_on channel=0 note=55 velocity=30 time=0
<meta message set_tempo tempo=540833 time=160>
note_on channel=0 note=55 velocity=0 time=0
note_on channel=0 note=67 velocity=0 time=0
note_on channel=0 note=46 velocity=0 time=0
note_on channel=0 note=49 velocity=0 time=0
note_on channel=0 note=68 velocity=44 time=0
note_on channel=0 note=49 velocity=29 time=0
note_on channel=0 note=53 velocity=35 time=0
control_change channel=0 control=64 value=0 time=0
<meta message set_tempo tempo=532198 time=2>
<meta message set_tempo tempo=530035 time=60>
<meta message set_tempo tempo=527937 time=60>
control_change channel=0 control=64 value=127 time=34
note_on channel=0 note=56 velocity=26 time=4
<meta message set_tempo tempo=525855 time=22>
<meta message set_tempo tempo=523789 time=60>
<meta message set_tempo tempo=521739 time=60>
note_on channel=0 note=56 velocity=0 time=18
note_on channel=0 note=61 velocity=26 time=0
<meta message set_tempo tempo=519706 time=42>
<meta message set_tempo tempo=517688 time=40>
<meta message set_tempo tempo=515685 time=60>
note_on channel=0 note=61 velocity=0 time=18
note_on channel=0 note=65 velocity=29 time=0
<meta message set_tempo tempo=515685 time=36>
<meta message set_tempo tempo=513699 time=40>
<meta message set_tempo tempo=511727 time=40>
<meta message set_tempo tempo=509727 time=40>
note_on channel=0 note=65 velocity=0 time=4
note_on channel=0 note=61 velocity=25 time=0
<meta message set_tempo tempo=507786 time=36>
<meta message set_tempo tempo=505860 time=40>
<meta message set_tempo tempo=503948 time=20>
<meta message set_tempo tempo=502050 time=40>
note_on channel=0 note=61 velocity=0 time=24
note_on channel=0 note=56 velocity=25 time=0
<meta message set_tempo tempo=500167 time=16>
<meta message set_tempo tempo=498297 time=40>
<meta message set_tempo tempo=496442 time=40>
<meta message set_tempo tempo=494601 time=20>
<meta message set_tempo tempo=492773 time=40>
note_on channel=0 note=56 velocity=0 time=4
note_on channel=0 note=61 velocity=30 time=0
<meta message set_tempo tempo=490918 time=36>
<meta message set_tempo tempo=489117 time=40>
<meta message set_tempo tempo=487329 time=40>
<meta message set_tempo tempo=485555 time=20>
note_on channel=0 note=61 velocity=0 time=24
note_on channel=0 note=56 velocity=26 time=0
<meta message set_tempo tempo=483793 time=16>
<meta message set_tempo tempo=482044 time=40>
<meta message set_tempo tempo=480307 time=40>
<meta message set_tempo tempo=478583 time=40>
<meta message set_tempo tempo=476872 time=20>
note_on channel=0 note=56 velocity=0 time=4
note_on channel=0 note=61 velocity=26 time=0
<meta message set_tempo tempo=476872 time=16>
note_on channel=0 note=61 velocity=0 time=144
note_on channel=0 note=65 velocity=30 time=0
note_on channel=0 note=65 velocity=0 time=160
note_on channel=0 note=61 velocity=27 time=0
note_on channel=0 note=61 velocity=0 time=160
note_on channel=0 note=56 velocity=27 time=0
<meta message set_tempo tempo=465188 time=160>
note_on channel=0 note=56 velocity=0 time=0
note_on channel=0 note=68 velocity=0 time=0
note_on channel=0 note=49 velocity=0 time=0
note_on channel=0 note=53 velocity=0 time=0
note_on channel=0 note=70 velocity=43 time=0
note_on channel=0 note=46 velocity=34 time=0
note_on channel=0 note=55 velocity=40 time=0
note_on channel=0 note=52 velocity=34 time=0
control_change channel=0 control=64 value=0 time=14
control_change channel=0 control=64 value=127 time=123
note_on channel=0 note=61 velocity=29 time=23
note_on channel=0 note=61 velocity=0 time=160
note_on channel=0 note=64 velocity=31 time=0
<meta message set_tempo tempo=482044 time=160>
note_on channel=0 note=64 velocity=0 time=0
note_on channel=0 note=67 velocity=42 time=0
note_on channel=0 note=67 velocity=0 time=160
note_on channel=0 note=64 velocity=38 time=0
note_on channel=0 note=64 velocity=0 time=160
note_on channel=0 note=61 velocity=43 time=0
<meta message set_tempo tempo=490918 time=122>
<meta message set_tempo tempo=487329 time=38>
note_on channel=0 note=61 velocity=0 time=0
note_on channel=0 note=52 velocity=0 time=0
note_on channel=0 note=63 velocity=48 time=0
note_on channel=0 note=51 velocity=55 time=6
control_change channel=0 control=64 value=0 time=8
control_change channel=0 control=64 value=127 time=129
note_on channel=0 note=63 velocity=0 time=17
note_on channel=0 note=61 velocity=52 time=0
note_on channel=0 note=61 velocity=0 time=160
note_on channel=0 note=63 velocity=57 time=0
<meta message set_tempo tempo=485555 time=82>
note_on channel=0 note=63 velocity=0 time=78
note_on channel=0 note=67 velocity=62 time=0
<meta message set_tempo tempo=487329 time=2>
<meta message set_tempo tempo=489117 time=60>
<meta message set_tempo tempo=490918 time=80>
note_on channel=0 note=67 velocity=0 time=18
note_on channel=0 note=63 velocity=58 time=0
<meta message set_tempo tempo=492773 time=42>
<meta message set_tempo tempo=494601 time=80>
note_on channel=0 note=63 velocity=0 time=38
note_on channel=0 note=61 velocity=60 time=0
<meta message set_tempo tempo=496442 time=22>
<meta message set_tempo tempo=507786 time=64>
<meta message set_tempo tempo=511727 time=60>
note_on channel=0 note=61 velocity=0 time=14
note_on channel=0 note=55 velocity=0 time=0
note_on channel=0 note=70 velocity=0 time=0
note_on channel=0 note=46 velocity=0 time=0
note_on channel=0 note=73 velocity=78 time=0
note_on channel=0 note=44 velocity=41 time=0
note_on channel=0 note=51 velocity=41 time=0
note_on channel=0 note=55 velocity=50 time=0
control_change channel=0 control=64 value=0 time=5
note_on channel=0 note=51 velocity=0 time=1
<meta message set_tempo tempo=509727 time=40>
<meta message set_tempo tempo=507786 time=60>
control_change channel=0 control=64 value=127 time=21
note_on channel=0 note=61 velocity=59 time=33
<meta message set_tempo tempo=505860 time=6>
<meta message set_tempo tempo=503948 time=60>
<meta message set_tempo tempo=502050 time=40>
note_on channel=0 note=61 velocity=0 time=54
note_on channel=0 note=63 velocity=57 time=0
<meta message set_tempo tempo=505860 time=22>
<meta message set_tempo tempo=503948 time=80>
note_on channel=0 note=63 velocity=0 time=58
note_on channel=0 note=70 velocity=68 time=0
<meta message set_tempo tempo=502050 time=42>
<meta message set_tempo tempo=500167 time=80>
note_on channel=0 note=70 velocity=0 time=38
note_on channel=0 note=63 velocity=42 time=0
<meta message set_tempo tempo=498297 time=42>
<meta message set_tempo tempo=496442 time=80>
note_on channel=0 note=63 velocity=0 time=38
note_on channel=0 note=61 velocity=47 time=0
<meta message set_tempo tempo=494601 time=42>
<meta message set_tempo tempo=492773 time=80>
note_on channel=0 note=61 velocity=0 time=38
note_on channel=0 note=63 velocity=56 time=0
<meta message set_tempo tempo=490918 time=62>
<meta message set_tempo tempo=489117 time=80>
note_on channel=0 note=63 velocity=0 time=18
note_on channel=0 note=61 velocity=35 time=0
<meta message set_tempo tempo=487329 time=62>
<meta message set_tempo tempo=485555 time=80>
note_on channel=0 note=61 velocity=0 time=18
note_on channel=0 note=63 velocity=36 time=0
<meta message set_tempo tempo=483793 time=62>
note_on channel=0 note=63 velocity=0 time=98
note_on channel=0 note=73 velocity=0 time=0
note_on channel=0 note=55 velocity=0 time=0
note_on channel=0 note=71 velocity=50 time=0
note_on channel=0 note=68 velocity=37 time=0
note_on channel=0 note=56 velocity=44 time=0
note_on channel=0 note=68 velocity=0 time=160
note_on channel=0 note=63 velocity=33 time=0
note_on channel=0 note=63 velocity=0 time=160
note_on channel=0 note=59 velocity=33 time=0
<meta message set_tempo tempo=489117 time=160>
note_on channel=0 note=59 velocity=0 time=0
note_on channel=0 note=71 velocity=0 time=0
note_on channel=0 note=51 velocity=0 time=0
note_on channel=0 note=44 velocity=0 time=0
note_on channel=0 note=56 velocity=0 time=0
note_on channel=0 note=71 velocity=41 time=0
note_on channel=0 note=51 velocity=29 time=0
note_on channel=0 note=56 velocity=35 time=0
note_on channel=0 note=44 velocity=29 time=0
control_change channel=0 control=64 value=0 time=7
note_on channel=0 note=59 velocity=28 time=153
control_change channel=0 control=64 value=127 time=10
note_on channel=0 note=59 velocity=0 time=150
note_on channel=0 note=63 velocity=28 time=0
note_on channel=0 note=63 velocity=0 time=160
note_on channel=0 note=68 velocity=30 time=0
note_on channel=0 note=68 velocity=0 time=160
note_on channel=0 note=63 velocity=25 time=0
note_on channel=0 note=63 velocity=0 time=160
note_on channel=0 note=59 velocity=25 time=0
<meta message set_tempo tempo=500167 time=140>
note_on channel=0 note=59 velocity=0 time=20
note_on channel=0 note=63 velocity=31 time=0
<meta message set_tempo tempo=502050 time=40>
<meta message set_tempo tempo=503948 time=60>
<meta message set_tempo tempo=505860 time=60>
note_on channel=0 note=63 velocity=0 time=0
note_on channel=0 note=59 velocity=25 time=0
<meta message set_tempo tempo=507786 time=60>
<meta message set_tempo tempo=509727 time=60>
note_on channel=0 note=59 velocity=0 time=40
note_on channel=0 note=63 velocity=25 time=0
<meta message set_tempo tempo=511727 time=20>
<meta message set_tempo tempo=513699 time=60>
<meta message set_tempo tempo=515685 time=60>
<meta message set_tempo tempo=540833 time=20>
note_on channel=0 note=63 velocity=0 time=0
note_on channel=0 note=68 velocity=29 time=0
note_on channel=0 note=68 velocity=0 time=160
note_on channel=0 note=63 velocity=25 time=0
note_on channel=0 note=44 velocity=0 time=80
note_on channel=0 note=42 velocity=60 time=0
note_on channel=0 note=63 velocity=0 time=80
note_on channel=0 note=59 velocity=25 time=0
<meta message set_tempo tempo=540833 time=160>
note_on channel=0 note=59 velocity=0 time=0
note_on channel=0 note=42 velocity=0 time=0
note_on channel=0 note=71 velocity=0 time=0
note_on channel=0 note=51 velocity=0 time=0
note_on channel=0 note=56 velocity=0 time=0
note_on channel=0 note=71 velocity=54 time=0
note_on channel=0 note=40 velocity=68 time=0
control_change channel=0 control=64 value=0 time=0
<meta message set_tempo tempo=532198 time=2>
<meta message set_tempo tempo=530035 time=60>
<meta message set_tempo tempo=527937 time=60>
control_change channel=0 control=64 value=127 time=34
note_on channel=0 note=59 velocity=33 time=4
<meta message set_tempo tempo=525855 time=22>
<meta message set_tempo tempo=523789 time=60>
<meta message set_tempo tempo=521739 time=60>
note_on channel=0 note=59 velocity=0 time=18
note_on channel=0 note=64 velocity=33 time=0
<meta message set_tempo tempo=519706 time=42>
<meta message set_tempo tempo=517688 time=40>
<meta message set_tempo tempo=517688 time=44>
note_on channel=0 note=64 velocity=0 time=34
note_on channel=0 note=68 velocity=37 time=0
<meta message set_tempo tempo=515685 time=6>
<meta message set_tempo tempo=513699 time=40>
<meta message set_tempo tempo=511727 time=40>
<meta message set_tempo tempo=509727 time=20>
<meta message set_tempo tempo=507786 time=40>
note_on channel=0 note=68 velocity=0 time=14
note_on channel=0 note=64 velocity=32 time=0
<meta message set_tempo tempo=505860 time=26>
<meta message set_tempo tempo=503948 time=40>
<meta message set_tempo tempo=502050 time=20>
<meta message set_tempo tempo=500167 time=40>
note_on channel=0 note=64 velocity=0 time=34
note_on channel=0 note=59 velocity=32 time=0
<meta message set_tempo tempo=498297 time=6>
<meta message set_tempo tempo=496442 time=40>
<meta message set_tempo tempo=494601 time=20>
<meta message set_tempo tempo=492773 time=40>
<meta message set_tempo tempo=490918 time=40>
note_on channel=0 note=59 velocity=0 time=14
note_on channel=0 note=64 velocity=39 time=0
<meta message set_tempo tempo=489117 time=26>
<meta message set_tempo tempo=487329 time=20>
<meta message set_tempo tempo=485555 time=40>
<meta message set_tempo tempo=483793 time=40>
note_on channel=0 note=64 velocity=0 time=34
note_on channel=0 note=59 velocity=33 time=0
<meta message set_tempo tempo=482044 time=6>
<meta message set_tempo tempo=480307 time=20>
<meta message set_tempo tempo=478583 time=40>
<meta message set_tempo tempo=476872 time=40>
note_on channel=0 note=59 velocity=0 time=54
note_on channel=0 note=64 velocity=33 time=0
<meta message set_tempo tempo=478583 time=146>
note_on channel=0 note=64 velocity=0 time=14
note_on channel=0 note=68 velocity=43 time=0
note_on channel=0 note=68 velocity=0 time=160
note_on channel=0 note=64 velocity=36 time=0
note_on channel=0 note=64 velocity=0 time=160
note_on channel=0 note=59 velocity=37 time=0
<meta message set_tempo tempo=466817 time=160>
note_on channel=0 note=59 velocity=0 time=0
note_on channel=0 note=40 velocity=0 time=0
note_on channel=0 note=71 velocity=0 time=0
note_on channel=0 note=71 velocity=58 time=0
note_on channel=0 note=39 velocity=55 time=0
control_change channel=0 control=64 value=0 time=14
control_change channel=0 control=64 value=127 time=123
note_on channel=0 note=59 velocity=39 time=23
note_on channel=0 note=59 velocity=0 time=160
note_on channel=0 note=63 velocity=40 time=0
<meta message set_tempo tempo=482044 time=160>
note_on channel=0 note=63 velocity=0 time=0
note_on channel=0 note=66 velocity=49 time=0
note_on channel=0 note=66 velocity=0 time=160
note_on channel=0 note=63 velocity=43 time=0
note_on channel=0 note=63 velocity=0 time=160
note_on channel=0 note=59 velocity=45 time=0
<meta message set_tempo tempo=490918 time=122>
<meta message set_tempo tempo=487329 time=38>
note_on channel=0 note=59 velocity=0 time=0
note_on channel=0 note=39 velocity=0 time=0
note_on channel=0 note=71 velocity=0 time=0
note_on channel=0 note=73 velocity=54 time=0
note_on channel=0 note=37 velocity=56 time=0
control_change channel=0 control=64 value=0 time=12
note_on channel=0 note=37 velocity=0 time=84
note_on channel=0 note=39 velocity=38 time=0
control_change channel=0 control=64 value=127 time=19
note_on channel=0 note=64 velocity=46 time=45
note_on channel=0 note=39 velocity=0 time=32
note_on channel=0 note=37 velocity=45 time=0
note_on channel=0 note=37 velocity=0 time=96
note_on channel=0 note=39 velocity=39 time=0
note_on channel=0 note=64 velocity=0 time=32
note_on channel=0 note=66 velocity=49 time=0
note_on channel=0 note=39 velocity=0 time=64
note_on channel=0 note=37 velocity=42 time=0
<meta message set_tempo tempo=485555 time=18>
note_on channel=0 note=37 velocity=0 time=78
note_on channel=0 note=66 velocity=0 time=0
note_on channel=0 note=70 velocity=62 time=0
note_on channel=0 note=39 velocity=44 time=0
<meta message set_tempo tempo=487329 time=2>
<meta message set_tempo tempo=489117 time=60>
note_on channel=0 note=39 velocity=0 time=34
note_on channel=0 note=37 velocity=55 time=0
<meta message set_tempo tempo=490918 time=46>
note_on channel=0 note=70 velocity=0 time=18
note_on channel=0 note=66 velocity=59 time=0
<meta message set_tempo tempo=492773 time=42>
note_on channel=0 note=37 velocity=0 time=22
note_on channel=0 note=35 velocity=46 time=0
<meta message set_tempo tempo=494601 time=58>
note_on channel=0 note=66 velocity=0 time=38
note_on channel=0 note=64 velocity=67 time=0
<meta message set_tempo tempo=496442 time=22>
note_on channel=0 note=35 velocity=0 time=10
note_on channel=0 note=37 velocity=56 time=0
<meta message set_tempo tempo=507786 time=54>
<meta message set_tempo tempo=511727 time=60>
note_on channel=0 note=37 velocity=0 time=14
note_on channel=0 note=64 velocity=0 time=0
note_on channel=0 note=73 velocity=0 time=0
note_on channel=0 note=76 velocity=77 time=0
note_on channel=0 note=35 velocity=67 time=0
control_change channel=0 control=64 value=0 time=5
<meta message set_tempo tempo=509727 time=41>
<meta message set_tempo tempo=507786 time=60>
control_change channel=0 control=64 value=127 time=21
note_on channel=0 note=64 velocity=53 time=33
<meta message set_tempo tempo=505860 time=6>
<meta message set_tempo tempo=503948 time=60>
<meta message set_tempo tempo=502050 time=40>
note_on channel=0 note=64 velocity=0 time=54
note_on channel=0 note=66 velocity=52 time=0
<meta message set_tempo tempo=505860 time=22>
<meta message set_tempo tempo=503948 time=80>
note_on channel=0 note=66 velocity=0 time=58
note_on channel=0 note=73 velocity=63 time=0
<meta message set_tempo tempo=502050 time=42>
<meta message set_tempo tempo=500167 time=80>
note_on channel=0 note=73 velocity=0 time=38
note_on channel=0 note=66 velocity=46 time=0
<meta message set_tempo tempo=498297 time=42>
<meta message set_tempo tempo=496442 time=80>
note_on channel=0 note=66 velocity=0 time=38
note_on channel=0 note=64 velocity=46 time=0
<meta message set_tempo tempo=494601 time=42>
<meta message set_tempo tempo=492773 time=80>
note_on channel=0 note=64 velocity=0 time=38
note_on channel=0 note=66 velocity=54 time=0
<meta message set_tempo tempo=490918 time=62>
<meta message set_tempo tempo=489117 time=80>
note_on channel=0 note=66 velocity=0 time=18
note_on channel=0 note=64 velocity=40 time=0
<meta message set_tempo tempo=487329 time=62>
<meta message set_tempo tempo=485555 time=80>
note_on channel=0 note=64 velocity=0 time=18
note_on channel=0 note=66 velocity=40 time=0
<meta message set_tempo tempo=483793 time=62>
<meta message set_tempo tempo=482044 time=80>
note_on channel=0 note=66 velocity=0 time=18
note_on channel=0 note=76 velocity=0 time=0
note_on channel=0 note=75 velocity=51 time=0
note_on channel=0 note=71 velocity=51 time=0
<meta message set_tempo tempo=487329 time=2>
<meta message set_tempo tempo=496442 time=18>
note_on channel=0 note=71 velocity=0 time=140
note_on channel=0 note=66 velocity=37 time=0
note_on channel=0 note=66 velocity=0 time=160
note_on channel=0 note=63 velocity=37 time=0
<meta message set_tempo tempo=489117 time=160>
note_on channel=0 note=63 velocity=0 time=0
note_on channel=0 note=75 velocity=0 time=0
note_on channel=0 note=75 velocity=55 time=0
control_change channel=0 control=64 value=0 time=7
control_change channel=0 control=64 value=127 time=96
note_on channel=0 note=63 velocity=35 time=57
note_on channel=0 note=63 velocity=0 time=160
note_on channel=0 note=66 velocity=35 time=0
note_on channel=0 note=66 velocity=0 time=160
note_on channel=0 note=71 velocity=45 time=0
note_on channel=0 note=71 velocity=0 time=160
note_on channel=0 note=66 velocity=30 time=0
note_on channel=0 note=66 velocity=0 time=160
note_on channel=0 note=63 velocity=32 time=0
<meta message set_tempo tempo=500167 time=140>
note_on channel=0 note=63 velocity=0 time=20
note_on channel=0 note=66 velocity=42 time=0
<meta message set_tempo tempo=489117 time=14>
<meta message set_tempo tempo=490918 time=80>
note_on channel=0 note=66 velocity=0 time=66
note_on channel=0 note=63 velocity=31 time=0
<meta message set_tempo tempo=492773 time=14>
<meta message set_tempo tempo=494601 time=40>
<meta message set_tempo tempo=496442 time=80>
note_on channel=0 note=63 velocity=0 time=26
note_on channel=0 note=66 velocity=31 time=0
<meta message set_tempo tempo=498297 time=14>
<meta message set_tempo tempo=500167 time=80>
<meta message set_tempo tempo=502050 time=40>
<meta message set_tempo tempo=515685 time=6>
<meta message set_tempo tempo=540833 time=20>
note_on channel=0 note=66 velocity=0 time=0
note_on channel=0 note=71 velocity=41 time=0
note_on channel=0 note=71 velocity=0 time=160
note_on channel=0 note=66 velocity=31 time=0
note_on channel=0 note=66 velocity=0 time=160
note_on channel=0 note=63 velocity=31 time=0
<meta message set_tempo tempo=521739 time=150>
<meta message set_tempo tempo=521739 time=10>
note_on channel=0 note=63 velocity=0 time=0
note_on channel=0 note=75 velocity=0 time=0
note_on channel=0 note=35 velocity=0 time=0
note_on channel=0 note=75 velocity=47 time=0
note_on channel=0 note=47 velocity=29 time=0
note_on channel=0 note=54 velocity=35 time=0
control_change channel=0 control=64 value=0 time=0
<meta message set_tempo tempo=519706 time=50>
<meta message set_tempo tempo=517688 time=40>
control_change channel=0 control=64 value=127 time=37
<meta message set_tempo tempo=515685 time=3>
note_on channel=0 note=63 velocity=32 time=30
<meta message set_tempo tempo=513699 time=30>
<meta message set_tempo tempo=511727 time=40>
<meta message set_tempo tempo=509727 time=40>
note_on channel=0 note=63 velocity=0 time=50
note_on channel=0 note=66 velocity=32 time=0
<meta message set_tempo tempo=507786 time=10>
<meta message set_tempo tempo=505860 time=40>
<meta message set_tempo tempo=503948 time=40>
<meta message set_tempo tempo=502050 time=60>
note_on channel=0 note=66 velocity=0 time=10
note_on channel=0 note=71 velocity=37 time=0
<meta message set_tempo tempo=500167 time=30>
<meta message set_tempo tempo=498297 time=40>
<meta message set_tempo tempo=496442 time=60>
note_on channel=0 note=71 velocity=0 time=30
note_on channel=0 note=66 velocity=32 time=0
<meta message set_tempo tempo=494601 time=10>
<meta message set_tempo tempo=492773 time=40>
<meta message set_tempo tempo=490918 time=60>
<meta message set_tempo tempo=489117 time=40>
note_on channel=0 note=66 velocity=0 time=10
note_on channel=0 note=63 velocity=33 time=0
<meta message set_tempo tempo=487329 time=30>
<meta message set_tempo tempo=485555 time=60>
<meta message set_tempo tempo=483793 time=40>
note_on channel=0 note=63 velocity=0 time=30
note_on channel=0 note=66 velocity=35 time=0
note_on channel=0 note=66 velocity=0 time=160
note_on channel=0 note=63 velocity=31 time=0
note_on channel=0 note=63 velocity=0 time=160
note_on channel=0 note=66 velocity=31 time=0
<meta message set_tempo tempo=485555 time=80>
<meta message set_tempo tempo=483793 time=60>
<meta message set_tempo tempo=483793 time=20>
note_on channel=0 note=66 velocity=0 time=0
note_on channel=0 note=71 velocity=36 time=0
note_on channel=0 note=71 velocity=0 time=160
note_on channel=0 note=66 velocity=30 time=0
note_on channel=0 note=66 velocity=0 time=160
note_on channel=0 note=63 velocity=30 time=0
<meta message set_tempo tempo=487329 time=160>
note_on channel=0 note=63 velocity=0 time=0
note_on channel=0 note=75 velocity=0 time=0
note_on channel=0 note=47 velocity=0 time=0
note_on channel=0 note=54 velocity=0 time=0
note_on channel=0 note=75 velocity=50 time=0
note_on channel=0 note=47 velocity=29 time=0
note_on channel=0 note=56 velocity=35 time=0
control_change channel=0 control=64 value=0 time=15
control_change channel=0 control=64 value=127 time=98
note_on channel=0 note=68 velocity=29 time=47
note_on channel=0 note=68 velocity=0 time=160
note_on channel=0 note=65 velocity=29 time=0
note_on channel=0 note=65 velocity=0 time=160
note_on channel=0 note=75 velocity=0 time=0
note_on channel=0 note=74 velocity=48 time=0
note_on channel=0 note=68 velocity=28 time=160
note_on channel=0 note=68 velocity=0 time=160
note_on channel=0 note=65 velocity=28 time=0
<meta message set_tempo tempo=489117 time=160>
note_on channel=0 note=65 velocity=0 time=0
note_on channel=0 note=74 velocity=0 time=0
note_on channel=0 note=56 velocity=0 time=0
note_on channel=0 note=71 velocity=42 time=0
note_on channel=0 note=53 velocity=35 time=0
control_change channel=0 control=64 value=0 time=12
control_change channel=0 control=64 value=127 time=94
note_on channel=0 note=65 velocity=28 time=54
note_on channel=0 note=65 velocity=0 time=160
note_on channel=0 note=62 velocity=28 time=0
<meta message set_tempo tempo=490918 time=160>
note_on channel=0 note=62 velocity=0 time=0
note_on channel=0 note=71 velocity=0 time=0
note_on channel=0 note=68 velocity=39 time=0
note_on channel=0 note=65 velocity=28 time=160
note_on channel=0 note=65 velocity=0 time=160
note_on channel=0 note=61 velocity=28 time=0
<meta message set_tempo tempo=507786 time=150>
note_on channel=0 note=61 velocity=0 time=10
note_on channel=0 note=68 velocity=0 time=0
note_on channel=0 note=53 velocity=0 time=0
note_on channel=0 note=47 velocity=0 time=0
note_on channel=0 note=73 velocity=47 time=0
note_on channel=0 note=54 velocity=35 time=0
note_on channel=0 note=46 velocity=29 time=0
control_change channel=0 control=64 value=0 time=0
<meta message set_tempo tempo=505860 time=70>
control_change channel=0 control=64 value=127 time=57
<meta message set_tempo tempo=503948 time=3>
note_on channel=0 note=61 velocity=32 time=30
<meta message set_tempo tempo=502050 time=30>
<meta message set_tempo tempo=500167 time=60>
<meta message set_tempo tempo=498297 time=60>
note_on channel=0 note=61 velocity=0 time=10
note_on channel=0 note=66 velocity=32 time=0
<meta message set_tempo tempo=496442 time=70>
<meta message set_tempo tempo=494601 time=60>
note_on channel=0 note=66 velocity=0 time=30
note_on channel=0 note=70 velocity=36 time=0
<meta message set_tempo tempo=492773 time=30>
<meta message set_tempo tempo=490918 time=60>
<meta message set_tempo tempo=489117 time=60>
note_on channel=0 note=70 velocity=0 time=10
note_on channel=0 note=66 velocity=32 time=0
<meta message set_tempo tempo=487329 time=70>
<meta message set_tempo tempo=485555 time=60>
note_on channel=0 note=66 velocity=0 time=30
note_on channel=0 note=61 velocity=32 time=0
<meta message set_tempo tempo=483793 time=30>
<meta message set_tempo tempo=482044 time=60>
<meta message set_tempo tempo=480307 time=60>
note_on channel=0 note=61 velocity=0 time=10
note_on channel=0 note=66 velocity=36 time=0
note_on channel=0 note=66 velocity=0 time=160
note_on channel=0 note=61 velocity=31 time=0
note_on channel=0 note=61 velocity=0 time=160
note_on channel=0 note=66 velocity=31 time=0
<meta message set_tempo tempo=485555 time=80>
<meta message set_tempo tempo=483793 time=60>
<meta message set_tempo tempo=483793 time=20>
note_on channel=0 note=66 velocity=0 time=0
note_on channel=0 note=70 velocity=36 time=0
note_on channel=0 note=70 velocity=0 time=160
note_on channel=0 note=66 velocity=30 time=0
note_on channel=0 note=66 velocity=0 time=160
note_on channel=0 note=61 velocity=30 time=0
<meta message set_tempo tempo=487329 time=160>
note_on channel=0 note=61 velocity=0 time=0
note_on channel=0 note=73 velocity=0 time=0
note_on channel=0 note=54 velocity=0 time=0
note_on channel=0 note=46 velocity=0 time=0
note_on channel=0 note=73 velocity=46 time=0
note_on channel=0 note=55 velocity=35 time=0
note_on channel=0 note=47 velocity=29 time=0
control_change channel=0 control=64 value=0 time=15
control_change channel=0 control=64 value=127 time=98
note_on channel=0 note=67 velocity=29 time=47
note_on channel=0 note=67 velocity=0 time=160
note_on channel=0 note=63 velocity=29 time=0
note_on channel=0 note=63 velocity=0 time=160
note_on channel=0 note=55 velocity=0 time=0
note_on channel=0 note=73 velocity=0 time=0
note_on channel=0 note=71 velocity=43 time=0
note_on channel=0 note=56 velocity=35 time=0
note_on channel=0 note=68 velocity=28 time=160
note_on channel=0 note=68 velocity=0 time=160
note_on channel=0 note=63 velocity=28 time=0
<meta message set_tempo tempo=489117 time=160>
note_on channel=0 note=63 velocity=0 time=0
note_on channel=0 note=56 velocity=0 time=0
note_on channel=0 note=71 velocity=0 time=0
note_on channel=0 note=68 velocity=43 time=0
note_on channel=0 note=51 velocity=35 time=0
control_change channel=0 control=64 value=0 time=12
control_change channel=0 control=64 value=127 time=94
note_on channel=0 note=63 velocity=28 time=54
note_on channel=0 note=63 velocity=0 time=160
note_on channel=0 note=59 velocity=28 time=0
<meta message set_tempo tempo=517688 time=160>
note_on channel=0 note=59 velocity=0 time=0
note_on channel=0 note=68 velocity=0 time=0
note_on channel=0 note=47 velocity=0 time=0
note_on channel=0 note=63 velocity=39 time=0
note_on channel=0 note=48 velocity=29 time=0
note_on channel=0 note=60 velocity=28 time=160
note_on channel=0 note=60 velocity=0 time=160
note_on channel=0 note=56 velocity=28 time=0
<meta message set_tempo tempo=507786 time=160>
note_on channel=0 note=56 velocity=0 time=0
note_on channel=0 note=48 velocity=0 time=0
note_on channel=0 note=63 velocity=0 time=0
note_on channel=0 note=51 velocity=0 time=0
note_on channel=0 note=66 velocity=47 time=0
note_on channel=0 note=49 velocity=35 time=0
control_change channel=0 control=64 value=0 time=0
<meta message set_tempo tempo=505860 time=70>
control_change channel=0 control=64 value=127 time=57
<meta message set_tempo tempo=503948 time=3>
note_on channel=0 note=54 velocity=29 time=30
<meta message set_tempo tempo=502050 time=30>
<meta message set_tempo tempo=500167 time=60>
<meta message set_tempo tempo=498297 time=60>
note_on channel=0 note=54 velocity=0 time=10
note_on channel=0 note=58 velocity=29 time=0
<meta message set_tempo tempo=496442 time=70>
<meta message set_tempo tempo=494601 time=60>
note_on channel=0 note=58 velocity=0 time=30
note_on channel=0 note=61 velocity=34 time=0
<meta message set_tempo tempo=492773 time=30>
<meta message set_tempo tempo=490918 time=60>
<meta message set_tempo tempo=489117 time=60>
note_on channel=0 note=61 velocity=0 time=10
note_on channel=0 note=58 velocity=29 time=0
<meta message set_tempo tempo=487329 time=70>
<meta message set_tempo tempo=485555 time=60>
note_on channel=0 note=58 velocity=0 time=30
note_on channel=0 note=54 velocity=30 time=0
<meta message set_tempo tempo=483793 time=30>
<meta message set_tempo tempo=482044 time=60>
<meta message set_tempo tempo=480307 time=60>
note_on channel=0 note=54 velocity=0 time=10
note_on channel=0 note=58 velocity=34 time=0
note_on channel=0 note=58 velocity=0 time=160
note_on channel=0 note=54 velocity=30 time=0
note_on channel=0 note=54 velocity=0 time=160
note_on channel=0 note=58 velocity=30 time=0
<meta message set_tempo tempo=485555 time=80>
<meta message set_tempo tempo=483793 time=60>
<meta message set_tempo tempo=483793 time=20>
note_on channel=0 note=58 velocity=0 time=0
note_on channel=0 note=61 velocity=36 time=0
note_on channel=0 note=61 velocity=0 time=160
note_on channel=0 note=58 velocity=30 time=0
note_on channel=0 note=58 velocity=0 time=160
note_on channel=0 note=54 velocity=30 time=0
note_on channel=0 note=37 velocity=35 time=40
<meta message set_tempo tempo=487329 time=120>
note_on channel=0 note=37 velocity=0 time=0
note_on channel=0 note=66 velocity=0 time=0
note_on channel=0 note=49 velocity=0 time=0
note_on channel=0 note=54 velocity=0 time=0
note_on channel=0 note=66 velocity=45 time=0
note_on channel=0 note=49 velocity=35 time=0
control_change channel=0 control=64 value=0 time=15
control_change channel=0 control=64 value=127 time=98
note_on channel=0 note=59 velocity=29 time=47
note_on channel=0 note=59 velocity=0 time=160
note_on channel=0 note=56 velocity=29 time=0
note_on channel=0 note=56 velocity=0 time=160
note_on channel=0 note=66 velocity=0 time=0
note_on channel=0 note=65 velocity=41 time=0
note_on channel=0 note=59 velocity=28 time=160
note_on channel=0 note=59 velocity=0 time=160
note_on channel=0 note=56 velocity=28 time=0
<meta message set_tempo tempo=489117 time=160>
note_on channel=0 note=56 velocity=0 time=0
note_on channel=0 note=65 velocity=0 time=0
note_on channel=0 note=70 velocity=42 time=0
note_on channel=0 note=54 velocity=35 time=0
control_change channel=0 control=64 value=0 time=12
control_change channel=0 control=64 value=127 time=94
note_on channel=0 note=61 velocity=28 time=54
note_on channel=0 note=61 velocity=0 time=160
note_on channel=0 note=59 velocity=28 time=0
<meta message set_tempo tempo=517688 time=160>
note_on channel=0 note=59 velocity=0 time=0
note_on channel=0 note=54 velocity=0 time=0
note_on channel=0 note=70 velocity=0 time=0
note_on channel=0 note=68 velocity=39 time=0
note_on channel=0 note=53 velocity=35 time=0
note_on channel=0 note=61 velocity=26 time=160
note_on channel=0 note=61 velocity=0 time=160
note_on channel=0 note=59 velocity=26 time=0
<meta message set_tempo tempo=507786 time=160>
note_on channel=0 note=59 velocity=0 time=0
note_on channel=0 note=53 velocity=0 time=0
note_on channel=0 note=68 velocity=0 time=0
note_on channel=0 note=49 velocity=0 time=0
note_on channel=0 note=66 velocity=47 time=0
note_on channel=0 note=42 velocity=30 time=0
note_on channel=0 note=49 velocity=35 time=0
control_change channel=0 control=64 value=0 time=0
<meta message set_tempo tempo=505860 time=70>
control_change channel=0 control=64 value=127 time=57
<meta message set_tempo tempo=503948 time=3>
note_on channel=0 note=54 velocity=29 time=30
<meta message set_tempo tempo=502050 time=30>
<meta message set_tempo tempo=500167 time=60>
<meta message set_tempo tempo=498297 time=60>
note_on channel=0 note=54 velocity=0 time=10
note_on channel=0 note=58 velocity=29 time=0
<meta message set_tempo tempo=496442 time=70>
<meta message set_tempo tempo=494601 time=60>
note_on channel=0 note=58 velocity=0 time=30
note_on channel=0 note=61 velocity=33 time=0
<meta message set_tempo tempo=492773 time=30>
<meta message set_tempo tempo=490918 time=60>
<meta message set_tempo tempo=489117 time=60>
note_on channel=0 note=61 velocity=0 time=10
note_on channel=0 note=58 velocity=29 time=0
<meta message set_tempo tempo=487329 time=70>
<meta message set_tempo tempo=485555 time=60>
note_on channel=0 note=58 velocity=0 time=30
note_on channel=0 note=54 velocity=29 time=0
<meta message set_tempo tempo=483793 time=30>
<meta message set_tempo tempo=482044 time=60>
<meta message set_tempo tempo=480307 time=60>
note_on channel=0 note=54 velocity=0 time=10
note_on channel=0 note=58 velocity=32 time=0
note_on channel=0 note=58 velocity=0 time=160
note_on channel=0 note=54 velocity=30 time=0
note_on channel=0 note=54 velocity=0 time=160
note_on channel=0 note=58 velocity=30 time=0
<meta message set_tempo tempo=485555 time=80>
<meta message set_tempo tempo=483793 time=60>
<meta message set_tempo tempo=483793 time=20>
note_on channel=0 note=58 velocity=0 time=0
note_on channel=0 note=61 velocity=36 time=0
note_on channel=0 note=61 velocity=0 time=160
note_on channel=0 note=58 velocity=30 time=0
note_on channel=0 note=58 velocity=0 time=160
note_on channel=0 note=54 velocity=30 time=0
<meta message set_tempo tempo=507786 time=160>
note_on channel=0 note=54 velocity=0 time=0
note_on channel=0 note=58 velocity=37 time=0
<meta message set_tempo tempo=505860 time=70>
<meta message set_tempo tempo=503948 time=60>
note_on channel=0 note=58 velocity=0 time=30
note_on channel=0 note=54 velocity=29 time=0
<meta message set_tempo tempo=502050 time=30>
<meta message set_tempo tempo=500167 time=60>
<meta message set_tempo tempo=498297 time=60>
note_on channel=0 note=54 velocity=0 time=10
note_on channel=0 note=58 velocity=29 time=0
<meta message set_tempo tempo=496442 time=70>
<meta message set_tempo tempo=494601 time=60>
note_on channel=0 note=58 velocity=0 time=30
note_on channel=0 note=61 velocity=32 time=0
<meta message set_tempo tempo=492773 time=30>
<meta message set_tempo tempo=490918 time=60>
<meta message set_tempo tempo=489117 time=60>
note_on channel=0 note=61 velocity=0 time=10
note_on channel=0 note=58 velocity=29 time=0
<meta message set_tempo tempo=487329 time=70>
<meta message set_tempo tempo=485555 time=60>
note_on channel=0 note=58 velocity=0 time=30
note_on channel=0 note=54 velocity=45 time=0
<meta message set_tempo tempo=483793 time=30>
<meta message set_tempo tempo=482044 time=60>
<meta message set_tempo tempo=480307 time=60>
note_on channel=0 note=54 velocity=0 time=10
note_on channel=0 note=49 velocity=0 time=0
note_on channel=0 note=42 velocity=0 time=0
note_on channel=0 note=58 velocity=48 time=0
note_on channel=0 note=50 velocity=55 time=0
note_on channel=0 note=41 velocity=55 time=0
control_change channel=0 control=64 value=0 time=14
control_change channel=0 control=64 value=127 time=123
note_on channel=0 note=58 velocity=0 time=23
note_on channel=0 note=54 velocity=51 time=0
note_on channel=0 note=54 velocity=0 time=160
note_on channel=0 note=58 velocity=53 time=0
<meta message set_tempo tempo=485555 time=80>
<meta message set_tempo tempo=483793 time=60>
<meta message set_tempo tempo=505860 time=20>
note_on channel=0 note=58 velocity=0 time=0
note_on channel=0 note=62 velocity=56 time=0
note_on channel=0 note=62 velocity=0 time=160
note_on channel=0 note=58 velocity=59 time=0
note_on channel=0 note=58 velocity=0 time=160
note_on channel=0 note=54 velocity=61 time=0
<meta message set_tempo tempo=507786 time=160>
note_on channel=0 note=54 velocity=0 time=0
note_on channel=0 note=41 velocity=0 time=0
note_on channel=0 note=50 velocity=0 time=0
note_on channel=0 note=66 velocity=0 time=0
note_on channel=0 note=70 velocity=76 time=0
note_on channel=0 note=39 velocity=58 time=0
note_on channel=0 note=51 velocity=58 time=0
control_change channel=0 control=64 value=0 time=0
<meta message set_tempo tempo=505860 time=70>
control_change channel=0 control=64 value=127 time=57
<meta message set_tempo tempo=503948 time=3>
note_on channel=0 note=58 velocity=50 time=30
<meta message set_tempo tempo=502050 time=30>
<meta message set_tempo tempo=500167 time=60>
<meta message set_tempo tempo=498297 time=60>
note_on channel=0 note=58 velocity=0 time=10
note_on channel=0 note=63 velocity=50 time=0
<meta message set_tempo tempo=496442 time=70>
<meta message set_tempo tempo=494601 time=60>
note_on channel=0 note=63 velocity=0 time=30
note_on channel=0 note=66 velocity=63 time=0
<meta message set_tempo tempo=492773 time=30>
<meta message set_tempo tempo=490918 time=60>
<meta message set_tempo tempo=489117 time=60>
note_on channel=0 note=66 velocity=0 time=10
note_on channel=0 note=63 velocity=49 time=0
<meta message set_tempo tempo=487329 time=70>
<meta message set_tempo tempo=485555 time=60>
note_on channel=0 note=63 velocity=0 time=30
note_on channel=0 note=58 velocity=48 time=0
<meta message set_tempo tempo=483793 time=30>
<meta message set_tempo tempo=482044 time=60>
<meta message set_tempo tempo=480307 time=60>
note_on channel=0 note=58 velocity=0 time=10
note_on channel=0 note=63 velocity=61 time=0
note_on channel=0 note=63 velocity=0 time=160
note_on channel=0 note=58 velocity=48 time=0
note_on channel=0 note=58 velocity=0 time=160
note_on channel=0 note=63 velocity=48 time=0
<meta message set_tempo tempo=485555 time=80>
<meta message set_tempo tempo=483793 time=60>
<meta message set_tempo tempo=483793 time=20>
note_on channel=0 note=63 velocity=0 time=0
note_on channel=0 note=51 velocity=0 time=0
note_on channel=0 note=39 velocity=0 time=0
note_on channel=0 note=66 velocity=55 time=0
note_on channel=0 note=39 velocity=57 time=0
note_on channel=0 note=39 velocity=0 time=160
note_on channel=0 note=66 velocity=0 time=0
note_on channel=0 note=63 velocity=47 time=0
note_on channel=0 note=41 velocity=61 time=0
note_on channel=0 note=41 velocity=0 time=160
note_on channel=0 note=63 velocity=0 time=0
note_on channel=0 note=58 velocity=47 time=0
note_on channel=0 note=42 velocity=65 time=0
<meta message set_tempo tempo=507786 time=160>
note_on channel=0 note=42 velocity=0 time=0
note_on channel=0 note=58 velocity=0 time=0
note_on channel=0 note=70 velocity=0 time=0
note_on channel=0 note=70 velocity=73 time=0
note_on channel=0 note=42 velocity=69 time=0
control_change channel=0 control=64 value=0 time=11
<meta message set_tempo tempo=505860 time=59>
<meta message set_tempo tempo=503948 time=60>
control_change channel=0 control=64 value=127 time=18
note_on channel=0 note=58 velocity=44 time=12
<meta message set_tempo tempo=502050 time=30>
<meta message set_tempo tempo=500167 time=60>
<meta message set_tempo tempo=498297 time=60>
note_on channel=0 note=58 velocity=0 time=10
note_on channel=0 note=63 velocity=44 time=0
<meta message set_tempo tempo=496442 time=70>
<meta message set_tempo tempo=494601 time=60>
note_on channel=0 note=63 velocity=0 time=30
note_on channel=0 note=66 velocity=53 time=0
<meta message set_tempo tempo=492773 time=30>
<meta message set_tempo tempo=490918 time=60>
<meta message set_tempo tempo=489117 time=60>
note_on channel=0 note=66 velocity=0 time=10
note_on channel=0 note=63 velocity=43 time=0
<meta message set_tempo tempo=487329 time=70>
<meta message set_tempo tempo=485555 time=60>
note_on channel=0 note=63 velocity=0 time=30
note_on channel=0 note=58 velocity=43 time=0
<meta message set_tempo tempo=483793 time=30>
<meta message set_tempo tempo=482044 time=60>
<meta message set_tempo tempo=480307 time=60>
note_on channel=0 note=58 velocity=0 time=10
note_on channel=0 note=63 velocity=55 time=0
note_on channel=0 note=63 velocity=0 time=160
note_on channel=0 note=58 velocity=44 time=0
note_on channel=0 note=58 velocity=0 time=160
note_on channel=0 note=63 velocity=45 time=0
<meta message set_tempo tempo=485555 time=80>
<meta message set_tempo tempo=483793 time=60>
<meta message set_tempo tempo=505860 time=20>
note_on channel=0 note=63 velocity=0 time=0
note_on channel=0 note=42 velocity=0 time=0
note_on channel=0 note=66 velocity=51 time=0
note_on channel=0 note=42 velocity=60 time=0
note_on channel=0 note=42 velocity=0 time=160
note_on channel=0 note=66 velocity=0 time=0
note_on channel=0 note=63 velocity=46 time=0
note_on channel=0 note=44 velocity=63 time=0
note_on channel=0 note=44 velocity=0 time=160
note_on channel=0 note=63 velocity=0 time=0
note_on channel=0 note=58 velocity=46 time=0
note_on channel=0 note=46 velocity=67 time=0
note_on channel=0 note=46 velocity=0 time=160
note_on channel=0 note=58 velocity=0 time=0
note_on channel=0 note=70 velocity=0 time=0
note_on channel=0 note=70 velocity=68 time=0
note_on channel=0 note=46 velocity=77 time=0
control_change channel=0 control=64 value=0 time=0
control_change channel=0 control=64 value=127 time=92
note_on channel=0 note=62 velocity=54 time=68
note_on channel=0 note=62 velocity=0 time=160
note_on channel=0 note=65 velocity=54 time=0
<meta message set_tempo tempo=492773 time=160>
note_on channel=0 note=65 velocity=0 time=0
note_on channel=0 note=70 velocity=0 time=0
note_on channel=0 note=77 velocity=65 time=0
note_on channel=0 note=59 velocity=56 time=0
note_on channel=0 note=65 velocity=44 time=160
note_on channel=0 note=65 velocity=0 time=160
note_on channel=0 note=68 velocity=44 time=0
<meta message set_tempo tempo=485555 time=160>
note_on channel=0 note=68 velocity=0 time=0
note_on channel=0 note=59 velocity=0 time=0
note_on channel=0 note=77 velocity=0 time=0
note_on channel=0 note=74 velocity=61 time=0
note_on channel=0 note=56 velocity=54 time=0
control_change channel=0 control=64 value=0 time=10
control_change channel=0 control=64 value=127 time=76
note_on channel=0 note=65 velocity=41 time=74
note_on channel=0 note=65 velocity=0 time=160
note_on channel=0 note=68 velocity=41 time=0
<meta message set_tempo tempo=511727 time=160>
note_on channel=0 note=68 velocity=0 time=0
note_on channel=0 note=56 velocity=0 time=0
note_on channel=0 note=74 velocity=0 time=0
note_on channel=0 note=71 velocity=52 time=0
note_on channel=0 note=53 velocity=49 time=0
note_on channel=0 note=65 velocity=35 time=160
note_on channel=0 note=65 velocity=0 time=160
note_on channel=0 note=68 velocity=35 time=0
<meta message set_tempo tempo=498297 time=160>
note_on channel=0 note=68 velocity=0 time=0
note_on channel=0 note=53 velocity=0 time=0
note_on channel=0 note=71 velocity=0 time=0
note_on channel=0 note=71 velocity=53 time=0
note_on channel=0 note=50 velocity=49 time=0
control_change channel=0 control=64 value=0 time=11
control_change channel=0 control=64 value=127 time=81
note_on channel=0 note=65 velocity=38 time=68
note_on channel=0 note=65 velocity=0 time=160
note_on channel=0 note=68 velocity=38 time=0
<meta message set_tempo tempo=509727 time=160>
note_on channel=0 note=68 velocity=0 time=0
note_on channel=0 note=71 velocity=0 time=0
note_on channel=0 note=70 velocity=50 time=0
note_on channel=0 note=65 velocity=35 time=160
note_on channel=0 note=65 velocity=0 time=160
note_on channel=0 note=68 velocity=35 time=0
<meta message set_tempo tempo=496442 time=160>
note_on channel=0 note=68 velocity=0 time=0
note_on channel=0 note=70 velocity=0 time=0
note_on channel=0 note=70 velocity=49 time=0
control_change channel=0 control=64 value=0 time=12
control_change channel=0 control=64 value=127 time=91
note_on channel=0 note=58 velocity=37 time=57
note_on channel=0 note=58 velocity=0 time=160
note_on channel=0 note=65 velocity=38 time=0
note_on channel=0 note=65 velocity=0 time=160
note_on channel=0 note=70 velocity=0 time=0
note_on channel=0 note=68 velocity=47 time=0
note_on channel=0 note=58 velocity=32 time=160
note_on channel=0 note=50 velocity=0 time=80
note_on channel=0 note=48 velocity=35 time=0
note_on channel=0 note=58 velocity=0 time=80
note_on channel=0 note=65 velocity=31 time=0
note_on channel=0 note=48 velocity=0 time=40
note_on channel=0 note=50 velocity=35 time=0
<meta message set_tempo tempo=482044 time=120>
note_on channel=0 note=50 velocity=0 time=0
note_on channel=0 note=65 velocity=0 time=0
note_on channel=0 note=68 velocity=0 time=0
note_on channel=0 note=46 velocity=0 time=0
note_on channel=0 note=68 velocity=44 time=0
note_on channel=0 note=51 velocity=44 time=0
control_change channel=0 control=64 value=0 time=11
control_change channel=0 control=64 value=127 time=81
note_on channel=0 note=58 velocity=33 time=68
note_on channel=0 note=58 velocity=0 time=160
note_on channel=0 note=63 velocity=35 time=0
<meta message set_tempo tempo=494601 time=160>
note_on channel=0 note=63 velocity=0 time=0
note_on channel=0 note=68 velocity=0 time=0
note_on channel=0 note=66 velocity=44 time=0
note_on channel=0 note=58 velocity=32 time=160
note_on channel=0 note=58 velocity=0 time=160
note_on channel=0 note=63 velocity=32 time=0
<meta message set_tempo tempo=482044 time=160>
note_on channel=0 note=63 velocity=0 time=0
note_on channel=0 note=66 velocity=0 time=0
note_on channel=0 note=51 velocity=0 time=0
note_on channel=0 note=65 velocity=40 time=0
note_on channel=0 note=44 velocity=44 time=0
control_change channel=0 control=64 value=0 time=16
control_change channel=0 control=64 value=127 time=69
note_on channel=0 note=56 velocity=31 time=75
note_on channel=0 note=56 velocity=0 time=160
note_on channel=0 note=59 velocity=31 time=0
<meta message set_tempo tempo=492773 time=160>
note_on channel=0 note=59 velocity=0 time=0
note_on channel=0 note=65 velocity=0 time=0
note_on channel=0 note=68 velocity=44 time=0
note_on channel=0 note=56 velocity=30 time=160
note_on channel=0 note=56 velocity=0 time=160
note_on channel=0 note=59 velocity=30 time=0
<meta message set_tempo tempo=480307 time=160>
note_on channel=0 note=59 velocity=0 time=0
note_on channel=0 note=68 velocity=0 time=0
note_on channel=0 note=44 velocity=0 time=0
note_on channel=0 note=63 velocity=42 time=0
note_on channel=0 note=46 velocity=42 time=0
control_change channel=0 control=64 value=0 time=13
control_change channel=0 control=64 value=127 time=83
note_on channel=0 note=51 velocity=32 time=64
note_on channel=0 note=51 velocity=0 time=160
note_on channel=0 note=54 velocity=32 time=0
<meta message set_tempo tempo=485555 time=160>
note_on channel=0 note=54 velocity=0 time=0
note_on channel=0 note=58 velocity=39 time=0
note_on channel=0 note=58 velocity=0 time=160
note_on channel=0 note=54 velocity=32 time=0
note_on channel=0 note=54 velocity=0 time=160
note_on channel=0 note=51 velocity=32 time=0
<meta message set_tempo tempo=487329 time=160>
note_on channel=0 note=51 velocity=0 time=0
note_on channel=0 note=63 velocity=0 time=0
note_on channel=0 note=62 velocity=42 time=0
control_change channel=0 control=64 value=0 time=12
control_change channel=0 control=64 value=127 time=69
note_on channel=0 note=50 velocity=33 time=79
note_on channel=0 note=50 velocity=0 time=160
note_on channel=0 note=53 velocity=33 time=0
<meta message set_tempo tempo=500167 time=160>
note_on channel=0 note=53 velocity=0 time=0
note_on channel=0 note=46 velocity=0 time=0
note_on channel=0 note=58 velocity=43 time=0
note_on channel=0 note=44 velocity=59 time=0
note_on channel=0 note=44 velocity=0 time=160
note_on channel=0 note=58 velocity=0 time=0
note_on channel=0 note=53 velocity=48 time=0
note_on channel=0 note=42 velocity=62 time=0
note_on channel=0 note=62 velocity=0 time=80
note_on channel=0 note=42 velocity=0 time=80
note_on channel=0 note=53 velocity=0 time=0
note_on channel=0 note=70 velocity=54 time=0
note_on channel=0 note=41 velocity=66 time=0
note_on channel=0 note=70 velocity=0 time=150
<meta message set_tempo tempo=507786 time=10>
note_on channel=0 note=41 velocity=0 time=0
note_on channel=0 note=70 velocity=66 time=0
note_on channel=0 note=39 velocity=69 time=0
note_on channel=0 note=51 velocity=69 time=0
control_change channel=0 control=64 value=0 time=0
<meta message set_tempo tempo=505860 time=70>
control_change channel=0 control=64 value=127 time=57
<meta message set_tempo tempo=503948 time=3>
note_on channel=0 note=58 velocity=48 time=30
<meta message set_tempo tempo=502050 time=30>
<meta message set_tempo tempo=500167 time=60>
<meta message set_tempo tempo=498297 time=60>
note_on channel=0 note=58 velocity=0 time=10
note_on channel=0 note=63 velocity=48 time=0
<meta message set_tempo tempo=496442 time=70>
<meta message set_tempo tempo=494601 time=60>
note_on channel=0 note=63 velocity=0 time=30
note_on channel=0 note=66 velocity=56 time=0
<meta message set_tempo tempo=492773 time=30>
<meta message set_tempo tempo=490918 time=60>
<meta message set_tempo tempo=489117 time=60>
note_on channel=0 note=66 velocity=0 time=10
note_on channel=0 note=63 velocity=48 time=0
<meta message set_tempo tempo=487329 time=70>
<meta message set_tempo tempo=485555 time=60>
note_on channel=0 note=63 velocity=0 time=30
note_on channel=0 note=58 velocity=48 time=0
<meta message set_tempo tempo=483793 time=30>
<meta message set_tempo tempo=482044 time=60>
<meta message set_tempo tempo=480307 time=60>
note_on channel=0 note=58 velocity=0 time=10
note_on channel=0 note=63 velocity=56 time=0
note_on channel=0 note=63 velocity=0 time=160
note_on channel=0 note=58 velocity=48 time=0
note_on channel=0 note=58 velocity=0 time=160
note_on channel=0 note=63 velocity=48 time=0
<meta message set_tempo tempo=485555 time=80>
<meta message set_tempo tempo=483793 time=60>
<meta message set_tempo tempo=483793 time=20>
note_on channel=0 note=63 velocity=0 time=0
note_on channel=0 note=51 velocity=0 time=0
note_on channel=0 note=39 velocity=0 time=0
note_on channel=0 note=66 velocity=48 time=0
note_on channel=0 note=39 velocity=61 time=0
note_on channel=0 note=39 velocity=0 time=160
note_on channel=0 note=66 velocity=0 time=0
note_on channel=0 note=63 velocity=48 time=0
note_on channel=0 note=41 velocity=64 time=0
note_on channel=0 note=41 velocity=0 time=160
note_on channel=0 note=63 velocity=0 time=0
note_on channel=0 note=58 velocity=44 time=0
note_on channel=0 note=42 velocity=67 time=0
<meta message set_tempo tempo=507786 time=160>
note_on channel=0 note=42 velocity=0 time=0
note_on channel=0 note=58 velocity=0 time=0
note_on channel=0 note=70 velocity=0 time=0
note_on channel=0 note=70 velocity=62 time=0
note_on channel=0 note=42 velocity=70 time=0
control_change channel=0 control=64 value=0 time=11
<meta message set_tempo tempo=505860 time=59>
<meta message set_tempo tempo=503948 time=60>
control_change channel=0 control=64 value=127 time=18
note_on channel=0 note=58 velocity=41 time=12
<meta message set_tempo tempo=502050 time=30>
<meta message set_tempo tempo=500167 time=60>
<meta message set_tempo tempo=498297 time=60>
note_on channel=0 note=58 velocity=0 time=10
note_on channel=0 note=63 velocity=44 time=0
<meta message set_tempo tempo=496442 time=70>
<meta message set_tempo tempo=494601 time=60>
note_on channel=0 note=63 velocity=0 time=30
note_on channel=0 note=66 velocity=49 time=0
<meta message set_tempo tempo=492773 time=30>
<meta message set_tempo tempo=490918 time=60>
<meta message set_tempo tempo=489117 time=60>
note_on channel=0 note=66 velocity=0 time=10
note_on channel=0 note=63 velocity=45 time=0
<meta message set_tempo tempo=487329 time=70>
<meta message set_tempo tempo=485555 time=60>
note_on channel=0 note=63 velocity=0 time=30
note_on channel=0 note=58 velocity=44 time=0
<meta message set_tempo tempo=483793 time=30>
<meta message set_tempo tempo=482044 time=60>
<meta message set_tempo tempo=480307 time=60>
note_on channel=0 note=58 velocity=0 time=10
note_on channel=0 note=63 velocity=51 time=0
note_on channel=0 note=63 velocity=0 time=160
note_on channel=0 note=58 velocity=47 time=0
note_on channel=0 note=58 velocity=0 time=160
note_on channel=0 note=63 velocity=44 time=0
<meta message set_tempo tempo=485555 time=80>
<meta message set_tempo tempo=483793 time=60>
<meta message set_tempo tempo=505860 time=20>
note_on channel=0 note=63 velocity=0 time=0
note_on channel=0 note=42 velocity=0 time=0
note_on channel=0 note=70 velocity=0 time=0
note_on channel=0 note=71 velocity=60 time=0
note_on channel=0 note=66 velocity=47 time=0
note_on channel=0 note=42 velocity=58 time=0
note_on channel=0 note=42 velocity=0 time=160
note_on channel=0 note=66 velocity=0 time=0
note_on channel=0 note=63 velocity=42 time=0
note_on channel=0 note=44 velocity=61 time=0
note_on channel=0 note=44 velocity=0 time=160
note_on channel=0 note=63 velocity=0 time=0
note_on channel=0 note=58 velocity=42 time=0
note_on channel=0 note=46 velocity=64 time=0
note_on channel=0 note=46 velocity=0 time=160
note_on channel=0 note=58 velocity=0 time=0
note_on channel=0 note=71 velocity=0 time=0
note_on channel=0 note=70 velocity=55 time=0
note_on channel=0 note=46 velocity=74 time=0
control_change channel=0 control=64 value=0 time=0
control_change channel=0 control=64 value=127 time=92
note_on channel=0 note=62 velocity=46 time=68
note_on channel=0 note=62 velocity=0 time=160
note_on channel=0 note=65 velocity=46 time=0
<meta message set_tempo tempo=492773 time=160>
note_on channel=0 note=65 velocity=0 time=0
note_on channel=0 note=70 velocity=0 time=0
note_on channel=0 note=77 velocity=59 time=0
note_on channel=0 note=59 velocity=56 time=0
note_on channel=0 note=65 velocity=44 time=160
note_on channel=0 note=65 velocity=0 time=160
note_on channel=0 note=68 velocity=44 time=0
<meta message set_tempo tempo=485555 time=160>
note_on channel=0 note=68 velocity=0 time=0
note_on channel=0 note=59 velocity=0 time=0
note_on channel=0 note=77 velocity=0 time=0
note_on channel=0 note=74 velocity=53 time=0
note_on channel=0 note=56 velocity=54 time=0
control_change channel=0 control=64 value=0 time=10
control_change channel=0 control=64 value=127 time=76
note_on channel=0 note=65 velocity=41 time=74
note_on channel=0 note=65 velocity=0 time=160
note_on channel=0 note=68 velocity=41 time=0
<meta message set_tempo tempo=511727 time=160>
note_on channel=0 note=68 velocity=0 time=0
note_on channel=0 note=56 velocity=0 time=0
note_on channel=0 note=74 velocity=0 time=0
note_on channel=0 note=71 velocity=47 time=0
note_on channel=0 note=53 velocity=49 time=0
note_on channel=0 note=65 velocity=35 time=160
note_on channel=0 note=65 velocity=0 time=160
note_on channel=0 note=68 velocity=35 time=0
<meta message set_tempo tempo=498297 time=160>
note_on channel=0 note=68 velocity=0 time=0
note_on channel=0 note=53 velocity=0 time=0
note_on channel=0 note=71 velocity=0 time=0
note_on channel=0 note=70 velocity=53 time=0
note_on channel=0 note=50 velocity=49 time=0
control_change channel=0 control=64 value=0 time=11
control_change channel=0 control=64 value=127 time=81
note_on channel=0 note=65 velocity=38 time=68
note_on channel=0 note=65 velocity=0 time=160
note_on channel=0 note=68 velocity=38 time=0
<meta message set_tempo tempo=490918 time=160>
note_on channel=0 note=68 velocity=0 time=0
note_on channel=0 note=70 velocity=0 time=0
note_on channel=0 note=71 velocity=50 time=0
note_on channel=0 note=65 velocity=35 time=160
note_on channel=0 note=65 velocity=0 time=160
note_on channel=0 note=68 velocity=35 time=0
<meta message set_tempo tempo=496442 time=160>
note_on channel=0 note=68 velocity=0 time=0
note_on channel=0 note=71 velocity=0 time=0
note_on channel=0 note=50 velocity=0 time=0
note_on channel=0 note=70 velocity=49 time=0
note_on channel=0 note=50 velocity=35 time=0
control_change channel=0 control=64 value=0 time=12
note_on channel=0 note=50 velocity=0 time=84
note_on channel=0 note=51 velocity=30 time=0
control_change channel=0 control=64 value=127 time=7
note_on channel=0 note=58 velocity=37 time=57
note_on channel=0 note=51 velocity=0 time=32
note_on channel=0 note=50 velocity=35 time=0
note_on channel=0 note=50 velocity=0 time=86
note_on channel=0 note=51 velocity=30 time=0
note_on channel=0 note=58 velocity=0 time=42
note_on channel=0 note=65 velocity=38 time=0
note_on channel=0 note=51 velocity=0 time=43
note_on channel=0 note=50 velocity=35 time=0
note_on channel=0 note=50 velocity=0 time=86
note_on channel=0 note=51 velocity=30 time=0
note_on channel=0 note=65 velocity=0 time=31
note_on channel=0 note=70 velocity=0 time=0
note_on channel=0 note=68 velocity=47 time=0
note_on channel=0 note=51 velocity=0 time=54
note_on channel=0 note=50 velocity=35 time=0
note_on channel=0 note=51 velocity=32 time=85
note_on channel=0 note=50 velocity=0 time=1
note_on channel=0 note=58 velocity=32 time=20
note_on channel=0 note=51 velocity=0 time=65
note_on channel=0 note=50 velocity=35 time=0
note_on channel=0 note=50 velocity=0 time=85
note_on channel=0 note=48 velocity=32 time=0
note_on channel=0 note=58 velocity=0 time=10
note_on channel=0 note=65 velocity=31 time=0
note_on channel=0 note=50 velocity=38 time=75
note_on channel=0 note=48 velocity=0 time=1
<meta message set_tempo tempo=482044 time=84>
note_on channel=0 note=65 velocity=0 time=0
note_on channel=0 note=46 velocity=0 time=0
note_on channel=0 note=68 velocity=0 time=0
note_on channel=0 note=50 velocity=0 time=0
note_on channel=0 note=68 velocity=44 time=0
note_on channel=0 note=51 velocity=44 time=0
control_change channel=0 control=64 value=0 time=11
control_change channel=0 control=64 value=127 time=81
note_on channel=0 note=68 velocity=0 time=68
note_on channel=0 note=58 velocity=33 time=0
note_on channel=0 note=58 velocity=0 time=160
note_on channel=0 note=63 velocity=35 time=0
<meta message set_tempo tempo=494601 time=160>
note_on channel=0 note=63 velocity=0 time=0
note_on channel=0 note=66 velocity=44 time=0
note_on channel=0 note=66 velocity=0 time=160
note_on channel=0 note=58 velocity=32 time=0
note_on channel=0 note=58 velocity=0 time=160
note_on channel=0 note=63 velocity=32 time=0
<meta message set_tempo tempo=482044 time=160>
note_on channel=0 note=63 velocity=0 time=0
note_on channel=0 note=51 velocity=0 time=0
note_on channel=0 note=65 velocity=40 time=0
note_on channel=0 note=44 velocity=44 time=0
control_change channel=0 control=64 value=0 time=16
control_change channel=0 control=64 value=127 time=69
note_on channel=0 note=65 velocity=0 time=75
note_on channel=0 note=56 velocity=31 time=0
note_on channel=0 note=56 velocity=0 time=160
note_on channel=0 note=59 velocity=31 time=0
<meta message set_tempo tempo=492773 time=160>
note_on channel=0 note=59 velocity=0 time=0
note_on channel=0 note=71 velocity=44 time=0
note_on channel=0 note=71 velocity=0 time=160
note_on channel=0 note=59 velocity=30 time=0
note_on channel=0 note=59 velocity=0 time=160
note_on channel=0 note=65 velocity=30 time=0
<meta message set_tempo tempo=480307 time=160>
note_on channel=0 note=65 velocity=0 time=0
note_on channel=0 note=44 velocity=0 time=0
note_on channel=0 note=63 velocity=42 time=0
note_on channel=0 note=46 velocity=42 time=0
control_change channel=0 control=64 value=0 time=13
control_change channel=0 control=64 value=127 time=83
note_on channel=0 note=51 velocity=32 time=64
note_on channel=0 note=51 velocity=0 time=160
note_on channel=0 note=54 velocity=32 time=0
<meta message set_tempo tempo=485555 time=160>
note_on channel=0 note=54 velocity=0 time=0
note_on channel=0 note=58 velocity=32 time=0
note_on channel=0 note=58 velocity=0 time=160
note_on channel=0 note=54 velocity=32 time=0
note_on channel=0 note=54 velocity=0 time=160
note_on channel=0 note=51 velocity=32 time=0
<meta message set_tempo tempo=487329 time=160>
note_on channel=0 note=51 velocity=0 time=0
note_on channel=0 note=63 velocity=0 time=0
note_on channel=0 note=62 velocity=42 time=0
control_change channel=0 control=64 value=0 time=12
control_change channel=0 control=64 value=127 time=69
note_on channel=0 note=50 velocity=33 time=79
note_on channel=0 note=50 velocity=0 time=160
note_on channel=0 note=58 velocity=33 time=0
note_on channel=0 note=53 velocity=33 time=0
<meta message set_tempo tempo=500167 time=160>
note_on channel=0 note=53 velocity=0 time=0
note_on channel=0 note=58 velocity=0 time=0
note_on channel=0 note=46 velocity=0 time=0
note_on channel=0 note=70 velocity=33 time=0
note_on channel=0 note=38 velocity=35 time=0
note_on channel=0 note=50 velocity=40 time=0
note_on channel=0 note=58 velocity=33 time=160
note_on channel=0 note=62 velocity=0 time=80
note_on channel=0 note=58 velocity=0 time=80
note_on channel=0 note=65 velocity=44 time=0
<meta message set_tempo tempo=482044 time=160>
note_on channel=0 note=65 velocity=0 time=0
note_on channel=0 note=50 velocity=0 time=0
note_on channel=0 note=38 velocity=0 time=0
note_on channel=0 note=70 velocity=0 time=0
note_on channel=0 note=68 velocity=37 time=0
note_on channel=0 note=39 velocity=31 time=0
note_on channel=0 note=51 velocity=37 time=0
control_change channel=0 control=64 value=0 time=11
control_change channel=0 control=64 value=127 time=81
note_on channel=0 note=68 velocity=0 time=68
note_on channel=0 note=58 velocity=28 time=0
note_on channel=0 note=58 velocity=0 time=160
note_on channel=0 note=63 velocity=29 time=0
<meta message set_tempo tempo=494601 time=160>
note_on channel=0 note=63 velocity=0 time=0
note_on channel=0 note=66 velocity=37 time=0
note_on channel=0 note=66 velocity=0 time=160
note_on channel=0 note=58 velocity=27 time=0
note_on channel=0 note=58 velocity=0 time=160
note_on channel=0 note=63 velocity=27 time=0
<meta message set_tempo tempo=482044 time=160>
note_on channel=0 note=63 velocity=0 time=0
note_on channel=0 note=51 velocity=0 time=0
note_on channel=0 note=39 velocity=0 time=0
note_on channel=0 note=64 velocity=34 time=0
note_on channel=0 note=32 velocity=31 time=0
note_on channel=0 note=44 velocity=37 time=0
control_change channel=0 control=64 value=0 time=16
control_change channel=0 control=64 value=127 time=69
note_on channel=0 note=64 velocity=0 time=75
note_on channel=0 note=56 velocity=26 time=0
note_on channel=0 note=56 velocity=0 time=160
note_on channel=0 note=59 velocity=26 time=0
<meta message set_tempo tempo=492773 time=160>
note_on channel=0 note=59 velocity=0 time=0
note_on channel=0 note=71 velocity=37 time=0
note_on channel=0 note=71 velocity=0 time=160
note_on channel=0 note=59 velocity=25 time=0
note_on channel=0 note=59 velocity=0 time=160
note_on channel=0 note=64 velocity=25 time=0
<meta message set_tempo tempo=480307 time=160>
note_on channel=0 note=64 velocity=0 time=0
note_on channel=0 note=44 velocity=0 time=0
note_on channel=0 note=32 velocity=0 time=0
note_on channel=0 note=63 velocity=35 time=0
note_on channel=0 note=42 velocity=35 time=0
note_on channel=0 note=30 velocity=29 time=0
control_change channel=0 control=64 value=0 time=13
control_change channel=0 control=64 value=127 time=83
note_on channel=0 note=51 velocity=27 time=64
note_on channel=0 note=51 velocity=0 time=160
note_on channel=0 note=54 velocity=27 time=0
<meta message set_tempo tempo=485555 time=160>
note_on channel=0 note=54 velocity=0 time=0
note_on channel=0 note=59 velocity=27 time=0
note_on channel=0 note=59 velocity=0 time=160
note_on channel=0 note=54 velocity=27 time=0
note_on channel=0 note=54 velocity=0 time=160
note_on channel=0 note=51 velocity=27 time=0
<meta message set_tempo tempo=487329 time=160>
note_on channel=0 note=51 velocity=0 time=0
note_on channel=0 note=63 velocity=0 time=0
note_on channel=0 note=42 velocity=0 time=0
note_on channel=0 note=30 velocity=0 time=0
note_on channel=0 note=61 velocity=35 time=0
note_on channel=0 note=40 velocity=35 time=0
control_change channel=0 control=64 value=0 time=12
control_change channel=0 control=64 value=127 time=69
note_on channel=0 note=49 velocity=28 time=79
note_on channel=0 note=49 velocity=0 time=160
note_on channel=0 note=54 velocity=28 time=0
<meta message set_tempo tempo=500167 time=160>
note_on channel=0 note=54 velocity=0 time=0
note_on channel=0 note=58 velocity=28 time=0
note_on channel=0 note=58 velocity=0 time=160
note_on channel=0 note=54 velocity=28 time=0
note_on channel=0 note=54 velocity=0 time=160
note_on channel=0 note=49 velocity=31 time=0
note_on channel=0 note=49 velocity=0 time=160
note_on channel=0 note=40 velocity=0 time=0
note_on channel=0 note=61 velocity=0 time=0
note_on channel=0 note=66 velocity=39 time=0
note_on channel=0 note=39 velocity=35 time=0
control_change channel=0 control=64 value=0 time=35
<meta message set_tempo tempo=502050 time=4>
<meta message set_tempo tempo=500167 time=80>
control_change channel=0 control=64 value=127 time=30
note_on channel=0 note=54 velocity=24 time=11
<meta message set_tempo tempo=498297 time=19>
<meta message set_tempo tempo=496442 time=60>
<meta message set_tempo tempo=494601 time=60>
note_on channel=0 note=54 velocity=0 time=21
note_on channel=0 note=59 velocity=24 time=0
<meta message set_tempo tempo=492773 time=39>
<meta message set_tempo tempo=490918 time=60>
<meta message set_tempo tempo=489117 time=60>
note_on channel=0 note=59 velocity=0 time=1
note_on channel=0 note=63 velocity=24 time=0
<meta message set_tempo tempo=487329 time=59>
<meta message set_tempo tempo=485555 time=60>
note_on channel=0 note=63 velocity=0 time=41
note_on channel=0 note=59 velocity=24 time=0
<meta message set_tempo tempo=483793 time=19>
<meta message set_tempo tempo=482044 time=60>
note_on channel=0 note=59 velocity=0 time=81
note_on channel=0 note=54 velocity=24 time=0
note_on channel=0 note=54 velocity=0 time=160
note_on channel=0 note=59 velocity=27 time=0
note_on channel=0 note=59 velocity=0 time=160
note_on channel=0 note=54 velocity=24 time=0
note_on channel=0 note=54 velocity=0 time=160
note_on channel=0 note=59 velocity=22 time=0
<meta message set_tempo tempo=490918 time=160>
note_on channel=0 note=59 velocity=0 time=0
note_on channel=0 note=63 velocity=25 time=0
note_on channel=0 note=63 velocity=0 time=160
note_on channel=0 note=59 velocity=23 time=0
note_on channel=0 note=59 velocity=0 time=160
note_on channel=0 note=54 velocity=22 time=0
<meta message set_tempo tempo=480307 time=160>
note_on channel=0 note=54 velocity=0 time=0
note_on channel=0 note=39 velocity=0 time=0
note_on channel=0 note=66 velocity=0 time=0
note_on channel=0 note=66 velocity=35 time=0
note_on channel=0 note=37 velocity=32 time=0
control_change channel=0 control=64 value=0 time=14
control_change channel=0 control=64 value=127 time=66
note_on channel=0 note=54 velocity=25 time=80
note_on channel=0 note=54 velocity=0 time=160
note_on channel=0 note=58 velocity=26 time=0
<meta message set_tempo tempo=485555 time=160>
note_on channel=0 note=58 velocity=0 time=0
note_on channel=0 note=64 velocity=28 time=0
note_on channel=0 note=64 velocity=0 time=160
note_on channel=0 note=58 velocity=25 time=0
note_on channel=0 note=58 velocity=0 time=160
note_on channel=0 note=54 velocity=25 time=0
<meta message set_tempo tempo=480307 time=160>
note_on channel=0 note=54 velocity=0 time=0
note_on channel=0 note=66 velocity=0 time=0
note_on channel=0 note=68 velocity=34 time=0
note_on channel=0 note=58 velocity=27 time=160
note_on channel=0 note=58 velocity=0 time=160
note_on channel=0 note=64 velocity=27 time=0
<meta message set_tempo tempo=500167 time=160>
note_on channel=0 note=64 velocity=0 time=0
note_on channel=0 note=68 velocity=0 time=0
note_on channel=0 note=66 velocity=33 time=0
note_on channel=0 note=64 velocity=27 time=160
note_on channel=0 note=64 velocity=0 time=160
note_on channel=0 note=58 velocity=27 time=0
<meta message set_tempo tempo=610314 time=40>
<meta message set_tempo tempo=507786 time=120>
note_on channel=0 note=58 velocity=0 time=0
note_on channel=0 note=66 velocity=0 time=0
note_on channel=0 note=37 velocity=0 time=0
note_on channel=0 note=75 velocity=41 time=0
note_on channel=0 note=35 velocity=37 time=0
control_change channel=0 control=64 value=0 time=2
<meta message set_tempo tempo=505860 time=68>
control_change channel=0 control=64 value=127 time=10
<meta message set_tempo tempo=503948 time=50>
note_on channel=0 note=63 velocity=25 time=30
<meta message set_tempo tempo=502050 time=30>
<meta message set_tempo tempo=500167 time=60>
<meta message set_tempo tempo=498297 time=60>
note_on channel=0 note=63 velocity=0 time=10
note_on channel=0 note=66 velocity=25 time=0
<meta message set_tempo tempo=496442 time=70>
<meta message set_tempo tempo=494601 time=60>
note_on channel=0 note=66 velocity=0 time=30
note_on channel=0 note=71 velocity=31 time=0
<meta message set_tempo tempo=492773 time=30>
<meta message set_tempo tempo=490918 time=60>
<meta message set_tempo tempo=489117 time=60>
note_on channel=0 note=71 velocity=0 time=10
note_on channel=0 note=66 velocity=25 time=0
<meta message set_tempo tempo=487329 time=70>
<meta message set_tempo tempo=485555 time=60>
note_on channel=0 note=66 velocity=0 time=30
note_on channel=0 note=63 velocity=25 time=0
<meta message set_tempo tempo=483793 time=30>
<meta message set_tempo tempo=482044 time=60>
<meta message set_tempo tempo=480307 time=60>
note_on channel=0 note=63 velocity=0 time=10
note_on channel=0 note=66 velocity=28 time=0
note_on channel=0 note=66 velocity=0 time=160
note_on channel=0 note=63 velocity=25 time=0
<meta message set_tempo tempo=515685 time=80>
note_on channel=0 note=63 velocity=0 time=80
note_on channel=0 note=66 velocity=28 time=0
<meta message set_tempo tempo=483793 time=140>
<meta message set_tempo tempo=482044 time=20>
note_on channel=0 note=66 velocity=0 time=0
note_on channel=0 note=75 velocity=0 time=0
note_on channel=0 note=73 velocity=31 time=0
note_on channel=0 note=67 velocity=23 time=160
note_on channel=0 note=67 velocity=0 time=160
note_on channel=0 note=63 velocity=23 time=0
<meta message set_tempo tempo=487329 time=160>
note_on channel=0 note=63 velocity=0 time=0
note_on channel=0 note=73 velocity=0 time=0
note_on channel=0 note=35 velocity=0 time=0
note_on channel=0 note=73 velocity=37 time=0
note_on channel=0 note=40 velocity=33 time=0
control_change channel=0 control=64 value=0 time=15
control_change channel=0 control=64 value=127 time=94
note_on channel=0 note=68 velocity=25 time=51
note_on channel=0 note=68 velocity=0 time=160
note_on channel=0 note=59 velocity=23 time=0
note_on channel=0 note=59 velocity=0 time=160
note_on channel=0 note=73 velocity=0 time=0
note_on channel=0 note=71 velocity=36 time=0
note_on channel=0 note=68 velocity=22 time=160
note_on channel=0 note=68 velocity=0 time=160
note_on channel=0 note=59 velocity=22 time=0
<meta message set_tempo tempo=489117 time=160>
note_on channel=0 note=59 velocity=0 time=0
note_on channel=0 note=71 velocity=0 time=0
note_on channel=0 note=68 velocity=35 time=0
note_on channel=0 note=64 velocity=23 time=160
note_on channel=0 note=64 velocity=0 time=160
note_on channel=0 note=59 velocity=23 time=0
<meta message set_tempo tempo=517688 time=160>
note_on channel=0 note=59 velocity=0 time=0
note_on channel=0 note=68 velocity=0 time=0
note_on channel=0 note=64 velocity=31 time=0
note_on channel=0 note=61 velocity=22 time=160
note_on channel=0 note=61 velocity=0 time=160
note_on channel=0 note=56 velocity=22 time=0
<meta message set_tempo tempo=507786 time=160>
note_on channel=0 note=56 velocity=0 time=0
note_on channel=0 note=64 velocity=0 time=0
note_on channel=0 note=40 velocity=0 time=0
note_on channel=0 note=63 velocity=38 time=0
note_on channel=0 note=42 velocity=37 time=0
control_change channel=0 control=64 value=0 time=0
<meta message set_tempo tempo=505860 time=70>
control_change channel=0 control=64 value=127 time=22
<meta message set_tempo tempo=503948 time=38>
note_on channel=0 note=51 velocity=26 time=30
<meta message set_tempo tempo=502050 time=30>
<meta message set_tempo tempo=500167 time=60>
<meta message set_tempo tempo=498297 time=60>
note_on channel=0 note=51 velocity=0 time=10
note_on channel=0 note=54 velocity=26 time=0
<meta message set_tempo tempo=496442 time=70>
<meta message set_tempo tempo=494601 time=60>
note_on channel=0 note=54 velocity=0 time=30
note_on channel=0 note=59 velocity=28 time=0
<meta message set_tempo tempo=492773 time=30>
<meta message set_tempo tempo=490918 time=60>
<meta message set_tempo tempo=489117 time=60>
note_on channel=0 note=59 velocity=0 time=10
note_on channel=0 note=54 velocity=26 time=0
<meta message set_tempo tempo=487329 time=70>
<meta message set_tempo tempo=485555 time=60>
note_on channel=0 note=54 velocity=0 time=30
note_on channel=0 note=51 velocity=26 time=0
<meta message set_tempo tempo=483793 time=30>
<meta message set_tempo tempo=482044 time=60>
<meta message set_tempo tempo=480307 time=60>
note_on channel=0 note=51 velocity=0 time=10
note_on channel=0 note=54 velocity=27 time=0
note_on channel=0 note=54 velocity=0 time=160
note_on channel=0 note=51 velocity=26 time=0
note_on channel=0 note=51 velocity=0 time=160
note_on channel=0 note=54 velocity=28 time=0
<meta message set_tempo tempo=485555 time=80>
<meta message set_tempo tempo=483793 time=60>
<meta message set_tempo tempo=483793 time=20>
note_on channel=0 note=54 velocity=0 time=0
note_on channel=0 note=63 velocity=0 time=0
note_on channel=0 note=59 velocity=28 time=0
note_on channel=0 note=63 velocity=35 time=0
note_on channel=0 note=59 velocity=0 time=160
note_on channel=0 note=54 velocity=28 time=0
note_on channel=0 note=54 velocity=0 time=160
note_on channel=0 note=51 velocity=28 time=0
<meta message set_tempo tempo=487329 time=160>
note_on channel=0 note=51 velocity=0 time=0
note_on channel=0 note=63 velocity=0 time=0
note_on channel=0 note=42 velocity=0 time=0
note_on channel=0 note=68 velocity=38 time=0
note_on channel=0 note=49 velocity=33 time=0
note_on channel=0 note=42 velocity=33 time=0
control_change channel=0 control=64 value=0 time=9
control_change channel=0 control=64 value=127 time=104
note_on channel=0 note=58 velocity=28 time=47
note_on channel=0 note=58 velocity=0 time=160
note_on channel=0 note=61 velocity=28 time=0
note_on channel=0 note=61 velocity=0 time=160
note_on channel=0 note=68 velocity=0 time=0
note_on channel=0 note=66 velocity=36 time=0
note_on channel=0 note=58 velocity=27 time=160
note_on channel=0 note=58 velocity=0 time=160
note_on channel=0 note=61 velocity=28 time=0
<meta message set_tempo tempo=489117 time=160>
note_on channel=0 note=61 velocity=0 time=0
note_on channel=0 note=66 velocity=0 time=0
note_on channel=0 note=64 velocity=35 time=0
note_on channel=0 note=54 velocity=27 time=160
note_on channel=0 note=54 velocity=0 time=160
note_on channel=0 note=58 velocity=27 time=0
<meta message set_tempo tempo=517688 time=160>
note_on channel=0 note=58 velocity=0 time=0
note_on channel=0 note=64 velocity=0 time=0
note_on channel=0 note=49 velocity=0 time=0
note_on channel=0 note=61 velocity=34 time=0
note_on channel=0 note=52 velocity=33 time=0
note_on channel=0 note=54 velocity=26 time=160
note_on channel=0 note=54 velocity=0 time=160
note_on channel=0 note=58 velocity=26 time=0
<meta message set_tempo tempo=507786 time=160>
note_on channel=0 note=58 velocity=0 time=0
note_on channel=0 note=52 velocity=0 time=0
note_on channel=0 note=61 velocity=0 time=0
note_on channel=0 note=42 velocity=0 time=0
note_on channel=0 note=59 velocity=30 time=0
note_on channel=0 note=35 velocity=29 time=0
control_change channel=0 control=64 value=0 time=0
<meta message set_tempo tempo=505860 time=70>
control_change channel=0 control=64 value=127 time=22
<meta message set_tempo tempo=503948 time=38>
note_on channel=0 note=47 velocity=20 time=30
<meta message set_tempo tempo=502050 time=30>
<meta message set_tempo tempo=500167 time=60>
<meta message set_tempo tempo=498297 time=60>
note_on channel=0 note=47 velocity=0 time=10
note_on channel=0 note=51 velocity=20 time=0
<meta message set_tempo tempo=496442 time=70>
<meta message set_tempo tempo=494601 time=60>
note_on channel=0 note=51 velocity=0 time=30
note_on channel=0 note=54 velocity=22 time=0
<meta message set_tempo tempo=492773 time=30>
<meta message set_tempo tempo=490918 time=60>
<meta message set_tempo tempo=489117 time=60>
note_on channel=0 note=54 velocity=0 time=10
note_on channel=0 note=51 velocity=20 time=0
<meta message set_tempo tempo=487329 time=70>
<meta message set_tempo tempo=485555 time=60>
note_on channel=0 note=51 velocity=0 time=30
note_on channel=0 note=47 velocity=20 time=0
<meta message set_tempo tempo=483793 time=30>
<meta message set_tempo tempo=482044 time=60>
<meta message set_tempo tempo=480307 time=60>
note_on channel=0 note=47 velocity=0 time=10
note_on channel=0 note=51 velocity=21 time=0
note_on channel=0 note=51 velocity=0 time=160
note_on channel=0 note=47 velocity=20 time=0
note_on channel=0 note=47 velocity=0 time=160
note_on channel=0 note=51 velocity=22 time=0
<meta message set_tempo tempo=485555 time=80>
<meta message set_tempo tempo=483793 time=60>
<meta message set_tempo tempo=483793 time=20>
note_on channel=0 note=51 velocity=0 time=0
note_on channel=0 note=59 velocity=0 time=0
note_on channel=0 note=54 velocity=22 time=0
note_on channel=0 note=54 velocity=0 time=160
note_on channel=0 note=51 velocity=22 time=0
note_on channel=0 note=51 velocity=0 time=160
note_on channel=0 note=47 velocity=22 time=0
<meta message set_tempo tempo=507786 time=160>
note_on channel=0 note=47 velocity=0 time=0
note_on channel=0 note=35 velocity=0 time=0
note_on channel=0 note=59 velocity=30 time=0
note_on channel=0 note=31 velocity=29 time=0
control_change channel=0 control=64 value=0 time=0
<meta message set_tempo tempo=505860 time=70>
control_change channel=0 control=64 value=127 time=22
<meta message set_tempo tempo=503948 time=38>
note_on channel=0 note=47 velocity=20 time=30
<meta message set_tempo tempo=502050 time=30>
<meta message set_tempo tempo=500167 time=60>
<meta message set_tempo tempo=498297 time=60>
note_on channel=0 note=47 velocity=0 time=10
note_on channel=0 note=52 velocity=20 time=0
<meta message set_tempo tempo=496442 time=70>
<meta message set_tempo tempo=494601 time=60>
note_on channel=0 note=52 velocity=0 time=30
note_on channel=0 note=55 velocity=22 time=0
<meta message set_tempo tempo=492773 time=30>
<meta message set_tempo tempo=490918 time=60>
<meta message set_tempo tempo=489117 time=60>
note_on channel=0 note=55 velocity=0 time=10
note_on channel=0 note=52 velocity=20 time=0
<meta message set_tempo tempo=487329 time=70>
<meta message set_tempo tempo=485555 time=60>
note_on channel=0 note=52 velocity=0 time=30
note_on channel=0 note=47 velocity=20 time=0
<meta message set_tempo tempo=483793 time=30>
<meta message set_tempo tempo=482044 time=60>
<meta message set_tempo tempo=480307 time=60>
note_on channel=0 note=47 velocity=0 time=10
note_on channel=0 note=52 velocity=21 time=0
note_on channel=0 note=52 velocity=0 time=160
note_on channel=0 note=47 velocity=20 time=0
note_on channel=0 note=47 velocity=0 time=160
note_on channel=0 note=52 velocity=22 time=0
<meta message set_tempo tempo=485555 time=80>
<meta message set_tempo tempo=483793 time=60>
<meta message set_tempo tempo=483793 time=20>
note_on channel=0 note=52 velocity=0 time=0
note_on channel=0 note=31 velocity=0 time=0
note_on channel=0 note=59 velocity=0 time=0
note_on channel=0 note=55 velocity=22 time=0
note_on channel=0 note=31 velocity=29 time=0
note_on channel=0 note=31 velocity=0 time=160
note_on channel=0 note=55 velocity=0 time=0
note_on channel=0 note=52 velocity=22 time=0
note_on channel=0 note=33 velocity=29 time=0
note_on channel=0 note=33 velocity=0 time=160
note_on channel=0 note=52 velocity=0 time=0
note_on channel=0 note=47 velocity=22 time=0
note_on channel=0 note=35 velocity=29 time=0
note_on channel=0 note=35 velocity=0 time=150
<meta message set_tempo tempo=507786 time=10>
note_on channel=0 note=47 velocity=0 time=0
note_on channel=0 note=59 velocity=30 time=0
note_on channel=0 note=35 velocity=29 time=0
control_change channel=0 control=64 value=0 time=0
<meta message set_tempo tempo=505860 time=70>
control_change channel=0 control=64 value=127 time=22
<meta message set_tempo tempo=503948 time=38>
note_on channel=0 note=47 velocity=20 time=30
<meta message set_tempo tempo=502050 time=30>
<meta message set_tempo tempo=500167 time=60>
<meta message set_tempo tempo=498297 time=60>
note_on channel=0 note=47 velocity=0 time=10
note_on channel=0 note=51 velocity=20 time=0
<meta message set_tempo tempo=496442 time=70>
<meta message set_tempo tempo=494601 time=60>
note_on channel=0 note=51 velocity=0 time=30
note_on channel=0 note=54 velocity=22 time=0
<meta message set_tempo tempo=492773 time=30>
<meta message set_tempo tempo=490918 time=60>
<meta message set_tempo tempo=489117 time=60>
note_on channel=0 note=54 velocity=0 time=10
note_on channel=0 note=51 velocity=20 time=0
<meta message set_tempo tempo=487329 time=70>
<meta message set_tempo tempo=485555 time=60>
note_on channel=0 note=51 velocity=0 time=30
note_on channel=0 note=47 velocity=20 time=0
<meta message set_tempo tempo=483793 time=30>
<meta message set_tempo tempo=482044 time=60>
<meta message set_tempo tempo=480307 time=60>
note_on channel=0 note=47 velocity=0 time=10
note_on channel=0 note=51 velocity=25 time=0
note_on channel=0 note=51 velocity=0 time=160
note_on channel=0 note=47 velocity=34 time=0
note_on channel=0 note=47 velocity=0 time=160
note_on channel=0 note=51 velocity=38 time=0
<meta message set_tempo tempo=485555 time=80>
<meta message set_tempo tempo=483793 time=60>
<meta message set_tempo tempo=483793 time=20>
note_on channel=0 note=51 velocity=0 time=0
note_on channel=0 note=35 velocity=0 time=0
note_on channel=0 note=59 velocity=0 time=0
note_on channel=0 note=54 velocity=42 time=0
note_on channel=0 note=37 velocity=49 time=0
note_on channel=0 note=37 velocity=0 time=120
note_on channel=0 note=39 velocity=51 time=0
note_on channel=0 note=54 velocity=0 time=40
note_on channel=0 note=51 velocity=46 time=0
note_on channel=0 note=39 velocity=0 time=80
note_on channel=0 note=40 velocity=54 time=0
note_on channel=0 note=51 velocity=0 time=80
note_on channel=0 note=47 velocity=50 time=0
note_on channel=0 note=40 velocity=0 time=40
note_on channel=0 note=42 velocity=58 time=0
<meta message set_tempo tempo=507786 time=120>
note_on channel=0 note=42 velocity=0 time=0
note_on channel=0 note=47 velocity=0 time=0
note_on channel=0 note=59 velocity=54 time=0
note_on channel=0 note=43 velocity=61 time=0
control_change channel=0 control=64 value=0 time=0
<meta message set_tempo tempo=505860 time=70>
control_change channel=0 control=64 value=127 time=22
<meta message set_tempo tempo=503948 time=38>
note_on channel=0 note=47 velocity=51 time=30
<meta message set_tempo tempo=502050 time=30>
<meta message set_tempo tempo=500167 time=60>
<meta message set_tempo tempo=498297 time=60>
note_on channel=0 note=47 velocity=0 time=10
note_on channel=0 note=50 velocity=47 time=0
<meta message set_tempo tempo=496442 time=70>
<meta message set_tempo tempo=494601 time=60>
note_on channel=0 note=50 velocity=0 time=30
note_on channel=0 note=53 velocity=42 time=0
<meta message set_tempo tempo=492773 time=30>
<meta message set_tempo tempo=490918 time=60>
<meta message set_tempo tempo=489117 time=60>
note_on channel=0 note=53 velocity=0 time=10
note_on channel=0 note=50 velocity=38 time=0
<meta message set_tempo tempo=487329 time=70>
<meta message set_tempo tempo=485555 time=60>
note_on channel=0 note=50 velocity=0 time=30
note_on channel=0 note=47 velocity=34 time=0
<meta message set_tempo tempo=483793 time=30>
<meta message set_tempo tempo=482044 time=60>
<meta message set_tempo tempo=480307 time=60>
note_on channel=0 note=47 velocity=0 time=10
note_on channel=0 note=43 velocity=0 time=0
note_on channel=0 note=59 velocity=0 time=0
note_on channel=0 note=58 velocity=39 time=0
note_on channel=0 note=42 velocity=38 time=0
control_change channel=0 control=64 value=0 time=11
control_change channel=0 control=64 value=127 time=126
note_on channel=0 note=49 velocity=20 time=23
note_on channel=0 note=49 velocity=0 time=160
note_on channel=0 note=52 velocity=22 time=0
<meta message set_tempo tempo=485555 time=80>
<meta message set_tempo tempo=483793 time=60>
<meta message set_tempo tempo=483793 time=20>
note_on channel=0 note=52 velocity=0 time=0
note_on channel=0 note=54 velocity=22 time=0
note_on channel=0 note=54 velocity=0 time=160
note_on channel=0 note=52 velocity=22 time=0
note_on channel=0 note=52 velocity=0 time=160
note_on channel=0 note=49 velocity=22 time=0
<meta message set_tempo tempo=507786 time=160>
note_on channel=0 note=49 velocity=0 time=0
note_on channel=0 note=42 velocity=0 time=0
note_on channel=0 note=58 velocity=0 time=0
note_on channel=0 note=59 velocity=30 time=0
note_on channel=0 note=35 velocity=29 time=0
control_change channel=0 control=64 value=0 time=0
<meta message set_tempo tempo=505860 time=70>
control_change channel=0 control=64 value=127 time=22
<meta message set_tempo tempo=503948 time=38>
note_on channel=0 note=47 velocity=20 time=30
<meta message set_tempo tempo=502050 time=30>
<meta message set_tempo tempo=500167 time=60>
<meta message set_tempo tempo=498297 time=60>
note_on channel=0 note=47 velocity=0 time=10
note_on channel=0 note=51 velocity=20 time=0
<meta message set_tempo tempo=496442 time=70>
<meta message set_tempo tempo=494601 time=60>
note_on channel=0 note=51 velocity=0 time=30
note_on channel=0 note=54 velocity=22 time=0
<meta message set_tempo tempo=492773 time=30>
<meta message set_tempo tempo=490918 time=60>
<meta message set_tempo tempo=489117 time=60>
note_on channel=0 note=54 velocity=0 time=10
note_on channel=0 note=51 velocity=20 time=0
<meta message set_tempo tempo=487329 time=70>
<meta message set_tempo tempo=485555 time=60>
note_on channel=0 note=51 velocity=0 time=30
note_on channel=0 note=47 velocity=20 time=0
<meta message set_tempo tempo=483793 time=30>
<meta message set_tempo tempo=482044 time=60>
<meta message set_tempo tempo=480307 time=60>
note_on channel=0 note=47 velocity=0 time=10
note_on channel=0 note=51 velocity=21 time=0
note_on channel=0 note=51 velocity=0 time=160
note_on channel=0 note=47 velocity=20 time=0
note_on channel=0 note=47 velocity=0 time=160
note_on channel=0 note=51 velocity=22 time=0
<meta message set_tempo tempo=485555 time=80>
<meta message set_tempo tempo=483793 time=60>
<meta message set_tempo tempo=483793 time=20>
note_on channel=0 note=51 velocity=0 time=0
note_on channel=0 note=59 velocity=0 time=0
note_on channel=0 note=54 velocity=22 time=0
note_on channel=0 note=54 velocity=0 time=160
note_on channel=0 note=51 velocity=22 time=0
note_on channel=0 note=51 velocity=0 time=160
note_on channel=0 note=47 velocity=22 time=0
<meta message set_tempo tempo=507786 time=160>
note_on channel=0 note=47 velocity=0 time=0
note_on channel=0 note=35 velocity=0 time=0
note_on channel=0 note=59 velocity=30 time=0
note_on channel=0 note=32 velocity=29 time=0
control_change channel=0 control=64 value=0 time=10
<meta message set_tempo tempo=505860 time=60>
control_change channel=0 control=64 value=127 time=22
<meta message set_tempo tempo=503948 time=38>
note_on channel=0 note=47 velocity=20 time=30
<meta message set_tempo tempo=502050 time=30>
<meta message set_tempo tempo=500167 time=60>
<meta message set_tempo tempo=498297 time=60>
note_on channel=0 note=47 velocity=0 time=10
note_on channel=0 note=52 velocity=20 time=0
<meta message set_tempo tempo=496442 time=70>
<meta message set_tempo tempo=494601 time=60>
note_on channel=0 note=52 velocity=0 time=30
note_on channel=0 note=56 velocity=22 time=0
<meta message set_tempo tempo=492773 time=30>
<meta message set_tempo tempo=490918 time=60>
<meta message set_tempo tempo=489117 time=60>
note_on channel=0 note=56 velocity=0 time=10
note_on channel=0 note=52 velocity=20 time=0
<meta message set_tempo tempo=487329 time=70>
<meta message set_tempo tempo=485555 time=60>
note_on channel=0 note=52 velocity=0 time=30
note_on channel=0 note=47 velocity=20 time=0
<meta message set_tempo tempo=483793 time=30>
<meta message set_tempo tempo=482044 time=60>
<meta message set_tempo tempo=480307 time=60>
note_on channel=0 note=47 velocity=0 time=10
note_on channel=0 note=52 velocity=21 time=0
note_on channel=0 note=52 velocity=0 time=160
note_on channel=0 note=47 velocity=20 time=0
note_on channel=0 note=47 velocity=0 time=160
note_on channel=0 note=52 velocity=22 time=0
<meta message set_tempo tempo=485555 time=80>
<meta message set_tempo tempo=483793 time=60>
<meta message set_tempo tempo=483793 time=20>
note_on channel=0 note=52 velocity=0 time=0
note_on channel=0 note=32 velocity=0 time=0
note_on channel=0 note=59 velocity=0 time=0
note_on channel=0 note=56 velocity=22 time=0
note_on channel=0 note=32 velocity=29 time=0
note_on channel=0 note=32 velocity=0 time=160
note_on channel=0 note=56 velocity=0 time=0
note_on channel=0 note=52 velocity=22 time=0
note_on channel=0 note=34 velocity=29 time=0
note_on channel=0 note=34 velocity=0 time=160
note_on channel=0 note=52 velocity=0 time=0
note_on channel=0 note=47 velocity=22 time=0
note_on channel=0 note=35 velocity=29 time=0
note_on channel=0 note=35 velocity=0 time=150
<meta message set_tempo tempo=507786 time=10>
note_on channel=0 note=47 velocity=0 time=0
note_on channel=0 note=59 velocity=30 time=0
note_on channel=0 note=35 velocity=29 time=0
control_change channel=0 control=64 value=0 time=0
<meta message set_tempo tempo=505860 time=70>
control_change channel=0 control=64 value=127 time=22
<meta message set_tempo tempo=503948 time=38>
note_on channel=0 note=47 velocity=20 time=30
<meta message set_tempo tempo=502050 time=30>
<meta message set_tempo tempo=500167 time=60>
<meta message set_tempo tempo=498297 time=60>
note_on channel=0 note=47 velocity=0 time=10
note_on channel=0 note=51 velocity=20 time=0
<meta message set_tempo tempo=496442 time=70>
<meta message set_tempo tempo=494601 time=60>
note_on channel=0 note=51 velocity=0 time=30
note_on channel=0 note=54 velocity=22 time=0
<meta message set_tempo tempo=492773 time=30>
<meta message set_tempo tempo=490918 time=60>
<meta message set_tempo tempo=489117 time=60>
note_on channel=0 note=54 velocity=0 time=10
note_on channel=0 note=51 velocity=20 time=0
<meta message set_tempo tempo=487329 time=70>
<meta message set_tempo tempo=485555 time=60>
note_on channel=0 note=51 velocity=0 time=30
note_on channel=0 note=47 velocity=20 time=0
<meta message set_tempo tempo=483793 time=30>
<meta message set_tempo tempo=482044 time=60>
<meta message set_tempo tempo=480307 time=60>
note_on channel=0 note=47 velocity=0 time=10
note_on channel=0 note=51 velocity=25 time=0
note_on channel=0 note=51 velocity=0 time=160
note_on channel=0 note=47 velocity=33 time=0
note_on channel=0 note=47 velocity=0 time=160
note_on channel=0 note=51 velocity=36 time=0
<meta message set_tempo tempo=485555 time=80>
<meta message set_tempo tempo=483793 time=60>
<meta message set_tempo tempo=483793 time=20>
note_on channel=0 note=51 velocity=0 time=0
note_on channel=0 note=35 velocity=0 time=0
note_on channel=0 note=59 velocity=0 time=0
note_on channel=0 note=54 velocity=39 time=0
note_on channel=0 note=37 velocity=50 time=0
note_on channel=0 note=37 velocity=0 time=120
note_on channel=0 note=39 velocity=53 time=0
note_on channel=0 note=54 velocity=0 time=40
note_on channel=0 note=51 velocity=42 time=0
note_on channel=0 note=39 velocity=0 time=80
note_on channel=0 note=40 velocity=57 time=0
note_on channel=0 note=51 velocity=0 time=80
note_on channel=0 note=47 velocity=45 time=0
note_on channel=0 note=40 velocity=0 time=40
note_on channel=0 note=42 velocity=61 time=0
<meta message set_tempo tempo=507786 time=120>
note_on channel=0 note=42 velocity=0 time=0
note_on channel=0 note=47 velocity=0 time=0
note_on channel=0 note=59 velocity=48 time=0
note_on channel=0 note=44 velocity=65 time=0
control_change channel=0 control=64 value=0 time=0
<meta message set_tempo tempo=505860 time=70>
control_change channel=0 control=64 value=127 time=22
<meta message set_tempo tempo=503948 time=38>
note_on channel=0 note=47 velocity=45 time=30
<meta message set_tempo tempo=502050 time=30>
<meta message set_tempo tempo=500167 time=60>
<meta message set_tempo tempo=498297 time=60>
note_on channel=0 note=47 velocity=0 time=10
note_on channel=0 note=50 velocity=42 time=0
<meta message set_tempo tempo=496442 time=70>
<meta message set_tempo tempo=494601 time=60>
note_on channel=0 note=50 velocity=0 time=30
note_on channel=0 note=53 velocity=40 time=0
<meta message set_tempo tempo=492773 time=30>
<meta message set_tempo tempo=490918 time=60>
<meta message set_tempo tempo=489117 time=60>
note_on channel=0 note=53 velocity=0 time=10
note_on channel=0 note=50 velocity=37 time=0
<meta message set_tempo tempo=487329 time=70>
<meta message set_tempo tempo=485555 time=60>
note_on channel=0 note=50 velocity=0 time=30
note_on channel=0 note=47 velocity=35 time=0
<meta message set_tempo tempo=483793 time=30>
<meta message set_tempo tempo=482044 time=60>
<meta message set_tempo tempo=480307 time=60>
note_on channel=0 note=47 velocity=0 time=10
note_on channel=0 note=44 velocity=0 time=0
note_on channel=0 note=59 velocity=0 time=0
note_on channel=0 note=58 velocity=39 time=0
note_on channel=0 note=42 velocity=38 time=0
control_change channel=0 control=64 value=0 time=11
control_change channel=0 control=64 value=127 time=92
note_on channel=0 note=49 velocity=20 time=57
note_on channel=0 note=49 velocity=0 time=160
note_on channel=0 note=52 velocity=22 time=0
<meta message set_tempo tempo=485555 time=80>
<meta message set_tempo tempo=483793 time=60>
<meta message set_tempo tempo=483793 time=20>
note_on channel=0 note=52 velocity=0 time=0
note_on channel=0 note=54 velocity=22 time=0
note_on channel=0 note=54 velocity=0 time=160
note_on channel=0 note=52 velocity=22 time=0
note_on channel=0 note=52 velocity=0 time=160
note_on channel=0 note=49 velocity=22 time=0
<meta message set_tempo tempo=507786 time=160>
note_on channel=0 note=49 velocity=0 time=0
note_on channel=0 note=42 velocity=0 time=0
note_on channel=0 note=58 velocity=0 time=0
note_on channel=0 note=59 velocity=30 time=0
note_on channel=0 note=35 velocity=29 time=0
control_change channel=0 control=64 value=0 time=0
<meta message set_tempo tempo=505860 time=70>
control_change channel=0 control=64 value=127 time=22
<meta message set_tempo tempo=503948 time=38>
note_on channel=0 note=47 velocity=20 time=30
<meta message set_tempo tempo=502050 time=30>
<meta message set_tempo tempo=500167 time=60>
<meta message set_tempo tempo=498297 time=60>
note_on channel=0 note=47 velocity=0 time=10
note_on channel=0 note=51 velocity=20 time=0
<meta message set_tempo tempo=496442 time=70>
<meta message set_tempo tempo=494601 time=60>
note_on channel=0 note=51 velocity=0 time=30
note_on channel=0 note=54 velocity=22 time=0
<meta message set_tempo tempo=492773 time=30>
<meta message set_tempo tempo=490918 time=60>
<meta message set_tempo tempo=489117 time=60>
note_on channel=0 note=54 velocity=0 time=10
note_on channel=0 note=51 velocity=20 time=0
<meta message set_tempo tempo=487329 time=70>
<meta message set_tempo tempo=485555 time=60>
note_on channel=0 note=51 velocity=0 time=30
note_on channel=0 note=47 velocity=20 time=0
<meta message set_tempo tempo=483793 time=30>
<meta message set_tempo tempo=482044 time=60>
<meta message set_tempo tempo=480307 time=60>
note_on channel=0 note=47 velocity=0 time=10
note_on channel=0 note=51 velocity=25 time=0
note_on channel=0 note=51 velocity=0 time=160
note_on channel=0 note=47 velocity=28 time=0
note_on channel=0 note=47 velocity=0 time=160
note_on channel=0 note=51 velocity=31 time=0
<meta message set_tempo tempo=485555 time=80>
<meta message set_tempo tempo=483793 time=60>
<meta message set_tempo tempo=483793 time=20>
note_on channel=0 note=51 velocity=0 time=0
note_on channel=0 note=59 velocity=0 time=0
note_on channel=0 note=54 velocity=34 time=0
note_on channel=0 note=54 velocity=0 time=160
note_on channel=0 note=51 velocity=37 time=0
note_on channel=0 note=51 velocity=0 time=160
note_on channel=0 note=47 velocity=40 time=0
<meta message set_tempo tempo=478583 time=160>
note_on channel=0 note=47 velocity=0 time=0
note_on channel=0 note=59 velocity=49 time=0
note_on channel=0 note=51 velocity=41 time=160
note_on channel=0 note=51 velocity=0 time=160
note_on channel=0 note=54 velocity=41 time=0
<meta message set_tempo tempo=473447 time=160>
note_on channel=0 note=54 velocity=0 time=0
note_on channel=0 note=59 velocity=0 time=0
note_on channel=0 note=63 velocity=54 time=0
note_on channel=0 note=54 velocity=46 time=160
note_on channel=0 note=54 velocity=0 time=160
note_on channel=0 note=59 velocity=42 time=0
<meta message set_tempo tempo=468457 time=160>
note_on channel=0 note=59 velocity=0 time=0
note_on channel=0 note=63 velocity=0 time=0
note_on channel=0 note=66 velocity=62 time=0
note_on channel=0 note=59 velocity=49 time=160
note_on channel=0 note=59 velocity=0 time=160
note_on channel=0 note=63 velocity=53 time=0
<meta message set_tempo tempo=492773 time=160>
note_on channel=0 note=63 velocity=0 time=0
note_on channel=0 note=66 velocity=0 time=0
note_on channel=0 note=71 velocity=67 time=0
note_on channel=0 note=63 velocity=55 time=160
note_on channel=0 note=63 velocity=0 time=160
note_on channel=0 note=66 velocity=58 time=0
<meta message set_tempo tempo=507786 time=160>
note_on channel=0 note=66 velocity=0 time=0
note_on channel=0 note=71 velocity=0 time=0
note_on channel=0 note=35 velocity=0 time=0
note_on channel=0 note=71 velocity=77 time=0
note_on channel=0 note=44 velocity=74 time=0
control_change channel=0 control=64 value=0 time=0
<meta message set_tempo tempo=505860 time=70>
control_change channel=0 control=64 value=127 time=57
<meta message set_tempo tempo=503948 time=3>
note_on channel=0 note=59 velocity=60 time=30
<meta message set_tempo tempo=502050 time=30>
<meta message set_tempo tempo=500167 time=60>
<meta message set_tempo tempo=498297 time=60>
note_on channel=0 note=59 velocity=0 time=10
note_on channel=0 note=62 velocity=60 time=0
<meta message set_tempo tempo=496442 time=70>
<meta message set_tempo tempo=494601 time=60>
note_on channel=0 note=62 velocity=0 time=30
note_on channel=0 note=65 velocity=68 time=0
<meta message set_tempo tempo=492773 time=30>
<meta message set_tempo tempo=490918 time=60>
<meta message set_tempo tempo=489117 time=60>
note_on channel=0 note=65 velocity=0 time=10
note_on channel=0 note=62 velocity=49 time=0
<meta message set_tempo tempo=487329 time=70>
<meta message set_tempo tempo=485555 time=60>
note_on channel=0 note=62 velocity=0 time=30
note_on channel=0 note=59 velocity=57 time=0
<meta message set_tempo tempo=483793 time=30>
<meta message set_tempo tempo=482044 time=60>
<meta message set_tempo tempo=480307 time=60>
note_on channel=0 note=59 velocity=0 time=10
note_on channel=0 note=62 velocity=65 time=0
note_on channel=0 note=62 velocity=0 time=160
note_on channel=0 note=59 velocity=54 time=0
note_on channel=0 note=59 velocity=0 time=160
note_on channel=0 note=62 velocity=54 time=0
<meta message set_tempo tempo=485555 time=80>
<meta message set_tempo tempo=483793 time=60>
<meta message set_tempo tempo=496442 time=20>
note_on channel=0 note=62 velocity=0 time=0
note_on channel=0 note=44 velocity=0 time=0
note_on channel=0 note=65 velocity=63 time=0
note_on channel=0 note=44 velocity=55 time=0
note_on channel=0 note=44 velocity=0 time=160
note_on channel=0 note=65 velocity=0 time=0
note_on channel=0 note=62 velocity=54 time=0
note_on channel=0 note=46 velocity=59 time=0
<meta message set_tempo tempo=494601 time=80>
note_on channel=0 note=46 velocity=0 time=80
note_on channel=0 note=62 velocity=0 time=0
note_on channel=0 note=59 velocity=54 time=0
note_on channel=0 note=47 velocity=63 time=0
note_on channel=0 note=47 velocity=0 time=150
<meta message set_tempo tempo=507786 time=10>
note_on channel=0 note=59 velocity=0 time=0
note_on channel=0 note=71 velocity=0 time=0
note_on channel=0 note=70 velocity=75 time=0
note_on channel=0 note=47 velocity=73 time=0
control_change channel=0 control=64 value=0 time=11
<meta message set_tempo tempo=505860 time=59>
<meta message set_tempo tempo=503948 time=60>
control_change channel=0 control=64 value=127 time=18
note_on channel=0 note=56 velocity=50 time=12
<meta message set_tempo tempo=502050 time=30>
<meta message set_tempo tempo=500167 time=60>
<meta message set_tempo tempo=498297 time=60>
note_on channel=0 note=56 velocity=0 time=10
note_on channel=0 note=62 velocity=50 time=0
<meta message set_tempo tempo=496442 time=70>
<meta message set_tempo tempo=494601 time=60>
note_on channel=0 note=62 velocity=0 time=30
note_on channel=0 note=70 velocity=0 time=0
note_on channel=0 note=68 velocity=68 time=0
note_on channel=0 note=65 velocity=46 time=0
<meta message set_tempo tempo=492773 time=30>
<meta message set_tempo tempo=490918 time=60>
<meta message set_tempo tempo=489117 time=60>
note_on channel=0 note=65 velocity=0 time=10
note_on channel=0 note=62 velocity=49 time=0
<meta message set_tempo tempo=487329 time=70>
<meta message set_tempo tempo=485555 time=60>
note_on channel=0 note=62 velocity=0 time=30
note_on channel=0 note=56 velocity=44 time=0
<meta message set_tempo tempo=483793 time=30>
<meta message set_tempo tempo=482044 time=60>
<meta message set_tempo tempo=480307 time=60>
note_on channel=0 note=56 velocity=0 time=10
note_on channel=0 note=62 velocity=56 time=0
note_on channel=0 note=62 velocity=0 time=160
note_on channel=0 note=56 velocity=46 time=0
note_on channel=0 note=56 velocity=0 time=160
note_on channel=0 note=62 velocity=41 time=0
<meta message set_tempo tempo=485555 time=80>
<meta message set_tempo tempo=483793 time=60>
<meta message set_tempo tempo=500167 time=20>
note_on channel=0 note=62 velocity=0 time=0
note_on channel=0 note=47 velocity=0 time=0
note_on channel=0 note=65 velocity=57 time=0
note_on channel=0 note=47 velocity=56 time=0
note_on channel=0 note=47 velocity=0 time=160
note_on channel=0 note=65 velocity=0 time=0
note_on channel=0 note=62 velocity=46 time=0
note_on channel=0 note=49 velocity=61 time=0
note_on channel=0 note=49 velocity=0 time=160
note_on channel=0 note=62 velocity=0 time=0
note_on channel=0 note=56 velocity=46 time=0
note_on channel=0 note=50 velocity=64 time=0
note_on channel=0 note=50 velocity=0 time=150
<meta message set_tempo tempo=507786 time=10>
note_on channel=0 note=56 velocity=0 time=0
note_on channel=0 note=68 velocity=0 time=0
note_on channel=0 note=66 velocity=75 time=0
note_on channel=0 note=50 velocity=73 time=0
control_change channel=0 control=64 value=0 time=11
<meta message set_tempo tempo=505860 time=59>
<meta message set_tempo tempo=503948 time=60>
control_change channel=0 control=64 value=127 time=18
note_on channel=0 note=56 velocity=53 time=12
<meta message set_tempo tempo=502050 time=30>
<meta message set_tempo tempo=500167 time=60>
<meta message set_tempo tempo=498297 time=60>
note_on channel=0 note=56 velocity=0 time=10
note_on channel=0 note=58 velocity=53 time=0
<meta message set_tempo tempo=496442 time=70>
<meta message set_tempo tempo=494601 time=60>
note_on channel=0 note=58 velocity=0 time=30
note_on channel=0 note=66 velocity=0 time=0
note_on channel=0 note=65 velocity=68 time=0
note_on channel=0 note=59 velocity=46 time=0
<meta message set_tempo tempo=492773 time=30>
<meta message set_tempo tempo=490918 time=60>
<meta message set_tempo tempo=489117 time=60>
note_on channel=0 note=59 velocity=0 time=10
note_on channel=0 note=58 velocity=44 time=0
<meta message set_tempo tempo=487329 time=70>
<meta message set_tempo tempo=485555 time=60>
note_on channel=0 note=58 velocity=0 time=30
note_on channel=0 note=56 velocity=46 time=0
<meta message set_tempo tempo=483793 time=30>
<meta message set_tempo tempo=482044 time=60>
<meta message set_tempo tempo=480307 time=60>
note_on channel=0 note=56 velocity=0 time=10
note_on channel=0 note=58 velocity=56 time=0
note_on channel=0 note=58 velocity=0 time=160
note_on channel=0 note=56 velocity=46 time=0
note_on channel=0 note=56 velocity=0 time=160
note_on channel=0 note=58 velocity=41 time=0
<meta message set_tempo tempo=485555 time=80>
<meta message set_tempo tempo=483793 time=60>
<meta message set_tempo tempo=500167 time=20>
note_on channel=0 note=58 velocity=0 time=0
note_on channel=0 note=50 velocity=0 time=0
note_on channel=0 note=59 velocity=53 time=0
note_on channel=0 note=50 velocity=56 time=0
note_on channel=0 note=50 velocity=0 time=160
note_on channel=0 note=59 velocity=0 time=0
note_on channel=0 note=58 velocity=46 time=0
note_on channel=0 note=51 velocity=61 time=0
note_on channel=0 note=51 velocity=0 time=160
note_on channel=0 note=58 velocity=0 time=0
note_on channel=0 note=56 velocity=46 time=0
note_on channel=0 note=53 velocity=64 time=0
note_on channel=0 note=53 velocity=0 time=150
<meta message set_tempo tempo=507786 time=10>
note_on channel=0 note=56 velocity=0 time=0
note_on channel=0 note=65 velocity=0 time=0
note_on channel=0 note=63 velocity=75 time=0
note_on channel=0 note=53 velocity=73 time=0
control_change channel=0 control=64 value=0 time=11
<meta message set_tempo tempo=505860 time=59>
<meta message set_tempo tempo=503948 time=60>
control_change channel=0 control=64 value=127 time=18
note_on channel=0 note=56 velocity=53 time=12
<meta message set_tempo tempo=502050 time=30>
<meta message set_tempo tempo=500167 time=60>
<meta message set_tempo tempo=498297 time=60>
note_on channel=0 note=56 velocity=0 time=10
note_on channel=0 note=58 velocity=53 time=0
<meta message set_tempo tempo=496442 time=70>
<meta message set_tempo tempo=494601 time=60>
note_on channel=0 note=58 velocity=0 time=30
note_on channel=0 note=63 velocity=0 time=0
note_on channel=0 note=62 velocity=68 time=0
note_on channel=0 note=59 velocity=46 time=0
<meta message set_tempo tempo=492773 time=30>
<meta message set_tempo tempo=490918 time=60>
<meta message set_tempo tempo=489117 time=60>
note_on channel=0 note=59 velocity=0 time=10
note_on channel=0 note=58 velocity=50 time=0
<meta message set_tempo tempo=487329 time=70>
<meta message set_tempo tempo=485555 time=60>
note_on channel=0 note=58 velocity=0 time=30
note_on channel=0 note=56 velocity=50 time=0
<meta message set_tempo tempo=483793 time=30>
<meta message set_tempo tempo=482044 time=60>
<meta message set_tempo tempo=480307 time=60>
note_on channel=0 note=56 velocity=0 time=10
note_on channel=0 note=58 velocity=56 time=0
note_on channel=0 note=58 velocity=0 time=160
note_on channel=0 note=56 velocity=41 time=0
note_on channel=0 note=56 velocity=0 time=160
note_on channel=0 note=58 velocity=35 time=0
<meta message set_tempo tempo=485555 time=80>
<meta message set_tempo tempo=483793 time=60>
<meta message set_tempo tempo=500167 time=20>
note_on channel=0 note=58 velocity=0 time=0
note_on channel=0 note=53 velocity=0 time=0
note_on channel=0 note=59 velocity=49 time=0
note_on channel=0 note=41 velocity=56 time=0
note_on channel=0 note=59 velocity=0 time=160
note_on channel=0 note=58 velocity=37 time=0
note_on channel=0 note=58 velocity=0 time=160
note_on channel=0 note=56 velocity=35 time=0
note_on channel=0 note=56 velocity=0 time=160
note_on channel=0 note=41 velocity=0 time=0
note_on channel=0 note=62 velocity=0 time=0
note_on channel=0 note=65 velocity=45 time=0
note_on channel=0 note=42 velocity=40 time=0
control_change channel=0 control=64 value=0 time=0
<meta message set_tempo tempo=487329 time=6>
control_change channel=0 control=64 value=127 time=65
note_on channel=0 note=54 velocity=30 time=89
note_on channel=0 note=54 velocity=0 time=160
note_on channel=0 note=58 velocity=24 time=0
note_on channel=0 note=58 velocity=0 time=160
note_on channel=0 note=65 velocity=0 time=0
note_on channel=0 note=63 velocity=44 time=0
<meta message set_tempo tempo=496442 time=6>
note_on channel=0 note=54 velocity=29 time=154
note_on channel=0 note=54 velocity=0 time=160
note_on channel=0 note=58 velocity=24 time=0
note_on channel=0 note=58 velocity=0 time=160
note_on channel=0 note=63 velocity=0 time=0
note_on channel=0 note=42 velocity=0 time=0
note_on channel=0 note=66 velocity=47 time=0
note_on channel=0 note=38 velocity=40 time=0
<meta message set_tempo tempo=487329 time=6>
control_change channel=0 control=64 value=0 time=2
control_change channel=0 control=64 value=127 time=119
note_on channel=0 note=56 velocity=30 time=33
note_on channel=0 note=56 velocity=0 time=160
note_on channel=0 note=59 velocity=24 time=0
note_on channel=0 note=59 velocity=0 time=160
note_on channel=0 note=66 velocity=0 time=0
note_on channel=0 note=65 velocity=44 time=0
<meta message set_tempo tempo=494601 time=6>
note_on channel=0 note=56 velocity=35 time=154
note_on channel=0 note=56 velocity=0 time=160
note_on channel=0 note=59 velocity=30 time=0
note_on channel=0 note=59 velocity=0 time=160
note_on channel=0 note=65 velocity=0 time=0
note_on channel=0 note=38 velocity=0 time=0
note_on channel=0 note=68 velocity=54 time=0
note_on channel=0 note=39 velocity=49 time=0
<meta message set_tempo tempo=483793 time=6>
control_change channel=0 control=64 value=0 time=7
control_change channel=0 control=64 value=127 time=121
note_on channel=0 note=58 velocity=37 time=26
note_on channel=0 note=58 velocity=0 time=160
note_on channel=0 note=63 velocity=30 time=0
note_on channel=0 note=63 velocity=0 time=160
note_on channel=0 note=68 velocity=0 time=0
note_on channel=0 note=66 velocity=47 time=0
<meta message set_tempo tempo=494601 time=6>
note_on channel=0 note=58 velocity=30 time=154
note_on channel=0 note=58 velocity=0 time=160
note_on channel=0 note=63 velocity=26 time=0
note_on channel=0 note=63 velocity=0 time=160
note_on channel=0 note=66 velocity=0 time=0
note_on channel=0 note=39 velocity=0 time=0
note_on channel=0 note=65 velocity=50 time=0
note_on channel=0 note=32 velocity=40 time=0
<meta message set_tempo tempo=490918 time=6>
control_change channel=0 control=64 value=0 time=6
control_change channel=0 control=64 value=127 time=129
note_on channel=0 note=56 velocity=29 time=19
note_on channel=0 note=56 velocity=0 time=160
note_on channel=0 note=59 velocity=24 time=0
note_on channel=0 note=59 velocity=0 time=160
note_on channel=0 note=65 velocity=0 time=0
note_on channel=0 note=68 velocity=45 time=0
<meta message set_tempo tempo=496442 time=26>
note_on channel=0 note=56 velocity=29 time=134
note_on channel=0 note=56 velocity=0 time=160
note_on channel=0 note=59 velocity=25 time=0
<meta message set_tempo tempo=507786 time=160>
note_on channel=0 note=59 velocity=0 time=0
note_on channel=0 note=68 velocity=0 time=0
note_on channel=0 note=32 velocity=0 time=0
note_on channel=0 note=63 velocity=30 time=0
note_on channel=0 note=34 velocity=29 time=0
control_change channel=0 control=64 value=0 time=0
<meta message set_tempo tempo=505860 time=70>
control_change channel=0 control=64 value=127 time=22
<meta message set_tempo tempo=503948 time=38>
note_on channel=0 note=51 velocity=20 time=30
<meta message set_tempo tempo=502050 time=30>
<meta message set_tempo tempo=500167 time=60>
<meta message set_tempo tempo=498297 time=60>
note_on channel=0 note=51 velocity=0 time=10
note_on channel=0 note=54 velocity=20 time=0
<meta message set_tempo tempo=496442 time=70>
<meta message set_tempo tempo=494601 time=60>
note_on channel=0 note=54 velocity=0 time=30
note_on channel=0 note=58 velocity=22 time=0
<meta message set_tempo tempo=492773 time=30>
<meta message set_tempo tempo=490918 time=60>
<meta message set_tempo tempo=489117 time=60>
note_on channel=0 note=58 velocity=0 time=10
note_on channel=0 note=54 velocity=20 time=0
<meta message set_tempo tempo=487329 time=70>
<meta message set_tempo tempo=485555 time=60>
note_on channel=0 note=54 velocity=0 time=30
note_on channel=0 note=51 velocity=20 time=0
<meta message set_tempo tempo=483793 time=30>
<meta message set_tempo tempo=482044 time=60>
<meta message set_tempo tempo=480307 time=60>
note_on channel=0 note=51 velocity=0 time=10
note_on channel=0 note=54 velocity=25 time=0
note_on channel=0 note=54 velocity=0 time=160
note_on channel=0 note=34 velocity=0 time=0
note_on channel=0 note=51 velocity=28 time=0
note_on channel=0 note=33 velocity=25 time=0
note_on channel=0 note=33 velocity=0 time=160
note_on channel=0 note=51 velocity=0 time=0
note_on channel=0 note=54 velocity=28 time=0
note_on channel=0 note=34 velocity=25 time=0
<meta message set_tempo tempo=485555 time=80>
<meta message set_tempo tempo=483793 time=60>
<meta message set_tempo tempo=483793 time=20>
note_on channel=0 note=34 velocity=0 time=0
note_on channel=0 note=54 velocity=0 time=0
note_on channel=0 note=63 velocity=0 time=0
note_on channel=0 note=58 velocity=34 time=0
note_on channel=0 note=35 velocity=29 time=0
note_on channel=0 note=35 velocity=0 time=160
note_on channel=0 note=58 velocity=0 time=0
note_on channel=0 note=54 velocity=37 time=0
note_on channel=0 note=34 velocity=25 time=0
note_on channel=0 note=34 velocity=0 time=160
note_on channel=0 note=54 velocity=0 time=0
note_on channel=0 note=51 velocity=40 time=0
note_on channel=0 note=33 velocity=25 time=0
<meta message set_tempo tempo=478583 time=160>
note_on channel=0 note=33 velocity=0 time=0
note_on channel=0 note=51 velocity=0 time=0
note_on channel=0 note=62 velocity=49 time=0
note_on channel=0 note=34 velocity=29 time=0
control_change channel=0 control=64 value=0 time=11
control_change channel=0 control=64 value=127 time=74
note_on channel=0 note=50 velocity=41 time=75
note_on channel=0 note=50 velocity=0 time=160
note_on channel=0 note=53 velocity=41 time=0
<meta message set_tempo tempo=473447 time=160>
note_on channel=0 note=53 velocity=0 time=0
note_on channel=0 note=58 velocity=40 time=0
note_on channel=0 note=58 velocity=0 time=160
note_on channel=0 note=53 velocity=42 time=0
note_on channel=0 note=53 velocity=0 time=160
note_on channel=0 note=50 velocity=42 time=0
<meta message set_tempo tempo=468457 time=160>
note_on channel=0 note=50 velocity=0 time=0
note_on channel=0 note=62 velocity=0 time=0
note_on channel=0 note=65 velocity=58 time=0
note_on channel=0 note=58 velocity=49 time=160
note_on channel=0 note=58 velocity=0 time=160
note_on channel=0 note=62 velocity=53 time=0
<meta message set_tempo tempo=492773 time=160>
note_on channel=0 note=62 velocity=0 time=0
note_on channel=0 note=65 velocity=0 time=0
note_on channel=0 note=34 velocity=0 time=0
note_on channel=0 note=70 velocity=64 time=0
note_on channel=0 note=46 velocity=29 time=0
note_on channel=0 note=34 velocity=29 time=0
note_on channel=0 note=62 velocity=54 time=160
note_on channel=0 note=62 velocity=0 time=160
note_on channel=0 note=65 velocity=58 time=0
<meta message set_tempo tempo=507786 time=160>
note_on channel=0 note=65 velocity=0 time=0
note_on channel=0 note=34 velocity=0 time=0
note_on channel=0 note=46 velocity=0 time=0
note_on channel=0 note=70 velocity=0 time=0
note_on channel=0 note=71 velocity=77 time=0
note_on channel=0 note=44 velocity=74 time=0
note_on channel=0 note=32 velocity=64 time=0
control_change channel=0 control=64 value=0 time=0
<meta message set_tempo tempo=505860 time=70>
control_change channel=0 control=64 value=127 time=57
<meta message set_tempo tempo=503948 time=3>
note_on channel=0 note=59 velocity=51 time=30
<meta message set_tempo tempo=502050 time=30>
<meta message set_tempo tempo=500167 time=60>
<meta message set_tempo tempo=498297 time=60>
note_on channel=0 note=59 velocity=0 time=10
note_on channel=0 note=62 velocity=56 time=0
<meta message set_tempo tempo=496442 time=70>
<meta message set_tempo tempo=494601 time=60>
note_on channel=0 note=62 velocity=0 time=30
note_on channel=0 note=65 velocity=66 time=0
<meta message set_tempo tempo=492773 time=30>
<meta message set_tempo tempo=490918 time=60>
<meta message set_tempo tempo=489117 time=60>
note_on channel=0 note=65 velocity=0 time=10
note_on channel=0 note=62 velocity=49 time=0
<meta message set_tempo tempo=487329 time=70>
<meta message set_tempo tempo=485555 time=60>
note_on channel=0 note=62 velocity=0 time=30
note_on channel=0 note=59 velocity=56 time=0
<meta message set_tempo tempo=483793 time=30>
<meta message set_tempo tempo=482044 time=60>
<meta message set_tempo tempo=480307 time=60>
note_on channel=0 note=59 velocity=0 time=10
note_on channel=0 note=62 velocity=61 time=0
note_on channel=0 note=62 velocity=0 time=160
note_on channel=0 note=59 velocity=56 time=0
note_on channel=0 note=59 velocity=0 time=160
note_on channel=0 note=62 velocity=56 time=0
<meta message set_tempo tempo=485555 time=80>
<meta message set_tempo tempo=483793 time=60>
<meta message set_tempo tempo=496442 time=20>
note_on channel=0 note=62 velocity=0 time=0
note_on channel=0 note=32 velocity=0 time=0
note_on channel=0 note=44 velocity=0 time=0
note_on channel=0 note=65 velocity=56 time=0
note_on channel=0 note=44 velocity=55 time=0
note_on channel=0 note=44 velocity=0 time=160
note_on channel=0 note=65 velocity=0 time=0
note_on channel=0 note=62 velocity=56 time=0
note_on channel=0 note=46 velocity=59 time=0
<meta message set_tempo tempo=494601 time=80>
note_on channel=0 note=46 velocity=0 time=80
note_on channel=0 note=62 velocity=0 time=0
note_on channel=0 note=59 velocity=57 time=0
note_on channel=0 note=47 velocity=63 time=0
note_on channel=0 note=47 velocity=0 time=150
<meta message set_tempo tempo=507786 time=10>
note_on channel=0 note=59 velocity=0 time=0
note_on channel=0 note=71 velocity=0 time=0
note_on channel=0 note=70 velocity=75 time=0
note_on channel=0 note=35 velocity=64 time=0
note_on channel=0 note=47 velocity=73 time=0
control_change channel=0 control=64 value=0 time=11
<meta message set_tempo tempo=505860 time=59>
<meta message set_tempo tempo=503948 time=60>
control_change channel=0 control=64 value=127 time=18
note_on channel=0 note=56 velocity=52 time=12
<meta message set_tempo tempo=502050 time=30>
<meta message set_tempo tempo=500167 time=60>
<meta message set_tempo tempo=498297 time=60>
note_on channel=0 note=56 velocity=0 time=10
note_on channel=0 note=62 velocity=52 time=0
<meta message set_tempo tempo=496442 time=70>
<meta message set_tempo tempo=494601 time=60>
note_on channel=0 note=62 velocity=0 time=30
note_on channel=0 note=70 velocity=0 time=0
note_on channel=0 note=68 velocity=68 time=0
note_on channel=0 note=65 velocity=46 time=0
<meta message set_tempo tempo=492773 time=30>
<meta message set_tempo tempo=490918 time=60>
<meta message set_tempo tempo=489117 time=60>
note_on channel=0 note=65 velocity=0 time=10
note_on channel=0 note=62 velocity=48 time=0
<meta message set_tempo tempo=487329 time=70>
<meta message set_tempo tempo=485555 time=60>
note_on channel=0 note=62 velocity=0 time=30
note_on channel=0 note=56 velocity=48 time=0
<meta message set_tempo tempo=483793 time=30>
<meta message set_tempo tempo=482044 time=60>
<meta message set_tempo tempo=480307 time=60>
note_on channel=0 note=56 velocity=0 time=10
note_on channel=0 note=62 velocity=56 time=0
note_on channel=0 note=62 velocity=0 time=160
note_on channel=0 note=56 velocity=46 time=0
note_on channel=0 note=56 velocity=0 time=160
note_on channel=0 note=62 velocity=41 time=0
<meta message set_tempo tempo=485555 time=80>
<meta message set_tempo tempo=483793 time=60>
<meta message set_tempo tempo=500167 time=20>
note_on channel=0 note=62 velocity=0 time=0
note_on channel=0 note=47 velocity=0 time=0
note_on channel=0 note=35 velocity=0 time=0
note_on channel=0 note=65 velocity=53 time=0
note_on channel=0 note=47 velocity=56 time=0
note_on channel=0 note=47 velocity=0 time=160
note_on channel=0 note=65 velocity=0 time=0
note_on channel=0 note=62 velocity=46 time=0
note_on channel=0 note=49 velocity=61 time=0
note_on channel=0 note=49 velocity=0 time=160
note_on channel=0 note=62 velocity=0 time=0
note_on channel=0 note=56 velocity=46 time=0
note_on channel=0 note=50 velocity=64 time=0
note_on channel=0 note=50 velocity=0 time=150
<meta message set_tempo tempo=507786 time=10>
note_on channel=0 note=56 velocity=0 time=0
note_on channel=0 note=68 velocity=0 time=0
note_on channel=0 note=66 velocity=75 time=0
note_on channel=0 note=50 velocity=73 time=0
note_on channel=0 note=38 velocity=64 time=7
control_change channel=0 control=64 value=0 time=4
<meta message set_tempo tempo=505860 time=59>
<meta message set_tempo tempo=503948 time=60>
control_change channel=0 control=64 value=127 time=18
note_on channel=0 note=56 velocity=52 time=12
<meta message set_tempo tempo=502050 time=30>
<meta message set_tempo tempo=500167 time=60>
<meta message set_tempo tempo=498297 time=60>
note_on channel=0 note=56 velocity=0 time=10
note_on channel=0 note=58 velocity=53 time=0
<meta message set_tempo tempo=496442 time=70>
<meta message set_tempo tempo=494601 time=60>
note_on channel=0 note=58 velocity=0 time=30
note_on channel=0 note=66 velocity=0 time=0
note_on channel=0 note=65 velocity=68 time=0
note_on channel=0 note=59 velocity=46 time=0
<meta message set_tempo tempo=492773 time=30>
<meta message set_tempo tempo=490918 time=60>
<meta message set_tempo tempo=489117 time=60>
note_on channel=0 note=59 velocity=0 time=10
note_on channel=0 note=58 velocity=44 time=0
<meta message set_tempo tempo=487329 time=70>
<meta message set_tempo tempo=485555 time=60>
note_on channel=0 note=58 velocity=0 time=30
note_on channel=0 note=56 velocity=50 time=0
<meta message set_tempo tempo=483793 time=30>
<meta message set_tempo tempo=482044 time=60>
<meta message set_tempo tempo=480307 time=60>
note_on channel=0 note=56 velocity=0 time=10
note_on channel=0 note=58 velocity=56 time=0
note_on channel=0 note=58 velocity=0 time=160
note_on channel=0 note=56 velocity=46 time=0
note_on channel=0 note=56 velocity=0 time=160
note_on channel=0 note=58 velocity=41 time=0
<meta message set_tempo tempo=485555 time=80>
<meta message set_tempo tempo=483793 time=60>
<meta message set_tempo tempo=500167 time=20>
note_on channel=0 note=58 velocity=0 time=0
note_on channel=0 note=50 velocity=0 time=0
note_on channel=0 note=59 velocity=53 time=0
note_on channel=0 note=50 velocity=56 time=0
note_on channel=0 note=38 velocity=0 time=7
note_on channel=0 note=50 velocity=0 time=153
note_on channel=0 note=59 velocity=0 time=0
note_on channel=0 note=58 velocity=46 time=0
note_on channel=0 note=51 velocity=61 time=0
note_on channel=0 note=51 velocity=0 time=160
note_on channel=0 note=58 velocity=0 time=0
note_on channel=0 note=56 velocity=46 time=0
note_on channel=0 note=53 velocity=64 time=0
note_on channel=0 note=53 velocity=0 time=150
<meta message set_tempo tempo=507786 time=10>
note_on channel=0 note=56 velocity=0 time=0
note_on channel=0 note=65 velocity=0 time=0
note_on channel=0 note=63 velocity=75 time=0
note_on channel=0 note=41 velocity=64 time=0
note_on channel=0 note=53 velocity=73 time=0
control_change channel=0 control=64 value=0 time=11
<meta message set_tempo tempo=505860 time=59>
<meta message set_tempo tempo=503948 time=60>
control_change channel=0 control=64 value=127 time=18
note_on channel=0 note=56 velocity=56 time=12
<meta message set_tempo tempo=502050 time=30>
<meta message set_tempo tempo=500167 time=60>
<meta message set_tempo tempo=498297 time=60>
note_on channel=0 note=56 velocity=0 time=10
note_on channel=0 note=58 velocity=56 time=0
<meta message set_tempo tempo=496442 time=70>
<meta message set_tempo tempo=494601 time=60>
note_on channel=0 note=58 velocity=0 time=30
note_on channel=0 note=63 velocity=0 time=0
note_on channel=0 note=62 velocity=68 time=0
note_on channel=0 note=59 velocity=46 time=0
<meta message set_tempo tempo=492773 time=30>
<meta message set_tempo tempo=490918 time=60>
<meta message set_tempo tempo=489117 time=60>
note_on channel=0 note=59 velocity=0 time=10
note_on channel=0 note=58 velocity=47 time=0
<meta message set_tempo tempo=487329 time=70>
<meta message set_tempo tempo=485555 time=60>
note_on channel=0 note=58 velocity=0 time=30
note_on channel=0 note=56 velocity=47 time=0
<meta message set_tempo tempo=483793 time=30>
<meta message set_tempo tempo=482044 time=60>
<meta message set_tempo tempo=480307 time=60>
note_on channel=0 note=56 velocity=0 time=10
note_on channel=0 note=58 velocity=56 time=0
note_on channel=0 note=58 velocity=0 time=160
note_on channel=0 note=56 velocity=41 time=0
note_on channel=0 note=56 velocity=0 time=160
note_on channel=0 note=58 velocity=39 time=0
<meta message set_tempo tempo=485555 time=80>
<meta message set_tempo tempo=483793 time=60>
<meta message set_tempo tempo=500167 time=20>
note_on channel=0 note=58 velocity=0 time=0
note_on channel=0 note=53 velocity=0 time=0
note_on channel=0 note=41 velocity=0 time=0
note_on channel=0 note=59 velocity=49 time=0
note_on channel=0 note=41 velocity=56 time=0
note_on channel=0 note=59 velocity=0 time=160
note_on channel=0 note=58 velocity=37 time=0
note_on channel=0 note=58 velocity=0 time=160
note_on channel=0 note=56 velocity=35 time=0
note_on channel=0 note=56 velocity=0 time=160
note_on channel=0 note=41 velocity=0 time=0
note_on channel=0 note=62 velocity=0 time=0
note_on channel=0 note=65 velocity=45 time=0
note_on channel=0 note=42 velocity=40 time=0
control_change channel=0 control=64 value=0 time=0
<meta message set_tempo tempo=487329 time=6>
control_change channel=0 control=64 value=127 time=65
note_on channel=0 note=54 velocity=30 time=89
note_on channel=0 note=54 velocity=0 time=160
note_on channel=0 note=58 velocity=24 time=0
note_on channel=0 note=58 velocity=0 time=160
note_on channel=0 note=65 velocity=0 time=0
note_on channel=0 note=63 velocity=44 time=0
<meta message set_tempo tempo=496442 time=6>
note_on channel=0 note=54 velocity=29 time=154
note_on channel=0 note=54 velocity=0 time=160
note_on channel=0 note=58 velocity=24 time=0
note_on channel=0 note=58 velocity=0 time=160
note_on channel=0 note=63 velocity=0 time=0
note_on channel=0 note=42 velocity=0 time=0
note_on channel=0 note=66 velocity=47 time=0
note_on channel=0 note=38 velocity=40 time=0
<meta message set_tempo tempo=487329 time=6>
control_change channel=0 control=64 value=0 time=2
control_change channel=0 control=64 value=127 time=119
note_on channel=0 note=38 velocity=0 time=10
note_on channel=0 note=39 velocity=36 time=0
note_on channel=0 note=56 velocity=30 time=23
note_on channel=0 note=38 velocity=40 time=114
note_on channel=0 note=39 velocity=0 time=0
note_on channel=0 note=56 velocity=0 time=46
note_on channel=0 note=59 velocity=24 time=0
note_on channel=0 note=38 velocity=0 time=91
note_on channel=0 note=39 velocity=36 time=0
note_on channel=0 note=59 velocity=0 time=69
note_on channel=0 note=66 velocity=0 time=0
note_on channel=0 note=65 velocity=44 time=0
<meta message set_tempo tempo=494601 time=6>
note_on channel=0 note=38 velocity=40 time=61
note_on channel=0 note=39 velocity=0 time=1
note_on channel=0 note=56 velocity=35 time=92
note_on channel=0 note=38 velocity=0 time=44
note_on channel=0 note=36 velocity=35 time=0
note_on channel=0 note=56 velocity=0 time=116
note_on channel=0 note=59 velocity=30 time=0
note_on channel=0 note=36 velocity=0 time=21
note_on channel=0 note=38 velocity=36 time=0
note_on channel=0 note=38 velocity=0 time=139
note_on channel=0 note=59 velocity=0 time=0
note_on channel=0 note=65 velocity=0 time=0
note_on channel=0 note=68 velocity=54 time=0
note_on channel=0 note=39 velocity=49 time=0
<meta message set_tempo tempo=483793 time=6>
control_change channel=0 control=64 value=0 time=7
control_change channel=0 control=64 value=127 time=121
note_on channel=0 note=58 velocity=37 time=26
note_on channel=0 note=58 velocity=0 time=160
note_on channel=0 note=63 velocity=30 time=0
note_on channel=0 note=63 velocity=0 time=160
note_on channel=0 note=68 velocity=0 time=0
note_on channel=0 note=66 velocity=47 time=0
<meta message set_tempo tempo=494601 time=6>
note_on channel=0 note=58 velocity=30 time=154
note_on channel=0 note=58 velocity=0 time=160
note_on channel=0 note=63 velocity=26 time=0
note_on channel=0 note=63 velocity=0 time=160
note_on channel=0 note=66 velocity=0 time=0
note_on channel=0 note=39 velocity=0 time=0
note_on channel=0 note=64 velocity=50 time=0
note_on channel=0 note=32 velocity=40 time=0
<meta message set_tempo tempo=490918 time=6>
control_change channel=0 control=64 value=0 time=6
control_change channel=0 control=64 value=127 time=129
note_on channel=0 note=56 velocity=29 time=19
note_on channel=0 note=56 velocity=0 time=160
note_on channel=0 note=59 velocity=24 time=0
note_on channel=0 note=71 velocity=45 time=146
note_on channel=0 note=59 velocity=0 time=14
note_on channel=0 note=64 velocity=0 time=0
<meta message set_tempo tempo=496442 time=26>
note_on channel=0 note=59 velocity=29 time=134
note_on channel=0 note=59 velocity=0 time=160
note_on channel=0 note=64 velocity=25 time=0
note_on channel=0 note=71 velocity=0 time=146
<meta message set_tempo tempo=507786 time=14>
note_on channel=0 note=64 velocity=0 time=0
note_on channel=0 note=32 velocity=0 time=0
note_on channel=0 note=63 velocity=30 time=0
note_on channel=0 note=34 velocity=29 time=0
control_change channel=0 control=64 value=0 time=0
<meta message set_tempo tempo=505860 time=70>
control_change channel=0 control=64 value=127 time=22
<meta message set_tempo tempo=503948 time=38>
note_on channel=0 note=51 velocity=20 time=30
<meta message set_tempo tempo=502050 time=30>
<meta message set_tempo tempo=500167 time=60>
<meta message set_tempo tempo=498297 time=60>
note_on channel=0 note=51 velocity=0 time=10
note_on channel=0 note=54 velocity=20 time=0
<meta message set_tempo tempo=496442 time=70>
<meta message set_tempo tempo=494601 time=60>
note_on channel=0 note=54 velocity=0 time=30
note_on channel=0 note=58 velocity=22 time=0
<meta message set_tempo tempo=492773 time=30>
<meta message set_tempo tempo=490918 time=60>
<meta message set_tempo tempo=489117 time=60>
note_on channel=0 note=58 velocity=0 time=10
note_on channel=0 note=54 velocity=20 time=0
<meta message set_tempo tempo=487329 time=70>
<meta message set_tempo tempo=485555 time=60>
note_on channel=0 note=54 velocity=0 time=30
note_on channel=0 note=51 velocity=20 time=0
<meta message set_tempo tempo=483793 time=30>
<meta message set_tempo tempo=482044 time=60>
<meta message set_tempo tempo=480307 time=60>
note_on channel=0 note=51 velocity=0 time=10
note_on channel=0 note=54 velocity=25 time=0
note_on channel=0 note=54 velocity=0 time=160
note_on channel=0 note=34 velocity=0 time=0
note_on channel=0 note=51 velocity=28 time=0
note_on channel=0 note=33 velocity=25 time=0
note_on channel=0 note=33 velocity=0 time=160
note_on channel=0 note=51 velocity=0 time=0
note_on channel=0 note=54 velocity=28 time=0
note_on channel=0 note=34 velocity=25 time=0
<meta message set_tempo tempo=485555 time=80>
<meta message set_tempo tempo=483793 time=60>
<meta message set_tempo tempo=483793 time=20>
note_on channel=0 note=34 velocity=0 time=0
note_on channel=0 note=54 velocity=0 time=0
note_on channel=0 note=63 velocity=0 time=0
note_on channel=0 note=58 velocity=34 time=0
note_on channel=0 note=35 velocity=29 time=0
note_on channel=0 note=35 velocity=0 time=160
note_on channel=0 note=58 velocity=0 time=0
note_on channel=0 note=54 velocity=37 time=0
note_on channel=0 note=34 velocity=25 time=0
note_on channel=0 note=34 velocity=0 time=160
note_on channel=0 note=54 velocity=0 time=0
note_on channel=0 note=51 velocity=40 time=0
note_on channel=0 note=33 velocity=25 time=0
<meta message set_tempo tempo=478583 time=160>
note_on channel=0 note=33 velocity=0 time=0
note_on channel=0 note=51 velocity=0 time=0
note_on channel=0 note=62 velocity=49 time=0
note_on channel=0 note=34 velocity=29 time=0
control_change channel=0 control=64 value=0 time=11
control_change channel=0 control=64 value=127 time=74
note_on channel=0 note=50 velocity=41 time=75
note_on channel=0 note=50 velocity=0 time=160
note_on channel=0 note=53 velocity=38 time=0
<meta message set_tempo tempo=473447 time=160>
note_on channel=0 note=53 velocity=0 time=0
note_on channel=0 note=58 velocity=40 time=0
note_on channel=0 note=58 velocity=0 time=160
note_on channel=0 note=53 velocity=35 time=0
note_on channel=0 note=53 velocity=0 time=160
note_on channel=0 note=50 velocity=36 time=0
<meta message set_tempo tempo=468457 time=160>
note_on channel=0 note=50 velocity=0 time=0
note_on channel=0 note=34 velocity=0 time=0
note_on channel=0 note=62 velocity=0 time=0
note_on channel=0 note=53 velocity=40 time=0
note_on channel=0 note=32 velocity=29 time=0
note_on channel=0 note=53 velocity=0 time=160
note_on channel=0 note=50 velocity=35 time=0
note_on channel=0 note=50 velocity=0 time=160
note_on channel=0 note=53 velocity=35 time=0
<meta message set_tempo tempo=492773 time=160>
note_on channel=0 note=53 velocity=0 time=0
note_on channel=0 note=58 velocity=40 time=0
note_on channel=0 note=58 velocity=0 time=160
note_on channel=0 note=53 velocity=35 time=0
note_on channel=0 note=53 velocity=0 time=160
note_on channel=0 note=50 velocity=36 time=0
<meta message set_tempo tempo=521739 time=160>
note_on channel=0 note=50 velocity=0 time=0
note_on channel=0 note=32 velocity=0 time=0
note_on channel=0 note=70 velocity=47 time=0
note_on channel=0 note=31 velocity=29 time=0
note_on channel=0 note=43 velocity=35 time=0
control_change channel=0 control=64 value=0 time=0
<meta message set_tempo tempo=519706 time=50>
<meta message set_tempo tempo=517688 time=40>
control_change channel=0 control=64 value=127 time=37
<meta message set_tempo tempo=515685 time=3>
note_on channel=0 note=58 velocity=32 time=30
<meta message set_tempo tempo=513699 time=30>
<meta message set_tempo tempo=511727 time=40>
<meta message set_tempo tempo=509727 time=40>
note_on channel=0 note=58 velocity=0 time=50
note_on channel=0 note=63 velocity=32 time=0
<meta message set_tempo tempo=507786 time=10>
<meta message set_tempo tempo=505860 time=40>
<meta message set_tempo tempo=503948 time=40>
<meta message set_tempo tempo=502050 time=60>
note_on channel=0 note=63 velocity=0 time=10
note_on channel=0 note=67 velocity=37 time=0
<meta message set_tempo tempo=500167 time=30>
<meta message set_tempo tempo=498297 time=40>
<meta message set_tempo tempo=496442 time=60>
note_on channel=0 note=67 velocity=0 time=30
note_on channel=0 note=63 velocity=32 time=0
<meta message set_tempo tempo=494601 time=10>
<meta message set_tempo tempo=492773 time=40>
<meta message set_tempo tempo=490918 time=60>
<meta message set_tempo tempo=489117 time=40>
note_on channel=0 note=63 velocity=0 time=10
note_on channel=0 note=58 velocity=33 time=0
<meta message set_tempo tempo=487329 time=30>
<meta message set_tempo tempo=485555 time=60>
<meta message set_tempo tempo=483793 time=40>
note_on channel=0 note=58 velocity=0 time=30
note_on channel=0 note=63 velocity=35 time=0
note_on channel=0 note=63 velocity=0 time=160
note_on channel=0 note=58 velocity=31 time=0
note_on channel=0 note=58 velocity=0 time=160
note_on channel=0 note=63 velocity=31 time=0
<meta message set_tempo tempo=485555 time=80>
<meta message set_tempo tempo=483793 time=60>
<meta message set_tempo tempo=483793 time=20>
note_on channel=0 note=63 velocity=0 time=0
note_on channel=0 note=67 velocity=36 time=0
note_on channel=0 note=67 velocity=0 time=160
note_on channel=0 note=63 velocity=30 time=0
note_on channel=0 note=63 velocity=0 time=160
note_on channel=0 note=58 velocity=30 time=0
<meta message set_tempo tempo=476872 time=160>
note_on channel=0 note=58 velocity=0 time=0
note_on channel=0 note=70 velocity=0 time=0
note_on channel=0 note=31 velocity=0 time=0
note_on channel=0 note=43 velocity=0 time=0
note_on channel=0 note=70 velocity=50 time=0
note_on channel=0 note=41 velocity=35 time=0
control_change channel=0 control=64 value=0 time=15
control_change channel=0 control=64 value=127 time=98
note_on channel=0 note=58 velocity=29 time=47
note_on channel=0 note=58 velocity=0 time=160
note_on channel=0 note=62 velocity=29 time=0
<meta message set_tempo tempo=483793 time=160>
note_on channel=0 note=62 velocity=0 time=0
note_on channel=0 note=70 velocity=0 time=0
note_on channel=0 note=68 velocity=38 time=0
note_on channel=0 note=68 velocity=0 time=160
note_on channel=0 note=62 velocity=28 time=0
note_on channel=0 note=62 velocity=0 time=160
note_on channel=0 note=58 velocity=28 time=0
<meta message set_tempo tempo=489117 time=160>
note_on channel=0 note=58 velocity=0 time=0
note_on channel=0 note=72 velocity=42 time=0
note_on channel=0 note=62 velocity=28 time=160
note_on channel=0 note=62 velocity=0 time=160
note_on channel=0 note=68 velocity=28 time=0
<meta message set_tempo tempo=525855 time=160>
note_on channel=0 note=68 velocity=0 time=0
note_on channel=0 note=72 velocity=0 time=0
note_on channel=0 note=70 velocity=39 time=0
note_on channel=0 note=68 velocity=28 time=160
note_on channel=0 note=68 velocity=0 time=160
note_on channel=0 note=62 velocity=28 time=0
<meta message set_tempo tempo=507786 time=150>
<meta message set_tempo tempo=507786 time=10>
note_on channel=0 note=62 velocity=0 time=0
note_on channel=0 note=70 velocity=0 time=0
note_on channel=0 note=41 velocity=0 time=0
note_on channel=0 note=79 velocity=41 time=0
note_on channel=0 note=39 velocity=37 time=0
control_change channel=0 control=64 value=0 time=0
control_change channel=0 control=64 value=0 time=2
<meta message set_tempo tempo=505860 time=68>
control_change channel=0 control=64 value=127 time=10
<meta message set_tempo tempo=503948 time=50>
note_on channel=0 note=67 velocity=25 time=30
<meta message set_tempo tempo=502050 time=30>
<meta message set_tempo tempo=500167 time=60>
<meta message set_tempo tempo=498297 time=60>
note_on channel=0 note=67 velocity=0 time=10
note_on channel=0 note=70 velocity=25 time=0
<meta message set_tempo tempo=496442 time=70>
<meta message set_tempo tempo=494601 time=60>
note_on channel=0 note=70 velocity=0 time=30
note_on channel=0 note=75 velocity=31 time=0
<meta message set_tempo tempo=492773 time=30>
<meta message set_tempo tempo=490918 time=60>
<meta message set_tempo tempo=489117 time=60>
note_on channel=0 note=75 velocity=0 time=10
note_on channel=0 note=70 velocity=25 time=0
<meta message set_tempo tempo=487329 time=70>
<meta message set_tempo tempo=485555 time=60>
note_on channel=0 note=70 velocity=0 time=30
note_on channel=0 note=67 velocity=25 time=0
<meta message set_tempo tempo=483793 time=30>
<meta message set_tempo tempo=482044 time=60>
<meta message set_tempo tempo=480307 time=60>
note_on channel=0 note=67 velocity=0 time=10
note_on channel=0 note=70 velocity=28 time=0
note_on channel=0 note=70 velocity=0 time=160
note_on channel=0 note=67 velocity=25 time=0
<meta message set_tempo tempo=515685 time=80>
note_on channel=0 note=67 velocity=0 time=80
note_on channel=0 note=70 velocity=28 time=0
<meta message set_tempo tempo=483793 time=140>
<meta message set_tempo tempo=482044 time=20>
note_on channel=0 note=70 velocity=0 time=0
note_on channel=0 note=79 velocity=0 time=0
note_on channel=0 note=77 velocity=31 time=0
note_on channel=0 note=71 velocity=23 time=160
note_on channel=0 note=71 velocity=0 time=160
note_on channel=0 note=67 velocity=23 time=0
<meta message set_tempo tempo=487329 time=160>
note_on channel=0 note=67 velocity=0 time=0
note_on channel=0 note=77 velocity=0 time=0
note_on channel=0 note=39 velocity=0 time=0
note_on channel=0 note=77 velocity=37 time=0
note_on channel=0 note=44 velocity=33 time=0
control_change channel=0 control=64 value=0 time=15
control_change channel=0 control=64 value=0 time=0
control_change channel=0 control=64 value=127 time=94
control_change channel=0 control=64 value=127 time=4
note_on channel=0 note=72 velocity=25 time=47
note_on channel=0 note=72 velocity=0 time=160
note_on channel=0 note=63 velocity=23 time=0
note_on channel=0 note=63 velocity=0 time=160
note_on channel=0 note=77 velocity=0 time=0
note_on channel=0 note=75 velocity=36 time=0
note_on channel=0 note=72 velocity=22 time=160
note_on channel=0 note=72 velocity=0 time=160
note_on channel=0 note=63 velocity=22 time=0
<meta message set_tempo tempo=489117 time=160>
note_on channel=0 note=63 velocity=0 time=0
note_on channel=0 note=75 velocity=0 time=0
note_on channel=0 note=72 velocity=35 time=0
control_change channel=0 control=64 value=0 time=12
control_change channel=0 control=64 value=127 time=94
note_on channel=0 note=68 velocity=23 time=54
note_on channel=0 note=68 velocity=0 time=160
note_on channel=0 note=63 velocity=23 time=0
<meta message set_tempo tempo=517688 time=160>
note_on channel=0 note=63 velocity=0 time=0
note_on channel=0 note=72 velocity=0 time=0
note_on channel=0 note=68 velocity=31 time=0
note_on channel=0 note=65 velocity=22 time=160
note_on channel=0 note=65 velocity=0 time=160
note_on channel=0 note=60 velocity=22 time=0
note_on channel=0 note=60 velocity=0 time=160
note_on channel=0 note=68 velocity=0 time=0
note_on channel=0 note=44 velocity=0 time=0
note_on channel=0 note=67 velocity=39 time=0
note_on channel=0 note=46 velocity=35 time=0
control_change channel=0 control=64 value=0 time=0
control_change channel=0 control=64 value=0 time=0
<meta message set_tempo tempo=505860 time=70>
control_change channel=0 control=64 value=127 time=57
control_change channel=0 control=64 value=127 time=0
<meta message set_tempo tempo=503948 time=3>
note_on channel=0 note=55 velocity=24 time=30
<meta message set_tempo tempo=502050 time=30>
<meta message set_tempo tempo=500167 time=60>
<meta message set_tempo tempo=498297 time=60>
note_on channel=0 note=55 velocity=0 time=10
note_on channel=0 note=58 velocity=24 time=0
<meta message set_tempo tempo=496442 time=70>
<meta message set_tempo tempo=494601 time=60>
note_on channel=0 note=58 velocity=0 time=30
note_on channel=0 note=63 velocity=29 time=0
<meta message set_tempo tempo=492773 time=30>
<meta message set_tempo tempo=490918 time=60>
<meta message set_tempo tempo=489117 time=60>
note_on channel=0 note=63 velocity=0 time=10
note_on channel=0 note=58 velocity=25 time=0
<meta message set_tempo tempo=487329 time=70>
<meta message set_tempo tempo=485555 time=60>
note_on channel=0 note=58 velocity=0 time=30
note_on channel=0 note=55 velocity=25 time=0
<meta message set_tempo tempo=483793 time=30>
<meta message set_tempo tempo=482044 time=60>
<meta message set_tempo tempo=480307 time=60>
note_on channel=0 note=55 velocity=0 time=10
note_on channel=0 note=58 velocity=29 time=0
note_on channel=0 note=58 velocity=0 time=160
note_on channel=0 note=55 velocity=24 time=0
note_on channel=0 note=55 velocity=0 time=160
note_on channel=0 note=58 velocity=24 time=0
<meta message set_tempo tempo=485555 time=80>
<meta message set_tempo tempo=483793 time=60>
<meta message set_tempo tempo=483793 time=20>
note_on channel=0 note=58 velocity=0 time=0
note_on channel=0 note=67 velocity=0 time=0
note_on channel=0 note=63 velocity=38 time=0
note_on channel=0 note=67 velocity=38 time=0
note_on channel=0 note=63 velocity=0 time=160
note_on channel=0 note=58 velocity=25 time=0
note_on channel=0 note=58 velocity=0 time=160
note_on channel=0 note=55 velocity=25 time=0
<meta message set_tempo tempo=487329 time=160>
note_on channel=0 note=55 velocity=0 time=0
note_on channel=0 note=67 velocity=0 time=0
note_on channel=0 note=46 velocity=0 time=0
note_on channel=0 note=72 velocity=36 time=0
note_on channel=0 note=53 velocity=35 time=0
note_on channel=0 note=46 velocity=29 time=0
control_change channel=0 control=64 value=0 time=15
control_change channel=0 control=64 value=0 time=0
control_change channel=0 control=64 value=127 time=98
control_change channel=0 control=64 value=127 time=0
note_on channel=0 note=62 velocity=26 time=47
note_on channel=0 note=62 velocity=0 time=160
note_on channel=0 note=65 velocity=26 time=0
note_on channel=0 note=65 velocity=0 time=160
note_on channel=0 note=72 velocity=0 time=0
note_on channel=0 note=70 velocity=36 time=0
note_on channel=0 note=62 velocity=22 time=160
note_on channel=0 note=62 velocity=0 time=160
note_on channel=0 note=65 velocity=22 time=0
<meta message set_tempo tempo=489117 time=160>
note_on channel=0 note=65 velocity=0 time=0
note_on channel=0 note=70 velocity=0 time=0
note_on channel=0 note=68 velocity=33 time=0
control_change channel=0 control=64 value=0 time=12
control_change channel=0 control=64 value=0 time=0
control_change channel=0 control=64 value=127 time=94
control_change channel=0 control=64 value=127 time=0
note_on channel=0 note=58 velocity=24 time=54
note_on channel=0 note=58 velocity=0 time=160
note_on channel=0 note=62 velocity=24 time=0
<meta message set_tempo tempo=517688 time=160>
note_on channel=0 note=62 velocity=0 time=0
note_on channel=0 note=68 velocity=0 time=0
note_on channel=0 note=53 velocity=0 time=0
note_on channel=0 note=65 velocity=33 time=0
note_on channel=0 note=56 velocity=35 time=0
note_on channel=0 note=58 velocity=22 time=160
note_on channel=0 note=58 velocity=0 time=160
note_on channel=0 note=62 velocity=22 time=0
<meta message set_tempo tempo=507786 time=160>
note_on channel=0 note=62 velocity=0 time=0
note_on channel=0 note=56 velocity=0 time=0
note_on channel=0 note=65 velocity=0 time=0
note_on channel=0 note=46 velocity=0 time=0
note_on channel=0 note=63 velocity=30 time=0
note_on channel=0 note=39 velocity=29 time=0
control_change channel=0 control=64 value=0 time=0
control_change channel=0 control=64 value=0 time=0
<meta message set_tempo tempo=505860 time=70>
control_change channel=0 control=64 value=127 time=22
<meta message set_tempo tempo=503948 time=38>
note_on channel=0 note=51 velocity=20 time=30
<meta message set_tempo tempo=502050 time=30>
<meta message set_tempo tempo=500167 time=60>
<meta message set_tempo tempo=498297 time=60>
note_on channel=0 note=51 velocity=0 time=10
note_on channel=0 note=55 velocity=20 time=0
<meta message set_tempo tempo=496442 time=70>
<meta message set_tempo tempo=494601 time=60>
note_on channel=0 note=55 velocity=0 time=30
note_on channel=0 note=58 velocity=22 time=0
<meta message set_tempo tempo=492773 time=30>
<meta message set_tempo tempo=490918 time=60>
<meta message set_tempo tempo=489117 time=60>
note_on channel=0 note=58 velocity=0 time=10
note_on channel=0 note=55 velocity=20 time=0
<meta message set_tempo tempo=487329 time=70>
<meta message set_tempo tempo=485555 time=60>
note_on channel=0 note=55 velocity=0 time=30
note_on channel=0 note=51 velocity=20 time=0
<meta message set_tempo tempo=483793 time=30>
<meta message set_tempo tempo=482044 time=60>
<meta message set_tempo tempo=480307 time=60>
note_on channel=0 note=51 velocity=0 time=10
note_on channel=0 note=55 velocity=21 time=0
note_on channel=0 note=55 velocity=0 time=160
note_on channel=0 note=51 velocity=20 time=0
note_on channel=0 note=51 velocity=0 time=160
note_on channel=0 note=55 velocity=22 time=0
<meta message set_tempo tempo=485555 time=80>
<meta message set_tempo tempo=483793 time=60>
<meta message set_tempo tempo=483793 time=20>
note_on channel=0 note=55 velocity=0 time=0
note_on channel=0 note=63 velocity=0 time=0
note_on channel=0 note=58 velocity=22 time=0
note_on channel=0 note=58 velocity=0 time=160
note_on channel=0 note=55 velocity=22 time=0
note_on channel=0 note=55 velocity=0 time=160
note_on channel=0 note=51 velocity=22 time=0
<meta message set_tempo tempo=507786 time=160>
note_on channel=0 note=51 velocity=0 time=0
note_on channel=0 note=39 velocity=0 time=0
note_on channel=0 note=63 velocity=30 time=0
note_on channel=0 note=37 velocity=35 time=0
control_change channel=0 control=64 value=0 time=10
<meta message set_tempo tempo=505860 time=60>
control_change channel=0 control=64 value=127 time=22
<meta message set_tempo tempo=503948 time=38>
note_on channel=0 note=51 velocity=20 time=30
<meta message set_tempo tempo=502050 time=30>
<meta message set_tempo tempo=500167 time=60>
<meta message set_tempo tempo=498297 time=60>
note_on channel=0 note=51 velocity=0 time=10
note_on channel=0 note=55 velocity=20 time=0
<meta message set_tempo tempo=496442 time=70>
<meta message set_tempo tempo=494601 time=60>
note_on channel=0 note=55 velocity=0 time=30
note_on channel=0 note=58 velocity=22 time=0
<meta message set_tempo tempo=492773 time=30>
<meta message set_tempo tempo=490918 time=60>
<meta message set_tempo tempo=489117 time=60>
note_on channel=0 note=58 velocity=0 time=10
note_on channel=0 note=55 velocity=20 time=0
<meta message set_tempo tempo=487329 time=70>
<meta message set_tempo tempo=485555 time=60>
note_on channel=0 note=55 velocity=0 time=30
note_on channel=0 note=51 velocity=20 time=0
<meta message set_tempo tempo=483793 time=30>
<meta message set_tempo tempo=482044 time=60>
<meta message set_tempo tempo=480307 time=60>
note_on channel=0 note=51 velocity=0 time=10
note_on channel=0 note=55 velocity=21 time=0
control_change channel=0 control=64 value=0 time=14
control_change channel=0 control=64 value=127 time=123
note_on channel=0 note=55 velocity=0 time=23
note_on channel=0 note=51 velocity=20 time=0
note_on channel=0 note=51 velocity=0 time=160
note_on channel=0 note=55 velocity=22 time=0
<meta message set_tempo tempo=485555 time=80>
<meta message set_tempo tempo=483793 time=60>
<meta message set_tempo tempo=483793 time=20>
note_on channel=0 note=55 velocity=0 time=0
note_on channel=0 note=37 velocity=0 time=0
note_on channel=0 note=63 velocity=0 time=0
note_on channel=0 note=58 velocity=22 time=0
note_on channel=0 note=40 velocity=24 time=0
note_on channel=0 note=40 velocity=0 time=160
note_on channel=0 note=58 velocity=0 time=0
note_on channel=0 note=55 velocity=22 time=0
note_on channel=0 note=39 velocity=28 time=0
note_on channel=0 note=39 velocity=0 time=160
note_on channel=0 note=55 velocity=0 time=0
note_on channel=0 note=51 velocity=22 time=0
note_on channel=0 note=37 velocity=31 time=0
<meta message set_tempo tempo=507786 time=160>
note_on channel=0 note=37 velocity=0 time=0
note_on channel=0 note=51 velocity=0 time=0
note_on channel=0 note=63 velocity=30 time=0
note_on channel=0 note=35 velocity=29 time=0
control_change channel=0 control=64 value=0 time=0
<meta message set_tempo tempo=505860 time=70>
control_change channel=0 control=64 value=127 time=22
<meta message set_tempo tempo=503948 time=38>
note_on channel=0 note=51 velocity=20 time=30
<meta message set_tempo tempo=502050 time=30>
<meta message set_tempo tempo=500167 time=60>
<meta message set_tempo tempo=498297 time=60>
note_on channel=0 note=51 velocity=0 time=10
note_on channel=0 note=56 velocity=20 time=0
<meta message set_tempo tempo=496442 time=70>
<meta message set_tempo tempo=494601 time=60>
note_on channel=0 note=56 velocity=0 time=30
note_on channel=0 note=59 velocity=22 time=0
<meta message set_tempo tempo=492773 time=30>
<meta message set_tempo tempo=490918 time=60>
<meta message set_tempo tempo=489117 time=60>
note_on channel=0 note=59 velocity=0 time=10
note_on channel=0 note=56 velocity=20 time=0
<meta message set_tempo tempo=487329 time=70>
<meta message set_tempo tempo=485555 time=60>
note_on channel=0 note=56 velocity=0 time=30
note_on channel=0 note=51 velocity=20 time=0
<meta message set_tempo tempo=483793 time=30>
<meta message set_tempo tempo=482044 time=60>
<meta message set_tempo tempo=480307 time=60>
note_on channel=0 note=51 velocity=0 time=10
note_on channel=0 note=56 velocity=21 time=0
note_on channel=0 note=56 velocity=0 time=160
note_on channel=0 note=51 velocity=20 time=0
note_on channel=0 note=51 velocity=0 time=160
note_on channel=0 note=56 velocity=22 time=0
<meta message set_tempo tempo=485555 time=80>
<meta message set_tempo tempo=483793 time=60>
<meta message set_tempo tempo=483793 time=20>
note_on channel=0 note=56 velocity=0 time=0
note_on channel=0 note=63 velocity=0 time=0
note_on channel=0 note=59 velocity=22 time=0
note_on channel=0 note=59 velocity=0 time=160
note_on channel=0 note=56 velocity=22 time=0
note_on channel=0 note=56 velocity=0 time=160
note_on channel=0 note=51 velocity=22 time=0
<meta message set_tempo tempo=507786 time=160>
note_on channel=0 note=51 velocity=0 time=0
note_on channel=0 note=35 velocity=0 time=0
note_on channel=0 note=63 velocity=30 time=0
note_on channel=0 note=34 velocity=35 time=0
control_change channel=0 control=64 value=0 time=10
<meta message set_tempo tempo=505860 time=60>
control_change channel=0 control=64 value=127 time=22
<meta message set_tempo tempo=503948 time=38>
note_on channel=0 note=51 velocity=20 time=30
<meta message set_tempo tempo=502050 time=30>
<meta message set_tempo tempo=500167 time=60>
<meta message set_tempo tempo=498297 time=60>
note_on channel=0 note=51 velocity=0 time=10
note_on channel=0 note=55 velocity=20 time=0
<meta message set_tempo tempo=496442 time=70>
<meta message set_tempo tempo=494601 time=60>
note_on channel=0 note=55 velocity=0 time=30
note_on channel=0 note=61 velocity=22 time=0
<meta message set_tempo tempo=492773 time=30>
<meta message set_tempo tempo=490918 time=60>
<meta message set_tempo tempo=489117 time=60>
note_on channel=0 note=61 velocity=0 time=10
note_on channel=0 note=55 velocity=20 time=0
<meta message set_tempo tempo=487329 time=70>
<meta message set_tempo tempo=485555 time=60>
note_on channel=0 note=55 velocity=0 time=30
note_on channel=0 note=51 velocity=20 time=0
<meta message set_tempo tempo=483793 time=30>
<meta message set_tempo tempo=482044 time=60>
<meta message set_tempo tempo=480307 time=60>
note_on channel=0 note=51 velocity=0 time=10
note_on channel=0 note=55 velocity=21 time=0
note_on channel=0 note=55 velocity=0 time=160
note_on channel=0 note=34 velocity=0 time=0
note_on channel=0 note=51 velocity=20 time=0
note_on channel=0 note=35 velocity=24 time=0
note_on channel=0 note=35 velocity=0 time=160
note_on channel=0 note=51 velocity=0 time=0
note_on channel=0 note=55 velocity=22 time=0
note_on channel=0 note=34 velocity=24 time=0
<meta message set_tempo tempo=485555 time=80>
<meta message set_tempo tempo=483793 time=60>
<meta message set_tempo tempo=483793 time=20>
note_on channel=0 note=34 velocity=0 time=0
note_on channel=0 note=55 velocity=0 time=0
note_on channel=0 note=63 velocity=0 time=0
note_on channel=0 note=61 velocity=22 time=0
note_on channel=0 note=37 velocity=27 time=0
note_on channel=0 note=37 velocity=0 time=160
note_on channel=0 note=61 velocity=0 time=0
note_on channel=0 note=55 velocity=22 time=0
note_on channel=0 note=35 velocity=24 time=0
note_on channel=0 note=35 velocity=0 time=160
note_on channel=0 note=55 velocity=0 time=0
note_on channel=0 note=51 velocity=22 time=0
note_on channel=0 note=34 velocity=24 time=0
<meta message set_tempo tempo=507786 time=160>
note_on channel=0 note=34 velocity=0 time=0
note_on channel=0 note=51 velocity=0 time=0
note_on channel=0 note=63 velocity=30 time=0
note_on channel=0 note=32 velocity=29 time=0
control_change channel=0 control=64 value=0 time=0
<meta message set_tempo tempo=505860 time=70>
control_change channel=0 control=64 value=127 time=22
<meta message set_tempo tempo=503948 time=38>
note_on channel=0 note=51 velocity=20 time=30
<meta message set_tempo tempo=502050 time=30>
<meta message set_tempo tempo=500167 time=60>
<meta message set_tempo tempo=498297 time=60>
note_on channel=0 note=51 velocity=0 time=10
note_on channel=0 note=56 velocity=20 time=0
<meta message set_tempo tempo=496442 time=70>
<meta message set_tempo tempo=494601 time=60>
note_on channel=0 note=56 velocity=0 time=30
note_on channel=0 note=59 velocity=22 time=0
<meta message set_tempo tempo=492773 time=30>
<meta message set_tempo tempo=490918 time=60>
<meta message set_tempo tempo=489117 time=60>
note_on channel=0 note=59 velocity=0 time=10
note_on channel=0 note=56 velocity=20 time=0
<meta message set_tempo tempo=487329 time=70>
<meta message set_tempo tempo=485555 time=60>
note_on channel=0 note=56 velocity=0 time=30
note_on channel=0 note=51 velocity=20 time=0
<meta message set_tempo tempo=483793 time=30>
<meta message set_tempo tempo=482044 time=60>
<meta message set_tempo tempo=480307 time=60>
note_on channel=0 note=51 velocity=0 time=10
note_on channel=0 note=56 velocity=21 time=0
note_on channel=0 note=56 velocity=0 time=160
note_on channel=0 note=51 velocity=20 time=0
note_on channel=0 note=51 velocity=0 time=160
note_on channel=0 note=56 velocity=22 time=0
<meta message set_tempo tempo=485555 time=80>
<meta message set_tempo tempo=483793 time=60>
<meta message set_tempo tempo=483793 time=20>
note_on channel=0 note=56 velocity=0 time=0
note_on channel=0 note=63 velocity=0 time=0
note_on channel=0 note=59 velocity=22 time=0
note_on channel=0 note=59 velocity=0 time=160
note_on channel=0 note=56 velocity=22 time=0
note_on channel=0 note=56 velocity=0 time=160
note_on channel=0 note=51 velocity=22 time=0
<meta message set_tempo tempo=507786 time=160>
note_on channel=0 note=51 velocity=0 time=0
note_on channel=0 note=32 velocity=0 time=0
note_on channel=0 note=68 velocity=36 time=0
note_on channel=0 note=30 velocity=22 time=0
control_change channel=0 control=64 value=0 time=10
<meta message set_tempo tempo=505860 time=60>
control_change channel=0 control=64 value=127 time=22
note_on channel=0 note=30 velocity=0 time=4
note_on channel=0 note=32 velocity=18 time=0
<meta message set_tempo tempo=503948 time=34>
note_on channel=0 note=56 velocity=24 time=30
<meta message set_tempo tempo=502050 time=30>
note_on channel=0 note=32 velocity=0 time=2
note_on channel=0 note=30 velocity=24 time=0
<meta message set_tempo tempo=500167 time=58>
note_on channel=0 note=30 velocity=0 time=38
note_on channel=0 note=32 velocity=21 time=0
<meta message set_tempo tempo=498297 time=22>
note_on channel=0 note=56 velocity=0 time=10
note_on channel=0 note=59 velocity=24 time=0
note_on channel=0 note=32 velocity=0 time=64
note_on channel=0 note=30 velocity=22 time=0
<meta message set_tempo tempo=496442 time=6>
<meta message set_tempo tempo=494601 time=60>
note_on channel=0 note=30 velocity=0 time=30
note_on channel=0 note=59 velocity=0 time=0
note_on channel=0 note=62 velocity=27 time=0
note_on channel=0 note=32 velocity=18 time=0
<meta message set_tempo tempo=492773 time=30>
<meta message set_tempo tempo=490918 time=60>
note_on channel=0 note=32 velocity=0 time=6
note_on channel=0 note=30 velocity=24 time=0
<meta message set_tempo tempo=489117 time=54>
note_on channel=0 note=62 velocity=0 time=10
note_on channel=0 note=59 velocity=25 time=0
note_on channel=0 note=30 velocity=0 time=32
note_on channel=0 note=32 velocity=21 time=0
<meta message set_tempo tempo=487329 time=38>
note_on channel=0 note=32 velocity=0 time=58
note_on channel=0 note=30 velocity=27 time=0
<meta message set_tempo tempo=485555 time=2>
note_on channel=0 note=59 velocity=0 time=30
note_on channel=0 note=56 velocity=25 time=0
<meta message set_tempo tempo=483793 time=30>
note_on channel=0 note=30 velocity=0 time=34
note_on channel=0 note=32 velocity=23 time=0
<meta message set_tempo tempo=482044 time=26>
<meta message set_tempo tempo=480307 time=60>
note_on channel=0 note=32 velocity=0 time=10
note_on channel=0 note=56 velocity=0 time=0
note_on channel=0 note=59 velocity=39 time=0
note_on channel=0 note=30 velocity=31 time=0
note_on channel=0 note=30 velocity=0 time=96
note_on channel=0 note=32 velocity=26 time=0
note_on channel=0 note=59 velocity=0 time=64
note_on channel=0 note=56 velocity=43 time=0
note_on channel=0 note=32 velocity=0 time=32
note_on channel=0 note=30 velocity=35 time=0
note_on channel=0 note=30 velocity=0 time=96
note_on channel=0 note=32 velocity=29 time=0
note_on channel=0 note=56 velocity=0 time=32
note_on channel=0 note=59 velocity=46 time=0
note_on channel=0 note=32 velocity=0 time=64
note_on channel=0 note=30 velocity=38 time=0
<meta message set_tempo tempo=485555 time=16>
<meta message set_tempo tempo=483793 time=60>
<meta message set_tempo tempo=483793 time=20>
note_on channel=0 note=30 velocity=0 time=0
note_on channel=0 note=59 velocity=0 time=0
note_on channel=0 note=68 velocity=0 time=0
note_on channel=0 note=62 velocity=50 time=0
note_on channel=0 note=32 velocity=32 time=0
note_on channel=0 note=32 velocity=0 time=96
note_on channel=0 note=30 velocity=42 time=0
note_on channel=0 note=62 velocity=0 time=64
note_on channel=0 note=59 velocity=54 time=0
note_on channel=0 note=30 velocity=0 time=64
note_on channel=0 note=29 velocity=37 time=0
note_on channel=0 note=59 velocity=0 time=96
note_on channel=0 note=56 velocity=57 time=0
note_on channel=0 note=29 velocity=0 time=32
note_on channel=0 note=30 velocity=38 time=0
<meta message set_tempo tempo=507786 time=128>
note_on channel=0 note=30 velocity=0 time=0
note_on channel=0 note=56 velocity=0 time=0
note_on channel=0 note=71 velocity=74 time=0
note_on channel=0 note=41 velocity=68 time=0
note_on channel=0 note=29 velocity=60 time=0
control_change channel=0 control=64 value=0 time=0
<meta message set_tempo tempo=505860 time=70>
control_change channel=0 control=64 value=127 time=57
<meta message set_tempo tempo=503948 time=3>
note_on channel=0 note=59 velocity=55 time=30
<meta message set_tempo tempo=502050 time=30>
<meta message set_tempo tempo=500167 time=60>
<meta message set_tempo tempo=498297 time=60>
note_on channel=0 note=59 velocity=0 time=10
note_on channel=0 note=61 velocity=55 time=0
<meta message set_tempo tempo=496442 time=70>
<meta message set_tempo tempo=494601 time=60>
note_on channel=0 note=61 velocity=0 time=30
note_on channel=0 note=68 velocity=64 time=0
<meta message set_tempo tempo=492773 time=30>
<meta message set_tempo tempo=490918 time=60>
<meta message set_tempo tempo=489117 time=60>
note_on channel=0 note=68 velocity=0 time=10
note_on channel=0 note=61 velocity=48 time=0
<meta message set_tempo tempo=487329 time=70>
<meta message set_tempo tempo=485555 time=60>
note_on channel=0 note=61 velocity=0 time=30
note_on channel=0 note=59 velocity=48 time=0
<meta message set_tempo tempo=483793 time=30>
<meta message set_tempo tempo=482044 time=60>
<meta message set_tempo tempo=480307 time=60>
note_on channel=0 note=59 velocity=0 time=10
note_on channel=0 note=29 velocity=0 time=0
note_on channel=0 note=41 velocity=0 time=0
note_on channel=0 note=61 velocity=52 time=0
note_on channel=0 note=41 velocity=50 time=0
note_on channel=0 note=61 velocity=0 time=160
note_on channel=0 note=59 velocity=42 time=0
note_on channel=0 note=44 velocity=41 time=80
note_on channel=0 note=59 velocity=0 time=80
note_on channel=0 note=61 velocity=42 time=0
<meta message set_tempo tempo=485555 time=80>
<meta message set_tempo tempo=483793 time=60>
<meta message set_tempo tempo=496442 time=20>
note_on channel=0 note=61 velocity=0 time=0
note_on channel=0 note=44 velocity=0 time=0
note_on channel=0 note=68 velocity=51 time=0
note_on channel=0 note=47 velocity=41 time=0
note_on channel=0 note=68 velocity=0 time=160
note_on channel=0 note=61 velocity=38 time=0
<meta message set_tempo tempo=513699 time=80>
note_on channel=0 note=47 velocity=0 time=0
note_on channel=0 note=49 velocity=41 time=0
note_on channel=0 note=61 velocity=0 time=80
note_on channel=0 note=59 velocity=36 time=0
<meta message set_tempo tempo=503948 time=160>
note_on channel=0 note=59 velocity=0 time=0
note_on channel=0 note=49 velocity=0 time=0
note_on channel=0 note=41 velocity=0 time=0
note_on channel=0 note=62 velocity=46 time=0
note_on channel=0 note=41 velocity=40 time=0
note_on channel=0 note=50 velocity=49 time=0
control_change channel=0 control=64 value=0 time=11
control_change channel=0 control=64 value=0 time=5
<meta message set_tempo tempo=509727 time=24>
control_change channel=0 control=64 value=127 time=37
<meta message set_tempo tempo=511727 time=43>
note_on channel=0 note=62 velocity=0 time=40
note_on channel=0 note=59 velocity=38 time=0
<meta message set_tempo tempo=513699 time=20>
<meta message set_tempo tempo=515685 time=60>
<meta message set_tempo tempo=517688 time=60>
note_on channel=0 note=59 velocity=0 time=20
note_on channel=0 note=62 velocity=37 time=0
<meta message set_tempo tempo=519706 time=40>
<meta message set_tempo tempo=521739 time=60>
<meta message set_tempo tempo=523789 time=60>
note_on channel=0 note=62 velocity=0 time=0
note_on channel=0 note=68 velocity=36 time=0
<meta message set_tempo tempo=525855 time=60>
<meta message set_tempo tempo=527937 time=60>
note_on channel=0 note=68 velocity=0 time=40
note_on channel=0 note=62 velocity=36 time=0
<meta message set_tempo tempo=530035 time=20>
<meta message set_tempo tempo=532198 time=60>
<meta message set_tempo tempo=534331 time=60>
note_on channel=0 note=62 velocity=0 time=20
note_on channel=0 note=59 velocity=35 time=0
<meta message set_tempo tempo=536481 time=40>
<meta message set_tempo tempo=538648 time=60>
<meta message set_tempo tempo=540833 time=60>
note_on channel=0 note=59 velocity=0 time=0
note_on channel=0 note=50 velocity=0 time=0
note_on channel=0 note=41 velocity=0 time=0
note_on channel=0 note=61 velocity=34 time=0
note_on channel=0 note=49 velocity=31 time=0
control_change channel=0 control=64 value=0 time=15
<meta message set_tempo tempo=561377 time=5>
<meta message set_tempo tempo=563751 time=60>
control_change channel=0 control=64 value=127 time=26
<meta message set_tempo tempo=566145 time=14>
<meta message set_tempo tempo=568559 time=40>
note_on channel=0 note=61 velocity=0 time=0
note_on channel=0 note=59 velocity=33 time=0
<meta message set_tempo tempo=570994 time=40>
<meta message set_tempo tempo=573449 time=40>
<meta message set_tempo tempo=575926 time=40>
<meta message set_tempo tempo=578481 time=40>
note_on channel=0 note=59 velocity=0 time=0
note_on channel=0 note=61 velocity=32 time=0
<meta message set_tempo tempo=581001 time=40>
<meta message set_tempo tempo=583544 time=40>
<meta message set_tempo tempo=586109 time=40>
note_on channel=0 note=61 velocity=0 time=40
note_on channel=0 note=68 velocity=31 time=0
<meta message set_tempo tempo=588697 time=20>
<meta message set_tempo tempo=591308 time=40>
<meta message set_tempo tempo=593942 time=40>
<meta message set_tempo tempo=596599 time=40>
note_on channel=0 note=68 velocity=0 time=20
note_on channel=0 note=61 velocity=30 time=0
<meta message set_tempo tempo=599281 time=20>
<meta message set_tempo tempo=601987 time=40>
<meta message set_tempo tempo=604778 time=40>
<meta message set_tempo tempo=607533 time=40>
<meta message set_tempo tempo=770515 time=20>
note_on channel=0 note=61 velocity=0 time=0
note_on channel=0 note=59 velocity=29 time=0
<meta message set_tempo tempo=1622499 time=40>
<meta message set_tempo tempo=591308 time=85>
note_on channel=0 note=59 velocity=0 time=35
note_on channel=0 note=49 velocity=0 time=0
note_on channel=0 note=71 velocity=0 time=0
note_on channel=0 note=70 velocity=44 time=0
note_on channel=0 note=42 velocity=29 time=0
note_on channel=0 note=49 velocity=35 time=0
<meta message set_tempo tempo=586109 time=5>
control_change channel=0 control=64 value=0 time=6
control_change channel=0 control=64 value=0 time=3
<meta message set_tempo tempo=581001 time=31>
<meta message set_tempo tempo=575926 time=40>
<meta message set_tempo tempo=570994 time=40>
note_on channel=0 note=58 velocity=26 time=35
control_change channel=0 control=64 value=127 time=3
<meta message set_tempo tempo=566145 time=2>
<meta message set_tempo tempo=561377 time=40>
<meta message set_tempo tempo=549753 time=40>
<meta message set_tempo tempo=545256 time=40>
note_on channel=0 note=58 velocity=0 time=35
note_on channel=0 note=61 velocity=26 time=0
<meta message set_tempo tempo=540833 time=5>
<meta message set_tempo tempo=536481 time=40>
<meta message set_tempo tempo=532198 time=40>
<meta message set_tempo tempo=527937 time=40>
note_on channel=0 note=61 velocity=0 time=35
note_on channel=0 note=66 velocity=29 time=0
<meta message set_tempo tempo=521739 time=5>
<meta message set_tempo tempo=517688 time=40>
<meta message set_tempo tempo=513699 time=40>
<meta message set_tempo tempo=509727 time=40>
note_on channel=0 note=66 velocity=0 time=35
note_on channel=0 note=61 velocity=25 time=0
<meta message set_tempo tempo=505860 time=5>
<meta message set_tempo tempo=502050 time=40>
<meta message set_tempo tempo=496442 time=40>
<meta message set_tempo tempo=507786 time=6>
<meta message set_tempo tempo=503948 time=20>
note_on channel=0 note=61 velocity=0 time=49
note_on channel=0 note=58 velocity=25 time=0
note_on channel=0 note=58 velocity=0 time=160
note_on channel=0 note=61 velocity=30 time=0
<meta message set_tempo tempo=503948 time=88>
<meta message set_tempo tempo=502050 time=20>
<meta message set_tempo tempo=500167 time=20>
<meta message set_tempo tempo=498297 time=20>
note_on channel=0 note=61 velocity=0 time=12
note_on channel=0 note=58 velocity=25 time=0
<meta message set_tempo tempo=496442 time=8>
<meta message set_tempo tempo=502050 time=32>
<meta message set_tempo tempo=500167 time=60>
<meta message set_tempo tempo=498297 time=60>
note_on channel=0 note=58 velocity=0 time=0
note_on channel=0 note=61 velocity=25 time=0
<meta message set_tempo tempo=496442 time=60>
<meta message set_tempo tempo=494601 time=60>
note_on channel=0 note=61 velocity=0 time=40
note_on channel=0 note=66 velocity=29 time=0
<meta message set_tempo tempo=492773 time=20>
note_on channel=0 note=66 velocity=0 time=140
note_on channel=0 note=61 velocity=26 time=0
note_on channel=0 note=61 velocity=0 time=160
note_on channel=0 note=58 velocity=26 time=0
<meta message set_tempo tempo=482044 time=160>
note_on channel=0 note=58 velocity=0 time=0
note_on channel=0 note=70 velocity=0 time=0
note_on channel=0 note=42 velocity=0 time=0
note_on channel=0 note=49 velocity=0 time=0
note_on channel=0 note=70 velocity=41 time=0
note_on channel=0 note=49 velocity=35 time=0
note_on channel=0 note=42 velocity=29 time=0
control_change channel=0 control=64 value=0 time=11
control_change channel=0 control=64 value=127 time=137
note_on channel=0 note=58 velocity=27 time=12
note_on channel=0 note=58 velocity=0 time=160
note_on channel=0 note=61 velocity=29 time=0
<meta message set_tempo tempo=485555 time=160>
note_on channel=0 note=61 velocity=0 time=0
note_on channel=0 note=66 velocity=31 time=0
note_on channel=0 note=66 velocity=0 time=160
note_on channel=0 note=61 velocity=26 time=0
note_on channel=0 note=61 velocity=0 time=160
note_on channel=0 note=58 velocity=29 time=0
<meta message set_tempo tempo=498297 time=140>
note_on channel=0 note=58 velocity=0 time=20
note_on channel=0 note=70 velocity=0 time=0
note_on channel=0 note=49 velocity=0 time=0
note_on channel=0 note=42 velocity=0 time=0
note_on channel=0 note=70 velocity=44 time=0
note_on channel=0 note=42 velocity=29 time=0
note_on channel=0 note=49 velocity=35 time=0
<meta message set_tempo tempo=489117 time=5>
<meta message set_tempo tempo=490918 time=80>
<meta message set_tempo tempo=492773 time=40>
note_on channel=0 note=58 velocity=28 time=35
<meta message set_tempo tempo=494601 time=5>
<meta message set_tempo tempo=496442 time=40>
<meta message set_tempo tempo=498297 time=80>
note_on channel=0 note=58 velocity=0 time=35
note_on channel=0 note=61 velocity=30 time=0
<meta message set_tempo tempo=500167 time=5>
<meta message set_tempo tempo=502050 time=40>
<meta message set_tempo tempo=503948 time=40>
<meta message set_tempo tempo=505860 time=40>
<meta message set_tempo tempo=540833 time=35>
note_on channel=0 note=61 velocity=0 time=0
note_on channel=0 note=66 velocity=35 time=0
note_on channel=0 note=66 velocity=0 time=160
note_on channel=0 note=61 velocity=31 time=0
note_on channel=0 note=61 velocity=0 time=160
note_on channel=0 note=58 velocity=33 time=0
<meta message set_tempo tempo=543036 time=80>
note_on channel=0 note=58 velocity=0 time=80
note_on channel=0 note=70 velocity=0 time=0
note_on channel=0 note=42 velocity=0 time=0
note_on channel=0 note=49 velocity=0 time=0
note_on channel=0 note=70 velocity=49 time=0
note_on channel=0 note=51 velocity=35 time=0
note_on channel=0 note=39 velocity=29 time=0
control_change channel=0 control=64 value=0 time=0
control_change channel=0 control=64 value=0 time=5
<meta message set_tempo tempo=538648 time=15>
control_change channel=0 control=64 value=127 time=51
<meta message set_tempo tempo=536481 time=29>
<meta message set_tempo tempo=534331 time=60>
note_on channel=0 note=58 velocity=27 time=0
<meta message set_tempo tempo=532198 time=80>
<meta message set_tempo tempo=530035 time=60>
note_on channel=0 note=58 velocity=0 time=20
note_on channel=0 note=63 velocity=27 time=0
<meta message set_tempo tempo=527937 time=60>
<meta message set_tempo tempo=525855 time=60>
note_on channel=0 note=63 velocity=0 time=40
note_on channel=0 note=66 velocity=34 time=0
<meta message set_tempo tempo=523789 time=20>
<meta message set_tempo tempo=521739 time=80>
<meta message set_tempo tempo=519706 time=60>
note_on channel=0 note=66 velocity=0 time=0
note_on channel=0 note=63 velocity=29 time=0
<meta message set_tempo tempo=517688 time=80>
<meta message set_tempo tempo=515685 time=60>
note_on channel=0 note=63 velocity=0 time=20
note_on channel=0 note=58 velocity=29 time=0
<meta message set_tempo tempo=513699 time=60>
<meta message set_tempo tempo=511727 time=60>
note_on channel=0 note=58 velocity=0 time=40
note_on channel=0 note=63 velocity=37 time=0
control_change channel=0 control=64 value=0 time=8
<meta message set_tempo tempo=509727 time=12>
<meta message set_tempo tempo=507786 time=80>
control_change channel=0 control=64 value=127 time=27
<meta message set_tempo tempo=505860 time=33>
note_on channel=0 note=63 velocity=0 time=0
note_on channel=0 note=58 velocity=29 time=0
<meta message set_tempo tempo=503948 time=80>
<meta message set_tempo tempo=502050 time=60>
note_on channel=0 note=58 velocity=0 time=20
note_on channel=0 note=63 velocity=29 time=0
<meta message set_tempo tempo=500167 time=60>
<meta message set_tempo tempo=498297 time=60>
note_on channel=0 note=63 velocity=0 time=40
note_on channel=0 note=66 velocity=36 time=0
<meta message set_tempo tempo=496442 time=20>
note_on channel=0 note=66 velocity=0 time=140
note_on channel=0 note=63 velocity=29 time=0
note_on channel=0 note=63 velocity=0 time=160
note_on channel=0 note=58 velocity=29 time=0
<meta message set_tempo tempo=487329 time=160>
note_on channel=0 note=58 velocity=0 time=0
note_on channel=0 note=70 velocity=0 time=0
note_on channel=0 note=66 velocity=49 time=0
control_change channel=0 control=64 value=0 time=13
control_change channel=0 control=64 value=127 time=121
note_on channel=0 note=54 velocity=30 time=26
note_on channel=0 note=54 velocity=0 time=160
note_on channel=0 note=58 velocity=30 time=0
note_on channel=0 note=58 velocity=0 time=160
note_on channel=0 note=63 velocity=36 time=0
note_on channel=0 note=63 velocity=0 time=160
note_on channel=0 note=58 velocity=30 time=0
note_on channel=0 note=58 velocity=0 time=160
note_on channel=0 note=54 velocity=30 time=0
<meta message set_tempo tempo=489117 time=85>
note_on channel=0 note=54 velocity=0 time=75
note_on channel=0 note=58 velocity=37 time=0
control_change channel=0 control=64 value=0 time=12
<meta message set_tempo tempo=490918 time=33>
<meta message set_tempo tempo=492773 time=80>
control_change channel=0 control=64 value=127 time=16
note_on channel=0 note=58 velocity=0 time=19
note_on channel=0 note=54 velocity=30 time=0
<meta message set_tempo tempo=494601 time=45>
<meta message set_tempo tempo=496442 time=80>
note_on channel=0 note=54 velocity=0 time=35
note_on channel=0 note=58 velocity=30 time=0
<meta message set_tempo tempo=498297 time=45>
<meta message set_tempo tempo=500167 time=80>
<meta message set_tempo tempo=515685 time=15>
<meta message set_tempo tempo=540833 time=20>
note_on channel=0 note=58 velocity=0 time=0
note_on channel=0 note=63 velocity=35 time=0
note_on channel=0 note=63 velocity=0 time=160
note_on channel=0 note=58 velocity=30 time=0
note_on channel=0 note=58 velocity=0 time=160
note_on channel=0 note=54 velocity=30 time=0
<meta message set_tempo tempo=540833 time=160>
note_on channel=0 note=54 velocity=0 time=0
note_on channel=0 note=51 velocity=0 time=0
note_on channel=0 note=39 velocity=0 time=0
note_on channel=0 note=66 velocity=0 time=0
note_on channel=0 note=68 velocity=49 time=0
control_change channel=0 control=64 value=0 time=0
control_change channel=0 control=64 value=0 time=0
note_on channel=0 note=35 velocity=29 time=4
note_on channel=0 note=47 velocity=35 time=3
<meta message set_tempo tempo=523789 time=13>
<meta message set_tempo tempo=521739 time=20>
control_change channel=0 control=64 value=127 time=52
<meta message set_tempo tempo=519706 time=28>
note_on channel=0 note=56 velocity=29 time=40
<meta message set_tempo tempo=517688 time=20>
<meta message set_tempo tempo=515685 time=80>
<meta message set_tempo tempo=513699 time=60>
note_on channel=0 note=56 velocity=0 time=0
note_on channel=0 note=59 velocity=29 time=0
<meta message set_tempo tempo=511727 time=80>
<meta message set_tempo tempo=509727 time=60>
note_on channel=0 note=59 velocity=0 time=20
note_on channel=0 note=63 velocity=37 time=0
<meta message set_tempo tempo=507786 time=60>
<meta message set_tempo tempo=505860 time=60>
note_on channel=0 note=63 velocity=0 time=40
note_on channel=0 note=59 velocity=29 time=0
<meta message set_tempo tempo=503948 time=40>
<meta message set_tempo tempo=502050 time=60>
<meta message set_tempo tempo=500167 time=60>
note_on channel=0 note=59 velocity=0 time=0
note_on channel=0 note=56 velocity=29 time=0
<meta message set_tempo tempo=498297 time=80>
<meta message set_tempo tempo=496442 time=60>
note_on channel=0 note=56 velocity=0 time=20
note_on channel=0 note=59 velocity=37 time=0
<meta message set_tempo tempo=494601 time=60>
<meta message set_tempo tempo=492773 time=60>
note_on channel=0 note=59 velocity=0 time=40
note_on channel=0 note=56 velocity=29 time=0
<meta message set_tempo tempo=490918 time=40>
<meta message set_tempo tempo=489117 time=60>
note_on channel=0 note=56 velocity=0 time=60
note_on channel=0 note=59 velocity=29 time=0
<meta message set_tempo tempo=487329 time=20>
<meta message set_tempo tempo=485555 time=60>
<meta message set_tempo tempo=483793 time=60>
<meta message set_tempo tempo=483793 time=20>
note_on channel=0 note=59 velocity=0 time=0
note_on channel=0 note=63 velocity=36 time=0
note_on channel=0 note=63 velocity=0 time=160
note_on channel=0 note=59 velocity=29 time=0
note_on channel=0 note=59 velocity=0 time=160
note_on channel=0 note=56 velocity=29 time=0
<meta message set_tempo tempo=485555 time=160>
note_on channel=0 note=56 velocity=0 time=0
note_on channel=0 note=68 velocity=0 time=0
note_on channel=0 note=66 velocity=46 time=0
note_on channel=0 note=37 velocity=29 time=0
note_on channel=0 note=49 velocity=35 time=0
note_on channel=0 note=35 velocity=0 time=4
note_on channel=0 note=47 velocity=0 time=3
control_change channel=0 control=64 value=0 time=4
control_change channel=0 control=64 value=0 time=4
control_change channel=0 control=64 value=127 time=70
note_on channel=0 note=56 velocity=29 time=75
note_on channel=0 note=56 velocity=0 time=160
note_on channel=0 note=59 velocity=29 time=0
note_on channel=0 note=59 velocity=0 time=160
note_on channel=0 note=66 velocity=0 time=0
note_on channel=0 note=65 velocity=45 time=0
<meta message set_tempo tempo=492773 time=20>
<meta message set_tempo tempo=494601 time=100>
note_on channel=0 note=56 velocity=28 time=40
<meta message set_tempo tempo=496442 time=60>
<meta message set_tempo tempo=498297 time=80>
note_on channel=0 note=56 velocity=0 time=20
note_on channel=0 note=59 velocity=28 time=0
<meta message set_tempo tempo=500167 time=80>
<meta message set_tempo tempo=505860 time=80>
note_on channel=0 note=59 velocity=0 time=0
note_on channel=0 note=65 velocity=0 time=0
note_on channel=0 note=63 velocity=44 time=0
note_on channel=0 note=56 velocity=29 time=160
note_on channel=0 note=56 velocity=0 time=160
note_on channel=0 note=59 velocity=30 time=0
<meta message set_tempo tempo=517688 time=160>
note_on channel=0 note=59 velocity=0 time=0
note_on channel=0 note=63 velocity=0 time=0
note_on channel=0 note=37 velocity=0 time=0
note_on channel=0 note=49 velocity=0 time=0
note_on channel=0 note=61 velocity=40 time=0
note_on channel=0 note=47 velocity=20 time=0
note_on channel=0 note=49 velocity=26 time=0
note_on channel=0 note=53 velocity=29 time=160
note_on channel=0 note=53 velocity=0 time=160
note_on channel=0 note=56 velocity=30 time=0
<meta message set_tempo tempo=534331 time=160>
note_on channel=0 note=56 velocity=0 time=0
note_on channel=0 note=49 velocity=0 time=0
note_on channel=0 note=47 velocity=0 time=0
note_on channel=0 note=61 velocity=0 time=0
note_on channel=0 note=66 velocity=49 time=0
note_on channel=0 note=46 velocity=29 time=0
note_on channel=0 note=49 velocity=35 time=0
control_change channel=0 control=64 value=0 time=0
control_change channel=0 control=64 value=0 time=6
<meta message set_tempo tempo=536481 time=14>
<meta message set_tempo tempo=534331 time=80>
control_change channel=0 control=64 value=127 time=27
<meta message set_tempo tempo=532198 time=33>
note_on channel=0 note=54 velocity=32 time=0
<meta message set_tempo tempo=530035 time=60>
<meta message set_tempo tempo=527937 time=60>
note_on channel=0 note=54 velocity=0 time=40
note_on channel=0 note=58 velocity=33 time=0
<meta message set_tempo tempo=525855 time=40>
<meta message set_tempo tempo=523789 time=60>
<meta message set_tempo tempo=521739 time=60>
note_on channel=0 note=58 velocity=0 time=0
note_on channel=0 note=61 velocity=35 time=0
<meta message set_tempo tempo=519706 time=60>
<meta message set_tempo tempo=517688 time=80>
note_on channel=0 note=61 velocity=0 time=20
note_on channel=0 note=58 velocity=36 time=0
<meta message set_tempo tempo=515685 time=40>
<meta message set_tempo tempo=513699 time=60>
<meta message set_tempo tempo=511727 time=60>
note_on channel=0 note=58 velocity=0 time=0
note_on channel=0 note=54 velocity=38 time=0
<meta message set_tempo tempo=509727 time=60>
<meta message set_tempo tempo=507786 time=80>
note_on channel=0 note=54 velocity=0 time=20
note_on channel=0 note=66 velocity=0 time=0
note_on channel=0 note=46 velocity=0 time=0
note_on channel=0 note=49 velocity=0 time=0
note_on channel=0 note=70 velocity=48 time=0
note_on channel=0 note=51 velocity=35 time=0
note_on channel=0 note=42 velocity=29 time=0
control_change channel=0 control=64 value=0 time=8
<meta message set_tempo tempo=505860 time=32>
control_change channel=0 control=64 value=127 time=46
<meta message set_tempo tempo=503948 time=14>
<meta message set_tempo tempo=502050 time=60>
note_on channel=0 note=60 velocity=38 time=0
<meta message set_tempo tempo=500167 time=80>
<meta message set_tempo tempo=498297 time=60>
note_on channel=0 note=60 velocity=0 time=20
note_on channel=0 note=63 velocity=36 time=0
<meta message set_tempo tempo=496442 time=40>
<meta message set_tempo tempo=494601 time=60>
<meta message set_tempo tempo=492773 time=60>
note_on channel=0 note=63 velocity=0 time=0
note_on channel=0 note=66 velocity=35 time=0
note_on channel=0 note=66 velocity=0 time=160
note_on channel=0 note=63 velocity=33 time=0
note_on channel=0 note=63 velocity=0 time=160
note_on channel=0 note=60 velocity=32 time=0
note_on channel=0 note=42 velocity=0 time=40
note_on channel=0 note=51 velocity=0 time=0
note_on channel=0 note=37 velocity=29 time=0
note_on channel=0 note=70 velocity=0 time=120
note_on channel=0 note=60 velocity=0 time=0
note_on channel=0 note=68 velocity=41 time=0
note_on channel=0 note=53 velocity=35 time=0
control_change channel=0 control=64 value=0 time=10
control_change channel=0 control=64 value=0 time=1
<meta message set_tempo tempo=485555 time=29>
control_change channel=0 control=64 value=127 time=80
note_on channel=0 note=56 velocity=27 time=40
note_on channel=0 note=56 velocity=0 time=160
note_on channel=0 note=61 velocity=27 time=0
<meta message set_tempo tempo=471772 time=160>
note_on channel=0 note=61 velocity=0 time=0
note_on channel=0 note=65 velocity=30 time=0
<meta message set_tempo tempo=471772 time=120>
note_on channel=0 note=65 velocity=0 time=40
note_on channel=0 note=61 velocity=27 time=0
note_on channel=0 note=61 velocity=0 time=160
note_on channel=0 note=56 velocity=27 time=0
<meta message set_tempo tempo=487329 time=72>
<meta message set_tempo tempo=489117 time=80>
note_on channel=0 note=56 velocity=0 time=8
note_on channel=0 note=61 velocity=30 time=0
<meta message set_tempo tempo=490918 time=32>
<meta message set_tempo tempo=492773 time=40>
<meta message set_tempo tempo=494601 time=40>
<meta message set_tempo tempo=496442 time=40>
note_on channel=0 note=61 velocity=0 time=8
note_on channel=0 note=56 velocity=27 time=0
<meta message set_tempo tempo=498297 time=72>
<meta message set_tempo tempo=500167 time=40>
<meta message set_tempo tempo=502050 time=40>
note_on channel=0 note=56 velocity=0 time=8
note_on channel=0 note=61 velocity=27 time=0
<meta message set_tempo tempo=503948 time=32>
<meta message set_tempo tempo=505860 time=40>
<meta message set_tempo tempo=521739 time=28>
<meta message set_tempo tempo=523789 time=40>
<meta message set_tempo tempo=540833 time=20>
note_on channel=0 note=61 velocity=0 time=0
note_on channel=0 note=68 velocity=0 time=0
note_on channel=0 note=65 velocity=31 time=0
note_on channel=0 note=69 velocity=39 time=0
control_change channel=0 control=64 value=0 time=14
control_change channel=0 control=64 value=127 time=72
note_on channel=0 note=65 velocity=0 time=74
note_on channel=0 note=61 velocity=24 time=0
note_on channel=0 note=61 velocity=0 time=160
note_on channel=0 note=57 velocity=24 time=0
<meta message set_tempo tempo=540833 time=160>
note_on channel=0 note=57 velocity=0 time=0
note_on channel=0 note=37 velocity=0 time=0
note_on channel=0 note=53 velocity=0 time=0
note_on channel=0 note=69 velocity=0 time=0
note_on channel=0 note=70 velocity=44 time=0
note_on channel=0 note=49 velocity=35 time=0
note_on channel=0 note=42 velocity=29 time=0
control_change channel=0 control=64 value=0 time=0
control_change channel=0 control=64 value=0 time=11
<meta message set_tempo tempo=540833 time=9>
<meta message set_tempo tempo=538648 time=60>
<meta message set_tempo tempo=536481 time=60>
control_change channel=0 control=64 value=127 time=8
note_on channel=0 note=58 velocity=26 time=12
<meta message set_tempo tempo=534331 time=40>
<meta message set_tempo tempo=532198 time=60>
<meta message set_tempo tempo=530035 time=60>
note_on channel=0 note=58 velocity=0 time=0
note_on channel=0 note=61 velocity=26 time=0
<meta message set_tempo tempo=527937 time=60>
<meta message set_tempo tempo=525855 time=60>
note_on channel=0 note=61 velocity=0 time=40
note_on channel=0 note=66 velocity=29 time=0
<meta message set_tempo tempo=523789 time=20>
<meta message set_tempo tempo=521739 time=60>
<meta message set_tempo tempo=519706 time=60>
note_on channel=0 note=66 velocity=0 time=20
note_on channel=0 note=61 velocity=25 time=0
<meta message set_tempo tempo=517688 time=40>
<meta message set_tempo tempo=515685 time=60>
<meta message set_tempo tempo=513699 time=60>
note_on channel=0 note=61 velocity=0 time=0
note_on channel=0 note=58 velocity=25 time=0
<meta message set_tempo tempo=511727 time=60>
<meta message set_tempo tempo=509727 time=60>
note_on channel=0 note=58 velocity=0 time=40
note_on channel=0 note=61 velocity=30 time=0
<meta message set_tempo tempo=507786 time=20>
<meta message set_tempo tempo=505860 time=60>
<meta message set_tempo tempo=503948 time=60>
note_on channel=0 note=61 velocity=0 time=20
note_on channel=0 note=58 velocity=25 time=0
<meta message set_tempo tempo=502050 time=40>
<meta message set_tempo tempo=500167 time=60>
<meta message set_tempo tempo=498297 time=60>
note_on channel=0 note=58 velocity=0 time=0
note_on channel=0 note=61 velocity=25 time=0
<meta message set_tempo tempo=496442 time=60>
<meta message set_tempo tempo=494601 time=60>
<meta message set_tempo tempo=487329 time=40>
note_on channel=0 note=61 velocity=0 time=0
note_on channel=0 note=66 velocity=29 time=0
note_on channel=0 note=66 velocity=0 time=160
note_on channel=0 note=61 velocity=26 time=0
note_on channel=0 note=61 velocity=0 time=160
note_on channel=0 note=58 velocity=26 time=0
<meta message set_tempo tempo=475172 time=160>
note_on channel=0 note=58 velocity=0 time=0
note_on channel=0 note=70 velocity=0 time=0
note_on channel=0 note=49 velocity=0 time=0
note_on channel=0 note=42 velocity=0 time=0
note_on channel=0 note=70 velocity=41 time=0
note_on channel=0 note=49 velocity=35 time=0
note_on channel=0 note=42 velocity=29 time=0
control_change channel=0 control=64 value=0 time=11
control_change channel=0 control=64 value=127 time=137
note_on channel=0 note=58 velocity=27 time=12
note_on channel=0 note=58 velocity=0 time=160
note_on channel=0 note=61 velocity=29 time=0
<meta message set_tempo tempo=478583 time=160>
note_on channel=0 note=61 velocity=0 time=0
note_on channel=0 note=66 velocity=31 time=0
note_on channel=0 note=66 velocity=0 time=160
note_on channel=0 note=61 velocity=26 time=0
note_on channel=0 note=61 velocity=0 time=160
note_on channel=0 note=58 velocity=29 time=0
note_on channel=0 note=58 velocity=0 time=160
note_on channel=0 note=70 velocity=0 time=0
note_on channel=0 note=49 velocity=0 time=0
note_on channel=0 note=42 velocity=0 time=0
note_on channel=0 note=70 velocity=44 time=0
note_on channel=0 note=49 velocity=35 time=0
note_on channel=0 note=42 velocity=29 time=0
<meta message set_tempo tempo=483793 time=72>
<meta message set_tempo tempo=485555 time=40>
<meta message set_tempo tempo=487329 time=40>
note_on channel=0 note=58 velocity=28 time=8
<meta message set_tempo tempo=489117 time=32>
<meta message set_tempo tempo=490918 time=40>
<meta message set_tempo tempo=492773 time=40>
<meta message set_tempo tempo=494601 time=40>
note_on channel=0 note=58 velocity=0 time=8
note_on channel=0 note=61 velocity=30 time=0
<meta message set_tempo tempo=496442 time=32>
<meta message set_tempo tempo=498297 time=40>
<meta message set_tempo tempo=502050 time=40>
<meta message set_tempo tempo=517688 time=8>
<meta message set_tempo tempo=540833 time=40>
note_on channel=0 note=61 velocity=0 time=0
note_on channel=0 note=66 velocity=35 time=0
note_on channel=0 note=66 velocity=0 time=160
note_on channel=0 note=61 velocity=31 time=0
note_on channel=0 note=61 velocity=0 time=160
note_on channel=0 note=58 velocity=33 time=0
<meta message set_tempo tempo=543036 time=80>
note_on channel=0 note=58 velocity=0 time=80
note_on channel=0 note=70 velocity=0 time=0
note_on channel=0 note=49 velocity=0 time=0
note_on channel=0 note=42 velocity=0 time=0
note_on channel=0 note=70 velocity=49 time=0
note_on channel=0 note=39 velocity=29 time=0
note_on channel=0 note=51 velocity=35 time=0
control_change channel=0 control=64 value=0 time=0
control_change channel=0 control=64 value=0 time=5
<meta message set_tempo tempo=538648 time=15>
control_change channel=0 control=64 value=127 time=51
<meta message set_tempo tempo=536481 time=29>
<meta message set_tempo tempo=534331 time=60>
note_on channel=0 note=58 velocity=27 time=0
<meta message set_tempo tempo=532198 time=80>
<meta message set_tempo tempo=530035 time=60>
note_on channel=0 note=58 velocity=0 time=20
note_on channel=0 note=63 velocity=27 time=0
<meta message set_tempo tempo=527937 time=60>
<meta message set_tempo tempo=525855 time=60>
<meta message set_tempo tempo=515685 time=32>
note_on channel=0 note=63 velocity=0 time=8
note_on channel=0 note=66 velocity=34 time=0
<meta message set_tempo tempo=513699 time=72>
<meta message set_tempo tempo=511727 time=80>
note_on channel=0 note=66 velocity=0 time=8
note_on channel=0 note=63 velocity=29 time=0
<meta message set_tempo tempo=509727 time=72>
<meta message set_tempo tempo=507786 time=40>
note_on channel=0 note=63 velocity=0 time=48
note_on channel=0 note=58 velocity=29 time=0
<meta message set_tempo tempo=505860 time=32>
<meta message set_tempo tempo=503948 time=80>
<meta message set_tempo tempo=502050 time=40>
note_on channel=0 note=58 velocity=0 time=8
note_on channel=0 note=63 velocity=37 time=0
control_change channel=0 control=64 value=0 time=8
<meta message set_tempo tempo=500167 time=64>
control_change channel=0 control=64 value=127 time=55
<meta message set_tempo tempo=498297 time=25>
note_on channel=0 note=63 velocity=0 time=8
note_on channel=0 note=58 velocity=29 time=0
<meta message set_tempo tempo=496442 time=72>
<meta message set_tempo tempo=494601 time=40>
note_on channel=0 note=58 velocity=0 time=48
note_on channel=0 note=63 velocity=29 time=0
<meta message set_tempo tempo=492773 time=32>
<meta message set_tempo tempo=490918 time=80>
<meta message set_tempo tempo=489117 time=40>
<meta message set_tempo tempo=494601 time=8>
note_on channel=0 note=63 velocity=0 time=0
note_on channel=0 note=66 velocity=36 time=0
<meta message set_tempo tempo=496442 time=20>
note_on channel=0 note=66 velocity=0 time=140
note_on channel=0 note=63 velocity=29 time=0
note_on channel=0 note=63 velocity=0 time=160
note_on channel=0 note=58 velocity=29 time=0
<meta message set_tempo tempo=489117 time=160>
note_on channel=0 note=58 velocity=0 time=0
note_on channel=0 note=70 velocity=0 time=0
note_on channel=0 note=66 velocity=49 time=0
control_change channel=0 control=64 value=0 time=13
control_change channel=0 control=64 value=127 time=121
note_on channel=0 note=54 velocity=30 time=26
note_on channel=0 note=54 velocity=0 time=160
note_on channel=0 note=58 velocity=30 time=0
note_on channel=0 note=58 velocity=0 time=160
note_on channel=0 note=63 velocity=36 time=0
note_on channel=0 note=63 velocity=0 time=160
note_on channel=0 note=58 velocity=30 time=0
note_on channel=0 note=58 velocity=0 time=160
note_on channel=0 note=54 velocity=30 time=0
<meta message set_tempo tempo=500167 time=140>
note_on channel=0 note=54 velocity=0 time=20
note_on channel=0 note=39 velocity=0 time=0
note_on channel=0 note=51 velocity=0 time=0
note_on channel=0 note=66 velocity=0 time=0
note_on channel=0 note=65 velocity=49 time=0
note_on channel=0 note=46 velocity=35 time=0
note_on channel=0 note=34 velocity=29 time=0
control_change channel=0 control=64 value=0 time=10
control_change channel=0 control=64 value=0 time=2
<meta message set_tempo tempo=502050 time=28>
<meta message set_tempo tempo=503948 time=60>
control_change channel=0 control=64 value=127 time=20
<meta message set_tempo tempo=505860 time=40>
note_on channel=0 note=53 velocity=30 time=0
<meta message set_tempo tempo=507786 time=60>
<meta message set_tempo tempo=509727 time=60>
note_on channel=0 note=53 velocity=0 time=40
note_on channel=0 note=56 velocity=30 time=0
<meta message set_tempo tempo=511727 time=20>
<meta message set_tempo tempo=513699 time=60>
<meta message set_tempo tempo=515685 time=60>
<meta message set_tempo tempo=515685 time=20>
note_on channel=0 note=56 velocity=0 time=0
note_on channel=0 note=62 velocity=35 time=0
note_on channel=0 note=62 velocity=0 time=160
note_on channel=0 note=56 velocity=30 time=0
note_on channel=0 note=56 velocity=0 time=160
note_on channel=0 note=53 velocity=30 time=0
<meta message set_tempo tempo=540833 time=160>
note_on channel=0 note=53 velocity=0 time=0
note_on channel=0 note=65 velocity=0 time=0
note_on channel=0 note=46 velocity=0 time=0
note_on channel=0 note=34 velocity=0 time=0
note_on channel=0 note=63 velocity=49 time=0
control_change channel=0 control=64 value=0 time=0
control_change channel=0 control=64 value=0 time=0
note_on channel=0 note=35 velocity=29 time=4
note_on channel=0 note=47 velocity=35 time=3
<meta message set_tempo tempo=523789 time=13>
<meta message set_tempo tempo=521739 time=20>
control_change channel=0 control=64 value=127 time=52
<meta message set_tempo tempo=519706 time=28>
note_on channel=0 note=51 velocity=35 time=40
<meta message set_tempo tempo=517688 time=20>
<meta message set_tempo tempo=515685 time=80>
<meta message set_tempo tempo=513699 time=60>
note_on channel=0 note=51 velocity=0 time=0
note_on channel=0 note=54 velocity=40 time=0
<meta message set_tempo tempo=511727 time=80>
<meta message set_tempo tempo=509727 time=60>
note_on channel=0 note=54 velocity=0 time=20
note_on channel=0 note=59 velocity=45 time=0
<meta message set_tempo tempo=507786 time=60>
<meta message set_tempo tempo=503948 time=12>
<meta message set_tempo tempo=502050 time=80>
note_on channel=0 note=59 velocity=0 time=8
note_on channel=0 note=54 velocity=50 time=0
<meta message set_tempo tempo=500167 time=32>
<meta message set_tempo tempo=498297 time=40>
<meta message set_tempo tempo=496442 time=80>
note_on channel=0 note=54 velocity=0 time=8
note_on channel=0 note=51 velocity=56 time=0
<meta message set_tempo tempo=494601 time=32>
<meta message set_tempo tempo=492773 time=40>
<meta message set_tempo tempo=490918 time=80>
note_on channel=0 note=51 velocity=0 time=8
note_on channel=0 note=63 velocity=0 time=0
note_on channel=0 note=68 velocity=65 time=0
note_on channel=0 note=44 velocity=40 time=0
note_on channel=0 note=32 velocity=33 time=0
note_on channel=0 note=35 velocity=0 time=4
note_on channel=0 note=47 velocity=0 time=3
control_change channel=0 control=64 value=0 time=6
<meta message set_tempo tempo=489117 time=19>
<meta message set_tempo tempo=487329 time=40>
control_change channel=0 control=64 value=127 time=62
<meta message set_tempo tempo=485555 time=18>
note_on channel=0 note=56 velocity=48 time=8
<meta message set_tempo tempo=483793 time=32>
<meta message set_tempo tempo=482044 time=40>
<meta message set_tempo tempo=480307 time=80>
note_on channel=0 note=56 velocity=0 time=8
note_on channel=0 note=59 velocity=45 time=0
<meta message set_tempo tempo=478583 time=32>
<meta message set_tempo tempo=476872 time=40>
<meta message set_tempo tempo=485555 time=8>
<meta message set_tempo tempo=483793 time=60>
<meta message set_tempo tempo=470109 time=20>
note_on channel=0 note=59 velocity=0 time=0
note_on channel=0 note=63 velocity=55 time=0
note_on channel=0 note=63 velocity=0 time=160
note_on channel=0 note=59 velocity=33 time=0
note_on channel=0 note=59 velocity=0 time=160
note_on channel=0 note=56 velocity=36 time=0
<meta message set_tempo tempo=485555 time=160>
note_on channel=0 note=56 velocity=0 time=0
note_on channel=0 note=32 velocity=0 time=0
note_on channel=0 note=68 velocity=0 time=0
note_on channel=0 note=44 velocity=0 time=0
note_on channel=0 note=66 velocity=46 time=0
note_on channel=0 note=37 velocity=29 time=0
note_on channel=0 note=49 velocity=35 time=0
control_change channel=0 control=64 value=0 time=11
control_change channel=0 control=64 value=0 time=4
control_change channel=0 control=64 value=127 time=98
<meta message set_tempo tempo=475172 time=7>
note_on channel=0 note=56 velocity=29 time=40
note_on channel=0 note=56 velocity=0 time=160
note_on channel=0 note=59 velocity=29 time=0
note_on channel=0 note=59 velocity=0 time=160
note_on channel=0 note=66 velocity=0 time=0
note_on channel=0 note=65 velocity=45 time=0
<meta message set_tempo tempo=492773 time=20>
<meta message set_tempo tempo=482044 time=52>
<meta message set_tempo tempo=483793 time=80>
note_on channel=0 note=56 velocity=28 time=8
<meta message set_tempo tempo=485555 time=72>
<meta message set_tempo tempo=487329 time=80>
note_on channel=0 note=56 velocity=0 time=8
note_on channel=0 note=59 velocity=28 time=0
<meta message set_tempo tempo=489117 time=72>
<meta message set_tempo tempo=490918 time=40>
<meta message set_tempo tempo=505860 time=48>
note_on channel=0 note=59 velocity=0 time=0
note_on channel=0 note=65 velocity=0 time=0
note_on channel=0 note=63 velocity=44 time=0
note_on channel=0 note=56 velocity=29 time=160
note_on channel=0 note=56 velocity=0 time=160
note_on channel=0 note=59 velocity=30 time=0
<meta message set_tempo tempo=517688 time=160>
note_on channel=0 note=59 velocity=0 time=0
note_on channel=0 note=63 velocity=0 time=0
note_on channel=0 note=65 velocity=40 time=0
note_on channel=0 note=56 velocity=29 time=160
note_on channel=0 note=56 velocity=0 time=160
note_on channel=0 note=59 velocity=30 time=0
<meta message set_tempo tempo=543036 time=160>
note_on channel=0 note=59 velocity=0 time=0
note_on channel=0 note=65 velocity=0 time=0
note_on channel=0 note=49 velocity=0 time=0
note_on channel=0 note=37 velocity=0 time=0
note_on channel=0 note=68 velocity=49 time=0
note_on channel=0 note=42 velocity=29 time=0
note_on channel=0 note=49 velocity=35 time=0
control_change channel=0 control=64 value=0 time=0
control_change channel=0 control=64 value=0 time=5
<meta message set_tempo tempo=538648 time=15>
<meta message set_tempo tempo=543036 time=6>
<meta message set_tempo tempo=540833 time=20>
<meta message set_tempo tempo=538648 time=20>
<meta message set_tempo tempo=536481 time=20>
<meta message set_tempo tempo=534331 time=20>
<meta message set_tempo tempo=532198 time=20>
control_change channel=0 control=64 value=127 time=1
control_change channel=0 control=64 value=127 time=0
<meta message set_tempo tempo=530035 time=19>
note_on channel=0 note=59 velocity=27 time=14
<meta message set_tempo tempo=527937 time=6>
<meta message set_tempo tempo=523789 time=20>
<meta message set_tempo tempo=521739 time=20>
<meta message set_tempo tempo=519706 time=20>
<meta message set_tempo tempo=517688 time=20>
<meta message set_tempo tempo=515685 time=20>
<meta message set_tempo tempo=513699 time=20>
<meta message set_tempo tempo=511727 time=20>
note_on channel=0 note=59 velocity=0 time=14
note_on channel=0 note=61 velocity=27 time=0
<meta message set_tempo tempo=509727 time=6>
<meta message set_tempo tempo=505860 time=20>
<meta message set_tempo tempo=503948 time=20>
<meta message set_tempo tempo=502050 time=20>
<meta message set_tempo tempo=500167 time=20>
<meta message set_tempo tempo=498297 time=20>
<meta message set_tempo tempo=494601 time=20>
<meta message set_tempo tempo=489117 time=34>
note_on channel=0 note=61 velocity=0 time=0
note_on channel=0 note=65 velocity=34 time=0
note_on channel=0 note=65 velocity=0 time=160
note_on channel=0 note=61 velocity=29 time=0
note_on channel=0 note=61 velocity=0 time=160
note_on channel=0 note=59 velocity=29 time=0
<meta message set_tempo tempo=494601 time=160>
note_on channel=0 note=59 velocity=0 time=0
note_on channel=0 note=61 velocity=37 time=0
note_on channel=0 note=61 velocity=0 time=160
note_on channel=0 note=59 velocity=29 time=0
note_on channel=0 note=59 velocity=0 time=160
note_on channel=0 note=61 velocity=29 time=0
<meta message set_tempo tempo=500167 time=60>
<meta message set_tempo tempo=489117 time=100>
note_on channel=0 note=61 velocity=0 time=0
note_on channel=0 note=65 velocity=36 time=0
note_on channel=0 note=65 velocity=0 time=160
note_on channel=0 note=61 velocity=29 time=0
note_on channel=0 note=61 velocity=0 time=160
note_on channel=0 note=59 velocity=29 time=0
<meta message set_tempo tempo=489117 time=160>
note_on channel=0 note=59 velocity=0 time=0
note_on channel=0 note=68 velocity=0 time=0
note_on channel=0 note=66 velocity=49 time=0
control_change channel=0 control=64 value=0 time=13
control_change channel=0 control=64 value=0 time=2
control_change channel=0 control=64 value=127 time=98
note_on channel=0 note=54 velocity=30 time=47
note_on channel=0 note=54 velocity=0 time=160
note_on channel=0 note=58 velocity=30 time=0
note_on channel=0 note=58 velocity=0 time=160
note_on channel=0 note=61 velocity=36 time=0
note_on channel=0 note=61 velocity=0 time=160
note_on channel=0 note=58 velocity=30 time=0
note_on channel=0 note=58 velocity=0 time=160
note_on channel=0 note=54 velocity=30 time=0
<meta message set_tempo tempo=500167 time=140>
note_on channel=0 note=54 velocity=0 time=20
note_on channel=0 note=58 velocity=37 time=0
<meta message set_tempo tempo=502050 time=40>
<meta message set_tempo tempo=503948 time=60>
<meta message set_tempo tempo=505860 time=60>
note_on channel=0 note=58 velocity=0 time=0
note_on channel=0 note=54 velocity=30 time=0
<meta message set_tempo tempo=507786 time=60>
<meta message set_tempo tempo=509727 time=60>
note_on channel=0 note=54 velocity=0 time=40
note_on channel=0 note=58 velocity=30 time=0
<meta message set_tempo tempo=511727 time=20>
<meta message set_tempo tempo=513699 time=60>
<meta message set_tempo tempo=515685 time=60>
<meta message set_tempo tempo=540833 time=20>
note_on channel=0 note=58 velocity=0 time=0
note_on channel=0 note=61 velocity=35 time=0
note_on channel=0 note=61 velocity=0 time=160
note_on channel=0 note=58 velocity=30 time=0
note_on channel=0 note=58 velocity=0 time=160
note_on channel=0 note=54 velocity=30 time=0
<meta message set_tempo tempo=540833 time=160>
note_on channel=0 note=54 velocity=0 time=0
note_on channel=0 note=42 velocity=0 time=0
note_on channel=0 note=49 velocity=0 time=0
note_on channel=0 note=66 velocity=0 time=0
note_on channel=0 note=68 velocity=44 time=0
note_on channel=0 note=53 velocity=35 time=0
note_on channel=0 note=49 velocity=29 time=0
control_change channel=0 control=64 value=0 time=0
control_change channel=0 control=64 value=0 time=0
<meta message set_tempo tempo=532198 time=2>
<meta message set_tempo tempo=530035 time=60>
<meta message set_tempo tempo=527937 time=60>
control_change channel=0 control=64 value=127 time=5
note_on channel=0 note=56 velocity=26 time=33
<meta message set_tempo tempo=525855 time=22>
<meta message set_tempo tempo=523789 time=60>
<meta message set_tempo tempo=521739 time=60>
note_on channel=0 note=56 velocity=0 time=18
note_on channel=0 note=61 velocity=26 time=0
<meta message set_tempo tempo=519706 time=42>
<meta message set_tempo tempo=517688 time=40>
<meta message set_tempo tempo=515685 time=60>
note_on channel=0 note=61 velocity=0 time=18
note_on channel=0 note=65 velocity=29 time=0
<meta message set_tempo tempo=513699 time=42>
<meta message set_tempo tempo=511727 time=60>
note_on channel=0 note=65 velocity=0 time=58
note_on channel=0 note=61 velocity=25 time=0
<meta message set_tempo tempo=509727 time=2>
<meta message set_tempo tempo=507786 time=60>
<meta message set_tempo tempo=505860 time=40>
note_on channel=0 note=61 velocity=0 time=58
note_on channel=0 note=56 velocity=25 time=0
<meta message set_tempo tempo=503948 time=2>
<meta message set_tempo tempo=502050 time=60>
<meta message set_tempo tempo=500167 time=60>
note_on channel=0 note=56 velocity=0 time=38
note_on channel=0 note=61 velocity=30 time=0
<meta message set_tempo tempo=498297 time=22>
<meta message set_tempo tempo=496442 time=60>
<meta message set_tempo tempo=494601 time=40>
note_on channel=0 note=61 velocity=0 time=38
note_on channel=0 note=56 velocity=26 time=0
<meta message set_tempo tempo=492773 time=22>
<meta message set_tempo tempo=490918 time=60>
<meta message set_tempo tempo=489117 time=60>
note_on channel=0 note=56 velocity=0 time=18
note_on channel=0 note=61 velocity=26 time=0
<meta message set_tempo tempo=487329 time=42>
<meta message set_tempo tempo=485555 time=60>
note_on channel=0 note=61 velocity=0 time=58
note_on channel=0 note=65 velocity=30 time=0
note_on channel=0 note=65 velocity=0 time=160
note_on channel=0 note=61 velocity=27 time=0
note_on channel=0 note=61 velocity=0 time=160
note_on channel=0 note=56 velocity=27 time=0
<meta message set_tempo tempo=483793 time=160>
note_on channel=0 note=56 velocity=0 time=0
note_on channel=0 note=68 velocity=0 time=0
note_on channel=0 note=53 velocity=0 time=0
note_on channel=0 note=49 velocity=0 time=0
note_on channel=0 note=70 velocity=43 time=0
note_on channel=0 note=52 velocity=34 time=0
note_on channel=0 note=55 velocity=40 time=0
note_on channel=0 note=46 velocity=34 time=0
control_change channel=0 control=64 value=0 time=14
control_change channel=0 control=64 value=0 time=1
control_change channel=0 control=64 value=127 time=98
note_on channel=0 note=61 velocity=29 time=47
note_on channel=0 note=61 velocity=0 time=160
note_on channel=0 note=64 velocity=31 time=0
<meta message set_tempo tempo=471772 time=160>
note_on channel=0 note=64 velocity=0 time=0
note_on channel=0 note=67 velocity=39 time=0
note_on channel=0 note=67 velocity=0 time=160
note_on channel=0 note=64 velocity=31 time=0
note_on channel=0 note=64 velocity=0 time=160
note_on channel=0 note=61 velocity=38 time=0
<meta message set_tempo tempo=490918 time=122>
<meta message set_tempo tempo=487329 time=38>
note_on channel=0 note=61 velocity=0 time=0
note_on channel=0 note=52 velocity=0 time=0
note_on channel=0 note=63 velocity=42 time=0
note_on channel=0 note=51 velocity=41 time=0
control_change channel=0 control=64 value=0 time=12
control_change channel=0 control=64 value=0 time=2
control_change channel=0 control=64 value=127 time=78
note_on channel=0 note=63 velocity=0 time=68
note_on channel=0 note=61 velocity=45 time=0
note_on channel=0 note=61 velocity=0 time=160
note_on channel=0 note=63 velocity=49 time=0
<meta message set_tempo tempo=485555 time=82>
note_on channel=0 note=63 velocity=0 time=78
note_on channel=0 note=67 velocity=55 time=0
<meta message set_tempo tempo=487329 time=2>
<meta message set_tempo tempo=489117 time=60>
<meta message set_tempo tempo=490918 time=80>
note_on channel=0 note=67 velocity=0 time=18
note_on channel=0 note=63 velocity=53 time=0
<meta message set_tempo tempo=492773 time=42>
<meta message set_tempo tempo=494601 time=80>
note_on channel=0 note=63 velocity=0 time=38
note_on channel=0 note=61 velocity=59 time=0
<meta message set_tempo tempo=496442 time=22>
<meta message set_tempo tempo=507786 time=64>
<meta message set_tempo tempo=511727 time=60>
note_on channel=0 note=61 velocity=0 time=14
note_on channel=0 note=51 velocity=0 time=0
note_on channel=0 note=46 velocity=0 time=0
note_on channel=0 note=55 velocity=0 time=0
note_on channel=0 note=70 velocity=0 time=0
note_on channel=0 note=73 velocity=70 time=0
note_on channel=0 note=44 velocity=41 time=0
note_on channel=0 note=51 velocity=41 time=0
control_change channel=0 control=64 value=0 time=0
control_change channel=0 control=64 value=0 time=5
note_on channel=0 note=55 velocity=50 time=2
<meta message set_tempo tempo=509727 time=39>
<meta message set_tempo tempo=507786 time=60>
control_change channel=0 control=64 value=127 time=21
control_change channel=0 control=64 value=127 time=0
note_on channel=0 note=61 velocity=48 time=33
<meta message set_tempo tempo=505860 time=6>
<meta message set_tempo tempo=503948 time=60>
<meta message set_tempo tempo=502050 time=40>
note_on channel=0 note=61 velocity=0 time=54
note_on channel=0 note=63 velocity=49 time=0
<meta message set_tempo tempo=505860 time=22>
<meta message set_tempo tempo=503948 time=80>
note_on channel=0 note=70 velocity=58 time=51
note_on channel=0 note=63 velocity=0 time=7
<meta message set_tempo tempo=502050 time=42>
<meta message set_tempo tempo=500167 time=80>
note_on channel=0 note=70 velocity=0 time=31
note_on channel=0 note=63 velocity=39 time=7
<meta message set_tempo tempo=498297 time=42>
<meta message set_tempo tempo=496442 time=80>
note_on channel=0 note=63 velocity=0 time=38
note_on channel=0 note=61 velocity=42 time=0
<meta message set_tempo tempo=494601 time=42>
<meta message set_tempo tempo=492773 time=80>
note_on channel=0 note=61 velocity=0 time=38
note_on channel=0 note=63 velocity=53 time=0
<meta message set_tempo tempo=490918 time=62>
<meta message set_tempo tempo=489117 time=80>
note_on channel=0 note=63 velocity=0 time=18
note_on channel=0 note=61 velocity=40 time=0
<meta message set_tempo tempo=487329 time=62>
<meta message set_tempo tempo=485555 time=80>
note_on channel=0 note=61 velocity=0 time=18
note_on channel=0 note=63 velocity=33 time=0
<meta message set_tempo tempo=483793 time=62>
note_on channel=0 note=63 velocity=0 time=98
note_on channel=0 note=73 velocity=0 time=0
note_on channel=0 note=71 velocity=50 time=0
note_on channel=0 note=68 velocity=37 time=0
note_on channel=0 note=55 velocity=0 time=7
note_on channel=0 note=56 velocity=44 time=7
note_on channel=0 note=68 velocity=0 time=146
note_on channel=0 note=63 velocity=33 time=0
note_on channel=0 note=63 velocity=0 time=160
note_on channel=0 note=59 velocity=33 time=0
<meta message set_tempo tempo=489117 time=160>
note_on channel=0 note=59 velocity=0 time=0
note_on channel=0 note=71 velocity=0 time=0
note_on channel=0 note=44 velocity=0 time=0
note_on channel=0 note=51 velocity=0 time=0
note_on channel=0 note=71 velocity=41 time=0
note_on channel=0 note=56 velocity=35 time=0
note_on channel=0 note=51 velocity=29 time=0
note_on channel=0 note=44 velocity=29 time=0
control_change channel=0 control=64 value=0 time=7
note_on channel=0 note=56 velocity=0 time=7
control_change channel=0 control=64 value=0 time=1
control_change channel=0 control=64 value=127 time=98
note_on channel=0 note=59 velocity=28 time=47
note_on channel=0 note=59 velocity=0 time=160
note_on channel=0 note=63 velocity=28 time=0
note_on channel=0 note=63 velocity=0 time=160
note_on channel=0 note=68 velocity=30 time=0
note_on channel=0 note=68 velocity=0 time=160
note_on channel=0 note=63 velocity=25 time=0
note_on channel=0 note=63 velocity=0 time=160
note_on channel=0 note=59 velocity=25 time=0
<meta message set_tempo tempo=500167 time=140>
note_on channel=0 note=59 velocity=0 time=20
note_on channel=0 note=63 velocity=31 time=0
<meta message set_tempo tempo=502050 time=40>
<meta message set_tempo tempo=503948 time=60>
<meta message set_tempo tempo=505860 time=60>
note_on channel=0 note=63 velocity=0 time=0
note_on channel=0 note=59 velocity=25 time=0
<meta message set_tempo tempo=507786 time=60>
<meta message set_tempo tempo=509727 time=60>
note_on channel=0 note=59 velocity=0 time=40
note_on channel=0 note=63 velocity=25 time=0
<meta message set_tempo tempo=511727 time=20>
<meta message set_tempo tempo=513699 time=60>
<meta message set_tempo tempo=515685 time=60>
<meta message set_tempo tempo=540833 time=20>
note_on channel=0 note=63 velocity=0 time=0
note_on channel=0 note=68 velocity=29 time=0
note_on channel=0 note=68 velocity=0 time=160
note_on channel=0 note=63 velocity=25 time=0
note_on channel=0 note=44 velocity=0 time=80
note_on channel=0 note=42 velocity=43 time=0
note_on channel=0 note=63 velocity=0 time=80
note_on channel=0 note=59 velocity=25 time=0
<meta message set_tempo tempo=540833 time=160>
note_on channel=0 note=59 velocity=0 time=0
note_on channel=0 note=42 velocity=0 time=0
note_on channel=0 note=71 velocity=0 time=0
note_on channel=0 note=56 velocity=0 time=0
note_on channel=0 note=51 velocity=0 time=0
note_on channel=0 note=71 velocity=54 time=0
note_on channel=0 note=40 velocity=68 time=0
control_change channel=0 control=64 value=0 time=0
control_change channel=0 control=64 value=0 time=0
<meta message set_tempo tempo=532198 time=2>
<meta message set_tempo tempo=530035 time=60>
<meta message set_tempo tempo=527937 time=60>
control_change channel=0 control=64 value=127 time=5
note_on channel=0 note=59 velocity=33 time=33
<meta message set_tempo tempo=525855 time=22>
<meta message set_tempo tempo=523789 time=60>
<meta message set_tempo tempo=521739 time=60>
note_on channel=0 note=59 velocity=0 time=18
note_on channel=0 note=64 velocity=33 time=0
<meta message set_tempo tempo=519706 time=42>
<meta message set_tempo tempo=517688 time=40>
<meta message set_tempo tempo=517688 time=44>
note_on channel=0 note=64 velocity=0 time=34
note_on channel=0 note=68 velocity=37 time=0
<meta message set_tempo tempo=515685 time=6>
<meta message set_tempo tempo=513699 time=40>
<meta message set_tempo tempo=511727 time=40>
<meta message set_tempo tempo=509727 time=20>
<meta message set_tempo tempo=507786 time=40>
note_on channel=0 note=68 velocity=0 time=14
note_on channel=0 note=64 velocity=32 time=0
<meta message set_tempo tempo=505860 time=26>
<meta message set_tempo tempo=503948 time=40>
<meta message set_tempo tempo=502050 time=20>
<meta message set_tempo tempo=500167 time=40>
note_on channel=0 note=64 velocity=0 time=34
note_on channel=0 note=59 velocity=32 time=0
<meta message set_tempo tempo=498297 time=6>
<meta message set_tempo tempo=496442 time=40>
<meta message set_tempo tempo=494601 time=20>
<meta message set_tempo tempo=492773 time=40>
<meta message set_tempo tempo=490918 time=40>
note_on channel=0 note=59 velocity=0 time=14
note_on channel=0 note=64 velocity=39 time=0
<meta message set_tempo tempo=489117 time=26>
<meta message set_tempo tempo=487329 time=20>
<meta message set_tempo tempo=485555 time=40>
<meta message set_tempo tempo=483793 time=40>
note_on channel=0 note=64 velocity=0 time=34
note_on channel=0 note=59 velocity=33 time=0
<meta message set_tempo tempo=482044 time=6>
<meta message set_tempo tempo=480307 time=20>
<meta message set_tempo tempo=478583 time=40>
<meta message set_tempo tempo=476872 time=40>
note_on channel=0 note=59 velocity=0 time=54
note_on channel=0 note=64 velocity=33 time=0
<meta message set_tempo tempo=478583 time=146>
note_on channel=0 note=64 velocity=0 time=14
note_on channel=0 note=68 velocity=39 time=0
note_on channel=0 note=68 velocity=0 time=160
note_on channel=0 note=64 velocity=35 time=0
note_on channel=0 note=64 velocity=0 time=160
note_on channel=0 note=59 velocity=36 time=0
<meta message set_tempo tempo=468457 time=160>
note_on channel=0 note=59 velocity=0 time=0
note_on channel=0 note=40 velocity=0 time=0
note_on channel=0 note=71 velocity=0 time=0
note_on channel=0 note=71 velocity=49 time=0
note_on channel=0 note=39 velocity=55 time=0
control_change channel=0 control=64 value=0 time=14
control_change channel=0 control=64 value=127 time=123
note_on channel=0 note=59 velocity=37 time=23
note_on channel=0 note=59 velocity=0 time=160
note_on channel=0 note=63 velocity=40 time=0
<meta message set_tempo tempo=482044 time=160>
note_on channel=0 note=63 velocity=0 time=0
note_on channel=0 note=66 velocity=44 time=0
note_on channel=0 note=66 velocity=0 time=160
note_on channel=0 note=63 velocity=38 time=0
note_on channel=0 note=63 velocity=0 time=160
note_on channel=0 note=59 velocity=40 time=0
<meta message set_tempo tempo=490918 time=122>
<meta message set_tempo tempo=487329 time=38>
note_on channel=0 note=59 velocity=0 time=0
note_on channel=0 note=39 velocity=0 time=0
note_on channel=0 note=71 velocity=0 time=0
note_on channel=0 note=73 velocity=51 time=0
note_on channel=0 note=37 velocity=44 time=0
control_change channel=0 control=64 value=0 time=12
control_change channel=0 control=64 value=0 time=2
note_on channel=0 note=37 velocity=0 time=82
note_on channel=0 note=39 velocity=44 time=0
control_change channel=0 control=64 value=127 time=41
note_on channel=0 note=64 velocity=46 time=23
note_on channel=0 note=39 velocity=0 time=32
note_on channel=0 note=37 velocity=56 time=0
note_on channel=0 note=37 velocity=0 time=77
note_on channel=0 note=39 velocity=39 time=0
note_on channel=0 note=64 velocity=0 time=51
note_on channel=0 note=66 velocity=49 time=0
note_on channel=0 note=37 velocity=56 time=26
note_on channel=0 note=39 velocity=0 time=0
<meta message set_tempo tempo=485555 time=56>
note_on channel=0 note=37 velocity=0 time=21
note_on channel=0 note=39 velocity=39 time=0
note_on channel=0 note=66 velocity=0 time=57
note_on channel=0 note=70 velocity=58 time=0
<meta message set_tempo tempo=487329 time=2>
note_on channel=0 note=37 velocity=42 time=17
note_on channel=0 note=39 velocity=0 time=1
<meta message set_tempo tempo=489117 time=42>
note_on channel=0 note=37 velocity=0 time=34
note_on channel=0 note=39 velocity=44 time=0
<meta message set_tempo tempo=490918 time=46>
note_on channel=0 note=70 velocity=0 time=18
note_on channel=0 note=66 velocity=54 time=0
note_on channel=0 note=39 velocity=0 time=13
note_on channel=0 note=37 velocity=55 time=0
<meta message set_tempo tempo=492773 time=29>
note_on channel=0 note=35 velocity=46 time=73
note_on channel=0 note=37 velocity=0 time=1
<meta message set_tempo tempo=494601 time=6>
note_on channel=0 note=66 velocity=0 time=38
note_on channel=0 note=64 velocity=62 time=0
<meta message set_tempo tempo=496442 time=22>
note_on channel=0 note=35 velocity=0 time=36
note_on channel=0 note=37 velocity=56 time=0
<meta message set_tempo tempo=507786 time=28>
<meta message set_tempo tempo=511727 time=60>
note_on channel=0 note=37 velocity=0 time=14
note_on channel=0 note=64 velocity=0 time=0
note_on channel=0 note=73 velocity=0 time=0
note_on channel=0 note=76 velocity=69 time=0
note_on channel=0 note=35 velocity=67 time=0
control_change channel=0 control=64 value=0 time=5
<meta message set_tempo tempo=509727 time=41>
<meta message set_tempo tempo=507786 time=60>
control_change channel=0 control=64 value=127 time=21
note_on channel=0 note=64 velocity=49 time=33
<meta message set_tempo tempo=505860 time=6>
<meta message set_tempo tempo=503948 time=60>
<meta message set_tempo tempo=502050 time=40>
note_on channel=0 note=64 velocity=0 time=54
note_on channel=0 note=66 velocity=49 time=0
<meta message set_tempo tempo=505860 time=22>
<meta message set_tempo tempo=503948 time=80>
note_on channel=0 note=66 velocity=0 time=58
note_on channel=0 note=73 velocity=63 time=0
<meta message set_tempo tempo=502050 time=42>
<meta message set_tempo tempo=500167 time=80>
note_on channel=0 note=73 velocity=0 time=38
note_on channel=0 note=66 velocity=46 time=0
<meta message set_tempo tempo=498297 time=42>
<meta message set_tempo tempo=496442 time=80>
note_on channel=0 note=66 velocity=0 time=38
note_on channel=0 note=64 velocity=46 time=0
<meta message set_tempo tempo=494601 time=42>
<meta message set_tempo tempo=492773 time=80>
note_on channel=0 note=64 velocity=0 time=38
note_on channel=0 note=66 velocity=54 time=0
<meta message set_tempo tempo=490918 time=62>
<meta message set_tempo tempo=489117 time=80>
note_on channel=0 note=66 velocity=0 time=18
note_on channel=0 note=64 velocity=36 time=0
<meta message set_tempo tempo=487329 time=62>
<meta message set_tempo tempo=485555 time=80>
note_on channel=0 note=64 velocity=0 time=18
note_on channel=0 note=66 velocity=37 time=0
<meta message set_tempo tempo=483793 time=62>
<meta message set_tempo tempo=482044 time=80>
note_on channel=0 note=66 velocity=0 time=18
note_on channel=0 note=76 velocity=0 time=0
note_on channel=0 note=75 velocity=57 time=0
note_on channel=0 note=71 velocity=42 time=0
<meta message set_tempo tempo=487329 time=2>
<meta message set_tempo tempo=496442 time=18>
note_on channel=0 note=71 velocity=0 time=140
note_on channel=0 note=66 velocity=37 time=0
note_on channel=0 note=66 velocity=0 time=160
note_on channel=0 note=63 velocity=37 time=0
<meta message set_tempo tempo=489117 time=160>
note_on channel=0 note=63 velocity=0 time=0
note_on channel=0 note=75 velocity=0 time=0
note_on channel=0 note=75 velocity=45 time=0
control_change channel=0 control=64 value=0 time=7
note_on channel=0 note=63 velocity=31 time=153
control_change channel=0 control=64 value=127 time=10
note_on channel=0 note=63 velocity=0 time=150
note_on channel=0 note=66 velocity=31 time=0
note_on channel=0 note=66 velocity=0 time=160
note_on channel=0 note=71 velocity=34 time=0
note_on channel=0 note=71 velocity=0 time=160
note_on channel=0 note=66 velocity=28 time=0
note_on channel=0 note=66 velocity=0 time=160
note_on channel=0 note=63 velocity=28 time=0
<meta message set_tempo tempo=500167 time=140>
<meta message set_tempo tempo=490918 time=12>
note_on channel=0 note=63 velocity=0 time=8
note_on channel=0 note=66 velocity=35 time=0
<meta message set_tempo tempo=492773 time=72>
<meta message set_tempo tempo=494601 time=80>
note_on channel=0 note=66 velocity=0 time=8
note_on channel=0 note=63 velocity=28 time=0
<meta message set_tempo tempo=496442 time=32>
<meta message set_tempo tempo=498297 time=80>
<meta message set_tempo tempo=500167 time=40>
note_on channel=0 note=63 velocity=0 time=8
note_on channel=0 note=66 velocity=28 time=0
<meta message set_tempo tempo=502050 time=72>
<meta message set_tempo tempo=503948 time=40>
<meta message set_tempo tempo=515685 time=28>
<meta message set_tempo tempo=540833 time=20>
note_on channel=0 note=66 velocity=0 time=0
note_on channel=0 note=71 velocity=34 time=0
note_on channel=0 note=71 velocity=0 time=160
note_on channel=0 note=66 velocity=28 time=0
note_on channel=0 note=66 velocity=0 time=160
note_on channel=0 note=63 velocity=28 time=0
<meta message set_tempo tempo=521739 time=150>
note_on channel=0 note=63 velocity=0 time=10
note_on channel=0 note=75 velocity=0 time=0
note_on channel=0 note=35 velocity=0 time=0
note_on channel=0 note=75 velocity=47 time=0
note_on channel=0 note=54 velocity=35 time=0
control_change channel=0 control=64 value=0 time=0
note_on channel=0 note=47 velocity=29 time=4
<meta message set_tempo tempo=519706 time=46>
<meta message set_tempo tempo=517688 time=40>
control_change channel=0 control=64 value=127 time=37
<meta message set_tempo tempo=515685 time=3>
note_on channel=0 note=63 velocity=32 time=30
<meta message set_tempo tempo=513699 time=30>
<meta message set_tempo tempo=511727 time=40>
<meta message set_tempo tempo=509727 time=40>
note_on channel=0 note=63 velocity=0 time=50
note_on channel=0 note=66 velocity=32 time=0
<meta message set_tempo tempo=507786 time=10>
<meta message set_tempo tempo=505860 time=40>
<meta message set_tempo tempo=503948 time=40>
<meta message set_tempo tempo=502050 time=60>
note_on channel=0 note=66 velocity=0 time=10
note_on channel=0 note=71 velocity=32 time=0
<meta message set_tempo tempo=500167 time=30>
<meta message set_tempo tempo=498297 time=40>
<meta message set_tempo tempo=496442 time=60>
note_on channel=0 note=71 velocity=0 time=30
note_on channel=0 note=66 velocity=32 time=0
<meta message set_tempo tempo=494601 time=10>
<meta message set_tempo tempo=492773 time=40>
<meta message set_tempo tempo=490918 time=60>
<meta message set_tempo tempo=489117 time=40>
note_on channel=0 note=66 velocity=0 time=10
note_on channel=0 note=63 velocity=43 time=0
<meta message set_tempo tempo=487329 time=30>
<meta message set_tempo tempo=485555 time=60>
<meta message set_tempo tempo=483793 time=40>
note_on channel=0 note=63 velocity=0 time=30
note_on channel=0 note=66 velocity=31 time=0
note_on channel=0 note=66 velocity=0 time=160
note_on channel=0 note=63 velocity=31 time=0
note_on channel=0 note=63 velocity=0 time=160
note_on channel=0 note=66 velocity=31 time=0
<meta message set_tempo tempo=485555 time=80>
<meta message set_tempo tempo=483793 time=60>
<meta message set_tempo tempo=478583 time=20>
note_on channel=0 note=66 velocity=0 time=0
note_on channel=0 note=71 velocity=36 time=0
note_on channel=0 note=71 velocity=0 time=160
note_on channel=0 note=66 velocity=30 time=0
note_on channel=0 note=66 velocity=0 time=160
note_on channel=0 note=63 velocity=30 time=0
<meta message set_tempo tempo=487329 time=160>
note_on channel=0 note=63 velocity=0 time=0
note_on channel=0 note=75 velocity=0 time=0
note_on channel=0 note=54 velocity=0 time=0
note_on channel=0 note=75 velocity=46 time=0
note_on channel=0 note=47 velocity=29 time=0
note_on channel=0 note=56 velocity=35 time=0
note_on channel=0 note=47 velocity=0 time=4
control_change channel=0 control=64 value=0 time=11
control_change channel=0 control=64 value=127 time=98
<meta message set_tempo tempo=480307 time=7>
note_on channel=0 note=68 velocity=29 time=40
note_on channel=0 note=68 velocity=0 time=160
note_on channel=0 note=65 velocity=29 time=0
note_on channel=0 note=65 velocity=0 time=160
note_on channel=0 note=75 velocity=0 time=0
note_on channel=0 note=71 velocity=43 time=0
<meta message set_tempo tempo=483793 time=120>
note_on channel=0 note=68 velocity=28 time=40
note_on channel=0 note=68 velocity=0 time=160
note_on channel=0 note=65 velocity=28 time=0
<meta message set_tempo tempo=489117 time=160>
note_on channel=0 note=65 velocity=0 time=0
note_on channel=0 note=71 velocity=0 time=0
note_on channel=0 note=56 velocity=0 time=0
note_on channel=0 note=70 velocity=43 time=0
note_on channel=0 note=53 velocity=35 time=0
control_change channel=0 control=64 value=0 time=12
control_change channel=0 control=64 value=127 time=94
note_on channel=0 note=65 velocity=28 time=54
note_on channel=0 note=65 velocity=0 time=160
note_on channel=0 note=61 velocity=28 time=0
<meta message set_tempo tempo=490918 time=160>
note_on channel=0 note=61 velocity=0 time=0
note_on channel=0 note=70 velocity=0 time=0
note_on channel=0 note=68 velocity=39 time=0
note_on channel=0 note=65 velocity=28 time=160
note_on channel=0 note=65 velocity=0 time=160
note_on channel=0 note=61 velocity=28 time=0
<meta message set_tempo tempo=507786 time=150>
note_on channel=0 note=61 velocity=0 time=10
note_on channel=0 note=68 velocity=0 time=0
note_on channel=0 note=53 velocity=0 time=0
note_on channel=0 note=47 velocity=0 time=0
note_on channel=0 note=73 velocity=47 time=0
note_on channel=0 note=54 velocity=35 time=0
note_on channel=0 note=46 velocity=29 time=0
control_change channel=0 control=64 value=0 time=0
<meta message set_tempo tempo=505860 time=70>
control_change channel=0 control=64 value=127 time=57
<meta message set_tempo tempo=503948 time=3>
note_on channel=0 note=61 velocity=32 time=30
<meta message set_tempo tempo=502050 time=30>
<meta message set_tempo tempo=500167 time=60>
<meta message set_tempo tempo=498297 time=60>
note_on channel=0 note=61 velocity=0 time=10
note_on channel=0 note=66 velocity=32 time=0
<meta message set_tempo tempo=496442 time=70>
<meta message set_tempo tempo=494601 time=60>
note_on channel=0 note=66 velocity=0 time=30
note_on channel=0 note=70 velocity=42 time=0
<meta message set_tempo tempo=492773 time=30>
<meta message set_tempo tempo=490918 time=60>
<meta message set_tempo tempo=489117 time=60>
note_on channel=0 note=70 velocity=0 time=10
note_on channel=0 note=66 velocity=32 time=0
<meta message set_tempo tempo=487329 time=70>
<meta message set_tempo tempo=485555 time=60>
note_on channel=0 note=66 velocity=0 time=30
note_on channel=0 note=61 velocity=32 time=0
<meta message set_tempo tempo=483793 time=30>
<meta message set_tempo tempo=482044 time=60>
<meta message set_tempo tempo=480307 time=60>
<meta message set_tempo tempo=475172 time=10>
note_on channel=0 note=61 velocity=0 time=0
note_on channel=0 note=66 velocity=35 time=0
note_on channel=0 note=66 velocity=0 time=160
note_on channel=0 note=61 velocity=31 time=0
note_on channel=0 note=61 velocity=0 time=160
note_on channel=0 note=66 velocity=31 time=0
<meta message set_tempo tempo=485555 time=80>
<meta message set_tempo tempo=483793 time=60>
<meta message set_tempo tempo=483793 time=20>
note_on channel=0 note=66 velocity=0 time=0
note_on channel=0 note=70 velocity=36 time=0
note_on channel=0 note=70 velocity=0 time=160
note_on channel=0 note=66 velocity=30 time=0
note_on channel=0 note=66 velocity=0 time=160
note_on channel=0 note=61 velocity=30 time=0
<meta message set_tempo tempo=487329 time=160>
note_on channel=0 note=61 velocity=0 time=0
note_on channel=0 note=73 velocity=0 time=0
note_on channel=0 note=54 velocity=0 time=0
note_on channel=0 note=46 velocity=0 time=0
note_on channel=0 note=73 velocity=46 time=0
note_on channel=0 note=54 velocity=35 time=0
note_on channel=0 note=47 velocity=29 time=0
control_change channel=0 control=64 value=0 time=15
control_change channel=0 control=64 value=127 time=98
<meta message set_tempo tempo=482044 time=7>
note_on channel=0 note=66 velocity=29 time=40
note_on channel=0 note=66 velocity=0 time=160
note_on channel=0 note=63 velocity=29 time=0
<meta message set_tempo tempo=485555 time=160>
note_on channel=0 note=63 velocity=0 time=0
note_on channel=0 note=73 velocity=0 time=0
note_on channel=0 note=71 velocity=43 time=0
note_on channel=0 note=66 velocity=28 time=160
note_on channel=0 note=66 velocity=0 time=160
note_on channel=0 note=63 velocity=28 time=0
<meta message set_tempo tempo=489117 time=160>
note_on channel=0 note=63 velocity=0 time=0
note_on channel=0 note=71 velocity=0 time=0
note_on channel=0 note=54 velocity=0 time=0
note_on channel=0 note=68 velocity=43 time=0
note_on channel=0 note=56 velocity=35 time=0
control_change channel=0 control=64 value=0 time=12
control_change channel=0 control=64 value=127 time=94
note_on channel=0 note=63 velocity=28 time=54
note_on channel=0 note=63 velocity=0 time=160
note_on channel=0 note=59 velocity=28 time=0
<meta message set_tempo tempo=517688 time=160>
note_on channel=0 note=59 velocity=0 time=0
note_on channel=0 note=68 velocity=0 time=0
note_on channel=0 note=63 velocity=39 time=0
note_on channel=0 note=59 velocity=28 time=160
note_on channel=0 note=56 velocity=0 time=150
note_on channel=0 note=59 velocity=0 time=10
note_on channel=0 note=56 velocity=28 time=0
<meta message set_tempo tempo=507786 time=160>
note_on channel=0 note=56 velocity=0 time=0
note_on channel=0 note=63 velocity=0 time=0
note_on channel=0 note=47 velocity=0 time=0
note_on channel=0 note=66 velocity=47 time=0
note_on channel=0 note=49 velocity=35 time=0
control_change channel=0 control=64 value=0 time=0
<meta message set_tempo tempo=505860 time=70>
control_change channel=0 control=64 value=127 time=57
<meta message set_tempo tempo=503948 time=3>
note_on channel=0 note=54 velocity=29 time=30
<meta message set_tempo tempo=502050 time=30>
<meta message set_tempo tempo=500167 time=60>
<meta message set_tempo tempo=498297 time=60>
note_on channel=0 note=54 velocity=0 time=10
note_on channel=0 note=58 velocity=29 time=0
<meta message set_tempo tempo=496442 time=70>
<meta message set_tempo tempo=494601 time=60>
note_on channel=0 note=58 velocity=0 time=30
note_on channel=0 note=61 velocity=38 time=0
<meta message set_tempo tempo=492773 time=30>
<meta message set_tempo tempo=490918 time=60>
<meta message set_tempo tempo=489117 time=60>
note_on channel=0 note=61 velocity=0 time=10
note_on channel=0 note=58 velocity=29 time=0
<meta message set_tempo tempo=487329 time=70>
<meta message set_tempo tempo=485555 time=60>
note_on channel=0 note=58 velocity=0 time=30
note_on channel=0 note=54 velocity=31 time=0
<meta message set_tempo tempo=483793 time=30>
<meta message set_tempo tempo=482044 time=60>
<meta message set_tempo tempo=480307 time=60>
note_on channel=0 note=54 velocity=0 time=10
note_on channel=0 note=58 velocity=35 time=0
note_on channel=0 note=58 velocity=0 time=160
note_on channel=0 note=54 velocity=30 time=0
note_on channel=0 note=54 velocity=0 time=160
note_on channel=0 note=58 velocity=30 time=0
<meta message set_tempo tempo=485555 time=80>
<meta message set_tempo tempo=483793 time=60>
<meta message set_tempo tempo=483793 time=20>
note_on channel=0 note=58 velocity=0 time=0
note_on channel=0 note=61 velocity=36 time=0
note_on channel=0 note=61 velocity=0 time=160
note_on channel=0 note=58 velocity=30 time=0
note_on channel=0 note=58 velocity=0 time=160
note_on channel=0 note=54 velocity=30 time=0
note_on channel=0 note=37 velocity=35 time=40
<meta message set_tempo tempo=487329 time=120>
note_on channel=0 note=37 velocity=0 time=0
note_on channel=0 note=66 velocity=0 time=0
note_on channel=0 note=49 velocity=0 time=0
note_on channel=0 note=54 velocity=0 time=0
note_on channel=0 note=66 velocity=45 time=0
note_on channel=0 note=49 velocity=42 time=0
control_change channel=0 control=64 value=0 time=15
control_change channel=0 control=64 value=127 time=98
note_on channel=0 note=59 velocity=29 time=47
note_on channel=0 note=59 velocity=0 time=160
note_on channel=0 note=56 velocity=29 time=0
note_on channel=0 note=56 velocity=0 time=160
note_on channel=0 note=66 velocity=0 time=0
note_on channel=0 note=65 velocity=41 time=0
note_on channel=0 note=59 velocity=28 time=160
note_on channel=0 note=59 velocity=0 time=160
note_on channel=0 note=56 velocity=28 time=0
<meta message set_tempo tempo=489117 time=160>
note_on channel=0 note=56 velocity=0 time=0
note_on channel=0 note=65 velocity=0 time=0
note_on channel=0 note=70 velocity=42 time=0
note_on channel=0 note=54 velocity=35 time=0
control_change channel=0 control=64 value=0 time=12
control_change channel=0 control=64 value=127 time=94
note_on channel=0 note=61 velocity=28 time=54
note_on channel=0 note=61 velocity=0 time=160
note_on channel=0 note=59 velocity=28 time=0
<meta message set_tempo tempo=517688 time=160>
note_on channel=0 note=59 velocity=0 time=0
note_on channel=0 note=54 velocity=0 time=0
note_on channel=0 note=70 velocity=0 time=0
note_on channel=0 note=68 velocity=39 time=0
note_on channel=0 note=53 velocity=35 time=0
note_on channel=0 note=61 velocity=26 time=160
note_on channel=0 note=61 velocity=0 time=160
note_on channel=0 note=59 velocity=26 time=0
<meta message set_tempo tempo=507786 time=160>
note_on channel=0 note=59 velocity=0 time=0
note_on channel=0 note=53 velocity=0 time=0
note_on channel=0 note=68 velocity=0 time=0
note_on channel=0 note=49 velocity=0 time=0
note_on channel=0 note=71 velocity=47 time=0
note_on channel=0 note=51 velocity=30 time=0
note_on channel=0 note=54 velocity=35 time=0
control_change channel=0 control=64 value=0 time=0
<meta message set_tempo tempo=505860 time=70>
control_change channel=0 control=64 value=127 time=57
<meta message set_tempo tempo=503948 time=3>
note_on channel=0 note=59 velocity=29 time=30
<meta message set_tempo tempo=502050 time=30>
<meta message set_tempo tempo=500167 time=60>
<meta message set_tempo tempo=498297 time=60>
note_on channel=0 note=59 velocity=0 time=10
note_on channel=0 note=63 velocity=29 time=0
<meta message set_tempo tempo=496442 time=70>
<meta message set_tempo tempo=494601 time=60>
note_on channel=0 note=63 velocity=0 time=30
note_on channel=0 note=66 velocity=29 time=0
<meta message set_tempo tempo=492773 time=30>
<meta message set_tempo tempo=490918 time=60>
<meta message set_tempo tempo=489117 time=60>
note_on channel=0 note=66 velocity=0 time=10
note_on channel=0 note=63 velocity=29 time=0
<meta message set_tempo tempo=487329 time=70>
<meta message set_tempo tempo=485555 time=60>
note_on channel=0 note=63 velocity=0 time=30
note_on channel=0 note=59 velocity=26 time=0
<meta message set_tempo tempo=483793 time=30>
<meta message set_tempo tempo=482044 time=60>
<meta message set_tempo tempo=480307 time=60>
<meta message set_tempo tempo=475172 time=10>
note_on channel=0 note=59 velocity=0 time=0
note_on channel=0 note=63 velocity=36 time=0
note_on channel=0 note=63 velocity=0 time=160
note_on channel=0 note=59 velocity=30 time=0
note_on channel=0 note=59 velocity=0 time=160
note_on channel=0 note=63 velocity=30 time=0
<meta message set_tempo tempo=485555 time=80>
<meta message set_tempo tempo=483793 time=60>
<meta message set_tempo tempo=483793 time=20>
note_on channel=0 note=63 velocity=0 time=0
note_on channel=0 note=66 velocity=48 time=0
note_on channel=0 note=66 velocity=0 time=160
note_on channel=0 note=63 velocity=37 time=0
note_on channel=0 note=63 velocity=0 time=160
note_on channel=0 note=59 velocity=37 time=0
<meta message set_tempo tempo=507786 time=160>
note_on channel=0 note=59 velocity=0 time=0
note_on channel=0 note=71 velocity=0 time=0
note_on channel=0 note=51 velocity=0 time=0
note_on channel=0 note=54 velocity=0 time=0
note_on channel=0 note=73 velocity=58 time=0
note_on channel=0 note=54 velocity=35 time=0
note_on channel=0 note=58 velocity=42 time=0
control_change channel=0 control=64 value=0 time=0
<meta message set_tempo tempo=505860 time=70>
control_change channel=0 control=64 value=127 time=57
<meta message set_tempo tempo=503948 time=3>
note_on channel=0 note=64 velocity=41 time=30
<meta message set_tempo tempo=502050 time=30>
<meta message set_tempo tempo=500167 time=60>
<meta message set_tempo tempo=498297 time=60>
note_on channel=0 note=64 velocity=0 time=10
note_on channel=0 note=66 velocity=36 time=0
<meta message set_tempo tempo=496442 time=70>
<meta message set_tempo tempo=494601 time=60>
note_on channel=0 note=66 velocity=0 time=30
note_on channel=0 note=70 velocity=54 time=0
<meta message set_tempo tempo=492773 time=30>
<meta message set_tempo tempo=490918 time=60>
<meta message set_tempo tempo=489117 time=60>
note_on channel=0 note=70 velocity=0 time=10
note_on channel=0 note=66 velocity=44 time=0
<meta message set_tempo tempo=487329 time=70>
<meta message set_tempo tempo=485555 time=60>
note_on channel=0 note=66 velocity=0 time=30
note_on channel=0 note=64 velocity=45 time=0
<meta message set_tempo tempo=483793 time=30>
<meta message set_tempo tempo=482044 time=60>
<meta message set_tempo tempo=480307 time=60>
note_on channel=0 note=64 velocity=0 time=10
note_on channel=0 note=73 velocity=0 time=0
note_on channel=0 note=74 velocity=67 time=0
control_change channel=0 control=64 value=0 time=14
control_change channel=0 control=64 value=127 time=123
note_on channel=0 note=64 velocity=44 time=23
note_on channel=0 note=64 velocity=0 time=160
note_on channel=0 note=66 velocity=44 time=0
<meta message set_tempo tempo=485555 time=80>
<meta message set_tempo tempo=483793 time=60>
<meta message set_tempo tempo=505860 time=20>
note_on channel=0 note=66 velocity=0 time=0
note_on channel=0 note=70 velocity=56 time=0
note_on channel=0 note=70 velocity=0 time=160
note_on channel=0 note=66 velocity=51 time=0
note_on channel=0 note=66 velocity=0 time=160
note_on channel=0 note=64 velocity=53 time=0
<meta message set_tempo tempo=521739 time=160>
note_on channel=0 note=64 velocity=0 time=0
note_on channel=0 note=54 velocity=0 time=0
note_on channel=0 note=58 velocity=0 time=0
note_on channel=0 note=74 velocity=0 time=0
note_on channel=0 note=75 velocity=71 time=0
note_on channel=0 note=47 velocity=46 time=0
note_on channel=0 note=54 velocity=46 time=0
note_on channel=0 note=59 velocity=57 time=0
control_change channel=0 control=64 value=0 time=0
<meta message set_tempo tempo=519706 time=50>
<meta message set_tempo tempo=517688 time=40>
control_change channel=0 control=64 value=127 time=37
<meta message set_tempo tempo=515685 time=3>
note_on channel=0 note=63 velocity=38 time=30
<meta message set_tempo tempo=513699 time=30>
<meta message set_tempo tempo=511727 time=40>
<meta message set_tempo tempo=509727 time=40>
note_on channel=0 note=63 velocity=0 time=50
note_on channel=0 note=66 velocity=37 time=0
<meta message set_tempo tempo=507786 time=10>
<meta message set_tempo tempo=505860 time=40>
<meta message set_tempo tempo=503948 time=40>
<meta message set_tempo tempo=502050 time=60>
note_on channel=0 note=66 velocity=0 time=10
note_on channel=0 note=71 velocity=42 time=0
<meta message set_tempo tempo=500167 time=30>
<meta message set_tempo tempo=498297 time=40>
<meta message set_tempo tempo=496442 time=60>
note_on channel=0 note=71 velocity=0 time=30
note_on channel=0 note=66 velocity=36 time=0
<meta message set_tempo tempo=494601 time=10>
<meta message set_tempo tempo=492773 time=40>
<meta message set_tempo tempo=490918 time=60>
<meta message set_tempo tempo=489117 time=40>
note_on channel=0 note=66 velocity=0 time=10
note_on channel=0 note=63 velocity=36 time=0
<meta message set_tempo tempo=487329 time=30>
<meta message set_tempo tempo=485555 time=60>
<meta message set_tempo tempo=483793 time=40>
note_on channel=0 note=63 velocity=0 time=30
note_on channel=0 note=66 velocity=38 time=0
note_on channel=0 note=66 velocity=0 time=160
note_on channel=0 note=63 velocity=33 time=0
note_on channel=0 note=63 velocity=0 time=160
note_on channel=0 note=66 velocity=33 time=0
<meta message set_tempo tempo=485555 time=80>
<meta message set_tempo tempo=483793 time=60>
<meta message set_tempo tempo=483793 time=20>
note_on channel=0 note=66 velocity=0 time=0
note_on channel=0 note=71 velocity=37 time=0
note_on channel=0 note=71 velocity=0 time=160
note_on channel=0 note=66 velocity=31 time=0
note_on channel=0 note=66 velocity=0 time=160
note_on channel=0 note=63 velocity=30 time=0
<meta message set_tempo tempo=487329 time=160>
note_on channel=0 note=63 velocity=0 time=0
note_on channel=0 note=54 velocity=0 time=0
note_on channel=0 note=75 velocity=0 time=0
note_on channel=0 note=47 velocity=0 time=0
note_on channel=0 note=59 velocity=0 time=0
note_on channel=0 note=75 velocity=50 time=0
note_on channel=0 note=47 velocity=29 time=0
note_on channel=0 note=56 velocity=35 time=0
control_change channel=0 control=64 value=0 time=15
control_change channel=0 control=64 value=127 time=98
note_on channel=0 note=68 velocity=29 time=47
note_on channel=0 note=68 velocity=0 time=160
note_on channel=0 note=65 velocity=29 time=0
note_on channel=0 note=65 velocity=0 time=160
note_on channel=0 note=75 velocity=0 time=0
note_on channel=0 note=74 velocity=48 time=0
note_on channel=0 note=68 velocity=28 time=160
note_on channel=0 note=68 velocity=0 time=160
note_on channel=0 note=65 velocity=28 time=0
<meta message set_tempo tempo=489117 time=160>
note_on channel=0 note=65 velocity=0 time=0
note_on channel=0 note=74 velocity=0 time=0
note_on channel=0 note=56 velocity=0 time=0
note_on channel=0 note=71 velocity=42 time=0
note_on channel=0 note=53 velocity=35 time=0
control_change channel=0 control=64 value=0 time=12
control_change channel=0 control=64 value=127 time=94
note_on channel=0 note=65 velocity=28 time=54
note_on channel=0 note=65 velocity=0 time=160
note_on channel=0 note=62 velocity=28 time=0
<meta message set_tempo tempo=490918 time=160>
note_on channel=0 note=62 velocity=0 time=0
note_on channel=0 note=71 velocity=0 time=0
note_on channel=0 note=68 velocity=39 time=0
note_on channel=0 note=65 velocity=28 time=160
note_on channel=0 note=65 velocity=0 time=160
note_on channel=0 note=61 velocity=28 time=0
<meta message set_tempo tempo=507786 time=150>
note_on channel=0 note=61 velocity=0 time=10
note_on channel=0 note=68 velocity=0 time=0
note_on channel=0 note=53 velocity=0 time=0
note_on channel=0 note=47 velocity=0 time=0
note_on channel=0 note=73 velocity=47 time=0
note_on channel=0 note=54 velocity=35 time=0
note_on channel=0 note=46 velocity=29 time=0
control_change channel=0 control=64 value=0 time=0
<meta message set_tempo tempo=505860 time=70>
control_change channel=0 control=64 value=127 time=57
<meta message set_tempo tempo=503948 time=3>
note_on channel=0 note=61 velocity=32 time=30
<meta message set_tempo tempo=502050 time=30>
<meta message set_tempo tempo=500167 time=60>
<meta message set_tempo tempo=498297 time=60>
note_on channel=0 note=61 velocity=0 time=10
note_on channel=0 note=66 velocity=32 time=0
<meta message set_tempo tempo=496442 time=70>
<meta message set_tempo tempo=494601 time=60>
note_on channel=0 note=66 velocity=0 time=30
note_on channel=0 note=70 velocity=36 time=0
<meta message set_tempo tempo=492773 time=30>
<meta message set_tempo tempo=490918 time=60>
<meta message set_tempo tempo=489117 time=60>
note_on channel=0 note=70 velocity=0 time=10
note_on channel=0 note=66 velocity=32 time=0
<meta message set_tempo tempo=487329 time=70>
<meta message set_tempo tempo=485555 time=60>
note_on channel=0 note=66 velocity=0 time=30
note_on channel=0 note=61 velocity=32 time=0
<meta message set_tempo tempo=483793 time=30>
<meta message set_tempo tempo=482044 time=60>
<meta message set_tempo tempo=480307 time=60>
note_on channel=0 note=61 velocity=0 time=10
note_on channel=0 note=66 velocity=36 time=0
note_on channel=0 note=66 velocity=0 time=160
note_on channel=0 note=61 velocity=31 time=0
note_on channel=0 note=61 velocity=0 time=160
note_on channel=0 note=66 velocity=31 time=0
<meta message set_tempo tempo=485555 time=80>
<meta message set_tempo tempo=483793 time=60>
<meta message set_tempo tempo=483793 time=20>
note_on channel=0 note=66 velocity=0 time=0
note_on channel=0 note=70 velocity=36 time=0
note_on channel=0 note=70 velocity=0 time=160
note_on channel=0 note=66 velocity=30 time=0
note_on channel=0 note=66 velocity=0 time=160
note_on channel=0 note=61 velocity=30 time=0
<meta message set_tempo tempo=487329 time=160>
note_on channel=0 note=61 velocity=0 time=0
note_on channel=0 note=73 velocity=0 time=0
note_on channel=0 note=54 velocity=0 time=0
note_on channel=0 note=46 velocity=0 time=0
note_on channel=0 note=73 velocity=46 time=0
note_on channel=0 note=55 velocity=35 time=0
note_on channel=0 note=47 velocity=29 time=0
control_change channel=0 control=64 value=0 time=15
control_change channel=0 control=64 value=127 time=98
<meta message set_tempo tempo=476872 time=7>
note_on channel=0 note=67 velocity=29 time=40
note_on channel=0 note=67 velocity=0 time=160
note_on channel=0 note=63 velocity=29 time=0
<meta message set_tempo tempo=494601 time=160>
note_on channel=0 note=63 velocity=0 time=0
note_on channel=0 note=55 velocity=0 time=0
note_on channel=0 note=73 velocity=0 time=0
note_on channel=0 note=71 velocity=43 time=0
note_on channel=0 note=56 velocity=35 time=0
note_on channel=0 note=68 velocity=28 time=160
note_on channel=0 note=68 velocity=0 time=160
note_on channel=0 note=63 velocity=28 time=0
<meta message set_tempo tempo=489117 time=160>
note_on channel=0 note=63 velocity=0 time=0
note_on channel=0 note=56 velocity=0 time=0
note_on channel=0 note=71 velocity=0 time=0
note_on channel=0 note=68 velocity=43 time=0
note_on channel=0 note=51 velocity=35 time=0
control_change channel=0 control=64 value=0 time=12
control_change channel=0 control=64 value=127 time=94
note_on channel=0 note=63 velocity=28 time=54
note_on channel=0 note=63 velocity=0 time=160
note_on channel=0 note=59 velocity=28 time=0
<meta message set_tempo tempo=517688 time=160>
note_on channel=0 note=59 velocity=0 time=0
note_on channel=0 note=68 velocity=0 time=0
note_on channel=0 note=47 velocity=0 time=0
note_on channel=0 note=63 velocity=39 time=0
note_on channel=0 note=48 velocity=29 time=0
note_on channel=0 note=60 velocity=28 time=160
note_on channel=0 note=60 velocity=0 time=160
note_on channel=0 note=56 velocity=28 time=0
<meta message set_tempo tempo=507786 time=160>
note_on channel=0 note=56 velocity=0 time=0
note_on channel=0 note=48 velocity=0 time=0
note_on channel=0 note=63 velocity=0 time=0
note_on channel=0 note=51 velocity=0 time=0
note_on channel=0 note=66 velocity=47 time=0
note_on channel=0 note=49 velocity=35 time=0
control_change channel=0 control=64 value=0 time=0
<meta message set_tempo tempo=505860 time=70>
control_change channel=0 control=64 value=127 time=57
<meta message set_tempo tempo=503948 time=3>
note_on channel=0 note=54 velocity=29 time=30
<meta message set_tempo tempo=502050 time=30>
<meta message set_tempo tempo=500167 time=60>
<meta message set_tempo tempo=498297 time=60>
note_on channel=0 note=54 velocity=0 time=10
note_on channel=0 note=58 velocity=29 time=0
<meta message set_tempo tempo=496442 time=70>
<meta message set_tempo tempo=494601 time=60>
note_on channel=0 note=58 velocity=0 time=30
note_on channel=0 note=61 velocity=34 time=0
<meta message set_tempo tempo=492773 time=30>
<meta message set_tempo tempo=490918 time=60>
<meta message set_tempo tempo=489117 time=60>
note_on channel=0 note=61 velocity=0 time=10
note_on channel=0 note=58 velocity=29 time=0
<meta message set_tempo tempo=487329 time=70>
<meta message set_tempo tempo=485555 time=60>
note_on channel=0 note=58 velocity=0 time=30
note_on channel=0 note=54 velocity=30 time=0
<meta message set_tempo tempo=483793 time=30>
<meta message set_tempo tempo=482044 time=60>
<meta message set_tempo tempo=480307 time=60>
note_on channel=0 note=54 velocity=0 time=10
note_on channel=0 note=58 velocity=34 time=0
note_on channel=0 note=58 velocity=0 time=160
note_on channel=0 note=54 velocity=30 time=0
note_on channel=0 note=54 velocity=0 time=160
note_on channel=0 note=58 velocity=30 time=0
<meta message set_tempo tempo=485555 time=80>
<meta message set_tempo tempo=483793 time=60>
<meta message set_tempo tempo=483793 time=20>
note_on channel=0 note=58 velocity=0 time=0
note_on channel=0 note=61 velocity=36 time=0
note_on channel=0 note=61 velocity=0 time=160
note_on channel=0 note=58 velocity=30 time=0
note_on channel=0 note=58 velocity=0 time=160
note_on channel=0 note=54 velocity=30 time=0
note_on channel=0 note=37 velocity=35 time=40
<meta message set_tempo tempo=487329 time=120>
note_on channel=0 note=37 velocity=0 time=0
note_on channel=0 note=66 velocity=0 time=0
note_on channel=0 note=49 velocity=0 time=0
note_on channel=0 note=54 velocity=0 time=0
note_on channel=0 note=66 velocity=45 time=0
note_on channel=0 note=49 velocity=35 time=0
control_change channel=0 control=64 value=0 time=15
control_change channel=0 control=64 value=127 time=98
note_on channel=0 note=59 velocity=29 time=47
note_on channel=0 note=59 velocity=0 time=160
note_on channel=0 note=56 velocity=29 time=0
note_on channel=0 note=56 velocity=0 time=160
note_on channel=0 note=66 velocity=0 time=0
note_on channel=0 note=65 velocity=41 time=0
note_on channel=0 note=59 velocity=28 time=160
note_on channel=0 note=59 velocity=0 time=160
note_on channel=0 note=56 velocity=28 time=0
<meta message set_tempo tempo=489117 time=160>
note_on channel=0 note=56 velocity=0 time=0
note_on channel=0 note=65 velocity=0 time=0
note_on channel=0 note=70 velocity=42 time=0
note_on channel=0 note=54 velocity=35 time=0
control_change channel=0 control=64 value=0 time=12
control_change channel=0 control=64 value=127 time=94
note_on channel=0 note=61 velocity=28 time=54
note_on channel=0 note=61 velocity=0 time=160
note_on channel=0 note=59 velocity=28 time=0
<meta message set_tempo tempo=517688 time=160>
note_on channel=0 note=59 velocity=0 time=0
note_on channel=0 note=54 velocity=0 time=0
note_on channel=0 note=70 velocity=0 time=0
note_on channel=0 note=68 velocity=39 time=0
note_on channel=0 note=53 velocity=35 time=0
note_on channel=0 note=61 velocity=26 time=160
note_on channel=0 note=61 velocity=0 time=160
note_on channel=0 note=59 velocity=26 time=0
<meta message set_tempo tempo=507786 time=160>
note_on channel=0 note=59 velocity=0 time=0
note_on channel=0 note=53 velocity=0 time=0
note_on channel=0 note=68 velocity=0 time=0
note_on channel=0 note=49 velocity=0 time=0
note_on channel=0 note=66 velocity=47 time=0
note_on channel=0 note=42 velocity=35 time=0
control_change channel=0 control=64 value=0 time=0
<meta message set_tempo tempo=505860 time=70>
control_change channel=0 control=64 value=127 time=57
<meta message set_tempo tempo=503948 time=3>
note_on channel=0 note=54 velocity=29 time=30
<meta message set_tempo tempo=502050 time=30>
<meta message set_tempo tempo=500167 time=60>
<meta message set_tempo tempo=498297 time=60>
note_on channel=0 note=54 velocity=0 time=10
note_on channel=0 note=58 velocity=29 time=0
<meta message set_tempo tempo=496442 time=70>
<meta message set_tempo tempo=494601 time=60>
note_on channel=0 note=58 velocity=0 time=30
note_on channel=0 note=61 velocity=33 time=0
<meta message set_tempo tempo=492773 time=30>
<meta message set_tempo tempo=490918 time=60>
<meta message set_tempo tempo=489117 time=60>
note_on channel=0 note=61 velocity=0 time=10
note_on channel=0 note=58 velocity=29 time=0
<meta message set_tempo tempo=487329 time=70>
<meta message set_tempo tempo=485555 time=60>
note_on channel=0 note=58 velocity=0 time=30
note_on channel=0 note=54 velocity=29 time=0
<meta message set_tempo tempo=483793 time=30>
<meta message set_tempo tempo=482044 time=60>
<meta message set_tempo tempo=480307 time=60>
note_on channel=0 note=54 velocity=0 time=10
note_on channel=0 note=58 velocity=32 time=0
note_on channel=0 note=58 velocity=0 time=160
note_on channel=0 note=54 velocity=30 time=0
note_on channel=0 note=54 velocity=0 time=160
note_on channel=0 note=58 velocity=30 time=0
<meta message set_tempo tempo=485555 time=80>
<meta message set_tempo tempo=483793 time=60>
<meta message set_tempo tempo=483793 time=20>
note_on channel=0 note=58 velocity=0 time=0
note_on channel=0 note=61 velocity=36 time=0
note_on channel=0 note=61 velocity=0 time=160
note_on channel=0 note=58 velocity=30 time=0
note_on channel=0 note=58 velocity=0 time=160
note_on channel=0 note=54 velocity=30 time=0
<meta message set_tempo tempo=507786 time=160>
note_on channel=0 note=54 velocity=0 time=0
note_on channel=0 note=42 velocity=0 time=0
note_on channel=0 note=66 velocity=0 time=0
note_on channel=0 note=66 velocity=47 time=0
note_on channel=0 note=40 velocity=43 time=0
control_change channel=0 control=64 value=0 time=14
<meta message set_tempo tempo=505860 time=56>
<meta message set_tempo tempo=503948 time=60>
note_on channel=0 note=54 velocity=29 time=30
<meta message set_tempo tempo=502050 time=30>
<meta message set_tempo tempo=500167 time=60>
control_change channel=0 control=64 value=127 time=33
<meta message set_tempo tempo=498297 time=27>
note_on channel=0 note=54 velocity=0 time=10
note_on channel=0 note=58 velocity=29 time=0
<meta message set_tempo tempo=496442 time=70>
<meta message set_tempo tempo=494601 time=60>
note_on channel=0 note=58 velocity=0 time=30
note_on channel=0 note=61 velocity=32 time=0
<meta message set_tempo tempo=492773 time=30>
<meta message set_tempo tempo=490918 time=60>
<meta message set_tempo tempo=489117 time=60>
note_on channel=0 note=61 velocity=0 time=10
note_on channel=0 note=58 velocity=29 time=0
<meta message set_tempo tempo=487329 time=70>
<meta message set_tempo tempo=485555 time=60>
note_on channel=0 note=58 velocity=0 time=30
note_on channel=0 note=54 velocity=37 time=0
<meta message set_tempo tempo=483793 time=30>
<meta message set_tempo tempo=482044 time=60>
<meta message set_tempo tempo=480307 time=60>
note_on channel=0 note=54 velocity=0 time=10
note_on channel=0 note=58 velocity=41 time=0
note_on channel=0 note=58 velocity=0 time=160
note_on channel=0 note=54 velocity=43 time=0
note_on channel=0 note=54 velocity=0 time=160
note_on channel=0 note=58 velocity=45 time=0
<meta message set_tempo tempo=485555 time=80>
<meta message set_tempo tempo=483793 time=60>
<meta message set_tempo tempo=505860 time=20>
note_on channel=0 note=58 velocity=0 time=0
note_on channel=0 note=61 velocity=47 time=0
note_on channel=0 note=61 velocity=0 time=160
note_on channel=0 note=58 velocity=50 time=0
note_on channel=0 note=58 velocity=0 time=160
note_on channel=0 note=54 velocity=52 time=0
<meta message set_tempo tempo=507786 time=160>
note_on channel=0 note=54 velocity=0 time=0
note_on channel=0 note=40 velocity=0 time=0
note_on channel=0 note=66 velocity=0 time=0
note_on channel=0 note=66 velocity=60 time=0
note_on channel=0 note=38 velocity=63 time=0
control_change channel=0 control=64 value=0 time=0
<meta message set_tempo tempo=505860 time=70>
control_change channel=0 control=64 value=127 time=57
<meta message set_tempo tempo=503948 time=3>
note_on channel=0 note=54 velocity=47 time=30
<meta message set_tempo tempo=502050 time=30>
<meta message set_tempo tempo=500167 time=60>
<meta message set_tempo tempo=498297 time=60>
note_on channel=0 note=54 velocity=0 time=10
note_on channel=0 note=59 velocity=43 time=0
<meta message set_tempo tempo=496442 time=70>
<meta message set_tempo tempo=494601 time=60>
note_on channel=0 note=59 velocity=0 time=30
note_on channel=0 note=62 velocity=57 time=0
<meta message set_tempo tempo=492773 time=30>
<meta message set_tempo tempo=490918 time=60>
<meta message set_tempo tempo=489117 time=60>
note_on channel=0 note=62 velocity=0 time=10
note_on channel=0 note=59 velocity=46 time=0
<meta message set_tempo tempo=487329 time=70>
<meta message set_tempo tempo=485555 time=60>
note_on channel=0 note=59 velocity=0 time=30
note_on channel=0 note=54 velocity=46 time=0
<meta message set_tempo tempo=483793 time=30>
<meta message set_tempo tempo=482044 time=60>
<meta message set_tempo tempo=480307 time=60>
<meta message set_tempo tempo=476872 time=10>
note_on channel=0 note=54 velocity=0 time=0
note_on channel=0 note=59 velocity=58 time=0
<meta message set_tempo tempo=475172 time=120>
note_on channel=0 note=59 velocity=0 time=40
note_on channel=0 note=54 velocity=44 time=0
note_on channel=0 note=54 velocity=0 time=160
note_on channel=0 note=59 velocity=45 time=0
<meta message set_tempo tempo=485555 time=80>
<meta message set_tempo tempo=483793 time=60>
<meta message set_tempo tempo=483793 time=20>
note_on channel=0 note=59 velocity=0 time=0
note_on channel=0 note=62 velocity=61 time=0
note_on channel=0 note=62 velocity=0 time=160
note_on channel=0 note=59 velocity=51 time=0
note_on channel=0 note=59 velocity=0 time=160
note_on channel=0 note=54 velocity=53 time=0
<meta message set_tempo tempo=507786 time=160>
note_on channel=0 note=54 velocity=0 time=0
note_on channel=0 note=38 velocity=0 time=0
note_on channel=0 note=66 velocity=0 time=0
note_on channel=0 note=66 velocity=72 time=0
note_on channel=0 note=38 velocity=44 time=0
control_change channel=0 control=64 value=0 time=14
<meta message set_tempo tempo=505860 time=56>
note_on channel=0 note=38 velocity=0 time=26
note_on channel=0 note=37 velocity=41 time=0
<meta message set_tempo tempo=503948 time=34>
note_on channel=0 note=54 velocity=48 time=30
<meta message set_tempo tempo=502050 time=30>
note_on channel=0 note=37 velocity=0 time=2
note_on channel=0 note=38 velocity=44 time=0
<meta message set_tempo tempo=500167 time=58>
control_change channel=0 control=64 value=127 time=33
note_on channel=0 note=38 velocity=0 time=5
note_on channel=0 note=37 velocity=42 time=0
<meta message set_tempo tempo=498297 time=22>
note_on channel=0 note=54 velocity=0 time=10
note_on channel=0 note=58 velocity=48 time=0
note_on channel=0 note=37 velocity=0 time=64
note_on channel=0 note=38 velocity=44 time=0
<meta message set_tempo tempo=496442 time=6>
<meta message set_tempo tempo=494601 time=60>
note_on channel=0 note=58 velocity=0 time=30
note_on channel=0 note=64 velocity=61 time=0
note_on channel=0 note=38 velocity=0 time=14
note_on channel=0 note=37 velocity=45 time=0
<meta message set_tempo tempo=492773 time=16>
<meta message set_tempo tempo=490918 time=60>
note_on channel=0 note=37 velocity=0 time=33
note_on channel=0 note=38 velocity=47 time=0
<meta message set_tempo tempo=489117 time=27>
note_on channel=0 note=64 velocity=0 time=10
note_on channel=0 note=58 velocity=52 time=0
<meta message set_tempo tempo=487329 time=70>
note_on channel=0 note=38 velocity=0 time=3
note_on channel=0 note=37 velocity=48 time=0
<meta message set_tempo tempo=485555 time=57>
note_on channel=0 note=58 velocity=0 time=30
note_on channel=0 note=54 velocity=52 time=0
note_on channel=0 note=37 velocity=0 time=22
note_on channel=0 note=38 velocity=50 time=0
<meta message set_tempo tempo=483793 time=8>
<meta message set_tempo tempo=482044 time=60>
note_on channel=0 note=37 velocity=51 time=41
note_on channel=0 note=38 velocity=0 time=1
<meta message set_tempo tempo=480307 time=18>
note_on channel=0 note=66 velocity=0 time=10
note_on channel=0 note=54 velocity=0 time=0
note_on channel=0 note=67 velocity=66 time=0
note_on channel=0 note=58 velocity=58 time=0
note_on channel=0 note=37 velocity=0 time=81
note_on channel=0 note=38 velocity=52 time=0
note_on channel=0 note=58 velocity=0 time=79
note_on channel=0 note=54 velocity=59 time=0
note_on channel=0 note=38 velocity=0 time=32
note_on channel=0 note=37 velocity=54 time=1
note_on channel=0 note=37 velocity=0 time=109
note_on channel=0 note=38 velocity=55 time=0
note_on channel=0 note=54 velocity=0 time=18
note_on channel=0 note=58 velocity=59 time=0
<meta message set_tempo tempo=485555 time=80>
note_on channel=0 note=38 velocity=0 time=12
note_on channel=0 note=37 velocity=56 time=0
<meta message set_tempo tempo=483793 time=48>
<meta message set_tempo tempo=505860 time=20>
note_on channel=0 note=58 velocity=0 time=0
note_on channel=0 note=67 velocity=0 time=0
note_on channel=0 note=66 velocity=67 time=0
note_on channel=0 note=64 velocity=67 time=0
note_on channel=0 note=37 velocity=0 time=41
note_on channel=0 note=38 velocity=58 time=0
note_on channel=0 note=37 velocity=59 time=109
note_on channel=0 note=38 velocity=0 time=1
note_on channel=0 note=64 velocity=0 time=9
note_on channel=0 note=58 velocity=62 time=0
note_on channel=0 note=37 velocity=0 time=100
note_on channel=0 note=35 velocity=60 time=0
note_on channel=0 note=58 velocity=0 time=60
note_on channel=0 note=54 velocity=62 time=0
note_on channel=0 note=35 velocity=0 time=49
note_on channel=0 note=37 velocity=62 time=0
<meta message set_tempo tempo=507786 time=111>
note_on channel=0 note=37 velocity=0 time=0
note_on channel=0 note=54 velocity=0 time=0
note_on channel=0 note=66 velocity=0 time=0
note_on channel=0 note=66 velocity=80 time=0
note_on channel=0 note=35 velocity=84 time=0
control_change channel=0 control=64 value=0 time=0
<meta message set_tempo tempo=505860 time=70>
control_change channel=0 control=64 value=127 time=57
<meta message set_tempo tempo=503948 time=3>
note_on channel=0 note=54 velocity=58 time=30
<meta message set_tempo tempo=502050 time=30>
<meta message set_tempo tempo=500167 time=60>
<meta message set_tempo tempo=498297 time=60>
note_on channel=0 note=54 velocity=0 time=10
note_on channel=0 note=59 velocity=59 time=0
<meta message set_tempo tempo=496442 time=70>
<meta message set_tempo tempo=494601 time=60>
note_on channel=0 note=59 velocity=0 time=30
note_on channel=0 note=62 velocity=70 time=0
<meta message set_tempo tempo=492773 time=30>
<meta message set_tempo tempo=490918 time=60>
<meta message set_tempo tempo=489117 time=60>
note_on channel=0 note=62 velocity=0 time=10
note_on channel=0 note=59 velocity=60 time=0
<meta message set_tempo tempo=487329 time=70>
<meta message set_tempo tempo=485555 time=60>
note_on channel=0 note=59 velocity=0 time=30
note_on channel=0 note=54 velocity=61 time=0
<meta message set_tempo tempo=483793 time=30>
<meta message set_tempo tempo=482044 time=60>
<meta message set_tempo tempo=480307 time=60>
note_on channel=0 note=54 velocity=0 time=10
note_on channel=0 note=59 velocity=71 time=0
note_on channel=0 note=59 velocity=0 time=160
note_on channel=0 note=54 velocity=63 time=0
note_on channel=0 note=54 velocity=0 time=160
note_on channel=0 note=59 velocity=59 time=0
<meta message set_tempo tempo=485555 time=80>
<meta message set_tempo tempo=483793 time=60>
<meta message set_tempo tempo=483793 time=20>
note_on channel=0 note=59 velocity=0 time=0
note_on channel=0 note=62 velocity=75 time=0
note_on channel=0 note=62 velocity=0 time=160
note_on channel=0 note=59 velocity=63 time=0
note_on channel=0 note=59 velocity=0 time=160
note_on channel=0 note=54 velocity=64 time=0
<meta message set_tempo tempo=507786 time=160>
note_on channel=0 note=54 velocity=0 time=0
note_on channel=0 note=35 velocity=0 time=0
note_on channel=0 note=66 velocity=0 time=0
note_on channel=0 note=60 velocity=82 time=0
note_on channel=0 note=38 velocity=77 time=0
control_change channel=0 control=64 value=0 time=14
<meta message set_tempo tempo=505860 time=56>
<meta message set_tempo tempo=503948 time=60>
note_on channel=0 note=48 velocity=67 time=30
<meta message set_tempo tempo=502050 time=30>
control_change channel=0 control=64 value=127 time=8
<meta message set_tempo tempo=500167 time=52>
<meta message set_tempo tempo=498297 time=60>
note_on channel=0 note=48 velocity=0 time=10
note_on channel=0 note=54 velocity=65 time=0
<meta message set_tempo tempo=496442 time=70>
<meta message set_tempo tempo=494601 time=60>
note_on channel=0 note=54 velocity=0 time=30
note_on channel=0 note=57 velocity=63 time=0
<meta message set_tempo tempo=492773 time=30>
<meta message set_tempo tempo=490918 time=60>
<meta message set_tempo tempo=489117 time=60>
note_on channel=0 note=57 velocity=0 time=10
note_on channel=0 note=54 velocity=61 time=0
<meta message set_tempo tempo=487329 time=70>
<meta message set_tempo tempo=485555 time=60>
note_on channel=0 note=54 velocity=0 time=30
note_on channel=0 note=48 velocity=59 time=0
<meta message set_tempo tempo=483793 time=30>
<meta message set_tempo tempo=482044 time=60>
<meta message set_tempo tempo=480307 time=60>
note_on channel=0 note=48 velocity=0 time=10
note_on channel=0 note=60 velocity=0 time=0
note_on channel=0 note=54 velocity=56 time=0
note_on channel=0 note=54 velocity=0 time=160
note_on channel=0 note=48 velocity=54 time=0
note_on channel=0 note=48 velocity=0 time=160
note_on channel=0 note=54 velocity=50 time=0
<meta message set_tempo tempo=485555 time=80>
<meta message set_tempo tempo=483793 time=60>
<meta message set_tempo tempo=505860 time=19>
note_on channel=0 note=54 velocity=0 time=1
note_on channel=0 note=57 velocity=46 time=0
<meta message set_tempo tempo=507786 time=19>
<meta message set_tempo tempo=509727 time=20>
<meta message set_tempo tempo=513699 time=20>
<meta message set_tempo tempo=515685 time=20>
<meta message set_tempo tempo=517688 time=20>
<meta message set_tempo tempo=521739 time=20>
<meta message set_tempo tempo=523789 time=20>
<meta message set_tempo tempo=525855 time=20>
note_on channel=0 note=57 velocity=0 time=1
note_on channel=0 note=54 velocity=42 time=0
<meta message set_tempo tempo=530035 time=19>
<meta message set_tempo tempo=532198 time=20>
<meta message set_tempo tempo=534331 time=20>
<meta message set_tempo tempo=538648 time=20>
<meta message set_tempo tempo=540833 time=20>
<meta message set_tempo tempo=543036 time=20>
<meta message set_tempo tempo=547495 time=20>
<meta message set_tempo tempo=549753 time=20>
note_on channel=0 note=54 velocity=0 time=1
note_on channel=0 note=48 velocity=39 time=0
<meta message set_tempo tempo=554375 time=19>
<meta message set_tempo tempo=739189 time=21>
<meta message set_tempo tempo=507786 time=120>
note_on channel=0 note=48 velocity=0 time=0
note_on channel=0 note=38 velocity=0 time=0
note_on channel=0 note=61 velocity=45 time=0
note_on channel=0 note=37 velocity=40 time=0
control_change channel=0 control=64 value=0 time=0
<meta message set_tempo tempo=505860 time=70>
control_change channel=0 control=64 value=127 time=57
<meta message set_tempo tempo=503948 time=3>
note_on channel=0 note=49 velocity=33 time=30
<meta message set_tempo tempo=502050 time=30>
<meta message set_tempo tempo=500167 time=60>
<meta message set_tempo tempo=498297 time=60>
note_on channel=0 note=49 velocity=0 time=10
note_on channel=0 note=54 velocity=33 time=0
<meta message set_tempo tempo=496442 time=70>
<meta message set_tempo tempo=494601 time=60>
note_on channel=0 note=54 velocity=0 time=30
note_on channel=0 note=58 velocity=36 time=0
<meta message set_tempo tempo=492773 time=30>
<meta message set_tempo tempo=490918 time=60>
<meta message set_tempo tempo=489117 time=60>
note_on channel=0 note=58 velocity=0 time=10
note_on channel=0 note=54 velocity=32 time=0
<meta message set_tempo tempo=487329 time=70>
<meta message set_tempo tempo=485555 time=60>
note_on channel=0 note=54 velocity=0 time=30
note_on channel=0 note=49 velocity=32 time=0
<meta message set_tempo tempo=483793 time=30>
<meta message set_tempo tempo=482044 time=60>
<meta message set_tempo tempo=480307 time=60>
note_on channel=0 note=49 velocity=0 time=10
note_on channel=0 note=54 velocity=35 time=0
note_on channel=0 note=54 velocity=0 time=160
note_on channel=0 note=49 velocity=31 time=0
note_on channel=0 note=49 velocity=0 time=160
note_on channel=0 note=54 velocity=31 time=0
<meta message set_tempo tempo=485555 time=80>
<meta message set_tempo tempo=483793 time=60>
<meta message set_tempo tempo=483793 time=20>
note_on channel=0 note=54 velocity=0 time=0
note_on channel=0 note=58 velocity=37 time=0
note_on channel=0 note=58 velocity=0 time=160
note_on channel=0 note=54 velocity=30 time=0
note_on channel=0 note=54 velocity=0 time=160
note_on channel=0 note=49 velocity=30 time=0
<meta message set_tempo tempo=487329 time=160>
note_on channel=0 note=49 velocity=0 time=0
note_on channel=0 note=37 velocity=0 time=0
note_on channel=0 note=61 velocity=0 time=0
note_on channel=0 note=61 velocity=45 time=0
note_on channel=0 note=37 velocity=35 time=0
control_change channel=0 control=64 value=0 time=15
control_change channel=0 control=64 value=127 time=98
note_on channel=0 note=53 velocity=29 time=47
note_on channel=0 note=53 velocity=0 time=160
note_on channel=0 note=56 velocity=29 time=0
note_on channel=0 note=56 velocity=0 time=160
note_on channel=0 note=37 velocity=0 time=0
note_on channel=0 note=61 velocity=0 time=0
note_on channel=0 note=71 velocity=41 time=0
note_on channel=0 note=49 velocity=35 time=0
note_on channel=0 note=59 velocity=28 time=160
note_on channel=0 note=59 velocity=0 time=160
note_on channel=0 note=61 velocity=28 time=0
<meta message set_tempo tempo=489117 time=160>
note_on channel=0 note=61 velocity=0 time=0
note_on channel=0 note=71 velocity=0 time=0
note_on channel=0 note=68 velocity=42 time=0
note_on channel=0 note=53 velocity=31 time=0
control_change channel=0 control=64 value=0 time=12
control_change channel=0 control=64 value=127 time=94
note_on channel=0 note=59 velocity=28 time=54
note_on channel=0 note=59 velocity=0 time=160
note_on channel=0 note=61 velocity=28 time=0
<meta message set_tempo tempo=517688 time=160>
note_on channel=0 note=61 velocity=0 time=0
note_on channel=0 note=53 velocity=0 time=0
note_on channel=0 note=68 velocity=0 time=0
note_on channel=0 note=65 velocity=39 time=0
note_on channel=0 note=56 velocity=31 time=0
note_on channel=0 note=59 velocity=26 time=160
note_on channel=0 note=59 velocity=0 time=160
note_on channel=0 note=61 velocity=26 time=0
<meta message set_tempo tempo=507786 time=160>
note_on channel=0 note=61 velocity=0 time=0
note_on channel=0 note=56 velocity=0 time=0
note_on channel=0 note=65 velocity=0 time=0
note_on channel=0 note=49 velocity=0 time=0
note_on channel=0 note=66 velocity=47 time=0
note_on channel=0 note=42 velocity=35 time=0
control_change channel=0 control=64 value=0 time=0
<meta message set_tempo tempo=505860 time=70>
control_change channel=0 control=64 value=127 time=57
<meta message set_tempo tempo=503948 time=3>
note_on channel=0 note=54 velocity=27 time=30
<meta message set_tempo tempo=502050 time=30>
<meta message set_tempo tempo=500167 time=60>
<meta message set_tempo tempo=498297 time=60>
note_on channel=0 note=54 velocity=0 time=10
note_on channel=0 note=58 velocity=27 time=0
<meta message set_tempo tempo=496442 time=70>
<meta message set_tempo tempo=494601 time=60>
note_on channel=0 note=58 velocity=0 time=30
note_on channel=0 note=61 velocity=33 time=0
<meta message set_tempo tempo=492773 time=30>
<meta message set_tempo tempo=490918 time=60>
<meta message set_tempo tempo=489117 time=60>
note_on channel=0 note=61 velocity=0 time=10
note_on channel=0 note=58 velocity=27 time=0
<meta message set_tempo tempo=487329 time=70>
<meta message set_tempo tempo=485555 time=60>
note_on channel=0 note=58 velocity=0 time=30
note_on channel=0 note=54 velocity=27 time=0
<meta message set_tempo tempo=483793 time=30>
<meta message set_tempo tempo=482044 time=60>
<meta message set_tempo tempo=480307 time=60>
note_on channel=0 note=54 velocity=0 time=10
note_on channel=0 note=58 velocity=32 time=0
note_on channel=0 note=58 velocity=0 time=160
note_on channel=0 note=54 velocity=30 time=0
note_on channel=0 note=54 velocity=0 time=160
note_on channel=0 note=58 velocity=30 time=0
<meta message set_tempo tempo=485555 time=80>
<meta message set_tempo tempo=483793 time=60>
<meta message set_tempo tempo=483793 time=20>
note_on channel=0 note=58 velocity=0 time=0
note_on channel=0 note=61 velocity=36 time=0
note_on channel=0 note=61 velocity=0 time=160
note_on channel=0 note=58 velocity=30 time=0
note_on channel=0 note=58 velocity=0 time=160
note_on channel=0 note=54 velocity=30 time=0
<meta message set_tempo tempo=507786 time=160>
note_on channel=0 note=54 velocity=0 time=0
note_on channel=0 note=42 velocity=0 time=0
note_on channel=0 note=66 velocity=0 time=0
note_on channel=0 note=66 velocity=47 time=0
note_on channel=0 note=40 velocity=43 time=0
control_change channel=0 control=64 value=0 time=14
<meta message set_tempo tempo=505860 time=56>
<meta message set_tempo tempo=503948 time=60>
note_on channel=0 note=54 velocity=29 time=30
<meta message set_tempo tempo=502050 time=30>
<meta message set_tempo tempo=500167 time=60>
control_change channel=0 control=64 value=127 time=33
<meta message set_tempo tempo=498297 time=27>
note_on channel=0 note=54 velocity=0 time=10
note_on channel=0 note=58 velocity=29 time=0
<meta message set_tempo tempo=496442 time=70>
<meta message set_tempo tempo=494601 time=60>
note_on channel=0 note=58 velocity=0 time=30
note_on channel=0 note=61 velocity=32 time=0
<meta message set_tempo tempo=492773 time=30>
<meta message set_tempo tempo=490918 time=60>
<meta message set_tempo tempo=489117 time=60>
note_on channel=0 note=61 velocity=0 time=10
note_on channel=0 note=58 velocity=29 time=0
<meta message set_tempo tempo=487329 time=70>
<meta message set_tempo tempo=485555 time=60>
note_on channel=0 note=58 velocity=0 time=30
note_on channel=0 note=54 velocity=37 time=0
<meta message set_tempo tempo=483793 time=30>
<meta message set_tempo tempo=482044 time=60>
<meta message set_tempo tempo=480307 time=60>
note_on channel=0 note=54 velocity=0 time=10
note_on channel=0 note=58 velocity=41 time=0
note_on channel=0 note=58 velocity=0 time=160
note_on channel=0 note=54 velocity=43 time=0
note_on channel=0 note=54 velocity=0 time=160
note_on channel=0 note=58 velocity=45 time=0
<meta message set_tempo tempo=485555 time=80>
<meta message set_tempo tempo=483793 time=60>
<meta message set_tempo tempo=505860 time=20>
note_on channel=0 note=58 velocity=0 time=0
note_on channel=0 note=61 velocity=47 time=0
note_on channel=0 note=61 velocity=0 time=160
note_on channel=0 note=58 velocity=50 time=0
note_on channel=0 note=58 velocity=0 time=160
note_on channel=0 note=54 velocity=52 time=0
<meta message key_signature key='C' time=160>
<meta message set_tempo tempo=507786 time=0>
note_on channel=0 note=54 velocity=0 time=0
note_on channel=0 note=40 velocity=0 time=0
note_on channel=0 note=66 velocity=0 time=0
note_on channel=0 note=66 velocity=60 time=0
note_on channel=0 note=38 velocity=63 time=0
control_change channel=0 control=64 value=0 time=0
<meta message set_tempo tempo=505860 time=70>
control_change channel=0 control=64 value=127 time=57
<meta message set_tempo tempo=503948 time=3>
note_on channel=0 note=54 velocity=44 time=30
<meta message set_tempo tempo=502050 time=30>
<meta message set_tempo tempo=500167 time=60>
<meta message set_tempo tempo=498297 time=60>
note_on channel=0 note=54 velocity=0 time=10
note_on channel=0 note=59 velocity=43 time=0
<meta message set_tempo tempo=496442 time=70>
<meta message set_tempo tempo=494601 time=60>
note_on channel=0 note=59 velocity=0 time=30
note_on channel=0 note=62 velocity=52 time=0
<meta message set_tempo tempo=492773 time=30>
<meta message set_tempo tempo=490918 time=60>
<meta message set_tempo tempo=489117 time=60>
note_on channel=0 note=62 velocity=0 time=10
note_on channel=0 note=59 velocity=46 time=0
<meta message set_tempo tempo=487329 time=70>
<meta message set_tempo tempo=485555 time=60>
note_on channel=0 note=59 velocity=0 time=30
note_on channel=0 note=54 velocity=46 time=0
<meta message set_tempo tempo=483793 time=30>
<meta message set_tempo tempo=482044 time=60>
<meta message set_tempo tempo=480307 time=60>
note_on channel=0 note=54 velocity=0 time=10
note_on channel=0 note=59 velocity=53 time=0
note_on channel=0 note=59 velocity=0 time=160
note_on channel=0 note=54 velocity=44 time=0
note_on channel=0 note=54 velocity=0 time=160
note_on channel=0 note=59 velocity=45 time=0
<meta message set_tempo tempo=485555 time=80>
<meta message set_tempo tempo=483793 time=60>
<meta message set_tempo tempo=483793 time=20>
note_on channel=0 note=59 velocity=0 time=0
note_on channel=0 note=62 velocity=56 time=0
note_on channel=0 note=62 velocity=0 time=160
note_on channel=0 note=59 velocity=46 time=0
note_on channel=0 note=59 velocity=0 time=160
note_on channel=0 note=54 velocity=46 time=0
<meta message set_tempo tempo=507786 time=160>
note_on channel=0 note=54 velocity=0 time=0
note_on channel=0 note=38 velocity=0 time=0
note_on channel=0 note=66 velocity=0 time=0
note_on channel=0 note=66 velocity=64 time=0
note_on channel=0 note=36 velocity=37 time=0
control_change channel=0 control=64 value=0 time=14
<meta message set_tempo tempo=505860 time=56>
note_on channel=0 note=36 velocity=0 time=26
note_on channel=0 note=38 velocity=33 time=0
<meta message set_tempo tempo=503948 time=34>
note_on channel=0 note=54 velocity=48 time=30
control_change channel=0 control=64 value=127 time=12
<meta message set_tempo tempo=502050 time=18>
note_on channel=0 note=38 velocity=0 time=2
note_on channel=0 note=36 velocity=37 time=0
<meta message set_tempo tempo=500167 time=58>
note_on channel=0 note=36 velocity=0 time=38
note_on channel=0 note=38 velocity=33 time=0
<meta message set_tempo tempo=498297 time=22>
note_on channel=0 note=54 velocity=0 time=10
note_on channel=0 note=57 velocity=48 time=0
note_on channel=0 note=38 velocity=0 time=64
note_on channel=0 note=36 velocity=38 time=0
<meta message set_tempo tempo=496442 time=6>
<meta message set_tempo tempo=494601 time=60>
note_on channel=0 note=36 velocity=0 time=30
note_on channel=0 note=57 velocity=0 time=0
note_on channel=0 note=62 velocity=58 time=0
note_on channel=0 note=38 velocity=39 time=0
<meta message set_tempo tempo=492773 time=30>
<meta message set_tempo tempo=490918 time=60>
note_on channel=0 note=38 velocity=0 time=6
note_on channel=0 note=36 velocity=41 time=0
<meta message set_tempo tempo=489117 time=54>
note_on channel=0 note=62 velocity=0 time=10
note_on channel=0 note=57 velocity=47 time=0
note_on channel=0 note=36 velocity=0 time=32
note_on channel=0 note=38 velocity=44 time=0
<meta message set_tempo tempo=487329 time=38>
note_on channel=0 note=38 velocity=0 time=58
note_on channel=0 note=36 velocity=45 time=0
<meta message set_tempo tempo=485555 time=2>
note_on channel=0 note=57 velocity=0 time=30
note_on channel=0 note=54 velocity=48 time=0
<meta message set_tempo tempo=483793 time=30>
note_on channel=0 note=36 velocity=0 time=34
note_on channel=0 note=38 velocity=47 time=0
<meta message set_tempo tempo=482044 time=26>
<meta message set_tempo tempo=480307 time=60>
note_on channel=0 note=38 velocity=0 time=10
note_on channel=0 note=54 velocity=0 time=0
note_on channel=0 note=57 velocity=58 time=0
note_on channel=0 note=36 velocity=50 time=0
note_on channel=0 note=36 velocity=0 time=96
note_on channel=0 note=38 velocity=51 time=0
note_on channel=0 note=57 velocity=0 time=64
note_on channel=0 note=54 velocity=59 time=0
note_on channel=0 note=38 velocity=0 time=32
note_on channel=0 note=36 velocity=54 time=0
note_on channel=0 note=36 velocity=0 time=96
note_on channel=0 note=38 velocity=55 time=0
note_on channel=0 note=54 velocity=0 time=32
note_on channel=0 note=57 velocity=59 time=0
note_on channel=0 note=38 velocity=0 time=64
note_on channel=0 note=36 velocity=58 time=0
<meta message set_tempo tempo=485555 time=16>
<meta message set_tempo tempo=483793 time=60>
<meta message set_tempo tempo=505860 time=20>
note_on channel=0 note=36 velocity=0 time=0
note_on channel=0 note=57 velocity=0 time=0
note_on channel=0 note=62 velocity=67 time=0
note_on channel=0 note=38 velocity=60 time=0
note_on channel=0 note=38 velocity=0 time=96
note_on channel=0 note=36 velocity=62 time=0
note_on channel=0 note=62 velocity=0 time=64
note_on channel=0 note=57 velocity=62 time=0
note_on channel=0 note=36 velocity=0 time=64
note_on channel=0 note=34 velocity=65 time=0
note_on channel=0 note=57 velocity=0 time=96
note_on channel=0 note=54 velocity=62 time=0
note_on channel=0 note=34 velocity=0 time=32
note_on channel=0 note=36 velocity=68 time=0
<meta message key_signature key='Gb' time=128>
<meta message set_tempo tempo=507786 time=0>
note_on channel=0 note=36 velocity=0 time=0
note_on channel=0 note=54 velocity=0 time=0
note_on channel=0 note=66 velocity=0 time=0
note_on channel=0 note=67 velocity=80 time=0
control_change channel=0 control=64 value=0 time=0
note_on channel=0 note=34 velocity=84 time=5
<meta message set_tempo tempo=505860 time=65>
control_change channel=0 control=64 value=127 time=57
<meta message set_tempo tempo=503948 time=3>
note_on channel=0 note=55 velocity=53 time=30
<meta message set_tempo tempo=502050 time=30>
<meta message set_tempo tempo=500167 time=60>
<meta message set_tempo tempo=498297 time=60>
note_on channel=0 note=55 velocity=0 time=10
note_on channel=0 note=58 velocity=54 time=0
<meta message set_tempo tempo=496442 time=70>
<meta message set_tempo tempo=494601 time=60>
note_on channel=0 note=58 velocity=0 time=30
note_on channel=0 note=62 velocity=67 time=0
<meta message set_tempo tempo=492773 time=30>
<meta message set_tempo tempo=490918 time=60>
<meta message set_tempo tempo=489117 time=60>
note_on channel=0 note=62 velocity=0 time=10
note_on channel=0 note=58 velocity=56 time=0
<meta message set_tempo tempo=487329 time=70>
<meta message set_tempo tempo=485555 time=60>
note_on channel=0 note=58 velocity=0 time=30
note_on channel=0 note=55 velocity=56 time=0
<meta message set_tempo tempo=483793 time=30>
<meta message set_tempo tempo=482044 time=60>
<meta message set_tempo tempo=480307 time=60>
note_on channel=0 note=55 velocity=0 time=10
note_on channel=0 note=58 velocity=70 time=0
note_on channel=0 note=58 velocity=0 time=160
note_on channel=0 note=55 velocity=58 time=0
note_on channel=0 note=55 velocity=0 time=160
note_on channel=0 note=58 velocity=59 time=0
<meta message set_tempo tempo=485555 time=80>
<meta message set_tempo tempo=483793 time=60>
<meta message set_tempo tempo=483793 time=20>
note_on channel=0 note=58 velocity=0 time=0
note_on channel=0 note=62 velocity=72 time=0
note_on channel=0 note=62 velocity=0 time=160
note_on channel=0 note=58 velocity=55 time=0
note_on channel=0 note=58 velocity=0 time=160
note_on channel=0 note=55 velocity=60 time=0
<meta message set_tempo tempo=507786 time=160>
note_on channel=0 note=55 velocity=0 time=0
note_on channel=0 note=67 velocity=0 time=0
note_on channel=0 note=60 velocity=83 time=0
note_on channel=0 note=38 velocity=77 time=0
note_on channel=0 note=34 velocity=0 time=5
control_change channel=0 control=64 value=0 time=9
<meta message set_tempo tempo=505860 time=56>
<meta message set_tempo tempo=503948 time=60>
note_on channel=0 note=48 velocity=67 time=30
<meta message set_tempo tempo=502050 time=30>
<meta message set_tempo tempo=500167 time=60>
control_change channel=0 control=64 value=127 time=33
<meta message set_tempo tempo=498297 time=27>
note_on channel=0 note=48 velocity=0 time=10
note_on channel=0 note=54 velocity=65 time=0
<meta message set_tempo tempo=496442 time=70>
<meta message set_tempo tempo=494601 time=60>
note_on channel=0 note=54 velocity=0 time=30
note_on channel=0 note=57 velocity=63 time=0
<meta message set_tempo tempo=492773 time=30>
<meta message set_tempo tempo=490918 time=60>
<meta message set_tempo tempo=489117 time=60>
note_on channel=0 note=57 velocity=0 time=10
note_on channel=0 note=54 velocity=61 time=0
<meta message set_tempo tempo=487329 time=70>
<meta message set_tempo tempo=485555 time=60>
note_on channel=0 note=54 velocity=0 time=30
note_on channel=0 note=48 velocity=59 time=0
<meta message set_tempo tempo=483793 time=30>
<meta message set_tempo tempo=482044 time=60>
<meta message set_tempo tempo=480307 time=60>
note_on channel=0 note=48 velocity=0 time=10
note_on channel=0 note=60 velocity=0 time=0
note_on channel=0 note=54 velocity=56 time=0
note_on channel=0 note=54 velocity=0 time=160
note_on channel=0 note=48 velocity=54 time=0
note_on channel=0 note=48 velocity=0 time=160
note_on channel=0 note=54 velocity=50 time=0
<meta message set_tempo tempo=485555 time=80>
<meta message set_tempo tempo=483793 time=60>
<meta message set_tempo tempo=505860 time=19>
note_on channel=0 note=54 velocity=0 time=1
note_on channel=0 note=57 velocity=46 time=0
<meta message set_tempo tempo=507786 time=19>
<meta message set_tempo tempo=509727 time=20>
<meta message set_tempo tempo=513699 time=20>
<meta message set_tempo tempo=515685 time=20>
<meta message set_tempo tempo=517688 time=20>
<meta message set_tempo tempo=521739 time=20>
<meta message set_tempo tempo=523789 time=20>
<meta message set_tempo tempo=525855 time=20>
note_on channel=0 note=57 velocity=0 time=1
note_on channel=0 note=54 velocity=42 time=0
<meta message set_tempo tempo=530035 time=19>
<meta message set_tempo tempo=532198 time=20>
<meta message set_tempo tempo=534331 time=20>
<meta message set_tempo tempo=538648 time=20>
<meta message set_tempo tempo=540833 time=20>
<meta message set_tempo tempo=543036 time=20>
<meta message set_tempo tempo=547495 time=20>
<meta message set_tempo tempo=549753 time=20>
note_on channel=0 note=54 velocity=0 time=1
note_on channel=0 note=48 velocity=39 time=0
<meta message set_tempo tempo=554375 time=19>
<meta message set_tempo tempo=739189 time=21>
<meta message set_tempo tempo=507786 time=120>
note_on channel=0 note=48 velocity=0 time=0
note_on channel=0 note=38 velocity=0 time=0
note_on channel=0 note=61 velocity=45 time=0
note_on channel=0 note=37 velocity=40 time=0
control_change channel=0 control=64 value=0 time=0
<meta message set_tempo tempo=505860 time=70>
control_change channel=0 control=64 value=127 time=57
<meta message set_tempo tempo=503948 time=3>
note_on channel=0 note=49 velocity=33 time=30
<meta message set_tempo tempo=502050 time=30>
<meta message set_tempo tempo=500167 time=60>
<meta message set_tempo tempo=498297 time=60>
note_on channel=0 note=49 velocity=0 time=10
note_on channel=0 note=54 velocity=33 time=0
<meta message set_tempo tempo=496442 time=70>
<meta message set_tempo tempo=494601 time=60>
note_on channel=0 note=54 velocity=0 time=30
note_on channel=0 note=58 velocity=36 time=0
<meta message set_tempo tempo=492773 time=30>
<meta message set_tempo tempo=490918 time=60>
<meta message set_tempo tempo=489117 time=60>
note_on channel=0 note=58 velocity=0 time=10
note_on channel=0 note=54 velocity=32 time=0
<meta message set_tempo tempo=487329 time=70>
<meta message set_tempo tempo=485555 time=60>
note_on channel=0 note=54 velocity=0 time=30
note_on channel=0 note=49 velocity=32 time=0
<meta message set_tempo tempo=483793 time=30>
<meta message set_tempo tempo=482044 time=60>
<meta message set_tempo tempo=480307 time=60>
note_on channel=0 note=49 velocity=0 time=10
note_on channel=0 note=54 velocity=35 time=0
note_on channel=0 note=54 velocity=0 time=160
note_on channel=0 note=49 velocity=31 time=0
note_on channel=0 note=49 velocity=0 time=160
note_on channel=0 note=54 velocity=31 time=0
<meta message set_tempo tempo=485555 time=80>
<meta message set_tempo tempo=483793 time=60>
<meta message set_tempo tempo=483793 time=20>
note_on channel=0 note=54 velocity=0 time=0
note_on channel=0 note=58 velocity=37 time=0
note_on channel=0 note=58 velocity=0 time=160
note_on channel=0 note=54 velocity=30 time=0
note_on channel=0 note=54 velocity=0 time=160
note_on channel=0 note=49 velocity=30 time=0
<meta message set_tempo tempo=483793 time=146>
note_on channel=0 note=49 velocity=0 time=14
note_on channel=0 note=37 velocity=0 time=0
note_on channel=0 note=61 velocity=0 time=0
note_on channel=0 note=61 velocity=45 time=0
note_on channel=0 note=37 velocity=35 time=0
<meta message set_tempo tempo=487329 time=14>
control_change channel=0 control=64 value=0 time=15
control_change channel=0 control=64 value=127 time=98
note_on channel=0 note=53 velocity=29 time=33
note_on channel=0 note=53 velocity=0 time=160
note_on channel=0 note=56 velocity=29 time=0
note_on channel=0 note=56 velocity=0 time=160
note_on channel=0 note=37 velocity=0 time=0
note_on channel=0 note=61 velocity=0 time=0
note_on channel=0 note=71 velocity=41 time=0
note_on channel=0 note=49 velocity=35 time=0
note_on channel=0 note=59 velocity=28 time=160
note_on channel=0 note=59 velocity=0 time=160
note_on channel=0 note=61 velocity=28 time=0
note_on channel=0 note=61 velocity=0 time=160
note_on channel=0 note=71 velocity=0 time=0
note_on channel=0 note=68 velocity=42 time=0
note_on channel=0 note=53 velocity=31 time=0
<meta message set_tempo tempo=489117 time=14>
control_change channel=0 control=64 value=0 time=12
control_change channel=0 control=64 value=127 time=94
note_on channel=0 note=59 velocity=28 time=40
note_on channel=0 note=59 velocity=0 time=160
note_on channel=0 note=61 velocity=28 time=0
note_on channel=0 note=61 velocity=0 time=160
note_on channel=0 note=53 velocity=0 time=0
note_on channel=0 note=68 velocity=0 time=0
note_on channel=0 note=65 velocity=39 time=0
note_on channel=0 note=56 velocity=31 time=0
<meta message set_tempo tempo=517688 time=14>
note_on channel=0 note=59 velocity=26 time=146
note_on channel=0 note=59 velocity=0 time=160
note_on channel=0 note=61 velocity=26 time=0
<meta message set_tempo tempo=507786 time=160>
note_on channel=0 note=61 velocity=0 time=0
note_on channel=0 note=56 velocity=0 time=0
note_on channel=0 note=65 velocity=0 time=0
note_on channel=0 note=49 velocity=0 time=0
note_on channel=0 note=66 velocity=45 time=0
note_on channel=0 note=42 velocity=40 time=0
control_change channel=0 control=64 value=0 time=0
<meta message set_tempo tempo=505860 time=70>
control_change channel=0 control=64 value=127 time=57
<meta message set_tempo tempo=503948 time=3>
note_on channel=0 note=54 velocity=32 time=30
<meta message set_tempo tempo=502050 time=30>
<meta message set_tempo tempo=500167 time=60>
<meta message set_tempo tempo=498297 time=60>
note_on channel=0 note=54 velocity=0 time=10
note_on channel=0 note=58 velocity=32 time=0
<meta message set_tempo tempo=496442 time=70>
<meta message set_tempo tempo=494601 time=60>
note_on channel=0 note=58 velocity=0 time=30
note_on channel=0 note=61 velocity=34 time=0
note_on channel=0 note=49 velocity=27 time=0
note_on channel=0 note=46 velocity=27 time=0
<meta message set_tempo tempo=492773 time=30>
<meta message set_tempo tempo=490918 time=60>
<meta message set_tempo tempo=489117 time=60>
note_on channel=0 note=61 velocity=0 time=10
note_on channel=0 note=54 velocity=30 time=0
<meta message set_tempo tempo=487329 time=70>
<meta message set_tempo tempo=485555 time=60>
note_on channel=0 note=54 velocity=0 time=30
note_on channel=0 note=58 velocity=30 time=0
<meta message set_tempo tempo=483793 time=30>
<meta message set_tempo tempo=482044 time=60>
<meta message set_tempo tempo=480307 time=60>
note_on channel=0 note=58 velocity=0 time=10
note_on channel=0 note=49 velocity=0 time=0
note_on channel=0 note=46 velocity=0 time=0
note_on channel=0 note=63 velocity=38 time=0
note_on channel=0 note=47 velocity=26 time=0
note_on channel=0 note=51 velocity=30 time=0
control_change channel=0 control=64 value=0 time=13
control_change channel=0 control=64 value=127 time=100
note_on channel=0 note=63 velocity=0 time=47
note_on channel=0 note=54 velocity=28 time=0
note_on channel=0 note=54 velocity=0 time=160
note_on channel=0 note=59 velocity=27 time=0
<meta message set_tempo tempo=485555 time=80>
<meta message set_tempo tempo=483793 time=60>
<meta message set_tempo tempo=483793 time=20>
note_on channel=0 note=59 velocity=0 time=0
note_on channel=0 note=47 velocity=0 time=0
note_on channel=0 note=51 velocity=0 time=0
note_on channel=0 note=61 velocity=32 time=0
note_on channel=0 note=49 velocity=24 time=0
note_on channel=0 note=46 velocity=24 time=0
control_change channel=0 control=64 value=0 time=13
control_change channel=0 control=64 value=127 time=93
note_on channel=0 note=61 velocity=0 time=54
note_on channel=0 note=54 velocity=26 time=0
note_on channel=0 note=54 velocity=0 time=160
note_on channel=0 note=58 velocity=26 time=0
<meta message set_tempo tempo=483793 time=146>
note_on channel=0 note=58 velocity=0 time=14
note_on channel=0 note=49 velocity=0 time=0
note_on channel=0 note=66 velocity=0 time=0
note_on channel=0 note=42 velocity=0 time=0
note_on channel=0 note=46 velocity=0 time=0
note_on channel=0 note=65 velocity=40 time=0
note_on channel=0 note=37 velocity=28 time=0
<meta message set_tempo tempo=487329 time=14>
control_change channel=0 control=64 value=0 time=15
control_change channel=0 control=64 value=127 time=98
note_on channel=0 note=59 velocity=23 time=33
note_on channel=0 note=59 velocity=0 time=160
note_on channel=0 note=61 velocity=23 time=0
note_on channel=0 note=61 velocity=0 time=160
note_on channel=0 note=37 velocity=0 time=0
note_on channel=0 note=65 velocity=0 time=0
note_on channel=0 note=71 velocity=38 time=0
note_on channel=0 note=49 velocity=28 time=0
note_on channel=0 note=59 velocity=25 time=160
note_on channel=0 note=59 velocity=0 time=160
note_on channel=0 note=61 velocity=25 time=0
note_on channel=0 note=61 velocity=0 time=160
note_on channel=0 note=71 velocity=0 time=0
note_on channel=0 note=68 velocity=39 time=0
note_on channel=0 note=53 velocity=24 time=0
<meta message set_tempo tempo=489117 time=14>
control_change channel=0 control=64 value=0 time=12
control_change channel=0 control=64 value=127 time=94
note_on channel=0 note=59 velocity=22 time=40
note_on channel=0 note=59 velocity=0 time=160
note_on channel=0 note=61 velocity=26 time=0
note_on channel=0 note=61 velocity=0 time=160
note_on channel=0 note=53 velocity=0 time=0
note_on channel=0 note=68 velocity=0 time=0
note_on channel=0 note=65 velocity=35 time=0
note_on channel=0 note=56 velocity=24 time=0
<meta message set_tempo tempo=517688 time=14>
note_on channel=0 note=59 velocity=20 time=146
note_on channel=0 note=59 velocity=0 time=160
note_on channel=0 note=61 velocity=20 time=0
<meta message set_tempo tempo=507786 time=160>
note_on channel=0 note=61 velocity=0 time=0
note_on channel=0 note=56 velocity=0 time=0
note_on channel=0 note=65 velocity=0 time=0
note_on channel=0 note=49 velocity=0 time=0
note_on channel=0 note=66 velocity=42 time=0
note_on channel=0 note=42 velocity=40 time=0
control_change channel=0 control=64 value=0 time=0
<meta message set_tempo tempo=505860 time=70>
control_change channel=0 control=64 value=127 time=57
<meta message set_tempo tempo=503948 time=3>
note_on channel=0 note=54 velocity=25 time=30
<meta message set_tempo tempo=502050 time=30>
<meta message set_tempo tempo=500167 time=60>
<meta message set_tempo tempo=498297 time=60>
note_on channel=0 note=54 velocity=0 time=10
note_on channel=0 note=58 velocity=26 time=0
<meta message set_tempo tempo=496442 time=70>
<meta message set_tempo tempo=494601 time=60>
note_on channel=0 note=58 velocity=0 time=30
note_on channel=0 note=61 velocity=32 time=0
note_on channel=0 note=49 velocity=24 time=0
note_on channel=0 note=46 velocity=24 time=0
<meta message set_tempo tempo=492773 time=30>
<meta message set_tempo tempo=490918 time=60>
<meta message set_tempo tempo=489117 time=60>
note_on channel=0 note=61 velocity=0 time=10
note_on channel=0 note=54 velocity=26 time=0
<meta message set_tempo tempo=487329 time=70>
<meta message set_tempo tempo=485555 time=60>
note_on channel=0 note=54 velocity=0 time=30
note_on channel=0 note=58 velocity=26 time=0
<meta message set_tempo tempo=483793 time=30>
<meta message set_tempo tempo=482044 time=60>
<meta message set_tempo tempo=480307 time=60>
note_on channel=0 note=58 velocity=0 time=10
note_on channel=0 note=49 velocity=0 time=0
note_on channel=0 note=46 velocity=0 time=0
note_on channel=0 note=63 velocity=38 time=0
note_on channel=0 note=47 velocity=23 time=0
note_on channel=0 note=51 velocity=27 time=0
control_change channel=0 control=64 value=0 time=13
control_change channel=0 control=64 value=127 time=100
note_on channel=0 note=63 velocity=0 time=47
note_on channel=0 note=54 velocity=25 time=0
note_on channel=0 note=54 velocity=0 time=160
note_on channel=0 note=59 velocity=25 time=0
<meta message set_tempo tempo=485555 time=80>
<meta message set_tempo tempo=483793 time=60>
<meta message set_tempo tempo=483793 time=20>
note_on channel=0 note=59 velocity=0 time=0
note_on channel=0 note=47 velocity=0 time=0
note_on channel=0 note=51 velocity=0 time=0
note_on channel=0 note=61 velocity=32 time=0
note_on channel=0 note=49 velocity=21 time=0
note_on channel=0 note=46 velocity=21 time=0
control_change channel=0 control=64 value=0 time=13
control_change channel=0 control=64 value=127 time=93
note_on channel=0 note=61 velocity=0 time=54
note_on channel=0 note=54 velocity=26 time=0
note_on channel=0 note=54 velocity=0 time=160
note_on channel=0 note=58 velocity=26 time=0
<meta message set_tempo tempo=483793 time=146>
<meta message set_tempo tempo=556690 time=14>
note_on channel=0 note=58 velocity=0 time=0
note_on channel=0 note=49 velocity=0 time=0
note_on channel=0 note=66 velocity=0 time=0
note_on channel=0 note=42 velocity=0 time=0
note_on channel=0 note=46 velocity=0 time=0
note_on channel=0 note=65 velocity=36 time=0
note_on channel=0 note=37 velocity=28 time=0
control_change channel=0 control=64 value=0 time=29
control_change channel=0 control=64 value=127 time=98
note_on channel=0 note=59 velocity=23 time=33
note_on channel=0 note=59 velocity=0 time=160
note_on channel=0 note=61 velocity=23 time=0
<meta message set_tempo tempo=487329 time=160>
note_on channel=0 note=61 velocity=0 time=0
note_on channel=0 note=37 velocity=0 time=0
note_on channel=0 note=65 velocity=0 time=0
note_on channel=0 note=75 velocity=40 time=0
note_on channel=0 note=49 velocity=28 time=0
note_on channel=0 note=65 velocity=22 time=160
note_on channel=0 note=65 velocity=0 time=160
note_on channel=0 note=68 velocity=22 time=0
note_on channel=0 note=68 velocity=0 time=160
note_on channel=0 note=75 velocity=0 time=0
note_on channel=0 note=71 velocity=37 time=0
note_on channel=0 note=56 velocity=24 time=0
<meta message set_tempo tempo=489117 time=14>
control_change channel=0 control=64 value=0 time=12
control_change channel=0 control=64 value=127 time=94
note_on channel=0 note=61 velocity=22 time=40
note_on channel=0 note=61 velocity=0 time=160
note_on channel=0 note=65 velocity=22 time=0
note_on channel=0 note=65 velocity=0 time=160
note_on channel=0 note=56 velocity=0 time=0
note_on channel=0 note=71 velocity=0 time=0
note_on channel=0 note=68 velocity=31 time=0
note_on channel=0 note=59 velocity=24 time=0
<meta message set_tempo tempo=517688 time=14>
note_on channel=0 note=61 velocity=20 time=146
note_on channel=0 note=61 velocity=0 time=160
note_on channel=0 note=65 velocity=20 time=0
note_on channel=0 note=65 velocity=0 time=160
note_on channel=0 note=59 velocity=0 time=0
note_on channel=0 note=68 velocity=0 time=0
note_on channel=0 note=49 velocity=0 time=0
note_on channel=0 note=66 velocity=36 time=0
note_on channel=0 note=49 velocity=32 time=0
note_on channel=0 note=42 velocity=28 time=0
control_change channel=0 control=64 value=0 time=0
<meta message set_tempo tempo=505860 time=70>
control_change channel=0 control=64 value=127 time=57
<meta message set_tempo tempo=503948 time=3>
note_on channel=0 note=54 velocity=26 time=30
<meta message set_tempo tempo=502050 time=30>
<meta message set_tempo tempo=500167 time=60>
<meta message set_tempo tempo=498297 time=60>
note_on channel=0 note=54 velocity=0 time=10
note_on channel=0 note=58 velocity=26 time=0
<meta message set_tempo tempo=496442 time=70>
<meta message set_tempo tempo=494601 time=60>
note_on channel=0 note=58 velocity=0 time=30
note_on channel=0 note=61 velocity=28 time=0
<meta message set_tempo tempo=492773 time=30>
<meta message set_tempo tempo=490918 time=60>
<meta message set_tempo tempo=489117 time=60>
note_on channel=0 note=61 velocity=0 time=10
note_on channel=0 note=58 velocity=25 time=0
<meta message set_tempo tempo=487329 time=70>
<meta message set_tempo tempo=485555 time=60>
note_on channel=0 note=58 velocity=0 time=30
note_on channel=0 note=54 velocity=25 time=0
<meta message set_tempo tempo=483793 time=30>
<meta message set_tempo tempo=482044 time=60>
<meta message set_tempo tempo=480307 time=60>
note_on channel=0 note=54 velocity=0 time=10
note_on channel=0 note=58 velocity=32 time=0
note_on channel=0 note=58 velocity=0 time=160
note_on channel=0 note=54 velocity=24 time=0
note_on channel=0 note=54 velocity=0 time=160
note_on channel=0 note=58 velocity=24 time=0
<meta message set_tempo tempo=485555 time=80>
<meta message set_tempo tempo=483793 time=60>
<meta message set_tempo tempo=483793 time=20>
note_on channel=0 note=58 velocity=0 time=0
note_on channel=0 note=61 velocity=29 time=0
note_on channel=0 note=61 velocity=0 time=160
note_on channel=0 note=58 velocity=24 time=0
note_on channel=0 note=58 velocity=0 time=160
note_on channel=0 note=54 velocity=24 time=0
<meta message set_tempo tempo=483793 time=146>
<meta message set_tempo tempo=507786 time=14>
note_on channel=0 note=54 velocity=0 time=0
note_on channel=0 note=66 velocity=0 time=0
note_on channel=0 note=49 velocity=0 time=0
note_on channel=0 note=42 velocity=0 time=0
note_on channel=0 note=58 velocity=32 time=0
note_on channel=0 note=66 velocity=36 time=0
note_on channel=0 note=49 velocity=28 time=0
note_on channel=0 note=42 velocity=25 time=0
<meta message set_tempo tempo=505860 time=70>
<meta message set_tempo tempo=503948 time=60>
note_on channel=0 note=58 velocity=0 time=30
note_on channel=0 note=54 velocity=26 time=0
<meta message set_tempo tempo=502050 time=30>
<meta message set_tempo tempo=500167 time=60>
<meta message set_tempo tempo=498297 time=60>
note_on channel=0 note=54 velocity=0 time=10
note_on channel=0 note=58 velocity=26 time=0
<meta message set_tempo tempo=496442 time=70>
<meta message set_tempo tempo=494601 time=60>
note_on channel=0 note=58 velocity=0 time=30
note_on channel=0 note=61 velocity=28 time=0
<meta message set_tempo tempo=492773 time=30>
<meta message set_tempo tempo=490918 time=60>
<meta message set_tempo tempo=489117 time=60>
note_on channel=0 note=61 velocity=0 time=10
note_on channel=0 note=58 velocity=25 time=0
<meta message set_tempo tempo=487329 time=70>
<meta message set_tempo tempo=485555 time=60>
note_on channel=0 note=58 velocity=0 time=30
note_on channel=0 note=54 velocity=25 time=0
<meta message set_tempo tempo=483793 time=30>
<meta message set_tempo tempo=482044 time=60>
<meta message set_tempo tempo=480307 time=60>
note_on channel=0 note=54 velocity=0 time=10
note_on channel=0 note=42 velocity=0 time=0
note_on channel=0 note=49 velocity=0 time=0
note_on channel=0 note=66 velocity=0 time=0
note_on channel=0 note=66 velocity=36 time=0
note_on channel=0 note=58 velocity=32 time=0
note_on channel=0 note=42 velocity=25 time=0
note_on channel=0 note=49 velocity=28 time=0
note_on channel=0 note=58 velocity=0 time=160
note_on channel=0 note=54 velocity=24 time=0
note_on channel=0 note=54 velocity=0 time=160
note_on channel=0 note=58 velocity=24 time=0
<meta message set_tempo tempo=485555 time=80>
<meta message set_tempo tempo=483793 time=60>
<meta message set_tempo tempo=483793 time=20>
note_on channel=0 note=58 velocity=0 time=0
note_on channel=0 note=61 velocity=29 time=0
note_on channel=0 note=61 velocity=0 time=160
note_on channel=0 note=58 velocity=24 time=0
note_on channel=0 note=58 velocity=0 time=160
note_on channel=0 note=54 velocity=24 time=0
<meta message set_tempo tempo=483793 time=146>
<meta message set_tempo tempo=507786 time=14>
note_on channel=0 note=54 velocity=0 time=0
note_on channel=0 note=49 velocity=0 time=0
note_on channel=0 note=42 velocity=0 time=0
note_on channel=0 note=66 velocity=0 time=0
note_on channel=0 note=54 velocity=25 time=0
note_on channel=0 note=58 velocity=25 time=0
note_on channel=0 note=66 velocity=36 time=0
<meta message set_tempo tempo=505860 time=70>
<meta message set_tempo tempo=502050 time=48>
note_on channel=0 note=42 velocity=26 time=42
<meta message set_tempo tempo=500167 time=78>
note_on channel=0 note=42 velocity=0 time=82
note_on channel=0 note=46 velocity=25 time=0
<meta message set_tempo tempo=498297 time=38>
<meta message set_tempo tempo=496442 time=120>
note_on channel=0 note=46 velocity=0 time=2
note_on channel=0 note=49 velocity=27 time=0
<meta message set_tempo tempo=494601 time=118>
note_on channel=0 note=49 velocity=0 time=42
note_on channel=0 note=46 velocity=24 time=0
<meta message set_tempo tempo=492773 time=78>
note_on channel=0 note=46 velocity=0 time=82
note_on channel=0 note=42 velocity=24 time=0
<meta message set_tempo tempo=490918 time=38>
<meta message set_tempo tempo=489117 time=80>
<meta message set_tempo tempo=480307 time=32>
note_on channel=0 note=42 velocity=0 time=10
note_on channel=0 note=46 velocity=30 time=0
<meta message set_tempo tempo=489117 time=38>
note_on channel=0 note=46 velocity=0 time=122
note_on channel=0 note=42 velocity=22 time=0
note_on channel=0 note=42 velocity=0 time=160
note_on channel=0 note=46 velocity=22 time=0
<meta message set_tempo tempo=485555 time=80>
<meta message set_tempo tempo=492773 time=38>
<meta message set_tempo tempo=483793 time=22>
<meta message set_tempo tempo=483793 time=20>
note_on channel=0 note=46 velocity=0 time=0
note_on channel=0 note=49 velocity=26 time=0
note_on channel=0 note=49 velocity=0 time=160
note_on channel=0 note=46 velocity=22 time=0
note_on channel=0 note=46 velocity=0 time=160
note_on channel=0 note=42 velocity=21 time=0
<meta message set_tempo tempo=483793 time=146>
<meta message set_tempo tempo=507786 time=14>
note_on channel=0 note=42 velocity=0 time=0
note_on channel=0 note=54 velocity=0 time=0
note_on channel=0 note=58 velocity=0 time=0
note_on channel=0 note=66 velocity=0 time=0
note_on channel=0 note=54 velocity=22 time=0
note_on channel=0 note=58 velocity=22 time=0
note_on channel=0 note=66 velocity=32 time=0
note_on channel=0 note=46 velocity=28 time=0
<meta message set_tempo tempo=505860 time=70>
<meta message set_tempo tempo=503948 time=60>
note_on channel=0 note=46 velocity=0 time=30
note_on channel=0 note=42 velocity=23 time=0
<meta message set_tempo tempo=502050 time=30>
<meta message set_tempo tempo=500167 time=60>
<meta message set_tempo tempo=498297 time=60>
note_on channel=0 note=42 velocity=0 time=10
note_on channel=0 note=46 velocity=23 time=0
<meta message set_tempo tempo=496442 time=70>
<meta message set_tempo tempo=494601 time=60>
note_on channel=0 note=46 velocity=0 time=30
note_on channel=0 note=49 velocity=24 time=0
<meta message set_tempo tempo=492773 time=30>
<meta message set_tempo tempo=490918 time=60>
<meta message set_tempo tempo=489117 time=60>
note_on channel=0 note=49 velocity=0 time=10
note_on channel=0 note=46 velocity=21 time=0
<meta message set_tempo tempo=487329 time=70>
<meta message set_tempo tempo=482044 time=48>
note_on channel=0 note=46 velocity=0 time=42
note_on channel=0 note=42 velocity=21 time=0
<meta message set_tempo tempo=483793 time=38>
<meta message set_tempo tempo=485555 time=40>
<meta message set_tempo tempo=487329 time=40>
note_on channel=0 note=42 velocity=0 time=42
note_on channel=0 note=66 velocity=0 time=0
note_on channel=0 note=58 velocity=0 time=0
note_on channel=0 note=54 velocity=0 time=0
note_on channel=0 note=54 velocity=20 time=0
note_on channel=0 note=58 velocity=20 time=0
note_on channel=0 note=66 velocity=30 time=0
note_on channel=0 note=46 velocity=27 time=0
<meta message set_tempo tempo=489117 time=38>
<meta message set_tempo tempo=490918 time=40>
<meta message set_tempo tempo=492773 time=40>
<meta message set_tempo tempo=494601 time=40>
note_on channel=0 note=46 velocity=0 time=2
note_on channel=0 note=42 velocity=20 time=0
<meta message set_tempo tempo=496442 time=78>
<meta message set_tempo tempo=498297 time=40>
<meta message set_tempo tempo=500167 time=40>
note_on channel=0 note=42 velocity=0 time=2
note_on channel=0 note=37 velocity=20 time=0
<meta message set_tempo tempo=502050 time=38>
note_on channel=0 note=37 velocity=0 time=122
note_on channel=0 note=42 velocity=24 time=0
<meta message set_tempo tempo=566145 time=38>
note_on channel=0 note=42 velocity=0 time=122
note_on channel=0 note=37 velocity=19 time=0
<meta message set_tempo tempo=719166 time=158>
note_on channel=0 note=37 velocity=0 time=2
note_on channel=0 note=34 velocity=19 time=0
note_on channel=0 note=34 velocity=0 time=160
note_on channel=0 note=66 velocity=0 time=0
note_on channel=0 note=58 velocity=0 time=0
note_on channel=0 note=54 velocity=0 time=0
note_on channel=0 note=54 velocity=19 time=0
note_on channel=0 note=58 velocity=19 time=0
note_on channel=0 note=66 velocity=28 time=0
note_on channel=0 note=30 velocity=20 time=0
note_on channel=0 note=37 velocity=20 time=0
note_on channel=0 note=42 velocity=23 time=0
note_on channel=0 note=42 velocity=0 time=3840
note_on channel=0 note=58 velocity=0 time=0
note_on channel=0 note=66 velocity=0 time=0
note_on channel=0 note=54 velocity=0 time=0
note_on channel=0 note=37 velocity=0 time=0
note_on channel=0 note=30 velocity=0 time=0
<meta message set_tempo tempo=719166 time=2854>
control_change channel=0 control=64 value=0 time=0
<meta message end_of_track time=0>
