<meta message track_name name='Vier Impromptus Opus 90 - D 899' time=0>
<meta message track_name name='Impromptu Nr. 4 As Dur' time=0>
<meta message copyright text='Copyright © 1996 von Bernd Krüger.' time=0>
<meta message text text='Schubert' time=0>
<meta message text text='Allegretto' time=0>
<meta message text text='Korrekturen am 5.9.98\n' time=0>
<meta message text text='Update am 7.5.99\n' time=0>
<meta message text text='Update am 23.5.99\n' time=0>
<meta message text text='Normierung: 23.12.2002\n' time=0>
<meta message text text='Update am 15.6.2007\n' time=0>
<meta message text text='Update am 19.3.2014\n' time=0>
<meta message text text='Dauer: 7:00 Minuten\n' time=0>
<meta message time_signature numerator=3 denominator=4 clocks_per_click=24 notated_32nd_notes_per_beat=8 time=0>
<meta message key_signature key='Ab' time=0>
<meta message set_tempo tempo=400000 time=0>
<meta message marker text='Allegretto' time=0>
program_change channel=0 program=0 time=0
control_change channel=0 control=7 value=100 time=0
control_change channel=0 control=10 value=64 time=0
control_change channel=0 control=91 value=127 time=0
<meta message text text='bdca426d104a26ac9dcb070447587523' time=0>
program_change channel=0 program=0 time=0
control_change channel=0 control=7 value=100 time=0
control_change channel=0 control=10 value=64 time=0
control_change channel=0 control=91 value=127 time=0
note_on channel=0 note=83 velocity=40 time=4
note_on channel=0 note=44 velocity=40 time=0
control_change channel=0 control=64 value=127 time=12
<meta message set_tempo tempo=392157 time=24>
note_on channel=0 note=87 velocity=34 time=80
note_on channel=0 note=83 velocity=0 time=4
note_on channel=0 note=87 velocity=0 time=116
note_on channel=0 note=83 velocity=40 time=0
note_on channel=0 note=44 velocity=0 time=4
note_on channel=0 note=83 velocity=0 time=116
note_on channel=0 note=80 velocity=34 time=0
<meta message set_tempo tempo=393443 time=80>
note_on channel=0 note=80 velocity=0 time=10
note_on channel=0 note=80 velocity=40 time=30
note_on channel=0 note=56 velocity=34 time=0
note_on channel=0 note=63 velocity=40 time=0
note_on channel=0 note=59 velocity=34 time=0
note_on channel=0 note=80 velocity=0 time=120
note_on channel=0 note=83 velocity=34 time=0
note_on channel=0 note=83 velocity=0 time=120
note_on channel=0 note=80 velocity=40 time=0
<meta message set_tempo tempo=394737 time=120>
note_on channel=0 note=80 velocity=0 time=0
note_on channel=0 note=75 velocity=34 time=0
note_on channel=0 note=75 velocity=0 time=90
note_on channel=0 note=75 velocity=40 time=30
note_on channel=0 note=75 velocity=0 time=120
note_on channel=0 note=80 velocity=34 time=0
<meta message set_tempo tempo=396040 time=120>
note_on channel=0 note=80 velocity=0 time=0
note_on channel=0 note=75 velocity=40 time=0
note_on channel=0 note=75 velocity=0 time=120
note_on channel=0 note=71 velocity=34 time=0
note_on channel=0 note=71 velocity=0 time=90
note_on channel=0 note=71 velocity=40 time=30
note_on channel=0 note=71 velocity=0 time=120
note_on channel=0 note=75 velocity=34 time=0
<meta message set_tempo tempo=397351 time=40>
note_on channel=0 note=75 velocity=0 time=80
note_on channel=0 note=71 velocity=40 time=0
note_on channel=0 note=71 velocity=0 time=120
note_on channel=0 note=68 velocity=34 time=0
note_on channel=0 note=68 velocity=0 time=90
note_on channel=0 note=68 velocity=40 time=30
<meta message set_tempo tempo=398671 time=80>
note_on channel=0 note=68 velocity=0 time=40
note_on channel=0 note=71 velocity=34 time=0
note_on channel=0 note=71 velocity=0 time=120
note_on channel=0 note=68 velocity=40 time=0
note_on channel=0 note=68 velocity=0 time=120
note_on channel=0 note=63 velocity=34 time=0
<meta message set_tempo tempo=400000 time=80>
note_on channel=0 note=63 velocity=0 time=40
note_on channel=0 note=59 velocity=0 time=0
note_on channel=0 note=63 velocity=0 time=0
note_on channel=0 note=56 velocity=0 time=0
note_on channel=0 note=67 velocity=30 time=0
note_on channel=0 note=70 velocity=36 time=0
note_on channel=0 note=58 velocity=28 time=0
note_on channel=0 note=51 velocity=28 time=0
note_on channel=0 note=63 velocity=34 time=0
<meta message set_tempo tempo=480000 time=8>
control_change channel=0 control=64 value=0 time=44
note_on channel=0 note=63 velocity=0 time=188
note_on channel=0 note=58 velocity=0 time=0
note_on channel=0 note=67 velocity=0 time=0
note_on channel=0 note=70 velocity=0 time=0
note_on channel=0 note=51 velocity=0 time=0
<meta message set_tempo tempo=393443 time=240>
note_on channel=0 note=83 velocity=40 time=0
note_on channel=0 note=44 velocity=40 time=0
control_change channel=0 control=64 value=127 time=16
note_on channel=0 note=83 velocity=0 time=104
note_on channel=0 note=87 velocity=34 time=0
note_on channel=0 note=87 velocity=0 time=120
note_on channel=0 note=44 velocity=0 time=0
note_on channel=0 note=83 velocity=40 time=0
note_on channel=0 note=83 velocity=0 time=120
note_on channel=0 note=80 velocity=34 time=0
<meta message set_tempo tempo=394737 time=40>
note_on channel=0 note=80 velocity=0 time=50
note_on channel=0 note=80 velocity=40 time=30
note_on channel=0 note=56 velocity=34 time=0
note_on channel=0 note=63 velocity=40 time=0
note_on channel=0 note=59 velocity=34 time=0
note_on channel=0 note=80 velocity=0 time=120
note_on channel=0 note=83 velocity=34 time=0
note_on channel=0 note=83 velocity=0 time=120
note_on channel=0 note=80 velocity=40 time=0
<meta message set_tempo tempo=396040 time=80>
note_on channel=0 note=80 velocity=0 time=40
note_on channel=0 note=75 velocity=34 time=0
note_on channel=0 note=75 velocity=0 time=90
note_on channel=0 note=75 velocity=40 time=30
note_on channel=0 note=75 velocity=0 time=120
note_on channel=0 note=80 velocity=34 time=0
<meta message set_tempo tempo=397351 time=120>
note_on channel=0 note=80 velocity=0 time=0
note_on channel=0 note=75 velocity=40 time=0
note_on channel=0 note=75 velocity=0 time=120
note_on channel=0 note=71 velocity=34 time=0
note_on channel=0 note=71 velocity=0 time=90
note_on channel=0 note=71 velocity=40 time=30
note_on channel=0 note=71 velocity=0 time=120
note_on channel=0 note=75 velocity=34 time=0
<meta message set_tempo tempo=398671 time=40>
note_on channel=0 note=75 velocity=0 time=80
note_on channel=0 note=71 velocity=40 time=0
note_on channel=0 note=71 velocity=0 time=120
note_on channel=0 note=68 velocity=34 time=0
note_on channel=0 note=68 velocity=0 time=90
note_on channel=0 note=68 velocity=40 time=30
<meta message set_tempo tempo=400000 time=80>
note_on channel=0 note=68 velocity=0 time=40
note_on channel=0 note=71 velocity=34 time=0
note_on channel=0 note=71 velocity=0 time=120
note_on channel=0 note=68 velocity=40 time=0
note_on channel=0 note=68 velocity=0 time=120
note_on channel=0 note=63 velocity=34 time=0
<meta message set_tempo tempo=401338 time=80>
<meta message set_tempo tempo=502092 time=32>
note_on channel=0 note=63 velocity=0 time=8
note_on channel=0 note=59 velocity=0 time=0
note_on channel=0 note=63 velocity=0 time=0
note_on channel=0 note=56 velocity=0 time=0
note_on channel=0 note=67 velocity=30 time=0
note_on channel=0 note=70 velocity=36 time=0
note_on channel=0 note=51 velocity=28 time=0
note_on channel=0 note=63 velocity=34 time=0
note_on channel=0 note=58 velocity=28 time=0
control_change channel=0 control=64 value=0 time=36
note_on channel=0 note=58 velocity=0 time=204
note_on channel=0 note=51 velocity=0 time=0
note_on channel=0 note=67 velocity=0 time=0
note_on channel=0 note=70 velocity=0 time=0
note_on channel=0 note=63 velocity=0 time=0
note_on channel=0 note=68 velocity=31 time=240
note_on channel=0 note=71 velocity=31 time=0
note_on channel=0 note=63 velocity=27 time=0
note_on channel=0 note=56 velocity=27 time=0
note_on channel=0 note=59 velocity=27 time=0
<meta message set_tempo tempo=502092 time=8>
note_on channel=0 note=59 velocity=0 time=448
note_on channel=0 note=63 velocity=0 time=0
note_on channel=0 note=68 velocity=0 time=0
note_on channel=0 note=71 velocity=0 time=0
note_on channel=0 note=56 velocity=0 time=0
<meta message set_tempo tempo=428571 time=16>
note_on channel=0 note=67 velocity=31 time=8
note_on channel=0 note=70 velocity=31 time=0
note_on channel=0 note=76 velocity=31 time=0
note_on channel=0 note=51 velocity=27 time=0
note_on channel=0 note=58 velocity=27 time=0
note_on channel=0 note=64 velocity=27 time=0
note_on channel=0 note=64 velocity=0 time=456
note_on channel=0 note=70 velocity=0 time=0
note_on channel=0 note=76 velocity=0 time=0
note_on channel=0 note=67 velocity=0 time=0
note_on channel=0 note=58 velocity=0 time=0
note_on channel=0 note=51 velocity=0 time=0
note_on channel=0 note=67 velocity=36 time=24
note_on channel=0 note=70 velocity=36 time=0
note_on channel=0 note=76 velocity=36 time=0
note_on channel=0 note=58 velocity=31 time=0
note_on channel=0 note=64 velocity=31 time=0
note_on channel=0 note=51 velocity=31 time=0
note_on channel=0 note=51 velocity=0 time=456
note_on channel=0 note=70 velocity=0 time=0
note_on channel=0 note=76 velocity=0 time=0
note_on channel=0 note=67 velocity=0 time=0
note_on channel=0 note=64 velocity=0 time=0
note_on channel=0 note=58 velocity=0 time=0
note_on channel=0 note=67 velocity=37 time=24
note_on channel=0 note=70 velocity=37 time=0
note_on channel=0 note=76 velocity=37 time=0
note_on channel=0 note=51 velocity=31 time=0
note_on channel=0 note=64 velocity=31 time=0
note_on channel=0 note=58 velocity=31 time=0
<meta message set_tempo tempo=500000 time=8>
note_on channel=0 note=58 velocity=0 time=448
note_on channel=0 note=70 velocity=0 time=0
note_on channel=0 note=76 velocity=0 time=0
note_on channel=0 note=67 velocity=0 time=0
note_on channel=0 note=64 velocity=0 time=0
note_on channel=0 note=51 velocity=0 time=0
note_on channel=0 note=67 velocity=31 time=24
note_on channel=0 note=70 velocity=31 time=0
note_on channel=0 note=75 velocity=31 time=0
note_on channel=0 note=58 velocity=25 time=0
note_on channel=0 note=51 velocity=25 time=0
note_on channel=0 note=63 velocity=25 time=0
note_on channel=0 note=63 velocity=0 time=456
note_on channel=0 note=70 velocity=0 time=0
note_on channel=0 note=75 velocity=0 time=0
note_on channel=0 note=67 velocity=0 time=0
note_on channel=0 note=51 velocity=0 time=0
note_on channel=0 note=58 velocity=0 time=0
<meta message set_tempo tempo=545455 time=16>
note_on channel=0 note=67 velocity=31 time=8
note_on channel=0 note=70 velocity=31 time=0
note_on channel=0 note=73 velocity=31 time=0
note_on channel=0 note=61 velocity=25 time=0
note_on channel=0 note=58 velocity=25 time=0
note_on channel=0 note=51 velocity=25 time=0
note_on channel=0 note=51 velocity=0 time=456
note_on channel=0 note=70 velocity=0 time=0
note_on channel=0 note=73 velocity=0 time=0
note_on channel=0 note=67 velocity=0 time=0
note_on channel=0 note=58 velocity=0 time=0
note_on channel=0 note=61 velocity=0 time=0
<meta message set_tempo tempo=393443 time=24>
note_on channel=0 note=83 velocity=40 time=0
note_on channel=0 note=44 velocity=40 time=0
control_change channel=0 control=64 value=127 time=69
note_on channel=0 note=83 velocity=0 time=51
note_on channel=0 note=87 velocity=34 time=0
note_on channel=0 note=87 velocity=0 time=120
note_on channel=0 note=44 velocity=0 time=0
note_on channel=0 note=83 velocity=40 time=0
note_on channel=0 note=83 velocity=0 time=120
note_on channel=0 note=80 velocity=34 time=0
<meta message set_tempo tempo=394737 time=40>
note_on channel=0 note=80 velocity=0 time=50
note_on channel=0 note=80 velocity=40 time=30
note_on channel=0 note=56 velocity=34 time=0
note_on channel=0 note=63 velocity=40 time=0
note_on channel=0 note=59 velocity=34 time=0
note_on channel=0 note=80 velocity=0 time=120
note_on channel=0 note=83 velocity=34 time=0
note_on channel=0 note=83 velocity=0 time=120
note_on channel=0 note=80 velocity=40 time=0
<meta message set_tempo tempo=396040 time=80>
note_on channel=0 note=80 velocity=0 time=40
note_on channel=0 note=75 velocity=34 time=0
note_on channel=0 note=75 velocity=0 time=90
note_on channel=0 note=75 velocity=40 time=30
note_on channel=0 note=75 velocity=0 time=120
note_on channel=0 note=80 velocity=34 time=0
<meta message set_tempo tempo=397351 time=120>
note_on channel=0 note=80 velocity=0 time=0
note_on channel=0 note=75 velocity=40 time=0
note_on channel=0 note=75 velocity=0 time=120
note_on channel=0 note=71 velocity=34 time=0
note_on channel=0 note=71 velocity=0 time=90
note_on channel=0 note=71 velocity=40 time=30
note_on channel=0 note=71 velocity=0 time=120
note_on channel=0 note=75 velocity=34 time=0
<meta message set_tempo tempo=398671 time=40>
note_on channel=0 note=75 velocity=0 time=80
note_on channel=0 note=71 velocity=40 time=0
note_on channel=0 note=71 velocity=0 time=120
note_on channel=0 note=68 velocity=34 time=0
note_on channel=0 note=68 velocity=0 time=90
note_on channel=0 note=68 velocity=40 time=30
<meta message set_tempo tempo=400000 time=80>
note_on channel=0 note=68 velocity=0 time=40
note_on channel=0 note=71 velocity=34 time=0
note_on channel=0 note=71 velocity=0 time=120
note_on channel=0 note=68 velocity=40 time=0
note_on channel=0 note=68 velocity=0 time=120
note_on channel=0 note=63 velocity=34 time=0
<meta message set_tempo tempo=401338 time=80>
<meta message set_tempo tempo=480000 time=40>
note_on channel=0 note=63 velocity=0 time=0
note_on channel=0 note=59 velocity=0 time=0
note_on channel=0 note=63 velocity=0 time=0
note_on channel=0 note=56 velocity=0 time=0
note_on channel=0 note=67 velocity=30 time=0
note_on channel=0 note=70 velocity=36 time=0
note_on channel=0 note=51 velocity=26 time=0
note_on channel=0 note=63 velocity=31 time=0
note_on channel=0 note=58 velocity=26 time=0
control_change channel=0 control=64 value=0 time=30
note_on channel=0 note=58 velocity=0 time=210
note_on channel=0 note=51 velocity=0 time=0
note_on channel=0 note=67 velocity=0 time=0
note_on channel=0 note=70 velocity=0 time=0
note_on channel=0 note=63 velocity=0 time=0
<meta message set_tempo tempo=394737 time=240>
note_on channel=0 note=83 velocity=40 time=0
note_on channel=0 note=44 velocity=40 time=0
control_change channel=0 control=64 value=127 time=28
note_on channel=0 note=83 velocity=0 time=92
note_on channel=0 note=87 velocity=34 time=0
note_on channel=0 note=87 velocity=0 time=120
note_on channel=0 note=44 velocity=0 time=0
note_on channel=0 note=83 velocity=40 time=0
note_on channel=0 note=83 velocity=0 time=120
note_on channel=0 note=80 velocity=34 time=0
note_on channel=0 note=80 velocity=0 time=90
<meta message set_tempo tempo=396040 time=30>
note_on channel=0 note=80 velocity=40 time=0
note_on channel=0 note=59 velocity=34 time=0
note_on channel=0 note=63 velocity=40 time=0
note_on channel=0 note=56 velocity=34 time=0
note_on channel=0 note=80 velocity=0 time=120
note_on channel=0 note=83 velocity=34 time=0
note_on channel=0 note=83 velocity=0 time=120
note_on channel=0 note=80 velocity=40 time=0
note_on channel=0 note=80 velocity=0 time=120
note_on channel=0 note=75 velocity=34 time=0
note_on channel=0 note=75 velocity=0 time=90
<meta message set_tempo tempo=397351 time=30>
note_on channel=0 note=75 velocity=40 time=0
note_on channel=0 note=75 velocity=0 time=120
note_on channel=0 note=80 velocity=34 time=0
note_on channel=0 note=80 velocity=0 time=120
note_on channel=0 note=75 velocity=40 time=0
note_on channel=0 note=75 velocity=0 time=120
note_on channel=0 note=71 velocity=34 time=0
note_on channel=0 note=71 velocity=0 time=90
<meta message set_tempo tempo=398671 time=30>
note_on channel=0 note=71 velocity=40 time=0
note_on channel=0 note=71 velocity=0 time=120
note_on channel=0 note=75 velocity=34 time=0
note_on channel=0 note=75 velocity=0 time=120
note_on channel=0 note=71 velocity=40 time=0
note_on channel=0 note=71 velocity=0 time=120
note_on channel=0 note=68 velocity=34 time=0
note_on channel=0 note=68 velocity=0 time=90
<meta message set_tempo tempo=400000 time=30>
note_on channel=0 note=68 velocity=40 time=0
note_on channel=0 note=68 velocity=0 time=120
note_on channel=0 note=71 velocity=34 time=0
note_on channel=0 note=71 velocity=0 time=120
note_on channel=0 note=68 velocity=40 time=0
note_on channel=0 note=68 velocity=0 time=120
note_on channel=0 note=63 velocity=34 time=0
<meta message set_tempo tempo=401338 time=80>
<meta message set_tempo tempo=461538 time=40>
note_on channel=0 note=63 velocity=0 time=0
note_on channel=0 note=56 velocity=0 time=0
note_on channel=0 note=63 velocity=0 time=0
note_on channel=0 note=59 velocity=0 time=0
note_on channel=0 note=70 velocity=36 time=0
note_on channel=0 note=67 velocity=30 time=0
note_on channel=0 note=58 velocity=27 time=0
note_on channel=0 note=63 velocity=32 time=0
note_on channel=0 note=51 velocity=27 time=0
control_change channel=0 control=64 value=0 time=16
note_on channel=0 note=51 velocity=0 time=224
note_on channel=0 note=58 velocity=0 time=0
note_on channel=0 note=70 velocity=0 time=0
note_on channel=0 note=67 velocity=0 time=0
note_on channel=0 note=63 velocity=0 time=0
<meta message set_tempo tempo=502092 time=240>
note_on channel=0 note=68 velocity=31 time=0
note_on channel=0 note=71 velocity=31 time=0
note_on channel=0 note=59 velocity=27 time=0
note_on channel=0 note=56 velocity=27 time=0
note_on channel=0 note=63 velocity=27 time=0
<meta message set_tempo tempo=502092 time=8>
note_on channel=0 note=63 velocity=0 time=448
note_on channel=0 note=59 velocity=0 time=0
note_on channel=0 note=68 velocity=0 time=0
note_on channel=0 note=71 velocity=0 time=0
note_on channel=0 note=56 velocity=0 time=0
<meta message set_tempo tempo=428571 time=16>
note_on channel=0 note=76 velocity=31 time=8
note_on channel=0 note=70 velocity=31 time=0
note_on channel=0 note=66 velocity=31 time=0
note_on channel=0 note=64 velocity=27 time=0
note_on channel=0 note=54 velocity=27 time=0
note_on channel=0 note=58 velocity=27 time=0
note_on channel=0 note=58 velocity=0 time=456
note_on channel=0 note=70 velocity=0 time=0
note_on channel=0 note=66 velocity=0 time=0
note_on channel=0 note=76 velocity=0 time=0
note_on channel=0 note=54 velocity=0 time=0
note_on channel=0 note=64 velocity=0 time=0
note_on channel=0 note=66 velocity=36 time=24
note_on channel=0 note=70 velocity=36 time=0
note_on channel=0 note=76 velocity=36 time=0
note_on channel=0 note=54 velocity=31 time=0
note_on channel=0 note=64 velocity=31 time=0
note_on channel=0 note=58 velocity=31 time=0
note_on channel=0 note=58 velocity=0 time=456
note_on channel=0 note=70 velocity=0 time=0
note_on channel=0 note=76 velocity=0 time=0
note_on channel=0 note=66 velocity=0 time=0
note_on channel=0 note=64 velocity=0 time=0
note_on channel=0 note=54 velocity=0 time=0
note_on channel=0 note=66 velocity=37 time=24
note_on channel=0 note=70 velocity=37 time=0
note_on channel=0 note=76 velocity=37 time=0
note_on channel=0 note=58 velocity=31 time=0
note_on channel=0 note=64 velocity=31 time=0
note_on channel=0 note=54 velocity=31 time=0
<meta message set_tempo tempo=500000 time=8>
note_on channel=0 note=54 velocity=0 time=448
note_on channel=0 note=70 velocity=0 time=0
note_on channel=0 note=76 velocity=0 time=0
note_on channel=0 note=66 velocity=0 time=0
note_on channel=0 note=64 velocity=0 time=0
note_on channel=0 note=58 velocity=0 time=0
note_on channel=0 note=75 velocity=31 time=24
note_on channel=0 note=70 velocity=31 time=0
note_on channel=0 note=66 velocity=31 time=0
note_on channel=0 note=54 velocity=25 time=0
note_on channel=0 note=63 velocity=25 time=0
note_on channel=0 note=58 velocity=25 time=0
note_on channel=0 note=58 velocity=0 time=456
note_on channel=0 note=70 velocity=0 time=0
note_on channel=0 note=66 velocity=0 time=0
note_on channel=0 note=75 velocity=0 time=0
note_on channel=0 note=63 velocity=0 time=0
note_on channel=0 note=54 velocity=0 time=0
<meta message set_tempo tempo=545455 time=16>
note_on channel=0 note=70 velocity=31 time=8
note_on channel=0 note=66 velocity=31 time=0
note_on channel=0 note=74 velocity=31 time=0
note_on channel=0 note=62 velocity=25 time=0
note_on channel=0 note=54 velocity=25 time=0
note_on channel=0 note=58 velocity=25 time=0
note_on channel=0 note=58 velocity=0 time=456
note_on channel=0 note=66 velocity=0 time=0
note_on channel=0 note=74 velocity=0 time=0
note_on channel=0 note=70 velocity=0 time=0
note_on channel=0 note=54 velocity=0 time=0
note_on channel=0 note=62 velocity=0 time=0
<meta message set_tempo tempo=396040 time=24>
note_on channel=0 note=87 velocity=50 time=0
control_change channel=0 control=91 value=127 time=0
note_on channel=0 note=47 velocity=50 time=0
control_change channel=0 control=64 value=127 time=0
control_change channel=0 control=91 value=126 time=8
note_on channel=0 note=87 velocity=0 time=112
note_on channel=0 note=90 velocity=42 time=0
note_on channel=0 note=90 velocity=0 time=120
note_on channel=0 note=47 velocity=0 time=0
note_on channel=0 note=87 velocity=50 time=0
note_on channel=0 note=87 velocity=0 time=120
note_on channel=0 note=83 velocity=42 time=0
note_on channel=0 note=83 velocity=0 time=90
note_on channel=0 note=83 velocity=50 time=30
note_on channel=0 note=63 velocity=50 time=0
note_on channel=0 note=54 velocity=42 time=0
note_on channel=0 note=59 velocity=42 time=0
note_on channel=0 note=83 velocity=0 time=120
note_on channel=0 note=87 velocity=42 time=0
note_on channel=0 note=87 velocity=0 time=120
note_on channel=0 note=83 velocity=50 time=0
<meta message set_tempo tempo=397351 time=80>
note_on channel=0 note=83 velocity=0 time=40
note_on channel=0 note=78 velocity=42 time=0
note_on channel=0 note=78 velocity=0 time=90
note_on channel=0 note=78 velocity=50 time=30
note_on channel=0 note=78 velocity=0 time=120
note_on channel=0 note=83 velocity=42 time=0
note_on channel=0 note=83 velocity=0 time=120
note_on channel=0 note=78 velocity=50 time=0
note_on channel=0 note=78 velocity=0 time=120
note_on channel=0 note=75 velocity=42 time=0
note_on channel=0 note=75 velocity=0 time=90
note_on channel=0 note=75 velocity=50 time=30
note_on channel=0 note=75 velocity=0 time=120
note_on channel=0 note=78 velocity=42 time=0
<meta message set_tempo tempo=398671 time=40>
note_on channel=0 note=78 velocity=0 time=80
note_on channel=0 note=75 velocity=50 time=0
note_on channel=0 note=75 velocity=0 time=120
note_on channel=0 note=71 velocity=42 time=0
note_on channel=0 note=71 velocity=0 time=90
note_on channel=0 note=71 velocity=50 time=30
note_on channel=0 note=71 velocity=0 time=120
note_on channel=0 note=75 velocity=42 time=0
note_on channel=0 note=75 velocity=0 time=120
note_on channel=0 note=71 velocity=50 time=0
note_on channel=0 note=71 velocity=0 time=120
note_on channel=0 note=66 velocity=42 time=0
<meta message set_tempo tempo=400000 time=80>
note_on channel=0 note=66 velocity=0 time=40
note_on channel=0 note=59 velocity=0 time=0
note_on channel=0 note=54 velocity=0 time=0
note_on channel=0 note=63 velocity=0 time=0
note_on channel=0 note=70 velocity=37 time=0
note_on channel=0 note=73 velocity=45 time=0
note_on channel=0 note=54 velocity=35 time=0
note_on channel=0 note=64 velocity=41 time=0
<meta message set_tempo tempo=480000 time=8>
control_change channel=0 control=64 value=0 time=3
note_on channel=0 note=64 velocity=0 time=229
note_on channel=0 note=70 velocity=0 time=0
note_on channel=0 note=73 velocity=0 time=0
note_on channel=0 note=54 velocity=0 time=0
<meta message set_tempo tempo=400000 time=240>
note_on channel=0 note=87 velocity=50 time=0
control_change channel=0 control=91 value=127 time=0
note_on channel=0 note=47 velocity=50 time=0
control_change channel=0 control=91 value=126 time=8
control_change channel=0 control=64 value=127 time=28
<meta message set_tempo tempo=394737 time=4>
note_on channel=0 note=87 velocity=0 time=80
note_on channel=0 note=90 velocity=42 time=0
note_on channel=0 note=90 velocity=0 time=120
note_on channel=0 note=47 velocity=0 time=0
note_on channel=0 note=87 velocity=50 time=0
note_on channel=0 note=87 velocity=0 time=120
note_on channel=0 note=83 velocity=42 time=0
note_on channel=0 note=83 velocity=0 time=90
note_on channel=0 note=83 velocity=50 time=30
note_on channel=0 note=59 velocity=42 time=0
note_on channel=0 note=63 velocity=50 time=0
note_on channel=0 note=54 velocity=42 time=0
<meta message set_tempo tempo=396040 time=40>
note_on channel=0 note=83 velocity=0 time=80
note_on channel=0 note=87 velocity=42 time=0
note_on channel=0 note=87 velocity=0 time=120
note_on channel=0 note=83 velocity=50 time=0
note_on channel=0 note=83 velocity=0 time=120
note_on channel=0 note=78 velocity=42 time=0
note_on channel=0 note=78 velocity=0 time=90
note_on channel=0 note=78 velocity=50 time=30
<meta message set_tempo tempo=397351 time=40>
note_on channel=0 note=78 velocity=0 time=80
note_on channel=0 note=83 velocity=42 time=0
note_on channel=0 note=83 velocity=0 time=120
note_on channel=0 note=78 velocity=50 time=0
note_on channel=0 note=78 velocity=0 time=120
note_on channel=0 note=75 velocity=42 time=0
note_on channel=0 note=75 velocity=0 time=90
<meta message set_tempo tempo=398671 time=30>
note_on channel=0 note=75 velocity=50 time=0
note_on channel=0 note=75 velocity=0 time=120
note_on channel=0 note=78 velocity=42 time=0
note_on channel=0 note=78 velocity=0 time=120
note_on channel=0 note=75 velocity=50 time=0
note_on channel=0 note=75 velocity=0 time=120
note_on channel=0 note=71 velocity=42 time=0
note_on channel=0 note=71 velocity=0 time=90
<meta message set_tempo tempo=400000 time=30>
note_on channel=0 note=71 velocity=50 time=0
note_on channel=0 note=71 velocity=0 time=120
note_on channel=0 note=75 velocity=42 time=0
note_on channel=0 note=75 velocity=0 time=120
note_on channel=0 note=71 velocity=50 time=0
note_on channel=0 note=71 velocity=0 time=120
note_on channel=0 note=66 velocity=42 time=0
<meta message set_tempo tempo=401338 time=80>
<meta message set_tempo tempo=461538 time=40>
note_on channel=0 note=66 velocity=0 time=0
note_on channel=0 note=54 velocity=0 time=0
note_on channel=0 note=63 velocity=0 time=0
note_on channel=0 note=59 velocity=0 time=0
note_on channel=0 note=70 velocity=37 time=0
note_on channel=0 note=73 velocity=45 time=0
note_on channel=0 note=64 velocity=41 time=0
note_on channel=0 note=54 velocity=35 time=0
control_change channel=0 control=64 value=0 time=8
note_on channel=0 note=54 velocity=0 time=232
note_on channel=0 note=70 velocity=0 time=0
note_on channel=0 note=73 velocity=0 time=0
note_on channel=0 note=64 velocity=0 time=0
note_on channel=0 note=71 velocity=41 time=240
note_on channel=0 note=75 velocity=41 time=0
note_on channel=0 note=59 velocity=36 time=0
note_on channel=0 note=63 velocity=36 time=0
note_on channel=0 note=63 velocity=0 time=456
note_on channel=0 note=71 velocity=0 time=0
note_on channel=0 note=75 velocity=0 time=0
note_on channel=0 note=59 velocity=0 time=0
<meta message set_tempo tempo=428571 time=16>
note_on channel=0 note=70 velocity=47 time=8
note_on channel=0 note=80 velocity=47 time=0
note_on channel=0 note=73 velocity=47 time=0
note_on channel=0 note=54 velocity=41 time=0
note_on channel=0 note=64 velocity=41 time=0
note_on channel=0 note=64 velocity=0 time=456
note_on channel=0 note=73 velocity=0 time=0
note_on channel=0 note=70 velocity=0 time=0
note_on channel=0 note=80 velocity=0 time=0
note_on channel=0 note=54 velocity=0 time=0
note_on channel=0 note=80 velocity=48 time=24
note_on channel=0 note=73 velocity=48 time=0
note_on channel=0 note=70 velocity=48 time=0
note_on channel=0 note=54 velocity=45 time=0
note_on channel=0 note=64 velocity=45 time=0
<meta message set_tempo tempo=472441 time=456>
note_on channel=0 note=64 velocity=0 time=0
note_on channel=0 note=70 velocity=0 time=0
note_on channel=0 note=80 velocity=0 time=0
note_on channel=0 note=73 velocity=0 time=0
note_on channel=0 note=54 velocity=0 time=0
note_on channel=0 note=80 velocity=49 time=24
note_on channel=0 note=73 velocity=49 time=0
note_on channel=0 note=70 velocity=49 time=0
note_on channel=0 note=54 velocity=45 time=0
note_on channel=0 note=64 velocity=45 time=0
note_on channel=0 note=64 velocity=0 time=456
note_on channel=0 note=70 velocity=0 time=0
note_on channel=0 note=80 velocity=0 time=0
note_on channel=0 note=73 velocity=0 time=0
note_on channel=0 note=54 velocity=0 time=0
note_on channel=0 note=78 velocity=39 time=24
note_on channel=0 note=70 velocity=39 time=0
note_on channel=0 note=75 velocity=39 time=0
note_on channel=0 note=63 velocity=36 time=0
note_on channel=0 note=54 velocity=36 time=0
note_on channel=0 note=54 velocity=0 time=456
note_on channel=0 note=75 velocity=0 time=0
note_on channel=0 note=78 velocity=0 time=0
note_on channel=0 note=70 velocity=0 time=0
note_on channel=0 note=63 velocity=0 time=0
<meta message set_tempo tempo=545455 time=16>
note_on channel=0 note=76 velocity=39 time=8
note_on channel=0 note=70 velocity=39 time=0
note_on channel=0 note=61 velocity=36 time=0
note_on channel=0 note=54 velocity=36 time=0
note_on channel=0 note=54 velocity=0 time=456
note_on channel=0 note=76 velocity=0 time=0
note_on channel=0 note=70 velocity=0 time=0
note_on channel=0 note=61 velocity=0 time=0
<meta message set_tempo tempo=394737 time=24>
note_on channel=0 note=86 velocity=50 time=0
control_change channel=0 control=91 value=127 time=0
note_on channel=0 note=47 velocity=50 time=0
control_change channel=0 control=91 value=126 time=8
control_change channel=0 control=64 value=127 time=72
note_on channel=0 note=86 velocity=0 time=40
note_on channel=0 note=90 velocity=42 time=0
note_on channel=0 note=90 velocity=0 time=120
note_on channel=0 note=47 velocity=0 time=0
note_on channel=0 note=86 velocity=50 time=0
note_on channel=0 note=86 velocity=0 time=120
note_on channel=0 note=83 velocity=42 time=0
note_on channel=0 note=83 velocity=0 time=90
note_on channel=0 note=83 velocity=50 time=30
note_on channel=0 note=59 velocity=42 time=0
note_on channel=0 note=62 velocity=50 time=0
note_on channel=0 note=54 velocity=42 time=0
<meta message set_tempo tempo=396040 time=120>
note_on channel=0 note=83 velocity=0 time=0
note_on channel=0 note=86 velocity=42 time=0
note_on channel=0 note=86 velocity=0 time=120
note_on channel=0 note=83 velocity=50 time=0
note_on channel=0 note=83 velocity=0 time=120
note_on channel=0 note=78 velocity=42 time=0
note_on channel=0 note=78 velocity=0 time=90
note_on channel=0 note=78 velocity=50 time=30
note_on channel=0 note=78 velocity=0 time=120
note_on channel=0 note=83 velocity=42 time=0
<meta message set_tempo tempo=397351 time=80>
note_on channel=0 note=83 velocity=0 time=40
note_on channel=0 note=78 velocity=50 time=0
note_on channel=0 note=78 velocity=0 time=120
note_on channel=0 note=74 velocity=42 time=0
note_on channel=0 note=74 velocity=0 time=90
note_on channel=0 note=74 velocity=50 time=30
note_on channel=0 note=74 velocity=0 time=120
note_on channel=0 note=78 velocity=42 time=0
note_on channel=0 note=78 velocity=0 time=120
note_on channel=0 note=74 velocity=50 time=0
<meta message set_tempo tempo=398671 time=80>
note_on channel=0 note=74 velocity=0 time=40
note_on channel=0 note=71 velocity=42 time=0
note_on channel=0 note=71 velocity=0 time=90
note_on channel=0 note=71 velocity=50 time=30
note_on channel=0 note=71 velocity=0 time=120
note_on channel=0 note=74 velocity=42 time=0
note_on channel=0 note=74 velocity=0 time=120
note_on channel=0 note=71 velocity=50 time=0
note_on channel=0 note=71 velocity=0 time=120
note_on channel=0 note=66 velocity=42 time=0
<meta message set_tempo tempo=400000 time=40>
note_on channel=0 note=66 velocity=0 time=80
note_on channel=0 note=54 velocity=0 time=0
note_on channel=0 note=62 velocity=0 time=0
note_on channel=0 note=59 velocity=0 time=0
note_on channel=0 note=73 velocity=45 time=0
note_on channel=0 note=70 velocity=37 time=0
note_on channel=0 note=54 velocity=34 time=0
note_on channel=0 note=64 velocity=40 time=0
<meta message set_tempo tempo=480000 time=8>
control_change channel=0 control=64 value=0 time=3
note_on channel=0 note=64 velocity=0 time=229
note_on channel=0 note=73 velocity=0 time=0
note_on channel=0 note=70 velocity=0 time=0
note_on channel=0 note=54 velocity=0 time=0
<meta message set_tempo tempo=400000 time=240>
note_on channel=0 note=86 velocity=50 time=0
control_change channel=0 control=91 value=127 time=0
note_on channel=0 note=47 velocity=50 time=0
control_change channel=0 control=91 value=126 time=8
control_change channel=0 control=64 value=127 time=28
<meta message set_tempo tempo=394737 time=4>
note_on channel=0 note=86 velocity=0 time=80
note_on channel=0 note=90 velocity=42 time=0
note_on channel=0 note=90 velocity=0 time=120
note_on channel=0 note=47 velocity=0 time=0
note_on channel=0 note=86 velocity=50 time=0
note_on channel=0 note=86 velocity=0 time=120
note_on channel=0 note=83 velocity=42 time=0
note_on channel=0 note=83 velocity=0 time=90
note_on channel=0 note=83 velocity=50 time=30
note_on channel=0 note=62 velocity=50 time=0
note_on channel=0 note=54 velocity=42 time=0
note_on channel=0 note=59 velocity=42 time=0
note_on channel=0 note=83 velocity=0 time=120
note_on channel=0 note=86 velocity=42 time=0
<meta message set_tempo tempo=396040 time=40>
note_on channel=0 note=86 velocity=0 time=80
note_on channel=0 note=83 velocity=50 time=0
note_on channel=0 note=83 velocity=0 time=120
note_on channel=0 note=78 velocity=42 time=0
note_on channel=0 note=78 velocity=0 time=90
note_on channel=0 note=78 velocity=50 time=30
note_on channel=0 note=78 velocity=0 time=120
note_on channel=0 note=83 velocity=43 time=0
note_on channel=0 note=83 velocity=0 time=120
note_on channel=0 note=78 velocity=50 time=0
<meta message set_tempo tempo=397351 time=40>
note_on channel=0 note=78 velocity=0 time=80
note_on channel=0 note=74 velocity=42 time=0
note_on channel=0 note=74 velocity=0 time=90
note_on channel=0 note=74 velocity=50 time=30
note_on channel=0 note=74 velocity=0 time=120
note_on channel=0 note=78 velocity=42 time=0
note_on channel=0 note=78 velocity=0 time=120
note_on channel=0 note=74 velocity=50 time=0
note_on channel=0 note=74 velocity=0 time=120
note_on channel=0 note=71 velocity=42 time=0
<meta message set_tempo tempo=398671 time=40>
note_on channel=0 note=71 velocity=0 time=50
note_on channel=0 note=71 velocity=50 time=30
note_on channel=0 note=71 velocity=0 time=120
note_on channel=0 note=74 velocity=42 time=0
note_on channel=0 note=74 velocity=0 time=120
note_on channel=0 note=71 velocity=50 time=0
note_on channel=0 note=71 velocity=0 time=120
note_on channel=0 note=66 velocity=42 time=0
<meta message set_tempo tempo=400000 time=120>
note_on channel=0 note=66 velocity=0 time=0
note_on channel=0 note=59 velocity=0 time=0
note_on channel=0 note=54 velocity=0 time=0
note_on channel=0 note=62 velocity=0 time=0
note_on channel=0 note=70 velocity=45 time=0
note_on channel=0 note=73 velocity=45 time=0
note_on channel=0 note=54 velocity=35 time=0
note_on channel=0 note=64 velocity=41 time=0
<meta message set_tempo tempo=480000 time=8>
control_change channel=0 control=64 value=0 time=3
note_on channel=0 note=64 velocity=0 time=229
note_on channel=0 note=70 velocity=0 time=0
note_on channel=0 note=73 velocity=0 time=0
note_on channel=0 note=54 velocity=0 time=0
<meta message set_tempo tempo=517241 time=232>
note_on channel=0 note=74 velocity=41 time=8
note_on channel=0 note=66 velocity=41 time=0
note_on channel=0 note=71 velocity=41 time=0
note_on channel=0 note=62 velocity=40 time=0
note_on channel=0 note=59 velocity=40 time=0
note_on channel=0 note=59 velocity=0 time=456
note_on channel=0 note=71 velocity=0 time=0
note_on channel=0 note=74 velocity=0 time=0
note_on channel=0 note=66 velocity=0 time=0
note_on channel=0 note=62 velocity=0 time=0
<meta message set_tempo tempo=428571 time=16>
note_on channel=0 note=73 velocity=50 time=8
note_on channel=0 note=76 velocity=50 time=0
note_on channel=0 note=83 velocity=50 time=0
note_on channel=0 note=57 velocity=45 time=0
note_on channel=0 note=67 velocity=45 time=0
note_on channel=0 note=67 velocity=0 time=456
note_on channel=0 note=83 velocity=0 time=0
note_on channel=0 note=73 velocity=0 time=0
note_on channel=0 note=76 velocity=0 time=0
note_on channel=0 note=57 velocity=0 time=0
note_on channel=0 note=83 velocity=48 time=24
note_on channel=0 note=76 velocity=48 time=0
note_on channel=0 note=73 velocity=48 time=0
note_on channel=0 note=57 velocity=43 time=0
note_on channel=0 note=67 velocity=43 time=0
note_on channel=0 note=67 velocity=0 time=456
note_on channel=0 note=73 velocity=0 time=0
note_on channel=0 note=83 velocity=0 time=0
note_on channel=0 note=76 velocity=0 time=0
note_on channel=0 note=57 velocity=0 time=0
note_on channel=0 note=83 velocity=46 time=24
note_on channel=0 note=73 velocity=46 time=0
note_on channel=0 note=76 velocity=46 time=0
note_on channel=0 note=67 velocity=41 time=0
note_on channel=0 note=57 velocity=41 time=0
note_on channel=0 note=57 velocity=0 time=456
note_on channel=0 note=76 velocity=0 time=0
note_on channel=0 note=83 velocity=0 time=0
note_on channel=0 note=73 velocity=0 time=0
note_on channel=0 note=67 velocity=0 time=0
note_on channel=0 note=73 velocity=44 time=24
note_on channel=0 note=78 velocity=44 time=0
note_on channel=0 note=81 velocity=44 time=0
note_on channel=0 note=66 velocity=39 time=0
note_on channel=0 note=57 velocity=39 time=0
note_on channel=0 note=57 velocity=0 time=456
note_on channel=0 note=81 velocity=0 time=0
note_on channel=0 note=73 velocity=0 time=0
note_on channel=0 note=78 velocity=0 time=0
note_on channel=0 note=66 velocity=0 time=0
note_on channel=0 note=73 velocity=42 time=24
note_on channel=0 note=79 velocity=42 time=0
note_on channel=0 note=64 velocity=37 time=0
note_on channel=0 note=57 velocity=37 time=0
note_on channel=0 note=57 velocity=0 time=456
note_on channel=0 note=73 velocity=0 time=0
note_on channel=0 note=79 velocity=0 time=0
note_on channel=0 note=64 velocity=0 time=0
<meta message set_tempo tempo=447761 time=24>
note_on channel=0 note=74 velocity=38 time=0
note_on channel=0 note=78 velocity=38 time=0
note_on channel=0 note=59 velocity=36 time=0
note_on channel=0 note=62 velocity=36 time=0
note_on channel=0 note=62 velocity=0 time=456
note_on channel=0 note=74 velocity=0 time=0
note_on channel=0 note=78 velocity=0 time=0
note_on channel=0 note=59 velocity=0 time=0
<meta message set_tempo tempo=428571 time=24>
note_on channel=0 note=79 velocity=46 time=0
note_on channel=0 note=73 velocity=46 time=0
note_on channel=0 note=70 velocity=46 time=0
note_on channel=0 note=64 velocity=42 time=0
note_on channel=0 note=54 velocity=42 time=0
note_on channel=0 note=54 velocity=0 time=456
note_on channel=0 note=70 velocity=0 time=0
note_on channel=0 note=79 velocity=0 time=0
note_on channel=0 note=73 velocity=0 time=0
note_on channel=0 note=64 velocity=0 time=0
note_on channel=0 note=79 velocity=46 time=24
note_on channel=0 note=73 velocity=46 time=0
note_on channel=0 note=70 velocity=46 time=0
note_on channel=0 note=64 velocity=41 time=0
note_on channel=0 note=54 velocity=41 time=0
note_on channel=0 note=54 velocity=0 time=456
note_on channel=0 note=70 velocity=0 time=0
note_on channel=0 note=79 velocity=0 time=0
note_on channel=0 note=73 velocity=0 time=0
note_on channel=0 note=64 velocity=0 time=0
note_on channel=0 note=73 velocity=46 time=24
note_on channel=0 note=70 velocity=46 time=0
note_on channel=0 note=79 velocity=46 time=0
note_on channel=0 note=64 velocity=41 time=0
note_on channel=0 note=54 velocity=41 time=0
note_on channel=0 note=54 velocity=0 time=456
note_on channel=0 note=79 velocity=0 time=0
note_on channel=0 note=73 velocity=0 time=0
note_on channel=0 note=70 velocity=0 time=0
note_on channel=0 note=64 velocity=0 time=0
note_on channel=0 note=70 velocity=44 time=24
note_on channel=0 note=73 velocity=44 time=0
note_on channel=0 note=78 velocity=44 time=0
note_on channel=0 note=54 velocity=39 time=0
note_on channel=0 note=61 velocity=39 time=0
note_on channel=0 note=61 velocity=0 time=456
note_on channel=0 note=78 velocity=0 time=0
note_on channel=0 note=70 velocity=0 time=0
note_on channel=0 note=73 velocity=0 time=0
note_on channel=0 note=54 velocity=0 time=0
note_on channel=0 note=76 velocity=42 time=24
note_on channel=0 note=73 velocity=42 time=0
note_on channel=0 note=54 velocity=37 time=0
note_on channel=0 note=58 velocity=37 time=0
note_on channel=0 note=58 velocity=0 time=456
note_on channel=0 note=76 velocity=0 time=0
note_on channel=0 note=73 velocity=0 time=0
note_on channel=0 note=54 velocity=0 time=0
note_on channel=0 note=75 velocity=41 time=24
note_on channel=0 note=71 velocity=41 time=0
note_on channel=0 note=56 velocity=36 time=0
note_on channel=0 note=59 velocity=36 time=0
<meta message set_tempo tempo=463320 time=8>
note_on channel=0 note=59 velocity=0 time=448
note_on channel=0 note=75 velocity=0 time=0
note_on channel=0 note=71 velocity=0 time=0
note_on channel=0 note=56 velocity=0 time=0
<meta message set_tempo tempo=428571 time=24>
note_on channel=0 note=76 velocity=49 time=0
note_on channel=0 note=64 velocity=49 time=0
note_on channel=0 note=68 velocity=49 time=0
note_on channel=0 note=56 velocity=44 time=0
note_on channel=0 note=61 velocity=44 time=0
note_on channel=0 note=49 velocity=44 time=0
note_on channel=0 note=49 velocity=0 time=456
note_on channel=0 note=64 velocity=0 time=0
note_on channel=0 note=68 velocity=0 time=0
note_on channel=0 note=76 velocity=0 time=0
note_on channel=0 note=61 velocity=0 time=0
note_on channel=0 note=56 velocity=0 time=0
note_on channel=0 note=76 velocity=49 time=24
note_on channel=0 note=68 velocity=49 time=0
note_on channel=0 note=64 velocity=49 time=0
note_on channel=0 note=49 velocity=42 time=0
note_on channel=0 note=61 velocity=42 time=0
note_on channel=0 note=56 velocity=42 time=0
note_on channel=0 note=56 velocity=0 time=456
note_on channel=0 note=68 velocity=0 time=0
note_on channel=0 note=64 velocity=0 time=0
note_on channel=0 note=76 velocity=0 time=0
note_on channel=0 note=61 velocity=0 time=0
note_on channel=0 note=49 velocity=0 time=0
note_on channel=0 note=68 velocity=49 time=24
note_on channel=0 note=64 velocity=49 time=0
note_on channel=0 note=76 velocity=49 time=0
note_on channel=0 note=61 velocity=44 time=0
note_on channel=0 note=49 velocity=44 time=0
note_on channel=0 note=56 velocity=44 time=0
note_on channel=0 note=56 velocity=0 time=456
note_on channel=0 note=64 velocity=0 time=0
note_on channel=0 note=76 velocity=0 time=0
note_on channel=0 note=68 velocity=0 time=0
note_on channel=0 note=49 velocity=0 time=0
note_on channel=0 note=61 velocity=0 time=0
note_on channel=0 note=63 velocity=49 time=24
note_on channel=0 note=75 velocity=49 time=0
note_on channel=0 note=68 velocity=49 time=0
note_on channel=0 note=51 velocity=43 time=0
note_on channel=0 note=56 velocity=43 time=0
note_on channel=0 note=59 velocity=43 time=0
note_on channel=0 note=59 velocity=0 time=456
note_on channel=0 note=75 velocity=0 time=0
note_on channel=0 note=68 velocity=0 time=0
note_on channel=0 note=63 velocity=0 time=0
note_on channel=0 note=56 velocity=0 time=0
note_on channel=0 note=51 velocity=0 time=0
note_on channel=0 note=68 velocity=47 time=24
note_on channel=0 note=73 velocity=47 time=0
note_on channel=0 note=61 velocity=47 time=0
note_on channel=0 note=52 velocity=42 time=0
note_on channel=0 note=56 velocity=42 time=0
note_on channel=0 note=56 velocity=0 time=456
note_on channel=0 note=61 velocity=0 time=0
note_on channel=0 note=68 velocity=0 time=0
note_on channel=0 note=73 velocity=0 time=0
note_on channel=0 note=52 velocity=0 time=0
<meta message set_tempo tempo=447761 time=24>
note_on channel=0 note=71 velocity=48 time=0
note_on channel=0 note=68 velocity=48 time=0
note_on channel=0 note=63 velocity=48 time=0
note_on channel=0 note=56 velocity=41 time=0
note_on channel=0 note=51 velocity=41 time=0
note_on channel=0 note=59 velocity=41 time=0
note_on channel=0 note=59 velocity=0 time=456
note_on channel=0 note=68 velocity=0 time=0
note_on channel=0 note=63 velocity=0 time=0
note_on channel=0 note=71 velocity=0 time=0
note_on channel=0 note=51 velocity=0 time=0
note_on channel=0 note=56 velocity=0 time=0
note_on channel=0 note=63 velocity=48 time=24
note_on channel=0 note=68 velocity=48 time=0
note_on channel=0 note=71 velocity=48 time=0
note_on channel=0 note=56 velocity=40 time=0
note_on channel=0 note=59 velocity=40 time=0
note_on channel=0 note=51 velocity=40 time=0
note_on channel=0 note=51 velocity=0 time=456
note_on channel=0 note=68 velocity=0 time=0
note_on channel=0 note=71 velocity=0 time=0
note_on channel=0 note=63 velocity=0 time=0
note_on channel=0 note=59 velocity=0 time=0
note_on channel=0 note=56 velocity=0 time=0
<meta message set_tempo tempo=502092 time=24>
note_on channel=0 note=63 velocity=48 time=0
note_on channel=0 note=68 velocity=48 time=0
note_on channel=0 note=71 velocity=48 time=0
note_on channel=0 note=51 velocity=40 time=0
note_on channel=0 note=59 velocity=40 time=0
note_on channel=0 note=56 velocity=40 time=0
note_on channel=0 note=56 velocity=0 time=456
note_on channel=0 note=68 velocity=0 time=0
note_on channel=0 note=71 velocity=0 time=0
note_on channel=0 note=63 velocity=0 time=0
note_on channel=0 note=59 velocity=0 time=0
note_on channel=0 note=51 velocity=0 time=0
<meta message set_tempo tempo=446097 time=16>
note_on channel=0 note=70 velocity=33 time=8
note_on channel=0 note=67 velocity=33 time=0
note_on channel=0 note=63 velocity=33 time=0
note_on channel=0 note=55 velocity=31 time=0
note_on channel=0 note=51 velocity=31 time=0
note_on channel=0 note=58 velocity=31 time=0
note_on channel=0 note=58 velocity=0 time=456
note_on channel=0 note=67 velocity=0 time=0
note_on channel=0 note=63 velocity=0 time=0
note_on channel=0 note=70 velocity=0 time=0
note_on channel=0 note=51 velocity=0 time=0
note_on channel=0 note=55 velocity=0 time=0
note_on channel=0 note=70 velocity=34 time=24
note_on channel=0 note=63 velocity=34 time=0
note_on channel=0 note=67 velocity=34 time=0
note_on channel=0 note=51 velocity=30 time=0
note_on channel=0 note=58 velocity=30 time=0
note_on channel=0 note=55 velocity=30 time=0
note_on channel=0 note=55 velocity=0 time=456
note_on channel=0 note=63 velocity=0 time=0
note_on channel=0 note=67 velocity=0 time=0
note_on channel=0 note=70 velocity=0 time=0
note_on channel=0 note=58 velocity=0 time=0
note_on channel=0 note=51 velocity=0 time=0
note_on channel=0 note=63 velocity=34 time=24
note_on channel=0 note=67 velocity=34 time=0
note_on channel=0 note=70 velocity=34 time=0
note_on channel=0 note=55 velocity=29 time=0
note_on channel=0 note=58 velocity=29 time=0
note_on channel=0 note=51 velocity=29 time=0
<meta message set_tempo tempo=524017 time=8>
note_on channel=0 note=51 velocity=0 time=448
note_on channel=0 note=67 velocity=0 time=0
note_on channel=0 note=70 velocity=0 time=0
note_on channel=0 note=63 velocity=0 time=0
note_on channel=0 note=58 velocity=0 time=0
note_on channel=0 note=55 velocity=0 time=0
<meta message set_tempo tempo=400000 time=16>
<meta message set_tempo tempo=393443 time=8>
note_on channel=0 note=84 velocity=40 time=0
control_change channel=0 control=91 value=127 time=0
note_on channel=0 note=44 velocity=40 time=0
control_change channel=0 control=91 value=126 time=8
control_change channel=0 control=64 value=127 time=77
note_on channel=0 note=84 velocity=0 time=35
note_on channel=0 note=87 velocity=34 time=0
note_on channel=0 note=87 velocity=0 time=120
note_on channel=0 note=84 velocity=40 time=0
note_on channel=0 note=84 velocity=0 time=120
note_on channel=0 note=80 velocity=34 time=0
note_on channel=0 note=80 velocity=0 time=90
<meta message set_tempo tempo=394737 time=30>
note_on channel=0 note=44 velocity=0 time=0
note_on channel=0 note=80 velocity=40 time=0
note_on channel=0 note=60 velocity=40 time=0
note_on channel=0 note=56 velocity=34 time=0
note_on channel=0 note=51 velocity=34 time=0
note_on channel=0 note=80 velocity=0 time=120
note_on channel=0 note=84 velocity=34 time=0
note_on channel=0 note=84 velocity=0 time=120
note_on channel=0 note=80 velocity=40 time=0
note_on channel=0 note=80 velocity=0 time=120
note_on channel=0 note=75 velocity=34 time=0
note_on channel=0 note=75 velocity=0 time=90
<meta message set_tempo tempo=396040 time=30>
note_on channel=0 note=75 velocity=40 time=0
note_on channel=0 note=75 velocity=0 time=120
note_on channel=0 note=80 velocity=34 time=0
note_on channel=0 note=80 velocity=0 time=120
note_on channel=0 note=75 velocity=40 time=0
note_on channel=0 note=75 velocity=0 time=120
note_on channel=0 note=72 velocity=34 time=0
note_on channel=0 note=72 velocity=0 time=90
<meta message set_tempo tempo=397351 time=30>
note_on channel=0 note=72 velocity=40 time=0
note_on channel=0 note=72 velocity=0 time=120
note_on channel=0 note=75 velocity=34 time=0
note_on channel=0 note=75 velocity=0 time=120
note_on channel=0 note=72 velocity=40 time=0
note_on channel=0 note=72 velocity=0 time=120
note_on channel=0 note=68 velocity=34 time=0
note_on channel=0 note=68 velocity=0 time=90
<meta message set_tempo tempo=398671 time=30>
note_on channel=0 note=68 velocity=40 time=0
note_on channel=0 note=68 velocity=0 time=120
note_on channel=0 note=72 velocity=34 time=0
note_on channel=0 note=72 velocity=0 time=120
note_on channel=0 note=68 velocity=40 time=0
note_on channel=0 note=68 velocity=0 time=120
note_on channel=0 note=63 velocity=34 time=0
<meta message set_tempo tempo=400000 time=80>
note_on channel=0 note=63 velocity=0 time=40
note_on channel=0 note=51 velocity=0 time=0
note_on channel=0 note=56 velocity=0 time=0
note_on channel=0 note=60 velocity=0 time=0
note_on channel=0 note=67 velocity=30 time=0
note_on channel=0 note=70 velocity=36 time=0
note_on channel=0 note=61 velocity=32 time=0
note_on channel=0 note=51 velocity=27 time=0
control_change channel=0 control=64 value=0 time=7
<meta message set_tempo tempo=480000 time=1>
note_on channel=0 note=51 velocity=0 time=232
note_on channel=0 note=67 velocity=0 time=0
note_on channel=0 note=70 velocity=0 time=0
note_on channel=0 note=61 velocity=0 time=0
<meta message set_tempo tempo=400000 time=240>
note_on channel=0 note=84 velocity=40 time=0
control_change channel=0 control=91 value=127 time=0
note_on channel=0 note=44 velocity=40 time=0
control_change channel=0 control=91 value=126 time=8
control_change channel=0 control=64 value=127 time=12
<meta message set_tempo tempo=394737 time=20>
note_on channel=0 note=84 velocity=0 time=80
note_on channel=0 note=87 velocity=34 time=0
note_on channel=0 note=87 velocity=0 time=120
note_on channel=0 note=84 velocity=40 time=0
note_on channel=0 note=84 velocity=0 time=120
note_on channel=0 note=80 velocity=34 time=0
note_on channel=0 note=80 velocity=0 time=90
note_on channel=0 note=44 velocity=0 time=30
note_on channel=0 note=80 velocity=40 time=0
note_on channel=0 note=51 velocity=34 time=0
note_on channel=0 note=56 velocity=34 time=0
note_on channel=0 note=60 velocity=40 time=0
<meta message set_tempo tempo=396040 time=40>
note_on channel=0 note=80 velocity=0 time=80
note_on channel=0 note=84 velocity=34 time=0
note_on channel=0 note=84 velocity=0 time=120
note_on channel=0 note=80 velocity=40 time=0
note_on channel=0 note=80 velocity=0 time=120
note_on channel=0 note=75 velocity=34 time=0
note_on channel=0 note=75 velocity=0 time=90
<meta message set_tempo tempo=397351 time=30>
note_on channel=0 note=75 velocity=40 time=0
note_on channel=0 note=75 velocity=0 time=120
note_on channel=0 note=80 velocity=34 time=0
note_on channel=0 note=80 velocity=0 time=120
note_on channel=0 note=75 velocity=40 time=0
note_on channel=0 note=75 velocity=0 time=120
note_on channel=0 note=72 velocity=34 time=0
note_on channel=0 note=72 velocity=0 time=90
<meta message set_tempo tempo=398671 time=30>
note_on channel=0 note=72 velocity=40 time=0
note_on channel=0 note=72 velocity=0 time=120
note_on channel=0 note=75 velocity=34 time=0
note_on channel=0 note=75 velocity=0 time=120
note_on channel=0 note=72 velocity=40 time=0
note_on channel=0 note=72 velocity=0 time=120
note_on channel=0 note=68 velocity=34 time=0
<meta message set_tempo tempo=400000 time=80>
note_on channel=0 note=68 velocity=0 time=10
note_on channel=0 note=68 velocity=40 time=30
note_on channel=0 note=68 velocity=0 time=120
note_on channel=0 note=72 velocity=34 time=0
note_on channel=0 note=72 velocity=0 time=120
note_on channel=0 note=68 velocity=40 time=0
note_on channel=0 note=68 velocity=0 time=120
note_on channel=0 note=63 velocity=34 time=0
<meta message set_tempo tempo=401338 time=40>
note_on channel=0 note=63 velocity=0 time=80
note_on channel=0 note=60 velocity=0 time=0
note_on channel=0 note=56 velocity=0 time=0
note_on channel=0 note=51 velocity=0 time=0
note_on channel=0 note=67 velocity=36 time=0
note_on channel=0 note=70 velocity=36 time=0
note_on channel=0 note=51 velocity=28 time=0
note_on channel=0 note=61 velocity=34 time=0
<meta message set_tempo tempo=480000 time=8>
control_change channel=0 control=64 value=0 time=0
note_on channel=0 note=61 velocity=0 time=232
note_on channel=0 note=67 velocity=0 time=0
note_on channel=0 note=70 velocity=0 time=0
note_on channel=0 note=51 velocity=0 time=0
<meta message set_tempo tempo=400000 time=240>
control_change channel=0 control=91 value=127 time=0
note_on channel=0 note=87 velocity=45 time=0
note_on channel=0 note=44 velocity=45 time=0
control_change channel=0 control=91 value=126 time=8
control_change channel=0 control=64 value=127 time=12
<meta message set_tempo tempo=392157 time=20>
note_on channel=0 note=87 velocity=0 time=80
note_on channel=0 note=92 velocity=38 time=0
note_on channel=0 note=92 velocity=0 time=120
note_on channel=0 note=87 velocity=45 time=0
note_on channel=0 note=87 velocity=0 time=120
note_on channel=0 note=84 velocity=38 time=0
<meta message set_tempo tempo=393443 time=80>
note_on channel=0 note=84 velocity=0 time=10
note_on channel=0 note=44 velocity=0 time=30
note_on channel=0 note=84 velocity=45 time=0
note_on channel=0 note=51 velocity=41 time=0
note_on channel=0 note=56 velocity=41 time=0
note_on channel=0 note=60 velocity=49 time=0
note_on channel=0 note=84 velocity=0 time=120
note_on channel=0 note=87 velocity=38 time=0
note_on channel=0 note=87 velocity=0 time=120
note_on channel=0 note=84 velocity=45 time=0
<meta message set_tempo tempo=394737 time=80>
note_on channel=0 note=84 velocity=0 time=40
note_on channel=0 note=80 velocity=38 time=0
note_on channel=0 note=80 velocity=0 time=90
note_on channel=0 note=80 velocity=45 time=30
note_on channel=0 note=80 velocity=0 time=120
note_on channel=0 note=84 velocity=38 time=0
<meta message set_tempo tempo=396040 time=120>
note_on channel=0 note=84 velocity=0 time=0
note_on channel=0 note=80 velocity=45 time=0
note_on channel=0 note=80 velocity=0 time=120
note_on channel=0 note=75 velocity=38 time=0
note_on channel=0 note=75 velocity=0 time=90
note_on channel=0 note=75 velocity=45 time=30
<meta message set_tempo tempo=397351 time=120>
note_on channel=0 note=75 velocity=0 time=0
note_on channel=0 note=80 velocity=38 time=0
note_on channel=0 note=80 velocity=0 time=120
note_on channel=0 note=75 velocity=45 time=0
note_on channel=0 note=75 velocity=0 time=120
note_on channel=0 note=72 velocity=38 time=0
note_on channel=0 note=72 velocity=0 time=90
note_on channel=0 note=72 velocity=45 time=30
<meta message set_tempo tempo=398671 time=40>
note_on channel=0 note=72 velocity=0 time=80
note_on channel=0 note=75 velocity=38 time=0
note_on channel=0 note=75 velocity=0 time=120
note_on channel=0 note=72 velocity=45 time=0
note_on channel=0 note=72 velocity=0 time=120
note_on channel=0 note=68 velocity=38 time=0
<meta message set_tempo tempo=400000 time=40>
note_on channel=0 note=68 velocity=0 time=80
note_on channel=0 note=60 velocity=0 time=0
note_on channel=0 note=56 velocity=0 time=0
note_on channel=0 note=51 velocity=0 time=0
note_on channel=0 note=67 velocity=40 time=0
note_on channel=0 note=70 velocity=40 time=0
note_on channel=0 note=51 velocity=33 time=0
note_on channel=0 note=61 velocity=39 time=0
<meta message set_tempo tempo=480000 time=8>
control_change channel=0 control=64 value=0 time=4
note_on channel=0 note=61 velocity=0 time=228
note_on channel=0 note=67 velocity=0 time=0
note_on channel=0 note=70 velocity=0 time=0
note_on channel=0 note=51 velocity=0 time=0
<meta message set_tempo tempo=394737 time=240>
note_on channel=0 note=87 velocity=50 time=0
control_change channel=0 control=91 value=127 time=0
note_on channel=0 note=44 velocity=50 time=0
control_change channel=0 control=91 value=126 time=8
control_change channel=0 control=64 value=127 time=20
note_on channel=0 note=87 velocity=0 time=92
note_on channel=0 note=92 velocity=42 time=0
note_on channel=0 note=92 velocity=0 time=120
note_on channel=0 note=87 velocity=50 time=0
note_on channel=0 note=87 velocity=0 time=120
note_on channel=0 note=84 velocity=42 time=0
note_on channel=0 note=84 velocity=0 time=90
<meta message set_tempo tempo=396040 time=30>
note_on channel=0 note=44 velocity=0 time=0
note_on channel=0 note=84 velocity=50 time=0
note_on channel=0 note=60 velocity=48 time=0
note_on channel=0 note=51 velocity=40 time=0
note_on channel=0 note=56 velocity=40 time=0
note_on channel=0 note=84 velocity=0 time=120
note_on channel=0 note=87 velocity=42 time=0
note_on channel=0 note=87 velocity=0 time=120
note_on channel=0 note=84 velocity=50 time=0
note_on channel=0 note=84 velocity=0 time=120
note_on channel=0 note=80 velocity=42 time=0
note_on channel=0 note=80 velocity=0 time=90
<meta message set_tempo tempo=397351 time=30>
note_on channel=0 note=80 velocity=50 time=0
note_on channel=0 note=80 velocity=0 time=120
note_on channel=0 note=84 velocity=42 time=0
note_on channel=0 note=84 velocity=0 time=120
note_on channel=0 note=80 velocity=50 time=0
note_on channel=0 note=80 velocity=0 time=120
note_on channel=0 note=75 velocity=42 time=0
<meta message set_tempo tempo=398671 time=80>
note_on channel=0 note=75 velocity=0 time=10
note_on channel=0 note=75 velocity=50 time=30
note_on channel=0 note=75 velocity=0 time=120
note_on channel=0 note=80 velocity=42 time=0
note_on channel=0 note=80 velocity=0 time=120
note_on channel=0 note=75 velocity=50 time=0
note_on channel=0 note=75 velocity=0 time=120
note_on channel=0 note=72 velocity=42 time=0
<meta message set_tempo tempo=400000 time=80>
note_on channel=0 note=72 velocity=0 time=10
note_on channel=0 note=72 velocity=50 time=30
note_on channel=0 note=72 velocity=0 time=120
note_on channel=0 note=75 velocity=42 time=0
note_on channel=0 note=75 velocity=0 time=120
note_on channel=0 note=72 velocity=50 time=0
note_on channel=0 note=72 velocity=0 time=120
note_on channel=0 note=68 velocity=42 time=0
<meta message set_tempo tempo=401338 time=40>
note_on channel=0 note=68 velocity=0 time=80
note_on channel=0 note=56 velocity=0 time=0
note_on channel=0 note=51 velocity=0 time=0
note_on channel=0 note=60 velocity=0 time=0
note_on channel=0 note=67 velocity=45 time=0
note_on channel=0 note=70 velocity=45 time=0
note_on channel=0 note=61 velocity=38 time=0
note_on channel=0 note=51 velocity=32 time=0
<meta message set_tempo tempo=480000 time=8>
control_change channel=0 control=64 value=0 time=2
note_on channel=0 note=51 velocity=0 time=230
note_on channel=0 note=67 velocity=0 time=0
note_on channel=0 note=70 velocity=0 time=0
note_on channel=0 note=61 velocity=0 time=0
<meta message set_tempo tempo=400000 time=240>
note_on channel=0 note=72 velocity=40 time=0
note_on channel=0 note=44 velocity=40 time=0
control_change channel=0 control=64 value=127 time=20
note_on channel=0 note=72 velocity=0 time=100
note_on channel=0 note=75 velocity=34 time=0
note_on channel=0 note=75 velocity=0 time=120
note_on channel=0 note=72 velocity=40 time=0
note_on channel=0 note=72 velocity=0 time=120
note_on channel=0 note=68 velocity=34 time=0
note_on channel=0 note=68 velocity=0 time=90
note_on channel=0 note=44 velocity=0 time=30
note_on channel=0 note=68 velocity=40 time=0
note_on channel=0 note=60 velocity=33 time=0
note_on channel=0 note=56 velocity=27 time=0
note_on channel=0 note=54 velocity=27 time=0
note_on channel=0 note=68 velocity=0 time=120
note_on channel=0 note=72 velocity=34 time=0
note_on channel=0 note=72 velocity=0 time=120
note_on channel=0 note=68 velocity=40 time=0
note_on channel=0 note=68 velocity=0 time=120
note_on channel=0 note=63 velocity=34 time=0
<meta message set_tempo tempo=428571 time=120>
note_on channel=0 note=63 velocity=0 time=0
note_on channel=0 note=68 velocity=40 time=0
control_change channel=0 control=64 value=0 time=92
note_on channel=0 note=68 velocity=0 time=28
<meta message set_tempo tempo=400000 time=360>
note_on channel=0 note=60 velocity=0 time=0
note_on channel=0 note=56 velocity=0 time=0
note_on channel=0 note=54 velocity=0 time=0
note_on channel=0 note=73 velocity=40 time=0
control_change channel=0 control=64 value=127 time=0
note_on channel=0 note=49 velocity=40 time=0
note_on channel=0 note=73 velocity=0 time=120
note_on channel=0 note=77 velocity=34 time=0
note_on channel=0 note=77 velocity=0 time=120
note_on channel=0 note=73 velocity=40 time=0
note_on channel=0 note=73 velocity=0 time=120
note_on channel=0 note=68 velocity=34 time=0
note_on channel=0 note=68 velocity=0 time=90
note_on channel=0 note=49 velocity=0 time=30
note_on channel=0 note=68 velocity=40 time=0
note_on channel=0 note=61 velocity=29 time=0
note_on channel=0 note=53 velocity=25 time=0
note_on channel=0 note=56 velocity=25 time=0
note_on channel=0 note=68 velocity=0 time=120
note_on channel=0 note=73 velocity=34 time=0
note_on channel=0 note=73 velocity=0 time=120
note_on channel=0 note=68 velocity=40 time=0
note_on channel=0 note=68 velocity=0 time=120
note_on channel=0 note=65 velocity=34 time=0
<meta message set_tempo tempo=428571 time=120>
note_on channel=0 note=65 velocity=0 time=0
note_on channel=0 note=68 velocity=40 time=0
control_change channel=0 control=64 value=0 time=84
note_on channel=0 note=68 velocity=0 time=36
<meta message set_tempo tempo=400000 time=352>
note_on channel=0 note=61 velocity=0 time=8
note_on channel=0 note=53 velocity=0 time=0
note_on channel=0 note=56 velocity=0 time=0
note_on channel=0 note=75 velocity=40 time=0
note_on channel=0 note=39 velocity=40 time=0
control_change channel=0 control=64 value=127 time=44
note_on channel=0 note=75 velocity=0 time=76
note_on channel=0 note=79 velocity=34 time=0
note_on channel=0 note=79 velocity=0 time=120
note_on channel=0 note=75 velocity=40 time=0
note_on channel=0 note=75 velocity=0 time=120
note_on channel=0 note=70 velocity=34 time=0
note_on channel=0 note=70 velocity=0 time=90
note_on channel=0 note=39 velocity=0 time=30
note_on channel=0 note=70 velocity=40 time=0
note_on channel=0 note=51 velocity=29 time=0
note_on channel=0 note=58 velocity=29 time=0
note_on channel=0 note=61 velocity=35 time=0
note_on channel=0 note=70 velocity=0 time=120
note_on channel=0 note=75 velocity=34 time=0
note_on channel=0 note=75 velocity=0 time=120
note_on channel=0 note=70 velocity=40 time=0
note_on channel=0 note=70 velocity=0 time=120
note_on channel=0 note=67 velocity=34 time=0
note_on channel=0 note=67 velocity=0 time=120
note_on channel=0 note=70 velocity=40 time=0
<meta message set_tempo tempo=430108 time=8>
control_change channel=0 control=64 value=0 time=96
note_on channel=0 note=70 velocity=0 time=16
<meta message set_tempo tempo=401338 time=360>
note_on channel=0 note=51 velocity=0 time=0
note_on channel=0 note=58 velocity=0 time=0
note_on channel=0 note=61 velocity=0 time=0
note_on channel=0 note=75 velocity=40 time=0
note_on channel=0 note=44 velocity=40 time=0
control_change channel=0 control=64 value=127 time=36
note_on channel=0 note=75 velocity=0 time=84
note_on channel=0 note=80 velocity=34 time=0
note_on channel=0 note=80 velocity=0 time=120
note_on channel=0 note=75 velocity=40 time=0
note_on channel=0 note=75 velocity=0 time=120
note_on channel=0 note=72 velocity=34 time=0
note_on channel=0 note=72 velocity=0 time=90
note_on channel=0 note=44 velocity=0 time=30
note_on channel=0 note=72 velocity=40 time=0
note_on channel=0 note=56 velocity=31 time=0
note_on channel=0 note=51 velocity=31 time=0
note_on channel=0 note=60 velocity=37 time=0
note_on channel=0 note=72 velocity=0 time=120
note_on channel=0 note=75 velocity=34 time=0
note_on channel=0 note=75 velocity=0 time=120
note_on channel=0 note=72 velocity=40 time=0
note_on channel=0 note=72 velocity=0 time=120
note_on channel=0 note=68 velocity=34 time=0
<meta message set_tempo tempo=461538 time=120>
note_on channel=0 note=68 velocity=0 time=0
note_on channel=0 note=72 velocity=40 time=0
control_change channel=0 control=64 value=0 time=76
note_on channel=0 note=72 velocity=0 time=44
note_on channel=0 note=56 velocity=0 time=360
note_on channel=0 note=51 velocity=0 time=0
note_on channel=0 note=60 velocity=0 time=0
note_on channel=0 note=84 velocity=52 time=0
note_on channel=0 note=44 velocity=52 time=0
<meta message set_tempo tempo=401338 time=8>
control_change channel=0 control=64 value=127 time=20
note_on channel=0 note=84 velocity=0 time=92
note_on channel=0 note=87 velocity=44 time=0
note_on channel=0 note=87 velocity=0 time=120
note_on channel=0 note=84 velocity=52 time=0
note_on channel=0 note=84 velocity=0 time=120
note_on channel=0 note=80 velocity=44 time=0
note_on channel=0 note=80 velocity=0 time=90
note_on channel=0 note=44 velocity=0 time=30
note_on channel=0 note=80 velocity=52 time=0
note_on channel=0 note=60 velocity=43 time=0
note_on channel=0 note=54 velocity=35 time=0
note_on channel=0 note=56 velocity=35 time=0
note_on channel=0 note=80 velocity=0 time=120
note_on channel=0 note=84 velocity=44 time=0
note_on channel=0 note=84 velocity=0 time=120
note_on channel=0 note=80 velocity=52 time=0
note_on channel=0 note=80 velocity=0 time=120
note_on channel=0 note=75 velocity=44 time=0
<meta message set_tempo tempo=428571 time=120>
note_on channel=0 note=75 velocity=0 time=0
note_on channel=0 note=80 velocity=52 time=0
control_change channel=0 control=64 value=0 time=84
note_on channel=0 note=80 velocity=0 time=36
<meta message set_tempo tempo=402685 time=360>
note_on channel=0 note=60 velocity=0 time=0
note_on channel=0 note=54 velocity=0 time=0
note_on channel=0 note=56 velocity=0 time=0
note_on channel=0 note=85 velocity=60 time=0
note_on channel=0 note=49 velocity=60 time=0
control_change channel=0 control=64 value=127 time=0
note_on channel=0 note=85 velocity=0 time=120
note_on channel=0 note=89 velocity=51 time=0
note_on channel=0 note=89 velocity=0 time=120
note_on channel=0 note=85 velocity=60 time=0
note_on channel=0 note=85 velocity=0 time=120
note_on channel=0 note=80 velocity=51 time=0
note_on channel=0 note=80 velocity=0 time=90
note_on channel=0 note=49 velocity=0 time=30
note_on channel=0 note=80 velocity=60 time=0
note_on channel=0 note=61 velocity=52 time=0
note_on channel=0 note=53 velocity=44 time=0
note_on channel=0 note=56 velocity=44 time=0
note_on channel=0 note=80 velocity=0 time=120
note_on channel=0 note=85 velocity=51 time=0
note_on channel=0 note=85 velocity=0 time=120
note_on channel=0 note=80 velocity=60 time=0
note_on channel=0 note=80 velocity=0 time=120
note_on channel=0 note=77 velocity=51 time=0
<meta message set_tempo tempo=428571 time=120>
note_on channel=0 note=77 velocity=0 time=0
note_on channel=0 note=80 velocity=60 time=0
control_change channel=0 control=64 value=0 time=76
note_on channel=0 note=80 velocity=0 time=44
<meta message set_tempo tempo=401338 time=360>
note_on channel=0 note=61 velocity=0 time=0
note_on channel=0 note=53 velocity=0 time=0
note_on channel=0 note=56 velocity=0 time=0
note_on channel=0 note=87 velocity=70 time=0
note_on channel=0 note=39 velocity=70 time=0
control_change channel=0 control=64 value=127 time=16
note_on channel=0 note=87 velocity=0 time=104
note_on channel=0 note=91 velocity=59 time=0
note_on channel=0 note=91 velocity=0 time=120
note_on channel=0 note=87 velocity=70 time=0
note_on channel=0 note=87 velocity=0 time=120
note_on channel=0 note=82 velocity=59 time=0
note_on channel=0 note=82 velocity=0 time=90
note_on channel=0 note=39 velocity=0 time=30
note_on channel=0 note=82 velocity=70 time=0
note_on channel=0 note=58 velocity=51 time=0
note_on channel=0 note=51 velocity=51 time=0
note_on channel=0 note=61 velocity=61 time=0
note_on channel=0 note=82 velocity=0 time=120
note_on channel=0 note=87 velocity=59 time=0
note_on channel=0 note=87 velocity=0 time=120
note_on channel=0 note=82 velocity=70 time=0
note_on channel=0 note=82 velocity=0 time=120
note_on channel=0 note=79 velocity=59 time=0
<meta message set_tempo tempo=428571 time=120>
note_on channel=0 note=79 velocity=0 time=0
note_on channel=0 note=82 velocity=70 time=0
control_change channel=0 control=64 value=0 time=16
note_on channel=0 note=82 velocity=0 time=224
<meta message set_tempo tempo=400000 time=240>
note_on channel=0 note=58 velocity=0 time=0
note_on channel=0 note=51 velocity=0 time=0
note_on channel=0 note=61 velocity=0 time=0
note_on channel=0 note=87 velocity=80 time=0
note_on channel=0 note=44 velocity=76 time=0
control_change channel=0 control=64 value=127 time=28
note_on channel=0 note=87 velocity=0 time=92
note_on channel=0 note=92 velocity=68 time=0
note_on channel=0 note=92 velocity=0 time=120
note_on channel=0 note=87 velocity=80 time=0
note_on channel=0 note=87 velocity=0 time=120
note_on channel=0 note=84 velocity=68 time=0
note_on channel=0 note=84 velocity=0 time=90
note_on channel=0 note=44 velocity=0 time=30
note_on channel=0 note=84 velocity=80 time=0
note_on channel=0 note=56 velocity=53 time=0
note_on channel=0 note=60 velocity=63 time=0
note_on channel=0 note=51 velocity=53 time=0
note_on channel=0 note=84 velocity=0 time=120
note_on channel=0 note=87 velocity=68 time=0
note_on channel=0 note=87 velocity=0 time=120
note_on channel=0 note=84 velocity=80 time=0
note_on channel=0 note=84 velocity=0 time=120
note_on channel=0 note=80 velocity=68 time=0
<meta message set_tempo tempo=463320 time=112>
note_on channel=0 note=80 velocity=0 time=8
note_on channel=0 note=84 velocity=80 time=0
control_change channel=0 control=64 value=0 time=104
note_on channel=0 note=84 velocity=0 time=136
note_on channel=0 note=56 velocity=0 time=240
note_on channel=0 note=60 velocity=0 time=0
note_on channel=0 note=51 velocity=0 time=0
note_on channel=0 note=72 velocity=40 time=0
note_on channel=0 note=44 velocity=34 time=0
note_on channel=0 note=51 velocity=50 time=0
<meta message set_tempo tempo=428571 time=4>
control_change channel=0 control=64 value=127 time=16
note_on channel=0 note=72 velocity=0 time=100
note_on channel=0 note=75 velocity=34 time=0
note_on channel=0 note=75 velocity=0 time=120
note_on channel=0 note=72 velocity=40 time=0
note_on channel=0 note=72 velocity=0 time=120
note_on channel=0 note=68 velocity=34 time=0
note_on channel=0 note=68 velocity=0 time=90
<meta message set_tempo tempo=400000 time=18>
note_on channel=0 note=51 velocity=0 time=12
note_on channel=0 note=68 velocity=40 time=0
note_on channel=0 note=56 velocity=60 time=0
note_on channel=0 note=68 velocity=0 time=120
note_on channel=0 note=72 velocity=34 time=0
note_on channel=0 note=72 velocity=0 time=120
note_on channel=0 note=68 velocity=40 time=0
note_on channel=0 note=68 velocity=0 time=120
note_on channel=0 note=63 velocity=34 time=0
note_on channel=0 note=63 velocity=0 time=120
note_on channel=0 note=68 velocity=40 time=0
note_on channel=0 note=68 velocity=0 time=240
note_on channel=0 note=56 velocity=0 time=0
note_on channel=0 note=55 velocity=50 time=0
<meta message set_tempo tempo=427046 time=240>
note_on channel=0 note=55 velocity=0 time=0
note_on channel=0 note=44 velocity=0 time=0
note_on channel=0 note=73 velocity=40 time=0
note_on channel=0 note=53 velocity=50 time=0
note_on channel=0 note=49 velocity=34 time=0
control_change channel=0 control=64 value=0 time=6
note_on channel=0 note=73 velocity=0 time=114
note_on channel=0 note=77 velocity=34 time=0
control_change channel=0 control=64 value=127 time=28
note_on channel=0 note=77 velocity=0 time=92
note_on channel=0 note=73 velocity=40 time=0
note_on channel=0 note=73 velocity=0 time=120
note_on channel=0 note=68 velocity=34 time=0
note_on channel=0 note=68 velocity=0 time=90
<meta message set_tempo tempo=400000 time=30>
note_on channel=0 note=53 velocity=0 time=0
note_on channel=0 note=68 velocity=40 time=0
note_on channel=0 note=61 velocity=60 time=0
note_on channel=0 note=68 velocity=0 time=120
note_on channel=0 note=73 velocity=34 time=0
note_on channel=0 note=73 velocity=0 time=120
note_on channel=0 note=68 velocity=40 time=0
note_on channel=0 note=68 velocity=0 time=120
note_on channel=0 note=65 velocity=34 time=0
note_on channel=0 note=65 velocity=0 time=120
note_on channel=0 note=68 velocity=40 time=0
note_on channel=0 note=68 velocity=0 time=240
note_on channel=0 note=61 velocity=0 time=0
note_on channel=0 note=60 velocity=50 time=0
note_on channel=0 note=60 velocity=0 time=240
note_on channel=0 note=49 velocity=0 time=0
note_on channel=0 note=75 velocity=40 time=0
control_change channel=0 control=64 value=0 time=0
note_on channel=0 note=58 velocity=50 time=0
note_on channel=0 note=51 velocity=34 time=0
<meta message set_tempo tempo=430108 time=8>
note_on channel=0 note=75 velocity=0 time=112
note_on channel=0 note=79 velocity=34 time=0
control_change channel=0 control=64 value=127 time=21
note_on channel=0 note=79 velocity=0 time=99
note_on channel=0 note=75 velocity=40 time=0
note_on channel=0 note=75 velocity=0 time=120
note_on channel=0 note=70 velocity=34 time=0
note_on channel=0 note=70 velocity=0 time=90
<meta message set_tempo tempo=400000 time=22>
note_on channel=0 note=58 velocity=0 time=8
note_on channel=0 note=70 velocity=40 time=0
note_on channel=0 note=63 velocity=60 time=0
note_on channel=0 note=70 velocity=0 time=120
note_on channel=0 note=75 velocity=34 time=0
note_on channel=0 note=75 velocity=0 time=120
note_on channel=0 note=70 velocity=40 time=0
note_on channel=0 note=70 velocity=0 time=120
note_on channel=0 note=67 velocity=34 time=0
note_on channel=0 note=67 velocity=0 time=120
note_on channel=0 note=70 velocity=40 time=0
note_on channel=0 note=70 velocity=0 time=240
note_on channel=0 note=63 velocity=0 time=0
note_on channel=0 note=61 velocity=50 time=0
<meta message set_tempo tempo=428571 time=240>
note_on channel=0 note=61 velocity=0 time=0
note_on channel=0 note=51 velocity=0 time=0
note_on channel=0 note=75 velocity=40 time=0
note_on channel=0 note=56 velocity=34 time=0
note_on channel=0 note=60 velocity=50 time=0
control_change channel=0 control=64 value=0 time=4
control_change channel=0 control=64 value=127 time=88
note_on channel=0 note=75 velocity=0 time=28
note_on channel=0 note=80 velocity=34 time=0
note_on channel=0 note=80 velocity=0 time=120
note_on channel=0 note=75 velocity=40 time=0
note_on channel=0 note=75 velocity=0 time=120
note_on channel=0 note=72 velocity=34 time=0
note_on channel=0 note=72 velocity=0 time=90
note_on channel=0 note=60 velocity=0 time=30
note_on channel=0 note=72 velocity=40 time=0
note_on channel=0 note=63 velocity=60 time=0
<meta message set_tempo tempo=400000 time=8>
note_on channel=0 note=72 velocity=0 time=112
note_on channel=0 note=75 velocity=34 time=0
note_on channel=0 note=75 velocity=0 time=120
note_on channel=0 note=72 velocity=40 time=0
note_on channel=0 note=72 velocity=0 time=120
note_on channel=0 note=68 velocity=34 time=0
note_on channel=0 note=68 velocity=0 time=120
note_on channel=0 note=72 velocity=40 time=0
control_change channel=0 control=64 value=0 time=84
note_on channel=0 note=72 velocity=0 time=156
<meta message set_tempo tempo=483871 time=240>
note_on channel=0 note=63 velocity=0 time=0
note_on channel=0 note=56 velocity=0 time=0
note_on channel=0 note=84 velocity=52 time=0
note_on channel=0 note=44 velocity=55 time=0
note_on channel=0 note=51 velocity=65 time=0
control_change channel=0 control=64 value=127 time=16
note_on channel=0 note=84 velocity=0 time=104
note_on channel=0 note=87 velocity=44 time=0
note_on channel=0 note=87 velocity=0 time=120
note_on channel=0 note=84 velocity=52 time=0
note_on channel=0 note=84 velocity=0 time=120
note_on channel=0 note=80 velocity=44 time=0
note_on channel=0 note=80 velocity=0 time=90
<meta message set_tempo tempo=398671 time=22>
note_on channel=0 note=51 velocity=0 time=8
note_on channel=0 note=80 velocity=52 time=0
note_on channel=0 note=56 velocity=73 time=0
note_on channel=0 note=80 velocity=0 time=120
note_on channel=0 note=84 velocity=44 time=0
note_on channel=0 note=84 velocity=0 time=120
note_on channel=0 note=80 velocity=52 time=0
note_on channel=0 note=80 velocity=0 time=120
note_on channel=0 note=75 velocity=44 time=0
note_on channel=0 note=75 velocity=0 time=120
note_on channel=0 note=80 velocity=52 time=0
note_on channel=0 note=80 velocity=0 time=240
note_on channel=0 note=56 velocity=0 time=0
note_on channel=0 note=55 velocity=60 time=0
note_on channel=0 note=55 velocity=0 time=240
note_on channel=0 note=44 velocity=0 time=0
note_on channel=0 note=85 velocity=55 time=0
note_on channel=0 note=53 velocity=67 time=0
note_on channel=0 note=49 velocity=56 time=0
control_change channel=0 control=64 value=0 time=5
<meta message set_tempo tempo=433213 time=3>
note_on channel=0 note=85 velocity=0 time=112
note_on channel=0 note=89 velocity=46 time=0
control_change channel=0 control=64 value=127 time=36
note_on channel=0 note=89 velocity=0 time=84
note_on channel=0 note=85 velocity=55 time=0
note_on channel=0 note=85 velocity=0 time=120
note_on channel=0 note=80 velocity=46 time=0
note_on channel=0 note=80 velocity=0 time=90
<meta message set_tempo tempo=400000 time=30>
note_on channel=0 note=53 velocity=0 time=0
note_on channel=0 note=80 velocity=55 time=0
note_on channel=0 note=61 velocity=76 time=0
note_on channel=0 note=80 velocity=0 time=120
note_on channel=0 note=85 velocity=46 time=0
note_on channel=0 note=85 velocity=0 time=120
note_on channel=0 note=80 velocity=55 time=0
note_on channel=0 note=80 velocity=0 time=120
note_on channel=0 note=77 velocity=46 time=0
note_on channel=0 note=77 velocity=0 time=120
note_on channel=0 note=80 velocity=55 time=0
note_on channel=0 note=80 velocity=0 time=240
note_on channel=0 note=61 velocity=0 time=0
note_on channel=0 note=60 velocity=66 time=0
<meta message set_tempo tempo=421053 time=228>
note_on channel=0 note=60 velocity=0 time=12
note_on channel=0 note=49 velocity=0 time=0
note_on channel=0 note=87 velocity=62 time=0
note_on channel=0 note=58 velocity=71 time=0
note_on channel=0 note=51 velocity=60 time=0
control_change channel=0 control=64 value=0 time=6
note_on channel=0 note=87 velocity=0 time=114
note_on channel=0 note=91 velocity=52 time=0
control_change channel=0 control=64 value=127 time=14
note_on channel=0 note=91 velocity=0 time=106
note_on channel=0 note=87 velocity=62 time=0
note_on channel=0 note=87 velocity=0 time=120
note_on channel=0 note=82 velocity=52 time=0
note_on channel=0 note=82 velocity=0 time=90
<meta message set_tempo tempo=400000 time=30>
note_on channel=0 note=58 velocity=0 time=0
note_on channel=0 note=82 velocity=62 time=0
note_on channel=0 note=63 velocity=79 time=0
note_on channel=0 note=82 velocity=0 time=120
note_on channel=0 note=87 velocity=52 time=0
note_on channel=0 note=87 velocity=0 time=120
note_on channel=0 note=82 velocity=62 time=0
note_on channel=0 note=82 velocity=0 time=120
note_on channel=0 note=79 velocity=52 time=0
note_on channel=0 note=79 velocity=0 time=120
note_on channel=0 note=82 velocity=62 time=0
note_on channel=0 note=82 velocity=0 time=240
note_on channel=0 note=63 velocity=0 time=0
note_on channel=0 note=61 velocity=69 time=0
<meta message set_tempo tempo=422535 time=232>
note_on channel=0 note=61 velocity=0 time=8
note_on channel=0 note=51 velocity=0 time=0
note_on channel=0 note=87 velocity=70 time=0
note_on channel=0 note=56 velocity=61 time=0
note_on channel=0 note=60 velocity=73 time=0
control_change channel=0 control=64 value=0 time=4
note_on channel=0 note=87 velocity=0 time=116
note_on channel=0 note=92 velocity=59 time=0
control_change channel=0 control=64 value=127 time=7
note_on channel=0 note=92 velocity=0 time=113
note_on channel=0 note=87 velocity=70 time=0
note_on channel=0 note=87 velocity=0 time=120
note_on channel=0 note=84 velocity=58 time=0
note_on channel=0 note=84 velocity=0 time=90
<meta message set_tempo tempo=400000 time=22>
note_on channel=0 note=60 velocity=0 time=8
note_on channel=0 note=84 velocity=70 time=0
note_on channel=0 note=63 velocity=82 time=0
note_on channel=0 note=84 velocity=0 time=120
note_on channel=0 note=87 velocity=59 time=0
note_on channel=0 note=87 velocity=0 time=120
note_on channel=0 note=84 velocity=70 time=0
note_on channel=0 note=84 velocity=0 time=120
note_on channel=0 note=80 velocity=59 time=0
note_on channel=0 note=80 velocity=0 time=120
note_on channel=0 note=84 velocity=70 time=0
note_on channel=0 note=84 velocity=0 time=240
note_on channel=0 note=63 velocity=0 time=0
note_on channel=0 note=60 velocity=72 time=0
note_on channel=0 note=60 velocity=0 time=240
note_on channel=0 note=56 velocity=0 time=0
note_on channel=0 note=87 velocity=77 time=0
note_on channel=0 note=58 velocity=77 time=0
note_on channel=0 note=51 velocity=66 time=0
control_change channel=0 control=64 value=0 time=3
<meta message set_tempo tempo=439560 time=5>
note_on channel=0 note=87 velocity=0 time=112
note_on channel=0 note=91 velocity=65 time=0
control_change channel=0 control=64 value=127 time=7
note_on channel=0 note=91 velocity=0 time=113
note_on channel=0 note=87 velocity=77 time=0
note_on channel=0 note=87 velocity=0 time=120
note_on channel=0 note=82 velocity=65 time=0
note_on channel=0 note=82 velocity=0 time=90
<meta message set_tempo tempo=400000 time=30>
note_on channel=0 note=58 velocity=0 time=0
note_on channel=0 note=82 velocity=77 time=0
note_on channel=0 note=63 velocity=84 time=0
note_on channel=0 note=82 velocity=0 time=120
note_on channel=0 note=87 velocity=65 time=0
note_on channel=0 note=87 velocity=0 time=120
note_on channel=0 note=82 velocity=77 time=0
note_on channel=0 note=82 velocity=0 time=120
note_on channel=0 note=79 velocity=65 time=0
note_on channel=0 note=79 velocity=0 time=120
note_on channel=0 note=82 velocity=77 time=0
note_on channel=0 note=82 velocity=0 time=240
note_on channel=0 note=63 velocity=0 time=0
note_on channel=0 note=61 velocity=79 time=0
<meta message set_tempo tempo=430108 time=232>
note_on channel=0 note=61 velocity=0 time=8
note_on channel=0 note=51 velocity=0 time=0
note_on channel=0 note=87 velocity=78 time=0
note_on channel=0 note=56 velocity=66 time=0
note_on channel=0 note=60 velocity=78 time=0
control_change channel=0 control=64 value=0 time=4
note_on channel=0 note=87 velocity=0 time=116
note_on channel=0 note=92 velocity=66 time=0
control_change channel=0 control=64 value=127 time=7
note_on channel=0 note=92 velocity=0 time=113
note_on channel=0 note=87 velocity=78 time=0
note_on channel=0 note=87 velocity=0 time=120
note_on channel=0 note=84 velocity=66 time=0
note_on channel=0 note=84 velocity=0 time=90
<meta message set_tempo tempo=400000 time=22>
note_on channel=0 note=60 velocity=0 time=8
note_on channel=0 note=84 velocity=78 time=0
note_on channel=0 note=63 velocity=83 time=0
note_on channel=0 note=84 velocity=0 time=120
note_on channel=0 note=87 velocity=66 time=0
note_on channel=0 note=87 velocity=0 time=120
note_on channel=0 note=84 velocity=78 time=0
note_on channel=0 note=84 velocity=0 time=120
note_on channel=0 note=80 velocity=66 time=0
note_on channel=0 note=80 velocity=0 time=120
note_on channel=0 note=84 velocity=78 time=0
note_on channel=0 note=84 velocity=0 time=240
note_on channel=0 note=63 velocity=0 time=0
note_on channel=0 note=60 velocity=76 time=0
note_on channel=0 note=60 velocity=0 time=240
note_on channel=0 note=56 velocity=0 time=0
note_on channel=0 note=89 velocity=78 time=0
note_on channel=0 note=60 velocity=76 time=0
note_on channel=0 note=53 velocity=63 time=0
control_change channel=0 control=64 value=0 time=3
<meta message set_tempo tempo=451128 time=5>
note_on channel=0 note=89 velocity=0 time=112
note_on channel=0 note=93 velocity=67 time=0
control_change channel=0 control=64 value=127 time=17
note_on channel=0 note=93 velocity=0 time=103
note_on channel=0 note=89 velocity=78 time=0
note_on channel=0 note=89 velocity=0 time=120
note_on channel=0 note=84 velocity=67 time=0
note_on channel=0 note=84 velocity=0 time=90
note_on channel=0 note=60 velocity=0 time=30
note_on channel=0 note=84 velocity=78 time=0
note_on channel=0 note=65 velocity=82 time=0
<meta message set_tempo tempo=400000 time=8>
note_on channel=0 note=84 velocity=0 time=112
note_on channel=0 note=89 velocity=67 time=0
note_on channel=0 note=89 velocity=0 time=120
note_on channel=0 note=84 velocity=78 time=0
note_on channel=0 note=84 velocity=0 time=120
note_on channel=0 note=81 velocity=67 time=0
note_on channel=0 note=81 velocity=0 time=120
note_on channel=0 note=84 velocity=78 time=0
note_on channel=0 note=84 velocity=0 time=240
note_on channel=0 note=65 velocity=0 time=0
note_on channel=0 note=63 velocity=72 time=0
<meta message set_tempo tempo=428571 time=240>
note_on channel=0 note=63 velocity=0 time=0
note_on channel=0 note=53 velocity=0 time=0
note_on channel=0 note=89 velocity=78 time=0
note_on channel=0 note=58 velocity=64 time=0
note_on channel=0 note=61 velocity=76 time=0
control_change channel=0 control=64 value=0 time=4
note_on channel=0 note=89 velocity=0 time=116
note_on channel=0 note=94 velocity=67 time=0
control_change channel=0 control=64 value=127 time=0
note_on channel=0 note=94 velocity=0 time=120
note_on channel=0 note=89 velocity=78 time=0
note_on channel=0 note=89 velocity=0 time=120
note_on channel=0 note=85 velocity=67 time=0
note_on channel=0 note=85 velocity=0 time=90
note_on channel=0 note=61 velocity=0 time=30
note_on channel=0 note=85 velocity=78 time=0
note_on channel=0 note=65 velocity=82 time=0
<meta message set_tempo tempo=400000 time=8>
note_on channel=0 note=85 velocity=0 time=112
note_on channel=0 note=89 velocity=67 time=0
note_on channel=0 note=89 velocity=0 time=120
note_on channel=0 note=85 velocity=78 time=0
note_on channel=0 note=85 velocity=0 time=120
note_on channel=0 note=82 velocity=67 time=0
note_on channel=0 note=82 velocity=0 time=120
note_on channel=0 note=85 velocity=78 time=0
note_on channel=0 note=85 velocity=0 time=240
note_on channel=0 note=65 velocity=0 time=0
note_on channel=0 note=61 velocity=72 time=0
<meta message set_tempo tempo=439560 time=232>
note_on channel=0 note=61 velocity=0 time=8
note_on channel=0 note=58 velocity=0 time=0
note_on channel=0 note=89 velocity=78 time=0
note_on channel=0 note=53 velocity=62 time=0
note_on channel=0 note=60 velocity=75 time=0
control_change channel=0 control=64 value=0 time=4
control_change channel=0 control=64 value=127 time=99
note_on channel=0 note=89 velocity=0 time=17
note_on channel=0 note=93 velocity=67 time=0
note_on channel=0 note=93 velocity=0 time=120
note_on channel=0 note=89 velocity=78 time=0
note_on channel=0 note=89 velocity=0 time=120
note_on channel=0 note=84 velocity=67 time=0
note_on channel=0 note=84 velocity=0 time=90
<meta message set_tempo tempo=400000 time=30>
note_on channel=0 note=60 velocity=0 time=0
note_on channel=0 note=84 velocity=78 time=0
note_on channel=0 note=65 velocity=81 time=0
note_on channel=0 note=84 velocity=0 time=120
note_on channel=0 note=89 velocity=67 time=0
note_on channel=0 note=89 velocity=0 time=120
note_on channel=0 note=84 velocity=78 time=0
note_on channel=0 note=84 velocity=0 time=120
note_on channel=0 note=81 velocity=67 time=0
note_on channel=0 note=81 velocity=0 time=120
note_on channel=0 note=84 velocity=78 time=0
note_on channel=0 note=84 velocity=0 time=240
note_on channel=0 note=65 velocity=0 time=0
note_on channel=0 note=63 velocity=72 time=0
<meta message set_tempo tempo=424028 time=240>
note_on channel=0 note=63 velocity=0 time=0
note_on channel=0 note=53 velocity=0 time=0
note_on channel=0 note=89 velocity=78 time=0
note_on channel=0 note=58 velocity=59 time=0
note_on channel=0 note=61 velocity=77 time=0
control_change channel=0 control=64 value=0 time=6
control_change channel=0 control=64 value=127 time=107
note_on channel=0 note=89 velocity=0 time=7
note_on channel=0 note=94 velocity=67 time=0
note_on channel=0 note=94 velocity=0 time=120
note_on channel=0 note=89 velocity=78 time=0
note_on channel=0 note=89 velocity=0 time=120
note_on channel=0 note=85 velocity=67 time=0
note_on channel=0 note=85 velocity=0 time=90
<meta message set_tempo tempo=400000 time=30>
note_on channel=0 note=61 velocity=0 time=0
note_on channel=0 note=85 velocity=78 time=0
note_on channel=0 note=65 velocity=81 time=0
note_on channel=0 note=85 velocity=0 time=120
note_on channel=0 note=89 velocity=67 time=0
note_on channel=0 note=89 velocity=0 time=120
note_on channel=0 note=85 velocity=78 time=0
note_on channel=0 note=85 velocity=0 time=120
note_on channel=0 note=82 velocity=67 time=0
note_on channel=0 note=82 velocity=0 time=120
note_on channel=0 note=85 velocity=78 time=0
note_on channel=0 note=85 velocity=0 time=240
note_on channel=0 note=65 velocity=0 time=0
note_on channel=0 note=61 velocity=73 time=0
<meta message set_tempo tempo=480000 time=240>
note_on channel=0 note=61 velocity=0 time=0
note_on channel=0 note=58 velocity=0 time=0
note_on channel=0 note=92 velocity=78 time=0
note_on channel=0 note=63 velocity=77 time=0
note_on channel=0 note=56 velocity=59 time=0
control_change channel=0 control=64 value=0 time=6
note_on channel=0 note=92 velocity=0 time=114
note_on channel=0 note=96 velocity=67 time=0
control_change channel=0 control=64 value=127 time=36
note_on channel=0 note=96 velocity=0 time=84
note_on channel=0 note=92 velocity=78 time=0
note_on channel=0 note=92 velocity=0 time=120
note_on channel=0 note=87 velocity=67 time=0
note_on channel=0 note=87 velocity=0 time=90
<meta message set_tempo tempo=400000 time=30>
note_on channel=0 note=63 velocity=0 time=0
note_on channel=0 note=87 velocity=78 time=0
note_on channel=0 note=68 velocity=81 time=0
note_on channel=0 note=87 velocity=0 time=120
note_on channel=0 note=92 velocity=67 time=0
note_on channel=0 note=92 velocity=0 time=120
note_on channel=0 note=87 velocity=78 time=0
note_on channel=0 note=87 velocity=0 time=120
note_on channel=0 note=84 velocity=67 time=0
note_on channel=0 note=84 velocity=0 time=120
note_on channel=0 note=87 velocity=78 time=0
note_on channel=0 note=87 velocity=0 time=240
note_on channel=0 note=68 velocity=0 time=0
note_on channel=0 note=66 velocity=73 time=0
<meta message set_tempo tempo=424028 time=228>
note_on channel=0 note=66 velocity=0 time=12
note_on channel=0 note=56 velocity=0 time=0
note_on channel=0 note=92 velocity=78 time=0
note_on channel=0 note=61 velocity=67 time=0
note_on channel=0 note=65 velocity=80 time=0
control_change channel=0 control=64 value=0 time=3
note_on channel=0 note=92 velocity=0 time=117
note_on channel=0 note=97 velocity=67 time=0
control_change channel=0 control=64 value=127 time=21
note_on channel=0 note=97 velocity=0 time=99
note_on channel=0 note=92 velocity=78 time=0
note_on channel=0 note=92 velocity=0 time=120
note_on channel=0 note=89 velocity=67 time=0
note_on channel=0 note=89 velocity=0 time=90
note_on channel=0 note=65 velocity=0 time=30
note_on channel=0 note=89 velocity=79 time=0
note_on channel=0 note=68 velocity=83 time=0
<meta message set_tempo tempo=400000 time=8>
note_on channel=0 note=89 velocity=0 time=112
note_on channel=0 note=92 velocity=68 time=0
note_on channel=0 note=92 velocity=0 time=120
note_on channel=0 note=89 velocity=80 time=0
note_on channel=0 note=89 velocity=0 time=120
note_on channel=0 note=85 velocity=68 time=0
note_on channel=0 note=85 velocity=0 time=120
note_on channel=0 note=89 velocity=81 time=0
note_on channel=0 note=89 velocity=0 time=240
note_on channel=0 note=68 velocity=0 time=0
note_on channel=0 note=65 velocity=75 time=0
<meta message set_tempo tempo=430108 time=240>
note_on channel=0 note=65 velocity=0 time=0
note_on channel=0 note=61 velocity=0 time=0
note_on channel=0 note=92 velocity=82 time=0
note_on channel=0 note=63 velocity=78 time=0
note_on channel=0 note=56 velocity=66 time=0
control_change channel=0 control=64 value=0 time=6
note_on channel=0 note=92 velocity=0 time=114
note_on channel=0 note=96 velocity=70 time=0
control_change channel=0 control=64 value=127 time=14
note_on channel=0 note=96 velocity=0 time=106
note_on channel=0 note=92 velocity=83 time=0
note_on channel=0 note=92 velocity=0 time=120
note_on channel=0 note=87 velocity=71 time=0
note_on channel=0 note=87 velocity=0 time=90
note_on channel=0 note=63 velocity=0 time=30
note_on channel=0 note=87 velocity=84 time=0
note_on channel=0 note=68 velocity=84 time=0
<meta message set_tempo tempo=400000 time=8>
note_on channel=0 note=87 velocity=0 time=112
note_on channel=0 note=92 velocity=72 time=0
note_on channel=0 note=92 velocity=0 time=120
note_on channel=0 note=87 velocity=85 time=0
note_on channel=0 note=87 velocity=0 time=120
note_on channel=0 note=84 velocity=72 time=0
note_on channel=0 note=84 velocity=0 time=120
note_on channel=0 note=87 velocity=85 time=0
<meta message set_tempo tempo=428571 time=8>
note_on channel=0 note=87 velocity=0 time=232
note_on channel=0 note=68 velocity=0 time=0
note_on channel=0 note=66 velocity=76 time=0
note_on channel=0 note=66 velocity=0 time=240
note_on channel=0 note=56 velocity=0 time=0
note_on channel=0 note=92 velocity=86 time=0
note_on channel=0 note=61 velocity=85 time=0
note_on channel=0 note=65 velocity=85 time=0
control_change channel=0 control=64 value=0 time=4
<meta message set_tempo tempo=393443 time=1>
<meta message set_tempo tempo=384615 time=27>
note_on channel=0 note=92 velocity=0 time=88
note_on channel=0 note=97 velocity=73 time=0
control_change channel=0 control=64 value=127 time=50
note_on channel=0 note=97 velocity=0 time=70
note_on channel=0 note=92 velocity=86 time=0
<meta message set_tempo tempo=385852 time=72>
note_on channel=0 note=92 velocity=0 time=48
note_on channel=0 note=89 velocity=73 time=0
note_on channel=0 note=89 velocity=0 time=90
note_on channel=0 note=65 velocity=0 time=30
note_on channel=0 note=61 velocity=0 time=0
note_on channel=0 note=89 velocity=86 time=0
<meta message set_tempo tempo=387097 time=72>
note_on channel=0 note=89 velocity=0 time=48
note_on channel=0 note=92 velocity=73 time=0
note_on channel=0 note=92 velocity=0 time=120
note_on channel=0 note=89 velocity=86 time=0
<meta message set_tempo tempo=388350 time=72>
note_on channel=0 note=89 velocity=0 time=48
note_on channel=0 note=85 velocity=73 time=0
note_on channel=0 note=85 velocity=0 time=90
note_on channel=0 note=85 velocity=86 time=30
<meta message set_tempo tempo=389610 time=112>
note_on channel=0 note=85 velocity=0 time=8
note_on channel=0 note=89 velocity=73 time=0
note_on channel=0 note=89 velocity=0 time=120
note_on channel=0 note=85 velocity=86 time=0
<meta message set_tempo tempo=390879 time=112>
note_on channel=0 note=85 velocity=0 time=8
note_on channel=0 note=80 velocity=73 time=0
note_on channel=0 note=80 velocity=0 time=90
note_on channel=0 note=80 velocity=86 time=30
<meta message set_tempo tempo=392157 time=112>
note_on channel=0 note=80 velocity=0 time=8
note_on channel=0 note=85 velocity=73 time=0
note_on channel=0 note=85 velocity=0 time=120
note_on channel=0 note=80 velocity=86 time=0
<meta message set_tempo tempo=393443 time=112>
note_on channel=0 note=80 velocity=0 time=8
note_on channel=0 note=77 velocity=73 time=0
note_on channel=0 note=77 velocity=0 time=90
note_on channel=0 note=77 velocity=86 time=30
note_on channel=0 note=77 velocity=0 time=120
note_on channel=0 note=80 velocity=73 time=0
<meta message set_tempo tempo=394737 time=32>
note_on channel=0 note=80 velocity=0 time=88
note_on channel=0 note=77 velocity=86 time=0
note_on channel=0 note=77 velocity=0 time=120
note_on channel=0 note=73 velocity=73 time=0
<meta message set_tempo tempo=396040 time=32>
note_on channel=0 note=73 velocity=0 time=58
note_on channel=0 note=73 velocity=86 time=30
note_on channel=0 note=73 velocity=0 time=120
note_on channel=0 note=77 velocity=73 time=0
<meta message set_tempo tempo=397351 time=32>
note_on channel=0 note=77 velocity=0 time=88
note_on channel=0 note=73 velocity=86 time=0
note_on channel=0 note=73 velocity=0 time=120
note_on channel=0 note=68 velocity=73 time=0
<meta message set_tempo tempo=398671 time=32>
<meta message set_tempo tempo=398671 time=53>
<meta message set_tempo tempo=398671 time=35>
note_on channel=0 note=68 velocity=0 time=0
note_on channel=0 note=80 velocity=86 time=0
note_on channel=0 note=68 velocity=84 time=0
control_change channel=0 control=64 value=0 time=4
<meta message set_tempo tempo=394737 time=1>
<meta message set_tempo tempo=387097 time=27>
note_on channel=0 note=80 velocity=0 time=88
note_on channel=0 note=85 velocity=73 time=0
control_change channel=0 control=64 value=127 time=14
note_on channel=0 note=85 velocity=0 time=106
note_on channel=0 note=68 velocity=0 time=0
note_on channel=0 note=80 velocity=86 time=0
note_on channel=0 note=80 velocity=0 time=120
note_on channel=0 note=77 velocity=73 time=0
<meta message set_tempo tempo=388350 time=72>
note_on channel=0 note=77 velocity=0 time=18
note_on channel=0 note=77 velocity=86 time=30
note_on channel=0 note=65 velocity=79 time=0
note_on channel=0 note=77 velocity=0 time=120
note_on channel=0 note=80 velocity=73 time=0
note_on channel=0 note=80 velocity=0 time=120
note_on channel=0 note=65 velocity=0 time=0
note_on channel=0 note=77 velocity=86 time=0
<meta message set_tempo tempo=389610 time=72>
note_on channel=0 note=77 velocity=0 time=48
note_on channel=0 note=73 velocity=73 time=0
note_on channel=0 note=73 velocity=0 time=90
note_on channel=0 note=73 velocity=86 time=30
note_on channel=0 note=61 velocity=79 time=0
note_on channel=0 note=73 velocity=0 time=120
note_on channel=0 note=77 velocity=73 time=0
<meta message set_tempo tempo=390879 time=72>
note_on channel=0 note=77 velocity=0 time=48
note_on channel=0 note=61 velocity=0 time=0
note_on channel=0 note=73 velocity=86 time=0
note_on channel=0 note=73 velocity=0 time=120
note_on channel=0 note=68 velocity=73 time=0
note_on channel=0 note=68 velocity=0 time=90
note_on channel=0 note=68 velocity=86 time=30
note_on channel=0 note=56 velocity=82 time=0
<meta message set_tempo tempo=392157 time=72>
note_on channel=0 note=68 velocity=0 time=48
note_on channel=0 note=73 velocity=73 time=0
note_on channel=0 note=73 velocity=0 time=120
note_on channel=0 note=56 velocity=0 time=0
note_on channel=0 note=68 velocity=86 time=0
note_on channel=0 note=68 velocity=0 time=120
note_on channel=0 note=65 velocity=73 time=0
<meta message set_tempo tempo=393443 time=72>
note_on channel=0 note=65 velocity=0 time=18
note_on channel=0 note=65 velocity=86 time=30
note_on channel=0 note=53 velocity=79 time=0
note_on channel=0 note=65 velocity=0 time=120
note_on channel=0 note=68 velocity=73 time=0
note_on channel=0 note=68 velocity=0 time=120
note_on channel=0 note=53 velocity=0 time=0
note_on channel=0 note=65 velocity=86 time=0
<meta message set_tempo tempo=394737 time=72>
note_on channel=0 note=65 velocity=0 time=48
note_on channel=0 note=61 velocity=73 time=0
note_on channel=0 note=61 velocity=0 time=90
note_on channel=0 note=61 velocity=86 time=30
note_on channel=0 note=49 velocity=79 time=0
note_on channel=0 note=61 velocity=0 time=120
note_on channel=0 note=65 velocity=73 time=0
<meta message set_tempo tempo=396040 time=72>
note_on channel=0 note=65 velocity=0 time=48
note_on channel=0 note=49 velocity=0 time=0
note_on channel=0 note=61 velocity=86 time=0
note_on channel=0 note=61 velocity=0 time=120
note_on channel=0 note=56 velocity=73 time=0
note_on channel=0 note=56 velocity=0 time=120
note_on channel=0 note=61 velocity=88 time=0
note_on channel=0 note=52 velocity=68 time=0
note_on channel=0 note=46 velocity=58 time=0
note_on channel=0 note=49 velocity=58 time=0
note_on channel=0 note=43 velocity=58 time=0
control_change channel=0 control=64 value=0 time=11
<meta message set_tempo tempo=397351 time=61>
note_on channel=0 note=61 velocity=0 time=48
note_on channel=0 note=64 velocity=68 time=0
control_change channel=0 control=64 value=127 time=23
note_on channel=0 note=64 velocity=0 time=97
note_on channel=0 note=61 velocity=80 time=0
note_on channel=0 note=61 velocity=0 time=120
note_on channel=0 note=58 velocity=68 time=0
note_on channel=0 note=58 velocity=0 time=90
note_on channel=0 note=58 velocity=80 time=30
note_on channel=0 note=58 velocity=0 time=120
note_on channel=0 note=61 velocity=68 time=0
note_on channel=0 note=61 velocity=0 time=120
note_on channel=0 note=58 velocity=80 time=0
note_on channel=0 note=58 velocity=0 time=120
note_on channel=0 note=55 velocity=68 time=0
note_on channel=0 note=49 velocity=0 time=111
note_on channel=0 note=43 velocity=0 time=0
note_on channel=0 note=52 velocity=0 time=0
note_on channel=0 note=46 velocity=0 time=0
note_on channel=0 note=55 velocity=0 time=9
note_on channel=0 note=61 velocity=89 time=0
note_on channel=0 note=52 velocity=68 time=0
note_on channel=0 note=46 velocity=58 time=0
note_on channel=0 note=43 velocity=58 time=0
note_on channel=0 note=49 velocity=58 time=0
control_change channel=0 control=64 value=0 time=7
control_change channel=0 control=64 value=127 time=96
note_on channel=0 note=61 velocity=0 time=17
note_on channel=0 note=64 velocity=68 time=0
note_on channel=0 note=64 velocity=0 time=120
note_on channel=0 note=61 velocity=80 time=0
note_on channel=0 note=61 velocity=0 time=120
note_on channel=0 note=58 velocity=68 time=0
note_on channel=0 note=58 velocity=0 time=90
note_on channel=0 note=58 velocity=80 time=30
note_on channel=0 note=58 velocity=0 time=120
note_on channel=0 note=61 velocity=68 time=0
note_on channel=0 note=61 velocity=0 time=120
note_on channel=0 note=58 velocity=80 time=0
note_on channel=0 note=58 velocity=0 time=120
note_on channel=0 note=55 velocity=68 time=0
note_on channel=0 note=43 velocity=0 time=111
note_on channel=0 note=49 velocity=0 time=0
note_on channel=0 note=52 velocity=0 time=0
note_on channel=0 note=46 velocity=0 time=0
note_on channel=0 note=55 velocity=0 time=9
note_on channel=0 note=61 velocity=88 time=0
note_on channel=0 note=52 velocity=68 time=0
note_on channel=0 note=46 velocity=58 time=0
note_on channel=0 note=49 velocity=58 time=0
note_on channel=0 note=43 velocity=58 time=0
control_change channel=0 control=64 value=0 time=13
control_change channel=0 control=64 value=127 time=96
note_on channel=0 note=61 velocity=0 time=11
note_on channel=0 note=64 velocity=68 time=0
note_on channel=0 note=64 velocity=0 time=120
note_on channel=0 note=61 velocity=80 time=0
note_on channel=0 note=61 velocity=0 time=120
note_on channel=0 note=58 velocity=68 time=0
note_on channel=0 note=58 velocity=0 time=90
note_on channel=0 note=58 velocity=80 time=30
note_on channel=0 note=58 velocity=0 time=120
note_on channel=0 note=61 velocity=68 time=0
note_on channel=0 note=61 velocity=0 time=120
note_on channel=0 note=58 velocity=80 time=0
note_on channel=0 note=58 velocity=0 time=120
note_on channel=0 note=55 velocity=68 time=0
note_on channel=0 note=49 velocity=0 time=111
note_on channel=0 note=43 velocity=0 time=0
note_on channel=0 note=52 velocity=0 time=0
note_on channel=0 note=46 velocity=0 time=0
note_on channel=0 note=55 velocity=0 time=9
note_on channel=0 note=61 velocity=80 time=0
note_on channel=0 note=51 velocity=61 time=0
note_on channel=0 note=46 velocity=51 time=0
note_on channel=0 note=49 velocity=51 time=0
note_on channel=0 note=43 velocity=51 time=0
control_change channel=0 control=64 value=0 time=6
<meta message set_tempo tempo=398671 time=39>
control_change channel=0 control=64 value=127 time=61
note_on channel=0 note=61 velocity=0 time=14
note_on channel=0 note=63 velocity=68 time=0
note_on channel=0 note=63 velocity=0 time=120
note_on channel=0 note=61 velocity=79 time=0
<meta message set_tempo tempo=400000 time=45>
note_on channel=0 note=61 velocity=0 time=75
note_on channel=0 note=58 velocity=66 time=0
note_on channel=0 note=58 velocity=0 time=90
note_on channel=0 note=58 velocity=77 time=30
<meta message set_tempo tempo=401338 time=45>
note_on channel=0 note=58 velocity=0 time=75
note_on channel=0 note=61 velocity=65 time=0
note_on channel=0 note=61 velocity=0 time=120
note_on channel=0 note=58 velocity=76 time=0
<meta message set_tempo tempo=402685 time=45>
note_on channel=0 note=58 velocity=0 time=75
note_on channel=0 note=55 velocity=63 time=0
note_on channel=0 note=49 velocity=0 time=111
note_on channel=0 note=43 velocity=0 time=0
note_on channel=0 note=51 velocity=0 time=0
note_on channel=0 note=46 velocity=0 time=0
note_on channel=0 note=55 velocity=0 time=9
note_on channel=0 note=61 velocity=82 time=0
note_on channel=0 note=51 velocity=50 time=0
note_on channel=0 note=46 velocity=42 time=0
note_on channel=0 note=43 velocity=42 time=0
note_on channel=0 note=49 velocity=42 time=0
control_change channel=0 control=64 value=0 time=1
<meta message set_tempo tempo=404040 time=4>
note_on channel=0 note=61 velocity=0 time=115
note_on channel=0 note=63 velocity=64 time=0
control_change channel=0 control=64 value=127 time=0
note_on channel=0 note=63 velocity=0 time=120
note_on channel=0 note=61 velocity=75 time=0
<meta message set_tempo tempo=405405 time=5>
note_on channel=0 note=61 velocity=0 time=115
note_on channel=0 note=58 velocity=61 time=0
note_on channel=0 note=58 velocity=0 time=90
note_on channel=0 note=58 velocity=76 time=30
<meta message set_tempo tempo=406780 time=5>
note_on channel=0 note=58 velocity=0 time=115
note_on channel=0 note=61 velocity=63 time=0
<meta message set_tempo tempo=408163 time=85>
note_on channel=0 note=61 velocity=0 time=35
note_on channel=0 note=58 velocity=73 time=0
note_on channel=0 note=58 velocity=0 time=120
note_on channel=0 note=55 velocity=59 time=0
<meta message set_tempo tempo=409556 time=85>
note_on channel=0 note=43 velocity=0 time=26
note_on channel=0 note=49 velocity=0 time=0
note_on channel=0 note=51 velocity=0 time=0
note_on channel=0 note=46 velocity=0 time=0
note_on channel=0 note=55 velocity=0 time=9
note_on channel=0 note=61 velocity=76 time=0
note_on channel=0 note=51 velocity=45 time=0
note_on channel=0 note=46 velocity=38 time=0
note_on channel=0 note=49 velocity=38 time=0
note_on channel=0 note=43 velocity=38 time=0
control_change channel=0 control=64 value=0 time=14
note_on channel=0 note=61 velocity=0 time=106
note_on channel=0 note=63 velocity=57 time=0
control_change channel=0 control=64 value=127 time=0
<meta message set_tempo tempo=410959 time=85>
note_on channel=0 note=63 velocity=0 time=35
note_on channel=0 note=61 velocity=66 time=0
note_on channel=0 note=61 velocity=0 time=120
note_on channel=0 note=58 velocity=55 time=0
<meta message set_tempo tempo=412371 time=45>
note_on channel=0 note=58 velocity=0 time=45
<meta message set_tempo tempo=500000 time=22>
note_on channel=0 note=58 velocity=63 time=8
note_on channel=0 note=58 velocity=0 time=120
note_on channel=0 note=61 velocity=52 time=0
note_on channel=0 note=61 velocity=0 time=120
note_on channel=0 note=58 velocity=60 time=0
note_on channel=0 note=58 velocity=0 time=120
note_on channel=0 note=55 velocity=49 time=0
<meta message set_tempo tempo=603015 time=120>
note_on channel=0 note=55 velocity=0 time=0
note_on channel=0 note=43 velocity=0 time=0
note_on channel=0 note=51 velocity=0 time=0
note_on channel=0 note=46 velocity=0 time=0
note_on channel=0 note=49 velocity=0 time=0
note_on channel=0 note=63 velocity=50 time=0
control_change channel=0 control=64 value=0 time=0
note_on channel=0 note=44 velocity=40 time=0
<meta message set_tempo tempo=600000 time=20>
<meta message set_tempo tempo=597015 time=8>
<meta message set_tempo tempo=594059 time=12>
<meta message set_tempo tempo=591133 time=8>
<meta message set_tempo tempo=588235 time=12>
<meta message set_tempo tempo=585366 time=20>
<meta message set_tempo tempo=582524 time=8>
control_change channel=0 control=64 value=127 time=4
<meta message set_tempo tempo=579710 time=8>
<meta message set_tempo tempo=576923 time=8>
<meta message set_tempo tempo=574163 time=12>
<meta message set_tempo tempo=571429 time=8>
<meta message set_tempo tempo=568720 time=20>
<meta message set_tempo tempo=566038 time=12>
note_on channel=0 note=60 velocity=40 time=0
<meta message set_tempo tempo=563380 time=8>
<meta message set_tempo tempo=560748 time=12>
<meta message set_tempo tempo=558140 time=8>
<meta message set_tempo tempo=555556 time=12>
<meta message set_tempo tempo=552995 time=20>
<meta message set_tempo tempo=550459 time=8>
<meta message set_tempo tempo=547945 time=12>
<meta message set_tempo tempo=545455 time=8>
<meta message set_tempo tempo=542986 time=12>
<meta message set_tempo tempo=540541 time=20>
<meta message set_tempo tempo=538117 time=8>
<meta message set_tempo tempo=535714 time=12>
<meta message set_tempo tempo=533333 time=8>
<meta message set_tempo tempo=530973 time=12>
note_on channel=0 note=60 velocity=0 time=0
note_on channel=0 note=56 velocity=40 time=0
<meta message set_tempo tempo=528634 time=8>
<meta message set_tempo tempo=526316 time=20>
<meta message set_tempo tempo=524017 time=12>
<meta message set_tempo tempo=521739 time=8>
<meta message set_tempo tempo=519481 time=12>
<meta message set_tempo tempo=517241 time=8>
<meta message set_tempo tempo=515021 time=12>
<meta message set_tempo tempo=512821 time=20>
<meta message set_tempo tempo=510638 time=8>
<meta message set_tempo tempo=508475 time=12>
<meta message set_tempo tempo=506329 time=8>
<meta message set_tempo tempo=504202 time=12>
<meta message set_tempo tempo=502092 time=8>
note_on channel=0 note=56 velocity=0 time=12
note_on channel=0 note=63 velocity=0 time=0
note_on channel=0 note=68 velocity=50 time=0
<meta message set_tempo tempo=428571 time=8>
control_change channel=0 control=64 value=0 time=4
control_change channel=0 control=64 value=127 time=108
note_on channel=0 note=63 velocity=40 time=40
note_on channel=0 note=63 velocity=0 time=160
note_on channel=0 note=60 velocity=40 time=0
note_on channel=0 note=60 velocity=0 time=160
note_on channel=0 note=68 velocity=0 time=0
note_on channel=0 note=44 velocity=0 time=0
note_on channel=0 note=67 velocity=50 time=0
note_on channel=0 note=48 velocity=40 time=0
control_change channel=0 control=64 value=0 time=12
control_change channel=0 control=64 value=127 time=101
note_on channel=0 note=63 velocity=40 time=47
note_on channel=0 note=63 velocity=0 time=160
note_on channel=0 note=60 velocity=40 time=0
note_on channel=0 note=60 velocity=0 time=160
note_on channel=0 note=48 velocity=0 time=0
note_on channel=0 note=67 velocity=0 time=0
note_on channel=0 note=65 velocity=50 time=0
note_on channel=0 note=49 velocity=40 time=0
control_change channel=0 control=64 value=0 time=5
<meta message set_tempo tempo=474308 time=3>
control_change channel=0 control=64 value=127 time=77
note_on channel=0 note=61 velocity=40 time=75
note_on channel=0 note=61 velocity=0 time=160
note_on channel=0 note=56 velocity=40 time=0
<meta message set_tempo tempo=428571 time=152>
note_on channel=0 note=56 velocity=0 time=8
note_on channel=0 note=49 velocity=0 time=0
note_on channel=0 note=65 velocity=0 time=0
note_on channel=0 note=73 velocity=50 time=0
note_on channel=0 note=46 velocity=40 time=0
control_change channel=0 control=64 value=0 time=14
control_change channel=0 control=64 value=127 time=99
note_on channel=0 note=65 velocity=40 time=47
note_on channel=0 note=65 velocity=0 time=160
note_on channel=0 note=61 velocity=40 time=0
<meta message set_tempo tempo=472441 time=152>
note_on channel=0 note=61 velocity=0 time=8
note_on channel=0 note=46 velocity=0 time=0
note_on channel=0 note=73 velocity=0 time=0
note_on channel=0 note=70 velocity=50 time=0
note_on channel=0 note=49 velocity=40 time=0
control_change channel=0 control=64 value=0 time=12
control_change channel=0 control=64 value=127 time=80
note_on channel=0 note=65 velocity=40 time=68
note_on channel=0 note=65 velocity=0 time=160
note_on channel=0 note=61 velocity=40 time=0
note_on channel=0 note=61 velocity=0 time=160
note_on channel=0 note=49 velocity=0 time=0
note_on channel=0 note=70 velocity=0 time=0
note_on channel=0 note=70 velocity=50 time=0
note_on channel=0 note=51 velocity=40 time=0
<meta message set_tempo tempo=430108 time=8>
control_change channel=0 control=64 value=0 time=5
control_change channel=0 control=64 value=127 time=114
note_on channel=0 note=63 velocity=40 time=33
note_on channel=0 note=63 velocity=0 time=160
note_on channel=0 note=61 velocity=40 time=0
note_on channel=0 note=61 velocity=0 time=160
note_on channel=0 note=70 velocity=0 time=0
note_on channel=0 note=68 velocity=50 time=0
control_change channel=0 control=64 value=0 time=15
control_change channel=0 control=64 value=127 time=105
note_on channel=0 note=63 velocity=40 time=40
note_on channel=0 note=63 velocity=0 time=160
note_on channel=0 note=60 velocity=40 time=0
<meta message set_tempo tempo=430108 time=152>
note_on channel=0 note=60 velocity=0 time=8
note_on channel=0 note=68 velocity=0 time=0
note_on channel=0 note=68 velocity=50 time=0
control_change channel=0 control=64 value=0 time=12
control_change channel=0 control=64 value=127 time=80
note_on channel=0 note=63 velocity=40 time=68
note_on channel=0 note=63 velocity=0 time=160
note_on channel=0 note=60 velocity=40 time=0
<meta message set_tempo tempo=401338 time=152>
note_on channel=0 note=60 velocity=0 time=8
note_on channel=0 note=68 velocity=0 time=0
note_on channel=0 note=51 velocity=0 time=0
note_on channel=0 note=68 velocity=50 time=0
note_on channel=0 note=39 velocity=40 time=0
control_change channel=0 control=64 value=0 time=6
<meta message set_tempo tempo=402685 time=18>
<meta message set_tempo tempo=404040 time=24>
<meta message set_tempo tempo=405405 time=24>
control_change channel=0 control=64 value=127 time=20
<meta message set_tempo tempo=406780 time=4>
<meta message set_tempo tempo=408163 time=24>
<meta message set_tempo tempo=409556 time=24>
note_on channel=0 note=63 velocity=40 time=16
<meta message set_tempo tempo=410959 time=8>
<meta message set_tempo tempo=412371 time=24>
<meta message set_tempo tempo=413793 time=24>
<meta message set_tempo tempo=415225 time=24>
<meta message set_tempo tempo=416667 time=24>
<meta message set_tempo tempo=418118 time=24>
<meta message set_tempo tempo=419580 time=24>
note_on channel=0 note=63 velocity=0 time=8
note_on channel=0 note=60 velocity=40 time=0
<meta message set_tempo tempo=421053 time=24>
<meta message set_tempo tempo=422535 time=24>
<meta message set_tempo tempo=424028 time=24>
<meta message set_tempo tempo=425532 time=24>
<meta message set_tempo tempo=427046 time=24>
<meta message set_tempo tempo=428571 time=24>
note_on channel=0 note=60 velocity=0 time=16
note_on channel=0 note=68 velocity=0 time=0
note_on channel=0 note=67 velocity=50 time=0
<meta message set_tempo tempo=430108 time=8>
control_change channel=0 control=64 value=0 time=4
<meta message set_tempo tempo=431655 time=20>
<meta message set_tempo tempo=433213 time=24>
<meta message set_tempo tempo=434783 time=24>
<meta message set_tempo tempo=436364 time=24>
control_change channel=0 control=64 value=127 time=2
<meta message set_tempo tempo=437956 time=22>
<meta message set_tempo tempo=439560 time=24>
note_on channel=0 note=63 velocity=40 time=8
<meta message set_tempo tempo=441176 time=24>
<meta message set_tempo tempo=442804 time=24>
<meta message set_tempo tempo=444444 time=24>
<meta message set_tempo tempo=446097 time=24>
<meta message set_tempo tempo=447761 time=24>
<meta message set_tempo tempo=449438 time=24>
note_on channel=0 note=63 velocity=0 time=16
note_on channel=0 note=58 velocity=40 time=0
<meta message set_tempo tempo=451128 time=8>
<meta message set_tempo tempo=452830 time=24>
<meta message set_tempo tempo=454545 time=24>
<meta message set_tempo tempo=456274 time=24>
<meta message set_tempo tempo=458015 time=24>
<meta message set_tempo tempo=459770 time=24>
<meta message set_tempo tempo=461538 time=24>
<meta message set_tempo tempo=521739 time=8>
note_on channel=0 note=58 velocity=0 time=0
note_on channel=0 note=67 velocity=0 time=0
note_on channel=0 note=67 velocity=50 time=0
control_change channel=0 control=64 value=0 time=12
control_change channel=0 control=64 value=127 time=80
note_on channel=0 note=63 velocity=40 time=68
note_on channel=0 note=63 velocity=0 time=160
note_on channel=0 note=58 velocity=40 time=0
<meta message set_tempo tempo=430108 time=160>
note_on channel=0 note=58 velocity=0 time=0
note_on channel=0 note=67 velocity=0 time=0
note_on channel=0 note=39 velocity=0 time=0
note_on channel=0 note=63 velocity=50 time=0
note_on channel=0 note=44 velocity=40 time=0
<meta message set_tempo tempo=428571 time=8>
control_change channel=0 control=64 value=0 time=0
control_change channel=0 control=64 value=127 time=77
note_on channel=0 note=60 velocity=40 time=75
note_on channel=0 note=60 velocity=0 time=160
note_on channel=0 note=56 velocity=40 time=0
note_on channel=0 note=56 velocity=0 time=160
note_on channel=0 note=63 velocity=0 time=0
note_on channel=0 note=68 velocity=50 time=0
control_change channel=0 control=64 value=0 time=14
control_change channel=0 control=64 value=127 time=92
note_on channel=0 note=63 velocity=40 time=54
note_on channel=0 note=63 velocity=0 time=160
note_on channel=0 note=60 velocity=40 time=0
note_on channel=0 note=60 velocity=0 time=160
note_on channel=0 note=68 velocity=0 time=0
note_on channel=0 note=44 velocity=0 time=0
note_on channel=0 note=67 velocity=50 time=0
note_on channel=0 note=48 velocity=40 time=0
control_change channel=0 control=64 value=0 time=14
control_change channel=0 control=64 value=127 time=99
note_on channel=0 note=63 velocity=40 time=47
note_on channel=0 note=63 velocity=0 time=160
note_on channel=0 note=60 velocity=40 time=0
note_on channel=0 note=60 velocity=0 time=160
note_on channel=0 note=48 velocity=0 time=0
note_on channel=0 note=67 velocity=0 time=0
note_on channel=0 note=65 velocity=50 time=0
note_on channel=0 note=49 velocity=40 time=0
control_change channel=0 control=64 value=0 time=6
<meta message set_tempo tempo=502092 time=2>
control_change channel=0 control=64 value=127 time=91
note_on channel=0 note=61 velocity=40 time=61
note_on channel=0 note=61 velocity=0 time=160
note_on channel=0 note=56 velocity=40 time=0
<meta message set_tempo tempo=428571 time=160>
note_on channel=0 note=56 velocity=0 time=0
note_on channel=0 note=49 velocity=0 time=0
note_on channel=0 note=65 velocity=0 time=0
note_on channel=0 note=77 velocity=50 time=0
note_on channel=0 note=46 velocity=40 time=0
control_change channel=0 control=64 value=0 time=14
control_change channel=0 control=64 value=127 time=78
note_on channel=0 note=68 velocity=40 time=68
note_on channel=0 note=68 velocity=0 time=160
note_on channel=0 note=65 velocity=40 time=0
note_on channel=0 note=65 velocity=0 time=160
note_on channel=0 note=46 velocity=0 time=0
note_on channel=0 note=77 velocity=0 time=0
note_on channel=0 note=73 velocity=50 time=0
note_on channel=0 note=58 velocity=40 time=0
note_on channel=0 note=49 velocity=40 time=0
control_change channel=0 control=64 value=0 time=9
control_change channel=0 control=64 value=127 time=97
note_on channel=0 note=65 velocity=40 time=54
note_on channel=0 note=65 velocity=0 time=160
note_on channel=0 note=61 velocity=40 time=0
<meta message set_tempo tempo=428571 time=160>
note_on channel=0 note=61 velocity=0 time=0
note_on channel=0 note=49 velocity=0 time=0
note_on channel=0 note=73 velocity=0 time=0
note_on channel=0 note=73 velocity=50 time=0
control_change channel=0 control=64 value=0 time=0
note_on channel=0 note=51 velocity=40 time=0
<meta message set_tempo tempo=430108 time=80>
control_change channel=0 control=64 value=127 time=19
<meta message set_tempo tempo=431655 time=53>
note_on channel=0 note=68 velocity=40 time=8
<meta message set_tempo tempo=433213 time=64>
<meta message set_tempo tempo=434783 time=72>
note_on channel=0 note=68 velocity=0 time=24
note_on channel=0 note=63 velocity=40 time=0
<meta message set_tempo tempo=436364 time=48>
<meta message set_tempo tempo=437956 time=72>
note_on channel=0 note=63 velocity=0 time=40
note_on channel=0 note=73 velocity=0 time=0
note_on channel=0 note=58 velocity=0 time=0
note_on channel=0 note=72 velocity=50 time=0
note_on channel=0 note=56 velocity=40 time=0
control_change channel=0 control=64 value=0 time=14
<meta message set_tempo tempo=439560 time=18>
control_change channel=0 control=64 value=127 time=67
<meta message set_tempo tempo=441176 time=5>
note_on channel=0 note=68 velocity=40 time=56
<meta message set_tempo tempo=442804 time=16>
<meta message set_tempo tempo=444444 time=72>
<meta message set_tempo tempo=446097 time=72>
note_on channel=0 note=68 velocity=0 time=0
note_on channel=0 note=63 velocity=40 time=0
<meta message set_tempo tempo=447761 time=72>
<meta message set_tempo tempo=461538 time=88>
note_on channel=0 note=63 velocity=0 time=0
note_on channel=0 note=56 velocity=0 time=0
note_on channel=0 note=72 velocity=0 time=0
note_on channel=0 note=72 velocity=50 time=0
note_on channel=0 note=56 velocity=40 time=0
control_change channel=0 control=64 value=0 time=12
control_change channel=0 control=64 value=127 time=94
note_on channel=0 note=68 velocity=40 time=54
note_on channel=0 note=68 velocity=0 time=160
note_on channel=0 note=63 velocity=40 time=0
<meta message set_tempo tempo=428571 time=152>
note_on channel=0 note=63 velocity=0 time=8
note_on channel=0 note=72 velocity=0 time=0
note_on channel=0 note=51 velocity=0 time=0
note_on channel=0 note=72 velocity=50 time=0
note_on channel=0 note=51 velocity=40 time=0
control_change channel=0 control=64 value=0 time=13
<meta message set_tempo tempo=430108 time=19>
<meta message set_tempo tempo=431655 time=32>
<meta message set_tempo tempo=433213 time=32>
control_change channel=0 control=64 value=127 time=3
<meta message set_tempo tempo=434783 time=29>
<meta message set_tempo tempo=436364 time=32>
note_on channel=0 note=63 velocity=40 time=0
<meta message set_tempo tempo=437956 time=40>
<meta message set_tempo tempo=439560 time=32>
<meta message set_tempo tempo=441176 time=32>
<meta message set_tempo tempo=442804 time=32>
note_on channel=0 note=63 velocity=0 time=24
note_on channel=0 note=61 velocity=40 time=0
<meta message set_tempo tempo=444444 time=8>
<meta message set_tempo tempo=446097 time=40>
<meta message set_tempo tempo=447761 time=32>
<meta message set_tempo tempo=449438 time=32>
<meta message set_tempo tempo=451128 time=32>
note_on channel=0 note=61 velocity=0 time=16
note_on channel=0 note=72 velocity=0 time=0
note_on channel=0 note=56 velocity=0 time=0
note_on channel=0 note=70 velocity=50 time=0
note_on channel=0 note=55 velocity=40 time=0
control_change channel=0 control=64 value=0 time=14
<meta message set_tempo tempo=452830 time=2>
<meta message set_tempo tempo=454545 time=40>
<meta message set_tempo tempo=456274 time=32>
control_change channel=0 control=64 value=127 time=25
<meta message set_tempo tempo=458015 time=7>
<meta message set_tempo tempo=459770 time=32>
note_on channel=0 note=63 velocity=40 time=8
<meta message set_tempo tempo=461538 time=24>
<meta message set_tempo tempo=463320 time=40>
<meta message set_tempo tempo=465116 time=32>
<meta message set_tempo tempo=466926 time=32>
<meta message set_tempo tempo=468750 time=32>
note_on channel=0 note=63 velocity=0 time=0
note_on channel=0 note=61 velocity=40 time=0
<meta message set_tempo tempo=470588 time=32>
<meta message set_tempo tempo=472441 time=40>
<meta message set_tempo tempo=474308 time=32>
<meta message set_tempo tempo=476190 time=32>
note_on channel=0 note=61 velocity=0 time=24
note_on channel=0 note=55 velocity=0 time=0
note_on channel=0 note=70 velocity=0 time=0
note_on channel=0 note=70 velocity=50 time=0
note_on channel=0 note=55 velocity=40 time=0
<meta message set_tempo tempo=478088 time=8>
control_change channel=0 control=64 value=0 time=4
<meta message set_tempo tempo=480000 time=28>
<meta message set_tempo tempo=481928 time=40>
<meta message set_tempo tempo=483871 time=32>
control_change channel=0 control=64 value=127 time=15
<meta message set_tempo tempo=485830 time=17>
note_on channel=0 note=63 velocity=40 time=16
<meta message set_tempo tempo=487805 time=16>
<meta message set_tempo tempo=489796 time=32>
<meta message set_tempo tempo=666667 time=32>
note_on channel=0 note=63 velocity=0 time=80
note_on channel=0 note=61 velocity=40 time=0
<meta message set_tempo tempo=400000 time=160>
note_on channel=0 note=61 velocity=0 time=0
note_on channel=0 note=55 velocity=0 time=0
note_on channel=0 note=70 velocity=0 time=0
note_on channel=0 note=51 velocity=0 time=0
note_on channel=0 note=72 velocity=48 time=0
control_change channel=0 control=64 value=0 time=0
note_on channel=0 note=44 velocity=48 time=0
control_change channel=0 control=91 value=125 time=0
control_change channel=0 control=91 value=126 time=8
note_on channel=0 note=72 velocity=0 time=112
note_on channel=0 note=75 velocity=40 time=0
control_change channel=0 control=64 value=127 time=28
note_on channel=0 note=75 velocity=0 time=92
note_on channel=0 note=72 velocity=48 time=0
note_on channel=0 note=72 velocity=0 time=120
note_on channel=0 note=44 velocity=0 time=0
note_on channel=0 note=68 velocity=40 time=0
note_on channel=0 note=68 velocity=0 time=90
note_on channel=0 note=68 velocity=48 time=30
note_on channel=0 note=60 velocity=39 time=0
note_on channel=0 note=56 velocity=33 time=0
note_on channel=0 note=54 velocity=33 time=0
note_on channel=0 note=68 velocity=0 time=120
note_on channel=0 note=72 velocity=40 time=0
note_on channel=0 note=72 velocity=0 time=120
note_on channel=0 note=68 velocity=48 time=0
note_on channel=0 note=68 velocity=0 time=120
note_on channel=0 note=63 velocity=40 time=0
<meta message set_tempo tempo=428571 time=120>
note_on channel=0 note=63 velocity=0 time=0
note_on channel=0 note=68 velocity=48 time=0
control_change channel=0 control=64 value=0 time=184
note_on channel=0 note=68 velocity=0 time=56
<meta message set_tempo tempo=400000 time=240>
note_on channel=0 note=60 velocity=0 time=0
note_on channel=0 note=56 velocity=0 time=0
note_on channel=0 note=54 velocity=0 time=0
note_on channel=0 note=73 velocity=48 time=0
note_on channel=0 note=49 velocity=48 time=0
control_change channel=0 control=64 value=127 time=8
note_on channel=0 note=73 velocity=0 time=112
note_on channel=0 note=77 velocity=40 time=0
note_on channel=0 note=77 velocity=0 time=120
note_on channel=0 note=73 velocity=48 time=0
note_on channel=0 note=73 velocity=0 time=120
note_on channel=0 note=49 velocity=0 time=0
note_on channel=0 note=68 velocity=40 time=0
note_on channel=0 note=68 velocity=0 time=90
note_on channel=0 note=68 velocity=48 time=30
note_on channel=0 note=56 velocity=29 time=0
note_on channel=0 note=61 velocity=35 time=0
note_on channel=0 note=53 velocity=29 time=0
note_on channel=0 note=68 velocity=0 time=120
note_on channel=0 note=73 velocity=40 time=0
note_on channel=0 note=73 velocity=0 time=120
note_on channel=0 note=68 velocity=48 time=0
note_on channel=0 note=68 velocity=0 time=120
note_on channel=0 note=65 velocity=40 time=0
<meta message set_tempo tempo=428571 time=120>
note_on channel=0 note=65 velocity=0 time=0
note_on channel=0 note=68 velocity=48 time=0
control_change channel=0 control=64 value=0 time=148
note_on channel=0 note=68 velocity=0 time=92
<meta message set_tempo tempo=400000 time=232>
note_on channel=0 note=56 velocity=0 time=8
note_on channel=0 note=61 velocity=0 time=0
note_on channel=0 note=53 velocity=0 time=0
note_on channel=0 note=75 velocity=48 time=0
note_on channel=0 note=39 velocity=48 time=0
control_change channel=0 control=64 value=127 time=16
note_on channel=0 note=75 velocity=0 time=104
note_on channel=0 note=79 velocity=40 time=0
note_on channel=0 note=79 velocity=0 time=120
note_on channel=0 note=75 velocity=48 time=0
note_on channel=0 note=75 velocity=0 time=120
note_on channel=0 note=39 velocity=0 time=0
note_on channel=0 note=70 velocity=40 time=0
note_on channel=0 note=70 velocity=0 time=90
note_on channel=0 note=70 velocity=48 time=30
note_on channel=0 note=61 velocity=42 time=0
note_on channel=0 note=58 velocity=35 time=0
note_on channel=0 note=51 velocity=35 time=0
note_on channel=0 note=70 velocity=0 time=120
note_on channel=0 note=75 velocity=40 time=0
note_on channel=0 note=75 velocity=0 time=120
note_on channel=0 note=70 velocity=48 time=0
note_on channel=0 note=70 velocity=0 time=120
note_on channel=0 note=67 velocity=40 time=0
note_on channel=0 note=67 velocity=0 time=120
note_on channel=0 note=70 velocity=48 time=0
<meta message set_tempo tempo=430108 time=8>
control_change channel=0 control=64 value=0 time=91
note_on channel=0 note=70 velocity=0 time=141
<meta message set_tempo tempo=401338 time=240>
note_on channel=0 note=61 velocity=0 time=0
note_on channel=0 note=58 velocity=0 time=0
note_on channel=0 note=51 velocity=0 time=0
note_on channel=0 note=75 velocity=48 time=0
note_on channel=0 note=44 velocity=48 time=0
control_change channel=0 control=64 value=127 time=20
note_on channel=0 note=75 velocity=0 time=100
note_on channel=0 note=80 velocity=40 time=0
note_on channel=0 note=80 velocity=0 time=120
note_on channel=0 note=75 velocity=48 time=0
note_on channel=0 note=75 velocity=0 time=120
note_on channel=0 note=44 velocity=0 time=0
note_on channel=0 note=72 velocity=40 time=0
note_on channel=0 note=72 velocity=0 time=90
note_on channel=0 note=72 velocity=48 time=30
note_on channel=0 note=60 velocity=44 time=0
note_on channel=0 note=51 velocity=37 time=0
note_on channel=0 note=56 velocity=37 time=0
note_on channel=0 note=72 velocity=0 time=120
note_on channel=0 note=75 velocity=40 time=0
note_on channel=0 note=75 velocity=0 time=120
note_on channel=0 note=72 velocity=48 time=0
note_on channel=0 note=72 velocity=0 time=120
note_on channel=0 note=68 velocity=40 time=0
<meta message set_tempo tempo=461538 time=120>
note_on channel=0 note=68 velocity=0 time=0
note_on channel=0 note=72 velocity=48 time=0
control_change channel=0 control=64 value=0 time=99
note_on channel=0 note=72 velocity=0 time=141
note_on channel=0 note=60 velocity=0 time=240
note_on channel=0 note=51 velocity=0 time=0
note_on channel=0 note=56 velocity=0 time=0
note_on channel=0 note=84 velocity=64 time=0
note_on channel=0 note=44 velocity=60 time=0
<meta message set_tempo tempo=401338 time=8>
control_change channel=0 control=64 value=127 time=12
note_on channel=0 note=84 velocity=0 time=100
note_on channel=0 note=87 velocity=54 time=0
note_on channel=0 note=87 velocity=0 time=120
note_on channel=0 note=84 velocity=64 time=0
note_on channel=0 note=84 velocity=0 time=120
note_on channel=0 note=44 velocity=0 time=0
note_on channel=0 note=80 velocity=54 time=0
note_on channel=0 note=80 velocity=0 time=90
note_on channel=0 note=80 velocity=64 time=30
note_on channel=0 note=54 velocity=41 time=0
note_on channel=0 note=56 velocity=41 time=0
note_on channel=0 note=60 velocity=49 time=0
note_on channel=0 note=80 velocity=0 time=120
note_on channel=0 note=84 velocity=54 time=0
note_on channel=0 note=84 velocity=0 time=120
note_on channel=0 note=80 velocity=64 time=0
note_on channel=0 note=80 velocity=0 time=120
note_on channel=0 note=75 velocity=54 time=0
<meta message set_tempo tempo=428571 time=120>
note_on channel=0 note=75 velocity=0 time=0
note_on channel=0 note=80 velocity=64 time=0
control_change channel=0 control=64 value=0 time=191
note_on channel=0 note=80 velocity=0 time=49
<meta message set_tempo tempo=402685 time=240>
note_on channel=0 note=54 velocity=0 time=0
note_on channel=0 note=56 velocity=0 time=0
note_on channel=0 note=60 velocity=0 time=0
note_on channel=0 note=85 velocity=72 time=0
note_on channel=0 note=49 velocity=72 time=0
control_change channel=0 control=64 value=127 time=16
note_on channel=0 note=85 velocity=0 time=104
note_on channel=0 note=89 velocity=61 time=0
note_on channel=0 note=89 velocity=0 time=120
note_on channel=0 note=85 velocity=72 time=0
note_on channel=0 note=85 velocity=0 time=120
note_on channel=0 note=49 velocity=0 time=0
note_on channel=0 note=80 velocity=61 time=0
note_on channel=0 note=80 velocity=0 time=90
note_on channel=0 note=80 velocity=72 time=30
note_on channel=0 note=61 velocity=62 time=0
note_on channel=0 note=53 velocity=52 time=0
note_on channel=0 note=56 velocity=52 time=0
note_on channel=0 note=80 velocity=0 time=120
note_on channel=0 note=85 velocity=61 time=0
note_on channel=0 note=85 velocity=0 time=120
note_on channel=0 note=80 velocity=72 time=0
note_on channel=0 note=80 velocity=0 time=120
note_on channel=0 note=77 velocity=61 time=0
<meta message set_tempo tempo=428571 time=120>
note_on channel=0 note=77 velocity=0 time=0
note_on channel=0 note=80 velocity=72 time=0
control_change channel=0 control=64 value=0 time=198
note_on channel=0 note=80 velocity=0 time=42
<meta message set_tempo tempo=401338 time=240>
note_on channel=0 note=61 velocity=0 time=0
note_on channel=0 note=53 velocity=0 time=0
note_on channel=0 note=56 velocity=0 time=0
note_on channel=0 note=87 velocity=84 time=0
note_on channel=0 note=39 velocity=84 time=0
control_change channel=0 control=64 value=127 time=28
note_on channel=0 note=87 velocity=0 time=92
note_on channel=0 note=91 velocity=71 time=0
note_on channel=0 note=91 velocity=0 time=120
note_on channel=0 note=87 velocity=84 time=0
note_on channel=0 note=87 velocity=0 time=120
note_on channel=0 note=39 velocity=0 time=0
note_on channel=0 note=82 velocity=71 time=0
note_on channel=0 note=82 velocity=0 time=90
note_on channel=0 note=82 velocity=84 time=30
note_on channel=0 note=61 velocity=73 time=0
note_on channel=0 note=51 velocity=62 time=0
note_on channel=0 note=58 velocity=62 time=0
note_on channel=0 note=82 velocity=0 time=120
note_on channel=0 note=87 velocity=71 time=0
note_on channel=0 note=87 velocity=0 time=120
note_on channel=0 note=82 velocity=84 time=0
note_on channel=0 note=82 velocity=0 time=120
note_on channel=0 note=79 velocity=71 time=0
<meta message set_tempo tempo=428571 time=120>
note_on channel=0 note=79 velocity=0 time=0
note_on channel=0 note=82 velocity=84 time=0
control_change channel=0 control=64 value=0 time=205
note_on channel=0 note=82 velocity=0 time=35
<meta message set_tempo tempo=400000 time=240>
note_on channel=0 note=61 velocity=0 time=0
note_on channel=0 note=51 velocity=0 time=0
note_on channel=0 note=58 velocity=0 time=0
note_on channel=0 note=87 velocity=91 time=0
note_on channel=0 note=44 velocity=88 time=0
control_change channel=0 control=64 value=127 time=20
note_on channel=0 note=87 velocity=0 time=100
note_on channel=0 note=92 velocity=76 time=0
note_on channel=0 note=92 velocity=0 time=120
note_on channel=0 note=87 velocity=91 time=0
note_on channel=0 note=87 velocity=0 time=120
note_on channel=0 note=44 velocity=0 time=0
note_on channel=0 note=84 velocity=76 time=0
note_on channel=0 note=84 velocity=0 time=90
note_on channel=0 note=84 velocity=91 time=30
note_on channel=0 note=60 velocity=76 time=0
note_on channel=0 note=51 velocity=64 time=0
note_on channel=0 note=56 velocity=64 time=0
note_on channel=0 note=84 velocity=0 time=120
note_on channel=0 note=87 velocity=76 time=0
note_on channel=0 note=87 velocity=0 time=120
note_on channel=0 note=84 velocity=91 time=0
note_on channel=0 note=84 velocity=0 time=120
note_on channel=0 note=80 velocity=76 time=0
<meta message set_tempo tempo=463320 time=112>
note_on channel=0 note=80 velocity=0 time=8
note_on channel=0 note=84 velocity=91 time=0
control_change channel=0 control=64 value=0 time=141
note_on channel=0 note=84 velocity=0 time=99
note_on channel=0 note=60 velocity=0 time=240
note_on channel=0 note=51 velocity=0 time=0
note_on channel=0 note=56 velocity=0 time=0
note_on channel=0 note=72 velocity=48 time=0
note_on channel=0 note=51 velocity=60 time=0
note_on channel=0 note=44 velocity=40 time=0
<meta message set_tempo tempo=428571 time=4>
control_change channel=0 control=64 value=127 time=24
note_on channel=0 note=72 velocity=0 time=92
note_on channel=0 note=75 velocity=40 time=0
note_on channel=0 note=75 velocity=0 time=120
note_on channel=0 note=72 velocity=48 time=0
note_on channel=0 note=72 velocity=0 time=120
note_on channel=0 note=68 velocity=40 time=0
note_on channel=0 note=68 velocity=0 time=90
<meta message set_tempo tempo=400000 time=18>
note_on channel=0 note=51 velocity=0 time=12
note_on channel=0 note=68 velocity=48 time=0
note_on channel=0 note=56 velocity=72 time=0
note_on channel=0 note=68 velocity=0 time=120
note_on channel=0 note=72 velocity=40 time=0
note_on channel=0 note=72 velocity=0 time=120
note_on channel=0 note=68 velocity=48 time=0
note_on channel=0 note=68 velocity=0 time=120
note_on channel=0 note=63 velocity=40 time=0
note_on channel=0 note=63 velocity=0 time=120
note_on channel=0 note=68 velocity=48 time=0
note_on channel=0 note=68 velocity=0 time=240
note_on channel=0 note=56 velocity=0 time=0
note_on channel=0 note=55 velocity=60 time=0
<meta message set_tempo tempo=427046 time=240>
note_on channel=0 note=55 velocity=0 time=0
note_on channel=0 note=44 velocity=0 time=0
note_on channel=0 note=73 velocity=48 time=0
note_on channel=0 note=49 velocity=40 time=0
note_on channel=0 note=53 velocity=60 time=0
control_change channel=0 control=64 value=0 time=7
note_on channel=0 note=73 velocity=0 time=113
note_on channel=0 note=77 velocity=40 time=0
control_change channel=0 control=64 value=127 time=28
note_on channel=0 note=77 velocity=0 time=92
note_on channel=0 note=73 velocity=48 time=0
note_on channel=0 note=73 velocity=0 time=120
note_on channel=0 note=68 velocity=40 time=0
note_on channel=0 note=68 velocity=0 time=90
<meta message set_tempo tempo=400000 time=30>
note_on channel=0 note=53 velocity=0 time=0
note_on channel=0 note=68 velocity=48 time=0
note_on channel=0 note=61 velocity=72 time=0
note_on channel=0 note=68 velocity=0 time=120
note_on channel=0 note=73 velocity=40 time=0
note_on channel=0 note=73 velocity=0 time=120
note_on channel=0 note=68 velocity=48 time=0
note_on channel=0 note=68 velocity=0 time=120
note_on channel=0 note=65 velocity=40 time=0
note_on channel=0 note=65 velocity=0 time=120
note_on channel=0 note=68 velocity=48 time=0
note_on channel=0 note=68 velocity=0 time=240
note_on channel=0 note=61 velocity=0 time=0
note_on channel=0 note=60 velocity=60 time=0
note_on channel=0 note=60 velocity=0 time=240
note_on channel=0 note=49 velocity=0 time=0
note_on channel=0 note=75 velocity=48 time=0
note_on channel=0 note=51 velocity=40 time=0
note_on channel=0 note=58 velocity=60 time=0
control_change channel=0 control=64 value=0 time=6
<meta message set_tempo tempo=430108 time=2>
note_on channel=0 note=75 velocity=0 time=112
note_on channel=0 note=79 velocity=40 time=0
control_change channel=0 control=64 value=127 time=36
note_on channel=0 note=79 velocity=0 time=84
note_on channel=0 note=75 velocity=48 time=0
note_on channel=0 note=75 velocity=0 time=120
note_on channel=0 note=70 velocity=40 time=0
note_on channel=0 note=70 velocity=0 time=90
<meta message set_tempo tempo=400000 time=22>
note_on channel=0 note=58 velocity=0 time=8
note_on channel=0 note=70 velocity=48 time=0
note_on channel=0 note=63 velocity=72 time=0
note_on channel=0 note=70 velocity=0 time=120
note_on channel=0 note=75 velocity=40 time=0
note_on channel=0 note=75 velocity=0 time=120
note_on channel=0 note=70 velocity=48 time=0
note_on channel=0 note=70 velocity=0 time=120
note_on channel=0 note=67 velocity=40 time=0
note_on channel=0 note=67 velocity=0 time=120
note_on channel=0 note=70 velocity=48 time=0
note_on channel=0 note=70 velocity=0 time=240
note_on channel=0 note=63 velocity=0 time=0
note_on channel=0 note=61 velocity=60 time=0
<meta message set_tempo tempo=428571 time=240>
note_on channel=0 note=61 velocity=0 time=0
note_on channel=0 note=51 velocity=0 time=0
note_on channel=0 note=75 velocity=48 time=0
note_on channel=0 note=56 velocity=40 time=0
note_on channel=0 note=60 velocity=60 time=0
control_change channel=0 control=64 value=0 time=8
note_on channel=0 note=75 velocity=0 time=112
note_on channel=0 note=80 velocity=40 time=0
control_change channel=0 control=64 value=127 time=28
note_on channel=0 note=80 velocity=0 time=92
note_on channel=0 note=75 velocity=48 time=0
note_on channel=0 note=75 velocity=0 time=120
note_on channel=0 note=72 velocity=40 time=0
note_on channel=0 note=72 velocity=0 time=90
note_on channel=0 note=60 velocity=0 time=30
note_on channel=0 note=72 velocity=48 time=0
note_on channel=0 note=63 velocity=72 time=0
<meta message set_tempo tempo=400000 time=8>
note_on channel=0 note=72 velocity=0 time=112
note_on channel=0 note=75 velocity=40 time=0
note_on channel=0 note=75 velocity=0 time=120
note_on channel=0 note=72 velocity=48 time=0
note_on channel=0 note=72 velocity=0 time=120
note_on channel=0 note=68 velocity=40 time=0
note_on channel=0 note=68 velocity=0 time=120
note_on channel=0 note=72 velocity=48 time=0
control_change channel=0 control=64 value=0 time=212
note_on channel=0 note=72 velocity=0 time=28
<meta message set_tempo tempo=483871 time=240>
note_on channel=0 note=63 velocity=0 time=0
note_on channel=0 note=56 velocity=0 time=0
note_on channel=0 note=84 velocity=68 time=0
note_on channel=0 note=44 velocity=57 time=0
note_on channel=0 note=51 velocity=68 time=0
control_change channel=0 control=64 value=127 time=20
note_on channel=0 note=84 velocity=0 time=100
note_on channel=0 note=87 velocity=57 time=0
note_on channel=0 note=87 velocity=0 time=120
note_on channel=0 note=84 velocity=68 time=0
note_on channel=0 note=84 velocity=0 time=120
note_on channel=0 note=80 velocity=57 time=0
note_on channel=0 note=80 velocity=0 time=90
<meta message set_tempo tempo=398671 time=22>
note_on channel=0 note=51 velocity=0 time=8
note_on channel=0 note=80 velocity=68 time=0
note_on channel=0 note=56 velocity=78 time=0
note_on channel=0 note=80 velocity=0 time=120
note_on channel=0 note=84 velocity=57 time=0
note_on channel=0 note=84 velocity=0 time=120
note_on channel=0 note=80 velocity=68 time=0
note_on channel=0 note=80 velocity=0 time=120
note_on channel=0 note=75 velocity=57 time=0
note_on channel=0 note=75 velocity=0 time=120
note_on channel=0 note=80 velocity=68 time=0
note_on channel=0 note=80 velocity=0 time=240
note_on channel=0 note=56 velocity=0 time=0
note_on channel=0 note=55 velocity=68 time=0
note_on channel=0 note=55 velocity=0 time=240
note_on channel=0 note=44 velocity=0 time=0
note_on channel=0 note=85 velocity=68 time=0
note_on channel=0 note=49 velocity=57 time=0
note_on channel=0 note=53 velocity=68 time=0
control_change channel=0 control=64 value=0 time=5
<meta message set_tempo tempo=436364 time=3>
note_on channel=0 note=85 velocity=0 time=112
note_on channel=0 note=89 velocity=57 time=0
control_change channel=0 control=64 value=127 time=28
note_on channel=0 note=89 velocity=0 time=92
note_on channel=0 note=85 velocity=68 time=0
note_on channel=0 note=85 velocity=0 time=120
note_on channel=0 note=80 velocity=57 time=0
note_on channel=0 note=80 velocity=0 time=90
<meta message set_tempo tempo=400000 time=30>
note_on channel=0 note=53 velocity=0 time=0
note_on channel=0 note=80 velocity=68 time=0
note_on channel=0 note=61 velocity=79 time=0
note_on channel=0 note=80 velocity=0 time=120
note_on channel=0 note=85 velocity=57 time=0
note_on channel=0 note=85 velocity=0 time=120
note_on channel=0 note=80 velocity=68 time=0
note_on channel=0 note=80 velocity=0 time=120
note_on channel=0 note=77 velocity=57 time=0
note_on channel=0 note=77 velocity=0 time=120
note_on channel=0 note=80 velocity=68 time=0
note_on channel=0 note=80 velocity=0 time=240
note_on channel=0 note=61 velocity=0 time=0
note_on channel=0 note=60 velocity=68 time=0
note_on channel=0 note=60 velocity=0 time=240
note_on channel=0 note=49 velocity=0 time=0
note_on channel=0 note=87 velocity=68 time=0
note_on channel=0 note=51 velocity=59 time=0
note_on channel=0 note=58 velocity=71 time=0
control_change channel=0 control=64 value=0 time=5
<meta message set_tempo tempo=421053 time=3>
note_on channel=0 note=87 velocity=0 time=112
note_on channel=0 note=91 velocity=57 time=0
control_change channel=0 control=64 value=127 time=21
note_on channel=0 note=91 velocity=0 time=99
note_on channel=0 note=87 velocity=68 time=0
note_on channel=0 note=87 velocity=0 time=120
note_on channel=0 note=82 velocity=57 time=0
note_on channel=0 note=82 velocity=0 time=90
<meta message set_tempo tempo=400000 time=30>
note_on channel=0 note=58 velocity=0 time=0
note_on channel=0 note=82 velocity=68 time=0
note_on channel=0 note=63 velocity=81 time=0
note_on channel=0 note=82 velocity=0 time=120
note_on channel=0 note=87 velocity=57 time=0
note_on channel=0 note=87 velocity=0 time=120
note_on channel=0 note=82 velocity=68 time=0
note_on channel=0 note=82 velocity=0 time=120
note_on channel=0 note=79 velocity=57 time=0
note_on channel=0 note=79 velocity=0 time=120
note_on channel=0 note=82 velocity=68 time=0
note_on channel=0 note=82 velocity=0 time=240
note_on channel=0 note=63 velocity=0 time=0
note_on channel=0 note=61 velocity=68 time=0
note_on channel=0 note=61 velocity=0 time=240
note_on channel=0 note=51 velocity=0 time=0
note_on channel=0 note=87 velocity=80 time=0
note_on channel=0 note=60 velocity=76 time=0
note_on channel=0 note=56 velocity=64 time=0
control_change channel=0 control=64 value=0 time=6
<meta message set_tempo tempo=412371 time=2>
note_on channel=0 note=87 velocity=0 time=112
note_on channel=0 note=92 velocity=68 time=0
control_change channel=0 control=64 value=127 time=28
note_on channel=0 note=92 velocity=0 time=92
note_on channel=0 note=87 velocity=80 time=0
note_on channel=0 note=87 velocity=0 time=120
note_on channel=0 note=84 velocity=68 time=0
note_on channel=0 note=84 velocity=0 time=90
<meta message set_tempo tempo=400000 time=22>
note_on channel=0 note=60 velocity=0 time=8
note_on channel=0 note=84 velocity=80 time=0
note_on channel=0 note=63 velocity=86 time=0
note_on channel=0 note=84 velocity=0 time=120
note_on channel=0 note=87 velocity=68 time=0
note_on channel=0 note=87 velocity=0 time=120
note_on channel=0 note=84 velocity=80 time=0
note_on channel=0 note=84 velocity=0 time=120
note_on channel=0 note=80 velocity=68 time=0
note_on channel=0 note=80 velocity=0 time=120
note_on channel=0 note=84 velocity=80 time=0
note_on channel=0 note=84 velocity=0 time=240
note_on channel=0 note=63 velocity=0 time=0
note_on channel=0 note=60 velocity=80 time=0
<meta message set_tempo tempo=409556 time=240>
note_on channel=0 note=60 velocity=0 time=0
note_on channel=0 note=56 velocity=0 time=0
note_on channel=0 note=87 velocity=84 time=0
note_on channel=0 note=58 velocity=80 time=0
note_on channel=0 note=51 velocity=60 time=0
control_change channel=0 control=64 value=0 time=6
control_change channel=0 control=64 value=127 time=107
note_on channel=0 note=87 velocity=0 time=7
note_on channel=0 note=91 velocity=71 time=0
note_on channel=0 note=91 velocity=0 time=120
note_on channel=0 note=87 velocity=84 time=0
note_on channel=0 note=87 velocity=0 time=120
note_on channel=0 note=82 velocity=71 time=0
note_on channel=0 note=82 velocity=0 time=90
<meta message set_tempo tempo=400000 time=30>
note_on channel=0 note=58 velocity=0 time=0
note_on channel=0 note=82 velocity=84 time=0
note_on channel=0 note=63 velocity=88 time=0
note_on channel=0 note=82 velocity=0 time=120
note_on channel=0 note=87 velocity=71 time=0
note_on channel=0 note=87 velocity=0 time=120
note_on channel=0 note=82 velocity=84 time=0
note_on channel=0 note=82 velocity=0 time=120
note_on channel=0 note=79 velocity=71 time=0
note_on channel=0 note=79 velocity=0 time=120
note_on channel=0 note=82 velocity=84 time=0
note_on channel=0 note=82 velocity=0 time=240
note_on channel=0 note=63 velocity=0 time=0
note_on channel=0 note=61 velocity=80 time=0
note_on channel=0 note=61 velocity=0 time=240
note_on channel=0 note=51 velocity=0 time=0
note_on channel=0 note=87 velocity=90 time=0
note_on channel=0 note=56 velocity=73 time=0
note_on channel=0 note=60 velocity=86 time=0
control_change channel=0 control=64 value=0 time=6
<meta message set_tempo tempo=410959 time=2>
note_on channel=0 note=87 velocity=0 time=112
note_on channel=0 note=92 velocity=76 time=0
control_change channel=0 control=64 value=127 time=50
note_on channel=0 note=92 velocity=0 time=70
note_on channel=0 note=87 velocity=90 time=0
note_on channel=0 note=87 velocity=0 time=120
note_on channel=0 note=84 velocity=76 time=0
note_on channel=0 note=84 velocity=0 time=90
<meta message set_tempo tempo=400000 time=22>
note_on channel=0 note=60 velocity=0 time=8
note_on channel=0 note=84 velocity=90 time=0
note_on channel=0 note=63 velocity=93 time=0
note_on channel=0 note=84 velocity=0 time=120
note_on channel=0 note=87 velocity=76 time=0
note_on channel=0 note=87 velocity=0 time=120
note_on channel=0 note=84 velocity=90 time=0
note_on channel=0 note=84 velocity=0 time=120
note_on channel=0 note=80 velocity=76 time=0
note_on channel=0 note=80 velocity=0 time=120
note_on channel=0 note=84 velocity=90 time=0
note_on channel=0 note=84 velocity=0 time=240
note_on channel=0 note=63 velocity=0 time=0
note_on channel=0 note=60 velocity=85 time=0
note_on channel=0 note=60 velocity=0 time=240
note_on channel=0 note=56 velocity=0 time=0
note_on channel=0 note=87 velocity=96 time=0
note_on channel=0 note=58 velocity=89 time=0
note_on channel=0 note=51 velocity=75 time=0
<meta message set_tempo tempo=412371 time=8>
control_change channel=0 control=64 value=0 time=0
note_on channel=0 note=87 velocity=0 time=112
note_on channel=0 note=91 velocity=81 time=0
control_change channel=0 control=64 value=127 time=36
note_on channel=0 note=91 velocity=0 time=84
note_on channel=0 note=87 velocity=96 time=0
note_on channel=0 note=87 velocity=0 time=120
note_on channel=0 note=82 velocity=81 time=0
note_on channel=0 note=82 velocity=0 time=90
<meta message set_tempo tempo=400000 time=30>
note_on channel=0 note=58 velocity=0 time=0
note_on channel=0 note=82 velocity=96 time=0
note_on channel=0 note=63 velocity=95 time=0
note_on channel=0 note=82 velocity=0 time=120
note_on channel=0 note=87 velocity=81 time=0
note_on channel=0 note=87 velocity=0 time=120
note_on channel=0 note=82 velocity=96 time=0
note_on channel=0 note=82 velocity=0 time=120
note_on channel=0 note=79 velocity=81 time=0
note_on channel=0 note=79 velocity=0 time=120
note_on channel=0 note=82 velocity=96 time=0
note_on channel=0 note=82 velocity=0 time=240
note_on channel=0 note=63 velocity=0 time=0
note_on channel=0 note=61 velocity=87 time=0
note_on channel=0 note=61 velocity=0 time=240
note_on channel=0 note=51 velocity=0 time=0
note_on channel=0 note=87 velocity=96 time=0
note_on channel=0 note=56 velocity=81 time=0
note_on channel=0 note=60 velocity=96 time=0
control_change channel=0 control=64 value=0 time=4
<meta message set_tempo tempo=385579 time=8>
note_on channel=0 note=87 velocity=0 time=108
note_on channel=0 note=92 velocity=81 time=0
control_change channel=0 control=64 value=127 time=0
note_on channel=0 note=92 velocity=0 time=120
note_on channel=0 note=87 velocity=96 time=0
<meta message set_tempo tempo=386822 time=92>
note_on channel=0 note=87 velocity=0 time=28
note_on channel=0 note=84 velocity=81 time=0
note_on channel=0 note=84 velocity=0 time=90
note_on channel=0 note=60 velocity=0 time=30
note_on channel=0 note=56 velocity=0 time=0
note_on channel=0 note=84 velocity=96 time=0
note_on channel=0 note=84 velocity=0 time=120
note_on channel=0 note=87 velocity=81 time=0
<meta message set_tempo tempo=388073 time=52>
note_on channel=0 note=87 velocity=0 time=68
note_on channel=0 note=84 velocity=96 time=0
note_on channel=0 note=84 velocity=0 time=120
note_on channel=0 note=80 velocity=81 time=0
note_on channel=0 note=80 velocity=0 time=90
note_on channel=0 note=80 velocity=96 time=30
<meta message set_tempo tempo=389332 time=12>
note_on channel=0 note=80 velocity=0 time=108
note_on channel=0 note=84 velocity=81 time=0
note_on channel=0 note=84 velocity=0 time=120
note_on channel=0 note=80 velocity=96 time=0
<meta message set_tempo tempo=390600 time=92>
note_on channel=0 note=80 velocity=0 time=28
note_on channel=0 note=75 velocity=81 time=0
note_on channel=0 note=75 velocity=0 time=90
note_on channel=0 note=75 velocity=96 time=30
note_on channel=0 note=75 velocity=0 time=120
note_on channel=0 note=80 velocity=81 time=0
<meta message set_tempo tempo=391875 time=52>
note_on channel=0 note=80 velocity=0 time=68
note_on channel=0 note=75 velocity=96 time=0
note_on channel=0 note=75 velocity=0 time=120
note_on channel=0 note=72 velocity=81 time=0
note_on channel=0 note=72 velocity=0 time=90
note_on channel=0 note=72 velocity=96 time=30
<meta message set_tempo tempo=393159 time=12>
note_on channel=0 note=72 velocity=0 time=108
note_on channel=0 note=75 velocity=81 time=0
note_on channel=0 note=75 velocity=0 time=120
note_on channel=0 note=72 velocity=96 time=0
<meta message set_tempo tempo=394451 time=92>
note_on channel=0 note=72 velocity=0 time=28
note_on channel=0 note=68 velocity=81 time=0
note_on channel=0 note=68 velocity=0 time=90
note_on channel=0 note=68 velocity=96 time=30
note_on channel=0 note=68 velocity=0 time=120
note_on channel=0 note=72 velocity=81 time=0
<meta message set_tempo tempo=395752 time=52>
note_on channel=0 note=72 velocity=0 time=68
note_on channel=0 note=68 velocity=96 time=0
note_on channel=0 note=68 velocity=0 time=120
note_on channel=0 note=63 velocity=80 time=0
<meta message set_tempo tempo=397062 time=92>
<meta message set_tempo tempo=392157 time=20>
note_on channel=0 note=63 velocity=0 time=8
note_on channel=0 note=75 velocity=95 time=0
control_change channel=0 control=64 value=0 time=0
note_on channel=0 note=63 velocity=99 time=0
<meta message set_tempo tempo=385579 time=12>
note_on channel=0 note=75 velocity=0 time=108
note_on channel=0 note=80 velocity=79 time=0
control_change channel=0 control=64 value=127 time=28
note_on channel=0 note=80 velocity=0 time=92
note_on channel=0 note=63 velocity=0 time=0
note_on channel=0 note=75 velocity=93 time=0
note_on channel=0 note=75 velocity=0 time=120
note_on channel=0 note=72 velocity=77 time=0
<meta message set_tempo tempo=386822 time=12>
note_on channel=0 note=72 velocity=0 time=78
note_on channel=0 note=72 velocity=91 time=30
note_on channel=0 note=60 velocity=99 time=0
note_on channel=0 note=72 velocity=0 time=120
note_on channel=0 note=75 velocity=76 time=0
note_on channel=0 note=75 velocity=0 time=120
note_on channel=0 note=60 velocity=0 time=0
note_on channel=0 note=72 velocity=89 time=0
<meta message set_tempo tempo=388073 time=12>
note_on channel=0 note=72 velocity=0 time=108
note_on channel=0 note=68 velocity=75 time=0
note_on channel=0 note=68 velocity=0 time=90
note_on channel=0 note=68 velocity=87 time=30
note_on channel=0 note=56 velocity=93 time=0
note_on channel=0 note=68 velocity=0 time=120
note_on channel=0 note=72 velocity=73 time=0
<meta message set_tempo tempo=389332 time=12>
note_on channel=0 note=72 velocity=0 time=108
note_on channel=0 note=56 velocity=0 time=0
note_on channel=0 note=68 velocity=85 time=0
note_on channel=0 note=68 velocity=0 time=120
note_on channel=0 note=63 velocity=71 time=0
note_on channel=0 note=63 velocity=0 time=90
note_on channel=0 note=63 velocity=83 time=30
note_on channel=0 note=51 velocity=88 time=0
<meta message set_tempo tempo=390600 time=12>
note_on channel=0 note=63 velocity=0 time=108
note_on channel=0 note=68 velocity=70 time=0
note_on channel=0 note=68 velocity=0 time=120
note_on channel=0 note=51 velocity=0 time=0
note_on channel=0 note=63 velocity=79 time=0
note_on channel=0 note=63 velocity=0 time=120
note_on channel=0 note=60 velocity=68 time=0
<meta message set_tempo tempo=391875 time=12>
note_on channel=0 note=60 velocity=0 time=78
note_on channel=0 note=60 velocity=77 time=30
note_on channel=0 note=48 velocity=84 time=0
note_on channel=0 note=60 velocity=0 time=120
note_on channel=0 note=63 velocity=66 time=0
note_on channel=0 note=63 velocity=0 time=120
note_on channel=0 note=48 velocity=0 time=0
note_on channel=0 note=60 velocity=75 time=0
<meta message set_tempo tempo=393159 time=12>
note_on channel=0 note=60 velocity=0 time=108
note_on channel=0 note=56 velocity=62 time=0
note_on channel=0 note=56 velocity=0 time=120
note_on channel=0 note=63 velocity=70 time=0
note_on channel=0 note=51 velocity=80 time=0
note_on channel=0 note=63 velocity=0 time=120
note_on channel=0 note=68 velocity=57 time=0
<meta message set_tempo tempo=394451 time=12>
note_on channel=0 note=68 velocity=0 time=108
note_on channel=0 note=51 velocity=0 time=0
note_on channel=0 note=63 velocity=65 time=0
note_on channel=0 note=63 velocity=0 time=120
note_on channel=0 note=60 velocity=53 time=0
note_on channel=0 note=60 velocity=0 time=120
note_on channel=0 note=56 velocity=60 time=0
note_on channel=0 note=44 velocity=72 time=0
control_change channel=0 control=64 value=0 time=6
<meta message set_tempo tempo=395752 time=6>
<meta message set_tempo tempo=396040 time=20>
control_change channel=0 control=64 value=127 time=74
note_on channel=0 note=56 velocity=0 time=14
note_on channel=0 note=60 velocity=51 time=0
note_on channel=0 note=60 velocity=0 time=120
note_on channel=0 note=56 velocity=60 time=0
note_on channel=0 note=56 velocity=0 time=120
note_on channel=0 note=51 velocity=51 time=0
note_on channel=0 note=51 velocity=0 time=120
note_on channel=0 note=44 velocity=0 time=0
note_on channel=0 note=56 velocity=60 time=0
note_on channel=0 note=56 velocity=0 time=120
note_on channel=0 note=60 velocity=51 time=0
note_on channel=0 note=60 velocity=0 time=120
note_on channel=0 note=56 velocity=60 time=0
note_on channel=0 note=56 velocity=0 time=120
note_on channel=0 note=51 velocity=51 time=0
note_on channel=0 note=51 velocity=0 time=120
note_on channel=0 note=56 velocity=60 time=0
note_on channel=0 note=56 velocity=0 time=120
note_on channel=0 note=60 velocity=51 time=0
note_on channel=0 note=60 velocity=0 time=120
note_on channel=0 note=56 velocity=60 time=0
note_on channel=0 note=56 velocity=0 time=120
note_on channel=0 note=51 velocity=51 time=0
note_on channel=0 note=51 velocity=0 time=120
note_on channel=0 note=56 velocity=60 time=0
note_on channel=0 note=56 velocity=0 time=120
note_on channel=0 note=60 velocity=51 time=0
note_on channel=0 note=60 velocity=0 time=120
note_on channel=0 note=56 velocity=60 time=0
note_on channel=0 note=56 velocity=0 time=120
note_on channel=0 note=51 velocity=51 time=0
note_on channel=0 note=51 velocity=0 time=120
note_on channel=0 note=56 velocity=60 time=0
note_on channel=0 note=56 velocity=0 time=120
note_on channel=0 note=60 velocity=51 time=0
note_on channel=0 note=60 velocity=0 time=120
note_on channel=0 note=56 velocity=60 time=0
note_on channel=0 note=56 velocity=0 time=120
note_on channel=0 note=51 velocity=51 time=0
note_on channel=0 note=51 velocity=0 time=120
note_on channel=0 note=56 velocity=60 time=0
note_on channel=0 note=56 velocity=0 time=120
note_on channel=0 note=60 velocity=51 time=0
note_on channel=0 note=60 velocity=0 time=120
note_on channel=0 note=56 velocity=60 time=0
note_on channel=0 note=56 velocity=0 time=120
note_on channel=0 note=51 velocity=51 time=0
<meta message set_tempo tempo=400000 time=112>
note_on channel=0 note=51 velocity=0 time=8
note_on channel=0 note=68 velocity=60 time=0
note_on channel=0 note=63 velocity=60 time=0
note_on channel=0 note=36 velocity=60 time=0
note_on channel=0 note=48 velocity=60 time=0
note_on channel=0 note=44 velocity=60 time=0
control_change channel=0 control=64 value=0 time=5
<meta message set_tempo tempo=401338 time=59>
note_on channel=0 note=63 velocity=0 time=56
note_on channel=0 note=66 velocity=51 time=0
control_change channel=0 control=64 value=127 time=0
<meta message set_tempo tempo=402685 time=16>
<meta message set_tempo tempo=404040 time=72>
note_on channel=0 note=66 velocity=0 time=32
note_on channel=0 note=63 velocity=59 time=0
<meta message set_tempo tempo=405405 time=40>
<meta message set_tempo tempo=406780 time=72>
note_on channel=0 note=63 velocity=0 time=8
note_on channel=0 note=56 velocity=49 time=0
<meta message set_tempo tempo=408163 time=64>
note_on channel=0 note=56 velocity=0 time=56
note_on channel=0 note=63 velocity=57 time=0
<meta message set_tempo tempo=409556 time=16>
<meta message set_tempo tempo=410959 time=72>
note_on channel=0 note=63 velocity=0 time=32
note_on channel=0 note=66 velocity=47 time=0
<meta message set_tempo tempo=412371 time=40>
<meta message set_tempo tempo=413793 time=72>
note_on channel=0 note=66 velocity=0 time=8
note_on channel=0 note=63 velocity=55 time=0
<meta message set_tempo tempo=415225 time=64>
note_on channel=0 note=63 velocity=0 time=56
note_on channel=0 note=56 velocity=46 time=0
<meta message set_tempo tempo=416667 time=16>
<meta message set_tempo tempo=418118 time=72>
note_on channel=0 note=56 velocity=0 time=32
note_on channel=0 note=63 velocity=54 time=0
<meta message set_tempo tempo=419580 time=40>
<meta message set_tempo tempo=421053 time=72>
note_on channel=0 note=63 velocity=0 time=8
note_on channel=0 note=66 velocity=45 time=0
<meta message set_tempo tempo=422535 time=64>
note_on channel=0 note=66 velocity=0 time=56
note_on channel=0 note=63 velocity=52 time=0
<meta message set_tempo tempo=424028 time=16>
<meta message set_tempo tempo=425532 time=72>
note_on channel=0 note=63 velocity=0 time=32
note_on channel=0 note=56 velocity=43 time=0
<meta message set_tempo tempo=427046 time=40>
<meta message set_tempo tempo=428571 time=72>
note_on channel=0 note=56 velocity=0 time=8
note_on channel=0 note=63 velocity=50 time=0
<meta message set_tempo tempo=430108 time=64>
note_on channel=0 note=63 velocity=0 time=56
note_on channel=0 note=66 velocity=42 time=0
<meta message set_tempo tempo=431655 time=16>
<meta message set_tempo tempo=433213 time=72>
note_on channel=0 note=66 velocity=0 time=32
note_on channel=0 note=63 velocity=49 time=0
<meta message set_tempo tempo=434783 time=40>
<meta message set_tempo tempo=436364 time=72>
note_on channel=0 note=63 velocity=0 time=8
note_on channel=0 note=56 velocity=40 time=0
<meta message set_tempo tempo=437956 time=64>
note_on channel=0 note=56 velocity=0 time=56
note_on channel=0 note=63 velocity=47 time=0
<meta message set_tempo tempo=439560 time=16>
<meta message set_tempo tempo=441176 time=72>
note_on channel=0 note=63 velocity=0 time=32
note_on channel=0 note=66 velocity=39 time=0
<meta message set_tempo tempo=442804 time=40>
<meta message set_tempo tempo=444444 time=72>
note_on channel=0 note=66 velocity=0 time=8
note_on channel=0 note=63 velocity=45 time=0
<meta message set_tempo tempo=446097 time=64>
note_on channel=0 note=63 velocity=0 time=56
note_on channel=0 note=56 velocity=38 time=0
<meta message set_tempo tempo=447761 time=16>
<meta message set_tempo tempo=449438 time=72>
<meta message set_tempo tempo=597015 time=32>
note_on channel=0 note=56 velocity=0 time=0
note_on channel=0 note=63 velocity=44 time=0
note_on channel=0 note=63 velocity=0 time=120
note_on channel=0 note=66 velocity=36 time=0
note_on channel=0 note=66 velocity=0 time=120
note_on channel=0 note=63 velocity=42 time=0
note_on channel=0 note=63 velocity=0 time=120
note_on channel=0 note=56 velocity=34 time=0
<meta message key_signature key='E' time=120>
<meta message set_tempo tempo=458015 time=0>
<meta message marker text='Trio' time=0>
note_on channel=0 note=56 velocity=0 time=0
note_on channel=0 note=44 velocity=0 time=0
note_on channel=0 note=68 velocity=0 time=0
note_on channel=0 note=36 velocity=0 time=0
note_on channel=0 note=48 velocity=0 time=0
note_on channel=0 note=68 velocity=61 time=0
note_on channel=0 note=37 velocity=42 time=0
control_change channel=0 control=64 value=0 time=2
control_change channel=0 control=91 value=127 time=6
control_change channel=0 control=91 value=127 time=8
control_change channel=0 control=64 value=126 time=210
note_on channel=0 note=37 velocity=0 time=14
note_on channel=0 note=56 velocity=27 time=0
note_on channel=0 note=64 velocity=27 time=0
note_on channel=0 note=52 velocity=26 time=0
note_on channel=0 note=49 velocity=22 time=0
note_on channel=0 note=44 velocity=22 time=0
note_on channel=0 note=44 velocity=0 time=228
note_on channel=0 note=56 velocity=0 time=0
note_on channel=0 note=64 velocity=0 time=0
note_on channel=0 note=52 velocity=0 time=0
note_on channel=0 note=49 velocity=0 time=0
<meta message set_tempo tempo=444444 time=12>
note_on channel=0 note=56 velocity=26 time=0
note_on channel=0 note=64 velocity=26 time=0
note_on channel=0 note=44 velocity=22 time=0
note_on channel=0 note=49 velocity=22 time=0
note_on channel=0 note=52 velocity=26 time=0
note_on channel=0 note=52 velocity=0 time=228
note_on channel=0 note=56 velocity=0 time=0
note_on channel=0 note=64 velocity=0 time=0
note_on channel=0 note=44 velocity=0 time=0
note_on channel=0 note=49 velocity=0 time=0
note_on channel=0 note=56 velocity=26 time=12
note_on channel=0 note=64 velocity=26 time=0
note_on channel=0 note=44 velocity=22 time=0
note_on channel=0 note=49 velocity=22 time=0
note_on channel=0 note=52 velocity=26 time=0
note_on channel=0 note=52 velocity=0 time=228
note_on channel=0 note=56 velocity=0 time=0
note_on channel=0 note=64 velocity=0 time=0
note_on channel=0 note=44 velocity=0 time=0
note_on channel=0 note=49 velocity=0 time=0
note_on channel=0 note=56 velocity=26 time=12
note_on channel=0 note=64 velocity=26 time=0
note_on channel=0 note=44 velocity=22 time=0
note_on channel=0 note=49 velocity=22 time=0
note_on channel=0 note=52 velocity=26 time=0
note_on channel=0 note=52 velocity=0 time=228
note_on channel=0 note=56 velocity=0 time=0
note_on channel=0 note=64 velocity=0 time=0
note_on channel=0 note=44 velocity=0 time=0
note_on channel=0 note=49 velocity=0 time=0
note_on channel=0 note=56 velocity=26 time=12
note_on channel=0 note=64 velocity=26 time=0
note_on channel=0 note=44 velocity=22 time=0
note_on channel=0 note=49 velocity=22 time=0
note_on channel=0 note=52 velocity=26 time=0
note_on channel=0 note=52 velocity=0 time=228
note_on channel=0 note=56 velocity=0 time=0
note_on channel=0 note=64 velocity=0 time=0
note_on channel=0 note=44 velocity=0 time=0
note_on channel=0 note=49 velocity=0 time=0
<meta message set_tempo tempo=428571 time=12>
note_on channel=0 note=68 velocity=0 time=0
note_on channel=0 note=68 velocity=61 time=0
note_on channel=0 note=44 velocity=22 time=0
note_on channel=0 note=49 velocity=22 time=0
note_on channel=0 note=52 velocity=26 time=0
control_change channel=0 control=64 value=0 time=4
control_change channel=0 control=64 value=127 time=123
note_on channel=0 note=52 velocity=0 time=101
note_on channel=0 note=49 velocity=0 time=0
note_on channel=0 note=44 velocity=0 time=0
note_on channel=0 note=56 velocity=26 time=12
note_on channel=0 note=64 velocity=26 time=0
note_on channel=0 note=44 velocity=22 time=0
note_on channel=0 note=49 velocity=22 time=0
note_on channel=0 note=52 velocity=26 time=0
note_on channel=0 note=52 velocity=0 time=228
note_on channel=0 note=44 velocity=0 time=0
note_on channel=0 note=56 velocity=0 time=0
note_on channel=0 note=49 velocity=0 time=0
note_on channel=0 note=68 velocity=0 time=12
note_on channel=0 note=64 velocity=0 time=0
note_on channel=0 note=69 velocity=59 time=0
note_on channel=0 note=44 velocity=22 time=0
note_on channel=0 note=49 velocity=22 time=0
note_on channel=0 note=52 velocity=26 time=0
note_on channel=0 note=52 velocity=0 time=228
note_on channel=0 note=49 velocity=0 time=0
note_on channel=0 note=44 velocity=0 time=0
note_on channel=0 note=57 velocity=27 time=12
note_on channel=0 note=64 velocity=27 time=0
note_on channel=0 note=44 velocity=22 time=0
note_on channel=0 note=49 velocity=22 time=0
note_on channel=0 note=52 velocity=26 time=0
note_on channel=0 note=52 velocity=0 time=228
note_on channel=0 note=44 velocity=0 time=0
note_on channel=0 note=57 velocity=0 time=0
note_on channel=0 note=49 velocity=0 time=0
note_on channel=0 note=69 velocity=0 time=12
note_on channel=0 note=64 velocity=0 time=0
note_on channel=0 note=68 velocity=59 time=0
note_on channel=0 note=44 velocity=22 time=0
note_on channel=0 note=49 velocity=22 time=0
note_on channel=0 note=52 velocity=26 time=0
<meta message set_tempo tempo=497925 time=8>
note_on channel=0 note=52 velocity=0 time=220
note_on channel=0 note=49 velocity=0 time=0
note_on channel=0 note=44 velocity=0 time=0
note_on channel=0 note=56 velocity=26 time=12
note_on channel=0 note=64 velocity=26 time=0
note_on channel=0 note=49 velocity=22 time=0
note_on channel=0 note=44 velocity=22 time=0
note_on channel=0 note=52 velocity=26 time=0
note_on channel=0 note=52 velocity=0 time=228
note_on channel=0 note=49 velocity=0 time=0
note_on channel=0 note=56 velocity=0 time=0
note_on channel=0 note=44 velocity=0 time=0
<meta message set_tempo tempo=446097 time=4>
note_on channel=0 note=68 velocity=0 time=8
note_on channel=0 note=64 velocity=0 time=0
note_on channel=0 note=69 velocity=60 time=0
note_on channel=0 note=36 velocity=41 time=0
control_change channel=0 control=64 value=0 time=4
control_change channel=0 control=64 value=126 time=99
note_on channel=0 note=36 velocity=0 time=125
note_on channel=0 note=57 velocity=26 time=12
note_on channel=0 note=66 velocity=26 time=0
note_on channel=0 note=51 velocity=22 time=0
note_on channel=0 note=54 velocity=26 time=0
note_on channel=0 note=44 velocity=22 time=0
note_on channel=0 note=44 velocity=0 time=228
note_on channel=0 note=57 velocity=0 time=0
note_on channel=0 note=66 velocity=0 time=0
note_on channel=0 note=51 velocity=0 time=0
note_on channel=0 note=54 velocity=0 time=0
note_on channel=0 note=57 velocity=26 time=12
note_on channel=0 note=66 velocity=26 time=0
note_on channel=0 note=44 velocity=22 time=0
note_on channel=0 note=51 velocity=22 time=0
note_on channel=0 note=54 velocity=26 time=0
note_on channel=0 note=54 velocity=0 time=228
note_on channel=0 note=57 velocity=0 time=0
note_on channel=0 note=66 velocity=0 time=0
note_on channel=0 note=44 velocity=0 time=0
note_on channel=0 note=51 velocity=0 time=0
note_on channel=0 note=57 velocity=26 time=12
note_on channel=0 note=66 velocity=26 time=0
note_on channel=0 note=44 velocity=22 time=0
note_on channel=0 note=51 velocity=22 time=0
note_on channel=0 note=54 velocity=26 time=0
note_on channel=0 note=54 velocity=0 time=228
note_on channel=0 note=57 velocity=0 time=0
note_on channel=0 note=66 velocity=0 time=0
note_on channel=0 note=44 velocity=0 time=0
note_on channel=0 note=51 velocity=0 time=0
note_on channel=0 note=57 velocity=26 time=12
note_on channel=0 note=66 velocity=26 time=0
note_on channel=0 note=44 velocity=22 time=0
note_on channel=0 note=51 velocity=22 time=0
note_on channel=0 note=54 velocity=26 time=0
note_on channel=0 note=54 velocity=0 time=228
note_on channel=0 note=57 velocity=0 time=0
note_on channel=0 note=66 velocity=0 time=0
note_on channel=0 note=44 velocity=0 time=0
note_on channel=0 note=51 velocity=0 time=0
note_on channel=0 note=57 velocity=26 time=12
note_on channel=0 note=66 velocity=26 time=0
note_on channel=0 note=44 velocity=22 time=0
note_on channel=0 note=51 velocity=22 time=0
note_on channel=0 note=54 velocity=26 time=0
note_on channel=0 note=54 velocity=0 time=228
note_on channel=0 note=57 velocity=0 time=0
note_on channel=0 note=66 velocity=0 time=0
note_on channel=0 note=44 velocity=0 time=0
note_on channel=0 note=51 velocity=0 time=0
note_on channel=0 note=69 velocity=0 time=12
note_on channel=0 note=68 velocity=59 time=0
note_on channel=0 note=44 velocity=22 time=0
note_on channel=0 note=51 velocity=22 time=0
note_on channel=0 note=54 velocity=26 time=0
control_change channel=0 control=64 value=0 time=3
control_change channel=0 control=64 value=127 time=124
note_on channel=0 note=54 velocity=0 time=101
note_on channel=0 note=51 velocity=0 time=0
note_on channel=0 note=44 velocity=0 time=0
note_on channel=0 note=56 velocity=28 time=12
note_on channel=0 note=66 velocity=28 time=0
note_on channel=0 note=44 velocity=22 time=0
note_on channel=0 note=51 velocity=22 time=0
note_on channel=0 note=54 velocity=26 time=0
note_on channel=0 note=54 velocity=0 time=228
note_on channel=0 note=56 velocity=0 time=0
note_on channel=0 note=66 velocity=0 time=0
note_on channel=0 note=44 velocity=0 time=0
note_on channel=0 note=51 velocity=0 time=0
note_on channel=0 note=56 velocity=29 time=12
note_on channel=0 note=66 velocity=29 time=0
note_on channel=0 note=44 velocity=22 time=0
note_on channel=0 note=51 velocity=22 time=0
note_on channel=0 note=54 velocity=26 time=0
note_on channel=0 note=54 velocity=0 time=228
note_on channel=0 note=56 velocity=0 time=0
note_on channel=0 note=66 velocity=0 time=0
note_on channel=0 note=44 velocity=0 time=0
note_on channel=0 note=51 velocity=0 time=0
note_on channel=0 note=56 velocity=29 time=12
note_on channel=0 note=66 velocity=29 time=0
note_on channel=0 note=44 velocity=22 time=0
note_on channel=0 note=51 velocity=22 time=0
note_on channel=0 note=54 velocity=26 time=0
note_on channel=0 note=54 velocity=0 time=228
note_on channel=0 note=56 velocity=0 time=0
note_on channel=0 note=66 velocity=0 time=0
note_on channel=0 note=44 velocity=0 time=0
note_on channel=0 note=51 velocity=0 time=0
note_on channel=0 note=56 velocity=29 time=12
note_on channel=0 note=66 velocity=29 time=0
note_on channel=0 note=51 velocity=22 time=0
note_on channel=0 note=44 velocity=22 time=0
note_on channel=0 note=54 velocity=26 time=0
note_on channel=0 note=54 velocity=0 time=228
note_on channel=0 note=56 velocity=0 time=0
note_on channel=0 note=66 velocity=0 time=0
note_on channel=0 note=51 velocity=0 time=0
note_on channel=0 note=44 velocity=0 time=0
note_on channel=0 note=56 velocity=29 time=12
note_on channel=0 note=66 velocity=29 time=0
note_on channel=0 note=44 velocity=22 time=0
note_on channel=0 note=51 velocity=22 time=0
note_on channel=0 note=54 velocity=26 time=0
note_on channel=0 note=54 velocity=0 time=228
note_on channel=0 note=56 velocity=0 time=0
note_on channel=0 note=66 velocity=0 time=0
note_on channel=0 note=44 velocity=0 time=0
note_on channel=0 note=51 velocity=0 time=0
note_on channel=0 note=68 velocity=0 time=12
note_on channel=0 note=68 velocity=60 time=0
note_on channel=0 note=37 velocity=40 time=0
control_change channel=0 control=64 value=0 time=3
control_change channel=0 control=64 value=126 time=153
note_on channel=0 note=37 velocity=0 time=72
note_on channel=0 note=56 velocity=26 time=12
note_on channel=0 note=64 velocity=26 time=0
note_on channel=0 note=52 velocity=26 time=0
note_on channel=0 note=49 velocity=22 time=0
note_on channel=0 note=44 velocity=22 time=0
note_on channel=0 note=44 velocity=0 time=228
note_on channel=0 note=56 velocity=0 time=0
note_on channel=0 note=64 velocity=0 time=0
note_on channel=0 note=52 velocity=0 time=0
note_on channel=0 note=49 velocity=0 time=0
note_on channel=0 note=56 velocity=26 time=12
note_on channel=0 note=64 velocity=26 time=0
note_on channel=0 note=44 velocity=22 time=0
note_on channel=0 note=49 velocity=22 time=0
note_on channel=0 note=52 velocity=26 time=0
note_on channel=0 note=52 velocity=0 time=228
note_on channel=0 note=56 velocity=0 time=0
note_on channel=0 note=64 velocity=0 time=0
note_on channel=0 note=44 velocity=0 time=0
note_on channel=0 note=49 velocity=0 time=0
note_on channel=0 note=56 velocity=26 time=12
note_on channel=0 note=64 velocity=26 time=0
note_on channel=0 note=44 velocity=22 time=0
note_on channel=0 note=49 velocity=22 time=0
note_on channel=0 note=52 velocity=26 time=0
note_on channel=0 note=52 velocity=0 time=228
note_on channel=0 note=56 velocity=0 time=0
note_on channel=0 note=64 velocity=0 time=0
note_on channel=0 note=44 velocity=0 time=0
note_on channel=0 note=49 velocity=0 time=0
note_on channel=0 note=56 velocity=26 time=12
note_on channel=0 note=64 velocity=26 time=0
note_on channel=0 note=44 velocity=22 time=0
note_on channel=0 note=49 velocity=22 time=0
note_on channel=0 note=52 velocity=26 time=0
note_on channel=0 note=52 velocity=0 time=228
note_on channel=0 note=56 velocity=0 time=0
note_on channel=0 note=64 velocity=0 time=0
note_on channel=0 note=44 velocity=0 time=0
note_on channel=0 note=49 velocity=0 time=0
note_on channel=0 note=56 velocity=27 time=12
note_on channel=0 note=64 velocity=27 time=0
note_on channel=0 note=44 velocity=22 time=0
note_on channel=0 note=49 velocity=22 time=0
note_on channel=0 note=52 velocity=26 time=0
note_on channel=0 note=52 velocity=0 time=228
note_on channel=0 note=56 velocity=0 time=0
note_on channel=0 note=64 velocity=0 time=0
note_on channel=0 note=44 velocity=0 time=0
note_on channel=0 note=49 velocity=0 time=0
note_on channel=0 note=68 velocity=0 time=12
note_on channel=0 note=76 velocity=68 time=0
control_change channel=0 control=64 value=1 time=0
note_on channel=0 note=44 velocity=22 time=0
note_on channel=0 note=49 velocity=22 time=0
note_on channel=0 note=52 velocity=26 time=0
<meta message set_tempo tempo=428571 time=8>
control_change channel=0 control=64 value=127 time=119
note_on channel=0 note=52 velocity=0 time=101
note_on channel=0 note=49 velocity=0 time=0
note_on channel=0 note=44 velocity=0 time=0
note_on channel=0 note=64 velocity=28 time=12
note_on channel=0 note=68 velocity=28 time=0
note_on channel=0 note=44 velocity=22 time=0
note_on channel=0 note=49 velocity=22 time=0
note_on channel=0 note=52 velocity=26 time=0
note_on channel=0 note=52 velocity=0 time=228
note_on channel=0 note=64 velocity=0 time=0
note_on channel=0 note=68 velocity=0 time=0
note_on channel=0 note=44 velocity=0 time=0
note_on channel=0 note=49 velocity=0 time=0
note_on channel=0 note=76 velocity=0 time=12
note_on channel=0 note=75 velocity=63 time=0
note_on channel=0 note=44 velocity=22 time=0
note_on channel=0 note=49 velocity=22 time=0
note_on channel=0 note=52 velocity=26 time=0
note_on channel=0 note=52 velocity=0 time=228
note_on channel=0 note=49 velocity=0 time=0
note_on channel=0 note=44 velocity=0 time=0
note_on channel=0 note=63 velocity=27 time=12
note_on channel=0 note=68 velocity=27 time=0
note_on channel=0 note=44 velocity=22 time=0
note_on channel=0 note=49 velocity=22 time=0
note_on channel=0 note=52 velocity=26 time=0
note_on channel=0 note=52 velocity=0 time=228
note_on channel=0 note=63 velocity=0 time=0
note_on channel=0 note=68 velocity=0 time=0
note_on channel=0 note=44 velocity=0 time=0
note_on channel=0 note=49 velocity=0 time=0
note_on channel=0 note=75 velocity=0 time=12
note_on channel=0 note=73 velocity=60 time=0
note_on channel=0 note=44 velocity=22 time=0
note_on channel=0 note=49 velocity=22 time=0
note_on channel=0 note=52 velocity=26 time=0
<meta message set_tempo tempo=524017 time=8>
note_on channel=0 note=52 velocity=0 time=220
note_on channel=0 note=49 velocity=0 time=0
note_on channel=0 note=44 velocity=0 time=0
note_on channel=0 note=61 velocity=27 time=12
note_on channel=0 note=68 velocity=27 time=0
note_on channel=0 note=49 velocity=22 time=0
note_on channel=0 note=44 velocity=22 time=0
note_on channel=0 note=52 velocity=26 time=0
note_on channel=0 note=52 velocity=0 time=228
note_on channel=0 note=61 velocity=0 time=0
note_on channel=0 note=68 velocity=0 time=0
note_on channel=0 note=49 velocity=0 time=0
note_on channel=0 note=44 velocity=0 time=0
note_on channel=0 note=73 velocity=0 time=12
note_on channel=0 note=73 velocity=60 time=0
control_change channel=0 control=64 value=0 time=0
note_on channel=0 note=39 velocity=39 time=0
<meta message set_tempo tempo=444444 time=8>
note_on channel=0 note=39 velocity=0 time=220
note_on channel=0 note=61 velocity=27 time=12
note_on channel=0 note=68 velocity=27 time=0
control_change channel=0 control=64 value=126 time=0
note_on channel=0 note=51 velocity=22 time=0
note_on channel=0 note=54 velocity=26 time=0
note_on channel=0 note=44 velocity=22 time=0
note_on channel=0 note=44 velocity=0 time=228
note_on channel=0 note=61 velocity=0 time=0
note_on channel=0 note=68 velocity=0 time=0
note_on channel=0 note=51 velocity=0 time=0
note_on channel=0 note=54 velocity=0 time=0
note_on channel=0 note=61 velocity=27 time=12
note_on channel=0 note=68 velocity=27 time=0
note_on channel=0 note=44 velocity=22 time=0
note_on channel=0 note=51 velocity=22 time=0
note_on channel=0 note=54 velocity=26 time=0
note_on channel=0 note=54 velocity=0 time=228
note_on channel=0 note=61 velocity=0 time=0
note_on channel=0 note=68 velocity=0 time=0
note_on channel=0 note=44 velocity=0 time=0
note_on channel=0 note=51 velocity=0 time=0
note_on channel=0 note=61 velocity=27 time=12
note_on channel=0 note=68 velocity=27 time=0
note_on channel=0 note=44 velocity=22 time=0
note_on channel=0 note=51 velocity=22 time=0
note_on channel=0 note=54 velocity=26 time=0
note_on channel=0 note=54 velocity=0 time=228
note_on channel=0 note=61 velocity=0 time=0
note_on channel=0 note=68 velocity=0 time=0
note_on channel=0 note=44 velocity=0 time=0
note_on channel=0 note=51 velocity=0 time=0
note_on channel=0 note=61 velocity=27 time=12
note_on channel=0 note=68 velocity=27 time=0
note_on channel=0 note=44 velocity=22 time=0
note_on channel=0 note=51 velocity=22 time=0
note_on channel=0 note=54 velocity=26 time=0
note_on channel=0 note=54 velocity=0 time=228
note_on channel=0 note=61 velocity=0 time=0
note_on channel=0 note=68 velocity=0 time=0
note_on channel=0 note=44 velocity=0 time=0
note_on channel=0 note=51 velocity=0 time=0
note_on channel=0 note=61 velocity=27 time=12
note_on channel=0 note=68 velocity=27 time=0
note_on channel=0 note=44 velocity=22 time=0
note_on channel=0 note=51 velocity=22 time=0
note_on channel=0 note=54 velocity=26 time=0
note_on channel=0 note=54 velocity=0 time=228
note_on channel=0 note=61 velocity=0 time=0
note_on channel=0 note=68 velocity=0 time=0
note_on channel=0 note=44 velocity=0 time=0
note_on channel=0 note=51 velocity=0 time=0
note_on channel=0 note=73 velocity=0 time=12
note_on channel=0 note=72 velocity=61 time=0
note_on channel=0 note=44 velocity=22 time=0
note_on channel=0 note=51 velocity=22 time=0
note_on channel=0 note=54 velocity=26 time=0
control_change channel=0 control=64 value=0 time=3
control_change channel=0 control=64 value=127 time=100
note_on channel=0 note=54 velocity=0 time=125
note_on channel=0 note=51 velocity=0 time=0
note_on channel=0 note=44 velocity=0 time=0
note_on channel=0 note=60 velocity=27 time=12
note_on channel=0 note=68 velocity=27 time=0
note_on channel=0 note=44 velocity=22 time=0
note_on channel=0 note=51 velocity=22 time=0
note_on channel=0 note=54 velocity=26 time=0
note_on channel=0 note=54 velocity=0 time=228
note_on channel=0 note=60 velocity=0 time=0
note_on channel=0 note=68 velocity=0 time=0
note_on channel=0 note=44 velocity=0 time=0
note_on channel=0 note=51 velocity=0 time=0
note_on channel=0 note=60 velocity=27 time=12
note_on channel=0 note=68 velocity=27 time=0
note_on channel=0 note=44 velocity=22 time=0
note_on channel=0 note=51 velocity=22 time=0
note_on channel=0 note=54 velocity=26 time=0
note_on channel=0 note=54 velocity=0 time=228
note_on channel=0 note=60 velocity=0 time=0
note_on channel=0 note=68 velocity=0 time=0
note_on channel=0 note=44 velocity=0 time=0
note_on channel=0 note=51 velocity=0 time=0
note_on channel=0 note=60 velocity=27 time=12
note_on channel=0 note=68 velocity=27 time=0
note_on channel=0 note=44 velocity=22 time=0
note_on channel=0 note=51 velocity=22 time=0
note_on channel=0 note=54 velocity=26 time=0
note_on channel=0 note=54 velocity=0 time=228
note_on channel=0 note=60 velocity=0 time=0
note_on channel=0 note=68 velocity=0 time=0
note_on channel=0 note=44 velocity=0 time=0
note_on channel=0 note=51 velocity=0 time=0
note_on channel=0 note=60 velocity=27 time=12
note_on channel=0 note=68 velocity=27 time=0
note_on channel=0 note=51 velocity=22 time=0
note_on channel=0 note=44 velocity=22 time=0
note_on channel=0 note=54 velocity=26 time=0
note_on channel=0 note=54 velocity=0 time=228
note_on channel=0 note=60 velocity=0 time=0
note_on channel=0 note=68 velocity=0 time=0
note_on channel=0 note=51 velocity=0 time=0
note_on channel=0 note=44 velocity=0 time=0
note_on channel=0 note=60 velocity=27 time=12
note_on channel=0 note=68 velocity=27 time=0
note_on channel=0 note=44 velocity=22 time=0
note_on channel=0 note=51 velocity=22 time=0
note_on channel=0 note=54 velocity=26 time=0
note_on channel=0 note=54 velocity=0 time=228
note_on channel=0 note=60 velocity=0 time=0
note_on channel=0 note=68 velocity=0 time=0
note_on channel=0 note=44 velocity=0 time=0
note_on channel=0 note=51 velocity=0 time=0
<meta message set_tempo tempo=481928 time=4>
note_on channel=0 note=72 velocity=0 time=8
note_on channel=0 note=72 velocity=58 time=0
note_on channel=0 note=40 velocity=42 time=0
control_change channel=0 control=64 value=0 time=4
control_change channel=0 control=64 value=124 time=99
note_on channel=0 note=40 velocity=0 time=125
note_on channel=0 note=60 velocity=35 time=12
note_on channel=0 note=69 velocity=35 time=0
note_on channel=0 note=52 velocity=35 time=0
note_on channel=0 note=45 velocity=29 time=0
note_on channel=0 note=45 velocity=0 time=228
note_on channel=0 note=69 velocity=0 time=0
note_on channel=0 note=52 velocity=0 time=0
note_on channel=0 note=60 velocity=0 time=0
<meta message set_tempo tempo=430108 time=4>
note_on channel=0 note=72 velocity=0 time=8
note_on channel=0 note=73 velocity=68 time=0
note_on channel=0 note=45 velocity=29 time=0
note_on channel=0 note=52 velocity=35 time=0
control_change channel=0 control=64 value=0 time=14
control_change channel=0 control=64 value=124 time=181
note_on channel=0 note=52 velocity=0 time=33
note_on channel=0 note=45 velocity=0 time=0
note_on channel=0 note=61 velocity=35 time=12
note_on channel=0 note=69 velocity=35 time=0
note_on channel=0 note=45 velocity=29 time=0
note_on channel=0 note=52 velocity=35 time=0
note_on channel=0 note=52 velocity=0 time=228
note_on channel=0 note=69 velocity=0 time=0
note_on channel=0 note=45 velocity=0 time=0
note_on channel=0 note=61 velocity=0 time=0
note_on channel=0 note=61 velocity=35 time=12
note_on channel=0 note=69 velocity=35 time=0
note_on channel=0 note=45 velocity=29 time=0
note_on channel=0 note=52 velocity=35 time=0
note_on channel=0 note=52 velocity=0 time=228
note_on channel=0 note=69 velocity=0 time=0
note_on channel=0 note=45 velocity=0 time=0
note_on channel=0 note=61 velocity=0 time=0
note_on channel=0 note=61 velocity=35 time=12
note_on channel=0 note=69 velocity=35 time=0
note_on channel=0 note=45 velocity=29 time=0
note_on channel=0 note=52 velocity=35 time=0
note_on channel=0 note=52 velocity=0 time=228
note_on channel=0 note=69 velocity=0 time=0
note_on channel=0 note=45 velocity=0 time=0
note_on channel=0 note=61 velocity=0 time=0
note_on channel=0 note=61 velocity=35 time=12
note_on channel=0 note=69 velocity=35 time=0
note_on channel=0 note=52 velocity=35 time=0
note_on channel=0 note=45 velocity=29 time=0
note_on channel=0 note=45 velocity=0 time=228
note_on channel=0 note=69 velocity=0 time=0
note_on channel=0 note=52 velocity=0 time=0
note_on channel=0 note=61 velocity=0 time=0
note_on channel=0 note=61 velocity=35 time=12
note_on channel=0 note=69 velocity=35 time=0
note_on channel=0 note=45 velocity=29 time=0
note_on channel=0 note=52 velocity=35 time=0
note_on channel=0 note=52 velocity=0 time=228
note_on channel=0 note=69 velocity=0 time=0
note_on channel=0 note=45 velocity=0 time=0
note_on channel=0 note=61 velocity=0 time=0
note_on channel=0 note=73 velocity=0 time=12
note_on channel=0 note=73 velocity=70 time=0
note_on channel=0 note=40 velocity=35 time=0
note_on channel=0 note=61 velocity=35 time=240
note_on channel=0 note=69 velocity=35 time=0
note_on channel=0 note=52 velocity=35 time=0
note_on channel=0 note=45 velocity=29 time=0
note_on channel=0 note=45 velocity=0 time=228
note_on channel=0 note=69 velocity=0 time=0
note_on channel=0 note=61 velocity=0 time=0
note_on channel=0 note=52 velocity=0 time=0
note_on channel=0 note=73 velocity=0 time=12
note_on channel=0 note=40 velocity=0 time=0
note_on channel=0 note=73 velocity=69 time=0
note_on channel=0 note=40 velocity=35 time=0
note_on channel=0 note=61 velocity=35 time=240
note_on channel=0 note=69 velocity=35 time=0
note_on channel=0 note=52 velocity=35 time=0
note_on channel=0 note=45 velocity=29 time=0
note_on channel=0 note=45 velocity=0 time=228
note_on channel=0 note=69 velocity=0 time=0
note_on channel=0 note=61 velocity=0 time=0
note_on channel=0 note=52 velocity=0 time=0
<meta message set_tempo tempo=480000 time=4>
note_on channel=0 note=73 velocity=0 time=8
note_on channel=0 note=40 velocity=0 time=0
note_on channel=0 note=73 velocity=70 time=0
note_on channel=0 note=35 velocity=52 time=0
control_change channel=0 control=64 value=0 time=3
control_change channel=0 control=64 value=126 time=123
note_on channel=0 note=35 velocity=0 time=102
note_on channel=0 note=61 velocity=44 time=12
note_on channel=0 note=68 velocity=44 time=0
note_on channel=0 note=47 velocity=44 time=0
note_on channel=0 note=40 velocity=37 time=0
note_on channel=0 note=40 velocity=0 time=228
note_on channel=0 note=68 velocity=0 time=0
note_on channel=0 note=47 velocity=0 time=0
note_on channel=0 note=61 velocity=0 time=0
<meta message set_tempo tempo=431655 time=12>
note_on channel=0 note=73 velocity=0 time=0
note_on channel=0 note=74 velocity=78 time=0
note_on channel=0 note=40 velocity=37 time=0
note_on channel=0 note=47 velocity=44 time=0
control_change channel=0 control=64 value=0 time=13
control_change channel=0 control=64 value=124 time=182
note_on channel=0 note=47 velocity=0 time=33
note_on channel=0 note=40 velocity=0 time=0
note_on channel=0 note=62 velocity=44 time=12
note_on channel=0 note=68 velocity=44 time=0
note_on channel=0 note=40 velocity=37 time=0
note_on channel=0 note=47 velocity=44 time=0
note_on channel=0 note=47 velocity=0 time=228
note_on channel=0 note=68 velocity=0 time=0
note_on channel=0 note=40 velocity=0 time=0
note_on channel=0 note=62 velocity=0 time=0
note_on channel=0 note=62 velocity=44 time=12
note_on channel=0 note=68 velocity=44 time=0
note_on channel=0 note=47 velocity=44 time=0
note_on channel=0 note=40 velocity=37 time=0
note_on channel=0 note=40 velocity=0 time=228
note_on channel=0 note=68 velocity=0 time=0
note_on channel=0 note=47 velocity=0 time=0
note_on channel=0 note=62 velocity=0 time=0
note_on channel=0 note=62 velocity=44 time=12
note_on channel=0 note=68 velocity=44 time=0
note_on channel=0 note=40 velocity=37 time=0
note_on channel=0 note=47 velocity=44 time=0
note_on channel=0 note=47 velocity=0 time=228
note_on channel=0 note=68 velocity=0 time=0
note_on channel=0 note=40 velocity=0 time=0
note_on channel=0 note=62 velocity=0 time=0
note_on channel=0 note=62 velocity=44 time=12
note_on channel=0 note=68 velocity=44 time=0
note_on channel=0 note=40 velocity=37 time=0
note_on channel=0 note=47 velocity=44 time=0
note_on channel=0 note=47 velocity=0 time=228
note_on channel=0 note=68 velocity=0 time=0
note_on channel=0 note=40 velocity=0 time=0
note_on channel=0 note=62 velocity=0 time=0
note_on channel=0 note=62 velocity=44 time=12
note_on channel=0 note=68 velocity=44 time=0
note_on channel=0 note=40 velocity=37 time=0
note_on channel=0 note=47 velocity=44 time=0
note_on channel=0 note=47 velocity=0 time=228
note_on channel=0 note=68 velocity=0 time=0
note_on channel=0 note=40 velocity=0 time=0
note_on channel=0 note=62 velocity=0 time=0
note_on channel=0 note=74 velocity=0 time=12
note_on channel=0 note=74 velocity=81 time=0
note_on channel=0 note=35 velocity=44 time=0
control_change channel=0 control=64 value=0 time=7
control_change channel=0 control=64 value=126 time=108
note_on channel=0 note=62 velocity=44 time=125
note_on channel=0 note=68 velocity=44 time=0
note_on channel=0 note=40 velocity=37 time=0
note_on channel=0 note=47 velocity=44 time=0
note_on channel=0 note=47 velocity=0 time=240
note_on channel=0 note=35 velocity=0 time=0
note_on channel=0 note=62 velocity=0 time=0
note_on channel=0 note=74 velocity=0 time=0
note_on channel=0 note=40 velocity=0 time=0
note_on channel=0 note=68 velocity=0 time=0
note_on channel=0 note=74 velocity=80 time=0
note_on channel=0 note=40 velocity=44 time=0
note_on channel=0 note=62 velocity=44 time=240
note_on channel=0 note=68 velocity=44 time=0
note_on channel=0 note=52 velocity=44 time=0
note_on channel=0 note=47 velocity=37 time=0
<meta message set_tempo tempo=478088 time=232>
note_on channel=0 note=47 velocity=0 time=8
note_on channel=0 note=40 velocity=0 time=0
note_on channel=0 note=62 velocity=0 time=0
note_on channel=0 note=74 velocity=0 time=0
note_on channel=0 note=52 velocity=0 time=0
note_on channel=0 note=68 velocity=0 time=0
note_on channel=0 note=76 velocity=88 time=0
note_on channel=0 note=39 velocity=61 time=0
control_change channel=0 control=64 value=0 time=5
control_change channel=0 control=64 value=127 time=94
note_on channel=0 note=64 velocity=51 time=141
note_on channel=0 note=68 velocity=51 time=0
note_on channel=0 note=51 velocity=45 time=0
note_on channel=0 note=47 velocity=39 time=0
note_on channel=0 note=47 velocity=0 time=228
note_on channel=0 note=68 velocity=0 time=0
note_on channel=0 note=64 velocity=0 time=0
note_on channel=0 note=51 velocity=0 time=0
<meta message set_tempo tempo=428571 time=4>
note_on channel=0 note=76 velocity=0 time=8
note_on channel=0 note=75 velocity=84 time=0
note_on channel=0 note=47 velocity=39 time=0
note_on channel=0 note=51 velocity=45 time=0
control_change channel=0 control=64 value=0 time=20
control_change channel=0 control=64 value=127 time=164
note_on channel=0 note=51 velocity=0 time=44
note_on channel=0 note=47 velocity=0 time=0
note_on channel=0 note=63 velocity=51 time=12
note_on channel=0 note=68 velocity=51 time=0
note_on channel=0 note=47 velocity=39 time=0
note_on channel=0 note=51 velocity=46 time=0
note_on channel=0 note=51 velocity=0 time=228
note_on channel=0 note=68 velocity=0 time=0
note_on channel=0 note=63 velocity=0 time=0
note_on channel=0 note=47 velocity=0 time=0
note_on channel=0 note=63 velocity=44 time=12
note_on channel=0 note=68 velocity=44 time=0
note_on channel=0 note=47 velocity=46 time=0
note_on channel=0 note=51 velocity=46 time=0
note_on channel=0 note=51 velocity=0 time=228
note_on channel=0 note=68 velocity=0 time=0
note_on channel=0 note=63 velocity=0 time=0
note_on channel=0 note=47 velocity=0 time=0
note_on channel=0 note=63 velocity=51 time=12
note_on channel=0 note=68 velocity=51 time=0
note_on channel=0 note=47 velocity=39 time=0
note_on channel=0 note=51 velocity=46 time=0
note_on channel=0 note=51 velocity=0 time=228
note_on channel=0 note=68 velocity=0 time=0
note_on channel=0 note=63 velocity=0 time=0
note_on channel=0 note=47 velocity=0 time=0
<meta message set_tempo tempo=446097 time=4>
note_on channel=0 note=39 velocity=0 time=8
note_on channel=0 note=75 velocity=0 time=0
note_on channel=0 note=76 velocity=88 time=0
note_on channel=0 note=39 velocity=61 time=0
control_change channel=0 control=64 value=0 time=6
control_change channel=0 control=64 value=126 time=85
note_on channel=0 note=64 velocity=52 time=149
note_on channel=0 note=67 velocity=52 time=0
note_on channel=0 note=49 velocity=39 time=0
note_on channel=0 note=51 velocity=46 time=0
note_on channel=0 note=46 velocity=39 time=0
note_on channel=0 note=46 velocity=0 time=228
note_on channel=0 note=49 velocity=0 time=0
note_on channel=0 note=67 velocity=0 time=0
note_on channel=0 note=64 velocity=0 time=0
note_on channel=0 note=51 velocity=0 time=0
<meta message set_tempo tempo=428571 time=12>
note_on channel=0 note=76 velocity=0 time=0
note_on channel=0 note=75 velocity=84 time=0
note_on channel=0 note=51 velocity=46 time=0
note_on channel=0 note=49 velocity=39 time=0
note_on channel=0 note=46 velocity=39 time=0
control_change channel=0 control=64 value=0 time=22
control_change channel=0 control=64 value=126 time=94
note_on channel=0 note=46 velocity=0 time=112
note_on channel=0 note=51 velocity=0 time=0
note_on channel=0 note=49 velocity=0 time=0
note_on channel=0 note=63 velocity=52 time=12
note_on channel=0 note=67 velocity=52 time=0
note_on channel=0 note=51 velocity=46 time=0
note_on channel=0 note=49 velocity=39 time=0
note_on channel=0 note=46 velocity=39 time=0
<meta message set_tempo tempo=502092 time=224>
note_on channel=0 note=46 velocity=0 time=4
note_on channel=0 note=51 velocity=0 time=0
note_on channel=0 note=67 velocity=0 time=0
note_on channel=0 note=63 velocity=0 time=0
note_on channel=0 note=49 velocity=0 time=0
note_on channel=0 note=63 velocity=52 time=12
note_on channel=0 note=67 velocity=52 time=0
note_on channel=0 note=51 velocity=45 time=0
note_on channel=0 note=49 velocity=45 time=0
note_on channel=0 note=46 velocity=39 time=0
note_on channel=0 note=46 velocity=0 time=228
note_on channel=0 note=51 velocity=0 time=0
note_on channel=0 note=67 velocity=0 time=0
note_on channel=0 note=63 velocity=0 time=0
note_on channel=0 note=49 velocity=0 time=0
note_on channel=0 note=63 velocity=52 time=12
note_on channel=0 note=67 velocity=52 time=0
note_on channel=0 note=51 velocity=45 time=0
note_on channel=0 note=49 velocity=45 time=0
note_on channel=0 note=46 velocity=45 time=0
note_on channel=0 note=46 velocity=0 time=228
note_on channel=0 note=51 velocity=0 time=0
note_on channel=0 note=67 velocity=0 time=0
note_on channel=0 note=63 velocity=0 time=0
note_on channel=0 note=49 velocity=0 time=0
<meta message set_tempo tempo=502092 time=4>
note_on channel=0 note=39 velocity=0 time=8
note_on channel=0 note=75 velocity=0 time=0
note_on channel=0 note=68 velocity=73 time=0
note_on channel=0 note=44 velocity=52 time=0
control_change channel=0 control=64 value=0 time=6
control_change channel=0 control=64 value=127 time=150
<meta message set_tempo tempo=444444 time=84>
note_on channel=0 note=59 velocity=26 time=0
note_on channel=0 note=63 velocity=26 time=0
note_on channel=0 note=51 velocity=26 time=0
note_on channel=0 note=47 velocity=22 time=0
note_on channel=0 note=47 velocity=0 time=228
note_on channel=0 note=63 velocity=0 time=0
note_on channel=0 note=59 velocity=0 time=0
note_on channel=0 note=51 velocity=0 time=0
note_on channel=0 note=59 velocity=26 time=12
note_on channel=0 note=63 velocity=26 time=0
note_on channel=0 note=51 velocity=26 time=0
note_on channel=0 note=47 velocity=22 time=0
note_on channel=0 note=47 velocity=0 time=228
note_on channel=0 note=63 velocity=0 time=0
note_on channel=0 note=59 velocity=0 time=0
note_on channel=0 note=51 velocity=0 time=0
note_on channel=0 note=59 velocity=26 time=12
note_on channel=0 note=63 velocity=26 time=0
note_on channel=0 note=51 velocity=26 time=0
note_on channel=0 note=47 velocity=22 time=0
note_on channel=0 note=47 velocity=0 time=228
note_on channel=0 note=63 velocity=0 time=0
note_on channel=0 note=59 velocity=0 time=0
note_on channel=0 note=51 velocity=0 time=0
note_on channel=0 note=59 velocity=26 time=12
note_on channel=0 note=63 velocity=26 time=0
note_on channel=0 note=51 velocity=26 time=0
note_on channel=0 note=47 velocity=26 time=0
note_on channel=0 note=47 velocity=0 time=228
note_on channel=0 note=63 velocity=0 time=0
note_on channel=0 note=59 velocity=0 time=0
note_on channel=0 note=51 velocity=0 time=0
note_on channel=0 note=59 velocity=26 time=12
note_on channel=0 note=63 velocity=26 time=0
note_on channel=0 note=51 velocity=26 time=0
note_on channel=0 note=47 velocity=22 time=0
note_on channel=0 note=47 velocity=0 time=228
note_on channel=0 note=63 velocity=0 time=0
note_on channel=0 note=59 velocity=0 time=0
note_on channel=0 note=51 velocity=0 time=0
note_on channel=0 note=68 velocity=0 time=12
note_on channel=0 note=44 velocity=0 time=0
note_on channel=0 note=68 velocity=52 time=0
note_on channel=0 note=44 velocity=52 time=0
control_change channel=0 control=64 value=0 time=8
control_change channel=0 control=64 value=127 time=118
note_on channel=0 note=60 velocity=24 time=114
note_on channel=0 note=66 velocity=24 time=0
note_on channel=0 note=63 velocity=24 time=0
note_on channel=0 note=51 velocity=22 time=0
note_on channel=0 note=54 velocity=26 time=0
note_on channel=0 note=54 velocity=0 time=228
note_on channel=0 note=63 velocity=0 time=0
note_on channel=0 note=66 velocity=0 time=0
note_on channel=0 note=60 velocity=0 time=0
note_on channel=0 note=51 velocity=0 time=0
note_on channel=0 note=60 velocity=28 time=12
note_on channel=0 note=63 velocity=28 time=0
note_on channel=0 note=66 velocity=28 time=0
note_on channel=0 note=54 velocity=29 time=0
note_on channel=0 note=51 velocity=24 time=0
note_on channel=0 note=51 velocity=0 time=228
note_on channel=0 note=66 velocity=0 time=0
note_on channel=0 note=63 velocity=0 time=0
note_on channel=0 note=60 velocity=0 time=0
note_on channel=0 note=54 velocity=0 time=0
note_on channel=0 note=60 velocity=35 time=12
note_on channel=0 note=63 velocity=35 time=0
note_on channel=0 note=66 velocity=35 time=0
note_on channel=0 note=54 velocity=35 time=0
note_on channel=0 note=51 velocity=29 time=0
<meta message set_tempo tempo=521739 time=228>
note_on channel=0 note=51 velocity=0 time=0
note_on channel=0 note=66 velocity=0 time=0
note_on channel=0 note=63 velocity=0 time=0
note_on channel=0 note=60 velocity=0 time=0
note_on channel=0 note=54 velocity=0 time=0
note_on channel=0 note=60 velocity=30 time=12
note_on channel=0 note=63 velocity=30 time=0
note_on channel=0 note=66 velocity=30 time=0
note_on channel=0 note=54 velocity=35 time=0
note_on channel=0 note=51 velocity=29 time=0
note_on channel=0 note=51 velocity=0 time=228
note_on channel=0 note=66 velocity=0 time=0
note_on channel=0 note=63 velocity=0 time=0
note_on channel=0 note=60 velocity=0 time=0
note_on channel=0 note=54 velocity=0 time=0
note_on channel=0 note=60 velocity=26 time=12
note_on channel=0 note=63 velocity=26 time=0
note_on channel=0 note=66 velocity=26 time=0
note_on channel=0 note=54 velocity=29 time=0
note_on channel=0 note=51 velocity=24 time=0
note_on channel=0 note=51 velocity=0 time=228
note_on channel=0 note=66 velocity=0 time=0
note_on channel=0 note=63 velocity=0 time=0
note_on channel=0 note=60 velocity=0 time=0
note_on channel=0 note=54 velocity=0 time=0
<meta message set_tempo tempo=458015 time=12>
note_on channel=0 note=68 velocity=0 time=0
note_on channel=0 note=44 velocity=0 time=0
note_on channel=0 note=68 velocity=61 time=0
note_on channel=0 note=37 velocity=42 time=0
control_change channel=0 control=64 value=0 time=5
control_change channel=0 control=91 value=127 time=3
control_change channel=0 control=91 value=127 time=8
control_change channel=0 control=64 value=126 time=168
note_on channel=0 note=37 velocity=0 time=44
note_on channel=0 note=56 velocity=27 time=12
note_on channel=0 note=64 velocity=27 time=0
note_on channel=0 note=52 velocity=26 time=0
note_on channel=0 note=49 velocity=22 time=0
note_on channel=0 note=44 velocity=22 time=0
note_on channel=0 note=44 velocity=0 time=228
note_on channel=0 note=56 velocity=0 time=0
note_on channel=0 note=64 velocity=0 time=0
note_on channel=0 note=52 velocity=0 time=0
note_on channel=0 note=49 velocity=0 time=0
<meta message set_tempo tempo=444444 time=12>
note_on channel=0 note=56 velocity=26 time=0
note_on channel=0 note=64 velocity=26 time=0
note_on channel=0 note=44 velocity=22 time=0
note_on channel=0 note=49 velocity=22 time=0
note_on channel=0 note=52 velocity=26 time=0
note_on channel=0 note=52 velocity=0 time=228
note_on channel=0 note=56 velocity=0 time=0
note_on channel=0 note=64 velocity=0 time=0
note_on channel=0 note=44 velocity=0 time=0
note_on channel=0 note=49 velocity=0 time=0
note_on channel=0 note=56 velocity=26 time=12
note_on channel=0 note=64 velocity=26 time=0
note_on channel=0 note=44 velocity=22 time=0
note_on channel=0 note=49 velocity=22 time=0
note_on channel=0 note=52 velocity=26 time=0
note_on channel=0 note=52 velocity=0 time=228
note_on channel=0 note=56 velocity=0 time=0
note_on channel=0 note=64 velocity=0 time=0
note_on channel=0 note=44 velocity=0 time=0
note_on channel=0 note=49 velocity=0 time=0
note_on channel=0 note=56 velocity=26 time=12
note_on channel=0 note=64 velocity=26 time=0
note_on channel=0 note=44 velocity=22 time=0
note_on channel=0 note=49 velocity=22 time=0
note_on channel=0 note=52 velocity=26 time=0
note_on channel=0 note=52 velocity=0 time=228
note_on channel=0 note=56 velocity=0 time=0
note_on channel=0 note=64 velocity=0 time=0
note_on channel=0 note=44 velocity=0 time=0
note_on channel=0 note=49 velocity=0 time=0
note_on channel=0 note=56 velocity=26 time=12
note_on channel=0 note=64 velocity=26 time=0
note_on channel=0 note=44 velocity=22 time=0
note_on channel=0 note=49 velocity=22 time=0
note_on channel=0 note=52 velocity=26 time=0
note_on channel=0 note=52 velocity=0 time=228
note_on channel=0 note=56 velocity=0 time=0
note_on channel=0 note=64 velocity=0 time=0
note_on channel=0 note=44 velocity=0 time=0
note_on channel=0 note=49 velocity=0 time=0
<meta message set_tempo tempo=428571 time=12>
note_on channel=0 note=68 velocity=0 time=0
note_on channel=0 note=68 velocity=61 time=0
note_on channel=0 note=44 velocity=22 time=0
note_on channel=0 note=49 velocity=22 time=0
note_on channel=0 note=52 velocity=26 time=0
control_change channel=0 control=64 value=0 time=6
control_change channel=0 control=64 value=126 time=150
note_on channel=0 note=52 velocity=0 time=72
note_on channel=0 note=49 velocity=0 time=0
note_on channel=0 note=44 velocity=0 time=0
note_on channel=0 note=56 velocity=26 time=12
note_on channel=0 note=64 velocity=26 time=0
note_on channel=0 note=44 velocity=22 time=0
note_on channel=0 note=49 velocity=22 time=0
note_on channel=0 note=52 velocity=26 time=0
note_on channel=0 note=52 velocity=0 time=228
note_on channel=0 note=56 velocity=0 time=0
note_on channel=0 note=64 velocity=0 time=0
note_on channel=0 note=44 velocity=0 time=0
note_on channel=0 note=49 velocity=0 time=0
note_on channel=0 note=68 velocity=0 time=12
note_on channel=0 note=69 velocity=59 time=0
note_on channel=0 note=44 velocity=22 time=0
note_on channel=0 note=49 velocity=22 time=0
note_on channel=0 note=52 velocity=26 time=0
note_on channel=0 note=52 velocity=0 time=228
note_on channel=0 note=49 velocity=0 time=0
note_on channel=0 note=44 velocity=0 time=0
note_on channel=0 note=57 velocity=27 time=12
note_on channel=0 note=64 velocity=27 time=0
note_on channel=0 note=44 velocity=22 time=0
note_on channel=0 note=49 velocity=22 time=0
note_on channel=0 note=52 velocity=26 time=0
note_on channel=0 note=52 velocity=0 time=228
note_on channel=0 note=57 velocity=0 time=0
note_on channel=0 note=64 velocity=0 time=0
note_on channel=0 note=44 velocity=0 time=0
note_on channel=0 note=49 velocity=0 time=0
note_on channel=0 note=69 velocity=0 time=12
note_on channel=0 note=68 velocity=59 time=0
note_on channel=0 note=44 velocity=22 time=0
note_on channel=0 note=49 velocity=22 time=0
note_on channel=0 note=52 velocity=26 time=0
<meta message set_tempo tempo=497925 time=8>
note_on channel=0 note=52 velocity=0 time=220
note_on channel=0 note=49 velocity=0 time=0
note_on channel=0 note=44 velocity=0 time=0
note_on channel=0 note=56 velocity=26 time=12
note_on channel=0 note=64 velocity=26 time=0
note_on channel=0 note=49 velocity=22 time=0
note_on channel=0 note=44 velocity=22 time=0
note_on channel=0 note=52 velocity=26 time=0
note_on channel=0 note=52 velocity=0 time=228
note_on channel=0 note=56 velocity=0 time=0
note_on channel=0 note=64 velocity=0 time=0
note_on channel=0 note=49 velocity=0 time=0
note_on channel=0 note=44 velocity=0 time=0
<meta message set_tempo tempo=446097 time=4>
note_on channel=0 note=68 velocity=0 time=8
note_on channel=0 note=69 velocity=60 time=0
note_on channel=0 note=36 velocity=41 time=0
control_change channel=0 control=64 value=0 time=8
control_change channel=0 control=64 value=126 time=198
note_on channel=0 note=36 velocity=0 time=22
note_on channel=0 note=57 velocity=26 time=12
note_on channel=0 note=66 velocity=26 time=0
note_on channel=0 note=51 velocity=22 time=0
note_on channel=0 note=54 velocity=26 time=0
note_on channel=0 note=44 velocity=22 time=0
note_on channel=0 note=44 velocity=0 time=228
note_on channel=0 note=57 velocity=0 time=0
note_on channel=0 note=66 velocity=0 time=0
note_on channel=0 note=51 velocity=0 time=0
note_on channel=0 note=54 velocity=0 time=0
note_on channel=0 note=57 velocity=26 time=12
note_on channel=0 note=66 velocity=26 time=0
note_on channel=0 note=44 velocity=22 time=0
note_on channel=0 note=51 velocity=22 time=0
note_on channel=0 note=54 velocity=26 time=0
note_on channel=0 note=54 velocity=0 time=228
note_on channel=0 note=57 velocity=0 time=0
note_on channel=0 note=66 velocity=0 time=0
note_on channel=0 note=44 velocity=0 time=0
note_on channel=0 note=51 velocity=0 time=0
note_on channel=0 note=57 velocity=26 time=12
note_on channel=0 note=66 velocity=26 time=0
note_on channel=0 note=44 velocity=22 time=0
note_on channel=0 note=51 velocity=22 time=0
note_on channel=0 note=54 velocity=26 time=0
note_on channel=0 note=54 velocity=0 time=228
note_on channel=0 note=57 velocity=0 time=0
note_on channel=0 note=66 velocity=0 time=0
note_on channel=0 note=44 velocity=0 time=0
note_on channel=0 note=51 velocity=0 time=0
note_on channel=0 note=57 velocity=26 time=12
note_on channel=0 note=66 velocity=26 time=0
note_on channel=0 note=44 velocity=22 time=0
note_on channel=0 note=51 velocity=22 time=0
note_on channel=0 note=54 velocity=26 time=0
note_on channel=0 note=54 velocity=0 time=228
note_on channel=0 note=57 velocity=0 time=0
note_on channel=0 note=66 velocity=0 time=0
note_on channel=0 note=44 velocity=0 time=0
note_on channel=0 note=51 velocity=0 time=0
note_on channel=0 note=57 velocity=26 time=12
note_on channel=0 note=66 velocity=26 time=0
note_on channel=0 note=44 velocity=22 time=0
note_on channel=0 note=51 velocity=22 time=0
note_on channel=0 note=54 velocity=26 time=0
note_on channel=0 note=54 velocity=0 time=228
note_on channel=0 note=57 velocity=0 time=0
note_on channel=0 note=66 velocity=0 time=0
note_on channel=0 note=44 velocity=0 time=0
note_on channel=0 note=51 velocity=0 time=0
note_on channel=0 note=69 velocity=0 time=12
note_on channel=0 note=68 velocity=59 time=0
note_on channel=0 note=44 velocity=22 time=0
note_on channel=0 note=51 velocity=22 time=0
note_on channel=0 note=54 velocity=26 time=0
control_change channel=0 control=64 value=0 time=5
control_change channel=0 control=64 value=126 time=179
note_on channel=0 note=54 velocity=0 time=44
note_on channel=0 note=51 velocity=0 time=0
note_on channel=0 note=44 velocity=0 time=0
note_on channel=0 note=56 velocity=28 time=12
note_on channel=0 note=66 velocity=28 time=0
note_on channel=0 note=44 velocity=22 time=0
note_on channel=0 note=51 velocity=22 time=0
note_on channel=0 note=54 velocity=26 time=0
note_on channel=0 note=54 velocity=0 time=228
note_on channel=0 note=56 velocity=0 time=0
note_on channel=0 note=66 velocity=0 time=0
note_on channel=0 note=44 velocity=0 time=0
note_on channel=0 note=51 velocity=0 time=0
note_on channel=0 note=56 velocity=29 time=12
note_on channel=0 note=66 velocity=29 time=0
note_on channel=0 note=44 velocity=22 time=0
note_on channel=0 note=51 velocity=22 time=0
note_on channel=0 note=54 velocity=26 time=0
note_on channel=0 note=54 velocity=0 time=228
note_on channel=0 note=56 velocity=0 time=0
note_on channel=0 note=66 velocity=0 time=0
note_on channel=0 note=44 velocity=0 time=0
note_on channel=0 note=51 velocity=0 time=0
note_on channel=0 note=56 velocity=29 time=12
note_on channel=0 note=66 velocity=29 time=0
note_on channel=0 note=44 velocity=22 time=0
note_on channel=0 note=51 velocity=22 time=0
note_on channel=0 note=54 velocity=26 time=0
note_on channel=0 note=54 velocity=0 time=228
note_on channel=0 note=56 velocity=0 time=0
note_on channel=0 note=66 velocity=0 time=0
note_on channel=0 note=44 velocity=0 time=0
note_on channel=0 note=51 velocity=0 time=0
note_on channel=0 note=56 velocity=29 time=12
note_on channel=0 note=66 velocity=29 time=0
note_on channel=0 note=51 velocity=22 time=0
note_on channel=0 note=44 velocity=22 time=0
note_on channel=0 note=54 velocity=26 time=0
note_on channel=0 note=54 velocity=0 time=228
note_on channel=0 note=56 velocity=0 time=0
note_on channel=0 note=66 velocity=0 time=0
note_on channel=0 note=51 velocity=0 time=0
note_on channel=0 note=44 velocity=0 time=0
note_on channel=0 note=56 velocity=29 time=12
note_on channel=0 note=66 velocity=29 time=0
note_on channel=0 note=44 velocity=22 time=0
note_on channel=0 note=51 velocity=22 time=0
note_on channel=0 note=54 velocity=26 time=0
note_on channel=0 note=54 velocity=0 time=228
note_on channel=0 note=56 velocity=0 time=0
note_on channel=0 note=66 velocity=0 time=0
note_on channel=0 note=44 velocity=0 time=0
note_on channel=0 note=51 velocity=0 time=0
note_on channel=0 note=68 velocity=0 time=12
note_on channel=0 note=68 velocity=60 time=0
note_on channel=0 note=37 velocity=40 time=0
control_change channel=0 control=64 value=0 time=4
control_change channel=0 control=64 value=126 time=208
note_on channel=0 note=37 velocity=0 time=16
note_on channel=0 note=56 velocity=26 time=12
note_on channel=0 note=64 velocity=26 time=0
note_on channel=0 note=52 velocity=26 time=0
note_on channel=0 note=49 velocity=22 time=0
note_on channel=0 note=44 velocity=22 time=0
note_on channel=0 note=44 velocity=0 time=228
note_on channel=0 note=56 velocity=0 time=0
note_on channel=0 note=64 velocity=0 time=0
note_on channel=0 note=52 velocity=0 time=0
note_on channel=0 note=49 velocity=0 time=0
note_on channel=0 note=56 velocity=26 time=12
note_on channel=0 note=64 velocity=26 time=0
note_on channel=0 note=44 velocity=22 time=0
note_on channel=0 note=49 velocity=22 time=0
note_on channel=0 note=52 velocity=26 time=0
note_on channel=0 note=52 velocity=0 time=228
note_on channel=0 note=56 velocity=0 time=0
note_on channel=0 note=64 velocity=0 time=0
note_on channel=0 note=44 velocity=0 time=0
note_on channel=0 note=49 velocity=0 time=0
note_on channel=0 note=56 velocity=26 time=12
note_on channel=0 note=64 velocity=26 time=0
note_on channel=0 note=44 velocity=22 time=0
note_on channel=0 note=49 velocity=22 time=0
note_on channel=0 note=52 velocity=26 time=0
note_on channel=0 note=52 velocity=0 time=228
note_on channel=0 note=56 velocity=0 time=0
note_on channel=0 note=64 velocity=0 time=0
note_on channel=0 note=44 velocity=0 time=0
note_on channel=0 note=49 velocity=0 time=0
note_on channel=0 note=56 velocity=26 time=12
note_on channel=0 note=64 velocity=26 time=0
note_on channel=0 note=44 velocity=22 time=0
note_on channel=0 note=49 velocity=22 time=0
note_on channel=0 note=52 velocity=26 time=0
note_on channel=0 note=52 velocity=0 time=228
note_on channel=0 note=56 velocity=0 time=0
note_on channel=0 note=64 velocity=0 time=0
note_on channel=0 note=44 velocity=0 time=0
note_on channel=0 note=49 velocity=0 time=0
note_on channel=0 note=56 velocity=27 time=12
note_on channel=0 note=64 velocity=27 time=0
note_on channel=0 note=44 velocity=22 time=0
note_on channel=0 note=49 velocity=22 time=0
note_on channel=0 note=52 velocity=26 time=0
note_on channel=0 note=52 velocity=0 time=228
note_on channel=0 note=56 velocity=0 time=0
note_on channel=0 note=64 velocity=0 time=0
note_on channel=0 note=44 velocity=0 time=0
note_on channel=0 note=49 velocity=0 time=0
note_on channel=0 note=68 velocity=0 time=12
note_on channel=0 note=76 velocity=70 time=0
note_on channel=0 note=44 velocity=22 time=0
note_on channel=0 note=49 velocity=22 time=0
note_on channel=0 note=52 velocity=26 time=0
control_change channel=0 control=64 value=1 time=6
<meta message set_tempo tempo=428571 time=2>
control_change channel=0 control=64 value=126 time=119
note_on channel=0 note=52 velocity=0 time=101
note_on channel=0 note=49 velocity=0 time=0
note_on channel=0 note=44 velocity=0 time=0
note_on channel=0 note=64 velocity=28 time=12
note_on channel=0 note=68 velocity=28 time=0
note_on channel=0 note=44 velocity=22 time=0
note_on channel=0 note=49 velocity=22 time=0
note_on channel=0 note=52 velocity=26 time=0
note_on channel=0 note=52 velocity=0 time=228
note_on channel=0 note=64 velocity=0 time=0
note_on channel=0 note=68 velocity=0 time=0
note_on channel=0 note=44 velocity=0 time=0
note_on channel=0 note=49 velocity=0 time=0
note_on channel=0 note=76 velocity=0 time=12
note_on channel=0 note=75 velocity=64 time=0
note_on channel=0 note=44 velocity=22 time=0
note_on channel=0 note=49 velocity=22 time=0
note_on channel=0 note=52 velocity=26 time=0
note_on channel=0 note=52 velocity=0 time=228
note_on channel=0 note=49 velocity=0 time=0
note_on channel=0 note=44 velocity=0 time=0
note_on channel=0 note=63 velocity=27 time=12
note_on channel=0 note=68 velocity=27 time=0
note_on channel=0 note=44 velocity=22 time=0
note_on channel=0 note=49 velocity=22 time=0
note_on channel=0 note=52 velocity=26 time=0
note_on channel=0 note=52 velocity=0 time=228
note_on channel=0 note=63 velocity=0 time=0
note_on channel=0 note=68 velocity=0 time=0
note_on channel=0 note=44 velocity=0 time=0
note_on channel=0 note=49 velocity=0 time=0
note_on channel=0 note=75 velocity=0 time=12
note_on channel=0 note=73 velocity=60 time=0
note_on channel=0 note=44 velocity=22 time=0
note_on channel=0 note=49 velocity=22 time=0
note_on channel=0 note=52 velocity=26 time=0
<meta message set_tempo tempo=524017 time=8>
note_on channel=0 note=52 velocity=0 time=220
note_on channel=0 note=49 velocity=0 time=0
note_on channel=0 note=44 velocity=0 time=0
note_on channel=0 note=61 velocity=27 time=12
note_on channel=0 note=68 velocity=27 time=0
note_on channel=0 note=49 velocity=22 time=0
note_on channel=0 note=44 velocity=22 time=0
note_on channel=0 note=52 velocity=26 time=0
note_on channel=0 note=52 velocity=0 time=228
note_on channel=0 note=61 velocity=0 time=0
note_on channel=0 note=68 velocity=0 time=0
note_on channel=0 note=49 velocity=0 time=0
note_on channel=0 note=44 velocity=0 time=0
note_on channel=0 note=73 velocity=0 time=12
note_on channel=0 note=73 velocity=60 time=0
note_on channel=0 note=39 velocity=39 time=0
control_change channel=0 control=64 value=0 time=5
<meta message set_tempo tempo=444444 time=3>
control_change channel=0 control=64 value=126 time=190
note_on channel=0 note=39 velocity=0 time=30
note_on channel=0 note=61 velocity=27 time=12
note_on channel=0 note=68 velocity=27 time=0
note_on channel=0 note=51 velocity=22 time=0
note_on channel=0 note=54 velocity=26 time=0
note_on channel=0 note=44 velocity=22 time=0
note_on channel=0 note=44 velocity=0 time=228
note_on channel=0 note=61 velocity=0 time=0
note_on channel=0 note=68 velocity=0 time=0
note_on channel=0 note=51 velocity=0 time=0
note_on channel=0 note=54 velocity=0 time=0
note_on channel=0 note=61 velocity=27 time=12
note_on channel=0 note=68 velocity=27 time=0
note_on channel=0 note=44 velocity=22 time=0
note_on channel=0 note=51 velocity=22 time=0
note_on channel=0 note=54 velocity=26 time=0
note_on channel=0 note=54 velocity=0 time=228
note_on channel=0 note=61 velocity=0 time=0
note_on channel=0 note=68 velocity=0 time=0
note_on channel=0 note=44 velocity=0 time=0
note_on channel=0 note=51 velocity=0 time=0
note_on channel=0 note=61 velocity=27 time=12
note_on channel=0 note=68 velocity=27 time=0
note_on channel=0 note=44 velocity=22 time=0
note_on channel=0 note=51 velocity=22 time=0
note_on channel=0 note=54 velocity=26 time=0
note_on channel=0 note=54 velocity=0 time=228
note_on channel=0 note=61 velocity=0 time=0
note_on channel=0 note=68 velocity=0 time=0
note_on channel=0 note=44 velocity=0 time=0
note_on channel=0 note=51 velocity=0 time=0
note_on channel=0 note=61 velocity=27 time=12
note_on channel=0 note=68 velocity=27 time=0
note_on channel=0 note=44 velocity=22 time=0
note_on channel=0 note=51 velocity=22 time=0
note_on channel=0 note=54 velocity=26 time=0
note_on channel=0 note=54 velocity=0 time=228
note_on channel=0 note=61 velocity=0 time=0
note_on channel=0 note=68 velocity=0 time=0
note_on channel=0 note=44 velocity=0 time=0
note_on channel=0 note=51 velocity=0 time=0
note_on channel=0 note=61 velocity=27 time=12
note_on channel=0 note=68 velocity=27 time=0
note_on channel=0 note=44 velocity=22 time=0
note_on channel=0 note=51 velocity=22 time=0
note_on channel=0 note=54 velocity=26 time=0
note_on channel=0 note=54 velocity=0 time=228
note_on channel=0 note=61 velocity=0 time=0
note_on channel=0 note=68 velocity=0 time=0
note_on channel=0 note=44 velocity=0 time=0
note_on channel=0 note=51 velocity=0 time=0
note_on channel=0 note=73 velocity=0 time=12
note_on channel=0 note=72 velocity=61 time=0
note_on channel=0 note=44 velocity=22 time=0
note_on channel=0 note=51 velocity=22 time=0
note_on channel=0 note=54 velocity=26 time=0
control_change channel=0 control=64 value=0 time=6
control_change channel=0 control=64 value=126 time=154
note_on channel=0 note=54 velocity=0 time=68
note_on channel=0 note=51 velocity=0 time=0
note_on channel=0 note=44 velocity=0 time=0
note_on channel=0 note=60 velocity=27 time=12
note_on channel=0 note=68 velocity=27 time=0
note_on channel=0 note=44 velocity=22 time=0
note_on channel=0 note=51 velocity=22 time=0
note_on channel=0 note=54 velocity=26 time=0
note_on channel=0 note=54 velocity=0 time=228
note_on channel=0 note=60 velocity=0 time=0
note_on channel=0 note=68 velocity=0 time=0
note_on channel=0 note=44 velocity=0 time=0
note_on channel=0 note=51 velocity=0 time=0
note_on channel=0 note=60 velocity=27 time=12
note_on channel=0 note=68 velocity=27 time=0
note_on channel=0 note=44 velocity=22 time=0
note_on channel=0 note=51 velocity=22 time=0
note_on channel=0 note=54 velocity=26 time=0
note_on channel=0 note=54 velocity=0 time=228
note_on channel=0 note=60 velocity=0 time=0
note_on channel=0 note=68 velocity=0 time=0
note_on channel=0 note=44 velocity=0 time=0
note_on channel=0 note=51 velocity=0 time=0
note_on channel=0 note=60 velocity=27 time=12
note_on channel=0 note=68 velocity=27 time=0
note_on channel=0 note=44 velocity=22 time=0
note_on channel=0 note=51 velocity=22 time=0
note_on channel=0 note=54 velocity=26 time=0
note_on channel=0 note=54 velocity=0 time=228
note_on channel=0 note=60 velocity=0 time=0
note_on channel=0 note=68 velocity=0 time=0
note_on channel=0 note=44 velocity=0 time=0
note_on channel=0 note=51 velocity=0 time=0
note_on channel=0 note=60 velocity=27 time=12
note_on channel=0 note=68 velocity=27 time=0
note_on channel=0 note=51 velocity=22 time=0
note_on channel=0 note=44 velocity=22 time=0
note_on channel=0 note=54 velocity=26 time=0
note_on channel=0 note=54 velocity=0 time=228
note_on channel=0 note=60 velocity=0 time=0
note_on channel=0 note=68 velocity=0 time=0
note_on channel=0 note=51 velocity=0 time=0
note_on channel=0 note=44 velocity=0 time=0
note_on channel=0 note=60 velocity=27 time=12
note_on channel=0 note=68 velocity=27 time=0
note_on channel=0 note=44 velocity=22 time=0
note_on channel=0 note=51 velocity=22 time=0
note_on channel=0 note=54 velocity=26 time=0
note_on channel=0 note=54 velocity=0 time=228
note_on channel=0 note=60 velocity=0 time=0
note_on channel=0 note=68 velocity=0 time=0
note_on channel=0 note=44 velocity=0 time=0
note_on channel=0 note=51 velocity=0 time=0
<meta message set_tempo tempo=481928 time=4>
note_on channel=0 note=72 velocity=0 time=8
note_on channel=0 note=72 velocity=58 time=0
note_on channel=0 note=40 velocity=42 time=0
control_change channel=0 control=64 value=0 time=5
control_change channel=0 control=64 value=124 time=110
note_on channel=0 note=40 velocity=0 time=113
note_on channel=0 note=60 velocity=35 time=12
note_on channel=0 note=69 velocity=35 time=0
note_on channel=0 note=52 velocity=35 time=0
note_on channel=0 note=45 velocity=29 time=0
note_on channel=0 note=45 velocity=0 time=228
note_on channel=0 note=52 velocity=0 time=0
<meta message set_tempo tempo=430108 time=4>
note_on channel=0 note=72 velocity=0 time=8
note_on channel=0 note=60 velocity=0 time=0
note_on channel=0 note=69 velocity=0 time=0
note_on channel=0 note=73 velocity=68 time=0
note_on channel=0 note=45 velocity=29 time=0
note_on channel=0 note=52 velocity=35 time=0
control_change channel=0 control=64 value=0 time=12
control_change channel=0 control=64 value=126 time=183
note_on channel=0 note=52 velocity=0 time=33
note_on channel=0 note=45 velocity=0 time=0
note_on channel=0 note=61 velocity=35 time=12
note_on channel=0 note=69 velocity=35 time=0
note_on channel=0 note=45 velocity=29 time=0
note_on channel=0 note=52 velocity=35 time=0
note_on channel=0 note=52 velocity=0 time=228
note_on channel=0 note=69 velocity=0 time=0
note_on channel=0 note=45 velocity=0 time=0
note_on channel=0 note=61 velocity=0 time=0
note_on channel=0 note=61 velocity=35 time=12
note_on channel=0 note=69 velocity=35 time=0
note_on channel=0 note=45 velocity=29 time=0
note_on channel=0 note=52 velocity=35 time=0
note_on channel=0 note=52 velocity=0 time=228
note_on channel=0 note=69 velocity=0 time=0
note_on channel=0 note=45 velocity=0 time=0
note_on channel=0 note=61 velocity=0 time=0
note_on channel=0 note=61 velocity=35 time=12
note_on channel=0 note=69 velocity=35 time=0
note_on channel=0 note=45 velocity=29 time=0
note_on channel=0 note=52 velocity=35 time=0
note_on channel=0 note=52 velocity=0 time=228
note_on channel=0 note=69 velocity=0 time=0
note_on channel=0 note=45 velocity=0 time=0
note_on channel=0 note=61 velocity=0 time=0
note_on channel=0 note=61 velocity=35 time=12
note_on channel=0 note=69 velocity=35 time=0
note_on channel=0 note=52 velocity=35 time=0
note_on channel=0 note=45 velocity=29 time=0
note_on channel=0 note=45 velocity=0 time=240
note_on channel=0 note=69 velocity=0 time=0
note_on channel=0 note=52 velocity=0 time=0
note_on channel=0 note=61 velocity=0 time=0
note_on channel=0 note=61 velocity=35 time=0
note_on channel=0 note=69 velocity=35 time=0
note_on channel=0 note=45 velocity=29 time=0
note_on channel=0 note=52 velocity=35 time=0
note_on channel=0 note=52 velocity=0 time=240
note_on channel=0 note=69 velocity=0 time=0
note_on channel=0 note=73 velocity=0 time=0
note_on channel=0 note=61 velocity=0 time=0
note_on channel=0 note=45 velocity=0 time=0
note_on channel=0 note=73 velocity=70 time=0
note_on channel=0 note=40 velocity=35 time=0
note_on channel=0 note=61 velocity=35 time=240
note_on channel=0 note=69 velocity=35 time=0
note_on channel=0 note=52 velocity=35 time=0
note_on channel=0 note=45 velocity=29 time=0
note_on channel=0 note=45 velocity=0 time=240
note_on channel=0 note=40 velocity=0 time=0
note_on channel=0 note=61 velocity=0 time=0
note_on channel=0 note=73 velocity=0 time=0
note_on channel=0 note=52 velocity=0 time=0
note_on channel=0 note=69 velocity=0 time=0
note_on channel=0 note=73 velocity=69 time=0
note_on channel=0 note=40 velocity=35 time=0
note_on channel=0 note=61 velocity=35 time=240
note_on channel=0 note=69 velocity=35 time=0
note_on channel=0 note=52 velocity=35 time=0
note_on channel=0 note=45 velocity=29 time=0
<meta message set_tempo tempo=480000 time=232>
note_on channel=0 note=45 velocity=0 time=8
note_on channel=0 note=40 velocity=0 time=0
note_on channel=0 note=61 velocity=0 time=0
note_on channel=0 note=73 velocity=0 time=0
note_on channel=0 note=52 velocity=0 time=0
note_on channel=0 note=69 velocity=0 time=0
note_on channel=0 note=73 velocity=70 time=0
note_on channel=0 note=35 velocity=52 time=0
control_change channel=0 control=64 value=0 time=3
control_change channel=0 control=64 value=126 time=146
note_on channel=0 note=35 velocity=0 time=79
note_on channel=0 note=61 velocity=44 time=12
note_on channel=0 note=68 velocity=44 time=0
note_on channel=0 note=47 velocity=44 time=0
note_on channel=0 note=40 velocity=37 time=0
note_on channel=0 note=40 velocity=0 time=228
note_on channel=0 note=68 velocity=0 time=0
note_on channel=0 note=47 velocity=0 time=0
note_on channel=0 note=61 velocity=0 time=0
<meta message set_tempo tempo=431655 time=12>
note_on channel=0 note=73 velocity=0 time=0
note_on channel=0 note=74 velocity=78 time=0
note_on channel=0 note=40 velocity=37 time=0
note_on channel=0 note=47 velocity=44 time=0
control_change channel=0 control=64 value=0 time=5
control_change channel=0 control=64 value=126 time=155
note_on channel=0 note=47 velocity=0 time=68
note_on channel=0 note=40 velocity=0 time=0
note_on channel=0 note=62 velocity=44 time=12
note_on channel=0 note=68 velocity=44 time=0
note_on channel=0 note=40 velocity=37 time=0
note_on channel=0 note=47 velocity=44 time=0
note_on channel=0 note=47 velocity=0 time=228
note_on channel=0 note=68 velocity=0 time=0
note_on channel=0 note=40 velocity=0 time=0
note_on channel=0 note=62 velocity=0 time=0
note_on channel=0 note=62 velocity=44 time=12
note_on channel=0 note=68 velocity=44 time=0
note_on channel=0 note=47 velocity=44 time=0
note_on channel=0 note=40 velocity=37 time=0
note_on channel=0 note=40 velocity=0 time=228
note_on channel=0 note=68 velocity=0 time=0
note_on channel=0 note=47 velocity=0 time=0
note_on channel=0 note=62 velocity=0 time=0
note_on channel=0 note=62 velocity=44 time=12
note_on channel=0 note=68 velocity=44 time=0
note_on channel=0 note=40 velocity=37 time=0
note_on channel=0 note=47 velocity=44 time=0
note_on channel=0 note=47 velocity=0 time=228
note_on channel=0 note=68 velocity=0 time=0
note_on channel=0 note=40 velocity=0 time=0
note_on channel=0 note=62 velocity=0 time=0
note_on channel=0 note=62 velocity=44 time=12
note_on channel=0 note=68 velocity=44 time=0
note_on channel=0 note=40 velocity=37 time=0
note_on channel=0 note=47 velocity=44 time=0
note_on channel=0 note=47 velocity=0 time=228
note_on channel=0 note=68 velocity=0 time=0
note_on channel=0 note=40 velocity=0 time=0
note_on channel=0 note=62 velocity=0 time=0
note_on channel=0 note=62 velocity=44 time=12
note_on channel=0 note=68 velocity=44 time=0
note_on channel=0 note=40 velocity=37 time=0
note_on channel=0 note=47 velocity=44 time=0
note_on channel=0 note=47 velocity=0 time=228
note_on channel=0 note=68 velocity=0 time=0
note_on channel=0 note=40 velocity=0 time=0
note_on channel=0 note=62 velocity=0 time=0
note_on channel=0 note=74 velocity=0 time=12
note_on channel=0 note=74 velocity=80 time=0
note_on channel=0 note=35 velocity=44 time=0
control_change channel=0 control=64 value=0 time=4
control_change channel=0 control=64 value=126 time=202
note_on channel=0 note=62 velocity=44 time=34
note_on channel=0 note=68 velocity=44 time=0
note_on channel=0 note=40 velocity=37 time=0
note_on channel=0 note=47 velocity=44 time=0
note_on channel=0 note=47 velocity=0 time=240
note_on channel=0 note=35 velocity=0 time=0
note_on channel=0 note=62 velocity=0 time=0
note_on channel=0 note=74 velocity=0 time=0
note_on channel=0 note=40 velocity=0 time=0
note_on channel=0 note=68 velocity=0 time=0
note_on channel=0 note=74 velocity=75 time=0
note_on channel=0 note=40 velocity=44 time=0
note_on channel=0 note=62 velocity=44 time=240
note_on channel=0 note=68 velocity=44 time=0
note_on channel=0 note=52 velocity=44 time=0
note_on channel=0 note=47 velocity=44 time=0
<meta message set_tempo tempo=478088 time=232>
note_on channel=0 note=47 velocity=0 time=8
note_on channel=0 note=40 velocity=0 time=0
note_on channel=0 note=62 velocity=0 time=0
note_on channel=0 note=74 velocity=0 time=0
note_on channel=0 note=52 velocity=0 time=0
note_on channel=0 note=68 velocity=0 time=0
note_on channel=0 note=76 velocity=88 time=0
note_on channel=0 note=39 velocity=61 time=0
control_change channel=0 control=64 value=0 time=7
control_change channel=0 control=64 value=126 time=163
note_on channel=0 note=64 velocity=51 time=70
note_on channel=0 note=68 velocity=51 time=0
note_on channel=0 note=51 velocity=45 time=0
note_on channel=0 note=47 velocity=39 time=0
note_on channel=0 note=47 velocity=0 time=228
note_on channel=0 note=68 velocity=0 time=0
note_on channel=0 note=64 velocity=0 time=0
note_on channel=0 note=51 velocity=0 time=0
<meta message set_tempo tempo=428571 time=4>
note_on channel=0 note=76 velocity=0 time=8
note_on channel=0 note=75 velocity=83 time=0
note_on channel=0 note=47 velocity=39 time=0
note_on channel=0 note=51 velocity=45 time=0
note_on channel=0 note=51 velocity=0 time=228
note_on channel=0 note=47 velocity=0 time=0
note_on channel=0 note=63 velocity=51 time=12
note_on channel=0 note=68 velocity=51 time=0
note_on channel=0 note=47 velocity=39 time=0
note_on channel=0 note=51 velocity=46 time=0
note_on channel=0 note=51 velocity=0 time=228
note_on channel=0 note=68 velocity=0 time=0
note_on channel=0 note=63 velocity=0 time=0
note_on channel=0 note=47 velocity=0 time=0
note_on channel=0 note=63 velocity=44 time=12
note_on channel=0 note=68 velocity=44 time=0
note_on channel=0 note=47 velocity=39 time=0
note_on channel=0 note=51 velocity=46 time=0
note_on channel=0 note=51 velocity=0 time=228
note_on channel=0 note=68 velocity=0 time=0
note_on channel=0 note=63 velocity=0 time=0
note_on channel=0 note=47 velocity=0 time=0
note_on channel=0 note=63 velocity=51 time=12
note_on channel=0 note=68 velocity=51 time=0
note_on channel=0 note=47 velocity=39 time=0
note_on channel=0 note=51 velocity=46 time=0
note_on channel=0 note=68 velocity=0 time=228
note_on channel=0 note=63 velocity=0 time=0
<meta message set_tempo tempo=446097 time=4>
note_on channel=0 note=47 velocity=0 time=8
note_on channel=0 note=39 velocity=0 time=0
note_on channel=0 note=51 velocity=0 time=0
note_on channel=0 note=75 velocity=0 time=0
note_on channel=0 note=76 velocity=88 time=0
note_on channel=0 note=39 velocity=61 time=0
control_change channel=0 control=64 value=0 time=5
control_change channel=0 control=64 value=126 time=111
note_on channel=0 note=64 velocity=52 time=124
note_on channel=0 note=67 velocity=52 time=0
note_on channel=0 note=49 velocity=39 time=0
note_on channel=0 note=51 velocity=46 time=0
note_on channel=0 note=46 velocity=39 time=0
note_on channel=0 note=46 velocity=0 time=228
note_on channel=0 note=49 velocity=0 time=0
note_on channel=0 note=67 velocity=0 time=0
note_on channel=0 note=64 velocity=0 time=0
note_on channel=0 note=51 velocity=0 time=0
<meta message set_tempo tempo=428571 time=12>
note_on channel=0 note=76 velocity=0 time=0
note_on channel=0 note=75 velocity=83 time=0
note_on channel=0 note=51 velocity=46 time=0
note_on channel=0 note=49 velocity=39 time=0
note_on channel=0 note=46 velocity=39 time=0
control_change channel=0 control=64 value=0 time=14
control_change channel=0 control=64 value=127 time=102
note_on channel=0 note=46 velocity=0 time=112
note_on channel=0 note=51 velocity=0 time=0
note_on channel=0 note=49 velocity=0 time=0
note_on channel=0 note=63 velocity=52 time=12
note_on channel=0 note=67 velocity=52 time=0
note_on channel=0 note=51 velocity=46 time=0
note_on channel=0 note=49 velocity=39 time=0
note_on channel=0 note=46 velocity=39 time=0
<meta message set_tempo tempo=502092 time=224>
note_on channel=0 note=46 velocity=0 time=4
note_on channel=0 note=51 velocity=0 time=0
note_on channel=0 note=67 velocity=0 time=0
note_on channel=0 note=63 velocity=0 time=0
note_on channel=0 note=49 velocity=0 time=0
note_on channel=0 note=63 velocity=52 time=12
note_on channel=0 note=67 velocity=52 time=0
note_on channel=0 note=51 velocity=45 time=0
note_on channel=0 note=49 velocity=39 time=0
note_on channel=0 note=46 velocity=39 time=0
note_on channel=0 note=46 velocity=0 time=228
note_on channel=0 note=51 velocity=0 time=0
note_on channel=0 note=67 velocity=0 time=0
note_on channel=0 note=63 velocity=0 time=0
note_on channel=0 note=49 velocity=0 time=0
note_on channel=0 note=63 velocity=52 time=12
note_on channel=0 note=67 velocity=52 time=0
note_on channel=0 note=51 velocity=45 time=0
note_on channel=0 note=49 velocity=39 time=0
note_on channel=0 note=46 velocity=39 time=0
note_on channel=0 note=46 velocity=0 time=228
note_on channel=0 note=51 velocity=0 time=0
note_on channel=0 note=67 velocity=0 time=0
note_on channel=0 note=63 velocity=0 time=0
note_on channel=0 note=49 velocity=0 time=0
<meta message set_tempo tempo=502092 time=4>
note_on channel=0 note=39 velocity=0 time=8
note_on channel=0 note=75 velocity=0 time=0
note_on channel=0 note=68 velocity=70 time=0
note_on channel=0 note=44 velocity=52 time=0
control_change channel=0 control=64 value=0 time=3
control_change channel=0 control=64 value=127 time=223
<meta message set_tempo tempo=444444 time=14>
note_on channel=0 note=59 velocity=26 time=0
note_on channel=0 note=63 velocity=26 time=0
note_on channel=0 note=56 velocity=26 time=0
note_on channel=0 note=51 velocity=22 time=0
note_on channel=0 note=51 velocity=0 time=228
note_on channel=0 note=63 velocity=0 time=0
note_on channel=0 note=59 velocity=0 time=0
note_on channel=0 note=56 velocity=0 time=0
note_on channel=0 note=59 velocity=26 time=12
note_on channel=0 note=63 velocity=26 time=0
note_on channel=0 note=56 velocity=26 time=0
note_on channel=0 note=51 velocity=22 time=0
note_on channel=0 note=51 velocity=0 time=228
note_on channel=0 note=63 velocity=0 time=0
note_on channel=0 note=59 velocity=0 time=0
note_on channel=0 note=56 velocity=0 time=0
note_on channel=0 note=59 velocity=26 time=12
note_on channel=0 note=63 velocity=26 time=0
note_on channel=0 note=56 velocity=26 time=0
note_on channel=0 note=51 velocity=22 time=0
note_on channel=0 note=51 velocity=0 time=228
note_on channel=0 note=63 velocity=0 time=0
note_on channel=0 note=59 velocity=0 time=0
note_on channel=0 note=56 velocity=0 time=0
note_on channel=0 note=59 velocity=26 time=12
note_on channel=0 note=63 velocity=26 time=0
note_on channel=0 note=56 velocity=26 time=0
note_on channel=0 note=51 velocity=22 time=0
note_on channel=0 note=51 velocity=0 time=228
note_on channel=0 note=63 velocity=0 time=0
note_on channel=0 note=59 velocity=0 time=0
note_on channel=0 note=56 velocity=0 time=0
note_on channel=0 note=59 velocity=26 time=12
note_on channel=0 note=63 velocity=26 time=0
note_on channel=0 note=56 velocity=26 time=0
note_on channel=0 note=51 velocity=22 time=0
note_on channel=0 note=51 velocity=0 time=228
note_on channel=0 note=63 velocity=0 time=0
note_on channel=0 note=59 velocity=0 time=0
note_on channel=0 note=56 velocity=0 time=0
note_on channel=0 note=59 velocity=26 time=12
note_on channel=0 note=63 velocity=26 time=0
note_on channel=0 note=51 velocity=22 time=0
note_on channel=0 note=56 velocity=26 time=0
note_on channel=0 note=56 velocity=0 time=228
note_on channel=0 note=63 velocity=0 time=0
note_on channel=0 note=59 velocity=0 time=0
note_on channel=0 note=51 velocity=0 time=0
note_on channel=0 note=59 velocity=26 time=12
note_on channel=0 note=63 velocity=26 time=0
note_on channel=0 note=51 velocity=22 time=0
note_on channel=0 note=56 velocity=26 time=0
note_on channel=0 note=56 velocity=0 time=228
note_on channel=0 note=63 velocity=0 time=0
note_on channel=0 note=59 velocity=0 time=0
note_on channel=0 note=51 velocity=0 time=0
note_on channel=0 note=68 velocity=0 time=12
note_on channel=0 note=44 velocity=0 time=0
note_on channel=0 note=68 velocity=48 time=0
note_on channel=0 note=44 velocity=26 time=0
note_on channel=0 note=59 velocity=26 time=240
note_on channel=0 note=63 velocity=26 time=0
note_on channel=0 note=51 velocity=22 time=0
note_on channel=0 note=56 velocity=26 time=0
<meta message set_tempo tempo=547945 time=228>
note_on channel=0 note=56 velocity=0 time=12
note_on channel=0 note=44 velocity=0 time=0
note_on channel=0 note=59 velocity=0 time=0
note_on channel=0 note=68 velocity=0 time=0
note_on channel=0 note=51 velocity=0 time=0
note_on channel=0 note=63 velocity=0 time=0
note_on channel=0 note=68 velocity=42 time=0
note_on channel=0 note=44 velocity=26 time=0
note_on channel=0 note=59 velocity=26 time=240
note_on channel=0 note=63 velocity=26 time=0
note_on channel=0 note=51 velocity=22 time=0
note_on channel=0 note=56 velocity=26 time=0
<meta message set_tempo tempo=481928 time=240>
note_on channel=0 note=56 velocity=0 time=0
note_on channel=0 note=44 velocity=0 time=0
note_on channel=0 note=59 velocity=0 time=0
note_on channel=0 note=68 velocity=0 time=0
note_on channel=0 note=51 velocity=0 time=0
note_on channel=0 note=63 velocity=0 time=0
note_on channel=0 note=68 velocity=59 time=0
control_change channel=0 control=64 value=0 time=0
note_on channel=0 note=32 velocity=26 time=0
control_change channel=0 control=64 value=125 time=149
note_on channel=0 note=32 velocity=0 time=79
note_on channel=0 note=63 velocity=26 time=12
note_on channel=0 note=60 velocity=26 time=0
note_on channel=0 note=54 velocity=26 time=0
note_on channel=0 note=51 velocity=22 time=0
note_on channel=0 note=44 velocity=22 time=0
note_on channel=0 note=44 velocity=0 time=228
note_on channel=0 note=63 velocity=0 time=0
note_on channel=0 note=60 velocity=0 time=0
note_on channel=0 note=54 velocity=0 time=0
note_on channel=0 note=51 velocity=0 time=0
note_on channel=0 note=68 velocity=0 time=12
note_on channel=0 note=69 velocity=61 time=0
note_on channel=0 note=54 velocity=26 time=0
note_on channel=0 note=51 velocity=22 time=0
note_on channel=0 note=44 velocity=22 time=0
<meta message set_tempo tempo=444444 time=8>
control_change channel=0 control=64 value=1 time=4
control_change channel=0 control=64 value=126 time=137
note_on channel=0 note=44 velocity=0 time=79
note_on channel=0 note=51 velocity=0 time=0
note_on channel=0 note=54 velocity=0 time=0
note_on channel=0 note=60 velocity=26 time=12
note_on channel=0 note=63 velocity=26 time=0
note_on channel=0 note=54 velocity=26 time=0
note_on channel=0 note=51 velocity=22 time=0
note_on channel=0 note=44 velocity=22 time=0
note_on channel=0 note=44 velocity=0 time=228
note_on channel=0 note=60 velocity=0 time=0
note_on channel=0 note=63 velocity=0 time=0
note_on channel=0 note=54 velocity=0 time=0
note_on channel=0 note=51 velocity=0 time=0
note_on channel=0 note=60 velocity=26 time=12
note_on channel=0 note=63 velocity=26 time=0
note_on channel=0 note=44 velocity=22 time=0
note_on channel=0 note=51 velocity=22 time=0
note_on channel=0 note=54 velocity=26 time=0
note_on channel=0 note=54 velocity=0 time=228
note_on channel=0 note=60 velocity=0 time=0
note_on channel=0 note=63 velocity=0 time=0
note_on channel=0 note=44 velocity=0 time=0
note_on channel=0 note=51 velocity=0 time=0
note_on channel=0 note=60 velocity=26 time=12
note_on channel=0 note=63 velocity=26 time=0
note_on channel=0 note=51 velocity=22 time=0
note_on channel=0 note=44 velocity=22 time=0
note_on channel=0 note=54 velocity=26 time=0
note_on channel=0 note=54 velocity=0 time=228
note_on channel=0 note=60 velocity=0 time=0
note_on channel=0 note=63 velocity=0 time=0
note_on channel=0 note=51 velocity=0 time=0
note_on channel=0 note=44 velocity=0 time=0
note_on channel=0 note=60 velocity=26 time=12
note_on channel=0 note=63 velocity=26 time=0
note_on channel=0 note=44 velocity=22 time=0
note_on channel=0 note=51 velocity=22 time=0
note_on channel=0 note=54 velocity=26 time=0
note_on channel=0 note=54 velocity=0 time=228
note_on channel=0 note=60 velocity=0 time=0
note_on channel=0 note=63 velocity=0 time=0
note_on channel=0 note=44 velocity=0 time=0
note_on channel=0 note=51 velocity=0 time=0
note_on channel=0 note=60 velocity=26 time=12
note_on channel=0 note=63 velocity=26 time=0
note_on channel=0 note=54 velocity=26 time=0
note_on channel=0 note=51 velocity=22 time=0
note_on channel=0 note=44 velocity=22 time=0
note_on channel=0 note=44 velocity=0 time=228
note_on channel=0 note=60 velocity=0 time=0
note_on channel=0 note=63 velocity=0 time=0
note_on channel=0 note=54 velocity=0 time=0
note_on channel=0 note=51 velocity=0 time=0
note_on channel=0 note=69 velocity=0 time=12
note_on channel=0 note=68 velocity=60 time=0
note_on channel=0 note=54 velocity=26 time=0
note_on channel=0 note=51 velocity=22 time=0
note_on channel=0 note=44 velocity=22 time=0
note_on channel=0 note=44 velocity=0 time=228
note_on channel=0 note=51 velocity=0 time=0
note_on channel=0 note=54 velocity=0 time=0
note_on channel=0 note=60 velocity=26 time=12
note_on channel=0 note=63 velocity=26 time=0
note_on channel=0 note=54 velocity=26 time=0
note_on channel=0 note=51 velocity=22 time=0
note_on channel=0 note=44 velocity=22 time=0
note_on channel=0 note=44 velocity=0 time=228
note_on channel=0 note=60 velocity=0 time=0
note_on channel=0 note=63 velocity=0 time=0
note_on channel=0 note=54 velocity=0 time=0
note_on channel=0 note=51 velocity=0 time=0
note_on channel=0 note=68 velocity=0 time=12
note_on channel=0 note=66 velocity=56 time=0
note_on channel=0 note=44 velocity=22 time=0
note_on channel=0 note=51 velocity=22 time=0
note_on channel=0 note=54 velocity=26 time=0
note_on channel=0 note=54 velocity=0 time=228
note_on channel=0 note=51 velocity=0 time=0
note_on channel=0 note=44 velocity=0 time=0
note_on channel=0 note=60 velocity=34 time=12
note_on channel=0 note=63 velocity=26 time=0
note_on channel=0 note=51 velocity=22 time=0
note_on channel=0 note=44 velocity=22 time=0
note_on channel=0 note=54 velocity=26 time=0
note_on channel=0 note=54 velocity=0 time=228
note_on channel=0 note=60 velocity=0 time=0
note_on channel=0 note=63 velocity=0 time=0
note_on channel=0 note=51 velocity=0 time=0
note_on channel=0 note=44 velocity=0 time=0
<meta message set_tempo tempo=428571 time=12>
note_on channel=0 note=66 velocity=0 time=0
note_on channel=0 note=64 velocity=70 time=0
note_on channel=0 note=32 velocity=26 time=0
control_change channel=0 control=64 value=0 time=3
note_on channel=0 note=32 velocity=0 time=225
note_on channel=0 note=56 velocity=26 time=12
note_on channel=0 note=61 velocity=26 time=0
note_on channel=0 note=52 velocity=26 time=0
note_on channel=0 note=49 velocity=22 time=0
note_on channel=0 note=44 velocity=22 time=0
control_change channel=0 control=64 value=127 time=14
note_on channel=0 note=44 velocity=0 time=214
note_on channel=0 note=56 velocity=0 time=0
note_on channel=0 note=61 velocity=0 time=0
note_on channel=0 note=52 velocity=0 time=0
note_on channel=0 note=49 velocity=0 time=0
note_on channel=0 note=64 velocity=0 time=12
note_on channel=0 note=68 velocity=64 time=0
note_on channel=0 note=44 velocity=24 time=0
note_on channel=0 note=49 velocity=24 time=0
note_on channel=0 note=52 velocity=28 time=0
note_on channel=0 note=52 velocity=0 time=228
note_on channel=0 note=49 velocity=0 time=0
note_on channel=0 note=44 velocity=0 time=0
note_on channel=0 note=64 velocity=29 time=12
note_on channel=0 note=61 velocity=29 time=0
note_on channel=0 note=44 velocity=24 time=0
note_on channel=0 note=49 velocity=24 time=0
note_on channel=0 note=52 velocity=29 time=0
note_on channel=0 note=52 velocity=0 time=228
note_on channel=0 note=64 velocity=0 time=0
note_on channel=0 note=61 velocity=0 time=0
note_on channel=0 note=44 velocity=0 time=0
note_on channel=0 note=49 velocity=0 time=0
note_on channel=0 note=68 velocity=0 time=12
note_on channel=0 note=73 velocity=68 time=0
note_on channel=0 note=44 velocity=26 time=0
note_on channel=0 note=49 velocity=26 time=0
note_on channel=0 note=52 velocity=30 time=0
note_on channel=0 note=52 velocity=0 time=228
note_on channel=0 note=49 velocity=0 time=0
note_on channel=0 note=44 velocity=0 time=0
note_on channel=0 note=64 velocity=31 time=12
note_on channel=0 note=68 velocity=31 time=0
note_on channel=0 note=52 velocity=31 time=0
note_on channel=0 note=44 velocity=26 time=0
note_on channel=0 note=49 velocity=26 time=0
note_on channel=0 note=49 velocity=0 time=228
note_on channel=0 note=64 velocity=0 time=0
note_on channel=0 note=68 velocity=0 time=0
note_on channel=0 note=52 velocity=0 time=0
note_on channel=0 note=44 velocity=0 time=0
note_on channel=0 note=73 velocity=0 time=12
note_on channel=0 note=76 velocity=77 time=0
note_on channel=0 note=44 velocity=28 time=0
note_on channel=0 note=49 velocity=28 time=0
note_on channel=0 note=52 velocity=34 time=0
note_on channel=0 note=52 velocity=0 time=228
note_on channel=0 note=49 velocity=0 time=0
note_on channel=0 note=44 velocity=0 time=0
note_on channel=0 note=68 velocity=34 time=12
note_on channel=0 note=73 velocity=34 time=0
note_on channel=0 note=49 velocity=29 time=0
note_on channel=0 note=44 velocity=29 time=0
note_on channel=0 note=52 velocity=35 time=0
note_on channel=0 note=52 velocity=0 time=228
note_on channel=0 note=68 velocity=0 time=0
note_on channel=0 note=73 velocity=0 time=0
note_on channel=0 note=49 velocity=0 time=0
note_on channel=0 note=44 velocity=0 time=0
note_on channel=0 note=76 velocity=0 time=12
note_on channel=0 note=80 velocity=75 time=0
note_on channel=0 note=44 velocity=30 time=0
note_on channel=0 note=49 velocity=30 time=0
note_on channel=0 note=52 velocity=36 time=0
note_on channel=0 note=52 velocity=0 time=228
note_on channel=0 note=49 velocity=0 time=0
note_on channel=0 note=44 velocity=0 time=0
note_on channel=0 note=73 velocity=37 time=12
note_on channel=0 note=76 velocity=37 time=0
note_on channel=0 note=52 velocity=37 time=0
note_on channel=0 note=44 velocity=30 time=0
note_on channel=0 note=49 velocity=30 time=0
note_on channel=0 note=49 velocity=0 time=228
note_on channel=0 note=73 velocity=0 time=0
note_on channel=0 note=76 velocity=0 time=0
note_on channel=0 note=52 velocity=0 time=0
note_on channel=0 note=44 velocity=0 time=0
note_on channel=0 note=80 velocity=0 time=12
note_on channel=0 note=85 velocity=79 time=0
note_on channel=0 note=44 velocity=33 time=0
note_on channel=0 note=49 velocity=33 time=0
note_on channel=0 note=52 velocity=39 time=0
note_on channel=0 note=52 velocity=0 time=228
note_on channel=0 note=49 velocity=0 time=0
note_on channel=0 note=44 velocity=0 time=0
note_on channel=0 note=76 velocity=39 time=12
note_on channel=0 note=80 velocity=39 time=0
note_on channel=0 note=52 velocity=39 time=0
note_on channel=0 note=44 velocity=34 time=0
note_on channel=0 note=49 velocity=34 time=0
note_on channel=0 note=49 velocity=0 time=228
note_on channel=0 note=76 velocity=0 time=0
note_on channel=0 note=80 velocity=0 time=0
note_on channel=0 note=52 velocity=0 time=0
note_on channel=0 note=44 velocity=0 time=0
<meta message set_tempo tempo=478088 time=12>
note_on channel=0 note=85 velocity=0 time=0
note_on channel=0 note=87 velocity=99 time=0
note_on channel=0 note=33 velocity=47 time=0
control_change channel=0 control=64 value=0 time=4
control_change channel=0 control=64 value=125 time=156
note_on channel=0 note=33 velocity=0 time=68
note_on channel=0 note=75 velocity=51 time=12
note_on channel=0 note=79 velocity=51 time=0
note_on channel=0 note=52 velocity=42 time=0
note_on channel=0 note=49 velocity=35 time=0
note_on channel=0 note=45 velocity=35 time=0
<meta message set_tempo tempo=444444 time=228>
note_on channel=0 note=45 velocity=0 time=0
note_on channel=0 note=75 velocity=0 time=0
note_on channel=0 note=79 velocity=0 time=0
note_on channel=0 note=52 velocity=0 time=0
note_on channel=0 note=49 velocity=0 time=0
note_on channel=0 note=87 velocity=0 time=12
note_on channel=0 note=88 velocity=96 time=0
note_on channel=0 note=45 velocity=38 time=0
note_on channel=0 note=49 velocity=38 time=0
note_on channel=0 note=52 velocity=45 time=0
control_change channel=0 control=64 value=0 time=11
control_change channel=0 control=64 value=126 time=195
note_on channel=0 note=52 velocity=0 time=22
note_on channel=0 note=49 velocity=0 time=0
note_on channel=0 note=45 velocity=0 time=0
note_on channel=0 note=79 velocity=45 time=12
note_on channel=0 note=76 velocity=45 time=0
note_on channel=0 note=52 velocity=44 time=0
note_on channel=0 note=45 velocity=36 time=0
note_on channel=0 note=49 velocity=36 time=0
note_on channel=0 note=49 velocity=0 time=228
note_on channel=0 note=79 velocity=0 time=0
note_on channel=0 note=76 velocity=0 time=0
note_on channel=0 note=52 velocity=0 time=0
note_on channel=0 note=45 velocity=0 time=0
note_on channel=0 note=79 velocity=40 time=12
note_on channel=0 note=76 velocity=40 time=0
note_on channel=0 note=52 velocity=40 time=0
note_on channel=0 note=45 velocity=34 time=0
note_on channel=0 note=49 velocity=34 time=0
note_on channel=0 note=49 velocity=0 time=228
note_on channel=0 note=79 velocity=0 time=0
note_on channel=0 note=76 velocity=0 time=0
note_on channel=0 note=52 velocity=0 time=0
note_on channel=0 note=45 velocity=0 time=0
note_on channel=0 note=79 velocity=39 time=12
note_on channel=0 note=76 velocity=39 time=0
note_on channel=0 note=52 velocity=39 time=0
note_on channel=0 note=45 velocity=33 time=0
note_on channel=0 note=49 velocity=33 time=0
note_on channel=0 note=49 velocity=0 time=228
note_on channel=0 note=79 velocity=0 time=0
note_on channel=0 note=76 velocity=0 time=0
note_on channel=0 note=52 velocity=0 time=0
note_on channel=0 note=45 velocity=0 time=0
note_on channel=0 note=79 velocity=37 time=12
note_on channel=0 note=76 velocity=37 time=0
note_on channel=0 note=52 velocity=37 time=0
note_on channel=0 note=45 velocity=30 time=0
note_on channel=0 note=49 velocity=30 time=0
note_on channel=0 note=49 velocity=0 time=228
note_on channel=0 note=79 velocity=0 time=0
note_on channel=0 note=76 velocity=0 time=0
note_on channel=0 note=52 velocity=0 time=0
note_on channel=0 note=45 velocity=0 time=0
note_on channel=0 note=76 velocity=37 time=12
note_on channel=0 note=79 velocity=37 time=0
note_on channel=0 note=45 velocity=29 time=0
note_on channel=0 note=49 velocity=29 time=0
note_on channel=0 note=52 velocity=35 time=0
note_on channel=0 note=52 velocity=0 time=228
note_on channel=0 note=76 velocity=0 time=0
note_on channel=0 note=79 velocity=0 time=0
note_on channel=0 note=45 velocity=0 time=0
note_on channel=0 note=49 velocity=0 time=0
note_on channel=0 note=88 velocity=0 time=12
note_on channel=0 note=87 velocity=88 time=0
note_on channel=0 note=51 velocity=34 time=0
note_on channel=0 note=45 velocity=28 time=0
control_change channel=0 control=64 value=0 time=12
control_change channel=0 control=64 value=126 time=129
note_on channel=0 note=45 velocity=0 time=87
note_on channel=0 note=51 velocity=0 time=0
note_on channel=0 note=75 velocity=31 time=12
note_on channel=0 note=79 velocity=31 time=0
note_on channel=0 note=51 velocity=31 time=0
note_on channel=0 note=45 velocity=26 time=0
<meta message set_tempo tempo=487805 time=228>
note_on channel=0 note=45 velocity=0 time=0
note_on channel=0 note=79 velocity=0 time=0
note_on channel=0 note=51 velocity=0 time=0
note_on channel=0 note=75 velocity=0 time=0
note_on channel=0 note=87 velocity=0 time=12
note_on channel=0 note=85 velocity=81 time=0
note_on channel=0 note=51 velocity=30 time=0
note_on channel=0 note=45 velocity=25 time=0
note_on channel=0 note=45 velocity=0 time=228
note_on channel=0 note=51 velocity=0 time=0
note_on channel=0 note=73 velocity=28 time=12
note_on channel=0 note=79 velocity=28 time=0
note_on channel=0 note=51 velocity=28 time=0
note_on channel=0 note=45 velocity=24 time=0
<meta message set_tempo tempo=428571 time=228>
note_on channel=0 note=45 velocity=0 time=0
note_on channel=0 note=79 velocity=0 time=0
note_on channel=0 note=51 velocity=0 time=0
note_on channel=0 note=73 velocity=0 time=0
note_on channel=0 note=85 velocity=0 time=12
note_on channel=0 note=85 velocity=68 time=0
note_on channel=0 note=32 velocity=26 time=0
control_change channel=0 control=64 value=0 time=6
note_on channel=0 note=32 velocity=0 time=222
note_on channel=0 note=75 velocity=26 time=12
note_on channel=0 note=80 velocity=26 time=0
control_change channel=0 control=64 value=126 time=0
note_on channel=0 note=44 velocity=26 time=0
note_on channel=0 note=44 velocity=0 time=228
note_on channel=0 note=80 velocity=0 time=0
note_on channel=0 note=75 velocity=0 time=0
note_on channel=0 note=85 velocity=0 time=12
note_on channel=0 note=84 velocity=59 time=0
note_on channel=0 note=48 velocity=22 time=0
note_on channel=0 note=51 velocity=26 time=0
note_on channel=0 note=44 velocity=22 time=0
note_on channel=0 note=44 velocity=0 time=228
note_on channel=0 note=51 velocity=0 time=0
note_on channel=0 note=48 velocity=0 time=0
note_on channel=0 note=75 velocity=26 time=12
note_on channel=0 note=80 velocity=26 time=0
note_on channel=0 note=48 velocity=22 time=0
note_on channel=0 note=51 velocity=26 time=0
note_on channel=0 note=44 velocity=22 time=0
note_on channel=0 note=44 velocity=0 time=228
note_on channel=0 note=75 velocity=0 time=0
note_on channel=0 note=80 velocity=0 time=0
note_on channel=0 note=48 velocity=0 time=0
note_on channel=0 note=51 velocity=0 time=0
note_on channel=0 note=84 velocity=0 time=12
note_on channel=0 note=80 velocity=58 time=0
note_on channel=0 note=48 velocity=22 time=0
note_on channel=0 note=51 velocity=26 time=0
note_on channel=0 note=44 velocity=22 time=0
note_on channel=0 note=44 velocity=0 time=228
note_on channel=0 note=51 velocity=0 time=0
note_on channel=0 note=48 velocity=0 time=0
note_on channel=0 note=72 velocity=26 time=12
note_on channel=0 note=75 velocity=26 time=0
note_on channel=0 note=48 velocity=22 time=0
note_on channel=0 note=51 velocity=26 time=0
note_on channel=0 note=44 velocity=22 time=0
note_on channel=0 note=44 velocity=0 time=228
note_on channel=0 note=72 velocity=0 time=0
note_on channel=0 note=75 velocity=0 time=0
note_on channel=0 note=48 velocity=0 time=0
note_on channel=0 note=51 velocity=0 time=0
note_on channel=0 note=80 velocity=0 time=12
note_on channel=0 note=75 velocity=58 time=0
note_on channel=0 note=48 velocity=22 time=0
note_on channel=0 note=51 velocity=26 time=0
note_on channel=0 note=44 velocity=22 time=0
note_on channel=0 note=44 velocity=0 time=228
note_on channel=0 note=51 velocity=0 time=0
note_on channel=0 note=48 velocity=0 time=0
note_on channel=0 note=68 velocity=26 time=12
note_on channel=0 note=72 velocity=26 time=0
note_on channel=0 note=48 velocity=22 time=0
note_on channel=0 note=51 velocity=26 time=0
note_on channel=0 note=44 velocity=22 time=0
note_on channel=0 note=44 velocity=0 time=228
note_on channel=0 note=68 velocity=0 time=0
note_on channel=0 note=72 velocity=0 time=0
note_on channel=0 note=48 velocity=0 time=0
note_on channel=0 note=51 velocity=0 time=0
note_on channel=0 note=75 velocity=0 time=12
note_on channel=0 note=72 velocity=58 time=0
note_on channel=0 note=48 velocity=22 time=0
note_on channel=0 note=51 velocity=26 time=0
note_on channel=0 note=44 velocity=22 time=0
note_on channel=0 note=44 velocity=0 time=228
note_on channel=0 note=51 velocity=0 time=0
note_on channel=0 note=48 velocity=0 time=0
note_on channel=0 note=63 velocity=26 time=12
note_on channel=0 note=68 velocity=26 time=0
note_on channel=0 note=48 velocity=22 time=0
note_on channel=0 note=51 velocity=26 time=0
note_on channel=0 note=44 velocity=22 time=0
note_on channel=0 note=44 velocity=0 time=228
note_on channel=0 note=63 velocity=0 time=0
note_on channel=0 note=68 velocity=0 time=0
note_on channel=0 note=48 velocity=0 time=0
note_on channel=0 note=51 velocity=0 time=0
note_on channel=0 note=72 velocity=0 time=12
note_on channel=0 note=68 velocity=58 time=0
note_on channel=0 note=48 velocity=22 time=0
note_on channel=0 note=51 velocity=26 time=0
note_on channel=0 note=44 velocity=22 time=0
note_on channel=0 note=44 velocity=0 time=228
note_on channel=0 note=51 velocity=0 time=0
note_on channel=0 note=48 velocity=0 time=0
note_on channel=0 note=60 velocity=26 time=12
note_on channel=0 note=63 velocity=26 time=0
note_on channel=0 note=48 velocity=22 time=0
note_on channel=0 note=51 velocity=26 time=0
note_on channel=0 note=44 velocity=22 time=0
<meta message set_tempo tempo=480000 time=228>
note_on channel=0 note=44 velocity=0 time=0
note_on channel=0 note=60 velocity=0 time=0
note_on channel=0 note=63 velocity=0 time=0
note_on channel=0 note=48 velocity=0 time=0
note_on channel=0 note=51 velocity=0 time=0
<meta message set_tempo tempo=519481 time=12>
note_on channel=0 note=68 velocity=0 time=0
note_on channel=0 note=68 velocity=59 time=0
note_on channel=0 note=32 velocity=26 time=0
control_change channel=0 control=64 value=0 time=6
control_change channel=0 control=64 value=124 time=131
note_on channel=0 note=32 velocity=0 time=91
note_on channel=0 note=63 velocity=26 time=12
note_on channel=0 note=60 velocity=26 time=0
note_on channel=0 note=54 velocity=26 time=0
note_on channel=0 note=51 velocity=22 time=0
note_on channel=0 note=44 velocity=22 time=0
note_on channel=0 note=44 velocity=0 time=228
note_on channel=0 note=63 velocity=0 time=0
note_on channel=0 note=60 velocity=0 time=0
note_on channel=0 note=54 velocity=0 time=0
note_on channel=0 note=51 velocity=0 time=0
<meta message set_tempo tempo=444444 time=12>
note_on channel=0 note=68 velocity=0 time=0
note_on channel=0 note=69 velocity=61 time=0
note_on channel=0 note=54 velocity=26 time=0
note_on channel=0 note=51 velocity=22 time=0
note_on channel=0 note=44 velocity=22 time=0
control_change channel=0 control=64 value=0 time=12
control_change channel=0 control=64 value=126 time=205
note_on channel=0 note=44 velocity=0 time=11
note_on channel=0 note=51 velocity=0 time=0
note_on channel=0 note=54 velocity=0 time=0
note_on channel=0 note=60 velocity=26 time=12
note_on channel=0 note=63 velocity=26 time=0
note_on channel=0 note=54 velocity=26 time=0
note_on channel=0 note=51 velocity=22 time=0
note_on channel=0 note=44 velocity=22 time=0
note_on channel=0 note=44 velocity=0 time=228
note_on channel=0 note=60 velocity=0 time=0
note_on channel=0 note=63 velocity=0 time=0
note_on channel=0 note=54 velocity=0 time=0
note_on channel=0 note=51 velocity=0 time=0
note_on channel=0 note=60 velocity=26 time=12
note_on channel=0 note=63 velocity=26 time=0
note_on channel=0 note=44 velocity=22 time=0
note_on channel=0 note=51 velocity=22 time=0
note_on channel=0 note=54 velocity=26 time=0
note_on channel=0 note=54 velocity=0 time=228
note_on channel=0 note=60 velocity=0 time=0
note_on channel=0 note=63 velocity=0 time=0
note_on channel=0 note=44 velocity=0 time=0
note_on channel=0 note=51 velocity=0 time=0
note_on channel=0 note=60 velocity=26 time=12
note_on channel=0 note=63 velocity=26 time=0
note_on channel=0 note=51 velocity=22 time=0
note_on channel=0 note=44 velocity=22 time=0
note_on channel=0 note=54 velocity=26 time=0
note_on channel=0 note=54 velocity=0 time=228
note_on channel=0 note=60 velocity=0 time=0
note_on channel=0 note=63 velocity=0 time=0
note_on channel=0 note=51 velocity=0 time=0
note_on channel=0 note=44 velocity=0 time=0
note_on channel=0 note=60 velocity=26 time=12
note_on channel=0 note=63 velocity=26 time=0
note_on channel=0 note=44 velocity=22 time=0
note_on channel=0 note=51 velocity=22 time=0
note_on channel=0 note=54 velocity=26 time=0
note_on channel=0 note=54 velocity=0 time=228
note_on channel=0 note=60 velocity=0 time=0
note_on channel=0 note=63 velocity=0 time=0
note_on channel=0 note=44 velocity=0 time=0
note_on channel=0 note=51 velocity=0 time=0
note_on channel=0 note=60 velocity=26 time=12
note_on channel=0 note=63 velocity=26 time=0
note_on channel=0 note=54 velocity=26 time=0
note_on channel=0 note=51 velocity=22 time=0
note_on channel=0 note=44 velocity=22 time=0
note_on channel=0 note=44 velocity=0 time=228
note_on channel=0 note=60 velocity=0 time=0
note_on channel=0 note=63 velocity=0 time=0
note_on channel=0 note=54 velocity=0 time=0
note_on channel=0 note=51 velocity=0 time=0
note_on channel=0 note=69 velocity=0 time=12
note_on channel=0 note=68 velocity=60 time=0
note_on channel=0 note=54 velocity=26 time=0
note_on channel=0 note=51 velocity=22 time=0
note_on channel=0 note=44 velocity=22 time=0
control_change channel=0 control=64 value=0 time=12
control_change channel=0 control=64 value=126 time=171
note_on channel=0 note=44 velocity=0 time=45
note_on channel=0 note=51 velocity=0 time=0
note_on channel=0 note=54 velocity=0 time=0
note_on channel=0 note=60 velocity=26 time=12
note_on channel=0 note=63 velocity=26 time=0
note_on channel=0 note=54 velocity=26 time=0
note_on channel=0 note=51 velocity=22 time=0
note_on channel=0 note=44 velocity=22 time=0
note_on channel=0 note=44 velocity=0 time=228
note_on channel=0 note=60 velocity=0 time=0
note_on channel=0 note=63 velocity=0 time=0
note_on channel=0 note=54 velocity=0 time=0
note_on channel=0 note=51 velocity=0 time=0
note_on channel=0 note=68 velocity=0 time=12
note_on channel=0 note=66 velocity=56 time=0
note_on channel=0 note=44 velocity=22 time=0
note_on channel=0 note=51 velocity=22 time=0
note_on channel=0 note=54 velocity=26 time=0
note_on channel=0 note=54 velocity=0 time=228
note_on channel=0 note=51 velocity=0 time=0
note_on channel=0 note=44 velocity=0 time=0
note_on channel=0 note=60 velocity=34 time=12
note_on channel=0 note=63 velocity=26 time=0
note_on channel=0 note=51 velocity=22 time=0
note_on channel=0 note=44 velocity=22 time=0
note_on channel=0 note=54 velocity=26 time=0
note_on channel=0 note=54 velocity=0 time=228
note_on channel=0 note=51 velocity=0 time=0
note_on channel=0 note=44 velocity=0 time=0
<meta message set_tempo tempo=428571 time=12>
note_on channel=0 note=66 velocity=0 time=0
note_on channel=0 note=63 velocity=0 time=0
note_on channel=0 note=60 velocity=0 time=0
note_on channel=0 note=64 velocity=70 time=0
note_on channel=0 note=32 velocity=26 time=0
control_change channel=0 control=64 value=0 time=3
note_on channel=0 note=32 velocity=0 time=225
note_on channel=0 note=56 velocity=26 time=12
note_on channel=0 note=61 velocity=26 time=0
note_on channel=0 note=52 velocity=26 time=0
note_on channel=0 note=49 velocity=22 time=0
note_on channel=0 note=44 velocity=22 time=0
control_change channel=0 control=64 value=127 time=57
note_on channel=0 note=44 velocity=0 time=171
note_on channel=0 note=56 velocity=0 time=0
note_on channel=0 note=61 velocity=0 time=0
note_on channel=0 note=52 velocity=0 time=0
note_on channel=0 note=49 velocity=0 time=0
note_on channel=0 note=64 velocity=0 time=12
note_on channel=0 note=68 velocity=64 time=0
note_on channel=0 note=44 velocity=22 time=0
note_on channel=0 note=49 velocity=22 time=0
note_on channel=0 note=52 velocity=26 time=0
note_on channel=0 note=52 velocity=0 time=228
note_on channel=0 note=49 velocity=0 time=0
note_on channel=0 note=44 velocity=0 time=0
note_on channel=0 note=64 velocity=29 time=12
note_on channel=0 note=61 velocity=29 time=0
note_on channel=0 note=44 velocity=22 time=0
note_on channel=0 note=49 velocity=22 time=0
note_on channel=0 note=52 velocity=26 time=0
note_on channel=0 note=52 velocity=0 time=228
note_on channel=0 note=64 velocity=0 time=0
note_on channel=0 note=61 velocity=0 time=0
note_on channel=0 note=44 velocity=0 time=0
note_on channel=0 note=49 velocity=0 time=0
note_on channel=0 note=68 velocity=0 time=12
note_on channel=0 note=73 velocity=68 time=0
note_on channel=0 note=44 velocity=22 time=0
note_on channel=0 note=49 velocity=22 time=0
note_on channel=0 note=52 velocity=26 time=0
note_on channel=0 note=52 velocity=0 time=228
note_on channel=0 note=49 velocity=0 time=0
note_on channel=0 note=44 velocity=0 time=0
note_on channel=0 note=64 velocity=31 time=12
note_on channel=0 note=68 velocity=31 time=0
note_on channel=0 note=44 velocity=22 time=0
note_on channel=0 note=49 velocity=22 time=0
note_on channel=0 note=52 velocity=26 time=0
note_on channel=0 note=52 velocity=0 time=228
note_on channel=0 note=64 velocity=0 time=0
note_on channel=0 note=68 velocity=0 time=0
note_on channel=0 note=44 velocity=0 time=0
note_on channel=0 note=49 velocity=0 time=0
note_on channel=0 note=73 velocity=0 time=12
note_on channel=0 note=76 velocity=77 time=0
note_on channel=0 note=44 velocity=22 time=0
note_on channel=0 note=49 velocity=22 time=0
note_on channel=0 note=52 velocity=26 time=0
note_on channel=0 note=52 velocity=0 time=228
note_on channel=0 note=49 velocity=0 time=0
note_on channel=0 note=44 velocity=0 time=0
note_on channel=0 note=68 velocity=34 time=12
note_on channel=0 note=73 velocity=34 time=0
note_on channel=0 note=49 velocity=24 time=0
note_on channel=0 note=44 velocity=24 time=0
note_on channel=0 note=52 velocity=28 time=0
note_on channel=0 note=52 velocity=0 time=228
note_on channel=0 note=68 velocity=0 time=0
note_on channel=0 note=73 velocity=0 time=0
note_on channel=0 note=49 velocity=0 time=0
note_on channel=0 note=44 velocity=0 time=0
note_on channel=0 note=76 velocity=0 time=12
note_on channel=0 note=80 velocity=75 time=0
note_on channel=0 note=44 velocity=26 time=0
note_on channel=0 note=49 velocity=26 time=0
note_on channel=0 note=52 velocity=30 time=0
note_on channel=0 note=52 velocity=0 time=228
note_on channel=0 note=49 velocity=0 time=0
note_on channel=0 note=44 velocity=0 time=0
note_on channel=0 note=73 velocity=37 time=12
note_on channel=0 note=76 velocity=37 time=0
note_on channel=0 note=44 velocity=29 time=0
note_on channel=0 note=49 velocity=29 time=0
note_on channel=0 note=52 velocity=35 time=0
note_on channel=0 note=52 velocity=0 time=228
note_on channel=0 note=73 velocity=0 time=0
note_on channel=0 note=76 velocity=0 time=0
note_on channel=0 note=44 velocity=0 time=0
note_on channel=0 note=49 velocity=0 time=0
note_on channel=0 note=80 velocity=0 time=12
note_on channel=0 note=85 velocity=79 time=0
note_on channel=0 note=44 velocity=30 time=0
note_on channel=0 note=49 velocity=30 time=0
note_on channel=0 note=52 velocity=37 time=0
note_on channel=0 note=52 velocity=0 time=228
note_on channel=0 note=49 velocity=0 time=0
note_on channel=0 note=44 velocity=0 time=0
note_on channel=0 note=76 velocity=39 time=12
note_on channel=0 note=80 velocity=39 time=0
note_on channel=0 note=44 velocity=34 time=0
note_on channel=0 note=49 velocity=34 time=0
note_on channel=0 note=52 velocity=39 time=0
note_on channel=0 note=52 velocity=0 time=228
note_on channel=0 note=76 velocity=0 time=0
note_on channel=0 note=80 velocity=0 time=0
note_on channel=0 note=44 velocity=0 time=0
note_on channel=0 note=49 velocity=0 time=0
<meta message set_tempo tempo=478088 time=12>
note_on channel=0 note=85 velocity=0 time=0
note_on channel=0 note=87 velocity=99 time=0
note_on channel=0 note=33 velocity=41 time=0
control_change channel=0 control=64 value=0 time=3
control_change channel=0 control=64 value=125 time=134
note_on channel=0 note=33 velocity=0 time=91
note_on channel=0 note=75 velocity=51 time=12
note_on channel=0 note=79 velocity=51 time=0
note_on channel=0 note=52 velocity=41 time=0
note_on channel=0 note=49 velocity=35 time=0
note_on channel=0 note=45 velocity=35 time=0
<meta message set_tempo tempo=444444 time=228>
note_on channel=0 note=45 velocity=0 time=0
note_on channel=0 note=75 velocity=0 time=0
note_on channel=0 note=79 velocity=0 time=0
note_on channel=0 note=52 velocity=0 time=0
note_on channel=0 note=49 velocity=0 time=0
note_on channel=0 note=87 velocity=0 time=12
note_on channel=0 note=88 velocity=96 time=0
note_on channel=0 note=45 velocity=36 time=0
note_on channel=0 note=49 velocity=36 time=0
note_on channel=0 note=52 velocity=44 time=0
control_change channel=0 control=64 value=0 time=4
control_change channel=0 control=64 value=127 time=145
note_on channel=0 note=52 velocity=0 time=79
note_on channel=0 note=49 velocity=0 time=0
note_on channel=0 note=45 velocity=0 time=0
note_on channel=0 note=79 velocity=45 time=12
note_on channel=0 note=76 velocity=45 time=0
note_on channel=0 note=45 velocity=35 time=0
note_on channel=0 note=49 velocity=35 time=0
note_on channel=0 note=52 velocity=42 time=0
note_on channel=0 note=52 velocity=0 time=228
note_on channel=0 note=79 velocity=0 time=0
note_on channel=0 note=76 velocity=0 time=0
note_on channel=0 note=45 velocity=0 time=0
note_on channel=0 note=49 velocity=0 time=0
note_on channel=0 note=79 velocity=40 time=12
note_on channel=0 note=76 velocity=40 time=0
note_on channel=0 note=45 velocity=34 time=0
note_on channel=0 note=49 velocity=34 time=0
note_on channel=0 note=52 velocity=40 time=0
note_on channel=0 note=52 velocity=0 time=228
note_on channel=0 note=79 velocity=0 time=0
note_on channel=0 note=76 velocity=0 time=0
note_on channel=0 note=45 velocity=0 time=0
note_on channel=0 note=49 velocity=0 time=0
note_on channel=0 note=79 velocity=39 time=12
note_on channel=0 note=76 velocity=39 time=0
note_on channel=0 note=45 velocity=33 time=0
note_on channel=0 note=49 velocity=33 time=0
note_on channel=0 note=52 velocity=39 time=0
note_on channel=0 note=52 velocity=0 time=228
note_on channel=0 note=79 velocity=0 time=0
note_on channel=0 note=76 velocity=0 time=0
note_on channel=0 note=45 velocity=0 time=0
note_on channel=0 note=49 velocity=0 time=0
note_on channel=0 note=79 velocity=37 time=12
note_on channel=0 note=76 velocity=37 time=0
note_on channel=0 note=45 velocity=30 time=0
note_on channel=0 note=49 velocity=30 time=0
note_on channel=0 note=52 velocity=37 time=0
note_on channel=0 note=52 velocity=0 time=228
note_on channel=0 note=79 velocity=0 time=0
note_on channel=0 note=76 velocity=0 time=0
note_on channel=0 note=45 velocity=0 time=0
note_on channel=0 note=49 velocity=0 time=0
note_on channel=0 note=76 velocity=37 time=12
note_on channel=0 note=79 velocity=37 time=0
note_on channel=0 note=45 velocity=29 time=0
note_on channel=0 note=49 velocity=29 time=0
note_on channel=0 note=52 velocity=35 time=0
note_on channel=0 note=52 velocity=0 time=228
note_on channel=0 note=76 velocity=0 time=0
note_on channel=0 note=79 velocity=0 time=0
note_on channel=0 note=45 velocity=0 time=0
note_on channel=0 note=49 velocity=0 time=0
note_on channel=0 note=88 velocity=0 time=12
note_on channel=0 note=87 velocity=88 time=0
note_on channel=0 note=45 velocity=28 time=0
note_on channel=0 note=49 velocity=28 time=0
note_on channel=0 note=52 velocity=34 time=0
control_change channel=0 control=64 value=0 time=12
control_change channel=0 control=64 value=127 time=137
note_on channel=0 note=52 velocity=0 time=79
note_on channel=0 note=49 velocity=0 time=0
note_on channel=0 note=45 velocity=0 time=0
note_on channel=0 note=75 velocity=31 time=12
note_on channel=0 note=79 velocity=31 time=0
note_on channel=0 note=45 velocity=26 time=0
note_on channel=0 note=49 velocity=26 time=0
note_on channel=0 note=52 velocity=31 time=0
note_on channel=0 note=52 velocity=0 time=228
note_on channel=0 note=75 velocity=0 time=0
note_on channel=0 note=79 velocity=0 time=0
note_on channel=0 note=45 velocity=0 time=0
note_on channel=0 note=49 velocity=0 time=0
note_on channel=0 note=87 velocity=0 time=12
note_on channel=0 note=85 velocity=81 time=0
note_on channel=0 note=45 velocity=25 time=0
note_on channel=0 note=49 velocity=25 time=0
note_on channel=0 note=52 velocity=30 time=0
note_on channel=0 note=52 velocity=0 time=228
note_on channel=0 note=49 velocity=0 time=0
note_on channel=0 note=45 velocity=0 time=0
note_on channel=0 note=73 velocity=28 time=12
note_on channel=0 note=79 velocity=28 time=0
note_on channel=0 note=45 velocity=24 time=0
note_on channel=0 note=49 velocity=24 time=0
note_on channel=0 note=52 velocity=28 time=0
note_on channel=0 note=52 velocity=0 time=228
note_on channel=0 note=45 velocity=0 time=0
note_on channel=0 note=49 velocity=0 time=0
note_on channel=0 note=85 velocity=0 time=12
note_on channel=0 note=79 velocity=0 time=0
note_on channel=0 note=73 velocity=0 time=0
note_on channel=0 note=85 velocity=71 time=0
note_on channel=0 note=32 velocity=27 time=0
control_change channel=0 control=64 value=0 time=5
note_on channel=0 note=32 velocity=0 time=223
note_on channel=0 note=73 velocity=23 time=12
note_on channel=0 note=76 velocity=23 time=0
note_on channel=0 note=80 velocity=27 time=0
note_on channel=0 note=52 velocity=26 time=0
note_on channel=0 note=49 velocity=22 time=0
note_on channel=0 note=44 velocity=22 time=0
control_change channel=0 control=64 value=125 time=28
note_on channel=0 note=44 velocity=0 time=200
note_on channel=0 note=52 velocity=0 time=0
note_on channel=0 note=73 velocity=0 time=0
note_on channel=0 note=76 velocity=0 time=0
note_on channel=0 note=80 velocity=0 time=0
note_on channel=0 note=49 velocity=0 time=0
note_on channel=0 note=73 velocity=23 time=12
note_on channel=0 note=76 velocity=23 time=0
note_on channel=0 note=80 velocity=27 time=0
note_on channel=0 note=52 velocity=26 time=0
note_on channel=0 note=49 velocity=22 time=0
note_on channel=0 note=44 velocity=22 time=0
note_on channel=0 note=44 velocity=0 time=228
note_on channel=0 note=52 velocity=0 time=0
note_on channel=0 note=73 velocity=0 time=0
note_on channel=0 note=76 velocity=0 time=0
note_on channel=0 note=80 velocity=0 time=0
note_on channel=0 note=49 velocity=0 time=0
note_on channel=0 note=73 velocity=23 time=12
note_on channel=0 note=76 velocity=23 time=0
note_on channel=0 note=80 velocity=27 time=0
note_on channel=0 note=52 velocity=26 time=0
note_on channel=0 note=49 velocity=22 time=0
note_on channel=0 note=44 velocity=22 time=0
note_on channel=0 note=44 velocity=0 time=228
note_on channel=0 note=52 velocity=0 time=0
note_on channel=0 note=73 velocity=0 time=0
note_on channel=0 note=76 velocity=0 time=0
note_on channel=0 note=80 velocity=0 time=0
note_on channel=0 note=49 velocity=0 time=0
note_on channel=0 note=73 velocity=23 time=12
note_on channel=0 note=76 velocity=23 time=0
note_on channel=0 note=80 velocity=27 time=0
note_on channel=0 note=52 velocity=26 time=0
note_on channel=0 note=49 velocity=22 time=0
note_on channel=0 note=44 velocity=22 time=0
note_on channel=0 note=44 velocity=0 time=228
note_on channel=0 note=52 velocity=0 time=0
note_on channel=0 note=73 velocity=0 time=0
note_on channel=0 note=76 velocity=0 time=0
note_on channel=0 note=80 velocity=0 time=0
note_on channel=0 note=49 velocity=0 time=0
note_on channel=0 note=73 velocity=20 time=12
note_on channel=0 note=76 velocity=20 time=0
note_on channel=0 note=80 velocity=25 time=0
note_on channel=0 note=52 velocity=26 time=0
note_on channel=0 note=49 velocity=22 time=0
note_on channel=0 note=44 velocity=22 time=0
note_on channel=0 note=44 velocity=0 time=228
note_on channel=0 note=52 velocity=0 time=0
note_on channel=0 note=73 velocity=0 time=0
note_on channel=0 note=76 velocity=0 time=0
note_on channel=0 note=80 velocity=0 time=0
note_on channel=0 note=49 velocity=0 time=0
note_on channel=0 note=85 velocity=0 time=12
note_on channel=0 note=80 velocity=60 time=0
note_on channel=0 note=32 velocity=26 time=0
control_change channel=0 control=64 value=0 time=6
control_change channel=0 control=64 value=126 time=189
note_on channel=0 note=32 velocity=0 time=33
note_on channel=0 note=72 velocity=22 time=12
note_on channel=0 note=75 velocity=22 time=0
note_on channel=0 note=51 velocity=24 time=0
note_on channel=0 note=48 velocity=19 time=0
note_on channel=0 note=44 velocity=19 time=0
note_on channel=0 note=44 velocity=0 time=228
note_on channel=0 note=72 velocity=0 time=0
note_on channel=0 note=75 velocity=0 time=0
note_on channel=0 note=51 velocity=0 time=0
note_on channel=0 note=48 velocity=0 time=0
note_on channel=0 note=72 velocity=20 time=12
note_on channel=0 note=75 velocity=20 time=0
note_on channel=0 note=51 velocity=24 time=0
note_on channel=0 note=48 velocity=19 time=0
note_on channel=0 note=44 velocity=19 time=0
note_on channel=0 note=44 velocity=0 time=228
note_on channel=0 note=72 velocity=0 time=0
note_on channel=0 note=75 velocity=0 time=0
note_on channel=0 note=51 velocity=0 time=0
note_on channel=0 note=48 velocity=0 time=0
note_on channel=0 note=72 velocity=20 time=12
note_on channel=0 note=75 velocity=20 time=0
note_on channel=0 note=51 velocity=22 time=0
note_on channel=0 note=48 velocity=18 time=0
note_on channel=0 note=44 velocity=18 time=0
note_on channel=0 note=44 velocity=0 time=228
note_on channel=0 note=72 velocity=0 time=0
note_on channel=0 note=75 velocity=0 time=0
note_on channel=0 note=51 velocity=0 time=0
note_on channel=0 note=48 velocity=0 time=0
note_on channel=0 note=72 velocity=20 time=12
note_on channel=0 note=75 velocity=20 time=0
note_on channel=0 note=51 velocity=22 time=0
note_on channel=0 note=48 velocity=17 time=0
note_on channel=0 note=44 velocity=17 time=0
<meta message set_tempo tempo=547945 time=8>
note_on channel=0 note=44 velocity=0 time=220
note_on channel=0 note=72 velocity=0 time=0
note_on channel=0 note=75 velocity=0 time=0
note_on channel=0 note=51 velocity=0 time=0
note_on channel=0 note=48 velocity=0 time=0
note_on channel=0 note=72 velocity=20 time=12
note_on channel=0 note=75 velocity=20 time=0
note_on channel=0 note=51 velocity=22 time=0
note_on channel=0 note=48 velocity=17 time=0
note_on channel=0 note=44 velocity=17 time=0
note_on channel=0 note=44 velocity=0 time=228
note_on channel=0 note=72 velocity=0 time=0
note_on channel=0 note=75 velocity=0 time=0
note_on channel=0 note=51 velocity=0 time=0
note_on channel=0 note=48 velocity=0 time=0
<meta message set_tempo tempo=458015 time=12>
note_on channel=0 note=80 velocity=0 time=0
note_on channel=0 note=68 velocity=48 time=0
note_on channel=0 note=37 velocity=42 time=0
control_change channel=0 control=64 value=0 time=6
control_change channel=0 control=91 value=127 time=2
control_change channel=0 control=91 value=127 time=8
control_change channel=0 control=64 value=126 time=144
note_on channel=0 note=37 velocity=0 time=68
note_on channel=0 note=65 velocity=27 time=12
note_on channel=0 note=56 velocity=27 time=0
note_on channel=0 note=53 velocity=26 time=0
note_on channel=0 note=49 velocity=22 time=0
note_on channel=0 note=44 velocity=22 time=0
note_on channel=0 note=44 velocity=0 time=228
note_on channel=0 note=65 velocity=0 time=0
note_on channel=0 note=56 velocity=0 time=0
note_on channel=0 note=53 velocity=0 time=0
note_on channel=0 note=49 velocity=0 time=0
<meta message set_tempo tempo=444444 time=12>
note_on channel=0 note=65 velocity=26 time=0
note_on channel=0 note=56 velocity=26 time=0
note_on channel=0 note=53 velocity=26 time=0
note_on channel=0 note=44 velocity=22 time=0
note_on channel=0 note=49 velocity=22 time=0
note_on channel=0 note=49 velocity=0 time=228
note_on channel=0 note=65 velocity=0 time=0
note_on channel=0 note=56 velocity=0 time=0
note_on channel=0 note=53 velocity=0 time=0
note_on channel=0 note=44 velocity=0 time=0
note_on channel=0 note=65 velocity=26 time=12
note_on channel=0 note=56 velocity=26 time=0
note_on channel=0 note=53 velocity=26 time=0
note_on channel=0 note=44 velocity=22 time=0
note_on channel=0 note=49 velocity=22 time=0
note_on channel=0 note=49 velocity=0 time=228
note_on channel=0 note=65 velocity=0 time=0
note_on channel=0 note=56 velocity=0 time=0
note_on channel=0 note=53 velocity=0 time=0
note_on channel=0 note=44 velocity=0 time=0
note_on channel=0 note=65 velocity=26 time=12
note_on channel=0 note=56 velocity=26 time=0
note_on channel=0 note=53 velocity=26 time=0
note_on channel=0 note=44 velocity=22 time=0
note_on channel=0 note=49 velocity=22 time=0
note_on channel=0 note=49 velocity=0 time=228
note_on channel=0 note=65 velocity=0 time=0
note_on channel=0 note=56 velocity=0 time=0
note_on channel=0 note=53 velocity=0 time=0
note_on channel=0 note=44 velocity=0 time=0
note_on channel=0 note=65 velocity=26 time=12
note_on channel=0 note=56 velocity=26 time=0
note_on channel=0 note=53 velocity=26 time=0
note_on channel=0 note=44 velocity=22 time=0
note_on channel=0 note=49 velocity=22 time=0
note_on channel=0 note=49 velocity=0 time=228
note_on channel=0 note=53 velocity=0 time=0
note_on channel=0 note=44 velocity=0 time=0
<meta message set_tempo tempo=500000 time=12>
note_on channel=0 note=68 velocity=0 time=0
note_on channel=0 note=56 velocity=0 time=0
note_on channel=0 note=65 velocity=0 time=0
note_on channel=0 note=68 velocity=45 time=0
note_on channel=0 note=53 velocity=26 time=0
note_on channel=0 note=44 velocity=22 time=0
note_on channel=0 note=49 velocity=22 time=0
control_change channel=0 control=64 value=0 time=5
control_change channel=0 control=64 value=125 time=144
note_on channel=0 note=49 velocity=0 time=79
note_on channel=0 note=44 velocity=0 time=0
note_on channel=0 note=53 velocity=0 time=0
note_on channel=0 note=65 velocity=26 time=12
note_on channel=0 note=56 velocity=26 time=0
note_on channel=0 note=53 velocity=26 time=0
note_on channel=0 note=44 velocity=22 time=0
note_on channel=0 note=49 velocity=22 time=0
note_on channel=0 note=49 velocity=0 time=228
note_on channel=0 note=65 velocity=0 time=0
note_on channel=0 note=56 velocity=0 time=0
note_on channel=0 note=53 velocity=0 time=0
note_on channel=0 note=44 velocity=0 time=0
<meta message set_tempo tempo=428571 time=12>
note_on channel=0 note=68 velocity=0 time=0
note_on channel=0 note=70 velocity=52 time=0
note_on channel=0 note=53 velocity=26 time=0
note_on channel=0 note=44 velocity=22 time=0
note_on channel=0 note=49 velocity=22 time=0
note_on channel=0 note=49 velocity=0 time=228
note_on channel=0 note=44 velocity=0 time=0
note_on channel=0 note=53 velocity=0 time=0
note_on channel=0 note=58 velocity=27 time=12
note_on channel=0 note=65 velocity=27 time=0
note_on channel=0 note=53 velocity=26 time=0
note_on channel=0 note=44 velocity=22 time=0
note_on channel=0 note=49 velocity=22 time=0
note_on channel=0 note=49 velocity=0 time=228
note_on channel=0 note=58 velocity=0 time=0
note_on channel=0 note=65 velocity=0 time=0
note_on channel=0 note=53 velocity=0 time=0
note_on channel=0 note=44 velocity=0 time=0
note_on channel=0 note=70 velocity=0 time=12
note_on channel=0 note=68 velocity=45 time=0
note_on channel=0 note=53 velocity=26 time=0
note_on channel=0 note=44 velocity=22 time=0
note_on channel=0 note=49 velocity=22 time=0
<meta message set_tempo tempo=444444 time=8>
note_on channel=0 note=49 velocity=0 time=220
note_on channel=0 note=44 velocity=0 time=0
note_on channel=0 note=53 velocity=0 time=0
note_on channel=0 note=65 velocity=26 time=12
note_on channel=0 note=56 velocity=26 time=0
note_on channel=0 note=53 velocity=26 time=0
note_on channel=0 note=49 velocity=22 time=0
note_on channel=0 note=44 velocity=22 time=0
note_on channel=0 note=44 velocity=0 time=228
note_on channel=0 note=53 velocity=0 time=0
note_on channel=0 note=56 velocity=0 time=0
note_on channel=0 note=49 velocity=0 time=0
<meta message set_tempo tempo=446097 time=4>
note_on channel=0 note=68 velocity=0 time=8
note_on channel=0 note=65 velocity=0 time=0
note_on channel=0 note=70 velocity=57 time=0
note_on channel=0 note=36 velocity=41 time=0
control_change channel=0 control=64 value=0 time=4
control_change channel=0 control=64 value=126 time=202
note_on channel=0 note=36 velocity=0 time=22
note_on channel=0 note=56 velocity=26 time=12
note_on channel=0 note=66 velocity=26 time=0
note_on channel=0 note=51 velocity=22 time=0
note_on channel=0 note=54 velocity=26 time=0
note_on channel=0 note=44 velocity=22 time=0
note_on channel=0 note=44 velocity=0 time=228
note_on channel=0 note=56 velocity=0 time=0
note_on channel=0 note=66 velocity=0 time=0
note_on channel=0 note=51 velocity=0 time=0
note_on channel=0 note=54 velocity=0 time=0
note_on channel=0 note=56 velocity=26 time=12
note_on channel=0 note=66 velocity=26 time=0
note_on channel=0 note=44 velocity=22 time=0
note_on channel=0 note=51 velocity=22 time=0
note_on channel=0 note=54 velocity=26 time=0
note_on channel=0 note=54 velocity=0 time=228
note_on channel=0 note=56 velocity=0 time=0
note_on channel=0 note=66 velocity=0 time=0
note_on channel=0 note=44 velocity=0 time=0
note_on channel=0 note=51 velocity=0 time=0
note_on channel=0 note=56 velocity=26 time=12
note_on channel=0 note=66 velocity=26 time=0
note_on channel=0 note=44 velocity=22 time=0
note_on channel=0 note=51 velocity=22 time=0
note_on channel=0 note=54 velocity=26 time=0
note_on channel=0 note=54 velocity=0 time=228
note_on channel=0 note=56 velocity=0 time=0
note_on channel=0 note=66 velocity=0 time=0
note_on channel=0 note=44 velocity=0 time=0
note_on channel=0 note=51 velocity=0 time=0
note_on channel=0 note=56 velocity=26 time=12
note_on channel=0 note=66 velocity=26 time=0
note_on channel=0 note=44 velocity=22 time=0
note_on channel=0 note=51 velocity=22 time=0
note_on channel=0 note=54 velocity=26 time=0
note_on channel=0 note=54 velocity=0 time=228
note_on channel=0 note=56 velocity=0 time=0
note_on channel=0 note=66 velocity=0 time=0
note_on channel=0 note=44 velocity=0 time=0
note_on channel=0 note=51 velocity=0 time=0
note_on channel=0 note=56 velocity=26 time=12
note_on channel=0 note=66 velocity=26 time=0
note_on channel=0 note=44 velocity=22 time=0
note_on channel=0 note=51 velocity=22 time=0
note_on channel=0 note=54 velocity=26 time=0
note_on channel=0 note=54 velocity=0 time=228
note_on channel=0 note=56 velocity=0 time=0
note_on channel=0 note=66 velocity=0 time=0
note_on channel=0 note=44 velocity=0 time=0
note_on channel=0 note=51 velocity=0 time=0
note_on channel=0 note=70 velocity=0 time=12
note_on channel=0 note=68 velocity=50 time=0
note_on channel=0 note=44 velocity=22 time=0
note_on channel=0 note=51 velocity=22 time=0
note_on channel=0 note=54 velocity=26 time=0
control_change channel=0 control=64 value=0 time=5
control_change channel=0 control=64 value=125 time=151
note_on channel=0 note=54 velocity=0 time=72
note_on channel=0 note=51 velocity=0 time=0
note_on channel=0 note=44 velocity=0 time=0
note_on channel=0 note=56 velocity=28 time=12
note_on channel=0 note=66 velocity=28 time=0
note_on channel=0 note=44 velocity=22 time=0
note_on channel=0 note=51 velocity=22 time=0
note_on channel=0 note=54 velocity=26 time=0
note_on channel=0 note=54 velocity=0 time=228
note_on channel=0 note=56 velocity=0 time=0
note_on channel=0 note=66 velocity=0 time=0
note_on channel=0 note=44 velocity=0 time=0
note_on channel=0 note=51 velocity=0 time=0
note_on channel=0 note=56 velocity=29 time=12
note_on channel=0 note=66 velocity=29 time=0
note_on channel=0 note=44 velocity=22 time=0
note_on channel=0 note=51 velocity=22 time=0
note_on channel=0 note=54 velocity=26 time=0
note_on channel=0 note=54 velocity=0 time=228
note_on channel=0 note=56 velocity=0 time=0
note_on channel=0 note=66 velocity=0 time=0
note_on channel=0 note=44 velocity=0 time=0
note_on channel=0 note=51 velocity=0 time=0
note_on channel=0 note=56 velocity=29 time=12
note_on channel=0 note=66 velocity=29 time=0
note_on channel=0 note=44 velocity=22 time=0
note_on channel=0 note=51 velocity=22 time=0
note_on channel=0 note=54 velocity=26 time=0
note_on channel=0 note=54 velocity=0 time=228
note_on channel=0 note=56 velocity=0 time=0
note_on channel=0 note=66 velocity=0 time=0
note_on channel=0 note=44 velocity=0 time=0
note_on channel=0 note=51 velocity=0 time=0
note_on channel=0 note=56 velocity=29 time=12
note_on channel=0 note=66 velocity=29 time=0
note_on channel=0 note=51 velocity=22 time=0
note_on channel=0 note=44 velocity=22 time=0
note_on channel=0 note=54 velocity=26 time=0
note_on channel=0 note=54 velocity=0 time=228
note_on channel=0 note=56 velocity=0 time=0
note_on channel=0 note=66 velocity=0 time=0
note_on channel=0 note=51 velocity=0 time=0
note_on channel=0 note=44 velocity=0 time=0
note_on channel=0 note=56 velocity=29 time=12
note_on channel=0 note=66 velocity=29 time=0
note_on channel=0 note=44 velocity=22 time=0
note_on channel=0 note=51 velocity=22 time=0
note_on channel=0 note=54 velocity=26 time=0
note_on channel=0 note=54 velocity=0 time=228
note_on channel=0 note=56 velocity=0 time=0
note_on channel=0 note=66 velocity=0 time=0
note_on channel=0 note=44 velocity=0 time=0
note_on channel=0 note=51 velocity=0 time=0
note_on channel=0 note=68 velocity=0 time=12
note_on channel=0 note=68 velocity=52 time=0
note_on channel=0 note=37 velocity=40 time=0
control_change channel=0 control=64 value=0 time=5
control_change channel=0 control=64 value=126 time=190
note_on channel=0 note=37 velocity=0 time=33
note_on channel=0 note=65 velocity=26 time=12
note_on channel=0 note=56 velocity=26 time=0
note_on channel=0 note=53 velocity=26 time=0
note_on channel=0 note=49 velocity=22 time=0
note_on channel=0 note=44 velocity=22 time=0
note_on channel=0 note=44 velocity=0 time=228
note_on channel=0 note=65 velocity=0 time=0
note_on channel=0 note=56 velocity=0 time=0
note_on channel=0 note=53 velocity=0 time=0
note_on channel=0 note=49 velocity=0 time=0
note_on channel=0 note=65 velocity=26 time=12
note_on channel=0 note=56 velocity=26 time=0
note_on channel=0 note=53 velocity=26 time=0
note_on channel=0 note=44 velocity=22 time=0
note_on channel=0 note=49 velocity=22 time=0
note_on channel=0 note=49 velocity=0 time=228
note_on channel=0 note=65 velocity=0 time=0
note_on channel=0 note=56 velocity=0 time=0
note_on channel=0 note=53 velocity=0 time=0
note_on channel=0 note=44 velocity=0 time=0
note_on channel=0 note=65 velocity=26 time=12
note_on channel=0 note=56 velocity=26 time=0
note_on channel=0 note=53 velocity=26 time=0
note_on channel=0 note=44 velocity=22 time=0
note_on channel=0 note=49 velocity=22 time=0
note_on channel=0 note=49 velocity=0 time=228
note_on channel=0 note=65 velocity=0 time=0
note_on channel=0 note=56 velocity=0 time=0
note_on channel=0 note=53 velocity=0 time=0
note_on channel=0 note=44 velocity=0 time=0
note_on channel=0 note=65 velocity=26 time=12
note_on channel=0 note=56 velocity=26 time=0
note_on channel=0 note=53 velocity=26 time=0
note_on channel=0 note=44 velocity=22 time=0
note_on channel=0 note=49 velocity=22 time=0
note_on channel=0 note=49 velocity=0 time=228
note_on channel=0 note=65 velocity=0 time=0
note_on channel=0 note=56 velocity=0 time=0
note_on channel=0 note=53 velocity=0 time=0
note_on channel=0 note=44 velocity=0 time=0
note_on channel=0 note=65 velocity=27 time=12
note_on channel=0 note=56 velocity=27 time=0
note_on channel=0 note=53 velocity=26 time=0
note_on channel=0 note=44 velocity=22 time=0
note_on channel=0 note=49 velocity=22 time=0
note_on channel=0 note=49 velocity=0 time=228
note_on channel=0 note=65 velocity=0 time=0
note_on channel=0 note=56 velocity=0 time=0
note_on channel=0 note=53 velocity=0 time=0
note_on channel=0 note=44 velocity=0 time=0
note_on channel=0 note=68 velocity=0 time=12
note_on channel=0 note=77 velocity=64 time=0
note_on channel=0 note=53 velocity=26 time=0
note_on channel=0 note=44 velocity=22 time=0
note_on channel=0 note=49 velocity=22 time=0
<meta message set_tempo tempo=428571 time=8>
control_change channel=0 control=64 value=1 time=0
control_change channel=0 control=64 value=125 time=164
note_on channel=0 note=49 velocity=0 time=56
note_on channel=0 note=44 velocity=0 time=0
note_on channel=0 note=53 velocity=0 time=0
note_on channel=0 note=65 velocity=28 time=12
note_on channel=0 note=68 velocity=28 time=0
note_on channel=0 note=53 velocity=26 time=0
note_on channel=0 note=44 velocity=22 time=0
note_on channel=0 note=49 velocity=22 time=0
note_on channel=0 note=49 velocity=0 time=228
note_on channel=0 note=65 velocity=0 time=0
note_on channel=0 note=68 velocity=0 time=0
note_on channel=0 note=53 velocity=0 time=0
note_on channel=0 note=44 velocity=0 time=0
note_on channel=0 note=77 velocity=0 time=12
note_on channel=0 note=75 velocity=59 time=0
note_on channel=0 note=53 velocity=26 time=0
note_on channel=0 note=44 velocity=22 time=0
note_on channel=0 note=49 velocity=22 time=0
note_on channel=0 note=49 velocity=0 time=228
note_on channel=0 note=44 velocity=0 time=0
note_on channel=0 note=53 velocity=0 time=0
note_on channel=0 note=63 velocity=27 time=12
note_on channel=0 note=68 velocity=27 time=0
note_on channel=0 note=53 velocity=26 time=0
note_on channel=0 note=44 velocity=22 time=0
note_on channel=0 note=49 velocity=22 time=0
note_on channel=0 note=49 velocity=0 time=228
note_on channel=0 note=63 velocity=0 time=0
note_on channel=0 note=68 velocity=0 time=0
note_on channel=0 note=53 velocity=0 time=0
note_on channel=0 note=44 velocity=0 time=0
note_on channel=0 note=75 velocity=0 time=12
note_on channel=0 note=73 velocity=60 time=0
note_on channel=0 note=53 velocity=26 time=0
note_on channel=0 note=44 velocity=22 time=0
note_on channel=0 note=49 velocity=22 time=0
<meta message set_tempo tempo=524017 time=8>
note_on channel=0 note=49 velocity=0 time=220
note_on channel=0 note=44 velocity=0 time=0
note_on channel=0 note=53 velocity=0 time=0
note_on channel=0 note=61 velocity=27 time=12
note_on channel=0 note=68 velocity=27 time=0
note_on channel=0 note=53 velocity=26 time=0
note_on channel=0 note=49 velocity=22 time=0
note_on channel=0 note=44 velocity=22 time=0
note_on channel=0 note=44 velocity=0 time=228
note_on channel=0 note=61 velocity=0 time=0
note_on channel=0 note=68 velocity=0 time=0
note_on channel=0 note=53 velocity=0 time=0
note_on channel=0 note=49 velocity=0 time=0
note_on channel=0 note=73 velocity=0 time=12
note_on channel=0 note=73 velocity=60 time=0
note_on channel=0 note=39 velocity=39 time=0
control_change channel=0 control=64 value=0 time=7
<meta message set_tempo tempo=444444 time=1>
note_on channel=0 note=39 velocity=0 time=220
note_on channel=0 note=61 velocity=27 time=12
note_on channel=0 note=68 velocity=27 time=0
note_on channel=0 note=51 velocity=22 time=0
note_on channel=0 note=54 velocity=26 time=0
note_on channel=0 note=44 velocity=22 time=0
control_change channel=0 control=64 value=126 time=28
note_on channel=0 note=44 velocity=0 time=200
note_on channel=0 note=61 velocity=0 time=0
note_on channel=0 note=68 velocity=0 time=0
note_on channel=0 note=51 velocity=0 time=0
note_on channel=0 note=54 velocity=0 time=0
note_on channel=0 note=61 velocity=27 time=12
note_on channel=0 note=68 velocity=27 time=0
note_on channel=0 note=44 velocity=22 time=0
note_on channel=0 note=51 velocity=22 time=0
note_on channel=0 note=54 velocity=26 time=0
note_on channel=0 note=54 velocity=0 time=228
note_on channel=0 note=61 velocity=0 time=0
note_on channel=0 note=68 velocity=0 time=0
note_on channel=0 note=44 velocity=0 time=0
note_on channel=0 note=51 velocity=0 time=0
note_on channel=0 note=61 velocity=27 time=12
note_on channel=0 note=68 velocity=27 time=0
note_on channel=0 note=44 velocity=22 time=0
note_on channel=0 note=51 velocity=22 time=0
note_on channel=0 note=54 velocity=26 time=0
note_on channel=0 note=54 velocity=0 time=228
note_on channel=0 note=61 velocity=0 time=0
note_on channel=0 note=68 velocity=0 time=0
note_on channel=0 note=44 velocity=0 time=0
note_on channel=0 note=51 velocity=0 time=0
note_on channel=0 note=61 velocity=27 time=12
note_on channel=0 note=68 velocity=27 time=0
note_on channel=0 note=44 velocity=22 time=0
note_on channel=0 note=51 velocity=22 time=0
note_on channel=0 note=54 velocity=26 time=0
note_on channel=0 note=54 velocity=0 time=228
note_on channel=0 note=61 velocity=0 time=0
note_on channel=0 note=68 velocity=0 time=0
note_on channel=0 note=44 velocity=0 time=0
note_on channel=0 note=51 velocity=0 time=0
note_on channel=0 note=61 velocity=27 time=12
note_on channel=0 note=68 velocity=27 time=0
note_on channel=0 note=44 velocity=22 time=0
note_on channel=0 note=51 velocity=22 time=0
note_on channel=0 note=54 velocity=26 time=0
note_on channel=0 note=54 velocity=0 time=228
note_on channel=0 note=61 velocity=0 time=0
note_on channel=0 note=68 velocity=0 time=0
note_on channel=0 note=44 velocity=0 time=0
note_on channel=0 note=51 velocity=0 time=0
note_on channel=0 note=73 velocity=0 time=12
note_on channel=0 note=72 velocity=61 time=0
note_on channel=0 note=44 velocity=22 time=0
note_on channel=0 note=51 velocity=22 time=0
note_on channel=0 note=54 velocity=26 time=0
control_change channel=0 control=64 value=0 time=9
control_change channel=0 control=64 value=125 time=140
note_on channel=0 note=54 velocity=0 time=79
note_on channel=0 note=51 velocity=0 time=0
note_on channel=0 note=44 velocity=0 time=0
note_on channel=0 note=60 velocity=27 time=12
note_on channel=0 note=68 velocity=27 time=0
note_on channel=0 note=44 velocity=22 time=0
note_on channel=0 note=51 velocity=22 time=0
note_on channel=0 note=54 velocity=26 time=0
note_on channel=0 note=54 velocity=0 time=228
note_on channel=0 note=60 velocity=0 time=0
note_on channel=0 note=68 velocity=0 time=0
note_on channel=0 note=44 velocity=0 time=0
note_on channel=0 note=51 velocity=0 time=0
note_on channel=0 note=60 velocity=27 time=12
note_on channel=0 note=68 velocity=27 time=0
note_on channel=0 note=44 velocity=22 time=0
note_on channel=0 note=51 velocity=22 time=0
note_on channel=0 note=54 velocity=26 time=0
note_on channel=0 note=54 velocity=0 time=228
note_on channel=0 note=60 velocity=0 time=0
note_on channel=0 note=68 velocity=0 time=0
note_on channel=0 note=44 velocity=0 time=0
note_on channel=0 note=51 velocity=0 time=0
note_on channel=0 note=60 velocity=27 time=12
note_on channel=0 note=68 velocity=27 time=0
note_on channel=0 note=44 velocity=22 time=0
note_on channel=0 note=51 velocity=22 time=0
note_on channel=0 note=54 velocity=26 time=0
note_on channel=0 note=54 velocity=0 time=228
note_on channel=0 note=60 velocity=0 time=0
note_on channel=0 note=68 velocity=0 time=0
note_on channel=0 note=44 velocity=0 time=0
note_on channel=0 note=51 velocity=0 time=0
note_on channel=0 note=60 velocity=27 time=12
note_on channel=0 note=68 velocity=27 time=0
note_on channel=0 note=51 velocity=22 time=0
note_on channel=0 note=44 velocity=22 time=0
note_on channel=0 note=54 velocity=26 time=0
note_on channel=0 note=54 velocity=0 time=228
note_on channel=0 note=60 velocity=0 time=0
note_on channel=0 note=68 velocity=0 time=0
note_on channel=0 note=51 velocity=0 time=0
note_on channel=0 note=44 velocity=0 time=0
note_on channel=0 note=60 velocity=27 time=12
note_on channel=0 note=68 velocity=27 time=0
note_on channel=0 note=44 velocity=22 time=0
note_on channel=0 note=51 velocity=22 time=0
note_on channel=0 note=54 velocity=26 time=0
note_on channel=0 note=54 velocity=0 time=228
note_on channel=0 note=60 velocity=0 time=0
note_on channel=0 note=68 velocity=0 time=0
note_on channel=0 note=44 velocity=0 time=0
note_on channel=0 note=51 velocity=0 time=0
<meta message set_tempo tempo=481928 time=4>
note_on channel=0 note=72 velocity=0 time=8
note_on channel=0 note=72 velocity=58 time=0
note_on channel=0 note=40 velocity=42 time=0
control_change channel=0 control=64 value=0 time=4
control_change channel=0 control=64 value=124 time=179
note_on channel=0 note=40 velocity=0 time=45
note_on channel=0 note=60 velocity=35 time=12
note_on channel=0 note=69 velocity=35 time=0
note_on channel=0 note=52 velocity=35 time=0
note_on channel=0 note=45 velocity=29 time=0
note_on channel=0 note=45 velocity=0 time=228
note_on channel=0 note=69 velocity=0 time=0
note_on channel=0 note=52 velocity=0 time=0
note_on channel=0 note=60 velocity=0 time=0
<meta message set_tempo tempo=430108 time=4>
note_on channel=0 note=72 velocity=0 time=8
note_on channel=0 note=73 velocity=68 time=0
note_on channel=0 note=45 velocity=29 time=0
note_on channel=0 note=52 velocity=35 time=0
control_change channel=0 control=64 value=0 time=12
control_change channel=0 control=64 value=125 time=171
note_on channel=0 note=52 velocity=0 time=45
note_on channel=0 note=45 velocity=0 time=0
note_on channel=0 note=61 velocity=35 time=12
note_on channel=0 note=69 velocity=35 time=0
note_on channel=0 note=45 velocity=29 time=0
note_on channel=0 note=52 velocity=35 time=0
note_on channel=0 note=52 velocity=0 time=228
note_on channel=0 note=69 velocity=0 time=0
note_on channel=0 note=45 velocity=0 time=0
note_on channel=0 note=61 velocity=0 time=0
note_on channel=0 note=61 velocity=35 time=12
note_on channel=0 note=69 velocity=35 time=0
note_on channel=0 note=45 velocity=29 time=0
note_on channel=0 note=52 velocity=35 time=0
note_on channel=0 note=52 velocity=0 time=228
note_on channel=0 note=69 velocity=0 time=0
note_on channel=0 note=45 velocity=0 time=0
note_on channel=0 note=61 velocity=0 time=0
note_on channel=0 note=61 velocity=35 time=12
note_on channel=0 note=69 velocity=35 time=0
note_on channel=0 note=45 velocity=29 time=0
note_on channel=0 note=52 velocity=35 time=0
note_on channel=0 note=52 velocity=0 time=228
note_on channel=0 note=69 velocity=0 time=0
note_on channel=0 note=45 velocity=0 time=0
note_on channel=0 note=61 velocity=0 time=0
note_on channel=0 note=61 velocity=35 time=12
note_on channel=0 note=69 velocity=35 time=0
note_on channel=0 note=52 velocity=35 time=0
note_on channel=0 note=45 velocity=29 time=0
note_on channel=0 note=45 velocity=0 time=228
note_on channel=0 note=69 velocity=0 time=0
note_on channel=0 note=52 velocity=0 time=0
note_on channel=0 note=61 velocity=0 time=0
note_on channel=0 note=61 velocity=35 time=12
note_on channel=0 note=69 velocity=35 time=0
note_on channel=0 note=45 velocity=29 time=0
note_on channel=0 note=52 velocity=35 time=0
note_on channel=0 note=52 velocity=0 time=228
note_on channel=0 note=69 velocity=0 time=0
note_on channel=0 note=45 velocity=0 time=0
note_on channel=0 note=61 velocity=0 time=0
note_on channel=0 note=73 velocity=0 time=12
note_on channel=0 note=73 velocity=70 time=0
note_on channel=0 note=40 velocity=35 time=0
note_on channel=0 note=61 velocity=35 time=240
note_on channel=0 note=69 velocity=35 time=0
note_on channel=0 note=52 velocity=35 time=0
note_on channel=0 note=45 velocity=29 time=0
note_on channel=0 note=45 velocity=0 time=240
note_on channel=0 note=40 velocity=0 time=0
note_on channel=0 note=61 velocity=0 time=0
note_on channel=0 note=73 velocity=0 time=0
note_on channel=0 note=52 velocity=0 time=0
note_on channel=0 note=69 velocity=0 time=0
note_on channel=0 note=73 velocity=69 time=0
note_on channel=0 note=40 velocity=35 time=0
note_on channel=0 note=61 velocity=35 time=240
note_on channel=0 note=69 velocity=35 time=0
note_on channel=0 note=52 velocity=35 time=0
note_on channel=0 note=45 velocity=29 time=0
<meta message set_tempo tempo=480000 time=232>
note_on channel=0 note=45 velocity=0 time=8
note_on channel=0 note=40 velocity=0 time=0
note_on channel=0 note=61 velocity=0 time=0
note_on channel=0 note=73 velocity=0 time=0
note_on channel=0 note=52 velocity=0 time=0
note_on channel=0 note=69 velocity=0 time=0
note_on channel=0 note=73 velocity=70 time=0
note_on channel=0 note=35 velocity=42 time=0
control_change channel=0 control=64 value=0 time=4
control_change channel=0 control=64 value=126 time=111
note_on channel=0 note=35 velocity=0 time=113
note_on channel=0 note=61 velocity=44 time=12
note_on channel=0 note=68 velocity=44 time=0
note_on channel=0 note=47 velocity=38 time=0
note_on channel=0 note=40 velocity=31 time=0
control_change channel=0 control=64 value=0 time=196
note_on channel=0 note=40 velocity=0 time=32
note_on channel=0 note=68 velocity=0 time=0
note_on channel=0 note=47 velocity=0 time=0
note_on channel=0 note=61 velocity=0 time=0
<meta message set_tempo tempo=431655 time=12>
note_on channel=0 note=73 velocity=0 time=0
note_on channel=0 note=74 velocity=78 time=0
note_on channel=0 note=40 velocity=31 time=0
note_on channel=0 note=47 velocity=38 time=0
control_change channel=0 control=64 value=125 time=68
note_on channel=0 note=47 velocity=0 time=160
note_on channel=0 note=40 velocity=0 time=0
note_on channel=0 note=62 velocity=44 time=12
note_on channel=0 note=68 velocity=44 time=0
note_on channel=0 note=40 velocity=31 time=0
note_on channel=0 note=47 velocity=38 time=0
note_on channel=0 note=47 velocity=0 time=228
note_on channel=0 note=68 velocity=0 time=0
note_on channel=0 note=40 velocity=0 time=0
note_on channel=0 note=62 velocity=0 time=0
note_on channel=0 note=62 velocity=44 time=12
note_on channel=0 note=68 velocity=44 time=0
note_on channel=0 note=47 velocity=38 time=0
note_on channel=0 note=40 velocity=31 time=0
note_on channel=0 note=40 velocity=0 time=228
note_on channel=0 note=68 velocity=0 time=0
note_on channel=0 note=47 velocity=0 time=0
note_on channel=0 note=62 velocity=0 time=0
note_on channel=0 note=62 velocity=44 time=12
note_on channel=0 note=68 velocity=44 time=0
note_on channel=0 note=40 velocity=31 time=0
note_on channel=0 note=47 velocity=38 time=0
note_on channel=0 note=47 velocity=0 time=228
note_on channel=0 note=68 velocity=0 time=0
note_on channel=0 note=40 velocity=0 time=0
note_on channel=0 note=62 velocity=0 time=0
note_on channel=0 note=62 velocity=44 time=12
note_on channel=0 note=68 velocity=44 time=0
note_on channel=0 note=40 velocity=34 time=0
note_on channel=0 note=47 velocity=39 time=0
note_on channel=0 note=47 velocity=0 time=228
note_on channel=0 note=68 velocity=0 time=0
note_on channel=0 note=40 velocity=0 time=0
note_on channel=0 note=62 velocity=0 time=0
note_on channel=0 note=62 velocity=44 time=12
note_on channel=0 note=68 velocity=44 time=0
note_on channel=0 note=40 velocity=34 time=0
note_on channel=0 note=47 velocity=39 time=0
note_on channel=0 note=47 velocity=0 time=228
note_on channel=0 note=68 velocity=0 time=0
note_on channel=0 note=40 velocity=0 time=0
note_on channel=0 note=62 velocity=0 time=0
note_on channel=0 note=74 velocity=0 time=12
note_on channel=0 note=74 velocity=75 time=0
note_on channel=0 note=35 velocity=39 time=0
control_change channel=0 control=64 value=0 time=11
control_change channel=0 control=64 value=125 time=138
note_on channel=0 note=62 velocity=44 time=91
note_on channel=0 note=68 velocity=44 time=0
note_on channel=0 note=40 velocity=34 time=0
note_on channel=0 note=47 velocity=39 time=0
note_on channel=0 note=47 velocity=0 time=240
note_on channel=0 note=35 velocity=0 time=0
note_on channel=0 note=62 velocity=0 time=0
note_on channel=0 note=74 velocity=0 time=0
note_on channel=0 note=40 velocity=0 time=0
note_on channel=0 note=68 velocity=0 time=0
note_on channel=0 note=74 velocity=75 time=0
note_on channel=0 note=35 velocity=39 time=0
note_on channel=0 note=62 velocity=44 time=240
note_on channel=0 note=68 velocity=44 time=0
note_on channel=0 note=47 velocity=39 time=0
note_on channel=0 note=40 velocity=34 time=0
<meta message set_tempo tempo=478088 time=232>
<meta message set_tempo tempo=480000 time=8>
note_on channel=0 note=40 velocity=0 time=0
note_on channel=0 note=35 velocity=0 time=0
note_on channel=0 note=62 velocity=0 time=0
note_on channel=0 note=74 velocity=0 time=0
note_on channel=0 note=47 velocity=0 time=0
note_on channel=0 note=68 velocity=0 time=0
note_on channel=0 note=77 velocity=84 time=0
note_on channel=0 note=38 velocity=49 time=0
control_change channel=0 control=64 value=0 time=5
control_change channel=0 control=64 value=126 time=121
note_on channel=0 note=38 velocity=0 time=114
note_on channel=0 note=65 velocity=46 time=0
note_on channel=0 note=74 velocity=46 time=0
note_on channel=0 note=45 velocity=35 time=0
note_on channel=0 note=50 velocity=42 time=0
note_on channel=0 note=50 velocity=0 time=228
note_on channel=0 note=74 velocity=0 time=0
note_on channel=0 note=45 velocity=0 time=0
note_on channel=0 note=65 velocity=0 time=0
<meta message set_tempo tempo=431655 time=12>
note_on channel=0 note=77 velocity=0 time=0
note_on channel=0 note=78 velocity=88 time=0
note_on channel=0 note=45 velocity=35 time=0
note_on channel=0 note=50 velocity=42 time=0
control_change channel=0 control=64 value=0 time=18
control_change channel=0 control=64 value=126 time=165
note_on channel=0 note=50 velocity=0 time=45
note_on channel=0 note=45 velocity=0 time=0
note_on channel=0 note=66 velocity=48 time=12
note_on channel=0 note=74 velocity=48 time=0
note_on channel=0 note=45 velocity=35 time=0
note_on channel=0 note=50 velocity=42 time=0
note_on channel=0 note=50 velocity=0 time=228
note_on channel=0 note=74 velocity=0 time=0
note_on channel=0 note=45 velocity=0 time=0
note_on channel=0 note=66 velocity=0 time=0
note_on channel=0 note=66 velocity=47 time=12
note_on channel=0 note=74 velocity=47 time=0
note_on channel=0 note=45 velocity=35 time=0
note_on channel=0 note=50 velocity=42 time=0
note_on channel=0 note=50 velocity=0 time=228
note_on channel=0 note=74 velocity=0 time=0
note_on channel=0 note=45 velocity=0 time=0
note_on channel=0 note=66 velocity=0 time=0
note_on channel=0 note=66 velocity=47 time=12
note_on channel=0 note=74 velocity=47 time=0
note_on channel=0 note=45 velocity=35 time=0
note_on channel=0 note=50 velocity=42 time=0
note_on channel=0 note=50 velocity=0 time=228
note_on channel=0 note=74 velocity=0 time=0
note_on channel=0 note=45 velocity=0 time=0
note_on channel=0 note=66 velocity=0 time=0
note_on channel=0 note=66 velocity=47 time=12
note_on channel=0 note=74 velocity=47 time=0
note_on channel=0 note=50 velocity=46 time=0
note_on channel=0 note=45 velocity=39 time=0
note_on channel=0 note=45 velocity=0 time=228
note_on channel=0 note=74 velocity=0 time=0
note_on channel=0 note=50 velocity=0 time=0
note_on channel=0 note=66 velocity=0 time=0
note_on channel=0 note=66 velocity=47 time=12
note_on channel=0 note=74 velocity=47 time=0
note_on channel=0 note=50 velocity=45 time=0
note_on channel=0 note=45 velocity=38 time=0
note_on channel=0 note=45 velocity=0 time=228
note_on channel=0 note=74 velocity=0 time=0
note_on channel=0 note=50 velocity=0 time=0
note_on channel=0 note=66 velocity=0 time=0
note_on channel=0 note=78 velocity=0 time=12
note_on channel=0 note=78 velocity=86 time=0
note_on channel=0 note=38 velocity=45 time=0
control_change channel=0 control=64 value=0 time=9
control_change channel=0 control=64 value=126 time=106
note_on channel=0 note=66 velocity=48 time=125
note_on channel=0 note=74 velocity=48 time=0
note_on channel=0 note=50 velocity=45 time=0
note_on channel=0 note=45 velocity=38 time=0
note_on channel=0 note=45 velocity=0 time=240
note_on channel=0 note=38 velocity=0 time=0
note_on channel=0 note=66 velocity=0 time=0
note_on channel=0 note=78 velocity=0 time=0
note_on channel=0 note=50 velocity=0 time=0
note_on channel=0 note=74 velocity=0 time=0
note_on channel=0 note=78 velocity=86 time=0
note_on channel=0 note=38 velocity=45 time=0
note_on channel=0 note=66 velocity=47 time=240
note_on channel=0 note=74 velocity=47 time=0
note_on channel=0 note=50 velocity=45 time=0
note_on channel=0 note=45 velocity=38 time=0
<meta message set_tempo tempo=478088 time=232>
<meta message set_tempo tempo=480000 time=8>
note_on channel=0 note=45 velocity=0 time=0
note_on channel=0 note=38 velocity=0 time=0
note_on channel=0 note=66 velocity=0 time=0
note_on channel=0 note=78 velocity=0 time=0
note_on channel=0 note=50 velocity=0 time=0
note_on channel=0 note=74 velocity=0 time=0
note_on channel=0 note=78 velocity=86 time=0
note_on channel=0 note=33 velocity=45 time=0
control_change channel=0 control=64 value=0 time=5
control_change channel=0 control=64 value=126 time=98
note_on channel=0 note=66 velocity=47 time=137
note_on channel=0 note=73 velocity=47 time=0
note_on channel=0 note=45 velocity=45 time=0
note_on channel=0 note=40 velocity=38 time=0
<meta message set_tempo tempo=431655 time=240>
note_on channel=0 note=40 velocity=0 time=0
note_on channel=0 note=33 velocity=0 time=0
note_on channel=0 note=66 velocity=0 time=0
note_on channel=0 note=78 velocity=0 time=0
note_on channel=0 note=45 velocity=0 time=0
note_on channel=0 note=73 velocity=0 time=0
note_on channel=0 note=79 velocity=96 time=0
note_on channel=0 note=33 velocity=45 time=0
control_change channel=0 control=64 value=0 time=22
control_change channel=0 control=64 value=126 time=173
note_on channel=0 note=33 velocity=0 time=45
note_on channel=0 note=67 velocity=49 time=0
note_on channel=0 note=73 velocity=49 time=0
note_on channel=0 note=45 velocity=45 time=0
note_on channel=0 note=40 velocity=38 time=0
note_on channel=0 note=40 velocity=0 time=228
note_on channel=0 note=73 velocity=0 time=0
note_on channel=0 note=45 velocity=0 time=0
note_on channel=0 note=67 velocity=0 time=0
note_on channel=0 note=67 velocity=49 time=12
note_on channel=0 note=73 velocity=49 time=0
note_on channel=0 note=45 velocity=45 time=0
note_on channel=0 note=40 velocity=38 time=0
note_on channel=0 note=40 velocity=0 time=228
note_on channel=0 note=73 velocity=0 time=0
note_on channel=0 note=45 velocity=0 time=0
note_on channel=0 note=67 velocity=0 time=0
note_on channel=0 note=67 velocity=49 time=12
note_on channel=0 note=73 velocity=49 time=0
note_on channel=0 note=45 velocity=45 time=0
note_on channel=0 note=40 velocity=38 time=0
note_on channel=0 note=40 velocity=0 time=228
note_on channel=0 note=73 velocity=0 time=0
note_on channel=0 note=45 velocity=0 time=0
note_on channel=0 note=67 velocity=0 time=0
note_on channel=0 note=67 velocity=49 time=12
note_on channel=0 note=73 velocity=49 time=0
note_on channel=0 note=45 velocity=49 time=0
note_on channel=0 note=40 velocity=41 time=0
note_on channel=0 note=40 velocity=0 time=228
note_on channel=0 note=73 velocity=0 time=0
note_on channel=0 note=45 velocity=0 time=0
note_on channel=0 note=67 velocity=0 time=0
note_on channel=0 note=67 velocity=49 time=12
note_on channel=0 note=73 velocity=49 time=0
note_on channel=0 note=45 velocity=49 time=0
note_on channel=0 note=40 velocity=41 time=0
note_on channel=0 note=40 velocity=0 time=228
note_on channel=0 note=73 velocity=0 time=0
note_on channel=0 note=45 velocity=0 time=0
note_on channel=0 note=67 velocity=0 time=0
note_on channel=0 note=79 velocity=0 time=12
note_on channel=0 note=79 velocity=93 time=0
note_on channel=0 note=33 velocity=49 time=0
control_change channel=0 control=64 value=0 time=6
control_change channel=0 control=64 value=126 time=120
note_on channel=0 note=67 velocity=48 time=114
note_on channel=0 note=73 velocity=48 time=0
note_on channel=0 note=45 velocity=49 time=0
note_on channel=0 note=40 velocity=41 time=0
note_on channel=0 note=40 velocity=0 time=240
note_on channel=0 note=33 velocity=0 time=0
note_on channel=0 note=67 velocity=0 time=0
note_on channel=0 note=79 velocity=0 time=0
note_on channel=0 note=45 velocity=0 time=0
note_on channel=0 note=73 velocity=0 time=0
note_on channel=0 note=79 velocity=96 time=0
note_on channel=0 note=33 velocity=49 time=0
note_on channel=0 note=67 velocity=50 time=240
note_on channel=0 note=73 velocity=50 time=0
note_on channel=0 note=45 velocity=49 time=0
note_on channel=0 note=40 velocity=41 time=0
<meta message set_tempo tempo=478088 time=232>
<meta message set_tempo tempo=478088 time=8>
note_on channel=0 note=40 velocity=0 time=0
note_on channel=0 note=33 velocity=0 time=0
note_on channel=0 note=67 velocity=0 time=0
note_on channel=0 note=79 velocity=0 time=0
note_on channel=0 note=45 velocity=0 time=0
note_on channel=0 note=73 velocity=0 time=0
note_on channel=0 note=81 velocity=98 time=0
note_on channel=0 note=32 velocity=61 time=0
control_change channel=0 control=64 value=0 time=6
note_on channel=0 note=32 velocity=0 time=222
note_on channel=0 note=73 velocity=51 time=12
note_on channel=0 note=69 velocity=51 time=0
note_on channel=0 note=44 velocity=44 time=0
note_on channel=0 note=49 velocity=44 time=0
note_on channel=0 note=52 velocity=51 time=0
control_change channel=0 control=64 value=126 time=43
note_on channel=0 note=52 velocity=0 time=185
note_on channel=0 note=73 velocity=0 time=0
note_on channel=0 note=69 velocity=0 time=0
note_on channel=0 note=44 velocity=0 time=0
note_on channel=0 note=49 velocity=0 time=0
<meta message set_tempo tempo=428571 time=4>
note_on channel=0 note=81 velocity=0 time=8
note_on channel=0 note=80 velocity=95 time=0
note_on channel=0 note=44 velocity=44 time=0
note_on channel=0 note=49 velocity=44 time=0
note_on channel=0 note=52 velocity=51 time=0
note_on channel=0 note=52 velocity=0 time=228
note_on channel=0 note=49 velocity=0 time=0
note_on channel=0 note=44 velocity=0 time=0
note_on channel=0 note=68 velocity=51 time=12
note_on channel=0 note=73 velocity=51 time=0
note_on channel=0 note=44 velocity=44 time=0
note_on channel=0 note=49 velocity=44 time=0
note_on channel=0 note=52 velocity=52 time=0
note_on channel=0 note=52 velocity=0 time=228
note_on channel=0 note=68 velocity=0 time=0
note_on channel=0 note=73 velocity=0 time=0
note_on channel=0 note=44 velocity=0 time=0
note_on channel=0 note=49 velocity=0 time=0
note_on channel=0 note=68 velocity=44 time=12
note_on channel=0 note=73 velocity=44 time=0
note_on channel=0 note=44 velocity=44 time=0
note_on channel=0 note=49 velocity=44 time=0
note_on channel=0 note=52 velocity=52 time=0
note_on channel=0 note=52 velocity=0 time=228
note_on channel=0 note=68 velocity=0 time=0
note_on channel=0 note=73 velocity=0 time=0
note_on channel=0 note=44 velocity=0 time=0
note_on channel=0 note=49 velocity=0 time=0
note_on channel=0 note=68 velocity=51 time=12
note_on channel=0 note=73 velocity=51 time=0
note_on channel=0 note=44 velocity=44 time=0
note_on channel=0 note=49 velocity=44 time=0
note_on channel=0 note=52 velocity=52 time=0
note_on channel=0 note=52 velocity=0 time=228
note_on channel=0 note=68 velocity=0 time=0
note_on channel=0 note=73 velocity=0 time=0
note_on channel=0 note=44 velocity=0 time=0
note_on channel=0 note=49 velocity=0 time=0
<meta message set_tempo tempo=446097 time=4>
note_on channel=0 note=80 velocity=0 time=8
note_on channel=0 note=81 velocity=97 time=0
note_on channel=0 note=32 velocity=61 time=0
control_change channel=0 control=64 value=0 time=4
control_change channel=0 control=64 value=126 time=129
note_on channel=0 note=32 velocity=0 time=95
note_on channel=0 note=69 velocity=52 time=12
note_on channel=0 note=72 velocity=52 time=0
note_on channel=0 note=44 velocity=44 time=0
note_on channel=0 note=51 velocity=44 time=0
note_on channel=0 note=54 velocity=52 time=0
note_on channel=0 note=54 velocity=0 time=228
note_on channel=0 note=69 velocity=0 time=0
note_on channel=0 note=72 velocity=0 time=0
note_on channel=0 note=44 velocity=0 time=0
note_on channel=0 note=51 velocity=0 time=0
<meta message set_tempo tempo=428571 time=12>
note_on channel=0 note=81 velocity=0 time=0
note_on channel=0 note=80 velocity=93 time=0
note_on channel=0 note=44 velocity=44 time=0
note_on channel=0 note=51 velocity=44 time=0
note_on channel=0 note=54 velocity=52 time=0
control_change channel=0 control=64 value=0 time=13
control_change channel=0 control=64 value=126 time=161
note_on channel=0 note=54 velocity=0 time=54
note_on channel=0 note=51 velocity=0 time=0
note_on channel=0 note=44 velocity=0 time=0
note_on channel=0 note=68 velocity=52 time=12
note_on channel=0 note=72 velocity=52 time=0
note_on channel=0 note=44 velocity=44 time=0
note_on channel=0 note=51 velocity=44 time=0
note_on channel=0 note=54 velocity=52 time=0
<meta message set_tempo tempo=502092 time=224>
note_on channel=0 note=54 velocity=0 time=4
note_on channel=0 note=68 velocity=0 time=0
note_on channel=0 note=72 velocity=0 time=0
note_on channel=0 note=44 velocity=0 time=0
note_on channel=0 note=51 velocity=0 time=0
note_on channel=0 note=68 velocity=52 time=12
note_on channel=0 note=72 velocity=52 time=0
note_on channel=0 note=44 velocity=44 time=0
note_on channel=0 note=51 velocity=44 time=0
note_on channel=0 note=54 velocity=51 time=0
note_on channel=0 note=54 velocity=0 time=228
note_on channel=0 note=68 velocity=0 time=0
note_on channel=0 note=72 velocity=0 time=0
note_on channel=0 note=44 velocity=0 time=0
note_on channel=0 note=51 velocity=0 time=0
note_on channel=0 note=68 velocity=52 time=12
note_on channel=0 note=72 velocity=52 time=0
note_on channel=0 note=44 velocity=44 time=0
note_on channel=0 note=51 velocity=44 time=0
note_on channel=0 note=54 velocity=51 time=0
note_on channel=0 note=54 velocity=0 time=228
note_on channel=0 note=68 velocity=0 time=0
note_on channel=0 note=72 velocity=0 time=0
note_on channel=0 note=44 velocity=0 time=0
note_on channel=0 note=51 velocity=0 time=0
<meta message set_tempo tempo=502092 time=4>
note_on channel=0 note=80 velocity=0 time=8
note_on channel=0 note=73 velocity=86 time=0
note_on channel=0 note=37 velocity=52 time=0
control_change channel=0 control=64 value=0 time=3
note_on channel=0 note=37 velocity=0 time=225
<meta message set_tempo tempo=444444 time=12>
note_on channel=0 note=68 velocity=44 time=0
note_on channel=0 note=61 velocity=44 time=0
note_on channel=0 note=64 velocity=44 time=0
control_change channel=0 control=64 value=127 time=0
note_on channel=0 note=44 velocity=34 time=0
note_on channel=0 note=49 velocity=34 time=0
note_on channel=0 note=52 velocity=40 time=0
note_on channel=0 note=52 velocity=0 time=228
note_on channel=0 note=44 velocity=0 time=0
note_on channel=0 note=68 velocity=0 time=0
note_on channel=0 note=61 velocity=0 time=0
note_on channel=0 note=64 velocity=0 time=0
note_on channel=0 note=49 velocity=0 time=0
note_on channel=0 note=68 velocity=44 time=12
note_on channel=0 note=61 velocity=44 time=0
note_on channel=0 note=64 velocity=44 time=0
note_on channel=0 note=44 velocity=34 time=0
note_on channel=0 note=49 velocity=34 time=0
note_on channel=0 note=52 velocity=40 time=0
note_on channel=0 note=52 velocity=0 time=228
note_on channel=0 note=44 velocity=0 time=0
note_on channel=0 note=68 velocity=0 time=0
note_on channel=0 note=61 velocity=0 time=0
note_on channel=0 note=64 velocity=0 time=0
note_on channel=0 note=49 velocity=0 time=0
note_on channel=0 note=68 velocity=44 time=12
note_on channel=0 note=61 velocity=44 time=0
note_on channel=0 note=64 velocity=44 time=0
note_on channel=0 note=44 velocity=34 time=0
note_on channel=0 note=49 velocity=34 time=0
note_on channel=0 note=52 velocity=40 time=0
note_on channel=0 note=52 velocity=0 time=228
note_on channel=0 note=44 velocity=0 time=0
note_on channel=0 note=68 velocity=0 time=0
note_on channel=0 note=61 velocity=0 time=0
note_on channel=0 note=64 velocity=0 time=0
note_on channel=0 note=49 velocity=0 time=0
note_on channel=0 note=68 velocity=44 time=12
note_on channel=0 note=61 velocity=44 time=0
note_on channel=0 note=64 velocity=44 time=0
note_on channel=0 note=44 velocity=34 time=0
note_on channel=0 note=49 velocity=34 time=0
note_on channel=0 note=52 velocity=40 time=0
note_on channel=0 note=52 velocity=0 time=228
note_on channel=0 note=44 velocity=0 time=0
note_on channel=0 note=68 velocity=0 time=0
note_on channel=0 note=61 velocity=0 time=0
note_on channel=0 note=64 velocity=0 time=0
note_on channel=0 note=49 velocity=0 time=0
note_on channel=0 note=68 velocity=44 time=12
note_on channel=0 note=61 velocity=44 time=0
note_on channel=0 note=64 velocity=44 time=0
note_on channel=0 note=44 velocity=34 time=0
note_on channel=0 note=49 velocity=34 time=0
note_on channel=0 note=52 velocity=40 time=0
note_on channel=0 note=52 velocity=0 time=228
note_on channel=0 note=44 velocity=0 time=0
note_on channel=0 note=68 velocity=0 time=0
note_on channel=0 note=61 velocity=0 time=0
note_on channel=0 note=64 velocity=0 time=0
note_on channel=0 note=49 velocity=0 time=0
note_on channel=0 note=68 velocity=44 time=12
note_on channel=0 note=61 velocity=44 time=0
note_on channel=0 note=64 velocity=44 time=0
note_on channel=0 note=49 velocity=34 time=0
note_on channel=0 note=44 velocity=34 time=0
note_on channel=0 note=52 velocity=39 time=0
note_on channel=0 note=52 velocity=0 time=228
note_on channel=0 note=49 velocity=0 time=0
note_on channel=0 note=68 velocity=0 time=0
note_on channel=0 note=61 velocity=0 time=0
note_on channel=0 note=64 velocity=0 time=0
note_on channel=0 note=44 velocity=0 time=0
note_on channel=0 note=68 velocity=44 time=12
note_on channel=0 note=61 velocity=44 time=0
note_on channel=0 note=64 velocity=44 time=0
note_on channel=0 note=44 velocity=34 time=0
note_on channel=0 note=49 velocity=34 time=0
note_on channel=0 note=52 velocity=39 time=0
note_on channel=0 note=52 velocity=0 time=228
note_on channel=0 note=44 velocity=0 time=0
note_on channel=0 note=68 velocity=0 time=0
note_on channel=0 note=61 velocity=0 time=0
note_on channel=0 note=64 velocity=0 time=0
note_on channel=0 note=49 velocity=0 time=0
note_on channel=0 note=73 velocity=0 time=12
note_on channel=0 note=68 velocity=48 time=0
note_on channel=0 note=44 velocity=30 time=0
note_on channel=0 note=49 velocity=30 time=0
note_on channel=0 note=52 velocity=37 time=0
note_on channel=0 note=52 velocity=0 time=228
note_on channel=0 note=49 velocity=0 time=0
note_on channel=0 note=44 velocity=0 time=0
note_on channel=0 note=61 velocity=26 time=12
note_on channel=0 note=64 velocity=26 time=0
note_on channel=0 note=44 velocity=30 time=0
note_on channel=0 note=49 velocity=30 time=0
note_on channel=0 note=52 velocity=36 time=0
<meta message set_tempo tempo=547945 time=228>
note_on channel=0 note=52 velocity=0 time=0
note_on channel=0 note=61 velocity=0 time=0
note_on channel=0 note=64 velocity=0 time=0
note_on channel=0 note=44 velocity=0 time=0
note_on channel=0 note=49 velocity=0 time=0
note_on channel=0 note=68 velocity=0 time=12
note_on channel=0 note=68 velocity=42 time=0
note_on channel=0 note=44 velocity=28 time=0
note_on channel=0 note=49 velocity=28 time=0
note_on channel=0 note=52 velocity=34 time=0
note_on channel=0 note=52 velocity=0 time=228
note_on channel=0 note=49 velocity=0 time=0
note_on channel=0 note=44 velocity=0 time=0
note_on channel=0 note=61 velocity=26 time=12
note_on channel=0 note=64 velocity=26 time=0
note_on channel=0 note=44 velocity=25 time=0
note_on channel=0 note=49 velocity=25 time=0
note_on channel=0 note=52 velocity=30 time=0
note_on channel=0 note=52 velocity=0 time=228
note_on channel=0 note=61 velocity=0 time=0
note_on channel=0 note=64 velocity=0 time=0
note_on channel=0 note=44 velocity=0 time=0
note_on channel=0 note=49 velocity=0 time=0
<meta message set_tempo tempo=481928 time=12>
note_on channel=0 note=68 velocity=0 time=0
note_on channel=0 note=68 velocity=59 time=0
note_on channel=0 note=32 velocity=26 time=0
control_change channel=0 control=64 value=0 time=6
control_change channel=0 control=64 value=125 time=143
note_on channel=0 note=32 velocity=0 time=79
note_on channel=0 note=63 velocity=26 time=12
note_on channel=0 note=60 velocity=26 time=0
note_on channel=0 note=54 velocity=26 time=0
note_on channel=0 note=51 velocity=22 time=0
note_on channel=0 note=44 velocity=22 time=0
note_on channel=0 note=44 velocity=0 time=228
note_on channel=0 note=63 velocity=0 time=0
note_on channel=0 note=60 velocity=0 time=0
note_on channel=0 note=54 velocity=0 time=0
note_on channel=0 note=51 velocity=0 time=0
note_on channel=0 note=68 velocity=0 time=12
note_on channel=0 note=69 velocity=61 time=0
note_on channel=0 note=54 velocity=26 time=0
note_on channel=0 note=51 velocity=22 time=0
note_on channel=0 note=44 velocity=22 time=0
<meta message set_tempo tempo=444444 time=8>
control_change channel=0 control=64 value=1 time=11
note_on channel=0 note=44 velocity=0 time=209
note_on channel=0 note=51 velocity=0 time=0
note_on channel=0 note=54 velocity=0 time=0
control_change channel=0 control=64 value=127 time=1
note_on channel=0 note=60 velocity=26 time=11
note_on channel=0 note=63 velocity=26 time=0
note_on channel=0 note=54 velocity=26 time=0
note_on channel=0 note=51 velocity=22 time=0
note_on channel=0 note=44 velocity=22 time=0
note_on channel=0 note=44 velocity=0 time=228
note_on channel=0 note=60 velocity=0 time=0
note_on channel=0 note=63 velocity=0 time=0
note_on channel=0 note=54 velocity=0 time=0
note_on channel=0 note=51 velocity=0 time=0
note_on channel=0 note=60 velocity=26 time=12
note_on channel=0 note=63 velocity=26 time=0
note_on channel=0 note=44 velocity=22 time=0
note_on channel=0 note=51 velocity=22 time=0
note_on channel=0 note=54 velocity=26 time=0
note_on channel=0 note=54 velocity=0 time=228
note_on channel=0 note=60 velocity=0 time=0
note_on channel=0 note=63 velocity=0 time=0
note_on channel=0 note=44 velocity=0 time=0
note_on channel=0 note=51 velocity=0 time=0
note_on channel=0 note=60 velocity=26 time=12
note_on channel=0 note=63 velocity=26 time=0
note_on channel=0 note=51 velocity=22 time=0
note_on channel=0 note=44 velocity=22 time=0
note_on channel=0 note=54 velocity=26 time=0
note_on channel=0 note=54 velocity=0 time=228
note_on channel=0 note=60 velocity=0 time=0
note_on channel=0 note=63 velocity=0 time=0
note_on channel=0 note=51 velocity=0 time=0
note_on channel=0 note=44 velocity=0 time=0
note_on channel=0 note=60 velocity=26 time=12
note_on channel=0 note=63 velocity=26 time=0
note_on channel=0 note=44 velocity=22 time=0
note_on channel=0 note=51 velocity=22 time=0
note_on channel=0 note=54 velocity=26 time=0
note_on channel=0 note=54 velocity=0 time=228
note_on channel=0 note=60 velocity=0 time=0
note_on channel=0 note=63 velocity=0 time=0
note_on channel=0 note=44 velocity=0 time=0
note_on channel=0 note=51 velocity=0 time=0
note_on channel=0 note=60 velocity=26 time=12
note_on channel=0 note=63 velocity=26 time=0
note_on channel=0 note=54 velocity=26 time=0
note_on channel=0 note=51 velocity=22 time=0
note_on channel=0 note=44 velocity=22 time=0
note_on channel=0 note=44 velocity=0 time=228
note_on channel=0 note=60 velocity=0 time=0
note_on channel=0 note=63 velocity=0 time=0
note_on channel=0 note=54 velocity=0 time=0
note_on channel=0 note=51 velocity=0 time=0
note_on channel=0 note=69 velocity=0 time=12
note_on channel=0 note=68 velocity=60 time=0
note_on channel=0 note=54 velocity=26 time=0
note_on channel=0 note=51 velocity=22 time=0
note_on channel=0 note=44 velocity=22 time=0
note_on channel=0 note=44 velocity=0 time=228
note_on channel=0 note=51 velocity=0 time=0
note_on channel=0 note=54 velocity=0 time=0
note_on channel=0 note=60 velocity=26 time=12
note_on channel=0 note=63 velocity=26 time=0
note_on channel=0 note=54 velocity=26 time=0
note_on channel=0 note=51 velocity=22 time=0
note_on channel=0 note=44 velocity=22 time=0
note_on channel=0 note=44 velocity=0 time=228
note_on channel=0 note=60 velocity=0 time=0
note_on channel=0 note=63 velocity=0 time=0
note_on channel=0 note=54 velocity=0 time=0
note_on channel=0 note=51 velocity=0 time=0
note_on channel=0 note=68 velocity=0 time=12
note_on channel=0 note=66 velocity=56 time=0
note_on channel=0 note=44 velocity=22 time=0
note_on channel=0 note=51 velocity=22 time=0
note_on channel=0 note=54 velocity=26 time=0
note_on channel=0 note=54 velocity=0 time=228
note_on channel=0 note=51 velocity=0 time=0
note_on channel=0 note=44 velocity=0 time=0
note_on channel=0 note=60 velocity=34 time=12
note_on channel=0 note=63 velocity=26 time=0
note_on channel=0 note=51 velocity=22 time=0
note_on channel=0 note=44 velocity=22 time=0
note_on channel=0 note=54 velocity=26 time=0
note_on channel=0 note=54 velocity=0 time=228
note_on channel=0 note=60 velocity=0 time=0
note_on channel=0 note=63 velocity=0 time=0
note_on channel=0 note=51 velocity=0 time=0
note_on channel=0 note=44 velocity=0 time=0
<meta message set_tempo tempo=428571 time=12>
note_on channel=0 note=66 velocity=0 time=0
note_on channel=0 note=64 velocity=69 time=0
note_on channel=0 note=32 velocity=26 time=0
control_change channel=0 control=64 value=0 time=5
note_on channel=0 note=32 velocity=0 time=223
note_on channel=0 note=56 velocity=26 time=12
note_on channel=0 note=61 velocity=26 time=0
note_on channel=0 note=52 velocity=26 time=0
note_on channel=0 note=49 velocity=22 time=0
note_on channel=0 note=44 velocity=22 time=0
control_change channel=0 control=64 value=127 time=71
note_on channel=0 note=44 velocity=0 time=157
note_on channel=0 note=56 velocity=0 time=0
note_on channel=0 note=61 velocity=0 time=0
note_on channel=0 note=52 velocity=0 time=0
note_on channel=0 note=49 velocity=0 time=0
note_on channel=0 note=64 velocity=0 time=12
note_on channel=0 note=68 velocity=64 time=0
note_on channel=0 note=44 velocity=24 time=0
note_on channel=0 note=49 velocity=24 time=0
note_on channel=0 note=52 velocity=28 time=0
note_on channel=0 note=52 velocity=0 time=228
note_on channel=0 note=49 velocity=0 time=0
note_on channel=0 note=44 velocity=0 time=0
note_on channel=0 note=64 velocity=29 time=12
note_on channel=0 note=61 velocity=29 time=0
note_on channel=0 note=44 velocity=24 time=0
note_on channel=0 note=49 velocity=24 time=0
note_on channel=0 note=52 velocity=29 time=0
note_on channel=0 note=52 velocity=0 time=228
note_on channel=0 note=64 velocity=0 time=0
note_on channel=0 note=61 velocity=0 time=0
note_on channel=0 note=44 velocity=0 time=0
note_on channel=0 note=49 velocity=0 time=0
note_on channel=0 note=68 velocity=0 time=12
note_on channel=0 note=73 velocity=68 time=0
note_on channel=0 note=44 velocity=26 time=0
note_on channel=0 note=49 velocity=26 time=0
note_on channel=0 note=52 velocity=30 time=0
note_on channel=0 note=52 velocity=0 time=228
note_on channel=0 note=49 velocity=0 time=0
note_on channel=0 note=44 velocity=0 time=0
note_on channel=0 note=64 velocity=31 time=12
note_on channel=0 note=68 velocity=31 time=0
note_on channel=0 note=52 velocity=31 time=0
note_on channel=0 note=44 velocity=26 time=0
note_on channel=0 note=49 velocity=26 time=0
note_on channel=0 note=49 velocity=0 time=228
note_on channel=0 note=64 velocity=0 time=0
note_on channel=0 note=68 velocity=0 time=0
note_on channel=0 note=52 velocity=0 time=0
note_on channel=0 note=44 velocity=0 time=0
note_on channel=0 note=73 velocity=0 time=12
note_on channel=0 note=76 velocity=77 time=0
note_on channel=0 note=44 velocity=28 time=0
note_on channel=0 note=49 velocity=28 time=0
note_on channel=0 note=52 velocity=34 time=0
note_on channel=0 note=52 velocity=0 time=228
note_on channel=0 note=49 velocity=0 time=0
note_on channel=0 note=44 velocity=0 time=0
note_on channel=0 note=68 velocity=34 time=12
note_on channel=0 note=73 velocity=34 time=0
note_on channel=0 note=49 velocity=29 time=0
note_on channel=0 note=44 velocity=29 time=0
note_on channel=0 note=52 velocity=35 time=0
note_on channel=0 note=52 velocity=0 time=228
note_on channel=0 note=68 velocity=0 time=0
note_on channel=0 note=73 velocity=0 time=0
note_on channel=0 note=49 velocity=0 time=0
note_on channel=0 note=44 velocity=0 time=0
note_on channel=0 note=76 velocity=0 time=12
note_on channel=0 note=80 velocity=75 time=0
note_on channel=0 note=44 velocity=30 time=0
note_on channel=0 note=49 velocity=30 time=0
note_on channel=0 note=52 velocity=36 time=0
note_on channel=0 note=52 velocity=0 time=228
note_on channel=0 note=49 velocity=0 time=0
note_on channel=0 note=44 velocity=0 time=0
note_on channel=0 note=73 velocity=37 time=12
note_on channel=0 note=76 velocity=37 time=0
note_on channel=0 note=52 velocity=37 time=0
note_on channel=0 note=44 velocity=30 time=0
note_on channel=0 note=49 velocity=30 time=0
note_on channel=0 note=49 velocity=0 time=228
note_on channel=0 note=73 velocity=0 time=0
note_on channel=0 note=76 velocity=0 time=0
note_on channel=0 note=52 velocity=0 time=0
note_on channel=0 note=44 velocity=0 time=0
note_on channel=0 note=80 velocity=0 time=12
note_on channel=0 note=85 velocity=79 time=0
note_on channel=0 note=44 velocity=33 time=0
note_on channel=0 note=49 velocity=33 time=0
note_on channel=0 note=52 velocity=39 time=0
note_on channel=0 note=52 velocity=0 time=228
note_on channel=0 note=49 velocity=0 time=0
note_on channel=0 note=44 velocity=0 time=0
note_on channel=0 note=76 velocity=39 time=12
note_on channel=0 note=80 velocity=39 time=0
note_on channel=0 note=52 velocity=39 time=0
note_on channel=0 note=44 velocity=34 time=0
note_on channel=0 note=49 velocity=34 time=0
note_on channel=0 note=49 velocity=0 time=228
note_on channel=0 note=76 velocity=0 time=0
note_on channel=0 note=80 velocity=0 time=0
note_on channel=0 note=52 velocity=0 time=0
note_on channel=0 note=44 velocity=0 time=0
<meta message set_tempo tempo=478088 time=12>
note_on channel=0 note=85 velocity=0 time=0
note_on channel=0 note=87 velocity=99 time=0
note_on channel=0 note=33 velocity=47 time=0
control_change channel=0 control=64 value=0 time=7
control_change channel=0 control=64 value=125 time=142
note_on channel=0 note=33 velocity=0 time=79
note_on channel=0 note=75 velocity=51 time=12
note_on channel=0 note=79 velocity=51 time=0
note_on channel=0 note=52 velocity=42 time=0
note_on channel=0 note=49 velocity=35 time=0
note_on channel=0 note=45 velocity=35 time=0
<meta message set_tempo tempo=444444 time=228>
note_on channel=0 note=45 velocity=0 time=0
note_on channel=0 note=75 velocity=0 time=0
note_on channel=0 note=79 velocity=0 time=0
note_on channel=0 note=52 velocity=0 time=0
note_on channel=0 note=49 velocity=0 time=0
note_on channel=0 note=87 velocity=0 time=12
note_on channel=0 note=88 velocity=96 time=0
note_on channel=0 note=45 velocity=38 time=0
note_on channel=0 note=49 velocity=38 time=0
note_on channel=0 note=52 velocity=45 time=0
control_change channel=0 control=64 value=0 time=11
control_change channel=0 control=64 value=127 time=172
note_on channel=0 note=52 velocity=0 time=45
note_on channel=0 note=49 velocity=0 time=0
note_on channel=0 note=45 velocity=0 time=0
note_on channel=0 note=79 velocity=45 time=12
note_on channel=0 note=76 velocity=45 time=0
note_on channel=0 note=52 velocity=44 time=0
note_on channel=0 note=45 velocity=36 time=0
note_on channel=0 note=49 velocity=36 time=0
note_on channel=0 note=49 velocity=0 time=228
note_on channel=0 note=79 velocity=0 time=0
note_on channel=0 note=76 velocity=0 time=0
note_on channel=0 note=52 velocity=0 time=0
note_on channel=0 note=45 velocity=0 time=0
note_on channel=0 note=79 velocity=40 time=12
note_on channel=0 note=76 velocity=40 time=0
note_on channel=0 note=52 velocity=40 time=0
note_on channel=0 note=45 velocity=34 time=0
note_on channel=0 note=49 velocity=34 time=0
note_on channel=0 note=49 velocity=0 time=228
note_on channel=0 note=79 velocity=0 time=0
note_on channel=0 note=76 velocity=0 time=0
note_on channel=0 note=52 velocity=0 time=0
note_on channel=0 note=45 velocity=0 time=0
note_on channel=0 note=79 velocity=39 time=12
note_on channel=0 note=76 velocity=39 time=0
note_on channel=0 note=52 velocity=39 time=0
note_on channel=0 note=45 velocity=33 time=0
note_on channel=0 note=49 velocity=33 time=0
note_on channel=0 note=49 velocity=0 time=228
note_on channel=0 note=79 velocity=0 time=0
note_on channel=0 note=76 velocity=0 time=0
note_on channel=0 note=52 velocity=0 time=0
note_on channel=0 note=45 velocity=0 time=0
note_on channel=0 note=79 velocity=37 time=12
note_on channel=0 note=76 velocity=37 time=0
note_on channel=0 note=52 velocity=37 time=0
note_on channel=0 note=45 velocity=30 time=0
note_on channel=0 note=49 velocity=30 time=0
note_on channel=0 note=49 velocity=0 time=228
note_on channel=0 note=79 velocity=0 time=0
note_on channel=0 note=76 velocity=0 time=0
note_on channel=0 note=52 velocity=0 time=0
note_on channel=0 note=45 velocity=0 time=0
note_on channel=0 note=76 velocity=37 time=12
note_on channel=0 note=79 velocity=37 time=0
note_on channel=0 note=45 velocity=29 time=0
note_on channel=0 note=49 velocity=29 time=0
note_on channel=0 note=52 velocity=35 time=0
note_on channel=0 note=52 velocity=0 time=228
note_on channel=0 note=76 velocity=0 time=0
note_on channel=0 note=79 velocity=0 time=0
note_on channel=0 note=45 velocity=0 time=0
note_on channel=0 note=49 velocity=0 time=0
note_on channel=0 note=88 velocity=0 time=12
note_on channel=0 note=87 velocity=88 time=0
note_on channel=0 note=51 velocity=34 time=0
note_on channel=0 note=45 velocity=28 time=0
control_change channel=0 control=64 value=0 time=8
control_change channel=0 control=64 value=127 time=141
note_on channel=0 note=45 velocity=0 time=79
note_on channel=0 note=51 velocity=0 time=0
note_on channel=0 note=75 velocity=31 time=12
note_on channel=0 note=79 velocity=31 time=0
note_on channel=0 note=51 velocity=31 time=0
note_on channel=0 note=45 velocity=26 time=0
<meta message set_tempo tempo=487805 time=228>
note_on channel=0 note=45 velocity=0 time=0
note_on channel=0 note=79 velocity=0 time=0
note_on channel=0 note=51 velocity=0 time=0
note_on channel=0 note=75 velocity=0 time=0
note_on channel=0 note=87 velocity=0 time=12
note_on channel=0 note=85 velocity=81 time=0
note_on channel=0 note=51 velocity=30 time=0
note_on channel=0 note=45 velocity=25 time=0
note_on channel=0 note=45 velocity=0 time=228
note_on channel=0 note=51 velocity=0 time=0
note_on channel=0 note=73 velocity=28 time=12
note_on channel=0 note=79 velocity=28 time=0
note_on channel=0 note=51 velocity=28 time=0
note_on channel=0 note=45 velocity=24 time=0
<meta message set_tempo tempo=428571 time=228>
note_on channel=0 note=45 velocity=0 time=0
note_on channel=0 note=79 velocity=0 time=0
note_on channel=0 note=51 velocity=0 time=0
note_on channel=0 note=73 velocity=0 time=0
note_on channel=0 note=85 velocity=0 time=12
note_on channel=0 note=85 velocity=68 time=0
note_on channel=0 note=32 velocity=26 time=0
control_change channel=0 control=64 value=0 time=6
note_on channel=0 note=32 velocity=0 time=222
note_on channel=0 note=75 velocity=26 time=12
note_on channel=0 note=80 velocity=26 time=0
control_change channel=0 control=64 value=126 time=0
note_on channel=0 note=44 velocity=26 time=0
note_on channel=0 note=44 velocity=0 time=228
note_on channel=0 note=85 velocity=0 time=12
note_on channel=0 note=75 velocity=0 time=0
note_on channel=0 note=80 velocity=0 time=0
note_on channel=0 note=84 velocity=59 time=0
note_on channel=0 note=48 velocity=26 time=0
note_on channel=0 note=51 velocity=26 time=0
note_on channel=0 note=44 velocity=26 time=0
note_on channel=0 note=44 velocity=0 time=228
note_on channel=0 note=51 velocity=0 time=0
note_on channel=0 note=48 velocity=0 time=0
note_on channel=0 note=75 velocity=26 time=12
note_on channel=0 note=80 velocity=26 time=0
note_on channel=0 note=48 velocity=22 time=0
note_on channel=0 note=51 velocity=26 time=0
note_on channel=0 note=44 velocity=22 time=0
note_on channel=0 note=44 velocity=0 time=228
note_on channel=0 note=48 velocity=0 time=0
note_on channel=0 note=51 velocity=0 time=0
note_on channel=0 note=84 velocity=0 time=12
note_on channel=0 note=80 velocity=0 time=0
note_on channel=0 note=75 velocity=0 time=0
note_on channel=0 note=80 velocity=58 time=0
note_on channel=0 note=48 velocity=22 time=0
note_on channel=0 note=51 velocity=26 time=0
note_on channel=0 note=44 velocity=22 time=0
note_on channel=0 note=44 velocity=0 time=228
note_on channel=0 note=51 velocity=0 time=0
note_on channel=0 note=48 velocity=0 time=0
note_on channel=0 note=72 velocity=26 time=12
note_on channel=0 note=75 velocity=26 time=0
note_on channel=0 note=48 velocity=22 time=0
note_on channel=0 note=51 velocity=26 time=0
note_on channel=0 note=44 velocity=22 time=0
note_on channel=0 note=44 velocity=0 time=228
note_on channel=0 note=72 velocity=0 time=0
note_on channel=0 note=75 velocity=0 time=0
note_on channel=0 note=48 velocity=0 time=0
note_on channel=0 note=51 velocity=0 time=0
note_on channel=0 note=80 velocity=0 time=12
note_on channel=0 note=75 velocity=58 time=0
note_on channel=0 note=48 velocity=22 time=0
note_on channel=0 note=51 velocity=26 time=0
note_on channel=0 note=44 velocity=22 time=0
note_on channel=0 note=44 velocity=0 time=228
note_on channel=0 note=51 velocity=0 time=0
note_on channel=0 note=48 velocity=0 time=0
note_on channel=0 note=68 velocity=26 time=12
note_on channel=0 note=72 velocity=26 time=0
note_on channel=0 note=48 velocity=22 time=0
note_on channel=0 note=51 velocity=26 time=0
note_on channel=0 note=44 velocity=22 time=0
note_on channel=0 note=44 velocity=0 time=228
note_on channel=0 note=68 velocity=0 time=0
note_on channel=0 note=72 velocity=0 time=0
note_on channel=0 note=48 velocity=0 time=0
note_on channel=0 note=51 velocity=0 time=0
note_on channel=0 note=75 velocity=0 time=12
note_on channel=0 note=72 velocity=58 time=0
note_on channel=0 note=48 velocity=22 time=0
note_on channel=0 note=51 velocity=26 time=0
note_on channel=0 note=44 velocity=22 time=0
note_on channel=0 note=44 velocity=0 time=228
note_on channel=0 note=51 velocity=0 time=0
note_on channel=0 note=48 velocity=0 time=0
note_on channel=0 note=63 velocity=26 time=12
note_on channel=0 note=68 velocity=26 time=0
note_on channel=0 note=48 velocity=22 time=0
note_on channel=0 note=51 velocity=26 time=0
note_on channel=0 note=44 velocity=22 time=0
note_on channel=0 note=44 velocity=0 time=228
note_on channel=0 note=63 velocity=0 time=0
note_on channel=0 note=68 velocity=0 time=0
note_on channel=0 note=48 velocity=0 time=0
note_on channel=0 note=51 velocity=0 time=0
note_on channel=0 note=72 velocity=0 time=12
note_on channel=0 note=68 velocity=58 time=0
note_on channel=0 note=48 velocity=22 time=0
note_on channel=0 note=51 velocity=26 time=0
note_on channel=0 note=44 velocity=22 time=0
note_on channel=0 note=44 velocity=0 time=228
note_on channel=0 note=51 velocity=0 time=0
note_on channel=0 note=48 velocity=0 time=0
note_on channel=0 note=60 velocity=26 time=12
note_on channel=0 note=63 velocity=26 time=0
note_on channel=0 note=48 velocity=22 time=0
note_on channel=0 note=51 velocity=26 time=0
note_on channel=0 note=44 velocity=22 time=0
<meta message set_tempo tempo=480000 time=228>
note_on channel=0 note=44 velocity=0 time=0
note_on channel=0 note=60 velocity=0 time=0
note_on channel=0 note=63 velocity=0 time=0
note_on channel=0 note=48 velocity=0 time=0
note_on channel=0 note=51 velocity=0 time=0
<meta message set_tempo tempo=519481 time=12>
note_on channel=0 note=68 velocity=0 time=0
note_on channel=0 note=68 velocity=59 time=0
note_on channel=0 note=32 velocity=26 time=0
control_change channel=0 control=64 value=0 time=4
control_change channel=0 control=64 value=124 time=179
note_on channel=0 note=32 velocity=0 time=45
note_on channel=0 note=63 velocity=26 time=12
note_on channel=0 note=60 velocity=26 time=0
note_on channel=0 note=54 velocity=26 time=0
note_on channel=0 note=51 velocity=22 time=0
note_on channel=0 note=44 velocity=22 time=0
note_on channel=0 note=44 velocity=0 time=228
note_on channel=0 note=63 velocity=0 time=0
note_on channel=0 note=60 velocity=0 time=0
note_on channel=0 note=54 velocity=0 time=0
note_on channel=0 note=51 velocity=0 time=0
<meta message set_tempo tempo=444444 time=12>
note_on channel=0 note=68 velocity=0 time=0
note_on channel=0 note=69 velocity=61 time=0
note_on channel=0 note=54 velocity=26 time=0
note_on channel=0 note=51 velocity=22 time=0
note_on channel=0 note=44 velocity=22 time=0
control_change channel=0 control=64 value=0 time=21
control_change channel=0 control=64 value=126 time=105
note_on channel=0 note=44 velocity=0 time=102
note_on channel=0 note=51 velocity=0 time=0
note_on channel=0 note=54 velocity=0 time=0
note_on channel=0 note=60 velocity=26 time=12
note_on channel=0 note=63 velocity=26 time=0
note_on channel=0 note=54 velocity=26 time=0
note_on channel=0 note=51 velocity=22 time=0
note_on channel=0 note=44 velocity=22 time=0
note_on channel=0 note=44 velocity=0 time=228
note_on channel=0 note=60 velocity=0 time=0
note_on channel=0 note=63 velocity=0 time=0
note_on channel=0 note=54 velocity=0 time=0
note_on channel=0 note=51 velocity=0 time=0
note_on channel=0 note=60 velocity=26 time=12
note_on channel=0 note=63 velocity=26 time=0
note_on channel=0 note=44 velocity=22 time=0
note_on channel=0 note=51 velocity=22 time=0
note_on channel=0 note=54 velocity=26 time=0
note_on channel=0 note=54 velocity=0 time=228
note_on channel=0 note=60 velocity=0 time=0
note_on channel=0 note=63 velocity=0 time=0
note_on channel=0 note=44 velocity=0 time=0
note_on channel=0 note=51 velocity=0 time=0
note_on channel=0 note=60 velocity=26 time=12
note_on channel=0 note=63 velocity=26 time=0
note_on channel=0 note=51 velocity=22 time=0
note_on channel=0 note=44 velocity=22 time=0
note_on channel=0 note=54 velocity=26 time=0
note_on channel=0 note=54 velocity=0 time=228
note_on channel=0 note=60 velocity=0 time=0
note_on channel=0 note=63 velocity=0 time=0
note_on channel=0 note=51 velocity=0 time=0
note_on channel=0 note=44 velocity=0 time=0
note_on channel=0 note=60 velocity=26 time=12
note_on channel=0 note=63 velocity=26 time=0
note_on channel=0 note=44 velocity=22 time=0
note_on channel=0 note=51 velocity=22 time=0
note_on channel=0 note=54 velocity=26 time=0
note_on channel=0 note=54 velocity=0 time=228
note_on channel=0 note=60 velocity=0 time=0
note_on channel=0 note=63 velocity=0 time=0
note_on channel=0 note=44 velocity=0 time=0
note_on channel=0 note=51 velocity=0 time=0
note_on channel=0 note=60 velocity=26 time=12
note_on channel=0 note=63 velocity=26 time=0
note_on channel=0 note=54 velocity=26 time=0
note_on channel=0 note=51 velocity=22 time=0
note_on channel=0 note=44 velocity=22 time=0
note_on channel=0 note=44 velocity=0 time=228
note_on channel=0 note=60 velocity=0 time=0
note_on channel=0 note=63 velocity=0 time=0
note_on channel=0 note=54 velocity=0 time=0
note_on channel=0 note=51 velocity=0 time=0
note_on channel=0 note=69 velocity=0 time=12
note_on channel=0 note=68 velocity=60 time=0
note_on channel=0 note=54 velocity=26 time=0
note_on channel=0 note=51 velocity=22 time=0
note_on channel=0 note=44 velocity=22 time=0
note_on channel=0 note=44 velocity=0 time=228
note_on channel=0 note=51 velocity=0 time=0
note_on channel=0 note=54 velocity=0 time=0
note_on channel=0 note=60 velocity=26 time=12
note_on channel=0 note=63 velocity=26 time=0
note_on channel=0 note=54 velocity=26 time=0
note_on channel=0 note=51 velocity=22 time=0
note_on channel=0 note=44 velocity=22 time=0
note_on channel=0 note=44 velocity=0 time=228
note_on channel=0 note=60 velocity=0 time=0
note_on channel=0 note=63 velocity=0 time=0
note_on channel=0 note=54 velocity=0 time=0
note_on channel=0 note=51 velocity=0 time=0
note_on channel=0 note=68 velocity=0 time=12
note_on channel=0 note=66 velocity=56 time=0
note_on channel=0 note=44 velocity=22 time=0
note_on channel=0 note=51 velocity=22 time=0
note_on channel=0 note=54 velocity=26 time=0
note_on channel=0 note=54 velocity=0 time=228
note_on channel=0 note=51 velocity=0 time=0
note_on channel=0 note=44 velocity=0 time=0
note_on channel=0 note=60 velocity=34 time=12
note_on channel=0 note=63 velocity=26 time=0
note_on channel=0 note=51 velocity=22 time=0
note_on channel=0 note=44 velocity=22 time=0
note_on channel=0 note=54 velocity=26 time=0
note_on channel=0 note=54 velocity=0 time=228
note_on channel=0 note=60 velocity=0 time=0
note_on channel=0 note=63 velocity=0 time=0
note_on channel=0 note=51 velocity=0 time=0
note_on channel=0 note=44 velocity=0 time=0
<meta message set_tempo tempo=428571 time=12>
note_on channel=0 note=66 velocity=0 time=0
note_on channel=0 note=64 velocity=68 time=0
note_on channel=0 note=32 velocity=26 time=0
control_change channel=0 control=64 value=0 time=3
note_on channel=0 note=32 velocity=0 time=225
note_on channel=0 note=56 velocity=26 time=12
note_on channel=0 note=61 velocity=26 time=0
note_on channel=0 note=52 velocity=26 time=0
note_on channel=0 note=49 velocity=22 time=0
note_on channel=0 note=44 velocity=22 time=0
control_change channel=0 control=64 value=127 time=57
note_on channel=0 note=44 velocity=0 time=171
note_on channel=0 note=56 velocity=0 time=0
note_on channel=0 note=61 velocity=0 time=0
note_on channel=0 note=52 velocity=0 time=0
note_on channel=0 note=49 velocity=0 time=0
note_on channel=0 note=64 velocity=0 time=12
note_on channel=0 note=68 velocity=64 time=0
note_on channel=0 note=44 velocity=22 time=0
note_on channel=0 note=49 velocity=22 time=0
note_on channel=0 note=52 velocity=26 time=0
note_on channel=0 note=52 velocity=0 time=228
note_on channel=0 note=49 velocity=0 time=0
note_on channel=0 note=44 velocity=0 time=0
note_on channel=0 note=64 velocity=29 time=12
note_on channel=0 note=61 velocity=29 time=0
note_on channel=0 note=44 velocity=22 time=0
note_on channel=0 note=49 velocity=22 time=0
note_on channel=0 note=52 velocity=26 time=0
note_on channel=0 note=52 velocity=0 time=228
note_on channel=0 note=64 velocity=0 time=0
note_on channel=0 note=61 velocity=0 time=0
note_on channel=0 note=44 velocity=0 time=0
note_on channel=0 note=49 velocity=0 time=0
note_on channel=0 note=68 velocity=0 time=12
note_on channel=0 note=73 velocity=68 time=0
note_on channel=0 note=44 velocity=22 time=0
note_on channel=0 note=49 velocity=22 time=0
note_on channel=0 note=52 velocity=26 time=0
note_on channel=0 note=52 velocity=0 time=228
note_on channel=0 note=49 velocity=0 time=0
note_on channel=0 note=44 velocity=0 time=0
note_on channel=0 note=64 velocity=31 time=12
note_on channel=0 note=68 velocity=31 time=0
note_on channel=0 note=44 velocity=22 time=0
note_on channel=0 note=49 velocity=22 time=0
note_on channel=0 note=52 velocity=26 time=0
note_on channel=0 note=52 velocity=0 time=228
note_on channel=0 note=64 velocity=0 time=0
note_on channel=0 note=68 velocity=0 time=0
note_on channel=0 note=44 velocity=0 time=0
note_on channel=0 note=49 velocity=0 time=0
note_on channel=0 note=73 velocity=0 time=12
note_on channel=0 note=76 velocity=71 time=0
note_on channel=0 note=44 velocity=22 time=0
note_on channel=0 note=49 velocity=22 time=0
note_on channel=0 note=52 velocity=26 time=0
note_on channel=0 note=52 velocity=0 time=228
note_on channel=0 note=49 velocity=0 time=0
note_on channel=0 note=44 velocity=0 time=0
note_on channel=0 note=68 velocity=34 time=12
note_on channel=0 note=73 velocity=34 time=0
note_on channel=0 note=49 velocity=24 time=0
note_on channel=0 note=44 velocity=24 time=0
note_on channel=0 note=52 velocity=28 time=0
note_on channel=0 note=52 velocity=0 time=228
note_on channel=0 note=68 velocity=0 time=0
note_on channel=0 note=73 velocity=0 time=0
note_on channel=0 note=49 velocity=0 time=0
note_on channel=0 note=44 velocity=0 time=0
note_on channel=0 note=76 velocity=0 time=12
note_on channel=0 note=80 velocity=75 time=0
note_on channel=0 note=44 velocity=26 time=0
note_on channel=0 note=49 velocity=26 time=0
note_on channel=0 note=52 velocity=30 time=0
note_on channel=0 note=52 velocity=0 time=228
note_on channel=0 note=49 velocity=0 time=0
note_on channel=0 note=44 velocity=0 time=0
note_on channel=0 note=73 velocity=37 time=12
note_on channel=0 note=76 velocity=37 time=0
note_on channel=0 note=44 velocity=29 time=0
note_on channel=0 note=49 velocity=29 time=0
note_on channel=0 note=52 velocity=35 time=0
note_on channel=0 note=52 velocity=0 time=228
note_on channel=0 note=73 velocity=0 time=0
note_on channel=0 note=76 velocity=0 time=0
note_on channel=0 note=44 velocity=0 time=0
note_on channel=0 note=49 velocity=0 time=0
note_on channel=0 note=80 velocity=0 time=12
note_on channel=0 note=85 velocity=79 time=0
note_on channel=0 note=44 velocity=30 time=0
note_on channel=0 note=49 velocity=30 time=0
note_on channel=0 note=52 velocity=37 time=0
note_on channel=0 note=52 velocity=0 time=228
note_on channel=0 note=49 velocity=0 time=0
note_on channel=0 note=44 velocity=0 time=0
note_on channel=0 note=76 velocity=39 time=12
note_on channel=0 note=80 velocity=39 time=0
note_on channel=0 note=44 velocity=34 time=0
note_on channel=0 note=49 velocity=34 time=0
note_on channel=0 note=52 velocity=39 time=0
note_on channel=0 note=52 velocity=0 time=228
note_on channel=0 note=76 velocity=0 time=0
note_on channel=0 note=80 velocity=0 time=0
note_on channel=0 note=44 velocity=0 time=0
note_on channel=0 note=49 velocity=0 time=0
<meta message set_tempo tempo=478088 time=12>
note_on channel=0 note=85 velocity=0 time=0
note_on channel=0 note=87 velocity=99 time=0
note_on channel=0 note=33 velocity=41 time=0
control_change channel=0 control=64 value=0 time=5
control_change channel=0 control=64 value=125 time=167
note_on channel=0 note=33 velocity=0 time=56
note_on channel=0 note=75 velocity=51 time=12
note_on channel=0 note=79 velocity=51 time=0
note_on channel=0 note=52 velocity=41 time=0
note_on channel=0 note=49 velocity=35 time=0
note_on channel=0 note=45 velocity=35 time=0
<meta message set_tempo tempo=444444 time=228>
note_on channel=0 note=45 velocity=0 time=0
note_on channel=0 note=75 velocity=0 time=0
note_on channel=0 note=79 velocity=0 time=0
note_on channel=0 note=52 velocity=0 time=0
note_on channel=0 note=49 velocity=0 time=0
note_on channel=0 note=87 velocity=0 time=12
note_on channel=0 note=88 velocity=96 time=0
note_on channel=0 note=45 velocity=36 time=0
note_on channel=0 note=49 velocity=36 time=0
note_on channel=0 note=52 velocity=44 time=0
control_change channel=0 control=64 value=0 time=16
control_change channel=0 control=64 value=126 time=121
note_on channel=0 note=52 velocity=0 time=91
note_on channel=0 note=49 velocity=0 time=0
note_on channel=0 note=45 velocity=0 time=0
note_on channel=0 note=79 velocity=45 time=12
note_on channel=0 note=76 velocity=45 time=0
note_on channel=0 note=45 velocity=35 time=0
note_on channel=0 note=49 velocity=35 time=0
note_on channel=0 note=52 velocity=42 time=0
note_on channel=0 note=52 velocity=0 time=228
note_on channel=0 note=79 velocity=0 time=0
note_on channel=0 note=76 velocity=0 time=0
note_on channel=0 note=45 velocity=0 time=0
note_on channel=0 note=49 velocity=0 time=0
note_on channel=0 note=79 velocity=40 time=12
note_on channel=0 note=76 velocity=40 time=0
note_on channel=0 note=45 velocity=34 time=0
note_on channel=0 note=49 velocity=34 time=0
note_on channel=0 note=52 velocity=40 time=0
note_on channel=0 note=52 velocity=0 time=228
note_on channel=0 note=79 velocity=0 time=0
note_on channel=0 note=76 velocity=0 time=0
note_on channel=0 note=45 velocity=0 time=0
note_on channel=0 note=49 velocity=0 time=0
note_on channel=0 note=79 velocity=39 time=12
note_on channel=0 note=76 velocity=39 time=0
note_on channel=0 note=45 velocity=33 time=0
note_on channel=0 note=49 velocity=33 time=0
note_on channel=0 note=52 velocity=39 time=0
note_on channel=0 note=52 velocity=0 time=228
note_on channel=0 note=79 velocity=0 time=0
note_on channel=0 note=76 velocity=0 time=0
note_on channel=0 note=45 velocity=0 time=0
note_on channel=0 note=49 velocity=0 time=0
note_on channel=0 note=79 velocity=37 time=12
note_on channel=0 note=76 velocity=37 time=0
note_on channel=0 note=45 velocity=30 time=0
note_on channel=0 note=49 velocity=30 time=0
note_on channel=0 note=52 velocity=37 time=0
note_on channel=0 note=52 velocity=0 time=228
note_on channel=0 note=79 velocity=0 time=0
note_on channel=0 note=76 velocity=0 time=0
note_on channel=0 note=45 velocity=0 time=0
note_on channel=0 note=49 velocity=0 time=0
note_on channel=0 note=76 velocity=37 time=12
note_on channel=0 note=79 velocity=37 time=0
note_on channel=0 note=45 velocity=29 time=0
note_on channel=0 note=49 velocity=29 time=0
note_on channel=0 note=52 velocity=35 time=0
note_on channel=0 note=52 velocity=0 time=228
note_on channel=0 note=76 velocity=0 time=0
note_on channel=0 note=79 velocity=0 time=0
note_on channel=0 note=45 velocity=0 time=0
note_on channel=0 note=49 velocity=0 time=0
note_on channel=0 note=88 velocity=0 time=12
note_on channel=0 note=87 velocity=88 time=0
note_on channel=0 note=45 velocity=28 time=0
note_on channel=0 note=49 velocity=28 time=0
note_on channel=0 note=52 velocity=34 time=0
control_change channel=0 control=64 value=0 time=8
control_change channel=0 control=64 value=126 time=116
note_on channel=0 note=52 velocity=0 time=104
note_on channel=0 note=49 velocity=0 time=0
note_on channel=0 note=45 velocity=0 time=0
note_on channel=0 note=75 velocity=31 time=12
note_on channel=0 note=79 velocity=31 time=0
note_on channel=0 note=45 velocity=26 time=0
note_on channel=0 note=49 velocity=26 time=0
note_on channel=0 note=52 velocity=31 time=0
note_on channel=0 note=52 velocity=0 time=228
note_on channel=0 note=75 velocity=0 time=0
note_on channel=0 note=79 velocity=0 time=0
note_on channel=0 note=45 velocity=0 time=0
note_on channel=0 note=49 velocity=0 time=0
note_on channel=0 note=87 velocity=0 time=12
note_on channel=0 note=85 velocity=81 time=0
note_on channel=0 note=45 velocity=25 time=0
note_on channel=0 note=49 velocity=25 time=0
note_on channel=0 note=52 velocity=30 time=0
note_on channel=0 note=52 velocity=0 time=228
note_on channel=0 note=49 velocity=0 time=0
note_on channel=0 note=45 velocity=0 time=0
note_on channel=0 note=73 velocity=28 time=12
note_on channel=0 note=79 velocity=28 time=0
note_on channel=0 note=45 velocity=24 time=0
note_on channel=0 note=49 velocity=24 time=0
note_on channel=0 note=52 velocity=28 time=0
note_on channel=0 note=52 velocity=0 time=228
note_on channel=0 note=73 velocity=0 time=0
note_on channel=0 note=79 velocity=0 time=0
note_on channel=0 note=45 velocity=0 time=0
note_on channel=0 note=49 velocity=0 time=0
note_on channel=0 note=85 velocity=0 time=12
note_on channel=0 note=85 velocity=71 time=0
note_on channel=0 note=32 velocity=27 time=0
control_change channel=0 control=64 value=0 time=4
control_change channel=0 control=64 value=125 time=208
note_on channel=0 note=32 velocity=0 time=16
note_on channel=0 note=73 velocity=27 time=12
note_on channel=0 note=76 velocity=27 time=0
note_on channel=0 note=80 velocity=27 time=0
note_on channel=0 note=52 velocity=26 time=0
note_on channel=0 note=49 velocity=22 time=0
note_on channel=0 note=44 velocity=22 time=0
note_on channel=0 note=44 velocity=0 time=228
note_on channel=0 note=52 velocity=0 time=0
note_on channel=0 note=73 velocity=0 time=0
note_on channel=0 note=76 velocity=0 time=0
note_on channel=0 note=80 velocity=0 time=0
note_on channel=0 note=49 velocity=0 time=0
note_on channel=0 note=73 velocity=27 time=12
note_on channel=0 note=76 velocity=27 time=0
note_on channel=0 note=80 velocity=27 time=0
note_on channel=0 note=52 velocity=26 time=0
note_on channel=0 note=49 velocity=22 time=0
note_on channel=0 note=44 velocity=22 time=0
note_on channel=0 note=44 velocity=0 time=228
note_on channel=0 note=52 velocity=0 time=0
note_on channel=0 note=73 velocity=0 time=0
note_on channel=0 note=76 velocity=0 time=0
note_on channel=0 note=80 velocity=0 time=0
note_on channel=0 note=49 velocity=0 time=0
note_on channel=0 note=73 velocity=27 time=12
note_on channel=0 note=76 velocity=27 time=0
note_on channel=0 note=80 velocity=27 time=0
note_on channel=0 note=52 velocity=26 time=0
note_on channel=0 note=49 velocity=22 time=0
note_on channel=0 note=44 velocity=22 time=0
note_on channel=0 note=44 velocity=0 time=228
note_on channel=0 note=52 velocity=0 time=0
note_on channel=0 note=73 velocity=0 time=0
note_on channel=0 note=76 velocity=0 time=0
note_on channel=0 note=80 velocity=0 time=0
note_on channel=0 note=49 velocity=0 time=0
note_on channel=0 note=73 velocity=27 time=12
note_on channel=0 note=76 velocity=27 time=0
note_on channel=0 note=80 velocity=27 time=0
note_on channel=0 note=52 velocity=26 time=0
note_on channel=0 note=49 velocity=22 time=0
note_on channel=0 note=44 velocity=22 time=0
note_on channel=0 note=44 velocity=0 time=228
note_on channel=0 note=52 velocity=0 time=0
note_on channel=0 note=73 velocity=0 time=0
note_on channel=0 note=76 velocity=0 time=0
note_on channel=0 note=80 velocity=0 time=0
note_on channel=0 note=49 velocity=0 time=0
note_on channel=0 note=73 velocity=25 time=12
note_on channel=0 note=76 velocity=25 time=0
note_on channel=0 note=80 velocity=25 time=0
note_on channel=0 note=52 velocity=26 time=0
note_on channel=0 note=49 velocity=22 time=0
note_on channel=0 note=44 velocity=22 time=0
note_on channel=0 note=44 velocity=0 time=228
note_on channel=0 note=52 velocity=0 time=0
note_on channel=0 note=73 velocity=0 time=0
note_on channel=0 note=76 velocity=0 time=0
note_on channel=0 note=80 velocity=0 time=0
note_on channel=0 note=49 velocity=0 time=0
note_on channel=0 note=85 velocity=0 time=12
note_on channel=0 note=80 velocity=62 time=0
note_on channel=0 note=32 velocity=26 time=0
control_change channel=0 control=64 value=0 time=3
note_on channel=0 note=32 velocity=0 time=225
control_change channel=0 control=64 value=126 time=1
note_on channel=0 note=72 velocity=22 time=11
note_on channel=0 note=75 velocity=22 time=0
note_on channel=0 note=51 velocity=24 time=0
note_on channel=0 note=48 velocity=19 time=0
note_on channel=0 note=44 velocity=19 time=0
note_on channel=0 note=44 velocity=0 time=228
note_on channel=0 note=72 velocity=0 time=0
note_on channel=0 note=75 velocity=0 time=0
note_on channel=0 note=51 velocity=0 time=0
note_on channel=0 note=48 velocity=0 time=0
note_on channel=0 note=72 velocity=20 time=12
note_on channel=0 note=75 velocity=20 time=0
note_on channel=0 note=51 velocity=24 time=0
note_on channel=0 note=48 velocity=19 time=0
note_on channel=0 note=44 velocity=19 time=0
note_on channel=0 note=44 velocity=0 time=228
note_on channel=0 note=72 velocity=0 time=0
note_on channel=0 note=75 velocity=0 time=0
note_on channel=0 note=51 velocity=0 time=0
note_on channel=0 note=48 velocity=0 time=0
note_on channel=0 note=72 velocity=20 time=12
note_on channel=0 note=75 velocity=20 time=0
note_on channel=0 note=51 velocity=22 time=0
note_on channel=0 note=48 velocity=18 time=0
note_on channel=0 note=44 velocity=18 time=0
note_on channel=0 note=44 velocity=0 time=228
note_on channel=0 note=72 velocity=0 time=0
note_on channel=0 note=75 velocity=0 time=0
note_on channel=0 note=51 velocity=0 time=0
note_on channel=0 note=48 velocity=0 time=0
note_on channel=0 note=72 velocity=20 time=12
note_on channel=0 note=75 velocity=20 time=0
note_on channel=0 note=51 velocity=22 time=0
note_on channel=0 note=48 velocity=17 time=0
note_on channel=0 note=44 velocity=17 time=0
<meta message set_tempo tempo=547945 time=8>
note_on channel=0 note=44 velocity=0 time=220
note_on channel=0 note=72 velocity=0 time=0
note_on channel=0 note=75 velocity=0 time=0
note_on channel=0 note=51 velocity=0 time=0
note_on channel=0 note=48 velocity=0 time=0
note_on channel=0 note=72 velocity=20 time=12
note_on channel=0 note=75 velocity=20 time=0
note_on channel=0 note=51 velocity=22 time=0
note_on channel=0 note=48 velocity=17 time=0
note_on channel=0 note=44 velocity=17 time=0
note_on channel=0 note=44 velocity=0 time=228
note_on channel=0 note=72 velocity=0 time=0
note_on channel=0 note=75 velocity=0 time=0
note_on channel=0 note=51 velocity=0 time=0
note_on channel=0 note=48 velocity=0 time=0
<meta message set_tempo tempo=458015 time=12>
note_on channel=0 note=80 velocity=0 time=0
note_on channel=0 note=68 velocity=48 time=0
note_on channel=0 note=37 velocity=42 time=0
control_change channel=0 control=64 value=0 time=4
control_change channel=0 control=91 value=127 time=4
control_change channel=0 control=91 value=127 time=8
control_change channel=0 control=64 value=126 time=190
note_on channel=0 note=37 velocity=0 time=22
note_on channel=0 note=65 velocity=27 time=12
note_on channel=0 note=56 velocity=27 time=0
note_on channel=0 note=53 velocity=26 time=0
note_on channel=0 note=49 velocity=22 time=0
note_on channel=0 note=44 velocity=22 time=0
note_on channel=0 note=44 velocity=0 time=228
note_on channel=0 note=65 velocity=0 time=0
note_on channel=0 note=56 velocity=0 time=0
note_on channel=0 note=53 velocity=0 time=0
note_on channel=0 note=49 velocity=0 time=0
<meta message set_tempo tempo=444444 time=12>
note_on channel=0 note=65 velocity=26 time=0
note_on channel=0 note=56 velocity=26 time=0
note_on channel=0 note=53 velocity=26 time=0
note_on channel=0 note=44 velocity=22 time=0
note_on channel=0 note=49 velocity=22 time=0
note_on channel=0 note=49 velocity=0 time=228
note_on channel=0 note=65 velocity=0 time=0
note_on channel=0 note=56 velocity=0 time=0
note_on channel=0 note=53 velocity=0 time=0
note_on channel=0 note=44 velocity=0 time=0
note_on channel=0 note=65 velocity=26 time=12
note_on channel=0 note=56 velocity=26 time=0
note_on channel=0 note=53 velocity=26 time=0
note_on channel=0 note=44 velocity=22 time=0
note_on channel=0 note=49 velocity=22 time=0
note_on channel=0 note=49 velocity=0 time=228
note_on channel=0 note=65 velocity=0 time=0
note_on channel=0 note=56 velocity=0 time=0
note_on channel=0 note=53 velocity=0 time=0
note_on channel=0 note=44 velocity=0 time=0
note_on channel=0 note=65 velocity=26 time=12
note_on channel=0 note=56 velocity=26 time=0
note_on channel=0 note=53 velocity=26 time=0
note_on channel=0 note=44 velocity=22 time=0
note_on channel=0 note=49 velocity=22 time=0
note_on channel=0 note=49 velocity=0 time=228
note_on channel=0 note=65 velocity=0 time=0
note_on channel=0 note=56 velocity=0 time=0
note_on channel=0 note=53 velocity=0 time=0
note_on channel=0 note=44 velocity=0 time=0
note_on channel=0 note=65 velocity=26 time=12
note_on channel=0 note=56 velocity=26 time=0
note_on channel=0 note=53 velocity=26 time=0
note_on channel=0 note=44 velocity=22 time=0
note_on channel=0 note=49 velocity=22 time=0
note_on channel=0 note=49 velocity=0 time=228
note_on channel=0 note=65 velocity=0 time=0
note_on channel=0 note=56 velocity=0 time=0
note_on channel=0 note=53 velocity=0 time=0
note_on channel=0 note=44 velocity=0 time=0
<meta message set_tempo tempo=500000 time=12>
note_on channel=0 note=68 velocity=0 time=0
note_on channel=0 note=68 velocity=50 time=0
note_on channel=0 note=53 velocity=26 time=0
note_on channel=0 note=44 velocity=22 time=0
note_on channel=0 note=49 velocity=22 time=0
control_change channel=0 control=64 value=0 time=5
control_change channel=0 control=64 value=125 time=144
note_on channel=0 note=49 velocity=0 time=79
note_on channel=0 note=44 velocity=0 time=0
note_on channel=0 note=53 velocity=0 time=0
note_on channel=0 note=65 velocity=26 time=12
note_on channel=0 note=56 velocity=26 time=0
note_on channel=0 note=53 velocity=26 time=0
note_on channel=0 note=44 velocity=22 time=0
note_on channel=0 note=49 velocity=22 time=0
<meta message set_tempo tempo=428571 time=228>
note_on channel=0 note=49 velocity=0 time=0
note_on channel=0 note=65 velocity=0 time=0
note_on channel=0 note=56 velocity=0 time=0
note_on channel=0 note=53 velocity=0 time=0
note_on channel=0 note=44 velocity=0 time=0
note_on channel=0 note=68 velocity=0 time=12
note_on channel=0 note=70 velocity=52 time=0
note_on channel=0 note=53 velocity=26 time=0
note_on channel=0 note=44 velocity=22 time=0
note_on channel=0 note=49 velocity=22 time=0
note_on channel=0 note=49 velocity=0 time=228
note_on channel=0 note=44 velocity=0 time=0
note_on channel=0 note=53 velocity=0 time=0
note_on channel=0 note=58 velocity=27 time=12
note_on channel=0 note=65 velocity=27 time=0
note_on channel=0 note=53 velocity=26 time=0
note_on channel=0 note=44 velocity=22 time=0
note_on channel=0 note=49 velocity=22 time=0
note_on channel=0 note=49 velocity=0 time=228
note_on channel=0 note=58 velocity=0 time=0
note_on channel=0 note=65 velocity=0 time=0
note_on channel=0 note=53 velocity=0 time=0
note_on channel=0 note=44 velocity=0 time=0
<meta message set_tempo tempo=444444 time=12>
note_on channel=0 note=70 velocity=0 time=0
note_on channel=0 note=68 velocity=45 time=0
note_on channel=0 note=53 velocity=26 time=0
note_on channel=0 note=44 velocity=22 time=0
note_on channel=0 note=49 velocity=22 time=0
note_on channel=0 note=49 velocity=0 time=228
note_on channel=0 note=44 velocity=0 time=0
note_on channel=0 note=53 velocity=0 time=0
note_on channel=0 note=65 velocity=26 time=12
note_on channel=0 note=56 velocity=26 time=0
note_on channel=0 note=53 velocity=26 time=0
note_on channel=0 note=49 velocity=22 time=0
note_on channel=0 note=44 velocity=22 time=0
note_on channel=0 note=44 velocity=0 time=228
note_on channel=0 note=65 velocity=0 time=0
note_on channel=0 note=56 velocity=0 time=0
note_on channel=0 note=53 velocity=0 time=0
note_on channel=0 note=49 velocity=0 time=0
<meta message set_tempo tempo=446097 time=4>
note_on channel=0 note=68 velocity=0 time=8
note_on channel=0 note=70 velocity=57 time=0
note_on channel=0 note=36 velocity=41 time=0
control_change channel=0 control=64 value=0 time=5
control_change channel=0 control=64 value=126 time=212
note_on channel=0 note=36 velocity=0 time=11
note_on channel=0 note=56 velocity=26 time=12
note_on channel=0 note=66 velocity=26 time=0
note_on channel=0 note=51 velocity=22 time=0
note_on channel=0 note=54 velocity=26 time=0
note_on channel=0 note=44 velocity=22 time=0
note_on channel=0 note=44 velocity=0 time=228
note_on channel=0 note=56 velocity=0 time=0
note_on channel=0 note=66 velocity=0 time=0
note_on channel=0 note=51 velocity=0 time=0
note_on channel=0 note=54 velocity=0 time=0
note_on channel=0 note=56 velocity=26 time=12
note_on channel=0 note=66 velocity=26 time=0
note_on channel=0 note=44 velocity=22 time=0
note_on channel=0 note=51 velocity=22 time=0
note_on channel=0 note=54 velocity=26 time=0
note_on channel=0 note=54 velocity=0 time=228
note_on channel=0 note=56 velocity=0 time=0
note_on channel=0 note=66 velocity=0 time=0
note_on channel=0 note=44 velocity=0 time=0
note_on channel=0 note=51 velocity=0 time=0
note_on channel=0 note=56 velocity=26 time=12
note_on channel=0 note=66 velocity=26 time=0
note_on channel=0 note=44 velocity=22 time=0
note_on channel=0 note=51 velocity=22 time=0
note_on channel=0 note=54 velocity=26 time=0
note_on channel=0 note=54 velocity=0 time=228
note_on channel=0 note=56 velocity=0 time=0
note_on channel=0 note=66 velocity=0 time=0
note_on channel=0 note=44 velocity=0 time=0
note_on channel=0 note=51 velocity=0 time=0
note_on channel=0 note=56 velocity=26 time=12
note_on channel=0 note=66 velocity=26 time=0
note_on channel=0 note=44 velocity=22 time=0
note_on channel=0 note=51 velocity=22 time=0
note_on channel=0 note=54 velocity=26 time=0
note_on channel=0 note=54 velocity=0 time=228
note_on channel=0 note=56 velocity=0 time=0
note_on channel=0 note=66 velocity=0 time=0
note_on channel=0 note=44 velocity=0 time=0
note_on channel=0 note=51 velocity=0 time=0
note_on channel=0 note=56 velocity=26 time=12
note_on channel=0 note=66 velocity=26 time=0
note_on channel=0 note=44 velocity=22 time=0
note_on channel=0 note=51 velocity=22 time=0
note_on channel=0 note=54 velocity=26 time=0
note_on channel=0 note=54 velocity=0 time=228
note_on channel=0 note=44 velocity=0 time=0
note_on channel=0 note=51 velocity=0 time=0
note_on channel=0 note=70 velocity=0 time=12
note_on channel=0 note=66 velocity=0 time=0
note_on channel=0 note=56 velocity=0 time=0
note_on channel=0 note=68 velocity=50 time=0
note_on channel=0 note=44 velocity=22 time=0
note_on channel=0 note=51 velocity=22 time=0
note_on channel=0 note=54 velocity=26 time=0
control_change channel=0 control=64 value=0 time=6
note_on channel=0 note=54 velocity=0 time=222
note_on channel=0 note=51 velocity=0 time=0
note_on channel=0 note=44 velocity=0 time=0
note_on channel=0 note=56 velocity=28 time=12
note_on channel=0 note=66 velocity=28 time=0
note_on channel=0 note=44 velocity=22 time=0
note_on channel=0 note=51 velocity=22 time=0
note_on channel=0 note=54 velocity=26 time=0
control_change channel=0 control=64 value=125 time=28
note_on channel=0 note=54 velocity=0 time=200
note_on channel=0 note=56 velocity=0 time=0
note_on channel=0 note=66 velocity=0 time=0
note_on channel=0 note=44 velocity=0 time=0
note_on channel=0 note=51 velocity=0 time=0
note_on channel=0 note=56 velocity=29 time=12
note_on channel=0 note=66 velocity=29 time=0
note_on channel=0 note=44 velocity=22 time=0
note_on channel=0 note=51 velocity=22 time=0
note_on channel=0 note=54 velocity=26 time=0
note_on channel=0 note=54 velocity=0 time=228
note_on channel=0 note=56 velocity=0 time=0
note_on channel=0 note=66 velocity=0 time=0
note_on channel=0 note=44 velocity=0 time=0
note_on channel=0 note=51 velocity=0 time=0
note_on channel=0 note=56 velocity=29 time=12
note_on channel=0 note=66 velocity=29 time=0
note_on channel=0 note=44 velocity=22 time=0
note_on channel=0 note=51 velocity=22 time=0
note_on channel=0 note=54 velocity=26 time=0
note_on channel=0 note=54 velocity=0 time=228
note_on channel=0 note=56 velocity=0 time=0
note_on channel=0 note=66 velocity=0 time=0
note_on channel=0 note=44 velocity=0 time=0
note_on channel=0 note=51 velocity=0 time=0
note_on channel=0 note=56 velocity=29 time=12
note_on channel=0 note=66 velocity=29 time=0
note_on channel=0 note=51 velocity=22 time=0
note_on channel=0 note=44 velocity=22 time=0
note_on channel=0 note=54 velocity=26 time=0
note_on channel=0 note=54 velocity=0 time=228
note_on channel=0 note=56 velocity=0 time=0
note_on channel=0 note=66 velocity=0 time=0
note_on channel=0 note=51 velocity=0 time=0
note_on channel=0 note=44 velocity=0 time=0
note_on channel=0 note=56 velocity=29 time=12
note_on channel=0 note=66 velocity=29 time=0
note_on channel=0 note=44 velocity=22 time=0
note_on channel=0 note=51 velocity=22 time=0
note_on channel=0 note=54 velocity=26 time=0
note_on channel=0 note=54 velocity=0 time=228
note_on channel=0 note=56 velocity=0 time=0
note_on channel=0 note=66 velocity=0 time=0
note_on channel=0 note=44 velocity=0 time=0
note_on channel=0 note=51 velocity=0 time=0
note_on channel=0 note=68 velocity=0 time=12
note_on channel=0 note=68 velocity=52 time=0
note_on channel=0 note=37 velocity=40 time=0
control_change channel=0 control=64 value=0 time=6
control_change channel=0 control=64 value=126 time=177
note_on channel=0 note=37 velocity=0 time=45
note_on channel=0 note=65 velocity=26 time=12
note_on channel=0 note=56 velocity=26 time=0
note_on channel=0 note=53 velocity=26 time=0
note_on channel=0 note=49 velocity=22 time=0
note_on channel=0 note=44 velocity=22 time=0
note_on channel=0 note=44 velocity=0 time=228
note_on channel=0 note=65 velocity=0 time=0
note_on channel=0 note=56 velocity=0 time=0
note_on channel=0 note=53 velocity=0 time=0
note_on channel=0 note=49 velocity=0 time=0
note_on channel=0 note=65 velocity=26 time=12
note_on channel=0 note=56 velocity=26 time=0
note_on channel=0 note=53 velocity=26 time=0
note_on channel=0 note=44 velocity=22 time=0
note_on channel=0 note=49 velocity=22 time=0
note_on channel=0 note=49 velocity=0 time=228
note_on channel=0 note=65 velocity=0 time=0
note_on channel=0 note=56 velocity=0 time=0
note_on channel=0 note=53 velocity=0 time=0
note_on channel=0 note=44 velocity=0 time=0
note_on channel=0 note=65 velocity=26 time=12
note_on channel=0 note=56 velocity=26 time=0
note_on channel=0 note=53 velocity=26 time=0
note_on channel=0 note=44 velocity=22 time=0
note_on channel=0 note=49 velocity=22 time=0
note_on channel=0 note=49 velocity=0 time=228
note_on channel=0 note=65 velocity=0 time=0
note_on channel=0 note=56 velocity=0 time=0
note_on channel=0 note=53 velocity=0 time=0
note_on channel=0 note=44 velocity=0 time=0
note_on channel=0 note=65 velocity=26 time=12
note_on channel=0 note=56 velocity=26 time=0
note_on channel=0 note=53 velocity=26 time=0
note_on channel=0 note=44 velocity=22 time=0
note_on channel=0 note=49 velocity=22 time=0
note_on channel=0 note=49 velocity=0 time=228
note_on channel=0 note=65 velocity=0 time=0
note_on channel=0 note=56 velocity=0 time=0
note_on channel=0 note=53 velocity=0 time=0
note_on channel=0 note=44 velocity=0 time=0
note_on channel=0 note=65 velocity=27 time=12
note_on channel=0 note=56 velocity=27 time=0
note_on channel=0 note=53 velocity=26 time=0
note_on channel=0 note=44 velocity=22 time=0
note_on channel=0 note=49 velocity=22 time=0
note_on channel=0 note=49 velocity=0 time=228
note_on channel=0 note=53 velocity=0 time=0
note_on channel=0 note=44 velocity=0 time=0
note_on channel=0 note=68 velocity=0 time=12
note_on channel=0 note=56 velocity=0 time=0
note_on channel=0 note=65 velocity=0 time=0
note_on channel=0 note=77 velocity=66 time=0
note_on channel=0 note=53 velocity=26 time=0
note_on channel=0 note=44 velocity=22 time=0
note_on channel=0 note=49 velocity=22 time=0
control_change channel=0 control=64 value=1 time=5
<meta message set_tempo tempo=428571 time=3>
control_change channel=0 control=64 value=125 time=187
note_on channel=0 note=49 velocity=0 time=33
note_on channel=0 note=44 velocity=0 time=0
note_on channel=0 note=53 velocity=0 time=0
note_on channel=0 note=65 velocity=28 time=12
note_on channel=0 note=68 velocity=28 time=0
note_on channel=0 note=53 velocity=26 time=0
note_on channel=0 note=44 velocity=22 time=0
note_on channel=0 note=49 velocity=22 time=0
note_on channel=0 note=49 velocity=0 time=228
note_on channel=0 note=65 velocity=0 time=0
note_on channel=0 note=68 velocity=0 time=0
note_on channel=0 note=53 velocity=0 time=0
note_on channel=0 note=44 velocity=0 time=0
note_on channel=0 note=77 velocity=0 time=12
note_on channel=0 note=75 velocity=62 time=0
note_on channel=0 note=53 velocity=26 time=0
note_on channel=0 note=44 velocity=22 time=0
note_on channel=0 note=49 velocity=22 time=0
note_on channel=0 note=49 velocity=0 time=228
note_on channel=0 note=44 velocity=0 time=0
note_on channel=0 note=53 velocity=0 time=0
note_on channel=0 note=63 velocity=27 time=12
note_on channel=0 note=68 velocity=27 time=0
note_on channel=0 note=53 velocity=26 time=0
note_on channel=0 note=44 velocity=22 time=0
note_on channel=0 note=49 velocity=22 time=0
note_on channel=0 note=49 velocity=0 time=228
note_on channel=0 note=63 velocity=0 time=0
note_on channel=0 note=68 velocity=0 time=0
note_on channel=0 note=53 velocity=0 time=0
note_on channel=0 note=44 velocity=0 time=0
note_on channel=0 note=75 velocity=0 time=12
note_on channel=0 note=73 velocity=60 time=0
note_on channel=0 note=53 velocity=26 time=0
note_on channel=0 note=44 velocity=22 time=0
note_on channel=0 note=49 velocity=22 time=0
<meta message set_tempo tempo=524017 time=8>
note_on channel=0 note=49 velocity=0 time=220
note_on channel=0 note=44 velocity=0 time=0
note_on channel=0 note=53 velocity=0 time=0
note_on channel=0 note=61 velocity=27 time=12
note_on channel=0 note=68 velocity=27 time=0
note_on channel=0 note=53 velocity=26 time=0
note_on channel=0 note=49 velocity=22 time=0
note_on channel=0 note=44 velocity=22 time=0
note_on channel=0 note=44 velocity=0 time=228
note_on channel=0 note=61 velocity=0 time=0
note_on channel=0 note=68 velocity=0 time=0
note_on channel=0 note=53 velocity=0 time=0
note_on channel=0 note=49 velocity=0 time=0
note_on channel=0 note=73 velocity=0 time=12
note_on channel=0 note=73 velocity=60 time=0
note_on channel=0 note=39 velocity=39 time=0
control_change channel=0 control=64 value=0 time=4
<meta message set_tempo tempo=444444 time=4>
note_on channel=0 note=39 velocity=0 time=220
note_on channel=0 note=61 velocity=27 time=12
note_on channel=0 note=68 velocity=27 time=0
note_on channel=0 note=51 velocity=22 time=0
note_on channel=0 note=54 velocity=26 time=0
note_on channel=0 note=44 velocity=22 time=0
control_change channel=0 control=64 value=126 time=14
note_on channel=0 note=44 velocity=0 time=214
note_on channel=0 note=61 velocity=0 time=0
note_on channel=0 note=68 velocity=0 time=0
note_on channel=0 note=51 velocity=0 time=0
note_on channel=0 note=54 velocity=0 time=0
note_on channel=0 note=61 velocity=27 time=12
note_on channel=0 note=68 velocity=27 time=0
note_on channel=0 note=44 velocity=22 time=0
note_on channel=0 note=51 velocity=22 time=0
note_on channel=0 note=54 velocity=26 time=0
note_on channel=0 note=54 velocity=0 time=228
note_on channel=0 note=61 velocity=0 time=0
note_on channel=0 note=68 velocity=0 time=0
note_on channel=0 note=44 velocity=0 time=0
note_on channel=0 note=51 velocity=0 time=0
note_on channel=0 note=61 velocity=27 time=12
note_on channel=0 note=68 velocity=27 time=0
note_on channel=0 note=44 velocity=22 time=0
note_on channel=0 note=51 velocity=22 time=0
note_on channel=0 note=54 velocity=26 time=0
note_on channel=0 note=54 velocity=0 time=228
note_on channel=0 note=61 velocity=0 time=0
note_on channel=0 note=68 velocity=0 time=0
note_on channel=0 note=44 velocity=0 time=0
note_on channel=0 note=51 velocity=0 time=0
note_on channel=0 note=61 velocity=27 time=12
note_on channel=0 note=68 velocity=27 time=0
note_on channel=0 note=44 velocity=22 time=0
note_on channel=0 note=51 velocity=22 time=0
note_on channel=0 note=54 velocity=26 time=0
note_on channel=0 note=54 velocity=0 time=228
note_on channel=0 note=61 velocity=0 time=0
note_on channel=0 note=68 velocity=0 time=0
note_on channel=0 note=44 velocity=0 time=0
note_on channel=0 note=51 velocity=0 time=0
note_on channel=0 note=61 velocity=27 time=12
note_on channel=0 note=68 velocity=27 time=0
note_on channel=0 note=44 velocity=22 time=0
note_on channel=0 note=51 velocity=22 time=0
note_on channel=0 note=54 velocity=26 time=0
note_on channel=0 note=54 velocity=0 time=228
note_on channel=0 note=61 velocity=0 time=0
note_on channel=0 note=68 velocity=0 time=0
note_on channel=0 note=44 velocity=0 time=0
note_on channel=0 note=51 velocity=0 time=0
note_on channel=0 note=73 velocity=0 time=12
note_on channel=0 note=72 velocity=61 time=0
note_on channel=0 note=44 velocity=22 time=0
note_on channel=0 note=51 velocity=22 time=0
note_on channel=0 note=54 velocity=26 time=0
control_change channel=0 control=64 value=0 time=3
control_change channel=0 control=64 value=125 time=169
note_on channel=0 note=54 velocity=0 time=56
note_on channel=0 note=51 velocity=0 time=0
note_on channel=0 note=44 velocity=0 time=0
note_on channel=0 note=60 velocity=27 time=12
note_on channel=0 note=68 velocity=27 time=0
note_on channel=0 note=44 velocity=22 time=0
note_on channel=0 note=51 velocity=22 time=0
note_on channel=0 note=54 velocity=26 time=0
note_on channel=0 note=54 velocity=0 time=228
note_on channel=0 note=60 velocity=0 time=0
note_on channel=0 note=68 velocity=0 time=0
note_on channel=0 note=44 velocity=0 time=0
note_on channel=0 note=51 velocity=0 time=0
note_on channel=0 note=60 velocity=27 time=12
note_on channel=0 note=68 velocity=27 time=0
note_on channel=0 note=44 velocity=22 time=0
note_on channel=0 note=51 velocity=22 time=0
note_on channel=0 note=54 velocity=26 time=0
note_on channel=0 note=54 velocity=0 time=228
note_on channel=0 note=60 velocity=0 time=0
note_on channel=0 note=68 velocity=0 time=0
note_on channel=0 note=44 velocity=0 time=0
note_on channel=0 note=51 velocity=0 time=0
note_on channel=0 note=60 velocity=27 time=12
note_on channel=0 note=68 velocity=27 time=0
note_on channel=0 note=44 velocity=22 time=0
note_on channel=0 note=51 velocity=22 time=0
note_on channel=0 note=54 velocity=26 time=0
note_on channel=0 note=54 velocity=0 time=228
note_on channel=0 note=60 velocity=0 time=0
note_on channel=0 note=68 velocity=0 time=0
note_on channel=0 note=44 velocity=0 time=0
note_on channel=0 note=51 velocity=0 time=0
note_on channel=0 note=60 velocity=27 time=12
note_on channel=0 note=68 velocity=27 time=0
note_on channel=0 note=51 velocity=22 time=0
note_on channel=0 note=44 velocity=22 time=0
note_on channel=0 note=54 velocity=26 time=0
note_on channel=0 note=54 velocity=0 time=228
note_on channel=0 note=60 velocity=0 time=0
note_on channel=0 note=68 velocity=0 time=0
note_on channel=0 note=51 velocity=0 time=0
note_on channel=0 note=44 velocity=0 time=0
note_on channel=0 note=60 velocity=27 time=12
note_on channel=0 note=68 velocity=27 time=0
note_on channel=0 note=44 velocity=22 time=0
note_on channel=0 note=51 velocity=22 time=0
note_on channel=0 note=54 velocity=26 time=0
note_on channel=0 note=54 velocity=0 time=228
note_on channel=0 note=60 velocity=0 time=0
note_on channel=0 note=68 velocity=0 time=0
note_on channel=0 note=44 velocity=0 time=0
note_on channel=0 note=51 velocity=0 time=0
<meta message set_tempo tempo=481928 time=4>
note_on channel=0 note=72 velocity=0 time=8
note_on channel=0 note=72 velocity=58 time=0
note_on channel=0 note=40 velocity=42 time=0
control_change channel=0 control=64 value=0 time=6
control_change channel=0 control=64 value=124 time=109
note_on channel=0 note=40 velocity=0 time=113
note_on channel=0 note=60 velocity=35 time=12
note_on channel=0 note=69 velocity=35 time=0
note_on channel=0 note=52 velocity=35 time=0
note_on channel=0 note=45 velocity=29 time=0
note_on channel=0 note=45 velocity=0 time=228
note_on channel=0 note=69 velocity=0 time=0
note_on channel=0 note=52 velocity=0 time=0
note_on channel=0 note=60 velocity=0 time=0
<meta message set_tempo tempo=430108 time=4>
note_on channel=0 note=72 velocity=0 time=8
note_on channel=0 note=73 velocity=68 time=0
note_on channel=0 note=45 velocity=29 time=0
note_on channel=0 note=52 velocity=35 time=0
control_change channel=0 control=64 value=0 time=11
control_change channel=0 control=64 value=125 time=184
note_on channel=0 note=52 velocity=0 time=33
note_on channel=0 note=45 velocity=0 time=0
note_on channel=0 note=61 velocity=35 time=12
note_on channel=0 note=69 velocity=35 time=0
note_on channel=0 note=45 velocity=29 time=0
note_on channel=0 note=52 velocity=35 time=0
note_on channel=0 note=52 velocity=0 time=228
note_on channel=0 note=69 velocity=0 time=0
note_on channel=0 note=45 velocity=0 time=0
note_on channel=0 note=61 velocity=0 time=0
note_on channel=0 note=61 velocity=35 time=12
note_on channel=0 note=69 velocity=35 time=0
note_on channel=0 note=45 velocity=29 time=0
note_on channel=0 note=52 velocity=35 time=0
note_on channel=0 note=52 velocity=0 time=228
note_on channel=0 note=69 velocity=0 time=0
note_on channel=0 note=45 velocity=0 time=0
note_on channel=0 note=61 velocity=0 time=0
note_on channel=0 note=61 velocity=35 time=12
note_on channel=0 note=69 velocity=35 time=0
note_on channel=0 note=45 velocity=29 time=0
note_on channel=0 note=52 velocity=35 time=0
note_on channel=0 note=52 velocity=0 time=228
note_on channel=0 note=69 velocity=0 time=0
note_on channel=0 note=45 velocity=0 time=0
note_on channel=0 note=61 velocity=0 time=0
note_on channel=0 note=61 velocity=35 time=12
note_on channel=0 note=69 velocity=35 time=0
note_on channel=0 note=52 velocity=35 time=0
note_on channel=0 note=45 velocity=29 time=0
note_on channel=0 note=45 velocity=0 time=228
note_on channel=0 note=69 velocity=0 time=0
note_on channel=0 note=52 velocity=0 time=0
note_on channel=0 note=61 velocity=0 time=0
note_on channel=0 note=61 velocity=35 time=12
note_on channel=0 note=69 velocity=35 time=0
note_on channel=0 note=45 velocity=29 time=0
note_on channel=0 note=52 velocity=35 time=0
note_on channel=0 note=52 velocity=0 time=228
note_on channel=0 note=69 velocity=0 time=0
note_on channel=0 note=45 velocity=0 time=0
note_on channel=0 note=61 velocity=0 time=0
note_on channel=0 note=73 velocity=0 time=12
note_on channel=0 note=73 velocity=70 time=0
note_on channel=0 note=40 velocity=35 time=0
note_on channel=0 note=61 velocity=35 time=240
note_on channel=0 note=69 velocity=35 time=0
note_on channel=0 note=52 velocity=35 time=0
note_on channel=0 note=45 velocity=29 time=0
note_on channel=0 note=45 velocity=0 time=240
note_on channel=0 note=40 velocity=0 time=0
note_on channel=0 note=61 velocity=0 time=0
note_on channel=0 note=73 velocity=0 time=0
note_on channel=0 note=52 velocity=0 time=0
note_on channel=0 note=69 velocity=0 time=0
note_on channel=0 note=73 velocity=69 time=0
note_on channel=0 note=40 velocity=35 time=0
note_on channel=0 note=61 velocity=35 time=240
note_on channel=0 note=69 velocity=35 time=0
note_on channel=0 note=52 velocity=35 time=0
note_on channel=0 note=45 velocity=29 time=0
<meta message set_tempo tempo=480000 time=232>
note_on channel=0 note=45 velocity=0 time=8
note_on channel=0 note=40 velocity=0 time=0
note_on channel=0 note=61 velocity=0 time=0
note_on channel=0 note=73 velocity=0 time=0
note_on channel=0 note=52 velocity=0 time=0
note_on channel=0 note=69 velocity=0 time=0
note_on channel=0 note=73 velocity=70 time=0
note_on channel=0 note=35 velocity=42 time=0
control_change channel=0 control=64 value=0 time=3
control_change channel=0 control=64 value=126 time=112
note_on channel=0 note=35 velocity=0 time=113
note_on channel=0 note=61 velocity=44 time=12
note_on channel=0 note=68 velocity=44 time=0
note_on channel=0 note=47 velocity=38 time=0
note_on channel=0 note=40 velocity=31 time=0
note_on channel=0 note=40 velocity=0 time=228
note_on channel=0 note=68 velocity=0 time=0
note_on channel=0 note=47 velocity=0 time=0
note_on channel=0 note=61 velocity=0 time=0
<meta message set_tempo tempo=431655 time=12>
note_on channel=0 note=73 velocity=0 time=0
note_on channel=0 note=74 velocity=78 time=0
note_on channel=0 note=40 velocity=31 time=0
note_on channel=0 note=47 velocity=38 time=0
control_change channel=0 control=64 value=0 time=13
control_change channel=0 control=64 value=125 time=170
note_on channel=0 note=47 velocity=0 time=45
note_on channel=0 note=40 velocity=0 time=0
note_on channel=0 note=62 velocity=44 time=12
note_on channel=0 note=68 velocity=44 time=0
note_on channel=0 note=40 velocity=31 time=0
note_on channel=0 note=47 velocity=38 time=0
note_on channel=0 note=47 velocity=0 time=228
note_on channel=0 note=68 velocity=0 time=0
note_on channel=0 note=40 velocity=0 time=0
note_on channel=0 note=62 velocity=0 time=0
note_on channel=0 note=62 velocity=44 time=12
note_on channel=0 note=68 velocity=44 time=0
note_on channel=0 note=47 velocity=38 time=0
note_on channel=0 note=40 velocity=31 time=0
note_on channel=0 note=40 velocity=0 time=228
note_on channel=0 note=68 velocity=0 time=0
note_on channel=0 note=47 velocity=0 time=0
note_on channel=0 note=62 velocity=0 time=0
note_on channel=0 note=62 velocity=44 time=12
note_on channel=0 note=68 velocity=44 time=0
note_on channel=0 note=40 velocity=31 time=0
note_on channel=0 note=47 velocity=38 time=0
note_on channel=0 note=47 velocity=0 time=228
note_on channel=0 note=68 velocity=0 time=0
note_on channel=0 note=40 velocity=0 time=0
note_on channel=0 note=62 velocity=0 time=0
note_on channel=0 note=62 velocity=44 time=12
note_on channel=0 note=68 velocity=44 time=0
note_on channel=0 note=40 velocity=34 time=0
note_on channel=0 note=47 velocity=39 time=0
note_on channel=0 note=47 velocity=0 time=228
note_on channel=0 note=68 velocity=0 time=0
note_on channel=0 note=40 velocity=0 time=0
note_on channel=0 note=62 velocity=0 time=0
note_on channel=0 note=62 velocity=44 time=12
note_on channel=0 note=68 velocity=44 time=0
note_on channel=0 note=40 velocity=34 time=0
note_on channel=0 note=47 velocity=39 time=0
note_on channel=0 note=47 velocity=0 time=228
note_on channel=0 note=68 velocity=0 time=0
note_on channel=0 note=40 velocity=0 time=0
note_on channel=0 note=62 velocity=0 time=0
note_on channel=0 note=74 velocity=0 time=12
note_on channel=0 note=74 velocity=75 time=0
note_on channel=0 note=35 velocity=39 time=0
note_on channel=0 note=62 velocity=44 time=240
note_on channel=0 note=68 velocity=44 time=0
note_on channel=0 note=40 velocity=34 time=0
note_on channel=0 note=47 velocity=39 time=0
note_on channel=0 note=47 velocity=0 time=240
note_on channel=0 note=35 velocity=0 time=0
note_on channel=0 note=62 velocity=0 time=0
note_on channel=0 note=74 velocity=0 time=0
note_on channel=0 note=40 velocity=0 time=0
note_on channel=0 note=68 velocity=0 time=0
note_on channel=0 note=74 velocity=75 time=0
note_on channel=0 note=35 velocity=39 time=0
note_on channel=0 note=62 velocity=44 time=240
note_on channel=0 note=68 velocity=44 time=0
note_on channel=0 note=47 velocity=39 time=0
note_on channel=0 note=40 velocity=34 time=0
<meta message set_tempo tempo=478088 time=232>
<meta message set_tempo tempo=480000 time=8>
note_on channel=0 note=40 velocity=0 time=0
note_on channel=0 note=35 velocity=0 time=0
note_on channel=0 note=62 velocity=0 time=0
note_on channel=0 note=74 velocity=0 time=0
note_on channel=0 note=47 velocity=0 time=0
note_on channel=0 note=68 velocity=0 time=0
note_on channel=0 note=77 velocity=84 time=0
note_on channel=0 note=38 velocity=49 time=0
control_change channel=0 control=64 value=0 time=3
control_change channel=0 control=64 value=126 time=123
note_on channel=0 note=38 velocity=0 time=102
note_on channel=0 note=65 velocity=46 time=12
note_on channel=0 note=74 velocity=46 time=0
note_on channel=0 note=45 velocity=35 time=0
note_on channel=0 note=50 velocity=42 time=0
note_on channel=0 note=50 velocity=0 time=228
note_on channel=0 note=74 velocity=0 time=0
note_on channel=0 note=45 velocity=0 time=0
note_on channel=0 note=65 velocity=0 time=0
<meta message set_tempo tempo=431655 time=12>
note_on channel=0 note=77 velocity=0 time=0
note_on channel=0 note=78 velocity=88 time=0
note_on channel=0 note=45 velocity=35 time=0
note_on channel=0 note=50 velocity=42 time=0
control_change channel=0 control=64 value=0 time=14
control_change channel=0 control=64 value=125 time=192
note_on channel=0 note=50 velocity=0 time=22
note_on channel=0 note=45 velocity=0 time=0
note_on channel=0 note=66 velocity=48 time=12
note_on channel=0 note=74 velocity=48 time=0
note_on channel=0 note=45 velocity=35 time=0
note_on channel=0 note=50 velocity=42 time=0
note_on channel=0 note=50 velocity=0 time=228
note_on channel=0 note=74 velocity=0 time=0
note_on channel=0 note=45 velocity=0 time=0
note_on channel=0 note=66 velocity=0 time=0
note_on channel=0 note=66 velocity=47 time=12
note_on channel=0 note=74 velocity=47 time=0
note_on channel=0 note=45 velocity=35 time=0
note_on channel=0 note=50 velocity=42 time=0
note_on channel=0 note=50 velocity=0 time=228
note_on channel=0 note=74 velocity=0 time=0
note_on channel=0 note=45 velocity=0 time=0
note_on channel=0 note=66 velocity=0 time=0
note_on channel=0 note=66 velocity=47 time=12
note_on channel=0 note=74 velocity=47 time=0
note_on channel=0 note=45 velocity=35 time=0
note_on channel=0 note=50 velocity=42 time=0
note_on channel=0 note=50 velocity=0 time=228
note_on channel=0 note=74 velocity=0 time=0
note_on channel=0 note=45 velocity=0 time=0
note_on channel=0 note=66 velocity=0 time=0
note_on channel=0 note=66 velocity=47 time=12
note_on channel=0 note=74 velocity=47 time=0
note_on channel=0 note=50 velocity=46 time=0
note_on channel=0 note=45 velocity=39 time=0
note_on channel=0 note=45 velocity=0 time=228
note_on channel=0 note=74 velocity=0 time=0
note_on channel=0 note=50 velocity=0 time=0
note_on channel=0 note=66 velocity=0 time=0
note_on channel=0 note=66 velocity=47 time=12
note_on channel=0 note=74 velocity=47 time=0
note_on channel=0 note=50 velocity=45 time=0
note_on channel=0 note=45 velocity=38 time=0
note_on channel=0 note=45 velocity=0 time=228
note_on channel=0 note=74 velocity=0 time=0
note_on channel=0 note=50 velocity=0 time=0
note_on channel=0 note=66 velocity=0 time=0
note_on channel=0 note=78 velocity=0 time=12
note_on channel=0 note=78 velocity=86 time=0
note_on channel=0 note=38 velocity=45 time=0
control_change channel=0 control=64 value=0 time=9
control_change channel=0 control=64 value=125 time=128
note_on channel=0 note=66 velocity=48 time=103
note_on channel=0 note=74 velocity=48 time=0
note_on channel=0 note=50 velocity=45 time=0
note_on channel=0 note=45 velocity=38 time=0
note_on channel=0 note=45 velocity=0 time=240
note_on channel=0 note=38 velocity=0 time=0
note_on channel=0 note=66 velocity=0 time=0
note_on channel=0 note=78 velocity=0 time=0
note_on channel=0 note=50 velocity=0 time=0
note_on channel=0 note=74 velocity=0 time=0
note_on channel=0 note=78 velocity=86 time=0
note_on channel=0 note=38 velocity=45 time=0
note_on channel=0 note=66 velocity=47 time=240
note_on channel=0 note=74 velocity=47 time=0
note_on channel=0 note=50 velocity=45 time=0
note_on channel=0 note=45 velocity=38 time=0
<meta message set_tempo tempo=478088 time=232>
<meta message set_tempo tempo=480000 time=8>
note_on channel=0 note=45 velocity=0 time=0
note_on channel=0 note=38 velocity=0 time=0
note_on channel=0 note=66 velocity=0 time=0
note_on channel=0 note=78 velocity=0 time=0
note_on channel=0 note=50 velocity=0 time=0
note_on channel=0 note=74 velocity=0 time=0
note_on channel=0 note=78 velocity=86 time=0
note_on channel=0 note=33 velocity=45 time=0
control_change channel=0 control=64 value=0 time=9
control_change channel=0 control=64 value=126 time=94
note_on channel=0 note=66 velocity=47 time=137
note_on channel=0 note=73 velocity=47 time=0
note_on channel=0 note=45 velocity=45 time=0
note_on channel=0 note=40 velocity=38 time=0
<meta message set_tempo tempo=431655 time=240>
note_on channel=0 note=40 velocity=0 time=0
note_on channel=0 note=33 velocity=0 time=0
note_on channel=0 note=66 velocity=0 time=0
note_on channel=0 note=78 velocity=0 time=0
note_on channel=0 note=45 velocity=0 time=0
note_on channel=0 note=73 velocity=0 time=0
note_on channel=0 note=79 velocity=96 time=0
note_on channel=0 note=33 velocity=45 time=0
control_change channel=0 control=64 value=0 time=12
control_change channel=0 control=64 value=126 time=125
note_on channel=0 note=33 velocity=0 time=103
note_on channel=0 note=67 velocity=49 time=0
note_on channel=0 note=73 velocity=49 time=0
note_on channel=0 note=45 velocity=45 time=0
note_on channel=0 note=40 velocity=38 time=0
note_on channel=0 note=40 velocity=0 time=228
note_on channel=0 note=73 velocity=0 time=0
note_on channel=0 note=45 velocity=0 time=0
note_on channel=0 note=67 velocity=0 time=0
note_on channel=0 note=67 velocity=49 time=12
note_on channel=0 note=73 velocity=49 time=0
note_on channel=0 note=45 velocity=45 time=0
note_on channel=0 note=40 velocity=38 time=0
note_on channel=0 note=40 velocity=0 time=228
note_on channel=0 note=73 velocity=0 time=0
note_on channel=0 note=45 velocity=0 time=0
note_on channel=0 note=67 velocity=0 time=0
note_on channel=0 note=67 velocity=49 time=12
note_on channel=0 note=73 velocity=49 time=0
note_on channel=0 note=45 velocity=45 time=0
note_on channel=0 note=40 velocity=38 time=0
note_on channel=0 note=40 velocity=0 time=228
note_on channel=0 note=73 velocity=0 time=0
note_on channel=0 note=45 velocity=0 time=0
note_on channel=0 note=67 velocity=0 time=0
note_on channel=0 note=67 velocity=49 time=12
note_on channel=0 note=73 velocity=49 time=0
note_on channel=0 note=45 velocity=49 time=0
note_on channel=0 note=40 velocity=41 time=0
note_on channel=0 note=40 velocity=0 time=228
note_on channel=0 note=73 velocity=0 time=0
note_on channel=0 note=45 velocity=0 time=0
note_on channel=0 note=67 velocity=0 time=0
note_on channel=0 note=67 velocity=49 time=12
note_on channel=0 note=73 velocity=49 time=0
note_on channel=0 note=45 velocity=49 time=0
note_on channel=0 note=40 velocity=41 time=0
note_on channel=0 note=40 velocity=0 time=228
note_on channel=0 note=73 velocity=0 time=0
note_on channel=0 note=45 velocity=0 time=0
note_on channel=0 note=67 velocity=0 time=0
note_on channel=0 note=79 velocity=0 time=12
note_on channel=0 note=79 velocity=94 time=0
note_on channel=0 note=33 velocity=49 time=0
control_change channel=0 control=64 value=0 time=12
control_change channel=0 control=64 value=126 time=148
note_on channel=0 note=67 velocity=48 time=80
note_on channel=0 note=73 velocity=48 time=0
note_on channel=0 note=45 velocity=49 time=0
note_on channel=0 note=40 velocity=41 time=0
note_on channel=0 note=40 velocity=0 time=240
note_on channel=0 note=33 velocity=0 time=0
note_on channel=0 note=67 velocity=0 time=0
note_on channel=0 note=79 velocity=0 time=0
note_on channel=0 note=45 velocity=0 time=0
note_on channel=0 note=73 velocity=0 time=0
note_on channel=0 note=79 velocity=97 time=0
note_on channel=0 note=33 velocity=49 time=0
note_on channel=0 note=67 velocity=50 time=240
note_on channel=0 note=73 velocity=50 time=0
note_on channel=0 note=45 velocity=49 time=0
note_on channel=0 note=40 velocity=41 time=0
<meta message set_tempo tempo=478088 time=232>
<meta message set_tempo tempo=478088 time=8>
note_on channel=0 note=40 velocity=0 time=0
note_on channel=0 note=33 velocity=0 time=0
note_on channel=0 note=67 velocity=0 time=0
note_on channel=0 note=79 velocity=0 time=0
note_on channel=0 note=45 velocity=0 time=0
note_on channel=0 note=73 velocity=0 time=0
note_on channel=0 note=81 velocity=99 time=0
note_on channel=0 note=32 velocity=61 time=0
control_change channel=0 control=64 value=0 time=9
control_change channel=0 control=64 value=126 time=189
note_on channel=0 note=32 velocity=0 time=30
note_on channel=0 note=73 velocity=51 time=12
note_on channel=0 note=69 velocity=51 time=0
note_on channel=0 note=44 velocity=44 time=0
note_on channel=0 note=49 velocity=44 time=0
note_on channel=0 note=52 velocity=51 time=0
note_on channel=0 note=52 velocity=0 time=228
note_on channel=0 note=73 velocity=0 time=0
note_on channel=0 note=69 velocity=0 time=0
note_on channel=0 note=44 velocity=0 time=0
note_on channel=0 note=49 velocity=0 time=0
<meta message set_tempo tempo=428571 time=4>
note_on channel=0 note=81 velocity=0 time=8
note_on channel=0 note=80 velocity=96 time=0
note_on channel=0 note=44 velocity=44 time=0
note_on channel=0 note=49 velocity=44 time=0
note_on channel=0 note=52 velocity=51 time=0
control_change channel=0 control=64 value=0 time=9
control_change channel=0 control=64 value=126 time=189
note_on channel=0 note=52 velocity=0 time=30
note_on channel=0 note=49 velocity=0 time=0
note_on channel=0 note=44 velocity=0 time=0
note_on channel=0 note=68 velocity=51 time=12
note_on channel=0 note=73 velocity=51 time=0
note_on channel=0 note=44 velocity=44 time=0
note_on channel=0 note=49 velocity=44 time=0
note_on channel=0 note=52 velocity=52 time=0
note_on channel=0 note=52 velocity=0 time=228
note_on channel=0 note=68 velocity=0 time=0
note_on channel=0 note=73 velocity=0 time=0
note_on channel=0 note=44 velocity=0 time=0
note_on channel=0 note=49 velocity=0 time=0
note_on channel=0 note=68 velocity=44 time=12
note_on channel=0 note=73 velocity=44 time=0
note_on channel=0 note=44 velocity=44 time=0
note_on channel=0 note=49 velocity=44 time=0
note_on channel=0 note=52 velocity=52 time=0
note_on channel=0 note=52 velocity=0 time=228
note_on channel=0 note=68 velocity=0 time=0
note_on channel=0 note=73 velocity=0 time=0
note_on channel=0 note=44 velocity=0 time=0
note_on channel=0 note=49 velocity=0 time=0
note_on channel=0 note=68 velocity=51 time=12
note_on channel=0 note=73 velocity=51 time=0
note_on channel=0 note=44 velocity=44 time=0
note_on channel=0 note=49 velocity=44 time=0
note_on channel=0 note=52 velocity=52 time=0
note_on channel=0 note=52 velocity=0 time=228
note_on channel=0 note=68 velocity=0 time=0
note_on channel=0 note=73 velocity=0 time=0
note_on channel=0 note=44 velocity=0 time=0
note_on channel=0 note=49 velocity=0 time=0
<meta message set_tempo tempo=446097 time=4>
note_on channel=0 note=80 velocity=0 time=8
note_on channel=0 note=81 velocity=99 time=0
note_on channel=0 note=32 velocity=61 time=0
control_change channel=0 control=64 value=0 time=8
control_change channel=0 control=64 value=126 time=108
note_on channel=0 note=32 velocity=0 time=112
note_on channel=0 note=69 velocity=52 time=12
note_on channel=0 note=72 velocity=52 time=0
note_on channel=0 note=44 velocity=44 time=0
note_on channel=0 note=51 velocity=44 time=0
note_on channel=0 note=54 velocity=52 time=0
note_on channel=0 note=54 velocity=0 time=228
note_on channel=0 note=69 velocity=0 time=0
note_on channel=0 note=72 velocity=0 time=0
note_on channel=0 note=44 velocity=0 time=0
note_on channel=0 note=51 velocity=0 time=0
<meta message set_tempo tempo=428571 time=12>
note_on channel=0 note=81 velocity=0 time=0
note_on channel=0 note=80 velocity=95 time=0
note_on channel=0 note=44 velocity=44 time=0
note_on channel=0 note=51 velocity=44 time=0
note_on channel=0 note=54 velocity=52 time=0
control_change channel=0 control=64 value=0 time=13
control_change channel=0 control=64 value=126 time=161
note_on channel=0 note=54 velocity=0 time=54
note_on channel=0 note=51 velocity=0 time=0
note_on channel=0 note=44 velocity=0 time=0
note_on channel=0 note=68 velocity=52 time=12
note_on channel=0 note=72 velocity=52 time=0
note_on channel=0 note=44 velocity=44 time=0
note_on channel=0 note=51 velocity=44 time=0
note_on channel=0 note=54 velocity=52 time=0
<meta message set_tempo tempo=502092 time=224>
note_on channel=0 note=54 velocity=0 time=4
note_on channel=0 note=68 velocity=0 time=0
note_on channel=0 note=72 velocity=0 time=0
note_on channel=0 note=44 velocity=0 time=0
note_on channel=0 note=51 velocity=0 time=0
note_on channel=0 note=68 velocity=52 time=12
note_on channel=0 note=72 velocity=52 time=0
note_on channel=0 note=44 velocity=44 time=0
note_on channel=0 note=51 velocity=44 time=0
note_on channel=0 note=54 velocity=51 time=0
note_on channel=0 note=54 velocity=0 time=228
note_on channel=0 note=68 velocity=0 time=0
note_on channel=0 note=72 velocity=0 time=0
note_on channel=0 note=44 velocity=0 time=0
note_on channel=0 note=51 velocity=0 time=0
note_on channel=0 note=68 velocity=52 time=12
note_on channel=0 note=72 velocity=52 time=0
note_on channel=0 note=44 velocity=44 time=0
note_on channel=0 note=51 velocity=44 time=0
note_on channel=0 note=54 velocity=51 time=0
note_on channel=0 note=54 velocity=0 time=228
note_on channel=0 note=68 velocity=0 time=0
note_on channel=0 note=72 velocity=0 time=0
note_on channel=0 note=44 velocity=0 time=0
note_on channel=0 note=51 velocity=0 time=0
<meta message set_tempo tempo=502092 time=4>
note_on channel=0 note=80 velocity=0 time=8
note_on channel=0 note=73 velocity=86 time=0
note_on channel=0 note=37 velocity=52 time=0
control_change channel=0 control=64 value=0 time=7
note_on channel=0 note=37 velocity=0 time=221
<meta message set_tempo tempo=444444 time=12>
note_on channel=0 note=68 velocity=44 time=0
note_on channel=0 note=61 velocity=44 time=0
note_on channel=0 note=64 velocity=44 time=0
note_on channel=0 note=44 velocity=34 time=0
note_on channel=0 note=49 velocity=34 time=0
note_on channel=0 note=52 velocity=40 time=0
control_change channel=0 control=64 value=127 time=57
note_on channel=0 note=52 velocity=0 time=171
note_on channel=0 note=44 velocity=0 time=0
note_on channel=0 note=68 velocity=0 time=0
note_on channel=0 note=61 velocity=0 time=0
note_on channel=0 note=64 velocity=0 time=0
note_on channel=0 note=49 velocity=0 time=0
note_on channel=0 note=68 velocity=44 time=12
note_on channel=0 note=61 velocity=44 time=0
note_on channel=0 note=64 velocity=44 time=0
note_on channel=0 note=44 velocity=34 time=0
note_on channel=0 note=49 velocity=34 time=0
note_on channel=0 note=52 velocity=40 time=0
note_on channel=0 note=52 velocity=0 time=228
note_on channel=0 note=44 velocity=0 time=0
note_on channel=0 note=68 velocity=0 time=0
note_on channel=0 note=61 velocity=0 time=0
note_on channel=0 note=64 velocity=0 time=0
note_on channel=0 note=49 velocity=0 time=0
note_on channel=0 note=68 velocity=44 time=12
note_on channel=0 note=61 velocity=44 time=0
note_on channel=0 note=64 velocity=44 time=0
note_on channel=0 note=44 velocity=34 time=0
note_on channel=0 note=49 velocity=34 time=0
note_on channel=0 note=52 velocity=40 time=0
note_on channel=0 note=52 velocity=0 time=228
note_on channel=0 note=44 velocity=0 time=0
note_on channel=0 note=68 velocity=0 time=0
note_on channel=0 note=61 velocity=0 time=0
note_on channel=0 note=64 velocity=0 time=0
note_on channel=0 note=49 velocity=0 time=0
note_on channel=0 note=68 velocity=44 time=12
note_on channel=0 note=61 velocity=44 time=0
note_on channel=0 note=64 velocity=44 time=0
note_on channel=0 note=44 velocity=34 time=0
note_on channel=0 note=49 velocity=34 time=0
note_on channel=0 note=52 velocity=40 time=0
note_on channel=0 note=52 velocity=0 time=228
note_on channel=0 note=44 velocity=0 time=0
note_on channel=0 note=68 velocity=0 time=0
note_on channel=0 note=61 velocity=0 time=0
note_on channel=0 note=64 velocity=0 time=0
note_on channel=0 note=49 velocity=0 time=0
note_on channel=0 note=68 velocity=44 time=12
note_on channel=0 note=61 velocity=44 time=0
note_on channel=0 note=64 velocity=44 time=0
note_on channel=0 note=44 velocity=34 time=0
note_on channel=0 note=49 velocity=34 time=0
note_on channel=0 note=52 velocity=40 time=0
note_on channel=0 note=52 velocity=0 time=228
note_on channel=0 note=44 velocity=0 time=0
note_on channel=0 note=68 velocity=0 time=0
note_on channel=0 note=61 velocity=0 time=0
note_on channel=0 note=64 velocity=0 time=0
note_on channel=0 note=49 velocity=0 time=0
note_on channel=0 note=68 velocity=44 time=12
note_on channel=0 note=61 velocity=44 time=0
note_on channel=0 note=64 velocity=44 time=0
note_on channel=0 note=49 velocity=34 time=0
note_on channel=0 note=44 velocity=34 time=0
note_on channel=0 note=52 velocity=39 time=0
note_on channel=0 note=52 velocity=0 time=228
note_on channel=0 note=49 velocity=0 time=0
note_on channel=0 note=68 velocity=0 time=0
note_on channel=0 note=61 velocity=0 time=0
note_on channel=0 note=64 velocity=0 time=0
note_on channel=0 note=44 velocity=0 time=0
note_on channel=0 note=68 velocity=44 time=12
note_on channel=0 note=61 velocity=44 time=0
note_on channel=0 note=64 velocity=44 time=0
note_on channel=0 note=44 velocity=34 time=0
note_on channel=0 note=49 velocity=34 time=0
note_on channel=0 note=52 velocity=39 time=0
note_on channel=0 note=52 velocity=0 time=228
note_on channel=0 note=44 velocity=0 time=0
note_on channel=0 note=68 velocity=0 time=0
note_on channel=0 note=61 velocity=0 time=0
note_on channel=0 note=64 velocity=0 time=0
note_on channel=0 note=49 velocity=0 time=0
note_on channel=0 note=73 velocity=0 time=12
note_on channel=0 note=68 velocity=48 time=0
note_on channel=0 note=44 velocity=30 time=0
note_on channel=0 note=49 velocity=30 time=0
note_on channel=0 note=52 velocity=37 time=0
note_on channel=0 note=52 velocity=0 time=228
note_on channel=0 note=49 velocity=0 time=0
note_on channel=0 note=44 velocity=0 time=0
note_on channel=0 note=61 velocity=26 time=12
note_on channel=0 note=64 velocity=26 time=0
note_on channel=0 note=44 velocity=30 time=0
note_on channel=0 note=49 velocity=30 time=0
note_on channel=0 note=52 velocity=36 time=0
note_on channel=0 note=52 velocity=0 time=228
note_on channel=0 note=61 velocity=0 time=0
note_on channel=0 note=64 velocity=0 time=0
note_on channel=0 note=44 velocity=0 time=0
note_on channel=0 note=49 velocity=0 time=0
note_on channel=0 note=68 velocity=0 time=12
note_on channel=0 note=68 velocity=42 time=0
note_on channel=0 note=44 velocity=28 time=0
note_on channel=0 note=49 velocity=28 time=0
note_on channel=0 note=52 velocity=34 time=0
note_on channel=0 note=52 velocity=0 time=228
note_on channel=0 note=49 velocity=0 time=0
note_on channel=0 note=44 velocity=0 time=0
note_on channel=0 note=61 velocity=26 time=12
note_on channel=0 note=64 velocity=26 time=0
note_on channel=0 note=44 velocity=25 time=0
note_on channel=0 note=49 velocity=25 time=0
note_on channel=0 note=52 velocity=30 time=0
note_on channel=0 note=52 velocity=0 time=228
note_on channel=0 note=61 velocity=0 time=0
note_on channel=0 note=64 velocity=0 time=0
note_on channel=0 note=44 velocity=0 time=0
note_on channel=0 note=49 velocity=0 time=0
note_on channel=0 note=68 velocity=0 time=12
note_on channel=0 note=68 velocity=42 time=0
note_on channel=0 note=37 velocity=26 time=0
control_change channel=0 control=64 value=0 time=14
note_on channel=0 note=37 velocity=0 time=214
note_on channel=0 note=61 velocity=26 time=12
note_on channel=0 note=64 velocity=26 time=0
note_on channel=0 note=52 velocity=26 time=0
note_on channel=0 note=49 velocity=22 time=0
control_change channel=0 control=64 value=126 time=99
note_on channel=0 note=49 velocity=0 time=129
note_on channel=0 note=64 velocity=0 time=0
note_on channel=0 note=52 velocity=0 time=0
note_on channel=0 note=61 velocity=0 time=0
note_on channel=0 note=61 velocity=26 time=12
note_on channel=0 note=64 velocity=26 time=0
note_on channel=0 note=52 velocity=26 time=0
note_on channel=0 note=49 velocity=22 time=0
note_on channel=0 note=49 velocity=0 time=228
note_on channel=0 note=64 velocity=0 time=0
note_on channel=0 note=52 velocity=0 time=0
note_on channel=0 note=61 velocity=0 time=0
note_on channel=0 note=61 velocity=26 time=12
note_on channel=0 note=64 velocity=26 time=0
note_on channel=0 note=52 velocity=26 time=0
note_on channel=0 note=49 velocity=22 time=0
note_on channel=0 note=49 velocity=0 time=228
note_on channel=0 note=64 velocity=0 time=0
note_on channel=0 note=52 velocity=0 time=0
note_on channel=0 note=61 velocity=0 time=0
note_on channel=0 note=61 velocity=26 time=12
note_on channel=0 note=64 velocity=26 time=0
note_on channel=0 note=52 velocity=26 time=0
note_on channel=0 note=49 velocity=22 time=0
note_on channel=0 note=49 velocity=0 time=228
note_on channel=0 note=64 velocity=0 time=0
note_on channel=0 note=52 velocity=0 time=0
note_on channel=0 note=61 velocity=0 time=0
note_on channel=0 note=61 velocity=26 time=12
note_on channel=0 note=64 velocity=26 time=0
note_on channel=0 note=52 velocity=26 time=0
note_on channel=0 note=49 velocity=22 time=0
note_on channel=0 note=49 velocity=0 time=228
note_on channel=0 note=64 velocity=0 time=0
note_on channel=0 note=52 velocity=0 time=0
note_on channel=0 note=61 velocity=0 time=0
note_on channel=0 note=61 velocity=26 time=12
note_on channel=0 note=64 velocity=26 time=0
note_on channel=0 note=49 velocity=22 time=0
note_on channel=0 note=52 velocity=26 time=0
note_on channel=0 note=52 velocity=0 time=228
note_on channel=0 note=64 velocity=0 time=0
note_on channel=0 note=49 velocity=0 time=0
note_on channel=0 note=61 velocity=0 time=0
note_on channel=0 note=61 velocity=26 time=12
note_on channel=0 note=64 velocity=26 time=0
note_on channel=0 note=49 velocity=22 time=0
note_on channel=0 note=52 velocity=26 time=0
note_on channel=0 note=52 velocity=0 time=228
note_on channel=0 note=64 velocity=0 time=0
note_on channel=0 note=49 velocity=0 time=0
note_on channel=0 note=61 velocity=0 time=0
<meta message set_tempo tempo=502092 time=12>
note_on channel=0 note=68 velocity=0 time=0
note_on channel=0 note=68 velocity=42 time=0
note_on channel=0 note=49 velocity=22 time=0
note_on channel=0 note=52 velocity=26 time=0
note_on channel=0 note=52 velocity=0 time=228
note_on channel=0 note=49 velocity=0 time=0
note_on channel=0 note=61 velocity=26 time=12
note_on channel=0 note=64 velocity=26 time=0
note_on channel=0 note=49 velocity=22 time=0
note_on channel=0 note=52 velocity=26 time=0
note_on channel=0 note=52 velocity=0 time=228
note_on channel=0 note=64 velocity=0 time=0
note_on channel=0 note=49 velocity=0 time=0
note_on channel=0 note=61 velocity=0 time=0
note_on channel=0 note=68 velocity=0 time=12
note_on channel=0 note=70 velocity=42 time=0
note_on channel=0 note=49 velocity=22 time=0
note_on channel=0 note=52 velocity=26 time=0
note_on channel=0 note=52 velocity=0 time=228
note_on channel=0 note=49 velocity=0 time=0
note_on channel=0 note=61 velocity=26 time=12
note_on channel=0 note=64 velocity=26 time=0
note_on channel=0 note=49 velocity=22 time=0
note_on channel=0 note=52 velocity=26 time=0
note_on channel=0 note=52 velocity=0 time=228
note_on channel=0 note=64 velocity=0 time=0
note_on channel=0 note=49 velocity=0 time=0
note_on channel=0 note=61 velocity=0 time=0
<meta message set_tempo tempo=444444 time=12>
note_on channel=0 note=70 velocity=0 time=0
note_on channel=0 note=68 velocity=37 time=0
note_on channel=0 note=39 velocity=26 time=0
control_change channel=0 control=64 value=0 time=13
control_change channel=0 control=64 value=125 time=193
note_on channel=0 note=39 velocity=0 time=22
note_on channel=0 note=58 velocity=26 time=12
note_on channel=0 note=61 velocity=26 time=0
note_on channel=0 note=51 velocity=26 time=0
note_on channel=0 note=51 velocity=0 time=228
note_on channel=0 note=61 velocity=0 time=0
note_on channel=0 note=58 velocity=0 time=0
note_on channel=0 note=58 velocity=26 time=12
note_on channel=0 note=61 velocity=26 time=0
note_on channel=0 note=51 velocity=26 time=0
note_on channel=0 note=51 velocity=0 time=228
note_on channel=0 note=61 velocity=0 time=0
note_on channel=0 note=58 velocity=0 time=0
note_on channel=0 note=58 velocity=25 time=12
note_on channel=0 note=61 velocity=25 time=0
note_on channel=0 note=51 velocity=25 time=0
note_on channel=0 note=51 velocity=0 time=228
note_on channel=0 note=61 velocity=0 time=0
note_on channel=0 note=58 velocity=0 time=0
note_on channel=0 note=58 velocity=25 time=12
note_on channel=0 note=61 velocity=25 time=0
note_on channel=0 note=51 velocity=25 time=0
note_on channel=0 note=51 velocity=0 time=228
note_on channel=0 note=61 velocity=0 time=0
note_on channel=0 note=58 velocity=0 time=0
note_on channel=0 note=58 velocity=24 time=12
note_on channel=0 note=61 velocity=24 time=0
note_on channel=0 note=51 velocity=24 time=0
note_on channel=0 note=51 velocity=0 time=228
note_on channel=0 note=61 velocity=0 time=0
note_on channel=0 note=58 velocity=0 time=0
<meta message set_tempo tempo=442804 time=12>
note_on channel=0 note=58 velocity=24 time=0
note_on channel=0 note=61 velocity=24 time=0
note_on channel=0 note=51 velocity=24 time=0
<meta message set_tempo tempo=444444 time=108>
<meta message set_tempo tempo=446097 time=100>
note_on channel=0 note=51 velocity=0 time=20
note_on channel=0 note=61 velocity=0 time=0
note_on channel=0 note=58 velocity=0 time=0
note_on channel=0 note=58 velocity=24 time=12
note_on channel=0 note=61 velocity=24 time=0
note_on channel=0 note=51 velocity=24 time=0
<meta message set_tempo tempo=447761 time=68>
<meta message set_tempo tempo=449438 time=112>
note_on channel=0 note=51 velocity=0 time=48
note_on channel=0 note=61 velocity=0 time=0
note_on channel=0 note=58 velocity=0 time=0
note_on channel=0 note=58 velocity=23 time=12
note_on channel=0 note=61 velocity=23 time=0
note_on channel=0 note=51 velocity=23 time=0
<meta message set_tempo tempo=451128 time=40>
<meta message set_tempo tempo=452830 time=100>
note_on channel=0 note=51 velocity=0 time=88
note_on channel=0 note=61 velocity=0 time=0
note_on channel=0 note=58 velocity=0 time=0
<meta message set_tempo tempo=454545 time=12>
note_on channel=0 note=58 velocity=23 time=0
note_on channel=0 note=61 velocity=23 time=0
note_on channel=0 note=51 velocity=23 time=0
<meta message set_tempo tempo=456274 time=108>
<meta message set_tempo tempo=458015 time=100>
note_on channel=0 note=51 velocity=0 time=20
note_on channel=0 note=61 velocity=0 time=0
note_on channel=0 note=58 velocity=0 time=0
note_on channel=0 note=58 velocity=22 time=12
note_on channel=0 note=61 velocity=22 time=0
note_on channel=0 note=51 velocity=22 time=0
<meta message set_tempo tempo=459770 time=68>
<meta message set_tempo tempo=461538 time=112>
note_on channel=0 note=51 velocity=0 time=48
note_on channel=0 note=61 velocity=0 time=0
note_on channel=0 note=58 velocity=0 time=0
note_on channel=0 note=58 velocity=22 time=12
note_on channel=0 note=61 velocity=22 time=0
note_on channel=0 note=51 velocity=22 time=0
<meta message set_tempo tempo=463320 time=40>
<meta message set_tempo tempo=465116 time=100>
note_on channel=0 note=51 velocity=0 time=88
note_on channel=0 note=61 velocity=0 time=0
note_on channel=0 note=58 velocity=0 time=0
<meta message set_tempo tempo=466926 time=12>
note_on channel=0 note=68 velocity=0 time=0
note_on channel=0 note=67 velocity=31 time=0
note_on channel=0 note=39 velocity=22 time=0
control_change channel=0 control=64 value=0 time=6
<meta message set_tempo tempo=468750 time=102>
control_change channel=0 control=64 value=127 time=64
<meta message set_tempo tempo=470588 time=36>
note_on channel=0 note=39 velocity=0 time=20
note_on channel=0 note=58 velocity=22 time=12
note_on channel=0 note=61 velocity=22 time=0
note_on channel=0 note=51 velocity=22 time=0
<meta message set_tempo tempo=472441 time=68>
<meta message set_tempo tempo=474308 time=112>
note_on channel=0 note=51 velocity=0 time=48
note_on channel=0 note=61 velocity=0 time=0
note_on channel=0 note=58 velocity=0 time=0
note_on channel=0 note=58 velocity=22 time=12
note_on channel=0 note=61 velocity=22 time=0
note_on channel=0 note=51 velocity=22 time=0
<meta message set_tempo tempo=476190 time=40>
<meta message set_tempo tempo=478088 time=100>
note_on channel=0 note=51 velocity=0 time=88
note_on channel=0 note=61 velocity=0 time=0
note_on channel=0 note=58 velocity=0 time=0
<meta message set_tempo tempo=480000 time=12>
note_on channel=0 note=58 velocity=20 time=0
note_on channel=0 note=61 velocity=20 time=0
note_on channel=0 note=51 velocity=20 time=0
<meta message set_tempo tempo=481928 time=108>
<meta message set_tempo tempo=483871 time=100>
note_on channel=0 note=51 velocity=0 time=20
note_on channel=0 note=61 velocity=0 time=0
note_on channel=0 note=58 velocity=0 time=0
note_on channel=0 note=58 velocity=20 time=12
note_on channel=0 note=61 velocity=20 time=0
note_on channel=0 note=51 velocity=20 time=0
<meta message set_tempo tempo=485830 time=68>
<meta message set_tempo tempo=487805 time=112>
note_on channel=0 note=51 velocity=0 time=48
note_on channel=0 note=61 velocity=0 time=0
note_on channel=0 note=58 velocity=0 time=0
note_on channel=0 note=58 velocity=19 time=12
note_on channel=0 note=61 velocity=19 time=0
note_on channel=0 note=51 velocity=19 time=0
<meta message set_tempo tempo=489796 time=40>
<meta message set_tempo tempo=491803 time=100>
note_on channel=0 note=51 velocity=0 time=88
note_on channel=0 note=61 velocity=0 time=0
note_on channel=0 note=58 velocity=0 time=0
<meta message set_tempo tempo=493827 time=12>
note_on channel=0 note=58 velocity=19 time=0
note_on channel=0 note=61 velocity=19 time=0
note_on channel=0 note=51 velocity=19 time=0
note_on channel=0 note=51 velocity=0 time=228
note_on channel=0 note=61 velocity=0 time=0
note_on channel=0 note=58 velocity=0 time=0
note_on channel=0 note=58 velocity=19 time=12
note_on channel=0 note=61 velocity=19 time=0
note_on channel=0 note=51 velocity=19 time=0
note_on channel=0 note=51 velocity=0 time=228
note_on channel=0 note=61 velocity=0 time=0
note_on channel=0 note=58 velocity=0 time=0
note_on channel=0 note=58 velocity=18 time=12
note_on channel=0 note=61 velocity=18 time=0
note_on channel=0 note=51 velocity=18 time=0
note_on channel=0 note=51 velocity=0 time=228
note_on channel=0 note=61 velocity=0 time=0
note_on channel=0 note=58 velocity=0 time=0
note_on channel=0 note=58 velocity=18 time=12
note_on channel=0 note=61 velocity=18 time=0
note_on channel=0 note=51 velocity=18 time=0
note_on channel=0 note=51 velocity=0 time=228
note_on channel=0 note=61 velocity=0 time=0
note_on channel=0 note=58 velocity=0 time=0
note_on channel=0 note=58 velocity=17 time=12
note_on channel=0 note=61 velocity=17 time=0
note_on channel=0 note=51 velocity=17 time=0
<meta message set_tempo tempo=603015 time=8>
note_on channel=0 note=51 velocity=0 time=220
note_on channel=0 note=61 velocity=0 time=0
note_on channel=0 note=58 velocity=0 time=0
note_on channel=0 note=58 velocity=17 time=12
note_on channel=0 note=61 velocity=17 time=0
note_on channel=0 note=51 velocity=17 time=0
note_on channel=0 note=51 velocity=0 time=228
note_on channel=0 note=61 velocity=0 time=0
note_on channel=0 note=58 velocity=0 time=0
<meta message key_signature key='Ab' time=12>
<meta message set_tempo tempo=459770 time=0>
<meta message marker text='Allegretto' time=0>
note_on channel=0 note=67 velocity=0 time=0
note_on channel=0 note=67 velocity=41 time=0
control_change channel=0 control=64 value=0 time=0
note_on channel=0 note=39 velocity=46 time=0
control_change channel=0 control=91 value=126 time=0
control_change channel=0 control=91 value=127 time=8
<meta message set_tempo tempo=458015 time=32>
<meta message set_tempo tempo=456274 time=40>
<meta message set_tempo tempo=454545 time=40>
note_on channel=0 note=67 velocity=0 time=0
note_on channel=0 note=70 velocity=34 time=0
control_change channel=0 control=64 value=127 time=0
<meta message set_tempo tempo=452830 time=40>
<meta message set_tempo tempo=451128 time=40>
<meta message set_tempo tempo=449438 time=20>
note_on channel=0 note=70 velocity=0 time=20
note_on channel=0 note=67 velocity=41 time=0
<meta message set_tempo tempo=447761 time=20>
<meta message set_tempo tempo=446097 time=40>
<meta message set_tempo tempo=444444 time=40>
note_on channel=0 note=67 velocity=0 time=20
note_on channel=0 note=39 velocity=0 time=0
note_on channel=0 note=64 velocity=34 time=0
<meta message set_tempo tempo=442804 time=20>
<meta message set_tempo tempo=441176 time=40>
<meta message set_tempo tempo=439560 time=20>
<meta message set_tempo tempo=437956 time=40>
note_on channel=0 note=64 velocity=0 time=0
note_on channel=0 note=70 velocity=41 time=0
note_on channel=0 note=61 velocity=42 time=0
note_on channel=0 note=58 velocity=35 time=0
note_on channel=0 note=51 velocity=35 time=0
<meta message set_tempo tempo=436364 time=40>
<meta message set_tempo tempo=434783 time=40>
<meta message set_tempo tempo=433213 time=40>
note_on channel=0 note=70 velocity=0 time=0
note_on channel=0 note=73 velocity=34 time=0
<meta message set_tempo tempo=431655 time=20>
<meta message set_tempo tempo=430108 time=40>
<meta message set_tempo tempo=428571 time=40>
note_on channel=0 note=73 velocity=0 time=20
note_on channel=0 note=70 velocity=41 time=0
<meta message set_tempo tempo=427046 time=20>
<meta message set_tempo tempo=425532 time=40>
<meta message set_tempo tempo=424028 time=40>
<meta message set_tempo tempo=422535 time=20>
note_on channel=0 note=70 velocity=0 time=0
note_on channel=0 note=67 velocity=34 time=0
<meta message set_tempo tempo=421053 time=40>
<meta message set_tempo tempo=419580 time=40>
<meta message set_tempo tempo=418118 time=40>
note_on channel=0 note=67 velocity=0 time=0
note_on channel=0 note=73 velocity=41 time=0
<meta message set_tempo tempo=416667 time=40>
<meta message set_tempo tempo=415225 time=20>
<meta message set_tempo tempo=413793 time=40>
note_on channel=0 note=73 velocity=0 time=20
note_on channel=0 note=76 velocity=34 time=0
<meta message set_tempo tempo=412371 time=20>
<meta message set_tempo tempo=410959 time=40>
<meta message set_tempo tempo=409556 time=40>
note_on channel=0 note=76 velocity=0 time=20
note_on channel=0 note=73 velocity=41 time=0
<meta message set_tempo tempo=408163 time=20>
<meta message set_tempo tempo=406780 time=20>
<meta message set_tempo tempo=405405 time=40>
<meta message set_tempo tempo=404040 time=40>
note_on channel=0 note=73 velocity=0 time=0
note_on channel=0 note=70 velocity=34 time=0
<meta message set_tempo tempo=402685 time=40>
note_on channel=0 note=70 velocity=0 time=80
note_on channel=0 note=76 velocity=40 time=0
note_on channel=0 note=76 velocity=0 time=120
note_on channel=0 note=79 velocity=36 time=0
note_on channel=0 note=79 velocity=0 time=120
note_on channel=0 note=76 velocity=46 time=0
note_on channel=0 note=76 velocity=0 time=120
note_on channel=0 note=73 velocity=42 time=0
note_on channel=0 note=73 velocity=0 time=120
note_on channel=0 note=79 velocity=53 time=0
note_on channel=0 note=79 velocity=0 time=120
note_on channel=0 note=82 velocity=47 time=0
note_on channel=0 note=82 velocity=0 time=120
note_on channel=0 note=79 velocity=60 time=0
note_on channel=0 note=79 velocity=0 time=120
note_on channel=0 note=76 velocity=53 time=0
note_on channel=0 note=76 velocity=0 time=120
note_on channel=0 note=82 velocity=66 time=0
note_on channel=0 note=82 velocity=0 time=120
note_on channel=0 note=85 velocity=59 time=0
note_on channel=0 note=85 velocity=0 time=120
note_on channel=0 note=82 velocity=73 time=0
note_on channel=0 note=82 velocity=0 time=120
note_on channel=0 note=79 velocity=64 time=0
<meta message set_tempo tempo=392157 time=77>
note_on channel=0 note=79 velocity=0 time=43
note_on channel=0 note=51 velocity=0 time=0
note_on channel=0 note=58 velocity=0 time=0
note_on channel=0 note=61 velocity=0 time=0
note_on channel=0 note=85 velocity=80 time=0
note_on channel=0 note=55 velocity=51 time=0
note_on channel=0 note=51 velocity=51 time=0
note_on channel=0 note=58 velocity=51 time=0
note_on channel=0 note=61 velocity=60 time=0
control_change channel=0 control=64 value=0 time=6
control_change channel=0 control=64 value=127 time=97
note_on channel=0 note=85 velocity=0 time=17
note_on channel=0 note=88 velocity=68 time=0
note_on channel=0 note=88 velocity=0 time=120
note_on channel=0 note=85 velocity=79 time=0
note_on channel=0 note=85 velocity=0 time=120
note_on channel=0 note=82 velocity=66 time=0
<meta message set_tempo tempo=393443 time=37>
note_on channel=0 note=82 velocity=0 time=83
note_on channel=0 note=85 velocity=77 time=0
note_on channel=0 note=85 velocity=0 time=120
note_on channel=0 note=88 velocity=64 time=0
note_on channel=0 note=88 velocity=0 time=120
note_on channel=0 note=85 velocity=75 time=0
<meta message set_tempo tempo=394737 time=117>
note_on channel=0 note=85 velocity=0 time=3
note_on channel=0 note=82 velocity=63 time=0
note_on channel=0 note=82 velocity=0 time=120
note_on channel=0 note=85 velocity=74 time=0
note_on channel=0 note=85 velocity=0 time=120
note_on channel=0 note=88 velocity=62 time=0
note_on channel=0 note=88 velocity=0 time=120
note_on channel=0 note=85 velocity=72 time=0
<meta message set_tempo tempo=396040 time=77>
note_on channel=0 note=85 velocity=0 time=43
note_on channel=0 note=82 velocity=60 time=0
note_on channel=0 note=82 velocity=0 time=120
note_on channel=0 note=85 velocity=70 time=0
note_on channel=0 note=85 velocity=0 time=120
note_on channel=0 note=88 velocity=59 time=0
<meta message set_tempo tempo=397351 time=117>
note_on channel=0 note=88 velocity=0 time=3
note_on channel=0 note=85 velocity=69 time=0
note_on channel=0 note=85 velocity=0 time=120
note_on channel=0 note=82 velocity=57 time=0
note_on channel=0 note=82 velocity=0 time=120
note_on channel=0 note=85 velocity=67 time=0
note_on channel=0 note=85 velocity=0 time=120
note_on channel=0 note=88 velocity=56 time=0
<meta message set_tempo tempo=398671 time=77>
note_on channel=0 note=88 velocity=0 time=43
note_on channel=0 note=85 velocity=65 time=0
note_on channel=0 note=85 velocity=0 time=120
note_on channel=0 note=82 velocity=55 time=0
note_on channel=0 note=82 velocity=0 time=120
note_on channel=0 note=85 velocity=64 time=0
note_on channel=0 note=85 velocity=0 time=120
note_on channel=0 note=88 velocity=53 time=0
<meta message set_tempo tempo=400000 time=37>
note_on channel=0 note=88 velocity=0 time=83
note_on channel=0 note=85 velocity=62 time=0
note_on channel=0 note=85 velocity=0 time=120
note_on channel=0 note=82 velocity=51 time=0
note_on channel=0 note=82 velocity=0 time=120
note_on channel=0 note=61 velocity=0 time=0
note_on channel=0 note=55 velocity=0 time=0
note_on channel=0 note=51 velocity=0 time=0
note_on channel=0 note=58 velocity=0 time=0
note_on channel=0 note=85 velocity=60 time=0
note_on channel=0 note=51 velocity=42 time=0
note_on channel=0 note=61 velocity=50 time=0
note_on channel=0 note=58 velocity=42 time=0
note_on channel=0 note=55 velocity=42 time=0
control_change channel=0 control=64 value=0 time=12
<meta message set_tempo tempo=401338 time=65>
note_on channel=0 note=85 velocity=0 time=43
note_on channel=0 note=87 velocity=51 time=0
control_change channel=0 control=64 value=127 time=50
note_on channel=0 note=87 velocity=0 time=70
note_on channel=0 note=85 velocity=59 time=0
note_on channel=0 note=85 velocity=0 time=120
note_on channel=0 note=82 velocity=49 time=0
note_on channel=0 note=82 velocity=0 time=120
note_on channel=0 note=85 velocity=57 time=0
note_on channel=0 note=85 velocity=0 time=120
note_on channel=0 note=87 velocity=47 time=0
note_on channel=0 note=87 velocity=0 time=120
note_on channel=0 note=85 velocity=55 time=0
note_on channel=0 note=85 velocity=0 time=120
note_on channel=0 note=82 velocity=46 time=0
note_on channel=0 note=82 velocity=0 time=120
note_on channel=0 note=85 velocity=54 time=0
note_on channel=0 note=85 velocity=0 time=120
note_on channel=0 note=87 velocity=45 time=0
note_on channel=0 note=87 velocity=0 time=120
note_on channel=0 note=85 velocity=52 time=0
note_on channel=0 note=85 velocity=0 time=120
note_on channel=0 note=82 velocity=43 time=0
<meta message set_tempo tempo=398380 time=107>
note_on channel=0 note=82 velocity=0 time=13
note_on channel=0 note=85 velocity=50 time=0
<meta message set_tempo tempo=399707 time=107>
note_on channel=0 note=85 velocity=0 time=13
note_on channel=0 note=87 velocity=42 time=0
<meta message set_tempo tempo=401043 time=67>
note_on channel=0 note=87 velocity=0 time=53
note_on channel=0 note=85 velocity=49 time=0
<meta message set_tempo tempo=402387 time=27>
<meta message set_tempo tempo=403741 time=80>
note_on channel=0 note=85 velocity=0 time=13
note_on channel=0 note=82 velocity=40 time=0
<meta message set_tempo tempo=405104 time=67>
note_on channel=0 note=82 velocity=0 time=53
note_on channel=0 note=85 velocity=47 time=0
<meta message set_tempo tempo=406477 time=27>
<meta message set_tempo tempo=407858 time=80>
note_on channel=0 note=85 velocity=0 time=13
note_on channel=0 note=87 velocity=39 time=0
<meta message set_tempo tempo=409249 time=67>
note_on channel=0 note=87 velocity=0 time=53
note_on channel=0 note=85 velocity=45 time=0
<meta message set_tempo tempo=410650 time=27>
<meta message set_tempo tempo=412060 time=80>
note_on channel=0 note=85 velocity=0 time=13
note_on channel=0 note=82 velocity=38 time=0
<meta message set_tempo tempo=413479 time=67>
<meta message set_tempo tempo=500000 time=53>
note_on channel=0 note=82 velocity=0 time=0
note_on channel=0 note=85 velocity=44 time=0
note_on channel=0 note=85 velocity=0 time=120
note_on channel=0 note=87 velocity=36 time=0
note_on channel=0 note=87 velocity=0 time=120
note_on channel=0 note=85 velocity=42 time=0
note_on channel=0 note=85 velocity=0 time=120
note_on channel=0 note=82 velocity=34 time=0
<meta message set_tempo tempo=400000 time=120>
note_on channel=0 note=82 velocity=0 time=0
note_on channel=0 note=55 velocity=0 time=0
note_on channel=0 note=51 velocity=0 time=0
note_on channel=0 note=61 velocity=0 time=0
note_on channel=0 note=58 velocity=0 time=0
note_on channel=0 note=83 velocity=40 time=0
control_change channel=0 control=91 value=127 time=0
control_change channel=0 control=64 value=0 time=0
note_on channel=0 note=44 velocity=40 time=0
control_change channel=0 control=91 value=126 time=8
<meta message set_tempo tempo=392157 time=12>
control_change channel=0 control=64 value=127 time=72
note_on channel=0 note=83 velocity=0 time=28
note_on channel=0 note=87 velocity=34 time=0
note_on channel=0 note=87 velocity=0 time=120
note_on channel=0 note=44 velocity=0 time=0
note_on channel=0 note=83 velocity=40 time=0
note_on channel=0 note=83 velocity=0 time=120
note_on channel=0 note=80 velocity=34 time=0
<meta message set_tempo tempo=393443 time=60>
note_on channel=0 note=80 velocity=0 time=30
note_on channel=0 note=80 velocity=40 time=30
note_on channel=0 note=59 velocity=34 time=0
note_on channel=0 note=56 velocity=34 time=0
note_on channel=0 note=63 velocity=40 time=0
note_on channel=0 note=80 velocity=0 time=120
note_on channel=0 note=83 velocity=34 time=0
note_on channel=0 note=83 velocity=0 time=120
note_on channel=0 note=80 velocity=40 time=0
<meta message set_tempo tempo=394737 time=60>
note_on channel=0 note=80 velocity=0 time=60
note_on channel=0 note=75 velocity=34 time=0
note_on channel=0 note=75 velocity=0 time=90
note_on channel=0 note=75 velocity=40 time=30
note_on channel=0 note=75 velocity=0 time=120
note_on channel=0 note=80 velocity=34 time=0
<meta message set_tempo tempo=396040 time=60>
note_on channel=0 note=80 velocity=0 time=60
note_on channel=0 note=75 velocity=40 time=0
note_on channel=0 note=75 velocity=0 time=120
note_on channel=0 note=71 velocity=34 time=0
note_on channel=0 note=71 velocity=0 time=90
note_on channel=0 note=71 velocity=40 time=30
<meta message set_tempo tempo=397351 time=100>
note_on channel=0 note=71 velocity=0 time=20
note_on channel=0 note=75 velocity=34 time=0
note_on channel=0 note=75 velocity=0 time=120
note_on channel=0 note=71 velocity=40 time=0
note_on channel=0 note=71 velocity=0 time=120
note_on channel=0 note=68 velocity=34 time=0
note_on channel=0 note=68 velocity=0 time=90
<meta message set_tempo tempo=398671 time=10>
note_on channel=0 note=68 velocity=40 time=20
note_on channel=0 note=68 velocity=0 time=120
note_on channel=0 note=71 velocity=34 time=0
note_on channel=0 note=71 velocity=0 time=120
note_on channel=0 note=68 velocity=40 time=0
<meta message set_tempo tempo=400000 time=100>
note_on channel=0 note=68 velocity=0 time=20
note_on channel=0 note=63 velocity=34 time=0
note_on channel=0 note=63 velocity=0 time=120
note_on channel=0 note=63 velocity=0 time=0
note_on channel=0 note=56 velocity=0 time=0
note_on channel=0 note=59 velocity=0 time=0
note_on channel=0 note=67 velocity=30 time=0
note_on channel=0 note=70 velocity=36 time=0
note_on channel=0 note=51 velocity=27 time=0
note_on channel=0 note=58 velocity=27 time=0
note_on channel=0 note=63 velocity=33 time=0
<meta message set_tempo tempo=480000 time=8>
control_change channel=0 control=64 value=0 time=9
note_on channel=0 note=63 velocity=0 time=223
note_on channel=0 note=51 velocity=0 time=0
note_on channel=0 note=67 velocity=0 time=0
note_on channel=0 note=70 velocity=0 time=0
note_on channel=0 note=58 velocity=0 time=0
<meta message set_tempo tempo=392157 time=220>
note_on channel=0 note=83 velocity=40 time=20
note_on channel=0 note=44 velocity=40 time=0
control_change channel=0 control=64 value=127 time=16
note_on channel=0 note=83 velocity=0 time=104
note_on channel=0 note=87 velocity=34 time=0
note_on channel=0 note=87 velocity=0 time=120
note_on channel=0 note=44 velocity=0 time=0
note_on channel=0 note=83 velocity=40 time=0
note_on channel=0 note=83 velocity=0 time=120
note_on channel=0 note=80 velocity=34 time=0
<meta message set_tempo tempo=393443 time=20>
note_on channel=0 note=80 velocity=0 time=70
note_on channel=0 note=80 velocity=40 time=30
note_on channel=0 note=59 velocity=34 time=0
note_on channel=0 note=56 velocity=34 time=0
note_on channel=0 note=63 velocity=40 time=0
note_on channel=0 note=80 velocity=0 time=120
note_on channel=0 note=83 velocity=34 time=0
note_on channel=0 note=83 velocity=0 time=120
note_on channel=0 note=80 velocity=40 time=0
<meta message set_tempo tempo=394737 time=60>
note_on channel=0 note=80 velocity=0 time=60
note_on channel=0 note=75 velocity=34 time=0
note_on channel=0 note=75 velocity=0 time=90
note_on channel=0 note=75 velocity=40 time=30
note_on channel=0 note=75 velocity=0 time=120
note_on channel=0 note=80 velocity=34 time=0
<meta message set_tempo tempo=396040 time=60>
note_on channel=0 note=80 velocity=0 time=60
note_on channel=0 note=75 velocity=40 time=0
note_on channel=0 note=75 velocity=0 time=120
note_on channel=0 note=71 velocity=34 time=0
note_on channel=0 note=71 velocity=0 time=90
note_on channel=0 note=71 velocity=40 time=30
<meta message set_tempo tempo=397351 time=100>
note_on channel=0 note=71 velocity=0 time=20
note_on channel=0 note=75 velocity=34 time=0
note_on channel=0 note=75 velocity=0 time=120
note_on channel=0 note=71 velocity=40 time=0
note_on channel=0 note=71 velocity=0 time=120
note_on channel=0 note=68 velocity=34 time=0
note_on channel=0 note=68 velocity=0 time=90
note_on channel=0 note=68 velocity=40 time=30
<meta message set_tempo tempo=398671 time=20>
note_on channel=0 note=68 velocity=0 time=100
note_on channel=0 note=71 velocity=34 time=0
note_on channel=0 note=71 velocity=0 time=120
note_on channel=0 note=68 velocity=40 time=0
note_on channel=0 note=68 velocity=0 time=120
note_on channel=0 note=63 velocity=34 time=0
<meta message set_tempo tempo=400000 time=20>
<meta message set_tempo tempo=502092 time=92>
note_on channel=0 note=63 velocity=0 time=8
note_on channel=0 note=63 velocity=0 time=0
note_on channel=0 note=56 velocity=0 time=0
note_on channel=0 note=59 velocity=0 time=0
note_on channel=0 note=67 velocity=30 time=0
note_on channel=0 note=70 velocity=36 time=0
note_on channel=0 note=51 velocity=27 time=0
note_on channel=0 note=58 velocity=27 time=0
note_on channel=0 note=63 velocity=33 time=0
control_change channel=0 control=64 value=0 time=11
note_on channel=0 note=63 velocity=0 time=229
note_on channel=0 note=51 velocity=0 time=0
note_on channel=0 note=67 velocity=0 time=0
note_on channel=0 note=70 velocity=0 time=0
note_on channel=0 note=58 velocity=0 time=0
note_on channel=0 note=68 velocity=31 time=240
note_on channel=0 note=71 velocity=31 time=0
note_on channel=0 note=63 velocity=27 time=0
note_on channel=0 note=59 velocity=27 time=0
note_on channel=0 note=56 velocity=27 time=0
<meta message set_tempo tempo=502092 time=8>
note_on channel=0 note=56 velocity=0 time=448
note_on channel=0 note=63 velocity=0 time=0
note_on channel=0 note=68 velocity=0 time=0
note_on channel=0 note=71 velocity=0 time=0
note_on channel=0 note=59 velocity=0 time=0
<meta message set_tempo tempo=428571 time=16>
note_on channel=0 note=67 velocity=31 time=8
note_on channel=0 note=70 velocity=31 time=0
note_on channel=0 note=76 velocity=31 time=0
note_on channel=0 note=51 velocity=27 time=0
note_on channel=0 note=64 velocity=27 time=0
note_on channel=0 note=58 velocity=27 time=0
note_on channel=0 note=58 velocity=0 time=456
note_on channel=0 note=70 velocity=0 time=0
note_on channel=0 note=76 velocity=0 time=0
note_on channel=0 note=67 velocity=0 time=0
note_on channel=0 note=64 velocity=0 time=0
note_on channel=0 note=51 velocity=0 time=0
note_on channel=0 note=67 velocity=36 time=24
note_on channel=0 note=70 velocity=36 time=0
note_on channel=0 note=76 velocity=36 time=0
note_on channel=0 note=51 velocity=31 time=0
note_on channel=0 note=58 velocity=31 time=0
note_on channel=0 note=64 velocity=31 time=0
note_on channel=0 note=64 velocity=0 time=456
note_on channel=0 note=70 velocity=0 time=0
note_on channel=0 note=76 velocity=0 time=0
note_on channel=0 note=67 velocity=0 time=0
note_on channel=0 note=58 velocity=0 time=0
note_on channel=0 note=51 velocity=0 time=0
note_on channel=0 note=70 velocity=37 time=24
note_on channel=0 note=67 velocity=37 time=0
note_on channel=0 note=76 velocity=37 time=0
note_on channel=0 note=51 velocity=31 time=0
note_on channel=0 note=58 velocity=31 time=0
note_on channel=0 note=64 velocity=31 time=0
<meta message set_tempo tempo=500000 time=8>
note_on channel=0 note=64 velocity=0 time=448
note_on channel=0 note=67 velocity=0 time=0
note_on channel=0 note=76 velocity=0 time=0
note_on channel=0 note=70 velocity=0 time=0
note_on channel=0 note=58 velocity=0 time=0
note_on channel=0 note=51 velocity=0 time=0
note_on channel=0 note=67 velocity=31 time=24
note_on channel=0 note=70 velocity=31 time=0
note_on channel=0 note=75 velocity=31 time=0
note_on channel=0 note=51 velocity=25 time=0
note_on channel=0 note=58 velocity=25 time=0
note_on channel=0 note=63 velocity=25 time=0
note_on channel=0 note=63 velocity=0 time=456
note_on channel=0 note=70 velocity=0 time=0
note_on channel=0 note=75 velocity=0 time=0
note_on channel=0 note=67 velocity=0 time=0
note_on channel=0 note=58 velocity=0 time=0
note_on channel=0 note=51 velocity=0 time=0
<meta message set_tempo tempo=545455 time=16>
note_on channel=0 note=67 velocity=31 time=8
note_on channel=0 note=70 velocity=31 time=0
note_on channel=0 note=73 velocity=31 time=0
note_on channel=0 note=61 velocity=25 time=0
note_on channel=0 note=51 velocity=25 time=0
note_on channel=0 note=58 velocity=25 time=0
note_on channel=0 note=58 velocity=0 time=456
note_on channel=0 note=70 velocity=0 time=0
note_on channel=0 note=73 velocity=0 time=0
note_on channel=0 note=67 velocity=0 time=0
note_on channel=0 note=51 velocity=0 time=0
note_on channel=0 note=61 velocity=0 time=0
<meta message set_tempo tempo=400000 time=24>
note_on channel=0 note=83 velocity=40 time=0
note_on channel=0 note=44 velocity=40 time=0
control_change channel=0 control=64 value=127 time=40
<meta message set_tempo tempo=390879 time=20>
note_on channel=0 note=83 velocity=0 time=60
note_on channel=0 note=87 velocity=34 time=0
note_on channel=0 note=87 velocity=0 time=120
note_on channel=0 note=44 velocity=0 time=0
note_on channel=0 note=83 velocity=40 time=0
note_on channel=0 note=83 velocity=0 time=120
note_on channel=0 note=80 velocity=34 time=0
<meta message set_tempo tempo=392157 time=60>
note_on channel=0 note=80 velocity=0 time=30
note_on channel=0 note=80 velocity=40 time=30
note_on channel=0 note=59 velocity=34 time=0
note_on channel=0 note=56 velocity=34 time=0
note_on channel=0 note=63 velocity=40 time=0
note_on channel=0 note=80 velocity=0 time=120
note_on channel=0 note=83 velocity=34 time=0
note_on channel=0 note=83 velocity=0 time=120
note_on channel=0 note=80 velocity=40 time=0
<meta message set_tempo tempo=393443 time=20>
note_on channel=0 note=80 velocity=0 time=100
note_on channel=0 note=75 velocity=34 time=0
note_on channel=0 note=75 velocity=0 time=90
note_on channel=0 note=75 velocity=40 time=30
<meta message set_tempo tempo=394737 time=100>
note_on channel=0 note=75 velocity=0 time=20
note_on channel=0 note=80 velocity=34 time=0
note_on channel=0 note=80 velocity=0 time=120
note_on channel=0 note=75 velocity=40 time=0
note_on channel=0 note=75 velocity=0 time=120
note_on channel=0 note=71 velocity=34 time=0
<meta message set_tempo tempo=396040 time=60>
note_on channel=0 note=71 velocity=0 time=30
note_on channel=0 note=71 velocity=40 time=30
note_on channel=0 note=71 velocity=0 time=120
note_on channel=0 note=75 velocity=34 time=0
note_on channel=0 note=75 velocity=0 time=120
note_on channel=0 note=71 velocity=40 time=0
<meta message set_tempo tempo=397351 time=20>
note_on channel=0 note=71 velocity=0 time=100
note_on channel=0 note=68 velocity=34 time=0
note_on channel=0 note=68 velocity=0 time=90
note_on channel=0 note=68 velocity=40 time=30
<meta message set_tempo tempo=398671 time=100>
note_on channel=0 note=68 velocity=0 time=20
note_on channel=0 note=71 velocity=34 time=0
note_on channel=0 note=71 velocity=0 time=120
note_on channel=0 note=68 velocity=40 time=0
note_on channel=0 note=68 velocity=0 time=120
note_on channel=0 note=63 velocity=34 time=0
<meta message set_tempo tempo=400000 time=60>
<meta message set_tempo tempo=480000 time=60>
note_on channel=0 note=63 velocity=0 time=0
note_on channel=0 note=63 velocity=0 time=0
note_on channel=0 note=56 velocity=0 time=0
note_on channel=0 note=59 velocity=0 time=0
note_on channel=0 note=67 velocity=30 time=0
note_on channel=0 note=70 velocity=36 time=0
note_on channel=0 note=51 velocity=27 time=0
note_on channel=0 note=58 velocity=27 time=0
note_on channel=0 note=63 velocity=32 time=0
control_change channel=0 control=64 value=0 time=11
note_on channel=0 note=63 velocity=0 time=229
note_on channel=0 note=51 velocity=0 time=0
note_on channel=0 note=67 velocity=0 time=0
note_on channel=0 note=70 velocity=0 time=0
note_on channel=0 note=58 velocity=0 time=0
note_on channel=0 note=83 velocity=40 time=240
note_on channel=0 note=44 velocity=40 time=0
<meta message set_tempo tempo=400000 time=8>
<meta message set_tempo tempo=394737 time=12>
control_change channel=0 control=64 value=127 time=24
note_on channel=0 note=83 velocity=0 time=76
note_on channel=0 note=87 velocity=34 time=0
note_on channel=0 note=87 velocity=0 time=120
note_on channel=0 note=44 velocity=0 time=0
note_on channel=0 note=83 velocity=40 time=0
note_on channel=0 note=83 velocity=0 time=120
note_on channel=0 note=80 velocity=34 time=0
note_on channel=0 note=80 velocity=0 time=90
note_on channel=0 note=80 velocity=40 time=30
note_on channel=0 note=59 velocity=34 time=0
note_on channel=0 note=56 velocity=34 time=0
note_on channel=0 note=63 velocity=40 time=0
<meta message set_tempo tempo=396040 time=20>
note_on channel=0 note=80 velocity=0 time=100
note_on channel=0 note=83 velocity=34 time=0
note_on channel=0 note=83 velocity=0 time=120
note_on channel=0 note=80 velocity=40 time=0
note_on channel=0 note=80 velocity=0 time=120
note_on channel=0 note=75 velocity=34 time=0
note_on channel=0 note=75 velocity=0 time=90
note_on channel=0 note=75 velocity=40 time=30
<meta message set_tempo tempo=397351 time=20>
note_on channel=0 note=75 velocity=0 time=100
note_on channel=0 note=80 velocity=34 time=0
note_on channel=0 note=80 velocity=0 time=120
note_on channel=0 note=75 velocity=40 time=0
note_on channel=0 note=75 velocity=0 time=120
note_on channel=0 note=71 velocity=34 time=0
note_on channel=0 note=71 velocity=0 time=90
<meta message set_tempo tempo=398671 time=10>
note_on channel=0 note=71 velocity=40 time=20
note_on channel=0 note=71 velocity=0 time=120
note_on channel=0 note=75 velocity=34 time=0
note_on channel=0 note=75 velocity=0 time=120
note_on channel=0 note=71 velocity=40 time=0
note_on channel=0 note=71 velocity=0 time=120
note_on channel=0 note=68 velocity=34 time=0
note_on channel=0 note=68 velocity=0 time=90
<meta message set_tempo tempo=400000 time=10>
note_on channel=0 note=68 velocity=40 time=20
note_on channel=0 note=68 velocity=0 time=120
note_on channel=0 note=71 velocity=34 time=0
note_on channel=0 note=71 velocity=0 time=120
note_on channel=0 note=68 velocity=40 time=0
note_on channel=0 note=68 velocity=0 time=120
note_on channel=0 note=63 velocity=34 time=0
<meta message set_tempo tempo=401338 time=60>
<meta message set_tempo tempo=461538 time=60>
note_on channel=0 note=63 velocity=0 time=0
note_on channel=0 note=63 velocity=0 time=0
note_on channel=0 note=56 velocity=0 time=0
note_on channel=0 note=59 velocity=0 time=0
note_on channel=0 note=67 velocity=30 time=0
note_on channel=0 note=70 velocity=36 time=0
note_on channel=0 note=51 velocity=27 time=0
note_on channel=0 note=58 velocity=27 time=0
note_on channel=0 note=63 velocity=32 time=0
control_change channel=0 control=64 value=0 time=11
note_on channel=0 note=63 velocity=0 time=229
note_on channel=0 note=51 velocity=0 time=0
note_on channel=0 note=67 velocity=0 time=0
note_on channel=0 note=70 velocity=0 time=0
note_on channel=0 note=58 velocity=0 time=0
<meta message set_tempo tempo=502092 time=240>
note_on channel=0 note=68 velocity=31 time=0
note_on channel=0 note=71 velocity=31 time=0
note_on channel=0 note=63 velocity=27 time=0
note_on channel=0 note=59 velocity=27 time=0
note_on channel=0 note=56 velocity=27 time=0
<meta message set_tempo tempo=502092 time=8>
note_on channel=0 note=56 velocity=0 time=448
note_on channel=0 note=63 velocity=0 time=0
note_on channel=0 note=68 velocity=0 time=0
note_on channel=0 note=71 velocity=0 time=0
note_on channel=0 note=59 velocity=0 time=0
<meta message set_tempo tempo=428571 time=16>
note_on channel=0 note=66 velocity=31 time=8
note_on channel=0 note=70 velocity=31 time=0
note_on channel=0 note=76 velocity=31 time=0
note_on channel=0 note=54 velocity=27 time=0
note_on channel=0 note=64 velocity=27 time=0
note_on channel=0 note=58 velocity=27 time=0
note_on channel=0 note=58 velocity=0 time=456
note_on channel=0 note=70 velocity=0 time=0
note_on channel=0 note=76 velocity=0 time=0
note_on channel=0 note=66 velocity=0 time=0
note_on channel=0 note=64 velocity=0 time=0
note_on channel=0 note=54 velocity=0 time=0
note_on channel=0 note=66 velocity=36 time=24
note_on channel=0 note=70 velocity=36 time=0
note_on channel=0 note=76 velocity=36 time=0
note_on channel=0 note=54 velocity=31 time=0
note_on channel=0 note=58 velocity=31 time=0
note_on channel=0 note=64 velocity=31 time=0
note_on channel=0 note=64 velocity=0 time=456
note_on channel=0 note=70 velocity=0 time=0
note_on channel=0 note=76 velocity=0 time=0
note_on channel=0 note=66 velocity=0 time=0
note_on channel=0 note=58 velocity=0 time=0
note_on channel=0 note=54 velocity=0 time=0
note_on channel=0 note=66 velocity=37 time=24
note_on channel=0 note=70 velocity=37 time=0
note_on channel=0 note=76 velocity=37 time=0
note_on channel=0 note=54 velocity=31 time=0
note_on channel=0 note=58 velocity=31 time=0
note_on channel=0 note=64 velocity=31 time=0
<meta message set_tempo tempo=500000 time=8>
note_on channel=0 note=64 velocity=0 time=448
note_on channel=0 note=70 velocity=0 time=0
note_on channel=0 note=76 velocity=0 time=0
note_on channel=0 note=66 velocity=0 time=0
note_on channel=0 note=58 velocity=0 time=0
note_on channel=0 note=54 velocity=0 time=0
note_on channel=0 note=66 velocity=31 time=24
note_on channel=0 note=70 velocity=31 time=0
note_on channel=0 note=75 velocity=31 time=0
note_on channel=0 note=54 velocity=25 time=0
note_on channel=0 note=58 velocity=25 time=0
note_on channel=0 note=63 velocity=25 time=0
note_on channel=0 note=63 velocity=0 time=456
note_on channel=0 note=70 velocity=0 time=0
note_on channel=0 note=75 velocity=0 time=0
note_on channel=0 note=66 velocity=0 time=0
note_on channel=0 note=58 velocity=0 time=0
note_on channel=0 note=54 velocity=0 time=0
<meta message set_tempo tempo=545455 time=16>
note_on channel=0 note=66 velocity=31 time=8
note_on channel=0 note=74 velocity=31 time=0
note_on channel=0 note=70 velocity=31 time=0
note_on channel=0 note=54 velocity=25 time=0
note_on channel=0 note=62 velocity=25 time=0
note_on channel=0 note=58 velocity=25 time=0
note_on channel=0 note=58 velocity=0 time=456
note_on channel=0 note=74 velocity=0 time=0
note_on channel=0 note=70 velocity=0 time=0
note_on channel=0 note=66 velocity=0 time=0
note_on channel=0 note=62 velocity=0 time=0
note_on channel=0 note=54 velocity=0 time=0
<meta message set_tempo tempo=400000 time=24>
note_on channel=0 note=87 velocity=50 time=0
control_change channel=0 control=91 value=127 time=0
note_on channel=0 note=47 velocity=50 time=0
control_change channel=0 control=91 value=126 time=8
<meta message set_tempo tempo=393443 time=12>
control_change channel=0 control=64 value=127 time=43
note_on channel=0 note=87 velocity=0 time=57
note_on channel=0 note=90 velocity=42 time=0
note_on channel=0 note=90 velocity=0 time=120
note_on channel=0 note=47 velocity=0 time=0
note_on channel=0 note=87 velocity=50 time=0
note_on channel=0 note=87 velocity=0 time=120
note_on channel=0 note=83 velocity=42 time=0
<meta message set_tempo tempo=394737 time=60>
note_on channel=0 note=83 velocity=0 time=30
note_on channel=0 note=83 velocity=50 time=30
note_on channel=0 note=63 velocity=50 time=0
note_on channel=0 note=59 velocity=42 time=0
note_on channel=0 note=54 velocity=42 time=0
note_on channel=0 note=83 velocity=0 time=120
note_on channel=0 note=87 velocity=42 time=0
note_on channel=0 note=87 velocity=0 time=120
note_on channel=0 note=83 velocity=50 time=0
<meta message set_tempo tempo=396040 time=100>
note_on channel=0 note=83 velocity=0 time=20
note_on channel=0 note=78 velocity=42 time=0
note_on channel=0 note=78 velocity=0 time=90
note_on channel=0 note=78 velocity=50 time=30
note_on channel=0 note=78 velocity=0 time=120
note_on channel=0 note=83 velocity=42 time=0
<meta message set_tempo tempo=397351 time=100>
note_on channel=0 note=83 velocity=0 time=20
note_on channel=0 note=78 velocity=50 time=0
note_on channel=0 note=78 velocity=0 time=120
note_on channel=0 note=75 velocity=42 time=0
note_on channel=0 note=75 velocity=0 time=90
note_on channel=0 note=75 velocity=50 time=30
note_on channel=0 note=75 velocity=0 time=120
note_on channel=0 note=78 velocity=42 time=0
<meta message set_tempo tempo=398671 time=20>
note_on channel=0 note=78 velocity=0 time=100
note_on channel=0 note=75 velocity=50 time=0
note_on channel=0 note=75 velocity=0 time=120
note_on channel=0 note=71 velocity=42 time=0
note_on channel=0 note=71 velocity=0 time=90
note_on channel=0 note=71 velocity=50 time=30
<meta message set_tempo tempo=400000 time=60>
note_on channel=0 note=71 velocity=0 time=60
note_on channel=0 note=75 velocity=42 time=0
note_on channel=0 note=75 velocity=0 time=120
note_on channel=0 note=71 velocity=50 time=0
note_on channel=0 note=71 velocity=0 time=120
note_on channel=0 note=66 velocity=42 time=0
<meta message set_tempo tempo=401338 time=60>
note_on channel=0 note=66 velocity=0 time=60
note_on channel=0 note=54 velocity=0 time=0
note_on channel=0 note=59 velocity=0 time=0
note_on channel=0 note=63 velocity=0 time=0
note_on channel=0 note=70 velocity=37 time=0
note_on channel=0 note=73 velocity=45 time=0
note_on channel=0 note=64 velocity=41 time=0
note_on channel=0 note=54 velocity=35 time=0
<meta message set_tempo tempo=480000 time=8>
control_change channel=0 control=64 value=0 time=7
note_on channel=0 note=54 velocity=0 time=225
note_on channel=0 note=70 velocity=0 time=0
note_on channel=0 note=73 velocity=0 time=0
note_on channel=0 note=64 velocity=0 time=0
<meta message set_tempo tempo=393443 time=220>
note_on channel=0 note=87 velocity=50 time=20
control_change channel=0 control=91 value=127 time=0
note_on channel=0 note=47 velocity=50 time=0
control_change channel=0 control=91 value=126 time=8
control_change channel=0 control=64 value=127 time=8
note_on channel=0 note=87 velocity=0 time=104
note_on channel=0 note=90 velocity=42 time=0
note_on channel=0 note=90 velocity=0 time=120
note_on channel=0 note=47 velocity=0 time=0
note_on channel=0 note=87 velocity=50 time=0
note_on channel=0 note=87 velocity=0 time=120
note_on channel=0 note=83 velocity=42 time=0
<meta message set_tempo tempo=394737 time=20>
note_on channel=0 note=83 velocity=0 time=70
note_on channel=0 note=83 velocity=50 time=30
note_on channel=0 note=63 velocity=50 time=0
note_on channel=0 note=59 velocity=42 time=0
note_on channel=0 note=54 velocity=42 time=0
note_on channel=0 note=83 velocity=0 time=120
note_on channel=0 note=87 velocity=42 time=0
note_on channel=0 note=87 velocity=0 time=120
note_on channel=0 note=83 velocity=50 time=0
<meta message set_tempo tempo=396040 time=60>
note_on channel=0 note=83 velocity=0 time=60
note_on channel=0 note=78 velocity=42 time=0
note_on channel=0 note=78 velocity=0 time=90
note_on channel=0 note=78 velocity=50 time=30
note_on channel=0 note=78 velocity=0 time=120
note_on channel=0 note=83 velocity=42 time=0
<meta message set_tempo tempo=397351 time=100>
note_on channel=0 note=83 velocity=0 time=20
note_on channel=0 note=78 velocity=50 time=0
note_on channel=0 note=78 velocity=0 time=120
note_on channel=0 note=75 velocity=42 time=0
note_on channel=0 note=75 velocity=0 time=90
note_on channel=0 note=75 velocity=50 time=30
note_on channel=0 note=75 velocity=0 time=120
note_on channel=0 note=78 velocity=42 time=0
<meta message set_tempo tempo=398671 time=20>
note_on channel=0 note=78 velocity=0 time=100
note_on channel=0 note=75 velocity=50 time=0
note_on channel=0 note=75 velocity=0 time=120
note_on channel=0 note=71 velocity=42 time=0
note_on channel=0 note=71 velocity=0 time=90
note_on channel=0 note=71 velocity=50 time=30
<meta message set_tempo tempo=400000 time=60>
note_on channel=0 note=71 velocity=0 time=60
note_on channel=0 note=75 velocity=42 time=0
note_on channel=0 note=75 velocity=0 time=120
note_on channel=0 note=71 velocity=50 time=0
note_on channel=0 note=71 velocity=0 time=120
note_on channel=0 note=66 velocity=42 time=0
<meta message set_tempo tempo=401338 time=100>
<meta message set_tempo tempo=461538 time=20>
note_on channel=0 note=66 velocity=0 time=0
note_on channel=0 note=54 velocity=0 time=0
note_on channel=0 note=59 velocity=0 time=0
note_on channel=0 note=63 velocity=0 time=0
note_on channel=0 note=70 velocity=37 time=0
note_on channel=0 note=73 velocity=45 time=0
note_on channel=0 note=64 velocity=41 time=0
note_on channel=0 note=54 velocity=35 time=0
control_change channel=0 control=64 value=0 time=13
note_on channel=0 note=54 velocity=0 time=227
note_on channel=0 note=70 velocity=0 time=0
note_on channel=0 note=73 velocity=0 time=0
note_on channel=0 note=64 velocity=0 time=0
note_on channel=0 note=71 velocity=41 time=240
note_on channel=0 note=75 velocity=41 time=0
note_on channel=0 note=63 velocity=36 time=0
note_on channel=0 note=59 velocity=36 time=0
note_on channel=0 note=59 velocity=0 time=456
note_on channel=0 note=71 velocity=0 time=0
note_on channel=0 note=75 velocity=0 time=0
note_on channel=0 note=63 velocity=0 time=0
<meta message set_tempo tempo=428571 time=16>
note_on channel=0 note=70 velocity=47 time=8
note_on channel=0 note=73 velocity=47 time=0
note_on channel=0 note=80 velocity=47 time=0
note_on channel=0 note=54 velocity=41 time=0
note_on channel=0 note=64 velocity=41 time=0
note_on channel=0 note=64 velocity=0 time=456
note_on channel=0 note=80 velocity=0 time=0
note_on channel=0 note=70 velocity=0 time=0
note_on channel=0 note=73 velocity=0 time=0
note_on channel=0 note=54 velocity=0 time=0
note_on channel=0 note=70 velocity=48 time=24
note_on channel=0 note=73 velocity=48 time=0
note_on channel=0 note=80 velocity=48 time=0
note_on channel=0 note=54 velocity=45 time=0
note_on channel=0 note=64 velocity=45 time=0
<meta message set_tempo tempo=472441 time=456>
note_on channel=0 note=64 velocity=0 time=0
note_on channel=0 note=80 velocity=0 time=0
note_on channel=0 note=70 velocity=0 time=0
note_on channel=0 note=73 velocity=0 time=0
note_on channel=0 note=54 velocity=0 time=0
note_on channel=0 note=70 velocity=49 time=24
note_on channel=0 note=73 velocity=49 time=0
note_on channel=0 note=80 velocity=49 time=0
note_on channel=0 note=54 velocity=45 time=0
note_on channel=0 note=64 velocity=45 time=0
note_on channel=0 note=64 velocity=0 time=456
note_on channel=0 note=80 velocity=0 time=0
note_on channel=0 note=70 velocity=0 time=0
note_on channel=0 note=73 velocity=0 time=0
note_on channel=0 note=54 velocity=0 time=0
note_on channel=0 note=78 velocity=39 time=24
note_on channel=0 note=70 velocity=39 time=0
note_on channel=0 note=75 velocity=39 time=0
note_on channel=0 note=63 velocity=36 time=0
note_on channel=0 note=54 velocity=36 time=0
note_on channel=0 note=54 velocity=0 time=456
note_on channel=0 note=75 velocity=0 time=0
note_on channel=0 note=78 velocity=0 time=0
note_on channel=0 note=70 velocity=0 time=0
note_on channel=0 note=63 velocity=0 time=0
<meta message set_tempo tempo=545455 time=16>
note_on channel=0 note=76 velocity=39 time=8
note_on channel=0 note=70 velocity=39 time=0
note_on channel=0 note=61 velocity=36 time=0
note_on channel=0 note=54 velocity=36 time=0
note_on channel=0 note=54 velocity=0 time=456
note_on channel=0 note=76 velocity=0 time=0
note_on channel=0 note=70 velocity=0 time=0
note_on channel=0 note=61 velocity=0 time=0
<meta message set_tempo tempo=400000 time=24>
note_on channel=0 note=86 velocity=50 time=0
control_change channel=0 control=91 value=127 time=0
note_on channel=0 note=47 velocity=50 time=0
control_change channel=0 control=91 value=126 time=8
<meta message set_tempo tempo=392157 time=12>
control_change channel=0 control=64 value=127 time=16
note_on channel=0 note=86 velocity=0 time=84
note_on channel=0 note=90 velocity=42 time=0
note_on channel=0 note=90 velocity=0 time=120
note_on channel=0 note=47 velocity=0 time=0
note_on channel=0 note=86 velocity=50 time=0
note_on channel=0 note=86 velocity=0 time=120
note_on channel=0 note=83 velocity=42 time=0
<meta message set_tempo tempo=393443 time=20>
note_on channel=0 note=83 velocity=0 time=70
note_on channel=0 note=83 velocity=50 time=30
note_on channel=0 note=62 velocity=50 time=0
note_on channel=0 note=59 velocity=42 time=0
note_on channel=0 note=54 velocity=42 time=0
note_on channel=0 note=83 velocity=0 time=120
note_on channel=0 note=86 velocity=42 time=0
<meta message set_tempo tempo=394737 time=100>
note_on channel=0 note=86 velocity=0 time=20
note_on channel=0 note=83 velocity=50 time=0
note_on channel=0 note=83 velocity=0 time=120
note_on channel=0 note=78 velocity=42 time=0
note_on channel=0 note=78 velocity=0 time=90
note_on channel=0 note=78 velocity=50 time=30
<meta message set_tempo tempo=396040 time=100>
note_on channel=0 note=78 velocity=0 time=20
note_on channel=0 note=83 velocity=42 time=0
note_on channel=0 note=83 velocity=0 time=120
note_on channel=0 note=78 velocity=50 time=0
note_on channel=0 note=78 velocity=0 time=120
note_on channel=0 note=74 velocity=42 time=0
<meta message set_tempo tempo=397351 time=60>
note_on channel=0 note=74 velocity=0 time=30
note_on channel=0 note=74 velocity=50 time=30
note_on channel=0 note=74 velocity=0 time=120
note_on channel=0 note=78 velocity=42 time=0
note_on channel=0 note=78 velocity=0 time=120
note_on channel=0 note=74 velocity=50 time=0
<meta message set_tempo tempo=398671 time=60>
note_on channel=0 note=74 velocity=0 time=60
note_on channel=0 note=71 velocity=42 time=0
note_on channel=0 note=71 velocity=0 time=90
note_on channel=0 note=71 velocity=50 time=30
note_on channel=0 note=71 velocity=0 time=120
note_on channel=0 note=74 velocity=42 time=0
<meta message set_tempo tempo=400000 time=20>
note_on channel=0 note=74 velocity=0 time=100
note_on channel=0 note=71 velocity=50 time=0
note_on channel=0 note=71 velocity=0 time=120
note_on channel=0 note=66 velocity=42 time=0
<meta message set_tempo tempo=401338 time=100>
note_on channel=0 note=66 velocity=0 time=20
note_on channel=0 note=54 velocity=0 time=0
note_on channel=0 note=59 velocity=0 time=0
note_on channel=0 note=62 velocity=0 time=0
note_on channel=0 note=70 velocity=37 time=0
note_on channel=0 note=73 velocity=45 time=0
note_on channel=0 note=64 velocity=42 time=0
note_on channel=0 note=54 velocity=35 time=0
control_change channel=0 control=64 value=0 time=7
<meta message set_tempo tempo=480000 time=1>
note_on channel=0 note=54 velocity=0 time=232
note_on channel=0 note=70 velocity=0 time=0
note_on channel=0 note=73 velocity=0 time=0
note_on channel=0 note=64 velocity=0 time=0
<meta message set_tempo tempo=400000 time=240>
note_on channel=0 note=86 velocity=50 time=0
control_change channel=0 control=91 value=127 time=0
note_on channel=0 note=47 velocity=50 time=0
control_change channel=0 control=91 value=126 time=8
<meta message set_tempo tempo=393443 time=12>
control_change channel=0 control=64 value=127 time=4
note_on channel=0 note=86 velocity=0 time=96
note_on channel=0 note=90 velocity=42 time=0
note_on channel=0 note=90 velocity=0 time=120
note_on channel=0 note=47 velocity=0 time=0
note_on channel=0 note=86 velocity=50 time=0
note_on channel=0 note=86 velocity=0 time=120
note_on channel=0 note=83 velocity=42 time=0
<meta message set_tempo tempo=394737 time=60>
note_on channel=0 note=83 velocity=0 time=30
note_on channel=0 note=83 velocity=50 time=30
note_on channel=0 note=62 velocity=50 time=0
note_on channel=0 note=59 velocity=42 time=0
note_on channel=0 note=54 velocity=42 time=0
note_on channel=0 note=83 velocity=0 time=120
note_on channel=0 note=86 velocity=42 time=0
note_on channel=0 note=86 velocity=0 time=120
note_on channel=0 note=83 velocity=50 time=0
<meta message set_tempo tempo=396040 time=100>
note_on channel=0 note=83 velocity=0 time=20
note_on channel=0 note=78 velocity=42 time=0
note_on channel=0 note=78 velocity=0 time=90
note_on channel=0 note=78 velocity=50 time=30
note_on channel=0 note=78 velocity=0 time=120
note_on channel=0 note=83 velocity=42 time=0
note_on channel=0 note=83 velocity=0 time=120
note_on channel=0 note=78 velocity=50 time=0
<meta message set_tempo tempo=397351 time=20>
note_on channel=0 note=78 velocity=0 time=100
note_on channel=0 note=74 velocity=42 time=0
note_on channel=0 note=74 velocity=0 time=90
note_on channel=0 note=74 velocity=50 time=30
note_on channel=0 note=74 velocity=0 time=120
note_on channel=0 note=78 velocity=42 time=0
<meta message set_tempo tempo=398671 time=60>
note_on channel=0 note=78 velocity=0 time=60
note_on channel=0 note=74 velocity=50 time=0
note_on channel=0 note=74 velocity=0 time=120
note_on channel=0 note=71 velocity=42 time=0
note_on channel=0 note=71 velocity=0 time=90
note_on channel=0 note=71 velocity=50 time=30
<meta message set_tempo tempo=400000 time=100>
note_on channel=0 note=71 velocity=0 time=20
note_on channel=0 note=74 velocity=42 time=0
note_on channel=0 note=74 velocity=0 time=120
note_on channel=0 note=71 velocity=50 time=0
note_on channel=0 note=71 velocity=0 time=120
note_on channel=0 note=66 velocity=42 time=0
<meta message set_tempo tempo=401338 time=100>
note_on channel=0 note=66 velocity=0 time=20
note_on channel=0 note=54 velocity=0 time=0
note_on channel=0 note=59 velocity=0 time=0
note_on channel=0 note=62 velocity=0 time=0
note_on channel=0 note=70 velocity=37 time=0
note_on channel=0 note=73 velocity=45 time=0
note_on channel=0 note=64 velocity=41 time=0
note_on channel=0 note=54 velocity=35 time=0
<meta message set_tempo tempo=480000 time=8>
control_change channel=0 control=64 value=0 time=3
note_on channel=0 note=54 velocity=0 time=229
note_on channel=0 note=70 velocity=0 time=0
note_on channel=0 note=73 velocity=0 time=0
note_on channel=0 note=64 velocity=0 time=0
<meta message set_tempo tempo=517241 time=232>
note_on channel=0 note=74 velocity=41 time=8
note_on channel=0 note=66 velocity=41 time=0
note_on channel=0 note=71 velocity=41 time=0
note_on channel=0 note=62 velocity=40 time=0
note_on channel=0 note=59 velocity=40 time=0
note_on channel=0 note=59 velocity=0 time=456
note_on channel=0 note=71 velocity=0 time=0
note_on channel=0 note=74 velocity=0 time=0
note_on channel=0 note=66 velocity=0 time=0
note_on channel=0 note=62 velocity=0 time=0
<meta message set_tempo tempo=428571 time=16>
note_on channel=0 note=73 velocity=50 time=8
note_on channel=0 note=76 velocity=50 time=0
note_on channel=0 note=83 velocity=50 time=0
note_on channel=0 note=57 velocity=45 time=0
note_on channel=0 note=67 velocity=45 time=0
note_on channel=0 note=67 velocity=0 time=456
note_on channel=0 note=83 velocity=0 time=0
note_on channel=0 note=73 velocity=0 time=0
note_on channel=0 note=76 velocity=0 time=0
note_on channel=0 note=57 velocity=0 time=0
note_on channel=0 note=73 velocity=48 time=24
note_on channel=0 note=76 velocity=48 time=0
note_on channel=0 note=83 velocity=48 time=0
note_on channel=0 note=57 velocity=43 time=0
note_on channel=0 note=67 velocity=43 time=0
note_on channel=0 note=67 velocity=0 time=456
note_on channel=0 note=83 velocity=0 time=0
note_on channel=0 note=73 velocity=0 time=0
note_on channel=0 note=76 velocity=0 time=0
note_on channel=0 note=57 velocity=0 time=0
note_on channel=0 note=73 velocity=46 time=24
note_on channel=0 note=76 velocity=46 time=0
note_on channel=0 note=83 velocity=46 time=0
note_on channel=0 note=57 velocity=41 time=0
note_on channel=0 note=67 velocity=41 time=0
note_on channel=0 note=67 velocity=0 time=456
note_on channel=0 note=83 velocity=0 time=0
note_on channel=0 note=73 velocity=0 time=0
note_on channel=0 note=76 velocity=0 time=0
note_on channel=0 note=57 velocity=0 time=0
note_on channel=0 note=73 velocity=44 time=24
note_on channel=0 note=78 velocity=44 time=0
note_on channel=0 note=81 velocity=44 time=0
note_on channel=0 note=57 velocity=39 time=0
note_on channel=0 note=66 velocity=39 time=0
note_on channel=0 note=66 velocity=0 time=456
note_on channel=0 note=81 velocity=0 time=0
note_on channel=0 note=73 velocity=0 time=0
note_on channel=0 note=78 velocity=0 time=0
note_on channel=0 note=57 velocity=0 time=0
note_on channel=0 note=73 velocity=42 time=24
note_on channel=0 note=79 velocity=42 time=0
note_on channel=0 note=57 velocity=37 time=0
note_on channel=0 note=64 velocity=37 time=0
note_on channel=0 note=64 velocity=0 time=456
note_on channel=0 note=73 velocity=0 time=0
note_on channel=0 note=79 velocity=0 time=0
note_on channel=0 note=57 velocity=0 time=0
<meta message set_tempo tempo=447761 time=24>
note_on channel=0 note=74 velocity=38 time=0
note_on channel=0 note=78 velocity=38 time=0
note_on channel=0 note=62 velocity=36 time=0
note_on channel=0 note=59 velocity=36 time=0
note_on channel=0 note=59 velocity=0 time=456
note_on channel=0 note=74 velocity=0 time=0
note_on channel=0 note=78 velocity=0 time=0
note_on channel=0 note=62 velocity=0 time=0
<meta message set_tempo tempo=428571 time=24>
note_on channel=0 note=70 velocity=46 time=0
note_on channel=0 note=73 velocity=46 time=0
note_on channel=0 note=79 velocity=46 time=0
note_on channel=0 note=54 velocity=42 time=0
note_on channel=0 note=64 velocity=42 time=0
note_on channel=0 note=64 velocity=0 time=456
note_on channel=0 note=79 velocity=0 time=0
note_on channel=0 note=70 velocity=0 time=0
note_on channel=0 note=73 velocity=0 time=0
note_on channel=0 note=54 velocity=0 time=0
note_on channel=0 note=70 velocity=46 time=24
note_on channel=0 note=73 velocity=46 time=0
note_on channel=0 note=79 velocity=46 time=0
note_on channel=0 note=54 velocity=41 time=0
note_on channel=0 note=64 velocity=41 time=0
note_on channel=0 note=64 velocity=0 time=456
note_on channel=0 note=79 velocity=0 time=0
note_on channel=0 note=70 velocity=0 time=0
note_on channel=0 note=73 velocity=0 time=0
note_on channel=0 note=54 velocity=0 time=0
note_on channel=0 note=73 velocity=46 time=24
note_on channel=0 note=79 velocity=46 time=0
note_on channel=0 note=70 velocity=46 time=0
note_on channel=0 note=54 velocity=41 time=0
note_on channel=0 note=64 velocity=41 time=0
note_on channel=0 note=64 velocity=0 time=456
note_on channel=0 note=70 velocity=0 time=0
note_on channel=0 note=73 velocity=0 time=0
note_on channel=0 note=79 velocity=0 time=0
note_on channel=0 note=54 velocity=0 time=0
note_on channel=0 note=78 velocity=44 time=24
note_on channel=0 note=73 velocity=44 time=0
note_on channel=0 note=70 velocity=44 time=0
note_on channel=0 note=61 velocity=39 time=0
note_on channel=0 note=54 velocity=39 time=0
note_on channel=0 note=54 velocity=0 time=456
note_on channel=0 note=70 velocity=0 time=0
note_on channel=0 note=78 velocity=0 time=0
note_on channel=0 note=73 velocity=0 time=0
note_on channel=0 note=61 velocity=0 time=0
note_on channel=0 note=76 velocity=42 time=24
note_on channel=0 note=73 velocity=42 time=0
note_on channel=0 note=58 velocity=37 time=0
note_on channel=0 note=54 velocity=37 time=0
note_on channel=0 note=54 velocity=0 time=456
note_on channel=0 note=76 velocity=0 time=0
note_on channel=0 note=73 velocity=0 time=0
note_on channel=0 note=58 velocity=0 time=0
note_on channel=0 note=75 velocity=41 time=24
note_on channel=0 note=71 velocity=41 time=0
note_on channel=0 note=59 velocity=36 time=0
note_on channel=0 note=56 velocity=36 time=0
<meta message set_tempo tempo=463320 time=8>
note_on channel=0 note=56 velocity=0 time=448
note_on channel=0 note=75 velocity=0 time=0
note_on channel=0 note=71 velocity=0 time=0
note_on channel=0 note=59 velocity=0 time=0
<meta message set_tempo tempo=428571 time=24>
note_on channel=0 note=68 velocity=49 time=0
note_on channel=0 note=64 velocity=49 time=0
note_on channel=0 note=76 velocity=49 time=0
note_on channel=0 note=49 velocity=44 time=0
note_on channel=0 note=56 velocity=44 time=0
note_on channel=0 note=61 velocity=44 time=0
note_on channel=0 note=61 velocity=0 time=456
note_on channel=0 note=64 velocity=0 time=0
note_on channel=0 note=76 velocity=0 time=0
note_on channel=0 note=68 velocity=0 time=0
note_on channel=0 note=56 velocity=0 time=0
note_on channel=0 note=49 velocity=0 time=0
note_on channel=0 note=76 velocity=49 time=24
note_on channel=0 note=68 velocity=49 time=0
note_on channel=0 note=64 velocity=49 time=0
note_on channel=0 note=49 velocity=42 time=0
note_on channel=0 note=56 velocity=42 time=0
note_on channel=0 note=61 velocity=42 time=0
note_on channel=0 note=61 velocity=0 time=456
note_on channel=0 note=68 velocity=0 time=0
note_on channel=0 note=64 velocity=0 time=0
note_on channel=0 note=76 velocity=0 time=0
note_on channel=0 note=56 velocity=0 time=0
note_on channel=0 note=49 velocity=0 time=0
note_on channel=0 note=68 velocity=49 time=24
note_on channel=0 note=64 velocity=49 time=0
note_on channel=0 note=76 velocity=49 time=0
note_on channel=0 note=49 velocity=44 time=0
note_on channel=0 note=61 velocity=44 time=0
note_on channel=0 note=56 velocity=44 time=0
note_on channel=0 note=56 velocity=0 time=456
note_on channel=0 note=64 velocity=0 time=0
note_on channel=0 note=76 velocity=0 time=0
note_on channel=0 note=68 velocity=0 time=0
note_on channel=0 note=61 velocity=0 time=0
note_on channel=0 note=49 velocity=0 time=0
note_on channel=0 note=75 velocity=49 time=24
note_on channel=0 note=68 velocity=49 time=0
note_on channel=0 note=63 velocity=49 time=0
note_on channel=0 note=51 velocity=43 time=0
note_on channel=0 note=59 velocity=43 time=0
note_on channel=0 note=56 velocity=43 time=0
note_on channel=0 note=56 velocity=0 time=456
note_on channel=0 note=68 velocity=0 time=0
note_on channel=0 note=63 velocity=0 time=0
note_on channel=0 note=75 velocity=0 time=0
note_on channel=0 note=59 velocity=0 time=0
note_on channel=0 note=51 velocity=0 time=0
note_on channel=0 note=61 velocity=47 time=24
note_on channel=0 note=73 velocity=47 time=0
note_on channel=0 note=68 velocity=47 time=0
note_on channel=0 note=56 velocity=42 time=0
note_on channel=0 note=52 velocity=42 time=0
note_on channel=0 note=52 velocity=0 time=456
note_on channel=0 note=68 velocity=0 time=0
note_on channel=0 note=61 velocity=0 time=0
note_on channel=0 note=73 velocity=0 time=0
note_on channel=0 note=56 velocity=0 time=0
<meta message set_tempo tempo=447761 time=24>
note_on channel=0 note=63 velocity=48 time=0
note_on channel=0 note=68 velocity=48 time=0
note_on channel=0 note=71 velocity=48 time=0
note_on channel=0 note=51 velocity=41 time=0
note_on channel=0 note=56 velocity=41 time=0
note_on channel=0 note=59 velocity=41 time=0
note_on channel=0 note=59 velocity=0 time=456
note_on channel=0 note=68 velocity=0 time=0
note_on channel=0 note=71 velocity=0 time=0
note_on channel=0 note=63 velocity=0 time=0
note_on channel=0 note=56 velocity=0 time=0
note_on channel=0 note=51 velocity=0 time=0
note_on channel=0 note=63 velocity=48 time=24
note_on channel=0 note=68 velocity=48 time=0
note_on channel=0 note=71 velocity=48 time=0
note_on channel=0 note=51 velocity=40 time=0
note_on channel=0 note=56 velocity=40 time=0
note_on channel=0 note=59 velocity=40 time=0
note_on channel=0 note=59 velocity=0 time=456
note_on channel=0 note=68 velocity=0 time=0
note_on channel=0 note=71 velocity=0 time=0
note_on channel=0 note=63 velocity=0 time=0
note_on channel=0 note=56 velocity=0 time=0
note_on channel=0 note=51 velocity=0 time=0
<meta message set_tempo tempo=502092 time=24>
note_on channel=0 note=63 velocity=48 time=0
note_on channel=0 note=68 velocity=48 time=0
note_on channel=0 note=71 velocity=48 time=0
note_on channel=0 note=51 velocity=40 time=0
note_on channel=0 note=56 velocity=40 time=0
note_on channel=0 note=59 velocity=40 time=0
note_on channel=0 note=59 velocity=0 time=456
note_on channel=0 note=68 velocity=0 time=0
note_on channel=0 note=71 velocity=0 time=0
note_on channel=0 note=63 velocity=0 time=0
note_on channel=0 note=56 velocity=0 time=0
note_on channel=0 note=51 velocity=0 time=0
<meta message set_tempo tempo=446097 time=16>
note_on channel=0 note=63 velocity=33 time=8
note_on channel=0 note=67 velocity=33 time=0
note_on channel=0 note=70 velocity=33 time=0
note_on channel=0 note=51 velocity=31 time=0
note_on channel=0 note=55 velocity=31 time=0
note_on channel=0 note=58 velocity=31 time=0
note_on channel=0 note=58 velocity=0 time=456
note_on channel=0 note=67 velocity=0 time=0
note_on channel=0 note=70 velocity=0 time=0
note_on channel=0 note=63 velocity=0 time=0
note_on channel=0 note=55 velocity=0 time=0
note_on channel=0 note=51 velocity=0 time=0
note_on channel=0 note=63 velocity=34 time=24
note_on channel=0 note=67 velocity=34 time=0
note_on channel=0 note=70 velocity=34 time=0
note_on channel=0 note=51 velocity=30 time=0
note_on channel=0 note=55 velocity=30 time=0
note_on channel=0 note=58 velocity=30 time=0
note_on channel=0 note=58 velocity=0 time=456
note_on channel=0 note=67 velocity=0 time=0
note_on channel=0 note=70 velocity=0 time=0
note_on channel=0 note=63 velocity=0 time=0
note_on channel=0 note=55 velocity=0 time=0
note_on channel=0 note=51 velocity=0 time=0
note_on channel=0 note=63 velocity=34 time=24
note_on channel=0 note=67 velocity=34 time=0
note_on channel=0 note=70 velocity=34 time=0
note_on channel=0 note=51 velocity=29 time=0
note_on channel=0 note=55 velocity=29 time=0
note_on channel=0 note=58 velocity=29 time=0
<meta message set_tempo tempo=524017 time=8>
note_on channel=0 note=58 velocity=0 time=448
note_on channel=0 note=67 velocity=0 time=0
note_on channel=0 note=70 velocity=0 time=0
note_on channel=0 note=63 velocity=0 time=0
note_on channel=0 note=55 velocity=0 time=0
note_on channel=0 note=51 velocity=0 time=0
<meta message set_tempo tempo=400000 time=16>
<meta message set_tempo tempo=400000 time=8>
note_on channel=0 note=84 velocity=40 time=0
control_change channel=0 control=91 value=127 time=0
note_on channel=0 note=44 velocity=40 time=0
control_change channel=0 control=91 value=126 time=8
<meta message set_tempo tempo=392157 time=6>
control_change channel=0 control=64 value=127 time=30
note_on channel=0 note=84 velocity=0 time=76
note_on channel=0 note=87 velocity=34 time=0
note_on channel=0 note=87 velocity=0 time=120
note_on channel=0 note=84 velocity=40 time=0
note_on channel=0 note=84 velocity=0 time=120
note_on channel=0 note=80 velocity=34 time=0
<meta message set_tempo tempo=393443 time=54>
note_on channel=0 note=80 velocity=0 time=36
note_on channel=0 note=44 velocity=0 time=30
note_on channel=0 note=80 velocity=40 time=0
note_on channel=0 note=51 velocity=34 time=0
note_on channel=0 note=60 velocity=40 time=0
note_on channel=0 note=56 velocity=34 time=0
note_on channel=0 note=80 velocity=0 time=120
note_on channel=0 note=84 velocity=34 time=0
note_on channel=0 note=84 velocity=0 time=120
note_on channel=0 note=80 velocity=40 time=0
<meta message set_tempo tempo=394737 time=94>
note_on channel=0 note=80 velocity=0 time=26
note_on channel=0 note=75 velocity=34 time=0
note_on channel=0 note=75 velocity=0 time=90
note_on channel=0 note=75 velocity=40 time=30
note_on channel=0 note=75 velocity=0 time=120
note_on channel=0 note=80 velocity=34 time=0
<meta message set_tempo tempo=396040 time=94>
note_on channel=0 note=80 velocity=0 time=26
note_on channel=0 note=75 velocity=40 time=0
note_on channel=0 note=75 velocity=0 time=120
note_on channel=0 note=72 velocity=34 time=0
note_on channel=0 note=72 velocity=0 time=90
note_on channel=0 note=72 velocity=40 time=30
note_on channel=0 note=72 velocity=0 time=120
note_on channel=0 note=75 velocity=34 time=0
<meta message set_tempo tempo=397351 time=14>
note_on channel=0 note=75 velocity=0 time=106
note_on channel=0 note=72 velocity=40 time=0
note_on channel=0 note=72 velocity=0 time=120
note_on channel=0 note=68 velocity=34 time=0
note_on channel=0 note=68 velocity=0 time=90
note_on channel=0 note=68 velocity=40 time=30
<meta message set_tempo tempo=398671 time=54>
note_on channel=0 note=68 velocity=0 time=66
note_on channel=0 note=72 velocity=34 time=0
note_on channel=0 note=72 velocity=0 time=120
note_on channel=0 note=68 velocity=40 time=0
note_on channel=0 note=68 velocity=0 time=120
note_on channel=0 note=63 velocity=34 time=0
<meta message set_tempo tempo=400000 time=54>
note_on channel=0 note=63 velocity=0 time=66
note_on channel=0 note=56 velocity=0 time=0
note_on channel=0 note=60 velocity=0 time=0
note_on channel=0 note=51 velocity=0 time=0
note_on channel=0 note=67 velocity=30 time=0
note_on channel=0 note=70 velocity=36 time=0
note_on channel=0 note=61 velocity=32 time=0
note_on channel=0 note=51 velocity=27 time=0
<meta message set_tempo tempo=480000 time=8>
control_change channel=0 control=64 value=0 time=9
note_on channel=0 note=51 velocity=0 time=223
note_on channel=0 note=67 velocity=0 time=0
note_on channel=0 note=70 velocity=0 time=0
note_on channel=0 note=61 velocity=0 time=0
<meta message set_tempo tempo=393443 time=214>
note_on channel=0 note=84 velocity=40 time=26
control_change channel=0 control=91 value=127 time=0
note_on channel=0 note=44 velocity=40 time=0
control_change channel=0 control=91 value=126 time=8
control_change channel=0 control=64 value=127 time=40
note_on channel=0 note=84 velocity=0 time=72
note_on channel=0 note=87 velocity=34 time=0
note_on channel=0 note=87 velocity=0 time=120
note_on channel=0 note=84 velocity=40 time=0
note_on channel=0 note=84 velocity=0 time=120
note_on channel=0 note=80 velocity=34 time=0
note_on channel=0 note=80 velocity=0 time=90
<meta message set_tempo tempo=394737 time=4>
note_on channel=0 note=44 velocity=0 time=26
note_on channel=0 note=80 velocity=40 time=0
note_on channel=0 note=51 velocity=34 time=0
note_on channel=0 note=60 velocity=40 time=0
note_on channel=0 note=56 velocity=34 time=0
note_on channel=0 note=80 velocity=0 time=120
note_on channel=0 note=84 velocity=34 time=0
note_on channel=0 note=84 velocity=0 time=120
note_on channel=0 note=80 velocity=40 time=0
note_on channel=0 note=80 velocity=0 time=120
note_on channel=0 note=75 velocity=34 time=0
note_on channel=0 note=75 velocity=0 time=90
<meta message set_tempo tempo=396040 time=4>
note_on channel=0 note=75 velocity=40 time=26
note_on channel=0 note=75 velocity=0 time=120
note_on channel=0 note=80 velocity=34 time=0
note_on channel=0 note=80 velocity=0 time=120
note_on channel=0 note=75 velocity=40 time=0
note_on channel=0 note=75 velocity=0 time=120
note_on channel=0 note=72 velocity=34 time=0
<meta message set_tempo tempo=397351 time=54>
note_on channel=0 note=72 velocity=0 time=36
note_on channel=0 note=72 velocity=40 time=30
note_on channel=0 note=72 velocity=0 time=120
note_on channel=0 note=75 velocity=34 time=0
note_on channel=0 note=75 velocity=0 time=120
note_on channel=0 note=72 velocity=40 time=0
note_on channel=0 note=72 velocity=0 time=120
note_on channel=0 note=68 velocity=34 time=0
<meta message set_tempo tempo=398671 time=54>
note_on channel=0 note=68 velocity=0 time=36
note_on channel=0 note=68 velocity=40 time=30
note_on channel=0 note=68 velocity=0 time=120
note_on channel=0 note=72 velocity=34 time=0
note_on channel=0 note=72 velocity=0 time=120
note_on channel=0 note=68 velocity=40 time=0
note_on channel=0 note=68 velocity=0 time=120
note_on channel=0 note=63 velocity=34 time=0
<meta message set_tempo tempo=400000 time=14>
note_on channel=0 note=63 velocity=0 time=106
note_on channel=0 note=56 velocity=0 time=0
note_on channel=0 note=60 velocity=0 time=0
note_on channel=0 note=51 velocity=0 time=0
note_on channel=0 note=67 velocity=30 time=0
note_on channel=0 note=70 velocity=36 time=0
note_on channel=0 note=61 velocity=32 time=0
note_on channel=0 note=51 velocity=27 time=0
<meta message set_tempo tempo=480000 time=8>
control_change channel=0 control=64 value=0 time=13
note_on channel=0 note=51 velocity=0 time=219
note_on channel=0 note=67 velocity=0 time=0
note_on channel=0 note=70 velocity=0 time=0
note_on channel=0 note=61 velocity=0 time=0
<meta message set_tempo tempo=390879 time=174>
note_on channel=0 note=87 velocity=45 time=66
control_change channel=0 control=91 value=127 time=0
note_on channel=0 note=44 velocity=45 time=0
control_change channel=0 control=91 value=126 time=8
control_change channel=0 control=64 value=127 time=28
note_on channel=0 note=87 velocity=0 time=84
note_on channel=0 note=92 velocity=38 time=0
note_on channel=0 note=92 velocity=0 time=120
note_on channel=0 note=87 velocity=45 time=0
<meta message set_tempo tempo=392157 time=54>
note_on channel=0 note=87 velocity=0 time=66
note_on channel=0 note=84 velocity=38 time=0
note_on channel=0 note=84 velocity=0 time=90
note_on channel=0 note=44 velocity=0 time=30
note_on channel=0 note=84 velocity=45 time=0
note_on channel=0 note=51 velocity=41 time=0
note_on channel=0 note=60 velocity=49 time=0
note_on channel=0 note=56 velocity=41 time=0
note_on channel=0 note=84 velocity=0 time=120
note_on channel=0 note=87 velocity=38 time=0
<meta message set_tempo tempo=393443 time=14>
note_on channel=0 note=87 velocity=0 time=106
note_on channel=0 note=84 velocity=45 time=0
note_on channel=0 note=84 velocity=0 time=120
note_on channel=0 note=80 velocity=38 time=0
note_on channel=0 note=80 velocity=0 time=90
note_on channel=0 note=80 velocity=45 time=30
<meta message set_tempo tempo=394737 time=14>
note_on channel=0 note=80 velocity=0 time=106
note_on channel=0 note=84 velocity=38 time=0
note_on channel=0 note=84 velocity=0 time=120
note_on channel=0 note=80 velocity=45 time=0
<meta message set_tempo tempo=396040 time=94>
note_on channel=0 note=80 velocity=0 time=26
note_on channel=0 note=75 velocity=38 time=0
note_on channel=0 note=75 velocity=0 time=90
note_on channel=0 note=75 velocity=45 time=30
note_on channel=0 note=75 velocity=0 time=120
note_on channel=0 note=80 velocity=38 time=0
<meta message set_tempo tempo=397351 time=94>
note_on channel=0 note=80 velocity=0 time=26
note_on channel=0 note=75 velocity=45 time=0
note_on channel=0 note=75 velocity=0 time=120
note_on channel=0 note=72 velocity=38 time=0
note_on channel=0 note=72 velocity=0 time=90
note_on channel=0 note=72 velocity=45 time=30
<meta message set_tempo tempo=398671 time=54>
note_on channel=0 note=72 velocity=0 time=66
note_on channel=0 note=75 velocity=38 time=0
note_on channel=0 note=75 velocity=0 time=120
note_on channel=0 note=72 velocity=45 time=0
note_on channel=0 note=72 velocity=0 time=120
note_on channel=0 note=68 velocity=38 time=0
<meta message set_tempo tempo=400000 time=14>
note_on channel=0 note=68 velocity=0 time=106
note_on channel=0 note=56 velocity=0 time=0
note_on channel=0 note=60 velocity=0 time=0
note_on channel=0 note=51 velocity=0 time=0
note_on channel=0 note=67 velocity=40 time=0
note_on channel=0 note=70 velocity=40 time=0
note_on channel=0 note=61 velocity=36 time=0
note_on channel=0 note=51 velocity=30 time=0
<meta message set_tempo tempo=480000 time=8>
control_change channel=0 control=64 value=0 time=11
note_on channel=0 note=51 velocity=0 time=221
note_on channel=0 note=67 velocity=0 time=0
note_on channel=0 note=70 velocity=0 time=0
note_on channel=0 note=61 velocity=0 time=0
<meta message set_tempo tempo=393443 time=214>
note_on channel=0 note=87 velocity=50 time=26
control_change channel=0 control=91 value=127 time=0
note_on channel=0 note=44 velocity=50 time=0
control_change channel=0 control=91 value=126 time=8
control_change channel=0 control=64 value=127 time=48
note_on channel=0 note=87 velocity=0 time=64
note_on channel=0 note=92 velocity=42 time=0
note_on channel=0 note=92 velocity=0 time=120
note_on channel=0 note=87 velocity=50 time=0
note_on channel=0 note=87 velocity=0 time=120
note_on channel=0 note=84 velocity=42 time=0
note_on channel=0 note=84 velocity=0 time=90
<meta message set_tempo tempo=394737 time=4>
note_on channel=0 note=44 velocity=0 time=26
note_on channel=0 note=84 velocity=50 time=0
note_on channel=0 note=51 velocity=40 time=0
note_on channel=0 note=60 velocity=48 time=0
note_on channel=0 note=56 velocity=40 time=0
note_on channel=0 note=84 velocity=0 time=120
note_on channel=0 note=87 velocity=42 time=0
note_on channel=0 note=87 velocity=0 time=120
note_on channel=0 note=84 velocity=50 time=0
note_on channel=0 note=84 velocity=0 time=120
note_on channel=0 note=80 velocity=42 time=0
note_on channel=0 note=80 velocity=0 time=90
<meta message set_tempo tempo=396040 time=4>
note_on channel=0 note=80 velocity=50 time=26
note_on channel=0 note=80 velocity=0 time=120
note_on channel=0 note=84 velocity=42 time=0
note_on channel=0 note=84 velocity=0 time=120
note_on channel=0 note=80 velocity=50 time=0
note_on channel=0 note=80 velocity=0 time=120
note_on channel=0 note=75 velocity=42 time=0
note_on channel=0 note=75 velocity=0 time=90
<meta message set_tempo tempo=397351 time=4>
note_on channel=0 note=75 velocity=50 time=26
note_on channel=0 note=75 velocity=0 time=120
note_on channel=0 note=80 velocity=42 time=0
note_on channel=0 note=80 velocity=0 time=120
note_on channel=0 note=75 velocity=50 time=0
note_on channel=0 note=75 velocity=0 time=120
note_on channel=0 note=72 velocity=42 time=0
note_on channel=0 note=72 velocity=0 time=90
<meta message set_tempo tempo=398671 time=4>
note_on channel=0 note=72 velocity=50 time=26
note_on channel=0 note=72 velocity=0 time=120
note_on channel=0 note=75 velocity=42 time=0
note_on channel=0 note=75 velocity=0 time=120
note_on channel=0 note=72 velocity=50 time=0
note_on channel=0 note=72 velocity=0 time=120
note_on channel=0 note=68 velocity=42 time=0
<meta message set_tempo tempo=400000 time=54>
note_on channel=0 note=68 velocity=0 time=66
note_on channel=0 note=56 velocity=0 time=0
note_on channel=0 note=60 velocity=0 time=0
note_on channel=0 note=51 velocity=0 time=0
note_on channel=0 note=67 velocity=45 time=0
note_on channel=0 note=70 velocity=45 time=0
note_on channel=0 note=61 velocity=40 time=0
note_on channel=0 note=51 velocity=34 time=0
control_change channel=0 control=64 value=0 time=7
<meta message set_tempo tempo=480000 time=1>
note_on channel=0 note=51 velocity=0 time=232
note_on channel=0 note=67 velocity=0 time=0
note_on channel=0 note=70 velocity=0 time=0
note_on channel=0 note=61 velocity=0 time=0
<meta message set_tempo tempo=400000 time=240>
note_on channel=0 note=72 velocity=40 time=0
note_on channel=0 note=44 velocity=40 time=0
control_change channel=0 control=64 value=127 time=8
note_on channel=0 note=72 velocity=0 time=112
note_on channel=0 note=75 velocity=34 time=0
note_on channel=0 note=75 velocity=0 time=120
note_on channel=0 note=72 velocity=40 time=0
note_on channel=0 note=72 velocity=0 time=120
note_on channel=0 note=68 velocity=34 time=0
note_on channel=0 note=68 velocity=0 time=90
note_on channel=0 note=44 velocity=0 time=30
note_on channel=0 note=68 velocity=40 time=0
note_on channel=0 note=54 velocity=27 time=0
note_on channel=0 note=60 velocity=33 time=0
note_on channel=0 note=56 velocity=27 time=0
note_on channel=0 note=68 velocity=0 time=120
note_on channel=0 note=72 velocity=34 time=0
note_on channel=0 note=72 velocity=0 time=120
note_on channel=0 note=68 velocity=40 time=0
note_on channel=0 note=68 velocity=0 time=120
note_on channel=0 note=63 velocity=34 time=0
<meta message set_tempo tempo=428571 time=120>
note_on channel=0 note=63 velocity=0 time=0
note_on channel=0 note=68 velocity=40 time=0
control_change channel=0 control=64 value=0 time=8
note_on channel=0 note=68 velocity=0 time=112
<meta message set_tempo tempo=400000 time=360>
note_on channel=0 note=54 velocity=0 time=0
note_on channel=0 note=60 velocity=0 time=0
note_on channel=0 note=56 velocity=0 time=0
note_on channel=0 note=73 velocity=40 time=0
note_on channel=0 note=49 velocity=40 time=0
control_change channel=0 control=64 value=127 time=16
note_on channel=0 note=73 velocity=0 time=104
note_on channel=0 note=77 velocity=34 time=0
note_on channel=0 note=77 velocity=0 time=120
note_on channel=0 note=73 velocity=40 time=0
note_on channel=0 note=73 velocity=0 time=120
note_on channel=0 note=68 velocity=34 time=0
note_on channel=0 note=68 velocity=0 time=90
note_on channel=0 note=49 velocity=0 time=30
note_on channel=0 note=68 velocity=40 time=0
note_on channel=0 note=61 velocity=29 time=0
note_on channel=0 note=56 velocity=25 time=0
note_on channel=0 note=53 velocity=25 time=0
note_on channel=0 note=68 velocity=0 time=120
note_on channel=0 note=73 velocity=34 time=0
note_on channel=0 note=73 velocity=0 time=120
note_on channel=0 note=68 velocity=40 time=0
note_on channel=0 note=68 velocity=0 time=120
note_on channel=0 note=65 velocity=34 time=0
<meta message set_tempo tempo=428571 time=120>
note_on channel=0 note=65 velocity=0 time=0
note_on channel=0 note=68 velocity=40 time=0
control_change channel=0 control=64 value=0 time=16
note_on channel=0 note=68 velocity=0 time=104
<meta message set_tempo tempo=400000 time=352>
note_on channel=0 note=61 velocity=0 time=8
note_on channel=0 note=56 velocity=0 time=0
note_on channel=0 note=53 velocity=0 time=0
note_on channel=0 note=75 velocity=40 time=0
note_on channel=0 note=39 velocity=40 time=0
control_change channel=0 control=64 value=127 time=20
note_on channel=0 note=75 velocity=0 time=100
note_on channel=0 note=79 velocity=34 time=0
note_on channel=0 note=79 velocity=0 time=120
note_on channel=0 note=75 velocity=40 time=0
note_on channel=0 note=75 velocity=0 time=120
note_on channel=0 note=70 velocity=34 time=0
note_on channel=0 note=70 velocity=0 time=90
note_on channel=0 note=39 velocity=0 time=30
note_on channel=0 note=70 velocity=40 time=0
note_on channel=0 note=51 velocity=29 time=0
note_on channel=0 note=61 velocity=35 time=0
note_on channel=0 note=58 velocity=29 time=0
note_on channel=0 note=70 velocity=0 time=120
note_on channel=0 note=75 velocity=34 time=0
note_on channel=0 note=75 velocity=0 time=120
note_on channel=0 note=70 velocity=40 time=0
note_on channel=0 note=70 velocity=0 time=120
note_on channel=0 note=67 velocity=34 time=0
note_on channel=0 note=67 velocity=0 time=120
note_on channel=0 note=70 velocity=40 time=0
<meta message set_tempo tempo=430108 time=8>
control_change channel=0 control=64 value=0 time=12
note_on channel=0 note=70 velocity=0 time=100
<meta message set_tempo tempo=401338 time=360>
note_on channel=0 note=51 velocity=0 time=0
note_on channel=0 note=61 velocity=0 time=0
note_on channel=0 note=58 velocity=0 time=0
note_on channel=0 note=75 velocity=40 time=0
note_on channel=0 note=44 velocity=40 time=0
control_change channel=0 control=64 value=127 time=36
note_on channel=0 note=75 velocity=0 time=84
note_on channel=0 note=80 velocity=34 time=0
note_on channel=0 note=80 velocity=0 time=120
note_on channel=0 note=75 velocity=40 time=0
note_on channel=0 note=75 velocity=0 time=120
note_on channel=0 note=72 velocity=34 time=0
note_on channel=0 note=72 velocity=0 time=90
note_on channel=0 note=44 velocity=0 time=30
note_on channel=0 note=72 velocity=40 time=0
note_on channel=0 note=60 velocity=37 time=0
note_on channel=0 note=56 velocity=31 time=0
note_on channel=0 note=51 velocity=31 time=0
note_on channel=0 note=72 velocity=0 time=120
note_on channel=0 note=75 velocity=34 time=0
note_on channel=0 note=75 velocity=0 time=120
note_on channel=0 note=72 velocity=40 time=0
note_on channel=0 note=72 velocity=0 time=120
note_on channel=0 note=68 velocity=34 time=0
<meta message set_tempo tempo=461538 time=120>
note_on channel=0 note=68 velocity=0 time=0
note_on channel=0 note=72 velocity=40 time=0
control_change channel=0 control=64 value=0 time=36
note_on channel=0 note=72 velocity=0 time=84
note_on channel=0 note=60 velocity=0 time=360
note_on channel=0 note=56 velocity=0 time=0
note_on channel=0 note=51 velocity=0 time=0
note_on channel=0 note=84 velocity=53 time=0
note_on channel=0 note=44 velocity=50 time=0
<meta message set_tempo tempo=401338 time=8>
control_change channel=0 control=64 value=127 time=28
note_on channel=0 note=84 velocity=0 time=84
note_on channel=0 note=87 velocity=45 time=0
note_on channel=0 note=87 velocity=0 time=120
note_on channel=0 note=84 velocity=53 time=0
note_on channel=0 note=84 velocity=0 time=120
note_on channel=0 note=80 velocity=45 time=0
note_on channel=0 note=80 velocity=0 time=90
note_on channel=0 note=44 velocity=0 time=30
note_on channel=0 note=80 velocity=53 time=0
note_on channel=0 note=54 velocity=34 time=0
note_on channel=0 note=60 velocity=41 time=0
note_on channel=0 note=56 velocity=34 time=0
note_on channel=0 note=80 velocity=0 time=120
note_on channel=0 note=84 velocity=45 time=0
note_on channel=0 note=84 velocity=0 time=120
note_on channel=0 note=80 velocity=53 time=0
note_on channel=0 note=80 velocity=0 time=120
note_on channel=0 note=75 velocity=45 time=0
<meta message set_tempo tempo=428571 time=120>
note_on channel=0 note=75 velocity=0 time=0
note_on channel=0 note=80 velocity=53 time=0
control_change channel=0 control=64 value=0 time=36
note_on channel=0 note=80 velocity=0 time=84
<meta message set_tempo tempo=402685 time=360>
note_on channel=0 note=54 velocity=0 time=0
note_on channel=0 note=60 velocity=0 time=0
note_on channel=0 note=56 velocity=0 time=0
note_on channel=0 note=85 velocity=60 time=0
note_on channel=0 note=49 velocity=60 time=0
control_change channel=0 control=64 value=127 time=20
note_on channel=0 note=85 velocity=0 time=100
note_on channel=0 note=89 velocity=51 time=0
note_on channel=0 note=89 velocity=0 time=120
note_on channel=0 note=85 velocity=60 time=0
note_on channel=0 note=85 velocity=0 time=120
note_on channel=0 note=80 velocity=51 time=0
note_on channel=0 note=80 velocity=0 time=90
note_on channel=0 note=49 velocity=0 time=30
note_on channel=0 note=80 velocity=60 time=0
note_on channel=0 note=56 velocity=44 time=0
note_on channel=0 note=61 velocity=52 time=0
note_on channel=0 note=53 velocity=44 time=0
note_on channel=0 note=80 velocity=0 time=120
note_on channel=0 note=85 velocity=51 time=0
note_on channel=0 note=85 velocity=0 time=120
note_on channel=0 note=80 velocity=60 time=0
note_on channel=0 note=80 velocity=0 time=120
note_on channel=0 note=77 velocity=51 time=0
<meta message set_tempo tempo=428571 time=120>
note_on channel=0 note=77 velocity=0 time=0
note_on channel=0 note=80 velocity=60 time=0
control_change channel=0 control=64 value=0 time=20
note_on channel=0 note=80 velocity=0 time=100
<meta message set_tempo tempo=401338 time=360>
note_on channel=0 note=56 velocity=0 time=0
note_on channel=0 note=61 velocity=0 time=0
note_on channel=0 note=53 velocity=0 time=0
note_on channel=0 note=87 velocity=70 time=0
note_on channel=0 note=39 velocity=70 time=0
control_change channel=0 control=64 value=127 time=36
note_on channel=0 note=87 velocity=0 time=84
note_on channel=0 note=91 velocity=59 time=0
note_on channel=0 note=91 velocity=0 time=120
note_on channel=0 note=87 velocity=70 time=0
note_on channel=0 note=87 velocity=0 time=120
note_on channel=0 note=82 velocity=59 time=0
note_on channel=0 note=82 velocity=0 time=90
note_on channel=0 note=39 velocity=0 time=30
note_on channel=0 note=82 velocity=70 time=0
note_on channel=0 note=61 velocity=61 time=0
note_on channel=0 note=58 velocity=51 time=0
note_on channel=0 note=51 velocity=51 time=0
note_on channel=0 note=82 velocity=0 time=120
note_on channel=0 note=87 velocity=59 time=0
note_on channel=0 note=87 velocity=0 time=120
note_on channel=0 note=82 velocity=70 time=0
note_on channel=0 note=82 velocity=0 time=120
note_on channel=0 note=79 velocity=59 time=0
<meta message set_tempo tempo=428571 time=120>
note_on channel=0 note=79 velocity=0 time=0
note_on channel=0 note=82 velocity=70 time=0
control_change channel=0 control=64 value=0 time=36
note_on channel=0 note=82 velocity=0 time=204
<meta message set_tempo tempo=400000 time=240>
note_on channel=0 note=61 velocity=0 time=0
note_on channel=0 note=58 velocity=0 time=0
note_on channel=0 note=51 velocity=0 time=0
note_on channel=0 note=87 velocity=80 time=0
note_on channel=0 note=44 velocity=76 time=0
control_change channel=0 control=64 value=127 time=44
note_on channel=0 note=87 velocity=0 time=76
note_on channel=0 note=92 velocity=68 time=0
note_on channel=0 note=92 velocity=0 time=120
note_on channel=0 note=87 velocity=80 time=0
note_on channel=0 note=87 velocity=0 time=120
note_on channel=0 note=84 velocity=68 time=0
note_on channel=0 note=84 velocity=0 time=90
note_on channel=0 note=44 velocity=0 time=30
note_on channel=0 note=84 velocity=80 time=0
note_on channel=0 note=60 velocity=63 time=0
note_on channel=0 note=56 velocity=53 time=0
note_on channel=0 note=51 velocity=53 time=0
note_on channel=0 note=84 velocity=0 time=120
note_on channel=0 note=87 velocity=68 time=0
note_on channel=0 note=87 velocity=0 time=120
note_on channel=0 note=84 velocity=80 time=0
note_on channel=0 note=84 velocity=0 time=120
note_on channel=0 note=80 velocity=68 time=0
<meta message set_tempo tempo=463320 time=112>
note_on channel=0 note=80 velocity=0 time=8
note_on channel=0 note=84 velocity=80 time=0
control_change channel=0 control=64 value=0 time=44
note_on channel=0 note=84 velocity=0 time=196
note_on channel=0 note=60 velocity=0 time=240
note_on channel=0 note=56 velocity=0 time=0
note_on channel=0 note=51 velocity=0 time=0
note_on channel=0 note=72 velocity=40 time=0
note_on channel=0 note=51 velocity=50 time=0
note_on channel=0 note=44 velocity=34 time=0
<meta message set_tempo tempo=428571 time=4>
control_change channel=0 control=64 value=127 time=24
note_on channel=0 note=72 velocity=0 time=92
note_on channel=0 note=75 velocity=34 time=0
note_on channel=0 note=75 velocity=0 time=120
note_on channel=0 note=72 velocity=40 time=0
note_on channel=0 note=72 velocity=0 time=120
note_on channel=0 note=68 velocity=34 time=0
note_on channel=0 note=68 velocity=0 time=90
<meta message set_tempo tempo=400000 time=18>
note_on channel=0 note=51 velocity=0 time=12
note_on channel=0 note=68 velocity=40 time=0
note_on channel=0 note=56 velocity=60 time=0
note_on channel=0 note=68 velocity=0 time=120
note_on channel=0 note=72 velocity=34 time=0
note_on channel=0 note=72 velocity=0 time=120
note_on channel=0 note=68 velocity=40 time=0
note_on channel=0 note=68 velocity=0 time=120
note_on channel=0 note=63 velocity=34 time=0
note_on channel=0 note=63 velocity=0 time=120
note_on channel=0 note=68 velocity=40 time=0
note_on channel=0 note=68 velocity=0 time=240
note_on channel=0 note=56 velocity=0 time=0
note_on channel=0 note=55 velocity=50 time=0
<meta message set_tempo tempo=427046 time=240>
note_on channel=0 note=55 velocity=0 time=0
note_on channel=0 note=44 velocity=0 time=0
note_on channel=0 note=73 velocity=40 time=0
note_on channel=0 note=53 velocity=50 time=0
note_on channel=0 note=49 velocity=34 time=0
control_change channel=0 control=64 value=0 time=6
note_on channel=0 note=73 velocity=0 time=114
note_on channel=0 note=77 velocity=34 time=0
control_change channel=0 control=64 value=127 time=14
note_on channel=0 note=77 velocity=0 time=106
note_on channel=0 note=73 velocity=40 time=0
note_on channel=0 note=73 velocity=0 time=120
note_on channel=0 note=68 velocity=34 time=0
note_on channel=0 note=68 velocity=0 time=90
<meta message set_tempo tempo=400000 time=30>
note_on channel=0 note=53 velocity=0 time=0
note_on channel=0 note=68 velocity=40 time=0
note_on channel=0 note=61 velocity=60 time=0
note_on channel=0 note=68 velocity=0 time=120
note_on channel=0 note=73 velocity=34 time=0
note_on channel=0 note=73 velocity=0 time=120
note_on channel=0 note=68 velocity=40 time=0
note_on channel=0 note=68 velocity=0 time=120
note_on channel=0 note=65 velocity=34 time=0
note_on channel=0 note=65 velocity=0 time=120
note_on channel=0 note=68 velocity=40 time=0
note_on channel=0 note=68 velocity=0 time=240
note_on channel=0 note=61 velocity=0 time=0
note_on channel=0 note=60 velocity=50 time=0
note_on channel=0 note=60 velocity=0 time=240
note_on channel=0 note=49 velocity=0 time=0
note_on channel=0 note=75 velocity=40 time=0
note_on channel=0 note=58 velocity=50 time=0
note_on channel=0 note=51 velocity=34 time=0
control_change channel=0 control=64 value=0 time=3
<meta message set_tempo tempo=430108 time=5>
note_on channel=0 note=75 velocity=0 time=112
note_on channel=0 note=79 velocity=34 time=0
control_change channel=0 control=64 value=127 time=28
note_on channel=0 note=79 velocity=0 time=92
note_on channel=0 note=75 velocity=40 time=0
note_on channel=0 note=75 velocity=0 time=120
note_on channel=0 note=70 velocity=34 time=0
note_on channel=0 note=70 velocity=0 time=90
<meta message set_tempo tempo=400000 time=22>
note_on channel=0 note=58 velocity=0 time=8
note_on channel=0 note=70 velocity=40 time=0
note_on channel=0 note=63 velocity=60 time=0
note_on channel=0 note=70 velocity=0 time=120
note_on channel=0 note=75 velocity=34 time=0
note_on channel=0 note=75 velocity=0 time=120
note_on channel=0 note=70 velocity=40 time=0
note_on channel=0 note=70 velocity=0 time=120
note_on channel=0 note=67 velocity=34 time=0
note_on channel=0 note=67 velocity=0 time=120
note_on channel=0 note=70 velocity=40 time=0
note_on channel=0 note=70 velocity=0 time=240
note_on channel=0 note=63 velocity=0 time=0
note_on channel=0 note=61 velocity=50 time=0
<meta message set_tempo tempo=428571 time=240>
note_on channel=0 note=61 velocity=0 time=0
note_on channel=0 note=51 velocity=0 time=0
note_on channel=0 note=75 velocity=40 time=0
note_on channel=0 note=60 velocity=50 time=0
note_on channel=0 note=56 velocity=34 time=0
control_change channel=0 control=64 value=0 time=7
control_change channel=0 control=64 value=127 time=85
note_on channel=0 note=75 velocity=0 time=28
note_on channel=0 note=80 velocity=34 time=0
note_on channel=0 note=80 velocity=0 time=120
note_on channel=0 note=75 velocity=40 time=0
note_on channel=0 note=75 velocity=0 time=120
note_on channel=0 note=72 velocity=34 time=0
note_on channel=0 note=72 velocity=0 time=90
note_on channel=0 note=60 velocity=0 time=30
note_on channel=0 note=72 velocity=40 time=0
note_on channel=0 note=63 velocity=60 time=0
<meta message set_tempo tempo=400000 time=8>
note_on channel=0 note=72 velocity=0 time=112
note_on channel=0 note=75 velocity=34 time=0
note_on channel=0 note=75 velocity=0 time=120
note_on channel=0 note=72 velocity=40 time=0
note_on channel=0 note=72 velocity=0 time=120
note_on channel=0 note=68 velocity=34 time=0
note_on channel=0 note=68 velocity=0 time=120
note_on channel=0 note=72 velocity=40 time=0
note_on channel=0 note=72 velocity=0 time=240
<meta message set_tempo tempo=483871 time=240>
note_on channel=0 note=63 velocity=0 time=0
note_on channel=0 note=56 velocity=0 time=0
note_on channel=0 note=84 velocity=50 time=0
note_on channel=0 note=51 velocity=66 time=0
note_on channel=0 note=44 velocity=56 time=0
control_change channel=0 control=64 value=0 time=6
note_on channel=0 note=84 velocity=0 time=114
note_on channel=0 note=87 velocity=42 time=0
control_change channel=0 control=64 value=127 time=7
note_on channel=0 note=87 velocity=0 time=113
note_on channel=0 note=84 velocity=50 time=0
note_on channel=0 note=84 velocity=0 time=120
note_on channel=0 note=80 velocity=42 time=0
note_on channel=0 note=80 velocity=0 time=90
<meta message set_tempo tempo=398671 time=22>
note_on channel=0 note=51 velocity=0 time=8
note_on channel=0 note=80 velocity=50 time=0
note_on channel=0 note=56 velocity=73 time=0
note_on channel=0 note=80 velocity=0 time=120
note_on channel=0 note=84 velocity=42 time=0
note_on channel=0 note=84 velocity=0 time=120
note_on channel=0 note=80 velocity=50 time=0
note_on channel=0 note=80 velocity=0 time=120
note_on channel=0 note=75 velocity=42 time=0
note_on channel=0 note=75 velocity=0 time=120
note_on channel=0 note=80 velocity=50 time=0
note_on channel=0 note=80 velocity=0 time=240
note_on channel=0 note=56 velocity=0 time=0
note_on channel=0 note=55 velocity=60 time=0
note_on channel=0 note=55 velocity=0 time=240
note_on channel=0 note=44 velocity=0 time=0
note_on channel=0 note=85 velocity=56 time=0
note_on channel=0 note=53 velocity=68 time=0
note_on channel=0 note=49 velocity=57 time=0
control_change channel=0 control=64 value=0 time=6
<meta message set_tempo tempo=433213 time=2>
control_change channel=0 control=64 value=127 time=105
note_on channel=0 note=85 velocity=0 time=7
note_on channel=0 note=89 velocity=47 time=0
note_on channel=0 note=89 velocity=0 time=120
note_on channel=0 note=85 velocity=56 time=0
note_on channel=0 note=85 velocity=0 time=120
note_on channel=0 note=80 velocity=47 time=0
note_on channel=0 note=80 velocity=0 time=90
<meta message set_tempo tempo=400000 time=30>
note_on channel=0 note=53 velocity=0 time=0
note_on channel=0 note=80 velocity=56 time=0
note_on channel=0 note=61 velocity=76 time=0
note_on channel=0 note=80 velocity=0 time=120
note_on channel=0 note=85 velocity=47 time=0
note_on channel=0 note=85 velocity=0 time=120
note_on channel=0 note=80 velocity=56 time=0
note_on channel=0 note=80 velocity=0 time=120
note_on channel=0 note=77 velocity=47 time=0
note_on channel=0 note=77 velocity=0 time=120
note_on channel=0 note=80 velocity=56 time=0
note_on channel=0 note=80 velocity=0 time=240
note_on channel=0 note=61 velocity=0 time=0
note_on channel=0 note=60 velocity=70 time=0
<meta message set_tempo tempo=421053 time=228>
note_on channel=0 note=60 velocity=0 time=12
note_on channel=0 note=49 velocity=0 time=0
note_on channel=0 note=87 velocity=60 time=0
note_on channel=0 note=58 velocity=72 time=0
note_on channel=0 note=51 velocity=61 time=0
control_change channel=0 control=64 value=0 time=6
note_on channel=0 note=87 velocity=0 time=114
note_on channel=0 note=91 velocity=51 time=0
control_change channel=0 control=64 value=127 time=7
note_on channel=0 note=91 velocity=0 time=113
note_on channel=0 note=87 velocity=60 time=0
note_on channel=0 note=87 velocity=0 time=120
note_on channel=0 note=82 velocity=51 time=0
note_on channel=0 note=82 velocity=0 time=90
<meta message set_tempo tempo=400000 time=30>
note_on channel=0 note=58 velocity=0 time=0
note_on channel=0 note=82 velocity=60 time=0
note_on channel=0 note=63 velocity=78 time=0
note_on channel=0 note=82 velocity=0 time=120
note_on channel=0 note=87 velocity=51 time=0
note_on channel=0 note=87 velocity=0 time=120
note_on channel=0 note=82 velocity=60 time=0
note_on channel=0 note=82 velocity=0 time=120
note_on channel=0 note=79 velocity=51 time=0
note_on channel=0 note=79 velocity=0 time=120
note_on channel=0 note=82 velocity=60 time=0
note_on channel=0 note=82 velocity=0 time=240
note_on channel=0 note=63 velocity=0 time=0
note_on channel=0 note=61 velocity=71 time=0
<meta message set_tempo tempo=422535 time=232>
note_on channel=0 note=61 velocity=0 time=8
note_on channel=0 note=51 velocity=0 time=0
note_on channel=0 note=87 velocity=70 time=0
note_on channel=0 note=60 velocity=72 time=0
note_on channel=0 note=56 velocity=60 time=0
control_change channel=0 control=64 value=0 time=6
note_on channel=0 note=87 velocity=0 time=114
note_on channel=0 note=92 velocity=59 time=0
control_change channel=0 control=64 value=127 time=0
note_on channel=0 note=92 velocity=0 time=120
note_on channel=0 note=87 velocity=70 time=0
note_on channel=0 note=87 velocity=0 time=120
note_on channel=0 note=84 velocity=59 time=0
note_on channel=0 note=84 velocity=0 time=90
<meta message set_tempo tempo=400000 time=22>
note_on channel=0 note=60 velocity=0 time=8
note_on channel=0 note=84 velocity=70 time=0
note_on channel=0 note=63 velocity=79 time=0
note_on channel=0 note=84 velocity=0 time=120
note_on channel=0 note=87 velocity=59 time=0
note_on channel=0 note=87 velocity=0 time=120
note_on channel=0 note=84 velocity=70 time=0
note_on channel=0 note=84 velocity=0 time=120
note_on channel=0 note=80 velocity=59 time=0
note_on channel=0 note=80 velocity=0 time=120
note_on channel=0 note=84 velocity=70 time=0
note_on channel=0 note=84 velocity=0 time=240
note_on channel=0 note=63 velocity=0 time=0
note_on channel=0 note=60 velocity=69 time=0
note_on channel=0 note=60 velocity=0 time=240
note_on channel=0 note=56 velocity=0 time=0
note_on channel=0 note=87 velocity=76 time=0
note_on channel=0 note=58 velocity=78 time=0
note_on channel=0 note=51 velocity=66 time=0
control_change channel=0 control=64 value=0 time=6
<meta message set_tempo tempo=439560 time=2>
note_on channel=0 note=87 velocity=0 time=112
note_on channel=0 note=91 velocity=64 time=0
control_change channel=0 control=64 value=127 time=7
note_on channel=0 note=91 velocity=0 time=113
note_on channel=0 note=87 velocity=76 time=0
note_on channel=0 note=87 velocity=0 time=120
note_on channel=0 note=82 velocity=64 time=0
note_on channel=0 note=82 velocity=0 time=90
<meta message set_tempo tempo=400000 time=30>
note_on channel=0 note=58 velocity=0 time=0
note_on channel=0 note=82 velocity=76 time=0
note_on channel=0 note=63 velocity=86 time=0
note_on channel=0 note=82 velocity=0 time=120
note_on channel=0 note=87 velocity=64 time=0
note_on channel=0 note=87 velocity=0 time=120
note_on channel=0 note=82 velocity=76 time=0
note_on channel=0 note=82 velocity=0 time=120
note_on channel=0 note=79 velocity=64 time=0
note_on channel=0 note=79 velocity=0 time=120
note_on channel=0 note=82 velocity=76 time=0
note_on channel=0 note=82 velocity=0 time=240
note_on channel=0 note=63 velocity=0 time=0
note_on channel=0 note=61 velocity=79 time=0
<meta message set_tempo tempo=430108 time=232>
note_on channel=0 note=61 velocity=0 time=8
note_on channel=0 note=51 velocity=0 time=0
note_on channel=0 note=87 velocity=80 time=0
note_on channel=0 note=60 velocity=80 time=0
note_on channel=0 note=56 velocity=67 time=0
control_change channel=0 control=64 value=0 time=5
note_on channel=0 note=87 velocity=0 time=115
note_on channel=0 note=92 velocity=67 time=0
control_change channel=0 control=64 value=127 time=21
note_on channel=0 note=92 velocity=0 time=99
note_on channel=0 note=87 velocity=80 time=0
note_on channel=0 note=87 velocity=0 time=120
note_on channel=0 note=84 velocity=67 time=0
note_on channel=0 note=84 velocity=0 time=90
<meta message set_tempo tempo=400000 time=22>
note_on channel=0 note=60 velocity=0 time=8
note_on channel=0 note=84 velocity=80 time=0
note_on channel=0 note=63 velocity=87 time=0
note_on channel=0 note=84 velocity=0 time=120
note_on channel=0 note=87 velocity=67 time=0
note_on channel=0 note=87 velocity=0 time=120
note_on channel=0 note=84 velocity=80 time=0
note_on channel=0 note=84 velocity=0 time=120
note_on channel=0 note=80 velocity=67 time=0
note_on channel=0 note=80 velocity=0 time=120
note_on channel=0 note=84 velocity=80 time=0
note_on channel=0 note=84 velocity=0 time=240
note_on channel=0 note=63 velocity=0 time=0
note_on channel=0 note=60 velocity=78 time=0
note_on channel=0 note=60 velocity=0 time=240
note_on channel=0 note=56 velocity=0 time=0
note_on channel=0 note=89 velocity=79 time=0
note_on channel=0 note=53 velocity=61 time=0
note_on channel=0 note=60 velocity=74 time=0
control_change channel=0 control=64 value=0 time=6
<meta message set_tempo tempo=451128 time=2>
note_on channel=0 note=89 velocity=0 time=112
note_on channel=0 note=93 velocity=67 time=0
control_change channel=0 control=64 value=127 time=17
note_on channel=0 note=93 velocity=0 time=103
note_on channel=0 note=89 velocity=79 time=0
note_on channel=0 note=89 velocity=0 time=120
note_on channel=0 note=84 velocity=67 time=0
note_on channel=0 note=84 velocity=0 time=90
note_on channel=0 note=60 velocity=0 time=30
note_on channel=0 note=84 velocity=79 time=0
note_on channel=0 note=65 velocity=79 time=0
<meta message set_tempo tempo=400000 time=8>
note_on channel=0 note=84 velocity=0 time=112
note_on channel=0 note=89 velocity=67 time=0
note_on channel=0 note=89 velocity=0 time=120
note_on channel=0 note=84 velocity=79 time=0
note_on channel=0 note=84 velocity=0 time=120
note_on channel=0 note=81 velocity=67 time=0
note_on channel=0 note=81 velocity=0 time=120
note_on channel=0 note=84 velocity=79 time=0
note_on channel=0 note=84 velocity=0 time=240
note_on channel=0 note=65 velocity=0 time=0
note_on channel=0 note=63 velocity=71 time=0
<meta message set_tempo tempo=428571 time=240>
note_on channel=0 note=63 velocity=0 time=0
note_on channel=0 note=53 velocity=0 time=0
note_on channel=0 note=89 velocity=80 time=0
note_on channel=0 note=61 velocity=76 time=0
note_on channel=0 note=58 velocity=58 time=0
control_change channel=0 control=64 value=0 time=7
control_change channel=0 control=64 value=127 time=106
note_on channel=0 note=89 velocity=0 time=7
note_on channel=0 note=94 velocity=68 time=0
note_on channel=0 note=94 velocity=0 time=120
note_on channel=0 note=89 velocity=80 time=0
note_on channel=0 note=89 velocity=0 time=120
note_on channel=0 note=85 velocity=68 time=0
note_on channel=0 note=85 velocity=0 time=90
note_on channel=0 note=61 velocity=0 time=30
note_on channel=0 note=85 velocity=80 time=0
note_on channel=0 note=65 velocity=80 time=0
<meta message set_tempo tempo=400000 time=8>
note_on channel=0 note=85 velocity=0 time=112
note_on channel=0 note=89 velocity=68 time=0
note_on channel=0 note=89 velocity=0 time=120
note_on channel=0 note=85 velocity=80 time=0
note_on channel=0 note=85 velocity=0 time=120
note_on channel=0 note=82 velocity=68 time=0
note_on channel=0 note=82 velocity=0 time=120
note_on channel=0 note=85 velocity=80 time=0
note_on channel=0 note=85 velocity=0 time=240
note_on channel=0 note=65 velocity=0 time=0
note_on channel=0 note=61 velocity=71 time=0
<meta message set_tempo tempo=439560 time=232>
note_on channel=0 note=61 velocity=0 time=8
note_on channel=0 note=58 velocity=0 time=0
note_on channel=0 note=89 velocity=80 time=0
note_on channel=0 note=60 velocity=76 time=0
note_on channel=0 note=53 velocity=58 time=0
control_change channel=0 control=64 value=0 time=6
control_change channel=0 control=64 value=127 time=103
note_on channel=0 note=89 velocity=0 time=11
note_on channel=0 note=93 velocity=68 time=0
note_on channel=0 note=93 velocity=0 time=120
note_on channel=0 note=89 velocity=80 time=0
note_on channel=0 note=89 velocity=0 time=120
note_on channel=0 note=84 velocity=68 time=0
note_on channel=0 note=84 velocity=0 time=90
<meta message set_tempo tempo=400000 time=30>
note_on channel=0 note=60 velocity=0 time=0
note_on channel=0 note=84 velocity=80 time=0
note_on channel=0 note=65 velocity=80 time=0
note_on channel=0 note=84 velocity=0 time=120
note_on channel=0 note=89 velocity=68 time=0
note_on channel=0 note=89 velocity=0 time=120
note_on channel=0 note=84 velocity=80 time=0
note_on channel=0 note=84 velocity=0 time=120
note_on channel=0 note=81 velocity=68 time=0
note_on channel=0 note=81 velocity=0 time=120
note_on channel=0 note=84 velocity=80 time=0
note_on channel=0 note=84 velocity=0 time=240
note_on channel=0 note=65 velocity=0 time=0
note_on channel=0 note=63 velocity=71 time=0
<meta message set_tempo tempo=424028 time=240>
note_on channel=0 note=63 velocity=0 time=0
note_on channel=0 note=53 velocity=0 time=0
note_on channel=0 note=89 velocity=80 time=0
note_on channel=0 note=61 velocity=76 time=0
note_on channel=0 note=58 velocity=58 time=0
control_change channel=0 control=64 value=0 time=6
note_on channel=0 note=89 velocity=0 time=114
note_on channel=0 note=94 velocity=68 time=0
control_change channel=0 control=64 value=127 time=7
note_on channel=0 note=94 velocity=0 time=113
note_on channel=0 note=89 velocity=80 time=0
note_on channel=0 note=89 velocity=0 time=120
note_on channel=0 note=85 velocity=68 time=0
note_on channel=0 note=85 velocity=0 time=90
<meta message set_tempo tempo=400000 time=30>
note_on channel=0 note=61 velocity=0 time=0
note_on channel=0 note=85 velocity=80 time=0
note_on channel=0 note=65 velocity=79 time=0
note_on channel=0 note=85 velocity=0 time=120
note_on channel=0 note=89 velocity=68 time=0
note_on channel=0 note=89 velocity=0 time=120
note_on channel=0 note=85 velocity=80 time=0
note_on channel=0 note=85 velocity=0 time=120
note_on channel=0 note=82 velocity=68 time=0
note_on channel=0 note=82 velocity=0 time=120
note_on channel=0 note=85 velocity=80 time=0
note_on channel=0 note=85 velocity=0 time=240
note_on channel=0 note=65 velocity=0 time=0
note_on channel=0 note=61 velocity=71 time=0
<meta message set_tempo tempo=480000 time=240>
note_on channel=0 note=61 velocity=0 time=0
note_on channel=0 note=58 velocity=0 time=0
note_on channel=0 note=92 velocity=80 time=0
note_on channel=0 note=63 velocity=76 time=0
note_on channel=0 note=56 velocity=58 time=0
control_change channel=0 control=64 value=0 time=5
note_on channel=0 note=92 velocity=0 time=115
note_on channel=0 note=96 velocity=68 time=0
control_change channel=0 control=64 value=127 time=14
note_on channel=0 note=96 velocity=0 time=106
note_on channel=0 note=92 velocity=80 time=0
note_on channel=0 note=92 velocity=0 time=120
note_on channel=0 note=87 velocity=68 time=0
note_on channel=0 note=87 velocity=0 time=90
<meta message set_tempo tempo=400000 time=30>
note_on channel=0 note=63 velocity=0 time=0
note_on channel=0 note=87 velocity=80 time=0
note_on channel=0 note=68 velocity=80 time=0
note_on channel=0 note=87 velocity=0 time=120
note_on channel=0 note=92 velocity=68 time=0
note_on channel=0 note=92 velocity=0 time=120
note_on channel=0 note=87 velocity=80 time=0
note_on channel=0 note=87 velocity=0 time=120
note_on channel=0 note=84 velocity=68 time=0
note_on channel=0 note=84 velocity=0 time=120
note_on channel=0 note=87 velocity=80 time=0
note_on channel=0 note=87 velocity=0 time=240
note_on channel=0 note=68 velocity=0 time=0
note_on channel=0 note=66 velocity=73 time=0
<meta message set_tempo tempo=424028 time=228>
note_on channel=0 note=66 velocity=0 time=12
note_on channel=0 note=56 velocity=0 time=0
note_on channel=0 note=92 velocity=80 time=0
note_on channel=0 note=61 velocity=65 time=0
note_on channel=0 note=65 velocity=78 time=0
control_change channel=0 control=64 value=0 time=6
note_on channel=0 note=92 velocity=0 time=114
note_on channel=0 note=97 velocity=68 time=0
control_change channel=0 control=64 value=127 time=14
note_on channel=0 note=97 velocity=0 time=106
note_on channel=0 note=92 velocity=80 time=0
note_on channel=0 note=92 velocity=0 time=120
note_on channel=0 note=89 velocity=68 time=0
note_on channel=0 note=89 velocity=0 time=90
note_on channel=0 note=65 velocity=0 time=30
note_on channel=0 note=89 velocity=81 time=0
note_on channel=0 note=68 velocity=81 time=0
<meta message set_tempo tempo=400000 time=8>
note_on channel=0 note=89 velocity=0 time=112
note_on channel=0 note=92 velocity=69 time=0
note_on channel=0 note=92 velocity=0 time=120
note_on channel=0 note=89 velocity=82 time=0
note_on channel=0 note=89 velocity=0 time=120
note_on channel=0 note=85 velocity=69 time=0
note_on channel=0 note=85 velocity=0 time=120
note_on channel=0 note=89 velocity=83 time=0
note_on channel=0 note=89 velocity=0 time=240
note_on channel=0 note=68 velocity=0 time=0
note_on channel=0 note=65 velocity=72 time=0
<meta message set_tempo tempo=430108 time=240>
note_on channel=0 note=65 velocity=0 time=0
note_on channel=0 note=61 velocity=0 time=0
note_on channel=0 note=92 velocity=84 time=0
note_on channel=0 note=63 velocity=76 time=0
note_on channel=0 note=56 velocity=64 time=0
control_change channel=0 control=64 value=0 time=6
note_on channel=0 note=92 velocity=0 time=114
note_on channel=0 note=96 velocity=71 time=0
control_change channel=0 control=64 value=127 time=7
note_on channel=0 note=96 velocity=0 time=113
note_on channel=0 note=92 velocity=85 time=0
note_on channel=0 note=92 velocity=0 time=120
note_on channel=0 note=87 velocity=72 time=0
note_on channel=0 note=87 velocity=0 time=90
note_on channel=0 note=63 velocity=0 time=30
note_on channel=0 note=87 velocity=86 time=0
note_on channel=0 note=68 velocity=82 time=0
<meta message set_tempo tempo=400000 time=8>
note_on channel=0 note=87 velocity=0 time=112
note_on channel=0 note=92 velocity=73 time=0
note_on channel=0 note=92 velocity=0 time=120
note_on channel=0 note=87 velocity=87 time=0
note_on channel=0 note=87 velocity=0 time=120
note_on channel=0 note=84 velocity=73 time=0
note_on channel=0 note=84 velocity=0 time=120
note_on channel=0 note=87 velocity=87 time=0
<meta message set_tempo tempo=428571 time=8>
note_on channel=0 note=87 velocity=0 time=232
note_on channel=0 note=68 velocity=0 time=0
note_on channel=0 note=66 velocity=71 time=0
<meta message set_tempo tempo=385852 time=212>
note_on channel=0 note=66 velocity=0 time=28
note_on channel=0 note=56 velocity=0 time=0
note_on channel=0 note=92 velocity=88 time=0
note_on channel=0 note=65 velocity=80 time=0
note_on channel=0 note=61 velocity=67 time=0
control_change channel=0 control=64 value=0 time=5
control_change channel=0 control=64 value=127 time=73
note_on channel=0 note=92 velocity=0 time=42
note_on channel=0 note=97 velocity=74 time=0
note_on channel=0 note=97 velocity=0 time=120
note_on channel=0 note=92 velocity=88 time=0
<meta message set_tempo tempo=387097 time=12>
note_on channel=0 note=92 velocity=0 time=108
note_on channel=0 note=89 velocity=74 time=0
note_on channel=0 note=89 velocity=0 time=90
note_on channel=0 note=61 velocity=0 time=30
note_on channel=0 note=65 velocity=0 time=0
note_on channel=0 note=89 velocity=88 time=0
<meta message set_tempo tempo=388350 time=52>
note_on channel=0 note=89 velocity=0 time=68
note_on channel=0 note=92 velocity=74 time=0
note_on channel=0 note=92 velocity=0 time=120
note_on channel=0 note=89 velocity=88 time=0
<meta message set_tempo tempo=389610 time=92>
note_on channel=0 note=89 velocity=0 time=28
note_on channel=0 note=85 velocity=74 time=0
note_on channel=0 note=85 velocity=0 time=90
note_on channel=0 note=85 velocity=88 time=30
note_on channel=0 note=85 velocity=0 time=120
note_on channel=0 note=89 velocity=74 time=0
<meta message set_tempo tempo=390879 time=12>
note_on channel=0 note=89 velocity=0 time=108
note_on channel=0 note=85 velocity=88 time=0
note_on channel=0 note=85 velocity=0 time=120
note_on channel=0 note=80 velocity=74 time=0
<meta message set_tempo tempo=392157 time=52>
note_on channel=0 note=80 velocity=0 time=38
note_on channel=0 note=80 velocity=88 time=30
note_on channel=0 note=80 velocity=0 time=120
note_on channel=0 note=85 velocity=74 time=0
<meta message set_tempo tempo=393443 time=92>
note_on channel=0 note=85 velocity=0 time=28
note_on channel=0 note=80 velocity=88 time=0
note_on channel=0 note=80 velocity=0 time=120
note_on channel=0 note=77 velocity=74 time=0
note_on channel=0 note=77 velocity=0 time=90
note_on channel=0 note=77 velocity=88 time=30
<meta message set_tempo tempo=394737 time=12>
note_on channel=0 note=77 velocity=0 time=108
note_on channel=0 note=80 velocity=74 time=0
note_on channel=0 note=80 velocity=0 time=120
note_on channel=0 note=77 velocity=88 time=0
<meta message set_tempo tempo=396040 time=52>
note_on channel=0 note=77 velocity=0 time=68
note_on channel=0 note=73 velocity=74 time=0
note_on channel=0 note=73 velocity=0 time=90
note_on channel=0 note=73 velocity=88 time=30
<meta message set_tempo tempo=397351 time=92>
note_on channel=0 note=73 velocity=0 time=28
note_on channel=0 note=77 velocity=74 time=0
note_on channel=0 note=77 velocity=0 time=120
note_on channel=0 note=73 velocity=88 time=0
note_on channel=0 note=73 velocity=0 time=120
note_on channel=0 note=68 velocity=74 time=0
<meta message set_tempo tempo=398671 time=12>
note_on channel=0 note=68 velocity=0 time=78
<meta message set_tempo tempo=387097 time=2>
note_on channel=0 note=80 velocity=88 time=28
note_on channel=0 note=68 velocity=88 time=0
control_change channel=0 control=64 value=0 time=10
note_on channel=0 note=80 velocity=0 time=110
note_on channel=0 note=85 velocity=74 time=0
control_change channel=0 control=64 value=127 time=0
note_on channel=0 note=85 velocity=0 time=120
note_on channel=0 note=68 velocity=0 time=0
note_on channel=0 note=80 velocity=88 time=0
<meta message set_tempo tempo=388350 time=92>
note_on channel=0 note=80 velocity=0 time=28
note_on channel=0 note=77 velocity=74 time=0
note_on channel=0 note=77 velocity=0 time=90
note_on channel=0 note=77 velocity=88 time=30
note_on channel=0 note=65 velocity=84 time=0
note_on channel=0 note=77 velocity=0 time=120
note_on channel=0 note=80 velocity=74 time=0
<meta message set_tempo tempo=389610 time=52>
note_on channel=0 note=80 velocity=0 time=68
note_on channel=0 note=65 velocity=0 time=0
note_on channel=0 note=77 velocity=88 time=0
note_on channel=0 note=77 velocity=0 time=120
note_on channel=0 note=73 velocity=74 time=0
note_on channel=0 note=73 velocity=0 time=90
note_on channel=0 note=73 velocity=88 time=30
note_on channel=0 note=61 velocity=84 time=0
<meta message set_tempo tempo=390879 time=12>
note_on channel=0 note=73 velocity=0 time=108
note_on channel=0 note=77 velocity=74 time=0
note_on channel=0 note=77 velocity=0 time=120
note_on channel=0 note=61 velocity=0 time=0
note_on channel=0 note=73 velocity=88 time=0
<meta message set_tempo tempo=392157 time=92>
note_on channel=0 note=73 velocity=0 time=28
note_on channel=0 note=68 velocity=74 time=0
note_on channel=0 note=68 velocity=0 time=90
note_on channel=0 note=68 velocity=88 time=30
note_on channel=0 note=56 velocity=88 time=0
note_on channel=0 note=68 velocity=0 time=120
note_on channel=0 note=73 velocity=74 time=0
<meta message set_tempo tempo=393443 time=52>
note_on channel=0 note=73 velocity=0 time=68
note_on channel=0 note=56 velocity=0 time=0
note_on channel=0 note=68 velocity=88 time=0
note_on channel=0 note=68 velocity=0 time=120
note_on channel=0 note=65 velocity=74 time=0
note_on channel=0 note=65 velocity=0 time=90
note_on channel=0 note=65 velocity=88 time=30
note_on channel=0 note=53 velocity=84 time=0
<meta message set_tempo tempo=394737 time=12>
note_on channel=0 note=65 velocity=0 time=108
note_on channel=0 note=68 velocity=74 time=0
note_on channel=0 note=68 velocity=0 time=120
note_on channel=0 note=53 velocity=0 time=0
note_on channel=0 note=65 velocity=88 time=0
<meta message set_tempo tempo=396040 time=92>
note_on channel=0 note=65 velocity=0 time=28
note_on channel=0 note=61 velocity=74 time=0
note_on channel=0 note=61 velocity=0 time=90
note_on channel=0 note=61 velocity=88 time=30
note_on channel=0 note=49 velocity=84 time=0
note_on channel=0 note=61 velocity=0 time=120
note_on channel=0 note=65 velocity=74 time=0
<meta message set_tempo tempo=397351 time=52>
note_on channel=0 note=65 velocity=0 time=68
note_on channel=0 note=49 velocity=0 time=0
note_on channel=0 note=61 velocity=88 time=0
note_on channel=0 note=61 velocity=0 time=120
note_on channel=0 note=56 velocity=74 time=0
note_on channel=0 note=56 velocity=0 time=120
note_on channel=0 note=61 velocity=90 time=0
note_on channel=0 note=52 velocity=70 time=0
note_on channel=0 note=49 velocity=59 time=0
note_on channel=0 note=46 velocity=59 time=0
note_on channel=0 note=43 velocity=59 time=0
control_change channel=0 control=64 value=0 time=7
<meta message set_tempo tempo=398671 time=5>
note_on channel=0 note=61 velocity=0 time=108
note_on channel=0 note=64 velocity=69 time=0
control_change channel=0 control=64 value=127 time=29
note_on channel=0 note=64 velocity=0 time=91
note_on channel=0 note=61 velocity=82 time=0
note_on channel=0 note=61 velocity=0 time=120
note_on channel=0 note=58 velocity=69 time=0
note_on channel=0 note=58 velocity=0 time=90
note_on channel=0 note=58 velocity=82 time=30
note_on channel=0 note=58 velocity=0 time=120
note_on channel=0 note=61 velocity=69 time=0
note_on channel=0 note=61 velocity=0 time=120
note_on channel=0 note=58 velocity=82 time=0
note_on channel=0 note=58 velocity=0 time=120
note_on channel=0 note=55 velocity=69 time=0
note_on channel=0 note=52 velocity=0 time=110
note_on channel=0 note=43 velocity=0 time=1
note_on channel=0 note=46 velocity=0 time=0
note_on channel=0 note=49 velocity=0 time=0
note_on channel=0 note=55 velocity=0 time=9
note_on channel=0 note=61 velocity=91 time=0
note_on channel=0 note=52 velocity=70 time=0
note_on channel=0 note=49 velocity=59 time=0
note_on channel=0 note=46 velocity=59 time=0
note_on channel=0 note=43 velocity=59 time=0
control_change channel=0 control=64 value=0 time=17
note_on channel=0 note=61 velocity=0 time=103
note_on channel=0 note=64 velocity=69 time=0
control_change channel=0 control=64 value=127 time=6
note_on channel=0 note=64 velocity=0 time=114
note_on channel=0 note=61 velocity=82 time=0
note_on channel=0 note=61 velocity=0 time=120
note_on channel=0 note=58 velocity=69 time=0
note_on channel=0 note=58 velocity=0 time=90
note_on channel=0 note=58 velocity=82 time=30
note_on channel=0 note=58 velocity=0 time=120
note_on channel=0 note=61 velocity=69 time=0
note_on channel=0 note=61 velocity=0 time=120
note_on channel=0 note=58 velocity=82 time=0
note_on channel=0 note=58 velocity=0 time=120
note_on channel=0 note=55 velocity=69 time=0
note_on channel=0 note=46 velocity=0 time=111
note_on channel=0 note=43 velocity=0 time=0
note_on channel=0 note=52 velocity=0 time=0
note_on channel=0 note=49 velocity=0 time=0
note_on channel=0 note=55 velocity=0 time=9
note_on channel=0 note=61 velocity=90 time=0
note_on channel=0 note=52 velocity=70 time=0
note_on channel=0 note=49 velocity=59 time=0
note_on channel=0 note=46 velocity=59 time=0
note_on channel=0 note=43 velocity=59 time=0
control_change channel=0 control=64 value=0 time=12
control_change channel=0 control=64 value=127 time=103
note_on channel=0 note=61 velocity=0 time=5
note_on channel=0 note=64 velocity=69 time=0
note_on channel=0 note=64 velocity=0 time=120
note_on channel=0 note=61 velocity=82 time=0
note_on channel=0 note=61 velocity=0 time=120
note_on channel=0 note=58 velocity=69 time=0
note_on channel=0 note=58 velocity=0 time=120
note_on channel=0 note=58 velocity=82 time=0
note_on channel=0 note=58 velocity=0 time=120
note_on channel=0 note=61 velocity=69 time=0
note_on channel=0 note=61 velocity=0 time=120
note_on channel=0 note=58 velocity=82 time=0
note_on channel=0 note=58 velocity=0 time=120
note_on channel=0 note=55 velocity=69 time=0
<meta message set_tempo tempo=398671 time=92>
note_on channel=0 note=46 velocity=0 time=19
note_on channel=0 note=43 velocity=0 time=0
note_on channel=0 note=52 velocity=0 time=0
note_on channel=0 note=49 velocity=0 time=0
note_on channel=0 note=55 velocity=0 time=9
note_on channel=0 note=61 velocity=81 time=0
note_on channel=0 note=51 velocity=65 time=0
note_on channel=0 note=49 velocity=55 time=0
note_on channel=0 note=46 velocity=55 time=0
note_on channel=0 note=43 velocity=55 time=0
control_change channel=0 control=64 value=0 time=20
note_on channel=0 note=61 velocity=0 time=100
note_on channel=0 note=63 velocity=68 time=0
control_change channel=0 control=64 value=127 time=36
<meta message set_tempo tempo=400000 time=16>
note_on channel=0 note=63 velocity=0 time=68
note_on channel=0 note=61 velocity=81 time=0
note_on channel=0 note=61 velocity=0 time=120
note_on channel=0 note=58 velocity=67 time=0
<meta message set_tempo tempo=401338 time=12>
note_on channel=0 note=58 velocity=0 time=78
note_on channel=0 note=58 velocity=80 time=30
<meta message set_tempo tempo=402685 time=92>
note_on channel=0 note=58 velocity=0 time=28
note_on channel=0 note=61 velocity=66 time=0
note_on channel=0 note=61 velocity=0 time=120
note_on channel=0 note=58 velocity=79 time=0
<meta message set_tempo tempo=404040 time=52>
note_on channel=0 note=58 velocity=0 time=68
note_on channel=0 note=55 velocity=66 time=0
note_on channel=0 note=46 velocity=0 time=111
note_on channel=0 note=43 velocity=0 time=0
note_on channel=0 note=51 velocity=0 time=0
note_on channel=0 note=49 velocity=0 time=0
note_on channel=0 note=55 velocity=0 time=9
note_on channel=0 note=61 velocity=84 time=0
note_on channel=0 note=51 velocity=51 time=0
note_on channel=0 note=49 velocity=43 time=0
note_on channel=0 note=46 velocity=43 time=0
note_on channel=0 note=43 velocity=43 time=0
<meta message set_tempo tempo=405405 time=12>
control_change channel=0 control=64 value=0 time=4
control_change channel=0 control=64 value=127 time=97
note_on channel=0 note=61 velocity=0 time=7
note_on channel=0 note=63 velocity=65 time=0
<meta message set_tempo tempo=406780 time=92>
note_on channel=0 note=63 velocity=0 time=28
note_on channel=0 note=61 velocity=76 time=0
note_on channel=0 note=61 velocity=0 time=120
note_on channel=0 note=58 velocity=62 time=0
<meta message set_tempo tempo=408163 time=52>
note_on channel=0 note=58 velocity=0 time=38
note_on channel=0 note=58 velocity=76 time=30
note_on channel=0 note=58 velocity=0 time=120
note_on channel=0 note=61 velocity=63 time=0
<meta message set_tempo tempo=409556 time=12>
note_on channel=0 note=61 velocity=0 time=108
note_on channel=0 note=58 velocity=73 time=0
<meta message set_tempo tempo=410959 time=92>
note_on channel=0 note=58 velocity=0 time=28
note_on channel=0 note=55 velocity=59 time=0
note_on channel=0 note=46 velocity=0 time=111
note_on channel=0 note=43 velocity=0 time=0
note_on channel=0 note=51 velocity=0 time=0
note_on channel=0 note=49 velocity=0 time=0
note_on channel=0 note=55 velocity=0 time=9
note_on channel=0 note=61 velocity=76 time=0
note_on channel=0 note=51 velocity=45 time=0
note_on channel=0 note=49 velocity=38 time=0
note_on channel=0 note=46 velocity=38 time=0
note_on channel=0 note=43 velocity=38 time=0
control_change channel=0 control=64 value=0 time=7
<meta message set_tempo tempo=412371 time=45>
note_on channel=0 note=61 velocity=0 time=68
note_on channel=0 note=63 velocity=57 time=0
control_change channel=0 control=64 value=127 time=57
note_on channel=0 note=63 velocity=0 time=63
note_on channel=0 note=61 velocity=66 time=0
<meta message set_tempo tempo=413793 time=12>
note_on channel=0 note=61 velocity=0 time=108
note_on channel=0 note=58 velocity=55 time=0
<meta message set_tempo tempo=415225 time=52>
note_on channel=0 note=58 velocity=0 time=38
<meta message set_tempo tempo=500000 time=22>
note_on channel=0 note=58 velocity=63 time=8
note_on channel=0 note=58 velocity=0 time=120
note_on channel=0 note=61 velocity=52 time=0
note_on channel=0 note=61 velocity=0 time=120
note_on channel=0 note=58 velocity=60 time=0
note_on channel=0 note=58 velocity=0 time=120
note_on channel=0 note=55 velocity=49 time=0
note_on channel=0 note=46 velocity=0 time=111
note_on channel=0 note=43 velocity=0 time=0
note_on channel=0 note=51 velocity=0 time=0
note_on channel=0 note=49 velocity=0 time=0
<meta message set_tempo tempo=603015 time=9>
note_on channel=0 note=55 velocity=0 time=0
note_on channel=0 note=63 velocity=50 time=0
control_change channel=0 control=64 value=0 time=0
note_on channel=0 note=44 velocity=40 time=0
<meta message set_tempo tempo=600000 time=20>
<meta message set_tempo tempo=597015 time=8>
<meta message set_tempo tempo=594059 time=12>
<meta message set_tempo tempo=591133 time=8>
<meta message set_tempo tempo=588235 time=12>
control_change channel=0 control=64 value=127 time=18
<meta message set_tempo tempo=585366 time=2>
<meta message set_tempo tempo=582524 time=8>
<meta message set_tempo tempo=579710 time=12>
<meta message set_tempo tempo=576923 time=8>
<meta message set_tempo tempo=574163 time=12>
<meta message set_tempo tempo=571429 time=8>
<meta message set_tempo tempo=568720 time=20>
<meta message set_tempo tempo=566038 time=12>
note_on channel=0 note=60 velocity=40 time=0
<meta message set_tempo tempo=563380 time=8>
<meta message set_tempo tempo=560748 time=12>
<meta message set_tempo tempo=558140 time=8>
<meta message set_tempo tempo=555556 time=12>
<meta message set_tempo tempo=552995 time=20>
<meta message set_tempo tempo=550459 time=8>
<meta message set_tempo tempo=547945 time=12>
<meta message set_tempo tempo=545455 time=8>
<meta message set_tempo tempo=542986 time=12>
<meta message set_tempo tempo=540541 time=20>
<meta message set_tempo tempo=538117 time=8>
<meta message set_tempo tempo=535714 time=12>
<meta message set_tempo tempo=533333 time=8>
<meta message set_tempo tempo=530973 time=12>
note_on channel=0 note=60 velocity=0 time=0
note_on channel=0 note=56 velocity=40 time=0
<meta message set_tempo tempo=528634 time=8>
<meta message set_tempo tempo=526316 time=20>
<meta message set_tempo tempo=524017 time=12>
<meta message set_tempo tempo=521739 time=8>
<meta message set_tempo tempo=519481 time=12>
<meta message set_tempo tempo=517241 time=8>
<meta message set_tempo tempo=515021 time=12>
<meta message set_tempo tempo=512821 time=20>
<meta message set_tempo tempo=510638 time=8>
<meta message set_tempo tempo=508475 time=12>
<meta message set_tempo tempo=506329 time=8>
<meta message set_tempo tempo=504202 time=12>
<meta message set_tempo tempo=502092 time=8>
note_on channel=0 note=56 velocity=0 time=12
note_on channel=0 note=63 velocity=0 time=0
note_on channel=0 note=68 velocity=50 time=0
<meta message set_tempo tempo=428571 time=8>
control_change channel=0 control=64 value=0 time=6
control_change channel=0 control=64 value=127 time=78
note_on channel=0 note=63 velocity=40 time=68
note_on channel=0 note=63 velocity=0 time=160
note_on channel=0 note=60 velocity=40 time=0
note_on channel=0 note=60 velocity=0 time=160
note_on channel=0 note=68 velocity=0 time=0
note_on channel=0 note=44 velocity=0 time=0
note_on channel=0 note=67 velocity=50 time=0
note_on channel=0 note=48 velocity=40 time=0
control_change channel=0 control=64 value=0 time=16
control_change channel=0 control=64 value=127 time=97
note_on channel=0 note=63 velocity=40 time=47
note_on channel=0 note=63 velocity=0 time=160
note_on channel=0 note=60 velocity=40 time=0
note_on channel=0 note=60 velocity=0 time=160
note_on channel=0 note=48 velocity=0 time=0
note_on channel=0 note=67 velocity=0 time=0
note_on channel=0 note=65 velocity=50 time=0
note_on channel=0 note=49 velocity=40 time=0
<meta message set_tempo tempo=474308 time=8>
control_change channel=0 control=64 value=0 time=4
control_change channel=0 control=64 value=127 time=87
note_on channel=0 note=61 velocity=40 time=61
note_on channel=0 note=61 velocity=0 time=160
note_on channel=0 note=56 velocity=40 time=0
<meta message set_tempo tempo=428571 time=152>
note_on channel=0 note=56 velocity=0 time=8
note_on channel=0 note=49 velocity=0 time=0
note_on channel=0 note=65 velocity=0 time=0
note_on channel=0 note=73 velocity=50 time=0
note_on channel=0 note=46 velocity=40 time=0
control_change channel=0 control=64 value=0 time=13
control_change channel=0 control=64 value=127 time=107
note_on channel=0 note=65 velocity=40 time=40
note_on channel=0 note=65 velocity=0 time=160
note_on channel=0 note=61 velocity=40 time=0
<meta message set_tempo tempo=472441 time=152>
note_on channel=0 note=61 velocity=0 time=8
note_on channel=0 note=46 velocity=0 time=0
note_on channel=0 note=73 velocity=0 time=0
note_on channel=0 note=70 velocity=50 time=0
note_on channel=0 note=49 velocity=40 time=0
control_change channel=0 control=64 value=0 time=14
control_change channel=0 control=64 value=127 time=92
note_on channel=0 note=65 velocity=40 time=54
note_on channel=0 note=65 velocity=0 time=160
note_on channel=0 note=61 velocity=40 time=0
note_on channel=0 note=61 velocity=0 time=160
note_on channel=0 note=49 velocity=0 time=0
note_on channel=0 note=70 velocity=0 time=0
note_on channel=0 note=70 velocity=50 time=0
control_change channel=0 control=64 value=0 time=0
note_on channel=0 note=51 velocity=40 time=0
<meta message set_tempo tempo=430108 time=8>
control_change channel=0 control=64 value=127 time=91
note_on channel=0 note=63 velocity=40 time=61
note_on channel=0 note=63 velocity=0 time=160
note_on channel=0 note=61 velocity=40 time=0
note_on channel=0 note=61 velocity=0 time=160
note_on channel=0 note=70 velocity=0 time=0
note_on channel=0 note=68 velocity=50 time=0
control_change channel=0 control=64 value=0 time=12
control_change channel=0 control=64 value=127 time=94
note_on channel=0 note=63 velocity=40 time=54
note_on channel=0 note=63 velocity=0 time=160
note_on channel=0 note=60 velocity=40 time=0
<meta message set_tempo tempo=430108 time=152>
note_on channel=0 note=60 velocity=0 time=8
note_on channel=0 note=68 velocity=0 time=0
note_on channel=0 note=68 velocity=50 time=0
control_change channel=0 control=64 value=0 time=12
control_change channel=0 control=64 value=127 time=87
note_on channel=0 note=63 velocity=40 time=61
note_on channel=0 note=63 velocity=0 time=160
note_on channel=0 note=60 velocity=40 time=0
<meta message set_tempo tempo=401338 time=152>
note_on channel=0 note=60 velocity=0 time=8
note_on channel=0 note=68 velocity=0 time=0
note_on channel=0 note=51 velocity=0 time=0
note_on channel=0 note=68 velocity=50 time=0
note_on channel=0 note=39 velocity=40 time=0
control_change channel=0 control=64 value=0 time=5
<meta message set_tempo tempo=402685 time=19>
<meta message set_tempo tempo=404040 time=24>
<meta message set_tempo tempo=405405 time=24>
control_change channel=0 control=64 value=127 time=20
<meta message set_tempo tempo=406780 time=4>
<meta message set_tempo tempo=408163 time=24>
<meta message set_tempo tempo=409556 time=24>
note_on channel=0 note=63 velocity=40 time=16
<meta message set_tempo tempo=410959 time=8>
<meta message set_tempo tempo=412371 time=24>
<meta message set_tempo tempo=413793 time=24>
<meta message set_tempo tempo=415225 time=24>
<meta message set_tempo tempo=416667 time=24>
<meta message set_tempo tempo=418118 time=24>
<meta message set_tempo tempo=419580 time=24>
note_on channel=0 note=63 velocity=0 time=8
note_on channel=0 note=60 velocity=40 time=0
<meta message set_tempo tempo=421053 time=24>
<meta message set_tempo tempo=422535 time=24>
<meta message set_tempo tempo=424028 time=24>
<meta message set_tempo tempo=425532 time=24>
<meta message set_tempo tempo=427046 time=24>
<meta message set_tempo tempo=428571 time=24>
note_on channel=0 note=60 velocity=0 time=16
note_on channel=0 note=68 velocity=0 time=0
note_on channel=0 note=67 velocity=50 time=0
<meta message set_tempo tempo=430108 time=8>
control_change channel=0 control=64 value=0 time=6
<meta message set_tempo tempo=431655 time=18>
<meta message set_tempo tempo=433213 time=24>
<meta message set_tempo tempo=434783 time=24>
control_change channel=0 control=64 value=127 time=19
<meta message set_tempo tempo=436364 time=5>
<meta message set_tempo tempo=437956 time=24>
<meta message set_tempo tempo=439560 time=24>
note_on channel=0 note=63 velocity=40 time=8
<meta message set_tempo tempo=441176 time=24>
<meta message set_tempo tempo=442804 time=24>
<meta message set_tempo tempo=444444 time=24>
<meta message set_tempo tempo=446097 time=24>
<meta message set_tempo tempo=447761 time=24>
<meta message set_tempo tempo=449438 time=24>
note_on channel=0 note=63 velocity=0 time=16
note_on channel=0 note=58 velocity=40 time=0
<meta message set_tempo tempo=451128 time=8>
<meta message set_tempo tempo=452830 time=24>
<meta message set_tempo tempo=454545 time=24>
<meta message set_tempo tempo=456274 time=24>
<meta message set_tempo tempo=458015 time=24>
<meta message set_tempo tempo=459770 time=24>
<meta message set_tempo tempo=461538 time=24>
<meta message set_tempo tempo=521739 time=8>
note_on channel=0 note=58 velocity=0 time=0
note_on channel=0 note=67 velocity=0 time=0
note_on channel=0 note=67 velocity=50 time=0
control_change channel=0 control=64 value=0 time=12
control_change channel=0 control=64 value=127 time=94
note_on channel=0 note=63 velocity=40 time=54
note_on channel=0 note=63 velocity=0 time=160
note_on channel=0 note=58 velocity=40 time=0
<meta message set_tempo tempo=430108 time=160>
note_on channel=0 note=58 velocity=0 time=0
note_on channel=0 note=67 velocity=0 time=0
note_on channel=0 note=39 velocity=0 time=0
note_on channel=0 note=63 velocity=50 time=0
note_on channel=0 note=44 velocity=40 time=0
<meta message set_tempo tempo=428571 time=8>
control_change channel=0 control=64 value=0 time=4
control_change channel=0 control=64 value=127 time=66
note_on channel=0 note=60 velocity=40 time=82
note_on channel=0 note=60 velocity=0 time=160
note_on channel=0 note=56 velocity=40 time=0
note_on channel=0 note=56 velocity=0 time=160
note_on channel=0 note=63 velocity=0 time=0
note_on channel=0 note=68 velocity=50 time=0
control_change channel=0 control=64 value=0 time=15
control_change channel=0 control=64 value=127 time=112
note_on channel=0 note=63 velocity=40 time=33
note_on channel=0 note=63 velocity=0 time=160
note_on channel=0 note=60 velocity=40 time=0
note_on channel=0 note=60 velocity=0 time=160
note_on channel=0 note=68 velocity=0 time=0
note_on channel=0 note=44 velocity=0 time=0
note_on channel=0 note=67 velocity=50 time=0
note_on channel=0 note=48 velocity=40 time=0
control_change channel=0 control=64 value=0 time=13
control_change channel=0 control=64 value=127 time=107
note_on channel=0 note=63 velocity=40 time=40
note_on channel=0 note=63 velocity=0 time=160
note_on channel=0 note=60 velocity=40 time=0
note_on channel=0 note=60 velocity=0 time=160
note_on channel=0 note=48 velocity=0 time=0
note_on channel=0 note=67 velocity=0 time=0
note_on channel=0 note=65 velocity=50 time=0
note_on channel=0 note=49 velocity=40 time=0
<meta message set_tempo tempo=502092 time=8>
control_change channel=0 control=64 value=0 time=0
control_change channel=0 control=64 value=127 time=91
note_on channel=0 note=61 velocity=40 time=61
note_on channel=0 note=61 velocity=0 time=160
note_on channel=0 note=56 velocity=40 time=0
<meta message set_tempo tempo=428571 time=160>
note_on channel=0 note=56 velocity=0 time=0
note_on channel=0 note=49 velocity=0 time=0
note_on channel=0 note=65 velocity=0 time=0
note_on channel=0 note=77 velocity=50 time=0
note_on channel=0 note=46 velocity=40 time=0
control_change channel=0 control=64 value=0 time=13
control_change channel=0 control=64 value=127 time=121
note_on channel=0 note=68 velocity=40 time=26
note_on channel=0 note=68 velocity=0 time=160
note_on channel=0 note=65 velocity=40 time=0
note_on channel=0 note=65 velocity=0 time=160
note_on channel=0 note=46 velocity=0 time=0
note_on channel=0 note=77 velocity=0 time=0
note_on channel=0 note=73 velocity=50 time=0
note_on channel=0 note=58 velocity=40 time=0
note_on channel=0 note=49 velocity=40 time=0
control_change channel=0 control=64 value=0 time=11
control_change channel=0 control=64 value=127 time=81
note_on channel=0 note=65 velocity=40 time=68
note_on channel=0 note=65 velocity=0 time=160
note_on channel=0 note=61 velocity=40 time=0
<meta message set_tempo tempo=428571 time=160>
note_on channel=0 note=61 velocity=0 time=0
note_on channel=0 note=49 velocity=0 time=0
note_on channel=0 note=73 velocity=0 time=0
note_on channel=0 note=73 velocity=50 time=0
note_on channel=0 note=51 velocity=40 time=0
control_change channel=0 control=64 value=0 time=13
<meta message set_tempo tempo=430108 time=67>
control_change channel=0 control=64 value=127 time=12
<meta message set_tempo tempo=431655 time=60>
note_on channel=0 note=68 velocity=40 time=8
<meta message set_tempo tempo=433213 time=64>
<meta message set_tempo tempo=434783 time=72>
note_on channel=0 note=68 velocity=0 time=24
note_on channel=0 note=63 velocity=40 time=0
<meta message set_tempo tempo=436364 time=48>
<meta message set_tempo tempo=437956 time=72>
note_on channel=0 note=63 velocity=0 time=40
note_on channel=0 note=73 velocity=0 time=0
note_on channel=0 note=58 velocity=0 time=0
note_on channel=0 note=72 velocity=50 time=0
note_on channel=0 note=56 velocity=40 time=0
control_change channel=0 control=64 value=0 time=7
<meta message set_tempo tempo=439560 time=25>
control_change channel=0 control=64 value=127 time=46
<meta message set_tempo tempo=441176 time=26>
note_on channel=0 note=68 velocity=40 time=56
<meta message set_tempo tempo=442804 time=16>
<meta message set_tempo tempo=444444 time=72>
<meta message set_tempo tempo=446097 time=72>
note_on channel=0 note=68 velocity=0 time=0
note_on channel=0 note=63 velocity=40 time=0
<meta message set_tempo tempo=447761 time=72>
<meta message set_tempo tempo=461538 time=88>
note_on channel=0 note=63 velocity=0 time=0
note_on channel=0 note=56 velocity=0 time=0
note_on channel=0 note=72 velocity=0 time=0
note_on channel=0 note=72 velocity=50 time=0
note_on channel=0 note=56 velocity=40 time=0
control_change channel=0 control=64 value=0 time=10
control_change channel=0 control=64 value=127 time=61
note_on channel=0 note=68 velocity=40 time=89
note_on channel=0 note=68 velocity=0 time=160
note_on channel=0 note=63 velocity=40 time=0
<meta message set_tempo tempo=428571 time=152>
note_on channel=0 note=63 velocity=0 time=8
note_on channel=0 note=72 velocity=0 time=0
note_on channel=0 note=51 velocity=0 time=0
note_on channel=0 note=72 velocity=50 time=0
note_on channel=0 note=51 velocity=40 time=0
control_change channel=0 control=64 value=0 time=12
<meta message set_tempo tempo=430108 time=20>
<meta message set_tempo tempo=431655 time=32>
control_change channel=0 control=64 value=127 time=14
<meta message set_tempo tempo=433213 time=18>
<meta message set_tempo tempo=434783 time=32>
<meta message set_tempo tempo=436364 time=32>
note_on channel=0 note=63 velocity=40 time=0
<meta message set_tempo tempo=437956 time=40>
<meta message set_tempo tempo=439560 time=32>
<meta message set_tempo tempo=441176 time=32>
<meta message set_tempo tempo=442804 time=32>
note_on channel=0 note=63 velocity=0 time=24
note_on channel=0 note=61 velocity=40 time=0
<meta message set_tempo tempo=444444 time=8>
<meta message set_tempo tempo=446097 time=40>
<meta message set_tempo tempo=447761 time=32>
<meta message set_tempo tempo=449438 time=32>
<meta message set_tempo tempo=451128 time=32>
note_on channel=0 note=61 velocity=0 time=16
note_on channel=0 note=72 velocity=0 time=0
note_on channel=0 note=56 velocity=0 time=0
note_on channel=0 note=70 velocity=50 time=0
note_on channel=0 note=55 velocity=40 time=0
control_change channel=0 control=64 value=0 time=14
<meta message set_tempo tempo=452830 time=2>
<meta message set_tempo tempo=454545 time=40>
<meta message set_tempo tempo=456274 time=32>
control_change channel=0 control=64 value=127 time=25
<meta message set_tempo tempo=458015 time=7>
<meta message set_tempo tempo=459770 time=32>
note_on channel=0 note=63 velocity=40 time=8
<meta message set_tempo tempo=461538 time=24>
<meta message set_tempo tempo=463320 time=40>
<meta message set_tempo tempo=465116 time=32>
<meta message set_tempo tempo=466926 time=32>
<meta message set_tempo tempo=468750 time=32>
note_on channel=0 note=63 velocity=0 time=0
note_on channel=0 note=61 velocity=40 time=0
<meta message set_tempo tempo=470588 time=32>
<meta message set_tempo tempo=472441 time=40>
<meta message set_tempo tempo=474308 time=32>
<meta message set_tempo tempo=476190 time=32>
note_on channel=0 note=61 velocity=0 time=24
note_on channel=0 note=55 velocity=0 time=0
note_on channel=0 note=70 velocity=0 time=0
note_on channel=0 note=70 velocity=50 time=0
note_on channel=0 note=55 velocity=40 time=0
<meta message set_tempo tempo=478088 time=8>
control_change channel=0 control=64 value=0 time=4
<meta message set_tempo tempo=480000 time=28>
<meta message set_tempo tempo=481928 time=40>
control_change channel=0 control=64 value=127 time=12
<meta message set_tempo tempo=483871 time=20>
<meta message set_tempo tempo=485830 time=32>
note_on channel=0 note=63 velocity=40 time=16
<meta message set_tempo tempo=487805 time=16>
<meta message set_tempo tempo=489796 time=32>
<meta message set_tempo tempo=666667 time=32>
note_on channel=0 note=63 velocity=0 time=80
note_on channel=0 note=61 velocity=40 time=0
<meta message set_tempo tempo=400000 time=160>
note_on channel=0 note=61 velocity=0 time=0
note_on channel=0 note=55 velocity=0 time=0
note_on channel=0 note=70 velocity=0 time=0
note_on channel=0 note=51 velocity=0 time=0
note_on channel=0 note=72 velocity=48 time=0
note_on channel=0 note=44 velocity=48 time=0
control_change channel=0 control=91 value=125 time=0
control_change channel=0 control=64 value=0 time=3
control_change channel=0 control=91 value=126 time=5
note_on channel=0 note=72 velocity=0 time=112
note_on channel=0 note=75 velocity=40 time=0
control_change channel=0 control=64 value=127 time=7
note_on channel=0 note=75 velocity=0 time=113
note_on channel=0 note=72 velocity=48 time=0
note_on channel=0 note=72 velocity=0 time=120
note_on channel=0 note=44 velocity=0 time=0
note_on channel=0 note=68 velocity=40 time=0
note_on channel=0 note=68 velocity=0 time=90
note_on channel=0 note=68 velocity=48 time=30
note_on channel=0 note=54 velocity=36 time=0
note_on channel=0 note=60 velocity=39 time=0
note_on channel=0 note=56 velocity=36 time=0
note_on channel=0 note=68 velocity=0 time=120
note_on channel=0 note=72 velocity=40 time=0
note_on channel=0 note=72 velocity=0 time=120
note_on channel=0 note=68 velocity=48 time=0
note_on channel=0 note=68 velocity=0 time=120
note_on channel=0 note=63 velocity=40 time=0
<meta message set_tempo tempo=428571 time=120>
note_on channel=0 note=63 velocity=0 time=0
note_on channel=0 note=68 velocity=48 time=0
control_change channel=0 control=64 value=0 time=226
note_on channel=0 note=68 velocity=0 time=14
<meta message set_tempo tempo=400000 time=240>
note_on channel=0 note=54 velocity=0 time=0
note_on channel=0 note=60 velocity=0 time=0
note_on channel=0 note=56 velocity=0 time=0
note_on channel=0 note=73 velocity=48 time=0
note_on channel=0 note=49 velocity=48 time=0
control_change channel=0 control=64 value=127 time=20
note_on channel=0 note=73 velocity=0 time=100
note_on channel=0 note=77 velocity=40 time=0
note_on channel=0 note=77 velocity=0 time=120
note_on channel=0 note=73 velocity=48 time=0
note_on channel=0 note=73 velocity=0 time=120
note_on channel=0 note=49 velocity=0 time=0
note_on channel=0 note=68 velocity=40 time=0
note_on channel=0 note=68 velocity=0 time=90
note_on channel=0 note=68 velocity=48 time=30
note_on channel=0 note=61 velocity=35 time=0
note_on channel=0 note=56 velocity=32 time=0
note_on channel=0 note=53 velocity=32 time=0
note_on channel=0 note=68 velocity=0 time=120
note_on channel=0 note=73 velocity=40 time=0
note_on channel=0 note=73 velocity=0 time=120
note_on channel=0 note=68 velocity=48 time=0
note_on channel=0 note=68 velocity=0 time=120
note_on channel=0 note=65 velocity=40 time=0
<meta message set_tempo tempo=428571 time=120>
note_on channel=0 note=65 velocity=0 time=0
note_on channel=0 note=68 velocity=48 time=0
control_change channel=0 control=64 value=0 time=205
note_on channel=0 note=68 velocity=0 time=35
<meta message set_tempo tempo=400000 time=232>
note_on channel=0 note=61 velocity=0 time=8
note_on channel=0 note=56 velocity=0 time=0
note_on channel=0 note=53 velocity=0 time=0
note_on channel=0 note=75 velocity=48 time=0
note_on channel=0 note=39 velocity=48 time=0
control_change channel=0 control=64 value=127 time=36
note_on channel=0 note=75 velocity=0 time=84
note_on channel=0 note=79 velocity=40 time=0
note_on channel=0 note=79 velocity=0 time=120
note_on channel=0 note=75 velocity=48 time=0
note_on channel=0 note=75 velocity=0 time=120
note_on channel=0 note=39 velocity=0 time=0
note_on channel=0 note=70 velocity=40 time=0
note_on channel=0 note=70 velocity=0 time=90
note_on channel=0 note=70 velocity=48 time=30
note_on channel=0 note=51 velocity=34 time=0
note_on channel=0 note=61 velocity=37 time=0
note_on channel=0 note=58 velocity=34 time=0
note_on channel=0 note=70 velocity=0 time=120
note_on channel=0 note=75 velocity=40 time=0
note_on channel=0 note=75 velocity=0 time=120
note_on channel=0 note=70 velocity=48 time=0
note_on channel=0 note=70 velocity=0 time=120
note_on channel=0 note=67 velocity=40 time=0
note_on channel=0 note=67 velocity=0 time=120
note_on channel=0 note=70 velocity=48 time=0
<meta message set_tempo tempo=430108 time=8>
control_change channel=0 control=64 value=0 time=119
note_on channel=0 note=70 velocity=0 time=113
<meta message set_tempo tempo=401338 time=240>
note_on channel=0 note=51 velocity=0 time=0
note_on channel=0 note=61 velocity=0 time=0
note_on channel=0 note=58 velocity=0 time=0
note_on channel=0 note=75 velocity=48 time=0
note_on channel=0 note=44 velocity=48 time=0
control_change channel=0 control=64 value=127 time=16
note_on channel=0 note=75 velocity=0 time=104
note_on channel=0 note=80 velocity=40 time=0
note_on channel=0 note=80 velocity=0 time=120
note_on channel=0 note=75 velocity=48 time=0
note_on channel=0 note=75 velocity=0 time=120
note_on channel=0 note=44 velocity=0 time=0
note_on channel=0 note=72 velocity=40 time=0
note_on channel=0 note=72 velocity=0 time=90
note_on channel=0 note=72 velocity=48 time=30
note_on channel=0 note=60 velocity=39 time=0
note_on channel=0 note=56 velocity=36 time=0
note_on channel=0 note=51 velocity=36 time=0
note_on channel=0 note=72 velocity=0 time=120
note_on channel=0 note=75 velocity=40 time=0
note_on channel=0 note=75 velocity=0 time=120
note_on channel=0 note=72 velocity=48 time=0
note_on channel=0 note=72 velocity=0 time=120
note_on channel=0 note=68 velocity=40 time=0
<meta message set_tempo tempo=461538 time=120>
note_on channel=0 note=68 velocity=0 time=0
note_on channel=0 note=72 velocity=48 time=0
control_change channel=0 control=64 value=0 time=184
note_on channel=0 note=72 velocity=0 time=56
note_on channel=0 note=60 velocity=0 time=240
note_on channel=0 note=56 velocity=0 time=0
note_on channel=0 note=51 velocity=0 time=0
note_on channel=0 note=84 velocity=60 time=0
note_on channel=0 note=44 velocity=60 time=0
<meta message set_tempo tempo=401338 time=8>
control_change channel=0 control=64 value=127 time=12
note_on channel=0 note=84 velocity=0 time=100
note_on channel=0 note=87 velocity=51 time=0
note_on channel=0 note=87 velocity=0 time=120
note_on channel=0 note=84 velocity=60 time=0
note_on channel=0 note=84 velocity=0 time=120
note_on channel=0 note=44 velocity=0 time=0
note_on channel=0 note=80 velocity=51 time=0
note_on channel=0 note=80 velocity=0 time=90
note_on channel=0 note=80 velocity=60 time=30
note_on channel=0 note=54 velocity=45 time=0
note_on channel=0 note=60 velocity=49 time=0
note_on channel=0 note=56 velocity=45 time=0
note_on channel=0 note=80 velocity=0 time=120
note_on channel=0 note=84 velocity=51 time=0
note_on channel=0 note=84 velocity=0 time=120
note_on channel=0 note=80 velocity=60 time=0
note_on channel=0 note=80 velocity=0 time=120
note_on channel=0 note=75 velocity=51 time=0
<meta message set_tempo tempo=428571 time=120>
note_on channel=0 note=75 velocity=0 time=0
note_on channel=0 note=80 velocity=60 time=0
control_change channel=0 control=64 value=0 time=148
note_on channel=0 note=80 velocity=0 time=92
<meta message set_tempo tempo=402685 time=240>
note_on channel=0 note=54 velocity=0 time=0
note_on channel=0 note=60 velocity=0 time=0
note_on channel=0 note=56 velocity=0 time=0
note_on channel=0 note=85 velocity=72 time=0
note_on channel=0 note=49 velocity=72 time=0
control_change channel=0 control=64 value=127 time=44
note_on channel=0 note=85 velocity=0 time=76
note_on channel=0 note=89 velocity=61 time=0
note_on channel=0 note=89 velocity=0 time=120
note_on channel=0 note=85 velocity=72 time=0
note_on channel=0 note=85 velocity=0 time=120
note_on channel=0 note=49 velocity=0 time=0
note_on channel=0 note=80 velocity=61 time=0
note_on channel=0 note=80 velocity=0 time=90
note_on channel=0 note=80 velocity=72 time=30
note_on channel=0 note=56 velocity=57 time=0
note_on channel=0 note=61 velocity=62 time=0
note_on channel=0 note=53 velocity=57 time=0
note_on channel=0 note=80 velocity=0 time=120
note_on channel=0 note=85 velocity=61 time=0
note_on channel=0 note=85 velocity=0 time=120
note_on channel=0 note=80 velocity=72 time=0
note_on channel=0 note=80 velocity=0 time=120
note_on channel=0 note=77 velocity=61 time=0
<meta message set_tempo tempo=428571 time=120>
note_on channel=0 note=77 velocity=0 time=0
note_on channel=0 note=80 velocity=72 time=0
control_change channel=0 control=64 value=0 time=170
note_on channel=0 note=80 velocity=0 time=70
<meta message set_tempo tempo=401338 time=240>
note_on channel=0 note=56 velocity=0 time=0
note_on channel=0 note=61 velocity=0 time=0
note_on channel=0 note=53 velocity=0 time=0
note_on channel=0 note=87 velocity=84 time=0
note_on channel=0 note=39 velocity=84 time=0
control_change channel=0 control=64 value=127 time=44
note_on channel=0 note=87 velocity=0 time=76
note_on channel=0 note=91 velocity=71 time=0
note_on channel=0 note=91 velocity=0 time=120
note_on channel=0 note=87 velocity=84 time=0
note_on channel=0 note=87 velocity=0 time=120
note_on channel=0 note=39 velocity=0 time=0
note_on channel=0 note=82 velocity=71 time=0
note_on channel=0 note=82 velocity=0 time=90
note_on channel=0 note=82 velocity=84 time=30
note_on channel=0 note=61 velocity=73 time=0
note_on channel=0 note=58 velocity=68 time=0
note_on channel=0 note=51 velocity=68 time=0
note_on channel=0 note=82 velocity=0 time=120
note_on channel=0 note=87 velocity=71 time=0
note_on channel=0 note=87 velocity=0 time=120
note_on channel=0 note=82 velocity=84 time=0
note_on channel=0 note=82 velocity=0 time=120
note_on channel=0 note=79 velocity=71 time=0
<meta message set_tempo tempo=428571 time=120>
note_on channel=0 note=79 velocity=0 time=0
note_on channel=0 note=82 velocity=84 time=0
control_change channel=0 control=64 value=0 time=148
note_on channel=0 note=82 velocity=0 time=92
<meta message set_tempo tempo=400000 time=240>
note_on channel=0 note=61 velocity=0 time=0
note_on channel=0 note=58 velocity=0 time=0
note_on channel=0 note=51 velocity=0 time=0
note_on channel=0 note=87 velocity=93 time=0
note_on channel=0 note=44 velocity=88 time=0
control_change channel=0 control=64 value=127 time=48
note_on channel=0 note=87 velocity=0 time=72
note_on channel=0 note=92 velocity=79 time=0
note_on channel=0 note=92 velocity=0 time=120
note_on channel=0 note=87 velocity=93 time=0
note_on channel=0 note=87 velocity=0 time=120
note_on channel=0 note=44 velocity=0 time=0
note_on channel=0 note=84 velocity=79 time=0
note_on channel=0 note=84 velocity=0 time=90
note_on channel=0 note=84 velocity=93 time=30
note_on channel=0 note=60 velocity=76 time=0
note_on channel=0 note=56 velocity=70 time=0
note_on channel=0 note=51 velocity=70 time=0
note_on channel=0 note=84 velocity=0 time=120
note_on channel=0 note=87 velocity=79 time=0
note_on channel=0 note=87 velocity=0 time=120
note_on channel=0 note=84 velocity=93 time=0
note_on channel=0 note=84 velocity=0 time=120
note_on channel=0 note=80 velocity=79 time=0
<meta message set_tempo tempo=463320 time=112>
note_on channel=0 note=80 velocity=0 time=8
note_on channel=0 note=84 velocity=93 time=0
control_change channel=0 control=64 value=0 time=184
note_on channel=0 note=84 velocity=0 time=56
note_on channel=0 note=60 velocity=0 time=240
note_on channel=0 note=56 velocity=0 time=0
note_on channel=0 note=51 velocity=0 time=0
note_on channel=0 note=72 velocity=48 time=0
note_on channel=0 note=51 velocity=60 time=0
note_on channel=0 note=44 velocity=48 time=0
<meta message set_tempo tempo=428571 time=4>
control_change channel=0 control=64 value=127 time=24
note_on channel=0 note=72 velocity=0 time=92
note_on channel=0 note=75 velocity=40 time=0
note_on channel=0 note=75 velocity=0 time=120
note_on channel=0 note=72 velocity=48 time=0
note_on channel=0 note=72 velocity=0 time=120
note_on channel=0 note=68 velocity=40 time=0
note_on channel=0 note=68 velocity=0 time=90
<meta message set_tempo tempo=400000 time=18>
note_on channel=0 note=51 velocity=0 time=12
note_on channel=0 note=68 velocity=48 time=0
note_on channel=0 note=56 velocity=72 time=0
note_on channel=0 note=68 velocity=0 time=120
note_on channel=0 note=72 velocity=40 time=0
note_on channel=0 note=72 velocity=0 time=120
note_on channel=0 note=68 velocity=48 time=0
note_on channel=0 note=68 velocity=0 time=120
note_on channel=0 note=63 velocity=40 time=0
note_on channel=0 note=63 velocity=0 time=120
note_on channel=0 note=68 velocity=48 time=0
note_on channel=0 note=68 velocity=0 time=240
note_on channel=0 note=56 velocity=0 time=0
note_on channel=0 note=55 velocity=60 time=0
<meta message set_tempo tempo=427046 time=240>
note_on channel=0 note=55 velocity=0 time=0
note_on channel=0 note=44 velocity=0 time=0
note_on channel=0 note=73 velocity=48 time=0
note_on channel=0 note=53 velocity=60 time=0
note_on channel=0 note=49 velocity=48 time=0
control_change channel=0 control=64 value=0 time=6
note_on channel=0 note=73 velocity=0 time=114
note_on channel=0 note=77 velocity=40 time=0
control_change channel=0 control=64 value=127 time=36
note_on channel=0 note=77 velocity=0 time=84
note_on channel=0 note=73 velocity=48 time=0
note_on channel=0 note=73 velocity=0 time=120
note_on channel=0 note=68 velocity=40 time=0
note_on channel=0 note=68 velocity=0 time=90
<meta message set_tempo tempo=400000 time=30>
note_on channel=0 note=53 velocity=0 time=0
note_on channel=0 note=68 velocity=48 time=0
note_on channel=0 note=61 velocity=72 time=0
note_on channel=0 note=68 velocity=0 time=120
note_on channel=0 note=73 velocity=40 time=0
note_on channel=0 note=73 velocity=0 time=120
note_on channel=0 note=68 velocity=48 time=0
note_on channel=0 note=68 velocity=0 time=120
note_on channel=0 note=65 velocity=40 time=0
note_on channel=0 note=65 velocity=0 time=120
note_on channel=0 note=68 velocity=48 time=0
note_on channel=0 note=68 velocity=0 time=240
note_on channel=0 note=61 velocity=0 time=0
note_on channel=0 note=60 velocity=60 time=0
note_on channel=0 note=60 velocity=0 time=240
note_on channel=0 note=49 velocity=0 time=0
note_on channel=0 note=75 velocity=48 time=0
note_on channel=0 note=58 velocity=60 time=0
note_on channel=0 note=51 velocity=48 time=0
control_change channel=0 control=64 value=0 time=6
<meta message set_tempo tempo=430108 time=2>
note_on channel=0 note=75 velocity=0 time=112
note_on channel=0 note=79 velocity=40 time=0
control_change channel=0 control=64 value=127 time=14
note_on channel=0 note=79 velocity=0 time=106
note_on channel=0 note=75 velocity=48 time=0
note_on channel=0 note=75 velocity=0 time=120
note_on channel=0 note=70 velocity=40 time=0
note_on channel=0 note=70 velocity=0 time=90
<meta message set_tempo tempo=400000 time=22>
note_on channel=0 note=58 velocity=0 time=8
note_on channel=0 note=70 velocity=48 time=0
note_on channel=0 note=63 velocity=72 time=0
note_on channel=0 note=70 velocity=0 time=120
note_on channel=0 note=75 velocity=40 time=0
note_on channel=0 note=75 velocity=0 time=120
note_on channel=0 note=70 velocity=48 time=0
note_on channel=0 note=70 velocity=0 time=120
note_on channel=0 note=67 velocity=40 time=0
note_on channel=0 note=67 velocity=0 time=120
note_on channel=0 note=70 velocity=48 time=0
note_on channel=0 note=70 velocity=0 time=240
note_on channel=0 note=63 velocity=0 time=0
note_on channel=0 note=61 velocity=60 time=0
<meta message set_tempo tempo=428571 time=240>
note_on channel=0 note=61 velocity=0 time=0
note_on channel=0 note=51 velocity=0 time=0
note_on channel=0 note=75 velocity=48 time=0
note_on channel=0 note=60 velocity=60 time=0
note_on channel=0 note=56 velocity=48 time=0
control_change channel=0 control=64 value=0 time=8
note_on channel=0 note=75 velocity=0 time=112
note_on channel=0 note=80 velocity=40 time=0
control_change channel=0 control=64 value=127 time=14
note_on channel=0 note=80 velocity=0 time=106
note_on channel=0 note=75 velocity=48 time=0
note_on channel=0 note=75 velocity=0 time=120
note_on channel=0 note=72 velocity=40 time=0
note_on channel=0 note=72 velocity=0 time=90
note_on channel=0 note=60 velocity=0 time=30
note_on channel=0 note=72 velocity=48 time=0
note_on channel=0 note=63 velocity=72 time=0
<meta message set_tempo tempo=400000 time=8>
note_on channel=0 note=72 velocity=0 time=112
note_on channel=0 note=75 velocity=40 time=0
note_on channel=0 note=75 velocity=0 time=120
note_on channel=0 note=72 velocity=48 time=0
note_on channel=0 note=72 velocity=0 time=120
note_on channel=0 note=68 velocity=40 time=0
note_on channel=0 note=68 velocity=0 time=120
note_on channel=0 note=72 velocity=48 time=0
note_on channel=0 note=72 velocity=0 time=240
control_change channel=0 control=64 value=0 time=7
<meta message set_tempo tempo=483871 time=233>
note_on channel=0 note=63 velocity=0 time=0
note_on channel=0 note=56 velocity=0 time=0
note_on channel=0 note=84 velocity=68 time=0
control_change channel=0 control=64 value=127 time=0
note_on channel=0 note=51 velocity=80 time=0
note_on channel=0 note=44 velocity=68 time=0
note_on channel=0 note=84 velocity=0 time=120
note_on channel=0 note=87 velocity=57 time=0
note_on channel=0 note=87 velocity=0 time=120
note_on channel=0 note=84 velocity=68 time=0
note_on channel=0 note=84 velocity=0 time=120
note_on channel=0 note=80 velocity=57 time=0
note_on channel=0 note=80 velocity=0 time=90
<meta message set_tempo tempo=398671 time=22>
note_on channel=0 note=51 velocity=0 time=8
note_on channel=0 note=80 velocity=68 time=0
note_on channel=0 note=56 velocity=79 time=0
note_on channel=0 note=80 velocity=0 time=120
note_on channel=0 note=84 velocity=57 time=0
note_on channel=0 note=84 velocity=0 time=120
note_on channel=0 note=80 velocity=68 time=0
note_on channel=0 note=80 velocity=0 time=120
note_on channel=0 note=75 velocity=57 time=0
note_on channel=0 note=75 velocity=0 time=120
note_on channel=0 note=80 velocity=68 time=0
note_on channel=0 note=80 velocity=0 time=240
note_on channel=0 note=56 velocity=0 time=0
note_on channel=0 note=55 velocity=68 time=0
note_on channel=0 note=55 velocity=0 time=240
note_on channel=0 note=44 velocity=0 time=0
note_on channel=0 note=85 velocity=68 time=0
note_on channel=0 note=53 velocity=75 time=0
note_on channel=0 note=49 velocity=63 time=0
<meta message set_tempo tempo=436364 time=8>
control_change channel=0 control=64 value=0 time=0
control_change channel=0 control=64 value=127 time=98
note_on channel=0 note=85 velocity=0 time=14
note_on channel=0 note=89 velocity=57 time=0
note_on channel=0 note=89 velocity=0 time=120
note_on channel=0 note=85 velocity=68 time=0
note_on channel=0 note=85 velocity=0 time=120
note_on channel=0 note=80 velocity=57 time=0
note_on channel=0 note=80 velocity=0 time=90
<meta message set_tempo tempo=400000 time=30>
note_on channel=0 note=53 velocity=0 time=0
note_on channel=0 note=80 velocity=68 time=0
note_on channel=0 note=61 velocity=79 time=0
note_on channel=0 note=80 velocity=0 time=120
note_on channel=0 note=85 velocity=57 time=0
note_on channel=0 note=85 velocity=0 time=120
note_on channel=0 note=80 velocity=68 time=0
note_on channel=0 note=80 velocity=0 time=120
note_on channel=0 note=77 velocity=57 time=0
note_on channel=0 note=77 velocity=0 time=120
note_on channel=0 note=80 velocity=68 time=0
note_on channel=0 note=80 velocity=0 time=240
note_on channel=0 note=61 velocity=0 time=0
note_on channel=0 note=60 velocity=68 time=0
note_on channel=0 note=60 velocity=0 time=240
note_on channel=0 note=49 velocity=0 time=0
note_on channel=0 note=87 velocity=68 time=0
note_on channel=0 note=58 velocity=78 time=0
note_on channel=0 note=51 velocity=66 time=0
control_change channel=0 control=64 value=0 time=6
<meta message set_tempo tempo=421053 time=2>
note_on channel=0 note=87 velocity=0 time=112
note_on channel=0 note=91 velocity=57 time=0
control_change channel=0 control=64 value=127 time=85
note_on channel=0 note=91 velocity=0 time=35
note_on channel=0 note=87 velocity=68 time=0
note_on channel=0 note=87 velocity=0 time=120
note_on channel=0 note=82 velocity=57 time=0
note_on channel=0 note=82 velocity=0 time=90
<meta message set_tempo tempo=400000 time=30>
note_on channel=0 note=58 velocity=0 time=0
note_on channel=0 note=82 velocity=68 time=0
note_on channel=0 note=63 velocity=85 time=0
note_on channel=0 note=82 velocity=0 time=120
note_on channel=0 note=87 velocity=57 time=0
note_on channel=0 note=87 velocity=0 time=120
note_on channel=0 note=82 velocity=68 time=0
note_on channel=0 note=82 velocity=0 time=120
note_on channel=0 note=79 velocity=57 time=0
note_on channel=0 note=79 velocity=0 time=120
note_on channel=0 note=82 velocity=68 time=0
note_on channel=0 note=82 velocity=0 time=240
note_on channel=0 note=63 velocity=0 time=0
note_on channel=0 note=61 velocity=68 time=0
note_on channel=0 note=61 velocity=0 time=240
note_on channel=0 note=51 velocity=0 time=0
note_on channel=0 note=87 velocity=82 time=0
note_on channel=0 note=60 velocity=77 time=0
note_on channel=0 note=56 velocity=65 time=0
control_change channel=0 control=64 value=0 time=6
<meta message set_tempo tempo=412371 time=2>
note_on channel=0 note=87 velocity=0 time=112
note_on channel=0 note=92 velocity=69 time=0
control_change channel=0 control=64 value=127 time=7
note_on channel=0 note=92 velocity=0 time=113
note_on channel=0 note=87 velocity=82 time=0
note_on channel=0 note=87 velocity=0 time=120
note_on channel=0 note=84 velocity=69 time=0
note_on channel=0 note=84 velocity=0 time=90
<meta message set_tempo tempo=400000 time=22>
note_on channel=0 note=60 velocity=0 time=8
note_on channel=0 note=84 velocity=82 time=0
note_on channel=0 note=63 velocity=85 time=0
note_on channel=0 note=84 velocity=0 time=120
note_on channel=0 note=87 velocity=69 time=0
note_on channel=0 note=87 velocity=0 time=120
note_on channel=0 note=84 velocity=82 time=0
note_on channel=0 note=84 velocity=0 time=120
note_on channel=0 note=80 velocity=69 time=0
note_on channel=0 note=80 velocity=0 time=120
note_on channel=0 note=84 velocity=82 time=0
note_on channel=0 note=84 velocity=0 time=240
note_on channel=0 note=63 velocity=0 time=0
note_on channel=0 note=60 velocity=77 time=0
<meta message set_tempo tempo=409556 time=240>
note_on channel=0 note=60 velocity=0 time=0
note_on channel=0 note=56 velocity=0 time=0
note_on channel=0 note=87 velocity=86 time=0
note_on channel=0 note=58 velocity=82 time=0
note_on channel=0 note=51 velocity=62 time=0
control_change channel=0 control=64 value=0 time=7
note_on channel=0 note=87 velocity=0 time=113
note_on channel=0 note=91 velocity=72 time=0
control_change channel=0 control=64 value=127 time=50
note_on channel=0 note=91 velocity=0 time=70
note_on channel=0 note=87 velocity=86 time=0
note_on channel=0 note=87 velocity=0 time=120
note_on channel=0 note=82 velocity=72 time=0
note_on channel=0 note=82 velocity=0 time=90
<meta message set_tempo tempo=400000 time=30>
note_on channel=0 note=58 velocity=0 time=0
note_on channel=0 note=82 velocity=86 time=0
note_on channel=0 note=63 velocity=90 time=0
note_on channel=0 note=82 velocity=0 time=120
note_on channel=0 note=87 velocity=72 time=0
note_on channel=0 note=87 velocity=0 time=120
note_on channel=0 note=82 velocity=86 time=0
note_on channel=0 note=82 velocity=0 time=120
note_on channel=0 note=79 velocity=72 time=0
note_on channel=0 note=79 velocity=0 time=120
note_on channel=0 note=82 velocity=86 time=0
note_on channel=0 note=82 velocity=0 time=240
note_on channel=0 note=63 velocity=0 time=0
note_on channel=0 note=61 velocity=82 time=0
note_on channel=0 note=61 velocity=0 time=240
note_on channel=0 note=51 velocity=0 time=0
note_on channel=0 note=87 velocity=92 time=0
note_on channel=0 note=60 velocity=90 time=0
note_on channel=0 note=56 velocity=69 time=0
control_change channel=0 control=64 value=0 time=7
<meta message set_tempo tempo=410959 time=1>
control_change channel=0 control=64 value=127 time=77
note_on channel=0 note=87 velocity=0 time=35
note_on channel=0 note=92 velocity=77 time=0
note_on channel=0 note=92 velocity=0 time=120
note_on channel=0 note=87 velocity=92 time=0
note_on channel=0 note=87 velocity=0 time=120
note_on channel=0 note=84 velocity=77 time=0
note_on channel=0 note=84 velocity=0 time=90
<meta message set_tempo tempo=400000 time=22>
note_on channel=0 note=60 velocity=0 time=8
note_on channel=0 note=84 velocity=92 time=0
note_on channel=0 note=63 velocity=94 time=0
note_on channel=0 note=84 velocity=0 time=120
note_on channel=0 note=87 velocity=77 time=0
note_on channel=0 note=87 velocity=0 time=120
note_on channel=0 note=84 velocity=92 time=0
note_on channel=0 note=84 velocity=0 time=120
note_on channel=0 note=80 velocity=77 time=0
note_on channel=0 note=80 velocity=0 time=120
note_on channel=0 note=84 velocity=92 time=0
note_on channel=0 note=84 velocity=0 time=240
note_on channel=0 note=63 velocity=0 time=0
note_on channel=0 note=60 velocity=90 time=0
note_on channel=0 note=60 velocity=0 time=240
note_on channel=0 note=56 velocity=0 time=0
note_on channel=0 note=87 velocity=98 time=0
note_on channel=0 note=58 velocity=94 time=0
note_on channel=0 note=51 velocity=79 time=0
control_change channel=0 control=64 value=0 time=6
<meta message set_tempo tempo=412371 time=2>
note_on channel=0 note=87 velocity=0 time=112
note_on channel=0 note=91 velocity=83 time=0
control_change channel=0 control=64 value=127 time=28
note_on channel=0 note=91 velocity=0 time=92
note_on channel=0 note=87 velocity=98 time=0
note_on channel=0 note=87 velocity=0 time=120
note_on channel=0 note=82 velocity=83 time=0
note_on channel=0 note=82 velocity=0 time=90
<meta message set_tempo tempo=400000 time=30>
note_on channel=0 note=58 velocity=0 time=0
note_on channel=0 note=82 velocity=98 time=0
note_on channel=0 note=63 velocity=96 time=0
note_on channel=0 note=82 velocity=0 time=120
note_on channel=0 note=87 velocity=83 time=0
note_on channel=0 note=87 velocity=0 time=120
note_on channel=0 note=82 velocity=98 time=0
note_on channel=0 note=82 velocity=0 time=120
note_on channel=0 note=79 velocity=83 time=0
note_on channel=0 note=79 velocity=0 time=120
note_on channel=0 note=82 velocity=98 time=0
note_on channel=0 note=82 velocity=0 time=240
note_on channel=0 note=63 velocity=0 time=0
note_on channel=0 note=61 velocity=91 time=0
note_on channel=0 note=61 velocity=0 time=240
note_on channel=0 note=51 velocity=0 time=0
note_on channel=0 note=87 velocity=98 time=0
note_on channel=0 note=56 velocity=83 time=0
note_on channel=0 note=60 velocity=98 time=0
control_change channel=0 control=64 value=0 time=4
<meta message set_tempo tempo=385852 time=8>
note_on channel=0 note=87 velocity=0 time=108
note_on channel=0 note=92 velocity=83 time=0
control_change channel=0 control=64 value=127 time=7
note_on channel=0 note=92 velocity=0 time=113
note_on channel=0 note=87 velocity=98 time=0
note_on channel=0 note=87 velocity=0 time=120
note_on channel=0 note=84 velocity=83 time=0
<meta message set_tempo tempo=387097 time=12>
note_on channel=0 note=84 velocity=0 time=78
note_on channel=0 note=60 velocity=0 time=30
note_on channel=0 note=56 velocity=0 time=0
note_on channel=0 note=84 velocity=98 time=0
note_on channel=0 note=84 velocity=0 time=120
note_on channel=0 note=87 velocity=83 time=0
<meta message set_tempo tempo=388350 time=92>
note_on channel=0 note=87 velocity=0 time=28
note_on channel=0 note=84 velocity=98 time=0
note_on channel=0 note=84 velocity=0 time=120
note_on channel=0 note=80 velocity=83 time=0
note_on channel=0 note=80 velocity=0 time=90
note_on channel=0 note=80 velocity=98 time=30
<meta message set_tempo tempo=389610 time=52>
note_on channel=0 note=80 velocity=0 time=68
note_on channel=0 note=84 velocity=83 time=0
note_on channel=0 note=84 velocity=0 time=120
note_on channel=0 note=80 velocity=98 time=0
note_on channel=0 note=80 velocity=0 time=120
note_on channel=0 note=75 velocity=83 time=0
<meta message set_tempo tempo=390879 time=12>
note_on channel=0 note=75 velocity=0 time=78
note_on channel=0 note=75 velocity=98 time=30
note_on channel=0 note=75 velocity=0 time=120
note_on channel=0 note=80 velocity=83 time=0
<meta message set_tempo tempo=392157 time=92>
note_on channel=0 note=80 velocity=0 time=28
note_on channel=0 note=75 velocity=98 time=0
note_on channel=0 note=75 velocity=0 time=120
note_on channel=0 note=72 velocity=83 time=0
note_on channel=0 note=72 velocity=0 time=90
note_on channel=0 note=72 velocity=98 time=30
<meta message set_tempo tempo=393443 time=52>
note_on channel=0 note=72 velocity=0 time=68
note_on channel=0 note=75 velocity=83 time=0
note_on channel=0 note=75 velocity=0 time=120
note_on channel=0 note=72 velocity=98 time=0
note_on channel=0 note=72 velocity=0 time=120
note_on channel=0 note=68 velocity=83 time=0
<meta message set_tempo tempo=394737 time=12>
note_on channel=0 note=68 velocity=0 time=78
note_on channel=0 note=68 velocity=98 time=30
note_on channel=0 note=68 velocity=0 time=120
note_on channel=0 note=72 velocity=83 time=0
<meta message set_tempo tempo=396040 time=92>
note_on channel=0 note=72 velocity=0 time=28
note_on channel=0 note=68 velocity=98 time=0
note_on channel=0 note=68 velocity=0 time=120
note_on channel=0 note=63 velocity=83 time=0
note_on channel=0 note=63 velocity=0 time=90
note_on channel=0 note=75 velocity=98 time=30
note_on channel=0 note=63 velocity=98 time=0
control_change channel=0 control=64 value=0 time=3
<meta message set_tempo tempo=390879 time=9>
note_on channel=0 note=75 velocity=0 time=108
note_on channel=0 note=80 velocity=83 time=0
control_change channel=0 control=64 value=127 time=7
<meta message set_tempo tempo=392157 time=85>
note_on channel=0 note=80 velocity=0 time=28
note_on channel=0 note=63 velocity=0 time=0
note_on channel=0 note=75 velocity=97 time=0
note_on channel=0 note=75 velocity=0 time=120
note_on channel=0 note=72 velocity=82 time=0
<meta message set_tempo tempo=393443 time=12>
note_on channel=0 note=72 velocity=0 time=78
note_on channel=0 note=72 velocity=96 time=30
note_on channel=0 note=60 velocity=96 time=0
<meta message set_tempo tempo=394737 time=92>
note_on channel=0 note=72 velocity=0 time=28
note_on channel=0 note=75 velocity=80 time=0
note_on channel=0 note=75 velocity=0 time=120
note_on channel=0 note=60 velocity=0 time=0
note_on channel=0 note=72 velocity=94 time=0
<meta message set_tempo tempo=396040 time=12>
note_on channel=0 note=72 velocity=0 time=108
note_on channel=0 note=68 velocity=79 time=0
note_on channel=0 note=68 velocity=0 time=90
<meta message set_tempo tempo=397351 time=2>
note_on channel=0 note=68 velocity=93 time=28
note_on channel=0 note=56 velocity=93 time=0
note_on channel=0 note=68 velocity=0 time=120
note_on channel=0 note=72 velocity=78 time=0
<meta message set_tempo tempo=398671 time=12>
note_on channel=0 note=72 velocity=0 time=108
note_on channel=0 note=56 velocity=0 time=0
note_on channel=0 note=68 velocity=92 time=0
<meta message set_tempo tempo=400000 time=92>
note_on channel=0 note=68 velocity=0 time=28
note_on channel=0 note=63 velocity=76 time=0
note_on channel=0 note=63 velocity=0 time=90
note_on channel=0 note=63 velocity=90 time=30
note_on channel=0 note=51 velocity=91 time=0
<meta message set_tempo tempo=401338 time=12>
note_on channel=0 note=63 velocity=0 time=108
note_on channel=0 note=68 velocity=76 time=0
note_on channel=0 note=68 velocity=0 time=120
note_on channel=0 note=51 velocity=0 time=0
note_on channel=0 note=63 velocity=89 time=0
note_on channel=0 note=63 velocity=0 time=120
note_on channel=0 note=60 velocity=74 time=0
<meta message set_tempo tempo=404040 time=52>
note_on channel=0 note=60 velocity=0 time=38
note_on channel=0 note=60 velocity=87 time=30
note_on channel=0 note=48 velocity=88 time=0
note_on channel=0 note=60 velocity=0 time=120
note_on channel=0 note=63 velocity=73 time=0
note_on channel=0 note=63 velocity=0 time=120
note_on channel=0 note=48 velocity=0 time=0
note_on channel=0 note=60 velocity=86 time=0
note_on channel=0 note=60 velocity=0 time=120
note_on channel=0 note=56 velocity=72 time=0
<meta message set_tempo tempo=405405 time=52>
note_on channel=0 note=56 velocity=0 time=68
note_on channel=0 note=63 velocity=85 time=0
note_on channel=0 note=51 velocity=85 time=0
note_on channel=0 note=63 velocity=0 time=120
note_on channel=0 note=68 velocity=70 time=0
note_on channel=0 note=68 velocity=0 time=120
note_on channel=0 note=51 velocity=0 time=0
note_on channel=0 note=63 velocity=83 time=0
note_on channel=0 note=63 velocity=0 time=120
note_on channel=0 note=60 velocity=69 time=0
<meta message set_tempo tempo=406780 time=52>
note_on channel=0 note=60 velocity=0 time=68
note_on channel=0 note=56 velocity=81 time=0
note_on channel=0 note=44 velocity=82 time=0
control_change channel=0 control=64 value=0 time=3
control_change channel=0 control=64 value=127 time=211
note_on channel=0 note=44 velocity=0 time=266
note_on channel=0 note=56 velocity=0 time=0
control_change channel=0 control=64 value=0 time=108
note_on channel=0 note=87 velocity=112 time=852
note_on channel=0 note=82 velocity=102 time=0
note_on channel=0 note=79 velocity=102 time=0
note_on channel=0 note=75 velocity=102 time=0
note_on channel=0 note=39 velocity=91 time=0
note_on channel=0 note=51 velocity=91 time=0
control_change channel=0 control=64 value=127 time=132
note_on channel=0 note=51 velocity=0 time=348
note_on channel=0 note=82 velocity=0 time=0
note_on channel=0 note=79 velocity=0 time=0
note_on channel=0 note=87 velocity=0 time=0
note_on channel=0 note=39 velocity=0 time=0
note_on channel=0 note=75 velocity=0 time=0
control_change channel=0 control=64 value=0 time=28
note_on channel=0 note=84 velocity=108 time=932
note_on channel=0 note=80 velocity=98 time=0
note_on channel=0 note=72 velocity=98 time=0
note_on channel=0 note=75 velocity=98 time=0
note_on channel=0 note=32 velocity=88 time=0
note_on channel=0 note=44 velocity=88 time=0
control_change channel=0 control=64 value=127 time=80
<meta message marker text='Fine' time=400>
note_on channel=0 note=44 velocity=0 time=0
note_on channel=0 note=80 velocity=0 time=0
note_on channel=0 note=72 velocity=0 time=0
note_on channel=0 note=84 velocity=0 time=0
note_on channel=0 note=32 velocity=0 time=0
note_on channel=0 note=75 velocity=0 time=0
control_change channel=0 control=64 value=0 time=0
<meta message end_of_track time=0>
