<meta message track_name name='Vier Impromptus Opus 90 D 899' time=0>
<meta message track_name name='Impromptu Nr. 1 c-Moll' time=0>
<meta message copyright text='Copyright © 2007 von Bernd Krüger.' time=0>
<meta message text text='Schubert' time=0>
<meta message text text='Allegro molto moderato' time=0>
<meta message text text='Erstellt am 21.7.2007\n' time=0>
<meta message text text='Update am 18.3.2014\n' time=0>
<meta message text text='Dauer: 7:44 Minuten\n' time=0>
<meta message time_signature numerator=4 denominator=4 clocks_per_click=24 notated_32nd_notes_per_beat=8 time=0>
<meta message key_signature key='Eb' time=0>
<meta message set_tempo tempo=759494 time=0>
<meta message marker text='Teil 1' time=0>
program_change channel=0 program=0 time=0
control_change channel=0 control=7 value=100 time=0
control_change channel=0 control=10 value=64 time=0
note_on channel=0 note=67 velocity=84 time=0
note_on channel=0 note=79 velocity=95 time=0
program_change channel=0 program=0 time=0
control_change channel=0 control=7 value=100 time=0
control_change channel=0 control=10 value=64 time=0
note_on channel=0 note=43 velocity=70 time=0
note_on channel=0 note=31 velocity=60 time=0
control_change channel=0 control=64 value=127 time=28
control_change channel=0 control=64 value=0 time=1370
note_on channel=0 note=31 velocity=0 time=12
note_on channel=0 note=67 velocity=0 time=0
note_on channel=0 note=79 velocity=0 time=0
note_on channel=0 note=43 velocity=0 time=0
<meta message set_tempo tempo=551673 time=30>
note_on channel=0 note=71 velocity=44 time=0
note_on channel=0 note=71 velocity=0 time=360
note_on channel=0 note=72 velocity=38 time=0
<meta message set_tempo tempo=564334 time=120>
note_on channel=0 note=72 velocity=0 time=0
note_on channel=0 note=74 velocity=51 time=0
note_on channel=0 note=74 velocity=0 time=338
<meta message set_tempo tempo=546349 time=142>
note_on channel=0 note=74 velocity=42 time=0
note_on channel=0 note=74 velocity=0 time=338
<meta message set_tempo tempo=545901 time=142>
note_on channel=0 note=74 velocity=42 time=0
note_on channel=0 note=74 velocity=0 time=338
<meta message set_tempo tempo=551673 time=142>
note_on channel=0 note=72 velocity=46 time=0
note_on channel=0 note=72 velocity=0 time=360
note_on channel=0 note=74 velocity=47 time=0
<meta message set_tempo tempo=551673 time=120>
note_on channel=0 note=74 velocity=0 time=0
note_on channel=0 note=75 velocity=53 time=0
note_on channel=0 note=75 velocity=0 time=720
note_on channel=0 note=74 velocity=44 time=0
note_on channel=0 note=74 velocity=0 time=240
note_on channel=0 note=72 velocity=39 time=0
<meta message set_tempo tempo=543085 time=480>
note_on channel=0 note=72 velocity=0 time=0
note_on channel=0 note=74 velocity=49 time=0
<meta message set_tempo tempo=569638 time=360>
note_on channel=0 note=74 velocity=0 time=0
note_on channel=0 note=72 velocity=42 time=0
<meta message set_tempo tempo=551673 time=120>
note_on channel=0 note=72 velocity=0 time=0
note_on channel=0 note=71 velocity=46 time=0
note_on channel=0 note=71 velocity=0 time=480
note_on channel=0 note=69 velocity=44 time=0
note_on channel=0 note=69 velocity=0 time=360
note_on channel=0 note=71 velocity=36 time=0
<meta message set_tempo tempo=563539 time=120>
note_on channel=0 note=71 velocity=0 time=0
note_on channel=0 note=72 velocity=48 time=0
<meta message set_tempo tempo=577923 time=320>
<meta message set_tempo tempo=559076 time=160>
note_on channel=0 note=72 velocity=0 time=0
note_on channel=0 note=74 velocity=43 time=0
<meta message set_tempo tempo=592183 time=360>
note_on channel=0 note=74 velocity=0 time=0
note_on channel=0 note=75 velocity=44 time=0
note_on channel=0 note=75 velocity=0 time=120
note_on channel=0 note=74 velocity=51 time=0
<meta message set_tempo tempo=551673 time=1440>
note_on channel=0 note=74 velocity=0 time=0
note_on channel=0 note=62 velocity=37 time=0
note_on channel=0 note=67 velocity=37 time=0
note_on channel=0 note=71 velocity=44 time=0
note_on channel=0 note=55 velocity=35 time=0
note_on channel=0 note=55 velocity=0 time=240
note_on channel=0 note=62 velocity=0 time=1
note_on channel=0 note=67 velocity=0 time=0
note_on channel=0 note=71 velocity=0 time=0
note_on channel=0 note=63 velocity=35 time=119
note_on channel=0 note=67 velocity=35 time=0
note_on channel=0 note=72 velocity=42 time=0
note_on channel=0 note=55 velocity=33 time=0
note_on channel=0 note=55 velocity=0 time=60
note_on channel=0 note=63 velocity=0 time=0
note_on channel=0 note=67 velocity=0 time=0
note_on channel=0 note=72 velocity=0 time=0
<meta message set_tempo tempo=541419 time=60>
note_on channel=0 note=65 velocity=43 time=0
note_on channel=0 note=67 velocity=43 time=0
note_on channel=0 note=74 velocity=51 time=0
note_on channel=0 note=55 velocity=40 time=0
note_on channel=0 note=55 velocity=0 time=240
note_on channel=0 note=65 velocity=0 time=1
note_on channel=0 note=67 velocity=0 time=0
note_on channel=0 note=74 velocity=0 time=0
<meta message set_tempo tempo=548847 time=239>
note_on channel=0 note=65 velocity=35 time=0
note_on channel=0 note=67 velocity=35 time=0
note_on channel=0 note=74 velocity=42 time=0
note_on channel=0 note=55 velocity=33 time=0
note_on channel=0 note=55 velocity=0 time=240
note_on channel=0 note=65 velocity=0 time=1
note_on channel=0 note=67 velocity=0 time=0
note_on channel=0 note=74 velocity=0 time=0
<meta message set_tempo tempo=545901 time=239>
note_on channel=0 note=65 velocity=35 time=0
note_on channel=0 note=67 velocity=35 time=0
note_on channel=0 note=74 velocity=42 time=0
note_on channel=0 note=55 velocity=33 time=0
note_on channel=0 note=55 velocity=0 time=240
note_on channel=0 note=65 velocity=0 time=1
note_on channel=0 note=67 velocity=0 time=0
note_on channel=0 note=74 velocity=0 time=0
<meta message set_tempo tempo=551673 time=239>
note_on channel=0 note=63 velocity=39 time=0
note_on channel=0 note=67 velocity=39 time=0
note_on channel=0 note=72 velocity=39 time=0
note_on channel=0 note=55 velocity=46 time=0
note_on channel=0 note=55 velocity=0 time=240
note_on channel=0 note=63 velocity=0 time=1
note_on channel=0 note=67 velocity=0 time=0
note_on channel=0 note=72 velocity=0 time=0
note_on channel=0 note=65 velocity=39 time=119
note_on channel=0 note=67 velocity=39 time=0
note_on channel=0 note=74 velocity=47 time=0
note_on channel=0 note=55 velocity=47 time=0
note_on channel=0 note=55 velocity=0 time=60
note_on channel=0 note=65 velocity=0 time=0
note_on channel=0 note=67 velocity=0 time=0
note_on channel=0 note=74 velocity=0 time=0
<meta message set_tempo tempo=551673 time=60>
note_on channel=0 note=67 velocity=45 time=0
note_on channel=0 note=75 velocity=53 time=0
note_on channel=0 note=55 velocity=53 time=0
note_on channel=0 note=55 velocity=0 time=120
<meta message set_tempo tempo=517241 time=120>
<meta message set_tempo tempo=547945 time=240>
note_on channel=0 note=57 velocity=53 time=0
note_on channel=0 note=57 velocity=0 time=120
note_on channel=0 note=75 velocity=0 time=240
note_on channel=0 note=67 velocity=0 time=0
note_on channel=0 note=65 velocity=37 time=0
note_on channel=0 note=67 velocity=37 time=0
note_on channel=0 note=74 velocity=44 time=0
note_on channel=0 note=59 velocity=43 time=0
note_on channel=0 note=59 velocity=0 time=60
note_on channel=0 note=65 velocity=0 time=0
note_on channel=0 note=67 velocity=0 time=0
note_on channel=0 note=74 velocity=0 time=0
note_on channel=0 note=63 velocity=33 time=60
note_on channel=0 note=67 velocity=33 time=0
note_on channel=0 note=72 velocity=39 time=0
note_on channel=0 note=60 velocity=49 time=0
note_on channel=0 note=60 velocity=0 time=240
note_on channel=0 note=63 velocity=0 time=0
note_on channel=0 note=67 velocity=0 time=0
note_on channel=0 note=72 velocity=0 time=0
<meta message set_tempo tempo=543085 time=240>
note_on channel=0 note=65 velocity=41 time=0
note_on channel=0 note=68 velocity=41 time=0
note_on channel=0 note=74 velocity=49 time=0
note_on channel=0 note=53 velocity=45 time=0
note_on channel=0 note=53 velocity=0 time=240
note_on channel=0 note=65 velocity=0 time=1
note_on channel=0 note=68 velocity=0 time=0
note_on channel=0 note=74 velocity=0 time=0
<meta message set_tempo tempo=569638 time=119>
note_on channel=0 note=63 velocity=35 time=0
note_on channel=0 note=68 velocity=42 time=0
note_on channel=0 note=72 velocity=42 time=0
note_on channel=0 note=53 velocity=36 time=0
note_on channel=0 note=53 velocity=0 time=60
note_on channel=0 note=63 velocity=0 time=0
note_on channel=0 note=68 velocity=0 time=0
note_on channel=0 note=72 velocity=0 time=0
<meta message set_tempo tempo=551673 time=60>
note_on channel=0 note=62 velocity=39 time=0
note_on channel=0 note=67 velocity=39 time=0
note_on channel=0 note=71 velocity=46 time=0
note_on channel=0 note=55 velocity=44 time=0
note_on channel=0 note=71 velocity=0 time=240
note_on channel=0 note=62 velocity=0 time=0
note_on channel=0 note=67 velocity=0 time=0
note_on channel=0 note=60 velocity=37 time=240
note_on channel=0 note=67 velocity=37 time=0
note_on channel=0 note=69 velocity=44 time=0
note_on channel=0 note=69 velocity=0 time=241
note_on channel=0 note=67 velocity=0 time=0
note_on channel=0 note=60 velocity=0 time=0
note_on channel=0 note=55 velocity=0 time=119
note_on channel=0 note=62 velocity=30 time=0
note_on channel=0 note=67 velocity=30 time=0
note_on channel=0 note=71 velocity=36 time=0
note_on channel=0 note=55 velocity=36 time=0
note_on channel=0 note=53 velocity=30 time=0
note_on channel=0 note=53 velocity=0 time=60
note_on channel=0 note=71 velocity=0 time=0
note_on channel=0 note=62 velocity=0 time=0
note_on channel=0 note=67 velocity=0 time=0
note_on channel=0 note=55 velocity=0 time=0
<meta message set_tempo tempo=563539 time=60>
note_on channel=0 note=63 velocity=40 time=0
note_on channel=0 note=67 velocity=40 time=0
note_on channel=0 note=72 velocity=48 time=0
note_on channel=0 note=51 velocity=40 time=0
note_on channel=0 note=55 velocity=48 time=0
<meta message set_tempo tempo=603015 time=240>
note_on channel=0 note=55 velocity=0 time=0
note_on channel=0 note=72 velocity=0 time=0
note_on channel=0 note=63 velocity=0 time=0
note_on channel=0 note=67 velocity=0 time=0
note_on channel=0 note=51 velocity=0 time=0
<meta message set_tempo tempo=566038 time=240>
note_on channel=0 note=67 velocity=45 time=0
note_on channel=0 note=75 velocity=53 time=0
note_on channel=0 note=43 velocity=45 time=0
note_on channel=0 note=55 velocity=53 time=0
note_on channel=0 note=55 velocity=0 time=240
note_on channel=0 note=43 velocity=0 time=0
note_on channel=0 note=75 velocity=0 time=1
note_on channel=0 note=67 velocity=0 time=0
<meta message set_tempo tempo=592183 time=119>
note_on channel=0 note=65 velocity=37 time=0
note_on channel=0 note=67 velocity=37 time=0
note_on channel=0 note=74 velocity=44 time=0
note_on channel=0 note=55 velocity=44 time=0
note_on channel=0 note=43 velocity=37 time=0
note_on channel=0 note=43 velocity=0 time=60
note_on channel=0 note=74 velocity=0 time=0
note_on channel=0 note=65 velocity=0 time=0
note_on channel=0 note=67 velocity=0 time=0
note_on channel=0 note=55 velocity=0 time=0
note_on channel=0 note=63 velocity=43 time=60
note_on channel=0 note=67 velocity=43 time=0
note_on channel=0 note=72 velocity=51 time=0
note_on channel=0 note=48 velocity=46 time=0
note_on channel=0 note=55 velocity=55 time=0
<meta message set_tempo tempo=592183 time=480>
<meta message set_tempo tempo=551673 time=960>
note_on channel=0 note=55 velocity=0 time=0
note_on channel=0 note=72 velocity=0 time=0
note_on channel=0 note=63 velocity=0 time=0
note_on channel=0 note=67 velocity=0 time=0
note_on channel=0 note=48 velocity=0 time=0
note_on channel=0 note=74 velocity=44 time=0
note_on channel=0 note=74 velocity=0 time=360
note_on channel=0 note=75 velocity=38 time=0
<meta message set_tempo tempo=559076 time=120>
note_on channel=0 note=75 velocity=0 time=0
note_on channel=0 note=77 velocity=51 time=0
note_on channel=0 note=77 velocity=0 time=338
<meta message set_tempo tempo=551369 time=142>
note_on channel=0 note=77 velocity=42 time=0
note_on channel=0 note=77 velocity=0 time=338
<meta message set_tempo tempo=545901 time=142>
note_on channel=0 note=77 velocity=42 time=0
note_on channel=0 note=77 velocity=0 time=338
<meta message set_tempo tempo=551673 time=142>
note_on channel=0 note=75 velocity=46 time=0
note_on channel=0 note=75 velocity=0 time=360
note_on channel=0 note=74 velocity=47 time=0
<meta message set_tempo tempo=551673 time=120>
note_on channel=0 note=74 velocity=0 time=0
note_on channel=0 note=79 velocity=53 time=0
note_on channel=0 note=79 velocity=0 time=720
note_on channel=0 note=77 velocity=44 time=0
<meta message set_tempo tempo=559076 time=240>
note_on channel=0 note=77 velocity=0 time=0
note_on channel=0 note=75 velocity=39 time=0
<meta message set_tempo tempo=543085 time=480>
note_on channel=0 note=75 velocity=0 time=0
note_on channel=0 note=74 velocity=49 time=0
<meta message set_tempo tempo=569638 time=360>
note_on channel=0 note=74 velocity=0 time=0
note_on channel=0 note=72 velocity=42 time=0
<meta message set_tempo tempo=551673 time=120>
note_on channel=0 note=72 velocity=0 time=0
note_on channel=0 note=71 velocity=46 time=0
note_on channel=0 note=71 velocity=0 time=480
note_on channel=0 note=69 velocity=44 time=0
note_on channel=0 note=69 velocity=0 time=360
note_on channel=0 note=71 velocity=36 time=0
<meta message set_tempo tempo=575153 time=120>
note_on channel=0 note=71 velocity=0 time=0
note_on channel=0 note=72 velocity=48 time=0
<meta message set_tempo tempo=559076 time=480>
note_on channel=0 note=72 velocity=0 time=0
note_on channel=0 note=77 velocity=43 time=0
<meta message set_tempo tempo=592183 time=360>
note_on channel=0 note=77 velocity=0 time=0
note_on channel=0 note=75 velocity=44 time=0
note_on channel=0 note=75 velocity=0 time=120
note_on channel=0 note=74 velocity=51 time=0
<meta message set_tempo tempo=551673 time=1440>
note_on channel=0 note=74 velocity=0 time=0
note_on channel=0 note=65 velocity=37 time=0
note_on channel=0 note=70 velocity=37 time=0
note_on channel=0 note=74 velocity=44 time=0
note_on channel=0 note=58 velocity=35 time=0
note_on channel=0 note=58 velocity=0 time=240
note_on channel=0 note=65 velocity=0 time=1
note_on channel=0 note=70 velocity=0 time=0
note_on channel=0 note=74 velocity=0 time=0
note_on channel=0 note=67 velocity=35 time=119
note_on channel=0 note=70 velocity=35 time=0
note_on channel=0 note=75 velocity=42 time=0
note_on channel=0 note=58 velocity=33 time=0
note_on channel=0 note=58 velocity=0 time=60
note_on channel=0 note=67 velocity=0 time=0
note_on channel=0 note=70 velocity=0 time=0
note_on channel=0 note=75 velocity=0 time=0
note_on channel=0 note=68 velocity=43 time=60
note_on channel=0 note=70 velocity=43 time=0
note_on channel=0 note=77 velocity=51 time=0
note_on channel=0 note=58 velocity=40 time=0
note_on channel=0 note=58 velocity=0 time=240
note_on channel=0 note=68 velocity=0 time=1
note_on channel=0 note=70 velocity=0 time=0
note_on channel=0 note=77 velocity=0 time=0
note_on channel=0 note=68 velocity=35 time=239
note_on channel=0 note=70 velocity=35 time=0
note_on channel=0 note=77 velocity=42 time=0
note_on channel=0 note=58 velocity=33 time=0
note_on channel=0 note=58 velocity=0 time=240
note_on channel=0 note=68 velocity=0 time=1
note_on channel=0 note=70 velocity=0 time=0
note_on channel=0 note=77 velocity=0 time=0
<meta message set_tempo tempo=545901 time=239>
note_on channel=0 note=68 velocity=35 time=0
note_on channel=0 note=70 velocity=35 time=0
note_on channel=0 note=77 velocity=42 time=0
note_on channel=0 note=58 velocity=33 time=0
note_on channel=0 note=58 velocity=0 time=240
note_on channel=0 note=68 velocity=0 time=1
note_on channel=0 note=70 velocity=0 time=0
note_on channel=0 note=77 velocity=0 time=0
<meta message set_tempo tempo=551673 time=239>
note_on channel=0 note=67 velocity=39 time=0
note_on channel=0 note=70 velocity=39 time=0
note_on channel=0 note=75 velocity=46 time=0
note_on channel=0 note=58 velocity=46 time=0
note_on channel=0 note=58 velocity=0 time=240
note_on channel=0 note=67 velocity=0 time=1
note_on channel=0 note=70 velocity=0 time=0
note_on channel=0 note=75 velocity=0 time=0
note_on channel=0 note=65 velocity=39 time=119
note_on channel=0 note=70 velocity=39 time=0
note_on channel=0 note=74 velocity=47 time=0
note_on channel=0 note=58 velocity=47 time=0
note_on channel=0 note=58 velocity=0 time=60
note_on channel=0 note=65 velocity=0 time=0
note_on channel=0 note=70 velocity=0 time=0
note_on channel=0 note=74 velocity=0 time=0
<meta message set_tempo tempo=551673 time=60>
note_on channel=0 note=70 velocity=47 time=0
note_on channel=0 note=79 velocity=56 time=0
note_on channel=0 note=58 velocity=53 time=0
note_on channel=0 note=58 velocity=0 time=120
<meta message set_tempo tempo=517241 time=120>
<meta message set_tempo tempo=547945 time=240>
note_on channel=0 note=60 velocity=53 time=0
note_on channel=0 note=60 velocity=0 time=120
note_on channel=0 note=79 velocity=0 time=240
note_on channel=0 note=70 velocity=0 time=0
note_on channel=0 note=68 velocity=41 time=0
note_on channel=0 note=70 velocity=41 time=0
note_on channel=0 note=77 velocity=49 time=0
note_on channel=0 note=62 velocity=43 time=0
note_on channel=0 note=62 velocity=0 time=60
note_on channel=0 note=68 velocity=0 time=0
note_on channel=0 note=70 velocity=0 time=0
note_on channel=0 note=77 velocity=0 time=0
note_on channel=0 note=67 velocity=35 time=60
note_on channel=0 note=70 velocity=35 time=0
note_on channel=0 note=75 velocity=42 time=0
note_on channel=0 note=63 velocity=49 time=0
note_on channel=0 note=63 velocity=0 time=240
note_on channel=0 note=67 velocity=0 time=0
note_on channel=0 note=70 velocity=0 time=0
note_on channel=0 note=75 velocity=0 time=0
<meta message set_tempo tempo=543085 time=240>
note_on channel=0 note=65 velocity=44 time=0
note_on channel=0 note=68 velocity=44 time=0
note_on channel=0 note=74 velocity=52 time=0
note_on channel=0 note=53 velocity=45 time=0
note_on channel=0 note=53 velocity=0 time=240
note_on channel=0 note=65 velocity=0 time=1
note_on channel=0 note=68 velocity=0 time=0
note_on channel=0 note=74 velocity=0 time=0
<meta message set_tempo tempo=569638 time=119>
note_on channel=0 note=63 velocity=35 time=0
note_on channel=0 note=68 velocity=35 time=0
note_on channel=0 note=72 velocity=42 time=0
note_on channel=0 note=53 velocity=36 time=0
note_on channel=0 note=53 velocity=0 time=60
note_on channel=0 note=63 velocity=0 time=0
note_on channel=0 note=68 velocity=0 time=0
note_on channel=0 note=72 velocity=0 time=0
<meta message set_tempo tempo=551673 time=60>
note_on channel=0 note=62 velocity=39 time=0
note_on channel=0 note=67 velocity=39 time=0
note_on channel=0 note=71 velocity=46 time=0
note_on channel=0 note=55 velocity=44 time=0
note_on channel=0 note=71 velocity=0 time=240
note_on channel=0 note=62 velocity=0 time=0
note_on channel=0 note=67 velocity=0 time=0
note_on channel=0 note=60 velocity=37 time=240
note_on channel=0 note=67 velocity=37 time=0
note_on channel=0 note=69 velocity=44 time=0
note_on channel=0 note=69 velocity=0 time=241
note_on channel=0 note=67 velocity=0 time=0
note_on channel=0 note=60 velocity=0 time=0
note_on channel=0 note=55 velocity=0 time=119
note_on channel=0 note=62 velocity=30 time=0
note_on channel=0 note=67 velocity=30 time=0
note_on channel=0 note=71 velocity=36 time=0
note_on channel=0 note=53 velocity=30 time=0
note_on channel=0 note=55 velocity=36 time=0
note_on channel=0 note=55 velocity=0 time=60
note_on channel=0 note=71 velocity=0 time=0
note_on channel=0 note=62 velocity=0 time=0
note_on channel=0 note=67 velocity=0 time=0
note_on channel=0 note=53 velocity=0 time=0
<meta message set_tempo tempo=563539 time=60>
note_on channel=0 note=63 velocity=40 time=0
note_on channel=0 note=67 velocity=40 time=0
note_on channel=0 note=72 velocity=48 time=0
note_on channel=0 note=51 velocity=40 time=0
note_on channel=0 note=55 velocity=48 time=0
note_on channel=0 note=55 velocity=0 time=240
note_on channel=0 note=72 velocity=0 time=0
note_on channel=0 note=63 velocity=0 time=0
note_on channel=0 note=67 velocity=0 time=0
note_on channel=0 note=51 velocity=0 time=0
<meta message set_tempo tempo=646412 time=80>
<meta message set_tempo tempo=566038 time=160>
note_on channel=0 note=67 velocity=45 time=0
note_on channel=0 note=75 velocity=53 time=0
note_on channel=0 note=55 velocity=53 time=0
note_on channel=0 note=43 velocity=45 time=0
note_on channel=0 note=43 velocity=0 time=240
note_on channel=0 note=55 velocity=0 time=0
note_on channel=0 note=75 velocity=0 time=1
note_on channel=0 note=67 velocity=0 time=0
<meta message set_tempo tempo=592183 time=119>
note_on channel=0 note=65 velocity=37 time=0
note_on channel=0 note=67 velocity=37 time=0
note_on channel=0 note=74 velocity=44 time=0
note_on channel=0 note=55 velocity=44 time=0
note_on channel=0 note=43 velocity=37 time=0
note_on channel=0 note=43 velocity=0 time=60
note_on channel=0 note=74 velocity=0 time=0
note_on channel=0 note=65 velocity=0 time=0
note_on channel=0 note=67 velocity=0 time=0
note_on channel=0 note=55 velocity=0 time=0
note_on channel=0 note=63 velocity=43 time=60
note_on channel=0 note=67 velocity=43 time=0
note_on channel=0 note=72 velocity=51 time=0
note_on channel=0 note=48 velocity=46 time=0
note_on channel=0 note=55 velocity=55 time=0
<meta message set_tempo tempo=592183 time=480>
<meta message set_tempo tempo=551673 time=960>
note_on channel=0 note=55 velocity=0 time=0
note_on channel=0 note=72 velocity=0 time=0
note_on channel=0 note=63 velocity=0 time=0
note_on channel=0 note=67 velocity=0 time=0
note_on channel=0 note=48 velocity=0 time=0
note_on channel=0 note=71 velocity=48 time=0
note_on channel=0 note=71 velocity=0 time=360
note_on channel=0 note=72 velocity=41 time=0
note_on channel=0 note=72 velocity=0 time=120
note_on channel=0 note=74 velocity=56 time=0
note_on channel=0 note=74 velocity=0 time=338
note_on channel=0 note=68 velocity=39 time=142
note_on channel=0 note=71 velocity=46 time=0
note_on channel=0 note=74 velocity=46 time=0
note_on channel=0 note=65 velocity=36 time=0
note_on channel=0 note=74 velocity=0 time=338
note_on channel=0 note=68 velocity=0 time=22
note_on channel=0 note=71 velocity=0 time=0
note_on channel=0 note=65 velocity=0 time=0
<meta message set_tempo tempo=545901 time=120>
note_on channel=0 note=69 velocity=39 time=0
note_on channel=0 note=72 velocity=39 time=0
note_on channel=0 note=74 velocity=46 time=0
note_on channel=0 note=66 velocity=36 time=0
note_on channel=0 note=74 velocity=0 time=338
note_on channel=0 note=69 velocity=0 time=22
note_on channel=0 note=72 velocity=0 time=0
note_on channel=0 note=66 velocity=0 time=0
<meta message set_tempo tempo=551673 time=120>
note_on channel=0 note=69 velocity=39 time=0
note_on channel=0 note=72 velocity=50 time=0
note_on channel=0 note=66 velocity=36 time=0
note_on channel=0 note=62 velocity=30 time=0
note_on channel=0 note=72 velocity=0 time=360
note_on channel=0 note=74 velocity=51 time=0
<meta message set_tempo tempo=524843 time=120>
note_on channel=0 note=74 velocity=0 time=0
note_on channel=0 note=62 velocity=0 time=0
note_on channel=0 note=66 velocity=0 time=0
note_on channel=0 note=69 velocity=0 time=0
note_on channel=0 note=72 velocity=50 time=0
note_on channel=0 note=69 velocity=49 time=0
note_on channel=0 note=66 velocity=39 time=0
note_on channel=0 note=60 velocity=46 time=0
note_on channel=0 note=72 velocity=0 time=60
note_on channel=0 note=74 velocity=53 time=0
note_on channel=0 note=74 velocity=0 time=60
note_on channel=0 note=75 velocity=58 time=0
<meta message set_tempo tempo=548847 time=40>
note_on channel=0 note=75 velocity=0 time=560
note_on channel=0 note=60 velocity=0 time=0
note_on channel=0 note=74 velocity=48 time=0
note_on channel=0 note=62 velocity=46 time=0
note_on channel=0 note=62 velocity=0 time=240
note_on channel=0 note=74 velocity=0 time=0
note_on channel=0 note=72 velocity=42 time=0
note_on channel=0 note=63 velocity=46 time=0
<meta message set_tempo tempo=543085 time=480>
note_on channel=0 note=63 velocity=0 time=0
note_on channel=0 note=69 velocity=0 time=0
note_on channel=0 note=66 velocity=0 time=0
note_on channel=0 note=72 velocity=0 time=0
note_on channel=0 note=69 velocity=40 time=0
note_on channel=0 note=74 velocity=55 time=0
note_on channel=0 note=54 velocity=31 time=0
note_on channel=0 note=62 velocity=37 time=0
<meta message set_tempo tempo=569638 time=360>
note_on channel=0 note=74 velocity=0 time=0
note_on channel=0 note=72 velocity=48 time=0
<meta message set_tempo tempo=551673 time=120>
note_on channel=0 note=72 velocity=0 time=0
note_on channel=0 note=62 velocity=0 time=0
note_on channel=0 note=54 velocity=0 time=0
note_on channel=0 note=69 velocity=0 time=0
note_on channel=0 note=67 velocity=44 time=0
note_on channel=0 note=71 velocity=52 time=0
note_on channel=0 note=55 velocity=35 time=0
note_on channel=0 note=62 velocity=42 time=0
note_on channel=0 note=62 velocity=0 time=480
note_on channel=0 note=67 velocity=0 time=0
note_on channel=0 note=71 velocity=0 time=0
note_on channel=0 note=55 velocity=0 time=0
note_on channel=0 note=67 velocity=46 time=0
note_on channel=0 note=69 velocity=54 time=0
note_on channel=0 note=53 velocity=35 time=0
note_on channel=0 note=62 velocity=43 time=0
note_on channel=0 note=55 velocity=35 time=0
note_on channel=0 note=55 velocity=0 time=360
note_on channel=0 note=53 velocity=0 time=0
note_on channel=0 note=67 velocity=0 time=0
note_on channel=0 note=69 velocity=0 time=0
note_on channel=0 note=62 velocity=0 time=0
note_on channel=0 note=67 velocity=36 time=0
note_on channel=0 note=71 velocity=44 time=0
note_on channel=0 note=55 velocity=29 time=0
note_on channel=0 note=53 velocity=29 time=0
note_on channel=0 note=62 velocity=35 time=0
<meta message set_tempo tempo=563539 time=120>
note_on channel=0 note=62 velocity=0 time=0
note_on channel=0 note=55 velocity=0 time=0
note_on channel=0 note=67 velocity=0 time=0
note_on channel=0 note=71 velocity=0 time=0
note_on channel=0 note=53 velocity=0 time=0
note_on channel=0 note=67 velocity=50 time=0
note_on channel=0 note=72 velocity=59 time=0
note_on channel=0 note=55 velocity=39 time=0
note_on channel=0 note=51 velocity=39 time=0
note_on channel=0 note=60 velocity=47 time=0
<meta message set_tempo tempo=563539 time=480>
note_on channel=0 note=60 velocity=0 time=0
note_on channel=0 note=55 velocity=0 time=0
note_on channel=0 note=67 velocity=0 time=0
note_on channel=0 note=72 velocity=0 time=0
note_on channel=0 note=51 velocity=0 time=0
note_on channel=0 note=67 velocity=51 time=0
note_on channel=0 note=74 velocity=61 time=0
note_on channel=0 note=59 velocity=48 time=0
note_on channel=0 note=55 velocity=40 time=0
note_on channel=0 note=50 velocity=40 time=0
<meta message set_tempo tempo=592183 time=360>
note_on channel=0 note=50 velocity=0 time=0
note_on channel=0 note=59 velocity=0 time=0
note_on channel=0 note=67 velocity=0 time=0
note_on channel=0 note=74 velocity=0 time=0
note_on channel=0 note=55 velocity=0 time=0
note_on channel=0 note=67 velocity=52 time=0
note_on channel=0 note=75 velocity=62 time=0
note_on channel=0 note=48 velocity=41 time=0
note_on channel=0 note=60 velocity=49 time=0
note_on channel=0 note=55 velocity=41 time=0
note_on channel=0 note=55 velocity=0 time=120
note_on channel=0 note=48 velocity=0 time=0
note_on channel=0 note=67 velocity=0 time=0
note_on channel=0 note=75 velocity=0 time=0
note_on channel=0 note=60 velocity=0 time=0
note_on channel=0 note=67 velocity=61 time=0
note_on channel=0 note=74 velocity=73 time=0
note_on channel=0 note=59 velocity=57 time=0
note_on channel=0 note=55 velocity=48 time=0
<meta message set_tempo tempo=551673 time=1440>
note_on channel=0 note=55 velocity=0 time=0
note_on channel=0 note=67 velocity=0 time=0
note_on channel=0 note=74 velocity=0 time=0
note_on channel=0 note=59 velocity=0 time=0
note_on channel=0 note=62 velocity=64 time=0
note_on channel=0 note=67 velocity=64 time=0
note_on channel=0 note=71 velocity=77 time=0
note_on channel=0 note=55 velocity=61 time=0
note_on channel=0 note=43 velocity=51 time=0
control_change channel=0 control=64 value=127 time=78
note_on channel=0 note=43 velocity=0 time=162
note_on channel=0 note=55 velocity=0 time=0
note_on channel=0 note=62 velocity=0 time=1
note_on channel=0 note=67 velocity=0 time=0
note_on channel=0 note=71 velocity=0 time=0
note_on channel=0 note=63 velocity=61 time=119
note_on channel=0 note=67 velocity=61 time=0
note_on channel=0 note=72 velocity=73 time=0
note_on channel=0 note=55 velocity=57 time=0
note_on channel=0 note=43 velocity=48 time=0
note_on channel=0 note=43 velocity=0 time=60
note_on channel=0 note=72 velocity=0 time=0
note_on channel=0 note=63 velocity=0 time=0
note_on channel=0 note=67 velocity=0 time=0
note_on channel=0 note=55 velocity=0 time=0
note_on channel=0 note=65 velocity=74 time=60
note_on channel=0 note=67 velocity=74 time=0
note_on channel=0 note=74 velocity=89 time=0
note_on channel=0 note=55 velocity=70 time=0
note_on channel=0 note=43 velocity=59 time=0
control_change channel=0 control=64 value=0 time=0
control_change channel=0 control=64 value=127 time=79
note_on channel=0 note=43 velocity=0 time=161
note_on channel=0 note=55 velocity=0 time=0
note_on channel=0 note=65 velocity=0 time=1
note_on channel=0 note=67 velocity=0 time=0
note_on channel=0 note=74 velocity=0 time=0
note_on channel=0 note=65 velocity=68 time=239
note_on channel=0 note=67 velocity=68 time=0
note_on channel=0 note=74 velocity=81 time=0
note_on channel=0 note=55 velocity=64 time=0
note_on channel=0 note=43 velocity=55 time=0
note_on channel=0 note=43 velocity=0 time=240
note_on channel=0 note=55 velocity=0 time=0
note_on channel=0 note=65 velocity=0 time=1
note_on channel=0 note=67 velocity=0 time=0
note_on channel=0 note=74 velocity=0 time=0
<meta message set_tempo tempo=545901 time=239>
note_on channel=0 note=65 velocity=68 time=0
note_on channel=0 note=67 velocity=68 time=0
note_on channel=0 note=74 velocity=81 time=0
note_on channel=0 note=55 velocity=66 time=0
note_on channel=0 note=43 velocity=56 time=0
note_on channel=0 note=43 velocity=0 time=240
note_on channel=0 note=55 velocity=0 time=0
note_on channel=0 note=65 velocity=0 time=1
note_on channel=0 note=67 velocity=0 time=0
note_on channel=0 note=74 velocity=0 time=0
<meta message set_tempo tempo=551673 time=239>
note_on channel=0 note=63 velocity=68 time=0
note_on channel=0 note=67 velocity=68 time=0
note_on channel=0 note=72 velocity=80 time=0
note_on channel=0 note=55 velocity=80 time=0
note_on channel=0 note=43 velocity=68 time=0
control_change channel=0 control=64 value=0 time=14
control_change channel=0 control=64 value=127 time=81
note_on channel=0 note=43 velocity=0 time=145
note_on channel=0 note=55 velocity=0 time=0
note_on channel=0 note=63 velocity=0 time=1
note_on channel=0 note=67 velocity=0 time=0
note_on channel=0 note=72 velocity=0 time=0
note_on channel=0 note=65 velocity=69 time=119
note_on channel=0 note=67 velocity=69 time=0
note_on channel=0 note=74 velocity=82 time=0
note_on channel=0 note=43 velocity=56 time=0
note_on channel=0 note=55 velocity=66 time=0
note_on channel=0 note=55 velocity=0 time=60
note_on channel=0 note=74 velocity=0 time=0
note_on channel=0 note=65 velocity=0 time=0
note_on channel=0 note=67 velocity=0 time=0
note_on channel=0 note=43 velocity=0 time=0
<meta message set_tempo tempo=551673 time=60>
note_on channel=0 note=67 velocity=78 time=0
note_on channel=0 note=75 velocity=92 time=0
note_on channel=0 note=55 velocity=73 time=0
note_on channel=0 note=43 velocity=61 time=0
control_change channel=0 control=64 value=0 time=0
control_change channel=0 control=64 value=127 time=117
note_on channel=0 note=43 velocity=0 time=3
note_on channel=0 note=55 velocity=0 time=0
<meta message set_tempo tempo=517241 time=120>
<meta message set_tempo tempo=547945 time=240>
note_on channel=0 note=57 velocity=84 time=0
note_on channel=0 note=45 velocity=70 time=0
control_change channel=0 control=64 value=0 time=14
note_on channel=0 note=45 velocity=0 time=106
note_on channel=0 note=57 velocity=0 time=0
note_on channel=0 note=75 velocity=0 time=240
note_on channel=0 note=67 velocity=0 time=0
note_on channel=0 note=65 velocity=64 time=0
note_on channel=0 note=67 velocity=64 time=0
note_on channel=0 note=74 velocity=77 time=0
note_on channel=0 note=47 velocity=56 time=0
note_on channel=0 note=59 velocity=68 time=0
note_on channel=0 note=59 velocity=0 time=120
note_on channel=0 note=74 velocity=0 time=0
note_on channel=0 note=65 velocity=0 time=0
note_on channel=0 note=67 velocity=0 time=0
note_on channel=0 note=47 velocity=0 time=0
note_on channel=0 note=63 velocity=57 time=0
note_on channel=0 note=67 velocity=57 time=0
note_on channel=0 note=72 velocity=68 time=0
note_on channel=0 note=48 velocity=64 time=0
note_on channel=0 note=60 velocity=78 time=0
control_change channel=0 control=64 value=127 time=117
note_on channel=0 note=60 velocity=0 time=123
note_on channel=0 note=72 velocity=0 time=0
note_on channel=0 note=63 velocity=0 time=0
note_on channel=0 note=67 velocity=0 time=0
note_on channel=0 note=48 velocity=0 time=0
<meta message set_tempo tempo=543085 time=240>
note_on channel=0 note=65 velocity=72 time=0
note_on channel=0 note=68 velocity=72 time=0
note_on channel=0 note=74 velocity=85 time=0
note_on channel=0 note=53 velocity=62 time=0
note_on channel=0 note=41 velocity=52 time=0
control_change channel=0 control=64 value=0 time=13
control_change channel=0 control=64 value=127 time=68
note_on channel=0 note=41 velocity=0 time=159
note_on channel=0 note=53 velocity=0 time=0
note_on channel=0 note=65 velocity=0 time=1
note_on channel=0 note=68 velocity=0 time=0
note_on channel=0 note=74 velocity=0 time=0
<meta message set_tempo tempo=569638 time=119>
note_on channel=0 note=63 velocity=61 time=0
note_on channel=0 note=68 velocity=61 time=0
note_on channel=0 note=72 velocity=73 time=0
note_on channel=0 note=53 velocity=49 time=0
note_on channel=0 note=41 velocity=41 time=0
note_on channel=0 note=41 velocity=0 time=60
note_on channel=0 note=72 velocity=0 time=0
note_on channel=0 note=63 velocity=0 time=0
note_on channel=0 note=68 velocity=0 time=0
note_on channel=0 note=53 velocity=0 time=0
<meta message set_tempo tempo=551673 time=60>
note_on channel=0 note=62 velocity=68 time=0
note_on channel=0 note=67 velocity=68 time=0
note_on channel=0 note=71 velocity=80 time=0
note_on channel=0 note=43 velocity=51 time=0
note_on channel=0 note=55 velocity=61 time=0
control_change channel=0 control=64 value=0 time=0
control_change channel=0 control=64 value=127 time=111
note_on channel=0 note=55 velocity=0 time=129
note_on channel=0 note=71 velocity=0 time=0
note_on channel=0 note=62 velocity=0 time=0
note_on channel=0 note=67 velocity=0 time=0
note_on channel=0 note=43 velocity=0 time=0
note_on channel=0 note=60 velocity=64 time=240
note_on channel=0 note=67 velocity=64 time=0
note_on channel=0 note=69 velocity=77 time=0
note_on channel=0 note=55 velocity=61 time=0
control_change channel=0 control=64 value=0 time=9
control_change channel=0 control=64 value=127 time=54
note_on channel=0 note=55 velocity=0 time=177
note_on channel=0 note=60 velocity=0 time=1
note_on channel=0 note=67 velocity=0 time=0
note_on channel=0 note=69 velocity=0 time=0
note_on channel=0 note=62 velocity=52 time=119
note_on channel=0 note=67 velocity=52 time=0
note_on channel=0 note=71 velocity=62 time=0
note_on channel=0 note=55 velocity=49 time=0
note_on channel=0 note=53 velocity=41 time=0
note_on channel=0 note=53 velocity=0 time=60
note_on channel=0 note=71 velocity=0 time=0
note_on channel=0 note=62 velocity=0 time=0
note_on channel=0 note=67 velocity=0 time=0
note_on channel=0 note=55 velocity=0 time=0
<meta message set_tempo tempo=563539 time=60>
note_on channel=0 note=63 velocity=70 time=0
note_on channel=0 note=67 velocity=70 time=0
note_on channel=0 note=72 velocity=83 time=0
note_on channel=0 note=51 velocity=56 time=0
note_on channel=0 note=55 velocity=66 time=0
control_change channel=0 control=64 value=0 time=17
control_change channel=0 control=64 value=127 time=72
<meta message set_tempo tempo=603015 time=151>
note_on channel=0 note=55 velocity=0 time=0
note_on channel=0 note=72 velocity=0 time=0
note_on channel=0 note=63 velocity=0 time=0
note_on channel=0 note=67 velocity=0 time=0
note_on channel=0 note=51 velocity=0 time=0
<meta message set_tempo tempo=566038 time=240>
note_on channel=0 note=67 velocity=78 time=0
note_on channel=0 note=75 velocity=92 time=0
note_on channel=0 note=31 velocity=61 time=0
note_on channel=0 note=43 velocity=73 time=0
control_change channel=0 control=64 value=0 time=11
control_change channel=0 control=64 value=127 time=56
note_on channel=0 note=43 velocity=0 time=173
note_on channel=0 note=31 velocity=0 time=0
note_on channel=0 note=75 velocity=0 time=1
note_on channel=0 note=67 velocity=0 time=0
<meta message set_tempo tempo=592183 time=119>
note_on channel=0 note=65 velocity=64 time=0
note_on channel=0 note=67 velocity=64 time=0
note_on channel=0 note=74 velocity=77 time=0
note_on channel=0 note=43 velocity=61 time=0
note_on channel=0 note=31 velocity=51 time=0
note_on channel=0 note=31 velocity=0 time=60
note_on channel=0 note=74 velocity=0 time=0
note_on channel=0 note=65 velocity=0 time=0
note_on channel=0 note=67 velocity=0 time=0
note_on channel=0 note=43 velocity=0 time=0
note_on channel=0 note=63 velocity=74 time=60
note_on channel=0 note=67 velocity=74 time=0
note_on channel=0 note=72 velocity=89 time=0
note_on channel=0 note=43 velocity=77 time=0
note_on channel=0 note=36 velocity=64 time=0
control_change channel=0 control=64 value=0 time=0
control_change channel=0 control=64 value=127 time=454
<meta message set_tempo tempo=592183 time=26>
control_change channel=0 control=64 value=0 time=694
<meta message set_tempo tempo=551673 time=266>
note_on channel=0 note=36 velocity=0 time=0
note_on channel=0 note=72 velocity=0 time=0
note_on channel=0 note=63 velocity=0 time=0
note_on channel=0 note=67 velocity=0 time=0
note_on channel=0 note=43 velocity=0 time=0
note_on channel=0 note=74 velocity=55 time=0
note_on channel=0 note=74 velocity=0 time=360
note_on channel=0 note=75 velocity=47 time=0
note_on channel=0 note=75 velocity=0 time=120
note_on channel=0 note=77 velocity=64 time=0
note_on channel=0 note=77 velocity=0 time=338
note_on channel=0 note=71 velocity=44 time=142
note_on channel=0 note=68 velocity=44 time=0
note_on channel=0 note=74 velocity=44 time=0
note_on channel=0 note=77 velocity=52 time=0
note_on channel=0 note=65 velocity=41 time=0
note_on channel=0 note=77 velocity=0 time=338
note_on channel=0 note=74 velocity=0 time=22
note_on channel=0 note=71 velocity=0 time=0
note_on channel=0 note=68 velocity=0 time=0
note_on channel=0 note=65 velocity=0 time=0
<meta message set_tempo tempo=515818 time=120>
note_on channel=0 note=68 velocity=44 time=0
note_on channel=0 note=70 velocity=44 time=0
note_on channel=0 note=77 velocity=52 time=0
note_on channel=0 note=62 velocity=34 time=0
note_on channel=0 note=65 velocity=41 time=0
note_on channel=0 note=77 velocity=0 time=338
note_on channel=0 note=62 velocity=0 time=22
note_on channel=0 note=68 velocity=0 time=0
note_on channel=0 note=70 velocity=0 time=0
note_on channel=0 note=65 velocity=0 time=0
<meta message set_tempo tempo=486539 time=120>
note_on channel=0 note=70 velocity=39 time=0
note_on channel=0 note=68 velocity=39 time=0
note_on channel=0 note=75 velocity=47 time=0
note_on channel=0 note=58 velocity=34 time=0
note_on channel=0 note=65 velocity=41 time=0
control_change channel=0 control=64 value=127 time=32
note_on channel=0 note=75 velocity=0 time=28
note_on channel=0 note=77 velocity=47 time=0
<meta message set_tempo tempo=628272 time=60>
note_on channel=0 note=77 velocity=0 time=0
note_on channel=0 note=75 velocity=70 time=0
control_change channel=0 control=64 value=0 time=10
<meta message set_tempo tempo=668003 time=230>
note_on channel=0 note=75 velocity=0 time=0
note_on channel=0 note=74 velocity=58 time=0
<meta message set_tempo tempo=564334 time=120>
note_on channel=0 note=74 velocity=0 time=0
note_on channel=0 note=65 velocity=0 time=0
note_on channel=0 note=70 velocity=0 time=0
note_on channel=0 note=68 velocity=0 time=0
note_on channel=0 note=58 velocity=0 time=0
note_on channel=0 note=70 velocity=56 time=0
note_on channel=0 note=67 velocity=56 time=0
note_on channel=0 note=79 velocity=66 time=0
note_on channel=0 note=63 velocity=52 time=0
<meta message set_tempo tempo=524843 time=240>
<meta message set_tempo tempo=551369 time=240>
note_on channel=0 note=63 velocity=0 time=0
note_on channel=0 note=70 velocity=0 time=0
note_on channel=0 note=67 velocity=0 time=0
note_on channel=0 note=74 velocity=44 time=0
note_on channel=0 note=68 velocity=36 time=0
note_on channel=0 note=59 velocity=30 time=0
note_on channel=0 note=65 velocity=36 time=0
note_on channel=0 note=62 velocity=30 time=0
note_on channel=0 note=79 velocity=0 time=360
note_on channel=0 note=77 velocity=55 time=0
note_on channel=0 note=77 velocity=0 time=120
note_on channel=0 note=62 velocity=0 time=0
note_on channel=0 note=59 velocity=0 time=0
note_on channel=0 note=74 velocity=0 time=0
note_on channel=0 note=68 velocity=0 time=0
note_on channel=0 note=65 velocity=0 time=0
note_on channel=0 note=67 velocity=56 time=0
note_on channel=0 note=75 velocity=48 time=0
note_on channel=0 note=60 velocity=44 time=0
note_on channel=0 note=63 velocity=52 time=0
<meta message set_tempo tempo=543085 time=480>
note_on channel=0 note=63 velocity=0 time=0
note_on channel=0 note=67 velocity=0 time=0
note_on channel=0 note=75 velocity=0 time=0
note_on channel=0 note=60 velocity=0 time=0
note_on channel=0 note=65 velocity=53 time=0
note_on channel=0 note=68 velocity=46 time=0
note_on channel=0 note=74 velocity=63 time=0
note_on channel=0 note=53 velocity=43 time=0
<meta message set_tempo tempo=569638 time=360>
note_on channel=0 note=74 velocity=0 time=0
note_on channel=0 note=65 velocity=0 time=0
note_on channel=0 note=63 velocity=46 time=0
note_on channel=0 note=72 velocity=54 time=0
<meta message set_tempo tempo=551673 time=120>
note_on channel=0 note=72 velocity=0 time=0
note_on channel=0 note=53 velocity=0 time=0
note_on channel=0 note=68 velocity=0 time=0
note_on channel=0 note=63 velocity=0 time=0
note_on channel=0 note=62 velocity=50 time=0
note_on channel=0 note=67 velocity=50 time=0
note_on channel=0 note=71 velocity=59 time=0
note_on channel=0 note=55 velocity=48 time=0
note_on channel=0 note=55 velocity=0 time=480
note_on channel=0 note=62 velocity=0 time=0
note_on channel=0 note=67 velocity=0 time=0
note_on channel=0 note=71 velocity=0 time=0
note_on channel=0 note=60 velocity=52 time=0
note_on channel=0 note=67 velocity=52 time=0
note_on channel=0 note=69 velocity=61 time=0
note_on channel=0 note=55 velocity=49 time=0
note_on channel=0 note=55 velocity=0 time=360
note_on channel=0 note=60 velocity=0 time=0
note_on channel=0 note=67 velocity=0 time=0
note_on channel=0 note=69 velocity=0 time=0
note_on channel=0 note=62 velocity=42 time=0
note_on channel=0 note=67 velocity=42 time=0
note_on channel=0 note=71 velocity=50 time=0
note_on channel=0 note=53 velocity=34 time=0
note_on channel=0 note=55 velocity=40 time=0
<meta message set_tempo tempo=563539 time=120>
note_on channel=0 note=55 velocity=0 time=0
note_on channel=0 note=71 velocity=0 time=0
note_on channel=0 note=62 velocity=0 time=0
note_on channel=0 note=67 velocity=0 time=0
note_on channel=0 note=53 velocity=0 time=0
note_on channel=0 note=63 velocity=57 time=0
note_on channel=0 note=67 velocity=57 time=0
note_on channel=0 note=72 velocity=68 time=0
note_on channel=0 note=51 velocity=45 time=0
note_on channel=0 note=55 velocity=53 time=0
<meta message set_tempo tempo=563539 time=480>
note_on channel=0 note=55 velocity=0 time=0
note_on channel=0 note=72 velocity=0 time=0
note_on channel=0 note=63 velocity=0 time=0
note_on channel=0 note=67 velocity=0 time=0
note_on channel=0 note=51 velocity=0 time=0
note_on channel=0 note=67 velocity=59 time=0
note_on channel=0 note=77 velocity=78 time=0
note_on channel=0 note=50 velocity=46 time=0
note_on channel=0 note=55 velocity=46 time=0
note_on channel=0 note=59 velocity=55 time=0
<meta message set_tempo tempo=592183 time=360>
note_on channel=0 note=59 velocity=0 time=0
note_on channel=0 note=50 velocity=0 time=0
note_on channel=0 note=67 velocity=0 time=0
note_on channel=0 note=77 velocity=0 time=0
note_on channel=0 note=55 velocity=0 time=0
note_on channel=0 note=67 velocity=60 time=0
note_on channel=0 note=75 velocity=71 time=0
note_on channel=0 note=60 velocity=56 time=0
note_on channel=0 note=55 velocity=47 time=0
note_on channel=0 note=48 velocity=47 time=0
note_on channel=0 note=48 velocity=0 time=120
note_on channel=0 note=60 velocity=0 time=0
note_on channel=0 note=67 velocity=0 time=0
note_on channel=0 note=75 velocity=0 time=0
note_on channel=0 note=55 velocity=0 time=0
note_on channel=0 note=67 velocity=71 time=0
note_on channel=0 note=74 velocity=84 time=0
note_on channel=0 note=55 velocity=55 time=0
note_on channel=0 note=59 velocity=64 time=0
<meta message set_tempo tempo=551673 time=1440>
note_on channel=0 note=59 velocity=0 time=0
note_on channel=0 note=67 velocity=0 time=0
note_on channel=0 note=74 velocity=0 time=0
note_on channel=0 note=55 velocity=0 time=0
note_on channel=0 note=65 velocity=70 time=0
note_on channel=0 note=70 velocity=70 time=0
note_on channel=0 note=74 velocity=83 time=0
note_on channel=0 note=34 velocity=56 time=0
note_on channel=0 note=46 velocity=66 time=0
control_change channel=0 control=64 value=127 time=78
note_on channel=0 note=46 velocity=0 time=162
note_on channel=0 note=34 velocity=0 time=0
note_on channel=0 note=65 velocity=0 time=1
note_on channel=0 note=70 velocity=0 time=0
note_on channel=0 note=74 velocity=0 time=0
note_on channel=0 note=67 velocity=67 time=119
note_on channel=0 note=70 velocity=67 time=0
note_on channel=0 note=75 velocity=79 time=0
note_on channel=0 note=46 velocity=60 time=0
note_on channel=0 note=34 velocity=52 time=0
note_on channel=0 note=34 velocity=0 time=60
note_on channel=0 note=75 velocity=0 time=0
note_on channel=0 note=67 velocity=0 time=0
note_on channel=0 note=70 velocity=0 time=0
note_on channel=0 note=46 velocity=0 time=0
note_on channel=0 note=68 velocity=64 time=60
note_on channel=0 note=70 velocity=81 time=0
note_on channel=0 note=77 velocity=96 time=0
note_on channel=0 note=46 velocity=76 time=0
note_on channel=0 note=34 velocity=64 time=0
control_change channel=0 control=64 value=0 time=0
control_change channel=0 control=64 value=127 time=79
note_on channel=0 note=34 velocity=0 time=161
note_on channel=0 note=46 velocity=0 time=0
note_on channel=0 note=68 velocity=0 time=1
note_on channel=0 note=70 velocity=0 time=0
note_on channel=0 note=77 velocity=0 time=0
note_on channel=0 note=68 velocity=60 time=239
note_on channel=0 note=70 velocity=75 time=0
note_on channel=0 note=77 velocity=88 time=0
note_on channel=0 note=34 velocity=57 time=0
note_on channel=0 note=46 velocity=69 time=0
note_on channel=0 note=46 velocity=0 time=240
note_on channel=0 note=34 velocity=0 time=0
note_on channel=0 note=68 velocity=0 time=1
note_on channel=0 note=70 velocity=0 time=0
note_on channel=0 note=77 velocity=0 time=0
<meta message set_tempo tempo=545901 time=239>
note_on channel=0 note=68 velocity=60 time=0
note_on channel=0 note=70 velocity=75 time=0
note_on channel=0 note=77 velocity=88 time=0
note_on channel=0 note=46 velocity=71 time=0
note_on channel=0 note=34 velocity=59 time=0
note_on channel=0 note=34 velocity=0 time=240
note_on channel=0 note=46 velocity=0 time=0
note_on channel=0 note=68 velocity=0 time=1
note_on channel=0 note=70 velocity=0 time=0
note_on channel=0 note=77 velocity=0 time=0
<meta message set_tempo tempo=551673 time=239>
note_on channel=0 note=67 velocity=58 time=0
note_on channel=0 note=70 velocity=73 time=0
note_on channel=0 note=75 velocity=86 time=0
note_on channel=0 note=46 velocity=86 time=0
note_on channel=0 note=34 velocity=73 time=0
control_change channel=0 control=64 value=0 time=14
control_change channel=0 control=64 value=127 time=81
note_on channel=0 note=34 velocity=0 time=145
note_on channel=0 note=46 velocity=0 time=0
note_on channel=0 note=67 velocity=0 time=1
note_on channel=0 note=70 velocity=0 time=0
note_on channel=0 note=75 velocity=0 time=0
note_on channel=0 note=65 velocity=60 time=119
note_on channel=0 note=70 velocity=76 time=0
note_on channel=0 note=74 velocity=89 time=0
note_on channel=0 note=34 velocity=59 time=0
note_on channel=0 note=46 velocity=71 time=0
note_on channel=0 note=46 velocity=0 time=60
note_on channel=0 note=74 velocity=0 time=0
note_on channel=0 note=65 velocity=0 time=0
note_on channel=0 note=70 velocity=0 time=0
note_on channel=0 note=34 velocity=0 time=0
<meta message set_tempo tempo=551673 time=60>
note_on channel=0 note=70 velocity=84 time=0
note_on channel=0 note=79 velocity=99 time=0
note_on channel=0 note=34 velocity=67 time=0
note_on channel=0 note=46 velocity=79 time=0
control_change channel=0 control=64 value=0 time=0
control_change channel=0 control=64 value=127 time=117
note_on channel=0 note=46 velocity=0 time=3
note_on channel=0 note=34 velocity=0 time=0
<meta message set_tempo tempo=517241 time=120>
<meta message set_tempo tempo=547945 time=240>
note_on channel=0 note=36 velocity=76 time=0
note_on channel=0 note=48 velocity=91 time=0
control_change channel=0 control=64 value=0 time=14
note_on channel=0 note=48 velocity=0 time=106
note_on channel=0 note=36 velocity=0 time=0
note_on channel=0 note=79 velocity=0 time=240
note_on channel=0 note=70 velocity=0 time=0
note_on channel=0 note=68 velocity=70 time=0
note_on channel=0 note=70 velocity=70 time=0
note_on channel=0 note=77 velocity=83 time=0
note_on channel=0 note=38 velocity=60 time=0
note_on channel=0 note=50 velocity=74 time=0
note_on channel=0 note=50 velocity=0 time=120
note_on channel=0 note=77 velocity=0 time=0
note_on channel=0 note=68 velocity=0 time=0
note_on channel=0 note=70 velocity=0 time=0
note_on channel=0 note=38 velocity=0 time=0
note_on channel=0 note=67 velocity=62 time=0
note_on channel=0 note=70 velocity=62 time=0
note_on channel=0 note=75 velocity=74 time=0
note_on channel=0 note=39 velocity=71 time=0
note_on channel=0 note=51 velocity=84 time=0
control_change channel=0 control=64 value=127 time=117
note_on channel=0 note=51 velocity=0 time=123
note_on channel=0 note=75 velocity=0 time=0
note_on channel=0 note=67 velocity=0 time=0
note_on channel=0 note=70 velocity=0 time=0
note_on channel=0 note=39 velocity=0 time=0
<meta message set_tempo tempo=543085 time=240>
note_on channel=0 note=65 velocity=77 time=0
note_on channel=0 note=68 velocity=77 time=0
note_on channel=0 note=74 velocity=92 time=0
note_on channel=0 note=41 velocity=57 time=0
note_on channel=0 note=53 velocity=67 time=0
control_change channel=0 control=64 value=0 time=13
control_change channel=0 control=64 value=127 time=68
note_on channel=0 note=53 velocity=0 time=159
note_on channel=0 note=41 velocity=0 time=0
note_on channel=0 note=65 velocity=0 time=1
note_on channel=0 note=68 velocity=0 time=0
note_on channel=0 note=74 velocity=0 time=0
<meta message set_tempo tempo=569638 time=119>
note_on channel=0 note=63 velocity=67 time=0
note_on channel=0 note=68 velocity=67 time=0
note_on channel=0 note=72 velocity=79 time=0
note_on channel=0 note=41 velocity=44 time=0
note_on channel=0 note=53 velocity=53 time=0
note_on channel=0 note=53 velocity=0 time=60
note_on channel=0 note=72 velocity=0 time=0
note_on channel=0 note=63 velocity=0 time=0
note_on channel=0 note=68 velocity=0 time=0
note_on channel=0 note=41 velocity=0 time=0
<meta message set_tempo tempo=551673 time=60>
note_on channel=0 note=62 velocity=73 time=0
note_on channel=0 note=67 velocity=73 time=0
note_on channel=0 note=71 velocity=86 time=0
note_on channel=0 note=55 velocity=66 time=0
note_on channel=0 note=43 velocity=56 time=0
control_change channel=0 control=64 value=0 time=0
control_change channel=0 control=64 value=127 time=111
note_on channel=0 note=43 velocity=0 time=129
note_on channel=0 note=71 velocity=0 time=0
note_on channel=0 note=62 velocity=0 time=0
note_on channel=0 note=67 velocity=0 time=0
note_on channel=0 note=55 velocity=0 time=0
note_on channel=0 note=60 velocity=70 time=240
note_on channel=0 note=67 velocity=70 time=0
note_on channel=0 note=69 velocity=83 time=0
note_on channel=0 note=55 velocity=66 time=0
control_change channel=0 control=64 value=0 time=9
control_change channel=0 control=64 value=127 time=54
note_on channel=0 note=55 velocity=0 time=177
note_on channel=0 note=60 velocity=0 time=1
note_on channel=0 note=67 velocity=0 time=0
note_on channel=0 note=69 velocity=0 time=0
note_on channel=0 note=62 velocity=57 time=119
note_on channel=0 note=67 velocity=57 time=0
note_on channel=0 note=71 velocity=67 time=0
note_on channel=0 note=55 velocity=53 time=0
note_on channel=0 note=53 velocity=44 time=0
note_on channel=0 note=53 velocity=0 time=60
note_on channel=0 note=71 velocity=0 time=0
note_on channel=0 note=62 velocity=0 time=0
note_on channel=0 note=67 velocity=0 time=0
note_on channel=0 note=55 velocity=0 time=0
<meta message set_tempo tempo=563539 time=60>
note_on channel=0 note=63 velocity=76 time=0
note_on channel=0 note=67 velocity=76 time=0
note_on channel=0 note=72 velocity=90 time=0
note_on channel=0 note=51 velocity=59 time=0
note_on channel=0 note=55 velocity=71 time=0
control_change channel=0 control=64 value=0 time=17
control_change channel=0 control=64 value=127 time=72
<meta message set_tempo tempo=639522 time=151>
note_on channel=0 note=55 velocity=0 time=0
note_on channel=0 note=72 velocity=0 time=0
note_on channel=0 note=63 velocity=0 time=0
note_on channel=0 note=67 velocity=0 time=0
note_on channel=0 note=51 velocity=0 time=0
<meta message set_tempo tempo=566038 time=240>
note_on channel=0 note=67 velocity=84 time=0
note_on channel=0 note=75 velocity=99 time=0
note_on channel=0 note=43 velocity=79 time=0
note_on channel=0 note=31 velocity=67 time=0
control_change channel=0 control=64 value=0 time=11
control_change channel=0 control=64 value=127 time=56
note_on channel=0 note=31 velocity=0 time=173
note_on channel=0 note=43 velocity=0 time=0
note_on channel=0 note=75 velocity=0 time=1
note_on channel=0 note=67 velocity=0 time=0
<meta message set_tempo tempo=592183 time=119>
note_on channel=0 note=65 velocity=70 time=0
note_on channel=0 note=67 velocity=70 time=0
note_on channel=0 note=74 velocity=83 time=0
note_on channel=0 note=43 velocity=66 time=0
note_on channel=0 note=31 velocity=56 time=0
note_on channel=0 note=31 velocity=0 time=60
note_on channel=0 note=74 velocity=0 time=0
note_on channel=0 note=65 velocity=0 time=0
note_on channel=0 note=67 velocity=0 time=0
note_on channel=0 note=43 velocity=0 time=0
note_on channel=0 note=63 velocity=81 time=60
note_on channel=0 note=67 velocity=81 time=0
note_on channel=0 note=72 velocity=96 time=0
note_on channel=0 note=43 velocity=83 time=0
note_on channel=0 note=36 velocity=70 time=0
control_change channel=0 control=64 value=0 time=0
control_change channel=0 control=64 value=127 time=454
<meta message set_tempo tempo=592183 time=26>
<meta message set_tempo tempo=566038 time=960>
note_on channel=0 note=36 velocity=0 time=0
note_on channel=0 note=72 velocity=0 time=0
note_on channel=0 note=63 velocity=0 time=0
note_on channel=0 note=67 velocity=0 time=0
note_on channel=0 note=43 velocity=0 time=0
note_on channel=0 note=75 velocity=78 time=0
control_change channel=0 control=64 value=0 time=11
control_change channel=0 control=64 value=127 time=56
<meta message set_tempo tempo=592183 time=293>
note_on channel=0 note=75 velocity=0 time=0
note_on channel=0 note=74 velocity=70 time=0
note_on channel=0 note=74 velocity=0 time=120
note_on channel=0 note=63 velocity=71 time=0
note_on channel=0 note=68 velocity=71 time=0
note_on channel=0 note=72 velocity=83 time=0
note_on channel=0 note=44 velocity=61 time=0
note_on channel=0 note=51 velocity=61 time=0
note_on channel=0 note=56 velocity=72 time=0
control_change channel=0 control=64 value=0 time=0
control_change channel=0 control=64 value=127 time=454
<meta message set_tempo tempo=592183 time=26>
control_change channel=0 control=64 value=0 time=694
<meta message set_tempo tempo=636132 time=266>
note_on channel=0 note=56 velocity=0 time=0
note_on channel=0 note=68 velocity=0 time=0
note_on channel=0 note=72 velocity=0 time=0
note_on channel=0 note=63 velocity=0 time=0
note_on channel=0 note=51 velocity=0 time=0
note_on channel=0 note=44 velocity=0 time=0
note_on channel=0 note=72 velocity=69 time=0
control_change channel=0 control=64 value=0 time=11
note_on channel=0 note=72 velocity=0 time=49
note_on channel=0 note=75 velocity=78 time=0
control_change channel=0 control=64 value=127 time=7
<meta message set_tempo tempo=564334 time=53>
<meta message set_tempo tempo=592183 time=240>
note_on channel=0 note=75 velocity=0 time=0
note_on channel=0 note=74 velocity=70 time=0
note_on channel=0 note=74 velocity=0 time=120
note_on channel=0 note=67 velocity=71 time=0
note_on channel=0 note=72 velocity=83 time=0
note_on channel=0 note=48 velocity=61 time=0
note_on channel=0 note=39 velocity=61 time=0
note_on channel=0 note=51 velocity=72 time=0
control_change channel=0 control=64 value=0 time=0
control_change channel=0 control=64 value=127 time=454
<meta message set_tempo tempo=592183 time=26>
<meta message set_tempo tempo=543085 time=960>
note_on channel=0 note=51 velocity=0 time=0
note_on channel=0 note=48 velocity=0 time=0
note_on channel=0 note=67 velocity=0 time=0
note_on channel=0 note=72 velocity=0 time=0
note_on channel=0 note=39 velocity=0 time=0
note_on channel=0 note=74 velocity=78 time=0
note_on channel=0 note=48 velocity=48 time=0
note_on channel=0 note=60 velocity=57 time=0
control_change channel=0 control=64 value=0 time=13
control_change channel=0 control=64 value=127 time=68
<meta message set_tempo tempo=569638 time=279>
note_on channel=0 note=74 velocity=0 time=0
note_on channel=0 note=75 velocity=67 time=0
<meta message set_tempo tempo=551673 time=120>
note_on channel=0 note=75 velocity=0 time=0
note_on channel=0 note=60 velocity=0 time=0
note_on channel=0 note=48 velocity=0 time=0
note_on channel=0 note=68 velocity=62 time=0
note_on channel=0 note=72 velocity=62 time=0
note_on channel=0 note=77 velocity=73 time=0
note_on channel=0 note=53 velocity=56 time=0
note_on channel=0 note=41 velocity=47 time=0
control_change channel=0 control=64 value=0 time=0
control_change channel=0 control=64 value=127 time=111
note_on channel=0 note=41 velocity=0 time=369
note_on channel=0 note=77 velocity=0 time=0
note_on channel=0 note=68 velocity=0 time=0
note_on channel=0 note=72 velocity=0 time=0
note_on channel=0 note=53 velocity=0 time=0
note_on channel=0 note=67 velocity=59 time=0
note_on channel=0 note=72 velocity=59 time=0
note_on channel=0 note=75 velocity=70 time=0
note_on channel=0 note=43 velocity=47 time=0
note_on channel=0 note=55 velocity=56 time=0
control_change channel=0 control=64 value=0 time=9
control_change channel=0 control=64 value=127 time=90
note_on channel=0 note=55 velocity=0 time=141
note_on channel=0 note=43 velocity=0 time=0
note_on channel=0 note=67 velocity=0 time=1
note_on channel=0 note=72 velocity=0 time=0
note_on channel=0 note=75 velocity=0 time=0
note_on channel=0 note=65 velocity=48 time=119
note_on channel=0 note=74 velocity=57 time=0
note_on channel=0 note=44 velocity=38 time=0
note_on channel=0 note=56 velocity=45 time=0
note_on channel=0 note=56 velocity=0 time=60
note_on channel=0 note=65 velocity=0 time=0
note_on channel=0 note=74 velocity=0 time=0
note_on channel=0 note=44 velocity=0 time=0
<meta message set_tempo tempo=563539 time=60>
note_on channel=0 note=63 velocity=64 time=0
note_on channel=0 note=72 velocity=76 time=0
note_on channel=0 note=55 velocity=60 time=0
note_on channel=0 note=43 velocity=51 time=0
control_change channel=0 control=64 value=0 time=17
control_change channel=0 control=64 value=127 time=128
<meta message set_tempo tempo=603015 time=95>
<meta message set_tempo tempo=566038 time=240>
note_on channel=0 note=43 velocity=0 time=0
note_on channel=0 note=63 velocity=0 time=0
note_on channel=0 note=72 velocity=0 time=0
note_on channel=0 note=55 velocity=0 time=0
note_on channel=0 note=67 velocity=60 time=0
note_on channel=0 note=62 velocity=60 time=0
note_on channel=0 note=71 velocity=71 time=0
note_on channel=0 note=43 velocity=56 time=0
note_on channel=0 note=31 velocity=47 time=0
control_change channel=0 control=64 value=0 time=11
control_change channel=0 control=64 value=127 time=95
<meta message set_tempo tempo=592183 time=254>
note_on channel=0 note=31 velocity=0 time=120
note_on channel=0 note=67 velocity=0 time=0
note_on channel=0 note=43 velocity=0 time=0
note_on channel=0 note=63 velocity=57 time=0
note_on channel=0 note=67 velocity=57 time=0
note_on channel=0 note=72 velocity=68 time=0
note_on channel=0 note=48 velocity=59 time=0
note_on channel=0 note=43 velocity=50 time=0
note_on channel=0 note=36 velocity=50 time=0
control_change channel=0 control=64 value=0 time=0
note_on channel=0 note=71 velocity=0 time=2
note_on channel=0 note=62 velocity=0 time=0
control_change channel=0 control=64 value=127 time=452
<meta message set_tempo tempo=592183 time=26>
<meta message set_tempo tempo=566038 time=960>
note_on channel=0 note=48 velocity=0 time=0
note_on channel=0 note=63 velocity=0 time=0
note_on channel=0 note=72 velocity=0 time=0
note_on channel=0 note=36 velocity=0 time=0
note_on channel=0 note=43 velocity=0 time=0
note_on channel=0 note=67 velocity=0 time=0
note_on channel=0 note=75 velocity=60 time=0
control_change channel=0 control=64 value=0 time=11
control_change channel=0 control=64 value=127 time=56
<meta message set_tempo tempo=653452 time=293>
note_on channel=0 note=75 velocity=0 time=0
note_on channel=0 note=74 velocity=54 time=0
<meta message set_tempo tempo=592183 time=120>
note_on channel=0 note=74 velocity=0 time=0
note_on channel=0 note=63 velocity=55 time=0
note_on channel=0 note=68 velocity=55 time=0
note_on channel=0 note=72 velocity=65 time=0
note_on channel=0 note=44 velocity=47 time=0
note_on channel=0 note=51 velocity=47 time=0
note_on channel=0 note=56 velocity=56 time=0
control_change channel=0 control=64 value=0 time=0
control_change channel=0 control=64 value=127 time=454
<meta message set_tempo tempo=592183 time=26>
<meta message set_tempo tempo=566038 time=960>
note_on channel=0 note=56 velocity=0 time=0
note_on channel=0 note=68 velocity=0 time=0
note_on channel=0 note=72 velocity=0 time=0
note_on channel=0 note=63 velocity=0 time=0
note_on channel=0 note=51 velocity=0 time=0
note_on channel=0 note=44 velocity=0 time=0
note_on channel=0 note=75 velocity=59 time=0
control_change channel=0 control=64 value=0 time=11
control_change channel=0 control=64 value=127 time=56
<meta message set_tempo tempo=668003 time=293>
note_on channel=0 note=75 velocity=0 time=0
note_on channel=0 note=74 velocity=52 time=0
<meta message set_tempo tempo=592183 time=120>
note_on channel=0 note=74 velocity=0 time=0
note_on channel=0 note=67 velocity=51 time=0
note_on channel=0 note=72 velocity=61 time=0
note_on channel=0 note=39 velocity=50 time=0
note_on channel=0 note=48 velocity=50 time=0
note_on channel=0 note=51 velocity=59 time=0
control_change channel=0 control=64 value=0 time=0
control_change channel=0 control=64 value=127 time=454
<meta message set_tempo tempo=592183 time=26>
<meta message set_tempo tempo=543085 time=960>
note_on channel=0 note=51 velocity=0 time=0
note_on channel=0 note=39 velocity=0 time=0
note_on channel=0 note=67 velocity=0 time=0
note_on channel=0 note=72 velocity=0 time=0
note_on channel=0 note=48 velocity=0 time=0
note_on channel=0 note=73 velocity=54 time=0
control_change channel=0 control=64 value=0 time=18
<meta message set_tempo tempo=569638 time=342>
note_on channel=0 note=73 velocity=0 time=0
note_on channel=0 note=75 velocity=46 time=0
<meta message set_tempo tempo=520291 time=120>
note_on channel=0 note=75 velocity=0 time=0
note_on channel=0 note=73 velocity=40 time=0
note_on channel=0 note=68 velocity=40 time=0
note_on channel=0 note=49 velocity=39 time=0
control_change channel=0 control=64 value=127 time=26
note_on channel=0 note=73 velocity=0 time=34
note_on channel=0 note=75 velocity=43 time=0
<meta message set_tempo tempo=551369 time=60>
note_on channel=0 note=75 velocity=0 time=0
note_on channel=0 note=77 velocity=51 time=0
control_change channel=0 control=64 value=0 time=4
note_on channel=0 note=77 velocity=0 time=356
note_on channel=0 note=49 velocity=0 time=0
note_on channel=0 note=68 velocity=0 time=0
note_on channel=0 note=68 velocity=41 time=0
note_on channel=0 note=75 velocity=49 time=0
note_on channel=0 note=51 velocity=39 time=0
note_on channel=0 note=51 velocity=0 time=240
note_on channel=0 note=75 velocity=0 time=1
note_on channel=0 note=68 velocity=0 time=0
note_on channel=0 note=68 velocity=33 time=119
note_on channel=0 note=73 velocity=39 time=0
note_on channel=0 note=53 velocity=31 time=0
note_on channel=0 note=53 velocity=0 time=60
note_on channel=0 note=73 velocity=0 time=0
note_on channel=0 note=68 velocity=0 time=0
<meta message set_tempo tempo=563539 time=60>
note_on channel=0 note=68 velocity=44 time=0
note_on channel=0 note=72 velocity=53 time=0
note_on channel=0 note=51 velocity=42 time=0
<meta message set_tempo tempo=603015 time=240>
note_on channel=0 note=51 velocity=0 time=0
note_on channel=0 note=72 velocity=0 time=0
note_on channel=0 note=68 velocity=0 time=0
<meta message set_tempo tempo=566038 time=240>
note_on channel=0 note=63 velocity=37 time=0
note_on channel=0 note=67 velocity=37 time=0
note_on channel=0 note=61 velocity=37 time=0
note_on channel=0 note=70 velocity=44 time=0
note_on channel=0 note=51 velocity=35 time=0
note_on channel=0 note=39 velocity=28 time=0
note_on channel=0 note=39 velocity=0 time=240
note_on channel=0 note=67 velocity=0 time=0
note_on channel=0 note=63 velocity=0 time=0
note_on channel=0 note=51 velocity=0 time=0
note_on channel=0 note=70 velocity=0 time=1
note_on channel=0 note=61 velocity=0 time=0
<meta message set_tempo tempo=592183 time=119>
<meta message marker text='Teil 2' time=120>
note_on channel=0 note=60 velocity=39 time=0
note_on channel=0 note=63 velocity=39 time=0
note_on channel=0 note=68 velocity=47 time=0
note_on channel=0 note=44 velocity=40 time=0
control_change channel=0 control=64 value=127 time=156
note_on channel=0 note=44 velocity=0 time=4
note_on channel=0 note=48 velocity=33 time=0
note_on channel=0 note=48 velocity=0 time=160
note_on channel=0 note=51 velocity=33 time=0
<meta message set_tempo tempo=572410 time=160>
note_on channel=0 note=51 velocity=0 time=0
note_on channel=0 note=48 velocity=40 time=0
note_on channel=0 note=48 velocity=0 time=160
note_on channel=0 note=51 velocity=29 time=0
note_on channel=0 note=51 velocity=0 time=160
note_on channel=0 note=56 velocity=30 time=0
note_on channel=0 note=56 velocity=0 time=160
note_on channel=0 note=68 velocity=0 time=0
note_on channel=0 note=63 velocity=0 time=0
note_on channel=0 note=60 velocity=0 time=0
note_on channel=0 note=47 velocity=40 time=0
control_change channel=0 control=64 value=0 time=13
control_change channel=0 control=64 value=127 time=75
note_on channel=0 note=47 velocity=0 time=72
note_on channel=0 note=50 velocity=33 time=0
note_on channel=0 note=50 velocity=0 time=160
note_on channel=0 note=56 velocity=33 time=0
<meta message set_tempo tempo=551673 time=160>
note_on channel=0 note=56 velocity=0 time=0
note_on channel=0 note=68 velocity=53 time=0
note_on channel=0 note=48 velocity=40 time=0
control_change channel=0 control=64 value=0 time=9
control_change channel=0 control=64 value=127 time=65
note_on channel=0 note=48 velocity=0 time=86
note_on channel=0 note=51 velocity=35 time=0
note_on channel=0 note=51 velocity=0 time=160
note_on channel=0 note=56 velocity=35 time=0
<meta message set_tempo tempo=613371 time=40>
note_on channel=0 note=68 velocity=0 time=0
note_on channel=0 note=72 velocity=47 time=0
<meta message set_tempo tempo=564334 time=120>
note_on channel=0 note=72 velocity=0 time=0
note_on channel=0 note=56 velocity=0 time=0
note_on channel=0 note=75 velocity=57 time=0
note_on channel=0 note=44 velocity=40 time=0
control_change channel=0 control=64 value=0 time=0
control_change channel=0 control=64 value=127 time=132
note_on channel=0 note=44 velocity=0 time=28
note_on channel=0 note=48 velocity=33 time=0
note_on channel=0 note=48 velocity=0 time=160
note_on channel=0 note=56 velocity=33 time=0
note_on channel=0 note=75 velocity=0 time=40
<meta message set_tempo tempo=546349 time=120>
note_on channel=0 note=56 velocity=0 time=0
note_on channel=0 note=75 velocity=51 time=0
note_on channel=0 note=48 velocity=40 time=0
note_on channel=0 note=48 velocity=0 time=160
note_on channel=0 note=51 velocity=29 time=0
note_on channel=0 note=51 velocity=0 time=160
note_on channel=0 note=56 velocity=30 time=0
note_on channel=0 note=75 velocity=0 time=40
<meta message set_tempo tempo=545901 time=120>
note_on channel=0 note=56 velocity=0 time=0
note_on channel=0 note=75 velocity=53 time=0
note_on channel=0 note=47 velocity=40 time=0
control_change channel=0 control=64 value=0 time=9
control_change channel=0 control=64 value=127 time=94
note_on channel=0 note=47 velocity=0 time=57
note_on channel=0 note=50 velocity=33 time=0
note_on channel=0 note=50 velocity=0 time=160
note_on channel=0 note=56 velocity=33 time=0
note_on channel=0 note=75 velocity=0 time=40
<meta message set_tempo tempo=551673 time=120>
note_on channel=0 note=56 velocity=0 time=0
note_on channel=0 note=75 velocity=52 time=0
note_on channel=0 note=48 velocity=40 time=0
control_change channel=0 control=64 value=0 time=6
control_change channel=0 control=64 value=127 time=80
note_on channel=0 note=48 velocity=0 time=74
note_on channel=0 note=51 velocity=35 time=0
<meta message set_tempo tempo=601082 time=80>
note_on channel=0 note=51 velocity=0 time=80
note_on channel=0 note=56 velocity=35 time=0
note_on channel=0 note=75 velocity=0 time=40
<meta message set_tempo tempo=548847 time=120>
note_on channel=0 note=56 velocity=0 time=0
note_on channel=0 note=77 velocity=58 time=0
note_on channel=0 note=49 velocity=40 time=0
control_change channel=0 control=64 value=0 time=0
control_change channel=0 control=64 value=127 time=92
note_on channel=0 note=49 velocity=0 time=68
note_on channel=0 note=53 velocity=33 time=0
note_on channel=0 note=53 velocity=0 time=160
note_on channel=0 note=56 velocity=33 time=0
<meta message set_tempo tempo=527148 time=160>
note_on channel=0 note=56 velocity=0 time=0
note_on channel=0 note=49 velocity=40 time=0
control_change channel=0 control=64 value=0 time=6
control_change channel=0 control=64 value=127 time=86
note_on channel=0 note=49 velocity=0 time=68
note_on channel=0 note=55 velocity=29 time=0
<meta message set_tempo tempo=572410 time=160>
note_on channel=0 note=55 velocity=0 time=0
note_on channel=0 note=58 velocity=30 time=0
<meta message set_tempo tempo=551369 time=160>
note_on channel=0 note=58 velocity=0 time=0
note_on channel=0 note=77 velocity=0 time=0
note_on channel=0 note=75 velocity=55 time=0
note_on channel=0 note=48 velocity=40 time=0
control_change channel=0 control=64 value=0 time=17
control_change channel=0 control=64 value=127 time=120
note_on channel=0 note=48 velocity=0 time=23
note_on channel=0 note=56 velocity=33 time=0
note_on channel=0 note=56 velocity=0 time=160
note_on channel=0 note=60 velocity=33 time=0
<meta message set_tempo tempo=536577 time=160>
note_on channel=0 note=60 velocity=0 time=0
note_on channel=0 note=48 velocity=40 time=0
note_on channel=0 note=48 velocity=0 time=160
note_on channel=0 note=51 velocity=35 time=0
<meta message set_tempo tempo=569692 time=160>
note_on channel=0 note=51 velocity=0 time=0
note_on channel=0 note=56 velocity=35 time=0
<meta message set_tempo tempo=548847 time=160>
note_on channel=0 note=56 velocity=0 time=0
note_on channel=0 note=75 velocity=0 time=0
note_on channel=0 note=73 velocity=58 time=0
note_on channel=0 note=46 velocity=40 time=0
control_change channel=0 control=64 value=0 time=0
control_change channel=0 control=64 value=127 time=92
note_on channel=0 note=46 velocity=0 time=68
note_on channel=0 note=51 velocity=33 time=0
note_on channel=0 note=51 velocity=0 time=160
note_on channel=0 note=56 velocity=33 time=0
<meta message set_tempo tempo=534188 time=160>
note_on channel=0 note=56 velocity=0 time=0
note_on channel=0 note=46 velocity=40 time=0
control_change channel=0 control=64 value=0 time=6
control_change channel=0 control=64 value=127 time=86
note_on channel=0 note=46 velocity=0 time=68
note_on channel=0 note=51 velocity=29 time=0
<meta message set_tempo tempo=564334 time=160>
note_on channel=0 note=51 velocity=0 time=0
note_on channel=0 note=55 velocity=30 time=0
<meta message set_tempo tempo=546349 time=160>
note_on channel=0 note=55 velocity=0 time=0
note_on channel=0 note=73 velocity=0 time=0
note_on channel=0 note=72 velocity=52 time=0
note_on channel=0 note=44 velocity=35 time=0
control_change channel=0 control=64 value=0 time=17
control_change channel=0 control=64 value=127 time=120
note_on channel=0 note=44 velocity=0 time=23
note_on channel=0 note=51 velocity=28 time=0
note_on channel=0 note=51 velocity=0 time=160
note_on channel=0 note=58 velocity=28 time=0
<meta message set_tempo tempo=536577 time=160>
note_on channel=0 note=58 velocity=0 time=0
note_on channel=0 note=44 velocity=35 time=0
control_change channel=0 control=64 value=0 time=13
control_change channel=0 control=64 value=127 time=107
note_on channel=0 note=44 velocity=0 time=40
note_on channel=0 note=51 velocity=27 time=0
<meta message set_tempo tempo=575153 time=160>
note_on channel=0 note=51 velocity=0 time=0
note_on channel=0 note=56 velocity=35 time=0
<meta message set_tempo tempo=548847 time=160>
note_on channel=0 note=56 velocity=0 time=0
note_on channel=0 note=72 velocity=0 time=0
note_on channel=0 note=70 velocity=40 time=0
note_on channel=0 note=49 velocity=30 time=0
control_change channel=0 control=64 value=0 time=0
control_change channel=0 control=64 value=127 time=92
note_on channel=0 note=49 velocity=0 time=68
note_on channel=0 note=56 velocity=24 time=0
note_on channel=0 note=56 velocity=0 time=160
note_on channel=0 note=58 velocity=24 time=0
note_on channel=0 note=58 velocity=0 time=160
note_on channel=0 note=70 velocity=0 time=0
note_on channel=0 note=73 velocity=34 time=0
note_on channel=0 note=53 velocity=32 time=0
control_change channel=0 control=64 value=0 time=6
control_change channel=0 control=64 value=127 time=86
note_on channel=0 note=53 velocity=0 time=68
note_on channel=0 note=56 velocity=23 time=0
note_on channel=0 note=56 velocity=0 time=160
note_on channel=0 note=61 velocity=24 time=0
<meta message set_tempo tempo=556483 time=160>
note_on channel=0 note=61 velocity=0 time=0
note_on channel=0 note=73 velocity=0 time=0
note_on channel=0 note=72 velocity=40 time=0
note_on channel=0 note=51 velocity=30 time=0
control_change channel=0 control=64 value=0 time=17
control_change channel=0 control=64 value=127 time=120
note_on channel=0 note=51 velocity=0 time=23
note_on channel=0 note=56 velocity=23 time=0
note_on channel=0 note=56 velocity=0 time=160
note_on channel=0 note=60 velocity=23 time=0
<meta message set_tempo tempo=564334 time=160>
note_on channel=0 note=60 velocity=0 time=0
note_on channel=0 note=72 velocity=0 time=0
note_on channel=0 note=70 velocity=37 time=0
note_on channel=0 note=51 velocity=29 time=0
control_change channel=0 control=64 value=0 time=13
control_change channel=0 control=64 value=127 time=107
note_on channel=0 note=51 velocity=0 time=40
note_on channel=0 note=55 velocity=23 time=0
note_on channel=0 note=55 velocity=0 time=160
note_on channel=0 note=58 velocity=23 time=0
<meta message set_tempo tempo=580720 time=160>
note_on channel=0 note=58 velocity=0 time=0
note_on channel=0 note=70 velocity=0 time=0
note_on channel=0 note=68 velocity=48 time=0
note_on channel=0 note=44 velocity=33 time=0
control_change channel=0 control=64 value=0 time=7
control_change channel=0 control=64 value=127 time=149
note_on channel=0 note=44 velocity=0 time=4
note_on channel=0 note=48 velocity=23 time=0
note_on channel=0 note=48 velocity=0 time=160
note_on channel=0 note=56 velocity=23 time=0
<meta message set_tempo tempo=564334 time=160>
note_on channel=0 note=56 velocity=0 time=0
note_on channel=0 note=48 velocity=31 time=0
note_on channel=0 note=48 velocity=0 time=160
note_on channel=0 note=51 velocity=25 time=0
note_on channel=0 note=51 velocity=0 time=160
note_on channel=0 note=56 velocity=26 time=0
<meta message set_tempo tempo=559076 time=160>
note_on channel=0 note=56 velocity=0 time=0
note_on channel=0 note=68 velocity=0 time=0
note_on channel=0 note=47 velocity=40 time=0
control_change channel=0 control=64 value=0 time=13
control_change channel=0 control=64 value=127 time=75
note_on channel=0 note=47 velocity=0 time=72
note_on channel=0 note=50 velocity=31 time=0
note_on channel=0 note=50 velocity=0 time=160
note_on channel=0 note=56 velocity=31 time=0
<meta message set_tempo tempo=551673 time=160>
note_on channel=0 note=56 velocity=0 time=0
note_on channel=0 note=68 velocity=53 time=0
note_on channel=0 note=48 velocity=40 time=0
control_change channel=0 control=64 value=0 time=9
control_change channel=0 control=64 value=127 time=65
note_on channel=0 note=48 velocity=0 time=86
note_on channel=0 note=51 velocity=35 time=0
note_on channel=0 note=51 velocity=0 time=160
note_on channel=0 note=56 velocity=35 time=0
<meta message set_tempo tempo=613371 time=40>
note_on channel=0 note=68 velocity=0 time=0
note_on channel=0 note=72 velocity=47 time=0
<meta message set_tempo tempo=564334 time=120>
note_on channel=0 note=72 velocity=0 time=0
note_on channel=0 note=56 velocity=0 time=0
note_on channel=0 note=75 velocity=57 time=0
note_on channel=0 note=44 velocity=40 time=0
control_change channel=0 control=64 value=0 time=0
control_change channel=0 control=64 value=127 time=132
note_on channel=0 note=44 velocity=0 time=28
note_on channel=0 note=48 velocity=33 time=0
note_on channel=0 note=48 velocity=0 time=160
note_on channel=0 note=56 velocity=33 time=0
note_on channel=0 note=75 velocity=0 time=18
<meta message set_tempo tempo=546349 time=142>
note_on channel=0 note=56 velocity=0 time=0
note_on channel=0 note=63 velocity=42 time=0
note_on channel=0 note=75 velocity=51 time=0
note_on channel=0 note=48 velocity=40 time=0
note_on channel=0 note=48 velocity=0 time=160
note_on channel=0 note=51 velocity=29 time=0
note_on channel=0 note=51 velocity=0 time=160
note_on channel=0 note=56 velocity=30 time=0
note_on channel=0 note=75 velocity=0 time=40
note_on channel=0 note=63 velocity=0 time=0
<meta message set_tempo tempo=545901 time=120>
note_on channel=0 note=56 velocity=0 time=0
note_on channel=0 note=63 velocity=45 time=0
note_on channel=0 note=75 velocity=53 time=0
note_on channel=0 note=47 velocity=40 time=0
control_change channel=0 control=64 value=0 time=9
control_change channel=0 control=64 value=127 time=94
note_on channel=0 note=47 velocity=0 time=57
note_on channel=0 note=50 velocity=33 time=0
note_on channel=0 note=50 velocity=0 time=160
note_on channel=0 note=56 velocity=33 time=0
note_on channel=0 note=75 velocity=0 time=40
note_on channel=0 note=63 velocity=0 time=0
<meta message set_tempo tempo=551673 time=120>
note_on channel=0 note=56 velocity=0 time=0
note_on channel=0 note=63 velocity=44 time=0
note_on channel=0 note=75 velocity=52 time=0
note_on channel=0 note=48 velocity=40 time=0
control_change channel=0 control=64 value=0 time=6
control_change channel=0 control=64 value=127 time=80
note_on channel=0 note=48 velocity=0 time=74
note_on channel=0 note=51 velocity=35 time=0
<meta message set_tempo tempo=601082 time=80>
note_on channel=0 note=51 velocity=0 time=80
note_on channel=0 note=56 velocity=35 time=0
<meta message set_tempo tempo=751691 time=40>
note_on channel=0 note=75 velocity=0 time=0
note_on channel=0 note=63 velocity=0 time=0
<meta message set_tempo tempo=551369 time=120>
note_on channel=0 note=56 velocity=0 time=0
note_on channel=0 note=64 velocity=49 time=0
note_on channel=0 note=76 velocity=58 time=0
note_on channel=0 note=49 velocity=40 time=0
control_change channel=0 control=64 value=0 time=0
control_change channel=0 control=64 value=127 time=92
note_on channel=0 note=49 velocity=0 time=68
note_on channel=0 note=52 velocity=33 time=0
note_on channel=0 note=52 velocity=0 time=160
note_on channel=0 note=56 velocity=33 time=0
<meta message set_tempo tempo=538987 time=160>
note_on channel=0 note=56 velocity=0 time=0
note_on channel=0 note=49 velocity=40 time=0
control_change channel=0 control=64 value=0 time=6
control_change channel=0 control=64 value=127 time=86
note_on channel=0 note=49 velocity=0 time=68
note_on channel=0 note=52 velocity=29 time=0
<meta message set_tempo tempo=572410 time=160>
note_on channel=0 note=52 velocity=0 time=0
note_on channel=0 note=58 velocity=30 time=0
<meta message set_tempo tempo=551369 time=160>
note_on channel=0 note=58 velocity=0 time=0
note_on channel=0 note=76 velocity=0 time=0
note_on channel=0 note=64 velocity=0 time=0
note_on channel=0 note=63 velocity=46 time=0
note_on channel=0 note=75 velocity=55 time=0
note_on channel=0 note=47 velocity=40 time=0
control_change channel=0 control=64 value=0 time=17
control_change channel=0 control=64 value=127 time=120
note_on channel=0 note=47 velocity=0 time=23
note_on channel=0 note=54 velocity=33 time=0
note_on channel=0 note=54 velocity=0 time=160
note_on channel=0 note=59 velocity=33 time=0
<meta message set_tempo tempo=536577 time=160>
note_on channel=0 note=59 velocity=0 time=0
note_on channel=0 note=47 velocity=40 time=0
note_on channel=0 note=47 velocity=0 time=160
note_on channel=0 note=54 velocity=35 time=0
<meta message set_tempo tempo=569692 time=160>
note_on channel=0 note=54 velocity=0 time=0
note_on channel=0 note=59 velocity=35 time=0
<meta message set_tempo tempo=548847 time=160>
note_on channel=0 note=59 velocity=0 time=0
note_on channel=0 note=75 velocity=0 time=0
note_on channel=0 note=63 velocity=0 time=0
note_on channel=0 note=73 velocity=58 time=0
note_on channel=0 note=52 velocity=40 time=0
control_change channel=0 control=64 value=0 time=0
control_change channel=0 control=64 value=127 time=92
note_on channel=0 note=52 velocity=0 time=68
note_on channel=0 note=56 velocity=33 time=0
note_on channel=0 note=56 velocity=0 time=160
note_on channel=0 note=61 velocity=33 time=0
<meta message set_tempo tempo=534188 time=160>
note_on channel=0 note=61 velocity=0 time=0
note_on channel=0 note=52 velocity=40 time=0
control_change channel=0 control=64 value=0 time=6
control_change channel=0 control=64 value=127 time=86
note_on channel=0 note=52 velocity=0 time=68
note_on channel=0 note=54 velocity=29 time=0
<meta message set_tempo tempo=564334 time=160>
note_on channel=0 note=54 velocity=0 time=0
note_on channel=0 note=58 velocity=30 time=0
<meta message set_tempo tempo=546349 time=160>
note_on channel=0 note=58 velocity=0 time=0
note_on channel=0 note=73 velocity=0 time=0
note_on channel=0 note=71 velocity=52 time=0
note_on channel=0 note=51 velocity=35 time=0
control_change channel=0 control=64 value=0 time=17
control_change channel=0 control=64 value=127 time=120
note_on channel=0 note=51 velocity=0 time=23
note_on channel=0 note=54 velocity=28 time=0
note_on channel=0 note=54 velocity=0 time=160
note_on channel=0 note=59 velocity=28 time=0
<meta message set_tempo tempo=536577 time=160>
note_on channel=0 note=59 velocity=0 time=0
note_on channel=0 note=51 velocity=35 time=0
control_change channel=0 control=64 value=0 time=13
control_change channel=0 control=64 value=127 time=107
note_on channel=0 note=51 velocity=0 time=40
note_on channel=0 note=55 velocity=27 time=0
note_on channel=0 note=71 velocity=0 time=80
note_on channel=0 note=70 velocity=45 time=0
note_on channel=0 note=55 velocity=0 time=80
note_on channel=0 note=61 velocity=35 time=0
<meta message set_tempo tempo=548847 time=160>
note_on channel=0 note=61 velocity=0 time=0
note_on channel=0 note=70 velocity=0 time=0
note_on channel=0 note=68 velocity=40 time=0
note_on channel=0 note=52 velocity=30 time=0
control_change channel=0 control=64 value=0 time=0
control_change channel=0 control=64 value=127 time=92
note_on channel=0 note=52 velocity=0 time=68
note_on channel=0 note=56 velocity=24 time=0
note_on channel=0 note=56 velocity=0 time=160
note_on channel=0 note=59 velocity=24 time=0
<meta message set_tempo tempo=507099 time=40>
<meta message set_tempo tempo=538987 time=120>
note_on channel=0 note=59 velocity=0 time=0
note_on channel=0 note=68 velocity=0 time=0
note_on channel=0 note=68 velocity=33 time=0
note_on channel=0 note=56 velocity=32 time=0
control_change channel=0 control=64 value=0 time=6
note_on channel=0 note=68 velocity=0 time=54
note_on channel=0 note=76 velocity=52 time=0
control_change channel=0 control=64 value=127 time=32
note_on channel=0 note=56 velocity=0 time=68
note_on channel=0 note=59 velocity=23 time=0
note_on channel=0 note=59 velocity=0 time=160
note_on channel=0 note=64 velocity=24 time=0
<meta message set_tempo tempo=556483 time=160>
note_on channel=0 note=64 velocity=0 time=0
note_on channel=0 note=76 velocity=0 time=0
note_on channel=0 note=75 velocity=46 time=0
note_on channel=0 note=54 velocity=30 time=0
control_change channel=0 control=64 value=0 time=17
control_change channel=0 control=64 value=127 time=75
note_on channel=0 note=54 velocity=0 time=68
note_on channel=0 note=59 velocity=23 time=0
note_on channel=0 note=59 velocity=0 time=160
note_on channel=0 note=63 velocity=23 time=0
<meta message set_tempo tempo=564334 time=160>
note_on channel=0 note=63 velocity=0 time=0
note_on channel=0 note=75 velocity=0 time=0
note_on channel=0 note=73 velocity=42 time=0
note_on channel=0 note=54 velocity=29 time=0
control_change channel=0 control=64 value=0 time=13
control_change channel=0 control=64 value=127 time=65
note_on channel=0 note=54 velocity=0 time=82
note_on channel=0 note=58 velocity=23 time=0
note_on channel=0 note=58 velocity=0 time=160
note_on channel=0 note=61 velocity=23 time=0
<meta message set_tempo tempo=577923 time=160>
note_on channel=0 note=61 velocity=0 time=0
note_on channel=0 note=73 velocity=0 time=0
note_on channel=0 note=71 velocity=48 time=0
note_on channel=0 note=47 velocity=33 time=0
control_change channel=0 control=64 value=0 time=7
control_change channel=0 control=64 value=127 time=149
note_on channel=0 note=47 velocity=0 time=4
note_on channel=0 note=51 velocity=23 time=0
note_on channel=0 note=51 velocity=0 time=160
note_on channel=0 note=59 velocity=23 time=0
<meta message set_tempo tempo=564334 time=160>
note_on channel=0 note=59 velocity=0 time=0
note_on channel=0 note=51 velocity=31 time=0
note_on channel=0 note=51 velocity=0 time=160
note_on channel=0 note=54 velocity=25 time=0
note_on channel=0 note=54 velocity=0 time=160
note_on channel=0 note=59 velocity=27 time=0
note_on channel=0 note=59 velocity=0 time=160
note_on channel=0 note=50 velocity=42 time=0
control_change channel=0 control=64 value=0 time=13
control_change channel=0 control=64 value=127 time=75
note_on channel=0 note=50 velocity=0 time=72
note_on channel=0 note=53 velocity=32 time=0
note_on channel=0 note=53 velocity=0 time=160
note_on channel=0 note=59 velocity=32 time=0
<meta message set_tempo tempo=551673 time=160>
note_on channel=0 note=59 velocity=0 time=0
note_on channel=0 note=71 velocity=0 time=0
note_on channel=0 note=71 velocity=57 time=0
note_on channel=0 note=51 velocity=42 time=0
control_change channel=0 control=64 value=0 time=9
control_change channel=0 control=64 value=127 time=65
note_on channel=0 note=51 velocity=0 time=86
note_on channel=0 note=54 velocity=37 time=0
note_on channel=0 note=54 velocity=0 time=160
note_on channel=0 note=59 velocity=38 time=0
<meta message set_tempo tempo=613371 time=40>
note_on channel=0 note=71 velocity=0 time=0
note_on channel=0 note=75 velocity=50 time=0
<meta message set_tempo tempo=561693 time=120>
note_on channel=0 note=75 velocity=0 time=0
note_on channel=0 note=59 velocity=0 time=0
note_on channel=0 note=66 velocity=46 time=0
note_on channel=0 note=78 velocity=62 time=0
note_on channel=0 note=47 velocity=44 time=0
control_change channel=0 control=64 value=0 time=0
control_change channel=0 control=64 value=127 time=132
note_on channel=0 note=47 velocity=0 time=28
note_on channel=0 note=51 velocity=36 time=0
note_on channel=0 note=51 velocity=0 time=160
note_on channel=0 note=54 velocity=37 time=0
note_on channel=0 note=78 velocity=0 time=159
note_on channel=0 note=66 velocity=0 time=0
<meta message set_tempo tempo=546349 time=1>
note_on channel=0 note=54 velocity=0 time=0
note_on channel=0 note=66 velocity=48 time=0
note_on channel=0 note=78 velocity=59 time=0
note_on channel=0 note=47 velocity=47 time=0
note_on channel=0 note=47 velocity=0 time=160
note_on channel=0 note=51 velocity=34 time=0
note_on channel=0 note=51 velocity=0 time=160
note_on channel=0 note=54 velocity=36 time=0
note_on channel=0 note=78 velocity=0 time=159
note_on channel=0 note=66 velocity=0 time=0
<meta message set_tempo tempo=545901 time=1>
note_on channel=0 note=54 velocity=0 time=0
note_on channel=0 note=67 velocity=57 time=0
note_on channel=0 note=79 velocity=67 time=0
note_on channel=0 note=46 velocity=51 time=0
control_change channel=0 control=64 value=0 time=9
control_change channel=0 control=64 value=127 time=94
note_on channel=0 note=46 velocity=0 time=57
note_on channel=0 note=49 velocity=48 time=0
note_on channel=0 note=49 velocity=0 time=160
note_on channel=0 note=51 velocity=49 time=0
note_on channel=0 note=79 velocity=0 time=159
note_on channel=0 note=67 velocity=0 time=0
<meta message set_tempo tempo=551673 time=1>
note_on channel=0 note=51 velocity=0 time=0
note_on channel=0 note=68 velocity=59 time=0
note_on channel=0 note=80 velocity=71 time=0
note_on channel=0 note=44 velocity=62 time=0
control_change channel=0 control=64 value=0 time=6
control_change channel=0 control=64 value=127 time=80
note_on channel=0 note=44 velocity=0 time=74
note_on channel=0 note=49 velocity=55 time=0
note_on channel=0 note=49 velocity=0 time=160
note_on channel=0 note=51 velocity=56 time=0
note_on channel=0 note=80 velocity=0 time=159
note_on channel=0 note=68 velocity=0 time=0
<meta message set_tempo tempo=546349 time=1>
note_on channel=0 note=51 velocity=0 time=0
note_on channel=0 note=70 velocity=64 time=0
note_on channel=0 note=82 velocity=79 time=0
note_on channel=0 note=43 velocity=72 time=0
control_change channel=0 control=64 value=0 time=7
control_change channel=0 control=64 value=127 time=79
note_on channel=0 note=43 velocity=0 time=74
note_on channel=0 note=49 velocity=58 time=0
note_on channel=0 note=49 velocity=0 time=160
note_on channel=0 note=51 velocity=62 time=0
note_on channel=0 note=82 velocity=0 time=159
note_on channel=0 note=70 velocity=0 time=0
<meta message set_tempo tempo=545901 time=1>
note_on channel=0 note=51 velocity=0 time=0
note_on channel=0 note=73 velocity=64 time=0
note_on channel=0 note=85 velocity=77 time=0
note_on channel=0 note=43 velocity=69 time=0
control_change channel=0 control=64 value=0 time=9
control_change channel=0 control=64 value=127 time=94
note_on channel=0 note=43 velocity=0 time=57
note_on channel=0 note=46 velocity=48 time=0
note_on channel=0 note=46 velocity=0 time=160
note_on channel=0 note=51 velocity=55 time=0
note_on channel=0 note=85 velocity=0 time=159
note_on channel=0 note=73 velocity=0 time=0
<meta message set_tempo tempo=551673 time=1>
note_on channel=0 note=51 velocity=0 time=0
note_on channel=0 note=71 velocity=62 time=0
note_on channel=0 note=83 velocity=74 time=0
note_on channel=0 note=44 velocity=62 time=0
control_change channel=0 control=64 value=0 time=6
control_change channel=0 control=64 value=127 time=80
note_on channel=0 note=44 velocity=0 time=74
note_on channel=0 note=47 velocity=49 time=0
note_on channel=0 note=47 velocity=0 time=160
note_on channel=0 note=51 velocity=48 time=0
note_on channel=0 note=83 velocity=0 time=159
note_on channel=0 note=71 velocity=0 time=0
<meta message set_tempo tempo=551673 time=1>
note_on channel=0 note=51 velocity=0 time=0
note_on channel=0 note=70 velocity=49 time=0
note_on channel=0 note=82 velocity=58 time=0
note_on channel=0 note=49 velocity=44 time=0
control_change channel=0 control=64 value=0 time=9
control_change channel=0 control=64 value=127 time=65
note_on channel=0 note=49 velocity=0 time=86
note_on channel=0 note=52 velocity=38 time=0
note_on channel=0 note=52 velocity=0 time=160
note_on channel=0 note=58 velocity=38 time=0
<meta message set_tempo tempo=580720 time=40>
note_on channel=0 note=82 velocity=0 time=0
note_on channel=0 note=70 velocity=0 time=0
note_on channel=0 note=68 velocity=42 time=0
note_on channel=0 note=80 velocity=51 time=0
<meta message set_tempo tempo=567001 time=120>
note_on channel=0 note=80 velocity=0 time=0
note_on channel=0 note=68 velocity=0 time=0
note_on channel=0 note=58 velocity=0 time=0
note_on channel=0 note=67 velocity=49 time=0
note_on channel=0 note=79 velocity=58 time=0
note_on channel=0 note=51 velocity=33 time=0
control_change channel=0 control=64 value=0 time=7
control_change channel=0 control=64 value=127 time=149
note_on channel=0 note=51 velocity=0 time=4
note_on channel=0 note=58 velocity=27 time=0
note_on channel=0 note=58 velocity=0 time=160
note_on channel=0 note=61 velocity=27 time=0
<meta message set_tempo tempo=556483 time=160>
note_on channel=0 note=61 velocity=0 time=0
note_on channel=0 note=79 velocity=0 time=0
note_on channel=0 note=67 velocity=0 time=0
note_on channel=0 note=67 velocity=46 time=0
note_on channel=0 note=79 velocity=55 time=0
note_on channel=0 note=51 velocity=34 time=0
note_on channel=0 note=51 velocity=0 time=160
note_on channel=0 note=58 velocity=25 time=0
note_on channel=0 note=58 velocity=0 time=160
note_on channel=0 note=61 velocity=26 time=0
<meta message set_tempo tempo=546349 time=160>
note_on channel=0 note=61 velocity=0 time=0
note_on channel=0 note=79 velocity=0 time=0
note_on channel=0 note=67 velocity=0 time=0
note_on channel=0 note=68 velocity=45 time=0
note_on channel=0 note=80 velocity=53 time=0
note_on channel=0 note=51 velocity=36 time=0
control_change channel=0 control=64 value=0 time=13
control_change channel=0 control=64 value=127 time=75
note_on channel=0 note=51 velocity=0 time=72
note_on channel=0 note=58 velocity=29 time=0
note_on channel=0 note=80 velocity=0 time=80
note_on channel=0 note=68 velocity=0 time=0
note_on channel=0 note=67 velocity=37 time=0
note_on channel=0 note=79 velocity=45 time=0
note_on channel=0 note=58 velocity=0 time=80
note_on channel=0 note=61 velocity=29 time=0
<meta message set_tempo tempo=564334 time=160>
note_on channel=0 note=61 velocity=0 time=0
note_on channel=0 note=79 velocity=0 time=0
note_on channel=0 note=67 velocity=0 time=0
note_on channel=0 note=65 velocity=38 time=0
note_on channel=0 note=77 velocity=46 time=0
note_on channel=0 note=51 velocity=35 time=0
note_on channel=0 note=51 velocity=0 time=160
note_on channel=0 note=58 velocity=28 time=0
note_on channel=0 note=77 velocity=0 time=80
note_on channel=0 note=65 velocity=0 time=0
note_on channel=0 note=67 velocity=37 time=0
note_on channel=0 note=79 velocity=45 time=0
note_on channel=0 note=58 velocity=0 time=80
note_on channel=0 note=61 velocity=28 time=0
<meta message set_tempo tempo=613371 time=40>
<meta message set_tempo tempo=577923 time=120>
note_on channel=0 note=61 velocity=0 time=0
note_on channel=0 note=79 velocity=0 time=0
note_on channel=0 note=67 velocity=0 time=0
note_on channel=0 note=68 velocity=40 time=0
note_on channel=0 note=80 velocity=48 time=0
note_on channel=0 note=56 velocity=33 time=0
control_change channel=0 control=64 value=0 time=7
control_change channel=0 control=64 value=127 time=149
note_on channel=0 note=56 velocity=0 time=4
note_on channel=0 note=60 velocity=23 time=0
note_on channel=0 note=60 velocity=0 time=160
note_on channel=0 note=63 velocity=23 time=0
<meta message set_tempo tempo=564334 time=160>
note_on channel=0 note=63 velocity=0 time=0
note_on channel=0 note=60 velocity=31 time=0
note_on channel=0 note=60 velocity=0 time=160
note_on channel=0 note=63 velocity=25 time=0
note_on channel=0 note=63 velocity=0 time=160
note_on channel=0 note=68 velocity=27 time=0
note_on channel=0 note=68 velocity=0 time=160
note_on channel=0 note=59 velocity=38 time=0
control_change channel=0 control=64 value=0 time=13
control_change channel=0 control=64 value=127 time=75
note_on channel=0 note=59 velocity=0 time=72
note_on channel=0 note=62 velocity=32 time=0
note_on channel=0 note=62 velocity=0 time=160
note_on channel=0 note=68 velocity=32 time=0
<meta message set_tempo tempo=551673 time=160>
note_on channel=0 note=68 velocity=0 time=0
note_on channel=0 note=80 velocity=0 time=0
note_on channel=0 note=68 velocity=0 time=0
note_on channel=0 note=80 velocity=57 time=0
note_on channel=0 note=60 velocity=42 time=0
control_change channel=0 control=64 value=0 time=9
control_change channel=0 control=64 value=127 time=65
note_on channel=0 note=60 velocity=0 time=86
note_on channel=0 note=63 velocity=37 time=0
note_on channel=0 note=63 velocity=0 time=160
note_on channel=0 note=68 velocity=38 time=0
<meta message set_tempo tempo=613371 time=40>
note_on channel=0 note=80 velocity=0 time=0
note_on channel=0 note=84 velocity=50 time=0
<meta message set_tempo tempo=564334 time=120>
note_on channel=0 note=84 velocity=0 time=0
note_on channel=0 note=68 velocity=0 time=0
note_on channel=0 note=75 velocity=57 time=0
note_on channel=0 note=87 velocity=68 time=0
note_on channel=0 note=56 velocity=44 time=0
control_change channel=0 control=64 value=0 time=0
control_change channel=0 control=64 value=127 time=132
note_on channel=0 note=56 velocity=0 time=28
note_on channel=0 note=60 velocity=36 time=0
note_on channel=0 note=60 velocity=0 time=160
note_on channel=0 note=68 velocity=37 time=0
note_on channel=0 note=87 velocity=0 time=40
note_on channel=0 note=75 velocity=0 time=0
<meta message set_tempo tempo=546349 time=120>
note_on channel=0 note=68 velocity=0 time=0
note_on channel=0 note=75 velocity=52 time=0
note_on channel=0 note=87 velocity=62 time=0
note_on channel=0 note=60 velocity=47 time=0
note_on channel=0 note=60 velocity=0 time=160
note_on channel=0 note=63 velocity=34 time=0
note_on channel=0 note=63 velocity=0 time=160
note_on channel=0 note=68 velocity=36 time=0
note_on channel=0 note=87 velocity=0 time=40
note_on channel=0 note=75 velocity=0 time=0
<meta message set_tempo tempo=545901 time=120>
note_on channel=0 note=68 velocity=0 time=0
note_on channel=0 note=75 velocity=56 time=0
note_on channel=0 note=87 velocity=67 time=0
note_on channel=0 note=59 velocity=50 time=0
control_change channel=0 control=64 value=0 time=9
control_change channel=0 control=64 value=127 time=94
note_on channel=0 note=59 velocity=0 time=57
note_on channel=0 note=62 velocity=42 time=0
note_on channel=0 note=62 velocity=0 time=160
note_on channel=0 note=68 velocity=43 time=0
note_on channel=0 note=87 velocity=0 time=40
note_on channel=0 note=75 velocity=0 time=0
<meta message set_tempo tempo=551673 time=120>
note_on channel=0 note=68 velocity=0 time=0
note_on channel=0 note=75 velocity=60 time=0
note_on channel=0 note=87 velocity=71 time=0
note_on channel=0 note=60 velocity=55 time=0
control_change channel=0 control=64 value=0 time=6
control_change channel=0 control=64 value=127 time=80
note_on channel=0 note=60 velocity=0 time=74
note_on channel=0 note=63 velocity=47 time=0
note_on channel=0 note=63 velocity=0 time=160
note_on channel=0 note=68 velocity=45 time=0
note_on channel=0 note=87 velocity=0 time=40
note_on channel=0 note=75 velocity=0 time=0
<meta message set_tempo tempo=546349 time=120>
note_on channel=0 note=68 velocity=0 time=0
note_on channel=0 note=77 velocity=58 time=0
note_on channel=0 note=89 velocity=69 time=0
note_on channel=0 note=61 velocity=61 time=0
control_change channel=0 control=64 value=0 time=7
control_change channel=0 control=64 value=127 time=79
note_on channel=0 note=61 velocity=0 time=74
note_on channel=0 note=65 velocity=46 time=0
note_on channel=0 note=65 velocity=0 time=160
note_on channel=0 note=68 velocity=51 time=0
note_on channel=0 note=89 velocity=0 time=159
note_on channel=0 note=77 velocity=0 time=0
<meta message set_tempo tempo=545901 time=1>
note_on channel=0 note=68 velocity=0 time=0
note_on channel=0 note=79 velocity=57 time=0
note_on channel=0 note=91 velocity=72 time=0
note_on channel=0 note=61 velocity=61 time=0
control_change channel=0 control=64 value=0 time=9
control_change channel=0 control=64 value=127 time=94
note_on channel=0 note=61 velocity=0 time=57
note_on channel=0 note=63 velocity=49 time=0
note_on channel=0 note=63 velocity=0 time=160
note_on channel=0 note=70 velocity=49 time=0
note_on channel=0 note=91 velocity=0 time=159
note_on channel=0 note=79 velocity=0 time=0
<meta message set_tempo tempo=551673 time=1>
note_on channel=0 note=70 velocity=0 time=0
note_on channel=0 note=80 velocity=58 time=0
note_on channel=0 note=92 velocity=69 time=0
note_on channel=0 note=60 velocity=57 time=0
control_change channel=0 control=64 value=0 time=6
control_change channel=0 control=64 value=127 time=80
note_on channel=0 note=60 velocity=0 time=74
note_on channel=0 note=63 velocity=45 time=0
note_on channel=0 note=63 velocity=0 time=160
note_on channel=0 note=68 velocity=44 time=0
note_on channel=0 note=92 velocity=0 time=159
note_on channel=0 note=80 velocity=0 time=0
<meta message set_tempo tempo=551673 time=1>
note_on channel=0 note=68 velocity=0 time=0
note_on channel=0 note=75 velocity=51 time=0
note_on channel=0 note=87 velocity=61 time=0
note_on channel=0 note=60 velocity=44 time=0
control_change channel=0 control=64 value=0 time=9
control_change channel=0 control=64 value=127 time=65
note_on channel=0 note=60 velocity=0 time=86
note_on channel=0 note=63 velocity=38 time=0
note_on channel=0 note=63 velocity=0 time=160
note_on channel=0 note=68 velocity=38 time=0
<meta message set_tempo tempo=580720 time=40>
note_on channel=0 note=87 velocity=0 time=0
note_on channel=0 note=75 velocity=0 time=0
<meta message set_tempo tempo=564334 time=120>
note_on channel=0 note=68 velocity=0 time=0
note_on channel=0 note=75 velocity=56 time=0
note_on channel=0 note=87 velocity=66 time=0
note_on channel=0 note=58 velocity=44 time=0
control_change channel=0 control=64 value=0 time=0
control_change channel=0 control=64 value=127 time=132
note_on channel=0 note=58 velocity=0 time=28
note_on channel=0 note=63 velocity=36 time=0
note_on channel=0 note=63 velocity=0 time=160
note_on channel=0 note=70 velocity=37 time=0
<meta message set_tempo tempo=546349 time=160>
note_on channel=0 note=70 velocity=0 time=0
note_on channel=0 note=87 velocity=0 time=0
note_on channel=0 note=75 velocity=0 time=0
note_on channel=0 note=73 velocity=45 time=0
note_on channel=0 note=85 velocity=54 time=0
note_on channel=0 note=58 velocity=47 time=0
note_on channel=0 note=58 velocity=0 time=160
note_on channel=0 note=63 velocity=34 time=0
note_on channel=0 note=85 velocity=0 time=80
note_on channel=0 note=73 velocity=0 time=0
note_on channel=0 note=63 velocity=0 time=80
note_on channel=0 note=67 velocity=36 time=0
control_change channel=0 control=64 value=0 time=155
<meta message set_tempo tempo=545901 time=5>
note_on channel=0 note=67 velocity=0 time=0
note_on channel=0 note=73 velocity=52 time=0
note_on channel=0 note=85 velocity=62 time=0
note_on channel=0 note=56 velocity=45 time=0
control_change channel=0 control=64 value=127 time=103
note_on channel=0 note=56 velocity=0 time=57
note_on channel=0 note=63 velocity=36 time=0
note_on channel=0 note=63 velocity=0 time=160
note_on channel=0 note=68 velocity=36 time=0
<meta message set_tempo tempo=551673 time=160>
note_on channel=0 note=68 velocity=0 time=0
note_on channel=0 note=85 velocity=0 time=0
note_on channel=0 note=73 velocity=0 time=0
note_on channel=0 note=72 velocity=46 time=0
note_on channel=0 note=84 velocity=55 time=0
note_on channel=0 note=56 velocity=46 time=0
control_change channel=0 control=64 value=0 time=6
control_change channel=0 control=64 value=127 time=80
note_on channel=0 note=56 velocity=0 time=74
note_on channel=0 note=63 velocity=37 time=0
note_on channel=0 note=84 velocity=0 time=80
note_on channel=0 note=72 velocity=0 time=0
note_on channel=0 note=63 velocity=0 time=80
note_on channel=0 note=68 velocity=36 time=0
control_change channel=0 control=64 value=0 time=75
<meta message set_tempo tempo=548847 time=85>
note_on channel=0 note=68 velocity=0 time=0
note_on channel=0 note=82 velocity=56 time=0
note_on channel=0 note=61 velocity=30 time=0
control_change channel=0 control=64 value=127 time=35
note_on channel=0 note=61 velocity=0 time=125
note_on channel=0 note=68 velocity=24 time=0
note_on channel=0 note=68 velocity=0 time=160
note_on channel=0 note=70 velocity=24 time=0
note_on channel=0 note=70 velocity=0 time=160
note_on channel=0 note=82 velocity=0 time=0
note_on channel=0 note=85 velocity=50 time=0
note_on channel=0 note=65 velocity=32 time=0
control_change channel=0 control=64 value=0 time=6
control_change channel=0 control=64 value=127 time=86
note_on channel=0 note=65 velocity=0 time=68
note_on channel=0 note=68 velocity=23 time=0
note_on channel=0 note=68 velocity=0 time=160
note_on channel=0 note=73 velocity=24 time=0
<meta message set_tempo tempo=556483 time=160>
note_on channel=0 note=73 velocity=0 time=0
note_on channel=0 note=85 velocity=0 time=0
note_on channel=0 note=84 velocity=57 time=0
note_on channel=0 note=63 velocity=30 time=0
control_change channel=0 control=64 value=0 time=17
control_change channel=0 control=64 value=127 time=120
note_on channel=0 note=63 velocity=0 time=23
note_on channel=0 note=68 velocity=23 time=0
note_on channel=0 note=68 velocity=0 time=160
note_on channel=0 note=72 velocity=23 time=0
<meta message set_tempo tempo=564334 time=160>
note_on channel=0 note=72 velocity=0 time=0
note_on channel=0 note=84 velocity=0 time=0
note_on channel=0 note=82 velocity=49 time=0
note_on channel=0 note=63 velocity=29 time=0
control_change channel=0 control=64 value=0 time=13
control_change channel=0 control=64 value=127 time=107
note_on channel=0 note=63 velocity=0 time=40
note_on channel=0 note=67 velocity=23 time=0
note_on channel=0 note=67 velocity=0 time=160
note_on channel=0 note=70 velocity=23 time=0
<meta message set_tempo tempo=577923 time=160>
note_on channel=0 note=70 velocity=0 time=0
note_on channel=0 note=82 velocity=0 time=0
note_on channel=0 note=80 velocity=53 time=0
note_on channel=0 note=60 velocity=25 time=0
note_on channel=0 note=56 velocity=25 time=0
note_on channel=0 note=68 velocity=30 time=0
control_change channel=0 control=64 value=0 time=12
note_on channel=0 note=80 velocity=0 time=148
note_on channel=0 note=63 velocity=48 time=0
control_change channel=0 control=64 value=127 time=52
note_on channel=0 note=60 velocity=0 time=28
note_on channel=0 note=68 velocity=0 time=0
note_on channel=0 note=56 velocity=0 time=0
note_on channel=0 note=63 velocity=0 time=80
note_on channel=0 note=68 velocity=48 time=0
<meta message set_tempo tempo=567001 time=160>
note_on channel=0 note=68 velocity=0 time=0
note_on channel=0 note=72 velocity=59 time=0
note_on channel=0 note=72 velocity=0 time=160
note_on channel=0 note=68 velocity=48 time=0
note_on channel=0 note=68 velocity=0 time=160
note_on channel=0 note=63 velocity=49 time=0
<meta message set_tempo tempo=559076 time=160>
note_on channel=0 note=63 velocity=0 time=0
note_on channel=0 note=75 velocity=59 time=0
note_on channel=0 note=75 velocity=0 time=160
note_on channel=0 note=72 velocity=53 time=0
note_on channel=0 note=72 velocity=0 time=160
note_on channel=0 note=68 velocity=54 time=0
<meta message set_tempo tempo=551673 time=160>
note_on channel=0 note=68 velocity=0 time=0
note_on channel=0 note=68 velocity=59 time=0
note_on channel=0 note=56 velocity=58 time=0
note_on channel=0 note=68 velocity=0 time=160
note_on channel=0 note=72 velocity=53 time=0
note_on channel=0 note=72 velocity=0 time=160
note_on channel=0 note=75 velocity=53 time=0
<meta message set_tempo tempo=613371 time=40>
note_on channel=0 note=56 velocity=0 time=0
note_on channel=0 note=60 velocity=51 time=0
<meta message set_tempo tempo=561693 time=120>
note_on channel=0 note=60 velocity=0 time=0
note_on channel=0 note=75 velocity=0 time=0
note_on channel=0 note=75 velocity=59 time=0
note_on channel=0 note=63 velocity=62 time=0
control_change channel=0 control=64 value=0 time=0
control_change channel=0 control=64 value=127 time=134
note_on channel=0 note=75 velocity=0 time=26
note_on channel=0 note=70 velocity=53 time=0
note_on channel=0 note=70 velocity=0 time=160
note_on channel=0 note=67 velocity=53 time=0
note_on channel=0 note=63 velocity=0 time=40
<meta message set_tempo tempo=546349 time=120>
note_on channel=0 note=67 velocity=0 time=0
note_on channel=0 note=75 velocity=59 time=0
note_on channel=0 note=63 velocity=56 time=0
note_on channel=0 note=75 velocity=0 time=160
note_on channel=0 note=70 velocity=52 time=0
note_on channel=0 note=70 velocity=0 time=160
note_on channel=0 note=67 velocity=52 time=0
note_on channel=0 note=63 velocity=0 time=40
<meta message set_tempo tempo=545901 time=120>
note_on channel=0 note=67 velocity=0 time=0
note_on channel=0 note=75 velocity=59 time=0
note_on channel=0 note=63 velocity=58 time=0
control_change channel=0 control=64 value=0 time=15
control_change channel=0 control=64 value=127 time=112
note_on channel=0 note=75 velocity=0 time=33
note_on channel=0 note=72 velocity=51 time=0
note_on channel=0 note=72 velocity=0 time=160
note_on channel=0 note=68 velocity=51 time=0
note_on channel=0 note=63 velocity=0 time=40
<meta message set_tempo tempo=551673 time=120>
note_on channel=0 note=68 velocity=0 time=0
note_on channel=0 note=70 velocity=62 time=0
note_on channel=0 note=63 velocity=57 time=0
control_change channel=0 control=64 value=0 time=14
control_change channel=0 control=64 value=127 time=85
note_on channel=0 note=70 velocity=0 time=61
note_on channel=0 note=75 velocity=55 time=0
<meta message set_tempo tempo=575153 time=80>
note_on channel=0 note=75 velocity=0 time=80
note_on channel=0 note=79 velocity=57 time=0
note_on channel=0 note=63 velocity=0 time=40
<meta message set_tempo tempo=548847 time=120>
note_on channel=0 note=79 velocity=0 time=0
note_on channel=0 note=80 velocity=66 time=0
note_on channel=0 note=65 velocity=63 time=0
control_change channel=0 control=64 value=0 time=7
control_change channel=0 control=64 value=127 time=99
note_on channel=0 note=80 velocity=0 time=54
note_on channel=0 note=75 velocity=59 time=0
note_on channel=0 note=75 velocity=0 time=160
note_on channel=0 note=68 velocity=59 time=0
<meta message set_tempo tempo=527148 time=160>
note_on channel=0 note=68 velocity=0 time=0
note_on channel=0 note=80 velocity=67 time=0
control_change channel=0 control=64 value=0 time=14
control_change channel=0 control=64 value=127 time=92
note_on channel=0 note=80 velocity=0 time=54
note_on channel=0 note=74 velocity=59 time=0
<meta message set_tempo tempo=572410 time=160>
note_on channel=0 note=74 velocity=0 time=0
note_on channel=0 note=68 velocity=59 time=0
<meta message set_tempo tempo=551369 time=160>
note_on channel=0 note=68 velocity=0 time=0
note_on channel=0 note=65 velocity=0 time=0
note_on channel=0 note=80 velocity=65 time=0
note_on channel=0 note=63 velocity=60 time=0
control_change channel=0 control=64 value=0 time=7
control_change channel=0 control=64 value=127 time=99
note_on channel=0 note=80 velocity=0 time=54
note_on channel=0 note=75 velocity=54 time=0
note_on channel=0 note=75 velocity=0 time=160
note_on channel=0 note=70 velocity=54 time=0
note_on channel=0 note=70 velocity=0 time=150
<meta message set_tempo tempo=536577 time=10>
note_on channel=0 note=70 velocity=61 time=0
control_change channel=0 control=64 value=0 time=15
control_change channel=0 control=64 value=127 time=133
note_on channel=0 note=70 velocity=0 time=12
note_on channel=0 note=75 velocity=52 time=0
<meta message set_tempo tempo=569692 time=160>
note_on channel=0 note=75 velocity=0 time=0
note_on channel=0 note=79 velocity=52 time=0
<meta message set_tempo tempo=548847 time=160>
note_on channel=0 note=79 velocity=0 time=0
note_on channel=0 note=63 velocity=0 time=0
note_on channel=0 note=77 velocity=59 time=0
note_on channel=0 note=61 velocity=63 time=0
control_change channel=0 control=64 value=0 time=9
control_change channel=0 control=64 value=127 time=118
note_on channel=0 note=77 velocity=0 time=33
note_on channel=0 note=70 velocity=51 time=0
note_on channel=0 note=70 velocity=0 time=160
note_on channel=0 note=67 velocity=52 time=0
<meta message set_tempo tempo=534188 time=160>
note_on channel=0 note=67 velocity=0 time=0
note_on channel=0 note=77 velocity=59 time=0
control_change channel=0 control=64 value=0 time=11
control_change channel=0 control=64 value=127 time=75
note_on channel=0 note=77 velocity=0 time=74
note_on channel=0 note=71 velocity=53 time=0
<meta message set_tempo tempo=564334 time=160>
note_on channel=0 note=71 velocity=0 time=0
note_on channel=0 note=67 velocity=53 time=0
<meta message set_tempo tempo=546349 time=160>
note_on channel=0 note=67 velocity=0 time=0
note_on channel=0 note=61 velocity=0 time=0
note_on channel=0 note=77 velocity=57 time=0
note_on channel=0 note=60 velocity=57 time=0
control_change channel=0 control=64 value=0 time=14
control_change channel=0 control=64 value=127 time=83
note_on channel=0 note=77 velocity=0 time=63
note_on channel=0 note=72 velocity=51 time=0
note_on channel=0 note=72 velocity=0 time=160
note_on channel=0 note=68 velocity=51 time=0
note_on channel=0 note=68 velocity=0 time=150
<meta message set_tempo tempo=536577 time=10>
note_on channel=0 note=68 velocity=59 time=0
control_change channel=0 control=64 value=0 time=13
control_change channel=0 control=64 value=127 time=90
note_on channel=0 note=68 velocity=0 time=57
note_on channel=0 note=72 velocity=52 time=0
<meta message set_tempo tempo=575153 time=160>
note_on channel=0 note=72 velocity=0 time=0
note_on channel=0 note=75 velocity=52 time=0
<meta message set_tempo tempo=548847 time=160>
note_on channel=0 note=75 velocity=0 time=0
note_on channel=0 note=60 velocity=0 time=0
note_on channel=0 note=61 velocity=59 time=0
note_on channel=0 note=58 velocity=57 time=0
control_change channel=0 control=64 value=0 time=8
control_change channel=0 control=64 value=127 time=72
note_on channel=0 note=61 velocity=0 time=80
note_on channel=0 note=68 velocity=54 time=0
note_on channel=0 note=68 velocity=0 time=160
note_on channel=0 note=73 velocity=54 time=0
note_on channel=0 note=73 velocity=0 time=160
note_on channel=0 note=58 velocity=0 time=0
note_on channel=0 note=65 velocity=59 time=0
note_on channel=0 note=61 velocity=55 time=0
control_change channel=0 control=64 value=0 time=5
control_change channel=0 control=64 value=127 time=121
note_on channel=0 note=65 velocity=0 time=34
note_on channel=0 note=68 velocity=55 time=0
note_on channel=0 note=68 velocity=0 time=160
note_on channel=0 note=70 velocity=56 time=0
<meta message set_tempo tempo=556483 time=160>
note_on channel=0 note=70 velocity=0 time=0
note_on channel=0 note=61 velocity=0 time=0
note_on channel=0 note=63 velocity=59 time=0
note_on channel=0 note=60 velocity=61 time=0
control_change channel=0 control=64 value=0 time=17
control_change channel=0 control=64 value=127 time=115
note_on channel=0 note=63 velocity=0 time=28
note_on channel=0 note=68 velocity=54 time=0
note_on channel=0 note=68 velocity=0 time=160
note_on channel=0 note=72 velocity=54 time=0
<meta message set_tempo tempo=564334 time=160>
note_on channel=0 note=72 velocity=0 time=0
note_on channel=0 note=60 velocity=0 time=0
note_on channel=0 note=63 velocity=59 time=0
note_on channel=0 note=67 velocity=70 time=0
note_on channel=0 note=51 velocity=45 time=0
note_on channel=0 note=58 velocity=54 time=0
control_change channel=0 control=64 value=0 time=6
control_change channel=0 control=64 value=127 time=86
note_on channel=0 note=75 velocity=63 time=68
note_on channel=0 note=75 velocity=0 time=160
note_on channel=0 note=73 velocity=67 time=0
<meta message set_tempo tempo=577923 time=160>
note_on channel=0 note=73 velocity=0 time=0
note_on channel=0 note=58 velocity=0 time=0
note_on channel=0 note=63 velocity=0 time=0
note_on channel=0 note=67 velocity=0 time=0
note_on channel=0 note=51 velocity=0 time=0
note_on channel=0 note=63 velocity=60 time=0
note_on channel=0 note=68 velocity=60 time=0
note_on channel=0 note=72 velocity=71 time=0
note_on channel=0 note=56 velocity=60 time=0
note_on channel=0 note=51 velocity=51 time=0
note_on channel=0 note=44 velocity=51 time=0
control_change channel=0 control=64 value=0 time=5
control_change channel=0 control=64 value=127 time=136
note_on channel=0 note=72 velocity=0 time=19
note_on channel=0 note=63 velocity=0 time=0
note_on channel=0 note=68 velocity=0 time=0
note_on channel=0 note=63 velocity=59 time=0
note_on channel=0 note=63 velocity=0 time=160
note_on channel=0 note=68 velocity=59 time=0
<meta message set_tempo tempo=567001 time=160>
note_on channel=0 note=68 velocity=0 time=0
note_on channel=0 note=56 velocity=0 time=0
note_on channel=0 note=51 velocity=0 time=0
note_on channel=0 note=44 velocity=0 time=0
note_on channel=0 note=72 velocity=67 time=0
note_on channel=0 note=72 velocity=0 time=160
note_on channel=0 note=68 velocity=56 time=0
note_on channel=0 note=68 velocity=0 time=160
note_on channel=0 note=63 velocity=56 time=0
<meta message set_tempo tempo=556483 time=160>
note_on channel=0 note=63 velocity=0 time=0
note_on channel=0 note=75 velocity=66 time=0
note_on channel=0 note=75 velocity=0 time=160
note_on channel=0 note=72 velocity=57 time=0
note_on channel=0 note=72 velocity=0 time=160
note_on channel=0 note=68 velocity=57 time=0
note_on channel=0 note=68 velocity=0 time=150
<meta message set_tempo tempo=551673 time=10>
note_on channel=0 note=68 velocity=68 time=0
note_on channel=0 note=56 velocity=63 time=0
note_on channel=0 note=44 velocity=63 time=0
note_on channel=0 note=68 velocity=0 time=160
note_on channel=0 note=72 velocity=60 time=0
note_on channel=0 note=72 velocity=0 time=160
note_on channel=0 note=75 velocity=60 time=0
<meta message set_tempo tempo=613371 time=40>
note_on channel=0 note=44 velocity=0 time=0
note_on channel=0 note=56 velocity=0 time=0
note_on channel=0 note=48 velocity=56 time=0
note_on channel=0 note=60 velocity=56 time=0
<meta message set_tempo tempo=564334 time=120>
note_on channel=0 note=60 velocity=0 time=0
note_on channel=0 note=48 velocity=0 time=0
note_on channel=0 note=75 velocity=0 time=0
note_on channel=0 note=75 velocity=69 time=0
note_on channel=0 note=51 velocity=68 time=0
note_on channel=0 note=63 velocity=68 time=0
control_change channel=0 control=64 value=0 time=0
control_change channel=0 control=64 value=127 time=103
note_on channel=0 note=75 velocity=0 time=57
note_on channel=0 note=70 velocity=59 time=0
note_on channel=0 note=70 velocity=0 time=160
note_on channel=0 note=67 velocity=59 time=0
note_on channel=0 note=63 velocity=0 time=18
note_on channel=0 note=51 velocity=0 time=22
<meta message set_tempo tempo=546349 time=120>
note_on channel=0 note=67 velocity=0 time=0
note_on channel=0 note=75 velocity=70 time=0
note_on channel=0 note=63 velocity=61 time=0
note_on channel=0 note=51 velocity=50 time=0
note_on channel=0 note=75 velocity=0 time=160
note_on channel=0 note=70 velocity=57 time=0
note_on channel=0 note=70 velocity=0 time=160
note_on channel=0 note=67 velocity=57 time=0
note_on channel=0 note=51 velocity=0 time=40
note_on channel=0 note=63 velocity=0 time=0
<meta message set_tempo tempo=545901 time=120>
note_on channel=0 note=67 velocity=0 time=0
note_on channel=0 note=75 velocity=71 time=0
note_on channel=0 note=51 velocity=53 time=0
note_on channel=0 note=63 velocity=63 time=0
control_change channel=0 control=64 value=0 time=10
control_change channel=0 control=64 value=127 time=87
note_on channel=0 note=75 velocity=0 time=63
note_on channel=0 note=71 velocity=61 time=0
note_on channel=0 note=71 velocity=0 time=160
note_on channel=0 note=68 velocity=59 time=0
note_on channel=0 note=63 velocity=0 time=40
note_on channel=0 note=51 velocity=0 time=0
<meta message set_tempo tempo=551673 time=120>
note_on channel=0 note=68 velocity=0 time=0
note_on channel=0 note=70 velocity=68 time=0
note_on channel=0 note=51 velocity=52 time=0
note_on channel=0 note=63 velocity=62 time=0
control_change channel=0 control=64 value=0 time=8
control_change channel=0 control=64 value=127 time=84
note_on channel=0 note=70 velocity=0 time=68
note_on channel=0 note=75 velocity=62 time=0
<meta message set_tempo tempo=575153 time=80>
note_on channel=0 note=75 velocity=0 time=80
note_on channel=0 note=79 velocity=63 time=0
<meta message set_tempo tempo=607165 time=40>
note_on channel=0 note=63 velocity=0 time=0
note_on channel=0 note=51 velocity=0 time=0
<meta message set_tempo tempo=561693 time=120>
note_on channel=0 note=79 velocity=0 time=0
note_on channel=0 note=80 velocity=68 time=0
note_on channel=0 note=52 velocity=58 time=0
note_on channel=0 note=64 velocity=69 time=0
control_change channel=0 control=64 value=0 time=0
control_change channel=0 control=64 value=127 time=109
note_on channel=0 note=80 velocity=0 time=51
note_on channel=0 note=75 velocity=58 time=0
note_on channel=0 note=75 velocity=0 time=160
note_on channel=0 note=68 velocity=58 time=0
<meta message set_tempo tempo=538987 time=160>
note_on channel=0 note=68 velocity=0 time=0
note_on channel=0 note=80 velocity=67 time=0
control_change channel=0 control=64 value=0 time=11
control_change channel=0 control=64 value=127 time=109
note_on channel=0 note=80 velocity=0 time=40
note_on channel=0 note=73 velocity=59 time=0
<meta message set_tempo tempo=572410 time=160>
note_on channel=0 note=73 velocity=0 time=0
note_on channel=0 note=70 velocity=59 time=0
<meta message set_tempo tempo=551369 time=160>
note_on channel=0 note=70 velocity=0 time=0
note_on channel=0 note=64 velocity=0 time=0
note_on channel=0 note=52 velocity=0 time=0
note_on channel=0 note=80 velocity=67 time=0
note_on channel=0 note=51 velocity=55 time=0
note_on channel=0 note=63 velocity=66 time=0
control_change channel=0 control=64 value=0 time=13
control_change channel=0 control=64 value=127 time=107
note_on channel=0 note=80 velocity=0 time=40
note_on channel=0 note=75 velocity=57 time=0
note_on channel=0 note=75 velocity=0 time=160
note_on channel=0 note=71 velocity=57 time=0
note_on channel=0 note=71 velocity=0 time=150
<meta message set_tempo tempo=536577 time=10>
note_on channel=0 note=71 velocity=65 time=0
control_change channel=0 control=64 value=0 time=15
control_change channel=0 control=64 value=127 time=122
note_on channel=0 note=71 velocity=0 time=23
note_on channel=0 note=75 velocity=57 time=0
note_on channel=0 note=75 velocity=0 time=160
note_on channel=0 note=78 velocity=57 time=0
<meta message set_tempo tempo=595120 time=40>
<meta message set_tempo tempo=548847 time=120>
note_on channel=0 note=78 velocity=0 time=0
note_on channel=0 note=63 velocity=0 time=0
note_on channel=0 note=51 velocity=0 time=0
note_on channel=0 note=76 velocity=65 time=0
note_on channel=0 note=49 velocity=58 time=0
note_on channel=0 note=61 velocity=69 time=0
control_change channel=0 control=64 value=0 time=6
control_change channel=0 control=64 value=127 time=114
note_on channel=0 note=76 velocity=0 time=40
note_on channel=0 note=71 velocity=55 time=0
note_on channel=0 note=71 velocity=0 time=160
note_on channel=0 note=67 velocity=55 time=0
<meta message set_tempo tempo=534188 time=160>
note_on channel=0 note=67 velocity=0 time=0
note_on channel=0 note=76 velocity=62 time=0
control_change channel=0 control=64 value=0 time=13
control_change channel=0 control=64 value=127 time=67
note_on channel=0 note=76 velocity=0 time=80
note_on channel=0 note=70 velocity=53 time=0
<meta message set_tempo tempo=564334 time=160>
note_on channel=0 note=70 velocity=0 time=0
note_on channel=0 note=67 velocity=53 time=0
<meta message set_tempo tempo=546349 time=160>
note_on channel=0 note=67 velocity=0 time=0
note_on channel=0 note=61 velocity=0 time=0
note_on channel=0 note=49 velocity=0 time=0
note_on channel=0 note=76 velocity=64 time=0
note_on channel=0 note=59 velocity=62 time=0
note_on channel=0 note=47 velocity=52 time=0
control_change channel=0 control=64 value=0 time=14
control_change channel=0 control=64 value=127 time=118
note_on channel=0 note=76 velocity=0 time=28
note_on channel=0 note=71 velocity=55 time=0
note_on channel=0 note=71 velocity=0 time=160
note_on channel=0 note=68 velocity=55 time=0
note_on channel=0 note=68 velocity=0 time=150
<meta message set_tempo tempo=536577 time=10>
note_on channel=0 note=68 velocity=65 time=0
note_on channel=0 note=68 velocity=0 time=160
note_on channel=0 note=71 velocity=56 time=0
note_on channel=0 note=59 velocity=0 time=80
note_on channel=0 note=58 velocity=68 time=0
note_on channel=0 note=71 velocity=0 time=80
note_on channel=0 note=75 velocity=56 time=0
<meta message set_tempo tempo=583544 time=40>
<meta message set_tempo tempo=548847 time=120>
note_on channel=0 note=75 velocity=0 time=0
note_on channel=0 note=58 velocity=0 time=0
note_on channel=0 note=47 velocity=0 time=0
note_on channel=0 note=68 velocity=66 time=0
note_on channel=0 note=56 velocity=61 time=0
note_on channel=0 note=52 velocity=52 time=0
control_change channel=0 control=64 value=0 time=5
control_change channel=0 control=64 value=127 time=127
note_on channel=0 note=68 velocity=0 time=28
note_on channel=0 note=71 velocity=59 time=0
note_on channel=0 note=71 velocity=0 time=160
note_on channel=0 note=73 velocity=57 time=0
<meta message set_tempo tempo=534188 time=40>
<meta message set_tempo tempo=548847 time=120>
note_on channel=0 note=73 velocity=0 time=0
note_on channel=0 note=52 velocity=0 time=0
note_on channel=0 note=56 velocity=0 time=0
note_on channel=0 note=68 velocity=67 time=0
note_on channel=0 note=49 velocity=46 time=0
note_on channel=0 note=56 velocity=46 time=0
note_on channel=0 note=64 velocity=55 time=0
control_change channel=0 control=64 value=0 time=19
control_change channel=0 control=64 value=127 time=73
note_on channel=0 note=68 velocity=0 time=68
note_on channel=0 note=71 velocity=56 time=0
note_on channel=0 note=71 velocity=0 time=160
note_on channel=0 note=76 velocity=56 time=0
<meta message set_tempo tempo=607165 time=40>
<meta message set_tempo tempo=556483 time=120>
note_on channel=0 note=76 velocity=0 time=0
note_on channel=0 note=49 velocity=0 time=0
note_on channel=0 note=56 velocity=0 time=0
note_on channel=0 note=64 velocity=0 time=0
note_on channel=0 note=66 velocity=66 time=0
note_on channel=0 note=63 velocity=56 time=0
note_on channel=0 note=54 velocity=47 time=0
control_change channel=0 control=64 value=0 time=6
control_change channel=0 control=64 value=127 time=86
note_on channel=0 note=66 velocity=0 time=68
note_on channel=0 note=71 velocity=56 time=0
note_on channel=0 note=71 velocity=0 time=160
note_on channel=0 note=75 velocity=56 time=0
<meta message set_tempo tempo=564334 time=160>
note_on channel=0 note=75 velocity=0 time=0
note_on channel=0 note=54 velocity=0 time=0
note_on channel=0 note=63 velocity=0 time=0
note_on channel=0 note=66 velocity=56 time=0
note_on channel=0 note=70 velocity=67 time=0
note_on channel=0 note=54 velocity=42 time=0
note_on channel=0 note=61 velocity=50 time=0
control_change channel=0 control=64 value=0 time=15
control_change channel=0 control=64 value=127 time=122
note_on channel=0 note=78 velocity=57 time=23
note_on channel=0 note=78 velocity=0 time=160
note_on channel=0 note=76 velocity=57 time=0
<meta message set_tempo tempo=642949 time=40>
<meta message set_tempo tempo=577923 time=120>
note_on channel=0 note=76 velocity=0 time=0
note_on channel=0 note=61 velocity=0 time=0
note_on channel=0 note=66 velocity=0 time=0
note_on channel=0 note=70 velocity=0 time=0
note_on channel=0 note=54 velocity=0 time=0
note_on channel=0 note=66 velocity=53 time=0
note_on channel=0 note=71 velocity=53 time=0
note_on channel=0 note=75 velocity=53 time=0
note_on channel=0 note=47 velocity=50 time=0
note_on channel=0 note=54 velocity=50 time=0
note_on channel=0 note=59 velocity=59 time=0
control_change channel=0 control=64 value=0 time=0
note_on channel=0 note=75 velocity=0 time=160
note_on channel=0 note=66 velocity=0 time=0
note_on channel=0 note=71 velocity=0 time=0
note_on channel=0 note=63 velocity=48 time=0
control_change channel=0 control=64 value=127 time=0
note_on channel=0 note=63 velocity=0 time=160
note_on channel=0 note=66 velocity=48 time=0
<meta message set_tempo tempo=567001 time=160>
note_on channel=0 note=66 velocity=0 time=0
note_on channel=0 note=47 velocity=0 time=0
note_on channel=0 note=54 velocity=0 time=0
note_on channel=0 note=59 velocity=0 time=0
note_on channel=0 note=71 velocity=59 time=0
note_on channel=0 note=71 velocity=0 time=160
note_on channel=0 note=66 velocity=48 time=0
note_on channel=0 note=66 velocity=0 time=160
note_on channel=0 note=63 velocity=49 time=0
<meta message set_tempo tempo=559076 time=160>
note_on channel=0 note=63 velocity=0 time=0
note_on channel=0 note=75 velocity=59 time=0
note_on channel=0 note=75 velocity=0 time=160
note_on channel=0 note=71 velocity=53 time=0
note_on channel=0 note=71 velocity=0 time=160
note_on channel=0 note=66 velocity=54 time=0
<meta message set_tempo tempo=551673 time=160>
note_on channel=0 note=66 velocity=0 time=0
note_on channel=0 note=71 velocity=59 time=0
note_on channel=0 note=71 velocity=0 time=160
note_on channel=0 note=75 velocity=53 time=0
note_on channel=0 note=75 velocity=0 time=160
note_on channel=0 note=78 velocity=53 time=0
<meta message set_tempo tempo=613371 time=40>
<meta message set_tempo tempo=561693 time=120>
note_on channel=0 note=78 velocity=0 time=0
note_on channel=0 note=66 velocity=46 time=0
note_on channel=0 note=78 velocity=62 time=0
note_on channel=0 note=47 velocity=44 time=0
control_change channel=0 control=64 value=0 time=0
control_change channel=0 control=64 value=127 time=132
note_on channel=0 note=47 velocity=0 time=28
note_on channel=0 note=51 velocity=36 time=0
note_on channel=0 note=51 velocity=0 time=160
note_on channel=0 note=54 velocity=37 time=0
note_on channel=0 note=78 velocity=0 time=40
note_on channel=0 note=66 velocity=0 time=0
<meta message set_tempo tempo=546349 time=120>
note_on channel=0 note=54 velocity=0 time=0
note_on channel=0 note=66 velocity=48 time=0
note_on channel=0 note=78 velocity=59 time=0
note_on channel=0 note=47 velocity=47 time=0
note_on channel=0 note=47 velocity=0 time=160
note_on channel=0 note=51 velocity=34 time=0
note_on channel=0 note=51 velocity=0 time=160
note_on channel=0 note=54 velocity=36 time=0
note_on channel=0 note=78 velocity=0 time=159
note_on channel=0 note=66 velocity=0 time=0
<meta message set_tempo tempo=545901 time=1>
note_on channel=0 note=54 velocity=0 time=0
note_on channel=0 note=67 velocity=57 time=0
note_on channel=0 note=79 velocity=67 time=0
note_on channel=0 note=46 velocity=51 time=0
control_change channel=0 control=64 value=0 time=9
control_change channel=0 control=64 value=127 time=94
note_on channel=0 note=46 velocity=0 time=57
note_on channel=0 note=49 velocity=48 time=0
note_on channel=0 note=49 velocity=0 time=160
note_on channel=0 note=51 velocity=49 time=0
note_on channel=0 note=79 velocity=0 time=159
note_on channel=0 note=67 velocity=0 time=0
<meta message set_tempo tempo=551673 time=1>
note_on channel=0 note=51 velocity=0 time=0
note_on channel=0 note=68 velocity=60 time=0
note_on channel=0 note=80 velocity=72 time=0
note_on channel=0 note=44 velocity=62 time=0
control_change channel=0 control=64 value=0 time=6
control_change channel=0 control=64 value=127 time=80
note_on channel=0 note=44 velocity=0 time=74
note_on channel=0 note=49 velocity=55 time=0
note_on channel=0 note=49 velocity=0 time=160
note_on channel=0 note=51 velocity=56 time=0
note_on channel=0 note=80 velocity=0 time=159
note_on channel=0 note=68 velocity=0 time=0
<meta message set_tempo tempo=546349 time=1>
note_on channel=0 note=51 velocity=0 time=0
note_on channel=0 note=70 velocity=64 time=0
note_on channel=0 note=82 velocity=79 time=0
note_on channel=0 note=43 velocity=72 time=0
control_change channel=0 control=64 value=0 time=7
control_change channel=0 control=64 value=127 time=79
note_on channel=0 note=43 velocity=0 time=74
note_on channel=0 note=49 velocity=58 time=0
note_on channel=0 note=49 velocity=0 time=160
note_on channel=0 note=51 velocity=62 time=0
note_on channel=0 note=82 velocity=0 time=159
note_on channel=0 note=70 velocity=0 time=0
<meta message set_tempo tempo=545901 time=1>
note_on channel=0 note=51 velocity=0 time=0
note_on channel=0 note=73 velocity=64 time=0
note_on channel=0 note=85 velocity=77 time=0
note_on channel=0 note=43 velocity=69 time=0
control_change channel=0 control=64 value=0 time=9
control_change channel=0 control=64 value=127 time=94
note_on channel=0 note=43 velocity=0 time=57
note_on channel=0 note=46 velocity=48 time=0
note_on channel=0 note=46 velocity=0 time=160
note_on channel=0 note=51 velocity=55 time=0
note_on channel=0 note=85 velocity=0 time=159
note_on channel=0 note=73 velocity=0 time=0
<meta message set_tempo tempo=551673 time=1>
note_on channel=0 note=51 velocity=0 time=0
note_on channel=0 note=71 velocity=62 time=0
note_on channel=0 note=83 velocity=74 time=0
note_on channel=0 note=44 velocity=62 time=0
control_change channel=0 control=64 value=0 time=6
control_change channel=0 control=64 value=127 time=80
note_on channel=0 note=44 velocity=0 time=74
note_on channel=0 note=47 velocity=49 time=0
note_on channel=0 note=47 velocity=0 time=160
note_on channel=0 note=51 velocity=48 time=0
note_on channel=0 note=83 velocity=0 time=159
note_on channel=0 note=71 velocity=0 time=0
<meta message set_tempo tempo=551673 time=1>
note_on channel=0 note=51 velocity=0 time=0
note_on channel=0 note=70 velocity=49 time=0
note_on channel=0 note=82 velocity=58 time=0
note_on channel=0 note=49 velocity=44 time=0
control_change channel=0 control=64 value=0 time=9
control_change channel=0 control=64 value=127 time=65
note_on channel=0 note=49 velocity=0 time=86
note_on channel=0 note=52 velocity=38 time=0
note_on channel=0 note=52 velocity=0 time=160
note_on channel=0 note=58 velocity=38 time=0
<meta message set_tempo tempo=580720 time=40>
note_on channel=0 note=82 velocity=0 time=0
note_on channel=0 note=70 velocity=0 time=0
note_on channel=0 note=68 velocity=42 time=0
note_on channel=0 note=80 velocity=51 time=0
<meta message set_tempo tempo=567001 time=120>
note_on channel=0 note=80 velocity=0 time=0
note_on channel=0 note=68 velocity=0 time=0
note_on channel=0 note=58 velocity=0 time=0
note_on channel=0 note=67 velocity=49 time=0
note_on channel=0 note=79 velocity=58 time=0
note_on channel=0 note=51 velocity=33 time=0
control_change channel=0 control=64 value=0 time=7
control_change channel=0 control=64 value=127 time=149
note_on channel=0 note=51 velocity=0 time=4
note_on channel=0 note=58 velocity=27 time=0
note_on channel=0 note=58 velocity=0 time=160
note_on channel=0 note=61 velocity=27 time=0
<meta message set_tempo tempo=556483 time=160>
note_on channel=0 note=61 velocity=0 time=0
note_on channel=0 note=79 velocity=0 time=0
note_on channel=0 note=67 velocity=0 time=0
note_on channel=0 note=67 velocity=46 time=0
note_on channel=0 note=79 velocity=55 time=0
note_on channel=0 note=51 velocity=34 time=0
note_on channel=0 note=51 velocity=0 time=160
note_on channel=0 note=58 velocity=25 time=0
note_on channel=0 note=58 velocity=0 time=160
note_on channel=0 note=61 velocity=26 time=0
<meta message set_tempo tempo=546349 time=160>
note_on channel=0 note=61 velocity=0 time=0
note_on channel=0 note=79 velocity=0 time=0
note_on channel=0 note=67 velocity=0 time=0
note_on channel=0 note=68 velocity=45 time=0
note_on channel=0 note=80 velocity=53 time=0
note_on channel=0 note=51 velocity=36 time=0
control_change channel=0 control=64 value=0 time=13
control_change channel=0 control=64 value=127 time=75
note_on channel=0 note=51 velocity=0 time=72
note_on channel=0 note=58 velocity=29 time=0
note_on channel=0 note=80 velocity=0 time=80
note_on channel=0 note=68 velocity=0 time=0
note_on channel=0 note=67 velocity=37 time=0
note_on channel=0 note=79 velocity=45 time=0
note_on channel=0 note=58 velocity=0 time=80
note_on channel=0 note=61 velocity=29 time=0
<meta message set_tempo tempo=564334 time=160>
note_on channel=0 note=61 velocity=0 time=0
note_on channel=0 note=79 velocity=0 time=0
note_on channel=0 note=67 velocity=0 time=0
note_on channel=0 note=65 velocity=38 time=0
note_on channel=0 note=77 velocity=46 time=0
note_on channel=0 note=51 velocity=35 time=0
note_on channel=0 note=51 velocity=0 time=160
note_on channel=0 note=58 velocity=28 time=0
note_on channel=0 note=77 velocity=0 time=80
note_on channel=0 note=65 velocity=0 time=0
note_on channel=0 note=67 velocity=37 time=0
note_on channel=0 note=79 velocity=45 time=0
note_on channel=0 note=58 velocity=0 time=80
note_on channel=0 note=61 velocity=28 time=0
<meta message set_tempo tempo=613371 time=40>
<meta message set_tempo tempo=577923 time=120>
note_on channel=0 note=61 velocity=0 time=0
note_on channel=0 note=79 velocity=0 time=0
note_on channel=0 note=67 velocity=0 time=0
note_on channel=0 note=68 velocity=40 time=0
note_on channel=0 note=80 velocity=48 time=0
note_on channel=0 note=44 velocity=33 time=0
control_change channel=0 control=64 value=0 time=7
control_change channel=0 control=64 value=127 time=89
note_on channel=0 note=44 velocity=0 time=24
note_on channel=0 note=51 velocity=19 time=40
note_on channel=0 note=56 velocity=19 time=0
note_on channel=0 note=60 velocity=23 time=0
note_on channel=0 note=60 velocity=0 time=120
note_on channel=0 note=51 velocity=0 time=0
note_on channel=0 note=56 velocity=0 time=0
note_on channel=0 note=51 velocity=19 time=40
note_on channel=0 note=56 velocity=19 time=0
note_on channel=0 note=60 velocity=23 time=0
note_on channel=0 note=60 velocity=0 time=120
note_on channel=0 note=51 velocity=0 time=0
note_on channel=0 note=56 velocity=0 time=0
<meta message set_tempo tempo=564334 time=40>
note_on channel=0 note=51 velocity=21 time=0
note_on channel=0 note=56 velocity=21 time=0
note_on channel=0 note=60 velocity=25 time=0
note_on channel=0 note=60 velocity=0 time=120
note_on channel=0 note=51 velocity=0 time=0
note_on channel=0 note=56 velocity=0 time=0
note_on channel=0 note=51 velocity=21 time=40
note_on channel=0 note=60 velocity=25 time=0
note_on channel=0 note=56 velocity=21 time=0
note_on channel=0 note=56 velocity=0 time=120
note_on channel=0 note=51 velocity=0 time=0
note_on channel=0 note=60 velocity=0 time=0
note_on channel=0 note=60 velocity=25 time=40
note_on channel=0 note=56 velocity=21 time=0
note_on channel=0 note=51 velocity=21 time=0
note_on channel=0 note=51 velocity=0 time=120
note_on channel=0 note=60 velocity=0 time=0
note_on channel=0 note=56 velocity=0 time=0
<meta message set_tempo tempo=546349 time=40>
note_on channel=0 note=80 velocity=0 time=0
note_on channel=0 note=68 velocity=0 time=0
note_on channel=0 note=73 velocity=53 time=0
note_on channel=0 note=60 velocity=32 time=0
note_on channel=0 note=51 velocity=27 time=0
note_on channel=0 note=56 velocity=27 time=0
control_change channel=0 control=64 value=0 time=0
note_on channel=0 note=56 velocity=0 time=120
note_on channel=0 note=51 velocity=0 time=0
note_on channel=0 note=60 velocity=0 time=0
note_on channel=0 note=60 velocity=24 time=40
note_on channel=0 note=51 velocity=20 time=0
note_on channel=0 note=56 velocity=20 time=0
note_on channel=0 note=72 velocity=53 time=80
note_on channel=0 note=73 velocity=0 time=12
note_on channel=0 note=56 velocity=0 time=28
note_on channel=0 note=60 velocity=0 time=0
note_on channel=0 note=51 velocity=0 time=0
note_on channel=0 note=51 velocity=21 time=40
note_on channel=0 note=60 velocity=25 time=0
note_on channel=0 note=56 velocity=21 time=0
note_on channel=0 note=56 velocity=0 time=120
note_on channel=0 note=60 velocity=0 time=0
note_on channel=0 note=51 velocity=0 time=0
<meta message set_tempo tempo=559076 time=40>
note_on channel=0 note=71 velocity=53 time=0
note_on channel=0 note=60 velocity=33 time=0
note_on channel=0 note=56 velocity=28 time=0
note_on channel=0 note=51 velocity=28 time=0
note_on channel=0 note=72 velocity=0 time=12
note_on channel=0 note=56 velocity=0 time=108
note_on channel=0 note=51 velocity=0 time=0
note_on channel=0 note=60 velocity=0 time=0
note_on channel=0 note=56 velocity=21 time=40
note_on channel=0 note=60 velocity=25 time=0
note_on channel=0 note=51 velocity=21 time=0
note_on channel=0 note=72 velocity=53 time=80
note_on channel=0 note=71 velocity=0 time=12
note_on channel=0 note=51 velocity=0 time=28
note_on channel=0 note=56 velocity=0 time=0
note_on channel=0 note=60 velocity=0 time=0
note_on channel=0 note=60 velocity=25 time=40
note_on channel=0 note=56 velocity=21 time=0
note_on channel=0 note=51 velocity=21 time=0
<meta message set_tempo tempo=507099 time=40>
note_on channel=0 note=51 velocity=0 time=80
note_on channel=0 note=56 velocity=0 time=0
note_on channel=0 note=60 velocity=0 time=0
<meta message set_tempo tempo=534188 time=40>
note_on channel=0 note=72 velocity=0 time=0
note_on channel=0 note=72 velocity=48 time=0
note_on channel=0 note=37 velocity=33 time=0
control_change channel=0 control=64 value=0 time=7
control_change channel=0 control=64 value=127 time=89
<meta message set_tempo tempo=569692 time=24>
note_on channel=0 note=37 velocity=0 time=0
note_on channel=0 note=72 velocity=0 time=0
note_on channel=0 note=77 velocity=48 time=0
note_on channel=0 note=53 velocity=19 time=40
note_on channel=0 note=60 velocity=23 time=0
note_on channel=0 note=49 velocity=19 time=0
note_on channel=0 note=49 velocity=0 time=120
note_on channel=0 note=60 velocity=0 time=0
note_on channel=0 note=53 velocity=0 time=0
note_on channel=0 note=60 velocity=23 time=40
note_on channel=0 note=53 velocity=19 time=0
note_on channel=0 note=49 velocity=19 time=0
note_on channel=0 note=49 velocity=0 time=120
note_on channel=0 note=53 velocity=0 time=0
note_on channel=0 note=60 velocity=0 time=0
<meta message set_tempo tempo=564334 time=40>
note_on channel=0 note=57 velocity=30 time=0
note_on channel=0 note=49 velocity=25 time=0
note_on channel=0 note=53 velocity=25 time=0
note_on channel=0 note=53 velocity=0 time=120
note_on channel=0 note=49 velocity=0 time=0
note_on channel=0 note=57 velocity=0 time=0
note_on channel=0 note=53 velocity=21 time=40
note_on channel=0 note=49 velocity=21 time=0
note_on channel=0 note=57 velocity=25 time=0
note_on channel=0 note=57 velocity=0 time=120
note_on channel=0 note=49 velocity=0 time=0
note_on channel=0 note=53 velocity=0 time=0
note_on channel=0 note=49 velocity=21 time=40
note_on channel=0 note=57 velocity=25 time=0
note_on channel=0 note=53 velocity=21 time=0
note_on channel=0 note=53 velocity=0 time=120
note_on channel=0 note=57 velocity=0 time=0
note_on channel=0 note=49 velocity=0 time=0
<meta message set_tempo tempo=546349 time=40>
note_on channel=0 note=77 velocity=0 time=0
note_on channel=0 note=72 velocity=53 time=0
note_on channel=0 note=49 velocity=27 time=0
note_on channel=0 note=58 velocity=32 time=0
note_on channel=0 note=53 velocity=27 time=0
control_change channel=0 control=64 value=0 time=0
note_on channel=0 note=53 velocity=0 time=120
note_on channel=0 note=58 velocity=0 time=0
note_on channel=0 note=49 velocity=0 time=0
note_on channel=0 note=49 velocity=20 time=40
note_on channel=0 note=53 velocity=20 time=0
note_on channel=0 note=58 velocity=24 time=0
note_on channel=0 note=70 velocity=53 time=80
note_on channel=0 note=72 velocity=0 time=12
note_on channel=0 note=58 velocity=0 time=28
note_on channel=0 note=49 velocity=0 time=0
note_on channel=0 note=53 velocity=0 time=0
note_on channel=0 note=58 velocity=25 time=40
note_on channel=0 note=49 velocity=21 time=0
note_on channel=0 note=53 velocity=21 time=0
note_on channel=0 note=53 velocity=0 time=120
note_on channel=0 note=49 velocity=0 time=0
note_on channel=0 note=58 velocity=0 time=0
<meta message set_tempo tempo=559076 time=40>
note_on channel=0 note=69 velocity=53 time=0
note_on channel=0 note=49 velocity=28 time=0
note_on channel=0 note=58 velocity=33 time=0
note_on channel=0 note=53 velocity=28 time=0
note_on channel=0 note=70 velocity=0 time=12
note_on channel=0 note=58 velocity=0 time=108
note_on channel=0 note=53 velocity=0 time=0
note_on channel=0 note=49 velocity=0 time=0
note_on channel=0 note=49 velocity=21 time=40
note_on channel=0 note=53 velocity=21 time=0
note_on channel=0 note=58 velocity=25 time=0
note_on channel=0 note=70 velocity=53 time=80
note_on channel=0 note=69 velocity=0 time=12
note_on channel=0 note=58 velocity=0 time=28
note_on channel=0 note=49 velocity=0 time=0
note_on channel=0 note=53 velocity=0 time=0
note_on channel=0 note=53 velocity=21 time=40
note_on channel=0 note=49 velocity=21 time=0
note_on channel=0 note=58 velocity=25 time=0
<meta message set_tempo tempo=515818 time=40>
note_on channel=0 note=58 velocity=0 time=80
note_on channel=0 note=49 velocity=0 time=0
note_on channel=0 note=53 velocity=0 time=0
<meta message set_tempo tempo=522557 time=40>
note_on channel=0 note=70 velocity=0 time=0
note_on channel=0 note=70 velocity=48 time=0
note_on channel=0 note=36 velocity=33 time=0
control_change channel=0 control=64 value=0 time=7
control_change channel=0 control=64 value=127 time=89
<meta message set_tempo tempo=577923 time=24>
note_on channel=0 note=36 velocity=0 time=0
note_on channel=0 note=70 velocity=0 time=0
note_on channel=0 note=75 velocity=48 time=0
note_on channel=0 note=48 velocity=19 time=40
note_on channel=0 note=51 velocity=19 time=0
note_on channel=0 note=58 velocity=23 time=0
note_on channel=0 note=58 velocity=0 time=120
note_on channel=0 note=51 velocity=0 time=0
note_on channel=0 note=48 velocity=0 time=0
note_on channel=0 note=51 velocity=19 time=40
note_on channel=0 note=48 velocity=19 time=0
note_on channel=0 note=58 velocity=23 time=0
note_on channel=0 note=58 velocity=0 time=120
note_on channel=0 note=48 velocity=0 time=0
note_on channel=0 note=51 velocity=0 time=0
<meta message set_tempo tempo=564334 time=40>
note_on channel=0 note=48 velocity=25 time=0
note_on channel=0 note=55 velocity=30 time=0
note_on channel=0 note=51 velocity=25 time=0
note_on channel=0 note=51 velocity=0 time=120
note_on channel=0 note=55 velocity=0 time=0
note_on channel=0 note=48 velocity=0 time=0
note_on channel=0 note=55 velocity=25 time=40
note_on channel=0 note=51 velocity=21 time=0
note_on channel=0 note=48 velocity=21 time=0
note_on channel=0 note=48 velocity=0 time=120
note_on channel=0 note=51 velocity=0 time=0
note_on channel=0 note=55 velocity=0 time=0
note_on channel=0 note=48 velocity=21 time=40
note_on channel=0 note=51 velocity=21 time=0
note_on channel=0 note=55 velocity=25 time=0
note_on channel=0 note=55 velocity=0 time=120
note_on channel=0 note=51 velocity=0 time=0
note_on channel=0 note=48 velocity=0 time=0
<meta message set_tempo tempo=546349 time=40>
note_on channel=0 note=75 velocity=0 time=0
note_on channel=0 note=73 velocity=58 time=0
note_on channel=0 note=56 velocity=35 time=0
note_on channel=0 note=51 velocity=29 time=0
note_on channel=0 note=48 velocity=29 time=0
control_change channel=0 control=64 value=0 time=15
note_on channel=0 note=48 velocity=0 time=105
note_on channel=0 note=51 velocity=0 time=0
note_on channel=0 note=56 velocity=0 time=0
note_on channel=0 note=51 velocity=22 time=40
note_on channel=0 note=48 velocity=22 time=0
note_on channel=0 note=56 velocity=27 time=0
note_on channel=0 note=72 velocity=60 time=80
note_on channel=0 note=73 velocity=0 time=12
note_on channel=0 note=56 velocity=0 time=28
note_on channel=0 note=51 velocity=0 time=0
note_on channel=0 note=48 velocity=0 time=0
note_on channel=0 note=51 velocity=24 time=40
note_on channel=0 note=56 velocity=29 time=0
note_on channel=0 note=48 velocity=24 time=0
note_on channel=0 note=48 velocity=0 time=120
note_on channel=0 note=56 velocity=0 time=0
note_on channel=0 note=51 velocity=0 time=0
<meta message set_tempo tempo=559076 time=40>
note_on channel=0 note=70 velocity=63 time=0
note_on channel=0 note=48 velocity=33 time=0
note_on channel=0 note=56 velocity=39 time=0
note_on channel=0 note=51 velocity=33 time=0
note_on channel=0 note=72 velocity=0 time=12
note_on channel=0 note=56 velocity=0 time=108
note_on channel=0 note=51 velocity=0 time=0
note_on channel=0 note=48 velocity=0 time=0
note_on channel=0 note=48 velocity=25 time=40
note_on channel=0 note=56 velocity=30 time=0
note_on channel=0 note=51 velocity=25 time=0
note_on channel=0 note=68 velocity=66 time=80
note_on channel=0 note=70 velocity=0 time=12
note_on channel=0 note=51 velocity=0 time=28
note_on channel=0 note=48 velocity=0 time=0
note_on channel=0 note=56 velocity=0 time=0
note_on channel=0 note=51 velocity=26 time=40
note_on channel=0 note=48 velocity=26 time=0
note_on channel=0 note=56 velocity=31 time=0
<meta message set_tempo tempo=619707 time=40>
note_on channel=0 note=56 velocity=0 time=80
note_on channel=0 note=48 velocity=0 time=0
note_on channel=0 note=51 velocity=0 time=0
<meta message set_tempo tempo=536577 time=40>
note_on channel=0 note=68 velocity=0 time=0
note_on channel=0 note=67 velocity=57 time=0
note_on channel=0 note=75 velocity=68 time=0
note_on channel=0 note=37 velocity=42 time=0
control_change channel=0 control=64 value=127 time=53
note_on channel=0 note=37 velocity=0 time=67
note_on channel=0 note=53 velocity=30 time=40
note_on channel=0 note=49 velocity=25 time=0
note_on channel=0 note=75 velocity=0 time=80
note_on channel=0 note=67 velocity=0 time=0
note_on channel=0 note=65 velocity=56 time=0
note_on channel=0 note=73 velocity=66 time=0
note_on channel=0 note=53 velocity=0 time=40
note_on channel=0 note=49 velocity=0 time=0
note_on channel=0 note=53 velocity=31 time=40
note_on channel=0 note=49 velocity=26 time=0
note_on channel=0 note=49 velocity=0 time=120
note_on channel=0 note=53 velocity=0 time=0
<meta message set_tempo tempo=546349 time=40>
note_on channel=0 note=65 velocity=0 time=0
note_on channel=0 note=73 velocity=0 time=0
note_on channel=0 note=63 velocity=53 time=0
note_on channel=0 note=72 velocity=63 time=0
note_on channel=0 note=49 velocity=33 time=0
note_on channel=0 note=53 velocity=39 time=0
note_on channel=0 note=53 velocity=0 time=120
note_on channel=0 note=49 velocity=0 time=0
note_on channel=0 note=49 velocity=24 time=40
note_on channel=0 note=53 velocity=29 time=0
note_on channel=0 note=72 velocity=0 time=80
note_on channel=0 note=63 velocity=0 time=0
note_on channel=0 note=61 velocity=51 time=0
note_on channel=0 note=70 velocity=60 time=0
note_on channel=0 note=49 velocity=0 time=40
note_on channel=0 note=53 velocity=0 time=0
note_on channel=0 note=53 velocity=28 time=40
note_on channel=0 note=49 velocity=23 time=0
<meta message set_tempo tempo=619707 time=40>
note_on channel=0 note=49 velocity=0 time=80
note_on channel=0 note=53 velocity=0 time=0
<meta message set_tempo tempo=546349 time=40>
note_on channel=0 note=61 velocity=0 time=0
note_on channel=0 note=70 velocity=0 time=0
note_on channel=0 note=60 velocity=49 time=0
note_on channel=0 note=68 velocity=58 time=0
note_on channel=0 note=39 velocity=36 time=0
control_change channel=0 control=64 value=0 time=18
control_change channel=0 control=64 value=127 time=70
note_on channel=0 note=39 velocity=0 time=32
note_on channel=0 note=51 velocity=21 time=40
note_on channel=0 note=56 velocity=26 time=0
note_on channel=0 note=56 velocity=0 time=120
note_on channel=0 note=51 velocity=0 time=0
note_on channel=0 note=56 velocity=26 time=40
note_on channel=0 note=51 velocity=22 time=0
<meta message set_tempo tempo=653452 time=40>
note_on channel=0 note=51 velocity=0 time=80
note_on channel=0 note=56 velocity=0 time=0
<meta message set_tempo tempo=559076 time=40>
note_on channel=0 note=68 velocity=0 time=0
note_on channel=0 note=60 velocity=0 time=0
note_on channel=0 note=63 velocity=55 time=0
note_on channel=0 note=72 velocity=55 time=0
note_on channel=0 note=39 velocity=34 time=0
control_change channel=0 control=64 value=0 time=14
control_change channel=0 control=64 value=127 time=67
note_on channel=0 note=39 velocity=0 time=39
note_on channel=0 note=51 velocity=21 time=40
note_on channel=0 note=55 velocity=26 time=0
note_on channel=0 note=55 velocity=0 time=120
note_on channel=0 note=51 velocity=0 time=0
note_on channel=0 note=51 velocity=21 time=40
note_on channel=0 note=55 velocity=25 time=0
<meta message set_tempo tempo=619707 time=40>
note_on channel=0 note=72 velocity=0 time=0
note_on channel=0 note=63 velocity=0 time=0
note_on channel=0 note=61 velocity=54 time=0
note_on channel=0 note=70 velocity=54 time=0
note_on channel=0 note=51 velocity=0 time=80
note_on channel=0 note=55 velocity=0 time=0
<meta message set_tempo tempo=577923 time=40>
note_on channel=0 note=61 velocity=0 time=0
note_on channel=0 note=70 velocity=0 time=0
note_on channel=0 note=60 velocity=40 time=0
note_on channel=0 note=68 velocity=48 time=0
note_on channel=0 note=44 velocity=33 time=0
control_change channel=0 control=64 value=0 time=7
control_change channel=0 control=64 value=127 time=89
note_on channel=0 note=44 velocity=0 time=24
note_on channel=0 note=60 velocity=23 time=40
note_on channel=0 note=51 velocity=19 time=0
note_on channel=0 note=56 velocity=19 time=0
note_on channel=0 note=56 velocity=0 time=120
note_on channel=0 note=60 velocity=0 time=0
note_on channel=0 note=51 velocity=0 time=0
note_on channel=0 note=56 velocity=19 time=40
note_on channel=0 note=60 velocity=23 time=0
note_on channel=0 note=51 velocity=19 time=0
note_on channel=0 note=51 velocity=0 time=120
note_on channel=0 note=56 velocity=0 time=0
note_on channel=0 note=60 velocity=0 time=0
<meta message set_tempo tempo=564334 time=40>
note_on channel=0 note=68 velocity=0 time=0
note_on channel=0 note=60 velocity=0 time=0
note_on channel=0 note=60 velocity=25 time=0
note_on channel=0 note=51 velocity=21 time=0
note_on channel=0 note=56 velocity=21 time=0
note_on channel=0 note=56 velocity=0 time=120
note_on channel=0 note=51 velocity=0 time=0
note_on channel=0 note=60 velocity=0 time=0
note_on channel=0 note=60 velocity=25 time=40
note_on channel=0 note=56 velocity=21 time=0
note_on channel=0 note=51 velocity=21 time=0
note_on channel=0 note=51 velocity=0 time=120
note_on channel=0 note=56 velocity=0 time=0
note_on channel=0 note=60 velocity=0 time=0
note_on channel=0 note=60 velocity=25 time=40
note_on channel=0 note=51 velocity=21 time=0
note_on channel=0 note=56 velocity=21 time=0
note_on channel=0 note=56 velocity=0 time=120
note_on channel=0 note=51 velocity=0 time=0
note_on channel=0 note=60 velocity=0 time=0
<meta message set_tempo tempo=546349 time=40>
note_on channel=0 note=73 velocity=53 time=0
note_on channel=0 note=60 velocity=32 time=0
note_on channel=0 note=51 velocity=27 time=0
note_on channel=0 note=56 velocity=27 time=0
control_change channel=0 control=64 value=0 time=0
note_on channel=0 note=56 velocity=0 time=120
note_on channel=0 note=51 velocity=0 time=0
note_on channel=0 note=60 velocity=0 time=0
note_on channel=0 note=56 velocity=20 time=40
note_on channel=0 note=60 velocity=24 time=0
note_on channel=0 note=51 velocity=20 time=0
note_on channel=0 note=72 velocity=53 time=80
note_on channel=0 note=73 velocity=0 time=12
note_on channel=0 note=51 velocity=0 time=28
note_on channel=0 note=56 velocity=0 time=0
note_on channel=0 note=60 velocity=0 time=0
note_on channel=0 note=51 velocity=21 time=40
note_on channel=0 note=56 velocity=21 time=0
note_on channel=0 note=60 velocity=25 time=0
note_on channel=0 note=60 velocity=0 time=120
note_on channel=0 note=56 velocity=0 time=0
note_on channel=0 note=51 velocity=0 time=0
<meta message set_tempo tempo=559076 time=40>
note_on channel=0 note=71 velocity=53 time=0
note_on channel=0 note=60 velocity=33 time=0
note_on channel=0 note=56 velocity=28 time=0
note_on channel=0 note=51 velocity=28 time=0
note_on channel=0 note=72 velocity=0 time=12
note_on channel=0 note=56 velocity=0 time=108
note_on channel=0 note=51 velocity=0 time=0
note_on channel=0 note=60 velocity=0 time=0
note_on channel=0 note=51 velocity=21 time=40
note_on channel=0 note=56 velocity=21 time=0
note_on channel=0 note=60 velocity=25 time=0
note_on channel=0 note=72 velocity=53 time=80
note_on channel=0 note=71 velocity=0 time=12
note_on channel=0 note=60 velocity=0 time=28
note_on channel=0 note=51 velocity=0 time=0
note_on channel=0 note=56 velocity=0 time=0
note_on channel=0 note=51 velocity=21 time=40
note_on channel=0 note=60 velocity=25 time=0
note_on channel=0 note=56 velocity=21 time=0
<meta message set_tempo tempo=598086 time=40>
note_on channel=0 note=56 velocity=0 time=80
note_on channel=0 note=60 velocity=0 time=0
note_on channel=0 note=51 velocity=0 time=0
<meta message set_tempo tempo=561693 time=40>
note_on channel=0 note=72 velocity=0 time=0
note_on channel=0 note=84 velocity=53 time=0
note_on channel=0 note=77 velocity=48 time=0
note_on channel=0 note=37 velocity=33 time=0
control_change channel=0 control=64 value=0 time=7
<meta message set_tempo tempo=569692 time=113>
note_on channel=0 note=37 velocity=0 time=0
note_on channel=0 note=49 velocity=19 time=40
note_on channel=0 note=53 velocity=19 time=0
note_on channel=0 note=60 velocity=23 time=0
note_on channel=0 note=82 velocity=53 time=80
note_on channel=0 note=84 velocity=0 time=12
note_on channel=0 note=60 velocity=0 time=28
note_on channel=0 note=53 velocity=0 time=0
note_on channel=0 note=49 velocity=0 time=0
note_on channel=0 note=60 velocity=23 time=40
note_on channel=0 note=53 velocity=19 time=0
note_on channel=0 note=49 velocity=19 time=0
note_on channel=0 note=49 velocity=0 time=120
note_on channel=0 note=60 velocity=0 time=0
note_on channel=0 note=53 velocity=0 time=0
<meta message set_tempo tempo=564334 time=40>
note_on channel=0 note=81 velocity=53 time=0
note_on channel=0 note=49 velocity=25 time=0
note_on channel=0 note=60 velocity=30 time=0
note_on channel=0 note=53 velocity=25 time=0
note_on channel=0 note=82 velocity=0 time=12
note_on channel=0 note=60 velocity=0 time=108
note_on channel=0 note=49 velocity=0 time=0
note_on channel=0 note=53 velocity=0 time=0
note_on channel=0 note=53 velocity=21 time=40
note_on channel=0 note=60 velocity=25 time=0
note_on channel=0 note=49 velocity=21 time=0
note_on channel=0 note=82 velocity=53 time=80
note_on channel=0 note=81 velocity=0 time=12
note_on channel=0 note=49 velocity=0 time=28
note_on channel=0 note=60 velocity=0 time=0
note_on channel=0 note=53 velocity=0 time=0
note_on channel=0 note=53 velocity=21 time=40
note_on channel=0 note=49 velocity=21 time=0
note_on channel=0 note=60 velocity=25 time=0
note_on channel=0 note=60 velocity=0 time=120
note_on channel=0 note=53 velocity=0 time=0
note_on channel=0 note=49 velocity=0 time=0
<meta message set_tempo tempo=546349 time=40>
note_on channel=0 note=77 velocity=0 time=0
note_on channel=0 note=82 velocity=0 time=0
note_on channel=0 note=72 velocity=53 time=0
note_on channel=0 note=58 velocity=32 time=0
note_on channel=0 note=53 velocity=27 time=0
note_on channel=0 note=49 velocity=27 time=0
note_on channel=0 note=49 velocity=0 time=120
note_on channel=0 note=53 velocity=0 time=0
note_on channel=0 note=58 velocity=0 time=0
note_on channel=0 note=53 velocity=20 time=40
note_on channel=0 note=58 velocity=24 time=0
note_on channel=0 note=49 velocity=20 time=0
note_on channel=0 note=70 velocity=53 time=80
note_on channel=0 note=72 velocity=0 time=12
note_on channel=0 note=49 velocity=0 time=28
note_on channel=0 note=53 velocity=0 time=0
note_on channel=0 note=58 velocity=0 time=0
note_on channel=0 note=53 velocity=21 time=40
note_on channel=0 note=58 velocity=25 time=0
note_on channel=0 note=49 velocity=21 time=0
note_on channel=0 note=49 velocity=0 time=120
note_on channel=0 note=58 velocity=0 time=0
note_on channel=0 note=53 velocity=0 time=0
<meta message set_tempo tempo=559076 time=40>
note_on channel=0 note=69 velocity=53 time=0
note_on channel=0 note=53 velocity=28 time=0
note_on channel=0 note=58 velocity=33 time=0
note_on channel=0 note=49 velocity=28 time=0
note_on channel=0 note=70 velocity=0 time=12
note_on channel=0 note=58 velocity=0 time=108
note_on channel=0 note=49 velocity=0 time=0
note_on channel=0 note=53 velocity=0 time=0
note_on channel=0 note=53 velocity=21 time=40
note_on channel=0 note=49 velocity=21 time=0
note_on channel=0 note=58 velocity=25 time=0
note_on channel=0 note=70 velocity=53 time=80
note_on channel=0 note=69 velocity=0 time=12
note_on channel=0 note=58 velocity=0 time=28
note_on channel=0 note=53 velocity=0 time=0
note_on channel=0 note=49 velocity=0 time=0
note_on channel=0 note=49 velocity=21 time=40
note_on channel=0 note=58 velocity=25 time=0
note_on channel=0 note=53 velocity=21 time=0
<meta message set_tempo tempo=577923 time=40>
note_on channel=0 note=53 velocity=0 time=80
note_on channel=0 note=58 velocity=0 time=0
note_on channel=0 note=49 velocity=0 time=0
<meta message set_tempo tempo=564334 time=40>
note_on channel=0 note=70 velocity=0 time=0
note_on channel=0 note=82 velocity=58 time=0
note_on channel=0 note=75 velocity=48 time=0
note_on channel=0 note=36 velocity=33 time=0
<meta message set_tempo tempo=577923 time=120>
note_on channel=0 note=36 velocity=0 time=0
note_on channel=0 note=58 velocity=23 time=40
note_on channel=0 note=51 velocity=19 time=0
note_on channel=0 note=48 velocity=19 time=0
note_on channel=0 note=82 velocity=0 time=80
note_on channel=0 note=80 velocity=60 time=0
note_on channel=0 note=51 velocity=0 time=40
note_on channel=0 note=48 velocity=0 time=0
note_on channel=0 note=58 velocity=0 time=0
note_on channel=0 note=58 velocity=23 time=40
note_on channel=0 note=48 velocity=19 time=0
note_on channel=0 note=51 velocity=19 time=0
note_on channel=0 note=51 velocity=0 time=120
note_on channel=0 note=58 velocity=0 time=0
note_on channel=0 note=48 velocity=0 time=0
<meta message set_tempo tempo=564334 time=40>
note_on channel=0 note=80 velocity=0 time=0
note_on channel=0 note=79 velocity=63 time=0
note_on channel=0 note=51 velocity=25 time=0
note_on channel=0 note=58 velocity=30 time=0
note_on channel=0 note=48 velocity=25 time=0
note_on channel=0 note=48 velocity=0 time=120
note_on channel=0 note=51 velocity=0 time=0
note_on channel=0 note=58 velocity=0 time=0
note_on channel=0 note=51 velocity=21 time=40
note_on channel=0 note=48 velocity=21 time=0
note_on channel=0 note=58 velocity=25 time=0
note_on channel=0 note=79 velocity=0 time=80
note_on channel=0 note=80 velocity=66 time=0
note_on channel=0 note=48 velocity=0 time=40
note_on channel=0 note=58 velocity=0 time=0
note_on channel=0 note=51 velocity=0 time=0
note_on channel=0 note=58 velocity=25 time=40
note_on channel=0 note=48 velocity=21 time=0
note_on channel=0 note=51 velocity=21 time=0
note_on channel=0 note=51 velocity=0 time=120
note_on channel=0 note=58 velocity=0 time=0
note_on channel=0 note=48 velocity=0 time=0
<meta message set_tempo tempo=546349 time=40>
note_on channel=0 note=75 velocity=0 time=0
note_on channel=0 note=80 velocity=0 time=0
note_on channel=0 note=73 velocity=58 time=0
note_on channel=0 note=51 velocity=29 time=0
note_on channel=0 note=48 velocity=29 time=0
note_on channel=0 note=56 velocity=35 time=0
note_on channel=0 note=56 velocity=0 time=120
note_on channel=0 note=48 velocity=0 time=0
note_on channel=0 note=51 velocity=0 time=0
note_on channel=0 note=56 velocity=27 time=40
note_on channel=0 note=48 velocity=22 time=0
note_on channel=0 note=51 velocity=22 time=0
note_on channel=0 note=72 velocity=60 time=80
note_on channel=0 note=73 velocity=0 time=12
note_on channel=0 note=51 velocity=0 time=28
note_on channel=0 note=56 velocity=0 time=0
note_on channel=0 note=48 velocity=0 time=0
note_on channel=0 note=51 velocity=24 time=40
note_on channel=0 note=48 velocity=24 time=0
note_on channel=0 note=56 velocity=29 time=0
note_on channel=0 note=56 velocity=0 time=120
note_on channel=0 note=48 velocity=0 time=0
note_on channel=0 note=51 velocity=0 time=0
<meta message set_tempo tempo=559076 time=40>
note_on channel=0 note=70 velocity=63 time=0
note_on channel=0 note=51 velocity=33 time=0
note_on channel=0 note=56 velocity=39 time=0
note_on channel=0 note=48 velocity=33 time=0
note_on channel=0 note=72 velocity=0 time=12
note_on channel=0 note=56 velocity=0 time=108
note_on channel=0 note=48 velocity=0 time=0
note_on channel=0 note=51 velocity=0 time=0
note_on channel=0 note=51 velocity=25 time=40
note_on channel=0 note=48 velocity=25 time=0
note_on channel=0 note=56 velocity=30 time=0
note_on channel=0 note=68 velocity=66 time=80
note_on channel=0 note=70 velocity=0 time=12
note_on channel=0 note=56 velocity=0 time=28
note_on channel=0 note=51 velocity=0 time=0
note_on channel=0 note=48 velocity=0 time=0
note_on channel=0 note=51 velocity=26 time=40
note_on channel=0 note=56 velocity=31 time=0
note_on channel=0 note=48 velocity=26 time=0
<meta message set_tempo tempo=619707 time=40>
note_on channel=0 note=48 velocity=0 time=80
note_on channel=0 note=56 velocity=0 time=0
note_on channel=0 note=51 velocity=0 time=0
<meta message set_tempo tempo=536577 time=40>
note_on channel=0 note=68 velocity=0 time=0
note_on channel=0 note=75 velocity=57 time=0
note_on channel=0 note=67 velocity=57 time=0
note_on channel=0 note=79 velocity=68 time=0
note_on channel=0 note=37 velocity=42 time=0
control_change channel=0 control=64 value=127 time=53
note_on channel=0 note=37 velocity=0 time=67
note_on channel=0 note=56 velocity=30 time=40
note_on channel=0 note=49 velocity=25 time=0
note_on channel=0 note=53 velocity=25 time=0
note_on channel=0 note=75 velocity=0 time=80
note_on channel=0 note=79 velocity=0 time=0
note_on channel=0 note=67 velocity=0 time=0
note_on channel=0 note=73 velocity=56 time=0
note_on channel=0 note=65 velocity=56 time=0
note_on channel=0 note=77 velocity=66 time=0
note_on channel=0 note=56 velocity=0 time=40
note_on channel=0 note=53 velocity=0 time=0
note_on channel=0 note=49 velocity=0 time=0
note_on channel=0 note=53 velocity=26 time=40
note_on channel=0 note=56 velocity=31 time=0
note_on channel=0 note=49 velocity=26 time=0
note_on channel=0 note=49 velocity=0 time=120
note_on channel=0 note=53 velocity=0 time=0
note_on channel=0 note=56 velocity=0 time=0
<meta message set_tempo tempo=546349 time=40>
note_on channel=0 note=77 velocity=0 time=0
note_on channel=0 note=73 velocity=0 time=0
note_on channel=0 note=65 velocity=0 time=0
note_on channel=0 note=72 velocity=53 time=0
note_on channel=0 note=63 velocity=53 time=0
note_on channel=0 note=75 velocity=63 time=0
note_on channel=0 note=53 velocity=33 time=0
note_on channel=0 note=57 velocity=39 time=0
note_on channel=0 note=49 velocity=33 time=0
control_change channel=0 control=64 value=0 time=4
control_change channel=0 control=64 value=127 time=46
note_on channel=0 note=49 velocity=0 time=70
note_on channel=0 note=53 velocity=0 time=0
note_on channel=0 note=57 velocity=0 time=0
note_on channel=0 note=53 velocity=24 time=40
note_on channel=0 note=49 velocity=24 time=0
note_on channel=0 note=57 velocity=29 time=0
note_on channel=0 note=72 velocity=0 time=80
note_on channel=0 note=63 velocity=0 time=0
note_on channel=0 note=75 velocity=0 time=0
note_on channel=0 note=70 velocity=51 time=0
note_on channel=0 note=61 velocity=51 time=0
note_on channel=0 note=73 velocity=60 time=0
note_on channel=0 note=53 velocity=0 time=40
note_on channel=0 note=57 velocity=0 time=0
note_on channel=0 note=49 velocity=0 time=0
note_on channel=0 note=58 velocity=28 time=40
note_on channel=0 note=49 velocity=23 time=0
note_on channel=0 note=53 velocity=23 time=0
<meta message set_tempo tempo=619707 time=40>
note_on channel=0 note=53 velocity=0 time=80
note_on channel=0 note=58 velocity=0 time=0
note_on channel=0 note=49 velocity=0 time=0
<meta message set_tempo tempo=546349 time=40>
note_on channel=0 note=73 velocity=0 time=0
note_on channel=0 note=70 velocity=0 time=0
note_on channel=0 note=61 velocity=0 time=0
note_on channel=0 note=72 velocity=58 time=0
note_on channel=0 note=60 velocity=49 time=0
note_on channel=0 note=68 velocity=49 time=0
note_on channel=0 note=39 velocity=36 time=0
control_change channel=0 control=64 value=0 time=18
control_change channel=0 control=64 value=127 time=70
note_on channel=0 note=39 velocity=0 time=32
note_on channel=0 note=51 velocity=21 time=40
note_on channel=0 note=56 velocity=26 time=0
note_on channel=0 note=56 velocity=0 time=120
note_on channel=0 note=51 velocity=0 time=0
note_on channel=0 note=51 velocity=22 time=40
note_on channel=0 note=56 velocity=26 time=0
<meta message set_tempo tempo=653452 time=40>
note_on channel=0 note=56 velocity=0 time=80
note_on channel=0 note=51 velocity=0 time=0
<meta message set_tempo tempo=559076 time=40>
note_on channel=0 note=72 velocity=0 time=0
note_on channel=0 note=60 velocity=0 time=0
note_on channel=0 note=68 velocity=0 time=0
note_on channel=0 note=61 velocity=46 time=0
note_on channel=0 note=67 velocity=46 time=0
note_on channel=0 note=73 velocity=55 time=0
note_on channel=0 note=39 velocity=34 time=0
control_change channel=0 control=64 value=0 time=14
control_change channel=0 control=64 value=127 time=67
note_on channel=0 note=39 velocity=0 time=39
note_on channel=0 note=58 velocity=26 time=40
note_on channel=0 note=55 velocity=21 time=0
note_on channel=0 note=51 velocity=21 time=0
note_on channel=0 note=51 velocity=0 time=120
note_on channel=0 note=58 velocity=0 time=0
note_on channel=0 note=55 velocity=0 time=0
note_on channel=0 note=58 velocity=25 time=40
note_on channel=0 note=55 velocity=21 time=0
note_on channel=0 note=51 velocity=21 time=0
<meta message set_tempo tempo=619707 time=40>
note_on channel=0 note=73 velocity=0 time=0
note_on channel=0 note=70 velocity=54 time=0
note_on channel=0 note=55 velocity=0 time=80
note_on channel=0 note=58 velocity=0 time=0
note_on channel=0 note=51 velocity=0 time=0
<meta message set_tempo tempo=577923 time=40>
note_on channel=0 note=61 velocity=0 time=0
note_on channel=0 note=67 velocity=0 time=0
note_on channel=0 note=70 velocity=0 time=0
note_on channel=0 note=56 velocity=40 time=0
note_on channel=0 note=63 velocity=40 time=0
note_on channel=0 note=60 velocity=40 time=0
note_on channel=0 note=68 velocity=48 time=0
note_on channel=0 note=32 velocity=33 time=0
note_on channel=0 note=44 velocity=33 time=0
control_change channel=0 control=64 value=0 time=0
note_on channel=0 note=44 velocity=0 time=120
note_on channel=0 note=51 velocity=23 time=40
note_on channel=0 note=44 velocity=19 time=0
note_on channel=0 note=48 velocity=21 time=0
note_on channel=0 note=48 velocity=0 time=120
note_on channel=0 note=44 velocity=0 time=0
note_on channel=0 note=51 velocity=0 time=0
note_on channel=0 note=48 velocity=19 time=40
note_on channel=0 note=44 velocity=19 time=0
note_on channel=0 note=51 velocity=23 time=0
note_on channel=0 note=51 velocity=0 time=120
note_on channel=0 note=44 velocity=0 time=0
note_on channel=0 note=48 velocity=0 time=0
<meta message set_tempo tempo=564334 time=40>
note_on channel=0 note=44 velocity=21 time=0
note_on channel=0 note=48 velocity=21 time=0
note_on channel=0 note=51 velocity=25 time=0
note_on channel=0 note=51 velocity=0 time=120
note_on channel=0 note=48 velocity=0 time=0
note_on channel=0 note=44 velocity=0 time=0
note_on channel=0 note=48 velocity=21 time=40
note_on channel=0 note=51 velocity=25 time=0
note_on channel=0 note=44 velocity=21 time=0
note_on channel=0 note=44 velocity=0 time=120
note_on channel=0 note=51 velocity=0 time=0
note_on channel=0 note=48 velocity=0 time=0
note_on channel=0 note=51 velocity=25 time=40
note_on channel=0 note=48 velocity=21 time=0
note_on channel=0 note=44 velocity=21 time=0
note_on channel=0 note=44 velocity=0 time=120
note_on channel=0 note=48 velocity=0 time=0
note_on channel=0 note=51 velocity=0 time=0
<meta message set_tempo tempo=546349 time=40>
note_on channel=0 note=44 velocity=27 time=0
note_on channel=0 note=51 velocity=32 time=0
note_on channel=0 note=48 velocity=27 time=0
note_on channel=0 note=48 velocity=0 time=120
note_on channel=0 note=51 velocity=0 time=0
note_on channel=0 note=44 velocity=0 time=0
note_on channel=0 note=44 velocity=20 time=40
note_on channel=0 note=51 velocity=24 time=0
note_on channel=0 note=48 velocity=27 time=0
note_on channel=0 note=48 velocity=0 time=120
note_on channel=0 note=51 velocity=0 time=0
note_on channel=0 note=44 velocity=0 time=0
note_on channel=0 note=44 velocity=21 time=40
note_on channel=0 note=48 velocity=21 time=0
note_on channel=0 note=51 velocity=25 time=0
note_on channel=0 note=51 velocity=0 time=120
note_on channel=0 note=48 velocity=0 time=0
note_on channel=0 note=44 velocity=0 time=0
<meta message set_tempo tempo=559076 time=40>
note_on channel=0 note=63 velocity=0 time=0
note_on channel=0 note=60 velocity=0 time=0
note_on channel=0 note=56 velocity=0 time=0
note_on channel=0 note=32 velocity=0 time=0
note_on channel=0 note=68 velocity=0 time=0
note_on channel=0 note=60 velocity=40 time=0
note_on channel=0 note=51 velocity=33 time=0
note_on channel=0 note=48 velocity=28 time=0
note_on channel=0 note=44 velocity=28 time=0
note_on channel=0 note=44 velocity=0 time=120
note_on channel=0 note=48 velocity=0 time=0
note_on channel=0 note=51 velocity=0 time=0
note_on channel=0 note=44 velocity=21 time=40
note_on channel=0 note=48 velocity=21 time=0
note_on channel=0 note=51 velocity=25 time=0
note_on channel=0 note=51 velocity=0 time=120
note_on channel=0 note=48 velocity=0 time=0
note_on channel=0 note=44 velocity=0 time=0
note_on channel=0 note=44 velocity=21 time=40
note_on channel=0 note=48 velocity=21 time=0
note_on channel=0 note=51 velocity=25 time=0
<meta message set_tempo tempo=595829 time=40>
note_on channel=0 note=60 velocity=0 time=0
note_on channel=0 note=63 velocity=37 time=0
note_on channel=0 note=44 velocity=0 time=80
note_on channel=0 note=51 velocity=0 time=0
note_on channel=0 note=48 velocity=0 time=0
<meta message set_tempo tempo=577923 time=40>
note_on channel=0 note=63 velocity=0 time=0
note_on channel=0 note=56 velocity=37 time=0
note_on channel=0 note=68 velocity=44 time=0
note_on channel=0 note=44 velocity=33 time=0
note_on channel=0 note=32 velocity=33 time=0
control_change channel=0 control=64 value=0 time=0
note_on channel=0 note=44 velocity=0 time=120
note_on channel=0 note=51 velocity=23 time=40
note_on channel=0 note=44 velocity=19 time=0
note_on channel=0 note=48 velocity=21 time=0
note_on channel=0 note=48 velocity=0 time=120
note_on channel=0 note=51 velocity=0 time=0
note_on channel=0 note=44 velocity=0 time=0
note_on channel=0 note=48 velocity=19 time=40
note_on channel=0 note=44 velocity=19 time=0
note_on channel=0 note=51 velocity=23 time=0
note_on channel=0 note=68 velocity=0 time=40
note_on channel=0 note=56 velocity=0 time=0
note_on channel=0 note=48 velocity=0 time=80
note_on channel=0 note=44 velocity=0 time=0
note_on channel=0 note=51 velocity=0 time=0
<meta message set_tempo tempo=564334 time=40>
note_on channel=0 note=56 velocity=34 time=0
note_on channel=0 note=68 velocity=40 time=0
note_on channel=0 note=44 velocity=21 time=0
note_on channel=0 note=48 velocity=21 time=0
note_on channel=0 note=51 velocity=25 time=0
note_on channel=0 note=51 velocity=0 time=120
note_on channel=0 note=44 velocity=0 time=0
note_on channel=0 note=48 velocity=0 time=0
note_on channel=0 note=48 velocity=21 time=40
note_on channel=0 note=51 velocity=25 time=0
note_on channel=0 note=44 velocity=21 time=0
note_on channel=0 note=44 velocity=0 time=120
note_on channel=0 note=48 velocity=0 time=0
note_on channel=0 note=51 velocity=0 time=0
note_on channel=0 note=48 velocity=21 time=40
note_on channel=0 note=44 velocity=21 time=0
note_on channel=0 note=51 velocity=25 time=0
note_on channel=0 note=68 velocity=0 time=40
note_on channel=0 note=56 velocity=0 time=0
note_on channel=0 note=48 velocity=0 time=80
note_on channel=0 note=44 velocity=0 time=0
note_on channel=0 note=51 velocity=0 time=0
<meta message set_tempo tempo=546349 time=40>
note_on channel=0 note=32 velocity=0 time=0
note_on channel=0 note=56 velocity=34 time=0
note_on channel=0 note=68 velocity=40 time=0
note_on channel=0 note=51 velocity=32 time=0
note_on channel=0 note=48 velocity=27 time=0
note_on channel=0 note=44 velocity=27 time=0
note_on channel=0 note=44 velocity=0 time=120
note_on channel=0 note=51 velocity=0 time=0
note_on channel=0 note=48 velocity=0 time=0
note_on channel=0 note=48 velocity=27 time=40
note_on channel=0 note=44 velocity=20 time=0
note_on channel=0 note=51 velocity=24 time=0
note_on channel=0 note=51 velocity=0 time=120
note_on channel=0 note=48 velocity=0 time=0
note_on channel=0 note=44 velocity=0 time=0
note_on channel=0 note=51 velocity=25 time=40
note_on channel=0 note=44 velocity=21 time=0
note_on channel=0 note=48 velocity=21 time=0
note_on channel=0 note=68 velocity=0 time=40
note_on channel=0 note=56 velocity=0 time=0
note_on channel=0 note=44 velocity=0 time=80
note_on channel=0 note=51 velocity=0 time=0
note_on channel=0 note=48 velocity=0 time=0
<meta message set_tempo tempo=559076 time=40>
note_on channel=0 note=56 velocity=34 time=0
note_on channel=0 note=68 velocity=40 time=0
note_on channel=0 note=44 velocity=28 time=0
note_on channel=0 note=51 velocity=33 time=0
note_on channel=0 note=48 velocity=28 time=0
note_on channel=0 note=48 velocity=0 time=120
note_on channel=0 note=44 velocity=0 time=0
note_on channel=0 note=51 velocity=0 time=0
note_on channel=0 note=51 velocity=25 time=40
note_on channel=0 note=48 velocity=21 time=0
note_on channel=0 note=44 velocity=21 time=0
note_on channel=0 note=44 velocity=0 time=120
note_on channel=0 note=51 velocity=0 time=0
note_on channel=0 note=48 velocity=0 time=0
note_on channel=0 note=44 velocity=21 time=40
note_on channel=0 note=51 velocity=25 time=0
note_on channel=0 note=48 velocity=21 time=0
<meta message set_tempo tempo=819672 time=40>
note_on channel=0 note=68 velocity=0 time=0
note_on channel=0 note=56 velocity=0 time=0
note_on channel=0 note=51 velocity=0 time=80
note_on channel=0 note=44 velocity=0 time=0
note_on channel=0 note=48 velocity=0 time=0
<meta message set_tempo tempo=577923 time=40>
note_on channel=0 note=55 velocity=40 time=0
note_on channel=0 note=67 velocity=48 time=0
note_on channel=0 note=31 velocity=33 time=0
note_on channel=0 note=43 velocity=33 time=0
note_on channel=0 note=43 velocity=0 time=120
note_on channel=0 note=43 velocity=19 time=40
note_on channel=0 note=51 velocity=23 time=0
note_on channel=0 note=48 velocity=21 time=0
note_on channel=0 note=48 velocity=0 time=120
note_on channel=0 note=43 velocity=0 time=0
note_on channel=0 note=51 velocity=0 time=0
note_on channel=0 note=48 velocity=19 time=40
note_on channel=0 note=51 velocity=23 time=0
note_on channel=0 note=43 velocity=19 time=0
note_on channel=0 note=43 velocity=0 time=120
note_on channel=0 note=48 velocity=0 time=0
note_on channel=0 note=51 velocity=0 time=0
<meta message set_tempo tempo=564334 time=40>
note_on channel=0 note=48 velocity=21 time=0
note_on channel=0 note=51 velocity=25 time=0
note_on channel=0 note=43 velocity=21 time=0
note_on channel=0 note=43 velocity=0 time=120
note_on channel=0 note=48 velocity=0 time=0
note_on channel=0 note=51 velocity=0 time=0
note_on channel=0 note=43 velocity=21 time=40
note_on channel=0 note=48 velocity=21 time=0
note_on channel=0 note=51 velocity=25 time=0
note_on channel=0 note=51 velocity=0 time=120
note_on channel=0 note=43 velocity=0 time=0
note_on channel=0 note=48 velocity=0 time=0
note_on channel=0 note=48 velocity=21 time=40
note_on channel=0 note=43 velocity=21 time=0
note_on channel=0 note=51 velocity=25 time=0
note_on channel=0 note=51 velocity=0 time=120
note_on channel=0 note=48 velocity=0 time=0
note_on channel=0 note=43 velocity=0 time=0
<meta message set_tempo tempo=546349 time=40>
note_on channel=0 note=31 velocity=0 time=0
note_on channel=0 note=43 velocity=27 time=0
note_on channel=0 note=51 velocity=32 time=0
note_on channel=0 note=48 velocity=27 time=0
note_on channel=0 note=48 velocity=0 time=120
note_on channel=0 note=43 velocity=0 time=0
note_on channel=0 note=51 velocity=0 time=0
note_on channel=0 note=51 velocity=24 time=40
note_on channel=0 note=48 velocity=27 time=0
note_on channel=0 note=43 velocity=20 time=0
note_on channel=0 note=43 velocity=0 time=120
note_on channel=0 note=51 velocity=0 time=0
note_on channel=0 note=48 velocity=0 time=0
note_on channel=0 note=48 velocity=21 time=40
note_on channel=0 note=51 velocity=25 time=0
note_on channel=0 note=43 velocity=21 time=0
note_on channel=0 note=43 velocity=0 time=120
note_on channel=0 note=48 velocity=0 time=0
note_on channel=0 note=51 velocity=0 time=0
<meta message set_tempo tempo=559076 time=40>
note_on channel=0 note=67 velocity=0 time=0
note_on channel=0 note=55 velocity=0 time=0
note_on channel=0 note=60 velocity=40 time=0
note_on channel=0 note=43 velocity=28 time=0
note_on channel=0 note=51 velocity=33 time=0
note_on channel=0 note=48 velocity=28 time=0
note_on channel=0 note=48 velocity=0 time=120
note_on channel=0 note=51 velocity=0 time=0
note_on channel=0 note=43 velocity=0 time=0
note_on channel=0 note=51 velocity=25 time=40
note_on channel=0 note=43 velocity=21 time=0
note_on channel=0 note=48 velocity=21 time=0
note_on channel=0 note=48 velocity=0 time=120
note_on channel=0 note=43 velocity=0 time=0
note_on channel=0 note=51 velocity=0 time=0
note_on channel=0 note=48 velocity=21 time=40
note_on channel=0 note=43 velocity=21 time=0
note_on channel=0 note=51 velocity=25 time=0
<meta message set_tempo tempo=595829 time=40>
note_on channel=0 note=60 velocity=0 time=0
note_on channel=0 note=63 velocity=37 time=0
note_on channel=0 note=48 velocity=0 time=80
note_on channel=0 note=51 velocity=0 time=0
note_on channel=0 note=43 velocity=0 time=0
<meta message set_tempo tempo=577923 time=40>
note_on channel=0 note=63 velocity=0 time=0
note_on channel=0 note=55 velocity=37 time=0
note_on channel=0 note=67 velocity=44 time=0
note_on channel=0 note=31 velocity=33 time=0
note_on channel=0 note=43 velocity=33 time=0
note_on channel=0 note=43 velocity=0 time=120
note_on channel=0 note=51 velocity=23 time=40
note_on channel=0 note=43 velocity=19 time=0
note_on channel=0 note=48 velocity=21 time=0
note_on channel=0 note=48 velocity=0 time=120
note_on channel=0 note=51 velocity=0 time=0
note_on channel=0 note=43 velocity=0 time=0
note_on channel=0 note=51 velocity=24 time=40
note_on channel=0 note=48 velocity=19 time=0
note_on channel=0 note=43 velocity=19 time=0
note_on channel=0 note=67 velocity=0 time=40
note_on channel=0 note=55 velocity=0 time=0
note_on channel=0 note=51 velocity=0 time=80
note_on channel=0 note=48 velocity=0 time=0
note_on channel=0 note=43 velocity=0 time=0
<meta message set_tempo tempo=564334 time=40>
note_on channel=0 note=67 velocity=43 time=0
note_on channel=0 note=55 velocity=37 time=0
note_on channel=0 note=43 velocity=22 time=0
note_on channel=0 note=48 velocity=22 time=0
note_on channel=0 note=51 velocity=26 time=0
note_on channel=0 note=51 velocity=0 time=120
note_on channel=0 note=43 velocity=0 time=0
note_on channel=0 note=48 velocity=0 time=0
note_on channel=0 note=48 velocity=24 time=40
note_on channel=0 note=43 velocity=24 time=0
note_on channel=0 note=51 velocity=28 time=0
note_on channel=0 note=51 velocity=0 time=120
note_on channel=0 note=48 velocity=0 time=0
note_on channel=0 note=43 velocity=0 time=0
note_on channel=0 note=51 velocity=29 time=40
note_on channel=0 note=48 velocity=24 time=0
note_on channel=0 note=43 velocity=24 time=0
note_on channel=0 note=55 velocity=0 time=40
note_on channel=0 note=67 velocity=0 time=0
note_on channel=0 note=51 velocity=0 time=80
note_on channel=0 note=48 velocity=0 time=0
note_on channel=0 note=43 velocity=0 time=0
<meta message set_tempo tempo=546349 time=40>
note_on channel=0 note=31 velocity=0 time=0
note_on channel=0 note=55 velocity=42 time=0
note_on channel=0 note=67 velocity=50 time=0
note_on channel=0 note=51 velocity=39 time=0
note_on channel=0 note=48 velocity=33 time=0
note_on channel=0 note=43 velocity=33 time=0
note_on channel=0 note=43 velocity=0 time=120
note_on channel=0 note=51 velocity=0 time=0
note_on channel=0 note=48 velocity=0 time=0
note_on channel=0 note=51 velocity=31 time=40
note_on channel=0 note=43 velocity=24 time=0
note_on channel=0 note=48 velocity=34 time=0
note_on channel=0 note=48 velocity=0 time=120
note_on channel=0 note=51 velocity=0 time=0
note_on channel=0 note=43 velocity=0 time=0
note_on channel=0 note=51 velocity=34 time=40
note_on channel=0 note=48 velocity=28 time=0
note_on channel=0 note=43 velocity=28 time=0
note_on channel=0 note=67 velocity=0 time=40
note_on channel=0 note=55 velocity=0 time=0
note_on channel=0 note=48 velocity=0 time=80
note_on channel=0 note=51 velocity=0 time=0
note_on channel=0 note=43 velocity=0 time=0
<meta message set_tempo tempo=559076 time=40>
note_on channel=0 note=55 velocity=47 time=0
note_on channel=0 note=67 velocity=56 time=0
note_on channel=0 note=43 velocity=39 time=0
note_on channel=0 note=48 velocity=39 time=0
note_on channel=0 note=51 velocity=46 time=0
note_on channel=0 note=51 velocity=0 time=120
note_on channel=0 note=43 velocity=0 time=0
note_on channel=0 note=48 velocity=0 time=0
note_on channel=0 note=43 velocity=31 time=40
note_on channel=0 note=51 velocity=36 time=0
note_on channel=0 note=48 velocity=31 time=0
note_on channel=0 note=48 velocity=0 time=120
note_on channel=0 note=43 velocity=0 time=0
note_on channel=0 note=51 velocity=0 time=0
note_on channel=0 note=51 velocity=37 time=40
note_on channel=0 note=48 velocity=31 time=0
note_on channel=0 note=43 velocity=31 time=0
<meta message set_tempo tempo=819672 time=40>
note_on channel=0 note=67 velocity=0 time=0
note_on channel=0 note=55 velocity=0 time=0
note_on channel=0 note=48 velocity=0 time=80
note_on channel=0 note=51 velocity=0 time=0
note_on channel=0 note=43 velocity=0 time=0
<meta message set_tempo tempo=585366 time=40>
note_on channel=0 note=53 velocity=60 time=0
note_on channel=0 note=65 velocity=73 time=0
note_on channel=0 note=29 velocity=55 time=0
note_on channel=0 note=41 velocity=55 time=0
control_change channel=0 control=64 value=0 time=0
control_change channel=0 control=64 value=127 time=74
note_on channel=0 note=41 velocity=0 time=46
note_on channel=0 note=41 velocity=28 time=40
note_on channel=0 note=51 velocity=35 time=0
note_on channel=0 note=48 velocity=32 time=0
note_on channel=0 note=48 velocity=0 time=120
note_on channel=0 note=41 velocity=0 time=0
note_on channel=0 note=51 velocity=0 time=0
note_on channel=0 note=41 velocity=28 time=40
note_on channel=0 note=51 velocity=35 time=0
note_on channel=0 note=48 velocity=28 time=0
note_on channel=0 note=48 velocity=0 time=120
note_on channel=0 note=41 velocity=0 time=0
note_on channel=0 note=51 velocity=0 time=0
<meta message set_tempo tempo=564334 time=40>
note_on channel=0 note=41 velocity=32 time=0
note_on channel=0 note=48 velocity=32 time=0
note_on channel=0 note=51 velocity=37 time=0
note_on channel=0 note=51 velocity=0 time=120
note_on channel=0 note=41 velocity=0 time=0
note_on channel=0 note=48 velocity=0 time=0
note_on channel=0 note=48 velocity=32 time=40
note_on channel=0 note=41 velocity=32 time=0
note_on channel=0 note=51 velocity=37 time=0
note_on channel=0 note=51 velocity=0 time=120
note_on channel=0 note=48 velocity=0 time=0
note_on channel=0 note=41 velocity=0 time=0
note_on channel=0 note=51 velocity=37 time=40
note_on channel=0 note=48 velocity=32 time=0
note_on channel=0 note=41 velocity=32 time=0
<meta message set_tempo tempo=845070 time=40>
note_on channel=0 note=41 velocity=0 time=80
note_on channel=0 note=51 velocity=0 time=0
note_on channel=0 note=48 velocity=0 time=0
<meta message set_tempo tempo=585366 time=40>
note_on channel=0 note=65 velocity=0 time=0
note_on channel=0 note=29 velocity=0 time=0
note_on channel=0 note=53 velocity=0 time=0
note_on channel=0 note=54 velocity=60 time=0
note_on channel=0 note=66 velocity=73 time=0
note_on channel=0 note=30 velocity=55 time=0
note_on channel=0 note=42 velocity=55 time=0
control_change channel=0 control=64 value=0 time=0
control_change channel=0 control=64 value=127 time=74
note_on channel=0 note=42 velocity=0 time=46
note_on channel=0 note=48 velocity=32 time=40
note_on channel=0 note=42 velocity=28 time=0
note_on channel=0 note=51 velocity=35 time=0
note_on channel=0 note=51 velocity=0 time=120
note_on channel=0 note=48 velocity=0 time=0
note_on channel=0 note=42 velocity=0 time=0
note_on channel=0 note=51 velocity=35 time=40
note_on channel=0 note=42 velocity=28 time=0
note_on channel=0 note=48 velocity=28 time=0
note_on channel=0 note=48 velocity=0 time=120
note_on channel=0 note=51 velocity=0 time=0
note_on channel=0 note=42 velocity=0 time=0
<meta message set_tempo tempo=568720 time=40>
note_on channel=0 note=51 velocity=37 time=0
note_on channel=0 note=48 velocity=32 time=0
note_on channel=0 note=42 velocity=32 time=0
note_on channel=0 note=42 velocity=0 time=120
note_on channel=0 note=51 velocity=0 time=0
note_on channel=0 note=48 velocity=0 time=0
note_on channel=0 note=51 velocity=37 time=40
note_on channel=0 note=48 velocity=32 time=0
note_on channel=0 note=42 velocity=32 time=0
note_on channel=0 note=42 velocity=0 time=120
note_on channel=0 note=51 velocity=0 time=0
note_on channel=0 note=48 velocity=0 time=0
note_on channel=0 note=42 velocity=32 time=40
note_on channel=0 note=48 velocity=32 time=0
note_on channel=0 note=51 velocity=37 time=0
note_on channel=0 note=51 velocity=0 time=120
note_on channel=0 note=42 velocity=0 time=0
note_on channel=0 note=48 velocity=0 time=0
note_on channel=0 note=66 velocity=0 time=40
note_on channel=0 note=30 velocity=0 time=0
note_on channel=0 note=54 velocity=0 time=0
note_on channel=0 note=67 velocity=39 time=0
note_on channel=0 note=55 velocity=39 time=0
note_on channel=0 note=43 velocity=48 time=0
note_on channel=0 note=47 velocity=48 time=0
note_on channel=0 note=50 velocity=48 time=0
control_change channel=0 control=64 value=0 time=0
note_on channel=0 note=55 velocity=0 time=120
note_on channel=0 note=67 velocity=0 time=0
note_on channel=0 note=55 velocity=22 time=40
note_on channel=0 note=67 velocity=27 time=0
note_on channel=0 note=67 velocity=0 time=120
note_on channel=0 note=55 velocity=0 time=0
note_on channel=0 note=55 velocity=22 time=40
note_on channel=0 note=67 velocity=27 time=0
note_on channel=0 note=67 velocity=0 time=120
note_on channel=0 note=55 velocity=0 time=0
note_on channel=0 note=55 velocity=25 time=40
note_on channel=0 note=67 velocity=30 time=0
note_on channel=0 note=67 velocity=0 time=120
note_on channel=0 note=55 velocity=0 time=0
note_on channel=0 note=55 velocity=25 time=40
note_on channel=0 note=67 velocity=30 time=0
note_on channel=0 note=67 velocity=0 time=120
note_on channel=0 note=55 velocity=0 time=0
note_on channel=0 note=55 velocity=25 time=40
note_on channel=0 note=67 velocity=30 time=0
note_on channel=0 note=67 velocity=0 time=120
note_on channel=0 note=55 velocity=0 time=0
note_on channel=0 note=55 velocity=32 time=40
note_on channel=0 note=67 velocity=38 time=0
note_on channel=0 note=67 velocity=0 time=120
note_on channel=0 note=55 velocity=0 time=0
note_on channel=0 note=55 velocity=24 time=40
note_on channel=0 note=67 velocity=28 time=0
note_on channel=0 note=67 velocity=0 time=120
note_on channel=0 note=55 velocity=0 time=0
note_on channel=0 note=55 velocity=25 time=40
note_on channel=0 note=67 velocity=30 time=0
note_on channel=0 note=67 velocity=0 time=120
note_on channel=0 note=55 velocity=0 time=0
<meta message set_tempo tempo=551673 time=40>
note_on channel=0 note=47 velocity=0 time=0
note_on channel=0 note=43 velocity=0 time=0
note_on channel=0 note=50 velocity=0 time=0
note_on channel=0 note=55 velocity=33 time=0
note_on channel=0 note=67 velocity=39 time=0
note_on channel=0 note=47 velocity=35 time=0
note_on channel=0 note=67 velocity=0 time=120
note_on channel=0 note=55 velocity=0 time=0
note_on channel=0 note=55 velocity=25 time=40
note_on channel=0 note=67 velocity=30 time=0
note_on channel=0 note=67 velocity=0 time=120
note_on channel=0 note=55 velocity=0 time=0
note_on channel=0 note=55 velocity=25 time=40
note_on channel=0 note=67 velocity=30 time=0
note_on channel=0 note=47 velocity=0 time=40
note_on channel=0 note=48 velocity=30 time=0
note_on channel=0 note=67 velocity=0 time=80
note_on channel=0 note=55 velocity=0 time=0
<meta message set_tempo tempo=564334 time=40>
note_on channel=0 note=48 velocity=0 time=0
note_on channel=0 note=67 velocity=39 time=0
note_on channel=0 note=55 velocity=39 time=0
note_on channel=0 note=50 velocity=40 time=0
note_on channel=0 note=55 velocity=0 time=120
note_on channel=0 note=67 velocity=0 time=0
note_on channel=0 note=55 velocity=22 time=40
note_on channel=0 note=67 velocity=27 time=0
note_on channel=0 note=67 velocity=0 time=120
note_on channel=0 note=55 velocity=0 time=0
note_on channel=0 note=55 velocity=22 time=40
note_on channel=0 note=67 velocity=27 time=0
note_on channel=0 note=50 velocity=0 time=18
note_on channel=0 note=67 velocity=0 time=102
note_on channel=0 note=55 velocity=0 time=0
<meta message set_tempo tempo=546349 time=40>
note_on channel=0 note=55 velocity=25 time=0
note_on channel=0 note=67 velocity=30 time=0
note_on channel=0 note=50 velocity=33 time=0
note_on channel=0 note=67 velocity=0 time=120
note_on channel=0 note=55 velocity=0 time=0
note_on channel=0 note=55 velocity=25 time=40
note_on channel=0 note=67 velocity=30 time=0
note_on channel=0 note=67 velocity=0 time=120
note_on channel=0 note=55 velocity=0 time=0
note_on channel=0 note=55 velocity=25 time=40
note_on channel=0 note=67 velocity=30 time=0
note_on channel=0 note=50 velocity=0 time=18
note_on channel=0 note=67 velocity=0 time=102
note_on channel=0 note=55 velocity=0 time=0
<meta message set_tempo tempo=545901 time=40>
note_on channel=0 note=55 velocity=32 time=0
note_on channel=0 note=67 velocity=38 time=0
note_on channel=0 note=50 velocity=33 time=0
note_on channel=0 note=67 velocity=0 time=120
note_on channel=0 note=55 velocity=0 time=0
note_on channel=0 note=55 velocity=24 time=40
note_on channel=0 note=67 velocity=28 time=0
note_on channel=0 note=67 velocity=0 time=120
note_on channel=0 note=55 velocity=0 time=0
note_on channel=0 note=55 velocity=25 time=40
note_on channel=0 note=67 velocity=30 time=0
note_on channel=0 note=50 velocity=0 time=18
note_on channel=0 note=67 velocity=0 time=102
note_on channel=0 note=55 velocity=0 time=0
<meta message set_tempo tempo=551673 time=40>
note_on channel=0 note=55 velocity=33 time=0
note_on channel=0 note=67 velocity=39 time=0
note_on channel=0 note=48 velocity=36 time=0
note_on channel=0 note=67 velocity=0 time=120
note_on channel=0 note=55 velocity=0 time=0
note_on channel=0 note=55 velocity=25 time=40
note_on channel=0 note=67 velocity=30 time=0
note_on channel=0 note=67 velocity=0 time=120
note_on channel=0 note=55 velocity=0 time=0
note_on channel=0 note=55 velocity=25 time=40
note_on channel=0 note=67 velocity=30 time=0
note_on channel=0 note=48 velocity=0 time=40
note_on channel=0 note=50 velocity=37 time=0
note_on channel=0 note=67 velocity=0 time=80
note_on channel=0 note=55 velocity=0 time=0
<meta message set_tempo tempo=551673 time=40>
note_on channel=0 note=50 velocity=0 time=0
note_on channel=0 note=67 velocity=39 time=0
note_on channel=0 note=55 velocity=39 time=0
note_on channel=0 note=51 velocity=42 time=0
note_on channel=0 note=55 velocity=0 time=120
note_on channel=0 note=67 velocity=0 time=0
note_on channel=0 note=55 velocity=22 time=40
note_on channel=0 note=67 velocity=27 time=0
note_on channel=0 note=67 velocity=0 time=120
note_on channel=0 note=55 velocity=0 time=0
note_on channel=0 note=55 velocity=22 time=40
note_on channel=0 note=67 velocity=27 time=0
note_on channel=0 note=67 velocity=0 time=120
note_on channel=0 note=55 velocity=0 time=0
note_on channel=0 note=55 velocity=25 time=40
note_on channel=0 note=67 velocity=30 time=0
note_on channel=0 note=67 velocity=0 time=120
note_on channel=0 note=55 velocity=0 time=0
note_on channel=0 note=55 velocity=25 time=40
note_on channel=0 note=67 velocity=30 time=0
note_on channel=0 note=51 velocity=0 time=80
note_on channel=0 note=50 velocity=35 time=0
note_on channel=0 note=67 velocity=0 time=40
note_on channel=0 note=55 velocity=0 time=0
note_on channel=0 note=55 velocity=25 time=40
note_on channel=0 note=67 velocity=30 time=0
note_on channel=0 note=67 velocity=0 time=120
note_on channel=0 note=55 velocity=0 time=0
note_on channel=0 note=50 velocity=0 time=40
note_on channel=0 note=55 velocity=32 time=0
note_on channel=0 note=67 velocity=38 time=0
note_on channel=0 note=48 velocity=31 time=0
note_on channel=0 note=67 velocity=0 time=120
note_on channel=0 note=55 velocity=0 time=0
note_on channel=0 note=55 velocity=24 time=40
note_on channel=0 note=67 velocity=28 time=0
note_on channel=0 note=67 velocity=0 time=120
note_on channel=0 note=55 velocity=0 time=0
note_on channel=0 note=55 velocity=25 time=40
note_on channel=0 note=67 velocity=30 time=0
note_on channel=0 note=67 velocity=0 time=120
note_on channel=0 note=55 velocity=0 time=0
<meta message set_tempo tempo=543085 time=40>
note_on channel=0 note=48 velocity=0 time=0
note_on channel=0 note=55 velocity=33 time=0
note_on channel=0 note=67 velocity=39 time=0
note_on channel=0 note=46 velocity=39 time=0
note_on channel=0 note=67 velocity=0 time=120
note_on channel=0 note=55 velocity=0 time=0
note_on channel=0 note=55 velocity=25 time=40
note_on channel=0 note=67 velocity=30 time=0
note_on channel=0 note=67 velocity=0 time=120
note_on channel=0 note=55 velocity=0 time=0
note_on channel=0 note=53 velocity=25 time=40
note_on channel=0 note=65 velocity=30 time=0
<meta message set_tempo tempo=569638 time=40>
note_on channel=0 note=46 velocity=0 time=0
note_on channel=0 note=44 velocity=33 time=0
note_on channel=0 note=65 velocity=0 time=80
note_on channel=0 note=53 velocity=0 time=0
<meta message set_tempo tempo=551673 time=40>
note_on channel=0 note=44 velocity=0 time=0
note_on channel=0 note=63 velocity=39 time=0
note_on channel=0 note=60 velocity=39 time=0
note_on channel=0 note=67 velocity=39 time=0
note_on channel=0 note=55 velocity=39 time=0
note_on channel=0 note=43 velocity=36 time=0
control_change channel=0 control=64 value=127 time=53
note_on channel=0 note=55 velocity=0 time=67
note_on channel=0 note=67 velocity=0 time=0
note_on channel=0 note=63 velocity=0 time=0
note_on channel=0 note=60 velocity=0 time=0
note_on channel=0 note=63 velocity=22 time=40
note_on channel=0 note=60 velocity=22 time=0
note_on channel=0 note=55 velocity=22 time=0
note_on channel=0 note=67 velocity=27 time=0
note_on channel=0 note=67 velocity=0 time=120
note_on channel=0 note=60 velocity=0 time=0
note_on channel=0 note=55 velocity=0 time=0
note_on channel=0 note=63 velocity=0 time=0
note_on channel=0 note=63 velocity=22 time=40
note_on channel=0 note=60 velocity=22 time=0
note_on channel=0 note=55 velocity=22 time=0
note_on channel=0 note=67 velocity=27 time=0
note_on channel=0 note=67 velocity=0 time=120
note_on channel=0 note=60 velocity=0 time=0
note_on channel=0 note=55 velocity=0 time=0
note_on channel=0 note=63 velocity=0 time=0
note_on channel=0 note=43 velocity=0 time=40
note_on channel=0 note=63 velocity=22 time=0
note_on channel=0 note=60 velocity=22 time=0
note_on channel=0 note=55 velocity=25 time=0
note_on channel=0 note=67 velocity=30 time=0
note_on channel=0 note=43 velocity=36 time=0
note_on channel=0 note=67 velocity=0 time=120
note_on channel=0 note=55 velocity=0 time=0
note_on channel=0 note=63 velocity=0 time=0
note_on channel=0 note=60 velocity=0 time=0
note_on channel=0 note=63 velocity=22 time=40
note_on channel=0 note=60 velocity=22 time=0
note_on channel=0 note=55 velocity=25 time=0
note_on channel=0 note=67 velocity=30 time=0
note_on channel=0 note=67 velocity=0 time=120
note_on channel=0 note=60 velocity=0 time=0
note_on channel=0 note=55 velocity=0 time=0
note_on channel=0 note=63 velocity=0 time=0
note_on channel=0 note=63 velocity=22 time=40
note_on channel=0 note=60 velocity=22 time=0
note_on channel=0 note=55 velocity=25 time=0
note_on channel=0 note=67 velocity=30 time=0
note_on channel=0 note=67 velocity=0 time=120
note_on channel=0 note=60 velocity=0 time=0
note_on channel=0 note=55 velocity=0 time=0
note_on channel=0 note=63 velocity=0 time=0
note_on channel=0 note=43 velocity=0 time=40
note_on channel=0 note=62 velocity=32 time=0
note_on channel=0 note=59 velocity=32 time=0
note_on channel=0 note=55 velocity=32 time=0
note_on channel=0 note=67 velocity=38 time=0
note_on channel=0 note=43 velocity=36 time=0
control_change channel=0 control=64 value=0 time=11
control_change channel=0 control=64 value=127 time=53
note_on channel=0 note=67 velocity=0 time=56
note_on channel=0 note=55 velocity=0 time=0
note_on channel=0 note=62 velocity=0 time=0
note_on channel=0 note=59 velocity=0 time=0
note_on channel=0 note=62 velocity=32 time=40
note_on channel=0 note=59 velocity=32 time=0
note_on channel=0 note=55 velocity=24 time=0
note_on channel=0 note=67 velocity=28 time=0
note_on channel=0 note=67 velocity=0 time=120
note_on channel=0 note=59 velocity=0 time=0
note_on channel=0 note=55 velocity=0 time=0
note_on channel=0 note=62 velocity=0 time=0
note_on channel=0 note=62 velocity=32 time=40
note_on channel=0 note=59 velocity=32 time=0
note_on channel=0 note=55 velocity=25 time=0
note_on channel=0 note=67 velocity=30 time=0
note_on channel=0 note=67 velocity=0 time=120
note_on channel=0 note=59 velocity=0 time=0
note_on channel=0 note=55 velocity=0 time=0
note_on channel=0 note=62 velocity=0 time=0
note_on channel=0 note=43 velocity=0 time=40
note_on channel=0 note=62 velocity=33 time=0
note_on channel=0 note=59 velocity=33 time=0
note_on channel=0 note=55 velocity=33 time=0
note_on channel=0 note=67 velocity=39 time=0
note_on channel=0 note=43 velocity=36 time=0
note_on channel=0 note=67 velocity=0 time=120
note_on channel=0 note=55 velocity=0 time=0
note_on channel=0 note=62 velocity=0 time=0
note_on channel=0 note=59 velocity=0 time=0
note_on channel=0 note=62 velocity=25 time=40
note_on channel=0 note=59 velocity=25 time=0
note_on channel=0 note=55 velocity=25 time=0
note_on channel=0 note=67 velocity=30 time=0
note_on channel=0 note=67 velocity=0 time=120
note_on channel=0 note=59 velocity=0 time=0
note_on channel=0 note=55 velocity=0 time=0
note_on channel=0 note=62 velocity=0 time=0
note_on channel=0 note=62 velocity=25 time=40
note_on channel=0 note=59 velocity=25 time=0
note_on channel=0 note=55 velocity=25 time=0
note_on channel=0 note=67 velocity=30 time=0
note_on channel=0 note=67 velocity=0 time=120
note_on channel=0 note=59 velocity=0 time=0
note_on channel=0 note=55 velocity=0 time=0
note_on channel=0 note=62 velocity=0 time=0
<meta message set_tempo tempo=568720 time=40>
note_on channel=0 note=43 velocity=0 time=0
note_on channel=0 note=63 velocity=39 time=0
note_on channel=0 note=60 velocity=39 time=0
note_on channel=0 note=67 velocity=39 time=0
note_on channel=0 note=55 velocity=39 time=0
note_on channel=0 note=48 velocity=48 time=0
control_change channel=0 control=64 value=0 time=0
note_on channel=0 note=55 velocity=0 time=120
note_on channel=0 note=67 velocity=0 time=0
note_on channel=0 note=63 velocity=0 time=0
note_on channel=0 note=60 velocity=0 time=0
note_on channel=0 note=55 velocity=22 time=40
note_on channel=0 note=67 velocity=27 time=0
note_on channel=0 note=67 velocity=0 time=120
note_on channel=0 note=55 velocity=0 time=0
note_on channel=0 note=55 velocity=22 time=40
note_on channel=0 note=67 velocity=27 time=0
note_on channel=0 note=67 velocity=0 time=120
note_on channel=0 note=55 velocity=0 time=0
<meta message set_tempo tempo=555556 time=40>
note_on channel=0 note=55 velocity=28 time=0
note_on channel=0 note=67 velocity=34 time=0
note_on channel=0 note=67 velocity=0 time=120
note_on channel=0 note=55 velocity=0 time=0
note_on channel=0 note=55 velocity=29 time=40
note_on channel=0 note=67 velocity=35 time=0
note_on channel=0 note=67 velocity=0 time=120
note_on channel=0 note=55 velocity=0 time=0
note_on channel=0 note=55 velocity=30 time=40
note_on channel=0 note=67 velocity=36 time=0
note_on channel=0 note=67 velocity=0 time=120
note_on channel=0 note=55 velocity=0 time=0
note_on channel=0 note=48 velocity=0 time=40
note_on channel=0 note=55 velocity=40 time=0
note_on channel=0 note=67 velocity=48 time=0
note_on channel=0 note=67 velocity=0 time=120
note_on channel=0 note=55 velocity=0 time=0
note_on channel=0 note=55 velocity=32 time=40
note_on channel=0 note=67 velocity=36 time=0
note_on channel=0 note=67 velocity=0 time=120
note_on channel=0 note=55 velocity=0 time=0
note_on channel=0 note=55 velocity=34 time=40
note_on channel=0 note=67 velocity=41 time=0
note_on channel=0 note=67 velocity=0 time=120
note_on channel=0 note=55 velocity=0 time=0
<meta message set_tempo tempo=551673 time=40>
note_on channel=0 note=55 velocity=47 time=0
note_on channel=0 note=67 velocity=56 time=0
note_on channel=0 note=35 velocity=42 time=0
note_on channel=0 note=47 velocity=50 time=0
note_on channel=0 note=67 velocity=0 time=120
note_on channel=0 note=55 velocity=0 time=0
note_on channel=0 note=55 velocity=36 time=40
note_on channel=0 note=67 velocity=43 time=0
note_on channel=0 note=67 velocity=0 time=120
note_on channel=0 note=55 velocity=0 time=0
note_on channel=0 note=55 velocity=37 time=40
note_on channel=0 note=67 velocity=44 time=0
note_on channel=0 note=35 velocity=0 time=40
note_on channel=0 note=47 velocity=0 time=0
note_on channel=0 note=36 velocity=37 time=0
note_on channel=0 note=48 velocity=44 time=0
note_on channel=0 note=55 velocity=0 time=80
note_on channel=0 note=67 velocity=0 time=0
<meta message set_tempo tempo=564334 time=40>
note_on channel=0 note=36 velocity=0 time=0
note_on channel=0 note=48 velocity=0 time=0
note_on channel=0 note=67 velocity=59 time=0
note_on channel=0 note=55 velocity=59 time=0
note_on channel=0 note=50 velocity=62 time=0
note_on channel=0 note=38 velocity=51 time=0
control_change channel=0 control=64 value=127 time=110
note_on channel=0 note=55 velocity=0 time=10
note_on channel=0 note=67 velocity=0 time=0
note_on channel=0 note=55 velocity=33 time=40
note_on channel=0 note=67 velocity=41 time=0
note_on channel=0 note=67 velocity=0 time=120
note_on channel=0 note=55 velocity=0 time=0
note_on channel=0 note=55 velocity=33 time=40
note_on channel=0 note=67 velocity=41 time=0
note_on channel=0 note=50 velocity=0 time=18
note_on channel=0 note=38 velocity=0 time=22
note_on channel=0 note=55 velocity=0 time=80
note_on channel=0 note=67 velocity=0 time=0
<meta message set_tempo tempo=546349 time=40>
note_on channel=0 note=55 velocity=37 time=0
note_on channel=0 note=67 velocity=46 time=0
note_on channel=0 note=38 velocity=42 time=0
note_on channel=0 note=50 velocity=50 time=0
control_change channel=0 control=64 value=0 time=10
control_change channel=0 control=64 value=127 time=64
note_on channel=0 note=67 velocity=0 time=46
note_on channel=0 note=55 velocity=0 time=0
note_on channel=0 note=55 velocity=37 time=40
note_on channel=0 note=67 velocity=46 time=0
note_on channel=0 note=67 velocity=0 time=120
note_on channel=0 note=55 velocity=0 time=0
note_on channel=0 note=55 velocity=37 time=40
note_on channel=0 note=67 velocity=46 time=0
note_on channel=0 note=50 velocity=0 time=18
note_on channel=0 note=38 velocity=0 time=22
note_on channel=0 note=55 velocity=0 time=80
note_on channel=0 note=67 velocity=0 time=0
<meta message set_tempo tempo=545901 time=40>
note_on channel=0 note=55 velocity=49 time=0
note_on channel=0 note=67 velocity=58 time=0
note_on channel=0 note=38 velocity=42 time=0
note_on channel=0 note=50 velocity=50 time=0
control_change channel=0 control=64 value=0 time=39
note_on channel=0 note=67 velocity=0 time=81
note_on channel=0 note=55 velocity=0 time=0
control_change channel=0 control=64 value=127 time=4
note_on channel=0 note=55 velocity=36 time=36
note_on channel=0 note=67 velocity=42 time=0
note_on channel=0 note=67 velocity=0 time=120
note_on channel=0 note=55 velocity=0 time=0
note_on channel=0 note=55 velocity=37 time=40
note_on channel=0 note=67 velocity=46 time=0
note_on channel=0 note=50 velocity=0 time=18
note_on channel=0 note=38 velocity=0 time=22
note_on channel=0 note=55 velocity=0 time=80
note_on channel=0 note=67 velocity=0 time=0
<meta message set_tempo tempo=551673 time=40>
note_on channel=0 note=56 velocity=55 time=0
note_on channel=0 note=68 velocity=65 time=0
note_on channel=0 note=36 velocity=50 time=0
note_on channel=0 note=48 velocity=59 time=0
control_change channel=0 control=64 value=0 time=19
control_change channel=0 control=64 value=127 time=48
note_on channel=0 note=68 velocity=0 time=53
note_on channel=0 note=56 velocity=0 time=0
note_on channel=0 note=56 velocity=42 time=40
note_on channel=0 note=68 velocity=52 time=0
note_on channel=0 note=68 velocity=0 time=120
note_on channel=0 note=56 velocity=0 time=0
note_on channel=0 note=56 velocity=44 time=40
note_on channel=0 note=68 velocity=55 time=0
<meta message set_tempo tempo=631579 time=40>
note_on channel=0 note=36 velocity=0 time=0
note_on channel=0 note=48 velocity=0 time=0
note_on channel=0 note=38 velocity=57 time=0
note_on channel=0 note=50 velocity=67 time=0
note_on channel=0 note=56 velocity=0 time=80
note_on channel=0 note=68 velocity=0 time=0
<meta message set_tempo tempo=550459 time=40>
note_on channel=0 note=38 velocity=0 time=0
note_on channel=0 note=50 velocity=0 time=0
note_on channel=0 note=67 velocity=70 time=0
note_on channel=0 note=55 velocity=70 time=0
note_on channel=0 note=39 velocity=63 time=0
note_on channel=0 note=51 velocity=76 time=0
control_change channel=0 control=64 value=0 time=7
control_change channel=0 control=64 value=127 time=96
note_on channel=0 note=55 velocity=0 time=17
note_on channel=0 note=67 velocity=0 time=0
note_on channel=0 note=55 velocity=40 time=40
note_on channel=0 note=67 velocity=50 time=0
note_on channel=0 note=67 velocity=0 time=120
note_on channel=0 note=55 velocity=0 time=0
note_on channel=0 note=55 velocity=40 time=40
note_on channel=0 note=67 velocity=50 time=0
note_on channel=0 note=67 velocity=0 time=120
note_on channel=0 note=55 velocity=0 time=0
note_on channel=0 note=55 velocity=46 time=40
note_on channel=0 note=67 velocity=55 time=0
note_on channel=0 note=67 velocity=0 time=120
note_on channel=0 note=55 velocity=0 time=0
note_on channel=0 note=55 velocity=44 time=40
note_on channel=0 note=67 velocity=55 time=0
note_on channel=0 note=39 velocity=0 time=80
note_on channel=0 note=51 velocity=0 time=0
note_on channel=0 note=38 velocity=54 time=0
note_on channel=0 note=50 velocity=64 time=0
note_on channel=0 note=55 velocity=0 time=40
note_on channel=0 note=67 velocity=0 time=0
note_on channel=0 note=55 velocity=44 time=40
note_on channel=0 note=67 velocity=54 time=0
note_on channel=0 note=67 velocity=0 time=120
note_on channel=0 note=55 velocity=0 time=0
note_on channel=0 note=38 velocity=0 time=40
note_on channel=0 note=50 velocity=0 time=0
note_on channel=0 note=55 velocity=57 time=0
note_on channel=0 note=67 velocity=69 time=0
note_on channel=0 note=36 velocity=46 time=0
note_on channel=0 note=48 velocity=55 time=0
control_change channel=0 control=64 value=0 time=21
control_change channel=0 control=64 value=127 time=57
note_on channel=0 note=67 velocity=0 time=42
note_on channel=0 note=55 velocity=0 time=0
note_on channel=0 note=55 velocity=42 time=40
note_on channel=0 note=67 velocity=49 time=0
note_on channel=0 note=67 velocity=0 time=120
note_on channel=0 note=55 velocity=0 time=0
note_on channel=0 note=55 velocity=42 time=40
note_on channel=0 note=67 velocity=52 time=0
note_on channel=0 note=67 velocity=0 time=120
note_on channel=0 note=55 velocity=0 time=0
<meta message set_tempo tempo=543085 time=40>
note_on channel=0 note=36 velocity=0 time=0
note_on channel=0 note=48 velocity=0 time=0
note_on channel=0 note=55 velocity=57 time=0
note_on channel=0 note=67 velocity=67 time=0
note_on channel=0 note=34 velocity=57 time=0
note_on channel=0 note=46 velocity=67 time=0
note_on channel=0 note=67 velocity=0 time=120
note_on channel=0 note=55 velocity=0 time=0
note_on channel=0 note=55 velocity=42 time=40
note_on channel=0 note=67 velocity=51 time=0
note_on channel=0 note=67 velocity=0 time=120
note_on channel=0 note=55 velocity=0 time=0
note_on channel=0 note=53 velocity=41 time=40
note_on channel=0 note=65 velocity=50 time=0
<meta message set_tempo tempo=569638 time=40>
note_on channel=0 note=34 velocity=0 time=0
note_on channel=0 note=46 velocity=0 time=0
note_on channel=0 note=44 velocity=55 time=0
note_on channel=0 note=32 velocity=46 time=0
note_on channel=0 note=53 velocity=0 time=80
note_on channel=0 note=65 velocity=0 time=0
<meta message set_tempo tempo=551673 time=40>
note_on channel=0 note=44 velocity=0 time=0
note_on channel=0 note=32 velocity=0 time=0
note_on channel=0 note=63 velocity=59 time=0
note_on channel=0 note=60 velocity=59 time=0
note_on channel=0 note=67 velocity=59 time=0
note_on channel=0 note=55 velocity=59 time=0
note_on channel=0 note=31 velocity=46 time=0
note_on channel=0 note=43 velocity=55 time=0
control_change channel=0 control=64 value=0 time=17
control_change channel=0 control=64 value=127 time=89
note_on channel=0 note=55 velocity=0 time=14
note_on channel=0 note=67 velocity=0 time=0
note_on channel=0 note=63 velocity=0 time=0
note_on channel=0 note=60 velocity=0 time=0
note_on channel=0 note=63 velocity=33 time=40
note_on channel=0 note=60 velocity=33 time=0
note_on channel=0 note=55 velocity=33 time=0
note_on channel=0 note=67 velocity=41 time=0
note_on channel=0 note=67 velocity=0 time=120
note_on channel=0 note=60 velocity=0 time=0
note_on channel=0 note=63 velocity=0 time=0
note_on channel=0 note=55 velocity=0 time=0
note_on channel=0 note=63 velocity=33 time=40
note_on channel=0 note=60 velocity=33 time=0
note_on channel=0 note=55 velocity=33 time=0
note_on channel=0 note=67 velocity=41 time=0
note_on channel=0 note=67 velocity=0 time=120
note_on channel=0 note=60 velocity=0 time=0
note_on channel=0 note=63 velocity=0 time=0
note_on channel=0 note=55 velocity=0 time=0
<meta message set_tempo tempo=540541 time=40>
note_on channel=0 note=43 velocity=0 time=0
note_on channel=0 note=31 velocity=0 time=0
note_on channel=0 note=63 velocity=33 time=0
note_on channel=0 note=60 velocity=33 time=0
note_on channel=0 note=55 velocity=37 time=0
note_on channel=0 note=67 velocity=46 time=0
note_on channel=0 note=31 velocity=46 time=0
note_on channel=0 note=43 velocity=55 time=0
note_on channel=0 note=67 velocity=0 time=120
note_on channel=0 note=55 velocity=0 time=0
note_on channel=0 note=63 velocity=0 time=0
note_on channel=0 note=60 velocity=0 time=0
note_on channel=0 note=63 velocity=33 time=40
note_on channel=0 note=60 velocity=33 time=0
note_on channel=0 note=55 velocity=37 time=0
note_on channel=0 note=67 velocity=46 time=0
note_on channel=0 note=67 velocity=0 time=120
note_on channel=0 note=60 velocity=0 time=0
note_on channel=0 note=63 velocity=0 time=0
note_on channel=0 note=55 velocity=0 time=0
note_on channel=0 note=63 velocity=33 time=40
note_on channel=0 note=60 velocity=33 time=0
note_on channel=0 note=55 velocity=37 time=0
note_on channel=0 note=67 velocity=46 time=0
note_on channel=0 note=67 velocity=0 time=120
note_on channel=0 note=60 velocity=0 time=0
note_on channel=0 note=63 velocity=0 time=0
note_on channel=0 note=55 velocity=0 time=0
note_on channel=0 note=43 velocity=0 time=40
note_on channel=0 note=31 velocity=0 time=0
note_on channel=0 note=62 velocity=49 time=0
note_on channel=0 note=59 velocity=49 time=0
note_on channel=0 note=55 velocity=49 time=0
note_on channel=0 note=67 velocity=58 time=0
note_on channel=0 note=43 velocity=55 time=0
note_on channel=0 note=31 velocity=46 time=0
control_change channel=0 control=64 value=0 time=11
control_change channel=0 control=64 value=127 time=53
note_on channel=0 note=67 velocity=0 time=56
note_on channel=0 note=55 velocity=0 time=0
note_on channel=0 note=62 velocity=0 time=0
note_on channel=0 note=59 velocity=0 time=0
note_on channel=0 note=62 velocity=49 time=40
note_on channel=0 note=59 velocity=49 time=0
note_on channel=0 note=55 velocity=36 time=0
note_on channel=0 note=67 velocity=42 time=0
note_on channel=0 note=67 velocity=0 time=120
note_on channel=0 note=59 velocity=0 time=0
note_on channel=0 note=62 velocity=0 time=0
note_on channel=0 note=55 velocity=0 time=0
note_on channel=0 note=62 velocity=49 time=40
note_on channel=0 note=59 velocity=49 time=0
note_on channel=0 note=55 velocity=37 time=0
note_on channel=0 note=67 velocity=46 time=0
note_on channel=0 note=67 velocity=0 time=120
note_on channel=0 note=59 velocity=0 time=0
note_on channel=0 note=62 velocity=0 time=0
note_on channel=0 note=55 velocity=0 time=0
<meta message set_tempo tempo=547945 time=40>
note_on channel=0 note=31 velocity=0 time=0
note_on channel=0 note=43 velocity=0 time=0
note_on channel=0 note=62 velocity=50 time=0
note_on channel=0 note=59 velocity=50 time=0
note_on channel=0 note=55 velocity=50 time=0
note_on channel=0 note=67 velocity=59 time=0
note_on channel=0 note=43 velocity=55 time=0
note_on channel=0 note=31 velocity=46 time=0
note_on channel=0 note=67 velocity=0 time=120
note_on channel=0 note=55 velocity=0 time=0
note_on channel=0 note=62 velocity=0 time=0
note_on channel=0 note=59 velocity=0 time=0
note_on channel=0 note=62 velocity=37 time=40
note_on channel=0 note=59 velocity=37 time=0
note_on channel=0 note=55 velocity=37 time=0
note_on channel=0 note=67 velocity=46 time=0
note_on channel=0 note=67 velocity=0 time=120
note_on channel=0 note=59 velocity=0 time=0
note_on channel=0 note=62 velocity=0 time=0
note_on channel=0 note=55 velocity=0 time=0
note_on channel=0 note=62 velocity=37 time=40
note_on channel=0 note=59 velocity=37 time=0
note_on channel=0 note=55 velocity=37 time=0
note_on channel=0 note=67 velocity=46 time=0
<meta message set_tempo tempo=634921 time=40>
note_on channel=0 note=67 velocity=0 time=80
note_on channel=0 note=59 velocity=0 time=0
note_on channel=0 note=62 velocity=0 time=0
note_on channel=0 note=55 velocity=0 time=0
<meta message set_tempo tempo=547945 time=40>
note_on channel=0 note=31 velocity=0 time=0
note_on channel=0 note=43 velocity=0 time=0
note_on channel=0 note=55 velocity=40 time=0
note_on channel=0 note=60 velocity=40 time=0
note_on channel=0 note=63 velocity=40 time=0
note_on channel=0 note=67 velocity=48 time=0
note_on channel=0 note=36 velocity=40 time=0
note_on channel=0 note=48 velocity=40 time=0
control_change channel=0 control=64 value=0 time=54
note_on channel=0 note=48 velocity=0 time=106
note_on channel=0 note=36 velocity=0 time=0
note_on channel=0 note=55 velocity=31 time=0
note_on channel=0 note=55 velocity=0 time=120
note_on channel=0 note=55 velocity=31 time=40
note_on channel=0 note=55 velocity=0 time=120
note_on channel=0 note=55 velocity=31 time=40
note_on channel=0 note=55 velocity=0 time=120
note_on channel=0 note=55 velocity=29 time=40
note_on channel=0 note=55 velocity=0 time=120
note_on channel=0 note=55 velocity=29 time=40
note_on channel=0 note=55 velocity=0 time=120
note_on channel=0 note=67 velocity=0 time=40
note_on channel=0 note=55 velocity=0 time=0
note_on channel=0 note=60 velocity=0 time=0
note_on channel=0 note=63 velocity=0 time=0
note_on channel=0 note=55 velocity=29 time=0
note_on channel=0 note=55 velocity=0 time=120
note_on channel=0 note=55 velocity=28 time=40
note_on channel=0 note=55 velocity=0 time=120
note_on channel=0 note=55 velocity=28 time=40
note_on channel=0 note=55 velocity=0 time=120
<meta message set_tempo tempo=551673 time=40>
note_on channel=0 note=71 velocity=44 time=0
note_on channel=0 note=55 velocity=31 time=0
note_on channel=0 note=55 velocity=0 time=120
note_on channel=0 note=55 velocity=30 time=40
note_on channel=0 note=55 velocity=0 time=120
note_on channel=0 note=55 velocity=30 time=40
note_on channel=0 note=71 velocity=0 time=40
note_on channel=0 note=72 velocity=38 time=0
note_on channel=0 note=55 velocity=0 time=80
<meta message set_tempo tempo=564334 time=40>
note_on channel=0 note=72 velocity=0 time=0
note_on channel=0 note=74 velocity=51 time=0
note_on channel=0 note=55 velocity=31 time=0
note_on channel=0 note=55 velocity=0 time=120
note_on channel=0 note=55 velocity=27 time=40
note_on channel=0 note=55 velocity=0 time=120
note_on channel=0 note=55 velocity=27 time=40
note_on channel=0 note=74 velocity=0 time=18
note_on channel=0 note=55 velocity=0 time=102
<meta message set_tempo tempo=546349 time=40>
note_on channel=0 note=65 velocity=35 time=0
note_on channel=0 note=74 velocity=42 time=0
note_on channel=0 note=55 velocity=31 time=0
note_on channel=0 note=55 velocity=0 time=120
note_on channel=0 note=55 velocity=28 time=40
note_on channel=0 note=55 velocity=0 time=120
note_on channel=0 note=55 velocity=28 time=40
note_on channel=0 note=74 velocity=0 time=18
note_on channel=0 note=65 velocity=0 time=22
note_on channel=0 note=55 velocity=0 time=80
<meta message set_tempo tempo=545901 time=40>
note_on channel=0 note=68 velocity=35 time=0
note_on channel=0 note=74 velocity=42 time=0
note_on channel=0 note=55 velocity=31 time=0
note_on channel=0 note=55 velocity=0 time=120
note_on channel=0 note=55 velocity=31 time=40
note_on channel=0 note=55 velocity=0 time=120
note_on channel=0 note=55 velocity=31 time=40
note_on channel=0 note=74 velocity=0 time=18
note_on channel=0 note=68 velocity=0 time=22
note_on channel=0 note=55 velocity=0 time=80
<meta message set_tempo tempo=551673 time=40>
note_on channel=0 note=72 velocity=46 time=0
note_on channel=0 note=55 velocity=31 time=0
note_on channel=0 note=55 velocity=0 time=120
note_on channel=0 note=55 velocity=31 time=40
note_on channel=0 note=55 velocity=0 time=120
note_on channel=0 note=55 velocity=32 time=40
note_on channel=0 note=72 velocity=0 time=40
note_on channel=0 note=74 velocity=47 time=0
note_on channel=0 note=55 velocity=0 time=80
<meta message set_tempo tempo=551673 time=40>
note_on channel=0 note=74 velocity=0 time=0
note_on channel=0 note=75 velocity=53 time=0
note_on channel=0 note=55 velocity=40 time=0
note_on channel=0 note=55 velocity=0 time=120
note_on channel=0 note=55 velocity=31 time=40
note_on channel=0 note=55 velocity=0 time=120
note_on channel=0 note=55 velocity=26 time=40
note_on channel=0 note=55 velocity=0 time=120
note_on channel=0 note=63 velocity=39 time=40
note_on channel=0 note=55 velocity=33 time=0
note_on channel=0 note=55 velocity=0 time=120
note_on channel=0 note=55 velocity=29 time=40
note_on channel=0 note=75 velocity=0 time=80
note_on channel=0 note=74 velocity=44 time=0
note_on channel=0 note=55 velocity=0 time=40
note_on channel=0 note=55 velocity=26 time=40
note_on channel=0 note=55 velocity=0 time=120
note_on channel=0 note=74 velocity=0 time=40
note_on channel=0 note=63 velocity=0 time=0
note_on channel=0 note=67 velocity=33 time=0
note_on channel=0 note=72 velocity=39 time=0
note_on channel=0 note=55 velocity=33 time=0
note_on channel=0 note=55 velocity=0 time=120
note_on channel=0 note=55 velocity=30 time=40
note_on channel=0 note=55 velocity=0 time=120
note_on channel=0 note=55 velocity=29 time=40
note_on channel=0 note=55 velocity=0 time=120
<meta message set_tempo tempo=543085 time=40>
note_on channel=0 note=72 velocity=0 time=0
note_on channel=0 note=67 velocity=0 time=0
note_on channel=0 note=74 velocity=49 time=0
note_on channel=0 note=55 velocity=33 time=0
note_on channel=0 note=55 velocity=0 time=120
note_on channel=0 note=55 velocity=30 time=40
note_on channel=0 note=55 velocity=0 time=120
note_on channel=0 note=55 velocity=30 time=40
<meta message set_tempo tempo=569638 time=40>
note_on channel=0 note=74 velocity=0 time=0
note_on channel=0 note=72 velocity=42 time=0
note_on channel=0 note=55 velocity=0 time=80
<meta message set_tempo tempo=551673 time=40>
note_on channel=0 note=72 velocity=0 time=0
note_on channel=0 note=71 velocity=46 time=0
note_on channel=0 note=55 velocity=31 time=0
note_on channel=0 note=55 velocity=0 time=120
note_on channel=0 note=55 velocity=28 time=40
note_on channel=0 note=55 velocity=0 time=120
note_on channel=0 note=55 velocity=28 time=40
note_on channel=0 note=55 velocity=0 time=120
note_on channel=0 note=71 velocity=0 time=40
note_on channel=0 note=65 velocity=37 time=0
note_on channel=0 note=69 velocity=44 time=0
note_on channel=0 note=55 velocity=31 time=0
note_on channel=0 note=55 velocity=0 time=120
note_on channel=0 note=55 velocity=28 time=40
note_on channel=0 note=55 velocity=0 time=120
note_on channel=0 note=55 velocity=31 time=40
note_on channel=0 note=69 velocity=0 time=40
note_on channel=0 note=71 velocity=36 time=0
note_on channel=0 note=55 velocity=0 time=80
<meta message set_tempo tempo=563539 time=40>
note_on channel=0 note=71 velocity=0 time=0
note_on channel=0 note=65 velocity=0 time=0
note_on channel=0 note=63 velocity=37 time=0
note_on channel=0 note=72 velocity=48 time=0
note_on channel=0 note=55 velocity=36 time=0
note_on channel=0 note=55 velocity=0 time=120
note_on channel=0 note=55 velocity=29 time=40
note_on channel=0 note=55 velocity=0 time=120
<meta message set_tempo tempo=577923 time=40>
note_on channel=0 note=55 velocity=29 time=0
note_on channel=0 note=55 velocity=0 time=120
<meta message set_tempo tempo=559076 time=40>
note_on channel=0 note=72 velocity=0 time=0
note_on channel=0 note=63 velocity=0 time=0
note_on channel=0 note=60 velocity=37 time=0
note_on channel=0 note=74 velocity=43 time=0
note_on channel=0 note=55 velocity=36 time=0
note_on channel=0 note=55 velocity=0 time=120
note_on channel=0 note=55 velocity=31 time=40
note_on channel=0 note=55 velocity=0 time=120
note_on channel=0 note=55 velocity=31 time=40
<meta message set_tempo tempo=592183 time=40>
note_on channel=0 note=74 velocity=0 time=0
note_on channel=0 note=75 velocity=44 time=0
note_on channel=0 note=55 velocity=0 time=80
note_on channel=0 note=75 velocity=0 time=40
note_on channel=0 note=60 velocity=0 time=0
note_on channel=0 note=68 velocity=47 time=0
note_on channel=0 note=74 velocity=51 time=0
note_on channel=0 note=55 velocity=37 time=0
note_on channel=0 note=55 velocity=0 time=120
note_on channel=0 note=68 velocity=0 time=0
note_on channel=0 note=67 velocity=43 time=0
note_on channel=0 note=55 velocity=29 time=40
note_on channel=0 note=55 velocity=0 time=120
note_on channel=0 note=55 velocity=29 time=40
note_on channel=0 note=55 velocity=0 time=120
<meta message set_tempo tempo=555556 time=6>
note_on channel=0 note=55 velocity=44 time=34
<meta message set_tempo tempo=558140 time=106>
note_on channel=0 note=55 velocity=0 time=14
note_on channel=0 note=55 velocity=37 time=40
<meta message set_tempo tempo=560748 time=66>
note_on channel=0 note=55 velocity=0 time=54
note_on channel=0 note=55 velocity=39 time=40
<meta message set_tempo tempo=563380 time=26>
note_on channel=0 note=55 velocity=0 time=94
<meta message set_tempo tempo=566038 time=26>
note_on channel=0 note=55 velocity=53 time=14
<meta message set_tempo tempo=568720 time=106>
note_on channel=0 note=55 velocity=0 time=14
note_on channel=0 note=55 velocity=39 time=40
<meta message set_tempo tempo=571429 time=66>
note_on channel=0 note=55 velocity=0 time=54
note_on channel=0 note=55 velocity=40 time=40
<meta message set_tempo tempo=574163 time=26>
note_on channel=0 note=55 velocity=0 time=94
<meta message set_tempo tempo=576923 time=26>
<meta message set_tempo tempo=551673 time=14>
note_on channel=0 note=67 velocity=0 time=0
note_on channel=0 note=74 velocity=0 time=0
note_on channel=0 note=59 velocity=52 time=0
note_on channel=0 note=67 velocity=52 time=0
note_on channel=0 note=71 velocity=62 time=0
note_on channel=0 note=55 velocity=52 time=0
control_change channel=0 control=64 value=127 time=39
note_on channel=0 note=55 velocity=0 time=81
note_on channel=0 note=55 velocity=45 time=40
note_on channel=0 note=55 velocity=0 time=120
note_on channel=0 note=55 velocity=52 time=40
<meta message set_tempo tempo=597015 time=40>
note_on channel=0 note=71 velocity=0 time=0
note_on channel=0 note=59 velocity=0 time=0
note_on channel=0 note=67 velocity=0 time=0
note_on channel=0 note=60 velocity=50 time=0
note_on channel=0 note=69 velocity=50 time=0
note_on channel=0 note=72 velocity=60 time=0
note_on channel=0 note=55 velocity=0 time=80
<meta message set_tempo tempo=541419 time=40>
note_on channel=0 note=60 velocity=0 time=0
note_on channel=0 note=69 velocity=0 time=0
note_on channel=0 note=72 velocity=0 time=0
note_on channel=0 note=62 velocity=61 time=0
note_on channel=0 note=71 velocity=61 time=0
note_on channel=0 note=74 velocity=73 time=0
note_on channel=0 note=55 velocity=59 time=0
control_change channel=0 control=64 value=0 time=7
control_change channel=0 control=64 value=127 time=48
note_on channel=0 note=55 velocity=0 time=65
note_on channel=0 note=55 velocity=47 time=40
note_on channel=0 note=55 velocity=0 time=120
note_on channel=0 note=55 velocity=47 time=40
note_on channel=0 note=55 velocity=0 time=120
<meta message set_tempo tempo=548847 time=40>
note_on channel=0 note=62 velocity=0 time=0
note_on channel=0 note=71 velocity=0 time=0
note_on channel=0 note=74 velocity=0 time=0
note_on channel=0 note=62 velocity=55 time=0
note_on channel=0 note=71 velocity=55 time=0
note_on channel=0 note=74 velocity=66 time=0
note_on channel=0 note=55 velocity=52 time=0
note_on channel=0 note=54 velocity=52 time=0
control_change channel=0 control=64 value=0 time=7
control_change channel=0 control=64 value=127 time=52
note_on channel=0 note=54 velocity=0 time=61
note_on channel=0 note=55 velocity=0 time=0
note_on channel=0 note=55 velocity=43 time=40
note_on channel=0 note=54 velocity=43 time=0
note_on channel=0 note=54 velocity=0 time=120
note_on channel=0 note=55 velocity=0 time=0
note_on channel=0 note=55 velocity=43 time=40
note_on channel=0 note=54 velocity=43 time=0
note_on channel=0 note=54 velocity=0 time=120
note_on channel=0 note=55 velocity=0 time=0
<meta message set_tempo tempo=545901 time=40>
note_on channel=0 note=62 velocity=0 time=0
note_on channel=0 note=71 velocity=0 time=0
note_on channel=0 note=74 velocity=0 time=0
note_on channel=0 note=62 velocity=55 time=0
note_on channel=0 note=71 velocity=55 time=0
note_on channel=0 note=74 velocity=66 time=0
note_on channel=0 note=53 velocity=54 time=0
note_on channel=0 note=55 velocity=54 time=0
control_change channel=0 control=64 value=0 time=16
control_change channel=0 control=64 value=127 time=59
note_on channel=0 note=55 velocity=0 time=45
note_on channel=0 note=53 velocity=0 time=0
note_on channel=0 note=55 velocity=45 time=40
note_on channel=0 note=53 velocity=45 time=0
note_on channel=0 note=53 velocity=0 time=120
note_on channel=0 note=55 velocity=0 time=0
note_on channel=0 note=55 velocity=45 time=40
note_on channel=0 note=53 velocity=45 time=0
note_on channel=0 note=53 velocity=0 time=120
note_on channel=0 note=55 velocity=0 time=0
<meta message set_tempo tempo=551673 time=40>
note_on channel=0 note=62 velocity=0 time=0
note_on channel=0 note=71 velocity=0 time=0
note_on channel=0 note=74 velocity=0 time=0
note_on channel=0 note=60 velocity=63 time=0
note_on channel=0 note=67 velocity=64 time=0
note_on channel=0 note=72 velocity=66 time=0
note_on channel=0 note=55 velocity=53 time=0
note_on channel=0 note=51 velocity=53 time=0
control_change channel=0 control=64 value=0 time=11
control_change channel=0 control=64 value=127 time=61
note_on channel=0 note=51 velocity=0 time=48
note_on channel=0 note=55 velocity=0 time=0
note_on channel=0 note=50 velocity=43 time=40
note_on channel=0 note=55 velocity=43 time=0
note_on channel=0 note=55 velocity=0 time=120
note_on channel=0 note=50 velocity=0 time=0
note_on channel=0 note=48 velocity=44 time=40
note_on channel=0 note=55 velocity=44 time=0
<meta message set_tempo tempo=597015 time=40>
note_on channel=0 note=72 velocity=0 time=0
note_on channel=0 note=60 velocity=0 time=0
note_on channel=0 note=67 velocity=0 time=0
note_on channel=0 note=62 velocity=55 time=0
note_on channel=0 note=67 velocity=55 time=0
note_on channel=0 note=74 velocity=67 time=0
note_on channel=0 note=48 velocity=0 time=80
note_on channel=0 note=55 velocity=0 time=0
<meta message set_tempo tempo=551673 time=40>
note_on channel=0 note=67 velocity=0 time=0
note_on channel=0 note=62 velocity=0 time=0
note_on channel=0 note=74 velocity=0 time=0
note_on channel=0 note=67 velocity=64 time=0
note_on channel=0 note=63 velocity=64 time=0
note_on channel=0 note=75 velocity=75 time=0
note_on channel=0 note=48 velocity=57 time=0
note_on channel=0 note=55 velocity=57 time=0
control_change channel=0 control=64 value=0 time=0
control_change channel=0 control=64 value=127 time=67
note_on channel=0 note=55 velocity=0 time=53
note_on channel=0 note=48 velocity=0 time=0
note_on channel=0 note=48 velocity=45 time=40
note_on channel=0 note=55 velocity=45 time=0
<meta message set_tempo tempo=528634 time=80>
note_on channel=0 note=55 velocity=0 time=40
note_on channel=0 note=48 velocity=0 time=0
note_on channel=0 note=55 velocity=45 time=40
note_on channel=0 note=48 velocity=45 time=0
note_on channel=0 note=48 velocity=0 time=120
note_on channel=0 note=55 velocity=0 time=0
<meta message set_tempo tempo=547945 time=40>
note_on channel=0 note=55 velocity=54 time=0
note_on channel=0 note=46 velocity=54 time=0
control_change channel=0 control=64 value=0 time=15
control_change channel=0 control=64 value=127 time=73
note_on channel=0 note=46 velocity=0 time=32
note_on channel=0 note=55 velocity=0 time=0
note_on channel=0 note=55 velocity=45 time=40
note_on channel=0 note=46 velocity=45 time=0
note_on channel=0 note=46 velocity=0 time=120
note_on channel=0 note=55 velocity=0 time=0
note_on channel=0 note=46 velocity=45 time=40
note_on channel=0 note=55 velocity=45 time=0
note_on channel=0 note=75 velocity=0 time=40
note_on channel=0 note=63 velocity=0 time=0
note_on channel=0 note=62 velocity=69 time=0
note_on channel=0 note=74 velocity=69 time=0
note_on channel=0 note=55 velocity=0 time=80
note_on channel=0 note=46 velocity=0 time=0
note_on channel=0 note=67 velocity=0 time=40
note_on channel=0 note=62 velocity=0 time=0
note_on channel=0 note=74 velocity=0 time=0
note_on channel=0 note=60 velocity=60 time=0
note_on channel=0 note=67 velocity=64 time=0
note_on channel=0 note=72 velocity=76 time=0
note_on channel=0 note=45 velocity=55 time=0
note_on channel=0 note=55 velocity=55 time=0
control_change channel=0 control=64 value=0 time=13
control_change channel=0 control=64 value=127 time=72
note_on channel=0 note=55 velocity=0 time=35
note_on channel=0 note=45 velocity=0 time=0
note_on channel=0 note=45 velocity=43 time=40
note_on channel=0 note=55 velocity=43 time=0
<meta message set_tempo tempo=609137 time=80>
note_on channel=0 note=55 velocity=0 time=40
note_on channel=0 note=45 velocity=0 time=0
note_on channel=0 note=45 velocity=43 time=40
note_on channel=0 note=55 velocity=43 time=0
note_on channel=0 note=55 velocity=0 time=120
note_on channel=0 note=45 velocity=0 time=0
<meta message set_tempo tempo=547945 time=40>
note_on channel=0 note=60 velocity=0 time=0
note_on channel=0 note=67 velocity=0 time=0
note_on channel=0 note=72 velocity=0 time=0
note_on channel=0 note=66 velocity=58 time=0
note_on channel=0 note=62 velocity=58 time=0
note_on channel=0 note=74 velocity=69 time=0
note_on channel=0 note=44 velocity=52 time=0
note_on channel=0 note=54 velocity=52 time=0
control_change channel=0 control=64 value=0 time=17
control_change channel=0 control=64 value=127 time=71
note_on channel=0 note=54 velocity=0 time=32
note_on channel=0 note=44 velocity=0 time=0
note_on channel=0 note=44 velocity=43 time=40
note_on channel=0 note=54 velocity=43 time=0
note_on channel=0 note=54 velocity=0 time=120
note_on channel=0 note=44 velocity=0 time=0
note_on channel=0 note=54 velocity=42 time=40
note_on channel=0 note=44 velocity=42 time=0
<meta message set_tempo tempo=569638 time=40>
note_on channel=0 note=74 velocity=0 time=0
note_on channel=0 note=72 velocity=60 time=0
note_on channel=0 note=54 velocity=0 time=80
note_on channel=0 note=44 velocity=0 time=0
<meta message set_tempo tempo=555556 time=40>
note_on channel=0 note=66 velocity=0 time=0
note_on channel=0 note=62 velocity=0 time=0
note_on channel=0 note=72 velocity=0 time=0
note_on channel=0 note=62 velocity=55 time=0
note_on channel=0 note=65 velocity=55 time=0
note_on channel=0 note=71 velocity=66 time=0
note_on channel=0 note=43 velocity=54 time=0
note_on channel=0 note=53 velocity=54 time=0
control_change channel=0 control=64 value=0 time=21
control_change channel=0 control=64 value=127 time=46
note_on channel=0 note=53 velocity=0 time=53
note_on channel=0 note=43 velocity=0 time=0
note_on channel=0 note=43 velocity=45 time=40
note_on channel=0 note=53 velocity=45 time=0
note_on channel=0 note=53 velocity=0 time=120
note_on channel=0 note=43 velocity=0 time=0
note_on channel=0 note=43 velocity=45 time=40
note_on channel=0 note=53 velocity=45 time=0
note_on channel=0 note=53 velocity=0 time=120
note_on channel=0 note=43 velocity=0 time=0
<meta message set_tempo tempo=550459 time=40>
note_on channel=0 note=62 velocity=0 time=0
note_on channel=0 note=65 velocity=0 time=0
note_on channel=0 note=71 velocity=0 time=0
note_on channel=0 note=62 velocity=52 time=0
note_on channel=0 note=67 velocity=52 time=0
note_on channel=0 note=71 velocity=62 time=0
note_on channel=0 note=43 velocity=54 time=0
note_on channel=0 note=41 velocity=54 time=0
control_change channel=0 control=64 value=0 time=11
control_change channel=0 control=64 value=127 time=81
note_on channel=0 note=41 velocity=0 time=28
note_on channel=0 note=43 velocity=0 time=0
note_on channel=0 note=41 velocity=43 time=40
note_on channel=0 note=43 velocity=43 time=0
note_on channel=0 note=43 velocity=0 time=120
note_on channel=0 note=41 velocity=0 time=0
note_on channel=0 note=43 velocity=43 time=40
note_on channel=0 note=41 velocity=43 time=0
note_on channel=0 note=67 velocity=0 time=40
note_on channel=0 note=68 velocity=51 time=0
note_on channel=0 note=43 velocity=0 time=80
note_on channel=0 note=41 velocity=0 time=0
<meta message set_tempo tempo=563539 time=40>
note_on channel=0 note=62 velocity=0 time=0
note_on channel=0 note=71 velocity=0 time=0
note_on channel=0 note=68 velocity=0 time=0
note_on channel=0 note=60 velocity=57 time=0
note_on channel=0 note=67 velocity=59 time=0
note_on channel=0 note=72 velocity=73 time=0
note_on channel=0 note=39 velocity=55 time=0
note_on channel=0 note=43 velocity=55 time=0
control_change channel=0 control=64 value=0 time=12
control_change channel=0 control=64 value=127 time=101
note_on channel=0 note=43 velocity=0 time=7
note_on channel=0 note=39 velocity=0 time=0
note_on channel=0 note=43 velocity=43 time=40
note_on channel=0 note=39 velocity=43 time=0
<meta message set_tempo tempo=603015 time=80>
note_on channel=0 note=39 velocity=0 time=40
note_on channel=0 note=43 velocity=0 time=0
note_on channel=0 note=39 velocity=43 time=40
note_on channel=0 note=43 velocity=43 time=0
note_on channel=0 note=43 velocity=0 time=120
note_on channel=0 note=39 velocity=0 time=0
<meta message set_tempo tempo=566038 time=40>
note_on channel=0 note=60 velocity=0 time=0
note_on channel=0 note=67 velocity=0 time=0
note_on channel=0 note=72 velocity=0 time=0
note_on channel=0 note=65 velocity=64 time=0
note_on channel=0 note=71 velocity=64 time=0
note_on channel=0 note=75 velocity=75 time=0
note_on channel=0 note=31 velocity=57 time=0
note_on channel=0 note=43 velocity=57 time=0
control_change channel=0 control=64 value=0 time=9
control_change channel=0 control=64 value=127 time=48
note_on channel=0 note=43 velocity=0 time=63
note_on channel=0 note=31 velocity=0 time=0
note_on channel=0 note=43 velocity=43 time=40
note_on channel=0 note=31 velocity=43 time=0
note_on channel=0 note=31 velocity=0 time=120
note_on channel=0 note=43 velocity=0 time=0
note_on channel=0 note=43 velocity=43 time=40
note_on channel=0 note=31 velocity=43 time=0
<meta message set_tempo tempo=592183 time=40>
note_on channel=0 note=75 velocity=0 time=0
note_on channel=0 note=74 velocity=62 time=0
note_on channel=0 note=43 velocity=0 time=80
note_on channel=0 note=31 velocity=0 time=0
note_on channel=0 note=65 velocity=0 time=40
note_on channel=0 note=71 velocity=0 time=0
note_on channel=0 note=74 velocity=0 time=0
note_on channel=0 note=63 velocity=61 time=0
note_on channel=0 note=72 velocity=73 time=0
note_on channel=0 note=36 velocity=40 time=0
note_on channel=0 note=48 velocity=40 time=0
control_change channel=0 control=64 value=0 time=5
note_on channel=0 note=48 velocity=0 time=155
note_on channel=0 note=36 velocity=0 time=0
note_on channel=0 note=55 velocity=31 time=0
note_on channel=0 note=55 velocity=0 time=120
note_on channel=0 note=55 velocity=31 time=40
note_on channel=0 note=55 velocity=0 time=120
<meta message set_tempo tempo=592183 time=40>
note_on channel=0 note=55 velocity=31 time=0
note_on channel=0 note=55 velocity=0 time=120
note_on channel=0 note=55 velocity=29 time=40
note_on channel=0 note=55 velocity=0 time=120
note_on channel=0 note=55 velocity=29 time=40
note_on channel=0 note=55 velocity=0 time=120
note_on channel=0 note=55 velocity=29 time=40
note_on channel=0 note=55 velocity=0 time=120
note_on channel=0 note=55 velocity=28 time=40
note_on channel=0 note=55 velocity=0 time=120
note_on channel=0 note=55 velocity=28 time=40
note_on channel=0 note=55 velocity=0 time=120
<meta message set_tempo tempo=551673 time=40>
note_on channel=0 note=72 velocity=0 time=0
note_on channel=0 note=63 velocity=0 time=0
note_on channel=0 note=74 velocity=44 time=0
note_on channel=0 note=55 velocity=31 time=0
note_on channel=0 note=55 velocity=0 time=120
note_on channel=0 note=55 velocity=30 time=40
note_on channel=0 note=55 velocity=0 time=120
note_on channel=0 note=55 velocity=30 time=40
note_on channel=0 note=74 velocity=0 time=40
note_on channel=0 note=75 velocity=38 time=0
note_on channel=0 note=55 velocity=0 time=80
<meta message set_tempo tempo=559076 time=40>
note_on channel=0 note=75 velocity=0 time=0
note_on channel=0 note=77 velocity=51 time=0
note_on channel=0 note=56 velocity=31 time=0
note_on channel=0 note=56 velocity=0 time=120
note_on channel=0 note=56 velocity=27 time=40
note_on channel=0 note=56 velocity=0 time=120
note_on channel=0 note=56 velocity=27 time=40
note_on channel=0 note=56 velocity=0 time=120
<meta message set_tempo tempo=551369 time=40>
note_on channel=0 note=77 velocity=0 time=0
note_on channel=0 note=65 velocity=35 time=0
note_on channel=0 note=77 velocity=42 time=0
note_on channel=0 note=57 velocity=31 time=0
note_on channel=0 note=57 velocity=0 time=120
note_on channel=0 note=57 velocity=28 time=40
note_on channel=0 note=57 velocity=0 time=120
note_on channel=0 note=57 velocity=28 time=40
note_on channel=0 note=57 velocity=0 time=120
<meta message set_tempo tempo=545901 time=40>
note_on channel=0 note=77 velocity=0 time=0
note_on channel=0 note=65 velocity=0 time=0
note_on channel=0 note=68 velocity=35 time=0
note_on channel=0 note=77 velocity=42 time=0
note_on channel=0 note=58 velocity=31 time=0
note_on channel=0 note=58 velocity=0 time=120
note_on channel=0 note=58 velocity=31 time=40
note_on channel=0 note=58 velocity=0 time=120
note_on channel=0 note=58 velocity=31 time=40
note_on channel=0 note=58 velocity=0 time=120
<meta message set_tempo tempo=551673 time=40>
note_on channel=0 note=77 velocity=0 time=0
note_on channel=0 note=68 velocity=0 time=0
note_on channel=0 note=75 velocity=46 time=0
note_on channel=0 note=58 velocity=31 time=0
note_on channel=0 note=58 velocity=0 time=120
note_on channel=0 note=58 velocity=31 time=40
note_on channel=0 note=58 velocity=0 time=120
note_on channel=0 note=58 velocity=32 time=40
note_on channel=0 note=75 velocity=0 time=40
note_on channel=0 note=74 velocity=47 time=0
note_on channel=0 note=58 velocity=0 time=80
<meta message set_tempo tempo=551673 time=40>
note_on channel=0 note=74 velocity=0 time=0
note_on channel=0 note=79 velocity=53 time=0
note_on channel=0 note=58 velocity=40 time=0
note_on channel=0 note=58 velocity=0 time=120
note_on channel=0 note=58 velocity=31 time=40
note_on channel=0 note=58 velocity=0 time=120
note_on channel=0 note=58 velocity=26 time=40
note_on channel=0 note=58 velocity=0 time=120
note_on channel=0 note=67 velocity=50 time=40
note_on channel=0 note=59 velocity=33 time=0
note_on channel=0 note=59 velocity=0 time=120
note_on channel=0 note=59 velocity=29 time=40
note_on channel=0 note=79 velocity=0 time=80
note_on channel=0 note=77 velocity=44 time=0
note_on channel=0 note=59 velocity=0 time=40
note_on channel=0 note=59 velocity=26 time=40
note_on channel=0 note=67 velocity=0 time=40
note_on channel=0 note=68 velocity=53 time=0
note_on channel=0 note=59 velocity=0 time=80
<meta message set_tempo tempo=559076 time=40>
note_on channel=0 note=68 velocity=0 time=0
note_on channel=0 note=77 velocity=0 time=0
note_on channel=0 note=75 velocity=39 time=0
note_on channel=0 note=60 velocity=33 time=0
note_on channel=0 note=60 velocity=0 time=120
note_on channel=0 note=55 velocity=30 time=40
note_on channel=0 note=55 velocity=0 time=120
note_on channel=0 note=55 velocity=29 time=40
note_on channel=0 note=55 velocity=0 time=120
<meta message set_tempo tempo=543085 time=40>
note_on channel=0 note=75 velocity=0 time=0
note_on channel=0 note=74 velocity=49 time=0
note_on channel=0 note=55 velocity=33 time=0
note_on channel=0 note=55 velocity=0 time=120
note_on channel=0 note=55 velocity=30 time=40
note_on channel=0 note=55 velocity=0 time=120
note_on channel=0 note=55 velocity=30 time=40
<meta message set_tempo tempo=569638 time=40>
note_on channel=0 note=74 velocity=0 time=0
note_on channel=0 note=72 velocity=42 time=0
note_on channel=0 note=55 velocity=0 time=80
<meta message set_tempo tempo=551673 time=40>
note_on channel=0 note=72 velocity=0 time=0
note_on channel=0 note=71 velocity=46 time=0
note_on channel=0 note=55 velocity=31 time=0
note_on channel=0 note=55 velocity=0 time=120
note_on channel=0 note=55 velocity=28 time=40
note_on channel=0 note=55 velocity=0 time=120
note_on channel=0 note=55 velocity=28 time=40
note_on channel=0 note=55 velocity=0 time=120
note_on channel=0 note=71 velocity=0 time=40
note_on channel=0 note=68 velocity=41 time=0
note_on channel=0 note=71 velocity=44 time=0
note_on channel=0 note=55 velocity=31 time=0
note_on channel=0 note=55 velocity=0 time=120
note_on channel=0 note=55 velocity=28 time=40
note_on channel=0 note=68 velocity=0 time=80
note_on channel=0 note=67 velocity=40 time=0
note_on channel=0 note=55 velocity=0 time=40
note_on channel=0 note=55 velocity=31 time=40
note_on channel=0 note=55 velocity=0 time=120
<meta message set_tempo tempo=575153 time=40>
note_on channel=0 note=67 velocity=0 time=0
note_on channel=0 note=71 velocity=0 time=0
note_on channel=0 note=65 velocity=41 time=0
note_on channel=0 note=72 velocity=48 time=0
note_on channel=0 note=55 velocity=36 time=0
note_on channel=0 note=55 velocity=0 time=120
note_on channel=0 note=55 velocity=29 time=40
note_on channel=0 note=65 velocity=0 time=80
note_on channel=0 note=63 velocity=41 time=0
note_on channel=0 note=55 velocity=0 time=40
note_on channel=0 note=55 velocity=29 time=40
note_on channel=0 note=55 velocity=0 time=120
<meta message set_tempo tempo=559076 time=40>
note_on channel=0 note=63 velocity=0 time=0
note_on channel=0 note=72 velocity=0 time=0
note_on channel=0 note=62 velocity=41 time=0
note_on channel=0 note=77 velocity=43 time=0
note_on channel=0 note=55 velocity=36 time=0
note_on channel=0 note=55 velocity=0 time=120
note_on channel=0 note=55 velocity=31 time=40
note_on channel=0 note=62 velocity=0 time=80
note_on channel=0 note=60 velocity=41 time=0
note_on channel=0 note=55 velocity=0 time=40
note_on channel=0 note=55 velocity=31 time=40
<meta message set_tempo tempo=592183 time=40>
note_on channel=0 note=77 velocity=0 time=0
note_on channel=0 note=75 velocity=44 time=0
note_on channel=0 note=55 velocity=0 time=80
note_on channel=0 note=75 velocity=0 time=40
note_on channel=0 note=60 velocity=0 time=0
note_on channel=0 note=68 velocity=41 time=0
note_on channel=0 note=74 velocity=51 time=0
note_on channel=0 note=55 velocity=37 time=0
note_on channel=0 note=55 velocity=0 time=120
note_on channel=0 note=68 velocity=0 time=0
note_on channel=0 note=67 velocity=47 time=0
note_on channel=0 note=55 velocity=29 time=40
note_on channel=0 note=55 velocity=0 time=120
note_on channel=0 note=55 velocity=29 time=40
note_on channel=0 note=55 velocity=0 time=120
note_on channel=0 note=55 velocity=42 time=40
note_on channel=0 note=55 velocity=0 time=120
note_on channel=0 note=55 velocity=35 time=40
note_on channel=0 note=55 velocity=0 time=120
note_on channel=0 note=55 velocity=37 time=40
note_on channel=0 note=55 velocity=0 time=120
note_on channel=0 note=55 velocity=49 time=40
note_on channel=0 note=55 velocity=0 time=160
note_on channel=0 note=56 velocity=36 time=0
note_on channel=0 note=56 velocity=0 time=160
note_on channel=0 note=57 velocity=36 time=0
<meta message set_tempo tempo=551673 time=160>
note_on channel=0 note=57 velocity=0 time=0
note_on channel=0 note=67 velocity=0 time=0
note_on channel=0 note=74 velocity=0 time=0
note_on channel=0 note=74 velocity=62 time=0
note_on channel=0 note=58 velocity=52 time=0
control_change channel=0 control=64 value=127 time=60
note_on channel=0 note=58 velocity=0 time=60
note_on channel=0 note=58 velocity=45 time=40
note_on channel=0 note=58 velocity=0 time=120
note_on channel=0 note=58 velocity=52 time=40
note_on channel=0 note=74 velocity=0 time=40
note_on channel=0 note=75 velocity=60 time=0
note_on channel=0 note=58 velocity=0 time=80
note_on channel=0 note=75 velocity=0 time=40
note_on channel=0 note=65 velocity=61 time=0
note_on channel=0 note=74 velocity=61 time=0
note_on channel=0 note=77 velocity=73 time=0
note_on channel=0 note=58 velocity=59 time=0
control_change channel=0 control=64 value=0 time=0
control_change channel=0 control=64 value=127 time=62
note_on channel=0 note=58 velocity=0 time=58
note_on channel=0 note=58 velocity=47 time=40
note_on channel=0 note=58 velocity=0 time=120
note_on channel=0 note=58 velocity=47 time=40
note_on channel=0 note=58 velocity=0 time=120
note_on channel=0 note=65 velocity=0 time=40
note_on channel=0 note=74 velocity=0 time=0
note_on channel=0 note=77 velocity=0 time=0
note_on channel=0 note=65 velocity=50 time=0
note_on channel=0 note=74 velocity=50 time=0
note_on channel=0 note=77 velocity=60 time=0
note_on channel=0 note=57 velocity=44 time=0
note_on channel=0 note=58 velocity=52 time=0
control_change channel=0 control=64 value=0 time=7
control_change channel=0 control=64 value=127 time=55
note_on channel=0 note=58 velocity=0 time=58
note_on channel=0 note=57 velocity=0 time=0
note_on channel=0 note=58 velocity=43 time=40
note_on channel=0 note=57 velocity=36 time=0
note_on channel=0 note=57 velocity=0 time=120
note_on channel=0 note=58 velocity=0 time=0
note_on channel=0 note=58 velocity=43 time=40
note_on channel=0 note=57 velocity=36 time=0
note_on channel=0 note=57 velocity=0 time=120
note_on channel=0 note=58 velocity=0 time=0
<meta message set_tempo tempo=545901 time=40>
note_on channel=0 note=65 velocity=0 time=0
note_on channel=0 note=74 velocity=0 time=0
note_on channel=0 note=77 velocity=0 time=0
note_on channel=0 note=65 velocity=50 time=0
note_on channel=0 note=74 velocity=50 time=0
note_on channel=0 note=77 velocity=60 time=0
note_on channel=0 note=58 velocity=54 time=0
note_on channel=0 note=56 velocity=45 time=0
control_change channel=0 control=64 value=0 time=12
control_change channel=0 control=64 value=127 time=79
note_on channel=0 note=56 velocity=0 time=29
note_on channel=0 note=58 velocity=0 time=0
note_on channel=0 note=56 velocity=38 time=40
note_on channel=0 note=58 velocity=45 time=0
note_on channel=0 note=58 velocity=0 time=120
note_on channel=0 note=56 velocity=0 time=0
note_on channel=0 note=56 velocity=38 time=40
note_on channel=0 note=58 velocity=45 time=0
note_on channel=0 note=58 velocity=0 time=120
note_on channel=0 note=56 velocity=0 time=0
<meta message set_tempo tempo=551673 time=40>
note_on channel=0 note=65 velocity=0 time=0
note_on channel=0 note=74 velocity=0 time=0
note_on channel=0 note=77 velocity=0 time=0
note_on channel=0 note=67 velocity=63 time=0
note_on channel=0 note=75 velocity=63 time=0
note_on channel=0 note=79 velocity=63 time=0
note_on channel=0 note=58 velocity=53 time=0
note_on channel=0 note=55 velocity=45 time=0
control_change channel=0 control=64 value=0 time=17
control_change channel=0 control=64 value=127 time=74
note_on channel=0 note=55 velocity=0 time=29
note_on channel=0 note=58 velocity=0 time=0
note_on channel=0 note=58 velocity=43 time=40
note_on channel=0 note=55 velocity=36 time=0
note_on channel=0 note=55 velocity=0 time=120
note_on channel=0 note=58 velocity=0 time=0
note_on channel=0 note=53 velocity=37 time=40
note_on channel=0 note=58 velocity=44 time=0
note_on channel=0 note=56 velocity=37 time=0
note_on channel=0 note=79 velocity=0 time=40
note_on channel=0 note=67 velocity=0 time=0
note_on channel=0 note=75 velocity=0 time=0
note_on channel=0 note=68 velocity=55 time=0
note_on channel=0 note=77 velocity=55 time=0
note_on channel=0 note=80 velocity=67 time=0
note_on channel=0 note=53 velocity=0 time=80
note_on channel=0 note=56 velocity=0 time=0
note_on channel=0 note=58 velocity=0 time=0
<meta message set_tempo tempo=551673 time=40>
note_on channel=0 note=68 velocity=0 time=0
note_on channel=0 note=77 velocity=0 time=0
note_on channel=0 note=80 velocity=0 time=0
note_on channel=0 note=79 velocity=64 time=0
note_on channel=0 note=70 velocity=64 time=0
note_on channel=0 note=82 velocity=75 time=0
note_on channel=0 note=51 velocity=48 time=0
note_on channel=0 note=58 velocity=57 time=0
note_on channel=0 note=55 velocity=57 time=0
control_change channel=0 control=64 value=0 time=0
control_change channel=0 control=64 value=127 time=64
note_on channel=0 note=55 velocity=0 time=56
note_on channel=0 note=51 velocity=0 time=0
note_on channel=0 note=58 velocity=0 time=0
note_on channel=0 note=51 velocity=38 time=40
note_on channel=0 note=55 velocity=45 time=0
note_on channel=0 note=58 velocity=45 time=0
<meta message set_tempo tempo=517241 time=80>
note_on channel=0 note=58 velocity=0 time=40
note_on channel=0 note=51 velocity=0 time=0
note_on channel=0 note=55 velocity=0 time=0
note_on channel=0 note=51 velocity=38 time=40
note_on channel=0 note=58 velocity=45 time=0
note_on channel=0 note=55 velocity=45 time=0
note_on channel=0 note=55 velocity=0 time=120
note_on channel=0 note=51 velocity=0 time=0
note_on channel=0 note=58 velocity=0 time=0
<meta message set_tempo tempo=547945 time=40>
note_on channel=0 note=82 velocity=0 time=0
note_on channel=0 note=70 velocity=0 time=0
note_on channel=0 note=79 velocity=0 time=0
note_on channel=0 note=68 velocity=69 time=0
note_on channel=0 note=80 velocity=69 time=0
note_on channel=0 note=47 velocity=45 time=0
note_on channel=0 note=53 velocity=45 time=0
note_on channel=0 note=56 velocity=54 time=0
control_change channel=0 control=64 value=0 time=9
control_change channel=0 control=64 value=127 time=76
note_on channel=0 note=56 velocity=0 time=35
note_on channel=0 note=47 velocity=0 time=0
note_on channel=0 note=53 velocity=0 time=0
note_on channel=0 note=47 velocity=38 time=40
note_on channel=0 note=53 velocity=45 time=0
note_on channel=0 note=56 velocity=45 time=0
note_on channel=0 note=56 velocity=0 time=120
note_on channel=0 note=47 velocity=0 time=0
note_on channel=0 note=53 velocity=0 time=0
note_on channel=0 note=47 velocity=38 time=40
note_on channel=0 note=53 velocity=45 time=0
note_on channel=0 note=56 velocity=45 time=0
note_on channel=0 note=56 velocity=0 time=120
note_on channel=0 note=47 velocity=0 time=0
note_on channel=0 note=53 velocity=0 time=0
note_on channel=0 note=80 velocity=0 time=40
note_on channel=0 note=68 velocity=0 time=0
note_on channel=0 note=75 velocity=64 time=0
note_on channel=0 note=79 velocity=76 time=0
note_on channel=0 note=48 velocity=46 time=0
note_on channel=0 note=55 velocity=55 time=0
note_on channel=0 note=51 velocity=46 time=0
control_change channel=0 control=64 value=0 time=11
control_change channel=0 control=64 value=127 time=63
note_on channel=0 note=51 velocity=0 time=46
note_on channel=0 note=48 velocity=0 time=0
note_on channel=0 note=55 velocity=0 time=0
note_on channel=0 note=48 velocity=36 time=40
note_on channel=0 note=51 velocity=36 time=0
note_on channel=0 note=55 velocity=43 time=0
note_on channel=0 note=55 velocity=0 time=120
note_on channel=0 note=48 velocity=0 time=0
note_on channel=0 note=51 velocity=0 time=0
note_on channel=0 note=48 velocity=36 time=40
note_on channel=0 note=51 velocity=36 time=0
note_on channel=0 note=55 velocity=43 time=0
note_on channel=0 note=55 velocity=0 time=120
note_on channel=0 note=48 velocity=0 time=0
note_on channel=0 note=51 velocity=0 time=0
<meta message set_tempo tempo=543085 time=40>
note_on channel=0 note=79 velocity=0 time=0
note_on channel=0 note=75 velocity=0 time=0
note_on channel=0 note=65 velocity=58 time=0
note_on channel=0 note=77 velocity=69 time=0
note_on channel=0 note=44 velocity=44 time=0
note_on channel=0 note=53 velocity=52 time=0
control_change channel=0 control=64 value=0 time=12
control_change channel=0 control=64 value=127 time=69
note_on channel=0 note=53 velocity=0 time=39
note_on channel=0 note=44 velocity=0 time=0
note_on channel=0 note=53 velocity=43 time=40
note_on channel=0 note=46 velocity=36 time=0
note_on channel=0 note=46 velocity=0 time=120
note_on channel=0 note=53 velocity=0 time=0
note_on channel=0 note=53 velocity=42 time=40
note_on channel=0 note=44 velocity=35 time=0
<meta message set_tempo tempo=569638 time=40>
note_on channel=0 note=77 velocity=0 time=0
note_on channel=0 note=74 velocity=60 time=0
note_on channel=0 note=44 velocity=0 time=80
note_on channel=0 note=53 velocity=0 time=0
<meta message set_tempo tempo=551673 time=40>
note_on channel=0 note=65 velocity=0 time=0
note_on channel=0 note=74 velocity=0 time=0
note_on channel=0 note=62 velocity=55 time=0
note_on channel=0 note=65 velocity=55 time=0
note_on channel=0 note=71 velocity=66 time=0
note_on channel=0 note=43 velocity=47 time=0
note_on channel=0 note=53 velocity=56 time=0
control_change channel=0 control=64 value=0 time=32
control_change channel=0 control=64 value=127 time=74
note_on channel=0 note=53 velocity=0 time=14
note_on channel=0 note=43 velocity=0 time=0
note_on channel=0 note=44 velocity=40 time=40
note_on channel=0 note=53 velocity=47 time=0
note_on channel=0 note=53 velocity=0 time=120
note_on channel=0 note=44 velocity=0 time=0
note_on channel=0 note=43 velocity=40 time=40
note_on channel=0 note=53 velocity=48 time=0
note_on channel=0 note=53 velocity=0 time=120
note_on channel=0 note=43 velocity=0 time=0
note_on channel=0 note=62 velocity=0 time=40
note_on channel=0 note=65 velocity=0 time=0
note_on channel=0 note=71 velocity=0 time=0
note_on channel=0 note=62 velocity=52 time=0
note_on channel=0 note=67 velocity=52 time=0
note_on channel=0 note=71 velocity=62 time=0
note_on channel=0 note=43 velocity=58 time=0
note_on channel=0 note=41 velocity=48 time=0
control_change channel=0 control=64 value=0 time=19
control_change channel=0 control=64 value=127 time=73
note_on channel=0 note=41 velocity=0 time=28
note_on channel=0 note=43 velocity=0 time=0
note_on channel=0 note=43 velocity=47 time=40
note_on channel=0 note=43 velocity=0 time=120
note_on channel=0 note=43 velocity=47 time=40
note_on channel=0 note=41 velocity=39 time=0
note_on channel=0 note=67 velocity=0 time=40
note_on channel=0 note=68 velocity=51 time=0
note_on channel=0 note=43 velocity=0 time=80
note_on channel=0 note=41 velocity=0 time=0
<meta message set_tempo tempo=563539 time=40>
note_on channel=0 note=62 velocity=0 time=0
note_on channel=0 note=71 velocity=0 time=0
note_on channel=0 note=68 velocity=0 time=0
note_on channel=0 note=60 velocity=57 time=0
note_on channel=0 note=67 velocity=59 time=0
note_on channel=0 note=72 velocity=73 time=0
note_on channel=0 note=39 velocity=51 time=0
note_on channel=0 note=43 velocity=61 time=0
control_change channel=0 control=64 value=0 time=12
control_change channel=0 control=64 value=127 time=59
note_on channel=0 note=43 velocity=0 time=49
note_on channel=0 note=39 velocity=0 time=0
note_on channel=0 note=41 velocity=41 time=40
note_on channel=0 note=43 velocity=49 time=0
note_on channel=0 note=43 velocity=0 time=120
note_on channel=0 note=41 velocity=0 time=0
<meta message set_tempo tempo=646412 time=40>
note_on channel=0 note=43 velocity=49 time=0
note_on channel=0 note=39 velocity=41 time=0
note_on channel=0 note=39 velocity=0 time=120
note_on channel=0 note=43 velocity=0 time=0
<meta message set_tempo tempo=566038 time=40>
note_on channel=0 note=60 velocity=0 time=0
note_on channel=0 note=67 velocity=0 time=0
note_on channel=0 note=72 velocity=0 time=0
note_on channel=0 note=65 velocity=64 time=0
note_on channel=0 note=71 velocity=64 time=0
note_on channel=0 note=75 velocity=75 time=0
note_on channel=0 note=31 velocity=55 time=0
note_on channel=0 note=43 velocity=66 time=0
control_change channel=0 control=64 value=0 time=13
control_change channel=0 control=64 value=127 time=83
note_on channel=0 note=43 velocity=0 time=24
note_on channel=0 note=31 velocity=0 time=0
note_on channel=0 note=43 velocity=50 time=40
note_on channel=0 note=32 velocity=42 time=0
note_on channel=0 note=32 velocity=0 time=120
note_on channel=0 note=43 velocity=0 time=0
note_on channel=0 note=43 velocity=51 time=40
note_on channel=0 note=31 velocity=42 time=0
<meta message set_tempo tempo=592183 time=40>
note_on channel=0 note=75 velocity=0 time=0
note_on channel=0 note=74 velocity=62 time=0
note_on channel=0 note=43 velocity=0 time=80
note_on channel=0 note=31 velocity=0 time=0
note_on channel=0 note=65 velocity=0 time=40
note_on channel=0 note=71 velocity=0 time=0
note_on channel=0 note=74 velocity=0 time=0
note_on channel=0 note=63 velocity=64 time=0
note_on channel=0 note=72 velocity=76 time=0
note_on channel=0 note=36 velocity=53 time=0
note_on channel=0 note=43 velocity=53 time=0
note_on channel=0 note=48 velocity=63 time=0
control_change channel=0 control=64 value=0 time=0
note_on channel=0 note=48 velocity=0 time=160
note_on channel=0 note=36 velocity=0 time=0
note_on channel=0 note=43 velocity=0 time=0
note_on channel=0 note=50 velocity=60 time=0
note_on channel=0 note=50 velocity=0 time=160
note_on channel=0 note=48 velocity=60 time=0
<meta message set_tempo tempo=583544 time=160>
note_on channel=0 note=48 velocity=0 time=0
note_on channel=0 note=46 velocity=68 time=0
note_on channel=0 note=46 velocity=0 time=160
note_on channel=0 note=48 velocity=62 time=0
note_on channel=0 note=48 velocity=0 time=160
note_on channel=0 note=46 velocity=62 time=0
<meta message set_tempo tempo=577923 time=160>
note_on channel=0 note=46 velocity=0 time=0
note_on channel=0 note=44 velocity=73 time=0
note_on channel=0 note=48 velocity=62 time=0
note_on channel=0 note=48 velocity=0 time=144
note_on channel=0 note=44 velocity=0 time=0
note_on channel=0 note=46 velocity=63 time=16
note_on channel=0 note=48 velocity=53 time=0
note_on channel=0 note=48 velocity=0 time=144
note_on channel=0 note=46 velocity=0 time=0
note_on channel=0 note=44 velocity=64 time=16
note_on channel=0 note=48 velocity=54 time=0
note_on channel=0 note=48 velocity=0 time=144
note_on channel=0 note=44 velocity=0 time=0
<meta message set_tempo tempo=583544 time=16>
note_on channel=0 note=72 velocity=0 time=0
note_on channel=0 note=63 velocity=0 time=0
note_on channel=0 note=60 velocity=72 time=0
note_on channel=0 note=72 velocity=86 time=0
note_on channel=0 note=43 velocity=78 time=0
note_on channel=0 note=48 velocity=65 time=0
control_change channel=0 control=64 value=127 time=70
note_on channel=0 note=48 velocity=0 time=74
note_on channel=0 note=60 velocity=0 time=0
note_on channel=0 note=72 velocity=0 time=0
note_on channel=0 note=43 velocity=0 time=0
note_on channel=0 note=60 velocity=72 time=16
note_on channel=0 note=72 velocity=86 time=0
note_on channel=0 note=44 velocity=65 time=0
note_on channel=0 note=48 velocity=55 time=0
note_on channel=0 note=48 velocity=0 time=144
note_on channel=0 note=60 velocity=0 time=0
note_on channel=0 note=72 velocity=0 time=0
note_on channel=0 note=44 velocity=0 time=0
<meta message set_tempo tempo=695088 time=16>
note_on channel=0 note=60 velocity=72 time=0
note_on channel=0 note=72 velocity=86 time=0
note_on channel=0 note=43 velocity=65 time=0
note_on channel=0 note=48 velocity=55 time=0
note_on channel=0 note=48 velocity=0 time=144
note_on channel=0 note=60 velocity=0 time=0
note_on channel=0 note=72 velocity=0 time=0
note_on channel=0 note=43 velocity=0 time=0
<meta message set_tempo tempo=592183 time=16>
note_on channel=0 note=84 velocity=94 time=0
note_on channel=0 note=80 velocity=79 time=0
note_on channel=0 note=74 velocity=79 time=0
note_on channel=0 note=72 velocity=79 time=0
note_on channel=0 note=41 velocity=79 time=0
note_on channel=0 note=48 velocity=66 time=0
control_change channel=0 control=64 value=0 time=0
note_on channel=0 note=48 velocity=0 time=160
note_on channel=0 note=41 velocity=0 time=0
note_on channel=0 note=43 velocity=65 time=0
note_on channel=0 note=48 velocity=55 time=0
note_on channel=0 note=48 velocity=0 time=160
note_on channel=0 note=43 velocity=0 time=0
note_on channel=0 note=41 velocity=65 time=0
note_on channel=0 note=48 velocity=55 time=0
<meta message set_tempo tempo=589275 time=160>
note_on channel=0 note=48 velocity=0 time=0
note_on channel=0 note=41 velocity=0 time=0
note_on channel=0 note=44 velocity=78 time=0
note_on channel=0 note=48 velocity=65 time=0
note_on channel=0 note=48 velocity=0 time=160
note_on channel=0 note=44 velocity=0 time=0
note_on channel=0 note=46 velocity=65 time=0
note_on channel=0 note=48 velocity=55 time=0
note_on channel=0 note=48 velocity=0 time=160
note_on channel=0 note=46 velocity=0 time=0
note_on channel=0 note=44 velocity=65 time=0
note_on channel=0 note=48 velocity=55 time=0
<meta message set_tempo tempo=577923 time=160>
note_on channel=0 note=48 velocity=0 time=0
note_on channel=0 note=44 velocity=0 time=0
note_on channel=0 note=43 velocity=73 time=0
note_on channel=0 note=48 velocity=62 time=0
note_on channel=0 note=48 velocity=0 time=144
note_on channel=0 note=43 velocity=0 time=0
note_on channel=0 note=44 velocity=65 time=16
note_on channel=0 note=48 velocity=55 time=0
note_on channel=0 note=48 velocity=0 time=144
note_on channel=0 note=44 velocity=0 time=0
note_on channel=0 note=43 velocity=65 time=16
note_on channel=0 note=48 velocity=55 time=0
note_on channel=0 note=48 velocity=0 time=144
note_on channel=0 note=43 velocity=0 time=0
<meta message set_tempo tempo=580720 time=16>
note_on channel=0 note=74 velocity=0 time=0
note_on channel=0 note=84 velocity=0 time=0
note_on channel=0 note=80 velocity=0 time=0
note_on channel=0 note=72 velocity=0 time=0
note_on channel=0 note=60 velocity=71 time=0
note_on channel=0 note=72 velocity=83 time=0
note_on channel=0 note=41 velocity=74 time=0
note_on channel=0 note=48 velocity=63 time=0
control_change channel=0 control=64 value=127 time=44
note_on channel=0 note=48 velocity=0 time=100
note_on channel=0 note=60 velocity=0 time=0
note_on channel=0 note=72 velocity=0 time=0
note_on channel=0 note=41 velocity=0 time=0
note_on channel=0 note=60 velocity=71 time=16
note_on channel=0 note=72 velocity=83 time=0
note_on channel=0 note=43 velocity=65 time=0
note_on channel=0 note=48 velocity=55 time=0
note_on channel=0 note=48 velocity=0 time=144
note_on channel=0 note=60 velocity=0 time=0
note_on channel=0 note=72 velocity=0 time=0
note_on channel=0 note=43 velocity=0 time=0
<meta message set_tempo tempo=649913 time=16>
note_on channel=0 note=60 velocity=71 time=0
note_on channel=0 note=72 velocity=83 time=0
note_on channel=0 note=41 velocity=65 time=0
note_on channel=0 note=48 velocity=55 time=0
note_on channel=0 note=48 velocity=0 time=144
note_on channel=0 note=60 velocity=0 time=0
note_on channel=0 note=72 velocity=0 time=0
note_on channel=0 note=41 velocity=0 time=0
<meta message set_tempo tempo=577923 time=16>
note_on channel=0 note=84 velocity=95 time=0
note_on channel=0 note=79 velocity=80 time=0
note_on channel=0 note=75 velocity=80 time=0
note_on channel=0 note=72 velocity=80 time=0
note_on channel=0 note=39 velocity=79 time=0
note_on channel=0 note=48 velocity=66 time=0
control_change channel=0 control=64 value=0 time=0
note_on channel=0 note=48 velocity=0 time=144
note_on channel=0 note=39 velocity=0 time=0
note_on channel=0 note=41 velocity=65 time=16
note_on channel=0 note=48 velocity=55 time=0
note_on channel=0 note=48 velocity=0 time=144
note_on channel=0 note=41 velocity=0 time=0
note_on channel=0 note=39 velocity=65 time=16
note_on channel=0 note=48 velocity=55 time=0
note_on channel=0 note=48 velocity=0 time=144
note_on channel=0 note=39 velocity=0 time=0
<meta message set_tempo tempo=572410 time=16>
note_on channel=0 note=43 velocity=77 time=0
note_on channel=0 note=48 velocity=64 time=0
note_on channel=0 note=48 velocity=0 time=144
note_on channel=0 note=43 velocity=0 time=0
note_on channel=0 note=44 velocity=65 time=16
note_on channel=0 note=48 velocity=55 time=0
note_on channel=0 note=48 velocity=0 time=144
note_on channel=0 note=44 velocity=0 time=0
note_on channel=0 note=43 velocity=65 time=16
note_on channel=0 note=48 velocity=55 time=0
note_on channel=0 note=48 velocity=0 time=144
note_on channel=0 note=43 velocity=0 time=0
note_on channel=0 note=41 velocity=75 time=16
note_on channel=0 note=48 velocity=64 time=0
note_on channel=0 note=48 velocity=0 time=144
note_on channel=0 note=41 velocity=0 time=0
note_on channel=0 note=43 velocity=65 time=16
note_on channel=0 note=48 velocity=55 time=0
note_on channel=0 note=48 velocity=0 time=144
note_on channel=0 note=43 velocity=0 time=0
note_on channel=0 note=41 velocity=65 time=16
note_on channel=0 note=48 velocity=55 time=0
note_on channel=0 note=48 velocity=0 time=144
note_on channel=0 note=41 velocity=0 time=0
<meta message set_tempo tempo=583544 time=16>
note_on channel=0 note=75 velocity=0 time=0
note_on channel=0 note=84 velocity=0 time=0
note_on channel=0 note=79 velocity=0 time=0
note_on channel=0 note=72 velocity=0 time=0
note_on channel=0 note=60 velocity=71 time=0
note_on channel=0 note=72 velocity=83 time=0
note_on channel=0 note=39 velocity=74 time=0
note_on channel=0 note=48 velocity=63 time=0
control_change channel=0 control=64 value=127 time=92
note_on channel=0 note=48 velocity=0 time=52
note_on channel=0 note=60 velocity=0 time=0
note_on channel=0 note=72 velocity=0 time=0
note_on channel=0 note=39 velocity=0 time=0
note_on channel=0 note=60 velocity=71 time=16
note_on channel=0 note=72 velocity=83 time=0
note_on channel=0 note=41 velocity=66 time=0
note_on channel=0 note=48 velocity=56 time=0
note_on channel=0 note=48 velocity=0 time=144
note_on channel=0 note=60 velocity=0 time=0
note_on channel=0 note=72 velocity=0 time=0
note_on channel=0 note=41 velocity=0 time=0
<meta message set_tempo tempo=707380 time=16>
note_on channel=0 note=60 velocity=71 time=0
note_on channel=0 note=72 velocity=83 time=0
note_on channel=0 note=39 velocity=66 time=0
note_on channel=0 note=48 velocity=56 time=0
note_on channel=0 note=48 velocity=0 time=144
note_on channel=0 note=60 velocity=0 time=0
note_on channel=0 note=72 velocity=0 time=0
note_on channel=0 note=39 velocity=0 time=0
<meta message set_tempo tempo=577923 time=16>
note_on channel=0 note=73 velocity=90 time=0
note_on channel=0 note=65 velocity=77 time=0
note_on channel=0 note=61 velocity=77 time=0
note_on channel=0 note=37 velocity=75 time=0
note_on channel=0 note=44 velocity=64 time=0
control_change channel=0 control=64 value=0 time=0
note_on channel=0 note=44 velocity=0 time=144
note_on channel=0 note=37 velocity=0 time=0
note_on channel=0 note=39 velocity=64 time=16
note_on channel=0 note=44 velocity=54 time=0
note_on channel=0 note=44 velocity=0 time=144
note_on channel=0 note=39 velocity=0 time=0
note_on channel=0 note=36 velocity=64 time=16
note_on channel=0 note=44 velocity=54 time=0
note_on channel=0 note=44 velocity=0 time=144
note_on channel=0 note=36 velocity=0 time=0
<meta message set_tempo tempo=583544 time=16>
note_on channel=0 note=73 velocity=0 time=0
note_on channel=0 note=65 velocity=0 time=0
note_on channel=0 note=61 velocity=0 time=0
note_on channel=0 note=65 velocity=74 time=0
note_on channel=0 note=77 velocity=88 time=0
note_on channel=0 note=37 velocity=72 time=0
note_on channel=0 note=44 velocity=60 time=0
note_on channel=0 note=44 velocity=0 time=144
note_on channel=0 note=37 velocity=0 time=0
note_on channel=0 note=39 velocity=63 time=16
note_on channel=0 note=44 velocity=52 time=0
note_on channel=0 note=44 velocity=0 time=144
note_on channel=0 note=39 velocity=0 time=0
note_on channel=0 note=41 velocity=63 time=16
note_on channel=0 note=44 velocity=52 time=0
note_on channel=0 note=77 velocity=0 time=40
note_on channel=0 note=65 velocity=0 time=0
note_on channel=0 note=68 velocity=66 time=0
note_on channel=0 note=80 velocity=79 time=0
note_on channel=0 note=41 velocity=0 time=104
note_on channel=0 note=44 velocity=0 time=0
<meta message set_tempo tempo=595120 time=16>
note_on channel=0 note=68 velocity=0 time=0
note_on channel=0 note=80 velocity=0 time=0
note_on channel=0 note=67 velocity=75 time=0
note_on channel=0 note=72 velocity=75 time=0
note_on channel=0 note=75 velocity=75 time=0
note_on channel=0 note=79 velocity=89 time=0
note_on channel=0 note=31 velocity=62 time=0
note_on channel=0 note=43 velocity=73 time=0
control_change channel=0 control=64 value=127 time=69
note_on channel=0 note=43 velocity=0 time=75
note_on channel=0 note=31 velocity=0 time=0
note_on channel=0 note=43 velocity=65 time=16
note_on channel=0 note=43 velocity=0 time=144
note_on channel=0 note=43 velocity=60 time=16
note_on channel=0 note=43 velocity=0 time=144
<meta message set_tempo tempo=610252 time=16>
note_on channel=0 note=75 velocity=0 time=0
note_on channel=0 note=67 velocity=0 time=0
note_on channel=0 note=72 velocity=0 time=0
note_on channel=0 note=79 velocity=0 time=0
note_on channel=0 note=67 velocity=71 time=0
note_on channel=0 note=71 velocity=71 time=0
note_on channel=0 note=74 velocity=71 time=0
note_on channel=0 note=79 velocity=83 time=0
note_on channel=0 note=31 velocity=59 time=0
note_on channel=0 note=43 velocity=71 time=0
control_change channel=0 control=64 value=0 time=20
control_change channel=0 control=64 value=127 time=117
note_on channel=0 note=43 velocity=0 time=7
note_on channel=0 note=31 velocity=0 time=0
note_on channel=0 note=43 velocity=63 time=16
note_on channel=0 note=43 velocity=0 time=144
note_on channel=0 note=43 velocity=63 time=16
note_on channel=0 note=43 velocity=0 time=144
<meta message set_tempo tempo=592183 time=16>
note_on channel=0 note=74 velocity=0 time=0
note_on channel=0 note=67 velocity=0 time=0
note_on channel=0 note=71 velocity=0 time=0
note_on channel=0 note=79 velocity=0 time=0
note_on channel=0 note=67 velocity=64 time=0
note_on channel=0 note=60 velocity=64 time=0
note_on channel=0 note=63 velocity=64 time=0
note_on channel=0 note=72 velocity=76 time=0
note_on channel=0 note=36 velocity=53 time=0
note_on channel=0 note=43 velocity=53 time=0
note_on channel=0 note=48 velocity=63 time=0
control_change channel=0 control=64 value=0 time=0
note_on channel=0 note=48 velocity=0 time=160
note_on channel=0 note=36 velocity=0 time=0
note_on channel=0 note=43 velocity=0 time=0
note_on channel=0 note=51 velocity=60 time=0
note_on channel=0 note=51 velocity=0 time=160
note_on channel=0 note=50 velocity=60 time=0
<meta message set_tempo tempo=583544 time=160>
note_on channel=0 note=50 velocity=0 time=0
note_on channel=0 note=48 velocity=68 time=0
note_on channel=0 note=48 velocity=0 time=160
note_on channel=0 note=50 velocity=62 time=0
note_on channel=0 note=50 velocity=0 time=160
note_on channel=0 note=48 velocity=62 time=0
<meta message set_tempo tempo=577923 time=160>
note_on channel=0 note=48 velocity=0 time=0
note_on channel=0 note=47 velocity=73 time=0
note_on channel=0 note=47 velocity=0 time=160
note_on channel=0 note=48 velocity=63 time=0
note_on channel=0 note=48 velocity=0 time=160
note_on channel=0 note=47 velocity=64 time=0
<meta message set_tempo tempo=583544 time=160>
note_on channel=0 note=47 velocity=0 time=0
note_on channel=0 note=63 velocity=0 time=0
note_on channel=0 note=67 velocity=0 time=0
note_on channel=0 note=60 velocity=0 time=0
note_on channel=0 note=72 velocity=0 time=0
note_on channel=0 note=60 velocity=72 time=0
note_on channel=0 note=72 velocity=86 time=0
note_on channel=0 note=46 velocity=78 time=0
control_change channel=0 control=64 value=127 time=70
note_on channel=0 note=72 velocity=0 time=74
note_on channel=0 note=60 velocity=0 time=0
note_on channel=0 note=46 velocity=0 time=16
note_on channel=0 note=60 velocity=72 time=0
note_on channel=0 note=72 velocity=86 time=0
note_on channel=0 note=48 velocity=65 time=0
note_on channel=0 note=72 velocity=0 time=144
note_on channel=0 note=60 velocity=0 time=0
<meta message set_tempo tempo=695088 time=16>
note_on channel=0 note=48 velocity=0 time=0
note_on channel=0 note=60 velocity=72 time=0
note_on channel=0 note=72 velocity=86 time=0
note_on channel=0 note=46 velocity=65 time=0
note_on channel=0 note=72 velocity=0 time=144
note_on channel=0 note=60 velocity=0 time=0
<meta message set_tempo tempo=592183 time=16>
note_on channel=0 note=46 velocity=0 time=0
note_on channel=0 note=84 velocity=94 time=0
note_on channel=0 note=74 velocity=79 time=0
note_on channel=0 note=72 velocity=79 time=0
note_on channel=0 note=45 velocity=79 time=0
note_on channel=0 note=48 velocity=66 time=0
control_change channel=0 control=64 value=0 time=0
note_on channel=0 note=48 velocity=0 time=144
note_on channel=0 note=45 velocity=0 time=0
note_on channel=0 note=46 velocity=65 time=16
note_on channel=0 note=48 velocity=55 time=0
note_on channel=0 note=48 velocity=0 time=144
note_on channel=0 note=46 velocity=0 time=0
note_on channel=0 note=45 velocity=65 time=16
note_on channel=0 note=48 velocity=55 time=0
note_on channel=0 note=48 velocity=0 time=144
note_on channel=0 note=45 velocity=0 time=0
<meta message set_tempo tempo=589275 time=16>
note_on channel=0 note=44 velocity=78 time=0
note_on channel=0 note=48 velocity=65 time=0
note_on channel=0 note=48 velocity=0 time=144
note_on channel=0 note=44 velocity=0 time=0
note_on channel=0 note=46 velocity=65 time=16
note_on channel=0 note=48 velocity=55 time=0
note_on channel=0 note=48 velocity=0 time=144
note_on channel=0 note=46 velocity=0 time=0
note_on channel=0 note=44 velocity=65 time=16
note_on channel=0 note=48 velocity=55 time=0
note_on channel=0 note=48 velocity=0 time=144
note_on channel=0 note=44 velocity=0 time=0
<meta message set_tempo tempo=577923 time=16>
note_on channel=0 note=43 velocity=73 time=0
note_on channel=0 note=48 velocity=62 time=0
note_on channel=0 note=48 velocity=0 time=144
note_on channel=0 note=43 velocity=0 time=0
note_on channel=0 note=44 velocity=65 time=16
note_on channel=0 note=48 velocity=55 time=0
note_on channel=0 note=48 velocity=0 time=144
note_on channel=0 note=44 velocity=0 time=0
note_on channel=0 note=43 velocity=65 time=16
note_on channel=0 note=48 velocity=55 time=0
note_on channel=0 note=48 velocity=0 time=144
note_on channel=0 note=43 velocity=0 time=0
<meta message set_tempo tempo=580720 time=16>
note_on channel=0 note=84 velocity=0 time=0
note_on channel=0 note=74 velocity=0 time=0
note_on channel=0 note=72 velocity=0 time=0
note_on channel=0 note=60 velocity=71 time=0
note_on channel=0 note=72 velocity=83 time=0
note_on channel=0 note=41 velocity=74 time=0
note_on channel=0 note=48 velocity=63 time=0
control_change channel=0 control=64 value=127 time=44
note_on channel=0 note=48 velocity=0 time=100
note_on channel=0 note=60 velocity=0 time=0
note_on channel=0 note=72 velocity=0 time=0
note_on channel=0 note=41 velocity=0 time=0
note_on channel=0 note=60 velocity=71 time=16
note_on channel=0 note=72 velocity=83 time=0
note_on channel=0 note=43 velocity=65 time=0
note_on channel=0 note=48 velocity=55 time=0
note_on channel=0 note=48 velocity=0 time=144
note_on channel=0 note=60 velocity=0 time=0
note_on channel=0 note=72 velocity=0 time=0
note_on channel=0 note=43 velocity=0 time=0
<meta message set_tempo tempo=649913 time=16>
note_on channel=0 note=60 velocity=71 time=0
note_on channel=0 note=72 velocity=83 time=0
note_on channel=0 note=41 velocity=65 time=0
note_on channel=0 note=48 velocity=55 time=0
note_on channel=0 note=48 velocity=0 time=144
note_on channel=0 note=60 velocity=0 time=0
note_on channel=0 note=72 velocity=0 time=0
note_on channel=0 note=41 velocity=0 time=0
<meta message set_tempo tempo=577923 time=16>
note_on channel=0 note=84 velocity=95 time=0
note_on channel=0 note=79 velocity=80 time=0
note_on channel=0 note=72 velocity=80 time=0
note_on channel=0 note=40 velocity=79 time=0
note_on channel=0 note=48 velocity=66 time=0
control_change channel=0 control=64 value=0 time=0
note_on channel=0 note=48 velocity=0 time=144
note_on channel=0 note=40 velocity=0 time=0
note_on channel=0 note=41 velocity=65 time=16
note_on channel=0 note=48 velocity=55 time=0
note_on channel=0 note=48 velocity=0 time=144
note_on channel=0 note=41 velocity=0 time=0
note_on channel=0 note=40 velocity=65 time=16
note_on channel=0 note=48 velocity=55 time=0
note_on channel=0 note=48 velocity=0 time=144
note_on channel=0 note=40 velocity=0 time=0
<meta message set_tempo tempo=572410 time=16>
note_on channel=0 note=39 velocity=77 time=0
note_on channel=0 note=48 velocity=64 time=0
note_on channel=0 note=48 velocity=0 time=144
note_on channel=0 note=39 velocity=0 time=0
note_on channel=0 note=41 velocity=65 time=16
note_on channel=0 note=48 velocity=55 time=0
note_on channel=0 note=48 velocity=0 time=144
note_on channel=0 note=41 velocity=0 time=0
note_on channel=0 note=39 velocity=65 time=16
note_on channel=0 note=48 velocity=55 time=0
note_on channel=0 note=48 velocity=0 time=144
note_on channel=0 note=39 velocity=0 time=0
note_on channel=0 note=38 velocity=75 time=16
note_on channel=0 note=48 velocity=64 time=0
note_on channel=0 note=48 velocity=0 time=144
note_on channel=0 note=38 velocity=0 time=0
note_on channel=0 note=39 velocity=65 time=16
note_on channel=0 note=48 velocity=55 time=0
note_on channel=0 note=48 velocity=0 time=144
note_on channel=0 note=39 velocity=0 time=0
note_on channel=0 note=38 velocity=65 time=16
note_on channel=0 note=48 velocity=55 time=0
note_on channel=0 note=48 velocity=0 time=144
note_on channel=0 note=38 velocity=0 time=0
<meta message set_tempo tempo=583544 time=16>
note_on channel=0 note=84 velocity=0 time=0
note_on channel=0 note=79 velocity=0 time=0
note_on channel=0 note=72 velocity=0 time=0
note_on channel=0 note=60 velocity=71 time=0
note_on channel=0 note=72 velocity=83 time=0
note_on channel=0 note=36 velocity=74 time=0
note_on channel=0 note=48 velocity=63 time=0
control_change channel=0 control=64 value=127 time=92
note_on channel=0 note=48 velocity=0 time=52
note_on channel=0 note=60 velocity=0 time=0
note_on channel=0 note=72 velocity=0 time=0
note_on channel=0 note=36 velocity=0 time=0
note_on channel=0 note=60 velocity=71 time=16
note_on channel=0 note=72 velocity=83 time=0
note_on channel=0 note=38 velocity=66 time=0
note_on channel=0 note=48 velocity=56 time=0
note_on channel=0 note=48 velocity=0 time=144
note_on channel=0 note=60 velocity=0 time=0
note_on channel=0 note=72 velocity=0 time=0
note_on channel=0 note=38 velocity=0 time=0
<meta message set_tempo tempo=707380 time=16>
note_on channel=0 note=60 velocity=71 time=0
note_on channel=0 note=72 velocity=83 time=0
note_on channel=0 note=39 velocity=66 time=0
note_on channel=0 note=48 velocity=56 time=0
note_on channel=0 note=48 velocity=0 time=144
note_on channel=0 note=60 velocity=0 time=0
note_on channel=0 note=72 velocity=0 time=0
note_on channel=0 note=39 velocity=0 time=0
<meta message set_tempo tempo=577923 time=16>
note_on channel=0 note=73 velocity=90 time=0
note_on channel=0 note=65 velocity=77 time=0
note_on channel=0 note=61 velocity=77 time=0
note_on channel=0 note=41 velocity=75 time=0
note_on channel=0 note=44 velocity=64 time=0
control_change channel=0 control=64 value=0 time=0
note_on channel=0 note=44 velocity=0 time=144
note_on channel=0 note=41 velocity=0 time=0
note_on channel=0 note=39 velocity=64 time=16
note_on channel=0 note=44 velocity=54 time=0
note_on channel=0 note=44 velocity=0 time=144
note_on channel=0 note=39 velocity=0 time=0
note_on channel=0 note=37 velocity=64 time=16
note_on channel=0 note=44 velocity=54 time=0
note_on channel=0 note=44 velocity=0 time=135
note_on channel=0 note=37 velocity=0 time=0
<meta message set_tempo tempo=583544 time=25>
note_on channel=0 note=73 velocity=0 time=0
note_on channel=0 note=65 velocity=0 time=0
note_on channel=0 note=61 velocity=0 time=0
note_on channel=0 note=65 velocity=74 time=0
note_on channel=0 note=77 velocity=88 time=0
note_on channel=0 note=37 velocity=72 time=0
note_on channel=0 note=44 velocity=60 time=0
note_on channel=0 note=44 velocity=0 time=144
note_on channel=0 note=37 velocity=0 time=0
note_on channel=0 note=39 velocity=63 time=16
note_on channel=0 note=44 velocity=52 time=0
note_on channel=0 note=44 velocity=0 time=144
note_on channel=0 note=39 velocity=0 time=0
note_on channel=0 note=41 velocity=63 time=16
note_on channel=0 note=44 velocity=52 time=0
note_on channel=0 note=77 velocity=0 time=40
note_on channel=0 note=65 velocity=0 time=0
note_on channel=0 note=68 velocity=66 time=0
note_on channel=0 note=80 velocity=79 time=0
note_on channel=0 note=41 velocity=0 time=104
note_on channel=0 note=44 velocity=0 time=0
<meta message set_tempo tempo=595120 time=16>
note_on channel=0 note=68 velocity=0 time=0
note_on channel=0 note=80 velocity=0 time=0
note_on channel=0 note=67 velocity=75 time=0
note_on channel=0 note=72 velocity=75 time=0
note_on channel=0 note=75 velocity=75 time=0
note_on channel=0 note=79 velocity=89 time=0
note_on channel=0 note=31 velocity=62 time=0
note_on channel=0 note=43 velocity=73 time=0
control_change channel=0 control=64 value=127 time=69
note_on channel=0 note=43 velocity=0 time=75
note_on channel=0 note=31 velocity=0 time=0
note_on channel=0 note=43 velocity=65 time=16
note_on channel=0 note=43 velocity=0 time=144
note_on channel=0 note=43 velocity=60 time=16
note_on channel=0 note=43 velocity=0 time=144
<meta message set_tempo tempo=610252 time=16>
note_on channel=0 note=75 velocity=0 time=0
note_on channel=0 note=67 velocity=0 time=0
note_on channel=0 note=72 velocity=0 time=0
note_on channel=0 note=79 velocity=0 time=0
note_on channel=0 note=67 velocity=71 time=0
note_on channel=0 note=71 velocity=71 time=0
note_on channel=0 note=74 velocity=71 time=0
note_on channel=0 note=79 velocity=83 time=0
note_on channel=0 note=31 velocity=59 time=0
note_on channel=0 note=43 velocity=71 time=0
control_change channel=0 control=64 value=0 time=20
control_change channel=0 control=64 value=127 time=117
note_on channel=0 note=43 velocity=0 time=7
note_on channel=0 note=31 velocity=0 time=0
note_on channel=0 note=43 velocity=63 time=16
note_on channel=0 note=43 velocity=0 time=144
note_on channel=0 note=43 velocity=63 time=16
note_on channel=0 note=43 velocity=0 time=144
<meta message set_tempo tempo=592183 time=16>
note_on channel=0 note=74 velocity=0 time=0
note_on channel=0 note=67 velocity=0 time=0
note_on channel=0 note=71 velocity=0 time=0
note_on channel=0 note=79 velocity=0 time=0
note_on channel=0 note=67 velocity=64 time=0
note_on channel=0 note=60 velocity=64 time=0
note_on channel=0 note=63 velocity=64 time=0
note_on channel=0 note=72 velocity=76 time=0
note_on channel=0 note=36 velocity=74 time=0
note_on channel=0 note=48 velocity=62 time=0
control_change channel=0 control=64 value=0 time=0
note_on channel=0 note=48 velocity=0 time=120
note_on channel=0 note=36 velocity=0 time=0
note_on channel=0 note=36 velocity=67 time=40
note_on channel=0 note=48 velocity=56 time=0
note_on channel=0 note=48 velocity=0 time=120
note_on channel=0 note=36 velocity=0 time=0
note_on channel=0 note=36 velocity=67 time=40
note_on channel=0 note=48 velocity=56 time=0
note_on channel=0 note=48 velocity=0 time=120
note_on channel=0 note=36 velocity=0 time=0
<meta message set_tempo tempo=583544 time=40>
note_on channel=0 note=38 velocity=74 time=0
note_on channel=0 note=48 velocity=62 time=0
note_on channel=0 note=48 velocity=0 time=120
note_on channel=0 note=38 velocity=0 time=0
note_on channel=0 note=38 velocity=69 time=40
note_on channel=0 note=48 velocity=58 time=0
note_on channel=0 note=48 velocity=0 time=120
note_on channel=0 note=38 velocity=0 time=0
note_on channel=0 note=38 velocity=65 time=40
note_on channel=0 note=48 velocity=55 time=0
note_on channel=0 note=48 velocity=0 time=120
note_on channel=0 note=38 velocity=0 time=0
<meta message set_tempo tempo=577923 time=40>
note_on channel=0 note=39 velocity=74 time=0
note_on channel=0 note=48 velocity=62 time=0
note_on channel=0 note=48 velocity=0 time=120
note_on channel=0 note=39 velocity=0 time=0
note_on channel=0 note=39 velocity=67 time=40
note_on channel=0 note=48 velocity=56 time=0
note_on channel=0 note=48 velocity=0 time=120
note_on channel=0 note=39 velocity=0 time=0
note_on channel=0 note=39 velocity=67 time=40
note_on channel=0 note=48 velocity=56 time=0
note_on channel=0 note=48 velocity=0 time=120
note_on channel=0 note=39 velocity=0 time=0
<meta message set_tempo tempo=583544 time=40>
note_on channel=0 note=63 velocity=0 time=0
note_on channel=0 note=67 velocity=0 time=0
note_on channel=0 note=60 velocity=0 time=0
note_on channel=0 note=72 velocity=0 time=0
note_on channel=0 note=60 velocity=68 time=0
note_on channel=0 note=72 velocity=57 time=0
note_on channel=0 note=40 velocity=73 time=0
note_on channel=0 note=48 velocity=62 time=0
note_on channel=0 note=48 velocity=0 time=120
note_on channel=0 note=60 velocity=0 time=0
note_on channel=0 note=72 velocity=0 time=0
note_on channel=0 note=40 velocity=0 time=0
note_on channel=0 note=60 velocity=63 time=40
note_on channel=0 note=72 velocity=53 time=0
note_on channel=0 note=40 velocity=66 time=0
note_on channel=0 note=48 velocity=56 time=0
note_on channel=0 note=48 velocity=0 time=120
note_on channel=0 note=60 velocity=0 time=0
note_on channel=0 note=72 velocity=0 time=0
note_on channel=0 note=40 velocity=0 time=0
note_on channel=0 note=60 velocity=63 time=40
note_on channel=0 note=72 velocity=53 time=0
note_on channel=0 note=40 velocity=66 time=0
note_on channel=0 note=48 velocity=56 time=0
note_on channel=0 note=48 velocity=0 time=120
note_on channel=0 note=60 velocity=0 time=0
note_on channel=0 note=72 velocity=0 time=0
note_on channel=0 note=40 velocity=0 time=0
<meta message set_tempo tempo=576923 time=40>
note_on channel=0 note=61 velocity=62 time=0
note_on channel=0 note=72 velocity=52 time=0
note_on channel=0 note=41 velocity=72 time=0
note_on channel=0 note=48 velocity=61 time=0
control_change channel=0 control=64 value=0 time=0
note_on channel=0 note=48 velocity=0 time=120
note_on channel=0 note=61 velocity=0 time=0
note_on channel=0 note=72 velocity=0 time=0
note_on channel=0 note=41 velocity=0 time=0
note_on channel=0 note=72 velocity=46 time=40
note_on channel=0 note=61 velocity=55 time=0
note_on channel=0 note=41 velocity=68 time=0
note_on channel=0 note=48 velocity=57 time=0
note_on channel=0 note=48 velocity=0 time=120
note_on channel=0 note=72 velocity=0 time=0
note_on channel=0 note=61 velocity=0 time=0
note_on channel=0 note=41 velocity=0 time=0
note_on channel=0 note=61 velocity=55 time=40
note_on channel=0 note=72 velocity=46 time=0
note_on channel=0 note=41 velocity=68 time=0
note_on channel=0 note=48 velocity=57 time=0
note_on channel=0 note=48 velocity=0 time=120
note_on channel=0 note=61 velocity=0 time=0
note_on channel=0 note=72 velocity=0 time=0
note_on channel=0 note=41 velocity=0 time=0
<meta message set_tempo tempo=583544 time=40>
note_on channel=0 note=62 velocity=58 time=0
note_on channel=0 note=72 velocity=49 time=0
note_on channel=0 note=42 velocity=69 time=0
note_on channel=0 note=46 velocity=58 time=0
note_on channel=0 note=46 velocity=0 time=120
note_on channel=0 note=62 velocity=0 time=0
note_on channel=0 note=72 velocity=0 time=0
note_on channel=0 note=42 velocity=0 time=0
note_on channel=0 note=72 velocity=42 time=40
note_on channel=0 note=62 velocity=50 time=0
note_on channel=0 note=42 velocity=63 time=0
note_on channel=0 note=46 velocity=53 time=0
note_on channel=0 note=46 velocity=0 time=120
note_on channel=0 note=72 velocity=0 time=0
note_on channel=0 note=62 velocity=0 time=0
note_on channel=0 note=42 velocity=0 time=0
note_on channel=0 note=62 velocity=50 time=40
note_on channel=0 note=72 velocity=42 time=0
note_on channel=0 note=42 velocity=63 time=0
note_on channel=0 note=46 velocity=53 time=0
note_on channel=0 note=46 velocity=0 time=120
note_on channel=0 note=62 velocity=0 time=0
note_on channel=0 note=72 velocity=0 time=0
note_on channel=0 note=42 velocity=0 time=0
<meta message set_tempo tempo=577923 time=40>
note_on channel=0 note=72 velocity=46 time=0
note_on channel=0 note=63 velocity=55 time=0
note_on channel=0 note=43 velocity=66 time=0
note_on channel=0 note=48 velocity=56 time=0
note_on channel=0 note=48 velocity=0 time=120
note_on channel=0 note=72 velocity=0 time=0
note_on channel=0 note=63 velocity=0 time=0
note_on channel=0 note=43 velocity=0 time=0
note_on channel=0 note=72 velocity=42 time=40
note_on channel=0 note=63 velocity=50 time=0
note_on channel=0 note=43 velocity=60 time=0
note_on channel=0 note=48 velocity=51 time=0
note_on channel=0 note=48 velocity=0 time=120
note_on channel=0 note=72 velocity=0 time=0
note_on channel=0 note=63 velocity=0 time=0
note_on channel=0 note=43 velocity=0 time=0
note_on channel=0 note=63 velocity=54 time=40
note_on channel=0 note=72 velocity=45 time=0
note_on channel=0 note=43 velocity=66 time=0
note_on channel=0 note=48 velocity=56 time=0
note_on channel=0 note=48 velocity=0 time=120
note_on channel=0 note=63 velocity=0 time=0
note_on channel=0 note=72 velocity=0 time=0
note_on channel=0 note=43 velocity=0 time=0
<meta message set_tempo tempo=568720 time=40>
note_on channel=0 note=64 velocity=54 time=0
note_on channel=0 note=72 velocity=49 time=0
note_on channel=0 note=44 velocity=69 time=0
note_on channel=0 note=48 velocity=61 time=0
note_on channel=0 note=48 velocity=0 time=120
note_on channel=0 note=64 velocity=0 time=0
note_on channel=0 note=72 velocity=0 time=0
note_on channel=0 note=44 velocity=0 time=0
note_on channel=0 note=72 velocity=37 time=40
note_on channel=0 note=64 velocity=44 time=0
note_on channel=0 note=44 velocity=57 time=0
note_on channel=0 note=48 velocity=48 time=0
note_on channel=0 note=48 velocity=0 time=120
note_on channel=0 note=72 velocity=0 time=0
note_on channel=0 note=64 velocity=0 time=0
note_on channel=0 note=44 velocity=0 time=0
note_on channel=0 note=72 velocity=37 time=40
note_on channel=0 note=64 velocity=44 time=0
note_on channel=0 note=44 velocity=57 time=0
note_on channel=0 note=48 velocity=48 time=0
note_on channel=0 note=48 velocity=0 time=120
note_on channel=0 note=72 velocity=0 time=0
note_on channel=0 note=64 velocity=0 time=0
note_on channel=0 note=44 velocity=0 time=0
<meta message set_tempo tempo=566038 time=40>
note_on channel=0 note=64 velocity=47 time=0
note_on channel=0 note=72 velocity=39 time=0
note_on channel=0 note=44 velocity=55 time=0
note_on channel=0 note=48 velocity=46 time=0
note_on channel=0 note=48 velocity=0 time=120
note_on channel=0 note=64 velocity=0 time=0
note_on channel=0 note=72 velocity=0 time=0
note_on channel=0 note=44 velocity=0 time=0
note_on channel=0 note=64 velocity=37 time=40
note_on channel=0 note=72 velocity=31 time=0
note_on channel=0 note=44 velocity=54 time=0
note_on channel=0 note=48 velocity=42 time=0
note_on channel=0 note=48 velocity=0 time=120
note_on channel=0 note=64 velocity=0 time=0
note_on channel=0 note=72 velocity=0 time=0
note_on channel=0 note=44 velocity=0 time=0
note_on channel=0 note=64 velocity=37 time=40
note_on channel=0 note=72 velocity=31 time=0
note_on channel=0 note=44 velocity=53 time=0
note_on channel=0 note=48 velocity=41 time=0
note_on channel=0 note=48 velocity=0 time=120
note_on channel=0 note=64 velocity=0 time=0
note_on channel=0 note=72 velocity=0 time=0
note_on channel=0 note=44 velocity=0 time=0
<meta message set_tempo tempo=566038 time=40>
note_on channel=0 note=64 velocity=46 time=0
note_on channel=0 note=72 velocity=38 time=0
note_on channel=0 note=44 velocity=53 time=0
note_on channel=0 note=48 velocity=45 time=0
note_on channel=0 note=48 velocity=0 time=120
note_on channel=0 note=64 velocity=0 time=0
note_on channel=0 note=72 velocity=0 time=0
note_on channel=0 note=44 velocity=0 time=0
note_on channel=0 note=64 velocity=37 time=40
note_on channel=0 note=72 velocity=30 time=0
note_on channel=0 note=44 velocity=47 time=0
note_on channel=0 note=48 velocity=40 time=0
note_on channel=0 note=48 velocity=0 time=120
note_on channel=0 note=64 velocity=0 time=0
note_on channel=0 note=72 velocity=0 time=0
note_on channel=0 note=44 velocity=0 time=0
note_on channel=0 note=64 velocity=36 time=40
note_on channel=0 note=72 velocity=30 time=0
note_on channel=0 note=44 velocity=46 time=0
note_on channel=0 note=48 velocity=39 time=0
note_on channel=0 note=48 velocity=0 time=120
note_on channel=0 note=64 velocity=0 time=0
note_on channel=0 note=72 velocity=0 time=0
note_on channel=0 note=44 velocity=0 time=0
<meta message set_tempo tempo=571429 time=40>
note_on channel=0 note=65 velocity=45 time=0
note_on channel=0 note=72 velocity=38 time=0
note_on channel=0 note=44 velocity=51 time=0
note_on channel=0 note=48 velocity=43 time=0
note_on channel=0 note=48 velocity=0 time=120
note_on channel=0 note=65 velocity=0 time=0
note_on channel=0 note=72 velocity=0 time=0
note_on channel=0 note=44 velocity=0 time=0
note_on channel=0 note=65 velocity=36 time=40
note_on channel=0 note=72 velocity=29 time=0
note_on channel=0 note=44 velocity=46 time=0
note_on channel=0 note=48 velocity=39 time=0
note_on channel=0 note=48 velocity=0 time=120
note_on channel=0 note=65 velocity=0 time=0
note_on channel=0 note=72 velocity=0 time=0
note_on channel=0 note=44 velocity=0 time=0
note_on channel=0 note=65 velocity=35 time=40
note_on channel=0 note=72 velocity=29 time=0
note_on channel=0 note=44 velocity=46 time=0
note_on channel=0 note=48 velocity=39 time=0
note_on channel=0 note=48 velocity=0 time=120
note_on channel=0 note=65 velocity=0 time=0
note_on channel=0 note=72 velocity=0 time=0
note_on channel=0 note=44 velocity=0 time=0
<meta message set_tempo tempo=566038 time=40>
note_on channel=0 note=63 velocity=31 time=0
note_on channel=0 note=66 velocity=31 time=0
note_on channel=0 note=72 velocity=37 time=0
note_on channel=0 note=45 velocity=31 time=0
note_on channel=0 note=48 velocity=37 time=0
note_on channel=0 note=48 velocity=0 time=120
note_on channel=0 note=72 velocity=0 time=0
note_on channel=0 note=63 velocity=0 time=0
note_on channel=0 note=66 velocity=0 time=0
note_on channel=0 note=45 velocity=0 time=0
note_on channel=0 note=63 velocity=26 time=40
note_on channel=0 note=66 velocity=26 time=0
note_on channel=0 note=72 velocity=31 time=0
note_on channel=0 note=45 velocity=26 time=0
note_on channel=0 note=48 velocity=31 time=0
note_on channel=0 note=48 velocity=0 time=120
note_on channel=0 note=72 velocity=0 time=0
note_on channel=0 note=63 velocity=0 time=0
note_on channel=0 note=66 velocity=0 time=0
note_on channel=0 note=45 velocity=0 time=0
note_on channel=0 note=63 velocity=26 time=40
note_on channel=0 note=66 velocity=26 time=0
note_on channel=0 note=72 velocity=31 time=0
note_on channel=0 note=45 velocity=26 time=0
note_on channel=0 note=48 velocity=31 time=0
note_on channel=0 note=48 velocity=0 time=120
note_on channel=0 note=72 velocity=0 time=0
note_on channel=0 note=63 velocity=0 time=0
note_on channel=0 note=66 velocity=0 time=0
note_on channel=0 note=45 velocity=0 time=0
<meta message set_tempo tempo=563380 time=40>
note_on channel=0 note=63 velocity=31 time=0
note_on channel=0 note=66 velocity=31 time=0
note_on channel=0 note=72 velocity=37 time=0
note_on channel=0 note=45 velocity=34 time=0
note_on channel=0 note=48 velocity=40 time=0
note_on channel=0 note=48 velocity=0 time=120
note_on channel=0 note=72 velocity=0 time=0
note_on channel=0 note=63 velocity=0 time=0
note_on channel=0 note=66 velocity=0 time=0
note_on channel=0 note=45 velocity=0 time=0
note_on channel=0 note=62 velocity=27 time=40
note_on channel=0 note=66 velocity=27 time=0
note_on channel=0 note=72 velocity=32 time=0
note_on channel=0 note=45 velocity=27 time=0
note_on channel=0 note=50 velocity=32 time=0
note_on channel=0 note=50 velocity=0 time=120
note_on channel=0 note=72 velocity=0 time=0
note_on channel=0 note=62 velocity=0 time=0
note_on channel=0 note=66 velocity=0 time=0
note_on channel=0 note=45 velocity=0 time=0
note_on channel=0 note=62 velocity=27 time=40
note_on channel=0 note=66 velocity=27 time=0
note_on channel=0 note=72 velocity=32 time=0
note_on channel=0 note=45 velocity=28 time=0
note_on channel=0 note=50 velocity=33 time=0
note_on channel=0 note=50 velocity=0 time=120
note_on channel=0 note=72 velocity=0 time=0
note_on channel=0 note=62 velocity=0 time=0
note_on channel=0 note=66 velocity=0 time=0
note_on channel=0 note=45 velocity=0 time=0
<meta message set_tempo tempo=560748 time=40>
note_on channel=0 note=62 velocity=31 time=0
note_on channel=0 note=66 velocity=31 time=0
note_on channel=0 note=72 velocity=37 time=0
note_on channel=0 note=45 velocity=31 time=0
note_on channel=0 note=50 velocity=37 time=0
note_on channel=0 note=50 velocity=0 time=120
note_on channel=0 note=72 velocity=0 time=0
note_on channel=0 note=62 velocity=0 time=0
note_on channel=0 note=66 velocity=0 time=0
note_on channel=0 note=45 velocity=0 time=0
note_on channel=0 note=62 velocity=26 time=40
note_on channel=0 note=66 velocity=26 time=0
note_on channel=0 note=72 velocity=31 time=0
note_on channel=0 note=45 velocity=28 time=0
note_on channel=0 note=50 velocity=33 time=0
note_on channel=0 note=50 velocity=0 time=120
note_on channel=0 note=72 velocity=0 time=0
note_on channel=0 note=62 velocity=0 time=0
note_on channel=0 note=66 velocity=0 time=0
note_on channel=0 note=45 velocity=0 time=0
note_on channel=0 note=62 velocity=26 time=40
note_on channel=0 note=66 velocity=26 time=0
note_on channel=0 note=72 velocity=31 time=0
note_on channel=0 note=45 velocity=28 time=0
note_on channel=0 note=50 velocity=33 time=0
note_on channel=0 note=50 velocity=0 time=120
note_on channel=0 note=72 velocity=0 time=0
note_on channel=0 note=62 velocity=0 time=0
note_on channel=0 note=66 velocity=0 time=0
note_on channel=0 note=45 velocity=0 time=0
<meta message set_tempo tempo=566038 time=40>
note_on channel=0 note=62 velocity=31 time=0
note_on channel=0 note=67 velocity=31 time=0
note_on channel=0 note=72 velocity=37 time=0
note_on channel=0 note=46 velocity=32 time=0
note_on channel=0 note=50 velocity=38 time=0
note_on channel=0 note=50 velocity=0 time=120
note_on channel=0 note=72 velocity=0 time=0
note_on channel=0 note=62 velocity=0 time=0
note_on channel=0 note=67 velocity=0 time=0
note_on channel=0 note=46 velocity=0 time=0
note_on channel=0 note=62 velocity=27 time=40
note_on channel=0 note=67 velocity=27 time=0
note_on channel=0 note=72 velocity=32 time=0
note_on channel=0 note=46 velocity=28 time=0
note_on channel=0 note=50 velocity=34 time=0
note_on channel=0 note=50 velocity=0 time=120
note_on channel=0 note=72 velocity=0 time=0
note_on channel=0 note=62 velocity=0 time=0
note_on channel=0 note=67 velocity=0 time=0
note_on channel=0 note=46 velocity=0 time=0
note_on channel=0 note=62 velocity=27 time=40
note_on channel=0 note=67 velocity=27 time=0
note_on channel=0 note=72 velocity=32 time=0
note_on channel=0 note=46 velocity=28 time=0
note_on channel=0 note=50 velocity=34 time=0
note_on channel=0 note=50 velocity=0 time=120
note_on channel=0 note=72 velocity=0 time=0
note_on channel=0 note=62 velocity=0 time=0
note_on channel=0 note=67 velocity=0 time=0
note_on channel=0 note=46 velocity=0 time=0
<meta message set_tempo tempo=574163 time=40>
note_on channel=0 note=62 velocity=31 time=0
note_on channel=0 note=67 velocity=31 time=0
note_on channel=0 note=70 velocity=37 time=0
note_on channel=0 note=46 velocity=31 time=0
note_on channel=0 note=50 velocity=37 time=0
note_on channel=0 note=50 velocity=0 time=120
note_on channel=0 note=70 velocity=0 time=0
note_on channel=0 note=62 velocity=0 time=0
note_on channel=0 note=67 velocity=0 time=0
note_on channel=0 note=46 velocity=0 time=0
note_on channel=0 note=62 velocity=27 time=40
note_on channel=0 note=67 velocity=27 time=0
note_on channel=0 note=70 velocity=32 time=0
note_on channel=0 note=46 velocity=28 time=0
note_on channel=0 note=50 velocity=33 time=0
note_on channel=0 note=50 velocity=0 time=120
note_on channel=0 note=70 velocity=0 time=0
note_on channel=0 note=62 velocity=0 time=0
note_on channel=0 note=67 velocity=0 time=0
note_on channel=0 note=46 velocity=0 time=0
note_on channel=0 note=62 velocity=27 time=40
note_on channel=0 note=67 velocity=27 time=0
note_on channel=0 note=70 velocity=32 time=0
note_on channel=0 note=46 velocity=28 time=0
note_on channel=0 note=50 velocity=33 time=0
note_on channel=0 note=50 velocity=0 time=120
note_on channel=0 note=70 velocity=0 time=0
note_on channel=0 note=62 velocity=0 time=0
note_on channel=0 note=67 velocity=0 time=0
note_on channel=0 note=46 velocity=0 time=0
<meta message set_tempo tempo=560748 time=40>
note_on channel=0 note=60 velocity=31 time=0
note_on channel=0 note=63 velocity=31 time=0
note_on channel=0 note=70 velocity=37 time=0
note_on channel=0 note=48 velocity=31 time=0
note_on channel=0 note=51 velocity=37 time=0
note_on channel=0 note=51 velocity=0 time=120
note_on channel=0 note=70 velocity=0 time=0
note_on channel=0 note=60 velocity=0 time=0
note_on channel=0 note=63 velocity=0 time=0
note_on channel=0 note=48 velocity=0 time=0
note_on channel=0 note=60 velocity=26 time=40
note_on channel=0 note=63 velocity=26 time=0
note_on channel=0 note=70 velocity=31 time=0
note_on channel=0 note=48 velocity=27 time=0
note_on channel=0 note=51 velocity=32 time=0
note_on channel=0 note=51 velocity=0 time=120
note_on channel=0 note=70 velocity=0 time=0
note_on channel=0 note=60 velocity=0 time=0
note_on channel=0 note=63 velocity=0 time=0
note_on channel=0 note=48 velocity=0 time=0
note_on channel=0 note=60 velocity=26 time=40
note_on channel=0 note=63 velocity=26 time=0
note_on channel=0 note=70 velocity=31 time=0
note_on channel=0 note=48 velocity=27 time=0
note_on channel=0 note=51 velocity=32 time=0
note_on channel=0 note=51 velocity=0 time=120
note_on channel=0 note=70 velocity=0 time=0
note_on channel=0 note=60 velocity=0 time=0
note_on channel=0 note=63 velocity=0 time=0
note_on channel=0 note=48 velocity=0 time=0
<meta message set_tempo tempo=568720 time=40>
note_on channel=0 note=60 velocity=31 time=0
note_on channel=0 note=63 velocity=31 time=0
note_on channel=0 note=69 velocity=37 time=0
note_on channel=0 note=48 velocity=31 time=0
note_on channel=0 note=51 velocity=37 time=0
note_on channel=0 note=51 velocity=0 time=120
note_on channel=0 note=69 velocity=0 time=0
note_on channel=0 note=60 velocity=0 time=0
note_on channel=0 note=63 velocity=0 time=0
note_on channel=0 note=48 velocity=0 time=0
note_on channel=0 note=60 velocity=27 time=40
note_on channel=0 note=63 velocity=27 time=0
note_on channel=0 note=69 velocity=32 time=0
note_on channel=0 note=48 velocity=26 time=0
note_on channel=0 note=51 velocity=31 time=0
note_on channel=0 note=51 velocity=0 time=120
note_on channel=0 note=69 velocity=0 time=0
note_on channel=0 note=60 velocity=0 time=0
note_on channel=0 note=63 velocity=0 time=0
note_on channel=0 note=48 velocity=0 time=0
note_on channel=0 note=60 velocity=27 time=40
note_on channel=0 note=63 velocity=27 time=0
note_on channel=0 note=69 velocity=32 time=0
note_on channel=0 note=48 velocity=26 time=0
note_on channel=0 note=51 velocity=31 time=0
note_on channel=0 note=51 velocity=0 time=120
note_on channel=0 note=69 velocity=0 time=0
note_on channel=0 note=60 velocity=0 time=0
note_on channel=0 note=63 velocity=0 time=0
note_on channel=0 note=48 velocity=0 time=0
<meta message set_tempo tempo=566038 time=40>
note_on channel=0 note=58 velocity=31 time=0
note_on channel=0 note=62 velocity=31 time=0
note_on channel=0 note=67 velocity=37 time=0
note_on channel=0 note=50 velocity=37 time=0
note_on channel=0 note=50 velocity=0 time=120
note_on channel=0 note=58 velocity=0 time=0
note_on channel=0 note=62 velocity=0 time=0
note_on channel=0 note=67 velocity=0 time=0
note_on channel=0 note=58 velocity=26 time=40
note_on channel=0 note=62 velocity=26 time=0
note_on channel=0 note=67 velocity=31 time=0
note_on channel=0 note=50 velocity=32 time=0
note_on channel=0 note=50 velocity=0 time=120
note_on channel=0 note=58 velocity=0 time=0
note_on channel=0 note=62 velocity=0 time=0
note_on channel=0 note=67 velocity=0 time=0
note_on channel=0 note=58 velocity=26 time=40
note_on channel=0 note=62 velocity=26 time=0
note_on channel=0 note=67 velocity=31 time=0
note_on channel=0 note=50 velocity=32 time=0
note_on channel=0 note=50 velocity=0 time=120
note_on channel=0 note=58 velocity=0 time=0
note_on channel=0 note=62 velocity=0 time=0
note_on channel=0 note=67 velocity=0 time=0
<meta message set_tempo tempo=579710 time=40>
note_on channel=0 note=57 velocity=31 time=0
note_on channel=0 note=62 velocity=31 time=0
note_on channel=0 note=66 velocity=37 time=0
note_on channel=0 note=50 velocity=37 time=0
note_on channel=0 note=50 velocity=0 time=120
note_on channel=0 note=57 velocity=0 time=0
note_on channel=0 note=62 velocity=0 time=0
note_on channel=0 note=66 velocity=0 time=0
note_on channel=0 note=57 velocity=27 time=40
note_on channel=0 note=62 velocity=27 time=0
note_on channel=0 note=66 velocity=32 time=0
note_on channel=0 note=50 velocity=32 time=0
note_on channel=0 note=50 velocity=0 time=120
note_on channel=0 note=57 velocity=0 time=0
note_on channel=0 note=62 velocity=0 time=0
note_on channel=0 note=66 velocity=0 time=0
note_on channel=0 note=57 velocity=27 time=40
note_on channel=0 note=62 velocity=27 time=0
note_on channel=0 note=66 velocity=32 time=0
note_on channel=0 note=50 velocity=32 time=0
note_on channel=0 note=50 velocity=0 time=120
note_on channel=0 note=57 velocity=0 time=0
note_on channel=0 note=62 velocity=0 time=0
note_on channel=0 note=66 velocity=0 time=0
<meta message marker text='Teil 3' time=40>
note_on channel=0 note=58 velocity=31 time=0
note_on channel=0 note=62 velocity=31 time=0
note_on channel=0 note=67 velocity=37 time=0
note_on channel=0 note=50 velocity=37 time=0
note_on channel=0 note=43 velocity=31 time=0
note_on channel=0 note=50 velocity=0 time=120
<meta message set_tempo tempo=579710 time=26>
note_on channel=0 note=50 velocity=29 time=14
note_on channel=0 note=50 velocity=0 time=120
<meta message set_tempo tempo=576923 time=26>
note_on channel=0 note=50 velocity=29 time=14
note_on channel=0 note=50 velocity=0 time=120
<meta message set_tempo tempo=574163 time=26>
note_on channel=0 note=50 velocity=32 time=14
note_on channel=0 note=50 velocity=0 time=120
<meta message set_tempo tempo=571429 time=26>
note_on channel=0 note=50 velocity=29 time=14
note_on channel=0 note=50 velocity=0 time=120
<meta message set_tempo tempo=568720 time=26>
note_on channel=0 note=50 velocity=29 time=14
note_on channel=0 note=50 velocity=0 time=120
<meta message set_tempo tempo=563380 time=26>
note_on channel=0 note=43 velocity=0 time=14
note_on channel=0 note=58 velocity=0 time=0
note_on channel=0 note=62 velocity=0 time=0
note_on channel=0 note=67 velocity=0 time=0
note_on channel=0 note=50 velocity=31 time=0
note_on channel=0 note=50 velocity=0 time=120
note_on channel=0 note=50 velocity=29 time=40
<meta message set_tempo tempo=566038 time=46>
note_on channel=0 note=50 velocity=0 time=74
note_on channel=0 note=50 velocity=29 time=40
<meta message set_tempo tempo=568720 time=106>
note_on channel=0 note=50 velocity=0 time=14
<meta message set_tempo tempo=551673 time=40>
note_on channel=0 note=67 velocity=39 time=0
note_on channel=0 note=50 velocity=32 time=0
note_on channel=0 note=50 velocity=0 time=120
note_on channel=0 note=50 velocity=29 time=40
note_on channel=0 note=50 velocity=0 time=120
note_on channel=0 note=50 velocity=29 time=40
<meta message set_tempo tempo=613371 time=40>
note_on channel=0 note=67 velocity=0 time=0
note_on channel=0 note=70 velocity=39 time=0
note_on channel=0 note=50 velocity=0 time=80
<meta message set_tempo tempo=564334 time=40>
note_on channel=0 note=70 velocity=0 time=0
note_on channel=0 note=74 velocity=44 time=0
note_on channel=0 note=62 velocity=29 time=120
note_on channel=0 note=67 velocity=30 time=120
note_on channel=0 note=43 velocity=32 time=0
note_on channel=0 note=62 velocity=0 time=12
note_on channel=0 note=43 velocity=0 time=108
note_on channel=0 note=70 velocity=28 time=0
note_on channel=0 note=67 velocity=0 time=12
<meta message set_tempo tempo=546349 time=108>
note_on channel=0 note=70 velocity=0 time=0
note_on channel=0 note=74 velocity=0 time=0
note_on channel=0 note=74 velocity=40 time=0
note_on channel=0 note=62 velocity=28 time=120
note_on channel=0 note=67 velocity=30 time=120
note_on channel=0 note=43 velocity=32 time=0
note_on channel=0 note=62 velocity=0 time=12
note_on channel=0 note=43 velocity=0 time=108
note_on channel=0 note=70 velocity=28 time=0
note_on channel=0 note=67 velocity=0 time=12
<meta message set_tempo tempo=545901 time=108>
note_on channel=0 note=70 velocity=0 time=0
note_on channel=0 note=74 velocity=0 time=0
note_on channel=0 note=74 velocity=45 time=0
note_on channel=0 note=62 velocity=27 time=120
note_on channel=0 note=66 velocity=30 time=120
note_on channel=0 note=38 velocity=36 time=0
note_on channel=0 note=62 velocity=0 time=12
note_on channel=0 note=38 velocity=0 time=108
note_on channel=0 note=69 velocity=28 time=0
note_on channel=0 note=66 velocity=0 time=12
<meta message set_tempo tempo=551673 time=108>
note_on channel=0 note=69 velocity=0 time=0
note_on channel=0 note=74 velocity=0 time=0
note_on channel=0 note=74 velocity=46 time=0
note_on channel=0 note=62 velocity=27 time=120
<meta message set_tempo tempo=579710 time=120>
note_on channel=0 note=67 velocity=30 time=0
note_on channel=0 note=43 velocity=32 time=0
note_on channel=0 note=62 velocity=0 time=12
note_on channel=0 note=43 velocity=0 time=108
note_on channel=0 note=70 velocity=26 time=0
note_on channel=0 note=67 velocity=0 time=12
<meta message set_tempo tempo=548847 time=108>
note_on channel=0 note=70 velocity=0 time=0
note_on channel=0 note=74 velocity=0 time=0
note_on channel=0 note=75 velocity=51 time=0
note_on channel=0 note=63 velocity=31 time=120
note_on channel=0 note=67 velocity=33 time=120
note_on channel=0 note=36 velocity=38 time=0
note_on channel=0 note=63 velocity=0 time=12
<meta message set_tempo tempo=543872 time=68>
note_on channel=0 note=36 velocity=0 time=40
note_on channel=0 note=72 velocity=31 time=0
note_on channel=0 note=67 velocity=0 time=12
<meta message set_tempo tempo=543872 time=108>
note_on channel=0 note=66 velocity=36 time=0
note_on channel=0 note=72 velocity=0 time=12
note_on channel=0 note=72 velocity=27 time=108
note_on channel=0 note=66 velocity=0 time=12
note_on channel=0 note=69 velocity=30 time=108
note_on channel=0 note=36 velocity=35 time=0
note_on channel=0 note=72 velocity=0 time=12
<meta message set_tempo tempo=572410 time=68>
note_on channel=0 note=36 velocity=0 time=40
note_on channel=0 note=66 velocity=27 time=0
note_on channel=0 note=69 velocity=0 time=12
<meta message set_tempo tempo=551369 time=108>
note_on channel=0 note=66 velocity=0 time=0
note_on channel=0 note=75 velocity=0 time=0
note_on channel=0 note=74 velocity=41 time=0
note_on channel=0 note=62 velocity=27 time=120
note_on channel=0 note=67 velocity=30 time=120
note_on channel=0 note=43 velocity=37 time=0
note_on channel=0 note=62 velocity=0 time=12
note_on channel=0 note=43 velocity=0 time=108
note_on channel=0 note=70 velocity=26 time=0
note_on channel=0 note=67 velocity=0 time=12
<meta message set_tempo tempo=541419 time=108>
note_on channel=0 note=62 velocity=30 time=0
note_on channel=0 note=70 velocity=0 time=12
<meta message set_tempo tempo=543872 time=108>
note_on channel=0 note=70 velocity=28 time=0
note_on channel=0 note=62 velocity=0 time=12
note_on channel=0 note=67 velocity=30 time=108
note_on channel=0 note=43 velocity=32 time=0
note_on channel=0 note=70 velocity=0 time=12
<meta message set_tempo tempo=569692 time=68>
note_on channel=0 note=43 velocity=0 time=40
note_on channel=0 note=62 velocity=27 time=0
note_on channel=0 note=67 velocity=0 time=12
<meta message set_tempo tempo=548847 time=108>
note_on channel=0 note=62 velocity=0 time=0
note_on channel=0 note=74 velocity=0 time=0
note_on channel=0 note=72 velocity=50 time=0
note_on channel=0 note=60 velocity=28 time=120
note_on channel=0 note=63 velocity=30 time=120
note_on channel=0 note=44 velocity=36 time=0
note_on channel=0 note=60 velocity=0 time=12
note_on channel=0 note=44 velocity=0 time=108
note_on channel=0 note=66 velocity=28 time=0
note_on channel=0 note=63 velocity=0 time=12
<meta message set_tempo tempo=536577 time=108>
note_on channel=0 note=60 velocity=30 time=0
note_on channel=0 note=66 velocity=0 time=12
note_on channel=0 note=66 velocity=30 time=108
note_on channel=0 note=60 velocity=0 time=12
note_on channel=0 note=63 velocity=30 time=108
note_on channel=0 note=45 velocity=32 time=0
note_on channel=0 note=66 velocity=0 time=12
<meta message set_tempo tempo=564334 time=68>
note_on channel=0 note=45 velocity=0 time=40
note_on channel=0 note=60 velocity=27 time=0
note_on channel=0 note=63 velocity=0 time=12
<meta message set_tempo tempo=546349 time=108>
note_on channel=0 note=60 velocity=0 time=0
note_on channel=0 note=72 velocity=0 time=0
note_on channel=0 note=70 velocity=45 time=0
note_on channel=0 note=58 velocity=27 time=120
<meta message set_tempo tempo=545455 time=120>
note_on channel=0 note=62 velocity=30 time=0
note_on channel=0 note=46 velocity=32 time=0
note_on channel=0 note=58 velocity=0 time=12
note_on channel=0 note=46 velocity=0 time=108
note_on channel=0 note=67 velocity=27 time=0
note_on channel=0 note=62 velocity=0 time=12
<meta message set_tempo tempo=543872 time=108>
note_on channel=0 note=58 velocity=30 time=0
note_on channel=0 note=67 velocity=0 time=12
<meta message set_tempo tempo=541419 time=108>
note_on channel=0 note=67 velocity=28 time=0
note_on channel=0 note=58 velocity=0 time=12
note_on channel=0 note=62 velocity=30 time=108
note_on channel=0 note=50 velocity=32 time=0
note_on channel=0 note=67 velocity=0 time=12
<meta message set_tempo tempo=575153 time=68>
note_on channel=0 note=50 velocity=0 time=40
note_on channel=0 note=58 velocity=28 time=0
note_on channel=0 note=62 velocity=0 time=12
<meta message set_tempo tempo=548847 time=108>
note_on channel=0 note=58 velocity=0 time=0
note_on channel=0 note=70 velocity=0 time=0
note_on channel=0 note=69 velocity=50 time=0
note_on channel=0 note=57 velocity=28 time=120
<meta message set_tempo tempo=540541 time=120>
note_on channel=0 note=60 velocity=30 time=0
note_on channel=0 note=51 velocity=39 time=0
note_on channel=0 note=57 velocity=0 time=12
<meta message set_tempo tempo=543872 time=68>
<meta message set_tempo tempo=571429 time=40>
note_on channel=0 note=51 velocity=0 time=0
note_on channel=0 note=67 velocity=28 time=0
note_on channel=0 note=60 velocity=0 time=12
<meta message set_tempo tempo=555556 time=108>
note_on channel=0 note=67 velocity=0 time=0
note_on channel=0 note=69 velocity=0 time=0
note_on channel=0 note=72 velocity=46 time=0
<meta message set_tempo tempo=540541 time=120>
note_on channel=0 note=63 velocity=29 time=0
note_on channel=0 note=67 velocity=30 time=120
note_on channel=0 note=48 velocity=32 time=0
note_on channel=0 note=63 velocity=0 time=12
note_on channel=0 note=48 velocity=0 time=108
note_on channel=0 note=69 velocity=28 time=0
note_on channel=0 note=67 velocity=0 time=12
<meta message set_tempo tempo=556483 time=108>
note_on channel=0 note=69 velocity=0 time=0
note_on channel=0 note=72 velocity=0 time=0
note_on channel=0 note=70 velocity=49 time=0
note_on channel=0 note=58 velocity=27 time=120
note_on channel=0 note=62 velocity=30 time=120
note_on channel=0 note=50 velocity=32 time=0
note_on channel=0 note=58 velocity=0 time=12
note_on channel=0 note=50 velocity=0 time=108
note_on channel=0 note=67 velocity=27 time=0
note_on channel=0 note=62 velocity=0 time=12
<meta message set_tempo tempo=564334 time=108>
note_on channel=0 note=67 velocity=0 time=0
note_on channel=0 note=70 velocity=0 time=0
note_on channel=0 note=69 velocity=45 time=0
note_on channel=0 note=60 velocity=26 time=120
note_on channel=0 note=62 velocity=30 time=120
note_on channel=0 note=38 velocity=32 time=0
note_on channel=0 note=60 velocity=0 time=12
note_on channel=0 note=38 velocity=0 time=108
note_on channel=0 note=66 velocity=27 time=0
note_on channel=0 note=62 velocity=0 time=12
<meta message set_tempo tempo=580720 time=108>
note_on channel=0 note=66 velocity=0 time=0
note_on channel=0 note=69 velocity=0 time=0
note_on channel=0 note=67 velocity=50 time=0
note_on channel=0 note=55 velocity=28 time=120
note_on channel=0 note=58 velocity=32 time=120
note_on channel=0 note=43 velocity=30 time=0
note_on channel=0 note=55 velocity=0 time=12
note_on channel=0 note=43 velocity=0 time=108
note_on channel=0 note=62 velocity=34 time=0
note_on channel=0 note=58 velocity=0 time=12
<meta message set_tempo tempo=564334 time=108>
note_on channel=0 note=63 velocity=35 time=0
note_on channel=0 note=45 velocity=37 time=0
note_on channel=0 note=62 velocity=0 time=12
note_on channel=0 note=45 velocity=0 time=108
note_on channel=0 note=60 velocity=37 time=0
note_on channel=0 note=63 velocity=0 time=12
note_on channel=0 note=57 velocity=39 time=108
note_on channel=0 note=48 velocity=40 time=0
note_on channel=0 note=60 velocity=0 time=12
note_on channel=0 note=48 velocity=0 time=108
note_on channel=0 note=63 velocity=44 time=0
note_on channel=0 note=57 velocity=0 time=12
<meta message set_tempo tempo=559076 time=108>
note_on channel=0 note=62 velocity=44 time=0
note_on channel=0 note=50 velocity=44 time=0
note_on channel=0 note=63 velocity=0 time=12
note_on channel=0 note=50 velocity=0 time=108
note_on channel=0 note=58 velocity=33 time=0
note_on channel=0 note=62 velocity=0 time=12
note_on channel=0 note=62 velocity=37 time=108
note_on channel=0 note=55 velocity=35 time=0
note_on channel=0 note=58 velocity=0 time=12
note_on channel=0 note=55 velocity=0 time=108
note_on channel=0 note=66 velocity=28 time=0
note_on channel=0 note=62 velocity=0 time=12
note_on channel=0 note=67 velocity=0 time=108
note_on channel=0 note=67 velocity=34 time=0
note_on channel=0 note=50 velocity=39 time=0
note_on channel=0 note=66 velocity=0 time=12
note_on channel=0 note=50 velocity=0 time=108
note_on channel=0 note=62 velocity=26 time=0
note_on channel=0 note=67 velocity=0 time=12
note_on channel=0 note=67 velocity=30 time=108
note_on channel=0 note=46 velocity=32 time=0
note_on channel=0 note=62 velocity=0 time=12
note_on channel=0 note=46 velocity=0 time=108
note_on channel=0 note=70 velocity=26 time=0
note_on channel=0 note=67 velocity=0 time=12
<meta message set_tempo tempo=564334 time=108>
note_on channel=0 note=70 velocity=0 time=0
note_on channel=0 note=74 velocity=44 time=0
note_on channel=0 note=62 velocity=29 time=120
note_on channel=0 note=67 velocity=30 time=120
note_on channel=0 note=43 velocity=32 time=0
note_on channel=0 note=62 velocity=0 time=12
note_on channel=0 note=43 velocity=0 time=108
note_on channel=0 note=70 velocity=28 time=0
note_on channel=0 note=67 velocity=0 time=12
<meta message set_tempo tempo=546349 time=108>
note_on channel=0 note=70 velocity=0 time=0
note_on channel=0 note=74 velocity=0 time=0
note_on channel=0 note=74 velocity=40 time=0
note_on channel=0 note=62 velocity=28 time=120
note_on channel=0 note=67 velocity=30 time=120
note_on channel=0 note=43 velocity=32 time=0
note_on channel=0 note=62 velocity=0 time=12
note_on channel=0 note=43 velocity=0 time=108
note_on channel=0 note=70 velocity=28 time=0
note_on channel=0 note=67 velocity=0 time=12
<meta message set_tempo tempo=545901 time=108>
note_on channel=0 note=70 velocity=0 time=0
note_on channel=0 note=74 velocity=0 time=0
note_on channel=0 note=74 velocity=45 time=0
note_on channel=0 note=62 velocity=27 time=120
<meta message set_tempo tempo=533333 time=120>
note_on channel=0 note=66 velocity=30 time=0
note_on channel=0 note=38 velocity=36 time=0
note_on channel=0 note=62 velocity=0 time=12
note_on channel=0 note=38 velocity=0 time=108
note_on channel=0 note=69 velocity=28 time=0
note_on channel=0 note=66 velocity=0 time=12
<meta message set_tempo tempo=551673 time=108>
note_on channel=0 note=69 velocity=0 time=0
note_on channel=0 note=74 velocity=0 time=0
note_on channel=0 note=74 velocity=46 time=0
note_on channel=0 note=62 velocity=27 time=120
<meta message set_tempo tempo=579710 time=120>
note_on channel=0 note=67 velocity=30 time=0
note_on channel=0 note=43 velocity=32 time=0
note_on channel=0 note=62 velocity=0 time=12
note_on channel=0 note=43 velocity=0 time=108
note_on channel=0 note=70 velocity=26 time=0
note_on channel=0 note=67 velocity=0 time=12
<meta message set_tempo tempo=548847 time=108>
note_on channel=0 note=70 velocity=0 time=0
note_on channel=0 note=74 velocity=0 time=0
note_on channel=0 note=75 velocity=51 time=0
note_on channel=0 note=63 velocity=31 time=120
note_on channel=0 note=67 velocity=33 time=120
note_on channel=0 note=36 velocity=38 time=0
note_on channel=0 note=63 velocity=0 time=12
note_on channel=0 note=36 velocity=0 time=108
note_on channel=0 note=72 velocity=31 time=0
note_on channel=0 note=67 velocity=0 time=12
<meta message set_tempo tempo=546349 time=108>
note_on channel=0 note=69 velocity=41 time=0
note_on channel=0 note=72 velocity=0 time=12
<meta message set_tempo tempo=546349 time=108>
note_on channel=0 note=72 velocity=33 time=0
note_on channel=0 note=69 velocity=0 time=12
note_on channel=0 note=69 velocity=41 time=108
note_on channel=0 note=41 velocity=43 time=0
note_on channel=0 note=72 velocity=0 time=12
<meta message set_tempo tempo=572410 time=68>
note_on channel=0 note=41 velocity=0 time=40
note_on channel=0 note=65 velocity=34 time=0
note_on channel=0 note=69 velocity=0 time=12
<meta message set_tempo tempo=551369 time=108>
note_on channel=0 note=65 velocity=0 time=0
note_on channel=0 note=75 velocity=0 time=0
note_on channel=0 note=74 velocity=57 time=0
note_on channel=0 note=62 velocity=34 time=120
note_on channel=0 note=65 velocity=40 time=120
note_on channel=0 note=34 velocity=45 time=0
note_on channel=0 note=62 velocity=0 time=12
note_on channel=0 note=34 velocity=0 time=108
note_on channel=0 note=70 velocity=33 time=0
note_on channel=0 note=65 velocity=0 time=12
<meta message set_tempo tempo=538987 time=108>
note_on channel=0 note=65 velocity=41 time=0
note_on channel=0 note=70 velocity=0 time=12
<meta message set_tempo tempo=538987 time=108>
note_on channel=0 note=70 velocity=28 time=0
note_on channel=0 note=65 velocity=0 time=12
note_on channel=0 note=65 velocity=35 time=108
note_on channel=0 note=46 velocity=43 time=0
note_on channel=0 note=70 velocity=0 time=12
<meta message set_tempo tempo=569692 time=68>
note_on channel=0 note=46 velocity=0 time=40
note_on channel=0 note=62 velocity=27 time=0
note_on channel=0 note=65 velocity=0 time=12
<meta message set_tempo tempo=548847 time=108>
note_on channel=0 note=62 velocity=0 time=0
note_on channel=0 note=74 velocity=0 time=0
note_on channel=0 note=72 velocity=60 time=0
note_on channel=0 note=60 velocity=35 time=120
<meta message set_tempo tempo=540541 time=120>
note_on channel=0 note=63 velocity=39 time=0
note_on channel=0 note=45 velocity=50 time=0
note_on channel=0 note=60 velocity=0 time=12
note_on channel=0 note=45 velocity=0 time=108
note_on channel=0 note=69 velocity=28 time=0
note_on channel=0 note=63 velocity=0 time=12
<meta message set_tempo tempo=535714 time=108>
note_on channel=0 note=66 velocity=40 time=0
note_on channel=0 note=69 velocity=0 time=12
<meta message set_tempo tempo=538987 time=108>
note_on channel=0 note=69 velocity=27 time=0
note_on channel=0 note=66 velocity=0 time=12
note_on channel=0 note=66 velocity=30 time=108
note_on channel=0 note=38 velocity=42 time=0
note_on channel=0 note=69 velocity=0 time=12
<meta message set_tempo tempo=564334 time=68>
note_on channel=0 note=38 velocity=0 time=40
note_on channel=0 note=62 velocity=27 time=0
note_on channel=0 note=66 velocity=0 time=12
<meta message set_tempo tempo=546349 time=108>
note_on channel=0 note=62 velocity=0 time=0
note_on channel=0 note=72 velocity=0 time=0
note_on channel=0 note=70 velocity=45 time=0
note_on channel=0 note=58 velocity=27 time=120
<meta message set_tempo tempo=538117 time=120>
note_on channel=0 note=62 velocity=30 time=0
note_on channel=0 note=43 velocity=42 time=0
note_on channel=0 note=58 velocity=0 time=12
note_on channel=0 note=43 velocity=0 time=108
note_on channel=0 note=67 velocity=27 time=0
note_on channel=0 note=62 velocity=0 time=12
<meta message set_tempo tempo=541419 time=108>
note_on channel=0 note=58 velocity=30 time=0
note_on channel=0 note=67 velocity=0 time=12
<meta message set_tempo tempo=540541 time=108>
note_on channel=0 note=67 velocity=28 time=0
note_on channel=0 note=58 velocity=0 time=12
note_on channel=0 note=62 velocity=30 time=108
note_on channel=0 note=31 velocity=41 time=0
note_on channel=0 note=67 velocity=0 time=12
<meta message set_tempo tempo=575153 time=68>
note_on channel=0 note=31 velocity=0 time=40
note_on channel=0 note=58 velocity=28 time=0
note_on channel=0 note=62 velocity=0 time=12
<meta message set_tempo tempo=548847 time=108>
note_on channel=0 note=58 velocity=0 time=0
note_on channel=0 note=70 velocity=0 time=0
note_on channel=0 note=67 velocity=50 time=0
note_on channel=0 note=63 velocity=28 time=120
<meta message set_tempo tempo=540541 time=120>
note_on channel=0 note=62 velocity=30 time=0
note_on channel=0 note=39 velocity=39 time=0
note_on channel=0 note=63 velocity=0 time=12
<meta message set_tempo tempo=571429 time=108>
note_on channel=0 note=39 velocity=0 time=0
note_on channel=0 note=60 velocity=28 time=0
note_on channel=0 note=62 velocity=0 time=12
<meta message set_tempo tempo=555556 time=108>
note_on channel=0 note=60 velocity=0 time=0
note_on channel=0 note=67 velocity=0 time=0
note_on channel=0 note=75 velocity=46 time=0
<meta message set_tempo tempo=530973 time=120>
note_on channel=0 note=63 velocity=29 time=0
note_on channel=0 note=67 velocity=30 time=120
note_on channel=0 note=36 velocity=32 time=0
note_on channel=0 note=63 velocity=0 time=12
note_on channel=0 note=36 velocity=0 time=108
note_on channel=0 note=72 velocity=28 time=0
note_on channel=0 note=67 velocity=0 time=12
<meta message set_tempo tempo=545455 time=108>
note_on channel=0 note=72 velocity=0 time=0
note_on channel=0 note=75 velocity=0 time=0
note_on channel=0 note=74 velocity=49 time=0
note_on channel=0 note=62 velocity=27 time=120
note_on channel=0 note=65 velocity=30 time=120
note_on channel=0 note=41 velocity=32 time=0
note_on channel=0 note=62 velocity=0 time=12
note_on channel=0 note=41 velocity=0 time=108
note_on channel=0 note=70 velocity=27 time=0
note_on channel=0 note=65 velocity=0 time=12
<meta message set_tempo tempo=564334 time=108>
note_on channel=0 note=70 velocity=0 time=0
note_on channel=0 note=74 velocity=0 time=0
note_on channel=0 note=72 velocity=45 time=0
note_on channel=0 note=63 velocity=26 time=120
note_on channel=0 note=65 velocity=30 time=120
note_on channel=0 note=29 velocity=32 time=0
note_on channel=0 note=63 velocity=0 time=12
note_on channel=0 note=29 velocity=0 time=108
note_on channel=0 note=69 velocity=27 time=0
note_on channel=0 note=65 velocity=0 time=12
<meta message set_tempo tempo=580720 time=108>
note_on channel=0 note=69 velocity=0 time=0
note_on channel=0 note=72 velocity=0 time=0
note_on channel=0 note=70 velocity=50 time=0
note_on channel=0 note=58 velocity=28 time=120
note_on channel=0 note=62 velocity=32 time=120
note_on channel=0 note=46 velocity=30 time=0
note_on channel=0 note=58 velocity=0 time=12
note_on channel=0 note=46 velocity=0 time=108
note_on channel=0 note=65 velocity=34 time=0
note_on channel=0 note=62 velocity=0 time=12
<meta message set_tempo tempo=564334 time=108>
note_on channel=0 note=66 velocity=35 time=0
note_on channel=0 note=48 velocity=37 time=0
note_on channel=0 note=65 velocity=0 time=12
note_on channel=0 note=48 velocity=0 time=108
note_on channel=0 note=63 velocity=37 time=0
note_on channel=0 note=66 velocity=0 time=12
note_on channel=0 note=60 velocity=39 time=108
note_on channel=0 note=51 velocity=40 time=0
note_on channel=0 note=63 velocity=0 time=12
note_on channel=0 note=51 velocity=0 time=108
note_on channel=0 note=66 velocity=44 time=0
note_on channel=0 note=60 velocity=0 time=12
<meta message set_tempo tempo=559076 time=108>
note_on channel=0 note=65 velocity=44 time=0
note_on channel=0 note=50 velocity=44 time=0
note_on channel=0 note=66 velocity=0 time=12
note_on channel=0 note=50 velocity=0 time=108
note_on channel=0 note=62 velocity=33 time=0
note_on channel=0 note=65 velocity=0 time=12
note_on channel=0 note=65 velocity=37 time=108
note_on channel=0 note=58 velocity=35 time=0
note_on channel=0 note=62 velocity=0 time=12
note_on channel=0 note=58 velocity=0 time=108
note_on channel=0 note=69 velocity=34 time=0
note_on channel=0 note=65 velocity=0 time=12
note_on channel=0 note=70 velocity=0 time=108
note_on channel=0 note=70 velocity=40 time=0
note_on channel=0 note=53 velocity=39 time=0
note_on channel=0 note=69 velocity=0 time=12
note_on channel=0 note=53 velocity=0 time=108
note_on channel=0 note=65 velocity=43 time=0
note_on channel=0 note=70 velocity=0 time=12
note_on channel=0 note=70 velocity=46 time=108
note_on channel=0 note=50 velocity=32 time=0
note_on channel=0 note=65 velocity=0 time=12
note_on channel=0 note=50 velocity=0 time=108
note_on channel=0 note=74 velocity=49 time=0
note_on channel=0 note=70 velocity=0 time=12
<meta message set_tempo tempo=561693 time=108>
note_on channel=0 note=74 velocity=0 time=0
note_on channel=0 note=65 velocity=41 time=0
note_on channel=0 note=77 velocity=55 time=0
note_on channel=0 note=46 velocity=44 time=0
control_change channel=0 control=64 value=127 time=23
note_on channel=0 note=46 velocity=0 time=97
note_on channel=0 note=50 velocity=36 time=0
note_on channel=0 note=50 velocity=0 time=120
note_on channel=0 note=53 velocity=36 time=0
note_on channel=0 note=53 velocity=0 time=120
note_on channel=0 note=77 velocity=0 time=0
note_on channel=0 note=65 velocity=0 time=0
note_on channel=0 note=50 velocity=36 time=0
<meta message set_tempo tempo=546349 time=120>
note_on channel=0 note=50 velocity=0 time=0
note_on channel=0 note=65 velocity=44 time=0
note_on channel=0 note=77 velocity=54 time=0
note_on channel=0 note=46 velocity=45 time=0
<meta message set_tempo tempo=540541 time=78>
note_on channel=0 note=46 velocity=0 time=42
note_on channel=0 note=50 velocity=38 time=0
note_on channel=0 note=50 velocity=0 time=120
note_on channel=0 note=53 velocity=38 time=0
note_on channel=0 note=53 velocity=0 time=120
note_on channel=0 note=50 velocity=46 time=0
<meta message set_tempo tempo=538117 time=18>
note_on channel=0 note=77 velocity=0 time=101
note_on channel=0 note=65 velocity=0 time=0
note_on channel=0 note=50 velocity=0 time=1
note_on channel=0 note=66 velocity=54 time=0
note_on channel=0 note=78 velocity=64 time=0
note_on channel=0 note=45 velocity=55 time=0
control_change channel=0 control=64 value=0 time=16
note_on channel=0 note=45 velocity=0 time=104
note_on channel=0 note=48 velocity=46 time=0
control_change channel=0 control=64 value=127 time=6
<meta message set_tempo tempo=535714 time=52>
note_on channel=0 note=48 velocity=0 time=62
note_on channel=0 note=50 velocity=47 time=0
note_on channel=0 note=50 velocity=0 time=120
note_on channel=0 note=48 velocity=50 time=0
<meta message set_tempo tempo=533333 time=98>
note_on channel=0 note=78 velocity=0 time=21
note_on channel=0 note=66 velocity=0 time=0
<meta message set_tempo tempo=538117 time=1>
note_on channel=0 note=48 velocity=0 time=0
note_on channel=0 note=67 velocity=60 time=0
note_on channel=0 note=79 velocity=72 time=0
note_on channel=0 note=43 velocity=60 time=0
control_change channel=0 control=64 value=0 time=15
control_change channel=0 control=64 value=127 time=82
note_on channel=0 note=43 velocity=0 time=23
note_on channel=0 note=48 velocity=52 time=0
note_on channel=0 note=48 velocity=0 time=120
note_on channel=0 note=50 velocity=49 time=0
note_on channel=0 note=50 velocity=0 time=120
note_on channel=0 note=48 velocity=50 time=0
<meta message set_tempo tempo=535714 time=98>
note_on channel=0 note=79 velocity=0 time=21
note_on channel=0 note=67 velocity=0 time=0
<meta message set_tempo tempo=535714 time=1>
note_on channel=0 note=48 velocity=0 time=0
note_on channel=0 note=69 velocity=61 time=0
note_on channel=0 note=81 velocity=75 time=0
note_on channel=0 note=42 velocity=72 time=0
control_change channel=0 control=64 value=0 time=4
control_change channel=0 control=64 value=127 time=105
note_on channel=0 note=42 velocity=0 time=11
note_on channel=0 note=48 velocity=55 time=0
note_on channel=0 note=48 velocity=0 time=120
note_on channel=0 note=50 velocity=59 time=0
note_on channel=0 note=50 velocity=0 time=120
note_on channel=0 note=48 velocity=59 time=0
note_on channel=0 note=81 velocity=0 time=119
note_on channel=0 note=69 velocity=0 time=0
<meta message set_tempo tempo=545901 time=1>
note_on channel=0 note=48 velocity=0 time=0
note_on channel=0 note=72 velocity=64 time=0
note_on channel=0 note=84 velocity=78 time=0
note_on channel=0 note=42 velocity=68 time=0
control_change channel=0 control=64 value=0 time=11
control_change channel=0 control=64 value=127 time=104
note_on channel=0 note=42 velocity=0 time=5
note_on channel=0 note=45 velocity=53 time=0
note_on channel=0 note=45 velocity=0 time=120
note_on channel=0 note=50 velocity=53 time=0
note_on channel=0 note=50 velocity=0 time=120
note_on channel=0 note=45 velocity=53 time=0
note_on channel=0 note=84 velocity=0 time=119
note_on channel=0 note=72 velocity=0 time=0
<meta message set_tempo tempo=551673 time=1>
note_on channel=0 note=45 velocity=0 time=0
note_on channel=0 note=70 velocity=63 time=0
note_on channel=0 note=82 velocity=77 time=0
note_on channel=0 note=43 velocity=63 time=0
control_change channel=0 control=64 value=0 time=11
note_on channel=0 note=43 velocity=0 time=109
note_on channel=0 note=46 velocity=48 time=0
control_change channel=0 control=64 value=127 time=6
note_on channel=0 note=46 velocity=0 time=114
note_on channel=0 note=50 velocity=48 time=0
note_on channel=0 note=50 velocity=0 time=120
note_on channel=0 note=46 velocity=48 time=0
note_on channel=0 note=82 velocity=0 time=119
note_on channel=0 note=70 velocity=0 time=0
<meta message set_tempo tempo=551673 time=1>
note_on channel=0 note=46 velocity=0 time=0
note_on channel=0 note=69 velocity=49 time=0
note_on channel=0 note=81 velocity=58 time=0
note_on channel=0 note=48 velocity=48 time=0
control_change channel=0 control=64 value=0 time=12
note_on channel=0 note=48 velocity=0 time=108
note_on channel=0 note=51 velocity=35 time=0
control_change channel=0 control=64 value=127 time=17
note_on channel=0 note=51 velocity=0 time=103
note_on channel=0 note=57 velocity=35 time=0
<meta message set_tempo tempo=580720 time=120>
note_on channel=0 note=57 velocity=0 time=0
note_on channel=0 note=81 velocity=0 time=0
note_on channel=0 note=69 velocity=0 time=0
note_on channel=0 note=67 velocity=42 time=0
note_on channel=0 note=79 velocity=51 time=0
note_on channel=0 note=51 velocity=36 time=0
<meta message set_tempo tempo=567001 time=120>
note_on channel=0 note=51 velocity=0 time=0
note_on channel=0 note=79 velocity=0 time=0
note_on channel=0 note=67 velocity=0 time=0
note_on channel=0 note=66 velocity=49 time=0
note_on channel=0 note=78 velocity=58 time=0
note_on channel=0 note=50 velocity=50 time=0
control_change channel=0 control=64 value=0 time=4
control_change channel=0 control=64 value=127 time=105
note_on channel=0 note=50 velocity=0 time=11
note_on channel=0 note=57 velocity=39 time=0
note_on channel=0 note=57 velocity=0 time=120
note_on channel=0 note=60 velocity=39 time=0
note_on channel=0 note=60 velocity=0 time=120
note_on channel=0 note=57 velocity=39 time=0
<meta message set_tempo tempo=556483 time=120>
note_on channel=0 note=57 velocity=0 time=0
note_on channel=0 note=78 velocity=0 time=0
note_on channel=0 note=66 velocity=0 time=0
note_on channel=0 note=66 velocity=46 time=0
note_on channel=0 note=78 velocity=55 time=0
note_on channel=0 note=50 velocity=47 time=0
note_on channel=0 note=50 velocity=0 time=120
note_on channel=0 note=57 velocity=39 time=0
note_on channel=0 note=57 velocity=0 time=120
note_on channel=0 note=60 velocity=39 time=0
note_on channel=0 note=60 velocity=0 time=120
note_on channel=0 note=57 velocity=39 time=0
<meta message set_tempo tempo=546349 time=120>
note_on channel=0 note=57 velocity=0 time=0
note_on channel=0 note=78 velocity=0 time=0
note_on channel=0 note=66 velocity=0 time=0
note_on channel=0 note=67 velocity=45 time=0
note_on channel=0 note=79 velocity=53 time=0
note_on channel=0 note=50 velocity=47 time=0
control_change channel=0 control=64 value=0 time=13
control_change channel=0 control=64 value=127 time=90
note_on channel=0 note=50 velocity=0 time=17
note_on channel=0 note=57 velocity=40 time=0
note_on channel=0 note=57 velocity=0 time=120
note_on channel=0 note=79 velocity=0 time=0
note_on channel=0 note=67 velocity=0 time=0
note_on channel=0 note=66 velocity=37 time=0
note_on channel=0 note=78 velocity=45 time=0
note_on channel=0 note=60 velocity=40 time=0
note_on channel=0 note=60 velocity=0 time=120
note_on channel=0 note=57 velocity=40 time=0
<meta message set_tempo tempo=564334 time=120>
note_on channel=0 note=57 velocity=0 time=0
note_on channel=0 note=78 velocity=0 time=0
note_on channel=0 note=66 velocity=0 time=0
note_on channel=0 note=64 velocity=38 time=0
note_on channel=0 note=76 velocity=46 time=0
note_on channel=0 note=50 velocity=44 time=0
note_on channel=0 note=50 velocity=0 time=120
note_on channel=0 note=57 velocity=36 time=0
note_on channel=0 note=57 velocity=0 time=120
note_on channel=0 note=76 velocity=0 time=0
note_on channel=0 note=64 velocity=0 time=0
note_on channel=0 note=66 velocity=37 time=0
note_on channel=0 note=78 velocity=45 time=0
note_on channel=0 note=60 velocity=36 time=0
<meta message set_tempo tempo=613371 time=120>
note_on channel=0 note=60 velocity=0 time=0
note_on channel=0 note=57 velocity=36 time=0
<meta message set_tempo tempo=577923 time=120>
note_on channel=0 note=57 velocity=0 time=0
note_on channel=0 note=78 velocity=0 time=0
note_on channel=0 note=66 velocity=0 time=0
note_on channel=0 note=67 velocity=40 time=0
note_on channel=0 note=79 velocity=48 time=0
note_on channel=0 note=55 velocity=44 time=0
control_change channel=0 control=64 value=0 time=5
note_on channel=0 note=55 velocity=0 time=115
note_on channel=0 note=58 velocity=37 time=0
control_change channel=0 control=64 value=127 time=14
note_on channel=0 note=58 velocity=0 time=106
note_on channel=0 note=55 velocity=37 time=0
note_on channel=0 note=55 velocity=0 time=120
note_on channel=0 note=50 velocity=37 time=0
<meta message set_tempo tempo=564334 time=120>
note_on channel=0 note=50 velocity=0 time=0
note_on channel=0 note=46 velocity=44 time=0
note_on channel=0 note=46 velocity=0 time=120
note_on channel=0 note=55 velocity=38 time=0
note_on channel=0 note=55 velocity=0 time=120
note_on channel=0 note=50 velocity=38 time=0
note_on channel=0 note=50 velocity=0 time=120
note_on channel=0 note=46 velocity=38 time=0
<meta message marker text='Teil 4' time=120>
note_on channel=0 note=46 velocity=0 time=0
note_on channel=0 note=79 velocity=0 time=0
note_on channel=0 note=67 velocity=0 time=0
note_on channel=0 note=43 velocity=44 time=0
control_change channel=0 control=64 value=0 time=13
note_on channel=0 note=43 velocity=0 time=107
note_on channel=0 note=67 velocity=53 time=0
control_change channel=0 control=64 value=127 time=85
note_on channel=0 note=67 velocity=0 time=35
note_on channel=0 note=70 velocity=55 time=0
note_on channel=0 note=70 velocity=0 time=120
note_on channel=0 note=74 velocity=57 time=0
<meta message set_tempo tempo=551673 time=120>
note_on channel=0 note=74 velocity=0 time=0
note_on channel=0 note=79 velocity=59 time=0
note_on channel=0 note=43 velocity=58 time=0
note_on channel=0 note=55 velocity=69 time=0
note_on channel=0 note=79 velocity=0 time=120
note_on channel=0 note=70 velocity=61 time=0
note_on channel=0 note=70 velocity=0 time=120
note_on channel=0 note=74 velocity=63 time=0
<meta message set_tempo tempo=613371 time=120>
note_on channel=0 note=74 velocity=0 time=0
note_on channel=0 note=55 velocity=0 time=0
note_on channel=0 note=43 velocity=0 time=0
note_on channel=0 note=79 velocity=65 time=0
note_on channel=0 note=46 velocity=51 time=0
note_on channel=0 note=58 velocity=61 time=0
<meta message set_tempo tempo=561693 time=120>
note_on channel=0 note=58 velocity=0 time=0
note_on channel=0 note=46 velocity=0 time=0
note_on channel=0 note=79 velocity=0 time=0
note_on channel=0 note=50 velocity=62 time=0
note_on channel=0 note=62 velocity=74 time=0
control_change channel=0 control=64 value=0 time=0
control_change channel=0 control=64 value=127 time=54
note_on channel=0 note=69 velocity=63 time=186
note_on channel=0 note=74 velocity=63 time=0
note_on channel=0 note=78 velocity=74 time=0
note_on channel=0 note=78 velocity=0 time=120
note_on channel=0 note=69 velocity=0 time=0
note_on channel=0 note=50 velocity=0 time=0
note_on channel=0 note=62 velocity=0 time=0
note_on channel=0 note=74 velocity=0 time=0
control_change channel=0 control=64 value=0 time=13
<meta message set_tempo tempo=546349 time=107>
note_on channel=0 note=50 velocity=56 time=0
note_on channel=0 note=62 velocity=67 time=0
control_change channel=0 control=64 value=127 time=37
note_on channel=0 note=81 velocity=74 time=203
note_on channel=0 note=72 velocity=63 time=0
note_on channel=0 note=74 velocity=63 time=0
control_change channel=0 control=64 value=0 time=100
note_on channel=0 note=74 velocity=0 time=20
note_on channel=0 note=81 velocity=0 time=0
note_on channel=0 note=50 velocity=0 time=0
note_on channel=0 note=62 velocity=0 time=0
note_on channel=0 note=72 velocity=0 time=0
<meta message set_tempo tempo=545901 time=120>
note_on channel=0 note=50 velocity=58 time=0
note_on channel=0 note=62 velocity=69 time=0
control_change channel=0 control=64 value=127 time=66
note_on channel=0 note=70 velocity=63 time=174
note_on channel=0 note=74 velocity=63 time=0
note_on channel=0 note=79 velocity=74 time=0
note_on channel=0 note=79 velocity=0 time=120
note_on channel=0 note=70 velocity=0 time=0
note_on channel=0 note=50 velocity=0 time=0
note_on channel=0 note=62 velocity=0 time=0
note_on channel=0 note=74 velocity=0 time=0
control_change channel=0 control=64 value=0 time=37
<meta message set_tempo tempo=551673 time=83>
note_on channel=0 note=50 velocity=57 time=0
note_on channel=0 note=62 velocity=68 time=0
control_change channel=0 control=64 value=127 time=54
<meta message set_tempo tempo=575153 time=186>
note_on channel=0 note=69 velocity=63 time=0
note_on channel=0 note=74 velocity=63 time=0
note_on channel=0 note=78 velocity=74 time=0
note_on channel=0 note=78 velocity=0 time=120
note_on channel=0 note=69 velocity=0 time=0
note_on channel=0 note=50 velocity=0 time=0
note_on channel=0 note=62 velocity=0 time=0
note_on channel=0 note=74 velocity=0 time=0
control_change channel=0 control=64 value=0 time=13
<meta message set_tempo tempo=548847 time=107>
note_on channel=0 note=51 velocity=63 time=0
note_on channel=0 note=63 velocity=75 time=0
note_on channel=0 note=67 velocity=65 time=240
note_on channel=0 note=74 velocity=65 time=0
note_on channel=0 note=79 velocity=78 time=0
note_on channel=0 note=79 velocity=0 time=120
note_on channel=0 note=67 velocity=0 time=0
note_on channel=0 note=74 velocity=0 time=0
<meta message set_tempo tempo=527148 time=120>
note_on channel=0 note=67 velocity=66 time=0
note_on channel=0 note=72 velocity=66 time=0
note_on channel=0 note=79 velocity=79 time=0
<meta message set_tempo tempo=541419 time=120>
note_on channel=0 note=79 velocity=0 time=0
note_on channel=0 note=67 velocity=0 time=0
note_on channel=0 note=72 velocity=0 time=0
note_on channel=0 note=85 velocity=83 time=120
note_on channel=0 note=79 velocity=71 time=0
note_on channel=0 note=73 velocity=71 time=0
<meta message set_tempo tempo=572410 time=80>
note_on channel=0 note=73 velocity=0 time=40
note_on channel=0 note=85 velocity=0 time=0
note_on channel=0 note=79 velocity=0 time=0
<meta message set_tempo tempo=551369 time=120>
note_on channel=0 note=63 velocity=0 time=0
note_on channel=0 note=51 velocity=0 time=0
note_on channel=0 note=50 velocity=61 time=0
note_on channel=0 note=62 velocity=72 time=0
note_on channel=0 note=86 velocity=83 time=240
note_on channel=0 note=81 velocity=83 time=0
note_on channel=0 note=79 velocity=71 time=0
note_on channel=0 note=74 velocity=71 time=0
note_on channel=0 note=74 velocity=0 time=120
note_on channel=0 note=81 velocity=0 time=0
note_on channel=0 note=86 velocity=0 time=0
note_on channel=0 note=79 velocity=0 time=0
<meta message set_tempo tempo=527148 time=120>
note_on channel=0 note=74 velocity=69 time=0
note_on channel=0 note=78 velocity=69 time=0
note_on channel=0 note=81 velocity=69 time=0
note_on channel=0 note=86 velocity=81 time=0
<meta message set_tempo tempo=546349 time=120>
note_on channel=0 note=86 velocity=0 time=0
note_on channel=0 note=78 velocity=0 time=0
note_on channel=0 note=74 velocity=0 time=0
note_on channel=0 note=81 velocity=0 time=0
note_on channel=0 note=66 velocity=66 time=120
note_on channel=0 note=69 velocity=66 time=0
note_on channel=0 note=74 velocity=79 time=0
<meta message set_tempo tempo=569692 time=80>
note_on channel=0 note=74 velocity=0 time=40
note_on channel=0 note=66 velocity=0 time=0
note_on channel=0 note=69 velocity=0 time=0
<meta message set_tempo tempo=548847 time=120>
note_on channel=0 note=62 velocity=0 time=0
note_on channel=0 note=50 velocity=0 time=0
note_on channel=0 note=48 velocity=63 time=0
note_on channel=0 note=60 velocity=75 time=0
note_on channel=0 note=63 velocity=63 time=240
note_on channel=0 note=70 velocity=63 time=0
note_on channel=0 note=75 velocity=74 time=0
note_on channel=0 note=75 velocity=0 time=120
note_on channel=0 note=63 velocity=0 time=0
note_on channel=0 note=70 velocity=0 time=0
<meta message set_tempo tempo=520291 time=120>
note_on channel=0 note=63 velocity=69 time=0
note_on channel=0 note=69 velocity=69 time=0
note_on channel=0 note=75 velocity=81 time=0
<meta message set_tempo tempo=531821 time=120>
note_on channel=0 note=75 velocity=0 time=0
note_on channel=0 note=63 velocity=0 time=0
note_on channel=0 note=69 velocity=0 time=0
<meta message set_tempo tempo=531821 time=120>
note_on channel=0 note=81 velocity=74 time=0
note_on channel=0 note=75 velocity=63 time=0
note_on channel=0 note=69 velocity=63 time=0
<meta message set_tempo tempo=564334 time=80>
note_on channel=0 note=69 velocity=0 time=40
note_on channel=0 note=81 velocity=0 time=0
note_on channel=0 note=75 velocity=0 time=0
<meta message set_tempo tempo=546349 time=120>
note_on channel=0 note=60 velocity=0 time=0
note_on channel=0 note=48 velocity=0 time=0
note_on channel=0 note=46 velocity=57 time=0
note_on channel=0 note=58 velocity=68 time=0
note_on channel=0 note=82 velocity=74 time=240
note_on channel=0 note=77 velocity=63 time=0
note_on channel=0 note=75 velocity=63 time=0
note_on channel=0 note=70 velocity=63 time=0
note_on channel=0 note=70 velocity=0 time=120
note_on channel=0 note=77 velocity=0 time=0
note_on channel=0 note=82 velocity=0 time=0
note_on channel=0 note=75 velocity=0 time=0
<meta message set_tempo tempo=536577 time=120>
note_on channel=0 note=70 velocity=66 time=0
note_on channel=0 note=74 velocity=66 time=0
note_on channel=0 note=77 velocity=66 time=0
note_on channel=0 note=82 velocity=79 time=0
note_on channel=0 note=82 velocity=0 time=120
note_on channel=0 note=74 velocity=0 time=0
note_on channel=0 note=70 velocity=0 time=0
note_on channel=0 note=77 velocity=0 time=0
note_on channel=0 note=62 velocity=63 time=120
note_on channel=0 note=65 velocity=63 time=0
note_on channel=0 note=70 velocity=74 time=0
<meta message set_tempo tempo=575153 time=80>
note_on channel=0 note=70 velocity=0 time=40
note_on channel=0 note=62 velocity=0 time=0
note_on channel=0 note=65 velocity=0 time=0
<meta message set_tempo tempo=529474 time=120>
note_on channel=0 note=58 velocity=0 time=0
note_on channel=0 note=46 velocity=0 time=0
note_on channel=0 note=45 velocity=57 time=0
note_on channel=0 note=57 velocity=68 time=0
control_change channel=0 control=64 value=127 time=62
<meta message set_tempo tempo=546349 time=178>
note_on channel=0 note=63 velocity=63 time=0
note_on channel=0 note=67 velocity=63 time=0
note_on channel=0 note=72 velocity=74 time=0
control_change channel=0 control=64 value=0 time=83
note_on channel=0 note=72 velocity=0 time=37
note_on channel=0 note=63 velocity=0 time=0
note_on channel=0 note=67 velocity=0 time=0
<meta message set_tempo tempo=529474 time=120>
note_on channel=0 note=57 velocity=0 time=0
note_on channel=0 note=45 velocity=0 time=0
note_on channel=0 note=48 velocity=56 time=0
note_on channel=0 note=60 velocity=66 time=0
control_change channel=0 control=64 value=127 time=66
<meta message set_tempo tempo=543872 time=174>
note_on channel=0 note=66 velocity=63 time=0
note_on channel=0 note=69 velocity=63 time=0
note_on channel=0 note=75 velocity=74 time=0
control_change channel=0 control=64 value=0 time=91
note_on channel=0 note=75 velocity=0 time=29
note_on channel=0 note=66 velocity=0 time=0
note_on channel=0 note=69 velocity=0 time=0
<meta message set_tempo tempo=556483 time=120>
note_on channel=0 note=60 velocity=0 time=0
note_on channel=0 note=48 velocity=0 time=0
note_on channel=0 note=46 velocity=62 time=0
note_on channel=0 note=58 velocity=73 time=0
control_change channel=0 control=64 value=127 time=83
note_on channel=0 note=67 velocity=65 time=157
note_on channel=0 note=70 velocity=65 time=0
note_on channel=0 note=74 velocity=78 time=0
control_change channel=0 control=64 value=0 time=95
note_on channel=0 note=74 velocity=0 time=25
note_on channel=0 note=67 velocity=0 time=0
note_on channel=0 note=70 velocity=0 time=0
<meta message set_tempo tempo=561693 time=120>
note_on channel=0 note=58 velocity=0 time=0
note_on channel=0 note=46 velocity=0 time=0
note_on channel=0 note=45 velocity=45 time=0
note_on channel=0 note=57 velocity=64 time=0
control_change channel=0 control=64 value=127 time=116
note_on channel=0 note=72 velocity=66 time=124
note_on channel=0 note=74 velocity=66 time=0
note_on channel=0 note=78 velocity=79 time=0
note_on channel=0 note=78 velocity=0 time=120
note_on channel=0 note=72 velocity=0 time=0
note_on channel=0 note=74 velocity=0 time=0
control_change channel=0 control=64 value=0 time=29
<meta message set_tempo tempo=577923 time=91>
note_on channel=0 note=57 velocity=0 time=0
note_on channel=0 note=45 velocity=0 time=0
note_on channel=0 note=55 velocity=72 time=0
note_on channel=0 note=43 velocity=51 time=0
control_change channel=0 control=64 value=127 time=106
<meta message set_tempo tempo=553914 time=134>
note_on channel=0 note=70 velocity=69 time=0
note_on channel=0 note=74 velocity=69 time=0
note_on channel=0 note=79 velocity=81 time=0
<meta message set_tempo tempo=556483 time=240>
note_on channel=0 note=79 velocity=0 time=0
note_on channel=0 note=70 velocity=0 time=0
note_on channel=0 note=74 velocity=0 time=0
note_on channel=0 note=62 velocity=67 time=0
note_on channel=0 note=70 velocity=67 time=0
note_on channel=0 note=74 velocity=80 time=0
note_on channel=0 note=74 velocity=0 time=240
note_on channel=0 note=62 velocity=0 time=0
note_on channel=0 note=70 velocity=0 time=0
note_on channel=0 note=62 velocity=65 time=0
note_on channel=0 note=69 velocity=65 time=0
note_on channel=0 note=72 velocity=78 time=0
<meta message set_tempo tempo=551369 time=240>
note_on channel=0 note=72 velocity=0 time=0
note_on channel=0 note=62 velocity=0 time=0
note_on channel=0 note=69 velocity=0 time=0
note_on channel=0 note=62 velocity=64 time=0
note_on channel=0 note=67 velocity=64 time=0
note_on channel=0 note=70 velocity=64 time=0
control_change channel=0 control=64 value=0 time=16
control_change channel=0 control=64 value=127 time=217
note_on channel=0 note=70 velocity=0 time=7
note_on channel=0 note=62 velocity=0 time=0
note_on channel=0 note=67 velocity=0 time=0
note_on channel=0 note=67 velocity=63 time=0
note_on channel=0 note=70 velocity=63 time=0
note_on channel=0 note=74 velocity=74 time=0
<meta message set_tempo tempo=551673 time=240>
note_on channel=0 note=74 velocity=0 time=0
note_on channel=0 note=67 velocity=0 time=0
note_on channel=0 note=55 velocity=0 time=0
note_on channel=0 note=43 velocity=0 time=0
note_on channel=0 note=70 velocity=0 time=0
note_on channel=0 note=70 velocity=63 time=0
note_on channel=0 note=74 velocity=63 time=0
note_on channel=0 note=79 velocity=74 time=0
note_on channel=0 note=55 velocity=69 time=0
note_on channel=0 note=43 velocity=69 time=0
note_on channel=0 note=79 velocity=0 time=240
note_on channel=0 note=70 velocity=0 time=0
note_on channel=0 note=74 velocity=0 time=0
note_on channel=0 note=67 velocity=63 time=0
note_on channel=0 note=70 velocity=63 time=0
note_on channel=0 note=74 velocity=74 time=0
<meta message set_tempo tempo=613371 time=120>
note_on channel=0 note=55 velocity=0 time=0
note_on channel=0 note=43 velocity=0 time=0
note_on channel=0 note=46 velocity=61 time=0
note_on channel=0 note=58 velocity=61 time=0
<meta message set_tempo tempo=564334 time=120>
note_on channel=0 note=58 velocity=0 time=0
note_on channel=0 note=70 velocity=0 time=0
note_on channel=0 note=74 velocity=0 time=0
note_on channel=0 note=67 velocity=0 time=0
note_on channel=0 note=46 velocity=0 time=0
note_on channel=0 note=50 velocity=74 time=0
note_on channel=0 note=62 velocity=74 time=0
control_change channel=0 control=64 value=0 time=0
control_change channel=0 control=64 value=127 time=79
note_on channel=0 note=66 velocity=63 time=161
note_on channel=0 note=69 velocity=63 time=0
note_on channel=0 note=74 velocity=74 time=0
note_on channel=0 note=62 velocity=0 time=98
control_change channel=0 control=64 value=0 time=18
note_on channel=0 note=69 velocity=0 time=4
note_on channel=0 note=50 velocity=0 time=0
note_on channel=0 note=66 velocity=0 time=0
note_on channel=0 note=74 velocity=0 time=0
<meta message set_tempo tempo=529474 time=120>
note_on channel=0 note=62 velocity=67 time=0
note_on channel=0 note=50 velocity=55 time=0
control_change channel=0 control=64 value=127 time=83
<meta message set_tempo tempo=546349 time=157>
note_on channel=0 note=81 velocity=74 time=0
note_on channel=0 note=72 velocity=63 time=0
note_on channel=0 note=74 velocity=63 time=0
control_change channel=0 control=64 value=0 time=116
note_on channel=0 note=74 velocity=0 time=4
note_on channel=0 note=81 velocity=0 time=0
note_on channel=0 note=62 velocity=0 time=0
note_on channel=0 note=50 velocity=0 time=0
note_on channel=0 note=72 velocity=0 time=0
<meta message set_tempo tempo=534188 time=120>
note_on channel=0 note=50 velocity=58 time=0
note_on channel=0 note=62 velocity=69 time=0
control_change channel=0 control=64 value=127 time=66
<meta message set_tempo tempo=543872 time=174>
note_on channel=0 note=70 velocity=63 time=0
note_on channel=0 note=74 velocity=63 time=0
note_on channel=0 note=79 velocity=74 time=0
control_change channel=0 control=64 value=0 time=100
note_on channel=0 note=79 velocity=0 time=20
note_on channel=0 note=70 velocity=0 time=0
note_on channel=0 note=50 velocity=0 time=0
note_on channel=0 note=62 velocity=0 time=0
note_on channel=0 note=74 velocity=0 time=0
<meta message set_tempo tempo=551673 time=120>
note_on channel=0 note=50 velocity=57 time=0
note_on channel=0 note=62 velocity=68 time=0
control_change channel=0 control=64 value=127 time=100
<meta message set_tempo tempo=575153 time=140>
note_on channel=0 note=69 velocity=63 time=0
note_on channel=0 note=74 velocity=63 time=0
note_on channel=0 note=78 velocity=74 time=0
<meta message set_tempo tempo=607165 time=120>
note_on channel=0 note=78 velocity=0 time=0
note_on channel=0 note=69 velocity=0 time=0
note_on channel=0 note=50 velocity=0 time=0
note_on channel=0 note=62 velocity=0 time=0
note_on channel=0 note=74 velocity=0 time=0
control_change channel=0 control=64 value=0 time=29
<meta message set_tempo tempo=561693 time=91>
note_on channel=0 note=51 velocity=63 time=0
note_on channel=0 note=63 velocity=75 time=0
note_on channel=0 note=67 velocity=65 time=240
note_on channel=0 note=74 velocity=65 time=0
note_on channel=0 note=79 velocity=78 time=0
note_on channel=0 note=79 velocity=0 time=120
note_on channel=0 note=67 velocity=0 time=0
note_on channel=0 note=74 velocity=0 time=0
<meta message set_tempo tempo=538987 time=120>
note_on channel=0 note=67 velocity=66 time=0
note_on channel=0 note=72 velocity=66 time=0
note_on channel=0 note=79 velocity=79 time=0
<meta message set_tempo tempo=553914 time=120>
note_on channel=0 note=79 velocity=0 time=0
note_on channel=0 note=67 velocity=0 time=0
note_on channel=0 note=72 velocity=0 time=0
note_on channel=0 note=85 velocity=83 time=120
note_on channel=0 note=79 velocity=71 time=0
note_on channel=0 note=73 velocity=71 time=0
<meta message set_tempo tempo=572410 time=80>
note_on channel=0 note=73 velocity=0 time=40
note_on channel=0 note=85 velocity=0 time=0
note_on channel=0 note=79 velocity=0 time=0
<meta message set_tempo tempo=551369 time=120>
note_on channel=0 note=63 velocity=0 time=0
note_on channel=0 note=51 velocity=0 time=0
note_on channel=0 note=50 velocity=60 time=0
note_on channel=0 note=62 velocity=72 time=0
note_on channel=0 note=86 velocity=83 time=240
note_on channel=0 note=81 velocity=83 time=0
note_on channel=0 note=79 velocity=71 time=0
note_on channel=0 note=74 velocity=71 time=0
note_on channel=0 note=74 velocity=0 time=120
note_on channel=0 note=81 velocity=0 time=0
note_on channel=0 note=86 velocity=0 time=0
note_on channel=0 note=79 velocity=0 time=0
<meta message set_tempo tempo=524843 time=120>
note_on channel=0 note=74 velocity=69 time=0
note_on channel=0 note=77 velocity=69 time=0
note_on channel=0 note=81 velocity=69 time=0
note_on channel=0 note=86 velocity=81 time=0
<meta message set_tempo tempo=548847 time=120>
note_on channel=0 note=86 velocity=0 time=0
note_on channel=0 note=77 velocity=0 time=0
note_on channel=0 note=74 velocity=0 time=0
note_on channel=0 note=81 velocity=0 time=0
note_on channel=0 note=65 velocity=66 time=120
note_on channel=0 note=69 velocity=66 time=0
note_on channel=0 note=74 velocity=79 time=0
<meta message set_tempo tempo=595120 time=120>
note_on channel=0 note=74 velocity=0 time=0
note_on channel=0 note=65 velocity=0 time=0
note_on channel=0 note=69 velocity=0 time=0
<meta message set_tempo tempo=548847 time=120>
note_on channel=0 note=62 velocity=0 time=0
note_on channel=0 note=50 velocity=0 time=0
note_on channel=0 note=48 velocity=63 time=0
note_on channel=0 note=60 velocity=75 time=0
note_on channel=0 note=63 velocity=63 time=240
note_on channel=0 note=70 velocity=63 time=0
note_on channel=0 note=75 velocity=74 time=0
note_on channel=0 note=75 velocity=0 time=120
note_on channel=0 note=63 velocity=0 time=0
note_on channel=0 note=70 velocity=0 time=0
<meta message set_tempo tempo=520291 time=120>
note_on channel=0 note=63 velocity=69 time=0
note_on channel=0 note=69 velocity=69 time=0
note_on channel=0 note=75 velocity=81 time=0
<meta message set_tempo tempo=543872 time=120>
note_on channel=0 note=75 velocity=0 time=0
note_on channel=0 note=63 velocity=0 time=0
note_on channel=0 note=69 velocity=0 time=0
note_on channel=0 note=81 velocity=74 time=120
note_on channel=0 note=75 velocity=63 time=0
note_on channel=0 note=69 velocity=63 time=0
<meta message set_tempo tempo=564334 time=80>
note_on channel=0 note=69 velocity=0 time=40
note_on channel=0 note=81 velocity=0 time=0
note_on channel=0 note=75 velocity=0 time=0
<meta message set_tempo tempo=546349 time=120>
note_on channel=0 note=60 velocity=0 time=0
note_on channel=0 note=48 velocity=0 time=0
note_on channel=0 note=58 velocity=68 time=0
note_on channel=0 note=46 velocity=57 time=0
note_on channel=0 note=82 velocity=74 time=240
note_on channel=0 note=77 velocity=63 time=0
note_on channel=0 note=75 velocity=63 time=0
note_on channel=0 note=70 velocity=63 time=0
note_on channel=0 note=70 velocity=0 time=120
note_on channel=0 note=77 velocity=0 time=0
note_on channel=0 note=82 velocity=0 time=0
note_on channel=0 note=75 velocity=0 time=0
<meta message set_tempo tempo=536577 time=120>
note_on channel=0 note=70 velocity=66 time=0
note_on channel=0 note=74 velocity=66 time=0
note_on channel=0 note=77 velocity=66 time=0
note_on channel=0 note=82 velocity=79 time=0
note_on channel=0 note=82 velocity=0 time=120
note_on channel=0 note=74 velocity=0 time=0
note_on channel=0 note=70 velocity=0 time=0
note_on channel=0 note=77 velocity=0 time=0
note_on channel=0 note=46 velocity=0 time=120
note_on channel=0 note=58 velocity=0 time=0
note_on channel=0 note=65 velocity=63 time=0
note_on channel=0 note=72 velocity=74 time=0
note_on channel=0 note=45 velocity=60 time=0
note_on channel=0 note=57 velocity=66 time=0
<meta message set_tempo tempo=564334 time=120>
note_on channel=0 note=72 velocity=0 time=0
note_on channel=0 note=65 velocity=0 time=0
<meta message set_tempo tempo=531821 time=120>
note_on channel=0 note=45 velocity=0 time=0
note_on channel=0 note=57 velocity=0 time=0
note_on channel=0 note=55 velocity=70 time=0
note_on channel=0 note=43 velocity=60 time=0
control_change channel=0 control=64 value=127 time=120
<meta message set_tempo tempo=546349 time=120>
note_on channel=0 note=63 velocity=63 time=0
note_on channel=0 note=70 velocity=63 time=0
note_on channel=0 note=75 velocity=74 time=0
control_change channel=0 control=64 value=0 time=112
note_on channel=0 note=75 velocity=0 time=8
note_on channel=0 note=63 velocity=0 time=0
note_on channel=0 note=70 velocity=0 time=0
<meta message set_tempo tempo=548847 time=120>
note_on channel=0 note=43 velocity=0 time=0
note_on channel=0 note=55 velocity=0 time=0
note_on channel=0 note=51 velocity=55 time=0
note_on channel=0 note=63 velocity=66 time=0
control_change channel=0 control=64 value=127 time=108
note_on channel=0 note=67 velocity=63 time=132
note_on channel=0 note=70 velocity=63 time=0
note_on channel=0 note=72 velocity=74 time=0
control_change channel=0 control=64 value=0 time=116
<meta message set_tempo tempo=561693 time=4>
note_on channel=0 note=72 velocity=0 time=0
note_on channel=0 note=67 velocity=0 time=0
note_on channel=0 note=70 velocity=0 time=0
<meta message set_tempo tempo=536577 time=120>
note_on channel=0 note=63 velocity=0 time=0
note_on channel=0 note=51 velocity=0 time=0
note_on channel=0 note=62 velocity=67 time=0
note_on channel=0 note=50 velocity=56 time=0
control_change channel=0 control=64 value=127 time=112
<meta message set_tempo tempo=556483 time=128>
note_on channel=0 note=65 velocity=65 time=0
note_on channel=0 note=70 velocity=65 time=0
note_on channel=0 note=77 velocity=78 time=0
control_change channel=0 control=64 value=0 time=112
note_on channel=0 note=77 velocity=0 time=8
note_on channel=0 note=65 velocity=0 time=0
note_on channel=0 note=70 velocity=0 time=0
<meta message set_tempo tempo=564334 time=120>
note_on channel=0 note=50 velocity=0 time=0
note_on channel=0 note=62 velocity=0 time=0
note_on channel=0 note=48 velocity=50 time=0
note_on channel=0 note=60 velocity=60 time=0
control_change channel=0 control=64 value=127 time=120
note_on channel=0 note=69 velocity=50 time=120
note_on channel=0 note=75 velocity=66 time=0
note_on channel=0 note=77 velocity=66 time=0
note_on channel=0 note=81 velocity=79 time=0
<meta message set_tempo tempo=607165 time=120>
note_on channel=0 note=81 velocity=0 time=0
note_on channel=0 note=75 velocity=0 time=0
note_on channel=0 note=69 velocity=0 time=0
note_on channel=0 note=77 velocity=0 time=0
control_change channel=0 control=64 value=0 time=21
<meta message set_tempo tempo=577923 time=99>
note_on channel=0 note=48 velocity=0 time=0
note_on channel=0 note=60 velocity=0 time=0
note_on channel=0 note=46 velocity=60 time=0
note_on channel=0 note=58 velocity=70 time=0
<meta message set_tempo tempo=567001 time=240>
note_on channel=0 note=75 velocity=69 time=0
note_on channel=0 note=70 velocity=69 time=0
note_on channel=0 note=77 velocity=69 time=0
note_on channel=0 note=82 velocity=81 time=0
note_on channel=0 note=82 velocity=0 time=240
note_on channel=0 note=70 velocity=0 time=0
note_on channel=0 note=75 velocity=0 time=0
note_on channel=0 note=77 velocity=0 time=0
note_on channel=0 note=74 velocity=67 time=0
note_on channel=0 note=70 velocity=67 time=0
note_on channel=0 note=77 velocity=67 time=0
note_on channel=0 note=82 velocity=80 time=0
note_on channel=0 note=82 velocity=0 time=240
note_on channel=0 note=70 velocity=0 time=0
note_on channel=0 note=74 velocity=0 time=0
note_on channel=0 note=77 velocity=0 time=0
note_on channel=0 note=70 velocity=65 time=0
note_on channel=0 note=74 velocity=65 time=0
note_on channel=0 note=77 velocity=78 time=0
note_on channel=0 note=77 velocity=0 time=240
note_on channel=0 note=70 velocity=0 time=0
note_on channel=0 note=74 velocity=0 time=0
note_on channel=0 note=65 velocity=54 time=0
note_on channel=0 note=70 velocity=54 time=0
note_on channel=0 note=74 velocity=64 time=0
note_on channel=0 note=74 velocity=0 time=240
note_on channel=0 note=65 velocity=0 time=0
note_on channel=0 note=70 velocity=0 time=0
note_on channel=0 note=62 velocity=53 time=0
note_on channel=0 note=65 velocity=53 time=0
note_on channel=0 note=70 velocity=63 time=0
<meta message set_tempo tempo=567001 time=240>
note_on channel=0 note=70 velocity=0 time=0
note_on channel=0 note=62 velocity=0 time=0
note_on channel=0 note=46 velocity=0 time=0
note_on channel=0 note=58 velocity=0 time=0
note_on channel=0 note=65 velocity=0 time=0
note_on channel=0 note=58 velocity=46 time=0
note_on channel=0 note=70 velocity=55 time=0
control_change channel=0 control=64 value=127 time=113
<meta message set_tempo tempo=601082 time=247>
note_on channel=0 note=70 velocity=0 time=0
note_on channel=0 note=58 velocity=0 time=0
note_on channel=0 note=62 velocity=46 time=0
note_on channel=0 note=74 velocity=55 time=0
<meta message set_tempo tempo=561693 time=120>
note_on channel=0 note=74 velocity=0 time=0
note_on channel=0 note=62 velocity=0 time=0
note_on channel=0 note=65 velocity=41 time=0
note_on channel=0 note=77 velocity=55 time=0
note_on channel=0 note=46 velocity=44 time=0
control_change channel=0 control=64 value=0 time=0
note_on channel=0 note=46 velocity=0 time=120
note_on channel=0 note=50 velocity=36 time=0
control_change channel=0 control=64 value=127 time=6
note_on channel=0 note=50 velocity=0 time=114
note_on channel=0 note=53 velocity=36 time=0
note_on channel=0 note=53 velocity=0 time=120
note_on channel=0 note=77 velocity=0 time=0
note_on channel=0 note=65 velocity=0 time=0
note_on channel=0 note=50 velocity=36 time=0
<meta message set_tempo tempo=546349 time=120>
note_on channel=0 note=50 velocity=0 time=0
note_on channel=0 note=65 velocity=44 time=0
note_on channel=0 note=77 velocity=54 time=0
note_on channel=0 note=46 velocity=45 time=0
note_on channel=0 note=46 velocity=0 time=120
note_on channel=0 note=50 velocity=38 time=0
note_on channel=0 note=50 velocity=0 time=120
note_on channel=0 note=53 velocity=38 time=0
note_on channel=0 note=53 velocity=0 time=120
note_on channel=0 note=50 velocity=46 time=0
note_on channel=0 note=77 velocity=0 time=119
note_on channel=0 note=65 velocity=0 time=0
<meta message set_tempo tempo=545901 time=1>
note_on channel=0 note=50 velocity=0 time=0
note_on channel=0 note=66 velocity=53 time=0
note_on channel=0 note=78 velocity=63 time=0
note_on channel=0 note=45 velocity=54 time=0
control_change channel=0 control=64 value=0 time=16
note_on channel=0 note=45 velocity=0 time=104
note_on channel=0 note=48 velocity=45 time=0
control_change channel=0 control=64 value=127 time=6
note_on channel=0 note=48 velocity=0 time=114
note_on channel=0 note=50 velocity=45 time=0
note_on channel=0 note=50 velocity=0 time=120
note_on channel=0 note=48 velocity=48 time=0
note_on channel=0 note=78 velocity=0 time=119
note_on channel=0 note=66 velocity=0 time=0
<meta message set_tempo tempo=551673 time=1>
note_on channel=0 note=48 velocity=0 time=0
note_on channel=0 note=67 velocity=57 time=0
note_on channel=0 note=79 velocity=68 time=0
note_on channel=0 note=43 velocity=57 time=0
control_change channel=0 control=64 value=0 time=15
control_change channel=0 control=64 value=127 time=82
note_on channel=0 note=43 velocity=0 time=23
note_on channel=0 note=48 velocity=49 time=0
note_on channel=0 note=48 velocity=0 time=120
note_on channel=0 note=50 velocity=46 time=0
note_on channel=0 note=50 velocity=0 time=120
note_on channel=0 note=48 velocity=46 time=0
note_on channel=0 note=79 velocity=0 time=119
note_on channel=0 note=67 velocity=0 time=0
<meta message set_tempo tempo=546349 time=1>
note_on channel=0 note=48 velocity=0 time=0
note_on channel=0 note=69 velocity=58 time=0
note_on channel=0 note=81 velocity=71 time=0
note_on channel=0 note=42 velocity=66 time=0
control_change channel=0 control=64 value=0 time=4
control_change channel=0 control=64 value=127 time=105
note_on channel=0 note=42 velocity=0 time=11
note_on channel=0 note=48 velocity=50 time=0
note_on channel=0 note=48 velocity=0 time=120
note_on channel=0 note=50 velocity=54 time=0
note_on channel=0 note=50 velocity=0 time=120
note_on channel=0 note=48 velocity=54 time=0
note_on channel=0 note=81 velocity=0 time=119
note_on channel=0 note=69 velocity=0 time=0
<meta message set_tempo tempo=545901 time=1>
note_on channel=0 note=48 velocity=0 time=0
note_on channel=0 note=72 velocity=60 time=0
note_on channel=0 note=84 velocity=72 time=0
note_on channel=0 note=42 velocity=62 time=0
control_change channel=0 control=64 value=0 time=11
control_change channel=0 control=64 value=127 time=104
note_on channel=0 note=42 velocity=0 time=5
note_on channel=0 note=45 velocity=49 time=0
note_on channel=0 note=45 velocity=0 time=120
note_on channel=0 note=50 velocity=49 time=0
note_on channel=0 note=50 velocity=0 time=120
note_on channel=0 note=45 velocity=49 time=0
note_on channel=0 note=84 velocity=0 time=119
note_on channel=0 note=72 velocity=0 time=0
<meta message set_tempo tempo=551673 time=1>
note_on channel=0 note=45 velocity=0 time=0
note_on channel=0 note=70 velocity=58 time=0
note_on channel=0 note=82 velocity=70 time=0
note_on channel=0 note=43 velocity=58 time=0
control_change channel=0 control=64 value=0 time=11
note_on channel=0 note=43 velocity=0 time=109
note_on channel=0 note=46 velocity=44 time=0
control_change channel=0 control=64 value=127 time=6
note_on channel=0 note=46 velocity=0 time=114
note_on channel=0 note=50 velocity=44 time=0
note_on channel=0 note=50 velocity=0 time=120
note_on channel=0 note=46 velocity=44 time=0
note_on channel=0 note=82 velocity=0 time=119
note_on channel=0 note=70 velocity=0 time=0
<meta message set_tempo tempo=551673 time=1>
note_on channel=0 note=46 velocity=0 time=0
note_on channel=0 note=69 velocity=49 time=0
note_on channel=0 note=81 velocity=58 time=0
note_on channel=0 note=48 velocity=48 time=0
control_change channel=0 control=64 value=0 time=12
note_on channel=0 note=48 velocity=0 time=108
note_on channel=0 note=51 velocity=35 time=0
control_change channel=0 control=64 value=127 time=17
note_on channel=0 note=51 velocity=0 time=103
note_on channel=0 note=57 velocity=35 time=0
<meta message set_tempo tempo=580720 time=120>
note_on channel=0 note=57 velocity=0 time=0
note_on channel=0 note=81 velocity=0 time=0
note_on channel=0 note=69 velocity=0 time=0
note_on channel=0 note=67 velocity=42 time=0
note_on channel=0 note=79 velocity=51 time=0
note_on channel=0 note=51 velocity=36 time=0
<meta message set_tempo tempo=567001 time=120>
note_on channel=0 note=51 velocity=0 time=0
note_on channel=0 note=79 velocity=0 time=0
note_on channel=0 note=67 velocity=0 time=0
note_on channel=0 note=66 velocity=49 time=0
note_on channel=0 note=78 velocity=58 time=0
note_on channel=0 note=50 velocity=50 time=0
control_change channel=0 control=64 value=0 time=4
control_change channel=0 control=64 value=127 time=105
note_on channel=0 note=50 velocity=0 time=11
note_on channel=0 note=57 velocity=39 time=0
note_on channel=0 note=57 velocity=0 time=120
note_on channel=0 note=60 velocity=39 time=0
note_on channel=0 note=60 velocity=0 time=120
note_on channel=0 note=57 velocity=39 time=0
<meta message set_tempo tempo=556483 time=120>
note_on channel=0 note=57 velocity=0 time=0
note_on channel=0 note=78 velocity=0 time=0
note_on channel=0 note=66 velocity=0 time=0
note_on channel=0 note=66 velocity=46 time=0
note_on channel=0 note=78 velocity=55 time=0
note_on channel=0 note=50 velocity=47 time=0
note_on channel=0 note=50 velocity=0 time=120
note_on channel=0 note=57 velocity=39 time=0
note_on channel=0 note=57 velocity=0 time=120
note_on channel=0 note=60 velocity=39 time=0
note_on channel=0 note=60 velocity=0 time=120
note_on channel=0 note=57 velocity=39 time=0
<meta message set_tempo tempo=546349 time=120>
note_on channel=0 note=57 velocity=0 time=0
note_on channel=0 note=78 velocity=0 time=0
note_on channel=0 note=66 velocity=0 time=0
note_on channel=0 note=67 velocity=45 time=0
note_on channel=0 note=79 velocity=53 time=0
note_on channel=0 note=50 velocity=47 time=0
control_change channel=0 control=64 value=0 time=13
control_change channel=0 control=64 value=127 time=90
note_on channel=0 note=50 velocity=0 time=17
note_on channel=0 note=57 velocity=40 time=0
note_on channel=0 note=57 velocity=0 time=120
note_on channel=0 note=79 velocity=0 time=0
note_on channel=0 note=67 velocity=0 time=0
note_on channel=0 note=66 velocity=37 time=0
note_on channel=0 note=78 velocity=45 time=0
note_on channel=0 note=60 velocity=40 time=0
note_on channel=0 note=60 velocity=0 time=120
note_on channel=0 note=57 velocity=40 time=0
<meta message set_tempo tempo=564334 time=120>
note_on channel=0 note=57 velocity=0 time=0
note_on channel=0 note=78 velocity=0 time=0
note_on channel=0 note=66 velocity=0 time=0
note_on channel=0 note=64 velocity=38 time=0
note_on channel=0 note=76 velocity=46 time=0
note_on channel=0 note=50 velocity=44 time=0
note_on channel=0 note=50 velocity=0 time=120
note_on channel=0 note=57 velocity=36 time=0
note_on channel=0 note=57 velocity=0 time=120
note_on channel=0 note=76 velocity=0 time=0
note_on channel=0 note=64 velocity=0 time=0
note_on channel=0 note=66 velocity=37 time=0
note_on channel=0 note=78 velocity=45 time=0
note_on channel=0 note=60 velocity=36 time=0
<meta message set_tempo tempo=613371 time=120>
note_on channel=0 note=60 velocity=0 time=0
note_on channel=0 note=57 velocity=36 time=0
<meta message key_signature key='C' time=120>
<meta message set_tempo tempo=577923 time=0>
<meta message marker text='Teil 5' time=0>
note_on channel=0 note=57 velocity=0 time=0
note_on channel=0 note=78 velocity=0 time=0
note_on channel=0 note=66 velocity=0 time=0
note_on channel=0 note=67 velocity=40 time=0
note_on channel=0 note=79 velocity=48 time=0
note_on channel=0 note=43 velocity=33 time=0
control_change channel=0 control=64 value=0 time=7
control_change channel=0 control=64 value=127 time=89
note_on channel=0 note=43 velocity=0 time=24
note_on channel=0 note=50 velocity=19 time=40
note_on channel=0 note=55 velocity=19 time=0
note_on channel=0 note=59 velocity=23 time=0
note_on channel=0 note=59 velocity=0 time=120
note_on channel=0 note=50 velocity=0 time=0
note_on channel=0 note=55 velocity=0 time=0
note_on channel=0 note=50 velocity=19 time=40
note_on channel=0 note=55 velocity=19 time=0
note_on channel=0 note=59 velocity=23 time=0
note_on channel=0 note=59 velocity=0 time=120
note_on channel=0 note=50 velocity=0 time=0
note_on channel=0 note=55 velocity=0 time=0
<meta message set_tempo tempo=564334 time=40>
note_on channel=0 note=50 velocity=21 time=0
note_on channel=0 note=55 velocity=21 time=0
note_on channel=0 note=59 velocity=25 time=0
note_on channel=0 note=59 velocity=0 time=120
note_on channel=0 note=50 velocity=0 time=0
note_on channel=0 note=55 velocity=0 time=0
note_on channel=0 note=50 velocity=21 time=40
note_on channel=0 note=59 velocity=25 time=0
note_on channel=0 note=55 velocity=21 time=0
note_on channel=0 note=55 velocity=0 time=120
note_on channel=0 note=50 velocity=0 time=0
note_on channel=0 note=59 velocity=0 time=0
note_on channel=0 note=59 velocity=25 time=40
note_on channel=0 note=55 velocity=21 time=0
note_on channel=0 note=50 velocity=21 time=0
note_on channel=0 note=50 velocity=0 time=120
note_on channel=0 note=59 velocity=0 time=0
note_on channel=0 note=55 velocity=0 time=0
<meta message set_tempo tempo=546349 time=40>
note_on channel=0 note=79 velocity=0 time=0
note_on channel=0 note=67 velocity=0 time=0
note_on channel=0 note=72 velocity=53 time=0
note_on channel=0 note=59 velocity=32 time=0
note_on channel=0 note=50 velocity=27 time=0
note_on channel=0 note=55 velocity=27 time=0
control_change channel=0 control=64 value=0 time=0
note_on channel=0 note=55 velocity=0 time=120
note_on channel=0 note=50 velocity=0 time=0
note_on channel=0 note=59 velocity=0 time=0
note_on channel=0 note=59 velocity=24 time=40
note_on channel=0 note=50 velocity=20 time=0
note_on channel=0 note=55 velocity=20 time=0
note_on channel=0 note=71 velocity=53 time=80
note_on channel=0 note=72 velocity=0 time=12
note_on channel=0 note=55 velocity=0 time=28
note_on channel=0 note=59 velocity=0 time=0
note_on channel=0 note=50 velocity=0 time=0
note_on channel=0 note=50 velocity=21 time=40
note_on channel=0 note=59 velocity=25 time=0
note_on channel=0 note=55 velocity=21 time=0
note_on channel=0 note=55 velocity=0 time=120
note_on channel=0 note=59 velocity=0 time=0
note_on channel=0 note=50 velocity=0 time=0
<meta message set_tempo tempo=559076 time=40>
note_on channel=0 note=70 velocity=53 time=0
note_on channel=0 note=59 velocity=33 time=0
note_on channel=0 note=55 velocity=28 time=0
note_on channel=0 note=50 velocity=28 time=0
note_on channel=0 note=71 velocity=0 time=12
note_on channel=0 note=55 velocity=0 time=108
note_on channel=0 note=50 velocity=0 time=0
note_on channel=0 note=59 velocity=0 time=0
note_on channel=0 note=55 velocity=21 time=40
note_on channel=0 note=59 velocity=25 time=0
note_on channel=0 note=50 velocity=21 time=0
note_on channel=0 note=71 velocity=53 time=80
note_on channel=0 note=70 velocity=0 time=12
note_on channel=0 note=50 velocity=0 time=28
note_on channel=0 note=55 velocity=0 time=0
note_on channel=0 note=59 velocity=0 time=0
note_on channel=0 note=59 velocity=25 time=40
note_on channel=0 note=55 velocity=21 time=0
note_on channel=0 note=50 velocity=21 time=0
<meta message set_tempo tempo=507099 time=40>
note_on channel=0 note=50 velocity=0 time=80
note_on channel=0 note=55 velocity=0 time=0
note_on channel=0 note=59 velocity=0 time=0
<meta message set_tempo tempo=534188 time=40>
note_on channel=0 note=71 velocity=0 time=0
note_on channel=0 note=71 velocity=48 time=0
note_on channel=0 note=36 velocity=33 time=0
control_change channel=0 control=64 value=0 time=7
control_change channel=0 control=64 value=127 time=89
<meta message set_tempo tempo=569692 time=24>
note_on channel=0 note=36 velocity=0 time=0
note_on channel=0 note=71 velocity=0 time=0
note_on channel=0 note=76 velocity=48 time=0
note_on channel=0 note=52 velocity=19 time=40
note_on channel=0 note=59 velocity=23 time=0
note_on channel=0 note=48 velocity=19 time=0
note_on channel=0 note=48 velocity=0 time=120
note_on channel=0 note=59 velocity=0 time=0
note_on channel=0 note=52 velocity=0 time=0
note_on channel=0 note=59 velocity=23 time=40
note_on channel=0 note=52 velocity=19 time=0
note_on channel=0 note=48 velocity=19 time=0
note_on channel=0 note=48 velocity=0 time=120
note_on channel=0 note=52 velocity=0 time=0
note_on channel=0 note=59 velocity=0 time=0
<meta message set_tempo tempo=564334 time=40>
note_on channel=0 note=56 velocity=30 time=0
note_on channel=0 note=48 velocity=25 time=0
note_on channel=0 note=52 velocity=25 time=0
note_on channel=0 note=52 velocity=0 time=120
note_on channel=0 note=48 velocity=0 time=0
note_on channel=0 note=56 velocity=0 time=0
note_on channel=0 note=52 velocity=21 time=40
note_on channel=0 note=48 velocity=21 time=0
note_on channel=0 note=56 velocity=25 time=0
note_on channel=0 note=56 velocity=0 time=120
note_on channel=0 note=48 velocity=0 time=0
note_on channel=0 note=52 velocity=0 time=0
note_on channel=0 note=48 velocity=21 time=40
note_on channel=0 note=56 velocity=25 time=0
note_on channel=0 note=52 velocity=21 time=0
note_on channel=0 note=52 velocity=0 time=120
note_on channel=0 note=56 velocity=0 time=0
note_on channel=0 note=48 velocity=0 time=0
<meta message set_tempo tempo=546349 time=40>
note_on channel=0 note=76 velocity=0 time=0
note_on channel=0 note=71 velocity=53 time=0
note_on channel=0 note=48 velocity=27 time=0
note_on channel=0 note=57 velocity=32 time=0
note_on channel=0 note=52 velocity=27 time=0
control_change channel=0 control=64 value=0 time=0
note_on channel=0 note=52 velocity=0 time=120
note_on channel=0 note=57 velocity=0 time=0
note_on channel=0 note=48 velocity=0 time=0
note_on channel=0 note=48 velocity=20 time=40
note_on channel=0 note=52 velocity=20 time=0
note_on channel=0 note=57 velocity=24 time=0
note_on channel=0 note=69 velocity=53 time=80
note_on channel=0 note=71 velocity=0 time=12
note_on channel=0 note=57 velocity=0 time=28
note_on channel=0 note=48 velocity=0 time=0
note_on channel=0 note=52 velocity=0 time=0
note_on channel=0 note=57 velocity=25 time=40
note_on channel=0 note=48 velocity=21 time=0
note_on channel=0 note=52 velocity=21 time=0
note_on channel=0 note=52 velocity=0 time=120
note_on channel=0 note=48 velocity=0 time=0
note_on channel=0 note=57 velocity=0 time=0
<meta message set_tempo tempo=559076 time=40>
note_on channel=0 note=68 velocity=53 time=0
note_on channel=0 note=48 velocity=28 time=0
note_on channel=0 note=57 velocity=33 time=0
note_on channel=0 note=52 velocity=28 time=0
note_on channel=0 note=69 velocity=0 time=12
note_on channel=0 note=57 velocity=0 time=108
note_on channel=0 note=52 velocity=0 time=0
note_on channel=0 note=48 velocity=0 time=0
note_on channel=0 note=48 velocity=21 time=40
note_on channel=0 note=52 velocity=21 time=0
note_on channel=0 note=57 velocity=25 time=0
note_on channel=0 note=69 velocity=53 time=80
note_on channel=0 note=68 velocity=0 time=12
note_on channel=0 note=57 velocity=0 time=28
note_on channel=0 note=48 velocity=0 time=0
note_on channel=0 note=52 velocity=0 time=0
note_on channel=0 note=52 velocity=21 time=40
note_on channel=0 note=48 velocity=21 time=0
note_on channel=0 note=57 velocity=25 time=0
<meta message set_tempo tempo=515818 time=40>
note_on channel=0 note=57 velocity=0 time=80
note_on channel=0 note=48 velocity=0 time=0
note_on channel=0 note=52 velocity=0 time=0
<meta message set_tempo tempo=522557 time=40>
note_on channel=0 note=69 velocity=0 time=0
note_on channel=0 note=69 velocity=48 time=0
note_on channel=0 note=35 velocity=33 time=0
control_change channel=0 control=64 value=0 time=7
control_change channel=0 control=64 value=127 time=89
<meta message set_tempo tempo=577923 time=24>
note_on channel=0 note=35 velocity=0 time=0
note_on channel=0 note=69 velocity=0 time=0
note_on channel=0 note=74 velocity=48 time=0
note_on channel=0 note=47 velocity=19 time=40
note_on channel=0 note=50 velocity=19 time=0
note_on channel=0 note=57 velocity=23 time=0
note_on channel=0 note=57 velocity=0 time=120
note_on channel=0 note=50 velocity=0 time=0
note_on channel=0 note=47 velocity=0 time=0
note_on channel=0 note=50 velocity=19 time=40
note_on channel=0 note=47 velocity=19 time=0
note_on channel=0 note=57 velocity=23 time=0
note_on channel=0 note=57 velocity=0 time=120
note_on channel=0 note=47 velocity=0 time=0
note_on channel=0 note=50 velocity=0 time=0
<meta message set_tempo tempo=564334 time=40>
note_on channel=0 note=47 velocity=25 time=0
note_on channel=0 note=54 velocity=30 time=0
note_on channel=0 note=50 velocity=25 time=0
note_on channel=0 note=50 velocity=0 time=120
note_on channel=0 note=54 velocity=0 time=0
note_on channel=0 note=47 velocity=0 time=0
note_on channel=0 note=54 velocity=25 time=40
note_on channel=0 note=50 velocity=21 time=0
note_on channel=0 note=47 velocity=21 time=0
note_on channel=0 note=47 velocity=0 time=120
note_on channel=0 note=50 velocity=0 time=0
note_on channel=0 note=54 velocity=0 time=0
note_on channel=0 note=47 velocity=21 time=40
note_on channel=0 note=50 velocity=21 time=0
note_on channel=0 note=54 velocity=25 time=0
note_on channel=0 note=54 velocity=0 time=120
note_on channel=0 note=50 velocity=0 time=0
note_on channel=0 note=47 velocity=0 time=0
<meta message set_tempo tempo=546349 time=40>
note_on channel=0 note=74 velocity=0 time=0
note_on channel=0 note=72 velocity=58 time=0
note_on channel=0 note=55 velocity=35 time=0
note_on channel=0 note=50 velocity=29 time=0
note_on channel=0 note=47 velocity=29 time=0
control_change channel=0 control=64 value=0 time=15
note_on channel=0 note=47 velocity=0 time=105
note_on channel=0 note=50 velocity=0 time=0
note_on channel=0 note=55 velocity=0 time=0
note_on channel=0 note=50 velocity=22 time=40
note_on channel=0 note=47 velocity=22 time=0
note_on channel=0 note=55 velocity=27 time=0
note_on channel=0 note=71 velocity=60 time=80
note_on channel=0 note=72 velocity=0 time=12
note_on channel=0 note=55 velocity=0 time=28
note_on channel=0 note=50 velocity=0 time=0
note_on channel=0 note=47 velocity=0 time=0
note_on channel=0 note=50 velocity=24 time=40
note_on channel=0 note=55 velocity=29 time=0
note_on channel=0 note=47 velocity=24 time=0
note_on channel=0 note=47 velocity=0 time=120
note_on channel=0 note=55 velocity=0 time=0
note_on channel=0 note=50 velocity=0 time=0
<meta message set_tempo tempo=559076 time=40>
note_on channel=0 note=69 velocity=63 time=0
note_on channel=0 note=47 velocity=33 time=0
note_on channel=0 note=55 velocity=39 time=0
note_on channel=0 note=50 velocity=33 time=0
note_on channel=0 note=71 velocity=0 time=12
note_on channel=0 note=55 velocity=0 time=108
note_on channel=0 note=50 velocity=0 time=0
note_on channel=0 note=47 velocity=0 time=0
note_on channel=0 note=47 velocity=25 time=40
note_on channel=0 note=55 velocity=30 time=0
note_on channel=0 note=50 velocity=25 time=0
note_on channel=0 note=67 velocity=66 time=80
note_on channel=0 note=69 velocity=0 time=12
note_on channel=0 note=50 velocity=0 time=28
note_on channel=0 note=47 velocity=0 time=0
note_on channel=0 note=55 velocity=0 time=0
note_on channel=0 note=50 velocity=26 time=40
note_on channel=0 note=47 velocity=26 time=0
note_on channel=0 note=55 velocity=31 time=0
<meta message set_tempo tempo=619707 time=40>
note_on channel=0 note=55 velocity=0 time=80
note_on channel=0 note=47 velocity=0 time=0
note_on channel=0 note=50 velocity=0 time=0
<meta message set_tempo tempo=536577 time=40>
note_on channel=0 note=67 velocity=0 time=0
note_on channel=0 note=66 velocity=57 time=0
note_on channel=0 note=74 velocity=68 time=0
note_on channel=0 note=36 velocity=42 time=0
control_change channel=0 control=64 value=127 time=53
note_on channel=0 note=36 velocity=0 time=67
note_on channel=0 note=52 velocity=30 time=40
note_on channel=0 note=48 velocity=25 time=0
note_on channel=0 note=74 velocity=0 time=80
note_on channel=0 note=66 velocity=0 time=0
note_on channel=0 note=64 velocity=56 time=0
note_on channel=0 note=72 velocity=66 time=0
note_on channel=0 note=52 velocity=0 time=40
note_on channel=0 note=48 velocity=0 time=0
note_on channel=0 note=52 velocity=31 time=40
note_on channel=0 note=48 velocity=26 time=0
note_on channel=0 note=48 velocity=0 time=120
note_on channel=0 note=52 velocity=0 time=0
<meta message set_tempo tempo=546349 time=40>
note_on channel=0 note=64 velocity=0 time=0
note_on channel=0 note=72 velocity=0 time=0
note_on channel=0 note=62 velocity=53 time=0
note_on channel=0 note=71 velocity=63 time=0
note_on channel=0 note=48 velocity=33 time=0
note_on channel=0 note=52 velocity=39 time=0
note_on channel=0 note=52 velocity=0 time=120
note_on channel=0 note=48 velocity=0 time=0
note_on channel=0 note=48 velocity=24 time=40
note_on channel=0 note=52 velocity=29 time=0
note_on channel=0 note=71 velocity=0 time=80
note_on channel=0 note=62 velocity=0 time=0
note_on channel=0 note=60 velocity=51 time=0
note_on channel=0 note=69 velocity=60 time=0
note_on channel=0 note=48 velocity=0 time=40
note_on channel=0 note=52 velocity=0 time=0
note_on channel=0 note=52 velocity=28 time=40
note_on channel=0 note=48 velocity=23 time=0
<meta message set_tempo tempo=619707 time=40>
note_on channel=0 note=48 velocity=0 time=80
note_on channel=0 note=52 velocity=0 time=0
<meta message set_tempo tempo=546349 time=40>
note_on channel=0 note=60 velocity=0 time=0
note_on channel=0 note=69 velocity=0 time=0
note_on channel=0 note=59 velocity=49 time=0
note_on channel=0 note=67 velocity=58 time=0
note_on channel=0 note=38 velocity=36 time=0
control_change channel=0 control=64 value=0 time=18
control_change channel=0 control=64 value=127 time=70
note_on channel=0 note=38 velocity=0 time=32
note_on channel=0 note=50 velocity=21 time=40
note_on channel=0 note=55 velocity=26 time=0
note_on channel=0 note=55 velocity=0 time=120
note_on channel=0 note=50 velocity=0 time=0
note_on channel=0 note=55 velocity=26 time=40
note_on channel=0 note=50 velocity=22 time=0
<meta message set_tempo tempo=653452 time=40>
note_on channel=0 note=50 velocity=0 time=80
note_on channel=0 note=55 velocity=0 time=0
<meta message set_tempo tempo=559076 time=40>
note_on channel=0 note=67 velocity=0 time=0
note_on channel=0 note=59 velocity=0 time=0
note_on channel=0 note=62 velocity=55 time=0
note_on channel=0 note=71 velocity=55 time=0
note_on channel=0 note=38 velocity=34 time=0
control_change channel=0 control=64 value=0 time=14
control_change channel=0 control=64 value=127 time=67
note_on channel=0 note=38 velocity=0 time=39
note_on channel=0 note=50 velocity=21 time=40
note_on channel=0 note=54 velocity=26 time=0
note_on channel=0 note=54 velocity=0 time=120
note_on channel=0 note=50 velocity=0 time=0
note_on channel=0 note=50 velocity=21 time=40
note_on channel=0 note=54 velocity=25 time=0
<meta message set_tempo tempo=619707 time=40>
note_on channel=0 note=71 velocity=0 time=0
note_on channel=0 note=62 velocity=0 time=0
note_on channel=0 note=60 velocity=54 time=0
note_on channel=0 note=69 velocity=54 time=0
note_on channel=0 note=50 velocity=0 time=80
note_on channel=0 note=54 velocity=0 time=0
<meta message set_tempo tempo=577923 time=40>
note_on channel=0 note=60 velocity=0 time=0
note_on channel=0 note=69 velocity=0 time=0
note_on channel=0 note=59 velocity=40 time=0
note_on channel=0 note=67 velocity=48 time=0
note_on channel=0 note=43 velocity=33 time=0
control_change channel=0 control=64 value=0 time=7
control_change channel=0 control=64 value=127 time=89
note_on channel=0 note=43 velocity=0 time=24
note_on channel=0 note=59 velocity=23 time=40
note_on channel=0 note=50 velocity=19 time=0
note_on channel=0 note=55 velocity=19 time=0
note_on channel=0 note=55 velocity=0 time=120
note_on channel=0 note=59 velocity=0 time=0
note_on channel=0 note=50 velocity=0 time=0
note_on channel=0 note=55 velocity=19 time=40
note_on channel=0 note=59 velocity=23 time=0
note_on channel=0 note=50 velocity=19 time=0
note_on channel=0 note=50 velocity=0 time=120
note_on channel=0 note=55 velocity=0 time=0
note_on channel=0 note=59 velocity=0 time=0
<meta message set_tempo tempo=564334 time=40>
note_on channel=0 note=67 velocity=0 time=0
note_on channel=0 note=59 velocity=0 time=0
note_on channel=0 note=59 velocity=25 time=0
note_on channel=0 note=50 velocity=21 time=0
note_on channel=0 note=55 velocity=21 time=0
note_on channel=0 note=55 velocity=0 time=120
note_on channel=0 note=50 velocity=0 time=0
note_on channel=0 note=59 velocity=0 time=0
note_on channel=0 note=59 velocity=25 time=40
note_on channel=0 note=55 velocity=21 time=0
note_on channel=0 note=50 velocity=21 time=0
note_on channel=0 note=50 velocity=0 time=120
note_on channel=0 note=55 velocity=0 time=0
note_on channel=0 note=59 velocity=0 time=0
note_on channel=0 note=59 velocity=25 time=40
note_on channel=0 note=50 velocity=21 time=0
note_on channel=0 note=55 velocity=21 time=0
note_on channel=0 note=55 velocity=0 time=120
note_on channel=0 note=50 velocity=0 time=0
note_on channel=0 note=59 velocity=0 time=0
<meta message set_tempo tempo=546349 time=40>
note_on channel=0 note=72 velocity=53 time=0
note_on channel=0 note=59 velocity=32 time=0
note_on channel=0 note=50 velocity=27 time=0
note_on channel=0 note=55 velocity=27 time=0
control_change channel=0 control=64 value=0 time=0
note_on channel=0 note=55 velocity=0 time=120
note_on channel=0 note=50 velocity=0 time=0
note_on channel=0 note=59 velocity=0 time=0
note_on channel=0 note=55 velocity=20 time=40
note_on channel=0 note=59 velocity=24 time=0
note_on channel=0 note=50 velocity=20 time=0
note_on channel=0 note=71 velocity=53 time=80
note_on channel=0 note=72 velocity=0 time=12
note_on channel=0 note=50 velocity=0 time=28
note_on channel=0 note=55 velocity=0 time=0
note_on channel=0 note=59 velocity=0 time=0
note_on channel=0 note=50 velocity=21 time=40
note_on channel=0 note=55 velocity=21 time=0
note_on channel=0 note=59 velocity=25 time=0
note_on channel=0 note=59 velocity=0 time=120
note_on channel=0 note=55 velocity=0 time=0
note_on channel=0 note=50 velocity=0 time=0
<meta message set_tempo tempo=559076 time=40>
note_on channel=0 note=70 velocity=53 time=0
note_on channel=0 note=59 velocity=33 time=0
note_on channel=0 note=55 velocity=28 time=0
note_on channel=0 note=50 velocity=28 time=0
note_on channel=0 note=71 velocity=0 time=12
note_on channel=0 note=55 velocity=0 time=108
note_on channel=0 note=50 velocity=0 time=0
note_on channel=0 note=59 velocity=0 time=0
note_on channel=0 note=50 velocity=21 time=40
note_on channel=0 note=55 velocity=21 time=0
note_on channel=0 note=59 velocity=25 time=0
note_on channel=0 note=71 velocity=53 time=80
note_on channel=0 note=70 velocity=0 time=12
note_on channel=0 note=59 velocity=0 time=28
note_on channel=0 note=50 velocity=0 time=0
note_on channel=0 note=55 velocity=0 time=0
note_on channel=0 note=50 velocity=21 time=40
note_on channel=0 note=59 velocity=25 time=0
note_on channel=0 note=55 velocity=21 time=0
<meta message set_tempo tempo=598086 time=40>
note_on channel=0 note=55 velocity=0 time=80
note_on channel=0 note=59 velocity=0 time=0
note_on channel=0 note=50 velocity=0 time=0
<meta message set_tempo tempo=561693 time=40>
note_on channel=0 note=71 velocity=0 time=0
note_on channel=0 note=83 velocity=53 time=0
note_on channel=0 note=76 velocity=48 time=0
note_on channel=0 note=36 velocity=33 time=0
control_change channel=0 control=64 value=0 time=7
<meta message set_tempo tempo=569692 time=113>
note_on channel=0 note=36 velocity=0 time=0
note_on channel=0 note=48 velocity=19 time=40
note_on channel=0 note=52 velocity=19 time=0
note_on channel=0 note=59 velocity=23 time=0
note_on channel=0 note=81 velocity=53 time=80
note_on channel=0 note=83 velocity=0 time=12
note_on channel=0 note=59 velocity=0 time=28
note_on channel=0 note=52 velocity=0 time=0
note_on channel=0 note=48 velocity=0 time=0
note_on channel=0 note=59 velocity=23 time=40
note_on channel=0 note=52 velocity=19 time=0
note_on channel=0 note=48 velocity=19 time=0
note_on channel=0 note=48 velocity=0 time=120
note_on channel=0 note=59 velocity=0 time=0
note_on channel=0 note=52 velocity=0 time=0
<meta message set_tempo tempo=564334 time=40>
note_on channel=0 note=80 velocity=53 time=0
note_on channel=0 note=48 velocity=25 time=0
note_on channel=0 note=59 velocity=30 time=0
note_on channel=0 note=52 velocity=25 time=0
note_on channel=0 note=81 velocity=0 time=12
note_on channel=0 note=59 velocity=0 time=108
note_on channel=0 note=48 velocity=0 time=0
note_on channel=0 note=52 velocity=0 time=0
note_on channel=0 note=52 velocity=21 time=40
note_on channel=0 note=59 velocity=25 time=0
note_on channel=0 note=48 velocity=21 time=0
note_on channel=0 note=81 velocity=53 time=80
note_on channel=0 note=80 velocity=0 time=12
note_on channel=0 note=48 velocity=0 time=28
note_on channel=0 note=59 velocity=0 time=0
note_on channel=0 note=52 velocity=0 time=0
note_on channel=0 note=52 velocity=21 time=40
note_on channel=0 note=48 velocity=21 time=0
note_on channel=0 note=59 velocity=25 time=0
note_on channel=0 note=59 velocity=0 time=120
note_on channel=0 note=52 velocity=0 time=0
note_on channel=0 note=48 velocity=0 time=0
<meta message set_tempo tempo=546349 time=40>
note_on channel=0 note=76 velocity=0 time=0
note_on channel=0 note=81 velocity=0 time=0
note_on channel=0 note=71 velocity=53 time=0
note_on channel=0 note=57 velocity=32 time=0
note_on channel=0 note=52 velocity=27 time=0
note_on channel=0 note=48 velocity=27 time=0
note_on channel=0 note=48 velocity=0 time=120
note_on channel=0 note=52 velocity=0 time=0
note_on channel=0 note=57 velocity=0 time=0
note_on channel=0 note=52 velocity=20 time=40
note_on channel=0 note=57 velocity=24 time=0
note_on channel=0 note=48 velocity=20 time=0
note_on channel=0 note=69 velocity=53 time=80
note_on channel=0 note=71 velocity=0 time=12
note_on channel=0 note=48 velocity=0 time=28
note_on channel=0 note=52 velocity=0 time=0
note_on channel=0 note=57 velocity=0 time=0
note_on channel=0 note=52 velocity=21 time=40
note_on channel=0 note=57 velocity=25 time=0
note_on channel=0 note=48 velocity=21 time=0
note_on channel=0 note=48 velocity=0 time=120
note_on channel=0 note=57 velocity=0 time=0
note_on channel=0 note=52 velocity=0 time=0
<meta message set_tempo tempo=559076 time=40>
note_on channel=0 note=68 velocity=53 time=0
note_on channel=0 note=52 velocity=28 time=0
note_on channel=0 note=57 velocity=33 time=0
note_on channel=0 note=48 velocity=28 time=0
note_on channel=0 note=69 velocity=0 time=12
note_on channel=0 note=57 velocity=0 time=108
note_on channel=0 note=48 velocity=0 time=0
note_on channel=0 note=52 velocity=0 time=0
note_on channel=0 note=52 velocity=21 time=40
note_on channel=0 note=48 velocity=21 time=0
note_on channel=0 note=57 velocity=25 time=0
note_on channel=0 note=69 velocity=53 time=80
note_on channel=0 note=68 velocity=0 time=12
note_on channel=0 note=57 velocity=0 time=28
note_on channel=0 note=52 velocity=0 time=0
note_on channel=0 note=48 velocity=0 time=0
note_on channel=0 note=48 velocity=21 time=40
note_on channel=0 note=57 velocity=25 time=0
note_on channel=0 note=52 velocity=21 time=0
<meta message set_tempo tempo=577923 time=40>
note_on channel=0 note=52 velocity=0 time=80
note_on channel=0 note=57 velocity=0 time=0
note_on channel=0 note=48 velocity=0 time=0
<meta message set_tempo tempo=564334 time=40>
note_on channel=0 note=69 velocity=0 time=0
note_on channel=0 note=81 velocity=58 time=0
note_on channel=0 note=74 velocity=48 time=0
note_on channel=0 note=35 velocity=33 time=0
<meta message set_tempo tempo=577923 time=120>
note_on channel=0 note=35 velocity=0 time=0
note_on channel=0 note=57 velocity=23 time=40
note_on channel=0 note=50 velocity=19 time=0
note_on channel=0 note=47 velocity=19 time=0
note_on channel=0 note=81 velocity=0 time=80
note_on channel=0 note=79 velocity=60 time=0
note_on channel=0 note=50 velocity=0 time=40
note_on channel=0 note=47 velocity=0 time=0
note_on channel=0 note=57 velocity=0 time=0
note_on channel=0 note=57 velocity=23 time=40
note_on channel=0 note=47 velocity=19 time=0
note_on channel=0 note=50 velocity=19 time=0
note_on channel=0 note=50 velocity=0 time=120
note_on channel=0 note=57 velocity=0 time=0
note_on channel=0 note=47 velocity=0 time=0
<meta message set_tempo tempo=564334 time=40>
note_on channel=0 note=79 velocity=0 time=0
note_on channel=0 note=78 velocity=63 time=0
note_on channel=0 note=50 velocity=25 time=0
note_on channel=0 note=57 velocity=30 time=0
note_on channel=0 note=47 velocity=25 time=0
note_on channel=0 note=47 velocity=0 time=120
note_on channel=0 note=50 velocity=0 time=0
note_on channel=0 note=57 velocity=0 time=0
note_on channel=0 note=50 velocity=21 time=40
note_on channel=0 note=47 velocity=21 time=0
note_on channel=0 note=57 velocity=25 time=0
note_on channel=0 note=78 velocity=0 time=80
note_on channel=0 note=79 velocity=66 time=0
note_on channel=0 note=47 velocity=0 time=40
note_on channel=0 note=57 velocity=0 time=0
note_on channel=0 note=50 velocity=0 time=0
note_on channel=0 note=57 velocity=25 time=40
note_on channel=0 note=47 velocity=21 time=0
note_on channel=0 note=50 velocity=21 time=0
note_on channel=0 note=50 velocity=0 time=120
note_on channel=0 note=57 velocity=0 time=0
note_on channel=0 note=47 velocity=0 time=0
<meta message set_tempo tempo=546349 time=40>
note_on channel=0 note=74 velocity=0 time=0
note_on channel=0 note=79 velocity=0 time=0
note_on channel=0 note=72 velocity=58 time=0
note_on channel=0 note=50 velocity=29 time=0
note_on channel=0 note=47 velocity=29 time=0
note_on channel=0 note=55 velocity=35 time=0
note_on channel=0 note=55 velocity=0 time=120
note_on channel=0 note=47 velocity=0 time=0
note_on channel=0 note=50 velocity=0 time=0
note_on channel=0 note=55 velocity=27 time=40
note_on channel=0 note=47 velocity=22 time=0
note_on channel=0 note=50 velocity=22 time=0
note_on channel=0 note=71 velocity=60 time=80
note_on channel=0 note=72 velocity=0 time=12
note_on channel=0 note=50 velocity=0 time=28
note_on channel=0 note=55 velocity=0 time=0
note_on channel=0 note=47 velocity=0 time=0
note_on channel=0 note=50 velocity=24 time=40
note_on channel=0 note=47 velocity=24 time=0
note_on channel=0 note=55 velocity=29 time=0
note_on channel=0 note=55 velocity=0 time=120
note_on channel=0 note=47 velocity=0 time=0
note_on channel=0 note=50 velocity=0 time=0
<meta message set_tempo tempo=559076 time=40>
note_on channel=0 note=69 velocity=63 time=0
note_on channel=0 note=50 velocity=33 time=0
note_on channel=0 note=55 velocity=39 time=0
note_on channel=0 note=47 velocity=33 time=0
note_on channel=0 note=71 velocity=0 time=12
note_on channel=0 note=55 velocity=0 time=108
note_on channel=0 note=47 velocity=0 time=0
note_on channel=0 note=50 velocity=0 time=0
note_on channel=0 note=50 velocity=25 time=40
note_on channel=0 note=47 velocity=25 time=0
note_on channel=0 note=55 velocity=30 time=0
note_on channel=0 note=67 velocity=66 time=80
note_on channel=0 note=69 velocity=0 time=12
note_on channel=0 note=55 velocity=0 time=28
note_on channel=0 note=50 velocity=0 time=0
note_on channel=0 note=47 velocity=0 time=0
note_on channel=0 note=50 velocity=26 time=40
note_on channel=0 note=55 velocity=31 time=0
note_on channel=0 note=47 velocity=26 time=0
<meta message set_tempo tempo=619707 time=40>
note_on channel=0 note=47 velocity=0 time=80
note_on channel=0 note=55 velocity=0 time=0
note_on channel=0 note=50 velocity=0 time=0
<meta message set_tempo tempo=536577 time=40>
note_on channel=0 note=67 velocity=0 time=0
note_on channel=0 note=74 velocity=57 time=0
note_on channel=0 note=66 velocity=57 time=0
note_on channel=0 note=78 velocity=68 time=0
note_on channel=0 note=36 velocity=42 time=0
control_change channel=0 control=64 value=127 time=53
note_on channel=0 note=36 velocity=0 time=67
note_on channel=0 note=55 velocity=30 time=40
note_on channel=0 note=48 velocity=25 time=0
note_on channel=0 note=52 velocity=25 time=0
note_on channel=0 note=74 velocity=0 time=80
note_on channel=0 note=78 velocity=0 time=0
note_on channel=0 note=66 velocity=0 time=0
note_on channel=0 note=72 velocity=56 time=0
note_on channel=0 note=64 velocity=56 time=0
note_on channel=0 note=76 velocity=66 time=0
note_on channel=0 note=55 velocity=0 time=40
note_on channel=0 note=52 velocity=0 time=0
note_on channel=0 note=48 velocity=0 time=0
note_on channel=0 note=52 velocity=26 time=40
note_on channel=0 note=55 velocity=31 time=0
note_on channel=0 note=48 velocity=26 time=0
note_on channel=0 note=48 velocity=0 time=120
note_on channel=0 note=52 velocity=0 time=0
note_on channel=0 note=55 velocity=0 time=0
<meta message set_tempo tempo=546349 time=40>
note_on channel=0 note=76 velocity=0 time=0
note_on channel=0 note=72 velocity=0 time=0
note_on channel=0 note=64 velocity=0 time=0
note_on channel=0 note=71 velocity=53 time=0
note_on channel=0 note=62 velocity=53 time=0
note_on channel=0 note=74 velocity=63 time=0
note_on channel=0 note=52 velocity=33 time=0
note_on channel=0 note=56 velocity=39 time=0
note_on channel=0 note=48 velocity=33 time=0
control_change channel=0 control=64 value=0 time=4
control_change channel=0 control=64 value=127 time=46
note_on channel=0 note=48 velocity=0 time=70
note_on channel=0 note=52 velocity=0 time=0
note_on channel=0 note=56 velocity=0 time=0
note_on channel=0 note=52 velocity=24 time=40
note_on channel=0 note=48 velocity=24 time=0
note_on channel=0 note=56 velocity=29 time=0
note_on channel=0 note=71 velocity=0 time=80
note_on channel=0 note=62 velocity=0 time=0
note_on channel=0 note=74 velocity=0 time=0
note_on channel=0 note=69 velocity=51 time=0
note_on channel=0 note=60 velocity=51 time=0
note_on channel=0 note=72 velocity=60 time=0
note_on channel=0 note=52 velocity=0 time=40
note_on channel=0 note=56 velocity=0 time=0
note_on channel=0 note=48 velocity=0 time=0
note_on channel=0 note=57 velocity=28 time=40
note_on channel=0 note=48 velocity=23 time=0
note_on channel=0 note=52 velocity=23 time=0
<meta message set_tempo tempo=619707 time=40>
note_on channel=0 note=52 velocity=0 time=80
note_on channel=0 note=57 velocity=0 time=0
note_on channel=0 note=48 velocity=0 time=0
<meta message set_tempo tempo=546349 time=40>
note_on channel=0 note=72 velocity=0 time=0
note_on channel=0 note=69 velocity=0 time=0
note_on channel=0 note=60 velocity=0 time=0
note_on channel=0 note=71 velocity=58 time=0
note_on channel=0 note=59 velocity=49 time=0
note_on channel=0 note=67 velocity=49 time=0
note_on channel=0 note=38 velocity=36 time=0
control_change channel=0 control=64 value=0 time=18
control_change channel=0 control=64 value=127 time=70
note_on channel=0 note=38 velocity=0 time=32
note_on channel=0 note=50 velocity=21 time=40
note_on channel=0 note=55 velocity=26 time=0
note_on channel=0 note=55 velocity=0 time=120
note_on channel=0 note=50 velocity=0 time=0
note_on channel=0 note=50 velocity=22 time=40
note_on channel=0 note=55 velocity=26 time=0
<meta message set_tempo tempo=653452 time=40>
note_on channel=0 note=55 velocity=0 time=80
note_on channel=0 note=50 velocity=0 time=0
<meta message set_tempo tempo=559076 time=40>
note_on channel=0 note=71 velocity=0 time=0
note_on channel=0 note=59 velocity=0 time=0
note_on channel=0 note=67 velocity=0 time=0
note_on channel=0 note=60 velocity=46 time=0
note_on channel=0 note=66 velocity=46 time=0
note_on channel=0 note=72 velocity=55 time=0
note_on channel=0 note=38 velocity=34 time=0
control_change channel=0 control=64 value=0 time=14
control_change channel=0 control=64 value=127 time=67
note_on channel=0 note=38 velocity=0 time=39
note_on channel=0 note=54 velocity=21 time=40
note_on channel=0 note=57 velocity=26 time=0
note_on channel=0 note=50 velocity=21 time=0
note_on channel=0 note=50 velocity=0 time=120
note_on channel=0 note=54 velocity=0 time=0
note_on channel=0 note=57 velocity=0 time=0
note_on channel=0 note=54 velocity=21 time=40
note_on channel=0 note=57 velocity=25 time=0
note_on channel=0 note=50 velocity=21 time=0
<meta message set_tempo tempo=619707 time=40>
note_on channel=0 note=72 velocity=0 time=0
note_on channel=0 note=69 velocity=54 time=0
note_on channel=0 note=57 velocity=0 time=80
note_on channel=0 note=54 velocity=0 time=0
note_on channel=0 note=50 velocity=0 time=0
<meta message set_tempo tempo=568720 time=40>
note_on channel=0 note=60 velocity=0 time=0
note_on channel=0 note=66 velocity=0 time=0
note_on channel=0 note=69 velocity=0 time=0
note_on channel=0 note=67 velocity=39 time=0
note_on channel=0 note=55 velocity=39 time=0
note_on channel=0 note=43 velocity=48 time=0
note_on channel=0 note=50 velocity=48 time=0
note_on channel=0 note=55 velocity=48 time=0
control_change channel=0 control=64 value=0 time=0
note_on channel=0 note=55 velocity=0 time=120
note_on channel=0 note=67 velocity=0 time=0
note_on channel=0 note=55 velocity=22 time=40
note_on channel=0 note=67 velocity=27 time=0
note_on channel=0 note=67 velocity=0 time=120
note_on channel=0 note=55 velocity=0 time=0
note_on channel=0 note=55 velocity=22 time=40
note_on channel=0 note=67 velocity=27 time=0
note_on channel=0 note=67 velocity=0 time=120
note_on channel=0 note=55 velocity=0 time=0
note_on channel=0 note=50 velocity=0 time=40
note_on channel=0 note=43 velocity=0 time=0
note_on channel=0 note=55 velocity=0 time=0
note_on channel=0 note=55 velocity=25 time=0
note_on channel=0 note=67 velocity=30 time=0
note_on channel=0 note=67 velocity=0 time=120
note_on channel=0 note=55 velocity=0 time=0
note_on channel=0 note=55 velocity=25 time=40
note_on channel=0 note=67 velocity=30 time=0
note_on channel=0 note=67 velocity=0 time=120
note_on channel=0 note=55 velocity=0 time=0
note_on channel=0 note=55 velocity=25 time=40
note_on channel=0 note=67 velocity=30 time=0
note_on channel=0 note=67 velocity=0 time=120
note_on channel=0 note=55 velocity=0 time=0
note_on channel=0 note=55 velocity=32 time=40
note_on channel=0 note=67 velocity=38 time=0
note_on channel=0 note=67 velocity=0 time=120
note_on channel=0 note=55 velocity=0 time=0
note_on channel=0 note=55 velocity=24 time=40
note_on channel=0 note=67 velocity=28 time=0
note_on channel=0 note=67 velocity=0 time=120
note_on channel=0 note=55 velocity=0 time=0
note_on channel=0 note=55 velocity=25 time=40
note_on channel=0 note=67 velocity=30 time=0
note_on channel=0 note=67 velocity=0 time=120
note_on channel=0 note=55 velocity=0 time=0
<meta message set_tempo tempo=551673 time=40>
note_on channel=0 note=55 velocity=33 time=0
note_on channel=0 note=67 velocity=39 time=0
note_on channel=0 note=47 velocity=35 time=0
note_on channel=0 note=67 velocity=0 time=120
note_on channel=0 note=55 velocity=0 time=0
note_on channel=0 note=55 velocity=25 time=40
note_on channel=0 note=67 velocity=30 time=0
note_on channel=0 note=67 velocity=0 time=120
note_on channel=0 note=55 velocity=0 time=0
note_on channel=0 note=55 velocity=25 time=40
note_on channel=0 note=67 velocity=30 time=0
note_on channel=0 note=47 velocity=0 time=40
note_on channel=0 note=48 velocity=30 time=0
note_on channel=0 note=67 velocity=0 time=80
note_on channel=0 note=55 velocity=0 time=0
<meta message set_tempo tempo=564334 time=40>
note_on channel=0 note=48 velocity=0 time=0
note_on channel=0 note=67 velocity=39 time=0
note_on channel=0 note=55 velocity=39 time=0
note_on channel=0 note=50 velocity=40 time=0
note_on channel=0 note=55 velocity=0 time=120
note_on channel=0 note=67 velocity=0 time=0
note_on channel=0 note=55 velocity=22 time=40
note_on channel=0 note=67 velocity=27 time=0
note_on channel=0 note=67 velocity=0 time=120
note_on channel=0 note=55 velocity=0 time=0
note_on channel=0 note=55 velocity=22 time=40
note_on channel=0 note=67 velocity=27 time=0
note_on channel=0 note=50 velocity=0 time=18
note_on channel=0 note=67 velocity=0 time=102
note_on channel=0 note=55 velocity=0 time=0
<meta message set_tempo tempo=546349 time=40>
note_on channel=0 note=55 velocity=25 time=0
note_on channel=0 note=67 velocity=30 time=0
note_on channel=0 note=50 velocity=33 time=0
note_on channel=0 note=67 velocity=0 time=120
note_on channel=0 note=55 velocity=0 time=0
note_on channel=0 note=55 velocity=25 time=40
note_on channel=0 note=67 velocity=30 time=0
note_on channel=0 note=67 velocity=0 time=120
note_on channel=0 note=55 velocity=0 time=0
note_on channel=0 note=55 velocity=25 time=40
note_on channel=0 note=67 velocity=30 time=0
note_on channel=0 note=50 velocity=0 time=18
note_on channel=0 note=67 velocity=0 time=102
note_on channel=0 note=55 velocity=0 time=0
<meta message set_tempo tempo=545901 time=40>
note_on channel=0 note=55 velocity=32 time=0
note_on channel=0 note=67 velocity=38 time=0
note_on channel=0 note=50 velocity=33 time=0
note_on channel=0 note=67 velocity=0 time=120
note_on channel=0 note=55 velocity=0 time=0
note_on channel=0 note=55 velocity=24 time=40
note_on channel=0 note=67 velocity=28 time=0
note_on channel=0 note=67 velocity=0 time=120
note_on channel=0 note=55 velocity=0 time=0
note_on channel=0 note=55 velocity=25 time=40
note_on channel=0 note=67 velocity=30 time=0
note_on channel=0 note=50 velocity=0 time=18
note_on channel=0 note=67 velocity=0 time=102
note_on channel=0 note=55 velocity=0 time=0
<meta message set_tempo tempo=551673 time=40>
note_on channel=0 note=55 velocity=33 time=0
note_on channel=0 note=67 velocity=39 time=0
note_on channel=0 note=48 velocity=36 time=0
note_on channel=0 note=67 velocity=0 time=120
note_on channel=0 note=55 velocity=0 time=0
note_on channel=0 note=55 velocity=25 time=40
note_on channel=0 note=67 velocity=30 time=0
note_on channel=0 note=67 velocity=0 time=120
note_on channel=0 note=55 velocity=0 time=0
note_on channel=0 note=55 velocity=25 time=40
note_on channel=0 note=67 velocity=30 time=0
note_on channel=0 note=48 velocity=0 time=40
note_on channel=0 note=50 velocity=37 time=0
note_on channel=0 note=67 velocity=0 time=80
note_on channel=0 note=55 velocity=0 time=0
<meta message set_tempo tempo=551673 time=40>
note_on channel=0 note=50 velocity=0 time=0
note_on channel=0 note=67 velocity=39 time=0
note_on channel=0 note=55 velocity=39 time=0
note_on channel=0 note=51 velocity=42 time=0
note_on channel=0 note=55 velocity=0 time=120
note_on channel=0 note=67 velocity=0 time=0
note_on channel=0 note=55 velocity=22 time=40
note_on channel=0 note=67 velocity=27 time=0
note_on channel=0 note=67 velocity=0 time=120
note_on channel=0 note=55 velocity=0 time=0
note_on channel=0 note=55 velocity=22 time=40
note_on channel=0 note=67 velocity=27 time=0
note_on channel=0 note=67 velocity=0 time=120
note_on channel=0 note=55 velocity=0 time=0
note_on channel=0 note=55 velocity=25 time=40
note_on channel=0 note=67 velocity=30 time=0
note_on channel=0 note=67 velocity=0 time=120
note_on channel=0 note=55 velocity=0 time=0
note_on channel=0 note=55 velocity=25 time=40
note_on channel=0 note=67 velocity=30 time=0
note_on channel=0 note=51 velocity=0 time=80
note_on channel=0 note=50 velocity=35 time=0
note_on channel=0 note=67 velocity=0 time=40
note_on channel=0 note=55 velocity=0 time=0
note_on channel=0 note=55 velocity=25 time=40
note_on channel=0 note=67 velocity=30 time=0
note_on channel=0 note=67 velocity=0 time=120
note_on channel=0 note=55 velocity=0 time=0
note_on channel=0 note=50 velocity=0 time=40
note_on channel=0 note=55 velocity=32 time=0
note_on channel=0 note=67 velocity=38 time=0
note_on channel=0 note=48 velocity=31 time=0
note_on channel=0 note=67 velocity=0 time=120
note_on channel=0 note=55 velocity=0 time=0
note_on channel=0 note=55 velocity=24 time=40
note_on channel=0 note=67 velocity=28 time=0
note_on channel=0 note=67 velocity=0 time=120
note_on channel=0 note=55 velocity=0 time=0
note_on channel=0 note=55 velocity=25 time=40
note_on channel=0 note=67 velocity=30 time=0
note_on channel=0 note=67 velocity=0 time=120
note_on channel=0 note=55 velocity=0 time=0
<meta message set_tempo tempo=543085 time=40>
note_on channel=0 note=48 velocity=0 time=0
note_on channel=0 note=55 velocity=33 time=0
note_on channel=0 note=67 velocity=39 time=0
note_on channel=0 note=46 velocity=39 time=0
note_on channel=0 note=67 velocity=0 time=120
note_on channel=0 note=55 velocity=0 time=0
note_on channel=0 note=55 velocity=25 time=40
note_on channel=0 note=67 velocity=30 time=0
note_on channel=0 note=67 velocity=0 time=120
note_on channel=0 note=55 velocity=0 time=0
note_on channel=0 note=53 velocity=25 time=40
note_on channel=0 note=65 velocity=30 time=0
<meta message set_tempo tempo=569638 time=40>
note_on channel=0 note=46 velocity=0 time=0
note_on channel=0 note=44 velocity=33 time=0
note_on channel=0 note=65 velocity=0 time=80
note_on channel=0 note=53 velocity=0 time=0
<meta message set_tempo tempo=551673 time=40>
note_on channel=0 note=44 velocity=0 time=0
note_on channel=0 note=63 velocity=39 time=0
note_on channel=0 note=60 velocity=39 time=0
note_on channel=0 note=67 velocity=39 time=0
note_on channel=0 note=55 velocity=39 time=0
note_on channel=0 note=43 velocity=36 time=0
control_change channel=0 control=64 value=127 time=53
note_on channel=0 note=55 velocity=0 time=67
note_on channel=0 note=67 velocity=0 time=0
note_on channel=0 note=63 velocity=0 time=0
note_on channel=0 note=60 velocity=0 time=0
note_on channel=0 note=63 velocity=22 time=40
note_on channel=0 note=60 velocity=22 time=0
note_on channel=0 note=55 velocity=22 time=0
note_on channel=0 note=67 velocity=27 time=0
note_on channel=0 note=67 velocity=0 time=120
note_on channel=0 note=60 velocity=0 time=0
note_on channel=0 note=55 velocity=0 time=0
note_on channel=0 note=63 velocity=0 time=0
note_on channel=0 note=63 velocity=22 time=40
note_on channel=0 note=60 velocity=22 time=0
note_on channel=0 note=55 velocity=22 time=0
note_on channel=0 note=67 velocity=27 time=0
note_on channel=0 note=67 velocity=0 time=120
note_on channel=0 note=60 velocity=0 time=0
note_on channel=0 note=55 velocity=0 time=0
note_on channel=0 note=63 velocity=0 time=0
note_on channel=0 note=43 velocity=0 time=40
note_on channel=0 note=63 velocity=22 time=0
note_on channel=0 note=60 velocity=22 time=0
note_on channel=0 note=55 velocity=25 time=0
note_on channel=0 note=67 velocity=30 time=0
note_on channel=0 note=43 velocity=36 time=0
note_on channel=0 note=67 velocity=0 time=120
note_on channel=0 note=55 velocity=0 time=0
note_on channel=0 note=63 velocity=0 time=0
note_on channel=0 note=60 velocity=0 time=0
note_on channel=0 note=63 velocity=22 time=40
note_on channel=0 note=60 velocity=22 time=0
note_on channel=0 note=55 velocity=25 time=0
note_on channel=0 note=67 velocity=30 time=0
note_on channel=0 note=67 velocity=0 time=120
note_on channel=0 note=60 velocity=0 time=0
note_on channel=0 note=55 velocity=0 time=0
note_on channel=0 note=63 velocity=0 time=0
note_on channel=0 note=63 velocity=22 time=40
note_on channel=0 note=60 velocity=22 time=0
note_on channel=0 note=55 velocity=25 time=0
note_on channel=0 note=67 velocity=30 time=0
note_on channel=0 note=67 velocity=0 time=120
note_on channel=0 note=60 velocity=0 time=0
note_on channel=0 note=55 velocity=0 time=0
note_on channel=0 note=63 velocity=0 time=0
note_on channel=0 note=43 velocity=0 time=40
note_on channel=0 note=62 velocity=32 time=0
note_on channel=0 note=59 velocity=32 time=0
note_on channel=0 note=55 velocity=32 time=0
note_on channel=0 note=67 velocity=38 time=0
note_on channel=0 note=43 velocity=36 time=0
control_change channel=0 control=64 value=0 time=11
control_change channel=0 control=64 value=127 time=53
note_on channel=0 note=67 velocity=0 time=56
note_on channel=0 note=55 velocity=0 time=0
note_on channel=0 note=62 velocity=0 time=0
note_on channel=0 note=59 velocity=0 time=0
note_on channel=0 note=62 velocity=32 time=40
note_on channel=0 note=59 velocity=32 time=0
note_on channel=0 note=55 velocity=24 time=0
note_on channel=0 note=67 velocity=28 time=0
note_on channel=0 note=67 velocity=0 time=120
note_on channel=0 note=59 velocity=0 time=0
note_on channel=0 note=55 velocity=0 time=0
note_on channel=0 note=62 velocity=0 time=0
note_on channel=0 note=62 velocity=32 time=40
note_on channel=0 note=59 velocity=32 time=0
note_on channel=0 note=55 velocity=25 time=0
note_on channel=0 note=67 velocity=30 time=0
note_on channel=0 note=67 velocity=0 time=120
note_on channel=0 note=59 velocity=0 time=0
note_on channel=0 note=55 velocity=0 time=0
note_on channel=0 note=62 velocity=0 time=0
note_on channel=0 note=43 velocity=0 time=40
note_on channel=0 note=62 velocity=33 time=0
note_on channel=0 note=59 velocity=33 time=0
note_on channel=0 note=55 velocity=33 time=0
note_on channel=0 note=67 velocity=39 time=0
note_on channel=0 note=43 velocity=36 time=0
note_on channel=0 note=67 velocity=0 time=120
note_on channel=0 note=55 velocity=0 time=0
note_on channel=0 note=62 velocity=0 time=0
note_on channel=0 note=59 velocity=0 time=0
note_on channel=0 note=62 velocity=25 time=40
note_on channel=0 note=59 velocity=25 time=0
note_on channel=0 note=55 velocity=25 time=0
note_on channel=0 note=67 velocity=30 time=0
note_on channel=0 note=67 velocity=0 time=120
note_on channel=0 note=59 velocity=0 time=0
note_on channel=0 note=55 velocity=0 time=0
note_on channel=0 note=62 velocity=0 time=0
note_on channel=0 note=62 velocity=25 time=40
note_on channel=0 note=59 velocity=25 time=0
note_on channel=0 note=55 velocity=25 time=0
note_on channel=0 note=67 velocity=30 time=0
note_on channel=0 note=67 velocity=0 time=120
note_on channel=0 note=59 velocity=0 time=0
note_on channel=0 note=55 velocity=0 time=0
note_on channel=0 note=62 velocity=0 time=0
<meta message set_tempo tempo=568720 time=40>
note_on channel=0 note=43 velocity=0 time=0
note_on channel=0 note=63 velocity=39 time=0
note_on channel=0 note=60 velocity=39 time=0
note_on channel=0 note=67 velocity=39 time=0
note_on channel=0 note=55 velocity=39 time=0
note_on channel=0 note=48 velocity=48 time=0
control_change channel=0 control=64 value=0 time=0
note_on channel=0 note=55 velocity=0 time=120
note_on channel=0 note=67 velocity=0 time=0
note_on channel=0 note=63 velocity=0 time=0
note_on channel=0 note=60 velocity=0 time=0
note_on channel=0 note=55 velocity=22 time=40
note_on channel=0 note=67 velocity=27 time=0
note_on channel=0 note=67 velocity=0 time=120
note_on channel=0 note=55 velocity=0 time=0
note_on channel=0 note=55 velocity=22 time=40
note_on channel=0 note=67 velocity=27 time=0
note_on channel=0 note=67 velocity=0 time=120
note_on channel=0 note=55 velocity=0 time=0
<meta message set_tempo tempo=555556 time=40>
note_on channel=0 note=55 velocity=28 time=0
note_on channel=0 note=67 velocity=34 time=0
note_on channel=0 note=67 velocity=0 time=120
note_on channel=0 note=55 velocity=0 time=0
note_on channel=0 note=55 velocity=29 time=40
note_on channel=0 note=67 velocity=35 time=0
note_on channel=0 note=67 velocity=0 time=120
note_on channel=0 note=55 velocity=0 time=0
note_on channel=0 note=55 velocity=30 time=40
note_on channel=0 note=67 velocity=36 time=0
note_on channel=0 note=67 velocity=0 time=120
note_on channel=0 note=55 velocity=0 time=0
note_on channel=0 note=48 velocity=0 time=40
note_on channel=0 note=55 velocity=40 time=0
note_on channel=0 note=67 velocity=48 time=0
note_on channel=0 note=67 velocity=0 time=120
note_on channel=0 note=55 velocity=0 time=0
note_on channel=0 note=55 velocity=32 time=40
note_on channel=0 note=67 velocity=36 time=0
note_on channel=0 note=67 velocity=0 time=120
note_on channel=0 note=55 velocity=0 time=0
note_on channel=0 note=55 velocity=34 time=40
note_on channel=0 note=67 velocity=41 time=0
note_on channel=0 note=67 velocity=0 time=120
note_on channel=0 note=55 velocity=0 time=0
<meta message set_tempo tempo=551673 time=40>
note_on channel=0 note=55 velocity=47 time=0
note_on channel=0 note=67 velocity=56 time=0
note_on channel=0 note=35 velocity=42 time=0
note_on channel=0 note=47 velocity=50 time=0
note_on channel=0 note=67 velocity=0 time=120
note_on channel=0 note=55 velocity=0 time=0
note_on channel=0 note=55 velocity=36 time=40
note_on channel=0 note=67 velocity=43 time=0
note_on channel=0 note=67 velocity=0 time=120
note_on channel=0 note=55 velocity=0 time=0
note_on channel=0 note=55 velocity=37 time=40
note_on channel=0 note=67 velocity=44 time=0
note_on channel=0 note=35 velocity=0 time=40
note_on channel=0 note=47 velocity=0 time=0
note_on channel=0 note=36 velocity=37 time=0
note_on channel=0 note=48 velocity=44 time=0
note_on channel=0 note=55 velocity=0 time=80
note_on channel=0 note=67 velocity=0 time=0
<meta message set_tempo tempo=564334 time=40>
note_on channel=0 note=36 velocity=0 time=0
note_on channel=0 note=48 velocity=0 time=0
note_on channel=0 note=67 velocity=59 time=0
note_on channel=0 note=55 velocity=59 time=0
note_on channel=0 note=50 velocity=62 time=0
note_on channel=0 note=38 velocity=51 time=0
control_change channel=0 control=64 value=127 time=110
note_on channel=0 note=55 velocity=0 time=10
note_on channel=0 note=67 velocity=0 time=0
note_on channel=0 note=55 velocity=33 time=40
note_on channel=0 note=67 velocity=41 time=0
note_on channel=0 note=67 velocity=0 time=120
note_on channel=0 note=55 velocity=0 time=0
note_on channel=0 note=55 velocity=33 time=40
note_on channel=0 note=67 velocity=41 time=0
note_on channel=0 note=50 velocity=0 time=18
note_on channel=0 note=38 velocity=0 time=22
note_on channel=0 note=55 velocity=0 time=80
note_on channel=0 note=67 velocity=0 time=0
<meta message set_tempo tempo=546349 time=40>
note_on channel=0 note=55 velocity=37 time=0
note_on channel=0 note=67 velocity=46 time=0
note_on channel=0 note=38 velocity=42 time=0
note_on channel=0 note=50 velocity=50 time=0
control_change channel=0 control=64 value=0 time=10
control_change channel=0 control=64 value=127 time=64
note_on channel=0 note=67 velocity=0 time=46
note_on channel=0 note=55 velocity=0 time=0
note_on channel=0 note=55 velocity=37 time=40
note_on channel=0 note=67 velocity=46 time=0
note_on channel=0 note=67 velocity=0 time=120
note_on channel=0 note=55 velocity=0 time=0
note_on channel=0 note=55 velocity=37 time=40
note_on channel=0 note=67 velocity=46 time=0
note_on channel=0 note=50 velocity=0 time=18
note_on channel=0 note=38 velocity=0 time=22
note_on channel=0 note=55 velocity=0 time=80
note_on channel=0 note=67 velocity=0 time=0
<meta message set_tempo tempo=545901 time=40>
note_on channel=0 note=55 velocity=49 time=0
note_on channel=0 note=67 velocity=58 time=0
note_on channel=0 note=38 velocity=42 time=0
note_on channel=0 note=50 velocity=50 time=0
control_change channel=0 control=64 value=0 time=39
note_on channel=0 note=67 velocity=0 time=81
note_on channel=0 note=55 velocity=0 time=0
control_change channel=0 control=64 value=127 time=4
note_on channel=0 note=55 velocity=36 time=36
note_on channel=0 note=67 velocity=42 time=0
note_on channel=0 note=67 velocity=0 time=120
note_on channel=0 note=55 velocity=0 time=0
note_on channel=0 note=55 velocity=37 time=40
note_on channel=0 note=67 velocity=46 time=0
note_on channel=0 note=50 velocity=0 time=18
note_on channel=0 note=38 velocity=0 time=22
note_on channel=0 note=55 velocity=0 time=80
note_on channel=0 note=67 velocity=0 time=0
<meta message set_tempo tempo=551673 time=40>
note_on channel=0 note=56 velocity=55 time=0
note_on channel=0 note=68 velocity=65 time=0
note_on channel=0 note=36 velocity=50 time=0
note_on channel=0 note=48 velocity=59 time=0
control_change channel=0 control=64 value=0 time=19
control_change channel=0 control=64 value=127 time=48
note_on channel=0 note=68 velocity=0 time=53
note_on channel=0 note=56 velocity=0 time=0
note_on channel=0 note=56 velocity=42 time=40
note_on channel=0 note=68 velocity=52 time=0
note_on channel=0 note=68 velocity=0 time=120
note_on channel=0 note=56 velocity=0 time=0
note_on channel=0 note=56 velocity=44 time=40
note_on channel=0 note=68 velocity=55 time=0
<meta message set_tempo tempo=631579 time=40>
note_on channel=0 note=36 velocity=0 time=0
note_on channel=0 note=48 velocity=0 time=0
note_on channel=0 note=38 velocity=57 time=0
note_on channel=0 note=50 velocity=67 time=0
note_on channel=0 note=56 velocity=0 time=80
note_on channel=0 note=68 velocity=0 time=0
<meta message set_tempo tempo=550459 time=40>
note_on channel=0 note=38 velocity=0 time=0
note_on channel=0 note=50 velocity=0 time=0
note_on channel=0 note=67 velocity=70 time=0
note_on channel=0 note=55 velocity=70 time=0
note_on channel=0 note=39 velocity=63 time=0
note_on channel=0 note=51 velocity=76 time=0
control_change channel=0 control=64 value=0 time=7
control_change channel=0 control=64 value=127 time=96
note_on channel=0 note=55 velocity=0 time=17
note_on channel=0 note=67 velocity=0 time=0
note_on channel=0 note=55 velocity=40 time=40
note_on channel=0 note=67 velocity=50 time=0
note_on channel=0 note=67 velocity=0 time=120
note_on channel=0 note=55 velocity=0 time=0
note_on channel=0 note=55 velocity=40 time=40
note_on channel=0 note=67 velocity=50 time=0
note_on channel=0 note=67 velocity=0 time=120
note_on channel=0 note=55 velocity=0 time=0
note_on channel=0 note=55 velocity=46 time=40
note_on channel=0 note=67 velocity=55 time=0
note_on channel=0 note=67 velocity=0 time=120
note_on channel=0 note=55 velocity=0 time=0
note_on channel=0 note=55 velocity=44 time=40
note_on channel=0 note=67 velocity=55 time=0
note_on channel=0 note=39 velocity=0 time=80
note_on channel=0 note=51 velocity=0 time=0
note_on channel=0 note=38 velocity=54 time=0
note_on channel=0 note=50 velocity=64 time=0
note_on channel=0 note=55 velocity=0 time=40
note_on channel=0 note=67 velocity=0 time=0
note_on channel=0 note=55 velocity=44 time=40
note_on channel=0 note=67 velocity=54 time=0
note_on channel=0 note=67 velocity=0 time=120
note_on channel=0 note=55 velocity=0 time=0
note_on channel=0 note=38 velocity=0 time=40
note_on channel=0 note=50 velocity=0 time=0
note_on channel=0 note=55 velocity=57 time=0
note_on channel=0 note=67 velocity=69 time=0
note_on channel=0 note=36 velocity=46 time=0
note_on channel=0 note=48 velocity=55 time=0
control_change channel=0 control=64 value=0 time=21
control_change channel=0 control=64 value=127 time=57
note_on channel=0 note=67 velocity=0 time=42
note_on channel=0 note=55 velocity=0 time=0
note_on channel=0 note=55 velocity=42 time=40
note_on channel=0 note=67 velocity=49 time=0
note_on channel=0 note=67 velocity=0 time=120
note_on channel=0 note=55 velocity=0 time=0
note_on channel=0 note=55 velocity=42 time=40
note_on channel=0 note=67 velocity=52 time=0
note_on channel=0 note=67 velocity=0 time=120
note_on channel=0 note=55 velocity=0 time=0
<meta message set_tempo tempo=543085 time=40>
note_on channel=0 note=36 velocity=0 time=0
note_on channel=0 note=48 velocity=0 time=0
note_on channel=0 note=55 velocity=57 time=0
note_on channel=0 note=67 velocity=67 time=0
note_on channel=0 note=34 velocity=57 time=0
note_on channel=0 note=46 velocity=67 time=0
note_on channel=0 note=67 velocity=0 time=120
note_on channel=0 note=55 velocity=0 time=0
note_on channel=0 note=55 velocity=42 time=40
note_on channel=0 note=67 velocity=51 time=0
note_on channel=0 note=67 velocity=0 time=120
note_on channel=0 note=55 velocity=0 time=0
note_on channel=0 note=53 velocity=41 time=40
note_on channel=0 note=65 velocity=50 time=0
<meta message set_tempo tempo=569638 time=40>
note_on channel=0 note=34 velocity=0 time=0
note_on channel=0 note=46 velocity=0 time=0
note_on channel=0 note=44 velocity=55 time=0
note_on channel=0 note=32 velocity=46 time=0
note_on channel=0 note=53 velocity=0 time=80
note_on channel=0 note=65 velocity=0 time=0
<meta message set_tempo tempo=551673 time=40>
note_on channel=0 note=44 velocity=0 time=0
note_on channel=0 note=32 velocity=0 time=0
note_on channel=0 note=64 velocity=59 time=0
note_on channel=0 note=60 velocity=59 time=0
note_on channel=0 note=67 velocity=59 time=0
note_on channel=0 note=55 velocity=59 time=0
note_on channel=0 note=31 velocity=46 time=0
note_on channel=0 note=43 velocity=55 time=0
control_change channel=0 control=64 value=0 time=17
control_change channel=0 control=64 value=127 time=89
note_on channel=0 note=55 velocity=0 time=14
note_on channel=0 note=67 velocity=0 time=0
note_on channel=0 note=64 velocity=0 time=0
note_on channel=0 note=60 velocity=0 time=0
note_on channel=0 note=64 velocity=33 time=40
note_on channel=0 note=60 velocity=33 time=0
note_on channel=0 note=55 velocity=33 time=0
note_on channel=0 note=67 velocity=41 time=0
note_on channel=0 note=67 velocity=0 time=120
note_on channel=0 note=60 velocity=0 time=0
note_on channel=0 note=64 velocity=0 time=0
note_on channel=0 note=55 velocity=0 time=0
note_on channel=0 note=64 velocity=33 time=40
note_on channel=0 note=60 velocity=33 time=0
note_on channel=0 note=55 velocity=33 time=0
note_on channel=0 note=67 velocity=41 time=0
note_on channel=0 note=67 velocity=0 time=120
note_on channel=0 note=60 velocity=0 time=0
note_on channel=0 note=64 velocity=0 time=0
note_on channel=0 note=55 velocity=0 time=0
<meta message set_tempo tempo=540541 time=40>
note_on channel=0 note=43 velocity=0 time=0
note_on channel=0 note=31 velocity=0 time=0
note_on channel=0 note=64 velocity=33 time=0
note_on channel=0 note=60 velocity=33 time=0
note_on channel=0 note=55 velocity=37 time=0
note_on channel=0 note=67 velocity=46 time=0
note_on channel=0 note=31 velocity=46 time=0
note_on channel=0 note=43 velocity=55 time=0
note_on channel=0 note=67 velocity=0 time=120
note_on channel=0 note=55 velocity=0 time=0
note_on channel=0 note=64 velocity=0 time=0
note_on channel=0 note=60 velocity=0 time=0
note_on channel=0 note=64 velocity=33 time=40
note_on channel=0 note=60 velocity=33 time=0
note_on channel=0 note=55 velocity=37 time=0
note_on channel=0 note=67 velocity=46 time=0
note_on channel=0 note=67 velocity=0 time=120
note_on channel=0 note=60 velocity=0 time=0
note_on channel=0 note=64 velocity=0 time=0
note_on channel=0 note=55 velocity=0 time=0
note_on channel=0 note=64 velocity=33 time=40
note_on channel=0 note=60 velocity=33 time=0
note_on channel=0 note=55 velocity=37 time=0
note_on channel=0 note=67 velocity=46 time=0
note_on channel=0 note=67 velocity=0 time=120
note_on channel=0 note=60 velocity=0 time=0
note_on channel=0 note=64 velocity=0 time=0
note_on channel=0 note=55 velocity=0 time=0
note_on channel=0 note=43 velocity=0 time=40
note_on channel=0 note=31 velocity=0 time=0
note_on channel=0 note=62 velocity=49 time=0
note_on channel=0 note=59 velocity=49 time=0
note_on channel=0 note=55 velocity=49 time=0
note_on channel=0 note=67 velocity=58 time=0
note_on channel=0 note=43 velocity=55 time=0
note_on channel=0 note=31 velocity=46 time=0
control_change channel=0 control=64 value=0 time=11
control_change channel=0 control=64 value=127 time=53
note_on channel=0 note=67 velocity=0 time=56
note_on channel=0 note=55 velocity=0 time=0
note_on channel=0 note=62 velocity=0 time=0
note_on channel=0 note=59 velocity=0 time=0
note_on channel=0 note=62 velocity=49 time=40
note_on channel=0 note=59 velocity=49 time=0
note_on channel=0 note=55 velocity=36 time=0
note_on channel=0 note=67 velocity=42 time=0
note_on channel=0 note=67 velocity=0 time=120
note_on channel=0 note=59 velocity=0 time=0
note_on channel=0 note=62 velocity=0 time=0
note_on channel=0 note=55 velocity=0 time=0
note_on channel=0 note=62 velocity=49 time=40
note_on channel=0 note=59 velocity=49 time=0
note_on channel=0 note=55 velocity=37 time=0
note_on channel=0 note=67 velocity=46 time=0
note_on channel=0 note=67 velocity=0 time=120
note_on channel=0 note=59 velocity=0 time=0
note_on channel=0 note=62 velocity=0 time=0
note_on channel=0 note=55 velocity=0 time=0
<meta message set_tempo tempo=547945 time=40>
note_on channel=0 note=31 velocity=0 time=0
note_on channel=0 note=43 velocity=0 time=0
note_on channel=0 note=62 velocity=50 time=0
note_on channel=0 note=59 velocity=50 time=0
note_on channel=0 note=55 velocity=50 time=0
note_on channel=0 note=67 velocity=59 time=0
note_on channel=0 note=43 velocity=55 time=0
note_on channel=0 note=31 velocity=46 time=0
note_on channel=0 note=67 velocity=0 time=120
note_on channel=0 note=55 velocity=0 time=0
note_on channel=0 note=62 velocity=0 time=0
note_on channel=0 note=59 velocity=0 time=0
note_on channel=0 note=62 velocity=37 time=40
note_on channel=0 note=59 velocity=37 time=0
note_on channel=0 note=55 velocity=37 time=0
note_on channel=0 note=67 velocity=46 time=0
note_on channel=0 note=67 velocity=0 time=120
note_on channel=0 note=59 velocity=0 time=0
note_on channel=0 note=62 velocity=0 time=0
note_on channel=0 note=55 velocity=0 time=0
note_on channel=0 note=62 velocity=37 time=40
note_on channel=0 note=59 velocity=37 time=0
note_on channel=0 note=55 velocity=37 time=0
note_on channel=0 note=67 velocity=46 time=0
<meta message set_tempo tempo=634921 time=40>
note_on channel=0 note=67 velocity=0 time=80
note_on channel=0 note=59 velocity=0 time=0
note_on channel=0 note=62 velocity=0 time=0
note_on channel=0 note=55 velocity=0 time=0
<meta message set_tempo tempo=547945 time=40>
note_on channel=0 note=31 velocity=0 time=0
note_on channel=0 note=43 velocity=0 time=0
note_on channel=0 note=55 velocity=40 time=0
note_on channel=0 note=60 velocity=40 time=0
note_on channel=0 note=64 velocity=40 time=0
note_on channel=0 note=67 velocity=48 time=0
note_on channel=0 note=36 velocity=40 time=0
note_on channel=0 note=48 velocity=40 time=0
control_change channel=0 control=64 value=0 time=54
note_on channel=0 note=48 velocity=0 time=106
note_on channel=0 note=36 velocity=0 time=0
note_on channel=0 note=55 velocity=31 time=0
note_on channel=0 note=55 velocity=0 time=120
note_on channel=0 note=55 velocity=31 time=40
note_on channel=0 note=55 velocity=0 time=120
note_on channel=0 note=55 velocity=31 time=40
note_on channel=0 note=55 velocity=0 time=120
note_on channel=0 note=55 velocity=29 time=40
note_on channel=0 note=55 velocity=0 time=120
note_on channel=0 note=55 velocity=29 time=40
note_on channel=0 note=55 velocity=0 time=120
note_on channel=0 note=67 velocity=0 time=40
note_on channel=0 note=55 velocity=0 time=0
note_on channel=0 note=60 velocity=0 time=0
note_on channel=0 note=64 velocity=0 time=0
note_on channel=0 note=55 velocity=29 time=0
note_on channel=0 note=55 velocity=0 time=120
note_on channel=0 note=55 velocity=28 time=40
note_on channel=0 note=55 velocity=0 time=120
note_on channel=0 note=55 velocity=28 time=40
note_on channel=0 note=55 velocity=0 time=120
<meta message set_tempo tempo=551673 time=40>
note_on channel=0 note=62 velocity=37 time=0
note_on channel=0 note=67 velocity=37 time=0
note_on channel=0 note=71 velocity=44 time=0
note_on channel=0 note=55 velocity=31 time=0
note_on channel=0 note=55 velocity=0 time=120
note_on channel=0 note=55 velocity=30 time=40
note_on channel=0 note=55 velocity=0 time=120
note_on channel=0 note=55 velocity=30 time=40
note_on channel=0 note=71 velocity=0 time=40
note_on channel=0 note=62 velocity=0 time=0
note_on channel=0 note=67 velocity=0 time=0
note_on channel=0 note=64 velocity=32 time=0
note_on channel=0 note=67 velocity=32 time=0
note_on channel=0 note=72 velocity=38 time=0
note_on channel=0 note=55 velocity=0 time=80
<meta message set_tempo tempo=564334 time=40>
note_on channel=0 note=64 velocity=0 time=0
note_on channel=0 note=67 velocity=0 time=0
note_on channel=0 note=72 velocity=0 time=0
note_on channel=0 note=65 velocity=35 time=0
note_on channel=0 note=67 velocity=35 time=0
note_on channel=0 note=74 velocity=51 time=0
note_on channel=0 note=55 velocity=31 time=0
note_on channel=0 note=55 velocity=0 time=120
note_on channel=0 note=55 velocity=27 time=40
note_on channel=0 note=55 velocity=0 time=120
note_on channel=0 note=55 velocity=27 time=40
note_on channel=0 note=74 velocity=0 time=18
note_on channel=0 note=65 velocity=0 time=22
note_on channel=0 note=67 velocity=0 time=0
note_on channel=0 note=55 velocity=0 time=80
<meta message set_tempo tempo=546349 time=40>
note_on channel=0 note=67 velocity=35 time=0
note_on channel=0 note=65 velocity=35 time=0
note_on channel=0 note=74 velocity=42 time=0
note_on channel=0 note=55 velocity=31 time=0
note_on channel=0 note=55 velocity=0 time=120
note_on channel=0 note=55 velocity=28 time=40
note_on channel=0 note=55 velocity=0 time=120
note_on channel=0 note=55 velocity=28 time=40
note_on channel=0 note=74 velocity=0 time=18
note_on channel=0 note=67 velocity=0 time=22
note_on channel=0 note=65 velocity=0 time=0
note_on channel=0 note=55 velocity=0 time=80
<meta message set_tempo tempo=545901 time=40>
note_on channel=0 note=65 velocity=35 time=0
note_on channel=0 note=67 velocity=35 time=0
note_on channel=0 note=74 velocity=42 time=0
note_on channel=0 note=55 velocity=31 time=0
note_on channel=0 note=55 velocity=0 time=120
note_on channel=0 note=55 velocity=31 time=40
note_on channel=0 note=55 velocity=0 time=120
note_on channel=0 note=55 velocity=31 time=40
note_on channel=0 note=74 velocity=0 time=18
note_on channel=0 note=65 velocity=0 time=22
note_on channel=0 note=67 velocity=0 time=0
note_on channel=0 note=55 velocity=0 time=80
<meta message set_tempo tempo=551673 time=40>
note_on channel=0 note=64 velocity=39 time=0
note_on channel=0 note=67 velocity=39 time=0
note_on channel=0 note=72 velocity=46 time=0
note_on channel=0 note=55 velocity=31 time=0
note_on channel=0 note=55 velocity=0 time=120
note_on channel=0 note=55 velocity=31 time=40
note_on channel=0 note=55 velocity=0 time=120
note_on channel=0 note=55 velocity=32 time=40
note_on channel=0 note=72 velocity=0 time=40
note_on channel=0 note=64 velocity=0 time=0
note_on channel=0 note=67 velocity=0 time=0
note_on channel=0 note=65 velocity=39 time=0
note_on channel=0 note=67 velocity=39 time=0
note_on channel=0 note=74 velocity=47 time=0
note_on channel=0 note=55 velocity=0 time=80
<meta message set_tempo tempo=551673 time=40>
note_on channel=0 note=65 velocity=0 time=0
note_on channel=0 note=67 velocity=0 time=0
note_on channel=0 note=74 velocity=0 time=0
note_on channel=0 note=67 velocity=45 time=0
note_on channel=0 note=76 velocity=53 time=0
note_on channel=0 note=55 velocity=40 time=0
note_on channel=0 note=55 velocity=0 time=120
note_on channel=0 note=55 velocity=31 time=40
note_on channel=0 note=55 velocity=0 time=120
note_on channel=0 note=55 velocity=26 time=40
note_on channel=0 note=55 velocity=0 time=120
note_on channel=0 note=55 velocity=33 time=40
note_on channel=0 note=55 velocity=0 time=120
note_on channel=0 note=55 velocity=29 time=40
note_on channel=0 note=76 velocity=0 time=80
note_on channel=0 note=67 velocity=0 time=0
note_on channel=0 note=65 velocity=37 time=0
note_on channel=0 note=67 velocity=37 time=0
note_on channel=0 note=74 velocity=44 time=0
note_on channel=0 note=55 velocity=0 time=40
note_on channel=0 note=55 velocity=26 time=40
note_on channel=0 note=55 velocity=0 time=120
note_on channel=0 note=74 velocity=0 time=40
note_on channel=0 note=67 velocity=0 time=0
note_on channel=0 note=65 velocity=0 time=0
note_on channel=0 note=64 velocity=33 time=0
note_on channel=0 note=67 velocity=33 time=0
note_on channel=0 note=72 velocity=39 time=0
note_on channel=0 note=55 velocity=33 time=0
note_on channel=0 note=55 velocity=0 time=120
note_on channel=0 note=55 velocity=30 time=40
note_on channel=0 note=55 velocity=0 time=120
note_on channel=0 note=55 velocity=29 time=40
note_on channel=0 note=55 velocity=0 time=120
<meta message set_tempo tempo=543085 time=40>
note_on channel=0 note=64 velocity=0 time=0
note_on channel=0 note=67 velocity=0 time=0
note_on channel=0 note=72 velocity=0 time=0
note_on channel=0 note=65 velocity=41 time=0
note_on channel=0 note=67 velocity=41 time=0
note_on channel=0 note=74 velocity=49 time=0
note_on channel=0 note=55 velocity=33 time=0
note_on channel=0 note=55 velocity=0 time=120
note_on channel=0 note=55 velocity=30 time=40
note_on channel=0 note=55 velocity=0 time=120
note_on channel=0 note=55 velocity=30 time=40
<meta message set_tempo tempo=569638 time=40>
note_on channel=0 note=74 velocity=0 time=0
note_on channel=0 note=65 velocity=0 time=0
note_on channel=0 note=67 velocity=0 time=0
note_on channel=0 note=64 velocity=35 time=0
note_on channel=0 note=67 velocity=35 time=0
note_on channel=0 note=72 velocity=42 time=0
note_on channel=0 note=55 velocity=0 time=80
<meta message set_tempo tempo=551673 time=40>
note_on channel=0 note=64 velocity=0 time=0
note_on channel=0 note=67 velocity=0 time=0
note_on channel=0 note=72 velocity=0 time=0
note_on channel=0 note=62 velocity=39 time=0
note_on channel=0 note=67 velocity=39 time=0
note_on channel=0 note=71 velocity=46 time=0
note_on channel=0 note=55 velocity=31 time=0
note_on channel=0 note=55 velocity=0 time=120
note_on channel=0 note=55 velocity=28 time=40
note_on channel=0 note=55 velocity=0 time=120
note_on channel=0 note=55 velocity=28 time=40
note_on channel=0 note=55 velocity=0 time=120
note_on channel=0 note=62 velocity=0 time=40
note_on channel=0 note=67 velocity=0 time=0
note_on channel=0 note=71 velocity=0 time=0
note_on channel=0 note=60 velocity=37 time=0
note_on channel=0 note=67 velocity=37 time=0
note_on channel=0 note=69 velocity=44 time=0
note_on channel=0 note=55 velocity=31 time=0
note_on channel=0 note=55 velocity=0 time=120
note_on channel=0 note=55 velocity=28 time=40
note_on channel=0 note=55 velocity=0 time=120
note_on channel=0 note=53 velocity=26 time=40
note_on channel=0 note=55 velocity=31 time=0
note_on channel=0 note=69 velocity=0 time=40
note_on channel=0 note=60 velocity=0 time=0
note_on channel=0 note=67 velocity=0 time=0
note_on channel=0 note=62 velocity=30 time=0
note_on channel=0 note=67 velocity=30 time=0
note_on channel=0 note=71 velocity=36 time=0
note_on channel=0 note=53 velocity=0 time=80
note_on channel=0 note=55 velocity=0 time=0
<meta message set_tempo tempo=563539 time=40>
note_on channel=0 note=67 velocity=0 time=0
note_on channel=0 note=62 velocity=0 time=0
note_on channel=0 note=71 velocity=0 time=0
note_on channel=0 note=64 velocity=40 time=0
note_on channel=0 note=67 velocity=40 time=0
note_on channel=0 note=72 velocity=48 time=0
note_on channel=0 note=52 velocity=30 time=0
note_on channel=0 note=55 velocity=36 time=0
note_on channel=0 note=55 velocity=0 time=120
note_on channel=0 note=52 velocity=0 time=0
note_on channel=0 note=55 velocity=29 time=40
note_on channel=0 note=55 velocity=0 time=120
<meta message set_tempo tempo=577923 time=40>
note_on channel=0 note=55 velocity=29 time=0
note_on channel=0 note=55 velocity=0 time=120
<meta message set_tempo tempo=559076 time=40>
note_on channel=0 note=64 velocity=0 time=0
note_on channel=0 note=67 velocity=0 time=0
note_on channel=0 note=72 velocity=0 time=0
note_on channel=0 note=67 velocity=36 time=0
note_on channel=0 note=71 velocity=36 time=0
note_on channel=0 note=74 velocity=43 time=0
note_on channel=0 note=48 velocity=30 time=0
note_on channel=0 note=55 velocity=36 time=0
note_on channel=0 note=55 velocity=0 time=120
note_on channel=0 note=48 velocity=0 time=0
note_on channel=0 note=55 velocity=31 time=40
note_on channel=0 note=55 velocity=0 time=120
note_on channel=0 note=55 velocity=31 time=40
<meta message set_tempo tempo=592183 time=40>
note_on channel=0 note=74 velocity=0 time=0
note_on channel=0 note=67 velocity=0 time=0
note_on channel=0 note=71 velocity=0 time=0
note_on channel=0 note=67 velocity=37 time=0
note_on channel=0 note=72 velocity=37 time=0
note_on channel=0 note=76 velocity=44 time=0
note_on channel=0 note=55 velocity=0 time=80
note_on channel=0 note=67 velocity=0 time=40
note_on channel=0 note=72 velocity=0 time=0
note_on channel=0 note=76 velocity=0 time=0
note_on channel=0 note=71 velocity=43 time=0
note_on channel=0 note=67 velocity=43 time=0
note_on channel=0 note=74 velocity=51 time=0
note_on channel=0 note=43 velocity=35 time=0
note_on channel=0 note=55 velocity=37 time=0
note_on channel=0 note=55 velocity=0 time=120
note_on channel=0 note=43 velocity=0 time=0
note_on channel=0 note=55 velocity=29 time=40
note_on channel=0 note=55 velocity=0 time=120
note_on channel=0 note=55 velocity=29 time=40
note_on channel=0 note=55 velocity=0 time=120
<meta message set_tempo tempo=555556 time=6>
note_on channel=0 note=55 velocity=44 time=34
<meta message set_tempo tempo=558140 time=106>
note_on channel=0 note=55 velocity=0 time=14
note_on channel=0 note=55 velocity=37 time=40
<meta message set_tempo tempo=560748 time=66>
note_on channel=0 note=55 velocity=0 time=54
note_on channel=0 note=55 velocity=39 time=40
<meta message set_tempo tempo=563380 time=26>
note_on channel=0 note=55 velocity=0 time=94
<meta message set_tempo tempo=566038 time=26>
note_on channel=0 note=55 velocity=53 time=14
<meta message set_tempo tempo=568720 time=106>
note_on channel=0 note=55 velocity=0 time=14
note_on channel=0 note=55 velocity=39 time=40
<meta message set_tempo tempo=571429 time=66>
note_on channel=0 note=55 velocity=0 time=54
note_on channel=0 note=55 velocity=40 time=40
<meta message set_tempo tempo=574163 time=26>
note_on channel=0 note=55 velocity=0 time=94
<meta message set_tempo tempo=576923 time=26>
<meta message set_tempo tempo=551673 time=14>
note_on channel=0 note=71 velocity=0 time=0
note_on channel=0 note=67 velocity=0 time=0
note_on channel=0 note=74 velocity=0 time=0
note_on channel=0 note=59 velocity=52 time=0
note_on channel=0 note=67 velocity=52 time=0
note_on channel=0 note=71 velocity=62 time=0
note_on channel=0 note=55 velocity=52 time=0
control_change channel=0 control=64 value=127 time=39
note_on channel=0 note=55 velocity=0 time=81
note_on channel=0 note=55 velocity=45 time=40
note_on channel=0 note=55 velocity=0 time=120
note_on channel=0 note=55 velocity=52 time=40
<meta message set_tempo tempo=597015 time=40>
note_on channel=0 note=71 velocity=0 time=0
note_on channel=0 note=59 velocity=0 time=0
note_on channel=0 note=67 velocity=0 time=0
note_on channel=0 note=60 velocity=50 time=0
note_on channel=0 note=69 velocity=50 time=0
note_on channel=0 note=72 velocity=60 time=0
note_on channel=0 note=55 velocity=0 time=80
<meta message set_tempo tempo=541419 time=40>
note_on channel=0 note=60 velocity=0 time=0
note_on channel=0 note=69 velocity=0 time=0
note_on channel=0 note=72 velocity=0 time=0
note_on channel=0 note=62 velocity=61 time=0
note_on channel=0 note=71 velocity=61 time=0
note_on channel=0 note=74 velocity=73 time=0
note_on channel=0 note=55 velocity=59 time=0
control_change channel=0 control=64 value=0 time=7
control_change channel=0 control=64 value=127 time=48
note_on channel=0 note=55 velocity=0 time=65
note_on channel=0 note=55 velocity=47 time=40
note_on channel=0 note=55 velocity=0 time=120
note_on channel=0 note=55 velocity=47 time=40
note_on channel=0 note=55 velocity=0 time=120
<meta message set_tempo tempo=535714 time=40>
note_on channel=0 note=62 velocity=0 time=0
note_on channel=0 note=71 velocity=0 time=0
note_on channel=0 note=74 velocity=0 time=0
note_on channel=0 note=62 velocity=50 time=0
note_on channel=0 note=71 velocity=50 time=0
note_on channel=0 note=74 velocity=60 time=0
note_on channel=0 note=55 velocity=52 time=0
note_on channel=0 note=54 velocity=52 time=0
control_change channel=0 control=64 value=0 time=7
control_change channel=0 control=64 value=127 time=52
note_on channel=0 note=54 velocity=0 time=61
note_on channel=0 note=55 velocity=0 time=0
note_on channel=0 note=55 velocity=43 time=40
note_on channel=0 note=54 velocity=43 time=0
note_on channel=0 note=54 velocity=0 time=120
note_on channel=0 note=55 velocity=0 time=0
note_on channel=0 note=55 velocity=43 time=40
note_on channel=0 note=54 velocity=43 time=0
note_on channel=0 note=54 velocity=0 time=120
note_on channel=0 note=55 velocity=0 time=0
<meta message set_tempo tempo=535714 time=40>
note_on channel=0 note=62 velocity=0 time=0
note_on channel=0 note=71 velocity=0 time=0
note_on channel=0 note=74 velocity=0 time=0
note_on channel=0 note=62 velocity=50 time=0
note_on channel=0 note=71 velocity=50 time=0
note_on channel=0 note=74 velocity=60 time=0
note_on channel=0 note=53 velocity=54 time=0
note_on channel=0 note=55 velocity=54 time=0
control_change channel=0 control=64 value=0 time=16
control_change channel=0 control=64 value=127 time=59
note_on channel=0 note=55 velocity=0 time=45
note_on channel=0 note=53 velocity=0 time=0
note_on channel=0 note=55 velocity=45 time=40
note_on channel=0 note=53 velocity=45 time=0
note_on channel=0 note=53 velocity=0 time=120
note_on channel=0 note=55 velocity=0 time=0
note_on channel=0 note=55 velocity=45 time=40
note_on channel=0 note=53 velocity=45 time=0
<meta message set_tempo tempo=621762 time=40>
note_on channel=0 note=53 velocity=0 time=80
note_on channel=0 note=55 velocity=0 time=0
<meta message set_tempo tempo=551673 time=40>
note_on channel=0 note=62 velocity=0 time=0
note_on channel=0 note=71 velocity=0 time=0
note_on channel=0 note=74 velocity=0 time=0
note_on channel=0 note=64 velocity=49 time=0
note_on channel=0 note=72 velocity=51 time=0
note_on channel=0 note=76 velocity=61 time=0
note_on channel=0 note=55 velocity=53 time=0
note_on channel=0 note=52 velocity=53 time=0
control_change channel=0 control=64 value=0 time=11
control_change channel=0 control=64 value=127 time=61
note_on channel=0 note=52 velocity=0 time=48
note_on channel=0 note=55 velocity=0 time=0
note_on channel=0 note=52 velocity=43 time=40
note_on channel=0 note=55 velocity=43 time=0
note_on channel=0 note=55 velocity=0 time=120
note_on channel=0 note=52 velocity=0 time=0
note_on channel=0 note=53 velocity=44 time=40
note_on channel=0 note=50 velocity=44 time=0
note_on channel=0 note=55 velocity=44 time=0
<meta message set_tempo tempo=597015 time=40>
note_on channel=0 note=76 velocity=0 time=0
note_on channel=0 note=64 velocity=0 time=0
note_on channel=0 note=72 velocity=0 time=0
note_on channel=0 note=65 velocity=46 time=0
note_on channel=0 note=74 velocity=46 time=0
note_on channel=0 note=77 velocity=67 time=0
note_on channel=0 note=53 velocity=0 time=80
note_on channel=0 note=55 velocity=0 time=0
note_on channel=0 note=50 velocity=0 time=0
<meta message set_tempo tempo=551673 time=40>
note_on channel=0 note=65 velocity=0 time=0
note_on channel=0 note=74 velocity=0 time=0
note_on channel=0 note=77 velocity=0 time=0
note_on channel=0 note=76 velocity=54 time=0
note_on channel=0 note=67 velocity=54 time=0
note_on channel=0 note=79 velocity=75 time=0
note_on channel=0 note=52 velocity=57 time=0
note_on channel=0 note=48 velocity=57 time=0
note_on channel=0 note=55 velocity=57 time=0
control_change channel=0 control=64 value=0 time=0
control_change channel=0 control=64 value=127 time=67
note_on channel=0 note=55 velocity=0 time=53
note_on channel=0 note=52 velocity=0 time=0
note_on channel=0 note=48 velocity=0 time=0
note_on channel=0 note=52 velocity=45 time=40
note_on channel=0 note=48 velocity=45 time=0
note_on channel=0 note=55 velocity=45 time=0
<meta message set_tempo tempo=528634 time=80>
note_on channel=0 note=55 velocity=0 time=40
note_on channel=0 note=52 velocity=0 time=0
note_on channel=0 note=48 velocity=0 time=0
note_on channel=0 note=52 velocity=45 time=40
note_on channel=0 note=55 velocity=45 time=0
note_on channel=0 note=48 velocity=45 time=0
note_on channel=0 note=48 velocity=0 time=120
note_on channel=0 note=52 velocity=0 time=0
note_on channel=0 note=55 velocity=0 time=0
<meta message set_tempo tempo=547945 time=40>
note_on channel=0 note=79 velocity=0 time=0
note_on channel=0 note=67 velocity=0 time=0
note_on channel=0 note=76 velocity=0 time=0
note_on channel=0 note=74 velocity=58 time=0
note_on channel=0 note=71 velocity=58 time=0
note_on channel=0 note=77 velocity=69 time=0
note_on channel=0 note=44 velocity=54 time=0
note_on channel=0 note=53 velocity=54 time=0
note_on channel=0 note=50 velocity=54 time=0
control_change channel=0 control=64 value=0 time=15
control_change channel=0 control=64 value=127 time=73
note_on channel=0 note=50 velocity=0 time=32
note_on channel=0 note=44 velocity=0 time=0
note_on channel=0 note=53 velocity=0 time=0
note_on channel=0 note=44 velocity=45 time=40
note_on channel=0 note=53 velocity=45 time=0
note_on channel=0 note=50 velocity=45 time=0
note_on channel=0 note=50 velocity=0 time=120
note_on channel=0 note=44 velocity=0 time=0
note_on channel=0 note=53 velocity=0 time=0
note_on channel=0 note=44 velocity=45 time=40
note_on channel=0 note=50 velocity=45 time=0
note_on channel=0 note=53 velocity=45 time=0
note_on channel=0 note=53 velocity=0 time=120
note_on channel=0 note=44 velocity=0 time=0
note_on channel=0 note=50 velocity=0 time=0
note_on channel=0 note=77 velocity=0 time=40
note_on channel=0 note=71 velocity=0 time=0
note_on channel=0 note=74 velocity=0 time=0
note_on channel=0 note=72 velocity=54 time=0
note_on channel=0 note=76 velocity=76 time=0
note_on channel=0 note=48 velocity=55 time=0
note_on channel=0 note=45 velocity=55 time=0
note_on channel=0 note=52 velocity=55 time=0
control_change channel=0 control=64 value=0 time=13
control_change channel=0 control=64 value=127 time=72
note_on channel=0 note=52 velocity=0 time=35
note_on channel=0 note=48 velocity=0 time=0
note_on channel=0 note=45 velocity=0 time=0
note_on channel=0 note=48 velocity=43 time=40
note_on channel=0 note=45 velocity=43 time=0
note_on channel=0 note=52 velocity=43 time=0
<meta message set_tempo tempo=609137 time=80>
note_on channel=0 note=52 velocity=0 time=40
note_on channel=0 note=48 velocity=0 time=0
note_on channel=0 note=45 velocity=0 time=0
note_on channel=0 note=48 velocity=43 time=40
note_on channel=0 note=45 velocity=43 time=0
note_on channel=0 note=52 velocity=43 time=0
note_on channel=0 note=52 velocity=0 time=120
note_on channel=0 note=48 velocity=0 time=0
note_on channel=0 note=45 velocity=0 time=0
<meta message set_tempo tempo=547945 time=40>
note_on channel=0 note=76 velocity=0 time=0
note_on channel=0 note=72 velocity=0 time=0
note_on channel=0 note=69 velocity=58 time=0
note_on channel=0 note=77 velocity=69 time=0
note_on channel=0 note=41 velocity=52 time=0
control_change channel=0 control=64 value=0 time=17
control_change channel=0 control=64 value=127 time=71
note_on channel=0 note=41 velocity=0 time=72
note_on channel=0 note=53 velocity=43 time=0
note_on channel=0 note=57 velocity=43 time=0
note_on channel=0 note=57 velocity=0 time=120
note_on channel=0 note=53 velocity=0 time=0
note_on channel=0 note=57 velocity=42 time=40
note_on channel=0 note=53 velocity=42 time=0
<meta message set_tempo tempo=569638 time=40>
note_on channel=0 note=77 velocity=0 time=0
note_on channel=0 note=69 velocity=0 time=0
note_on channel=0 note=65 velocity=51 time=0
note_on channel=0 note=69 velocity=51 time=0
note_on channel=0 note=74 velocity=60 time=0
note_on channel=0 note=57 velocity=0 time=80
note_on channel=0 note=53 velocity=0 time=0
<meta message set_tempo tempo=555556 time=40>
note_on channel=0 note=69 velocity=0 time=0
note_on channel=0 note=65 velocity=0 time=0
note_on channel=0 note=74 velocity=0 time=0
note_on channel=0 note=62 velocity=55 time=0
note_on channel=0 note=65 velocity=55 time=0
note_on channel=0 note=71 velocity=66 time=0
note_on channel=0 note=43 velocity=54 time=0
control_change channel=0 control=64 value=0 time=21
control_change channel=0 control=64 value=127 time=46
note_on channel=0 note=43 velocity=0 time=93
note_on channel=0 note=55 velocity=45 time=0
note_on channel=0 note=55 velocity=0 time=120
note_on channel=0 note=55 velocity=45 time=40
note_on channel=0 note=55 velocity=0 time=120
<meta message set_tempo tempo=550459 time=40>
note_on channel=0 note=62 velocity=0 time=0
note_on channel=0 note=65 velocity=0 time=0
note_on channel=0 note=71 velocity=0 time=0
note_on channel=0 note=65 velocity=55 time=0
note_on channel=0 note=71 velocity=66 time=0
note_on channel=0 note=62 velocity=55 time=0
note_on channel=0 note=43 velocity=54 time=0
note_on channel=0 note=43 velocity=0 time=160
note_on channel=0 note=55 velocity=45 time=0
note_on channel=0 note=55 velocity=0 time=120
note_on channel=0 note=55 velocity=45 time=40
note_on channel=0 note=55 velocity=0 time=120
<meta message set_tempo tempo=563539 time=40>
note_on channel=0 note=65 velocity=0 time=0
note_on channel=0 note=71 velocity=0 time=0
note_on channel=0 note=62 velocity=0 time=0
note_on channel=0 note=71 velocity=66 time=0
note_on channel=0 note=65 velocity=55 time=0
note_on channel=0 note=62 velocity=55 time=0
note_on channel=0 note=43 velocity=54 time=0
note_on channel=0 note=43 velocity=0 time=160
note_on channel=0 note=55 velocity=45 time=0
<meta message set_tempo tempo=603015 time=80>
note_on channel=0 note=55 velocity=0 time=40
note_on channel=0 note=55 velocity=45 time=40
note_on channel=0 note=55 velocity=0 time=120
<meta message set_tempo tempo=566038 time=40>
note_on channel=0 note=71 velocity=0 time=0
note_on channel=0 note=65 velocity=0 time=0
note_on channel=0 note=62 velocity=0 time=0
note_on channel=0 note=76 velocity=75 time=0
note_on channel=0 note=67 velocity=64 time=0
note_on channel=0 note=55 velocity=57 time=0
control_change channel=0 control=64 value=0 time=9
control_change channel=0 control=64 value=127 time=48
note_on channel=0 note=55 velocity=0 time=63
note_on channel=0 note=57 velocity=43 time=40
note_on channel=0 note=55 velocity=43 time=0
note_on channel=0 note=55 velocity=0 time=120
note_on channel=0 note=57 velocity=0 time=0
note_on channel=0 note=59 velocity=43 time=40
note_on channel=0 note=55 velocity=43 time=0
<meta message set_tempo tempo=592183 time=40>
note_on channel=0 note=67 velocity=0 time=0
note_on channel=0 note=76 velocity=0 time=0
note_on channel=0 note=65 velocity=52 time=0
note_on channel=0 note=67 velocity=52 time=0
note_on channel=0 note=74 velocity=62 time=0
note_on channel=0 note=59 velocity=0 time=80
note_on channel=0 note=55 velocity=0 time=0
note_on channel=0 note=67 velocity=0 time=40
note_on channel=0 note=65 velocity=0 time=0
note_on channel=0 note=74 velocity=0 time=0
note_on channel=0 note=67 velocity=61 time=0
note_on channel=0 note=64 velocity=61 time=0
note_on channel=0 note=72 velocity=73 time=0
note_on channel=0 note=55 velocity=40 time=0
note_on channel=0 note=48 velocity=40 time=0
note_on channel=0 note=60 velocity=40 time=0
control_change channel=0 control=64 value=0 time=5
note_on channel=0 note=60 velocity=0 time=155
note_on channel=0 note=48 velocity=0 time=0
note_on channel=0 note=55 velocity=31 time=0
note_on channel=0 note=55 velocity=0 time=20
note_on channel=0 note=55 velocity=0 time=100
note_on channel=0 note=55 velocity=31 time=40
note_on channel=0 note=55 velocity=0 time=120
<meta message set_tempo tempo=592183 time=40>
note_on channel=0 note=55 velocity=31 time=0
note_on channel=0 note=55 velocity=0 time=120
note_on channel=0 note=55 velocity=29 time=40
note_on channel=0 note=55 velocity=0 time=120
note_on channel=0 note=55 velocity=29 time=40
note_on channel=0 note=55 velocity=0 time=120
note_on channel=0 note=67 velocity=0 time=40
note_on channel=0 note=64 velocity=0 time=0
note_on channel=0 note=72 velocity=0 time=0
note_on channel=0 note=55 velocity=29 time=0
note_on channel=0 note=55 velocity=0 time=120
note_on channel=0 note=55 velocity=28 time=40
note_on channel=0 note=55 velocity=0 time=120
note_on channel=0 note=55 velocity=28 time=40
note_on channel=0 note=55 velocity=0 time=120
<meta message set_tempo tempo=551673 time=40>
note_on channel=0 note=83 velocity=52 time=0
note_on channel=0 note=55 velocity=31 time=0
note_on channel=0 note=55 velocity=0 time=120
note_on channel=0 note=55 velocity=30 time=40
note_on channel=0 note=55 velocity=0 time=120
note_on channel=0 note=55 velocity=30 time=40
note_on channel=0 note=83 velocity=0 time=40
note_on channel=0 note=84 velocity=45 time=0
note_on channel=0 note=55 velocity=0 time=80
<meta message set_tempo tempo=559076 time=40>
note_on channel=0 note=84 velocity=0 time=0
note_on channel=0 note=86 velocity=61 time=0
note_on channel=0 note=55 velocity=31 time=0
note_on channel=0 note=55 velocity=0 time=120
note_on channel=0 note=55 velocity=27 time=40
note_on channel=0 note=55 velocity=0 time=120
note_on channel=0 note=55 velocity=27 time=40
note_on channel=0 note=55 velocity=0 time=120
<meta message set_tempo tempo=551369 time=40>
note_on channel=0 note=86 velocity=0 time=0
note_on channel=0 note=77 velocity=35 time=0
note_on channel=0 note=80 velocity=35 time=0
note_on channel=0 note=83 velocity=35 time=0
note_on channel=0 note=86 velocity=50 time=0
note_on channel=0 note=55 velocity=31 time=0
note_on channel=0 note=55 velocity=0 time=120
note_on channel=0 note=55 velocity=28 time=40
note_on channel=0 note=55 velocity=0 time=120
note_on channel=0 note=55 velocity=28 time=40
note_on channel=0 note=55 velocity=0 time=120
<meta message set_tempo tempo=545901 time=40>
note_on channel=0 note=83 velocity=0 time=0
note_on channel=0 note=77 velocity=0 time=0
note_on channel=0 note=80 velocity=0 time=0
note_on channel=0 note=86 velocity=0 time=0
note_on channel=0 note=78 velocity=35 time=0
note_on channel=0 note=81 velocity=35 time=0
note_on channel=0 note=84 velocity=35 time=0
note_on channel=0 note=86 velocity=50 time=0
note_on channel=0 note=55 velocity=31 time=0
note_on channel=0 note=55 velocity=0 time=120
note_on channel=0 note=55 velocity=31 time=40
note_on channel=0 note=55 velocity=0 time=120
note_on channel=0 note=55 velocity=31 time=40
note_on channel=0 note=55 velocity=0 time=120
<meta message set_tempo tempo=551673 time=40>
note_on channel=0 note=84 velocity=0 time=0
note_on channel=0 note=78 velocity=0 time=0
note_on channel=0 note=81 velocity=0 time=0
note_on channel=0 note=86 velocity=0 time=0
note_on channel=0 note=78 velocity=35 time=0
note_on channel=0 note=81 velocity=35 time=0
note_on channel=0 note=84 velocity=55 time=0
note_on channel=0 note=55 velocity=31 time=0
note_on channel=0 note=55 velocity=0 time=120
note_on channel=0 note=55 velocity=31 time=40
note_on channel=0 note=55 velocity=0 time=120
note_on channel=0 note=55 velocity=32 time=40
note_on channel=0 note=84 velocity=0 time=40
note_on channel=0 note=86 velocity=56 time=0
note_on channel=0 note=55 velocity=0 time=80
<meta message set_tempo tempo=551673 time=40>
note_on channel=0 note=78 velocity=0 time=0
note_on channel=0 note=81 velocity=0 time=0
note_on channel=0 note=86 velocity=0 time=0
note_on channel=0 note=78 velocity=35 time=0
note_on channel=0 note=81 velocity=35 time=0
note_on channel=0 note=87 velocity=63 time=0
note_on channel=0 note=60 velocity=53 time=0
note_on channel=0 note=55 velocity=40 time=0
note_on channel=0 note=55 velocity=0 time=120
note_on channel=0 note=55 velocity=31 time=40
note_on channel=0 note=55 velocity=0 time=120
note_on channel=0 note=55 velocity=26 time=40
note_on channel=0 note=55 velocity=0 time=120
note_on channel=0 note=55 velocity=33 time=40
note_on channel=0 note=55 velocity=0 time=120
note_on channel=0 note=55 velocity=29 time=40
note_on channel=0 note=60 velocity=0 time=80
note_on channel=0 note=87 velocity=0 time=0
note_on channel=0 note=86 velocity=52 time=0
note_on channel=0 note=62 velocity=44 time=0
note_on channel=0 note=55 velocity=0 time=40
note_on channel=0 note=55 velocity=26 time=40
note_on channel=0 note=55 velocity=0 time=120
<meta message set_tempo tempo=559076 time=40>
note_on channel=0 note=62 velocity=0 time=0
note_on channel=0 note=86 velocity=0 time=0
note_on channel=0 note=84 velocity=46 time=0
note_on channel=0 note=63 velocity=39 time=0
note_on channel=0 note=55 velocity=33 time=0
note_on channel=0 note=55 velocity=0 time=120
note_on channel=0 note=55 velocity=30 time=40
note_on channel=0 note=55 velocity=0 time=120
note_on channel=0 note=55 velocity=29 time=40
note_on channel=0 note=55 velocity=0 time=120
<meta message set_tempo tempo=543085 time=40>
note_on channel=0 note=84 velocity=0 time=0
note_on channel=0 note=78 velocity=0 time=0
note_on channel=0 note=81 velocity=0 time=0
note_on channel=0 note=63 velocity=0 time=0
note_on channel=0 note=74 velocity=35 time=0
note_on channel=0 note=81 velocity=35 time=0
note_on channel=0 note=86 velocity=58 time=0
note_on channel=0 note=66 velocity=39 time=0
note_on channel=0 note=55 velocity=33 time=0
note_on channel=0 note=55 velocity=0 time=120
note_on channel=0 note=55 velocity=30 time=40
note_on channel=0 note=55 velocity=0 time=120
note_on channel=0 note=55 velocity=30 time=40
<meta message set_tempo tempo=569638 time=40>
note_on channel=0 note=86 velocity=0 time=0
note_on channel=0 note=84 velocity=50 time=0
note_on channel=0 note=55 velocity=0 time=80
<meta message set_tempo tempo=551673 time=40>
note_on channel=0 note=66 velocity=0 time=0
note_on channel=0 note=74 velocity=0 time=0
note_on channel=0 note=81 velocity=0 time=0
note_on channel=0 note=84 velocity=0 time=0
note_on channel=0 note=74 velocity=35 time=0
note_on channel=0 note=79 velocity=35 time=0
note_on channel=0 note=83 velocity=55 time=0
note_on channel=0 note=67 velocity=39 time=0
note_on channel=0 note=55 velocity=31 time=0
note_on channel=0 note=55 velocity=0 time=120
note_on channel=0 note=55 velocity=28 time=40
note_on channel=0 note=55 velocity=0 time=120
note_on channel=0 note=55 velocity=28 time=40
note_on channel=0 note=55 velocity=0 time=120
note_on channel=0 note=83 velocity=0 time=40
note_on channel=0 note=74 velocity=0 time=0
note_on channel=0 note=79 velocity=0 time=0
note_on channel=0 note=67 velocity=0 time=0
note_on channel=0 note=74 velocity=35 time=0
note_on channel=0 note=79 velocity=35 time=0
note_on channel=0 note=81 velocity=52 time=0
note_on channel=0 note=65 velocity=39 time=0
note_on channel=0 note=55 velocity=31 time=0
note_on channel=0 note=55 velocity=0 time=120
note_on channel=0 note=55 velocity=28 time=40
note_on channel=0 note=55 velocity=0 time=120
note_on channel=0 note=55 velocity=31 time=40
note_on channel=0 note=81 velocity=0 time=40
note_on channel=0 note=83 velocity=52 time=0
note_on channel=0 note=55 velocity=0 time=80
<meta message set_tempo tempo=575153 time=40>
note_on channel=0 note=65 velocity=0 time=0
note_on channel=0 note=74 velocity=0 time=0
note_on channel=0 note=79 velocity=0 time=0
note_on channel=0 note=83 velocity=0 time=0
note_on channel=0 note=72 velocity=35 time=0
note_on channel=0 note=79 velocity=35 time=0
note_on channel=0 note=84 velocity=57 time=0
note_on channel=0 note=63 velocity=37 time=0
note_on channel=0 note=55 velocity=36 time=0
note_on channel=0 note=55 velocity=0 time=120
note_on channel=0 note=55 velocity=29 time=40
note_on channel=0 note=55 velocity=0 time=120
note_on channel=0 note=55 velocity=29 time=40
note_on channel=0 note=55 velocity=0 time=120
<meta message set_tempo tempo=559076 time=40>
note_on channel=0 note=84 velocity=0 time=0
note_on channel=0 note=72 velocity=0 time=0
note_on channel=0 note=79 velocity=0 time=0
note_on channel=0 note=63 velocity=0 time=0
note_on channel=0 note=79 velocity=35 time=0
note_on channel=0 note=83 velocity=39 time=0
note_on channel=0 note=86 velocity=51 time=0
note_on channel=0 note=60 velocity=35 time=0
note_on channel=0 note=55 velocity=36 time=0
note_on channel=0 note=55 velocity=0 time=120
note_on channel=0 note=55 velocity=31 time=40
note_on channel=0 note=55 velocity=0 time=120
note_on channel=0 note=55 velocity=31 time=40
<meta message set_tempo tempo=592183 time=40>
note_on channel=0 note=86 velocity=0 time=0
note_on channel=0 note=83 velocity=0 time=0
note_on channel=0 note=84 velocity=40 time=0
note_on channel=0 note=87 velocity=52 time=0
note_on channel=0 note=55 velocity=0 time=80
note_on channel=0 note=84 velocity=0 time=40
note_on channel=0 note=79 velocity=0 time=0
note_on channel=0 note=60 velocity=0 time=0
note_on channel=0 note=87 velocity=0 time=0
note_on channel=0 note=79 velocity=39 time=0
note_on channel=0 note=83 velocity=39 time=0
note_on channel=0 note=86 velocity=51 time=0
note_on channel=0 note=67 velocity=35 time=0
note_on channel=0 note=55 velocity=37 time=0
note_on channel=0 note=55 velocity=0 time=120
note_on channel=0 note=55 velocity=29 time=40
note_on channel=0 note=55 velocity=0 time=120
note_on channel=0 note=55 velocity=29 time=40
note_on channel=0 note=55 velocity=0 time=120
note_on channel=0 note=55 velocity=42 time=40
note_on channel=0 note=55 velocity=0 time=120
note_on channel=0 note=55 velocity=35 time=40
note_on channel=0 note=55 velocity=0 time=120
note_on channel=0 note=55 velocity=37 time=40
note_on channel=0 note=55 velocity=0 time=120
note_on channel=0 note=67 velocity=0 time=40
note_on channel=0 note=55 velocity=49 time=0
note_on channel=0 note=55 velocity=0 time=160
note_on channel=0 note=56 velocity=36 time=0
note_on channel=0 note=56 velocity=0 time=160
note_on channel=0 note=57 velocity=36 time=0
<meta message set_tempo tempo=551673 time=160>
note_on channel=0 note=57 velocity=0 time=0
note_on channel=0 note=86 velocity=0 time=0
note_on channel=0 note=83 velocity=0 time=0
note_on channel=0 note=79 velocity=0 time=0
note_on channel=0 note=74 velocity=55 time=0
note_on channel=0 note=58 velocity=52 time=0
note_on channel=0 note=58 velocity=0 time=120
note_on channel=0 note=58 velocity=45 time=40
note_on channel=0 note=58 velocity=0 time=120
note_on channel=0 note=58 velocity=52 time=40
note_on channel=0 note=74 velocity=0 time=40
note_on channel=0 note=75 velocity=47 time=0
note_on channel=0 note=58 velocity=0 time=80
note_on channel=0 note=75 velocity=0 time=40
note_on channel=0 note=77 velocity=64 time=0
note_on channel=0 note=58 velocity=52 time=0
note_on channel=0 note=58 velocity=0 time=120
note_on channel=0 note=58 velocity=46 time=40
note_on channel=0 note=58 velocity=0 time=120
note_on channel=0 note=58 velocity=46 time=40
note_on channel=0 note=77 velocity=0 time=18
note_on channel=0 note=58 velocity=0 time=102
note_on channel=0 note=71 velocity=44 time=40
note_on channel=0 note=68 velocity=44 time=0
note_on channel=0 note=74 velocity=44 time=0
note_on channel=0 note=77 velocity=52 time=0
note_on channel=0 note=58 velocity=44 time=0
note_on channel=0 note=65 velocity=52 time=0
note_on channel=0 note=65 velocity=0 time=120
note_on channel=0 note=58 velocity=0 time=0
note_on channel=0 note=58 velocity=39 time=40
note_on channel=0 note=65 velocity=46 time=0
note_on channel=0 note=65 velocity=0 time=120
note_on channel=0 note=58 velocity=0 time=0
note_on channel=0 note=58 velocity=39 time=40
note_on channel=0 note=65 velocity=46 time=0
note_on channel=0 note=77 velocity=0 time=18
note_on channel=0 note=74 velocity=0 time=22
note_on channel=0 note=71 velocity=0 time=0
note_on channel=0 note=68 velocity=0 time=0
note_on channel=0 note=65 velocity=0 time=80
note_on channel=0 note=58 velocity=0 time=0
<meta message set_tempo tempo=515818 time=40>
note_on channel=0 note=68 velocity=44 time=0
note_on channel=0 note=70 velocity=44 time=0
note_on channel=0 note=77 velocity=52 time=0
note_on channel=0 note=58 velocity=44 time=0
note_on channel=0 note=62 velocity=52 time=0
note_on channel=0 note=62 velocity=0 time=120
note_on channel=0 note=58 velocity=0 time=0
note_on channel=0 note=58 velocity=38 time=40
note_on channel=0 note=62 velocity=45 time=0
note_on channel=0 note=62 velocity=0 time=120
note_on channel=0 note=58 velocity=0 time=0
note_on channel=0 note=58 velocity=45 time=40
note_on channel=0 note=62 velocity=45 time=0
note_on channel=0 note=77 velocity=0 time=18
note_on channel=0 note=68 velocity=0 time=22
note_on channel=0 note=70 velocity=0 time=0
note_on channel=0 note=58 velocity=0 time=80
note_on channel=0 note=62 velocity=0 time=0
<meta message set_tempo tempo=486539 time=40>
note_on channel=0 note=70 velocity=39 time=0
note_on channel=0 note=68 velocity=39 time=0
note_on channel=0 note=75 velocity=47 time=0
note_on channel=0 note=58 velocity=52 time=0
note_on channel=0 note=75 velocity=0 time=60
note_on channel=0 note=77 velocity=47 time=0
<meta message set_tempo tempo=585366 time=60>
note_on channel=0 note=77 velocity=0 time=0
note_on channel=0 note=58 velocity=0 time=0
note_on channel=0 note=75 velocity=70 time=0
note_on channel=0 note=58 velocity=47 time=40
note_on channel=0 note=58 velocity=0 time=120
note_on channel=0 note=58 velocity=47 time=40
<meta message set_tempo tempo=668003 time=40>
note_on channel=0 note=75 velocity=0 time=0
note_on channel=0 note=74 velocity=58 time=0
note_on channel=0 note=58 velocity=0 time=80
<meta message set_tempo tempo=564334 time=40>
note_on channel=0 note=70 velocity=0 time=0
note_on channel=0 note=68 velocity=0 time=0
note_on channel=0 note=74 velocity=0 time=0
note_on channel=0 note=70 velocity=56 time=0
note_on channel=0 note=67 velocity=56 time=0
note_on channel=0 note=79 velocity=66 time=0
note_on channel=0 note=63 velocity=56 time=0
note_on channel=0 note=63 velocity=0 time=120
note_on channel=0 note=63 velocity=39 time=40
<meta message set_tempo tempo=524843 time=80>
note_on channel=0 note=63 velocity=0 time=40
note_on channel=0 note=63 velocity=39 time=40
note_on channel=0 note=63 velocity=0 time=120
<meta message set_tempo tempo=551369 time=40>
note_on channel=0 note=70 velocity=0 time=0
note_on channel=0 note=67 velocity=0 time=0
note_on channel=0 note=74 velocity=44 time=0
note_on channel=0 note=68 velocity=36 time=0
note_on channel=0 note=59 velocity=38 time=0
note_on channel=0 note=62 velocity=38 time=0
note_on channel=0 note=65 velocity=45 time=0
note_on channel=0 note=65 velocity=0 time=120
note_on channel=0 note=59 velocity=0 time=0
note_on channel=0 note=62 velocity=0 time=0
note_on channel=0 note=59 velocity=32 time=40
note_on channel=0 note=62 velocity=32 time=0
note_on channel=0 note=65 velocity=38 time=0
note_on channel=0 note=79 velocity=0 time=80
note_on channel=0 note=77 velocity=55 time=0
note_on channel=0 note=62 velocity=0 time=40
note_on channel=0 note=59 velocity=0 time=0
note_on channel=0 note=65 velocity=0 time=0
note_on channel=0 note=59 velocity=32 time=40
note_on channel=0 note=62 velocity=32 time=0
note_on channel=0 note=65 velocity=38 time=0
note_on channel=0 note=65 velocity=0 time=120
note_on channel=0 note=59 velocity=0 time=0
note_on channel=0 note=62 velocity=0 time=0
note_on channel=0 note=77 velocity=0 time=40
note_on channel=0 note=74 velocity=0 time=0
note_on channel=0 note=68 velocity=0 time=0
note_on channel=0 note=67 velocity=56 time=0
note_on channel=0 note=75 velocity=48 time=0
note_on channel=0 note=63 velocity=47 time=0
note_on channel=0 note=60 velocity=39 time=0
note_on channel=0 note=60 velocity=0 time=120
note_on channel=0 note=63 velocity=0 time=0
note_on channel=0 note=63 velocity=42 time=40
note_on channel=0 note=60 velocity=35 time=0
note_on channel=0 note=60 velocity=0 time=120
note_on channel=0 note=63 velocity=0 time=0
note_on channel=0 note=63 velocity=42 time=40
note_on channel=0 note=60 velocity=35 time=0
note_on channel=0 note=60 velocity=0 time=120
note_on channel=0 note=63 velocity=0 time=0
<meta message set_tempo tempo=543085 time=40>
note_on channel=0 note=75 velocity=0 time=0
note_on channel=0 note=67 velocity=0 time=0
note_on channel=0 note=65 velocity=53 time=0
note_on channel=0 note=68 velocity=46 time=0
note_on channel=0 note=74 velocity=63 time=0
note_on channel=0 note=53 velocity=44 time=0
note_on channel=0 note=56 velocity=52 time=0
note_on channel=0 note=56 velocity=0 time=120
note_on channel=0 note=53 velocity=0 time=0
note_on channel=0 note=53 velocity=38 time=40
note_on channel=0 note=56 velocity=45 time=0
note_on channel=0 note=56 velocity=0 time=120
note_on channel=0 note=53 velocity=0 time=0
note_on channel=0 note=53 velocity=38 time=40
note_on channel=0 note=56 velocity=45 time=0
<meta message set_tempo tempo=569638 time=40>
note_on channel=0 note=74 velocity=0 time=0
note_on channel=0 note=65 velocity=0 time=0
note_on channel=0 note=63 velocity=46 time=0
note_on channel=0 note=72 velocity=54 time=0
note_on channel=0 note=56 velocity=0 time=80
note_on channel=0 note=53 velocity=0 time=0
<meta message set_tempo tempo=551673 time=40>
note_on channel=0 note=68 velocity=0 time=0
note_on channel=0 note=63 velocity=0 time=0
note_on channel=0 note=72 velocity=0 time=0
note_on channel=0 note=62 velocity=50 time=0
note_on channel=0 note=67 velocity=50 time=0
note_on channel=0 note=71 velocity=59 time=0
note_on channel=0 note=55 velocity=50 time=0
note_on channel=0 note=55 velocity=0 time=120
note_on channel=0 note=55 velocity=40 time=40
note_on channel=0 note=55 velocity=0 time=120
note_on channel=0 note=55 velocity=40 time=40
note_on channel=0 note=55 velocity=0 time=120
note_on channel=0 note=62 velocity=0 time=40
note_on channel=0 note=67 velocity=0 time=0
note_on channel=0 note=71 velocity=0 time=0
note_on channel=0 note=62 velocity=49 time=0
note_on channel=0 note=67 velocity=47 time=0
note_on channel=0 note=69 velocity=61 time=0
note_on channel=0 note=53 velocity=42 time=0
note_on channel=0 note=55 velocity=50 time=0
note_on channel=0 note=55 velocity=0 time=120
note_on channel=0 note=53 velocity=0 time=0
note_on channel=0 note=55 velocity=39 time=40
note_on channel=0 note=55 velocity=0 time=120
note_on channel=0 note=55 velocity=39 time=40
note_on channel=0 note=69 velocity=0 time=40
note_on channel=0 note=71 velocity=50 time=0
note_on channel=0 note=55 velocity=0 time=80
<meta message set_tempo tempo=563539 time=40>
note_on channel=0 note=62 velocity=0 time=0
note_on channel=0 note=67 velocity=0 time=0
note_on channel=0 note=71 velocity=0 time=0
note_on channel=0 note=60 velocity=63 time=0
note_on channel=0 note=67 velocity=63 time=0
note_on channel=0 note=72 velocity=63 time=0
note_on channel=0 note=51 velocity=39 time=0
note_on channel=0 note=55 velocity=47 time=0
note_on channel=0 note=55 velocity=0 time=120
note_on channel=0 note=51 velocity=0 time=0
note_on channel=0 note=55 velocity=38 time=40
note_on channel=0 note=55 velocity=0 time=120
note_on channel=0 note=55 velocity=38 time=40
note_on channel=0 note=55 velocity=0 time=120
<meta message set_tempo tempo=563539 time=40>
note_on channel=0 note=60 velocity=0 time=0
note_on channel=0 note=67 velocity=0 time=0
note_on channel=0 note=72 velocity=0 time=0
note_on channel=0 note=67 velocity=53 time=0
note_on channel=0 note=77 velocity=63 time=0
note_on channel=0 note=48 velocity=40 time=0
note_on channel=0 note=55 velocity=48 time=0
control_change channel=0 control=64 value=127 time=67
note_on channel=0 note=55 velocity=0 time=53
note_on channel=0 note=48 velocity=0 time=0
note_on channel=0 note=55 velocity=38 time=40
note_on channel=0 note=55 velocity=0 time=120
note_on channel=0 note=55 velocity=38 time=40
<meta message set_tempo tempo=592183 time=40>
note_on channel=0 note=77 velocity=0 time=0
note_on channel=0 note=72 velocity=46 time=0
note_on channel=0 note=75 velocity=55 time=0
note_on channel=0 note=55 velocity=0 time=80
<meta message set_tempo tempo=592183 time=40>
note_on channel=0 note=67 velocity=0 time=0
note_on channel=0 note=72 velocity=0 time=0
note_on channel=0 note=75 velocity=0 time=0
note_on channel=0 note=71 velocity=43 time=0
note_on channel=0 note=67 velocity=43 time=0
note_on channel=0 note=74 velocity=51 time=0
note_on channel=0 note=43 velocity=45 time=0
note_on channel=0 note=55 velocity=45 time=0
control_change channel=0 control=64 value=0 time=21
note_on channel=0 note=55 velocity=0 time=99
note_on channel=0 note=43 velocity=0 time=0
note_on channel=0 note=55 velocity=36 time=40
note_on channel=0 note=55 velocity=0 time=120
note_on channel=0 note=55 velocity=36 time=40
note_on channel=0 note=55 velocity=0 time=120
<meta message set_tempo tempo=555556 time=6>
note_on channel=0 note=55 velocity=42 time=34
<meta message set_tempo tempo=558140 time=106>
note_on channel=0 note=55 velocity=0 time=14
note_on channel=0 note=55 velocity=35 time=40
<meta message set_tempo tempo=560748 time=66>
note_on channel=0 note=55 velocity=0 time=54
note_on channel=0 note=55 velocity=37 time=40
<meta message set_tempo tempo=563380 time=26>
note_on channel=0 note=55 velocity=0 time=94
<meta message set_tempo tempo=566038 time=26>
note_on channel=0 note=55 velocity=49 time=14
<meta message set_tempo tempo=568720 time=106>
note_on channel=0 note=55 velocity=0 time=14
note_on channel=0 note=55 velocity=36 time=40
<meta message set_tempo tempo=571429 time=66>
note_on channel=0 note=55 velocity=0 time=54
note_on channel=0 note=55 velocity=36 time=40
<meta message set_tempo tempo=574163 time=26>
note_on channel=0 note=55 velocity=0 time=94
<meta message set_tempo tempo=576923 time=26>
<meta message set_tempo tempo=551673 time=14>
note_on channel=0 note=71 velocity=0 time=0
note_on channel=0 note=67 velocity=0 time=0
note_on channel=0 note=74 velocity=0 time=0
note_on channel=0 note=59 velocity=57 time=0
note_on channel=0 note=67 velocity=57 time=0
note_on channel=0 note=71 velocity=68 time=0
note_on channel=0 note=55 velocity=57 time=0
control_change channel=0 control=64 value=127 time=39
note_on channel=0 note=55 velocity=0 time=81
note_on channel=0 note=55 velocity=49 time=40
note_on channel=0 note=55 velocity=0 time=120
note_on channel=0 note=55 velocity=57 time=40
<meta message set_tempo tempo=597015 time=40>
note_on channel=0 note=71 velocity=0 time=0
note_on channel=0 note=59 velocity=0 time=0
note_on channel=0 note=67 velocity=0 time=0
note_on channel=0 note=60 velocity=55 time=0
note_on channel=0 note=69 velocity=55 time=0
note_on channel=0 note=72 velocity=66 time=0
note_on channel=0 note=55 velocity=0 time=80
<meta message set_tempo tempo=541419 time=40>
note_on channel=0 note=60 velocity=0 time=0
note_on channel=0 note=69 velocity=0 time=0
note_on channel=0 note=72 velocity=0 time=0
note_on channel=0 note=62 velocity=67 time=0
note_on channel=0 note=71 velocity=67 time=0
note_on channel=0 note=74 velocity=80 time=0
note_on channel=0 note=55 velocity=64 time=0
<meta message set_tempo tempo=560748 time=7>
control_change channel=0 control=64 value=0 time=0
control_change channel=0 control=64 value=127 time=48
<meta message set_tempo tempo=558140 time=32>
note_on channel=0 note=55 velocity=0 time=33
note_on channel=0 note=55 velocity=51 time=40
<meta message set_tempo tempo=555556 time=7>
<meta message set_tempo tempo=552995 time=80>
note_on channel=0 note=55 velocity=0 time=33
note_on channel=0 note=55 velocity=51 time=40
<meta message set_tempo tempo=550459 time=7>
<meta message set_tempo tempo=547945 time=80>
note_on channel=0 note=55 velocity=0 time=33
<meta message set_tempo tempo=545455 time=27>
note_on channel=0 note=62 velocity=0 time=13
note_on channel=0 note=71 velocity=0 time=0
note_on channel=0 note=74 velocity=0 time=0
note_on channel=0 note=62 velocity=55 time=0
note_on channel=0 note=71 velocity=55 time=0
note_on channel=0 note=74 velocity=66 time=0
note_on channel=0 note=55 velocity=57 time=0
note_on channel=0 note=54 velocity=57 time=0
control_change channel=0 control=64 value=0 time=7
control_change channel=0 control=64 value=127 time=52
<meta message set_tempo tempo=542986 time=8>
note_on channel=0 note=54 velocity=0 time=53
note_on channel=0 note=55 velocity=0 time=0
<meta message set_tempo tempo=540541 time=27>
note_on channel=0 note=55 velocity=47 time=13
note_on channel=0 note=54 velocity=47 time=0
<meta message set_tempo tempo=538117 time=67>
note_on channel=0 note=54 velocity=0 time=53
note_on channel=0 note=55 velocity=0 time=0
<meta message set_tempo tempo=535714 time=27>
note_on channel=0 note=55 velocity=47 time=13
note_on channel=0 note=54 velocity=47 time=0
<meta message set_tempo tempo=533333 time=67>
note_on channel=0 note=54 velocity=0 time=53
note_on channel=0 note=55 velocity=0 time=0
<meta message set_tempo tempo=530973 time=7>
<meta message set_tempo tempo=533333 time=33>
note_on channel=0 note=62 velocity=0 time=0
note_on channel=0 note=71 velocity=0 time=0
note_on channel=0 note=74 velocity=0 time=0
note_on channel=0 note=62 velocity=56 time=0
note_on channel=0 note=71 velocity=56 time=0
note_on channel=0 note=74 velocity=67 time=0
note_on channel=0 note=53 velocity=60 time=0
note_on channel=0 note=55 velocity=60 time=0
control_change channel=0 control=64 value=0 time=16
control_change channel=0 control=64 value=127 time=59
note_on channel=0 note=55 velocity=0 time=45
note_on channel=0 note=53 velocity=0 time=0
note_on channel=0 note=55 velocity=50 time=40
note_on channel=0 note=52 velocity=50 time=0
note_on channel=0 note=52 velocity=0 time=120
note_on channel=0 note=55 velocity=0 time=0
note_on channel=0 note=55 velocity=51 time=40
note_on channel=0 note=50 velocity=51 time=0
note_on channel=0 note=50 velocity=0 time=120
note_on channel=0 note=55 velocity=0 time=0
<meta message set_tempo tempo=551673 time=40>
note_on channel=0 note=62 velocity=0 time=0
note_on channel=0 note=71 velocity=0 time=0
note_on channel=0 note=74 velocity=0 time=0
note_on channel=0 note=64 velocity=53 time=0
note_on channel=0 note=72 velocity=53 time=0
note_on channel=0 note=76 velocity=63 time=0
note_on channel=0 note=55 velocity=61 time=0
note_on channel=0 note=48 velocity=61 time=0
control_change channel=0 control=64 value=0 time=11
control_change channel=0 control=64 value=127 time=61
note_on channel=0 note=48 velocity=0 time=48
note_on channel=0 note=55 velocity=0 time=0
note_on channel=0 note=47 velocity=50 time=40
note_on channel=0 note=55 velocity=50 time=0
note_on channel=0 note=55 velocity=0 time=120
note_on channel=0 note=47 velocity=0 time=0
note_on channel=0 note=55 velocity=51 time=40
note_on channel=0 note=46 velocity=52 time=0
<meta message set_tempo tempo=775996 time=40>
note_on channel=0 note=76 velocity=0 time=0
note_on channel=0 note=64 velocity=0 time=0
note_on channel=0 note=72 velocity=0 time=0
note_on channel=0 note=65 velocity=54 time=0
note_on channel=0 note=74 velocity=54 time=0
note_on channel=0 note=77 velocity=79 time=0
note_on channel=0 note=55 velocity=0 time=80
note_on channel=0 note=46 velocity=0 time=0
<meta message set_tempo tempo=561693 time=40>
note_on channel=0 note=74 velocity=0 time=0
note_on channel=0 note=65 velocity=0 time=0
note_on channel=0 note=77 velocity=0 time=0
note_on channel=0 note=76 velocity=67 time=0
note_on channel=0 note=67 velocity=67 time=0
note_on channel=0 note=79 velocity=93 time=0
note_on channel=0 note=45 velocity=71 time=0
note_on channel=0 note=55 velocity=71 time=0
control_change channel=0 control=64 value=0 time=0
control_change channel=0 control=64 value=127 time=67
note_on channel=0 note=55 velocity=0 time=53
note_on channel=0 note=45 velocity=0 time=0
note_on channel=0 note=45 velocity=54 time=40
note_on channel=0 note=55 velocity=54 time=0
<meta message set_tempo tempo=528634 time=80>
note_on channel=0 note=55 velocity=0 time=40
note_on channel=0 note=45 velocity=0 time=0
note_on channel=0 note=55 velocity=53 time=40
note_on channel=0 note=45 velocity=53 time=0
note_on channel=0 note=45 velocity=0 time=120
note_on channel=0 note=55 velocity=0 time=0
<meta message set_tempo tempo=547945 time=40>
note_on channel=0 note=45 velocity=61 time=0
note_on channel=0 note=55 velocity=61 time=0
control_change channel=0 control=64 value=0 time=15
control_change channel=0 control=64 value=127 time=73
note_on channel=0 note=55 velocity=0 time=32
note_on channel=0 note=45 velocity=0 time=0
note_on channel=0 note=45 velocity=49 time=40
note_on channel=0 note=55 velocity=49 time=0
note_on channel=0 note=79 velocity=0 time=80
note_on channel=0 note=76 velocity=0 time=0
note_on channel=0 note=67 velocity=0 time=0
note_on channel=0 note=74 velocity=62 time=0
note_on channel=0 note=65 velocity=62 time=0
note_on channel=0 note=77 velocity=74 time=0
note_on channel=0 note=45 velocity=0 time=40
note_on channel=0 note=55 velocity=0 time=0
note_on channel=0 note=45 velocity=47 time=40
note_on channel=0 note=55 velocity=47 time=0
note_on channel=0 note=55 velocity=0 time=120
note_on channel=0 note=45 velocity=0 time=0
note_on channel=0 note=77 velocity=0 time=40
note_on channel=0 note=74 velocity=0 time=0
note_on channel=0 note=65 velocity=0 time=0
note_on channel=0 note=64 velocity=55 time=0
note_on channel=0 note=73 velocity=55 time=0
note_on channel=0 note=76 velocity=77 time=0
note_on channel=0 note=45 velocity=56 time=0
note_on channel=0 note=55 velocity=56 time=0
control_change channel=0 control=64 value=0 time=13
control_change channel=0 control=64 value=127 time=72
note_on channel=0 note=55 velocity=0 time=35
note_on channel=0 note=45 velocity=0 time=0
note_on channel=0 note=45 velocity=43 time=40
<meta message set_tempo tempo=579710 time=80>
note_on channel=0 note=45 velocity=0 time=40
note_on channel=0 note=45 velocity=43 time=40
note_on channel=0 note=45 velocity=0 time=120
note_on channel=0 note=64 velocity=0 time=40
note_on channel=0 note=73 velocity=0 time=0
note_on channel=0 note=76 velocity=0 time=0
note_on channel=0 note=45 velocity=54 time=0
note_on channel=0 note=45 velocity=0 time=120
note_on channel=0 note=45 velocity=46 time=40
note_on channel=0 note=45 velocity=0 time=120
note_on channel=0 note=45 velocity=46 time=40
note_on channel=0 note=45 velocity=0 time=120
<meta message set_tempo tempo=563380 time=40>
note_on channel=0 note=55 velocity=51 time=0
note_on channel=0 note=61 velocity=51 time=0
note_on channel=0 note=64 velocity=60 time=0
note_on channel=0 note=46 velocity=50 time=0
control_change channel=0 control=64 value=0 time=0
note_on channel=0 note=46 velocity=0 time=120
control_change channel=0 control=64 value=127 time=4
note_on channel=0 note=45 velocity=41 time=36
<meta message set_tempo tempo=538117 time=80>
note_on channel=0 note=45 velocity=0 time=40
note_on channel=0 note=45 velocity=41 time=40
note_on channel=0 note=45 velocity=0 time=120
<meta message set_tempo tempo=560748 time=40>
note_on channel=0 note=45 velocity=48 time=0
control_change channel=0 control=64 value=0 time=13
control_change channel=0 control=64 value=127 time=58
note_on channel=0 note=45 velocity=0 time=49
note_on channel=0 note=45 velocity=41 time=40
<meta message set_tempo tempo=566038 time=80>
note_on channel=0 note=64 velocity=0 time=0
note_on channel=0 note=65 velocity=54 time=0
note_on channel=0 note=45 velocity=0 time=40
note_on channel=0 note=45 velocity=41 time=40
note_on channel=0 note=45 velocity=0 time=120
note_on channel=0 note=65 velocity=0 time=40
note_on channel=0 note=64 velocity=50 time=0
note_on channel=0 note=45 velocity=49 time=0
control_change channel=0 control=64 value=0 time=15
control_change channel=0 control=64 value=127 time=73
note_on channel=0 note=45 velocity=0 time=32
note_on channel=0 note=45 velocity=41 time=40
<meta message set_tempo tempo=563380 time=80>
note_on channel=0 note=45 velocity=0 time=40
note_on channel=0 note=45 velocity=41 time=40
note_on channel=0 note=45 velocity=0 time=120
<meta message set_tempo tempo=568720 time=40>
note_on channel=0 note=55 velocity=0 time=0
note_on channel=0 note=61 velocity=0 time=0
note_on channel=0 note=64 velocity=0 time=0
note_on channel=0 note=45 velocity=41 time=0
note_on channel=0 note=45 velocity=0 time=120
note_on channel=0 note=45 velocity=41 time=40
note_on channel=0 note=45 velocity=0 time=120
note_on channel=0 note=45 velocity=41 time=40
note_on channel=0 note=45 velocity=0 time=120
<meta message set_tempo tempo=561693 time=40>
note_on channel=0 note=74 velocity=67 time=0
note_on channel=0 note=65 velocity=67 time=0
note_on channel=0 note=77 velocity=93 time=0
note_on channel=0 note=44 velocity=71 time=0
control_change channel=0 control=64 value=0 time=0
control_change channel=0 control=64 value=127 time=67
note_on channel=0 note=44 velocity=0 time=53
note_on channel=0 note=44 velocity=54 time=40
<meta message set_tempo tempo=528634 time=80>
note_on channel=0 note=44 velocity=0 time=40
note_on channel=0 note=44 velocity=53 time=40
note_on channel=0 note=44 velocity=0 time=120
<meta message set_tempo tempo=547945 time=40>
note_on channel=0 note=44 velocity=61 time=0
note_on channel=0 note=44 velocity=0 time=120
note_on channel=0 note=44 velocity=49 time=40
note_on channel=0 note=77 velocity=0 time=80
note_on channel=0 note=74 velocity=0 time=0
note_on channel=0 note=65 velocity=0 time=0
note_on channel=0 note=72 velocity=62 time=0
note_on channel=0 note=63 velocity=62 time=0
note_on channel=0 note=75 velocity=74 time=0
note_on channel=0 note=44 velocity=0 time=40
note_on channel=0 note=44 velocity=47 time=40
note_on channel=0 note=44 velocity=0 time=120
note_on channel=0 note=75 velocity=0 time=40
note_on channel=0 note=63 velocity=0 time=0
note_on channel=0 note=72 velocity=0 time=0
note_on channel=0 note=62 velocity=55 time=0
note_on channel=0 note=71 velocity=55 time=0
note_on channel=0 note=74 velocity=77 time=0
note_on channel=0 note=44 velocity=56 time=0
control_change channel=0 control=64 value=0 time=13
control_change channel=0 control=64 value=127 time=72
note_on channel=0 note=44 velocity=0 time=35
note_on channel=0 note=44 velocity=43 time=40
<meta message set_tempo tempo=579710 time=80>
note_on channel=0 note=44 velocity=0 time=40
note_on channel=0 note=44 velocity=43 time=40
note_on channel=0 note=44 velocity=0 time=120
note_on channel=0 note=62 velocity=0 time=40
note_on channel=0 note=71 velocity=0 time=0
note_on channel=0 note=74 velocity=0 time=0
note_on channel=0 note=44 velocity=54 time=0
note_on channel=0 note=44 velocity=0 time=120
note_on channel=0 note=44 velocity=46 time=40
note_on channel=0 note=44 velocity=0 time=120
note_on channel=0 note=44 velocity=46 time=40
note_on channel=0 note=44 velocity=0 time=120
<meta message set_tempo tempo=563380 time=40>
note_on channel=0 note=53 velocity=51 time=0
note_on channel=0 note=59 velocity=51 time=0
note_on channel=0 note=62 velocity=60 time=0
note_on channel=0 note=43 velocity=50 time=0
control_change channel=0 control=64 value=0 time=0
control_change channel=0 control=64 value=127 time=92
note_on channel=0 note=43 velocity=0 time=28
note_on channel=0 note=44 velocity=41 time=40
<meta message set_tempo tempo=538117 time=80>
note_on channel=0 note=44 velocity=0 time=40
note_on channel=0 note=44 velocity=41 time=40
note_on channel=0 note=44 velocity=0 time=120
<meta message set_tempo tempo=560748 time=40>
note_on channel=0 note=44 velocity=48 time=0
note_on channel=0 note=44 velocity=0 time=120
note_on channel=0 note=44 velocity=41 time=40
<meta message set_tempo tempo=566038 time=80>
note_on channel=0 note=62 velocity=0 time=0
note_on channel=0 note=63 velocity=54 time=0
note_on channel=0 note=44 velocity=0 time=40
note_on channel=0 note=44 velocity=41 time=40
note_on channel=0 note=44 velocity=0 time=120
note_on channel=0 note=63 velocity=0 time=40
note_on channel=0 note=62 velocity=50 time=0
note_on channel=0 note=44 velocity=49 time=0
control_change channel=0 control=64 value=0 time=15
control_change channel=0 control=64 value=127 time=73
note_on channel=0 note=44 velocity=0 time=32
note_on channel=0 note=44 velocity=41 time=40
<meta message set_tempo tempo=563380 time=80>
note_on channel=0 note=44 velocity=0 time=40
note_on channel=0 note=44 velocity=41 time=40
note_on channel=0 note=44 velocity=0 time=120
<meta message set_tempo tempo=568720 time=40>
note_on channel=0 note=53 velocity=0 time=0
note_on channel=0 note=59 velocity=0 time=0
note_on channel=0 note=62 velocity=0 time=0
note_on channel=0 note=43 velocity=41 time=0
control_change channel=0 control=64 value=0 time=14
control_change channel=0 control=64 value=127 time=53
note_on channel=0 note=43 velocity=0 time=53
note_on channel=0 note=43 velocity=41 time=40
note_on channel=0 note=43 velocity=0 time=120
note_on channel=0 note=43 velocity=41 time=40
note_on channel=0 note=43 velocity=0 time=120
<meta message set_tempo tempo=563380 time=40>
note_on channel=0 note=69 velocity=43 time=0
note_on channel=0 note=75 velocity=60 time=0
note_on channel=0 note=42 velocity=34 time=0
note_on channel=0 note=48 velocity=53 time=0
control_change channel=0 control=64 value=0 time=0
note_on channel=0 note=42 velocity=0 time=120
note_on channel=0 note=42 velocity=34 time=40
note_on channel=0 note=42 velocity=0 time=120
note_on channel=0 note=42 velocity=34 time=40
note_on channel=0 note=42 velocity=0 time=120
<meta message set_tempo tempo=558140 time=40>
note_on channel=0 note=42 velocity=41 time=0
note_on channel=0 note=42 velocity=0 time=120
note_on channel=0 note=42 velocity=33 time=40
note_on channel=0 note=42 velocity=0 time=120
note_on channel=0 note=42 velocity=33 time=40
note_on channel=0 note=42 velocity=0 time=120
<meta message set_tempo tempo=558140 time=40>
note_on channel=0 note=48 velocity=0 time=0
note_on channel=0 note=75 velocity=0 time=0
note_on channel=0 note=74 velocity=53 time=0
note_on channel=0 note=42 velocity=34 time=0
note_on channel=0 note=50 velocity=43 time=0
note_on channel=0 note=42 velocity=0 time=120
note_on channel=0 note=42 velocity=32 time=40
note_on channel=0 note=42 velocity=0 time=120
note_on channel=0 note=42 velocity=32 time=40
note_on channel=0 note=42 velocity=0 time=120
<meta message set_tempo tempo=560748 time=40>
note_on channel=0 note=50 velocity=0 time=0
note_on channel=0 note=74 velocity=0 time=0
note_on channel=0 note=72 velocity=50 time=0
note_on channel=0 note=42 velocity=34 time=0
note_on channel=0 note=51 velocity=44 time=0
note_on channel=0 note=42 velocity=0 time=120
note_on channel=0 note=42 velocity=33 time=40
note_on channel=0 note=42 velocity=0 time=120
<meta message set_tempo tempo=621762 time=40>
note_on channel=0 note=42 velocity=33 time=0
note_on channel=0 note=42 velocity=0 time=120
<meta message set_tempo tempo=555556 time=40>
note_on channel=0 note=69 velocity=0 time=0
note_on channel=0 note=72 velocity=0 time=0
note_on channel=0 note=51 velocity=0 time=0
note_on channel=0 note=67 velocity=51 time=0
note_on channel=0 note=43 velocity=34 time=0
note_on channel=0 note=52 velocity=46 time=0
note_on channel=0 note=43 velocity=0 time=120
note_on channel=0 note=43 velocity=34 time=40
note_on channel=0 note=43 velocity=0 time=120
note_on channel=0 note=43 velocity=34 time=40
note_on channel=0 note=43 velocity=0 time=120
note_on channel=0 note=43 velocity=34 time=40
note_on channel=0 note=43 velocity=0 time=120
note_on channel=0 note=43 velocity=34 time=40
note_on channel=0 note=43 velocity=0 time=120
<meta message set_tempo tempo=628272 time=40>
note_on channel=0 note=43 velocity=34 time=0
note_on channel=0 note=43 velocity=0 time=120
<meta message set_tempo tempo=563380 time=40>
note_on channel=0 note=52 velocity=0 time=0
note_on channel=0 note=67 velocity=0 time=0
note_on channel=0 note=72 velocity=51 time=0
note_on channel=0 note=65 velocity=36 time=0
note_on channel=0 note=43 velocity=34 time=0
note_on channel=0 note=50 velocity=45 time=0
note_on channel=0 note=43 velocity=0 time=120
note_on channel=0 note=43 velocity=34 time=40
note_on channel=0 note=72 velocity=0 time=80
note_on channel=0 note=71 velocity=46 time=0
note_on channel=0 note=43 velocity=0 time=40
note_on channel=0 note=43 velocity=35 time=40
note_on channel=0 note=43 velocity=0 time=120
note_on channel=0 note=71 velocity=0 time=40
note_on channel=0 note=69 velocity=49 time=0
note_on channel=0 note=43 velocity=35 time=0
note_on channel=0 note=43 velocity=0 time=120
note_on channel=0 note=43 velocity=30 time=40
note_on channel=0 note=69 velocity=0 time=80
note_on channel=0 note=71 velocity=41 time=0
note_on channel=0 note=43 velocity=0 time=40
<meta message set_tempo tempo=594059 time=40>
note_on channel=0 note=43 velocity=30 time=0
note_on channel=0 note=43 velocity=0 time=120
<meta message set_tempo tempo=563380 time=40>
note_on channel=0 note=71 velocity=0 time=0
note_on channel=0 note=65 velocity=0 time=0
note_on channel=0 note=50 velocity=0 time=0
note_on channel=0 note=64 velocity=34 time=0
note_on channel=0 note=72 velocity=48 time=0
note_on channel=0 note=36 velocity=32 time=0
note_on channel=0 note=48 velocity=38 time=0
note_on channel=0 note=36 velocity=0 time=120
note_on channel=0 note=36 velocity=38 time=40
note_on channel=0 note=36 velocity=0 time=120
note_on channel=0 note=36 velocity=37 time=40
note_on channel=0 note=36 velocity=0 time=120
<meta message set_tempo tempo=555556 time=40>
note_on channel=0 note=36 velocity=37 time=0
note_on channel=0 note=36 velocity=0 time=120
note_on channel=0 note=36 velocity=36 time=40
note_on channel=0 note=36 velocity=0 time=120
note_on channel=0 note=36 velocity=35 time=40
note_on channel=0 note=36 velocity=0 time=120
<meta message set_tempo tempo=560748 time=40>
note_on channel=0 note=36 velocity=35 time=0
note_on channel=0 note=36 velocity=0 time=120
note_on channel=0 note=36 velocity=34 time=40
note_on channel=0 note=36 velocity=0 time=120
note_on channel=0 note=36 velocity=34 time=40
note_on channel=0 note=36 velocity=0 time=120
<meta message set_tempo tempo=563380 time=40>
note_on channel=0 note=36 velocity=33 time=0
note_on channel=0 note=36 velocity=0 time=120
note_on channel=0 note=36 velocity=33 time=40
note_on channel=0 note=36 velocity=0 time=120
note_on channel=0 note=36 velocity=32 time=40
note_on channel=0 note=36 velocity=0 time=120
<meta message set_tempo tempo=555556 time=40>
note_on channel=0 note=36 velocity=31 time=0
note_on channel=0 note=36 velocity=0 time=120
note_on channel=0 note=36 velocity=31 time=40
note_on channel=0 note=36 velocity=0 time=120
note_on channel=0 note=36 velocity=30 time=40
note_on channel=0 note=36 velocity=0 time=120
<meta message set_tempo tempo=558140 time=40>
note_on channel=0 note=36 velocity=30 time=0
note_on channel=0 note=36 velocity=0 time=120
note_on channel=0 note=36 velocity=29 time=40
note_on channel=0 note=36 velocity=0 time=120
<meta message set_tempo tempo=588235 time=40>
note_on channel=0 note=36 velocity=28 time=0
note_on channel=0 note=36 velocity=0 time=120
note_on channel=0 note=48 velocity=0 time=40
note_on channel=0 note=64 velocity=0 time=0
note_on channel=0 note=36 velocity=34 time=0
<meta message set_tempo tempo=551673 time=480>
note_on channel=0 note=36 velocity=0 time=0
note_on channel=0 note=72 velocity=0 time=0
note_on channel=0 note=71 velocity=37 time=0
note_on channel=0 note=71 velocity=0 time=360
note_on channel=0 note=72 velocity=32 time=0
<meta message set_tempo tempo=564334 time=120>
note_on channel=0 note=72 velocity=0 time=0
note_on channel=0 note=74 velocity=43 time=0
note_on channel=0 note=74 velocity=0 time=338
<meta message set_tempo tempo=560748 time=142>
note_on channel=0 note=74 velocity=35 time=0
note_on channel=0 note=67 velocity=29 time=0
note_on channel=0 note=55 velocity=24 time=0
note_on channel=0 note=74 velocity=0 time=338
<meta message set_tempo tempo=542986 time=142>
note_on channel=0 note=74 velocity=35 time=0
note_on channel=0 note=74 velocity=0 time=338
<meta message set_tempo tempo=551673 time=142>
note_on channel=0 note=55 velocity=0 time=0
note_on channel=0 note=67 velocity=0 time=0
note_on channel=0 note=72 velocity=39 time=0
<meta message set_tempo tempo=582524 time=240>
note_on channel=0 note=72 velocity=0 time=0
note_on channel=0 note=71 velocity=39 time=0
<meta message set_tempo tempo=545455 time=240>
note_on channel=0 note=71 velocity=0 time=0
note_on channel=0 note=75 velocity=45 time=0
note_on channel=0 note=55 velocity=24 time=480
note_on channel=0 note=67 velocity=29 time=0
note_on channel=0 note=75 velocity=0 time=240
note_on channel=0 note=74 velocity=37 time=0
note_on channel=0 note=74 velocity=0 time=240
note_on channel=0 note=72 velocity=33 time=0
<meta message set_tempo tempo=594059 time=240>
note_on channel=0 note=72 velocity=0 time=0
note_on channel=0 note=67 velocity=33 time=0
<meta message set_tempo tempo=552995 time=240>
note_on channel=0 note=67 velocity=0 time=0
note_on channel=0 note=67 velocity=0 time=0
note_on channel=0 note=55 velocity=0 time=0
note_on channel=0 note=72 velocity=35 time=0
note_on channel=0 note=60 velocity=29 time=0
<meta message set_tempo tempo=582524 time=240>
note_on channel=0 note=60 velocity=0 time=0
note_on channel=0 note=72 velocity=0 time=0
note_on channel=0 note=74 velocity=40 time=0
note_on channel=0 note=62 velocity=35 time=0
<meta message set_tempo tempo=563380 time=240>
note_on channel=0 note=62 velocity=0 time=0
note_on channel=0 note=74 velocity=0 time=0
note_on channel=0 note=75 velocity=45 time=0
note_on channel=0 note=63 velocity=40 time=0
<meta message set_tempo tempo=571429 time=480>
note_on channel=0 note=63 velocity=0 time=0
note_on channel=0 note=75 velocity=0 time=0
note_on channel=0 note=74 velocity=45 time=0
note_on channel=0 note=62 velocity=33 time=0
note_on channel=0 note=62 velocity=0 time=240
note_on channel=0 note=74 velocity=0 time=0
note_on channel=0 note=72 velocity=42 time=0
note_on channel=0 note=60 velocity=30 time=0
<meta message set_tempo tempo=594059 time=240>
note_on channel=0 note=60 velocity=0 time=0
note_on channel=0 note=72 velocity=0 time=0
note_on channel=0 note=67 velocity=46 time=0
note_on channel=0 note=64 velocity=33 time=0
note_on channel=0 note=55 velocity=28 time=0
note_on channel=0 note=55 velocity=0 time=360
note_on channel=0 note=64 velocity=0 time=0
note_on channel=0 note=67 velocity=0 time=0
<meta message set_tempo tempo=625000 time=120>
note_on channel=0 note=71 velocity=38 time=0
note_on channel=0 note=65 velocity=32 time=0
note_on channel=0 note=62 velocity=30 time=0
note_on channel=0 note=55 velocity=25 time=0
note_on channel=0 note=55 velocity=0 time=360
note_on channel=0 note=71 velocity=0 time=0
note_on channel=0 note=65 velocity=0 time=0
note_on channel=0 note=62 velocity=0 time=0
note_on channel=0 note=64 velocity=36 time=120
note_on channel=0 note=72 velocity=43 time=0
note_on channel=0 note=48 velocity=24 time=0
note_on channel=0 note=55 velocity=27 time=0
note_on channel=0 note=60 velocity=33 time=0
<meta message set_tempo tempo=551673 time=1440>
note_on channel=0 note=60 velocity=0 time=0
note_on channel=0 note=48 velocity=0 time=0
note_on channel=0 note=64 velocity=0 time=0
note_on channel=0 note=72 velocity=0 time=0
note_on channel=0 note=55 velocity=0 time=0
note_on channel=0 note=59 velocity=33 time=0
note_on channel=0 note=59 velocity=0 time=360
note_on channel=0 note=60 velocity=28 time=0
<meta message set_tempo tempo=564334 time=120>
note_on channel=0 note=60 velocity=0 time=0
note_on channel=0 note=62 velocity=38 time=0
note_on channel=0 note=62 velocity=0 time=338
<meta message set_tempo tempo=560748 time=142>
note_on channel=0 note=67 velocity=29 time=0
note_on channel=0 note=79 velocity=37 time=0
note_on channel=0 note=62 velocity=31 time=0
note_on channel=0 note=62 velocity=0 time=338
<meta message set_tempo tempo=545901 time=142>
note_on channel=0 note=62 velocity=31 time=0
note_on channel=0 note=62 velocity=0 time=338
<meta message set_tempo tempo=551673 time=142>
note_on channel=0 note=79 velocity=0 time=0
note_on channel=0 note=67 velocity=0 time=0
note_on channel=0 note=60 velocity=35 time=0
<meta message set_tempo tempo=582524 time=240>
note_on channel=0 note=60 velocity=0 time=120
note_on channel=0 note=62 velocity=35 time=0
<meta message set_tempo tempo=545455 time=120>
note_on channel=0 note=62 velocity=0 time=0
note_on channel=0 note=63 velocity=40 time=0
note_on channel=0 note=67 velocity=29 time=480
note_on channel=0 note=79 velocity=36 time=0
note_on channel=0 note=63 velocity=0 time=240
note_on channel=0 note=62 velocity=33 time=0
note_on channel=0 note=62 velocity=0 time=240
note_on channel=0 note=60 velocity=29 time=0
<meta message set_tempo tempo=594059 time=240>
note_on channel=0 note=60 velocity=0 time=0
note_on channel=0 note=55 velocity=29 time=0
<meta message set_tempo tempo=552995 time=240>
note_on channel=0 note=55 velocity=0 time=0
note_on channel=0 note=79 velocity=0 time=0
note_on channel=0 note=67 velocity=0 time=0
note_on channel=0 note=75 velocity=35 time=0
note_on channel=0 note=60 velocity=29 time=0
<meta message set_tempo tempo=582524 time=240>
note_on channel=0 note=60 velocity=0 time=0
note_on channel=0 note=75 velocity=0 time=0
note_on channel=0 note=77 velocity=40 time=0
note_on channel=0 note=62 velocity=35 time=0
<meta message set_tempo tempo=563380 time=240>
note_on channel=0 note=62 velocity=0 time=0
note_on channel=0 note=77 velocity=0 time=0
note_on channel=0 note=79 velocity=45 time=0
note_on channel=0 note=63 velocity=40 time=0
note_on channel=0 note=79 velocity=0 time=240
note_on channel=0 note=75 velocity=40 time=0
<meta message set_tempo tempo=571429 time=240>
note_on channel=0 note=75 velocity=0 time=0
note_on channel=0 note=63 velocity=0 time=0
note_on channel=0 note=71 velocity=45 time=0
note_on channel=0 note=62 velocity=33 time=0
note_on channel=0 note=62 velocity=0 time=240
note_on channel=0 note=71 velocity=0 time=0
note_on channel=0 note=72 velocity=42 time=0
note_on channel=0 note=60 velocity=30 time=0
<meta message set_tempo tempo=594059 time=240>
note_on channel=0 note=60 velocity=0 time=0
note_on channel=0 note=72 velocity=0 time=0
note_on channel=0 note=67 velocity=46 time=0
note_on channel=0 note=64 velocity=33 time=0
note_on channel=0 note=55 velocity=28 time=0
note_on channel=0 note=55 velocity=0 time=360
note_on channel=0 note=64 velocity=0 time=0
note_on channel=0 note=67 velocity=0 time=0
<meta message set_tempo tempo=625000 time=120>
note_on channel=0 note=71 velocity=38 time=0
note_on channel=0 note=65 velocity=32 time=0
note_on channel=0 note=62 velocity=30 time=0
note_on channel=0 note=55 velocity=25 time=0
note_on channel=0 note=55 velocity=0 time=360
note_on channel=0 note=71 velocity=0 time=0
note_on channel=0 note=65 velocity=0 time=0
note_on channel=0 note=62 velocity=0 time=0
note_on channel=0 note=64 velocity=36 time=120
note_on channel=0 note=72 velocity=43 time=0
note_on channel=0 note=48 velocity=25 time=0
note_on channel=0 note=55 velocity=25 time=0
note_on channel=0 note=60 velocity=30 time=0
<meta message set_tempo tempo=594059 time=960>
note_on channel=0 note=60 velocity=0 time=0
note_on channel=0 note=48 velocity=0 time=0
note_on channel=0 note=64 velocity=0 time=0
note_on channel=0 note=72 velocity=0 time=0
note_on channel=0 note=55 velocity=0 time=0
note_on channel=0 note=67 velocity=46 time=0
note_on channel=0 note=64 velocity=33 time=0
note_on channel=0 note=55 velocity=28 time=0
note_on channel=0 note=55 velocity=0 time=360
note_on channel=0 note=64 velocity=0 time=0
note_on channel=0 note=67 velocity=0 time=0
<meta message set_tempo tempo=625000 time=120>
note_on channel=0 note=71 velocity=38 time=0
note_on channel=0 note=65 velocity=32 time=0
note_on channel=0 note=62 velocity=30 time=0
note_on channel=0 note=55 velocity=25 time=0
note_on channel=0 note=55 velocity=0 time=360
note_on channel=0 note=71 velocity=0 time=0
note_on channel=0 note=65 velocity=0 time=0
note_on channel=0 note=62 velocity=0 time=0
<meta message set_tempo tempo=625000 time=120>
note_on channel=0 note=64 velocity=36 time=0
note_on channel=0 note=72 velocity=43 time=0
note_on channel=0 note=48 velocity=25 time=0
note_on channel=0 note=55 velocity=25 time=0
note_on channel=0 note=60 velocity=30 time=0
<meta message set_tempo tempo=594059 time=960>
note_on channel=0 note=60 velocity=0 time=0
note_on channel=0 note=48 velocity=0 time=0
note_on channel=0 note=64 velocity=0 time=0
note_on channel=0 note=72 velocity=0 time=0
note_on channel=0 note=55 velocity=0 time=0
note_on channel=0 note=55 velocity=48 time=0
note_on channel=0 note=52 velocity=34 time=0
note_on channel=0 note=43 velocity=29 time=0
<meta message set_tempo tempo=648649 time=480>
note_on channel=0 note=43 velocity=0 time=0
note_on channel=0 note=52 velocity=0 time=0
note_on channel=0 note=55 velocity=0 time=0
note_on channel=0 note=59 velocity=41 time=0
note_on channel=0 note=53 velocity=34 time=0
note_on channel=0 note=50 velocity=32 time=0
note_on channel=0 note=43 velocity=27 time=0
<meta message set_tempo tempo=689655 time=480>
note_on channel=0 note=43 velocity=0 time=0
note_on channel=0 note=59 velocity=0 time=0
note_on channel=0 note=53 velocity=0 time=0
note_on channel=0 note=50 velocity=0 time=0
note_on channel=0 note=52 velocity=40 time=0
note_on channel=0 note=60 velocity=48 time=0
note_on channel=0 note=36 velocity=29 time=0
note_on channel=0 note=43 velocity=29 time=0
note_on channel=0 note=48 velocity=36 time=0
control_change channel=0 control=64 value=127 time=267
<meta message set_tempo tempo=759494 time=693>
note_on channel=0 note=48 velocity=0 time=0
note_on channel=0 note=36 velocity=0 time=0
note_on channel=0 note=52 velocity=0 time=0
note_on channel=0 note=60 velocity=0 time=0
note_on channel=0 note=43 velocity=0 time=0
note_on channel=0 note=55 velocity=38 time=0
note_on channel=0 note=52 velocity=38 time=0
note_on channel=0 note=60 velocity=46 time=0
note_on channel=0 note=36 velocity=28 time=0
note_on channel=0 note=43 velocity=28 time=0
note_on channel=0 note=48 velocity=34 time=0
<meta message set_tempo tempo=916031 time=960>
note_on channel=0 note=48 velocity=0 time=0
note_on channel=0 note=52 velocity=0 time=0
note_on channel=0 note=60 velocity=0 time=0
note_on channel=0 note=55 velocity=0 time=0
note_on channel=0 note=43 velocity=0 time=0
note_on channel=0 note=36 velocity=0 time=0
note_on channel=0 note=55 velocity=38 time=0
note_on channel=0 note=52 velocity=38 time=0
note_on channel=0 note=60 velocity=46 time=0
note_on channel=0 note=36 velocity=28 time=0
note_on channel=0 note=43 velocity=28 time=0
note_on channel=0 note=48 velocity=34 time=0
note_on channel=0 note=48 velocity=0 time=1920
note_on channel=0 note=52 velocity=0 time=0
note_on channel=0 note=60 velocity=0 time=0
note_on channel=0 note=55 velocity=0 time=0
note_on channel=0 note=43 velocity=0 time=0
note_on channel=0 note=36 velocity=0 time=0
control_change channel=0 control=64 value=0 time=1387
<meta message end_of_track time=0>
